<?xml version="1.0" encoding="UTF-8" standalone="no"?>
<!DOCTYPE svg PUBLIC "-//W3C//DTD SVG 1.1//EN"
 "http://www.w3.org/Graphics/SVG/1.1/DTD/svg11.dtd">
<!-- Generated by graphviz version 2.40.1 (20161225.0304)
 -->
<!-- Title: Hobs_gg_H3_H1Z_bbll_ATLAS13 Pages: 1 -->
<svg width="436pt" height="297pt"
 viewBox="0.00 0.00 435.50 297.00" xmlns="http://www.w3.org/2000/svg" xmlns:xlink="http://www.w3.org/1999/xlink">
<g id="graph0" class="graph" transform="scale(1 1) rotate(0) translate(4 293)">
<title>Hobs_gg_H3_H1Z_bbll_ATLAS13</title>
<!-- Node2 -->
<g id="node1" class="node">
<title>Node2</title>
<polygon fill="#bfbfbf" stroke="#000000" points="0,-.5 0,-26.5 100,-26.5 100,-.5 0,-.5"/>
<text text-anchor="start" x="8" y="-16.1" font-family="Helvetica,sans-Serif" font-size="8.00" fill="#000000">Hobs_gg_H3_H1Z_bbll</text>
<text text-anchor="middle" x="50" y="-7.1" font-family="Helvetica,sans-Serif" font-size="8.00" fill="#000000">_ATLAS13</text>
</g>
<!-- Node3 -->
<g id="node2" class="node">
<title>Node3</title>
<g id="a_node2"><a xlink:href="../../dc/d1f/class_th_observable.html" target="_top" xlink:title="A class for a model prediction of an observable. ">
<polygon fill="none" stroke="#000000" points=".5,-108.5 .5,-125.5 67.5,-125.5 67.5,-108.5 .5,-108.5"/>
<text text-anchor="middle" x="34" y="-115.1" font-family="Helvetica,sans-Serif" font-size="8.00" fill="#000000">ThObservable</text>
</a>
</g>
</g>
<!-- Node3&#45;&gt;Node2 -->
<g id="edge1" class="edge">
<title>Node3&#45;&gt;Node2</title>
<path fill="none" stroke="#191970" d="M36.9228,-98.0934C40.1152,-77.4421 45.1462,-44.8979 47.9461,-26.7859"/>
<polygon fill="#191970" stroke="#191970" points="33.4331,-97.7583 35.3642,-108.1756 40.3509,-98.8278 33.4331,-97.7583"/>
</g>
<!-- Node4 -->
<g id="node3" class="node">
<title>Node4</title>
<g id="a_node3"><a xlink:href="../../dc/dd5/class_standard_model.html" target="_top" xlink:title="A model class for the Standard Model. ">
<polygon fill="none" stroke="#ff0000" points="207.5,-216.5 207.5,-233.5 278.5,-233.5 278.5,-216.5 207.5,-216.5"/>
<text text-anchor="middle" x="243" y="-223.1" font-family="Helvetica,sans-Serif" font-size="8.00" fill="#000000">StandardModel</text>
</a>
</g>
</g>
<!-- Node4&#45;&gt;Node3 -->
<g id="edge2" class="edge">
<title>Node4&#45;&gt;Node3</title>
<path fill="none" stroke="#9a32cd" stroke-dasharray="5,2" d="M197.3247,-217.0106C148.0437,-207.5473 73.8154,-190.5747 53,-171 40.1129,-158.881 35.9612,-137.5082 34.6276,-125.6092"/>
<polygon fill="#9a32cd" stroke="#9a32cd" points="196.9588,-220.5032 207.4338,-218.9142 198.2543,-213.6241 196.9588,-220.5032"/>
<text text-anchor="middle" x="119.5" y="-191.6" font-family="Helvetica,sans-Serif" font-size="8.00" fill="#000000"> SM</text>
</g>
<!-- Node9 -->
<g id="node6" class="node">
<title>Node9</title>
<g id="a_node6"><a xlink:href="../../dc/df3/class_e_w_s_mcache.html" target="_top" xlink:title="A class for cache variables used in computing radiative corrections to the EW precision observables...">
<polygon fill="none" stroke="#ff0000" points="364.5,-149 364.5,-166 427.5,-166 427.5,-149 364.5,-149"/>
<text text-anchor="middle" x="396" y="-155.6" font-family="Helvetica,sans-Serif" font-size="8.00" fill="#000000">EWSMcache</text>
</a>
</g>
</g>
<!-- Node4&#45;&gt;Node9 -->
<g id="edge6" class="edge">
<title>Node4&#45;&gt;Node9</title>
<path fill="none" stroke="#9a32cd" stroke-dasharray="5,2" d="M271.646,-212.362C302.1807,-198.8909 349.713,-177.9207 376.2965,-166.1927"/>
<polygon fill="#9a32cd" stroke="#9a32cd" points="270.114,-209.2124 262.3776,-216.4511 272.9395,-215.6168 270.114,-209.2124"/>
<text text-anchor="middle" x="331.5" y="-191.6" font-family="Helvetica,sans-Serif" font-size="8.00" fill="#000000"> SM</text>
</g>
<!-- Node48 -->
<g id="node8" class="node">
<title>Node48</title>
<g id="a_node8"><a xlink:href="../../d2/df3/class_n_pbase.html" target="_top" xlink:title="The auxiliary base model class for other model classes. ">
<polygon fill="none" stroke="#000000" points="183.5,-149 183.5,-166 228.5,-166 228.5,-149 183.5,-149"/>
<text text-anchor="middle" x="206" y="-155.6" font-family="Helvetica,sans-Serif" font-size="8.00" fill="#000000">NPbase</text>
</a>
</g>
</g>
<!-- Node4&#45;&gt;Node48 -->
<g id="edge10" class="edge">
<title>Node4&#45;&gt;Node48</title>
<path fill="none" stroke="#191970" d="M213.4868,-210.8791C208.8692,-207.3354 204.7289,-203.0645 202,-198 196.6376,-188.048 199.5407,-174.7157 202.4721,-166.116"/>
<polygon fill="#191970" stroke="#191970" points="211.8206,-213.9705 222.1124,-216.4867 215.636,-208.1017 211.8206,-213.9705"/>
</g>
<!-- Node4&#45;&gt;Node48 -->
<g id="edge11" class="edge">
<title>Node4&#45;&gt;Node48</title>
<path fill="none" stroke="#9a32cd" stroke-dasharray="5,2" d="M228.8965,-208.3772C226.4217,-205.0561 224.0017,-201.5071 222,-198 216.0789,-187.6259 211.3719,-174.6301 208.6359,-166.2004"/>
<polygon fill="#9a32cd" stroke="#9a32cd" points="226.3586,-210.8087 235.3259,-216.4512 231.8345,-206.4481 226.3586,-210.8087"/>
<text text-anchor="middle" x="236.5" y="-191.6" font-family="Helvetica,sans-Serif" font-size="8.00" fill="#000000"> trueSM</text>
</g>
<!-- Node5 -->
<g id="node4" class="node">
<title>Node5</title>
<g id="a_node4"><a xlink:href="../../dd/dfa/class_q_c_d.html" target="_top" xlink:title="A class for parameters related to QCD, hadrons and quarks. ">
<polygon fill="none" stroke="#ff0000" points="226,-271.5 226,-288.5 260,-288.5 260,-271.5 226,-271.5"/>
<text text-anchor="middle" x="243" y="-278.1" font-family="Helvetica,sans-Serif" font-size="8.00" fill="#000000">QCD</text>
</a>
</g>
</g>
<!-- Node5&#45;&gt;Node4 -->
<g id="edge3" class="edge">
<title>Node5&#45;&gt;Node4</title>
<path fill="none" stroke="#191970" d="M243,-261.1166C243,-251.8173 243,-241.0557 243,-233.7149"/>
<polygon fill="#191970" stroke="#191970" points="239.5001,-261.4062 243,-271.4063 246.5001,-261.4063 239.5001,-261.4062"/>
</g>
<!-- Node8 -->
<g id="node5" class="node">
<title>Node8</title>
<g id="a_node5"><a xlink:href="../../db/d32/class_e_w_s_m_two_fermions_l_e_p2.html" target="_top" xlink:title="A class for the form factors , &#160;and &#160;in the processes &#160;at LEP&#45;II. ">
<polygon fill="none" stroke="#ff0000" points="251.5,-72.5 251.5,-89.5 360.5,-89.5 360.5,-72.5 251.5,-72.5"/>
<text text-anchor="middle" x="306" y="-79.1" font-family="Helvetica,sans-Serif" font-size="8.00" fill="#000000">EWSMTwoFermionsLEP2</text>
</a>
</g>
</g>
<!-- Node8&#45;&gt;Node4 -->
<g id="edge4" class="edge">
<title>Node8&#45;&gt;Node4</title>
<path fill="none" stroke="#9a32cd" stroke-dasharray="5,2" d="M296.7739,-98.7744C290.3934,-111.2955 281.8528,-128.5203 275,-144 263.4932,-169.9927 251.6292,-201.4925 246.1383,-216.3928"/>
<polygon fill="#9a32cd" stroke="#9a32cd" points="299.8951,-100.3582 301.3544,-89.8644 293.6695,-97.1578 299.8951,-100.3582"/>
<text text-anchor="middle" x="315.5" y="-155.6" font-family="Helvetica,sans-Serif" font-size="8.00" fill="#000000"> myTwoFermionsLEP2</text>
</g>
<!-- Node9&#45;&gt;Node4 -->
<g id="edge7" class="edge">
<title>Node9&#45;&gt;Node4</title>
<path fill="none" stroke="#9a32cd" stroke-dasharray="5,2" d="M379.201,-173.0638C369.3051,-181.5023 356.1744,-191.5038 343,-198 322.8392,-207.9411 298.5248,-214.6114 278.9198,-218.8349"/>
<polygon fill="#9a32cd" stroke="#9a32cd" points="381.8138,-175.4255 386.9846,-166.1781 377.1757,-170.1826 381.8138,-175.4255"/>
<text text-anchor="middle" x="387" y="-191.6" font-family="Helvetica,sans-Serif" font-size="8.00" fill="#000000"> myEWSMcache</text>
</g>
<!-- Node9&#45;&gt;Node8 -->
<g id="edge5" class="edge">
<title>Node9&#45;&gt;Node8</title>
<path fill="none" stroke="#9a32cd" stroke-dasharray="5,2" d="M377.9162,-142.1288C359.3726,-126.3667 331.1883,-102.4101 316.2037,-89.6732"/>
<polygon fill="#9a32cd" stroke="#9a32cd" points="375.7897,-144.9148 385.6759,-148.7245 380.3232,-139.5812 375.7897,-144.9148"/>
<text text-anchor="middle" x="368" y="-115.1" font-family="Helvetica,sans-Serif" font-size="8.00" fill="#000000"> cache</text>
</g>
<!-- Node47 -->
<g id="node7" class="node">
<title>Node47</title>
<g id="a_node7"><a xlink:href="../../db/d2b/class_georgi_machacek.html" target="_top" xlink:title="A base class for the Georgi&#45;Machacek model. ">
<polygon fill="none" stroke="#000000" points="77.5,-72.5 77.5,-89.5 154.5,-89.5 154.5,-72.5 77.5,-72.5"/>
<text text-anchor="middle" x="116" y="-79.1" font-family="Helvetica,sans-Serif" font-size="8.00" fill="#000000">GeorgiMachacek</text>
</a>
</g>
</g>
<!-- Node47&#45;&gt;Node2 -->
<g id="edge8" class="edge">
<title>Node47&#45;&gt;Node2</title>
<path fill="none" stroke="#9a32cd" stroke-dasharray="5,2" d="M95.0327,-66.2505C90.2185,-62.4838 85.2654,-58.2815 81,-54 72.6259,-45.5943 64.5248,-34.8918 58.7054,-26.6001"/>
<polygon fill="#9a32cd" stroke="#9a32cd" points="93.2646,-69.2986 103.3695,-72.4832 97.456,-63.6922 93.2646,-69.2986"/>
<text text-anchor="middle" x="94" y="-47.6" font-family="Helvetica,sans-Serif" font-size="8.00" fill="#000000"> myGM</text>
</g>
<!-- Node51 -->
<g id="node10" class="node">
<title>Node51</title>
<g id="a_node10"><a xlink:href="../../d7/db7/class_g_mcache.html" target="_top" xlink:title="A class for the caching of GeorgiMachacek objects. ">
<polygon fill="none" stroke="#ff0000" points="128.5,-5 128.5,-22 179.5,-22 179.5,-5 128.5,-5"/>
<text text-anchor="middle" x="154" y="-11.6" font-family="Helvetica,sans-Serif" font-size="8.00" fill="#000000">GMcache</text>
</a>
</g>
</g>
<!-- Node47&#45;&gt;Node51 -->
<g id="edge14" class="edge">
<title>Node47&#45;&gt;Node51</title>
<path fill="none" stroke="#9a32cd" stroke-dasharray="5,2" d="M110.7567,-62.0948C110.1154,-56.3637 110.4323,-50.2108 113,-45 117.9199,-35.0158 127.693,-27.3133 136.4635,-22.0245"/>
<polygon fill="#9a32cd" stroke="#9a32cd" points="107.3981,-63.141 112.8307,-72.237 114.2562,-61.7385 107.3981,-63.141"/>
<text text-anchor="middle" x="126" y="-47.6" font-family="Helvetica,sans-Serif" font-size="8.00" fill="#000000"> myGM</text>
</g>
<!-- Node48&#45;&gt;Node47 -->
<g id="edge9" class="edge">
<title>Node48&#45;&gt;Node47</title>
<path fill="none" stroke="#191970" d="M187.9162,-142.1288C169.3726,-126.3667 141.1883,-102.4101 126.2037,-89.6732"/>
<polygon fill="#191970" stroke="#191970" points="185.7897,-144.9148 195.6759,-148.7245 190.3232,-139.5812 185.7897,-144.9148"/>
</g>
<!-- Node49 -->
<g id="node9" class="node">
<title>Node49</title>
<g id="a_node9"><a xlink:href="../../d5/d76/class_matching.html" target="_top" xlink:title="Matching\&lt; GMMatching,\l GeorgiMachacek \&gt;">
<polygon fill="none" stroke="#ff0000" points="62.5,-144.5 62.5,-170.5 165.5,-170.5 165.5,-144.5 62.5,-144.5"/>
<text text-anchor="start" x="70.5" y="-160.1" font-family="Helvetica,sans-Serif" font-size="8.00" fill="#000000">Matching&lt; GMMatching,</text>
<text text-anchor="middle" x="114" y="-151.1" font-family="Helvetica,sans-Serif" font-size="8.00" fill="#000000"> GeorgiMachacek &gt;</text>
</a>
</g>
</g>
<!-- Node49&#45;&gt;Node47 -->
<g id="edge12" class="edge">
<title>Node49&#45;&gt;Node47</title>
<path fill="none" stroke="#9a32cd" stroke-dasharray="5,2" d="M114.6121,-134.0882C115.0027,-119.1453 115.4869,-100.6269 115.7679,-89.8783"/>
<polygon fill="#9a32cd" stroke="#9a32cd" points="111.111,-134.0866 114.3484,-144.1747 118.1086,-134.2696 111.111,-134.0866"/>
<text text-anchor="middle" x="127" y="-115.1" font-family="Helvetica,sans-Serif" font-size="8.00" fill="#000000"> GMM</text>
</g>
<!-- Node51&#45;&gt;Node47 -->
<g id="edge13" class="edge">
<title>Node51&#45;&gt;Node47</title>
<path fill="none" stroke="#9a32cd" stroke-dasharray="5,2" d="M151.0968,-31.9864C149.4366,-39.1879 146.8821,-47.3024 143,-54 138.9443,-60.9971 132.6222,-67.4571 127.1149,-72.3028"/>
<polygon fill="#9a32cd" stroke="#9a32cd" points="154.5546,-32.5375 152.9858,-22.0595 147.678,-31.2289 154.5546,-32.5375"/>
<text text-anchor="middle" x="171" y="-47.6" font-family="Helvetica,sans-Serif" font-size="8.00" fill="#000000"> myGMcache</text>
</g>
</g>
</svg>
