<?xml version="1.0" encoding="UTF-8" standalone="no"?>
<!DOCTYPE svg PUBLIC "-//W3C//DTD SVG 1.1//EN"
 "http://www.w3.org/Graphics/SVG/1.1/DTD/svg11.dtd">
<!-- Generated by graphviz version 2.40.1 (20161225.0304)
 -->
<!-- Title: EWSMTwoFermionsLEP2.h Pages: 1 -->
<svg width="543pt" height="80pt"
 viewBox="0.00 0.00 543.00 80.00" xmlns="http://www.w3.org/2000/svg" xmlns:xlink="http://www.w3.org/1999/xlink">
<g id="graph0" class="graph" transform="scale(1 1) rotate(0) translate(4 76)">
<title>EWSMTwoFermionsLEP2.h</title>
<!-- Node55 -->
<g id="node1" class="node">
<title>Node55</title>
<polygon fill="#bfbfbf" stroke="#000000" points="226,-54.5 226,-71.5 342,-71.5 342,-54.5 226,-54.5"/>
<text text-anchor="middle" x="284" y="-61.1" font-family="Helvetica,sans-Serif" font-size="8.00" fill="#000000">EWSMTwoFermionsLEP2.h</text>
</g>
<!-- Node56 -->
<g id="node2" class="node">
<title>Node56</title>
<g id="a_node2"><a xlink:href="../../d8/de7/_l_e_p2_two_fermions_8cpp.html" target="_top" xlink:title="LEP2TwoFermions.cpp">
<polygon fill="none" stroke="#000000" points="0,-.5 0,-17.5 100,-17.5 100,-.5 0,-.5"/>
<text text-anchor="middle" x="50" y="-7.1" font-family="Helvetica,sans-Serif" font-size="8.00" fill="#000000">LEP2TwoFermions.cpp</text>
</a>
</g>
</g>
<!-- Node55&#45;&gt;Node56 -->
<g id="edge1" class="edge">
<title>Node55&#45;&gt;Node56</title>
<path fill="none" stroke="#191970" d="M236.9957,-52.1529C192.7831,-41.95 127.4838,-26.8809 86.9045,-17.5164"/>
<polygon fill="#191970" stroke="#191970" points="236.3911,-55.6052 246.922,-54.4435 237.9651,-48.7845 236.3911,-55.6052"/>
</g>
<!-- Node57 -->
<g id="node3" class="node">
<title>Node57</title>
<g id="a_node3"><a xlink:href="../../dd/d9d/_e_w_s_m___output_8cpp.html" target="_top" xlink:title="EWSM_Output.cpp">
<polygon fill="none" stroke="#000000" points="118.5,-.5 118.5,-17.5 203.5,-17.5 203.5,-.5 118.5,-.5"/>
<text text-anchor="middle" x="161" y="-7.1" font-family="Helvetica,sans-Serif" font-size="8.00" fill="#000000">EWSM_Output.cpp</text>
</a>
</g>
</g>
<!-- Node55&#45;&gt;Node57 -->
<g id="edge2" class="edge">
<title>Node55&#45;&gt;Node57</title>
<path fill="none" stroke="#191970" d="M255.2266,-50.3678C232.1926,-40.2553 200.5162,-26.3486 180.3985,-17.5164"/>
<polygon fill="#191970" stroke="#191970" points="253.9468,-53.6283 264.5103,-54.4435 256.7608,-47.2188 253.9468,-53.6283"/>
</g>
<!-- Node58 -->
<g id="node4" class="node">
<title>Node58</title>
<g id="a_node4"><a xlink:href="../../d6/d25/_e_w_s_m_two_fermions_l_e_p2_8cpp.html" target="_top" xlink:title="EWSMTwoFermionsLEP2.cpp">
<polygon fill="none" stroke="#000000" points="221.5,-.5 221.5,-17.5 346.5,-17.5 346.5,-.5 221.5,-.5"/>
<text text-anchor="middle" x="284" y="-7.1" font-family="Helvetica,sans-Serif" font-size="8.00" fill="#000000">EWSMTwoFermionsLEP2.cpp</text>
</a>
</g>
</g>
<!-- Node55&#45;&gt;Node58 -->
<g id="edge3" class="edge">
<title>Node55&#45;&gt;Node58</title>
<path fill="none" stroke="#191970" d="M284,-43.8045C284,-34.9102 284,-24.7798 284,-17.7511"/>
<polygon fill="#191970" stroke="#191970" points="280.5001,-44.083 284,-54.083 287.5001,-44.083 280.5001,-44.083"/>
</g>
<!-- Node59 -->
<g id="node5" class="node">
<title>Node59</title>
<g id="a_node5"><a xlink:href="../../dd/df3/_standard_model_2src_2_standard_model_8cpp.html" target="_top" xlink:title="StandardModel.cpp">
<polygon fill="none" stroke="#000000" points="365,-.5 365,-17.5 451,-17.5 451,-.5 365,-.5"/>
<text text-anchor="middle" x="408" y="-7.1" font-family="Helvetica,sans-Serif" font-size="8.00" fill="#000000">StandardModel.cpp</text>
</a>
</g>
</g>
<!-- Node55&#45;&gt;Node59 -->
<g id="edge4" class="edge">
<title>Node55&#45;&gt;Node59</title>
<path fill="none" stroke="#191970" d="M313.0074,-50.3678C336.2286,-40.2553 368.1625,-26.3486 388.4438,-17.5164"/>
<polygon fill="#191970" stroke="#191970" points="311.4191,-47.2419 303.6482,-54.4435 314.214,-53.6597 311.4191,-47.2419"/>
</g>
<!-- Node60 -->
<g id="node6" class="node">
<title>Node60</title>
<g id="a_node6"><a xlink:href="../../d0/dc3/_e_w_s_u_s_y_8cpp.html" target="_top" xlink:title="EWSUSY.cpp">
<polygon fill="none" stroke="#000000" points="469,-.5 469,-17.5 535,-17.5 535,-.5 469,-.5"/>
<text text-anchor="middle" x="502" y="-7.1" font-family="Helvetica,sans-Serif" font-size="8.00" fill="#000000">EWSUSY.cpp</text>
</a>
</g>
</g>
<!-- Node55&#45;&gt;Node60 -->
<g id="edge5" class="edge">
<title>Node55&#45;&gt;Node60</title>
<path fill="none" stroke="#191970" d="M328.4016,-52.0014C369.9733,-41.7039 431.1576,-26.5481 468.6912,-17.2508"/>
<polygon fill="#191970" stroke="#191970" points="327.4078,-48.6417 318.5427,-54.4435 329.091,-55.4364 327.4078,-48.6417"/>
</g>
</g>
</svg>
