<?xml version="1.0" encoding="UTF-8" standalone="no"?>
<!DOCTYPE svg PUBLIC "-//W3C//DTD SVG 1.1//EN"
 "http://www.w3.org/Graphics/SVG/1.1/DTD/svg11.dtd">
<!-- Generated by graphviz version 2.40.1 (20161225.0304)
 -->
<!-- Title: StringParser.cpp Pages: 1 -->
<svg width="458pt" height="188pt"
 viewBox="0.00 0.00 458.05 188.00" xmlns="http://www.w3.org/2000/svg" xmlns:xlink="http://www.w3.org/1999/xlink">
<g id="graph0" class="graph" transform="scale(1 1) rotate(0) translate(4 184)">
<title>StringParser.cpp</title>
<!-- Node0 -->
<g id="node1" class="node">
<title>Node0</title>
<polygon fill="#bfbfbf" stroke="#000000" points="181.5,-162.5 181.5,-179.5 257.5,-179.5 257.5,-162.5 181.5,-162.5"/>
<text text-anchor="middle" x="219.5" y="-169.1" font-family="Helvetica,sans-Serif" font-size="8.00" fill="#000000">StringParser.cpp</text>
</g>
<!-- Node1 -->
<g id="node2" class="node">
<title>Node1</title>
<g id="a_node2"><a xlink:href="../../d3/d97/_string_parser_8hpp.html" target="_top" xlink:title="StringParser.hpp">
<polygon fill="none" stroke="#ff0000" points="181,-108.5 181,-125.5 258,-125.5 258,-108.5 181,-108.5"/>
<text text-anchor="middle" x="219.5" y="-115.1" font-family="Helvetica,sans-Serif" font-size="8.00" fill="#000000">StringParser.hpp</text>
</a>
</g>
</g>
<!-- Node0&#45;&gt;Node1 -->
<g id="edge1" class="edge">
<title>Node0&#45;&gt;Node1</title>
<path fill="none" stroke="#191970" d="M219.5,-162.083C219.5,-155.0059 219.5,-144.8611 219.5,-135.9865"/>
<polygon fill="#191970" stroke="#191970" points="223.0001,-135.751 219.5,-125.7511 216.0001,-135.7511 223.0001,-135.751"/>
</g>
<!-- Node2 -->
<g id="node3" class="node">
<title>Node2</title>
<polygon fill="none" stroke="#bfbfbf" points="0,-54.5 0,-71.5 37,-71.5 37,-54.5 0,-54.5"/>
<text text-anchor="middle" x="18.5" y="-61.1" font-family="Helvetica,sans-Serif" font-size="8.00" fill="#000000">cstdio</text>
</g>
<!-- Node1&#45;&gt;Node2 -->
<g id="edge2" class="edge">
<title>Node1&#45;&gt;Node2</title>
<path fill="none" stroke="#191970" d="M183.6455,-108.4904C150.3957,-100.4305 99.35,-87.6309 46.8534,-72.2641"/>
<polygon fill="#191970" stroke="#191970" points="47.62,-68.8412 37.0381,-69.3655 45.6374,-75.5545 47.62,-68.8412"/>
</g>
<!-- Node3 -->
<g id="node4" class="node">
<title>Node3</title>
<polygon fill="none" stroke="#bfbfbf" points="55,-54.5 55,-71.5 102,-71.5 102,-54.5 55,-54.5"/>
<text text-anchor="middle" x="78.5" y="-61.1" font-family="Helvetica,sans-Serif" font-size="8.00" fill="#000000">iostream</text>
</g>
<!-- Node1&#45;&gt;Node3 -->
<g id="edge3" class="edge">
<title>Node1&#45;&gt;Node3</title>
<path fill="none" stroke="#191970" d="M197.1581,-108.4435C173.7471,-99.4776 136.7644,-85.314 110.3104,-75.1827"/>
<polygon fill="#191970" stroke="#191970" points="111.3277,-71.8245 100.7373,-71.5164 108.8241,-78.3615 111.3277,-71.8245"/>
</g>
<!-- Node4 -->
<g id="node5" class="node">
<title>Node4</title>
<polygon fill="none" stroke="#bfbfbf" points="176.5,-.5 176.5,-17.5 212.5,-17.5 212.5,-.5 176.5,-.5"/>
<text text-anchor="middle" x="194.5" y="-7.1" font-family="Helvetica,sans-Serif" font-size="8.00" fill="#000000">string</text>
</g>
<!-- Node1&#45;&gt;Node4 -->
<g id="edge4" class="edge">
<title>Node1&#45;&gt;Node4</title>
<path fill="none" stroke="#191970" d="M195.0307,-108.4383C178.933,-101.378 159.1229,-89.626 149.5,-72 139.9354,-54.4808 156.6093,-36.0877 172.2993,-23.7296"/>
<polygon fill="#191970" stroke="#191970" points="174.7541,-26.2693 180.7419,-17.5288 170.6104,-20.6275 174.7541,-26.2693"/>
</g>
<!-- Node5 -->
<g id="node6" class="node">
<title>Node5</title>
<polygon fill="none" stroke="#bfbfbf" points="159,-54.5 159,-71.5 204,-71.5 204,-54.5 159,-54.5"/>
<text text-anchor="middle" x="181.5" y="-61.1" font-family="Helvetica,sans-Serif" font-size="8.00" fill="#000000">sstream</text>
</g>
<!-- Node1&#45;&gt;Node5 -->
<g id="edge5" class="edge">
<title>Node1&#45;&gt;Node5</title>
<path fill="none" stroke="#191970" d="M213.2251,-108.083C207.8575,-100.4554 199.9824,-89.2645 193.4213,-79.9408"/>
<polygon fill="#191970" stroke="#191970" points="196.2755,-77.9149 187.6582,-71.7511 190.5508,-81.9434 196.2755,-77.9149"/>
</g>
<!-- Node6 -->
<g id="node7" class="node">
<title>Node6</title>
<polygon fill="none" stroke="#bfbfbf" points="311.5,-.5 311.5,-17.5 349.5,-17.5 349.5,-.5 311.5,-.5"/>
<text text-anchor="middle" x="330.5" y="-7.1" font-family="Helvetica,sans-Serif" font-size="8.00" fill="#000000">vector</text>
</g>
<!-- Node1&#45;&gt;Node6 -->
<g id="edge6" class="edge">
<title>Node1&#45;&gt;Node6</title>
<path fill="none" stroke="#191970" d="M244.0723,-108.3672C261.9378,-101.0391 285.6688,-88.9887 301.5,-72 313.2884,-59.3497 320.9769,-41.0668 325.4556,-27.4517"/>
<polygon fill="#191970" stroke="#191970" points="328.8509,-28.3144 328.3764,-17.7302 322.147,-26.3002 328.8509,-28.3144"/>
</g>
<!-- Node7 -->
<g id="node8" class="node">
<title>Node7</title>
<polygon fill="none" stroke="#bfbfbf" points="413,-.5 413,-17.5 442,-17.5 442,-.5 413,-.5"/>
<text text-anchor="middle" x="427.5" y="-7.1" font-family="Helvetica,sans-Serif" font-size="8.00" fill="#000000">list</text>
</g>
<!-- Node1&#45;&gt;Node7 -->
<g id="edge7" class="edge">
<title>Node1&#45;&gt;Node7</title>
<path fill="none" stroke="#191970" d="M258.3155,-114.9858C316.3453,-111.0712 421.3911,-100.1883 444.5,-72 455.1208,-59.0447 447.7994,-40.0355 439.7201,-26.289"/>
<polygon fill="#191970" stroke="#191970" points="442.5769,-24.2607 434.2169,-17.752 436.6934,-28.0534 442.5769,-24.2607"/>
</g>
<!-- Node8 -->
<g id="node9" class="node">
<title>Node8</title>
<g id="a_node9"><a xlink:href="../../d6/d44/_vectorlike_array_8hpp.html" target="_top" xlink:title="VectorlikeArray.hpp">
<polygon fill="none" stroke="#ff0000" points="349.5,-54.5 349.5,-71.5 435.5,-71.5 435.5,-54.5 349.5,-54.5"/>
<text text-anchor="middle" x="392.5" y="-61.1" font-family="Helvetica,sans-Serif" font-size="8.00" fill="#000000">VectorlikeArray.hpp</text>
</a>
</g>
</g>
<!-- Node1&#45;&gt;Node8 -->
<g id="edge8" class="edge">
<title>Node1&#45;&gt;Node8</title>
<path fill="none" stroke="#191970" d="M246.9124,-108.4435C276.2693,-99.2801 323.0195,-84.6876 355.5959,-74.5192"/>
<polygon fill="#191970" stroke="#191970" points="356.713,-77.8371 365.2159,-71.5164 354.6272,-71.1551 356.713,-77.8371"/>
</g>
<!-- Node11 -->
<g id="node10" class="node">
<title>Node11</title>
<g id="a_node10"><a xlink:href="../../d6/d75/_useful_stuff_8hpp.html" target="_top" xlink:title="UsefulStuff.hpp">
<polygon fill="none" stroke="#ff0000" points="222,-54.5 222,-71.5 293,-71.5 293,-54.5 222,-54.5"/>
<text text-anchor="middle" x="257.5" y="-61.1" font-family="Helvetica,sans-Serif" font-size="8.00" fill="#000000">UsefulStuff.hpp</text>
</a>
</g>
</g>
<!-- Node1&#45;&gt;Node11 -->
<g id="edge11" class="edge">
<title>Node1&#45;&gt;Node11</title>
<path fill="none" stroke="#191970" d="M225.7749,-108.083C231.1425,-100.4554 239.0176,-89.2645 245.5787,-79.9408"/>
<polygon fill="#191970" stroke="#191970" points="248.4492,-81.9434 251.3418,-71.7511 242.7245,-77.9149 248.4492,-81.9434"/>
</g>
<!-- Node8&#45;&gt;Node6 -->
<g id="edge9" class="edge">
<title>Node8&#45;&gt;Node6</title>
<path fill="none" stroke="#191970" d="M382.5386,-54.324C373.3734,-46.3414 359.5628,-34.3128 348.4718,-24.6529"/>
<polygon fill="#191970" stroke="#191970" points="350.4822,-21.7624 340.6426,-17.8339 345.8847,-27.041 350.4822,-21.7624"/>
</g>
<!-- Node8&#45;&gt;Node7 -->
<g id="edge10" class="edge">
<title>Node8&#45;&gt;Node7</title>
<path fill="none" stroke="#191970" d="M398.2795,-54.083C403.1724,-46.5341 410.3274,-35.4948 416.3326,-26.2298"/>
<polygon fill="#191970" stroke="#191970" points="419.326,-28.0463 421.828,-17.7511 413.452,-24.239 419.326,-28.0463"/>
</g>
<!-- Node11&#45;&gt;Node4 -->
<g id="edge12" class="edge">
<title>Node11&#45;&gt;Node4</title>
<path fill="none" stroke="#191970" d="M247.378,-54.324C237.9736,-46.2631 223.7559,-34.0765 212.431,-24.3695"/>
<polygon fill="#191970" stroke="#191970" points="214.6766,-21.6844 204.8062,-17.8339 210.121,-26.9993 214.6766,-21.6844"/>
</g>
</g>
</svg>
