<?xml version="1.0" encoding="UTF-8" standalone="no"?>
<!DOCTYPE svg PUBLIC "-//W3C//DTD SVG 1.1//EN"
 "http://www.w3.org/Graphics/SVG/1.1/DTD/svg11.dtd">
<!-- Generated by graphviz version 2.38.0 (20140413.2041)
 -->
<!-- Title: NPHiggs.cpp Pages: 1 -->
<svg width="353pt" height="296pt"
 viewBox="0.00 0.00 352.92 296.00" xmlns="http://www.w3.org/2000/svg" xmlns:xlink="http://www.w3.org/1999/xlink">
<g id="graph0" class="graph" transform="scale(1 1) rotate(0) translate(4 292)">
<title>NPHiggs.cpp</title>
<!-- Node1 -->
<g id="node1" class="node"><title>Node1</title>
<polygon fill="#bfbfbf" stroke="black" points="96.4227,-270.5 96.4227,-287.5 159.423,-287.5 159.423,-270.5 96.4227,-270.5"/>
<text text-anchor="middle" x="127.923" y="-277.1" font-family="Helvetica,sans-Serif" font-size="8.00">NPHiggs.cpp</text>
</g>
<!-- Node2 -->
<g id="node2" class="node"><title>Node2</title>
<g id="a_node2"><a xlink:href="../../d5/df8/_n_p_higgs_8h.html" target="_top" xlink:title="NPHiggs.h">
<polygon fill="none" stroke="black" points="65.4227,-216.5 65.4227,-233.5 120.423,-233.5 120.423,-216.5 65.4227,-216.5"/>
<text text-anchor="middle" x="92.9227" y="-223.1" font-family="Helvetica,sans-Serif" font-size="8.00">NPHiggs.h</text>
</a>
</g>
</g>
<!-- Node1&#45;&gt;Node2 -->
<g id="edge1" class="edge"><title>Node1&#45;&gt;Node2</title>
<path fill="none" stroke="midnightblue" d="M122.758,-270.327C117.795,-262.954 110.139,-251.579 103.825,-242.198"/>
<polygon fill="midnightblue" stroke="midnightblue" points="106.596,-240.046 98.1082,-233.704 100.788,-243.954 106.596,-240.046"/>
</g>
<!-- Node10 -->
<g id="node10" class="node"><title>Node10</title>
<polygon fill="none" stroke="#bfbfbf" points="138.423,-216.5 138.423,-233.5 189.423,-233.5 189.423,-216.5 138.423,-216.5"/>
<text text-anchor="middle" x="163.923" y="-223.1" font-family="Helvetica,sans-Serif" font-size="8.00">stdexcept</text>
</g>
<!-- Node1&#45;&gt;Node10 -->
<g id="edge11" class="edge"><title>Node1&#45;&gt;Node10</title>
<path fill="none" stroke="midnightblue" d="M133.235,-270.327C138.339,-262.954 146.214,-251.579 152.709,-242.198"/>
<polygon fill="midnightblue" stroke="midnightblue" points="155.774,-243.918 158.589,-233.704 150.019,-239.934 155.774,-243.918"/>
</g>
<!-- Node3 -->
<g id="node3" class="node"><title>Node3</title>
<g id="a_node3"><a xlink:href="../../d2/de8/_n_pbase_8h.html" target="_top" xlink:title="NPbase.h">
<polygon fill="none" stroke="black" points="66.9227,-162.5 66.9227,-179.5 118.923,-179.5 118.923,-162.5 66.9227,-162.5"/>
<text text-anchor="middle" x="92.9227" y="-169.1" font-family="Helvetica,sans-Serif" font-size="8.00">NPbase.h</text>
</a>
</g>
</g>
<!-- Node2&#45;&gt;Node3 -->
<g id="edge2" class="edge"><title>Node2&#45;&gt;Node3</title>
<path fill="none" stroke="midnightblue" d="M92.9227,-216.327C92.9227,-209.414 92.9227,-198.985 92.9227,-189.979"/>
<polygon fill="midnightblue" stroke="midnightblue" points="96.4228,-189.704 92.9227,-179.704 89.4228,-189.704 96.4228,-189.704"/>
</g>
<!-- Node4 -->
<g id="node4" class="node"><title>Node4</title>
<g id="a_node4"><a xlink:href="../../d6/d0a/_standard_model_8h.html" target="_top" xlink:title="StandardModel.h">
<polygon fill="none" stroke="black" points="54.4227,-108.5 54.4227,-125.5 131.423,-125.5 131.423,-108.5 54.4227,-108.5"/>
<text text-anchor="middle" x="92.9227" y="-115.1" font-family="Helvetica,sans-Serif" font-size="8.00">StandardModel.h</text>
</a>
</g>
</g>
<!-- Node3&#45;&gt;Node4 -->
<g id="edge3" class="edge"><title>Node3&#45;&gt;Node4</title>
<path fill="none" stroke="midnightblue" d="M92.9227,-162.327C92.9227,-155.414 92.9227,-144.985 92.9227,-135.979"/>
<polygon fill="midnightblue" stroke="midnightblue" points="96.4228,-135.704 92.9227,-125.704 89.4228,-135.704 96.4228,-135.704"/>
</g>
<!-- Node5 -->
<g id="node5" class="node"><title>Node5</title>
<g id="a_node5"><a xlink:href="../../d9/d72/gslpp_8h.html" target="_top" xlink:title="gslpp.h">
<polygon fill="none" stroke="red" points="71.9227,-0.5 71.9227,-17.5 113.923,-17.5 113.923,-0.5 71.9227,-0.5"/>
<text text-anchor="middle" x="92.9227" y="-7.1" font-family="Helvetica,sans-Serif" font-size="8.00">gslpp.h</text>
</a>
</g>
</g>
<!-- Node4&#45;&gt;Node5 -->
<g id="edge4" class="edge"><title>Node4&#45;&gt;Node5</title>
<path fill="none" stroke="midnightblue" d="M58.5085,-108.492C38.8628,-102.253 15.8368,-91.1808 3.92267,-72 -12.6192,-45.369 29.9938,-27.1545 61.8181,-17.6724"/>
<polygon fill="midnightblue" stroke="midnightblue" points="63.0022,-20.9753 71.6829,-14.901 61.1089,-14.2362 63.0022,-20.9753"/>
</g>
<!-- Node6 -->
<g id="node6" class="node"><title>Node6</title>
<g id="a_node6"><a xlink:href="../../d4/d68/_q_c_d_8h.html" target="_top" xlink:title="QCD.h">
<polygon fill="none" stroke="red" points="13.4227,-54.5 13.4227,-71.5 54.4227,-71.5 54.4227,-54.5 13.4227,-54.5"/>
<text text-anchor="middle" x="33.9227" y="-61.1" font-family="Helvetica,sans-Serif" font-size="8.00">QCD.h</text>
</a>
</g>
</g>
<!-- Node4&#45;&gt;Node6 -->
<g id="edge5" class="edge"><title>Node4&#45;&gt;Node6</title>
<path fill="none" stroke="midnightblue" d="M84.217,-108.327C75.3279,-100.493 61.3137,-88.1412 50.3338,-78.4641"/>
<polygon fill="midnightblue" stroke="midnightblue" points="52.4804,-75.6906 42.664,-71.7043 47.8519,-80.942 52.4804,-75.6906"/>
</g>
<!-- Node7 -->
<g id="node7" class="node"><title>Node7</title>
<g id="a_node7"><a xlink:href="../../db/d5d/_c_k_m_8h.html" target="_top" xlink:title="CKM.h">
<polygon fill="none" stroke="red" points="72.4227,-54.5 72.4227,-71.5 113.423,-71.5 113.423,-54.5 72.4227,-54.5"/>
<text text-anchor="middle" x="92.9227" y="-61.1" font-family="Helvetica,sans-Serif" font-size="8.00">CKM.h</text>
</a>
</g>
</g>
<!-- Node4&#45;&gt;Node7 -->
<g id="edge6" class="edge"><title>Node4&#45;&gt;Node7</title>
<path fill="none" stroke="midnightblue" d="M92.9227,-108.327C92.9227,-101.414 92.9227,-90.985 92.9227,-81.9789"/>
<polygon fill="midnightblue" stroke="midnightblue" points="96.4228,-81.7042 92.9227,-71.7043 89.4228,-81.7043 96.4228,-81.7042"/>
</g>
<!-- Node8 -->
<g id="node8" class="node"><title>Node8</title>
<g id="a_node8"><a xlink:href="../../db/dba/_wilson_coefficient_8h.html" target="_top" xlink:title="WilsonCoefficient.h">
<polygon fill="none" stroke="red" points="131.423,-54.5 131.423,-71.5 216.423,-71.5 216.423,-54.5 131.423,-54.5"/>
<text text-anchor="middle" x="173.923" y="-61.1" font-family="Helvetica,sans-Serif" font-size="8.00">WilsonCoefficient.h</text>
</a>
</g>
</g>
<!-- Node4&#45;&gt;Node8 -->
<g id="edge8" class="edge"><title>Node4&#45;&gt;Node8</title>
<path fill="none" stroke="midnightblue" d="M104.875,-108.327C117.63,-100.139 138.071,-87.0157 153.409,-77.1692"/>
<polygon fill="midnightblue" stroke="midnightblue" points="155.661,-79.8829 162.185,-71.5352 151.879,-73.9923 155.661,-79.8829"/>
</g>
<!-- Node9 -->
<g id="node9" class="node"><title>Node9</title>
<g id="a_node9"><a xlink:href="../../d6/d16/_standard_model_matching_8h.html" target="_top" xlink:title="StandardModelMatching.h">
<polygon fill="none" stroke="red" points="234.923,-54.5 234.923,-71.5 344.923,-71.5 344.923,-54.5 234.923,-54.5"/>
<text text-anchor="middle" x="289.923" y="-61.1" font-family="Helvetica,sans-Serif" font-size="8.00">StandardModelMatching.h</text>
</a>
</g>
</g>
<!-- Node4&#45;&gt;Node9 -->
<g id="edge9" class="edge"><title>Node4&#45;&gt;Node9</title>
<path fill="none" stroke="midnightblue" d="M121.568,-108.439C155.854,-99.3886 213.404,-84.1977 251.52,-74.1367"/>
<polygon fill="midnightblue" stroke="midnightblue" points="252.467,-77.5067 261.243,-71.5704 250.68,-70.7385 252.467,-77.5067"/>
</g>
<!-- Node7&#45;&gt;Node5 -->
<g id="edge7" class="edge"><title>Node7&#45;&gt;Node5</title>
<path fill="none" stroke="midnightblue" d="M92.9227,-54.3272C92.9227,-47.4145 92.9227,-36.985 92.9227,-27.9789"/>
<polygon fill="midnightblue" stroke="midnightblue" points="96.4228,-27.7042 92.9227,-17.7043 89.4228,-27.7043 96.4228,-27.7042"/>
</g>
<!-- Node9&#45;&gt;Node5 -->
<g id="edge10" class="edge"><title>Node9&#45;&gt;Node5</title>
<path fill="none" stroke="midnightblue" d="M261.277,-54.4388C224.699,-44.7835 161.64,-28.1386 123.952,-18.1905"/>
<polygon fill="midnightblue" stroke="midnightblue" points="124.6,-14.7417 114.038,-15.5736 122.814,-21.5099 124.6,-14.7417"/>
</g>
</g>
</svg>
