<?xml version="1.0" encoding="UTF-8" standalone="no"?>
<!DOCTYPE svg PUBLIC "-//W3C//DTD SVG 1.1//EN"
 "http://www.w3.org/Graphics/SVG/1.1/DTD/svg11.dtd">
<!-- Generated by graphviz version 2.40.1 (20161225.0304)
 -->
<!-- Title: LEP2TwoFermions.cpp Pages: 1 -->
<svg width="412pt" height="296pt"
 viewBox="0.00 0.00 411.50 296.00" xmlns="http://www.w3.org/2000/svg" xmlns:xlink="http://www.w3.org/1999/xlink">
<g id="graph0" class="graph" transform="scale(1 1) rotate(0) translate(4 292)">
<title>LEP2TwoFermions.cpp</title>
<!-- Node0 -->
<g id="node1" class="node">
<title>Node0</title>
<polygon fill="#bfbfbf" stroke="#000000" points="143,-270.5 143,-287.5 243,-287.5 243,-270.5 143,-270.5"/>
<text text-anchor="middle" x="193" y="-277.1" font-family="Helvetica,sans-Serif" font-size="8.00" fill="#000000">LEP2TwoFermions.cpp</text>
</g>
<!-- Node1 -->
<g id="node2" class="node">
<title>Node1</title>
<g id="a_node2"><a xlink:href="../../dc/dad/_e_w_s_m_two_fermions_l_e_p2_8h.html" target="_top" xlink:title="EWSMTwoFermionsLEP2.h">
<polygon fill="none" stroke="#000000" points="74,-216.5 74,-233.5 190,-233.5 190,-216.5 74,-216.5"/>
<text text-anchor="middle" x="132" y="-223.1" font-family="Helvetica,sans-Serif" font-size="8.00" fill="#000000">EWSMTwoFermionsLEP2.h</text>
</a>
</g>
</g>
<!-- Node0&#45;&gt;Node1 -->
<g id="edge1" class="edge">
<title>Node0&#45;&gt;Node1</title>
<path fill="none" stroke="#191970" d="M183.1993,-270.324C174.1819,-262.3414 160.594,-250.3128 149.682,-240.6529"/>
<polygon fill="#191970" stroke="#191970" points="151.7866,-237.8416 141.979,-233.8339 147.1467,-243.083 151.7866,-237.8416"/>
</g>
<!-- Node56 -->
<g id="node9" class="node">
<title>Node56</title>
<g id="a_node9"><a xlink:href="../../da/dfd/_l_e_p2_two_fermions_8h.html" target="_top" xlink:title="LEP2TwoFermions.h">
<polygon fill="none" stroke="#000000" points="263.5,-216.5 263.5,-233.5 354.5,-233.5 354.5,-216.5 263.5,-216.5"/>
<text text-anchor="middle" x="309" y="-223.1" font-family="Helvetica,sans-Serif" font-size="8.00" fill="#000000">LEP2TwoFermions.h</text>
</a>
</g>
</g>
<!-- Node0&#45;&gt;Node56 -->
<g id="edge11" class="edge">
<title>Node0&#45;&gt;Node56</title>
<path fill="none" stroke="#191970" d="M211.3805,-270.4435C230.2165,-261.6751 259.7312,-247.9355 281.3793,-237.8579"/>
<polygon fill="#191970" stroke="#191970" points="283.1167,-240.9098 290.7054,-233.5164 280.1625,-234.5637 283.1167,-240.9098"/>
</g>
<!-- Node2 -->
<g id="node3" class="node">
<title>Node2</title>
<polygon fill="none" stroke="#bfbfbf" points="0,-162.5 0,-179.5 36,-179.5 36,-162.5 0,-162.5"/>
<text text-anchor="middle" x="18" y="-169.1" font-family="Helvetica,sans-Serif" font-size="8.00" fill="#000000">string</text>
</g>
<!-- Node1&#45;&gt;Node2 -->
<g id="edge2" class="edge">
<title>Node1&#45;&gt;Node2</title>
<path fill="none" stroke="#191970" d="M113.9364,-216.4435C95.4252,-207.6751 66.4193,-193.9355 45.1445,-183.8579"/>
<polygon fill="#191970" stroke="#191970" points="46.5148,-180.6343 35.9791,-179.5164 43.5182,-186.9604 46.5148,-180.6343"/>
</g>
<!-- Node3 -->
<g id="node4" class="node">
<title>Node3</title>
<g id="a_node4"><a xlink:href="../../d9/d72/gslpp_8h.html" target="_top" xlink:title="gslpp.h">
<polygon fill="none" stroke="#ff0000" points="109,-54.5 109,-71.5 151,-71.5 151,-54.5 109,-54.5"/>
<text text-anchor="middle" x="130" y="-61.1" font-family="Helvetica,sans-Serif" font-size="8.00" fill="#000000">gslpp.h</text>
</a>
</g>
</g>
<!-- Node1&#45;&gt;Node3 -->
<g id="edge3" class="edge">
<title>Node1&#45;&gt;Node3</title>
<path fill="none" stroke="#191970" d="M125.9163,-216.2537C114.7561,-199.614 91.3871,-161.8529 83,-126 81.1777,-118.2103 79.8584,-115.3573 83,-108 88.1467,-95.9469 98.2814,-85.5764 107.826,-77.8389"/>
<polygon fill="#191970" stroke="#191970" points="110.0398,-80.5532 115.9216,-71.7409 105.8282,-74.9619 110.0398,-80.5532"/>
</g>
<!-- Node19 -->
<g id="node6" class="node">
<title>Node19</title>
<g id="a_node6"><a xlink:href="../../dd/dc1/_polylogarithms_8h.html" target="_top" xlink:title="Polylogarithms.h">
<polygon fill="none" stroke="#ff0000" points="92,-108.5 92,-125.5 168,-125.5 168,-108.5 92,-108.5"/>
<text text-anchor="middle" x="130" y="-115.1" font-family="Helvetica,sans-Serif" font-size="8.00" fill="#000000">Polylogarithms.h</text>
</a>
</g>
</g>
<!-- Node1&#45;&gt;Node19 -->
<g id="edge5" class="edge">
<title>Node1&#45;&gt;Node19</title>
<path fill="none" stroke="#191970" d="M129.2701,-216.4861C126.5492,-207.5198 122.5581,-192.9354 121,-180 119.181,-164.8984 121.9213,-147.8194 124.8432,-135.2573"/>
<polygon fill="#191970" stroke="#191970" points="128.2401,-136.1011 127.3476,-125.5439 121.4617,-134.3534 128.2401,-136.1011"/>
</g>
<!-- Node21 -->
<g id="node7" class="node">
<title>Node21</title>
<g id="a_node7"><a xlink:href="../../d3/d6b/_p_vfunctions_8h.html" target="_top" xlink:title="PVfunctions.h">
<polygon fill="none" stroke="#000000" points="130,-162.5 130,-179.5 196,-179.5 196,-162.5 130,-162.5"/>
<text text-anchor="middle" x="163" y="-169.1" font-family="Helvetica,sans-Serif" font-size="8.00" fill="#000000">PVfunctions.h</text>
</a>
</g>
</g>
<!-- Node1&#45;&gt;Node21 -->
<g id="edge7" class="edge">
<title>Node1&#45;&gt;Node21</title>
<path fill="none" stroke="#191970" d="M137.119,-216.083C141.4075,-208.6127 147.6582,-197.7244 152.9423,-188.5199"/>
<polygon fill="#191970" stroke="#191970" points="156.0329,-190.1662 157.9762,-179.7511 149.9621,-186.6811 156.0329,-190.1662"/>
</g>
<!-- Node22 -->
<g id="node8" class="node">
<title>Node22</title>
<g id="a_node8"><a xlink:href="../../d2/d7c/_e_w_s_m_one_loop_e_w_8h.html" target="_top" xlink:title="EWSMOneLoopEW.h">
<polygon fill="none" stroke="#ff0000" points="214,-162.5 214,-179.5 308,-179.5 308,-162.5 214,-162.5"/>
<text text-anchor="middle" x="261" y="-169.1" font-family="Helvetica,sans-Serif" font-size="8.00" fill="#000000">EWSMOneLoopEW.h</text>
</a>
</g>
</g>
<!-- Node1&#45;&gt;Node22 -->
<g id="edge10" class="edge">
<title>Node1&#45;&gt;Node22</title>
<path fill="none" stroke="#191970" d="M152.4404,-216.4435C173.6704,-207.5566 207.099,-193.5632 231.255,-183.4514"/>
<polygon fill="#191970" stroke="#191970" points="232.7823,-186.6064 240.6552,-179.5164 230.0793,-180.1493 232.7823,-186.6064"/>
</g>
<!-- Node4 -->
<g id="node5" class="node">
<title>Node4</title>
<g id="a_node5"><a xlink:href="../../d1/dc2/gslpp__complex_8h.html" target="_top" xlink:title="gslpp_complex.h">
<polygon fill="none" stroke="#ff0000" points="91.5,-.5 91.5,-17.5 168.5,-17.5 168.5,-.5 91.5,-.5"/>
<text text-anchor="middle" x="130" y="-7.1" font-family="Helvetica,sans-Serif" font-size="8.00" fill="#000000">gslpp_complex.h</text>
</a>
</g>
</g>
<!-- Node3&#45;&gt;Node4 -->
<g id="edge4" class="edge">
<title>Node3&#45;&gt;Node4</title>
<path fill="none" stroke="#191970" d="M130,-54.083C130,-47.0059 130,-36.8611 130,-27.9865"/>
<polygon fill="#191970" stroke="#191970" points="133.5001,-27.751 130,-17.7511 126.5001,-27.7511 133.5001,-27.751"/>
</g>
<!-- Node19&#45;&gt;Node3 -->
<g id="edge6" class="edge">
<title>Node19&#45;&gt;Node3</title>
<path fill="none" stroke="#191970" d="M130,-108.083C130,-101.0059 130,-90.8611 130,-81.9865"/>
<polygon fill="#191970" stroke="#191970" points="133.5001,-81.751 130,-71.7511 126.5001,-81.7511 133.5001,-81.751"/>
</g>
<!-- Node21&#45;&gt;Node3 -->
<g id="edge8" class="edge">
<title>Node21&#45;&gt;Node3</title>
<path fill="none" stroke="#191970" d="M168.2883,-162.1264C175.0041,-149.6348 184.8319,-126.3415 177,-108 171.8533,-95.9469 161.7186,-85.5764 152.174,-77.8389"/>
<polygon fill="#191970" stroke="#191970" points="154.1718,-74.9619 144.0784,-71.7409 149.9602,-80.5532 154.1718,-74.9619"/>
</g>
<!-- Node21&#45;&gt;Node19 -->
<g id="edge9" class="edge">
<title>Node21&#45;&gt;Node19</title>
<path fill="none" stroke="#191970" d="M157.5507,-162.083C152.9855,-154.6127 146.3316,-143.7244 140.7066,-134.5199"/>
<polygon fill="#191970" stroke="#191970" points="143.5489,-132.4588 135.3479,-125.7511 137.5759,-136.109 143.5489,-132.4588"/>
</g>
<!-- Node26 -->
<g id="node10" class="node">
<title>Node26</title>
<g id="a_node10"><a xlink:href="../../d6/d0a/_standard_model_8h.html" target="_top" xlink:title="StandardModel.h">
<polygon fill="none" stroke="#ff0000" points="326.5,-162.5 326.5,-179.5 403.5,-179.5 403.5,-162.5 326.5,-162.5"/>
<text text-anchor="middle" x="365" y="-169.1" font-family="Helvetica,sans-Serif" font-size="8.00" fill="#000000">StandardModel.h</text>
</a>
</g>
</g>
<!-- Node56&#45;&gt;Node26 -->
<g id="edge12" class="edge">
<title>Node56&#45;&gt;Node26</title>
<path fill="none" stroke="#191970" d="M317.9974,-216.324C326.1944,-208.4196 338.5055,-196.5482 348.472,-186.9377"/>
<polygon fill="#191970" stroke="#191970" points="351.0699,-189.2947 355.8389,-179.8339 346.211,-184.2558 351.0699,-189.2947"/>
</g>
</g>
</svg>
