<?xml version="1.0" encoding="UTF-8" standalone="no"?>
<!DOCTYPE svg PUBLIC "-//W3C//DTD SVG 1.1//EN"
 "http://www.w3.org/Graphics/SVG/1.1/DTD/svg11.dtd">
<!-- Generated by graphviz version 2.38.0 (20140413.2041)
 -->
<!-- Title: EWSMThreeLoopQCD.cpp Pages: 1 -->
<svg width="340pt" height="296pt"
 viewBox="0.00 0.00 339.50 296.00" xmlns="http://www.w3.org/2000/svg" xmlns:xlink="http://www.w3.org/1999/xlink">
<g id="graph0" class="graph" transform="scale(1 1) rotate(0) translate(4 292)">
<title>EWSMThreeLoopQCD.cpp</title>
<!-- Node1 -->
<g id="node1" class="node"><title>Node1</title>
<polygon fill="#bfbfbf" stroke="black" points="70.5,-270.5 70.5,-287.5 183.5,-287.5 183.5,-270.5 70.5,-270.5"/>
<text text-anchor="middle" x="127" y="-277.1" font-family="Helvetica,sans-Serif" font-size="8.00">EWSMThreeLoopQCD.cpp</text>
</g>
<!-- Node2 -->
<g id="node2" class="node"><title>Node2</title>
<g id="a_node2"><a xlink:href="../../d8/df5/_e_w_s_m_three_loop_q_c_d_8h.html" target="_top" xlink:title="EWSMThreeLoopQCD.h">
<polygon fill="none" stroke="black" points="74.5,-216.5 74.5,-233.5 179.5,-233.5 179.5,-216.5 74.5,-216.5"/>
<text text-anchor="middle" x="127" y="-223.1" font-family="Helvetica,sans-Serif" font-size="8.00">EWSMThreeLoopQCD.h</text>
</a>
</g>
</g>
<!-- Node1&#45;&gt;Node2 -->
<g id="edge1" class="edge"><title>Node1&#45;&gt;Node2</title>
<path fill="none" stroke="midnightblue" d="M127,-270.327C127,-263.414 127,-252.985 127,-243.979"/>
<polygon fill="midnightblue" stroke="midnightblue" points="130.5,-243.704 127,-233.704 123.5,-243.704 130.5,-243.704"/>
</g>
<!-- Node3 -->
<g id="node3" class="node"><title>Node3</title>
<g id="a_node3"><a xlink:href="../../d8/d46/_e_w_s_mcache_8h.html" target="_top" xlink:title="EWSMcache.h">
<polygon fill="none" stroke="black" points="92.5,-162.5 92.5,-179.5 161.5,-179.5 161.5,-162.5 92.5,-162.5"/>
<text text-anchor="middle" x="127" y="-169.1" font-family="Helvetica,sans-Serif" font-size="8.00">EWSMcache.h</text>
</a>
</g>
</g>
<!-- Node2&#45;&gt;Node3 -->
<g id="edge2" class="edge"><title>Node2&#45;&gt;Node3</title>
<path fill="none" stroke="midnightblue" d="M127,-216.327C127,-209.414 127,-198.985 127,-189.979"/>
<polygon fill="midnightblue" stroke="midnightblue" points="130.5,-189.704 127,-179.704 123.5,-189.704 130.5,-189.704"/>
</g>
<!-- Node4 -->
<g id="node4" class="node"><title>Node4</title>
<polygon fill="none" stroke="#bfbfbf" points="0,-108.5 0,-125.5 38,-125.5 38,-108.5 0,-108.5"/>
<text text-anchor="middle" x="19" y="-115.1" font-family="Helvetica,sans-Serif" font-size="8.00">cmath</text>
</g>
<!-- Node3&#45;&gt;Node4 -->
<g id="edge3" class="edge"><title>Node3&#45;&gt;Node4</title>
<path fill="none" stroke="midnightblue" d="M111.064,-162.327C93.3354,-153.791 64.4693,-139.893 43.785,-129.934"/>
<polygon fill="midnightblue" stroke="midnightblue" points="45.1784,-126.72 34.65,-125.535 42.1417,-133.027 45.1784,-126.72"/>
</g>
<!-- Node5 -->
<g id="node5" class="node"><title>Node5</title>
<g id="a_node5"><a xlink:href="../../d3/d6b/_p_vfunctions_8h.html" target="_top" xlink:title="PVfunctions.h">
<polygon fill="none" stroke="black" points="94,-108.5 94,-125.5 160,-125.5 160,-108.5 94,-108.5"/>
<text text-anchor="middle" x="127" y="-115.1" font-family="Helvetica,sans-Serif" font-size="8.00">PVfunctions.h</text>
</a>
</g>
</g>
<!-- Node3&#45;&gt;Node5 -->
<g id="edge4" class="edge"><title>Node3&#45;&gt;Node5</title>
<path fill="none" stroke="midnightblue" d="M127,-162.327C127,-155.414 127,-144.985 127,-135.979"/>
<polygon fill="midnightblue" stroke="midnightblue" points="130.5,-135.704 127,-125.704 123.5,-135.704 130.5,-135.704"/>
</g>
<!-- Node7 -->
<g id="node7" class="node"><title>Node7</title>
<g id="a_node7"><a xlink:href="../../dd/dc1/_polylogarithms_8h.html" target="_top" xlink:title="Polylogarithms.h">
<polygon fill="none" stroke="black" points="150,-54.5 150,-71.5 226,-71.5 226,-54.5 150,-54.5"/>
<text text-anchor="middle" x="188" y="-61.1" font-family="Helvetica,sans-Serif" font-size="8.00">Polylogarithms.h</text>
</a>
</g>
</g>
<!-- Node3&#45;&gt;Node7 -->
<g id="edge9" class="edge"><title>Node3&#45;&gt;Node7</title>
<path fill="none" stroke="midnightblue" d="M136.687,-162.229C146.19,-154.123 160.462,-140.581 169,-126 177.096,-112.175 182.062,-94.5604 184.877,-81.6423"/>
<polygon fill="midnightblue" stroke="midnightblue" points="188.334,-82.1985 186.821,-71.7123 181.465,-80.8537 188.334,-82.1985"/>
</g>
<!-- Node9 -->
<g id="node9" class="node"><title>Node9</title>
<g id="a_node9"><a xlink:href="../../db/d48/_clausen_functions_8h.html" target="_top" xlink:title="ClausenFunctions.h">
<polygon fill="none" stroke="black" points="244.5,-54.5 244.5,-71.5 331.5,-71.5 331.5,-54.5 244.5,-54.5"/>
<text text-anchor="middle" x="288" y="-61.1" font-family="Helvetica,sans-Serif" font-size="8.00">ClausenFunctions.h</text>
</a>
</g>
</g>
<!-- Node3&#45;&gt;Node9 -->
<g id="edge10" class="edge"><title>Node3&#45;&gt;Node9</title>
<path fill="none" stroke="midnightblue" d="M138.579,-162.377C165.732,-144.5 233.779,-99.6981 267.873,-77.2515"/>
<polygon fill="midnightblue" stroke="midnightblue" points="270.099,-79.9766 276.526,-71.5542 266.249,-74.1299 270.099,-79.9766"/>
</g>
<!-- Node10 -->
<g id="node10" class="node"><title>Node10</title>
<g id="a_node10"><a xlink:href="../../d6/d0a/_standard_model_8h.html" target="_top" xlink:title="StandardModel.h">
<polygon fill="none" stroke="red" points="16.5,-54.5 16.5,-71.5 93.5,-71.5 93.5,-54.5 16.5,-54.5"/>
<text text-anchor="middle" x="55" y="-61.1" font-family="Helvetica,sans-Serif" font-size="8.00">StandardModel.h</text>
</a>
</g>
</g>
<!-- Node3&#45;&gt;Node10 -->
<g id="edge12" class="edge"><title>Node3&#45;&gt;Node10</title>
<path fill="none" stroke="midnightblue" d="M118.114,-162.245C108.979,-153.943 94.75,-140.058 85,-126 75.2035,-111.876 66.9497,-94.0644 61.595,-81.1604"/>
<polygon fill="midnightblue" stroke="midnightblue" points="64.7634,-79.6565 57.8086,-71.6639 58.2611,-82.2491 64.7634,-79.6565"/>
</g>
<!-- Node6 -->
<g id="node6" class="node"><title>Node6</title>
<g id="a_node6"><a xlink:href="../../d9/d72/gslpp_8h.html" target="_top" xlink:title="gslpp.h">
<polygon fill="none" stroke="red" points="101,-0.5 101,-17.5 143,-17.5 143,-0.5 101,-0.5"/>
<text text-anchor="middle" x="122" y="-7.1" font-family="Helvetica,sans-Serif" font-size="8.00">gslpp.h</text>
</a>
</g>
</g>
<!-- Node5&#45;&gt;Node6 -->
<g id="edge5" class="edge"><title>Node5&#45;&gt;Node6</title>
<path fill="none" stroke="midnightblue" d="M126.64,-108.377C125.851,-91.6457 123.95,-51.3313 122.841,-27.8308"/>
<polygon fill="midnightblue" stroke="midnightblue" points="126.324,-27.3781 122.356,-17.5542 119.331,-27.708 126.324,-27.3781"/>
</g>
<!-- Node5&#45;&gt;Node7 -->
<g id="edge6" class="edge"><title>Node5&#45;&gt;Node7</title>
<path fill="none" stroke="midnightblue" d="M136.001,-108.327C145.191,-100.493 159.68,-88.1412 171.033,-78.4641"/>
<polygon fill="midnightblue" stroke="midnightblue" points="173.623,-80.8552 178.962,-71.7043 169.082,-75.5281 173.623,-80.8552"/>
</g>
<!-- Node7&#45;&gt;Node6 -->
<g id="edge7" class="edge"><title>Node7&#45;&gt;Node6</title>
<path fill="none" stroke="midnightblue" d="M178.261,-54.3272C168.123,-46.3392 152.024,-33.6551 139.64,-23.8979"/>
<polygon fill="midnightblue" stroke="midnightblue" points="141.799,-21.1438 131.778,-17.7043 137.467,-26.6422 141.799,-21.1438"/>
</g>
<!-- Node8 -->
<g id="node8" class="node"><title>Node8</title>
<g id="a_node8"><a xlink:href="../../d1/d27/_bernoulli_numbers_8h.html" target="_top" xlink:title="BernoulliNumbers.h">
<polygon fill="none" stroke="black" points="202.5,-0.5 202.5,-17.5 289.5,-17.5 289.5,-0.5 202.5,-0.5"/>
<text text-anchor="middle" x="246" y="-7.1" font-family="Helvetica,sans-Serif" font-size="8.00">BernoulliNumbers.h</text>
</a>
</g>
</g>
<!-- Node7&#45;&gt;Node8 -->
<g id="edge8" class="edge"><title>Node7&#45;&gt;Node8</title>
<path fill="none" stroke="midnightblue" d="M196.558,-54.3272C205.297,-46.4928 219.073,-34.1412 229.867,-24.4641"/>
<polygon fill="midnightblue" stroke="midnightblue" points="232.297,-26.9857 237.407,-17.7043 227.625,-21.7737 232.297,-26.9857"/>
</g>
<!-- Node9&#45;&gt;Node8 -->
<g id="edge11" class="edge"><title>Node9&#45;&gt;Node8</title>
<path fill="none" stroke="midnightblue" d="M281.803,-54.3272C275.723,-46.8 266.276,-35.103 258.612,-25.6144"/>
<polygon fill="midnightblue" stroke="midnightblue" points="261.229,-23.2845 252.223,-17.7043 255.783,-27.6829 261.229,-23.2845"/>
</g>
<!-- Node10&#45;&gt;Node6 -->
<g id="edge13" class="edge"><title>Node10&#45;&gt;Node6</title>
<path fill="none" stroke="midnightblue" d="M64.8861,-54.3272C75.1784,-46.3392 91.5213,-33.6551 104.093,-23.8979"/>
<polygon fill="midnightblue" stroke="midnightblue" points="106.319,-26.6005 112.073,-17.7043 102.028,-21.0706 106.319,-26.6005"/>
</g>
</g>
</svg>
