<?xml version="1.0" encoding="UTF-8" standalone="no"?>
<!DOCTYPE svg PUBLIC "-//W3C//DTD SVG 1.1//EN"
 "http://www.w3.org/Graphics/SVG/1.1/DTD/svg11.dtd">
<!-- Generated by graphviz version 2.40.1 (20161225.0304)
 -->
<!-- Title: log10_gg_H3_hZ_bbZ_TH13 Pages: 1 -->
<svg width="449pt" height="288pt"
 viewBox="0.00 0.00 448.50 288.00" xmlns="http://www.w3.org/2000/svg" xmlns:xlink="http://www.w3.org/1999/xlink">
<g id="graph0" class="graph" transform="scale(1 1) rotate(0) translate(4 284)">
<title>log10_gg_H3_hZ_bbZ_TH13</title>
<!-- Node2 -->
<g id="node1" class="node">
<title>Node2</title>
<polygon fill="#bfbfbf" stroke="#000000" points="0,-.5 0,-17.5 120,-17.5 120,-.5 0,-.5"/>
<text text-anchor="middle" x="60" y="-7.1" font-family="Helvetica,sans-Serif" font-size="8.00" fill="#000000">log10_gg_H3_hZ_bbZ_TH13</text>
</g>
<!-- Node3 -->
<g id="node2" class="node">
<title>Node3</title>
<g id="a_node2"><a xlink:href="../../dc/d1f/class_th_observable.html" target="_top" xlink:title="A class for a model prediction of an observable. ">
<polygon fill="none" stroke="#000000" points="13.5,-99.5 13.5,-116.5 80.5,-116.5 80.5,-99.5 13.5,-99.5"/>
<text text-anchor="middle" x="47" y="-106.1" font-family="Helvetica,sans-Serif" font-size="8.00" fill="#000000">ThObservable</text>
</a>
</g>
</g>
<!-- Node3&#45;&gt;Node2 -->
<g id="edge1" class="edge">
<title>Node3&#45;&gt;Node2</title>
<path fill="none" stroke="#191970" d="M49.4912,-89.0287C52.3126,-67.5427 56.7872,-33.4668 58.8675,-17.6245"/>
<polygon fill="#191970" stroke="#191970" points="45.9855,-88.8438 48.1537,-99.2144 52.9259,-89.7552 45.9855,-88.8438"/>
</g>
<!-- Node4 -->
<g id="node3" class="node">
<title>Node4</title>
<g id="a_node3"><a xlink:href="../../dc/dd5/class_standard_model.html" target="_top" xlink:title="A model class for the Standard Model. ">
<polygon fill="none" stroke="#ff0000" points="220.5,-207.5 220.5,-224.5 291.5,-224.5 291.5,-207.5 220.5,-207.5"/>
<text text-anchor="middle" x="256" y="-214.1" font-family="Helvetica,sans-Serif" font-size="8.00" fill="#000000">StandardModel</text>
</a>
</g>
</g>
<!-- Node4&#45;&gt;Node3 -->
<g id="edge2" class="edge">
<title>Node4&#45;&gt;Node3</title>
<path fill="none" stroke="#9a32cd" stroke-dasharray="5,2" d="M210.3247,-208.0106C161.0437,-198.5473 86.8154,-181.5747 66,-162 53.1129,-149.881 48.9612,-128.5082 47.6276,-116.6092"/>
<polygon fill="#9a32cd" stroke="#9a32cd" points="209.9588,-211.5032 220.4338,-209.9142 211.2543,-204.6241 209.9588,-211.5032"/>
<text text-anchor="middle" x="132.5" y="-182.6" font-family="Helvetica,sans-Serif" font-size="8.00" fill="#000000"> SM</text>
</g>
<!-- Node9 -->
<g id="node6" class="node">
<title>Node9</title>
<g id="a_node6"><a xlink:href="../../dc/df3/class_e_w_s_mcache.html" target="_top" xlink:title="A class for cache variables used in computing radiative corrections to the EW precision observables...">
<polygon fill="none" stroke="#ff0000" points="377.5,-140 377.5,-157 440.5,-157 440.5,-140 377.5,-140"/>
<text text-anchor="middle" x="409" y="-146.6" font-family="Helvetica,sans-Serif" font-size="8.00" fill="#000000">EWSMcache</text>
</a>
</g>
</g>
<!-- Node4&#45;&gt;Node9 -->
<g id="edge6" class="edge">
<title>Node4&#45;&gt;Node9</title>
<path fill="none" stroke="#9a32cd" stroke-dasharray="5,2" d="M284.646,-203.362C315.1807,-189.8909 362.713,-168.9207 389.2965,-157.1927"/>
<polygon fill="#9a32cd" stroke="#9a32cd" points="283.114,-200.2124 275.3776,-207.4511 285.9395,-206.6168 283.114,-200.2124"/>
<text text-anchor="middle" x="344.5" y="-182.6" font-family="Helvetica,sans-Serif" font-size="8.00" fill="#000000"> SM</text>
</g>
<!-- Node48 -->
<g id="node8" class="node">
<title>Node48</title>
<g id="a_node8"><a xlink:href="../../d2/df3/class_n_pbase.html" target="_top" xlink:title="The auxiliary base model class for other model classes. ">
<polygon fill="none" stroke="#000000" points="196.5,-140 196.5,-157 241.5,-157 241.5,-140 196.5,-140"/>
<text text-anchor="middle" x="219" y="-146.6" font-family="Helvetica,sans-Serif" font-size="8.00" fill="#000000">NPbase</text>
</a>
</g>
</g>
<!-- Node4&#45;&gt;Node48 -->
<g id="edge10" class="edge">
<title>Node4&#45;&gt;Node48</title>
<path fill="none" stroke="#191970" d="M226.4868,-201.8791C221.8692,-198.3354 217.7289,-194.0645 215,-189 209.6376,-179.048 212.5407,-165.7157 215.4721,-157.116"/>
<polygon fill="#191970" stroke="#191970" points="224.8206,-204.9705 235.1124,-207.4867 228.636,-199.1017 224.8206,-204.9705"/>
</g>
<!-- Node4&#45;&gt;Node48 -->
<g id="edge11" class="edge">
<title>Node4&#45;&gt;Node48</title>
<path fill="none" stroke="#9a32cd" stroke-dasharray="5,2" d="M241.8965,-199.3772C239.4217,-196.0561 237.0017,-192.5071 235,-189 229.0789,-178.6259 224.3719,-165.6301 221.6359,-157.2004"/>
<polygon fill="#9a32cd" stroke="#9a32cd" points="239.3586,-201.8087 248.3259,-207.4512 244.8345,-197.4481 239.3586,-201.8087"/>
<text text-anchor="middle" x="249.5" y="-182.6" font-family="Helvetica,sans-Serif" font-size="8.00" fill="#000000"> trueSM</text>
</g>
<!-- Node5 -->
<g id="node4" class="node">
<title>Node5</title>
<g id="a_node4"><a xlink:href="../../dd/dfa/class_q_c_d.html" target="_top" xlink:title="A class for parameters related to QCD, hadrons and quarks. ">
<polygon fill="none" stroke="#ff0000" points="239,-262.5 239,-279.5 273,-279.5 273,-262.5 239,-262.5"/>
<text text-anchor="middle" x="256" y="-269.1" font-family="Helvetica,sans-Serif" font-size="8.00" fill="#000000">QCD</text>
</a>
</g>
</g>
<!-- Node5&#45;&gt;Node4 -->
<g id="edge3" class="edge">
<title>Node5&#45;&gt;Node4</title>
<path fill="none" stroke="#191970" d="M256,-252.1166C256,-242.8173 256,-232.0557 256,-224.7149"/>
<polygon fill="#191970" stroke="#191970" points="252.5001,-252.4062 256,-262.4063 259.5001,-252.4063 252.5001,-252.4062"/>
</g>
<!-- Node8 -->
<g id="node5" class="node">
<title>Node8</title>
<g id="a_node5"><a xlink:href="../../db/d32/class_e_w_s_m_two_fermions_l_e_p2.html" target="_top" xlink:title="A class for the form factors , &#160;and &#160;in the processes &#160;at LEP&#45;II. ">
<polygon fill="none" stroke="#ff0000" points="264.5,-63.5 264.5,-80.5 373.5,-80.5 373.5,-63.5 264.5,-63.5"/>
<text text-anchor="middle" x="319" y="-70.1" font-family="Helvetica,sans-Serif" font-size="8.00" fill="#000000">EWSMTwoFermionsLEP2</text>
</a>
</g>
</g>
<!-- Node8&#45;&gt;Node4 -->
<g id="edge4" class="edge">
<title>Node8&#45;&gt;Node4</title>
<path fill="none" stroke="#9a32cd" stroke-dasharray="5,2" d="M309.7739,-89.7744C303.3934,-102.2955 294.8528,-119.5203 288,-135 276.4932,-160.9927 264.6292,-192.4925 259.1383,-207.3928"/>
<polygon fill="#9a32cd" stroke="#9a32cd" points="312.8951,-91.3582 314.3544,-80.8644 306.6695,-88.1578 312.8951,-91.3582"/>
<text text-anchor="middle" x="328.5" y="-146.6" font-family="Helvetica,sans-Serif" font-size="8.00" fill="#000000"> myTwoFermionsLEP2</text>
</g>
<!-- Node9&#45;&gt;Node4 -->
<g id="edge7" class="edge">
<title>Node9&#45;&gt;Node4</title>
<path fill="none" stroke="#9a32cd" stroke-dasharray="5,2" d="M392.201,-164.0638C382.3051,-172.5023 369.1744,-182.5038 356,-189 335.8392,-198.9411 311.5248,-205.6114 291.9198,-209.8349"/>
<polygon fill="#9a32cd" stroke="#9a32cd" points="394.8138,-166.4255 399.9846,-157.1781 390.1757,-161.1826 394.8138,-166.4255"/>
<text text-anchor="middle" x="400" y="-182.6" font-family="Helvetica,sans-Serif" font-size="8.00" fill="#000000"> myEWSMcache</text>
</g>
<!-- Node9&#45;&gt;Node8 -->
<g id="edge5" class="edge">
<title>Node9&#45;&gt;Node8</title>
<path fill="none" stroke="#9a32cd" stroke-dasharray="5,2" d="M390.9162,-133.1288C372.3726,-117.3667 344.1883,-93.4101 329.2037,-80.6732"/>
<polygon fill="#9a32cd" stroke="#9a32cd" points="388.7897,-135.9148 398.6759,-139.7245 393.3232,-130.5812 388.7897,-135.9148"/>
<text text-anchor="middle" x="381" y="-106.1" font-family="Helvetica,sans-Serif" font-size="8.00" fill="#000000"> cache</text>
</g>
<!-- Node47 -->
<g id="node7" class="node">
<title>Node47</title>
<g id="a_node7"><a xlink:href="../../db/d2b/class_georgi_machacek.html" target="_top" xlink:title="A base class for the Georgi&#45;Machacek model. ">
<polygon fill="none" stroke="#000000" points="90.5,-63.5 90.5,-80.5 167.5,-80.5 167.5,-63.5 90.5,-63.5"/>
<text text-anchor="middle" x="129" y="-70.1" font-family="Helvetica,sans-Serif" font-size="8.00" fill="#000000">GeorgiMachacek</text>
</a>
</g>
</g>
<!-- Node47&#45;&gt;Node2 -->
<g id="edge8" class="edge">
<title>Node47&#45;&gt;Node2</title>
<path fill="none" stroke="#9a32cd" stroke-dasharray="5,2" d="M108.9394,-57.3879C103.934,-53.51 98.6661,-49.2224 94,-45 84.3109,-36.2323 74.1413,-25.1848 67.4776,-17.6558"/>
<polygon fill="#9a32cd" stroke="#9a32cd" points="106.8724,-60.2128 116.9628,-63.4433 111.0893,-54.6255 106.8724,-60.2128"/>
<text text-anchor="middle" x="107" y="-38.6" font-family="Helvetica,sans-Serif" font-size="8.00" fill="#000000"> myGM</text>
</g>
<!-- Node51 -->
<g id="node10" class="node">
<title>Node51</title>
<g id="a_node10"><a xlink:href="../../d7/db7/class_g_mcache.html" target="_top" xlink:title="A class for the caching of GeorgiMachacek objects. ">
<polygon fill="none" stroke="#ff0000" points="145.5,-.5 145.5,-17.5 196.5,-17.5 196.5,-.5 145.5,-.5"/>
<text text-anchor="middle" x="171" y="-7.1" font-family="Helvetica,sans-Serif" font-size="8.00" fill="#000000">GMcache</text>
</a>
</g>
</g>
<!-- Node47&#45;&gt;Node51 -->
<g id="edge14" class="edge">
<title>Node47&#45;&gt;Node51</title>
<path fill="none" stroke="#9a32cd" stroke-dasharray="5,2" d="M123.4789,-53.5767C122.7122,-47.6448 123.0258,-41.2529 126,-36 130.6685,-27.7546 138.9706,-21.7525 147.1835,-17.5319"/>
<polygon fill="#9a32cd" stroke="#9a32cd" points="120.081,-54.42 125.6844,-63.4117 126.9113,-52.8882 120.081,-54.42"/>
<text text-anchor="middle" x="139" y="-38.6" font-family="Helvetica,sans-Serif" font-size="8.00" fill="#000000"> myGM</text>
</g>
<!-- Node48&#45;&gt;Node47 -->
<g id="edge9" class="edge">
<title>Node48&#45;&gt;Node47</title>
<path fill="none" stroke="#191970" d="M200.9162,-133.1288C182.3726,-117.3667 154.1883,-93.4101 139.2037,-80.6732"/>
<polygon fill="#191970" stroke="#191970" points="198.7897,-135.9148 208.6759,-139.7245 203.3232,-130.5812 198.7897,-135.9148"/>
</g>
<!-- Node49 -->
<g id="node9" class="node">
<title>Node49</title>
<g id="a_node9"><a xlink:href="../../d5/d76/class_matching.html" target="_top" xlink:title="Matching\&lt; GMMatching,\l GeorgiMachacek \&gt;">
<polygon fill="none" stroke="#ff0000" points="75.5,-135.5 75.5,-161.5 178.5,-161.5 178.5,-135.5 75.5,-135.5"/>
<text text-anchor="start" x="83.5" y="-151.1" font-family="Helvetica,sans-Serif" font-size="8.00" fill="#000000">Matching&lt; GMMatching,</text>
<text text-anchor="middle" x="127" y="-142.1" font-family="Helvetica,sans-Serif" font-size="8.00" fill="#000000"> GeorgiMachacek &gt;</text>
</a>
</g>
</g>
<!-- Node49&#45;&gt;Node47 -->
<g id="edge12" class="edge">
<title>Node49&#45;&gt;Node47</title>
<path fill="none" stroke="#9a32cd" stroke-dasharray="5,2" d="M127.6121,-125.0882C128.0027,-110.1453 128.4869,-91.6269 128.7679,-80.8783"/>
<polygon fill="#9a32cd" stroke="#9a32cd" points="124.111,-125.0866 127.3484,-135.1747 131.1086,-125.2696 124.111,-125.0866"/>
<text text-anchor="middle" x="140" y="-106.1" font-family="Helvetica,sans-Serif" font-size="8.00" fill="#000000"> GMM</text>
</g>
<!-- Node51&#45;&gt;Node47 -->
<g id="edge13" class="edge">
<title>Node51&#45;&gt;Node47</title>
<path fill="none" stroke="#9a32cd" stroke-dasharray="5,2" d="M164.9108,-27.4651C162.5676,-33.32 159.5792,-39.6555 156,-45 151.426,-51.83 144.9483,-58.3782 139.4844,-63.315"/>
<polygon fill="#9a32cd" stroke="#9a32cd" points="168.31,-28.3572 168.42,-17.763 161.7273,-25.9763 168.31,-28.3572"/>
<text text-anchor="middle" x="185" y="-38.6" font-family="Helvetica,sans-Serif" font-size="8.00" fill="#000000"> myGMcache</text>
</g>
</g>
</svg>
