<?xml version="1.0" encoding="UTF-8" standalone="no"?>
<!DOCTYPE svg PUBLIC "-//W3C//DTD SVG 1.1//EN"
 "http://www.w3.org/Graphics/SVG/1.1/DTD/svg11.dtd">
<!-- Generated by graphviz version 2.40.1 (20161225.0304)
 -->
<!-- Title: RGEvolutorNew Pages: 1 -->
<svg width="163pt" height="208pt"
 viewBox="0.00 0.00 162.50 208.00" xmlns="http://www.w3.org/2000/svg" xmlns:xlink="http://www.w3.org/1999/xlink">
<g id="graph0" class="graph" transform="scale(1 1) rotate(0) translate(4 204)">
<title>RGEvolutorNew</title>
<!-- Node0 -->
<g id="node1" class="node">
<title>Node0</title>
<polygon fill="#bfbfbf" stroke="#000000" points="17.5,-55.5 17.5,-72.5 91.5,-72.5 91.5,-55.5 17.5,-55.5"/>
<text text-anchor="middle" x="54.5" y="-62.1" font-family="Helvetica,sans-Serif" font-size="8.00" fill="#000000">RGEvolutorNew</text>
</g>
<!-- Node3 -->
<g id="node4" class="node">
<title>Node3</title>
<g id="a_node4"><a xlink:href="../../dd/d88/class_evol_d_f1.html" target="_top" xlink:title="EvolDF1">
<polygon fill="none" stroke="#000000" points="31,-.5 31,-17.5 78,-17.5 78,-.5 31,-.5"/>
<text text-anchor="middle" x="54.5" y="-7.1" font-family="Helvetica,sans-Serif" font-size="8.00" fill="#000000">EvolDF1</text>
</a>
</g>
</g>
<!-- Node0&#45;&gt;Node3 -->
<g id="edge3" class="edge">
<title>Node0&#45;&gt;Node3</title>
<path fill="none" stroke="#191970" d="M54.5,-45.1166C54.5,-35.8173 54.5,-25.0557 54.5,-17.7149"/>
<polygon fill="#191970" stroke="#191970" points="51.0001,-45.4062 54.5,-55.4063 58.0001,-45.4063 51.0001,-45.4062"/>
</g>
<!-- Node1 -->
<g id="node2" class="node">
<title>Node1</title>
<g id="a_node2"><a xlink:href="../../dd/d6c/class_wilson_template_new.html" target="_top" xlink:title="WilsonTemplateNew\&lt;\l gslpp::matrix\&lt; double \&gt; \&gt;">
<polygon fill="none" stroke="#000000" points="0,-110.5 0,-136.5 109,-136.5 109,-110.5 0,-110.5"/>
<text text-anchor="start" x="8" y="-126.1" font-family="Helvetica,sans-Serif" font-size="8.00" fill="#000000">WilsonTemplateNew&lt;</text>
<text text-anchor="middle" x="54.5" y="-117.1" font-family="Helvetica,sans-Serif" font-size="8.00" fill="#000000"> gslpp::matrix&lt; double &gt; &gt;</text>
</a>
</g>
</g>
<!-- Node1&#45;&gt;Node0 -->
<g id="edge1" class="edge">
<title>Node1&#45;&gt;Node0</title>
<path fill="none" stroke="#191970" d="M54.5,-100.0042C54.5,-90.3375 54.5,-79.7482 54.5,-72.5724"/>
<polygon fill="#191970" stroke="#191970" points="51.0001,-100.295 54.5,-110.295 58.0001,-100.2951 51.0001,-100.295"/>
</g>
<!-- Node2 -->
<g id="node3" class="node">
<title>Node2</title>
<g id="a_node3"><a xlink:href="../../dd/d6c/class_wilson_template_new.html" target="_top" xlink:title="WilsonTemplateNew\&lt; T \&gt;">
<polygon fill="none" stroke="#000000" points="0,-182.5 0,-199.5 109,-199.5 109,-182.5 0,-182.5"/>
<text text-anchor="middle" x="54.5" y="-189.1" font-family="Helvetica,sans-Serif" font-size="8.00" fill="#000000">WilsonTemplateNew&lt; T &gt;</text>
</a>
</g>
</g>
<!-- Node2&#45;&gt;Node1 -->
<g id="edge2" class="edge">
<title>Node2&#45;&gt;Node1</title>
<path fill="none" stroke="#ffa500" stroke-dasharray="5,2" d="M54.5,-172.3829C54.5,-161.1182 54.5,-147.017 54.5,-136.8585"/>
<polygon fill="#ffa500" stroke="#ffa500" points="51.0001,-172.451 54.5,-182.4511 58.0001,-172.4511 51.0001,-172.451"/>
<text text-anchor="middle" x="104.5" y="-157.6" font-family="Helvetica,sans-Serif" font-size="8.00" fill="#000000"> &lt; gslpp::matrix&lt; double &gt; &gt;</text>
</g>
</g>
</svg>
