<?xml version="1.0" encoding="UTF-8" standalone="no"?>
<!DOCTYPE svg PUBLIC "-//W3C//DTD SVG 1.1//EN"
 "http://www.w3.org/Graphics/SVG/1.1/DTD/svg11.dtd">
<!-- Generated by graphviz version 2.40.1 (20161225.0304)
 -->
<!-- Title: EWSUSY.h Pages: 1 -->
<svg width="146pt" height="80pt"
 viewBox="0.00 0.00 145.50 80.00" xmlns="http://www.w3.org/2000/svg" xmlns:xlink="http://www.w3.org/1999/xlink">
<g id="graph0" class="graph" transform="scale(1 1) rotate(0) translate(4 76)">
<title>EWSUSY.h</title>
<!-- Node52 -->
<g id="node1" class="node">
<title>Node52</title>
<polygon fill="#bfbfbf" stroke="#000000" points="43,-54.5 43,-71.5 101,-71.5 101,-54.5 43,-54.5"/>
<text text-anchor="middle" x="72" y="-61.1" font-family="Helvetica,sans-Serif" font-size="8.00" fill="#000000">EWSUSY.h</text>
</g>
<!-- Node53 -->
<g id="node2" class="node">
<title>Node53</title>
<g id="a_node2"><a xlink:href="../../d0/dc3/_e_w_s_u_s_y_8cpp.html" target="_top" xlink:title="EWSUSY.cpp">
<polygon fill="none" stroke="#000000" points="0,-.5 0,-17.5 66,-17.5 66,-.5 0,-.5"/>
<text text-anchor="middle" x="33" y="-7.1" font-family="Helvetica,sans-Serif" font-size="8.00" fill="#000000">EWSUSY.cpp</text>
</a>
</g>
</g>
<!-- Node52&#45;&gt;Node53 -->
<g id="edge1" class="edge">
<title>Node52&#45;&gt;Node53</title>
<path fill="none" stroke="#191970" d="M59.6178,-45.8554C52.8646,-36.5048 44.7914,-25.3265 39.3202,-17.7511"/>
<polygon fill="#191970" stroke="#191970" points="56.8676,-48.0254 65.5599,-54.083 62.5424,-43.927 56.8676,-48.0254"/>
</g>
<!-- Node54 -->
<g id="node3" class="node">
<title>Node54</title>
<g id="a_node3"><a xlink:href="../../d3/dad/_s_u_s_y_8cpp.html" target="_top" xlink:title="SUSY.cpp">
<polygon fill="none" stroke="#000000" points="84.5,-.5 84.5,-17.5 137.5,-17.5 137.5,-.5 84.5,-.5"/>
<text text-anchor="middle" x="111" y="-7.1" font-family="Helvetica,sans-Serif" font-size="8.00" fill="#000000">SUSY.cpp</text>
</a>
</g>
</g>
<!-- Node52&#45;&gt;Node54 -->
<g id="edge2" class="edge">
<title>Node52&#45;&gt;Node54</title>
<path fill="none" stroke="#191970" d="M84.3822,-45.8554C91.1354,-36.5048 99.2086,-25.3265 104.6798,-17.7511"/>
<polygon fill="#191970" stroke="#191970" points="81.4576,-43.927 78.4401,-54.083 87.1324,-48.0254 81.4576,-43.927"/>
</g>
</g>
</svg>
