<?xml version="1.0" encoding="UTF-8" standalone="no"?>
<!DOCTYPE svg PUBLIC "-//W3C//DTD SVG 1.1//EN"
 "http://www.w3.org/Graphics/SVG/1.1/DTD/svg11.dtd">
<!-- Generated by graphviz version 2.38.0 (20140413.2041)
 -->
<!-- Title: NPEffectiveGIMR Pages: 1 -->
<svg width="87pt" height="242pt"
 viewBox="0.00 0.00 87.00 242.00" xmlns="http://www.w3.org/2000/svg" xmlns:xlink="http://www.w3.org/1999/xlink">
<g id="graph0" class="graph" transform="scale(1 1) rotate(0) translate(4 238)">
<title>NPEffectiveGIMR</title>
<!-- Node1 -->
<g id="node1" class="node"><title>Node1</title>
<polygon fill="#bfbfbf" stroke="black" points="0,-0.5 0,-17.5 79,-17.5 79,-0.5 0,-0.5"/>
<text text-anchor="middle" x="39.5" y="-7.1" font-family="Helvetica,sans-Serif" font-size="8.00">NPEffectiveGIMR</text>
</g>
<!-- Node2 -->
<g id="node2" class="node"><title>Node2</title>
<g id="a_node2"><a xlink:href="../../d2/df3/class_n_pbase.html" target="_top" xlink:title="The auxiliary base model class for other model classes. ">
<polygon fill="none" stroke="black" points="17,-54.5 17,-71.5 62,-71.5 62,-54.5 17,-54.5"/>
<text text-anchor="middle" x="39.5" y="-61.1" font-family="Helvetica,sans-Serif" font-size="8.00">NPbase</text>
</a>
</g>
</g>
<!-- Node2&#45;&gt;Node1 -->
<g id="edge1" class="edge"><title>Node2&#45;&gt;Node1</title>
<path fill="none" stroke="midnightblue" d="M39.5,-44.0621C39.5,-35.0603 39.5,-24.6277 39.5,-17.7043"/>
<polygon fill="midnightblue" stroke="midnightblue" points="36.0001,-44.3272 39.5,-54.3272 43.0001,-44.3273 36.0001,-44.3272"/>
</g>
<!-- Node3 -->
<g id="node3" class="node"><title>Node3</title>
<g id="a_node3"><a xlink:href="../../dc/dd5/class_standard_model.html" target="_top" xlink:title="A model class for the Standard Model. ">
<polygon fill="none" stroke="black" points="4,-108.5 4,-125.5 75,-125.5 75,-108.5 4,-108.5"/>
<text text-anchor="middle" x="39.5" y="-115.1" font-family="Helvetica,sans-Serif" font-size="8.00">StandardModel</text>
</a>
</g>
</g>
<!-- Node3&#45;&gt;Node2 -->
<g id="edge2" class="edge"><title>Node3&#45;&gt;Node2</title>
<path fill="none" stroke="midnightblue" d="M39.5,-98.0621C39.5,-89.0603 39.5,-78.6277 39.5,-71.7043"/>
<polygon fill="midnightblue" stroke="midnightblue" points="36.0001,-98.3272 39.5,-108.327 43.0001,-98.3273 36.0001,-98.3272"/>
</g>
<!-- Node4 -->
<g id="node4" class="node"><title>Node4</title>
<g id="a_node4"><a xlink:href="../../dd/dfa/class_q_c_d.html" target="_top" xlink:title="A class for parameters related to QCD, hadrons and quarks. ">
<polygon fill="none" stroke="black" points="22.5,-162.5 22.5,-179.5 56.5,-179.5 56.5,-162.5 22.5,-162.5"/>
<text text-anchor="middle" x="39.5" y="-169.1" font-family="Helvetica,sans-Serif" font-size="8.00">QCD</text>
</a>
</g>
</g>
<!-- Node4&#45;&gt;Node3 -->
<g id="edge3" class="edge"><title>Node4&#45;&gt;Node3</title>
<path fill="none" stroke="midnightblue" d="M39.5,-152.062C39.5,-143.06 39.5,-132.628 39.5,-125.704"/>
<polygon fill="midnightblue" stroke="midnightblue" points="36.0001,-152.327 39.5,-162.327 43.0001,-152.327 36.0001,-152.327"/>
</g>
<!-- Node5 -->
<g id="node5" class="node"><title>Node5</title>
<g id="a_node5"><a xlink:href="../../d0/de3/class_model.html" target="_top" xlink:title="A class for the template of models. ">
<polygon fill="none" stroke="black" points="20.5,-216.5 20.5,-233.5 58.5,-233.5 58.5,-216.5 20.5,-216.5"/>
<text text-anchor="middle" x="39.5" y="-223.1" font-family="Helvetica,sans-Serif" font-size="8.00">Model</text>
</a>
</g>
</g>
<!-- Node5&#45;&gt;Node4 -->
<g id="edge4" class="edge"><title>Node5&#45;&gt;Node4</title>
<path fill="none" stroke="midnightblue" d="M39.5,-206.062C39.5,-197.06 39.5,-186.628 39.5,-179.704"/>
<polygon fill="midnightblue" stroke="midnightblue" points="36.0001,-206.327 39.5,-216.327 43.0001,-206.327 36.0001,-206.327"/>
</g>
</g>
</svg>
