<?xml version="1.0" encoding="UTF-8" standalone="no"?>
<!DOCTYPE svg PUBLIC "-//W3C//DTD SVG 1.1//EN"
 "http://www.w3.org/Graphics/SVG/1.1/DTD/svg11.dtd">
<!-- Generated by graphviz version 2.38.0 (20140413.2041)
 -->
<!-- Title: AFBcharm.h Pages: 1 -->
<svg width="177pt" height="134pt"
 viewBox="0.00 0.00 176.50 134.00" xmlns="http://www.w3.org/2000/svg" xmlns:xlink="http://www.w3.org/1999/xlink">
<g id="graph0" class="graph" transform="scale(1 1) rotate(0) translate(4 130)">
<title>AFBcharm.h</title>
<!-- Node1 -->
<g id="node1" class="node"><title>Node1</title>
<polygon fill="#bfbfbf" stroke="black" points="50,-108.5 50,-125.5 111,-125.5 111,-108.5 50,-108.5"/>
<text text-anchor="middle" x="80.5" y="-115.1" font-family="Helvetica,sans-Serif" font-size="8.00">AFBcharm.h</text>
</g>
<!-- Node2 -->
<g id="node2" class="node"><title>Node2</title>
<g id="a_node2"><a xlink:href="../../d3/dcc/_a_f_bcharm_8cpp.html" target="_top" xlink:title="AFBcharm.cpp">
<polygon fill="none" stroke="black" points="0,-54.5 0,-71.5 69,-71.5 69,-54.5 0,-54.5"/>
<text text-anchor="middle" x="34.5" y="-61.1" font-family="Helvetica,sans-Serif" font-size="8.00">AFBcharm.cpp</text>
</a>
</g>
</g>
<!-- Node1&#45;&gt;Node2 -->
<g id="edge1" class="edge"><title>Node1&#45;&gt;Node2</title>
<path fill="none" stroke="midnightblue" d="M66.9784,-100.715C58.5456,-91.182 48.0523,-79.32 41.3153,-71.7043"/>
<polygon fill="midnightblue" stroke="midnightblue" points="64.4653,-103.156 73.7125,-108.327 69.7083,-98.5182 64.4653,-103.156"/>
</g>
<!-- Node3 -->
<g id="node3" class="node"><title>Node3</title>
<g id="a_node3"><a xlink:href="../../dd/df3/_e_w_observables_8h.html" target="_top" xlink:title="A header file for the observables defined in EW module. ">
<polygon fill="none" stroke="black" points="87,-54.5 87,-71.5 168,-71.5 168,-54.5 87,-54.5"/>
<text text-anchor="middle" x="127.5" y="-61.1" font-family="Helvetica,sans-Serif" font-size="8.00">EWObservables.h</text>
</a>
</g>
</g>
<!-- Node1&#45;&gt;Node3 -->
<g id="edge2" class="edge"><title>Node1&#45;&gt;Node3</title>
<path fill="none" stroke="midnightblue" d="M94.3155,-100.715C102.932,-91.182 113.653,-79.32 120.537,-71.7043"/>
<polygon fill="midnightblue" stroke="midnightblue" points="91.5439,-98.5616 87.435,-108.327 96.737,-103.255 91.5439,-98.5616"/>
</g>
<!-- Node4 -->
<g id="node4" class="node"><title>Node4</title>
<g id="a_node4"><a xlink:href="../../d1/de2/_th_obs_factory_8cpp.html" target="_top" xlink:title="ThObsFactory.cpp">
<polygon fill="none" stroke="black" points="86.5,-0.5 86.5,-17.5 168.5,-17.5 168.5,-0.5 86.5,-0.5"/>
<text text-anchor="middle" x="127.5" y="-7.1" font-family="Helvetica,sans-Serif" font-size="8.00">ThObsFactory.cpp</text>
</a>
</g>
</g>
<!-- Node3&#45;&gt;Node4 -->
<g id="edge3" class="edge"><title>Node3&#45;&gt;Node4</title>
<path fill="none" stroke="midnightblue" d="M127.5,-44.0621C127.5,-35.0603 127.5,-24.6277 127.5,-17.7043"/>
<polygon fill="midnightblue" stroke="midnightblue" points="124,-44.3272 127.5,-54.3272 131,-44.3273 124,-44.3272"/>
</g>
</g>
</svg>
