<?xml version="1.0" encoding="UTF-8" standalone="no"?>
<!DOCTYPE svg PUBLIC "-//W3C//DTD SVG 1.1//EN"
 "http://www.w3.org/Graphics/SVG/1.1/DTD/svg11.dtd">
<!-- Generated by graphviz version 2.38.0 (20140413.2041)
 -->
<!-- Title: MVll Pages: 1 -->
<svg width="730pt" height="325pt"
 viewBox="0.00 0.00 730.00 325.49" xmlns="http://www.w3.org/2000/svg" xmlns:xlink="http://www.w3.org/1999/xlink">
<g id="graph0" class="graph" transform="scale(1 1) rotate(0) translate(4 321.492)">
<title>MVll</title>
<!-- Node1 -->
<g id="node1" class="node"><title>Node1</title>
<polygon fill="#bfbfbf" stroke="black" points="520.5,-60.9924 520.5,-77.9924 552.5,-77.9924 552.5,-60.9924 520.5,-60.9924"/>
<text text-anchor="middle" x="536.5" y="-67.5924" font-family="Helvetica,sans-Serif" font-size="8.00">MVll</text>
</g>
<!-- Node2 -->
<g id="node2" class="node"><title>Node2</title>
<g id="a_node2"><a xlink:href="../../dd/d59/classgslpp_1_1vector.html" target="_top" xlink:title="gslpp::vector\&lt; gslpp\l::complex \&gt;">
<polygon fill="none" stroke="black" points="314,-40.4924 314,-66.4924 402,-66.4924 402,-40.4924 314,-40.4924"/>
<text text-anchor="start" x="322" y="-56.0924" font-family="Helvetica,sans-Serif" font-size="8.00">gslpp::vector&lt; gslpp</text>
<text text-anchor="middle" x="358" y="-47.0924" font-family="Helvetica,sans-Serif" font-size="8.00">::complex &gt;</text>
</a>
</g>
</g>
<!-- Node2&#45;&gt;Node1 -->
<g id="edge1" class="edge"><title>Node2&#45;&gt;Node1</title>
<path fill="none" stroke="#9a32cd" stroke-dasharray="5,2" d="M412.343,-43.387C435.26,-40.7731 462.193,-40.0254 486,-45.4924 498.845,-48.4422 512.226,-55.1859 521.832,-60.776"/>
<polygon fill="#9a32cd" stroke="#9a32cd" points="411.592,-39.9547 402.121,-44.7037 412.486,-46.8973 411.592,-39.9547"/>
<text text-anchor="middle" x="456" y="-66.0924" font-family="Helvetica,sans-Serif" font-size="8.00"> allcoeff</text>
<text text-anchor="middle" x="456" y="-57.0924" font-family="Helvetica,sans-Serif" font-size="8.00">allcoeffprime</text>
<text text-anchor="middle" x="456" y="-48.0924" font-family="Helvetica,sans-Serif" font-size="8.00">allcoeffh</text>
</g>
<!-- Node3 -->
<g id="node3" class="node"><title>Node3</title>
<g id="a_node3"><a xlink:href="../../dd/d59/classgslpp_1_1vector.html" target="_top" xlink:title="A base class for defining operations on vectors, both real and complex. ">
<polygon fill="none" stroke="black" points="121,-124.992 121,-141.992 202,-141.992 202,-124.992 121,-124.992"/>
<text text-anchor="middle" x="161.5" y="-131.592" font-family="Helvetica,sans-Serif" font-size="8.00">gslpp::vector&lt; T &gt;</text>
</a>
</g>
</g>
<!-- Node3&#45;&gt;Node2 -->
<g id="edge2" class="edge"><title>Node3&#45;&gt;Node2</title>
<path fill="none" stroke="orange" stroke-dasharray="5,2" d="M212.468,-135.057C237.836,-133.484 267.88,-127.733 290,-111.492 304.1,-101.14 295.41,-88.6356 308,-76.4924 311.991,-72.6434 316.745,-69.3468 321.698,-66.5525"/>
<polygon fill="orange" stroke="orange" points="212.125,-131.568 202.282,-135.486 212.42,-138.562 212.125,-131.568"/>
<text text-anchor="middle" x="255" y="-137.092" font-family="Helvetica,sans-Serif" font-size="8.00"> &lt; gslpp::complex &gt;</text>
</g>
<!-- Node4 -->
<g id="node4" class="node"><title>Node4</title>
<g id="a_node4"><a xlink:href="../../dd/d9b/classgslpp_1_1complex.html" target="_top" xlink:title="A class for defining operations on and functions of complex numbers. ">
<polygon fill="none" stroke="black" points="0,-177.992 0,-194.992 70,-194.992 70,-177.992 0,-177.992"/>
<text text-anchor="middle" x="35" y="-184.592" font-family="Helvetica,sans-Serif" font-size="8.00">gslpp::complex</text>
</a>
</g>
</g>
<!-- Node4&#45;&gt;Node1 -->
<g id="edge3" class="edge"><title>Node4&#45;&gt;Node1</title>
<path fill="none" stroke="#9a32cd" stroke-dasharray="5,2" d="M46.715,-169.478C71.6126,-131.761 137.576,-41.8359 220,-8.49241 277.252,14.6682 426.731,-15.157 486,-37.4924 500.747,-43.0496 515.664,-53.5009 525.21,-60.947"/>
<polygon fill="#9a32cd" stroke="#9a32cd" points="43.7756,-167.578 41.2849,-177.876 49.6539,-171.379 43.7756,-167.578"/>
<text text-anchor="middle" x="255" y="-101.092" font-family="Helvetica,sans-Serif" font-size="8.00"> C_10p</text>
<text text-anchor="middle" x="255" y="-92.0924" font-family="Helvetica,sans-Serif" font-size="8.00">C_7p</text>
<text text-anchor="middle" x="255" y="-83.0924" font-family="Helvetica,sans-Serif" font-size="8.00">H_b_WC</text>
<text text-anchor="middle" x="255" y="-74.0924" font-family="Helvetica,sans-Serif" font-size="8.00">C_9p_cache</text>
<text text-anchor="middle" x="255" y="-65.0924" font-family="Helvetica,sans-Serif" font-size="8.00">C_1_cache</text>
<text text-anchor="middle" x="255" y="-56.0924" font-family="Helvetica,sans-Serif" font-size="8.00">C_P</text>
<text text-anchor="middle" x="255" y="-47.0924" font-family="Helvetica,sans-Serif" font-size="8.00">C_P_cache</text>
<text text-anchor="middle" x="255" y="-38.0924" font-family="Helvetica,sans-Serif" font-size="8.00">C_2_cache</text>
<text text-anchor="middle" x="255" y="-29.0924" font-family="Helvetica,sans-Serif" font-size="8.00">C_3_cache</text>
<text text-anchor="middle" x="255" y="-20.0924" font-family="Helvetica,sans-Serif" font-size="8.00">C_4_cache</text>
<text text-anchor="middle" x="255" y="-11.0924" font-family="Helvetica,sans-Serif" font-size="8.00">...</text>
</g>
<!-- Node6 -->
<g id="node6" class="node"><title>Node6</title>
<g id="a_node6"><a xlink:href="../../dc/dd5/class_standard_model.html" target="_top" xlink:title="A model class for the Standard Model. ">
<polygon fill="none" stroke="red" points="322.5,-231.992 322.5,-248.992 393.5,-248.992 393.5,-231.992 322.5,-231.992"/>
<text text-anchor="middle" x="358" y="-238.592" font-family="Helvetica,sans-Serif" font-size="8.00">StandardModel</text>
</a>
</g>
</g>
<!-- Node4&#45;&gt;Node6 -->
<g id="edge13" class="edge"><title>Node4&#45;&gt;Node6</title>
<path fill="none" stroke="#9a32cd" stroke-dasharray="5,2" d="M80.6785,-186.162C114.269,-186.578 161.305,-188.576 202,-195.492 249.791,-203.615 303.775,-221.31 333.756,-231.93"/>
<polygon fill="#9a32cd" stroke="#9a32cd" points="80.2979,-182.659 70.27,-186.079 80.2416,-189.659 80.2979,-182.659"/>
<text text-anchor="middle" x="161.5" y="-207.092" font-family="Helvetica,sans-Serif" font-size="8.00"> rhoZ_f_cache</text>
<text text-anchor="middle" x="161.5" y="-198.092" font-family="Helvetica,sans-Serif" font-size="8.00">kappaZ_f_cache</text>
</g>
<!-- Node9 -->
<g id="node9" class="node"><title>Node9</title>
<g id="a_node9"><a xlink:href="../../d9/db9/class_c_k_m.html" target="_top" xlink:title="A class for the CKM matrix elements. ">
<polygon fill="none" stroke="black" points="144.5,-258.992 144.5,-275.992 178.5,-275.992 178.5,-258.992 144.5,-258.992"/>
<text text-anchor="middle" x="161.5" y="-265.592" font-family="Helvetica,sans-Serif" font-size="8.00">CKM</text>
</a>
</g>
</g>
<!-- Node4&#45;&gt;Node9 -->
<g id="edge10" class="edge"><title>Node4&#45;&gt;Node9</title>
<path fill="none" stroke="#9a32cd" stroke-dasharray="5,2" d="M54.0804,-201.65C70.7779,-215.212 96.6113,-235.114 121,-249.492 128.401,-253.856 137.043,-257.902 144.354,-261.049"/>
<polygon fill="#9a32cd" stroke="#9a32cd" points="56.1839,-198.848 46.2375,-195.198 51.737,-204.254 56.1839,-198.848"/>
<text text-anchor="middle" x="95.5" y="-311.092" font-family="Helvetica,sans-Serif" font-size="8.00"> Vtb</text>
<text text-anchor="middle" x="95.5" y="-302.092" font-family="Helvetica,sans-Serif" font-size="8.00">Vcb</text>
<text text-anchor="middle" x="95.5" y="-293.092" font-family="Helvetica,sans-Serif" font-size="8.00">Vts</text>
<text text-anchor="middle" x="95.5" y="-284.092" font-family="Helvetica,sans-Serif" font-size="8.00">Vcs</text>
<text text-anchor="middle" x="95.5" y="-275.092" font-family="Helvetica,sans-Serif" font-size="8.00">Vud</text>
<text text-anchor="middle" x="95.5" y="-266.092" font-family="Helvetica,sans-Serif" font-size="8.00">Vtd</text>
<text text-anchor="middle" x="95.5" y="-257.092" font-family="Helvetica,sans-Serif" font-size="8.00">Vcd</text>
<text text-anchor="middle" x="95.5" y="-248.092" font-family="Helvetica,sans-Serif" font-size="8.00">Vub</text>
<text text-anchor="middle" x="95.5" y="-239.092" font-family="Helvetica,sans-Serif" font-size="8.00">Vus</text>
</g>
<!-- Node5 -->
<g id="node5" class="node"><title>Node5</title>
<g id="a_node5"><a xlink:href="../../d6/d73/classgslpp_1_1vector_3_01double_01_4.html" target="_top" xlink:title="A class for constructing and defining operations on real vectors. ">
<polygon fill="none" stroke="black" points="308,-85.9924 308,-102.992 408,-102.992 408,-85.9924 308,-85.9924"/>
<text text-anchor="middle" x="358" y="-92.5924" font-family="Helvetica,sans-Serif" font-size="8.00">gslpp::vector&lt; double &gt;</text>
</a>
</g>
</g>
<!-- Node5&#45;&gt;Node1 -->
<g id="edge4" class="edge"><title>Node5&#45;&gt;Node1</title>
<path fill="none" stroke="#9a32cd" stroke-dasharray="5,2" d="M418.136,-86.1161C454.262,-80.9993 497.717,-74.8441 520.258,-71.6513"/>
<polygon fill="#9a32cd" stroke="#9a32cd" points="417.575,-82.6606 408.165,-87.5285 418.557,-89.5914 417.575,-82.6606"/>
<text text-anchor="middle" x="456" y="-178.092" font-family="Helvetica,sans-Serif" font-size="8.00"> H_Pcache</text>
<text text-anchor="middle" x="456" y="-169.092" font-family="Helvetica,sans-Serif" font-size="8.00">N_cache</text>
<text text-anchor="middle" x="456" y="-160.092" font-family="Helvetica,sans-Serif" font-size="8.00">k2_cache</text>
<text text-anchor="middle" x="456" y="-151.092" font-family="Helvetica,sans-Serif" font-size="8.00">H_V2cache</text>
<text text-anchor="middle" x="456" y="-142.092" font-family="Helvetica,sans-Serif" font-size="8.00">Ycache</text>
<text text-anchor="middle" x="456" y="-133.092" font-family="Helvetica,sans-Serif" font-size="8.00">T_cache</text>
<text text-anchor="middle" x="456" y="-124.092" font-family="Helvetica,sans-Serif" font-size="8.00">H_V1cache</text>
<text text-anchor="middle" x="456" y="-115.092" font-family="Helvetica,sans-Serif" font-size="8.00">SL_cache</text>
<text text-anchor="middle" x="456" y="-106.092" font-family="Helvetica,sans-Serif" font-size="8.00">H_V0cache</text>
<text text-anchor="middle" x="456" y="-97.0924" font-family="Helvetica,sans-Serif" font-size="8.00">A0_cache</text>
<text text-anchor="middle" x="456" y="-88.0924" font-family="Helvetica,sans-Serif" font-size="8.00">...</text>
</g>
<!-- Node6&#45;&gt;Node1 -->
<g id="edge5" class="edge"><title>Node6&#45;&gt;Node1</title>
<path fill="none" stroke="#9a32cd" stroke-dasharray="5,2" d="M391.935,-228.508C427.165,-215.454 478.955,-195.499 486,-188.492 518.367,-156.305 530.582,-99.8503 534.209,-78.2434"/>
<polygon fill="#9a32cd" stroke="#9a32cd" points="390.661,-225.247 382.489,-231.99 393.082,-231.815 390.661,-225.247"/>
<text text-anchor="middle" x="456" y="-216.092" font-family="Helvetica,sans-Serif" font-size="8.00"> mySM</text>
</g>
<!-- Node8 -->
<g id="node8" class="node"><title>Node8</title>
<g id="a_node8"><a xlink:href="../../dc/df3/class_e_w_s_mcache.html" target="_top" xlink:title="A class for cache variables used in computing radiative corrections to the EW precision observables...">
<polygon fill="none" stroke="red" points="505,-267.992 505,-284.992 568,-284.992 568,-267.992 505,-267.992"/>
<text text-anchor="middle" x="536.5" y="-274.592" font-family="Helvetica,sans-Serif" font-size="8.00">EWSMcache</text>
</a>
</g>
</g>
<!-- Node6&#45;&gt;Node8 -->
<g id="edge8" class="edge"><title>Node6&#45;&gt;Node8</title>
<path fill="none" stroke="#9a32cd" stroke-dasharray="5,2" d="M403.757,-249.621C435.372,-256.07 476.918,-264.544 504.829,-270.236"/>
<polygon fill="#9a32cd" stroke="#9a32cd" points="404.368,-246.174 393.871,-247.605 402.969,-253.033 404.368,-246.174"/>
<text text-anchor="middle" x="456" y="-268.092" font-family="Helvetica,sans-Serif" font-size="8.00"> SM</text>
</g>
<!-- Node7 -->
<g id="node7" class="node"><title>Node7</title>
<g id="a_node7"><a xlink:href="../../dd/dfa/class_q_c_d.html" target="_top" xlink:title="A class for parameters related to QCD, hadrons and quarks. ">
<polygon fill="none" stroke="red" points="144.5,-222.992 144.5,-239.992 178.5,-239.992 178.5,-222.992 144.5,-222.992"/>
<text text-anchor="middle" x="161.5" y="-229.592" font-family="Helvetica,sans-Serif" font-size="8.00">QCD</text>
</a>
</g>
</g>
<!-- Node7&#45;&gt;Node6 -->
<g id="edge6" class="edge"><title>Node7&#45;&gt;Node6</title>
<path fill="none" stroke="midnightblue" d="M188.983,-232.718C223.503,-234.315 283.96,-237.113 322.164,-238.88"/>
<polygon fill="midnightblue" stroke="midnightblue" points="188.9,-229.21 178.748,-232.244 188.576,-236.203 188.9,-229.21"/>
</g>
<!-- Node8&#45;&gt;Node6 -->
<g id="edge7" class="edge"><title>Node8&#45;&gt;Node6</title>
<path fill="none" stroke="#9a32cd" stroke-dasharray="5,2" d="M494.519,-285.72C473.629,-288.778 448.049,-289.959 426,-283.492 403.188,-276.802 380.785,-259.691 368.539,-249.182"/>
<polygon fill="#9a32cd" stroke="#9a32cd" points="495.373,-289.126 504.665,-284.037 494.227,-282.221 495.373,-289.126"/>
<text text-anchor="middle" x="456" y="-290.092" font-family="Helvetica,sans-Serif" font-size="8.00"> myEWSMcache</text>
</g>
<!-- Node10 -->
<g id="node10" class="node"><title>Node10</title>
<g id="a_node10"><a xlink:href="../../d5/dad/class_e_w_s_m_three_loop_e_w.html" target="_top" xlink:title="A class for &#160;three&#45;loop corrections to the EW precision observables. ">
<polygon fill="none" stroke="black" points="629,-248.992 629,-265.992 722,-265.992 722,-248.992 629,-248.992"/>
<text text-anchor="middle" x="675.5" y="-255.592" font-family="Helvetica,sans-Serif" font-size="8.00">EWSMThreeLoopEW</text>
</a>
</g>
</g>
<!-- Node8&#45;&gt;Node10 -->
<g id="edge12" class="edge"><title>Node8&#45;&gt;Node10</title>
<path fill="none" stroke="#9a32cd" stroke-dasharray="5,2" d="M578.292,-270.835C594.172,-268.633 612.442,-266.099 628.766,-263.835"/>
<polygon fill="#9a32cd" stroke="#9a32cd" points="577.67,-267.388 568.245,-272.228 578.632,-274.321 577.67,-267.388"/>
<text text-anchor="middle" x="599" y="-271.092" font-family="Helvetica,sans-Serif" font-size="8.00"> cache</text>
</g>
<!-- Node9&#45;&gt;Node6 -->
<g id="edge9" class="edge"><title>Node9&#45;&gt;Node6</title>
<path fill="none" stroke="#9a32cd" stroke-dasharray="5,2" d="M188.983,-263.816C223.503,-259.024 283.96,-250.632 322.164,-245.328"/>
<polygon fill="#9a32cd" stroke="#9a32cd" points="188.172,-260.395 178.748,-265.237 189.135,-267.329 188.172,-260.395"/>
<text text-anchor="middle" x="255" y="-261.092" font-family="Helvetica,sans-Serif" font-size="8.00"> myCKM</text>
</g>
<!-- Node10&#45;&gt;Node6 -->
<g id="edge11" class="edge"><title>Node10&#45;&gt;Node6</title>
<path fill="none" stroke="#9a32cd" stroke-dasharray="5,2" d="M618.552,-252.906C602.555,-251.688 585.094,-250.447 569,-249.492 507.255,-245.829 435.212,-243.071 393.577,-241.626"/>
<polygon fill="#9a32cd" stroke="#9a32cd" points="618.584,-256.419 628.824,-253.7 619.124,-249.44 618.584,-256.419"/>
<text text-anchor="middle" x="536.5" y="-252.092" font-family="Helvetica,sans-Serif" font-size="8.00"> myThreeLoopEW</text>
</g>
</g>
</svg>
