<?xml version="1.0" encoding="UTF-8" standalone="no"?>
<!DOCTYPE svg PUBLIC "-//W3C//DTD SVG 1.1//EN"
 "http://www.w3.org/Graphics/SVG/1.1/DTD/svg11.dtd">
<!-- Generated by graphviz version 2.40.1 (20161225.0304)
 -->
<!-- Title: BR_phi3_phi2Z_GTHDM Pages: 1 -->
<svg width="477pt" height="288pt"
 viewBox="0.00 0.00 477.00 288.00" xmlns="http://www.w3.org/2000/svg" xmlns:xlink="http://www.w3.org/1999/xlink">
<g id="graph0" class="graph" transform="scale(1 1) rotate(0) translate(4 284)">
<title>BR_phi3_phi2Z_GTHDM</title>
<!-- Node2 -->
<g id="node1" class="node">
<title>Node2</title>
<polygon fill="#bfbfbf" stroke="#000000" points="0,-.5 0,-17.5 105,-17.5 105,-.5 0,-.5"/>
<text text-anchor="middle" x="52.5" y="-7.1" font-family="Helvetica,sans-Serif" font-size="8.00" fill="#000000">BR_phi3_phi2Z_GTHDM</text>
</g>
<!-- Node3 -->
<g id="node2" class="node">
<title>Node3</title>
<g id="a_node2"><a xlink:href="../../dc/d1f/class_th_observable.html" target="_top" xlink:title="A class for a model prediction of an observable. ">
<polygon fill="none" stroke="#000000" points="3,-99.5 3,-116.5 70,-116.5 70,-99.5 3,-99.5"/>
<text text-anchor="middle" x="36.5" y="-106.1" font-family="Helvetica,sans-Serif" font-size="8.00" fill="#000000">ThObservable</text>
</a>
</g>
</g>
<!-- Node3&#45;&gt;Node2 -->
<g id="edge1" class="edge">
<title>Node3&#45;&gt;Node2</title>
<path fill="none" stroke="#191970" d="M39.5182,-89.3249C42.9877,-67.8571 48.534,-33.5398 51.1061,-17.6245"/>
<polygon fill="#191970" stroke="#191970" points="36.0603,-88.7841 37.9199,-99.2144 42.9706,-89.9009 36.0603,-88.7841"/>
</g>
<!-- Node4 -->
<g id="node3" class="node">
<title>Node4</title>
<g id="a_node3"><a xlink:href="../../dc/dd5/class_standard_model.html" target="_top" xlink:title="A model class for the Standard Model. ">
<polygon fill="none" stroke="#ff0000" points="249,-207.5 249,-224.5 320,-224.5 320,-207.5 249,-207.5"/>
<text text-anchor="middle" x="284.5" y="-214.1" font-family="Helvetica,sans-Serif" font-size="8.00" fill="#000000">StandardModel</text>
</a>
</g>
</g>
<!-- Node4&#45;&gt;Node3 -->
<g id="edge2" class="edge">
<title>Node4&#45;&gt;Node3</title>
<path fill="none" stroke="#9a32cd" stroke-dasharray="5,2" d="M238.6832,-210.4413C179.8524,-202.4387 82.1559,-185.9522 55.5,-162 42.3415,-150.1762 38.2958,-128.6881 37.052,-116.6914"/>
<polygon fill="#9a32cd" stroke="#9a32cd" points="238.4619,-213.9425 248.8359,-211.7907 239.3843,-207.0036 238.4619,-213.9425"/>
<text text-anchor="middle" x="126" y="-182.6" font-family="Helvetica,sans-Serif" font-size="8.00" fill="#000000"> SM</text>
</g>
<!-- Node9 -->
<g id="node6" class="node">
<title>Node9</title>
<g id="a_node6"><a xlink:href="../../dc/df3/class_e_w_s_mcache.html" target="_top" xlink:title="A class for cache variables used in computing radiative corrections to the EW precision observables...">
<polygon fill="none" stroke="#ff0000" points="406,-140 406,-157 469,-157 469,-140 406,-140"/>
<text text-anchor="middle" x="437.5" y="-146.6" font-family="Helvetica,sans-Serif" font-size="8.00" fill="#000000">EWSMcache</text>
</a>
</g>
</g>
<!-- Node4&#45;&gt;Node9 -->
<g id="edge6" class="edge">
<title>Node4&#45;&gt;Node9</title>
<path fill="none" stroke="#9a32cd" stroke-dasharray="5,2" d="M313.146,-203.362C343.6807,-189.8909 391.213,-168.9207 417.7965,-157.1927"/>
<polygon fill="#9a32cd" stroke="#9a32cd" points="311.614,-200.2124 303.8776,-207.4511 314.4395,-206.6168 311.614,-200.2124"/>
<text text-anchor="middle" x="373" y="-182.6" font-family="Helvetica,sans-Serif" font-size="8.00" fill="#000000"> SM</text>
</g>
<!-- Node48 -->
<g id="node8" class="node">
<title>Node48</title>
<g id="a_node8"><a xlink:href="../../d2/df3/class_n_pbase.html" target="_top" xlink:title="The auxiliary base model class for other model classes. ">
<polygon fill="none" stroke="#000000" points="225,-140 225,-157 270,-157 270,-140 225,-140"/>
<text text-anchor="middle" x="247.5" y="-146.6" font-family="Helvetica,sans-Serif" font-size="8.00" fill="#000000">NPbase</text>
</a>
</g>
</g>
<!-- Node4&#45;&gt;Node48 -->
<g id="edge10" class="edge">
<title>Node4&#45;&gt;Node48</title>
<path fill="none" stroke="#191970" d="M254.9868,-201.8791C250.3692,-198.3354 246.2289,-194.0645 243.5,-189 238.1376,-179.048 241.0407,-165.7157 243.9721,-157.116"/>
<polygon fill="#191970" stroke="#191970" points="253.3206,-204.9705 263.6124,-207.4867 257.136,-199.1017 253.3206,-204.9705"/>
</g>
<!-- Node4&#45;&gt;Node48 -->
<g id="edge11" class="edge">
<title>Node4&#45;&gt;Node48</title>
<path fill="none" stroke="#9a32cd" stroke-dasharray="5,2" d="M270.3965,-199.3772C267.9217,-196.0561 265.5017,-192.5071 263.5,-189 257.5789,-178.6259 252.8719,-165.6301 250.1359,-157.2004"/>
<polygon fill="#9a32cd" stroke="#9a32cd" points="267.8586,-201.8087 276.8259,-207.4512 273.3345,-197.4481 267.8586,-201.8087"/>
<text text-anchor="middle" x="278" y="-182.6" font-family="Helvetica,sans-Serif" font-size="8.00" fill="#000000"> trueSM</text>
</g>
<!-- Node5 -->
<g id="node4" class="node">
<title>Node5</title>
<g id="a_node4"><a xlink:href="../../dd/dfa/class_q_c_d.html" target="_top" xlink:title="A class for parameters related to QCD, hadrons and quarks. ">
<polygon fill="none" stroke="#ff0000" points="267.5,-262.5 267.5,-279.5 301.5,-279.5 301.5,-262.5 267.5,-262.5"/>
<text text-anchor="middle" x="284.5" y="-269.1" font-family="Helvetica,sans-Serif" font-size="8.00" fill="#000000">QCD</text>
</a>
</g>
</g>
<!-- Node5&#45;&gt;Node4 -->
<g id="edge3" class="edge">
<title>Node5&#45;&gt;Node4</title>
<path fill="none" stroke="#191970" d="M284.5,-252.1166C284.5,-242.8173 284.5,-232.0557 284.5,-224.7149"/>
<polygon fill="#191970" stroke="#191970" points="281.0001,-252.4062 284.5,-262.4063 288.0001,-252.4063 281.0001,-252.4062"/>
</g>
<!-- Node8 -->
<g id="node5" class="node">
<title>Node8</title>
<g id="a_node5"><a xlink:href="../../db/d32/class_e_w_s_m_two_fermions_l_e_p2.html" target="_top" xlink:title="A class for the form factors , &#160;and &#160;in the processes &#160;at LEP&#45;II. ">
<polygon fill="none" stroke="#ff0000" points="293,-63.5 293,-80.5 402,-80.5 402,-63.5 293,-63.5"/>
<text text-anchor="middle" x="347.5" y="-70.1" font-family="Helvetica,sans-Serif" font-size="8.00" fill="#000000">EWSMTwoFermionsLEP2</text>
</a>
</g>
</g>
<!-- Node8&#45;&gt;Node4 -->
<g id="edge4" class="edge">
<title>Node8&#45;&gt;Node4</title>
<path fill="none" stroke="#9a32cd" stroke-dasharray="5,2" d="M338.2739,-89.7744C331.8934,-102.2955 323.3528,-119.5203 316.5,-135 304.9932,-160.9927 293.1292,-192.4925 287.6383,-207.3928"/>
<polygon fill="#9a32cd" stroke="#9a32cd" points="341.3951,-91.3582 342.8544,-80.8644 335.1695,-88.1578 341.3951,-91.3582"/>
<text text-anchor="middle" x="357" y="-146.6" font-family="Helvetica,sans-Serif" font-size="8.00" fill="#000000"> myTwoFermionsLEP2</text>
</g>
<!-- Node9&#45;&gt;Node4 -->
<g id="edge7" class="edge">
<title>Node9&#45;&gt;Node4</title>
<path fill="none" stroke="#9a32cd" stroke-dasharray="5,2" d="M420.701,-164.0638C410.8051,-172.5023 397.6744,-182.5038 384.5,-189 364.3392,-198.9411 340.0248,-205.6114 320.4198,-209.8349"/>
<polygon fill="#9a32cd" stroke="#9a32cd" points="423.3138,-166.4255 428.4846,-157.1781 418.6757,-161.1826 423.3138,-166.4255"/>
<text text-anchor="middle" x="428.5" y="-182.6" font-family="Helvetica,sans-Serif" font-size="8.00" fill="#000000"> myEWSMcache</text>
</g>
<!-- Node9&#45;&gt;Node8 -->
<g id="edge5" class="edge">
<title>Node9&#45;&gt;Node8</title>
<path fill="none" stroke="#9a32cd" stroke-dasharray="5,2" d="M419.4162,-133.1288C400.8726,-117.3667 372.6883,-93.4101 357.7037,-80.6732"/>
<polygon fill="#9a32cd" stroke="#9a32cd" points="417.2897,-135.9148 427.1759,-139.7245 421.8232,-130.5812 417.2897,-135.9148"/>
<text text-anchor="middle" x="409.5" y="-106.1" font-family="Helvetica,sans-Serif" font-size="8.00" fill="#000000"> cache</text>
</g>
<!-- Node47 -->
<g id="node7" class="node">
<title>Node47</title>
<g id="a_node7"><a xlink:href="../../d3/d55/class_general_t_h_d_m.html" target="_top" xlink:title="A base class for generic Two&#45;Higgs&#45;Doublet models. ">
<polygon fill="none" stroke="#000000" points="101.5,-63.5 101.5,-80.5 169.5,-80.5 169.5,-63.5 101.5,-63.5"/>
<text text-anchor="middle" x="135.5" y="-70.1" font-family="Helvetica,sans-Serif" font-size="8.00" fill="#000000">GeneralTHDM</text>
</a>
</g>
</g>
<!-- Node47&#45;&gt;Node2 -->
<g id="edge8" class="edge">
<title>Node47&#45;&gt;Node2</title>
<path fill="none" stroke="#9a32cd" stroke-dasharray="5,2" d="M105.6665,-58.9781C98.0821,-55.0193 90.1919,-50.2952 83.5,-45 73.41,-37.016 64.1057,-25.3943 58.3763,-17.5332"/>
<polygon fill="#9a32cd" stroke="#9a32cd" points="104.1482,-62.1317 114.6651,-63.4142 107.2434,-55.8532 104.1482,-62.1317"/>
<text text-anchor="middle" x="105" y="-38.6" font-family="Helvetica,sans-Serif" font-size="8.00" fill="#000000"> myGTHDM</text>
</g>
<!-- Node51 -->
<g id="node10" class="node">
<title>Node51</title>
<g id="a_node10"><a xlink:href="../../dc/dfd/class_general_t_h_d_mcache.html" target="_top" xlink:title="GeneralTHDMcache">
<polygon fill="none" stroke="#ff0000" points="140,-.5 140,-17.5 229,-17.5 229,-.5 140,-.5"/>
<text text-anchor="middle" x="184.5" y="-7.1" font-family="Helvetica,sans-Serif" font-size="8.00" fill="#000000">GeneralTHDMcache</text>
</a>
</g>
</g>
<!-- Node47&#45;&gt;Node51 -->
<g id="edge14" class="edge">
<title>Node47&#45;&gt;Node51</title>
<path fill="none" stroke="#9a32cd" stroke-dasharray="5,2" d="M129.7918,-53.4669C129.0124,-47.5276 129.3657,-41.159 132.5,-36 137.6232,-27.5673 146.3296,-21.6486 155.1683,-17.5494"/>
<polygon fill="#9a32cd" stroke="#9a32cd" points="126.4101,-54.379 132.0624,-63.3402 133.2321,-52.8101 126.4101,-54.379"/>
<text text-anchor="middle" x="154" y="-38.6" font-family="Helvetica,sans-Serif" font-size="8.00" fill="#000000"> myGTHDM</text>
</g>
<!-- Node48&#45;&gt;Node47 -->
<g id="edge9" class="edge">
<title>Node48&#45;&gt;Node47</title>
<path fill="none" stroke="#191970" d="M227.7437,-133.8345C214.069,-123.8057 195.3658,-110.3291 178.5,-99 168.9875,-92.6102 158.0475,-85.7475 149.5829,-80.5399"/>
<polygon fill="#191970" stroke="#191970" points="225.8072,-136.7551 235.9339,-139.8697 229.9597,-131.1198 225.8072,-136.7551"/>
</g>
<!-- Node49 -->
<g id="node9" class="node">
<title>Node49</title>
<g id="a_node9"><a xlink:href="../../d5/d76/class_matching.html" target="_top" xlink:title="Matching\&lt; GeneralTHDMMatching,\l GeneralTHDM \&gt;">
<polygon fill="none" stroke="#ff0000" points="64.5,-135.5 64.5,-161.5 206.5,-161.5 206.5,-135.5 64.5,-135.5"/>
<text text-anchor="start" x="72.5" y="-151.1" font-family="Helvetica,sans-Serif" font-size="8.00" fill="#000000">Matching&lt; GeneralTHDMMatching,</text>
<text text-anchor="middle" x="135.5" y="-142.1" font-family="Helvetica,sans-Serif" font-size="8.00" fill="#000000"> GeneralTHDM &gt;</text>
</a>
</g>
</g>
<!-- Node49&#45;&gt;Node47 -->
<g id="edge12" class="edge">
<title>Node49&#45;&gt;Node47</title>
<path fill="none" stroke="#9a32cd" stroke-dasharray="5,2" d="M135.5,-125.0882C135.5,-110.1453 135.5,-91.6269 135.5,-80.8783"/>
<polygon fill="#9a32cd" stroke="#9a32cd" points="132.0001,-125.1747 135.5,-135.1747 139.0001,-125.1748 132.0001,-125.1747"/>
<text text-anchor="middle" x="155" y="-106.1" font-family="Helvetica,sans-Serif" font-size="8.00" fill="#000000"> GTHDMM</text>
</g>
<!-- Node51&#45;&gt;Node47 -->
<g id="edge13" class="edge">
<title>Node51&#45;&gt;Node47</title>
<path fill="none" stroke="#9a32cd" stroke-dasharray="5,2" d="M184.9245,-28.0688C184.278,-33.8842 182.7412,-40.0443 179.5,-45 174.2019,-53.1007 165.543,-59.1718 157.3019,-63.4841"/>
<polygon fill="#9a32cd" stroke="#9a32cd" points="188.4347,-27.8336 185.2844,-17.7179 181.4389,-27.5902 188.4347,-27.8336"/>
<text text-anchor="middle" x="215.5" y="-38.6" font-family="Helvetica,sans-Serif" font-size="8.00" fill="#000000"> myGTHDMcache</text>
</g>
</g>
</svg>
