<?xml version="1.0" encoding="UTF-8" standalone="no"?>
<!DOCTYPE svg PUBLIC "-//W3C//DTD SVG 1.1//EN"
 "http://www.w3.org/Graphics/SVG/1.1/DTD/svg11.dtd">
<!-- Generated by graphviz version 2.38.0 (20140413.2041)
 -->
<!-- Title: CPoddHiggs.h Pages: 1 -->
<svg width="360pt" height="296pt"
 viewBox="0.00 0.00 359.82 296.00" xmlns="http://www.w3.org/2000/svg" xmlns:xlink="http://www.w3.org/1999/xlink">
<g id="graph0" class="graph" transform="scale(1 1) rotate(0) translate(4 292)">
<title>CPoddHiggs.h</title>
<!-- Node1 -->
<g id="node1" class="node"><title>Node1</title>
<polygon fill="#bfbfbf" stroke="black" points="121,-270.5 121,-287.5 189,-287.5 189,-270.5 121,-270.5"/>
<text text-anchor="middle" x="155" y="-277.1" font-family="Helvetica,sans-Serif" font-size="8.00">CPoddHiggs.h</text>
</g>
<!-- Node2 -->
<g id="node2" class="node"><title>Node2</title>
<polygon fill="none" stroke="#bfbfbf" points="186.5,-0.5 186.5,-17.5 237.5,-17.5 237.5,-0.5 186.5,-0.5"/>
<text text-anchor="middle" x="212" y="-7.1" font-family="Helvetica,sans-Serif" font-size="8.00">stdexcept</text>
</g>
<!-- Node1&#45;&gt;Node2 -->
<g id="edge1" class="edge"><title>Node1&#45;&gt;Node2</title>
<path fill="none" stroke="midnightblue" d="M147.043,-270.316C130.939,-253.896 96,-213.491 96,-172 96,-172 96,-172 96,-116 96,-87.1796 95.9712,-75.6454 115,-54 130.948,-35.8586 155.876,-24.7748 176.467,-18.2696"/>
<polygon fill="midnightblue" stroke="midnightblue" points="177.553,-21.5988 186.169,-15.4331 175.589,-14.88 177.553,-21.5988"/>
</g>
<!-- Node3 -->
<g id="node3" class="node"><title>Node3</title>
<g id="a_node3"><a xlink:href="../../dd/dcd/_th_observable_8h.html" target="_top" xlink:title="ThObservable.h">
<polygon fill="none" stroke="black" points="267.5,-108.5 267.5,-125.5 340.5,-125.5 340.5,-108.5 267.5,-108.5"/>
<text text-anchor="middle" x="304" y="-115.1" font-family="Helvetica,sans-Serif" font-size="8.00">ThObservable.h</text>
</a>
</g>
</g>
<!-- Node1&#45;&gt;Node3 -->
<g id="edge2" class="edge"><title>Node1&#45;&gt;Node3</title>
<path fill="none" stroke="midnightblue" d="M189.162,-272.566C215.684,-266.847 252.029,-255.552 277,-234 297.623,-216.201 299.355,-206.419 306,-180 307.951,-172.242 306.182,-169.998 306,-162 305.804,-153.375 305.392,-143.805 304.993,-135.8"/>
<polygon fill="midnightblue" stroke="midnightblue" points="308.487,-135.586 304.461,-125.785 301.497,-135.957 308.487,-135.586"/>
</g>
<!-- Node5 -->
<g id="node5" class="node"><title>Node5</title>
<g id="a_node5"><a xlink:href="../../de/de8/_t_h_d_m_8h.html" target="_top" xlink:title="THDM.h">
<polygon fill="none" stroke="black" points="145,-108.5 145,-125.5 191,-125.5 191,-108.5 145,-108.5"/>
<text text-anchor="middle" x="168" y="-115.1" font-family="Helvetica,sans-Serif" font-size="8.00">THDM.h</text>
</a>
</g>
</g>
<!-- Node1&#45;&gt;Node5 -->
<g id="edge4" class="edge"><title>Node1&#45;&gt;Node5</title>
<path fill="none" stroke="midnightblue" d="M155.627,-270.283C157.605,-245.943 163.746,-170.354 166.562,-135.692"/>
<polygon fill="midnightblue" stroke="midnightblue" points="170.058,-135.89 167.379,-125.64 163.081,-135.323 170.058,-135.89"/>
</g>
<!-- Node7 -->
<g id="node7" class="node"><title>Node7</title>
<g id="a_node7"><a xlink:href="../../d0/d7c/_t_h_d_mcache_8h.html" target="_top" xlink:title="THDMcache.h">
<polygon fill="none" stroke="red" points="0,-54.5 0,-71.5 68,-71.5 68,-54.5 0,-54.5"/>
<text text-anchor="middle" x="34" y="-61.1" font-family="Helvetica,sans-Serif" font-size="8.00">THDMcache.h</text>
</a>
</g>
</g>
<!-- Node1&#45;&gt;Node7 -->
<g id="edge14" class="edge"><title>Node1&#45;&gt;Node7</title>
<path fill="none" stroke="midnightblue" d="M134.078,-270.411C117.608,-263.397 95.2849,-251.411 82,-234 46.378,-187.314 37.1903,-115.357 34.8219,-82.0535"/>
<polygon fill="midnightblue" stroke="midnightblue" points="38.292,-81.4328 34.2215,-71.6511 31.3036,-81.8362 38.292,-81.4328"/>
</g>
<!-- Node9 -->
<g id="node9" class="node"><title>Node9</title>
<g id="a_node9"><a xlink:href="../../d0/dd6/_t_h_d_mfunctions_8h.html" target="_top" xlink:title="THDMfunctions.h">
<polygon fill="none" stroke="black" points="200,-162.5 200,-179.5 278,-179.5 278,-162.5 200,-162.5"/>
<text text-anchor="middle" x="239" y="-169.1" font-family="Helvetica,sans-Serif" font-size="8.00">THDMfunctions.h</text>
</a>
</g>
</g>
<!-- Node1&#45;&gt;Node9 -->
<g id="edge10" class="edge"><title>Node1&#45;&gt;Node9</title>
<path fill="none" stroke="midnightblue" d="M160.486,-270.226C168.934,-258.344 185.75,-235.039 201,-216 208.856,-206.192 218.058,-195.517 225.439,-187.138"/>
<polygon fill="midnightblue" stroke="midnightblue" points="228.073,-189.443 232.096,-179.642 222.839,-184.796 228.073,-189.443"/>
</g>
<!-- Node10 -->
<g id="node10" class="node"><title>Node10</title>
<g id="a_node10"><a xlink:href="../../da/daf/light_higgs_8h.html" target="_top" xlink:title="lightHiggs.h">
<polygon fill="none" stroke="black" points="210,-216.5 210,-233.5 268,-233.5 268,-216.5 210,-216.5"/>
<text text-anchor="middle" x="239" y="-223.1" font-family="Helvetica,sans-Serif" font-size="8.00">lightHiggs.h</text>
</a>
</g>
</g>
<!-- Node1&#45;&gt;Node10 -->
<g id="edge15" class="edge"><title>Node1&#45;&gt;Node10</title>
<path fill="none" stroke="midnightblue" d="M167.394,-270.327C180.747,-262.062 202.221,-248.768 218.175,-238.891"/>
<polygon fill="midnightblue" stroke="midnightblue" points="220.167,-241.775 226.828,-233.535 216.483,-235.823 220.167,-241.775"/>
</g>
<!-- Node4 -->
<g id="node4" class="node"><title>Node4</title>
<g id="a_node4"><a xlink:href="../../d6/d0a/_standard_model_8h.html" target="_top" xlink:title="StandardModel.h">
<polygon fill="none" stroke="red" points="221.5,-54.5 221.5,-71.5 298.5,-71.5 298.5,-54.5 221.5,-54.5"/>
<text text-anchor="middle" x="260" y="-61.1" font-family="Helvetica,sans-Serif" font-size="8.00">StandardModel.h</text>
</a>
</g>
</g>
<!-- Node3&#45;&gt;Node4 -->
<g id="edge3" class="edge"><title>Node3&#45;&gt;Node4</title>
<path fill="none" stroke="midnightblue" d="M297.508,-108.327C291.138,-100.8 281.241,-89.103 273.212,-79.6144"/>
<polygon fill="midnightblue" stroke="midnightblue" points="275.65,-77.0773 266.519,-71.7043 270.307,-81.599 275.65,-77.0773"/>
</g>
<!-- Node5&#45;&gt;Node4 -->
<g id="edge5" class="edge"><title>Node5&#45;&gt;Node4</title>
<path fill="none" stroke="midnightblue" d="M181.575,-108.327C196.336,-99.9843 220.159,-86.5188 237.68,-76.6154"/>
<polygon fill="midnightblue" stroke="midnightblue" points="239.685,-79.5028 246.669,-71.5352 236.241,-73.4088 239.685,-79.5028"/>
</g>
<!-- Node6 -->
<g id="node6" class="node"><title>Node6</title>
<g id="a_node6"><a xlink:href="../../db/d1f/_t_h_d_m_matching_8h.html" target="_top" xlink:title="THDMMatching.h">
<polygon fill="none" stroke="red" points="124.5,-54.5 124.5,-71.5 203.5,-71.5 203.5,-54.5 124.5,-54.5"/>
<text text-anchor="middle" x="164" y="-61.1" font-family="Helvetica,sans-Serif" font-size="8.00">THDMMatching.h</text>
</a>
</g>
</g>
<!-- Node5&#45;&gt;Node6 -->
<g id="edge6" class="edge"><title>Node5&#45;&gt;Node6</title>
<path fill="none" stroke="midnightblue" d="M167.41,-108.327C166.872,-101.338 166.058,-90.7528 165.36,-81.6792"/>
<polygon fill="midnightblue" stroke="midnightblue" points="168.849,-81.4063 164.593,-71.7043 161.87,-81.9433 168.849,-81.4063"/>
</g>
<!-- Node5&#45;&gt;Node7 -->
<g id="edge7" class="edge"><title>Node5&#45;&gt;Node7</title>
<path fill="none" stroke="midnightblue" d="M148.515,-108.439C126.087,-99.7352 89.0232,-85.3523 63.1567,-75.3145"/>
<polygon fill="midnightblue" stroke="midnightblue" points="64.0972,-71.9252 53.5083,-71.5704 61.5647,-78.4511 64.0972,-71.9252"/>
</g>
<!-- Node7&#45;&gt;Node2 -->
<g id="edge9" class="edge"><title>Node7&#45;&gt;Node2</title>
<path fill="none" stroke="midnightblue" d="M59.8827,-54.4388C90.686,-45.44 142.272,-30.37 176.713,-20.3085"/>
<polygon fill="midnightblue" stroke="midnightblue" points="177.757,-23.6498 186.375,-17.486 175.795,-16.9306 177.757,-23.6498"/>
</g>
<!-- Node8 -->
<g id="node8" class="node"><title>Node8</title>
<polygon fill="none" stroke="#bfbfbf" points="15,-0.5 15,-17.5 53,-17.5 53,-0.5 15,-0.5"/>
<text text-anchor="middle" x="34" y="-7.1" font-family="Helvetica,sans-Serif" font-size="8.00">cmath</text>
</g>
<!-- Node7&#45;&gt;Node8 -->
<g id="edge8" class="edge"><title>Node7&#45;&gt;Node8</title>
<path fill="none" stroke="midnightblue" d="M34,-54.3272C34,-47.4145 34,-36.985 34,-27.9789"/>
<polygon fill="midnightblue" stroke="midnightblue" points="37.5001,-27.7042 34,-17.7043 30.5001,-27.7043 37.5001,-27.7042"/>
</g>
<!-- Node9&#45;&gt;Node2 -->
<g id="edge11" class="edge"><title>Node9&#45;&gt;Node2</title>
<path fill="none" stroke="midnightblue" d="M239.766,-162.458C241.342,-150.068 245.88,-125.076 258,-108 276.758,-81.5725 324.448,-81.31 307,-54 293.906,-33.5046 268.545,-22.4136 247.319,-16.4954"/>
<polygon fill="midnightblue" stroke="midnightblue" points="248.162,-13.0984 237.611,-14.056 246.456,-19.8874 248.162,-13.0984"/>
</g>
<!-- Node9&#45;&gt;Node3 -->
<g id="edge12" class="edge"><title>Node9&#45;&gt;Node3</title>
<path fill="none" stroke="midnightblue" d="M248.591,-162.327C258.48,-154.416 274.127,-141.899 286.275,-132.18"/>
<polygon fill="midnightblue" stroke="midnightblue" points="288.747,-134.684 294.37,-125.704 284.375,-129.218 288.747,-134.684"/>
</g>
<!-- Node9&#45;&gt;Node5 -->
<g id="edge13" class="edge"><title>Node9&#45;&gt;Node5</title>
<path fill="none" stroke="midnightblue" d="M228.524,-162.327C217.512,-154.262 199.965,-141.411 186.593,-131.617"/>
<polygon fill="midnightblue" stroke="midnightblue" points="188.655,-128.789 178.519,-125.704 184.519,-134.437 188.655,-128.789"/>
</g>
<!-- Node10&#45;&gt;Node2 -->
<g id="edge16" class="edge"><title>Node10&#45;&gt;Node2</title>
<path fill="none" stroke="midnightblue" d="M257.031,-216.391C291.547,-200.515 362.488,-160.9 350,-108 343.835,-81.885 342.774,-72.138 323,-54 301.975,-34.7142 271.473,-23.4477 247.762,-17.152"/>
<polygon fill="midnightblue" stroke="midnightblue" points="248.282,-13.6753 237.734,-14.6738 246.602,-20.4709 248.282,-13.6753"/>
</g>
<!-- Node10&#45;&gt;Node3 -->
<g id="edge17" class="edge"><title>Node10&#45;&gt;Node3</title>
<path fill="none" stroke="midnightblue" d="M250.624,-216.294C261.589,-208.432 277.691,-195.244 287,-180 295.278,-166.444 299.606,-148.8 301.818,-135.802"/>
<polygon fill="midnightblue" stroke="midnightblue" points="305.297,-136.193 303.262,-125.795 298.369,-135.192 305.297,-136.193"/>
</g>
<!-- Node10&#45;&gt;Node5 -->
<g id="edge18" class="edge"><title>Node10&#45;&gt;Node5</title>
<path fill="none" stroke="midnightblue" d="M228.071,-216.41C217.32,-208.444 201.094,-195.009 191,-180 181.882,-166.442 175.794,-148.798 172.185,-135.801"/>
<polygon fill="midnightblue" stroke="midnightblue" points="175.496,-134.622 169.637,-125.794 168.713,-136.349 175.496,-134.622"/>
</g>
<!-- Node10&#45;&gt;Node9 -->
<g id="edge19" class="edge"><title>Node10&#45;&gt;Node9</title>
<path fill="none" stroke="midnightblue" d="M239,-216.327C239,-209.414 239,-198.985 239,-189.979"/>
<polygon fill="midnightblue" stroke="midnightblue" points="242.5,-189.704 239,-179.704 235.5,-189.704 242.5,-189.704"/>
</g>
</g>
</svg>
