<?xml version="1.0" encoding="UTF-8" standalone="no"?>
<!DOCTYPE svg PUBLIC "-//W3C//DTD SVG 1.1//EN"
 "http://www.w3.org/Graphics/SVG/1.1/DTD/svg11.dtd">
<!-- Generated by graphviz version 2.40.1 (20161225.0304)
 -->
<!-- Title: gminus2.cpp Pages: 1 -->
<svg width="402pt" height="188pt"
 viewBox="0.00 0.00 401.89 188.00" xmlns="http://www.w3.org/2000/svg" xmlns:xlink="http://www.w3.org/1999/xlink">
<g id="graph0" class="graph" transform="scale(1 1) rotate(0) translate(4 184)">
<title>gminus2.cpp</title>
<!-- Node0 -->
<g id="node1" class="node">
<title>Node0</title>
<polygon fill="#bfbfbf" stroke="#000000" points="135.3869,-162.5 135.3869,-179.5 197.3869,-179.5 197.3869,-162.5 135.3869,-162.5"/>
<text text-anchor="middle" x="166.3869" y="-169.1" font-family="Helvetica,sans-Serif" font-size="8.00" fill="#000000">gminus2.cpp</text>
</g>
<!-- Node1 -->
<g id="node2" class="node">
<title>Node1</title>
<g id="a_node2"><a xlink:href="../../d8/d1b/gminus2_8h.html" target="_top" xlink:title="gminus2.h">
<polygon fill="none" stroke="#000000" points="70.8869,-108.5 70.8869,-125.5 123.8869,-125.5 123.8869,-108.5 70.8869,-108.5"/>
<text text-anchor="middle" x="97.3869" y="-115.1" font-family="Helvetica,sans-Serif" font-size="8.00" fill="#000000">gminus2.h</text>
</a>
</g>
</g>
<!-- Node0&#45;&gt;Node1 -->
<g id="edge1" class="edge">
<title>Node0&#45;&gt;Node1</title>
<path fill="none" stroke="#191970" d="M155.3008,-162.324C144.9009,-154.1849 129.1262,-141.8395 116.6653,-132.0874"/>
<polygon fill="#191970" stroke="#191970" points="118.7068,-129.2407 108.6746,-125.8339 114.3926,-134.7533 118.7068,-129.2407"/>
</g>
<!-- Node23 -->
<g id="node6" class="node">
<title>Node23</title>
<g id="a_node6"><a xlink:href="../../d6/d0a/_standard_model_8h.html" target="_top" xlink:title="StandardModel.h">
<polygon fill="none" stroke="#ff0000" points="242.8869,-108.5 242.8869,-125.5 319.8869,-125.5 319.8869,-108.5 242.8869,-108.5"/>
<text text-anchor="middle" x="281.3869" y="-115.1" font-family="Helvetica,sans-Serif" font-size="8.00" fill="#000000">StandardModel.h</text>
</a>
</g>
</g>
<!-- Node0&#45;&gt;Node23 -->
<g id="edge5" class="edge">
<title>Node0&#45;&gt;Node23</title>
<path fill="none" stroke="#191970" d="M184.609,-162.4435C203.2825,-153.6751 232.5429,-139.9355 254.0043,-129.8579"/>
<polygon fill="#191970" stroke="#191970" points="255.6859,-132.935 263.2501,-125.5164 252.7106,-126.5988 255.6859,-132.935"/>
</g>
<!-- Node2 -->
<g id="node3" class="node">
<title>Node2</title>
<g id="a_node3"><a xlink:href="../../d9/d72/gslpp_8h.html" target="_top" xlink:title="gslpp.h">
<polygon fill="none" stroke="#ff0000" points="198.3869,-.5 198.3869,-17.5 240.3869,-17.5 240.3869,-.5 198.3869,-.5"/>
<text text-anchor="middle" x="219.3869" y="-7.1" font-family="Helvetica,sans-Serif" font-size="8.00" fill="#000000">gslpp.h</text>
</a>
</g>
</g>
<!-- Node1&#45;&gt;Node2 -->
<g id="edge2" class="edge">
<title>Node1&#45;&gt;Node2</title>
<path fill="none" stroke="#191970" d="M70.6323,-110.3876C36.3362,-100.6493 -16.2662,-80.6798 5.3869,-54 28.0404,-26.0875 134.2842,-14.8462 188.0506,-10.8856"/>
<polygon fill="#191970" stroke="#191970" points="188.3314,-14.3747 198.0638,-10.1878 187.8447,-7.3916 188.3314,-14.3747"/>
</g>
<!-- Node18 -->
<g id="node4" class="node">
<title>Node18</title>
<g id="a_node4"><a xlink:href="../../dd/dcd/_th_observable_8h.html" target="_top" xlink:title="ThObservable.h">
<polygon fill="none" stroke="#ff0000" points="14.8869,-54.5 14.8869,-71.5 87.8869,-71.5 87.8869,-54.5 14.8869,-54.5"/>
<text text-anchor="middle" x="51.3869" y="-61.1" font-family="Helvetica,sans-Serif" font-size="8.00" fill="#000000">ThObservable.h</text>
</a>
</g>
</g>
<!-- Node1&#45;&gt;Node18 -->
<g id="edge3" class="edge">
<title>Node1&#45;&gt;Node18</title>
<path fill="none" stroke="#191970" d="M89.7909,-108.083C83.1594,-100.2982 73.3659,-88.8015 65.3287,-79.3665"/>
<polygon fill="#191970" stroke="#191970" points="67.9906,-77.0939 58.8415,-71.7511 62.6619,-81.6332 67.9906,-77.0939"/>
</g>
<!-- Node21 -->
<g id="node5" class="node">
<title>Node21</title>
<g id="a_node5"><a xlink:href="../../db/d63/_lepton_flavour_8h.html" target="_top" xlink:title="LeptonFlavour.h">
<polygon fill="none" stroke="#ff0000" points="106.3869,-54.5 106.3869,-71.5 180.3869,-71.5 180.3869,-54.5 106.3869,-54.5"/>
<text text-anchor="middle" x="143.3869" y="-61.1" font-family="Helvetica,sans-Serif" font-size="8.00" fill="#000000">LeptonFlavour.h</text>
</a>
</g>
</g>
<!-- Node1&#45;&gt;Node21 -->
<g id="edge4" class="edge">
<title>Node1&#45;&gt;Node21</title>
<path fill="none" stroke="#191970" d="M104.9829,-108.083C111.6144,-100.2982 121.4079,-88.8015 129.445,-79.3665"/>
<polygon fill="#191970" stroke="#191970" points="132.1119,-81.6332 135.9323,-71.7511 126.7832,-77.0939 132.1119,-81.6332"/>
</g>
<!-- Node24 -->
<g id="node7" class="node">
<title>Node24</title>
<g id="a_node7"><a xlink:href="../../d2/d65/_flavour_8h.html" target="_top" xlink:title="Flavour.h">
<polygon fill="none" stroke="#ff0000" points="322.3869,-54.5 322.3869,-71.5 372.3869,-71.5 372.3869,-54.5 322.3869,-54.5"/>
<text text-anchor="middle" x="347.3869" y="-61.1" font-family="Helvetica,sans-Serif" font-size="8.00" fill="#000000">Flavour.h</text>
</a>
</g>
</g>
<!-- Node23&#45;&gt;Node24 -->
<g id="edge6" class="edge">
<title>Node23&#45;&gt;Node24</title>
<path fill="none" stroke="#191970" d="M291.9909,-108.324C301.8431,-100.2631 316.7378,-88.0765 328.602,-78.3695"/>
<polygon fill="#191970" stroke="#191970" points="331.0667,-80.8752 336.5899,-71.8339 326.634,-75.4575 331.0667,-80.8752"/>
</g>
<!-- Node25 -->
<g id="node8" class="node">
<title>Node25</title>
<g id="a_node8"><a xlink:href="../../d4/d68/_q_c_d_8h.html" target="_top" xlink:title="QCD.h">
<polygon fill="none" stroke="#ff0000" points="352.8869,-.5 352.8869,-17.5 393.8869,-17.5 393.8869,-.5 352.8869,-.5"/>
<text text-anchor="middle" x="373.3869" y="-7.1" font-family="Helvetica,sans-Serif" font-size="8.00" fill="#000000">QCD.h</text>
</a>
</g>
</g>
<!-- Node23&#45;&gt;Node25 -->
<g id="edge8" class="edge">
<title>Node23&#45;&gt;Node25</title>
<path fill="none" stroke="#191970" d="M319.9437,-110.2706C341.9771,-104.2358 367.8454,-92.9432 381.3869,-72 389.984,-58.7039 386.418,-40.4997 381.6299,-27.0783"/>
<polygon fill="#191970" stroke="#191970" points="384.752,-25.4648 377.737,-17.525 378.2695,-28.1065 384.752,-25.4648"/>
</g>
<!-- Node39 -->
<g id="node9" class="node">
<title>Node39</title>
<g id="a_node9"><a xlink:href="../../db/d5d/_c_k_m_8h.html" target="_top" xlink:title="CKM.h">
<polygon fill="none" stroke="#ff0000" points="198.8869,-54.5 198.8869,-71.5 239.8869,-71.5 239.8869,-54.5 198.8869,-54.5"/>
<text text-anchor="middle" x="219.3869" y="-61.1" font-family="Helvetica,sans-Serif" font-size="8.00" fill="#000000">CKM.h</text>
</a>
</g>
</g>
<!-- Node23&#45;&gt;Node39 -->
<g id="edge9" class="edge">
<title>Node23&#45;&gt;Node39</title>
<path fill="none" stroke="#191970" d="M271.4255,-108.324C262.2603,-100.3414 248.4497,-88.3128 237.3587,-78.6529"/>
<polygon fill="#191970" stroke="#191970" points="239.3691,-75.7624 229.5295,-71.8339 234.7716,-81.041 239.3691,-75.7624"/>
</g>
<!-- Node41 -->
<g id="node10" class="node">
<title>Node41</title>
<g id="a_node10"><a xlink:href="../../d9/d22/_p_m_n_s_8h.html" target="_top" xlink:title="PMNS.h">
<polygon fill="none" stroke="#ff0000" points="258.3869,-54.5 258.3869,-71.5 304.3869,-71.5 304.3869,-54.5 258.3869,-54.5"/>
<text text-anchor="middle" x="281.3869" y="-61.1" font-family="Helvetica,sans-Serif" font-size="8.00" fill="#000000">PMNS.h</text>
</a>
</g>
</g>
<!-- Node23&#45;&gt;Node41 -->
<g id="edge11" class="edge">
<title>Node23&#45;&gt;Node41</title>
<path fill="none" stroke="#191970" d="M281.3869,-108.083C281.3869,-101.0059 281.3869,-90.8611 281.3869,-81.9865"/>
<polygon fill="#191970" stroke="#191970" points="284.887,-81.751 281.3869,-71.7511 277.887,-81.7511 284.887,-81.751"/>
</g>
<!-- Node24&#45;&gt;Node25 -->
<g id="edge7" class="edge">
<title>Node24&#45;&gt;Node25</title>
<path fill="none" stroke="#191970" d="M351.6803,-54.083C355.2392,-46.6913 360.4094,-35.9533 364.8112,-26.8111"/>
<polygon fill="#191970" stroke="#191970" points="367.9887,-28.2795 369.1734,-17.7511 361.6817,-25.2427 367.9887,-28.2795"/>
</g>
<!-- Node39&#45;&gt;Node2 -->
<g id="edge10" class="edge">
<title>Node39&#45;&gt;Node2</title>
<path fill="none" stroke="#191970" d="M219.3869,-54.083C219.3869,-47.0059 219.3869,-36.8611 219.3869,-27.9865"/>
<polygon fill="#191970" stroke="#191970" points="222.887,-27.751 219.3869,-17.7511 215.887,-27.7511 222.887,-27.751"/>
</g>
<!-- Node41&#45;&gt;Node2 -->
<g id="edge12" class="edge">
<title>Node41&#45;&gt;Node2</title>
<path fill="none" stroke="#191970" d="M271.4255,-54.324C262.2603,-46.3414 248.4497,-34.3128 237.3587,-24.6529"/>
<polygon fill="#191970" stroke="#191970" points="239.3691,-21.7624 229.5295,-17.8339 234.7716,-27.041 239.3691,-21.7624"/>
</g>
</g>
</svg>
