<?xml version="1.0" encoding="UTF-8" standalone="no"?>
<!DOCTYPE svg PUBLIC "-//W3C//DTD SVG 1.1//EN"
 "http://www.w3.org/Graphics/SVG/1.1/DTD/svg11.dtd">
<!-- Generated by graphviz version 2.40.1 (20161225.0304)
 -->
<!-- Title: HeffDS1.cpp Pages: 1 -->
<svg width="399pt" height="188pt"
 viewBox="0.00 0.00 399.00 188.00" xmlns="http://www.w3.org/2000/svg" xmlns:xlink="http://www.w3.org/1999/xlink">
<g id="graph0" class="graph" transform="scale(1 1) rotate(0) translate(4 184)">
<title>HeffDS1.cpp</title>
<!-- Node0 -->
<g id="node1" class="node">
<title>Node0</title>
<polygon fill="#bfbfbf" stroke="#000000" points="192.5,-162.5 192.5,-179.5 254.5,-179.5 254.5,-162.5 192.5,-162.5"/>
<text text-anchor="middle" x="223.5" y="-169.1" font-family="Helvetica,sans-Serif" font-size="8.00" fill="#000000">HeffDS1.cpp</text>
</g>
<!-- Node1 -->
<g id="node2" class="node">
<title>Node1</title>
<g id="a_node2"><a xlink:href="../../df/da7/_heff_d_s1_8h.html" target="_top" xlink:title="HeffDS1.h">
<polygon fill="none" stroke="#000000" points="73,-108.5 73,-125.5 126,-125.5 126,-108.5 73,-108.5"/>
<text text-anchor="middle" x="99.5" y="-115.1" font-family="Helvetica,sans-Serif" font-size="8.00" fill="#000000">HeffDS1.h</text>
</a>
</g>
</g>
<!-- Node0&#45;&gt;Node1 -->
<g id="edge1" class="edge">
<title>Node0&#45;&gt;Node1</title>
<path fill="none" stroke="#191970" d="M203.8518,-162.4435C183.5355,-153.5961 151.5972,-139.6875 128.4023,-129.5865"/>
<polygon fill="#191970" stroke="#191970" points="129.6221,-126.3002 119.0562,-125.5164 126.8271,-132.7181 129.6221,-126.3002"/>
</g>
<!-- Node15 -->
<g id="node6" class="node">
<title>Node15</title>
<g id="a_node6"><a xlink:href="../../d6/d0a/_standard_model_8h.html" target="_top" xlink:title="StandardModel.h">
<polygon fill="none" stroke="#ff0000" points="231,-108.5 231,-125.5 308,-125.5 308,-108.5 231,-108.5"/>
<text text-anchor="middle" x="269.5" y="-115.1" font-family="Helvetica,sans-Serif" font-size="8.00" fill="#000000">StandardModel.h</text>
</a>
</g>
</g>
<!-- Node0&#45;&gt;Node15 -->
<g id="edge5" class="edge">
<title>Node0&#45;&gt;Node15</title>
<path fill="none" stroke="#191970" d="M231.096,-162.083C237.7275,-154.2982 247.521,-142.8015 255.5581,-133.3665"/>
<polygon fill="#191970" stroke="#191970" points="258.225,-135.6332 262.0454,-125.7511 252.8963,-131.0939 258.225,-135.6332"/>
</g>
<!-- Node50 -->
<g id="node9" class="node">
<title>Node50</title>
<g id="a_node9"><a xlink:href="../../d8/dfb/_evol_d_f1nlep_8h.html" target="_top" xlink:title="EvolDF1nlep.h">
<polygon fill="none" stroke="#ff0000" points="144,-108.5 144,-125.5 213,-125.5 213,-108.5 144,-108.5"/>
<text text-anchor="middle" x="178.5" y="-115.1" font-family="Helvetica,sans-Serif" font-size="8.00" fill="#000000">EvolDF1nlep.h</text>
</a>
</g>
</g>
<!-- Node0&#45;&gt;Node50 -->
<g id="edge10" class="edge">
<title>Node0&#45;&gt;Node50</title>
<path fill="none" stroke="#191970" d="M216.0692,-162.083C209.6473,-154.3768 200.1944,-143.0333 192.3775,-133.6531"/>
<polygon fill="#191970" stroke="#191970" points="194.8832,-131.1927 185.7926,-125.7511 189.5057,-135.674 194.8832,-131.1927"/>
</g>
<!-- Node52 -->
<g id="node10" class="node">
<title>Node52</title>
<g id="a_node10"><a xlink:href="../../d1/dc8/_evol_d_b1_mll_8h.html" target="_top" xlink:title="EvolDB1Mll.h">
<polygon fill="none" stroke="#ff0000" points="326,-108.5 326,-125.5 391,-125.5 391,-108.5 326,-108.5"/>
<text text-anchor="middle" x="358.5" y="-115.1" font-family="Helvetica,sans-Serif" font-size="8.00" fill="#000000">EvolDB1Mll.h</text>
</a>
</g>
</g>
<!-- Node0&#45;&gt;Node52 -->
<g id="edge12" class="edge">
<title>Node0&#45;&gt;Node52</title>
<path fill="none" stroke="#191970" d="M244.8912,-162.4435C267.2073,-153.5171 302.4032,-139.4387 327.708,-129.3168"/>
<polygon fill="#191970" stroke="#191970" points="329.224,-132.4801 337.2089,-125.5164 326.6243,-125.9807 329.224,-132.4801"/>
</g>
<!-- Node2 -->
<g id="node3" class="node">
<title>Node2</title>
<g id="a_node3"><a xlink:href="../../db/dba/_wilson_coefficient_8h.html" target="_top" xlink:title="WilsonCoefficient.h">
<polygon fill="none" stroke="#ff0000" points="0,-54.5 0,-71.5 85,-71.5 85,-54.5 0,-54.5"/>
<text text-anchor="middle" x="42.5" y="-61.1" font-family="Helvetica,sans-Serif" font-size="8.00" fill="#000000">WilsonCoefficient.h</text>
</a>
</g>
</g>
<!-- Node1&#45;&gt;Node2 -->
<g id="edge2" class="edge">
<title>Node1&#45;&gt;Node2</title>
<path fill="none" stroke="#191970" d="M90.342,-108.324C81.9985,-100.4196 69.4676,-88.5482 59.3231,-78.9377"/>
<polygon fill="#191970" stroke="#191970" points="61.4913,-76.1705 51.8247,-71.8339 56.6771,-81.2522 61.4913,-76.1705"/>
</g>
<!-- Node12 -->
<g id="node4" class="node">
<title>Node12</title>
<polygon fill="none" stroke="#bfbfbf" points="142,-54.5 142,-71.5 187,-71.5 187,-54.5 142,-54.5"/>
<text text-anchor="middle" x="164.5" y="-61.1" font-family="Helvetica,sans-Serif" font-size="8.00" fill="#000000">sstream</text>
</g>
<!-- Node1&#45;&gt;Node12 -->
<g id="edge3" class="edge">
<title>Node1&#45;&gt;Node12</title>
<path fill="none" stroke="#191970" d="M109.9434,-108.324C119.6462,-100.2631 134.3153,-88.0765 145.9997,-78.3695"/>
<polygon fill="#191970" stroke="#191970" points="148.4113,-80.9163 153.8666,-71.8339 143.9381,-75.532 148.4113,-80.9163"/>
</g>
<!-- Node14 -->
<g id="node5" class="node">
<title>Node14</title>
<polygon fill="none" stroke="#bfbfbf" points="145,-.5 145,-17.5 190,-17.5 190,-.5 145,-.5"/>
<text text-anchor="middle" x="167.5" y="-7.1" font-family="Helvetica,sans-Serif" font-size="8.00" fill="#000000">memory</text>
</g>
<!-- Node1&#45;&gt;Node14 -->
<g id="edge4" class="edge">
<title>Node1&#45;&gt;Node14</title>
<path fill="none" stroke="#191970" d="M103.5116,-108.1656C109.2986,-95.7205 120.6071,-72.4821 132.5,-54 138.8599,-44.1163 146.8506,-33.7193 153.5906,-25.4119"/>
<polygon fill="#191970" stroke="#191970" points="156.3601,-27.5551 160.0409,-17.6202 150.968,-23.0913 156.3601,-27.5551"/>
</g>
<!-- Node16 -->
<g id="node7" class="node">
<title>Node16</title>
<g id="a_node7"><a xlink:href="../../d2/d65/_flavour_8h.html" target="_top" xlink:title="Flavour.h">
<polygon fill="none" stroke="#ff0000" points="205.5,-54.5 205.5,-71.5 255.5,-71.5 255.5,-54.5 205.5,-54.5"/>
<text text-anchor="middle" x="230.5" y="-61.1" font-family="Helvetica,sans-Serif" font-size="8.00" fill="#000000">Flavour.h</text>
</a>
</g>
</g>
<!-- Node15&#45;&gt;Node16 -->
<g id="edge6" class="edge">
<title>Node15&#45;&gt;Node16</title>
<path fill="none" stroke="#191970" d="M263.0599,-108.083C257.5511,-100.4554 249.4688,-89.2645 242.735,-79.9408"/>
<polygon fill="#191970" stroke="#191970" points="245.5126,-77.8087 236.8202,-71.7511 239.8378,-81.9071 245.5126,-77.8087"/>
</g>
<!-- Node17 -->
<g id="node8" class="node">
<title>Node17</title>
<g id="a_node8"><a xlink:href="../../d4/d68/_q_c_d_8h.html" target="_top" xlink:title="QCD.h">
<polygon fill="none" stroke="#ff0000" points="236,-.5 236,-17.5 277,-17.5 277,-.5 236,-.5"/>
<text text-anchor="middle" x="256.5" y="-7.1" font-family="Helvetica,sans-Serif" font-size="8.00" fill="#000000">QCD.h</text>
</a>
</g>
</g>
<!-- Node15&#45;&gt;Node17 -->
<g id="edge9" class="edge">
<title>Node15&#45;&gt;Node17</title>
<path fill="none" stroke="#191970" d="M269.0823,-108.4132C268.4314,-96.2623 266.9847,-73.3713 264.5,-54 263.3756,-45.2342 261.7154,-35.5783 260.1984,-27.4659"/>
<polygon fill="#191970" stroke="#191970" points="263.6227,-26.7392 258.2822,-17.5888 256.7509,-28.0724 263.6227,-26.7392"/>
</g>
<!-- Node16&#45;&gt;Node14 -->
<g id="edge8" class="edge">
<title>Node16&#45;&gt;Node14</title>
<path fill="none" stroke="#191970" d="M220.378,-54.324C210.9736,-46.2631 196.7559,-34.0765 185.431,-24.3695"/>
<polygon fill="#191970" stroke="#191970" points="187.6766,-21.6844 177.8062,-17.8339 183.121,-26.9993 187.6766,-21.6844"/>
</g>
<!-- Node16&#45;&gt;Node17 -->
<g id="edge7" class="edge">
<title>Node16&#45;&gt;Node17</title>
<path fill="none" stroke="#191970" d="M234.7934,-54.083C238.3523,-46.6913 243.5225,-35.9533 247.9243,-26.8111"/>
<polygon fill="#191970" stroke="#191970" points="251.1018,-28.2795 252.2865,-17.7511 244.7948,-25.2427 251.1018,-28.2795"/>
</g>
<!-- Node50&#45;&gt;Node12 -->
<g id="edge11" class="edge">
<title>Node50&#45;&gt;Node12</title>
<path fill="none" stroke="#191970" d="M176.1882,-108.083C174.333,-100.9272 171.6647,-90.6353 169.3458,-81.6911"/>
<polygon fill="#191970" stroke="#191970" points="172.6665,-80.5527 166.7688,-71.7511 165.8905,-82.3094 172.6665,-80.5527"/>
</g>
</g>
</svg>
