<?xml version="1.0" encoding="UTF-8" standalone="no"?>
<!DOCTYPE svg PUBLIC "-//W3C//DTD SVG 1.1//EN"
 "http://www.w3.org/Graphics/SVG/1.1/DTD/svg11.dtd">
<!-- Generated by graphviz version 2.38.0 (20140413.2041)
 -->
<!-- Title: massdifference_mHpmmA Pages: 1 -->
<svg width="397pt" height="215pt"
 viewBox="0.00 0.00 397.00 215.00" xmlns="http://www.w3.org/2000/svg" xmlns:xlink="http://www.w3.org/1999/xlink">
<g id="graph0" class="graph" transform="scale(1 1) rotate(0) translate(4 211)">
<title>massdifference_mHpmmA</title>
<!-- Node1 -->
<g id="node1" class="node"><title>Node1</title>
<polygon fill="#bfbfbf" stroke="black" points="110.5,-0.5 110.5,-17.5 221.5,-17.5 221.5,-0.5 110.5,-0.5"/>
<text text-anchor="middle" x="166" y="-7.1" font-family="Helvetica,sans-Serif" font-size="8.00">massdifference_mHpmmA</text>
</g>
<!-- Node2 -->
<g id="node2" class="node"><title>Node2</title>
<g id="a_node2"><a xlink:href="../../dc/d1f/class_th_observable.html" target="_top" xlink:title="A class for a model prediction of an observable. ">
<polygon fill="none" stroke="black" points="149.5,-63.5 149.5,-80.5 216.5,-80.5 216.5,-63.5 149.5,-63.5"/>
<text text-anchor="middle" x="183" y="-70.1" font-family="Helvetica,sans-Serif" font-size="8.00">ThObservable</text>
</a>
</g>
</g>
<!-- Node2&#45;&gt;Node1 -->
<g id="edge1" class="edge"><title>Node2&#45;&gt;Node1</title>
<path fill="none" stroke="midnightblue" d="M193.86,-54.3726C196.362,-48.4808 197.617,-41.8618 195,-36 191.581,-28.3438 184.671,-22.0044 178.453,-17.5025"/>
<polygon fill="midnightblue" stroke="midnightblue" points="190.681,-52.8896 188.933,-63.3392 196.816,-56.2604 190.681,-52.8896"/>
</g>
<!-- Node3 -->
<g id="node3" class="node"><title>Node3</title>
<g id="a_node3"><a xlink:href="../../dc/dd5/class_standard_model.html" target="_top" xlink:title="A model class for the Standard Model. ">
<polygon fill="none" stroke="red" points="185.5,-126.5 185.5,-143.5 256.5,-143.5 256.5,-126.5 185.5,-126.5"/>
<text text-anchor="middle" x="221" y="-133.1" font-family="Helvetica,sans-Serif" font-size="8.00">StandardModel</text>
</a>
</g>
</g>
<!-- Node3&#45;&gt;Node2 -->
<g id="edge2" class="edge"><title>Node3&#45;&gt;Node2</title>
<path fill="none" stroke="#9a32cd" stroke-dasharray="5,2" d="M195.377,-120.802C190.832,-117.272 186.696,-113.013 184,-108 179.451,-99.541 180.136,-88.1914 181.328,-80.7414"/>
<polygon fill="#9a32cd" stroke="#9a32cd" points="193.508,-123.762 203.776,-126.374 197.378,-117.929 193.508,-123.762"/>
<text text-anchor="middle" x="191.5" y="-101.6" font-family="Helvetica,sans-Serif" font-size="8.00"> SM</text>
</g>
<!-- Node5 -->
<g id="node5" class="node"><title>Node5</title>
<g id="a_node5"><a xlink:href="../../dc/df3/class_e_w_s_mcache.html" target="_top" xlink:title="A class for cache variables used in computing radiative corrections to the EW precision observables...">
<polygon fill="none" stroke="red" points="234.5,-63.5 234.5,-80.5 297.5,-80.5 297.5,-63.5 234.5,-63.5"/>
<text text-anchor="middle" x="266" y="-70.1" font-family="Helvetica,sans-Serif" font-size="8.00">EWSMcache</text>
</a>
</g>
</g>
<!-- Node3&#45;&gt;Node5 -->
<g id="edge5" class="edge"><title>Node3&#45;&gt;Node5</title>
<path fill="none" stroke="#9a32cd" stroke-dasharray="5,2" d="M218.213,-116.235C218.127,-110.399 218.989,-104.105 222,-99 226.958,-90.5928 235.779,-84.6102 244.228,-80.5207"/>
<polygon fill="#9a32cd" stroke="#9a32cd" points="214.758,-116.857 219.232,-126.46 221.723,-116.162 214.758,-116.857"/>
<text text-anchor="middle" x="229.5" y="-101.6" font-family="Helvetica,sans-Serif" font-size="8.00"> SM</text>
</g>
<!-- Node8 -->
<g id="node8" class="node"><title>Node8</title>
<g id="a_node8"><a xlink:href="../../d0/d52/class_t_h_d_m.html" target="_top" xlink:title="A base class &#160;symmetric Two&#45;Higgs&#45;Doublet models. ">
<polygon fill="none" stroke="black" points="68,-63.5 68,-80.5 108,-80.5 108,-63.5 68,-63.5"/>
<text text-anchor="middle" x="88" y="-70.1" font-family="Helvetica,sans-Serif" font-size="8.00">THDM</text>
</a>
</g>
</g>
<!-- Node3&#45;&gt;Node8 -->
<g id="edge10" class="edge"><title>Node3&#45;&gt;Node8</title>
<path fill="none" stroke="midnightblue" d="M195.241,-122.186C168.375,-109.864 127.076,-90.9221 104.367,-80.5065"/>
<polygon fill="midnightblue" stroke="midnightblue" points="193.876,-125.41 204.424,-126.398 196.794,-119.047 193.876,-125.41"/>
</g>
<!-- Node4 -->
<g id="node4" class="node"><title>Node4</title>
<g id="a_node4"><a xlink:href="../../dd/dfa/class_q_c_d.html" target="_top" xlink:title="A class for parameters related to QCD, hadrons and quarks. ">
<polygon fill="none" stroke="red" points="178,-189.5 178,-206.5 212,-206.5 212,-189.5 178,-189.5"/>
<text text-anchor="middle" x="195" y="-196.1" font-family="Helvetica,sans-Serif" font-size="8.00">QCD</text>
</a>
</g>
</g>
<!-- Node4&#45;&gt;Node3 -->
<g id="edge3" class="edge"><title>Node4&#45;&gt;Node3</title>
<path fill="none" stroke="midnightblue" d="M202.25,-179.991C207.292,-168.161 213.78,-152.94 217.652,-143.856"/>
<polygon fill="midnightblue" stroke="midnightblue" points="198.994,-178.703 198.293,-189.274 205.434,-181.447 198.994,-178.703"/>
</g>
<!-- Node5&#45;&gt;Node3 -->
<g id="edge4" class="edge"><title>Node5&#45;&gt;Node3</title>
<path fill="none" stroke="#9a32cd" stroke-dasharray="5,2" d="M254.115,-89.1103C245.26,-101.114 233.559,-116.975 226.699,-126.274"/>
<polygon fill="#9a32cd" stroke="#9a32cd" points="257.085,-90.9807 260.205,-80.8556 251.452,-86.8251 257.085,-90.9807"/>
<text text-anchor="middle" x="277" y="-101.6" font-family="Helvetica,sans-Serif" font-size="8.00"> myEWSMcache</text>
</g>
<!-- Node7 -->
<g id="node7" class="node"><title>Node7</title>
<g id="a_node7"><a xlink:href="../../d5/dad/class_e_w_s_m_three_loop_e_w.html" target="_top" xlink:title="A class for &#160;three&#45;loop corrections to the EW precision observables. ">
<polygon fill="none" stroke="black" points="256.5,-0.5 256.5,-17.5 349.5,-17.5 349.5,-0.5 256.5,-0.5"/>
<text text-anchor="middle" x="303" y="-7.1" font-family="Helvetica,sans-Serif" font-size="8.00">EWSMThreeLoopEW</text>
</a>
</g>
</g>
<!-- Node5&#45;&gt;Node7 -->
<g id="edge8" class="edge"><title>Node5&#45;&gt;Node7</title>
<path fill="none" stroke="#9a32cd" stroke-dasharray="5,2" d="M275.885,-54.7035C283.118,-42.7785 292.613,-27.1237 298.235,-17.8556"/>
<polygon fill="#9a32cd" stroke="#9a32cd" points="272.88,-52.909 270.686,-63.2743 278.865,-56.5394 272.88,-52.909"/>
<text text-anchor="middle" x="299" y="-38.6" font-family="Helvetica,sans-Serif" font-size="8.00"> cache</text>
</g>
<!-- Node6 -->
<g id="node6" class="node"><title>Node6</title>
<g id="a_node6"><a xlink:href="../../d9/db9/class_c_k_m.html" target="_top" xlink:title="A class for the CKM matrix elements. ">
<polygon fill="none" stroke="red" points="230,-189.5 230,-206.5 264,-206.5 264,-189.5 230,-189.5"/>
<text text-anchor="middle" x="247" y="-196.1" font-family="Helvetica,sans-Serif" font-size="8.00">CKM</text>
</a>
</g>
</g>
<!-- Node6&#45;&gt;Node3 -->
<g id="edge6" class="edge"><title>Node6&#45;&gt;Node3</title>
<path fill="none" stroke="#9a32cd" stroke-dasharray="5,2" d="M239.75,-179.991C234.708,-168.161 228.22,-152.94 224.348,-143.856"/>
<polygon fill="#9a32cd" stroke="#9a32cd" points="236.566,-181.447 243.707,-189.274 243.006,-178.703 236.566,-181.447"/>
<text text-anchor="middle" x="251.5" y="-164.6" font-family="Helvetica,sans-Serif" font-size="8.00"> myCKM</text>
</g>
<!-- Node7&#45;&gt;Node3 -->
<g id="edge7" class="edge"><title>Node7&#45;&gt;Node3</title>
<path fill="none" stroke="#9a32cd" stroke-dasharray="5,2" d="M312.097,-26.9947C313.298,-29.9245 314.34,-32.9955 315,-36 321.875,-67.3032 331.065,-83.0086 311,-108 298.069,-124.106 275.818,-130.631 256.677,-133.117"/>
<polygon fill="#9a32cd" stroke="#9a32cd" points="315.207,-25.384 307.728,-17.8794 308.895,-28.4098 315.207,-25.384"/>
<text text-anchor="middle" x="356.5" y="-70.1" font-family="Helvetica,sans-Serif" font-size="8.00"> myThreeLoopEW</text>
</g>
<!-- Node8&#45;&gt;Node1 -->
<g id="edge9" class="edge"><title>Node8&#45;&gt;Node1</title>
<path fill="none" stroke="#9a32cd" stroke-dasharray="5,2" d="M114.353,-58.9535C121.708,-55.0128 129.468,-50.2749 136,-45 145.962,-36.9554 155.191,-25.2946 160.711,-17.6804"/>
<polygon fill="#9a32cd" stroke="#9a32cd" points="112.715,-55.8592 105.375,-63.4992 115.878,-62.1043 112.715,-55.8592"/>
<text text-anchor="middle" x="164" y="-38.6" font-family="Helvetica,sans-Serif" font-size="8.00"> myTHDM</text>
</g>
<!-- Node10 -->
<g id="node10" class="node"><title>Node10</title>
<g id="a_node10"><a xlink:href="../../dc/d38/class_t_h_d_m_matching.html" target="_top" xlink:title="A class for the Wilson coefficients in the THDM. ">
<polygon fill="none" stroke="red" points="0,-0.5 0,-17.5 72,-17.5 72,-0.5 0,-0.5"/>
<text text-anchor="middle" x="36" y="-7.1" font-family="Helvetica,sans-Serif" font-size="8.00">THDMMatching</text>
</a>
</g>
</g>
<!-- Node8&#45;&gt;Node10 -->
<g id="edge13" class="edge"><title>Node8&#45;&gt;Node10</title>
<path fill="none" stroke="#9a32cd" stroke-dasharray="5,2" d="M57.9196,-67.5375C43.6316,-64.2115 27.7911,-57.7071 19,-45 12.9275,-36.2225 20.8264,-24.9475 27.7639,-17.6014"/>
<polygon fill="#9a32cd" stroke="#9a32cd" points="57.4482,-71.0105 67.9261,-69.4407 58.7562,-64.1338 57.4482,-71.0105"/>
<text text-anchor="middle" x="37" y="-38.6" font-family="Helvetica,sans-Serif" font-size="8.00"> myTHDM</text>
</g>
<!-- Node9 -->
<g id="node9" class="node"><title>Node9</title>
<g id="a_node9"><a xlink:href="../../d5/df2/class_t_h_d_mcache.html" target="_top" xlink:title="A class for the caching of some THDM objects. ">
<polygon fill="none" stroke="red" points="57.5,-126.5 57.5,-143.5 118.5,-143.5 118.5,-126.5 57.5,-126.5"/>
<text text-anchor="middle" x="88" y="-133.1" font-family="Helvetica,sans-Serif" font-size="8.00">THDMcache</text>
</a>
</g>
</g>
<!-- Node9&#45;&gt;Node8 -->
<g id="edge11" class="edge"><title>Node9&#45;&gt;Node8</title>
<path fill="none" stroke="#9a32cd" stroke-dasharray="5,2" d="M88,-116.27C88,-104.549 88,-89.7567 88,-80.8556"/>
<polygon fill="#9a32cd" stroke="#9a32cd" points="84.5001,-116.274 88,-126.274 91.5001,-116.274 84.5001,-116.274"/>
<text text-anchor="middle" x="105.5" y="-101.6" font-family="Helvetica,sans-Serif" font-size="8.00"> mycache</text>
</g>
<!-- Node10&#45;&gt;Node8 -->
<g id="edge12" class="edge"><title>Node10&#45;&gt;Node8</title>
<path fill="none" stroke="#9a32cd" stroke-dasharray="5,2" d="M49.4334,-25.7584C59.7003,-37.8022 73.4093,-53.884 81.4142,-63.2743"/>
<polygon fill="#9a32cd" stroke="#9a32cd" points="51.8475,-23.1952 42.6966,-17.8556 46.5204,-27.7364 51.8475,-23.1952"/>
<text text-anchor="middle" x="100.5" y="-38.6" font-family="Helvetica,sans-Serif" font-size="8.00"> myTHDMMatching</text>
</g>
</g>
</svg>
