<?xml version="1.0" encoding="UTF-8" standalone="no"?>
<!DOCTYPE svg PUBLIC "-//W3C//DTD SVG 1.1//EN"
 "http://www.w3.org/Graphics/SVG/1.1/DTD/svg11.dtd">
<!-- Generated by graphviz version 2.40.1 (20161225.0304)
 -->
<!-- Title: Mll.cpp Pages: 1 -->
<svg width="362pt" height="242pt"
 viewBox="0.00 0.00 362.00 242.00" xmlns="http://www.w3.org/2000/svg" xmlns:xlink="http://www.w3.org/1999/xlink">
<g id="graph0" class="graph" transform="scale(1 1) rotate(0) translate(4 238)">
<title>Mll.cpp</title>
<!-- Node0 -->
<g id="node1" class="node">
<title>Node0</title>
<polygon fill="#bfbfbf" stroke="#000000" points="176.5,-216.5 176.5,-233.5 218.5,-233.5 218.5,-216.5 176.5,-216.5"/>
<text text-anchor="middle" x="197.5" y="-223.1" font-family="Helvetica,sans-Serif" font-size="8.00" fill="#000000">Mll.cpp</text>
</g>
<!-- Node1 -->
<g id="node2" class="node">
<title>Node1</title>
<g id="a_node2"><a xlink:href="../../dd/ddd/_mll_8h.html" target="_top" xlink:title="Mll.h">
<polygon fill="none" stroke="#000000" points="60,-108.5 60,-125.5 93,-125.5 93,-108.5 60,-108.5"/>
<text text-anchor="middle" x="76.5" y="-115.1" font-family="Helvetica,sans-Serif" font-size="8.00" fill="#000000">Mll.h</text>
</a>
</g>
</g>
<!-- Node0&#45;&gt;Node1 -->
<g id="edge1" class="edge">
<title>Node0&#45;&gt;Node1</title>
<path fill="none" stroke="#191970" d="M187.5981,-216.1619C167.0223,-197.7967 119.4253,-155.3135 93.7165,-132.3668"/>
<polygon fill="#191970" stroke="#191970" points="95.9917,-129.7062 86.2006,-125.6584 91.3304,-134.9285 95.9917,-129.7062"/>
</g>
<!-- Node24 -->
<g id="node6" class="node">
<title>Node24</title>
<g id="a_node6"><a xlink:href="../../d6/d0a/_standard_model_8h.html" target="_top" xlink:title="StandardModel.h">
<polygon fill="none" stroke="#ff0000" points="159,-162.5 159,-179.5 236,-179.5 236,-162.5 159,-162.5"/>
<text text-anchor="middle" x="197.5" y="-169.1" font-family="Helvetica,sans-Serif" font-size="8.00" fill="#000000">StandardModel.h</text>
</a>
</g>
</g>
<!-- Node0&#45;&gt;Node24 -->
<g id="edge6" class="edge">
<title>Node0&#45;&gt;Node24</title>
<path fill="none" stroke="#191970" d="M197.5,-216.083C197.5,-209.0059 197.5,-198.8611 197.5,-189.9865"/>
<polygon fill="#191970" stroke="#191970" points="201.0001,-189.751 197.5,-179.7511 194.0001,-189.7511 201.0001,-189.751"/>
</g>
<!-- Node51 -->
<g id="node10" class="node">
<title>Node51</title>
<g id="a_node10"><a xlink:href="../../d9/d29/_heff_d_b1_8h.html" target="_top" xlink:title="HeffDB1.h">
<polygon fill="none" stroke="#ff0000" points="301,-162.5 301,-179.5 354,-179.5 354,-162.5 301,-162.5"/>
<text text-anchor="middle" x="327.5" y="-169.1" font-family="Helvetica,sans-Serif" font-size="8.00" fill="#000000">HeffDB1.h</text>
</a>
</g>
</g>
<!-- Node0&#45;&gt;Node51 -->
<g id="edge12" class="edge">
<title>Node0&#45;&gt;Node51</title>
<path fill="none" stroke="#191970" d="M218.0989,-216.4435C239.4934,-207.5566 273.1812,-193.5632 297.5244,-183.4514"/>
<polygon fill="#191970" stroke="#191970" points="299.1052,-186.5848 306.9975,-179.5164 296.4199,-180.1203 299.1052,-186.5848"/>
</g>
<!-- Node2 -->
<g id="node3" class="node">
<title>Node2</title>
<g id="a_node3"><a xlink:href="../../dd/dcd/_th_observable_8h.html" target="_top" xlink:title="ThObservable.h">
<polygon fill="none" stroke="#ff0000" points="0,-54.5 0,-71.5 73,-71.5 73,-54.5 0,-54.5"/>
<text text-anchor="middle" x="36.5" y="-61.1" font-family="Helvetica,sans-Serif" font-size="8.00" fill="#000000">ThObservable.h</text>
</a>
</g>
</g>
<!-- Node1&#45;&gt;Node2 -->
<g id="edge2" class="edge">
<title>Node1&#45;&gt;Node2</title>
<path fill="none" stroke="#191970" d="M69.8948,-108.083C64.2448,-100.4554 55.9552,-89.2645 49.0488,-79.9408"/>
<polygon fill="#191970" stroke="#191970" points="51.7471,-77.7034 42.9823,-71.7511 46.1221,-81.87 51.7471,-77.7034"/>
</g>
<!-- Node5 -->
<g id="node4" class="node">
<title>Node5</title>
<g id="a_node4"><a xlink:href="../../d4/d68/_q_c_d_8h.html" target="_top" xlink:title="QCD.h">
<polygon fill="none" stroke="#ff0000" points="130,-54.5 130,-71.5 171,-71.5 171,-54.5 130,-54.5"/>
<text text-anchor="middle" x="150.5" y="-61.1" font-family="Helvetica,sans-Serif" font-size="8.00" fill="#000000">QCD.h</text>
</a>
</g>
</g>
<!-- Node1&#45;&gt;Node5 -->
<g id="edge3" class="edge">
<title>Node1&#45;&gt;Node5</title>
<path fill="none" stroke="#191970" d="M88.3894,-108.324C99.6502,-100.1066 116.7866,-87.6017 130.2091,-77.8069"/>
<polygon fill="#191970" stroke="#191970" points="132.3795,-80.5559 138.3943,-71.8339 128.2532,-74.9014 132.3795,-80.5559"/>
</g>
<!-- Node21 -->
<g id="node5" class="node">
<title>Node21</title>
<g id="a_node5"><a xlink:href="../../d4/d36/_order_scheme_8h.html" target="_top" xlink:title="OrderScheme.h">
<polygon fill="none" stroke="#000000" points="89,-.5 89,-17.5 162,-17.5 162,-.5 89,-.5"/>
<text text-anchor="middle" x="125.5" y="-7.1" font-family="Helvetica,sans-Serif" font-size="8.00" fill="#000000">OrderScheme.h</text>
</a>
</g>
</g>
<!-- Node1&#45;&gt;Node21 -->
<g id="edge5" class="edge">
<title>Node1&#45;&gt;Node21</title>
<path fill="none" stroke="#191970" d="M80.5099,-108.1619C88.5537,-90.4328 106.7951,-50.2271 117.4153,-26.8193"/>
<polygon fill="#191970" stroke="#191970" points="120.6272,-28.211 121.5717,-17.6584 114.2526,-25.3188 120.6272,-28.211"/>
</g>
<!-- Node5&#45;&gt;Node21 -->
<g id="edge4" class="edge">
<title>Node5&#45;&gt;Node21</title>
<path fill="none" stroke="#191970" d="M146.3718,-54.083C142.9861,-46.77 138.084,-36.1814 133.8812,-27.1034"/>
<polygon fill="#191970" stroke="#191970" points="136.9289,-25.3553 129.5514,-17.7511 130.5766,-28.2962 136.9289,-25.3553"/>
</g>
<!-- Node24&#45;&gt;Node5 -->
<g id="edge9" class="edge">
<title>Node24&#45;&gt;Node5</title>
<path fill="none" stroke="#191970" d="M179.4185,-162.3901C165.9382,-154.8722 148.5275,-142.5651 140.5,-126 133.6406,-111.8453 137.4707,-94.0047 142.2404,-80.9251"/>
<polygon fill="#191970" stroke="#191970" points="145.5019,-82.1967 146.0808,-71.6176 139.0311,-79.5267 145.5019,-82.1967"/>
</g>
<!-- Node25 -->
<g id="node7" class="node">
<title>Node25</title>
<g id="a_node7"><a xlink:href="../../d2/d65/_flavour_8h.html" target="_top" xlink:title="Flavour.h">
<polygon fill="none" stroke="#ff0000" points="149.5,-108.5 149.5,-125.5 199.5,-125.5 199.5,-108.5 149.5,-108.5"/>
<text text-anchor="middle" x="174.5" y="-115.1" font-family="Helvetica,sans-Serif" font-size="8.00" fill="#000000">Flavour.h</text>
</a>
</g>
</g>
<!-- Node24&#45;&gt;Node25 -->
<g id="edge7" class="edge">
<title>Node24&#45;&gt;Node25</title>
<path fill="none" stroke="#191970" d="M193.702,-162.083C190.5872,-154.77 186.0772,-144.1814 182.2107,-135.1034"/>
<polygon fill="#191970" stroke="#191970" points="185.3661,-133.5798 178.2273,-125.7511 178.9259,-136.3229 185.3661,-133.5798"/>
</g>
<!-- Node28 -->
<g id="node8" class="node">
<title>Node28</title>
<g id="a_node8"><a xlink:href="../../db/d5d/_c_k_m_8h.html" target="_top" xlink:title="CKM.h">
<polygon fill="none" stroke="#ff0000" points="218,-108.5 218,-125.5 259,-125.5 259,-108.5 218,-108.5"/>
<text text-anchor="middle" x="238.5" y="-115.1" font-family="Helvetica,sans-Serif" font-size="8.00" fill="#000000">CKM.h</text>
</a>
</g>
</g>
<!-- Node24&#45;&gt;Node28 -->
<g id="edge10" class="edge">
<title>Node24&#45;&gt;Node28</title>
<path fill="none" stroke="#191970" d="M204.2703,-162.083C210.0616,-154.4554 218.5585,-143.2645 225.6375,-133.9408"/>
<polygon fill="#191970" stroke="#191970" points="228.5961,-135.8321 231.8557,-125.7511 223.021,-131.5991 228.5961,-135.8321"/>
</g>
<!-- Node39 -->
<g id="node9" class="node">
<title>Node39</title>
<g id="a_node9"><a xlink:href="../../d9/d22/_p_m_n_s_8h.html" target="_top" xlink:title="PMNS.h">
<polygon fill="none" stroke="#ff0000" points="277.5,-108.5 277.5,-125.5 323.5,-125.5 323.5,-108.5 277.5,-108.5"/>
<text text-anchor="middle" x="300.5" y="-115.1" font-family="Helvetica,sans-Serif" font-size="8.00" fill="#000000">PMNS.h</text>
</a>
</g>
</g>
<!-- Node24&#45;&gt;Node39 -->
<g id="edge11" class="edge">
<title>Node24&#45;&gt;Node39</title>
<path fill="none" stroke="#191970" d="M214.0487,-162.324C230.4916,-153.7034 255.9348,-140.3643 274.9684,-130.3855"/>
<polygon fill="#191970" stroke="#191970" points="276.7609,-133.3977 283.9923,-125.6545 273.5105,-127.198 276.7609,-133.3977"/>
</g>
<!-- Node25&#45;&gt;Node5 -->
<g id="edge8" class="edge">
<title>Node25&#45;&gt;Node5</title>
<path fill="none" stroke="#191970" d="M170.5369,-108.083C167.2867,-100.77 162.5806,-90.1814 158.546,-81.1034"/>
<polygon fill="#191970" stroke="#191970" points="161.6492,-79.4677 154.3894,-71.7511 155.2525,-82.3107 161.6492,-79.4677"/>
</g>
<!-- Node51&#45;&gt;Node5 -->
<g id="edge13" class="edge">
<title>Node51&#45;&gt;Node5</title>
<path fill="none" stroke="#191970" d="M331.5974,-162.1925C337.0892,-148.9325 344.8094,-123.7236 332.5,-108 314.072,-84.4607 228.3835,-71.5333 181.4473,-66.1084"/>
<polygon fill="#191970" stroke="#191970" points="181.5594,-62.5994 171.2345,-64.9758 180.7878,-69.5568 181.5594,-62.5994"/>
</g>
</g>
</svg>
