<?xml version="1.0" encoding="UTF-8" standalone="no"?>
<!DOCTYPE svg PUBLIC "-//W3C//DTD SVG 1.1//EN"
 "http://www.w3.org/Graphics/SVG/1.1/DTD/svg11.dtd">
<!-- Generated by graphviz version 2.40.1 (20161225.0304)
 -->
<!-- Title: HiggsKigen.h Pages: 1 -->
<svg width="180pt" height="80pt"
 viewBox="0.00 0.00 179.50 80.00" xmlns="http://www.w3.org/2000/svg" xmlns:xlink="http://www.w3.org/1999/xlink">
<g id="graph0" class="graph" transform="scale(1 1) rotate(0) translate(4 76)">
<title>HiggsKigen.h</title>
<!-- Node50 -->
<g id="node1" class="node">
<title>Node50</title>
<polygon fill="#bfbfbf" stroke="#000000" points="51.5,-54.5 51.5,-71.5 115.5,-71.5 115.5,-54.5 51.5,-54.5"/>
<text text-anchor="middle" x="83.5" y="-61.1" font-family="Helvetica,sans-Serif" font-size="8.00" fill="#000000">HiggsKigen.h</text>
</g>
<!-- Node51 -->
<g id="node2" class="node">
<title>Node51</title>
<g id="a_node2"><a xlink:href="../../d7/d2a/_higgs_kigen_8cpp.html" target="_top" xlink:title="HiggsKigen.cpp">
<polygon fill="none" stroke="#000000" points="0,-.5 0,-17.5 73,-17.5 73,-.5 0,-.5"/>
<text text-anchor="middle" x="36.5" y="-7.1" font-family="Helvetica,sans-Serif" font-size="8.00" fill="#000000">HiggsKigen.cpp</text>
</a>
</g>
</g>
<!-- Node50&#45;&gt;Node51 -->
<g id="edge1" class="edge">
<title>Node50&#45;&gt;Node51</title>
<path fill="none" stroke="#191970" d="M69.0792,-46.4314C60.8419,-36.9673 50.8461,-25.4827 44.1167,-17.7511"/>
<polygon fill="#191970" stroke="#191970" points="66.5336,-48.8378 75.7389,-54.083 71.8137,-44.2421 66.5336,-48.8378"/>
</g>
<!-- Node52 -->
<g id="node3" class="node">
<title>Node52</title>
<g id="a_node3"><a xlink:href="../../d3/df6/_model_factory_8cpp.html" target="_top" xlink:title="ModelFactory.cpp">
<polygon fill="none" stroke="#000000" points="91.5,-.5 91.5,-17.5 171.5,-17.5 171.5,-.5 91.5,-.5"/>
<text text-anchor="middle" x="131.5" y="-7.1" font-family="Helvetica,sans-Serif" font-size="8.00" fill="#000000">ModelFactory.cpp</text>
</a>
</g>
</g>
<!-- Node50&#45;&gt;Node52 -->
<g id="edge2" class="edge">
<title>Node50&#45;&gt;Node52</title>
<path fill="none" stroke="#191970" d="M98.2277,-46.4314C106.6401,-36.9673 116.8487,-25.4827 123.7213,-17.7511"/>
<polygon fill="#191970" stroke="#191970" points="95.454,-44.2836 91.4262,-54.083 100.6858,-48.9342 95.454,-44.2836"/>
</g>
</g>
</svg>
