<?xml version="1.0" encoding="UTF-8" standalone="no"?>
<!DOCTYPE svg PUBLIC "-//W3C//DTD SVG 1.1//EN"
 "http://www.w3.org/Graphics/SVG/1.1/DTD/svg11.dtd">
<!-- Generated by graphviz version 2.38.0 (20140413.2041)
 -->
<!-- Title: Betas_JPsiPhi.h Pages: 1 -->
<svg width="204pt" height="134pt"
 viewBox="0.00 0.00 204.00 134.00" xmlns="http://www.w3.org/2000/svg" xmlns:xlink="http://www.w3.org/1999/xlink">
<g id="graph0" class="graph" transform="scale(1 1) rotate(0) translate(4 130)">
<title>Betas_JPsiPhi.h</title>
<!-- Node1 -->
<g id="node1" class="node"><title>Node1</title>
<polygon fill="#bfbfbf" stroke="black" points="57,-108.5 57,-125.5 132,-125.5 132,-108.5 57,-108.5"/>
<text text-anchor="middle" x="94.5" y="-115.1" font-family="Helvetica,sans-Serif" font-size="8.00">Betas_JPsiPhi.h</text>
</g>
<!-- Node2 -->
<g id="node2" class="node"><title>Node2</title>
<g id="a_node2"><a xlink:href="../../dd/dd8/_betas___j_psi_phi_8cpp.html" target="_top" xlink:title="Betas_JPsiPhi.cpp">
<polygon fill="none" stroke="black" points="0,-54.5 0,-71.5 83,-71.5 83,-54.5 0,-54.5"/>
<text text-anchor="middle" x="41.5" y="-61.1" font-family="Helvetica,sans-Serif" font-size="8.00">Betas_JPsiPhi.cpp</text>
</a>
</g>
</g>
<!-- Node1&#45;&gt;Node2 -->
<g id="edge1" class="edge"><title>Node1&#45;&gt;Node2</title>
<path fill="none" stroke="midnightblue" d="M79.5067,-101.29C69.695,-91.663 57.2714,-79.4739 49.3524,-71.7043"/>
<polygon fill="midnightblue" stroke="midnightblue" points="77.0903,-103.822 86.6797,-108.327 81.9928,-98.8254 77.0903,-103.822"/>
</g>
<!-- Node3 -->
<g id="node3" class="node"><title>Node3</title>
<g id="a_node3"><a xlink:href="../../df/d7a/_flavour_observables_8h.html" target="_top" xlink:title="FlavourObservables.h">
<polygon fill="none" stroke="black" points="101,-54.5 101,-71.5 196,-71.5 196,-54.5 101,-54.5"/>
<text text-anchor="middle" x="148.5" y="-61.1" font-family="Helvetica,sans-Serif" font-size="8.00">FlavourObservables.h</text>
</a>
</g>
</g>
<!-- Node1&#45;&gt;Node3 -->
<g id="edge2" class="edge"><title>Node1&#45;&gt;Node3</title>
<path fill="none" stroke="midnightblue" d="M109.776,-101.29C119.773,-91.663 132.431,-79.4739 140.499,-71.7043"/>
<polygon fill="midnightblue" stroke="midnightblue" points="107.243,-98.8696 102.468,-108.327 112.099,-103.912 107.243,-98.8696"/>
</g>
<!-- Node4 -->
<g id="node4" class="node"><title>Node4</title>
<g id="a_node4"><a xlink:href="../../d1/de2/_th_obs_factory_8cpp.html" target="_top" xlink:title="ThObsFactory.cpp">
<polygon fill="none" stroke="black" points="107.5,-0.5 107.5,-17.5 189.5,-17.5 189.5,-0.5 107.5,-0.5"/>
<text text-anchor="middle" x="148.5" y="-7.1" font-family="Helvetica,sans-Serif" font-size="8.00">ThObsFactory.cpp</text>
</a>
</g>
</g>
<!-- Node3&#45;&gt;Node4 -->
<g id="edge3" class="edge"><title>Node3&#45;&gt;Node4</title>
<path fill="none" stroke="midnightblue" d="M148.5,-44.0621C148.5,-35.0603 148.5,-24.6277 148.5,-17.7043"/>
<polygon fill="midnightblue" stroke="midnightblue" points="145,-44.3272 148.5,-54.3272 152,-44.3273 145,-44.3272"/>
</g>
</g>
</svg>
