<?xml version="1.0" encoding="UTF-8" standalone="no"?>
<!DOCTYPE svg PUBLIC "-//W3C//DTD SVG 1.1//EN"
 "http://www.w3.org/Graphics/SVG/1.1/DTD/svg11.dtd">
<!-- Generated by graphviz version 2.38.0 (20140413.2041)
 -->
<!-- Title: CorrelatedGaussianParameters.cpp Pages: 1 -->
<svg width="567pt" height="134pt"
 viewBox="0.00 0.00 566.50 134.00" xmlns="http://www.w3.org/2000/svg" xmlns:xlink="http://www.w3.org/1999/xlink">
<g id="graph0" class="graph" transform="scale(1 1) rotate(0) translate(4 130)">
<title>CorrelatedGaussianParameters.cpp</title>
<!-- Node1 -->
<g id="node1" class="node"><title>Node1</title>
<polygon fill="#bfbfbf" stroke="black" points="137.5,-108.5 137.5,-125.5 281.5,-125.5 281.5,-108.5 137.5,-108.5"/>
<text text-anchor="middle" x="209.5" y="-115.1" font-family="Helvetica,sans-Serif" font-size="8.00">CorrelatedGaussianParameters.cpp</text>
</g>
<!-- Node2 -->
<g id="node2" class="node"><title>Node2</title>
<polygon fill="none" stroke="#bfbfbf" points="0,-54.5 0,-71.5 51,-71.5 51,-54.5 0,-54.5"/>
<text text-anchor="middle" x="25.5" y="-61.1" font-family="Helvetica,sans-Serif" font-size="8.00">stdexcept</text>
</g>
<!-- Node1&#45;&gt;Node2 -->
<g id="edge1" class="edge"><title>Node1&#45;&gt;Node2</title>
<path fill="none" stroke="midnightblue" d="M182.745,-108.439C150.631,-99.3631 96.6654,-84.112 61.0674,-74.0516"/>
<polygon fill="midnightblue" stroke="midnightblue" points="61.676,-70.5866 51.101,-71.2351 59.7723,-77.3228 61.676,-70.5866"/>
</g>
<!-- Node3 -->
<g id="node3" class="node"><title>Node3</title>
<polygon fill="none" stroke="#bfbfbf" points="69.5,-54.5 69.5,-71.5 107.5,-71.5 107.5,-54.5 69.5,-54.5"/>
<text text-anchor="middle" x="88.5" y="-61.1" font-family="Helvetica,sans-Serif" font-size="8.00">vector</text>
</g>
<!-- Node1&#45;&gt;Node3 -->
<g id="edge2" class="edge"><title>Node1&#45;&gt;Node3</title>
<path fill="none" stroke="midnightblue" d="M191.906,-108.439C171.832,-99.8123 138.776,-85.6064 115.451,-75.5821"/>
<polygon fill="midnightblue" stroke="midnightblue" points="116.685,-72.3032 106.116,-71.5704 113.921,-78.7344 116.685,-72.3032"/>
</g>
<!-- Node4 -->
<g id="node4" class="node"><title>Node4</title>
<polygon fill="none" stroke="#bfbfbf" points="126,-54.5 126,-71.5 169,-71.5 169,-54.5 126,-54.5"/>
<text text-anchor="middle" x="147.5" y="-61.1" font-family="Helvetica,sans-Serif" font-size="8.00">fstream</text>
</g>
<!-- Node1&#45;&gt;Node4 -->
<g id="edge3" class="edge"><title>Node1&#45;&gt;Node4</title>
<path fill="none" stroke="midnightblue" d="M200.352,-108.327C190.919,-100.416 175.995,-87.8986 164.407,-78.1802"/>
<polygon fill="midnightblue" stroke="midnightblue" points="166.597,-75.4487 156.686,-71.7043 162.099,-80.8121 166.597,-75.4487"/>
</g>
<!-- Node5 -->
<g id="node5" class="node"><title>Node5</title>
<polygon fill="none" stroke="#bfbfbf" points="187,-54.5 187,-71.5 232,-71.5 232,-54.5 187,-54.5"/>
<text text-anchor="middle" x="209.5" y="-61.1" font-family="Helvetica,sans-Serif" font-size="8.00">sstream</text>
</g>
<!-- Node1&#45;&gt;Node5 -->
<g id="edge4" class="edge"><title>Node1&#45;&gt;Node5</title>
<path fill="none" stroke="midnightblue" d="M209.5,-108.327C209.5,-101.414 209.5,-90.985 209.5,-81.9789"/>
<polygon fill="midnightblue" stroke="midnightblue" points="213,-81.7042 209.5,-71.7043 206,-81.7043 213,-81.7042"/>
</g>
<!-- Node6 -->
<g id="node6" class="node"><title>Node6</title>
<polygon fill="none" stroke="#bfbfbf" points="250,-54.5 250,-71.5 291,-71.5 291,-54.5 250,-54.5"/>
<text text-anchor="middle" x="270.5" y="-61.1" font-family="Helvetica,sans-Serif" font-size="8.00">math.h</text>
</g>
<!-- Node1&#45;&gt;Node6 -->
<g id="edge5" class="edge"><title>Node1&#45;&gt;Node6</title>
<path fill="none" stroke="midnightblue" d="M218.501,-108.327C227.691,-100.493 242.18,-88.1412 253.533,-78.4641"/>
<polygon fill="midnightblue" stroke="midnightblue" points="256.123,-80.8552 261.462,-71.7043 251.582,-75.5281 256.123,-80.8552"/>
</g>
<!-- Node7 -->
<g id="node7" class="node"><title>Node7</title>
<polygon fill="none" stroke="#bfbfbf" points="309,-54.5 309,-71.5 404,-71.5 404,-54.5 309,-54.5"/>
<text text-anchor="middle" x="356.5" y="-61.1" font-family="Helvetica,sans-Serif" font-size="8.00">boost/lexical_cast.hpp</text>
</g>
<!-- Node1&#45;&gt;Node7 -->
<g id="edge6" class="edge"><title>Node1&#45;&gt;Node7</title>
<path fill="none" stroke="midnightblue" d="M230.875,-108.439C255.806,-99.6197 297.221,-84.9694 325.638,-74.9171"/>
<polygon fill="midnightblue" stroke="midnightblue" points="326.839,-78.205 335.099,-71.5704 324.504,-71.6057 326.839,-78.205"/>
</g>
<!-- Node8 -->
<g id="node8" class="node"><title>Node8</title>
<g id="a_node8"><a xlink:href="../../d7/d01/_correlated_gaussian_parameters_8h.html" target="_top" xlink:title="CorrelatedGaussianParameters.h">
<polygon fill="none" stroke="black" points="422.5,-54.5 422.5,-71.5 558.5,-71.5 558.5,-54.5 422.5,-54.5"/>
<text text-anchor="middle" x="490.5" y="-61.1" font-family="Helvetica,sans-Serif" font-size="8.00">CorrelatedGaussianParameters.h</text>
</a>
</g>
</g>
<!-- Node1&#45;&gt;Node8 -->
<g id="edge7" class="edge"><title>Node1&#45;&gt;Node8</title>
<path fill="none" stroke="midnightblue" d="M250.06,-108.494C300.177,-99.2199 385.471,-83.436 439.843,-73.3743"/>
<polygon fill="midnightblue" stroke="midnightblue" points="440.756,-76.7647 449.953,-71.5034 439.483,-69.8816 440.756,-76.7647"/>
</g>
<!-- Node9 -->
<g id="node9" class="node"><title>Node9</title>
<g id="a_node9"><a xlink:href="../../d0/d94/_model_parameter_8h.html" target="_top" xlink:title="ModelParameter.h">
<polygon fill="none" stroke="red" points="409.5,-0.5 409.5,-17.5 491.5,-17.5 491.5,-0.5 409.5,-0.5"/>
<text text-anchor="middle" x="450.5" y="-7.1" font-family="Helvetica,sans-Serif" font-size="8.00">ModelParameter.h</text>
</a>
</g>
</g>
<!-- Node8&#45;&gt;Node9 -->
<g id="edge8" class="edge"><title>Node8&#45;&gt;Node9</title>
<path fill="none" stroke="midnightblue" d="M484.598,-54.3272C478.867,-46.8768 469.993,-35.3413 462.735,-25.9056"/>
<polygon fill="midnightblue" stroke="midnightblue" points="465.298,-23.4965 456.426,-17.7043 459.749,-27.7645 465.298,-23.4965"/>
</g>
<!-- Node10 -->
<g id="node10" class="node"><title>Node10</title>
<g id="a_node10"><a xlink:href="../../d9/d72/gslpp_8h.html" target="_top" xlink:title="gslpp.h">
<polygon fill="none" stroke="red" points="509.5,-0.5 509.5,-17.5 551.5,-17.5 551.5,-0.5 509.5,-0.5"/>
<text text-anchor="middle" x="530.5" y="-7.1" font-family="Helvetica,sans-Serif" font-size="8.00">gslpp.h</text>
</a>
</g>
</g>
<!-- Node8&#45;&gt;Node10 -->
<g id="edge9" class="edge"><title>Node8&#45;&gt;Node10</title>
<path fill="none" stroke="midnightblue" d="M496.402,-54.3272C502.133,-46.8768 511.007,-35.3413 518.265,-25.9056"/>
<polygon fill="midnightblue" stroke="midnightblue" points="521.251,-27.7645 524.574,-17.7043 515.702,-23.4965 521.251,-27.7645"/>
</g>
</g>
</svg>
