<?xml version="1.0" encoding="UTF-8" standalone="no"?>
<!DOCTYPE svg PUBLIC "-//W3C//DTD SVG 1.1//EN"
 "http://www.w3.org/Graphics/SVG/1.1/DTD/svg11.dtd">
<!-- Generated by graphviz version 2.38.0 (20140413.2041)
 -->
<!-- Title: Abottom.h Pages: 1 -->
<svg width="169pt" height="134pt"
 viewBox="0.00 0.00 168.50 134.00" xmlns="http://www.w3.org/2000/svg" xmlns:xlink="http://www.w3.org/1999/xlink">
<g id="graph0" class="graph" transform="scale(1 1) rotate(0) translate(4 130)">
<title>Abottom.h</title>
<!-- Node1 -->
<g id="node1" class="node"><title>Node1</title>
<polygon fill="#bfbfbf" stroke="black" points="48,-108.5 48,-125.5 101,-125.5 101,-108.5 48,-108.5"/>
<text text-anchor="middle" x="74.5" y="-115.1" font-family="Helvetica,sans-Serif" font-size="8.00">Abottom.h</text>
</g>
<!-- Node2 -->
<g id="node2" class="node"><title>Node2</title>
<g id="a_node2"><a xlink:href="../../dd/d0f/_abottom_8cpp.html" target="_top" xlink:title="Abottom.cpp">
<polygon fill="none" stroke="black" points="0,-54.5 0,-71.5 61,-71.5 61,-54.5 0,-54.5"/>
<text text-anchor="middle" x="30.5" y="-61.1" font-family="Helvetica,sans-Serif" font-size="8.00">Abottom.cpp</text>
</a>
</g>
</g>
<!-- Node1&#45;&gt;Node2 -->
<g id="edge1" class="edge"><title>Node1&#45;&gt;Node2</title>
<path fill="none" stroke="midnightblue" d="M61.3213,-100.425C53.2977,-90.9428 43.398,-79.2431 37.019,-71.7043"/>
<polygon fill="midnightblue" stroke="midnightblue" points="58.8763,-102.954 68.0076,-108.327 64.2201,-98.4325 58.8763,-102.954"/>
</g>
<!-- Node3 -->
<g id="node3" class="node"><title>Node3</title>
<g id="a_node3"><a xlink:href="../../dd/df3/_e_w_observables_8h.html" target="_top" xlink:title="A header file for the observables defined in EW module. ">
<polygon fill="none" stroke="black" points="79,-54.5 79,-71.5 160,-71.5 160,-54.5 79,-54.5"/>
<text text-anchor="middle" x="119.5" y="-61.1" font-family="Helvetica,sans-Serif" font-size="8.00">EWObservables.h</text>
</a>
</g>
</g>
<!-- Node1&#45;&gt;Node3 -->
<g id="edge2" class="edge"><title>Node1&#45;&gt;Node3</title>
<path fill="none" stroke="midnightblue" d="M87.7276,-100.715C95.9771,-91.182 106.242,-79.32 112.833,-71.7043"/>
<polygon fill="midnightblue" stroke="midnightblue" points="85.0371,-98.4752 81.1399,-108.327 90.3303,-103.056 85.0371,-98.4752"/>
</g>
<!-- Node4 -->
<g id="node4" class="node"><title>Node4</title>
<g id="a_node4"><a xlink:href="../../d1/de2/_th_obs_factory_8cpp.html" target="_top" xlink:title="ThObsFactory.cpp">
<polygon fill="none" stroke="black" points="78.5,-0.5 78.5,-17.5 160.5,-17.5 160.5,-0.5 78.5,-0.5"/>
<text text-anchor="middle" x="119.5" y="-7.1" font-family="Helvetica,sans-Serif" font-size="8.00">ThObsFactory.cpp</text>
</a>
</g>
</g>
<!-- Node3&#45;&gt;Node4 -->
<g id="edge3" class="edge"><title>Node3&#45;&gt;Node4</title>
<path fill="none" stroke="midnightblue" d="M119.5,-44.0621C119.5,-35.0603 119.5,-24.6277 119.5,-17.7043"/>
<polygon fill="midnightblue" stroke="midnightblue" points="116,-44.3272 119.5,-54.3272 123,-44.3273 116,-44.3272"/>
</g>
</g>
</svg>
