<?xml version="1.0" encoding="UTF-8" standalone="no"?>
<!DOCTYPE svg PUBLIC "-//W3C//DTD SVG 1.1//EN"
 "http://www.w3.org/Graphics/SVG/1.1/DTD/svg11.dtd">
<!-- Generated by graphviz version 2.40.1 (20161225.0304)
 -->
<!-- Title: hpl.h Pages: 1 -->
<svg width="116pt" height="80pt"
 viewBox="0.00 0.00 116.00 80.00" xmlns="http://www.w3.org/2000/svg" xmlns:xlink="http://www.w3.org/1999/xlink">
<g id="graph0" class="graph" transform="scale(1 1) rotate(0) translate(4 76)">
<title>hpl.h</title>
<!-- Node4 -->
<g id="node1" class="node">
<title>Node4</title>
<polygon fill="#bfbfbf" stroke="#000000" points="36.5,-54.5 36.5,-71.5 70.5,-71.5 70.5,-54.5 36.5,-54.5"/>
<text text-anchor="middle" x="53.5" y="-61.1" font-family="Helvetica,sans-Serif" font-size="8.00" fill="#000000">hpl.h</text>
</g>
<!-- Node5 -->
<g id="node2" class="node">
<title>Node5</title>
<g id="a_node2"><a xlink:href="../../dd/df1/_f__1_8cpp.html" target="_top" xlink:title="F_1.cpp">
<polygon fill="none" stroke="#000000" points="0,-.5 0,-17.5 45,-17.5 45,-.5 0,-.5"/>
<text text-anchor="middle" x="22.5" y="-7.1" font-family="Helvetica,sans-Serif" font-size="8.00" fill="#000000">F_1.cpp</text>
</a>
</g>
</g>
<!-- Node4&#45;&gt;Node5 -->
<g id="edge1" class="edge">
<title>Node4&#45;&gt;Node5</title>
<path fill="none" stroke="#191970" d="M43.3244,-45.2747C38.0261,-36.0454 31.783,-25.1703 27.5238,-17.7511"/>
<polygon fill="#191970" stroke="#191970" points="40.3669,-47.153 48.381,-54.083 46.4376,-43.6679 40.3669,-47.153"/>
</g>
<!-- Node6 -->
<g id="node3" class="node">
<title>Node6</title>
<g id="a_node3"><a xlink:href="../../dd/d0c/_f__2_8cpp.html" target="_top" xlink:title="F_2.cpp">
<polygon fill="none" stroke="#000000" points="63,-.5 63,-17.5 108,-17.5 108,-.5 63,-.5"/>
<text text-anchor="middle" x="85.5" y="-7.1" font-family="Helvetica,sans-Serif" font-size="8.00" fill="#000000">F_2.cpp</text>
</a>
</g>
</g>
<!-- Node4&#45;&gt;Node6 -->
<g id="edge2" class="edge">
<title>Node4&#45;&gt;Node6</title>
<path fill="none" stroke="#191970" d="M64.0039,-45.2747C69.4731,-36.0454 75.9176,-25.1703 80.3142,-17.7511"/>
<polygon fill="#191970" stroke="#191970" points="60.8712,-43.6957 58.7841,-54.083 66.8932,-47.2644 60.8712,-43.6957"/>
</g>
</g>
</svg>
