<?xml version="1.0" encoding="UTF-8" standalone="no"?>
<!DOCTYPE svg PUBLIC "-//W3C//DTD SVG 1.1//EN"
 "http://www.w3.org/Graphics/SVG/1.1/DTD/svg11.dtd">
<!-- Generated by graphviz version 2.40.1 (20161225.0304)
 -->
<!-- Title: NPSMEFTd6Matching.cpp Pages: 1 -->
<svg width="476pt" height="296pt"
 viewBox="0.00 0.00 475.78 296.00" xmlns="http://www.w3.org/2000/svg" xmlns:xlink="http://www.w3.org/1999/xlink">
<g id="graph0" class="graph" transform="scale(1 1) rotate(0) translate(4 292)">
<title>NPSMEFTd6Matching.cpp</title>
<!-- Node0 -->
<g id="node1" class="node">
<title>Node0</title>
<polygon fill="#bfbfbf" stroke="#000000" points="181.7807,-270.5 181.7807,-287.5 292.7807,-287.5 292.7807,-270.5 181.7807,-270.5"/>
<text text-anchor="middle" x="237.2807" y="-277.1" font-family="Helvetica,sans-Serif" font-size="8.00" fill="#000000">NPSMEFTd6Matching.cpp</text>
</g>
<!-- Node1 -->
<g id="node2" class="node">
<title>Node1</title>
<g id="a_node2"><a xlink:href="../../d2/d96/_n_p_s_m_e_f_td6_matching_8h.html" target="_top" xlink:title="NPSMEFTd6Matching.h">
<polygon fill="none" stroke="#000000" points="17.7807,-162.5 17.7807,-179.5 120.7807,-179.5 120.7807,-162.5 17.7807,-162.5"/>
<text text-anchor="middle" x="69.2807" y="-169.1" font-family="Helvetica,sans-Serif" font-size="8.00" fill="#000000">NPSMEFTd6Matching.h</text>
</a>
</g>
</g>
<!-- Node0&#45;&gt;Node1 -->
<g id="edge1" class="edge">
<title>Node0&#45;&gt;Node1</title>
<path fill="none" stroke="#191970" d="M223.8166,-270.3445C194.9404,-251.7812 126.8174,-207.9878 91.4534,-185.2539"/>
<polygon fill="#191970" stroke="#191970" points="93.1135,-182.1602 82.809,-179.6968 89.3282,-188.0485 93.1135,-182.1602"/>
</g>
<!-- Node41 -->
<g id="node6" class="node">
<title>Node41</title>
<g id="a_node6"><a xlink:href="../../df/d4e/_n_p_s_m_e_f_td6_8h.html" target="_top" xlink:title="NPSMEFTd6.h">
<polygon fill="none" stroke="#000000" points="202.2807,-216.5 202.2807,-233.5 272.2807,-233.5 272.2807,-216.5 202.2807,-216.5"/>
<text text-anchor="middle" x="237.2807" y="-223.1" font-family="Helvetica,sans-Serif" font-size="8.00" fill="#000000">NPSMEFTd6.h</text>
</a>
</g>
</g>
<!-- Node0&#45;&gt;Node41 -->
<g id="edge6" class="edge">
<title>Node0&#45;&gt;Node41</title>
<path fill="none" stroke="#191970" d="M237.2807,-270.083C237.2807,-263.0059 237.2807,-252.8611 237.2807,-243.9865"/>
<polygon fill="#191970" stroke="#191970" points="240.7808,-243.751 237.2807,-233.7511 233.7808,-243.7511 240.7808,-243.751"/>
</g>
<!-- Node24 -->
<g id="node9" class="node">
<title>Node24</title>
<polygon fill="none" stroke="#bfbfbf" points="416.7807,-162.5 416.7807,-179.5 467.7807,-179.5 467.7807,-162.5 416.7807,-162.5"/>
<text text-anchor="middle" x="442.2807" y="-169.1" font-family="Helvetica,sans-Serif" font-size="8.00" fill="#000000">stdexcept</text>
</g>
<!-- Node0&#45;&gt;Node24 -->
<g id="edge13" class="edge">
<title>Node0&#45;&gt;Node24</title>
<path fill="none" stroke="#191970" d="M253.7102,-270.3445C289.4842,-251.4977 374.6227,-206.6443 417.1737,-184.2271"/>
<polygon fill="#191970" stroke="#191970" points="418.8416,-187.3045 426.0576,-179.5468 415.5789,-181.1113 418.8416,-187.3045"/>
</g>
<!-- Node2 -->
<g id="node3" class="node">
<title>Node2</title>
<g id="a_node3"><a xlink:href="../../d9/d72/gslpp_8h.html" target="_top" xlink:title="gslpp.h">
<polygon fill="none" stroke="#ff0000" points="46.2807,-54.5 46.2807,-71.5 88.2807,-71.5 88.2807,-54.5 46.2807,-54.5"/>
<text text-anchor="middle" x="67.2807" y="-61.1" font-family="Helvetica,sans-Serif" font-size="8.00" fill="#000000">gslpp.h</text>
</a>
</g>
</g>
<!-- Node1&#45;&gt;Node2 -->
<g id="edge2" class="edge">
<title>Node1&#45;&gt;Node2</title>
<path fill="none" stroke="#191970" d="M46.8222,-162.3822C31.5114,-155.1837 12.4176,-143.2883 3.2807,-126 -7.5559,-105.4956 15.8088,-87.5492 37.2878,-76.1109"/>
<polygon fill="#191970" stroke="#191970" points="38.8934,-79.2213 46.2725,-71.6188 35.7629,-72.9603 38.8934,-79.2213"/>
</g>
<!-- Node18 -->
<g id="node5" class="node">
<title>Node18</title>
<g id="a_node5"><a xlink:href="../../d6/d16/_standard_model_matching_8h.html" target="_top" xlink:title="StandardModelMatching.h">
<polygon fill="none" stroke="#ff0000" points="12.2807,-108.5 12.2807,-125.5 122.2807,-125.5 122.2807,-108.5 12.2807,-108.5"/>
<text text-anchor="middle" x="67.2807" y="-115.1" font-family="Helvetica,sans-Serif" font-size="8.00" fill="#000000">StandardModelMatching.h</text>
</a>
</g>
</g>
<!-- Node1&#45;&gt;Node18 -->
<g id="edge4" class="edge">
<title>Node1&#45;&gt;Node18</title>
<path fill="none" stroke="#191970" d="M68.9505,-162.083C68.6884,-155.0059 68.3126,-144.8611 67.9839,-135.9865"/>
<polygon fill="#191970" stroke="#191970" points="71.4727,-135.6147 67.6049,-125.7511 64.4775,-135.8738 71.4727,-135.6147"/>
</g>
<!-- Node3 -->
<g id="node4" class="node">
<title>Node3</title>
<g id="a_node4"><a xlink:href="../../d1/dc2/gslpp__complex_8h.html" target="_top" xlink:title="gslpp_complex.h">
<polygon fill="none" stroke="#ff0000" points="28.7807,-.5 28.7807,-17.5 105.7807,-17.5 105.7807,-.5 28.7807,-.5"/>
<text text-anchor="middle" x="67.2807" y="-7.1" font-family="Helvetica,sans-Serif" font-size="8.00" fill="#000000">gslpp_complex.h</text>
</a>
</g>
</g>
<!-- Node2&#45;&gt;Node3 -->
<g id="edge3" class="edge">
<title>Node2&#45;&gt;Node3</title>
<path fill="none" stroke="#191970" d="M67.2807,-54.083C67.2807,-47.0059 67.2807,-36.8611 67.2807,-27.9865"/>
<polygon fill="#191970" stroke="#191970" points="70.7808,-27.751 67.2807,-17.7511 63.7808,-27.7511 70.7808,-27.751"/>
</g>
<!-- Node18&#45;&gt;Node2 -->
<g id="edge5" class="edge">
<title>Node18&#45;&gt;Node2</title>
<path fill="none" stroke="#191970" d="M67.2807,-108.083C67.2807,-101.0059 67.2807,-90.8611 67.2807,-81.9865"/>
<polygon fill="#191970" stroke="#191970" points="70.7808,-81.751 67.2807,-71.7511 63.7808,-81.7511 70.7808,-81.751"/>
</g>
<!-- Node41&#45;&gt;Node1 -->
<g id="edge9" class="edge">
<title>Node41&#45;&gt;Node1</title>
<path fill="none" stroke="#191970" d="M210.6606,-216.4435C182.2751,-207.3196 137.1442,-192.8133 105.528,-182.6509"/>
<polygon fill="#191970" stroke="#191970" points="106.3676,-179.2445 95.7763,-179.5164 104.2255,-185.9087 106.3676,-179.2445"/>
</g>
<!-- Node41&#45;&gt;Node2 -->
<g id="edge7" class="edge">
<title>Node41&#45;&gt;Node2</title>
<path fill="none" stroke="#191970" d="M219.5879,-216.4957C204.7097,-208.6537 183.6298,-195.8446 169.2807,-180 144.9923,-153.1801 155.1884,-135.1599 131.2807,-108 120.3036,-95.5296 105.2062,-84.7031 92.4314,-76.7963"/>
<polygon fill="#191970" stroke="#191970" points="94.0178,-73.6678 83.6321,-71.5731 90.4448,-79.6872 94.0178,-73.6678"/>
</g>
<!-- Node42 -->
<g id="node7" class="node">
<title>Node42</title>
<g id="a_node7"><a xlink:href="../../d2/de8/_n_pbase_8h.html" target="_top" xlink:title="NPbase.h">
<polygon fill="none" stroke="#ff0000" points="178.2807,-162.5 178.2807,-179.5 230.2807,-179.5 230.2807,-162.5 178.2807,-162.5"/>
<text text-anchor="middle" x="204.2807" y="-169.1" font-family="Helvetica,sans-Serif" font-size="8.00" fill="#000000">NPbase.h</text>
</a>
</g>
</g>
<!-- Node41&#45;&gt;Node42 -->
<g id="edge8" class="edge">
<title>Node41&#45;&gt;Node42</title>
<path fill="none" stroke="#191970" d="M231.8315,-216.083C227.2663,-208.6127 220.6123,-197.7244 214.9873,-188.5199"/>
<polygon fill="#191970" stroke="#191970" points="217.8297,-186.4588 209.6286,-179.7511 211.8567,-190.109 217.8297,-186.4588"/>
</g>
<!-- Node52 -->
<g id="node8" class="node">
<title>Node52</title>
<polygon fill="none" stroke="#bfbfbf" points="248.7807,-162.5 248.7807,-179.5 291.7807,-179.5 291.7807,-162.5 248.7807,-162.5"/>
<text text-anchor="middle" x="270.2807" y="-169.1" font-family="Helvetica,sans-Serif" font-size="8.00" fill="#000000">string.h</text>
</g>
<!-- Node41&#45;&gt;Node52 -->
<g id="edge10" class="edge">
<title>Node41&#45;&gt;Node52</title>
<path fill="none" stroke="#191970" d="M242.73,-216.083C247.2952,-208.6127 253.9491,-197.7244 259.5742,-188.5199"/>
<polygon fill="#191970" stroke="#191970" points="262.7048,-190.109 264.9329,-179.7511 256.7318,-186.4588 262.7048,-190.109"/>
</g>
<!-- Node41&#45;&gt;Node24 -->
<g id="edge11" class="edge">
<title>Node41&#45;&gt;Node24</title>
<path fill="none" stroke="#191970" d="M269.7636,-216.4435C307.1769,-206.5883 368.4302,-190.4533 406.99,-180.2961"/>
<polygon fill="#191970" stroke="#191970" points="407.9718,-183.6569 416.7504,-177.7251 406.1887,-176.8878 407.9718,-183.6569"/>
</g>
<!-- Node51 -->
<g id="node10" class="node">
<title>Node51</title>
<polygon fill="none" stroke="#bfbfbf" points="310.2807,-162.5 310.2807,-179.5 398.2807,-179.5 398.2807,-162.5 310.2807,-162.5"/>
<text text-anchor="middle" x="354.2807" y="-169.1" font-family="Helvetica,sans-Serif" font-size="8.00" fill="#000000">gsl/gsl_integration.h</text>
</g>
<!-- Node41&#45;&gt;Node51 -->
<g id="edge12" class="edge">
<title>Node41&#45;&gt;Node51</title>
<path fill="none" stroke="#191970" d="M255.8197,-216.4435C274.9036,-207.6356 304.8557,-193.8116 326.7165,-183.722"/>
<polygon fill="#191970" stroke="#191970" points="328.2156,-186.8849 335.8285,-179.5164 325.2822,-180.5292 328.2156,-186.8849"/>
</g>
</g>
</svg>
