<?xml version="1.0" encoding="UTF-8" standalone="no"?>
<!DOCTYPE svg PUBLIC "-//W3C//DTD SVG 1.1//EN"
 "http://www.w3.org/Graphics/SVG/1.1/DTD/svg11.dtd">
<!-- Generated by graphviz version 2.40.1 (20161225.0304)
 -->
<!-- Title: FlavourWilsonCoefficient.h Pages: 1 -->
<svg width="350pt" height="89pt"
 viewBox="0.00 0.00 350.00 89.00" xmlns="http://www.w3.org/2000/svg" xmlns:xlink="http://www.w3.org/1999/xlink">
<g id="graph0" class="graph" transform="scale(1 1) rotate(0) translate(4 85)">
<title>FlavourWilsonCoefficient.h</title>
<!-- Node50 -->
<g id="node1" class="node">
<title>Node50</title>
<polygon fill="#bfbfbf" stroke="#000000" points="135,-63.5 135,-80.5 247,-80.5 247,-63.5 135,-63.5"/>
<text text-anchor="middle" x="191" y="-70.1" font-family="Helvetica,sans-Serif" font-size="8.00" fill="#000000">FlavourWilsonCoefficient.h</text>
</g>
<!-- Node51 -->
<g id="node2" class="node">
<title>Node51</title>
<g id="a_node2"><a xlink:href="../../d2/d24/_flavour_wilson_coefficient_8cpp.html" target="_top" xlink:title="FlavourWilsonCoefficient.cpp">
<polygon fill="none" stroke="#000000" points="0,-5 0,-22 120,-22 120,-5 0,-5"/>
<text text-anchor="middle" x="60" y="-11.6" font-family="Helvetica,sans-Serif" font-size="8.00" fill="#000000">FlavourWilsonCoefficient.cpp</text>
</a>
</g>
</g>
<!-- Node50&#45;&gt;Node51 -->
<g id="edge1" class="edge">
<title>Node50&#45;&gt;Node51</title>
<path fill="none" stroke="#191970" d="M162.5225,-59.283C137.2429,-47.9939 101.0077,-31.8126 79.0715,-22.0167"/>
<polygon fill="#191970" stroke="#191970" points="161.3934,-62.6118 171.9515,-63.4936 164.2477,-56.2202 161.3934,-62.6118"/>
</g>
<!-- Node52 -->
<g id="node3" class="node">
<title>Node52</title>
<g id="a_node3"><a xlink:href="../../df/d4d/_flavour_wilson_coefficient_matching_8cpp.html" target="_top" xlink:title="FlavourWilsonCoefficient\lMatching.cpp">
<polygon fill="none" stroke="#000000" points="138.5,-.5 138.5,-26.5 243.5,-26.5 243.5,-.5 138.5,-.5"/>
<text text-anchor="start" x="146.5" y="-16.1" font-family="Helvetica,sans-Serif" font-size="8.00" fill="#000000">FlavourWilsonCoefficient</text>
<text text-anchor="middle" x="191" y="-7.1" font-family="Helvetica,sans-Serif" font-size="8.00" fill="#000000">Matching.cpp</text>
</a>
</g>
</g>
<!-- Node50&#45;&gt;Node52 -->
<g id="edge2" class="edge">
<title>Node50&#45;&gt;Node52</title>
<path fill="none" stroke="#191970" d="M191,-53.1372C191,-44.5195 191,-34.5195 191,-26.7197"/>
<polygon fill="#191970" stroke="#191970" points="187.5001,-53.3681 191,-63.3681 194.5001,-53.3682 187.5001,-53.3681"/>
</g>
<!-- Node53 -->
<g id="node4" class="node">
<title>Node53</title>
<g id="a_node4"><a xlink:href="../../d3/df6/_model_factory_8cpp.html" target="_top" xlink:title="ModelFactory.cpp">
<polygon fill="none" stroke="#000000" points="262,-5 262,-22 342,-22 342,-5 262,-5"/>
<text text-anchor="middle" x="302" y="-11.6" font-family="Helvetica,sans-Serif" font-size="8.00" fill="#000000">ModelFactory.cpp</text>
</a>
</g>
</g>
<!-- Node50&#45;&gt;Node53 -->
<g id="edge3" class="edge">
<title>Node50&#45;&gt;Node53</title>
<path fill="none" stroke="#191970" d="M216.4726,-58.5752C237.7054,-47.385 267.3272,-31.7735 285.5544,-22.1673"/>
<polygon fill="#191970" stroke="#191970" points="214.5932,-55.6094 207.3784,-63.3681 217.8569,-61.802 214.5932,-55.6094"/>
</g>
</g>
</svg>
