<?xml version="1.0" encoding="UTF-8" standalone="no"?>
<!DOCTYPE svg PUBLIC "-//W3C//DTD SVG 1.1//EN"
 "http://www.w3.org/Graphics/SVG/1.1/DTD/svg11.dtd">
<!-- Generated by graphviz version 2.40.1 (20161225.0304)
 -->
<!-- Title: Msdown.h Pages: 1 -->
<svg width="329pt" height="296pt"
 viewBox="0.00 0.00 328.50 296.00" xmlns="http://www.w3.org/2000/svg" xmlns:xlink="http://www.w3.org/1999/xlink">
<g id="graph0" class="graph" transform="scale(1 1) rotate(0) translate(4 292)">
<title>Msdown.h</title>
<!-- Node0 -->
<g id="node1" class="node">
<title>Node0</title>
<polygon fill="#bfbfbf" stroke="#000000" points="85.5,-270.5 85.5,-287.5 138.5,-287.5 138.5,-270.5 85.5,-270.5"/>
<text text-anchor="middle" x="112" y="-277.1" font-family="Helvetica,sans-Serif" font-size="8.00" fill="#000000">Msdown.h</text>
</g>
<!-- Node1 -->
<g id="node2" class="node">
<title>Node1</title>
<g id="a_node2"><a xlink:href="../../dd/dcd/_th_observable_8h.html" target="_top" xlink:title="ThObservable.h">
<polygon fill="none" stroke="#000000" points="37.5,-216.5 37.5,-233.5 110.5,-233.5 110.5,-216.5 37.5,-216.5"/>
<text text-anchor="middle" x="74" y="-223.1" font-family="Helvetica,sans-Serif" font-size="8.00" fill="#000000">ThObservable.h</text>
</a>
</g>
</g>
<!-- Node0&#45;&gt;Node1 -->
<g id="edge1" class="edge">
<title>Node0&#45;&gt;Node1</title>
<path fill="none" stroke="#191970" d="M105.7251,-270.083C100.3575,-262.4554 92.4824,-251.2645 85.9213,-241.9408"/>
<polygon fill="#191970" stroke="#191970" points="88.7755,-239.9149 80.1582,-233.7511 83.0508,-243.9434 88.7755,-239.9149"/>
</g>
<!-- Node4 -->
<g id="node5" class="node">
<title>Node4</title>
<g id="a_node5"><a xlink:href="../../d5/d37/_s_u_s_y_8h.html" target="_top" xlink:title="SUSY.h">
<polygon fill="none" stroke="#000000" points="146.5,-216.5 146.5,-233.5 191.5,-233.5 191.5,-216.5 146.5,-216.5"/>
<text text-anchor="middle" x="169" y="-223.1" font-family="Helvetica,sans-Serif" font-size="8.00" fill="#000000">SUSY.h</text>
</a>
</g>
</g>
<!-- Node0&#45;&gt;Node4 -->
<g id="edge4" class="edge">
<title>Node0&#45;&gt;Node4</title>
<path fill="none" stroke="#191970" d="M121.158,-270.324C129.5015,-262.4196 142.0324,-250.5482 152.1769,-240.9377"/>
<polygon fill="#191970" stroke="#191970" points="154.8229,-243.2522 159.6753,-233.8339 150.0087,-238.1705 154.8229,-243.2522"/>
</g>
<!-- Node2 -->
<g id="node3" class="node">
<title>Node2</title>
<polygon fill="none" stroke="#bfbfbf" points="0,-162.5 0,-179.5 38,-179.5 38,-162.5 0,-162.5"/>
<text text-anchor="middle" x="19" y="-169.1" font-family="Helvetica,sans-Serif" font-size="8.00" fill="#000000">vector</text>
</g>
<!-- Node1&#45;&gt;Node2 -->
<g id="edge2" class="edge">
<title>Node1&#45;&gt;Node2</title>
<path fill="none" stroke="#191970" d="M64.9179,-216.083C56.8287,-208.1409 44.8046,-196.3354 35.0898,-186.7973"/>
<polygon fill="#191970" stroke="#191970" points="37.5009,-184.2595 27.9131,-179.7511 32.5967,-189.2545 37.5009,-184.2595"/>
</g>
<!-- Node3 -->
<g id="node4" class="node">
<title>Node3</title>
<polygon fill="none" stroke="#bfbfbf" points="56,-162.5 56,-179.5 92,-179.5 92,-162.5 56,-162.5"/>
<text text-anchor="middle" x="74" y="-169.1" font-family="Helvetica,sans-Serif" font-size="8.00" fill="#000000">string</text>
</g>
<!-- Node1&#45;&gt;Node3 -->
<g id="edge3" class="edge">
<title>Node1&#45;&gt;Node3</title>
<path fill="none" stroke="#191970" d="M74,-216.083C74,-209.0059 74,-198.8611 74,-189.9865"/>
<polygon fill="#191970" stroke="#191970" points="77.5001,-189.751 74,-179.7511 70.5001,-189.7511 77.5001,-189.751"/>
</g>
<!-- Node5 -->
<g id="node6" class="node">
<title>Node5</title>
<g id="a_node6"><a xlink:href="../../d9/d72/gslpp_8h.html" target="_top" xlink:title="gslpp.h">
<polygon fill="none" stroke="#ff0000" points="180,-108.5 180,-125.5 222,-125.5 222,-108.5 180,-108.5"/>
<text text-anchor="middle" x="201" y="-115.1" font-family="Helvetica,sans-Serif" font-size="8.00" fill="#000000">gslpp.h</text>
</a>
</g>
</g>
<!-- Node4&#45;&gt;Node5 -->
<g id="edge5" class="edge">
<title>Node4&#45;&gt;Node5</title>
<path fill="none" stroke="#191970" d="M159.6143,-216.3685C147.5354,-204.1645 129.2058,-181.2108 139,-162 146.0001,-148.2698 159.3657,-137.7496 171.9002,-130.3465"/>
<polygon fill="#191970" stroke="#191970" points="173.6737,-133.366 180.7774,-125.5055 170.3223,-127.2204 173.6737,-133.366"/>
</g>
<!-- Node21 -->
<g id="node9" class="node">
<title>Node21</title>
<g id="a_node9"><a xlink:href="../../d6/d0a/_standard_model_8h.html" target="_top" xlink:title="StandardModel.h">
<polygon fill="none" stroke="#ff0000" points="148.5,-162.5 148.5,-179.5 225.5,-179.5 225.5,-162.5 148.5,-162.5"/>
<text text-anchor="middle" x="187" y="-169.1" font-family="Helvetica,sans-Serif" font-size="8.00" fill="#000000">StandardModel.h</text>
</a>
</g>
</g>
<!-- Node4&#45;&gt;Node21 -->
<g id="edge9" class="edge">
<title>Node4&#45;&gt;Node21</title>
<path fill="none" stroke="#191970" d="M171.9723,-216.083C174.3838,-208.8486 177.8638,-198.4087 180.8677,-189.3968"/>
<polygon fill="#191970" stroke="#191970" points="184.241,-190.3447 184.083,-179.7511 177.6002,-188.1311 184.241,-190.3447"/>
</g>
<!-- Node51 -->
<g id="node10" class="node">
<title>Node51</title>
<g id="a_node10"><a xlink:href="../../dd/dc9/_s_u_s_y_matching_8h.html" target="_top" xlink:title="SUSYMatching.h">
<polygon fill="none" stroke="#ff0000" points="243.5,-162.5 243.5,-179.5 320.5,-179.5 320.5,-162.5 243.5,-162.5"/>
<text text-anchor="middle" x="282" y="-169.1" font-family="Helvetica,sans-Serif" font-size="8.00" fill="#000000">SUSYMatching.h</text>
</a>
</g>
</g>
<!-- Node4&#45;&gt;Node51 -->
<g id="edge10" class="edge">
<title>Node4&#45;&gt;Node51</title>
<path fill="none" stroke="#191970" d="M186.9052,-216.4435C205.254,-207.6751 234.0054,-193.9355 255.0936,-183.8579"/>
<polygon fill="#191970" stroke="#191970" points="256.665,-186.9862 264.1786,-179.5164 253.6468,-180.6703 256.665,-186.9862"/>
</g>
<!-- Node6 -->
<g id="node7" class="node">
<title>Node6</title>
<g id="a_node7"><a xlink:href="../../d1/dc2/gslpp__complex_8h.html" target="_top" xlink:title="gslpp_complex.h">
<polygon fill="none" stroke="#ff0000" points="162.5,-.5 162.5,-17.5 239.5,-17.5 239.5,-.5 162.5,-.5"/>
<text text-anchor="middle" x="201" y="-7.1" font-family="Helvetica,sans-Serif" font-size="8.00" fill="#000000">gslpp_complex.h</text>
</a>
</g>
</g>
<!-- Node5&#45;&gt;Node6 -->
<g id="edge6" class="edge">
<title>Node5&#45;&gt;Node6</title>
<path fill="none" stroke="#191970" d="M195.716,-108.1477C189.1416,-96.0643 179.214,-73.6591 183,-54 184.7901,-44.7047 188.483,-34.8887 192.0607,-26.8048"/>
<polygon fill="#191970" stroke="#191970" points="195.2733,-28.1981 196.3788,-17.6611 188.9436,-25.2089 195.2733,-28.1981"/>
</g>
<!-- Node10 -->
<g id="node8" class="node">
<title>Node10</title>
<g id="a_node8"><a xlink:href="../../da/d8e/gslpp__vector__double_8h.html" target="_top" xlink:title="gslpp_vector_double.h">
<polygon fill="none" stroke="#ff0000" points="191.5,-54.5 191.5,-71.5 288.5,-71.5 288.5,-54.5 191.5,-54.5"/>
<text text-anchor="middle" x="240" y="-61.1" font-family="Helvetica,sans-Serif" font-size="8.00" fill="#000000">gslpp_vector_double.h</text>
</a>
</g>
</g>
<!-- Node5&#45;&gt;Node10 -->
<g id="edge7" class="edge">
<title>Node5&#45;&gt;Node10</title>
<path fill="none" stroke="#191970" d="M207.4401,-108.083C212.9489,-100.4554 221.0312,-89.2645 227.765,-79.9408"/>
<polygon fill="#191970" stroke="#191970" points="230.6622,-81.9071 233.6798,-71.7511 224.9874,-77.8087 230.6622,-81.9071"/>
</g>
<!-- Node10&#45;&gt;Node6 -->
<g id="edge8" class="edge">
<title>Node10&#45;&gt;Node6</title>
<path fill="none" stroke="#191970" d="M233.5599,-54.083C228.0511,-46.4554 219.9688,-35.2645 213.235,-25.9408"/>
<polygon fill="#191970" stroke="#191970" points="216.0126,-23.8087 207.3202,-17.7511 210.3378,-27.9071 216.0126,-23.8087"/>
</g>
<!-- Node51&#45;&gt;Node5 -->
<g id="edge11" class="edge">
<title>Node51&#45;&gt;Node5</title>
<path fill="none" stroke="#191970" d="M268.9859,-162.324C256.4684,-153.979 237.3183,-141.2122 222.5286,-131.3524"/>
<polygon fill="#191970" stroke="#191970" points="224.2437,-128.2894 213.9818,-125.6545 220.3608,-134.1137 224.2437,-128.2894"/>
</g>
</g>
</svg>
