<?xml version="1.0" encoding="UTF-8" standalone="no"?>
<!DOCTYPE svg PUBLIC "-//W3C//DTD SVG 1.1//EN"
 "http://www.w3.org/Graphics/SVG/1.1/DTD/svg11.dtd">
<!-- Generated by graphviz version 2.40.1 (20161225.0304)
 -->
<!-- Title: EvolDF1nlep.h Pages: 1 -->
<svg width="346pt" height="80pt"
 viewBox="0.00 0.00 345.50 80.00" xmlns="http://www.w3.org/2000/svg" xmlns:xlink="http://www.w3.org/1999/xlink">
<g id="graph0" class="graph" transform="scale(1 1) rotate(0) translate(4 76)">
<title>EvolDF1nlep.h</title>
<!-- Node22 -->
<g id="node1" class="node">
<title>Node22</title>
<polygon fill="#bfbfbf" stroke="#000000" points="137,-54.5 137,-71.5 206,-71.5 206,-54.5 137,-54.5"/>
<text text-anchor="middle" x="171.5" y="-61.1" font-family="Helvetica,sans-Serif" font-size="8.00" fill="#000000">EvolDF1nlep.h</text>
</g>
<!-- Node23 -->
<g id="node2" class="node">
<title>Node23</title>
<g id="a_node2"><a xlink:href="../../d6/d88/_evol_d_f1nlep_8cpp.html" target="_top" xlink:title="EvolDF1nlep.cpp">
<polygon fill="none" stroke="#000000" points="0,-.5 0,-17.5 77,-17.5 77,-.5 0,-.5"/>
<text text-anchor="middle" x="38.5" y="-7.1" font-family="Helvetica,sans-Serif" font-size="8.00" fill="#000000">EvolDF1nlep.cpp</text>
</a>
</g>
</g>
<!-- Node22&#45;&gt;Node23 -->
<g id="edge1" class="edge">
<title>Node22&#45;&gt;Node23</title>
<path fill="none" stroke="#191970" d="M141.0522,-50.6377C116.0932,-40.504 81.4231,-26.4274 59.4756,-17.5164"/>
<polygon fill="#191970" stroke="#191970" points="139.8436,-53.9245 150.4258,-54.4435 142.477,-47.4387 139.8436,-53.9245"/>
</g>
<!-- Node24 -->
<g id="node3" class="node">
<title>Node24</title>
<g id="a_node3"><a xlink:href="../../d5/d20/_heff_d_b1_8cpp.html" target="_top" xlink:title="HeffDB1.cpp">
<polygon fill="none" stroke="#000000" points="95.5,-.5 95.5,-17.5 157.5,-17.5 157.5,-.5 95.5,-.5"/>
<text text-anchor="middle" x="126.5" y="-7.1" font-family="Helvetica,sans-Serif" font-size="8.00" fill="#000000">HeffDB1.cpp</text>
</a>
</g>
</g>
<!-- Node22&#45;&gt;Node24 -->
<g id="edge2" class="edge">
<title>Node22&#45;&gt;Node24</title>
<path fill="none" stroke="#191970" d="M157.4533,-46.144C149.6131,-36.7357 140.1705,-25.4046 133.7926,-17.7511"/>
<polygon fill="#191970" stroke="#191970" points="154.9785,-48.6414 164.0692,-54.083 160.3561,-44.1601 154.9785,-48.6414"/>
</g>
<!-- Node25 -->
<g id="node4" class="node">
<title>Node25</title>
<g id="a_node4"><a xlink:href="../../d0/de5/_heff_d_f1bnlep_8cpp.html" target="_top" xlink:title="HeffDF1bnlep.cpp">
<polygon fill="none" stroke="#000000" points="176,-.5 176,-17.5 257,-17.5 257,-.5 176,-.5"/>
<text text-anchor="middle" x="216.5" y="-7.1" font-family="Helvetica,sans-Serif" font-size="8.00" fill="#000000">HeffDF1bnlep.cpp</text>
</a>
</g>
</g>
<!-- Node22&#45;&gt;Node25 -->
<g id="edge3" class="edge">
<title>Node22&#45;&gt;Node25</title>
<path fill="none" stroke="#191970" d="M185.5467,-46.144C193.3869,-36.7357 202.8295,-25.4046 209.2074,-17.7511"/>
<polygon fill="#191970" stroke="#191970" points="182.6439,-44.1601 178.9308,-54.083 188.0215,-48.6414 182.6439,-44.1601"/>
</g>
<!-- Node26 -->
<g id="node5" class="node">
<title>Node26</title>
<g id="a_node5"><a xlink:href="../../df/d99/_heff_d_s1_8cpp.html" target="_top" xlink:title="HeffDS1.cpp">
<polygon fill="none" stroke="#000000" points="275.5,-.5 275.5,-17.5 337.5,-17.5 337.5,-.5 275.5,-.5"/>
<text text-anchor="middle" x="306.5" y="-7.1" font-family="Helvetica,sans-Serif" font-size="8.00" fill="#000000">HeffDS1.cpp</text>
</a>
</g>
</g>
<!-- Node22&#45;&gt;Node26 -->
<g id="edge4" class="edge">
<title>Node22&#45;&gt;Node26</title>
<path fill="none" stroke="#191970" d="M202.4057,-50.6377C227.74,-40.504 262.9314,-26.4274 285.2089,-17.5164"/>
<polygon fill="#191970" stroke="#191970" points="200.876,-47.4799 192.8912,-54.4435 203.4758,-53.9792 200.876,-47.4799"/>
</g>
</g>
</svg>
