<?xml version="1.0" encoding="UTF-8" standalone="no"?>
<!DOCTYPE svg PUBLIC "-//W3C//DTD SVG 1.1//EN"
 "http://www.w3.org/Graphics/SVG/1.1/DTD/svg11.dtd">
<!-- Generated by graphviz version 2.40.1 (20161225.0304)
 -->
<!-- Title: GTHDM_ggF_tth_htotautau13 Pages: 1 -->
<svg width="487pt" height="288pt"
 viewBox="0.00 0.00 486.50 288.00" xmlns="http://www.w3.org/2000/svg" xmlns:xlink="http://www.w3.org/1999/xlink">
<g id="graph0" class="graph" transform="scale(1 1) rotate(0) translate(4 284)">
<title>GTHDM_ggF_tth_htotautau13</title>
<!-- Node2 -->
<g id="node1" class="node">
<title>Node2</title>
<polygon fill="#bfbfbf" stroke="#000000" points="0,-.5 0,-17.5 124,-17.5 124,-.5 0,-.5"/>
<text text-anchor="middle" x="62" y="-7.1" font-family="Helvetica,sans-Serif" font-size="8.00" fill="#000000">GTHDM_ggF_tth_htotautau13</text>
</g>
<!-- Node3 -->
<g id="node2" class="node">
<title>Node3</title>
<g id="a_node2"><a xlink:href="../../dc/d1f/class_th_observable.html" target="_top" xlink:title="A class for a model prediction of an observable. ">
<polygon fill="none" stroke="#000000" points="12.5,-99.5 12.5,-116.5 79.5,-116.5 79.5,-99.5 12.5,-99.5"/>
<text text-anchor="middle" x="46" y="-106.1" font-family="Helvetica,sans-Serif" font-size="8.00" fill="#000000">ThObservable</text>
</a>
</g>
</g>
<!-- Node3&#45;&gt;Node2 -->
<g id="edge1" class="edge">
<title>Node3&#45;&gt;Node2</title>
<path fill="none" stroke="#191970" d="M49.0182,-89.3249C52.4877,-67.8571 58.034,-33.5398 60.6061,-17.6245"/>
<polygon fill="#191970" stroke="#191970" points="45.5603,-88.7841 47.4199,-99.2144 52.4706,-89.9009 45.5603,-88.7841"/>
</g>
<!-- Node4 -->
<g id="node3" class="node">
<title>Node4</title>
<g id="a_node3"><a xlink:href="../../dc/dd5/class_standard_model.html" target="_top" xlink:title="A model class for the Standard Model. ">
<polygon fill="none" stroke="#ff0000" points="258.5,-207.5 258.5,-224.5 329.5,-224.5 329.5,-207.5 258.5,-207.5"/>
<text text-anchor="middle" x="294" y="-214.1" font-family="Helvetica,sans-Serif" font-size="8.00" fill="#000000">StandardModel</text>
</a>
</g>
</g>
<!-- Node4&#45;&gt;Node3 -->
<g id="edge2" class="edge">
<title>Node4&#45;&gt;Node3</title>
<path fill="none" stroke="#9a32cd" stroke-dasharray="5,2" d="M248.1832,-210.4413C189.3524,-202.4387 91.6559,-185.9522 65,-162 51.8415,-150.1762 47.7958,-128.6881 46.552,-116.6914"/>
<polygon fill="#9a32cd" stroke="#9a32cd" points="247.9619,-213.9425 258.3359,-211.7907 248.8843,-207.0036 247.9619,-213.9425"/>
<text text-anchor="middle" x="135.5" y="-182.6" font-family="Helvetica,sans-Serif" font-size="8.00" fill="#000000"> SM</text>
</g>
<!-- Node9 -->
<g id="node6" class="node">
<title>Node9</title>
<g id="a_node6"><a xlink:href="../../dc/df3/class_e_w_s_mcache.html" target="_top" xlink:title="A class for cache variables used in computing radiative corrections to the EW precision observables...">
<polygon fill="none" stroke="#ff0000" points="415.5,-140 415.5,-157 478.5,-157 478.5,-140 415.5,-140"/>
<text text-anchor="middle" x="447" y="-146.6" font-family="Helvetica,sans-Serif" font-size="8.00" fill="#000000">EWSMcache</text>
</a>
</g>
</g>
<!-- Node4&#45;&gt;Node9 -->
<g id="edge6" class="edge">
<title>Node4&#45;&gt;Node9</title>
<path fill="none" stroke="#9a32cd" stroke-dasharray="5,2" d="M322.646,-203.362C353.1807,-189.8909 400.713,-168.9207 427.2965,-157.1927"/>
<polygon fill="#9a32cd" stroke="#9a32cd" points="321.114,-200.2124 313.3776,-207.4511 323.9395,-206.6168 321.114,-200.2124"/>
<text text-anchor="middle" x="382.5" y="-182.6" font-family="Helvetica,sans-Serif" font-size="8.00" fill="#000000"> SM</text>
</g>
<!-- Node48 -->
<g id="node8" class="node">
<title>Node48</title>
<g id="a_node8"><a xlink:href="../../d2/df3/class_n_pbase.html" target="_top" xlink:title="The auxiliary base model class for other model classes. ">
<polygon fill="none" stroke="#000000" points="234.5,-140 234.5,-157 279.5,-157 279.5,-140 234.5,-140"/>
<text text-anchor="middle" x="257" y="-146.6" font-family="Helvetica,sans-Serif" font-size="8.00" fill="#000000">NPbase</text>
</a>
</g>
</g>
<!-- Node4&#45;&gt;Node48 -->
<g id="edge10" class="edge">
<title>Node4&#45;&gt;Node48</title>
<path fill="none" stroke="#191970" d="M264.4868,-201.8791C259.8692,-198.3354 255.7289,-194.0645 253,-189 247.6376,-179.048 250.5407,-165.7157 253.4721,-157.116"/>
<polygon fill="#191970" stroke="#191970" points="262.8206,-204.9705 273.1124,-207.4867 266.636,-199.1017 262.8206,-204.9705"/>
</g>
<!-- Node4&#45;&gt;Node48 -->
<g id="edge11" class="edge">
<title>Node4&#45;&gt;Node48</title>
<path fill="none" stroke="#9a32cd" stroke-dasharray="5,2" d="M279.8965,-199.3772C277.4217,-196.0561 275.0017,-192.5071 273,-189 267.0789,-178.6259 262.3719,-165.6301 259.6359,-157.2004"/>
<polygon fill="#9a32cd" stroke="#9a32cd" points="277.3586,-201.8087 286.3259,-207.4512 282.8345,-197.4481 277.3586,-201.8087"/>
<text text-anchor="middle" x="287.5" y="-182.6" font-family="Helvetica,sans-Serif" font-size="8.00" fill="#000000"> trueSM</text>
</g>
<!-- Node5 -->
<g id="node4" class="node">
<title>Node5</title>
<g id="a_node4"><a xlink:href="../../dd/dfa/class_q_c_d.html" target="_top" xlink:title="A class for parameters related to QCD, hadrons and quarks. ">
<polygon fill="none" stroke="#ff0000" points="277,-262.5 277,-279.5 311,-279.5 311,-262.5 277,-262.5"/>
<text text-anchor="middle" x="294" y="-269.1" font-family="Helvetica,sans-Serif" font-size="8.00" fill="#000000">QCD</text>
</a>
</g>
</g>
<!-- Node5&#45;&gt;Node4 -->
<g id="edge3" class="edge">
<title>Node5&#45;&gt;Node4</title>
<path fill="none" stroke="#191970" d="M294,-252.1166C294,-242.8173 294,-232.0557 294,-224.7149"/>
<polygon fill="#191970" stroke="#191970" points="290.5001,-252.4062 294,-262.4063 297.5001,-252.4063 290.5001,-252.4062"/>
</g>
<!-- Node8 -->
<g id="node5" class="node">
<title>Node8</title>
<g id="a_node5"><a xlink:href="../../db/d32/class_e_w_s_m_two_fermions_l_e_p2.html" target="_top" xlink:title="A class for the form factors , &#160;and &#160;in the processes &#160;at LEP&#45;II. ">
<polygon fill="none" stroke="#ff0000" points="302.5,-63.5 302.5,-80.5 411.5,-80.5 411.5,-63.5 302.5,-63.5"/>
<text text-anchor="middle" x="357" y="-70.1" font-family="Helvetica,sans-Serif" font-size="8.00" fill="#000000">EWSMTwoFermionsLEP2</text>
</a>
</g>
</g>
<!-- Node8&#45;&gt;Node4 -->
<g id="edge4" class="edge">
<title>Node8&#45;&gt;Node4</title>
<path fill="none" stroke="#9a32cd" stroke-dasharray="5,2" d="M347.7739,-89.7744C341.3934,-102.2955 332.8528,-119.5203 326,-135 314.4932,-160.9927 302.6292,-192.4925 297.1383,-207.3928"/>
<polygon fill="#9a32cd" stroke="#9a32cd" points="350.8951,-91.3582 352.3544,-80.8644 344.6695,-88.1578 350.8951,-91.3582"/>
<text text-anchor="middle" x="366.5" y="-146.6" font-family="Helvetica,sans-Serif" font-size="8.00" fill="#000000"> myTwoFermionsLEP2</text>
</g>
<!-- Node9&#45;&gt;Node4 -->
<g id="edge7" class="edge">
<title>Node9&#45;&gt;Node4</title>
<path fill="none" stroke="#9a32cd" stroke-dasharray="5,2" d="M430.201,-164.0638C420.3051,-172.5023 407.1744,-182.5038 394,-189 373.8392,-198.9411 349.5248,-205.6114 329.9198,-209.8349"/>
<polygon fill="#9a32cd" stroke="#9a32cd" points="432.8138,-166.4255 437.9846,-157.1781 428.1757,-161.1826 432.8138,-166.4255"/>
<text text-anchor="middle" x="438" y="-182.6" font-family="Helvetica,sans-Serif" font-size="8.00" fill="#000000"> myEWSMcache</text>
</g>
<!-- Node9&#45;&gt;Node8 -->
<g id="edge5" class="edge">
<title>Node9&#45;&gt;Node8</title>
<path fill="none" stroke="#9a32cd" stroke-dasharray="5,2" d="M428.9162,-133.1288C410.3726,-117.3667 382.1883,-93.4101 367.2037,-80.6732"/>
<polygon fill="#9a32cd" stroke="#9a32cd" points="426.7897,-135.9148 436.6759,-139.7245 431.3232,-130.5812 426.7897,-135.9148"/>
<text text-anchor="middle" x="419" y="-106.1" font-family="Helvetica,sans-Serif" font-size="8.00" fill="#000000"> cache</text>
</g>
<!-- Node47 -->
<g id="node7" class="node">
<title>Node47</title>
<g id="a_node7"><a xlink:href="../../d3/d55/class_general_t_h_d_m.html" target="_top" xlink:title="A base class for generic Two&#45;Higgs&#45;Doublet models. ">
<polygon fill="none" stroke="#000000" points="111,-63.5 111,-80.5 179,-80.5 179,-63.5 111,-63.5"/>
<text text-anchor="middle" x="145" y="-70.1" font-family="Helvetica,sans-Serif" font-size="8.00" fill="#000000">GeneralTHDM</text>
</a>
</g>
</g>
<!-- Node47&#45;&gt;Node2 -->
<g id="edge8" class="edge">
<title>Node47&#45;&gt;Node2</title>
<path fill="none" stroke="#9a32cd" stroke-dasharray="5,2" d="M115.1665,-58.9781C107.5821,-55.0193 99.6919,-50.2952 93,-45 82.91,-37.016 73.6057,-25.3943 67.8763,-17.5332"/>
<polygon fill="#9a32cd" stroke="#9a32cd" points="113.6482,-62.1317 124.1651,-63.4142 116.7434,-55.8532 113.6482,-62.1317"/>
<text text-anchor="middle" x="114.5" y="-38.6" font-family="Helvetica,sans-Serif" font-size="8.00" fill="#000000"> myGTHDM</text>
</g>
<!-- Node51 -->
<g id="node10" class="node">
<title>Node51</title>
<g id="a_node10"><a xlink:href="../../dc/dfd/class_general_t_h_d_mcache.html" target="_top" xlink:title="GeneralTHDMcache">
<polygon fill="none" stroke="#ff0000" points="154.5,-.5 154.5,-17.5 243.5,-17.5 243.5,-.5 154.5,-.5"/>
<text text-anchor="middle" x="199" y="-7.1" font-family="Helvetica,sans-Serif" font-size="8.00" fill="#000000">GeneralTHDMcache</text>
</a>
</g>
</g>
<!-- Node47&#45;&gt;Node51 -->
<g id="edge14" class="edge">
<title>Node47&#45;&gt;Node51</title>
<path fill="none" stroke="#9a32cd" stroke-dasharray="5,2" d="M139.1823,-53.399C138.3954,-47.455 138.772,-41.1009 142,-36 147.387,-27.4874 156.2637,-21.6062 165.4261,-17.5645"/>
<polygon fill="#9a32cd" stroke="#9a32cd" points="135.8107,-54.3525 141.491,-63.2959 142.6277,-52.7622 135.8107,-54.3525"/>
<text text-anchor="middle" x="163.5" y="-38.6" font-family="Helvetica,sans-Serif" font-size="8.00" fill="#000000"> myGTHDM</text>
</g>
<!-- Node48&#45;&gt;Node47 -->
<g id="edge9" class="edge">
<title>Node48&#45;&gt;Node47</title>
<path fill="none" stroke="#191970" d="M237.2437,-133.8345C223.569,-123.8057 204.8658,-110.3291 188,-99 178.4875,-92.6102 167.5475,-85.7475 159.0829,-80.5399"/>
<polygon fill="#191970" stroke="#191970" points="235.3072,-136.7551 245.4339,-139.8697 239.4597,-131.1198 235.3072,-136.7551"/>
</g>
<!-- Node49 -->
<g id="node9" class="node">
<title>Node49</title>
<g id="a_node9"><a xlink:href="../../d5/d76/class_matching.html" target="_top" xlink:title="Matching\&lt; GeneralTHDMMatching,\l GeneralTHDM \&gt;">
<polygon fill="none" stroke="#ff0000" points="74,-135.5 74,-161.5 216,-161.5 216,-135.5 74,-135.5"/>
<text text-anchor="start" x="82" y="-151.1" font-family="Helvetica,sans-Serif" font-size="8.00" fill="#000000">Matching&lt; GeneralTHDMMatching,</text>
<text text-anchor="middle" x="145" y="-142.1" font-family="Helvetica,sans-Serif" font-size="8.00" fill="#000000"> GeneralTHDM &gt;</text>
</a>
</g>
</g>
<!-- Node49&#45;&gt;Node47 -->
<g id="edge12" class="edge">
<title>Node49&#45;&gt;Node47</title>
<path fill="none" stroke="#9a32cd" stroke-dasharray="5,2" d="M145,-125.0882C145,-110.1453 145,-91.6269 145,-80.8783"/>
<polygon fill="#9a32cd" stroke="#9a32cd" points="141.5001,-125.1747 145,-135.1747 148.5001,-125.1748 141.5001,-125.1747"/>
<text text-anchor="middle" x="164.5" y="-106.1" font-family="Helvetica,sans-Serif" font-size="8.00" fill="#000000"> GTHDMM</text>
</g>
<!-- Node51&#45;&gt;Node47 -->
<g id="edge13" class="edge">
<title>Node51&#45;&gt;Node47</title>
<path fill="none" stroke="#9a32cd" stroke-dasharray="5,2" d="M196.5667,-27.7345C195.1024,-33.6877 192.7569,-40.0135 189,-45 183.0676,-52.874 174.1096,-58.9664 165.8214,-63.3544"/>
<polygon fill="#9a32cd" stroke="#9a32cd" points="200.0293,-28.2546 198.3653,-17.7912 193.1411,-27.0085 200.0293,-28.2546"/>
<text text-anchor="middle" x="226" y="-38.6" font-family="Helvetica,sans-Serif" font-size="8.00" fill="#000000"> myGTHDMcache</text>
</g>
</g>
</svg>
