<?xml version="1.0" encoding="UTF-8" standalone="no"?>
<!DOCTYPE svg PUBLIC "-//W3C//DTD SVG 1.1//EN"
 "http://www.w3.org/Graphics/SVG/1.1/DTD/svg11.dtd">
<!-- Generated by graphviz version 2.40.1 (20161225.0304)
 -->
<!-- Title: MonteCarlo.h Pages: 1 -->
<svg width="731pt" height="188pt"
 viewBox="0.00 0.00 730.94 188.00" xmlns="http://www.w3.org/2000/svg" xmlns:xlink="http://www.w3.org/1999/xlink">
<g id="graph0" class="graph" transform="scale(1 1) rotate(0) translate(4 184)">
<title>MonteCarlo.h</title>
<!-- Node0 -->
<g id="node1" class="node">
<title>Node0</title>
<polygon fill="#bfbfbf" stroke="#000000" points="341.5,-162.5 341.5,-179.5 406.5,-179.5 406.5,-162.5 341.5,-162.5"/>
<text text-anchor="middle" x="374" y="-169.1" font-family="Helvetica,sans-Serif" font-size="8.00" fill="#000000">MonteCarlo.h</text>
</g>
<!-- Node1 -->
<g id="node2" class="node">
<title>Node1</title>
<g id="a_node2"><a xlink:href="../../d8/d48/_input_parser_8h.html" target="_top" xlink:title="InputParser.h">
<polygon fill="none" stroke="#ff0000" points="279.5,-108.5 279.5,-125.5 344.5,-125.5 344.5,-108.5 279.5,-108.5"/>
<text text-anchor="middle" x="312" y="-115.1" font-family="Helvetica,sans-Serif" font-size="8.00" fill="#000000">InputParser.h</text>
</a>
</g>
</g>
<!-- Node0&#45;&gt;Node1 -->
<g id="edge1" class="edge">
<title>Node0&#45;&gt;Node1</title>
<path fill="none" stroke="#191970" d="M364.0386,-162.324C354.8734,-154.3414 341.0628,-142.3128 329.9718,-132.6529"/>
<polygon fill="#191970" stroke="#191970" points="331.9822,-129.7624 322.1426,-125.8339 327.3847,-135.041 331.9822,-129.7624"/>
</g>
<!-- Node66 -->
<g id="node10" class="node">
<title>Node66</title>
<g id="a_node10"><a xlink:href="../../d0/d26/_monte_carlo_engine_8h.html" target="_top" xlink:title="MonteCarloEngine.h">
<polygon fill="none" stroke="#ff0000" points="441.5,-108.5 441.5,-125.5 530.5,-125.5 530.5,-108.5 441.5,-108.5"/>
<text text-anchor="middle" x="486" y="-115.1" font-family="Helvetica,sans-Serif" font-size="8.00" fill="#000000">MonteCarloEngine.h</text>
</a>
</g>
</g>
<!-- Node0&#45;&gt;Node66 -->
<g id="edge11" class="edge">
<title>Node0&#45;&gt;Node66</title>
<path fill="none" stroke="#191970" d="M391.9947,-162.324C410.0377,-153.6247 438.0469,-140.1202 458.8027,-130.113"/>
<polygon fill="#191970" stroke="#191970" points="460.5623,-133.1502 468.0499,-125.6545 457.5222,-126.8449 460.5623,-133.1502"/>
</g>
<!-- Node2 -->
<g id="node3" class="node">
<title>Node2</title>
<g id="a_node3"><a xlink:href="../../d8/d81/_th_obs_factory_8h.html" target="_top" xlink:title="ThObsFactory.h">
<polygon fill="none" stroke="#ff0000" points="0,-54.5 0,-71.5 74,-71.5 74,-54.5 0,-54.5"/>
<text text-anchor="middle" x="37" y="-61.1" font-family="Helvetica,sans-Serif" font-size="8.00" fill="#000000">ThObsFactory.h</text>
</a>
</g>
</g>
<!-- Node1&#45;&gt;Node2 -->
<g id="edge2" class="edge">
<title>Node1&#45;&gt;Node2</title>
<path fill="none" stroke="#191970" d="M279.374,-110.5934C231.0223,-101.0989 140.0728,-83.2398 84.3784,-72.3034"/>
<polygon fill="#191970" stroke="#191970" points="84.8945,-68.838 74.4075,-70.3455 83.5457,-75.7068 84.8945,-68.838"/>
</g>
<!-- Node51 -->
<g id="node4" class="node">
<title>Node51</title>
<g id="a_node4"><a xlink:href="../../df/df3/_model_factory_8h.html" target="_top" xlink:title="ModelFactory.h">
<polygon fill="none" stroke="#ff0000" points="92,-54.5 92,-71.5 164,-71.5 164,-54.5 92,-54.5"/>
<text text-anchor="middle" x="128" y="-61.1" font-family="Helvetica,sans-Serif" font-size="8.00" fill="#000000">ModelFactory.h</text>
</a>
</g>
</g>
<!-- Node1&#45;&gt;Node51 -->
<g id="edge3" class="edge">
<title>Node1&#45;&gt;Node51</title>
<path fill="none" stroke="#191970" d="M282.8447,-108.4435C251.4865,-99.2406 201.4694,-84.5617 166.8034,-74.3879"/>
<polygon fill="#191970" stroke="#191970" points="167.5999,-70.9742 157.0189,-71.5164 165.6286,-77.6909 167.5999,-70.9742"/>
</g>
<!-- Node52 -->
<g id="node5" class="node">
<title>Node52</title>
<g id="a_node5"><a xlink:href="../../d8/db2/_observable_8h.html" target="_top" xlink:title="Observable.h">
<polygon fill="none" stroke="#ff0000" points="280,-.5 280,-17.5 344,-17.5 344,-.5 280,-.5"/>
<text text-anchor="middle" x="312" y="-7.1" font-family="Helvetica,sans-Serif" font-size="8.00" fill="#000000">Observable.h</text>
</a>
</g>
</g>
<!-- Node1&#45;&gt;Node52 -->
<g id="edge4" class="edge">
<title>Node1&#45;&gt;Node52</title>
<path fill="none" stroke="#191970" d="M279.3892,-111.8C256.2524,-106.2237 226.782,-94.8616 212,-72 194.66,-45.1822 235.365,-27.687 269.9464,-18.0911"/>
<polygon fill="#191970" stroke="#191970" points="271.1557,-21.3927 279.9465,-15.479 269.3865,-14.62 271.1557,-21.3927"/>
</g>
<!-- Node57 -->
<g id="node6" class="node">
<title>Node57</title>
<g id="a_node6"><a xlink:href="../../d9/df1/_observable2_d_8h.html" target="_top" xlink:title="Observable2D.h">
<polygon fill="none" stroke="#ff0000" points="324,-54.5 324,-71.5 398,-71.5 398,-54.5 324,-54.5"/>
<text text-anchor="middle" x="361" y="-61.1" font-family="Helvetica,sans-Serif" font-size="8.00" fill="#000000">Observable2D.h</text>
</a>
</g>
</g>
<!-- Node1&#45;&gt;Node57 -->
<g id="edge5" class="edge">
<title>Node1&#45;&gt;Node57</title>
<path fill="none" stroke="#191970" d="M320.0914,-108.083C327.1554,-100.2982 337.5876,-88.8015 346.1489,-79.3665"/>
<polygon fill="#191970" stroke="#191970" points="348.9312,-81.5087 353.0592,-71.7511 343.7473,-76.8047 348.9312,-81.5087"/>
</g>
<!-- Node59 -->
<g id="node7" class="node">
<title>Node59</title>
<polygon fill="none" stroke="#bfbfbf" points="416.5,-54.5 416.5,-71.5 555.5,-71.5 555.5,-54.5 416.5,-54.5"/>
<text text-anchor="middle" x="486" y="-61.1" font-family="Helvetica,sans-Serif" font-size="8.00" fill="#000000">CorrelatedGaussianObservables.h</text>
</g>
<!-- Node1&#45;&gt;Node59 -->
<g id="edge7" class="edge">
<title>Node1&#45;&gt;Node59</title>
<path fill="none" stroke="#191970" d="M339.5708,-108.4435C369.0974,-99.2801 416.1179,-84.6876 448.8826,-74.5192"/>
<polygon fill="#191970" stroke="#191970" points="450.045,-77.8232 458.5582,-71.5164 447.9701,-71.1378 450.045,-77.8232"/>
</g>
<!-- Node60 -->
<g id="node8" class="node">
<title>Node60</title>
<g id="a_node8"><a xlink:href="../../d7/d01/_correlated_gaussian_parameters_8h.html" target="_top" xlink:title="CorrelatedGaussianParameters.h">
<polygon fill="none" stroke="#ff0000" points="574,-54.5 574,-71.5 710,-71.5 710,-54.5 574,-54.5"/>
<text text-anchor="middle" x="642" y="-61.1" font-family="Helvetica,sans-Serif" font-size="8.00" fill="#000000">CorrelatedGaussianParameters.h</text>
</a>
</g>
</g>
<!-- Node1&#45;&gt;Node60 -->
<g id="edge8" class="edge">
<title>Node1&#45;&gt;Node60</title>
<path fill="none" stroke="#191970" d="M344.5448,-111.6745C399.0989,-102.7474 509.8796,-84.6197 579.7747,-73.1823"/>
<polygon fill="#191970" stroke="#191970" points="580.4753,-76.6143 589.7788,-71.5453 579.3448,-69.7062 580.4753,-76.6143"/>
</g>
<!-- Node62 -->
<g id="node9" class="node">
<title>Node62</title>
<g id="a_node9"><a xlink:href="../../de/d99/_higgs_observable_8h.html" target="_top" xlink:title="HiggsObservable.h">
<polygon fill="none" stroke="#ff0000" points="220.5,-54.5 220.5,-71.5 305.5,-71.5 305.5,-54.5 220.5,-54.5"/>
<text text-anchor="middle" x="263" y="-61.1" font-family="Helvetica,sans-Serif" font-size="8.00" fill="#000000">HiggsObservable.h</text>
</a>
</g>
</g>
<!-- Node1&#45;&gt;Node62 -->
<g id="edge9" class="edge">
<title>Node1&#45;&gt;Node62</title>
<path fill="none" stroke="#191970" d="M303.9086,-108.083C296.8446,-100.2982 286.4124,-88.8015 277.8511,-79.3665"/>
<polygon fill="#191970" stroke="#191970" points="280.2527,-76.8047 270.9408,-71.7511 275.0688,-81.5087 280.2527,-76.8047"/>
</g>
<!-- Node57&#45;&gt;Node52 -->
<g id="edge6" class="edge">
<title>Node57&#45;&gt;Node52</title>
<path fill="none" stroke="#191970" d="M352.9086,-54.083C345.8446,-46.2982 335.4124,-34.8015 326.8511,-25.3665"/>
<polygon fill="#191970" stroke="#191970" points="329.2527,-22.8047 319.9408,-17.7511 324.0688,-27.5087 329.2527,-22.8047"/>
</g>
<!-- Node62&#45;&gt;Node52 -->
<g id="edge10" class="edge">
<title>Node62&#45;&gt;Node52</title>
<path fill="none" stroke="#191970" d="M271.0914,-54.083C278.1554,-46.2982 288.5876,-34.8015 297.1489,-25.3665"/>
<polygon fill="#191970" stroke="#191970" points="299.9312,-27.5087 304.0592,-17.7511 294.7473,-22.8047 299.9312,-27.5087"/>
</g>
<!-- Node66&#45;&gt;Node52 -->
<g id="edge12" class="edge">
<title>Node66&#45;&gt;Node52</title>
<path fill="none" stroke="#191970" d="M530.6976,-114.9216C591.5488,-111.0483 695.5943,-100.3586 719,-72 724.0923,-65.8301 724.337,-59.9596 719,-54 694.9767,-27.1742 454.024,-14.6229 354.5784,-10.5548"/>
<polygon fill="#191970" stroke="#191970" points="354.4207,-7.0457 344.2888,-10.1436 354.1411,-14.0402 354.4207,-7.0457"/>
</g>
<!-- Node66&#45;&gt;Node57 -->
<g id="edge13" class="edge">
<title>Node66&#45;&gt;Node57</title>
<path fill="none" stroke="#191970" d="M466.1934,-108.4435C445.7132,-99.5961 413.5173,-85.6875 390.1353,-75.5865"/>
<polygon fill="#191970" stroke="#191970" points="391.282,-72.2692 380.714,-71.5164 388.5059,-78.6953 391.282,-72.2692"/>
</g>
<!-- Node66&#45;&gt;Node59 -->
<g id="edge14" class="edge">
<title>Node66&#45;&gt;Node59</title>
<path fill="none" stroke="#191970" d="M486,-108.083C486,-101.0059 486,-90.8611 486,-81.9865"/>
<polygon fill="#191970" stroke="#191970" points="489.5001,-81.751 486,-71.7511 482.5001,-81.7511 489.5001,-81.751"/>
</g>
<!-- Node66&#45;&gt;Node60 -->
<g id="edge15" class="edge">
<title>Node66&#45;&gt;Node60</title>
<path fill="none" stroke="#191970" d="M510.7187,-108.4435C536.8485,-99.3986 578.2594,-85.064 607.5764,-74.9158"/>
<polygon fill="#191970" stroke="#191970" points="609.092,-78.0951 617.397,-71.5164 606.8022,-71.4801 609.092,-78.0951"/>
</g>
</g>
</svg>
