<?xml version="1.0" encoding="UTF-8" standalone="no"?>
<!DOCTYPE svg PUBLIC "-//W3C//DTD SVG 1.1//EN"
 "http://www.w3.org/Graphics/SVG/1.1/DTD/svg11.dtd">
<!-- Generated by graphviz version 2.40.1 (20161225.0304)
 -->
<!-- Title: Polylogarithms.cpp Pages: 1 -->
<svg width="394pt" height="242pt"
 viewBox="0.00 0.00 394.00 242.00" xmlns="http://www.w3.org/2000/svg" xmlns:xlink="http://www.w3.org/1999/xlink">
<g id="graph0" class="graph" transform="scale(1 1) rotate(0) translate(4 238)">
<title>Polylogarithms.cpp</title>
<!-- Node0 -->
<g id="node1" class="node">
<title>Node0</title>
<polygon fill="#bfbfbf" stroke="#000000" points="126.5,-216.5 126.5,-233.5 210.5,-233.5 210.5,-216.5 126.5,-216.5"/>
<text text-anchor="middle" x="168.5" y="-223.1" font-family="Helvetica,sans-Serif" font-size="8.00" fill="#000000">Polylogarithms.cpp</text>
</g>
<!-- Node1 -->
<g id="node2" class="node">
<title>Node1</title>
<polygon fill="none" stroke="#bfbfbf" points="0,-162.5 0,-179.5 39,-179.5 39,-162.5 0,-162.5"/>
<text text-anchor="middle" x="19.5" y="-169.1" font-family="Helvetica,sans-Serif" font-size="8.00" fill="#000000">cstdlib</text>
</g>
<!-- Node0&#45;&gt;Node1 -->
<g id="edge1" class="edge">
<title>Node0&#45;&gt;Node1</title>
<path fill="none" stroke="#191970" d="M144.8905,-216.4435C118.8728,-207.0143 76.9932,-191.8364 48.8744,-181.6458"/>
<polygon fill="#191970" stroke="#191970" points="49.7865,-178.2536 39.1923,-178.1368 47.4014,-184.8347 49.7865,-178.2536"/>
</g>
<!-- Node2 -->
<g id="node3" class="node">
<title>Node2</title>
<polygon fill="none" stroke="#bfbfbf" points="57,-162.5 57,-179.5 108,-179.5 108,-162.5 57,-162.5"/>
<text text-anchor="middle" x="82.5" y="-169.1" font-family="Helvetica,sans-Serif" font-size="8.00" fill="#000000">stdexcept</text>
</g>
<!-- Node0&#45;&gt;Node2 -->
<g id="edge2" class="edge">
<title>Node0&#45;&gt;Node2</title>
<path fill="none" stroke="#191970" d="M154.6826,-216.324C141.267,-207.9002 120.6759,-194.9709 104.9144,-185.0741"/>
<polygon fill="#191970" stroke="#191970" points="106.6132,-182.0081 96.2831,-179.6545 102.8908,-187.9364 106.6132,-182.0081"/>
</g>
<!-- Node3 -->
<g id="node4" class="node">
<title>Node3</title>
<polygon fill="none" stroke="#bfbfbf" points="126.5,-162.5 126.5,-179.5 164.5,-179.5 164.5,-162.5 126.5,-162.5"/>
<text text-anchor="middle" x="145.5" y="-169.1" font-family="Helvetica,sans-Serif" font-size="8.00" fill="#000000">cmath</text>
</g>
<!-- Node0&#45;&gt;Node3 -->
<g id="edge3" class="edge">
<title>Node0&#45;&gt;Node3</title>
<path fill="none" stroke="#191970" d="M164.702,-216.083C161.5872,-208.77 157.0772,-198.1814 153.2107,-189.1034"/>
<polygon fill="#191970" stroke="#191970" points="156.3661,-187.5798 149.2273,-179.7511 149.9259,-190.3229 156.3661,-187.5798"/>
</g>
<!-- Node4 -->
<g id="node5" class="node">
<title>Node4</title>
<polygon fill="none" stroke="#bfbfbf" points="185.5,-.5 185.5,-17.5 265.5,-17.5 265.5,-.5 185.5,-.5"/>
<text text-anchor="middle" x="225.5" y="-7.1" font-family="Helvetica,sans-Serif" font-size="8.00" fill="#000000">gsl/gsl_complex.h</text>
</g>
<!-- Node0&#45;&gt;Node4 -->
<g id="edge4" class="edge">
<title>Node0&#45;&gt;Node4</title>
<path fill="none" stroke="#191970" d="M170.4814,-216.4152C176.3139,-191.3086 194.1064,-115.8868 211.5,-54 213.9936,-45.1277 217.0033,-35.3509 219.5921,-27.1834"/>
<polygon fill="#191970" stroke="#191970" points="222.9493,-28.176 222.6741,-17.5848 216.2844,-26.036 222.9493,-28.176"/>
</g>
<!-- Node5 -->
<g id="node6" class="node">
<title>Node5</title>
<polygon fill="none" stroke="#bfbfbf" points="221,-162.5 221,-179.5 278,-179.5 278,-162.5 221,-162.5"/>
<text text-anchor="middle" x="249.5" y="-169.1" font-family="Helvetica,sans-Serif" font-size="8.00" fill="#000000">gsl/gsl_sf.h</text>
</g>
<!-- Node0&#45;&gt;Node5 -->
<g id="edge5" class="edge">
<title>Node0&#45;&gt;Node5</title>
<path fill="none" stroke="#191970" d="M181.5141,-216.324C194.0316,-207.979 213.1817,-195.2122 227.9714,-185.3524"/>
<polygon fill="#191970" stroke="#191970" points="230.1392,-188.1137 236.5182,-179.6545 226.2563,-182.2894 230.1392,-188.1137"/>
</g>
<!-- Node6 -->
<g id="node7" class="node">
<title>Node6</title>
<g id="a_node7"><a xlink:href="../../dd/dc1/_polylogarithms_8h.html" target="_top" xlink:title="Polylogarithms.h">
<polygon fill="none" stroke="#000000" points="296.5,-162.5 296.5,-179.5 372.5,-179.5 372.5,-162.5 296.5,-162.5"/>
<text text-anchor="middle" x="334.5" y="-169.1" font-family="Helvetica,sans-Serif" font-size="8.00" fill="#000000">Polylogarithms.h</text>
</a>
</g>
</g>
<!-- Node0&#45;&gt;Node6 -->
<g id="edge6" class="edge">
<title>Node0&#45;&gt;Node6</title>
<path fill="none" stroke="#191970" d="M194.8032,-216.4435C222.8508,-207.3196 267.4444,-192.8133 298.6842,-182.6509"/>
<polygon fill="#191970" stroke="#191970" points="299.8931,-185.9383 308.3199,-179.5164 297.7276,-179.2816 299.8931,-185.9383"/>
</g>
<!-- Node7 -->
<g id="node8" class="node">
<title>Node7</title>
<g id="a_node8"><a xlink:href="../../d9/d72/gslpp_8h.html" target="_top" xlink:title="gslpp.h">
<polygon fill="none" stroke="#ff0000" points="238.5,-108.5 238.5,-125.5 280.5,-125.5 280.5,-108.5 238.5,-108.5"/>
<text text-anchor="middle" x="259.5" y="-115.1" font-family="Helvetica,sans-Serif" font-size="8.00" fill="#000000">gslpp.h</text>
</a>
</g>
</g>
<!-- Node6&#45;&gt;Node7 -->
<g id="edge7" class="edge">
<title>Node6&#45;&gt;Node7</title>
<path fill="none" stroke="#191970" d="M322.45,-162.324C311.0369,-154.1066 293.669,-141.6017 280.0651,-131.8069"/>
<polygon fill="#191970" stroke="#191970" points="281.9297,-128.8366 271.7693,-125.8339 277.8396,-134.5174 281.9297,-128.8366"/>
</g>
<!-- Node22 -->
<g id="node10" class="node">
<title>Node22</title>
<g id="a_node10"><a xlink:href="../../d1/d27/_bernoulli_numbers_8h.html" target="_top" xlink:title="BernoulliNumbers.h">
<polygon fill="none" stroke="#000000" points="299,-108.5 299,-125.5 386,-125.5 386,-108.5 299,-108.5"/>
<text text-anchor="middle" x="342.5" y="-115.1" font-family="Helvetica,sans-Serif" font-size="8.00" fill="#000000">BernoulliNumbers.h</text>
</a>
</g>
</g>
<!-- Node6&#45;&gt;Node22 -->
<g id="edge10" class="edge">
<title>Node6&#45;&gt;Node22</title>
<path fill="none" stroke="#191970" d="M335.821,-162.083C336.8811,-154.9272 338.4059,-144.6353 339.7309,-135.6911"/>
<polygon fill="#191970" stroke="#191970" points="343.2002,-136.1561 341.2035,-125.7511 336.2758,-135.1302 343.2002,-136.1561"/>
</g>
<!-- Node8 -->
<g id="node9" class="node">
<title>Node8</title>
<g id="a_node9"><a xlink:href="../../d1/dc2/gslpp__complex_8h.html" target="_top" xlink:title="gslpp_complex.h">
<polygon fill="none" stroke="#ff0000" points="221,-54.5 221,-71.5 298,-71.5 298,-54.5 221,-54.5"/>
<text text-anchor="middle" x="259.5" y="-61.1" font-family="Helvetica,sans-Serif" font-size="8.00" fill="#000000">gslpp_complex.h</text>
</a>
</g>
</g>
<!-- Node7&#45;&gt;Node8 -->
<g id="edge8" class="edge">
<title>Node7&#45;&gt;Node8</title>
<path fill="none" stroke="#191970" d="M259.5,-108.083C259.5,-101.0059 259.5,-90.8611 259.5,-81.9865"/>
<polygon fill="#191970" stroke="#191970" points="263.0001,-81.751 259.5,-71.7511 256.0001,-81.7511 263.0001,-81.751"/>
</g>
<!-- Node8&#45;&gt;Node4 -->
<g id="edge9" class="edge">
<title>Node8&#45;&gt;Node4</title>
<path fill="none" stroke="#191970" d="M253.8856,-54.083C249.1326,-46.5341 242.1819,-35.4948 236.3484,-26.2298"/>
<polygon fill="#191970" stroke="#191970" points="239.2999,-24.3486 231.0099,-17.7511 233.3763,-28.0783 239.2999,-24.3486"/>
</g>
</g>
</svg>
