<?xml version="1.0" encoding="UTF-8" standalone="no"?>
<!DOCTYPE svg PUBLIC "-//W3C//DTD SVG 1.1//EN"
 "http://www.w3.org/Graphics/SVG/1.1/DTD/svg11.dtd">
<!-- Generated by graphviz version 2.40.1 (20161225.0304)
 -->
<!-- Title: StandardModelMatching.h Pages: 1 -->
<svg width="535pt" height="188pt"
 viewBox="0.00 0.00 535.00 188.00" xmlns="http://www.w3.org/2000/svg" xmlns:xlink="http://www.w3.org/1999/xlink">
<g id="graph0" class="graph" transform="scale(1 1) rotate(0) translate(4 184)">
<title>StandardModelMatching.h</title>
<!-- Node0 -->
<g id="node1" class="node">
<title>Node0</title>
<polygon fill="#bfbfbf" stroke="#000000" points="266.5,-162.5 266.5,-179.5 376.5,-179.5 376.5,-162.5 266.5,-162.5"/>
<text text-anchor="middle" x="321.5" y="-169.1" font-family="Helvetica,sans-Serif" font-size="8.00" fill="#000000">StandardModelMatching.h</text>
</g>
<!-- Node1 -->
<g id="node2" class="node">
<title>Node1</title>
<g id="a_node2"><a xlink:href="../../d6/d46/_model_matching_8h.html" target="_top" xlink:title="ModelMatching.h">
<polygon fill="none" stroke="#000000" points="233,-108.5 233,-125.5 310,-125.5 310,-108.5 233,-108.5"/>
<text text-anchor="middle" x="271.5" y="-115.1" font-family="Helvetica,sans-Serif" font-size="8.00" fill="#000000">ModelMatching.h</text>
</a>
</g>
</g>
<!-- Node0&#45;&gt;Node1 -->
<g id="edge1" class="edge">
<title>Node0&#45;&gt;Node1</title>
<path fill="none" stroke="#191970" d="M313.2435,-162.083C306.0353,-154.2982 295.3902,-142.8015 286.6542,-133.3665"/>
<polygon fill="#191970" stroke="#191970" points="288.9651,-130.7108 279.6028,-125.7511 283.8288,-135.4666 288.9651,-130.7108"/>
</g>
<!-- Node37 -->
<g id="node8" class="node">
<title>Node37</title>
<g id="a_node8"><a xlink:href="../../d9/d72/gslpp_8h.html" target="_top" xlink:title="gslpp.h">
<polygon fill="none" stroke="#ff0000" points="380.5,-108.5 380.5,-125.5 422.5,-125.5 422.5,-108.5 380.5,-108.5"/>
<text text-anchor="middle" x="401.5" y="-115.1" font-family="Helvetica,sans-Serif" font-size="8.00" fill="#000000">gslpp.h</text>
</a>
</g>
</g>
<!-- Node0&#45;&gt;Node37 -->
<g id="edge7" class="edge">
<title>Node0&#45;&gt;Node37</title>
<path fill="none" stroke="#191970" d="M334.3534,-162.324C346.7164,-153.979 365.6301,-141.2122 380.2372,-131.3524"/>
<polygon fill="#191970" stroke="#191970" points="382.3482,-134.1503 388.6785,-125.6545 378.4318,-128.3483 382.3482,-134.1503"/>
</g>
<!-- Node2 -->
<g id="node3" class="node">
<title>Node2</title>
<g id="a_node3"><a xlink:href="../../db/dba/_wilson_coefficient_8h.html" target="_top" xlink:title="WilsonCoefficient.h">
<polygon fill="none" stroke="#ff0000" points="0,-54.5 0,-71.5 85,-71.5 85,-54.5 0,-54.5"/>
<text text-anchor="middle" x="42.5" y="-61.1" font-family="Helvetica,sans-Serif" font-size="8.00" fill="#000000">WilsonCoefficient.h</text>
</a>
</g>
</g>
<!-- Node1&#45;&gt;Node2 -->
<g id="edge2" class="edge">
<title>Node1&#45;&gt;Node2</title>
<path fill="none" stroke="#191970" d="M235.2143,-108.4435C195.517,-99.0826 131.7933,-84.0561 88.5884,-73.868"/>
<polygon fill="#191970" stroke="#191970" points="89.1523,-70.4051 78.616,-71.5164 87.5457,-77.2182 89.1523,-70.4051"/>
</g>
<!-- Node14 -->
<g id="node4" class="node">
<title>Node14</title>
<g id="a_node4"><a xlink:href="../../d8/d68/_wilson_coefficient_new_8h.html" target="_top" xlink:title="WilsonCoefficientNew.h">
<polygon fill="none" stroke="#ff0000" points="103,-54.5 103,-71.5 204,-71.5 204,-54.5 103,-54.5"/>
<text text-anchor="middle" x="153.5" y="-61.1" font-family="Helvetica,sans-Serif" font-size="8.00" fill="#000000">WilsonCoefficientNew.h</text>
</a>
</g>
</g>
<!-- Node1&#45;&gt;Node14 -->
<g id="edge3" class="edge">
<title>Node1&#45;&gt;Node14</title>
<path fill="none" stroke="#191970" d="M252.8025,-108.4435C233.5555,-99.6356 203.3475,-85.8116 181.2999,-75.722"/>
<polygon fill="#191970" stroke="#191970" points="182.6595,-72.4951 172.11,-71.5164 179.7466,-78.8603 182.6595,-72.4951"/>
</g>
<!-- Node26 -->
<g id="node5" class="node">
<title>Node26</title>
<g id="a_node5"><a xlink:href="../../d4/d68/_q_c_d_8h.html" target="_top" xlink:title="QCD.h">
<polygon fill="none" stroke="#ff0000" points="222,-54.5 222,-71.5 263,-71.5 263,-54.5 222,-54.5"/>
<text text-anchor="middle" x="242.5" y="-61.1" font-family="Helvetica,sans-Serif" font-size="8.00" fill="#000000">QCD.h</text>
</a>
</g>
</g>
<!-- Node1&#45;&gt;Node26 -->
<g id="edge4" class="edge">
<title>Node1&#45;&gt;Node26</title>
<path fill="none" stroke="#191970" d="M266.7112,-108.083C262.7416,-100.6913 256.9749,-89.9533 252.0652,-80.8111"/>
<polygon fill="#191970" stroke="#191970" points="255.0145,-78.9051 247.1997,-71.7511 248.8475,-82.217 255.0145,-78.9051"/>
</g>
<!-- Node18 -->
<g id="node6" class="node">
<title>Node18</title>
<polygon fill="none" stroke="#bfbfbf" points="281.5,-54.5 281.5,-71.5 319.5,-71.5 319.5,-54.5 281.5,-54.5"/>
<text text-anchor="middle" x="300.5" y="-61.1" font-family="Helvetica,sans-Serif" font-size="8.00" fill="#000000">vector</text>
</g>
<!-- Node1&#45;&gt;Node18 -->
<g id="edge5" class="edge">
<title>Node1&#45;&gt;Node18</title>
<path fill="none" stroke="#191970" d="M276.2888,-108.083C280.2584,-100.6913 286.0251,-89.9533 290.9348,-80.8111"/>
<polygon fill="#191970" stroke="#191970" points="294.1525,-82.217 295.8003,-71.7511 287.9855,-78.9051 294.1525,-82.217"/>
</g>
<!-- Node30 -->
<g id="node7" class="node">
<title>Node30</title>
<polygon fill="none" stroke="#bfbfbf" points="337.5,-54.5 337.5,-71.5 373.5,-71.5 373.5,-54.5 337.5,-54.5"/>
<text text-anchor="middle" x="355.5" y="-61.1" font-family="Helvetica,sans-Serif" font-size="8.00" fill="#000000">string</text>
</g>
<!-- Node1&#45;&gt;Node30 -->
<g id="edge6" class="edge">
<title>Node1&#45;&gt;Node30</title>
<path fill="none" stroke="#191970" d="M284.9961,-108.324C298.0996,-99.9002 318.2119,-86.9709 333.6069,-77.0741"/>
<polygon fill="#191970" stroke="#191970" points="335.5183,-80.0063 342.0374,-71.6545 331.733,-74.118 335.5183,-80.0063"/>
</g>
<!-- Node6 -->
<g id="node9" class="node">
<title>Node6</title>
<g id="a_node9"><a xlink:href="../../d1/dc2/gslpp__complex_8h.html" target="_top" xlink:title="gslpp_complex.h">
<polygon fill="none" stroke="#ff0000" points="401,-.5 401,-17.5 478,-17.5 478,-.5 401,-.5"/>
<text text-anchor="middle" x="439.5" y="-7.1" font-family="Helvetica,sans-Serif" font-size="8.00" fill="#000000">gslpp_complex.h</text>
</a>
</g>
</g>
<!-- Node37&#45;&gt;Node6 -->
<g id="edge8" class="edge">
<title>Node37&#45;&gt;Node6</title>
<path fill="none" stroke="#191970" d="M404.0203,-108.3738C407.6335,-96.1761 414.6121,-73.2299 421.5,-54 424.732,-44.9769 428.6514,-35.0744 432.0067,-26.8615"/>
<polygon fill="#191970" stroke="#191970" points="435.2681,-28.1336 435.8608,-17.5554 428.8008,-25.4552 435.2681,-28.1336"/>
</g>
<!-- Node19 -->
<g id="node10" class="node">
<title>Node19</title>
<g id="a_node10"><a xlink:href="../../da/d8e/gslpp__vector__double_8h.html" target="_top" xlink:title="gslpp_vector_double.h">
<polygon fill="none" stroke="#ff0000" points="430,-54.5 430,-71.5 527,-71.5 527,-54.5 430,-54.5"/>
<text text-anchor="middle" x="478.5" y="-61.1" font-family="Helvetica,sans-Serif" font-size="8.00" fill="#000000">gslpp_vector_double.h</text>
</a>
</g>
</g>
<!-- Node37&#45;&gt;Node19 -->
<g id="edge9" class="edge">
<title>Node37&#45;&gt;Node19</title>
<path fill="none" stroke="#191970" d="M413.8714,-108.324C425.6585,-100.0577 443.6323,-87.4527 457.6355,-77.6322"/>
<polygon fill="#191970" stroke="#191970" points="459.9816,-80.2619 466.1593,-71.6545 455.9624,-74.5307 459.9816,-80.2619"/>
</g>
<!-- Node19&#45;&gt;Node6 -->
<g id="edge10" class="edge">
<title>Node19&#45;&gt;Node6</title>
<path fill="none" stroke="#191970" d="M472.0599,-54.083C466.5511,-46.4554 458.4688,-35.2645 451.735,-25.9408"/>
<polygon fill="#191970" stroke="#191970" points="454.5126,-23.8087 445.8202,-17.7511 448.8378,-27.9071 454.5126,-23.8087"/>
</g>
</g>
</svg>
