<?xml version="1.0" encoding="UTF-8" standalone="no"?>
<!DOCTYPE svg PUBLIC "-//W3C//DTD SVG 1.1//EN"
 "http://www.w3.org/Graphics/SVG/1.1/DTD/svg11.dtd">
<!-- Generated by graphviz version 2.40.1 (20161225.0304)
 -->
<!-- Title: bsgamma.h Pages: 1 -->
<svg width="397pt" height="188pt"
 viewBox="0.00 0.00 396.50 188.00" xmlns="http://www.w3.org/2000/svg" xmlns:xlink="http://www.w3.org/1999/xlink">
<g id="graph0" class="graph" transform="scale(1 1) rotate(0) translate(4 184)">
<title>bsgamma.h</title>
<!-- Node0 -->
<g id="node1" class="node">
<title>Node0</title>
<polygon fill="#bfbfbf" stroke="#000000" points="166,-162.5 166,-179.5 224,-179.5 224,-162.5 166,-162.5"/>
<text text-anchor="middle" x="195" y="-169.1" font-family="Helvetica,sans-Serif" font-size="8.00" fill="#000000">bsgamma.h</text>
</g>
<!-- Node1 -->
<g id="node2" class="node">
<title>Node1</title>
<g id="a_node2"><a xlink:href="../../dd/dcd/_th_observable_8h.html" target="_top" xlink:title="ThObservable.h">
<polygon fill="none" stroke="#000000" points="9.5,-108.5 9.5,-125.5 82.5,-125.5 82.5,-108.5 9.5,-108.5"/>
<text text-anchor="middle" x="46" y="-115.1" font-family="Helvetica,sans-Serif" font-size="8.00" fill="#000000">ThObservable.h</text>
</a>
</g>
</g>
<!-- Node0&#45;&gt;Node1 -->
<g id="edge1" class="edge">
<title>Node0&#45;&gt;Node1</title>
<path fill="none" stroke="#191970" d="M171.3905,-162.4435C146.5422,-153.4381 107.2256,-139.1891 79.2464,-129.049"/>
<polygon fill="#191970" stroke="#191970" points="80.0932,-125.6332 69.499,-125.5164 77.7081,-132.2144 80.0932,-125.6332"/>
</g>
<!-- Node4 -->
<g id="node5" class="node">
<title>Node4</title>
<polygon fill="none" stroke="#bfbfbf" points="101,-108.5 101,-125.5 189,-125.5 189,-108.5 101,-108.5"/>
<text text-anchor="middle" x="145" y="-115.1" font-family="Helvetica,sans-Serif" font-size="8.00" fill="#000000">gsl/gsl_integration.h</text>
</g>
<!-- Node0&#45;&gt;Node4 -->
<g id="edge4" class="edge">
<title>Node0&#45;&gt;Node4</title>
<path fill="none" stroke="#191970" d="M186.7435,-162.083C179.5353,-154.2982 168.8902,-142.8015 160.1542,-133.3665"/>
<polygon fill="#191970" stroke="#191970" points="162.4651,-130.7108 153.1028,-125.7511 157.3288,-135.4666 162.4651,-130.7108"/>
</g>
<!-- Node5 -->
<g id="node6" class="node">
<title>Node5</title>
<g id="a_node6"><a xlink:href="../../dd/dc1/_polylogarithms_8h.html" target="_top" xlink:title="Polylogarithms.h">
<polygon fill="none" stroke="#000000" points="207,-108.5 207,-125.5 283,-125.5 283,-108.5 207,-108.5"/>
<text text-anchor="middle" x="245" y="-115.1" font-family="Helvetica,sans-Serif" font-size="8.00" fill="#000000">Polylogarithms.h</text>
</a>
</g>
</g>
<!-- Node0&#45;&gt;Node5 -->
<g id="edge5" class="edge">
<title>Node0&#45;&gt;Node5</title>
<path fill="none" stroke="#191970" d="M203.2565,-162.083C210.4647,-154.2982 221.1098,-142.8015 229.8458,-133.3665"/>
<polygon fill="#191970" stroke="#191970" points="232.6712,-135.4666 236.8972,-125.7511 227.5349,-130.7108 232.6712,-135.4666"/>
</g>
<!-- Node23 -->
<g id="node10" class="node">
<title>Node23</title>
<g id="a_node10"><a xlink:href="../../db/d48/_clausen_functions_8h.html" target="_top" xlink:title="ClausenFunctions.h">
<polygon fill="none" stroke="#000000" points="301.5,-108.5 301.5,-125.5 388.5,-125.5 388.5,-108.5 301.5,-108.5"/>
<text text-anchor="middle" x="345" y="-115.1" font-family="Helvetica,sans-Serif" font-size="8.00" fill="#000000">ClausenFunctions.h</text>
</a>
</g>
</g>
<!-- Node0&#45;&gt;Node23 -->
<g id="edge9" class="edge">
<title>Node0&#45;&gt;Node23</title>
<path fill="none" stroke="#191970" d="M218.7679,-162.4435C243.8928,-153.3986 283.711,-139.064 311.9004,-128.9158"/>
<polygon fill="#191970" stroke="#191970" points="313.1199,-132.1968 321.3433,-125.5164 310.7488,-125.6106 313.1199,-132.1968"/>
</g>
<!-- Node2 -->
<g id="node3" class="node">
<title>Node2</title>
<polygon fill="none" stroke="#bfbfbf" points="0,-54.5 0,-71.5 38,-71.5 38,-54.5 0,-54.5"/>
<text text-anchor="middle" x="19" y="-61.1" font-family="Helvetica,sans-Serif" font-size="8.00" fill="#000000">vector</text>
</g>
<!-- Node1&#45;&gt;Node2 -->
<g id="edge2" class="edge">
<title>Node1&#45;&gt;Node2</title>
<path fill="none" stroke="#191970" d="M41.5415,-108.083C37.8457,-100.6913 32.4766,-89.9533 27.9055,-80.8111"/>
<polygon fill="#191970" stroke="#191970" points="30.9782,-79.1301 23.3755,-71.7511 24.7172,-82.2606 30.9782,-79.1301"/>
</g>
<!-- Node3 -->
<g id="node4" class="node">
<title>Node3</title>
<polygon fill="none" stroke="#bfbfbf" points="56,-54.5 56,-71.5 92,-71.5 92,-54.5 56,-54.5"/>
<text text-anchor="middle" x="74" y="-61.1" font-family="Helvetica,sans-Serif" font-size="8.00" fill="#000000">string</text>
</g>
<!-- Node1&#45;&gt;Node3 -->
<g id="edge3" class="edge">
<title>Node1&#45;&gt;Node3</title>
<path fill="none" stroke="#191970" d="M50.6236,-108.083C54.4563,-100.6913 60.0242,-89.9533 64.7646,-80.8111"/>
<polygon fill="#191970" stroke="#191970" points="67.9663,-82.2398 69.4624,-71.7511 61.752,-79.0175 67.9663,-82.2398"/>
</g>
<!-- Node6 -->
<g id="node7" class="node">
<title>Node6</title>
<g id="a_node7"><a xlink:href="../../d9/d72/gslpp_8h.html" target="_top" xlink:title="gslpp.h">
<polygon fill="none" stroke="#ff0000" points="224,-54.5 224,-71.5 266,-71.5 266,-54.5 224,-54.5"/>
<text text-anchor="middle" x="245" y="-61.1" font-family="Helvetica,sans-Serif" font-size="8.00" fill="#000000">gslpp.h</text>
</a>
</g>
</g>
<!-- Node5&#45;&gt;Node6 -->
<g id="edge6" class="edge">
<title>Node5&#45;&gt;Node6</title>
<path fill="none" stroke="#191970" d="M245,-108.083C245,-101.0059 245,-90.8611 245,-81.9865"/>
<polygon fill="#191970" stroke="#191970" points="248.5001,-81.751 245,-71.7511 241.5001,-81.7511 248.5001,-81.751"/>
</g>
<!-- Node22 -->
<g id="node9" class="node">
<title>Node22</title>
<g id="a_node9"><a xlink:href="../../d1/d27/_bernoulli_numbers_8h.html" target="_top" xlink:title="BernoulliNumbers.h">
<polygon fill="none" stroke="#000000" points="292.5,-54.5 292.5,-71.5 379.5,-71.5 379.5,-54.5 292.5,-54.5"/>
<text text-anchor="middle" x="336" y="-61.1" font-family="Helvetica,sans-Serif" font-size="8.00" fill="#000000">BernoulliNumbers.h</text>
</a>
</g>
</g>
<!-- Node5&#45;&gt;Node22 -->
<g id="edge8" class="edge">
<title>Node5&#45;&gt;Node22</title>
<path fill="none" stroke="#191970" d="M259.6207,-108.324C273.9489,-99.8215 296.0125,-86.7288 312.7487,-76.7975"/>
<polygon fill="#191970" stroke="#191970" points="314.6018,-79.7677 321.4156,-71.6545 311.0296,-73.7478 314.6018,-79.7677"/>
</g>
<!-- Node7 -->
<g id="node8" class="node">
<title>Node7</title>
<g id="a_node8"><a xlink:href="../../d1/dc2/gslpp__complex_8h.html" target="_top" xlink:title="gslpp_complex.h">
<polygon fill="none" stroke="#ff0000" points="206.5,-.5 206.5,-17.5 283.5,-17.5 283.5,-.5 206.5,-.5"/>
<text text-anchor="middle" x="245" y="-7.1" font-family="Helvetica,sans-Serif" font-size="8.00" fill="#000000">gslpp_complex.h</text>
</a>
</g>
</g>
<!-- Node6&#45;&gt;Node7 -->
<g id="edge7" class="edge">
<title>Node6&#45;&gt;Node7</title>
<path fill="none" stroke="#191970" d="M245,-54.083C245,-47.0059 245,-36.8611 245,-27.9865"/>
<polygon fill="#191970" stroke="#191970" points="248.5001,-27.751 245,-17.7511 241.5001,-27.7511 248.5001,-27.751"/>
</g>
<!-- Node23&#45;&gt;Node22 -->
<g id="edge10" class="edge">
<title>Node23&#45;&gt;Node22</title>
<path fill="none" stroke="#191970" d="M343.5138,-108.083C342.3212,-100.9272 340.6059,-90.6353 339.1152,-81.6911"/>
<polygon fill="#191970" stroke="#191970" points="342.555,-81.0396 337.4585,-71.7511 335.6502,-82.1904 342.555,-81.0396"/>
</g>
</g>
</svg>
