<?xml version="1.0" encoding="UTF-8" standalone="no"?>
<!DOCTYPE svg PUBLIC "-//W3C//DTD SVG 1.1//EN"
 "http://www.w3.org/Graphics/SVG/1.1/DTD/svg11.dtd">
<!-- Generated by graphviz version 2.40.1 (20161225.0304)
 -->
<!-- Title: LEP2AFBbottom.h Pages: 1 -->
<svg width="199pt" height="134pt"
 viewBox="0.00 0.00 198.50 134.00" xmlns="http://www.w3.org/2000/svg" xmlns:xlink="http://www.w3.org/1999/xlink">
<g id="graph0" class="graph" transform="scale(1 1) rotate(0) translate(4 130)">
<title>LEP2AFBbottom.h</title>
<!-- Node53 -->
<g id="node1" class="node">
<title>Node53</title>
<polygon fill="#bfbfbf" stroke="#000000" points="51.5,-108.5 51.5,-125.5 134.5,-125.5 134.5,-108.5 51.5,-108.5"/>
<text text-anchor="middle" x="93" y="-115.1" font-family="Helvetica,sans-Serif" font-size="8.00" fill="#000000">LEP2AFBbottom.h</text>
</g>
<!-- Node54 -->
<g id="node2" class="node">
<title>Node54</title>
<g id="a_node2"><a xlink:href="../../dd/df3/_e_w_observables_8h.html" target="_top" xlink:title="A header file for the observables defined in EW module. ">
<polygon fill="none" stroke="#000000" points=".5,-54.5 .5,-71.5 81.5,-71.5 81.5,-54.5 .5,-54.5"/>
<text text-anchor="middle" x="41" y="-61.1" font-family="Helvetica,sans-Serif" font-size="8.00" fill="#000000">EWObservables.h</text>
</a>
</g>
</g>
<!-- Node53&#45;&gt;Node54 -->
<g id="edge1" class="edge">
<title>Node53&#45;&gt;Node54</title>
<path fill="none" stroke="#191970" d="M77.3206,-100.7175C68.1553,-91.1997 56.9474,-79.5608 49.427,-71.7511"/>
<polygon fill="#191970" stroke="#191970" points="74.9557,-103.3075 84.4133,-108.083 79.9979,-98.452 74.9557,-103.3075"/>
</g>
<!-- Node56 -->
<g id="node4" class="node">
<title>Node56</title>
<g id="a_node4"><a xlink:href="../../d7/dcf/_l_e_p2_a_f_bbottom_8cpp.html" target="_top" xlink:title="LEP2AFBbottom.cpp">
<polygon fill="none" stroke="#000000" points="99.5,-54.5 99.5,-71.5 190.5,-71.5 190.5,-54.5 99.5,-54.5"/>
<text text-anchor="middle" x="145" y="-61.1" font-family="Helvetica,sans-Serif" font-size="8.00" fill="#000000">LEP2AFBbottom.cpp</text>
</a>
</g>
</g>
<!-- Node53&#45;&gt;Node56 -->
<g id="edge3" class="edge">
<title>Node53&#45;&gt;Node56</title>
<path fill="none" stroke="#191970" d="M108.6794,-100.7175C117.8447,-91.1997 129.0526,-79.5608 136.573,-71.7511"/>
<polygon fill="#191970" stroke="#191970" points="106.0021,-98.452 101.5867,-108.083 111.0443,-103.3075 106.0021,-98.452"/>
</g>
<!-- Node55 -->
<g id="node3" class="node">
<title>Node55</title>
<g id="a_node3"><a xlink:href="../../d1/de2/_th_obs_factory_8cpp.html" target="_top" xlink:title="ThObsFactory.cpp">
<polygon fill="none" stroke="#000000" points="0,-.5 0,-17.5 82,-17.5 82,-.5 0,-.5"/>
<text text-anchor="middle" x="41" y="-7.1" font-family="Helvetica,sans-Serif" font-size="8.00" fill="#000000">ThObsFactory.cpp</text>
</a>
</g>
</g>
<!-- Node54&#45;&gt;Node55 -->
<g id="edge2" class="edge">
<title>Node54&#45;&gt;Node55</title>
<path fill="none" stroke="#191970" d="M41,-43.8045C41,-34.9102 41,-24.7798 41,-17.7511"/>
<polygon fill="#191970" stroke="#191970" points="37.5001,-44.083 41,-54.083 44.5001,-44.083 37.5001,-44.083"/>
</g>
</g>
</svg>
