<?xml version="1.0" encoding="UTF-8" standalone="no"?>
<!DOCTYPE svg PUBLIC "-//W3C//DTD SVG 1.1//EN"
 "http://www.w3.org/Graphics/SVG/1.1/DTD/svg11.dtd">
<!-- Generated by graphviz version 2.40.1 (20161225.0304)
 -->
<!-- Title: GeneralTHDMEDMcouplings.cpp Pages: 1 -->
<svg width="359pt" height="296pt"
 viewBox="0.00 0.00 359.12 296.00" xmlns="http://www.w3.org/2000/svg" xmlns:xlink="http://www.w3.org/1999/xlink">
<g id="graph0" class="graph" transform="scale(1 1) rotate(0) translate(4 292)">
<title>GeneralTHDMEDMcouplings.cpp</title>
<!-- Node0 -->
<g id="node1" class="node">
<title>Node0</title>
<polygon fill="#bfbfbf" stroke="#000000" points="59.6179,-270.5 59.6179,-287.5 194.6179,-287.5 194.6179,-270.5 59.6179,-270.5"/>
<text text-anchor="middle" x="127.1179" y="-277.1" font-family="Helvetica,sans-Serif" font-size="8.00" fill="#000000">GeneralTHDMEDMcouplings.cpp</text>
</g>
<!-- Node1 -->
<g id="node2" class="node">
<title>Node1</title>
<g id="a_node2"><a xlink:href="../../d3/dd1/_general_t_h_d_m_e_d_mcouplings_8h.html" target="_top" xlink:title="GeneralTHDMEDMcouplings.h">
<polygon fill="none" stroke="#000000" points="2.1179,-216.5 2.1179,-233.5 128.1179,-233.5 128.1179,-216.5 2.1179,-216.5"/>
<text text-anchor="middle" x="65.1179" y="-223.1" font-family="Helvetica,sans-Serif" font-size="8.00" fill="#000000">GeneralTHDMEDMcouplings.h</text>
</a>
</g>
</g>
<!-- Node0&#45;&gt;Node1 -->
<g id="edge1" class="edge">
<title>Node0&#45;&gt;Node1</title>
<path fill="none" stroke="#191970" d="M117.1565,-270.324C107.9913,-262.3414 94.1807,-250.3128 83.0897,-240.6529"/>
<polygon fill="#191970" stroke="#191970" points="85.1001,-237.7624 75.2605,-233.8339 80.5026,-243.041 85.1001,-237.7624"/>
</g>
<!-- Node19 -->
<g id="node7" class="node">
<title>Node19</title>
<g id="a_node7"><a xlink:href="../../d0/d9a/_general_t_h_d_m_8h.html" target="_top" xlink:title="GeneralTHDM.h">
<polygon fill="none" stroke="#000000" points="192.6179,-216.5 192.6179,-233.5 267.6179,-233.5 267.6179,-216.5 192.6179,-216.5"/>
<text text-anchor="middle" x="230.1179" y="-223.1" font-family="Helvetica,sans-Serif" font-size="8.00" fill="#000000">GeneralTHDM.h</text>
</a>
</g>
</g>
<!-- Node0&#45;&gt;Node19 -->
<g id="edge8" class="edge">
<title>Node0&#45;&gt;Node19</title>
<path fill="none" stroke="#191970" d="M143.6666,-270.324C160.1095,-261.7034 185.5527,-248.3643 204.5863,-238.3855"/>
<polygon fill="#191970" stroke="#191970" points="206.3787,-241.3977 213.6102,-233.6545 203.1284,-235.198 206.3787,-241.3977"/>
</g>
<!-- Node2 -->
<g id="node3" class="node">
<title>Node2</title>
<g id="a_node3"><a xlink:href="../../d9/d72/gslpp_8h.html" target="_top" xlink:title="gslpp.h">
<polygon fill="none" stroke="#ff0000" points="44.1179,-108.5 44.1179,-125.5 86.1179,-125.5 86.1179,-108.5 44.1179,-108.5"/>
<text text-anchor="middle" x="65.1179" y="-115.1" font-family="Helvetica,sans-Serif" font-size="8.00" fill="#000000">gslpp.h</text>
</a>
</g>
</g>
<!-- Node1&#45;&gt;Node2 -->
<g id="edge2" class="edge">
<title>Node1&#45;&gt;Node2</title>
<path fill="none" stroke="#191970" d="M44.8953,-216.4945C30.3468,-209.1682 11.817,-197.0628 3.1179,-180 -7.2038,-159.7545 15.1621,-141.8506 35.8525,-130.3537"/>
<polygon fill="#191970" stroke="#191970" points="37.5649,-133.4082 44.8164,-125.6838 34.3307,-127.2001 37.5649,-133.4082"/>
</g>
<!-- Node18 -->
<g id="node6" class="node">
<title>Node18</title>
<g id="a_node6"><a xlink:href="../../d5/dcd/_effective_e_d_mcouplings_8h.html" target="_top" xlink:title="EffectiveEDMcouplings.h">
<polygon fill="none" stroke="#000000" points="12.6179,-162.5 12.6179,-179.5 117.6179,-179.5 117.6179,-162.5 12.6179,-162.5"/>
<text text-anchor="middle" x="65.1179" y="-169.1" font-family="Helvetica,sans-Serif" font-size="8.00" fill="#000000">EffectiveEDMcouplings.h</text>
</a>
</g>
</g>
<!-- Node1&#45;&gt;Node18 -->
<g id="edge6" class="edge">
<title>Node1&#45;&gt;Node18</title>
<path fill="none" stroke="#191970" d="M65.1179,-216.083C65.1179,-209.0059 65.1179,-198.8611 65.1179,-189.9865"/>
<polygon fill="#191970" stroke="#191970" points="68.618,-189.751 65.1179,-179.7511 61.618,-189.7511 68.618,-189.751"/>
</g>
<!-- Node3 -->
<g id="node4" class="node">
<title>Node3</title>
<g id="a_node4"><a xlink:href="../../d1/dc2/gslpp__complex_8h.html" target="_top" xlink:title="gslpp_complex.h">
<polygon fill="none" stroke="#ff0000" points="26.6179,-.5 26.6179,-17.5 103.6179,-17.5 103.6179,-.5 26.6179,-.5"/>
<text text-anchor="middle" x="65.1179" y="-7.1" font-family="Helvetica,sans-Serif" font-size="8.00" fill="#000000">gslpp_complex.h</text>
</a>
</g>
</g>
<!-- Node2&#45;&gt;Node3 -->
<g id="edge3" class="edge">
<title>Node2&#45;&gt;Node3</title>
<path fill="none" stroke="#191970" d="M60.242,-108.3721C55.5591,-99.5522 48.8103,-85.2987 46.1179,-72 42.9697,-56.4503 48.8286,-39.2314 54.8487,-26.7305"/>
<polygon fill="#191970" stroke="#191970" points="57.9695,-28.3159 59.5423,-17.8384 51.7789,-25.0482 57.9695,-28.3159"/>
</g>
<!-- Node7 -->
<g id="node5" class="node">
<title>Node7</title>
<g id="a_node5"><a xlink:href="../../da/d8e/gslpp__vector__double_8h.html" target="_top" xlink:title="gslpp_vector_double.h">
<polygon fill="none" stroke="#ff0000" points="55.6179,-54.5 55.6179,-71.5 152.6179,-71.5 152.6179,-54.5 55.6179,-54.5"/>
<text text-anchor="middle" x="104.1179" y="-61.1" font-family="Helvetica,sans-Serif" font-size="8.00" fill="#000000">gslpp_vector_double.h</text>
</a>
</g>
</g>
<!-- Node2&#45;&gt;Node7 -->
<g id="edge4" class="edge">
<title>Node2&#45;&gt;Node7</title>
<path fill="none" stroke="#191970" d="M71.5579,-108.083C77.0667,-100.4554 85.1491,-89.2645 91.8829,-79.9408"/>
<polygon fill="#191970" stroke="#191970" points="94.7801,-81.9071 97.7977,-71.7511 89.1053,-77.8087 94.7801,-81.9071"/>
</g>
<!-- Node7&#45;&gt;Node3 -->
<g id="edge5" class="edge">
<title>Node7&#45;&gt;Node3</title>
<path fill="none" stroke="#191970" d="M97.6778,-54.083C92.169,-46.4554 84.0867,-35.2645 77.3529,-25.9408"/>
<polygon fill="#191970" stroke="#191970" points="80.1304,-23.8087 71.4381,-17.7511 74.4557,-27.9071 80.1304,-23.8087"/>
</g>
<!-- Node18&#45;&gt;Node2 -->
<g id="edge7" class="edge">
<title>Node18&#45;&gt;Node2</title>
<path fill="none" stroke="#191970" d="M65.1179,-162.083C65.1179,-155.0059 65.1179,-144.8611 65.1179,-135.9865"/>
<polygon fill="#191970" stroke="#191970" points="68.618,-135.751 65.1179,-125.7511 61.618,-135.7511 68.618,-135.751"/>
</g>
<!-- Node20 -->
<g id="node8" class="node">
<title>Node20</title>
<g id="a_node8"><a xlink:href="../../d6/d0a/_standard_model_8h.html" target="_top" xlink:title="StandardModel.h">
<polygon fill="none" stroke="#ff0000" points="259.6179,-108.5 259.6179,-125.5 336.6179,-125.5 336.6179,-108.5 259.6179,-108.5"/>
<text text-anchor="middle" x="298.1179" y="-115.1" font-family="Helvetica,sans-Serif" font-size="8.00" fill="#000000">StandardModel.h</text>
</a>
</g>
</g>
<!-- Node19&#45;&gt;Node20 -->
<g id="edge9" class="edge">
<title>Node19&#45;&gt;Node20</title>
<path fill="none" stroke="#191970" d="M235.6826,-216.1619C246.9455,-198.2738 272.6153,-157.5041 287.2923,-134.1936"/>
<polygon fill="#191970" stroke="#191970" points="290.3,-135.9856 292.6663,-125.6584 284.3763,-132.2559 290.3,-135.9856"/>
</g>
<!-- Node52 -->
<g id="node9" class="node">
<title>Node52</title>
<g id="a_node9"><a xlink:href="../../d4/dbe/_general_t_h_d_m_matching_8h.html" target="_top" xlink:title="GeneralTHDMMatching.h">
<polygon fill="none" stroke="#ff0000" points="135.6179,-162.5 135.6179,-179.5 242.6179,-179.5 242.6179,-162.5 135.6179,-162.5"/>
<text text-anchor="middle" x="189.1179" y="-169.1" font-family="Helvetica,sans-Serif" font-size="8.00" fill="#000000">GeneralTHDMMatching.h</text>
</a>
</g>
</g>
<!-- Node19&#45;&gt;Node52 -->
<g id="edge10" class="edge">
<title>Node19&#45;&gt;Node52</title>
<path fill="none" stroke="#191970" d="M223.3476,-216.083C217.5563,-208.4554 209.0594,-197.2645 201.9804,-187.9408"/>
<polygon fill="#191970" stroke="#191970" points="204.5969,-185.5991 195.7622,-179.7511 199.0218,-189.8321 204.5969,-185.5991"/>
</g>
<!-- Node55 -->
<g id="node10" class="node">
<title>Node55</title>
<g id="a_node10"><a xlink:href="../../d2/de8/_n_pbase_8h.html" target="_top" xlink:title="NPbase.h">
<polygon fill="none" stroke="#000000" points="299.1179,-162.5 299.1179,-179.5 351.1179,-179.5 351.1179,-162.5 299.1179,-162.5"/>
<text text-anchor="middle" x="325.1179" y="-169.1" font-family="Helvetica,sans-Serif" font-size="8.00" fill="#000000">NPbase.h</text>
</a>
</g>
</g>
<!-- Node19&#45;&gt;Node55 -->
<g id="edge12" class="edge">
<title>Node19&#45;&gt;Node55</title>
<path fill="none" stroke="#191970" d="M245.3813,-216.324C260.3393,-207.8215 283.3727,-194.7288 300.8446,-184.7975"/>
<polygon fill="#191970" stroke="#191970" points="302.9283,-187.639 309.8924,-179.6545 299.4691,-181.5534 302.9283,-187.639"/>
</g>
<!-- Node52&#45;&gt;Node2 -->
<g id="edge11" class="edge">
<title>Node52&#45;&gt;Node2</title>
<path fill="none" stroke="#191970" d="M169.4697,-162.4435C149.1533,-153.5961 117.2151,-139.6875 94.0201,-129.5865"/>
<polygon fill="#191970" stroke="#191970" points="95.2399,-126.3002 84.6741,-125.5164 92.445,-132.7181 95.2399,-126.3002"/>
</g>
<!-- Node55&#45;&gt;Node20 -->
<g id="edge13" class="edge">
<title>Node55&#45;&gt;Node20</title>
<path fill="none" stroke="#191970" d="M320.6594,-162.083C316.9636,-154.6913 311.5945,-143.9533 307.0234,-134.8111"/>
<polygon fill="#191970" stroke="#191970" points="310.0961,-133.1301 302.4934,-125.7511 303.8351,-136.2606 310.0961,-133.1301"/>
</g>
</g>
</svg>
