<?xml version="1.0" encoding="UTF-8" standalone="no"?>
<!DOCTYPE svg PUBLIC "-//W3C//DTD SVG 1.1//EN"
 "http://www.w3.org/Graphics/SVG/1.1/DTD/svg11.dtd">
<!-- Generated by graphviz version 2.40.1 (20161225.0304)
 -->
<!-- Title: Heffgminus2.h Pages: 1 -->
<svg width="528pt" height="188pt"
 viewBox="0.00 0.00 528.00 188.00" xmlns="http://www.w3.org/2000/svg" xmlns:xlink="http://www.w3.org/1999/xlink">
<g id="graph0" class="graph" transform="scale(1 1) rotate(0) translate(4 184)">
<title>Heffgminus2.h</title>
<!-- Node0 -->
<g id="node1" class="node">
<title>Node0</title>
<polygon fill="#bfbfbf" stroke="#000000" points="343,-162.5 343,-179.5 411,-179.5 411,-162.5 343,-162.5"/>
<text text-anchor="middle" x="377" y="-169.1" font-family="Helvetica,sans-Serif" font-size="8.00" fill="#000000">Heffgminus2.h</text>
</g>
<!-- Node1 -->
<g id="node2" class="node">
<title>Node1</title>
<g id="a_node2"><a xlink:href="../../d6/d0a/_standard_model_8h.html" target="_top" xlink:title="StandardModel.h">
<polygon fill="none" stroke="#000000" points="184.5,-108.5 184.5,-125.5 261.5,-125.5 261.5,-108.5 184.5,-108.5"/>
<text text-anchor="middle" x="223" y="-115.1" font-family="Helvetica,sans-Serif" font-size="8.00" fill="#000000">StandardModel.h</text>
</a>
</g>
</g>
<!-- Node0&#45;&gt;Node1 -->
<g id="edge1" class="edge">
<title>Node0&#45;&gt;Node1</title>
<path fill="none" stroke="#191970" d="M352.5982,-162.4435C326.8034,-153.3986 285.9234,-139.064 256.9822,-128.9158"/>
<polygon fill="#191970" stroke="#191970" points="257.8824,-125.5226 247.2876,-125.5164 255.5661,-132.1283 257.8824,-125.5226"/>
</g>
<!-- Node38 -->
<g id="node7" class="node">
<title>Node38</title>
<g id="a_node7"><a xlink:href="../../d6/d16/_standard_model_matching_8h.html" target="_top" xlink:title="StandardModelMatching.h">
<polygon fill="none" stroke="#ff0000" points="410,-54.5 410,-71.5 520,-71.5 520,-54.5 410,-54.5"/>
<text text-anchor="middle" x="465" y="-61.1" font-family="Helvetica,sans-Serif" font-size="8.00" fill="#000000">StandardModelMatching.h</text>
</a>
</g>
</g>
<!-- Node0&#45;&gt;Node38 -->
<g id="edge10" class="edge">
<title>Node0&#45;&gt;Node38</title>
<path fill="none" stroke="#191970" d="M377.8923,-162.4289C379.615,-149.4777 384.4139,-124.6668 397,-108 407.1201,-94.5988 422.4623,-83.9548 436.0139,-76.3904"/>
<polygon fill="#191970" stroke="#191970" points="437.8039,-79.4035 445.0236,-71.6494 434.5442,-73.2088 437.8039,-79.4035"/>
</g>
<!-- Node40 -->
<g id="node10" class="node">
<title>Node40</title>
<g id="a_node10"><a xlink:href="../../db/dba/_wilson_coefficient_8h.html" target="_top" xlink:title="WilsonCoefficient.h">
<polygon fill="none" stroke="#ff0000" points="405.5,-108.5 405.5,-125.5 490.5,-125.5 490.5,-108.5 405.5,-108.5"/>
<text text-anchor="middle" x="448" y="-115.1" font-family="Helvetica,sans-Serif" font-size="8.00" fill="#000000">WilsonCoefficient.h</text>
</a>
</g>
</g>
<!-- Node0&#45;&gt;Node40 -->
<g id="edge11" class="edge">
<title>Node0&#45;&gt;Node40</title>
<path fill="none" stroke="#191970" d="M388.4074,-162.324C399.1088,-154.1849 415.3407,-141.8395 428.1628,-132.0874"/>
<polygon fill="#191970" stroke="#191970" points="430.5444,-134.6734 436.3851,-125.8339 426.3068,-129.1018 430.5444,-134.6734"/>
</g>
<!-- Node2 -->
<g id="node3" class="node">
<title>Node2</title>
<g id="a_node3"><a xlink:href="../../d2/d65/_flavour_8h.html" target="_top" xlink:title="Flavour.h">
<polygon fill="none" stroke="#ff0000" points="0,-54.5 0,-71.5 50,-71.5 50,-54.5 0,-54.5"/>
<text text-anchor="middle" x="25" y="-61.1" font-family="Helvetica,sans-Serif" font-size="8.00" fill="#000000">Flavour.h</text>
</a>
</g>
</g>
<!-- Node1&#45;&gt;Node2 -->
<g id="edge2" class="edge">
<title>Node1&#45;&gt;Node2</title>
<path fill="none" stroke="#191970" d="M191.6263,-108.4435C155.8436,-98.6846 97.4828,-82.768 60.1838,-72.5956"/>
<polygon fill="#191970" stroke="#191970" points="60.8269,-69.1432 50.2583,-69.8886 58.985,-75.8965 60.8269,-69.1432"/>
</g>
<!-- Node3 -->
<g id="node4" class="node">
<title>Node3</title>
<g id="a_node4"><a xlink:href="../../d4/d68/_q_c_d_8h.html" target="_top" xlink:title="QCD.h">
<polygon fill="none" stroke="#ff0000" points="30.5,-.5 30.5,-17.5 71.5,-17.5 71.5,-.5 30.5,-.5"/>
<text text-anchor="middle" x="51" y="-7.1" font-family="Helvetica,sans-Serif" font-size="8.00" fill="#000000">QCD.h</text>
</a>
</g>
</g>
<!-- Node1&#45;&gt;Node3 -->
<g id="edge4" class="edge">
<title>Node1&#45;&gt;Node3</title>
<path fill="none" stroke="#191970" d="M184.3103,-109.5013C157.7909,-102.9286 122.8672,-91.3224 97,-72 80.9354,-59.9999 68.0658,-40.8066 60.0693,-26.7549"/>
<polygon fill="#191970" stroke="#191970" points="62.9619,-24.7454 55.1318,-17.6082 56.8021,-28.0705 62.9619,-24.7454"/>
</g>
<!-- Node26 -->
<g id="node5" class="node">
<title>Node26</title>
<g id="a_node5"><a xlink:href="../../db/d5d/_c_k_m_8h.html" target="_top" xlink:title="CKM.h">
<polygon fill="none" stroke="#ff0000" points="106.5,-54.5 106.5,-71.5 147.5,-71.5 147.5,-54.5 106.5,-54.5"/>
<text text-anchor="middle" x="127" y="-61.1" font-family="Helvetica,sans-Serif" font-size="8.00" fill="#000000">CKM.h</text>
</a>
</g>
</g>
<!-- Node1&#45;&gt;Node26 -->
<g id="edge5" class="edge">
<title>Node1&#45;&gt;Node26</title>
<path fill="none" stroke="#191970" d="M207.5759,-108.324C192.4605,-99.8215 169.1846,-86.7288 151.5288,-76.7975"/>
<polygon fill="#191970" stroke="#191970" points="152.8175,-73.5066 142.3858,-71.6545 149.3856,-79.6077 152.8175,-73.5066"/>
</g>
<!-- Node37 -->
<g id="node6" class="node">
<title>Node37</title>
<g id="a_node6"><a xlink:href="../../d9/d22/_p_m_n_s_8h.html" target="_top" xlink:title="PMNS.h">
<polygon fill="none" stroke="#ff0000" points="166,-54.5 166,-71.5 212,-71.5 212,-54.5 166,-54.5"/>
<text text-anchor="middle" x="189" y="-61.1" font-family="Helvetica,sans-Serif" font-size="8.00" fill="#000000">PMNS.h</text>
</a>
</g>
</g>
<!-- Node1&#45;&gt;Node37 -->
<g id="edge6" class="edge">
<title>Node1&#45;&gt;Node37</title>
<path fill="none" stroke="#191970" d="M217.3856,-108.083C212.6326,-100.5341 205.6819,-89.4948 199.8484,-80.2298"/>
<polygon fill="#191970" stroke="#191970" points="202.7999,-78.3486 194.5099,-71.7511 196.8763,-82.0783 202.7999,-78.3486"/>
</g>
<!-- Node1&#45;&gt;Node38 -->
<g id="edge7" class="edge">
<title>Node1&#45;&gt;Node38</title>
<path fill="none" stroke="#191970" d="M261.3456,-108.4435C303.4734,-99.0431 371.2064,-83.9291 416.872,-73.7393"/>
<polygon fill="#191970" stroke="#191970" points="417.8361,-77.1103 426.8338,-71.5164 416.3115,-70.2784 417.8361,-77.1103"/>
</g>
<!-- Node47 -->
<g id="node8" class="node">
<title>Node47</title>
<g id="a_node8"><a xlink:href="../../dc/d38/_matching_8h.html" target="_top" xlink:title="Matching.h">
<polygon fill="none" stroke="#ff0000" points="230,-54.5 230,-71.5 286,-71.5 286,-54.5 230,-54.5"/>
<text text-anchor="middle" x="258" y="-61.1" font-family="Helvetica,sans-Serif" font-size="8.00" fill="#000000">Matching.h</text>
</a>
</g>
</g>
<!-- Node1&#45;&gt;Node47 -->
<g id="edge8" class="edge">
<title>Node1&#45;&gt;Node47</title>
<path fill="none" stroke="#191970" d="M228.7795,-108.083C233.6724,-100.5341 240.8274,-89.4948 246.8326,-80.2298"/>
<polygon fill="#191970" stroke="#191970" points="249.826,-82.0463 252.328,-71.7511 243.952,-78.239 249.826,-82.0463"/>
</g>
<!-- Node48 -->
<g id="node9" class="node">
<title>Node48</title>
<polygon fill="none" stroke="#bfbfbf" points="304,-54.5 304,-71.5 392,-71.5 392,-54.5 304,-54.5"/>
<text text-anchor="middle" x="348" y="-61.1" font-family="Helvetica,sans-Serif" font-size="8.00" fill="#000000">gsl/gsl_integration.h</text>
</g>
<!-- Node1&#45;&gt;Node48 -->
<g id="edge9" class="edge">
<title>Node1&#45;&gt;Node48</title>
<path fill="none" stroke="#191970" d="M242.8066,-108.4435C263.2868,-99.5961 295.4827,-85.6875 318.8647,-75.5865"/>
<polygon fill="#191970" stroke="#191970" points="320.4941,-78.6953 328.286,-71.5164 317.718,-72.2692 320.4941,-78.6953"/>
</g>
<!-- Node2&#45;&gt;Node3 -->
<g id="edge3" class="edge">
<title>Node2&#45;&gt;Node3</title>
<path fill="none" stroke="#191970" d="M29.2934,-54.083C32.8523,-46.6913 38.0225,-35.9533 42.4243,-26.8111"/>
<polygon fill="#191970" stroke="#191970" points="45.6018,-28.2795 46.7865,-17.7511 39.2948,-25.2427 45.6018,-28.2795"/>
</g>
</g>
</svg>
