<?xml version="1.0" encoding="UTF-8" standalone="no"?>
<!DOCTYPE svg PUBLIC "-//W3C//DTD SVG 1.1//EN"
 "http://www.w3.org/Graphics/SVG/1.1/DTD/svg11.dtd">
<!-- Generated by graphviz version 2.40.1 (20161225.0304)
 -->
<!-- Title: LHPC::SLHA::DenseSinglyIndexedBlock&lt; ValueClass &gt; Pages: 1 -->
<svg width="1523pt" height="95pt"
 viewBox="0.00 0.00 1523.00 94.80" xmlns="http://www.w3.org/2000/svg" xmlns:xlink="http://www.w3.org/1999/xlink">
<g id="graph0" class="graph" transform="scale(1 1) rotate(0) translate(4 90.7985)">
<title>LHPC::SLHA::DenseSinglyIndexedBlock&lt; ValueClass &gt;</title>
<!-- Node0 -->
<g id="node1" class="node">
<title>Node0</title>
<polygon fill="#bfbfbf" stroke="#000000" points="1156,-28 1156,-54 1297,-54 1297,-28 1156,-28"/>
<text text-anchor="start" x="1164" y="-43.6" font-family="Helvetica,sans-Serif" font-size="8.00" fill="#000000">LHPC::SLHA::DenseSinglyIndexed</text>
<text text-anchor="middle" x="1226.5" y="-34.6" font-family="Helvetica,sans-Serif" font-size="8.00" fill="#000000">Block&lt; ValueClass &gt;</text>
</g>
<!-- Node9 -->
<g id="node9" class="node">
<title>Node9</title>
<g id="a_node9"><a xlink:href="../../df/d9c/class_l_h_p_c_1_1_s_l_h_a_1_1_dense_singly_indexed_block.html" target="_top" xlink:title="LHPC::SLHA::DenseSinglyIndexed\lBlock\&lt; double \&gt;">
<polygon fill="none" stroke="#000000" points="1374,-28 1374,-54 1515,-54 1515,-28 1374,-28"/>
<text text-anchor="start" x="1382" y="-43.6" font-family="Helvetica,sans-Serif" font-size="8.00" fill="#000000">LHPC::SLHA::DenseSinglyIndexed</text>
<text text-anchor="middle" x="1444.5" y="-34.6" font-family="Helvetica,sans-Serif" font-size="8.00" fill="#000000">Block&lt; double &gt;</text>
</a>
</g>
</g>
<!-- Node0&#45;&gt;Node9 -->
<g id="edge11" class="edge">
<title>Node0&#45;&gt;Node9</title>
<path fill="none" stroke="#ffa500" stroke-dasharray="5,2" d="M1307.4742,-41C1329.2185,-41 1352.5592,-41 1373.704,-41"/>
<polygon fill="#ffa500" stroke="#ffa500" points="1307.2784,-37.5001 1297.2784,-41 1307.2783,-44.5001 1307.2784,-37.5001"/>
<text text-anchor="middle" x="1335.5" y="-43.6" font-family="Helvetica,sans-Serif" font-size="8.00" fill="#000000"> &lt; double &gt;</text>
</g>
<!-- Node1 -->
<g id="node2" class="node">
<title>Node1</title>
<g id="a_node2"><a xlink:href="../../de/d5e/class_l_h_p_c_1_1_s_l_h_a_1_1_indexed_block_template.html" target="_top" xlink:title="LHPC::SLHA::IndexedBlock\lTemplate\&lt; ValueClass,\l InterpreterClass::DenseSingly\lIndexed\&lt; ValueClass \&gt; \&gt;">
<polygon fill="none" stroke="#000000" points="994,-19 994,-63 1119,-63 1119,-19 994,-19"/>
<text text-anchor="start" x="1002" y="-52.6" font-family="Helvetica,sans-Serif" font-size="8.00" fill="#000000">LHPC::SLHA::IndexedBlock</text>
<text text-anchor="start" x="1002" y="-43.6" font-family="Helvetica,sans-Serif" font-size="8.00" fill="#000000">Template&lt; ValueClass,</text>
<text text-anchor="start" x="1002" y="-34.6" font-family="Helvetica,sans-Serif" font-size="8.00" fill="#000000"> InterpreterClass::DenseSingly</text>
<text text-anchor="middle" x="1056.5" y="-25.6" font-family="Helvetica,sans-Serif" font-size="8.00" fill="#000000">Indexed&lt; ValueClass &gt; &gt;</text>
</a>
</g>
</g>
<!-- Node1&#45;&gt;Node0 -->
<g id="edge1" class="edge">
<title>Node1&#45;&gt;Node0</title>
<path fill="none" stroke="#191970" d="M1129.4996,-41C1138.2597,-41 1147.1933,-41 1155.9181,-41"/>
<polygon fill="#191970" stroke="#191970" points="1129.3188,-37.5001 1119.3187,-41 1129.3187,-44.5001 1129.3188,-37.5001"/>
</g>
<!-- Node2 -->
<g id="node3" class="node">
<title>Node2</title>
<g id="a_node3"><a xlink:href="../../d6/daf/class_l_h_p_c_1_1_s_l_h_a_1_1_slha_block.html" target="_top" xlink:title="LHPC::SLHA::SlhaBlock\l\&lt; ValueClass, InterpreterClass\l::DenseSinglyIndexed\&lt; ValueClass \&gt; \&gt;">
<polygon fill="none" stroke="#000000" points="552,-47.5 552,-82.5 707,-82.5 707,-47.5 552,-47.5"/>
<text text-anchor="start" x="560" y="-72.1" font-family="Helvetica,sans-Serif" font-size="8.00" fill="#000000">LHPC::SLHA::SlhaBlock</text>
<text text-anchor="start" x="560" y="-63.1" font-family="Helvetica,sans-Serif" font-size="8.00" fill="#000000">&lt; ValueClass, InterpreterClass</text>
<text text-anchor="middle" x="629.5" y="-54.1" font-family="Helvetica,sans-Serif" font-size="8.00" fill="#000000">::DenseSinglyIndexed&lt; ValueClass &gt; &gt;</text>
</a>
</g>
</g>
<!-- Node2&#45;&gt;Node1 -->
<g id="edge2" class="edge">
<title>Node2&#45;&gt;Node1</title>
<path fill="none" stroke="#191970" d="M717.1178,-62.8554C787.2295,-60.7421 888.0262,-56.814 976,-50 981.7485,-49.5547 987.7205,-49.0213 993.697,-48.4392"/>
<polygon fill="#191970" stroke="#191970" points="716.8935,-59.3604 707.0012,-63.1542 717.1002,-66.3574 716.8935,-59.3604"/>
</g>
<!-- Node3 -->
<g id="node4" class="node">
<title>Node3</title>
<g id="a_node4"><a xlink:href="../../d2/d20/class_l_h_p_c_1_1_s_l_h_a_1_1_base_slha_block.html" target="_top" xlink:title="LHPC::SLHA::BaseSlhaBlock">
<polygon fill="none" stroke="#000000" points="127,-35.5 127,-52.5 248,-52.5 248,-35.5 127,-35.5"/>
<text text-anchor="middle" x="187.5" y="-42.1" font-family="Helvetica,sans-Serif" font-size="8.00" fill="#000000">LHPC::SLHA::BaseSlhaBlock</text>
</a>
</g>
</g>
<!-- Node3&#45;&gt;Node2 -->
<g id="edge3" class="edge">
<title>Node3&#45;&gt;Node2</title>
<path fill="none" stroke="#191970" d="M230.3678,-54.8595C295.7767,-70.0903 424.4548,-94.7914 534,-84 539.8041,-83.4282 545.7782,-82.6655 551.7712,-81.7737"/>
<polygon fill="#191970" stroke="#191970" points="230.9636,-51.4038 220.426,-52.5032 229.3492,-58.2151 230.9636,-51.4038"/>
</g>
<!-- Node6 -->
<g id="node6" class="node">
<title>Node6</title>
<g id="a_node6"><a xlink:href="../../d6/daf/class_l_h_p_c_1_1_s_l_h_a_1_1_slha_block.html" target="_top" xlink:title="LHPC::SLHA::SlhaBlock\l\&lt; ValueClass, BlockParser \&gt;">
<polygon fill="none" stroke="#000000" points="285,-31 285,-57 403,-57 403,-31 285,-31"/>
<text text-anchor="start" x="293" y="-46.6" font-family="Helvetica,sans-Serif" font-size="8.00" fill="#000000">LHPC::SLHA::SlhaBlock</text>
<text text-anchor="middle" x="344" y="-37.6" font-family="Helvetica,sans-Serif" font-size="8.00" fill="#000000">&lt; ValueClass, BlockParser &gt;</text>
</a>
</g>
</g>
<!-- Node3&#45;&gt;Node6 -->
<g id="edge6" class="edge">
<title>Node3&#45;&gt;Node6</title>
<path fill="none" stroke="#191970" d="M258.0648,-44C267.0471,-44 276.1657,-44 284.9412,-44"/>
<polygon fill="#191970" stroke="#191970" points="258.007,-40.5001 248.007,-44 258.007,-47.5001 258.007,-40.5001"/>
</g>
<!-- Node8 -->
<g id="node8" class="node">
<title>Node8</title>
<g id="a_node8"><a xlink:href="../../d6/daf/class_l_h_p_c_1_1_s_l_h_a_1_1_slha_block.html" target="_top" xlink:title="LHPC::SLHA::SlhaBlock\l\&lt; ValueClass, IndexedParser \&gt;">
<polygon fill="none" stroke="#000000" points="566,-2 566,-28 693,-28 693,-2 566,-2"/>
<text text-anchor="start" x="574" y="-17.6" font-family="Helvetica,sans-Serif" font-size="8.00" fill="#000000">LHPC::SLHA::SlhaBlock</text>
<text text-anchor="middle" x="629.5" y="-8.6" font-family="Helvetica,sans-Serif" font-size="8.00" fill="#000000">&lt; ValueClass, IndexedParser &gt;</text>
</a>
</g>
</g>
<!-- Node3&#45;&gt;Node8 -->
<g id="edge9" class="edge">
<title>Node3&#45;&gt;Node8</title>
<path fill="none" stroke="#191970" d="M226.5959,-32.7549C244.2735,-28.196 265.5252,-23.438 285,-21 382.3419,-8.8141 496.3474,-9.779 565.7171,-12.0463"/>
<polygon fill="#191970" stroke="#191970" points="225.4086,-29.4488 216.6411,-35.3971 227.2043,-36.2146 225.4086,-29.4488"/>
</g>
<!-- Node4 -->
<g id="node5" class="node">
<title>Node4</title>
<g id="a_node5"><a xlink:href="../../d5/d13/class_b_o_l_1_1_pushed_to_observer.html" target="_top" xlink:title="StringBlockObserver">
<polygon fill="none" stroke="#ff0000" points="0,-35.5 0,-52.5 90,-52.5 90,-35.5 0,-35.5"/>
<text text-anchor="middle" x="45" y="-42.1" font-family="Helvetica,sans-Serif" font-size="8.00" fill="#000000">StringBlockObserver</text>
</a>
</g>
</g>
<!-- Node4&#45;&gt;Node3 -->
<g id="edge4" class="edge">
<title>Node4&#45;&gt;Node3</title>
<path fill="none" stroke="#191970" d="M100.15,-44C108.8834,-44 117.9573,-44 126.8089,-44"/>
<polygon fill="#191970" stroke="#191970" points="100.0879,-40.5001 90.0879,-44 100.0879,-47.5001 100.0879,-40.5001"/>
</g>
<!-- Node6&#45;&gt;Node2 -->
<g id="edge5" class="edge">
<title>Node6&#45;&gt;Node2</title>
<path fill="none" stroke="#ffa500" stroke-dasharray="5,2" d="M413.4597,-48.4973C449.443,-50.8918 494.0921,-53.9634 534,-57 539.8065,-57.4418 545.8104,-57.9124 551.8491,-58.3955"/>
<polygon fill="#ffa500" stroke="#ffa500" points="413.2795,-44.9778 403.0699,-47.8087 412.8165,-51.9625 413.2795,-44.9778"/>
<text text-anchor="start" x="428.5" y="-77.6" font-family="Helvetica,sans-Serif" font-size="8.00" fill="#000000"> &lt; ValueClass, Interpreter</text>
<text text-anchor="start" x="428.5" y="-68.6" font-family="Helvetica,sans-Serif" font-size="8.00" fill="#000000">Class::DenseSinglyIndexed</text>
<text text-anchor="middle" x="477.5" y="-59.6" font-family="Helvetica,sans-Serif" font-size="8.00" fill="#000000">&lt; ValueClass &gt; &gt;</text>
</g>
<!-- Node6&#45;&gt;Node8 -->
<g id="edge10" class="edge">
<title>Node6&#45;&gt;Node8</title>
<path fill="none" stroke="#ffa500" stroke-dasharray="5,2" d="M413.1587,-36.9751C459.7087,-32.2468 520.6291,-26.0587 565.9582,-21.4543"/>
<polygon fill="#ffa500" stroke="#ffa500" points="412.7509,-33.4984 403.1558,-37.9912 413.4583,-40.4626 412.7509,-33.4984"/>
<text text-anchor="middle" x="477.5" y="-38.6" font-family="Helvetica,sans-Serif" font-size="8.00" fill="#000000"> &lt; ValueClass, IndexedParser &gt;</text>
</g>
<!-- Node7 -->
<g id="node7" class="node">
<title>Node7</title>
<g id="a_node7"><a xlink:href="../../de/d5e/class_l_h_p_c_1_1_s_l_h_a_1_1_indexed_block_template.html" target="_top" xlink:title="LHPC::SLHA::IndexedBlock\lTemplate\&lt; ValueClass,\l IndexedParser \&gt;">
<polygon fill="none" stroke="#000000" points="744,-.5 744,-35.5 860,-35.5 860,-.5 744,-.5"/>
<text text-anchor="start" x="752" y="-25.1" font-family="Helvetica,sans-Serif" font-size="8.00" fill="#000000">LHPC::SLHA::IndexedBlock</text>
<text text-anchor="start" x="752" y="-16.1" font-family="Helvetica,sans-Serif" font-size="8.00" fill="#000000">Template&lt; ValueClass,</text>
<text text-anchor="middle" x="802" y="-7.1" font-family="Helvetica,sans-Serif" font-size="8.00" fill="#000000"> IndexedParser &gt;</text>
</a>
</g>
</g>
<!-- Node7&#45;&gt;Node1 -->
<g id="edge7" class="edge">
<title>Node7&#45;&gt;Node1</title>
<path fill="none" stroke="#ffa500" stroke-dasharray="5,2" d="M870.4057,-16.9528C902.5634,-17.23 941.3645,-18.6705 976,-23 981.8262,-23.7283 987.851,-24.685 993.8614,-25.7783"/>
<polygon fill="#ffa500" stroke="#ffa500" points="870.2296,-13.452 860.2121,-16.9015 870.1943,-20.4519 870.2296,-13.452"/>
<text text-anchor="start" x="878" y="-43.6" font-family="Helvetica,sans-Serif" font-size="8.00" fill="#000000"> &lt; ValueClass, Interpreter</text>
<text text-anchor="start" x="878" y="-34.6" font-family="Helvetica,sans-Serif" font-size="8.00" fill="#000000">Class::DenseSinglyIndexed</text>
<text text-anchor="middle" x="927" y="-25.6" font-family="Helvetica,sans-Serif" font-size="8.00" fill="#000000">&lt; ValueClass &gt; &gt;</text>
</g>
<!-- Node8&#45;&gt;Node7 -->
<g id="edge8" class="edge">
<title>Node8&#45;&gt;Node7</title>
<path fill="none" stroke="#191970" d="M703.4858,-16.2867C717.0151,-16.522 730.9555,-16.7644 743.9384,-16.9902"/>
<polygon fill="#191970" stroke="#191970" points="703.3019,-12.7831 693.2425,-16.1086 703.1801,-19.782 703.3019,-12.7831"/>
</g>
</g>
</svg>
