<?xml version="1.0" encoding="UTF-8" standalone="no"?>
<!DOCTYPE svg PUBLIC "-//W3C//DTD SVG 1.1//EN"
 "http://www.w3.org/Graphics/SVG/1.1/DTD/svg11.dtd">
<!-- Generated by graphviz version 2.40.1 (20161225.0304)
 -->
<!-- Title: Betas_JPsiPhi Pages: 1 -->
<svg width="666pt" height="152pt"
 viewBox="0.00 0.00 666.00 151.83" xmlns="http://www.w3.org/2000/svg" xmlns:xlink="http://www.w3.org/1999/xlink">
<g id="graph0" class="graph" transform="scale(1 1) rotate(0) translate(4 147.8336)">
<title>Betas_JPsiPhi</title>
<!-- Node3 -->
<g id="node1" class="node">
<title>Node3</title>
<polygon fill="#bfbfbf" stroke="#000000" points="569.5,-94.3336 569.5,-111.3336 637.5,-111.3336 637.5,-94.3336 569.5,-94.3336"/>
<text text-anchor="middle" x="603.5" y="-100.9336" font-family="Helvetica,sans-Serif" font-size="8.00" fill="#000000">Betas_JPsiPhi</text>
</g>
<!-- Node4 -->
<g id="node2" class="node">
<title>Node4</title>
<g id="a_node2"><a xlink:href="../../dc/d1f/class_th_observable.html" target="_top" xlink:title="A class for a model prediction of an observable. ">
<polygon fill="none" stroke="#000000" points="415,-85.3336 415,-102.3336 482,-102.3336 482,-85.3336 415,-85.3336"/>
<text text-anchor="middle" x="448.5" y="-91.9336" font-family="Helvetica,sans-Serif" font-size="8.00" fill="#000000">ThObservable</text>
</a>
</g>
</g>
<!-- Node4&#45;&gt;Node3 -->
<g id="edge1" class="edge">
<title>Node4&#45;&gt;Node3</title>
<path fill="none" stroke="#191970" d="M492.2319,-96.3728C516.6806,-97.7924 546.7027,-99.5356 569.3977,-100.8534"/>
<polygon fill="#191970" stroke="#191970" points="492.3188,-92.8721 482.1327,-95.7864 491.913,-99.8603 492.3188,-92.8721"/>
</g>
<!-- Node5 -->
<g id="node3" class="node">
<title>Node5</title>
<g id="a_node3"><a xlink:href="../../dc/dd5/class_standard_model.html" target="_top" xlink:title="A model class for the Standard Model. ">
<polygon fill="none" stroke="#ff0000" points="241,-49.3336 241,-66.3336 312,-66.3336 312,-49.3336 241,-49.3336"/>
<text text-anchor="middle" x="276.5" y="-55.9336" font-family="Helvetica,sans-Serif" font-size="8.00" fill="#000000">StandardModel</text>
</a>
</g>
</g>
<!-- Node5&#45;&gt;Node4 -->
<g id="edge2" class="edge">
<title>Node5&#45;&gt;Node4</title>
<path fill="none" stroke="#9a32cd" stroke-dasharray="5,2" d="M322.093,-67.3763C351.2696,-73.483 388.4765,-81.2705 414.9523,-86.812"/>
<polygon fill="#9a32cd" stroke="#9a32cd" points="322.6435,-63.9157 312.1385,-65.2928 321.2094,-70.7673 322.6435,-63.9157"/>
<text text-anchor="middle" x="360" y="-83.4336" font-family="Helvetica,sans-Serif" font-size="8.00" fill="#000000"> SM</text>
</g>
<!-- Node10 -->
<g id="node6" class="node">
<title>Node10</title>
<g id="a_node6"><a xlink:href="../../dc/df3/class_e_w_s_mcache.html" target="_top" xlink:title="A class for cache variables used in computing radiative corrections to the EW precision observables...">
<polygon fill="none" stroke="#ff0000" points="417,-4.3336 417,-21.3336 480,-21.3336 480,-4.3336 417,-4.3336"/>
<text text-anchor="middle" x="448.5" y="-10.9336" font-family="Helvetica,sans-Serif" font-size="8.00" fill="#000000">EWSMcache</text>
</a>
</g>
</g>
<!-- Node5&#45;&gt;Node10 -->
<g id="edge6" class="edge">
<title>Node5&#45;&gt;Node10</title>
<path fill="none" stroke="#9a32cd" stroke-dasharray="5,2" d="M303.2798,-44.9371C311.6872,-41.2665 321.0999,-37.536 330,-34.8336 358.8314,-26.0792 392.7217,-20.2126 416.8571,-16.7549"/>
<polygon fill="#9a32cd" stroke="#9a32cd" points="301.6304,-41.8418 293.9629,-49.1535 304.5165,-48.2191 301.6304,-41.8418"/>
<text text-anchor="middle" x="360" y="-37.4336" font-family="Helvetica,sans-Serif" font-size="8.00" fill="#000000"> SM</text>
</g>
<!-- Node48 -->
<g id="node10" class="node">
<title>Node48</title>
<g id="a_node10"><a xlink:href="../../da/d29/class_amp_d_b2.html" target="_top" xlink:title="AmpDB2">
<polygon fill="none" stroke="#000000" points="424,-121.3336 424,-138.3336 473,-138.3336 473,-121.3336 424,-121.3336"/>
<text text-anchor="middle" x="448.5" y="-127.9336" font-family="Helvetica,sans-Serif" font-size="8.00" fill="#000000">AmpDB2</text>
</a>
</g>
</g>
<!-- Node5&#45;&gt;Node48 -->
<g id="edge13" class="edge">
<title>Node5&#45;&gt;Node48</title>
<path fill="none" stroke="#9a32cd" stroke-dasharray="5,2" d="M295.62,-72.7375C305.4697,-79.8743 317.923,-88.0944 330,-93.8336 360.8779,-108.5071 399.1119,-118.8406 423.653,-124.5648"/>
<polygon fill="#9a32cd" stroke="#9a32cd" points="297.4978,-69.7715 287.3919,-66.5901 293.3081,-75.3793 297.4978,-69.7715"/>
<text text-anchor="middle" x="360" y="-117.4336" font-family="Helvetica,sans-Serif" font-size="8.00" fill="#000000"> mySM</text>
</g>
<!-- Node6 -->
<g id="node4" class="node">
<title>Node6</title>
<g id="a_node4"><a xlink:href="../../dd/dfa/class_q_c_d.html" target="_top" xlink:title="A class for parameters related to QCD, hadrons and quarks. ">
<polygon fill="none" stroke="#ff0000" points="55.5,-1.3336 55.5,-18.3336 89.5,-18.3336 89.5,-1.3336 55.5,-1.3336"/>
<text text-anchor="middle" x="72.5" y="-7.9336" font-family="Helvetica,sans-Serif" font-size="8.00" fill="#000000">QCD</text>
</a>
</g>
</g>
<!-- Node6&#45;&gt;Node5 -->
<g id="edge3" class="edge">
<title>Node6&#45;&gt;Node5</title>
<path fill="none" stroke="#191970" d="M99.5301,-15.2718C129.7383,-21.4629 180.0509,-32.1134 223,-42.8336 230.8617,-44.7959 239.3243,-47.0854 247.1471,-49.2761"/>
<polygon fill="#191970" stroke="#191970" points="100.2259,-11.8418 89.7285,-13.2752 98.8286,-18.7009 100.2259,-11.8418"/>
</g>
<!-- Node9 -->
<g id="node5" class="node">
<title>Node9</title>
<g id="a_node5"><a xlink:href="../../db/d32/class_e_w_s_m_two_fermions_l_e_p2.html" target="_top" xlink:title="A class for the form factors , &#160;and &#160;in the processes &#160;at LEP&#45;II. ">
<polygon fill="none" stroke="#ff0000" points="549,-46.3336 549,-63.3336 658,-63.3336 658,-46.3336 549,-46.3336"/>
<text text-anchor="middle" x="603.5" y="-52.9336" font-family="Helvetica,sans-Serif" font-size="8.00" fill="#000000">EWSMTwoFermionsLEP2</text>
</a>
</g>
</g>
<!-- Node9&#45;&gt;Node5 -->
<g id="edge4" class="edge">
<title>Node9&#45;&gt;Node5</title>
<path fill="none" stroke="#9a32cd" stroke-dasharray="5,2" d="M538.7836,-55.4273C470.8226,-56.0508 366.4365,-57.0085 312.1172,-57.5068"/>
<polygon fill="#9a32cd" stroke="#9a32cd" points="538.9828,-58.9257 548.9502,-55.334 538.9185,-51.926 538.9828,-58.9257"/>
<text text-anchor="middle" x="448.5" y="-58.4336" font-family="Helvetica,sans-Serif" font-size="8.00" fill="#000000"> myTwoFermionsLEP2</text>
</g>
<!-- Node10&#45;&gt;Node5 -->
<g id="edge7" class="edge">
<title>Node10&#45;&gt;Node5</title>
<path fill="none" stroke="#9a32cd" stroke-dasharray="5,2" d="M406.9448,-2.9713C383.5616,.6132 354.2769,1.7448 330,-7.8336 308.9499,-16.1388 291.3075,-37.0676 282.5109,-49.05"/>
<polygon fill="#9a32cd" stroke="#9a32cd" points="406.4517,-6.438 416.9026,-4.697 407.6471,.4592 406.4517,-6.438"/>
<text text-anchor="middle" x="360" y="-10.4336" font-family="Helvetica,sans-Serif" font-size="8.00" fill="#000000"> myEWSMcache</text>
</g>
<!-- Node10&#45;&gt;Node9 -->
<g id="edge5" class="edge">
<title>Node10&#45;&gt;Node9</title>
<path fill="none" stroke="#9a32cd" stroke-dasharray="5,2" d="M489.9663,-23.8169C503.0959,-27.3146 517.6615,-31.2154 531,-34.8336 544.7357,-38.5595 559.9181,-42.7384 572.8251,-46.309"/>
<polygon fill="#9a32cd" stroke="#9a32cd" points="490.8137,-20.4207 480.25,-21.2322 489.0141,-27.1855 490.8137,-20.4207"/>
<text text-anchor="middle" x="519" y="-37.4336" font-family="Helvetica,sans-Serif" font-size="8.00" fill="#000000"> cache</text>
</g>
<!-- Node16 -->
<g id="node7" class="node">
<title>Node16</title>
<g id="a_node7"><a xlink:href="../../d5/d76/class_matching.html" target="_top" xlink:title="Matching\&lt; StandardModelMatching,\l StandardModel \&gt;">
<polygon fill="none" stroke="#ff0000" points="0,-73.8336 0,-99.8336 145,-99.8336 145,-73.8336 0,-73.8336"/>
<text text-anchor="start" x="8" y="-89.4336" font-family="Helvetica,sans-Serif" font-size="8.00" fill="#000000">Matching&lt; StandardModelMatching,</text>
<text text-anchor="middle" x="72.5" y="-80.4336" font-family="Helvetica,sans-Serif" font-size="8.00" fill="#000000"> StandardModel &gt;</text>
</a>
</g>
</g>
<!-- Node16&#45;&gt;Node5 -->
<g id="edge8" class="edge">
<title>Node16&#45;&gt;Node5</title>
<path fill="none" stroke="#9a32cd" stroke-dasharray="5,2" d="M155.3043,-75.0624C185.1521,-70.8193 217.2751,-66.2528 240.9459,-62.8878"/>
<polygon fill="#9a32cd" stroke="#9a32cd" points="154.6925,-71.614 145.2847,-76.4867 155.6778,-78.5444 154.6925,-71.614"/>
<text text-anchor="middle" x="193" y="-75.4336" font-family="Helvetica,sans-Serif" font-size="8.00" fill="#000000"> SMM</text>
</g>
<!-- Node34 -->
<g id="node8" class="node">
<title>Node34</title>
<g id="a_node8"><a xlink:href="../../d9/db9/class_c_k_m.html" target="_top" xlink:title="A class for the CKM matrix elements. ">
<polygon fill="none" stroke="#ff0000" points="55.5,-37.3336 55.5,-54.3336 89.5,-54.3336 89.5,-37.3336 55.5,-37.3336"/>
<text text-anchor="middle" x="72.5" y="-43.9336" font-family="Helvetica,sans-Serif" font-size="8.00" fill="#000000">CKM</text>
</a>
</g>
</g>
<!-- Node34&#45;&gt;Node5 -->
<g id="edge9" class="edge">
<title>Node34&#45;&gt;Node5</title>
<path fill="none" stroke="#9a32cd" stroke-dasharray="5,2" d="M99.8624,-45.9474C130.0569,-46.2581 180.069,-47.3202 223,-50.8336 228.7884,-51.3073 234.9111,-51.9621 240.8666,-52.6826"/>
<polygon fill="#9a32cd" stroke="#9a32cd" points="99.7131,-42.4461 89.6846,-45.8637 99.6555,-49.4459 99.7131,-42.4461"/>
<text text-anchor="middle" x="193" y="-53.4336" font-family="Helvetica,sans-Serif" font-size="8.00" fill="#000000"> myCKM</text>
</g>
<!-- Node24 -->
<g id="node9" class="node">
<title>Node24</title>
<g id="a_node9"><a xlink:href="../../dd/d9b/classgslpp_1_1complex.html" target="_top" xlink:title="A class for defining operations on and functions of complex numbers. ">
<polygon fill="none" stroke="#000000" points="37.5,-126.3336 37.5,-143.3336 107.5,-143.3336 107.5,-126.3336 37.5,-126.3336"/>
<text text-anchor="middle" x="72.5" y="-132.9336" font-family="Helvetica,sans-Serif" font-size="8.00" fill="#000000">gslpp::complex</text>
</a>
</g>
</g>
<!-- Node24&#45;&gt;Node5 -->
<g id="edge10" class="edge">
<title>Node24&#45;&gt;Node5</title>
<path fill="none" stroke="#9a32cd" stroke-dasharray="5,2" d="M113.7992,-123.4197C144.4251,-114.4695 186.9355,-101.016 223,-85.8336 236.5269,-80.139 251.2591,-72.2988 261.8328,-66.3629"/>
<polygon fill="#9a32cd" stroke="#9a32cd" points="112.5323,-120.1424 103.8951,-126.2783 114.4735,-126.8679 112.5323,-120.1424"/>
<text text-anchor="middle" x="193" y="-118.4336" font-family="Helvetica,sans-Serif" font-size="8.00" fill="#000000"> rhoZ_f_cache</text>
<text text-anchor="middle" x="193" y="-109.4336" font-family="Helvetica,sans-Serif" font-size="8.00" fill="#000000">kappaZ_f_cache</text>
</g>
<!-- Node24&#45;&gt;Node48 -->
<g id="edge12" class="edge">
<title>Node24&#45;&gt;Node48</title>
<path fill="none" stroke="#9a32cd" stroke-dasharray="5,2" d="M117.7806,-134.2314C197.7223,-133.1684 361.3062,-130.993 423.6313,-130.1643"/>
<polygon fill="#9a32cd" stroke="#9a32cd" points="117.4881,-130.7349 107.5355,-134.3677 117.5812,-137.7343 117.4881,-130.7349"/>
<text text-anchor="middle" x="276.5" y="-134.4336" font-family="Helvetica,sans-Serif" font-size="8.00" fill="#000000"> C_1_SM</text>
</g>
<!-- Node48&#45;&gt;Node3 -->
<g id="edge11" class="edge">
<title>Node48&#45;&gt;Node3</title>
<path fill="none" stroke="#8b1a1a" d="M483.1066,-123.8053C508.7933,-119.3309 543.657,-113.2578 569.2567,-108.7985"/>
<polygon fill="#8b1a1a" stroke="#8b1a1a" points="482.3112,-120.3911 473.0602,-125.5553 483.5125,-127.2872 482.3112,-120.3911"/>
</g>
</g>
</svg>
