<?xml version="1.0" encoding="UTF-8" standalone="no"?>
<!DOCTYPE svg PUBLIC "-//W3C//DTD SVG 1.1//EN"
 "http://www.w3.org/Graphics/SVG/1.1/DTD/svg11.dtd">
<!-- Generated by graphviz version 2.40.1 (20161225.0304)
 -->
<!-- Title: Robs_pp_A_HZ_tautaull_CMS8 Pages: 1 -->
<svg width="439pt" height="233pt"
 viewBox="0.00 0.00 438.50 233.00" xmlns="http://www.w3.org/2000/svg" xmlns:xlink="http://www.w3.org/1999/xlink">
<g id="graph0" class="graph" transform="scale(1 1) rotate(0) translate(4 229)">
<title>Robs_pp_A_HZ_tautaull_CMS8</title>
<!-- Node2 -->
<g id="node1" class="node">
<title>Node2</title>
<polygon fill="#bfbfbf" stroke="#000000" points="92.5,-.5 92.5,-17.5 222.5,-17.5 222.5,-.5 92.5,-.5"/>
<text text-anchor="middle" x="157.5" y="-7.1" font-family="Helvetica,sans-Serif" font-size="8.00" fill="#000000">Robs_pp_A_HZ_tautaull_CMS8</text>
</g>
<!-- Node3 -->
<g id="node2" class="node">
<title>Node3</title>
<g id="a_node2"><a xlink:href="../../dc/d1f/class_th_observable.html" target="_top" xlink:title="A class for a model prediction of an observable. ">
<polygon fill="none" stroke="#000000" points="162,-63.5 162,-80.5 229,-80.5 229,-63.5 162,-63.5"/>
<text text-anchor="middle" x="195.5" y="-70.1" font-family="Helvetica,sans-Serif" font-size="8.00" fill="#000000">ThObservable</text>
</a>
</g>
</g>
<!-- Node3&#45;&gt;Node2 -->
<g id="edge1" class="edge">
<title>Node3&#45;&gt;Node2</title>
<path fill="none" stroke="#191970" d="M194.2256,-53.1963C193.2225,-47.3947 191.4852,-41.1759 188.5,-36 184.2924,-28.7047 177.3773,-22.3982 171.1447,-17.719"/>
<polygon fill="#191970" stroke="#191970" points="190.7839,-53.9105 195.3848,-63.4542 197.7396,-53.1244 190.7839,-53.9105"/>
</g>
<!-- Node4 -->
<g id="node3" class="node">
<title>Node4</title>
<g id="a_node3"><a xlink:href="../../dc/dd5/class_standard_model.html" target="_top" xlink:title="A model class for the Standard Model. ">
<polygon fill="none" stroke="#ff0000" points="230,-131 230,-148 301,-148 301,-131 230,-131"/>
<text text-anchor="middle" x="265.5" y="-137.6" font-family="Helvetica,sans-Serif" font-size="8.00" fill="#000000">StandardModel</text>
</a>
</g>
</g>
<!-- Node4&#45;&gt;Node3 -->
<g id="edge2" class="edge">
<title>Node4&#45;&gt;Node3</title>
<path fill="none" stroke="#9a32cd" stroke-dasharray="5,2" d="M249.1902,-123.7727C235.2749,-110.3544 215.782,-91.5576 204.5147,-80.6927"/>
<polygon fill="#9a32cd" stroke="#9a32cd" points="247.0065,-126.5292 256.6345,-130.9511 251.8655,-121.4902 247.0065,-126.5292"/>
<text text-anchor="middle" x="241" y="-101.6" font-family="Helvetica,sans-Serif" font-size="8.00" fill="#000000"> SM</text>
</g>
<!-- Node9 -->
<g id="node6" class="node">
<title>Node9</title>
<g id="a_node6"><a xlink:href="../../dc/df3/class_e_w_s_mcache.html" target="_top" xlink:title="A class for cache variables used in computing radiative corrections to the EW precision observables...">
<polygon fill="none" stroke="#ff0000" points="365,-63.5 365,-80.5 428,-80.5 428,-63.5 365,-63.5"/>
<text text-anchor="middle" x="396.5" y="-70.1" font-family="Helvetica,sans-Serif" font-size="8.00" fill="#000000">EWSMcache</text>
</a>
</g>
</g>
<!-- Node4&#45;&gt;Node9 -->
<g id="edge6" class="edge">
<title>Node4&#45;&gt;Node9</title>
<path fill="none" stroke="#9a32cd" stroke-dasharray="5,2" d="M291.0529,-126.3334C317.2251,-112.8477 357.1643,-92.2684 379.6297,-80.6927"/>
<polygon fill="#9a32cd" stroke="#9a32cd" points="289.3774,-123.2594 282.0912,-130.9511 292.5837,-129.4819 289.3774,-123.2594"/>
<text text-anchor="middle" x="350" y="-101.6" font-family="Helvetica,sans-Serif" font-size="8.00" fill="#000000"> SM</text>
</g>
<!-- Node47 -->
<g id="node8" class="node">
<title>Node47</title>
<g id="a_node8"><a xlink:href="../../d0/d52/class_t_h_d_m.html" target="_top" xlink:title="A base class for &#160;symmetric Two&#45;Higgs&#45;Doublet models. ">
<polygon fill="none" stroke="#000000" points="86.5,-63.5 86.5,-80.5 126.5,-80.5 126.5,-63.5 86.5,-63.5"/>
<text text-anchor="middle" x="106.5" y="-70.1" font-family="Helvetica,sans-Serif" font-size="8.00" fill="#000000">THDM</text>
</a>
</g>
</g>
<!-- Node4&#45;&gt;Node47 -->
<g id="edge10" class="edge">
<title>Node4&#45;&gt;Node47</title>
<path fill="none" stroke="#191970" d="M236.1146,-127.0251C204.3021,-113.5198 154.4124,-92.3402 126.7245,-80.5859"/>
<polygon fill="#191970" stroke="#191970" points="234.7899,-130.265 245.3625,-130.9511 237.5254,-123.8216 234.7899,-130.265"/>
</g>
<!-- Node5 -->
<g id="node4" class="node">
<title>Node5</title>
<g id="a_node4"><a xlink:href="../../dd/dfa/class_q_c_d.html" target="_top" xlink:title="A class for parameters related to QCD, hadrons and quarks. ">
<polygon fill="none" stroke="#ff0000" points="194.5,-203 194.5,-220 228.5,-220 228.5,-203 194.5,-203"/>
<text text-anchor="middle" x="211.5" y="-209.6" font-family="Helvetica,sans-Serif" font-size="8.00" fill="#000000">QCD</text>
</a>
</g>
</g>
<!-- Node5&#45;&gt;Node4 -->
<g id="edge3" class="edge">
<title>Node5&#45;&gt;Node4</title>
<path fill="none" stroke="#191970" d="M224.0517,-194.7643C235.0208,-180.139 250.4997,-159.5004 259.1018,-148.031"/>
<polygon fill="#191970" stroke="#191970" points="221.1066,-192.8579 217.9066,-202.9579 226.7066,-197.0579 221.1066,-192.8579"/>
</g>
<!-- Node8 -->
<g id="node5" class="node">
<title>Node8</title>
<g id="a_node5"><a xlink:href="../../db/d32/class_e_w_s_m_two_fermions_l_e_p2.html" target="_top" xlink:title="A class for the form factors , &#160;and &#160;in the processes &#160;at LEP&#45;II. ">
<polygon fill="none" stroke="#ff0000" points="249,-.5 249,-17.5 358,-17.5 358,-.5 249,-.5"/>
<text text-anchor="middle" x="303.5" y="-7.1" font-family="Helvetica,sans-Serif" font-size="8.00" fill="#000000">EWSMTwoFermionsLEP2</text>
</a>
</g>
</g>
<!-- Node8&#45;&gt;Node4 -->
<g id="edge4" class="edge">
<title>Node8&#45;&gt;Node4</title>
<path fill="none" stroke="#9a32cd" stroke-dasharray="5,2" d="M292.4397,-26.4933C286.4733,-36.7482 279.5267,-50.1725 275.5,-63 268.0385,-86.7697 266.1406,-116.3829 265.6605,-130.8004"/>
<polygon fill="#9a32cd" stroke="#9a32cd" points="295.5452,-28.1219 297.7325,-17.7552 289.5579,-24.4952 295.5452,-28.1219"/>
<text text-anchor="middle" x="316" y="-70.1" font-family="Helvetica,sans-Serif" font-size="8.00" fill="#000000"> myTwoFermionsLEP2</text>
</g>
<!-- Node9&#45;&gt;Node4 -->
<g id="edge7" class="edge">
<title>Node9&#45;&gt;Node4</title>
<path fill="none" stroke="#9a32cd" stroke-dasharray="5,2" d="M382.9541,-88.1117C376.4513,-95.0198 368.1901,-102.7016 359.5,-108 341.5717,-118.9309 319.3828,-126.5974 301.0659,-131.6282"/>
<polygon fill="#9a32cd" stroke="#9a32cd" points="385.6567,-90.3398 389.7003,-80.5469 380.4324,-85.6807 385.6567,-90.3398"/>
<text text-anchor="middle" x="400.5" y="-101.6" font-family="Helvetica,sans-Serif" font-size="8.00" fill="#000000"> myEWSMcache</text>
</g>
<!-- Node9&#45;&gt;Node8 -->
<g id="edge5" class="edge">
<title>Node9&#45;&gt;Node8</title>
<path fill="none" stroke="#9a32cd" stroke-dasharray="5,2" d="M374.8227,-57.3154C356.6791,-45.0245 331.4026,-27.9018 316.3214,-17.6855"/>
<polygon fill="#9a32cd" stroke="#9a32cd" points="373.3266,-60.5293 383.5687,-63.2401 377.2525,-54.7339 373.3266,-60.5293"/>
<text text-anchor="middle" x="367.5" y="-38.6" font-family="Helvetica,sans-Serif" font-size="8.00" fill="#000000"> cache</text>
</g>
<!-- Node15 -->
<g id="node7" class="node">
<title>Node15</title>
<g id="a_node7"><a xlink:href="../../d5/d76/class_matching.html" target="_top" xlink:title="Matching\&lt; StandardModelMatching,\l StandardModel \&gt;">
<polygon fill="none" stroke="#ff0000" points="247,-198.5 247,-224.5 392,-224.5 392,-198.5 247,-198.5"/>
<text text-anchor="start" x="255" y="-214.1" font-family="Helvetica,sans-Serif" font-size="8.00" fill="#000000">Matching&lt; StandardModelMatching,</text>
<text text-anchor="middle" x="319.5" y="-205.1" font-family="Helvetica,sans-Serif" font-size="8.00" fill="#000000"> StandardModel &gt;</text>
</a>
</g>
</g>
<!-- Node15&#45;&gt;Node4 -->
<g id="edge8" class="edge">
<title>Node15&#45;&gt;Node4</title>
<path fill="none" stroke="#9a32cd" stroke-dasharray="5,2" d="M303.4508,-190.1011C292.9079,-176.0439 279.6829,-158.4105 271.9533,-148.1044"/>
<polygon fill="#9a32cd" stroke="#9a32cd" points="300.7955,-192.3941 309.5956,-198.2941 306.3955,-188.1941 300.7955,-192.3941"/>
<text text-anchor="middle" x="306" y="-173.6" font-family="Helvetica,sans-Serif" font-size="8.00" fill="#000000"> SMM</text>
</g>
<!-- Node47&#45;&gt;Node2 -->
<g id="edge9" class="edge">
<title>Node47&#45;&gt;Node2</title>
<path fill="none" stroke="#9a32cd" stroke-dasharray="5,2" d="M120.9716,-55.2459C123.8258,-51.876 126.7786,-48.3427 129.5,-45 136.9986,-35.7896 145.3228,-25.0131 150.9307,-17.6678"/>
<polygon fill="#9a32cd" stroke="#9a32cd" points="118.1076,-53.2097 114.2678,-63.0842 123.4274,-57.7595 118.1076,-53.2097"/>
<text text-anchor="middle" x="155.5" y="-38.6" font-family="Helvetica,sans-Serif" font-size="8.00" fill="#000000"> myTHDM</text>
</g>
<!-- Node48 -->
<g id="node9" class="node">
<title>Node48</title>
<g id="a_node9"><a xlink:href="../../d5/df2/class_t_h_d_mcache.html" target="_top" xlink:title="A class for the caching of some THDM objects. ">
<polygon fill="none" stroke="#ff0000" points="0,-.5 0,-17.5 61,-17.5 61,-.5 0,-.5"/>
<text text-anchor="middle" x="30.5" y="-7.1" font-family="Helvetica,sans-Serif" font-size="8.00" fill="#000000">THDMcache</text>
</a>
</g>
</g>
<!-- Node47&#45;&gt;Node48 -->
<g id="edge12" class="edge">
<title>Node47&#45;&gt;Node48</title>
<path fill="none" stroke="#9a32cd" stroke-dasharray="5,2" d="M76.2163,-66.661C53.6224,-61.989 25.502,-54.4725 18.5,-45 12.4692,-36.8414 18.0367,-25.471 23.4308,-17.7054"/>
<polygon fill="#9a32cd" stroke="#9a32cd" points="75.6257,-70.1118 86.1127,-68.6043 76.9745,-63.243 75.6257,-70.1118"/>
<text text-anchor="middle" x="36.5" y="-38.6" font-family="Helvetica,sans-Serif" font-size="8.00" fill="#000000"> myTHDM</text>
</g>
<!-- Node48&#45;&gt;Node47 -->
<g id="edge11" class="edge">
<title>Node48&#45;&gt;Node47</title>
<path fill="none" stroke="#9a32cd" stroke-dasharray="5,2" d="M46.0094,-25.2192C52.4348,-31.634 60.1041,-38.913 67.5,-45 75.5117,-51.5938 85.0846,-58.2376 92.741,-63.2847"/>
<polygon fill="#9a32cd" stroke="#9a32cd" points="48.1493,-22.4023 38.6499,-17.7106 43.1502,-27.3022 48.1493,-22.4023"/>
<text text-anchor="middle" x="96.5" y="-38.6" font-family="Helvetica,sans-Serif" font-size="8.00" fill="#000000"> myTHDMcache</text>
</g>
<!-- Node58 -->
<g id="node10" class="node">
<title>Node58</title>
<g id="a_node10"><a xlink:href="../../d5/d76/class_matching.html" target="_top" xlink:title="Matching\&lt; THDMMatching,\l THDM \&gt;">
<polygon fill="none" stroke="#ff0000" points="49.5,-126.5 49.5,-152.5 163.5,-152.5 163.5,-126.5 49.5,-126.5"/>
<text text-anchor="start" x="57.5" y="-142.1" font-family="Helvetica,sans-Serif" font-size="8.00" fill="#000000">Matching&lt; THDMMatching,</text>
<text text-anchor="middle" x="106.5" y="-133.1" font-family="Helvetica,sans-Serif" font-size="8.00" fill="#000000"> THDM &gt;</text>
</a>
</g>
</g>
<!-- Node58&#45;&gt;Node47 -->
<g id="edge13" class="edge">
<title>Node58&#45;&gt;Node47</title>
<path fill="none" stroke="#9a32cd" stroke-dasharray="5,2" d="M106.5,-116.3987C106.5,-104.0883 106.5,-89.6721 106.5,-80.6863"/>
<polygon fill="#9a32cd" stroke="#9a32cd" points="103.0001,-116.4853 106.5,-126.4853 110.0001,-116.4854 103.0001,-116.4853"/>
<text text-anchor="middle" x="122.5" y="-101.6" font-family="Helvetica,sans-Serif" font-size="8.00" fill="#000000"> THDMM</text>
</g>
</g>
</svg>
