<?xml version="1.0" encoding="UTF-8" standalone="no"?>
<!DOCTYPE svg PUBLIC "-//W3C//DTD SVG 1.1//EN"
 "http://www.w3.org/Graphics/SVG/1.1/DTD/svg11.dtd">
<!-- Generated by graphviz version 2.38.0 (20140413.2041)
 -->
<!-- Title: heavyHiggs.h Pages: 1 -->
<svg width="190pt" height="134pt"
 viewBox="0.00 0.00 190.00 134.00" xmlns="http://www.w3.org/2000/svg" xmlns:xlink="http://www.w3.org/1999/xlink">
<g id="graph0" class="graph" transform="scale(1 1) rotate(0) translate(4 130)">
<title>heavyHiggs.h</title>
<!-- Node1 -->
<g id="node1" class="node"><title>Node1</title>
<polygon fill="#bfbfbf" stroke="black" points="54,-108.5 54,-125.5 119,-125.5 119,-108.5 54,-108.5"/>
<text text-anchor="middle" x="86.5" y="-115.1" font-family="Helvetica,sans-Serif" font-size="8.00">heavyHiggs.h</text>
</g>
<!-- Node2 -->
<g id="node2" class="node"><title>Node2</title>
<g id="a_node2"><a xlink:href="../../d7/dee/heavy_higgs_8cpp.html" target="_top" xlink:title="heavyHiggs.cpp">
<polygon fill="none" stroke="black" points="0,-54.5 0,-71.5 73,-71.5 73,-54.5 0,-54.5"/>
<text text-anchor="middle" x="36.5" y="-61.1" font-family="Helvetica,sans-Serif" font-size="8.00">heavyHiggs.cpp</text>
</a>
</g>
</g>
<!-- Node1&#45;&gt;Node2 -->
<g id="edge1" class="edge"><title>Node1&#45;&gt;Node2</title>
<path fill="none" stroke="midnightblue" d="M72.0797,-101.003C62.8673,-91.422 51.3047,-79.3969 43.9079,-71.7043"/>
<polygon fill="midnightblue" stroke="midnightblue" points="69.6683,-103.545 79.1223,-108.327 74.7141,-98.693 69.6683,-103.545"/>
</g>
<!-- Node3 -->
<g id="node3" class="node"><title>Node3</title>
<g id="a_node3"><a xlink:href="../../d0/d3a/_t_h_d_m_observables_8h.html" target="_top" xlink:title="THDMObservables.h">
<polygon fill="none" stroke="black" points="91,-54.5 91,-71.5 182,-71.5 182,-54.5 91,-54.5"/>
<text text-anchor="middle" x="136.5" y="-61.1" font-family="Helvetica,sans-Serif" font-size="8.00">THDMObservables.h</text>
</a>
</g>
</g>
<!-- Node1&#45;&gt;Node3 -->
<g id="edge2" class="edge"><title>Node1&#45;&gt;Node3</title>
<path fill="none" stroke="midnightblue" d="M100.92,-101.003C110.133,-91.422 121.695,-79.3969 129.092,-71.7043"/>
<polygon fill="midnightblue" stroke="midnightblue" points="98.2859,-98.693 93.8777,-108.327 103.332,-103.545 98.2859,-98.693"/>
</g>
<!-- Node4 -->
<g id="node4" class="node"><title>Node4</title>
<g id="a_node4"><a xlink:href="../../d1/de2/_th_obs_factory_8cpp.html" target="_top" xlink:title="ThObsFactory.cpp">
<polygon fill="none" stroke="black" points="95.5,-0.5 95.5,-17.5 177.5,-17.5 177.5,-0.5 95.5,-0.5"/>
<text text-anchor="middle" x="136.5" y="-7.1" font-family="Helvetica,sans-Serif" font-size="8.00">ThObsFactory.cpp</text>
</a>
</g>
</g>
<!-- Node3&#45;&gt;Node4 -->
<g id="edge3" class="edge"><title>Node3&#45;&gt;Node4</title>
<path fill="none" stroke="midnightblue" d="M136.5,-44.0621C136.5,-35.0603 136.5,-24.6277 136.5,-17.7043"/>
<polygon fill="midnightblue" stroke="midnightblue" points="133,-44.3272 136.5,-54.3272 140,-44.3273 133,-44.3272"/>
</g>
</g>
</svg>
