<?xml version="1.0" encoding="UTF-8" standalone="no"?>
<!DOCTYPE svg PUBLIC "-//W3C//DTD SVG 1.1//EN"
 "http://www.w3.org/Graphics/SVG/1.1/DTD/svg11.dtd">
<!-- Generated by graphviz version 2.40.1 (20161225.0304)
 -->
<!-- Title: LHPC::SLHA::BlockInterpreter Pages: 1 -->
<svg width="243pt" height="341pt"
 viewBox="0.00 0.00 242.50 341.00" xmlns="http://www.w3.org/2000/svg" xmlns:xlink="http://www.w3.org/1999/xlink">
<g id="graph0" class="graph" transform="scale(1 1) rotate(0) translate(4 337)">
<title>LHPC::SLHA::BlockInterpreter</title>
<!-- Node17 -->
<g id="node1" class="node">
<title>Node17</title>
<polygon fill="#bfbfbf" stroke="#000000" points="28.5,-.5 28.5,-17.5 152.5,-17.5 152.5,-.5 28.5,-.5"/>
<text text-anchor="middle" x="90.5" y="-7.1" font-family="Helvetica,sans-Serif" font-size="8.00" fill="#000000">LHPC::SLHA::BlockInterpreter</text>
</g>
<!-- Node18 -->
<g id="node2" class="node">
<title>Node18</title>
<g id="a_node2"><a xlink:href="../../d2/d43/class_b_o_l_1_1_string_parser.html" target="_top" xlink:title="BOL::StringParser">
<polygon fill="none" stroke="#000000" points="0,-86 0,-103 81,-103 81,-86 0,-86"/>
<text text-anchor="middle" x="40.5" y="-92.6" font-family="Helvetica,sans-Serif" font-size="8.00" fill="#000000">BOL::StringParser</text>
</a>
</g>
</g>
<!-- Node18&#45;&gt;Node17 -->
<g id="edge1" class="edge">
<title>Node18&#45;&gt;Node17</title>
<path fill="none" stroke="#9a32cd" stroke-dasharray="5,2" d="M40.4619,-75.4613C41.2669,-63.3065 43.9125,-47.694 51.5,-36 56.5203,-28.2627 64.6127,-22.1275 72.1281,-17.6736"/>
<polygon fill="#9a32cd" stroke="#9a32cd" points="36.9528,-75.7146 40.1528,-85.8146 43.9497,-75.9236 36.9528,-75.7146"/>
<text text-anchor="middle" x="85.5" y="-56.6" font-family="Helvetica,sans-Serif" font-size="8.00" fill="#000000"> slhaIntHelper</text>
<text text-anchor="middle" x="85.5" y="-47.6" font-family="Helvetica,sans-Serif" font-size="8.00" fill="#000000">slhaDoubleMaker</text>
<text text-anchor="middle" x="85.5" y="-38.6" font-family="Helvetica,sans-Serif" font-size="8.00" fill="#000000">particleCodeMaker</text>
</g>
<!-- Node19 -->
<g id="node3" class="node">
<title>Node19</title>
<g id="a_node3"><a xlink:href="../../dc/d7c/class_l_h_p_c_1_1_s_l_h_a_1_1_block_class_1_1_base_string_block.html" target="_top" xlink:title="LHPC::SLHA::BlockClass\l::BaseStringBlock">
<polygon fill="none" stroke="#000000" points="99,-81.5 99,-107.5 206,-107.5 206,-81.5 99,-81.5"/>
<text text-anchor="start" x="107" y="-97.1" font-family="Helvetica,sans-Serif" font-size="8.00" fill="#000000">LHPC::SLHA::BlockClass</text>
<text text-anchor="middle" x="152.5" y="-88.1" font-family="Helvetica,sans-Serif" font-size="8.00" fill="#000000">::BaseStringBlock</text>
</a>
</g>
</g>
<!-- Node19&#45;&gt;Node17 -->
<g id="edge2" class="edge">
<title>Node19&#45;&gt;Node17</title>
<path fill="none" stroke="#9a32cd" stroke-dasharray="5,2" d="M141.8832,-72.0021C136.0378,-60.68 128.2077,-47.051 119.5,-36 114.1356,-29.1919 107.0265,-22.5448 101.1898,-17.5495"/>
<polygon fill="#9a32cd" stroke="#9a32cd" points="138.8905,-73.8441 146.4814,-81.2352 145.1564,-70.7235 138.8905,-73.8441"/>
<text text-anchor="middle" x="170.5" y="-47.6" font-family="Helvetica,sans-Serif" font-size="8.00" fill="#000000"> currentStringBlock</text>
</g>
<!-- Node20 -->
<g id="node4" class="node">
<title>Node20</title>
<g id="a_node4"><a xlink:href="../../de/da2/class_b_o_l_1_1_vectorlike_array.html" target="_top" xlink:title="BOL::VectorlikeArray\l\&lt; std::pair\&lt; std::string,\l std::string \&gt; \&gt;">
<polygon fill="none" stroke="#000000" points="104.5,-153.5 104.5,-188.5 200.5,-188.5 200.5,-153.5 104.5,-153.5"/>
<text text-anchor="start" x="112.5" y="-178.1" font-family="Helvetica,sans-Serif" font-size="8.00" fill="#000000">BOL::VectorlikeArray</text>
<text text-anchor="start" x="112.5" y="-169.1" font-family="Helvetica,sans-Serif" font-size="8.00" fill="#000000">&lt; std::pair&lt; std::string,</text>
<text text-anchor="middle" x="152.5" y="-160.1" font-family="Helvetica,sans-Serif" font-size="8.00" fill="#000000"> std::string &gt; &gt;</text>
</a>
</g>
</g>
<!-- Node20&#45;&gt;Node19 -->
<g id="edge3" class="edge">
<title>Node20&#45;&gt;Node19</title>
<path fill="none" stroke="#9a32cd" stroke-dasharray="5,2" d="M152.5,-143.1175C152.5,-130.9837 152.5,-117.3443 152.5,-107.6073"/>
<polygon fill="#9a32cd" stroke="#9a32cd" points="149.0001,-143.257 152.5,-153.2571 156.0001,-143.2571 149.0001,-143.257"/>
<text text-anchor="middle" x="180.5" y="-128.6" font-family="Helvetica,sans-Serif" font-size="8.00" fill="#000000"> stringPairArray</text>
</g>
<!-- Node21 -->
<g id="node5" class="node">
<title>Node21</title>
<g id="a_node5"><a xlink:href="../../de/da2/class_b_o_l_1_1_vectorlike_array.html" target="_top" xlink:title="BOL::VectorlikeArray\l\&lt; StoredClass \&gt;">
<polygon fill="none" stroke="#000000" points="107,-243.5 107,-269.5 198,-269.5 198,-243.5 107,-243.5"/>
<text text-anchor="start" x="115" y="-259.1" font-family="Helvetica,sans-Serif" font-size="8.00" fill="#000000">BOL::VectorlikeArray</text>
<text text-anchor="middle" x="152.5" y="-250.1" font-family="Helvetica,sans-Serif" font-size="8.00" fill="#000000">&lt; StoredClass &gt;</text>
</a>
</g>
</g>
<!-- Node21&#45;&gt;Node20 -->
<g id="edge4" class="edge">
<title>Node21&#45;&gt;Node20</title>
<path fill="none" stroke="#ffa500" stroke-dasharray="5,2" d="M152.5,-232.8289C152.5,-218.867 152.5,-201.4893 152.5,-188.7157"/>
<polygon fill="#ffa500" stroke="#ffa500" points="149.0001,-233.1406 152.5,-243.1406 156.0001,-233.1407 149.0001,-233.1406"/>
<text text-anchor="start" x="152.5" y="-218.6" font-family="Helvetica,sans-Serif" font-size="8.00" fill="#000000"> &lt; std::pair&lt; std::string,</text>
<text text-anchor="middle" x="193.5" y="-209.6" font-family="Helvetica,sans-Serif" font-size="8.00" fill="#000000"> std::string &gt; &gt;</text>
</g>
<!-- Node22 -->
<g id="node6" class="node">
<title>Node22</title>
<polygon fill="none" stroke="#bfbfbf" points="122.5,-315.5 122.5,-332.5 182.5,-332.5 182.5,-315.5 122.5,-315.5"/>
<text text-anchor="middle" x="152.5" y="-322.1" font-family="Helvetica,sans-Serif" font-size="8.00" fill="#000000">StoredClass</text>
</g>
<!-- Node22&#45;&gt;Node21 -->
<g id="edge5" class="edge">
<title>Node22&#45;&gt;Node21</title>
<path fill="none" stroke="#9a32cd" stroke-dasharray="5,2" d="M152.5,-305.3829C152.5,-294.1182 152.5,-280.017 152.5,-269.8585"/>
<polygon fill="#9a32cd" stroke="#9a32cd" points="149.0001,-305.451 152.5,-315.4511 156.0001,-305.4511 149.0001,-305.451"/>
<text text-anchor="middle" x="175.5" y="-290.6" font-family="Helvetica,sans-Serif" font-size="8.00" fill="#000000"> pointerArray</text>
</g>
</g>
</svg>
