<?xml version="1.0" encoding="UTF-8" standalone="no"?>
<!DOCTYPE svg PUBLIC "-//W3C//DTD SVG 1.1//EN"
 "http://www.w3.org/Graphics/SVG/1.1/DTD/svg11.dtd">
<!-- Generated by graphviz version 2.40.1 (20161225.0304)
 -->
<!-- Title: SlhaValueSingleColor.cpp Pages: 1 -->
<svg width="213pt" height="197pt"
 viewBox="0.00 0.00 212.50 197.00" xmlns="http://www.w3.org/2000/svg" xmlns:xlink="http://www.w3.org/1999/xlink">
<g id="graph0" class="graph" transform="scale(1 1) rotate(0) translate(4 193)">
<title>SlhaValueSingleColor.cpp</title>
<!-- Node0 -->
<g id="node1" class="node">
<title>Node0</title>
<polygon fill="#bfbfbf" stroke="#000000" points="62.5,-171.5 62.5,-188.5 171.5,-188.5 171.5,-171.5 62.5,-171.5"/>
<text text-anchor="middle" x="117" y="-178.1" font-family="Helvetica,sans-Serif" font-size="8.00" fill="#000000">SlhaValueSingleColor.cpp</text>
</g>
<!-- Node1 -->
<g id="node2" class="node">
<title>Node1</title>
<g id="a_node2"><a xlink:href="../../dd/d18/_slha_value_single_color_8hpp.html" target="_top" xlink:title="../../include/SSP/SlhaValue\lSingleColor.hpp">
<polygon fill="none" stroke="#000000" points="61,-108.5 61,-134.5 173,-134.5 173,-108.5 61,-108.5"/>
<text text-anchor="start" x="69" y="-124.1" font-family="Helvetica,sans-Serif" font-size="8.00" fill="#000000">../../include/SSP/SlhaValue</text>
<text text-anchor="middle" x="117" y="-115.1" font-family="Helvetica,sans-Serif" font-size="8.00" fill="#000000">SingleColor.hpp</text>
</a>
</g>
</g>
<!-- Node0&#45;&gt;Node1 -->
<g id="edge1" class="edge">
<title>Node0&#45;&gt;Node1</title>
<path fill="none" stroke="#191970" d="M117,-171.3681C117,-164.3481 117,-154.1043 117,-144.7246"/>
<polygon fill="#191970" stroke="#191970" points="120.5001,-144.7197 117,-134.7197 113.5001,-144.7198 120.5001,-144.7197"/>
</g>
<!-- Node2 -->
<g id="node3" class="node">
<title>Node2</title>
<polygon fill="none" stroke="#bfbfbf" points="0,-.5 0,-17.5 36,-17.5 36,-.5 0,-.5"/>
<text text-anchor="middle" x="18" y="-7.1" font-family="Helvetica,sans-Serif" font-size="8.00" fill="#000000">string</text>
</g>
<!-- Node1&#45;&gt;Node2 -->
<g id="edge2" class="edge">
<title>Node1&#45;&gt;Node2</title>
<path fill="none" stroke="#191970" d="M60.8098,-109.1752C40.9665,-101.8293 20.6962,-90.2269 9,-72 .4309,-58.6462 4.3081,-40.4491 9.3641,-27.0449"/>
<polygon fill="#191970" stroke="#191970" points="12.73,-28.0766 13.4565,-17.5067 6.2971,-25.3166 12.73,-28.0766"/>
</g>
<!-- Node3 -->
<g id="node4" class="node">
<title>Node3</title>
<polygon fill="none" stroke="#bfbfbf" points="66.5,-.5 66.5,-17.5 113.5,-17.5 113.5,-.5 66.5,-.5"/>
<text text-anchor="middle" x="90" y="-7.1" font-family="Helvetica,sans-Serif" font-size="8.00" fill="#000000">iostream</text>
</g>
<!-- Node1&#45;&gt;Node3 -->
<g id="edge3" class="edge">
<title>Node1&#45;&gt;Node3</title>
<path fill="none" stroke="#191970" d="M127.6834,-108.3094C137.4754,-94.5175 149.2877,-72.3653 141,-54 135.3841,-41.5553 124.4373,-31.1723 114.1208,-23.5273"/>
<polygon fill="#191970" stroke="#191970" points="115.9579,-20.5431 105.734,-17.7643 111.9936,-26.3123 115.9579,-20.5431"/>
</g>
<!-- Node4 -->
<g id="node5" class="node">
<title>Node4</title>
<polygon fill="none" stroke="#bfbfbf" points="161.5,-.5 161.5,-17.5 204.5,-17.5 204.5,-.5 161.5,-.5"/>
<text text-anchor="middle" x="183" y="-7.1" font-family="Helvetica,sans-Serif" font-size="8.00" fill="#000000">fstream</text>
</g>
<!-- Node1&#45;&gt;Node4 -->
<g id="edge4" class="edge">
<title>Node1&#45;&gt;Node4</title>
<path fill="none" stroke="#191970" d="M128.9468,-108.3313C137.246,-98.7376 148.1764,-85.168 156,-72 164.4525,-57.7736 171.6891,-40.4131 176.5367,-27.5213"/>
<polygon fill="#191970" stroke="#191970" points="179.9031,-28.5044 180.021,-17.9103 173.3222,-26.1186 179.9031,-28.5044"/>
</g>
<!-- Node5 -->
<g id="node6" class="node">
<title>Node5</title>
<g id="a_node6"><a xlink:href="../../dd/d02/_slha_value_line_coloring_8hpp.html" target="_top" xlink:title="SlhaValueLineColoring.hpp">
<polygon fill="none" stroke="#000000" points="18.5,-54.5 18.5,-71.5 131.5,-71.5 131.5,-54.5 18.5,-54.5"/>
<text text-anchor="middle" x="75" y="-61.1" font-family="Helvetica,sans-Serif" font-size="8.00" fill="#000000">SlhaValueLineColoring.hpp</text>
</a>
</g>
</g>
<!-- Node1&#45;&gt;Node5 -->
<g id="edge5" class="edge">
<title>Node1&#45;&gt;Node5</title>
<path fill="none" stroke="#191970" d="M107.4695,-108.2254C101.4431,-99.8314 93.5988,-88.9054 87.1301,-79.8955"/>
<polygon fill="#191970" stroke="#191970" points="89.9135,-77.771 81.2382,-71.689 84.2272,-81.8535 89.9135,-77.771"/>
</g>
<!-- Node5&#45;&gt;Node2 -->
<g id="edge7" class="edge">
<title>Node5&#45;&gt;Node2</title>
<path fill="none" stroke="#191970" d="M65.842,-54.324C57.4985,-46.4196 44.9676,-34.5482 34.8231,-24.9377"/>
<polygon fill="#191970" stroke="#191970" points="36.9913,-22.1705 27.3247,-17.8339 32.1771,-27.2522 36.9913,-22.1705"/>
</g>
<!-- Node5&#45;&gt;Node3 -->
<g id="edge6" class="edge">
<title>Node5&#45;&gt;Node3</title>
<path fill="none" stroke="#191970" d="M77.4769,-54.083C79.4865,-46.8486 82.3865,-36.4087 84.8898,-27.3968"/>
<polygon fill="#191970" stroke="#191970" points="88.2649,-28.323 87.5691,-17.7511 81.5203,-26.4495 88.2649,-28.323"/>
</g>
<!-- Node5&#45;&gt;Node4 -->
<g id="edge8" class="edge">
<title>Node5&#45;&gt;Node4</title>
<path fill="none" stroke="#191970" d="M92.3521,-54.324C109.6719,-45.6641 136.5153,-32.2424 156.5019,-22.249"/>
<polygon fill="#191970" stroke="#191970" points="158.312,-25.2572 165.691,-17.6545 155.1814,-18.9962 158.312,-25.2572"/>
</g>
</g>
</svg>
