<?xml version="1.0" encoding="UTF-8" standalone="no"?>
<!DOCTYPE svg PUBLIC "-//W3C//DTD SVG 1.1//EN"
 "http://www.w3.org/Graphics/SVG/1.1/DTD/svg11.dtd">
<!-- Generated by graphviz version 2.40.1 (20161225.0304)
 -->
<!-- Title: THDMWEWPO.h Pages: 1 -->
<svg width="334pt" height="242pt"
 viewBox="0.00 0.00 333.65 242.00" xmlns="http://www.w3.org/2000/svg" xmlns:xlink="http://www.w3.org/1999/xlink">
<g id="graph0" class="graph" transform="scale(1 1) rotate(0) translate(4 238)">
<title>THDMWEWPO.h</title>
<!-- Node0 -->
<g id="node1" class="node">
<title>Node0</title>
<polygon fill="#bfbfbf" stroke="#000000" points="109,-216.5 109,-233.5 187,-233.5 187,-216.5 109,-216.5"/>
<text text-anchor="middle" x="148" y="-223.1" font-family="Helvetica,sans-Serif" font-size="8.00" fill="#000000">THDMWEWPO.h</text>
</g>
<!-- Node1 -->
<g id="node2" class="node">
<title>Node1</title>
<g id="a_node2"><a xlink:href="../../dd/dcd/_th_observable_8h.html" target="_top" xlink:title="ThObservable.h">
<polygon fill="none" stroke="#000000" points="27.5,-162.5 27.5,-179.5 100.5,-179.5 100.5,-162.5 27.5,-162.5"/>
<text text-anchor="middle" x="64" y="-169.1" font-family="Helvetica,sans-Serif" font-size="8.00" fill="#000000">ThObservable.h</text>
</a>
</g>
</g>
<!-- Node0&#45;&gt;Node1 -->
<g id="edge1" class="edge">
<title>Node0&#45;&gt;Node1</title>
<path fill="none" stroke="#191970" d="M134.5039,-216.324C121.4004,-207.9002 101.2881,-194.9709 85.8931,-185.0741"/>
<polygon fill="#191970" stroke="#191970" points="87.767,-182.118 77.4626,-179.6545 83.9817,-188.0063 87.767,-182.118"/>
</g>
<!-- Node4 -->
<g id="node5" class="node">
<title>Node4</title>
<g id="a_node5"><a xlink:href="../../d7/dfb/_t_h_d_m_w_8h.html" target="_top" xlink:title="THDMW.h">
<polygon fill="none" stroke="#000000" points="189,-108.5 189,-125.5 243,-125.5 243,-108.5 189,-108.5"/>
<text text-anchor="middle" x="216" y="-115.1" font-family="Helvetica,sans-Serif" font-size="8.00" fill="#000000">THDMW.h</text>
</a>
</g>
</g>
<!-- Node0&#45;&gt;Node4 -->
<g id="edge4" class="edge">
<title>Node0&#45;&gt;Node4</title>
<path fill="none" stroke="#191970" d="M153.0411,-216.365C160.206,-204.1568 173.8195,-181.1981 186,-162 191.9208,-152.6681 198.7389,-142.4046 204.3777,-134.0389"/>
<polygon fill="#191970" stroke="#191970" points="207.4176,-135.7921 210.1321,-125.5509 201.6236,-131.864 207.4176,-135.7921"/>
</g>
<!-- Node5 -->
<g id="node6" class="node">
<title>Node5</title>
<g id="a_node6"><a xlink:href="../../d6/d0a/_standard_model_8h.html" target="_top" xlink:title="StandardModel.h">
<polygon fill="none" stroke="#ff0000" points="248.5,-.5 248.5,-17.5 325.5,-17.5 325.5,-.5 248.5,-.5"/>
<text text-anchor="middle" x="287" y="-7.1" font-family="Helvetica,sans-Serif" font-size="8.00" fill="#000000">StandardModel.h</text>
</a>
</g>
</g>
<!-- Node0&#45;&gt;Node5 -->
<g id="edge12" class="edge">
<title>Node0&#45;&gt;Node5</title>
<path fill="none" stroke="#191970" d="M144.8518,-216.4755C135.5046,-189.5583 110.8045,-105.1379 148,-54 158.9445,-38.9531 202.9945,-26.3736 238.6119,-18.375"/>
<polygon fill="#191970" stroke="#191970" points="239.3742,-21.7911 248.3997,-16.2423 237.8838,-14.9516 239.3742,-21.7911"/>
</g>
<!-- Node55 -->
<g id="node9" class="node">
<title>Node55</title>
<g id="a_node9"><a xlink:href="../../d2/de6/_t_h_d_m_wcache_8h.html" target="_top" xlink:title="THDMWcache.h">
<polygon fill="none" stroke="#ff0000" points="195.5,-162.5 195.5,-179.5 270.5,-179.5 270.5,-162.5 195.5,-162.5"/>
<text text-anchor="middle" x="233" y="-169.1" font-family="Helvetica,sans-Serif" font-size="8.00" fill="#000000">THDMWcache.h</text>
</a>
</g>
</g>
<!-- Node0&#45;&gt;Node55 -->
<g id="edge9" class="edge">
<title>Node0&#45;&gt;Node55</title>
<path fill="none" stroke="#191970" d="M161.6567,-216.324C174.9163,-207.9002 195.268,-194.9709 210.8462,-185.0741"/>
<polygon fill="#191970" stroke="#191970" points="212.8133,-187.9711 219.3772,-179.6545 209.0596,-182.0626 212.8133,-187.9711"/>
</g>
<!-- Node2 -->
<g id="node3" class="node">
<title>Node2</title>
<polygon fill="none" stroke="#bfbfbf" points="54,-108.5 54,-125.5 92,-125.5 92,-108.5 54,-108.5"/>
<text text-anchor="middle" x="73" y="-115.1" font-family="Helvetica,sans-Serif" font-size="8.00" fill="#000000">vector</text>
</g>
<!-- Node1&#45;&gt;Node2 -->
<g id="edge2" class="edge">
<title>Node1&#45;&gt;Node2</title>
<path fill="none" stroke="#191970" d="M65.4862,-162.083C66.6788,-154.9272 68.3941,-144.6353 69.8848,-135.6911"/>
<polygon fill="#191970" stroke="#191970" points="73.3498,-136.1904 71.5415,-125.7511 66.445,-135.0396 73.3498,-136.1904"/>
</g>
<!-- Node3 -->
<g id="node4" class="node">
<title>Node3</title>
<polygon fill="none" stroke="#bfbfbf" points="0,-108.5 0,-125.5 36,-125.5 36,-108.5 0,-108.5"/>
<text text-anchor="middle" x="18" y="-115.1" font-family="Helvetica,sans-Serif" font-size="8.00" fill="#000000">string</text>
</g>
<!-- Node1&#45;&gt;Node3 -->
<g id="edge3" class="edge">
<title>Node1&#45;&gt;Node3</title>
<path fill="none" stroke="#191970" d="M56.404,-162.083C49.7725,-154.2982 39.979,-142.8015 31.9419,-133.3665"/>
<polygon fill="#191970" stroke="#191970" points="34.6037,-131.0939 25.4546,-125.7511 29.275,-135.6332 34.6037,-131.0939"/>
</g>
<!-- Node4&#45;&gt;Node5 -->
<g id="edge5" class="edge">
<title>Node4&#45;&gt;Node5</title>
<path fill="none" stroke="#191970" d="M243.2088,-109.198C271.4936,-100.4722 312.8968,-85.7541 322,-72 332.2754,-56.4749 318.7816,-37.7136 305.6783,-24.723"/>
<polygon fill="#191970" stroke="#191970" points="307.9123,-22.022 298.191,-17.8093 303.1635,-27.1648 307.9123,-22.022"/>
</g>
<!-- Node51 -->
<g id="node7" class="node">
<title>Node51</title>
<g id="a_node7"><a xlink:href="../../d4/d00/_t_h_d_m_w_matching_8h.html" target="_top" xlink:title="THDMWMatching.h">
<polygon fill="none" stroke="#ff0000" points="157,-54.5 157,-71.5 243,-71.5 243,-54.5 157,-54.5"/>
<text text-anchor="middle" x="200" y="-61.1" font-family="Helvetica,sans-Serif" font-size="8.00" fill="#000000">THDMWMatching.h</text>
</a>
</g>
</g>
<!-- Node4&#45;&gt;Node51 -->
<g id="edge6" class="edge">
<title>Node4&#45;&gt;Node51</title>
<path fill="none" stroke="#191970" d="M213.3579,-108.083C211.2144,-100.8486 208.1211,-90.4087 205.4509,-81.3968"/>
<polygon fill="#191970" stroke="#191970" points="208.7897,-80.3447 202.5929,-71.7511 202.0781,-82.3334 208.7897,-80.3447"/>
</g>
<!-- Node54 -->
<g id="node8" class="node">
<title>Node54</title>
<g id="a_node8"><a xlink:href="../../d2/de8/_n_pbase_8h.html" target="_top" xlink:title="NPbase.h">
<polygon fill="none" stroke="#000000" points="261,-54.5 261,-71.5 313,-71.5 313,-54.5 261,-54.5"/>
<text text-anchor="middle" x="287" y="-61.1" font-family="Helvetica,sans-Serif" font-size="8.00" fill="#000000">NPbase.h</text>
</a>
</g>
</g>
<!-- Node4&#45;&gt;Node54 -->
<g id="edge7" class="edge">
<title>Node4&#45;&gt;Node54</title>
<path fill="none" stroke="#191970" d="M227.4074,-108.324C238.1088,-100.1849 254.3407,-87.8395 267.1628,-78.0874"/>
<polygon fill="#191970" stroke="#191970" points="269.5444,-80.6734 275.3851,-71.8339 265.3068,-75.1018 269.5444,-80.6734"/>
</g>
<!-- Node54&#45;&gt;Node5 -->
<g id="edge8" class="edge">
<title>Node54&#45;&gt;Node5</title>
<path fill="none" stroke="#191970" d="M287,-54.083C287,-47.0059 287,-36.8611 287,-27.9865"/>
<polygon fill="#191970" stroke="#191970" points="290.5001,-27.751 287,-17.7511 283.5001,-27.7511 290.5001,-27.751"/>
</g>
<!-- Node55&#45;&gt;Node4 -->
<g id="edge11" class="edge">
<title>Node55&#45;&gt;Node4</title>
<path fill="none" stroke="#191970" d="M230.1928,-162.083C227.9153,-154.8486 224.6287,-144.4087 221.7916,-135.3968"/>
<polygon fill="#191970" stroke="#191970" points="225.0964,-134.2385 218.755,-125.7511 218.4194,-136.3406 225.0964,-134.2385"/>
</g>
<!-- Node48 -->
<g id="node10" class="node">
<title>Node48</title>
<polygon fill="none" stroke="#bfbfbf" points="261,-108.5 261,-125.5 299,-125.5 299,-108.5 261,-108.5"/>
<text text-anchor="middle" x="280" y="-115.1" font-family="Helvetica,sans-Serif" font-size="8.00" fill="#000000">cmath</text>
</g>
<!-- Node55&#45;&gt;Node48 -->
<g id="edge10" class="edge">
<title>Node55&#45;&gt;Node48</title>
<path fill="none" stroke="#191970" d="M240.7611,-162.083C247.5368,-154.2982 257.5432,-142.8015 265.7551,-133.3665"/>
<polygon fill="#191970" stroke="#191970" points="268.4581,-135.592 272.3833,-125.7511 263.178,-130.9963 268.4581,-135.592"/>
</g>
</g>
</svg>
