<?xml version="1.0" encoding="UTF-8" standalone="no"?>
<!DOCTYPE svg PUBLIC "-//W3C//DTD SVG 1.1//EN"
 "http://www.w3.org/Graphics/SVG/1.1/DTD/svg11.dtd">
<!-- Generated by graphviz version 2.38.0 (20140413.2041)
 -->
<!-- Title: WilsonTemplate&lt; T &gt; Pages: 1 -->
<svg width="567pt" height="134pt"
 viewBox="0.00 0.00 567.00 134.00" xmlns="http://www.w3.org/2000/svg" xmlns:xlink="http://www.w3.org/1999/xlink">
<g id="graph0" class="graph" transform="scale(1 1) rotate(0) translate(4 130)">
<title>WilsonTemplate&lt; T &gt;</title>
<!-- Node1 -->
<g id="node1" class="node"><title>Node1</title>
<polygon fill="#bfbfbf" stroke="black" points="0,-32.5 0,-49.5 93,-49.5 93,-32.5 0,-32.5"/>
<text text-anchor="middle" x="46.5" y="-39.1" font-family="Helvetica,sans-Serif" font-size="8.00">WilsonTemplate&lt; T &gt;</text>
</g>
<!-- Node2 -->
<g id="node2" class="node"><title>Node2</title>
<g id="a_node2"><a xlink:href="../../dd/d6f/class_wilson_template.html" target="_top" xlink:title="WilsonTemplate\&lt; gslpp\l::matrix\&lt; double \&gt; \&gt;">
<polygon fill="none" stroke="black" points="237.5,-50 237.5,-76 337.5,-76 337.5,-50 237.5,-50"/>
<text text-anchor="start" x="245.5" y="-65.6" font-family="Helvetica,sans-Serif" font-size="8.00">WilsonTemplate&lt; gslpp</text>
<text text-anchor="middle" x="287.5" y="-56.6" font-family="Helvetica,sans-Serif" font-size="8.00">::matrix&lt; double &gt; &gt;</text>
</a>
</g>
</g>
<!-- Node1&#45;&gt;Node2 -->
<g id="edge1" class="edge"><title>Node1&#45;&gt;Node2</title>
<path fill="none" stroke="orange" stroke-dasharray="5,2" d="M103.036,-46.1121C143.705,-49.8557 198.389,-54.8893 237.451,-58.485"/>
<polygon fill="orange" stroke="orange" points="103.295,-42.6213 93.0166,-45.1898 102.654,-49.5918 103.295,-42.6213"/>
<text text-anchor="middle" x="161" y="-57.6" font-family="Helvetica,sans-Serif" font-size="8.00"> &lt; gslpp::matrix&lt; double &gt; &gt;</text>
</g>
<!-- Node8 -->
<g id="node8" class="node"><title>Node8</title>
<g id="a_node8"><a xlink:href="../../dd/d6f/class_wilson_template.html" target="_top" xlink:title="WilsonTemplate\&lt; gslpp\l::vector\&lt; gslpp::complex \&gt; \&gt;">
<polygon fill="none" stroke="black" points="229,-5 229,-31 346,-31 346,-5 229,-5"/>
<text text-anchor="start" x="237" y="-20.6" font-family="Helvetica,sans-Serif" font-size="8.00">WilsonTemplate&lt; gslpp</text>
<text text-anchor="middle" x="287.5" y="-11.6" font-family="Helvetica,sans-Serif" font-size="8.00">::vector&lt; gslpp::complex &gt; &gt;</text>
</a>
</g>
</g>
<!-- Node1&#45;&gt;Node8 -->
<g id="edge7" class="edge"><title>Node1&#45;&gt;Node8</title>
<path fill="none" stroke="orange" stroke-dasharray="5,2" d="M84.022,-29.7052C92.7788,-27.4206 102.157,-25.3174 111,-24 150.049,-18.183 194.501,-16.7158 228.897,-16.6862"/>
<polygon fill="orange" stroke="orange" points="82.8108,-26.4083 74.0966,-32.4344 84.6667,-33.1578 82.8108,-26.4083"/>
<text text-anchor="start" x="120.5" y="-35.6" font-family="Helvetica,sans-Serif" font-size="8.00"> &lt; gslpp::vector&lt; gslpp</text>
<text text-anchor="middle" x="161" y="-26.6" font-family="Helvetica,sans-Serif" font-size="8.00">::complex &gt; &gt;</text>
</g>
<!-- Node3 -->
<g id="node3" class="node"><title>Node3</title>
<g id="a_node3"><a xlink:href="../../d9/d15/class_r_g_evolutor.html" target="_top" xlink:title="A class for the RG evolutor of the Wilson coefficients. ">
<polygon fill="none" stroke="black" points="393,-54.5 393,-71.5 451,-71.5 451,-54.5 393,-54.5"/>
<text text-anchor="middle" x="422" y="-61.1" font-family="Helvetica,sans-Serif" font-size="8.00">RGEvolutor</text>
</a>
</g>
</g>
<!-- Node2&#45;&gt;Node3 -->
<g id="edge2" class="edge"><title>Node2&#45;&gt;Node3</title>
<path fill="none" stroke="midnightblue" d="M347.98,-63C363.58,-63 379.685,-63 392.789,-63"/>
<polygon fill="midnightblue" stroke="midnightblue" points="347.838,-59.5001 337.838,-63 347.838,-66.5001 347.838,-59.5001"/>
</g>
<!-- Node4 -->
<g id="node4" class="node"><title>Node4</title>
<g id="a_node4"><a xlink:href="../../dd/d00/class_evol_bsmm.html" target="_top" xlink:title="EvolBsmm">
<polygon fill="none" stroke="black" points="501,-108.5 501,-125.5 556,-125.5 556,-108.5 501,-108.5"/>
<text text-anchor="middle" x="528.5" y="-115.1" font-family="Helvetica,sans-Serif" font-size="8.00">EvolBsmm</text>
</a>
</g>
</g>
<!-- Node3&#45;&gt;Node4 -->
<g id="edge3" class="edge"><title>Node3&#45;&gt;Node4</title>
<path fill="none" stroke="midnightblue" d="M448.687,-76.2739C468.037,-86.2729 494.009,-99.6935 510.752,-108.345"/>
<polygon fill="midnightblue" stroke="midnightblue" points="450.28,-73.1575 439.79,-71.676 447.067,-79.3762 450.28,-73.1575"/>
</g>
<!-- Node5 -->
<g id="node5" class="node"><title>Node5</title>
<g id="a_node5"><a xlink:href="../../dc/d99/class_evol_d_b1bsg.html" target="_top" xlink:title="EvolDB1bsg">
<polygon fill="none" stroke="black" points="498,-72.5 498,-89.5 559,-89.5 559,-72.5 498,-72.5"/>
<text text-anchor="middle" x="528.5" y="-79.1" font-family="Helvetica,sans-Serif" font-size="8.00">EvolDB1bsg</text>
</a>
</g>
</g>
<!-- Node3&#45;&gt;Node5 -->
<g id="edge4" class="edge"><title>Node3&#45;&gt;Node5</title>
<path fill="none" stroke="midnightblue" d="M460.921,-69.5319C473.121,-71.6333 486.45,-73.9293 497.956,-75.9111"/>
<polygon fill="midnightblue" stroke="midnightblue" points="461.453,-66.072 451.004,-67.8237 460.265,-72.9704 461.453,-66.072"/>
</g>
<!-- Node6 -->
<g id="node6" class="node"><title>Node6</title>
<g id="a_node6"><a xlink:href="../../de/def/class_evol_d_b1_mll.html" target="_top" xlink:title="EvolDB1Mll">
<polygon fill="none" stroke="black" points="499.5,-36.5 499.5,-53.5 557.5,-53.5 557.5,-36.5 499.5,-36.5"/>
<text text-anchor="middle" x="528.5" y="-43.1" font-family="Helvetica,sans-Serif" font-size="8.00">EvolDB1Mll</text>
</a>
</g>
</g>
<!-- Node3&#45;&gt;Node6 -->
<g id="edge5" class="edge"><title>Node3&#45;&gt;Node6</title>
<path fill="none" stroke="midnightblue" d="M460.885,-56.4744C473.615,-54.2816 487.579,-51.8764 499.419,-49.837"/>
<polygon fill="midnightblue" stroke="midnightblue" points="460.265,-53.0296 451.004,-58.1763 461.453,-59.928 460.265,-53.0296"/>
</g>
<!-- Node7 -->
<g id="node7" class="node"><title>Node7</title>
<g id="a_node7"><a xlink:href="../../d6/d86/class_evol_d_f2.html" target="_top" xlink:title="EvolDF2">
<polygon fill="none" stroke="black" points="505,-0.5 505,-17.5 552,-17.5 552,-0.5 505,-0.5"/>
<text text-anchor="middle" x="528.5" y="-7.1" font-family="Helvetica,sans-Serif" font-size="8.00">EvolDF2</text>
</a>
</g>
</g>
<!-- Node3&#45;&gt;Node7 -->
<g id="edge6" class="edge"><title>Node3&#45;&gt;Node7</title>
<path fill="none" stroke="midnightblue" d="M448.687,-49.7261C468.037,-39.7271 494.009,-26.3065 510.752,-17.6545"/>
<polygon fill="midnightblue" stroke="midnightblue" points="447.067,-46.6238 439.79,-54.324 450.28,-52.8425 447.067,-46.6238"/>
</g>
<!-- Node9 -->
<g id="node9" class="node"><title>Node9</title>
<g id="a_node9"><a xlink:href="../../d2/d95/class_wilson_coefficient.html" target="_top" xlink:title="A class for the Wilson coefficients. ">
<polygon fill="none" stroke="black" points="383,-9.5 383,-26.5 461,-26.5 461,-9.5 383,-9.5"/>
<text text-anchor="middle" x="422" y="-16.1" font-family="Helvetica,sans-Serif" font-size="8.00">WilsonCoefficient</text>
</a>
</g>
</g>
<!-- Node8&#45;&gt;Node9 -->
<g id="edge8" class="edge"><title>Node8&#45;&gt;Node9</title>
<path fill="none" stroke="midnightblue" d="M356.468,-18C365.552,-18 374.592,-18 382.906,-18"/>
<polygon fill="midnightblue" stroke="midnightblue" points="356.231,-14.5001 346.231,-18 356.231,-21.5001 356.231,-14.5001"/>
</g>
</g>
</svg>
