<?xml version="1.0" encoding="UTF-8" standalone="no"?>
<!DOCTYPE svg PUBLIC "-//W3C//DTD SVG 1.1//EN"
 "http://www.w3.org/Graphics/SVG/1.1/DTD/svg11.dtd">
<!-- Generated by graphviz version 2.40.1 (20161225.0304)
 -->
<!-- Title: GeneralTHDMgminus2.h Pages: 1 -->
<svg width="260pt" height="134pt"
 viewBox="0.00 0.00 259.50 134.00" xmlns="http://www.w3.org/2000/svg" xmlns:xlink="http://www.w3.org/1999/xlink">
<g id="graph0" class="graph" transform="scale(1 1) rotate(0) translate(4 130)">
<title>GeneralTHDMgminus2.h</title>
<!-- Node55 -->
<g id="node1" class="node">
<title>Node55</title>
<polygon fill="#bfbfbf" stroke="#000000" points="71,-108.5 71,-125.5 176,-125.5 176,-108.5 71,-108.5"/>
<text text-anchor="middle" x="123.5" y="-115.1" font-family="Helvetica,sans-Serif" font-size="8.00" fill="#000000">GeneralTHDMgminus2.h</text>
</g>
<!-- Node56 -->
<g id="node2" class="node">
<title>Node56</title>
<g id="a_node2"><a xlink:href="../../de/dea/_general_t_h_d_mgminus2_8cpp.html" target="_top" xlink:title="GeneralTHDMgminus2.cpp">
<polygon fill="none" stroke="#000000" points="0,-54.5 0,-71.5 113,-71.5 113,-54.5 0,-54.5"/>
<text text-anchor="middle" x="56.5" y="-61.1" font-family="Helvetica,sans-Serif" font-size="8.00" fill="#000000">GeneralTHDMgminus2.cpp</text>
</a>
</g>
</g>
<!-- Node55&#45;&gt;Node56 -->
<g id="edge1" class="edge">
<title>Node55&#45;&gt;Node56</title>
<path fill="none" stroke="#191970" d="M104.6652,-101.8197C92.6616,-92.1452 77.5283,-79.9481 67.4606,-71.8339"/>
<polygon fill="#191970" stroke="#191970" points="102.753,-104.7738 112.7353,-108.324 107.1457,-99.3236 102.753,-104.7738"/>
</g>
<!-- Node57 -->
<g id="node3" class="node">
<title>Node57</title>
<g id="a_node3"><a xlink:href="../../d4/d31/_general_t_h_d_m_observables_8h.html" target="_top" xlink:title="GeneralTHDMObservables.h">
<polygon fill="none" stroke="#000000" points="131.5,-54.5 131.5,-71.5 251.5,-71.5 251.5,-54.5 131.5,-54.5"/>
<text text-anchor="middle" x="191.5" y="-61.1" font-family="Helvetica,sans-Serif" font-size="8.00" fill="#000000">GeneralTHDMObservables.h</text>
</a>
</g>
</g>
<!-- Node55&#45;&gt;Node57 -->
<g id="edge2" class="edge">
<title>Node55&#45;&gt;Node57</title>
<path fill="none" stroke="#191970" d="M142.262,-102.1008C154.4999,-92.3824 170.0587,-80.0269 180.3758,-71.8339"/>
<polygon fill="#191970" stroke="#191970" points="140.0799,-99.3642 134.4254,-108.324 144.4331,-104.846 140.0799,-99.3642"/>
</g>
<!-- Node58 -->
<g id="node4" class="node">
<title>Node58</title>
<g id="a_node4"><a xlink:href="../../d1/de2/_th_obs_factory_8cpp.html" target="_top" xlink:title="ThObsFactory.cpp">
<polygon fill="none" stroke="#000000" points="150.5,-.5 150.5,-17.5 232.5,-17.5 232.5,-.5 150.5,-.5"/>
<text text-anchor="middle" x="191.5" y="-7.1" font-family="Helvetica,sans-Serif" font-size="8.00" fill="#000000">ThObsFactory.cpp</text>
</a>
</g>
</g>
<!-- Node57&#45;&gt;Node58 -->
<g id="edge3" class="edge">
<title>Node57&#45;&gt;Node58</title>
<path fill="none" stroke="#191970" d="M191.5,-43.8045C191.5,-34.9102 191.5,-24.7798 191.5,-17.7511"/>
<polygon fill="#191970" stroke="#191970" points="188.0001,-44.083 191.5,-54.083 195.0001,-44.083 188.0001,-44.083"/>
</g>
</g>
</svg>
