<?xml version="1.0" encoding="UTF-8" standalone="no"?>
<!DOCTYPE svg PUBLIC "-//W3C//DTD SVG 1.1//EN"
 "http://www.w3.org/Graphics/SVG/1.1/DTD/svg11.dtd">
<!-- Generated by graphviz version 2.40.1 (20161225.0304)
 -->
<!-- Title: GeneralTHDMSTU.h Pages: 1 -->
<svg width="246pt" height="134pt"
 viewBox="0.00 0.00 245.50 134.00" xmlns="http://www.w3.org/2000/svg" xmlns:xlink="http://www.w3.org/1999/xlink">
<g id="graph0" class="graph" transform="scale(1 1) rotate(0) translate(4 130)">
<title>GeneralTHDMSTU.h</title>
<!-- Node59 -->
<g id="node1" class="node">
<title>Node59</title>
<polygon fill="#bfbfbf" stroke="#000000" points="78.5,-108.5 78.5,-125.5 169.5,-125.5 169.5,-108.5 78.5,-108.5"/>
<text text-anchor="middle" x="124" y="-115.1" font-family="Helvetica,sans-Serif" font-size="8.00" fill="#000000">GeneralTHDMSTU.h</text>
</g>
<!-- Node60 -->
<g id="node2" class="node">
<title>Node60</title>
<g id="a_node2"><a xlink:href="../../d4/d31/_general_t_h_d_m_observables_8h.html" target="_top" xlink:title="GeneralTHDMObservables.h">
<polygon fill="none" stroke="#000000" points="0,-54.5 0,-71.5 120,-71.5 120,-54.5 0,-54.5"/>
<text text-anchor="middle" x="60" y="-61.1" font-family="Helvetica,sans-Serif" font-size="8.00" fill="#000000">GeneralTHDMObservables.h</text>
</a>
</g>
</g>
<!-- Node59&#45;&gt;Node60 -->
<g id="edge1" class="edge">
<title>Node59&#45;&gt;Node60</title>
<path fill="none" stroke="#191970" d="M106.0085,-101.8197C94.5424,-92.1452 80.0867,-79.9481 70.4698,-71.8339"/>
<polygon fill="#191970" stroke="#191970" points="103.8173,-104.5502 113.7173,-108.324 108.3314,-99.2002 103.8173,-104.5502"/>
</g>
<!-- Node62 -->
<g id="node4" class="node">
<title>Node62</title>
<g id="a_node4"><a xlink:href="../../d7/d69/_general_t_h_d_m_s_t_u_8cpp.html" target="_top" xlink:title="GeneralTHDMSTU.cpp">
<polygon fill="none" stroke="#000000" points="138.5,-54.5 138.5,-71.5 237.5,-71.5 237.5,-54.5 138.5,-54.5"/>
<text text-anchor="middle" x="188" y="-61.1" font-family="Helvetica,sans-Serif" font-size="8.00" fill="#000000">GeneralTHDMSTU.cpp</text>
</a>
</g>
</g>
<!-- Node59&#45;&gt;Node62 -->
<g id="edge3" class="edge">
<title>Node59&#45;&gt;Node62</title>
<path fill="none" stroke="#191970" d="M141.9915,-101.8197C153.4576,-92.1452 167.9133,-79.9481 177.5302,-71.8339"/>
<polygon fill="#191970" stroke="#191970" points="139.6686,-99.2002 134.2827,-108.324 144.1827,-104.5502 139.6686,-99.2002"/>
</g>
<!-- Node61 -->
<g id="node3" class="node">
<title>Node61</title>
<g id="a_node3"><a xlink:href="../../d1/de2/_th_obs_factory_8cpp.html" target="_top" xlink:title="ThObsFactory.cpp">
<polygon fill="none" stroke="#000000" points="19,-.5 19,-17.5 101,-17.5 101,-.5 19,-.5"/>
<text text-anchor="middle" x="60" y="-7.1" font-family="Helvetica,sans-Serif" font-size="8.00" fill="#000000">ThObsFactory.cpp</text>
</a>
</g>
</g>
<!-- Node60&#45;&gt;Node61 -->
<g id="edge2" class="edge">
<title>Node60&#45;&gt;Node61</title>
<path fill="none" stroke="#191970" d="M60,-43.8045C60,-34.9102 60,-24.7798 60,-17.7511"/>
<polygon fill="#191970" stroke="#191970" points="56.5001,-44.083 60,-54.083 63.5001,-44.083 56.5001,-44.083"/>
</g>
</g>
</svg>
