<?xml version="1.0" encoding="UTF-8" standalone="no"?>
<!DOCTYPE svg PUBLIC "-//W3C//DTD SVG 1.1//EN"
 "http://www.w3.org/Graphics/SVG/1.1/DTD/svg11.dtd">
<!-- Generated by graphviz version 2.40.1 (20161225.0304)
 -->
<!-- Title: GeneralTHDMcache.h Pages: 1 -->
<svg width="539pt" height="188pt"
 viewBox="0.00 0.00 539.00 188.00" xmlns="http://www.w3.org/2000/svg" xmlns:xlink="http://www.w3.org/1999/xlink">
<g id="graph0" class="graph" transform="scale(1 1) rotate(0) translate(4 184)">
<title>GeneralTHDMcache.h</title>
<!-- Node0 -->
<g id="node1" class="node">
<title>Node0</title>
<polygon fill="#bfbfbf" stroke="#000000" points="220,-162.5 220,-179.5 316,-179.5 316,-162.5 220,-162.5"/>
<text text-anchor="middle" x="268" y="-169.1" font-family="Helvetica,sans-Serif" font-size="8.00" fill="#000000">GeneralTHDMcache.h</text>
</g>
<!-- Node1 -->
<g id="node2" class="node">
<title>Node1</title>
<polygon fill="none" stroke="#bfbfbf" points="0,-108.5 0,-125.5 38,-125.5 38,-108.5 0,-108.5"/>
<text text-anchor="middle" x="19" y="-115.1" font-family="Helvetica,sans-Serif" font-size="8.00" fill="#000000">cmath</text>
</g>
<!-- Node0&#45;&gt;Node1 -->
<g id="edge1" class="edge">
<title>Node0&#45;&gt;Node1</title>
<path fill="none" stroke="#191970" d="M223.1448,-162.4821C179.3336,-153.9678 110.847,-140.1406 52,-126 50.7333,-125.6956 49.4414,-125.3773 48.1379,-125.0497"/>
<polygon fill="#191970" stroke="#191970" points="48.7045,-121.5802 38.1441,-122.433 46.9314,-128.3519 48.7045,-121.5802"/>
</g>
<!-- Node2 -->
<g id="node3" class="node">
<title>Node2</title>
<g id="a_node3"><a xlink:href="../../d1/d5a/_general_t_h_d_m_runner_8h.html" target="_top" xlink:title="GeneralTHDMRunner.h">
<polygon fill="none" stroke="#000000" points="94.5,-108.5 94.5,-125.5 195.5,-125.5 195.5,-108.5 94.5,-108.5"/>
<text text-anchor="middle" x="145" y="-115.1" font-family="Helvetica,sans-Serif" font-size="8.00" fill="#000000">GeneralTHDMRunner.h</text>
</a>
</g>
</g>
<!-- Node0&#45;&gt;Node2 -->
<g id="edge2" class="edge">
<title>Node0&#45;&gt;Node2</title>
<path fill="none" stroke="#191970" d="M248.5103,-162.4435C228.3578,-153.5961 196.6771,-139.6875 173.6692,-129.5865"/>
<polygon fill="#191970" stroke="#191970" points="174.962,-126.3316 164.3985,-125.5164 172.148,-132.7411 174.962,-126.3316"/>
</g>
<!-- Node3 -->
<g id="node4" class="node">
<title>Node3</title>
<g id="a_node4"><a xlink:href="../../d0/d9a/_general_t_h_d_m_8h.html" target="_top" xlink:title="GeneralTHDM.h">
<polygon fill="none" stroke="#ff0000" points="107.5,-54.5 107.5,-71.5 182.5,-71.5 182.5,-54.5 107.5,-54.5"/>
<text text-anchor="middle" x="145" y="-61.1" font-family="Helvetica,sans-Serif" font-size="8.00" fill="#000000">GeneralTHDM.h</text>
</a>
</g>
</g>
<!-- Node0&#45;&gt;Node3 -->
<g id="edge9" class="edge">
<title>Node0&#45;&gt;Node3</title>
<path fill="none" stroke="#191970" d="M219.6069,-165.8071C171.1423,-159.4907 101.4503,-146.9855 85,-126 70.7314,-107.7977 94.9988,-88.8307 116.807,-76.5261"/>
<polygon fill="#191970" stroke="#191970" points="118.7089,-79.4784 125.8832,-71.6823 115.413,-73.3028 118.7089,-79.4784"/>
</g>
<!-- Node55 -->
<g id="node6" class="node">
<title>Node55</title>
<g id="a_node6"><a xlink:href="../../d3/d6b/_p_vfunctions_8h.html" target="_top" xlink:title="PVfunctions.h">
<polygon fill="none" stroke="#000000" points="417,-108.5 417,-125.5 483,-125.5 483,-108.5 417,-108.5"/>
<text text-anchor="middle" x="450" y="-115.1" font-family="Helvetica,sans-Serif" font-size="8.00" fill="#000000">PVfunctions.h</text>
</a>
</g>
</g>
<!-- Node0&#45;&gt;Node55 -->
<g id="edge5" class="edge">
<title>Node0&#45;&gt;Node55</title>
<path fill="none" stroke="#191970" d="M296.8384,-162.4435C327.8557,-153.2406 377.3292,-138.5617 411.6184,-128.3879"/>
<polygon fill="#191970" stroke="#191970" points="412.7051,-131.7164 421.2965,-125.5164 410.714,-125.0055 412.7051,-131.7164"/>
</g>
<!-- Node31 -->
<g id="node7" class="node">
<title>Node31</title>
<g id="a_node7"><a xlink:href="../../d9/d72/gslpp_8h.html" target="_top" xlink:title="gslpp.h">
<polygon fill="none" stroke="#ff0000" points="406,-.5 406,-17.5 448,-17.5 448,-.5 406,-.5"/>
<text text-anchor="middle" x="427" y="-7.1" font-family="Helvetica,sans-Serif" font-size="8.00" fill="#000000">gslpp.h</text>
</a>
</g>
</g>
<!-- Node0&#45;&gt;Node31 -->
<g id="edge15" class="edge">
<title>Node0&#45;&gt;Node31</title>
<path fill="none" stroke="#191970" d="M288.4601,-162.4947C305.4568,-154.7342 329.5864,-142.0418 347,-126 379.29,-96.2537 405.4299,-51.1398 418.3079,-26.5278"/>
<polygon fill="#191970" stroke="#191970" points="421.4277,-28.1141 422.857,-17.6161 415.1931,-24.9315 421.4277,-28.1141"/>
</g>
<!-- Node56 -->
<g id="node9" class="node">
<title>Node56</title>
<g id="a_node9"><a xlink:href="../../d9/d18/_general_t_h_d_mquantities_8h.html" target="_top" xlink:title="GeneralTHDMquantities.h">
<polygon fill="none" stroke="#ff0000" points="213.5,-108.5 213.5,-125.5 322.5,-125.5 322.5,-108.5 213.5,-108.5"/>
<text text-anchor="middle" x="268" y="-115.1" font-family="Helvetica,sans-Serif" font-size="8.00" fill="#000000">GeneralTHDMquantities.h</text>
</a>
</g>
</g>
<!-- Node0&#45;&gt;Node56 -->
<g id="edge10" class="edge">
<title>Node0&#45;&gt;Node56</title>
<path fill="none" stroke="#191970" d="M262.8337,-162.083C261.3242,-154.9272 260.8938,-144.6353 261.5425,-135.6911"/>
<polygon fill="#191970" stroke="#191970" points="265.0154,-136.1262 262.869,-125.7511 258.0769,-135.2002 265.0154,-136.1262"/>
</g>
<!-- Node12 -->
<g id="node10" class="node">
<title>Node12</title>
<polygon fill="none" stroke="#bfbfbf" points="276.5,-54.5 276.5,-71.5 327.5,-71.5 327.5,-54.5 276.5,-54.5"/>
<text text-anchor="middle" x="302" y="-61.1" font-family="Helvetica,sans-Serif" font-size="8.00" fill="#000000">stdexcept</text>
</g>
<!-- Node0&#45;&gt;Node12 -->
<g id="edge14" class="edge">
<title>Node0&#45;&gt;Node12</title>
<path fill="none" stroke="#191970" d="M288.8473,-162.4267C303.5779,-155.1289 322.2049,-143.0905 331,-126 339.0448,-110.3673 328.4781,-92.0721 317.9137,-79.2372"/>
<polygon fill="#191970" stroke="#191970" points="320.436,-76.8069 311.1673,-71.6743 315.2122,-81.4666 320.436,-76.8069"/>
</g>
<!-- Node2&#45;&gt;Node3 -->
<g id="edge3" class="edge">
<title>Node2&#45;&gt;Node3</title>
<path fill="none" stroke="#191970" d="M145,-108.083C145,-101.0059 145,-90.8611 145,-81.9865"/>
<polygon fill="#191970" stroke="#191970" points="148.5001,-81.751 145,-71.7511 141.5001,-81.7511 148.5001,-81.751"/>
</g>
<!-- Node4 -->
<g id="node5" class="node">
<title>Node4</title>
<g id="a_node5"><a xlink:href="../../d6/d0a/_standard_model_8h.html" target="_top" xlink:title="StandardModel.h">
<polygon fill="none" stroke="#ff0000" points="106.5,-.5 106.5,-17.5 183.5,-17.5 183.5,-.5 106.5,-.5"/>
<text text-anchor="middle" x="145" y="-7.1" font-family="Helvetica,sans-Serif" font-size="8.00" fill="#000000">StandardModel.h</text>
</a>
</g>
</g>
<!-- Node3&#45;&gt;Node4 -->
<g id="edge4" class="edge">
<title>Node3&#45;&gt;Node4</title>
<path fill="none" stroke="#191970" d="M145,-54.083C145,-47.0059 145,-36.8611 145,-27.9865"/>
<polygon fill="#191970" stroke="#191970" points="148.5001,-27.751 145,-17.7511 141.5001,-27.7511 148.5001,-27.751"/>
</g>
<!-- Node55&#45;&gt;Node31 -->
<g id="edge6" class="edge">
<title>Node55&#45;&gt;Node31</title>
<path fill="none" stroke="#191970" d="M448.1178,-108.1619C444.376,-90.5918 435.933,-50.9465 430.9298,-27.4532"/>
<polygon fill="#191970" stroke="#191970" points="434.3501,-26.71 428.8439,-17.6584 427.5037,-28.1681 434.3501,-26.71"/>
</g>
<!-- Node52 -->
<g id="node8" class="node">
<title>Node52</title>
<g id="a_node8"><a xlink:href="../../dd/dc1/_polylogarithms_8h.html" target="_top" xlink:title="Polylogarithms.h">
<polygon fill="none" stroke="#ff0000" points="455,-54.5 455,-71.5 531,-71.5 531,-54.5 455,-54.5"/>
<text text-anchor="middle" x="493" y="-61.1" font-family="Helvetica,sans-Serif" font-size="8.00" fill="#000000">Polylogarithms.h</text>
</a>
</g>
</g>
<!-- Node55&#45;&gt;Node52 -->
<g id="edge7" class="edge">
<title>Node55&#45;&gt;Node52</title>
<path fill="none" stroke="#191970" d="M457.1006,-108.083C463.237,-100.3768 472.2697,-89.0333 479.7392,-79.6531"/>
<polygon fill="#191970" stroke="#191970" points="482.5402,-81.7542 486.0315,-71.7511 477.0643,-77.3936 482.5402,-81.7542"/>
</g>
<!-- Node52&#45;&gt;Node31 -->
<g id="edge8" class="edge">
<title>Node52&#45;&gt;Node31</title>
<path fill="none" stroke="#191970" d="M482.396,-54.324C472.5438,-46.2631 457.6491,-34.0765 445.7849,-24.3695"/>
<polygon fill="#191970" stroke="#191970" points="447.7529,-21.4575 437.797,-17.8339 443.3202,-26.8752 447.7529,-21.4575"/>
</g>
<!-- Node56&#45;&gt;Node0 -->
<g id="edge13" class="edge">
<title>Node56&#45;&gt;Node0</title>
<path fill="none" stroke="#191970" d="M273.131,-125.7511C274.6573,-132.8579 275.1044,-143.1357 274.4724,-152.1005"/>
<polygon fill="#191970" stroke="#191970" points="270.9933,-151.7134 273.1663,-162.083 277.9342,-152.6216 270.9933,-151.7134"/>
</g>
<!-- Node56&#45;&gt;Node3 -->
<g id="edge12" class="edge">
<title>Node56&#45;&gt;Node3</title>
<path fill="none" stroke="#191970" d="M248.5103,-108.4435C228.3578,-99.5961 196.6771,-85.6875 173.6692,-75.5865"/>
<polygon fill="#191970" stroke="#191970" points="174.962,-72.3316 164.3985,-71.5164 172.148,-78.7411 174.962,-72.3316"/>
</g>
<!-- Node56&#45;&gt;Node12 -->
<g id="edge11" class="edge">
<title>Node56&#45;&gt;Node12</title>
<path fill="none" stroke="#191970" d="M273.6144,-108.083C278.3674,-100.5341 285.3181,-89.4948 291.1516,-80.2298"/>
<polygon fill="#191970" stroke="#191970" points="294.1237,-82.0783 296.4901,-71.7511 288.2001,-78.3486 294.1237,-82.0783"/>
</g>
</g>
</svg>
