<?xml version="1.0" encoding="UTF-8" standalone="no"?>
<!DOCTYPE svg PUBLIC "-//W3C//DTD SVG 1.1//EN"
 "http://www.w3.org/Graphics/SVG/1.1/DTD/svg11.dtd">
<!-- Generated by graphviz version 2.40.1 (20161225.0304)
 -->
<!-- Title: EvolBsmm Pages: 1 -->
<svg width="625pt" height="226pt"
 viewBox="0.00 0.00 625.00 225.91" xmlns="http://www.w3.org/2000/svg" xmlns:xlink="http://www.w3.org/1999/xlink">
<g id="graph0" class="graph" transform="scale(1 1) rotate(0) translate(4 221.9078)">
<title>EvolBsmm</title>
<!-- Node4 -->
<g id="node1" class="node">
<title>Node4</title>
<polygon fill="#bfbfbf" stroke="#000000" points="562,-130.9078 562,-147.9078 617,-147.9078 617,-130.9078 562,-130.9078"/>
<text text-anchor="middle" x="589.5" y="-137.5078" font-family="Helvetica,sans-Serif" font-size="8.00" fill="#000000">EvolBsmm</text>
</g>
<!-- Node5 -->
<g id="node2" class="node">
<title>Node5</title>
<g id="a_node2"><a xlink:href="../../d9/d15/class_r_g_evolutor.html" target="_top" xlink:title="A class for the RG evolutor of the Wilson coefficients. ">
<polygon fill="none" stroke="#000000" points="428,-195.9078 428,-212.9078 486,-212.9078 486,-195.9078 428,-195.9078"/>
<text text-anchor="middle" x="457" y="-202.5078" font-family="Helvetica,sans-Serif" font-size="8.00" fill="#000000">RGEvolutor</text>
</a>
</g>
</g>
<!-- Node5&#45;&gt;Node4 -->
<g id="edge1" class="edge">
<title>Node5&#45;&gt;Node4</title>
<path fill="none" stroke="#191970" d="M486.7723,-191.7755C491.5469,-189.6853 496.4216,-187.5129 501,-185.4078 520.3237,-176.5229 525.119,-174.1981 544,-164.4078 554.2418,-159.0971 565.6168,-152.8471 574.4314,-147.9247"/>
<polygon fill="#191970" stroke="#191970" points="485.0262,-188.7174 477.2396,-195.9021 487.8071,-195.1414 485.0262,-188.7174"/>
</g>
<!-- Node6 -->
<g id="node3" class="node">
<title>Node6</title>
<g id="a_node3"><a xlink:href="../../dd/d6f/class_wilson_template.html" target="_top" xlink:title="WilsonTemplate\&lt; gslpp\l::matrix\&lt; double \&gt; \&gt;">
<polygon fill="none" stroke="#ff0000" points="191.5,-191.4078 191.5,-217.4078 291.5,-217.4078 291.5,-191.4078 191.5,-191.4078"/>
<text text-anchor="start" x="199.5" y="-207.0078" font-family="Helvetica,sans-Serif" font-size="8.00" fill="#000000">WilsonTemplate&lt; gslpp</text>
<text text-anchor="middle" x="241.5" y="-198.0078" font-family="Helvetica,sans-Serif" font-size="8.00" fill="#000000">::matrix&lt; double &gt; &gt;</text>
</a>
</g>
</g>
<!-- Node6&#45;&gt;Node5 -->
<g id="edge2" class="edge">
<title>Node6&#45;&gt;Node5</title>
<path fill="none" stroke="#191970" d="M301.9506,-204.4078C343.1104,-204.4078 395.7587,-204.4078 427.9,-204.4078"/>
<polygon fill="#191970" stroke="#191970" points="301.7532,-200.9079 291.7532,-204.4078 301.7532,-207.9079 301.7532,-200.9079"/>
</g>
<!-- Node10 -->
<g id="node4" class="node">
<title>Node10</title>
<g id="a_node4"><a xlink:href="../../dd/d59/classgslpp_1_1vector.html" target="_top" xlink:title="gslpp::vector\&lt; gslpp\l::complex \&gt;">
<polygon fill="none" stroke="#000000" points="413,-149.4078 413,-175.4078 501,-175.4078 501,-149.4078 413,-149.4078"/>
<text text-anchor="start" x="421" y="-165.0078" font-family="Helvetica,sans-Serif" font-size="8.00" fill="#000000">gslpp::vector&lt; gslpp</text>
<text text-anchor="middle" x="457" y="-156.0078" font-family="Helvetica,sans-Serif" font-size="8.00" fill="#000000">::complex &gt;</text>
</a>
</g>
</g>
<!-- Node10&#45;&gt;Node4 -->
<g id="edge3" class="edge">
<title>Node10&#45;&gt;Node4</title>
<path fill="none" stroke="#9a32cd" stroke-dasharray="5,2" d="M511.1849,-153.0021C528.5675,-149.9847 547.0971,-146.7683 561.7665,-144.2219"/>
<polygon fill="#9a32cd" stroke="#9a32cd" points="510.3746,-149.5903 501.1206,-154.7491 511.5719,-156.4872 510.3746,-149.5903"/>
<text text-anchor="middle" x="531.5" y="-154.0078" font-family="Helvetica,sans-Serif" font-size="8.00" fill="#000000"> e</text>
</g>
<!-- Node11 -->
<g id="node5" class="node">
<title>Node11</title>
<g id="a_node5"><a xlink:href="../../dd/d59/classgslpp_1_1vector.html" target="_top" xlink:title="A base class for defining operations on vectors, both real and complex. ">
<polygon fill="none" stroke="#000000" points="201,-154.9078 201,-171.9078 282,-171.9078 282,-154.9078 201,-154.9078"/>
<text text-anchor="middle" x="241.5" y="-161.5078" font-family="Helvetica,sans-Serif" font-size="8.00" fill="#000000">gslpp::vector&lt; T &gt;</text>
</a>
</g>
</g>
<!-- Node11&#45;&gt;Node10 -->
<g id="edge4" class="edge">
<title>Node11&#45;&gt;Node10</title>
<path fill="none" stroke="#ffa500" stroke-dasharray="5,2" d="M292.4981,-163.1711C329.1274,-163.0011 378.0013,-162.7743 412.9395,-162.6122"/>
<polygon fill="#ffa500" stroke="#ffa500" points="292.0175,-159.6732 282.0339,-163.2197 292.0501,-166.6731 292.0175,-159.6732"/>
<text text-anchor="middle" x="354.5" y="-165.0078" font-family="Helvetica,sans-Serif" font-size="8.00" fill="#000000"> &lt; gslpp::complex &gt;</text>
</g>
<!-- Node12 -->
<g id="node6" class="node">
<title>Node12</title>
<g id="a_node6"><a xlink:href="../../d1/d3c/classgslpp_1_1matrix.html" target="_top" xlink:title="gslpp::matrix\&lt; gslpp\l::complex \&gt;">
<polygon fill="none" stroke="#000000" points="197.5,-15.4078 197.5,-41.4078 285.5,-41.4078 285.5,-15.4078 197.5,-15.4078"/>
<text text-anchor="start" x="205.5" y="-31.0078" font-family="Helvetica,sans-Serif" font-size="8.00" fill="#000000">gslpp::matrix&lt; gslpp</text>
<text text-anchor="middle" x="241.5" y="-22.0078" font-family="Helvetica,sans-Serif" font-size="8.00" fill="#000000">::complex &gt;</text>
</a>
</g>
</g>
<!-- Node12&#45;&gt;Node4 -->
<g id="edge5" class="edge">
<title>Node12&#45;&gt;Node4</title>
<path fill="none" stroke="#9a32cd" stroke-dasharray="5,2" d="M294.9126,-12.9323C349.7123,-.1552 435.9183,11.1331 501,-21.4078 548.4116,-45.1136 577.0132,-107.6339 586.2252,-130.6989"/>
<polygon fill="#9a32cd" stroke="#9a32cd" points="293.9497,-9.5643 285.058,-15.3251 295.6015,-16.3666 293.9497,-9.5643"/>
<text text-anchor="middle" x="457" y="-96.0078" font-family="Helvetica,sans-Serif" font-size="8.00" fill="#000000"> RR</text>
<text text-anchor="middle" x="457" y="-87.0078" font-family="Helvetica,sans-Serif" font-size="8.00" fill="#000000">FF</text>
<text text-anchor="middle" x="457" y="-78.0078" font-family="Helvetica,sans-Serif" font-size="8.00" fill="#000000">EE</text>
<text text-anchor="middle" x="457" y="-69.0078" font-family="Helvetica,sans-Serif" font-size="8.00" fill="#000000">DD</text>
<text text-anchor="middle" x="457" y="-60.0078" font-family="Helvetica,sans-Serif" font-size="8.00" fill="#000000">CC</text>
<text text-anchor="middle" x="457" y="-51.0078" font-family="Helvetica,sans-Serif" font-size="8.00" fill="#000000">BB</text>
<text text-anchor="middle" x="457" y="-42.0078" font-family="Helvetica,sans-Serif" font-size="8.00" fill="#000000">AA</text>
<text text-anchor="middle" x="457" y="-33.0078" font-family="Helvetica,sans-Serif" font-size="8.00" fill="#000000">V</text>
<text text-anchor="middle" x="457" y="-24.0078" font-family="Helvetica,sans-Serif" font-size="8.00" fill="#000000">Vi</text>
</g>
<!-- Node14 -->
<g id="node8" class="node">
<title>Node14</title>
<g id="a_node8"><a xlink:href="../../dc/dd5/class_standard_model.html" target="_top" xlink:title="A model class for the Standard Model. ">
<polygon fill="none" stroke="#ff0000" points="421.5,-111.9078 421.5,-128.9078 492.5,-128.9078 492.5,-111.9078 421.5,-111.9078"/>
<text text-anchor="middle" x="457" y="-118.5078" font-family="Helvetica,sans-Serif" font-size="8.00" fill="#000000">StandardModel</text>
</a>
</g>
</g>
<!-- Node12&#45;&gt;Node14 -->
<g id="edge10" class="edge">
<title>Node12&#45;&gt;Node14</title>
<path fill="none" stroke="#9a32cd" stroke-dasharray="5,2" d="M295.5812,-27.2742C327.4747,-29.2524 366.9491,-36.6051 395,-58.4078 409.755,-69.8761 400.1675,-82.8225 413,-96.4078 419.0946,-102.8598 427.3176,-107.9804 435.0055,-111.8064"/>
<polygon fill="#9a32cd" stroke="#9a32cd" points="295.6675,-23.7746 285.5166,-26.8093 295.3444,-30.7671 295.6675,-23.7746"/>
<text text-anchor="middle" x="354.5" y="-88.0078" font-family="Helvetica,sans-Serif" font-size="8.00" fill="#000000"> Yn</text>
<text text-anchor="middle" x="354.5" y="-79.0078" font-family="Helvetica,sans-Serif" font-size="8.00" fill="#000000">Yd</text>
<text text-anchor="middle" x="354.5" y="-70.0078" font-family="Helvetica,sans-Serif" font-size="8.00" fill="#000000">Yu</text>
<text text-anchor="middle" x="354.5" y="-61.0078" font-family="Helvetica,sans-Serif" font-size="8.00" fill="#000000">Ye</text>
</g>
<!-- Node13 -->
<g id="node7" class="node">
<title>Node13</title>
<g id="a_node7"><a xlink:href="../../d1/d3c/classgslpp_1_1matrix.html" target="_top" xlink:title="A base class for defining operations on matrices, both real and complex. ">
<polygon fill="none" stroke="#000000" points="0,-19.9078 0,-36.9078 81,-36.9078 81,-19.9078 0,-19.9078"/>
<text text-anchor="middle" x="40.5" y="-26.5078" font-family="Helvetica,sans-Serif" font-size="8.00" fill="#000000">gslpp::matrix&lt; T &gt;</text>
</a>
</g>
</g>
<!-- Node13&#45;&gt;Node12 -->
<g id="edge6" class="edge">
<title>Node13&#45;&gt;Node12</title>
<path fill="none" stroke="#ffa500" stroke-dasharray="5,2" d="M91.4347,-28.4078C124.1219,-28.4078 166.1408,-28.4078 197.3975,-28.4078"/>
<polygon fill="#ffa500" stroke="#ffa500" points="91.1754,-24.9079 81.1753,-28.4078 91.1753,-31.9079 91.1754,-24.9079"/>
<text text-anchor="middle" x="134" y="-31.0078" font-family="Helvetica,sans-Serif" font-size="8.00" fill="#000000"> &lt; gslpp::complex &gt;</text>
</g>
<!-- Node14&#45;&gt;Node4 -->
<g id="edge7" class="edge">
<title>Node14&#45;&gt;Node4</title>
<path fill="none" stroke="#9a32cd" stroke-dasharray="5,2" d="M503.0454,-123.3832C516.3145,-124.5805 530.7762,-126.2133 544,-128.4078 549.7724,-129.3657 555.897,-130.6549 561.719,-132.0133"/>
<polygon fill="#9a32cd" stroke="#9a32cd" points="502.9641,-119.8641 492.706,-122.5139 502.3776,-126.8395 502.9641,-119.8641"/>
<text text-anchor="middle" x="531.5" y="-131.0078" font-family="Helvetica,sans-Serif" font-size="8.00" fill="#000000"> model</text>
</g>
<!-- Node15 -->
<g id="node9" class="node">
<title>Node15</title>
<g id="a_node9"><a xlink:href="../../dd/dfa/class_q_c_d.html" target="_top" xlink:title="A class for parameters related to QCD, hadrons and quarks. ">
<polygon fill="none" stroke="#ff0000" points="224.5,-118.9078 224.5,-135.9078 258.5,-135.9078 258.5,-118.9078 224.5,-118.9078"/>
<text text-anchor="middle" x="241.5" y="-125.5078" font-family="Helvetica,sans-Serif" font-size="8.00" fill="#000000">QCD</text>
</a>
</g>
</g>
<!-- Node15&#45;&gt;Node14 -->
<g id="edge8" class="edge">
<title>Node15&#45;&gt;Node14</title>
<path fill="none" stroke="#191970" d="M268.7896,-126.5213C307.5173,-125.2633 378.4675,-122.9587 421.3239,-121.5666"/>
<polygon fill="#191970" stroke="#191970" points="268.6521,-123.0238 258.771,-126.8468 268.8794,-130.0202 268.6521,-123.0238"/>
</g>
<!-- Node18 -->
<g id="node10" class="node">
<title>Node18</title>
<g id="a_node10"><a xlink:href="../../db/d32/class_e_w_s_m_two_fermions_l_e_p2.html" target="_top" xlink:title="A class for the form factors , &#160;and &#160;in the processes &#160;at LEP&#45;II. ">
<polygon fill="none" stroke="#ff0000" points="187,-82.9078 187,-99.9078 296,-99.9078 296,-82.9078 187,-82.9078"/>
<text text-anchor="middle" x="241.5" y="-89.5078" font-family="Helvetica,sans-Serif" font-size="8.00" fill="#000000">EWSMTwoFermionsLEP2</text>
</a>
</g>
</g>
<!-- Node18&#45;&gt;Node14 -->
<g id="edge9" class="edge">
<title>Node18&#45;&gt;Node14</title>
<path fill="none" stroke="#9a32cd" stroke-dasharray="5,2" d="M306.5415,-98.1779C333.9029,-101.248 366.0474,-105.1456 395,-109.4078 403.5442,-110.6656 412.7193,-112.1946 421.3222,-113.7077"/>
<polygon fill="#9a32cd" stroke="#9a32cd" points="306.6306,-94.6664 296.3057,-97.0427 305.859,-101.6237 306.6306,-94.6664"/>
<text text-anchor="middle" x="354.5" y="-112.0078" font-family="Helvetica,sans-Serif" font-size="8.00" fill="#000000"> myTwoFermionsLEP2</text>
</g>
</g>
</svg>
