<?xml version="1.0" encoding="UTF-8" standalone="no"?>
<!DOCTYPE svg PUBLIC "-//W3C//DTD SVG 1.1//EN"
 "http://www.w3.org/Graphics/SVG/1.1/DTD/svg11.dtd">
<!-- Generated by graphviz version 2.40.1 (20161225.0304)
 -->
<!-- Title: LeftRightSymmetricModelMatching Pages: 1 -->
<svg width="1040pt" height="433pt"
 viewBox="0.00 0.00 1040.00 432.83" xmlns="http://www.w3.org/2000/svg" xmlns:xlink="http://www.w3.org/1999/xlink">
<g id="graph0" class="graph" transform="scale(1 1) rotate(0) translate(4 428.828)">
<title>LeftRightSymmetricModelMatching</title>
<!-- Node3 -->
<g id="node1" class="node">
<title>Node3</title>
<polygon fill="#bfbfbf" stroke="#000000" points="521,-104.5 521,-121.5 662,-121.5 662,-104.5 521,-104.5"/>
<text text-anchor="middle" x="591.5" y="-111.1" font-family="Helvetica,sans-Serif" font-size="8.00" fill="#000000">LeftRightSymmetricModelMatching</text>
</g>
<!-- Node48 -->
<g id="node10" class="node">
<title>Node48</title>
<g id="a_node10"><a xlink:href="../../d5/d76/class_matching.html" target="_top" xlink:title="Matching\&lt; LeftRightSymmetric\lModelMatching, LeftRightSymmetric\lModel \&gt;">
<polygon fill="none" stroke="#ff0000" points="711,-68.5 711,-103.5 856,-103.5 856,-68.5 711,-68.5"/>
<text text-anchor="start" x="719" y="-93.1" font-family="Helvetica,sans-Serif" font-size="8.00" fill="#000000">Matching&lt; LeftRightSymmetric</text>
<text text-anchor="start" x="719" y="-84.1" font-family="Helvetica,sans-Serif" font-size="8.00" fill="#000000">ModelMatching, LeftRightSymmetric</text>
<text text-anchor="middle" x="783.5" y="-75.1" font-family="Helvetica,sans-Serif" font-size="8.00" fill="#000000">Model &gt;</text>
</a>
</g>
</g>
<!-- Node3&#45;&gt;Node48 -->
<g id="edge13" class="edge">
<title>Node3&#45;&gt;Node48</title>
<path fill="none" stroke="#9a32cd" stroke-dasharray="5,2" d="M662.242,-103.0519C678.0954,-100.8225 694.9382,-98.454 710.8671,-96.214"/>
<polygon fill="#9a32cd" stroke="#9a32cd" points="661.4016,-99.6356 651.9865,-104.4941 662.3765,-106.5674 661.4016,-99.6356"/>
<text text-anchor="middle" x="686.5" y="-103.6" font-family="Helvetica,sans-Serif" font-size="8.00" fill="#000000"> obj</text>
</g>
<!-- Node4 -->
<g id="node2" class="node">
<title>Node4</title>
<g id="a_node2"><a xlink:href="../../d6/d2e/class_standard_model_matching.html" target="_top" xlink:title="A class for the matching in the Standard Model. ">
<polygon fill="none" stroke="#000000" points="373,-242.5 373,-259.5 476,-259.5 476,-242.5 373,-242.5"/>
<text text-anchor="middle" x="424.5" y="-249.1" font-family="Helvetica,sans-Serif" font-size="8.00" fill="#000000">StandardModelMatching</text>
</a>
</g>
</g>
<!-- Node4&#45;&gt;Node3 -->
<g id="edge1" class="edge">
<title>Node4&#45;&gt;Node3</title>
<path fill="none" stroke="#191970" d="M442.9502,-235.7537C478.0532,-206.7464 553.414,-144.4723 581.0574,-121.6293"/>
<polygon fill="#191970" stroke="#191970" points="440.4257,-233.2994 434.9466,-242.3675 444.8848,-238.6955 440.4257,-233.2994"/>
</g>
<!-- Node5 -->
<g id="node3" class="node">
<title>Node5</title>
<g id="a_node3"><a xlink:href="../../d0/d2a/class_model_matching.html" target="_top" xlink:title="A class for a template of model matching. ">
<polygon fill="none" stroke="#000000" points="195.5,-298.5 195.5,-315.5 266.5,-315.5 266.5,-298.5 195.5,-298.5"/>
<text text-anchor="middle" x="231" y="-305.1" font-family="Helvetica,sans-Serif" font-size="8.00" fill="#000000">ModelMatching</text>
</a>
</g>
</g>
<!-- Node5&#45;&gt;Node4 -->
<g id="edge2" class="edge">
<title>Node5&#45;&gt;Node4</title>
<path fill="none" stroke="#191970" d="M276.7662,-313.6226C300.718,-315.3684 330.149,-314.756 355,-306 381.413,-296.6936 405.3976,-272.821 417.0566,-259.7972"/>
<polygon fill="#191970" stroke="#191970" points="276.7963,-310.1115 266.5254,-312.7113 276.1758,-317.084 276.7963,-310.1115"/>
</g>
<!-- Node6 -->
<g id="node4" class="node">
<title>Node6</title>
<g id="a_node4"><a xlink:href="../../d4/dac/class_wilson_coefficient_new.html" target="_top" xlink:title="A class for the Wilson coefficients. ">
<polygon fill="none" stroke="#ff0000" points="184,-242.5 184,-259.5 278,-259.5 278,-242.5 184,-242.5"/>
<text text-anchor="middle" x="231" y="-249.1" font-family="Helvetica,sans-Serif" font-size="8.00" fill="#000000">WilsonCoefficientNew</text>
</a>
</g>
</g>
<!-- Node6&#45;&gt;Node4 -->
<g id="edge3" class="edge">
<title>Node6&#45;&gt;Node4</title>
<path fill="none" stroke="#9a32cd" stroke-dasharray="5,2" d="M288.3517,-251C315.1651,-251 346.8475,-251 372.8997,-251"/>
<polygon fill="#9a32cd" stroke="#9a32cd" points="288.3355,-247.5001 278.3354,-251 288.3354,-254.5001 288.3355,-247.5001"/>
<text text-anchor="middle" x="325.5" y="-298.6" font-family="Helvetica,sans-Serif" font-size="8.00" fill="#000000"> mcL</text>
<text text-anchor="middle" x="325.5" y="-289.6" font-family="Helvetica,sans-Serif" font-size="8.00" fill="#000000">mcM</text>
<text text-anchor="middle" x="325.5" y="-280.6" font-family="Helvetica,sans-Serif" font-size="8.00" fill="#000000">mcP</text>
<text text-anchor="middle" x="325.5" y="-271.6" font-family="Helvetica,sans-Serif" font-size="8.00" fill="#000000">mcQ</text>
<text text-anchor="middle" x="325.5" y="-262.6" font-family="Helvetica,sans-Serif" font-size="8.00" fill="#000000">mcB</text>
<text text-anchor="middle" x="325.5" y="-253.6" font-family="Helvetica,sans-Serif" font-size="8.00" fill="#000000">mcC</text>
</g>
<!-- Node11 -->
<g id="node5" class="node">
<title>Node11</title>
<g id="a_node5"><a xlink:href="../../dd/d9b/classgslpp_1_1complex.html" target="_top" xlink:title="A class for defining operations on and functions of complex numbers. ">
<polygon fill="none" stroke="#000000" points="9,-379.5 9,-396.5 79,-396.5 79,-379.5 9,-379.5"/>
<text text-anchor="middle" x="44" y="-386.1" font-family="Helvetica,sans-Serif" font-size="8.00" fill="#000000">gslpp::complex</text>
</a>
</g>
</g>
<!-- Node11&#45;&gt;Node3 -->
<g id="edge15" class="edge">
<title>Node11&#45;&gt;Node3</title>
<path fill="none" stroke="#9a32cd" stroke-dasharray="5,2" d="M72.2257,-400.301C82.6333,-404.2216 94.6553,-408.0469 106,-410 215.8509,-428.912 260.3771,-438.9185 355,-380 472.2228,-307.0092 564.6787,-158.5813 586.5672,-121.5276"/>
<polygon fill="#9a32cd" stroke="#9a32cd" points="73.4029,-397.0027 62.8168,-396.5709 70.8231,-403.51 73.4029,-397.0027"/>
<text text-anchor="middle" x="325.5" y="-412.6" font-family="Helvetica,sans-Serif" font-size="8.00" fill="#000000"> CWbsgArrayLO</text>
</g>
<!-- Node11&#45;&gt;Node4 -->
<g id="edge4" class="edge">
<title>Node11&#45;&gt;Node4</title>
<path fill="none" stroke="#9a32cd" stroke-dasharray="5,2" d="M89.3647,-394.3067C153.4629,-400.862 271.9684,-404.1168 355,-354 392.4912,-331.3708 414.2252,-279.8638 421.6176,-259.5066"/>
<polygon fill="#9a32cd" stroke="#9a32cd" points="89.5029,-390.801 79.1809,-393.1899 88.7398,-397.7593 89.5029,-390.801"/>
<text text-anchor="middle" x="231" y="-399.6" font-family="Helvetica,sans-Serif" font-size="8.00" fill="#000000"> lam_t</text>
</g>
<!-- Node20 -->
<g id="node8" class="node">
<title>Node20</title>
<g id="a_node8"><a xlink:href="../../dc/dd5/class_standard_model.html" target="_top" xlink:title="A model class for the Standard Model. ">
<polygon fill="none" stroke="#ff0000" points="195.5,-334.5 195.5,-351.5 266.5,-351.5 266.5,-334.5 195.5,-334.5"/>
<text text-anchor="middle" x="231" y="-341.1" font-family="Helvetica,sans-Serif" font-size="8.00" fill="#000000">StandardModel</text>
</a>
</g>
</g>
<!-- Node11&#45;&gt;Node20 -->
<g id="edge8" class="edge">
<title>Node11&#45;&gt;Node20</title>
<path fill="none" stroke="#9a32cd" stroke-dasharray="5,2" d="M66.02,-374.0731C77.5024,-367.4862 92.0352,-360.168 106,-356 135.2699,-347.264 169.9099,-344.195 195.2926,-343.2075"/>
<polygon fill="#9a32cd" stroke="#9a32cd" points="63.9683,-371.2214 57.1715,-379.3488 67.5531,-377.2338 63.9683,-371.2214"/>
<text text-anchor="middle" x="136" y="-367.6" font-family="Helvetica,sans-Serif" font-size="8.00" fill="#000000"> rhoZ_f_cache</text>
<text text-anchor="middle" x="136" y="-358.6" font-family="Helvetica,sans-Serif" font-size="8.00" fill="#000000">kappaZ_f_cache</text>
</g>
<!-- Node12 -->
<g id="node6" class="node">
<title>Node12</title>
<g id="a_node6"><a xlink:href="../../d2/d95/class_wilson_coefficient.html" target="_top" xlink:title="A class for the Wilson coefficients. ">
<polygon fill="none" stroke="#ff0000" points="192,-123.5 192,-140.5 270,-140.5 270,-123.5 192,-123.5"/>
<text text-anchor="middle" x="231" y="-130.1" font-family="Helvetica,sans-Serif" font-size="8.00" fill="#000000">WilsonCoefficient</text>
</a>
</g>
</g>
<!-- Node12&#45;&gt;Node3 -->
<g id="edge16" class="edge">
<title>Node12&#45;&gt;Node3</title>
<path fill="none" stroke="#9a32cd" stroke-dasharray="5,2" d="M280.2878,-128.0553C285.5899,-127.6767 290.9061,-127.3165 296,-127 372.763,-122.2302 460.8333,-118.2502 520.7155,-115.7681"/>
<polygon fill="#9a32cd" stroke="#9a32cd" points="279.8875,-124.5752 270.1712,-128.7994 280.401,-131.5563 279.8875,-124.5752"/>
<text text-anchor="middle" x="424.5" y="-152.6" font-family="Helvetica,sans-Serif" font-size="8.00" fill="#000000"> mcBMll</text>
<text text-anchor="middle" x="424.5" y="-143.6" font-family="Helvetica,sans-Serif" font-size="8.00" fill="#000000">mcprimebsg</text>
<text text-anchor="middle" x="424.5" y="-134.6" font-family="Helvetica,sans-Serif" font-size="8.00" fill="#000000">mcbsg</text>
<text text-anchor="middle" x="424.5" y="-125.6" font-family="Helvetica,sans-Serif" font-size="8.00" fill="#000000">mcprimeBMll</text>
</g>
<!-- Node12&#45;&gt;Node4 -->
<g id="edge5" class="edge">
<title>Node12&#45;&gt;Node4</title>
<path fill="none" stroke="#9a32cd" stroke-dasharray="5,2" d="M280.111,-129.1722C304.2597,-129.9626 332.8547,-134.3381 355,-148 392.086,-170.8791 413.9177,-221.7819 421.4778,-242.2386"/>
<polygon fill="#9a32cd" stroke="#9a32cd" points="280.112,-125.672 270.0655,-129.0363 280.0172,-132.6713 280.112,-125.672"/>
<text text-anchor="middle" x="325.5" y="-240.6" font-family="Helvetica,sans-Serif" font-size="8.00" fill="#000000"> mcBMll</text>
<text text-anchor="middle" x="325.5" y="-231.6" font-family="Helvetica,sans-Serif" font-size="8.00" fill="#000000">mcprimebsg</text>
<text text-anchor="middle" x="325.5" y="-222.6" font-family="Helvetica,sans-Serif" font-size="8.00" fill="#000000">mcdk2</text>
<text text-anchor="middle" x="325.5" y="-213.6" font-family="Helvetica,sans-Serif" font-size="8.00" fill="#000000">mcmueconv</text>
<text text-anchor="middle" x="325.5" y="-204.6" font-family="Helvetica,sans-Serif" font-size="8.00" fill="#000000">mcbnlep</text>
<text text-anchor="middle" x="325.5" y="-195.6" font-family="Helvetica,sans-Serif" font-size="8.00" fill="#000000">mcdbd2</text>
<text text-anchor="middle" x="325.5" y="-186.6" font-family="Helvetica,sans-Serif" font-size="8.00" fill="#000000">mcbsmm</text>
<text text-anchor="middle" x="325.5" y="-177.6" font-family="Helvetica,sans-Serif" font-size="8.00" fill="#000000">mcbsnn</text>
<text text-anchor="middle" x="325.5" y="-168.6" font-family="Helvetica,sans-Serif" font-size="8.00" fill="#000000">mcd1</text>
<text text-anchor="middle" x="325.5" y="-159.6" font-family="Helvetica,sans-Serif" font-size="8.00" fill="#000000">mcbnlepCC</text>
<text text-anchor="middle" x="325.5" y="-150.6" font-family="Helvetica,sans-Serif" font-size="8.00" fill="#000000">...</text>
</g>
<!-- Node18 -->
<g id="node7" class="node">
<title>Node18</title>
<g id="a_node7"><a xlink:href="../../d1/d3c/classgslpp_1_1matrix.html" target="_top" xlink:title="gslpp::matrix\&lt; gslpp\l::complex \&gt;">
<polygon fill="none" stroke="#ff0000" points="0,-54 0,-80 88,-80 88,-54 0,-54"/>
<text text-anchor="start" x="8" y="-69.6" font-family="Helvetica,sans-Serif" font-size="8.00" fill="#000000">gslpp::matrix&lt; gslpp</text>
<text text-anchor="middle" x="44" y="-60.6" font-family="Helvetica,sans-Serif" font-size="8.00" fill="#000000">::complex &gt;</text>
</a>
</g>
</g>
<!-- Node18&#45;&gt;Node3 -->
<g id="edge17" class="edge">
<title>Node18&#45;&gt;Node3</title>
<path fill="none" stroke="#9a32cd" stroke-dasharray="5,2" d="M98.335,-59.5854C100.9235,-59.3591 103.4886,-59.1614 106,-59 132.6118,-57.2902 139.3357,-58.643 166,-59 215.7912,-59.6667 228.4243,-57.325 278,-62 376.2692,-71.2669 490.3874,-92.5089 550.1462,-104.4489"/>
<polygon fill="#9a32cd" stroke="#9a32cd" points="97.9044,-56.1108 88.2995,-60.5824 98.5966,-63.0765 97.9044,-56.1108"/>
<text text-anchor="middle" x="325.5" y="-82.6" font-family="Helvetica,sans-Serif" font-size="8.00" fill="#000000"> myCKM</text>
<text text-anchor="middle" x="325.5" y="-73.6" font-family="Helvetica,sans-Serif" font-size="8.00" fill="#000000">myCKMR</text>
</g>
<!-- Node18&#45;&gt;Node4 -->
<g id="edge6" class="edge">
<title>Node18&#45;&gt;Node4</title>
<path fill="none" stroke="#9a32cd" stroke-dasharray="5,2" d="M98.2174,-62.6572C165.9913,-60.2297 281.9496,-66.3735 355,-127 368.7654,-138.4243 364.4777,-147.272 373,-163 389.0232,-192.5712 409.6304,-226.7218 419.1909,-242.3651"/>
<polygon fill="#9a32cd" stroke="#9a32cd" points="98.0123,-59.1627 88.1732,-63.0926 98.3155,-66.1561 98.0123,-59.1627"/>
<text text-anchor="middle" x="231" y="-87.6" font-family="Helvetica,sans-Serif" font-size="8.00" fill="#000000"> Vckm</text>
</g>
<!-- Node18&#45;&gt;Node20 -->
<g id="edge9" class="edge">
<title>Node18&#45;&gt;Node20</title>
<path fill="none" stroke="#9a32cd" stroke-dasharray="5,2" d="M53.8669,-89.7408C78.7311,-146.1834 144.7652,-290.6102 184,-325 188.4682,-328.9164 193.8788,-332.0222 199.4159,-334.4718"/>
<polygon fill="#9a32cd" stroke="#9a32cd" points="56.9374,-88.0274 49.719,-80.272 50.5256,-90.8361 56.9374,-88.0274"/>
<text text-anchor="middle" x="136" y="-331.6" font-family="Helvetica,sans-Serif" font-size="8.00" fill="#000000"> Yn</text>
<text text-anchor="middle" x="136" y="-322.6" font-family="Helvetica,sans-Serif" font-size="8.00" fill="#000000">Yd</text>
<text text-anchor="middle" x="136" y="-313.6" font-family="Helvetica,sans-Serif" font-size="8.00" fill="#000000">Yu</text>
<text text-anchor="middle" x="136" y="-304.6" font-family="Helvetica,sans-Serif" font-size="8.00" fill="#000000">Ye</text>
</g>
<!-- Node47 -->
<g id="node9" class="node">
<title>Node47</title>
<g id="a_node9"><a xlink:href="../../d6/da6/class_left_right_symmetric_model.html" target="_top" xlink:title="A base class for generic Left Right Symmetric Models. ">
<polygon fill="none" stroke="#ff0000" points="924,-117.5 924,-134.5 1032,-134.5 1032,-117.5 924,-117.5"/>
<text text-anchor="middle" x="978" y="-124.1" font-family="Helvetica,sans-Serif" font-size="8.00" fill="#000000">LeftRightSymmetricModel</text>
</a>
</g>
</g>
<!-- Node18&#45;&gt;Node47 -->
<g id="edge14" class="edge">
<title>Node18&#45;&gt;Node47</title>
<path fill="none" stroke="#9a32cd" stroke-dasharray="5,2" d="M74.2729,-48.8502C110.3018,-29.0083 172.909,0 231,0 231,0 231,0 783.5,0 870.0024,0 948.396,-88.8725 971.2876,-117.3395"/>
<polygon fill="#9a32cd" stroke="#9a32cd" points="72.2661,-45.9636 65.273,-53.9227 75.7031,-52.0617 72.2661,-45.9636"/>
<text text-anchor="middle" x="498.5" y="-2.6" font-family="Helvetica,sans-Serif" font-size="8.00" fill="#000000"> U</text>
</g>
<!-- Node20&#45;&gt;Node4 -->
<g id="edge7" class="edge">
<title>Node20&#45;&gt;Node4</title>
<path fill="none" stroke="#9a32cd" stroke-dasharray="5,2" d="M276.6617,-343.0308C301.097,-341.3625 331.01,-336.5199 355,-324 384.6303,-308.5365 408.7342,-275.5116 419.0643,-259.738"/>
<polygon fill="#9a32cd" stroke="#9a32cd" points="276.3594,-339.5418 266.558,-343.5646 276.7287,-346.5321 276.3594,-339.5418"/>
<text text-anchor="middle" x="325.5" y="-343.6" font-family="Helvetica,sans-Serif" font-size="8.00" fill="#000000"> SM</text>
</g>
<!-- Node20&#45;&gt;Node47 -->
<g id="edge11" class="edge">
<title>Node20&#45;&gt;Node47</title>
<path fill="none" stroke="#191970" d="M256.665,-356.157C293.0225,-373.5447 362.0607,-402 424.5,-402 424.5,-402 424.5,-402 783.5,-402 917.7386,-402 967.4522,-181.1486 976.4454,-134.5628"/>
<polygon fill="#191970" stroke="#191970" points="257.8302,-352.8307 247.3096,-351.5791 254.7535,-359.1183 257.8302,-352.8307"/>
</g>
<!-- Node47&#45;&gt;Node3 -->
<g id="edge10" class="edge">
<title>Node47&#45;&gt;Node3</title>
<path fill="none" stroke="#9a32cd" stroke-dasharray="5,2" d="M913.4309,-124.9558C900.3771,-124.6891 886.748,-124.3707 874,-124 801.7568,-121.8991 719.1565,-118.5757 662.0154,-116.1312"/>
<polygon fill="#9a32cd" stroke="#9a32cd" points="913.6819,-128.4614 923.7488,-125.1587 913.8195,-121.4627 913.6819,-128.4614"/>
<text text-anchor="middle" x="783.5" y="-126.6" font-family="Helvetica,sans-Serif" font-size="8.00" fill="#000000"> myLeftRightSymmetricModel</text>
</g>
<!-- Node48&#45;&gt;Node47 -->
<g id="edge12" class="edge">
<title>Node48&#45;&gt;Node47</title>
<path fill="none" stroke="#9a32cd" stroke-dasharray="5,2" d="M866.1432,-102.996C890.4069,-107.986 915.9119,-113.2312 936.4301,-117.4509"/>
<polygon fill="#9a32cd" stroke="#9a32cd" points="866.7013,-99.5376 856.2012,-100.9514 865.2912,-106.3941 866.7013,-99.5376"/>
<text text-anchor="middle" x="890" y="-113.6" font-family="Helvetica,sans-Serif" font-size="8.00" fill="#000000"> LRSMM</text>
</g>
</g>
</svg>
