<?xml version="1.0" encoding="UTF-8" standalone="no"?>
<!DOCTYPE svg PUBLIC "-//W3C//DTD SVG 1.1//EN"
 "http://www.w3.org/Graphics/SVG/1.1/DTD/svg11.dtd">
<!-- Generated by graphviz version 2.40.1 (20161225.0304)
 -->
<!-- Title: log10_pp_H5ppmmH5mmpp_TH13 Pages: 1 -->
<svg width="465pt" height="288pt"
 viewBox="0.00 0.00 465.00 288.00" xmlns="http://www.w3.org/2000/svg" xmlns:xlink="http://www.w3.org/1999/xlink">
<g id="graph0" class="graph" transform="scale(1 1) rotate(0) translate(4 284)">
<title>log10_pp_H5ppmmH5mmpp_TH13</title>
<!-- Node2 -->
<g id="node1" class="node">
<title>Node2</title>
<polygon fill="#bfbfbf" stroke="#000000" points="0,-.5 0,-17.5 143,-17.5 143,-.5 0,-.5"/>
<text text-anchor="middle" x="71.5" y="-7.1" font-family="Helvetica,sans-Serif" font-size="8.00" fill="#000000">log10_pp_H5ppmmH5mmpp_TH13</text>
</g>
<!-- Node3 -->
<g id="node2" class="node">
<title>Node3</title>
<g id="a_node2"><a xlink:href="../../dc/d1f/class_th_observable.html" target="_top" xlink:title="A class for a model prediction of an observable. ">
<polygon fill="none" stroke="#000000" points="30,-99.5 30,-116.5 97,-116.5 97,-99.5 30,-99.5"/>
<text text-anchor="middle" x="63.5" y="-106.1" font-family="Helvetica,sans-Serif" font-size="8.00" fill="#000000">ThObservable</text>
</a>
</g>
</g>
<!-- Node3&#45;&gt;Node2 -->
<g id="edge1" class="edge">
<title>Node3&#45;&gt;Node2</title>
<path fill="none" stroke="#191970" d="M65.033,-89.0287C66.7693,-67.5427 69.5229,-33.4668 70.8031,-17.6245"/>
<polygon fill="#191970" stroke="#191970" points="61.5269,-88.965 64.2099,-99.2144 68.5041,-89.5288 61.5269,-88.965"/>
</g>
<!-- Node4 -->
<g id="node3" class="node">
<title>Node4</title>
<g id="a_node3"><a xlink:href="../../dc/dd5/class_standard_model.html" target="_top" xlink:title="A model class for the Standard Model. ">
<polygon fill="none" stroke="#ff0000" points="237,-207.5 237,-224.5 308,-224.5 308,-207.5 237,-207.5"/>
<text text-anchor="middle" x="272.5" y="-214.1" font-family="Helvetica,sans-Serif" font-size="8.00" fill="#000000">StandardModel</text>
</a>
</g>
</g>
<!-- Node4&#45;&gt;Node3 -->
<g id="edge2" class="edge">
<title>Node4&#45;&gt;Node3</title>
<path fill="none" stroke="#9a32cd" stroke-dasharray="5,2" d="M226.8247,-208.0106C177.5437,-198.5473 103.3154,-181.5747 82.5,-162 69.6129,-149.881 65.4612,-128.5082 64.1276,-116.6092"/>
<polygon fill="#9a32cd" stroke="#9a32cd" points="226.4588,-211.5032 236.9338,-209.9142 227.7543,-204.6241 226.4588,-211.5032"/>
<text text-anchor="middle" x="149" y="-182.6" font-family="Helvetica,sans-Serif" font-size="8.00" fill="#000000"> SM</text>
</g>
<!-- Node9 -->
<g id="node6" class="node">
<title>Node9</title>
<g id="a_node6"><a xlink:href="../../dc/df3/class_e_w_s_mcache.html" target="_top" xlink:title="A class for cache variables used in computing radiative corrections to the EW precision observables...">
<polygon fill="none" stroke="#ff0000" points="394,-140 394,-157 457,-157 457,-140 394,-140"/>
<text text-anchor="middle" x="425.5" y="-146.6" font-family="Helvetica,sans-Serif" font-size="8.00" fill="#000000">EWSMcache</text>
</a>
</g>
</g>
<!-- Node4&#45;&gt;Node9 -->
<g id="edge6" class="edge">
<title>Node4&#45;&gt;Node9</title>
<path fill="none" stroke="#9a32cd" stroke-dasharray="5,2" d="M301.146,-203.362C331.6807,-189.8909 379.213,-168.9207 405.7965,-157.1927"/>
<polygon fill="#9a32cd" stroke="#9a32cd" points="299.614,-200.2124 291.8776,-207.4511 302.4395,-206.6168 299.614,-200.2124"/>
<text text-anchor="middle" x="361" y="-182.6" font-family="Helvetica,sans-Serif" font-size="8.00" fill="#000000"> SM</text>
</g>
<!-- Node48 -->
<g id="node8" class="node">
<title>Node48</title>
<g id="a_node8"><a xlink:href="../../d2/df3/class_n_pbase.html" target="_top" xlink:title="The auxiliary base model class for other model classes. ">
<polygon fill="none" stroke="#000000" points="213,-140 213,-157 258,-157 258,-140 213,-140"/>
<text text-anchor="middle" x="235.5" y="-146.6" font-family="Helvetica,sans-Serif" font-size="8.00" fill="#000000">NPbase</text>
</a>
</g>
</g>
<!-- Node4&#45;&gt;Node48 -->
<g id="edge10" class="edge">
<title>Node4&#45;&gt;Node48</title>
<path fill="none" stroke="#191970" d="M242.9868,-201.8791C238.3692,-198.3354 234.2289,-194.0645 231.5,-189 226.1376,-179.048 229.0407,-165.7157 231.9721,-157.116"/>
<polygon fill="#191970" stroke="#191970" points="241.3206,-204.9705 251.6124,-207.4867 245.136,-199.1017 241.3206,-204.9705"/>
</g>
<!-- Node4&#45;&gt;Node48 -->
<g id="edge11" class="edge">
<title>Node4&#45;&gt;Node48</title>
<path fill="none" stroke="#9a32cd" stroke-dasharray="5,2" d="M258.3965,-199.3772C255.9217,-196.0561 253.5017,-192.5071 251.5,-189 245.5789,-178.6259 240.8719,-165.6301 238.1359,-157.2004"/>
<polygon fill="#9a32cd" stroke="#9a32cd" points="255.8586,-201.8087 264.8259,-207.4512 261.3345,-197.4481 255.8586,-201.8087"/>
<text text-anchor="middle" x="266" y="-182.6" font-family="Helvetica,sans-Serif" font-size="8.00" fill="#000000"> trueSM</text>
</g>
<!-- Node5 -->
<g id="node4" class="node">
<title>Node5</title>
<g id="a_node4"><a xlink:href="../../dd/dfa/class_q_c_d.html" target="_top" xlink:title="A class for parameters related to QCD, hadrons and quarks. ">
<polygon fill="none" stroke="#ff0000" points="255.5,-262.5 255.5,-279.5 289.5,-279.5 289.5,-262.5 255.5,-262.5"/>
<text text-anchor="middle" x="272.5" y="-269.1" font-family="Helvetica,sans-Serif" font-size="8.00" fill="#000000">QCD</text>
</a>
</g>
</g>
<!-- Node5&#45;&gt;Node4 -->
<g id="edge3" class="edge">
<title>Node5&#45;&gt;Node4</title>
<path fill="none" stroke="#191970" d="M272.5,-252.1166C272.5,-242.8173 272.5,-232.0557 272.5,-224.7149"/>
<polygon fill="#191970" stroke="#191970" points="269.0001,-252.4062 272.5,-262.4063 276.0001,-252.4063 269.0001,-252.4062"/>
</g>
<!-- Node8 -->
<g id="node5" class="node">
<title>Node8</title>
<g id="a_node5"><a xlink:href="../../db/d32/class_e_w_s_m_two_fermions_l_e_p2.html" target="_top" xlink:title="A class for the form factors , &#160;and &#160;in the processes &#160;at LEP&#45;II. ">
<polygon fill="none" stroke="#ff0000" points="281,-63.5 281,-80.5 390,-80.5 390,-63.5 281,-63.5"/>
<text text-anchor="middle" x="335.5" y="-70.1" font-family="Helvetica,sans-Serif" font-size="8.00" fill="#000000">EWSMTwoFermionsLEP2</text>
</a>
</g>
</g>
<!-- Node8&#45;&gt;Node4 -->
<g id="edge4" class="edge">
<title>Node8&#45;&gt;Node4</title>
<path fill="none" stroke="#9a32cd" stroke-dasharray="5,2" d="M326.2739,-89.7744C319.8934,-102.2955 311.3528,-119.5203 304.5,-135 292.9932,-160.9927 281.1292,-192.4925 275.6383,-207.3928"/>
<polygon fill="#9a32cd" stroke="#9a32cd" points="329.3951,-91.3582 330.8544,-80.8644 323.1695,-88.1578 329.3951,-91.3582"/>
<text text-anchor="middle" x="345" y="-146.6" font-family="Helvetica,sans-Serif" font-size="8.00" fill="#000000"> myTwoFermionsLEP2</text>
</g>
<!-- Node9&#45;&gt;Node4 -->
<g id="edge7" class="edge">
<title>Node9&#45;&gt;Node4</title>
<path fill="none" stroke="#9a32cd" stroke-dasharray="5,2" d="M408.701,-164.0638C398.8051,-172.5023 385.6744,-182.5038 372.5,-189 352.3392,-198.9411 328.0248,-205.6114 308.4198,-209.8349"/>
<polygon fill="#9a32cd" stroke="#9a32cd" points="411.3138,-166.4255 416.4846,-157.1781 406.6757,-161.1826 411.3138,-166.4255"/>
<text text-anchor="middle" x="416.5" y="-182.6" font-family="Helvetica,sans-Serif" font-size="8.00" fill="#000000"> myEWSMcache</text>
</g>
<!-- Node9&#45;&gt;Node8 -->
<g id="edge5" class="edge">
<title>Node9&#45;&gt;Node8</title>
<path fill="none" stroke="#9a32cd" stroke-dasharray="5,2" d="M407.4162,-133.1288C388.8726,-117.3667 360.6883,-93.4101 345.7037,-80.6732"/>
<polygon fill="#9a32cd" stroke="#9a32cd" points="405.2897,-135.9148 415.1759,-139.7245 409.8232,-130.5812 405.2897,-135.9148"/>
<text text-anchor="middle" x="397.5" y="-106.1" font-family="Helvetica,sans-Serif" font-size="8.00" fill="#000000"> cache</text>
</g>
<!-- Node47 -->
<g id="node7" class="node">
<title>Node47</title>
<g id="a_node7"><a xlink:href="../../db/d2b/class_georgi_machacek.html" target="_top" xlink:title="A base class for the Georgi&#45;Machacek model. ">
<polygon fill="none" stroke="#000000" points="107,-63.5 107,-80.5 184,-80.5 184,-63.5 107,-63.5"/>
<text text-anchor="middle" x="145.5" y="-70.1" font-family="Helvetica,sans-Serif" font-size="8.00" fill="#000000">GeorgiMachacek</text>
</a>
</g>
</g>
<!-- Node47&#45;&gt;Node2 -->
<g id="edge8" class="edge">
<title>Node47&#45;&gt;Node2</title>
<path fill="none" stroke="#9a32cd" stroke-dasharray="5,2" d="M125.8707,-57.3441C120.7933,-53.4215 115.3832,-49.1235 110.5,-45 99.7989,-35.9637 88.0563,-24.9666 80.2816,-17.5228"/>
<polygon fill="#9a32cd" stroke="#9a32cd" points="123.8729,-60.222 133.9498,-63.4942 128.1128,-54.6522 123.8729,-60.222"/>
<text text-anchor="middle" x="123.5" y="-38.6" font-family="Helvetica,sans-Serif" font-size="8.00" fill="#000000"> myGM</text>
</g>
<!-- Node51 -->
<g id="node10" class="node">
<title>Node51</title>
<g id="a_node10"><a xlink:href="../../d7/db7/class_g_mcache.html" target="_top" xlink:title="A class for the caching of GeorgiMachacek objects. ">
<polygon fill="none" stroke="#ff0000" points="165,-.5 165,-17.5 216,-17.5 216,-.5 165,-.5"/>
<text text-anchor="middle" x="190.5" y="-7.1" font-family="Helvetica,sans-Serif" font-size="8.00" fill="#000000">GMcache</text>
</a>
</g>
</g>
<!-- Node47&#45;&gt;Node51 -->
<g id="edge14" class="edge">
<title>Node47&#45;&gt;Node51</title>
<path fill="none" stroke="#9a32cd" stroke-dasharray="5,2" d="M139.8932,-53.5274C139.1207,-47.5922 139.4525,-41.2107 142.5,-36 147.4718,-27.4991 156.2131,-21.4679 164.8858,-17.2954"/>
<polygon fill="#9a32cd" stroke="#9a32cd" points="136.5026,-54.4019 142.1285,-63.3796 143.3291,-52.853 136.5026,-54.4019"/>
<text text-anchor="middle" x="155.5" y="-38.6" font-family="Helvetica,sans-Serif" font-size="8.00" fill="#000000"> myGM</text>
</g>
<!-- Node48&#45;&gt;Node47 -->
<g id="edge9" class="edge">
<title>Node48&#45;&gt;Node47</title>
<path fill="none" stroke="#191970" d="M217.4162,-133.1288C198.8726,-117.3667 170.6883,-93.4101 155.7037,-80.6732"/>
<polygon fill="#191970" stroke="#191970" points="215.2897,-135.9148 225.1759,-139.7245 219.8232,-130.5812 215.2897,-135.9148"/>
</g>
<!-- Node49 -->
<g id="node9" class="node">
<title>Node49</title>
<g id="a_node9"><a xlink:href="../../d5/d76/class_matching.html" target="_top" xlink:title="Matching\&lt; GMMatching,\l GeorgiMachacek \&gt;">
<polygon fill="none" stroke="#ff0000" points="92,-135.5 92,-161.5 195,-161.5 195,-135.5 92,-135.5"/>
<text text-anchor="start" x="100" y="-151.1" font-family="Helvetica,sans-Serif" font-size="8.00" fill="#000000">Matching&lt; GMMatching,</text>
<text text-anchor="middle" x="143.5" y="-142.1" font-family="Helvetica,sans-Serif" font-size="8.00" fill="#000000"> GeorgiMachacek &gt;</text>
</a>
</g>
</g>
<!-- Node49&#45;&gt;Node47 -->
<g id="edge12" class="edge">
<title>Node49&#45;&gt;Node47</title>
<path fill="none" stroke="#9a32cd" stroke-dasharray="5,2" d="M144.1121,-125.0882C144.5027,-110.1453 144.9869,-91.6269 145.2679,-80.8783"/>
<polygon fill="#9a32cd" stroke="#9a32cd" points="140.611,-125.0866 143.8484,-135.1747 147.6086,-125.2696 140.611,-125.0866"/>
<text text-anchor="middle" x="156.5" y="-106.1" font-family="Helvetica,sans-Serif" font-size="8.00" fill="#000000"> GMM</text>
</g>
<!-- Node51&#45;&gt;Node47 -->
<g id="edge13" class="edge">
<title>Node51&#45;&gt;Node47</title>
<path fill="none" stroke="#9a32cd" stroke-dasharray="5,2" d="M182.9142,-26.9787C180.0347,-32.9508 176.4785,-39.4801 172.5,-45 167.6161,-51.7761 160.9991,-58.4226 155.5381,-63.4257"/>
<polygon fill="#9a32cd" stroke="#9a32cd" points="186.1639,-28.2861 187.0765,-17.7307 179.7806,-25.4132 186.1639,-28.2861"/>
<text text-anchor="middle" x="202.5" y="-38.6" font-family="Helvetica,sans-Serif" font-size="8.00" fill="#000000"> myGMcache</text>
</g>
</g>
</svg>
