<?xml version="1.0" encoding="UTF-8" standalone="no"?>
<!DOCTYPE svg PUBLIC "-//W3C//DTD SVG 1.1//EN"
 "http://www.w3.org/Graphics/SVG/1.1/DTD/svg11.dtd">
<!-- Generated by graphviz version 2.40.1 (20161225.0304)
 -->
<!-- Title: EWSMTwoLoopEW.cpp Pages: 1 -->
<svg width="334pt" height="296pt"
 viewBox="0.00 0.00 334.00 296.00" xmlns="http://www.w3.org/2000/svg" xmlns:xlink="http://www.w3.org/1999/xlink">
<g id="graph0" class="graph" transform="scale(1 1) rotate(0) translate(4 292)">
<title>EWSMTwoLoopEW.cpp</title>
<!-- Node0 -->
<g id="node1" class="node">
<title>Node0</title>
<polygon fill="#bfbfbf" stroke="#000000" points="41.5,-270.5 41.5,-287.5 143.5,-287.5 143.5,-270.5 41.5,-270.5"/>
<text text-anchor="middle" x="92.5" y="-277.1" font-family="Helvetica,sans-Serif" font-size="8.00" fill="#000000">EWSMTwoLoopEW.cpp</text>
</g>
<!-- Node1 -->
<g id="node2" class="node">
<title>Node1</title>
<polygon fill="none" stroke="#bfbfbf" points="0,-216.5 0,-233.5 51,-233.5 51,-216.5 0,-216.5"/>
<text text-anchor="middle" x="25.5" y="-223.1" font-family="Helvetica,sans-Serif" font-size="8.00" fill="#000000">stdexcept</text>
</g>
<!-- Node0&#45;&gt;Node1 -->
<g id="edge1" class="edge">
<title>Node0&#45;&gt;Node1</title>
<path fill="none" stroke="#191970" d="M81.7353,-270.324C71.7339,-262.2631 56.6135,-250.0765 44.5695,-240.3695"/>
<polygon fill="#191970" stroke="#191970" points="46.4429,-237.3841 36.4606,-233.8339 42.0502,-242.8343 46.4429,-237.3841"/>
</g>
<!-- Node2 -->
<g id="node3" class="node">
<title>Node2</title>
<polygon fill="none" stroke="#bfbfbf" points="69.5,-216.5 69.5,-233.5 115.5,-233.5 115.5,-216.5 69.5,-216.5"/>
<text text-anchor="middle" x="92.5" y="-223.1" font-family="Helvetica,sans-Serif" font-size="8.00" fill="#000000">TMath.h</text>
</g>
<!-- Node0&#45;&gt;Node2 -->
<g id="edge2" class="edge">
<title>Node0&#45;&gt;Node2</title>
<path fill="none" stroke="#191970" d="M92.5,-270.083C92.5,-263.0059 92.5,-252.8611 92.5,-243.9865"/>
<polygon fill="#191970" stroke="#191970" points="96.0001,-243.751 92.5,-233.7511 89.0001,-243.7511 96.0001,-243.751"/>
</g>
<!-- Node3 -->
<g id="node4" class="node">
<title>Node3</title>
<g id="a_node4"><a xlink:href="../../d1/dd4/_e_w_s_m_two_loop_e_w_8h.html" target="_top" xlink:title="EWSMTwoLoopEW.h">
<polygon fill="none" stroke="#000000" points="133.5,-216.5 133.5,-233.5 227.5,-233.5 227.5,-216.5 133.5,-216.5"/>
<text text-anchor="middle" x="180.5" y="-223.1" font-family="Helvetica,sans-Serif" font-size="8.00" fill="#000000">EWSMTwoLoopEW.h</text>
</a>
</g>
</g>
<!-- Node0&#45;&gt;Node3 -->
<g id="edge3" class="edge">
<title>Node0&#45;&gt;Node3</title>
<path fill="none" stroke="#191970" d="M106.6387,-270.324C120.3663,-261.9002 141.4363,-248.9709 157.5643,-239.0741"/>
<polygon fill="#191970" stroke="#191970" points="159.7037,-241.8678 166.3964,-233.6545 156.0426,-235.9016 159.7037,-241.8678"/>
</g>
<!-- Node4 -->
<g id="node5" class="node">
<title>Node4</title>
<g id="a_node5"><a xlink:href="../../d8/d46/_e_w_s_mcache_8h.html" target="_top" xlink:title="EWSMcache.h">
<polygon fill="none" stroke="#ff0000" points="145,-108.5 145,-125.5 214,-125.5 214,-108.5 145,-108.5"/>
<text text-anchor="middle" x="179.5" y="-115.1" font-family="Helvetica,sans-Serif" font-size="8.00" fill="#000000">EWSMcache.h</text>
</a>
</g>
</g>
<!-- Node3&#45;&gt;Node4 -->
<g id="edge4" class="edge">
<title>Node3&#45;&gt;Node4</title>
<path fill="none" stroke="#191970" d="M175.6241,-216.3721C170.9412,-207.5522 164.1924,-193.2987 161.5,-180 158.3964,-164.6702 163.8195,-147.6333 169.5051,-135.1455"/>
<polygon fill="#191970" stroke="#191970" points="172.806,-136.3709 174.1613,-125.8631 166.5491,-133.2323 172.806,-136.3709"/>
</g>
<!-- Node56 -->
<g id="node10" class="node">
<title>Node56</title>
<g id="a_node10"><a xlink:href="../../d2/d7c/_e_w_s_m_one_loop_e_w_8h.html" target="_top" xlink:title="EWSMOneLoopEW.h">
<polygon fill="none" stroke="#000000" points="170.5,-162.5 170.5,-179.5 264.5,-179.5 264.5,-162.5 170.5,-162.5"/>
<text text-anchor="middle" x="217.5" y="-169.1" font-family="Helvetica,sans-Serif" font-size="8.00" fill="#000000">EWSMOneLoopEW.h</text>
</a>
</g>
</g>
<!-- Node3&#45;&gt;Node56 -->
<g id="edge10" class="edge">
<title>Node3&#45;&gt;Node56</title>
<path fill="none" stroke="#191970" d="M186.6098,-216.083C191.7822,-208.5341 199.3461,-197.4948 205.6944,-188.2298"/>
<polygon fill="#191970" stroke="#191970" points="208.7388,-189.9787 211.5039,-179.7511 202.9643,-186.0221 208.7388,-189.9787"/>
</g>
<!-- Node5 -->
<g id="node6" class="node">
<title>Node5</title>
<polygon fill="none" stroke="#bfbfbf" points="60.5,-54.5 60.5,-71.5 98.5,-71.5 98.5,-54.5 60.5,-54.5"/>
<text text-anchor="middle" x="79.5" y="-61.1" font-family="Helvetica,sans-Serif" font-size="8.00" fill="#000000">cmath</text>
</g>
<!-- Node4&#45;&gt;Node5 -->
<g id="edge5" class="edge">
<title>Node4&#45;&gt;Node5</title>
<path fill="none" stroke="#191970" d="M163.4333,-108.324C147.5422,-99.7428 122.9926,-86.486 104.5415,-76.5224"/>
<polygon fill="#191970" stroke="#191970" points="105.989,-73.3264 95.5269,-71.6545 102.6629,-79.4857 105.989,-73.3264"/>
</g>
<!-- Node6 -->
<g id="node7" class="node">
<title>Node6</title>
<g id="a_node7"><a xlink:href="../../d3/d6b/_p_vfunctions_8h.html" target="_top" xlink:title="PVfunctions.h">
<polygon fill="none" stroke="#ff0000" points="116.5,-54.5 116.5,-71.5 182.5,-71.5 182.5,-54.5 116.5,-54.5"/>
<text text-anchor="middle" x="149.5" y="-61.1" font-family="Helvetica,sans-Serif" font-size="8.00" fill="#000000">PVfunctions.h</text>
</a>
</g>
</g>
<!-- Node4&#45;&gt;Node6 -->
<g id="edge6" class="edge">
<title>Node4&#45;&gt;Node6</title>
<path fill="none" stroke="#191970" d="M174.5461,-108.083C170.3959,-100.6127 164.3469,-89.7244 159.2333,-80.5199"/>
<polygon fill="#191970" stroke="#191970" points="162.2777,-78.7929 154.3617,-71.7511 156.1586,-82.1924 162.2777,-78.7929"/>
</g>
<!-- Node23 -->
<g id="node8" class="node">
<title>Node23</title>
<g id="a_node8"><a xlink:href="../../dd/dc1/_polylogarithms_8h.html" target="_top" xlink:title="Polylogarithms.h">
<polygon fill="none" stroke="#ff0000" points="141.5,-.5 141.5,-17.5 217.5,-17.5 217.5,-.5 141.5,-.5"/>
<text text-anchor="middle" x="179.5" y="-7.1" font-family="Helvetica,sans-Serif" font-size="8.00" fill="#000000">Polylogarithms.h</text>
</a>
</g>
</g>
<!-- Node4&#45;&gt;Node23 -->
<g id="edge8" class="edge">
<title>Node4&#45;&gt;Node23</title>
<path fill="none" stroke="#191970" d="M182.8804,-108.4911C187.2677,-96.4326 194.0751,-73.6508 191.5,-54 190.3444,-45.1813 187.9663,-35.6328 185.6297,-27.6098"/>
<polygon fill="#191970" stroke="#191970" points="188.8991,-26.3366 182.5877,-17.8268 182.2148,-28.4151 188.8991,-26.3366"/>
</g>
<!-- Node25 -->
<g id="node9" class="node">
<title>Node25</title>
<g id="a_node9"><a xlink:href="../../db/d48/_clausen_functions_8h.html" target="_top" xlink:title="ClausenFunctions.h">
<polygon fill="none" stroke="#ff0000" points="239,-54.5 239,-71.5 326,-71.5 326,-54.5 239,-54.5"/>
<text text-anchor="middle" x="282.5" y="-61.1" font-family="Helvetica,sans-Serif" font-size="8.00" fill="#000000">ClausenFunctions.h</text>
</a>
</g>
</g>
<!-- Node4&#45;&gt;Node25 -->
<g id="edge9" class="edge">
<title>Node4&#45;&gt;Node25</title>
<path fill="none" stroke="#191970" d="M196.0487,-108.324C212.4916,-99.7034 237.9348,-86.3643 256.9684,-76.3855"/>
<polygon fill="#191970" stroke="#191970" points="258.7609,-79.3977 265.9923,-71.6545 255.5105,-73.198 258.7609,-79.3977"/>
</g>
<!-- Node6&#45;&gt;Node23 -->
<g id="edge7" class="edge">
<title>Node6&#45;&gt;Node23</title>
<path fill="none" stroke="#191970" d="M154.4539,-54.083C158.6041,-46.6127 164.6531,-35.7244 169.7667,-26.5199"/>
<polygon fill="#191970" stroke="#191970" points="172.8414,-28.1924 174.6383,-17.7511 166.7223,-24.7929 172.8414,-28.1924"/>
</g>
<!-- Node56&#45;&gt;Node4 -->
<g id="edge11" class="edge">
<title>Node56&#45;&gt;Node4</title>
<path fill="none" stroke="#191970" d="M211.2251,-162.083C205.8575,-154.4554 197.9824,-143.2645 191.4213,-133.9408"/>
<polygon fill="#191970" stroke="#191970" points="194.2755,-131.9149 185.6582,-125.7511 188.5508,-135.9434 194.2755,-131.9149"/>
</g>
</g>
</svg>
