<?xml version="1.0" encoding="UTF-8" standalone="no"?>
<!DOCTYPE svg PUBLIC "-//W3C//DTD SVG 1.1//EN"
 "http://www.w3.org/Graphics/SVG/1.1/DTD/svg11.dtd">
<!-- Generated by graphviz version 2.40.1 (20161225.0304)
 -->
<!-- Title: NeutralinosOneToFour.hpp Pages: 1 -->
<svg width="312pt" height="314pt"
 viewBox="0.00 0.00 311.50 314.00" xmlns="http://www.w3.org/2000/svg" xmlns:xlink="http://www.w3.org/1999/xlink">
<g id="graph0" class="graph" transform="scale(1 1) rotate(0) translate(4 310)">
<title>NeutralinosOneToFour.hpp</title>
<!-- Node51 -->
<g id="node1" class="node">
<title>Node51</title>
<polygon fill="#bfbfbf" stroke="#000000" points="151.5,-288.5 151.5,-305.5 264.5,-305.5 264.5,-288.5 151.5,-288.5"/>
<text text-anchor="middle" x="208" y="-295.1" font-family="Helvetica,sans-Serif" font-size="8.00" fill="#000000">NeutralinosOneToFour.hpp</text>
</g>
<!-- Node52 -->
<g id="node2" class="node">
<title>Node52</title>
<g id="a_node2"><a xlink:href="../../d1/dc4/_minimal_supersymmetric_standard_model_8hpp.html" target="_top" xlink:title="MinimalSupersymmetricStandard\lModel.hpp">
<polygon fill="none" stroke="#000000" points="0,-225.5 0,-251.5 134,-251.5 134,-225.5 0,-225.5"/>
<text text-anchor="start" x="8" y="-241.1" font-family="Helvetica,sans-Serif" font-size="8.00" fill="#000000">MinimalSupersymmetricStandard</text>
<text text-anchor="middle" x="67" y="-232.1" font-family="Helvetica,sans-Serif" font-size="8.00" fill="#000000">Model.hpp</text>
</a>
</g>
</g>
<!-- Node51&#45;&gt;Node52 -->
<g id="edge1" class="edge">
<title>Node51&#45;&gt;Node52</title>
<path fill="none" stroke="#191970" d="M178.0765,-284.5849C154.683,-274.8791 122.2522,-261.4238 98.4718,-251.5574"/>
<polygon fill="#191970" stroke="#191970" points="176.9195,-287.8941 187.4974,-288.4936 179.6021,-281.4285 176.9195,-287.8941"/>
</g>
<!-- Node112 -->
<g id="node9" class="node">
<title>Node112</title>
<g id="a_node9"><a xlink:href="../../d9/d9d/_neutralinos_one_to_five_8hpp.html" target="_top" xlink:title="NeutralinosOneToFive.hpp">
<polygon fill="none" stroke="#000000" points="152,-230 152,-247 264,-247 264,-230 152,-230"/>
<text text-anchor="middle" x="208" y="-236.6" font-family="Helvetica,sans-Serif" font-size="8.00" fill="#000000">NeutralinosOneToFive.hpp</text>
</a>
</g>
</g>
<!-- Node51&#45;&gt;Node112 -->
<g id="edge11" class="edge">
<title>Node51&#45;&gt;Node112</title>
<path fill="none" stroke="#191970" d="M208,-278.1601C208,-267.7439 208,-255.3023 208,-247.1673"/>
<polygon fill="#191970" stroke="#191970" points="204.5001,-278.3681 208,-288.3681 211.5001,-278.3682 204.5001,-278.3681"/>
</g>
<!-- Node113 -->
<g id="node10" class="node">
<title>Node113</title>
<g id="a_node10"><a xlink:href="../../d5/d92/_p_s_c_8hpp.html" target="_top" xlink:title="PSC.hpp">
<polygon fill="none" stroke="#000000" points="254.5,-167 254.5,-184 303.5,-184 303.5,-167 254.5,-167"/>
<text text-anchor="middle" x="279" y="-173.6" font-family="Helvetica,sans-Serif" font-size="8.00" fill="#000000">PSC.hpp</text>
</a>
</g>
</g>
<!-- Node51&#45;&gt;Node113 -->
<g id="edge15" class="edge">
<title>Node51&#45;&gt;Node113</title>
<path fill="none" stroke="#191970" d="M238.251,-283.5509C251.2003,-276.1672 265.1284,-265.6921 273,-252 285.4828,-230.287 282.8673,-199.208 280.5971,-184.2293"/>
<polygon fill="#191970" stroke="#191970" points="236.3057,-280.62 229.0954,-288.3828 239.5729,-286.8107 236.3057,-280.62"/>
</g>
<!-- Node53 -->
<g id="node3" class="node">
<title>Node53</title>
<g id="a_node3"><a xlink:href="../../d0/d81/_default_spectra_8hpp.html" target="_top" xlink:title="DefaultSpectra.hpp">
<polygon fill="none" stroke="#000000" points="43.5,-108.5 43.5,-125.5 128.5,-125.5 128.5,-108.5 43.5,-108.5"/>
<text text-anchor="middle" x="86" y="-115.1" font-family="Helvetica,sans-Serif" font-size="8.00" fill="#000000">DefaultSpectra.hpp</text>
</a>
</g>
</g>
<!-- Node52&#45;&gt;Node53 -->
<g id="edge2" class="edge">
<title>Node52&#45;&gt;Node53</title>
<path fill="none" stroke="#191970" d="M64.0516,-215.2041C62.7606,-199.9118 62.2725,-179.565 66,-162 68.8396,-148.619 75.9422,-134.3861 80.8698,-125.5932"/>
<polygon fill="#191970" stroke="#191970" points="60.588,-215.7407 65.0846,-225.334 67.5519,-215.0305 60.588,-215.7407"/>
</g>
<!-- Node110 -->
<g id="node7" class="node">
<title>Node110</title>
<g id="a_node7"><a xlink:href="../../d3/d26/_next_to_minimal_supersymmetric_standard_model_8hpp.html" target="_top" xlink:title="NextToMinimalSupersymmetric\lStandardModel.hpp">
<polygon fill="none" stroke="#000000" points="108,-162.5 108,-188.5 236,-188.5 236,-162.5 108,-162.5"/>
<text text-anchor="start" x="116" y="-178.1" font-family="Helvetica,sans-Serif" font-size="8.00" fill="#000000">NextToMinimalSupersymmetric</text>
<text text-anchor="middle" x="172" y="-169.1" font-family="Helvetica,sans-Serif" font-size="8.00" fill="#000000">StandardModel.hpp</text>
</a>
</g>
</g>
<!-- Node52&#45;&gt;Node110 -->
<g id="edge6" class="edge">
<title>Node52&#45;&gt;Node110</title>
<path fill="none" stroke="#191970" d="M97.6928,-220.0843C114.5575,-209.9655 135.0734,-197.6559 150.2718,-188.5369"/>
<polygon fill="#191970" stroke="#191970" points="95.5303,-217.3001 88.7561,-225.4464 99.1318,-223.3026 95.5303,-217.3001"/>
</g>
<!-- Node111 -->
<g id="node8" class="node">
<title>Node111</title>
<g id="a_node8"><a xlink:href="../../d1/d34/_m_s_c_8hpp.html" target="_top" xlink:title="MSC.hpp">
<polygon fill="none" stroke="#000000" points="147,-108.5 147,-125.5 197,-125.5 197,-108.5 147,-108.5"/>
<text text-anchor="middle" x="172" y="-115.1" font-family="Helvetica,sans-Serif" font-size="8.00" fill="#000000">MSC.hpp</text>
</a>
</g>
</g>
<!-- Node52&#45;&gt;Node111 -->
<g id="edge10" class="edge">
<title>Node52&#45;&gt;Node111</title>
<path fill="none" stroke="#191970" d="M72.5763,-215.4308C77.4313,-199.0986 85.8016,-177.4401 99,-162 113.1238,-145.4773 134.8813,-133.1643 150.9715,-125.6334"/>
<polygon fill="#191970" stroke="#191970" points="69.146,-214.7059 69.8781,-225.2754 75.897,-216.5562 69.146,-214.7059"/>
</g>
<!-- Node54 -->
<g id="node4" class="node">
<title>Node54</title>
<g id="a_node4"><a xlink:href="../../dd/d0e/_m_e_c_8hpp.html" target="_top" xlink:title="MEC.hpp">
<polygon fill="none" stroke="#ff0000" points="139,-54.5 139,-71.5 189,-71.5 189,-54.5 139,-54.5"/>
<text text-anchor="middle" x="164" y="-61.1" font-family="Helvetica,sans-Serif" font-size="8.00" fill="#000000">MEC.hpp</text>
</a>
</g>
</g>
<!-- Node53&#45;&gt;Node54 -->
<g id="edge3" class="edge">
<title>Node53&#45;&gt;Node54</title>
<path fill="none" stroke="#191970" d="M106.768,-102.6221C121.0171,-92.7574 139.4562,-79.9919 151.4991,-71.6545"/>
<polygon fill="#191970" stroke="#191970" points="104.7617,-99.7541 98.532,-108.324 108.7462,-105.5095 104.7617,-99.7541"/>
</g>
<!-- Node94 -->
<g id="node6" class="node">
<title>Node94</title>
<g id="a_node6"><a xlink:href="../../d4/d42/_s_l_h_a_8hpp.html" target="_top" xlink:title="SLHA.hpp">
<polygon fill="none" stroke="#ff0000" points="59.5,-54.5 59.5,-71.5 112.5,-71.5 112.5,-54.5 59.5,-54.5"/>
<text text-anchor="middle" x="86" y="-61.1" font-family="Helvetica,sans-Serif" font-size="8.00" fill="#000000">SLHA.hpp</text>
</a>
</g>
</g>
<!-- Node53&#45;&gt;Node94 -->
<g id="edge5" class="edge">
<title>Node53&#45;&gt;Node94</title>
<path fill="none" stroke="#191970" d="M86,-97.8045C86,-88.9102 86,-78.7798 86,-71.7511"/>
<polygon fill="#191970" stroke="#191970" points="82.5001,-98.083 86,-108.083 89.5001,-98.083 82.5001,-98.083"/>
</g>
<!-- Node55 -->
<g id="node5" class="node">
<title>Node55</title>
<g id="a_node5"><a xlink:href="../../dd/d50/_standard_preselector_8hpp.html" target="_top" xlink:title="StandardPreselector.hpp">
<polygon fill="none" stroke="#ff0000" points="111.5,-.5 111.5,-17.5 216.5,-17.5 216.5,-.5 111.5,-.5"/>
<text text-anchor="middle" x="164" y="-7.1" font-family="Helvetica,sans-Serif" font-size="8.00" fill="#000000">StandardPreselector.hpp</text>
</a>
</g>
</g>
<!-- Node54&#45;&gt;Node55 -->
<g id="edge4" class="edge">
<title>Node54&#45;&gt;Node55</title>
<path fill="none" stroke="#191970" d="M164,-43.8045C164,-34.9102 164,-24.7798 164,-17.7511"/>
<polygon fill="#191970" stroke="#191970" points="160.5001,-44.083 164,-54.083 167.5001,-44.083 160.5001,-44.083"/>
</g>
<!-- Node110&#45;&gt;Node53 -->
<g id="edge7" class="edge">
<title>Node110&#45;&gt;Node53</title>
<path fill="none" stroke="#191970" d="M143.8673,-156.3632C128.5487,-145.943 110.3593,-133.57 98.5181,-125.5152"/>
<polygon fill="#191970" stroke="#191970" points="142.2483,-159.4949 152.4853,-162.2254 146.1854,-153.7071 142.2483,-159.4949"/>
</g>
<!-- Node110&#45;&gt;Node111 -->
<g id="edge8" class="edge">
<title>Node110&#45;&gt;Node111</title>
<path fill="none" stroke="#191970" d="M172,-151.9486C172,-142.6839 172,-132.6257 172,-125.689"/>
<polygon fill="#191970" stroke="#191970" points="168.5001,-152.2254 172,-162.2254 175.5001,-152.2255 168.5001,-152.2254"/>
</g>
<!-- Node111&#45;&gt;Node54 -->
<g id="edge9" class="edge">
<title>Node111&#45;&gt;Node54</title>
<path fill="none" stroke="#191970" d="M169.2001,-98.1005C167.872,-89.1357 166.3493,-78.8579 165.2965,-71.7511"/>
<polygon fill="#191970" stroke="#191970" points="165.7512,-98.7039 170.679,-108.083 172.6756,-97.678 165.7512,-98.7039"/>
</g>
<!-- Node112&#45;&gt;Node110 -->
<g id="edge12" class="edge">
<title>Node112&#45;&gt;Node110</title>
<path fill="none" stroke="#191970" d="M197.9151,-220.8514C192.0587,-210.6028 184.8066,-197.9115 179.4647,-188.5632"/>
<polygon fill="#191970" stroke="#191970" points="194.9941,-222.7942 202.9944,-229.7401 201.0718,-219.3212 194.9941,-222.7942"/>
</g>
<!-- Node112&#45;&gt;Node113 -->
<g id="edge13" class="edge">
<title>Node112&#45;&gt;Node113</title>
<path fill="none" stroke="#191970" d="M225.7051,-222.7898C239.4573,-210.5872 258.0149,-194.1206 269.2116,-184.1855"/>
<polygon fill="#191970" stroke="#191970" points="223.0292,-220.485 217.8722,-229.7401 227.6752,-225.721 223.0292,-220.485"/>
</g>
<!-- Node113&#45;&gt;Node111 -->
<g id="edge14" class="edge">
<title>Node113&#45;&gt;Node111</title>
<path fill="none" stroke="#191970" d="M254.1682,-161.9237C233.7206,-150.7445 205.3442,-135.2302 187.853,-125.6673"/>
<polygon fill="#191970" stroke="#191970" points="252.7585,-165.1419 263.2118,-166.8681 256.1165,-158.9999 252.7585,-165.1419"/>
</g>
</g>
</svg>
