<?xml version="1.0" encoding="UTF-8" standalone="no"?>
<!DOCTYPE svg PUBLIC "-//W3C//DTD SVG 1.1//EN"
 "http://www.w3.org/Graphics/SVG/1.1/DTD/svg11.dtd">
<!-- Generated by graphviz version 2.38.0 (20140413.2041)
 -->
<!-- Title: THDMcache.h Pages: 1 -->
<svg width="581pt" height="242pt"
 viewBox="0.00 0.00 580.85 242.00" xmlns="http://www.w3.org/2000/svg" xmlns:xlink="http://www.w3.org/1999/xlink">
<g id="graph0" class="graph" transform="scale(1 1) rotate(0) translate(4 238)">
<title>THDMcache.h</title>
<!-- Node1 -->
<g id="node1" class="node"><title>Node1</title>
<polygon fill="#bfbfbf" stroke="black" points="309.853,-216.5 309.853,-233.5 377.853,-233.5 377.853,-216.5 309.853,-216.5"/>
<text text-anchor="middle" x="343.853" y="-223.1" font-family="Helvetica,sans-Serif" font-size="8.00">THDMcache.h</text>
</g>
<!-- Node2 -->
<g id="node2" class="node"><title>Node2</title>
<g id="a_node2"><a xlink:href="../../de/de8/_t_h_d_m_8h.html" target="_top" xlink:title="THDM.h">
<polygon fill="none" stroke="red" points="269.853,-162.5 269.853,-179.5 315.853,-179.5 315.853,-162.5 269.853,-162.5"/>
<text text-anchor="middle" x="292.853" y="-169.1" font-family="Helvetica,sans-Serif" font-size="8.00">THDM.h</text>
</a>
</g>
</g>
<!-- Node1&#45;&gt;Node2 -->
<g id="edge1" class="edge"><title>Node1&#45;&gt;Node2</title>
<path fill="none" stroke="midnightblue" d="M329.145,-209.003C319.748,-199.422 307.954,-187.397 300.409,-179.704"/>
<polygon fill="midnightblue" stroke="midnightblue" points="326.827,-211.639 336.328,-216.327 331.825,-206.737 326.827,-211.639"/>
</g>
<!-- Node4 -->
<g id="node4" class="node"><title>Node4</title>
<g id="a_node4"><a xlink:href="../../df/d9b/_t_h_d_m_2src_2bsgamma_8h.html" target="_top" xlink:title="bsgamma.h">
<polygon fill="none" stroke="red" points="16.8534,-108.5 16.8534,-125.5 74.8534,-125.5 74.8534,-108.5 16.8534,-108.5"/>
<text text-anchor="middle" x="45.8534" y="-115.1" font-family="Helvetica,sans-Serif" font-size="8.00">bsgamma.h</text>
</a>
</g>
</g>
<!-- Node1&#45;&gt;Node4 -->
<g id="edge14" class="edge"><title>Node1&#45;&gt;Node4</title>
<path fill="none" stroke="midnightblue" d="M312.994,-213.023C252.337,-191.447 118.972,-144.009 67.0906,-125.554"/>
<polygon fill="midnightblue" stroke="midnightblue" points="311.827,-216.323 322.422,-216.377 314.173,-209.728 311.827,-216.323"/>
</g>
<!-- Node5 -->
<g id="node5" class="node"><title>Node5</title>
<g id="a_node5"><a xlink:href="../../d8/d4f/_c_podd_higgs_8h.html" target="_top" xlink:title="CPoddHiggs.h">
<polygon fill="none" stroke="red" points="94.8534,-0.5 94.8534,-17.5 162.853,-17.5 162.853,-0.5 94.8534,-0.5"/>
<text text-anchor="middle" x="128.853" y="-7.1" font-family="Helvetica,sans-Serif" font-size="8.00">CPoddHiggs.h</text>
</a>
</g>
</g>
<!-- Node1&#45;&gt;Node5 -->
<g id="edge15" class="edge"><title>Node1&#45;&gt;Node5</title>
<path fill="none" stroke="midnightblue" d="M299.696,-217.829C216.642,-205.208 42.3961,-173.561 7.85337,-126 -26.2632,-79.0255 66.2778,-34.8179 108.788,-17.5926"/>
<polygon fill="midnightblue" stroke="midnightblue" points="299.427,-221.328 309.834,-219.344 300.461,-214.405 299.427,-221.328"/>
</g>
<!-- Node8 -->
<g id="node8" class="node"><title>Node8</title>
<g id="a_node8"><a xlink:href="../../d5/d92/heavy_higgs_8h.html" target="_top" xlink:title="heavyHiggs.h">
<polygon fill="none" stroke="red" points="303.353,-0.5 303.353,-17.5 368.353,-17.5 368.353,-0.5 303.353,-0.5"/>
<text text-anchor="middle" x="335.853" y="-7.1" font-family="Helvetica,sans-Serif" font-size="8.00">heavyHiggs.h</text>
</a>
</g>
</g>
<!-- Node1&#45;&gt;Node8 -->
<g id="edge16" class="edge"><title>Node1&#45;&gt;Node8</title>
<path fill="none" stroke="midnightblue" d="M370.114,-211.868C407.503,-192.726 469.406,-153.029 448.853,-108 428.582,-63.5874 377.143,-31.5538 351.246,-17.6695"/>
<polygon fill="midnightblue" stroke="midnightblue" points="368.166,-208.926 360.754,-216.497 371.269,-215.201 368.166,-208.926"/>
</g>
<!-- Node9 -->
<g id="node9" class="node"><title>Node9</title>
<g id="a_node9"><a xlink:href="../../d9/dea/_s_t_u_8h.html" target="_top" xlink:title="STU.h">
<polygon fill="none" stroke="red" points="401.353,-108.5 401.353,-125.5 440.353,-125.5 440.353,-108.5 401.353,-108.5"/>
<text text-anchor="middle" x="420.853" y="-115.1" font-family="Helvetica,sans-Serif" font-size="8.00">STU.h</text>
</a>
</g>
</g>
<!-- Node1&#45;&gt;Node9 -->
<g id="edge17" class="edge"><title>Node1&#45;&gt;Node9</title>
<path fill="none" stroke="midnightblue" d="M355.275,-208.277C372.092,-185.126 402.873,-142.753 415.366,-125.554"/>
<polygon fill="midnightblue" stroke="midnightblue" points="352.436,-206.229 349.391,-216.377 358.1,-210.343 352.436,-206.229"/>
</g>
<!-- Node10 -->
<g id="node10" class="node"><title>Node10</title>
<g id="a_node10"><a xlink:href="../../df/d12/_t_h_d_mcache_8cpp.html" target="_top" xlink:title="THDMcache.cpp">
<polygon fill="none" stroke="black" points="496.853,-162.5 496.853,-179.5 572.853,-179.5 572.853,-162.5 496.853,-162.5"/>
<text text-anchor="middle" x="534.853" y="-169.1" font-family="Helvetica,sans-Serif" font-size="8.00">THDMcache.cpp</text>
</a>
</g>
</g>
<!-- Node1&#45;&gt;Node10 -->
<g id="edge18" class="edge"><title>Node1&#45;&gt;Node10</title>
<path fill="none" stroke="midnightblue" d="M381.521,-213.745C418.466,-203.687 473.931,-188.586 507.047,-179.57"/>
<polygon fill="midnightblue" stroke="midnightblue" points="380.356,-210.435 371.626,-216.439 382.195,-217.189 380.356,-210.435"/>
</g>
<!-- Node3 -->
<g id="node3" class="node"><title>Node3</title>
<g id="a_node3"><a xlink:href="../../d3/df6/_model_factory_8cpp.html" target="_top" xlink:title="ModelFactory.cpp">
<polygon fill="none" stroke="black" points="226.853,-108.5 226.853,-125.5 306.853,-125.5 306.853,-108.5 226.853,-108.5"/>
<text text-anchor="middle" x="266.853" y="-115.1" font-family="Helvetica,sans-Serif" font-size="8.00">ModelFactory.cpp</text>
</a>
</g>
</g>
<!-- Node2&#45;&gt;Node3 -->
<g id="edge2" class="edge"><title>Node2&#45;&gt;Node3</title>
<path fill="none" stroke="midnightblue" d="M284.48,-153.253C279.851,-143.995 274.321,-132.935 270.705,-125.704"/>
<polygon fill="midnightblue" stroke="midnightblue" points="281.414,-154.948 289.017,-162.327 287.675,-151.818 281.414,-154.948"/>
</g>
<!-- Node2&#45;&gt;Node4 -->
<g id="edge3" class="edge"><title>Node2&#45;&gt;Node4</title>
<path fill="none" stroke="midnightblue" d="M259.599,-162.999C210.916,-152.75 121.034,-133.828 74.8767,-124.11"/>
<polygon fill="midnightblue" stroke="midnightblue" points="259.11,-166.473 269.616,-165.108 260.552,-159.623 259.11,-166.473"/>
</g>
<!-- Node2&#45;&gt;Node5 -->
<g id="edge4" class="edge"><title>Node2&#45;&gt;Node5</title>
<path fill="none" stroke="midnightblue" d="M259.719,-166.261C214.894,-160.442 138.589,-147.588 121.853,-126 96.3885,-93.1533 116.439,-38.0567 125.242,-17.7876"/>
<polygon fill="midnightblue" stroke="midnightblue" points="259.49,-169.759 269.846,-167.526 260.357,-162.813 259.49,-169.759"/>
</g>
<!-- Node6 -->
<g id="node6" class="node"><title>Node6</title>
<g id="a_node6"><a xlink:href="../../d0/dd6/_t_h_d_mfunctions_8h.html" target="_top" xlink:title="THDMfunctions.h">
<polygon fill="none" stroke="red" points="130.853,-108.5 130.853,-125.5 208.853,-125.5 208.853,-108.5 130.853,-108.5"/>
<text text-anchor="middle" x="169.853" y="-115.1" font-family="Helvetica,sans-Serif" font-size="8.00">THDMfunctions.h</text>
</a>
</g>
</g>
<!-- Node2&#45;&gt;Node6 -->
<g id="edge5" class="edge"><title>Node2&#45;&gt;Node6</title>
<path fill="none" stroke="midnightblue" d="M265.482,-158.429C241.778,-148.407 208.174,-134.201 187.76,-125.57"/>
<polygon fill="midnightblue" stroke="midnightblue" points="264.394,-161.768 274.968,-162.439 267.12,-155.321 264.394,-161.768"/>
</g>
<!-- Node7 -->
<g id="node7" class="node"><title>Node7</title>
<g id="a_node7"><a xlink:href="../../da/daf/light_higgs_8h.html" target="_top" xlink:title="lightHiggs.h">
<polygon fill="none" stroke="red" points="269.853,-54.5 269.853,-71.5 327.853,-71.5 327.853,-54.5 269.853,-54.5"/>
<text text-anchor="middle" x="298.853" y="-61.1" font-family="Helvetica,sans-Serif" font-size="8.00">lightHiggs.h</text>
</a>
</g>
</g>
<!-- Node2&#45;&gt;Node7 -->
<g id="edge11" class="edge"><title>Node2&#45;&gt;Node7</title>
<path fill="none" stroke="midnightblue" d="M303.754,-153.75C308.472,-145.756 313.456,-135.76 315.853,-126 320.698,-106.273 310.062,-83.2585 303.508,-71.6016"/>
<polygon fill="midnightblue" stroke="midnightblue" points="300.7,-152.031 298.323,-162.356 306.62,-155.766 300.7,-152.031"/>
</g>
<!-- Node2&#45;&gt;Node8 -->
<g id="edge12" class="edge"><title>Node2&#45;&gt;Node8</title>
<path fill="none" stroke="midnightblue" d="M309.53,-155.339C317.356,-147.463 326.009,-137.101 330.853,-126 347.302,-88.3114 340.711,-37.0279 337.354,-17.749"/>
<polygon fill="midnightblue" stroke="midnightblue" points="307.009,-152.907 302.152,-162.322 311.821,-157.991 307.009,-152.907"/>
</g>
<!-- Node2&#45;&gt;Node9 -->
<g id="edge13" class="edge"><title>Node2&#45;&gt;Node9</title>
<path fill="none" stroke="midnightblue" d="M321.007,-158.563C345.692,-148.534 380.88,-134.239 402.219,-125.57"/>
<polygon fill="midnightblue" stroke="midnightblue" points="319.413,-155.432 311.466,-162.439 322.048,-161.918 319.413,-155.432"/>
</g>
<!-- Node6&#45;&gt;Node5 -->
<g id="edge6" class="edge"><title>Node6&#45;&gt;Node5</title>
<path fill="none" stroke="midnightblue" d="M163.29,-99.0301C154.24,-75.6338 138.31,-34.4485 131.775,-17.5542"/>
<polygon fill="midnightblue" stroke="midnightblue" points="160.033,-100.313 166.905,-108.377 166.562,-97.7875 160.033,-100.313"/>
</g>
<!-- Node6&#45;&gt;Node7 -->
<g id="edge7" class="edge"><title>Node6&#45;&gt;Node7</title>
<path fill="none" stroke="midnightblue" d="M197.896,-104.696C222.79,-94.6613 258.472,-80.2778 280.073,-71.5704"/>
<polygon fill="midnightblue" stroke="midnightblue" points="196.577,-101.454 188.611,-108.439 199.194,-107.946 196.577,-101.454"/>
</g>
<!-- Node6&#45;&gt;Node8 -->
<g id="edge10" class="edge"><title>Node6&#45;&gt;Node8</title>
<path fill="none" stroke="midnightblue" d="M189.184,-102.271C207.435,-89.443 235.681,-69.9334 260.853,-54 282.028,-40.5971 307.277,-26.0754 322.413,-17.5213"/>
<polygon fill="midnightblue" stroke="midnightblue" points="186.772,-99.6889 180.621,-108.315 190.809,-105.408 186.772,-99.6889"/>
</g>
<!-- Node7&#45;&gt;Node5 -->
<g id="edge8" class="edge"><title>Node7&#45;&gt;Node5</title>
<path fill="none" stroke="midnightblue" d="M264.48,-51.4858C231.602,-41.429 182.825,-26.509 153.603,-17.5704"/>
<polygon fill="midnightblue" stroke="midnightblue" points="263.547,-54.8606 274.134,-54.4388 265.595,-48.1667 263.547,-54.8606"/>
</g>
<!-- Node7&#45;&gt;Node8 -->
<g id="edge9" class="edge"><title>Node7&#45;&gt;Node8</title>
<path fill="none" stroke="midnightblue" d="M310.142,-46.1342C316.852,-36.7044 325.062,-25.1661 330.371,-17.7043"/>
<polygon fill="midnightblue" stroke="midnightblue" points="307.259,-44.1501 304.313,-54.3272 312.962,-48.2085 307.259,-44.1501"/>
</g>
</g>
</svg>
