<?xml version="1.0" encoding="UTF-8" standalone="no"?>
<!DOCTYPE svg PUBLIC "-//W3C//DTD SVG 1.1//EN"
 "http://www.w3.org/Graphics/SVG/1.1/DTD/svg11.dtd">
<!-- Generated by graphviz version 2.38.0 (20140413.2041)
 -->
<!-- Title: STU Pages: 1 -->
<svg width="465pt" height="395pt"
 viewBox="0.00 0.00 465.48 395.00" xmlns="http://www.w3.org/2000/svg" xmlns:xlink="http://www.w3.org/1999/xlink">
<g id="graph0" class="graph" transform="scale(1 1) rotate(0) translate(4 391)">
<title>STU</title>
<!-- Node1 -->
<g id="node1" class="node"><title>Node1</title>
<polygon fill="#bfbfbf" stroke="black" points="186.982,-0.5 186.982,-17.5 219.982,-17.5 219.982,-0.5 186.982,-0.5"/>
<text text-anchor="middle" x="203.482" y="-7.1" font-family="Helvetica,sans-Serif" font-size="8.00">STU</text>
</g>
<!-- Node2 -->
<g id="node2" class="node"><title>Node2</title>
<g id="a_node2"><a xlink:href="../../dc/d1f/class_th_observable.html" target="_top" xlink:title="A class for a model prediction of an observable. ">
<polygon fill="none" stroke="black" points="140.982,-63.5 140.982,-80.5 207.982,-80.5 207.982,-63.5 140.982,-63.5"/>
<text text-anchor="middle" x="174.482" y="-70.1" font-family="Helvetica,sans-Serif" font-size="8.00">ThObservable</text>
</a>
</g>
</g>
<!-- Node2&#45;&gt;Node1 -->
<g id="edge1" class="edge"><title>Node2&#45;&gt;Node1</title>
<path fill="none" stroke="midnightblue" d="M184.366,-54.6867C186.151,-51.5167 187.934,-48.1879 189.482,-45 193.94,-35.8154 198.163,-24.8277 200.783,-17.645"/>
<polygon fill="midnightblue" stroke="midnightblue" points="181.283,-53.0241 179.24,-63.42 187.32,-56.5674 181.283,-53.0241"/>
</g>
<!-- Node3 -->
<g id="node3" class="node"><title>Node3</title>
<g id="a_node3"><a xlink:href="../../dc/dd5/class_standard_model.html" target="_top" xlink:title="A model class for the Standard Model. ">
<polygon fill="none" stroke="red" points="47.9819,-126.5 47.9819,-143.5 118.982,-143.5 118.982,-126.5 47.9819,-126.5"/>
<text text-anchor="middle" x="83.4819" y="-133.1" font-family="Helvetica,sans-Serif" font-size="8.00">StandardModel</text>
</a>
</g>
</g>
<!-- Node3&#45;&gt;Node2 -->
<g id="edge2" class="edge"><title>Node3&#45;&gt;Node2</title>
<path fill="none" stroke="#9a32cd" stroke-dasharray="5,2" d="M125.979,-122.923C135.34,-119.19 144.756,-114.312 152.482,-108 161.486,-100.644 167.904,-88.5821 171.404,-80.716"/>
<polygon fill="#9a32cd" stroke="#9a32cd" points="124.534,-119.723 116.316,-126.41 126.91,-126.307 124.534,-119.723"/>
<text text-anchor="middle" x="167.982" y="-101.6" font-family="Helvetica,sans-Serif" font-size="8.00"> SM</text>
</g>
<!-- Node9 -->
<g id="node9" class="node"><title>Node9</title>
<g id="a_node9"><a xlink:href="../../d0/d52/class_t_h_d_m.html" target="_top" xlink:title="A base class &#160;symmetric Two&#45;Higgs&#45;Doublet models. ">
<polygon fill="none" stroke="black" points="73.4819,-63.5 73.4819,-80.5 113.482,-80.5 113.482,-63.5 73.4819,-63.5"/>
<text text-anchor="middle" x="93.4819" y="-70.1" font-family="Helvetica,sans-Serif" font-size="8.00">THDM</text>
</a>
</g>
</g>
<!-- Node3&#45;&gt;Node9 -->
<g id="edge10" class="edge"><title>Node3&#45;&gt;Node9</title>
<path fill="none" stroke="midnightblue" d="M86.3885,-116.27C88.31,-104.549 90.7349,-89.7567 92.1941,-80.8556"/>
<polygon fill="midnightblue" stroke="midnightblue" points="82.9123,-115.84 84.7484,-126.274 89.8201,-116.972 82.9123,-115.84"/>
</g>
<!-- Node4 -->
<g id="node4" class="node"><title>Node4</title>
<g id="a_node4"><a xlink:href="../../dd/dfa/class_q_c_d.html" target="_top" xlink:title="A class for parameters related to QCD, hadrons and quarks. ">
<polygon fill="none" stroke="red" points="33.4819,-369.5 33.4819,-386.5 67.4819,-386.5 67.4819,-369.5 33.4819,-369.5"/>
<text text-anchor="middle" x="50.4819" y="-376.1" font-family="Helvetica,sans-Serif" font-size="8.00">QCD</text>
</a>
</g>
</g>
<!-- Node4&#45;&gt;Node3 -->
<g id="edge3" class="edge"><title>Node4&#45;&gt;Node3</title>
<path fill="none" stroke="midnightblue" d="M48.3486,-358.875C44.5914,-320.984 39.3859,-231.169 64.4819,-162 66.9989,-155.063 71.9717,-148.367 76.1986,-143.508"/>
<polygon fill="midnightblue" stroke="midnightblue" points="44.9173,-359.698 49.4773,-369.262 51.8763,-358.942 44.9173,-359.698"/>
</g>
<!-- Node5 -->
<g id="node5" class="node"><title>Node5</title>
<g id="a_node5"><a xlink:href="../../dd/d9b/classgslpp_1_1complex.html" target="_top" xlink:title="A class for defining operations on and functions of complex numbers. ">
<polygon fill="none" stroke="black" points="108.482,-369.5 108.482,-386.5 178.482,-386.5 178.482,-369.5 108.482,-369.5"/>
<text text-anchor="middle" x="143.482" y="-376.1" font-family="Helvetica,sans-Serif" font-size="8.00">gslpp::complex</text>
</a>
</g>
</g>
<!-- Node5&#45;&gt;Node3 -->
<g id="edge4" class="edge"><title>Node5&#45;&gt;Node3</title>
<path fill="none" stroke="#9a32cd" stroke-dasharray="5,2" d="M99.8833,-364.919C93.7933,-361.393 88.316,-356.85 84.4819,-351 61.5647,-316.035 77.9869,-177.649 82.4506,-143.599"/>
<polygon fill="#9a32cd" stroke="#9a32cd" points="98.5982,-368.185 109.124,-369.39 101.647,-361.884 98.5982,-368.185"/>
<text text-anchor="middle" x="114.482" y="-259.1" font-family="Helvetica,sans-Serif" font-size="8.00"> rhoZ_f_cache</text>
<text text-anchor="middle" x="114.482" y="-250.1" font-family="Helvetica,sans-Serif" font-size="8.00">kappaZ_f_cache</text>
</g>
<!-- Node6 -->
<g id="node6" class="node"><title>Node6</title>
<g id="a_node6"><a xlink:href="../../d5/df2/class_t_h_d_mcache.html" target="_top" xlink:title="A class for the caching of some THDM objects. ">
<polygon fill="none" stroke="black" points="213.982,-126.5 213.982,-143.5 274.982,-143.5 274.982,-126.5 213.982,-126.5"/>
<text text-anchor="middle" x="244.482" y="-133.1" font-family="Helvetica,sans-Serif" font-size="8.00">THDMcache</text>
</a>
</g>
</g>
<!-- Node5&#45;&gt;Node6 -->
<g id="edge7" class="edge"><title>Node5&#45;&gt;Node6</title>
<path fill="none" stroke="#9a32cd" stroke-dasharray="5,2" d="M144.606,-359.175C147.84,-308.992 157.331,-169.661 163.482,-162 175.502,-147.028 196.202,-140.557 213.667,-137.815"/>
<polygon fill="#9a32cd" stroke="#9a32cd" points="141.112,-358.972 143.968,-369.175 148.097,-359.417 141.112,-358.972"/>
<text text-anchor="start" x="163.482" y="-344.6" font-family="Helvetica,sans-Serif" font-size="8.00"> B00_MZ2_MZ2_mHl2_mA2</text>
<text text-anchor="middle" x="215.982" y="-335.6" font-family="Helvetica,sans-Serif" font-size="8.00">_cache</text>
<text text-anchor="start" x="163.482" y="-326.6" font-family="Helvetica,sans-Serif" font-size="8.00">B00_MZ2_MW2_MW2_mHl2</text>
<text text-anchor="middle" x="215.982" y="-317.6" font-family="Helvetica,sans-Serif" font-size="8.00">_cache</text>
<text text-anchor="start" x="163.482" y="-308.6" font-family="Helvetica,sans-Serif" font-size="8.00">B00_MZ2_0_MW2_mHl2</text>
<text text-anchor="middle" x="215.982" y="-299.6" font-family="Helvetica,sans-Serif" font-size="8.00">_cache</text>
<text text-anchor="start" x="163.482" y="-290.6" font-family="Helvetica,sans-Serif" font-size="8.00">B00_MZ2_0_mHl2_mHp2</text>
<text text-anchor="middle" x="215.982" y="-281.6" font-family="Helvetica,sans-Serif" font-size="8.00">_cache</text>
<text text-anchor="start" x="163.482" y="-272.6" font-family="Helvetica,sans-Serif" font-size="8.00">B0_MZ2_0_MZ2_mHl2</text>
<text text-anchor="middle" x="215.982" y="-263.6" font-family="Helvetica,sans-Serif" font-size="8.00">_cache</text>
<text text-anchor="start" x="163.482" y="-254.6" font-family="Helvetica,sans-Serif" font-size="8.00">B00_MZ2_MW2_mHh2</text>
<text text-anchor="middle" x="215.982" y="-245.6" font-family="Helvetica,sans-Serif" font-size="8.00">_mHp2_cache</text>
<text text-anchor="start" x="163.482" y="-236.6" font-family="Helvetica,sans-Serif" font-size="8.00">B00_MZ2_0_mHh2_mA2</text>
<text text-anchor="middle" x="215.982" y="-227.6" font-family="Helvetica,sans-Serif" font-size="8.00">_cache</text>
<text text-anchor="start" x="163.482" y="-218.6" font-family="Helvetica,sans-Serif" font-size="8.00">B00_MZ2_MZ2_mHh2</text>
<text text-anchor="middle" x="215.982" y="-209.6" font-family="Helvetica,sans-Serif" font-size="8.00">_mA2_cache</text>
<text text-anchor="start" x="163.482" y="-200.6" font-family="Helvetica,sans-Serif" font-size="8.00">B00_MZ2_0_mHh2_mHp2</text>
<text text-anchor="middle" x="215.982" y="-191.6" font-family="Helvetica,sans-Serif" font-size="8.00">_cache</text>
<text text-anchor="start" x="163.482" y="-182.6" font-family="Helvetica,sans-Serif" font-size="8.00">B0_MZ2_MW2_MW2_mHl2</text>
<text text-anchor="middle" x="215.982" y="-173.6" font-family="Helvetica,sans-Serif" font-size="8.00">_cache</text>
<text text-anchor="middle" x="215.982" y="-164.6" font-family="Helvetica,sans-Serif" font-size="8.00">...</text>
</g>
<!-- Node6&#45;&gt;Node1 -->
<g id="edge5" class="edge"><title>Node6&#45;&gt;Node1</title>
<path fill="none" stroke="#9a32cd" stroke-dasharray="5,2" d="M238.685,-116.468C229.635,-89.0966 212.516,-37.3227 206.046,-17.7538"/>
<polygon fill="#9a32cd" stroke="#9a32cd" points="235.455,-117.848 241.917,-126.243 242.101,-115.65 235.455,-117.848"/>
<text text-anchor="middle" x="244.982" y="-70.1" font-family="Helvetica,sans-Serif" font-size="8.00"> mycache</text>
</g>
<!-- Node6&#45;&gt;Node9 -->
<g id="edge11" class="edge"><title>Node6&#45;&gt;Node9</title>
<path fill="none" stroke="#9a32cd" stroke-dasharray="5,2" d="M203.66,-134.461C175.895,-132.853 139.599,-126.795 113.482,-108 104.166,-101.296 98.578,-88.8174 95.7649,-80.7143"/>
<polygon fill="#9a32cd" stroke="#9a32cd" points="203.71,-137.965 213.844,-134.876 203.995,-130.971 203.71,-137.965"/>
<text text-anchor="middle" x="130.982" y="-101.6" font-family="Helvetica,sans-Serif" font-size="8.00"> mycache</text>
</g>
<!-- Node7 -->
<g id="node7" class="node"><title>Node7</title>
<g id="a_node7"><a xlink:href="../../d4/d7b/class_p_vfunctions.html" target="_top" xlink:title="A class for Passarino&#45;Veltman functions. ">
<polygon fill="none" stroke="red" points="264.982,-369.5 264.982,-386.5 323.982,-386.5 323.982,-369.5 264.982,-369.5"/>
<text text-anchor="middle" x="294.482" y="-376.1" font-family="Helvetica,sans-Serif" font-size="8.00">PVfunctions</text>
</a>
</g>
</g>
<!-- Node7&#45;&gt;Node6 -->
<g id="edge6" class="edge"><title>Node7&#45;&gt;Node6</title>
<path fill="none" stroke="#9a32cd" stroke-dasharray="5,2" d="M296.679,-359.404C300.63,-321.183 305.688,-228.655 272.482,-162 268.755,-154.519 261.914,-148.103 255.927,-143.517"/>
<polygon fill="#9a32cd" stroke="#9a32cd" points="293.191,-359.101 295.532,-369.434 300.146,-359.896 293.191,-359.101"/>
<text text-anchor="middle" x="306.982" y="-254.6" font-family="Helvetica,sans-Serif" font-size="8.00"> PV</text>
</g>
<!-- Node8 -->
<g id="node8" class="node"><title>Node8</title>
<g id="a_node8"><a xlink:href="../../d7/d10/classgslpp_1_1matrix_3_01double_01_4.html" target="_top" xlink:title="A class for constructing and defining operations on real matrices. ">
<polygon fill="none" stroke="black" points="342.482,-369.5 342.482,-386.5 442.482,-386.5 442.482,-369.5 342.482,-369.5"/>
<text text-anchor="middle" x="392.482" y="-376.1" font-family="Helvetica,sans-Serif" font-size="8.00">gslpp::matrix&lt; double &gt;</text>
</a>
</g>
</g>
<!-- Node8&#45;&gt;Node6 -->
<g id="edge8" class="edge"><title>Node8&#45;&gt;Node6</title>
<path fill="none" stroke="#9a32cd" stroke-dasharray="5,2" d="M391.321,-359.094C387.733,-318.427 373.392,-218.275 317.482,-162 306.198,-150.643 289.631,-144.226 275.131,-140.611"/>
<polygon fill="#9a32cd" stroke="#9a32cd" points="387.834,-359.397 392.086,-369.101 394.813,-358.863 387.834,-359.397"/>
<text text-anchor="middle" x="423.482" y="-313.1" font-family="Helvetica,sans-Serif" font-size="8.00"> cs_ggA_bb</text>
<text text-anchor="middle" x="423.482" y="-304.1" font-family="Helvetica,sans-Serif" font-size="8.00">br_mumu</text>
<text text-anchor="middle" x="423.482" y="-295.1" font-family="Helvetica,sans-Serif" font-size="8.00">br_tautau</text>
<text text-anchor="middle" x="423.482" y="-286.1" font-family="Helvetica,sans-Serif" font-size="8.00">arraybsgamma</text>
<text text-anchor="start" x="389.482" y="-277.1" font-family="Helvetica,sans-Serif" font-size="8.00">ATLAS_ggF_A_hZ</text>
<text text-anchor="middle" x="423.482" y="-268.1" font-family="Helvetica,sans-Serif" font-size="8.00">_bbZ</text>
<text text-anchor="middle" x="423.482" y="-259.1" font-family="Helvetica,sans-Serif" font-size="8.00">cs_ggA</text>
<text text-anchor="start" x="389.482" y="-250.1" font-family="Helvetica,sans-Serif" font-size="8.00">ATLAS_ggF_phi</text>
<text text-anchor="middle" x="423.482" y="-241.1" font-family="Helvetica,sans-Serif" font-size="8.00">_gaga</text>
<text text-anchor="start" x="389.482" y="-232.1" font-family="Helvetica,sans-Serif" font-size="8.00">ATLAS_pp_phi</text>
<text text-anchor="middle" x="423.482" y="-223.1" font-family="Helvetica,sans-Serif" font-size="8.00">_tt</text>
<text text-anchor="middle" x="423.482" y="-214.1" font-family="Helvetica,sans-Serif" font-size="8.00">cs_ggH_tt</text>
<text text-anchor="middle" x="423.482" y="-205.1" font-family="Helvetica,sans-Serif" font-size="8.00">pc_ZH</text>
<text text-anchor="middle" x="423.482" y="-196.1" font-family="Helvetica,sans-Serif" font-size="8.00">...</text>
</g>
<!-- Node9&#45;&gt;Node1 -->
<g id="edge9" class="edge"><title>Node9&#45;&gt;Node1</title>
<path fill="none" stroke="#9a32cd" stroke-dasharray="5,2" d="M113.327,-57.8532C123.895,-51.0436 137.211,-42.762 149.482,-36 161.693,-29.2707 175.916,-22.4625 186.699,-17.5017"/>
<polygon fill="#9a32cd" stroke="#9a32cd" points="111.31,-54.9904 104.843,-63.3833 115.132,-60.8546 111.31,-54.9904"/>
<text text-anchor="middle" x="167.482" y="-38.6" font-family="Helvetica,sans-Serif" font-size="8.00"> myTHDM</text>
</g>
<!-- Node10 -->
<g id="node10" class="node"><title>Node10</title>
<g id="a_node10"><a xlink:href="../../dc/d38/class_t_h_d_m_matching.html" target="_top" xlink:title="A class for the Wilson coefficients in the THDM. ">
<polygon fill="none" stroke="red" points="11.4819,-0.5 11.4819,-17.5 83.4819,-17.5 83.4819,-0.5 11.4819,-0.5"/>
<text text-anchor="middle" x="47.4819" y="-7.1" font-family="Helvetica,sans-Serif" font-size="8.00">THDMMatching</text>
</a>
</g>
</g>
<!-- Node9&#45;&gt;Node10 -->
<g id="edge13" class="edge"><title>Node9&#45;&gt;Node10</title>
<path fill="none" stroke="#9a32cd" stroke-dasharray="5,2" d="M84.1889,-54.8496C80.4732,-48.7735 76.005,-41.9094 71.4819,-36 66.5533,-29.5609 60.3265,-22.8496 55.4506,-17.8586"/>
<polygon fill="#9a32cd" stroke="#9a32cd" points="81.2027,-56.6759 89.3084,-63.4985 87.2265,-53.1102 81.2027,-56.6759"/>
<text text-anchor="middle" x="95.4819" y="-38.6" font-family="Helvetica,sans-Serif" font-size="8.00"> myTHDM</text>
</g>
<!-- Node10&#45;&gt;Node9 -->
<g id="edge12" class="edge"><title>Node10&#45;&gt;Node9</title>
<path fill="none" stroke="#9a32cd" stroke-dasharray="5,2" d="M15.4897,-21.8011C4.09255,-27.8515 -4.40489,-35.87 2.48187,-45 18.8079,-66.6439 51.8919,-71.1884 73.3497,-71.6844"/>
<polygon fill="#9a32cd" stroke="#9a32cd" points="16.9782,-24.9689 24.5636,-17.5722 14.0211,-18.6241 16.9782,-24.9689"/>
<text text-anchor="middle" x="36.9819" y="-38.6" font-family="Helvetica,sans-Serif" font-size="8.00"> myTHDMMatching</text>
</g>
</g>
</svg>
