<?xml version="1.0" encoding="UTF-8" standalone="no"?>
<!DOCTYPE svg PUBLIC "-//W3C//DTD SVG 1.1//EN"
 "http://www.w3.org/Graphics/SVG/1.1/DTD/svg11.dtd">
<!-- Generated by graphviz version 2.40.1 (20161225.0304)
 -->
<!-- Title: GeneralTHDMHeavyHiggs.cpp Pages: 1 -->
<svg width="312pt" height="350pt"
 viewBox="0.00 0.00 311.77 350.00" xmlns="http://www.w3.org/2000/svg" xmlns:xlink="http://www.w3.org/1999/xlink">
<g id="graph0" class="graph" transform="scale(1 1) rotate(0) translate(4 346)">
<title>GeneralTHDMHeavyHiggs.cpp</title>
<!-- Node0 -->
<g id="node1" class="node">
<title>Node0</title>
<polygon fill="#bfbfbf" stroke="#000000" points="147.2684,-324.5 147.2684,-341.5 273.2684,-341.5 273.2684,-324.5 147.2684,-324.5"/>
<text text-anchor="middle" x="210.2684" y="-331.1" font-family="Helvetica,sans-Serif" font-size="8.00" fill="#000000">GeneralTHDMHeavyHiggs.cpp</text>
</g>
<!-- Node1 -->
<g id="node2" class="node">
<title>Node1</title>
<g id="a_node2"><a xlink:href="../../dd/d55/_general_t_h_d_m_heavy_higgs_8h.html" target="_top" xlink:title="GeneralTHDMHeavyHiggs.h">
<polygon fill="none" stroke="#000000" points="94.2684,-270.5 94.2684,-287.5 212.2684,-287.5 212.2684,-270.5 94.2684,-270.5"/>
<text text-anchor="middle" x="153.2684" y="-277.1" font-family="Helvetica,sans-Serif" font-size="8.00" fill="#000000">GeneralTHDMHeavyHiggs.h</text>
</a>
</g>
</g>
<!-- Node0&#45;&gt;Node1 -->
<g id="edge1" class="edge">
<title>Node0&#45;&gt;Node1</title>
<path fill="none" stroke="#191970" d="M201.1103,-324.324C192.7669,-316.4196 180.2359,-304.5482 170.0915,-294.9377"/>
<polygon fill="#191970" stroke="#191970" points="172.2597,-292.1705 162.593,-287.8339 167.4455,-297.2522 172.2597,-292.1705"/>
</g>
<!-- Node7 -->
<g id="node6" class="node">
<title>Node7</title>
<g id="a_node6"><a xlink:href="../../d6/d0a/_standard_model_8h.html" target="_top" xlink:title="StandardModel.h">
<polygon fill="none" stroke="#ff0000" points="195.7684,-108.5 195.7684,-125.5 272.7684,-125.5 272.7684,-108.5 195.7684,-108.5"/>
<text text-anchor="middle" x="234.2684" y="-115.1" font-family="Helvetica,sans-Serif" font-size="8.00" fill="#000000">StandardModel.h</text>
</a>
</g>
</g>
<!-- Node0&#45;&gt;Node7 -->
<g id="edge13" class="edge">
<title>Node0&#45;&gt;Node7</title>
<path fill="none" stroke="#191970" d="M213.2674,-324.175C220.9884,-300.9318 241.4226,-235.964 248.2684,-180 249.2397,-172.0592 249.4703,-169.9092 248.2684,-162 246.9009,-153.001 244.078,-143.3251 241.3229,-135.2601"/>
<polygon fill="#191970" stroke="#191970" points="244.5802,-133.9759 237.8683,-125.7782 238.0031,-136.3722 244.5802,-133.9759"/>
</g>
<!-- Node2 -->
<g id="node3" class="node">
<title>Node2</title>
<polygon fill="none" stroke="#bfbfbf" points="27.7684,-162.5 27.7684,-179.5 78.7684,-179.5 78.7684,-162.5 27.7684,-162.5"/>
<text text-anchor="middle" x="53.2684" y="-169.1" font-family="Helvetica,sans-Serif" font-size="8.00" fill="#000000">stdexcept</text>
</g>
<!-- Node1&#45;&gt;Node2 -->
<g id="edge2" class="edge">
<title>Node1&#45;&gt;Node2</title>
<path fill="none" stroke="#191970" d="M103.2281,-270.458C64.7767,-262.755 16.2705,-250.1624 4.2684,-234 -8.2974,-217.0787 11.3687,-198.024 29.4001,-185.3451"/>
<polygon fill="#191970" stroke="#191970" points="31.5658,-188.1089 37.9722,-179.6704 27.7017,-182.272 31.5658,-188.1089"/>
</g>
<!-- Node3 -->
<g id="node4" class="node">
<title>Node3</title>
<g id="a_node4"><a xlink:href="../../dd/dcd/_th_observable_8h.html" target="_top" xlink:title="ThObservable.h">
<polygon fill="none" stroke="#ff0000" points="13.7684,-216.5 13.7684,-233.5 86.7684,-233.5 86.7684,-216.5 13.7684,-216.5"/>
<text text-anchor="middle" x="50.2684" y="-223.1" font-family="Helvetica,sans-Serif" font-size="8.00" fill="#000000">ThObservable.h</text>
</a>
</g>
</g>
<!-- Node1&#45;&gt;Node3 -->
<g id="edge3" class="edge">
<title>Node1&#45;&gt;Node3</title>
<path fill="none" stroke="#191970" d="M136.7196,-270.324C120.2767,-261.7034 94.8336,-248.3643 75.8,-238.3855"/>
<polygon fill="#191970" stroke="#191970" points="77.2578,-235.198 66.776,-233.6545 74.0075,-241.3977 77.2578,-235.198"/>
</g>
<!-- Node6 -->
<g id="node5" class="node">
<title>Node6</title>
<g id="a_node5"><a xlink:href="../../d0/d9a/_general_t_h_d_m_8h.html" target="_top" xlink:title="GeneralTHDM.h">
<polygon fill="none" stroke="#ff0000" points="163.7684,-162.5 163.7684,-179.5 238.7684,-179.5 238.7684,-162.5 163.7684,-162.5"/>
<text text-anchor="middle" x="201.2684" y="-169.1" font-family="Helvetica,sans-Serif" font-size="8.00" fill="#000000">GeneralTHDM.h</text>
</a>
</g>
</g>
<!-- Node1&#45;&gt;Node6 -->
<g id="edge4" class="edge">
<title>Node1&#45;&gt;Node6</title>
<path fill="none" stroke="#191970" d="M171.3499,-270.3901C184.8301,-262.8722 202.2409,-250.5651 210.2684,-234 217.044,-220.0182 213.6599,-202.3871 209.2335,-189.335"/>
<polygon fill="#191970" stroke="#191970" points="212.3485,-187.6872 205.4702,-179.6287 205.8219,-190.2177 212.3485,-187.6872"/>
</g>
<!-- Node56 -->
<g id="node10" class="node">
<title>Node56</title>
<g id="a_node10"><a xlink:href="../../d1/dc7/_general_t_h_d_mcache_8h.html" target="_top" xlink:title="GeneralTHDMcache.h">
<polygon fill="none" stroke="#ff0000" points="105.2684,-216.5 105.2684,-233.5 201.2684,-233.5 201.2684,-216.5 105.2684,-216.5"/>
<text text-anchor="middle" x="153.2684" y="-223.1" font-family="Helvetica,sans-Serif" font-size="8.00" fill="#000000">GeneralTHDMcache.h</text>
</a>
</g>
</g>
<!-- Node1&#45;&gt;Node56 -->
<g id="edge10" class="edge">
<title>Node1&#45;&gt;Node56</title>
<path fill="none" stroke="#191970" d="M153.2684,-270.083C153.2684,-263.0059 153.2684,-252.8611 153.2684,-243.9865"/>
<polygon fill="#191970" stroke="#191970" points="156.7685,-243.751 153.2684,-233.7511 149.7685,-243.7511 156.7685,-243.751"/>
</g>
<!-- Node6&#45;&gt;Node7 -->
<g id="edge5" class="edge">
<title>Node6&#45;&gt;Node7</title>
<path fill="none" stroke="#191970" d="M206.7177,-162.083C211.2828,-154.6127 217.9368,-143.7244 223.5618,-134.5199"/>
<polygon fill="#191970" stroke="#191970" points="226.6924,-136.109 228.9205,-125.7511 220.7195,-132.4588 226.6924,-136.109"/>
</g>
<!-- Node8 -->
<g id="node7" class="node">
<title>Node8</title>
<g id="a_node7"><a xlink:href="../../d2/d65/_flavour_8h.html" target="_top" xlink:title="Flavour.h">
<polygon fill="none" stroke="#ff0000" points="156.2684,-54.5 156.2684,-71.5 206.2684,-71.5 206.2684,-54.5 156.2684,-54.5"/>
<text text-anchor="middle" x="181.2684" y="-61.1" font-family="Helvetica,sans-Serif" font-size="8.00" fill="#000000">Flavour.h</text>
</a>
</g>
</g>
<!-- Node7&#45;&gt;Node8 -->
<g id="edge6" class="edge">
<title>Node7&#45;&gt;Node8</title>
<path fill="none" stroke="#191970" d="M225.5165,-108.083C217.7987,-100.2195 206.3637,-88.5688 197.0518,-79.0813"/>
<polygon fill="#191970" stroke="#191970" points="199.36,-76.4363 189.8574,-71.7511 194.3642,-81.3396 199.36,-76.4363"/>
</g>
<!-- Node9 -->
<g id="node8" class="node">
<title>Node9</title>
<g id="a_node8"><a xlink:href="../../d4/d68/_q_c_d_8h.html" target="_top" xlink:title="QCD.h">
<polygon fill="none" stroke="#ff0000" points="186.7684,-.5 186.7684,-17.5 227.7684,-17.5 227.7684,-.5 186.7684,-.5"/>
<text text-anchor="middle" x="207.2684" y="-7.1" font-family="Helvetica,sans-Serif" font-size="8.00" fill="#000000">QCD.h</text>
</a>
</g>
</g>
<!-- Node7&#45;&gt;Node9 -->
<g id="edge8" class="edge">
<title>Node7&#45;&gt;Node9</title>
<path fill="none" stroke="#191970" d="M232.0589,-108.1619C227.6663,-90.5918 217.755,-50.9465 211.8817,-27.4532"/>
<polygon fill="#191970" stroke="#191970" points="215.2539,-26.5109 209.433,-17.6584 208.4629,-28.2087 215.2539,-26.5109"/>
</g>
<!-- Node29 -->
<g id="node9" class="node">
<title>Node29</title>
<g id="a_node9"><a xlink:href="../../db/d5d/_c_k_m_8h.html" target="_top" xlink:title="CKM.h">
<polygon fill="none" stroke="#ff0000" points="262.7684,-54.5 262.7684,-71.5 303.7684,-71.5 303.7684,-54.5 262.7684,-54.5"/>
<text text-anchor="middle" x="283.2684" y="-61.1" font-family="Helvetica,sans-Serif" font-size="8.00" fill="#000000">CKM.h</text>
</a>
</g>
</g>
<!-- Node7&#45;&gt;Node29 -->
<g id="edge9" class="edge">
<title>Node7&#45;&gt;Node29</title>
<path fill="none" stroke="#191970" d="M242.3597,-108.083C249.4237,-100.2982 259.8559,-88.8015 268.4173,-79.3665"/>
<polygon fill="#191970" stroke="#191970" points="271.1996,-81.5087 275.3276,-71.7511 266.0157,-76.8047 271.1996,-81.5087"/>
</g>
<!-- Node8&#45;&gt;Node9 -->
<g id="edge7" class="edge">
<title>Node8&#45;&gt;Node9</title>
<path fill="none" stroke="#191970" d="M185.5617,-54.083C189.1207,-46.6913 194.2909,-35.9533 198.6927,-26.8111"/>
<polygon fill="#191970" stroke="#191970" points="201.8702,-28.2795 203.0549,-17.7511 195.5632,-25.2427 201.8702,-28.2795"/>
</g>
<!-- Node56&#45;&gt;Node2 -->
<g id="edge12" class="edge">
<title>Node56&#45;&gt;Node2</title>
<path fill="none" stroke="#191970" d="M137.2016,-216.324C121.3106,-207.7428 96.761,-194.486 78.3099,-184.5224"/>
<polygon fill="#191970" stroke="#191970" points="79.7573,-181.3264 69.2952,-179.6545 76.4313,-187.4857 79.7573,-181.3264"/>
</g>
<!-- Node56&#45;&gt;Node6 -->
<g id="edge11" class="edge">
<title>Node56&#45;&gt;Node6</title>
<path fill="none" stroke="#191970" d="M161.1946,-216.083C168.1145,-208.2982 178.3337,-196.8015 186.7204,-187.3665"/>
<polygon fill="#191970" stroke="#191970" points="189.4619,-189.5505 193.4896,-179.7511 184.23,-184.8999 189.4619,-189.5505"/>
</g>
</g>
</svg>
