<?xml version="1.0" encoding="UTF-8" standalone="no"?>
<!DOCTYPE svg PUBLIC "-//W3C//DTD SVG 1.1//EN"
 "http://www.w3.org/Graphics/SVG/1.1/DTD/svg11.dtd">
<!-- Generated by graphviz version 2.40.1 (20161225.0304)
 -->
<!-- Title: THDMWSignalStrengths Pages: 1 -->
<svg width="405pt" height="296pt"
 viewBox="0.00 0.00 404.50 296.00" xmlns="http://www.w3.org/2000/svg" xmlns:xlink="http://www.w3.org/1999/xlink">
<g id="graph0" class="graph" transform="scale(1 1) rotate(0) translate(4 292)">
<title>THDMWSignalStrengths</title>
<!-- Node5 -->
<g id="node1" class="node">
<title>Node5</title>
<polygon fill="#bfbfbf" stroke="#000000" points="0,-.5 0,-17.5 104,-17.5 104,-.5 0,-.5"/>
<text text-anchor="middle" x="52" y="-7.1" font-family="Helvetica,sans-Serif" font-size="8.00" fill="#000000">THDMWSignalStrengths</text>
</g>
<!-- Node6 -->
<g id="node2" class="node">
<title>Node6</title>
<g id="a_node2"><a xlink:href="../../d2/df3/class_n_pbase.html" target="_top" xlink:title="The auxiliary base model class for other model classes. ">
<polygon fill="none" stroke="#000000" points="13.5,-131 13.5,-148 58.5,-148 58.5,-131 13.5,-131"/>
<text text-anchor="middle" x="36" y="-137.6" font-family="Helvetica,sans-Serif" font-size="8.00" fill="#000000">NPbase</text>
</a>
</g>
</g>
<!-- Node6&#45;&gt;Node5 -->
<g id="edge1" class="edge">
<title>Node6&#45;&gt;Node5</title>
<path fill="none" stroke="#191970" d="M38.3096,-120.6625C41.8191,-92.0383 48.3576,-38.7083 50.9254,-17.7651"/>
<polygon fill="#191970" stroke="#191970" points="34.7928,-120.5859 37.0498,-130.9375 41.7408,-121.4378 34.7928,-120.5859"/>
</g>
<!-- Node50 -->
<g id="node8" class="node">
<title>Node50</title>
<g id="a_node8"><a xlink:href="../../dc/d90/class_t_h_d_m_w.html" target="_top" xlink:title="A base class for &#160;symmetric Two&#45;Higgs&#45;Doublet&#45;Manohar&#45;Wise models. ">
<polygon fill="none" stroke="#000000" points="112.5,-63.5 112.5,-80.5 159.5,-80.5 159.5,-63.5 112.5,-63.5"/>
<text text-anchor="middle" x="136" y="-70.1" font-family="Helvetica,sans-Serif" font-size="8.00" fill="#000000">THDMW</text>
</a>
</g>
</g>
<!-- Node6&#45;&gt;Node50 -->
<g id="edge11" class="edge">
<title>Node6&#45;&gt;Node50</title>
<path fill="none" stroke="#191970" d="M57.1047,-125.2543C77.0802,-111.7709 106.424,-91.9638 123.1219,-80.6927"/>
<polygon fill="#191970" stroke="#191970" points="54.9954,-122.4553 48.6651,-130.9511 58.9117,-128.2573 54.9954,-122.4553"/>
</g>
<!-- Node7 -->
<g id="node3" class="node">
<title>Node7</title>
<g id="a_node3"><a xlink:href="../../dc/dd5/class_standard_model.html" target="_top" xlink:title="A model class for the Standard Model. ">
<polygon fill="none" stroke="#ff0000" points="198.5,-198.5 198.5,-215.5 269.5,-215.5 269.5,-198.5 198.5,-198.5"/>
<text text-anchor="middle" x="234" y="-205.1" font-family="Helvetica,sans-Serif" font-size="8.00" fill="#000000">StandardModel</text>
</a>
</g>
</g>
<!-- Node7&#45;&gt;Node6 -->
<g id="edge2" class="edge">
<title>Node7&#45;&gt;Node6</title>
<path fill="none" stroke="#191970" d="M195.1544,-195.6194C161.0679,-185.3539 110.3177,-169.3905 67,-153 63.047,-151.5043 58.8654,-149.782 54.8965,-148.079"/>
<polygon fill="#191970" stroke="#191970" points="194.1547,-198.9735 204.7384,-198.4877 196.1618,-192.2674 194.1547,-198.9735"/>
</g>
<!-- Node7&#45;&gt;Node6 -->
<g id="edge9" class="edge">
<title>Node7&#45;&gt;Node6</title>
<path fill="none" stroke="#9a32cd" stroke-dasharray="5,2" d="M188.3679,-203.9905C158.9706,-200.7452 120.5008,-194.0031 89,-180 71.4341,-172.1914 54.364,-157.4805 44.5327,-148.102"/>
<polygon fill="#9a32cd" stroke="#9a32cd" points="188.0605,-207.4772 198.3614,-204.9987 188.7633,-200.5125 188.0605,-207.4772"/>
<text text-anchor="middle" x="103.5" y="-173.6" font-family="Helvetica,sans-Serif" font-size="8.00" fill="#000000"> trueSM</text>
</g>
<!-- Node12 -->
<g id="node6" class="node">
<title>Node12</title>
<g id="a_node6"><a xlink:href="../../dc/df3/class_e_w_s_mcache.html" target="_top" xlink:title="A class for cache variables used in computing radiative corrections to the EW precision observables...">
<polygon fill="none" stroke="#ff0000" points="333.5,-131 333.5,-148 396.5,-148 396.5,-131 333.5,-131"/>
<text text-anchor="middle" x="365" y="-137.6" font-family="Helvetica,sans-Serif" font-size="8.00" fill="#000000">EWSMcache</text>
</a>
</g>
</g>
<!-- Node7&#45;&gt;Node12 -->
<g id="edge6" class="edge">
<title>Node7&#45;&gt;Node12</title>
<path fill="none" stroke="#9a32cd" stroke-dasharray="5,2" d="M279.5684,-198.5063C302.9047,-193.5064 328.3911,-186.8367 338,-180 349.2923,-171.9656 357.1971,-157.604 361.4203,-148.3193"/>
<polygon fill="#9a32cd" stroke="#9a32cd" points="278.8321,-195.0845 269.7513,-200.5425 280.2538,-201.9386 278.8321,-195.0845"/>
<text text-anchor="middle" x="353.5" y="-173.6" font-family="Helvetica,sans-Serif" font-size="8.00" fill="#000000"> SM</text>
</g>
<!-- Node8 -->
<g id="node4" class="node">
<title>Node8</title>
<g id="a_node4"><a xlink:href="../../dd/dfa/class_q_c_d.html" target="_top" xlink:title="A class for parameters related to QCD, hadrons and quarks. ">
<polygon fill="none" stroke="#ff0000" points="163,-266 163,-283 197,-283 197,-266 163,-266"/>
<text text-anchor="middle" x="180" y="-272.6" font-family="Helvetica,sans-Serif" font-size="8.00" fill="#000000">QCD</text>
</a>
</g>
</g>
<!-- Node8&#45;&gt;Node7 -->
<g id="edge3" class="edge">
<title>Node8&#45;&gt;Node7</title>
<path fill="none" stroke="#191970" d="M193.1882,-258.0147C203.8764,-244.6545 218.5164,-226.3545 227.0458,-215.6927"/>
<polygon fill="#191970" stroke="#191970" points="190.3531,-255.9559 186.8391,-265.9511 195.8192,-260.3288 190.3531,-255.9559"/>
</g>
<!-- Node11 -->
<g id="node5" class="node">
<title>Node11</title>
<g id="a_node5"><a xlink:href="../../db/d32/class_e_w_s_m_two_fermions_l_e_p2.html" target="_top" xlink:title="A class for the form factors , &#160;and &#160;in the processes &#160;at LEP&#45;II. ">
<polygon fill="none" stroke="#ff0000" points="220.5,-63.5 220.5,-80.5 329.5,-80.5 329.5,-63.5 220.5,-63.5"/>
<text text-anchor="middle" x="275" y="-70.1" font-family="Helvetica,sans-Serif" font-size="8.00" fill="#000000">EWSMTwoFermionsLEP2</text>
</a>
</g>
</g>
<!-- Node11&#45;&gt;Node7 -->
<g id="edge4" class="edge">
<title>Node11&#45;&gt;Node7</title>
<path fill="none" stroke="#9a32cd" stroke-dasharray="5,2" d="M262.8814,-89.0063C256.2044,-99.2425 248.4001,-112.8102 244,-126 235.5703,-151.2692 234.1287,-183.1081 233.9576,-198.2396"/>
<polygon fill="#9a32cd" stroke="#9a32cd" points="265.836,-90.8857 268.5664,-80.6487 260.048,-86.9486 265.836,-90.8857"/>
<text text-anchor="middle" x="284.5" y="-137.6" font-family="Helvetica,sans-Serif" font-size="8.00" fill="#000000"> myTwoFermionsLEP2</text>
</g>
<!-- Node12&#45;&gt;Node7 -->
<g id="edge7" class="edge">
<title>Node12&#45;&gt;Node7</title>
<path fill="none" stroke="#9a32cd" stroke-dasharray="5,2" d="M326.434,-151.1651C305.9821,-157.6822 283.2188,-165.561 274,-171 261.4472,-178.4061 249.3396,-190.1542 241.7959,-198.2023"/>
<polygon fill="#9a32cd" stroke="#9a32cd" points="327.7272,-154.4275 336.2189,-148.0918 325.6296,-147.7492 327.7272,-154.4275"/>
<text text-anchor="middle" x="304" y="-173.6" font-family="Helvetica,sans-Serif" font-size="8.00" fill="#000000"> myEWSMcache</text>
</g>
<!-- Node12&#45;&gt;Node11 -->
<g id="edge5" class="edge">
<title>Node12&#45;&gt;Node11</title>
<path fill="none" stroke="#9a32cd" stroke-dasharray="5,2" d="M345.5178,-124.8884C327.5529,-111.4147 301.483,-91.8623 286.5903,-80.6927"/>
<polygon fill="#9a32cd" stroke="#9a32cd" points="343.5014,-127.751 353.6014,-130.9511 347.7014,-122.151 343.5014,-127.751"/>
<text text-anchor="middle" x="334" y="-101.6" font-family="Helvetica,sans-Serif" font-size="8.00" fill="#000000"> cache</text>
</g>
<!-- Node18 -->
<g id="node7" class="node">
<title>Node18</title>
<g id="a_node7"><a xlink:href="../../d5/d76/class_matching.html" target="_top" xlink:title="Matching\&lt; StandardModelMatching,\l StandardModel \&gt;">
<polygon fill="none" stroke="#ff0000" points="215.5,-261.5 215.5,-287.5 360.5,-287.5 360.5,-261.5 215.5,-261.5"/>
<text text-anchor="start" x="223.5" y="-277.1" font-family="Helvetica,sans-Serif" font-size="8.00" fill="#000000">Matching&lt; StandardModelMatching,</text>
<text text-anchor="middle" x="288" y="-268.1" font-family="Helvetica,sans-Serif" font-size="8.00" fill="#000000"> StandardModel &gt;</text>
</a>
</g>
</g>
<!-- Node18&#45;&gt;Node7 -->
<g id="edge8" class="edge">
<title>Node18&#45;&gt;Node7</title>
<path fill="none" stroke="#9a32cd" stroke-dasharray="5,2" d="M271.2896,-253.612C261.0846,-240.8557 248.5733,-225.2167 240.949,-215.6863"/>
<polygon fill="#9a32cd" stroke="#9a32cd" points="268.6082,-255.8631 277.5883,-261.4853 274.0743,-251.4902 268.6082,-255.8631"/>
<text text-anchor="middle" x="272.5" y="-236.6" font-family="Helvetica,sans-Serif" font-size="8.00" fill="#000000"> SMM</text>
</g>
<!-- Node50&#45;&gt;Node5 -->
<g id="edge10" class="edge">
<title>Node50&#45;&gt;Node5</title>
<path fill="none" stroke="#9a32cd" stroke-dasharray="5,2" d="M105.5841,-59.0513C97.8539,-55.092 89.8143,-50.3492 83,-45 72.8791,-37.0551 63.5816,-25.4249 57.8622,-17.5511"/>
<polygon fill="#9a32cd" stroke="#9a32cd" points="104.2296,-62.2839 114.7566,-63.4805 107.2734,-55.9803 104.2296,-62.2839"/>
<text text-anchor="middle" x="105" y="-38.6" font-family="Helvetica,sans-Serif" font-size="8.00" fill="#000000"> myTHDMW</text>
</g>
<!-- Node53 -->
<g id="node10" class="node">
<title>Node53</title>
<g id="a_node10"><a xlink:href="../../da/d99/class_t_h_d_m_wcache.html" target="_top" xlink:title="A class for the caching of some THDMW objects. ">
<polygon fill="none" stroke="#ff0000" points="145.5,-.5 145.5,-17.5 214.5,-17.5 214.5,-.5 145.5,-.5"/>
<text text-anchor="middle" x="180" y="-7.1" font-family="Helvetica,sans-Serif" font-size="8.00" fill="#000000">THDMWcache</text>
</a>
</g>
</g>
<!-- Node50&#45;&gt;Node53 -->
<g id="edge14" class="edge">
<title>Node50&#45;&gt;Node53</title>
<path fill="none" stroke="#9a32cd" stroke-dasharray="5,2" d="M130.4208,-53.5434C129.6501,-47.6093 129.9761,-41.2245 133,-36 137.8082,-27.6926 146.2463,-21.7189 154.6583,-17.538"/>
<polygon fill="#9a32cd" stroke="#9a32cd" points="127.0278,-54.4078 132.6465,-63.3901 133.8555,-52.8644 127.0278,-54.4078"/>
<text text-anchor="middle" x="155" y="-38.6" font-family="Helvetica,sans-Serif" font-size="8.00" fill="#000000"> myTHDMW</text>
</g>
<!-- Node51 -->
<g id="node9" class="node">
<title>Node51</title>
<g id="a_node9"><a xlink:href="../../d5/d76/class_matching.html" target="_top" xlink:title="Matching\&lt; THDMWMatching,\l THDMW \&gt;">
<polygon fill="none" stroke="#ff0000" points="76.5,-126.5 76.5,-152.5 197.5,-152.5 197.5,-126.5 76.5,-126.5"/>
<text text-anchor="start" x="84.5" y="-142.1" font-family="Helvetica,sans-Serif" font-size="8.00" fill="#000000">Matching&lt; THDMWMatching,</text>
<text text-anchor="middle" x="137" y="-133.1" font-family="Helvetica,sans-Serif" font-size="8.00" fill="#000000"> THDMW &gt;</text>
</a>
</g>
</g>
<!-- Node51&#45;&gt;Node50 -->
<g id="edge12" class="edge">
<title>Node51&#45;&gt;Node50</title>
<path fill="none" stroke="#9a32cd" stroke-dasharray="5,2" d="M136.6578,-116.3987C136.4754,-104.0883 136.2618,-89.6721 136.1287,-80.6863"/>
<polygon fill="#9a32cd" stroke="#9a32cd" points="133.1593,-116.5383 136.8072,-126.4853 140.1586,-116.4345 133.1593,-116.5383"/>
<text text-anchor="middle" x="157" y="-101.6" font-family="Helvetica,sans-Serif" font-size="8.00" fill="#000000"> THDMWM</text>
</g>
<!-- Node53&#45;&gt;Node50 -->
<g id="edge13" class="edge">
<title>Node53&#45;&gt;Node50</title>
<path fill="none" stroke="#9a32cd" stroke-dasharray="5,2" d="M184.1751,-27.888C184.528,-33.694 183.8909,-39.8941 181,-45 176.3315,-53.2454 168.0294,-59.2475 159.8165,-63.4681"/>
<polygon fill="#9a32cd" stroke="#9a32cd" points="187.5742,-26.9599 182.6091,-17.6005 180.6539,-28.0134 187.5742,-26.9599"/>
<text text-anchor="middle" x="216.5" y="-38.6" font-family="Helvetica,sans-Serif" font-size="8.00" fill="#000000"> myTHDMWcache</text>
</g>
</g>
</svg>
