<?xml version="1.0" encoding="UTF-8" standalone="no"?>
<!DOCTYPE svg PUBLIC "-//W3C//DTD SVG 1.1//EN"
 "http://www.w3.org/Graphics/SVG/1.1/DTD/svg11.dtd">
<!-- Generated by graphviz version 2.40.1 (20161225.0304)
 -->
<!-- Title: FlavourWilsonCoefficient Pages: 1 -->
<svg width="768pt" height="285pt"
 viewBox="0.00 0.00 768.00 284.50" xmlns="http://www.w3.org/2000/svg" xmlns:xlink="http://www.w3.org/1999/xlink">
<g id="graph0" class="graph" transform="scale(1 1) rotate(0) translate(4 280.5)">
<title>FlavourWilsonCoefficient</title>
<!-- Node4 -->
<g id="node1" class="node">
<title>Node4</title>
<polygon fill="#bfbfbf" stroke="#000000" points="486,-55 486,-72 591,-72 591,-55 486,-55"/>
<text text-anchor="middle" x="538.5" y="-61.6" font-family="Helvetica,sans-Serif" font-size="8.00" fill="#000000">FlavourWilsonCoefficient</text>
</g>
<!-- Node5 -->
<g id="node2" class="node">
<title>Node5</title>
<g id="a_node2"><a xlink:href="../../dc/dd5/class_standard_model.html" target="_top" xlink:title="A model class for the Standard Model. ">
<polygon fill="none" stroke="#ff0000" points="280,-181 280,-198 351,-198 351,-181 280,-181"/>
<text text-anchor="middle" x="315.5" y="-187.6" font-family="Helvetica,sans-Serif" font-size="8.00" fill="#000000">StandardModel</text>
</a>
</g>
</g>
<!-- Node5&#45;&gt;Node4 -->
<g id="edge1" class="edge">
<title>Node5&#45;&gt;Node4</title>
<path fill="none" stroke="#191970" d="M360.9225,-180.4264C371.0631,-177.0933 381.3602,-172.5819 390,-166.5 400.9028,-158.825 398.1163,-151.4493 408,-142.5 443.1416,-110.6806 492.9422,-84.735 519.7212,-72.0058"/>
<polygon fill="#191970" stroke="#191970" points="359.9019,-177.0783 351.3073,-183.2738 361.8895,-183.7902 359.9019,-177.0783"/>
</g>
<!-- Node10 -->
<g id="node5" class="node">
<title>Node10</title>
<g id="a_node5"><a xlink:href="../../dc/df3/class_e_w_s_mcache.html" target="_top" xlink:title="A class for cache variables used in computing radiative corrections to the EW precision observables...">
<polygon fill="none" stroke="#ff0000" points="507,-184 507,-201 570,-201 570,-184 507,-184"/>
<text text-anchor="middle" x="538.5" y="-190.6" font-family="Helvetica,sans-Serif" font-size="8.00" fill="#000000">EWSMcache</text>
</a>
</g>
</g>
<!-- Node5&#45;&gt;Node10 -->
<g id="edge5" class="edge">
<title>Node5&#45;&gt;Node10</title>
<path fill="none" stroke="#9a32cd" stroke-dasharray="5,2" d="M361.0285,-195.4075C375.9667,-197.082 392.6672,-198.6736 408,-199.5 434.628,-200.9352 441.366,-200.819 468,-199.5 480.7761,-198.8673 494.8069,-197.5934 506.9643,-196.3037"/>
<polygon fill="#9a32cd" stroke="#9a32cd" points="361.3438,-191.9207 351.0067,-194.2434 360.5361,-198.8739 361.3438,-191.9207"/>
<text text-anchor="middle" x="438" y="-203.1" font-family="Helvetica,sans-Serif" font-size="8.00" fill="#000000"> SM</text>
</g>
<!-- Node6 -->
<g id="node3" class="node">
<title>Node6</title>
<g id="a_node3"><a xlink:href="../../dd/dfa/class_q_c_d.html" target="_top" xlink:title="A class for parameters related to QCD, hadrons and quarks. ">
<polygon fill="none" stroke="#ff0000" points="55.5,-259 55.5,-276 89.5,-276 89.5,-259 55.5,-259"/>
<text text-anchor="middle" x="72.5" y="-265.6" font-family="Helvetica,sans-Serif" font-size="8.00" fill="#000000">QCD</text>
</a>
</g>
</g>
<!-- Node6&#45;&gt;Node5 -->
<g id="edge2" class="edge">
<title>Node6&#45;&gt;Node5</title>
<path fill="none" stroke="#191970" d="M99.3565,-261.2847C113.0714,-257.9963 129.9886,-253.764 145,-249.5 180.0184,-239.553 188.6313,-236.501 223,-224.5 247.4776,-215.9528 275.2615,-205.3116 293.9351,-198.0203"/>
<polygon fill="#191970" stroke="#191970" points="98.5019,-257.8902 89.5775,-263.6002 100.1149,-264.7018 98.5019,-257.8902"/>
</g>
<!-- Node9 -->
<g id="node4" class="node">
<title>Node9</title>
<g id="a_node4"><a xlink:href="../../db/d32/class_e_w_s_m_two_fermions_l_e_p2.html" target="_top" xlink:title="A class for the form factors , &#160;and &#160;in the processes &#160;at LEP&#45;II. ">
<polygon fill="none" stroke="#ff0000" points="651,-164 651,-181 760,-181 760,-164 651,-164"/>
<text text-anchor="middle" x="705.5" y="-170.6" font-family="Helvetica,sans-Serif" font-size="8.00" fill="#000000">EWSMTwoFermionsLEP2</text>
</a>
</g>
</g>
<!-- Node9&#45;&gt;Node5 -->
<g id="edge3" class="edge">
<title>Node9&#45;&gt;Node5</title>
<path fill="none" stroke="#9a32cd" stroke-dasharray="5,2" d="M640.3728,-167.8272C624.2461,-166.8608 607.0028,-165.9887 591,-165.5 544.3551,-164.0755 532.5526,-162.2396 486,-165.5 439.1834,-168.7788 385.6629,-177.0627 351.2696,-182.9794"/>
<polygon fill="#9a32cd" stroke="#9a32cd" points="640.5873,-171.3472 650.7848,-168.4729 641.0206,-164.3606 640.5873,-171.3472"/>
<text text-anchor="middle" x="538.5" y="-168.1" font-family="Helvetica,sans-Serif" font-size="8.00" fill="#000000"> myTwoFermionsLEP2</text>
</g>
<!-- Node10&#45;&gt;Node5 -->
<g id="edge6" class="edge">
<title>Node10&#45;&gt;Node5</title>
<path fill="none" stroke="#9a32cd" stroke-dasharray="5,2" d="M496.891,-191.169C487.3965,-190.9071 477.3503,-190.6633 468,-190.5 428.0269,-189.802 382.1525,-189.5795 351.2456,-189.5144"/>
<polygon fill="#9a32cd" stroke="#9a32cd" points="496.8216,-194.6683 506.9181,-191.4572 497.0228,-187.6712 496.8216,-194.6683"/>
<text text-anchor="middle" x="438" y="-193.1" font-family="Helvetica,sans-Serif" font-size="8.00" fill="#000000"> myEWSMcache</text>
</g>
<!-- Node10&#45;&gt;Node9 -->
<g id="edge4" class="edge">
<title>Node10&#45;&gt;Node9</title>
<path fill="none" stroke="#9a32cd" stroke-dasharray="5,2" d="M580.3497,-187.4881C601.6829,-184.9332 627.8919,-181.7944 650.8035,-179.0505"/>
<polygon fill="#9a32cd" stroke="#9a32cd" points="579.8173,-184.0267 570.3045,-188.6911 580.6498,-190.977 579.8173,-184.0267"/>
<text text-anchor="middle" x="621" y="-186.1" font-family="Helvetica,sans-Serif" font-size="8.00" fill="#000000"> cache</text>
</g>
<!-- Node16 -->
<g id="node6" class="node">
<title>Node16</title>
<g id="a_node6"><a xlink:href="../../d5/d76/class_matching.html" target="_top" xlink:title="Matching\&lt; StandardModelMatching,\l StandardModel \&gt;">
<polygon fill="none" stroke="#ff0000" points="0,-213.5 0,-239.5 145,-239.5 145,-213.5 0,-213.5"/>
<text text-anchor="start" x="8" y="-229.1" font-family="Helvetica,sans-Serif" font-size="8.00" fill="#000000">Matching&lt; StandardModelMatching,</text>
<text text-anchor="middle" x="72.5" y="-220.1" font-family="Helvetica,sans-Serif" font-size="8.00" fill="#000000"> StandardModel &gt;</text>
</a>
</g>
</g>
<!-- Node16&#45;&gt;Node5 -->
<g id="edge7" class="edge">
<title>Node16&#45;&gt;Node5</title>
<path fill="none" stroke="#9a32cd" stroke-dasharray="5,2" d="M155.1421,-213.9166C197.6028,-207.4514 247.1399,-199.9087 279.7944,-194.9366"/>
<polygon fill="#9a32cd" stroke="#9a32cd" points="154.438,-210.4834 145.0789,-215.4489 155.4918,-217.4037 154.438,-210.4834"/>
<text text-anchor="middle" x="193" y="-214.1" font-family="Helvetica,sans-Serif" font-size="8.00" fill="#000000"> SMM</text>
</g>
<!-- Node34 -->
<g id="node7" class="node">
<title>Node34</title>
<g id="a_node7"><a xlink:href="../../d9/db9/class_c_k_m.html" target="_top" xlink:title="A class for the CKM matrix elements. ">
<polygon fill="none" stroke="#ff0000" points="55.5,-177 55.5,-194 89.5,-194 89.5,-177 55.5,-177"/>
<text text-anchor="middle" x="72.5" y="-183.6" font-family="Helvetica,sans-Serif" font-size="8.00" fill="#000000">CKM</text>
</a>
</g>
</g>
<!-- Node34&#45;&gt;Node5 -->
<g id="edge8" class="edge">
<title>Node34&#45;&gt;Node5</title>
<path fill="none" stroke="#9a32cd" stroke-dasharray="5,2" d="M99.8217,-185.9497C143.8883,-186.6751 230.6559,-188.1034 279.6404,-188.9097"/>
<polygon fill="#9a32cd" stroke="#9a32cd" points="99.6436,-182.4464 89.5873,-185.7813 99.5283,-189.4455 99.6436,-182.4464"/>
<text text-anchor="middle" x="193" y="-190.1" font-family="Helvetica,sans-Serif" font-size="8.00" fill="#000000"> myCKM</text>
</g>
<!-- Node35 -->
<g id="node8" class="node">
<title>Node35</title>
<g id="a_node8"><a xlink:href="../../d5/d59/class_p_m_n_s.html" target="_top" xlink:title="A class for the PMNS matrix elements. ">
<polygon fill="none" stroke="#ff0000" points="52.5,-141 52.5,-158 92.5,-158 92.5,-141 52.5,-141"/>
<text text-anchor="middle" x="72.5" y="-147.6" font-family="Helvetica,sans-Serif" font-size="8.00" fill="#000000">PMNS</text>
</a>
</g>
</g>
<!-- Node35&#45;&gt;Node5 -->
<g id="edge9" class="edge">
<title>Node35&#45;&gt;Node5</title>
<path fill="none" stroke="#9a32cd" stroke-dasharray="5,2" d="M102.9432,-154.2346C133.3576,-158.9929 181.441,-166.5923 223,-173.5 241.81,-176.6265 262.7477,-180.2372 279.9392,-183.2365"/>
<polygon fill="#9a32cd" stroke="#9a32cd" points="103.3822,-150.7608 92.9619,-152.6757 102.302,-157.6769 103.3822,-150.7608"/>
<text text-anchor="middle" x="193" y="-176.1" font-family="Helvetica,sans-Serif" font-size="8.00" fill="#000000"> myPMNS</text>
</g>
<!-- Node24 -->
<g id="node9" class="node">
<title>Node24</title>
<g id="a_node9"><a xlink:href="../../dd/d9b/classgslpp_1_1complex.html" target="_top" xlink:title="A class for defining operations on and functions of complex numbers. ">
<polygon fill="none" stroke="#000000" points="37.5,-76 37.5,-93 107.5,-93 107.5,-76 37.5,-76"/>
<text text-anchor="middle" x="72.5" y="-82.6" font-family="Helvetica,sans-Serif" font-size="8.00" fill="#000000">gslpp::complex</text>
</a>
</g>
</g>
<!-- Node24&#45;&gt;Node4 -->
<g id="edge11" class="edge">
<title>Node24&#45;&gt;Node4</title>
<path fill="none" stroke="#9a32cd" stroke-dasharray="5,2" d="M117.7151,-80.7765C151.6243,-78.1065 199.1932,-74.6202 241,-72.5 326.667,-68.1556 426.3248,-65.6611 485.8085,-64.4441"/>
<polygon fill="#9a32cd" stroke="#9a32cd" points="117.3427,-77.295 107.6516,-81.5765 117.8975,-84.273 117.3427,-77.295"/>
<text text-anchor="middle" x="315.5" y="-165.1" font-family="Helvetica,sans-Serif" font-size="8.00" fill="#000000"> DC2</text>
<text text-anchor="middle" x="315.5" y="-156.1" font-family="Helvetica,sans-Serif" font-size="8.00" fill="#000000">DC3</text>
<text text-anchor="middle" x="315.5" y="-147.1" font-family="Helvetica,sans-Serif" font-size="8.00" fill="#000000">DC4</text>
<text text-anchor="middle" x="315.5" y="-138.1" font-family="Helvetica,sans-Serif" font-size="8.00" fill="#000000">DC9p</text>
<text text-anchor="middle" x="315.5" y="-129.1" font-family="Helvetica,sans-Serif" font-size="8.00" fill="#000000">DC5</text>
<text text-anchor="middle" x="315.5" y="-120.1" font-family="Helvetica,sans-Serif" font-size="8.00" fill="#000000">DC8p</text>
<text text-anchor="middle" x="315.5" y="-111.1" font-family="Helvetica,sans-Serif" font-size="8.00" fill="#000000">DC6</text>
<text text-anchor="middle" x="315.5" y="-102.1" font-family="Helvetica,sans-Serif" font-size="8.00" fill="#000000">DC7p</text>
<text text-anchor="middle" x="315.5" y="-93.1" font-family="Helvetica,sans-Serif" font-size="8.00" fill="#000000">DC7</text>
<text text-anchor="middle" x="315.5" y="-84.1" font-family="Helvetica,sans-Serif" font-size="8.00" fill="#000000">DC8</text>
<text text-anchor="middle" x="315.5" y="-75.1" font-family="Helvetica,sans-Serif" font-size="8.00" fill="#000000">...</text>
</g>
<!-- Node24&#45;&gt;Node5 -->
<g id="edge10" class="edge">
<title>Node24&#45;&gt;Node5</title>
<path fill="none" stroke="#9a32cd" stroke-dasharray="5,2" d="M117.5622,-94.1987C149.4037,-102.714 191.7957,-117.5606 223,-141.5 233.8629,-149.8339 229.8816,-158.5102 241,-166.5 252.4322,-174.7153 266.8711,-180.0515 279.9871,-183.4922"/>
<polygon fill="#9a32cd" stroke="#9a32cd" points="118.1781,-90.7436 107.6223,-91.653 116.4413,-97.5247 118.1781,-90.7436"/>
<text text-anchor="middle" x="193" y="-153.1" font-family="Helvetica,sans-Serif" font-size="8.00" fill="#000000"> rhoZ_f_cache</text>
<text text-anchor="middle" x="193" y="-144.1" font-family="Helvetica,sans-Serif" font-size="8.00" fill="#000000">kappaZ_f_cache</text>
</g>
<!-- Node48 -->
<g id="node10" class="node">
<title>Node48</title>
<g id="a_node10"><a xlink:href="../../d5/d76/class_matching.html" target="_top" xlink:title="Matching\&lt; FlavourWilsonCoefficient\lMatching, FlavourWilsonCoefficient \&gt;">
<polygon fill="none" stroke="#ff0000" points="241,-.5 241,-26.5 390,-26.5 390,-.5 241,-.5"/>
<text text-anchor="start" x="249" y="-16.1" font-family="Helvetica,sans-Serif" font-size="8.00" fill="#000000">Matching&lt; FlavourWilsonCoefficient</text>
<text text-anchor="middle" x="315.5" y="-7.1" font-family="Helvetica,sans-Serif" font-size="8.00" fill="#000000">Matching, FlavourWilsonCoefficient &gt;</text>
</a>
</g>
</g>
<!-- Node48&#45;&gt;Node4 -->
<g id="edge12" class="edge">
<title>Node48&#45;&gt;Node4</title>
<path fill="none" stroke="#9a32cd" stroke-dasharray="5,2" d="M400.0991,-26.304C422.3206,-30.2591 446.1731,-35.036 468,-40.5 483.8611,-44.4706 501.3357,-50.1621 514.9194,-54.8899"/>
<polygon fill="#9a32cd" stroke="#9a32cd" points="400.4698,-22.8159 390.0171,-24.5451 399.2667,-29.7117 400.4698,-22.8159"/>
<text text-anchor="middle" x="438" y="-43.1" font-family="Helvetica,sans-Serif" font-size="8.00" fill="#000000"> FWCM</text>
</g>
</g>
</svg>
