<?xml version="1.0" encoding="UTF-8" standalone="no"?>
<!DOCTYPE svg PUBLIC "-//W3C//DTD SVG 1.1//EN"
 "http://www.w3.org/Graphics/SVG/1.1/DTD/svg11.dtd">
<!-- Generated by graphviz version 2.40.1 (20161225.0304)
 -->
<!-- Title: EW_TEST Pages: 1 -->
<svg width="345pt" height="215pt"
 viewBox="0.00 0.00 345.24 215.00" xmlns="http://www.w3.org/2000/svg" xmlns:xlink="http://www.w3.org/1999/xlink">
<g id="graph0" class="graph" transform="scale(1 1) rotate(0) translate(4 211)">
<title>EW_TEST</title>
<!-- Node2 -->
<g id="node1" class="node">
<title>Node2</title>
<polygon fill="#bfbfbf" stroke="#000000" points="110.2444,-.5 110.2444,-17.5 164.2444,-17.5 164.2444,-.5 110.2444,-.5"/>
<text text-anchor="middle" x="137.2444" y="-7.1" font-family="Helvetica,sans-Serif" font-size="8.00" fill="#000000">EW_TEST</text>
</g>
<!-- Node3 -->
<g id="node2" class="node">
<title>Node3</title>
<g id="a_node2"><a xlink:href="../../dc/d1f/class_th_observable.html" target="_top" xlink:title="A class for a model prediction of an observable. ">
<polygon fill="none" stroke="#000000" points="28.7444,-63.5 28.7444,-80.5 95.7444,-80.5 95.7444,-63.5 28.7444,-63.5"/>
<text text-anchor="middle" x="62.2444" y="-70.1" font-family="Helvetica,sans-Serif" font-size="8.00" fill="#000000">ThObservable</text>
</a>
</g>
</g>
<!-- Node3&#45;&gt;Node2 -->
<g id="edge1" class="edge">
<title>Node3&#45;&gt;Node2</title>
<path fill="none" stroke="#191970" d="M80.5372,-56.634C95.1033,-44.3985 114.9655,-27.7143 126.9046,-17.6855"/>
<polygon fill="#191970" stroke="#191970" points="78.0787,-54.1282 72.6728,-63.2401 82.5811,-59.4881 78.0787,-54.1282"/>
</g>
<!-- Node4 -->
<g id="node3" class="node">
<title>Node4</title>
<g id="a_node3"><a xlink:href="../../dc/dd5/class_standard_model.html" target="_top" xlink:title="A model class for the Standard Model. ">
<polygon fill="none" stroke="#ff0000" points="26.7444,-126.5 26.7444,-143.5 97.7444,-143.5 97.7444,-126.5 26.7444,-126.5"/>
<text text-anchor="middle" x="62.2444" y="-133.1" font-family="Helvetica,sans-Serif" font-size="8.00" fill="#000000">StandardModel</text>
</a>
</g>
</g>
<!-- Node4&#45;&gt;Node2 -->
<g id="edge11" class="edge">
<title>Node4&#45;&gt;Node2</title>
<path fill="none" stroke="#9a32cd" stroke-dasharray="5,2" d="M37.468,-120.9626C15.8436,-106.8412 -10.0163,-84.1814 4.2444,-63 27.8353,-27.9605 78.4924,-15.648 110.0322,-11.3279"/>
<polygon fill="#9a32cd" stroke="#9a32cd" points="35.7063,-123.9885 46.0488,-126.287 39.3971,-118.0405 35.7063,-123.9885"/>
<text text-anchor="middle" x="11.7444" y="-70.1" font-family="Helvetica,sans-Serif" font-size="8.00" fill="#000000"> SM</text>
</g>
<!-- Node4&#45;&gt;Node3 -->
<g id="edge2" class="edge">
<title>Node4&#45;&gt;Node3</title>
<path fill="none" stroke="#9a32cd" stroke-dasharray="5,2" d="M62.2444,-116.096C62.2444,-104.3381 62.2444,-89.777 62.2444,-80.6855"/>
<polygon fill="#9a32cd" stroke="#9a32cd" points="58.7445,-116.2401 62.2444,-126.2401 65.7445,-116.2402 58.7445,-116.2401"/>
<text text-anchor="middle" x="69.7444" y="-101.6" font-family="Helvetica,sans-Serif" font-size="8.00" fill="#000000"> SM</text>
</g>
<!-- Node52 -->
<g id="node10" class="node">
<title>Node52</title>
<g id="a_node10"><a xlink:href="../../d6/d90/class_e_w___c_h_m_n.html" target="_top" xlink:title="A test class for the electroweak precision observables. ">
<polygon fill="none" stroke="#000000" points="114.2444,-63.5 114.2444,-80.5 172.2444,-80.5 172.2444,-63.5 114.2444,-63.5"/>
<text text-anchor="middle" x="143.2444" y="-70.1" font-family="Helvetica,sans-Serif" font-size="8.00" fill="#000000">EW_CHMN</text>
</a>
</g>
</g>
<!-- Node4&#45;&gt;Node52 -->
<g id="edge10" class="edge">
<title>Node4&#45;&gt;Node52</title>
<path fill="none" stroke="#9a32cd" stroke-dasharray="5,2" d="M81.5611,-119.9759C97.3304,-107.7109 119.0627,-90.808 132.0774,-80.6855"/>
<polygon fill="#9a32cd" stroke="#9a32cd" points="79.2519,-117.3379 73.5071,-126.2401 83.5495,-122.8634 79.2519,-117.3379"/>
<text text-anchor="middle" x="115.7444" y="-101.6" font-family="Helvetica,sans-Serif" font-size="8.00" fill="#000000"> SM</text>
</g>
<!-- Node5 -->
<g id="node4" class="node">
<title>Node5</title>
<g id="a_node4"><a xlink:href="../../dd/dfa/class_q_c_d.html" target="_top" xlink:title="A class for parameters related to QCD, hadrons and quarks. ">
<polygon fill="none" stroke="#ff0000" points=".2444,-189.5 .2444,-206.5 34.2444,-206.5 34.2444,-189.5 .2444,-189.5"/>
<text text-anchor="middle" x="17.2444" y="-196.1" font-family="Helvetica,sans-Serif" font-size="8.00" fill="#000000">QCD</text>
</a>
</g>
</g>
<!-- Node5&#45;&gt;Node4 -->
<g id="edge3" class="edge">
<title>Node5&#45;&gt;Node4</title>
<path fill="none" stroke="#191970" d="M29.4653,-180.8908C38.0632,-168.8538 49.2118,-153.2457 56.0405,-143.6855"/>
<polygon fill="#191970" stroke="#191970" points="26.4658,-179.0684 23.5015,-189.2401 32.162,-183.1371 26.4658,-179.0684"/>
</g>
<!-- Node8 -->
<g id="node5" class="node">
<title>Node8</title>
<g id="a_node5"><a xlink:href="../../db/d32/class_e_w_s_m_two_fermions_l_e_p2.html" target="_top" xlink:title="A class for the form factors , &#160;and &#160;in the processes &#160;at LEP&#45;II. ">
<polygon fill="none" stroke="#ff0000" points="52.7444,-189.5 52.7444,-206.5 161.7444,-206.5 161.7444,-189.5 52.7444,-189.5"/>
<text text-anchor="middle" x="107.2444" y="-196.1" font-family="Helvetica,sans-Serif" font-size="8.00" fill="#000000">EWSMTwoFermionsLEP2</text>
</a>
</g>
</g>
<!-- Node8&#45;&gt;Node4 -->
<g id="edge4" class="edge">
<title>Node8&#45;&gt;Node4</title>
<path fill="none" stroke="#9a32cd" stroke-dasharray="5,2" d="M95.0235,-180.8908C86.4257,-168.8538 75.277,-153.2457 68.4483,-143.6855"/>
<polygon fill="#9a32cd" stroke="#9a32cd" points="92.3269,-183.1371 100.9874,-189.2401 98.023,-179.0684 92.3269,-183.1371"/>
<text text-anchor="middle" x="128.7444" y="-164.6" font-family="Helvetica,sans-Serif" font-size="8.00" fill="#000000"> myTwoFermionsLEP2</text>
</g>
<!-- Node47 -->
<g id="node6" class="node">
<title>Node47</title>
<g id="a_node6"><a xlink:href="../../dd/d3a/class_e_w___a_b_c.html" target="_top" xlink:title="A test class for the electroweak precision observables. ">
<polygon fill="none" stroke="#000000" points="190.2444,-63.5 190.2444,-80.5 240.2444,-80.5 240.2444,-63.5 190.2444,-63.5"/>
<text text-anchor="middle" x="215.2444" y="-70.1" font-family="Helvetica,sans-Serif" font-size="8.00" fill="#000000">EW_ABC</text>
</a>
</g>
</g>
<!-- Node47&#45;&gt;Node2 -->
<g id="edge5" class="edge">
<title>Node47&#45;&gt;Node2</title>
<path fill="none" stroke="#9a32cd" stroke-dasharray="5,2" d="M206.9909,-54.104C203.4345,-47.7974 198.8033,-41.0327 193.2444,-36 184.443,-28.0318 172.8659,-21.9262 162.5236,-17.5537"/>
<polygon fill="#9a32cd" stroke="#9a32cd" points="204.0243,-55.9921 211.6738,-63.3226 210.2652,-52.8218 204.0243,-55.9921"/>
<text text-anchor="middle" x="224.7444" y="-38.6" font-family="Helvetica,sans-Serif" font-size="8.00" fill="#000000"> myEW_ABC</text>
</g>
<!-- Node48 -->
<g id="node7" class="node">
<title>Node48</title>
<g id="a_node7"><a xlink:href="../../d1/d57/class_n_p_epsilons.html" target="_top" xlink:title="A model class for new physics in the form of contributions to the &#160;parameters. ">
<polygon fill="none" stroke="#ff0000" points="186.2444,-126.5 186.2444,-143.5 244.2444,-143.5 244.2444,-126.5 186.2444,-126.5"/>
<text text-anchor="middle" x="215.2444" y="-133.1" font-family="Helvetica,sans-Serif" font-size="8.00" fill="#000000">NPEpsilons</text>
</a>
</g>
</g>
<!-- Node48&#45;&gt;Node47 -->
<g id="edge6" class="edge">
<title>Node48&#45;&gt;Node47</title>
<path fill="none" stroke="#9a32cd" stroke-dasharray="5,2" d="M215.2444,-116.096C215.2444,-104.3381 215.2444,-89.777 215.2444,-80.6855"/>
<polygon fill="#9a32cd" stroke="#9a32cd" points="211.7445,-116.2401 215.2444,-126.2401 218.7445,-116.2402 211.7445,-116.2401"/>
<text text-anchor="middle" x="224.7444" y="-101.6" font-family="Helvetica,sans-Serif" font-size="8.00" fill="#000000"> NPE</text>
</g>
<!-- Node50 -->
<g id="node8" class="node">
<title>Node50</title>
<g id="a_node8"><a xlink:href="../../d8/d99/class_e_w___b_u_r_g_e_s_s.html" target="_top" xlink:title="A test class for the oblique corrections to the EWPO. ">
<polygon fill="none" stroke="#000000" points="258.7444,-63.5 258.7444,-80.5 331.7444,-80.5 331.7444,-63.5 258.7444,-63.5"/>
<text text-anchor="middle" x="295.2444" y="-70.1" font-family="Helvetica,sans-Serif" font-size="8.00" fill="#000000">EW_BURGESS</text>
</a>
</g>
</g>
<!-- Node50&#45;&gt;Node2 -->
<g id="edge7" class="edge">
<title>Node50&#45;&gt;Node2</title>
<path fill="none" stroke="#9a32cd" stroke-dasharray="5,2" d="M279.7986,-56.0151C272.1263,-48.922 262.3479,-41.0538 252.2444,-36 224.1819,-21.9629 188.5856,-15.0603 164.4846,-11.7782"/>
<polygon fill="#9a32cd" stroke="#9a32cd" points="277.6077,-58.767 287.2131,-63.2378 282.4922,-53.7528 277.6077,-58.767"/>
<text text-anchor="middle" x="302.2444" y="-38.6" font-family="Helvetica,sans-Serif" font-size="8.00" fill="#000000"> myEW_BURGESS</text>
</g>
<!-- Node51 -->
<g id="node9" class="node">
<title>Node51</title>
<g id="a_node9"><a xlink:href="../../d9/dad/class_n_p_s_t_u.html" target="_top" xlink:title="A model class for new physics in the form of contributions to the oblique parameters &#160;and ...">
<polygon fill="none" stroke="#ff0000" points="273.2444,-126.5 273.2444,-143.5 317.2444,-143.5 317.2444,-126.5 273.2444,-126.5"/>
<text text-anchor="middle" x="295.2444" y="-133.1" font-family="Helvetica,sans-Serif" font-size="8.00" fill="#000000">NPSTU</text>
</a>
</g>
</g>
<!-- Node51&#45;&gt;Node50 -->
<g id="edge8" class="edge">
<title>Node51&#45;&gt;Node50</title>
<path fill="none" stroke="#9a32cd" stroke-dasharray="5,2" d="M295.2444,-116.096C295.2444,-104.3381 295.2444,-89.777 295.2444,-80.6855"/>
<polygon fill="#9a32cd" stroke="#9a32cd" points="291.7445,-116.2401 295.2444,-126.2401 298.7445,-116.2402 291.7445,-116.2401"/>
<text text-anchor="middle" x="302.2444" y="-101.6" font-family="Helvetica,sans-Serif" font-size="8.00" fill="#000000"> NP</text>
</g>
<!-- Node52&#45;&gt;Node2 -->
<g id="edge9" class="edge">
<title>Node52&#45;&gt;Node2</title>
<path fill="none" stroke="#9a32cd" stroke-dasharray="5,2" d="M139.372,-53.1718C138.9227,-50.4401 138.5254,-47.6548 138.2444,-45 137.2574,-35.6735 137.0837,-24.9168 137.1091,-17.608"/>
<polygon fill="#9a32cd" stroke="#9a32cd" points="135.9415,-53.8683 141.2261,-63.0511 142.8214,-52.5771 135.9415,-53.8683"/>
<text text-anchor="middle" x="165.7444" y="-38.6" font-family="Helvetica,sans-Serif" font-size="8.00" fill="#000000"> myEW_CHMN</text>
</g>
</g>
</svg>
