<?xml version="1.0" encoding="UTF-8" standalone="no"?>
<!DOCTYPE svg PUBLIC "-//W3C//DTD SVG 1.1//EN"
 "http://www.w3.org/Graphics/SVG/1.1/DTD/svg11.dtd">
<!-- Generated by graphviz version 2.40.1 (20161225.0304)
 -->
<!-- Title: RunnerTHDMW.h Pages: 1 -->
<svg width="647pt" height="188pt"
 viewBox="0.00 0.00 646.50 188.00" xmlns="http://www.w3.org/2000/svg" xmlns:xlink="http://www.w3.org/1999/xlink">
<g id="graph0" class="graph" transform="scale(1 1) rotate(0) translate(4 184)">
<title>RunnerTHDMW.h</title>
<!-- Node54 -->
<g id="node1" class="node">
<title>Node54</title>
<polygon fill="#bfbfbf" stroke="#000000" points="255,-162.5 255,-179.5 335,-179.5 335,-162.5 255,-162.5"/>
<text text-anchor="middle" x="295" y="-169.1" font-family="Helvetica,sans-Serif" font-size="8.00" fill="#000000">RunnerTHDMW.h</text>
</g>
<!-- Node55 -->
<g id="node2" class="node">
<title>Node55</title>
<g id="a_node2"><a xlink:href="../../d2/dbf/_runner_t_h_d_m_w_8cpp.html" target="_top" xlink:title="RunnerTHDMW.cpp">
<polygon fill="none" stroke="#000000" points="200.5,-108.5 200.5,-125.5 289.5,-125.5 289.5,-108.5 200.5,-108.5"/>
<text text-anchor="middle" x="245" y="-115.1" font-family="Helvetica,sans-Serif" font-size="8.00" fill="#000000">RunnerTHDMW.cpp</text>
</a>
</g>
</g>
<!-- Node54&#45;&gt;Node55 -->
<g id="edge1" class="edge">
<title>Node54&#45;&gt;Node55</title>
<path fill="none" stroke="#191970" d="M279.9237,-154.7175C271.1109,-145.1997 260.3341,-133.5608 253.1028,-125.7511"/>
<polygon fill="#191970" stroke="#191970" points="277.3812,-157.1233 286.7435,-162.083 282.5176,-152.3674 277.3812,-157.1233"/>
</g>
<!-- Node56 -->
<g id="node3" class="node">
<title>Node56</title>
<g id="a_node3"><a xlink:href="../../d2/de6/_t_h_d_m_wcache_8h.html" target="_top" xlink:title="THDMWcache.h">
<polygon fill="none" stroke="#ff0000" points="307.5,-108.5 307.5,-125.5 382.5,-125.5 382.5,-108.5 307.5,-108.5"/>
<text text-anchor="middle" x="345" y="-115.1" font-family="Helvetica,sans-Serif" font-size="8.00" fill="#000000">THDMWcache.h</text>
</a>
</g>
</g>
<!-- Node54&#45;&gt;Node56 -->
<g id="edge2" class="edge">
<title>Node54&#45;&gt;Node56</title>
<path fill="none" stroke="#191970" d="M310.0763,-154.7175C318.8891,-145.1997 329.6659,-133.5608 336.8972,-125.7511"/>
<polygon fill="#191970" stroke="#191970" points="307.4824,-152.3674 303.2565,-162.083 312.6188,-157.1233 307.4824,-152.3674"/>
</g>
<!-- Node57 -->
<g id="node4" class="node">
<title>Node57</title>
<g id="a_node4"><a xlink:href="../../d1/dd9/_t_h_d_m_w_8cpp.html" target="_top" xlink:title="THDMW.cpp">
<polygon fill="none" stroke="#000000" points="0,-54.5 0,-71.5 62,-71.5 62,-54.5 0,-54.5"/>
<text text-anchor="middle" x="31" y="-61.1" font-family="Helvetica,sans-Serif" font-size="8.00" fill="#000000">THDMW.cpp</text>
</a>
</g>
</g>
<!-- Node56&#45;&gt;Node57 -->
<g id="edge3" class="edge">
<title>Node56&#45;&gt;Node57</title>
<path fill="none" stroke="#191970" d="M297.349,-107.7629C196.2653,-90.1981 168.6138,-90.6676 71,-72 68.2035,-71.4652 65.3043,-70.8778 62.4028,-70.2673"/>
<polygon fill="#191970" stroke="#191970" points="296.911,-111.2394 307.3654,-109.5203 298.1207,-104.3448 296.911,-111.2394"/>
</g>
<!-- Node58 -->
<g id="node5" class="node">
<title>Node58</title>
<g id="a_node5"><a xlink:href="../../d2/d88/_t_h_d_m_wcache_8cpp.html" target="_top" xlink:title="THDMWcache.cpp">
<polygon fill="none" stroke="#000000" points="80,-54.5 80,-71.5 164,-71.5 164,-54.5 80,-54.5"/>
<text text-anchor="middle" x="122" y="-61.1" font-family="Helvetica,sans-Serif" font-size="8.00" fill="#000000">THDMWcache.cpp</text>
</a>
</g>
</g>
<!-- Node56&#45;&gt;Node58 -->
<g id="edge4" class="edge">
<title>Node56&#45;&gt;Node58</title>
<path fill="none" stroke="#191970" d="M299.9389,-106.0884C257.8092,-95.8865 195.76,-80.8612 157.1697,-71.5164"/>
<polygon fill="#191970" stroke="#191970" points="299.1221,-109.4916 309.665,-108.4435 300.7696,-102.6883 299.1221,-109.4916"/>
</g>
<!-- Node59 -->
<g id="node6" class="node">
<title>Node59</title>
<g id="a_node6"><a xlink:href="../../d7/d5a/_t_h_d_m_wdirectsearches_8h.html" target="_top" xlink:title="THDMWdirectsearches.h">
<polygon fill="none" stroke="#ff0000" points="182,-54.5 182,-71.5 288,-71.5 288,-54.5 182,-54.5"/>
<text text-anchor="middle" x="235" y="-61.1" font-family="Helvetica,sans-Serif" font-size="8.00" fill="#000000">THDMWdirectsearches.h</text>
</a>
</g>
</g>
<!-- Node56&#45;&gt;Node59 -->
<g id="edge5" class="edge">
<title>Node56&#45;&gt;Node59</title>
<path fill="none" stroke="#191970" d="M318.2379,-103.8622C297.841,-93.8492 270.3341,-80.3458 252.6295,-71.6545"/>
<polygon fill="#191970" stroke="#191970" points="316.8075,-107.059 327.3266,-108.324 319.8923,-100.7753 316.8075,-107.059"/>
</g>
<!-- Node63 -->
<g id="node7" class="node">
<title>Node63</title>
<g id="a_node7"><a xlink:href="../../d2/d4d/_t_h_d_m_w_e_w_p_o_8h.html" target="_top" xlink:title="THDMWEWPO.h">
<polygon fill="none" stroke="#ff0000" points="306,-54.5 306,-71.5 384,-71.5 384,-54.5 306,-54.5"/>
<text text-anchor="middle" x="345" y="-61.1" font-family="Helvetica,sans-Serif" font-size="8.00" fill="#000000">THDMWEWPO.h</text>
</a>
</g>
</g>
<!-- Node56&#45;&gt;Node63 -->
<g id="edge6" class="edge">
<title>Node56&#45;&gt;Node63</title>
<path fill="none" stroke="#191970" d="M345,-97.8045C345,-88.9102 345,-78.7798 345,-71.7511"/>
<polygon fill="#191970" stroke="#191970" points="341.5001,-98.083 345,-108.083 348.5001,-98.083 341.5001,-98.083"/>
</g>
<!-- Node64 -->
<g id="node8" class="node">
<title>Node64</title>
<g id="a_node8"><a xlink:href="../../d6/d1e/_t_h_d_m_w_e_w_p_o_8cpp.html" target="_top" xlink:title="THDMWEWPO.cpp">
<polygon fill="none" stroke="#000000" points="334.5,-.5 334.5,-17.5 421.5,-17.5 421.5,-.5 334.5,-.5"/>
<text text-anchor="middle" x="378" y="-7.1" font-family="Helvetica,sans-Serif" font-size="8.00" fill="#000000">THDMWEWPO.cpp</text>
</a>
</g>
</g>
<!-- Node56&#45;&gt;Node64 -->
<g id="edge8" class="edge">
<title>Node56&#45;&gt;Node64</title>
<path fill="none" stroke="#191970" d="M367.6352,-102.2571C377.3805,-94.5406 387.7319,-84.1601 393,-72 400.9557,-53.6363 390.5961,-30.3517 383.5447,-17.8674"/>
<polygon fill="#191970" stroke="#191970" points="365.356,-99.5884 359.3701,-108.3302 369.501,-105.2293 365.356,-99.5884"/>
</g>
<!-- Node65 -->
<g id="node9" class="node">
<title>Node65</title>
<g id="a_node9"><a xlink:href="../../d1/d1d/_t_h_d_m_w_matching_8cpp.html" target="_top" xlink:title="THDMWMatching.cpp">
<polygon fill="none" stroke="#000000" points="440.5,-54.5 440.5,-71.5 535.5,-71.5 535.5,-54.5 440.5,-54.5"/>
<text text-anchor="middle" x="488" y="-61.1" font-family="Helvetica,sans-Serif" font-size="8.00" fill="#000000">THDMWMatching.cpp</text>
</a>
</g>
</g>
<!-- Node56&#45;&gt;Node65 -->
<g id="edge9" class="edge">
<title>Node56&#45;&gt;Node65</title>
<path fill="none" stroke="#191970" d="M377.0272,-104.9058C403.9119,-94.7536 441.6407,-80.5063 465.4472,-71.5164"/>
<polygon fill="#191970" stroke="#191970" points="375.7775,-101.6364 367.6588,-108.4435 378.2505,-108.1851 375.7775,-101.6364"/>
</g>
<!-- Node66 -->
<g id="node10" class="node">
<title>Node66</title>
<g id="a_node10"><a xlink:href="../../d0/d45/_t_h_d_m_wpositivity_8h.html" target="_top" xlink:title="THDMWpositivity.h">
<polygon fill="none" stroke="#ff0000" points="553.5,-54.5 553.5,-71.5 638.5,-71.5 638.5,-54.5 553.5,-54.5"/>
<text text-anchor="middle" x="596" y="-61.1" font-family="Helvetica,sans-Serif" font-size="8.00" fill="#000000">THDMWpositivity.h</text>
</a>
</g>
</g>
<!-- Node56&#45;&gt;Node66 -->
<g id="edge10" class="edge">
<title>Node56&#45;&gt;Node66</title>
<path fill="none" stroke="#191970" d="M392.5769,-106.7643C439.891,-96.5852 511.6574,-81.1454 556.0885,-71.5865"/>
<polygon fill="#191970" stroke="#191970" points="391.6174,-103.3906 382.5772,-108.9157 393.0897,-110.234 391.6174,-103.3906"/>
</g>
<!-- Node63&#45;&gt;Node64 -->
<g id="edge7" class="edge">
<title>Node63&#45;&gt;Node64</title>
<path fill="none" stroke="#191970" d="M355.8321,-45.2747C361.4722,-36.0454 368.1181,-25.1703 372.6521,-17.7511"/>
<polygon fill="#191970" stroke="#191970" points="352.6773,-43.7251 350.4493,-54.083 358.6503,-47.3753 352.6773,-43.7251"/>
</g>
</g>
</svg>
