<?xml version="1.0" encoding="UTF-8" standalone="no"?>
<!DOCTYPE svg PUBLIC "-//W3C//DTD SVG 1.1//EN"
 "http://www.w3.org/Graphics/SVG/1.1/DTD/svg11.dtd">
<!-- Generated by graphviz version 2.40.1 (20161225.0304)
 -->
<!-- Title: THDM.cpp Pages: 1 -->
<svg width="349pt" height="296pt"
 viewBox="0.00 0.00 349.40 296.00" xmlns="http://www.w3.org/2000/svg" xmlns:xlink="http://www.w3.org/1999/xlink">
<g id="graph0" class="graph" transform="scale(1 1) rotate(0) translate(4 292)">
<title>THDM.cpp</title>
<!-- Node0 -->
<g id="node1" class="node">
<title>Node0</title>
<polygon fill="#bfbfbf" stroke="#000000" points="211.4019,-270.5 211.4019,-287.5 266.4019,-287.5 266.4019,-270.5 211.4019,-270.5"/>
<text text-anchor="middle" x="238.9019" y="-277.1" font-family="Helvetica,sans-Serif" font-size="8.00" fill="#000000">THDM.cpp</text>
</g>
<!-- Node1 -->
<g id="node2" class="node">
<title>Node1</title>
<g id="a_node2"><a xlink:href="../../de/de8/_t_h_d_m_8h.html" target="_top" xlink:title="THDM.h">
<polygon fill="none" stroke="#000000" points="230.9019,-54.5 230.9019,-71.5 276.9019,-71.5 276.9019,-54.5 230.9019,-54.5"/>
<text text-anchor="middle" x="253.9019" y="-61.1" font-family="Helvetica,sans-Serif" font-size="8.00" fill="#000000">THDM.h</text>
</a>
</g>
</g>
<!-- Node0&#45;&gt;Node1 -->
<g id="edge1" class="edge">
<title>Node0&#45;&gt;Node1</title>
<path fill="none" stroke="#191970" d="M242.2187,-270.3962C248.6577,-253.3809 262.918,-214.1207 270.9019,-180 276.4297,-156.3762 277.1193,-150.1964 278.9019,-126 279.4897,-118.0216 280.9086,-115.7442 278.9019,-108 276.356,-98.1752 271.1493,-88.2118 266.1434,-80.166"/>
<polygon fill="#191970" stroke="#191970" points="268.9823,-78.1143 260.5306,-71.7252 263.1533,-81.9903 268.9823,-78.1143"/>
</g>
<!-- Node51 -->
<g id="node5" class="node">
<title>Node51</title>
<g id="a_node5"><a xlink:href="../../d0/d7c/_t_h_d_mcache_8h.html" target="_top" xlink:title="THDMcache.h">
<polygon fill="none" stroke="#ff0000" points="132.9019,-216.5 132.9019,-233.5 200.9019,-233.5 200.9019,-216.5 132.9019,-216.5"/>
<text text-anchor="middle" x="166.9019" y="-223.1" font-family="Helvetica,sans-Serif" font-size="8.00" fill="#000000">THDMcache.h</text>
</a>
</g>
</g>
<!-- Node0&#45;&gt;Node51 -->
<g id="edge4" class="edge">
<title>Node0&#45;&gt;Node51</title>
<path fill="none" stroke="#191970" d="M227.3339,-270.324C216.4817,-262.1849 200.0212,-249.8395 187.0185,-240.0874"/>
<polygon fill="#191970" stroke="#191970" points="188.7805,-237.0339 178.6804,-233.8339 184.5804,-242.6339 188.7805,-237.0339"/>
</g>
<!-- Node2 -->
<g id="node3" class="node">
<title>Node2</title>
<g id="a_node3"><a xlink:href="../../d6/d0a/_standard_model_8h.html" target="_top" xlink:title="StandardModel.h">
<polygon fill="none" stroke="#ff0000" points="167.4019,-.5 167.4019,-17.5 244.4019,-17.5 244.4019,-.5 167.4019,-.5"/>
<text text-anchor="middle" x="205.9019" y="-7.1" font-family="Helvetica,sans-Serif" font-size="8.00" fill="#000000">StandardModel.h</text>
</a>
</g>
</g>
<!-- Node1&#45;&gt;Node2 -->
<g id="edge2" class="edge">
<title>Node1&#45;&gt;Node2</title>
<path fill="none" stroke="#191970" d="M245.9757,-54.083C239.0558,-46.2982 228.8365,-34.8015 220.4499,-25.3665"/>
<polygon fill="#191970" stroke="#191970" points="222.9403,-22.8999 213.6806,-17.7511 217.7084,-27.5505 222.9403,-22.8999"/>
</g>
<!-- Node50 -->
<g id="node4" class="node">
<title>Node50</title>
<g id="a_node4"><a xlink:href="../../db/d1f/_t_h_d_m_matching_8h.html" target="_top" xlink:title="THDMMatching.h">
<polygon fill="none" stroke="#ff0000" points="262.4019,-.5 262.4019,-17.5 341.4019,-17.5 341.4019,-.5 262.4019,-.5"/>
<text text-anchor="middle" x="301.9019" y="-7.1" font-family="Helvetica,sans-Serif" font-size="8.00" fill="#000000">THDMMatching.h</text>
</a>
</g>
</g>
<!-- Node1&#45;&gt;Node50 -->
<g id="edge3" class="edge">
<title>Node1&#45;&gt;Node50</title>
<path fill="none" stroke="#191970" d="M261.8281,-54.083C268.748,-46.2982 278.9673,-34.8015 287.3539,-25.3665"/>
<polygon fill="#191970" stroke="#191970" points="290.0954,-27.5505 294.1232,-17.7511 284.8636,-22.8999 290.0954,-27.5505"/>
</g>
<!-- Node51&#45;&gt;Node1 -->
<g id="edge7" class="edge">
<title>Node51&#45;&gt;Node1</title>
<path fill="none" stroke="#191970" d="M201.03,-216.7512C220.1535,-210.1933 242.4089,-198.8841 253.9019,-180 272.4006,-149.6049 265.5833,-106.0248 259.4342,-81.5354"/>
<polygon fill="#191970" stroke="#191970" points="262.769,-80.4614 256.7494,-71.7428 256.0182,-82.3123 262.769,-80.4614"/>
</g>
<!-- Node47 -->
<g id="node6" class="node">
<title>Node47</title>
<polygon fill="none" stroke="#bfbfbf" points="16.9019,-162.5 16.9019,-179.5 54.9019,-179.5 54.9019,-162.5 16.9019,-162.5"/>
<text text-anchor="middle" x="35.9019" y="-169.1" font-family="Helvetica,sans-Serif" font-size="8.00" fill="#000000">cmath</text>
</g>
<!-- Node51&#45;&gt;Node47 -->
<g id="edge5" class="edge">
<title>Node51&#45;&gt;Node47</title>
<path fill="none" stroke="#191970" d="M146.1446,-216.4435C124.205,-207.3998 89.4366,-193.0677 64.8184,-182.9198"/>
<polygon fill="#191970" stroke="#191970" points="65.8602,-179.5636 55.281,-178.9883 63.1924,-186.0353 65.8602,-179.5636"/>
</g>
<!-- Node52 -->
<g id="node7" class="node">
<title>Node52</title>
<g id="a_node7"><a xlink:href="../../d3/d6b/_p_vfunctions_8h.html" target="_top" xlink:title="PVfunctions.h">
<polygon fill="none" stroke="#ff0000" points="72.9019,-162.5 72.9019,-179.5 138.9019,-179.5 138.9019,-162.5 72.9019,-162.5"/>
<text text-anchor="middle" x="105.9019" y="-169.1" font-family="Helvetica,sans-Serif" font-size="8.00" fill="#000000">PVfunctions.h</text>
</a>
</g>
</g>
<!-- Node51&#45;&gt;Node52 -->
<g id="edge6" class="edge">
<title>Node51&#45;&gt;Node52</title>
<path fill="none" stroke="#191970" d="M157.1012,-216.324C148.0838,-208.3414 134.496,-196.3128 123.5839,-186.6529"/>
<polygon fill="#191970" stroke="#191970" points="125.6885,-183.8416 115.8809,-179.8339 121.0486,-189.083 125.6885,-183.8416"/>
</g>
<!-- Node55 -->
<g id="node8" class="node">
<title>Node55</title>
<g id="a_node8"><a xlink:href="../../df/d20/_t_h_d_mquantities_8h.html" target="_top" xlink:title="THDMquantities.h">
<polygon fill="none" stroke="#ff0000" points="125.4019,-108.5 125.4019,-125.5 206.4019,-125.5 206.4019,-108.5 125.4019,-108.5"/>
<text text-anchor="middle" x="165.9019" y="-115.1" font-family="Helvetica,sans-Serif" font-size="8.00" fill="#000000">THDMquantities.h</text>
</a>
</g>
</g>
<!-- Node51&#45;&gt;Node55 -->
<g id="edge8" class="edge">
<title>Node51&#45;&gt;Node55</title>
<path fill="none" stroke="#191970" d="M166.8201,-216.1619C166.6581,-198.6713 166.2936,-159.3048 166.0757,-135.7731"/>
<polygon fill="#191970" stroke="#191970" points="169.5746,-135.6255 165.9821,-125.6584 162.5749,-135.6904 169.5746,-135.6255"/>
</g>
<!-- Node10 -->
<g id="node9" class="node">
<title>Node10</title>
<polygon fill="none" stroke="#bfbfbf" points="52.4019,-54.5 52.4019,-71.5 103.4019,-71.5 103.4019,-54.5 52.4019,-54.5"/>
<text text-anchor="middle" x="77.9019" y="-61.1" font-family="Helvetica,sans-Serif" font-size="8.00" fill="#000000">stdexcept</text>
</g>
<!-- Node51&#45;&gt;Node10 -->
<g id="edge14" class="edge">
<title>Node51&#45;&gt;Node10</title>
<path fill="none" stroke="#191970" d="M132.6833,-220.1763C90.6099,-213.4635 22.9136,-199.85 7.9019,-180 -18.218,-145.4617 28.7406,-100.5377 57.6706,-77.7093"/>
<polygon fill="#191970" stroke="#191970" points="59.8069,-80.4818 65.6232,-71.6261 55.5539,-74.9218 59.8069,-80.4818"/>
</g>
<!-- Node57 -->
<g id="node10" class="node">
<title>Node57</title>
<g id="a_node10"><a xlink:href="../../dc/df9/_runner_8h.html" target="_top" xlink:title="Runner.h">
<polygon fill="none" stroke="#ff0000" points="195.4019,-162.5 195.4019,-179.5 244.4019,-179.5 244.4019,-162.5 195.4019,-162.5"/>
<text text-anchor="middle" x="219.9019" y="-169.1" font-family="Helvetica,sans-Serif" font-size="8.00" fill="#000000">Runner.h</text>
</a>
</g>
</g>
<!-- Node51&#45;&gt;Node57 -->
<g id="edge11" class="edge">
<title>Node51&#45;&gt;Node57</title>
<path fill="none" stroke="#191970" d="M175.6538,-216.083C183.3716,-208.2195 194.8066,-196.5688 204.1185,-187.0813"/>
<polygon fill="#191970" stroke="#191970" points="206.8061,-189.3396 211.3129,-179.7511 201.8103,-184.4363 206.8061,-189.3396"/>
</g>
<!-- Node55&#45;&gt;Node1 -->
<g id="edge10" class="edge">
<title>Node55&#45;&gt;Node1</title>
<path fill="none" stroke="#191970" d="M180.0406,-108.324C193.7682,-99.9002 214.8382,-86.9709 230.9663,-77.0741"/>
<polygon fill="#191970" stroke="#191970" points="233.1056,-79.8678 239.7983,-71.6545 229.4445,-73.9016 233.1056,-79.8678"/>
</g>
<!-- Node55&#45;&gt;Node10 -->
<g id="edge9" class="edge">
<title>Node55&#45;&gt;Node10</title>
<path fill="none" stroke="#191970" d="M151.7632,-108.324C138.0356,-99.9002 116.9656,-86.9709 100.8376,-77.0741"/>
<polygon fill="#191970" stroke="#191970" points="102.3594,-73.9016 92.0055,-71.6545 98.6982,-79.8678 102.3594,-73.9016"/>
</g>
<!-- Node57&#45;&gt;Node1 -->
<g id="edge12" class="edge">
<title>Node57&#45;&gt;Node1</title>
<path fill="none" stroke="#191970" d="M222.6843,-162.1619C228.2156,-144.5918 240.6965,-104.9465 248.0926,-81.4532"/>
<polygon fill="#191970" stroke="#191970" points="251.5117,-82.2479 251.1761,-71.6584 244.8347,-80.1458 251.5117,-82.2479"/>
</g>
<!-- Node57&#45;&gt;Node55 -->
<g id="edge13" class="edge">
<title>Node57&#45;&gt;Node55</title>
<path fill="none" stroke="#191970" d="M210.9849,-162.083C203.1214,-154.2195 191.4707,-142.5688 181.9832,-133.0813"/>
<polygon fill="#191970" stroke="#191970" points="184.199,-130.3473 174.653,-125.7511 179.2492,-135.2971 184.199,-130.3473"/>
</g>
</g>
</svg>
