<?xml version="1.0" encoding="UTF-8" standalone="no"?>
<!DOCTYPE svg PUBLIC "-//W3C//DTD SVG 1.1//EN"
 "http://www.w3.org/Graphics/SVG/1.1/DTD/svg11.dtd">
<!-- Generated by graphviz version 2.40.1 (20161225.0304)
 -->
<!-- Title: THDMWEWPO.cpp Pages: 1 -->
<svg width="480pt" height="296pt"
 viewBox="0.00 0.00 480.00 296.00" xmlns="http://www.w3.org/2000/svg" xmlns:xlink="http://www.w3.org/1999/xlink">
<g id="graph0" class="graph" transform="scale(1 1) rotate(0) translate(4 292)">
<title>THDMWEWPO.cpp</title>
<!-- Node0 -->
<g id="node1" class="node">
<title>Node0</title>
<polygon fill="#bfbfbf" stroke="#000000" points="243,-270.5 243,-287.5 330,-287.5 330,-270.5 243,-270.5"/>
<text text-anchor="middle" x="286.5" y="-277.1" font-family="Helvetica,sans-Serif" font-size="8.00" fill="#000000">THDMWEWPO.cpp</text>
</g>
<!-- Node1 -->
<g id="node2" class="node">
<title>Node1</title>
<g id="a_node2"><a xlink:href="../../d2/d4d/_t_h_d_m_w_e_w_p_o_8h.html" target="_top" xlink:title="THDMWEWPO.h">
<polygon fill="none" stroke="#000000" points="102.5,-216.5 102.5,-233.5 180.5,-233.5 180.5,-216.5 102.5,-216.5"/>
<text text-anchor="middle" x="141.5" y="-223.1" font-family="Helvetica,sans-Serif" font-size="8.00" fill="#000000">THDMWEWPO.h</text>
</a>
</g>
</g>
<!-- Node0&#45;&gt;Node1 -->
<g id="edge1" class="edge">
<title>Node0&#45;&gt;Node1</title>
<path fill="none" stroke="#191970" d="M263.5243,-270.4435C239.343,-261.4381 201.0819,-247.1891 173.8539,-237.049"/>
<polygon fill="#191970" stroke="#191970" points="174.9609,-233.7265 164.3682,-233.5164 172.5179,-240.2864 174.9609,-233.7265"/>
</g>
<!-- Node5 -->
<g id="node4" class="node">
<title>Node5</title>
<g id="a_node4"><a xlink:href="../../d7/dfb/_t_h_d_m_w_8h.html" target="_top" xlink:title="THDMW.h">
<polygon fill="none" stroke="#ff0000" points="87.5,-54.5 87.5,-71.5 141.5,-71.5 141.5,-54.5 87.5,-54.5"/>
<text text-anchor="middle" x="114.5" y="-61.1" font-family="Helvetica,sans-Serif" font-size="8.00" fill="#000000">THDMW.h</text>
</a>
</g>
</g>
<!-- Node0&#45;&gt;Node5 -->
<g id="edge15" class="edge">
<title>Node0&#45;&gt;Node5</title>
<path fill="none" stroke="#191970" d="M289.849,-270.3815C299.8014,-243.1851 326.1787,-158.0268 287.5,-108 271.034,-86.7031 197.4349,-73.6049 151.7007,-67.3738"/>
<polygon fill="#191970" stroke="#191970" points="151.9314,-63.8741 141.5608,-66.0421 151.0199,-70.8145 151.9314,-63.8741"/>
</g>
<!-- Node6 -->
<g id="node5" class="node">
<title>Node6</title>
<g id="a_node5"><a xlink:href="../../d6/d0a/_standard_model_8h.html" target="_top" xlink:title="StandardModel.h">
<polygon fill="none" stroke="#ff0000" points="0,-.5 0,-17.5 77,-17.5 77,-.5 0,-.5"/>
<text text-anchor="middle" x="38.5" y="-7.1" font-family="Helvetica,sans-Serif" font-size="8.00" fill="#000000">StandardModel.h</text>
</a>
</g>
</g>
<!-- Node0&#45;&gt;Node6 -->
<g id="edge12" class="edge">
<title>Node0&#45;&gt;Node6</title>
<path fill="none" stroke="#191970" d="M242.7514,-271.8469C162.6343,-257.5014 .5,-222.1511 .5,-171 .5,-171 .5,-171 .5,-117 .5,-83.5201 16.9506,-47.3427 28.2041,-26.5113"/>
<polygon fill="#191970" stroke="#191970" points="31.3661,-28.0288 33.2163,-17.5968 25.2644,-24.5982 31.3661,-28.0288"/>
</g>
<!-- Node56 -->
<g id="node6" class="node">
<title>Node56</title>
<g id="a_node6"><a xlink:href="../../d2/de6/_t_h_d_m_wcache_8h.html" target="_top" xlink:title="THDMWcache.h">
<polygon fill="none" stroke="#ff0000" points="196,-162.5 196,-179.5 271,-179.5 271,-162.5 196,-162.5"/>
<text text-anchor="middle" x="233.5" y="-169.1" font-family="Helvetica,sans-Serif" font-size="8.00" fill="#000000">THDMWcache.h</text>
</a>
</g>
</g>
<!-- Node0&#45;&gt;Node56 -->
<g id="edge11" class="edge">
<title>Node0&#45;&gt;Node56</title>
<path fill="none" stroke="#191970" d="M282.1628,-270.1619C273.4624,-252.4328 253.7318,-212.2271 242.2447,-188.8193"/>
<polygon fill="#191970" stroke="#191970" points="245.2966,-187.0937 237.749,-179.6584 239.0125,-190.1776 245.2966,-187.0937"/>
</g>
<!-- Node59 -->
<g id="node9" class="node">
<title>Node59</title>
<polygon fill="none" stroke="#bfbfbf" points="334.5,-216.5 334.5,-233.5 412.5,-233.5 412.5,-216.5 334.5,-216.5"/>
<text text-anchor="middle" x="373.5" y="-223.1" font-family="Helvetica,sans-Serif" font-size="8.00" fill="#000000">gsl/gsl_sf_dilog.h</text>
</g>
<!-- Node0&#45;&gt;Node59 -->
<g id="edge13" class="edge">
<title>Node0&#45;&gt;Node59</title>
<path fill="none" stroke="#191970" d="M300.4781,-270.324C314.0496,-261.9002 334.8802,-248.9709 350.825,-239.0741"/>
<polygon fill="#191970" stroke="#191970" points="352.906,-241.9019 359.5566,-233.6545 349.2144,-235.9544 352.906,-241.9019"/>
</g>
<!-- Node30 -->
<g id="node10" class="node">
<title>Node30</title>
<polygon fill="none" stroke="#bfbfbf" points="431,-216.5 431,-233.5 472,-233.5 472,-216.5 431,-216.5"/>
<text text-anchor="middle" x="451.5" y="-223.1" font-family="Helvetica,sans-Serif" font-size="8.00" fill="#000000">math.h</text>
</g>
<!-- Node0&#45;&gt;Node30 -->
<g id="edge14" class="edge">
<title>Node0&#45;&gt;Node30</title>
<path fill="none" stroke="#191970" d="M312.6447,-270.4435C342.0356,-260.8247 389.7051,-245.2238 420.8308,-235.0372"/>
<polygon fill="#191970" stroke="#191970" points="422.2866,-238.2435 430.7019,-231.8067 420.1093,-231.5907 422.2866,-238.2435"/>
</g>
<!-- Node2 -->
<g id="node3" class="node">
<title>Node2</title>
<g id="a_node3"><a xlink:href="../../dd/dcd/_th_observable_8h.html" target="_top" xlink:title="ThObservable.h">
<polygon fill="none" stroke="#ff0000" points="105,-162.5 105,-179.5 178,-179.5 178,-162.5 105,-162.5"/>
<text text-anchor="middle" x="141.5" y="-169.1" font-family="Helvetica,sans-Serif" font-size="8.00" fill="#000000">ThObservable.h</text>
</a>
</g>
</g>
<!-- Node1&#45;&gt;Node2 -->
<g id="edge2" class="edge">
<title>Node1&#45;&gt;Node2</title>
<path fill="none" stroke="#191970" d="M141.5,-216.083C141.5,-209.0059 141.5,-198.8611 141.5,-189.9865"/>
<polygon fill="#191970" stroke="#191970" points="145.0001,-189.751 141.5,-179.7511 138.0001,-189.7511 145.0001,-189.751"/>
</g>
<!-- Node1&#45;&gt;Node5 -->
<g id="edge3" class="edge">
<title>Node1&#45;&gt;Node5</title>
<path fill="none" stroke="#191970" d="M127.7135,-216.1887C116.674,-208.2415 101.998,-195.4469 95.5,-180 81.5288,-146.7879 95.5565,-104.276 105.8191,-80.7213"/>
<polygon fill="#191970" stroke="#191970" points="109.0154,-82.148 110.0249,-71.6013 102.6588,-79.2165 109.0154,-82.148"/>
</g>
<!-- Node1&#45;&gt;Node6 -->
<g id="edge10" class="edge">
<title>Node1&#45;&gt;Node6</title>
<path fill="none" stroke="#191970" d="M127.0191,-216.4484C114.7658,-208.4909 97.6277,-195.5405 87.5,-180 55.5242,-130.9343 44.0334,-60.7247 40.2248,-27.6226"/>
<polygon fill="#191970" stroke="#191970" points="43.6937,-27.1409 39.177,-17.557 36.7313,-27.8657 43.6937,-27.1409"/>
</g>
<!-- Node1&#45;&gt;Node56 -->
<g id="edge5" class="edge">
<title>Node1&#45;&gt;Node56</title>
<path fill="none" stroke="#191970" d="M156.2814,-216.324C170.7671,-207.8215 193.0731,-194.7288 209.9932,-184.7975"/>
<polygon fill="#191970" stroke="#191970" points="211.9028,-187.735 218.7553,-179.6545 208.3594,-181.6981 211.9028,-187.735"/>
</g>
<!-- Node5&#45;&gt;Node6 -->
<g id="edge4" class="edge">
<title>Node5&#45;&gt;Node6</title>
<path fill="none" stroke="#191970" d="M102.2893,-54.324C90.7241,-46.1066 73.1246,-33.6017 59.3393,-23.8069"/>
<polygon fill="#191970" stroke="#191970" points="61.112,-20.7729 50.9329,-17.8339 57.0575,-26.4791 61.112,-20.7729"/>
</g>
<!-- Node56&#45;&gt;Node5 -->
<g id="edge7" class="edge">
<title>Node56&#45;&gt;Node5</title>
<path fill="none" stroke="#191970" d="M196.0481,-162.3907C174.9673,-155.7389 149.7017,-144.4566 133.5,-126 122.784,-113.7925 118.1104,-95.7107 116.0729,-82.0458"/>
<polygon fill="#191970" stroke="#191970" points="119.5186,-81.3704 114.9066,-71.8321 112.5638,-82.1647 119.5186,-81.3704"/>
</g>
<!-- Node49 -->
<g id="node7" class="node">
<title>Node49</title>
<polygon fill="none" stroke="#bfbfbf" points="142.5,-108.5 142.5,-125.5 180.5,-125.5 180.5,-108.5 142.5,-108.5"/>
<text text-anchor="middle" x="161.5" y="-115.1" font-family="Helvetica,sans-Serif" font-size="8.00" fill="#000000">cmath</text>
</g>
<!-- Node56&#45;&gt;Node49 -->
<g id="edge6" class="edge">
<title>Node56&#45;&gt;Node49</title>
<path fill="none" stroke="#191970" d="M221.932,-162.324C211.0798,-154.1849 194.6193,-141.8395 181.6166,-132.0874"/>
<polygon fill="#191970" stroke="#191970" points="183.3786,-129.0339 173.2785,-125.8339 179.1785,-134.6339 183.3786,-129.0339"/>
</g>
<!-- Node57 -->
<g id="node8" class="node">
<title>Node57</title>
<g id="a_node8"><a xlink:href="../../d6/d28/_runner_t_h_d_m_w_8h.html" target="_top" xlink:title="RunnerTHDMW.h">
<polygon fill="none" stroke="#000000" points="198.5,-108.5 198.5,-125.5 278.5,-125.5 278.5,-108.5 198.5,-108.5"/>
<text text-anchor="middle" x="238.5" y="-115.1" font-family="Helvetica,sans-Serif" font-size="8.00" fill="#000000">RunnerTHDMW.h</text>
</a>
</g>
</g>
<!-- Node56&#45;&gt;Node57 -->
<g id="edge8" class="edge">
<title>Node56&#45;&gt;Node57</title>
<path fill="none" stroke="#191970" d="M234.3256,-162.083C234.9809,-155.0059 235.9203,-144.8611 236.742,-135.9865"/>
<polygon fill="#191970" stroke="#191970" points="240.2527,-136.0312 237.6897,-125.7511 233.2826,-135.3858 240.2527,-136.0312"/>
</g>
<!-- Node57&#45;&gt;Node5 -->
<g id="edge9" class="edge">
<title>Node57&#45;&gt;Node5</title>
<path fill="none" stroke="#191970" d="M218.8518,-108.4435C198.5355,-99.5961 166.5972,-85.6875 143.4023,-75.5865"/>
<polygon fill="#191970" stroke="#191970" points="144.6221,-72.3002 134.0562,-71.5164 141.8271,-78.7181 144.6221,-72.3002"/>
</g>
</g>
</svg>
