<?xml version="1.0" encoding="UTF-8" standalone="no"?>
<!DOCTYPE svg PUBLIC "-//W3C//DTD SVG 1.1//EN"
 "http://www.w3.org/Graphics/SVG/1.1/DTD/svg11.dtd">
<!-- Generated by graphviz version 2.38.0 (20140413.2041)
 -->
<!-- Title: Rlepton.h Pages: 1 -->
<svg width="167pt" height="134pt"
 viewBox="0.00 0.00 166.50 134.00" xmlns="http://www.w3.org/2000/svg" xmlns:xlink="http://www.w3.org/1999/xlink">
<g id="graph0" class="graph" transform="scale(1 1) rotate(0) translate(4 130)">
<title>Rlepton.h</title>
<!-- Node1 -->
<g id="node1" class="node"><title>Node1</title>
<polygon fill="#bfbfbf" stroke="black" points="59.5,-108.5 59.5,-125.5 110.5,-125.5 110.5,-108.5 59.5,-108.5"/>
<text text-anchor="middle" x="85" y="-115.1" font-family="Helvetica,sans-Serif" font-size="8.00">Rlepton.h</text>
</g>
<!-- Node2 -->
<g id="node2" class="node"><title>Node2</title>
<g id="a_node2"><a xlink:href="../../dd/df3/_e_w_observables_8h.html" target="_top" xlink:title="A header file for the observables defined in EW module. ">
<polygon fill="none" stroke="black" points="0.5,-54.5 0.5,-71.5 81.5,-71.5 81.5,-54.5 0.5,-54.5"/>
<text text-anchor="middle" x="41" y="-61.1" font-family="Helvetica,sans-Serif" font-size="8.00">EWObservables.h</text>
</a>
</g>
</g>
<!-- Node1&#45;&gt;Node2 -->
<g id="edge1" class="edge"><title>Node1&#45;&gt;Node2</title>
<path fill="none" stroke="midnightblue" d="M71.8213,-100.425C63.7977,-90.9428 53.898,-79.2431 47.519,-71.7043"/>
<polygon fill="midnightblue" stroke="midnightblue" points="69.3763,-102.954 78.5076,-108.327 74.7201,-98.4325 69.3763,-102.954"/>
</g>
<!-- Node4 -->
<g id="node4" class="node"><title>Node4</title>
<g id="a_node4"><a xlink:href="../../d2/d00/_rlepton_8cpp.html" target="_top" xlink:title="Rlepton.cpp">
<polygon fill="none" stroke="black" points="99.5,-54.5 99.5,-71.5 158.5,-71.5 158.5,-54.5 99.5,-54.5"/>
<text text-anchor="middle" x="129" y="-61.1" font-family="Helvetica,sans-Serif" font-size="8.00">Rlepton.cpp</text>
</a>
</g>
</g>
<!-- Node1&#45;&gt;Node4 -->
<g id="edge3" class="edge"><title>Node1&#45;&gt;Node4</title>
<path fill="none" stroke="midnightblue" d="M98.1787,-100.425C106.202,-90.9428 116.102,-79.2431 122.481,-71.7043"/>
<polygon fill="midnightblue" stroke="midnightblue" points="95.2799,-98.4325 91.4924,-108.327 100.624,-102.954 95.2799,-98.4325"/>
</g>
<!-- Node3 -->
<g id="node3" class="node"><title>Node3</title>
<g id="a_node3"><a xlink:href="../../d1/de2/_th_obs_factory_8cpp.html" target="_top" xlink:title="ThObsFactory.cpp">
<polygon fill="none" stroke="black" points="0,-0.5 0,-17.5 82,-17.5 82,-0.5 0,-0.5"/>
<text text-anchor="middle" x="41" y="-7.1" font-family="Helvetica,sans-Serif" font-size="8.00">ThObsFactory.cpp</text>
</a>
</g>
</g>
<!-- Node2&#45;&gt;Node3 -->
<g id="edge2" class="edge"><title>Node2&#45;&gt;Node3</title>
<path fill="none" stroke="midnightblue" d="M41,-44.0621C41,-35.0603 41,-24.6277 41,-17.7043"/>
<polygon fill="midnightblue" stroke="midnightblue" points="37.5001,-44.3272 41,-54.3272 44.5001,-44.3273 37.5001,-44.3272"/>
</g>
</g>
</svg>
