<?xml version="1.0" encoding="UTF-8" standalone="no"?>
<!DOCTYPE svg PUBLIC "-//W3C//DTD SVG 1.1//EN"
 "http://www.w3.org/Graphics/SVG/1.1/DTD/svg11.dtd">
<!-- Generated by graphviz version 2.40.1 (20161225.0304)
 -->
<!-- Title: BasicObserver.hpp Pages: 1 -->
<svg width="422pt" height="242pt"
 viewBox="0.00 0.00 422.00 242.00" xmlns="http://www.w3.org/2000/svg" xmlns:xlink="http://www.w3.org/1999/xlink">
<g id="graph0" class="graph" transform="scale(1 1) rotate(0) translate(4 238)">
<title>BasicObserver.hpp</title>
<!-- Node2 -->
<g id="node1" class="node">
<title>Node2</title>
<polygon fill="#bfbfbf" stroke="#000000" points="170.5,-216.5 170.5,-233.5 255.5,-233.5 255.5,-216.5 170.5,-216.5"/>
<text text-anchor="middle" x="213" y="-223.1" font-family="Helvetica,sans-Serif" font-size="8.00" fill="#000000">BasicObserver.hpp</text>
</g>
<!-- Node3 -->
<g id="node2" class="node">
<title>Node3</title>
<g id="a_node2"><a xlink:href="../../da/dab/_basic_observed_8hpp.html" target="_top" xlink:title="BasicObserved.hpp">
<polygon fill="none" stroke="#000000" points="226,-162.5 226,-179.5 312,-179.5 312,-162.5 226,-162.5"/>
<text text-anchor="middle" x="269" y="-169.1" font-family="Helvetica,sans-Serif" font-size="8.00" fill="#000000">BasicObserved.hpp</text>
</a>
</g>
</g>
<!-- Node2&#45;&gt;Node3 -->
<g id="edge1" class="edge">
<title>Node2&#45;&gt;Node3</title>
<path fill="none" stroke="#191970" d="M229.3299,-209.2533C239.265,-199.6731 251.5875,-187.7906 259.8389,-179.8339"/>
<polygon fill="#191970" stroke="#191970" points="226.7664,-206.8631 221.9974,-216.324 231.6253,-211.902 226.7664,-206.8631"/>
</g>
<!-- Node4 -->
<g id="node3" class="node">
<title>Node4</title>
<g id="a_node3"><a xlink:href="../../d8/d14/_b_o_llib_8hpp.html" target="_top" xlink:title="BOLlib.hpp">
<polygon fill="none" stroke="#ff0000" points="129,-108.5 129,-125.5 185,-125.5 185,-108.5 129,-108.5"/>
<text text-anchor="middle" x="157" y="-115.1" font-family="Helvetica,sans-Serif" font-size="8.00" fill="#000000">BOLlib.hpp</text>
</a>
</g>
</g>
<!-- Node2&#45;&gt;Node4 -->
<g id="edge9" class="edge">
<title>Node2&#45;&gt;Node4</title>
<path fill="none" stroke="#191970" d="M169.6033,-213.6967C140.3845,-205.108 105.6616,-192.6507 97,-180 82.1525,-158.3146 115.2068,-137.0034 137.9056,-125.5758"/>
<polygon fill="#191970" stroke="#191970" points="168.6788,-217.0725 179.2557,-216.4557 170.6027,-210.3421 168.6788,-217.0725"/>
</g>
<!-- Node157 -->
<g id="node9" class="node">
<title>Node157</title>
<g id="a_node9"><a xlink:href="../../dc/d8d/_pushed_to_observer_8hpp.html" target="_top" xlink:title="PushedToObserver.hpp">
<polygon fill="none" stroke="#ff0000" points="106.5,-162.5 106.5,-179.5 207.5,-179.5 207.5,-162.5 106.5,-162.5"/>
<text text-anchor="middle" x="157" y="-169.1" font-family="Helvetica,sans-Serif" font-size="8.00" fill="#000000">PushedToObserver.hpp</text>
</a>
</g>
</g>
<!-- Node2&#45;&gt;Node157 -->
<g id="edge10" class="edge">
<title>Node2&#45;&gt;Node157</title>
<path fill="none" stroke="#191970" d="M196.6701,-209.2533C186.735,-199.6731 174.4125,-187.7906 166.1611,-179.8339"/>
<polygon fill="#191970" stroke="#191970" points="194.3747,-211.902 204.0026,-216.324 199.2336,-206.8631 194.3747,-211.902"/>
</g>
<!-- Node159 -->
<g id="node10" class="node">
<title>Node159</title>
<g id="a_node10"><a xlink:href="../../d2/dd3/_basic_observer_8cpp.html" target="_top" xlink:title="BasicObserver.cpp">
<polygon fill="none" stroke="#000000" points="330,-162.5 330,-179.5 414,-179.5 414,-162.5 330,-162.5"/>
<text text-anchor="middle" x="372" y="-169.1" font-family="Helvetica,sans-Serif" font-size="8.00" fill="#000000">BasicObserver.cpp</text>
</a>
</g>
</g>
<!-- Node2&#45;&gt;Node159 -->
<g id="edge12" class="edge">
<title>Node2&#45;&gt;Node159</title>
<path fill="none" stroke="#191970" d="M247.8268,-213.172C277.7663,-203.0039 320.2215,-188.5852 346.9238,-179.5164"/>
<polygon fill="#191970" stroke="#191970" points="246.5373,-209.9136 238.194,-216.4435 248.7884,-216.5417 246.5373,-209.9136"/>
</g>
<!-- Node3&#45;&gt;Node4 -->
<g id="edge2" class="edge">
<title>Node3&#45;&gt;Node4</title>
<path fill="none" stroke="#191970" d="M241.7513,-157.8622C220.9835,-147.8492 192.9766,-134.3458 174.9501,-125.6545"/>
<polygon fill="#191970" stroke="#191970" points="240.4775,-161.1336 251.0053,-162.324 243.5176,-154.8282 240.4775,-161.1336"/>
</g>
<!-- Node156 -->
<g id="node8" class="node">
<title>Node156</title>
<g id="a_node8"><a xlink:href="../../d3/d3d/_basic_observed_8cpp.html" target="_top" xlink:title="BasicObserved.cpp">
<polygon fill="none" stroke="#000000" points="226,-108.5 226,-125.5 312,-125.5 312,-108.5 226,-108.5"/>
<text text-anchor="middle" x="269" y="-115.1" font-family="Helvetica,sans-Serif" font-size="8.00" fill="#000000">BasicObserved.cpp</text>
</a>
</g>
</g>
<!-- Node3&#45;&gt;Node156 -->
<g id="edge8" class="edge">
<title>Node3&#45;&gt;Node156</title>
<path fill="none" stroke="#191970" d="M269,-151.8045C269,-142.9102 269,-132.7798 269,-125.7511"/>
<polygon fill="#191970" stroke="#191970" points="265.5001,-152.083 269,-162.083 272.5001,-152.083 265.5001,-152.083"/>
</g>
<!-- Node5 -->
<g id="node4" class="node">
<title>Node5</title>
<g id="a_node4"><a xlink:href="../../d4/d01/_object_line_8hpp.html" target="_top" xlink:title="ObjectLine.hpp">
<polygon fill="none" stroke="#ff0000" points="0,-54.5 0,-71.5 70,-71.5 70,-54.5 0,-54.5"/>
<text text-anchor="middle" x="35" y="-61.1" font-family="Helvetica,sans-Serif" font-size="8.00" fill="#000000">ObjectLine.hpp</text>
</a>
</g>
</g>
<!-- Node4&#45;&gt;Node5 -->
<g id="edge3" class="edge">
<title>Node4&#45;&gt;Node5</title>
<path fill="none" stroke="#191970" d="M128.4605,-104.3678C105.6137,-94.2553 74.1949,-80.3486 54.2408,-71.5164"/>
<polygon fill="#191970" stroke="#191970" points="127.1078,-107.5965 137.6687,-108.4435 129.9411,-101.1955 127.1078,-107.5965"/>
</g>
<!-- Node29 -->
<g id="node5" class="node">
<title>Node29</title>
<g id="a_node5"><a xlink:href="../../d0/dcd/_particle_line_8hpp.html" target="_top" xlink:title="ParticleLine.hpp">
<polygon fill="none" stroke="#ff0000" points="88,-54.5 88,-71.5 162,-71.5 162,-54.5 88,-54.5"/>
<text text-anchor="middle" x="125" y="-61.1" font-family="Helvetica,sans-Serif" font-size="8.00" fill="#000000">ParticleLine.hpp</text>
</a>
</g>
</g>
<!-- Node4&#45;&gt;Node29 -->
<g id="edge4" class="edge">
<title>Node4&#45;&gt;Node29</title>
<path fill="none" stroke="#191970" d="M146.4961,-99.2747C141.0269,-90.0454 134.5824,-79.1703 130.1858,-71.7511"/>
<polygon fill="#191970" stroke="#191970" points="143.6068,-101.2644 151.7159,-108.083 149.6288,-97.6957 143.6068,-101.2644"/>
</g>
<!-- Node30 -->
<g id="node6" class="node">
<title>Node30</title>
<g id="a_node6"><a xlink:href="../../d7/db8/_lhef_event_8hpp.html" target="_top" xlink:title="LhefEvent.hpp">
<polygon fill="none" stroke="#ff0000" points="123,-.5 123,-17.5 191,-17.5 191,-.5 123,-.5"/>
<text text-anchor="middle" x="157" y="-7.1" font-family="Helvetica,sans-Serif" font-size="8.00" fill="#000000">LhefEvent.hpp</text>
</a>
</g>
</g>
<!-- Node4&#45;&gt;Node30 -->
<g id="edge7" class="edge">
<title>Node4&#45;&gt;Node30</title>
<path fill="none" stroke="#191970" d="M164.0545,-98.7399C166.8096,-90.6749 169.6325,-80.999 171,-72 173.9626,-52.5042 166.2345,-30.0378 161.115,-17.9002"/>
<polygon fill="#191970" stroke="#191970" points="160.7347,-97.6278 160.6,-108.2218 167.3118,-100.0241 160.7347,-97.6278"/>
</g>
<!-- Node28 -->
<g id="node7" class="node">
<title>Node28</title>
<g id="a_node7"><a xlink:href="../../da/d4b/_lhco_parser_8hpp.html" target="_top" xlink:title="LhcoParser.hpp">
<polygon fill="none" stroke="#ff0000" points="218.5,-54.5 218.5,-71.5 291.5,-71.5 291.5,-54.5 218.5,-54.5"/>
<text text-anchor="middle" x="255" y="-61.1" font-family="Helvetica,sans-Serif" font-size="8.00" fill="#000000">LhcoParser.hpp</text>
</a>
</g>
</g>
<!-- Node4&#45;&gt;Node28 -->
<g id="edge6" class="edge">
<title>Node4&#45;&gt;Node28</title>
<path fill="none" stroke="#191970" d="M181.5861,-103.4526C199.6781,-93.4835 223.7346,-80.2279 239.2937,-71.6545"/>
<polygon fill="#191970" stroke="#191970" points="179.8147,-100.4324 172.7454,-108.324 183.1929,-106.5633 179.8147,-100.4324"/>
</g>
<!-- Node29&#45;&gt;Node30 -->
<g id="edge5" class="edge">
<title>Node29&#45;&gt;Node30</title>
<path fill="none" stroke="#191970" d="M135.5039,-45.2747C140.9731,-36.0454 147.4176,-25.1703 151.8142,-17.7511"/>
<polygon fill="#191970" stroke="#191970" points="132.3712,-43.6957 130.2841,-54.083 138.3932,-47.2644 132.3712,-43.6957"/>
</g>
<!-- Node157&#45;&gt;Node4 -->
<g id="edge11" class="edge">
<title>Node157&#45;&gt;Node4</title>
<path fill="none" stroke="#191970" d="M157,-151.8045C157,-142.9102 157,-132.7798 157,-125.7511"/>
<polygon fill="#191970" stroke="#191970" points="153.5001,-152.083 157,-162.083 160.5001,-152.083 153.5001,-152.083"/>
</g>
</g>
</svg>
