<?xml version="1.0" encoding="UTF-8" standalone="no"?>
<!DOCTYPE svg PUBLIC "-//W3C//DTD SVG 1.1//EN"
 "http://www.w3.org/Graphics/SVG/1.1/DTD/svg11.dtd">
<!-- Generated by graphviz version 2.40.1 (20161225.0304)
 -->
<!-- Title: SUSYScalarPotential Pages: 1 -->
<svg width="623pt" height="509pt"
 viewBox="0.00 0.00 623.00 508.93" xmlns="http://www.w3.org/2000/svg" xmlns:xlink="http://www.w3.org/1999/xlink">
<g id="graph0" class="graph" transform="scale(1 1) rotate(0) translate(4 504.9282)">
<title>SUSYScalarPotential</title>
<!-- Node1 -->
<g id="node1" class="node">
<title>Node1</title>
<polygon fill="#bfbfbf" stroke="#000000" points="523,-278.4282 523,-295.4282 615,-295.4282 615,-278.4282 523,-278.4282"/>
<text text-anchor="middle" x="569" y="-285.0282" font-family="Helvetica,sans-Serif" font-size="8.00" fill="#000000">SUSYScalarPotential</text>
</g>
<!-- Node2 -->
<g id="node2" class="node">
<title>Node2</title>
<g id="a_node2"><a xlink:href="../../dc/d6f/class_s_u_s_y.html" target="_top" xlink:title="A base class for SUSY models. ">
<polygon fill="none" stroke="#000000" points="380,-294.4282 380,-311.4282 418,-311.4282 418,-294.4282 380,-294.4282"/>
<text text-anchor="middle" x="399" y="-301.0282" font-family="Helvetica,sans-Serif" font-size="8.00" fill="#000000">SUSY</text>
</a>
</g>
</g>
<!-- Node2&#45;&gt;Node1 -->
<g id="edge1" class="edge">
<title>Node2&#45;&gt;Node1</title>
<path fill="none" stroke="#9a32cd" stroke-dasharray="5,2" d="M425.9184,-290.6661C429.2574,-289.5493 432.6689,-288.5908 436,-287.9282 464.4224,-282.275 496.9413,-281.9243 522.7096,-283.0357"/>
<polygon fill="#9a32cd" stroke="#9a32cd" points="424.3623,-287.5139 416.2714,-294.3541 426.862,-294.0524 424.3623,-287.5139"/>
<text text-anchor="middle" x="470.5" y="-290.5282" font-family="Helvetica,sans-Serif" font-size="8.00" fill="#000000"> mySUSY</text>
</g>
<!-- Node51 -->
<g id="node10" class="node">
<title>Node51</title>
<g id="a_node10"><a xlink:href="../../d4/d6e/class_s_u_s_y_spectrum.html" target="_top" xlink:title="A class for calculating the Higgs and sparticle spectra at tree level. ">
<polygon fill="none" stroke="#000000" points="532.5,-342.4282 532.5,-359.4282 605.5,-359.4282 605.5,-342.4282 532.5,-342.4282"/>
<text text-anchor="middle" x="569" y="-349.0282" font-family="Helvetica,sans-Serif" font-size="8.00" fill="#000000">SUSYSpectrum</text>
</a>
</g>
</g>
<!-- Node2&#45;&gt;Node51 -->
<g id="edge12" class="edge">
<title>Node2&#45;&gt;Node51</title>
<path fill="none" stroke="#9a32cd" stroke-dasharray="5,2" d="M428.3179,-305.3101C449.8999,-307.6179 479.7546,-311.9791 505,-319.9282 522.7817,-325.5272 541.8532,-335.3065 554.5063,-342.3867"/>
<polygon fill="#9a32cd" stroke="#9a32cd" points="428.4445,-301.8058 418.1496,-304.3089 427.7585,-308.7721 428.4445,-301.8058"/>
<text text-anchor="middle" x="470.5" y="-322.5282" font-family="Helvetica,sans-Serif" font-size="8.00" fill="#000000"> mySUSY</text>
</g>
<!-- Node3 -->
<g id="node3" class="node">
<title>Node3</title>
<g id="a_node3"><a xlink:href="../../dc/dd5/class_standard_model.html" target="_top" xlink:title="A model class for the Standard Model. ">
<polygon fill="none" stroke="#ff0000" points="204.5,-217.4282 204.5,-234.4282 275.5,-234.4282 275.5,-217.4282 204.5,-217.4282"/>
<text text-anchor="middle" x="240" y="-224.0282" font-family="Helvetica,sans-Serif" font-size="8.00" fill="#000000">StandardModel</text>
</a>
</g>
</g>
<!-- Node3&#45;&gt;Node2 -->
<g id="edge2" class="edge">
<title>Node3&#45;&gt;Node2</title>
<path fill="none" stroke="#191970" d="M280.7228,-237.5364C305.2834,-245.5096 336.6226,-257.4512 362,-272.9282 372.1669,-279.1288 382.6031,-287.8459 389.7887,-294.2865"/>
<polygon fill="#191970" stroke="#191970" points="281.58,-234.1369 270.9904,-234.4679 279.4751,-240.813 281.58,-234.1369"/>
</g>
<!-- Node4 -->
<g id="node4" class="node">
<title>Node4</title>
<g id="a_node4"><a xlink:href="../../dd/dfa/class_q_c_d.html" target="_top" xlink:title="A class for parameters related to QCD, hadrons and quarks. ">
<polygon fill="none" stroke="#ff0000" points="27,-217.4282 27,-234.4282 61,-234.4282 61,-217.4282 27,-217.4282"/>
<text text-anchor="middle" x="44" y="-224.0282" font-family="Helvetica,sans-Serif" font-size="8.00" fill="#000000">QCD</text>
</a>
</g>
</g>
<!-- Node4&#45;&gt;Node3 -->
<g id="edge3" class="edge">
<title>Node4&#45;&gt;Node3</title>
<path fill="none" stroke="#191970" d="M71.3899,-225.9282C106.1529,-225.9282 166.1878,-225.9282 204.4509,-225.9282"/>
<polygon fill="#191970" stroke="#191970" points="71.0509,-222.4283 61.0508,-225.9282 71.0508,-229.4283 71.0509,-222.4283"/>
</g>
<!-- Node22 -->
<g id="node5" class="node">
<title>Node22</title>
<g id="a_node5"><a xlink:href="../../dd/d9b/classgslpp_1_1complex.html" target="_top" xlink:title="A class for defining operations on and functions of complex numbers. ">
<polygon fill="none" stroke="#000000" points="9,-344.4282 9,-361.4282 79,-361.4282 79,-344.4282 9,-344.4282"/>
<text text-anchor="middle" x="44" y="-351.0282" font-family="Helvetica,sans-Serif" font-size="8.00" fill="#000000">gslpp::complex</text>
</a>
</g>
</g>
<!-- Node22&#45;&gt;Node2 -->
<g id="edge8" class="edge">
<title>Node22&#45;&gt;Node2</title>
<path fill="none" stroke="#9a32cd" stroke-dasharray="5,2" d="M89.4531,-349.2674C140.0334,-344.9129 224.1141,-336.8374 296,-325.9282 325.5585,-321.4425 332.8851,-319.7214 362,-312.9282 367.832,-311.5675 374.1365,-309.9276 379.8604,-308.3729"/>
<polygon fill="#9a32cd" stroke="#9a32cd" points="88.8526,-345.8058 79.1848,-350.1399 89.4452,-352.7806 88.8526,-345.8058"/>
<text text-anchor="middle" x="240" y="-369.5282" font-family="Helvetica,sans-Serif" font-size="8.00" fill="#000000"> saeff</text>
<text text-anchor="middle" x="240" y="-360.5282" font-family="Helvetica,sans-Serif" font-size="8.00" fill="#000000">m1</text>
<text text-anchor="middle" x="240" y="-351.5282" font-family="Helvetica,sans-Serif" font-size="8.00" fill="#000000">m2</text>
<text text-anchor="middle" x="240" y="-342.5282" font-family="Helvetica,sans-Serif" font-size="8.00" fill="#000000">muH</text>
</g>
<!-- Node22&#45;&gt;Node3 -->
<g id="edge4" class="edge">
<title>Node22&#45;&gt;Node3</title>
<path fill="none" stroke="#9a32cd" stroke-dasharray="5,2" d="M60.1172,-337.2397C84.8678,-313.9177 134.5764,-270.0537 184,-243.9282 191.1324,-240.158 199.1957,-237.0006 206.936,-234.4368"/>
<polygon fill="#9a32cd" stroke="#9a32cd" points="57.5321,-334.8688 52.7168,-344.3061 62.3663,-339.9314 57.5321,-334.8688"/>
<text text-anchor="middle" x="136" y="-306.5282" font-family="Helvetica,sans-Serif" font-size="8.00" fill="#000000"> rhoZ_f_cache</text>
<text text-anchor="middle" x="136" y="-297.5282" font-family="Helvetica,sans-Serif" font-size="8.00" fill="#000000">kappaZ_f_cache</text>
</g>
<!-- Node22&#45;&gt;Node51 -->
<g id="edge13" class="edge">
<title>Node22&#45;&gt;Node51</title>
<path fill="none" stroke="#9a32cd" stroke-dasharray="5,2" d="M61.6317,-368.1065C86.9156,-388.9899 135.7611,-426.1288 184,-444.9282 281.8033,-483.0437 319.1196,-512.1551 418,-476.9282 485.2208,-452.9803 543.327,-384.1535 562.3971,-359.6883"/>
<polygon fill="#9a32cd" stroke="#9a32cd" points="63.6194,-365.2053 53.7107,-361.4544 59.1177,-370.5658 63.6194,-365.2053"/>
<text text-anchor="middle" x="338" y="-494.5282" font-family="Helvetica,sans-Serif" font-size="8.00" fill="#000000"> saeff</text>
</g>
<!-- Node29 -->
<g id="node6" class="node">
<title>Node29</title>
<g id="a_node6"><a xlink:href="../../d1/d3c/classgslpp_1_1matrix.html" target="_top" xlink:title="gslpp::matrix\&lt; gslpp\l::complex \&gt;">
<polygon fill="none" stroke="#ff0000" points="0,-86.9282 0,-112.9282 88,-112.9282 88,-86.9282 0,-86.9282"/>
<text text-anchor="start" x="8" y="-102.5282" font-family="Helvetica,sans-Serif" font-size="8.00" fill="#000000">gslpp::matrix&lt; gslpp</text>
<text text-anchor="middle" x="44" y="-93.5282" font-family="Helvetica,sans-Serif" font-size="8.00" fill="#000000">::complex &gt;</text>
</a>
</g>
</g>
<!-- Node29&#45;&gt;Node2 -->
<g id="edge10" class="edge">
<title>Node29&#45;&gt;Node2</title>
<path fill="none" stroke="#9a32cd" stroke-dasharray="5,2" d="M98.5055,-87.1309C152.8464,-77.5557 236.5592,-71.7276 296,-108.9282 366.4677,-153.0301 391.6115,-262.7018 397.5233,-294.2888"/>
<polygon fill="#9a32cd" stroke="#9a32cd" points="97.5685,-83.7451 88.3792,-89.0184 98.8512,-90.6266 97.5685,-83.7451"/>
<text text-anchor="middle" x="240" y="-201.5282" font-family="Helvetica,sans-Serif" font-size="8.00" fill="#000000"> U</text>
<text text-anchor="middle" x="240" y="-192.5282" font-family="Helvetica,sans-Serif" font-size="8.00" fill="#000000">Rd</text>
<text text-anchor="middle" x="240" y="-183.5282" font-family="Helvetica,sans-Serif" font-size="8.00" fill="#000000">Ru</text>
<text text-anchor="middle" x="240" y="-174.5282" font-family="Helvetica,sans-Serif" font-size="8.00" fill="#000000">V</text>
<text text-anchor="middle" x="240" y="-165.5282" font-family="Helvetica,sans-Serif" font-size="8.00" fill="#000000">Rdresum</text>
<text text-anchor="middle" x="240" y="-156.5282" font-family="Helvetica,sans-Serif" font-size="8.00" fill="#000000">TEhat</text>
<text text-anchor="middle" x="240" y="-147.5282" font-family="Helvetica,sans-Serif" font-size="8.00" fill="#000000">TDhat</text>
<text text-anchor="middle" x="240" y="-138.5282" font-family="Helvetica,sans-Serif" font-size="8.00" fill="#000000">TUhat</text>
<text text-anchor="middle" x="240" y="-129.5282" font-family="Helvetica,sans-Serif" font-size="8.00" fill="#000000">msDhat2</text>
<text text-anchor="middle" x="240" y="-120.5282" font-family="Helvetica,sans-Serif" font-size="8.00" fill="#000000">msUhat2</text>
<text text-anchor="middle" x="240" y="-111.5282" font-family="Helvetica,sans-Serif" font-size="8.00" fill="#000000">...</text>
</g>
<!-- Node29&#45;&gt;Node3 -->
<g id="edge5" class="edge">
<title>Node29&#45;&gt;Node3</title>
<path fill="none" stroke="#9a32cd" stroke-dasharray="5,2" d="M72.912,-118.608C98.18,-135.3276 135.4927,-160.9831 166,-185.9282 174.5187,-192.8938 174.7553,-196.9599 184,-202.9282 193.0949,-208.7999 203.9366,-213.6699 213.6471,-217.3938"/>
<polygon fill="#9a32cd" stroke="#9a32cd" points="74.7863,-115.6516 64.5077,-113.0825 70.9408,-121.5007 74.7863,-115.6516"/>
<text text-anchor="middle" x="136" y="-215.5282" font-family="Helvetica,sans-Serif" font-size="8.00" fill="#000000"> Yn</text>
<text text-anchor="middle" x="136" y="-206.5282" font-family="Helvetica,sans-Serif" font-size="8.00" fill="#000000">Yd</text>
<text text-anchor="middle" x="136" y="-197.5282" font-family="Helvetica,sans-Serif" font-size="8.00" fill="#000000">Yu</text>
<text text-anchor="middle" x="136" y="-188.5282" font-family="Helvetica,sans-Serif" font-size="8.00" fill="#000000">Ye</text>
</g>
<!-- Node29&#45;&gt;Node51 -->
<g id="edge15" class="edge">
<title>Node29&#45;&gt;Node51</title>
<path fill="none" stroke="#9a32cd" stroke-dasharray="5,2" d="M70.2481,-80.9466C127.1228,-42.3486 264.4581,36.9992 362,-19.9282 424.8238,-56.5934 478.9896,-247.0124 523,-304.9282 533.7966,-319.1361 548.7885,-333.3285 558.6845,-342.1124"/>
<polygon fill="#9a32cd" stroke="#9a32cd" points="68.0663,-78.1998 61.8293,-86.7643 72.0459,-83.9586 68.0663,-78.1998"/>
<text text-anchor="middle" x="338" y="-112.5282" font-family="Helvetica,sans-Serif" font-size="8.00" fill="#000000"> Msup2</text>
<text text-anchor="middle" x="338" y="-103.5282" font-family="Helvetica,sans-Serif" font-size="8.00" fill="#000000">U</text>
<text text-anchor="middle" x="338" y="-94.5282" font-family="Helvetica,sans-Serif" font-size="8.00" fill="#000000">Rd</text>
<text text-anchor="middle" x="338" y="-85.5282" font-family="Helvetica,sans-Serif" font-size="8.00" fill="#000000">Ru</text>
<text text-anchor="middle" x="338" y="-76.5282" font-family="Helvetica,sans-Serif" font-size="8.00" fill="#000000">Mselectron2</text>
<text text-anchor="middle" x="338" y="-67.5282" font-family="Helvetica,sans-Serif" font-size="8.00" fill="#000000">V</text>
<text text-anchor="middle" x="338" y="-58.5282" font-family="Helvetica,sans-Serif" font-size="8.00" fill="#000000">Mchargino</text>
<text text-anchor="middle" x="338" y="-49.5282" font-family="Helvetica,sans-Serif" font-size="8.00" fill="#000000">Mneutralino</text>
<text text-anchor="middle" x="338" y="-40.5282" font-family="Helvetica,sans-Serif" font-size="8.00" fill="#000000">Rl</text>
<text text-anchor="middle" x="338" y="-31.5282" font-family="Helvetica,sans-Serif" font-size="8.00" fill="#000000">Msneutrino2</text>
<text text-anchor="middle" x="338" y="-22.5282" font-family="Helvetica,sans-Serif" font-size="8.00" fill="#000000">...</text>
</g>
<!-- Node46 -->
<g id="node7" class="node">
<title>Node46</title>
<g id="a_node7"><a xlink:href="../../d5/d76/class_matching.html" target="_top" xlink:title="Matching\&lt; SUSYMatching,\l SUSY \&gt;">
<polygon fill="none" stroke="#ff0000" points="184,-289.9282 184,-315.9282 296,-315.9282 296,-289.9282 184,-289.9282"/>
<text text-anchor="start" x="192" y="-305.5282" font-family="Helvetica,sans-Serif" font-size="8.00" fill="#000000">Matching&lt; SUSYMatching,</text>
<text text-anchor="middle" x="240" y="-296.5282" font-family="Helvetica,sans-Serif" font-size="8.00" fill="#000000"> SUSY &gt;</text>
</a>
</g>
</g>
<!-- Node46&#45;&gt;Node2 -->
<g id="edge6" class="edge">
<title>Node46&#45;&gt;Node2</title>
<path fill="none" stroke="#9a32cd" stroke-dasharray="5,2" d="M306.1149,-302.9282C332.6864,-302.9282 361.3119,-302.9282 379.6538,-302.9282"/>
<polygon fill="#9a32cd" stroke="#9a32cd" points="306.0575,-299.4283 296.0575,-302.9282 306.0574,-306.4283 306.0575,-299.4283"/>
<text text-anchor="middle" x="338" y="-305.5282" font-family="Helvetica,sans-Serif" font-size="8.00" fill="#000000"> SUSYM</text>
</g>
<!-- Node50 -->
<g id="node8" class="node">
<title>Node50</title>
<g id="a_node8"><a xlink:href="../../da/df7/class_e_w_s_u_s_y.html" target="_top" xlink:title="A class for SUSY contributions to the EW precision observables. ">
<polygon fill="none" stroke="#000000" points="214.5,-253.4282 214.5,-270.4282 265.5,-270.4282 265.5,-253.4282 214.5,-253.4282"/>
<text text-anchor="middle" x="240" y="-260.0282" font-family="Helvetica,sans-Serif" font-size="8.00" fill="#000000">EWSUSY</text>
</a>
</g>
</g>
<!-- Node50&#45;&gt;Node2 -->
<g id="edge7" class="edge">
<title>Node50&#45;&gt;Node2</title>
<path fill="none" stroke="#9a32cd" stroke-dasharray="5,2" d="M275.8382,-269.0464C300.2927,-274.1732 333.3237,-281.6282 362,-289.9282 367.8861,-291.6319 374.2066,-293.7444 379.9286,-295.7678"/>
<polygon fill="#9a32cd" stroke="#9a32cd" points="276.4221,-265.5931 265.9206,-266.996 275.0048,-272.4482 276.4221,-265.5931"/>
<text text-anchor="middle" x="338" y="-292.5282" font-family="Helvetica,sans-Serif" font-size="8.00" fill="#000000"> myEWSUSY</text>
</g>
<!-- Node49 -->
<g id="node9" class="node">
<title>Node49</title>
<g id="a_node9"><a xlink:href="../../d6/d73/classgslpp_1_1vector_3_01double_01_4.html" target="_top" xlink:title="A class for constructing and defining operations on real vectors. ">
<polygon fill="none" stroke="#000000" points="190,-418.4282 190,-435.4282 290,-435.4282 290,-418.4282 190,-418.4282"/>
<text text-anchor="middle" x="240" y="-425.0282" font-family="Helvetica,sans-Serif" font-size="8.00" fill="#000000">gslpp::vector&lt; double &gt;</text>
</a>
</g>
</g>
<!-- Node49&#45;&gt;Node2 -->
<g id="edge9" class="edge">
<title>Node49&#45;&gt;Node2</title>
<path fill="none" stroke="#9a32cd" stroke-dasharray="5,2" d="M268.2227,-413.5515C277.8112,-408.0841 288.0899,-401.106 296,-392.9282 307.3449,-381.1995 302.0897,-372.0824 314,-360.9282 331.2664,-344.758 342.5058,-351.329 362,-337.9282 373.2214,-330.2144 384.3315,-319.1155 391.4035,-311.4958"/>
<polygon fill="#9a32cd" stroke="#9a32cd" points="266.4956,-410.5061 259.341,-418.3203 269.8071,-416.6734 266.4956,-410.5061"/>
<text text-anchor="middle" x="338" y="-417.5282" font-family="Helvetica,sans-Serif" font-size="8.00" fill="#000000"> mneu</text>
<text text-anchor="middle" x="338" y="-408.5282" font-family="Helvetica,sans-Serif" font-size="8.00" fill="#000000">m_sn2</text>
<text text-anchor="middle" x="338" y="-399.5282" font-family="Helvetica,sans-Serif" font-size="8.00" fill="#000000">m_se2</text>
<text text-anchor="middle" x="338" y="-390.5282" font-family="Helvetica,sans-Serif" font-size="8.00" fill="#000000">m_sd2</text>
<text text-anchor="middle" x="338" y="-381.5282" font-family="Helvetica,sans-Serif" font-size="8.00" fill="#000000">m_su2</text>
<text text-anchor="middle" x="338" y="-372.5282" font-family="Helvetica,sans-Serif" font-size="8.00" fill="#000000">m_sdresum2</text>
<text text-anchor="middle" x="338" y="-363.5282" font-family="Helvetica,sans-Serif" font-size="8.00" fill="#000000">mch</text>
</g>
<!-- Node49&#45;&gt;Node51 -->
<g id="edge14" class="edge">
<title>Node49&#45;&gt;Node51</title>
<path fill="none" stroke="#9a32cd" stroke-dasharray="5,2" d="M300.3446,-429.1824C320.1269,-428.9296 342.126,-427.5819 362,-423.9282 434.5212,-410.5957 515.6747,-375.7116 550.9778,-359.473"/>
<polygon fill="#9a32cd" stroke="#9a32cd" points="300.2113,-425.6827 290.2248,-429.2211 300.2382,-432.6827 300.2113,-425.6827"/>
<text text-anchor="middle" x="399" y="-466.5282" font-family="Helvetica,sans-Serif" font-size="8.00" fill="#000000"> mneu</text>
<text text-anchor="middle" x="399" y="-457.5282" font-family="Helvetica,sans-Serif" font-size="8.00" fill="#000000">m_sn2</text>
<text text-anchor="middle" x="399" y="-448.5282" font-family="Helvetica,sans-Serif" font-size="8.00" fill="#000000">m_se2</text>
<text text-anchor="middle" x="399" y="-439.5282" font-family="Helvetica,sans-Serif" font-size="8.00" fill="#000000">m_sd2</text>
<text text-anchor="middle" x="399" y="-430.5282" font-family="Helvetica,sans-Serif" font-size="8.00" fill="#000000">m_su2</text>
<text text-anchor="middle" x="399" y="-421.5282" font-family="Helvetica,sans-Serif" font-size="8.00" fill="#000000">mch</text>
</g>
<!-- Node51&#45;&gt;Node2 -->
<g id="edge11" class="edge">
<title>Node51&#45;&gt;Node2</title>
<path fill="none" stroke="#9a32cd" stroke-dasharray="5,2" d="M522.2076,-348.3221C496.0655,-345.6165 463.347,-340.1129 436,-328.9282 425.8266,-324.7674 415.7147,-317.3816 408.6396,-311.5425"/>
<polygon fill="#9a32cd" stroke="#9a32cd" points="521.9607,-351.8142 532.2426,-349.2584 522.6111,-344.8445 521.9607,-351.8142"/>
<text text-anchor="middle" x="470.5" y="-348.5282" font-family="Helvetica,sans-Serif" font-size="8.00" fill="#000000"> mySUSYSpectrum</text>
</g>
</g>
</svg>
