<?xml version="1.0" encoding="UTF-8" standalone="no"?>
<!DOCTYPE svg PUBLIC "-//W3C//DTD SVG 1.1//EN"
 "http://www.w3.org/Graphics/SVG/1.1/DTD/svg11.dtd">
<!-- Generated by graphviz version 2.40.1 (20161225.0304)
 -->
<!-- Title: TwoDimensionalDataPlotter.cpp Pages: 1 -->
<svg width="370pt" height="242pt"
 viewBox="0.00 0.00 370.00 242.00" xmlns="http://www.w3.org/2000/svg" xmlns:xlink="http://www.w3.org/1999/xlink">
<g id="graph0" class="graph" transform="scale(1 1) rotate(0) translate(4 238)">
<title>TwoDimensionalDataPlotter.cpp</title>
<!-- Node0 -->
<g id="node1" class="node">
<title>Node0</title>
<polygon fill="#bfbfbf" stroke="#000000" points="79,-216.5 79,-233.5 210,-233.5 210,-216.5 79,-216.5"/>
<text text-anchor="middle" x="144.5" y="-223.1" font-family="Helvetica,sans-Serif" font-size="8.00" fill="#000000">TwoDimensionalDataPlotter.cpp</text>
</g>
<!-- Node1 -->
<g id="node2" class="node">
<title>Node1</title>
<g id="a_node2"><a xlink:href="../../d2/d4b/_two_dimensional_data_plotter_8hpp.html" target="_top" xlink:title="TwoDimensionalDataPlotter.hpp">
<polygon fill="none" stroke="#000000" points="79,-162.5 79,-179.5 210,-179.5 210,-162.5 79,-162.5"/>
<text text-anchor="middle" x="144.5" y="-169.1" font-family="Helvetica,sans-Serif" font-size="8.00" fill="#000000">TwoDimensionalDataPlotter.hpp</text>
</a>
</g>
</g>
<!-- Node0&#45;&gt;Node1 -->
<g id="edge1" class="edge">
<title>Node0&#45;&gt;Node1</title>
<path fill="none" stroke="#191970" d="M144.5,-216.083C144.5,-209.0059 144.5,-198.8611 144.5,-189.9865"/>
<polygon fill="#191970" stroke="#191970" points="148.0001,-189.751 144.5,-179.7511 141.0001,-189.7511 148.0001,-189.751"/>
</g>
<!-- Node2 -->
<g id="node3" class="node">
<title>Node2</title>
<polygon fill="none" stroke="#bfbfbf" points="0,-108.5 0,-125.5 47,-125.5 47,-108.5 0,-108.5"/>
<text text-anchor="middle" x="23.5" y="-115.1" font-family="Helvetica,sans-Serif" font-size="8.00" fill="#000000">iostream</text>
</g>
<!-- Node1&#45;&gt;Node2 -->
<g id="edge2" class="edge">
<title>Node1&#45;&gt;Node2</title>
<path fill="none" stroke="#191970" d="M125.3272,-162.4435C105.5909,-153.6356 74.6148,-139.8116 52.0066,-129.722"/>
<polygon fill="#191970" stroke="#191970" points="53.1414,-126.3957 42.5831,-125.5164 50.2886,-132.788 53.1414,-126.3957"/>
</g>
<!-- Node3 -->
<g id="node4" class="node">
<title>Node3</title>
<polygon fill="none" stroke="#bfbfbf" points="65,-108.5 65,-125.5 108,-125.5 108,-108.5 65,-108.5"/>
<text text-anchor="middle" x="86.5" y="-115.1" font-family="Helvetica,sans-Serif" font-size="8.00" fill="#000000">fstream</text>
</g>
<!-- Node1&#45;&gt;Node3 -->
<g id="edge3" class="edge">
<title>Node1&#45;&gt;Node3</title>
<path fill="none" stroke="#191970" d="M135.1813,-162.324C126.6074,-154.3414 113.6878,-142.3128 103.3124,-132.6529"/>
<polygon fill="#191970" stroke="#191970" points="105.6922,-130.0865 95.9883,-125.8339 100.9223,-135.2098 105.6922,-130.0865"/>
</g>
<!-- Node4 -->
<g id="node5" class="node">
<title>Node4</title>
<polygon fill="none" stroke="#bfbfbf" points="126.5,-108.5 126.5,-125.5 162.5,-125.5 162.5,-108.5 126.5,-108.5"/>
<text text-anchor="middle" x="144.5" y="-115.1" font-family="Helvetica,sans-Serif" font-size="8.00" fill="#000000">string</text>
</g>
<!-- Node1&#45;&gt;Node4 -->
<g id="edge4" class="edge">
<title>Node1&#45;&gt;Node4</title>
<path fill="none" stroke="#191970" d="M144.5,-162.083C144.5,-155.0059 144.5,-144.8611 144.5,-135.9865"/>
<polygon fill="#191970" stroke="#191970" points="148.0001,-135.751 144.5,-125.7511 141.0001,-135.7511 148.0001,-135.751"/>
</g>
<!-- Node5 -->
<g id="node6" class="node">
<title>Node5</title>
<g id="a_node6"><a xlink:href="../../d6/d44/_vectorlike_array_8hpp.html" target="_top" xlink:title="VectorlikeArray.hpp">
<polygon fill="none" stroke="#ff0000" points="197.5,-54.5 197.5,-71.5 283.5,-71.5 283.5,-54.5 197.5,-54.5"/>
<text text-anchor="middle" x="240.5" y="-61.1" font-family="Helvetica,sans-Serif" font-size="8.00" fill="#000000">VectorlikeArray.hpp</text>
</a>
</g>
</g>
<!-- Node1&#45;&gt;Node5 -->
<g id="edge5" class="edge">
<title>Node1&#45;&gt;Node5</title>
<path fill="none" stroke="#191970" d="M152.3561,-162.1619C168.4687,-144.0353 205.4664,-102.4128 226.0373,-79.2706"/>
<polygon fill="#191970" stroke="#191970" points="228.7759,-81.4578 232.8037,-71.6584 223.5441,-76.8072 228.7759,-81.4578"/>
</g>
<!-- Node10 -->
<g id="node10" class="node">
<title>Node10</title>
<g id="a_node10"><a xlink:href="../../de/d2b/_waiting_on_subprocess_executor_8hpp.html" target="_top" xlink:title="WaitingOnSubprocessExecutor.hpp">
<polygon fill="none" stroke="#ff0000" points="219,-108.5 219,-125.5 362,-125.5 362,-108.5 219,-108.5"/>
<text text-anchor="middle" x="290.5" y="-115.1" font-family="Helvetica,sans-Serif" font-size="8.00" fill="#000000">WaitingOnSubprocessExecutor.hpp</text>
</a>
</g>
</g>
<!-- Node1&#45;&gt;Node10 -->
<g id="edge9" class="edge">
<title>Node1&#45;&gt;Node10</title>
<path fill="none" stroke="#191970" d="M167.6341,-162.4435C191.9822,-153.4381 230.5071,-139.1891 257.923,-129.049"/>
<polygon fill="#191970" stroke="#191970" points="259.3092,-132.2681 267.4741,-125.5164 256.8809,-125.7028 259.3092,-132.2681"/>
</g>
<!-- Node6 -->
<g id="node7" class="node">
<title>Node6</title>
<polygon fill="none" stroke="#bfbfbf" points="158,-.5 158,-17.5 197,-17.5 197,-.5 158,-.5"/>
<text text-anchor="middle" x="177.5" y="-7.1" font-family="Helvetica,sans-Serif" font-size="8.00" fill="#000000">cstdlib</text>
</g>
<!-- Node5&#45;&gt;Node6 -->
<g id="edge6" class="edge">
<title>Node5&#45;&gt;Node6</title>
<path fill="none" stroke="#191970" d="M230.378,-54.324C220.9736,-46.2631 206.7559,-34.0765 195.431,-24.3695"/>
<polygon fill="#191970" stroke="#191970" points="197.6766,-21.6844 187.8062,-17.8339 193.121,-26.9993 197.6766,-21.6844"/>
</g>
<!-- Node7 -->
<g id="node8" class="node">
<title>Node7</title>
<polygon fill="none" stroke="#bfbfbf" points="215,-.5 215,-17.5 266,-17.5 266,-.5 215,-.5"/>
<text text-anchor="middle" x="240.5" y="-7.1" font-family="Helvetica,sans-Serif" font-size="8.00" fill="#000000">stdexcept</text>
</g>
<!-- Node5&#45;&gt;Node7 -->
<g id="edge7" class="edge">
<title>Node5&#45;&gt;Node7</title>
<path fill="none" stroke="#191970" d="M240.5,-54.083C240.5,-47.0059 240.5,-36.8611 240.5,-27.9865"/>
<polygon fill="#191970" stroke="#191970" points="244.0001,-27.751 240.5,-17.7511 237.0001,-27.7511 244.0001,-27.751"/>
</g>
<!-- Node8 -->
<g id="node9" class="node">
<title>Node8</title>
<polygon fill="none" stroke="#bfbfbf" points="284.5,-.5 284.5,-17.5 322.5,-17.5 322.5,-.5 284.5,-.5"/>
<text text-anchor="middle" x="303.5" y="-7.1" font-family="Helvetica,sans-Serif" font-size="8.00" fill="#000000">vector</text>
</g>
<!-- Node5&#45;&gt;Node8 -->
<g id="edge8" class="edge">
<title>Node5&#45;&gt;Node8</title>
<path fill="none" stroke="#191970" d="M250.622,-54.324C260.0264,-46.2631 274.2441,-34.0765 285.569,-24.3695"/>
<polygon fill="#191970" stroke="#191970" points="287.879,-26.9993 293.1938,-17.8339 283.3234,-21.6844 287.879,-26.9993"/>
</g>
<!-- Node10&#45;&gt;Node5 -->
<g id="edge10" class="edge">
<title>Node10&#45;&gt;Node5</title>
<path fill="none" stroke="#191970" d="M282.2435,-108.083C275.0353,-100.2982 264.3902,-88.8015 255.6542,-79.3665"/>
<polygon fill="#191970" stroke="#191970" points="257.9651,-76.7108 248.6028,-71.7511 252.8288,-81.4666 257.9651,-76.7108"/>
</g>
</g>
</svg>
