<?xml version="1.0" encoding="UTF-8" standalone="no"?>
<!DOCTYPE svg PUBLIC "-//W3C//DTD SVG 1.1//EN"
 "http://www.w3.org/Graphics/SVG/1.1/DTD/svg11.dtd">
<!-- Generated by graphviz version 2.40.1 (20161225.0304)
 -->
<!-- Title: Expanded.h Pages: 1 -->
<svg width="638pt" height="296pt"
 viewBox="0.00 0.00 637.50 296.00" xmlns="http://www.w3.org/2000/svg" xmlns:xlink="http://www.w3.org/1999/xlink">
<g id="graph0" class="graph" transform="scale(1 1) rotate(0) translate(4 292)">
<title>Expanded.h</title>
<!-- Node0 -->
<g id="node1" class="node">
<title>Node0</title>
<polygon fill="#bfbfbf" stroke="#000000" points="205.5,-270.5 205.5,-287.5 264.5,-287.5 264.5,-270.5 205.5,-270.5"/>
<text text-anchor="middle" x="235" y="-277.1" font-family="Helvetica,sans-Serif" font-size="8.00" fill="#000000">Expanded.h</text>
</g>
<!-- Node1 -->
<g id="node2" class="node">
<title>Node1</title>
<polygon fill="none" stroke="#bfbfbf" points="0,-216.5 0,-233.5 38,-233.5 38,-216.5 0,-216.5"/>
<text text-anchor="middle" x="19" y="-223.1" font-family="Helvetica,sans-Serif" font-size="8.00" fill="#000000">cmath</text>
</g>
<!-- Node0&#45;&gt;Node1 -->
<g id="edge1" class="edge">
<title>Node0&#45;&gt;Node1</title>
<path fill="none" stroke="#191970" d="M205.1894,-272.5999C169.8536,-264.8538 109.009,-251.015 48.0091,-234.1268"/>
<polygon fill="#191970" stroke="#191970" points="48.7946,-230.7122 38.2215,-231.3906 46.9099,-237.4538 48.7946,-230.7122"/>
</g>
<!-- Node2 -->
<g id="node3" class="node">
<title>Node2</title>
<polygon fill="none" stroke="#bfbfbf" points="56,-216.5 56,-233.5 94,-233.5 94,-216.5 56,-216.5"/>
<text text-anchor="middle" x="75" y="-223.1" font-family="Helvetica,sans-Serif" font-size="8.00" fill="#000000">vector</text>
</g>
<!-- Node0&#45;&gt;Node2 -->
<g id="edge2" class="edge">
<title>Node0&#45;&gt;Node2</title>
<path fill="none" stroke="#191970" d="M209.6475,-270.4435C180.8307,-260.7178 133.8929,-244.8764 103.7398,-234.6997"/>
<polygon fill="#191970" stroke="#191970" points="104.802,-231.3643 94.2078,-231.4826 102.5635,-237.9967 104.802,-231.3643"/>
</g>
<!-- Node3 -->
<g id="node4" class="node">
<title>Node3</title>
<polygon fill="none" stroke="#bfbfbf" points="290.5,-.5 290.5,-17.5 337.5,-17.5 337.5,-.5 290.5,-.5"/>
<text text-anchor="middle" x="314" y="-7.1" font-family="Helvetica,sans-Serif" font-size="8.00" fill="#000000">iostream</text>
</g>
<!-- Node0&#45;&gt;Node3 -->
<g id="edge3" class="edge">
<title>Node0&#45;&gt;Node3</title>
<path fill="none" stroke="#191970" d="M214.0104,-270.3924C181.3316,-255.4325 122,-221.3396 122,-171 122,-171 122,-171 122,-117 122,-45.1414 225.4264,-20.5863 280.4601,-12.6069"/>
<polygon fill="#191970" stroke="#191970" points="281.0128,-16.0642 290.457,-11.2624 280.0797,-9.1266 281.0128,-16.0642"/>
</g>
<!-- Node4 -->
<g id="node5" class="node">
<title>Node4</title>
<polygon fill="none" stroke="#bfbfbf" points="578.5,-216.5 578.5,-233.5 629.5,-233.5 629.5,-216.5 578.5,-216.5"/>
<text text-anchor="middle" x="604" y="-223.1" font-family="Helvetica,sans-Serif" font-size="8.00" fill="#000000">stdexcept</text>
</g>
<!-- Node0&#45;&gt;Node4 -->
<g id="edge4" class="edge">
<title>Node0&#45;&gt;Node4</title>
<path fill="none" stroke="#191970" d="M264.6249,-275.8072C322.4323,-269.3874 454.2224,-253.8202 564,-234 565.4447,-233.7392 566.9163,-233.4619 568.401,-233.1726"/>
<polygon fill="#191970" stroke="#191970" points="569.1624,-236.5893 578.2451,-231.1345 567.7431,-229.7347 569.1624,-236.5893"/>
</g>
<!-- Node5 -->
<g id="node6" class="node">
<title>Node5</title>
<g id="a_node6"><a xlink:href="../../d1/dc2/gslpp__complex_8h.html" target="_top" xlink:title="gslpp_complex.h">
<polygon fill="none" stroke="#ff0000" points="309.5,-54.5 309.5,-71.5 386.5,-71.5 386.5,-54.5 309.5,-54.5"/>
<text text-anchor="middle" x="348" y="-61.1" font-family="Helvetica,sans-Serif" font-size="8.00" fill="#000000">gslpp_complex.h</text>
</a>
</g>
</g>
<!-- Node0&#45;&gt;Node5 -->
<g id="edge5" class="edge">
<title>Node0&#45;&gt;Node5</title>
<path fill="none" stroke="#191970" d="M264.516,-275.9016C298.624,-271.2185 355.3877,-259.947 397,-234 451.4957,-200.0196 470.1768,-186.0295 493,-126 495.843,-118.5222 497.745,-114.4409 493,-108 481.3892,-92.2396 434.4377,-79.6188 397.0647,-71.8001"/>
<polygon fill="#191970" stroke="#191970" points="397.3108,-68.2789 386.8149,-69.7235 395.9208,-75.1395 397.3108,-68.2789"/>
</g>
<!-- Node8 -->
<g id="node7" class="node">
<title>Node8</title>
<g id="a_node7"><a xlink:href="../../da/d8e/gslpp__vector__double_8h.html" target="_top" xlink:title="gslpp_vector_double.h">
<polygon fill="none" stroke="#ff0000" points="150.5,-108.5 150.5,-125.5 247.5,-125.5 247.5,-108.5 150.5,-108.5"/>
<text text-anchor="middle" x="199" y="-115.1" font-family="Helvetica,sans-Serif" font-size="8.00" fill="#000000">gslpp_vector_double.h</text>
</a>
</g>
</g>
<!-- Node0&#45;&gt;Node8 -->
<g id="edge7" class="edge">
<title>Node0&#45;&gt;Node8</title>
<path fill="none" stroke="#191970" d="M231.595,-270.4283C225.021,-253.469 210.6444,-214.3026 204,-180 201.1565,-165.3202 199.9235,-148.4161 199.3922,-135.816"/>
<polygon fill="#191970" stroke="#191970" points="202.885,-135.528 199.0753,-125.6418 195.8884,-135.746 202.885,-135.528"/>
</g>
<!-- Node11 -->
<g id="node8" class="node">
<title>Node11</title>
<g id="a_node8"><a xlink:href="../../da/dad/gslpp__vector__complex_8h.html" target="_top" xlink:title="gslpp_vector_complex.h">
<polygon fill="none" stroke="#ff0000" points="380.5,-108.5 380.5,-125.5 483.5,-125.5 483.5,-108.5 380.5,-108.5"/>
<text text-anchor="middle" x="432" y="-115.1" font-family="Helvetica,sans-Serif" font-size="8.00" fill="#000000">gslpp_vector_complex.h</text>
</a>
</g>
</g>
<!-- Node0&#45;&gt;Node11 -->
<g id="edge10" class="edge">
<title>Node0&#45;&gt;Node11</title>
<path fill="none" stroke="#191970" d="M264.5156,-276.4292C295.5939,-272.2985 344.3225,-261.5966 376,-234 406.1734,-207.7137 421.4404,-161.5446 427.9566,-135.7621"/>
<polygon fill="#191970" stroke="#191970" points="431.4205,-136.3207 430.2945,-125.7859 424.6051,-134.7235 431.4205,-136.3207"/>
</g>
<!-- Node13 -->
<g id="node9" class="node">
<title>Node13</title>
<g id="a_node9"><a xlink:href="../../d9/d25/gslpp__matrix__complex_8h.html" target="_top" xlink:title="gslpp_matrix_complex.h">
<polygon fill="none" stroke="#ff0000" points="263.5,-216.5 263.5,-233.5 366.5,-233.5 366.5,-216.5 263.5,-216.5"/>
<text text-anchor="middle" x="315" y="-223.1" font-family="Helvetica,sans-Serif" font-size="8.00" fill="#000000">gslpp_matrix_complex.h</text>
</a>
</g>
</g>
<!-- Node0&#45;&gt;Node13 -->
<g id="edge13" class="edge">
<title>Node0&#45;&gt;Node13</title>
<path fill="none" stroke="#191970" d="M247.8534,-270.324C260.2164,-261.979 279.1301,-249.2122 293.7372,-239.3524"/>
<polygon fill="#191970" stroke="#191970" points="295.8482,-242.1503 302.1785,-233.6545 291.9318,-236.3483 295.8482,-242.1503"/>
</g>
<!-- Node16 -->
<g id="node10" class="node">
<title>Node16</title>
<g id="a_node10"><a xlink:href="../../d0/ddb/gslpp__matrix__double_8h.html" target="_top" xlink:title="gslpp_matrix_double.h">
<polygon fill="none" stroke="#ff0000" points="227.5,-162.5 227.5,-179.5 324.5,-179.5 324.5,-162.5 227.5,-162.5"/>
<text text-anchor="middle" x="276" y="-169.1" font-family="Helvetica,sans-Serif" font-size="8.00" fill="#000000">gslpp_matrix_double.h</text>
</a>
</g>
</g>
<!-- Node0&#45;&gt;Node16 -->
<g id="edge24" class="edge">
<title>Node0&#45;&gt;Node16</title>
<path fill="none" stroke="#191970" d="M237.3708,-270.3179C240.8064,-258.0538 247.5752,-235.029 255,-216 258.5255,-206.9644 263.0079,-197.1799 266.9254,-189.0497"/>
<polygon fill="#191970" stroke="#191970" points="270.1939,-190.3346 271.4708,-179.8169 263.9137,-187.2427 270.1939,-190.3346"/>
</g>
<!-- Node5&#45;&gt;Node3 -->
<g id="edge6" class="edge">
<title>Node5&#45;&gt;Node3</title>
<path fill="none" stroke="#191970" d="M342.3856,-54.083C337.6326,-46.5341 330.6819,-35.4948 324.8484,-26.2298"/>
<polygon fill="#191970" stroke="#191970" points="327.7999,-24.3486 319.5099,-17.7511 321.8763,-28.0783 327.7999,-24.3486"/>
</g>
<!-- Node8&#45;&gt;Node3 -->
<g id="edge8" class="edge">
<title>Node8&#45;&gt;Node3</title>
<path fill="none" stroke="#191970" d="M207.3679,-108.2416C219.2587,-95.8868 241.8428,-72.755 262,-54 272.9257,-43.8343 285.5796,-32.8672 295.669,-24.305"/>
<polygon fill="#191970" stroke="#191970" points="298.0566,-26.8701 303.4468,-17.7488 293.545,-21.5179 298.0566,-26.8701"/>
</g>
<!-- Node8&#45;&gt;Node5 -->
<g id="edge9" class="edge">
<title>Node8&#45;&gt;Node5</title>
<path fill="none" stroke="#191970" d="M222.6095,-108.4435C247.4578,-99.4381 286.7744,-85.1891 314.7536,-75.049"/>
<polygon fill="#191970" stroke="#191970" points="316.2919,-78.2144 324.501,-71.5164 313.9068,-71.6332 316.2919,-78.2144"/>
</g>
<!-- Node11&#45;&gt;Node3 -->
<g id="edge11" class="edge">
<title>Node11&#45;&gt;Node3</title>
<path fill="none" stroke="#191970" d="M428.8136,-108.2797C423.6485,-95.1336 412.351,-70.0715 396,-54 381.8655,-40.1071 362.5707,-29.2331 346.2484,-21.6571"/>
<polygon fill="#191970" stroke="#191970" points="347.6037,-18.4295 337.043,-17.5797 344.7688,-24.8298 347.6037,-18.4295"/>
</g>
<!-- Node11&#45;&gt;Node5 -->
<g id="edge12" class="edge">
<title>Node11&#45;&gt;Node5</title>
<path fill="none" stroke="#191970" d="M418.5039,-108.324C405.4004,-99.9002 385.2881,-86.9709 369.8931,-77.0741"/>
<polygon fill="#191970" stroke="#191970" points="371.767,-74.118 361.4626,-71.6545 367.9817,-80.0063 371.767,-74.118"/>
</g>
<!-- Node13&#45;&gt;Node3 -->
<g id="edge14" class="edge">
<title>Node13&#45;&gt;Node3</title>
<path fill="none" stroke="#191970" d="M358.0392,-216.4713C420.1357,-201.9357 524.1841,-167.9577 493,-108 464.2524,-52.727 390.8423,-26.7173 347.4844,-15.8208"/>
<polygon fill="#191970" stroke="#191970" points="348.2134,-12.3966 337.6745,-13.4842 346.5914,-19.2061 348.2134,-12.3966"/>
</g>
<!-- Node13&#45;&gt;Node5 -->
<g id="edge15" class="edge">
<title>Node13&#45;&gt;Node5</title>
<path fill="none" stroke="#191970" d="M319.544,-216.2946C323.9688,-207.4143 330.5209,-193.1149 334,-180 342.9746,-146.1688 346.2065,-105.2982 347.3631,-81.9089"/>
<polygon fill="#191970" stroke="#191970" points="350.8704,-81.8063 347.7893,-71.6693 343.8764,-81.5151 350.8704,-81.8063"/>
</g>
<!-- Node13&#45;&gt;Node8 -->
<g id="edge16" class="edge">
<title>Node13&#45;&gt;Node8</title>
<path fill="none" stroke="#191970" d="M279.6045,-216.429C258.9645,-209.7215 233.938,-198.3685 218,-180 207.3544,-167.731 202.6731,-149.656 200.6147,-136.0093"/>
<polygon fill="#191970" stroke="#191970" points="204.0607,-135.3413 199.4292,-125.8124 197.1075,-136.1497 204.0607,-135.3413"/>
</g>
<!-- Node13&#45;&gt;Node11 -->
<g id="edge17" class="edge">
<title>Node13&#45;&gt;Node11</title>
<path fill="none" stroke="#191970" d="M325.5105,-216.2049C336.1229,-207.2549 352.9139,-192.9024 367,-180 384.0825,-164.353 403.0435,-145.8375 416.0559,-132.9447"/>
<polygon fill="#191970" stroke="#191970" points="418.6979,-135.2534 423.3193,-125.7196 413.7612,-130.2905 418.6979,-135.2534"/>
</g>
<!-- Node13&#45;&gt;Node16 -->
<g id="edge18" class="edge">
<title>Node13&#45;&gt;Node16</title>
<path fill="none" stroke="#191970" d="M303.3936,-216.083C296.4225,-208.6127 288.159,-197.7244 282.2875,-188.5199"/>
<polygon fill="#191970" stroke="#191970" points="285.2414,-186.6368 277.1892,-179.7511 279.1899,-190.1553 285.2414,-186.6368"/>
</g>
<!-- Node16&#45;&gt;Node3 -->
<g id="edge19" class="edge">
<title>Node16&#45;&gt;Node3</title>
<path fill="none" stroke="#191970" d="M277.614,-162.4377C281.3175,-143.0392 290.8886,-94.2927 301,-54 303.2295,-45.1156 306.0139,-35.3374 308.4332,-27.172"/>
<polygon fill="#191970" stroke="#191970" points="311.7901,-28.1624 311.3259,-17.5777 305.0881,-26.1416 311.7901,-28.1624"/>
</g>
<!-- Node16&#45;&gt;Node5 -->
<g id="edge20" class="edge">
<title>Node16&#45;&gt;Node5</title>
<path fill="none" stroke="#191970" d="M281.8921,-162.1619C293.8175,-144.2738 320.9973,-103.5041 336.5376,-80.1936"/>
<polygon fill="#191970" stroke="#191970" points="339.5929,-81.9204 342.2278,-71.6584 333.7685,-78.0374 339.5929,-81.9204"/>
</g>
<!-- Node16&#45;&gt;Node8 -->
<g id="edge21" class="edge">
<title>Node16&#45;&gt;Node8</title>
<path fill="none" stroke="#191970" d="M263.6286,-162.324C251.8415,-154.0577 233.8677,-141.4527 219.8645,-131.6322"/>
<polygon fill="#191970" stroke="#191970" points="221.5376,-128.5307 211.3407,-125.6545 217.5184,-134.2619 221.5376,-128.5307"/>
</g>
<!-- Node16&#45;&gt;Node11 -->
<g id="edge22" class="edge">
<title>Node16&#45;&gt;Node11</title>
<path fill="none" stroke="#191970" d="M300.7187,-162.4435C326.8485,-153.3986 368.2594,-139.064 397.5764,-128.9158"/>
<polygon fill="#191970" stroke="#191970" points="399.092,-132.0951 407.397,-125.5164 396.8022,-125.4801 399.092,-132.0951"/>
</g>
<!-- Node16&#45;&gt;Node13 -->
<g id="edge23" class="edge">
<title>Node16&#45;&gt;Node13</title>
<path fill="none" stroke="#191970" d="M287.4512,-179.7511C294.4029,-187.1703 302.6744,-198.0454 308.5812,-207.2747"/>
<polygon fill="#191970" stroke="#191970" points="305.6603,-209.2135 313.7263,-216.083 311.7047,-205.6828 305.6603,-209.2135"/>
</g>
</g>
</svg>
