<?xml version="1.0" encoding="UTF-8" standalone="no"?>
<!DOCTYPE svg PUBLIC "-//W3C//DTD SVG 1.1//EN"
 "http://www.w3.org/Graphics/SVG/1.1/DTD/svg11.dtd">
<!-- Generated by graphviz version 2.40.1 (20161225.0304)
 -->
<!-- Title: Hobs_pp_Hp_taunu_CMS8_GTHDM Pages: 1 -->
<svg width="482pt" height="297pt"
 viewBox="0.00 0.00 481.50 297.00" xmlns="http://www.w3.org/2000/svg" xmlns:xlink="http://www.w3.org/1999/xlink">
<g id="graph0" class="graph" transform="scale(1 1) rotate(0) translate(4 293)">
<title>Hobs_pp_Hp_taunu_CMS8_GTHDM</title>
<!-- Node2 -->
<g id="node1" class="node">
<title>Node2</title>
<polygon fill="#bfbfbf" stroke="#000000" points="0,-.5 0,-26.5 114,-26.5 114,-.5 0,-.5"/>
<text text-anchor="start" x="8" y="-16.1" font-family="Helvetica,sans-Serif" font-size="8.00" fill="#000000">Hobs_pp_Hp_taunu_CMS8</text>
<text text-anchor="middle" x="57" y="-7.1" font-family="Helvetica,sans-Serif" font-size="8.00" fill="#000000">_GTHDM</text>
</g>
<!-- Node3 -->
<g id="node2" class="node">
<title>Node3</title>
<g id="a_node2"><a xlink:href="../../dc/d1f/class_th_observable.html" target="_top" xlink:title="A class for a model prediction of an observable. ">
<polygon fill="none" stroke="#000000" points="7.5,-108.5 7.5,-125.5 74.5,-125.5 74.5,-108.5 7.5,-108.5"/>
<text text-anchor="middle" x="41" y="-115.1" font-family="Helvetica,sans-Serif" font-size="8.00" fill="#000000">ThObservable</text>
</a>
</g>
</g>
<!-- Node3&#45;&gt;Node2 -->
<g id="edge1" class="edge">
<title>Node3&#45;&gt;Node2</title>
<path fill="none" stroke="#191970" d="M43.9228,-98.0934C47.1152,-77.4421 52.1462,-44.8979 54.9461,-26.7859"/>
<polygon fill="#191970" stroke="#191970" points="40.4331,-97.7583 42.3642,-108.1756 47.3509,-98.8278 40.4331,-97.7583"/>
</g>
<!-- Node4 -->
<g id="node3" class="node">
<title>Node4</title>
<g id="a_node3"><a xlink:href="../../dc/dd5/class_standard_model.html" target="_top" xlink:title="A model class for the Standard Model. ">
<polygon fill="none" stroke="#ff0000" points="253.5,-216.5 253.5,-233.5 324.5,-233.5 324.5,-216.5 253.5,-216.5"/>
<text text-anchor="middle" x="289" y="-223.1" font-family="Helvetica,sans-Serif" font-size="8.00" fill="#000000">StandardModel</text>
</a>
</g>
</g>
<!-- Node4&#45;&gt;Node3 -->
<g id="edge2" class="edge">
<title>Node4&#45;&gt;Node3</title>
<path fill="none" stroke="#9a32cd" stroke-dasharray="5,2" d="M243.1832,-219.4413C184.3524,-211.4387 86.6559,-194.9522 60,-171 46.8415,-159.1762 42.7958,-137.6881 41.552,-125.6914"/>
<polygon fill="#9a32cd" stroke="#9a32cd" points="242.9619,-222.9425 253.3359,-220.7907 243.8843,-216.0036 242.9619,-222.9425"/>
<text text-anchor="middle" x="130.5" y="-191.6" font-family="Helvetica,sans-Serif" font-size="8.00" fill="#000000"> SM</text>
</g>
<!-- Node9 -->
<g id="node6" class="node">
<title>Node9</title>
<g id="a_node6"><a xlink:href="../../dc/df3/class_e_w_s_mcache.html" target="_top" xlink:title="A class for cache variables used in computing radiative corrections to the EW precision observables...">
<polygon fill="none" stroke="#ff0000" points="410.5,-149 410.5,-166 473.5,-166 473.5,-149 410.5,-149"/>
<text text-anchor="middle" x="442" y="-155.6" font-family="Helvetica,sans-Serif" font-size="8.00" fill="#000000">EWSMcache</text>
</a>
</g>
</g>
<!-- Node4&#45;&gt;Node9 -->
<g id="edge6" class="edge">
<title>Node4&#45;&gt;Node9</title>
<path fill="none" stroke="#9a32cd" stroke-dasharray="5,2" d="M317.646,-212.362C348.1807,-198.8909 395.713,-177.9207 422.2965,-166.1927"/>
<polygon fill="#9a32cd" stroke="#9a32cd" points="316.114,-209.2124 308.3776,-216.4511 318.9395,-215.6168 316.114,-209.2124"/>
<text text-anchor="middle" x="377.5" y="-191.6" font-family="Helvetica,sans-Serif" font-size="8.00" fill="#000000"> SM</text>
</g>
<!-- Node48 -->
<g id="node8" class="node">
<title>Node48</title>
<g id="a_node8"><a xlink:href="../../d2/df3/class_n_pbase.html" target="_top" xlink:title="The auxiliary base model class for other model classes. ">
<polygon fill="none" stroke="#000000" points="229.5,-149 229.5,-166 274.5,-166 274.5,-149 229.5,-149"/>
<text text-anchor="middle" x="252" y="-155.6" font-family="Helvetica,sans-Serif" font-size="8.00" fill="#000000">NPbase</text>
</a>
</g>
</g>
<!-- Node4&#45;&gt;Node48 -->
<g id="edge10" class="edge">
<title>Node4&#45;&gt;Node48</title>
<path fill="none" stroke="#191970" d="M259.4868,-210.8791C254.8692,-207.3354 250.7289,-203.0645 248,-198 242.6376,-188.048 245.5407,-174.7157 248.4721,-166.116"/>
<polygon fill="#191970" stroke="#191970" points="257.8206,-213.9705 268.1124,-216.4867 261.636,-208.1017 257.8206,-213.9705"/>
</g>
<!-- Node4&#45;&gt;Node48 -->
<g id="edge11" class="edge">
<title>Node4&#45;&gt;Node48</title>
<path fill="none" stroke="#9a32cd" stroke-dasharray="5,2" d="M274.8965,-208.3772C272.4217,-205.0561 270.0017,-201.5071 268,-198 262.0789,-187.6259 257.3719,-174.6301 254.6359,-166.2004"/>
<polygon fill="#9a32cd" stroke="#9a32cd" points="272.3586,-210.8087 281.3259,-216.4512 277.8345,-206.4481 272.3586,-210.8087"/>
<text text-anchor="middle" x="282.5" y="-191.6" font-family="Helvetica,sans-Serif" font-size="8.00" fill="#000000"> trueSM</text>
</g>
<!-- Node5 -->
<g id="node4" class="node">
<title>Node5</title>
<g id="a_node4"><a xlink:href="../../dd/dfa/class_q_c_d.html" target="_top" xlink:title="A class for parameters related to QCD, hadrons and quarks. ">
<polygon fill="none" stroke="#ff0000" points="272,-271.5 272,-288.5 306,-288.5 306,-271.5 272,-271.5"/>
<text text-anchor="middle" x="289" y="-278.1" font-family="Helvetica,sans-Serif" font-size="8.00" fill="#000000">QCD</text>
</a>
</g>
</g>
<!-- Node5&#45;&gt;Node4 -->
<g id="edge3" class="edge">
<title>Node5&#45;&gt;Node4</title>
<path fill="none" stroke="#191970" d="M289,-261.1166C289,-251.8173 289,-241.0557 289,-233.7149"/>
<polygon fill="#191970" stroke="#191970" points="285.5001,-261.4062 289,-271.4063 292.5001,-261.4063 285.5001,-261.4062"/>
</g>
<!-- Node8 -->
<g id="node5" class="node">
<title>Node8</title>
<g id="a_node5"><a xlink:href="../../db/d32/class_e_w_s_m_two_fermions_l_e_p2.html" target="_top" xlink:title="A class for the form factors , &#160;and &#160;in the processes &#160;at LEP&#45;II. ">
<polygon fill="none" stroke="#ff0000" points="297.5,-72.5 297.5,-89.5 406.5,-89.5 406.5,-72.5 297.5,-72.5"/>
<text text-anchor="middle" x="352" y="-79.1" font-family="Helvetica,sans-Serif" font-size="8.00" fill="#000000">EWSMTwoFermionsLEP2</text>
</a>
</g>
</g>
<!-- Node8&#45;&gt;Node4 -->
<g id="edge4" class="edge">
<title>Node8&#45;&gt;Node4</title>
<path fill="none" stroke="#9a32cd" stroke-dasharray="5,2" d="M342.7739,-98.7744C336.3934,-111.2955 327.8528,-128.5203 321,-144 309.4932,-169.9927 297.6292,-201.4925 292.1383,-216.3928"/>
<polygon fill="#9a32cd" stroke="#9a32cd" points="345.8951,-100.3582 347.3544,-89.8644 339.6695,-97.1578 345.8951,-100.3582"/>
<text text-anchor="middle" x="361.5" y="-155.6" font-family="Helvetica,sans-Serif" font-size="8.00" fill="#000000"> myTwoFermionsLEP2</text>
</g>
<!-- Node9&#45;&gt;Node4 -->
<g id="edge7" class="edge">
<title>Node9&#45;&gt;Node4</title>
<path fill="none" stroke="#9a32cd" stroke-dasharray="5,2" d="M425.201,-173.0638C415.3051,-181.5023 402.1744,-191.5038 389,-198 368.8392,-207.9411 344.5248,-214.6114 324.9198,-218.8349"/>
<polygon fill="#9a32cd" stroke="#9a32cd" points="427.8138,-175.4255 432.9846,-166.1781 423.1757,-170.1826 427.8138,-175.4255"/>
<text text-anchor="middle" x="433" y="-191.6" font-family="Helvetica,sans-Serif" font-size="8.00" fill="#000000"> myEWSMcache</text>
</g>
<!-- Node9&#45;&gt;Node8 -->
<g id="edge5" class="edge">
<title>Node9&#45;&gt;Node8</title>
<path fill="none" stroke="#9a32cd" stroke-dasharray="5,2" d="M423.9162,-142.1288C405.3726,-126.3667 377.1883,-102.4101 362.2037,-89.6732"/>
<polygon fill="#9a32cd" stroke="#9a32cd" points="421.7897,-144.9148 431.6759,-148.7245 426.3232,-139.5812 421.7897,-144.9148"/>
<text text-anchor="middle" x="414" y="-115.1" font-family="Helvetica,sans-Serif" font-size="8.00" fill="#000000"> cache</text>
</g>
<!-- Node47 -->
<g id="node7" class="node">
<title>Node47</title>
<g id="a_node7"><a xlink:href="../../d3/d55/class_general_t_h_d_m.html" target="_top" xlink:title="A base class for generic Two&#45;Higgs&#45;Doublet models. ">
<polygon fill="none" stroke="#000000" points="106,-72.5 106,-89.5 174,-89.5 174,-72.5 106,-72.5"/>
<text text-anchor="middle" x="140" y="-79.1" font-family="Helvetica,sans-Serif" font-size="8.00" fill="#000000">GeneralTHDM</text>
</a>
</g>
</g>
<!-- Node47&#45;&gt;Node2 -->
<g id="edge8" class="edge">
<title>Node47&#45;&gt;Node2</title>
<path fill="none" stroke="#9a32cd" stroke-dasharray="5,2" d="M109.3241,-67.9048C101.9393,-64.0091 94.3553,-59.3335 88,-54 78.7757,-46.2587 70.6032,-35.3124 64.9683,-26.7512"/>
<polygon fill="#9a32cd" stroke="#9a32cd" points="107.9474,-71.1283 118.464,-72.4128 111.0438,-64.8503 107.9474,-71.1283"/>
<text text-anchor="middle" x="109.5" y="-47.6" font-family="Helvetica,sans-Serif" font-size="8.00" fill="#000000"> myGTHDM</text>
</g>
<!-- Node51 -->
<g id="node10" class="node">
<title>Node51</title>
<g id="a_node10"><a xlink:href="../../dc/dfd/class_general_t_h_d_mcache.html" target="_top" xlink:title="GeneralTHDMcache">
<polygon fill="none" stroke="#ff0000" points="146.5,-5 146.5,-22 235.5,-22 235.5,-5 146.5,-5"/>
<text text-anchor="middle" x="191" y="-11.6" font-family="Helvetica,sans-Serif" font-size="8.00" fill="#000000">GeneralTHDMcache</text>
</a>
</g>
</g>
<!-- Node47&#45;&gt;Node51 -->
<g id="edge14" class="edge">
<title>Node47&#45;&gt;Node51</title>
<path fill="none" stroke="#9a32cd" stroke-dasharray="5,2" d="M134.4411,-62.5551C133.6718,-56.6218 133.9935,-50.2345 137,-45 143.1084,-34.365 154.3456,-26.9813 164.9936,-22.0507"/>
<polygon fill="#9a32cd" stroke="#9a32cd" points="131.0463,-63.4121 136.6597,-72.3977 137.875,-61.8728 131.0463,-63.4121"/>
<text text-anchor="middle" x="158.5" y="-47.6" font-family="Helvetica,sans-Serif" font-size="8.00" fill="#000000"> myGTHDM</text>
</g>
<!-- Node48&#45;&gt;Node47 -->
<g id="edge9" class="edge">
<title>Node48&#45;&gt;Node47</title>
<path fill="none" stroke="#191970" d="M232.2437,-142.8345C218.569,-132.8057 199.8658,-119.3291 183,-108 173.4875,-101.6102 162.5475,-94.7475 154.0829,-89.5399"/>
<polygon fill="#191970" stroke="#191970" points="230.3072,-145.7551 240.4339,-148.8697 234.4597,-140.1198 230.3072,-145.7551"/>
</g>
<!-- Node49 -->
<g id="node9" class="node">
<title>Node49</title>
<g id="a_node9"><a xlink:href="../../d5/d76/class_matching.html" target="_top" xlink:title="Matching\&lt; GeneralTHDMMatching,\l GeneralTHDM \&gt;">
<polygon fill="none" stroke="#ff0000" points="69,-144.5 69,-170.5 211,-170.5 211,-144.5 69,-144.5"/>
<text text-anchor="start" x="77" y="-160.1" font-family="Helvetica,sans-Serif" font-size="8.00" fill="#000000">Matching&lt; GeneralTHDMMatching,</text>
<text text-anchor="middle" x="140" y="-151.1" font-family="Helvetica,sans-Serif" font-size="8.00" fill="#000000"> GeneralTHDM &gt;</text>
</a>
</g>
</g>
<!-- Node49&#45;&gt;Node47 -->
<g id="edge12" class="edge">
<title>Node49&#45;&gt;Node47</title>
<path fill="none" stroke="#9a32cd" stroke-dasharray="5,2" d="M140,-134.0882C140,-119.1453 140,-100.6269 140,-89.8783"/>
<polygon fill="#9a32cd" stroke="#9a32cd" points="136.5001,-134.1747 140,-144.1747 143.5001,-134.1748 136.5001,-134.1747"/>
<text text-anchor="middle" x="159.5" y="-115.1" font-family="Helvetica,sans-Serif" font-size="8.00" fill="#000000"> GTHDMM</text>
</g>
<!-- Node51&#45;&gt;Node47 -->
<g id="edge13" class="edge">
<title>Node51&#45;&gt;Node47</title>
<path fill="none" stroke="#9a32cd" stroke-dasharray="5,2" d="M191.0133,-32.1479C190.2309,-39.4807 188.3076,-47.6463 184,-54 178.5683,-62.0118 169.8886,-68.069 161.668,-72.395"/>
<polygon fill="#9a32cd" stroke="#9a32cd" points="194.5167,-32.1533 191.4855,-22.0014 187.5243,-31.8278 194.5167,-32.1533"/>
<text text-anchor="middle" x="221" y="-47.6" font-family="Helvetica,sans-Serif" font-size="8.00" fill="#000000"> myGTHDMcache</text>
</g>
</g>
</svg>
