<?xml version="1.0" encoding="UTF-8" standalone="no"?>
<!DOCTYPE svg PUBLIC "-//W3C//DTD SVG 1.1//EN"
 "http://www.w3.org/Graphics/SVG/1.1/DTD/svg11.dtd">
<!-- Generated by graphviz version 2.38.0 (20140413.2041)
 -->
<!-- Title: gslpp_matrix_double.h Pages: 1 -->
<svg width="471pt" height="251pt"
 viewBox="0.00 0.00 471.00 251.00" xmlns="http://www.w3.org/2000/svg" xmlns:xlink="http://www.w3.org/1999/xlink">
<g id="graph0" class="graph" transform="scale(1 1) rotate(0) translate(4 247)">
<title>gslpp_matrix_double.h</title>
<!-- Node1 -->
<g id="node1" class="node"><title>Node1</title>
<polygon fill="#bfbfbf" stroke="black" points="213,-225.5 213,-242.5 310,-242.5 310,-225.5 213,-225.5"/>
<text text-anchor="middle" x="261.5" y="-232.1" font-family="Helvetica,sans-Serif" font-size="8.00">gslpp_matrix_double.h</text>
</g>
<!-- Node2 -->
<g id="node2" class="node"><title>Node2</title>
<g id="a_node2"><a xlink:href="../../d9/d72/gslpp_8h.html" target="_top" xlink:title="gslpp.h">
<polygon fill="none" stroke="red" points="200.5,-117.5 200.5,-134.5 242.5,-134.5 242.5,-117.5 200.5,-117.5"/>
<text text-anchor="middle" x="221.5" y="-124.1" font-family="Helvetica,sans-Serif" font-size="8.00">gslpp.h</text>
</a>
</g>
</g>
<!-- Node1&#45;&gt;Node2 -->
<g id="edge1" class="edge"><title>Node1&#45;&gt;Node2</title>
<path fill="none" stroke="midnightblue" d="M234.155,-220.732C221.464,-213.471 207.632,-202.937 200.5,-189 190.975,-170.385 205.991,-146.5 215.191,-134.537"/>
<polygon fill="midnightblue" stroke="midnightblue" points="232.606,-223.872 243.083,-225.443 235.872,-217.681 232.606,-223.872"/>
</g>
<!-- Node9 -->
<g id="node9" class="node"><title>Node9</title>
<g id="a_node9"><a xlink:href="../../d9/d25/gslpp__matrix__complex_8h.html" target="_top" xlink:title="gslpp_matrix_complex.h">
<polygon fill="none" stroke="red" points="210,-171.5 210,-188.5 313,-188.5 313,-171.5 210,-171.5"/>
<text text-anchor="middle" x="261.5" y="-178.1" font-family="Helvetica,sans-Serif" font-size="8.00">gslpp_matrix_complex.h</text>
</a>
</g>
</g>
<!-- Node1&#45;&gt;Node9 -->
<g id="edge9" class="edge"><title>Node1&#45;&gt;Node9</title>
<path fill="none" stroke="midnightblue" d="M255.07,-215.362C254.352,-206.293 254.841,-195.705 256.537,-188.704"/>
<polygon fill="midnightblue" stroke="midnightblue" points="251.619,-215.947 256.545,-225.327 258.543,-214.923 251.619,-215.947"/>
</g>
<!-- Node10 -->
<g id="node10" class="node"><title>Node10</title>
<g id="a_node10"><a xlink:href="../../d0/d71/gslpp__matrix__double_8cpp.html" target="_top" xlink:title="gslpp_matrix_double.cpp">
<polygon fill="none" stroke="black" points="331,-171.5 331,-188.5 436,-188.5 436,-171.5 331,-171.5"/>
<text text-anchor="middle" x="383.5" y="-178.1" font-family="Helvetica,sans-Serif" font-size="8.00">gslpp_matrix_double.cpp</text>
</a>
</g>
</g>
<!-- Node1&#45;&gt;Node10 -->
<g id="edge12" class="edge"><title>Node1&#45;&gt;Node10</title>
<path fill="none" stroke="midnightblue" d="M288.648,-221.429C312.16,-211.407 345.49,-197.201 365.739,-188.57"/>
<polygon fill="midnightblue" stroke="midnightblue" points="287.067,-218.298 279.24,-225.439 289.811,-224.737 287.067,-218.298"/>
</g>
<!-- Node3 -->
<g id="node3" class="node"><title>Node3</title>
<g id="a_node3"><a xlink:href="../../d9/d37/_amp_d_k2_8h.html" target="_top" xlink:title="AmpDK2.h">
<polygon fill="none" stroke="red" points="0,-59 0,-76 55,-76 55,-59 0,-59"/>
<text text-anchor="middle" x="27.5" y="-65.6" font-family="Helvetica,sans-Serif" font-size="8.00">AmpDK2.h</text>
</a>
</g>
</g>
<!-- Node2&#45;&gt;Node3 -->
<g id="edge2" class="edge"><title>Node2&#45;&gt;Node3</title>
<path fill="none" stroke="midnightblue" d="M190.344,-116.941C158.354,-108.521 107.208,-94.6594 63.5,-81 58.7007,-79.5001 53.5782,-77.7892 48.7472,-76.1246"/>
<polygon fill="midnightblue" stroke="midnightblue" points="189.86,-120.432 200.42,-119.579 191.633,-113.66 189.86,-120.432"/>
</g>
<!-- Node4 -->
<g id="node4" class="node"><title>Node4</title>
<g id="a_node4"><a xlink:href="../../d5/dac/_m_pll_8cpp.html" target="_top" xlink:title="MPll.cpp">
<polygon fill="none" stroke="black" points="73,-59 73,-76 120,-76 120,-59 73,-59"/>
<text text-anchor="middle" x="96.5" y="-65.6" font-family="Helvetica,sans-Serif" font-size="8.00">MPll.cpp</text>
</a>
</g>
</g>
<!-- Node2&#45;&gt;Node4 -->
<g id="edge3" class="edge"><title>Node2&#45;&gt;Node4</title>
<path fill="none" stroke="midnightblue" d="M195.737,-113.355C170.983,-102.166 134.308,-85.5891 113.168,-76.0338"/>
<polygon fill="midnightblue" stroke="midnightblue" points="194.347,-116.568 204.901,-117.497 197.23,-110.189 194.347,-116.568"/>
</g>
<!-- Node5 -->
<g id="node5" class="node"><title>Node5</title>
<g id="a_node5"><a xlink:href="../../d2/dce/_m_vll_observables_8cpp.html" target="_top" xlink:title="MVllObservables.cpp">
<polygon fill="none" stroke="black" points="138.5,-59 138.5,-76 230.5,-76 230.5,-59 138.5,-59"/>
<text text-anchor="middle" x="184.5" y="-65.6" font-family="Helvetica,sans-Serif" font-size="8.00">MVllObservables.cpp</text>
</a>
</g>
</g>
<!-- Node2&#45;&gt;Node5 -->
<g id="edge4" class="edge"><title>Node2&#45;&gt;Node5</title>
<path fill="none" stroke="midnightblue" d="M210.823,-108.695C203.846,-98.0422 195.051,-84.611 189.601,-76.2894"/>
<polygon fill="midnightblue" stroke="midnightblue" points="207.949,-110.696 216.355,-117.144 213.805,-106.861 207.949,-110.696"/>
</g>
<!-- Node6 -->
<g id="node6" class="node"><title>Node6</title>
<g id="a_node6"><a xlink:href="../../dc/dbd/_flavour_wilson_coefficient_8h.html" target="_top" xlink:title="FlavourWilsonCoefficient.h">
<polygon fill="none" stroke="red" points="242.5,-0.5 242.5,-17.5 354.5,-17.5 354.5,-0.5 242.5,-0.5"/>
<text text-anchor="middle" x="298.5" y="-7.1" font-family="Helvetica,sans-Serif" font-size="8.00">FlavourWilsonCoefficient.h</text>
</a>
</g>
</g>
<!-- Node2&#45;&gt;Node6 -->
<g id="edge5" class="edge"><title>Node2&#45;&gt;Node6</title>
<path fill="none" stroke="midnightblue" d="M232.168,-109.067C248.943,-84.0132 280.861,-36.3438 293.328,-17.724"/>
<polygon fill="midnightblue" stroke="midnightblue" points="229.208,-107.198 226.552,-117.455 235.024,-111.092 229.208,-107.198"/>
</g>
<!-- Node7 -->
<g id="node7" class="node"><title>Node7</title>
<g id="a_node7"><a xlink:href="../../d0/df8/_flavour_wilson_coefficient_matching_8h.html" target="_top" xlink:title="FlavourWilsonCoefficient\lMatching.h">
<polygon fill="none" stroke="red" points="287,-54.5 287,-80.5 392,-80.5 392,-54.5 287,-54.5"/>
<text text-anchor="start" x="295" y="-70.1" font-family="Helvetica,sans-Serif" font-size="8.00">FlavourWilsonCoefficient</text>
<text text-anchor="middle" x="339.5" y="-61.1" font-family="Helvetica,sans-Serif" font-size="8.00">Matching.h</text>
</a>
</g>
</g>
<!-- Node2&#45;&gt;Node7 -->
<g id="edge6" class="edge"><title>Node2&#45;&gt;Node7</title>
<path fill="none" stroke="midnightblue" d="M246.519,-113.021C266.497,-103.455 294.362,-90.1128 314.369,-80.533"/>
<polygon fill="midnightblue" stroke="midnightblue" points="244.922,-109.905 237.414,-117.38 247.945,-116.218 244.922,-109.905"/>
</g>
<!-- Node8 -->
<g id="node8" class="node"><title>Node8</title>
<g id="a_node8"><a xlink:href="../../d8/d1b/gminus2_8h.html" target="_top" xlink:title="gminus2.h">
<polygon fill="none" stroke="red" points="410,-59 410,-76 463,-76 463,-59 410,-59"/>
<text text-anchor="middle" x="436.5" y="-65.6" font-family="Helvetica,sans-Serif" font-size="8.00">gminus2.h</text>
</a>
</g>
</g>
<!-- Node2&#45;&gt;Node8 -->
<g id="edge8" class="edge"><title>Node2&#45;&gt;Node8</title>
<path fill="none" stroke="midnightblue" d="M252.478,-118.307C288.353,-110.344 349.109,-96.2023 400.5,-81 405.449,-79.5361 410.724,-77.8039 415.667,-76.1027"/>
<polygon fill="midnightblue" stroke="midnightblue" points="251.627,-114.911 242.614,-120.48 253.133,-121.747 251.627,-114.911"/>
</g>
<!-- Node7&#45;&gt;Node6 -->
<g id="edge7" class="edge"><title>Node7&#45;&gt;Node6</title>
<path fill="none" stroke="midnightblue" d="M324.641,-46.0231C317.448,-36.1118 309.252,-24.8164 303.984,-17.5576"/>
<polygon fill="midnightblue" stroke="midnightblue" points="321.898,-48.2024 330.604,-54.2403 327.563,-44.0911 321.898,-48.2024"/>
</g>
<!-- Node9&#45;&gt;Node1 -->
<g id="edge10" class="edge"><title>Node9&#45;&gt;Node1</title>
<path fill="none" stroke="midnightblue" d="M267.933,-198.679C268.647,-207.753 268.155,-218.338 266.455,-225.327"/>
<polygon fill="midnightblue" stroke="midnightblue" points="271.384,-198.087 266.463,-188.704 264.458,-199.108 271.384,-198.087"/>
</g>
<!-- Node9&#45;&gt;Node2 -->
<g id="edge11" class="edge"><title>Node9&#45;&gt;Node2</title>
<path fill="none" stroke="midnightblue" d="M249.296,-163.134C242.042,-153.704 233.166,-142.166 227.426,-134.704"/>
<polygon fill="midnightblue" stroke="midnightblue" points="246.727,-165.535 255.598,-171.327 252.275,-161.267 246.727,-165.535"/>
</g>
</g>
</svg>
