<?xml version="1.0" encoding="UTF-8" standalone="no"?>
<!DOCTYPE svg PUBLIC "-//W3C//DTD SVG 1.1//EN"
 "http://www.w3.org/Graphics/SVG/1.1/DTD/svg11.dtd">
<!-- Generated by graphviz version 2.40.1 (20161225.0304)
 -->
<!-- Title: HeffDF1.h Pages: 1 -->
<svg width="340pt" height="242pt"
 viewBox="0.00 0.00 340.00 242.00" xmlns="http://www.w3.org/2000/svg" xmlns:xlink="http://www.w3.org/1999/xlink">
<g id="graph0" class="graph" transform="scale(1 1) rotate(0) translate(4 238)">
<title>HeffDF1.h</title>
<!-- Node52 -->
<g id="node1" class="node">
<title>Node52</title>
<polygon fill="#bfbfbf" stroke="#000000" points="103,-216.5 103,-233.5 156,-233.5 156,-216.5 103,-216.5"/>
<text text-anchor="middle" x="129.5" y="-223.1" font-family="Helvetica,sans-Serif" font-size="8.00" fill="#000000">HeffDF1.h</text>
</g>
<!-- Node53 -->
<g id="node2" class="node">
<title>Node53</title>
<g id="a_node2"><a xlink:href="../../d6/d68/main__df1evol__test_8cpp.html" target="_top" xlink:title="main_df1evol_test.cpp">
<polygon fill="none" stroke="#000000" points="0,-108.5 0,-125.5 97,-125.5 97,-108.5 0,-108.5"/>
<text text-anchor="middle" x="48.5" y="-115.1" font-family="Helvetica,sans-Serif" font-size="8.00" fill="#000000">main_df1evol_test.cpp</text>
</a>
</g>
</g>
<!-- Node52&#45;&gt;Node53 -->
<g id="edge1" class="edge">
<title>Node52&#45;&gt;Node53</title>
<path fill="none" stroke="#191970" d="M116.6614,-207.8819C99.1293,-184.5058 68.3532,-143.4709 54.9938,-125.6584"/>
<polygon fill="#191970" stroke="#191970" points="114.0714,-210.2619 122.8714,-216.1619 119.6714,-206.0619 114.0714,-210.2619"/>
</g>
<!-- Node54 -->
<g id="node3" class="node">
<title>Node54</title>
<g id="a_node3"><a xlink:href="../../d3/d50/_b_xqll_8h.html" target="_top" xlink:title="BXqll.h">
<polygon fill="none" stroke="#000000" points="108.5,-162.5 108.5,-179.5 150.5,-179.5 150.5,-162.5 108.5,-162.5"/>
<text text-anchor="middle" x="129.5" y="-169.1" font-family="Helvetica,sans-Serif" font-size="8.00" fill="#000000">BXqll.h</text>
</a>
</g>
</g>
<!-- Node52&#45;&gt;Node54 -->
<g id="edge2" class="edge">
<title>Node52&#45;&gt;Node54</title>
<path fill="none" stroke="#191970" d="M129.5,-205.8045C129.5,-196.9102 129.5,-186.7798 129.5,-179.7511"/>
<polygon fill="#191970" stroke="#191970" points="126.0001,-206.083 129.5,-216.083 133.0001,-206.083 126.0001,-206.083"/>
</g>
<!-- Node60 -->
<g id="node9" class="node">
<title>Node60</title>
<g id="a_node9"><a xlink:href="../../d4/de3/_heff_d_f1_8cpp.html" target="_top" xlink:title="HeffDF1.cpp">
<polygon fill="none" stroke="#000000" points="169,-162.5 169,-179.5 230,-179.5 230,-162.5 169,-162.5"/>
<text text-anchor="middle" x="199.5" y="-169.1" font-family="Helvetica,sans-Serif" font-size="8.00" fill="#000000">HeffDF1.cpp</text>
</a>
</g>
</g>
<!-- Node52&#45;&gt;Node60 -->
<g id="edge9" class="edge">
<title>Node52&#45;&gt;Node60</title>
<path fill="none" stroke="#191970" d="M148.8138,-210.1008C161.4117,-200.3824 177.4281,-188.0269 188.0487,-179.8339"/>
<polygon fill="#191970" stroke="#191970" points="146.5267,-207.4446 140.7467,-216.324 150.8024,-212.9871 146.5267,-207.4446"/>
</g>
<!-- Node54&#45;&gt;Node53 -->
<g id="edge3" class="edge">
<title>Node54&#45;&gt;Node53</title>
<path fill="none" stroke="#191970" d="M107.9332,-156.6221C93.136,-146.7574 73.9878,-133.9919 61.4818,-125.6545"/>
<polygon fill="#191970" stroke="#191970" points="106.224,-159.6891 116.4859,-162.324 110.1069,-153.8647 106.224,-159.6891"/>
</g>
<!-- Node55 -->
<g id="node4" class="node">
<title>Node55</title>
<g id="a_node4"><a xlink:href="../../d1/d4f/_b_xqll_8cpp.html" target="_top" xlink:title="BXqll.cpp">
<polygon fill="none" stroke="#000000" points="115.5,-108.5 115.5,-125.5 165.5,-125.5 165.5,-108.5 115.5,-108.5"/>
<text text-anchor="middle" x="140.5" y="-115.1" font-family="Helvetica,sans-Serif" font-size="8.00" fill="#000000">BXqll.cpp</text>
</a>
</g>
</g>
<!-- Node54&#45;&gt;Node55 -->
<g id="edge4" class="edge">
<title>Node54&#45;&gt;Node55</title>
<path fill="none" stroke="#191970" d="M133.3499,-152.1005C135.1761,-143.1357 137.2697,-132.8579 138.7174,-125.7511"/>
<polygon fill="#191970" stroke="#191970" points="129.883,-151.5856 131.3164,-162.083 136.7421,-152.9829 129.883,-151.5856"/>
</g>
<!-- Node56 -->
<g id="node5" class="node">
<title>Node56</title>
<g id="a_node5"><a xlink:href="../../d6/d3f/_b_xqll_observables_8h.html" target="_top" xlink:title="BXqllObservables.h">
<polygon fill="none" stroke="#000000" points="184,-108.5 184,-125.5 271,-125.5 271,-108.5 184,-108.5"/>
<text text-anchor="middle" x="227.5" y="-115.1" font-family="Helvetica,sans-Serif" font-size="8.00" fill="#000000">BXqllObservables.h</text>
</a>
</g>
</g>
<!-- Node54&#45;&gt;Node56 -->
<g id="edge5" class="edge">
<title>Node54&#45;&gt;Node56</title>
<path fill="none" stroke="#191970" d="M154.0861,-157.4526C172.1781,-147.4835 196.2346,-134.2279 211.7937,-125.6545"/>
<polygon fill="#191970" stroke="#191970" points="152.3147,-154.4324 145.2454,-162.324 155.6929,-160.5633 152.3147,-154.4324"/>
</g>
<!-- Node57 -->
<g id="node6" class="node">
<title>Node57</title>
<g id="a_node6"><a xlink:href="../../db/dfb/_b_xqll_observables_8cpp.html" target="_top" xlink:title="BXqllObservables.cpp">
<polygon fill="none" stroke="#000000" points="124,-54.5 124,-71.5 219,-71.5 219,-54.5 124,-54.5"/>
<text text-anchor="middle" x="171.5" y="-61.1" font-family="Helvetica,sans-Serif" font-size="8.00" fill="#000000">BXqllObservables.cpp</text>
</a>
</g>
</g>
<!-- Node56&#45;&gt;Node57 -->
<g id="edge6" class="edge">
<title>Node56&#45;&gt;Node57</title>
<path fill="none" stroke="#191970" d="M211.1701,-101.2533C201.235,-91.6731 188.9125,-79.7906 180.6611,-71.8339"/>
<polygon fill="#191970" stroke="#191970" points="208.8747,-103.902 218.5026,-108.324 213.7336,-98.8631 208.8747,-103.902"/>
</g>
<!-- Node58 -->
<g id="node7" class="node">
<title>Node58</title>
<g id="a_node7"><a xlink:href="../../df/d7a/_flavour_observables_8h.html" target="_top" xlink:title="FlavourObservables.h">
<polygon fill="none" stroke="#000000" points="237,-54.5 237,-71.5 332,-71.5 332,-54.5 237,-54.5"/>
<text text-anchor="middle" x="284.5" y="-61.1" font-family="Helvetica,sans-Serif" font-size="8.00" fill="#000000">FlavourObservables.h</text>
</a>
</g>
</g>
<!-- Node56&#45;&gt;Node58 -->
<g id="edge7" class="edge">
<title>Node56&#45;&gt;Node58</title>
<path fill="none" stroke="#191970" d="M244.1215,-101.2533C254.234,-91.6731 266.7766,-79.7906 275.1753,-71.8339"/>
<polygon fill="#191970" stroke="#191970" points="241.5105,-98.9056 236.658,-108.324 246.3247,-103.9873 241.5105,-98.9056"/>
</g>
<!-- Node59 -->
<g id="node8" class="node">
<title>Node59</title>
<g id="a_node8"><a xlink:href="../../d1/de2/_th_obs_factory_8cpp.html" target="_top" xlink:title="ThObsFactory.cpp">
<polygon fill="none" stroke="#000000" points="243.5,-.5 243.5,-17.5 325.5,-17.5 325.5,-.5 243.5,-.5"/>
<text text-anchor="middle" x="284.5" y="-7.1" font-family="Helvetica,sans-Serif" font-size="8.00" fill="#000000">ThObsFactory.cpp</text>
</a>
</g>
</g>
<!-- Node58&#45;&gt;Node59 -->
<g id="edge8" class="edge">
<title>Node58&#45;&gt;Node59</title>
<path fill="none" stroke="#191970" d="M284.5,-43.8045C284.5,-34.9102 284.5,-24.7798 284.5,-17.7511"/>
<polygon fill="#191970" stroke="#191970" points="281.0001,-44.083 284.5,-54.083 288.0001,-44.083 281.0001,-44.083"/>
</g>
</g>
</svg>
