<?xml version="1.0" encoding="UTF-8" standalone="no"?>
<!DOCTYPE svg PUBLIC "-//W3C//DTD SVG 1.1//EN"
 "http://www.w3.org/Graphics/SVG/1.1/DTD/svg11.dtd">
<!-- Generated by graphviz version 2.40.1 (20161225.0304)
 -->
<!-- Title: Mhiggs.h Pages: 1 -->
<svg width="360pt" height="242pt"
 viewBox="0.00 0.00 360.00 242.00" xmlns="http://www.w3.org/2000/svg" xmlns:xlink="http://www.w3.org/1999/xlink">
<g id="graph0" class="graph" transform="scale(1 1) rotate(0) translate(4 238)">
<title>Mhiggs.h</title>
<!-- Node0 -->
<g id="node1" class="node">
<title>Node0</title>
<polygon fill="#bfbfbf" stroke="#000000" points="81,-216.5 81,-233.5 130,-233.5 130,-216.5 81,-216.5"/>
<text text-anchor="middle" x="105.5" y="-223.1" font-family="Helvetica,sans-Serif" font-size="8.00" fill="#000000">Mhiggs.h</text>
</g>
<!-- Node1 -->
<g id="node2" class="node">
<title>Node1</title>
<polygon fill="none" stroke="#bfbfbf" points="0,-162.5 0,-179.5 51,-179.5 51,-162.5 0,-162.5"/>
<text text-anchor="middle" x="25.5" y="-169.1" font-family="Helvetica,sans-Serif" font-size="8.00" fill="#000000">stdexcept</text>
</g>
<!-- Node0&#45;&gt;Node1 -->
<g id="edge1" class="edge">
<title>Node0&#45;&gt;Node1</title>
<path fill="none" stroke="#191970" d="M92.6466,-216.324C80.2836,-207.979 61.3699,-195.2122 46.7628,-185.3524"/>
<polygon fill="#191970" stroke="#191970" points="48.5682,-182.3483 38.3215,-179.6545 44.6518,-188.1503 48.5682,-182.3483"/>
</g>
<!-- Node2 -->
<g id="node3" class="node">
<title>Node2</title>
<g id="a_node3"><a xlink:href="../../dd/dcd/_th_observable_8h.html" target="_top" xlink:title="ThObservable.h">
<polygon fill="none" stroke="#000000" points="69,-162.5 69,-179.5 142,-179.5 142,-162.5 69,-162.5"/>
<text text-anchor="middle" x="105.5" y="-169.1" font-family="Helvetica,sans-Serif" font-size="8.00" fill="#000000">ThObservable.h</text>
</a>
</g>
</g>
<!-- Node0&#45;&gt;Node2 -->
<g id="edge2" class="edge">
<title>Node0&#45;&gt;Node2</title>
<path fill="none" stroke="#191970" d="M105.5,-216.083C105.5,-209.0059 105.5,-198.8611 105.5,-189.9865"/>
<polygon fill="#191970" stroke="#191970" points="109.0001,-189.751 105.5,-179.7511 102.0001,-189.7511 109.0001,-189.751"/>
</g>
<!-- Node5 -->
<g id="node6" class="node">
<title>Node5</title>
<g id="a_node6"><a xlink:href="../../d5/d37/_s_u_s_y_8h.html" target="_top" xlink:title="SUSY.h">
<polygon fill="none" stroke="#000000" points="178,-162.5 178,-179.5 223,-179.5 223,-162.5 178,-162.5"/>
<text text-anchor="middle" x="200.5" y="-169.1" font-family="Helvetica,sans-Serif" font-size="8.00" fill="#000000">SUSY.h</text>
</a>
</g>
</g>
<!-- Node0&#45;&gt;Node5 -->
<g id="edge5" class="edge">
<title>Node0&#45;&gt;Node5</title>
<path fill="none" stroke="#191970" d="M120.7634,-216.324C135.7214,-207.8215 158.7548,-194.7288 176.2267,-184.7975"/>
<polygon fill="#191970" stroke="#191970" points="178.3104,-187.639 185.2745,-179.6545 174.8512,-181.5534 178.3104,-187.639"/>
</g>
<!-- Node3 -->
<g id="node4" class="node">
<title>Node3</title>
<polygon fill="none" stroke="#bfbfbf" points="31.5,-108.5 31.5,-125.5 69.5,-125.5 69.5,-108.5 31.5,-108.5"/>
<text text-anchor="middle" x="50.5" y="-115.1" font-family="Helvetica,sans-Serif" font-size="8.00" fill="#000000">vector</text>
</g>
<!-- Node2&#45;&gt;Node3 -->
<g id="edge3" class="edge">
<title>Node2&#45;&gt;Node3</title>
<path fill="none" stroke="#191970" d="M96.4179,-162.083C88.3287,-154.1409 76.3046,-142.3354 66.5898,-132.7973"/>
<polygon fill="#191970" stroke="#191970" points="69.0009,-130.2595 59.4131,-125.7511 64.0967,-135.2545 69.0009,-130.2595"/>
</g>
<!-- Node4 -->
<g id="node5" class="node">
<title>Node4</title>
<polygon fill="none" stroke="#bfbfbf" points="87.5,-108.5 87.5,-125.5 123.5,-125.5 123.5,-108.5 87.5,-108.5"/>
<text text-anchor="middle" x="105.5" y="-115.1" font-family="Helvetica,sans-Serif" font-size="8.00" fill="#000000">string</text>
</g>
<!-- Node2&#45;&gt;Node4 -->
<g id="edge4" class="edge">
<title>Node2&#45;&gt;Node4</title>
<path fill="none" stroke="#191970" d="M105.5,-162.083C105.5,-155.0059 105.5,-144.8611 105.5,-135.9865"/>
<polygon fill="#191970" stroke="#191970" points="109.0001,-135.751 105.5,-125.7511 102.0001,-135.7511 109.0001,-135.751"/>
</g>
<!-- Node6 -->
<g id="node7" class="node">
<title>Node6</title>
<g id="a_node7"><a xlink:href="../../d9/d72/gslpp_8h.html" target="_top" xlink:title="gslpp.h">
<polygon fill="none" stroke="#ff0000" points="211.5,-54.5 211.5,-71.5 253.5,-71.5 253.5,-54.5 211.5,-54.5"/>
<text text-anchor="middle" x="232.5" y="-61.1" font-family="Helvetica,sans-Serif" font-size="8.00" fill="#000000">gslpp.h</text>
</a>
</g>
</g>
<!-- Node5&#45;&gt;Node6 -->
<g id="edge6" class="edge">
<title>Node5&#45;&gt;Node6</title>
<path fill="none" stroke="#191970" d="M191.1143,-162.3685C179.0354,-150.1645 160.7058,-127.2108 170.5,-108 177.5001,-94.2698 190.8657,-83.7496 203.4002,-76.3465"/>
<polygon fill="#191970" stroke="#191970" points="205.1737,-79.366 212.2774,-71.5055 201.8223,-73.2204 205.1737,-79.366"/>
</g>
<!-- Node22 -->
<g id="node9" class="node">
<title>Node22</title>
<g id="a_node9"><a xlink:href="../../d6/d0a/_standard_model_8h.html" target="_top" xlink:title="StandardModel.h">
<polygon fill="none" stroke="#ff0000" points="180,-108.5 180,-125.5 257,-125.5 257,-108.5 180,-108.5"/>
<text text-anchor="middle" x="218.5" y="-115.1" font-family="Helvetica,sans-Serif" font-size="8.00" fill="#000000">StandardModel.h</text>
</a>
</g>
</g>
<!-- Node5&#45;&gt;Node22 -->
<g id="edge8" class="edge">
<title>Node5&#45;&gt;Node22</title>
<path fill="none" stroke="#191970" d="M203.4723,-162.083C205.8838,-154.8486 209.3638,-144.4087 212.3677,-135.3968"/>
<polygon fill="#191970" stroke="#191970" points="215.741,-136.3447 215.583,-125.7511 209.1002,-134.1311 215.741,-136.3447"/>
</g>
<!-- Node51 -->
<g id="node10" class="node">
<title>Node51</title>
<g id="a_node10"><a xlink:href="../../dd/dc9/_s_u_s_y_matching_8h.html" target="_top" xlink:title="SUSYMatching.h">
<polygon fill="none" stroke="#ff0000" points="275,-108.5 275,-125.5 352,-125.5 352,-108.5 275,-108.5"/>
<text text-anchor="middle" x="313.5" y="-115.1" font-family="Helvetica,sans-Serif" font-size="8.00" fill="#000000">SUSYMatching.h</text>
</a>
</g>
</g>
<!-- Node5&#45;&gt;Node51 -->
<g id="edge9" class="edge">
<title>Node5&#45;&gt;Node51</title>
<path fill="none" stroke="#191970" d="M218.4052,-162.4435C236.754,-153.6751 265.5054,-139.9355 286.5936,-129.8579"/>
<polygon fill="#191970" stroke="#191970" points="288.165,-132.9862 295.6786,-125.5164 285.1468,-126.6703 288.165,-132.9862"/>
</g>
<!-- Node7 -->
<g id="node8" class="node">
<title>Node7</title>
<g id="a_node8"><a xlink:href="../../d1/dc2/gslpp__complex_8h.html" target="_top" xlink:title="gslpp_complex.h">
<polygon fill="none" stroke="#ff0000" points="194,-.5 194,-17.5 271,-17.5 271,-.5 194,-.5"/>
<text text-anchor="middle" x="232.5" y="-7.1" font-family="Helvetica,sans-Serif" font-size="8.00" fill="#000000">gslpp_complex.h</text>
</a>
</g>
</g>
<!-- Node6&#45;&gt;Node7 -->
<g id="edge7" class="edge">
<title>Node6&#45;&gt;Node7</title>
<path fill="none" stroke="#191970" d="M232.5,-54.083C232.5,-47.0059 232.5,-36.8611 232.5,-27.9865"/>
<polygon fill="#191970" stroke="#191970" points="236.0001,-27.751 232.5,-17.7511 229.0001,-27.7511 236.0001,-27.751"/>
</g>
<!-- Node51&#45;&gt;Node6 -->
<g id="edge10" class="edge">
<title>Node51&#45;&gt;Node6</title>
<path fill="none" stroke="#191970" d="M300.4859,-108.324C287.9684,-99.979 268.8183,-87.2122 254.0286,-77.3524"/>
<polygon fill="#191970" stroke="#191970" points="255.7437,-74.2894 245.4818,-71.6545 251.8608,-80.1137 255.7437,-74.2894"/>
</g>
</g>
</svg>
