<?xml version="1.0" encoding="UTF-8" standalone="no"?>
<!DOCTYPE svg PUBLIC "-//W3C//DTD SVG 1.1//EN"
 "http://www.w3.org/Graphics/SVG/1.1/DTD/svg11.dtd">
<!-- Generated by graphviz version 2.38.0 (20140413.2041)
 -->
<!-- Title: EWSMThreeLoopQCD Pages: 1 -->
<svg width="463pt" height="279pt"
 viewBox="0.00 0.00 462.50 279.00" xmlns="http://www.w3.org/2000/svg" xmlns:xlink="http://www.w3.org/1999/xlink">
<g id="graph0" class="graph" transform="scale(1 1) rotate(0) translate(4 275)">
<title>EWSMThreeLoopQCD</title>
<!-- Node1 -->
<g id="node1" class="node"><title>Node1</title>
<polygon fill="#bfbfbf" stroke="black" points="132,-198.5 132,-215.5 230,-215.5 230,-198.5 132,-198.5"/>
<text text-anchor="middle" x="181" y="-205.1" font-family="Helvetica,sans-Serif" font-size="8.00">EWSMThreeLoopQCD</text>
</g>
<!-- Node7 -->
<g id="node7" class="node"><title>Node7</title>
<g id="a_node7"><a xlink:href="../../dc/dd5/class_standard_model.html" target="_top" xlink:title="A model class for the Standard Model. ">
<polygon fill="none" stroke="red" points="46.5,-126.5 46.5,-143.5 117.5,-143.5 117.5,-126.5 46.5,-126.5"/>
<text text-anchor="middle" x="82" y="-133.1" font-family="Helvetica,sans-Serif" font-size="8.00">StandardModel</text>
</a>
</g>
</g>
<!-- Node1&#45;&gt;Node7 -->
<g id="edge14" class="edge"><title>Node1&#45;&gt;Node7</title>
<path fill="none" stroke="#9a32cd" stroke-dasharray="5,2" d="M150.123,-194.485C141.305,-190.528 131.941,-185.649 124,-180 109.199,-169.471 95.3273,-153.228 87.8177,-143.702"/>
<polygon fill="#9a32cd" stroke="#9a32cd" points="148.812,-197.73 159.385,-198.409 151.543,-191.285 148.812,-197.73"/>
<text text-anchor="middle" x="159" y="-169.1" font-family="Helvetica,sans-Serif" font-size="8.00"> myThreeLoopQCD</text>
</g>
<!-- Node2 -->
<g id="node2" class="node"><title>Node2</title>
<g id="a_node2"><a xlink:href="../../dc/df3/class_e_w_s_mcache.html" target="_top" xlink:title="A class for cache variables used in computing radiative corrections to the EW precision observables...">
<polygon fill="none" stroke="black" points="176.5,-63.5 176.5,-80.5 239.5,-80.5 239.5,-63.5 176.5,-63.5"/>
<text text-anchor="middle" x="208" y="-70.1" font-family="Helvetica,sans-Serif" font-size="8.00">EWSMcache</text>
</a>
</g>
</g>
<!-- Node2&#45;&gt;Node1 -->
<g id="edge1" class="edge"><title>Node2&#45;&gt;Node1</title>
<path fill="none" stroke="#9a32cd" stroke-dasharray="5,2" d="M207.469,-90.9566C206.419,-112.53 203.295,-149.617 194,-180 192.051,-186.37 188.656,-193.084 185.824,-198.093"/>
<polygon fill="#9a32cd" stroke="#9a32cd" points="210.976,-90.8358 207.864,-80.7081 203.981,-90.5655 210.976,-90.8358"/>
<text text-anchor="middle" x="217" y="-133.1" font-family="Helvetica,sans-Serif" font-size="8.00"> cache</text>
</g>
<!-- Node2&#45;&gt;Node7 -->
<g id="edge10" class="edge"><title>Node2&#45;&gt;Node7</title>
<path fill="none" stroke="#9a32cd" stroke-dasharray="5,2" d="M171.436,-83.7896C159.254,-87.9207 145.79,-93.0828 134,-99 118.438,-106.81 102.016,-118.529 91.888,-126.221"/>
<polygon fill="#9a32cd" stroke="#9a32cd" points="172.883,-86.9991 181.303,-80.5681 170.711,-80.3448 172.883,-86.9991"/>
<text text-anchor="middle" x="164" y="-101.6" font-family="Helvetica,sans-Serif" font-size="8.00"> myEWSMcache</text>
</g>
<!-- Node10 -->
<g id="node10" class="node"><title>Node10</title>
<g id="a_node10"><a xlink:href="../../d5/dad/class_e_w_s_m_three_loop_e_w.html" target="_top" xlink:title="A class for &#160;three&#45;loop corrections to the EW precision observables. ">
<polygon fill="none" stroke="black" points="59.5,-0.5 59.5,-17.5 152.5,-17.5 152.5,-0.5 59.5,-0.5"/>
<text text-anchor="middle" x="106" y="-7.1" font-family="Helvetica,sans-Serif" font-size="8.00">EWSMThreeLoopEW</text>
</a>
</g>
</g>
<!-- Node2&#45;&gt;Node10 -->
<g id="edge13" class="edge"><title>Node2&#45;&gt;Node10</title>
<path fill="none" stroke="#9a32cd" stroke-dasharray="5,2" d="M186.422,-58.0954C165.919,-45.8337 135.774,-27.8058 118.813,-17.663"/>
<polygon fill="#9a32cd" stroke="#9a32cd" points="184.703,-61.1455 195.082,-63.2743 188.296,-55.1379 184.703,-61.1455"/>
<text text-anchor="middle" x="176" y="-38.6" font-family="Helvetica,sans-Serif" font-size="8.00"> cache</text>
</g>
<!-- Node3 -->
<g id="node3" class="node"><title>Node3</title>
<g id="a_node3"><a xlink:href="../../d4/d7b/class_p_vfunctions.html" target="_top" xlink:title="A class for Passarino&#45;Veltman functions. ">
<polygon fill="none" stroke="black" points="318.5,-126.5 318.5,-143.5 377.5,-143.5 377.5,-126.5 318.5,-126.5"/>
<text text-anchor="middle" x="348" y="-133.1" font-family="Helvetica,sans-Serif" font-size="8.00">PVfunctions</text>
</a>
</g>
</g>
<!-- Node3&#45;&gt;Node2 -->
<g id="edge2" class="edge"><title>Node3&#45;&gt;Node2</title>
<path fill="none" stroke="#9a32cd" stroke-dasharray="5,2" d="M326.256,-121.411C313.578,-114.341 297.148,-105.633 282,-99 265.784,-91.8993 246.955,-85.3055 232.348,-80.5349"/>
<polygon fill="#9a32cd" stroke="#9a32cd" points="324.71,-124.558 335.137,-126.437 328.158,-118.466 324.71,-124.558"/>
<text text-anchor="middle" x="307.5" y="-101.6" font-family="Helvetica,sans-Serif" font-size="8.00"> PV</text>
</g>
<!-- Node4 -->
<g id="node4" class="node"><title>Node4</title>
<g id="a_node4"><a xlink:href="../../d8/db3/class_polylogarithms.html" target="_top" xlink:title="A class for the polylogarithms. ">
<polygon fill="none" stroke="black" points="293.5,-198.5 293.5,-215.5 362.5,-215.5 362.5,-198.5 293.5,-198.5"/>
<text text-anchor="middle" x="328" y="-205.1" font-family="Helvetica,sans-Serif" font-size="8.00">Polylogarithms</text>
</a>
</g>
</g>
<!-- Node4&#45;&gt;Node2 -->
<g id="edge7" class="edge"><title>Node4&#45;&gt;Node2</title>
<path fill="none" stroke="#9a32cd" stroke-dasharray="5,2" d="M314.233,-190.742C288.586,-162.316 234.344,-102.198 215.02,-80.7804"/>
<polygon fill="#9a32cd" stroke="#9a32cd" points="311.907,-193.388 321.204,-198.468 317.104,-188.699 311.907,-193.388"/>
<text text-anchor="middle" x="288" y="-133.1" font-family="Helvetica,sans-Serif" font-size="8.00"> PolyLog</text>
</g>
<!-- Node4&#45;&gt;Node3 -->
<g id="edge3" class="edge"><title>Node4&#45;&gt;Node3</title>
<path fill="none" stroke="#9a32cd" stroke-dasharray="5,2" d="M323.45,-188.261C322.172,-180.034 321.867,-170.27 325,-162 327.733,-154.786 333.483,-148.286 338.55,-143.59"/>
<polygon fill="#9a32cd" stroke="#9a32cd" points="320.068,-189.184 325.565,-198.241 326.916,-187.733 320.068,-189.184"/>
<text text-anchor="middle" x="345" y="-169.1" font-family="Helvetica,sans-Serif" font-size="8.00"> myPolylog</text>
</g>
<!-- Node5 -->
<g id="node5" class="node"><title>Node5</title>
<g id="a_node5"><a xlink:href="../../df/dea/class_bernoulli_numbers.html" target="_top" xlink:title="A class for the Bernoulli numbers. ">
<polygon fill="none" stroke="black" points="337,-253.5 337,-270.5 417,-270.5 417,-253.5 337,-253.5"/>
<text text-anchor="middle" x="377" y="-260.1" font-family="Helvetica,sans-Serif" font-size="8.00">BernoulliNumbers</text>
</a>
</g>
</g>
<!-- Node5&#45;&gt;Node4 -->
<g id="edge4" class="edge"><title>Node5&#45;&gt;Node4</title>
<path fill="none" stroke="midnightblue" d="M362.781,-245.62C353.634,-235.727 342.152,-223.307 334.943,-215.509"/>
<polygon fill="midnightblue" stroke="midnightblue" points="360.411,-248.213 369.77,-253.18 365.551,-243.461 360.411,-248.213"/>
</g>
<!-- Node6 -->
<g id="node6" class="node"><title>Node6</title>
<g id="a_node6"><a xlink:href="../../d5/d9d/class_clausen_functions.html" target="_top" xlink:title="A class for the Clausen functions. ">
<polygon fill="none" stroke="black" points="373.5,-162.5 373.5,-179.5 454.5,-179.5 454.5,-162.5 373.5,-162.5"/>
<text text-anchor="middle" x="414" y="-169.1" font-family="Helvetica,sans-Serif" font-size="8.00">ClausenFunctions</text>
</a>
</g>
</g>
<!-- Node5&#45;&gt;Node6 -->
<g id="edge6" class="edge"><title>Node5&#45;&gt;Node6</title>
<path fill="none" stroke="midnightblue" d="M384.07,-243.994C392.134,-224.597 404.962,-193.741 410.853,-179.569"/>
<polygon fill="midnightblue" stroke="midnightblue" points="380.762,-242.834 380.155,-253.412 387.225,-245.522 380.762,-242.834"/>
</g>
<!-- Node6&#45;&gt;Node2 -->
<g id="edge5" class="edge"><title>Node6&#45;&gt;Node2</title>
<path fill="none" stroke="#9a32cd" stroke-dasharray="5,2" d="M406.93,-153.181C402.382,-144.091 395.69,-133.271 387,-126 344.37,-90.3329 278.523,-78.668 239.698,-74.8533"/>
<polygon fill="#9a32cd" stroke="#9a32cd" points="403.813,-154.782 411.146,-162.429 410.182,-151.878 403.813,-154.782"/>
<text text-anchor="middle" x="417" y="-133.1" font-family="Helvetica,sans-Serif" font-size="8.00"> Clausen</text>
</g>
<!-- Node7&#45;&gt;Node2 -->
<g id="edge8" class="edge"><title>Node7&#45;&gt;Node2</title>
<path fill="none" stroke="#9a32cd" stroke-dasharray="5,2" d="M85.4198,-116.516C87.489,-110.175 90.7821,-103.478 96,-99 107.929,-88.763 147.574,-81.2809 176.315,-77.0388"/>
<polygon fill="#9a32cd" stroke="#9a32cd" points="81.9795,-115.848 82.9689,-126.396 88.7736,-117.533 81.9795,-115.848"/>
<text text-anchor="middle" x="103.5" y="-101.6" font-family="Helvetica,sans-Serif" font-size="8.00"> SM</text>
</g>
<!-- Node8 -->
<g id="node8" class="node"><title>Node8</title>
<g id="a_node8"><a xlink:href="../../dd/dfa/class_q_c_d.html" target="_top" xlink:title="A class for parameters related to QCD, hadrons and quarks. ">
<polygon fill="none" stroke="red" points="0,-198.5 0,-215.5 34,-215.5 34,-198.5 0,-198.5"/>
<text text-anchor="middle" x="17" y="-205.1" font-family="Helvetica,sans-Serif" font-size="8.00">QCD</text>
</a>
</g>
</g>
<!-- Node8&#45;&gt;Node7 -->
<g id="edge9" class="edge"><title>Node8&#45;&gt;Node7</title>
<path fill="none" stroke="midnightblue" d="M31.3348,-190.563C44.8567,-176.001 64.5587,-154.783 74.9608,-143.581"/>
<polygon fill="midnightblue" stroke="midnightblue" points="28.4442,-188.532 24.2045,-198.241 33.5738,-193.295 28.4442,-188.532"/>
</g>
<!-- Node9 -->
<g id="node9" class="node"><title>Node9</title>
<g id="a_node9"><a xlink:href="../../d9/db9/class_c_k_m.html" target="_top" xlink:title="A class for the CKM matrix elements. ">
<polygon fill="none" stroke="red" points="52,-198.5 52,-215.5 86,-215.5 86,-198.5 52,-198.5"/>
<text text-anchor="middle" x="69" y="-205.1" font-family="Helvetica,sans-Serif" font-size="8.00">CKM</text>
</a>
</g>
</g>
<!-- Node9&#45;&gt;Node7 -->
<g id="edge11" class="edge"><title>Node9&#45;&gt;Node7</title>
<path fill="none" stroke="#9a32cd" stroke-dasharray="5,2" d="M67.7685,-188.278C67.6202,-180.171 68.0316,-170.5 70,-162 71.4805,-155.607 74.6247,-148.894 77.3232,-143.891"/>
<polygon fill="#9a32cd" stroke="#9a32cd" points="64.2791,-188.586 68.2466,-198.41 71.2713,-188.256 64.2791,-188.586"/>
<text text-anchor="middle" x="85.5" y="-169.1" font-family="Helvetica,sans-Serif" font-size="8.00"> myCKM</text>
</g>
<!-- Node10&#45;&gt;Node7 -->
<g id="edge12" class="edge"><title>Node10&#45;&gt;Node7</title>
<path fill="none" stroke="#9a32cd" stroke-dasharray="5,2" d="M101.445,-27.6539C96.9707,-45.5322 90.2197,-74.0314 86,-99 84.4101,-108.407 83.2726,-119.346 82.6264,-126.457"/>
<polygon fill="#9a32cd" stroke="#9a32cd" points="104.878,-28.3558 103.95,-17.8017 98.0934,-26.6307 104.878,-28.3558"/>
<text text-anchor="middle" x="126.5" y="-70.1" font-family="Helvetica,sans-Serif" font-size="8.00"> myThreeLoopEW</text>
</g>
</g>
</svg>
