<?xml version="1.0" encoding="UTF-8" standalone="no"?>
<!DOCTYPE svg PUBLIC "-//W3C//DTD SVG 1.1//EN"
 "http://www.w3.org/Graphics/SVG/1.1/DTD/svg11.dtd">
<!-- Generated by graphviz version 2.40.1 (20161225.0304)
 -->
<!-- Title: PushedToObserver.hpp Pages: 1 -->
<svg width="137pt" height="134pt"
 viewBox="0.00 0.00 137.00 134.00" xmlns="http://www.w3.org/2000/svg" xmlns:xlink="http://www.w3.org/1999/xlink">
<g id="graph0" class="graph" transform="scale(1 1) rotate(0) translate(4 130)">
<title>PushedToObserver.hpp</title>
<!-- Node0 -->
<g id="node1" class="node">
<title>Node0</title>
<polygon fill="#bfbfbf" stroke="#000000" points="0,-108.5 0,-125.5 101,-125.5 101,-108.5 0,-108.5"/>
<text text-anchor="middle" x="50.5" y="-115.1" font-family="Helvetica,sans-Serif" font-size="8.00" fill="#000000">PushedToObserver.hpp</text>
</g>
<!-- Node1 -->
<g id="node2" class="node">
<title>Node1</title>
<polygon fill="none" stroke="#bfbfbf" points="36,-.5 36,-17.5 65,-17.5 65,-.5 36,-.5"/>
<text text-anchor="middle" x="50.5" y="-7.1" font-family="Helvetica,sans-Serif" font-size="8.00" fill="#000000">list</text>
</g>
<!-- Node0&#45;&gt;Node1 -->
<g id="edge1" class="edge">
<title>Node0&#45;&gt;Node1</title>
<path fill="none" stroke="#191970" d="M46.3888,-108.2771C42.4413,-99.3833 36.755,-85.0736 34.5,-72 31.8625,-56.7093 36.6741,-39.6695 41.6936,-27.1707"/>
<polygon fill="#191970" stroke="#191970" points="44.9595,-28.4393 45.8,-17.8778 38.5567,-25.6099 44.9595,-28.4393"/>
</g>
<!-- Node2 -->
<g id="node3" class="node">
<title>Node2</title>
<g id="a_node3"><a xlink:href="../../d7/dab/_basic_observer_8hpp.html" target="_top" xlink:title="BasicObserver.hpp">
<polygon fill="none" stroke="#000000" points="44,-54.5 44,-71.5 129,-71.5 129,-54.5 44,-54.5"/>
<text text-anchor="middle" x="86.5" y="-61.1" font-family="Helvetica,sans-Serif" font-size="8.00" fill="#000000">BasicObserver.hpp</text>
</a>
</g>
</g>
<!-- Node0&#45;&gt;Node2 -->
<g id="edge2" class="edge">
<title>Node0&#45;&gt;Node2</title>
<path fill="none" stroke="#191970" d="M56.4447,-108.083C61.4773,-100.5341 68.8368,-89.4948 75.0135,-80.2298"/>
<polygon fill="#191970" stroke="#191970" points="78.0311,-82.0131 80.6659,-71.7511 72.2067,-78.1301 78.0311,-82.0131"/>
</g>
<!-- Node2&#45;&gt;Node1 -->
<g id="edge3" class="edge">
<title>Node2&#45;&gt;Node1</title>
<path fill="none" stroke="#191970" d="M80.5553,-54.083C75.5227,-46.5341 68.1632,-35.4948 61.9865,-26.2298"/>
<polygon fill="#191970" stroke="#191970" points="64.7933,-24.1301 56.3341,-17.7511 58.9689,-28.0131 64.7933,-24.1301"/>
</g>
</g>
</svg>
