<?xml version="1.0" encoding="UTF-8" standalone="no"?>
<!DOCTYPE svg PUBLIC "-//W3C//DTD SVG 1.1//EN"
 "http://www.w3.org/Graphics/SVG/1.1/DTD/svg11.dtd">
<!-- Generated by graphviz version 2.40.1 (20161225.0304)
 -->
<!-- Title: LHPC::MassSpectrumClass::NmssmExtraEwsbSpinZeroBosonSet Pages: 1 -->
<svg width="249pt" height="418pt"
 viewBox="0.00 0.00 248.50 418.00" xmlns="http://www.w3.org/2000/svg" xmlns:xlink="http://www.w3.org/1999/xlink">
<g id="graph0" class="graph" transform="scale(1 1) rotate(0) translate(4 414)">
<title>LHPC::MassSpectrumClass::NmssmExtraEwsbSpinZeroBosonSet</title>
<!-- Node0 -->
<g id="node1" class="node">
<title>Node0</title>
<polygon fill="#bfbfbf" stroke="#000000" points="0,-73.5 0,-99.5 153,-99.5 153,-73.5 0,-73.5"/>
<text text-anchor="start" x="8" y="-89.1" font-family="Helvetica,sans-Serif" font-size="8.00" fill="#000000">LHPC::MassSpectrumClass</text>
<text text-anchor="middle" x="76.5" y="-80.1" font-family="Helvetica,sans-Serif" font-size="8.00" fill="#000000">::NmssmExtraEwsbSpinZeroBosonSet</text>
</g>
<!-- Node6 -->
<g id="node7" class="node">
<title>Node6</title>
<g id="a_node7"><a xlink:href="../../d4/def/class_l_h_p_c_1_1_mass_spectrum_class_1_1_next_to_minimal_supersymmetric_standard_model.html" target="_top" xlink:title="LHPC::MassSpectrumClass\l::NextToMinimalSupersymmetric\lStandardModel">
<polygon fill="none" stroke="#000000" points="10.5,-.5 10.5,-35.5 142.5,-35.5 142.5,-.5 10.5,-.5"/>
<text text-anchor="start" x="18.5" y="-25.1" font-family="Helvetica,sans-Serif" font-size="8.00" fill="#000000">LHPC::MassSpectrumClass</text>
<text text-anchor="start" x="18.5" y="-16.1" font-family="Helvetica,sans-Serif" font-size="8.00" fill="#000000">::NextToMinimalSupersymmetric</text>
<text text-anchor="middle" x="76.5" y="-7.1" font-family="Helvetica,sans-Serif" font-size="8.00" fill="#000000">StandardModel</text>
</a>
</g>
</g>
<!-- Node0&#45;&gt;Node6 -->
<g id="edge8" class="edge">
<title>Node0&#45;&gt;Node6</title>
<path fill="none" stroke="#191970" d="M76.5,-63.0521C76.5,-54.0479 76.5,-43.934 76.5,-35.5737"/>
<polygon fill="#191970" stroke="#191970" points="73.0001,-63.2925 76.5,-73.2925 80.0001,-63.2925 73.0001,-63.2925"/>
</g>
<!-- Node1 -->
<g id="node2" class="node">
<title>Node1</title>
<g id="a_node2"><a xlink:href="../../d3/d8f/class_l_h_p_c_1_1_mass_spectrum.html" target="_top" xlink:title="LHPC::MassSpectrum">
<polygon fill="none" stroke="#000000" points="28.5,-201.5 28.5,-218.5 124.5,-218.5 124.5,-201.5 28.5,-201.5"/>
<text text-anchor="middle" x="76.5" y="-208.1" font-family="Helvetica,sans-Serif" font-size="8.00" fill="#000000">LHPC::MassSpectrum</text>
</a>
</g>
</g>
<!-- Node1&#45;&gt;Node0 -->
<g id="edge1" class="edge">
<title>Node1&#45;&gt;Node0</title>
<path fill="none" stroke="#191970" d="M76.5,-190.953C76.5,-165.634 76.5,-121.5455 76.5,-99.6362"/>
<polygon fill="#191970" stroke="#191970" points="73.0001,-191.1182 76.5,-201.1182 80.0001,-191.1182 73.0001,-191.1182"/>
</g>
<!-- Node5 -->
<g id="node6" class="node">
<title>Node5</title>
<g id="a_node6"><a xlink:href="../../dc/db3/class_l_h_p_c_1_1_mass_spectrum_class_1_1_mssm_extra_ewsb_spin_zero_boson_set.html" target="_top" xlink:title="LHPC::MassSpectrumClass\l::MssmExtraEwsbSpinZeroBosonSet">
<polygon fill="none" stroke="#000000" points="92.5,-137.5 92.5,-163.5 240.5,-163.5 240.5,-137.5 92.5,-137.5"/>
<text text-anchor="start" x="100.5" y="-153.1" font-family="Helvetica,sans-Serif" font-size="8.00" fill="#000000">LHPC::MassSpectrumClass</text>
<text text-anchor="middle" x="166.5" y="-144.1" font-family="Helvetica,sans-Serif" font-size="8.00" fill="#000000">::MssmExtraEwsbSpinZeroBosonSet</text>
</a>
</g>
</g>
<!-- Node1&#45;&gt;Node5 -->
<g id="edge7" class="edge">
<title>Node1&#45;&gt;Node5</title>
<path fill="none" stroke="#191970" d="M97.9026,-195.8505C112.692,-186.0731 132.2236,-173.1605 146.6621,-163.6151"/>
<polygon fill="#191970" stroke="#191970" points="95.8064,-193.0405 89.3948,-201.4751 99.6669,-198.8798 95.8064,-193.0405"/>
</g>
<!-- Node2 -->
<g id="node3" class="node">
<title>Node2</title>
<g id="a_node3"><a xlink:href="../../d5/d13/class_b_o_l_1_1_pushed_to_observer.html" target="_top" xlink:title="BOL::PushedToObserver\l\&lt; SpectrumUpdater \&gt;">
<polygon fill="none" stroke="#000000" points="23.5,-256.5 23.5,-282.5 129.5,-282.5 129.5,-256.5 23.5,-256.5"/>
<text text-anchor="start" x="31.5" y="-272.1" font-family="Helvetica,sans-Serif" font-size="8.00" fill="#000000">BOL::PushedToObserver</text>
<text text-anchor="middle" x="76.5" y="-263.1" font-family="Helvetica,sans-Serif" font-size="8.00" fill="#000000">&lt; SpectrumUpdater &gt;</text>
</a>
</g>
</g>
<!-- Node2&#45;&gt;Node1 -->
<g id="edge2" class="edge">
<title>Node2&#45;&gt;Node1</title>
<path fill="none" stroke="#191970" d="M76.5,-246.0042C76.5,-236.3375 76.5,-225.7482 76.5,-218.5724"/>
<polygon fill="#191970" stroke="#191970" points="73.0001,-246.295 76.5,-256.295 80.0001,-246.2951 73.0001,-246.295"/>
</g>
<!-- Node3 -->
<g id="node4" class="node">
<title>Node3</title>
<g id="a_node4"><a xlink:href="../../d3/d09/class_b_o_l_1_1_basic_observer.html" target="_top" xlink:title="BOL::BasicObserver">
<polygon fill="none" stroke="#000000" points="28,-392.5 28,-409.5 117,-409.5 117,-392.5 28,-392.5"/>
<text text-anchor="middle" x="72.5" y="-399.1" font-family="Helvetica,sans-Serif" font-size="8.00" fill="#000000">BOL::BasicObserver</text>
</a>
</g>
</g>
<!-- Node3&#45;&gt;Node2 -->
<g id="edge3" class="edge">
<title>Node3&#45;&gt;Node2</title>
<path fill="none" stroke="#191970" d="M73.0675,-382.3425C73.8852,-355.4602 75.3752,-306.4781 76.0926,-282.8937"/>
<polygon fill="#191970" stroke="#191970" points="69.5682,-382.2701 72.7625,-392.3719 76.565,-382.483 69.5682,-382.2701"/>
</g>
<!-- Node4 -->
<g id="node5" class="node">
<title>Node4</title>
<g id="a_node5"><a xlink:href="../../d5/d13/class_b_o_l_1_1_pushed_to_observer.html" target="_top" xlink:title="BOL::PushedToObserver\l\&lt; PushedClass \&gt;">
<polygon fill="none" stroke="#000000" points="88.5,-328.5 88.5,-354.5 194.5,-354.5 194.5,-328.5 88.5,-328.5"/>
<text text-anchor="start" x="96.5" y="-344.1" font-family="Helvetica,sans-Serif" font-size="8.00" fill="#000000">BOL::PushedToObserver</text>
<text text-anchor="middle" x="141.5" y="-335.1" font-family="Helvetica,sans-Serif" font-size="8.00" fill="#000000">&lt; PushedClass &gt;</text>
</a>
</g>
</g>
<!-- Node3&#45;&gt;Node4 -->
<g id="edge5" class="edge">
<title>Node3&#45;&gt;Node4</title>
<path fill="none" stroke="#191970" d="M90.2074,-385.7306C101.3718,-376.1033 115.6392,-363.8003 126.2909,-354.6151"/>
<polygon fill="#191970" stroke="#191970" points="87.6735,-383.294 82.386,-392.4751 92.2449,-388.5952 87.6735,-383.294"/>
</g>
<!-- Node4&#45;&gt;Node2 -->
<g id="edge4" class="edge">
<title>Node4&#45;&gt;Node2</title>
<path fill="none" stroke="#ffa500" stroke-dasharray="5,2" d="M122.7382,-320.7176C111.6494,-308.4347 97.9456,-293.2552 88.3464,-282.6222"/>
<polygon fill="#ffa500" stroke="#ffa500" points="120.279,-323.2168 129.578,-328.2941 125.4749,-318.526 120.279,-323.2168"/>
<text text-anchor="middle" x="152" y="-303.6" font-family="Helvetica,sans-Serif" font-size="8.00" fill="#000000"> &lt; SpectrumUpdater &gt;</text>
</g>
<!-- Node5&#45;&gt;Node0 -->
<g id="edge6" class="edge">
<title>Node5&#45;&gt;Node0</title>
<path fill="none" stroke="#191970" d="M139.3263,-131.1765C124.924,-120.9348 107.6158,-108.6268 94.8162,-99.5249"/>
<polygon fill="#191970" stroke="#191970" points="137.674,-134.2962 147.8519,-137.2392 141.7307,-128.5915 137.674,-134.2962"/>
</g>
</g>
</svg>
