<?xml version="1.0" encoding="UTF-8" standalone="no"?>
<!DOCTYPE svg PUBLIC "-//W3C//DTD SVG 1.1//EN"
 "http://www.w3.org/Graphics/SVG/1.1/DTD/svg11.dtd">
<!-- Generated by graphviz version 2.40.1 (20161225.0304)
 -->
<!-- Title: WC_C9 Pages: 1 -->
<svg width="668pt" height="211pt"
 viewBox="0.00 0.00 668.00 210.50" xmlns="http://www.w3.org/2000/svg" xmlns:xlink="http://www.w3.org/1999/xlink">
<g id="graph0" class="graph" transform="scale(1 1) rotate(0) translate(4 206.5)">
<title>WC_C9</title>
<!-- Node2 -->
<g id="node1" class="node">
<title>Node2</title>
<polygon fill="#bfbfbf" stroke="#000000" points="583,-46 583,-63 628,-63 628,-46 583,-46"/>
<text text-anchor="middle" x="605.5" y="-52.6" font-family="Helvetica,sans-Serif" font-size="8.00" fill="#000000">WC_C9</text>
</g>
<!-- Node3 -->
<g id="node2" class="node">
<title>Node3</title>
<g id="a_node2"><a xlink:href="../../dc/d1f/class_th_observable.html" target="_top" xlink:title="A class for a model prediction of an observable. ">
<polygon fill="none" stroke="#000000" points="409.5,-46 409.5,-63 476.5,-63 476.5,-46 409.5,-46"/>
<text text-anchor="middle" x="443" y="-52.6" font-family="Helvetica,sans-Serif" font-size="8.00" fill="#000000">ThObservable</text>
</a>
</g>
</g>
<!-- Node3&#45;&gt;Node2 -->
<g id="edge1" class="edge">
<title>Node3&#45;&gt;Node2</title>
<path fill="none" stroke="#191970" d="M486.7857,-54.5C517.7717,-54.5 558.065,-54.5 582.8383,-54.5"/>
<polygon fill="#191970" stroke="#191970" points="486.6701,-51.0001 476.6701,-54.5 486.6701,-58.0001 486.6701,-51.0001"/>
</g>
<!-- Node4 -->
<g id="node3" class="node">
<title>Node4</title>
<g id="a_node3"><a xlink:href="../../dc/dd5/class_standard_model.html" target="_top" xlink:title="A model class for the Standard Model. ">
<polygon fill="none" stroke="#ff0000" points="217,-136 217,-153 288,-153 288,-136 217,-136"/>
<text text-anchor="middle" x="252.5" y="-142.6" font-family="Helvetica,sans-Serif" font-size="8.00" fill="#000000">StandardModel</text>
</a>
</g>
</g>
<!-- Node4&#45;&gt;Node2 -->
<g id="edge12" class="edge">
<title>Node4&#45;&gt;Node2</title>
<path fill="none" stroke="#9a32cd" stroke-dasharray="5,2" d="M296.1786,-133.3638C371.8816,-114.0628 524.8998,-75.0496 582.6986,-60.3134"/>
<polygon fill="#9a32cd" stroke="#9a32cd" points="294.8529,-130.0898 286.0276,-135.9519 296.5824,-136.8728 294.8529,-130.0898"/>
<text text-anchor="middle" x="443" y="-109.1" font-family="Helvetica,sans-Serif" font-size="8.00" fill="#000000"> mySM</text>
</g>
<!-- Node4&#45;&gt;Node3 -->
<g id="edge2" class="edge">
<title>Node4&#45;&gt;Node3</title>
<path fill="none" stroke="#9a32cd" stroke-dasharray="5,2" d="M262.6756,-126.8385C272.8064,-110.9713 289.8727,-88.3942 311,-76.5 341.3675,-59.4038 381.4667,-54.7891 409.4674,-53.8987"/>
<polygon fill="#9a32cd" stroke="#9a32cd" points="259.495,-125.3327 257.2898,-135.6955 265.476,-128.9697 259.495,-125.3327"/>
<text text-anchor="middle" x="346" y="-79.1" font-family="Helvetica,sans-Serif" font-size="8.00" fill="#000000"> SM</text>
</g>
<!-- Node9 -->
<g id="node6" class="node">
<title>Node9</title>
<g id="a_node6"><a xlink:href="../../dc/df3/class_e_w_s_mcache.html" target="_top" xlink:title="A class for cache variables used in computing radiative corrections to the EW precision observables...">
<polygon fill="none" stroke="#ff0000" points="411.5,-172 411.5,-189 474.5,-189 474.5,-172 411.5,-172"/>
<text text-anchor="middle" x="443" y="-178.6" font-family="Helvetica,sans-Serif" font-size="8.00" fill="#000000">EWSMcache</text>
</a>
</g>
</g>
<!-- Node4&#45;&gt;Node9 -->
<g id="edge6" class="edge">
<title>Node4&#45;&gt;Node9</title>
<path fill="none" stroke="#9a32cd" stroke-dasharray="5,2" d="M268.0185,-160.2339C278.9771,-170.1709 294.584,-182.1158 311,-187.5 344.036,-198.3353 384.2003,-193.8945 411.4859,-188.4634"/>
<polygon fill="#9a32cd" stroke="#9a32cd" points="270.2608,-157.5359 260.6081,-153.1683 265.4303,-162.6022 270.2608,-157.5359"/>
<text text-anchor="middle" x="346" y="-196.1" font-family="Helvetica,sans-Serif" font-size="8.00" fill="#000000"> SM</text>
</g>
<!-- Node5 -->
<g id="node4" class="node">
<title>Node5</title>
<g id="a_node4"><a xlink:href="../../dd/dfa/class_q_c_d.html" target="_top" xlink:title="A class for parameters related to QCD, hadrons and quarks. ">
<polygon fill="none" stroke="#ff0000" points="55.5,-177 55.5,-194 89.5,-194 89.5,-177 55.5,-177"/>
<text text-anchor="middle" x="72.5" y="-183.6" font-family="Helvetica,sans-Serif" font-size="8.00" fill="#000000">QCD</text>
</a>
</g>
</g>
<!-- Node5&#45;&gt;Node4 -->
<g id="edge3" class="edge">
<title>Node5&#45;&gt;Node4</title>
<path fill="none" stroke="#191970" d="M99.519,-179.3457C130.7502,-172.2319 182.2699,-160.4969 216.7848,-152.6351"/>
<polygon fill="#191970" stroke="#191970" points="98.7321,-175.9352 89.7592,-181.5687 100.2868,-182.7604 98.7321,-175.9352"/>
</g>
<!-- Node8 -->
<g id="node5" class="node">
<title>Node8</title>
<g id="a_node5"><a xlink:href="../../db/d32/class_e_w_s_m_two_fermions_l_e_p2.html" target="_top" xlink:title="A class for the form factors , &#160;and &#160;in the processes &#160;at LEP&#45;II. ">
<polygon fill="none" stroke="#ff0000" points="551,-153 551,-170 660,-170 660,-153 551,-153"/>
<text text-anchor="middle" x="605.5" y="-159.6" font-family="Helvetica,sans-Serif" font-size="8.00" fill="#000000">EWSMTwoFermionsLEP2</text>
</a>
</g>
</g>
<!-- Node8&#45;&gt;Node4 -->
<g id="edge4" class="edge">
<title>Node8&#45;&gt;Node4</title>
<path fill="none" stroke="#9a32cd" stroke-dasharray="5,2" d="M540.8502,-156.794C523.3781,-155.6154 504.4709,-154.4248 487,-153.5 416.6153,-149.7743 334.2684,-146.974 288.2702,-145.5498"/>
<polygon fill="#9a32cd" stroke="#9a32cd" points="540.7346,-160.2941 550.95,-157.4844 541.2121,-153.3104 540.7346,-160.2941"/>
<text text-anchor="middle" x="443" y="-156.1" font-family="Helvetica,sans-Serif" font-size="8.00" fill="#000000"> myTwoFermionsLEP2</text>
</g>
<!-- Node9&#45;&gt;Node4 -->
<g id="edge7" class="edge">
<title>Node9&#45;&gt;Node4</title>
<path fill="none" stroke="#9a32cd" stroke-dasharray="5,2" d="M401.4127,-172.641C367.6255,-166.256 320.4668,-157.3441 288.3316,-151.2713"/>
<polygon fill="#9a32cd" stroke="#9a32cd" points="400.9616,-176.1176 411.4376,-174.5355 402.2615,-169.2393 400.9616,-176.1176"/>
<text text-anchor="middle" x="346" y="-170.1" font-family="Helvetica,sans-Serif" font-size="8.00" fill="#000000"> myEWSMcache</text>
</g>
<!-- Node9&#45;&gt;Node8 -->
<g id="edge5" class="edge">
<title>Node9&#45;&gt;Node8</title>
<path fill="none" stroke="#9a32cd" stroke-dasharray="5,2" d="M484.8045,-175.6121C504.9068,-173.2617 529.2625,-170.4139 550.8158,-167.8938"/>
<polygon fill="#9a32cd" stroke="#9a32cd" points="484.2432,-172.1538 474.7174,-176.7915 485.0562,-179.1064 484.2432,-172.1538"/>
<text text-anchor="middle" x="519" y="-175.1" font-family="Helvetica,sans-Serif" font-size="8.00" fill="#000000"> cache</text>
</g>
<!-- Node15 -->
<g id="node7" class="node">
<title>Node15</title>
<g id="a_node7"><a xlink:href="../../d5/d76/class_matching.html" target="_top" xlink:title="Matching\&lt; StandardModelMatching,\l StandardModel \&gt;">
<polygon fill="none" stroke="#ff0000" points="0,-131.5 0,-157.5 145,-157.5 145,-131.5 0,-131.5"/>
<text text-anchor="start" x="8" y="-147.1" font-family="Helvetica,sans-Serif" font-size="8.00" fill="#000000">Matching&lt; StandardModelMatching,</text>
<text text-anchor="middle" x="72.5" y="-138.1" font-family="Helvetica,sans-Serif" font-size="8.00" fill="#000000"> StandardModel &gt;</text>
</a>
</g>
</g>
<!-- Node15&#45;&gt;Node4 -->
<g id="edge8" class="edge">
<title>Node15&#45;&gt;Node4</title>
<path fill="none" stroke="#9a32cd" stroke-dasharray="5,2" d="M155.3597,-144.5C176.8842,-144.5 198.9569,-144.5 216.6114,-144.5"/>
<polygon fill="#9a32cd" stroke="#9a32cd" points="155.1941,-141.0001 145.194,-144.5 155.194,-148.0001 155.1941,-141.0001"/>
<text text-anchor="middle" x="178.5" y="-147.1" font-family="Helvetica,sans-Serif" font-size="8.00" fill="#000000"> SMM</text>
</g>
<!-- Node33 -->
<g id="node8" class="node">
<title>Node33</title>
<g id="a_node8"><a xlink:href="../../d9/db9/class_c_k_m.html" target="_top" xlink:title="A class for the CKM matrix elements. ">
<polygon fill="none" stroke="#ff0000" points="55.5,-95 55.5,-112 89.5,-112 89.5,-95 55.5,-95"/>
<text text-anchor="middle" x="72.5" y="-101.6" font-family="Helvetica,sans-Serif" font-size="8.00" fill="#000000">CKM</text>
</a>
</g>
</g>
<!-- Node33&#45;&gt;Node4 -->
<g id="edge9" class="edge">
<title>Node33&#45;&gt;Node4</title>
<path fill="none" stroke="#9a32cd" stroke-dasharray="5,2" d="M99.519,-109.6543C130.7502,-116.7681 182.2699,-128.5031 216.7848,-136.3649"/>
<polygon fill="#9a32cd" stroke="#9a32cd" points="100.2868,-106.2396 89.7592,-107.4313 98.7321,-113.0648 100.2868,-106.2396"/>
<text text-anchor="middle" x="178.5" y="-132.1" font-family="Helvetica,sans-Serif" font-size="8.00" fill="#000000"> myCKM</text>
</g>
<!-- Node26 -->
<g id="node9" class="node">
<title>Node26</title>
<g id="a_node9"><a xlink:href="../../dd/d59/classgslpp_1_1vector.html" target="_top" xlink:title="gslpp::vector\&lt; gslpp\l::complex \&gt;">
<polygon fill="none" stroke="#000000" points="399,-.5 399,-26.5 487,-26.5 487,-.5 399,-.5"/>
<text text-anchor="start" x="407" y="-16.1" font-family="Helvetica,sans-Serif" font-size="8.00" fill="#000000">gslpp::vector&lt; gslpp</text>
<text text-anchor="middle" x="443" y="-7.1" font-family="Helvetica,sans-Serif" font-size="8.00" fill="#000000">::complex &gt;</text>
</a>
</g>
</g>
<!-- Node26&#45;&gt;Node2 -->
<g id="edge10" class="edge">
<title>Node26&#45;&gt;Node2</title>
<path fill="none" stroke="#9a32cd" stroke-dasharray="5,2" d="M497.4275,-27.2325C526.4525,-34.5557 560.6213,-43.1768 582.6482,-48.7343"/>
<polygon fill="#9a32cd" stroke="#9a32cd" points="497.9562,-23.7563 487.4038,-24.7034 496.2437,-30.5436 497.9562,-23.7563"/>
<text text-anchor="middle" x="519" y="-37.1" font-family="Helvetica,sans-Serif" font-size="8.00" fill="#000000"> allcoeff</text>
</g>
<!-- Node27 -->
<g id="node10" class="node">
<title>Node27</title>
<g id="a_node10"><a xlink:href="../../dd/d59/classgslpp_1_1vector.html" target="_top" xlink:title="A base class for defining operations on vectors, both real and complex. ">
<polygon fill="none" stroke="#000000" points="212,-5 212,-22 293,-22 293,-5 212,-5"/>
<text text-anchor="middle" x="252.5" y="-11.6" font-family="Helvetica,sans-Serif" font-size="8.00" fill="#000000">gslpp::vector&lt; T &gt;</text>
</a>
</g>
</g>
<!-- Node27&#45;&gt;Node26 -->
<g id="edge11" class="edge">
<title>Node27&#45;&gt;Node26</title>
<path fill="none" stroke="#ffa500" stroke-dasharray="5,2" d="M303.5517,-13.5C333.2904,-13.5 370.4148,-13.5 398.8803,-13.5"/>
<polygon fill="#ffa500" stroke="#ffa500" points="303.3671,-10.0001 293.367,-13.5 303.367,-17.0001 303.3671,-10.0001"/>
<text text-anchor="middle" x="346" y="-16.1" font-family="Helvetica,sans-Serif" font-size="8.00" fill="#000000"> &lt; gslpp::complex &gt;</text>
</g>
</g>
</svg>
