<?xml version="1.0" encoding="UTF-8" standalone="no"?>
<!DOCTYPE svg PUBLIC "-//W3C//DTD SVG 1.1//EN"
 "http://www.w3.org/Graphics/SVG/1.1/DTD/svg11.dtd">
<!-- Generated by graphviz version 2.40.1 (20161225.0304)
 -->
<!-- Title: HiggsExtensions Pages: 1 -->
<svg width="260pt" height="204pt"
 viewBox="0.00 0.00 260.00 204.00" xmlns="http://www.w3.org/2000/svg" xmlns:xlink="http://www.w3.org/1999/xlink">
<g id="graph0" class="graph" transform="scale(1 1) rotate(0) translate(4 200)">
<title>HiggsExtensions</title>
<g id="clust1" class="cluster">
<title>clusterdir_0c76491da9cff37191668e19637d8bbe</title>
<g id="a_clust1"><a xlink:href="dir_0c76491da9cff37191668e19637d8bbe.html" target="_top">
<polygon fill="#eeeeff" stroke="#000000" points="8,-136 8,-188 244,-188 244,-136 8,-136"/>
</a>
</g>
</g>
<!-- dir_0c76491da9cff37191668e19637d8bbe -->
<g id="node1" class="node">
<title>dir_0c76491da9cff37191668e19637d8bbe</title>
<text text-anchor="middle" x="198" y="-160.1" font-family="Helvetica,sans-Serif" font-size="8.00" fill="#000000">HiggsExtensions</text>
</g>
<!-- dir_b4b5f93d3cc1e637f84c2b399d974651 -->
<g id="node2" class="node">
<title>dir_b4b5f93d3cc1e637f84c2b399d974651</title>
<g id="a_node2"><a xlink:href="dir_b4b5f93d3cc1e637f84c2b399d974651.html" target="_top" xlink:title="nbproject">
<polygon fill="#ffffff" stroke="#ff0000" points="142,-180 88,-180 88,-144 142,-144 142,-180"/>
<text text-anchor="middle" x="115" y="-160.1" font-family="Helvetica,sans-Serif" font-size="8.00" fill="#000000">nbproject</text>
</a>
</g>
</g>
<!-- dir_937ae1c3882a5cfb38c2372d7537f252 -->
<g id="node3" class="node">
<title>dir_937ae1c3882a5cfb38c2372d7537f252</title>
<g id="a_node3"><a xlink:href="dir_937ae1c3882a5cfb38c2372d7537f252.html" target="_top" xlink:title="src">
<polygon fill="#ffffff" stroke="#000000" points="70,-180 16,-180 16,-144 70,-144 70,-180"/>
<text text-anchor="middle" x="43" y="-160.1" font-family="Helvetica,sans-Serif" font-size="8.00" fill="#000000">src</text>
</a>
</g>
</g>
<!-- dir_5db6616082cde53441490dccc55cf8fe -->
<g id="node4" class="node">
<title>dir_5db6616082cde53441490dccc55cf8fe</title>
<g id="a_node4"><a xlink:href="dir_5db6616082cde53441490dccc55cf8fe.html" target="_top" xlink:title="Observables">
<polygon fill="none" stroke="#ff0000" points="73.5,-36 12.5,-36 12.5,0 73.5,0 73.5,-36"/>
<text text-anchor="middle" x="43" y="-16.1" font-family="Helvetica,sans-Serif" font-size="8.00" fill="#000000">Observables</text>
</a>
</g>
</g>
<!-- dir_937ae1c3882a5cfb38c2372d7537f252&#45;&gt;dir_5db6616082cde53441490dccc55cf8fe -->
<g id="edge1" class="edge">
<title>dir_937ae1c3882a5cfb38c2372d7537f252&#45;&gt;dir_5db6616082cde53441490dccc55cf8fe</title>
<path fill="none" stroke="#000000" d="M38.7325,-143.6221C36.538,-133.2314 34.0984,-119.963 33,-108 31.5372,-92.067 31.5372,-87.933 33,-72 33.7723,-63.5885 35.2077,-54.5317 36.7547,-46.2836"/>
<polygon fill="#000000" stroke="#000000" points="40.2067,-46.8697 38.7325,-36.3779 33.3422,-45.499 40.2067,-46.8697"/>
<g id="a_edge1&#45;headlabel"><a xlink:href="dir_000122_000076.html" target="_top" xlink:title="1">
<text text-anchor="middle" x="42.2873" y="-49.0506" font-family="Helvetica,sans-Serif" font-size="8.00" fill="#000000">1</text>
</a>
</g>
</g>
<!-- dir_666c9667863ccc7af17064510cec8262 -->
<g id="node5" class="node">
<title>dir_666c9667863ccc7af17064510cec8262</title>
<g id="a_node5"><a xlink:href="dir_666c9667863ccc7af17064510cec8262.html" target="_top" xlink:title="NewPhysics">
<polygon fill="none" stroke="#ff0000" points="102,-108 42,-108 42,-72 102,-72 102,-108"/>
<text text-anchor="middle" x="72" y="-88.1" font-family="Helvetica,sans-Serif" font-size="8.00" fill="#000000">NewPhysics</text>
</a>
</g>
</g>
<!-- dir_937ae1c3882a5cfb38c2372d7537f252&#45;&gt;dir_666c9667863ccc7af17064510cec8262 -->
<g id="edge2" class="edge">
<title>dir_937ae1c3882a5cfb38c2372d7537f252&#45;&gt;dir_666c9667863ccc7af17064510cec8262</title>
<path fill="none" stroke="#000000" d="M50.3179,-143.8314C53.4876,-135.9617 57.27,-126.5712 60.7813,-117.8533"/>
<polygon fill="#000000" stroke="#000000" points="64.0939,-118.9968 64.5835,-108.4133 57.6008,-116.3815 64.0939,-118.9968"/>
<g id="a_edge2&#45;headlabel"><a xlink:href="dir_000122_000073.html" target="_top" xlink:title="8">
<text text-anchor="middle" x="65.3847" y="-121.4919" font-family="Helvetica,sans-Serif" font-size="8.00" fill="#000000">8</text>
</a>
</g>
</g>
<!-- dir_666c9667863ccc7af17064510cec8262&#45;&gt;dir_5db6616082cde53441490dccc55cf8fe -->
<g id="edge3" class="edge">
<title>dir_666c9667863ccc7af17064510cec8262&#45;&gt;dir_5db6616082cde53441490dccc55cf8fe</title>
<path fill="none" stroke="#000000" d="M64.6821,-71.8314C61.5124,-63.9617 57.73,-54.5712 54.2187,-45.8533"/>
<polygon fill="#000000" stroke="#000000" points="57.3992,-44.3815 50.4165,-36.4133 50.9061,-46.9968 57.3992,-44.3815"/>
<g id="a_edge3&#45;headlabel"><a xlink:href="dir_000073_000076.html" target="_top" xlink:title="3">
<text text-anchor="middle" x="61.3758" y="-44.755" font-family="Helvetica,sans-Serif" font-size="8.00" fill="#000000">3</text>
</a>
</g>
</g>
</g>
</svg>
