<?xml version="1.0" encoding="UTF-8" standalone="no"?>
<!DOCTYPE svg PUBLIC "-//W3C//DTD SVG 1.1//EN"
 "http://www.w3.org/Graphics/SVG/1.1/DTD/svg11.dtd">
<!-- Generated by graphviz version 2.40.1 (20161225.0304)
 -->
<!-- Title: SLHA Pages: 1 -->
<svg width="194pt" height="229pt"
 viewBox="0.00 0.00 194.00 229.00" xmlns="http://www.w3.org/2000/svg" xmlns:xlink="http://www.w3.org/1999/xlink">
<g id="graph0" class="graph" transform="scale(1 1) rotate(0) translate(4 225)">
<title>SLHA</title>
<g id="clust1" class="cluster">
<title>clusterdir_1486e6593103df4335f587ef037467ee</title>
<g id="a_clust1"><a xlink:href="dir_1486e6593103df4335f587ef037467ee.html" target="_top" xlink:title="include">
<polygon fill="#ddddee" stroke="#000000" points="8,-128 8,-213 178,-213 178,-128 8,-128"/>
<text text-anchor="middle" x="93" y="-202.6" font-family="Helvetica,sans-Serif" font-size="8.00" fill="#000000">include</text>
</a>
</g>
</g>
<g id="clust2" class="cluster">
<title>clusterdir_a47d39369210e8db882231be100e9b76</title>
<g id="a_clust2"><a xlink:href="dir_a47d39369210e8db882231be100e9b76.html" target="_top">
<polygon fill="#eeeeff" stroke="#000000" points="16,-136 16,-188 170,-188 170,-136 16,-136"/>
</a>
</g>
</g>
<!-- dir_a47d39369210e8db882231be100e9b76 -->
<g id="node1" class="node">
<title>dir_a47d39369210e8db882231be100e9b76</title>
<text text-anchor="middle" x="135" y="-160.1" font-family="Helvetica,sans-Serif" font-size="8.00" fill="#000000">SLHA</text>
</g>
<!-- dir_cc0154dc66722399dd443d0bd62bc90c -->
<g id="node2" class="node">
<title>dir_cc0154dc66722399dd443d0bd62bc90c</title>
<g id="a_node2"><a xlink:href="dir_cc0154dc66722399dd443d0bd62bc90c.html" target="_top" xlink:title="BlockClasses">
<polygon fill="#ffffff" stroke="#ff0000" points="89.5,-180 24.5,-180 24.5,-144 89.5,-144 89.5,-180"/>
<text text-anchor="middle" x="57" y="-160.1" font-family="Helvetica,sans-Serif" font-size="8.00" fill="#000000">BlockClasses</text>
</a>
</g>
</g>
<!-- dir_a2a3f3edbd85ace4a0dd42a1b8f9d7b5 -->
<g id="node3" class="node">
<title>dir_a2a3f3edbd85ace4a0dd42a1b8f9d7b5</title>
<g id="a_node3"><a xlink:href="dir_a2a3f3edbd85ace4a0dd42a1b8f9d7b5.html" target="_top" xlink:title="BOLlib">
<polygon fill="none" stroke="#ff0000" points="83,-36 29,-36 29,0 83,0 83,-36"/>
<text text-anchor="middle" x="56" y="-16.1" font-family="Helvetica,sans-Serif" font-size="8.00" fill="#000000">BOLlib</text>
</a>
</g>
</g>
<!-- dir_cc0154dc66722399dd443d0bd62bc90c&#45;&gt;dir_a2a3f3edbd85ace4a0dd42a1b8f9d7b5 -->
<g id="edge2" class="edge">
<title>dir_cc0154dc66722399dd443d0bd62bc90c&#45;&gt;dir_a2a3f3edbd85ace4a0dd42a1b8f9d7b5</title>
<path fill="none" stroke="#000000" d="M53.1587,-143.6001C51.1834,-133.2025 48.9877,-119.9346 48,-108 46.6803,-92.0545 46.8244,-87.9568 48,-72 48.6169,-63.6264 49.7649,-54.5812 51.0026,-46.3322"/>
<polygon fill="#000000" stroke="#000000" points="54.4648,-46.8463 52.585,-36.4196 47.5523,-45.7428 54.4648,-46.8463"/>
<g id="a_edge2&#45;headlabel"><a xlink:href="dir_000017_000008.html" target="_top" xlink:title="5">
<text text-anchor="middle" x="56.702" y="-48.9436" font-family="Helvetica,sans-Serif" font-size="8.00" fill="#000000">5</text>
</a>
</g>
</g>
<!-- dir_e3592d61c4cbe3566eb8d43595d503fe -->
<g id="node4" class="node">
<title>dir_e3592d61c4cbe3566eb8d43595d503fe</title>
<g id="a_node4"><a xlink:href="dir_e3592d61c4cbe3566eb8d43595d503fe.html" target="_top" xlink:title="MEC">
<polygon fill="none" stroke="#ff0000" points="111,-108 57,-108 57,-72 111,-72 111,-108"/>
<text text-anchor="middle" x="84" y="-88.1" font-family="Helvetica,sans-Serif" font-size="8.00" fill="#000000">MEC</text>
</a>
</g>
</g>
<!-- dir_cc0154dc66722399dd443d0bd62bc90c&#45;&gt;dir_e3592d61c4cbe3566eb8d43595d503fe -->
<g id="edge3" class="edge">
<title>dir_cc0154dc66722399dd443d0bd62bc90c&#45;&gt;dir_e3592d61c4cbe3566eb8d43595d503fe</title>
<path fill="none" stroke="#000000" d="M63.8132,-143.8314C66.7644,-135.9617 70.2858,-126.5712 73.555,-117.8533"/>
<polygon fill="#000000" stroke="#000000" points="76.8609,-119.0055 77.095,-108.4133 70.3066,-116.5476 76.8609,-119.0055"/>
<g id="a_edge3&#45;headlabel"><a xlink:href="dir_000017_000102.html" target="_top" xlink:title="6">
<text text-anchor="middle" x="78.2573" y="-121.4682" font-family="Helvetica,sans-Serif" font-size="8.00" fill="#000000">6</text>
</a>
</g>
</g>
<!-- dir_e3592d61c4cbe3566eb8d43595d503fe&#45;&gt;dir_a2a3f3edbd85ace4a0dd42a1b8f9d7b5 -->
<g id="edge1" class="edge">
<title>dir_e3592d61c4cbe3566eb8d43595d503fe&#45;&gt;dir_a2a3f3edbd85ace4a0dd42a1b8f9d7b5</title>
<path fill="none" stroke="#000000" d="M76.9344,-71.8314C73.874,-63.9617 70.2221,-54.5712 66.8318,-45.8533"/>
<polygon fill="#000000" stroke="#000000" points="70.0473,-44.4647 63.1607,-36.4133 63.5232,-47.0019 70.0473,-44.4647"/>
<g id="a_edge1&#45;headlabel"><a xlink:href="dir_000102_000008.html" target="_top" xlink:title="7">
<text text-anchor="middle" x="73.9963" y="-44.8859" font-family="Helvetica,sans-Serif" font-size="8.00" fill="#000000">7</text>
</a>
</g>
</g>
</g>
</svg>
