<?xml version="1.0" encoding="UTF-8" standalone="no"?>
<!DOCTYPE svg PUBLIC "-//W3C//DTD SVG 1.1//EN"
 "http://www.w3.org/Graphics/SVG/1.1/DTD/svg11.dtd">
<!-- Generated by graphviz version 2.40.1 (20161225.0304)
 -->
<!-- Title: src Pages: 1 -->
<svg width="341pt" height="437pt"
 viewBox="0.00 0.00 341.22 437.00" xmlns="http://www.w3.org/2000/svg" xmlns:xlink="http://www.w3.org/1999/xlink">
<g id="graph0" class="graph" transform="scale(1 1) rotate(0) translate(4 433)">
<title>src</title>
<g id="clust1" class="cluster">
<title>clusterdir_6e393f1cfc0ec71aa9e8f3d2e068aede</title>
<g id="a_clust1"><a xlink:href="dir_6e393f1cfc0ec71aa9e8f3d2e068aede.html" target="_top" xlink:title="GeneralTHDM">
<polygon fill="#ddddee" stroke="#000000" points="130.2232,-352 130.2232,-421 200.2232,-421 200.2232,-352 130.2232,-352"/>
<text text-anchor="middle" x="165.2232" y="-410.6" font-family="Helvetica,sans-Serif" font-size="8.00" fill="#000000">GeneralTHDM</text>
</a>
</g>
</g>
<!-- dir_e0771760c57e2379c2b9ea45e6536d33 -->
<g id="node1" class="node">
<title>dir_e0771760c57e2379c2b9ea45e6536d33</title>
<g id="a_node1"><a xlink:href="dir_e0771760c57e2379c2b9ea45e6536d33.html" target="_top" xlink:title="src">
<polygon fill="#eeeeff" stroke="#000000" points="192.2232,-396 138.2232,-396 138.2232,-360 192.2232,-360 192.2232,-396"/>
<text text-anchor="middle" x="165.2232" y="-376.1" font-family="Helvetica,sans-Serif" font-size="8.00" fill="#000000">src</text>
</a>
</g>
</g>
<!-- dir_c2aa2cb4e0c986d55db329a86184b083 -->
<g id="node2" class="node">
<title>dir_c2aa2cb4e0c986d55db329a86184b083</title>
<g id="a_node2"><a xlink:href="dir_c2aa2cb4e0c986d55db329a86184b083.html" target="_top" xlink:title="StandardModel">
<polygon fill="none" stroke="#ff0000" points="155.7232,-252 84.7232,-252 84.7232,-216 155.7232,-216 155.7232,-252"/>
<text text-anchor="middle" x="120.2232" y="-232.1" font-family="Helvetica,sans-Serif" font-size="8.00" fill="#000000">StandardModel</text>
</a>
</g>
</g>
<!-- dir_e0771760c57e2379c2b9ea45e6536d33&#45;&gt;dir_c2aa2cb4e0c986d55db329a86184b083 -->
<g id="edge5" class="edge">
<title>dir_e0771760c57e2379c2b9ea45e6536d33&#45;&gt;dir_c2aa2cb4e0c986d55db329a86184b083</title>
<path fill="none" stroke="#000000" d="M159.524,-359.7623C151.8148,-335.0928 137.9919,-290.8598 128.9648,-261.9731"/>
<polygon fill="#000000" stroke="#000000" points="132.1998,-260.5904 125.8763,-252.0896 125.5184,-262.6784 132.1998,-260.5904"/>
<g id="a_edge5&#45;headlabel"><a xlink:href="dir_000118_000004.html" target="_top" xlink:title="9">
<text text-anchor="middle" x="135.9819" y="-261.2746" font-family="Helvetica,sans-Serif" font-size="8.00" fill="#000000">9</text>
</a>
</g>
</g>
<!-- dir_5db6616082cde53441490dccc55cf8fe -->
<g id="node3" class="node">
<title>dir_5db6616082cde53441490dccc55cf8fe</title>
<g id="a_node3"><a xlink:href="dir_5db6616082cde53441490dccc55cf8fe.html" target="_top" xlink:title="Observables">
<polygon fill="none" stroke="#ff0000" points="92.7232,-108 31.7232,-108 31.7232,-72 92.7232,-72 92.7232,-108"/>
<text text-anchor="middle" x="62.2232" y="-88.1" font-family="Helvetica,sans-Serif" font-size="8.00" fill="#000000">Observables</text>
</a>
</g>
</g>
<!-- dir_e0771760c57e2379c2b9ea45e6536d33&#45;&gt;dir_5db6616082cde53441490dccc55cf8fe -->
<g id="edge6" class="edge">
<title>dir_e0771760c57e2379c2b9ea45e6536d33&#45;&gt;dir_5db6616082cde53441490dccc55cf8fe</title>
<path fill="none" stroke="#000000" d="M137.9354,-371.8256C99.6561,-362.5482 33.1225,-343.9603 19.2232,-324 -25.2728,-260.1005 19.0798,-163.4223 45.5568,-116.8901"/>
<polygon fill="#000000" stroke="#000000" points="48.7197,-118.4144 50.7396,-108.0139 42.6747,-114.8847 48.7197,-118.4144"/>
<g id="a_edge6&#45;headlabel"><a xlink:href="dir_000118_000076.html" target="_top" xlink:title="9">
<text text-anchor="middle" x="49.359" y="-121.0503" font-family="Helvetica,sans-Serif" font-size="8.00" fill="#000000">9</text>
</a>
</g>
</g>
<!-- dir_0eda29277a6077c1c02542f56cc6373a -->
<g id="node4" class="node">
<title>dir_0eda29277a6077c1c02542f56cc6373a</title>
<g id="a_node4"><a xlink:href="dir_0eda29277a6077c1c02542f56cc6373a.html" target="_top" xlink:title="LeptonFlavour">
<polygon fill="none" stroke="#ff0000" points="217.2232,-180 149.2232,-180 149.2232,-144 217.2232,-144 217.2232,-180"/>
<text text-anchor="middle" x="183.2232" y="-160.1" font-family="Helvetica,sans-Serif" font-size="8.00" fill="#000000">LeptonFlavour</text>
</a>
</g>
</g>
<!-- dir_e0771760c57e2379c2b9ea45e6536d33&#45;&gt;dir_0eda29277a6077c1c02542f56cc6373a -->
<g id="edge7" class="edge">
<title>dir_e0771760c57e2379c2b9ea45e6536d33&#45;&gt;dir_0eda29277a6077c1c02542f56cc6373a</title>
<path fill="none" stroke="#000000" d="M166.727,-359.9555C169.8637,-322.3144 177.1244,-235.1867 180.8795,-190.1246"/>
<polygon fill="#000000" stroke="#000000" points="184.3685,-190.4012 181.7112,-180.1451 177.3927,-189.8198 184.3685,-190.4012"/>
<g id="a_edge7&#45;headlabel"><a xlink:href="dir_000118_000062.html" target="_top" xlink:title="1">
<text text-anchor="middle" x="186.8996" y="-192.3192" font-family="Helvetica,sans-Serif" font-size="8.00" fill="#000000">1</text>
</a>
</g>
</g>
<!-- dir_666c9667863ccc7af17064510cec8262 -->
<g id="node5" class="node">
<title>dir_666c9667863ccc7af17064510cec8262</title>
<g id="a_node5"><a xlink:href="dir_666c9667863ccc7af17064510cec8262.html" target="_top" xlink:title="NewPhysics">
<polygon fill="none" stroke="#ff0000" points="88.2232,-324 28.2232,-324 28.2232,-288 88.2232,-288 88.2232,-324"/>
<text text-anchor="middle" x="58.2232" y="-304.1" font-family="Helvetica,sans-Serif" font-size="8.00" fill="#000000">NewPhysics</text>
</a>
</g>
</g>
<!-- dir_e0771760c57e2379c2b9ea45e6536d33&#45;&gt;dir_666c9667863ccc7af17064510cec8262 -->
<g id="edge8" class="edge">
<title>dir_e0771760c57e2379c2b9ea45e6536d33&#45;&gt;dir_666c9667863ccc7af17064510cec8262</title>
<path fill="none" stroke="#000000" d="M138.2226,-359.8314C124.7901,-350.7927 108.3759,-339.7476 93.9194,-330.0198"/>
<polygon fill="#000000" stroke="#000000" points="95.4658,-326.8418 85.2152,-324.1628 91.5578,-332.6494 95.4658,-326.8418"/>
<g id="a_edge8&#45;headlabel"><a xlink:href="dir_000118_000073.html" target="_top" xlink:title="1">
<text text-anchor="middle" x="100.0331" y="-324.5929" font-family="Helvetica,sans-Serif" font-size="8.00" fill="#000000">1</text>
</a>
</g>
</g>
<!-- dir_6db1c069948d59c49e3dd255dfa7d52e -->
<g id="node6" class="node">
<title>dir_6db1c069948d59c49e3dd255dfa7d52e</title>
<g id="a_node6"><a xlink:href="dir_6db1c069948d59c49e3dd255dfa7d52e.html" target="_top" xlink:title="LoopFunctions">
<polygon fill="none" stroke="#ff0000" points="304.7232,-180 235.7232,-180 235.7232,-144 304.7232,-144 304.7232,-180"/>
<text text-anchor="middle" x="270.2232" y="-160.1" font-family="Helvetica,sans-Serif" font-size="8.00" fill="#000000">LoopFunctions</text>
</a>
</g>
</g>
<!-- dir_e0771760c57e2379c2b9ea45e6536d33&#45;&gt;dir_6db1c069948d59c49e3dd255dfa7d52e -->
<g id="edge9" class="edge">
<title>dir_e0771760c57e2379c2b9ea45e6536d33&#45;&gt;dir_6db1c069948d59c49e3dd255dfa7d52e</title>
<path fill="none" stroke="#000000" d="M173.9949,-359.9555C192.4085,-322.0762 235.1835,-234.0818 256.965,-189.274"/>
<polygon fill="#000000" stroke="#000000" points="260.1785,-190.6689 261.4027,-180.1451 253.883,-187.6086 260.1785,-190.6689"/>
<g id="a_edge9&#45;headlabel"><a xlink:href="dir_000118_000020.html" target="_top" xlink:title="2">
<text text-anchor="middle" x="261.1606" y="-193.2431" font-family="Helvetica,sans-Serif" font-size="8.00" fill="#000000">2</text>
</a>
</g>
</g>
<!-- dir_a41afcbfbf54af8aa656914f5423c760 -->
<g id="node7" class="node">
<title>dir_a41afcbfbf54af8aa656914f5423c760</title>
<g id="a_node7"><a xlink:href="dir_a41afcbfbf54af8aa656914f5423c760.html" target="_top" xlink:title="gslpp">
<polygon fill="none" stroke="#ff0000" points="179.2232,-36 125.2232,-36 125.2232,0 179.2232,0 179.2232,-36"/>
<text text-anchor="middle" x="152.2232" y="-16.1" font-family="Helvetica,sans-Serif" font-size="8.00" fill="#000000">gslpp</text>
</a>
</g>
</g>
<!-- dir_e0771760c57e2379c2b9ea45e6536d33&#45;&gt;dir_a41afcbfbf54af8aa656914f5423c760 -->
<g id="edge10" class="edge">
<title>dir_e0771760c57e2379c2b9ea45e6536d33&#45;&gt;dir_a41afcbfbf54af8aa656914f5423c760</title>
<path fill="none" stroke="#000000" d="M192.5893,-368.9154C240.194,-351.187 333.2232,-307.1801 333.2232,-234 333.2232,-234 333.2232,-234 333.2232,-162 333.2232,-89.0041 241.9569,-47.0665 189.0396,-28.8855"/>
<polygon fill="#000000" stroke="#000000" points="189.9141,-25.4882 179.3208,-25.6643 187.7119,-32.1327 189.9141,-25.4882"/>
<g id="a_edge10&#45;headlabel"><a xlink:href="dir_000118_000050.html" target="_top" xlink:title="8">
<text text-anchor="middle" x="194.2195" y="-22.0239" font-family="Helvetica,sans-Serif" font-size="8.00" fill="#000000">8</text>
</a>
</g>
</g>
<!-- dir_c2aa2cb4e0c986d55db329a86184b083&#45;&gt;dir_5db6616082cde53441490dccc55cf8fe -->
<g id="edge1" class="edge">
<title>dir_c2aa2cb4e0c986d55db329a86184b083&#45;&gt;dir_5db6616082cde53441490dccc55cf8fe</title>
<path fill="none" stroke="#000000" d="M108.2043,-215.7623C95.7974,-191.0928 77.715,-146.8598 68.0181,-117.9731"/>
<polygon fill="#000000" stroke="#000000" points="71.2358,-116.5446 64.8511,-108.0896 64.5696,-118.6807 71.2358,-116.5446"/>
<g id="a_edge1&#45;headlabel"><a xlink:href="dir_000004_000076.html" target="_top" xlink:title="2">
<text text-anchor="middle" x="75.0365" y="-117.2013" font-family="Helvetica,sans-Serif" font-size="8.00" fill="#000000">2</text>
</a>
</g>
</g>
<!-- dir_c2aa2cb4e0c986d55db329a86184b083&#45;&gt;dir_0eda29277a6077c1c02542f56cc6373a -->
<g id="edge2" class="edge">
<title>dir_c2aa2cb4e0c986d55db329a86184b083&#45;&gt;dir_0eda29277a6077c1c02542f56cc6373a</title>
<path fill="none" stroke="#000000" d="M130.1684,-215.8314C136.748,-207.3694 145.5057,-197.1489 154.0553,-187.8971"/>
<polygon fill="#000000" stroke="#000000" points="156.8056,-190.0829 161.1356,-180.4133 151.7206,-185.2721 156.8056,-190.0829"/>
<g id="a_edge2&#45;headlabel"><a xlink:href="dir_000004_000062.html" target="_top" xlink:title="1">
<text text-anchor="middle" x="156.3977" y="-192.7453" font-family="Helvetica,sans-Serif" font-size="8.00" fill="#000000">1</text>
</a>
</g>
</g>
<!-- dir_c2aa2cb4e0c986d55db329a86184b083&#45;&gt;dir_6db1c069948d59c49e3dd255dfa7d52e -->
<g id="edge3" class="edge">
<title>dir_c2aa2cb4e0c986d55db329a86184b083&#45;&gt;dir_6db1c069948d59c49e3dd255dfa7d52e</title>
<path fill="none" stroke="#000000" d="M155.7712,-216.937C177.0153,-206.7398 204.1632,-193.7088 226.6869,-182.8975"/>
<polygon fill="#000000" stroke="#000000" points="228.2051,-186.0511 235.7058,-178.5684 225.176,-179.7404 228.2051,-186.0511"/>
<g id="a_edge3&#45;headlabel"><a xlink:href="dir_000004_000020.html" target="_top" xlink:title="8">
<text text-anchor="middle" x="226.1931" y="-188.2662" font-family="Helvetica,sans-Serif" font-size="8.00" fill="#000000">8</text>
</a>
</g>
</g>
<!-- dir_c2aa2cb4e0c986d55db329a86184b083&#45;&gt;dir_a41afcbfbf54af8aa656914f5423c760 -->
<g id="edge4" class="edge">
<title>dir_c2aa2cb4e0c986d55db329a86184b083&#45;&gt;dir_a41afcbfbf54af8aa656914f5423c760</title>
<path fill="none" stroke="#000000" d="M122.8965,-215.9555C128.473,-178.3144 141.3808,-91.1867 148.0566,-46.1246"/>
<polygon fill="#000000" stroke="#000000" points="151.5317,-46.5501 149.5351,-36.1451 144.6073,-45.5242 151.5317,-46.5501"/>
<g id="a_edge4&#45;headlabel"><a xlink:href="dir_000004_000050.html" target="_top" xlink:title="16">
<text text-anchor="middle" x="153.8136" y="-48.6219" font-family="Helvetica,sans-Serif" font-size="8.00" fill="#000000">16</text>
</a>
</g>
</g>
<!-- dir_5db6616082cde53441490dccc55cf8fe&#45;&gt;dir_c2aa2cb4e0c986d55db329a86184b083 -->
<g id="edge11" class="edge">
<title>dir_5db6616082cde53441490dccc55cf8fe&#45;&gt;dir_c2aa2cb4e0c986d55db329a86184b083</title>
<path fill="none" stroke="#000000" d="M74.1676,-108.0896C86.6061,-132.7884 104.7983,-177.2933 114.4975,-206.2331"/>
<polygon fill="#000000" stroke="#000000" points="111.1663,-207.3071 117.5507,-215.7623 117.8325,-205.1712 111.1663,-207.3071"/>
<g id="a_edge11&#45;headlabel"><a xlink:href="dir_000076_000004.html" target="_top" xlink:title="3">
<text text-anchor="middle" x="107.3657" y="-202.8502" font-family="Helvetica,sans-Serif" font-size="8.00" fill="#000000">3</text>
</a>
</g>
</g>
<!-- dir_5db6616082cde53441490dccc55cf8fe&#45;&gt;dir_a41afcbfbf54af8aa656914f5423c760 -->
<g id="edge12" class="edge">
<title>dir_5db6616082cde53441490dccc55cf8fe&#45;&gt;dir_a41afcbfbf54af8aa656914f5423c760</title>
<path fill="none" stroke="#000000" d="M84.934,-71.8314C96.0192,-62.9632 109.5186,-52.1637 121.5085,-42.5718"/>
<polygon fill="#000000" stroke="#000000" points="123.8974,-45.1429 129.5197,-36.1628 119.5246,-39.6768 123.8974,-45.1429"/>
<g id="a_edge12&#45;headlabel"><a xlink:href="dir_000076_000050.html" target="_top" xlink:title="3">
<text text-anchor="middle" x="122.8642" y="-47.7055" font-family="Helvetica,sans-Serif" font-size="8.00" fill="#000000">3</text>
</a>
</g>
</g>
<!-- dir_0eda29277a6077c1c02542f56cc6373a&#45;&gt;dir_c2aa2cb4e0c986d55db329a86184b083 -->
<g id="edge13" class="edge">
<title>dir_0eda29277a6077c1c02542f56cc6373a&#45;&gt;dir_c2aa2cb4e0c986d55db329a86184b083</title>
<path fill="none" stroke="#000000" d="M173.0876,-180.4133C166.4664,-188.9088 157.6899,-199.1366 149.1446,-208.3696"/>
<polygon fill="#000000" stroke="#000000" points="146.4114,-206.1654 142.0732,-215.8314 151.4923,-210.9805 146.4114,-206.1654"/>
<g id="a_edge13&#45;headlabel"><a xlink:href="dir_000062_000004.html" target="_top" xlink:title="16">
<text text-anchor="middle" x="146.8231" y="-199.7033" font-family="Helvetica,sans-Serif" font-size="8.00" fill="#000000">16</text>
</a>
</g>
</g>
<!-- dir_0eda29277a6077c1c02542f56cc6373a&#45;&gt;dir_5db6616082cde53441490dccc55cf8fe -->
<g id="edge14" class="edge">
<title>dir_0eda29277a6077c1c02542f56cc6373a&#45;&gt;dir_5db6616082cde53441490dccc55cf8fe</title>
<path fill="none" stroke="#000000" d="M152.6898,-143.8314C137.2132,-134.6221 118.2363,-123.3301 101.6669,-113.4706"/>
<polygon fill="#000000" stroke="#000000" points="103.1303,-110.2687 92.7469,-108.1628 99.5508,-116.2843 103.1303,-110.2687"/>
<g id="a_edge14&#45;headlabel"><a xlink:href="dir_000062_000076.html" target="_top" xlink:title="4">
<text text-anchor="middle" x="107.6713" y="-107.7668" font-family="Helvetica,sans-Serif" font-size="8.00" fill="#000000">4</text>
</a>
</g>
</g>
<!-- dir_0eda29277a6077c1c02542f56cc6373a&#45;&gt;dir_a41afcbfbf54af8aa656914f5423c760 -->
<g id="edge15" class="edge">
<title>dir_0eda29277a6077c1c02542f56cc6373a&#45;&gt;dir_a41afcbfbf54af8aa656914f5423c760</title>
<path fill="none" stroke="#000000" d="M179.2971,-143.7623C173.9863,-119.0928 164.4639,-74.8598 158.2452,-45.9731"/>
<polygon fill="#000000" stroke="#000000" points="161.6438,-45.129 156.1175,-36.0896 154.8006,-46.6023 161.6438,-45.129"/>
<g id="a_edge15&#45;headlabel"><a xlink:href="dir_000062_000050.html" target="_top" xlink:title="4">
<text text-anchor="middle" x="165.1759" y="-46.1456" font-family="Helvetica,sans-Serif" font-size="8.00" fill="#000000">4</text>
</a>
</g>
</g>
<!-- dir_666c9667863ccc7af17064510cec8262&#45;&gt;dir_c2aa2cb4e0c986d55db329a86184b083 -->
<g id="edge16" class="edge">
<title>dir_666c9667863ccc7af17064510cec8262&#45;&gt;dir_c2aa2cb4e0c986d55db329a86184b083</title>
<path fill="none" stroke="#000000" d="M73.8685,-287.8314C81.0823,-279.454 89.7803,-269.3531 97.6837,-260.1749"/>
<polygon fill="#000000" stroke="#000000" points="100.4943,-262.2748 104.3674,-252.4133 95.1899,-257.7071 100.4943,-262.2748"/>
<g id="a_edge16&#45;headlabel"><a xlink:href="dir_000073_000004.html" target="_top" xlink:title="9">
<text text-anchor="middle" x="100.3003" y="-264.9514" font-family="Helvetica,sans-Serif" font-size="8.00" fill="#000000">9</text>
</a>
</g>
</g>
<!-- dir_666c9667863ccc7af17064510cec8262&#45;&gt;dir_5db6616082cde53441490dccc55cf8fe -->
<g id="edge17" class="edge">
<title>dir_666c9667863ccc7af17064510cec8262&#45;&gt;dir_5db6616082cde53441490dccc55cf8fe</title>
<path fill="none" stroke="#000000" d="M58.5574,-287.9555C59.253,-250.3938 60.8611,-163.5541 61.6971,-118.4103"/>
<polygon fill="#000000" stroke="#000000" points="65.2014,-118.2082 61.8872,-108.1451 58.2026,-118.0785 65.2014,-118.2082"/>
<g id="a_edge17&#45;headlabel"><a xlink:href="dir_000073_000076.html" target="_top" xlink:title="3">
<text text-anchor="middle" x="67.9737" y="-119.9547" font-family="Helvetica,sans-Serif" font-size="8.00" fill="#000000">3</text>
</a>
</g>
</g>
<!-- dir_666c9667863ccc7af17064510cec8262&#45;&gt;dir_a41afcbfbf54af8aa656914f5423c760 -->
<g id="edge18" class="edge">
<title>dir_666c9667863ccc7af17064510cec8262&#45;&gt;dir_a41afcbfbf54af8aa656914f5423c760</title>
<path fill="none" stroke="#000000" d="M47.6011,-287.7536C24.7085,-245.7806 -23.6419,-140.7164 22.2232,-72 42.7626,-41.2274 84.4709,-27.966 115.1288,-22.2664"/>
<polygon fill="#000000" stroke="#000000" points="115.7686,-25.7081 125.0557,-20.609 114.6158,-18.8036 115.7686,-25.7081"/>
<g id="a_edge18&#45;headlabel"><a xlink:href="dir_000073_000050.html" target="_top" xlink:title="8">
<text text-anchor="middle" x="112.6906" y="-27.2005" font-family="Helvetica,sans-Serif" font-size="8.00" fill="#000000">8</text>
</a>
</g>
</g>
<!-- dir_6db1c069948d59c49e3dd255dfa7d52e&#45;&gt;dir_a41afcbfbf54af8aa656914f5423c760 -->
<g id="edge19" class="edge">
<title>dir_6db1c069948d59c49e3dd255dfa7d52e&#45;&gt;dir_a41afcbfbf54af8aa656914f5423c760</title>
<path fill="none" stroke="#000000" d="M255.2785,-143.7623C234.6199,-118.5518 197.2192,-72.9103 173.6068,-44.0952"/>
<polygon fill="#000000" stroke="#000000" points="176.0921,-41.606 167.0467,-36.0896 170.6778,-46.0428 176.0921,-41.606"/>
<g id="a_edge19&#45;headlabel"><a xlink:href="dir_000020_000050.html" target="_top" xlink:title="2">
<text text-anchor="middle" x="180.5666" y="-40.6868" font-family="Helvetica,sans-Serif" font-size="8.00" fill="#000000">2</text>
</a>
</g>
</g>
</g>
</svg>
