<?xml version="1.0" encoding="UTF-8" standalone="no"?>
<!DOCTYPE svg PUBLIC "-//W3C//DTD SVG 1.1//EN"
 "http://www.w3.org/Graphics/SVG/1.1/DTD/svg11.dtd">
<!-- Generated by graphviz version 2.40.1 (20161225.0304)
 -->
<!-- Title: Observables Pages: 1 -->
<svg width="319pt" height="188pt"
 viewBox="0.00 0.00 318.50 188.00" xmlns="http://www.w3.org/2000/svg" xmlns:xlink="http://www.w3.org/1999/xlink">
<g id="graph0" class="graph" transform="scale(1 1) rotate(0) translate(4 184)">
<title>Observables</title>
<g id="clust1" class="cluster">
<title>clusterdir_5db6616082cde53441490dccc55cf8fe</title>
<g id="a_clust1"><a xlink:href="dir_5db6616082cde53441490dccc55cf8fe.html" target="_top">
<polygon fill="#eeeeff" stroke="#000000" points="8,-64 8,-116 230,-116 230,-64 8,-64"/>
</a>
</g>
</g>
<!-- dir_5db6616082cde53441490dccc55cf8fe -->
<g id="node1" class="node">
<title>dir_5db6616082cde53441490dccc55cf8fe</title>
<text text-anchor="middle" x="191" y="-88.1" font-family="Helvetica,sans-Serif" font-size="8.00" fill="#000000">Observables</text>
</g>
<!-- dir_8b86502b4a632035bd46a716c83dd4e5 -->
<g id="node2" class="node">
<title>dir_8b86502b4a632035bd46a716c83dd4e5</title>
<g id="a_node2"><a xlink:href="dir_8b86502b4a632035bd46a716c83dd4e5.html" target="_top" xlink:title="nbproject">
<polygon fill="#ffffff" stroke="#ff0000" points="142,-108 88,-108 88,-72 142,-72 142,-108"/>
<text text-anchor="middle" x="115" y="-88.1" font-family="Helvetica,sans-Serif" font-size="8.00" fill="#000000">nbproject</text>
</a>
</g>
</g>
<!-- dir_3f6dd9fc0a6293ee5ef16474cdc65f9f -->
<g id="node3" class="node">
<title>dir_3f6dd9fc0a6293ee5ef16474cdc65f9f</title>
<g id="a_node3"><a xlink:href="dir_3f6dd9fc0a6293ee5ef16474cdc65f9f.html" target="_top" xlink:title="src">
<polygon fill="#ffffff" stroke="#000000" points="70,-108 16,-108 16,-72 70,-72 70,-108"/>
<text text-anchor="middle" x="43" y="-88.1" font-family="Helvetica,sans-Serif" font-size="8.00" fill="#000000">src</text>
</a>
</g>
</g>
<!-- dir_c2aa2cb4e0c986d55db329a86184b083 -->
<g id="node4" class="node">
<title>dir_c2aa2cb4e0c986d55db329a86184b083</title>
<g id="a_node4"><a xlink:href="dir_c2aa2cb4e0c986d55db329a86184b083.html" target="_top" xlink:title="StandardModel">
<polygon fill="none" stroke="#ff0000" points="310.5,-108 239.5,-108 239.5,-72 310.5,-72 310.5,-108"/>
<text text-anchor="middle" x="275" y="-88.1" font-family="Helvetica,sans-Serif" font-size="8.00" fill="#000000">StandardModel</text>
</a>
</g>
</g>
<!-- dir_3f6dd9fc0a6293ee5ef16474cdc65f9f&#45;&gt;dir_c2aa2cb4e0c986d55db329a86184b083 -->
<g id="edge5" class="edge">
<title>dir_3f6dd9fc0a6293ee5ef16474cdc65f9f&#45;&gt;dir_c2aa2cb4e0c986d55db329a86184b083</title>
<path fill="none" stroke="#000000" d="M57.6797,-108.0984C65.655,-116.4747 76.2755,-125.5423 88,-130 116.4571,-140.8194 196.2718,-140.0773 225,-130 234.2442,-126.7573 243.049,-121.0071 250.6214,-114.8601"/>
<polygon fill="#000000" stroke="#000000" points="253.091,-117.3501 258.3172,-108.134 248.4844,-112.0795 253.091,-117.3501"/>
<g id="a_edge5&#45;headlabel"><a xlink:href="dir_000110_000004.html" target="_top" xlink:title="3">
<text text-anchor="middle" x="252.2529" y="-119.9535" font-family="Helvetica,sans-Serif" font-size="8.00" fill="#000000">3</text>
</a>
</g>
</g>
<!-- dir_6cc8451fad81479d5e8112c416332322 -->
<g id="node5" class="node">
<title>dir_6cc8451fad81479d5e8112c416332322</title>
<g id="a_node5"><a xlink:href="dir_6cc8451fad81479d5e8112c416332322.html" target="_top" xlink:title="InputParser">
<polygon fill="none" stroke="#ff0000" points="188,-180 130,-180 130,-144 188,-144 188,-180"/>
<text text-anchor="middle" x="159" y="-160.1" font-family="Helvetica,sans-Serif" font-size="8.00" fill="#000000">InputParser</text>
</a>
</g>
</g>
<!-- dir_3f6dd9fc0a6293ee5ef16474cdc65f9f&#45;&gt;dir_6cc8451fad81479d5e8112c416332322 -->
<g id="edge6" class="edge">
<title>dir_3f6dd9fc0a6293ee5ef16474cdc65f9f&#45;&gt;dir_6cc8451fad81479d5e8112c416332322</title>
<path fill="none" stroke="#000000" d="M58.6582,-108.2459C62.3424,-110.9115 66.2442,-113.5732 70,-116 86.0858,-126.3938 104.5925,-137.1107 120.6681,-145.5828"/>
<polygon fill="#000000" stroke="#000000" points="119.3225,-148.8266 129.8155,-150.2922 122.5267,-142.603 119.3225,-148.8266"/>
<g id="a_edge6&#45;headlabel"><a xlink:href="dir_000110_000056.html" target="_top" xlink:title="2">
<text text-anchor="middle" x="114.827" y="-147.8057" font-family="Helvetica,sans-Serif" font-size="8.00" fill="#000000">2</text>
</a>
</g>
</g>
<!-- dir_a41afcbfbf54af8aa656914f5423c760 -->
<g id="node6" class="node">
<title>dir_a41afcbfbf54af8aa656914f5423c760</title>
<g id="a_node6"><a xlink:href="dir_a41afcbfbf54af8aa656914f5423c760.html" target="_top" xlink:title="gslpp">
<polygon fill="none" stroke="#ff0000" points="186,-36 132,-36 132,0 186,0 186,-36"/>
<text text-anchor="middle" x="159" y="-16.1" font-family="Helvetica,sans-Serif" font-size="8.00" fill="#000000">gslpp</text>
</a>
</g>
</g>
<!-- dir_3f6dd9fc0a6293ee5ef16474cdc65f9f&#45;&gt;dir_a41afcbfbf54af8aa656914f5423c760 -->
<g id="edge7" class="edge">
<title>dir_3f6dd9fc0a6293ee5ef16474cdc65f9f&#45;&gt;dir_a41afcbfbf54af8aa656914f5423c760</title>
<path fill="none" stroke="#000000" d="M67.5535,-71.7541C71.3424,-69.0885 75.2442,-66.4268 79,-64 93.1294,-54.8704 109.1265,-45.4914 123.0823,-37.6035"/>
<polygon fill="#000000" stroke="#000000" points="124.905,-40.5942 131.9183,-32.6529 121.4835,-34.4874 124.905,-40.5942"/>
<g id="a_edge7&#45;headlabel"><a xlink:href="dir_000110_000050.html" target="_top" xlink:title="3">
<text text-anchor="middle" x="123.1568" y="-42.9282" font-family="Helvetica,sans-Serif" font-size="8.00" fill="#000000">3</text>
</a>
</g>
</g>
<!-- dir_c2aa2cb4e0c986d55db329a86184b083&#45;&gt;dir_3f6dd9fc0a6293ee5ef16474cdc65f9f -->
<g id="edge1" class="edge">
<title>dir_c2aa2cb4e0c986d55db329a86184b083&#45;&gt;dir_3f6dd9fc0a6293ee5ef16474cdc65f9f</title>
<path fill="none" stroke="#000000" d="M258.3172,-108.134C249.3609,-116.5194 237.5879,-125.5844 225,-130 196.2718,-140.0773 116.4571,-140.8194 88,-130 79.573,-126.7961 71.7164,-121.2106 65.0023,-115.212"/>
<polygon fill="#000000" stroke="#000000" points="67.2912,-112.5559 57.6797,-108.0984 62.4136,-117.5768 67.2912,-112.5559"/>
<g id="a_edge1&#45;headlabel"><a xlink:href="dir_000004_000110.html" target="_top" xlink:title="2">
<text text-anchor="middle" x="71.8479" y="-111.1241" font-family="Helvetica,sans-Serif" font-size="8.00" fill="#000000">2</text>
</a>
</g>
</g>
<!-- dir_c2aa2cb4e0c986d55db329a86184b083&#45;&gt;dir_a41afcbfbf54af8aa656914f5423c760 -->
<g id="edge2" class="edge">
<title>dir_c2aa2cb4e0c986d55db329a86184b083&#45;&gt;dir_a41afcbfbf54af8aa656914f5423c760</title>
<path fill="none" stroke="#000000" d="M246.3607,-71.7618C242.2196,-69.147 238.0049,-66.4978 234,-64 221.2763,-56.0643 207.2818,-47.4503 194.8623,-39.8452"/>
<polygon fill="#000000" stroke="#000000" points="196.4952,-36.7413 186.138,-34.51 192.8432,-42.7131 196.4952,-36.7413"/>
<g id="a_edge2&#45;headlabel"><a xlink:href="dir_000004_000050.html" target="_top" xlink:title="16">
<text text-anchor="middle" x="201.0431" y="-34.2944" font-family="Helvetica,sans-Serif" font-size="8.00" fill="#000000">16</text>
</a>
</g>
</g>
<!-- dir_6cc8451fad81479d5e8112c416332322&#45;&gt;dir_3f6dd9fc0a6293ee5ef16474cdc65f9f -->
<g id="edge4" class="edge">
<title>dir_6cc8451fad81479d5e8112c416332322&#45;&gt;dir_3f6dd9fc0a6293ee5ef16474cdc65f9f</title>
<path fill="none" stroke="#000000" d="M134.0914,-143.9537C120.2677,-135.7602 103.0713,-125.7382 88,-116 84.9039,-113.9995 81.7086,-111.8393 78.5004,-109.6489"/>
<polygon fill="#000000" stroke="#000000" points="80.2695,-106.6187 70.0377,-103.8689 76.3215,-112.3992 80.2695,-106.6187"/>
<g id="a_edge4&#45;headlabel"><a xlink:href="dir_000056_000110.html" target="_top" xlink:title="8">
<text text-anchor="middle" x="84.8391" y="-104.4014" font-family="Helvetica,sans-Serif" font-size="8.00" fill="#000000">8</text>
</a>
</g>
</g>
<!-- dir_6cc8451fad81479d5e8112c416332322&#45;&gt;dir_c2aa2cb4e0c986d55db329a86184b083 -->
<g id="edge3" class="edge">
<title>dir_6cc8451fad81479d5e8112c416332322&#45;&gt;dir_c2aa2cb4e0c986d55db329a86184b083</title>
<path fill="none" stroke="#000000" d="M188.2689,-144.1881C202.157,-135.7007 218.9657,-125.3768 234,-116 235.2515,-115.2194 236.5236,-114.4241 237.8074,-113.6196"/>
<polygon fill="#000000" stroke="#000000" points="239.7604,-116.526 246.3607,-108.2382 236.0327,-110.6011 239.7604,-116.526"/>
<g id="a_edge3&#45;headlabel"><a xlink:href="dir_000056_000004.html" target="_top" xlink:title="5">
<text text-anchor="middle" x="238.2299" y="-118.9434" font-family="Helvetica,sans-Serif" font-size="8.00" fill="#000000">5</text>
</a>
</g>
</g>
</g>
</svg>
