<?xml version="1.0" encoding="UTF-8" standalone="no"?>
<!DOCTYPE svg PUBLIC "-//W3C//DTD SVG 1.1//EN"
 "http://www.w3.org/Graphics/SVG/1.1/DTD/svg11.dtd">
<!-- Generated by graphviz version 2.40.1 (20161225.0304)
 -->
<!-- Title: StandardModel Pages: 1 -->
<svg width="382pt" height="223pt"
 viewBox="0.00 0.00 382.00 223.48" xmlns="http://www.w3.org/2000/svg" xmlns:xlink="http://www.w3.org/1999/xlink">
<g id="graph0" class="graph" transform="scale(1 1) rotate(0) translate(4 219.4758)">
<title>StandardModel</title>
<g id="clust1" class="cluster">
<title>clusterdir_c2aa2cb4e0c986d55db329a86184b083</title>
<g id="a_clust1"><a xlink:href="dir_c2aa2cb4e0c986d55db329a86184b083.html" target="_top">
<polygon fill="#eeeeff" stroke="#000000" points="78,-136 78,-188 310,-188 310,-136 78,-136"/>
</a>
</g>
</g>
<!-- dir_c2aa2cb4e0c986d55db329a86184b083 -->
<g id="node1" class="node">
<title>dir_c2aa2cb4e0c986d55db329a86184b083</title>
<text text-anchor="middle" x="266" y="-160.1" font-family="Helvetica,sans-Serif" font-size="8.00" fill="#000000">StandardModel</text>
</g>
<!-- dir_95ef8bc0a2eb028968bdc9916bd7051e -->
<g id="node2" class="node">
<title>dir_95ef8bc0a2eb028968bdc9916bd7051e</title>
<g id="a_node2"><a xlink:href="dir_95ef8bc0a2eb028968bdc9916bd7051e.html" target="_top" xlink:title="nbproject">
<polygon fill="#ffffff" stroke="#ff0000" points="212,-180 158,-180 158,-144 212,-144 212,-180"/>
<text text-anchor="middle" x="185" y="-160.1" font-family="Helvetica,sans-Serif" font-size="8.00" fill="#000000">nbproject</text>
</a>
</g>
</g>
<!-- dir_0a43bfc499f9ebeef2b0f03e60d602ca -->
<g id="node3" class="node">
<title>dir_0a43bfc499f9ebeef2b0f03e60d602ca</title>
<g id="a_node3"><a xlink:href="dir_0a43bfc499f9ebeef2b0f03e60d602ca.html" target="_top" xlink:title="src">
<polygon fill="#ffffff" stroke="#000000" points="140,-180 86,-180 86,-144 140,-144 140,-180"/>
<text text-anchor="middle" x="113" y="-160.1" font-family="Helvetica,sans-Serif" font-size="8.00" fill="#000000">src</text>
</a>
</g>
</g>
<!-- dir_5db6616082cde53441490dccc55cf8fe -->
<g id="node4" class="node">
<title>dir_5db6616082cde53441490dccc55cf8fe</title>
<g id="a_node4"><a xlink:href="dir_5db6616082cde53441490dccc55cf8fe.html" target="_top" xlink:title="Observables">
<polygon fill="none" stroke="#ff0000" points="191.5,-108 130.5,-108 130.5,-72 191.5,-72 191.5,-108"/>
<text text-anchor="middle" x="161" y="-88.1" font-family="Helvetica,sans-Serif" font-size="8.00" fill="#000000">Observables</text>
</a>
</g>
</g>
<!-- dir_0a43bfc499f9ebeef2b0f03e60d602ca&#45;&gt;dir_5db6616082cde53441490dccc55cf8fe -->
<g id="edge6" class="edge">
<title>dir_0a43bfc499f9ebeef2b0f03e60d602ca&#45;&gt;dir_5db6616082cde53441490dccc55cf8fe</title>
<path fill="none" stroke="#000000" d="M119.16,-143.8314C123.8322,-135.6232 130.2091,-125.7606 136.6313,-116.7323"/>
<polygon fill="#000000" stroke="#000000" points="139.6442,-118.5431 142.7485,-108.4133 134.0047,-114.3963 139.6442,-118.5431"/>
<g id="a_edge6&#45;headlabel"><a xlink:href="dir_000005_000076.html" target="_top" xlink:title="2">
<text text-anchor="middle" x="139.8022" y="-121.2211" font-family="Helvetica,sans-Serif" font-size="8.00" fill="#000000">2</text>
</a>
</g>
</g>
<!-- dir_0eda29277a6077c1c02542f56cc6373a -->
<g id="node5" class="node">
<title>dir_0eda29277a6077c1c02542f56cc6373a</title>
<g id="a_node5"><a xlink:href="dir_0eda29277a6077c1c02542f56cc6373a.html" target="_top" xlink:title="LeptonFlavour">
<polygon fill="none" stroke="#ff0000" points="68,-180 0,-180 0,-144 68,-144 68,-180"/>
<text text-anchor="middle" x="34" y="-160.1" font-family="Helvetica,sans-Serif" font-size="8.00" fill="#000000">LeptonFlavour</text>
</a>
</g>
</g>
<!-- dir_0a43bfc499f9ebeef2b0f03e60d602ca&#45;&gt;dir_0eda29277a6077c1c02542f56cc6373a -->
<g id="edge7" class="edge">
<title>dir_0a43bfc499f9ebeef2b0f03e60d602ca&#45;&gt;dir_0eda29277a6077c1c02542f56cc6373a</title>
<path fill="none" stroke="#000000" d="M85.7328,-162C83.2749,-162 80.8169,-162 78.3589,-162"/>
<polygon fill="#000000" stroke="#000000" points="78.2539,-158.5001 68.2539,-162 78.2539,-165.5001 78.2539,-158.5001"/>
<g id="a_edge7&#45;headlabel"><a xlink:href="dir_000005_000062.html" target="_top" xlink:title="1">
<text text-anchor="middle" x="81.8485" y="-153.7607" font-family="Helvetica,sans-Serif" font-size="8.00" fill="#000000">1</text>
</a>
</g>
</g>
<!-- dir_6db1c069948d59c49e3dd255dfa7d52e -->
<g id="node6" class="node">
<title>dir_6db1c069948d59c49e3dd255dfa7d52e</title>
<g id="a_node6"><a xlink:href="dir_6db1c069948d59c49e3dd255dfa7d52e.html" target="_top" xlink:title="LoopFunctions">
<polygon fill="none" stroke="#ff0000" points="278.5,-108 209.5,-108 209.5,-72 278.5,-72 278.5,-108"/>
<text text-anchor="middle" x="244" y="-88.1" font-family="Helvetica,sans-Serif" font-size="8.00" fill="#000000">LoopFunctions</text>
</a>
</g>
</g>
<!-- dir_0a43bfc499f9ebeef2b0f03e60d602ca&#45;&gt;dir_6db1c069948d59c49e3dd255dfa7d52e -->
<g id="edge8" class="edge">
<title>dir_0a43bfc499f9ebeef2b0f03e60d602ca&#45;&gt;dir_6db1c069948d59c49e3dd255dfa7d52e</title>
<path fill="none" stroke="#000000" d="M137.0098,-143.785C140.9406,-141.0591 145.0282,-138.3712 149,-136 165.1779,-126.3418 183.6854,-117.0213 200.0414,-109.3253"/>
<polygon fill="#000000" stroke="#000000" points="201.7889,-112.373 209.3891,-104.9914 198.8445,-106.0224 201.7889,-112.373"/>
<g id="a_edge8&#45;headlabel"><a xlink:href="dir_000005_000020.html" target="_top" xlink:title="8">
<text text-anchor="middle" x="199.722" y="-114.5608" font-family="Helvetica,sans-Serif" font-size="8.00" fill="#000000">8</text>
</a>
</g>
</g>
<!-- dir_e5487c5b3bd1ab47a3a7900e06b56a92 -->
<g id="node7" class="node">
<title>dir_e5487c5b3bd1ab47a3a7900e06b56a92</title>
<g id="a_node7"><a xlink:href="dir_e5487c5b3bd1ab47a3a7900e06b56a92.html" target="_top" xlink:title="Flavour">
<polygon fill="none" stroke="#ff0000" points="374,-180 320,-180 320,-144 374,-144 374,-180"/>
<text text-anchor="middle" x="347" y="-160.1" font-family="Helvetica,sans-Serif" font-size="8.00" fill="#000000">Flavour</text>
</a>
</g>
</g>
<!-- dir_0a43bfc499f9ebeef2b0f03e60d602ca&#45;&gt;dir_e5487c5b3bd1ab47a3a7900e06b56a92 -->
<g id="edge9" class="edge">
<title>dir_0a43bfc499f9ebeef2b0f03e60d602ca&#45;&gt;dir_e5487c5b3bd1ab47a3a7900e06b56a92</title>
<path fill="none" stroke="#000000" d="M125.7866,-180.0404C133.7989,-189.7205 145.0489,-200.7205 158,-206 188.2498,-218.3313 274.9673,-218.851 305,-206 314.1263,-202.0948 322.2132,-195.1252 328.7935,-187.868"/>
<polygon fill="#000000" stroke="#000000" points="331.6223,-189.9402 335.3205,-180.0118 326.238,-185.4669 331.6223,-189.9402"/>
<g id="a_edge9&#45;headlabel"><a xlink:href="dir_000005_000002.html" target="_top" xlink:title="1">
<text text-anchor="middle" x="331.5091" y="-192.6195" font-family="Helvetica,sans-Serif" font-size="8.00" fill="#000000">1</text>
</a>
</g>
</g>
<!-- dir_a41afcbfbf54af8aa656914f5423c760 -->
<g id="node8" class="node">
<title>dir_a41afcbfbf54af8aa656914f5423c760</title>
<g id="a_node8"><a xlink:href="dir_a41afcbfbf54af8aa656914f5423c760.html" target="_top" xlink:title="gslpp">
<polygon fill="none" stroke="#ff0000" points="188,-36 134,-36 134,0 188,0 188,-36"/>
<text text-anchor="middle" x="161" y="-16.1" font-family="Helvetica,sans-Serif" font-size="8.00" fill="#000000">gslpp</text>
</a>
</g>
</g>
<!-- dir_0a43bfc499f9ebeef2b0f03e60d602ca&#45;&gt;dir_a41afcbfbf54af8aa656914f5423c760 -->
<g id="edge10" class="edge">
<title>dir_0a43bfc499f9ebeef2b0f03e60d602ca&#45;&gt;dir_a41afcbfbf54af8aa656914f5423c760</title>
<path fill="none" stroke="#000000" d="M112.0938,-143.7824C111.7851,-125.1409 113.033,-95.6381 122,-72 125.7531,-62.1065 131.8055,-52.3868 138.0342,-43.9806"/>
<polygon fill="#000000" stroke="#000000" points="140.8318,-46.085 144.2431,-36.0543 135.3211,-41.7683 140.8318,-46.085"/>
<g id="a_edge10&#45;headlabel"><a xlink:href="dir_000005_000050.html" target="_top" xlink:title="16">
<text text-anchor="middle" x="140.8503" y="-48.7656" font-family="Helvetica,sans-Serif" font-size="8.00" fill="#000000">16</text>
</a>
</g>
</g>
<!-- dir_5db6616082cde53441490dccc55cf8fe&#45;&gt;dir_0a43bfc499f9ebeef2b0f03e60d602ca -->
<g id="edge1" class="edge">
<title>dir_5db6616082cde53441490dccc55cf8fe&#45;&gt;dir_0a43bfc499f9ebeef2b0f03e60d602ca</title>
<path fill="none" stroke="#000000" d="M154.7005,-108.4133C149.9947,-116.654 143.6006,-126.5245 137.1776,-135.536"/>
<polygon fill="#000000" stroke="#000000" points="134.1795,-133.7047 131.0648,-143.8314 139.8148,-137.8573 134.1795,-133.7047"/>
<g id="a_edge1&#45;headlabel"><a xlink:href="dir_000076_000005.html" target="_top" xlink:title="3">
<text text-anchor="middle" x="134.0262" y="-127.2266" font-family="Helvetica,sans-Serif" font-size="8.00" fill="#000000">3</text>
</a>
</g>
</g>
<!-- dir_5db6616082cde53441490dccc55cf8fe&#45;&gt;dir_a41afcbfbf54af8aa656914f5423c760 -->
<g id="edge2" class="edge">
<title>dir_5db6616082cde53441490dccc55cf8fe&#45;&gt;dir_a41afcbfbf54af8aa656914f5423c760</title>
<path fill="none" stroke="#000000" d="M161,-71.8314C161,-64.131 161,-54.9743 161,-46.4166"/>
<polygon fill="#000000" stroke="#000000" points="164.5001,-46.4132 161,-36.4133 157.5001,-46.4133 164.5001,-46.4132"/>
<g id="a_edge2&#45;headlabel"><a xlink:href="dir_000076_000050.html" target="_top" xlink:title="3">
<text text-anchor="middle" x="167.3393" y="-48.1079" font-family="Helvetica,sans-Serif" font-size="8.00" fill="#000000">3</text>
</a>
</g>
</g>
<!-- dir_0eda29277a6077c1c02542f56cc6373a&#45;&gt;dir_0a43bfc499f9ebeef2b0f03e60d602ca -->
<g id="edge4" class="edge">
<title>dir_0eda29277a6077c1c02542f56cc6373a&#45;&gt;dir_0a43bfc499f9ebeef2b0f03e60d602ca</title>
<path fill="none" stroke="#000000" d="M68.2539,-162C70.7119,-162 73.1699,-162 75.6278,-162"/>
<polygon fill="#000000" stroke="#000000" points="75.7329,-165.5001 85.7328,-162 75.7328,-158.5001 75.7329,-165.5001"/>
<g id="a_edge4&#45;headlabel"><a xlink:href="dir_000062_000005.html" target="_top" xlink:title="16">
<text text-anchor="middle" x="72.1382" y="-166.4393" font-family="Helvetica,sans-Serif" font-size="8.00" fill="#000000">16</text>
</a>
</g>
</g>
<!-- dir_0eda29277a6077c1c02542f56cc6373a&#45;&gt;dir_5db6616082cde53441490dccc55cf8fe -->
<g id="edge3" class="edge">
<title>dir_0eda29277a6077c1c02542f56cc6373a&#45;&gt;dir_5db6616082cde53441490dccc55cf8fe</title>
<path fill="none" stroke="#000000" d="M61.3383,-143.7675C65.5404,-141.1 69.8585,-138.4342 74,-136 89.2474,-127.0381 106.389,-117.8026 121.3998,-109.9801"/>
<polygon fill="#000000" stroke="#000000" points="123.1605,-113.0099 130.4349,-105.3071 119.9446,-106.7923 123.1605,-113.0099"/>
<g id="a_edge3&#45;headlabel"><a xlink:href="dir_000062_000076.html" target="_top" xlink:title="4">
<text text-anchor="middle" x="121.272" y="-115.2832" font-family="Helvetica,sans-Serif" font-size="8.00" fill="#000000">4</text>
</a>
</g>
</g>
<!-- dir_0eda29277a6077c1c02542f56cc6373a&#45;&gt;dir_a41afcbfbf54af8aa656914f5423c760 -->
<g id="edge5" class="edge">
<title>dir_0eda29277a6077c1c02542f56cc6373a&#45;&gt;dir_a41afcbfbf54af8aa656914f5423c760</title>
<path fill="none" stroke="#000000" d="M48.851,-143.8188C63.9643,-125.4591 88.2024,-96.4038 110,-72 118.3715,-62.6276 127.76,-52.5655 136.178,-43.697"/>
<polygon fill="#000000" stroke="#000000" points="138.9048,-45.9092 143.2759,-36.2581 133.8403,-41.0769 138.9048,-45.9092"/>
<g id="a_edge5&#45;headlabel"><a xlink:href="dir_000062_000050.html" target="_top" xlink:title="4">
<text text-anchor="middle" x="138.4775" y="-48.5699" font-family="Helvetica,sans-Serif" font-size="8.00" fill="#000000">4</text>
</a>
</g>
</g>
<!-- dir_6db1c069948d59c49e3dd255dfa7d52e&#45;&gt;dir_a41afcbfbf54af8aa656914f5423c760 -->
<g id="edge11" class="edge">
<title>dir_6db1c069948d59c49e3dd255dfa7d52e&#45;&gt;dir_a41afcbfbf54af8aa656914f5423c760</title>
<path fill="none" stroke="#000000" d="M223.0556,-71.8314C212.9309,-63.0485 200.6223,-52.3712 189.6452,-42.8489"/>
<polygon fill="#000000" stroke="#000000" points="191.7851,-40.0718 181.9377,-36.1628 187.1981,-45.3595 191.7851,-40.0718"/>
<g id="a_edge11&#45;headlabel"><a xlink:href="dir_000020_000050.html" target="_top" xlink:title="2">
<text text-anchor="middle" x="196.3609" y="-38.3825" font-family="Helvetica,sans-Serif" font-size="8.00" fill="#000000">2</text>
</a>
</g>
</g>
<!-- dir_e5487c5b3bd1ab47a3a7900e06b56a92&#45;&gt;dir_0a43bfc499f9ebeef2b0f03e60d602ca -->
<g id="edge13" class="edge">
<title>dir_e5487c5b3bd1ab47a3a7900e06b56a92&#45;&gt;dir_0a43bfc499f9ebeef2b0f03e60d602ca</title>
<path fill="none" stroke="#000000" d="M335.3205,-180.0118C327.9273,-189.6823 317.4273,-200.6823 305,-206 274.9673,-218.851 188.2498,-218.3313 158,-206 148.489,-202.1229 139.8955,-195.1606 132.8279,-187.9017"/>
<polygon fill="#000000" stroke="#000000" points="135.0657,-185.1541 125.7866,-180.0404 129.8515,-189.8245 135.0657,-185.1541"/>
<g id="a_edge13&#45;headlabel"><a xlink:href="dir_000002_000005.html" target="_top" xlink:title="94">
<text text-anchor="middle" x="139.5789" y="-184.0374" font-family="Helvetica,sans-Serif" font-size="8.00" fill="#000000">94</text>
</a>
</g>
</g>
<!-- dir_e5487c5b3bd1ab47a3a7900e06b56a92&#45;&gt;dir_5db6616082cde53441490dccc55cf8fe -->
<g id="edge12" class="edge">
<title>dir_e5487c5b3bd1ab47a3a7900e06b56a92&#45;&gt;dir_5db6616082cde53441490dccc55cf8fe</title>
<path fill="none" stroke="#000000" d="M326.5946,-143.79C322.6117,-140.869 318.3239,-138.1159 314,-136 270.1577,-114.5453 251.9899,-123.6976 201.2842,-107.6834"/>
<polygon fill="#000000" stroke="#000000" points="202.3801,-104.3594 191.7864,-104.5146 200.1646,-110.9996 202.3801,-104.3594"/>
<g id="a_edge12&#45;headlabel"><a xlink:href="dir_000002_000076.html" target="_top" xlink:title="30">
<text text-anchor="middle" x="206.6885" y="-100.9036" font-family="Helvetica,sans-Serif" font-size="8.00" fill="#000000">30</text>
</a>
</g>
</g>
<!-- dir_e5487c5b3bd1ab47a3a7900e06b56a92&#45;&gt;dir_6db1c069948d59c49e3dd255dfa7d52e -->
<g id="edge14" class="edge">
<title>dir_e5487c5b3bd1ab47a3a7900e06b56a92&#45;&gt;dir_6db1c069948d59c49e3dd255dfa7d52e</title>
<path fill="none" stroke="#000000" d="M324.4738,-143.837C321.0032,-141.1599 317.4323,-138.4729 314,-136 303.4799,-128.4204 291.7963,-120.5404 281.0359,-113.4888"/>
<polygon fill="#000000" stroke="#000000" points="282.9356,-110.5493 272.644,-108.0327 279.12,-116.4179 282.9356,-110.5493"/>
<g id="a_edge14&#45;headlabel"><a xlink:href="dir_000002_000020.html" target="_top" xlink:title="2">
<text text-anchor="middle" x="287.4969" y="-108.2282" font-family="Helvetica,sans-Serif" font-size="8.00" fill="#000000">2</text>
</a>
</g>
</g>
<!-- dir_e5487c5b3bd1ab47a3a7900e06b56a92&#45;&gt;dir_a41afcbfbf54af8aa656914f5423c760 -->
<g id="edge15" class="edge">
<title>dir_e5487c5b3bd1ab47a3a7900e06b56a92&#45;&gt;dir_a41afcbfbf54af8aa656914f5423c760</title>
<path fill="none" stroke="#000000" d="M339.0737,-143.8259C329.5387,-123.8286 311.795,-91.8915 288,-72 261.6759,-49.9943 225.0618,-35.7106 197.9074,-27.3956"/>
<polygon fill="#000000" stroke="#000000" points="198.5851,-23.9472 188.0046,-24.4974 196.6189,-30.6654 198.5851,-23.9472"/>
<g id="a_edge15&#45;headlabel"><a xlink:href="dir_000002_000050.html" target="_top" xlink:title="47">
<text text-anchor="middle" x="202.8325" y="-20.3318" font-family="Helvetica,sans-Serif" font-size="8.00" fill="#000000">47</text>
</a>
</g>
</g>
</g>
</svg>
