<?xml version="1.0" encoding="UTF-8" standalone="no"?>
<!DOCTYPE svg PUBLIC "-//W3C//DTD SVG 1.1//EN"
 "http://www.w3.org/Graphics/SVG/1.1/DTD/svg11.dtd">
<!-- Generated by graphviz version 2.40.1 (20161225.0304)
 -->
<!-- Title: include Pages: 1 -->
<svg width="262pt" height="325pt"
 viewBox="0.00 0.00 262.00 325.00" xmlns="http://www.w3.org/2000/svg" xmlns:xlink="http://www.w3.org/1999/xlink">
<g id="graph0" class="graph" transform="scale(1 1) rotate(0) translate(4 321)">
<title>include</title>
<g id="clust1" class="cluster">
<title>clusterdir_1fda09841859e46766797c2daa599949</title>
<g id="a_clust1"><a xlink:href="dir_1fda09841859e46766797c2daa599949.html" target="_top" xlink:title="LHPC">
<polygon fill="#ddddee" stroke="#000000" points="8,-8 8,-309 246,-309 246,-8 8,-8"/>
<text text-anchor="middle" x="127" y="-298.6" font-family="Helvetica,sans-Serif" font-size="8.00" fill="#000000">LHPC</text>
</a>
</g>
</g>
<g id="clust2" class="cluster">
<title>clusterdir_1486e6593103df4335f587ef037467ee</title>
<g id="a_clust2"><a xlink:href="dir_1486e6593103df4335f587ef037467ee.html" target="_top">
<polygon fill="#eeeeff" stroke="#000000" points="16,-16 16,-284 238,-284 238,-16 16,-16"/>
</a>
</g>
</g>
<!-- dir_1486e6593103df4335f587ef037467ee -->
<g id="node1" class="node">
<title>dir_1486e6593103df4335f587ef037467ee</title>
<text text-anchor="middle" x="196" y="-256.1" font-family="Helvetica,sans-Serif" font-size="8.00" fill="#000000">include</text>
</g>
<!-- dir_ae5696e1b16ab08b42c676da042a4b61 -->
<g id="node3" class="node">
<title>dir_ae5696e1b16ab08b42c676da042a4b61</title>
<g id="a_node3"><a xlink:href="dir_ae5696e1b16ab08b42c676da042a4b61.html" target="_top" xlink:title="LHCO">
<polygon fill="#ffffff" stroke="#000000" points="177,-204 123,-204 123,-168 177,-168 177,-204"/>
<text text-anchor="middle" x="150" y="-184.1" font-family="Helvetica,sans-Serif" font-size="8.00" fill="#000000">LHCO</text>
</a>
</g>
</g>
<!-- dir_1486e6593103df4335f587ef037467ee&#45;&gt;dir_ae5696e1b16ab08b42c676da042a4b61 -->
<g id="edge11" class="edge">
<title>dir_1486e6593103df4335f587ef037467ee&#45;&gt;dir_ae5696e1b16ab08b42c676da042a4b61</title>
<path fill="none" stroke="#000000" d="M184.3923,-239.8314C179.2022,-231.7079 172.9768,-221.9637 167.2575,-213.0118"/>
<polygon fill="#000000" stroke="#000000" points="170.0974,-210.9559 161.764,-204.4133 164.1985,-214.7246 170.0974,-210.9559"/>
<g id="a_edge11&#45;headlabel"><a xlink:href="dir_000007_000116.html" target="_top" xlink:title="5">
<text text-anchor="middle" x="174.4253" y="-210.5564" font-family="Helvetica,sans-Serif" font-size="8.00" fill="#000000">5</text>
</a>
</g>
</g>
<!-- dir_45f4fee7a367a818cada58dd87592f28 -->
<g id="node4" class="node">
<title>dir_45f4fee7a367a818cada58dd87592f28</title>
<g id="a_node4"><a xlink:href="dir_45f4fee7a367a818cada58dd87592f28.html" target="_top" xlink:title="LHEF">
<polygon fill="#ffffff" stroke="#ff0000" points="210,-132 156,-132 156,-96 210,-96 210,-132"/>
<text text-anchor="middle" x="183" y="-112.1" font-family="Helvetica,sans-Serif" font-size="8.00" fill="#000000">LHEF</text>
</a>
</g>
</g>
<!-- dir_1486e6593103df4335f587ef037467ee&#45;&gt;dir_45f4fee7a367a818cada58dd87592f28 -->
<g id="edge13" class="edge">
<title>dir_1486e6593103df4335f587ef037467ee&#45;&gt;dir_45f4fee7a367a818cada58dd87592f28</title>
<path fill="none" stroke="#000000" d="M194.3535,-239.7623C192.1362,-215.201 188.1682,-171.2474 185.5597,-142.3541"/>
<polygon fill="#000000" stroke="#000000" points="189.0181,-141.7344 184.6331,-132.0896 182.0465,-142.3638 189.0181,-141.7344"/>
<g id="a_edge13&#45;headlabel"><a xlink:href="dir_000007_000013.html" target="_top" xlink:title="18">
<text text-anchor="middle" x="192.169" y="-143.1592" font-family="Helvetica,sans-Serif" font-size="8.00" fill="#000000">18</text>
</a>
</g>
</g>
<!-- dir_6e378b4cdde7dfff2a5cd4ccf4a21129 -->
<g id="node6" class="node">
<title>dir_6e378b4cdde7dfff2a5cd4ccf4a21129</title>
<g id="a_node6"><a xlink:href="dir_6e378b4cdde7dfff2a5cd4ccf4a21129.html" target="_top" xlink:title="PCAD">
<polygon fill="#ffffff" stroke="#000000" points="210,-60 156,-60 156,-24 210,-24 210,-60"/>
<text text-anchor="middle" x="183" y="-40.1" font-family="Helvetica,sans-Serif" font-size="8.00" fill="#000000">PCAD</text>
</a>
</g>
</g>
<!-- dir_1486e6593103df4335f587ef037467ee&#45;&gt;dir_6e378b4cdde7dfff2a5cd4ccf4a21129 -->
<g id="edge12" class="edge">
<title>dir_1486e6593103df4335f587ef037467ee&#45;&gt;dir_6e378b4cdde7dfff2a5cd4ccf4a21129</title>
<path fill="none" stroke="#000000" d="M203.653,-239.6298C215.2319,-209.1741 234.3114,-146.57 219,-96 216.0436,-86.2355 210.6748,-76.6229 204.97,-68.2762"/>
<polygon fill="#000000" stroke="#000000" points="207.7129,-66.0973 198.9905,-60.0831 202.0586,-70.2239 207.7129,-66.0973"/>
<g id="a_edge12&#45;headlabel"><a xlink:href="dir_000007_000137.html" target="_top" xlink:title="11">
<text text-anchor="middle" x="212.1253" y="-65.427" font-family="Helvetica,sans-Serif" font-size="8.00" fill="#000000">11</text>
</a>
</g>
</g>
<!-- dir_a2a3f3edbd85ace4a0dd42a1b8f9d7b5 -->
<g id="node2" class="node">
<title>dir_a2a3f3edbd85ace4a0dd42a1b8f9d7b5</title>
<g id="a_node2"><a xlink:href="dir_a2a3f3edbd85ace4a0dd42a1b8f9d7b5.html" target="_top" xlink:title="BOLlib">
<polygon fill="#ffffff" stroke="#ff0000" points="118,-60 64,-60 64,-24 118,-24 118,-60"/>
<text text-anchor="middle" x="91" y="-40.1" font-family="Helvetica,sans-Serif" font-size="8.00" fill="#000000">BOLlib</text>
</a>
</g>
</g>
<!-- dir_ae5696e1b16ab08b42c676da042a4b61&#45;&gt;dir_a2a3f3edbd85ace4a0dd42a1b8f9d7b5 -->
<g id="edge1" class="edge">
<title>dir_ae5696e1b16ab08b42c676da042a4b61&#45;&gt;dir_a2a3f3edbd85ace4a0dd42a1b8f9d7b5</title>
<path fill="none" stroke="#000000" d="M147.2139,-167.8153C143.939,-149.2 137.5661,-119.7176 127,-96 122.7802,-86.5279 116.9419,-76.8874 111.1941,-68.4236"/>
<polygon fill="#000000" stroke="#000000" points="113.9349,-66.2372 105.3086,-60.0859 108.2161,-70.274 113.9349,-66.2372"/>
<g id="a_edge1&#45;headlabel"><a xlink:href="dir_000116_000008.html" target="_top" xlink:title="2">
<text text-anchor="middle" x="118.3274" y="-65.6365" font-family="Helvetica,sans-Serif" font-size="8.00" fill="#000000">2</text>
</a>
</g>
</g>
<!-- dir_ae5696e1b16ab08b42c676da042a4b61&#45;&gt;dir_45f4fee7a367a818cada58dd87592f28 -->
<g id="edge2" class="edge">
<title>dir_ae5696e1b16ab08b42c676da042a4b61&#45;&gt;dir_45f4fee7a367a818cada58dd87592f28</title>
<path fill="none" stroke="#000000" d="M158.3273,-167.8314C161.973,-159.8771 166.3309,-150.369 170.3627,-141.5723"/>
<polygon fill="#000000" stroke="#000000" points="173.5757,-142.9622 174.5606,-132.4133 167.2123,-140.0456 173.5757,-142.9622"/>
<g id="a_edge2&#45;headlabel"><a xlink:href="dir_000116_000013.html" target="_top" xlink:title="1">
<text text-anchor="middle" x="174.6591" y="-145.5129" font-family="Helvetica,sans-Serif" font-size="8.00" fill="#000000">1</text>
</a>
</g>
</g>
<!-- dir_45f4fee7a367a818cada58dd87592f28&#45;&gt;dir_a2a3f3edbd85ace4a0dd42a1b8f9d7b5 -->
<g id="edge7" class="edge">
<title>dir_45f4fee7a367a818cada58dd87592f28&#45;&gt;dir_a2a3f3edbd85ace4a0dd42a1b8f9d7b5</title>
<path fill="none" stroke="#000000" d="M159.7845,-95.8314C148.453,-86.9632 134.6536,-76.1637 122.3973,-66.5718"/>
<polygon fill="#000000" stroke="#000000" points="124.2402,-63.5697 114.2081,-60.1628 119.926,-69.0822 124.2402,-63.5697"/>
<g id="a_edge7&#45;headlabel"><a xlink:href="dir_000013_000008.html" target="_top" xlink:title="3">
<text text-anchor="middle" x="128.8208" y="-61.6491" font-family="Helvetica,sans-Serif" font-size="8.00" fill="#000000">3</text>
</a>
</g>
</g>
<!-- dir_45f4fee7a367a818cada58dd87592f28&#45;&gt;dir_6e378b4cdde7dfff2a5cd4ccf4a21129 -->
<g id="edge8" class="edge">
<title>dir_45f4fee7a367a818cada58dd87592f28&#45;&gt;dir_6e378b4cdde7dfff2a5cd4ccf4a21129</title>
<path fill="none" stroke="#000000" d="M183,-95.8314C183,-88.131 183,-78.9743 183,-70.4166"/>
<polygon fill="#000000" stroke="#000000" points="186.5001,-70.4132 183,-60.4133 179.5001,-70.4133 186.5001,-70.4132"/>
<g id="a_edge8&#45;headlabel"><a xlink:href="dir_000013_000137.html" target="_top" xlink:title="2">
<text text-anchor="middle" x="189.3393" y="-72.1079" font-family="Helvetica,sans-Serif" font-size="8.00" fill="#000000">2</text>
</a>
</g>
</g>
<!-- dir_e3592d61c4cbe3566eb8d43595d503fe -->
<g id="node5" class="node">
<title>dir_e3592d61c4cbe3566eb8d43595d503fe</title>
<g id="a_node5"><a xlink:href="dir_e3592d61c4cbe3566eb8d43595d503fe.html" target="_top" xlink:title="MEC">
<polygon fill="#ffffff" stroke="#ff0000" points="118,-132 64,-132 64,-96 118,-96 118,-132"/>
<text text-anchor="middle" x="91" y="-112.1" font-family="Helvetica,sans-Serif" font-size="8.00" fill="#000000">MEC</text>
</a>
</g>
</g>
<!-- dir_e3592d61c4cbe3566eb8d43595d503fe&#45;&gt;dir_a2a3f3edbd85ace4a0dd42a1b8f9d7b5 -->
<g id="edge5" class="edge">
<title>dir_e3592d61c4cbe3566eb8d43595d503fe&#45;&gt;dir_a2a3f3edbd85ace4a0dd42a1b8f9d7b5</title>
<path fill="none" stroke="#000000" d="M91,-95.8314C91,-88.131 91,-78.9743 91,-70.4166"/>
<polygon fill="#000000" stroke="#000000" points="94.5001,-70.4132 91,-60.4133 87.5001,-70.4133 94.5001,-70.4132"/>
<g id="a_edge5&#45;headlabel"><a xlink:href="dir_000102_000008.html" target="_top" xlink:title="7">
<text text-anchor="middle" x="97.3393" y="-72.1079" font-family="Helvetica,sans-Serif" font-size="8.00" fill="#000000">7</text>
</a>
</g>
</g>
<!-- dir_e3592d61c4cbe3566eb8d43595d503fe&#45;&gt;dir_6e378b4cdde7dfff2a5cd4ccf4a21129 -->
<g id="edge6" class="edge">
<title>dir_e3592d61c4cbe3566eb8d43595d503fe&#45;&gt;dir_6e378b4cdde7dfff2a5cd4ccf4a21129</title>
<path fill="none" stroke="#000000" d="M114.2155,-95.8314C125.547,-86.9632 139.3464,-76.1637 151.6027,-66.5718"/>
<polygon fill="#000000" stroke="#000000" points="154.074,-69.0822 159.7919,-60.1628 149.7598,-63.5697 154.074,-69.0822"/>
<g id="a_edge6&#45;headlabel"><a xlink:href="dir_000102_000137.html" target="_top" xlink:title="3">
<text text-anchor="middle" x="152.9931" y="-71.6335" font-family="Helvetica,sans-Serif" font-size="8.00" fill="#000000">3</text>
</a>
</g>
</g>
<!-- dir_a47d39369210e8db882231be100e9b76 -->
<g id="node7" class="node">
<title>dir_a47d39369210e8db882231be100e9b76</title>
<g id="a_node7"><a xlink:href="dir_a47d39369210e8db882231be100e9b76.html" target="_top" xlink:title="SLHA">
<polygon fill="#ffffff" stroke="#ff0000" points="98,-204 44,-204 44,-168 98,-168 98,-204"/>
<text text-anchor="middle" x="71" y="-184.1" font-family="Helvetica,sans-Serif" font-size="8.00" fill="#000000">SLHA</text>
</a>
</g>
</g>
<!-- dir_a47d39369210e8db882231be100e9b76&#45;&gt;dir_a2a3f3edbd85ace4a0dd42a1b8f9d7b5 -->
<g id="edge9" class="edge">
<title>dir_a47d39369210e8db882231be100e9b76&#45;&gt;dir_a2a3f3edbd85ace4a0dd42a1b8f9d7b5</title>
<path fill="none" stroke="#000000" d="M62.8333,-167.776C55.7314,-149.3831 47.6418,-120.3025 55,-96 57.9564,-86.2355 63.3252,-76.6229 69.03,-68.2762"/>
<polygon fill="#000000" stroke="#000000" points="71.9414,-70.2239 75.0095,-60.0831 66.2871,-66.0973 71.9414,-70.2239"/>
<g id="a_edge9&#45;headlabel"><a xlink:href="dir_000016_000008.html" target="_top" xlink:title="10">
<text text-anchor="middle" x="72.1158" y="-72.9013" font-family="Helvetica,sans-Serif" font-size="8.00" fill="#000000">10</text>
</a>
</g>
</g>
<!-- dir_a47d39369210e8db882231be100e9b76&#45;&gt;dir_e3592d61c4cbe3566eb8d43595d503fe -->
<g id="edge10" class="edge">
<title>dir_a47d39369210e8db882231be100e9b76&#45;&gt;dir_e3592d61c4cbe3566eb8d43595d503fe</title>
<path fill="none" stroke="#000000" d="M76.0468,-167.8314C78.2094,-160.0463 80.7853,-150.7729 83.1848,-142.1347"/>
<polygon fill="#000000" stroke="#000000" points="86.581,-142.9852 85.8852,-132.4133 79.8364,-141.1117 86.581,-142.9852"/>
<g id="a_edge10&#45;headlabel"><a xlink:href="dir_000016_000102.html" target="_top" xlink:title="12">
<text text-anchor="middle" x="88.3547" y="-145.3086" font-family="Helvetica,sans-Serif" font-size="8.00" fill="#000000">12</text>
</a>
</g>
</g>
<!-- dir_bc54c8eaa9471e09b3112ba580533279 -->
<g id="node8" class="node">
<title>dir_bc54c8eaa9471e09b3112ba580533279</title>
<g id="a_node8"><a xlink:href="dir_bc54c8eaa9471e09b3112ba580533279.html" target="_top" xlink:title="SSP">
<polygon fill="#ffffff" stroke="#000000" points="88,-276 34,-276 34,-240 88,-240 88,-276"/>
<text text-anchor="middle" x="61" y="-256.1" font-family="Helvetica,sans-Serif" font-size="8.00" fill="#000000">SSP</text>
</a>
</g>
</g>
<!-- dir_bc54c8eaa9471e09b3112ba580533279&#45;&gt;dir_a2a3f3edbd85ace4a0dd42a1b8f9d7b5 -->
<g id="edge3" class="edge">
<title>dir_bc54c8eaa9471e09b3112ba580533279&#45;&gt;dir_a2a3f3edbd85ace4a0dd42a1b8f9d7b5</title>
<path fill="none" stroke="#000000" d="M49.6804,-239.7678C44.0604,-229.6415 37.8706,-216.5789 35,-204 31.4403,-188.401 33.5729,-183.9362 35,-168 37.9005,-135.6122 34.576,-125.6172 48,-96 52.4527,-86.1762 59.0892,-76.5856 65.8237,-68.2783"/>
<polygon fill="#000000" stroke="#000000" points="68.6853,-70.3168 72.5136,-60.4378 63.3602,-65.7732 68.6853,-70.3168"/>
<g id="a_edge3&#45;headlabel"><a xlink:href="dir_000129_000008.html" target="_top" xlink:title="7">
<text text-anchor="middle" x="68.512" y="-72.9942" font-family="Helvetica,sans-Serif" font-size="8.00" fill="#000000">7</text>
</a>
</g>
</g>
<!-- dir_bc54c8eaa9471e09b3112ba580533279&#45;&gt;dir_a47d39369210e8db882231be100e9b76 -->
<g id="edge4" class="edge">
<title>dir_bc54c8eaa9471e09b3112ba580533279&#45;&gt;dir_a47d39369210e8db882231be100e9b76</title>
<path fill="none" stroke="#000000" d="M63.5234,-239.8314C64.5929,-232.131 65.8647,-222.9743 67.0532,-214.4166"/>
<polygon fill="#000000" stroke="#000000" points="70.5336,-214.7997 68.4426,-204.4133 63.6001,-213.8367 70.5336,-214.7997"/>
<g id="a_edge4&#45;headlabel"><a xlink:href="dir_000129_000016.html" target="_top" xlink:title="4">
<text text-anchor="middle" x="72.8514" y="-216.8507" font-family="Helvetica,sans-Serif" font-size="8.00" fill="#000000">4</text>
</a>
</g>
</g>
</g>
</svg>
