<?xml version="1.0" encoding="UTF-8" standalone="no"?>
<!DOCTYPE svg PUBLIC "-//W3C//DTD SVG 1.1//EN"
 "http://www.w3.org/Graphics/SVG/1.1/DTD/svg11.dtd">
<!-- Generated by graphviz version 2.40.1 (20161225.0304)
 -->
<!-- Title: SUSYMassInsertion Pages: 1 -->
<svg width="297pt" height="204pt"
 viewBox="0.00 0.00 296.50 204.00" xmlns="http://www.w3.org/2000/svg" xmlns:xlink="http://www.w3.org/1999/xlink">
<g id="graph0" class="graph" transform="scale(1 1) rotate(0) translate(4 200)">
<title>SUSYMassInsertion</title>
<g id="clust1" class="cluster">
<title>clusterdir_cf22cf761c877bf147092a1f72cf7ff7</title>
<g id="a_clust1"><a xlink:href="dir_cf22cf761c877bf147092a1f72cf7ff7.html" target="_top">
<polygon fill="#eeeeff" stroke="#000000" points="32.5,-136 32.5,-188 280.5,-188 280.5,-136 32.5,-136"/>
</a>
</g>
</g>
<!-- dir_cf22cf761c877bf147092a1f72cf7ff7 -->
<g id="node1" class="node">
<title>dir_cf22cf761c877bf147092a1f72cf7ff7</title>
<text text-anchor="middle" x="228.5" y="-160.1" font-family="Helvetica,sans-Serif" font-size="8.00" fill="#000000">SUSYMassInsertion</text>
</g>
<!-- dir_b1d46f6f88fc7ce1411b793e196d3f26 -->
<g id="node2" class="node">
<title>dir_b1d46f6f88fc7ce1411b793e196d3f26</title>
<g id="a_node2"><a xlink:href="dir_b1d46f6f88fc7ce1411b793e196d3f26.html" target="_top" xlink:title="nbproject">
<polygon fill="#ffffff" stroke="#ff0000" points="166.5,-180 112.5,-180 112.5,-144 166.5,-144 166.5,-180"/>
<text text-anchor="middle" x="139.5" y="-160.1" font-family="Helvetica,sans-Serif" font-size="8.00" fill="#000000">nbproject</text>
</a>
</g>
</g>
<!-- dir_bb955a1c3f056b082f23f026b62fe663 -->
<g id="node3" class="node">
<title>dir_bb955a1c3f056b082f23f026b62fe663</title>
<g id="a_node3"><a xlink:href="dir_bb955a1c3f056b082f23f026b62fe663.html" target="_top" xlink:title="src">
<polygon fill="#ffffff" stroke="#000000" points="94.5,-180 40.5,-180 40.5,-144 94.5,-144 94.5,-180"/>
<text text-anchor="middle" x="67.5" y="-160.1" font-family="Helvetica,sans-Serif" font-size="8.00" fill="#000000">src</text>
</a>
</g>
</g>
<!-- dir_c2aa2cb4e0c986d55db329a86184b083 -->
<g id="node4" class="node">
<title>dir_c2aa2cb4e0c986d55db329a86184b083</title>
<g id="a_node4"><a xlink:href="dir_c2aa2cb4e0c986d55db329a86184b083.html" target="_top" xlink:title="StandardModel">
<polygon fill="none" stroke="#ff0000" points="71,-108 0,-108 0,-72 71,-72 71,-108"/>
<text text-anchor="middle" x="35.5" y="-88.1" font-family="Helvetica,sans-Serif" font-size="8.00" fill="#000000">StandardModel</text>
</a>
</g>
</g>
<!-- dir_bb955a1c3f056b082f23f026b62fe663&#45;&gt;dir_c2aa2cb4e0c986d55db329a86184b083 -->
<g id="edge2" class="edge">
<title>dir_bb955a1c3f056b082f23f026b62fe663&#45;&gt;dir_c2aa2cb4e0c986d55db329a86184b083</title>
<path fill="none" stroke="#000000" d="M59.425,-143.8314C55.8898,-135.8771 51.664,-126.369 47.7544,-117.5723"/>
<polygon fill="#000000" stroke="#000000" points="50.9435,-116.1299 43.6837,-108.4133 44.5468,-118.9729 50.9435,-116.1299"/>
<g id="a_edge2&#45;headlabel"><a xlink:href="dir_000140_000004.html" target="_top" xlink:title="2">
<text text-anchor="middle" x="54.9979" y="-116.3616" font-family="Helvetica,sans-Serif" font-size="8.00" fill="#000000">2</text>
</a>
</g>
</g>
<!-- dir_a41afcbfbf54af8aa656914f5423c760 -->
<g id="node5" class="node">
<title>dir_a41afcbfbf54af8aa656914f5423c760</title>
<g id="a_node5"><a xlink:href="dir_a41afcbfbf54af8aa656914f5423c760.html" target="_top" xlink:title="gslpp">
<polygon fill="none" stroke="#ff0000" points="94.5,-36 40.5,-36 40.5,0 94.5,0 94.5,-36"/>
<text text-anchor="middle" x="67.5" y="-16.1" font-family="Helvetica,sans-Serif" font-size="8.00" fill="#000000">gslpp</text>
</a>
</g>
</g>
<!-- dir_bb955a1c3f056b082f23f026b62fe663&#45;&gt;dir_a41afcbfbf54af8aa656914f5423c760 -->
<g id="edge3" class="edge">
<title>dir_bb955a1c3f056b082f23f026b62fe663&#45;&gt;dir_a41afcbfbf54af8aa656914f5423c760</title>
<path fill="none" stroke="#000000" d="M73.0446,-143.7012C75.8965,-133.3353 79.0681,-120.0653 80.5,-108 82.3856,-92.1115 82.3856,-87.8885 80.5,-72 79.4932,-63.5166 77.6264,-54.4376 75.6153,-46.1913"/>
<polygon fill="#000000" stroke="#000000" points="78.9472,-45.0971 73.0446,-36.2988 72.1722,-46.8576 78.9472,-45.0971"/>
<g id="a_edge3&#45;headlabel"><a xlink:href="dir_000140_000050.html" target="_top" xlink:title="2">
<text text-anchor="middle" x="82.5992" y="-45.9621" font-family="Helvetica,sans-Serif" font-size="8.00" fill="#000000">2</text>
</a>
</g>
</g>
<!-- dir_c2aa2cb4e0c986d55db329a86184b083&#45;&gt;dir_a41afcbfbf54af8aa656914f5423c760 -->
<g id="edge1" class="edge">
<title>dir_c2aa2cb4e0c986d55db329a86184b083&#45;&gt;dir_a41afcbfbf54af8aa656914f5423c760</title>
<path fill="none" stroke="#000000" d="M43.575,-71.8314C47.1102,-63.8771 51.336,-54.369 55.2456,-45.5723"/>
<polygon fill="#000000" stroke="#000000" points="58.4532,-46.9729 59.3163,-36.4133 52.0565,-44.1299 58.4532,-46.9729"/>
<g id="a_edge1&#45;headlabel"><a xlink:href="dir_000004_000050.html" target="_top" xlink:title="16">
<text text-anchor="middle" x="59.5879" y="-49.5108" font-family="Helvetica,sans-Serif" font-size="8.00" fill="#000000">16</text>
</a>
</g>
</g>
</g>
</svg>
