<?xml version="1.0" encoding="UTF-8" standalone="no"?>
<!DOCTYPE svg PUBLIC "-//W3C//DTD SVG 1.1//EN"
 "http://www.w3.org/Graphics/SVG/1.1/DTD/svg11.dtd">
<!-- Generated by graphviz version 2.40.1 (20161225.0304)
 -->
<!-- Title: source Pages: 1 -->
<svg width="542pt" height="157pt"
 viewBox="0.00 0.00 542.00 157.00" xmlns="http://www.w3.org/2000/svg" xmlns:xlink="http://www.w3.org/1999/xlink">
<g id="graph0" class="graph" transform="scale(1 1) rotate(0) translate(4 153)">
<title>source</title>
<g id="clust1" class="cluster">
<title>clusterdir_1fda09841859e46766797c2daa599949</title>
<g id="a_clust1"><a xlink:href="dir_1fda09841859e46766797c2daa599949.html" target="_top" xlink:title="LHPC">
<polygon fill="#ddddee" stroke="#000000" points="8,-56 8,-141 526,-141 526,-56 8,-56"/>
<text text-anchor="middle" x="267" y="-130.6" font-family="Helvetica,sans-Serif" font-size="8.00" fill="#000000">LHPC</text>
</a>
</g>
</g>
<g id="clust2" class="cluster">
<title>clusterdir_d64a7a31fb0472c8e60426dd1cb258f1</title>
<g id="a_clust2"><a xlink:href="dir_d64a7a31fb0472c8e60426dd1cb258f1.html" target="_top">
<polygon fill="#eeeeff" stroke="#000000" points="16,-64 16,-116 518,-116 518,-64 16,-64"/>
</a>
</g>
</g>
<!-- dir_d64a7a31fb0472c8e60426dd1cb258f1 -->
<g id="node1" class="node">
<title>dir_d64a7a31fb0472c8e60426dd1cb258f1</title>
<text text-anchor="middle" x="483" y="-88.1" font-family="Helvetica,sans-Serif" font-size="8.00" fill="#000000">source</text>
</g>
<!-- dir_030d08aee6ea3af9e4bce3d0ad58f66a -->
<g id="node2" class="node">
<title>dir_030d08aee6ea3af9e4bce3d0ad58f66a</title>
<g id="a_node2"><a xlink:href="dir_030d08aee6ea3af9e4bce3d0ad58f66a.html" target="_top" xlink:title="LHCO">
<polygon fill="#ffffff" stroke="#000000" points="438,-108 384,-108 384,-72 438,-72 438,-108"/>
<text text-anchor="middle" x="411" y="-88.1" font-family="Helvetica,sans-Serif" font-size="8.00" fill="#000000">LHCO</text>
</a>
</g>
</g>
<!-- dir_1486e6593103df4335f587ef037467ee -->
<g id="node8" class="node">
<title>dir_1486e6593103df4335f587ef037467ee</title>
<g id="a_node8"><a xlink:href="dir_1486e6593103df4335f587ef037467ee.html" target="_top" xlink:title="include">
<polygon fill="none" stroke="#ff0000" points="258,-36 204,-36 204,0 258,0 258,-36"/>
<text text-anchor="middle" x="231" y="-16.1" font-family="Helvetica,sans-Serif" font-size="8.00" fill="#000000">include</text>
</a>
</g>
</g>
<!-- dir_030d08aee6ea3af9e4bce3d0ad58f66a&#45;&gt;dir_1486e6593103df4335f587ef037467ee -->
<g id="edge1" class="edge">
<title>dir_030d08aee6ea3af9e4bce3d0ad58f66a&#45;&gt;dir_1486e6593103df4335f587ef037467ee</title>
<path fill="none" stroke="#000000" d="M395.2023,-71.8112C389.3648,-66.0359 382.3634,-60.0939 375,-56 341.5448,-37.3997 298.6258,-27.6041 268.3773,-22.6502"/>
<polygon fill="#000000" stroke="#000000" points="268.6582,-19.1524 258.2427,-21.0934 267.5953,-26.0713 268.6582,-19.1524"/>
<g id="a_edge1&#45;headlabel"><a xlink:href="dir_000115_000007.html" target="_top" xlink:title="4">
<text text-anchor="middle" x="272.6422" y="-14.9918" font-family="Helvetica,sans-Serif" font-size="8.00" fill="#000000">4</text>
</a>
</g>
</g>
<!-- dir_cd49cdf282faa890eb981faf765b021f -->
<g id="node3" class="node">
<title>dir_cd49cdf282faa890eb981faf765b021f</title>
<g id="a_node3"><a xlink:href="dir_cd49cdf282faa890eb981faf765b021f.html" target="_top" xlink:title="LHEF">
<polygon fill="#ffffff" stroke="#ff0000" points="366,-108 312,-108 312,-72 366,-72 366,-108"/>
<text text-anchor="middle" x="339" y="-88.1" font-family="Helvetica,sans-Serif" font-size="8.00" fill="#000000">LHEF</text>
</a>
</g>
</g>
<!-- dir_cd49cdf282faa890eb981faf765b021f&#45;&gt;dir_1486e6593103df4335f587ef037467ee -->
<g id="edge3" class="edge">
<title>dir_cd49cdf282faa890eb981faf765b021f&#45;&gt;dir_1486e6593103df4335f587ef037467ee</title>
<path fill="none" stroke="#000000" d="M321.5248,-71.6849C315.8896,-66.2892 309.4314,-60.6034 303,-56 291.9358,-48.0807 279.0117,-40.7439 267.1908,-34.6714"/>
<polygon fill="#000000" stroke="#000000" points="268.5144,-31.4203 258.0039,-30.0854 265.3879,-37.6833 268.5144,-31.4203"/>
<g id="a_edge3&#45;headlabel"><a xlink:href="dir_000012_000007.html" target="_top" xlink:title="14">
<text text-anchor="middle" x="272.9986" y="-28.5853" font-family="Helvetica,sans-Serif" font-size="8.00" fill="#000000">14</text>
</a>
</g>
</g>
<!-- dir_103a9a62244c6a6c8e9e10c24cb76799 -->
<g id="node4" class="node">
<title>dir_103a9a62244c6a6c8e9e10c24cb76799</title>
<g id="a_node4"><a xlink:href="dir_103a9a62244c6a6c8e9e10c24cb76799.html" target="_top" xlink:title="MEC">
<polygon fill="#ffffff" stroke="#ff0000" points="294,-108 240,-108 240,-72 294,-72 294,-108"/>
<text text-anchor="middle" x="267" y="-88.1" font-family="Helvetica,sans-Serif" font-size="8.00" fill="#000000">MEC</text>
</a>
</g>
</g>
<!-- dir_103a9a62244c6a6c8e9e10c24cb76799&#45;&gt;dir_1486e6593103df4335f587ef037467ee -->
<g id="edge2" class="edge">
<title>dir_103a9a62244c6a6c8e9e10c24cb76799&#45;&gt;dir_1486e6593103df4335f587ef037467ee</title>
<path fill="none" stroke="#000000" d="M257.9157,-71.8314C253.9385,-63.8771 249.1845,-54.369 244.7861,-45.5723"/>
<polygon fill="#000000" stroke="#000000" points="247.8093,-43.7923 240.2066,-36.4133 241.5483,-46.9228 247.8093,-43.7923"/>
<g id="a_edge2&#45;headlabel"><a xlink:href="dir_000099_000007.html" target="_top" xlink:title="19">
<text text-anchor="middle" x="251.9563" y="-43.8377" font-family="Helvetica,sans-Serif" font-size="8.00" fill="#000000">19</text>
</a>
</g>
</g>
<!-- dir_89ccbfa2c1fd9c6a39f4b672d1efa8d2 -->
<g id="node5" class="node">
<title>dir_89ccbfa2c1fd9c6a39f4b672d1efa8d2</title>
<g id="a_node5"><a xlink:href="dir_89ccbfa2c1fd9c6a39f4b672d1efa8d2.html" target="_top" xlink:title="PCAD">
<polygon fill="#ffffff" stroke="#000000" points="222,-108 168,-108 168,-72 222,-72 222,-108"/>
<text text-anchor="middle" x="195" y="-88.1" font-family="Helvetica,sans-Serif" font-size="8.00" fill="#000000">PCAD</text>
</a>
</g>
</g>
<!-- dir_89ccbfa2c1fd9c6a39f4b672d1efa8d2&#45;&gt;dir_1486e6593103df4335f587ef037467ee -->
<g id="edge4" class="edge">
<title>dir_89ccbfa2c1fd9c6a39f4b672d1efa8d2&#45;&gt;dir_1486e6593103df4335f587ef037467ee</title>
<path fill="none" stroke="#000000" d="M204.0843,-71.8314C208.0615,-63.8771 212.8155,-54.369 217.2139,-45.5723"/>
<polygon fill="#000000" stroke="#000000" points="220.4517,-46.9228 221.7934,-36.4133 214.1907,-43.7923 220.4517,-46.9228"/>
<g id="a_edge4&#45;headlabel"><a xlink:href="dir_000136_000007.html" target="_top" xlink:title="3">
<text text-anchor="middle" x="221.3837" y="-49.5077" font-family="Helvetica,sans-Serif" font-size="8.00" fill="#000000">3</text>
</a>
</g>
</g>
<!-- dir_e257e00379010ace041258642a05fb1e -->
<g id="node6" class="node">
<title>dir_e257e00379010ace041258642a05fb1e</title>
<g id="a_node6"><a xlink:href="dir_e257e00379010ace041258642a05fb1e.html" target="_top" xlink:title="SLHA">
<polygon fill="#ffffff" stroke="#ff0000" points="150,-108 96,-108 96,-72 150,-72 150,-108"/>
<text text-anchor="middle" x="123" y="-88.1" font-family="Helvetica,sans-Serif" font-size="8.00" fill="#000000">SLHA</text>
</a>
</g>
</g>
<!-- dir_e257e00379010ace041258642a05fb1e&#45;&gt;dir_1486e6593103df4335f587ef037467ee -->
<g id="edge5" class="edge">
<title>dir_e257e00379010ace041258642a05fb1e&#45;&gt;dir_1486e6593103df4335f587ef037467ee</title>
<path fill="none" stroke="#000000" d="M140.4752,-71.6849C146.1104,-66.2892 152.5686,-60.6034 159,-56 170.0642,-48.0807 182.9883,-40.7439 194.8092,-34.6714"/>
<polygon fill="#000000" stroke="#000000" points="196.6121,-37.6833 203.9961,-30.0854 193.4856,-31.4203 196.6121,-37.6833"/>
<g id="a_edge5&#45;headlabel"><a xlink:href="dir_000014_000007.html" target="_top" xlink:title="16">
<text text-anchor="middle" x="194.664" y="-39.9291" font-family="Helvetica,sans-Serif" font-size="8.00" fill="#000000">16</text>
</a>
</g>
</g>
<!-- dir_2a35cdbc810e8d630f3ea5459c9b0063 -->
<g id="node7" class="node">
<title>dir_2a35cdbc810e8d630f3ea5459c9b0063</title>
<g id="a_node7"><a xlink:href="dir_2a35cdbc810e8d630f3ea5459c9b0063.html" target="_top" xlink:title="SSP">
<polygon fill="#ffffff" stroke="#000000" points="78,-108 24,-108 24,-72 78,-72 78,-108"/>
<text text-anchor="middle" x="51" y="-88.1" font-family="Helvetica,sans-Serif" font-size="8.00" fill="#000000">SSP</text>
</a>
</g>
</g>
<!-- dir_2a35cdbc810e8d630f3ea5459c9b0063&#45;&gt;dir_1486e6593103df4335f587ef037467ee -->
<g id="edge6" class="edge">
<title>dir_2a35cdbc810e8d630f3ea5459c9b0063&#45;&gt;dir_1486e6593103df4335f587ef037467ee</title>
<path fill="none" stroke="#000000" d="M66.7977,-71.8112C72.6352,-66.0359 79.6366,-60.0939 87,-56 120.4552,-37.3997 163.3742,-27.6041 193.6227,-22.6502"/>
<polygon fill="#000000" stroke="#000000" points="194.4047,-26.0713 203.7573,-21.0934 193.3418,-19.1524 194.4047,-26.0713"/>
<g id="a_edge6&#45;headlabel"><a xlink:href="dir_000128_000007.html" target="_top" xlink:title="7">
<text text-anchor="middle" x="191.2828" y="-27.5233" font-family="Helvetica,sans-Serif" font-size="8.00" fill="#000000">7</text>
</a>
</g>
</g>
</g>
</svg>
