<?xml version="1.0" encoding="UTF-8" standalone="no"?>
<!DOCTYPE svg PUBLIC "-//W3C//DTD SVG 1.1//EN"
 "http://www.w3.org/Graphics/SVG/1.1/DTD/svg11.dtd">
<!-- Generated by graphviz version 2.40.1 (20161225.0304)
 -->
<!-- Title: SUSY Pages: 1 -->
<svg width="317pt" height="276pt"
 viewBox="0.00 0.00 316.50 276.00" xmlns="http://www.w3.org/2000/svg" xmlns:xlink="http://www.w3.org/1999/xlink">
<g id="graph0" class="graph" transform="scale(1 1) rotate(0) translate(4 272)">
<title>SUSY</title>
<g id="clust1" class="cluster">
<title>clusterdir_9a9fd231415804687953c3309ff81f4b</title>
<g id="a_clust1"><a xlink:href="dir_9a9fd231415804687953c3309ff81f4b.html" target="_top">
<polygon fill="#eeeeff" stroke="#000000" points="86.5,-208 86.5,-260 300.5,-260 300.5,-208 86.5,-208"/>
</a>
</g>
</g>
<!-- dir_9a9fd231415804687953c3309ff81f4b -->
<g id="node1" class="node">
<title>dir_9a9fd231415804687953c3309ff81f4b</title>
<text text-anchor="middle" x="265.5" y="-232.1" font-family="Helvetica,sans-Serif" font-size="8.00" fill="#000000">SUSY</text>
</g>
<!-- dir_ed73d7ef22277b8cb3e1ec0d939f3668 -->
<g id="node2" class="node">
<title>dir_ed73d7ef22277b8cb3e1ec0d939f3668</title>
<g id="a_node2"><a xlink:href="dir_ed73d7ef22277b8cb3e1ec0d939f3668.html" target="_top" xlink:title="nbproject">
<polygon fill="#ffffff" stroke="#ff0000" points="220.5,-252 166.5,-252 166.5,-216 220.5,-216 220.5,-252"/>
<text text-anchor="middle" x="193.5" y="-232.1" font-family="Helvetica,sans-Serif" font-size="8.00" fill="#000000">nbproject</text>
</a>
</g>
</g>
<!-- dir_9896e283377bb81d6c8d41d81e169bc4 -->
<g id="node3" class="node">
<title>dir_9896e283377bb81d6c8d41d81e169bc4</title>
<g id="a_node3"><a xlink:href="dir_9896e283377bb81d6c8d41d81e169bc4.html" target="_top" xlink:title="src">
<polygon fill="#ffffff" stroke="#000000" points="148.5,-252 94.5,-252 94.5,-216 148.5,-216 148.5,-252"/>
<text text-anchor="middle" x="121.5" y="-232.1" font-family="Helvetica,sans-Serif" font-size="8.00" fill="#000000">src</text>
</a>
</g>
</g>
<!-- dir_c2aa2cb4e0c986d55db329a86184b083 -->
<g id="node4" class="node">
<title>dir_c2aa2cb4e0c986d55db329a86184b083</title>
<g id="a_node4"><a xlink:href="dir_c2aa2cb4e0c986d55db329a86184b083.html" target="_top" xlink:title="StandardModel">
<polygon fill="none" stroke="#ff0000" points="125,-180 54,-180 54,-144 125,-144 125,-180"/>
<text text-anchor="middle" x="89.5" y="-160.1" font-family="Helvetica,sans-Serif" font-size="8.00" fill="#000000">StandardModel</text>
</a>
</g>
</g>
<!-- dir_9896e283377bb81d6c8d41d81e169bc4&#45;&gt;dir_c2aa2cb4e0c986d55db329a86184b083 -->
<g id="edge6" class="edge">
<title>dir_9896e283377bb81d6c8d41d81e169bc4&#45;&gt;dir_c2aa2cb4e0c986d55db329a86184b083</title>
<path fill="none" stroke="#000000" d="M113.425,-215.8314C109.8898,-207.8771 105.664,-198.369 101.7544,-189.5723"/>
<polygon fill="#000000" stroke="#000000" points="104.9435,-188.1299 97.6837,-180.4133 98.5468,-190.9729 104.9435,-188.1299"/>
<g id="a_edge6&#45;headlabel"><a xlink:href="dir_000098_000004.html" target="_top" xlink:title="15">
<text text-anchor="middle" x="108.9979" y="-188.3616" font-family="Helvetica,sans-Serif" font-size="8.00" fill="#000000">15</text>
</a>
</g>
</g>
<!-- dir_5db6616082cde53441490dccc55cf8fe -->
<g id="node5" class="node">
<title>dir_5db6616082cde53441490dccc55cf8fe</title>
<g id="a_node5"><a xlink:href="dir_5db6616082cde53441490dccc55cf8fe.html" target="_top" xlink:title="Observables">
<polygon fill="none" stroke="#ff0000" points="61,-108 0,-108 0,-72 61,-72 61,-108"/>
<text text-anchor="middle" x="30.5" y="-88.1" font-family="Helvetica,sans-Serif" font-size="8.00" fill="#000000">Observables</text>
</a>
</g>
</g>
<!-- dir_9896e283377bb81d6c8d41d81e169bc4&#45;&gt;dir_5db6616082cde53441490dccc55cf8fe -->
<g id="edge7" class="edge">
<title>dir_9896e283377bb81d6c8d41d81e169bc4&#45;&gt;dir_5db6616082cde53441490dccc55cf8fe</title>
<path fill="none" stroke="#000000" d="M94.3397,-221.9548C77.2324,-212.914 56.2343,-198.8521 44.5,-180 33.0609,-161.6223 29.8525,-137.1637 29.3431,-118.3828"/>
<polygon fill="#000000" stroke="#000000" points="32.8431,-118.3269 29.3078,-108.3393 25.8431,-118.3516 32.8431,-118.3269"/>
<g id="a_edge7&#45;headlabel"><a xlink:href="dir_000098_000076.html" target="_top" xlink:title="12">
<text text-anchor="middle" x="35.6948" y="-120.0116" font-family="Helvetica,sans-Serif" font-size="8.00" fill="#000000">12</text>
</a>
</g>
</g>
<!-- dir_6db1c069948d59c49e3dd255dfa7d52e -->
<g id="node6" class="node">
<title>dir_6db1c069948d59c49e3dd255dfa7d52e</title>
<g id="a_node6"><a xlink:href="dir_6db1c069948d59c49e3dd255dfa7d52e.html" target="_top" xlink:title="LoopFunctions">
<polygon fill="none" stroke="#ff0000" points="187,-108 118,-108 118,-72 187,-72 187,-108"/>
<text text-anchor="middle" x="152.5" y="-88.1" font-family="Helvetica,sans-Serif" font-size="8.00" fill="#000000">LoopFunctions</text>
</a>
</g>
</g>
<!-- dir_9896e283377bb81d6c8d41d81e169bc4&#45;&gt;dir_6db1c069948d59c49e3dd255dfa7d52e -->
<g id="edge8" class="edge">
<title>dir_9896e283377bb81d6c8d41d81e169bc4&#45;&gt;dir_6db1c069948d59c49e3dd255dfa7d52e</title>
<path fill="none" stroke="#000000" d="M126.1303,-215.5466C128.6962,-205.1323 131.8862,-191.8655 134.5,-180 139.0349,-159.4134 143.6897,-136.0693 147.1294,-118.3154"/>
<polygon fill="#000000" stroke="#000000" points="150.601,-118.7963 149.0531,-108.3151 143.7271,-117.4739 150.601,-118.7963"/>
<g id="a_edge8&#45;headlabel"><a xlink:href="dir_000098_000020.html" target="_top" xlink:title="3">
<text text-anchor="middle" x="152.7102" y="-120.9625" font-family="Helvetica,sans-Serif" font-size="8.00" fill="#000000">3</text>
</a>
</g>
</g>
<!-- dir_a41afcbfbf54af8aa656914f5423c760 -->
<g id="node7" class="node">
<title>dir_a41afcbfbf54af8aa656914f5423c760</title>
<g id="a_node7"><a xlink:href="dir_a41afcbfbf54af8aa656914f5423c760.html" target="_top" xlink:title="gslpp">
<polygon fill="none" stroke="#ff0000" points="147.5,-36 93.5,-36 93.5,0 147.5,0 147.5,-36"/>
<text text-anchor="middle" x="120.5" y="-16.1" font-family="Helvetica,sans-Serif" font-size="8.00" fill="#000000">gslpp</text>
</a>
</g>
</g>
<!-- dir_9896e283377bb81d6c8d41d81e169bc4&#45;&gt;dir_a41afcbfbf54af8aa656914f5423c760 -->
<g id="edge9" class="edge">
<title>dir_9896e283377bb81d6c8d41d81e169bc4&#45;&gt;dir_a41afcbfbf54af8aa656914f5423c760</title>
<path fill="none" stroke="#000000" d="M136.6744,-215.8411C155.0222,-192.5838 184.8861,-150.2177 196.5,-108 200.7439,-92.5731 203.839,-86.2175 196.5,-72 187.9354,-55.4081 171.6569,-42.8043 156.3559,-33.9635"/>
<polygon fill="#000000" stroke="#000000" points="157.9871,-30.8667 147.5255,-29.1913 154.6589,-37.0249 157.9871,-30.8667"/>
<g id="a_edge9&#45;headlabel"><a xlink:href="dir_000098_000050.html" target="_top" xlink:title="6">
<text text-anchor="middle" x="162.4993" y="-28.1778" font-family="Helvetica,sans-Serif" font-size="8.00" fill="#000000">6</text>
</a>
</g>
</g>
<!-- dir_c2aa2cb4e0c986d55db329a86184b083&#45;&gt;dir_5db6616082cde53441490dccc55cf8fe -->
<g id="edge1" class="edge">
<title>dir_c2aa2cb4e0c986d55db329a86184b083&#45;&gt;dir_5db6616082cde53441490dccc55cf8fe</title>
<path fill="none" stroke="#000000" d="M68.6594,-143.8314C61.0558,-135.5386 52.6824,-125.557 45.6426,-116.4533"/>
<polygon fill="#000000" stroke="#000000" points="48.4126,-114.3134 39.6126,-108.4133 42.8126,-118.5133 48.4126,-114.3134"/>
<g id="a_edge1&#45;headlabel"><a xlink:href="dir_000004_000076.html" target="_top" xlink:title="2">
<text text-anchor="middle" x="52.8408" y="-113.5855" font-family="Helvetica,sans-Serif" font-size="8.00" fill="#000000">2</text>
</a>
</g>
</g>
<!-- dir_c2aa2cb4e0c986d55db329a86184b083&#45;&gt;dir_6db1c069948d59c49e3dd255dfa7d52e -->
<g id="edge2" class="edge">
<title>dir_c2aa2cb4e0c986d55db329a86184b083&#45;&gt;dir_6db1c069948d59c49e3dd255dfa7d52e</title>
<path fill="none" stroke="#000000" d="M105.3976,-143.8314C112.7278,-135.454 121.566,-125.3531 129.5969,-116.1749"/>
<polygon fill="#000000" stroke="#000000" points="132.4373,-118.2438 136.3884,-108.4133 127.1693,-113.6343 132.4373,-118.2438"/>
<g id="a_edge2&#45;headlabel"><a xlink:href="dir_000004_000020.html" target="_top" xlink:title="8">
<text text-anchor="middle" x="132.2071" y="-120.9187" font-family="Helvetica,sans-Serif" font-size="8.00" fill="#000000">8</text>
</a>
</g>
</g>
<!-- dir_c2aa2cb4e0c986d55db329a86184b083&#45;&gt;dir_a41afcbfbf54af8aa656914f5423c760 -->
<g id="edge3" class="edge">
<title>dir_c2aa2cb4e0c986d55db329a86184b083&#45;&gt;dir_a41afcbfbf54af8aa656914f5423c760</title>
<path fill="none" stroke="#000000" d="M93.4262,-143.7623C98.737,-119.0928 108.2594,-74.8598 114.478,-45.9731"/>
<polygon fill="#000000" stroke="#000000" points="117.9227,-46.6023 116.6057,-36.0896 111.0795,-45.129 117.9227,-46.6023"/>
<g id="a_edge3&#45;headlabel"><a xlink:href="dir_000004_000050.html" target="_top" xlink:title="16">
<text text-anchor="middle" x="119.9419" y="-48.8139" font-family="Helvetica,sans-Serif" font-size="8.00" fill="#000000">16</text>
</a>
</g>
</g>
<!-- dir_5db6616082cde53441490dccc55cf8fe&#45;&gt;dir_c2aa2cb4e0c986d55db329a86184b083 -->
<g id="edge4" class="edge">
<title>dir_5db6616082cde53441490dccc55cf8fe&#45;&gt;dir_c2aa2cb4e0c986d55db329a86184b083</title>
<path fill="none" stroke="#000000" d="M51.5647,-108.4133C59.1832,-116.7389 67.5508,-126.7282 74.5643,-135.8144"/>
<polygon fill="#000000" stroke="#000000" points="71.7702,-137.9224 80.5642,-143.8314 77.3745,-133.7281 71.7702,-137.9224"/>
<g id="a_edge4&#45;headlabel"><a xlink:href="dir_000076_000004.html" target="_top" xlink:title="3">
<text text-anchor="middle" x="67.3432" y="-134.8457" font-family="Helvetica,sans-Serif" font-size="8.00" fill="#000000">3</text>
</a>
</g>
</g>
<!-- dir_5db6616082cde53441490dccc55cf8fe&#45;&gt;dir_a41afcbfbf54af8aa656914f5423c760 -->
<g id="edge5" class="edge">
<title>dir_5db6616082cde53441490dccc55cf8fe&#45;&gt;dir_a41afcbfbf54af8aa656914f5423c760</title>
<path fill="none" stroke="#000000" d="M53.2108,-71.8314C64.296,-62.9632 77.7954,-52.1637 89.7852,-42.5718"/>
<polygon fill="#000000" stroke="#000000" points="92.1742,-45.1429 97.7965,-36.1628 87.8013,-39.6768 92.1742,-45.1429"/>
<g id="a_edge5&#45;headlabel"><a xlink:href="dir_000076_000050.html" target="_top" xlink:title="3">
<text text-anchor="middle" x="91.141" y="-47.7055" font-family="Helvetica,sans-Serif" font-size="8.00" fill="#000000">3</text>
</a>
</g>
</g>
<!-- dir_6db1c069948d59c49e3dd255dfa7d52e&#45;&gt;dir_a41afcbfbf54af8aa656914f5423c760 -->
<g id="edge10" class="edge">
<title>dir_6db1c069948d59c49e3dd255dfa7d52e&#45;&gt;dir_a41afcbfbf54af8aa656914f5423c760</title>
<path fill="none" stroke="#000000" d="M144.425,-71.8314C140.8898,-63.8771 136.664,-54.369 132.7544,-45.5723"/>
<polygon fill="#000000" stroke="#000000" points="135.9435,-44.1299 128.6837,-36.4133 129.5468,-46.9729 135.9435,-44.1299"/>
<g id="a_edge10&#45;headlabel"><a xlink:href="dir_000020_000050.html" target="_top" xlink:title="2">
<text text-anchor="middle" x="139.9979" y="-44.3616" font-family="Helvetica,sans-Serif" font-size="8.00" fill="#000000">2</text>
</a>
</g>
</g>
</g>
</svg>
