<?xml version="1.0" encoding="UTF-8" standalone="no"?>
<!DOCTYPE svg PUBLIC "-//W3C//DTD SVG 1.1//EN"
 "http://www.w3.org/Graphics/SVG/1.1/DTD/svg11.dtd">
<!-- Generated by graphviz version 2.40.1 (20161225.0304)
 -->
<!-- Title: LeftRightSymmetricModel Pages: 1 -->
<svg width="313pt" height="276pt"
 viewBox="0.00 0.00 312.50 276.00" xmlns="http://www.w3.org/2000/svg" xmlns:xlink="http://www.w3.org/1999/xlink">
<g id="graph0" class="graph" transform="scale(1 1) rotate(0) translate(4 272)">
<title>LeftRightSymmetricModel</title>
<g id="clust1" class="cluster">
<title>clusterdir_7fe33a15be78195a9cae1c1d63b2241c</title>
<g id="a_clust1"><a xlink:href="dir_7fe33a15be78195a9cae1c1d63b2241c.html" target="_top">
<polygon fill="#eeeeff" stroke="#000000" points="28.5,-208 28.5,-260 296.5,-260 296.5,-208 28.5,-208"/>
</a>
</g>
</g>
<!-- dir_7fe33a15be78195a9cae1c1d63b2241c -->
<g id="node1" class="node">
<title>dir_7fe33a15be78195a9cae1c1d63b2241c</title>
<text text-anchor="middle" x="234.5" y="-232.1" font-family="Helvetica,sans-Serif" font-size="8.00" fill="#000000">LeftRightSymmetricModel</text>
</g>
<!-- dir_bef72b4f06eaeb78795df0d39ac7aecc -->
<g id="node2" class="node">
<title>dir_bef72b4f06eaeb78795df0d39ac7aecc</title>
<g id="a_node2"><a xlink:href="dir_bef72b4f06eaeb78795df0d39ac7aecc.html" target="_top" xlink:title="nbproject">
<polygon fill="#ffffff" stroke="#ff0000" points="162.5,-252 108.5,-252 108.5,-216 162.5,-216 162.5,-252"/>
<text text-anchor="middle" x="135.5" y="-232.1" font-family="Helvetica,sans-Serif" font-size="8.00" fill="#000000">nbproject</text>
</a>
</g>
</g>
<!-- dir_6988b8b9dcb0749d2d65ef156c7f33ca -->
<g id="node3" class="node">
<title>dir_6988b8b9dcb0749d2d65ef156c7f33ca</title>
<g id="a_node3"><a xlink:href="dir_6988b8b9dcb0749d2d65ef156c7f33ca.html" target="_top" xlink:title="src">
<polygon fill="#ffffff" stroke="#000000" points="90.5,-252 36.5,-252 36.5,-216 90.5,-216 90.5,-252"/>
<text text-anchor="middle" x="63.5" y="-232.1" font-family="Helvetica,sans-Serif" font-size="8.00" fill="#000000">src</text>
</a>
</g>
</g>
<!-- dir_c2aa2cb4e0c986d55db329a86184b083 -->
<g id="node4" class="node">
<title>dir_c2aa2cb4e0c986d55db329a86184b083</title>
<g id="a_node4"><a xlink:href="dir_c2aa2cb4e0c986d55db329a86184b083.html" target="_top" xlink:title="StandardModel">
<polygon fill="none" stroke="#ff0000" points="99,-180 28,-180 28,-144 99,-144 99,-180"/>
<text text-anchor="middle" x="63.5" y="-160.1" font-family="Helvetica,sans-Serif" font-size="8.00" fill="#000000">StandardModel</text>
</a>
</g>
</g>
<!-- dir_6988b8b9dcb0749d2d65ef156c7f33ca&#45;&gt;dir_c2aa2cb4e0c986d55db329a86184b083 -->
<g id="edge5" class="edge">
<title>dir_6988b8b9dcb0749d2d65ef156c7f33ca&#45;&gt;dir_c2aa2cb4e0c986d55db329a86184b083</title>
<path fill="none" stroke="#000000" d="M63.5,-215.8314C63.5,-208.131 63.5,-198.9743 63.5,-190.4166"/>
<polygon fill="#000000" stroke="#000000" points="67.0001,-190.4132 63.5,-180.4133 60.0001,-190.4133 67.0001,-190.4132"/>
<g id="a_edge5&#45;headlabel"><a xlink:href="dir_000127_000004.html" target="_top" xlink:title="2">
<text text-anchor="middle" x="69.8393" y="-192.1079" font-family="Helvetica,sans-Serif" font-size="8.00" fill="#000000">2</text>
</a>
</g>
</g>
<!-- dir_5db6616082cde53441490dccc55cf8fe -->
<g id="node5" class="node">
<title>dir_5db6616082cde53441490dccc55cf8fe</title>
<g id="a_node5"><a xlink:href="dir_5db6616082cde53441490dccc55cf8fe.html" target="_top" xlink:title="Observables">
<polygon fill="none" stroke="#ff0000" points="61,-108 0,-108 0,-72 61,-72 61,-108"/>
<text text-anchor="middle" x="30.5" y="-88.1" font-family="Helvetica,sans-Serif" font-size="8.00" fill="#000000">Observables</text>
</a>
</g>
</g>
<!-- dir_6988b8b9dcb0749d2d65ef156c7f33ca&#45;&gt;dir_5db6616082cde53441490dccc55cf8fe -->
<g id="edge6" class="edge">
<title>dir_6988b8b9dcb0749d2d65ef156c7f33ca&#45;&gt;dir_5db6616082cde53441490dccc55cf8fe</title>
<path fill="none" stroke="#000000" d="M43.0974,-215.5625C34.0059,-205.9675 24.2838,-193.4441 19.5,-180 12.3647,-159.9471 15.8356,-135.9694 20.6993,-117.8073"/>
<polygon fill="#000000" stroke="#000000" points="24.0848,-118.7012 23.5699,-108.1189 17.3732,-116.7126 24.0848,-118.7012"/>
<g id="a_edge6&#45;headlabel"><a xlink:href="dir_000127_000076.html" target="_top" xlink:title="1">
<text text-anchor="middle" x="25.786" y="-121.0543" font-family="Helvetica,sans-Serif" font-size="8.00" fill="#000000">1</text>
</a>
</g>
</g>
<!-- dir_a41afcbfbf54af8aa656914f5423c760 -->
<g id="node6" class="node">
<title>dir_a41afcbfbf54af8aa656914f5423c760</title>
<g id="a_node6"><a xlink:href="dir_a41afcbfbf54af8aa656914f5423c760.html" target="_top" xlink:title="gslpp">
<polygon fill="none" stroke="#ff0000" points="116.5,-36 62.5,-36 62.5,0 116.5,0 116.5,-36"/>
<text text-anchor="middle" x="89.5" y="-16.1" font-family="Helvetica,sans-Serif" font-size="8.00" fill="#000000">gslpp</text>
</a>
</g>
</g>
<!-- dir_6988b8b9dcb0749d2d65ef156c7f33ca&#45;&gt;dir_a41afcbfbf54af8aa656914f5423c760 -->
<g id="edge7" class="edge">
<title>dir_6988b8b9dcb0749d2d65ef156c7f33ca&#45;&gt;dir_a41afcbfbf54af8aa656914f5423c760</title>
<path fill="none" stroke="#000000" d="M84.3578,-215.6461C93.654,-206.0709 103.5978,-193.54 108.5,-180 124.8369,-134.8766 111.2179,-78.5026 100.1445,-45.5479"/>
<polygon fill="#000000" stroke="#000000" points="103.4451,-44.3832 96.8256,-36.1108 96.8416,-46.7056 103.4451,-44.3832"/>
<g id="a_edge7&#45;headlabel"><a xlink:href="dir_000127_000050.html" target="_top" xlink:title="3">
<text text-anchor="middle" x="107.3161" y="-44.9323" font-family="Helvetica,sans-Serif" font-size="8.00" fill="#000000">3</text>
</a>
</g>
</g>
<!-- dir_c2aa2cb4e0c986d55db329a86184b083&#45;&gt;dir_5db6616082cde53441490dccc55cf8fe -->
<g id="edge1" class="edge">
<title>dir_c2aa2cb4e0c986d55db329a86184b083&#45;&gt;dir_5db6616082cde53441490dccc55cf8fe</title>
<path fill="none" stroke="#000000" d="M49.2203,-143.8314C44.8465,-135.9617 40.3286,-126.5712 36.6721,-117.8533"/>
<polygon fill="#000000" stroke="#000000" points="39.8777,-116.4409 32.9634,-108.4133 33.3625,-119.0006 39.8777,-116.4409"/>
<g id="a_edge1&#45;headlabel"><a xlink:href="dir_000004_000076.html" target="_top" xlink:title="2">
<text text-anchor="middle" x="43.8347" y="-116.8484" font-family="Helvetica,sans-Serif" font-size="8.00" fill="#000000">2</text>
</a>
</g>
</g>
<!-- dir_c2aa2cb4e0c986d55db329a86184b083&#45;&gt;dir_a41afcbfbf54af8aa656914f5423c760 -->
<g id="edge2" class="edge">
<title>dir_c2aa2cb4e0c986d55db329a86184b083&#45;&gt;dir_a41afcbfbf54af8aa656914f5423c760</title>
<path fill="none" stroke="#000000" d="M66.7929,-143.7623C71.2471,-119.0928 79.2337,-74.8598 84.4493,-45.9731"/>
<polygon fill="#000000" stroke="#000000" points="87.9012,-46.5524 86.2338,-36.0896 81.0126,-45.3086 87.9012,-46.5524"/>
<g id="a_edge2&#45;headlabel"><a xlink:href="dir_000004_000050.html" target="_top" xlink:title="16">
<text text-anchor="middle" x="90.0567" y="-48.6943" font-family="Helvetica,sans-Serif" font-size="8.00" fill="#000000">16</text>
</a>
</g>
</g>
<!-- dir_5db6616082cde53441490dccc55cf8fe&#45;&gt;dir_c2aa2cb4e0c986d55db329a86184b083 -->
<g id="edge3" class="edge">
<title>dir_5db6616082cde53441490dccc55cf8fe&#45;&gt;dir_c2aa2cb4e0c986d55db329a86184b083</title>
<path fill="none" stroke="#000000" d="M44.9154,-108.4133C49.2921,-116.3141 53.8025,-125.7132 57.441,-134.417"/>
<polygon fill="#000000" stroke="#000000" points="54.2216,-135.7944 61.1251,-143.8314 60.7402,-133.2435 54.2216,-135.7944"/>
<g id="a_edge3&#45;headlabel"><a xlink:href="dir_000076_000004.html" target="_top" xlink:title="3">
<text text-anchor="middle" x="50.2677" y="-131.5817" font-family="Helvetica,sans-Serif" font-size="8.00" fill="#000000">3</text>
</a>
</g>
</g>
<!-- dir_5db6616082cde53441490dccc55cf8fe&#45;&gt;dir_a41afcbfbf54af8aa656914f5423c760 -->
<g id="edge4" class="edge">
<title>dir_5db6616082cde53441490dccc55cf8fe&#45;&gt;dir_a41afcbfbf54af8aa656914f5423c760</title>
<path fill="none" stroke="#000000" d="M45.3882,-71.8314C52.253,-63.454 60.5301,-53.3531 68.0511,-44.1749"/>
<polygon fill="#000000" stroke="#000000" points="70.7803,-46.3665 74.4114,-36.4133 65.3659,-41.9297 70.7803,-46.3665"/>
<g id="a_edge4&#45;headlabel"><a xlink:href="dir_000076_000050.html" target="_top" xlink:title="3">
<text text-anchor="middle" x="70.6981" y="-49.0464" font-family="Helvetica,sans-Serif" font-size="8.00" fill="#000000">3</text>
</a>
</g>
</g>
</g>
</svg>
