<?xml version="1.0" encoding="UTF-8" standalone="no"?>
<!DOCTYPE svg PUBLIC "-//W3C//DTD SVG 1.1//EN"
 "http://www.w3.org/Graphics/SVG/1.1/DTD/svg11.dtd">
<!-- Generated by graphviz version 2.40.1 (20161225.0304)
 -->
<!-- Title: src Pages: 1 -->
<svg width="113pt" height="221pt"
 viewBox="0.00 0.00 113.00 221.00" xmlns="http://www.w3.org/2000/svg" xmlns:xlink="http://www.w3.org/1999/xlink">
<g id="graph0" class="graph" transform="scale(1 1) rotate(0) translate(4 217)">
<title>src</title>
<g id="clust1" class="cluster">
<title>clusterdir_0c76491da9cff37191668e19637d8bbe</title>
<g id="a_clust1"><a xlink:href="dir_0c76491da9cff37191668e19637d8bbe.html" target="_top" xlink:title="HiggsExtensions">
<polygon fill="#ddddee" stroke="#000000" points="8,-136 8,-205 84,-205 84,-136 8,-136"/>
<text text-anchor="middle" x="46" y="-194.6" font-family="Helvetica,sans-Serif" font-size="8.00" fill="#000000">HiggsExtensions</text>
</a>
</g>
</g>
<!-- dir_937ae1c3882a5cfb38c2372d7537f252 -->
<g id="node1" class="node">
<title>dir_937ae1c3882a5cfb38c2372d7537f252</title>
<g id="a_node1"><a xlink:href="dir_937ae1c3882a5cfb38c2372d7537f252.html" target="_top" xlink:title="src">
<polygon fill="#eeeeff" stroke="#000000" points="73,-180 19,-180 19,-144 73,-144 73,-180"/>
<text text-anchor="middle" x="46" y="-160.1" font-family="Helvetica,sans-Serif" font-size="8.00" fill="#000000">src</text>
</a>
</g>
</g>
<!-- dir_5db6616082cde53441490dccc55cf8fe -->
<g id="node2" class="node">
<title>dir_5db6616082cde53441490dccc55cf8fe</title>
<g id="a_node2"><a xlink:href="dir_5db6616082cde53441490dccc55cf8fe.html" target="_top" xlink:title="Observables">
<polygon fill="none" stroke="#ff0000" points="76.5,-36 15.5,-36 15.5,0 76.5,0 76.5,-36"/>
<text text-anchor="middle" x="46" y="-16.1" font-family="Helvetica,sans-Serif" font-size="8.00" fill="#000000">Observables</text>
</a>
</g>
</g>
<!-- dir_937ae1c3882a5cfb38c2372d7537f252&#45;&gt;dir_5db6616082cde53441490dccc55cf8fe -->
<g id="edge1" class="edge">
<title>dir_937ae1c3882a5cfb38c2372d7537f252&#45;&gt;dir_5db6616082cde53441490dccc55cf8fe</title>
<path fill="none" stroke="#000000" d="M41.7325,-143.6221C39.538,-133.2314 37.0984,-119.963 36,-108 34.5372,-92.067 34.5372,-87.933 36,-72 36.7723,-63.5885 38.2077,-54.5317 39.7547,-46.2836"/>
<polygon fill="#000000" stroke="#000000" points="43.2067,-46.8697 41.7325,-36.3779 36.3422,-45.499 43.2067,-46.8697"/>
<g id="a_edge1&#45;headlabel"><a xlink:href="dir_000122_000076.html" target="_top" xlink:title="1">
<text text-anchor="middle" x="45.2873" y="-49.0506" font-family="Helvetica,sans-Serif" font-size="8.00" fill="#000000">1</text>
</a>
</g>
</g>
<!-- dir_666c9667863ccc7af17064510cec8262 -->
<g id="node3" class="node">
<title>dir_666c9667863ccc7af17064510cec8262</title>
<g id="a_node3"><a xlink:href="dir_666c9667863ccc7af17064510cec8262.html" target="_top" xlink:title="NewPhysics">
<polygon fill="none" stroke="#ff0000" points="105,-108 45,-108 45,-72 105,-72 105,-108"/>
<text text-anchor="middle" x="75" y="-88.1" font-family="Helvetica,sans-Serif" font-size="8.00" fill="#000000">NewPhysics</text>
</a>
</g>
</g>
<!-- dir_937ae1c3882a5cfb38c2372d7537f252&#45;&gt;dir_666c9667863ccc7af17064510cec8262 -->
<g id="edge2" class="edge">
<title>dir_937ae1c3882a5cfb38c2372d7537f252&#45;&gt;dir_666c9667863ccc7af17064510cec8262</title>
<path fill="none" stroke="#000000" d="M53.3179,-143.8314C56.4876,-135.9617 60.27,-126.5712 63.7813,-117.8533"/>
<polygon fill="#000000" stroke="#000000" points="67.0939,-118.9968 67.5835,-108.4133 60.6008,-116.3815 67.0939,-118.9968"/>
<g id="a_edge2&#45;headlabel"><a xlink:href="dir_000122_000073.html" target="_top" xlink:title="8">
<text text-anchor="middle" x="68.3847" y="-121.4919" font-family="Helvetica,sans-Serif" font-size="8.00" fill="#000000">8</text>
</a>
</g>
</g>
<!-- dir_666c9667863ccc7af17064510cec8262&#45;&gt;dir_5db6616082cde53441490dccc55cf8fe -->
<g id="edge3" class="edge">
<title>dir_666c9667863ccc7af17064510cec8262&#45;&gt;dir_5db6616082cde53441490dccc55cf8fe</title>
<path fill="none" stroke="#000000" d="M67.6821,-71.8314C64.5124,-63.9617 60.73,-54.5712 57.2187,-45.8533"/>
<polygon fill="#000000" stroke="#000000" points="60.3992,-44.3815 53.4165,-36.4133 53.9061,-46.9968 60.3992,-44.3815"/>
<g id="a_edge3&#45;headlabel"><a xlink:href="dir_000073_000076.html" target="_top" xlink:title="3">
<text text-anchor="middle" x="64.3758" y="-44.755" font-family="Helvetica,sans-Serif" font-size="8.00" fill="#000000">3</text>
</a>
</g>
</g>
</g>
</svg>
