<?xml version="1.0" encoding="UTF-8" standalone="no"?>
<!DOCTYPE svg PUBLIC "-//W3C//DTD SVG 1.1//EN"
 "http://www.w3.org/Graphics/SVG/1.1/DTD/svg11.dtd">
<!-- Generated by graphviz version 2.40.1 (20161225.0304)
 -->
<!-- Title: Graph Legend Pages: 1 -->
<svg width="452pt" height="149pt"
 viewBox="0.00 0.00 452.00 149.00" xmlns="http://www.w3.org/2000/svg" xmlns:xlink="http://www.w3.org/1999/xlink">
<g id="graph0" class="graph" transform="scale(1 1) rotate(0) translate(4 145)">
<title>Graph Legend</title>
<!-- Node9 -->
<g id="node1" class="node">
<title>Node9</title>
<polygon fill="#bfbfbf" stroke="#000000" points="258.5,-17 210.5,-17 210.5,0 258.5,0 258.5,-17"/>
<text text-anchor="middle" x="234.5" y="-6.6" font-family="Helvetica,sans-Serif" font-size="8.00" fill="#000000">Inherited</text>
</g>
<!-- Node10 -->
<g id="node2" class="node">
<title>Node10</title>
<g id="a_node2"><a xlink:href="$classPublicBase.html" xlink:title="PublicBase">
<polygon fill="none" stroke="#000000" points="57,-79 0,-79 0,-62 57,-62 57,-79"/>
<text text-anchor="middle" x="28.5" y="-68.6" font-family="Helvetica,sans-Serif" font-size="8.00" fill="#000000">PublicBase</text>
</a>
</g>
</g>
<!-- Node10&#45;&gt;Node9 -->
<g id="edge1" class="edge">
<title>Node10&#45;&gt;Node9</title>
<path fill="none" stroke="#191970" d="M66.7488,-58.9882C108.7411,-46.3498 174.8885,-26.4413 210.2698,-15.7926"/>
<polygon fill="#191970" stroke="#191970" points="65.7104,-55.6456 57.1434,-61.8792 67.7278,-62.3486 65.7104,-55.6456"/>
</g>
<!-- Node11 -->
<g id="node3" class="node">
<title>Node11</title>
<g id="a_node3"><a xlink:href="$classTruncated.html" xlink:title="Truncated">
<polygon fill="none" stroke="#ff0000" points="55,-141 2,-141 2,-124 55,-124 55,-141"/>
<text text-anchor="middle" x="28.5" y="-130.6" font-family="Helvetica,sans-Serif" font-size="8.00" fill="#000000">Truncated</text>
</a>
</g>
</g>
<!-- Node11&#45;&gt;Node10 -->
<g id="edge2" class="edge">
<title>Node11&#45;&gt;Node10</title>
<path fill="none" stroke="#191970" d="M28.5,-113.5373C28.5,-102.0299 28.5,-87.9026 28.5,-79.0476"/>
<polygon fill="#191970" stroke="#191970" points="25.0001,-113.8791 28.5,-123.8792 32.0001,-113.8792 25.0001,-113.8791"/>
</g>
<!-- Node13 -->
<g id="node4" class="node">
<title>Node13</title>
<g id="a_node4"><a xlink:href="$classProtectedBase.html" xlink:title="ProtectedBase">
<polygon fill="none" stroke="#000000" points="144,-79 75,-79 75,-62 144,-62 144,-79"/>
<text text-anchor="middle" x="109.5" y="-68.6" font-family="Helvetica,sans-Serif" font-size="8.00" fill="#000000">ProtectedBase</text>
</a>
</g>
</g>
<!-- Node13&#45;&gt;Node9 -->
<g id="edge3" class="edge">
<title>Node13&#45;&gt;Node9</title>
<path fill="none" stroke="#006400" d="M135.9912,-57.3604C160.5108,-45.1986 196.2526,-27.4707 217.2669,-17.0476"/>
<polygon fill="#006400" stroke="#006400" points="134.2841,-54.3002 126.8807,-61.8792 137.3945,-60.5712 134.2841,-54.3002"/>
</g>
<!-- Node14 -->
<g id="node5" class="node">
<title>Node14</title>
<g id="a_node5"><a xlink:href="$classPrivateBase.html" xlink:title="PrivateBase">
<polygon fill="none" stroke="#000000" points="222.5,-79 162.5,-79 162.5,-62 222.5,-62 222.5,-79"/>
<text text-anchor="middle" x="192.5" y="-68.6" font-family="Helvetica,sans-Serif" font-size="8.00" fill="#000000">PrivateBase</text>
</a>
</g>
</g>
<!-- Node14&#45;&gt;Node9 -->
<g id="edge4" class="edge">
<title>Node14&#45;&gt;Node9</title>
<path fill="none" stroke="#8b1a1a" d="M204.1429,-53.3129C212.1345,-41.5158 222.3987,-26.3638 228.7097,-17.0476"/>
<polygon fill="#8b1a1a" stroke="#8b1a1a" points="201.0507,-51.637 198.3399,-61.8792 206.8462,-55.5629 201.0507,-51.637"/>
</g>
<!-- Node15 -->
<g id="node6" class="node">
<title>Node15</title>
<polygon fill="none" stroke="#bfbfbf" points="312,-79 241,-79 241,-62 312,-62 312,-79"/>
<text text-anchor="middle" x="276.5" y="-68.6" font-family="Helvetica,sans-Serif" font-size="8.00" fill="#000000">Undocumented</text>
</g>
<!-- Node15&#45;&gt;Node9 -->
<g id="edge5" class="edge">
<title>Node15&#45;&gt;Node9</title>
<path fill="none" stroke="#191970" d="M264.8571,-53.3129C256.8655,-41.5158 246.6013,-26.3638 240.2903,-17.0476"/>
<polygon fill="#191970" stroke="#191970" points="262.1538,-55.5629 270.6601,-61.8792 267.9493,-51.637 262.1538,-55.5629"/>
</g>
<!-- Node16 -->
<g id="node7" class="node">
<title>Node16</title>
<g id="a_node7"><a xlink:href="$classTempl.html" xlink:title="Templ&lt; int &gt;">
<polygon fill="none" stroke="#000000" points="391,-79 330,-79 330,-62 391,-62 391,-79"/>
<text text-anchor="middle" x="360.5" y="-68.6" font-family="Helvetica,sans-Serif" font-size="8.00" fill="#000000">Templ&lt; int &gt;</text>
</a>
</g>
</g>
<!-- Node16&#45;&gt;Node9 -->
<g id="edge6" class="edge">
<title>Node16&#45;&gt;Node9</title>
<path fill="none" stroke="#191970" d="M333.7968,-57.3604C309.0811,-45.1986 273.0533,-27.4707 251.871,-17.0476"/>
<polygon fill="#191970" stroke="#191970" points="332.4624,-60.6044 342.9802,-61.8792 335.553,-54.3236 332.4624,-60.6044"/>
</g>
<!-- Node17 -->
<g id="node8" class="node">
<title>Node17</title>
<g id="a_node8"><a xlink:href="$classTempl.html" xlink:title="Templ&lt; T &gt;">
<polygon fill="none" stroke="#000000" points="389,-141 332,-141 332,-124 389,-124 389,-141"/>
<text text-anchor="middle" x="360.5" y="-130.6" font-family="Helvetica,sans-Serif" font-size="8.00" fill="#000000">Templ&lt; T &gt;</text>
</a>
</g>
</g>
<!-- Node17&#45;&gt;Node16 -->
<g id="edge7" class="edge">
<title>Node17&#45;&gt;Node16</title>
<path fill="none" stroke="#ffa500" stroke-dasharray="5,2" d="M360.5,-113.5373C360.5,-102.0299 360.5,-87.9026 360.5,-79.0476"/>
<polygon fill="#ffa500" stroke="#ffa500" points="357.0001,-113.8791 360.5,-123.8792 364.0001,-113.8792 357.0001,-113.8791"/>
<text text-anchor="middle" x="372" y="-99.6" font-family="Helvetica,sans-Serif" font-size="8.00" fill="#000000">&lt; int &gt;</text>
</g>
<!-- Node18 -->
<g id="node9" class="node">
<title>Node18</title>
<g id="a_node9"><a xlink:href="$classUsed.html" xlink:title="Used">
<polygon fill="none" stroke="#000000" points="444,-79 409,-79 409,-62 444,-62 444,-79"/>
<text text-anchor="middle" x="426.5" y="-68.6" font-family="Helvetica,sans-Serif" font-size="8.00" fill="#000000">Used</text>
</a>
</g>
</g>
<!-- Node18&#45;&gt;Node9 -->
<g id="edge8" class="edge">
<title>Node18&#45;&gt;Node9</title>
<path fill="none" stroke="#9a32cd" stroke-dasharray="5,2" d="M399.2393,-61.5994C343.7198,-43.5883 289.2663,-26.0789 258.7027,-16.2652"/>
<polygon fill="#9a32cd" stroke="#9a32cd" points="398.2891,-64.9707 408.8812,-64.7289 400.4502,-58.3126 398.2891,-64.9707"/>
<text text-anchor="middle" x="365" y="-37.6" font-family="Helvetica,sans-Serif" font-size="8.00" fill="#000000">m_usedClass</text>
</g>
</g>
</svg>
