<?xml version="1.0" encoding="UTF-8" standalone="no"?>
<!DOCTYPE svg PUBLIC "-//W3C//DTD SVG 1.1//EN"
 "http://www.w3.org/Graphics/SVG/1.1/DTD/svg11.dtd">
<!-- Generated by graphviz version 2.40.1 (20161225.0304)
 -->
<!-- Title: Graphical Class Hierarchy Pages: 1 -->
<svg width="283pt" height="170pt"
 viewBox="0.00 0.00 283.00 170.00" xmlns="http://www.w3.org/2000/svg" xmlns:xlink="http://www.w3.org/1999/xlink">
<g id="graph0" class="graph" transform="scale(1 1) rotate(0) translate(4 166)">
<title>Graphical Class Hierarchy</title>
<!-- Node0 -->
<g id="node1" class="node">
<title>Node0</title>
<g id="a_node1"><a xlink:href="da/df3/class_l_h_p_c_1_1_l_h_e_f_1_1_filter_rule.html" target="_top" xlink:title="LHPC::LHEF::FilterRule">
<polygon fill="none" stroke="#000000" points="0,-72 0,-89 101,-89 101,-72 0,-72"/>
<text text-anchor="middle" x="50.5" y="-78.6" font-family="Helvetica,sans-Serif" font-size="8.00" fill="#000000">LHPC::LHEF::FilterRule</text>
</a>
</g>
</g>
<!-- Node1 -->
<g id="node2" class="node">
<title>Node1</title>
<g id="a_node2"><a xlink:href="d1/d25/class_l_h_p_c_1_1_l_h_e_f_1_1_filter_rule_class_1_1_initial_or_intermediate_or_final_state.html" target="_top" xlink:title="LHPC::LHEF::FilterRuleClass\l::InitialOrIntermediateOrFinalState">
<polygon fill="none" stroke="#000000" points="137,-135.5 137,-161.5 275,-161.5 275,-135.5 137,-135.5"/>
<text text-anchor="start" x="145" y="-151.1" font-family="Helvetica,sans-Serif" font-size="8.00" fill="#000000">LHPC::LHEF::FilterRuleClass</text>
<text text-anchor="middle" x="206" y="-142.1" font-family="Helvetica,sans-Serif" font-size="8.00" fill="#000000">::InitialOrIntermediateOrFinalState</text>
</a>
</g>
</g>
<!-- Node0&#45;&gt;Node1 -->
<g id="edge1" class="edge">
<title>Node0&#45;&gt;Node1</title>
<path fill="none" stroke="#191970" d="M73.5315,-94.2154C90.6474,-104.042 114.7811,-117.1399 137,-126.5 144.6475,-129.7216 152.938,-132.7444 161.0317,-135.4567"/>
<polygon fill="#191970" stroke="#191970" points="75.2053,-91.1399 64.8015,-89.1372 71.6856,-97.1907 75.2053,-91.1399"/>
</g>
<!-- Node2 -->
<g id="node3" class="node">
<title>Node2</title>
<g id="a_node3"><a xlink:href="d2/d92/class_l_h_p_c_1_1_l_h_e_f_1_1_filter_rule_class_1_1_particle_code.html" target="_top" xlink:title="LHPC::LHEF::FilterRuleClass\l::ParticleCode">
<polygon fill="none" stroke="#000000" points="145.5,-90.5 145.5,-116.5 266.5,-116.5 266.5,-90.5 145.5,-90.5"/>
<text text-anchor="start" x="153.5" y="-106.1" font-family="Helvetica,sans-Serif" font-size="8.00" fill="#000000">LHPC::LHEF::FilterRuleClass</text>
<text text-anchor="middle" x="206" y="-97.1" font-family="Helvetica,sans-Serif" font-size="8.00" fill="#000000">::ParticleCode</text>
</a>
</g>
</g>
<!-- Node0&#45;&gt;Node2 -->
<g id="edge2" class="edge">
<title>Node0&#45;&gt;Node2</title>
<path fill="none" stroke="#191970" d="M111.5114,-89.5242C122.6824,-91.1765 134.3373,-92.9004 145.4935,-94.5505"/>
<polygon fill="#191970" stroke="#191970" points="111.821,-86.032 101.4165,-88.0311 110.7968,-92.9567 111.821,-86.032"/>
</g>
<!-- Node3 -->
<g id="node4" class="node">
<title>Node3</title>
<g id="a_node4"><a xlink:href="d5/d31/class_l_h_p_c_1_1_l_h_e_f_1_1_filter_rule_class_1_1_pseudorapidity_cut.html" target="_top" xlink:title="LHPC::LHEF::FilterRuleClass\l::PseudorapidityCut">
<polygon fill="none" stroke="#000000" points="145.5,-45.5 145.5,-71.5 266.5,-71.5 266.5,-45.5 145.5,-45.5"/>
<text text-anchor="start" x="153.5" y="-61.1" font-family="Helvetica,sans-Serif" font-size="8.00" fill="#000000">LHPC::LHEF::FilterRuleClass</text>
<text text-anchor="middle" x="206" y="-52.1" font-family="Helvetica,sans-Serif" font-size="8.00" fill="#000000">::PseudorapidityCut</text>
</a>
</g>
</g>
<!-- Node0&#45;&gt;Node3 -->
<g id="edge3" class="edge">
<title>Node0&#45;&gt;Node3</title>
<path fill="none" stroke="#191970" d="M111.5114,-71.8682C122.6824,-70.2877 134.3373,-68.6388 145.4935,-67.0604"/>
<polygon fill="#191970" stroke="#191970" points="110.8276,-68.43 101.4165,-73.2964 111.8082,-75.3609 110.8276,-68.43"/>
</g>
<!-- Node4 -->
<g id="node5" class="node">
<title>Node4</title>
<g id="a_node5"><a xlink:href="d4/d6c/class_l_h_p_c_1_1_l_h_e_f_1_1_filter_rule_class_1_1_transverse_momentum_cut.html" target="_top" xlink:title="LHPC::LHEF::FilterRuleClass\l::TransverseMomentumCut">
<polygon fill="none" stroke="#000000" points="145.5,-.5 145.5,-26.5 266.5,-26.5 266.5,-.5 145.5,-.5"/>
<text text-anchor="start" x="153.5" y="-16.1" font-family="Helvetica,sans-Serif" font-size="8.00" fill="#000000">LHPC::LHEF::FilterRuleClass</text>
<text text-anchor="middle" x="206" y="-7.1" font-family="Helvetica,sans-Serif" font-size="8.00" fill="#000000">::TransverseMomentumCut</text>
</a>
</g>
</g>
<!-- Node0&#45;&gt;Node4 -->
<g id="edge4" class="edge">
<title>Node0&#45;&gt;Node4</title>
<path fill="none" stroke="#191970" d="M74.569,-67.0355C91.6751,-57.7706 115.3603,-45.5512 137,-36.5 145.5039,-32.9431 154.7686,-29.5445 163.6687,-26.5032"/>
<polygon fill="#191970" stroke="#191970" points="72.8866,-63.9663 65.7973,-71.8398 76.2492,-70.1058 72.8866,-63.9663"/>
</g>
</g>
</svg>
