<?xml version="1.0" encoding="UTF-8" standalone="no"?>
<!DOCTYPE svg PUBLIC "-//W3C//DTD SVG 1.1//EN"
 "http://www.w3.org/Graphics/SVG/1.1/DTD/svg11.dtd">
<!-- Generated by graphviz version 2.40.1 (20161225.0304)
 -->
<!-- Title: Graphical Class Hierarchy Pages: 1 -->
<svg width="680pt" height="478pt"
 viewBox="0.00 0.00 680.00 478.00" xmlns="http://www.w3.org/2000/svg" xmlns:xlink="http://www.w3.org/1999/xlink">
<g id="graph0" class="graph" transform="scale(1 1) rotate(0) translate(4 474)">
<title>Graphical Class Hierarchy</title>
<!-- Node0 -->
<g id="node1" class="node">
<title>Node0</title>
<g id="a_node1"><a xlink:href="d2/db5/class_l_h_p_c_1_1_s_l_h_a_1_1_block_interpreter.html" target="_top" xlink:title="LHPC::SLHA::BlockInterpreter">
<polygon fill="none" stroke="#000000" points="0,-224 0,-241 124,-241 124,-224 0,-224"/>
<text text-anchor="middle" x="62" y="-230.6" font-family="Helvetica,sans-Serif" font-size="8.00" fill="#000000">LHPC::SLHA::BlockInterpreter</text>
</a>
</g>
</g>
<!-- Node1 -->
<g id="node2" class="node">
<title>Node1</title>
<g id="a_node2"><a xlink:href="d6/d0a/class_l_h_p_c_1_1_s_l_h_a_1_1_interpreter_class_1_1_interpreter_template.html" target="_top" xlink:title="LHPC::SLHA::InterpreterClass\l::InterpreterTemplate\&lt; std\l::string \&gt;">
<polygon fill="none" stroke="#000000" points="170,-265 170,-300 295,-300 295,-265 170,-265"/>
<text text-anchor="start" x="178" y="-289.6" font-family="Helvetica,sans-Serif" font-size="8.00" fill="#000000">LHPC::SLHA::InterpreterClass</text>
<text text-anchor="start" x="178" y="-280.6" font-family="Helvetica,sans-Serif" font-size="8.00" fill="#000000">::InterpreterTemplate&lt; std</text>
<text text-anchor="middle" x="232.5" y="-271.6" font-family="Helvetica,sans-Serif" font-size="8.00" fill="#000000">::string &gt;</text>
</a>
</g>
</g>
<!-- Node0&#45;&gt;Node1 -->
<g id="edge1" class="edge">
<title>Node0&#45;&gt;Node1</title>
<path fill="none" stroke="#191970" d="M100.9267,-243.9154C122.1048,-250.1261 148.7604,-257.9429 172.5323,-264.9142"/>
<polygon fill="#191970" stroke="#191970" points="101.8908,-240.5509 91.31,-241.0953 99.921,-247.268 101.8908,-240.5509"/>
</g>
<!-- Node3 -->
<g id="node4" class="node">
<title>Node3</title>
<g id="a_node4"><a xlink:href="d6/d0a/class_l_h_p_c_1_1_s_l_h_a_1_1_interpreter_class_1_1_interpreter_template.html" target="_top" xlink:title="LHPC::SLHA::InterpreterClass\l::InterpreterTemplate\&lt; ValueClass \&gt;">
<polygon fill="none" stroke="#000000" points="160,-219.5 160,-245.5 305,-245.5 305,-219.5 160,-219.5"/>
<text text-anchor="start" x="168" y="-235.1" font-family="Helvetica,sans-Serif" font-size="8.00" fill="#000000">LHPC::SLHA::InterpreterClass</text>
<text text-anchor="middle" x="232.5" y="-226.1" font-family="Helvetica,sans-Serif" font-size="8.00" fill="#000000">::InterpreterTemplate&lt; ValueClass &gt;</text>
</a>
</g>
</g>
<!-- Node0&#45;&gt;Node3 -->
<g id="edge3" class="edge">
<title>Node0&#45;&gt;Node3</title>
<path fill="none" stroke="#191970" d="M134.2431,-232.5C142.7006,-232.5 151.333,-232.5 159.7967,-232.5"/>
<polygon fill="#191970" stroke="#191970" points="134.0368,-229.0001 124.0367,-232.5 134.0367,-236.0001 134.0368,-229.0001"/>
</g>
<!-- Node16 -->
<g id="node17" class="node">
<title>Node16</title>
<g id="a_node17"><a xlink:href="d6/d0a/class_l_h_p_c_1_1_s_l_h_a_1_1_interpreter_class_1_1_interpreter_template.html" target="_top" xlink:title="LHPC::SLHA::InterpreterClass\l::InterpreterTemplate\&lt; ValueType \&gt;">
<polygon fill="none" stroke="#000000" points="161,-174.5 161,-200.5 304,-200.5 304,-174.5 161,-174.5"/>
<text text-anchor="start" x="169" y="-190.1" font-family="Helvetica,sans-Serif" font-size="8.00" fill="#000000">LHPC::SLHA::InterpreterClass</text>
<text text-anchor="middle" x="232.5" y="-181.1" font-family="Helvetica,sans-Serif" font-size="8.00" fill="#000000">::InterpreterTemplate&lt; ValueType &gt;</text>
</a>
</g>
</g>
<!-- Node0&#45;&gt;Node16 -->
<g id="edge16" class="edge">
<title>Node0&#45;&gt;Node16</title>
<path fill="none" stroke="#191970" d="M104.2918,-221.3379C128.1504,-215.0409 158.0862,-207.14 183.0296,-200.5567"/>
<polygon fill="#191970" stroke="#191970" points="103.2468,-217.9938 94.4711,-223.9299 105.0332,-224.7621 103.2468,-217.9938"/>
</g>
<!-- Node2 -->
<g id="node3" class="node">
<title>Node2</title>
<g id="a_node3"><a xlink:href="d4/deb/class_l_h_p_c_1_1_s_l_h_a_1_1_interpreter_class_1_1_lines_as_strings.html" target="_top" xlink:title="LHPC::SLHA::InterpreterClass\l::LinesAsStrings">
<polygon fill="none" stroke="#000000" points="349,-269.5 349,-295.5 474,-295.5 474,-269.5 349,-269.5"/>
<text text-anchor="start" x="357" y="-285.1" font-family="Helvetica,sans-Serif" font-size="8.00" fill="#000000">LHPC::SLHA::InterpreterClass</text>
<text text-anchor="middle" x="411.5" y="-276.1" font-family="Helvetica,sans-Serif" font-size="8.00" fill="#000000">::LinesAsStrings</text>
</a>
</g>
</g>
<!-- Node1&#45;&gt;Node2 -->
<g id="edge2" class="edge">
<title>Node1&#45;&gt;Node2</title>
<path fill="none" stroke="#191970" d="M305.4746,-282.5C319.8894,-282.5 334.8966,-282.5 348.9298,-282.5"/>
<polygon fill="#191970" stroke="#191970" points="305.1055,-279.0001 295.1055,-282.5 305.1055,-286.0001 305.1055,-279.0001"/>
</g>
<!-- Node4 -->
<g id="node5" class="node">
<title>Node4</title>
<g id="a_node5"><a xlink:href="d8/d69/class_l_h_p_c_1_1_s_l_h_a_1_1_interpreter_class_1_1_indexed_interpreter.html" target="_top" xlink:title="LHPC::SLHA::InterpreterClass\l::IndexedInterpreter\&lt; ValueClass \&gt;">
<polygon fill="none" stroke="#000000" points="341,-222.5 341,-248.5 482,-248.5 482,-222.5 341,-222.5"/>
<text text-anchor="start" x="349" y="-238.1" font-family="Helvetica,sans-Serif" font-size="8.00" fill="#000000">LHPC::SLHA::InterpreterClass</text>
<text text-anchor="middle" x="411.5" y="-229.1" font-family="Helvetica,sans-Serif" font-size="8.00" fill="#000000">::IndexedInterpreter&lt; ValueClass &gt;</text>
</a>
</g>
</g>
<!-- Node3&#45;&gt;Node4 -->
<g id="edge4" class="edge">
<title>Node3&#45;&gt;Node4</title>
<path fill="none" stroke="#191970" d="M315.1018,-233.8844C323.716,-234.0288 332.416,-234.1746 340.8799,-234.3164"/>
<polygon fill="#191970" stroke="#191970" points="315.1054,-230.3841 305.0481,-233.7159 314.988,-237.3831 315.1054,-230.3841"/>
</g>
<!-- Node15 -->
<g id="node16" class="node">
<title>Node15</title>
<g id="a_node16"><a xlink:href="d8/d64/class_l_h_p_c_1_1_s_l_h_a_1_1_interpreter_class_1_1_just_single_value.html" target="_top" xlink:title="LHPC::SLHA::InterpreterClass\l::JustSingleValue\&lt; ValueClass \&gt;">
<polygon fill="none" stroke="#000000" points="345,-177.5 345,-203.5 478,-203.5 478,-177.5 345,-177.5"/>
<text text-anchor="start" x="353" y="-193.1" font-family="Helvetica,sans-Serif" font-size="8.00" fill="#000000">LHPC::SLHA::InterpreterClass</text>
<text text-anchor="middle" x="411.5" y="-184.1" font-family="Helvetica,sans-Serif" font-size="8.00" fill="#000000">::JustSingleValue&lt; ValueClass &gt;</text>
</a>
</g>
</g>
<!-- Node3&#45;&gt;Node15 -->
<g id="edge15" class="edge">
<title>Node3&#45;&gt;Node15</title>
<path fill="none" stroke="#191970" d="M297.9358,-217.1464C316.9496,-212.685 337.5288,-207.8564 355.8789,-203.5508"/>
<polygon fill="#191970" stroke="#191970" points="297.0916,-213.7493 288.1555,-219.4412 298.6907,-220.5642 297.0916,-213.7493"/>
</g>
<!-- Node5 -->
<g id="node6" class="node">
<title>Node5</title>
<g id="a_node6"><a xlink:href="d2/d8a/class_l_h_p_c_1_1_s_l_h_a_1_1_interpreter_class_1_1_dense_doubly_indexed.html" target="_top" xlink:title="LHPC::SLHA::InterpreterClass\l::DenseDoublyIndexed\&lt; ValueClass \&gt;">
<polygon fill="none" stroke="#000000" points="519,-443.5 519,-469.5 671,-469.5 671,-443.5 519,-443.5"/>
<text text-anchor="start" x="527" y="-459.1" font-family="Helvetica,sans-Serif" font-size="8.00" fill="#000000">LHPC::SLHA::InterpreterClass</text>
<text text-anchor="middle" x="595" y="-450.1" font-family="Helvetica,sans-Serif" font-size="8.00" fill="#000000">::DenseDoublyIndexed&lt; ValueClass &gt;</text>
</a>
</g>
</g>
<!-- Node4&#45;&gt;Node5 -->
<g id="edge5" class="edge">
<title>Node4&#45;&gt;Node5</title>
<path fill="none" stroke="#191970" d="M475.3835,-254.2296C477.7751,-256.1221 479.9999,-258.2058 482,-260.5 533.8952,-320.0259 464.271,-376.624 518,-434.5 521.2161,-437.9643 524.9361,-440.8965 528.9695,-443.3767"/>
<polygon fill="#191970" stroke="#191970" points="476.9697,-251.0834 466.6937,-248.5039 473.1183,-256.9286 476.9697,-251.0834"/>
</g>
<!-- Node6 -->
<g id="node7" class="node">
<title>Node6</title>
<g id="a_node7"><a xlink:href="da/dc9/class_l_h_p_c_1_1_s_l_h_a_1_1_interpreter_class_1_1_dense_singly_indexed.html" target="_top" xlink:title="LHPC::SLHA::InterpreterClass\l::DenseSinglyIndexed\&lt; ValueClass \&gt;">
<polygon fill="none" stroke="#000000" points="520.5,-398.5 520.5,-424.5 669.5,-424.5 669.5,-398.5 520.5,-398.5"/>
<text text-anchor="start" x="528.5" y="-414.1" font-family="Helvetica,sans-Serif" font-size="8.00" fill="#000000">LHPC::SLHA::InterpreterClass</text>
<text text-anchor="middle" x="595" y="-405.1" font-family="Helvetica,sans-Serif" font-size="8.00" fill="#000000">::DenseSinglyIndexed&lt; ValueClass &gt;</text>
</a>
</g>
</g>
<!-- Node4&#45;&gt;Node6 -->
<g id="edge6" class="edge">
<title>Node4&#45;&gt;Node6</title>
<path fill="none" stroke="#191970" d="M474.5446,-253.9182C477.2309,-255.8931 479.7401,-258.0794 482,-260.5 522.621,-304.0091 476.0399,-347.2808 518,-389.5 521.4302,-392.9514 525.3618,-395.8703 529.5934,-398.3377"/>
<polygon fill="#191970" stroke="#191970" points="476.3632,-250.9275 466.0259,-248.6056 472.659,-256.8672 476.3632,-250.9275"/>
</g>
<!-- Node7 -->
<g id="node8" class="node">
<title>Node7</title>
<g id="a_node8"><a xlink:href="da/da3/class_l_h_p_c_1_1_s_l_h_a_1_1_interpreter_class_1_1_dense_triply_indexed.html" target="_top" xlink:title="LHPC::SLHA::InterpreterClass\l::DenseTriplyIndexed\&lt; ValueClass \&gt;">
<polygon fill="none" stroke="#000000" points="522,-353.5 522,-379.5 668,-379.5 668,-353.5 522,-353.5"/>
<text text-anchor="start" x="530" y="-369.1" font-family="Helvetica,sans-Serif" font-size="8.00" fill="#000000">LHPC::SLHA::InterpreterClass</text>
<text text-anchor="middle" x="595" y="-360.1" font-family="Helvetica,sans-Serif" font-size="8.00" fill="#000000">::DenseTriplyIndexed&lt; ValueClass &gt;</text>
</a>
</g>
</g>
<!-- Node4&#45;&gt;Node7 -->
<g id="edge7" class="edge">
<title>Node4&#45;&gt;Node7</title>
<path fill="none" stroke="#191970" d="M472.9252,-253.5005C476.168,-255.5861 479.2267,-257.9103 482,-260.5 511.3888,-287.9424 487.9276,-316.8085 518,-343.5 522.4868,-347.4824 527.6388,-350.7758 533.1058,-353.4994"/>
<polygon fill="#191970" stroke="#191970" points="474.4205,-250.3271 463.9812,-248.5187 471.0143,-256.4425 474.4205,-250.3271"/>
</g>
<!-- Node8 -->
<g id="node9" class="node">
<title>Node8</title>
<g id="a_node9"><a xlink:href="dd/df8/class_l_h_p_c_1_1_s_l_h_a_1_1_interpreter_class_1_1_multiple_doubly_indexed.html" target="_top" xlink:title="LHPC::SLHA::InterpreterClass\l::MultipleDoublyIndexed\&lt;\l ValueClass \&gt;">
<polygon fill="none" stroke="#000000" points="532.5,-299 532.5,-334 657.5,-334 657.5,-299 532.5,-299"/>
<text text-anchor="start" x="540.5" y="-323.6" font-family="Helvetica,sans-Serif" font-size="8.00" fill="#000000">LHPC::SLHA::InterpreterClass</text>
<text text-anchor="start" x="540.5" y="-314.6" font-family="Helvetica,sans-Serif" font-size="8.00" fill="#000000">::MultipleDoublyIndexed&lt;</text>
<text text-anchor="middle" x="595" y="-305.6" font-family="Helvetica,sans-Serif" font-size="8.00" fill="#000000"> ValueClass &gt;</text>
</a>
</g>
</g>
<!-- Node4&#45;&gt;Node8 -->
<g id="edge8" class="edge">
<title>Node4&#45;&gt;Node8</title>
<path fill="none" stroke="#191970" d="M465.4147,-252.4674C471.1371,-254.8986 476.7707,-257.5787 482,-260.5 499.9366,-270.52 500.0457,-279.5116 518,-289.5 524.1897,-292.9435 530.8988,-296.0718 537.6884,-298.8767"/>
<polygon fill="#191970" stroke="#191970" points="466.3411,-249.0688 455.7561,-248.6126 463.7463,-255.5701 466.3411,-249.0688"/>
</g>
<!-- Node9 -->
<g id="node10" class="node">
<title>Node9</title>
<g id="a_node10"><a xlink:href="d0/dd0/class_l_h_p_c_1_1_s_l_h_a_1_1_interpreter_class_1_1_multiple_singly_indexed.html" target="_top" xlink:title="LHPC::SLHA::InterpreterClass\l::MultipleSinglyIndexed\&lt;\l ValueClass \&gt;">
<polygon fill="none" stroke="#000000" points="532.5,-245 532.5,-280 657.5,-280 657.5,-245 532.5,-245"/>
<text text-anchor="start" x="540.5" y="-269.6" font-family="Helvetica,sans-Serif" font-size="8.00" fill="#000000">LHPC::SLHA::InterpreterClass</text>
<text text-anchor="start" x="540.5" y="-260.6" font-family="Helvetica,sans-Serif" font-size="8.00" fill="#000000">::MultipleSinglyIndexed&lt;</text>
<text text-anchor="middle" x="595" y="-251.6" font-family="Helvetica,sans-Serif" font-size="8.00" fill="#000000"> ValueClass &gt;</text>
</a>
</g>
</g>
<!-- Node4&#45;&gt;Node9 -->
<g id="edge9" class="edge">
<title>Node4&#45;&gt;Node9</title>
<path fill="none" stroke="#191970" d="M492.3737,-247.3997C505.8052,-249.376 519.5521,-251.3987 532.4411,-253.2951"/>
<polygon fill="#191970" stroke="#191970" points="492.5864,-243.8934 482.1834,-245.9003 491.5674,-250.8188 492.5864,-243.8934"/>
</g>
<!-- Node10 -->
<g id="node11" class="node">
<title>Node10</title>
<g id="a_node11"><a xlink:href="db/d07/class_l_h_p_c_1_1_s_l_h_a_1_1_interpreter_class_1_1_multiple_triply_indexed.html" target="_top" xlink:title="LHPC::SLHA::InterpreterClass\l::MultipleTriplyIndexed\&lt;\l ValueClass \&gt;">
<polygon fill="none" stroke="#000000" points="532.5,-191 532.5,-226 657.5,-226 657.5,-191 532.5,-191"/>
<text text-anchor="start" x="540.5" y="-215.6" font-family="Helvetica,sans-Serif" font-size="8.00" fill="#000000">LHPC::SLHA::InterpreterClass</text>
<text text-anchor="start" x="540.5" y="-206.6" font-family="Helvetica,sans-Serif" font-size="8.00" fill="#000000">::MultipleTriplyIndexed&lt;</text>
<text text-anchor="middle" x="595" y="-197.6" font-family="Helvetica,sans-Serif" font-size="8.00" fill="#000000"> ValueClass &gt;</text>
</a>
</g>
</g>
<!-- Node4&#45;&gt;Node10 -->
<g id="edge10" class="edge">
<title>Node4&#45;&gt;Node10</title>
<path fill="none" stroke="#191970" d="M492.3737,-223.6003C505.8052,-221.624 519.5521,-219.6013 532.4411,-217.7049"/>
<polygon fill="#191970" stroke="#191970" points="491.5674,-220.1812 482.1834,-225.0997 492.5864,-227.1066 491.5674,-220.1812"/>
</g>
<!-- Node11 -->
<g id="node12" class="node">
<title>Node11</title>
<g id="a_node12"><a xlink:href="d0/d4c/class_l_h_p_c_1_1_s_l_h_a_1_1_interpreter_class_1_1_sparse_doubly_indexed.html" target="_top" xlink:title="LHPC::SLHA::InterpreterClass\l::SparseDoublyIndexed\&lt; ValueClass \&gt;">
<polygon fill="none" stroke="#000000" points="518,-145.5 518,-171.5 672,-171.5 672,-145.5 518,-145.5"/>
<text text-anchor="start" x="526" y="-161.1" font-family="Helvetica,sans-Serif" font-size="8.00" fill="#000000">LHPC::SLHA::InterpreterClass</text>
<text text-anchor="middle" x="595" y="-152.1" font-family="Helvetica,sans-Serif" font-size="8.00" fill="#000000">::SparseDoublyIndexed&lt; ValueClass &gt;</text>
</a>
</g>
</g>
<!-- Node4&#45;&gt;Node11 -->
<g id="edge11" class="edge">
<title>Node4&#45;&gt;Node11</title>
<path fill="none" stroke="#191970" d="M471.969,-218.5487C475.4285,-216.991 478.7981,-215.3102 482,-213.5 500.6352,-202.9643 499.3008,-191.9216 518,-181.5 524.9465,-177.6285 532.6169,-174.3408 540.3446,-171.5689"/>
<polygon fill="#191970" stroke="#191970" points="470.5661,-215.3412 462.6549,-222.3885 473.2341,-221.8128 470.5661,-215.3412"/>
</g>
<!-- Node12 -->
<g id="node13" class="node">
<title>Node12</title>
<g id="a_node13"><a xlink:href="d9/d50/class_l_h_p_c_1_1_s_l_h_a_1_1_interpreter_class_1_1_sparse_many_indexed.html" target="_top" xlink:title="LHPC::SLHA::InterpreterClass\l::SparseManyIndexed\&lt; ValueClass \&gt;">
<polygon fill="none" stroke="#000000" points="520.5,-100.5 520.5,-126.5 669.5,-126.5 669.5,-100.5 520.5,-100.5"/>
<text text-anchor="start" x="528.5" y="-116.1" font-family="Helvetica,sans-Serif" font-size="8.00" fill="#000000">LHPC::SLHA::InterpreterClass</text>
<text text-anchor="middle" x="595" y="-107.1" font-family="Helvetica,sans-Serif" font-size="8.00" fill="#000000">::SparseManyIndexed&lt; ValueClass &gt;</text>
</a>
</g>
</g>
<!-- Node4&#45;&gt;Node12 -->
<g id="edge12" class="edge">
<title>Node4&#45;&gt;Node12</title>
<path fill="none" stroke="#191970" d="M477.7368,-216.8772C479.2142,-215.8134 480.639,-214.6888 482,-213.5 510.4521,-188.6476 489.3967,-161.1781 518,-136.5 522.5423,-132.581 527.7311,-129.3297 533.2211,-126.6323"/>
<polygon fill="#191970" stroke="#191970" points="475.4996,-214.1414 468.7766,-222.3299 479.1386,-220.1212 475.4996,-214.1414"/>
</g>
<!-- Node13 -->
<g id="node14" class="node">
<title>Node13</title>
<g id="a_node14"><a xlink:href="d5/df8/class_l_h_p_c_1_1_s_l_h_a_1_1_interpreter_class_1_1_sparse_quadruply_indexed.html" target="_top" xlink:title="LHPC::SLHA::InterpreterClass\l::SparseQuadruplyIndexed\l\&lt; ValueClass \&gt;">
<polygon fill="none" stroke="#000000" points="532.5,-46 532.5,-81 657.5,-81 657.5,-46 532.5,-46"/>
<text text-anchor="start" x="540.5" y="-70.6" font-family="Helvetica,sans-Serif" font-size="8.00" fill="#000000">LHPC::SLHA::InterpreterClass</text>
<text text-anchor="start" x="540.5" y="-61.6" font-family="Helvetica,sans-Serif" font-size="8.00" fill="#000000">::SparseQuadruplyIndexed</text>
<text text-anchor="middle" x="595" y="-52.6" font-family="Helvetica,sans-Serif" font-size="8.00" fill="#000000">&lt; ValueClass &gt;</text>
</a>
</g>
</g>
<!-- Node4&#45;&gt;Node13 -->
<g id="edge13" class="edge">
<title>Node4&#45;&gt;Node13</title>
<path fill="none" stroke="#191970" d="M478.6447,-216.5975C479.811,-215.6166 480.9318,-214.585 482,-213.5 521.6634,-173.2153 479.2795,-132.6919 518,-91.5 522.1893,-87.0433 527.1437,-83.2939 532.4879,-80.1397"/>
<polygon fill="#191970" stroke="#191970" points="476.571,-213.7766 470.3646,-222.3633 480.5711,-219.5211 476.571,-213.7766"/>
</g>
<!-- Node14 -->
<g id="node15" class="node">
<title>Node14</title>
<g id="a_node15"><a xlink:href="d5/dd6/class_l_h_p_c_1_1_s_l_h_a_1_1_interpreter_class_1_1_sparse_singly_indexed.html" target="_top" xlink:title="LHPC::SLHA::InterpreterClass\l::SparseSinglyIndexed\&lt; ValueClass \&gt;">
<polygon fill="none" stroke="#000000" points="519.5,-.5 519.5,-26.5 670.5,-26.5 670.5,-.5 519.5,-.5"/>
<text text-anchor="start" x="527.5" y="-16.1" font-family="Helvetica,sans-Serif" font-size="8.00" fill="#000000">LHPC::SLHA::InterpreterClass</text>
<text text-anchor="middle" x="595" y="-7.1" font-family="Helvetica,sans-Serif" font-size="8.00" fill="#000000">::SparseSinglyIndexed&lt; ValueClass &gt;</text>
</a>
</g>
</g>
<!-- Node4&#45;&gt;Node14 -->
<g id="edge14" class="edge">
<title>Node4&#45;&gt;Node14</title>
<path fill="none" stroke="#191970" d="M479.191,-216.3403C480.1678,-215.4364 481.1058,-214.4903 482,-213.5 535.8022,-153.9201 463.8349,-95.7502 518,-36.5 521.5771,-32.587 525.7889,-29.3289 530.3681,-26.6175"/>
<polygon fill="#191970" stroke="#191970" points="476.9183,-213.67 471.0272,-222.4759 481.124,-219.2658 476.9183,-213.67"/>
</g>
</g>
</svg>
