<?xml version="1.0" encoding="UTF-8" standalone="no"?>
<!DOCTYPE svg PUBLIC "-//W3C//DTD SVG 1.1//EN"
 "http://www.w3.org/Graphics/SVG/1.1/DTD/svg11.dtd">
<!-- Generated by graphviz version 2.40.1 (20161225.0304)
 -->
<!-- Title: Graphical Class Hierarchy Pages: 1 -->
<svg width="300pt" height="170pt"
 viewBox="0.00 0.00 300.00 170.00" xmlns="http://www.w3.org/2000/svg" xmlns:xlink="http://www.w3.org/1999/xlink">
<g id="graph0" class="graph" transform="scale(1 1) rotate(0) translate(4 166)">
<title>Graphical Class Hierarchy</title>
<!-- Node0 -->
<g id="node1" class="node">
<title>Node0</title>
<g id="a_node1"><a xlink:href="d5/d30/class_l_h_p_c_1_1_l_h_e_f_1_1_preselector_class_1_1_standard_preselector.html" target="_top" xlink:title="LHPC::LHEF::PreselectorClass\l::StandardPreselector">
<polygon fill="none" stroke="#000000" points="0,-67.5 0,-93.5 128,-93.5 128,-67.5 0,-67.5"/>
<text text-anchor="start" x="8" y="-83.1" font-family="Helvetica,sans-Serif" font-size="8.00" fill="#000000">LHPC::LHEF::PreselectorClass</text>
<text text-anchor="middle" x="64" y="-74.1" font-family="Helvetica,sans-Serif" font-size="8.00" fill="#000000">::StandardPreselector</text>
</a>
</g>
</g>
<!-- Node1 -->
<g id="node2" class="node">
<title>Node1</title>
<g id="a_node2"><a xlink:href="d2/d11/class_l_h_p_c_1_1_l_h_e_f_1_1_preselector_class_1_1_either_sign_electron_preselector.html" target="_top" xlink:title="LHPC::LHEF::PreselectorClass\l::EitherSignElectronPreselector">
<polygon fill="none" stroke="#000000" points="164,-135.5 164,-161.5 292,-161.5 292,-135.5 164,-135.5"/>
<text text-anchor="start" x="172" y="-151.1" font-family="Helvetica,sans-Serif" font-size="8.00" fill="#000000">LHPC::LHEF::PreselectorClass</text>
<text text-anchor="middle" x="228" y="-142.1" font-family="Helvetica,sans-Serif" font-size="8.00" fill="#000000">::EitherSignElectronPreselector</text>
</a>
</g>
</g>
<!-- Node0&#45;&gt;Node1 -->
<g id="edge1" class="edge">
<title>Node0&#45;&gt;Node1</title>
<path fill="none" stroke="#191970" d="M99.5705,-97.9148C118.504,-106.9154 142.2999,-117.8046 164,-126.5 171.7434,-129.6029 180.1145,-132.6768 188.1695,-135.4993"/>
<polygon fill="#191970" stroke="#191970" points="100.9549,-94.6971 90.4241,-93.5342 97.9312,-101.0104 100.9549,-94.6971"/>
</g>
<!-- Node2 -->
<g id="node3" class="node">
<title>Node2</title>
<g id="a_node3"><a xlink:href="d1/d5a/class_l_h_p_c_1_1_l_h_e_f_1_1_preselector_class_1_1_either_sign_muon_preselector.html" target="_top" xlink:title="LHPC::LHEF::PreselectorClass\l::EitherSignMuonPreselector">
<polygon fill="none" stroke="#000000" points="164,-90.5 164,-116.5 292,-116.5 292,-90.5 164,-90.5"/>
<text text-anchor="start" x="172" y="-106.1" font-family="Helvetica,sans-Serif" font-size="8.00" fill="#000000">LHPC::LHEF::PreselectorClass</text>
<text text-anchor="middle" x="228" y="-97.1" font-family="Helvetica,sans-Serif" font-size="8.00" fill="#000000">::EitherSignMuonPreselector</text>
</a>
</g>
</g>
<!-- Node0&#45;&gt;Node2 -->
<g id="edge2" class="edge">
<title>Node0&#45;&gt;Node2</title>
<path fill="none" stroke="#191970" d="M138.2859,-90.9181C146.8158,-92.1144 155.4581,-93.3264 163.8391,-94.5018"/>
<polygon fill="#191970" stroke="#191970" points="138.7357,-87.447 128.3464,-89.5242 137.7634,-94.3792 138.7357,-87.447"/>
</g>
<!-- Node3 -->
<g id="node4" class="node">
<title>Node3</title>
<g id="a_node4"><a xlink:href="df/d55/class_l_h_p_c_1_1_l_h_e_f_1_1_preselector_class_1_1_jet_preselector.html" target="_top" xlink:title="LHPC::LHEF::PreselectorClass\l::JetPreselector">
<polygon fill="none" stroke="#000000" points="164,-45.5 164,-71.5 292,-71.5 292,-45.5 164,-45.5"/>
<text text-anchor="start" x="172" y="-61.1" font-family="Helvetica,sans-Serif" font-size="8.00" fill="#000000">LHPC::LHEF::PreselectorClass</text>
<text text-anchor="middle" x="228" y="-52.1" font-family="Helvetica,sans-Serif" font-size="8.00" fill="#000000">::JetPreselector</text>
</a>
</g>
</g>
<!-- Node0&#45;&gt;Node3 -->
<g id="edge3" class="edge">
<title>Node0&#45;&gt;Node3</title>
<path fill="none" stroke="#191970" d="M138.2859,-70.5348C146.8158,-69.3906 155.4581,-68.2312 163.8391,-67.1069"/>
<polygon fill="#191970" stroke="#191970" points="137.7923,-67.0696 128.3464,-71.8682 138.723,-74.0074 137.7923,-67.0696"/>
</g>
<!-- Node4 -->
<g id="node5" class="node">
<title>Node4</title>
<g id="a_node5"><a xlink:href="d1/d82/class_l_h_p_c_1_1_l_h_e_f_1_1_preselector_class_1_1_light_lepton_preselector.html" target="_top" xlink:title="LHPC::LHEF::PreselectorClass\l::LightLeptonPreselector">
<polygon fill="none" stroke="#000000" points="164,-.5 164,-26.5 292,-26.5 292,-.5 164,-.5"/>
<text text-anchor="start" x="172" y="-16.1" font-family="Helvetica,sans-Serif" font-size="8.00" fill="#000000">LHPC::LHEF::PreselectorClass</text>
<text text-anchor="middle" x="228" y="-7.1" font-family="Helvetica,sans-Serif" font-size="8.00" fill="#000000">::LightLeptonPreselector</text>
</a>
</g>
</g>
<!-- Node0&#45;&gt;Node4 -->
<g id="edge4" class="edge">
<title>Node0&#45;&gt;Node4</title>
<path fill="none" stroke="#191970" d="M101.5525,-63.2379C120.2004,-54.8554 143.1484,-44.8225 164,-36.5 172.4436,-33.1299 181.5978,-29.7064 190.2714,-26.5664"/>
<polygon fill="#191970" stroke="#191970" points="99.8975,-60.145 92.2266,-67.4531 102.7806,-66.5237 99.8975,-60.145"/>
</g>
</g>
</svg>
