<?xml version="1.0" encoding="UTF-8" standalone="no"?>
<!DOCTYPE svg PUBLIC "-//W3C//DTD SVG 1.1//EN"
 "http://www.w3.org/Graphics/SVG/1.1/DTD/svg11.dtd">
<!-- Generated by graphviz version 2.40.1 (20161225.0304)
 -->
<!-- Title: LinesAsStrings.hpp Pages: 1 -->
<svg width="378pt" height="296pt"
 viewBox="0.00 0.00 377.50 296.00" xmlns="http://www.w3.org/2000/svg" xmlns:xlink="http://www.w3.org/1999/xlink">
<g id="graph0" class="graph" transform="scale(1 1) rotate(0) translate(4 292)">
<title>LinesAsStrings.hpp</title>
<!-- Node44 -->
<g id="node1" class="node">
<title>Node44</title>
<polygon fill="#bfbfbf" stroke="#000000" points="65,-270.5 65,-287.5 150,-287.5 150,-270.5 65,-270.5"/>
<text text-anchor="middle" x="107.5" y="-277.1" font-family="Helvetica,sans-Serif" font-size="8.00" fill="#000000">LinesAsStrings.hpp</text>
</g>
<!-- Node45 -->
<g id="node2" class="node">
<title>Node45</title>
<g id="a_node2"><a xlink:href="../../d4/dc2/_interpreter_classes_8hpp.html" target="_top" xlink:title="InterpreterClasses.hpp">
<polygon fill="none" stroke="#000000" points="0,-216.5 0,-233.5 97,-233.5 97,-216.5 0,-216.5"/>
<text text-anchor="middle" x="48.5" y="-223.1" font-family="Helvetica,sans-Serif" font-size="8.00" fill="#000000">InterpreterClasses.hpp</text>
</a>
</g>
</g>
<!-- Node44&#45;&gt;Node45 -->
<g id="edge1" class="edge">
<title>Node44&#45;&gt;Node45</title>
<path fill="none" stroke="#191970" d="M90.6055,-263.5372C80.0855,-253.9087 66.9313,-241.8694 58.1519,-233.8339"/>
<polygon fill="#191970" stroke="#191970" points="88.2808,-266.1542 98.0206,-270.324 93.0069,-260.9905 88.2808,-266.1542"/>
</g>
<!-- Node63 -->
<g id="node5" class="node">
<title>Node63</title>
<g id="a_node5"><a xlink:href="../../d5/de5/_lines_as_strings_block_8hpp.html" target="_top" xlink:title="LinesAsStringsBlock.hpp">
<polygon fill="none" stroke="#000000" points="115,-216.5 115,-233.5 220,-233.5 220,-216.5 115,-216.5"/>
<text text-anchor="middle" x="167.5" y="-223.1" font-family="Helvetica,sans-Serif" font-size="8.00" fill="#000000">LinesAsStringsBlock.hpp</text>
</a>
</g>
</g>
<!-- Node44&#45;&gt;Node63 -->
<g id="edge4" class="edge">
<title>Node44&#45;&gt;Node63</title>
<path fill="none" stroke="#191970" d="M124.6809,-263.5372C135.3792,-253.9087 148.7563,-241.8694 157.6846,-233.8339"/>
<polygon fill="#191970" stroke="#191970" points="122.2316,-261.0327 117.14,-270.324 126.9144,-266.2358 122.2316,-261.0327"/>
</g>
<!-- Node46 -->
<g id="node3" class="node">
<title>Node46</title>
<g id="a_node3"><a xlink:href="../../db/d13/_block_classes_8hpp.html" target="_top" xlink:title="BlockClasses.hpp">
<polygon fill="none" stroke="#000000" points="8.5,-162.5 8.5,-179.5 88.5,-179.5 88.5,-162.5 8.5,-162.5"/>
<text text-anchor="middle" x="48.5" y="-169.1" font-family="Helvetica,sans-Serif" font-size="8.00" fill="#000000">BlockClasses.hpp</text>
</a>
</g>
</g>
<!-- Node45&#45;&gt;Node46 -->
<g id="edge2" class="edge">
<title>Node45&#45;&gt;Node46</title>
<path fill="none" stroke="#191970" d="M48.5,-205.8045C48.5,-196.9102 48.5,-186.7798 48.5,-179.7511"/>
<polygon fill="#191970" stroke="#191970" points="45.0001,-206.083 48.5,-216.083 52.0001,-206.083 45.0001,-206.083"/>
</g>
<!-- Node47 -->
<g id="node4" class="node">
<title>Node47</title>
<g id="a_node4"><a xlink:href="../../d4/d42/_s_l_h_a_8hpp.html" target="_top" xlink:title="SLHA.hpp">
<polygon fill="none" stroke="#ff0000" points="103,-.5 103,-17.5 156,-17.5 156,-.5 103,-.5"/>
<text text-anchor="middle" x="129.5" y="-7.1" font-family="Helvetica,sans-Serif" font-size="8.00" fill="#000000">SLHA.hpp</text>
</a>
</g>
</g>
<!-- Node46&#45;&gt;Node47 -->
<g id="edge3" class="edge">
<title>Node46&#45;&gt;Node47</title>
<path fill="none" stroke="#191970" d="M51.0737,-152.5552C55.0676,-128.4667 64.3793,-85.6443 83.5,-54 92.3977,-39.2746 107.2367,-25.9812 117.649,-17.7257"/>
<polygon fill="#191970" stroke="#191970" points="47.6092,-152.0576 49.5584,-162.4716 54.5289,-153.115 47.6092,-152.0576"/>
</g>
<!-- Node63&#45;&gt;Node46 -->
<g id="edge5" class="edge">
<title>Node63&#45;&gt;Node46</title>
<path fill="none" stroke="#191970" d="M139.3633,-212.2321C117.1039,-202.1312 86.6442,-188.3091 67.2677,-179.5164"/>
<polygon fill="#191970" stroke="#191970" points="138.0915,-215.4984 148.6441,-216.4435 140.9841,-209.124 138.0915,-215.4984"/>
</g>
<!-- Node64 -->
<g id="node6" class="node">
<title>Node64</title>
<g id="a_node6"><a xlink:href="../../d5/dae/_block_types_8hpp.html" target="_top" xlink:title="BlockTypes.hpp">
<polygon fill="none" stroke="#ff0000" points="140,-162.5 140,-179.5 213,-179.5 213,-162.5 140,-162.5"/>
<text text-anchor="middle" x="176.5" y="-169.1" font-family="Helvetica,sans-Serif" font-size="8.00" fill="#000000">BlockTypes.hpp</text>
</a>
</g>
</g>
<!-- Node63&#45;&gt;Node64 -->
<g id="edge6" class="edge">
<title>Node63&#45;&gt;Node64</title>
<path fill="none" stroke="#191970" d="M170.6499,-206.1005C172.144,-197.1357 173.857,-186.8579 175.0415,-179.7511"/>
<polygon fill="#191970" stroke="#191970" points="167.1779,-205.6436 168.9862,-216.083 174.0826,-206.7945 167.1779,-205.6436"/>
</g>
<!-- Node64&#45;&gt;Node47 -->
<g id="edge15" class="edge">
<title>Node64&#45;&gt;Node47</title>
<path fill="none" stroke="#191970" d="M156.2828,-156.2332C134.5886,-138.926 101.6151,-107.9912 89.5,-72 82.3082,-50.6348 103.3717,-29.2085 117.6035,-17.6743"/>
<polygon fill="#191970" stroke="#191970" points="154.1963,-159.0441 164.2506,-162.385 158.4742,-153.5034 154.1963,-159.0441"/>
</g>
<!-- Node65 -->
<g id="node7" class="node">
<title>Node65</title>
<g id="a_node7"><a xlink:href="../../de/d0c/_flha_one_8hpp.html" target="_top" xlink:title="FlhaOne.hpp">
<polygon fill="none" stroke="#000000" points="98,-54.5 98,-71.5 161,-71.5 161,-54.5 98,-54.5"/>
<text text-anchor="middle" x="129.5" y="-61.1" font-family="Helvetica,sans-Serif" font-size="8.00" fill="#000000">FlhaOne.hpp</text>
</a>
</g>
</g>
<!-- Node64&#45;&gt;Node65 -->
<g id="edge7" class="edge">
<title>Node64&#45;&gt;Node65</title>
<path fill="none" stroke="#191970" d="M160.2178,-154.7914C153.082,-146.7716 145.2636,-136.559 140.5,-126 132.2815,-107.7827 130.182,-84.0372 129.6598,-71.5439"/>
<polygon fill="#191970" stroke="#191970" points="157.8524,-157.3853 167.2501,-162.2776 162.9544,-152.5927 157.8524,-157.3853"/>
</g>
<!-- Node66 -->
<g id="node8" class="node">
<title>Node66</title>
<g id="a_node8"><a xlink:href="../../d7/d9f/_slha_parser_8hpp.html" target="_top" xlink:title="SlhaParser.hpp">
<polygon fill="none" stroke="#ff0000" points="149.5,-108.5 149.5,-125.5 221.5,-125.5 221.5,-108.5 149.5,-108.5"/>
<text text-anchor="middle" x="185.5" y="-115.1" font-family="Helvetica,sans-Serif" font-size="8.00" fill="#000000">SlhaParser.hpp</text>
</a>
</g>
</g>
<!-- Node64&#45;&gt;Node66 -->
<g id="edge9" class="edge">
<title>Node64&#45;&gt;Node66</title>
<path fill="none" stroke="#191970" d="M179.6499,-152.1005C181.144,-143.1357 182.857,-132.8579 184.0415,-125.7511"/>
<polygon fill="#191970" stroke="#191970" points="176.1779,-151.6436 177.9862,-162.083 183.0826,-152.7945 176.1779,-151.6436"/>
</g>
<!-- Node67 -->
<g id="node9" class="node">
<title>Node67</title>
<g id="a_node9"><a xlink:href="../../d7/dc0/_slha_one_8hpp.html" target="_top" xlink:title="SlhaOne.hpp">
<polygon fill="none" stroke="#ff0000" points="218,-54.5 218,-71.5 281,-71.5 281,-54.5 218,-54.5"/>
<text text-anchor="middle" x="249.5" y="-61.1" font-family="Helvetica,sans-Serif" font-size="8.00" fill="#000000">SlhaOne.hpp</text>
</a>
</g>
</g>
<!-- Node64&#45;&gt;Node67 -->
<g id="edge14" class="edge">
<title>Node64&#45;&gt;Node67</title>
<path fill="none" stroke="#191970" d="M199.2036,-156.7218C210.0624,-148.8531 222.424,-138.2069 230.5,-126 241.8462,-108.8502 246.6301,-84.6711 248.4706,-71.8262"/>
<polygon fill="#191970" stroke="#191970" points="197.1838,-153.8629 190.9277,-162.4135 201.1506,-159.6305 197.1838,-153.8629"/>
</g>
<!-- Node73 -->
<g id="node10" class="node">
<title>Node73</title>
<g id="a_node10"><a xlink:href="../../d5/dce/_slha_value_plotter_8hpp.html" target="_top" xlink:title="SlhaValuePlotter.hpp">
<polygon fill="none" stroke="#ff0000" points="277.5,-108.5 277.5,-125.5 369.5,-125.5 369.5,-108.5 277.5,-108.5"/>
<text text-anchor="middle" x="323.5" y="-115.1" font-family="Helvetica,sans-Serif" font-size="8.00" fill="#000000">SlhaValuePlotter.hpp</text>
</a>
</g>
</g>
<!-- Node64&#45;&gt;Node73 -->
<g id="edge16" class="edge">
<title>Node64&#45;&gt;Node73</title>
<path fill="none" stroke="#191970" d="M209.423,-158.9058C237.0598,-148.7536 275.844,-134.5063 300.3164,-125.5164"/>
<polygon fill="#191970" stroke="#191970" points="207.9724,-155.71 199.7926,-162.4435 210.3862,-162.2806 207.9724,-155.71"/>
</g>
<!-- Node65&#45;&gt;Node47 -->
<g id="edge8" class="edge">
<title>Node65&#45;&gt;Node47</title>
<path fill="none" stroke="#191970" d="M129.5,-43.8045C129.5,-34.9102 129.5,-24.7798 129.5,-17.7511"/>
<polygon fill="#191970" stroke="#191970" points="126.0001,-44.083 129.5,-54.083 133.0001,-44.083 126.0001,-44.083"/>
</g>
<!-- Node66&#45;&gt;Node47 -->
<g id="edge13" class="edge">
<title>Node66&#45;&gt;Node47</title>
<path fill="none" stroke="#191970" d="M183.5507,-98.2695C181.6108,-85.2568 177.8159,-67.8378 170.5,-54 162.794,-39.4242 149.2548,-25.9024 139.8532,-17.5627"/>
<polygon fill="#191970" stroke="#191970" points="180.1004,-98.8843 184.8199,-108.3699 187.0457,-98.0115 180.1004,-98.8843"/>
</g>
<!-- Node66&#45;&gt;Node65 -->
<g id="edge10" class="edge">
<title>Node66&#45;&gt;Node65</title>
<path fill="none" stroke="#191970" d="M169.1701,-101.2533C159.235,-91.6731 146.9125,-79.7906 138.6611,-71.8339"/>
<polygon fill="#191970" stroke="#191970" points="166.8747,-103.902 176.5026,-108.324 171.7336,-98.8631 166.8747,-103.902"/>
</g>
<!-- Node66&#45;&gt;Node67 -->
<g id="edge11" class="edge">
<title>Node66&#45;&gt;Node67</title>
<path fill="none" stroke="#191970" d="M203.4915,-101.8197C214.9576,-92.1452 229.4133,-79.9481 239.0302,-71.8339"/>
<polygon fill="#191970" stroke="#191970" points="201.1686,-99.2002 195.7827,-108.324 205.6827,-104.5502 201.1686,-99.2002"/>
</g>
<!-- Node67&#45;&gt;Node47 -->
<g id="edge12" class="edge">
<title>Node67&#45;&gt;Node47</title>
<path fill="none" stroke="#191970" d="M221.1269,-50.2321C198.6804,-40.1312 167.9648,-26.3091 148.4254,-17.5164"/>
<polygon fill="#191970" stroke="#191970" points="219.9301,-53.5316 230.4856,-54.4435 222.8027,-47.1481 219.9301,-53.5316"/>
</g>
</g>
</svg>
