<?xml version="1.0" encoding="UTF-8" standalone="no"?>
<!DOCTYPE svg PUBLIC "-//W3C//DTD SVG 1.1//EN"
 "http://www.w3.org/Graphics/SVG/1.1/DTD/svg11.dtd">
<!-- Generated by graphviz version 2.38.0 (20140413.2041)
 -->
<!-- Title: WilsonCoefficient.cpp Pages: 1 -->
<svg width="485pt" height="251pt"
 viewBox="0.00 0.00 484.50 251.00" xmlns="http://www.w3.org/2000/svg" xmlns:xlink="http://www.w3.org/1999/xlink">
<g id="graph0" class="graph" transform="scale(1 1) rotate(0) translate(4 247)">
<title>WilsonCoefficient.cpp</title>
<!-- Node1 -->
<g id="node1" class="node"><title>Node1</title>
<polygon fill="#bfbfbf" stroke="black" points="335.5,-225.5 335.5,-242.5 428.5,-242.5 428.5,-225.5 335.5,-225.5"/>
<text text-anchor="middle" x="382" y="-232.1" font-family="Helvetica,sans-Serif" font-size="8.00">WilsonCoefficient.cpp</text>
</g>
<!-- Node2 -->
<g id="node2" class="node"><title>Node2</title>
<g id="a_node2"><a xlink:href="../../db/dba/_wilson_coefficient_8h.html" target="_top" xlink:title="WilsonCoefficient.h">
<polygon fill="none" stroke="black" points="339.5,-171.5 339.5,-188.5 424.5,-188.5 424.5,-171.5 339.5,-171.5"/>
<text text-anchor="middle" x="382" y="-178.1" font-family="Helvetica,sans-Serif" font-size="8.00">WilsonCoefficient.h</text>
</a>
</g>
</g>
<!-- Node1&#45;&gt;Node2 -->
<g id="edge1" class="edge"><title>Node1&#45;&gt;Node2</title>
<path fill="none" stroke="midnightblue" d="M382,-225.327C382,-218.414 382,-207.985 382,-198.979"/>
<polygon fill="midnightblue" stroke="midnightblue" points="385.5,-198.704 382,-188.704 378.5,-198.704 385.5,-198.704"/>
</g>
<!-- Node9 -->
<g id="node9" class="node"><title>Node9</title>
<polygon fill="none" stroke="#bfbfbf" points="360.5,-59 360.5,-76 405.5,-76 405.5,-59 360.5,-59"/>
<text text-anchor="middle" x="383" y="-65.6" font-family="Helvetica,sans-Serif" font-size="8.00">sstream</text>
</g>
<!-- Node1&#45;&gt;Node9 -->
<g id="edge11" class="edge"><title>Node1&#45;&gt;Node9</title>
<path fill="none" stroke="midnightblue" d="M367.462,-225.479C354.924,-218.088 337.663,-205.522 330,-189 326.634,-181.743 329.778,-178.997 330,-171 330.667,-146.972 323.022,-138.868 333,-117 339.417,-102.936 351.892,-90.8247 362.775,-82.2225"/>
<polygon fill="midnightblue" stroke="midnightblue" points="365.072,-84.8764 371.016,-76.1058 360.9,-79.2555 365.072,-84.8764"/>
</g>
<!-- Node10 -->
<g id="node10" class="node"><title>Node10</title>
<polygon fill="none" stroke="#bfbfbf" points="425.5,-59 425.5,-76 476.5,-76 476.5,-59 425.5,-59"/>
<text text-anchor="middle" x="451" y="-65.6" font-family="Helvetica,sans-Serif" font-size="8.00">stdexcept</text>
</g>
<!-- Node1&#45;&gt;Node10 -->
<g id="edge12" class="edge"><title>Node1&#45;&gt;Node10</title>
<path fill="none" stroke="midnightblue" d="M395.236,-225.418C407.184,-217.821 424.196,-204.978 433,-189 451.153,-156.054 452.772,-110.732 452.068,-86.1269"/>
<polygon fill="midnightblue" stroke="midnightblue" points="455.564,-85.9584 451.615,-76.1271 448.571,-86.2752 455.564,-85.9584"/>
</g>
<!-- Node3 -->
<g id="node3" class="node"><title>Node3</title>
<g id="a_node3"><a xlink:href="../../da/dad/gslpp__vector__complex_8h.html" target="_top" xlink:title="gslpp_vector_complex.h">
<polygon fill="none" stroke="black" points="133.5,-117.5 133.5,-134.5 236.5,-134.5 236.5,-117.5 133.5,-117.5"/>
<text text-anchor="middle" x="185" y="-124.1" font-family="Helvetica,sans-Serif" font-size="8.00">gslpp_vector_complex.h</text>
</a>
</g>
</g>
<!-- Node2&#45;&gt;Node3 -->
<g id="edge2" class="edge"><title>Node2&#45;&gt;Node3</title>
<path fill="none" stroke="midnightblue" d="M353.355,-171.439C319.069,-162.389 261.518,-147.198 223.402,-137.137"/>
<polygon fill="midnightblue" stroke="midnightblue" points="224.242,-133.739 213.68,-134.57 222.456,-140.507 224.242,-133.739"/>
</g>
<!-- Node8 -->
<g id="node8" class="node"><title>Node8</title>
<g id="a_node8"><a xlink:href="../../d3/de7/_wilson_template_8h.html" target="_top" xlink:title="WilsonTemplate.h">
<polygon fill="none" stroke="red" points="342.5,-117.5 342.5,-134.5 423.5,-134.5 423.5,-117.5 342.5,-117.5"/>
<text text-anchor="middle" x="383" y="-124.1" font-family="Helvetica,sans-Serif" font-size="8.00">WilsonTemplate.h</text>
</a>
</g>
</g>
<!-- Node2&#45;&gt;Node8 -->
<g id="edge8" class="edge"><title>Node2&#45;&gt;Node8</title>
<path fill="none" stroke="midnightblue" d="M382.148,-171.327C382.28,-164.414 382.481,-153.985 382.654,-144.979"/>
<polygon fill="midnightblue" stroke="midnightblue" points="386.159,-144.77 382.852,-134.704 379.16,-144.635 386.159,-144.77"/>
</g>
<!-- Node4 -->
<g id="node4" class="node"><title>Node4</title>
<polygon fill="none" stroke="#bfbfbf" points="127.5,-0.5 127.5,-17.5 174.5,-17.5 174.5,-0.5 127.5,-0.5"/>
<text text-anchor="middle" x="151" y="-7.1" font-family="Helvetica,sans-Serif" font-size="8.00">iostream</text>
</g>
<!-- Node3&#45;&gt;Node4 -->
<g id="edge3" class="edge"><title>Node3&#45;&gt;Node4</title>
<path fill="none" stroke="midnightblue" d="M172,-117.493C160.372,-109.95 144.101,-97.1425 137,-81 129.347,-63.6024 135.628,-41.9726 142.047,-27.1881"/>
<polygon fill="midnightblue" stroke="midnightblue" points="145.385,-28.3216 146.548,-17.7909 139.072,-25.2976 145.385,-28.3216"/>
</g>
<!-- Node5 -->
<g id="node5" class="node"><title>Node5</title>
<polygon fill="none" stroke="#bfbfbf" points="242,-54.5 242,-80.5 342,-80.5 342,-54.5 242,-54.5"/>
<text text-anchor="start" x="250" y="-70.1" font-family="Helvetica,sans-Serif" font-size="8.00">gsl/gsl_vector_complex</text>
<text text-anchor="middle" x="292" y="-61.1" font-family="Helvetica,sans-Serif" font-size="8.00">_double.h</text>
</g>
<!-- Node3&#45;&gt;Node5 -->
<g id="edge4" class="edge"><title>Node3&#45;&gt;Node5</title>
<path fill="none" stroke="midnightblue" d="M199.43,-117.38C214.963,-109.178 240.157,-95.875 260.343,-85.2163"/>
<polygon fill="midnightblue" stroke="midnightblue" points="262.003,-88.2974 269.212,-80.533 258.735,-82.1074 262.003,-88.2974"/>
</g>
<!-- Node6 -->
<g id="node6" class="node"><title>Node6</title>
<g id="a_node6"><a xlink:href="../../d1/dc2/gslpp__complex_8h.html" target="_top" xlink:title="gslpp_complex.h">
<polygon fill="none" stroke="red" points="146.5,-59 146.5,-76 223.5,-76 223.5,-59 146.5,-59"/>
<text text-anchor="middle" x="185" y="-65.6" font-family="Helvetica,sans-Serif" font-size="8.00">gslpp_complex.h</text>
</a>
</g>
</g>
<!-- Node3&#45;&gt;Node6 -->
<g id="edge5" class="edge"><title>Node3&#45;&gt;Node6</title>
<path fill="none" stroke="midnightblue" d="M185,-117.144C185,-109.217 185,-96.702 185,-86.3516"/>
<polygon fill="midnightblue" stroke="midnightblue" points="188.5,-86.2893 185,-76.2894 181.5,-86.2894 188.5,-86.2893"/>
</g>
<!-- Node7 -->
<g id="node7" class="node"><title>Node7</title>
<g id="a_node7"><a xlink:href="../../d3/d9f/gslpp__vector__base_8h.html" target="_top" xlink:title="gslpp_vector_base.h">
<polygon fill="none" stroke="black" points="0,-59 0,-76 90,-76 90,-59 0,-59"/>
<text text-anchor="middle" x="45" y="-65.6" font-family="Helvetica,sans-Serif" font-size="8.00">gslpp_vector_base.h</text>
</a>
</g>
</g>
<!-- Node3&#45;&gt;Node7 -->
<g id="edge7" class="edge"><title>Node3&#45;&gt;Node7</title>
<path fill="none" stroke="midnightblue" d="M166.409,-117.497C142.561,-107.873 100.97,-91.088 73.2108,-79.8851"/>
<polygon fill="midnightblue" stroke="midnightblue" points="74.251,-76.5306 63.6678,-76.0338 71.6312,-83.022 74.251,-76.5306"/>
</g>
<!-- Node6&#45;&gt;Node4 -->
<g id="edge6" class="edge"><title>Node6&#45;&gt;Node4</title>
<path fill="none" stroke="midnightblue" d="M180.272,-58.6439C175.299,-50.3794 167.325,-37.1286 160.955,-26.5426"/>
<polygon fill="midnightblue" stroke="midnightblue" points="163.842,-24.553 155.687,-17.7894 157.845,-28.1623 163.842,-24.553"/>
</g>
<!-- Node8&#45;&gt;Node9 -->
<g id="edge9" class="edge"><title>Node8&#45;&gt;Node9</title>
<path fill="none" stroke="midnightblue" d="M383,-117.144C383,-109.217 383,-96.702 383,-86.3516"/>
<polygon fill="midnightblue" stroke="midnightblue" points="386.5,-86.2893 383,-76.2894 379.5,-86.2894 386.5,-86.2893"/>
</g>
<!-- Node8&#45;&gt;Node10 -->
<g id="edge10" class="edge"><title>Node8&#45;&gt;Node10</title>
<path fill="none" stroke="midnightblue" d="M392.171,-117.38C402.758,-108.584 420.406,-93.9199 433.617,-82.9435"/>
<polygon fill="midnightblue" stroke="midnightblue" points="436.083,-85.4444 441.538,-76.3617 431.61,-80.0604 436.083,-85.4444"/>
</g>
</g>
</svg>
