<?xml version="1.0" encoding="UTF-8" standalone="no"?>
<!DOCTYPE svg PUBLIC "-//W3C//DTD SVG 1.1//EN"
 "http://www.w3.org/Graphics/SVG/1.1/DTD/svg11.dtd">
<!-- Generated by graphviz version 2.40.1 (20161225.0304)
 -->
<!-- Title: SparseSinglyIndexed.hpp Pages: 1 -->
<svg width="340pt" height="404pt"
 viewBox="0.00 0.00 339.50 404.00" xmlns="http://www.w3.org/2000/svg" xmlns:xlink="http://www.w3.org/1999/xlink">
<g id="graph0" class="graph" transform="scale(1 1) rotate(0) translate(4 400)">
<title>SparseSinglyIndexed.hpp</title>
<!-- Node0 -->
<g id="node1" class="node">
<title>Node0</title>
<polygon fill="#bfbfbf" stroke="#000000" points="0,-378.5 0,-395.5 108,-395.5 108,-378.5 0,-378.5"/>
<text text-anchor="middle" x="54" y="-385.1" font-family="Helvetica,sans-Serif" font-size="8.00" fill="#000000">SparseSinglyIndexed.hpp</text>
</g>
<!-- Node1 -->
<g id="node2" class="node">
<title>Node1</title>
<polygon fill="none" stroke="#bfbfbf" points="36,-.5 36,-17.5 68,-17.5 68,-.5 36,-.5"/>
<text text-anchor="middle" x="52" y="-7.1" font-family="Helvetica,sans-Serif" font-size="8.00" fill="#000000">map</text>
</g>
<!-- Node0&#45;&gt;Node1 -->
<g id="edge1" class="edge">
<title>Node0&#45;&gt;Node1</title>
<path fill="none" stroke="#191970" d="M48.7163,-378.4032C38.2749,-360.5694 16,-317.9585 16,-279 16,-279 16,-279 16,-117 16,-83.7096 31.5848,-47.4724 42.246,-26.5778"/>
<polygon fill="#191970" stroke="#191970" points="45.3969,-28.1069 46.9944,-17.6331 39.2141,-24.8246 45.3969,-28.1069"/>
</g>
<!-- Node2 -->
<g id="node3" class="node">
<title>Node2</title>
<g id="a_node3"><a xlink:href="../../d6/d7b/_indexed_interpreter_8hpp.html" target="_top" xlink:title="IndexedInterpreter.hpp">
<polygon fill="none" stroke="#000000" points="45.5,-324.5 45.5,-341.5 142.5,-341.5 142.5,-324.5 45.5,-324.5"/>
<text text-anchor="middle" x="94" y="-331.1" font-family="Helvetica,sans-Serif" font-size="8.00" fill="#000000">IndexedInterpreter.hpp</text>
</a>
</g>
</g>
<!-- Node0&#45;&gt;Node2 -->
<g id="edge2" class="edge">
<title>Node0&#45;&gt;Node2</title>
<path fill="none" stroke="#191970" d="M60.6052,-378.083C66.2552,-370.4554 74.5448,-359.2645 81.4512,-349.9408"/>
<polygon fill="#191970" stroke="#191970" points="84.3779,-351.87 87.5177,-341.7511 78.7529,-347.7034 84.3779,-351.87"/>
</g>
<!-- Node3 -->
<g id="node4" class="node">
<title>Node3</title>
<g id="a_node4"><a xlink:href="../../d2/d6b/_interpreter_template_8hpp.html" target="_top" xlink:title="InterpreterTemplate.hpp">
<polygon fill="none" stroke="#000000" points="60,-270.5 60,-287.5 162,-287.5 162,-270.5 60,-270.5"/>
<text text-anchor="middle" x="111" y="-277.1" font-family="Helvetica,sans-Serif" font-size="8.00" fill="#000000">InterpreterTemplate.hpp</text>
</a>
</g>
</g>
<!-- Node2&#45;&gt;Node3 -->
<g id="edge3" class="edge">
<title>Node2&#45;&gt;Node3</title>
<path fill="none" stroke="#191970" d="M96.8072,-324.083C99.0847,-316.8486 102.3713,-306.4087 105.2084,-297.3968"/>
<polygon fill="#191970" stroke="#191970" points="108.5806,-298.3406 108.245,-287.7511 101.9036,-296.2385 108.5806,-298.3406"/>
</g>
<!-- Node4 -->
<g id="node5" class="node">
<title>Node4</title>
<g id="a_node5"><a xlink:href="../../d8/d14/_b_o_llib_8hpp.html" target="_top" xlink:title="BOLlib/include/BOLlib.hpp">
<polygon fill="none" stroke="#ff0000" points="98,-162.5 98,-179.5 208,-179.5 208,-162.5 98,-162.5"/>
<text text-anchor="middle" x="153" y="-169.1" font-family="Helvetica,sans-Serif" font-size="8.00" fill="#000000">BOLlib/include/BOLlib.hpp</text>
</a>
</g>
</g>
<!-- Node3&#45;&gt;Node4 -->
<g id="edge4" class="edge">
<title>Node3&#45;&gt;Node4</title>
<path fill="none" stroke="#191970" d="M103.7242,-270.1002C94.4304,-257.5774 80.6096,-234.2474 90,-216 97.0773,-202.2475 110.521,-191.7663 123.1778,-184.3942"/>
<polygon fill="#191970" stroke="#191970" points="124.9994,-187.3888 132.1527,-179.5733 121.6869,-181.2221 124.9994,-187.3888"/>
</g>
<!-- Node40 -->
<g id="node9" class="node">
<title>Node40</title>
<g id="a_node9"><a xlink:href="../../db/d22/_block_interpreter_8hpp.html" target="_top" xlink:title="BlockInterpreter.hpp">
<polygon fill="none" stroke="#ff0000" points="99.5,-216.5 99.5,-233.5 188.5,-233.5 188.5,-216.5 99.5,-216.5"/>
<text text-anchor="middle" x="144" y="-223.1" font-family="Helvetica,sans-Serif" font-size="8.00" fill="#000000">BlockInterpreter.hpp</text>
</a>
</g>
</g>
<!-- Node3&#45;&gt;Node40 -->
<g id="edge10" class="edge">
<title>Node3&#45;&gt;Node40</title>
<path fill="none" stroke="#191970" d="M116.4493,-270.083C121.0145,-262.6127 127.6684,-251.7244 133.2934,-242.5199"/>
<polygon fill="#191970" stroke="#191970" points="136.4241,-244.109 138.6521,-233.7511 130.4511,-240.4588 136.4241,-244.109"/>
</g>
<!-- Node42 -->
<g id="node10" class="node">
<title>Node42</title>
<g id="a_node10"><a xlink:href="../../db/dbc/_extended_mass_8hpp.html" target="_top" xlink:title="../../../MEC/ExtendedMass.hpp">
<polygon fill="none" stroke="#ff0000" points="206.5,-216.5 206.5,-233.5 331.5,-233.5 331.5,-216.5 206.5,-216.5"/>
<text text-anchor="middle" x="269" y="-223.1" font-family="Helvetica,sans-Serif" font-size="8.00" fill="#000000">../../../MEC/ExtendedMass.hpp</text>
</a>
</g>
</g>
<!-- Node3&#45;&gt;Node42 -->
<g id="edge12" class="edge">
<title>Node3&#45;&gt;Node42</title>
<path fill="none" stroke="#191970" d="M136.0356,-270.4435C162.616,-261.3591 204.8088,-246.9388 234.5234,-236.7831"/>
<polygon fill="#191970" stroke="#191970" points="235.7509,-240.0625 244.0816,-233.5164 233.487,-233.4386 235.7509,-240.0625"/>
</g>
<!-- Node5 -->
<g id="node6" class="node">
<title>Node5</title>
<g id="a_node6"><a xlink:href="../../dc/d4c/_argument_parser_8hpp.html" target="_top" xlink:title="ArgumentParser.hpp">
<polygon fill="none" stroke="#ff0000" points="44,-108.5 44,-125.5 134,-125.5 134,-108.5 44,-108.5"/>
<text text-anchor="middle" x="89" y="-115.1" font-family="Helvetica,sans-Serif" font-size="8.00" fill="#000000">ArgumentParser.hpp</text>
</a>
</g>
</g>
<!-- Node4&#45;&gt;Node5 -->
<g id="edge5" class="edge">
<title>Node4&#45;&gt;Node5</title>
<path fill="none" stroke="#191970" d="M142.7173,-162.324C133.1637,-154.2631 118.7203,-142.0765 107.2157,-132.3695"/>
<polygon fill="#191970" stroke="#191970" points="109.3698,-129.6076 99.4698,-125.8339 104.8557,-134.9577 109.3698,-129.6076"/>
</g>
<!-- Node9 -->
<g id="node7" class="node">
<title>Node9</title>
<g id="a_node7"><a xlink:href="../../d4/dbc/_ascii_xml_parser_8hpp.html" target="_top" xlink:title="AsciiXmlParser.hpp">
<polygon fill="none" stroke="#ff0000" points="46,-54.5 46,-71.5 132,-71.5 132,-54.5 46,-54.5"/>
<text text-anchor="middle" x="89" y="-61.1" font-family="Helvetica,sans-Serif" font-size="8.00" fill="#000000">AsciiXmlParser.hpp</text>
</a>
</g>
</g>
<!-- Node4&#45;&gt;Node9 -->
<g id="edge8" class="edge">
<title>Node4&#45;&gt;Node9</title>
<path fill="none" stroke="#191970" d="M153.4832,-162.2218C153.7913,-149.4367 152.8483,-125.3313 143,-108 135.864,-95.4419 123.7835,-84.8768 112.856,-77.1464"/>
<polygon fill="#191970" stroke="#191970" points="114.7233,-74.1849 104.4561,-71.5704 110.8519,-80.017 114.7233,-74.1849"/>
</g>
<!-- Node22 -->
<g id="node8" class="node">
<title>Node22</title>
<g id="a_node8"><a xlink:href="../../da/d0a/_balanced_partition_candidate_8hpp.html" target="_top" xlink:title="BalancedPartitionCandidate.hpp">
<polygon fill="none" stroke="#ff0000" points="190.5,-108.5 190.5,-125.5 321.5,-125.5 321.5,-108.5 190.5,-108.5"/>
<text text-anchor="middle" x="256" y="-115.1" font-family="Helvetica,sans-Serif" font-size="8.00" fill="#000000">BalancedPartitionCandidate.hpp</text>
</a>
</g>
</g>
<!-- Node4&#45;&gt;Node22 -->
<g id="edge9" class="edge">
<title>Node4&#45;&gt;Node22</title>
<path fill="none" stroke="#191970" d="M169.5487,-162.324C185.9916,-153.7034 211.4348,-140.3643 230.4684,-130.3855"/>
<polygon fill="#191970" stroke="#191970" points="232.2609,-133.3977 239.4923,-125.6545 229.0105,-127.198 232.2609,-133.3977"/>
</g>
<!-- Node5&#45;&gt;Node9 -->
<g id="edge6" class="edge">
<title>Node5&#45;&gt;Node9</title>
<path fill="none" stroke="#191970" d="M89,-108.083C89,-101.0059 89,-90.8611 89,-81.9865"/>
<polygon fill="#191970" stroke="#191970" points="92.5001,-81.751 89,-71.7511 85.5001,-81.7511 92.5001,-81.751"/>
</g>
<!-- Node9&#45;&gt;Node1 -->
<g id="edge7" class="edge">
<title>Node9&#45;&gt;Node1</title>
<path fill="none" stroke="#191970" d="M82.8902,-54.083C77.7178,-46.5341 70.1539,-35.4948 63.8056,-26.2298"/>
<polygon fill="#191970" stroke="#191970" points="66.5357,-24.0221 57.9961,-17.7511 60.7612,-27.9787 66.5357,-24.0221"/>
</g>
<!-- Node40&#45;&gt;Node4 -->
<g id="edge11" class="edge">
<title>Node40&#45;&gt;Node4</title>
<path fill="none" stroke="#191970" d="M145.4862,-216.083C146.6788,-208.9272 148.3941,-198.6353 149.8848,-189.6911"/>
<polygon fill="#191970" stroke="#191970" points="153.3498,-190.1904 151.5415,-179.7511 146.445,-189.0396 153.3498,-190.1904"/>
</g>
<!-- Node42&#45;&gt;Node4 -->
<g id="edge13" class="edge">
<title>Node42&#45;&gt;Node4</title>
<path fill="none" stroke="#191970" d="M250.6195,-216.4435C231.7835,-207.6751 202.2688,-193.9355 180.6207,-183.8579"/>
<polygon fill="#191970" stroke="#191970" points="181.8375,-180.5637 171.2946,-179.5164 178.8833,-186.9098 181.8375,-180.5637"/>
</g>
</g>
</svg>
