<?xml version="1.0" encoding="UTF-8" standalone="no"?>
<!DOCTYPE svg PUBLIC "-//W3C//DTD SVG 1.1//EN"
 "http://www.w3.org/Graphics/SVG/1.1/DTD/svg11.dtd">
<!-- Generated by graphviz version 2.40.1 (20161225.0304)
 -->
<!-- Title: PushingObserved.hpp Pages: 1 -->
<svg width="169pt" height="188pt"
 viewBox="0.00 0.00 168.50 188.00" xmlns="http://www.w3.org/2000/svg" xmlns:xlink="http://www.w3.org/1999/xlink">
<g id="graph0" class="graph" transform="scale(1 1) rotate(0) translate(4 184)">
<title>PushingObserved.hpp</title>
<!-- Node0 -->
<g id="node1" class="node">
<title>Node0</title>
<polygon fill="#bfbfbf" stroke="#000000" points="0,-162.5 0,-179.5 96,-179.5 96,-162.5 0,-162.5"/>
<text text-anchor="middle" x="48" y="-169.1" font-family="Helvetica,sans-Serif" font-size="8.00" fill="#000000">PushingObserved.hpp</text>
</g>
<!-- Node1 -->
<g id="node2" class="node">
<title>Node1</title>
<polygon fill="none" stroke="#bfbfbf" points="32.5,-.5 32.5,-17.5 61.5,-17.5 61.5,-.5 32.5,-.5"/>
<text text-anchor="middle" x="47" y="-7.1" font-family="Helvetica,sans-Serif" font-size="8.00" fill="#000000">list</text>
</g>
<!-- Node0&#45;&gt;Node1 -->
<g id="edge1" class="edge">
<title>Node0&#45;&gt;Node1</title>
<path fill="none" stroke="#191970" d="M42.8698,-162.4068C37.9422,-153.6139 30.8396,-139.381 28,-126 20.6242,-91.2438 31.8399,-50.15 39.9245,-27.0766"/>
<polygon fill="#191970" stroke="#191970" points="43.2555,-28.1601 43.4437,-17.5669 36.6906,-25.7306 43.2555,-28.1601"/>
</g>
<!-- Node2 -->
<g id="node3" class="node">
<title>Node2</title>
<g id="a_node3"><a xlink:href="../../dc/d8d/_pushed_to_observer_8hpp.html" target="_top" xlink:title="PushedToObserver.hpp">
<polygon fill="none" stroke="#000000" points="37.5,-108.5 37.5,-125.5 138.5,-125.5 138.5,-108.5 37.5,-108.5"/>
<text text-anchor="middle" x="88" y="-115.1" font-family="Helvetica,sans-Serif" font-size="8.00" fill="#000000">PushedToObserver.hpp</text>
</a>
</g>
</g>
<!-- Node0&#45;&gt;Node2 -->
<g id="edge2" class="edge">
<title>Node0&#45;&gt;Node2</title>
<path fill="none" stroke="#191970" d="M54.6052,-162.083C60.2552,-154.4554 68.5448,-143.2645 75.4512,-133.9408"/>
<polygon fill="#191970" stroke="#191970" points="78.3779,-135.87 81.5177,-125.7511 72.7529,-131.7034 78.3779,-135.87"/>
</g>
<!-- Node2&#45;&gt;Node1 -->
<g id="edge3" class="edge">
<title>Node2&#45;&gt;Node1</title>
<path fill="none" stroke="#191970" d="M83.1826,-108.2263C78.4044,-99.2929 71.0809,-84.953 66,-72 60.2567,-57.3584 55.1957,-40.2446 51.7442,-27.5521"/>
<polygon fill="#191970" stroke="#191970" points="55.0829,-26.4865 49.1486,-17.7095 48.3143,-28.2714 55.0829,-26.4865"/>
</g>
<!-- Node3 -->
<g id="node4" class="node">
<title>Node3</title>
<g id="a_node4"><a xlink:href="../../d7/dab/_basic_observer_8hpp.html" target="_top" xlink:title="BasicObserver.hpp">
<polygon fill="none" stroke="#000000" points="75.5,-54.5 75.5,-71.5 160.5,-71.5 160.5,-54.5 75.5,-54.5"/>
<text text-anchor="middle" x="118" y="-61.1" font-family="Helvetica,sans-Serif" font-size="8.00" fill="#000000">BasicObserver.hpp</text>
</a>
</g>
</g>
<!-- Node2&#45;&gt;Node3 -->
<g id="edge4" class="edge">
<title>Node2&#45;&gt;Node3</title>
<path fill="none" stroke="#191970" d="M92.9539,-108.083C97.1041,-100.6127 103.1531,-89.7244 108.2667,-80.5199"/>
<polygon fill="#191970" stroke="#191970" points="111.3414,-82.1924 113.1383,-71.7511 105.2223,-78.7929 111.3414,-82.1924"/>
</g>
<!-- Node3&#45;&gt;Node1 -->
<g id="edge5" class="edge">
<title>Node3&#45;&gt;Node1</title>
<path fill="none" stroke="#191970" d="M106.5926,-54.324C95.8912,-46.1849 79.6593,-33.8395 66.8372,-24.0874"/>
<polygon fill="#191970" stroke="#191970" points="68.6932,-21.1018 58.6149,-17.8339 64.4556,-26.6734 68.6932,-21.1018"/>
</g>
</g>
</svg>
