<?xml version="1.0" encoding="UTF-8" standalone="no"?>
<!DOCTYPE svg PUBLIC "-//W3C//DTD SVG 1.1//EN"
 "http://www.w3.org/Graphics/SVG/1.1/DTD/svg11.dtd">
<!-- Generated by graphviz version 2.38.0 (20140413.2041)
 -->
<!-- Title: EWSMThreeLoopEW Pages: 1 -->
<svg width="452pt" height="216pt"
 viewBox="0.00 0.00 451.72 216.00" xmlns="http://www.w3.org/2000/svg" xmlns:xlink="http://www.w3.org/1999/xlink">
<g id="graph0" class="graph" transform="scale(1 1) rotate(0) translate(4 212)">
<title>EWSMThreeLoopEW</title>
<!-- Node1 -->
<g id="node1" class="node"><title>Node1</title>
<polygon fill="#bfbfbf" stroke="black" points="173.715,-135.5 173.715,-152.5 266.715,-152.5 266.715,-135.5 173.715,-135.5"/>
<text text-anchor="middle" x="220.215" y="-142.1" font-family="Helvetica,sans-Serif" font-size="8.00">EWSMThreeLoopEW</text>
</g>
<!-- Node7 -->
<g id="node7" class="node"><title>Node7</title>
<g id="a_node7"><a xlink:href="../../dc/dd5/class_standard_model.html" target="_top" xlink:title="A model class for the Standard Model. ">
<polygon fill="none" stroke="red" points="269.715,-63.5 269.715,-80.5 340.715,-80.5 340.715,-63.5 269.715,-63.5"/>
<text text-anchor="middle" x="305.215" y="-70.1" font-family="Helvetica,sans-Serif" font-size="8.00">StandardModel</text>
</a>
</g>
</g>
<!-- Node1&#45;&gt;Node7 -->
<g id="edge12" class="edge"><title>Node1&#45;&gt;Node7</title>
<path fill="none" stroke="#9a32cd" stroke-dasharray="5,2" d="M224.704,-125.636C227.786,-116.683 232.708,-106.169 240.215,-99 249.181,-90.4384 261.321,-84.5718 272.683,-80.6117"/>
<polygon fill="#9a32cd" stroke="#9a32cd" points="221.281,-124.871 221.807,-135.452 227.994,-126.852 221.281,-124.871"/>
<text text-anchor="middle" x="272.715" y="-106.1" font-family="Helvetica,sans-Serif" font-size="8.00"> myThreeLoopEW</text>
</g>
<!-- Node2 -->
<g id="node2" class="node"><title>Node2</title>
<g id="a_node2"><a xlink:href="../../dc/df3/class_e_w_s_mcache.html" target="_top" xlink:title="A class for cache variables used in computing radiative corrections to the EW precision observables...">
<polygon fill="none" stroke="black" points="144.715,-0.5 144.715,-17.5 207.715,-17.5 207.715,-0.5 144.715,-0.5"/>
<text text-anchor="middle" x="176.215" y="-7.1" font-family="Helvetica,sans-Serif" font-size="8.00">EWSMcache</text>
</a>
</g>
</g>
<!-- Node2&#45;&gt;Node1 -->
<g id="edge1" class="edge"><title>Node2&#45;&gt;Node1</title>
<path fill="none" stroke="#9a32cd" stroke-dasharray="5,2" d="M182.001,-27.4887C191.71,-56.8354 210.889,-114.808 217.724,-135.468"/>
<polygon fill="#9a32cd" stroke="#9a32cd" points="185.253,-26.175 178.789,-17.7804 178.607,-28.3737 185.253,-26.175"/>
<text text-anchor="middle" x="212.215" y="-70.1" font-family="Helvetica,sans-Serif" font-size="8.00"> cache</text>
</g>
<!-- Node2&#45;&gt;Node7 -->
<g id="edge10" class="edge"><title>Node2&#45;&gt;Node7</title>
<path fill="none" stroke="#9a32cd" stroke-dasharray="5,2" d="M217.819,-17.2761C234.227,-21.2673 252.797,-27.2433 268.215,-36 280.825,-43.1616 292.463,-55.5114 299.2,-63.4629"/>
<polygon fill="#9a32cd" stroke="#9a32cd" points="218.456,-13.8318 207.93,-15.0405 216.912,-20.6595 218.456,-13.8318"/>
<text text-anchor="middle" x="311.215" y="-38.6" font-family="Helvetica,sans-Serif" font-size="8.00"> myEWSMcache</text>
</g>
<!-- Node3 -->
<g id="node3" class="node"><title>Node3</title>
<g id="a_node3"><a xlink:href="../../d4/d7b/class_p_vfunctions.html" target="_top" xlink:title="A class for Passarino&#45;Veltman functions. ">
<polygon fill="none" stroke="black" points="46.7153,-63.5 46.7153,-80.5 105.715,-80.5 105.715,-63.5 46.7153,-63.5"/>
<text text-anchor="middle" x="76.2153" y="-70.1" font-family="Helvetica,sans-Serif" font-size="8.00">PVfunctions</text>
</a>
</g>
</g>
<!-- Node3&#45;&gt;Node2 -->
<g id="edge2" class="edge"><title>Node3&#45;&gt;Node2</title>
<path fill="none" stroke="#9a32cd" stroke-dasharray="5,2" d="M90.6451,-55.9584C97.6248,-49.2544 106.391,-41.6207 115.215,-36 127.158,-28.3928 141.707,-22.0935 153.6,-17.6015"/>
<polygon fill="#9a32cd" stroke="#9a32cd" points="87.9739,-53.6798 83.3757,-63.2249 92.9226,-58.6306 87.9739,-53.6798"/>
<text text-anchor="middle" x="121.715" y="-38.6" font-family="Helvetica,sans-Serif" font-size="8.00"> PV</text>
</g>
<!-- Node4 -->
<g id="node4" class="node"><title>Node4</title>
<g id="a_node4"><a xlink:href="../../d8/db3/class_polylogarithms.html" target="_top" xlink:title="A class for the polylogarithms. ">
<polygon fill="none" stroke="black" points="21.7153,-135.5 21.7153,-152.5 90.7153,-152.5 90.7153,-135.5 21.7153,-135.5"/>
<text text-anchor="middle" x="56.2153" y="-142.1" font-family="Helvetica,sans-Serif" font-size="8.00">Polylogarithms</text>
</a>
</g>
</g>
<!-- Node4&#45;&gt;Node2 -->
<g id="edge7" class="edge"><title>Node4&#45;&gt;Node2</title>
<path fill="none" stroke="#9a32cd" stroke-dasharray="5,2" d="M36.7806,-129.289C16.1761,-113.054 -11.287,-85.3915 5.21534,-63 37.3,-19.4652 104.767,-10.6259 144.697,-9.42981"/>
<polygon fill="#9a32cd" stroke="#9a32cd" points="34.9461,-132.289 45.043,-135.499 39.1518,-126.693 34.9461,-132.289"/>
<text text-anchor="middle" x="21.2153" y="-70.1" font-family="Helvetica,sans-Serif" font-size="8.00"> PolyLog</text>
</g>
<!-- Node4&#45;&gt;Node3 -->
<g id="edge3" class="edge"><title>Node4&#45;&gt;Node3</title>
<path fill="none" stroke="#9a32cd" stroke-dasharray="5,2" d="M51.0081,-125.244C49.4885,-117.013 48.9893,-107.251 52.2153,-99 55.0786,-91.6768 61.0786,-85.1768 66.3628,-80.5076"/>
<polygon fill="#9a32cd" stroke="#9a32cd" points="47.6766,-126.353 53.4589,-135.231 54.4749,-124.685 47.6766,-126.353"/>
<text text-anchor="middle" x="72.2153" y="-106.1" font-family="Helvetica,sans-Serif" font-size="8.00"> myPolylog</text>
</g>
<!-- Node5 -->
<g id="node5" class="node"><title>Node5</title>
<g id="a_node5"><a xlink:href="../../df/dea/class_bernoulli_numbers.html" target="_top" xlink:title="A class for the Bernoulli numbers. ">
<polygon fill="none" stroke="black" points="63.2153,-190.5 63.2153,-207.5 143.215,-207.5 143.215,-190.5 63.2153,-190.5"/>
<text text-anchor="middle" x="103.215" y="-197.1" font-family="Helvetica,sans-Serif" font-size="8.00">BernoulliNumbers</text>
</a>
</g>
</g>
<!-- Node5&#45;&gt;Node4 -->
<g id="edge4" class="edge"><title>Node5&#45;&gt;Node4</title>
<path fill="none" stroke="midnightblue" d="M89.5766,-182.62C80.8031,-172.727 69.7895,-160.307 62.8745,-152.509"/>
<polygon fill="midnightblue" stroke="midnightblue" points="87.0268,-185.02 96.2803,-190.18 92.2641,-180.376 87.0268,-185.02"/>
</g>
<!-- Node6 -->
<g id="node6" class="node"><title>Node6</title>
<g id="a_node6"><a xlink:href="../../d5/d9d/class_clausen_functions.html" target="_top" xlink:title="A class for the Clausen functions. ">
<polygon fill="none" stroke="black" points="101.715,-99.5 101.715,-116.5 182.715,-116.5 182.715,-99.5 101.715,-99.5"/>
<text text-anchor="middle" x="142.215" y="-106.1" font-family="Helvetica,sans-Serif" font-size="8.00">ClausenFunctions</text>
</a>
</g>
</g>
<!-- Node5&#45;&gt;Node6 -->
<g id="edge6" class="edge"><title>Node5&#45;&gt;Node6</title>
<path fill="none" stroke="midnightblue" d="M110.668,-180.994C119.167,-161.597 132.688,-130.741 138.899,-116.569"/>
<polygon fill="midnightblue" stroke="midnightblue" points="107.348,-179.848 106.54,-190.412 113.76,-182.657 107.348,-179.848"/>
</g>
<!-- Node6&#45;&gt;Node2 -->
<g id="edge5" class="edge"><title>Node6&#45;&gt;Node2</title>
<path fill="none" stroke="#9a32cd" stroke-dasharray="5,2" d="M147.491,-89.6906C150.03,-81.5563 153.176,-71.7458 156.215,-63 161.897,-46.6499 169.219,-27.7304 173.241,-17.5024"/>
<polygon fill="#9a32cd" stroke="#9a32cd" points="144.073,-88.8991 144.474,-99.4863 150.763,-90.9598 144.073,-88.8991"/>
<text text-anchor="middle" x="172.215" y="-70.1" font-family="Helvetica,sans-Serif" font-size="8.00"> Clausen</text>
</g>
<!-- Node7&#45;&gt;Node2 -->
<g id="edge8" class="edge"><title>Node7&#45;&gt;Node2</title>
<path fill="none" stroke="#9a32cd" stroke-dasharray="5,2" d="M279.887,-59.023C253.822,-46.6977 214.02,-27.8764 192.09,-17.5065"/>
<polygon fill="#9a32cd" stroke="#9a32cd" points="278.602,-62.2868 289.138,-63.3976 281.594,-55.9587 278.602,-62.2868"/>
<text text-anchor="middle" x="256.715" y="-38.6" font-family="Helvetica,sans-Serif" font-size="8.00"> SM</text>
</g>
<!-- Node8 -->
<g id="node8" class="node"><title>Node8</title>
<g id="a_node8"><a xlink:href="../../dd/dfa/class_q_c_d.html" target="_top" xlink:title="A class for parameters related to QCD, hadrons and quarks. ">
<polygon fill="none" stroke="red" points="296.215,-135.5 296.215,-152.5 330.215,-152.5 330.215,-135.5 296.215,-135.5"/>
<text text-anchor="middle" x="313.215" y="-142.1" font-family="Helvetica,sans-Serif" font-size="8.00">QCD</text>
</a>
</g>
</g>
<!-- Node8&#45;&gt;Node7 -->
<g id="edge9" class="edge"><title>Node8&#45;&gt;Node7</title>
<path fill="none" stroke="midnightblue" d="M311.847,-125.167C311.167,-117.155 310.266,-107.59 309.215,-99 308.462,-92.8348 307.38,-85.8822 306.531,-80.7189"/>
<polygon fill="midnightblue" stroke="midnightblue" points="308.363,-125.508 312.653,-135.195 315.34,-124.947 308.363,-125.508"/>
</g>
<!-- Node9 -->
<g id="node9" class="node"><title>Node9</title>
<g id="a_node9"><a xlink:href="../../d9/db9/class_c_k_m.html" target="_top" xlink:title="A class for the CKM matrix elements. ">
<polygon fill="none" stroke="red" points="348.215,-135.5 348.215,-152.5 382.215,-152.5 382.215,-135.5 348.215,-135.5"/>
<text text-anchor="middle" x="365.215" y="-142.1" font-family="Helvetica,sans-Serif" font-size="8.00">CKM</text>
</a>
</g>
</g>
<!-- Node9&#45;&gt;Node7 -->
<g id="edge11" class="edge"><title>Node9&#45;&gt;Node7</title>
<path fill="none" stroke="#9a32cd" stroke-dasharray="5,2" d="M351.983,-127.563C339.501,-113.001 321.315,-91.7829 311.713,-80.5807"/>
<polygon fill="#9a32cd" stroke="#9a32cd" points="349.4,-129.927 358.565,-135.241 354.714,-125.371 349.4,-129.927"/>
<text text-anchor="middle" x="358.715" y="-106.1" font-family="Helvetica,sans-Serif" font-size="8.00"> myCKM</text>
</g>
<!-- Node10 -->
<g id="node10" class="node"><title>Node10</title>
<g id="a_node10"><a xlink:href="../../d4/d6d/class_flavour.html" target="_top" xlink:title="The parent class in Flavour for calculating all the Wilson coefficients for various Flavor Violating ...">
<polygon fill="none" stroke="red" points="400.715,-135.5 400.715,-152.5 443.715,-152.5 443.715,-135.5 400.715,-135.5"/>
<text text-anchor="middle" x="422.215" y="-142.1" font-family="Helvetica,sans-Serif" font-size="8.00">Flavour</text>
</a>
</g>
</g>
<!-- Node10&#45;&gt;Node7 -->
<g id="edge13" class="edge"><title>Node10&#45;&gt;Node7</title>
<path fill="none" stroke="#9a32cd" stroke-dasharray="5,2" d="M409.955,-127.652C401.799,-118.292 390.38,-106.691 378.215,-99 365.252,-90.8042 349.358,-84.7519 335.714,-80.5593"/>
<polygon fill="#9a32cd" stroke="#9a32cd" points="407.36,-130.006 416.455,-135.441 412.734,-125.52 407.36,-130.006"/>
<text text-anchor="middle" x="420.215" y="-106.1" font-family="Helvetica,sans-Serif" font-size="8.00"> myFlavour</text>
</g>
</g>
</svg>
