<?xml version="1.0" encoding="UTF-8" standalone="no"?>
<!DOCTYPE svg PUBLIC "-//W3C//DTD SVG 1.1//EN"
 "http://www.w3.org/Graphics/SVG/1.1/DTD/svg11.dtd">
<!-- Generated by graphviz version 2.40.1 (20161225.0304)
 -->
<!-- Title: LEP2ThObservable Pages: 1 -->
<svg width="653pt" height="166pt"
 viewBox="0.00 0.00 653.00 166.00" xmlns="http://www.w3.org/2000/svg" xmlns:xlink="http://www.w3.org/1999/xlink">
<g id="graph0" class="graph" transform="scale(1 1) rotate(0) translate(4 162)">
<title>LEP2ThObservable</title>
<!-- Node13 -->
<g id="node1" class="node">
<title>Node13</title>
<polygon fill="#bfbfbf" stroke="#000000" points="547.5,-119.5 547.5,-136.5 633.5,-136.5 633.5,-119.5 547.5,-119.5"/>
<text text-anchor="middle" x="590.5" y="-126.1" font-family="Helvetica,sans-Serif" font-size="8.00" fill="#000000">LEP2ThObservable</text>
</g>
<!-- Node14 -->
<g id="node2" class="node">
<title>Node14</title>
<g id="a_node2"><a xlink:href="../../dc/d1f/class_th_observable.html" target="_top" xlink:title="A class for a model prediction of an observable. ">
<polygon fill="none" stroke="#000000" points="392,-140.5 392,-157.5 459,-157.5 459,-140.5 392,-140.5"/>
<text text-anchor="middle" x="425.5" y="-147.1" font-family="Helvetica,sans-Serif" font-size="8.00" fill="#000000">ThObservable</text>
</a>
</g>
</g>
<!-- Node14&#45;&gt;Node13 -->
<g id="edge1" class="edge">
<title>Node14&#45;&gt;Node13</title>
<path fill="none" stroke="#191970" d="M469.2527,-143.4315C493.4001,-140.3582 523.2778,-136.5556 547.3317,-133.4941"/>
<polygon fill="#191970" stroke="#191970" points="468.7664,-139.965 459.2884,-144.6997 469.6503,-146.909 468.7664,-139.965"/>
</g>
<!-- Node15 -->
<g id="node3" class="node">
<title>Node15</title>
<g id="a_node3"><a xlink:href="../../dc/dd5/class_standard_model.html" target="_top" xlink:title="A model class for the Standard Model. ">
<polygon fill="none" stroke="#ff0000" points="218,-56.5 218,-73.5 289,-73.5 289,-56.5 218,-56.5"/>
<text text-anchor="middle" x="253.5" y="-63.1" font-family="Helvetica,sans-Serif" font-size="8.00" fill="#000000">StandardModel</text>
</a>
</g>
</g>
<!-- Node15&#45;&gt;Node14 -->
<g id="edge2" class="edge">
<title>Node15&#45;&gt;Node14</title>
<path fill="none" stroke="#9a32cd" stroke-dasharray="5,2" d="M278.9271,-78.2067C305.2879,-91.7932 347.7742,-113.3976 385,-131 391.6777,-134.1576 399.0425,-137.4782 405.6399,-140.3956"/>
<polygon fill="#9a32cd" stroke="#9a32cd" points="280.4752,-75.067 269.9844,-73.5862 277.262,-81.286 280.4752,-75.067"/>
<text text-anchor="middle" x="337" y="-124.6" font-family="Helvetica,sans-Serif" font-size="8.00" fill="#000000"> SM</text>
</g>
<!-- Node20 -->
<g id="node6" class="node">
<title>Node20</title>
<g id="a_node6"><a xlink:href="../../dc/df3/class_e_w_s_mcache.html" target="_top" xlink:title="A class for cache variables used in computing radiative corrections to the EW precision observables...">
<polygon fill="none" stroke="#ff0000" points="394,-23.5 394,-40.5 457,-40.5 457,-23.5 394,-23.5"/>
<text text-anchor="middle" x="425.5" y="-30.1" font-family="Helvetica,sans-Serif" font-size="8.00" fill="#000000">EWSMcache</text>
</a>
</g>
</g>
<!-- Node15&#45;&gt;Node20 -->
<g id="edge6" class="edge">
<title>Node15&#45;&gt;Node20</title>
<path fill="none" stroke="#9a32cd" stroke-dasharray="5,2" d="M267.7303,-48.9993C277.6282,-39.1324 291.745,-27.3707 307,-22 336.9906,-11.4415 373.7812,-17.205 398.3377,-23.4739"/>
<polygon fill="#9a32cd" stroke="#9a32cd" points="265.1013,-46.6851 260.7558,-56.3477 270.1785,-51.504 265.1013,-46.6851"/>
<text text-anchor="middle" x="337" y="-24.6" font-family="Helvetica,sans-Serif" font-size="8.00" fill="#000000"> SM</text>
</g>
<!-- Node16 -->
<g id="node4" class="node">
<title>Node16</title>
<g id="a_node4"><a xlink:href="../../dd/dfa/class_q_c_d.html" target="_top" xlink:title="A class for parameters related to QCD, hadrons and quarks. ">
<polygon fill="none" stroke="#ff0000" points="55.5,-118.5 55.5,-135.5 89.5,-135.5 89.5,-118.5 55.5,-118.5"/>
<text text-anchor="middle" x="72.5" y="-125.1" font-family="Helvetica,sans-Serif" font-size="8.00" fill="#000000">QCD</text>
</a>
</g>
</g>
<!-- Node16&#45;&gt;Node15 -->
<g id="edge3" class="edge">
<title>Node16&#45;&gt;Node15</title>
<path fill="none" stroke="#191970" d="M99.4282,-121.0281C113.1616,-117.8026 130.0737,-113.5529 145,-109 169.8788,-101.4113 175.8958,-98.774 200,-89 211.8867,-84.1801 225.0327,-78.2908 235.3189,-73.5524"/>
<polygon fill="#191970" stroke="#191970" points="98.5914,-117.6292 89.6314,-123.2832 100.1617,-124.4508 98.5914,-117.6292"/>
</g>
<!-- Node19 -->
<g id="node5" class="node">
<title>Node19</title>
<g id="a_node5"><a xlink:href="../../db/d32/class_e_w_s_m_two_fermions_l_e_p2.html" target="_top" xlink:title="A class for the form factors , &#160;and &#160;in the processes &#160;at LEP&#45;II. ">
<polygon fill="none" stroke="#ff0000" points="536,-51.5 536,-68.5 645,-68.5 645,-51.5 536,-51.5"/>
<text text-anchor="middle" x="590.5" y="-58.1" font-family="Helvetica,sans-Serif" font-size="8.00" fill="#000000">EWSMTwoFermionsLEP2</text>
</a>
</g>
</g>
<!-- Node19&#45;&gt;Node15 -->
<g id="edge4" class="edge">
<title>Node19&#45;&gt;Node15</title>
<path fill="none" stroke="#9a32cd" stroke-dasharray="5,2" d="M525.6327,-60.9624C455.2511,-62.0067 345.4326,-63.636 289.2459,-64.4696"/>
<polygon fill="#9a32cd" stroke="#9a32cd" points="525.7727,-64.4608 535.7196,-60.8128 525.6687,-57.4616 525.7727,-64.4608"/>
<text text-anchor="middle" x="425.5" y="-65.6" font-family="Helvetica,sans-Serif" font-size="8.00" fill="#000000"> myTwoFermionsLEP2</text>
</g>
<!-- Node20&#45;&gt;Node15 -->
<g id="edge7" class="edge">
<title>Node20&#45;&gt;Node15</title>
<path fill="none" stroke="#9a32cd" stroke-dasharray="5,2" d="M383.7879,-39.5418C361.0654,-43.701 332.4653,-49.0187 307,-54 301.2302,-55.1286 295.1171,-56.3558 289.1655,-57.5676"/>
<polygon fill="#9a32cd" stroke="#9a32cd" points="384.573,-42.9564 393.782,-37.7176 383.316,-36.0702 384.573,-42.9564"/>
<text text-anchor="middle" x="337" y="-56.6" font-family="Helvetica,sans-Serif" font-size="8.00" fill="#000000"> myEWSMcache</text>
</g>
<!-- Node20&#45;&gt;Node19 -->
<g id="edge5" class="edge">
<title>Node20&#45;&gt;Node19</title>
<path fill="none" stroke="#9a32cd" stroke-dasharray="5,2" d="M467.4202,-39.1137C489.5945,-42.8766 516.9772,-47.5234 540.2804,-51.4779"/>
<polygon fill="#9a32cd" stroke="#9a32cd" points="467.7583,-35.6211 457.3137,-37.3987 466.5871,-42.5225 467.7583,-35.6211"/>
<text text-anchor="middle" x="501" y="-50.6" font-family="Helvetica,sans-Serif" font-size="8.00" fill="#000000"> cache</text>
</g>
<!-- Node26 -->
<g id="node7" class="node">
<title>Node26</title>
<g id="a_node7"><a xlink:href="../../d5/d76/class_matching.html" target="_top" xlink:title="Matching\&lt; StandardModelMatching,\l StandardModel \&gt;">
<polygon fill="none" stroke="#ff0000" points="0,-73 0,-99 145,-99 145,-73 0,-73"/>
<text text-anchor="start" x="8" y="-88.6" font-family="Helvetica,sans-Serif" font-size="8.00" fill="#000000">Matching&lt; StandardModelMatching,</text>
<text text-anchor="middle" x="72.5" y="-79.6" font-family="Helvetica,sans-Serif" font-size="8.00" fill="#000000"> StandardModel &gt;</text>
</a>
</g>
</g>
<!-- Node26&#45;&gt;Node15 -->
<g id="edge8" class="edge">
<title>Node26&#45;&gt;Node15</title>
<path fill="none" stroke="#9a32cd" stroke-dasharray="5,2" d="M155.1117,-76.4152C177.0894,-73.8653 199.6922,-71.2429 217.6828,-69.1556"/>
<polygon fill="#9a32cd" stroke="#9a32cd" points="154.6067,-72.9502 145.0767,-77.5795 155.4135,-79.9036 154.6067,-72.9502"/>
<text text-anchor="middle" x="181.5" y="-78.6" font-family="Helvetica,sans-Serif" font-size="8.00" fill="#000000"> SMM</text>
</g>
<!-- Node44 -->
<g id="node8" class="node">
<title>Node44</title>
<g id="a_node8"><a xlink:href="../../d9/db9/class_c_k_m.html" target="_top" xlink:title="A class for the CKM matrix elements. ">
<polygon fill="none" stroke="#ff0000" points="55.5,-36.5 55.5,-53.5 89.5,-53.5 89.5,-36.5 55.5,-36.5"/>
<text text-anchor="middle" x="72.5" y="-43.1" font-family="Helvetica,sans-Serif" font-size="8.00" fill="#000000">CKM</text>
</a>
</g>
</g>
<!-- Node44&#45;&gt;Node15 -->
<g id="edge9" class="edge">
<title>Node44&#45;&gt;Node15</title>
<path fill="none" stroke="#9a32cd" stroke-dasharray="5,2" d="M100.0715,-46.313C125.9554,-47.7464 165.7169,-50.4647 200,-55 205.8078,-55.7683 211.9405,-56.751 217.9,-57.7992"/>
<polygon fill="#9a32cd" stroke="#9a32cd" points="100.0549,-42.8073 89.8844,-45.7758 99.6862,-49.7976 100.0549,-42.8073"/>
<text text-anchor="middle" x="181.5" y="-57.6" font-family="Helvetica,sans-Serif" font-size="8.00" fill="#000000"> myCKM</text>
</g>
<!-- Node45 -->
<g id="node9" class="node">
<title>Node45</title>
<g id="a_node9"><a xlink:href="../../d5/d59/class_p_m_n_s.html" target="_top" xlink:title="A class for the PMNS matrix elements. ">
<polygon fill="none" stroke="#ff0000" points="52.5,-.5 52.5,-17.5 92.5,-17.5 92.5,-.5 52.5,-.5"/>
<text text-anchor="middle" x="72.5" y="-7.1" font-family="Helvetica,sans-Serif" font-size="8.00" fill="#000000">PMNS</text>
</a>
</g>
</g>
<!-- Node45&#45;&gt;Node15 -->
<g id="edge10" class="edge">
<title>Node45&#45;&gt;Node15</title>
<path fill="none" stroke="#9a32cd" stroke-dasharray="5,2" d="M102.8355,-14.1763C129.0145,-19.1041 167.6114,-27.4799 200,-39 213.2325,-43.7066 227.5046,-50.7503 237.9772,-56.3197"/>
<polygon fill="#9a32cd" stroke="#9a32cd" points="103.2372,-10.6918 92.7708,-12.3366 101.9785,-17.5777 103.2372,-10.6918"/>
<text text-anchor="middle" x="181.5" y="-41.6" font-family="Helvetica,sans-Serif" font-size="8.00" fill="#000000"> myPMNS</text>
</g>
<!-- Node58 -->
<g id="node10" class="node">
<title>Node58</title>
<g id="a_node10"><a xlink:href="../../dd/d89/class_l_e_p2test.html" target="_top" xlink:title="A test class for the LEP&#45;II observables. ">
<polygon fill="none" stroke="#000000" points="401,-104.5 401,-121.5 450,-121.5 450,-104.5 401,-104.5"/>
<text text-anchor="middle" x="425.5" y="-111.1" font-family="Helvetica,sans-Serif" font-size="8.00" fill="#000000">LEP2test</text>
</a>
</g>
</g>
<!-- Node58&#45;&gt;Node13 -->
<g id="edge11" class="edge">
<title>Node58&#45;&gt;Node13</title>
<path fill="none" stroke="#9a32cd" stroke-dasharray="5,2" d="M460.4779,-115.3622C477.7955,-116.6042 499.0101,-118.2343 518,-120 527.4566,-120.8793 537.595,-121.93 547.2039,-122.9763"/>
<polygon fill="#9a32cd" stroke="#9a32cd" points="460.4751,-111.8534 450.2536,-114.6413 459.9827,-118.8361 460.4751,-111.8534"/>
<text text-anchor="middle" x="501" y="-122.6" font-family="Helvetica,sans-Serif" font-size="8.00" fill="#000000"> myTEST</text>
</g>
</g>
</svg>
