<?xml version="1.0" encoding="UTF-8" standalone="no"?>
<!DOCTYPE svg PUBLIC "-//W3C//DTD SVG 1.1//EN"
 "http://www.w3.org/Graphics/SVG/1.1/DTD/svg11.dtd">
<!-- Generated by graphviz version 2.40.1 (20161225.0304)
 -->
<!-- Title: EvolDF1.h Pages: 1 -->
<svg width="339pt" height="242pt"
 viewBox="0.00 0.00 339.00 242.00" xmlns="http://www.w3.org/2000/svg" xmlns:xlink="http://www.w3.org/1999/xlink">
<g id="graph0" class="graph" transform="scale(1 1) rotate(0) translate(4 238)">
<title>EvolDF1.h</title>
<!-- Node51 -->
<g id="node1" class="node">
<title>Node51</title>
<polygon fill="#bfbfbf" stroke="#000000" points="140.5,-216.5 140.5,-233.5 194.5,-233.5 194.5,-216.5 140.5,-216.5"/>
<text text-anchor="middle" x="167.5" y="-223.1" font-family="Helvetica,sans-Serif" font-size="8.00" fill="#000000">EvolDF1.h</text>
</g>
<!-- Node52 -->
<g id="node2" class="node">
<title>Node52</title>
<g id="a_node2"><a xlink:href="../../d0/dc2/_heff_d_f1_8h.html" target="_top" xlink:title="HeffDF1.h">
<polygon fill="none" stroke="#000000" points="103,-162.5 103,-179.5 156,-179.5 156,-162.5 103,-162.5"/>
<text text-anchor="middle" x="129.5" y="-169.1" font-family="Helvetica,sans-Serif" font-size="8.00" fill="#000000">HeffDF1.h</text>
</a>
</g>
</g>
<!-- Node51&#45;&gt;Node52 -->
<g id="edge1" class="edge">
<title>Node51&#45;&gt;Node52</title>
<path fill="none" stroke="#191970" d="M155.4353,-207.8554C148.8553,-198.5048 140.989,-187.3265 135.6582,-179.7511"/>
<polygon fill="#191970" stroke="#191970" points="152.6078,-209.9192 161.2251,-216.083 158.3324,-205.8907 152.6078,-209.9192"/>
</g>
<!-- Node61 -->
<g id="node10" class="node">
<title>Node61</title>
<g id="a_node10"><a xlink:href="../../d6/db8/_evol_d_f1_8cpp.html" target="_top" xlink:title="EvolDF1.cpp">
<polygon fill="none" stroke="#000000" points="174.5,-162.5 174.5,-179.5 236.5,-179.5 236.5,-162.5 174.5,-162.5"/>
<text text-anchor="middle" x="205.5" y="-169.1" font-family="Helvetica,sans-Serif" font-size="8.00" fill="#000000">EvolDF1.cpp</text>
</a>
</g>
</g>
<!-- Node51&#45;&gt;Node61 -->
<g id="edge10" class="edge">
<title>Node51&#45;&gt;Node61</title>
<path fill="none" stroke="#191970" d="M179.5647,-207.8554C186.1447,-198.5048 194.011,-187.3265 199.3418,-179.7511"/>
<polygon fill="#191970" stroke="#191970" points="176.6676,-205.8907 173.7749,-216.083 182.3922,-209.9192 176.6676,-205.8907"/>
</g>
<!-- Node53 -->
<g id="node3" class="node">
<title>Node53</title>
<g id="a_node3"><a xlink:href="../../d6/d68/main__df1evol__test_8cpp.html" target="_top" xlink:title="main_df1evol_test.cpp">
<polygon fill="none" stroke="#000000" points="0,-54.5 0,-71.5 97,-71.5 97,-54.5 0,-54.5"/>
<text text-anchor="middle" x="48.5" y="-61.1" font-family="Helvetica,sans-Serif" font-size="8.00" fill="#000000">main_df1evol_test.cpp</text>
</a>
</g>
</g>
<!-- Node52&#45;&gt;Node53 -->
<g id="edge2" class="edge">
<title>Node52&#45;&gt;Node53</title>
<path fill="none" stroke="#191970" d="M116.6614,-153.8819C99.1293,-130.5058 68.3532,-89.4709 54.9938,-71.6584"/>
<polygon fill="#191970" stroke="#191970" points="114.0714,-156.2619 122.8714,-162.1619 119.6714,-152.0619 114.0714,-156.2619"/>
</g>
<!-- Node54 -->
<g id="node4" class="node">
<title>Node54</title>
<g id="a_node4"><a xlink:href="../../d3/d50/_b_xqll_8h.html" target="_top" xlink:title="BXqll.h">
<polygon fill="none" stroke="#000000" points="108.5,-108.5 108.5,-125.5 150.5,-125.5 150.5,-108.5 108.5,-108.5"/>
<text text-anchor="middle" x="129.5" y="-115.1" font-family="Helvetica,sans-Serif" font-size="8.00" fill="#000000">BXqll.h</text>
</a>
</g>
</g>
<!-- Node52&#45;&gt;Node54 -->
<g id="edge3" class="edge">
<title>Node52&#45;&gt;Node54</title>
<path fill="none" stroke="#191970" d="M129.5,-151.8045C129.5,-142.9102 129.5,-132.7798 129.5,-125.7511"/>
<polygon fill="#191970" stroke="#191970" points="126.0001,-152.083 129.5,-162.083 133.0001,-152.083 126.0001,-152.083"/>
</g>
<!-- Node60 -->
<g id="node9" class="node">
<title>Node60</title>
<g id="a_node9"><a xlink:href="../../d4/de3/_heff_d_f1_8cpp.html" target="_top" xlink:title="HeffDF1.cpp">
<polygon fill="none" stroke="#000000" points="169,-108.5 169,-125.5 230,-125.5 230,-108.5 169,-108.5"/>
<text text-anchor="middle" x="199.5" y="-115.1" font-family="Helvetica,sans-Serif" font-size="8.00" fill="#000000">HeffDF1.cpp</text>
</a>
</g>
</g>
<!-- Node52&#45;&gt;Node60 -->
<g id="edge9" class="edge">
<title>Node52&#45;&gt;Node60</title>
<path fill="none" stroke="#191970" d="M148.8138,-156.1008C161.4117,-146.3824 177.4281,-134.0269 188.0487,-125.8339"/>
<polygon fill="#191970" stroke="#191970" points="146.5267,-153.4446 140.7467,-162.324 150.8024,-158.9871 146.5267,-153.4446"/>
</g>
<!-- Node54&#45;&gt;Node53 -->
<g id="edge4" class="edge">
<title>Node54&#45;&gt;Node53</title>
<path fill="none" stroke="#191970" d="M107.9332,-102.6221C93.136,-92.7574 73.9878,-79.9919 61.4818,-71.6545"/>
<polygon fill="#191970" stroke="#191970" points="106.224,-105.6891 116.4859,-108.324 110.1069,-99.8647 106.224,-105.6891"/>
</g>
<!-- Node55 -->
<g id="node5" class="node">
<title>Node55</title>
<g id="a_node5"><a xlink:href="../../d1/d4f/_b_xqll_8cpp.html" target="_top" xlink:title="BXqll.cpp">
<polygon fill="none" stroke="#000000" points="115.5,-54.5 115.5,-71.5 165.5,-71.5 165.5,-54.5 115.5,-54.5"/>
<text text-anchor="middle" x="140.5" y="-61.1" font-family="Helvetica,sans-Serif" font-size="8.00" fill="#000000">BXqll.cpp</text>
</a>
</g>
</g>
<!-- Node54&#45;&gt;Node55 -->
<g id="edge5" class="edge">
<title>Node54&#45;&gt;Node55</title>
<path fill="none" stroke="#191970" d="M133.3499,-98.1005C135.1761,-89.1357 137.2697,-78.8579 138.7174,-71.7511"/>
<polygon fill="#191970" stroke="#191970" points="129.883,-97.5856 131.3164,-108.083 136.7421,-98.9829 129.883,-97.5856"/>
</g>
<!-- Node56 -->
<g id="node6" class="node">
<title>Node56</title>
<g id="a_node6"><a xlink:href="../../d6/d3f/_b_xqll_observables_8h.html" target="_top" xlink:title="BXqllObservables.h">
<polygon fill="none" stroke="#000000" points="184,-54.5 184,-71.5 271,-71.5 271,-54.5 184,-54.5"/>
<text text-anchor="middle" x="227.5" y="-61.1" font-family="Helvetica,sans-Serif" font-size="8.00" fill="#000000">BXqllObservables.h</text>
</a>
</g>
</g>
<!-- Node54&#45;&gt;Node56 -->
<g id="edge6" class="edge">
<title>Node54&#45;&gt;Node56</title>
<path fill="none" stroke="#191970" d="M154.0861,-103.4526C172.1781,-93.4835 196.2346,-80.2279 211.7937,-71.6545"/>
<polygon fill="#191970" stroke="#191970" points="152.3147,-100.4324 145.2454,-108.324 155.6929,-106.5633 152.3147,-100.4324"/>
</g>
<!-- Node57 -->
<g id="node7" class="node">
<title>Node57</title>
<g id="a_node7"><a xlink:href="../../db/dfb/_b_xqll_observables_8cpp.html" target="_top" xlink:title="BXqllObservables.cpp">
<polygon fill="none" stroke="#000000" points="123,-.5 123,-17.5 218,-17.5 218,-.5 123,-.5"/>
<text text-anchor="middle" x="170.5" y="-7.1" font-family="Helvetica,sans-Serif" font-size="8.00" fill="#000000">BXqllObservables.cpp</text>
</a>
</g>
</g>
<!-- Node56&#45;&gt;Node57 -->
<g id="edge7" class="edge">
<title>Node56&#45;&gt;Node57</title>
<path fill="none" stroke="#191970" d="M210.8785,-47.2533C200.766,-37.6731 188.2234,-25.7906 179.8247,-17.8339"/>
<polygon fill="#191970" stroke="#191970" points="208.6753,-49.9873 218.342,-54.324 213.4895,-44.9056 208.6753,-49.9873"/>
</g>
<!-- Node58 -->
<g id="node8" class="node">
<title>Node58</title>
<g id="a_node8"><a xlink:href="../../df/d7a/_flavour_observables_8h.html" target="_top" xlink:title="FlavourObservables.h">
<polygon fill="none" stroke="#ff0000" points="236,-.5 236,-17.5 331,-17.5 331,-.5 236,-.5"/>
<text text-anchor="middle" x="283.5" y="-7.1" font-family="Helvetica,sans-Serif" font-size="8.00" fill="#000000">FlavourObservables.h</text>
</a>
</g>
</g>
<!-- Node56&#45;&gt;Node58 -->
<g id="edge8" class="edge">
<title>Node56&#45;&gt;Node58</title>
<path fill="none" stroke="#191970" d="M243.8299,-47.2533C253.765,-37.6731 266.0875,-25.7906 274.3389,-17.8339"/>
<polygon fill="#191970" stroke="#191970" points="241.2664,-44.8631 236.4974,-54.324 246.1253,-49.902 241.2664,-44.8631"/>
</g>
</g>
</svg>
