<?xml version="1.0" encoding="UTF-8" standalone="no"?>
<!DOCTYPE svg PUBLIC "-//W3C//DTD SVG 1.1//EN"
 "http://www.w3.org/Graphics/SVG/1.1/DTD/svg11.dtd">
<!-- Generated by graphviz version 2.38.0 (20140413.2041)
 -->
<!-- Title: NPEffectiveBS Pages: 1 -->
<svg width="367pt" height="215pt"
 viewBox="0.00 0.00 366.50 215.00" xmlns="http://www.w3.org/2000/svg" xmlns:xlink="http://www.w3.org/1999/xlink">
<g id="graph0" class="graph" transform="scale(1 1) rotate(0) translate(4 211)">
<title>NPEffectiveBS</title>
<!-- Node1 -->
<g id="node1" class="node"><title>Node1</title>
<polygon fill="#bfbfbf" stroke="black" points="0,-0.5 0,-17.5 69,-17.5 69,-0.5 0,-0.5"/>
<text text-anchor="middle" x="34.5" y="-7.1" font-family="Helvetica,sans-Serif" font-size="8.00">NPEffectiveBS</text>
</g>
<!-- Node2 -->
<g id="node2" class="node"><title>Node2</title>
<g id="a_node2"><a xlink:href="../../d2/df3/class_n_pbase.html" target="_top" xlink:title="The auxiliary base model class for other model classes. ">
<polygon fill="none" stroke="black" points="12,-63.5 12,-80.5 57,-80.5 57,-63.5 12,-63.5"/>
<text text-anchor="middle" x="34.5" y="-70.1" font-family="Helvetica,sans-Serif" font-size="8.00">NPbase</text>
</a>
</g>
</g>
<!-- Node2&#45;&gt;Node1 -->
<g id="edge1" class="edge"><title>Node2&#45;&gt;Node1</title>
<path fill="none" stroke="midnightblue" d="M34.5,-53.2698C34.5,-41.5485 34.5,-26.7567 34.5,-17.8556"/>
<polygon fill="midnightblue" stroke="midnightblue" points="31.0001,-53.2743 34.5,-63.2743 38.0001,-53.2743 31.0001,-53.2743"/>
</g>
<!-- Node3 -->
<g id="node3" class="node"><title>Node3</title>
<g id="a_node3"><a xlink:href="../../dc/dd5/class_standard_model.html" target="_top" xlink:title="A model class for the Standard Model. ">
<polygon fill="none" stroke="red" points="91,-126.5 91,-143.5 162,-143.5 162,-126.5 91,-126.5"/>
<text text-anchor="middle" x="126.5" y="-133.1" font-family="Helvetica,sans-Serif" font-size="8.00">StandardModel</text>
</a>
</g>
</g>
<!-- Node3&#45;&gt;Node2 -->
<g id="edge2" class="edge"><title>Node3&#45;&gt;Node2</title>
<path fill="none" stroke="midnightblue" d="M80.8236,-130.203C65.5947,-126.641 49.8818,-120.051 39.5,-108 33.0097,-100.467 32.7315,-88.4518 33.4021,-80.6442"/>
<polygon fill="midnightblue" stroke="midnightblue" points="80.2147,-133.65 90.7004,-132.134 81.5576,-126.78 80.2147,-133.65"/>
</g>
<!-- Node3&#45;&gt;Node2 -->
<g id="edge13" class="edge"><title>Node3&#45;&gt;Node2</title>
<path fill="none" stroke="#9a32cd" stroke-dasharray="5,2" d="M87.0924,-123.061C77.4777,-119.259 67.6296,-114.314 59.5,-108 49.9461,-100.58 42.4726,-88.5349 38.2723,-80.69"/>
<polygon fill="#9a32cd" stroke="#9a32cd" points="85.9628,-126.374 96.557,-126.491 88.3477,-119.793 85.9628,-126.374"/>
<text text-anchor="middle" x="74" y="-101.6" font-family="Helvetica,sans-Serif" font-size="8.00"> trueSM</text>
</g>
<!-- Node5 -->
<g id="node5" class="node"><title>Node5</title>
<g id="a_node5"><a xlink:href="../../dc/df3/class_e_w_s_mcache.html" target="_top" xlink:title="A class for cache variables used in computing radiative corrections to the EW precision observables...">
<polygon fill="none" stroke="red" points="213,-63.5 213,-80.5 276,-80.5 276,-63.5 213,-63.5"/>
<text text-anchor="middle" x="244.5" y="-70.1" font-family="Helvetica,sans-Serif" font-size="8.00">EWSMcache</text>
</a>
</g>
</g>
<!-- Node3&#45;&gt;Node5 -->
<g id="edge5" class="edge"><title>Node3&#45;&gt;Node5</title>
<path fill="none" stroke="#9a32cd" stroke-dasharray="5,2" d="M138.033,-118.511C143.813,-111.686 151.319,-104.081 159.5,-99 175.755,-88.9033 196.206,-82.4877 212.974,-78.556"/>
<polygon fill="#9a32cd" stroke="#9a32cd" points="135.18,-116.476 131.715,-126.488 140.667,-120.822 135.18,-116.476"/>
<text text-anchor="middle" x="167" y="-101.6" font-family="Helvetica,sans-Serif" font-size="8.00"> SM</text>
</g>
<!-- Node4 -->
<g id="node4" class="node"><title>Node4</title>
<g id="a_node4"><a xlink:href="../../dd/dfa/class_q_c_d.html" target="_top" xlink:title="A class for parameters related to QCD, hadrons and quarks. ">
<polygon fill="none" stroke="red" points="30.5,-189.5 30.5,-206.5 64.5,-206.5 64.5,-189.5 30.5,-189.5"/>
<text text-anchor="middle" x="47.5" y="-196.1" font-family="Helvetica,sans-Serif" font-size="8.00">QCD</text>
</a>
</g>
</g>
<!-- Node4&#45;&gt;Node3 -->
<g id="edge3" class="edge"><title>Node4&#45;&gt;Node3</title>
<path fill="none" stroke="midnightblue" d="M65.5161,-183.089C81.347,-170.865 103.795,-153.532 116.576,-143.663"/>
<polygon fill="midnightblue" stroke="midnightblue" points="63.2814,-180.392 57.5054,-189.274 67.5596,-185.933 63.2814,-180.392"/>
</g>
<!-- Node5&#45;&gt;Node3 -->
<g id="edge4" class="edge"><title>Node5&#45;&gt;Node3</title>
<path fill="none" stroke="#9a32cd" stroke-dasharray="5,2" d="M220.637,-85.3361C196.955,-97.5781 161.394,-115.962 141.445,-126.274"/>
<polygon fill="#9a32cd" stroke="#9a32cd" points="222.401,-88.3643 229.677,-80.663 219.186,-82.1461 222.401,-88.3643"/>
<text text-anchor="middle" x="223.5" y="-101.6" font-family="Helvetica,sans-Serif" font-size="8.00"> myEWSMcache</text>
</g>
<!-- Node7 -->
<g id="node7" class="node"><title>Node7</title>
<g id="a_node7"><a xlink:href="../../d5/dad/class_e_w_s_m_three_loop_e_w.html" target="_top" xlink:title="A class for &#160;three&#45;loop corrections to the EW precision observables. ">
<polygon fill="none" stroke="black" points="252,-0.5 252,-17.5 345,-17.5 345,-0.5 252,-0.5"/>
<text text-anchor="middle" x="298.5" y="-7.1" font-family="Helvetica,sans-Serif" font-size="8.00">EWSMThreeLoopEW</text>
</a>
</g>
</g>
<!-- Node5&#45;&gt;Node7 -->
<g id="edge8" class="edge"><title>Node5&#45;&gt;Node7</title>
<path fill="none" stroke="#9a32cd" stroke-dasharray="5,2" d="M257.337,-55.7775C262.605,-49.5957 268.795,-42.4131 274.5,-36 280.053,-29.7579 286.479,-22.8101 291.284,-17.6682"/>
<polygon fill="#9a32cd" stroke="#9a32cd" points="254.655,-53.5294 250.858,-63.4207 259.994,-58.0558 254.655,-53.5294"/>
<text text-anchor="middle" x="286.5" y="-38.6" font-family="Helvetica,sans-Serif" font-size="8.00"> cache</text>
</g>
<!-- Node9 -->
<g id="node9" class="node"><title>Node9</title>
<g id="a_node9"><a xlink:href="../../d5/dde/class_e_w_s_m_approximate_formulae.html" target="_top" xlink:title="A class for approximate formulae of the EW precision observables. ">
<polygon fill="none" stroke="black" points="100.5,-0.5 100.5,-17.5 220.5,-17.5 220.5,-0.5 100.5,-0.5"/>
<text text-anchor="middle" x="160.5" y="-7.1" font-family="Helvetica,sans-Serif" font-size="8.00">EWSMApproximateFormulae</text>
</a>
</g>
</g>
<!-- Node5&#45;&gt;Node9 -->
<g id="edge11" class="edge"><title>Node5&#45;&gt;Node9</title>
<path fill="none" stroke="#9a32cd" stroke-dasharray="5,2" d="M225.344,-57.0888C208.511,-44.865 184.642,-27.5317 171.052,-17.663"/>
<polygon fill="#9a32cd" stroke="#9a32cd" points="223.713,-60.2303 233.861,-63.2743 227.826,-54.5662 223.713,-60.2303"/>
<text text-anchor="middle" x="226" y="-38.6" font-family="Helvetica,sans-Serif" font-size="8.00"> mycache</text>
</g>
<!-- Node6 -->
<g id="node6" class="node"><title>Node6</title>
<g id="a_node6"><a xlink:href="../../d9/db9/class_c_k_m.html" target="_top" xlink:title="A class for the CKM matrix elements. ">
<polygon fill="none" stroke="red" points="82.5,-189.5 82.5,-206.5 116.5,-206.5 116.5,-189.5 82.5,-189.5"/>
<text text-anchor="middle" x="99.5" y="-196.1" font-family="Helvetica,sans-Serif" font-size="8.00">CKM</text>
</a>
</g>
</g>
<!-- Node6&#45;&gt;Node3 -->
<g id="edge6" class="edge"><title>Node6&#45;&gt;Node3</title>
<path fill="none" stroke="#9a32cd" stroke-dasharray="5,2" d="M98.7786,-179.402C99.1184,-173.654 100.13,-167.372 102.5,-162 105.674,-154.806 111.674,-148.306 116.88,-143.604"/>
<polygon fill="#9a32cd" stroke="#9a32cd" points="95.2787,-179.413 98.7725,-189.416 102.279,-179.418 95.2787,-179.413"/>
<text text-anchor="middle" x="118" y="-164.6" font-family="Helvetica,sans-Serif" font-size="8.00"> myCKM</text>
</g>
<!-- Node7&#45;&gt;Node3 -->
<g id="edge7" class="edge"><title>Node7&#45;&gt;Node3</title>
<path fill="none" stroke="#9a32cd" stroke-dasharray="5,2" d="M299.768,-27.811C299.825,-33.3576 299.538,-39.4682 298.5,-45 292.34,-77.8345 286.966,-92.2581 257.5,-108 227.744,-123.897 189.495,-130.122 162.019,-132.535"/>
<polygon fill="#9a32cd" stroke="#9a32cd" points="303.254,-27.4141 299.3,-17.5846 296.261,-27.7341 303.254,-27.4141"/>
<text text-anchor="middle" x="326" y="-70.1" font-family="Helvetica,sans-Serif" font-size="8.00"> myThreeLoopEW</text>
</g>
<!-- Node8 -->
<g id="node8" class="node"><title>Node8</title>
<g id="a_node8"><a xlink:href="../../d4/d6d/class_flavour.html" target="_top" xlink:title="The parent class in Flavour for calculating all the Wilson coefficients for various Flavor Violating ...">
<polygon fill="none" stroke="red" points="135,-189.5 135,-206.5 178,-206.5 178,-189.5 135,-189.5"/>
<text text-anchor="middle" x="156.5" y="-196.1" font-family="Helvetica,sans-Serif" font-size="8.00">Flavour</text>
</a>
</g>
</g>
<!-- Node8&#45;&gt;Node3 -->
<g id="edge9" class="edge"><title>Node8&#45;&gt;Node3</title>
<path fill="none" stroke="#9a32cd" stroke-dasharray="5,2" d="M148.135,-179.991C142.317,-168.161 134.831,-152.94 130.363,-143.856"/>
<polygon fill="#9a32cd" stroke="#9a32cd" points="145.147,-181.845 152.7,-189.274 151.428,-178.756 145.147,-181.845"/>
<text text-anchor="middle" x="163.5" y="-164.6" font-family="Helvetica,sans-Serif" font-size="8.00"> myFlavour</text>
</g>
<!-- Node9&#45;&gt;Node3 -->
<g id="edge10" class="edge"><title>Node9&#45;&gt;Node3</title>
<path fill="none" stroke="#9a32cd" stroke-dasharray="5,2" d="M141.861,-24.0111C130.735,-33.6007 117.615,-47.3779 111.5,-63 102.867,-85.0556 115.003,-113.008 122.06,-126.301"/>
<polygon fill="#9a32cd" stroke="#9a32cd" points="144.278,-26.5563 149.831,-17.5329 139.863,-21.1242 144.278,-26.5563"/>
<text text-anchor="middle" x="157.5" y="-70.1" font-family="Helvetica,sans-Serif" font-size="8.00"> myApproximateFormulae</text>
</g>
<!-- Node10 -->
<g id="node10" class="node"><title>Node10</title>
<g id="a_node10"><a xlink:href="../../de/d85/class_particle.html" target="_top" xlink:title="A class for particles. ">
<polygon fill="none" stroke="black" points="197,-189.5 197,-206.5 240,-206.5 240,-189.5 197,-189.5"/>
<text text-anchor="middle" x="218.5" y="-196.1" font-family="Helvetica,sans-Serif" font-size="8.00">Particle</text>
</a>
</g>
</g>
<!-- Node10&#45;&gt;Node3 -->
<g id="edge12" class="edge"><title>Node10&#45;&gt;Node3</title>
<path fill="none" stroke="#9a32cd" stroke-dasharray="5,2" d="M207.02,-181.17C201.655,-174.596 194.835,-167.285 187.5,-162 176.479,-154.058 162.658,-147.914 150.959,-143.597"/>
<polygon fill="#9a32cd" stroke="#9a32cd" points="204.483,-183.613 213.346,-189.418 210.037,-179.353 204.483,-183.613"/>
<text text-anchor="middle" x="212" y="-164.6" font-family="Helvetica,sans-Serif" font-size="8.00"> leptons</text>
</g>
</g>
</svg>
