<?xml version="1.0" encoding="UTF-8" standalone="no"?>
<!DOCTYPE svg PUBLIC "-//W3C//DTD SVG 1.1//EN"
 "http://www.w3.org/Graphics/SVG/1.1/DTD/svg11.dtd">
<!-- Generated by graphviz version 2.40.1 (20161225.0304)
 -->
<!-- Title: GeneralTHDMEWPO.h Pages: 1 -->
<svg width="356pt" height="242pt"
 viewBox="0.00 0.00 355.78 242.00" xmlns="http://www.w3.org/2000/svg" xmlns:xlink="http://www.w3.org/1999/xlink">
<g id="graph0" class="graph" transform="scale(1 1) rotate(0) translate(4 238)">
<title>GeneralTHDMEWPO.h</title>
<!-- Node0 -->
<g id="node1" class="node">
<title>Node0</title>
<polygon fill="#bfbfbf" stroke="#000000" points="98.5,-216.5 98.5,-233.5 197.5,-233.5 197.5,-216.5 98.5,-216.5"/>
<text text-anchor="middle" x="148" y="-223.1" font-family="Helvetica,sans-Serif" font-size="8.00" fill="#000000">GeneralTHDMEWPO.h</text>
</g>
<!-- Node1 -->
<g id="node2" class="node">
<title>Node1</title>
<g id="a_node2"><a xlink:href="../../dd/dcd/_th_observable_8h.html" target="_top" xlink:title="ThObservable.h">
<polygon fill="none" stroke="#000000" points="27.5,-162.5 27.5,-179.5 100.5,-179.5 100.5,-162.5 27.5,-162.5"/>
<text text-anchor="middle" x="64" y="-169.1" font-family="Helvetica,sans-Serif" font-size="8.00" fill="#000000">ThObservable.h</text>
</a>
</g>
</g>
<!-- Node0&#45;&gt;Node1 -->
<g id="edge1" class="edge">
<title>Node0&#45;&gt;Node1</title>
<path fill="none" stroke="#191970" d="M134.5039,-216.324C121.4004,-207.9002 101.2881,-194.9709 85.8931,-185.0741"/>
<polygon fill="#191970" stroke="#191970" points="87.767,-182.118 77.4626,-179.6545 83.9817,-188.0063 87.767,-182.118"/>
</g>
<!-- Node4 -->
<g id="node5" class="node">
<title>Node4</title>
<g id="a_node5"><a xlink:href="../../d0/d9a/_general_t_h_d_m_8h.html" target="_top" xlink:title="GeneralTHDM.h">
<polygon fill="none" stroke="#000000" points="189.5,-108.5 189.5,-125.5 264.5,-125.5 264.5,-108.5 189.5,-108.5"/>
<text text-anchor="middle" x="227" y="-115.1" font-family="Helvetica,sans-Serif" font-size="8.00" fill="#000000">GeneralTHDM.h</text>
</a>
</g>
</g>
<!-- Node0&#45;&gt;Node4 -->
<g id="edge4" class="edge">
<title>Node0&#45;&gt;Node4</title>
<path fill="none" stroke="#191970" d="M152.6477,-216.094C159.3452,-203.5639 172.4069,-180.2252 186,-162 193.6615,-151.7277 203.263,-141.0912 211.2481,-132.7399"/>
<polygon fill="#191970" stroke="#191970" points="213.8143,-135.1216 218.2925,-125.5197 208.8039,-130.2332 213.8143,-135.1216"/>
</g>
<!-- Node5 -->
<g id="node6" class="node">
<title>Node5</title>
<g id="a_node6"><a xlink:href="../../d6/d0a/_standard_model_8h.html" target="_top" xlink:title="StandardModel.h">
<polygon fill="none" stroke="#ff0000" points="270.5,-.5 270.5,-17.5 347.5,-17.5 347.5,-.5 270.5,-.5"/>
<text text-anchor="middle" x="309" y="-7.1" font-family="Helvetica,sans-Serif" font-size="8.00" fill="#000000">StandardModel.h</text>
</a>
</g>
</g>
<!-- Node0&#45;&gt;Node5 -->
<g id="edge12" class="edge">
<title>Node0&#45;&gt;Node5</title>
<path fill="none" stroke="#191970" d="M144.7647,-216.4108C135.159,-189.3015 109.7755,-104.3734 148,-54 161.6143,-36.0586 217.8971,-23.3317 260.1078,-16.091"/>
<polygon fill="#191970" stroke="#191970" points="260.9377,-19.5012 270.2301,-14.412 259.7922,-12.5956 260.9377,-19.5012"/>
</g>
<!-- Node55 -->
<g id="node9" class="node">
<title>Node55</title>
<g id="a_node9"><a xlink:href="../../d1/dc7/_general_t_h_d_mcache_8h.html" target="_top" xlink:title="GeneralTHDMcache.h">
<polygon fill="none" stroke="#ff0000" points="195,-162.5 195,-179.5 291,-179.5 291,-162.5 195,-162.5"/>
<text text-anchor="middle" x="243" y="-169.1" font-family="Helvetica,sans-Serif" font-size="8.00" fill="#000000">GeneralTHDMcache.h</text>
</a>
</g>
</g>
<!-- Node0&#45;&gt;Node55 -->
<g id="edge9" class="edge">
<title>Node0&#45;&gt;Node55</title>
<path fill="none" stroke="#191970" d="M163.2634,-216.324C178.2214,-207.8215 201.2548,-194.7288 218.7267,-184.7975"/>
<polygon fill="#191970" stroke="#191970" points="220.8104,-187.639 227.7745,-179.6545 217.3512,-181.5534 220.8104,-187.639"/>
</g>
<!-- Node2 -->
<g id="node3" class="node">
<title>Node2</title>
<polygon fill="none" stroke="#bfbfbf" points="54,-108.5 54,-125.5 92,-125.5 92,-108.5 54,-108.5"/>
<text text-anchor="middle" x="73" y="-115.1" font-family="Helvetica,sans-Serif" font-size="8.00" fill="#000000">vector</text>
</g>
<!-- Node1&#45;&gt;Node2 -->
<g id="edge2" class="edge">
<title>Node1&#45;&gt;Node2</title>
<path fill="none" stroke="#191970" d="M65.4862,-162.083C66.6788,-154.9272 68.3941,-144.6353 69.8848,-135.6911"/>
<polygon fill="#191970" stroke="#191970" points="73.3498,-136.1904 71.5415,-125.7511 66.445,-135.0396 73.3498,-136.1904"/>
</g>
<!-- Node3 -->
<g id="node4" class="node">
<title>Node3</title>
<polygon fill="none" stroke="#bfbfbf" points="0,-108.5 0,-125.5 36,-125.5 36,-108.5 0,-108.5"/>
<text text-anchor="middle" x="18" y="-115.1" font-family="Helvetica,sans-Serif" font-size="8.00" fill="#000000">string</text>
</g>
<!-- Node1&#45;&gt;Node3 -->
<g id="edge3" class="edge">
<title>Node1&#45;&gt;Node3</title>
<path fill="none" stroke="#191970" d="M56.404,-162.083C49.7725,-154.2982 39.979,-142.8015 31.9419,-133.3665"/>
<polygon fill="#191970" stroke="#191970" points="34.6037,-131.0939 25.4546,-125.7511 29.275,-135.6332 34.6037,-131.0939"/>
</g>
<!-- Node4&#45;&gt;Node5 -->
<g id="edge5" class="edge">
<title>Node4&#45;&gt;Node5</title>
<path fill="none" stroke="#191970" d="M261.031,-108.496C291.9801,-99.9921 334.2665,-86.1723 344,-72 354.5401,-56.6533 341.0033,-37.863 327.8175,-24.8169"/>
<polygon fill="#191970" stroke="#191970" points="330.0044,-22.0726 320.2792,-17.8688 325.2602,-27.2198 330.0044,-22.0726"/>
</g>
<!-- Node51 -->
<g id="node7" class="node">
<title>Node51</title>
<g id="a_node7"><a xlink:href="../../d4/dbe/_general_t_h_d_m_matching_8h.html" target="_top" xlink:title="GeneralTHDMMatching.h">
<polygon fill="none" stroke="#ff0000" points="157.5,-54.5 157.5,-71.5 264.5,-71.5 264.5,-54.5 157.5,-54.5"/>
<text text-anchor="middle" x="211" y="-61.1" font-family="Helvetica,sans-Serif" font-size="8.00" fill="#000000">GeneralTHDMMatching.h</text>
</a>
</g>
</g>
<!-- Node4&#45;&gt;Node51 -->
<g id="edge6" class="edge">
<title>Node4&#45;&gt;Node51</title>
<path fill="none" stroke="#191970" d="M224.3579,-108.083C222.2144,-100.8486 219.1211,-90.4087 216.4509,-81.3968"/>
<polygon fill="#191970" stroke="#191970" points="219.7897,-80.3447 213.5929,-71.7511 213.0781,-82.3334 219.7897,-80.3447"/>
</g>
<!-- Node54 -->
<g id="node8" class="node">
<title>Node54</title>
<g id="a_node8"><a xlink:href="../../d2/de8/_n_pbase_8h.html" target="_top" xlink:title="NPbase.h">
<polygon fill="none" stroke="#000000" points="283,-54.5 283,-71.5 335,-71.5 335,-54.5 283,-54.5"/>
<text text-anchor="middle" x="309" y="-61.1" font-family="Helvetica,sans-Serif" font-size="8.00" fill="#000000">NPbase.h</text>
</a>
</g>
</g>
<!-- Node4&#45;&gt;Node54 -->
<g id="edge7" class="edge">
<title>Node4&#45;&gt;Node54</title>
<path fill="none" stroke="#191970" d="M240.1747,-108.324C252.8468,-99.979 272.2334,-87.2122 287.2056,-77.3524"/>
<polygon fill="#191970" stroke="#191970" points="289.4312,-80.0776 295.858,-71.6545 285.5813,-74.2313 289.4312,-80.0776"/>
</g>
<!-- Node54&#45;&gt;Node5 -->
<g id="edge8" class="edge">
<title>Node54&#45;&gt;Node5</title>
<path fill="none" stroke="#191970" d="M309,-54.083C309,-47.0059 309,-36.8611 309,-27.9865"/>
<polygon fill="#191970" stroke="#191970" points="312.5001,-27.751 309,-17.7511 305.5001,-27.7511 312.5001,-27.751"/>
</g>
<!-- Node55&#45;&gt;Node4 -->
<g id="edge11" class="edge">
<title>Node55&#45;&gt;Node4</title>
<path fill="none" stroke="#191970" d="M240.3579,-162.083C238.2144,-154.8486 235.1211,-144.4087 232.4509,-135.3968"/>
<polygon fill="#191970" stroke="#191970" points="235.7897,-134.3447 229.5929,-125.7511 229.0781,-136.3334 235.7897,-134.3447"/>
</g>
<!-- Node48 -->
<g id="node10" class="node">
<title>Node48</title>
<polygon fill="none" stroke="#bfbfbf" points="283,-108.5 283,-125.5 321,-125.5 321,-108.5 283,-108.5"/>
<text text-anchor="middle" x="302" y="-115.1" font-family="Helvetica,sans-Serif" font-size="8.00" fill="#000000">cmath</text>
</g>
<!-- Node55&#45;&gt;Node48 -->
<g id="edge10" class="edge">
<title>Node55&#45;&gt;Node48</title>
<path fill="none" stroke="#191970" d="M252.4794,-162.324C261.2011,-154.3414 274.3435,-142.3128 284.8978,-132.6529"/>
<polygon fill="#191970" stroke="#191970" points="287.3345,-135.1674 292.3481,-125.8339 282.6083,-130.0036 287.3345,-135.1674"/>
</g>
</g>
</svg>
