<?xml version="1.0" encoding="UTF-8" standalone="no"?>
<!DOCTYPE svg PUBLIC "-//W3C//DTD SVG 1.1//EN"
 "http://www.w3.org/Graphics/SVG/1.1/DTD/svg11.dtd">
<!-- Generated by graphviz version 2.40.1 (20161225.0304)
 -->
<!-- Title: GeneralTHDMMatching Pages: 1 -->
<svg width="673pt" height="568pt"
 viewBox="0.00 0.00 673.00 568.00" xmlns="http://www.w3.org/2000/svg" xmlns:xlink="http://www.w3.org/1999/xlink">
<g id="graph0" class="graph" transform="scale(1 1) rotate(0) translate(4 564)">
<title>GeneralTHDMMatching</title>
<!-- Node3 -->
<g id="node1" class="node">
<title>Node3</title>
<polygon fill="#bfbfbf" stroke="#000000" points="564,-96.5 564,-113.5 665,-113.5 665,-96.5 564,-96.5"/>
<text text-anchor="middle" x="614.5" y="-103.1" font-family="Helvetica,sans-Serif" font-size="8.00" fill="#000000">GeneralTHDMMatching</text>
</g>
<!-- Node4 -->
<g id="node2" class="node">
<title>Node4</title>
<g id="a_node2"><a xlink:href="../../d6/d2e/class_standard_model_matching.html" target="_top" xlink:title="A class for the matching in the Standard Model. ">
<polygon fill="none" stroke="#000000" points="382,-291.5 382,-308.5 485,-308.5 485,-291.5 382,-291.5"/>
<text text-anchor="middle" x="433.5" y="-298.1" font-family="Helvetica,sans-Serif" font-size="8.00" fill="#000000">StandardModelMatching</text>
</a>
</g>
</g>
<!-- Node4&#45;&gt;Node3 -->
<g id="edge1" class="edge">
<title>Node4&#45;&gt;Node3</title>
<path fill="none" stroke="#191970" d="M448.4331,-283.9119C485.1286,-244.3781 578.7507,-143.5145 606.5816,-113.5308"/>
<polygon fill="#191970" stroke="#191970" points="445.7487,-281.6591 441.5109,-291.3695 450.8792,-286.4213 445.7487,-281.6591"/>
</g>
<!-- Node5 -->
<g id="node3" class="node">
<title>Node5</title>
<g id="a_node3"><a xlink:href="../../d0/d2a/class_model_matching.html" target="_top" xlink:title="A class for a template of model matching. ">
<polygon fill="none" stroke="#000000" points="195.5,-246.5 195.5,-263.5 266.5,-263.5 266.5,-246.5 195.5,-246.5"/>
<text text-anchor="middle" x="231" y="-253.1" font-family="Helvetica,sans-Serif" font-size="8.00" fill="#000000">ModelMatching</text>
</a>
</g>
</g>
<!-- Node5&#45;&gt;Node4 -->
<g id="edge2" class="edge">
<title>Node5&#45;&gt;Node4</title>
<path fill="none" stroke="#191970" d="M276.8794,-265.1954C312.5268,-273.1171 361.3983,-283.9774 395.0195,-291.4488"/>
<polygon fill="#191970" stroke="#191970" points="277.258,-261.6942 266.7368,-262.9415 275.7394,-268.5275 277.258,-261.6942"/>
</g>
<!-- Node6 -->
<g id="node4" class="node">
<title>Node6</title>
<g id="a_node4"><a xlink:href="../../d4/dac/class_wilson_coefficient_new.html" target="_top" xlink:title="A class for the Wilson coefficients. ">
<polygon fill="none" stroke="#ff0000" points="184,-430.5 184,-447.5 278,-447.5 278,-430.5 184,-430.5"/>
<text text-anchor="middle" x="231" y="-437.1" font-family="Helvetica,sans-Serif" font-size="8.00" fill="#000000">WilsonCoefficientNew</text>
</a>
</g>
</g>
<!-- Node6&#45;&gt;Node4 -->
<g id="edge3" class="edge">
<title>Node6&#45;&gt;Node4</title>
<path fill="none" stroke="#9a32cd" stroke-dasharray="5,2" d="M288.2021,-432.9127C318.3644,-428.7994 351.626,-422.5486 364,-414 403.0959,-386.9907 424.1442,-330.1359 430.979,-308.5548"/>
<polygon fill="#9a32cd" stroke="#9a32cd" points="287.5904,-429.4627 278.1266,-434.2259 288.4952,-436.404 287.5904,-429.4627"/>
<text text-anchor="middle" x="330" y="-478.6" font-family="Helvetica,sans-Serif" font-size="8.00" fill="#000000"> mcL</text>
<text text-anchor="middle" x="330" y="-469.6" font-family="Helvetica,sans-Serif" font-size="8.00" fill="#000000">mcM</text>
<text text-anchor="middle" x="330" y="-460.6" font-family="Helvetica,sans-Serif" font-size="8.00" fill="#000000">mcP</text>
<text text-anchor="middle" x="330" y="-451.6" font-family="Helvetica,sans-Serif" font-size="8.00" fill="#000000">mcQ</text>
<text text-anchor="middle" x="330" y="-442.6" font-family="Helvetica,sans-Serif" font-size="8.00" fill="#000000">mcB</text>
<text text-anchor="middle" x="330" y="-433.6" font-family="Helvetica,sans-Serif" font-size="8.00" fill="#000000">mcC</text>
</g>
<!-- Node11 -->
<g id="node5" class="node">
<title>Node11</title>
<g id="a_node5"><a xlink:href="../../dd/d9b/classgslpp_1_1complex.html" target="_top" xlink:title="A class for defining operations on and functions of complex numbers. ">
<polygon fill="none" stroke="#000000" points="9,-405.5 9,-422.5 79,-422.5 79,-405.5 9,-405.5"/>
<text text-anchor="middle" x="44" y="-412.1" font-family="Helvetica,sans-Serif" font-size="8.00" fill="#000000">gslpp::complex</text>
</a>
</g>
</g>
<!-- Node11&#45;&gt;Node3 -->
<g id="edge12" class="edge">
<title>Node11&#45;&gt;Node3</title>
<path fill="none" stroke="#9a32cd" stroke-dasharray="5,2" d="M64.8957,-428.2901C117.8106,-462.5529 260.2561,-542.6801 364,-489 526.2442,-405.0502 598.9125,-163.005 612.2186,-113.7937"/>
<polygon fill="#9a32cd" stroke="#9a32cd" points="66.6338,-425.2437 56.3605,-422.6535 62.7763,-431.0849 66.6338,-425.2437"/>
<text text-anchor="middle" x="330" y="-553.6" font-family="Helvetica,sans-Serif" font-size="8.00" fill="#000000"> sd</text>
<text text-anchor="middle" x="330" y="-544.6" font-family="Helvetica,sans-Serif" font-size="8.00" fill="#000000">su</text>
<text text-anchor="middle" x="330" y="-535.6" font-family="Helvetica,sans-Serif" font-size="8.00" fill="#000000">CWbsgArrayNLO</text>
<text text-anchor="middle" x="330" y="-526.6" font-family="Helvetica,sans-Serif" font-size="8.00" fill="#000000">CWbsgArrayLO</text>
<text text-anchor="middle" x="330" y="-517.6" font-family="Helvetica,sans-Serif" font-size="8.00" fill="#000000">sl</text>
<text text-anchor="middle" x="330" y="-508.6" font-family="Helvetica,sans-Serif" font-size="8.00" fill="#000000">CWbsgArrayNNLO</text>
</g>
<!-- Node11&#45;&gt;Node4 -->
<g id="edge4" class="edge">
<title>Node11&#45;&gt;Node4</title>
<path fill="none" stroke="#9a32cd" stroke-dasharray="5,2" d="M89.4705,-410.8901C112.5648,-408.7793 140.9628,-405.3667 166,-400 256.2961,-380.6451 278.8935,-372.8452 364,-337 383.7782,-328.6698 405.4371,-316.6409 419.2311,-308.5831"/>
<polygon fill="#9a32cd" stroke="#9a32cd" points="88.9261,-407.4239 79.264,-411.7706 89.5279,-414.398 88.9261,-407.4239"/>
<text text-anchor="middle" x="231" y="-397.6" font-family="Helvetica,sans-Serif" font-size="8.00" fill="#000000"> lam_t</text>
</g>
<!-- Node20 -->
<g id="node8" class="node">
<title>Node20</title>
<g id="a_node8"><a xlink:href="../../dc/dd5/class_standard_model.html" target="_top" xlink:title="A model class for the Standard Model. ">
<polygon fill="none" stroke="#ff0000" points="195.5,-327.5 195.5,-344.5 266.5,-344.5 266.5,-327.5 195.5,-327.5"/>
<text text-anchor="middle" x="231" y="-334.1" font-family="Helvetica,sans-Serif" font-size="8.00" fill="#000000">StandardModel</text>
</a>
</g>
</g>
<!-- Node11&#45;&gt;Node20 -->
<g id="edge8" class="edge">
<title>Node11&#45;&gt;Node20</title>
<path fill="none" stroke="#9a32cd" stroke-dasharray="5,2" d="M68.149,-400.6524C79.481,-394.6189 93.2672,-387.603 106,-382 124.467,-373.8737 175.8375,-355.4527 206.6744,-344.5473"/>
<polygon fill="#9a32cd" stroke="#9a32cd" points="66.4221,-397.6072 59.2844,-405.4369 69.7468,-403.7672 66.4221,-397.6072"/>
<text text-anchor="middle" x="136" y="-393.6" font-family="Helvetica,sans-Serif" font-size="8.00" fill="#000000"> rhoZ_f_cache</text>
<text text-anchor="middle" x="136" y="-384.6" font-family="Helvetica,sans-Serif" font-size="8.00" fill="#000000">kappaZ_f_cache</text>
</g>
<!-- Node12 -->
<g id="node6" class="node">
<title>Node12</title>
<g id="a_node6"><a xlink:href="../../d2/d95/class_wilson_coefficient.html" target="_top" xlink:title="A class for the Wilson coefficients. ">
<polygon fill="none" stroke="#ff0000" points="192,-135.5 192,-152.5 270,-152.5 270,-135.5 192,-135.5"/>
<text text-anchor="middle" x="231" y="-142.1" font-family="Helvetica,sans-Serif" font-size="8.00" fill="#000000">WilsonCoefficient</text>
</a>
</g>
</g>
<!-- Node12&#45;&gt;Node3 -->
<g id="edge13" class="edge">
<title>Node12&#45;&gt;Node3</title>
<path fill="none" stroke="#9a32cd" stroke-dasharray="5,2" d="M280.5654,-138.9594C353.7592,-131.516 490.0334,-117.6576 563.8466,-110.1512"/>
<polygon fill="#9a32cd" stroke="#9a32cd" points="279.8335,-135.5157 270.239,-140.0096 280.5418,-142.4798 279.8335,-135.5157"/>
<text text-anchor="middle" x="433.5" y="-175.6" font-family="Helvetica,sans-Serif" font-size="8.00" fill="#000000"> mcBMll</text>
<text text-anchor="middle" x="433.5" y="-166.6" font-family="Helvetica,sans-Serif" font-size="8.00" fill="#000000">mcbsmm</text>
<text text-anchor="middle" x="433.5" y="-157.6" font-family="Helvetica,sans-Serif" font-size="8.00" fill="#000000">mcdbs2</text>
<text text-anchor="middle" x="433.5" y="-148.6" font-family="Helvetica,sans-Serif" font-size="8.00" fill="#000000">mcgminus2mu</text>
<text text-anchor="middle" x="433.5" y="-139.6" font-family="Helvetica,sans-Serif" font-size="8.00" fill="#000000">mcbsg</text>
<text text-anchor="middle" x="433.5" y="-130.6" font-family="Helvetica,sans-Serif" font-size="8.00" fill="#000000">mcbtaunu</text>
</g>
<!-- Node12&#45;&gt;Node4 -->
<g id="edge5" class="edge">
<title>Node12&#45;&gt;Node4</title>
<path fill="none" stroke="#9a32cd" stroke-dasharray="5,2" d="M280.0865,-141.8292C307.1331,-143.0003 339.988,-148.5611 364,-166 386.5829,-182.401 419.6996,-264.2747 430.1876,-291.3164"/>
<polygon fill="#9a32cd" stroke="#9a32cd" points="280.1193,-138.329 270.0355,-141.5796 279.9455,-145.3268 280.1193,-138.329"/>
<text text-anchor="middle" x="330" y="-258.6" font-family="Helvetica,sans-Serif" font-size="8.00" fill="#000000"> mcBMll</text>
<text text-anchor="middle" x="330" y="-249.6" font-family="Helvetica,sans-Serif" font-size="8.00" fill="#000000">mcprimebsg</text>
<text text-anchor="middle" x="330" y="-240.6" font-family="Helvetica,sans-Serif" font-size="8.00" fill="#000000">mcdk2</text>
<text text-anchor="middle" x="330" y="-231.6" font-family="Helvetica,sans-Serif" font-size="8.00" fill="#000000">mcmueconv</text>
<text text-anchor="middle" x="330" y="-222.6" font-family="Helvetica,sans-Serif" font-size="8.00" fill="#000000">mcbnlep</text>
<text text-anchor="middle" x="330" y="-213.6" font-family="Helvetica,sans-Serif" font-size="8.00" fill="#000000">mcdbd2</text>
<text text-anchor="middle" x="330" y="-204.6" font-family="Helvetica,sans-Serif" font-size="8.00" fill="#000000">mcbsmm</text>
<text text-anchor="middle" x="330" y="-195.6" font-family="Helvetica,sans-Serif" font-size="8.00" fill="#000000">mcbsnn</text>
<text text-anchor="middle" x="330" y="-186.6" font-family="Helvetica,sans-Serif" font-size="8.00" fill="#000000">mcd1</text>
<text text-anchor="middle" x="330" y="-177.6" font-family="Helvetica,sans-Serif" font-size="8.00" fill="#000000">mcbnlepCC</text>
<text text-anchor="middle" x="330" y="-168.6" font-family="Helvetica,sans-Serif" font-size="8.00" fill="#000000">...</text>
</g>
<!-- Node18 -->
<g id="node7" class="node">
<title>Node18</title>
<g id="a_node7"><a xlink:href="../../d1/d3c/classgslpp_1_1matrix.html" target="_top" xlink:title="gslpp::matrix\&lt; gslpp\l::complex \&gt;">
<polygon fill="none" stroke="#ff0000" points="0,-276 0,-302 88,-302 88,-276 0,-276"/>
<text text-anchor="start" x="8" y="-291.6" font-family="Helvetica,sans-Serif" font-size="8.00" fill="#000000">gslpp::matrix&lt; gslpp</text>
<text text-anchor="middle" x="44" y="-282.6" font-family="Helvetica,sans-Serif" font-size="8.00" fill="#000000">::complex &gt;</text>
</a>
</g>
</g>
<!-- Node18&#45;&gt;Node3 -->
<g id="edge14" class="edge">
<title>Node18&#45;&gt;Node3</title>
<path fill="none" stroke="#9a32cd" stroke-dasharray="5,2" d="M55.3928,-266.9096C75.6524,-230.2329 121.7389,-157.6792 184,-126 313.2155,-60.2536 493.4318,-81.9968 573.4357,-96.4587"/>
<polygon fill="#9a32cd" stroke="#9a32cd" points="52.2498,-265.3642 50.5871,-275.8278 58.412,-268.6848 52.2498,-265.3642"/>
<text text-anchor="middle" x="330" y="-91.6" font-family="Helvetica,sans-Serif" font-size="8.00" fill="#000000"> myCKM</text>
</g>
<!-- Node18&#45;&gt;Node4 -->
<g id="edge6" class="edge">
<title>Node18&#45;&gt;Node4</title>
<path fill="none" stroke="#9a32cd" stroke-dasharray="5,2" d="M98.5014,-290.5392C173.6691,-292.662 308.1985,-296.4613 381.8371,-298.541"/>
<polygon fill="#9a32cd" stroke="#9a32cd" points="98.3962,-287.0349 88.3014,-290.2511 98.1986,-294.0321 98.3962,-287.0349"/>
<text text-anchor="middle" x="231" y="-297.6" font-family="Helvetica,sans-Serif" font-size="8.00" fill="#000000"> Vckm</text>
</g>
<!-- Node18&#45;&gt;Node20 -->
<g id="edge9" class="edge">
<title>Node18&#45;&gt;Node20</title>
<path fill="none" stroke="#9a32cd" stroke-dasharray="5,2" d="M98.3701,-302.6652C130.2096,-310.6676 169.4354,-320.5265 196.9391,-327.4392"/>
<polygon fill="#9a32cd" stroke="#9a32cd" points="98.8679,-299.1815 88.3164,-300.1383 97.1616,-305.9704 98.8679,-299.1815"/>
<text text-anchor="middle" x="136" y="-348.6" font-family="Helvetica,sans-Serif" font-size="8.00" fill="#000000"> Yn</text>
<text text-anchor="middle" x="136" y="-339.6" font-family="Helvetica,sans-Serif" font-size="8.00" fill="#000000">Yd</text>
<text text-anchor="middle" x="136" y="-330.6" font-family="Helvetica,sans-Serif" font-size="8.00" fill="#000000">Yu</text>
<text text-anchor="middle" x="136" y="-321.6" font-family="Helvetica,sans-Serif" font-size="8.00" fill="#000000">Ye</text>
</g>
<!-- Node20&#45;&gt;Node4 -->
<g id="edge7" class="edge">
<title>Node20&#45;&gt;Node4</title>
<path fill="none" stroke="#9a32cd" stroke-dasharray="5,2" d="M276.7717,-328.2435C302.4323,-323.8551 335.0143,-318.2169 364,-313 371.8527,-311.5866 380.1983,-310.0529 388.2802,-308.5511"/>
<polygon fill="#9a32cd" stroke="#9a32cd" points="275.8556,-324.8491 266.5871,-329.9818 277.0334,-331.7493 275.8556,-324.8491"/>
<text text-anchor="middle" x="330" y="-326.6" font-family="Helvetica,sans-Serif" font-size="8.00" fill="#000000"> SM</text>
</g>
<!-- Node47 -->
<g id="node9" class="node">
<title>Node47</title>
<g id="a_node9"><a xlink:href="../../d3/d55/class_general_t_h_d_m.html" target="_top" xlink:title="A base class for generic Two&#45;Higgs&#45;Doublet models. ">
<polygon fill="none" stroke="#ff0000" points="399.5,-36.5 399.5,-53.5 467.5,-53.5 467.5,-36.5 399.5,-36.5"/>
<text text-anchor="middle" x="433.5" y="-43.1" font-family="Helvetica,sans-Serif" font-size="8.00" fill="#000000">GeneralTHDM</text>
</a>
</g>
</g>
<!-- Node47&#45;&gt;Node3 -->
<g id="edge10" class="edge">
<title>Node47&#45;&gt;Node3</title>
<path fill="none" stroke="#9a32cd" stroke-dasharray="5,2" d="M477.9725,-45.7764C499.1305,-47.3307 524.4519,-50.9486 546,-59 569.0805,-67.624 592.0686,-85.4246 604.6695,-96.1778"/>
<polygon fill="#9a32cd" stroke="#9a32cd" points="478.1486,-42.2808 467.955,-45.1688 477.7247,-49.2679 478.1486,-42.2808"/>
<text text-anchor="middle" x="524.5" y="-61.6" font-family="Helvetica,sans-Serif" font-size="8.00" fill="#000000"> myGTHDM</text>
</g>
<!-- Node27 -->
<g id="node10" class="node">
<title>Node27</title>
<g id="a_node10"><a xlink:href="../../d8/db3/class_polylogarithms.html" target="_top" xlink:title="A class for the polylogarithms. ">
<polygon fill="none" stroke="#ff0000" points="399,-.5 399,-17.5 468,-17.5 468,-.5 399,-.5"/>
<text text-anchor="middle" x="433.5" y="-7.1" font-family="Helvetica,sans-Serif" font-size="8.00" fill="#000000">Polylogarithms</text>
</a>
</g>
</g>
<!-- Node27&#45;&gt;Node3 -->
<g id="edge11" class="edge">
<title>Node27&#45;&gt;Node3</title>
<path fill="none" stroke="#9a32cd" stroke-dasharray="5,2" d="M477.9653,-13.3602C499.5583,-16.9128 525.2526,-23.3491 546,-35 573.8724,-50.6521 597.7497,-81.0666 608.468,-96.12"/>
<polygon fill="#9a32cd" stroke="#9a32cd" points="478.4579,-9.895 468.0507,-11.8801 477.4243,-16.8183 478.4579,-9.895"/>
<text text-anchor="middle" x="524.5" y="-37.6" font-family="Helvetica,sans-Serif" font-size="8.00" fill="#000000"> PolyLog</text>
</g>
</g>
</svg>
