<?xml version="1.0" encoding="UTF-8" standalone="no"?>
<!DOCTYPE svg PUBLIC "-//W3C//DTD SVG 1.1//EN"
 "http://www.w3.org/Graphics/SVG/1.1/DTD/svg11.dtd">
<!-- Generated by graphviz version 2.38.0 (20140413.2041)
 -->
<!-- Title: FlavourWilsonCoefficient Pages: 1 -->
<svg width="585pt" height="539pt"
 viewBox="0.00 0.00 584.50 539.00" xmlns="http://www.w3.org/2000/svg" xmlns:xlink="http://www.w3.org/1999/xlink">
<g id="graph0" class="graph" transform="scale(1 1) rotate(0) translate(4 535)">
<title>FlavourWilsonCoefficient</title>
<!-- Node1 -->
<g id="node1" class="node"><title>Node1</title>
<polygon fill="#bfbfbf" stroke="black" points="364,-81.5 364,-98.5 469,-98.5 469,-81.5 364,-81.5"/>
<text text-anchor="middle" x="416.5" y="-88.1" font-family="Helvetica,sans-Serif" font-size="8.00">FlavourWilsonCoefficient</text>
</g>
<!-- Node10 -->
<g id="node10" class="node"><title>Node10</title>
<g id="a_node10"><a xlink:href="../../d2/d0a/class_flavour_wilson_coefficient_matching.html" target="_top" xlink:title="A class for the matching in the FlavourWilsonCoefficient. ">
<polygon fill="none" stroke="red" points="316,-0.5 316,-26.5 421,-26.5 421,-0.5 316,-0.5"/>
<text text-anchor="start" x="324" y="-16.1" font-family="Helvetica,sans-Serif" font-size="8.00">FlavourWilsonCoefficient</text>
<text text-anchor="middle" x="368.5" y="-7.1" font-family="Helvetica,sans-Serif" font-size="8.00">Matching</text>
</a>
</g>
</g>
<!-- Node1&#45;&gt;Node10 -->
<g id="edge14" class="edge"><title>Node1&#45;&gt;Node10</title>
<path fill="none" stroke="#9a32cd" stroke-dasharray="5,2" d="M379.824,-76.685C374.12,-73.1563 368.975,-68.6726 365.5,-63 358.801,-52.0658 361.115,-37.0178 364.1,-26.5959"/>
<polygon fill="#9a32cd" stroke="#9a32cd" points="378.596,-79.9908 389.086,-81.4777 381.813,-73.7737 378.596,-79.9908"/>
<text text-anchor="middle" x="416.5" y="-52.1" font-family="Helvetica,sans-Serif" font-size="8.00"> myFlavourWilsonCoefficient</text>
</g>
<!-- Node2 -->
<g id="node2" class="node"><title>Node2</title>
<g id="a_node2"><a xlink:href="../../dc/dd5/class_standard_model.html" target="_top" xlink:title="A model class for the Standard Model. ">
<polygon fill="none" stroke="red" points="150,-185 150,-202 221,-202 221,-185 150,-185"/>
<text text-anchor="middle" x="185.5" y="-191.6" font-family="Helvetica,sans-Serif" font-size="8.00">StandardModel</text>
</a>
</g>
</g>
<!-- Node2&#45;&gt;Node1 -->
<g id="edge1" class="edge"><title>Node2&#45;&gt;Node1</title>
<path fill="none" stroke="midnightblue" d="M212.269,-180.738C260.177,-159.687 359.298,-116.134 399.251,-98.5791"/>
<polygon fill="midnightblue" stroke="midnightblue" points="210.61,-177.644 202.863,-184.871 213.426,-184.053 210.61,-177.644"/>
</g>
<!-- Node4 -->
<g id="node4" class="node"><title>Node4</title>
<g id="a_node4"><a xlink:href="../../dc/df3/class_e_w_s_mcache.html" target="_top" xlink:title="A class for cache variables used in computing radiative corrections to the EW precision observables...">
<polygon fill="none" stroke="red" points="116,-81.5 116,-98.5 179,-98.5 179,-81.5 116,-81.5"/>
<text text-anchor="middle" x="147.5" y="-88.1" font-family="Helvetica,sans-Serif" font-size="8.00">EWSMcache</text>
</a>
</g>
</g>
<!-- Node2&#45;&gt;Node4 -->
<g id="edge4" class="edge"><title>Node2&#45;&gt;Node4</title>
<path fill="none" stroke="#9a32cd" stroke-dasharray="5,2" d="M181.788,-174.908C178.166,-159.299 171.966,-136.08 163.5,-117 160.663,-110.605 156.497,-103.892 153.128,-98.8897"/>
<polygon fill="#9a32cd" stroke="#9a32cd" points="178.39,-175.751 183.965,-184.761 185.225,-174.241 178.39,-175.751"/>
<text text-anchor="middle" x="175" y="-119.6" font-family="Helvetica,sans-Serif" font-size="8.00"> SM</text>
</g>
<!-- Node3 -->
<g id="node3" class="node"><title>Node3</title>
<g id="a_node3"><a xlink:href="../../dd/dfa/class_q_c_d.html" target="_top" xlink:title="A class for parameters related to QCD, hadrons and quarks. ">
<polygon fill="none" stroke="red" points="221.5,-378.5 221.5,-395.5 255.5,-395.5 255.5,-378.5 221.5,-378.5"/>
<text text-anchor="middle" x="238.5" y="-385.1" font-family="Helvetica,sans-Serif" font-size="8.00">QCD</text>
</a>
</g>
</g>
<!-- Node3&#45;&gt;Node2 -->
<g id="edge2" class="edge"><title>Node3&#45;&gt;Node2</title>
<path fill="none" stroke="midnightblue" d="M238.807,-368.127C238.719,-343.408 236.696,-297.684 224.5,-261 216.815,-237.885 200.345,-214.025 191.466,-202.163"/>
<polygon fill="midnightblue" stroke="midnightblue" points="235.305,-368.417 238.731,-378.443 242.305,-368.469 235.305,-368.417"/>
</g>
<!-- Node4&#45;&gt;Node2 -->
<g id="edge3" class="edge"><title>Node4&#45;&gt;Node2</title>
<path fill="none" stroke="#9a32cd" stroke-dasharray="5,2" d="M115.705,-103.105C106.023,-108.838 98.9857,-116.527 103.5,-126 117.062,-154.46 149.416,-174.696 169.188,-184.912"/>
<polygon fill="#9a32cd" stroke="#9a32cd" points="117.324,-106.208 124.672,-98.5747 114.168,-99.9604 117.324,-106.208"/>
<text text-anchor="middle" x="133.5" y="-119.6" font-family="Helvetica,sans-Serif" font-size="8.00"> myEWSMcache</text>
</g>
<!-- Node7 -->
<g id="node7" class="node"><title>Node7</title>
<g id="a_node7"><a xlink:href="../../d5/dad/class_e_w_s_m_three_loop_e_w.html" target="_top" xlink:title="A class for &#160;three&#45;loop corrections to the EW precision observables. ">
<polygon fill="none" stroke="black" points="0,-5 0,-22 93,-22 93,-5 0,-5"/>
<text text-anchor="middle" x="46.5" y="-11.6" font-family="Helvetica,sans-Serif" font-size="8.00">EWSMThreeLoopEW</text>
</a>
</g>
</g>
<!-- Node4&#45;&gt;Node7 -->
<g id="edge8" class="edge"><title>Node4&#45;&gt;Node7</title>
<path fill="none" stroke="#9a32cd" stroke-dasharray="5,2" d="M128.825,-75.2248C107.566,-59.5434 73.6056,-34.4937 56.7212,-22.0394"/>
<polygon fill="#9a32cd" stroke="#9a32cd" points="126.946,-78.1883 137.072,-81.3078 131.102,-72.555 126.946,-78.1883"/>
<text text-anchor="middle" x="124.5" y="-52.1" font-family="Helvetica,sans-Serif" font-size="8.00"> cache</text>
</g>
<!-- Node9 -->
<g id="node9" class="node"><title>Node9</title>
<g id="a_node9"><a xlink:href="../../d5/dde/class_e_w_s_m_approximate_formulae.html" target="_top" xlink:title="A class for approximate formulae of the EW precision observables. ">
<polygon fill="none" stroke="black" points="140.5,-5 140.5,-22 260.5,-22 260.5,-5 140.5,-5"/>
<text text-anchor="middle" x="200.5" y="-11.6" font-family="Helvetica,sans-Serif" font-size="8.00">EWSMApproximateFormulae</text>
</a>
</g>
</g>
<!-- Node4&#45;&gt;Node9 -->
<g id="edge11" class="edge"><title>Node4&#45;&gt;Node9</title>
<path fill="none" stroke="#9a32cd" stroke-dasharray="5,2" d="M152.99,-71.7029C156.165,-63.2005 160.692,-53.0737 166.5,-45 172.983,-35.988 182.544,-27.7112 189.877,-22.0607"/>
<polygon fill="#9a32cd" stroke="#9a32cd" points="149.623,-70.7325 149.695,-81.3271 156.245,-72.9996 149.623,-70.7325"/>
<text text-anchor="middle" x="184" y="-52.1" font-family="Helvetica,sans-Serif" font-size="8.00"> mycache</text>
</g>
<!-- Node5 -->
<g id="node5" class="node"><title>Node5</title>
<g id="a_node5"><a xlink:href="../../d9/db9/class_c_k_m.html" target="_top" xlink:title="A class for the CKM matrix elements. ">
<polygon fill="none" stroke="black" points="273.5,-378.5 273.5,-395.5 307.5,-395.5 307.5,-378.5 273.5,-378.5"/>
<text text-anchor="middle" x="290.5" y="-385.1" font-family="Helvetica,sans-Serif" font-size="8.00">CKM</text>
</a>
</g>
</g>
<!-- Node5&#45;&gt;Node2 -->
<g id="edge5" class="edge"><title>Node5&#45;&gt;Node2</title>
<path fill="none" stroke="#9a32cd" stroke-dasharray="5,2" d="M286.667,-368.31C280.704,-343.168 267.644,-296.243 246.5,-261 231.992,-236.818 207.729,-213.765 194.601,-202.209"/>
<polygon fill="#9a32cd" stroke="#9a32cd" points="283.286,-369.23 288.911,-378.209 290.113,-367.682 283.286,-369.23"/>
<text text-anchor="middle" x="300" y="-308.6" font-family="Helvetica,sans-Serif" font-size="8.00"> myCKM</text>
</g>
<!-- Node6 -->
<g id="node6" class="node"><title>Node6</title>
<g id="a_node6"><a xlink:href="../../dd/d9b/classgslpp_1_1complex.html" target="_top" xlink:title="A class for defining operations on and functions of complex numbers. ">
<polygon fill="none" stroke="black" points="281.5,-513.5 281.5,-530.5 351.5,-530.5 351.5,-513.5 281.5,-513.5"/>
<text text-anchor="middle" x="316.5" y="-520.1" font-family="Helvetica,sans-Serif" font-size="8.00">gslpp::complex</text>
</a>
</g>
</g>
<!-- Node6&#45;&gt;Node1 -->
<g id="edge16" class="edge"><title>Node6&#45;&gt;Node1</title>
<path fill="none" stroke="#9a32cd" stroke-dasharray="5,2" d="M338.599,-507.356C342.801,-503.817 346.74,-499.668 349.5,-495 432.537,-354.542 420.538,-141.232 417.164,-98.5757"/>
<polygon fill="#9a32cd" stroke="#9a32cd" points="336.402,-504.627 330.437,-513.383 340.561,-510.258 336.402,-504.627"/>
<text text-anchor="middle" x="427" y="-353.6" font-family="Helvetica,sans-Serif" font-size="8.00"> DC2</text>
<text text-anchor="middle" x="427" y="-344.6" font-family="Helvetica,sans-Serif" font-size="8.00">DC3</text>
<text text-anchor="middle" x="427" y="-335.6" font-family="Helvetica,sans-Serif" font-size="8.00">DC4</text>
<text text-anchor="middle" x="427" y="-326.6" font-family="Helvetica,sans-Serif" font-size="8.00">DC9p</text>
<text text-anchor="middle" x="427" y="-317.6" font-family="Helvetica,sans-Serif" font-size="8.00">DC5</text>
<text text-anchor="middle" x="427" y="-308.6" font-family="Helvetica,sans-Serif" font-size="8.00">DC8p</text>
<text text-anchor="middle" x="427" y="-299.6" font-family="Helvetica,sans-Serif" font-size="8.00">DC6</text>
<text text-anchor="middle" x="427" y="-290.6" font-family="Helvetica,sans-Serif" font-size="8.00">DC7p</text>
<text text-anchor="middle" x="427" y="-281.6" font-family="Helvetica,sans-Serif" font-size="8.00">DC7</text>
<text text-anchor="middle" x="427" y="-272.6" font-family="Helvetica,sans-Serif" font-size="8.00">DC8</text>
<text text-anchor="middle" x="427" y="-263.6" font-family="Helvetica,sans-Serif" font-size="8.00">...</text>
</g>
<!-- Node6&#45;&gt;Node2 -->
<g id="edge12" class="edge"><title>Node6&#45;&gt;Node2</title>
<path fill="none" stroke="#9a32cd" stroke-dasharray="5,2" d="M271.605,-510.771C217.661,-495.808 129.547,-462.219 90.5,-396 47.8707,-323.707 145.771,-229.191 176.589,-202.071"/>
<polygon fill="#9a32cd" stroke="#9a32cd" points="271.023,-514.238 281.587,-513.436 272.828,-507.475 271.023,-514.238"/>
<text text-anchor="middle" x="120.5" y="-389.6" font-family="Helvetica,sans-Serif" font-size="8.00"> rhoZ_f_cache</text>
<text text-anchor="middle" x="120.5" y="-380.6" font-family="Helvetica,sans-Serif" font-size="8.00">kappaZ_f_cache</text>
</g>
<!-- Node6&#45;&gt;Node5 -->
<g id="edge6" class="edge"><title>Node6&#45;&gt;Node5</title>
<path fill="none" stroke="#9a32cd" stroke-dasharray="5,2" d="M309.381,-504.078C308.301,-501.09 307.286,-497.981 306.5,-495 296.874,-458.494 292.5,-413.351 291.065,-395.639"/>
<polygon fill="#9a32cd" stroke="#9a32cd" points="306.14,-505.399 313.074,-513.41 312.649,-502.823 306.14,-505.399"/>
<text text-anchor="middle" x="314" y="-488.6" font-family="Helvetica,sans-Serif" font-size="8.00"> Vtb</text>
<text text-anchor="middle" x="314" y="-479.6" font-family="Helvetica,sans-Serif" font-size="8.00">Vcb</text>
<text text-anchor="middle" x="314" y="-470.6" font-family="Helvetica,sans-Serif" font-size="8.00">Vts</text>
<text text-anchor="middle" x="314" y="-461.6" font-family="Helvetica,sans-Serif" font-size="8.00">Vcs</text>
<text text-anchor="middle" x="314" y="-452.6" font-family="Helvetica,sans-Serif" font-size="8.00">Vud</text>
<text text-anchor="middle" x="314" y="-443.6" font-family="Helvetica,sans-Serif" font-size="8.00">Vtd</text>
<text text-anchor="middle" x="314" y="-434.6" font-family="Helvetica,sans-Serif" font-size="8.00">Vcd</text>
<text text-anchor="middle" x="314" y="-425.6" font-family="Helvetica,sans-Serif" font-size="8.00">Vub</text>
<text text-anchor="middle" x="314" y="-416.6" font-family="Helvetica,sans-Serif" font-size="8.00">Vus</text>
</g>
<!-- Node6&#45;&gt;Node10 -->
<g id="edge15" class="edge"><title>Node6&#45;&gt;Node10</title>
<path fill="none" stroke="#9a32cd" stroke-dasharray="5,2" d="M320.656,-503.32C326.248,-477.946 335.5,-429.667 335.5,-388 335.5,-388 335.5,-388 335.5,-89 335.5,-65.376 349.543,-40.8703 359.308,-26.6865"/>
<polygon fill="#9a32cd" stroke="#9a32cd" points="317.201,-502.732 318.391,-513.26 324.026,-504.288 317.201,-502.732"/>
<text text-anchor="middle" x="346" y="-236.6" font-family="Helvetica,sans-Serif" font-size="8.00"> DC2</text>
<text text-anchor="middle" x="346" y="-227.6" font-family="Helvetica,sans-Serif" font-size="8.00">DC3</text>
<text text-anchor="middle" x="346" y="-218.6" font-family="Helvetica,sans-Serif" font-size="8.00">DC4</text>
<text text-anchor="middle" x="346" y="-209.6" font-family="Helvetica,sans-Serif" font-size="8.00">DC9p</text>
<text text-anchor="middle" x="346" y="-200.6" font-family="Helvetica,sans-Serif" font-size="8.00">DC5</text>
<text text-anchor="middle" x="346" y="-191.6" font-family="Helvetica,sans-Serif" font-size="8.00">DC8p</text>
<text text-anchor="middle" x="346" y="-182.6" font-family="Helvetica,sans-Serif" font-size="8.00">DC6</text>
<text text-anchor="middle" x="346" y="-173.6" font-family="Helvetica,sans-Serif" font-size="8.00">DC7p</text>
<text text-anchor="middle" x="346" y="-164.6" font-family="Helvetica,sans-Serif" font-size="8.00">DC7</text>
<text text-anchor="middle" x="346" y="-155.6" font-family="Helvetica,sans-Serif" font-size="8.00">DC8</text>
<text text-anchor="middle" x="346" y="-146.6" font-family="Helvetica,sans-Serif" font-size="8.00">...</text>
</g>
<!-- Node7&#45;&gt;Node2 -->
<g id="edge7" class="edge"><title>Node7&#45;&gt;Node2</title>
<path fill="none" stroke="#9a32cd" stroke-dasharray="5,2" d="M40.4077,-31.7457C35.1788,-49.6883 30.1175,-78.0379 41.5,-99 66.9609,-145.889 127.219,-172.919 161.164,-184.938"/>
<polygon fill="#9a32cd" stroke="#9a32cd" points="43.7874,-32.6699 43.5397,-22.078 37.1281,-30.5125 43.7874,-32.6699"/>
<text text-anchor="middle" x="74" y="-88.1" font-family="Helvetica,sans-Serif" font-size="8.00"> myThreeLoopEW</text>
</g>
<!-- Node8 -->
<g id="node8" class="node"><title>Node8</title>
<g id="a_node8"><a xlink:href="../../d4/d6d/class_flavour.html" target="_top" xlink:title="The parent class in Flavour for calculating all the Wilson coefficients for various Flavor Violating ...">
<polygon fill="none" stroke="red" points="160,-378.5 160,-395.5 203,-395.5 203,-378.5 160,-378.5"/>
<text text-anchor="middle" x="181.5" y="-385.1" font-family="Helvetica,sans-Serif" font-size="8.00">Flavour</text>
</a>
</g>
</g>
<!-- Node8&#45;&gt;Node2 -->
<g id="edge9" class="edge"><title>Node8&#45;&gt;Node2</title>
<path fill="none" stroke="#9a32cd" stroke-dasharray="5,2" d="M181.876,-368.018C182.723,-327.434 184.757,-230.094 185.341,-202.131"/>
<polygon fill="#9a32cd" stroke="#9a32cd" points="178.371,-368.185 181.662,-378.256 185.37,-368.331 178.371,-368.185"/>
<text text-anchor="middle" x="204.5" y="-308.6" font-family="Helvetica,sans-Serif" font-size="8.00"> myFlavour</text>
</g>
<!-- Node9&#45;&gt;Node2 -->
<g id="edge10" class="edge"><title>Node9&#45;&gt;Node2</title>
<path fill="none" stroke="#9a32cd" stroke-dasharray="5,2" d="M201.177,-32.1377C201.311,-36.3514 201.432,-40.835 201.5,-45 201.631,-52.9989 201.991,-55.0151 201.5,-63 198.633,-109.578 190.02,-165.049 186.765,-184.94"/>
<polygon fill="#9a32cd" stroke="#9a32cd" points="204.67,-31.8875 200.815,-22.0188 197.674,-32.1374 204.67,-31.8875"/>
<text text-anchor="middle" x="246.5" y="-88.1" font-family="Helvetica,sans-Serif" font-size="8.00"> myApproximateFormulae</text>
</g>
<!-- Node10&#45;&gt;Node1 -->
<g id="edge13" class="edge"><title>Node10&#45;&gt;Node1</title>
<path fill="none" stroke="#9a32cd" stroke-dasharray="5,2" d="M431.008,-19.7736C446.659,-24.2487 461.751,-31.9452 471.5,-45 476.287,-51.4098 475.781,-56.2416 471.5,-63 466.018,-71.6549 456.794,-77.4839 447.451,-81.3858"/>
<polygon fill="#9a32cd" stroke="#9a32cd" points="431.778,-16.3589 421.233,-17.3844 430.116,-23.1587 431.778,-16.3589"/>
<text text-anchor="start" x="474.5" y="-56.6" font-family="Helvetica,sans-Serif" font-size="8.00"> myFlavourWilsonCoefficient</text>
<text text-anchor="middle" x="525.5" y="-47.6" font-family="Helvetica,sans-Serif" font-size="8.00">Matching</text>
</g>
</g>
</svg>
