<?xml version="1.0" encoding="UTF-8" standalone="no"?>
<!DOCTYPE svg PUBLIC "-//W3C//DTD SVG 1.1//EN"
 "http://www.w3.org/Graphics/SVG/1.1/DTD/svg11.dtd">
<!-- Generated by graphviz version 2.40.1 (20161225.0304)
 -->
<!-- Title: ModelFactory.h Pages: 1 -->
<svg width="525pt" height="197pt"
 viewBox="0.00 0.00 525.00 197.00" xmlns="http://www.w3.org/2000/svg" xmlns:xlink="http://www.w3.org/1999/xlink">
<g id="graph0" class="graph" transform="scale(1 1) rotate(0) translate(4 193)">
<title>ModelFactory.h</title>
<!-- Node49 -->
<g id="node1" class="node">
<title>Node49</title>
<polygon fill="#bfbfbf" stroke="#000000" points="281.5,-171.5 281.5,-188.5 353.5,-188.5 353.5,-171.5 281.5,-171.5"/>
<text text-anchor="middle" x="317.5" y="-178.1" font-family="Helvetica,sans-Serif" font-size="8.00" fill="#000000">ModelFactory.h</text>
</g>
<!-- Node50 -->
<g id="node2" class="node">
<title>Node50</title>
<g id="a_node2"><a xlink:href="../../d1/dae/_compute_observables_8h.html" target="_top" xlink:title="ComputeObservables.h">
<polygon fill="none" stroke="#ff0000" points="153,-63.5 153,-80.5 254,-80.5 254,-63.5 153,-63.5"/>
<text text-anchor="middle" x="203.5" y="-70.1" font-family="Helvetica,sans-Serif" font-size="8.00" fill="#000000">ComputeObservables.h</text>
</a>
</g>
</g>
<!-- Node49&#45;&gt;Node50 -->
<g id="edge1" class="edge">
<title>Node49&#45;&gt;Node50</title>
<path fill="none" stroke="#191970" d="M271.56,-170.3921C251.1153,-163.7926 228.5373,-152.869 214.5,-135 202.0169,-119.1094 201.7234,-93.971 202.5969,-80.7657"/>
<polygon fill="#191970" stroke="#191970" points="270.7963,-173.8161 281.3783,-173.296 272.7816,-167.1035 270.7963,-173.8161"/>
</g>
<!-- Node57 -->
<g id="node7" class="node">
<title>Node57</title>
<g id="a_node7"><a xlink:href="../../d8/d48/_input_parser_8h.html" target="_top" xlink:title="InputParser.h">
<polygon fill="none" stroke="#ff0000" points="224,-117.5 224,-134.5 289,-134.5 289,-117.5 224,-117.5"/>
<text text-anchor="middle" x="256.5" y="-124.1" font-family="Helvetica,sans-Serif" font-size="8.00" fill="#000000">InputParser.h</text>
</a>
</g>
</g>
<!-- Node49&#45;&gt;Node57 -->
<g id="edge6" class="edge">
<title>Node49&#45;&gt;Node57</title>
<path fill="none" stroke="#191970" d="M300.0328,-164.5372C289.1562,-154.9087 275.5561,-142.8694 266.479,-134.8339"/>
<polygon fill="#191970" stroke="#191970" points="297.8917,-167.3162 307.6993,-171.324 302.5316,-162.0749 297.8917,-167.3162"/>
</g>
<!-- Node61 -->
<g id="node8" class="node">
<title>Node61</title>
<g id="a_node8"><a xlink:href="../../d0/d8e/_input_parser_8cpp.html" target="_top" xlink:title="InputParser.cpp">
<polygon fill="none" stroke="#000000" points="276,-63.5 276,-80.5 349,-80.5 349,-63.5 276,-63.5"/>
<text text-anchor="middle" x="312.5" y="-70.1" font-family="Helvetica,sans-Serif" font-size="8.00" fill="#000000">InputParser.cpp</text>
</a>
</g>
</g>
<!-- Node49&#45;&gt;Node61 -->
<g id="edge9" class="edge">
<title>Node49&#45;&gt;Node61</title>
<path fill="none" stroke="#191970" d="M316.6196,-160.9835C315.5252,-137.3433 313.7036,-97.998 312.9009,-80.6584"/>
<polygon fill="#191970" stroke="#191970" points="313.132,-161.3345 317.0908,-171.1619 320.1245,-161.0107 313.132,-161.3345"/>
</g>
<!-- Node64 -->
<g id="node9" class="node">
<title>Node64</title>
<g id="a_node9"><a xlink:href="../../d3/df6/_model_factory_8cpp.html" target="_top" xlink:title="ModelFactory.cpp">
<polygon fill="none" stroke="#000000" points="345.5,-117.5 345.5,-134.5 425.5,-134.5 425.5,-117.5 345.5,-117.5"/>
<text text-anchor="middle" x="385.5" y="-124.1" font-family="Helvetica,sans-Serif" font-size="8.00" fill="#000000">ModelFactory.cpp</text>
</a>
</g>
</g>
<!-- Node49&#45;&gt;Node64 -->
<g id="edge10" class="edge">
<title>Node49&#45;&gt;Node64</title>
<path fill="none" stroke="#191970" d="M336.262,-165.1008C348.4999,-155.3824 364.0587,-143.0269 374.3758,-134.8339"/>
<polygon fill="#191970" stroke="#191970" points="334.0799,-162.3642 328.4254,-171.324 338.4331,-167.846 334.0799,-162.3642"/>
</g>
<!-- Node63 -->
<g id="node10" class="node">
<title>Node63</title>
<g id="a_node10"><a xlink:href="../../d4/d0a/_monte_carlo_8cpp.html" target="_top" xlink:title="MonteCarlo.cpp">
<polygon fill="none" stroke="#000000" points="444,-117.5 444,-134.5 517,-134.5 517,-117.5 444,-117.5"/>
<text text-anchor="middle" x="480.5" y="-124.1" font-family="Helvetica,sans-Serif" font-size="8.00" fill="#000000">MonteCarlo.cpp</text>
</a>
</g>
</g>
<!-- Node49&#45;&gt;Node63 -->
<g id="edge11" class="edge">
<title>Node49&#45;&gt;Node63</title>
<path fill="none" stroke="#191970" d="M353.2029,-168.172C383.8956,-158.0039 427.4189,-143.5852 454.793,-134.5164"/>
<polygon fill="#191970" stroke="#191970" points="351.7198,-164.9762 343.3278,-171.4435 353.9212,-171.6211 351.7198,-164.9762"/>
</g>
<!-- Node51 -->
<g id="node3" class="node">
<title>Node51</title>
<g id="a_node3"><a xlink:href="../../df/dae/main__als__test_8cpp.html" target="_top" xlink:title="main_als_test.cpp">
<polygon fill="none" stroke="#000000" points="0,-5 0,-22 81,-22 81,-5 0,-5"/>
<text text-anchor="middle" x="40.5" y="-11.6" font-family="Helvetica,sans-Serif" font-size="8.00" fill="#000000">main_als_test.cpp</text>
</a>
</g>
</g>
<!-- Node50&#45;&gt;Node51 -->
<g id="edge2" class="edge">
<title>Node50&#45;&gt;Node51</title>
<path fill="none" stroke="#191970" d="M170.1336,-60.0249C138.615,-48.7131 92.1287,-32.0293 64.2302,-22.0167"/>
<polygon fill="#191970" stroke="#191970" points="169.2039,-63.4098 179.7984,-63.4936 171.5685,-56.8213 169.2039,-63.4098"/>
</g>
<!-- Node52 -->
<g id="node4" class="node">
<title>Node52</title>
<g id="a_node4"><a xlink:href="../../d6/d68/main__df1evol__test_8cpp.html" target="_top" xlink:title="main_df1evol_test.cpp">
<polygon fill="none" stroke="#000000" points="99,-5 99,-22 196,-22 196,-5 99,-5"/>
<text text-anchor="middle" x="147.5" y="-11.6" font-family="Helvetica,sans-Serif" font-size="8.00" fill="#000000">main_df1evol_test.cpp</text>
</a>
</g>
</g>
<!-- Node50&#45;&gt;Node52 -->
<g id="edge3" class="edge">
<title>Node50&#45;&gt;Node52</title>
<path fill="none" stroke="#191970" d="M188.2706,-56.0907C177.8126,-45.1659 164.3298,-31.0812 155.7969,-22.1673"/>
<polygon fill="#191970" stroke="#191970" points="185.7936,-58.5646 195.237,-63.3681 190.8503,-53.7241 185.7936,-58.5646"/>
</g>
<!-- Node53 -->
<g id="node5" class="node">
<title>Node53</title>
<g id="a_node5"><a xlink:href="../../dd/db3/main__libmode__config__example_8cpp.html" target="_top" xlink:title="main_libmode_config\l_example.cpp">
<polygon fill="none" stroke="#000000" points="214.5,-.5 214.5,-26.5 306.5,-26.5 306.5,-.5 214.5,-.5"/>
<text text-anchor="start" x="222.5" y="-16.1" font-family="Helvetica,sans-Serif" font-size="8.00" fill="#000000">main_libmode_config</text>
<text text-anchor="middle" x="260.5" y="-7.1" font-family="Helvetica,sans-Serif" font-size="8.00" fill="#000000">_example.cpp</text>
</a>
</g>
</g>
<!-- Node50&#45;&gt;Node53 -->
<g id="edge4" class="edge">
<title>Node50&#45;&gt;Node53</title>
<path fill="none" stroke="#191970" d="M219.1048,-55.9846C228.0592,-46.7945 239.1656,-35.3958 247.6192,-26.7197"/>
<polygon fill="#191970" stroke="#191970" points="216.3824,-53.7633 211.9105,-63.3681 221.396,-58.6483 216.3824,-53.7633"/>
</g>
<!-- Node54 -->
<g id="node6" class="node">
<title>Node54</title>
<g id="a_node6"><a xlink:href="../../d5/d02/main__libmode__header__example_8cpp.html" target="_top" xlink:title="main_libmode_header\l_example.cpp">
<polygon fill="none" stroke="#000000" points="324.5,-.5 324.5,-26.5 420.5,-26.5 420.5,-.5 324.5,-.5"/>
<text text-anchor="start" x="332.5" y="-16.1" font-family="Helvetica,sans-Serif" font-size="8.00" fill="#000000">main_libmode_header</text>
<text text-anchor="middle" x="372.5" y="-7.1" font-family="Helvetica,sans-Serif" font-size="8.00" fill="#000000">_example.cpp</text>
</a>
</g>
</g>
<!-- Node50&#45;&gt;Node54 -->
<g id="edge5" class="edge">
<title>Node50&#45;&gt;Node54</title>
<path fill="none" stroke="#191970" d="M237.8742,-60.1012C266.0133,-50.3608 305.7667,-36.6 334.7785,-26.5574"/>
<polygon fill="#191970" stroke="#191970" points="236.379,-56.915 228.0741,-63.4936 238.6688,-63.5299 236.379,-56.915"/>
</g>
<!-- Node57&#45;&gt;Node50 -->
<g id="edge7" class="edge">
<title>Node57&#45;&gt;Node50</title>
<path fill="none" stroke="#191970" d="M240.5191,-109.7175C231.1775,-100.1997 219.7541,-88.5608 212.089,-80.7511"/>
<polygon fill="#191970" stroke="#191970" points="238.2455,-112.3978 247.7481,-117.083 243.2413,-107.4945 238.2455,-112.3978"/>
</g>
<!-- Node57&#45;&gt;Node61 -->
<g id="edge8" class="edge">
<title>Node57&#45;&gt;Node61</title>
<path fill="none" stroke="#191970" d="M272.8299,-110.2533C282.765,-100.6731 295.0875,-88.7906 303.3389,-80.8339"/>
<polygon fill="#191970" stroke="#191970" points="270.2664,-107.8631 265.4974,-117.324 275.1253,-112.902 270.2664,-107.8631"/>
</g>
</g>
</svg>
