<?xml version="1.0" encoding="UTF-8" standalone="no"?>
<!DOCTYPE svg PUBLIC "-//W3C//DTD SVG 1.1//EN"
 "http://www.w3.org/Graphics/SVG/1.1/DTD/svg11.dtd">
<!-- Generated by graphviz version 2.38.0 (20140413.2041)
 -->
<!-- Title: ggF_tth_htogaga Pages: 1 -->
<svg width="85pt" height="134pt"
 viewBox="0.00 0.00 85.00 134.00" xmlns="http://www.w3.org/2000/svg" xmlns:xlink="http://www.w3.org/1999/xlink">
<g id="graph0" class="graph" transform="scale(1 1) rotate(0) translate(4 130)">
<title>ggF_tth_htogaga</title>
<!-- Node1 -->
<g id="node1" class="node"><title>Node1</title>
<polygon fill="#bfbfbf" stroke="black" points="0,-0.5 0,-17.5 77,-17.5 77,-0.5 0,-0.5"/>
<text text-anchor="middle" x="38.5" y="-7.1" font-family="Helvetica,sans-Serif" font-size="8.00">ggF_tth_htogaga</text>
</g>
<!-- Node2 -->
<g id="node2" class="node"><title>Node2</title>
<g id="a_node2"><a xlink:href="../../d7/d2f/classlight_higgs.html" target="_top" xlink:title="lightHiggs">
<polygon fill="none" stroke="black" points="12.5,-54.5 12.5,-71.5 64.5,-71.5 64.5,-54.5 12.5,-54.5"/>
<text text-anchor="middle" x="38.5" y="-61.1" font-family="Helvetica,sans-Serif" font-size="8.00">lightHiggs</text>
</a>
</g>
</g>
<!-- Node2&#45;&gt;Node1 -->
<g id="edge1" class="edge"><title>Node2&#45;&gt;Node1</title>
<path fill="none" stroke="midnightblue" d="M38.5,-44.0621C38.5,-35.0603 38.5,-24.6277 38.5,-17.7043"/>
<polygon fill="midnightblue" stroke="midnightblue" points="35.0001,-44.3272 38.5,-54.3272 42.0001,-44.3273 35.0001,-44.3272"/>
</g>
<!-- Node3 -->
<g id="node3" class="node"><title>Node3</title>
<g id="a_node3"><a xlink:href="../../dc/d1f/class_th_observable.html" target="_top" xlink:title="A class for a model prediction of an observable. ">
<polygon fill="none" stroke="black" points="5,-108.5 5,-125.5 72,-125.5 72,-108.5 5,-108.5"/>
<text text-anchor="middle" x="38.5" y="-115.1" font-family="Helvetica,sans-Serif" font-size="8.00">ThObservable</text>
</a>
</g>
</g>
<!-- Node3&#45;&gt;Node2 -->
<g id="edge2" class="edge"><title>Node3&#45;&gt;Node2</title>
<path fill="none" stroke="midnightblue" d="M38.5,-98.0621C38.5,-89.0603 38.5,-78.6277 38.5,-71.7043"/>
<polygon fill="midnightblue" stroke="midnightblue" points="35.0001,-98.3272 38.5,-108.327 42.0001,-98.3273 35.0001,-98.3272"/>
</g>
</g>
</svg>
