<?xml version="1.0" encoding="UTF-8" standalone="no"?>
<!DOCTYPE svg PUBLIC "-//W3C//DTD SVG 1.1//EN"
 "http://www.w3.org/Graphics/SVG/1.1/DTD/svg11.dtd">
<!-- Generated by graphviz version 2.40.1 (20161225.0304)
 -->
<!-- Title: main.cpp Pages: 1 -->
<svg width="457pt" height="134pt"
 viewBox="0.00 0.00 457.00 134.00" xmlns="http://www.w3.org/2000/svg" xmlns:xlink="http://www.w3.org/1999/xlink">
<g id="graph0" class="graph" transform="scale(1 1) rotate(0) translate(4 130)">
<title>main.cpp</title>
<!-- Node0 -->
<g id="node1" class="node">
<title>Node0</title>
<polygon fill="#bfbfbf" stroke="#000000" points="164.5,-108.5 164.5,-125.5 213.5,-125.5 213.5,-108.5 164.5,-108.5"/>
<text text-anchor="middle" x="189" y="-115.1" font-family="Helvetica,sans-Serif" font-size="8.00" fill="#000000">main.cpp</text>
</g>
<!-- Node1 -->
<g id="node2" class="node">
<title>Node1</title>
<polygon fill="none" stroke="#bfbfbf" points="0,-54.5 0,-71.5 36,-71.5 36,-54.5 0,-54.5"/>
<text text-anchor="middle" x="18" y="-61.1" font-family="Helvetica,sans-Serif" font-size="8.00" fill="#000000">mpi.h</text>
</g>
<!-- Node0&#45;&gt;Node1 -->
<g id="edge1" class="edge">
<title>Node0&#45;&gt;Node1</title>
<path fill="none" stroke="#191970" d="M164.4955,-109.4965C137.6535,-101.2438 93.0976,-87.4478 46.0409,-72.2962"/>
<polygon fill="#191970" stroke="#191970" points="46.8762,-68.888 36.2845,-69.1467 44.7257,-75.5495 46.8762,-68.888"/>
</g>
<!-- Node2 -->
<g id="node3" class="node">
<title>Node2</title>
<polygon fill="none" stroke="#bfbfbf" points="54.5,-54.5 54.5,-71.5 95.5,-71.5 95.5,-54.5 54.5,-54.5"/>
<text text-anchor="middle" x="75" y="-61.1" font-family="Helvetica,sans-Serif" font-size="8.00" fill="#000000">math.h</text>
</g>
<!-- Node0&#45;&gt;Node2 -->
<g id="edge2" class="edge">
<title>Node0&#45;&gt;Node2</title>
<path fill="none" stroke="#191970" d="M170.9364,-108.4435C152.4252,-99.6751 123.4193,-85.9355 102.1445,-75.8579"/>
<polygon fill="#191970" stroke="#191970" points="103.5148,-72.6343 92.9791,-71.5164 100.5182,-78.9604 103.5148,-72.6343"/>
</g>
<!-- Node3 -->
<g id="node4" class="node">
<title>Node3</title>
<polygon fill="none" stroke="#bfbfbf" points="113.5,-54.5 113.5,-71.5 160.5,-71.5 160.5,-54.5 113.5,-54.5"/>
<text text-anchor="middle" x="137" y="-61.1" font-family="Helvetica,sans-Serif" font-size="8.00" fill="#000000">iostream</text>
</g>
<!-- Node0&#45;&gt;Node3 -->
<g id="edge3" class="edge">
<title>Node0&#45;&gt;Node3</title>
<path fill="none" stroke="#191970" d="M180.4133,-108.083C172.841,-100.2195 161.6218,-88.5688 152.4856,-79.0813"/>
<polygon fill="#191970" stroke="#191970" points="154.8845,-76.5266 145.427,-71.7511 149.8423,-81.3821 154.8845,-76.5266"/>
</g>
<!-- Node4 -->
<g id="node5" class="node">
<title>Node4</title>
<polygon fill="none" stroke="#bfbfbf" points="202,-.5 202,-17.5 238,-17.5 238,-.5 202,-.5"/>
<text text-anchor="middle" x="220" y="-7.1" font-family="Helvetica,sans-Serif" font-size="8.00" fill="#000000">string</text>
</g>
<!-- Node0&#45;&gt;Node4 -->
<g id="edge4" class="edge">
<title>Node0&#45;&gt;Node4</title>
<path fill="none" stroke="#191970" d="M191.5369,-108.1619C196.5801,-90.5918 207.9598,-50.9465 214.7033,-27.4532"/>
<polygon fill="#191970" stroke="#191970" points="218.1198,-28.2359 217.5147,-17.6584 211.3915,-26.3046 218.1198,-28.2359"/>
</g>
<!-- Node5 -->
<g id="node6" class="node">
<title>Node5</title>
<g id="a_node6"><a xlink:href="../../d1/d1b/interfaces_8hpp.html" target="_top" xlink:title="interfaces.hpp">
<polygon fill="none" stroke="#000000" points="217.5,-54.5 217.5,-71.5 284.5,-71.5 284.5,-54.5 217.5,-54.5"/>
<text text-anchor="middle" x="251" y="-61.1" font-family="Helvetica,sans-Serif" font-size="8.00" fill="#000000">interfaces.hpp</text>
</a>
</g>
</g>
<!-- Node0&#45;&gt;Node5 -->
<g id="edge5" class="edge">
<title>Node0&#45;&gt;Node5</title>
<path fill="none" stroke="#191970" d="M198.9614,-108.324C208.1266,-100.3414 221.9372,-88.3128 233.0282,-78.6529"/>
<polygon fill="#191970" stroke="#191970" points="235.6153,-81.041 240.8574,-71.8339 231.0178,-75.7624 235.6153,-81.041"/>
</g>
<!-- Node6 -->
<g id="node7" class="node">
<title>Node6</title>
<polygon fill="none" stroke="#bfbfbf" points="303,-54.5 303,-71.5 349,-71.5 349,-54.5 303,-54.5"/>
<text text-anchor="middle" x="326" y="-61.1" font-family="Helvetica,sans-Serif" font-size="8.00" fill="#000000">HEPfit.h</text>
</g>
<!-- Node0&#45;&gt;Node6 -->
<g id="edge7" class="edge">
<title>Node0&#45;&gt;Node6</title>
<path fill="none" stroke="#191970" d="M210.7081,-108.4435C233.3548,-99.5171 269.0721,-85.4387 294.7518,-75.3168"/>
<polygon fill="#191970" stroke="#191970" points="296.3736,-78.4397 304.3935,-71.5164 293.8066,-71.9273 296.3736,-78.4397"/>
</g>
<!-- Node7 -->
<g id="node8" class="node">
<title>Node7</title>
<polygon fill="none" stroke="#bfbfbf" points="367,-54.5 367,-71.5 449,-71.5 449,-54.5 367,-54.5"/>
<text text-anchor="middle" x="408" y="-61.1" font-family="Helvetica,sans-Serif" font-size="8.00" fill="#000000">InputParameters.h</text>
</g>
<!-- Node0&#45;&gt;Node7 -->
<g id="edge8" class="edge">
<title>Node0&#45;&gt;Node7</title>
<path fill="none" stroke="#191970" d="M213.6964,-110.9105C249.9917,-101.961 318.3161,-85.1138 363.4993,-73.9728"/>
<polygon fill="#191970" stroke="#191970" points="364.4587,-77.3411 373.33,-71.5488 362.7828,-70.5447 364.4587,-77.3411"/>
</g>
<!-- Node5&#45;&gt;Node4 -->
<g id="edge6" class="edge">
<title>Node5&#45;&gt;Node4</title>
<path fill="none" stroke="#191970" d="M245.881,-54.083C241.5925,-46.6127 235.3418,-35.7244 230.0577,-26.5199"/>
<polygon fill="#191970" stroke="#191970" points="233.0379,-24.6811 225.0238,-17.7511 226.9671,-28.1662 233.0379,-24.6811"/>
</g>
</g>
</svg>
