<?xml version="1.0" encoding="UTF-8" standalone="no"?>
<!DOCTYPE svg PUBLIC "-//W3C//DTD SVG 1.1//EN"
 "http://www.w3.org/Graphics/SVG/1.1/DTD/svg11.dtd">
<!-- Generated by graphviz version 2.38.0 (20140413.2041)
 -->
<!-- Title: HeffDF2.cpp Pages: 1 -->
<svg width="310pt" height="296pt"
 viewBox="0.00 0.00 310.00 296.00" xmlns="http://www.w3.org/2000/svg" xmlns:xlink="http://www.w3.org/1999/xlink">
<g id="graph0" class="graph" transform="scale(1 1) rotate(0) translate(4 292)">
<title>HeffDF2.cpp</title>
<!-- Node1 -->
<g id="node1" class="node"><title>Node1</title>
<polygon fill="#bfbfbf" stroke="black" points="132,-270.5 132,-287.5 193,-287.5 193,-270.5 132,-270.5"/>
<text text-anchor="middle" x="162.5" y="-277.1" font-family="Helvetica,sans-Serif" font-size="8.00">HeffDF2.cpp</text>
</g>
<!-- Node2 -->
<g id="node2" class="node"><title>Node2</title>
<g id="a_node2"><a xlink:href="../../dd/d03/_heff_d_f2_8h.html" target="_top" xlink:title="HeffDF2.h">
<polygon fill="none" stroke="black" points="90,-216.5 90,-233.5 143,-233.5 143,-216.5 90,-216.5"/>
<text text-anchor="middle" x="116.5" y="-223.1" font-family="Helvetica,sans-Serif" font-size="8.00">HeffDF2.h</text>
</a>
</g>
</g>
<!-- Node1&#45;&gt;Node2 -->
<g id="edge1" class="edge"><title>Node1&#45;&gt;Node2</title>
<path fill="none" stroke="midnightblue" d="M155.713,-270.327C148.986,-262.723 138.495,-250.864 130.056,-241.325"/>
<polygon fill="midnightblue" stroke="midnightblue" points="132.563,-238.875 123.315,-233.704 127.32,-243.513 132.563,-238.875"/>
</g>
<!-- Node5 -->
<g id="node5" class="node"><title>Node5</title>
<g id="a_node5"><a xlink:href="../../d4/d68/_q_c_d_8h.html" target="_top" xlink:title="QCD.h">
<polygon fill="none" stroke="black" points="167,-54.5 167,-71.5 208,-71.5 208,-54.5 167,-54.5"/>
<text text-anchor="middle" x="187.5" y="-61.1" font-family="Helvetica,sans-Serif" font-size="8.00">QCD.h</text>
</a>
</g>
</g>
<!-- Node1&#45;&gt;Node5 -->
<g id="edge12" class="edge"><title>Node1&#45;&gt;Node5</title>
<path fill="none" stroke="midnightblue" d="M163.39,-270.384C166.951,-239.9 180.233,-126.202 185.413,-81.8646"/>
<polygon fill="midnightblue" stroke="midnightblue" points="188.911,-82.0873 186.595,-71.7487 181.958,-81.2751 188.911,-82.0873"/>
</g>
<!-- Node3 -->
<g id="node3" class="node"><title>Node3</title>
<g id="a_node3"><a xlink:href="../../d6/d0a/_standard_model_8h.html" target="_top" xlink:title="StandardModel.h">
<polygon fill="none" stroke="red" points="85,-108.5 85,-125.5 162,-125.5 162,-108.5 85,-108.5"/>
<text text-anchor="middle" x="123.5" y="-115.1" font-family="Helvetica,sans-Serif" font-size="8.00">StandardModel.h</text>
</a>
</g>
</g>
<!-- Node2&#45;&gt;Node3 -->
<g id="edge2" class="edge"><title>Node2&#45;&gt;Node3</title>
<path fill="none" stroke="midnightblue" d="M120.402,-216.464C124.6,-207.897 131.008,-193.364 133.5,-180 136.313,-164.912 133.009,-147.671 129.465,-135.207"/>
<polygon fill="midnightblue" stroke="midnightblue" points="132.795,-134.13 126.435,-125.657 126.123,-136.247 132.795,-134.13"/>
</g>
<!-- Node9 -->
<g id="node9" class="node"><title>Node9</title>
<g id="a_node9"><a xlink:href="../../db/dba/_wilson_coefficient_8h.html" target="_top" xlink:title="WilsonCoefficient.h">
<polygon fill="none" stroke="red" points="0,-54.5 0,-71.5 85,-71.5 85,-54.5 0,-54.5"/>
<text text-anchor="middle" x="42.5" y="-61.1" font-family="Helvetica,sans-Serif" font-size="8.00">WilsonCoefficient.h</text>
</a>
</g>
</g>
<!-- Node2&#45;&gt;Node9 -->
<g id="edge9" class="edge"><title>Node2&#45;&gt;Node9</title>
<path fill="none" stroke="midnightblue" d="M101.791,-216.353C88.9791,-208.876 71.007,-196.255 61.5,-180 43.3499,-148.966 41.1825,-105.71 41.5957,-81.751"/>
<polygon fill="midnightblue" stroke="midnightblue" points="45.0963,-81.7934 41.9471,-71.6774 38.1005,-81.5493 45.0963,-81.7934"/>
</g>
<!-- Node10 -->
<g id="node10" class="node"><title>Node10</title>
<g id="a_node10"><a xlink:href="../../de/dce/_evol_d_f2_8h.html" target="_top" xlink:title="EvolDF2.h">
<polygon fill="none" stroke="red" points="70.5,-162.5 70.5,-179.5 124.5,-179.5 124.5,-162.5 70.5,-162.5"/>
<text text-anchor="middle" x="97.5" y="-169.1" font-family="Helvetica,sans-Serif" font-size="8.00">EvolDF2.h</text>
</a>
</g>
</g>
<!-- Node2&#45;&gt;Node10 -->
<g id="edge10" class="edge"><title>Node2&#45;&gt;Node10</title>
<path fill="none" stroke="midnightblue" d="M113.696,-216.327C111.115,-209.261 107.19,-198.52 103.851,-189.381"/>
<polygon fill="midnightblue" stroke="midnightblue" points="107.034,-187.896 100.315,-179.704 100.46,-190.298 107.034,-187.896"/>
</g>
<!-- Node4 -->
<g id="node4" class="node"><title>Node4</title>
<g id="a_node4"><a xlink:href="../../d9/d72/gslpp_8h.html" target="_top" xlink:title="gslpp.h">
<polygon fill="none" stroke="red" points="103.5,-54.5 103.5,-71.5 145.5,-71.5 145.5,-54.5 103.5,-54.5"/>
<text text-anchor="middle" x="124.5" y="-61.1" font-family="Helvetica,sans-Serif" font-size="8.00">gslpp.h</text>
</a>
</g>
</g>
<!-- Node3&#45;&gt;Node4 -->
<g id="edge3" class="edge"><title>Node3&#45;&gt;Node4</title>
<path fill="none" stroke="midnightblue" d="M123.648,-108.327C123.78,-101.414 123.981,-90.985 124.154,-81.9789"/>
<polygon fill="midnightblue" stroke="midnightblue" points="127.659,-81.7697 124.352,-71.7043 120.66,-81.6351 127.659,-81.7697"/>
</g>
<!-- Node3&#45;&gt;Node5 -->
<g id="edge4" class="edge"><title>Node3&#45;&gt;Node5</title>
<path fill="none" stroke="midnightblue" d="M132.943,-108.327C142.68,-100.416 158.086,-87.8986 170.047,-78.1802"/>
<polygon fill="midnightblue" stroke="midnightblue" points="172.464,-80.7266 178.018,-71.7043 168.05,-75.2938 172.464,-80.7266"/>
</g>
<!-- Node3&#45;&gt;Node9 -->
<g id="edge8" class="edge"><title>Node3&#45;&gt;Node9</title>
<path fill="none" stroke="midnightblue" d="M111.548,-108.327C98.7931,-100.139 78.3514,-87.0157 63.0136,-77.1692"/>
<polygon fill="midnightblue" stroke="midnightblue" points="64.5435,-73.9923 54.2375,-71.5352 60.7619,-79.8829 64.5435,-73.9923"/>
</g>
<!-- Node6 -->
<g id="node6" class="node"><title>Node6</title>
<g id="a_node6"><a xlink:href="../../da/ded/_model_8h.html" target="_top" xlink:title="Model.h">
<polygon fill="none" stroke="red" points="101,-0.5 101,-17.5 146,-17.5 146,-0.5 101,-0.5"/>
<text text-anchor="middle" x="123.5" y="-7.1" font-family="Helvetica,sans-Serif" font-size="8.00">Model.h</text>
</a>
</g>
</g>
<!-- Node5&#45;&gt;Node6 -->
<g id="edge5" class="edge"><title>Node5&#45;&gt;Node6</title>
<path fill="none" stroke="midnightblue" d="M178.057,-54.3272C168.32,-46.416 152.914,-33.8986 140.953,-24.1802"/>
<polygon fill="midnightblue" stroke="midnightblue" points="142.95,-21.2938 132.982,-17.7043 138.536,-26.7266 142.95,-21.2938"/>
</g>
<!-- Node7 -->
<g id="node7" class="node"><title>Node7</title>
<g id="a_node7"><a xlink:href="../../d1/d1a/_meson_8h.html" target="_top" xlink:title="Meson.h">
<polygon fill="none" stroke="red" points="164,-0.5 164,-17.5 211,-17.5 211,-0.5 164,-0.5"/>
<text text-anchor="middle" x="187.5" y="-7.1" font-family="Helvetica,sans-Serif" font-size="8.00">Meson.h</text>
</a>
</g>
</g>
<!-- Node5&#45;&gt;Node7 -->
<g id="edge6" class="edge"><title>Node5&#45;&gt;Node7</title>
<path fill="none" stroke="midnightblue" d="M187.5,-54.3272C187.5,-47.4145 187.5,-36.985 187.5,-27.9789"/>
<polygon fill="midnightblue" stroke="midnightblue" points="191,-27.7042 187.5,-17.7043 184,-27.7043 191,-27.7042"/>
</g>
<!-- Node8 -->
<g id="node8" class="node"><title>Node8</title>
<g id="a_node8"><a xlink:href="../../d4/d36/_order_scheme_8h.html" target="_top" xlink:title="OrderScheme.h">
<polygon fill="none" stroke="black" points="229,-0.5 229,-17.5 302,-17.5 302,-0.5 229,-0.5"/>
<text text-anchor="middle" x="265.5" y="-7.1" font-family="Helvetica,sans-Serif" font-size="8.00">OrderScheme.h</text>
</a>
</g>
</g>
<!-- Node5&#45;&gt;Node8 -->
<g id="edge7" class="edge"><title>Node5&#45;&gt;Node8</title>
<path fill="none" stroke="midnightblue" d="M199.009,-54.3272C211.292,-46.1388 230.976,-33.0157 245.746,-23.1692"/>
<polygon fill="midnightblue" stroke="midnightblue" points="247.818,-25.9944 254.197,-17.5352 243.935,-20.1701 247.818,-25.9944"/>
</g>
<!-- Node10&#45;&gt;Node3 -->
<g id="edge11" class="edge"><title>Node10&#45;&gt;Node3</title>
<path fill="none" stroke="midnightblue" d="M101.336,-162.327C104.946,-155.107 110.475,-144.051 115.107,-134.787"/>
<polygon fill="midnightblue" stroke="midnightblue" points="118.306,-136.214 119.648,-125.704 112.045,-133.083 118.306,-136.214"/>
</g>
</g>
</svg>
