<?xml version="1.0" encoding="UTF-8" standalone="no"?>
<!DOCTYPE svg PUBLIC "-//W3C//DTD SVG 1.1//EN"
 "http://www.w3.org/Graphics/SVG/1.1/DTD/svg11.dtd">
<!-- Generated by graphviz version 2.40.1 (20161225.0304)
 -->
<!-- Title: Rcharm.h Pages: 1 -->
<svg width="168pt" height="134pt"
 viewBox="0.00 0.00 168.00 134.00" xmlns="http://www.w3.org/2000/svg" xmlns:xlink="http://www.w3.org/1999/xlink">
<g id="graph0" class="graph" transform="scale(1 1) rotate(0) translate(4 130)">
<title>Rcharm.h</title>
<!-- Node5 -->
<g id="node1" class="node">
<title>Node5</title>
<polygon fill="#bfbfbf" stroke="#000000" points="59.5,-108.5 59.5,-125.5 110.5,-125.5 110.5,-108.5 59.5,-108.5"/>
<text text-anchor="middle" x="85" y="-115.1" font-family="Helvetica,sans-Serif" font-size="8.00" fill="#000000">Rcharm.h</text>
</g>
<!-- Node6 -->
<g id="node2" class="node">
<title>Node6</title>
<g id="a_node2"><a xlink:href="../../dd/df3/_e_w_observables_8h.html" target="_top" xlink:title="A header file for the observables defined in EW module. ">
<polygon fill="none" stroke="#000000" points=".5,-54.5 .5,-71.5 81.5,-71.5 81.5,-54.5 .5,-54.5"/>
<text text-anchor="middle" x="41" y="-61.1" font-family="Helvetica,sans-Serif" font-size="8.00" fill="#000000">EWObservables.h</text>
</a>
</g>
</g>
<!-- Node5&#45;&gt;Node6 -->
<g id="edge1" class="edge">
<title>Node5&#45;&gt;Node6</title>
<path fill="none" stroke="#191970" d="M71.2655,-100.144C63.5995,-90.7357 54.3667,-79.4046 48.1305,-71.7511"/>
<polygon fill="#191970" stroke="#191970" points="68.7042,-102.5415 77.7343,-108.083 74.1309,-98.1198 68.7042,-102.5415"/>
</g>
<!-- Node8 -->
<g id="node4" class="node">
<title>Node8</title>
<g id="a_node4"><a xlink:href="../../d9/d02/_rcharm_8cpp.html" target="_top" xlink:title="Rcharm.cpp">
<polygon fill="none" stroke="#000000" points="100,-54.5 100,-71.5 160,-71.5 160,-54.5 100,-54.5"/>
<text text-anchor="middle" x="130" y="-61.1" font-family="Helvetica,sans-Serif" font-size="8.00" fill="#000000">Rcharm.cpp</text>
</a>
</g>
</g>
<!-- Node5&#45;&gt;Node8 -->
<g id="edge3" class="edge">
<title>Node5&#45;&gt;Node8</title>
<path fill="none" stroke="#191970" d="M99.0467,-100.144C106.8869,-90.7357 116.3295,-79.4046 122.7074,-71.7511"/>
<polygon fill="#191970" stroke="#191970" points="96.1439,-98.1601 92.4308,-108.083 101.5215,-102.6414 96.1439,-98.1601"/>
</g>
<!-- Node7 -->
<g id="node3" class="node">
<title>Node7</title>
<g id="a_node3"><a xlink:href="../../d1/de2/_th_obs_factory_8cpp.html" target="_top" xlink:title="ThObsFactory.cpp">
<polygon fill="none" stroke="#000000" points="0,-.5 0,-17.5 82,-17.5 82,-.5 0,-.5"/>
<text text-anchor="middle" x="41" y="-7.1" font-family="Helvetica,sans-Serif" font-size="8.00" fill="#000000">ThObsFactory.cpp</text>
</a>
</g>
</g>
<!-- Node6&#45;&gt;Node7 -->
<g id="edge2" class="edge">
<title>Node6&#45;&gt;Node7</title>
<path fill="none" stroke="#191970" d="M41,-43.8045C41,-34.9102 41,-24.7798 41,-17.7511"/>
<polygon fill="#191970" stroke="#191970" points="37.5001,-44.083 41,-54.083 44.5001,-44.083 37.5001,-44.083"/>
</g>
</g>
</svg>
