<?xml version="1.0" encoding="UTF-8" standalone="no"?>
<!DOCTYPE svg PUBLIC "-//W3C//DTD SVG 1.1//EN"
 "http://www.w3.org/Graphics/SVG/1.1/DTD/svg11.dtd">
<!-- Generated by graphviz version 2.40.1 (20161225.0304)
 -->
<!-- Title: ee_WW.h Pages: 1 -->
<svg width="90pt" height="134pt"
 viewBox="0.00 0.00 90.00 134.00" xmlns="http://www.w3.org/2000/svg" xmlns:xlink="http://www.w3.org/1999/xlink">
<g id="graph0" class="graph" transform="scale(1 1) rotate(0) translate(4 130)">
<title>ee_WW.h</title>
<!-- Node51 -->
<g id="node1" class="node">
<title>Node51</title>
<polygon fill="#bfbfbf" stroke="#000000" points="15,-108.5 15,-125.5 67,-125.5 67,-108.5 15,-108.5"/>
<text text-anchor="middle" x="41" y="-115.1" font-family="Helvetica,sans-Serif" font-size="8.00" fill="#000000">ee_WW.h</text>
</g>
<!-- Node52 -->
<g id="node2" class="node">
<title>Node52</title>
<g id="a_node2"><a xlink:href="../../dd/df3/_e_w_observables_8h.html" target="_top" xlink:title="A header file for the observables defined in EW module. ">
<polygon fill="none" stroke="#000000" points=".5,-54.5 .5,-71.5 81.5,-71.5 81.5,-54.5 .5,-54.5"/>
<text text-anchor="middle" x="41" y="-61.1" font-family="Helvetica,sans-Serif" font-size="8.00" fill="#000000">EWObservables.h</text>
</a>
</g>
</g>
<!-- Node51&#45;&gt;Node52 -->
<g id="edge1" class="edge">
<title>Node51&#45;&gt;Node52</title>
<path fill="none" stroke="#191970" d="M41,-97.8045C41,-88.9102 41,-78.7798 41,-71.7511"/>
<polygon fill="#191970" stroke="#191970" points="37.5001,-98.083 41,-108.083 44.5001,-98.083 37.5001,-98.083"/>
</g>
<!-- Node53 -->
<g id="node3" class="node">
<title>Node53</title>
<g id="a_node3"><a xlink:href="../../d1/de2/_th_obs_factory_8cpp.html" target="_top" xlink:title="ThObsFactory.cpp">
<polygon fill="none" stroke="#000000" points="0,-.5 0,-17.5 82,-17.5 82,-.5 0,-.5"/>
<text text-anchor="middle" x="41" y="-7.1" font-family="Helvetica,sans-Serif" font-size="8.00" fill="#000000">ThObsFactory.cpp</text>
</a>
</g>
</g>
<!-- Node52&#45;&gt;Node53 -->
<g id="edge2" class="edge">
<title>Node52&#45;&gt;Node53</title>
<path fill="none" stroke="#191970" d="M41,-43.8045C41,-34.9102 41,-24.7798 41,-17.7511"/>
<polygon fill="#191970" stroke="#191970" points="37.5001,-44.083 41,-54.083 44.5001,-44.083 37.5001,-44.083"/>
</g>
</g>
</svg>
