<?xml version="1.0" encoding="UTF-8" standalone="no"?>
<!DOCTYPE svg PUBLIC "-//W3C//DTD SVG 1.1//EN"
 "http://www.w3.org/Graphics/SVG/1.1/DTD/svg11.dtd">
<!-- Generated by graphviz version 2.40.1 (20161225.0304)
 -->
<!-- Title: EWSMOneLoopEW.cpp Pages: 1 -->
<svg width="369pt" height="296pt"
 viewBox="0.00 0.00 368.50 296.00" xmlns="http://www.w3.org/2000/svg" xmlns:xlink="http://www.w3.org/1999/xlink">
<g id="graph0" class="graph" transform="scale(1 1) rotate(0) translate(4 292)">
<title>EWSMOneLoopEW.cpp</title>
<!-- Node0 -->
<g id="node1" class="node">
<title>Node0</title>
<polygon fill="#bfbfbf" stroke="#000000" points="53,-270.5 53,-287.5 155,-287.5 155,-270.5 53,-270.5"/>
<text text-anchor="middle" x="104" y="-277.1" font-family="Helvetica,sans-Serif" font-size="8.00" fill="#000000">EWSMOneLoopEW.cpp</text>
</g>
<!-- Node1 -->
<g id="node2" class="node">
<title>Node1</title>
<polygon fill="none" stroke="#bfbfbf" points="33.5,-216.5 33.5,-233.5 84.5,-233.5 84.5,-216.5 33.5,-216.5"/>
<text text-anchor="middle" x="59" y="-223.1" font-family="Helvetica,sans-Serif" font-size="8.00" fill="#000000">stdexcept</text>
</g>
<!-- Node0&#45;&gt;Node1 -->
<g id="edge1" class="edge">
<title>Node0&#45;&gt;Node1</title>
<path fill="none" stroke="#191970" d="M96.5692,-270.083C90.1473,-262.3768 80.6944,-251.0333 72.8775,-241.6531"/>
<polygon fill="#191970" stroke="#191970" points="75.3832,-239.1927 66.2926,-233.7511 70.0057,-243.674 75.3832,-239.1927"/>
</g>
<!-- Node2 -->
<g id="node3" class="node">
<title>Node2</title>
<g id="a_node3"><a xlink:href="../../d2/d7c/_e_w_s_m_one_loop_e_w_8h.html" target="_top" xlink:title="EWSMOneLoopEW.h">
<polygon fill="none" stroke="#000000" points="103,-216.5 103,-233.5 197,-233.5 197,-216.5 103,-216.5"/>
<text text-anchor="middle" x="150" y="-223.1" font-family="Helvetica,sans-Serif" font-size="8.00" fill="#000000">EWSMOneLoopEW.h</text>
</a>
</g>
</g>
<!-- Node0&#45;&gt;Node2 -->
<g id="edge2" class="edge">
<title>Node0&#45;&gt;Node2</title>
<path fill="none" stroke="#191970" d="M111.596,-270.083C118.2275,-262.2982 128.021,-250.8015 136.0581,-241.3665"/>
<polygon fill="#191970" stroke="#191970" points="138.725,-243.6332 142.5454,-233.7511 133.3963,-239.0939 138.725,-243.6332"/>
</g>
<!-- Node3 -->
<g id="node4" class="node">
<title>Node3</title>
<g id="a_node4"><a xlink:href="../../d8/d46/_e_w_s_mcache_8h.html" target="_top" xlink:title="EWSMcache.h">
<polygon fill="none" stroke="#000000" points="115.5,-162.5 115.5,-179.5 184.5,-179.5 184.5,-162.5 115.5,-162.5"/>
<text text-anchor="middle" x="150" y="-169.1" font-family="Helvetica,sans-Serif" font-size="8.00" fill="#000000">EWSMcache.h</text>
</a>
</g>
</g>
<!-- Node2&#45;&gt;Node3 -->
<g id="edge3" class="edge">
<title>Node2&#45;&gt;Node3</title>
<path fill="none" stroke="#191970" d="M150,-216.083C150,-209.0059 150,-198.8611 150,-189.9865"/>
<polygon fill="#191970" stroke="#191970" points="153.5001,-189.751 150,-179.7511 146.5001,-189.7511 153.5001,-189.751"/>
</g>
<!-- Node4 -->
<g id="node5" class="node">
<title>Node4</title>
<polygon fill="none" stroke="#bfbfbf" points="0,-108.5 0,-125.5 38,-125.5 38,-108.5 0,-108.5"/>
<text text-anchor="middle" x="19" y="-115.1" font-family="Helvetica,sans-Serif" font-size="8.00" fill="#000000">cmath</text>
</g>
<!-- Node3&#45;&gt;Node4 -->
<g id="edge4" class="edge">
<title>Node3&#45;&gt;Node4</title>
<path fill="none" stroke="#191970" d="M129.2427,-162.4435C107.3031,-153.3998 72.5347,-139.0677 47.9164,-128.9198"/>
<polygon fill="#191970" stroke="#191970" points="48.9583,-125.5636 38.3791,-124.9883 46.2905,-132.0353 48.9583,-125.5636"/>
</g>
<!-- Node5 -->
<g id="node6" class="node">
<title>Node5</title>
<g id="a_node6"><a xlink:href="../../d3/d6b/_p_vfunctions_8h.html" target="_top" xlink:title="PVfunctions.h">
<polygon fill="none" stroke="#000000" points="56,-108.5 56,-125.5 122,-125.5 122,-108.5 56,-108.5"/>
<text text-anchor="middle" x="89" y="-115.1" font-family="Helvetica,sans-Serif" font-size="8.00" fill="#000000">PVfunctions.h</text>
</a>
</g>
</g>
<!-- Node3&#45;&gt;Node5 -->
<g id="edge5" class="edge">
<title>Node3&#45;&gt;Node5</title>
<path fill="none" stroke="#191970" d="M140.1993,-162.324C131.1819,-154.3414 117.594,-142.3128 106.682,-132.6529"/>
<polygon fill="#191970" stroke="#191970" points="108.7866,-129.8416 98.979,-125.8339 104.1467,-135.083 108.7866,-129.8416"/>
</g>
<!-- Node22 -->
<g id="node8" class="node">
<title>Node22</title>
<g id="a_node8"><a xlink:href="../../dd/dc1/_polylogarithms_8h.html" target="_top" xlink:title="Polylogarithms.h">
<polygon fill="none" stroke="#ff0000" points="112,-54.5 112,-71.5 188,-71.5 188,-54.5 112,-54.5"/>
<text text-anchor="middle" x="150" y="-61.1" font-family="Helvetica,sans-Serif" font-size="8.00" fill="#000000">Polylogarithms.h</text>
</a>
</g>
</g>
<!-- Node3&#45;&gt;Node22 -->
<g id="edge9" class="edge">
<title>Node3&#45;&gt;Node22</title>
<path fill="none" stroke="#191970" d="M150,-162.1619C150,-144.6713 150,-105.3048 150,-81.7731"/>
<polygon fill="#191970" stroke="#191970" points="153.5001,-81.6583 150,-71.6584 146.5001,-81.6584 153.5001,-81.6583"/>
</g>
<!-- Node24 -->
<g id="node9" class="node">
<title>Node24</title>
<g id="a_node9"><a xlink:href="../../db/d48/_clausen_functions_8h.html" target="_top" xlink:title="ClausenFunctions.h">
<polygon fill="none" stroke="#ff0000" points="178.5,-108.5 178.5,-125.5 265.5,-125.5 265.5,-108.5 178.5,-108.5"/>
<text text-anchor="middle" x="222" y="-115.1" font-family="Helvetica,sans-Serif" font-size="8.00" fill="#000000">ClausenFunctions.h</text>
</a>
</g>
</g>
<!-- Node3&#45;&gt;Node24 -->
<g id="edge10" class="edge">
<title>Node3&#45;&gt;Node24</title>
<path fill="none" stroke="#191970" d="M161.568,-162.324C172.4202,-154.1849 188.8807,-141.8395 201.8834,-132.0874"/>
<polygon fill="#191970" stroke="#191970" points="204.3215,-134.6339 210.2215,-125.8339 200.1214,-129.0339 204.3215,-134.6339"/>
</g>
<!-- Node25 -->
<g id="node10" class="node">
<title>Node25</title>
<g id="a_node10"><a xlink:href="../../d6/d0a/_standard_model_8h.html" target="_top" xlink:title="StandardModel.h">
<polygon fill="none" stroke="#ff0000" points="283.5,-108.5 283.5,-125.5 360.5,-125.5 360.5,-108.5 283.5,-108.5"/>
<text text-anchor="middle" x="322" y="-115.1" font-family="Helvetica,sans-Serif" font-size="8.00" fill="#000000">StandardModel.h</text>
</a>
</g>
</g>
<!-- Node3&#45;&gt;Node25 -->
<g id="edge11" class="edge">
<title>Node3&#45;&gt;Node25</title>
<path fill="none" stroke="#191970" d="M177.2539,-162.4435C206.4411,-153.2801 252.9211,-138.6876 285.3093,-128.5192"/>
<polygon fill="#191970" stroke="#191970" points="286.3812,-131.8512 294.8736,-125.5164 284.2843,-125.1726 286.3812,-131.8512"/>
</g>
<!-- Node6 -->
<g id="node7" class="node">
<title>Node6</title>
<g id="a_node7"><a xlink:href="../../d9/d72/gslpp_8h.html" target="_top" xlink:title="gslpp.h">
<polygon fill="none" stroke="#ff0000" points="96,-.5 96,-17.5 138,-17.5 138,-.5 96,-.5"/>
<text text-anchor="middle" x="117" y="-7.1" font-family="Helvetica,sans-Serif" font-size="8.00" fill="#000000">gslpp.h</text>
</a>
</g>
</g>
<!-- Node5&#45;&gt;Node6 -->
<g id="edge6" class="edge">
<title>Node5&#45;&gt;Node6</title>
<path fill="none" stroke="#191970" d="M90.6784,-108.3857C93.1055,-96.2022 97.8701,-73.2726 103,-54 105.3706,-45.094 108.3654,-35.3132 110.9763,-27.1517"/>
<polygon fill="#191970" stroke="#191970" points="114.3296,-28.1576 114.1025,-17.5652 107.6745,-25.9873 114.3296,-28.1576"/>
</g>
<!-- Node5&#45;&gt;Node22 -->
<g id="edge7" class="edge">
<title>Node5&#45;&gt;Node22</title>
<path fill="none" stroke="#191970" d="M98.8007,-108.324C107.8181,-100.3414 121.406,-88.3128 132.318,-78.6529"/>
<polygon fill="#191970" stroke="#191970" points="134.8533,-81.083 140.021,-71.8339 130.2134,-75.8416 134.8533,-81.083"/>
</g>
<!-- Node22&#45;&gt;Node6 -->
<g id="edge8" class="edge">
<title>Node22&#45;&gt;Node6</title>
<path fill="none" stroke="#191970" d="M144.5507,-54.083C139.9855,-46.6127 133.3316,-35.7244 127.7066,-26.5199"/>
<polygon fill="#191970" stroke="#191970" points="130.5489,-24.4588 122.3479,-17.7511 124.5759,-28.109 130.5489,-24.4588"/>
</g>
</g>
</svg>
