<?xml version="1.0" encoding="UTF-8" standalone="no"?>
<!DOCTYPE svg PUBLIC "-//W3C//DTD SVG 1.1//EN"
 "http://www.w3.org/Graphics/SVG/1.1/DTD/svg11.dtd">
<!-- Generated by graphviz version 2.40.1 (20161225.0304)
 -->
<!-- Title: SFermiondeltas.cpp Pages: 1 -->
<svg width="329pt" height="296pt"
 viewBox="0.00 0.00 328.50 296.00" xmlns="http://www.w3.org/2000/svg" xmlns:xlink="http://www.w3.org/1999/xlink">
<g id="graph0" class="graph" transform="scale(1 1) rotate(0) translate(4 292)">
<title>SFermiondeltas.cpp</title>
<!-- Node0 -->
<g id="node1" class="node">
<title>Node0</title>
<polygon fill="#bfbfbf" stroke="#000000" points="68,-270.5 68,-287.5 156,-287.5 156,-270.5 68,-270.5"/>
<text text-anchor="middle" x="112" y="-277.1" font-family="Helvetica,sans-Serif" font-size="8.00" fill="#000000">SFermiondeltas.cpp</text>
</g>
<!-- Node1 -->
<g id="node2" class="node">
<title>Node1</title>
<g id="a_node2"><a xlink:href="../../d1/dc6/_s_fermiondeltas_8h.html" target="_top" xlink:title="SFermiondeltas.h">
<polygon fill="none" stroke="#000000" points="72.5,-216.5 72.5,-233.5 151.5,-233.5 151.5,-216.5 72.5,-216.5"/>
<text text-anchor="middle" x="112" y="-223.1" font-family="Helvetica,sans-Serif" font-size="8.00" fill="#000000">SFermiondeltas.h</text>
</a>
</g>
</g>
<!-- Node0&#45;&gt;Node1 -->
<g id="edge1" class="edge">
<title>Node0&#45;&gt;Node1</title>
<path fill="none" stroke="#191970" d="M112,-270.083C112,-263.0059 112,-252.8611 112,-243.9865"/>
<polygon fill="#191970" stroke="#191970" points="115.5001,-243.751 112,-233.7511 108.5001,-243.7511 115.5001,-243.751"/>
</g>
<!-- Node2 -->
<g id="node3" class="node">
<title>Node2</title>
<g id="a_node3"><a xlink:href="../../dd/dcd/_th_observable_8h.html" target="_top" xlink:title="ThObservable.h">
<polygon fill="none" stroke="#000000" points="37.5,-162.5 37.5,-179.5 110.5,-179.5 110.5,-162.5 37.5,-162.5"/>
<text text-anchor="middle" x="74" y="-169.1" font-family="Helvetica,sans-Serif" font-size="8.00" fill="#000000">ThObservable.h</text>
</a>
</g>
</g>
<!-- Node1&#45;&gt;Node2 -->
<g id="edge2" class="edge">
<title>Node1&#45;&gt;Node2</title>
<path fill="none" stroke="#191970" d="M105.7251,-216.083C100.3575,-208.4554 92.4824,-197.2645 85.9213,-187.9408"/>
<polygon fill="#191970" stroke="#191970" points="88.7755,-185.9149 80.1582,-179.7511 83.0508,-189.9434 88.7755,-185.9149"/>
</g>
<!-- Node5 -->
<g id="node6" class="node">
<title>Node5</title>
<g id="a_node6"><a xlink:href="../../d5/d37/_s_u_s_y_8h.html" target="_top" xlink:title="SUSY.h">
<polygon fill="none" stroke="#000000" points="146.5,-162.5 146.5,-179.5 191.5,-179.5 191.5,-162.5 146.5,-162.5"/>
<text text-anchor="middle" x="169" y="-169.1" font-family="Helvetica,sans-Serif" font-size="8.00" fill="#000000">SUSY.h</text>
</a>
</g>
</g>
<!-- Node1&#45;&gt;Node5 -->
<g id="edge5" class="edge">
<title>Node1&#45;&gt;Node5</title>
<path fill="none" stroke="#191970" d="M121.158,-216.324C129.5015,-208.4196 142.0324,-196.5482 152.1769,-186.9377"/>
<polygon fill="#191970" stroke="#191970" points="154.8229,-189.2522 159.6753,-179.8339 150.0087,-184.1705 154.8229,-189.2522"/>
</g>
<!-- Node3 -->
<g id="node4" class="node">
<title>Node3</title>
<polygon fill="none" stroke="#bfbfbf" points="0,-108.5 0,-125.5 38,-125.5 38,-108.5 0,-108.5"/>
<text text-anchor="middle" x="19" y="-115.1" font-family="Helvetica,sans-Serif" font-size="8.00" fill="#000000">vector</text>
</g>
<!-- Node2&#45;&gt;Node3 -->
<g id="edge3" class="edge">
<title>Node2&#45;&gt;Node3</title>
<path fill="none" stroke="#191970" d="M64.9179,-162.083C56.8287,-154.1409 44.8046,-142.3354 35.0898,-132.7973"/>
<polygon fill="#191970" stroke="#191970" points="37.5009,-130.2595 27.9131,-125.7511 32.5967,-135.2545 37.5009,-130.2595"/>
</g>
<!-- Node4 -->
<g id="node5" class="node">
<title>Node4</title>
<polygon fill="none" stroke="#bfbfbf" points="56,-108.5 56,-125.5 92,-125.5 92,-108.5 56,-108.5"/>
<text text-anchor="middle" x="74" y="-115.1" font-family="Helvetica,sans-Serif" font-size="8.00" fill="#000000">string</text>
</g>
<!-- Node2&#45;&gt;Node4 -->
<g id="edge4" class="edge">
<title>Node2&#45;&gt;Node4</title>
<path fill="none" stroke="#191970" d="M74,-162.083C74,-155.0059 74,-144.8611 74,-135.9865"/>
<polygon fill="#191970" stroke="#191970" points="77.5001,-135.751 74,-125.7511 70.5001,-135.7511 77.5001,-135.751"/>
</g>
<!-- Node6 -->
<g id="node7" class="node">
<title>Node6</title>
<g id="a_node7"><a xlink:href="../../d9/d72/gslpp_8h.html" target="_top" xlink:title="gslpp.h">
<polygon fill="none" stroke="#ff0000" points="180,-54.5 180,-71.5 222,-71.5 222,-54.5 180,-54.5"/>
<text text-anchor="middle" x="201" y="-61.1" font-family="Helvetica,sans-Serif" font-size="8.00" fill="#000000">gslpp.h</text>
</a>
</g>
</g>
<!-- Node5&#45;&gt;Node6 -->
<g id="edge6" class="edge">
<title>Node5&#45;&gt;Node6</title>
<path fill="none" stroke="#191970" d="M159.6143,-162.3685C147.5354,-150.1645 129.2058,-127.2108 139,-108 146.0001,-94.2698 159.3657,-83.7496 171.9002,-76.3465"/>
<polygon fill="#191970" stroke="#191970" points="173.6737,-79.366 180.7774,-71.5055 170.3223,-73.2204 173.6737,-79.366"/>
</g>
<!-- Node22 -->
<g id="node9" class="node">
<title>Node22</title>
<g id="a_node9"><a xlink:href="../../d6/d0a/_standard_model_8h.html" target="_top" xlink:title="StandardModel.h">
<polygon fill="none" stroke="#ff0000" points="148.5,-108.5 148.5,-125.5 225.5,-125.5 225.5,-108.5 148.5,-108.5"/>
<text text-anchor="middle" x="187" y="-115.1" font-family="Helvetica,sans-Serif" font-size="8.00" fill="#000000">StandardModel.h</text>
</a>
</g>
</g>
<!-- Node5&#45;&gt;Node22 -->
<g id="edge8" class="edge">
<title>Node5&#45;&gt;Node22</title>
<path fill="none" stroke="#191970" d="M171.9723,-162.083C174.3838,-154.8486 177.8638,-144.4087 180.8677,-135.3968"/>
<polygon fill="#191970" stroke="#191970" points="184.241,-136.3447 184.083,-125.7511 177.6002,-134.1311 184.241,-136.3447"/>
</g>
<!-- Node52 -->
<g id="node10" class="node">
<title>Node52</title>
<g id="a_node10"><a xlink:href="../../dd/dc9/_s_u_s_y_matching_8h.html" target="_top" xlink:title="SUSYMatching.h">
<polygon fill="none" stroke="#ff0000" points="243.5,-108.5 243.5,-125.5 320.5,-125.5 320.5,-108.5 243.5,-108.5"/>
<text text-anchor="middle" x="282" y="-115.1" font-family="Helvetica,sans-Serif" font-size="8.00" fill="#000000">SUSYMatching.h</text>
</a>
</g>
</g>
<!-- Node5&#45;&gt;Node52 -->
<g id="edge9" class="edge">
<title>Node5&#45;&gt;Node52</title>
<path fill="none" stroke="#191970" d="M186.9052,-162.4435C205.254,-153.6751 234.0054,-139.9355 255.0936,-129.8579"/>
<polygon fill="#191970" stroke="#191970" points="256.665,-132.9862 264.1786,-125.5164 253.6468,-126.6703 256.665,-132.9862"/>
</g>
<!-- Node7 -->
<g id="node8" class="node">
<title>Node7</title>
<g id="a_node8"><a xlink:href="../../d1/dc2/gslpp__complex_8h.html" target="_top" xlink:title="gslpp_complex.h">
<polygon fill="none" stroke="#ff0000" points="162.5,-.5 162.5,-17.5 239.5,-17.5 239.5,-.5 162.5,-.5"/>
<text text-anchor="middle" x="201" y="-7.1" font-family="Helvetica,sans-Serif" font-size="8.00" fill="#000000">gslpp_complex.h</text>
</a>
</g>
</g>
<!-- Node6&#45;&gt;Node7 -->
<g id="edge7" class="edge">
<title>Node6&#45;&gt;Node7</title>
<path fill="none" stroke="#191970" d="M201,-54.083C201,-47.0059 201,-36.8611 201,-27.9865"/>
<polygon fill="#191970" stroke="#191970" points="204.5001,-27.751 201,-17.7511 197.5001,-27.7511 204.5001,-27.751"/>
</g>
<!-- Node52&#45;&gt;Node6 -->
<g id="edge10" class="edge">
<title>Node52&#45;&gt;Node6</title>
<path fill="none" stroke="#191970" d="M268.9859,-108.324C256.4684,-99.979 237.3183,-87.2122 222.5286,-77.3524"/>
<polygon fill="#191970" stroke="#191970" points="224.2437,-74.2894 213.9818,-71.6545 220.3608,-80.1137 224.2437,-74.2894"/>
</g>
</g>
</svg>
