<?xml version="1.0" encoding="UTF-8" standalone="no"?>
<!DOCTYPE svg PUBLIC "-//W3C//DTD SVG 1.1//EN"
 "http://www.w3.org/Graphics/SVG/1.1/DTD/svg11.dtd">
<!-- Generated by graphviz version 2.40.1 (20161225.0304)
 -->
<!-- Title: LHPC::SLHA::SparseDoublyIndexedBlock&lt; ValueClass &gt; Pages: 1 -->
<svg width="1384pt" height="259pt"
 viewBox="0.00 0.00 1384.00 258.81" xmlns="http://www.w3.org/2000/svg" xmlns:xlink="http://www.w3.org/1999/xlink">
<g id="graph0" class="graph" transform="scale(1 1) rotate(0) translate(4 254.8131)">
<title>LHPC::SLHA::SparseDoublyIndexedBlock&lt; ValueClass &gt;</title>
<!-- Node10 -->
<g id="node1" class="node">
<title>Node10</title>
<polygon fill="#bfbfbf" stroke="#000000" points="1257,-110 1257,-136 1376,-136 1376,-110 1257,-110"/>
<text text-anchor="start" x="1265" y="-125.6" font-family="Helvetica,sans-Serif" font-size="8.00" fill="#000000">LHPC::SLHA::SparseDoubly</text>
<text text-anchor="middle" x="1316.5" y="-116.6" font-family="Helvetica,sans-Serif" font-size="8.00" fill="#000000">IndexedBlock&lt; ValueClass &gt;</text>
</g>
<!-- Node11 -->
<g id="node2" class="node">
<title>Node11</title>
<g id="a_node2"><a xlink:href="../../de/d5e/class_l_h_p_c_1_1_s_l_h_a_1_1_indexed_block_template.html" target="_top" xlink:title="LHPC::SLHA::IndexedBlock\lTemplate\&lt; ValueClass,\l InterpreterClass::SparseDoubly\lIndexed\&lt; ValueClass \&gt; \&gt;">
<polygon fill="none" stroke="#000000" points="1090,-101 1090,-145 1220,-145 1220,-101 1090,-101"/>
<text text-anchor="start" x="1098" y="-134.6" font-family="Helvetica,sans-Serif" font-size="8.00" fill="#000000">LHPC::SLHA::IndexedBlock</text>
<text text-anchor="start" x="1098" y="-125.6" font-family="Helvetica,sans-Serif" font-size="8.00" fill="#000000">Template&lt; ValueClass,</text>
<text text-anchor="start" x="1098" y="-116.6" font-family="Helvetica,sans-Serif" font-size="8.00" fill="#000000"> InterpreterClass::SparseDoubly</text>
<text text-anchor="middle" x="1155" y="-107.6" font-family="Helvetica,sans-Serif" font-size="8.00" fill="#000000">Indexed&lt; ValueClass &gt; &gt;</text>
</a>
</g>
</g>
<!-- Node11&#45;&gt;Node10 -->
<g id="edge1" class="edge">
<title>Node11&#45;&gt;Node10</title>
<path fill="none" stroke="#191970" d="M1230.5051,-123C1239.3184,-123 1248.2155,-123 1256.7738,-123"/>
<polygon fill="#191970" stroke="#191970" points="1230.2227,-119.5001 1220.2227,-123 1230.2227,-126.5001 1230.2227,-119.5001"/>
</g>
<!-- Node12 -->
<g id="node3" class="node">
<title>Node12</title>
<g id="a_node3"><a xlink:href="../../d6/daf/class_l_h_p_c_1_1_s_l_h_a_1_1_slha_block.html" target="_top" xlink:title="LHPC::SLHA::SlhaBlock\l\&lt; ValueClass, InterpreterClass\l::SparseDoublyIndexed\&lt; ValueClass \&gt; \&gt;">
<polygon fill="none" stroke="#000000" points="636,-87.5 636,-122.5 797,-122.5 797,-87.5 636,-87.5"/>
<text text-anchor="start" x="644" y="-112.1" font-family="Helvetica,sans-Serif" font-size="8.00" fill="#000000">LHPC::SLHA::SlhaBlock</text>
<text text-anchor="start" x="644" y="-103.1" font-family="Helvetica,sans-Serif" font-size="8.00" fill="#000000">&lt; ValueClass, InterpreterClass</text>
<text text-anchor="middle" x="716.5" y="-94.1" font-family="Helvetica,sans-Serif" font-size="8.00" fill="#000000">::SparseDoublyIndexed&lt; ValueClass &gt; &gt;</text>
</a>
</g>
</g>
<!-- Node12&#45;&gt;Node11 -->
<g id="edge2" class="edge">
<title>Node12&#45;&gt;Node11</title>
<path fill="none" stroke="#191970" d="M807.2589,-108.7256C891.5197,-112.1844 1014.9062,-117.2493 1089.8051,-120.3238"/>
<polygon fill="#191970" stroke="#191970" points="807.3182,-105.2251 797.183,-108.312 807.031,-112.2193 807.3182,-105.2251"/>
</g>
<!-- Node13 -->
<g id="node4" class="node">
<title>Node13</title>
<g id="a_node4"><a xlink:href="../../d2/d20/class_l_h_p_c_1_1_s_l_h_a_1_1_base_slha_block.html" target="_top" xlink:title="LHPC::SLHA::BaseSlhaBlock">
<polygon fill="none" stroke="#000000" points="127,-207.5 127,-224.5 248,-224.5 248,-207.5 127,-207.5"/>
<text text-anchor="middle" x="187.5" y="-214.1" font-family="Helvetica,sans-Serif" font-size="8.00" fill="#000000">LHPC::SLHA::BaseSlhaBlock</text>
</a>
</g>
</g>
<!-- Node13&#45;&gt;Node12 -->
<g id="edge3" class="edge">
<title>Node13&#45;&gt;Node12</title>
<path fill="none" stroke="#191970" d="M258.2982,-222.9579C347.6064,-228.4691 503.3474,-226.9921 618,-166 628.8526,-160.2267 626.3014,-152.553 636,-145 647.2045,-136.2742 660.6151,-128.6976 673.2477,-122.5557"/>
<polygon fill="#191970" stroke="#191970" points="258.4846,-219.4627 248.2747,-222.2926 258.0209,-226.4473 258.4846,-219.4627"/>
</g>
<!-- Node20 -->
<g id="node8" class="node">
<title>Node20</title>
<g id="a_node8"><a xlink:href="../../d6/daf/class_l_h_p_c_1_1_s_l_h_a_1_1_slha_block.html" target="_top" xlink:title="LHPC::SLHA::SlhaBlock\l\&lt; ValueClass, BlockParser \&gt;">
<polygon fill="none" stroke="#ff0000" points="360.5,-116 360.5,-142 478.5,-142 478.5,-116 360.5,-116"/>
<text text-anchor="start" x="368.5" y="-131.6" font-family="Helvetica,sans-Serif" font-size="8.00" fill="#000000">LHPC::SLHA::SlhaBlock</text>
<text text-anchor="middle" x="419.5" y="-122.6" font-family="Helvetica,sans-Serif" font-size="8.00" fill="#000000">&lt; ValueClass, BlockParser &gt;</text>
</a>
</g>
</g>
<!-- Node13&#45;&gt;Node20 -->
<g id="edge8" class="edge">
<title>Node13&#45;&gt;Node20</title>
<path fill="none" stroke="#191970" d="M219.6661,-203.9377C263.0642,-187.6634 340.0667,-158.7875 384.7526,-142.0303"/>
<polygon fill="#191970" stroke="#191970" points="218.3019,-200.7112 210.1676,-207.4997 220.7598,-207.2655 218.3019,-200.7112"/>
</g>
<!-- Node23 -->
<g id="node10" class="node">
<title>Node23</title>
<g id="a_node10"><a xlink:href="../../d6/daf/class_l_h_p_c_1_1_s_l_h_a_1_1_slha_block.html" target="_top" xlink:title="LHPC::SLHA::SlhaBlock\l\&lt; ValueClass, IndexedParser \&gt;">
<polygon fill="none" stroke="#ff0000" points="653,-154 653,-180 780,-180 780,-154 653,-154"/>
<text text-anchor="start" x="661" y="-169.6" font-family="Helvetica,sans-Serif" font-size="8.00" fill="#000000">LHPC::SLHA::SlhaBlock</text>
<text text-anchor="middle" x="716.5" y="-160.6" font-family="Helvetica,sans-Serif" font-size="8.00" fill="#000000">&lt; ValueClass, IndexedParser &gt;</text>
</a>
</g>
</g>
<!-- Node13&#45;&gt;Node23 -->
<g id="edge12" class="edge">
<title>Node13&#45;&gt;Node23</title>
<path fill="none" stroke="#191970" d="M233.548,-226.7128C313.6135,-243.331 482.8546,-269.5228 618,-230 651.3164,-220.2567 684.0731,-195.4204 702.1527,-180.0016"/>
<polygon fill="#191970" stroke="#191970" points="233.8231,-223.1933 223.3141,-224.5392 232.3687,-230.0405 233.8231,-223.1933"/>
</g>
<!-- Node14 -->
<g id="node5" class="node">
<title>Node14</title>
<g id="a_node5"><a xlink:href="../../d5/d13/class_b_o_l_1_1_pushed_to_observer.html" target="_top" xlink:title="StringBlockObserver">
<polygon fill="none" stroke="#ff0000" points="0,-207.5 0,-224.5 90,-224.5 90,-207.5 0,-207.5"/>
<text text-anchor="middle" x="45" y="-214.1" font-family="Helvetica,sans-Serif" font-size="8.00" fill="#000000">StringBlockObserver</text>
</a>
</g>
</g>
<!-- Node14&#45;&gt;Node13 -->
<g id="edge4" class="edge">
<title>Node14&#45;&gt;Node13</title>
<path fill="none" stroke="#191970" d="M100.15,-216C108.8834,-216 117.9573,-216 126.8089,-216"/>
<polygon fill="#191970" stroke="#191970" points="100.0879,-212.5001 90.0879,-216 100.0879,-219.5001 100.0879,-212.5001"/>
</g>
<!-- Node16 -->
<g id="node6" class="node">
<title>Node16</title>
<g id="a_node6"><a xlink:href="../../de/da2/class_b_o_l_1_1_vectorlike_array.html" target="_top" xlink:title="BOL::VectorlikeArray\l\&lt; InterpreterClass::SparseDoubly\lIndexed\&lt; ValueClass \&gt; \&gt;">
<polygon fill="none" stroke="#ff0000" points="352,-.5 352,-35.5 487,-35.5 487,-.5 352,-.5"/>
<text text-anchor="start" x="360" y="-25.1" font-family="Helvetica,sans-Serif" font-size="8.00" fill="#000000">BOL::VectorlikeArray</text>
<text text-anchor="start" x="360" y="-16.1" font-family="Helvetica,sans-Serif" font-size="8.00" fill="#000000">&lt; InterpreterClass::SparseDoubly</text>
<text text-anchor="middle" x="419.5" y="-7.1" font-family="Helvetica,sans-Serif" font-size="8.00" fill="#000000">Indexed&lt; ValueClass &gt; &gt;</text>
</a>
</g>
</g>
<!-- Node16&#45;&gt;Node12 -->
<g id="edge5" class="edge">
<title>Node16&#45;&gt;Node12</title>
<path fill="none" stroke="#9a32cd" stroke-dasharray="5,2" d="M497.4367,-23.5948C534.6989,-27.9158 579.4721,-35.5471 618,-49 644.5574,-58.2731 672.1798,-74.6599 691.3909,-87.3197"/>
<polygon fill="#9a32cd" stroke="#9a32cd" points="497.4602,-20.0763 487.1374,-22.4617 496.6946,-27.0343 497.4602,-20.0763"/>
<text text-anchor="middle" x="561.5" y="-51.6" font-family="Helvetica,sans-Serif" font-size="8.00" fill="#000000"> dataBlocks</text>
</g>
<!-- Node19 -->
<g id="node7" class="node">
<title>Node19</title>
<polygon fill="none" stroke="#bfbfbf" points="159,-120.5 159,-137.5 216,-137.5 216,-120.5 159,-120.5"/>
<text text-anchor="middle" x="187.5" y="-127.1" font-family="Helvetica,sans-Serif" font-size="8.00" fill="#000000">ValueClass</text>
</g>
<!-- Node19&#45;&gt;Node12 -->
<g id="edge6" class="edge">
<title>Node19&#45;&gt;Node12</title>
<path fill="none" stroke="#9a32cd" stroke-dasharray="5,2" d="M225.8545,-119.8203C259.0201,-112.3528 308.3662,-102.3634 352,-98 469.6388,-86.2362 499.8971,-90.6157 618,-96 623.8324,-96.2659 629.853,-96.6199 635.909,-97.034"/>
<polygon fill="#9a32cd" stroke="#9a32cd" points="225.0746,-116.4082 216.1054,-122.0477 226.6338,-123.2323 225.0746,-116.4082"/>
<text text-anchor="middle" x="419.5" y="-100.6" font-family="Helvetica,sans-Serif" font-size="8.00" fill="#000000"> defaultUnsetValue</text>
</g>
<!-- Node19&#45;&gt;Node20 -->
<g id="edge9" class="edge">
<title>Node19&#45;&gt;Node20</title>
<path fill="none" stroke="#9a32cd" stroke-dasharray="5,2" d="M226.6742,-129C263.2523,-129 318.3477,-129 360.2917,-129"/>
<polygon fill="#9a32cd" stroke="#9a32cd" points="226.4139,-125.5001 216.4139,-129 226.4138,-132.5001 226.4139,-125.5001"/>
<text text-anchor="middle" x="300" y="-131.6" font-family="Helvetica,sans-Serif" font-size="8.00" fill="#000000"> defaultUnsetValue</text>
</g>
<!-- Node19&#45;&gt;Node23 -->
<g id="edge13" class="edge">
<title>Node19&#45;&gt;Node23</title>
<path fill="none" stroke="#9a32cd" stroke-dasharray="5,2" d="M226.3605,-135.8174C238.984,-137.9297 253.069,-140.1786 266,-142 371.6698,-156.8844 398.4054,-159.9746 505,-165 554.5175,-167.3345 610.6259,-167.763 652.6034,-167.6466"/>
<polygon fill="#9a32cd" stroke="#9a32cd" points="226.6023,-132.3085 216.1579,-134.0876 225.4321,-139.21 226.6023,-132.3085"/>
<text text-anchor="middle" x="419.5" y="-166.6" font-family="Helvetica,sans-Serif" font-size="8.00" fill="#000000"> defaultUnsetValue</text>
</g>
<!-- Node20&#45;&gt;Node12 -->
<g id="edge7" class="edge">
<title>Node20&#45;&gt;Node12</title>
<path fill="none" stroke="#ffa500" stroke-dasharray="5,2" d="M469.4373,-113.2553C480.9993,-110.2579 493.3352,-107.5696 505,-106 547.9416,-100.2218 596.2324,-99.5579 635.8176,-100.5212"/>
<polygon fill="#ffa500" stroke="#ffa500" points="468.2466,-109.9517 459.5123,-115.9485 470.0799,-116.7074 468.2466,-109.9517"/>
<text text-anchor="start" x="509.5" y="-126.6" font-family="Helvetica,sans-Serif" font-size="8.00" fill="#000000"> &lt; ValueClass, Interpreter</text>
<text text-anchor="start" x="509.5" y="-117.6" font-family="Helvetica,sans-Serif" font-size="8.00" fill="#000000">Class::SparseDoublyIndexed</text>
<text text-anchor="middle" x="561.5" y="-108.6" font-family="Helvetica,sans-Serif" font-size="8.00" fill="#000000">&lt; ValueClass &gt; &gt;</text>
</g>
<!-- Node20&#45;&gt;Node23 -->
<g id="edge14" class="edge">
<title>Node20&#45;&gt;Node23</title>
<path fill="none" stroke="#ffa500" stroke-dasharray="5,2" d="M488.5423,-137.8337C538.1845,-144.1852 604.6182,-152.6852 652.9555,-158.8697"/>
<polygon fill="#ffa500" stroke="#ffa500" points="488.8961,-134.3505 478.5327,-136.553 488.0077,-141.2939 488.8961,-134.3505"/>
<text text-anchor="middle" x="561.5" y="-155.6" font-family="Helvetica,sans-Serif" font-size="8.00" fill="#000000"> &lt; ValueClass, IndexedParser &gt;</text>
</g>
<!-- Node22 -->
<g id="node9" class="node">
<title>Node22</title>
<g id="a_node9"><a xlink:href="../../de/d5e/class_l_h_p_c_1_1_s_l_h_a_1_1_indexed_block_template.html" target="_top" xlink:title="LHPC::SLHA::IndexedBlock\lTemplate\&lt; ValueClass,\l IndexedParser \&gt;">
<polygon fill="none" stroke="#000000" points="834,-136.5 834,-171.5 950,-171.5 950,-136.5 834,-136.5"/>
<text text-anchor="start" x="842" y="-161.1" font-family="Helvetica,sans-Serif" font-size="8.00" fill="#000000">LHPC::SLHA::IndexedBlock</text>
<text text-anchor="start" x="842" y="-152.1" font-family="Helvetica,sans-Serif" font-size="8.00" fill="#000000">Template&lt; ValueClass,</text>
<text text-anchor="middle" x="892" y="-143.1" font-family="Helvetica,sans-Serif" font-size="8.00" fill="#000000"> IndexedParser &gt;</text>
</a>
</g>
</g>
<!-- Node22&#45;&gt;Node11 -->
<g id="edge10" class="edge">
<title>Node22&#45;&gt;Node11</title>
<path fill="none" stroke="#ffa500" stroke-dasharray="5,2" d="M960.223,-145.9585C1000.1509,-141.2522 1050.298,-135.3413 1089.7096,-130.6958"/>
<polygon fill="#ffa500" stroke="#ffa500" points="959.5636,-142.5119 950.042,-147.1585 960.383,-149.4638 959.5636,-142.5119"/>
<text text-anchor="start" x="968" y="-164.6" font-family="Helvetica,sans-Serif" font-size="8.00" fill="#000000"> &lt; ValueClass, Interpreter</text>
<text text-anchor="start" x="968" y="-155.6" font-family="Helvetica,sans-Serif" font-size="8.00" fill="#000000">Class::SparseDoublyIndexed</text>
<text text-anchor="middle" x="1020" y="-146.6" font-family="Helvetica,sans-Serif" font-size="8.00" fill="#000000">&lt; ValueClass &gt; &gt;</text>
</g>
<!-- Node23&#45;&gt;Node22 -->
<g id="edge11" class="edge">
<title>Node23&#45;&gt;Node22</title>
<path fill="none" stroke="#191970" d="M790.7112,-161.5029C805.0841,-160.4382 819.9535,-159.3368 833.7268,-158.3165"/>
<polygon fill="#191970" stroke="#191970" points="790.0701,-158.0407 780.356,-162.2699 790.5872,-165.0216 790.0701,-158.0407"/>
</g>
</g>
</svg>
