<?xml version="1.0" encoding="UTF-8" standalone="no"?>
<!DOCTYPE svg PUBLIC "-//W3C//DTD SVG 1.1//EN"
 "http://www.w3.org/Graphics/SVG/1.1/DTD/svg11.dtd">
<!-- Generated by graphviz version 2.38.0 (20140413.2041)
 -->
<!-- Title: NPSTU.h Pages: 1 -->
<svg width="222pt" height="134pt"
 viewBox="0.00 0.00 222.00 134.00" xmlns="http://www.w3.org/2000/svg" xmlns:xlink="http://www.w3.org/1999/xlink">
<g id="graph0" class="graph" transform="scale(1 1) rotate(0) translate(4 130)">
<title>NPSTU.h</title>
<!-- Node1 -->
<g id="node1" class="node"><title>Node1</title>
<polygon fill="#bfbfbf" stroke="black" points="51,-108.5 51,-125.5 101,-125.5 101,-108.5 51,-108.5"/>
<text text-anchor="middle" x="76" y="-115.1" font-family="Helvetica,sans-Serif" font-size="8.00">NPSTU.h</text>
</g>
<!-- Node2 -->
<g id="node2" class="node"><title>Node2</title>
<g id="a_node2"><a xlink:href="../../d3/df6/_model_factory_8cpp.html" target="_top" xlink:title="ModelFactory.cpp">
<polygon fill="none" stroke="black" points="0,-0.5 0,-17.5 80,-17.5 80,-0.5 0,-0.5"/>
<text text-anchor="middle" x="40" y="-7.1" font-family="Helvetica,sans-Serif" font-size="8.00">ModelFactory.cpp</text>
</a>
</g>
</g>
<!-- Node1&#45;&gt;Node2 -->
<g id="edge1" class="edge"><title>Node1&#45;&gt;Node2</title>
<path fill="none" stroke="midnightblue" d="M58.0465,-101.343C49.9656,-93.5767 41.2907,-83.3095 37,-72 29.9663,-53.4607 34.5934,-29.5423 37.7525,-17.5548"/>
<polygon fill="midnightblue" stroke="midnightblue" points="55.9562,-104.169 65.7451,-108.222 60.6203,-98.9493 55.9562,-104.169"/>
</g>
<!-- Node3 -->
<g id="node3" class="node"><title>Node3</title>
<g id="a_node3"><a xlink:href="../../de/d84/_n_p_s_t_u_8cpp.html" target="_top" xlink:title="NPSTU.cpp">
<polygon fill="none" stroke="black" points="46.5,-54.5 46.5,-71.5 105.5,-71.5 105.5,-54.5 46.5,-54.5"/>
<text text-anchor="middle" x="76" y="-61.1" font-family="Helvetica,sans-Serif" font-size="8.00">NPSTU.cpp</text>
</a>
</g>
</g>
<!-- Node1&#45;&gt;Node3 -->
<g id="edge2" class="edge"><title>Node1&#45;&gt;Node3</title>
<path fill="none" stroke="midnightblue" d="M76,-98.0621C76,-89.0603 76,-78.6277 76,-71.7043"/>
<polygon fill="midnightblue" stroke="midnightblue" points="72.5001,-98.3272 76,-108.327 79.5001,-98.3273 72.5001,-98.3272"/>
</g>
<!-- Node4 -->
<g id="node4" class="node"><title>Node4</title>
<g id="a_node4"><a xlink:href="../../d8/db2/_n_p_s_t_u_zbbbar_l_r_8h.html" target="_top" xlink:title="NPSTUZbbbarLR.h">
<polygon fill="none" stroke="black" points="124,-54.5 124,-71.5 210,-71.5 210,-54.5 124,-54.5"/>
<text text-anchor="middle" x="167" y="-61.1" font-family="Helvetica,sans-Serif" font-size="8.00">NPSTUZbbbarLR.h</text>
</a>
</g>
</g>
<!-- Node1&#45;&gt;Node4 -->
<g id="edge3" class="edge"><title>Node1&#45;&gt;Node4</title>
<path fill="none" stroke="midnightblue" d="M98.3643,-103.22C115.763,-93.278 139.313,-79.8214 153.813,-71.5352"/>
<polygon fill="midnightblue" stroke="midnightblue" points="96.3733,-100.327 89.4274,-108.327 99.8463,-106.405 96.3733,-100.327"/>
</g>
<!-- Node4&#45;&gt;Node2 -->
<g id="edge4" class="edge"><title>Node4&#45;&gt;Node2</title>
<path fill="none" stroke="midnightblue" d="M139.066,-50.5625C114.574,-40.5341 79.6614,-26.2393 58.4892,-17.5704"/>
<polygon fill="midnightblue" stroke="midnightblue" points="137.953,-53.8885 148.533,-54.4388 140.605,-47.4105 137.953,-53.8885"/>
</g>
<!-- Node5 -->
<g id="node5" class="node"><title>Node5</title>
<g id="a_node5"><a xlink:href="../../d1/dfa/_n_p_s_t_u_zbbbar_l_r_8cpp.html" target="_top" xlink:title="NPSTUZbbbarLR.cpp">
<polygon fill="none" stroke="black" points="120,-0.5 120,-17.5 214,-17.5 214,-0.5 120,-0.5"/>
<text text-anchor="middle" x="167" y="-7.1" font-family="Helvetica,sans-Serif" font-size="8.00">NPSTUZbbbarLR.cpp</text>
</a>
</g>
</g>
<!-- Node4&#45;&gt;Node5 -->
<g id="edge5" class="edge"><title>Node4&#45;&gt;Node5</title>
<path fill="none" stroke="midnightblue" d="M167,-44.0621C167,-35.0603 167,-24.6277 167,-17.7043"/>
<polygon fill="midnightblue" stroke="midnightblue" points="163.5,-44.3272 167,-54.3272 170.5,-44.3273 163.5,-44.3272"/>
</g>
</g>
</svg>
