<?xml version="1.0" encoding="UTF-8" standalone="no"?>
<!DOCTYPE svg PUBLIC "-//W3C//DTD SVG 1.1//EN"
 "http://www.w3.org/Graphics/SVG/1.1/DTD/svg11.dtd">
<!-- Generated by graphviz version 2.40.1 (20161225.0304)
 -->
<!-- Title: gslpp_special_functions.cpp Pages: 1 -->
<svg width="414pt" height="80pt"
 viewBox="0.00 0.00 414.00 80.00" xmlns="http://www.w3.org/2000/svg" xmlns:xlink="http://www.w3.org/1999/xlink">
<g id="graph0" class="graph" transform="scale(1 1) rotate(0) translate(4 76)">
<title>gslpp_special_functions.cpp</title>
<!-- Node0 -->
<g id="node1" class="node">
<title>Node0</title>
<polygon fill="#bfbfbf" stroke="#000000" points="125.5,-54.5 125.5,-71.5 242.5,-71.5 242.5,-54.5 125.5,-54.5"/>
<text text-anchor="middle" x="184" y="-61.1" font-family="Helvetica,sans-Serif" font-size="8.00" fill="#000000">gslpp_special_functions.cpp</text>
</g>
<!-- Node1 -->
<g id="node2" class="node">
<title>Node1</title>
<polygon fill="none" stroke="#bfbfbf" points="0,-.5 0,-17.5 76,-17.5 76,-.5 0,-.5"/>
<text text-anchor="middle" x="38" y="-7.1" font-family="Helvetica,sans-Serif" font-size="8.00" fill="#000000">gsl/gsl_sf_zeta.h</text>
</g>
<!-- Node0&#45;&gt;Node1 -->
<g id="edge1" class="edge">
<title>Node0&#45;&gt;Node1</title>
<path fill="none" stroke="#191970" d="M160.8659,-54.4435C136.5178,-45.4381 97.9929,-31.1891 70.577,-21.049"/>
<polygon fill="#191970" stroke="#191970" points="71.6191,-17.7028 61.0259,-17.5164 69.1908,-24.2681 71.6191,-17.7028"/>
</g>
<!-- Node2 -->
<g id="node3" class="node">
<title>Node2</title>
<polygon fill="none" stroke="#bfbfbf" points="94,-.5 94,-17.5 172,-17.5 172,-.5 94,-.5"/>
<text text-anchor="middle" x="133" y="-7.1" font-family="Helvetica,sans-Serif" font-size="8.00" fill="#000000">gsl/gsl_sf_dilog.h</text>
</g>
<!-- Node0&#45;&gt;Node2 -->
<g id="edge2" class="edge">
<title>Node0&#45;&gt;Node2</title>
<path fill="none" stroke="#191970" d="M175.5784,-54.083C168.1518,-46.2195 157.1483,-34.5688 148.1878,-25.0813"/>
<polygon fill="#191970" stroke="#191970" points="150.6757,-22.618 141.2649,-17.7511 145.5866,-27.4244 150.6757,-22.618"/>
</g>
<!-- Node3 -->
<g id="node4" class="node">
<title>Node3</title>
<polygon fill="none" stroke="#bfbfbf" points="190.5,-.5 190.5,-17.5 279.5,-17.5 279.5,-.5 190.5,-.5"/>
<text text-anchor="middle" x="235" y="-7.1" font-family="Helvetica,sans-Serif" font-size="8.00" fill="#000000">gsl/gsl_sf_clausen.h</text>
</g>
<!-- Node0&#45;&gt;Node3 -->
<g id="edge3" class="edge">
<title>Node0&#45;&gt;Node3</title>
<path fill="none" stroke="#191970" d="M192.4216,-54.083C199.8482,-46.2195 210.8517,-34.5688 219.8122,-25.0813"/>
<polygon fill="#191970" stroke="#191970" points="222.4134,-27.4244 226.7351,-17.7511 217.3243,-22.618 222.4134,-27.4244"/>
</g>
<!-- Node4 -->
<g id="node5" class="node">
<title>Node4</title>
<g id="a_node5"><a xlink:href="../../d2/d04/gslpp__special__functions_8h.html" target="_top" xlink:title="gslpp_special_functions.h">
<polygon fill="none" stroke="#000000" points="298,-.5 298,-17.5 406,-17.5 406,-.5 298,-.5"/>
<text text-anchor="middle" x="352" y="-7.1" font-family="Helvetica,sans-Serif" font-size="8.00" fill="#000000">gslpp_special_functions.h</text>
</a>
</g>
</g>
<!-- Node0&#45;&gt;Node4 -->
<g id="edge4" class="edge">
<title>Node0&#45;&gt;Node4</title>
<path fill="none" stroke="#191970" d="M210.6201,-54.4435C239.0057,-45.3196 284.1365,-30.8133 315.7527,-20.6509"/>
<polygon fill="#191970" stroke="#191970" points="317.0552,-23.9087 325.5044,-17.5164 314.9131,-17.2445 317.0552,-23.9087"/>
</g>
</g>
</svg>
