<?xml version="1.0" encoding="UTF-8" standalone="no"?>
<!DOCTYPE svg PUBLIC "-//W3C//DTD SVG 1.1//EN"
 "http://www.w3.org/Graphics/SVG/1.1/DTD/svg11.dtd">
<!-- Generated by graphviz version 2.40.1 (20161225.0304)
 -->
<!-- Title: EvolDB1bsg Pages: 1 -->
<svg width="631pt" height="243pt"
 viewBox="0.00 0.00 631.00 242.73" xmlns="http://www.w3.org/2000/svg" xmlns:xlink="http://www.w3.org/1999/xlink">
<g id="graph0" class="graph" transform="scale(1 1) rotate(0) translate(4 238.727)">
<title>EvolDB1bsg</title>
<!-- Node4 -->
<g id="node1" class="node">
<title>Node4</title>
<polygon fill="#bfbfbf" stroke="#000000" points="562,-148.727 562,-165.727 623,-165.727 623,-148.727 562,-148.727"/>
<text text-anchor="middle" x="592.5" y="-155.327" font-family="Helvetica,sans-Serif" font-size="8.00" fill="#000000">EvolDB1bsg</text>
</g>
<!-- Node5 -->
<g id="node2" class="node">
<title>Node5</title>
<g id="a_node2"><a xlink:href="../../d9/d15/class_r_g_evolutor.html" target="_top" xlink:title="A class for the RG evolutor of the Wilson coefficients. ">
<polygon fill="none" stroke="#000000" points="428,-212.727 428,-229.727 486,-229.727 486,-212.727 428,-212.727"/>
<text text-anchor="middle" x="457" y="-219.327" font-family="Helvetica,sans-Serif" font-size="8.00" fill="#000000">RGEvolutor</text>
</a>
</g>
</g>
<!-- Node5&#45;&gt;Node4 -->
<g id="edge1" class="edge">
<title>Node5&#45;&gt;Node4</title>
<path fill="none" stroke="#191970" d="M488.0003,-208.8454C492.3843,-207.0073 496.8199,-205.1003 501,-203.227 527.9337,-191.1568 558.4109,-175.3984 576.5112,-165.8102"/>
<polygon fill="#191970" stroke="#191970" points="486.5157,-205.6717 478.605,-212.7195 489.1842,-212.1431 486.5157,-205.6717"/>
</g>
<!-- Node6 -->
<g id="node3" class="node">
<title>Node6</title>
<g id="a_node3"><a xlink:href="../../dd/d6f/class_wilson_template.html" target="_top" xlink:title="WilsonTemplate\&lt; gslpp\l::matrix\&lt; double \&gt; \&gt;">
<polygon fill="none" stroke="#ff0000" points="191.5,-208.227 191.5,-234.227 291.5,-234.227 291.5,-208.227 191.5,-208.227"/>
<text text-anchor="start" x="199.5" y="-223.827" font-family="Helvetica,sans-Serif" font-size="8.00" fill="#000000">WilsonTemplate&lt; gslpp</text>
<text text-anchor="middle" x="241.5" y="-214.827" font-family="Helvetica,sans-Serif" font-size="8.00" fill="#000000">::matrix&lt; double &gt; &gt;</text>
</a>
</g>
</g>
<!-- Node6&#45;&gt;Node5 -->
<g id="edge2" class="edge">
<title>Node6&#45;&gt;Node5</title>
<path fill="none" stroke="#191970" d="M301.9506,-221.227C343.1104,-221.227 395.7587,-221.227 427.9,-221.227"/>
<polygon fill="#191970" stroke="#191970" points="301.7532,-217.7271 291.7532,-221.227 301.7532,-224.7271 301.7532,-217.7271"/>
</g>
<!-- Node10 -->
<g id="node4" class="node">
<title>Node10</title>
<g id="a_node4"><a xlink:href="../../dd/d59/classgslpp_1_1vector.html" target="_top" xlink:title="gslpp::vector\&lt; gslpp\l::complex \&gt;">
<polygon fill="none" stroke="#000000" points="413,-167.227 413,-193.227 501,-193.227 501,-167.227 413,-167.227"/>
<text text-anchor="start" x="421" y="-182.827" font-family="Helvetica,sans-Serif" font-size="8.00" fill="#000000">gslpp::vector&lt; gslpp</text>
<text text-anchor="middle" x="457" y="-173.827" font-family="Helvetica,sans-Serif" font-size="8.00" fill="#000000">::complex &gt;</text>
</a>
</g>
</g>
<!-- Node10&#45;&gt;Node4 -->
<g id="edge3" class="edge">
<title>Node10&#45;&gt;Node4</title>
<path fill="none" stroke="#9a32cd" stroke-dasharray="5,2" d="M511.3018,-171.0097C528.4693,-168.0957 546.837,-164.9779 561.753,-162.446"/>
<polygon fill="#9a32cd" stroke="#9a32cd" points="510.641,-167.5717 501.3678,-172.6959 511.8125,-174.473 510.641,-167.5717"/>
<text text-anchor="middle" x="531.5" y="-171.827" font-family="Helvetica,sans-Serif" font-size="8.00" fill="#000000"> e</text>
</g>
<!-- Node11 -->
<g id="node5" class="node">
<title>Node11</title>
<g id="a_node5"><a xlink:href="../../dd/d59/classgslpp_1_1vector.html" target="_top" xlink:title="A base class for defining operations on vectors, both real and complex. ">
<polygon fill="none" stroke="#000000" points="201,-171.727 201,-188.727 282,-188.727 282,-171.727 201,-171.727"/>
<text text-anchor="middle" x="241.5" y="-178.327" font-family="Helvetica,sans-Serif" font-size="8.00" fill="#000000">gslpp::vector&lt; T &gt;</text>
</a>
</g>
</g>
<!-- Node11&#45;&gt;Node10 -->
<g id="edge4" class="edge">
<title>Node11&#45;&gt;Node10</title>
<path fill="none" stroke="#ffa500" stroke-dasharray="5,2" d="M292.4981,-180.227C329.1274,-180.227 378.0013,-180.227 412.9395,-180.227"/>
<polygon fill="#ffa500" stroke="#ffa500" points="292.0339,-176.7271 282.0339,-180.227 292.0339,-183.7271 292.0339,-176.7271"/>
<text text-anchor="middle" x="354.5" y="-182.827" font-family="Helvetica,sans-Serif" font-size="8.00" fill="#000000"> &lt; gslpp::complex &gt;</text>
</g>
<!-- Node12 -->
<g id="node6" class="node">
<title>Node12</title>
<g id="a_node6"><a xlink:href="../../d1/d3c/classgslpp_1_1matrix.html" target="_top" xlink:title="gslpp::matrix\&lt; gslpp\l::complex \&gt;">
<polygon fill="none" stroke="#000000" points="197.5,-17.227 197.5,-43.227 285.5,-43.227 285.5,-17.227 197.5,-17.227"/>
<text text-anchor="start" x="205.5" y="-32.827" font-family="Helvetica,sans-Serif" font-size="8.00" fill="#000000">gslpp::matrix&lt; gslpp</text>
<text text-anchor="middle" x="241.5" y="-23.827" font-family="Helvetica,sans-Serif" font-size="8.00" fill="#000000">::complex &gt;</text>
</a>
</g>
</g>
<!-- Node12&#45;&gt;Node4 -->
<g id="edge5" class="edge">
<title>Node12&#45;&gt;Node4</title>
<path fill="none" stroke="#9a32cd" stroke-dasharray="5,2" d="M292.3755,-14.5221C347.2658,-.6635 435.5835,12.4615 501,-22.227 553.5302,-50.0822 581.4495,-123.0807 589.787,-148.4151"/>
<polygon fill="#9a32cd" stroke="#9a32cd" points="291.312,-11.1826 282.5283,-17.107 293.0893,-17.9532 291.312,-11.1826"/>
<text text-anchor="middle" x="457" y="-114.827" font-family="Helvetica,sans-Serif" font-size="8.00" fill="#000000"> s_s2</text>
<text text-anchor="middle" x="457" y="-105.827" font-family="Helvetica,sans-Serif" font-size="8.00" fill="#000000">vij</text>
<text text-anchor="middle" x="457" y="-96.827" font-family="Helvetica,sans-Serif" font-size="8.00" fill="#000000">gg</text>
<text text-anchor="middle" x="457" y="-87.827" font-family="Helvetica,sans-Serif" font-size="8.00" fill="#000000">h</text>
<text text-anchor="middle" x="457" y="-78.827" font-family="Helvetica,sans-Serif" font-size="8.00" fill="#000000">vijj</text>
<text text-anchor="middle" x="457" y="-69.827" font-family="Helvetica,sans-Serif" font-size="8.00" fill="#000000">j2v</text>
<text text-anchor="middle" x="457" y="-60.827" font-family="Helvetica,sans-Serif" font-size="8.00" fill="#000000">jss</text>
<text text-anchor="middle" x="457" y="-51.827" font-family="Helvetica,sans-Serif" font-size="8.00" fill="#000000">vi</text>
<text text-anchor="middle" x="457" y="-42.827" font-family="Helvetica,sans-Serif" font-size="8.00" fill="#000000">js2</text>
<text text-anchor="middle" x="457" y="-33.827" font-family="Helvetica,sans-Serif" font-size="8.00" fill="#000000">js</text>
<text text-anchor="middle" x="457" y="-24.827" font-family="Helvetica,sans-Serif" font-size="8.00" fill="#000000">...</text>
</g>
<!-- Node14 -->
<g id="node8" class="node">
<title>Node14</title>
<g id="a_node8"><a xlink:href="../../dc/dd5/class_standard_model.html" target="_top" xlink:title="A model class for the Standard Model. ">
<polygon fill="none" stroke="#ff0000" points="421.5,-130.727 421.5,-147.727 492.5,-147.727 492.5,-130.727 421.5,-130.727"/>
<text text-anchor="middle" x="457" y="-137.327" font-family="Helvetica,sans-Serif" font-size="8.00" fill="#000000">StandardModel</text>
</a>
</g>
</g>
<!-- Node12&#45;&gt;Node14 -->
<g id="edge10" class="edge">
<title>Node12&#45;&gt;Node14</title>
<path fill="none" stroke="#9a32cd" stroke-dasharray="5,2" d="M295.7952,-34.7213C327.9464,-39.9372 367.6161,-51.1542 395,-75.227 409.9467,-88.3664 399.4142,-101.6848 413,-116.227 418.649,-122.2736 426.2487,-127.0196 433.5417,-130.5902"/>
<polygon fill="#9a32cd" stroke="#9a32cd" points="296.0484,-31.221 285.6458,-33.23 295.0308,-38.1467 296.0484,-31.221"/>
<text text-anchor="middle" x="354.5" y="-104.827" font-family="Helvetica,sans-Serif" font-size="8.00" fill="#000000"> Yn</text>
<text text-anchor="middle" x="354.5" y="-95.827" font-family="Helvetica,sans-Serif" font-size="8.00" fill="#000000">Yd</text>
<text text-anchor="middle" x="354.5" y="-86.827" font-family="Helvetica,sans-Serif" font-size="8.00" fill="#000000">Yu</text>
<text text-anchor="middle" x="354.5" y="-77.827" font-family="Helvetica,sans-Serif" font-size="8.00" fill="#000000">Ye</text>
</g>
<!-- Node13 -->
<g id="node7" class="node">
<title>Node13</title>
<g id="a_node7"><a xlink:href="../../d1/d3c/classgslpp_1_1matrix.html" target="_top" xlink:title="A base class for defining operations on matrices, both real and complex. ">
<polygon fill="none" stroke="#000000" points="0,-21.727 0,-38.727 81,-38.727 81,-21.727 0,-21.727"/>
<text text-anchor="middle" x="40.5" y="-28.327" font-family="Helvetica,sans-Serif" font-size="8.00" fill="#000000">gslpp::matrix&lt; T &gt;</text>
</a>
</g>
</g>
<!-- Node13&#45;&gt;Node12 -->
<g id="edge6" class="edge">
<title>Node13&#45;&gt;Node12</title>
<path fill="none" stroke="#ffa500" stroke-dasharray="5,2" d="M91.4347,-30.227C124.1219,-30.227 166.1408,-30.227 197.3975,-30.227"/>
<polygon fill="#ffa500" stroke="#ffa500" points="91.1754,-26.7271 81.1753,-30.227 91.1753,-33.7271 91.1754,-26.7271"/>
<text text-anchor="middle" x="134" y="-32.827" font-family="Helvetica,sans-Serif" font-size="8.00" fill="#000000"> &lt; gslpp::complex &gt;</text>
</g>
<!-- Node14&#45;&gt;Node4 -->
<g id="edge7" class="edge">
<title>Node14&#45;&gt;Node4</title>
<path fill="none" stroke="#9a32cd" stroke-dasharray="5,2" d="M503.0274,-141.6981C516.2962,-142.7433 530.7623,-144.2038 544,-146.227 549.8037,-147.114 555.9462,-148.3059 561.838,-149.5781"/>
<polygon fill="#9a32cd" stroke="#9a32cd" points="502.9168,-138.1809 492.6892,-140.946 502.4088,-145.1624 502.9168,-138.1809"/>
<text text-anchor="middle" x="531.5" y="-148.827" font-family="Helvetica,sans-Serif" font-size="8.00" fill="#000000"> model</text>
</g>
<!-- Node15 -->
<g id="node9" class="node">
<title>Node15</title>
<g id="a_node9"><a xlink:href="../../dd/dfa/class_q_c_d.html" target="_top" xlink:title="A class for parameters related to QCD, hadrons and quarks. ">
<polygon fill="none" stroke="#ff0000" points="224.5,-134.727 224.5,-151.727 258.5,-151.727 258.5,-134.727 224.5,-134.727"/>
<text text-anchor="middle" x="241.5" y="-141.327" font-family="Helvetica,sans-Serif" font-size="8.00" fill="#000000">QCD</text>
</a>
</g>
</g>
<!-- Node15&#45;&gt;Node14 -->
<g id="edge8" class="edge">
<title>Node15&#45;&gt;Node14</title>
<path fill="none" stroke="#191970" d="M268.7896,-142.7204C307.5173,-142.0016 378.4675,-140.6847 421.3239,-139.8892"/>
<polygon fill="#191970" stroke="#191970" points="268.7043,-139.2213 258.771,-142.9064 268.8343,-146.2201 268.7043,-139.2213"/>
</g>
<!-- Node18 -->
<g id="node10" class="node">
<title>Node18</title>
<g id="a_node10"><a xlink:href="../../db/d32/class_e_w_s_m_two_fermions_l_e_p2.html" target="_top" xlink:title="A class for the form factors , &#160;and &#160;in the processes &#160;at LEP&#45;II. ">
<polygon fill="none" stroke="#ff0000" points="187,-98.727 187,-115.727 296,-115.727 296,-98.727 187,-98.727"/>
<text text-anchor="middle" x="241.5" y="-105.327" font-family="Helvetica,sans-Serif" font-size="8.00" fill="#000000">EWSMTwoFermionsLEP2</text>
</a>
</g>
</g>
<!-- Node18&#45;&gt;Node14 -->
<g id="edge9" class="edge">
<title>Node18&#45;&gt;Node14</title>
<path fill="none" stroke="#9a32cd" stroke-dasharray="5,2" d="M306.5588,-114.8038C333.9231,-118.2238 366.065,-122.5464 395,-127.227 403.5501,-128.6101 412.7275,-130.2823 421.3307,-131.9335"/>
<polygon fill="#9a32cd" stroke="#9a32cd" points="306.6757,-111.2917 296.3218,-113.5384 305.8169,-118.2388 306.6757,-111.2917"/>
<text text-anchor="middle" x="354.5" y="-129.827" font-family="Helvetica,sans-Serif" font-size="8.00" fill="#000000"> myTwoFermionsLEP2</text>
</g>
</g>
</svg>
