<?xml version="1.0" encoding="UTF-8" standalone="no"?>
<!DOCTYPE svg PUBLIC "-//W3C//DTD SVG 1.1//EN"
 "http://www.w3.org/Graphics/SVG/1.1/DTD/svg11.dtd">
<!-- Generated by graphviz version 2.38.0 (20140413.2041)
 -->
<!-- Title: THDM Pages: 1 -->
<svg width="420pt" height="215pt"
 viewBox="0.00 0.00 419.50 215.00" xmlns="http://www.w3.org/2000/svg" xmlns:xlink="http://www.w3.org/1999/xlink">
<g id="graph0" class="graph" transform="scale(1 1) rotate(0) translate(4 211)">
<title>THDM</title>
<!-- Node1 -->
<g id="node1" class="node"><title>Node1</title>
<polygon fill="#bfbfbf" stroke="black" points="331.5,-63.5 331.5,-80.5 371.5,-80.5 371.5,-63.5 331.5,-63.5"/>
<text text-anchor="middle" x="351.5" y="-70.1" font-family="Helvetica,sans-Serif" font-size="8.00">THDM</text>
</g>
<!-- Node10 -->
<g id="node10" class="node"><title>Node10</title>
<g id="a_node10"><a xlink:href="../../dc/d38/class_t_h_d_m_matching.html" target="_top" xlink:title="A class for the Wilson coefficients in the THDM. ">
<polygon fill="none" stroke="red" points="280.5,-0.5 280.5,-17.5 352.5,-17.5 352.5,-0.5 280.5,-0.5"/>
<text text-anchor="middle" x="316.5" y="-7.1" font-family="Helvetica,sans-Serif" font-size="8.00">THDMMatching</text>
</a>
</g>
</g>
<!-- Node1&#45;&gt;Node10 -->
<g id="edge13" class="edge"><title>Node1&#45;&gt;Node10</title>
<path fill="none" stroke="#9a32cd" stroke-dasharray="5,2" d="M321.794,-63.5525C312.384,-59.6399 303.006,-53.7618 297.5,-45 291.761,-35.8676 300.072,-24.8685 307.44,-17.6689"/>
<polygon fill="#9a32cd" stroke="#9a32cd" points="320.857,-66.9332 331.452,-66.9569 323.184,-60.3313 320.857,-66.9332"/>
<text text-anchor="middle" x="315.5" y="-38.6" font-family="Helvetica,sans-Serif" font-size="8.00"> myTHDM</text>
</g>
<!-- Node2 -->
<g id="node2" class="node"><title>Node2</title>
<g id="a_node2"><a xlink:href="../../dc/dd5/class_standard_model.html" target="_top" xlink:title="A model class for the Standard Model. ">
<polygon fill="none" stroke="red" points="111,-126.5 111,-143.5 182,-143.5 182,-126.5 111,-126.5"/>
<text text-anchor="middle" x="146.5" y="-133.1" font-family="Helvetica,sans-Serif" font-size="8.00">StandardModel</text>
</a>
</g>
</g>
<!-- Node2&#45;&gt;Node1 -->
<g id="edge1" class="edge"><title>Node2&#45;&gt;Node1</title>
<path fill="none" stroke="midnightblue" d="M182.269,-123.629C198.523,-118.896 217.993,-113.198 235.5,-108 269.176,-98.0007 308.28,-86.153 331.398,-79.1238"/>
<polygon fill="midnightblue" stroke="midnightblue" points="181.235,-120.284 172.61,-126.438 183.19,-127.006 181.235,-120.284"/>
</g>
<!-- Node4 -->
<g id="node4" class="node"><title>Node4</title>
<g id="a_node4"><a xlink:href="../../dc/df3/class_e_w_s_mcache.html" target="_top" xlink:title="A class for cache variables used in computing radiative corrections to the EW precision observables...">
<polygon fill="none" stroke="red" points="119,-63.5 119,-80.5 182,-80.5 182,-63.5 119,-63.5"/>
<text text-anchor="middle" x="150.5" y="-70.1" font-family="Helvetica,sans-Serif" font-size="8.00">EWSMcache</text>
</a>
</g>
</g>
<!-- Node2&#45;&gt;Node4 -->
<g id="edge4" class="edge"><title>Node2&#45;&gt;Node4</title>
<path fill="none" stroke="#9a32cd" stroke-dasharray="5,2" d="M132.091,-118.183C128.43,-112.303 126.125,-105.484 128.5,-99 131.103,-91.8932 136.603,-85.3932 141.452,-80.6699"/>
<polygon fill="#9a32cd" stroke="#9a32cd" points="129.601,-120.685 138.481,-126.464 135.143,-116.409 129.601,-120.685"/>
<text text-anchor="middle" x="136" y="-101.6" font-family="Helvetica,sans-Serif" font-size="8.00"> SM</text>
</g>
<!-- Node3 -->
<g id="node3" class="node"><title>Node3</title>
<g id="a_node3"><a xlink:href="../../dd/dfa/class_q_c_d.html" target="_top" xlink:title="A class for parameters related to QCD, hadrons and quarks. ">
<polygon fill="none" stroke="red" points="77.5,-189.5 77.5,-206.5 111.5,-206.5 111.5,-189.5 77.5,-189.5"/>
<text text-anchor="middle" x="94.5" y="-196.1" font-family="Helvetica,sans-Serif" font-size="8.00">QCD</text>
</a>
</g>
</g>
<!-- Node3&#45;&gt;Node2 -->
<g id="edge2" class="edge"><title>Node3&#45;&gt;Node2</title>
<path fill="none" stroke="midnightblue" d="M107.792,-181.407C118.027,-169.401 131.746,-153.307 139.803,-143.856"/>
<polygon fill="midnightblue" stroke="midnightblue" points="104.91,-179.394 101.086,-189.274 110.237,-183.935 104.91,-179.394"/>
</g>
<!-- Node4&#45;&gt;Node2 -->
<g id="edge3" class="edge"><title>Node4&#45;&gt;Node2</title>
<path fill="none" stroke="#9a32cd" stroke-dasharray="5,2" d="M148.253,-90.673C147.959,-93.4557 147.694,-96.3034 147.5,-99 146.82,-108.459 146.598,-119.386 146.527,-126.48"/>
<polygon fill="#9a32cd" stroke="#9a32cd" points="151.732,-91.0622 149.432,-80.7198 144.78,-90.2386 151.732,-91.0622"/>
<text text-anchor="middle" x="177.5" y="-101.6" font-family="Helvetica,sans-Serif" font-size="8.00"> myEWSMcache</text>
</g>
<!-- Node6 -->
<g id="node6" class="node"><title>Node6</title>
<g id="a_node6"><a xlink:href="../../d5/dad/class_e_w_s_m_three_loop_e_w.html" target="_top" xlink:title="A class for &#160;three&#45;loop corrections to the EW precision observables. ">
<polygon fill="none" stroke="black" points="0,-0.5 0,-17.5 93,-17.5 93,-0.5 0,-0.5"/>
<text text-anchor="middle" x="46.5" y="-7.1" font-family="Helvetica,sans-Serif" font-size="8.00">EWSMThreeLoopEW</text>
</a>
</g>
</g>
<!-- Node4&#45;&gt;Node6 -->
<g id="edge7" class="edge"><title>Node4&#45;&gt;Node6</title>
<path fill="none" stroke="#9a32cd" stroke-dasharray="5,2" d="M128.499,-58.0954C107.593,-45.8337 76.8574,-27.8058 59.5647,-17.663"/>
<polygon fill="#9a32cd" stroke="#9a32cd" points="126.932,-61.2339 137.328,-63.2743 130.473,-55.1959 126.932,-61.2339"/>
<text text-anchor="middle" x="117.5" y="-38.6" font-family="Helvetica,sans-Serif" font-size="8.00"> cache</text>
</g>
<!-- Node8 -->
<g id="node8" class="node"><title>Node8</title>
<g id="a_node8"><a xlink:href="../../d5/dde/class_e_w_s_m_approximate_formulae.html" target="_top" xlink:title="A class for approximate formulae of the EW precision observables. ">
<polygon fill="none" stroke="black" points="132.5,-0.5 132.5,-17.5 252.5,-17.5 252.5,-0.5 132.5,-0.5"/>
<text text-anchor="middle" x="192.5" y="-7.1" font-family="Helvetica,sans-Serif" font-size="8.00">EWSMApproximateFormulae</text>
</a>
</g>
</g>
<!-- Node4&#45;&gt;Node8 -->
<g id="edge10" class="edge"><title>Node4&#45;&gt;Node8</title>
<path fill="none" stroke="#9a32cd" stroke-dasharray="5,2" d="M160.489,-54.3989C164.149,-48.5097 168.4,-41.8855 172.5,-36 176.927,-29.6448 182.295,-22.7042 186.354,-17.5937"/>
<polygon fill="#9a32cd" stroke="#9a32cd" points="157.244,-52.9975 155.019,-63.3561 163.218,-56.6458 157.244,-52.9975"/>
<text text-anchor="middle" x="190" y="-38.6" font-family="Helvetica,sans-Serif" font-size="8.00"> mycache</text>
</g>
<!-- Node5 -->
<g id="node5" class="node"><title>Node5</title>
<g id="a_node5"><a xlink:href="../../d9/db9/class_c_k_m.html" target="_top" xlink:title="A class for the CKM matrix elements. ">
<polygon fill="none" stroke="red" points="129.5,-189.5 129.5,-206.5 163.5,-206.5 163.5,-189.5 129.5,-189.5"/>
<text text-anchor="middle" x="146.5" y="-196.1" font-family="Helvetica,sans-Serif" font-size="8.00">CKM</text>
</a>
</g>
</g>
<!-- Node5&#45;&gt;Node2 -->
<g id="edge5" class="edge"><title>Node5&#45;&gt;Node2</title>
<path fill="none" stroke="#9a32cd" stroke-dasharray="5,2" d="M146.5,-179.27C146.5,-167.549 146.5,-152.757 146.5,-143.856"/>
<polygon fill="#9a32cd" stroke="#9a32cd" points="143,-179.274 146.5,-189.274 150,-179.274 143,-179.274"/>
<text text-anchor="middle" x="162" y="-164.6" font-family="Helvetica,sans-Serif" font-size="8.00"> myCKM</text>
</g>
<!-- Node6&#45;&gt;Node2 -->
<g id="edge6" class="edge"><title>Node6&#45;&gt;Node2</title>
<path fill="none" stroke="#9a32cd" stroke-dasharray="5,2" d="M41.0251,-27.4332C37.3298,-42.6948 34.7133,-64.8857 44.5,-81 59.3136,-105.391 89.4044,-119.07 113.083,-126.394"/>
<polygon fill="#9a32cd" stroke="#9a32cd" points="44.4157,-28.3046 43.7446,-17.7311 37.6754,-26.4153 44.4157,-28.3046"/>
<text text-anchor="middle" x="77" y="-70.1" font-family="Helvetica,sans-Serif" font-size="8.00"> myThreeLoopEW</text>
</g>
<!-- Node7 -->
<g id="node7" class="node"><title>Node7</title>
<g id="a_node7"><a xlink:href="../../d4/d6d/class_flavour.html" target="_top" xlink:title="The parent class in Flavour for calculating all the Wilson coefficients for various Flavor Violating ...">
<polygon fill="none" stroke="red" points="182,-189.5 182,-206.5 225,-206.5 225,-189.5 182,-189.5"/>
<text text-anchor="middle" x="203.5" y="-196.1" font-family="Helvetica,sans-Serif" font-size="8.00">Flavour</text>
</a>
</g>
</g>
<!-- Node7&#45;&gt;Node2 -->
<g id="edge8" class="edge"><title>Node7&#45;&gt;Node2</title>
<path fill="none" stroke="#9a32cd" stroke-dasharray="5,2" d="M194.909,-180.608C191.238,-174.414 186.618,-167.532 181.5,-162 174.92,-154.888 166.17,-148.388 159.065,-143.666"/>
<polygon fill="#9a32cd" stroke="#9a32cd" points="191.919,-182.434 199.829,-189.482 198.041,-179.039 191.919,-182.434"/>
<text text-anchor="middle" x="209.5" y="-164.6" font-family="Helvetica,sans-Serif" font-size="8.00"> myFlavour</text>
</g>
<!-- Node8&#45;&gt;Node2 -->
<g id="edge9" class="edge"><title>Node8&#45;&gt;Node2</title>
<path fill="none" stroke="#9a32cd" stroke-dasharray="5,2" d="M203.705,-26.5098C205.271,-29.5488 206.638,-32.7815 207.5,-36 215.777,-66.911 225.142,-81.3025 207.5,-108 201.597,-116.932 191.933,-122.806 182.019,-126.664"/>
<polygon fill="#9a32cd" stroke="#9a32cd" points="206.56,-24.4668 198.396,-17.7139 200.567,-28.0839 206.56,-24.4668"/>
<text text-anchor="middle" x="264.5" y="-70.1" font-family="Helvetica,sans-Serif" font-size="8.00"> myApproximateFormulae</text>
</g>
<!-- Node9 -->
<g id="node9" class="node"><title>Node9</title>
<g id="a_node9"><a xlink:href="../../d5/df2/class_t_h_d_mcache.html" target="_top" xlink:title="A class for the caching of some THDM objects. ">
<polygon fill="none" stroke="red" points="321,-126.5 321,-143.5 382,-143.5 382,-126.5 321,-126.5"/>
<text text-anchor="middle" x="351.5" y="-133.1" font-family="Helvetica,sans-Serif" font-size="8.00">THDMcache</text>
</a>
</g>
</g>
<!-- Node9&#45;&gt;Node1 -->
<g id="edge11" class="edge"><title>Node9&#45;&gt;Node1</title>
<path fill="none" stroke="#9a32cd" stroke-dasharray="5,2" d="M351.5,-116.27C351.5,-104.549 351.5,-89.7567 351.5,-80.8556"/>
<polygon fill="#9a32cd" stroke="#9a32cd" points="348,-116.274 351.5,-126.274 355,-116.274 348,-116.274"/>
<text text-anchor="middle" x="369" y="-101.6" font-family="Helvetica,sans-Serif" font-size="8.00"> mycache</text>
</g>
<!-- Node10&#45;&gt;Node1 -->
<g id="edge12" class="edge"><title>Node10&#45;&gt;Node1</title>
<path fill="none" stroke="#9a32cd" stroke-dasharray="5,2" d="M330.383,-25.6636C332.937,-28.9509 335.443,-32.4892 337.5,-36 342.727,-44.9219 346.835,-56.163 349.214,-63.4621"/>
<polygon fill="#9a32cd" stroke="#9a32cd" points="332.872,-23.1832 323.783,-17.7394 327.494,-27.6632 332.872,-23.1832"/>
<text text-anchor="middle" x="377" y="-38.6" font-family="Helvetica,sans-Serif" font-size="8.00"> myTHDMMatching</text>
</g>
</g>
</svg>
