<?xml version="1.0" encoding="UTF-8" standalone="no"?>
<!DOCTYPE svg PUBLIC "-//W3C//DTD SVG 1.1//EN"
 "http://www.w3.org/Graphics/SVG/1.1/DTD/svg11.dtd">
<!-- Generated by graphviz version 2.40.1 (20161225.0304)
 -->
<!-- Title: CorrelatedGaussianObservables.cpp Pages: 1 -->
<svg width="463pt" height="143pt"
 viewBox="0.00 0.00 463.00 143.00" xmlns="http://www.w3.org/2000/svg" xmlns:xlink="http://www.w3.org/1999/xlink">
<g id="graph0" class="graph" transform="scale(1 1) rotate(0) translate(4 139)">
<title>CorrelatedGaussianObservables.cpp</title>
<!-- Node0 -->
<g id="node1" class="node">
<title>Node0</title>
<polygon fill="#bfbfbf" stroke="#000000" points="147,-117.5 147,-134.5 295,-134.5 295,-117.5 147,-117.5"/>
<text text-anchor="middle" x="221" y="-124.1" font-family="Helvetica,sans-Serif" font-size="8.00" fill="#000000">CorrelatedGaussianObservables.cpp</text>
</g>
<!-- Node1 -->
<g id="node2" class="node">
<title>Node1</title>
<polygon fill="none" stroke="#bfbfbf" points="20.5,-63.5 20.5,-80.5 71.5,-80.5 71.5,-63.5 20.5,-63.5"/>
<text text-anchor="middle" x="46" y="-70.1" font-family="Helvetica,sans-Serif" font-size="8.00" fill="#000000">stdexcept</text>
</g>
<!-- Node0&#45;&gt;Node1 -->
<g id="edge1" class="edge">
<title>Node0&#45;&gt;Node1</title>
<path fill="none" stroke="#191970" d="M193.2707,-117.4435C162.963,-108.0914 114.329,-93.0844 81.3139,-82.8969"/>
<polygon fill="#191970" stroke="#191970" points="82.1942,-79.5057 71.6068,-79.9015 80.1302,-86.1945 82.1942,-79.5057"/>
</g>
<!-- Node2 -->
<g id="node3" class="node">
<title>Node2</title>
<g id="a_node3"><a xlink:href="../../d6/d42/_observables_2src_2_correlated_gaussian_observables_8h.html" target="_top" xlink:title="CorrelatedGaussianObservables.h">
<polygon fill="none" stroke="#000000" points="89.5,-63.5 89.5,-80.5 228.5,-80.5 228.5,-63.5 89.5,-63.5"/>
<text text-anchor="middle" x="159" y="-70.1" font-family="Helvetica,sans-Serif" font-size="8.00" fill="#000000">CorrelatedGaussianObservables.h</text>
</a>
</g>
</g>
<!-- Node0&#45;&gt;Node2 -->
<g id="edge2" class="edge">
<title>Node0&#45;&gt;Node2</title>
<path fill="none" stroke="#191970" d="M211.0386,-117.324C201.8734,-109.3414 188.0628,-97.3128 176.9718,-87.6529"/>
<polygon fill="#191970" stroke="#191970" points="178.9822,-84.7624 169.1426,-80.8339 174.3847,-90.041 178.9822,-84.7624"/>
</g>
<!-- Node27 -->
<g id="node7" class="node">
<title>Node27</title>
<g id="a_node7"><a xlink:href="../../d8/d81/_th_obs_factory_8h.html" target="_top" xlink:title="ThObsFactory.h">
<polygon fill="none" stroke="#ff0000" points="247,-63.5 247,-80.5 321,-80.5 321,-63.5 247,-63.5"/>
<text text-anchor="middle" x="284" y="-70.1" font-family="Helvetica,sans-Serif" font-size="8.00" fill="#000000">ThObsFactory.h</text>
</a>
</g>
</g>
<!-- Node0&#45;&gt;Node27 -->
<g id="edge6" class="edge">
<title>Node0&#45;&gt;Node27</title>
<path fill="none" stroke="#191970" d="M231.122,-117.324C240.5264,-109.2631 254.7441,-97.0765 266.069,-87.3695"/>
<polygon fill="#191970" stroke="#191970" points="268.379,-89.9993 273.6938,-80.8339 263.8234,-84.6844 268.379,-89.9993"/>
</g>
<!-- Node57 -->
<g id="node10" class="node">
<title>Node57</title>
<polygon fill="none" stroke="#bfbfbf" points="339.5,-63.5 339.5,-80.5 382.5,-80.5 382.5,-63.5 339.5,-63.5"/>
<text text-anchor="middle" x="361" y="-70.1" font-family="Helvetica,sans-Serif" font-size="8.00" fill="#000000">fstream</text>
</g>
<!-- Node0&#45;&gt;Node57 -->
<g id="edge9" class="edge">
<title>Node0&#45;&gt;Node57</title>
<path fill="none" stroke="#191970" d="M243.1834,-117.4435C266.5652,-108.4249 303.5813,-94.1472 329.8777,-84.0043"/>
<polygon fill="#191970" stroke="#191970" points="331.3099,-87.2033 339.3804,-80.339 328.7908,-80.6723 331.3099,-87.2033"/>
</g>
<!-- Node3 -->
<g id="node4" class="node">
<title>Node3</title>
<g id="a_node4"><a xlink:href="../../d8/db2/_observable_8h.html" target="_top" xlink:title="Observable.h">
<polygon fill="none" stroke="#ff0000" points="0,-5 0,-22 64,-22 64,-5 0,-5"/>
<text text-anchor="middle" x="32" y="-11.6" font-family="Helvetica,sans-Serif" font-size="8.00" fill="#000000">Observable.h</text>
</a>
</g>
</g>
<!-- Node2&#45;&gt;Node3 -->
<g id="edge3" class="edge">
<title>Node2&#45;&gt;Node3</title>
<path fill="none" stroke="#191970" d="M140.5331,-63.4936C119.2765,-53.7022 84.1488,-37.5213 59.6336,-26.2289"/>
<polygon fill="#191970" stroke="#191970" points="61.0363,-23.0215 50.4892,-22.0167 58.1076,-29.3795 61.0363,-23.0215"/>
</g>
<!-- Node11 -->
<g id="node5" class="node">
<title>Node11</title>
<g id="a_node5"><a xlink:href="../../d9/d72/gslpp_8h.html" target="_top" xlink:title="gslpp.h">
<polygon fill="none" stroke="#ff0000" points="82,-5 82,-22 124,-22 124,-5 82,-5"/>
<text text-anchor="middle" x="103" y="-11.6" font-family="Helvetica,sans-Serif" font-size="8.00" fill="#000000">gslpp.h</text>
</a>
</g>
</g>
<!-- Node2&#45;&gt;Node11 -->
<g id="edge4" class="edge">
<title>Node2&#45;&gt;Node11</title>
<path fill="none" stroke="#191970" d="M150.737,-63.3681C142.2172,-54.468 128.737,-40.3859 118.271,-29.4527"/>
<polygon fill="#191970" stroke="#191970" points="120.7403,-26.9708 111.2969,-22.1673 115.6836,-31.8113 120.7403,-26.9708"/>
</g>
<!-- Node26 -->
<g id="node6" class="node">
<title>Node26</title>
<polygon fill="none" stroke="#bfbfbf" points="142.5,-.5 142.5,-26.5 227.5,-26.5 227.5,-.5 142.5,-.5"/>
<text text-anchor="start" x="150.5" y="-16.1" font-family="Helvetica,sans-Serif" font-size="8.00" fill="#000000">boost/ptr_container</text>
<text text-anchor="middle" x="185" y="-7.1" font-family="Helvetica,sans-Serif" font-size="8.00" fill="#000000">/ptr_vector.hpp</text>
</g>
<!-- Node2&#45;&gt;Node26 -->
<g id="edge5" class="edge">
<title>Node2&#45;&gt;Node26</title>
<path fill="none" stroke="#191970" d="M162.8364,-63.3681C166.0235,-56.1971 170.7057,-45.6622 174.9463,-36.1207"/>
<polygon fill="#191970" stroke="#191970" points="178.2615,-37.2794 179.1246,-26.7197 171.8648,-34.4364 178.2615,-37.2794"/>
</g>
<!-- Node28 -->
<g id="node8" class="node">
<title>Node28</title>
<g id="a_node8"><a xlink:href="../../d6/d0a/_standard_model_8h.html" target="_top" xlink:title="StandardModel.h">
<polygon fill="none" stroke="#ff0000" points="245.5,-5 245.5,-22 322.5,-22 322.5,-5 245.5,-5"/>
<text text-anchor="middle" x="284" y="-11.6" font-family="Helvetica,sans-Serif" font-size="8.00" fill="#000000">StandardModel.h</text>
</a>
</g>
</g>
<!-- Node27&#45;&gt;Node28 -->
<g id="edge7" class="edge">
<title>Node27&#45;&gt;Node28</title>
<path fill="none" stroke="#191970" d="M284,-63.3681C284,-55.2457 284,-42.8073 284,-32.3853"/>
<polygon fill="#191970" stroke="#191970" points="287.5001,-32.1673 284,-22.1673 280.5001,-32.1673 287.5001,-32.1673"/>
</g>
<!-- Node39 -->
<g id="node9" class="node">
<title>Node39</title>
<polygon fill="none" stroke="#bfbfbf" points="341,-5 341,-22 455,-22 455,-5 341,-5"/>
<text text-anchor="middle" x="398" y="-11.6" font-family="Helvetica,sans-Serif" font-size="8.00" fill="#000000">boost/functional/factory.hpp</text>
</g>
<!-- Node27&#45;&gt;Node39 -->
<g id="edge8" class="edge">
<title>Node27&#45;&gt;Node39</title>
<path fill="none" stroke="#191970" d="M300.8211,-63.3681C319.5963,-53.7335 350.2049,-38.0264 372.0529,-26.815"/>
<polygon fill="#191970" stroke="#191970" points="373.8109,-29.8468 381.1099,-22.1673 370.615,-23.6189 373.8109,-29.8468"/>
</g>
</g>
</svg>
