<?xml version="1.0" encoding="UTF-8" standalone="no"?>
<!DOCTYPE svg PUBLIC "-//W3C//DTD SVG 1.1//EN"
 "http://www.w3.org/Graphics/SVG/1.1/DTD/svg11.dtd">
<!-- Generated by graphviz version 2.40.1 (20161225.0304)
 -->
<!-- Title: gslpp_vector_complex.h Pages: 1 -->
<svg width="744pt" height="242pt"
 viewBox="0.00 0.00 743.90 242.00" xmlns="http://www.w3.org/2000/svg" xmlns:xlink="http://www.w3.org/1999/xlink">
<g id="graph0" class="graph" transform="scale(1 1) rotate(0) translate(4 238)">
<title>gslpp_vector_complex.h</title>
<!-- Node7 -->
<g id="node1" class="node">
<title>Node7</title>
<polygon fill="#bfbfbf" stroke="#000000" points="199.8951,-216.5 199.8951,-233.5 302.8951,-233.5 302.8951,-216.5 199.8951,-216.5"/>
<text text-anchor="middle" x="251.3951" y="-223.1" font-family="Helvetica,sans-Serif" font-size="8.00" fill="#000000">gslpp_vector_complex.h</text>
</g>
<!-- Node8 -->
<g id="node2" class="node">
<title>Node8</title>
<g id="a_node2"><a xlink:href="../../df/d09/main___expanded_test_8cpp.html" target="_top" xlink:title="main_ExpandedTest.cpp">
<polygon fill="none" stroke="#000000" points="17.8951,-.5 17.8951,-17.5 122.8951,-17.5 122.8951,-.5 17.8951,-.5"/>
<text text-anchor="middle" x="70.3951" y="-7.1" font-family="Helvetica,sans-Serif" font-size="8.00" fill="#000000">main_ExpandedTest.cpp</text>
</a>
</g>
</g>
<!-- Node7&#45;&gt;Node8 -->
<g id="edge1" class="edge">
<title>Node7&#45;&gt;Node8</title>
<path fill="none" stroke="#191970" d="M251.8992,-205.8921C251.7488,-170.9112 246.2887,-96.2953 205.3951,-54 191.8288,-39.9687 143.5842,-26.1159 108.6349,-17.566"/>
<polygon fill="#191970" stroke="#191970" points="248.3969,-206.0951 251.7902,-216.1318 255.3965,-206.1697 248.3969,-206.0951"/>
</g>
<!-- Node9 -->
<g id="node3" class="node">
<title>Node9</title>
<g id="a_node3"><a xlink:href="../../d6/d7d/_expanded_8h.html" target="_top" xlink:title="Expanded.h">
<polygon fill="none" stroke="#ff0000" points="11.8951,-54.5 11.8951,-71.5 70.8951,-71.5 70.8951,-54.5 11.8951,-54.5"/>
<text text-anchor="middle" x="41.3951" y="-61.1" font-family="Helvetica,sans-Serif" font-size="8.00" fill="#000000">Expanded.h</text>
</a>
</g>
</g>
<!-- Node7&#45;&gt;Node9 -->
<g id="edge2" class="edge">
<title>Node7&#45;&gt;Node9</title>
<path fill="none" stroke="#191970" d="M189.7435,-220.547C132.7893,-215.0218 54.1046,-203.3207 34.3951,-180 7.5996,-148.2949 27.9545,-92.8237 37.3293,-71.5966"/>
<polygon fill="#191970" stroke="#191970" points="189.469,-224.0365 199.7499,-221.4767 190.1165,-217.0665 189.469,-224.0365"/>
</g>
<!-- Node428 -->
<g id="node4" class="node">
<title>Node428</title>
<g id="a_node4"><a xlink:href="../../d9/d25/gslpp__matrix__complex_8h.html" target="_top" xlink:title="gslpp_matrix_complex.h">
<polygon fill="none" stroke="#ff0000" points="43.8951,-162.5 43.8951,-179.5 146.8951,-179.5 146.8951,-162.5 43.8951,-162.5"/>
<text text-anchor="middle" x="95.3951" y="-169.1" font-family="Helvetica,sans-Serif" font-size="8.00" fill="#000000">gslpp_matrix_complex.h</text>
</a>
</g>
</g>
<!-- Node7&#45;&gt;Node428 -->
<g id="edge4" class="edge">
<title>Node7&#45;&gt;Node428</title>
<path fill="none" stroke="#191970" d="M217.2254,-213.172C187.8508,-203.0039 146.1967,-188.5852 119.9981,-179.5164"/>
<polygon fill="#191970" stroke="#191970" points="216.0817,-216.4798 226.6764,-216.4435 218.3715,-209.8649 216.0817,-216.4798"/>
</g>
<!-- Node429 -->
<g id="node5" class="node">
<title>Node429</title>
<g id="a_node5"><a xlink:href="../../d0/ddb/gslpp__matrix__double_8h.html" target="_top" xlink:title="gslpp_matrix_double.h">
<polygon fill="none" stroke="#ff0000" points="49.8951,-108.5 49.8951,-125.5 146.8951,-125.5 146.8951,-108.5 49.8951,-108.5"/>
<text text-anchor="middle" x="98.3951" y="-115.1" font-family="Helvetica,sans-Serif" font-size="8.00" fill="#000000">gslpp_matrix_double.h</text>
</a>
</g>
</g>
<!-- Node7&#45;&gt;Node429 -->
<g id="edge13" class="edge">
<title>Node7&#45;&gt;Node429</title>
<path fill="none" stroke="#191970" d="M230.8613,-210.5056C198.5838,-187.7214 136.9541,-144.2181 110.7155,-125.6968"/>
<polygon fill="#191970" stroke="#191970" points="228.945,-213.437 239.1331,-216.3445 232.9818,-207.7182 228.945,-213.437"/>
</g>
<!-- Node430 -->
<g id="node6" class="node">
<title>Node430</title>
<g id="a_node6"><a xlink:href="../../d9/d72/gslpp_8h.html" target="_top" xlink:title="gslpp.h">
<polygon fill="none" stroke="#ff0000" points="154.3951,-54.5 154.3951,-71.5 196.3951,-71.5 196.3951,-54.5 154.3951,-54.5"/>
<text text-anchor="middle" x="175.3951" y="-61.1" font-family="Helvetica,sans-Serif" font-size="8.00" fill="#000000">gslpp.h</text>
</a>
</g>
</g>
<!-- Node7&#45;&gt;Node430 -->
<g id="edge14" class="edge">
<title>Node7&#45;&gt;Node430</title>
<path fill="none" stroke="#191970" d="M242.9007,-206.8936C226.6004,-172.1482 191.4864,-97.2998 179.5014,-71.7529"/>
<polygon fill="#191970" stroke="#191970" points="239.8931,-208.7235 247.309,-216.2902 246.2304,-205.7504 239.8931,-208.7235"/>
</g>
<!-- Node486 -->
<g id="node7" class="node">
<title>Node486</title>
<g id="a_node7"><a xlink:href="../../d8/db9/gslpp__vector__complex_8cpp.html" target="_top" xlink:title="gslpp_vector_complex.cpp">
<polygon fill="none" stroke="#000000" points="279.8951,-162.5 279.8951,-179.5 390.8951,-179.5 390.8951,-162.5 279.8951,-162.5"/>
<text text-anchor="middle" x="335.3951" y="-169.1" font-family="Helvetica,sans-Serif" font-size="8.00" fill="#000000">gslpp_vector_complex.cpp</text>
</a>
</g>
</g>
<!-- Node7&#45;&gt;Node486 -->
<g id="edge15" class="edge">
<title>Node7&#45;&gt;Node486</title>
<path fill="none" stroke="#191970" d="M273.3276,-210.9005C288.7306,-200.9986 308.8409,-188.0705 321.9325,-179.6545"/>
<polygon fill="#191970" stroke="#191970" points="271.4103,-207.9722 264.8912,-216.324 275.1956,-213.8605 271.4103,-207.9722"/>
</g>
<!-- Node487 -->
<g id="node8" class="node">
<title>Node487</title>
<g id="a_node8"><a xlink:href="../../d0/d61/gslpp__vector__double_8cpp.html" target="_top" xlink:title="gslpp_vector_double.cpp">
<polygon fill="none" stroke="#000000" points="408.8951,-162.5 408.8951,-179.5 513.8951,-179.5 513.8951,-162.5 408.8951,-162.5"/>
<text text-anchor="middle" x="461.3951" y="-169.1" font-family="Helvetica,sans-Serif" font-size="8.00" fill="#000000">gslpp_vector_double.cpp</text>
</a>
</g>
</g>
<!-- Node7&#45;&gt;Node487 -->
<g id="edge16" class="edge">
<title>Node7&#45;&gt;Node487</title>
<path fill="none" stroke="#191970" d="M294.5848,-213.8941C334.2418,-203.6966 392.1651,-188.802 428.2757,-179.5164"/>
<polygon fill="#191970" stroke="#191970" points="293.4835,-210.5633 284.6702,-216.4435 295.2268,-217.3428 293.4835,-210.5633"/>
</g>
<!-- Node488 -->
<g id="node9" class="node">
<title>Node488</title>
<g id="a_node9"><a xlink:href="../../db/dba/_wilson_coefficient_8h.html" target="_top" xlink:title="WilsonCoefficient.h">
<polygon fill="none" stroke="#ff0000" points="531.8951,-162.5 531.8951,-179.5 616.8951,-179.5 616.8951,-162.5 531.8951,-162.5"/>
<text text-anchor="middle" x="574.3951" y="-169.1" font-family="Helvetica,sans-Serif" font-size="8.00" fill="#000000">WilsonCoefficient.h</text>
</a>
</g>
</g>
<!-- Node7&#45;&gt;Node488 -->
<g id="edge17" class="edge">
<title>Node7&#45;&gt;Node488</title>
<path fill="none" stroke="#191970" d="M313.0252,-214.997C368.1756,-205.9997 451.2203,-192.3383 523.3951,-180 526.1425,-179.5303 528.9723,-179.0425 531.8243,-178.5476"/>
<polygon fill="#191970" stroke="#191970" points="312.3675,-211.558 303.061,-216.6214 313.4939,-218.4668 312.3675,-211.558"/>
</g>
<!-- Node19 -->
<g id="node10" class="node">
<title>Node19</title>
<g id="a_node10"><a xlink:href="../../d8/d68/_wilson_coefficient_new_8h.html" target="_top" xlink:title="WilsonCoefficientNew.h">
<polygon fill="none" stroke="#ff0000" points="634.8951,-162.5 634.8951,-179.5 735.8951,-179.5 735.8951,-162.5 634.8951,-162.5"/>
<text text-anchor="middle" x="685.3951" y="-169.1" font-family="Helvetica,sans-Serif" font-size="8.00" fill="#000000">WilsonCoefficientNew.h</text>
</a>
</g>
</g>
<!-- Node7&#45;&gt;Node19 -->
<g id="edge18" class="edge">
<title>Node7&#45;&gt;Node19</title>
<path fill="none" stroke="#191970" d="M313.1497,-218.2016C387.5382,-209.8709 516.252,-195.0054 626.3951,-180 629.1671,-179.6224 632.0107,-179.2243 634.8799,-178.8142"/>
<polygon fill="#191970" stroke="#191970" points="312.5709,-214.7444 303.0213,-219.333 313.3481,-221.7011 312.5709,-214.7444"/>
</g>
<!-- Node9&#45;&gt;Node8 -->
<g id="edge3" class="edge">
<title>Node9&#45;&gt;Node8</title>
<path fill="none" stroke="#191970" d="M51.0711,-44.9827C55.9935,-35.8168 61.753,-25.0922 65.6955,-17.7511"/>
<polygon fill="#191970" stroke="#191970" points="47.8317,-43.6171 46.1839,-54.083 53.9987,-46.929 47.8317,-43.6171"/>
</g>
<!-- Node428&#45;&gt;Node8 -->
<g id="edge5" class="edge">
<title>Node428&#45;&gt;Node8</title>
<path fill="none" stroke="#191970" d="M71.002,-157.1913C58.4079,-149.2234 43.4162,-138.3444 32.3951,-126 14.1103,-105.5197 9.282,-98.5772 2.3951,-72 .3884,-64.2558 -1.3917,-61.047 2.3951,-54 11.7766,-36.5419 31.234,-24.7204 46.941,-17.5916"/>
<polygon fill="#191970" stroke="#191970" points="69.2955,-160.2499 79.6577,-162.458 72.9342,-154.2699 69.2955,-160.2499"/>
</g>
<!-- Node428&#45;&gt;Node9 -->
<g id="edge6" class="edge">
<title>Node428&#45;&gt;Node9</title>
<path fill="none" stroke="#191970" d="M69.5356,-156.9472C58.3893,-149.3833 46.5233,-138.9319 40.3951,-126 31.9633,-108.2068 35.8831,-84.289 38.9536,-71.6561"/>
<polygon fill="#191970" stroke="#191970" points="67.8671,-160.0322 78.1971,-162.3864 71.5898,-154.1042 67.8671,-160.0322"/>
</g>
<!-- Node428&#45;&gt;Node429 -->
<g id="edge7" class="edge">
<title>Node428&#45;&gt;Node429</title>
<path fill="none" stroke="#191970" d="M89.9727,-152.1005C89.8387,-143.1357 90.8569,-132.8579 92.7779,-125.7511"/>
<polygon fill="#191970" stroke="#191970" points="86.4833,-152.374 90.7242,-162.083 93.4635,-151.8484 86.4833,-152.374"/>
</g>
<!-- Node428&#45;&gt;Node430 -->
<g id="edge12" class="edge">
<title>Node428&#45;&gt;Node430</title>
<path fill="none" stroke="#191970" d="M121.4356,-157.0763C133.6179,-149.3757 147.3918,-138.771 156.3951,-126 168.2435,-109.1933 172.8234,-84.8748 174.4985,-71.9169"/>
<polygon fill="#191970" stroke="#191970" points="119.3295,-154.2573 112.5352,-162.3868 122.9162,-160.2686 119.3295,-154.2573"/>
</g>
<!-- Node429&#45;&gt;Node8 -->
<g id="edge8" class="edge">
<title>Node429&#45;&gt;Node8</title>
<path fill="none" stroke="#191970" d="M93.5482,-98.3049C87.4288,-74.7014 77.1558,-35.0769 72.6399,-17.6584"/>
<polygon fill="#191970" stroke="#191970" points="90.2061,-99.3603 96.1038,-108.1619 96.982,-97.6035 90.2061,-99.3603"/>
</g>
<!-- Node429&#45;&gt;Node9 -->
<g id="edge10" class="edge">
<title>Node429&#45;&gt;Node9</title>
<path fill="none" stroke="#191970" d="M81.7736,-101.2533C71.6611,-91.6731 59.1185,-79.7906 50.7198,-71.8339"/>
<polygon fill="#191970" stroke="#191970" points="79.5704,-103.9873 89.2371,-108.324 84.3846,-98.9056 79.5704,-103.9873"/>
</g>
<!-- Node429&#45;&gt;Node428 -->
<g id="edge9" class="edge">
<title>Node429&#45;&gt;Node428</title>
<path fill="none" stroke="#191970" d="M103.8188,-135.9865C103.9439,-144.8611 102.9429,-155.0059 101.0568,-162.083"/>
<polygon fill="#191970" stroke="#191970" points="107.2887,-135.4567 103.0399,-125.7511 100.3089,-135.9878 107.2887,-135.4567"/>
</g>
<!-- Node429&#45;&gt;Node430 -->
<g id="edge11" class="edge">
<title>Node429&#45;&gt;Node430</title>
<path fill="none" stroke="#191970" d="M119.2961,-102.3422C133.3062,-92.5169 151.2781,-79.9132 163.0544,-71.6545"/>
<polygon fill="#191970" stroke="#191970" points="116.9442,-99.7166 110.7665,-108.324 120.9635,-105.4477 116.9442,-99.7166"/>
</g>
</g>
</svg>
