<?xml version="1.0" encoding="UTF-8" standalone="no"?>
<!DOCTYPE svg PUBLIC "-//W3C//DTD SVG 1.1//EN"
 "http://www.w3.org/Graphics/SVG/1.1/DTD/svg11.dtd">
<!-- Generated by graphviz version 2.38.0 (20140413.2041)
 -->
<!-- Title: EWSMApproximateFormulae.cpp Pages: 1 -->
<svg width="279pt" height="242pt"
 viewBox="0.00 0.00 278.50 242.00" xmlns="http://www.w3.org/2000/svg" xmlns:xlink="http://www.w3.org/1999/xlink">
<g id="graph0" class="graph" transform="scale(1 1) rotate(0) translate(4 238)">
<title>EWSMApproximateFormulae.cpp</title>
<!-- Node1 -->
<g id="node1" class="node"><title>Node1</title>
<polygon fill="#bfbfbf" stroke="black" points="114.5,-216.5 114.5,-233.5 249.5,-233.5 249.5,-216.5 114.5,-216.5"/>
<text text-anchor="middle" x="182" y="-223.1" font-family="Helvetica,sans-Serif" font-size="8.00">EWSMApproximateFormulae.cpp</text>
</g>
<!-- Node2 -->
<g id="node2" class="node"><title>Node2</title>
<g id="a_node2"><a xlink:href="../../d9/d03/_e_w_s_m_approximate_formulae_8h.html" target="_top" xlink:title="EWSMApproximateFormulae.h">
<polygon fill="none" stroke="black" points="11.5,-162.5 11.5,-179.5 138.5,-179.5 138.5,-162.5 11.5,-162.5"/>
<text text-anchor="middle" x="75" y="-169.1" font-family="Helvetica,sans-Serif" font-size="8.00">EWSMApproximateFormulae.h</text>
</a>
</g>
</g>
<!-- Node1&#45;&gt;Node2 -->
<g id="edge1" class="edge"><title>Node1&#45;&gt;Node2</title>
<path fill="none" stroke="midnightblue" d="M166.212,-216.327C148.647,-207.791 120.048,-193.893 99.5555,-183.934"/>
<polygon fill="midnightblue" stroke="midnightblue" points="101.029,-180.758 90.5051,-179.535 97.9694,-187.054 101.029,-180.758"/>
</g>
<!-- Node9 -->
<g id="node9" class="node"><title>Node9</title>
<polygon fill="none" stroke="#bfbfbf" points="156.5,-162.5 156.5,-179.5 207.5,-179.5 207.5,-162.5 156.5,-162.5"/>
<text text-anchor="middle" x="182" y="-169.1" font-family="Helvetica,sans-Serif" font-size="8.00">stdexcept</text>
</g>
<!-- Node1&#45;&gt;Node9 -->
<g id="edge9" class="edge"><title>Node1&#45;&gt;Node9</title>
<path fill="none" stroke="midnightblue" d="M182,-216.327C182,-209.414 182,-198.985 182,-189.979"/>
<polygon fill="midnightblue" stroke="midnightblue" points="185.5,-189.704 182,-179.704 178.5,-189.704 185.5,-189.704"/>
</g>
<!-- Node10 -->
<g id="node10" class="node"><title>Node10</title>
<polygon fill="none" stroke="#bfbfbf" points="225.5,-162.5 225.5,-179.5 270.5,-179.5 270.5,-162.5 225.5,-162.5"/>
<text text-anchor="middle" x="248" y="-169.1" font-family="Helvetica,sans-Serif" font-size="8.00">sstream</text>
</g>
<!-- Node1&#45;&gt;Node10 -->
<g id="edge10" class="edge"><title>Node1&#45;&gt;Node10</title>
<path fill="none" stroke="midnightblue" d="M191.739,-216.327C201.877,-208.339 217.976,-195.655 230.36,-185.898"/>
<polygon fill="midnightblue" stroke="midnightblue" points="232.533,-188.642 238.222,-179.704 228.201,-183.144 232.533,-188.642"/>
</g>
<!-- Node3 -->
<g id="node3" class="node"><title>Node3</title>
<polygon fill="none" stroke="#bfbfbf" points="0,-108.5 0,-125.5 36,-125.5 36,-108.5 0,-108.5"/>
<text text-anchor="middle" x="18" y="-115.1" font-family="Helvetica,sans-Serif" font-size="8.00">string</text>
</g>
<!-- Node2&#45;&gt;Node3 -->
<g id="edge2" class="edge"><title>Node2&#45;&gt;Node3</title>
<path fill="none" stroke="midnightblue" d="M66.5895,-162.327C58.0017,-154.493 44.4625,-142.141 33.8548,-132.464"/>
<polygon fill="midnightblue" stroke="midnightblue" points="36.1916,-129.858 26.4451,-125.704 31.4739,-135.03 36.1916,-129.858"/>
</g>
<!-- Node4 -->
<g id="node4" class="node"><title>Node4</title>
<polygon fill="none" stroke="#bfbfbf" points="54.5,-108.5 54.5,-125.5 95.5,-125.5 95.5,-108.5 54.5,-108.5"/>
<text text-anchor="middle" x="75" y="-115.1" font-family="Helvetica,sans-Serif" font-size="8.00">math.h</text>
</g>
<!-- Node2&#45;&gt;Node4 -->
<g id="edge3" class="edge"><title>Node2&#45;&gt;Node4</title>
<path fill="none" stroke="midnightblue" d="M75,-162.327C75,-155.414 75,-144.985 75,-135.979"/>
<polygon fill="midnightblue" stroke="midnightblue" points="78.5001,-135.704 75,-125.704 71.5001,-135.704 78.5001,-135.704"/>
</g>
<!-- Node5 -->
<g id="node5" class="node"><title>Node5</title>
<g id="a_node5"><a xlink:href="../../d8/d46/_e_w_s_mcache_8h.html" target="_top" xlink:title="EWSMcache.h">
<polygon fill="none" stroke="red" points="113.5,-108.5 113.5,-125.5 182.5,-125.5 182.5,-108.5 113.5,-108.5"/>
<text text-anchor="middle" x="148" y="-115.1" font-family="Helvetica,sans-Serif" font-size="8.00">EWSMcache.h</text>
</a>
</g>
</g>
<!-- Node2&#45;&gt;Node5 -->
<g id="edge4" class="edge"><title>Node2&#45;&gt;Node5</title>
<path fill="none" stroke="midnightblue" d="M85.7714,-162.327C97.0932,-154.262 115.135,-141.411 128.883,-131.617"/>
<polygon fill="midnightblue" stroke="midnightblue" points="131.07,-134.357 137.184,-125.704 127.009,-128.655 131.07,-134.357"/>
</g>
<!-- Node6 -->
<g id="node6" class="node"><title>Node6</title>
<polygon fill="none" stroke="#bfbfbf" points="59,-54.5 59,-71.5 97,-71.5 97,-54.5 59,-54.5"/>
<text text-anchor="middle" x="78" y="-61.1" font-family="Helvetica,sans-Serif" font-size="8.00">cmath</text>
</g>
<!-- Node5&#45;&gt;Node6 -->
<g id="edge5" class="edge"><title>Node5&#45;&gt;Node6</title>
<path fill="none" stroke="midnightblue" d="M137.671,-108.327C126.918,-100.339 109.843,-87.6551 96.7088,-77.8979"/>
<polygon fill="midnightblue" stroke="midnightblue" points="98.4857,-74.8579 88.3711,-71.7043 94.3114,-80.4771 98.4857,-74.8579"/>
</g>
<!-- Node7 -->
<g id="node7" class="node"><title>Node7</title>
<g id="a_node7"><a xlink:href="../../d3/d6b/_p_vfunctions_8h.html" target="_top" xlink:title="PVfunctions.h">
<polygon fill="none" stroke="red" points="115,-54.5 115,-71.5 181,-71.5 181,-54.5 115,-54.5"/>
<text text-anchor="middle" x="148" y="-61.1" font-family="Helvetica,sans-Serif" font-size="8.00">PVfunctions.h</text>
</a>
</g>
</g>
<!-- Node5&#45;&gt;Node7 -->
<g id="edge6" class="edge"><title>Node5&#45;&gt;Node7</title>
<path fill="none" stroke="midnightblue" d="M148,-108.327C148,-101.414 148,-90.985 148,-81.9789"/>
<polygon fill="midnightblue" stroke="midnightblue" points="151.5,-81.7042 148,-71.7043 144.5,-81.7043 151.5,-81.7042"/>
</g>
<!-- Node8 -->
<g id="node8" class="node"><title>Node8</title>
<g id="a_node8"><a xlink:href="../../dd/dc1/_polylogarithms_8h.html" target="_top" xlink:title="Polylogarithms.h">
<polygon fill="none" stroke="red" points="140,-0.5 140,-17.5 216,-17.5 216,-0.5 140,-0.5"/>
<text text-anchor="middle" x="178" y="-7.1" font-family="Helvetica,sans-Serif" font-size="8.00">Polylogarithms.h</text>
</a>
</g>
</g>
<!-- Node5&#45;&gt;Node8 -->
<g id="edge8" class="edge"><title>Node5&#45;&gt;Node8</title>
<path fill="none" stroke="midnightblue" d="M159.024,-108.402C169.25,-100.619 183.794,-87.4884 190,-72 195.862,-57.3703 191.357,-39.6213 186.279,-26.869"/>
<polygon fill="midnightblue" stroke="midnightblue" points="189.371,-25.2106 182.094,-17.5105 182.981,-28.0681 189.371,-25.2106"/>
</g>
<!-- Node7&#45;&gt;Node8 -->
<g id="edge7" class="edge"><title>Node7&#45;&gt;Node8</title>
<path fill="none" stroke="midnightblue" d="M152.427,-54.3272C156.636,-47.0304 163.107,-35.8153 168.485,-26.4919"/>
<polygon fill="midnightblue" stroke="midnightblue" points="171.59,-28.1152 173.555,-17.7043 165.526,-24.6171 171.59,-28.1152"/>
</g>
</g>
</svg>
