<?xml version="1.0" encoding="UTF-8" standalone="no"?>
<!DOCTYPE svg PUBLIC "-//W3C//DTD SVG 1.1//EN"
 "http://www.w3.org/Graphics/SVG/1.1/DTD/svg11.dtd">
<!-- Generated by graphviz version 2.40.1 (20161225.0304)
 -->
<!-- Title: NPSTUZbbbarLR.h Pages: 1 -->
<svg width="200pt" height="80pt"
 viewBox="0.00 0.00 200.00 80.00" xmlns="http://www.w3.org/2000/svg" xmlns:xlink="http://www.w3.org/1999/xlink">
<g id="graph0" class="graph" transform="scale(1 1) rotate(0) translate(4 76)">
<title>NPSTUZbbbarLR.h</title>
<!-- Node51 -->
<g id="node1" class="node">
<title>Node51</title>
<polygon fill="#bfbfbf" stroke="#000000" points="49,-54.5 49,-71.5 135,-71.5 135,-54.5 49,-54.5"/>
<text text-anchor="middle" x="92" y="-61.1" font-family="Helvetica,sans-Serif" font-size="8.00" fill="#000000">NPSTUZbbbarLR.h</text>
</g>
<!-- Node52 -->
<g id="node2" class="node">
<title>Node52</title>
<g id="a_node2"><a xlink:href="../../d3/df6/_model_factory_8cpp.html" target="_top" xlink:title="ModelFactory.cpp">
<polygon fill="none" stroke="#000000" points="0,-.5 0,-17.5 80,-17.5 80,-.5 0,-.5"/>
<text text-anchor="middle" x="40" y="-7.1" font-family="Helvetica,sans-Serif" font-size="8.00" fill="#000000">ModelFactory.cpp</text>
</a>
</g>
</g>
<!-- Node51&#45;&gt;Node52 -->
<g id="edge1" class="edge">
<title>Node51&#45;&gt;Node52</title>
<path fill="none" stroke="#191970" d="M76.3206,-46.7175C67.1553,-37.1997 55.9474,-25.5608 48.427,-17.7511"/>
<polygon fill="#191970" stroke="#191970" points="73.9557,-49.3075 83.4133,-54.083 78.9979,-44.452 73.9557,-49.3075"/>
</g>
<!-- Node53 -->
<g id="node3" class="node">
<title>Node53</title>
<g id="a_node3"><a xlink:href="../../d1/dfa/_n_p_s_t_u_zbbbar_l_r_8cpp.html" target="_top" xlink:title="NPSTUZbbbarLR.cpp">
<polygon fill="none" stroke="#000000" points="98,-.5 98,-17.5 192,-17.5 192,-.5 98,-.5"/>
<text text-anchor="middle" x="145" y="-7.1" font-family="Helvetica,sans-Serif" font-size="8.00" fill="#000000">NPSTUZbbbarLR.cpp</text>
</a>
</g>
</g>
<!-- Node51&#45;&gt;Node53 -->
<g id="edge2" class="edge">
<title>Node51&#45;&gt;Node53</title>
<path fill="none" stroke="#191970" d="M107.9809,-46.7175C117.3225,-37.1997 128.7459,-25.5608 136.411,-17.7511"/>
<polygon fill="#191970" stroke="#191970" points="105.2587,-44.4945 100.7519,-54.083 110.2545,-49.3978 105.2587,-44.4945"/>
</g>
</g>
</svg>
