<?xml version="1.0" encoding="UTF-8" standalone="no"?>
<!DOCTYPE svg PUBLIC "-//W3C//DTD SVG 1.1//EN"
 "http://www.w3.org/Graphics/SVG/1.1/DTD/svg11.dtd">
<!-- Generated by graphviz version 2.38.0 (20140413.2041)
 -->
<!-- Title: Meson.h Pages: 1 -->
<svg width="327pt" height="188pt"
 viewBox="0.00 0.00 327.00 188.00" xmlns="http://www.w3.org/2000/svg" xmlns:xlink="http://www.w3.org/1999/xlink">
<g id="graph0" class="graph" transform="scale(1 1) rotate(0) translate(4 184)">
<title>Meson.h</title>
<!-- Node1 -->
<g id="node1" class="node"><title>Node1</title>
<polygon fill="#bfbfbf" stroke="black" points="110,-162.5 110,-179.5 157,-179.5 157,-162.5 110,-162.5"/>
<text text-anchor="middle" x="133.5" y="-169.1" font-family="Helvetica,sans-Serif" font-size="8.00">Meson.h</text>
</g>
<!-- Node2 -->
<g id="node2" class="node"><title>Node2</title>
<polygon fill="none" stroke="#bfbfbf" points="0,-108.5 0,-125.5 51,-125.5 51,-108.5 0,-108.5"/>
<text text-anchor="middle" x="25.5" y="-115.1" font-family="Helvetica,sans-Serif" font-size="8.00">stdexcept</text>
</g>
<!-- Node1&#45;&gt;Node2 -->
<g id="edge1" class="edge"><title>Node1&#45;&gt;Node2</title>
<path fill="none" stroke="midnightblue" d="M117.564,-162.327C99.8354,-153.791 70.9693,-139.893 50.285,-129.934"/>
<polygon fill="midnightblue" stroke="midnightblue" points="51.6784,-126.72 41.15,-125.535 48.6417,-133.027 51.6784,-126.72"/>
</g>
<!-- Node3 -->
<g id="node3" class="node"><title>Node3</title>
<g id="a_node3"><a xlink:href="../../d4/d15/_particle_8h.html" target="_top" xlink:title="Particle.h">
<polygon fill="none" stroke="black" points="69.5,-108.5 69.5,-125.5 119.5,-125.5 119.5,-108.5 69.5,-108.5"/>
<text text-anchor="middle" x="94.5" y="-115.1" font-family="Helvetica,sans-Serif" font-size="8.00">Particle.h</text>
</a>
</g>
</g>
<!-- Node1&#45;&gt;Node3 -->
<g id="edge2" class="edge"><title>Node1&#45;&gt;Node3</title>
<path fill="none" stroke="midnightblue" d="M127.745,-162.327C122.158,-154.877 113.506,-143.341 106.429,-133.906"/>
<polygon fill="midnightblue" stroke="midnightblue" points="109.078,-131.604 100.278,-125.704 103.478,-135.804 109.078,-131.604"/>
</g>
<!-- Node6 -->
<g id="node6" class="node"><title>Node6</title>
<g id="a_node6"><a xlink:href="../../d1/da1/_b_parameter_8h.html" target="_top" xlink:title="BParameter.h">
<polygon fill="none" stroke="black" points="139.5,-108.5 139.5,-125.5 205.5,-125.5 205.5,-108.5 139.5,-108.5"/>
<text text-anchor="middle" x="172.5" y="-115.1" font-family="Helvetica,sans-Serif" font-size="8.00">BParameter.h</text>
</a>
</g>
</g>
<!-- Node1&#45;&gt;Node6 -->
<g id="edge5" class="edge"><title>Node1&#45;&gt;Node6</title>
<path fill="none" stroke="midnightblue" d="M139.255,-162.327C144.842,-154.877 153.494,-143.341 160.571,-133.906"/>
<polygon fill="midnightblue" stroke="midnightblue" points="163.522,-135.804 166.722,-125.704 157.922,-131.604 163.522,-135.804"/>
</g>
<!-- Node10 -->
<g id="node10" class="node"><title>Node10</title>
<polygon fill="none" stroke="#bfbfbf" points="224,-108.5 224,-125.5 319,-125.5 319,-108.5 224,-108.5"/>
<text text-anchor="middle" x="271.5" y="-115.1" font-family="Helvetica,sans-Serif" font-size="8.00">boost/lexical_cast.hpp</text>
</g>
<!-- Node1&#45;&gt;Node10 -->
<g id="edge9" class="edge"><title>Node1&#45;&gt;Node10</title>
<path fill="none" stroke="midnightblue" d="M153.566,-162.439C176.766,-153.697 215.172,-139.225 241.826,-129.182"/>
<polygon fill="midnightblue" stroke="midnightblue" points="243.286,-132.372 251.409,-125.57 240.818,-125.821 243.286,-132.372"/>
</g>
<!-- Node4 -->
<g id="node4" class="node"><title>Node4</title>
<polygon fill="none" stroke="#bfbfbf" points="16.5,-54.5 16.5,-71.5 54.5,-71.5 54.5,-54.5 16.5,-54.5"/>
<text text-anchor="middle" x="35.5" y="-61.1" font-family="Helvetica,sans-Serif" font-size="8.00">vector</text>
</g>
<!-- Node3&#45;&gt;Node4 -->
<g id="edge3" class="edge"><title>Node3&#45;&gt;Node4</title>
<path fill="none" stroke="midnightblue" d="M85.7943,-108.327C76.9053,-100.493 62.891,-88.1412 51.9111,-78.4641"/>
<polygon fill="midnightblue" stroke="midnightblue" points="54.0577,-75.6906 44.2414,-71.7043 49.4293,-80.942 54.0577,-75.6906"/>
</g>
<!-- Node5 -->
<g id="node5" class="node"><title>Node5</title>
<polygon fill="none" stroke="#bfbfbf" points="72.5,-54.5 72.5,-71.5 108.5,-71.5 108.5,-54.5 72.5,-54.5"/>
<text text-anchor="middle" x="90.5" y="-61.1" font-family="Helvetica,sans-Serif" font-size="8.00">string</text>
</g>
<!-- Node3&#45;&gt;Node5 -->
<g id="edge4" class="edge"><title>Node3&#45;&gt;Node5</title>
<path fill="none" stroke="midnightblue" d="M93.9098,-108.327C93.3721,-101.338 92.5579,-90.7528 91.8599,-81.6792"/>
<polygon fill="midnightblue" stroke="midnightblue" points="95.3494,-81.4063 91.0926,-71.7043 88.37,-81.9433 95.3494,-81.4063"/>
</g>
<!-- Node7 -->
<g id="node7" class="node"><title>Node7</title>
<g id="a_node7"><a xlink:href="../../da/d8e/gslpp__vector__double_8h.html" target="_top" xlink:title="gslpp_vector_double.h">
<polygon fill="none" stroke="red" points="127,-54.5 127,-71.5 224,-71.5 224,-54.5 127,-54.5"/>
<text text-anchor="middle" x="175.5" y="-61.1" font-family="Helvetica,sans-Serif" font-size="8.00">gslpp_vector_double.h</text>
</a>
</g>
</g>
<!-- Node6&#45;&gt;Node7 -->
<g id="edge6" class="edge"><title>Node6&#45;&gt;Node7</title>
<path fill="none" stroke="midnightblue" d="M172.943,-108.327C173.341,-101.414 173.943,-90.985 174.463,-81.9789"/>
<polygon fill="midnightblue" stroke="midnightblue" points="177.974,-81.8893 175.056,-71.7043 170.985,-81.486 177.974,-81.8893"/>
</g>
<!-- Node9 -->
<g id="node9" class="node"><title>Node9</title>
<g id="a_node9"><a xlink:href="../../d4/d36/_order_scheme_8h.html" target="_top" xlink:title="OrderScheme.h">
<polygon fill="none" stroke="black" points="242,-54.5 242,-71.5 315,-71.5 315,-54.5 242,-54.5"/>
<text text-anchor="middle" x="278.5" y="-61.1" font-family="Helvetica,sans-Serif" font-size="8.00">OrderScheme.h</text>
</a>
</g>
</g>
<!-- Node6&#45;&gt;Node9 -->
<g id="edge8" class="edge"><title>Node6&#45;&gt;Node9</title>
<path fill="none" stroke="midnightblue" d="M188.141,-108.327C205.462,-99.8298 233.617,-86.0183 253.898,-76.069"/>
<polygon fill="midnightblue" stroke="midnightblue" points="255.703,-79.0818 263.14,-71.5352 252.62,-72.7972 255.703,-79.0818"/>
</g>
<!-- Node8 -->
<g id="node8" class="node"><title>Node8</title>
<polygon fill="none" stroke="#bfbfbf" points="152,-0.5 152,-17.5 199,-17.5 199,-0.5 152,-0.5"/>
<text text-anchor="middle" x="175.5" y="-7.1" font-family="Helvetica,sans-Serif" font-size="8.00">iostream</text>
</g>
<!-- Node7&#45;&gt;Node8 -->
<g id="edge7" class="edge"><title>Node7&#45;&gt;Node8</title>
<path fill="none" stroke="midnightblue" d="M175.5,-54.3272C175.5,-47.4145 175.5,-36.985 175.5,-27.9789"/>
<polygon fill="midnightblue" stroke="midnightblue" points="179,-27.7042 175.5,-17.7043 172,-27.7043 179,-27.7042"/>
</g>
</g>
</svg>
