<?xml version="1.0" encoding="UTF-8" standalone="no"?>
<!DOCTYPE svg PUBLIC "-//W3C//DTD SVG 1.1//EN"
 "http://www.w3.org/Graphics/SVG/1.1/DTD/svg11.dtd">
<!-- Generated by graphviz version 2.40.1 (20161225.0304)
 -->
<!-- Title: MVll.h Pages: 1 -->
<svg width="242pt" height="80pt"
 viewBox="0.00 0.00 242.00 80.00" xmlns="http://www.w3.org/2000/svg" xmlns:xlink="http://www.w3.org/1999/xlink">
<g id="graph0" class="graph" transform="scale(1 1) rotate(0) translate(4 76)">
<title>MVll.h</title>
<!-- Node7 -->
<g id="node1" class="node">
<title>Node7</title>
<polygon fill="#bfbfbf" stroke="#000000" points="80.5,-54.5 80.5,-71.5 119.5,-71.5 119.5,-54.5 80.5,-54.5"/>
<text text-anchor="middle" x="100" y="-61.1" font-family="Helvetica,sans-Serif" font-size="8.00" fill="#000000">MVll.h</text>
</g>
<!-- Node8 -->
<g id="node2" class="node">
<title>Node8</title>
<g id="a_node2"><a xlink:href="../../d7/d30/_flavour_8cpp.html" target="_top" xlink:title="Flavour.cpp">
<polygon fill="none" stroke="#000000" points="0,-.5 0,-17.5 58,-17.5 58,-.5 0,-.5"/>
<text text-anchor="middle" x="29" y="-7.1" font-family="Helvetica,sans-Serif" font-size="8.00" fill="#000000">Flavour.cpp</text>
</a>
</g>
</g>
<!-- Node7&#45;&gt;Node8 -->
<g id="edge1" class="edge">
<title>Node7&#45;&gt;Node8</title>
<path fill="none" stroke="#191970" d="M80.4103,-48.1008C67.6324,-38.3824 51.3873,-26.0269 40.6149,-17.8339"/>
<polygon fill="#191970" stroke="#191970" points="78.5143,-51.0561 88.5926,-54.324 82.7519,-45.4844 78.5143,-51.0561"/>
</g>
<!-- Node9 -->
<g id="node3" class="node">
<title>Node9</title>
<g id="a_node3"><a xlink:href="../../d7/da2/_m_vll_8cpp.html" target="_top" xlink:title="MVll.cpp">
<polygon fill="none" stroke="#000000" points="76.5,-.5 76.5,-17.5 123.5,-17.5 123.5,-.5 76.5,-.5"/>
<text text-anchor="middle" x="100" y="-7.1" font-family="Helvetica,sans-Serif" font-size="8.00" fill="#000000">MVll.cpp</text>
</a>
</g>
</g>
<!-- Node7&#45;&gt;Node9 -->
<g id="edge2" class="edge">
<title>Node7&#45;&gt;Node9</title>
<path fill="none" stroke="#191970" d="M100,-43.8045C100,-34.9102 100,-24.7798 100,-17.7511"/>
<polygon fill="#191970" stroke="#191970" points="96.5001,-44.083 100,-54.083 103.5001,-44.083 96.5001,-44.083"/>
</g>
<!-- Node10 -->
<g id="node4" class="node">
<title>Node10</title>
<g id="a_node4"><a xlink:href="../../d2/dce/_m_vll_observables_8cpp.html" target="_top" xlink:title="MVllObservables.cpp">
<polygon fill="none" stroke="#000000" points="142,-.5 142,-17.5 234,-17.5 234,-.5 142,-.5"/>
<text text-anchor="middle" x="188" y="-7.1" font-family="Helvetica,sans-Serif" font-size="8.00" fill="#000000">MVllObservables.cpp</text>
</a>
</g>
</g>
<!-- Node7&#45;&gt;Node10 -->
<g id="edge3" class="edge">
<title>Node7&#45;&gt;Node10</title>
<path fill="none" stroke="#191970" d="M122.9769,-48.9005C139.1134,-38.9986 160.1813,-26.0705 173.8964,-17.6545"/>
<polygon fill="#191970" stroke="#191970" points="120.8314,-46.1106 114.1387,-54.324 124.4925,-52.0769 120.8314,-46.1106"/>
</g>
</g>
</svg>
