<?xml version="1.0" encoding="UTF-8" standalone="no"?>
<!DOCTYPE svg PUBLIC "-//W3C//DTD SVG 1.1//EN"
 "http://www.w3.org/Graphics/SVG/1.1/DTD/svg11.dtd">
<!-- Generated by graphviz version 2.40.1 (20161225.0304)
 -->
<!-- Title: LHPC::MassSpectrumClass::NeutralinosOneToFive Pages: 1 -->
<svg width="206pt" height="418pt"
 viewBox="0.00 0.00 206.00 418.00" xmlns="http://www.w3.org/2000/svg" xmlns:xlink="http://www.w3.org/1999/xlink">
<g id="graph0" class="graph" transform="scale(1 1) rotate(0) translate(4 414)">
<title>LHPC::MassSpectrumClass::NeutralinosOneToFive</title>
<!-- Node0 -->
<g id="node1" class="node">
<title>Node0</title>
<polygon fill="#bfbfbf" stroke="#000000" points="8,-73.5 8,-99.5 124,-99.5 124,-73.5 8,-73.5"/>
<text text-anchor="start" x="16" y="-89.1" font-family="Helvetica,sans-Serif" font-size="8.00" fill="#000000">LHPC::MassSpectrumClass</text>
<text text-anchor="middle" x="66" y="-80.1" font-family="Helvetica,sans-Serif" font-size="8.00" fill="#000000">::NeutralinosOneToFive</text>
</g>
<!-- Node6 -->
<g id="node7" class="node">
<title>Node6</title>
<g id="a_node7"><a xlink:href="../../d4/def/class_l_h_p_c_1_1_mass_spectrum_class_1_1_next_to_minimal_supersymmetric_standard_model.html" target="_top" xlink:title="LHPC::MassSpectrumClass\l::NextToMinimalSupersymmetric\lStandardModel">
<polygon fill="none" stroke="#000000" points="0,-.5 0,-35.5 132,-35.5 132,-.5 0,-.5"/>
<text text-anchor="start" x="8" y="-25.1" font-family="Helvetica,sans-Serif" font-size="8.00" fill="#000000">LHPC::MassSpectrumClass</text>
<text text-anchor="start" x="8" y="-16.1" font-family="Helvetica,sans-Serif" font-size="8.00" fill="#000000">::NextToMinimalSupersymmetric</text>
<text text-anchor="middle" x="66" y="-7.1" font-family="Helvetica,sans-Serif" font-size="8.00" fill="#000000">StandardModel</text>
</a>
</g>
</g>
<!-- Node0&#45;&gt;Node6 -->
<g id="edge8" class="edge">
<title>Node0&#45;&gt;Node6</title>
<path fill="none" stroke="#191970" d="M66,-63.0521C66,-54.0479 66,-43.934 66,-35.5737"/>
<polygon fill="#191970" stroke="#191970" points="62.5001,-63.2925 66,-73.2925 69.5001,-63.2925 62.5001,-63.2925"/>
</g>
<!-- Node1 -->
<g id="node2" class="node">
<title>Node1</title>
<g id="a_node2"><a xlink:href="../../d3/d8f/class_l_h_p_c_1_1_mass_spectrum.html" target="_top" xlink:title="LHPC::MassSpectrum">
<polygon fill="none" stroke="#000000" points="18,-201.5 18,-218.5 114,-218.5 114,-201.5 18,-201.5"/>
<text text-anchor="middle" x="66" y="-208.1" font-family="Helvetica,sans-Serif" font-size="8.00" fill="#000000">LHPC::MassSpectrum</text>
</a>
</g>
</g>
<!-- Node1&#45;&gt;Node0 -->
<g id="edge1" class="edge">
<title>Node1&#45;&gt;Node0</title>
<path fill="none" stroke="#191970" d="M66,-190.953C66,-165.634 66,-121.5455 66,-99.6362"/>
<polygon fill="#191970" stroke="#191970" points="62.5001,-191.1182 66,-201.1182 69.5001,-191.1182 62.5001,-191.1182"/>
</g>
<!-- Node5 -->
<g id="node6" class="node">
<title>Node5</title>
<g id="a_node6"><a xlink:href="../../d4/d99/class_l_h_p_c_1_1_mass_spectrum_class_1_1_neutralinos_one_to_four.html" target="_top" xlink:title="LHPC::MassSpectrumClass\l::NeutralinosOneToFour">
<polygon fill="none" stroke="#000000" points="82,-137.5 82,-163.5 198,-163.5 198,-137.5 82,-137.5"/>
<text text-anchor="start" x="90" y="-153.1" font-family="Helvetica,sans-Serif" font-size="8.00" fill="#000000">LHPC::MassSpectrumClass</text>
<text text-anchor="middle" x="140" y="-144.1" font-family="Helvetica,sans-Serif" font-size="8.00" fill="#000000">::NeutralinosOneToFour</text>
</a>
</g>
</g>
<!-- Node1&#45;&gt;Node5 -->
<g id="edge7" class="edge">
<title>Node1&#45;&gt;Node5</title>
<path fill="none" stroke="#191970" d="M84.6393,-195.013C96.6635,-185.3449 112.1532,-172.8903 123.6888,-163.6151"/>
<polygon fill="#191970" stroke="#191970" points="82.2025,-192.4812 76.6024,-201.4751 86.5889,-197.9365 82.2025,-192.4812"/>
</g>
<!-- Node2 -->
<g id="node3" class="node">
<title>Node2</title>
<g id="a_node3"><a xlink:href="../../d5/d13/class_b_o_l_1_1_pushed_to_observer.html" target="_top" xlink:title="BOL::PushedToObserver\l\&lt; SpectrumUpdater \&gt;">
<polygon fill="none" stroke="#000000" points="13,-256.5 13,-282.5 119,-282.5 119,-256.5 13,-256.5"/>
<text text-anchor="start" x="21" y="-272.1" font-family="Helvetica,sans-Serif" font-size="8.00" fill="#000000">BOL::PushedToObserver</text>
<text text-anchor="middle" x="66" y="-263.1" font-family="Helvetica,sans-Serif" font-size="8.00" fill="#000000">&lt; SpectrumUpdater &gt;</text>
</a>
</g>
</g>
<!-- Node2&#45;&gt;Node1 -->
<g id="edge2" class="edge">
<title>Node2&#45;&gt;Node1</title>
<path fill="none" stroke="#191970" d="M66,-246.0042C66,-236.3375 66,-225.7482 66,-218.5724"/>
<polygon fill="#191970" stroke="#191970" points="62.5001,-246.295 66,-256.295 69.5001,-246.2951 62.5001,-246.295"/>
</g>
<!-- Node3 -->
<g id="node4" class="node">
<title>Node3</title>
<g id="a_node4"><a xlink:href="../../d3/d09/class_b_o_l_1_1_basic_observer.html" target="_top" xlink:title="BOL::BasicObserver">
<polygon fill="none" stroke="#000000" points="17.5,-392.5 17.5,-409.5 106.5,-409.5 106.5,-392.5 17.5,-392.5"/>
<text text-anchor="middle" x="62" y="-399.1" font-family="Helvetica,sans-Serif" font-size="8.00" fill="#000000">BOL::BasicObserver</text>
</a>
</g>
</g>
<!-- Node3&#45;&gt;Node2 -->
<g id="edge3" class="edge">
<title>Node3&#45;&gt;Node2</title>
<path fill="none" stroke="#191970" d="M62.5675,-382.3425C63.3852,-355.4602 64.8752,-306.4781 65.5926,-282.8937"/>
<polygon fill="#191970" stroke="#191970" points="59.0682,-382.2701 62.2625,-392.3719 66.065,-382.483 59.0682,-382.2701"/>
</g>
<!-- Node4 -->
<g id="node5" class="node">
<title>Node4</title>
<g id="a_node5"><a xlink:href="../../d5/d13/class_b_o_l_1_1_pushed_to_observer.html" target="_top" xlink:title="BOL::PushedToObserver\l\&lt; PushedClass \&gt;">
<polygon fill="none" stroke="#000000" points="78,-328.5 78,-354.5 184,-354.5 184,-328.5 78,-328.5"/>
<text text-anchor="start" x="86" y="-344.1" font-family="Helvetica,sans-Serif" font-size="8.00" fill="#000000">BOL::PushedToObserver</text>
<text text-anchor="middle" x="131" y="-335.1" font-family="Helvetica,sans-Serif" font-size="8.00" fill="#000000">&lt; PushedClass &gt;</text>
</a>
</g>
</g>
<!-- Node3&#45;&gt;Node4 -->
<g id="edge5" class="edge">
<title>Node3&#45;&gt;Node4</title>
<path fill="none" stroke="#191970" d="M79.7074,-385.7306C90.8718,-376.1033 105.1392,-363.8003 115.7909,-354.6151"/>
<polygon fill="#191970" stroke="#191970" points="77.1735,-383.294 71.886,-392.4751 81.7449,-388.5952 77.1735,-383.294"/>
</g>
<!-- Node4&#45;&gt;Node2 -->
<g id="edge4" class="edge">
<title>Node4&#45;&gt;Node2</title>
<path fill="none" stroke="#ffa500" stroke-dasharray="5,2" d="M112.2382,-320.7176C101.1494,-308.4347 87.4456,-293.2552 77.8464,-282.6222"/>
<polygon fill="#ffa500" stroke="#ffa500" points="109.779,-323.2168 119.078,-328.2941 114.9749,-318.526 109.779,-323.2168"/>
<text text-anchor="middle" x="141.5" y="-303.6" font-family="Helvetica,sans-Serif" font-size="8.00" fill="#000000"> &lt; SpectrumUpdater &gt;</text>
</g>
<!-- Node5&#45;&gt;Node0 -->
<g id="edge6" class="edge">
<title>Node5&#45;&gt;Node0</title>
<path fill="none" stroke="#191970" d="M116.9844,-130.5946C105.2796,-120.4715 91.3855,-108.455 81.06,-99.5249"/>
<polygon fill="#191970" stroke="#191970" points="114.814,-133.3449 124.6672,-137.2392 119.393,-128.0503 114.814,-133.3449"/>
</g>
</g>
</svg>
