<?xml version="1.0" encoding="UTF-8" standalone="no"?>
<!DOCTYPE svg PUBLIC "-//W3C//DTD SVG 1.1//EN"
 "http://www.w3.org/Graphics/SVG/1.1/DTD/svg11.dtd">
<!-- Generated by graphviz version 2.38.0 (20140413.2041)
 -->
<!-- Title: AFBbottom.h Pages: 1 -->
<svg width="180pt" height="134pt"
 viewBox="0.00 0.00 180.00 134.00" xmlns="http://www.w3.org/2000/svg" xmlns:xlink="http://www.w3.org/1999/xlink">
<g id="graph0" class="graph" transform="scale(1 1) rotate(0) translate(4 130)">
<title>AFBbottom.h</title>
<!-- Node1 -->
<g id="node1" class="node"><title>Node1</title>
<polygon fill="#bfbfbf" stroke="black" points="51.5,-108.5 51.5,-125.5 114.5,-125.5 114.5,-108.5 51.5,-108.5"/>
<text text-anchor="middle" x="83" y="-115.1" font-family="Helvetica,sans-Serif" font-size="8.00">AFBbottom.h</text>
</g>
<!-- Node2 -->
<g id="node2" class="node"><title>Node2</title>
<g id="a_node2"><a xlink:href="../../d9/d12/_a_f_bbottom_8cpp.html" target="_top" xlink:title="AFBbottom.cpp">
<polygon fill="none" stroke="black" points="0,-54.5 0,-71.5 72,-71.5 72,-54.5 0,-54.5"/>
<text text-anchor="middle" x="36" y="-61.1" font-family="Helvetica,sans-Serif" font-size="8.00">AFBbottom.cpp</text>
</a>
</g>
</g>
<!-- Node1&#45;&gt;Node2 -->
<g id="edge1" class="edge"><title>Node1&#45;&gt;Node2</title>
<path fill="none" stroke="midnightblue" d="M69.1845,-100.715C60.5683,-91.182 49.8469,-79.32 42.9635,-71.7043"/>
<polygon fill="midnightblue" stroke="midnightblue" points="66.763,-103.255 76.065,-108.327 71.9561,-98.5616 66.763,-103.255"/>
</g>
<!-- Node3 -->
<g id="node3" class="node"><title>Node3</title>
<g id="a_node3"><a xlink:href="../../dd/df3/_e_w_observables_8h.html" target="_top" xlink:title="A header file for the observables defined in EW module. ">
<polygon fill="none" stroke="black" points="90.5,-54.5 90.5,-71.5 171.5,-71.5 171.5,-54.5 90.5,-54.5"/>
<text text-anchor="middle" x="131" y="-61.1" font-family="Helvetica,sans-Serif" font-size="8.00">EWObservables.h</text>
</a>
</g>
</g>
<!-- Node1&#45;&gt;Node3 -->
<g id="edge2" class="edge"><title>Node1&#45;&gt;Node3</title>
<path fill="none" stroke="midnightblue" d="M97.1094,-100.715C105.909,-91.182 116.858,-79.32 123.888,-71.7043"/>
<polygon fill="midnightblue" stroke="midnightblue" points="94.2936,-98.6052 90.0826,-108.327 99.4372,-103.353 94.2936,-98.6052"/>
</g>
<!-- Node4 -->
<g id="node4" class="node"><title>Node4</title>
<g id="a_node4"><a xlink:href="../../d1/de2/_th_obs_factory_8cpp.html" target="_top" xlink:title="ThObsFactory.cpp">
<polygon fill="none" stroke="black" points="90,-0.5 90,-17.5 172,-17.5 172,-0.5 90,-0.5"/>
<text text-anchor="middle" x="131" y="-7.1" font-family="Helvetica,sans-Serif" font-size="8.00">ThObsFactory.cpp</text>
</a>
</g>
</g>
<!-- Node3&#45;&gt;Node4 -->
<g id="edge3" class="edge"><title>Node3&#45;&gt;Node4</title>
<path fill="none" stroke="midnightblue" d="M131,-44.0621C131,-35.0603 131,-24.6277 131,-17.7043"/>
<polygon fill="midnightblue" stroke="midnightblue" points="127.5,-44.3272 131,-54.3272 134.5,-44.3273 127.5,-44.3272"/>
</g>
</g>
</svg>
