<?xml version="1.0" encoding="UTF-8" standalone="no"?>
<!DOCTYPE svg PUBLIC "-//W3C//DTD SVG 1.1//EN"
 "http://www.w3.org/Graphics/SVG/1.1/DTD/svg11.dtd">
<!-- Generated by graphviz version 2.40.1 (20161225.0304)
 -->
<!-- Title: HeffDF2 Pages: 1 -->
<svg width="666pt" height="224pt"
 viewBox="0.00 0.00 666.00 224.00" xmlns="http://www.w3.org/2000/svg" xmlns:xlink="http://www.w3.org/1999/xlink">
<g id="graph0" class="graph" transform="scale(1 1) rotate(0) translate(4 220)">
<title>HeffDF2</title>
<!-- Node1 -->
<g id="node1" class="node">
<title>Node1</title>
<polygon fill="#bfbfbf" stroke="#000000" points="425.5,-130.5 425.5,-147.5 471.5,-147.5 471.5,-130.5 425.5,-130.5"/>
<text text-anchor="middle" x="448.5" y="-137.1" font-family="Helvetica,sans-Serif" font-size="8.00" fill="#000000">HeffDF2</text>
</g>
<!-- Node2 -->
<g id="node2" class="node">
<title>Node2</title>
<g id="a_node2"><a xlink:href="../../d7/d10/classgslpp_1_1matrix_3_01double_01_4.html" target="_top" xlink:title="A class for constructing and defining operations on real matrices. ">
<polygon fill="none" stroke="#000000" points="212,-198.5 212,-215.5 312,-215.5 312,-198.5 212,-198.5"/>
<text text-anchor="middle" x="262" y="-205.1" font-family="Helvetica,sans-Serif" font-size="8.00" fill="#000000">gslpp::matrix&lt; double &gt;</text>
</a>
</g>
</g>
<!-- Node2&#45;&gt;Node1 -->
<g id="edge1" class="edge">
<title>Node2&#45;&gt;Node1</title>
<path fill="none" stroke="#9a32cd" stroke-dasharray="5,2" d="M322.5017,-202.8243C344.4585,-199.718 369.0111,-194.3298 390,-185 410.3066,-175.9735 429.7341,-158.3112 440.297,-147.6922"/>
<polygon fill="#9a32cd" stroke="#9a32cd" points="321.7626,-199.3904 312.2896,-204.135 322.6538,-206.3334 321.7626,-199.3904"/>
<text text-anchor="middle" x="360" y="-203.6" font-family="Helvetica,sans-Serif" font-size="8.00" fill="#000000"> drNDRLRI</text>
</g>
<!-- Node3 -->
<g id="node3" class="node">
<title>Node3</title>
<g id="a_node3"><a xlink:href="../../d2/d95/class_wilson_coefficient.html" target="_top" xlink:title="A class for the Wilson coefficients. ">
<polygon fill="none" stroke="#000000" points="223,-130.5 223,-147.5 301,-147.5 301,-130.5 223,-130.5"/>
<text text-anchor="middle" x="262" y="-137.1" font-family="Helvetica,sans-Serif" font-size="8.00" fill="#000000">WilsonCoefficient</text>
</a>
</g>
</g>
<!-- Node3&#45;&gt;Node1 -->
<g id="edge2" class="edge">
<title>Node3&#45;&gt;Node1</title>
<path fill="none" stroke="#9a32cd" stroke-dasharray="5,2" d="M311.161,-139C348.0648,-139 396.9356,-139 425.3272,-139"/>
<polygon fill="#9a32cd" stroke="#9a32cd" points="311.0965,-135.5001 301.0965,-139 311.0965,-142.5001 311.0965,-135.5001"/>
<text text-anchor="middle" x="360" y="-177.6" font-family="Helvetica,sans-Serif" font-size="8.00" fill="#000000"> coeffk</text>
<text text-anchor="middle" x="360" y="-168.6" font-family="Helvetica,sans-Serif" font-size="8.00" fill="#000000">coeffbs</text>
<text text-anchor="middle" x="360" y="-159.6" font-family="Helvetica,sans-Serif" font-size="8.00" fill="#000000">coeffmk</text>
<text text-anchor="middle" x="360" y="-150.6" font-family="Helvetica,sans-Serif" font-size="8.00" fill="#000000">coeffDd</text>
<text text-anchor="middle" x="360" y="-141.6" font-family="Helvetica,sans-Serif" font-size="8.00" fill="#000000">coeffbd</text>
</g>
<!-- Node4 -->
<g id="node4" class="node">
<title>Node4</title>
<g id="a_node4"><a xlink:href="../../dd/d6f/class_wilson_template.html" target="_top" xlink:title="WilsonTemplate\&lt; gslpp\l::vector\&lt; gslpp::complex \&gt; \&gt;">
<polygon fill="none" stroke="#ff0000" points="14,-126 14,-152 131,-152 131,-126 14,-126"/>
<text text-anchor="start" x="22" y="-141.6" font-family="Helvetica,sans-Serif" font-size="8.00" fill="#000000">WilsonTemplate&lt; gslpp</text>
<text text-anchor="middle" x="72.5" y="-132.6" font-family="Helvetica,sans-Serif" font-size="8.00" fill="#000000">::vector&lt; gslpp::complex &gt; &gt;</text>
</a>
</g>
</g>
<!-- Node4&#45;&gt;Node3 -->
<g id="edge3" class="edge">
<title>Node4&#45;&gt;Node3</title>
<path fill="none" stroke="#191970" d="M141.4773,-139C168.8455,-139 199.3187,-139 222.7759,-139"/>
<polygon fill="#191970" stroke="#191970" points="141.1613,-135.5001 131.1612,-139 141.1612,-142.5001 141.1613,-135.5001"/>
</g>
<!-- Node9 -->
<g id="node5" class="node">
<title>Node9</title>
<g id="a_node5"><a xlink:href="../../dc/dd5/class_standard_model.html" target="_top" xlink:title="A model class for the Standard Model. ">
<polygon fill="none" stroke="#ff0000" points="226.5,-41.5 226.5,-58.5 297.5,-58.5 297.5,-41.5 226.5,-41.5"/>
<text text-anchor="middle" x="262" y="-48.1" font-family="Helvetica,sans-Serif" font-size="8.00" fill="#000000">StandardModel</text>
</a>
</g>
</g>
<!-- Node9&#45;&gt;Node1 -->
<g id="edge4" class="edge">
<title>Node9&#45;&gt;Node1</title>
<path fill="none" stroke="#9a32cd" stroke-dasharray="5,2" d="M288.9991,-62.8843C327.6899,-81.348 397.85,-114.8292 430.6717,-130.4921"/>
<polygon fill="#9a32cd" stroke="#9a32cd" points="290.4149,-59.6818 279.8824,-58.5337 287.4,-65.9994 290.4149,-59.6818"/>
<text text-anchor="middle" x="360" y="-112.6" font-family="Helvetica,sans-Serif" font-size="8.00" fill="#000000"> model</text>
</g>
<!-- Node14 -->
<g id="node8" class="node">
<title>Node14</title>
<g id="a_node8"><a xlink:href="../../dc/df3/class_e_w_s_mcache.html" target="_top" xlink:title="A class for cache variables used in computing radiative corrections to the EW precision observables...">
<polygon fill="none" stroke="#ff0000" points="417,-37.5 417,-54.5 480,-54.5 480,-37.5 417,-37.5"/>
<text text-anchor="middle" x="448.5" y="-44.1" font-family="Helvetica,sans-Serif" font-size="8.00" fill="#000000">EWSMcache</text>
</a>
</g>
</g>
<!-- Node9&#45;&gt;Node14 -->
<g id="edge8" class="edge">
<title>Node9&#45;&gt;Node14</title>
<path fill="none" stroke="#9a32cd" stroke-dasharray="5,2" d="M307.6857,-52.907C332.1238,-53.9987 362.7215,-54.6262 390,-53 398.7811,-52.4765 408.2643,-51.5148 416.987,-50.4683"/>
<polygon fill="#9a32cd" stroke="#9a32cd" points="307.7756,-49.4073 297.6169,-52.4159 307.4345,-56.399 307.7756,-49.4073"/>
<text text-anchor="middle" x="360" y="-55.6" font-family="Helvetica,sans-Serif" font-size="8.00" fill="#000000"> SM</text>
</g>
<!-- Node10 -->
<g id="node6" class="node">
<title>Node10</title>
<g id="a_node6"><a xlink:href="../../dd/dfa/class_q_c_d.html" target="_top" xlink:title="A class for parameters related to QCD, hadrons and quarks. ">
<polygon fill="none" stroke="#ff0000" points="55.5,-82.5 55.5,-99.5 89.5,-99.5 89.5,-82.5 55.5,-82.5"/>
<text text-anchor="middle" x="72.5" y="-89.1" font-family="Helvetica,sans-Serif" font-size="8.00" fill="#000000">QCD</text>
</a>
</g>
</g>
<!-- Node10&#45;&gt;Node9 -->
<g id="edge5" class="edge">
<title>Node10&#45;&gt;Node9</title>
<path fill="none" stroke="#191970" d="M99.6037,-85.1359C132.9558,-77.9199 189.6759,-65.648 226.4833,-57.6843"/>
<polygon fill="#191970" stroke="#191970" points="98.6848,-81.7536 89.6511,-87.2892 100.1651,-88.5953 98.6848,-81.7536"/>
</g>
<!-- Node13 -->
<g id="node7" class="node">
<title>Node13</title>
<g id="a_node7"><a xlink:href="../../db/d32/class_e_w_s_m_two_fermions_l_e_p2.html" target="_top" xlink:title="A class for the form factors , &#160;and &#160;in the processes &#160;at LEP&#45;II. ">
<polygon fill="none" stroke="#ff0000" points="549,-17.5 549,-34.5 658,-34.5 658,-17.5 549,-17.5"/>
<text text-anchor="middle" x="603.5" y="-24.1" font-family="Helvetica,sans-Serif" font-size="8.00" fill="#000000">EWSMTwoFermionsLEP2</text>
</a>
</g>
</g>
<!-- Node13&#45;&gt;Node9 -->
<g id="edge6" class="edge">
<title>Node13&#45;&gt;Node9</title>
<path fill="none" stroke="#9a32cd" stroke-dasharray="5,2" d="M538.3728,-21.3272C522.2461,-20.3608 505.0028,-19.4887 489,-19 453.0168,-17.9011 443.8032,-15.2409 408,-19 367.7978,-23.221 322.3767,-33.8091 293.0258,-41.437"/>
<polygon fill="#9a32cd" stroke="#9a32cd" points="538.5873,-24.8472 548.7848,-21.9729 539.0206,-17.8606 538.5873,-24.8472"/>
<text text-anchor="middle" x="448.5" y="-21.6" font-family="Helvetica,sans-Serif" font-size="8.00" fill="#000000"> myTwoFermionsLEP2</text>
</g>
<!-- Node14&#45;&gt;Node9 -->
<g id="edge9" class="edge">
<title>Node14&#45;&gt;Node9</title>
<path fill="none" stroke="#9a32cd" stroke-dasharray="5,2" d="M406.8801,-44.4022C401.2083,-44.2356 395.4614,-44.0933 390,-44 363.3372,-43.5444 356.6409,-42.8269 330,-44 319.4624,-44.464 308.033,-45.3306 297.6054,-46.2637"/>
<polygon fill="#9a32cd" stroke="#9a32cd" points="406.8237,-47.9021 416.9303,-44.723 407.0471,-40.9057 406.8237,-47.9021"/>
<text text-anchor="middle" x="360" y="-46.6" font-family="Helvetica,sans-Serif" font-size="8.00" fill="#000000"> myEWSMcache</text>
</g>
<!-- Node14&#45;&gt;Node13 -->
<g id="edge7" class="edge">
<title>Node14&#45;&gt;Node13</title>
<path fill="none" stroke="#9a32cd" stroke-dasharray="5,2" d="M490.1681,-40.6235C508.221,-38.2941 529.6,-35.5355 548.8979,-33.0454"/>
<polygon fill="#9a32cd" stroke="#9a32cd" points="489.7104,-37.1534 480.2406,-41.9044 490.6063,-44.0959 489.7104,-37.1534"/>
<text text-anchor="middle" x="519" y="-41.6" font-family="Helvetica,sans-Serif" font-size="8.00" fill="#000000"> cache</text>
</g>
<!-- Node20 -->
<g id="node9" class="node">
<title>Node20</title>
<g id="a_node9"><a xlink:href="../../d5/d76/class_matching.html" target="_top" xlink:title="Matching\&lt; StandardModelMatching,\l StandardModel \&gt;">
<polygon fill="none" stroke="#ff0000" points="0,-37 0,-63 145,-63 145,-37 0,-37"/>
<text text-anchor="start" x="8" y="-52.6" font-family="Helvetica,sans-Serif" font-size="8.00" fill="#000000">Matching&lt; StandardModelMatching,</text>
<text text-anchor="middle" x="72.5" y="-43.6" font-family="Helvetica,sans-Serif" font-size="8.00" fill="#000000"> StandardModel &gt;</text>
</a>
</g>
</g>
<!-- Node20&#45;&gt;Node9 -->
<g id="edge10" class="edge">
<title>Node20&#45;&gt;Node9</title>
<path fill="none" stroke="#9a32cd" stroke-dasharray="5,2" d="M155.409,-50C180.247,-50 206.1877,-50 226.2591,-50"/>
<polygon fill="#9a32cd" stroke="#9a32cd" points="155.2237,-46.5001 145.2237,-50 155.2237,-53.5001 155.2237,-46.5001"/>
<text text-anchor="middle" x="178.5" y="-52.6" font-family="Helvetica,sans-Serif" font-size="8.00" fill="#000000"> SMM</text>
</g>
<!-- Node32 -->
<g id="node10" class="node">
<title>Node32</title>
<g id="a_node10"><a xlink:href="../../d9/db9/class_c_k_m.html" target="_top" xlink:title="A class for the CKM matrix elements. ">
<polygon fill="none" stroke="#ff0000" points="55.5,-.5 55.5,-17.5 89.5,-17.5 89.5,-.5 55.5,-.5"/>
<text text-anchor="middle" x="72.5" y="-7.1" font-family="Helvetica,sans-Serif" font-size="8.00" fill="#000000">CKM</text>
</a>
</g>
</g>
<!-- Node32&#45;&gt;Node9 -->
<g id="edge11" class="edge">
<title>Node32&#45;&gt;Node9</title>
<path fill="none" stroke="#9a32cd" stroke-dasharray="5,2" d="M99.6037,-14.8641C132.9558,-22.0801 189.6759,-34.352 226.4833,-42.3157"/>
<polygon fill="#9a32cd" stroke="#9a32cd" points="100.1651,-11.4047 89.6511,-12.7108 98.6848,-18.2464 100.1651,-11.4047"/>
<text text-anchor="middle" x="178.5" y="-37.6" font-family="Helvetica,sans-Serif" font-size="8.00" fill="#000000"> myCKM</text>
</g>
</g>
</svg>
