<?xml version="1.0" encoding="UTF-8" standalone="no"?>
<!DOCTYPE svg PUBLIC "-//W3C//DTD SVG 1.1//EN"
 "http://www.w3.org/Graphics/SVG/1.1/DTD/svg11.dtd">
<!-- Generated by graphviz version 2.40.1 (20161225.0304)
 -->
<!-- Title: ArgumentParser.hpp Pages: 1 -->
<svg width="371pt" height="188pt"
 viewBox="0.00 0.00 370.81 188.00" xmlns="http://www.w3.org/2000/svg" xmlns:xlink="http://www.w3.org/1999/xlink">
<g id="graph0" class="graph" transform="scale(1 1) rotate(0) translate(4 184)">
<title>ArgumentParser.hpp</title>
<!-- Node0 -->
<g id="node1" class="node">
<title>Node0</title>
<polygon fill="#bfbfbf" stroke="#000000" points="101.8121,-162.5 101.8121,-179.5 191.8121,-179.5 191.8121,-162.5 101.8121,-162.5"/>
<text text-anchor="middle" x="146.8121" y="-169.1" font-family="Helvetica,sans-Serif" font-size="8.00" fill="#000000">ArgumentParser.hpp</text>
</g>
<!-- Node1 -->
<g id="node2" class="node">
<title>Node1</title>
<polygon fill="none" stroke="#bfbfbf" points="65.8121,-.5 65.8121,-17.5 101.8121,-17.5 101.8121,-.5 65.8121,-.5"/>
<text text-anchor="middle" x="83.8121" y="-7.1" font-family="Helvetica,sans-Serif" font-size="8.00" fill="#000000">string</text>
</g>
<!-- Node0&#45;&gt;Node1 -->
<g id="edge1" class="edge">
<title>Node0&#45;&gt;Node1</title>
<path fill="none" stroke="#191970" d="M121.2433,-162.392C86.7097,-149.1823 26.7326,-120.246 2.8121,-72 -10.3547,-45.4434 27.809,-26.7948 56.1423,-16.9927"/>
<polygon fill="#191970" stroke="#191970" points="57.2286,-20.3199 65.6539,-13.8961 55.0616,-13.6638 57.2286,-20.3199"/>
</g>
<!-- Node2 -->
<g id="node3" class="node">
<title>Node2</title>
<polygon fill="none" stroke="#bfbfbf" points="324.8121,-.5 324.8121,-17.5 362.8121,-17.5 362.8121,-.5 324.8121,-.5"/>
<text text-anchor="middle" x="343.8121" y="-7.1" font-family="Helvetica,sans-Serif" font-size="8.00" fill="#000000">vector</text>
</g>
<!-- Node0&#45;&gt;Node2 -->
<g id="edge2" class="edge">
<title>Node0&#45;&gt;Node2</title>
<path fill="none" stroke="#191970" d="M175.9865,-162.4609C215.489,-149.41 285.5509,-120.7433 324.8121,-72 335.0016,-59.3497 339.7335,-41.3169 341.927,-27.7832"/>
<polygon fill="#191970" stroke="#191970" points="345.4207,-28.0573 343.2366,-17.69 338.4789,-27.1565 345.4207,-28.0573"/>
</g>
<!-- Node3 -->
<g id="node4" class="node">
<title>Node3</title>
<polygon fill="none" stroke="#bfbfbf" points="12.3121,-54.5 12.3121,-71.5 55.3121,-71.5 55.3121,-54.5 12.3121,-54.5"/>
<text text-anchor="middle" x="33.8121" y="-61.1" font-family="Helvetica,sans-Serif" font-size="8.00" fill="#000000">fstream</text>
</g>
<!-- Node0&#45;&gt;Node3 -->
<g id="edge3" class="edge">
<title>Node0&#45;&gt;Node3</title>
<path fill="none" stroke="#191970" d="M136.2144,-162.2986C125.5343,-153.4214 108.6917,-139.1244 94.8121,-126 78.6599,-110.7265 61.0884,-92.3807 48.9714,-79.4361"/>
<polygon fill="#191970" stroke="#191970" points="51.2393,-76.7354 41.8662,-71.7963 46.1135,-81.5025 51.2393,-76.7354"/>
</g>
<!-- Node4 -->
<g id="node5" class="node">
<title>Node4</title>
<g id="a_node5"><a xlink:href="../../d4/dbc/_ascii_xml_parser_8hpp.html" target="_top" xlink:title="AsciiXmlParser.hpp">
<polygon fill="none" stroke="#000000" points="103.8121,-108.5 103.8121,-125.5 189.8121,-125.5 189.8121,-108.5 103.8121,-108.5"/>
<text text-anchor="middle" x="146.8121" y="-115.1" font-family="Helvetica,sans-Serif" font-size="8.00" fill="#000000">AsciiXmlParser.hpp</text>
</a>
</g>
</g>
<!-- Node0&#45;&gt;Node4 -->
<g id="edge4" class="edge">
<title>Node0&#45;&gt;Node4</title>
<path fill="none" stroke="#191970" d="M146.8121,-162.083C146.8121,-155.0059 146.8121,-144.8611 146.8121,-135.9865"/>
<polygon fill="#191970" stroke="#191970" points="150.3122,-135.751 146.8121,-125.7511 143.3122,-135.7511 150.3122,-135.751"/>
</g>
<!-- Node8 -->
<g id="node9" class="node">
<title>Node8</title>
<g id="a_node9"><a xlink:href="../../d3/d97/_string_parser_8hpp.html" target="_top" xlink:title="StringParser.hpp">
<polygon fill="none" stroke="#ff0000" points="238.3121,-54.5 238.3121,-71.5 315.3121,-71.5 315.3121,-54.5 238.3121,-54.5"/>
<text text-anchor="middle" x="276.8121" y="-61.1" font-family="Helvetica,sans-Serif" font-size="8.00" fill="#000000">StringParser.hpp</text>
</a>
</g>
</g>
<!-- Node0&#45;&gt;Node8 -->
<g id="edge16" class="edge">
<title>Node0&#45;&gt;Node8</title>
<path fill="none" stroke="#191970" d="M157.4506,-162.1619C179.6525,-143.7172 231.1374,-100.9452 258.6725,-78.0699"/>
<polygon fill="#191970" stroke="#191970" points="260.9347,-80.7408 266.39,-71.6584 256.4615,-75.3564 260.9347,-80.7408"/>
</g>
<!-- Node4&#45;&gt;Node1 -->
<g id="edge8" class="edge">
<title>Node4&#45;&gt;Node1</title>
<path fill="none" stroke="#191970" d="M135.8841,-108.4833C125.9236,-100.176 111.4811,-86.6762 102.8121,-72 94.7234,-58.306 89.8132,-40.8744 87.0166,-27.8203"/>
<polygon fill="#191970" stroke="#191970" points="90.3933,-26.8434 85.0764,-17.6793 83.518,-28.1589 90.3933,-26.8434"/>
</g>
<!-- Node4&#45;&gt;Node3 -->
<g id="edge6" class="edge">
<title>Node4&#45;&gt;Node3</title>
<path fill="none" stroke="#191970" d="M128.9069,-108.4435C110.5581,-99.6751 81.8067,-85.9355 60.7185,-75.8579"/>
<polygon fill="#191970" stroke="#191970" points="62.1654,-72.6703 51.6335,-71.5164 59.1471,-78.9862 62.1654,-72.6703"/>
</g>
<!-- Node5 -->
<g id="node6" class="node">
<title>Node5</title>
<polygon fill="none" stroke="#bfbfbf" points="141.3121,-.5 141.3121,-17.5 188.3121,-17.5 188.3121,-.5 141.3121,-.5"/>
<text text-anchor="middle" x="164.8121" y="-7.1" font-family="Helvetica,sans-Serif" font-size="8.00" fill="#000000">iostream</text>
</g>
<!-- Node4&#45;&gt;Node5 -->
<g id="edge5" class="edge">
<title>Node4&#45;&gt;Node5</title>
<path fill="none" stroke="#191970" d="M148.2851,-108.1619C151.2003,-90.6713 157.7613,-51.3048 161.6833,-27.7731"/>
<polygon fill="#191970" stroke="#191970" points="165.1774,-28.0977 163.3691,-17.6584 158.2726,-26.9469 165.1774,-28.0977"/>
</g>
<!-- Node6 -->
<g id="node7" class="node">
<title>Node6</title>
<polygon fill="none" stroke="#bfbfbf" points="206.3121,-.5 206.3121,-17.5 251.3121,-17.5 251.3121,-.5 206.3121,-.5"/>
<text text-anchor="middle" x="228.8121" y="-7.1" font-family="Helvetica,sans-Serif" font-size="8.00" fill="#000000">sstream</text>
</g>
<!-- Node4&#45;&gt;Node6 -->
<g id="edge7" class="edge">
<title>Node4&#45;&gt;Node6</title>
<path fill="none" stroke="#191970" d="M153.5225,-108.1619C167.1646,-90.1943 198.3345,-49.1413 215.9929,-25.8838"/>
<polygon fill="#191970" stroke="#191970" points="218.9786,-27.7393 222.2382,-17.6584 213.4035,-23.5064 218.9786,-27.7393"/>
</g>
<!-- Node7 -->
<g id="node8" class="node">
<title>Node7</title>
<polygon fill="none" stroke="#bfbfbf" points="111.8121,-54.5 111.8121,-71.5 143.8121,-71.5 143.8121,-54.5 111.8121,-54.5"/>
<text text-anchor="middle" x="127.8121" y="-61.1" font-family="Helvetica,sans-Serif" font-size="8.00" fill="#000000">map</text>
</g>
<!-- Node4&#45;&gt;Node7 -->
<g id="edge9" class="edge">
<title>Node4&#45;&gt;Node7</title>
<path fill="none" stroke="#191970" d="M143.6747,-108.083C141.1292,-100.8486 137.4559,-90.4087 134.2851,-81.3968"/>
<polygon fill="#191970" stroke="#191970" points="137.5119,-80.0225 130.8912,-71.7511 130.9087,-82.3459 137.5119,-80.0225"/>
</g>
<!-- Node4&#45;&gt;Node8 -->
<g id="edge10" class="edge">
<title>Node4&#45;&gt;Node8</title>
<path fill="none" stroke="#191970" d="M167.411,-108.4435C188.8055,-99.5566 222.4933,-85.5632 246.8365,-75.4514"/>
<polygon fill="#191970" stroke="#191970" points="248.4173,-78.5848 256.3096,-71.5164 245.732,-72.1203 248.4173,-78.5848"/>
</g>
<!-- Node8&#45;&gt;Node1 -->
<g id="edge13" class="edge">
<title>Node8&#45;&gt;Node1</title>
<path fill="none" stroke="#191970" d="M246.2307,-54.4435C209.2756,-44.1038 147.6149,-26.8515 111.8427,-16.8427"/>
<polygon fill="#191970" stroke="#191970" points="112.6279,-13.4281 102.0547,-14.1041 110.7417,-20.1692 112.6279,-13.4281"/>
</g>
<!-- Node8&#45;&gt;Node2 -->
<g id="edge15" class="edge">
<title>Node8&#45;&gt;Node2</title>
<path fill="none" stroke="#191970" d="M287.5768,-54.324C297.5783,-46.2631 312.6987,-34.0765 324.7426,-24.3695"/>
<polygon fill="#191970" stroke="#191970" points="327.2619,-26.8343 332.8516,-17.8339 322.8692,-21.3841 327.2619,-26.8343"/>
</g>
<!-- Node8&#45;&gt;Node5 -->
<g id="edge12" class="edge">
<title>Node8&#45;&gt;Node5</title>
<path fill="none" stroke="#191970" d="M258.8174,-54.324C240.7745,-45.6247 212.7652,-32.1202 192.0094,-22.113"/>
<polygon fill="#191970" stroke="#191970" points="193.29,-18.8449 182.7622,-17.6545 190.2498,-25.1502 193.29,-18.8449"/>
</g>
<!-- Node8&#45;&gt;Node6 -->
<g id="edge14" class="edge">
<title>Node8&#45;&gt;Node6</title>
<path fill="none" stroke="#191970" d="M268.8859,-54.083C261.9661,-46.2982 251.7468,-34.8015 243.3602,-25.3665"/>
<polygon fill="#191970" stroke="#191970" points="245.8505,-22.8999 236.5909,-17.7511 240.6186,-27.5505 245.8505,-22.8999"/>
</g>
<!-- Node9 -->
<g id="node10" class="node">
<title>Node9</title>
<polygon fill="none" stroke="#bfbfbf" points="269.3121,-.5 269.3121,-17.5 306.3121,-17.5 306.3121,-.5 269.3121,-.5"/>
<text text-anchor="middle" x="287.8121" y="-7.1" font-family="Helvetica,sans-Serif" font-size="8.00" fill="#000000">cstdio</text>
</g>
<!-- Node8&#45;&gt;Node9 -->
<g id="edge11" class="edge">
<title>Node8&#45;&gt;Node9</title>
<path fill="none" stroke="#191970" d="M278.6286,-54.083C280.0862,-46.9272 282.1827,-36.6353 284.0047,-27.6911"/>
<polygon fill="#191970" stroke="#191970" points="287.4629,-28.2485 286.0295,-17.7511 280.6038,-26.8512 287.4629,-28.2485"/>
</g>
</g>
</svg>
