<?xml version="1.0" encoding="UTF-8" standalone="no"?>
<!DOCTYPE svg PUBLIC "-//W3C//DTD SVG 1.1//EN"
 "http://www.w3.org/Graphics/SVG/1.1/DTD/svg11.dtd">
<!-- Generated by graphviz version 2.38.0 (20140413.2041)
 -->
<!-- Title: CKM.cpp Pages: 1 -->
<svg width="362pt" height="404pt"
 viewBox="0.00 0.00 361.96 404.00" xmlns="http://www.w3.org/2000/svg" xmlns:xlink="http://www.w3.org/1999/xlink">
<g id="graph0" class="graph" transform="scale(1 1) rotate(0) translate(4 400)">
<title>CKM.cpp</title>
<!-- Node1 -->
<g id="node1" class="node"><title>Node1</title>
<polygon fill="#bfbfbf" stroke="black" points="152,-378.5 152,-395.5 201,-395.5 201,-378.5 152,-378.5"/>
<text text-anchor="middle" x="176.5" y="-385.1" font-family="Helvetica,sans-Serif" font-size="8.00">CKM.cpp</text>
</g>
<!-- Node2 -->
<g id="node2" class="node"><title>Node2</title>
<g id="a_node2"><a xlink:href="../../db/d5d/_c_k_m_8h.html" target="_top" xlink:title="CKM.h">
<polygon fill="none" stroke="black" points="156,-324.5 156,-341.5 197,-341.5 197,-324.5 156,-324.5"/>
<text text-anchor="middle" x="176.5" y="-331.1" font-family="Helvetica,sans-Serif" font-size="8.00">CKM.h</text>
</a>
</g>
</g>
<!-- Node1&#45;&gt;Node2 -->
<g id="edge1" class="edge"><title>Node1&#45;&gt;Node2</title>
<path fill="none" stroke="midnightblue" d="M176.5,-378.327C176.5,-371.414 176.5,-360.985 176.5,-351.979"/>
<polygon fill="midnightblue" stroke="midnightblue" points="180,-351.704 176.5,-341.704 173,-351.704 180,-351.704"/>
</g>
<!-- Node3 -->
<g id="node3" class="node"><title>Node3</title>
<polygon fill="none" stroke="#bfbfbf" points="126,-270.5 126,-287.5 167,-287.5 167,-270.5 126,-270.5"/>
<text text-anchor="middle" x="146.5" y="-277.1" font-family="Helvetica,sans-Serif" font-size="8.00">math.h</text>
</g>
<!-- Node2&#45;&gt;Node3 -->
<g id="edge2" class="edge"><title>Node2&#45;&gt;Node3</title>
<path fill="none" stroke="midnightblue" d="M172.073,-324.327C167.864,-317.03 161.393,-305.815 156.015,-296.492"/>
<polygon fill="midnightblue" stroke="midnightblue" points="158.974,-294.617 150.945,-287.704 152.91,-298.115 158.974,-294.617"/>
</g>
<!-- Node4 -->
<g id="node4" class="node"><title>Node4</title>
<g id="a_node4"><a xlink:href="../../d9/d72/gslpp_8h.html" target="_top" xlink:title="gslpp.h">
<polygon fill="none" stroke="black" points="185.5,-270.5 185.5,-287.5 227.5,-287.5 227.5,-270.5 185.5,-270.5"/>
<text text-anchor="middle" x="206.5" y="-277.1" font-family="Helvetica,sans-Serif" font-size="8.00">gslpp.h</text>
</a>
</g>
</g>
<!-- Node2&#45;&gt;Node4 -->
<g id="edge3" class="edge"><title>Node2&#45;&gt;Node4</title>
<path fill="none" stroke="midnightblue" d="M180.927,-324.327C185.136,-317.03 191.607,-305.815 196.985,-296.492"/>
<polygon fill="midnightblue" stroke="midnightblue" points="200.09,-298.115 202.055,-287.704 194.026,-294.617 200.09,-298.115"/>
</g>
<!-- Node5 -->
<g id="node5" class="node"><title>Node5</title>
<g id="a_node5"><a xlink:href="../../d1/dc2/gslpp__complex_8h.html" target="_top" xlink:title="gslpp_complex.h">
<polygon fill="none" stroke="red" points="163,-54.5 163,-71.5 240,-71.5 240,-54.5 163,-54.5"/>
<text text-anchor="middle" x="201.5" y="-61.1" font-family="Helvetica,sans-Serif" font-size="8.00">gslpp_complex.h</text>
</a>
</g>
</g>
<!-- Node4&#45;&gt;Node5 -->
<g id="edge4" class="edge"><title>Node4&#45;&gt;Node5</title>
<path fill="none" stroke="midnightblue" d="M225.315,-270.387C241.723,-263.012 265.361,-250.523 281.5,-234 324.841,-189.63 378.199,-158.003 341.5,-108 320.688,-79.6436 281.607,-69.0752 250.014,-65.356"/>
<polygon fill="midnightblue" stroke="midnightblue" points="250.347,-61.8719 240.052,-64.3752 249.661,-68.8382 250.347,-61.8719"/>
</g>
<!-- Node7 -->
<g id="node7" class="node"><title>Node7</title>
<g id="a_node7"><a xlink:href="../../da/d8e/gslpp__vector__double_8h.html" target="_top" xlink:title="gslpp_vector_double.h">
<polygon fill="none" stroke="red" points="0,-108.5 0,-125.5 97,-125.5 97,-108.5 0,-108.5"/>
<text text-anchor="middle" x="48.5" y="-115.1" font-family="Helvetica,sans-Serif" font-size="8.00">gslpp_vector_double.h</text>
</a>
</g>
</g>
<!-- Node4&#45;&gt;Node7 -->
<g id="edge6" class="edge"><title>Node4&#45;&gt;Node7</title>
<path fill="none" stroke="midnightblue" d="M185.488,-271.628C150.8,-259.867 82.4183,-231.155 52.5,-180 44.7504,-166.75 44.3808,-149.071 45.5809,-135.983"/>
<polygon fill="midnightblue" stroke="midnightblue" points="49.0746,-136.257 46.8935,-125.889 42.1331,-135.354 49.0746,-136.257"/>
</g>
<!-- Node8 -->
<g id="node8" class="node"><title>Node8</title>
<g id="a_node8"><a xlink:href="../../da/dad/gslpp__vector__complex_8h.html" target="_top" xlink:title="gslpp_vector_complex.h">
<polygon fill="none" stroke="red" points="230,-108.5 230,-125.5 333,-125.5 333,-108.5 230,-108.5"/>
<text text-anchor="middle" x="281.5" y="-115.1" font-family="Helvetica,sans-Serif" font-size="8.00">gslpp_vector_complex.h</text>
</a>
</g>
</g>
<!-- Node4&#45;&gt;Node8 -->
<g id="edge9" class="edge"><title>Node4&#45;&gt;Node8</title>
<path fill="none" stroke="midnightblue" d="M222.031,-270.36C235.311,-262.967 253.77,-250.467 263.5,-234 281.764,-203.089 283.415,-159.787 282.669,-135.787"/>
<polygon fill="midnightblue" stroke="midnightblue" points="286.159,-135.51 282.172,-125.694 279.168,-135.854 286.159,-135.51"/>
</g>
<!-- Node9 -->
<g id="node9" class="node"><title>Node9</title>
<g id="a_node9"><a xlink:href="../../d0/ddb/gslpp__matrix__double_8h.html" target="_top" xlink:title="gslpp_matrix_double.h">
<polygon fill="none" stroke="red" points="158,-216.5 158,-233.5 255,-233.5 255,-216.5 158,-216.5"/>
<text text-anchor="middle" x="206.5" y="-223.1" font-family="Helvetica,sans-Serif" font-size="8.00">gslpp_matrix_double.h</text>
</a>
</g>
</g>
<!-- Node4&#45;&gt;Node9 -->
<g id="edge12" class="edge"><title>Node4&#45;&gt;Node9</title>
<path fill="none" stroke="midnightblue" d="M206.5,-270.327C206.5,-263.414 206.5,-252.985 206.5,-243.979"/>
<polygon fill="midnightblue" stroke="midnightblue" points="210,-243.704 206.5,-233.704 203,-243.704 210,-243.704"/>
</g>
<!-- Node10 -->
<g id="node10" class="node"><title>Node10</title>
<g id="a_node10"><a xlink:href="../../d9/d25/gslpp__matrix__complex_8h.html" target="_top" xlink:title="gslpp_matrix_complex.h">
<polygon fill="none" stroke="red" points="76,-162.5 76,-179.5 179,-179.5 179,-162.5 76,-162.5"/>
<text text-anchor="middle" x="127.5" y="-169.1" font-family="Helvetica,sans-Serif" font-size="8.00">gslpp_matrix_complex.h</text>
</a>
</g>
</g>
<!-- Node4&#45;&gt;Node10 -->
<g id="edge23" class="edge"><title>Node4&#45;&gt;Node10</title>
<path fill="none" stroke="midnightblue" d="M192.139,-270.427C179.04,-262.838 160.023,-249.999 148.5,-234 138.945,-220.734 133.497,-202.799 130.558,-189.631"/>
<polygon fill="midnightblue" stroke="midnightblue" points="133.936,-188.666 128.581,-179.524 127.066,-190.01 133.936,-188.666"/>
</g>
<!-- Node6 -->
<g id="node6" class="node"><title>Node6</title>
<polygon fill="none" stroke="#bfbfbf" points="178,-0.5 178,-17.5 225,-17.5 225,-0.5 178,-0.5"/>
<text text-anchor="middle" x="201.5" y="-7.1" font-family="Helvetica,sans-Serif" font-size="8.00">iostream</text>
</g>
<!-- Node5&#45;&gt;Node6 -->
<g id="edge5" class="edge"><title>Node5&#45;&gt;Node6</title>
<path fill="none" stroke="midnightblue" d="M201.5,-54.3272C201.5,-47.4145 201.5,-36.985 201.5,-27.9789"/>
<polygon fill="midnightblue" stroke="midnightblue" points="205,-27.7042 201.5,-17.7043 198,-27.7043 205,-27.7042"/>
</g>
<!-- Node7&#45;&gt;Node5 -->
<g id="edge8" class="edge"><title>Node7&#45;&gt;Node5</title>
<path fill="none" stroke="midnightblue" d="M70.7475,-108.439C96.6958,-99.6197 139.802,-84.9694 169.378,-74.9171"/>
<polygon fill="midnightblue" stroke="midnightblue" points="170.884,-78.1022 179.226,-71.5704 168.631,-71.4745 170.884,-78.1022"/>
</g>
<!-- Node7&#45;&gt;Node6 -->
<g id="edge7" class="edge"><title>Node7&#45;&gt;Node6</title>
<path fill="none" stroke="midnightblue" d="M54.8298,-108.328C65.5029,-95.7489 88.2043,-70.4928 111.5,-54 130.391,-40.6257 153.963,-29.2659 172.244,-21.4404"/>
<polygon fill="midnightblue" stroke="midnightblue" points="173.645,-24.6486 181.53,-17.5725 170.953,-18.1867 173.645,-24.6486"/>
</g>
<!-- Node8&#45;&gt;Node5 -->
<g id="edge11" class="edge"><title>Node8&#45;&gt;Node5</title>
<path fill="none" stroke="midnightblue" d="M269.696,-108.327C257.098,-100.139 236.909,-87.0157 221.76,-77.1692"/>
<polygon fill="midnightblue" stroke="midnightblue" points="223.385,-74.0506 213.093,-71.5352 219.57,-79.9197 223.385,-74.0506"/>
</g>
<!-- Node8&#45;&gt;Node6 -->
<g id="edge10" class="edge"><title>Node8&#45;&gt;Node6</title>
<path fill="none" stroke="midnightblue" d="M278.375,-108.272C273.223,-96.0476 262.145,-71.8103 248.5,-54 240.069,-42.995 228.775,-32.3253 219.371,-24.2493"/>
<polygon fill="midnightblue" stroke="midnightblue" points="221.33,-21.3268 211.403,-17.6266 216.856,-26.7102 221.33,-21.3268"/>
</g>
<!-- Node9&#45;&gt;Node5 -->
<g id="edge14" class="edge"><title>Node9&#45;&gt;Node5</title>
<path fill="none" stroke="midnightblue" d="M206.259,-216.283C205.498,-191.943 203.136,-116.354 202.053,-81.6925"/>
<polygon fill="midnightblue" stroke="midnightblue" points="205.549,-81.5255 201.739,-71.6397 198.553,-81.7442 205.549,-81.5255"/>
</g>
<!-- Node9&#45;&gt;Node6 -->
<g id="edge13" class="edge"><title>Node9&#45;&gt;Node6</title>
<path fill="none" stroke="midnightblue" d="M230.815,-216.425C276.572,-200.746 368.556,-161.669 341.5,-108 319.255,-63.8744 266.693,-35.6828 232.68,-21.3699"/>
<polygon fill="midnightblue" stroke="midnightblue" points="233.78,-18.0393 223.197,-17.535 231.156,-24.5287 233.78,-18.0393"/>
</g>
<!-- Node9&#45;&gt;Node7 -->
<g id="edge15" class="edge"><title>Node9&#45;&gt;Node7</title>
<path fill="none" stroke="midnightblue" d="M157.685,-220.173C127.613,-215.316 90.3742,-204.404 66.5,-180 54.9879,-168.232 50.7605,-149.559 49.2483,-135.778"/>
<polygon fill="midnightblue" stroke="midnightblue" points="52.7255,-135.334 48.5163,-125.611 45.7435,-135.837 52.7255,-135.334"/>
</g>
<!-- Node9&#45;&gt;Node8 -->
<g id="edge16" class="edge"><title>Node9&#45;&gt;Node8</title>
<path fill="none" stroke="midnightblue" d="M211.894,-216.377C224.056,-199.187 253.832,-157.105 270.223,-133.938"/>
<polygon fill="midnightblue" stroke="midnightblue" points="273.236,-135.739 276.155,-125.554 267.522,-131.696 273.236,-135.739"/>
</g>
<!-- Node9&#45;&gt;Node10 -->
<g id="edge17" class="edge"><title>Node9&#45;&gt;Node10</title>
<path fill="none" stroke="midnightblue" d="M189.888,-216.327C175.81,-208.339 156.174,-195.655 142.561,-185.898"/>
<polygon fill="midnightblue" stroke="midnightblue" points="144.353,-182.868 134.242,-179.704 140.173,-188.483 144.353,-182.868"/>
</g>
<!-- Node10&#45;&gt;Node5 -->
<g id="edge19" class="edge"><title>Node10&#45;&gt;Node5</title>
<path fill="none" stroke="midnightblue" d="M132.822,-162.377C144.822,-145.187 174.201,-103.105 190.374,-79.9379"/>
<polygon fill="midnightblue" stroke="midnightblue" points="193.372,-81.7573 196.226,-71.5542 187.632,-77.7503 193.372,-81.7573"/>
</g>
<!-- Node10&#45;&gt;Node6 -->
<g id="edge18" class="edge"><title>Node10&#45;&gt;Node6</title>
<path fill="none" stroke="midnightblue" d="M127.661,-162.383C128.383,-142.975 132.306,-90.618 153.5,-54 160.42,-42.0435 171.671,-31.4758 181.542,-23.6955"/>
<polygon fill="midnightblue" stroke="midnightblue" points="183.784,-26.3893 189.717,-17.6109 179.605,-20.774 183.784,-26.3893"/>
</g>
<!-- Node10&#45;&gt;Node7 -->
<g id="edge20" class="edge"><title>Node10&#45;&gt;Node7</title>
<path fill="none" stroke="midnightblue" d="M115.843,-162.327C103.403,-154.139 83.4662,-141.016 68.5071,-131.169"/>
<polygon fill="midnightblue" stroke="midnightblue" points="70.225,-128.11 59.9477,-125.535 66.3763,-133.957 70.225,-128.11"/>
</g>
<!-- Node10&#45;&gt;Node8 -->
<g id="edge21" class="edge"><title>Node10&#45;&gt;Node8</title>
<path fill="none" stroke="midnightblue" d="M149.893,-162.439C176.125,-153.581 219.778,-138.841 249.558,-128.786"/>
<polygon fill="midnightblue" stroke="midnightblue" points="250.725,-132.086 259.08,-125.57 248.486,-125.454 250.725,-132.086"/>
</g>
<!-- Node10&#45;&gt;Node9 -->
<g id="edge22" class="edge"><title>Node10&#45;&gt;Node9</title>
<path fill="none" stroke="midnightblue" d="M143.869,-179.535C157.963,-187.514 177.747,-200.288 191.438,-210.102"/>
<polygon fill="midnightblue" stroke="midnightblue" points="189.688,-213.162 199.799,-216.327 193.868,-207.548 189.688,-213.162"/>
</g>
</g>
</svg>
