<?xml version="1.0" encoding="UTF-8" standalone="no"?>
<!DOCTYPE svg PUBLIC "-//W3C//DTD SVG 1.1//EN"
 "http://www.w3.org/Graphics/SVG/1.1/DTD/svg11.dtd">
<!-- Generated by graphviz version 2.40.1 (20161225.0304)
 -->
<!-- Title: NPSTUZbbbarLR.cpp Pages: 1 -->
<svg width="223pt" height="350pt"
 viewBox="0.00 0.00 222.50 350.00" xmlns="http://www.w3.org/2000/svg" xmlns:xlink="http://www.w3.org/1999/xlink">
<g id="graph0" class="graph" transform="scale(1 1) rotate(0) translate(4 346)">
<title>NPSTUZbbbarLR.cpp</title>
<!-- Node0 -->
<g id="node1" class="node">
<title>Node0</title>
<polygon fill="#bfbfbf" stroke="#000000" points="98,-324.5 98,-341.5 192,-341.5 192,-324.5 98,-324.5"/>
<text text-anchor="middle" x="145" y="-331.1" font-family="Helvetica,sans-Serif" font-size="8.00" fill="#000000">NPSTUZbbbarLR.cpp</text>
</g>
<!-- Node1 -->
<g id="node2" class="node">
<title>Node1</title>
<g id="a_node2"><a xlink:href="../../d8/db2/_n_p_s_t_u_zbbbar_l_r_8h.html" target="_top" xlink:title="NPSTUZbbbarLR.h">
<polygon fill="none" stroke="#000000" points="59,-270.5 59,-287.5 145,-287.5 145,-270.5 59,-270.5"/>
<text text-anchor="middle" x="102" y="-277.1" font-family="Helvetica,sans-Serif" font-size="8.00" fill="#000000">NPSTUZbbbarLR.h</text>
</a>
</g>
</g>
<!-- Node0&#45;&gt;Node1 -->
<g id="edge1" class="edge">
<title>Node0&#45;&gt;Node1</title>
<path fill="none" stroke="#191970" d="M137.8994,-324.083C131.763,-316.3768 122.7303,-305.0333 115.2608,-295.6531"/>
<polygon fill="#191970" stroke="#191970" points="117.9357,-293.3936 108.9685,-287.7511 112.4598,-297.7542 117.9357,-293.3936"/>
</g>
<!-- Node12 -->
<g id="node10" class="node">
<title>Node12</title>
<polygon fill="none" stroke="#bfbfbf" points="163.5,-270.5 163.5,-287.5 214.5,-287.5 214.5,-270.5 163.5,-270.5"/>
<text text-anchor="middle" x="189" y="-277.1" font-family="Helvetica,sans-Serif" font-size="8.00" fill="#000000">stdexcept</text>
</g>
<!-- Node0&#45;&gt;Node12 -->
<g id="edge10" class="edge">
<title>Node0&#45;&gt;Node12</title>
<path fill="none" stroke="#191970" d="M152.2657,-324.083C158.5448,-316.3768 167.7876,-305.0333 175.4308,-295.6531"/>
<polygon fill="#191970" stroke="#191970" points="178.2661,-297.7143 181.8695,-287.7511 172.8394,-293.2926 178.2661,-297.7143"/>
</g>
<!-- Node2 -->
<g id="node3" class="node">
<title>Node2</title>
<g id="a_node3"><a xlink:href="../../d2/d33/_n_p_s_t_u_8h.html" target="_top" xlink:title="NPSTU.h">
<polygon fill="none" stroke="#000000" points="77,-216.5 77,-233.5 127,-233.5 127,-216.5 77,-216.5"/>
<text text-anchor="middle" x="102" y="-223.1" font-family="Helvetica,sans-Serif" font-size="8.00" fill="#000000">NPSTU.h</text>
</a>
</g>
</g>
<!-- Node1&#45;&gt;Node2 -->
<g id="edge2" class="edge">
<title>Node1&#45;&gt;Node2</title>
<path fill="none" stroke="#191970" d="M102,-270.083C102,-263.0059 102,-252.8611 102,-243.9865"/>
<polygon fill="#191970" stroke="#191970" points="105.5001,-243.751 102,-233.7511 98.5001,-243.7511 105.5001,-243.751"/>
</g>
<!-- Node3 -->
<g id="node4" class="node">
<title>Node3</title>
<g id="a_node4"><a xlink:href="../../d2/de8/_n_pbase_8h.html" target="_top" xlink:title="NPbase.h">
<polygon fill="none" stroke="#000000" points="76,-162.5 76,-179.5 128,-179.5 128,-162.5 76,-162.5"/>
<text text-anchor="middle" x="102" y="-169.1" font-family="Helvetica,sans-Serif" font-size="8.00" fill="#000000">NPbase.h</text>
</a>
</g>
</g>
<!-- Node2&#45;&gt;Node3 -->
<g id="edge3" class="edge">
<title>Node2&#45;&gt;Node3</title>
<path fill="none" stroke="#191970" d="M102,-216.083C102,-209.0059 102,-198.8611 102,-189.9865"/>
<polygon fill="#191970" stroke="#191970" points="105.5001,-189.751 102,-179.7511 98.5001,-189.7511 105.5001,-189.751"/>
</g>
<!-- Node4 -->
<g id="node5" class="node">
<title>Node4</title>
<g id="a_node5"><a xlink:href="../../d6/d0a/_standard_model_8h.html" target="_top" xlink:title="StandardModel.h">
<polygon fill="none" stroke="#ff0000" points="63.5,-108.5 63.5,-125.5 140.5,-125.5 140.5,-108.5 63.5,-108.5"/>
<text text-anchor="middle" x="102" y="-115.1" font-family="Helvetica,sans-Serif" font-size="8.00" fill="#000000">StandardModel.h</text>
</a>
</g>
</g>
<!-- Node3&#45;&gt;Node4 -->
<g id="edge4" class="edge">
<title>Node3&#45;&gt;Node4</title>
<path fill="none" stroke="#191970" d="M102,-162.083C102,-155.0059 102,-144.8611 102,-135.9865"/>
<polygon fill="#191970" stroke="#191970" points="105.5001,-135.751 102,-125.7511 98.5001,-135.7511 105.5001,-135.751"/>
</g>
<!-- Node5 -->
<g id="node6" class="node">
<title>Node5</title>
<g id="a_node6"><a xlink:href="../../d2/d65/_flavour_8h.html" target="_top" xlink:title="Flavour.h">
<polygon fill="none" stroke="#ff0000" points="0,-54.5 0,-71.5 50,-71.5 50,-54.5 0,-54.5"/>
<text text-anchor="middle" x="25" y="-61.1" font-family="Helvetica,sans-Serif" font-size="8.00" fill="#000000">Flavour.h</text>
</a>
</g>
</g>
<!-- Node4&#45;&gt;Node5 -->
<g id="edge5" class="edge">
<title>Node4&#45;&gt;Node5</title>
<path fill="none" stroke="#191970" d="M89.6286,-108.324C77.8415,-100.0577 59.8677,-87.4527 45.8645,-77.6322"/>
<polygon fill="#191970" stroke="#191970" points="47.5376,-74.5307 37.3407,-71.6545 43.5184,-80.2619 47.5376,-74.5307"/>
</g>
<!-- Node6 -->
<g id="node7" class="node">
<title>Node6</title>
<g id="a_node7"><a xlink:href="../../d4/d68/_q_c_d_8h.html" target="_top" xlink:title="QCD.h">
<polygon fill="none" stroke="#ff0000" points="30.5,-.5 30.5,-17.5 71.5,-17.5 71.5,-.5 30.5,-.5"/>
<text text-anchor="middle" x="51" y="-7.1" font-family="Helvetica,sans-Serif" font-size="8.00" fill="#000000">QCD.h</text>
</a>
</g>
</g>
<!-- Node4&#45;&gt;Node6 -->
<g id="edge7" class="edge">
<title>Node4&#45;&gt;Node6</title>
<path fill="none" stroke="#191970" d="M97.8265,-108.1619C89.4544,-90.4328 70.4683,-50.2271 59.4147,-26.8193"/>
<polygon fill="#191970" stroke="#191970" points="62.5237,-25.2063 55.0887,-17.6584 56.1939,-28.1954 62.5237,-25.2063"/>
</g>
<!-- Node29 -->
<g id="node8" class="node">
<title>Node29</title>
<g id="a_node8"><a xlink:href="../../db/d5d/_c_k_m_8h.html" target="_top" xlink:title="CKM.h">
<polygon fill="none" stroke="#ff0000" points="106.5,-54.5 106.5,-71.5 147.5,-71.5 147.5,-54.5 106.5,-54.5"/>
<text text-anchor="middle" x="127" y="-61.1" font-family="Helvetica,sans-Serif" font-size="8.00" fill="#000000">CKM.h</text>
</a>
</g>
</g>
<!-- Node4&#45;&gt;Node29 -->
<g id="edge8" class="edge">
<title>Node4&#45;&gt;Node29</title>
<path fill="none" stroke="#191970" d="M106.1282,-108.083C109.5139,-100.77 114.416,-90.1814 118.6188,-81.1034"/>
<polygon fill="#191970" stroke="#191970" points="121.9234,-82.2962 122.9486,-71.7511 115.5711,-79.3553 121.9234,-82.2962"/>
</g>
<!-- Node40 -->
<g id="node9" class="node">
<title>Node40</title>
<g id="a_node9"><a xlink:href="../../d9/d22/_p_m_n_s_8h.html" target="_top" xlink:title="PMNS.h">
<polygon fill="none" stroke="#ff0000" points="166,-54.5 166,-71.5 212,-71.5 212,-54.5 166,-54.5"/>
<text text-anchor="middle" x="189" y="-61.1" font-family="Helvetica,sans-Serif" font-size="8.00" fill="#000000">PMNS.h</text>
</a>
</g>
</g>
<!-- Node4&#45;&gt;Node40 -->
<g id="edge9" class="edge">
<title>Node4&#45;&gt;Node40</title>
<path fill="none" stroke="#191970" d="M115.9781,-108.324C129.5496,-99.9002 150.3802,-86.9709 166.325,-77.0741"/>
<polygon fill="#191970" stroke="#191970" points="168.406,-79.9019 175.0566,-71.6545 164.7144,-73.9544 168.406,-79.9019"/>
</g>
<!-- Node5&#45;&gt;Node6 -->
<g id="edge6" class="edge">
<title>Node5&#45;&gt;Node6</title>
<path fill="none" stroke="#191970" d="M29.2934,-54.083C32.8523,-46.6913 38.0225,-35.9533 42.4243,-26.8111"/>
<polygon fill="#191970" stroke="#191970" points="45.6018,-28.2795 46.7865,-17.7511 39.2948,-25.2427 45.6018,-28.2795"/>
</g>
</g>
</svg>
