<?xml version="1.0" encoding="UTF-8" standalone="no"?>
<!DOCTYPE svg PUBLIC "-//W3C//DTD SVG 1.1//EN"
 "http://www.w3.org/Graphics/SVG/1.1/DTD/svg11.dtd">
<!-- Generated by graphviz version 2.40.1 (20161225.0304)
 -->
<!-- Title: LHPC::LhcoParser Pages: 1 -->
<svg width="914pt" height="174pt"
 viewBox="0.00 0.00 914.00 174.00" xmlns="http://www.w3.org/2000/svg" xmlns:xlink="http://www.w3.org/1999/xlink">
<g id="graph0" class="graph" transform="scale(1 1) rotate(0) translate(4 170)">
<title>LHPC::LhcoParser</title>
<!-- Node1 -->
<g id="node1" class="node">
<title>Node1</title>
<polygon fill="#bfbfbf" stroke="#000000" points="823,-61.5 823,-78.5 906,-78.5 906,-61.5 823,-61.5"/>
<text text-anchor="middle" x="864.5" y="-68.1" font-family="Helvetica,sans-Serif" font-size="8.00" fill="#000000">LHPC::LhcoParser</text>
</g>
<!-- Node2 -->
<g id="node2" class="node">
<title>Node2</title>
<g id="a_node2"><a xlink:href="../../d9/d8f/class_l_h_p_c_1_1_l_h_c_o_1_1_lhco_event.html" target="_top" xlink:title="LHPC::LHCO::LhcoEvent">
<polygon fill="none" stroke="#000000" points="625.5,-98.5 625.5,-115.5 732.5,-115.5 732.5,-98.5 625.5,-98.5"/>
<text text-anchor="middle" x="679" y="-105.1" font-family="Helvetica,sans-Serif" font-size="8.00" fill="#000000">LHPC::LHCO::LhcoEvent</text>
</a>
</g>
</g>
<!-- Node2&#45;&gt;Node1 -->
<g id="edge1" class="edge">
<title>Node2&#45;&gt;Node1</title>
<path fill="none" stroke="#9a32cd" stroke-dasharray="5,2" d="M731.9546,-96.4376C760.849,-90.6743 796.1018,-83.6428 822.9857,-78.2805"/>
<polygon fill="#9a32cd" stroke="#9a32cd" points="731.1459,-93.0299 722.0237,-98.4185 732.5152,-99.8947 731.1459,-93.0299"/>
<text text-anchor="middle" x="781" y="-93.6" font-family="Helvetica,sans-Serif" font-size="8.00" fill="#000000"> currentEvent</text>
</g>
<!-- Node3 -->
<g id="node3" class="node">
<title>Node3</title>
<g id="a_node3"><a xlink:href="../../d0/d39/class_l_h_p_c_1_1_l_h_c_o_1_1_object_line.html" target="_top" xlink:title="LHPC::LHCO::ObjectLine">
<polygon fill="none" stroke="#000000" points="142,-141.5 142,-158.5 249,-158.5 249,-141.5 142,-141.5"/>
<text text-anchor="middle" x="195.5" y="-148.1" font-family="Helvetica,sans-Serif" font-size="8.00" fill="#000000">LHPC::LHCO::ObjectLine</text>
</a>
</g>
</g>
<!-- Node3&#45;&gt;Node2 -->
<g id="edge2" class="edge">
<title>Node3&#45;&gt;Node2</title>
<path fill="none" stroke="#9a32cd" stroke-dasharray="5,2" d="M259.318,-150.9967C293.3758,-151.1867 335.9916,-150.8802 374,-149 475.4245,-143.9827 500.9936,-140.6298 601,-123 613.5246,-120.7921 627.1209,-118.1047 639.401,-115.5676"/>
<polygon fill="#9a32cd" stroke="#9a32cd" points="259.0626,-147.4948 249.0377,-150.9229 259.0123,-154.4947 259.0626,-147.4948"/>
<text text-anchor="middle" x="452.5" y="-159.6" font-family="Helvetica,sans-Serif" font-size="8.00" fill="#000000"> interpretingObjectLine</text>
<text text-anchor="middle" x="452.5" y="-150.6" font-family="Helvetica,sans-Serif" font-size="8.00" fill="#000000">missingEnergyLinePointer</text>
</g>
<!-- Node7 -->
<g id="node7" class="node">
<title>Node7</title>
<g id="a_node7"><a xlink:href="../../de/da2/class_b_o_l_1_1_vectorlike_array.html" target="_top" xlink:title="BOL::VectorlikeArray\l\&lt; LHPC::LHCO::ObjectLine \&gt;">
<polygon fill="none" stroke="#000000" points="392,-100 392,-126 513,-126 513,-100 392,-100"/>
<text text-anchor="start" x="400" y="-115.6" font-family="Helvetica,sans-Serif" font-size="8.00" fill="#000000">BOL::VectorlikeArray</text>
<text text-anchor="middle" x="452.5" y="-106.6" font-family="Helvetica,sans-Serif" font-size="8.00" fill="#000000">&lt; LHPC::LHCO::ObjectLine &gt;</text>
</a>
</g>
</g>
<!-- Node3&#45;&gt;Node7 -->
<g id="edge7" class="edge">
<title>Node3&#45;&gt;Node7</title>
<path fill="none" stroke="#9a32cd" stroke-dasharray="5,2" d="M259.101,-140.8434C299.6317,-135.0083 351.8428,-127.4915 391.7987,-121.7391"/>
<polygon fill="#9a32cd" stroke="#9a32cd" points="258.462,-137.3993 249.0628,-142.2886 259.4595,-144.3278 258.462,-137.3993"/>
<text text-anchor="middle" x="320.5" y="-141.6" font-family="Helvetica,sans-Serif" font-size="8.00" fill="#000000"> pointerArray</text>
</g>
<!-- Node4 -->
<g id="node4" class="node">
<title>Node4</title>
<g id="a_node4"><a xlink:href="../../de/da2/class_b_o_l_1_1_vectorlike_array.html" target="_top" xlink:title="BOL::VectorlikeArray\l\&lt; std::string \&gt;">
<polygon fill="none" stroke="#000000" points="407,-55 407,-81 498,-81 498,-55 407,-55"/>
<text text-anchor="start" x="415" y="-70.6" font-family="Helvetica,sans-Serif" font-size="8.00" fill="#000000">BOL::VectorlikeArray</text>
<text text-anchor="middle" x="452.5" y="-61.6" font-family="Helvetica,sans-Serif" font-size="8.00" fill="#000000">&lt; std::string &gt;</text>
</a>
</g>
</g>
<!-- Node4&#45;&gt;Node2 -->
<g id="edge3" class="edge">
<title>Node4&#45;&gt;Node2</title>
<path fill="none" stroke="#9a32cd" stroke-dasharray="5,2" d="M508.2262,-77.5952C545.3866,-83.9937 593.7972,-92.3293 629.5817,-98.4909"/>
<polygon fill="#9a32cd" stroke="#9a32cd" points="508.5121,-74.093 498.0632,-75.8453 507.3242,-80.9915 508.5121,-74.093"/>
<text text-anchor="middle" x="566" y="-96.6" font-family="Helvetica,sans-Serif" font-size="8.00" fill="#000000"> lineParser</text>
</g>
<!-- Node8 -->
<g id="node8" class="node">
<title>Node8</title>
<g id="a_node8"><a xlink:href="../../d1/d11/class_b_o_l_1_1_commented_text_parser.html" target="_top" xlink:title="BOL::CommentedTextParser">
<polygon fill="none" stroke="#000000" points="619,-41.5 619,-58.5 739,-58.5 739,-41.5 619,-41.5"/>
<text text-anchor="middle" x="679" y="-48.1" font-family="Helvetica,sans-Serif" font-size="8.00" fill="#000000">BOL::CommentedTextParser</text>
</a>
</g>
</g>
<!-- Node4&#45;&gt;Node8 -->
<g id="edge12" class="edge">
<title>Node4&#45;&gt;Node8</title>
<path fill="none" stroke="#9a32cd" stroke-dasharray="5,2" d="M508.2119,-54.4576C515.8292,-53.04 523.5794,-51.8197 531,-51 559.7322,-47.8263 591.7931,-47.2489 618.7083,-47.5987"/>
<polygon fill="#9a32cd" stroke="#9a32cd" points="507.443,-51.0418 498.3134,-56.4178 508.8029,-57.9085 507.443,-51.0418"/>
<text text-anchor="middle" x="566" y="-62.6" font-family="Helvetica,sans-Serif" font-size="8.00" fill="#000000"> textAsLines</text>
<text text-anchor="middle" x="566" y="-53.6" font-family="Helvetica,sans-Serif" font-size="8.00" fill="#000000">commentMarkerSet</text>
</g>
<!-- Node5 -->
<g id="node5" class="node">
<title>Node5</title>
<g id="a_node5"><a xlink:href="../../de/da2/class_b_o_l_1_1_vectorlike_array.html" target="_top" xlink:title="BOL::VectorlikeArray\l\&lt; StoredClass \&gt;">
<polygon fill="none" stroke="#000000" points="150,-55 150,-81 241,-81 241,-55 150,-55"/>
<text text-anchor="start" x="158" y="-70.6" font-family="Helvetica,sans-Serif" font-size="8.00" fill="#000000">BOL::VectorlikeArray</text>
<text text-anchor="middle" x="195.5" y="-61.6" font-family="Helvetica,sans-Serif" font-size="8.00" fill="#000000">&lt; StoredClass &gt;</text>
</a>
</g>
</g>
<!-- Node5&#45;&gt;Node4 -->
<g id="edge4" class="edge">
<title>Node5&#45;&gt;Node4</title>
<path fill="none" stroke="#ffa500" stroke-dasharray="5,2" d="M251.3686,-68C297.9147,-68 363.3922,-68 406.8428,-68"/>
<polygon fill="#ffa500" stroke="#ffa500" points="251.1503,-64.5001 241.1503,-68 251.1503,-71.5001 251.1503,-64.5001"/>
<text text-anchor="middle" x="320.5" y="-70.6" font-family="Helvetica,sans-Serif" font-size="8.00" fill="#000000"> &lt; std::string &gt;</text>
</g>
<!-- Node5&#45;&gt;Node7 -->
<g id="edge8" class="edge">
<title>Node5&#45;&gt;Node7</title>
<path fill="none" stroke="#ffa500" stroke-dasharray="5,2" d="M251.3742,-78.209C256.6549,-79.1588 261.9278,-80.1014 267,-81 308.6724,-88.3826 355.6523,-96.4847 391.9064,-102.6892"/>
<polygon fill="#ffa500" stroke="#ffa500" points="251.7232,-74.7155 241.2605,-76.3835 250.4797,-81.6042 251.7232,-74.7155"/>
<text text-anchor="middle" x="320.5" y="-102.6" font-family="Helvetica,sans-Serif" font-size="8.00" fill="#000000"> &lt; LHPC::LHCO::ObjectLine &gt;</text>
</g>
<!-- Node9 -->
<g id="node9" class="node">
<title>Node9</title>
<g id="a_node9"><a xlink:href="../../de/da2/class_b_o_l_1_1_vectorlike_array.html" target="_top" xlink:title="BOL::VectorlikeArray\l\&lt; std::pair\&lt; std::string,\l std::string \&gt; \&gt;">
<polygon fill="none" stroke="#000000" points="404.5,-.5 404.5,-35.5 500.5,-35.5 500.5,-.5 404.5,-.5"/>
<text text-anchor="start" x="412.5" y="-25.1" font-family="Helvetica,sans-Serif" font-size="8.00" fill="#000000">BOL::VectorlikeArray</text>
<text text-anchor="start" x="412.5" y="-16.1" font-family="Helvetica,sans-Serif" font-size="8.00" fill="#000000">&lt; std::pair&lt; std::string,</text>
<text text-anchor="middle" x="452.5" y="-7.1" font-family="Helvetica,sans-Serif" font-size="8.00" fill="#000000"> std::string &gt; &gt;</text>
</a>
</g>
</g>
<!-- Node5&#45;&gt;Node9 -->
<g id="edge11" class="edge">
<title>Node5&#45;&gt;Node9</title>
<path fill="none" stroke="#ffa500" stroke-dasharray="5,2" d="M243.7883,-52.0788C251.5008,-49.8442 259.4321,-47.7254 267,-46 313.2033,-35.4662 366.809,-27.8615 404.4774,-23.259"/>
<polygon fill="#ffa500" stroke="#ffa500" points="242.759,-48.7333 234.1799,-54.9502 244.7634,-55.4402 242.759,-48.7333"/>
<text text-anchor="start" x="279.5" y="-57.6" font-family="Helvetica,sans-Serif" font-size="8.00" fill="#000000"> &lt; std::pair&lt; std::string,</text>
<text text-anchor="middle" x="320.5" y="-48.6" font-family="Helvetica,sans-Serif" font-size="8.00" fill="#000000"> std::string &gt; &gt;</text>
</g>
<!-- Node6 -->
<g id="node6" class="node">
<title>Node6</title>
<polygon fill="none" stroke="#bfbfbf" points="0,-59.5 0,-76.5 60,-76.5 60,-59.5 0,-59.5"/>
<text text-anchor="middle" x="30" y="-66.1" font-family="Helvetica,sans-Serif" font-size="8.00" fill="#000000">StoredClass</text>
</g>
<!-- Node6&#45;&gt;Node5 -->
<g id="edge5" class="edge">
<title>Node6&#45;&gt;Node5</title>
<path fill="none" stroke="#9a32cd" stroke-dasharray="5,2" d="M70.5284,-68C94.486,-68 124.893,-68 149.7149,-68"/>
<polygon fill="#9a32cd" stroke="#9a32cd" points="70.3553,-64.5001 60.3553,-68 70.3552,-71.5001 70.3553,-64.5001"/>
<text text-anchor="middle" x="101" y="-70.6" font-family="Helvetica,sans-Serif" font-size="8.00" fill="#000000"> pointerArray</text>
</g>
<!-- Node7&#45;&gt;Node2 -->
<g id="edge6" class="edge">
<title>Node7&#45;&gt;Node2</title>
<path fill="none" stroke="#9a32cd" stroke-dasharray="5,2" d="M523.2495,-111.1258C556.2708,-110.2511 594.9307,-109.227 625.4729,-108.4179"/>
<polygon fill="#9a32cd" stroke="#9a32cd" points="523.1016,-107.6284 513.1978,-111.3921 523.2871,-114.626 523.1016,-107.6284"/>
<text text-anchor="middle" x="566" y="-112.6" font-family="Helvetica,sans-Serif" font-size="8.00" fill="#000000"> objectLines</text>
</g>
<!-- Node8&#45;&gt;Node1 -->
<g id="edge9" class="edge">
<title>Node8&#45;&gt;Node1</title>
<path fill="none" stroke="#9a32cd" stroke-dasharray="5,2" d="M749.35,-51.9195C767.5325,-52.9596 787.0417,-54.5553 805,-57 813.172,-58.1125 821.8878,-59.7539 830.0575,-61.4987"/>
<polygon fill="#9a32cd" stroke="#9a32cd" points="749.2821,-48.4112 739.1126,-51.383 748.9157,-55.4016 749.2821,-48.4112"/>
<text text-anchor="middle" x="781" y="-59.6" font-family="Helvetica,sans-Serif" font-size="8.00" fill="#000000"> fileParser</text>
</g>
<!-- Node9&#45;&gt;Node8 -->
<g id="edge10" class="edge">
<title>Node9&#45;&gt;Node8</title>
<path fill="none" stroke="#9a32cd" stroke-dasharray="5,2" d="M510.9819,-23.6579C538.3823,-26.574 571.4318,-30.4711 601,-35 612.9951,-36.8372 625.9604,-39.1839 637.8115,-41.4725"/>
<polygon fill="#9a32cd" stroke="#9a32cd" points="511.0863,-20.1497 500.7761,-22.589 510.3571,-27.1117 511.0863,-20.1497"/>
<text text-anchor="middle" x="566" y="-37.6" font-family="Helvetica,sans-Serif" font-size="8.00" fill="#000000"> parsedText</text>
</g>
</g>
</svg>
