<?xml version="1.0" encoding="UTF-8" standalone="no"?>
<!DOCTYPE svg PUBLIC "-//W3C//DTD SVG 1.1//EN"
 "http://www.w3.org/Graphics/SVG/1.1/DTD/svg11.dtd">
<!-- Generated by graphviz version 2.40.1 (20161225.0304)
 -->
<!-- Title: JustSingleValueBlock.hpp Pages: 1 -->
<svg width="401pt" height="422pt"
 viewBox="0.00 0.00 400.55 422.00" xmlns="http://www.w3.org/2000/svg" xmlns:xlink="http://www.w3.org/1999/xlink">
<g id="graph0" class="graph" transform="scale(1 1) rotate(0) translate(4 418)">
<title>JustSingleValueBlock.hpp</title>
<!-- Node0 -->
<g id="node1" class="node">
<title>Node0</title>
<polygon fill="#bfbfbf" stroke="#000000" points="201.6497,-396.5 201.6497,-413.5 310.6497,-413.5 310.6497,-396.5 201.6497,-396.5"/>
<text text-anchor="middle" x="256.1497" y="-403.1" font-family="Helvetica,sans-Serif" font-size="8.00" fill="#000000">JustSingleValueBlock.hpp</text>
</g>
<!-- Node1 -->
<g id="node2" class="node">
<title>Node1</title>
<g id="a_node2"><a xlink:href="../../dd/d89/_slha_block_8hpp.html" target="_top" xlink:title="../SlhaBlock.hpp">
<polygon fill="none" stroke="#000000" points="166.1497,-279.5 166.1497,-296.5 240.1497,-296.5 240.1497,-279.5 166.1497,-279.5"/>
<text text-anchor="middle" x="203.1497" y="-286.1" font-family="Helvetica,sans-Serif" font-size="8.00" fill="#000000">../SlhaBlock.hpp</text>
</a>
</g>
</g>
<!-- Node0&#45;&gt;Node1 -->
<g id="edge1" class="edge">
<title>Node0&#45;&gt;Node1</title>
<path fill="none" stroke="#191970" d="M252.1661,-396.206C243.4911,-377.0555 222.7469,-331.2618 211.2196,-305.8146"/>
<polygon fill="#191970" stroke="#191970" points="214.35,-304.2429 207.0355,-296.5781 207.9737,-307.1313 214.35,-304.2429"/>
</g>
<!-- Node44 -->
<g id="node9" class="node">
<title>Node44</title>
<g id="a_node9"><a xlink:href="../../d1/de3/_just_single_value_8hpp.html" target="_top" xlink:title="InterpreterClasses\l/JustSingleValue.hpp">
<polygon fill="none" stroke="#000000" points="255.1497,-333.5 255.1497,-359.5 347.1497,-359.5 347.1497,-333.5 255.1497,-333.5"/>
<text text-anchor="start" x="263.1497" y="-349.1" font-family="Helvetica,sans-Serif" font-size="8.00" fill="#000000">InterpreterClasses</text>
<text text-anchor="middle" x="301.1497" y="-340.1" font-family="Helvetica,sans-Serif" font-size="8.00" fill="#000000">/JustSingleValue.hpp</text>
</a>
</g>
</g>
<!-- Node0&#45;&gt;Node44 -->
<g id="edge16" class="edge">
<title>Node0&#45;&gt;Node44</title>
<path fill="none" stroke="#191970" d="M262.7896,-396.3681C268.538,-388.8952 277.0965,-377.7691 284.6719,-367.9211"/>
<polygon fill="#191970" stroke="#191970" points="287.6577,-369.78 290.9807,-359.7197 282.1093,-365.512 287.6577,-369.78"/>
</g>
<!-- Node2 -->
<g id="node3" class="node">
<title>Node2</title>
<polygon fill="none" stroke="#bfbfbf" points="69.1497,-.5 69.1497,-17.5 105.1497,-17.5 105.1497,-.5 69.1497,-.5"/>
<text text-anchor="middle" x="87.1497" y="-7.1" font-family="Helvetica,sans-Serif" font-size="8.00" fill="#000000">string</text>
</g>
<!-- Node1&#45;&gt;Node2 -->
<g id="edge2" class="edge">
<title>Node1&#45;&gt;Node2</title>
<path fill="none" stroke="#191970" d="M165.9121,-283.3638C118.5833,-276.7298 40.5627,-263.0711 20.1497,-243 -3.4491,-219.7964 1.1497,-204.0954 1.1497,-171 1.1497,-171 1.1497,-171 1.1497,-117 1.1497,-76.2631 39.0565,-42.0136 64.5366,-23.5933"/>
<polygon fill="#191970" stroke="#191970" points="66.7302,-26.3313 72.9485,-17.7533 62.7381,-20.5812 66.7302,-26.3313"/>
</g>
<!-- Node3 -->
<g id="node4" class="node">
<title>Node3</title>
<g id="a_node4"><a xlink:href="../../d8/d14/_b_o_llib_8hpp.html" target="_top" xlink:title="BOLlib/include/BOLlib.hpp">
<polygon fill="none" stroke="#ff0000" points="166.1497,-108.5 166.1497,-125.5 276.1497,-125.5 276.1497,-108.5 166.1497,-108.5"/>
<text text-anchor="middle" x="221.1497" y="-115.1" font-family="Helvetica,sans-Serif" font-size="8.00" fill="#000000">BOLlib/include/BOLlib.hpp</text>
</a>
</g>
</g>
<!-- Node1&#45;&gt;Node3 -->
<g id="edge3" class="edge">
<title>Node1&#45;&gt;Node3</title>
<path fill="none" stroke="#191970" d="M204.622,-279.3515C207.6742,-261.0706 214.6942,-217.1316 218.1497,-180 219.5325,-165.1416 220.2932,-148.249 220.7023,-135.6988"/>
<polygon fill="#191970" stroke="#191970" points="224.2043,-135.6713 220.9869,-125.5768 217.2071,-135.4745 224.2043,-135.6713"/>
</g>
<!-- Node39 -->
<g id="node6" class="node">
<title>Node39</title>
<g id="a_node6"><a xlink:href="../../d2/d04/_base_slha_block_8hpp.html" target="_top" xlink:title="BlockClasses/BaseSlhaBlock.hpp">
<polygon fill="none" stroke="#ff0000" points="29.1497,-221 29.1497,-238 165.1497,-238 165.1497,-221 29.1497,-221"/>
<text text-anchor="middle" x="97.1497" y="-227.6" font-family="Helvetica,sans-Serif" font-size="8.00" fill="#000000">BlockClasses/BaseSlhaBlock.hpp</text>
</a>
</g>
</g>
<!-- Node1&#45;&gt;Node39 -->
<g id="edge6" class="edge">
<title>Node1&#45;&gt;Node39</title>
<path fill="none" stroke="#191970" d="M187.509,-279.3681C170.208,-269.8199 142.1004,-254.3077 121.8245,-243.1177"/>
<polygon fill="#191970" stroke="#191970" points="123.3009,-239.9349 112.8545,-238.1673 119.9186,-246.0635 123.3009,-239.9349"/>
</g>
<!-- Node40 -->
<g id="node7" class="node">
<title>Node40</title>
<g id="a_node7"><a xlink:href="../../dc/d87/_base_string_block_8hpp.html" target="_top" xlink:title="BaseStringBlock.hpp">
<polygon fill="none" stroke="#ff0000" points="118.6497,-162.5 118.6497,-179.5 209.6497,-179.5 209.6497,-162.5 118.6497,-162.5"/>
<text text-anchor="middle" x="164.1497" y="-169.1" font-family="Helvetica,sans-Serif" font-size="8.00" fill="#000000">BaseStringBlock.hpp</text>
</a>
</g>
</g>
<!-- Node1&#45;&gt;Node40 -->
<g id="edge12" class="edge">
<title>Node1&#45;&gt;Node40</title>
<path fill="none" stroke="#191970" d="M200.2184,-279.206C193.8632,-260.1406 178.7058,-214.6683 170.2014,-189.1551"/>
<polygon fill="#191970" stroke="#191970" points="173.4918,-187.9581 167.0091,-179.5781 166.851,-190.1718 173.4918,-187.9581"/>
</g>
<!-- Node43 -->
<g id="node8" class="node">
<title>Node43</title>
<g id="a_node8"><a xlink:href="../../db/d22/_block_interpreter_8hpp.html" target="_top" xlink:title="BlockClasses/Interpreter\lClasses/BlockInterpreter.hpp">
<polygon fill="none" stroke="#000000" points="259.6497,-216.5 259.6497,-242.5 378.6497,-242.5 378.6497,-216.5 259.6497,-216.5"/>
<text text-anchor="start" x="267.6497" y="-232.1" font-family="Helvetica,sans-Serif" font-size="8.00" fill="#000000">BlockClasses/Interpreter</text>
<text text-anchor="middle" x="319.1497" y="-223.1" font-family="Helvetica,sans-Serif" font-size="8.00" fill="#000000">Classes/BlockInterpreter.hpp</text>
</a>
</g>
</g>
<!-- Node1&#45;&gt;Node43 -->
<g id="edge13" class="edge">
<title>Node1&#45;&gt;Node43</title>
<path fill="none" stroke="#191970" d="M220.2659,-279.3681C236.955,-270.9517 262.8327,-257.9013 283.9296,-247.2618"/>
<polygon fill="#191970" stroke="#191970" points="285.5834,-250.3478 292.9362,-242.7197 282.4313,-244.0976 285.5834,-250.3478"/>
</g>
<!-- Node4 -->
<g id="node5" class="node">
<title>Node4</title>
<g id="a_node5"><a xlink:href="../../dc/d4c/_argument_parser_8hpp.html" target="_top" xlink:title="ArgumentParser.hpp">
<polygon fill="none" stroke="#ff0000" points="163.1497,-54.5 163.1497,-71.5 253.1497,-71.5 253.1497,-54.5 163.1497,-54.5"/>
<text text-anchor="middle" x="208.1497" y="-61.1" font-family="Helvetica,sans-Serif" font-size="8.00" fill="#000000">ArgumentParser.hpp</text>
</a>
</g>
</g>
<!-- Node3&#45;&gt;Node4 -->
<g id="edge4" class="edge">
<title>Node3&#45;&gt;Node4</title>
<path fill="none" stroke="#191970" d="M219.003,-108.083C217.2803,-100.9272 214.8026,-90.6353 212.6494,-81.6911"/>
<polygon fill="#191970" stroke="#191970" points="215.9998,-80.6541 210.2564,-71.7511 209.1943,-82.2925 215.9998,-80.6541"/>
</g>
<!-- Node4&#45;&gt;Node2 -->
<g id="edge5" class="edge">
<title>Node4&#45;&gt;Node2</title>
<path fill="none" stroke="#191970" d="M188.9769,-54.4435C169.0084,-45.532 137.5341,-31.4856 114.8619,-21.3674"/>
<polygon fill="#191970" stroke="#191970" points="115.999,-18.0422 105.4407,-17.1629 113.1462,-24.4346 115.999,-18.0422"/>
</g>
<!-- Node39&#45;&gt;Node2 -->
<g id="edge7" class="edge">
<title>Node39&#45;&gt;Node2</title>
<path fill="none" stroke="#191970" d="M96.7577,-220.8561C95.2863,-188.412 90.0716,-73.4278 88.0036,-27.8292"/>
<polygon fill="#191970" stroke="#191970" points="91.4994,-27.6549 87.5499,-17.8237 84.5066,-27.9721 91.4994,-27.6549"/>
</g>
<!-- Node39&#45;&gt;Node3 -->
<g id="edge8" class="edge">
<title>Node39&#45;&gt;Node3</title>
<path fill="none" stroke="#191970" d="M96.2192,-220.9734C95.1801,-207.029 95.1887,-179.1817 109.1497,-162 122.3763,-145.7221 142.3808,-135.294 161.8415,-128.6296"/>
<polygon fill="#191970" stroke="#191970" points="163.1276,-131.8945 171.6233,-125.564 161.0342,-125.2148 163.1276,-131.8945"/>
</g>
<!-- Node39&#45;&gt;Node40 -->
<g id="edge9" class="edge">
<title>Node39&#45;&gt;Node40</title>
<path fill="none" stroke="#191970" d="M107.0358,-220.8681C117.4271,-211.7951 133.9858,-197.3371 146.6043,-186.3195"/>
<polygon fill="#191970" stroke="#191970" points="148.9923,-188.8809 154.2231,-179.6673 144.3883,-183.6079 148.9923,-188.8809"/>
</g>
<!-- Node40&#45;&gt;Node2 -->
<g id="edge10" class="edge">
<title>Node40&#45;&gt;Node2</title>
<path fill="none" stroke="#191970" d="M160.0098,-162.2902C147.8935,-136.7987 112.3199,-61.9556 95.7837,-27.1651"/>
<polygon fill="#191970" stroke="#191970" points="98.764,-25.2821 91.31,-17.7529 92.4418,-28.2871 98.764,-25.2821"/>
</g>
<!-- Node40&#45;&gt;Node3 -->
<g id="edge11" class="edge">
<title>Node40&#45;&gt;Node3</title>
<path fill="none" stroke="#191970" d="M173.3077,-162.324C181.6512,-154.4196 194.1821,-142.5482 204.3266,-132.9377"/>
<polygon fill="#191970" stroke="#191970" points="206.9726,-135.2522 211.825,-125.8339 202.1584,-130.1705 206.9726,-135.2522"/>
</g>
<!-- Node43&#45;&gt;Node3 -->
<g id="edge14" class="edge">
<title>Node43&#45;&gt;Node3</title>
<path fill="none" stroke="#191970" d="M307.523,-216.153C289.4499,-195.4058 254.676,-155.4869 235.2162,-133.1478"/>
<polygon fill="#191970" stroke="#191970" points="237.7822,-130.7649 228.5747,-125.5236 232.504,-135.3628 237.7822,-130.7649"/>
</g>
<!-- Node43&#45;&gt;Node40 -->
<g id="edge15" class="edge">
<title>Node43&#45;&gt;Node40</title>
<path fill="none" stroke="#191970" d="M284.3647,-216.3715C258.0467,-206.4385 222.1714,-192.8985 196.4754,-183.2003"/>
<polygon fill="#191970" stroke="#191970" points="197.4185,-179.8154 186.8268,-179.5588 194.9467,-186.3644 197.4185,-179.8154"/>
</g>
<!-- Node45 -->
<g id="node10" class="node">
<title>Node45</title>
<g id="a_node10"><a xlink:href="../../d2/d6b/_interpreter_template_8hpp.html" target="_top" xlink:title="InterpreterTemplate.hpp">
<polygon fill="none" stroke="#ff0000" points="268.1497,-279.5 268.1497,-296.5 370.1497,-296.5 370.1497,-279.5 268.1497,-279.5"/>
<text text-anchor="middle" x="319.1497" y="-286.1" font-family="Helvetica,sans-Serif" font-size="8.00" fill="#000000">InterpreterTemplate.hpp</text>
</a>
</g>
</g>
<!-- Node44&#45;&gt;Node45 -->
<g id="edge17" class="edge">
<title>Node44&#45;&gt;Node45</title>
<path fill="none" stroke="#191970" d="M305.2342,-333.2254C307.6824,-325.2686 310.8307,-315.0367 313.5133,-306.3182"/>
<polygon fill="#191970" stroke="#191970" points="316.8805,-307.2761 316.4762,-296.689 310.19,-305.2174 316.8805,-307.2761"/>
</g>
<!-- Node45&#45;&gt;Node3 -->
<g id="edge18" class="edge">
<title>Node45&#45;&gt;Node3</title>
<path fill="none" stroke="#191970" d="M342.9381,-279.499C358.8711,-272.4129 378.613,-260.6052 388.1497,-243 393.8654,-232.4486 394.0897,-226.4267 388.1497,-216 361.5621,-169.3302 303.3623,-142.4011 263.2105,-128.7205"/>
<polygon fill="#191970" stroke="#191970" points="264.2672,-125.3837 253.6746,-125.603 262.092,-132.0371 264.2672,-125.3837"/>
</g>
<!-- Node45&#45;&gt;Node43 -->
<g id="edge19" class="edge">
<title>Node45&#45;&gt;Node43</title>
<path fill="none" stroke="#191970" d="M319.1497,-279.3681C319.1497,-272.3481 319.1497,-262.1043 319.1497,-252.7246"/>
<polygon fill="#191970" stroke="#191970" points="322.6498,-252.7197 319.1497,-242.7197 315.6498,-252.7198 322.6498,-252.7197"/>
</g>
</g>
</svg>
