<?xml version="1.0" encoding="UTF-8" standalone="no"?>
<!DOCTYPE svg PUBLIC "-//W3C//DTD SVG 1.1//EN"
 "http://www.w3.org/Graphics/SVG/1.1/DTD/svg11.dtd">
<!-- Generated by graphviz version 2.38.0 (20140413.2041)
 -->
<!-- Title: DmBs.h Pages: 1 -->
<svg width="174pt" height="134pt"
 viewBox="0.00 0.00 174.00 134.00" xmlns="http://www.w3.org/2000/svg" xmlns:xlink="http://www.w3.org/1999/xlink">
<g id="graph0" class="graph" transform="scale(1 1) rotate(0) translate(4 130)">
<title>DmBs.h</title>
<!-- Node1 -->
<g id="node1" class="node"><title>Node1</title>
<polygon fill="#bfbfbf" stroke="black" points="50,-108.5 50,-125.5 95,-125.5 95,-108.5 50,-108.5"/>
<text text-anchor="middle" x="72.5" y="-115.1" font-family="Helvetica,sans-Serif" font-size="8.00">DmBs.h</text>
</g>
<!-- Node2 -->
<g id="node2" class="node"><title>Node2</title>
<g id="a_node2"><a xlink:href="../../d2/d59/_dm_bs_8cpp.html" target="_top" xlink:title="DmBs.cpp">
<polygon fill="none" stroke="black" points="0,-54.5 0,-71.5 53,-71.5 53,-54.5 0,-54.5"/>
<text text-anchor="middle" x="26.5" y="-61.1" font-family="Helvetica,sans-Serif" font-size="8.00">DmBs.cpp</text>
</a>
</g>
</g>
<!-- Node1&#45;&gt;Node2 -->
<g id="edge1" class="edge"><title>Node1&#45;&gt;Node2</title>
<path fill="none" stroke="midnightblue" d="M58.9784,-100.715C50.5456,-91.182 40.0523,-79.32 33.3153,-71.7043"/>
<polygon fill="midnightblue" stroke="midnightblue" points="56.4653,-103.156 65.7125,-108.327 61.7083,-98.5182 56.4653,-103.156"/>
</g>
<!-- Node3 -->
<g id="node3" class="node"><title>Node3</title>
<g id="a_node3"><a xlink:href="../../df/d7a/_flavour_observables_8h.html" target="_top" xlink:title="FlavourObservables.h">
<polygon fill="none" stroke="black" points="71,-54.5 71,-71.5 166,-71.5 166,-54.5 71,-54.5"/>
<text text-anchor="middle" x="118.5" y="-61.1" font-family="Helvetica,sans-Serif" font-size="8.00">FlavourObservables.h</text>
</a>
</g>
</g>
<!-- Node1&#45;&gt;Node3 -->
<g id="edge2" class="edge"><title>Node1&#45;&gt;Node3</title>
<path fill="none" stroke="midnightblue" d="M86.0216,-100.715C94.4544,-91.182 104.948,-79.32 111.685,-71.7043"/>
<polygon fill="midnightblue" stroke="midnightblue" points="83.2917,-98.5182 79.2875,-108.327 88.5347,-103.156 83.2917,-98.5182"/>
</g>
<!-- Node4 -->
<g id="node4" class="node"><title>Node4</title>
<g id="a_node4"><a xlink:href="../../d1/de2/_th_obs_factory_8cpp.html" target="_top" xlink:title="ThObsFactory.cpp">
<polygon fill="none" stroke="black" points="77.5,-0.5 77.5,-17.5 159.5,-17.5 159.5,-0.5 77.5,-0.5"/>
<text text-anchor="middle" x="118.5" y="-7.1" font-family="Helvetica,sans-Serif" font-size="8.00">ThObsFactory.cpp</text>
</a>
</g>
</g>
<!-- Node3&#45;&gt;Node4 -->
<g id="edge3" class="edge"><title>Node3&#45;&gt;Node4</title>
<path fill="none" stroke="midnightblue" d="M118.5,-44.0621C118.5,-35.0603 118.5,-24.6277 118.5,-17.7043"/>
<polygon fill="midnightblue" stroke="midnightblue" points="115,-44.3272 118.5,-54.3272 122,-44.3273 115,-44.3272"/>
</g>
</g>
</svg>
