<?xml version="1.0" encoding="UTF-8" standalone="no"?>
<!DOCTYPE svg PUBLIC "-//W3C//DTD SVG 1.1//EN"
 "http://www.w3.org/Graphics/SVG/1.1/DTD/svg11.dtd">
<!-- Generated by graphviz version 2.40.1 (20161225.0304)
 -->
<!-- Title: gslpp_vector_base.h Pages: 1 -->
<svg width="618pt" height="296pt"
 viewBox="0.00 0.00 617.68 296.00" xmlns="http://www.w3.org/2000/svg" xmlns:xlink="http://www.w3.org/1999/xlink">
<g id="graph0" class="graph" transform="scale(1 1) rotate(0) translate(4 292)">
<title>gslpp_vector_base.h</title>
<!-- Node1 -->
<g id="node1" class="node">
<title>Node1</title>
<polygon fill="#bfbfbf" stroke="#000000" points="404.6904,-270.5 404.6904,-287.5 494.6904,-287.5 494.6904,-270.5 404.6904,-270.5"/>
<text text-anchor="middle" x="449.6904" y="-277.1" font-family="Helvetica,sans-Serif" font-size="8.00" fill="#000000">gslpp_vector_base.h</text>
</g>
<!-- Node2 -->
<g id="node2" class="node">
<title>Node2</title>
<g id="a_node2"><a xlink:href="../../da/d8e/gslpp__vector__double_8h.html" target="_top" xlink:title="gslpp_vector_double.h">
<polygon fill="none" stroke="#ff0000" points="74.1904,-216.5 74.1904,-233.5 171.1904,-233.5 171.1904,-216.5 74.1904,-216.5"/>
<text text-anchor="middle" x="122.6904" y="-223.1" font-family="Helvetica,sans-Serif" font-size="8.00" fill="#000000">gslpp_vector_double.h</text>
</a>
</g>
</g>
<!-- Node1&#45;&gt;Node2 -->
<g id="edge1" class="edge">
<title>Node1&#45;&gt;Node2</title>
<path fill="none" stroke="#191970" d="M394.4938,-269.885C331.9657,-259.5592 231.0294,-242.8909 171.3438,-233.0345"/>
<polygon fill="#191970" stroke="#191970" points="394.1291,-273.3721 404.5658,-271.5482 395.2697,-266.4656 394.1291,-273.3721"/>
</g>
<!-- Node423 -->
<g id="node5" class="node">
<title>Node423</title>
<g id="a_node5"><a xlink:href="../../d9/d25/gslpp__matrix__complex_8h.html" target="_top" xlink:title="gslpp_matrix_complex.h">
<polygon fill="none" stroke="#ff0000" points="438.1904,-162.5 438.1904,-179.5 541.1904,-179.5 541.1904,-162.5 438.1904,-162.5"/>
<text text-anchor="middle" x="489.6904" y="-169.1" font-family="Helvetica,sans-Serif" font-size="8.00" fill="#000000">gslpp_matrix_complex.h</text>
</a>
</g>
</g>
<!-- Node1&#45;&gt;Node423 -->
<g id="edge26" class="edge">
<title>Node1&#45;&gt;Node423</title>
<path fill="none" stroke="#191970" d="M458.8268,-260.9742C462.7559,-252.8484 467.2304,-243.0609 470.6904,-234 477.9445,-215.003 484.2966,-191.9658 487.494,-179.691"/>
<polygon fill="#191970" stroke="#191970" points="455.5603,-259.6836 454.2589,-270.1982 461.8333,-262.7901 455.5603,-259.6836"/>
</g>
<!-- Node424 -->
<g id="node6" class="node">
<title>Node424</title>
<g id="a_node6"><a xlink:href="../../d0/ddb/gslpp__matrix__double_8h.html" target="_top" xlink:title="gslpp_matrix_double.h">
<polygon fill="none" stroke="#ff0000" points="406.1904,-108.5 406.1904,-125.5 503.1904,-125.5 503.1904,-108.5 406.1904,-108.5"/>
<text text-anchor="middle" x="454.6904" y="-115.1" font-family="Helvetica,sans-Serif" font-size="8.00" fill="#000000">gslpp_matrix_double.h</text>
</a>
</g>
</g>
<!-- Node1&#45;&gt;Node424 -->
<g id="edge27" class="edge">
<title>Node1&#45;&gt;Node424</title>
<path fill="none" stroke="#191970" d="M472.6626,-264.7244C497.2798,-247.9223 534.9372,-217.5 550.6904,-180 562.5804,-151.696 525.425,-134.647 493.9293,-125.5544"/>
<polygon fill="#191970" stroke="#191970" points="470.6604,-261.8523 464.2479,-270.2863 474.5202,-267.692 470.6604,-261.8523"/>
</g>
<!-- Node497 -->
<g id="node10" class="node">
<title>Node497</title>
<g id="a_node10"><a xlink:href="../../da/dad/gslpp__vector__complex_8h.html" target="_top" xlink:title="gslpp_vector_complex.h">
<polygon fill="none" stroke="#ff0000" points="358.1904,-216.5 358.1904,-233.5 461.1904,-233.5 461.1904,-216.5 358.1904,-216.5"/>
<text text-anchor="middle" x="409.6904" y="-223.1" font-family="Helvetica,sans-Serif" font-size="8.00" fill="#000000">gslpp_vector_complex.h</text>
</a>
</g>
</g>
<!-- Node1&#45;&gt;Node497 -->
<g id="edge18" class="edge">
<title>Node1&#45;&gt;Node497</title>
<path fill="none" stroke="#191970" d="M436.9907,-261.8554C430.0643,-252.5048 421.7841,-241.3265 416.1727,-233.7511"/>
<polygon fill="#191970" stroke="#191970" points="434.3204,-264.1307 443.0852,-270.083 439.9453,-259.9641 434.3204,-264.1307"/>
</g>
<!-- Node3 -->
<g id="node3" class="node">
<title>Node3</title>
<g id="a_node3"><a xlink:href="../../df/d09/main___expanded_test_8cpp.html" target="_top" xlink:title="main_ExpandedTest.cpp">
<polygon fill="none" stroke="#000000" points="402.1904,-.5 402.1904,-17.5 507.1904,-17.5 507.1904,-.5 402.1904,-.5"/>
<text text-anchor="middle" x="454.6904" y="-7.1" font-family="Helvetica,sans-Serif" font-size="8.00" fill="#000000">main_ExpandedTest.cpp</text>
</a>
</g>
</g>
<!-- Node2&#45;&gt;Node3 -->
<g id="edge2" class="edge">
<title>Node2&#45;&gt;Node3</title>
<path fill="none" stroke="#191970" d="M64.4758,-213.6287C45.8454,-206.9925 27.1078,-196.5161 15.6904,-180 -2.5132,-153.6672 -6.3136,-132.9926 13.6904,-108 61.8658,-47.8108 295.9111,-21.693 402.1032,-12.8037"/>
<polygon fill="#191970" stroke="#191970" points="63.5774,-217.0166 74.1692,-216.7606 65.7296,-210.3556 63.5774,-217.0166"/>
</g>
<!-- Node4 -->
<g id="node4" class="node">
<title>Node4</title>
<g id="a_node4"><a xlink:href="../../d6/d7d/_expanded_8h.html" target="_top" xlink:title="Expanded.h">
<polygon fill="none" stroke="#ff0000" points="348.1904,-54.5 348.1904,-71.5 407.1904,-71.5 407.1904,-54.5 348.1904,-54.5"/>
<text text-anchor="middle" x="377.6904" y="-61.1" font-family="Helvetica,sans-Serif" font-size="8.00" fill="#000000">Expanded.h</text>
</a>
</g>
</g>
<!-- Node2&#45;&gt;Node4 -->
<g id="edge3" class="edge">
<title>Node2&#45;&gt;Node4</title>
<path fill="none" stroke="#191970" d="M73.126,-213.0417C56.0411,-206.2892 38.6989,-195.8875 28.6904,-180 11.634,-152.9246 7.5593,-132.0307 28.6904,-108 49.6934,-84.115 267.4742,-69.3113 347.9859,-64.6198"/>
<polygon fill="#191970" stroke="#191970" points="71.9485,-216.3377 82.5429,-216.4294 74.3181,-209.7509 71.9485,-216.3377"/>
</g>
<!-- Node2&#45;&gt;Node423 -->
<g id="edge5" class="edge">
<title>Node2&#45;&gt;Node423</title>
<path fill="none" stroke="#191970" d="M181.5381,-216.3412C252.4782,-205.9032 370.5579,-188.529 438.0904,-178.5924"/>
<polygon fill="#191970" stroke="#191970" points="180.8091,-212.9107 171.4252,-217.8292 181.8282,-219.8361 180.8091,-212.9107"/>
</g>
<!-- Node2&#45;&gt;Node424 -->
<g id="edge14" class="edge">
<title>Node2&#45;&gt;Node424</title>
<path fill="none" stroke="#191970" d="M108.0439,-208.0864C97.932,-194.2991 88.1972,-175.042 99.6904,-162 119.637,-139.3653 313.7082,-125.1713 406.1718,-119.6407"/>
<polygon fill="#191970" stroke="#191970" points="105.5608,-210.5872 114.5239,-216.2364 111.04,-206.2307 105.5608,-210.5872"/>
</g>
<!-- Node425 -->
<g id="node7" class="node">
<title>Node425</title>
<g id="a_node7"><a xlink:href="../../d9/d72/gslpp_8h.html" target="_top" xlink:title="gslpp.h">
<polygon fill="none" stroke="#ff0000" points="490.6904,-54.5 490.6904,-71.5 532.6904,-71.5 532.6904,-54.5 490.6904,-54.5"/>
<text text-anchor="middle" x="511.6904" y="-61.1" font-family="Helvetica,sans-Serif" font-size="8.00" fill="#000000">gslpp.h</text>
</a>
</g>
</g>
<!-- Node2&#45;&gt;Node425 -->
<g id="edge15" class="edge">
<title>Node2&#45;&gt;Node425</title>
<path fill="none" stroke="#191970" d="M105.0169,-209.0855C92.2959,-195.6942 79.2289,-176.4694 90.6904,-162 116.3321,-129.6291 408.8213,-79.7817 490.5768,-66.4022"/>
<polygon fill="#191970" stroke="#191970" points="102.6912,-211.7071 112.2788,-216.2159 107.5956,-206.7123 102.6912,-211.7071"/>
</g>
<!-- Node481 -->
<g id="node8" class="node">
<title>Node481</title>
<g id="a_node8"><a xlink:href="../../d8/db9/gslpp__vector__complex_8cpp.html" target="_top" xlink:title="gslpp_vector_complex.cpp">
<polygon fill="none" stroke="#000000" points="109.1904,-162.5 109.1904,-179.5 220.1904,-179.5 220.1904,-162.5 109.1904,-162.5"/>
<text text-anchor="middle" x="164.6904" y="-169.1" font-family="Helvetica,sans-Serif" font-size="8.00" fill="#000000">gslpp_vector_complex.cpp</text>
</a>
</g>
</g>
<!-- Node2&#45;&gt;Node481 -->
<g id="edge16" class="edge">
<title>Node2&#45;&gt;Node481</title>
<path fill="none" stroke="#191970" d="M135.8006,-208.144C143.1182,-198.7357 151.9313,-187.4046 157.884,-179.7511"/>
<polygon fill="#191970" stroke="#191970" points="133.0025,-206.0406 129.6258,-216.083 138.528,-210.3383 133.0025,-206.0406"/>
</g>
<!-- Node482 -->
<g id="node9" class="node">
<title>Node482</title>
<g id="a_node9"><a xlink:href="../../d0/d61/gslpp__vector__double_8cpp.html" target="_top" xlink:title="gslpp_vector_double.cpp">
<polygon fill="none" stroke="#000000" points="238.1904,-162.5 238.1904,-179.5 343.1904,-179.5 343.1904,-162.5 238.1904,-162.5"/>
<text text-anchor="middle" x="290.6904" y="-169.1" font-family="Helvetica,sans-Serif" font-size="8.00" fill="#000000">gslpp_vector_double.cpp</text>
</a>
</g>
</g>
<!-- Node2&#45;&gt;Node482 -->
<g id="edge17" class="edge">
<title>Node2&#45;&gt;Node482</title>
<path fill="none" stroke="#191970" d="M159.0766,-213.3044C190.7323,-203.1294 235.8584,-188.6246 264.1948,-179.5164"/>
<polygon fill="#191970" stroke="#191970" points="157.7597,-210.0513 149.3105,-216.4435 159.9018,-216.7155 157.7597,-210.0513"/>
</g>
<!-- Node4&#45;&gt;Node3 -->
<g id="edge4" class="edge">
<title>Node4&#45;&gt;Node3</title>
<path fill="none" stroke="#191970" d="M398.5914,-48.3422C412.6015,-38.5169 430.5734,-25.9132 442.3497,-17.6545"/>
<polygon fill="#191970" stroke="#191970" points="396.2395,-45.7166 390.0618,-54.324 400.2587,-51.4477 396.2395,-45.7166"/>
</g>
<!-- Node423&#45;&gt;Node3 -->
<g id="edge6" class="edge">
<title>Node423&#45;&gt;Node3</title>
<path fill="none" stroke="#191970" d="M506.2917,-155.1476C528.4088,-132.0393 562.4688,-88.1408 541.6904,-54 530.3742,-35.4064 508.6242,-24.1564 489.7032,-17.5548"/>
<polygon fill="#191970" stroke="#191970" points="503.6453,-152.8451 499.0762,-162.4041 508.6091,-157.7809 503.6453,-152.8451"/>
</g>
<!-- Node423&#45;&gt;Node4 -->
<g id="edge7" class="edge">
<title>Node423&#45;&gt;Node4</title>
<path fill="none" stroke="#191970" d="M447.0003,-158.8485C429.239,-151.8446 409.7575,-141.31 396.6904,-126 383.1925,-110.1852 379.2837,-85.0149 378.1518,-71.7847"/>
<polygon fill="#191970" stroke="#191970" points="446.0455,-162.2262 456.6391,-162.3842 448.4562,-155.6544 446.0455,-162.2262"/>
</g>
<!-- Node423&#45;&gt;Node424 -->
<g id="edge8" class="edge">
<title>Node423&#45;&gt;Node424</title>
<path fill="none" stroke="#191970" d="M472.4578,-154.144C465.5004,-144.7357 458.5483,-133.4046 455.2314,-125.7511"/>
<polygon fill="#191970" stroke="#191970" points="469.7926,-156.4162 478.7445,-162.083 475.2803,-152.0705 469.7926,-156.4162"/>
</g>
<!-- Node423&#45;&gt;Node425 -->
<g id="edge13" class="edge">
<title>Node423&#45;&gt;Node425</title>
<path fill="none" stroke="#191970" d="M501.1122,-153.4421C505.673,-145.4187 510.3837,-135.5817 512.6904,-126 517.2478,-107.0697 514.9841,-84.0064 513.1816,-71.7096"/>
<polygon fill="#191970" stroke="#191970" points="497.998,-151.8273 495.795,-162.1905 503.9798,-155.463 497.998,-151.8273"/>
</g>
<!-- Node424&#45;&gt;Node3 -->
<g id="edge9" class="edge">
<title>Node424&#45;&gt;Node3</title>
<path fill="none" stroke="#191970" d="M454.6904,-97.9835C454.6904,-74.3433 454.6904,-34.998 454.6904,-17.6584"/>
<polygon fill="#191970" stroke="#191970" points="451.1905,-98.1619 454.6904,-108.1619 458.1905,-98.1619 451.1905,-98.1619"/>
</g>
<!-- Node424&#45;&gt;Node4 -->
<g id="edge11" class="edge">
<title>Node424&#45;&gt;Node4</title>
<path fill="none" stroke="#191970" d="M433.7894,-102.3422C419.7793,-92.5169 401.8074,-79.9132 390.0311,-71.6545"/>
<polygon fill="#191970" stroke="#191970" points="432.122,-105.4477 442.319,-108.324 436.1413,-99.7166 432.122,-105.4477"/>
</g>
<!-- Node424&#45;&gt;Node423 -->
<g id="edge10" class="edge">
<title>Node424&#45;&gt;Node423</title>
<path fill="none" stroke="#191970" d="M471.7727,-133.6531C478.7299,-143.0333 485.708,-154.3768 489.0772,-162.083"/>
<polygon fill="#191970" stroke="#191970" points="474.455,-131.4027 465.4934,-125.7511 468.9746,-135.7577 474.455,-131.4027"/>
</g>
<!-- Node424&#45;&gt;Node425 -->
<g id="edge12" class="edge">
<title>Node424&#45;&gt;Node425</title>
<path fill="none" stroke="#191970" d="M471.3119,-101.2533C481.4244,-91.6731 493.967,-79.7906 502.3657,-71.8339"/>
<polygon fill="#191970" stroke="#191970" points="468.7009,-98.9056 463.8484,-108.324 473.5151,-103.9873 468.7009,-98.9056"/>
</g>
<!-- Node497&#45;&gt;Node3 -->
<g id="edge19" class="edge">
<title>Node497&#45;&gt;Node3</title>
<path fill="none" stroke="#191970" d="M471.7628,-215.1679C510.7455,-207.5823 555.8195,-195.7239 567.6904,-180 586.0387,-155.6962 656.4976,-190.1986 558.6904,-54 545.0346,-34.9841 521.6022,-23.9234 500.433,-17.5311"/>
<polygon fill="#191970" stroke="#191970" points="470.6678,-211.8123 461.4861,-217.0988 471.9605,-218.6919 470.6678,-211.8123"/>
</g>
<!-- Node497&#45;&gt;Node4 -->
<g id="edge20" class="edge">
<title>Node497&#45;&gt;Node4</title>
<path fill="none" stroke="#191970" d="M403.8885,-206.5623C397.9058,-186.8284 388.7567,-154.5065 383.6904,-126 380.2683,-106.7449 378.7043,-83.8085 378.0689,-71.6191"/>
<polygon fill="#191970" stroke="#191970" points="400.6208,-207.8428 406.9155,-216.3649 407.3091,-205.7774 400.6208,-207.8428"/>
</g>
<!-- Node497&#45;&gt;Node423 -->
<g id="edge21" class="edge">
<title>Node497&#45;&gt;Node423</title>
<path fill="none" stroke="#191970" d="M430.9909,-210.6221C445.6054,-200.7574 464.5172,-187.9919 476.8689,-179.6545"/>
<polygon fill="#191970" stroke="#191970" points="428.8741,-207.8282 422.5438,-216.324 432.7904,-213.6302 428.8741,-207.8282"/>
</g>
<!-- Node497&#45;&gt;Node424 -->
<g id="edge22" class="edge">
<title>Node497&#45;&gt;Node424</title>
<path fill="none" stroke="#191970" d="M414.5484,-206.3612C418.1216,-193.6303 423.4329,-176.5063 429.6904,-162 435.3542,-148.87 443.7039,-134.5744 449.1696,-125.6991"/>
<polygon fill="#191970" stroke="#191970" points="411.1084,-205.6748 411.8758,-216.2418 417.8656,-207.5026 411.1084,-205.6748"/>
</g>
<!-- Node497&#45;&gt;Node425 -->
<g id="edge23" class="edge">
<title>Node497&#45;&gt;Node425</title>
<path fill="none" stroke="#191970" d="M465.3633,-214.2373C500.1404,-206.2553 540.2399,-194.305 550.6904,-180 576.2039,-145.076 537.1717,-92.4199 519.5698,-71.7596"/>
<polygon fill="#191970" stroke="#191970" points="464.2565,-210.8977 455.2537,-216.4835 465.7749,-217.7311 464.2565,-210.8977"/>
</g>
<!-- Node497&#45;&gt;Node481 -->
<g id="edge24" class="edge">
<title>Node497&#45;&gt;Node481</title>
<path fill="none" stroke="#191970" d="M361.06,-214.2815C314.7617,-204.0769 245.9955,-188.9203 203.3297,-179.5164"/>
<polygon fill="#191970" stroke="#191970" points="360.3504,-217.709 370.8694,-216.4435 361.8572,-210.8731 360.3504,-217.709"/>
</g>
<!-- Node497&#45;&gt;Node482 -->
<g id="edge25" class="edge">
<title>Node497&#45;&gt;Node482</title>
<path fill="none" stroke="#191970" d="M381.5537,-212.2321C359.2943,-202.1312 328.8346,-188.3091 309.4581,-179.5164"/>
<polygon fill="#191970" stroke="#191970" points="380.2819,-215.4984 390.8345,-216.4435 383.1745,-209.124 380.2819,-215.4984"/>
</g>
</g>
</svg>
