<?xml version="1.0" encoding="UTF-8" standalone="no"?>
<!DOCTYPE svg PUBLIC "-//W3C//DTD SVG 1.1//EN"
 "http://www.w3.org/Graphics/SVG/1.1/DTD/svg11.dtd">
<!-- Generated by graphviz version 2.40.1 (20161225.0304)
 -->
<!-- Title: BlockTypes.hpp Pages: 1 -->
<svg width="408pt" height="305pt"
 viewBox="0.00 0.00 407.90 305.00" xmlns="http://www.w3.org/2000/svg" xmlns:xlink="http://www.w3.org/1999/xlink">
<g id="graph0" class="graph" transform="scale(1 1) rotate(0) translate(4 301)">
<title>BlockTypes.hpp</title>
<!-- Node74 -->
<g id="node1" class="node">
<title>Node74</title>
<polygon fill="#bfbfbf" stroke="#000000" points="103.9027,-279.5 103.9027,-296.5 176.9027,-296.5 176.9027,-279.5 103.9027,-279.5"/>
<text text-anchor="middle" x="140.4027" y="-286.1" font-family="Helvetica,sans-Serif" font-size="8.00" fill="#000000">BlockTypes.hpp</text>
</g>
<!-- Node75 -->
<g id="node2" class="node">
<title>Node75</title>
<g id="a_node2"><a xlink:href="../../de/d0c/_flha_one_8hpp.html" target="_top" xlink:title="FlhaOne.hpp">
<polygon fill="none" stroke="#000000" points="12.9027,-171.5 12.9027,-188.5 75.9027,-188.5 75.9027,-171.5 12.9027,-171.5"/>
<text text-anchor="middle" x="44.4027" y="-178.1" font-family="Helvetica,sans-Serif" font-size="8.00" fill="#000000">FlhaOne.hpp</text>
</a>
</g>
</g>
<!-- Node74&#45;&gt;Node75 -->
<g id="edge1" class="edge">
<title>Node74&#45;&gt;Node75</title>
<path fill="none" stroke="#191970" d="M107.1005,-275.3026C91.8359,-267.9585 74.6724,-257.3008 63.4027,-243 50.5334,-226.6696 46.3594,-201.7167 45.0216,-188.6554"/>
<polygon fill="#191970" stroke="#191970" points="105.7354,-278.5264 116.2899,-279.4501 108.615,-272.1461 105.7354,-278.5264"/>
</g>
<!-- Node76 -->
<g id="node3" class="node">
<title>Node76</title>
<g id="a_node3"><a xlink:href="../../d4/d42/_s_l_h_a_8hpp.html" target="_top" xlink:title="SLHA.hpp">
<polygon fill="none" stroke="#ff0000" points="99.9027,-63.5 99.9027,-80.5 152.9027,-80.5 152.9027,-63.5 99.9027,-63.5"/>
<text text-anchor="middle" x="126.4027" y="-70.1" font-family="Helvetica,sans-Serif" font-size="8.00" fill="#000000">SLHA.hpp</text>
</a>
</g>
</g>
<!-- Node74&#45;&gt;Node76 -->
<g id="edge14" class="edge">
<title>Node74&#45;&gt;Node76</title>
<path fill="none" stroke="#191970" d="M105.1572,-275.7111C70.3695,-261.2689 20.0431,-233.4651 3.4027,-189 -16.3273,-136.2794 61.8522,-97.0991 102.8247,-80.6016"/>
<polygon fill="#191970" stroke="#191970" points="103.9306,-278.9898 114.5162,-279.4329 106.5174,-272.4853 103.9306,-278.9898"/>
</g>
<!-- Node92 -->
<g id="node5" class="node">
<title>Node92</title>
<g id="a_node5"><a xlink:href="../../d7/d9f/_slha_parser_8hpp.html" target="_top" xlink:title="SlhaParser.hpp">
<polygon fill="none" stroke="#000000" points="72.4027,-225.5 72.4027,-242.5 144.4027,-242.5 144.4027,-225.5 72.4027,-225.5"/>
<text text-anchor="middle" x="108.4027" y="-232.1" font-family="Helvetica,sans-Serif" font-size="8.00" fill="#000000">SlhaParser.hpp</text>
</a>
</g>
</g>
<!-- Node74&#45;&gt;Node92 -->
<g id="edge4" class="edge">
<title>Node74&#45;&gt;Node92</title>
<path fill="none" stroke="#191970" d="M129.8988,-270.2747C124.4296,-261.0454 117.9851,-250.1703 113.5885,-242.7511"/>
<polygon fill="#191970" stroke="#191970" points="127.0094,-272.2644 135.1185,-279.083 133.0315,-268.6957 127.0094,-272.2644"/>
</g>
<!-- Node93 -->
<g id="node6" class="node">
<title>Node93</title>
<g id="a_node6"><a xlink:href="../../d7/dc0/_slha_one_8hpp.html" target="_top" xlink:title="SlhaOne.hpp">
<polygon fill="none" stroke="#000000" points="205.9027,-171.5 205.9027,-188.5 268.9027,-188.5 268.9027,-171.5 205.9027,-171.5"/>
<text text-anchor="middle" x="237.4027" y="-178.1" font-family="Helvetica,sans-Serif" font-size="8.00" fill="#000000">SlhaOne.hpp</text>
</a>
</g>
</g>
<!-- Node74&#45;&gt;Node93 -->
<g id="edge13" class="edge">
<title>Node74&#45;&gt;Node93</title>
<path fill="none" stroke="#191970" d="M153.1835,-271.1485C163.2052,-258.2026 177.7029,-240.0504 191.4027,-225 203.4352,-211.7811 218.3958,-197.5077 227.9242,-188.6616"/>
<polygon fill="#191970" stroke="#191970" points="150.3343,-269.1123 147.0253,-279.1771 155.8886,-273.3726 150.3343,-269.1123"/>
</g>
<!-- Node99 -->
<g id="node9" class="node">
<title>Node99</title>
<g id="a_node9"><a xlink:href="../../d5/dce/_slha_value_plotter_8hpp.html" target="_top" xlink:title="SlhaValuePlotter.hpp">
<polygon fill="none" stroke="#ff0000" points="200.4027,-225.5 200.4027,-242.5 292.4027,-242.5 292.4027,-225.5 200.4027,-225.5"/>
<text text-anchor="middle" x="246.4027" y="-232.1" font-family="Helvetica,sans-Serif" font-size="8.00" fill="#000000">SlhaValuePlotter.hpp</text>
</a>
</g>
</g>
<!-- Node74&#45;&gt;Node99 -->
<g id="edge15" class="edge">
<title>Node74&#45;&gt;Node99</title>
<path fill="none" stroke="#191970" d="M166.4588,-274.7261C186.0865,-264.7271 212.4306,-251.3065 229.4142,-242.6545"/>
<polygon fill="#191970" stroke="#191970" points="164.755,-271.666 157.4334,-279.324 167.9326,-277.9033 164.755,-271.666"/>
</g>
<!-- Node103 -->
<g id="node10" class="node">
<title>Node103</title>
<g id="a_node10"><a xlink:href="../../d8/db0/_spectrum_plotter_8hpp.html" target="_top" xlink:title="SpectrumPlotter.hpp">
<polygon fill="none" stroke="#ff0000" points="310.9027,-225.5 310.9027,-242.5 399.9027,-242.5 399.9027,-225.5 310.9027,-225.5"/>
<text text-anchor="middle" x="355.4027" y="-232.1" font-family="Helvetica,sans-Serif" font-size="8.00" fill="#000000">SpectrumPlotter.hpp</text>
</a>
</g>
</g>
<!-- Node74&#45;&gt;Node103 -->
<g id="edge16" class="edge">
<title>Node74&#45;&gt;Node103</title>
<path fill="none" stroke="#191970" d="M184.3624,-276.959C224.97,-266.7598 284.4458,-251.8217 321.4947,-242.5164"/>
<polygon fill="#191970" stroke="#191970" points="183.3162,-273.6129 174.47,-279.4435 185.0214,-280.4021 183.3162,-273.6129"/>
</g>
<!-- Node75&#45;&gt;Node76 -->
<g id="edge2" class="edge">
<title>Node75&#45;&gt;Node76</title>
<path fill="none" stroke="#191970" d="M48.664,-161.2049C52.3311,-147.9323 58.6069,-130.2267 68.4027,-117 79.9321,-101.4325 98.2176,-88.4871 111.1717,-80.5383"/>
<polygon fill="#191970" stroke="#191970" points="45.2162,-160.5646 46.1772,-171.1157 52.0058,-162.2682 45.2162,-160.5646"/>
</g>
<!-- Node77 -->
<g id="node4" class="node">
<title>Node77</title>
<g id="a_node4"><a xlink:href="../../da/d87/main__libmode__slha2__to___general_s_u_s_yconfigfile_8cpp.html" target="_top" xlink:title="main_libmode_slha2\l_to_GeneralSUSYconfigfile.cpp">
<polygon fill="none" stroke="#000000" points="61.9027,-.5 61.9027,-26.5 190.9027,-26.5 190.9027,-.5 61.9027,-.5"/>
<text text-anchor="start" x="69.9027" y="-16.1" font-family="Helvetica,sans-Serif" font-size="8.00" fill="#000000">main_libmode_slha2</text>
<text text-anchor="middle" x="126.4027" y="-7.1" font-family="Helvetica,sans-Serif" font-size="8.00" fill="#000000">_to_GeneralSUSYconfigfile.cpp</text>
</a>
</g>
</g>
<!-- Node76&#45;&gt;Node77 -->
<g id="edge3" class="edge">
<title>Node76&#45;&gt;Node77</title>
<path fill="none" stroke="#191970" d="M126.4027,-53.1372C126.4027,-44.5195 126.4027,-34.5195 126.4027,-26.7197"/>
<polygon fill="#191970" stroke="#191970" points="122.9028,-53.3681 126.4027,-63.3681 129.9028,-53.3682 122.9028,-53.3681"/>
</g>
<!-- Node92&#45;&gt;Node75 -->
<g id="edge5" class="edge">
<title>Node92&#45;&gt;Node75</title>
<path fill="none" stroke="#191970" d="M90.4112,-218.8197C78.9451,-209.1452 64.4893,-196.9481 54.8725,-188.8339"/>
<polygon fill="#191970" stroke="#191970" points="88.2199,-221.5502 98.1199,-225.324 92.7341,-216.2002 88.2199,-221.5502"/>
</g>
<!-- Node92&#45;&gt;Node76 -->
<g id="edge12" class="edge">
<title>Node92&#45;&gt;Node76</title>
<path fill="none" stroke="#191970" d="M103.7896,-215.3685C98.7921,-191.9902 92.6296,-150.8563 101.4027,-117 104.9447,-103.3307 113.6376,-89.393 119.7739,-80.7252"/>
<polygon fill="#191970" stroke="#191970" points="100.4239,-216.3496 106.0788,-225.3091 107.2453,-214.7786 100.4239,-216.3496"/>
</g>
<!-- Node92&#45;&gt;Node93 -->
<g id="edge6" class="edge">
<title>Node92&#45;&gt;Node93</title>
<path fill="none" stroke="#191970" d="M138.2567,-221.503C162.4404,-211.3795 195.8646,-197.388 217.0579,-188.5164"/>
<polygon fill="#191970" stroke="#191970" points="136.716,-218.3536 128.8431,-225.4435 139.419,-224.8106 136.716,-218.3536"/>
</g>
<!-- Node96 -->
<g id="node8" class="node">
<title>Node96</title>
<g id="a_node8"><a xlink:href="../../d7/d12/_slha_simplistic_interpreter_8hpp.html" target="_top" xlink:title="SlhaSimplisticInterpreter.hpp">
<polygon fill="none" stroke="#ff0000" points="110.9027,-117.5 110.9027,-134.5 229.9027,-134.5 229.9027,-117.5 110.9027,-117.5"/>
<text text-anchor="middle" x="170.4027" y="-124.1" font-family="Helvetica,sans-Serif" font-size="8.00" fill="#000000">SlhaSimplisticInterpreter.hpp</text>
</a>
</g>
</g>
<!-- Node92&#45;&gt;Node96 -->
<g id="edge10" class="edge">
<title>Node92&#45;&gt;Node96</title>
<path fill="none" stroke="#191970" d="M118.5883,-216.2572C132.0652,-192.7813 155.2969,-152.3133 165.4321,-134.6584"/>
<polygon fill="#191970" stroke="#191970" points="115.4197,-214.7468 113.4764,-225.1619 121.4905,-218.2319 115.4197,-214.7468"/>
</g>
<!-- Node93&#45;&gt;Node76 -->
<g id="edge9" class="edge">
<title>Node93&#45;&gt;Node76</title>
<path fill="none" stroke="#191970" d="M242.9845,-161.3567C245.8387,-147.8929 247.1126,-129.8862 238.4027,-117 219.3924,-88.8746 179.5914,-78.3251 152.9256,-74.3698"/>
<polygon fill="#191970" stroke="#191970" points="239.5063,-160.8286 240.3997,-171.3857 246.2848,-162.5757 239.5063,-160.8286"/>
</g>
<!-- Node94 -->
<g id="node7" class="node">
<title>Node94</title>
<g id="a_node7"><a xlink:href="../../d3/d12/_slha_two_8hpp.html" target="_top" xlink:title="SlhaTwo.hpp">
<polygon fill="none" stroke="#ff0000" points="286.9027,-117.5 286.9027,-134.5 349.9027,-134.5 349.9027,-117.5 286.9027,-117.5"/>
<text text-anchor="middle" x="318.4027" y="-124.1" font-family="Helvetica,sans-Serif" font-size="8.00" fill="#000000">SlhaTwo.hpp</text>
</a>
</g>
</g>
<!-- Node93&#45;&gt;Node94 -->
<g id="edge7" class="edge">
<title>Node93&#45;&gt;Node94</title>
<path fill="none" stroke="#191970" d="M258.9695,-165.6221C273.7666,-155.7574 292.9148,-142.9919 305.4209,-134.6545"/>
<polygon fill="#191970" stroke="#191970" points="256.7958,-162.8647 250.4167,-171.324 260.6787,-168.6891 256.7958,-162.8647"/>
</g>
<!-- Node94&#45;&gt;Node76 -->
<g id="edge8" class="edge">
<title>Node94&#45;&gt;Node76</title>
<path fill="none" stroke="#191970" d="M278.3402,-114.7324C240.7016,-104.1466 185.4448,-88.6056 152.9734,-79.473"/>
<polygon fill="#191970" stroke="#191970" points="277.4055,-118.1053 287.9797,-117.4435 279.3008,-111.3667 277.4055,-118.1053"/>
</g>
<!-- Node96&#45;&gt;Node76 -->
<g id="edge11" class="edge">
<title>Node96&#45;&gt;Node76</title>
<path fill="none" stroke="#191970" d="M156.6681,-109.144C149.0021,-99.7357 139.7694,-88.4046 133.5332,-80.7511"/>
<polygon fill="#191970" stroke="#191970" points="154.1069,-111.5415 163.1369,-117.083 159.5335,-107.1198 154.1069,-111.5415"/>
</g>
</g>
</svg>
