<?xml version="1.0" encoding="UTF-8" standalone="no"?>
<!DOCTYPE svg PUBLIC "-//W3C//DTD SVG 1.1//EN"
 "http://www.w3.org/Graphics/SVG/1.1/DTD/svg11.dtd">
<!-- Generated by graphviz version 2.40.1 (20161225.0304)
 -->
<!-- Title: SlhaOne.hpp Pages: 1 -->
<svg width="681pt" height="251pt"
 viewBox="0.00 0.00 681.00 251.00" xmlns="http://www.w3.org/2000/svg" xmlns:xlink="http://www.w3.org/1999/xlink">
<g id="graph0" class="graph" transform="scale(1 1) rotate(0) translate(4 247)">
<title>SlhaOne.hpp</title>
<!-- Node82 -->
<g id="node1" class="node">
<title>Node82</title>
<polygon fill="#bfbfbf" stroke="#000000" points="325,-225.5 325,-242.5 388,-242.5 388,-225.5 325,-225.5"/>
<text text-anchor="middle" x="356.5" y="-232.1" font-family="Helvetica,sans-Serif" font-size="8.00" fill="#000000">SlhaOne.hpp</text>
</g>
<!-- Node83 -->
<g id="node2" class="node">
<title>Node83</title>
<g id="a_node2"><a xlink:href="../../d3/d12/_slha_two_8hpp.html" target="_top" xlink:title="SlhaTwo.hpp">
<polygon fill="none" stroke="#000000" points="295,-171.5 295,-188.5 358,-188.5 358,-171.5 295,-171.5"/>
<text text-anchor="middle" x="326.5" y="-178.1" font-family="Helvetica,sans-Serif" font-size="8.00" fill="#000000">SlhaTwo.hpp</text>
</a>
</g>
</g>
<!-- Node82&#45;&gt;Node83 -->
<g id="edge1" class="edge">
<title>Node82&#45;&gt;Node83</title>
<path fill="none" stroke="#191970" d="M346.6526,-216.2747C341.5252,-207.0454 335.4835,-196.1703 331.3617,-188.7511"/>
<polygon fill="#191970" stroke="#191970" points="343.6301,-218.0412 351.5461,-225.083 349.7492,-214.6416 343.6301,-218.0412"/>
</g>
<!-- Node85 -->
<g id="node4" class="node">
<title>Node85</title>
<g id="a_node4"><a xlink:href="../../d4/d42/_s_l_h_a_8hpp.html" target="_top" xlink:title="SLHA.hpp">
<polygon fill="none" stroke="#ff0000" points="322,-63.5 322,-80.5 375,-80.5 375,-63.5 322,-63.5"/>
<text text-anchor="middle" x="348.5" y="-70.1" font-family="Helvetica,sans-Serif" font-size="8.00" fill="#000000">SLHA.hpp</text>
</a>
</g>
</g>
<!-- Node82&#45;&gt;Node85 -->
<g id="edge11" class="edge">
<title>Node82&#45;&gt;Node85</title>
<path fill="none" stroke="#191970" d="M361.5374,-215.6245C363.5083,-207.5284 365.5274,-197.8602 366.5,-189 370.9626,-148.3468 357.6105,-100.1978 351.4434,-80.7719"/>
<polygon fill="#191970" stroke="#191970" points="358.1074,-214.9081 358.9824,-225.4668 364.8829,-216.667 358.1074,-214.9081"/>
</g>
<!-- Node84 -->
<g id="node3" class="node">
<title>Node84</title>
<g id="a_node3"><a xlink:href="../../d9/dee/_slha_two_with_spheno_8hpp.html" target="_top" xlink:title="SlhaTwoWithSpheno.hpp">
<polygon fill="none" stroke="#000000" points="213,-117.5 213,-134.5 320,-134.5 320,-117.5 213,-117.5"/>
<text text-anchor="middle" x="266.5" y="-124.1" font-family="Helvetica,sans-Serif" font-size="8.00" fill="#000000">SlhaTwoWithSpheno.hpp</text>
</a>
</g>
</g>
<!-- Node83&#45;&gt;Node84 -->
<g id="edge2" class="edge">
<title>Node83&#45;&gt;Node84</title>
<path fill="none" stroke="#191970" d="M309.3191,-164.5372C298.6208,-154.9087 285.2437,-142.8694 276.3154,-134.8339"/>
<polygon fill="#191970" stroke="#191970" points="307.0856,-167.2358 316.86,-171.324 311.7684,-162.0327 307.0856,-167.2358"/>
</g>
<!-- Node83&#45;&gt;Node85 -->
<g id="edge10" class="edge">
<title>Node83&#45;&gt;Node85</title>
<path fill="none" stroke="#191970" d="M330.3083,-161.3049C335.1164,-137.7014 343.188,-98.0769 346.7363,-80.6584"/>
<polygon fill="#191970" stroke="#191970" points="326.8669,-160.6645 328.3004,-171.1619 333.726,-162.0618 326.8669,-160.6645"/>
</g>
<!-- Node84&#45;&gt;Node85 -->
<g id="edge3" class="edge">
<title>Node84&#45;&gt;Node85</title>
<path fill="none" stroke="#191970" d="M288.3331,-111.6221C303.3129,-101.7574 322.6975,-88.9919 335.358,-80.6545"/>
<polygon fill="#191970" stroke="#191970" points="286.1015,-108.9009 279.6747,-117.324 289.9514,-114.7471 286.1015,-108.9009"/>
</g>
<!-- Node86 -->
<g id="node5" class="node">
<title>Node86</title>
<g id="a_node5"><a xlink:href="../../da/d87/main__libmode__slha2__to___general_s_u_s_yconfigfile_8cpp.html" target="_top" xlink:title="main_libmode_slha2\l_to_GeneralSUSYconfigfile.cpp">
<polygon fill="none" stroke="#000000" points="0,-.5 0,-26.5 129,-26.5 129,-.5 0,-.5"/>
<text text-anchor="start" x="8" y="-16.1" font-family="Helvetica,sans-Serif" font-size="8.00" fill="#000000">main_libmode_slha2</text>
<text text-anchor="middle" x="64.5" y="-7.1" font-family="Helvetica,sans-Serif" font-size="8.00" fill="#000000">_to_GeneralSUSYconfigfile.cpp</text>
</a>
</g>
</g>
<!-- Node85&#45;&gt;Node86 -->
<g id="edge4" class="edge">
<title>Node85&#45;&gt;Node86</title>
<path fill="none" stroke="#191970" d="M311.8488,-64.4504C265.3528,-54.8728 184.4207,-38.202 127.8361,-26.5464"/>
<polygon fill="#191970" stroke="#191970" points="311.2814,-67.9069 321.782,-66.4965 312.6938,-61.0509 311.2814,-67.9069"/>
</g>
<!-- Node87 -->
<g id="node6" class="node">
<title>Node87</title>
<g id="a_node6"><a xlink:href="../../d5/d2a/_base_slha_block_8cpp.html" target="_top" xlink:title="BaseSlhaBlock.cpp">
<polygon fill="none" stroke="#000000" points="147,-5 147,-22 232,-22 232,-5 147,-5"/>
<text text-anchor="middle" x="189.5" y="-11.6" font-family="Helvetica,sans-Serif" font-size="8.00" fill="#000000">BaseSlhaBlock.cpp</text>
</a>
</g>
</g>
<!-- Node85&#45;&gt;Node87 -->
<g id="edge5" class="edge">
<title>Node85&#45;&gt;Node87</title>
<path fill="none" stroke="#191970" d="M315.9524,-60.0249C285.2073,-48.7131 239.8617,-32.0293 212.6479,-22.0167"/>
<polygon fill="#191970" stroke="#191970" points="314.7865,-63.3253 325.38,-63.4936 317.2036,-56.7559 314.7865,-63.3253"/>
</g>
<!-- Node88 -->
<g id="node7" class="node">
<title>Node88</title>
<g id="a_node7"><a xlink:href="../../dc/dae/_base_string_block_8cpp.html" target="_top" xlink:title="BaseStringBlock.cpp">
<polygon fill="none" stroke="#000000" points="250.5,-5 250.5,-22 340.5,-22 340.5,-5 250.5,-5"/>
<text text-anchor="middle" x="295.5" y="-11.6" font-family="Helvetica,sans-Serif" font-size="8.00" fill="#000000">BaseStringBlock.cpp</text>
</a>
</g>
</g>
<!-- Node85&#45;&gt;Node88 -->
<g id="edge6" class="edge">
<title>Node85&#45;&gt;Node88</title>
<path fill="none" stroke="#191970" d="M333.7974,-55.7716C323.9414,-44.8929 311.3498,-30.9946 303.3524,-22.1673"/>
<polygon fill="#191970" stroke="#191970" points="331.3717,-58.3072 340.6797,-63.3681 336.5593,-53.6073 331.3717,-58.3072"/>
</g>
<!-- Node89 -->
<g id="node8" class="node">
<title>Node89</title>
<g id="a_node8"><a xlink:href="../../d6/d46/_block_interpreter_8cpp.html" target="_top" xlink:title="BlockInterpreter.cpp">
<polygon fill="none" stroke="#000000" points="358.5,-5 358.5,-22 446.5,-22 446.5,-5 358.5,-5"/>
<text text-anchor="middle" x="402.5" y="-11.6" font-family="Helvetica,sans-Serif" font-size="8.00" fill="#000000">BlockInterpreter.cpp</text>
</a>
</g>
</g>
<!-- Node85&#45;&gt;Node89 -->
<g id="edge7" class="edge">
<title>Node85&#45;&gt;Node89</title>
<path fill="none" stroke="#191970" d="M363.48,-55.7716C373.522,-44.8929 386.3511,-30.9946 394.4994,-22.1673"/>
<polygon fill="#191970" stroke="#191970" points="360.6789,-53.6461 356.4679,-63.3681 365.8225,-58.3941 360.6789,-53.6461"/>
</g>
<!-- Node90 -->
<g id="node9" class="node">
<title>Node90</title>
<g id="a_node9"><a xlink:href="../../d4/de4/_lines_as_strings_8cpp.html" target="_top" xlink:title="LinesAsStrings.cpp">
<polygon fill="none" stroke="#000000" points="465,-5 465,-22 550,-22 550,-5 465,-5"/>
<text text-anchor="middle" x="507.5" y="-11.6" font-family="Helvetica,sans-Serif" font-size="8.00" fill="#000000">LinesAsStrings.cpp</text>
</a>
</g>
</g>
<!-- Node85&#45;&gt;Node90 -->
<g id="edge8" class="edge">
<title>Node85&#45;&gt;Node90</title>
<path fill="none" stroke="#191970" d="M381.0476,-60.0249C411.7927,-48.7131 457.1383,-32.0293 484.3521,-22.0167"/>
<polygon fill="#191970" stroke="#191970" points="379.7964,-56.7559 371.62,-63.4936 382.2135,-63.3253 379.7964,-56.7559"/>
</g>
<!-- Node91 -->
<g id="node10" class="node">
<title>Node91</title>
<g id="a_node10"><a xlink:href="../../d9/d6e/_lines_as_strings_block_8cpp.html" target="_top" xlink:title="LinesAsStringsBlock.cpp">
<polygon fill="none" stroke="#000000" points="568,-5 568,-22 673,-22 673,-5 568,-5"/>
<text text-anchor="middle" x="620.5" y="-11.6" font-family="Helvetica,sans-Serif" font-size="8.00" fill="#000000">LinesAsStringsBlock.cpp</text>
</a>
</g>
</g>
<!-- Node85&#45;&gt;Node91 -->
<g id="edge9" class="edge">
<title>Node85&#45;&gt;Node91</title>
<path fill="none" stroke="#191970" d="M384.9509,-64.3148C427.0261,-55.4233 498.2973,-40.2986 559.5,-27 566.8134,-25.4109 574.616,-23.6977 582.1126,-22.0427"/>
<polygon fill="#191970" stroke="#191970" points="384.2216,-60.8916 375.1607,-66.3826 385.6682,-67.7405 384.2216,-60.8916"/>
</g>
</g>
</svg>
