<?xml version="1.0" encoding="UTF-8" standalone="no"?>
<!DOCTYPE svg PUBLIC "-//W3C//DTD SVG 1.1//EN"
 "http://www.w3.org/Graphics/SVG/1.1/DTD/svg11.dtd">
<!-- Generated by graphviz version 2.40.1 (20161225.0304)
 -->
<!-- Title: aTGC.h Pages: 1 -->
<svg width="161pt" height="134pt"
 viewBox="0.00 0.00 160.50 134.00" xmlns="http://www.w3.org/2000/svg" xmlns:xlink="http://www.w3.org/1999/xlink">
<g id="graph0" class="graph" transform="scale(1 1) rotate(0) translate(4 130)">
<title>aTGC.h</title>
<!-- Node51 -->
<g id="node1" class="node">
<title>Node51</title>
<polygon fill="#bfbfbf" stroke="#000000" points="46,-108.5 46,-125.5 91,-125.5 91,-108.5 46,-108.5"/>
<text text-anchor="middle" x="68.5" y="-115.1" font-family="Helvetica,sans-Serif" font-size="8.00" fill="#000000">aTGC.h</text>
</g>
<!-- Node52 -->
<g id="node2" class="node">
<title>Node52</title>
<g id="a_node2"><a xlink:href="../../dd/def/a_t_g_c_8cpp.html" target="_top" xlink:title="aTGC.cpp">
<polygon fill="none" stroke="#000000" points="0,-54.5 0,-71.5 53,-71.5 53,-54.5 0,-54.5"/>
<text text-anchor="middle" x="26.5" y="-61.1" font-family="Helvetica,sans-Serif" font-size="8.00" fill="#000000">aTGC.cpp</text>
</a>
</g>
</g>
<!-- Node51&#45;&gt;Node52 -->
<g id="edge1" class="edge">
<title>Node51&#45;&gt;Node52</title>
<path fill="none" stroke="#191970" d="M55.3898,-100.144C48.0722,-90.7357 39.2591,-79.4046 33.3064,-71.7511"/>
<polygon fill="#191970" stroke="#191970" points="52.6624,-102.3383 61.5646,-108.083 58.1878,-98.0406 52.6624,-102.3383"/>
</g>
<!-- Node53 -->
<g id="node3" class="node">
<title>Node53</title>
<g id="a_node3"><a xlink:href="../../dd/df3/_e_w_observables_8h.html" target="_top" xlink:title="A header file for the observables defined in EW module. ">
<polygon fill="none" stroke="#000000" points="71,-54.5 71,-71.5 152,-71.5 152,-54.5 71,-54.5"/>
<text text-anchor="middle" x="111.5" y="-61.1" font-family="Helvetica,sans-Serif" font-size="8.00" fill="#000000">EWObservables.h</text>
</a>
</g>
</g>
<!-- Node51&#45;&gt;Node53 -->
<g id="edge2" class="edge">
<title>Node51&#45;&gt;Node53</title>
<path fill="none" stroke="#191970" d="M81.9224,-100.144C89.4142,-90.7357 98.4371,-79.4046 104.5315,-71.7511"/>
<polygon fill="#191970" stroke="#191970" points="79.0919,-98.0799 75.6006,-108.083 84.5679,-102.4404 79.0919,-98.0799"/>
</g>
<!-- Node54 -->
<g id="node4" class="node">
<title>Node54</title>
<g id="a_node4"><a xlink:href="../../d1/de2/_th_obs_factory_8cpp.html" target="_top" xlink:title="ThObsFactory.cpp">
<polygon fill="none" stroke="#000000" points="70.5,-.5 70.5,-17.5 152.5,-17.5 152.5,-.5 70.5,-.5"/>
<text text-anchor="middle" x="111.5" y="-7.1" font-family="Helvetica,sans-Serif" font-size="8.00" fill="#000000">ThObsFactory.cpp</text>
</a>
</g>
</g>
<!-- Node53&#45;&gt;Node54 -->
<g id="edge3" class="edge">
<title>Node53&#45;&gt;Node54</title>
<path fill="none" stroke="#191970" d="M111.5,-43.8045C111.5,-34.9102 111.5,-24.7798 111.5,-17.7511"/>
<polygon fill="#191970" stroke="#191970" points="108.0001,-44.083 111.5,-54.083 115.0001,-44.083 108.0001,-44.083"/>
</g>
</g>
</svg>
