<?xml version="1.0" encoding="UTF-8" standalone="no"?>
<!DOCTYPE svg PUBLIC "-//W3C//DTD SVG 1.1//EN"
 "http://www.w3.org/Graphics/SVG/1.1/DTD/svg11.dtd">
<!-- Generated by graphviz version 2.40.1 (20161225.0304)
 -->
<!-- Title: BR_A_HZ_THDM Pages: 1 -->
<svg width="421pt" height="233pt"
 viewBox="0.00 0.00 420.50 233.00" xmlns="http://www.w3.org/2000/svg" xmlns:xlink="http://www.w3.org/1999/xlink">
<g id="graph0" class="graph" transform="scale(1 1) rotate(0) translate(4 229)">
<title>BR_A_HZ_THDM</title>
<!-- Node2 -->
<g id="node1" class="node">
<title>Node2</title>
<polygon fill="#bfbfbf" stroke="#000000" points="104.5,-.5 104.5,-17.5 184.5,-17.5 184.5,-.5 104.5,-.5"/>
<text text-anchor="middle" x="144.5" y="-7.1" font-family="Helvetica,sans-Serif" font-size="8.00" fill="#000000">BR_A_HZ_THDM</text>
</g>
<!-- Node3 -->
<g id="node2" class="node">
<title>Node3</title>
<g id="a_node2"><a xlink:href="../../dc/d1f/class_th_observable.html" target="_top" xlink:title="A class for a model prediction of an observable. ">
<polygon fill="none" stroke="#000000" points="144,-63.5 144,-80.5 211,-80.5 211,-63.5 144,-63.5"/>
<text text-anchor="middle" x="177.5" y="-70.1" font-family="Helvetica,sans-Serif" font-size="8.00" fill="#000000">ThObservable</text>
</a>
</g>
</g>
<!-- Node3&#45;&gt;Node2 -->
<g id="edge1" class="edge">
<title>Node3&#45;&gt;Node2</title>
<path fill="none" stroke="#191970" d="M177.2292,-53.0923C176.5383,-47.3611 175.1511,-41.2088 172.5,-36 168.8243,-28.778 162.4422,-22.394 156.6986,-17.6492"/>
<polygon fill="#191970" stroke="#191970" points="173.7455,-53.4674 177.8489,-63.2353 180.7325,-53.0405 173.7455,-53.4674"/>
</g>
<!-- Node4 -->
<g id="node3" class="node">
<title>Node4</title>
<g id="a_node3"><a xlink:href="../../dc/dd5/class_standard_model.html" target="_top" xlink:title="A model class for the Standard Model. ">
<polygon fill="none" stroke="#ff0000" points="212,-131 212,-148 283,-148 283,-131 212,-131"/>
<text text-anchor="middle" x="247.5" y="-137.6" font-family="Helvetica,sans-Serif" font-size="8.00" fill="#000000">StandardModel</text>
</a>
</g>
</g>
<!-- Node4&#45;&gt;Node3 -->
<g id="edge2" class="edge">
<title>Node4&#45;&gt;Node3</title>
<path fill="none" stroke="#9a32cd" stroke-dasharray="5,2" d="M231.1902,-123.7727C217.2749,-110.3544 197.782,-91.5576 186.5147,-80.6927"/>
<polygon fill="#9a32cd" stroke="#9a32cd" points="229.0065,-126.5292 238.6345,-130.9511 233.8655,-121.4902 229.0065,-126.5292"/>
<text text-anchor="middle" x="223" y="-101.6" font-family="Helvetica,sans-Serif" font-size="8.00" fill="#000000"> SM</text>
</g>
<!-- Node9 -->
<g id="node6" class="node">
<title>Node9</title>
<g id="a_node6"><a xlink:href="../../dc/df3/class_e_w_s_mcache.html" target="_top" xlink:title="A class for cache variables used in computing radiative corrections to the EW precision observables...">
<polygon fill="none" stroke="#ff0000" points="347,-63.5 347,-80.5 410,-80.5 410,-63.5 347,-63.5"/>
<text text-anchor="middle" x="378.5" y="-70.1" font-family="Helvetica,sans-Serif" font-size="8.00" fill="#000000">EWSMcache</text>
</a>
</g>
</g>
<!-- Node4&#45;&gt;Node9 -->
<g id="edge6" class="edge">
<title>Node4&#45;&gt;Node9</title>
<path fill="none" stroke="#9a32cd" stroke-dasharray="5,2" d="M273.0529,-126.3334C299.2251,-112.8477 339.1643,-92.2684 361.6297,-80.6927"/>
<polygon fill="#9a32cd" stroke="#9a32cd" points="271.3774,-123.2594 264.0912,-130.9511 274.5837,-129.4819 271.3774,-123.2594"/>
<text text-anchor="middle" x="332" y="-101.6" font-family="Helvetica,sans-Serif" font-size="8.00" fill="#000000"> SM</text>
</g>
<!-- Node47 -->
<g id="node8" class="node">
<title>Node47</title>
<g id="a_node8"><a xlink:href="../../d0/d52/class_t_h_d_m.html" target="_top" xlink:title="A base class for &#160;symmetric Two&#45;Higgs&#45;Doublet models. ">
<polygon fill="none" stroke="#000000" points="57.5,-63.5 57.5,-80.5 97.5,-80.5 97.5,-63.5 57.5,-63.5"/>
<text text-anchor="middle" x="77.5" y="-70.1" font-family="Helvetica,sans-Serif" font-size="8.00" fill="#000000">THDM</text>
</a>
</g>
</g>
<!-- Node4&#45;&gt;Node47 -->
<g id="edge10" class="edge">
<title>Node4&#45;&gt;Node47</title>
<path fill="none" stroke="#191970" d="M216.3548,-127.1335C181.7394,-113.3892 126.8626,-91.5999 97.5364,-79.9556"/>
<polygon fill="#191970" stroke="#191970" points="215.3836,-130.5136 225.9694,-130.9511 217.9668,-124.0077 215.3836,-130.5136"/>
</g>
<!-- Node5 -->
<g id="node4" class="node">
<title>Node5</title>
<g id="a_node4"><a xlink:href="../../dd/dfa/class_q_c_d.html" target="_top" xlink:title="A class for parameters related to QCD, hadrons and quarks. ">
<polygon fill="none" stroke="#ff0000" points="176.5,-203 176.5,-220 210.5,-220 210.5,-203 176.5,-203"/>
<text text-anchor="middle" x="193.5" y="-209.6" font-family="Helvetica,sans-Serif" font-size="8.00" fill="#000000">QCD</text>
</a>
</g>
</g>
<!-- Node5&#45;&gt;Node4 -->
<g id="edge3" class="edge">
<title>Node5&#45;&gt;Node4</title>
<path fill="none" stroke="#191970" d="M206.0517,-194.7643C217.0208,-180.139 232.4997,-159.5004 241.1018,-148.031"/>
<polygon fill="#191970" stroke="#191970" points="203.1066,-192.8579 199.9066,-202.9579 208.7066,-197.0579 203.1066,-192.8579"/>
</g>
<!-- Node8 -->
<g id="node5" class="node">
<title>Node8</title>
<g id="a_node5"><a xlink:href="../../db/d32/class_e_w_s_m_two_fermions_l_e_p2.html" target="_top" xlink:title="A class for the form factors , &#160;and &#160;in the processes &#160;at LEP&#45;II. ">
<polygon fill="none" stroke="#ff0000" points="207,-.5 207,-17.5 316,-17.5 316,-.5 207,-.5"/>
<text text-anchor="middle" x="261.5" y="-7.1" font-family="Helvetica,sans-Serif" font-size="8.00" fill="#000000">EWSMTwoFermionsLEP2</text>
</a>
</g>
</g>
<!-- Node8&#45;&gt;Node4 -->
<g id="edge4" class="edge">
<title>Node8&#45;&gt;Node4</title>
<path fill="none" stroke="#9a32cd" stroke-dasharray="5,2" d="M259.4902,-27.7343C256.4122,-56.426 250.6527,-110.1128 248.4186,-130.9375"/>
<polygon fill="#9a32cd" stroke="#9a32cd" points="262.9729,-28.0814 260.5597,-17.7651 256.0129,-27.3347 262.9729,-28.0814"/>
<text text-anchor="middle" x="297" y="-70.1" font-family="Helvetica,sans-Serif" font-size="8.00" fill="#000000"> myTwoFermionsLEP2</text>
</g>
<!-- Node9&#45;&gt;Node4 -->
<g id="edge7" class="edge">
<title>Node9&#45;&gt;Node4</title>
<path fill="none" stroke="#9a32cd" stroke-dasharray="5,2" d="M364.9541,-88.1117C358.4513,-95.0198 350.1901,-102.7016 341.5,-108 323.5717,-118.9309 301.3828,-126.5974 283.0659,-131.6282"/>
<polygon fill="#9a32cd" stroke="#9a32cd" points="367.6567,-90.3398 371.7003,-80.5469 362.4324,-85.6807 367.6567,-90.3398"/>
<text text-anchor="middle" x="382.5" y="-101.6" font-family="Helvetica,sans-Serif" font-size="8.00" fill="#000000"> myEWSMcache</text>
</g>
<!-- Node9&#45;&gt;Node8 -->
<g id="edge5" class="edge">
<title>Node9&#45;&gt;Node8</title>
<path fill="none" stroke="#9a32cd" stroke-dasharray="5,2" d="M353.399,-58.4841C330.4581,-46.1313 297.2125,-28.2298 277.6302,-17.6855"/>
<polygon fill="#9a32cd" stroke="#9a32cd" points="351.7676,-61.5807 362.2317,-63.2401 355.0863,-55.4174 351.7676,-61.5807"/>
<text text-anchor="middle" x="338.5" y="-38.6" font-family="Helvetica,sans-Serif" font-size="8.00" fill="#000000"> cache</text>
</g>
<!-- Node15 -->
<g id="node7" class="node">
<title>Node15</title>
<g id="a_node7"><a xlink:href="../../d5/d76/class_matching.html" target="_top" xlink:title="Matching\&lt; StandardModelMatching,\l StandardModel \&gt;">
<polygon fill="none" stroke="#ff0000" points="229,-198.5 229,-224.5 374,-224.5 374,-198.5 229,-198.5"/>
<text text-anchor="start" x="237" y="-214.1" font-family="Helvetica,sans-Serif" font-size="8.00" fill="#000000">Matching&lt; StandardModelMatching,</text>
<text text-anchor="middle" x="301.5" y="-205.1" font-family="Helvetica,sans-Serif" font-size="8.00" fill="#000000"> StandardModel &gt;</text>
</a>
</g>
</g>
<!-- Node15&#45;&gt;Node4 -->
<g id="edge8" class="edge">
<title>Node15&#45;&gt;Node4</title>
<path fill="none" stroke="#9a32cd" stroke-dasharray="5,2" d="M285.4508,-190.1011C274.9079,-176.0439 261.6829,-158.4105 253.9533,-148.1044"/>
<polygon fill="#9a32cd" stroke="#9a32cd" points="282.7955,-192.3941 291.5956,-198.2941 288.3955,-188.1941 282.7955,-192.3941"/>
<text text-anchor="middle" x="288" y="-173.6" font-family="Helvetica,sans-Serif" font-size="8.00" fill="#000000"> SMM</text>
</g>
<!-- Node47&#45;&gt;Node2 -->
<g id="edge9" class="edge">
<title>Node47&#45;&gt;Node2</title>
<path fill="none" stroke="#9a32cd" stroke-dasharray="5,2" d="M98.5407,-57.4166C103.6124,-53.5813 108.8931,-49.3063 113.5,-45 122.6586,-36.4389 131.87,-25.3527 137.8428,-17.7581"/>
<polygon fill="#9a32cd" stroke="#9a32cd" points="96.3757,-54.6636 90.3586,-63.384 100.5005,-60.3192 96.3757,-54.6636"/>
<text text-anchor="middle" x="140.5" y="-38.6" font-family="Helvetica,sans-Serif" font-size="8.00" fill="#000000"> myTHDM</text>
</g>
<!-- Node48 -->
<g id="node9" class="node">
<title>Node48</title>
<g id="a_node9"><a xlink:href="../../d5/df2/class_t_h_d_mcache.html" target="_top" xlink:title="A class for the caching of some THDM objects. ">
<polygon fill="none" stroke="#ff0000" points="0,-.5 0,-17.5 61,-17.5 61,-.5 0,-.5"/>
<text text-anchor="middle" x="30.5" y="-7.1" font-family="Helvetica,sans-Serif" font-size="8.00" fill="#000000">THDMcache</text>
</a>
</g>
</g>
<!-- Node47&#45;&gt;Node48 -->
<g id="edge12" class="edge">
<title>Node47&#45;&gt;Node48</title>
<path fill="none" stroke="#9a32cd" stroke-dasharray="5,2" d="M47.5298,-67.9044C33.5117,-64.3204 18.0542,-57.6003 9.5,-45 3.4038,-36.0203 11.6614,-25.2041 19.5449,-17.7864"/>
<polygon fill="#9a32cd" stroke="#9a32cd" points="46.8537,-71.3388 57.3635,-69.9991 48.3121,-64.4924 46.8537,-71.3388"/>
<text text-anchor="middle" x="27.5" y="-38.6" font-family="Helvetica,sans-Serif" font-size="8.00" fill="#000000"> myTHDM</text>
</g>
<!-- Node48&#45;&gt;Node47 -->
<g id="edge11" class="edge">
<title>Node48&#45;&gt;Node47</title>
<path fill="none" stroke="#9a32cd" stroke-dasharray="5,2" d="M42.1335,-26.3245C46.2578,-32.3112 50.9947,-39.016 55.5,-45 60.1552,-51.1831 65.6552,-57.9331 69.9914,-63.1373"/>
<polygon fill="#9a32cd" stroke="#9a32cd" points="44.7959,-24.0156 36.278,-17.7151 39.0077,-27.9522 44.7959,-24.0156"/>
<text text-anchor="middle" x="84.5" y="-38.6" font-family="Helvetica,sans-Serif" font-size="8.00" fill="#000000"> myTHDMcache</text>
</g>
<!-- Node58 -->
<g id="node10" class="node">
<title>Node58</title>
<g id="a_node10"><a xlink:href="../../d5/d76/class_matching.html" target="_top" xlink:title="Matching\&lt; THDMMatching,\l THDM \&gt;">
<polygon fill="none" stroke="#ff0000" points="20.5,-126.5 20.5,-152.5 134.5,-152.5 134.5,-126.5 20.5,-126.5"/>
<text text-anchor="start" x="28.5" y="-142.1" font-family="Helvetica,sans-Serif" font-size="8.00" fill="#000000">Matching&lt; THDMMatching,</text>
<text text-anchor="middle" x="77.5" y="-133.1" font-family="Helvetica,sans-Serif" font-size="8.00" fill="#000000"> THDM &gt;</text>
</a>
</g>
</g>
<!-- Node58&#45;&gt;Node47 -->
<g id="edge13" class="edge">
<title>Node58&#45;&gt;Node47</title>
<path fill="none" stroke="#9a32cd" stroke-dasharray="5,2" d="M77.5,-116.3987C77.5,-104.0883 77.5,-89.6721 77.5,-80.6863"/>
<polygon fill="#9a32cd" stroke="#9a32cd" points="74.0001,-116.4853 77.5,-126.4853 81.0001,-116.4854 74.0001,-116.4853"/>
<text text-anchor="middle" x="93.5" y="-101.6" font-family="Helvetica,sans-Serif" font-size="8.00" fill="#000000"> THDMM</text>
</g>
</g>
</svg>
