<?xml version="1.0" encoding="UTF-8" standalone="no"?>
<!DOCTYPE svg PUBLIC "-//W3C//DTD SVG 1.1//EN"
 "http://www.w3.org/Graphics/SVG/1.1/DTD/svg11.dtd">
<!-- Generated by graphviz version 2.40.1 (20161225.0304)
 -->
<!-- Title: EWSMcache.cpp Pages: 1 -->
<svg width="440pt" height="188pt"
 viewBox="0.00 0.00 439.50 188.00" xmlns="http://www.w3.org/2000/svg" xmlns:xlink="http://www.w3.org/1999/xlink">
<g id="graph0" class="graph" transform="scale(1 1) rotate(0) translate(4 184)">
<title>EWSMcache.cpp</title>
<!-- Node0 -->
<g id="node1" class="node">
<title>Node0</title>
<polygon fill="#bfbfbf" stroke="#000000" points="138.5,-162.5 138.5,-179.5 216.5,-179.5 216.5,-162.5 138.5,-162.5"/>
<text text-anchor="middle" x="177.5" y="-169.1" font-family="Helvetica,sans-Serif" font-size="8.00" fill="#000000">EWSMcache.cpp</text>
</g>
<!-- Node1 -->
<g id="node2" class="node">
<title>Node1</title>
<polygon fill="none" stroke="#bfbfbf" points="0,-108.5 0,-125.5 39,-125.5 39,-108.5 0,-108.5"/>
<text text-anchor="middle" x="19.5" y="-115.1" font-family="Helvetica,sans-Serif" font-size="8.00" fill="#000000">cstdlib</text>
</g>
<!-- Node0&#45;&gt;Node1 -->
<g id="edge1" class="edge">
<title>Node0&#45;&gt;Node1</title>
<path fill="none" stroke="#191970" d="M152.4644,-162.4435C124.4429,-152.8665 79.0699,-137.3593 49.2578,-127.1704"/>
<polygon fill="#191970" stroke="#191970" points="50.0103,-123.7289 39.4158,-123.8067 47.7464,-130.3527 50.0103,-123.7289"/>
</g>
<!-- Node2 -->
<g id="node3" class="node">
<title>Node2</title>
<polygon fill="none" stroke="#bfbfbf" points="57,-108.5 57,-125.5 104,-125.5 104,-108.5 57,-108.5"/>
<text text-anchor="middle" x="80.5" y="-115.1" font-family="Helvetica,sans-Serif" font-size="8.00" fill="#000000">iostream</text>
</g>
<!-- Node0&#45;&gt;Node2 -->
<g id="edge2" class="edge">
<title>Node0&#45;&gt;Node2</title>
<path fill="none" stroke="#191970" d="M161.9153,-162.324C146.5009,-153.7428 122.6878,-140.486 104.7903,-130.5224"/>
<polygon fill="#191970" stroke="#191970" points="106.4858,-127.4606 96.0461,-125.6545 103.0809,-133.5767 106.4858,-127.4606"/>
</g>
<!-- Node3 -->
<g id="node4" class="node">
<title>Node3</title>
<polygon fill="none" stroke="#bfbfbf" points="122,-108.5 122,-125.5 167,-125.5 167,-108.5 122,-108.5"/>
<text text-anchor="middle" x="144.5" y="-115.1" font-family="Helvetica,sans-Serif" font-size="8.00" fill="#000000">iomanip</text>
</g>
<!-- Node0&#45;&gt;Node3 -->
<g id="edge3" class="edge">
<title>Node0&#45;&gt;Node3</title>
<path fill="none" stroke="#191970" d="M172.0507,-162.083C167.4855,-154.6127 160.8316,-143.7244 155.2066,-134.5199"/>
<polygon fill="#191970" stroke="#191970" points="158.0489,-132.4588 149.8479,-125.7511 152.0759,-136.109 158.0489,-132.4588"/>
</g>
<!-- Node4 -->
<g id="node5" class="node">
<title>Node4</title>
<polygon fill="none" stroke="#bfbfbf" points="185,-108.5 185,-125.5 236,-125.5 236,-108.5 185,-108.5"/>
<text text-anchor="middle" x="210.5" y="-115.1" font-family="Helvetica,sans-Serif" font-size="8.00" fill="#000000">stdexcept</text>
</g>
<!-- Node0&#45;&gt;Node4 -->
<g id="edge4" class="edge">
<title>Node0&#45;&gt;Node4</title>
<path fill="none" stroke="#191970" d="M182.9493,-162.083C187.5145,-154.6127 194.1684,-143.7244 199.7934,-134.5199"/>
<polygon fill="#191970" stroke="#191970" points="202.9241,-136.109 205.1521,-125.7511 196.9511,-132.4588 202.9241,-136.109"/>
</g>
<!-- Node5 -->
<g id="node6" class="node">
<title>Node5</title>
<polygon fill="none" stroke="#bfbfbf" points="254,-108.5 254,-125.5 311,-125.5 311,-108.5 254,-108.5"/>
<text text-anchor="middle" x="282.5" y="-115.1" font-family="Helvetica,sans-Serif" font-size="8.00" fill="#000000">gsl/gsl_sf.h</text>
</g>
<!-- Node0&#45;&gt;Node5 -->
<g id="edge5" class="edge">
<title>Node0&#45;&gt;Node5</title>
<path fill="none" stroke="#191970" d="M194.3701,-162.324C211.2088,-153.6641 237.3065,-140.2424 256.738,-130.249"/>
<polygon fill="#191970" stroke="#191970" points="258.3796,-133.3405 265.6718,-125.6545 255.1782,-127.1155 258.3796,-133.3405"/>
</g>
<!-- Node6 -->
<g id="node7" class="node">
<title>Node6</title>
<g id="a_node7"><a xlink:href="../../d8/d46/_e_w_s_mcache_8h.html" target="_top" xlink:title="EWSMcache.h">
<polygon fill="none" stroke="#ff0000" points="329,-108.5 329,-125.5 398,-125.5 398,-108.5 329,-108.5"/>
<text text-anchor="middle" x="363.5" y="-115.1" font-family="Helvetica,sans-Serif" font-size="8.00" fill="#000000">EWSMcache.h</text>
</a>
</g>
</g>
<!-- Node0&#45;&gt;Node6 -->
<g id="edge6" class="edge">
<title>Node0&#45;&gt;Node6</title>
<path fill="none" stroke="#191970" d="M206.9723,-162.4435C238.6712,-153.2406 289.232,-138.5617 324.2749,-128.3879"/>
<polygon fill="#191970" stroke="#191970" points="325.538,-131.6658 334.1656,-125.5164 323.5863,-124.9434 325.538,-131.6658"/>
</g>
<!-- Node7 -->
<g id="node8" class="node">
<title>Node7</title>
<polygon fill="none" stroke="#bfbfbf" points="274.5,-54.5 274.5,-71.5 312.5,-71.5 312.5,-54.5 274.5,-54.5"/>
<text text-anchor="middle" x="293.5" y="-61.1" font-family="Helvetica,sans-Serif" font-size="8.00" fill="#000000">cmath</text>
</g>
<!-- Node6&#45;&gt;Node7 -->
<g id="edge7" class="edge">
<title>Node6&#45;&gt;Node7</title>
<path fill="none" stroke="#191970" d="M352.2533,-108.324C341.7026,-100.1849 325.6993,-87.8395 313.0578,-78.0874"/>
<polygon fill="#191970" stroke="#191970" points="315.007,-75.1707 304.9513,-71.8339 310.7314,-80.7132 315.007,-75.1707"/>
</g>
<!-- Node8 -->
<g id="node9" class="node">
<title>Node8</title>
<g id="a_node9"><a xlink:href="../../d3/d6b/_p_vfunctions_8h.html" target="_top" xlink:title="PVfunctions.h">
<polygon fill="none" stroke="#ff0000" points="330.5,-54.5 330.5,-71.5 396.5,-71.5 396.5,-54.5 330.5,-54.5"/>
<text text-anchor="middle" x="363.5" y="-61.1" font-family="Helvetica,sans-Serif" font-size="8.00" fill="#000000">PVfunctions.h</text>
</a>
</g>
</g>
<!-- Node6&#45;&gt;Node8 -->
<g id="edge8" class="edge">
<title>Node6&#45;&gt;Node8</title>
<path fill="none" stroke="#191970" d="M363.5,-108.083C363.5,-101.0059 363.5,-90.8611 363.5,-81.9865"/>
<polygon fill="#191970" stroke="#191970" points="367.0001,-81.751 363.5,-71.7511 360.0001,-81.7511 367.0001,-81.751"/>
</g>
<!-- Node24 -->
<g id="node10" class="node">
<title>Node24</title>
<g id="a_node10"><a xlink:href="../../dd/dc1/_polylogarithms_8h.html" target="_top" xlink:title="Polylogarithms.h">
<polygon fill="none" stroke="#ff0000" points="355.5,-.5 355.5,-17.5 431.5,-17.5 431.5,-.5 355.5,-.5"/>
<text text-anchor="middle" x="393.5" y="-7.1" font-family="Helvetica,sans-Serif" font-size="8.00" fill="#000000">Polylogarithms.h</text>
</a>
</g>
</g>
<!-- Node6&#45;&gt;Node24 -->
<g id="edge10" class="edge">
<title>Node6&#45;&gt;Node24</title>
<path fill="none" stroke="#191970" d="M375.7137,-108.2362C385.8536,-100.1428 399.5434,-87.1121 405.5,-72 411.1778,-57.5952 407.1462,-40.2501 402.2782,-27.4097"/>
<polygon fill="#191970" stroke="#191970" points="405.3384,-25.6641 398.1873,-17.8467 398.9025,-28.4173 405.3384,-25.6641"/>
</g>
<!-- Node8&#45;&gt;Node24 -->
<g id="edge9" class="edge">
<title>Node8&#45;&gt;Node24</title>
<path fill="none" stroke="#191970" d="M368.4539,-54.083C372.6041,-46.6127 378.6531,-35.7244 383.7667,-26.5199"/>
<polygon fill="#191970" stroke="#191970" points="386.8414,-28.1924 388.6383,-17.7511 380.7223,-24.7929 386.8414,-28.1924"/>
</g>
</g>
</svg>
