<?xml version="1.0" encoding="UTF-8" standalone="no"?>
<!DOCTYPE svg PUBLIC "-//W3C//DTD SVG 1.1//EN"
 "http://www.w3.org/Graphics/SVG/1.1/DTD/svg11.dtd">
<!-- Generated by graphviz version 2.40.1 (20161225.0304)
 -->
<!-- Title: BParameter.h Pages: 1 -->
<svg width="454pt" height="188pt"
 viewBox="0.00 0.00 453.51 188.00" xmlns="http://www.w3.org/2000/svg" xmlns:xlink="http://www.w3.org/1999/xlink">
<g id="graph0" class="graph" transform="scale(1 1) rotate(0) translate(4 184)">
<title>BParameter.h</title>
<!-- Node0 -->
<g id="node1" class="node">
<title>Node0</title>
<polygon fill="#bfbfbf" stroke="#000000" points="239.0116,-162.5 239.0116,-179.5 305.0116,-179.5 305.0116,-162.5 239.0116,-162.5"/>
<text text-anchor="middle" x="272.0116" y="-169.1" font-family="Helvetica,sans-Serif" font-size="8.00" fill="#000000">BParameter.h</text>
</g>
<!-- Node1 -->
<g id="node2" class="node">
<title>Node1</title>
<g id="a_node2"><a xlink:href="../../da/d8e/gslpp__vector__double_8h.html" target="_top" xlink:title="gslpp_vector_double.h">
<polygon fill="none" stroke="#000000" points="68.5116,-108.5 68.5116,-125.5 165.5116,-125.5 165.5116,-108.5 68.5116,-108.5"/>
<text text-anchor="middle" x="117.0116" y="-115.1" font-family="Helvetica,sans-Serif" font-size="8.00" fill="#000000">gslpp_vector_double.h</text>
</a>
</g>
</g>
<!-- Node0&#45;&gt;Node1 -->
<g id="edge1" class="edge">
<title>Node0&#45;&gt;Node1</title>
<path fill="none" stroke="#191970" d="M247.4514,-162.4435C221.4891,-153.3986 180.3436,-139.064 151.2145,-128.9158"/>
<polygon fill="#191970" stroke="#191970" points="152.0518,-125.5013 141.4569,-125.5164 149.7488,-132.1116 152.0518,-125.5013"/>
</g>
<!-- Node8 -->
<g id="node7" class="node">
<title>Node8</title>
<polygon fill="none" stroke="#bfbfbf" points="184.0116,-108.5 184.0116,-125.5 222.0116,-125.5 222.0116,-108.5 184.0116,-108.5"/>
<text text-anchor="middle" x="203.0116" y="-115.1" font-family="Helvetica,sans-Serif" font-size="8.00" fill="#000000">vector</text>
</g>
<!-- Node0&#45;&gt;Node8 -->
<g id="edge7" class="edge">
<title>Node0&#45;&gt;Node8</title>
<path fill="none" stroke="#191970" d="M260.9256,-162.324C250.5256,-154.1849 234.751,-141.8395 222.29,-132.0874"/>
<polygon fill="#191970" stroke="#191970" points="224.3315,-129.2407 214.2994,-125.8339 220.0174,-134.7533 224.3315,-129.2407"/>
</g>
<!-- Node9 -->
<g id="node8" class="node">
<title>Node9</title>
<polygon fill="none" stroke="#bfbfbf" points="240.5116,-108.5 240.5116,-125.5 303.5116,-125.5 303.5116,-108.5 240.5116,-108.5"/>
<text text-anchor="middle" x="272.0116" y="-115.1" font-family="Helvetica,sans-Serif" font-size="8.00" fill="#000000">boost/ref.hpp</text>
</g>
<!-- Node0&#45;&gt;Node9 -->
<g id="edge8" class="edge">
<title>Node0&#45;&gt;Node9</title>
<path fill="none" stroke="#191970" d="M272.0116,-162.083C272.0116,-155.0059 272.0116,-144.8611 272.0116,-135.9865"/>
<polygon fill="#191970" stroke="#191970" points="275.5117,-135.751 272.0116,-125.7511 268.5117,-135.7511 275.5117,-135.751"/>
</g>
<!-- Node10 -->
<g id="node9" class="node">
<title>Node10</title>
<polygon fill="none" stroke="#bfbfbf" points="322.0116,-108.5 322.0116,-125.5 354.0116,-125.5 354.0116,-108.5 322.0116,-108.5"/>
<text text-anchor="middle" x="338.0116" y="-115.1" font-family="Helvetica,sans-Serif" font-size="8.00" fill="#000000">map</text>
</g>
<!-- Node0&#45;&gt;Node10 -->
<g id="edge9" class="edge">
<title>Node0&#45;&gt;Node10</title>
<path fill="none" stroke="#191970" d="M282.6157,-162.324C292.4678,-154.2631 307.3626,-142.0765 319.2267,-132.3695"/>
<polygon fill="#191970" stroke="#191970" points="321.6914,-134.8752 327.2146,-125.8339 317.2587,-129.4575 321.6914,-134.8752"/>
</g>
<!-- Node11 -->
<g id="node10" class="node">
<title>Node11</title>
<g id="a_node10"><a xlink:href="../../d4/d36/_order_scheme_8h.html" target="_top" xlink:title="OrderScheme.h">
<polygon fill="none" stroke="#000000" points="372.5116,-108.5 372.5116,-125.5 445.5116,-125.5 445.5116,-108.5 372.5116,-108.5"/>
<text text-anchor="middle" x="409.0116" y="-115.1" font-family="Helvetica,sans-Serif" font-size="8.00" fill="#000000">OrderScheme.h</text>
</a>
</g>
</g>
<!-- Node0&#45;&gt;Node11 -->
<g id="edge10" class="edge">
<title>Node0&#45;&gt;Node11</title>
<path fill="none" stroke="#191970" d="M293.7197,-162.4435C316.3664,-153.5171 352.0838,-139.4387 377.7634,-129.3168"/>
<polygon fill="#191970" stroke="#191970" points="379.3852,-132.4397 387.4051,-125.5164 376.8183,-125.9273 379.3852,-132.4397"/>
</g>
<!-- Node2 -->
<g id="node3" class="node">
<title>Node2</title>
<polygon fill="none" stroke="#bfbfbf" points="54.5116,-.5 54.5116,-17.5 101.5116,-17.5 101.5116,-.5 54.5116,-.5"/>
<text text-anchor="middle" x="78.0116" y="-7.1" font-family="Helvetica,sans-Serif" font-size="8.00" fill="#000000">iostream</text>
</g>
<!-- Node1&#45;&gt;Node2 -->
<g id="edge2" class="edge">
<title>Node1&#45;&gt;Node2</title>
<path fill="none" stroke="#191970" d="M68.4268,-110.4447C44.8123,-104.5411 18.4708,-93.3217 4.0116,-72 -10.495,-50.6084 18.8567,-32.2595 44.7724,-20.9714"/>
<polygon fill="#191970" stroke="#191970" points="46.1634,-24.1838 54.0773,-17.1396 43.4979,-17.7112 46.1634,-24.1838"/>
</g>
<!-- Node3 -->
<g id="node4" class="node">
<title>Node3</title>
<polygon fill="none" stroke="#bfbfbf" points="13.5116,-54.5 13.5116,-71.5 114.5116,-71.5 114.5116,-54.5 13.5116,-54.5"/>
<text text-anchor="middle" x="64.0116" y="-61.1" font-family="Helvetica,sans-Serif" font-size="8.00" fill="#000000">gsl/gsl_vector_double.h</text>
</g>
<!-- Node1&#45;&gt;Node3 -->
<g id="edge3" class="edge">
<title>Node1&#45;&gt;Node3</title>
<path fill="none" stroke="#191970" d="M108.2598,-108.083C100.5419,-100.2195 89.107,-88.5688 79.7951,-79.0813"/>
<polygon fill="#191970" stroke="#191970" points="82.1033,-76.4363 72.6006,-71.7511 77.1074,-81.3396 82.1033,-76.4363"/>
</g>
<!-- Node4 -->
<g id="node5" class="node">
<title>Node4</title>
<g id="a_node5"><a xlink:href="../../d1/dc2/gslpp__complex_8h.html" target="_top" xlink:title="gslpp_complex.h">
<polygon fill="none" stroke="#ff0000" points="132.5116,-54.5 132.5116,-71.5 209.5116,-71.5 209.5116,-54.5 132.5116,-54.5"/>
<text text-anchor="middle" x="171.0116" y="-61.1" font-family="Helvetica,sans-Serif" font-size="8.00" fill="#000000">gslpp_complex.h</text>
</a>
</g>
</g>
<!-- Node1&#45;&gt;Node4 -->
<g id="edge4" class="edge">
<title>Node1&#45;&gt;Node4</title>
<path fill="none" stroke="#191970" d="M125.9286,-108.083C133.7921,-100.2195 145.4428,-88.5688 154.9304,-79.0813"/>
<polygon fill="#191970" stroke="#191970" points="157.6643,-81.2971 162.2606,-71.7511 152.7146,-76.3473 157.6643,-81.2971"/>
</g>
<!-- Node7 -->
<g id="node6" class="node">
<title>Node7</title>
<g id="a_node6"><a xlink:href="../../d3/d9f/gslpp__vector__base_8h.html" target="_top" xlink:title="gslpp_vector_base.h">
<polygon fill="none" stroke="#000000" points="228.0116,-54.5 228.0116,-71.5 318.0116,-71.5 318.0116,-54.5 228.0116,-54.5"/>
<text text-anchor="middle" x="273.0116" y="-61.1" font-family="Helvetica,sans-Serif" font-size="8.00" fill="#000000">gslpp_vector_base.h</text>
</a>
</g>
</g>
<!-- Node1&#45;&gt;Node7 -->
<g id="edge6" class="edge">
<title>Node1&#45;&gt;Node7</title>
<path fill="none" stroke="#191970" d="M141.7303,-108.4435C167.8601,-99.3986 209.271,-85.064 238.5881,-74.9158"/>
<polygon fill="#191970" stroke="#191970" points="240.1037,-78.0951 248.4086,-71.5164 237.8138,-71.4801 240.1037,-78.0951"/>
</g>
<!-- Node4&#45;&gt;Node2 -->
<g id="edge5" class="edge">
<title>Node4&#45;&gt;Node2</title>
<path fill="none" stroke="#191970" d="M156.0696,-54.324C141.4264,-45.8215 118.878,-32.7288 101.7739,-22.7975"/>
<polygon fill="#191970" stroke="#191970" points="103.322,-19.6491 92.9166,-17.6545 99.807,-25.7027 103.322,-19.6491"/>
</g>
</g>
</svg>
