<?xml version="1.0" encoding="UTF-8" standalone="no"?>
<!DOCTYPE svg PUBLIC "-//W3C//DTD SVG 1.1//EN"
 "http://www.w3.org/Graphics/SVG/1.1/DTD/svg11.dtd">
<!-- Generated by graphviz version 2.38.0 (20140413.2041)
 -->
<!-- Title: NPbase Pages: 1 -->
<svg width="628pt" height="225pt"
 viewBox="0.00 0.00 628.00 225.10" xmlns="http://www.w3.org/2000/svg" xmlns:xlink="http://www.w3.org/1999/xlink">
<g id="graph0" class="graph" transform="scale(1 1) rotate(0) translate(4 221.095)">
<title>NPbase</title>
<!-- Node1 -->
<g id="node1" class="node"><title>Node1</title>
<polygon fill="#bfbfbf" stroke="black" points="355,-194.395 355,-211.395 400,-211.395 400,-194.395 355,-194.395"/>
<text text-anchor="middle" x="377.5" y="-200.995" font-family="Helvetica,sans-Serif" font-size="8.00">NPbase</text>
</g>
<!-- Node2 -->
<g id="node2" class="node"><title>Node2</title>
<g id="a_node2"><a xlink:href="../../dc/dd5/class_standard_model.html" target="_top" xlink:title="A model class for the Standard Model. ">
<polygon fill="none" stroke="red" points="119,-108.395 119,-125.395 190,-125.395 190,-108.395 119,-108.395"/>
<text text-anchor="middle" x="154.5" y="-114.995" font-family="Helvetica,sans-Serif" font-size="8.00">StandardModel</text>
</a>
</g>
</g>
<!-- Node2&#45;&gt;Node1 -->
<g id="edge1" class="edge"><title>Node2&#45;&gt;Node1</title>
<path fill="none" stroke="midnightblue" d="M161.127,-134.958C168.404,-154.874 183.183,-185.938 208,-199.895 254.796,-226.212 321.08,-216.343 354.871,-208.642"/>
<polygon fill="midnightblue" stroke="midnightblue" points="164.435,-133.816 157.915,-125.465 157.804,-136.059 164.435,-133.816"/>
</g>
<!-- Node2&#45;&gt;Node1 -->
<g id="edge14" class="edge"><title>Node2&#45;&gt;Node1</title>
<path fill="none" stroke="#9a32cd" stroke-dasharray="5,2" d="M168.338,-133.622C178.006,-145.034 192.257,-159.541 208,-167.895 220.899,-174.74 312.365,-191.542 354.877,-199.101"/>
<polygon fill="#9a32cd" stroke="#9a32cd" points="170.9,-131.224 161.889,-125.652 165.459,-135.628 170.9,-131.224"/>
<text text-anchor="middle" x="258" y="-191.495" font-family="Helvetica,sans-Serif" font-size="8.00"> trueSM</text>
</g>
<!-- Node4 -->
<g id="node4" class="node"><title>Node4</title>
<g id="a_node4"><a xlink:href="../../dc/df3/class_e_w_s_mcache.html" target="_top" xlink:title="A class for cache variables used in computing radiative corrections to the EW precision observables...">
<polygon fill="none" stroke="red" points="346,-49.395 346,-66.395 409,-66.395 409,-49.395 346,-49.395"/>
<text text-anchor="middle" x="377.5" y="-55.995" font-family="Helvetica,sans-Serif" font-size="8.00">EWSMcache</text>
</a>
</g>
</g>
<!-- Node2&#45;&gt;Node4 -->
<g id="edge4" class="edge"><title>Node2&#45;&gt;Node4</title>
<path fill="none" stroke="#9a32cd" stroke-dasharray="5,2" d="M163.567,-99.2477C172.054,-83.0498 187.094,-60.073 208,-49.895 254.212,-27.3967 316.254,-39.5055 350.703,-49.3454"/>
<polygon fill="#9a32cd" stroke="#9a32cd" points="160.397,-97.7626 159.135,-108.282 166.682,-100.845 160.397,-97.7626"/>
<text text-anchor="middle" x="258" y="-52.495" font-family="Helvetica,sans-Serif" font-size="8.00"> SM</text>
</g>
<!-- Node10 -->
<g id="node10" class="node"><title>Node10</title>
<g id="a_node10"><a xlink:href="../../d6/d2e/class_standard_model_matching.html" target="_top" xlink:title="A class for the matching in the Standard Model. ">
<polygon fill="none" stroke="red" points="326,-97.395 326,-114.395 429,-114.395 429,-97.395 326,-97.395"/>
<text text-anchor="middle" x="377.5" y="-103.995" font-family="Helvetica,sans-Serif" font-size="8.00">StandardModelMatching</text>
</a>
</g>
</g>
<!-- Node2&#45;&gt;Node10 -->
<g id="edge13" class="edge"><title>Node2&#45;&gt;Node10</title>
<path fill="none" stroke="#9a32cd" stroke-dasharray="5,2" d="M189.822,-105.616C195.82,-104.07 202.046,-102.729 208,-101.895 247.266,-96.3956 292.172,-97.8384 325.746,-100.415"/>
<polygon fill="#9a32cd" stroke="#9a32cd" points="188.717,-102.291 180.032,-108.359 190.605,-109.032 188.717,-102.291"/>
<text text-anchor="middle" x="258" y="-104.495" font-family="Helvetica,sans-Serif" font-size="8.00"> SM</text>
</g>
<!-- Node3 -->
<g id="node3" class="node"><title>Node3</title>
<g id="a_node3"><a xlink:href="../../dd/dfa/class_q_c_d.html" target="_top" xlink:title="A class for parameters related to QCD, hadrons and quarks. ">
<polygon fill="none" stroke="red" points="4.5,-162.395 4.5,-179.395 38.5,-179.395 38.5,-162.395 4.5,-162.395"/>
<text text-anchor="middle" x="21.5" y="-168.995" font-family="Helvetica,sans-Serif" font-size="8.00">QCD</text>
</a>
</g>
</g>
<!-- Node3&#45;&gt;Node2 -->
<g id="edge2" class="edge"><title>Node3&#45;&gt;Node2</title>
<path fill="none" stroke="midnightblue" d="M48.4729,-161.967C63.8757,-156.507 83.7061,-149.189 101,-141.895 113.092,-136.795 126.442,-130.428 136.653,-125.395"/>
<polygon fill="midnightblue" stroke="midnightblue" points="46.8817,-158.815 38.6024,-165.426 49.1973,-165.421 46.8817,-158.815"/>
</g>
<!-- Node4&#45;&gt;Node2 -->
<g id="edge3" class="edge"><title>Node4&#45;&gt;Node2</title>
<path fill="none" stroke="#9a32cd" stroke-dasharray="5,2" d="M335.508,-60.0188C300.676,-62.859 249.819,-69.4808 208,-84.895 192.776,-90.5063 177.122,-100.735 166.916,-108.121"/>
<polygon fill="#9a32cd" stroke="#9a32cd" points="336.064,-63.4872 345.776,-59.2533 335.543,-56.5066 336.064,-63.4872"/>
<text text-anchor="middle" x="258" y="-87.495" font-family="Helvetica,sans-Serif" font-size="8.00"> myEWSMcache</text>
</g>
<!-- Node6 -->
<g id="node6" class="node"><title>Node6</title>
<g id="a_node6"><a xlink:href="../../d5/dad/class_e_w_s_m_three_loop_e_w.html" target="_top" xlink:title="A class for &#160;three&#45;loop corrections to the EW precision observables. ">
<polygon fill="none" stroke="black" points="513.5,-83.395 513.5,-100.395 606.5,-100.395 606.5,-83.395 513.5,-83.395"/>
<text text-anchor="middle" x="560" y="-89.995" font-family="Helvetica,sans-Serif" font-size="8.00">EWSMThreeLoopEW</text>
</a>
</g>
</g>
<!-- Node4&#45;&gt;Node6 -->
<g id="edge7" class="edge"><title>Node4&#45;&gt;Node6</title>
<path fill="none" stroke="#9a32cd" stroke-dasharray="5,2" d="M419.014,-65.5265C447.107,-70.8183 484.551,-77.8714 513.643,-83.3514"/>
<polygon fill="#9a32cd" stroke="#9a32cd" points="419.594,-62.0743 409.119,-63.6627 418.299,-68.9534 419.594,-62.0743"/>
<text text-anchor="middle" x="464.5" y="-79.495" font-family="Helvetica,sans-Serif" font-size="8.00"> cache</text>
</g>
<!-- Node8 -->
<g id="node8" class="node"><title>Node8</title>
<g id="a_node8"><a xlink:href="../../d5/dde/class_e_w_s_m_approximate_formulae.html" target="_top" xlink:title="A class for approximate formulae of the EW precision observables. ">
<polygon fill="none" stroke="black" points="500,-27.395 500,-44.395 620,-44.395 620,-27.395 500,-27.395"/>
<text text-anchor="middle" x="560" y="-33.995" font-family="Helvetica,sans-Serif" font-size="8.00">EWSMApproximateFormulae</text>
</a>
</g>
</g>
<!-- Node4&#45;&gt;Node8 -->
<g id="edge10" class="edge"><title>Node4&#45;&gt;Node8</title>
<path fill="none" stroke="#9a32cd" stroke-dasharray="5,2" d="M419.193,-52.9352C442.944,-50.0404 473.332,-46.3366 499.706,-43.122"/>
<polygon fill="#9a32cd" stroke="#9a32cd" points="418.622,-49.4788 409.119,-54.163 419.469,-56.4274 418.622,-49.4788"/>
<text text-anchor="middle" x="464.5" y="-52.495" font-family="Helvetica,sans-Serif" font-size="8.00"> mycache</text>
</g>
<!-- Node5 -->
<g id="node5" class="node"><title>Node5</title>
<g id="a_node5"><a xlink:href="../../d9/db9/class_c_k_m.html" target="_top" xlink:title="A class for the CKM matrix elements. ">
<polygon fill="none" stroke="red" points="4.5,-126.395 4.5,-143.395 38.5,-143.395 38.5,-126.395 4.5,-126.395"/>
<text text-anchor="middle" x="21.5" y="-132.995" font-family="Helvetica,sans-Serif" font-size="8.00">CKM</text>
</a>
</g>
</g>
<!-- Node5&#45;&gt;Node2 -->
<g id="edge5" class="edge"><title>Node5&#45;&gt;Node2</title>
<path fill="none" stroke="#9a32cd" stroke-dasharray="5,2" d="M48.5802,-131.312C68.734,-128.542 96.8161,-124.684 118.856,-121.655"/>
<polygon fill="#9a32cd" stroke="#9a32cd" points="47.9936,-127.859 38.5632,-132.688 48.9466,-134.794 47.9936,-127.859"/>
<text text-anchor="middle" x="81" y="-131.495" font-family="Helvetica,sans-Serif" font-size="8.00"> myCKM</text>
</g>
<!-- Node6&#45;&gt;Node2 -->
<g id="edge6" class="edge"><title>Node6&#45;&gt;Node2</title>
<path fill="none" stroke="#9a32cd" stroke-dasharray="5,2" d="M521.696,-103.272C495.924,-110.588 460.709,-119.517 429,-123.895 331.685,-137.331 305.715,-138.022 208,-127.895 202.164,-127.29 196.021,-126.317 190.076,-125.193"/>
<polygon fill="#9a32cd" stroke="#9a32cd" points="522.795,-106.598 531.43,-100.459 520.851,-99.8734 522.795,-106.598"/>
<text text-anchor="middle" x="377.5" y="-136.495" font-family="Helvetica,sans-Serif" font-size="8.00"> myThreeLoopEW</text>
</g>
<!-- Node7 -->
<g id="node7" class="node"><title>Node7</title>
<g id="a_node7"><a xlink:href="../../d4/d6d/class_flavour.html" target="_top" xlink:title="The parent class in Flavour for calculating all the Wilson coefficients for various Flavor Violating ...">
<polygon fill="none" stroke="red" points="0,-90.395 0,-107.395 43,-107.395 43,-90.395 0,-90.395"/>
<text text-anchor="middle" x="21.5" y="-96.995" font-family="Helvetica,sans-Serif" font-size="8.00">Flavour</text>
</a>
</g>
</g>
<!-- Node7&#45;&gt;Node2 -->
<g id="edge8" class="edge"><title>Node7&#45;&gt;Node2</title>
<path fill="none" stroke="#9a32cd" stroke-dasharray="5,2" d="M53.2212,-103.116C72.878,-105.817 98.4208,-109.327 118.807,-112.128"/>
<polygon fill="#9a32cd" stroke="#9a32cd" points="53.6407,-99.6411 43.2573,-101.747 52.6878,-106.576 53.6407,-99.6411"/>
<text text-anchor="middle" x="81" y="-111.495" font-family="Helvetica,sans-Serif" font-size="8.00"> myFlavour</text>
</g>
<!-- Node8&#45;&gt;Node2 -->
<g id="edge9" class="edge"><title>Node8&#45;&gt;Node2</title>
<path fill="none" stroke="#9a32cd" stroke-dasharray="5,2" d="M522.381,-24.5188C455.076,-5.89693 309.33,23.6005 208,-33.895 178.786,-50.4713 163.445,-90.6865 157.925,-108.343"/>
<polygon fill="#9a32cd" stroke="#9a32cd" points="521.533,-27.9165 532.109,-27.2874 523.449,-21.1838 521.533,-27.9165"/>
<text text-anchor="middle" x="377.5" y="-7.49504" font-family="Helvetica,sans-Serif" font-size="8.00"> myApproximateFormulae</text>
</g>
<!-- Node9 -->
<g id="node9" class="node"><title>Node9</title>
<g id="a_node9"><a xlink:href="../../de/d85/class_particle.html" target="_top" xlink:title="A class for particles. ">
<polygon fill="none" stroke="black" points="0,-54.395 0,-71.395 43,-71.395 43,-54.395 0,-54.395"/>
<text text-anchor="middle" x="21.5" y="-60.995" font-family="Helvetica,sans-Serif" font-size="8.00">Particle</text>
</a>
</g>
</g>
<!-- Node9&#45;&gt;Node2 -->
<g id="edge11" class="edge"><title>Node9&#45;&gt;Node2</title>
<path fill="none" stroke="#9a32cd" stroke-dasharray="5,2" d="M52.7081,-72.7433C67.4325,-77.7775 85.307,-84.2374 101,-90.895 113.36,-96.1385 126.931,-102.887 137.179,-108.195"/>
<polygon fill="#9a32cd" stroke="#9a32cd" points="53.6772,-69.3765 43.0831,-69.5009 51.4424,-76.0102 53.6772,-69.3765"/>
<text text-anchor="middle" x="81" y="-93.495" font-family="Helvetica,sans-Serif" font-size="8.00"> leptons</text>
</g>
<!-- Node10&#45;&gt;Node2 -->
<g id="edge12" class="edge"><title>Node10&#45;&gt;Node2</title>
<path fill="none" stroke="#9a32cd" stroke-dasharray="5,2" d="M315.627,-110.445C313.051,-110.604 310.5,-110.755 308,-110.895 267.525,-113.168 220.958,-114.867 190.039,-115.867"/>
<polygon fill="#9a32cd" stroke="#9a32cd" points="315.885,-113.935 325.639,-109.798 315.434,-106.95 315.885,-113.935"/>
<text text-anchor="middle" x="258" y="-117.495" font-family="Helvetica,sans-Serif" font-size="8.00"> myStandardModelMatching</text>
</g>
</g>
</svg>
