<?xml version="1.0" encoding="UTF-8" standalone="no"?>
<!DOCTYPE svg PUBLIC "-//W3C//DTD SVG 1.1//EN"
 "http://www.w3.org/Graphics/SVG/1.1/DTD/svg11.dtd">
<!-- Generated by graphviz version 2.38.0 (20140413.2041)
 -->
<!-- Title: alpha.h Pages: 1 -->
<svg width="172pt" height="134pt"
 viewBox="0.00 0.00 172.00 134.00" xmlns="http://www.w3.org/2000/svg" xmlns:xlink="http://www.w3.org/1999/xlink">
<g id="graph0" class="graph" transform="scale(1 1) rotate(0) translate(4 130)">
<title>alpha.h</title>
<!-- Node1 -->
<g id="node1" class="node"><title>Node1</title>
<polygon fill="#bfbfbf" stroke="black" points="49,-108.5 49,-125.5 92,-125.5 92,-108.5 49,-108.5"/>
<text text-anchor="middle" x="70.5" y="-115.1" font-family="Helvetica,sans-Serif" font-size="8.00">alpha.h</text>
</g>
<!-- Node2 -->
<g id="node2" class="node"><title>Node2</title>
<g id="a_node2"><a xlink:href="../../d9/dbb/alpha_8cpp.html" target="_top" xlink:title="alpha.cpp">
<polygon fill="none" stroke="black" points="0,-54.5 0,-71.5 51,-71.5 51,-54.5 0,-54.5"/>
<text text-anchor="middle" x="25.5" y="-61.1" font-family="Helvetica,sans-Serif" font-size="8.00">alpha.cpp</text>
</a>
</g>
</g>
<!-- Node1&#45;&gt;Node2 -->
<g id="edge1" class="edge"><title>Node1&#45;&gt;Node2</title>
<path fill="none" stroke="midnightblue" d="M57.2724,-100.715C49.0229,-91.182 38.7577,-79.32 32.1671,-71.7043"/>
<polygon fill="midnightblue" stroke="midnightblue" points="54.6697,-103.056 63.8601,-108.327 59.9629,-98.4752 54.6697,-103.056"/>
</g>
<!-- Node3 -->
<g id="node3" class="node"><title>Node3</title>
<g id="a_node3"><a xlink:href="../../df/d7a/_flavour_observables_8h.html" target="_top" xlink:title="FlavourObservables.h">
<polygon fill="none" stroke="black" points="69,-54.5 69,-71.5 164,-71.5 164,-54.5 69,-54.5"/>
<text text-anchor="middle" x="116.5" y="-61.1" font-family="Helvetica,sans-Serif" font-size="8.00">FlavourObservables.h</text>
</a>
</g>
</g>
<!-- Node1&#45;&gt;Node3 -->
<g id="edge2" class="edge"><title>Node1&#45;&gt;Node3</title>
<path fill="none" stroke="midnightblue" d="M84.0216,-100.715C92.4544,-91.182 102.948,-79.32 109.685,-71.7043"/>
<polygon fill="midnightblue" stroke="midnightblue" points="81.2917,-98.5182 77.2875,-108.327 86.5347,-103.156 81.2917,-98.5182"/>
</g>
<!-- Node4 -->
<g id="node4" class="node"><title>Node4</title>
<g id="a_node4"><a xlink:href="../../d1/de2/_th_obs_factory_8cpp.html" target="_top" xlink:title="ThObsFactory.cpp">
<polygon fill="none" stroke="black" points="75.5,-0.5 75.5,-17.5 157.5,-17.5 157.5,-0.5 75.5,-0.5"/>
<text text-anchor="middle" x="116.5" y="-7.1" font-family="Helvetica,sans-Serif" font-size="8.00">ThObsFactory.cpp</text>
</a>
</g>
</g>
<!-- Node3&#45;&gt;Node4 -->
<g id="edge3" class="edge"><title>Node3&#45;&gt;Node4</title>
<path fill="none" stroke="midnightblue" d="M116.5,-44.0621C116.5,-35.0603 116.5,-24.6277 116.5,-17.7043"/>
<polygon fill="midnightblue" stroke="midnightblue" points="113,-44.3272 116.5,-54.3272 120,-44.3273 113,-44.3272"/>
</g>
</g>
</svg>
