<?xml version="1.0" encoding="UTF-8" standalone="no"?>
<!DOCTYPE svg PUBLIC "-//W3C//DTD SVG 1.1//EN"
 "http://www.w3.org/Graphics/SVG/1.1/DTD/svg11.dtd">
<!-- Generated by graphviz version 2.40.1 (20161225.0304)
 -->
<!-- Title: RealWeakEFTLFVMatching Pages: 1 -->
<svg width="124pt" height="134pt"
 viewBox="0.00 0.00 124.00 134.00" xmlns="http://www.w3.org/2000/svg" xmlns:xlink="http://www.w3.org/1999/xlink">
<g id="graph0" class="graph" transform="scale(1 1) rotate(0) translate(4 130)">
<title>RealWeakEFTLFVMatching</title>
<!-- Node0 -->
<g id="node1" class="node">
<title>Node0</title>
<polygon fill="#bfbfbf" stroke="#000000" points="0,-.5 0,-17.5 116,-17.5 116,-.5 0,-.5"/>
<text text-anchor="middle" x="58" y="-7.1" font-family="Helvetica,sans-Serif" font-size="8.00" fill="#000000">RealWeakEFTLFVMatching</text>
</g>
<!-- Node1 -->
<g id="node2" class="node">
<title>Node1</title>
<g id="a_node2"><a xlink:href="../../d6/d2e/class_standard_model_matching.html" target="_top" xlink:title="A class for the matching in the Standard Model. ">
<polygon fill="none" stroke="#000000" points="6.5,-54.5 6.5,-71.5 109.5,-71.5 109.5,-54.5 6.5,-54.5"/>
<text text-anchor="middle" x="58" y="-61.1" font-family="Helvetica,sans-Serif" font-size="8.00" fill="#000000">StandardModelMatching</text>
</a>
</g>
</g>
<!-- Node1&#45;&gt;Node0 -->
<g id="edge1" class="edge">
<title>Node1&#45;&gt;Node0</title>
<path fill="none" stroke="#191970" d="M58,-43.8045C58,-34.9102 58,-24.7798 58,-17.7511"/>
<polygon fill="#191970" stroke="#191970" points="54.5001,-44.083 58,-54.083 61.5001,-44.083 54.5001,-44.083"/>
</g>
<!-- Node2 -->
<g id="node3" class="node">
<title>Node2</title>
<g id="a_node3"><a xlink:href="../../d0/d2a/class_model_matching.html" target="_top" xlink:title="A class for a template of model matching. ">
<polygon fill="none" stroke="#000000" points="22.5,-108.5 22.5,-125.5 93.5,-125.5 93.5,-108.5 22.5,-108.5"/>
<text text-anchor="middle" x="58" y="-115.1" font-family="Helvetica,sans-Serif" font-size="8.00" fill="#000000">ModelMatching</text>
</a>
</g>
</g>
<!-- Node2&#45;&gt;Node1 -->
<g id="edge2" class="edge">
<title>Node2&#45;&gt;Node1</title>
<path fill="none" stroke="#191970" d="M58,-97.8045C58,-88.9102 58,-78.7798 58,-71.7511"/>
<polygon fill="#191970" stroke="#191970" points="54.5001,-98.083 58,-108.083 61.5001,-98.083 54.5001,-98.083"/>
</g>
</g>
</svg>
