<?xml version="1.0" encoding="UTF-8" standalone="no"?>
<!DOCTYPE svg PUBLIC "-//W3C//DTD SVG 1.1//EN"
 "http://www.w3.org/Graphics/SVG/1.1/DTD/svg11.dtd">
<!-- Generated by graphviz version 2.40.1 (20161225.0304)
 -->
<!-- Title: LHPC::LHCO::LhcoEvent Pages: 1 -->
<svg width="707pt" height="120pt"
 viewBox="0.00 0.00 707.00 119.50" xmlns="http://www.w3.org/2000/svg" xmlns:xlink="http://www.w3.org/1999/xlink">
<g id="graph0" class="graph" transform="scale(1 1) rotate(0) translate(4 115.5)">
<title>LHPC::LHCO::LhcoEvent</title>
<!-- Node1 -->
<g id="node1" class="node">
<title>Node1</title>
<polygon fill="#bfbfbf" stroke="#000000" points="592,-50 592,-67 699,-67 699,-50 592,-50"/>
<text text-anchor="middle" x="645.5" y="-56.6" font-family="Helvetica,sans-Serif" font-size="8.00" fill="#000000">LHPC::LHCO::LhcoEvent</text>
</g>
<!-- Node2 -->
<g id="node2" class="node">
<title>Node2</title>
<g id="a_node2"><a xlink:href="../../d0/d39/class_l_h_p_c_1_1_l_h_c_o_1_1_object_line.html" target="_top" xlink:title="LHPC::LHCO::ObjectLine">
<polygon fill="none" stroke="#000000" points="142,-85 142,-102 249,-102 249,-85 142,-85"/>
<text text-anchor="middle" x="195.5" y="-91.6" font-family="Helvetica,sans-Serif" font-size="8.00" fill="#000000">LHPC::LHCO::ObjectLine</text>
</a>
</g>
</g>
<!-- Node2&#45;&gt;Node1 -->
<g id="edge1" class="edge">
<title>Node2&#45;&gt;Node1</title>
<path fill="none" stroke="#9a32cd" stroke-dasharray="5,2" d="M259.3809,-94.4379C261.9543,-94.4616 264.5017,-94.4825 267,-94.5 314.5544,-94.8325 326.4961,-96.7166 374,-94.5 435.9799,-91.608 451.4592,-89.4125 513,-81.5 540.2487,-77.9966 546.9285,-76.1797 574,-71.5 582.2053,-70.0816 590.9322,-68.5305 599.3663,-67.0094"/>
<polygon fill="#9a32cd" stroke="#9a32cd" points="259.4118,-90.9382 249.376,-94.3341 259.3391,-97.9378 259.4118,-90.9382"/>
<text text-anchor="middle" x="452.5" y="-105.1" font-family="Helvetica,sans-Serif" font-size="8.00" fill="#000000"> interpretingObjectLine</text>
<text text-anchor="middle" x="452.5" y="-96.1" font-family="Helvetica,sans-Serif" font-size="8.00" fill="#000000">missingEnergyLinePointer</text>
</g>
<!-- Node6 -->
<g id="node6" class="node">
<title>Node6</title>
<g id="a_node6"><a xlink:href="../../de/da2/class_b_o_l_1_1_vectorlike_array.html" target="_top" xlink:title="BOL::VectorlikeArray\l\&lt; LHPC::LHCO::ObjectLine \&gt;">
<polygon fill="none" stroke="#000000" points="392,-45.5 392,-71.5 513,-71.5 513,-45.5 392,-45.5"/>
<text text-anchor="start" x="400" y="-61.1" font-family="Helvetica,sans-Serif" font-size="8.00" fill="#000000">BOL::VectorlikeArray</text>
<text text-anchor="middle" x="452.5" y="-52.1" font-family="Helvetica,sans-Serif" font-size="8.00" fill="#000000">&lt; LHPC::LHCO::ObjectLine &gt;</text>
</a>
</g>
</g>
<!-- Node2&#45;&gt;Node6 -->
<g id="edge6" class="edge">
<title>Node2&#45;&gt;Node6</title>
<path fill="none" stroke="#9a32cd" stroke-dasharray="5,2" d="M259.101,-84.8384C299.6317,-79.3186 351.8428,-72.2082 391.7987,-66.7667"/>
<polygon fill="#9a32cd" stroke="#9a32cd" points="258.499,-81.388 249.0628,-86.2055 259.4437,-88.3239 258.499,-81.388"/>
<text text-anchor="middle" x="320.5" y="-85.1" font-family="Helvetica,sans-Serif" font-size="8.00" fill="#000000"> pointerArray</text>
</g>
<!-- Node3 -->
<g id="node3" class="node">
<title>Node3</title>
<g id="a_node3"><a xlink:href="../../de/da2/class_b_o_l_1_1_vectorlike_array.html" target="_top" xlink:title="BOL::VectorlikeArray\l\&lt; std::string \&gt;">
<polygon fill="none" stroke="#000000" points="407,-.5 407,-26.5 498,-26.5 498,-.5 407,-.5"/>
<text text-anchor="start" x="415" y="-16.1" font-family="Helvetica,sans-Serif" font-size="8.00" fill="#000000">BOL::VectorlikeArray</text>
<text text-anchor="middle" x="452.5" y="-7.1" font-family="Helvetica,sans-Serif" font-size="8.00" fill="#000000">&lt; std::string &gt;</text>
</a>
</g>
</g>
<!-- Node3&#45;&gt;Node1 -->
<g id="edge2" class="edge">
<title>Node3&#45;&gt;Node1</title>
<path fill="none" stroke="#9a32cd" stroke-dasharray="5,2" d="M508.0224,-26.4456C540.3986,-33.9945 580.3325,-43.3055 608.8026,-49.9436"/>
<polygon fill="#9a32cd" stroke="#9a32cd" points="508.7719,-23.0266 498.2383,-24.1644 507.1823,-29.8437 508.7719,-23.0266"/>
<text text-anchor="middle" x="552.5" y="-44.1" font-family="Helvetica,sans-Serif" font-size="8.00" fill="#000000"> lineParser</text>
</g>
<!-- Node4 -->
<g id="node4" class="node">
<title>Node4</title>
<g id="a_node4"><a xlink:href="../../de/da2/class_b_o_l_1_1_vectorlike_array.html" target="_top" xlink:title="BOL::VectorlikeArray\l\&lt; StoredClass \&gt;">
<polygon fill="none" stroke="#000000" points="150,-25.5 150,-51.5 241,-51.5 241,-25.5 150,-25.5"/>
<text text-anchor="start" x="158" y="-41.1" font-family="Helvetica,sans-Serif" font-size="8.00" fill="#000000">BOL::VectorlikeArray</text>
<text text-anchor="middle" x="195.5" y="-32.1" font-family="Helvetica,sans-Serif" font-size="8.00" fill="#000000">&lt; StoredClass &gt;</text>
</a>
</g>
</g>
<!-- Node4&#45;&gt;Node3 -->
<g id="edge3" class="edge">
<title>Node4&#45;&gt;Node3</title>
<path fill="none" stroke="#ffa500" stroke-dasharray="5,2" d="M251.3825,-33.0243C256.6614,-32.5085 261.9317,-31.994 267,-31.5 314.6612,-26.8545 369.2135,-21.5643 406.7594,-17.9274"/>
<polygon fill="#ffa500" stroke="#ffa500" points="250.8828,-29.5564 241.2709,-34.013 251.5641,-36.5232 250.8828,-29.5564"/>
<text text-anchor="middle" x="320.5" y="-34.1" font-family="Helvetica,sans-Serif" font-size="8.00" fill="#000000"> &lt; std::string &gt;</text>
</g>
<!-- Node4&#45;&gt;Node6 -->
<g id="edge7" class="edge">
<title>Node4&#45;&gt;Node6</title>
<path fill="none" stroke="#ffa500" stroke-dasharray="5,2" d="M251.3469,-42.8461C292.7956,-46.0716 349.2652,-50.4662 391.8228,-53.778"/>
<polygon fill="#ffa500" stroke="#ffa500" points="251.3917,-39.3391 241.1503,-42.0526 250.8486,-46.318 251.3917,-39.3391"/>
<text text-anchor="middle" x="320.5" y="-55.1" font-family="Helvetica,sans-Serif" font-size="8.00" fill="#000000"> &lt; LHPC::LHCO::ObjectLine &gt;</text>
</g>
<!-- Node5 -->
<g id="node5" class="node">
<title>Node5</title>
<polygon fill="none" stroke="#bfbfbf" points="0,-30 0,-47 60,-47 60,-30 0,-30"/>
<text text-anchor="middle" x="30" y="-36.6" font-family="Helvetica,sans-Serif" font-size="8.00" fill="#000000">StoredClass</text>
</g>
<!-- Node5&#45;&gt;Node4 -->
<g id="edge4" class="edge">
<title>Node5&#45;&gt;Node4</title>
<path fill="none" stroke="#9a32cd" stroke-dasharray="5,2" d="M70.5284,-38.5C94.486,-38.5 124.893,-38.5 149.7149,-38.5"/>
<polygon fill="#9a32cd" stroke="#9a32cd" points="70.3553,-35.0001 60.3553,-38.5 70.3552,-42.0001 70.3553,-35.0001"/>
<text text-anchor="middle" x="101" y="-41.1" font-family="Helvetica,sans-Serif" font-size="8.00" fill="#000000"> pointerArray</text>
</g>
<!-- Node6&#45;&gt;Node1 -->
<g id="edge5" class="edge">
<title>Node6&#45;&gt;Node1</title>
<path fill="none" stroke="#9a32cd" stroke-dasharray="5,2" d="M523.2619,-58.5C545.8707,-58.5 570.513,-58.5 591.7107,-58.5"/>
<polygon fill="#9a32cd" stroke="#9a32cd" points="523.0369,-55.0001 513.0369,-58.5 523.0368,-62.0001 523.0369,-55.0001"/>
<text text-anchor="middle" x="552.5" y="-61.1" font-family="Helvetica,sans-Serif" font-size="8.00" fill="#000000"> objectLines</text>
</g>
</g>
</svg>
