<?xml version="1.0" encoding="UTF-8" standalone="no"?>
<!DOCTYPE svg PUBLIC "-//W3C//DTD SVG 1.1//EN"
 "http://www.w3.org/Graphics/SVG/1.1/DTD/svg11.dtd">
<!-- Generated by graphviz version 2.40.1 (20161225.0304)
 -->
<!-- Title: LHPC::SLHA::SinglyIndexedMultipleEntriesBlock&lt; ValueClass &gt; Pages: 1 -->
<svg width="1398pt" height="259pt"
 viewBox="0.00 0.00 1398.00 258.52" xmlns="http://www.w3.org/2000/svg" xmlns:xlink="http://www.w3.org/1999/xlink">
<g id="graph0" class="graph" transform="scale(1 1) rotate(0) translate(4 254.5206)">
<title>LHPC::SLHA::SinglyIndexedMultipleEntriesBlock&lt; ValueClass &gt;</title>
<!-- Node11 -->
<g id="node1" class="node">
<title>Node11</title>
<polygon fill="#bfbfbf" stroke="#000000" points="1247,-110 1247,-136 1390,-136 1390,-110 1247,-110"/>
<text text-anchor="start" x="1255" y="-125.6" font-family="Helvetica,sans-Serif" font-size="8.00" fill="#000000">LHPC::SLHA::SinglyIndexed</text>
<text text-anchor="middle" x="1318.5" y="-116.6" font-family="Helvetica,sans-Serif" font-size="8.00" fill="#000000">MultipleEntriesBlock&lt; ValueClass &gt;</text>
</g>
<!-- Node12 -->
<g id="node2" class="node">
<title>Node12</title>
<g id="a_node2"><a xlink:href="../../de/d5e/class_l_h_p_c_1_1_s_l_h_a_1_1_indexed_block_template.html" target="_top" xlink:title="LHPC::SLHA::IndexedBlock\lTemplate\&lt; ValueClass,\l InterpreterClass::MultipleSingly\lIndexed\&lt; ValueClass \&gt; \&gt;">
<polygon fill="none" stroke="#000000" points="1081,-101 1081,-145 1210,-145 1210,-101 1081,-101"/>
<text text-anchor="start" x="1089" y="-134.6" font-family="Helvetica,sans-Serif" font-size="8.00" fill="#000000">LHPC::SLHA::IndexedBlock</text>
<text text-anchor="start" x="1089" y="-125.6" font-family="Helvetica,sans-Serif" font-size="8.00" fill="#000000">Template&lt; ValueClass,</text>
<text text-anchor="start" x="1089" y="-116.6" font-family="Helvetica,sans-Serif" font-size="8.00" fill="#000000"> InterpreterClass::MultipleSingly</text>
<text text-anchor="middle" x="1145.5" y="-107.6" font-family="Helvetica,sans-Serif" font-size="8.00" fill="#000000">Indexed&lt; ValueClass &gt; &gt;</text>
</a>
</g>
</g>
<!-- Node12&#45;&gt;Node11 -->
<g id="edge1" class="edge">
<title>Node12&#45;&gt;Node11</title>
<path fill="none" stroke="#191970" d="M1220.5584,-123C1229.2829,-123 1238.1654,-123 1246.8425,-123"/>
<polygon fill="#191970" stroke="#191970" points="1220.4111,-119.5001 1210.411,-123 1220.411,-126.5001 1220.4111,-119.5001"/>
</g>
<!-- Node13 -->
<g id="node3" class="node">
<title>Node13</title>
<g id="a_node3"><a xlink:href="../../d6/daf/class_l_h_p_c_1_1_s_l_h_a_1_1_slha_block.html" target="_top" xlink:title="LHPC::SLHA::SlhaBlock\l\&lt; ValueClass, InterpreterClass\l::MultipleSinglyIndexed\&lt; ValueClass \&gt; \&gt;">
<polygon fill="none" stroke="#000000" points="629,-87.5 629,-122.5 789,-122.5 789,-87.5 629,-87.5"/>
<text text-anchor="start" x="637" y="-112.1" font-family="Helvetica,sans-Serif" font-size="8.00" fill="#000000">LHPC::SLHA::SlhaBlock</text>
<text text-anchor="start" x="637" y="-103.1" font-family="Helvetica,sans-Serif" font-size="8.00" fill="#000000">&lt; ValueClass, InterpreterClass</text>
<text text-anchor="middle" x="709" y="-94.1" font-family="Helvetica,sans-Serif" font-size="8.00" fill="#000000">::MultipleSinglyIndexed&lt; ValueClass &gt; &gt;</text>
</a>
</g>
</g>
<!-- Node13&#45;&gt;Node12 -->
<g id="edge2" class="edge">
<title>Node13&#45;&gt;Node12</title>
<path fill="none" stroke="#191970" d="M799.1022,-108.7156C883.0829,-112.1787 1006.2624,-117.2582 1080.8654,-120.3347"/>
<polygon fill="#191970" stroke="#191970" points="799.1966,-105.2166 789.0608,-108.3015 798.9081,-112.2106 799.1966,-105.2166"/>
</g>
<!-- Node14 -->
<g id="node4" class="node">
<title>Node14</title>
<g id="a_node4"><a xlink:href="../../d2/d20/class_l_h_p_c_1_1_s_l_h_a_1_1_base_slha_block.html" target="_top" xlink:title="LHPC::SLHA::BaseSlhaBlock">
<polygon fill="none" stroke="#000000" points="127,-207.5 127,-224.5 248,-224.5 248,-207.5 127,-207.5"/>
<text text-anchor="middle" x="187.5" y="-214.1" font-family="Helvetica,sans-Serif" font-size="8.00" fill="#000000">LHPC::SLHA::BaseSlhaBlock</text>
</a>
</g>
</g>
<!-- Node14&#45;&gt;Node13 -->
<g id="edge3" class="edge">
<title>Node14&#45;&gt;Node13</title>
<path fill="none" stroke="#191970" d="M258.1619,-222.7396C346.188,-227.8868 498.6721,-225.892 611,-166 621.8472,-160.2164 619.3108,-152.5651 629,-145 640.1379,-136.3038 653.4661,-128.7357 666.0201,-122.5926"/>
<polygon fill="#191970" stroke="#191970" points="258.2167,-219.2362 248.0156,-222.0978 257.7747,-226.2222 258.2167,-219.2362"/>
</g>
<!-- Node21 -->
<g id="node8" class="node">
<title>Node21</title>
<g id="a_node8"><a xlink:href="../../d6/daf/class_l_h_p_c_1_1_s_l_h_a_1_1_slha_block.html" target="_top" xlink:title="LHPC::SLHA::SlhaBlock\l\&lt; ValueClass, BlockParser \&gt;">
<polygon fill="none" stroke="#ff0000" points="357,-116 357,-142 475,-142 475,-116 357,-116"/>
<text text-anchor="start" x="365" y="-131.6" font-family="Helvetica,sans-Serif" font-size="8.00" fill="#000000">LHPC::SLHA::SlhaBlock</text>
<text text-anchor="middle" x="416" y="-122.6" font-family="Helvetica,sans-Serif" font-size="8.00" fill="#000000">&lt; ValueClass, BlockParser &gt;</text>
</a>
</g>
</g>
<!-- Node14&#45;&gt;Node21 -->
<g id="edge8" class="edge">
<title>Node14&#45;&gt;Node21</title>
<path fill="none" stroke="#191970" d="M219.1809,-203.9377C261.9243,-187.6634 337.7651,-158.7875 381.7768,-142.0303"/>
<polygon fill="#191970" stroke="#191970" points="217.9257,-200.6704 209.8256,-207.4997 220.4165,-207.2123 217.9257,-200.6704"/>
</g>
<!-- Node24 -->
<g id="node10" class="node">
<title>Node24</title>
<g id="a_node10"><a xlink:href="../../d6/daf/class_l_h_p_c_1_1_s_l_h_a_1_1_slha_block.html" target="_top" xlink:title="LHPC::SLHA::SlhaBlock\l\&lt; ValueClass, IndexedParser \&gt;">
<polygon fill="none" stroke="#ff0000" points="645.5,-154 645.5,-180 772.5,-180 772.5,-154 645.5,-154"/>
<text text-anchor="start" x="653.5" y="-169.6" font-family="Helvetica,sans-Serif" font-size="8.00" fill="#000000">LHPC::SLHA::SlhaBlock</text>
<text text-anchor="middle" x="709" y="-160.6" font-family="Helvetica,sans-Serif" font-size="8.00" fill="#000000">&lt; ValueClass, IndexedParser &gt;</text>
</a>
</g>
</g>
<!-- Node14&#45;&gt;Node24 -->
<g id="edge12" class="edge">
<title>Node14&#45;&gt;Node24</title>
<path fill="none" stroke="#191970" d="M233.1089,-226.6732C312.0086,-243.1386 478.2637,-268.9849 611,-230 644.1852,-220.2534 676.7629,-195.4182 694.738,-180.0005"/>
<polygon fill="#191970" stroke="#191970" points="233.5313,-223.1845 223.0209,-224.5188 232.0694,-230.0302 233.5313,-223.1845"/>
</g>
<!-- Node15 -->
<g id="node5" class="node">
<title>Node15</title>
<g id="a_node5"><a xlink:href="../../d5/d13/class_b_o_l_1_1_pushed_to_observer.html" target="_top" xlink:title="StringBlockObserver">
<polygon fill="none" stroke="#ff0000" points="0,-207.5 0,-224.5 90,-224.5 90,-207.5 0,-207.5"/>
<text text-anchor="middle" x="45" y="-214.1" font-family="Helvetica,sans-Serif" font-size="8.00" fill="#000000">StringBlockObserver</text>
</a>
</g>
</g>
<!-- Node15&#45;&gt;Node14 -->
<g id="edge4" class="edge">
<title>Node15&#45;&gt;Node14</title>
<path fill="none" stroke="#191970" d="M100.15,-216C108.8834,-216 117.9573,-216 126.8089,-216"/>
<polygon fill="#191970" stroke="#191970" points="100.0879,-212.5001 90.0879,-216 100.0879,-219.5001 100.0879,-212.5001"/>
</g>
<!-- Node17 -->
<g id="node6" class="node">
<title>Node17</title>
<g id="a_node6"><a xlink:href="../../de/da2/class_b_o_l_1_1_vectorlike_array.html" target="_top" xlink:title="BOL::VectorlikeArray\l\&lt; InterpreterClass::Multiple\lSinglyIndexed\&lt; ValueClass \&gt; \&gt;">
<polygon fill="none" stroke="#ff0000" points="352,-.5 352,-35.5 480,-35.5 480,-.5 352,-.5"/>
<text text-anchor="start" x="360" y="-25.1" font-family="Helvetica,sans-Serif" font-size="8.00" fill="#000000">BOL::VectorlikeArray</text>
<text text-anchor="start" x="360" y="-16.1" font-family="Helvetica,sans-Serif" font-size="8.00" fill="#000000">&lt; InterpreterClass::Multiple</text>
<text text-anchor="middle" x="416" y="-7.1" font-family="Helvetica,sans-Serif" font-size="8.00" fill="#000000">SinglyIndexed&lt; ValueClass &gt; &gt;</text>
</a>
</g>
</g>
<!-- Node17&#45;&gt;Node13 -->
<g id="edge5" class="edge">
<title>Node17&#45;&gt;Node13</title>
<path fill="none" stroke="#9a32cd" stroke-dasharray="5,2" d="M490.4404,-23.466C527.4651,-27.7705 572.4289,-35.4254 611,-49 637.4327,-58.3027 664.9138,-74.686 684.0243,-87.3369"/>
<polygon fill="#9a32cd" stroke="#9a32cd" points="490.5435,-19.9562 480.22,-22.3386 489.7759,-26.914 490.5435,-19.9562"/>
<text text-anchor="middle" x="554.5" y="-51.6" font-family="Helvetica,sans-Serif" font-size="8.00" fill="#000000"> dataBlocks</text>
</g>
<!-- Node20 -->
<g id="node7" class="node">
<title>Node20</title>
<polygon fill="none" stroke="#bfbfbf" points="159,-120.5 159,-137.5 216,-137.5 216,-120.5 159,-120.5"/>
<text text-anchor="middle" x="187.5" y="-127.1" font-family="Helvetica,sans-Serif" font-size="8.00" fill="#000000">ValueClass</text>
</g>
<!-- Node20&#45;&gt;Node13 -->
<g id="edge6" class="edge">
<title>Node20&#45;&gt;Node13</title>
<path fill="none" stroke="#9a32cd" stroke-dasharray="5,2" d="M226.2927,-119.8067C259.4591,-112.4009 308.5708,-102.5069 352,-98 466.5039,-86.1173 496.0299,-89.1494 611,-95 616.8072,-95.2955 622.8006,-95.6889 628.8281,-96.149"/>
<polygon fill="#9a32cd" stroke="#9a32cd" points="225.0913,-116.4901 216.1121,-122.1137 226.6384,-123.317 225.0913,-116.4901"/>
<text text-anchor="middle" x="416" y="-100.6" font-family="Helvetica,sans-Serif" font-size="8.00" fill="#000000"> defaultUnsetValue</text>
</g>
<!-- Node20&#45;&gt;Node21 -->
<g id="edge9" class="edge">
<title>Node20&#45;&gt;Node21</title>
<path fill="none" stroke="#9a32cd" stroke-dasharray="5,2" d="M226.4655,-129C262.1628,-129 315.5322,-129 356.5515,-129"/>
<polygon fill="#9a32cd" stroke="#9a32cd" points="226.4397,-125.5001 216.4397,-129 226.4396,-132.5001 226.4397,-125.5001"/>
<text text-anchor="middle" x="300" y="-131.6" font-family="Helvetica,sans-Serif" font-size="8.00" fill="#000000"> defaultUnsetValue</text>
</g>
<!-- Node20&#45;&gt;Node24 -->
<g id="edge13" class="edge">
<title>Node20&#45;&gt;Node24</title>
<path fill="none" stroke="#9a32cd" stroke-dasharray="5,2" d="M226.3605,-135.8174C238.984,-137.9297 253.069,-140.1786 266,-142 368.6037,-156.4526 394.5085,-159.9101 498,-165 547.3956,-167.4294 603.3716,-167.8527 645.2512,-167.7102"/>
<polygon fill="#9a32cd" stroke="#9a32cd" points="226.6023,-132.3085 216.1579,-134.0876 225.4321,-139.21 226.6023,-132.3085"/>
<text text-anchor="middle" x="416" y="-166.6" font-family="Helvetica,sans-Serif" font-size="8.00" fill="#000000"> defaultUnsetValue</text>
</g>
<!-- Node21&#45;&gt;Node13 -->
<g id="edge7" class="edge">
<title>Node21&#45;&gt;Node13</title>
<path fill="none" stroke="#ffa500" stroke-dasharray="5,2" d="M464.1931,-113.1647C475.1864,-110.2039 486.9013,-107.5539 498,-106 540.9901,-99.9812 589.3912,-99.3202 628.9826,-100.3465"/>
<polygon fill="#ffa500" stroke="#ffa500" points="463.0102,-109.8618 454.3384,-115.9487 464.9133,-116.5981 463.0102,-109.8618"/>
<text text-anchor="start" x="503" y="-126.6" font-family="Helvetica,sans-Serif" font-size="8.00" fill="#000000"> &lt; ValueClass, Interpreter</text>
<text text-anchor="start" x="503" y="-117.6" font-family="Helvetica,sans-Serif" font-size="8.00" fill="#000000">Class::MultipleSinglyIndexed</text>
<text text-anchor="middle" x="554.5" y="-108.6" font-family="Helvetica,sans-Serif" font-size="8.00" fill="#000000">&lt; ValueClass &gt; &gt;</text>
</g>
<!-- Node21&#45;&gt;Node24 -->
<g id="edge14" class="edge">
<title>Node21&#45;&gt;Node24</title>
<path fill="none" stroke="#ffa500" stroke-dasharray="5,2" d="M485.4003,-138.0007C533.9456,-144.2967 598.2865,-152.6412 645.4826,-158.7622"/>
<polygon fill="#ffa500" stroke="#ffa500" points="485.6601,-134.5052 475.2929,-136.6899 484.7597,-141.447 485.6601,-134.5052"/>
<text text-anchor="middle" x="554.5" y="-155.6" font-family="Helvetica,sans-Serif" font-size="8.00" fill="#000000"> &lt; ValueClass, IndexedParser &gt;</text>
</g>
<!-- Node23 -->
<g id="node9" class="node">
<title>Node23</title>
<g id="a_node9"><a xlink:href="../../de/d5e/class_l_h_p_c_1_1_s_l_h_a_1_1_indexed_block_template.html" target="_top" xlink:title="LHPC::SLHA::IndexedBlock\lTemplate\&lt; ValueClass,\l IndexedParser \&gt;">
<polygon fill="none" stroke="#000000" points="826,-136.5 826,-171.5 942,-171.5 942,-136.5 826,-136.5"/>
<text text-anchor="start" x="834" y="-161.1" font-family="Helvetica,sans-Serif" font-size="8.00" fill="#000000">LHPC::SLHA::IndexedBlock</text>
<text text-anchor="start" x="834" y="-152.1" font-family="Helvetica,sans-Serif" font-size="8.00" fill="#000000">Template&lt; ValueClass,</text>
<text text-anchor="middle" x="884" y="-143.1" font-family="Helvetica,sans-Serif" font-size="8.00" fill="#000000"> IndexedParser &gt;</text>
</a>
</g>
</g>
<!-- Node23&#45;&gt;Node12 -->
<g id="edge10" class="edge">
<title>Node23&#45;&gt;Node12</title>
<path fill="none" stroke="#ffa500" stroke-dasharray="5,2" d="M952.1601,-145.9198C991.86,-141.2135 1041.6355,-135.3128 1080.7389,-130.6772"/>
<polygon fill="#ffa500" stroke="#ffa500" points="951.5537,-142.4671 942.0353,-147.1201 952.3779,-149.4184 951.5537,-142.4671"/>
<text text-anchor="start" x="960" y="-164.6" font-family="Helvetica,sans-Serif" font-size="8.00" fill="#000000"> &lt; ValueClass, Interpreter</text>
<text text-anchor="start" x="960" y="-155.6" font-family="Helvetica,sans-Serif" font-size="8.00" fill="#000000">Class::MultipleSinglyIndexed</text>
<text text-anchor="middle" x="1011.5" y="-146.6" font-family="Helvetica,sans-Serif" font-size="8.00" fill="#000000">&lt; ValueClass &gt; &gt;</text>
</g>
<!-- Node24&#45;&gt;Node23 -->
<g id="edge11" class="edge">
<title>Node24&#45;&gt;Node23</title>
<path fill="none" stroke="#191970" d="M782.9997,-161.5029C797.3317,-160.4382 812.1588,-159.3368 825.8928,-158.3165"/>
<polygon fill="#191970" stroke="#191970" points="782.3873,-158.0386 772.6741,-162.2699 782.9059,-165.0194 782.3873,-158.0386"/>
</g>
</g>
</svg>
