<?xml version="1.0" encoding="UTF-8" standalone="no"?>
<!DOCTYPE svg PUBLIC "-//W3C//DTD SVG 1.1//EN"
 "http://www.w3.org/Graphics/SVG/1.1/DTD/svg11.dtd">
<!-- Generated by graphviz version 2.40.1 (20161225.0304)
 -->
<!-- Title: AsciiXmlParser.cpp Pages: 1 -->
<svg width="348pt" height="188pt"
 viewBox="0.00 0.00 347.50 188.00" xmlns="http://www.w3.org/2000/svg" xmlns:xlink="http://www.w3.org/1999/xlink">
<g id="graph0" class="graph" transform="scale(1 1) rotate(0) translate(4 184)">
<title>AsciiXmlParser.cpp</title>
<!-- Node0 -->
<g id="node1" class="node">
<title>Node0</title>
<polygon fill="#bfbfbf" stroke="#000000" points="140.5,-162.5 140.5,-179.5 226.5,-179.5 226.5,-162.5 140.5,-162.5"/>
<text text-anchor="middle" x="183.5" y="-169.1" font-family="Helvetica,sans-Serif" font-size="8.00" fill="#000000">AsciiXmlParser.cpp</text>
</g>
<!-- Node1 -->
<g id="node2" class="node">
<title>Node1</title>
<g id="a_node2"><a xlink:href="../../d4/dbc/_ascii_xml_parser_8hpp.html" target="_top" xlink:title="AsciiXmlParser.hpp">
<polygon fill="none" stroke="#000000" points="140.5,-108.5 140.5,-125.5 226.5,-125.5 226.5,-108.5 140.5,-108.5"/>
<text text-anchor="middle" x="183.5" y="-115.1" font-family="Helvetica,sans-Serif" font-size="8.00" fill="#000000">AsciiXmlParser.hpp</text>
</a>
</g>
</g>
<!-- Node0&#45;&gt;Node1 -->
<g id="edge1" class="edge">
<title>Node0&#45;&gt;Node1</title>
<path fill="none" stroke="#191970" d="M183.5,-162.083C183.5,-155.0059 183.5,-144.8611 183.5,-135.9865"/>
<polygon fill="#191970" stroke="#191970" points="187.0001,-135.751 183.5,-125.7511 180.0001,-135.7511 187.0001,-135.751"/>
</g>
<!-- Node2 -->
<g id="node3" class="node">
<title>Node2</title>
<polygon fill="none" stroke="#bfbfbf" points="0,-.5 0,-17.5 47,-17.5 47,-.5 0,-.5"/>
<text text-anchor="middle" x="23.5" y="-7.1" font-family="Helvetica,sans-Serif" font-size="8.00" fill="#000000">iostream</text>
</g>
<!-- Node1&#45;&gt;Node2 -->
<g id="edge2" class="edge">
<title>Node1&#45;&gt;Node2</title>
<path fill="none" stroke="#191970" d="M160.7687,-108.4908C141.0262,-100.5606 112.1307,-87.6263 89.5,-72 69.8537,-58.4345 50.4638,-39.0051 37.8381,-25.3186"/>
<polygon fill="#191970" stroke="#191970" points="40.208,-22.7205 30.9092,-17.6427 35.0119,-27.411 40.208,-22.7205"/>
</g>
<!-- Node3 -->
<g id="node4" class="node">
<title>Node3</title>
<polygon fill="none" stroke="#bfbfbf" points="246,-54.5 246,-71.5 289,-71.5 289,-54.5 246,-54.5"/>
<text text-anchor="middle" x="267.5" y="-61.1" font-family="Helvetica,sans-Serif" font-size="8.00" fill="#000000">fstream</text>
</g>
<!-- Node1&#45;&gt;Node3 -->
<g id="edge3" class="edge">
<title>Node1&#45;&gt;Node3</title>
<path fill="none" stroke="#191970" d="M196.9961,-108.324C210.0996,-99.9002 230.2119,-86.9709 245.6069,-77.0741"/>
<polygon fill="#191970" stroke="#191970" points="247.5183,-80.0063 254.0374,-71.6545 243.733,-74.118 247.5183,-80.0063"/>
</g>
<!-- Node4 -->
<g id="node5" class="node">
<title>Node4</title>
<polygon fill="none" stroke="#bfbfbf" points="65,-.5 65,-17.5 110,-17.5 110,-.5 65,-.5"/>
<text text-anchor="middle" x="87.5" y="-7.1" font-family="Helvetica,sans-Serif" font-size="8.00" fill="#000000">sstream</text>
</g>
<!-- Node1&#45;&gt;Node4 -->
<g id="edge4" class="edge">
<title>Node1&#45;&gt;Node4</title>
<path fill="none" stroke="#191970" d="M157.0828,-108.413C139.3955,-101.341 116.9677,-89.5856 103.5,-72 93.7441,-59.2611 89.8896,-41.2381 88.3906,-27.7307"/>
<polygon fill="#191970" stroke="#191970" points="91.8724,-27.3601 87.6076,-17.6616 84.8935,-27.9029 91.8724,-27.3601"/>
</g>
<!-- Node5 -->
<g id="node6" class="node">
<title>Node5</title>
<polygon fill="none" stroke="#bfbfbf" points="240.5,-.5 240.5,-17.5 276.5,-17.5 276.5,-.5 240.5,-.5"/>
<text text-anchor="middle" x="258.5" y="-7.1" font-family="Helvetica,sans-Serif" font-size="8.00" fill="#000000">string</text>
</g>
<!-- Node1&#45;&gt;Node5 -->
<g id="edge5" class="edge">
<title>Node1&#45;&gt;Node5</title>
<path fill="none" stroke="#191970" d="M189.6376,-108.1619C202.1151,-90.1943 230.6241,-49.1413 246.7751,-25.8838"/>
<polygon fill="#191970" stroke="#191970" points="249.658,-27.8685 252.4872,-17.6584 243.9084,-23.8757 249.658,-27.8685"/>
</g>
<!-- Node6 -->
<g id="node7" class="node">
<title>Node6</title>
<polygon fill="none" stroke="#bfbfbf" points="307.5,-54.5 307.5,-71.5 339.5,-71.5 339.5,-54.5 307.5,-54.5"/>
<text text-anchor="middle" x="323.5" y="-61.1" font-family="Helvetica,sans-Serif" font-size="8.00" fill="#000000">map</text>
</g>
<!-- Node1&#45;&gt;Node6 -->
<g id="edge6" class="edge">
<title>Node1&#45;&gt;Node6</title>
<path fill="none" stroke="#191970" d="M205.6834,-108.4435C230.706,-98.792 271.3437,-83.1174 297.747,-72.9333"/>
<polygon fill="#191970" stroke="#191970" points="299.0367,-76.1873 307.1071,-69.323 296.5175,-69.6562 299.0367,-76.1873"/>
</g>
<!-- Node7 -->
<g id="node8" class="node">
<title>Node7</title>
<g id="a_node8"><a xlink:href="../../d3/d97/_string_parser_8hpp.html" target="_top" xlink:title="StringParser.hpp">
<polygon fill="none" stroke="#ff0000" points="112,-54.5 112,-71.5 189,-71.5 189,-54.5 112,-54.5"/>
<text text-anchor="middle" x="150.5" y="-61.1" font-family="Helvetica,sans-Serif" font-size="8.00" fill="#000000">StringParser.hpp</text>
</a>
</g>
</g>
<!-- Node1&#45;&gt;Node7 -->
<g id="edge7" class="edge">
<title>Node1&#45;&gt;Node7</title>
<path fill="none" stroke="#191970" d="M178.0507,-108.083C173.4855,-100.6127 166.8316,-89.7244 161.2066,-80.5199"/>
<polygon fill="#191970" stroke="#191970" points="164.0489,-78.4588 155.8479,-71.7511 158.0759,-82.109 164.0489,-78.4588"/>
</g>
<!-- Node7&#45;&gt;Node2 -->
<g id="edge9" class="edge">
<title>Node7&#45;&gt;Node2</title>
<path fill="none" stroke="#191970" d="M130.3765,-54.4435C109.4757,-45.5566 76.5653,-31.5632 52.7839,-21.4514"/>
<polygon fill="#191970" stroke="#191970" points="54.1016,-18.2085 43.5294,-17.5164 51.3625,-24.6504 54.1016,-18.2085"/>
</g>
<!-- Node7&#45;&gt;Node4 -->
<g id="edge11" class="edge">
<title>Node7&#45;&gt;Node4</title>
<path fill="none" stroke="#191970" d="M140.378,-54.324C130.9736,-46.2631 116.7559,-34.0765 105.431,-24.3695"/>
<polygon fill="#191970" stroke="#191970" points="107.6766,-21.6844 97.8062,-17.8339 103.121,-26.9993 107.6766,-21.6844"/>
</g>
<!-- Node7&#45;&gt;Node5 -->
<g id="edge10" class="edge">
<title>Node7&#45;&gt;Node5</title>
<path fill="none" stroke="#191970" d="M167.8521,-54.324C185.1719,-45.6641 212.0153,-32.2424 232.0019,-22.249"/>
<polygon fill="#191970" stroke="#191970" points="233.812,-25.2572 241.191,-17.6545 230.6814,-18.9962 233.812,-25.2572"/>
</g>
<!-- Node8 -->
<g id="node9" class="node">
<title>Node8</title>
<polygon fill="none" stroke="#bfbfbf" points="185,-.5 185,-17.5 222,-17.5 222,-.5 185,-.5"/>
<text text-anchor="middle" x="203.5" y="-7.1" font-family="Helvetica,sans-Serif" font-size="8.00" fill="#000000">cstdio</text>
</g>
<!-- Node7&#45;&gt;Node8 -->
<g id="edge8" class="edge">
<title>Node7&#45;&gt;Node8</title>
<path fill="none" stroke="#191970" d="M159.2519,-54.083C166.9697,-46.2195 178.4047,-34.5688 187.7165,-25.0813"/>
<polygon fill="#191970" stroke="#191970" points="190.4042,-27.3396 194.911,-17.7511 185.4084,-22.4363 190.4042,-27.3396"/>
</g>
<!-- Node9 -->
<g id="node10" class="node">
<title>Node9</title>
<polygon fill="none" stroke="#bfbfbf" points="128.5,-.5 128.5,-17.5 166.5,-17.5 166.5,-.5 128.5,-.5"/>
<text text-anchor="middle" x="147.5" y="-7.1" font-family="Helvetica,sans-Serif" font-size="8.00" fill="#000000">vector</text>
</g>
<!-- Node7&#45;&gt;Node9 -->
<g id="edge12" class="edge">
<title>Node7&#45;&gt;Node9</title>
<path fill="none" stroke="#191970" d="M150.0046,-54.083C149.6114,-47.0059 149.0478,-36.8611 148.5548,-27.9865"/>
<polygon fill="#191970" stroke="#191970" points="152.0356,-27.5415 147.9862,-17.7511 145.0464,-27.9299 152.0356,-27.5415"/>
</g>
</g>
</svg>
