<?xml version="1.0" encoding="UTF-8" standalone="no"?>
<!DOCTYPE svg PUBLIC "-//W3C//DTD SVG 1.1//EN"
 "http://www.w3.org/Graphics/SVG/1.1/DTD/svg11.dtd">
<!-- Generated by graphviz version 2.40.1 (20161225.0304)
 -->
<!-- Title: Hobs_pp_H_hh_bbtautau1_CMS13 Pages: 1 -->
<svg width="421pt" height="242pt"
 viewBox="0.00 0.00 420.50 242.00" xmlns="http://www.w3.org/2000/svg" xmlns:xlink="http://www.w3.org/1999/xlink">
<g id="graph0" class="graph" transform="scale(1 1) rotate(0) translate(4 238)">
<title>Hobs_pp_H_hh_bbtautau1_CMS13</title>
<!-- Node2 -->
<g id="node1" class="node">
<title>Node2</title>
<polygon fill="#bfbfbf" stroke="#000000" points="96.5,-.5 96.5,-26.5 208.5,-26.5 208.5,-.5 96.5,-.5"/>
<text text-anchor="start" x="104.5" y="-16.1" font-family="Helvetica,sans-Serif" font-size="8.00" fill="#000000">Hobs_pp_H_hh_bbtautau1</text>
<text text-anchor="middle" x="152.5" y="-7.1" font-family="Helvetica,sans-Serif" font-size="8.00" fill="#000000">_CMS13</text>
</g>
<!-- Node3 -->
<g id="node2" class="node">
<title>Node3</title>
<g id="a_node2"><a xlink:href="../../dc/d1f/class_th_observable.html" target="_top" xlink:title="A class for a model prediction of an observable. ">
<polygon fill="none" stroke="#000000" points="144,-72.5 144,-89.5 211,-89.5 211,-72.5 144,-72.5"/>
<text text-anchor="middle" x="177.5" y="-79.1" font-family="Helvetica,sans-Serif" font-size="8.00" fill="#000000">ThObservable</text>
</a>
</g>
</g>
<!-- Node3&#45;&gt;Node2 -->
<g id="edge1" class="edge">
<title>Node3&#45;&gt;Node2</title>
<path fill="none" stroke="#191970" d="M179.1539,-62.4004C179.092,-56.6829 178.4282,-50.4609 176.5,-45 174.1652,-38.3874 169.8808,-32.0435 165.5712,-26.804"/>
<polygon fill="#191970" stroke="#191970" points="175.6553,-62.2939 178.7056,-72.4401 182.6483,-62.6063 175.6553,-62.2939"/>
</g>
<!-- Node4 -->
<g id="node3" class="node">
<title>Node4</title>
<g id="a_node3"><a xlink:href="../../dc/dd5/class_standard_model.html" target="_top" xlink:title="A model class for the Standard Model. ">
<polygon fill="none" stroke="#ff0000" points="212,-140 212,-157 283,-157 283,-140 212,-140"/>
<text text-anchor="middle" x="247.5" y="-146.6" font-family="Helvetica,sans-Serif" font-size="8.00" fill="#000000">StandardModel</text>
</a>
</g>
</g>
<!-- Node4&#45;&gt;Node3 -->
<g id="edge2" class="edge">
<title>Node4&#45;&gt;Node3</title>
<path fill="none" stroke="#9a32cd" stroke-dasharray="5,2" d="M231.1902,-132.7727C217.2749,-119.3544 197.782,-100.5576 186.5147,-89.6927"/>
<polygon fill="#9a32cd" stroke="#9a32cd" points="229.0065,-135.5292 238.6345,-139.9511 233.8655,-130.4902 229.0065,-135.5292"/>
<text text-anchor="middle" x="223" y="-110.6" font-family="Helvetica,sans-Serif" font-size="8.00" fill="#000000"> SM</text>
</g>
<!-- Node9 -->
<g id="node6" class="node">
<title>Node9</title>
<g id="a_node6"><a xlink:href="../../dc/df3/class_e_w_s_mcache.html" target="_top" xlink:title="A class for cache variables used in computing radiative corrections to the EW precision observables...">
<polygon fill="none" stroke="#ff0000" points="347,-72.5 347,-89.5 410,-89.5 410,-72.5 347,-72.5"/>
<text text-anchor="middle" x="378.5" y="-79.1" font-family="Helvetica,sans-Serif" font-size="8.00" fill="#000000">EWSMcache</text>
</a>
</g>
</g>
<!-- Node4&#45;&gt;Node9 -->
<g id="edge6" class="edge">
<title>Node4&#45;&gt;Node9</title>
<path fill="none" stroke="#9a32cd" stroke-dasharray="5,2" d="M273.0529,-135.3334C299.2251,-121.8477 339.1643,-101.2684 361.6297,-89.6927"/>
<polygon fill="#9a32cd" stroke="#9a32cd" points="271.3774,-132.2594 264.0912,-139.9511 274.5837,-138.4819 271.3774,-132.2594"/>
<text text-anchor="middle" x="332" y="-110.6" font-family="Helvetica,sans-Serif" font-size="8.00" fill="#000000"> SM</text>
</g>
<!-- Node47 -->
<g id="node8" class="node">
<title>Node47</title>
<g id="a_node8"><a xlink:href="../../d0/d52/class_t_h_d_m.html" target="_top" xlink:title="A base class for &#160;symmetric Two&#45;Higgs&#45;Doublet models. ">
<polygon fill="none" stroke="#000000" points="68.5,-72.5 68.5,-89.5 108.5,-89.5 108.5,-72.5 68.5,-72.5"/>
<text text-anchor="middle" x="88.5" y="-79.1" font-family="Helvetica,sans-Serif" font-size="8.00" fill="#000000">THDM</text>
</a>
</g>
</g>
<!-- Node4&#45;&gt;Node47 -->
<g id="edge10" class="edge">
<title>Node4&#45;&gt;Node47</title>
<path fill="none" stroke="#191970" d="M218.1146,-136.0251C186.3021,-122.5198 136.4124,-101.3402 108.7245,-89.5859"/>
<polygon fill="#191970" stroke="#191970" points="216.7899,-139.265 227.3625,-139.9511 219.5254,-132.8216 216.7899,-139.265"/>
</g>
<!-- Node5 -->
<g id="node4" class="node">
<title>Node5</title>
<g id="a_node4"><a xlink:href="../../dd/dfa/class_q_c_d.html" target="_top" xlink:title="A class for parameters related to QCD, hadrons and quarks. ">
<polygon fill="none" stroke="#ff0000" points="176.5,-212 176.5,-229 210.5,-229 210.5,-212 176.5,-212"/>
<text text-anchor="middle" x="193.5" y="-218.6" font-family="Helvetica,sans-Serif" font-size="8.00" fill="#000000">QCD</text>
</a>
</g>
</g>
<!-- Node5&#45;&gt;Node4 -->
<g id="edge3" class="edge">
<title>Node5&#45;&gt;Node4</title>
<path fill="none" stroke="#191970" d="M206.0517,-203.7643C217.0208,-189.139 232.4997,-168.5004 241.1018,-157.031"/>
<polygon fill="#191970" stroke="#191970" points="203.1066,-201.8579 199.9066,-211.9579 208.7066,-206.0579 203.1066,-201.8579"/>
</g>
<!-- Node8 -->
<g id="node5" class="node">
<title>Node8</title>
<g id="a_node5"><a xlink:href="../../db/d32/class_e_w_s_m_two_fermions_l_e_p2.html" target="_top" xlink:title="A class for the form factors , &#160;and &#160;in the processes &#160;at LEP&#45;II. ">
<polygon fill="none" stroke="#ff0000" points="233,-5 233,-22 342,-22 342,-5 233,-5"/>
<text text-anchor="middle" x="287.5" y="-11.6" font-family="Helvetica,sans-Serif" font-size="8.00" fill="#000000">EWSMTwoFermionsLEP2</text>
</a>
</g>
</g>
<!-- Node8&#45;&gt;Node4 -->
<g id="edge4" class="edge">
<title>Node8&#45;&gt;Node4</title>
<path fill="none" stroke="#9a32cd" stroke-dasharray="5,2" d="M276.5092,-30.9914C269.9387,-42.2753 262.015,-57.5028 257.5,-72 250.092,-95.7864 248.1698,-125.392 247.6725,-139.8041"/>
<polygon fill="#9a32cd" stroke="#9a32cd" points="279.6404,-32.577 281.8152,-22.2078 273.6487,-28.9575 279.6404,-32.577"/>
<text text-anchor="middle" x="298" y="-79.1" font-family="Helvetica,sans-Serif" font-size="8.00" fill="#000000"> myTwoFermionsLEP2</text>
</g>
<!-- Node9&#45;&gt;Node4 -->
<g id="edge7" class="edge">
<title>Node9&#45;&gt;Node4</title>
<path fill="none" stroke="#9a32cd" stroke-dasharray="5,2" d="M364.9541,-97.1117C358.4513,-104.0198 350.1901,-111.7016 341.5,-117 323.5717,-127.9309 301.3828,-135.5974 283.0659,-140.6282"/>
<polygon fill="#9a32cd" stroke="#9a32cd" points="367.6567,-99.3398 371.7003,-89.5469 362.4324,-94.6807 367.6567,-99.3398"/>
<text text-anchor="middle" x="382.5" y="-110.6" font-family="Helvetica,sans-Serif" font-size="8.00" fill="#000000"> myEWSMcache</text>
</g>
<!-- Node9&#45;&gt;Node8 -->
<g id="edge5" class="edge">
<title>Node9&#45;&gt;Node8</title>
<path fill="none" stroke="#9a32cd" stroke-dasharray="5,2" d="M358.8014,-66.3884C340.6368,-52.9147 314.2773,-33.3623 299.2191,-22.1927"/>
<polygon fill="#9a32cd" stroke="#9a32cd" points="356.8579,-69.3046 366.9748,-72.4511 361.0283,-63.6824 356.8579,-69.3046"/>
<text text-anchor="middle" x="352.5" y="-47.6" font-family="Helvetica,sans-Serif" font-size="8.00" fill="#000000"> cache</text>
</g>
<!-- Node15 -->
<g id="node7" class="node">
<title>Node15</title>
<g id="a_node7"><a xlink:href="../../d5/d76/class_matching.html" target="_top" xlink:title="Matching\&lt; StandardModelMatching,\l StandardModel \&gt;">
<polygon fill="none" stroke="#ff0000" points="229,-207.5 229,-233.5 374,-233.5 374,-207.5 229,-207.5"/>
<text text-anchor="start" x="237" y="-223.1" font-family="Helvetica,sans-Serif" font-size="8.00" fill="#000000">Matching&lt; StandardModelMatching,</text>
<text text-anchor="middle" x="301.5" y="-214.1" font-family="Helvetica,sans-Serif" font-size="8.00" fill="#000000"> StandardModel &gt;</text>
</a>
</g>
</g>
<!-- Node15&#45;&gt;Node4 -->
<g id="edge8" class="edge">
<title>Node15&#45;&gt;Node4</title>
<path fill="none" stroke="#9a32cd" stroke-dasharray="5,2" d="M285.4508,-199.1011C274.9079,-185.0439 261.6829,-167.4105 253.9533,-157.1044"/>
<polygon fill="#9a32cd" stroke="#9a32cd" points="282.7955,-201.3941 291.5956,-207.2941 288.3955,-197.1941 282.7955,-201.3941"/>
<text text-anchor="middle" x="288" y="-182.6" font-family="Helvetica,sans-Serif" font-size="8.00" fill="#000000"> SMM</text>
</g>
<!-- Node47&#45;&gt;Node2 -->
<g id="edge9" class="edge">
<title>Node47&#45;&gt;Node2</title>
<path fill="none" stroke="#9a32cd" stroke-dasharray="5,2" d="M105.7879,-65.4797C109.7166,-61.7958 113.8156,-57.8234 117.5,-54 126.0119,-45.167 135.0514,-34.6753 141.8112,-26.5839"/>
<polygon fill="#9a32cd" stroke="#9a32cd" points="103.1467,-63.1534 98.1505,-72.4962 107.8825,-68.3082 103.1467,-63.1534"/>
<text text-anchor="middle" x="143.5" y="-47.6" font-family="Helvetica,sans-Serif" font-size="8.00" fill="#000000"> myTHDM</text>
</g>
<!-- Node48 -->
<g id="node9" class="node">
<title>Node48</title>
<g id="a_node9"><a xlink:href="../../d5/df2/class_t_h_d_mcache.html" target="_top" xlink:title="A class for the caching of some THDM objects. ">
<polygon fill="none" stroke="#ff0000" points="0,-5 0,-22 61,-22 61,-5 0,-5"/>
<text text-anchor="middle" x="30.5" y="-11.6" font-family="Helvetica,sans-Serif" font-size="8.00" fill="#000000">THDMcache</text>
</a>
</g>
</g>
<!-- Node47&#45;&gt;Node48 -->
<g id="edge12" class="edge">
<title>Node47&#45;&gt;Node48</title>
<path fill="none" stroke="#9a32cd" stroke-dasharray="5,2" d="M58.3559,-73.9147C39.9509,-68.9102 18.9385,-61.738 13.5,-54 6.4843,-44.0179 14.8789,-30.6931 22.1614,-22.1033"/>
<polygon fill="#9a32cd" stroke="#9a32cd" points="57.6391,-77.3445 68.1971,-76.4619 59.3931,-70.5678 57.6391,-77.3445"/>
<text text-anchor="middle" x="31.5" y="-47.6" font-family="Helvetica,sans-Serif" font-size="8.00" fill="#000000"> myTHDM</text>
</g>
<!-- Node48&#45;&gt;Node47 -->
<g id="edge11" class="edge">
<title>Node48&#45;&gt;Node47</title>
<path fill="none" stroke="#9a32cd" stroke-dasharray="5,2" d="M41.7582,-30.8036C46.8568,-38.2052 53.156,-46.7851 59.5,-54 65.3143,-60.6125 72.5643,-67.3625 78.3607,-72.4594"/>
<polygon fill="#9a32cd" stroke="#9a32cd" points="44.502,-28.6108 36.029,-22.25 38.6861,-32.5063 44.502,-28.6108"/>
<text text-anchor="middle" x="88.5" y="-47.6" font-family="Helvetica,sans-Serif" font-size="8.00" fill="#000000"> myTHDMcache</text>
</g>
<!-- Node58 -->
<g id="node10" class="node">
<title>Node58</title>
<g id="a_node10"><a xlink:href="../../d5/d76/class_matching.html" target="_top" xlink:title="Matching\&lt; THDMMatching,\l THDM \&gt;">
<polygon fill="none" stroke="#ff0000" points="31.5,-135.5 31.5,-161.5 145.5,-161.5 145.5,-135.5 31.5,-135.5"/>
<text text-anchor="start" x="39.5" y="-151.1" font-family="Helvetica,sans-Serif" font-size="8.00" fill="#000000">Matching&lt; THDMMatching,</text>
<text text-anchor="middle" x="88.5" y="-142.1" font-family="Helvetica,sans-Serif" font-size="8.00" fill="#000000"> THDM &gt;</text>
</a>
</g>
</g>
<!-- Node58&#45;&gt;Node47 -->
<g id="edge13" class="edge">
<title>Node58&#45;&gt;Node47</title>
<path fill="none" stroke="#9a32cd" stroke-dasharray="5,2" d="M88.5,-125.3987C88.5,-113.0883 88.5,-98.6721 88.5,-89.6863"/>
<polygon fill="#9a32cd" stroke="#9a32cd" points="85.0001,-125.4853 88.5,-135.4853 92.0001,-125.4854 85.0001,-125.4853"/>
<text text-anchor="middle" x="104.5" y="-110.6" font-family="Helvetica,sans-Serif" font-size="8.00" fill="#000000"> THDMM</text>
</g>
</g>
</svg>
