<?xml version="1.0" encoding="UTF-8" standalone="no"?>
<!DOCTYPE svg PUBLIC "-//W3C//DTD SVG 1.1//EN"
 "http://www.w3.org/Graphics/SVG/1.1/DTD/svg11.dtd">
<!-- Generated by graphviz version 2.40.1 (20161225.0304)
 -->
<!-- Title: MinimalSupersymmetricStandardModel.hpp Pages: 1 -->
<svg width="426pt" height="260pt"
 viewBox="0.00 0.00 426.00 260.00" xmlns="http://www.w3.org/2000/svg" xmlns:xlink="http://www.w3.org/1999/xlink">
<g id="graph0" class="graph" transform="scale(1 1) rotate(0) translate(4 256)">
<title>MinimalSupersymmetricStandardModel.hpp</title>
<!-- Node59 -->
<g id="node1" class="node">
<title>Node59</title>
<polygon fill="#bfbfbf" stroke="#000000" points="115.5,-225.5 115.5,-251.5 249.5,-251.5 249.5,-225.5 115.5,-225.5"/>
<text text-anchor="start" x="123.5" y="-241.1" font-family="Helvetica,sans-Serif" font-size="8.00" fill="#000000">MinimalSupersymmetricStandard</text>
<text text-anchor="middle" x="182.5" y="-232.1" font-family="Helvetica,sans-Serif" font-size="8.00" fill="#000000">Model.hpp</text>
</g>
<!-- Node60 -->
<g id="node2" class="node">
<title>Node60</title>
<g id="a_node2"><a xlink:href="../../d0/d81/_default_spectra_8hpp.html" target="_top" xlink:title="DefaultSpectra.hpp">
<polygon fill="none" stroke="#000000" points="97,-108.5 97,-125.5 182,-125.5 182,-108.5 97,-108.5"/>
<text text-anchor="middle" x="139.5" y="-115.1" font-family="Helvetica,sans-Serif" font-size="8.00" fill="#000000">DefaultSpectra.hpp</text>
</a>
</g>
</g>
<!-- Node59&#45;&gt;Node60 -->
<g id="edge1" class="edge">
<title>Node59&#45;&gt;Node60</title>
<path fill="none" stroke="#191970" d="M141.5553,-220.4333C128.9527,-212.6858 116.5512,-202.3006 109.5,-189 97.8293,-166.9856 118.4333,-139.4216 130.9462,-125.6582"/>
<polygon fill="#191970" stroke="#191970" points="139.8263,-223.4764 150.249,-225.3788 143.2876,-217.392 139.8263,-223.4764"/>
</g>
<!-- Node117 -->
<g id="node9" class="node">
<title>Node117</title>
<g id="a_node9"><a xlink:href="../../d3/d26/_next_to_minimal_supersymmetric_standard_model_8hpp.html" target="_top" xlink:title="NextToMinimalSupersymmetric\lStandardModel.hpp">
<polygon fill="none" stroke="#000000" points="118.5,-162.5 118.5,-188.5 246.5,-188.5 246.5,-162.5 118.5,-162.5"/>
<text text-anchor="start" x="126.5" y="-178.1" font-family="Helvetica,sans-Serif" font-size="8.00" fill="#000000">NextToMinimalSupersymmetric</text>
<text text-anchor="middle" x="182.5" y="-169.1" font-family="Helvetica,sans-Serif" font-size="8.00" fill="#000000">StandardModel.hpp</text>
</a>
</g>
</g>
<!-- Node59&#45;&gt;Node117 -->
<g id="edge8" class="edge">
<title>Node59&#45;&gt;Node117</title>
<path fill="none" stroke="#191970" d="M182.5,-215.1641C182.5,-206.1693 182.5,-196.2205 182.5,-188.5369"/>
<polygon fill="#191970" stroke="#191970" points="179.0001,-215.4463 182.5,-225.4464 186.0001,-215.4464 179.0001,-215.4463"/>
</g>
<!-- Node118 -->
<g id="node10" class="node">
<title>Node118</title>
<g id="a_node10"><a xlink:href="../../d1/d34/_m_s_c_8hpp.html" target="_top" xlink:title="MSC.hpp">
<polygon fill="none" stroke="#000000" points="200.5,-108.5 200.5,-125.5 250.5,-125.5 250.5,-108.5 200.5,-108.5"/>
<text text-anchor="middle" x="225.5" y="-115.1" font-family="Helvetica,sans-Serif" font-size="8.00" fill="#000000">MSC.hpp</text>
</a>
</g>
</g>
<!-- Node59&#45;&gt;Node118 -->
<g id="edge12" class="edge">
<title>Node59&#45;&gt;Node118</title>
<path fill="none" stroke="#191970" d="M223.4447,-220.4333C236.0473,-212.6858 248.4488,-202.3006 255.5,-189 267.1707,-166.9856 246.5667,-139.4216 234.0538,-125.6582"/>
<polygon fill="#191970" stroke="#191970" points="221.7124,-217.392 214.751,-225.3788 225.1737,-223.4764 221.7124,-217.392"/>
</g>
<!-- Node61 -->
<g id="node3" class="node">
<title>Node61</title>
<g id="a_node3"><a xlink:href="../../dd/d0e/_m_e_c_8hpp.html" target="_top" xlink:title="MEC.hpp">
<polygon fill="none" stroke="#ff0000" points="192.5,-54.5 192.5,-71.5 242.5,-71.5 242.5,-54.5 192.5,-54.5"/>
<text text-anchor="middle" x="217.5" y="-61.1" font-family="Helvetica,sans-Serif" font-size="8.00" fill="#000000">MEC.hpp</text>
</a>
</g>
</g>
<!-- Node60&#45;&gt;Node61 -->
<g id="edge2" class="edge">
<title>Node60&#45;&gt;Node61</title>
<path fill="none" stroke="#191970" d="M160.268,-102.6221C174.5171,-92.7574 192.9562,-79.9919 204.9991,-71.6545"/>
<polygon fill="#191970" stroke="#191970" points="158.2617,-99.7541 152.032,-108.324 162.2462,-105.5095 158.2617,-99.7541"/>
</g>
<!-- Node101 -->
<g id="node8" class="node">
<title>Node101</title>
<g id="a_node8"><a xlink:href="../../d4/d42/_s_l_h_a_8hpp.html" target="_top" xlink:title="SLHA.hpp">
<polygon fill="none" stroke="#ff0000" points="113,-54.5 113,-71.5 166,-71.5 166,-54.5 113,-54.5"/>
<text text-anchor="middle" x="139.5" y="-61.1" font-family="Helvetica,sans-Serif" font-size="8.00" fill="#000000">SLHA.hpp</text>
</a>
</g>
</g>
<!-- Node60&#45;&gt;Node101 -->
<g id="edge7" class="edge">
<title>Node60&#45;&gt;Node101</title>
<path fill="none" stroke="#191970" d="M139.5,-97.8045C139.5,-88.9102 139.5,-78.7798 139.5,-71.7511"/>
<polygon fill="#191970" stroke="#191970" points="136.0001,-98.083 139.5,-108.083 143.0001,-98.083 136.0001,-98.083"/>
</g>
<!-- Node62 -->
<g id="node4" class="node">
<title>Node62</title>
<g id="a_node4"><a xlink:href="../../dd/d50/_standard_preselector_8hpp.html" target="_top" xlink:title="StandardPreselector.hpp">
<polygon fill="none" stroke="#ff0000" points="0,-.5 0,-17.5 105,-17.5 105,-.5 0,-.5"/>
<text text-anchor="middle" x="52.5" y="-7.1" font-family="Helvetica,sans-Serif" font-size="8.00" fill="#000000">StandardPreselector.hpp</text>
</a>
</g>
</g>
<!-- Node61&#45;&gt;Node62 -->
<g id="edge3" class="edge">
<title>Node61&#45;&gt;Node62</title>
<path fill="none" stroke="#191970" d="M182.8681,-51.6659C151.7646,-41.4866 106.7827,-26.7652 78.6149,-17.5467"/>
<polygon fill="#191970" stroke="#191970" points="181.8474,-55.0145 192.4401,-54.7986 184.0247,-48.3617 181.8474,-55.0145"/>
</g>
<!-- Node83 -->
<g id="node5" class="node">
<title>Node83</title>
<g id="a_node5"><a xlink:href="../../d9/de5/_extended_mass_8cpp.html" target="_top" xlink:title="ExtendedMass.cpp">
<polygon fill="none" stroke="#000000" points="123,-.5 123,-17.5 208,-17.5 208,-.5 123,-.5"/>
<text text-anchor="middle" x="165.5" y="-7.1" font-family="Helvetica,sans-Serif" font-size="8.00" fill="#000000">ExtendedMass.cpp</text>
</a>
</g>
</g>
<!-- Node61&#45;&gt;Node83 -->
<g id="edge4" class="edge">
<title>Node61&#45;&gt;Node83</title>
<path fill="none" stroke="#191970" d="M201.8206,-46.7175C192.6553,-37.1997 181.4474,-25.5608 173.927,-17.7511"/>
<polygon fill="#191970" stroke="#191970" points="199.4557,-49.3075 208.9133,-54.083 204.4979,-44.452 199.4557,-49.3075"/>
</g>
<!-- Node84 -->
<g id="node6" class="node">
<title>Node84</title>
<g id="a_node6"><a xlink:href="../../de/d33/_mass_eigenstate_8cpp.html" target="_top" xlink:title="MassEigenstate.cpp">
<polygon fill="none" stroke="#000000" points="226,-.5 226,-17.5 315,-17.5 315,-.5 226,-.5"/>
<text text-anchor="middle" x="270.5" y="-7.1" font-family="Helvetica,sans-Serif" font-size="8.00" fill="#000000">MassEigenstate.cpp</text>
</a>
</g>
</g>
<!-- Node61&#45;&gt;Node84 -->
<g id="edge5" class="edge">
<title>Node61&#45;&gt;Node84</title>
<path fill="none" stroke="#191970" d="M233.4809,-46.7175C242.8225,-37.1997 254.2459,-25.5608 261.911,-17.7511"/>
<polygon fill="#191970" stroke="#191970" points="230.7587,-44.4945 226.2519,-54.083 235.7545,-49.3978 230.7587,-44.4945"/>
</g>
<!-- Node85 -->
<g id="node7" class="node">
<title>Node85</title>
<g id="a_node7"><a xlink:href="../../dd/d07/_mass_spectrum_8cpp.html" target="_top" xlink:title="MassSpectrum.cpp">
<polygon fill="none" stroke="#000000" points="333,-.5 333,-17.5 418,-17.5 418,-.5 333,-.5"/>
<text text-anchor="middle" x="375.5" y="-7.1" font-family="Helvetica,sans-Serif" font-size="8.00" fill="#000000">MassSpectrum.cpp</text>
</a>
</g>
</g>
<!-- Node61&#45;&gt;Node85 -->
<g id="edge6" class="edge">
<title>Node61&#45;&gt;Node85</title>
<path fill="none" stroke="#191970" d="M252.1077,-51.172C281.8589,-41.0039 324.0471,-26.5852 350.5816,-17.5164"/>
<polygon fill="#191970" stroke="#191970" points="250.8662,-47.8975 242.5356,-54.4435 253.1301,-54.5213 250.8662,-47.8975"/>
</g>
<!-- Node117&#45;&gt;Node60 -->
<g id="edge9" class="edge">
<title>Node117&#45;&gt;Node60</title>
<path fill="none" stroke="#191970" d="M166.7317,-154.0478C159.5171,-144.2325 151.3735,-133.1535 145.8868,-125.689"/>
<polygon fill="#191970" stroke="#191970" points="163.9999,-156.2409 172.7426,-162.2254 169.6401,-152.095 163.9999,-156.2409"/>
</g>
<!-- Node117&#45;&gt;Node118 -->
<g id="edge10" class="edge">
<title>Node117&#45;&gt;Node118</title>
<path fill="none" stroke="#191970" d="M198.2683,-154.0478C205.4829,-144.2325 213.6265,-133.1535 219.1132,-125.689"/>
<polygon fill="#191970" stroke="#191970" points="195.3599,-152.095 192.2574,-162.2254 201.0001,-156.2409 195.3599,-152.095"/>
</g>
<!-- Node118&#45;&gt;Node61 -->
<g id="edge11" class="edge">
<title>Node118&#45;&gt;Node61</title>
<path fill="none" stroke="#191970" d="M222.7001,-98.1005C221.372,-89.1357 219.8493,-78.8579 218.7965,-71.7511"/>
<polygon fill="#191970" stroke="#191970" points="219.2512,-98.7039 224.179,-108.083 226.1756,-97.678 219.2512,-98.7039"/>
</g>
</g>
</svg>
