<?xml version="1.0" encoding="UTF-8" standalone="no"?>
<!DOCTYPE svg PUBLIC "-//W3C//DTD SVG 1.1//EN"
 "http://www.w3.org/Graphics/SVG/1.1/DTD/svg11.dtd">
<!-- Generated by graphviz version 2.40.1 (20161225.0304)
 -->
<!-- Title: Polylogarithms.h Pages: 1 -->
<svg width="636pt" height="143pt"
 viewBox="0.00 0.00 635.50 143.00" xmlns="http://www.w3.org/2000/svg" xmlns:xlink="http://www.w3.org/1999/xlink">
<g id="graph0" class="graph" transform="scale(1 1) rotate(0) translate(4 139)">
<title>Polylogarithms.h</title>
<!-- Node18 -->
<g id="node1" class="node">
<title>Node18</title>
<polygon fill="#bfbfbf" stroke="#000000" points="314,-117.5 314,-134.5 390,-134.5 390,-117.5 314,-117.5"/>
<text text-anchor="middle" x="352" y="-124.1" font-family="Helvetica,sans-Serif" font-size="8.00" fill="#000000">Polylogarithms.h</text>
</g>
<!-- Node19 -->
<g id="node2" class="node">
<title>Node19</title>
<g id="a_node2"><a xlink:href="../../dd/d8b/bsgamma_8h.html" target="_top" xlink:title="bsgamma.h">
<polygon fill="none" stroke="#ff0000" points="0,-63.5 0,-80.5 58,-80.5 58,-63.5 0,-63.5"/>
<text text-anchor="middle" x="29" y="-70.1" font-family="Helvetica,sans-Serif" font-size="8.00" fill="#000000">bsgamma.h</text>
</a>
</g>
</g>
<!-- Node18&#45;&gt;Node19 -->
<g id="edge1" class="edge">
<title>Node18&#45;&gt;Node19</title>
<path fill="none" stroke="#191970" d="M303.4334,-119.4775C246.5512,-111.5736 149.5869,-97.2756 67,-81 64.2062,-80.4494 61.3064,-79.8373 58.4104,-79.1985"/>
<polygon fill="#191970" stroke="#191970" points="303.1908,-122.9772 313.5756,-120.878 304.1484,-116.0429 303.1908,-122.9772"/>
</g>
<!-- Node23 -->
<g id="node3" class="node">
<title>Node23</title>
<g id="a_node3"><a xlink:href="../../d4/dbe/_general_t_h_d_m_matching_8h.html" target="_top" xlink:title="GeneralTHDMMatching.h">
<polygon fill="none" stroke="#ff0000" points="76.5,-63.5 76.5,-80.5 183.5,-80.5 183.5,-63.5 76.5,-63.5"/>
<text text-anchor="middle" x="130" y="-70.1" font-family="Helvetica,sans-Serif" font-size="8.00" fill="#000000">GeneralTHDMMatching.h</text>
</a>
</g>
</g>
<!-- Node18&#45;&gt;Node23 -->
<g id="edge2" class="edge">
<title>Node18&#45;&gt;Node23</title>
<path fill="none" stroke="#191970" d="M306.8753,-115.0237C264.9396,-104.8232 203.3482,-89.8414 165.012,-80.5164"/>
<polygon fill="#191970" stroke="#191970" points="306.2795,-118.4808 316.8234,-117.4435 307.934,-111.6791 306.2795,-118.4808"/>
</g>
<!-- Node50 -->
<g id="node4" class="node">
<title>Node50</title>
<g id="a_node4"><a xlink:href="../../df/d62/_polylogarithms_8cpp.html" target="_top" xlink:title="Polylogarithms.cpp">
<polygon fill="none" stroke="#000000" points="202,-63.5 202,-80.5 286,-80.5 286,-63.5 202,-63.5"/>
<text text-anchor="middle" x="244" y="-70.1" font-family="Helvetica,sans-Serif" font-size="8.00" fill="#000000">Polylogarithms.cpp</text>
</a>
</g>
</g>
<!-- Node18&#45;&gt;Node50 -->
<g id="edge3" class="edge">
<title>Node18&#45;&gt;Node50</title>
<path fill="none" stroke="#191970" d="M325.4522,-112.7261C305.4542,-102.7271 278.613,-89.3065 261.309,-80.6545"/>
<polygon fill="#191970" stroke="#191970" points="324.1384,-115.9823 334.6479,-117.324 327.2689,-109.7213 324.1384,-115.9823"/>
</g>
<!-- Node51 -->
<g id="node5" class="node">
<title>Node51</title>
<g id="a_node5"><a xlink:href="../../d3/d6b/_p_vfunctions_8h.html" target="_top" xlink:title="PVfunctions.h">
<polygon fill="none" stroke="#ff0000" points="380,-63.5 380,-80.5 446,-80.5 446,-63.5 380,-63.5"/>
<text text-anchor="middle" x="413" y="-70.1" font-family="Helvetica,sans-Serif" font-size="8.00" fill="#000000">PVfunctions.h</text>
</a>
</g>
</g>
<!-- Node18&#45;&gt;Node51 -->
<g id="edge4" class="edge">
<title>Node18&#45;&gt;Node51</title>
<path fill="none" stroke="#191970" d="M369.4672,-110.5372C380.3438,-100.9087 393.9439,-88.8694 403.021,-80.8339"/>
<polygon fill="#191970" stroke="#191970" points="366.9684,-108.0749 361.8007,-117.324 371.6083,-113.3162 366.9684,-108.0749"/>
</g>
<!-- Node53 -->
<g id="node6" class="node">
<title>Node53</title>
<g id="a_node6"><a xlink:href="../../d8/d46/_e_w_s_mcache_8h.html" target="_top" xlink:title="EWSMcache.h">
<polygon fill="none" stroke="#ff0000" points="201.5,-5 201.5,-22 270.5,-22 270.5,-5 201.5,-5"/>
<text text-anchor="middle" x="236" y="-11.6" font-family="Helvetica,sans-Serif" font-size="8.00" fill="#000000">EWSMcache.h</text>
</a>
</g>
</g>
<!-- Node18&#45;&gt;Node53 -->
<g id="edge9" class="edge">
<title>Node18&#45;&gt;Node53</title>
<path fill="none" stroke="#191970" d="M338.0662,-109.3802C326.8714,-96.3342 310.5109,-77.9417 295,-63 279.2077,-47.7872 259.4356,-31.751 247.2641,-22.1897"/>
<polygon fill="#191970" stroke="#191970" points="335.4744,-111.7354 344.6159,-117.0911 340.8096,-107.2036 335.4744,-111.7354"/>
</g>
<!-- Node60 -->
<g id="node7" class="node">
<title>Node60</title>
<g id="a_node7"><a xlink:href="../../dc/dad/_e_w_s_m_two_fermions_l_e_p2_8h.html" target="_top" xlink:title="EWSMTwoFermionsLEP2.h">
<polygon fill="none" stroke="#ff0000" points="289,-5 289,-22 405,-22 405,-5 289,-5"/>
<text text-anchor="middle" x="347" y="-11.6" font-family="Helvetica,sans-Serif" font-size="8.00" fill="#000000">EWSMTwoFermionsLEP2.h</text>
</a>
</g>
</g>
<!-- Node18&#45;&gt;Node60 -->
<g id="edge10" class="edge">
<title>Node18&#45;&gt;Node60</title>
<path fill="none" stroke="#191970" d="M351.1522,-106.9242C350.057,-82.2822 348.1958,-40.4059 347.3905,-22.2867"/>
<polygon fill="#191970" stroke="#191970" points="347.667,-107.3376 351.6077,-117.1723 354.6601,-107.0267 347.667,-107.3376"/>
</g>
<!-- Node78 -->
<g id="node8" class="node">
<title>Node78</title>
<g id="a_node8"><a xlink:href="../../d2/d93/_e_w_s_m_two_fermions_l_e_p2___hollik_8h.html" target="_top" xlink:title="EWSMTwoFermionsLEP2\l_Hollik.h">
<polygon fill="none" stroke="#ff0000" points="423.5,-.5 423.5,-26.5 532.5,-26.5 532.5,-.5 423.5,-.5"/>
<text text-anchor="start" x="431.5" y="-16.1" font-family="Helvetica,sans-Serif" font-size="8.00" fill="#000000">EWSMTwoFermionsLEP2</text>
<text text-anchor="middle" x="478" y="-7.1" font-family="Helvetica,sans-Serif" font-size="8.00" fill="#000000">_Hollik.h</text>
</a>
</g>
</g>
<!-- Node18&#45;&gt;Node78 -->
<g id="edge11" class="edge">
<title>Node18&#45;&gt;Node78</title>
<path fill="none" stroke="#191970" d="M399.7002,-114.3473C419.1076,-107.4784 440.3649,-96.9112 455,-81 469.0805,-65.6919 474.5856,-41.4058 476.7066,-26.5181"/>
<polygon fill="#191970" stroke="#191970" points="398.467,-111.0684 390.0629,-117.52 400.6559,-117.7174 398.467,-111.0684"/>
</g>
<!-- Node80 -->
<g id="node9" class="node">
<title>Node80</title>
<g id="a_node9"><a xlink:href="../../dd/dc9/_s_u_s_y_matching_8h.html" target="_top" xlink:title="SUSYMatching.h">
<polygon fill="none" stroke="#ff0000" points="550.5,-5 550.5,-22 627.5,-22 627.5,-5 550.5,-5"/>
<text text-anchor="middle" x="589" y="-11.6" font-family="Helvetica,sans-Serif" font-size="8.00" fill="#000000">SUSYMatching.h</text>
</a>
</g>
</g>
<!-- Node18&#45;&gt;Node80 -->
<g id="edge12" class="edge">
<title>Node18&#45;&gt;Node80</title>
<path fill="none" stroke="#191970" d="M389.3475,-114.1467C413.8634,-105.9009 446.3812,-94.0724 474,-81 512.5018,-62.7766 555.0664,-35.8787 575.9635,-22.1902"/>
<polygon fill="#191970" stroke="#191970" points="388.0938,-110.8749 379.7038,-117.3448 390.2972,-117.5191 388.0938,-110.8749"/>
</g>
<!-- Node153 -->
<g id="node10" class="node">
<title>Node153</title>
<g id="a_node10"><a xlink:href="../../d4/d00/_t_h_d_m_w_matching_8h.html" target="_top" xlink:title="THDMWMatching.h">
<polygon fill="none" stroke="#ff0000" points="540,-63.5 540,-80.5 626,-80.5 626,-63.5 540,-63.5"/>
<text text-anchor="middle" x="583" y="-70.1" font-family="Helvetica,sans-Serif" font-size="8.00" fill="#000000">THDMWMatching.h</text>
</a>
</g>
</g>
<!-- Node18&#45;&gt;Node153 -->
<g id="edge13" class="edge">
<title>Node18&#45;&gt;Node153</title>
<path fill="none" stroke="#191970" d="M398.4017,-115.1529C442.0474,-104.95 506.5096,-89.8809 546.5686,-80.5164"/>
<polygon fill="#191970" stroke="#191970" points="397.5434,-111.7591 388.6026,-117.4435 399.1368,-118.5753 397.5434,-111.7591"/>
</g>
<!-- Node51&#45;&gt;Node53 -->
<g id="edge5" class="edge">
<title>Node51&#45;&gt;Node53</title>
<path fill="none" stroke="#191970" d="M377.6531,-60.3175C343.4177,-49.0025 292.3253,-32.116 261.7684,-22.0167"/>
<polygon fill="#191970" stroke="#191970" points="376.6695,-63.6786 387.2627,-63.4936 378.8662,-57.0322 376.6695,-63.6786"/>
</g>
<!-- Node51&#45;&gt;Node60 -->
<g id="edge6" class="edge">
<title>Node51&#45;&gt;Node60</title>
<path fill="none" stroke="#191970" d="M395.765,-56.7235C383.3449,-45.7148 367.0304,-31.2543 356.7785,-22.1673"/>
<polygon fill="#191970" stroke="#191970" points="393.4564,-59.3542 403.2615,-63.3681 398.0996,-54.1158 393.4564,-59.3542"/>
</g>
<!-- Node51&#45;&gt;Node78 -->
<g id="edge7" class="edge">
<title>Node51&#45;&gt;Node78</title>
<path fill="none" stroke="#191970" d="M430.1791,-56.5388C440.4931,-47.2562 453.4765,-35.5711 463.3114,-26.7197"/>
<polygon fill="#191970" stroke="#191970" points="427.6826,-54.0769 422.591,-63.3681 432.3653,-59.28 427.6826,-54.0769"/>
</g>
<!-- Node51&#45;&gt;Node80 -->
<g id="edge8" class="edge">
<title>Node51&#45;&gt;Node80</title>
<path fill="none" stroke="#191970" d="M448.1472,-60.3175C482.1892,-49.0025 532.9929,-32.116 563.3772,-22.0167"/>
<polygon fill="#191970" stroke="#191970" points="446.9775,-57.018 438.5919,-63.4936 449.1854,-63.6607 446.9775,-57.018"/>
</g>
</g>
</svg>
