<?xml version="1.0" encoding="UTF-8" standalone="no"?>
<!DOCTYPE svg PUBLIC "-//W3C//DTD SVG 1.1//EN"
 "http://www.w3.org/Graphics/SVG/1.1/DTD/svg11.dtd">
<!-- Generated by graphviz version 2.40.1 (20161225.0304)
 -->
<!-- Title: CMFV.h Pages: 1 -->
<svg width="266pt" height="80pt"
 viewBox="0.00 0.00 266.00 80.00" xmlns="http://www.w3.org/2000/svg" xmlns:xlink="http://www.w3.org/1999/xlink">
<g id="graph0" class="graph" transform="scale(1 1) rotate(0) translate(4 76)">
<title>CMFV.h</title>
<!-- Node50 -->
<g id="node1" class="node">
<title>Node50</title>
<polygon fill="#bfbfbf" stroke="#000000" points="93,-54.5 93,-71.5 139,-71.5 139,-54.5 93,-54.5"/>
<text text-anchor="middle" x="116" y="-61.1" font-family="Helvetica,sans-Serif" font-size="8.00" fill="#000000">CMFV.h</text>
</g>
<!-- Node51 -->
<g id="node2" class="node">
<title>Node51</title>
<g id="a_node2"><a xlink:href="../../d8/d33/_c_m_f_v_8cpp.html" target="_top" xlink:title="CMFV.cpp">
<polygon fill="none" stroke="#000000" points="0,-.5 0,-17.5 54,-17.5 54,-.5 0,-.5"/>
<text text-anchor="middle" x="27" y="-7.1" font-family="Helvetica,sans-Serif" font-size="8.00" fill="#000000">CMFV.cpp</text>
</a>
</g>
</g>
<!-- Node50&#45;&gt;Node51 -->
<g id="edge1" class="edge">
<title>Node50&#45;&gt;Node51</title>
<path fill="none" stroke="#191970" d="M92.762,-48.9005C76.4422,-38.9986 55.1348,-26.0705 41.2639,-17.6545"/>
<polygon fill="#191970" stroke="#191970" points="91.3356,-52.1289 101.7006,-54.324 94.9668,-46.1444 91.3356,-52.1289"/>
</g>
<!-- Node52 -->
<g id="node3" class="node">
<title>Node52</title>
<g id="a_node3"><a xlink:href="../../d4/df2/_c_m_f_v_matching_8cpp.html" target="_top" xlink:title="CMFVMatching.cpp">
<polygon fill="none" stroke="#000000" points="72.5,-.5 72.5,-17.5 159.5,-17.5 159.5,-.5 72.5,-.5"/>
<text text-anchor="middle" x="116" y="-7.1" font-family="Helvetica,sans-Serif" font-size="8.00" fill="#000000">CMFVMatching.cpp</text>
</a>
</g>
</g>
<!-- Node50&#45;&gt;Node52 -->
<g id="edge2" class="edge">
<title>Node50&#45;&gt;Node52</title>
<path fill="none" stroke="#191970" d="M116,-43.8045C116,-34.9102 116,-24.7798 116,-17.7511"/>
<polygon fill="#191970" stroke="#191970" points="112.5001,-44.083 116,-54.083 119.5001,-44.083 112.5001,-44.083"/>
</g>
<!-- Node53 -->
<g id="node4" class="node">
<title>Node53</title>
<g id="a_node4"><a xlink:href="../../d3/df6/_model_factory_8cpp.html" target="_top" xlink:title="ModelFactory.cpp">
<polygon fill="none" stroke="#000000" points="178,-.5 178,-17.5 258,-17.5 258,-.5 178,-.5"/>
<text text-anchor="middle" x="218" y="-7.1" font-family="Helvetica,sans-Serif" font-size="8.00" fill="#000000">ModelFactory.cpp</text>
</a>
</g>
</g>
<!-- Node50&#45;&gt;Node53 -->
<g id="edge3" class="edge">
<title>Node50&#45;&gt;Node53</title>
<path fill="none" stroke="#191970" d="M141.3309,-49.5895C160.1902,-39.6052 185.3842,-26.2672 201.6526,-17.6545"/>
<polygon fill="#191970" stroke="#191970" points="139.5883,-46.5518 132.3881,-54.324 142.8636,-52.7383 139.5883,-46.5518"/>
</g>
</g>
</svg>
