<?xml version="1.0" encoding="UTF-8" standalone="no"?>
<!DOCTYPE svg PUBLIC "-//W3C//DTD SVG 1.1//EN"
 "http://www.w3.org/Graphics/SVG/1.1/DTD/svg11.dtd">
<!-- Generated by graphviz version 2.40.1 (20161225.0304)
 -->
<!-- Title: STU.h Pages: 1 -->
<svg width="166pt" height="134pt"
 viewBox="0.00 0.00 165.50 134.00" xmlns="http://www.w3.org/2000/svg" xmlns:xlink="http://www.w3.org/1999/xlink">
<g id="graph0" class="graph" transform="scale(1 1) rotate(0) translate(4 130)">
<title>STU.h</title>
<!-- Node58 -->
<g id="node1" class="node">
<title>Node58</title>
<polygon fill="#bfbfbf" stroke="#000000" points="48.5,-108.5 48.5,-125.5 87.5,-125.5 87.5,-108.5 48.5,-108.5"/>
<text text-anchor="middle" x="68" y="-115.1" font-family="Helvetica,sans-Serif" font-size="8.00" fill="#000000">STU.h</text>
</g>
<!-- Node59 -->
<g id="node2" class="node">
<title>Node59</title>
<g id="a_node2"><a xlink:href="../../d3/dc2/_s_t_u_8cpp.html" target="_top" xlink:title="STU.cpp">
<polygon fill="none" stroke="#000000" points="0,-54.5 0,-71.5 48,-71.5 48,-54.5 0,-54.5"/>
<text text-anchor="middle" x="24" y="-61.1" font-family="Helvetica,sans-Serif" font-size="8.00" fill="#000000">STU.cpp</text>
</a>
</g>
</g>
<!-- Node58&#45;&gt;Node59 -->
<g id="edge1" class="edge">
<title>Node58&#45;&gt;Node59</title>
<path fill="none" stroke="#191970" d="M54.2655,-100.144C46.5995,-90.7357 37.3667,-79.4046 31.1305,-71.7511"/>
<polygon fill="#191970" stroke="#191970" points="51.7042,-102.5415 60.7343,-108.083 57.1309,-98.1198 51.7042,-102.5415"/>
</g>
<!-- Node60 -->
<g id="node3" class="node">
<title>Node60</title>
<g id="a_node3"><a xlink:href="../../d0/d3a/_t_h_d_m_observables_8h.html" target="_top" xlink:title="THDMObservables.h">
<polygon fill="none" stroke="#000000" points="66.5,-54.5 66.5,-71.5 157.5,-71.5 157.5,-54.5 66.5,-54.5"/>
<text text-anchor="middle" x="112" y="-61.1" font-family="Helvetica,sans-Serif" font-size="8.00" fill="#000000">THDMObservables.h</text>
</a>
</g>
</g>
<!-- Node58&#45;&gt;Node60 -->
<g id="edge2" class="edge">
<title>Node58&#45;&gt;Node60</title>
<path fill="none" stroke="#191970" d="M81.7345,-100.144C89.4005,-90.7357 98.6333,-79.4046 104.8695,-71.7511"/>
<polygon fill="#191970" stroke="#191970" points="78.8691,-98.1198 75.2657,-108.083 84.2958,-102.5415 78.8691,-98.1198"/>
</g>
<!-- Node61 -->
<g id="node4" class="node">
<title>Node61</title>
<g id="a_node4"><a xlink:href="../../d1/de2/_th_obs_factory_8cpp.html" target="_top" xlink:title="ThObsFactory.cpp">
<polygon fill="none" stroke="#000000" points="71,-.5 71,-17.5 153,-17.5 153,-.5 71,-.5"/>
<text text-anchor="middle" x="112" y="-7.1" font-family="Helvetica,sans-Serif" font-size="8.00" fill="#000000">ThObsFactory.cpp</text>
</a>
</g>
</g>
<!-- Node60&#45;&gt;Node61 -->
<g id="edge3" class="edge">
<title>Node60&#45;&gt;Node61</title>
<path fill="none" stroke="#191970" d="M112,-43.8045C112,-34.9102 112,-24.7798 112,-17.7511"/>
<polygon fill="#191970" stroke="#191970" points="108.5001,-44.083 112,-54.083 115.5001,-44.083 108.5001,-44.083"/>
</g>
</g>
</svg>
