<?xml version="1.0" encoding="UTF-8" standalone="no"?>
<!DOCTYPE svg PUBLIC "-//W3C//DTD SVG 1.1//EN"
 "http://www.w3.org/Graphics/SVG/1.1/DTD/svg11.dtd">
<!-- Generated by graphviz version 2.40.1 (20161225.0304)
 -->
<!-- Title: BR_phi2_HpW_GTHDM Pages: 1 -->
<svg width="476pt" height="288pt"
 viewBox="0.00 0.00 476.00 288.00" xmlns="http://www.w3.org/2000/svg" xmlns:xlink="http://www.w3.org/1999/xlink">
<g id="graph0" class="graph" transform="scale(1 1) rotate(0) translate(4 284)">
<title>BR_phi2_HpW_GTHDM</title>
<!-- Node2 -->
<g id="node1" class="node">
<title>Node2</title>
<polygon fill="#bfbfbf" stroke="#000000" points="0,-.5 0,-17.5 103,-17.5 103,-.5 0,-.5"/>
<text text-anchor="middle" x="51.5" y="-7.1" font-family="Helvetica,sans-Serif" font-size="8.00" fill="#000000">BR_phi2_HpW_GTHDM</text>
</g>
<!-- Node3 -->
<g id="node2" class="node">
<title>Node3</title>
<g id="a_node2"><a xlink:href="../../dc/d1f/class_th_observable.html" target="_top" xlink:title="A class for a model prediction of an observable. ">
<polygon fill="none" stroke="#000000" points="2,-99.5 2,-116.5 69,-116.5 69,-99.5 2,-99.5"/>
<text text-anchor="middle" x="35.5" y="-106.1" font-family="Helvetica,sans-Serif" font-size="8.00" fill="#000000">ThObservable</text>
</a>
</g>
</g>
<!-- Node3&#45;&gt;Node2 -->
<g id="edge1" class="edge">
<title>Node3&#45;&gt;Node2</title>
<path fill="none" stroke="#191970" d="M38.5182,-89.3249C41.9877,-67.8571 47.534,-33.5398 50.1061,-17.6245"/>
<polygon fill="#191970" stroke="#191970" points="35.0603,-88.7841 36.9199,-99.2144 41.9706,-89.9009 35.0603,-88.7841"/>
</g>
<!-- Node4 -->
<g id="node3" class="node">
<title>Node4</title>
<g id="a_node3"><a xlink:href="../../dc/dd5/class_standard_model.html" target="_top" xlink:title="A model class for the Standard Model. ">
<polygon fill="none" stroke="#ff0000" points="248,-207.5 248,-224.5 319,-224.5 319,-207.5 248,-207.5"/>
<text text-anchor="middle" x="283.5" y="-214.1" font-family="Helvetica,sans-Serif" font-size="8.00" fill="#000000">StandardModel</text>
</a>
</g>
</g>
<!-- Node4&#45;&gt;Node3 -->
<g id="edge2" class="edge">
<title>Node4&#45;&gt;Node3</title>
<path fill="none" stroke="#9a32cd" stroke-dasharray="5,2" d="M237.6832,-210.4413C178.8524,-202.4387 81.1559,-185.9522 54.5,-162 41.3415,-150.1762 37.2958,-128.6881 36.052,-116.6914"/>
<polygon fill="#9a32cd" stroke="#9a32cd" points="237.4619,-213.9425 247.8359,-211.7907 238.3843,-207.0036 237.4619,-213.9425"/>
<text text-anchor="middle" x="125" y="-182.6" font-family="Helvetica,sans-Serif" font-size="8.00" fill="#000000"> SM</text>
</g>
<!-- Node9 -->
<g id="node6" class="node">
<title>Node9</title>
<g id="a_node6"><a xlink:href="../../dc/df3/class_e_w_s_mcache.html" target="_top" xlink:title="A class for cache variables used in computing radiative corrections to the EW precision observables...">
<polygon fill="none" stroke="#ff0000" points="405,-140 405,-157 468,-157 468,-140 405,-140"/>
<text text-anchor="middle" x="436.5" y="-146.6" font-family="Helvetica,sans-Serif" font-size="8.00" fill="#000000">EWSMcache</text>
</a>
</g>
</g>
<!-- Node4&#45;&gt;Node9 -->
<g id="edge6" class="edge">
<title>Node4&#45;&gt;Node9</title>
<path fill="none" stroke="#9a32cd" stroke-dasharray="5,2" d="M312.146,-203.362C342.6807,-189.8909 390.213,-168.9207 416.7965,-157.1927"/>
<polygon fill="#9a32cd" stroke="#9a32cd" points="310.614,-200.2124 302.8776,-207.4511 313.4395,-206.6168 310.614,-200.2124"/>
<text text-anchor="middle" x="372" y="-182.6" font-family="Helvetica,sans-Serif" font-size="8.00" fill="#000000"> SM</text>
</g>
<!-- Node48 -->
<g id="node8" class="node">
<title>Node48</title>
<g id="a_node8"><a xlink:href="../../d2/df3/class_n_pbase.html" target="_top" xlink:title="The auxiliary base model class for other model classes. ">
<polygon fill="none" stroke="#000000" points="224,-140 224,-157 269,-157 269,-140 224,-140"/>
<text text-anchor="middle" x="246.5" y="-146.6" font-family="Helvetica,sans-Serif" font-size="8.00" fill="#000000">NPbase</text>
</a>
</g>
</g>
<!-- Node4&#45;&gt;Node48 -->
<g id="edge10" class="edge">
<title>Node4&#45;&gt;Node48</title>
<path fill="none" stroke="#191970" d="M253.9868,-201.8791C249.3692,-198.3354 245.2289,-194.0645 242.5,-189 237.1376,-179.048 240.0407,-165.7157 242.9721,-157.116"/>
<polygon fill="#191970" stroke="#191970" points="252.3206,-204.9705 262.6124,-207.4867 256.136,-199.1017 252.3206,-204.9705"/>
</g>
<!-- Node4&#45;&gt;Node48 -->
<g id="edge11" class="edge">
<title>Node4&#45;&gt;Node48</title>
<path fill="none" stroke="#9a32cd" stroke-dasharray="5,2" d="M269.3965,-199.3772C266.9217,-196.0561 264.5017,-192.5071 262.5,-189 256.5789,-178.6259 251.8719,-165.6301 249.1359,-157.2004"/>
<polygon fill="#9a32cd" stroke="#9a32cd" points="266.8586,-201.8087 275.8259,-207.4512 272.3345,-197.4481 266.8586,-201.8087"/>
<text text-anchor="middle" x="277" y="-182.6" font-family="Helvetica,sans-Serif" font-size="8.00" fill="#000000"> trueSM</text>
</g>
<!-- Node5 -->
<g id="node4" class="node">
<title>Node5</title>
<g id="a_node4"><a xlink:href="../../dd/dfa/class_q_c_d.html" target="_top" xlink:title="A class for parameters related to QCD, hadrons and quarks. ">
<polygon fill="none" stroke="#ff0000" points="266.5,-262.5 266.5,-279.5 300.5,-279.5 300.5,-262.5 266.5,-262.5"/>
<text text-anchor="middle" x="283.5" y="-269.1" font-family="Helvetica,sans-Serif" font-size="8.00" fill="#000000">QCD</text>
</a>
</g>
</g>
<!-- Node5&#45;&gt;Node4 -->
<g id="edge3" class="edge">
<title>Node5&#45;&gt;Node4</title>
<path fill="none" stroke="#191970" d="M283.5,-252.1166C283.5,-242.8173 283.5,-232.0557 283.5,-224.7149"/>
<polygon fill="#191970" stroke="#191970" points="280.0001,-252.4062 283.5,-262.4063 287.0001,-252.4063 280.0001,-252.4062"/>
</g>
<!-- Node8 -->
<g id="node5" class="node">
<title>Node8</title>
<g id="a_node5"><a xlink:href="../../db/d32/class_e_w_s_m_two_fermions_l_e_p2.html" target="_top" xlink:title="A class for the form factors , &#160;and &#160;in the processes &#160;at LEP&#45;II. ">
<polygon fill="none" stroke="#ff0000" points="292,-63.5 292,-80.5 401,-80.5 401,-63.5 292,-63.5"/>
<text text-anchor="middle" x="346.5" y="-70.1" font-family="Helvetica,sans-Serif" font-size="8.00" fill="#000000">EWSMTwoFermionsLEP2</text>
</a>
</g>
</g>
<!-- Node8&#45;&gt;Node4 -->
<g id="edge4" class="edge">
<title>Node8&#45;&gt;Node4</title>
<path fill="none" stroke="#9a32cd" stroke-dasharray="5,2" d="M337.2739,-89.7744C330.8934,-102.2955 322.3528,-119.5203 315.5,-135 303.9932,-160.9927 292.1292,-192.4925 286.6383,-207.3928"/>
<polygon fill="#9a32cd" stroke="#9a32cd" points="340.3951,-91.3582 341.8544,-80.8644 334.1695,-88.1578 340.3951,-91.3582"/>
<text text-anchor="middle" x="356" y="-146.6" font-family="Helvetica,sans-Serif" font-size="8.00" fill="#000000"> myTwoFermionsLEP2</text>
</g>
<!-- Node9&#45;&gt;Node4 -->
<g id="edge7" class="edge">
<title>Node9&#45;&gt;Node4</title>
<path fill="none" stroke="#9a32cd" stroke-dasharray="5,2" d="M419.701,-164.0638C409.8051,-172.5023 396.6744,-182.5038 383.5,-189 363.3392,-198.9411 339.0248,-205.6114 319.4198,-209.8349"/>
<polygon fill="#9a32cd" stroke="#9a32cd" points="422.3138,-166.4255 427.4846,-157.1781 417.6757,-161.1826 422.3138,-166.4255"/>
<text text-anchor="middle" x="427.5" y="-182.6" font-family="Helvetica,sans-Serif" font-size="8.00" fill="#000000"> myEWSMcache</text>
</g>
<!-- Node9&#45;&gt;Node8 -->
<g id="edge5" class="edge">
<title>Node9&#45;&gt;Node8</title>
<path fill="none" stroke="#9a32cd" stroke-dasharray="5,2" d="M418.4162,-133.1288C399.8726,-117.3667 371.6883,-93.4101 356.7037,-80.6732"/>
<polygon fill="#9a32cd" stroke="#9a32cd" points="416.2897,-135.9148 426.1759,-139.7245 420.8232,-130.5812 416.2897,-135.9148"/>
<text text-anchor="middle" x="408.5" y="-106.1" font-family="Helvetica,sans-Serif" font-size="8.00" fill="#000000"> cache</text>
</g>
<!-- Node47 -->
<g id="node7" class="node">
<title>Node47</title>
<g id="a_node7"><a xlink:href="../../d3/d55/class_general_t_h_d_m.html" target="_top" xlink:title="A base class for generic Two&#45;Higgs&#45;Doublet models. ">
<polygon fill="none" stroke="#000000" points="100.5,-63.5 100.5,-80.5 168.5,-80.5 168.5,-63.5 100.5,-63.5"/>
<text text-anchor="middle" x="134.5" y="-70.1" font-family="Helvetica,sans-Serif" font-size="8.00" fill="#000000">GeneralTHDM</text>
</a>
</g>
</g>
<!-- Node47&#45;&gt;Node2 -->
<g id="edge8" class="edge">
<title>Node47&#45;&gt;Node2</title>
<path fill="none" stroke="#9a32cd" stroke-dasharray="5,2" d="M104.6665,-58.9781C97.0821,-55.0193 89.1919,-50.2952 82.5,-45 72.41,-37.016 63.1057,-25.3943 57.3763,-17.5332"/>
<polygon fill="#9a32cd" stroke="#9a32cd" points="103.1482,-62.1317 113.6651,-63.4142 106.2434,-55.8532 103.1482,-62.1317"/>
<text text-anchor="middle" x="104" y="-38.6" font-family="Helvetica,sans-Serif" font-size="8.00" fill="#000000"> myGTHDM</text>
</g>
<!-- Node51 -->
<g id="node10" class="node">
<title>Node51</title>
<g id="a_node10"><a xlink:href="../../dc/dfd/class_general_t_h_d_mcache.html" target="_top" xlink:title="GeneralTHDMcache">
<polygon fill="none" stroke="#ff0000" points="138,-.5 138,-17.5 227,-17.5 227,-.5 138,-.5"/>
<text text-anchor="middle" x="182.5" y="-7.1" font-family="Helvetica,sans-Serif" font-size="8.00" fill="#000000">GeneralTHDMcache</text>
</a>
</g>
</g>
<!-- Node47&#45;&gt;Node51 -->
<g id="edge14" class="edge">
<title>Node47&#45;&gt;Node51</title>
<path fill="none" stroke="#9a32cd" stroke-dasharray="5,2" d="M128.8159,-53.4815C128.0381,-47.5432 128.3863,-41.1715 131.5,-36 136.5642,-27.5888 145.225,-21.6607 153.9865,-17.5472"/>
<polygon fill="#9a32cd" stroke="#9a32cd" points="125.4321,-54.3846 131.0781,-63.3497 132.2551,-52.8204 125.4321,-54.3846"/>
<text text-anchor="middle" x="153" y="-38.6" font-family="Helvetica,sans-Serif" font-size="8.00" fill="#000000"> myGTHDM</text>
</g>
<!-- Node48&#45;&gt;Node47 -->
<g id="edge9" class="edge">
<title>Node48&#45;&gt;Node47</title>
<path fill="none" stroke="#191970" d="M226.7437,-133.8345C213.069,-123.8057 194.3658,-110.3291 177.5,-99 167.9875,-92.6102 157.0475,-85.7475 148.5829,-80.5399"/>
<polygon fill="#191970" stroke="#191970" points="224.8072,-136.7551 234.9339,-139.8697 228.9597,-131.1198 224.8072,-136.7551"/>
</g>
<!-- Node49 -->
<g id="node9" class="node">
<title>Node49</title>
<g id="a_node9"><a xlink:href="../../d5/d76/class_matching.html" target="_top" xlink:title="Matching\&lt; GeneralTHDMMatching,\l GeneralTHDM \&gt;">
<polygon fill="none" stroke="#ff0000" points="63.5,-135.5 63.5,-161.5 205.5,-161.5 205.5,-135.5 63.5,-135.5"/>
<text text-anchor="start" x="71.5" y="-151.1" font-family="Helvetica,sans-Serif" font-size="8.00" fill="#000000">Matching&lt; GeneralTHDMMatching,</text>
<text text-anchor="middle" x="134.5" y="-142.1" font-family="Helvetica,sans-Serif" font-size="8.00" fill="#000000"> GeneralTHDM &gt;</text>
</a>
</g>
</g>
<!-- Node49&#45;&gt;Node47 -->
<g id="edge12" class="edge">
<title>Node49&#45;&gt;Node47</title>
<path fill="none" stroke="#9a32cd" stroke-dasharray="5,2" d="M134.5,-125.0882C134.5,-110.1453 134.5,-91.6269 134.5,-80.8783"/>
<polygon fill="#9a32cd" stroke="#9a32cd" points="131.0001,-125.1747 134.5,-135.1747 138.0001,-125.1748 131.0001,-125.1747"/>
<text text-anchor="middle" x="154" y="-106.1" font-family="Helvetica,sans-Serif" font-size="8.00" fill="#000000"> GTHDMM</text>
</g>
<!-- Node51&#45;&gt;Node47 -->
<g id="edge13" class="edge">
<title>Node51&#45;&gt;Node47</title>
<path fill="none" stroke="#9a32cd" stroke-dasharray="5,2" d="M183.5249,-28.0365C183.0437,-33.8503 181.6623,-40.0175 178.5,-45 173.4092,-53.021 164.9905,-59.0287 156.8726,-63.3152"/>
<polygon fill="#9a32cd" stroke="#9a32cd" points="187.0263,-27.713 183.5725,-17.697 180.0264,-27.6807 187.0263,-27.713"/>
<text text-anchor="middle" x="214.5" y="-38.6" font-family="Helvetica,sans-Serif" font-size="8.00" fill="#000000"> myGTHDMcache</text>
</g>
</g>
</svg>
