<?xml version="1.0" encoding="UTF-8" standalone="no"?>
<!DOCTYPE svg PUBLIC "-//W3C//DTD SVG 1.1//EN"
 "http://www.w3.org/Graphics/SVG/1.1/DTD/svg11.dtd">
<!-- Generated by graphviz version 2.40.1 (20161225.0304)
 -->
<!-- Title: interfaces.hpp Pages: 1 -->
<svg width="146pt" height="80pt"
 viewBox="0.00 0.00 146.00 80.00" xmlns="http://www.w3.org/2000/svg" xmlns:xlink="http://www.w3.org/1999/xlink">
<g id="graph0" class="graph" transform="scale(1 1) rotate(0) translate(4 76)">
<title>interfaces.hpp</title>
<!-- Node2 -->
<g id="node1" class="node">
<title>Node2</title>
<polygon fill="#bfbfbf" stroke="#000000" points="41,-54.5 41,-71.5 108,-71.5 108,-54.5 41,-54.5"/>
<text text-anchor="middle" x="74.5" y="-61.1" font-family="Helvetica,sans-Serif" font-size="8.00" fill="#000000">interfaces.hpp</text>
</g>
<!-- Node3 -->
<g id="node2" class="node">
<title>Node3</title>
<g id="a_node2"><a xlink:href="../../d4/d09/c__interface_8cpp.html" target="_top" xlink:title="c_interface.cpp">
<polygon fill="none" stroke="#000000" points="0,-.5 0,-17.5 71,-17.5 71,-.5 0,-.5"/>
<text text-anchor="middle" x="35.5" y="-7.1" font-family="Helvetica,sans-Serif" font-size="8.00" fill="#000000">c_interface.cpp</text>
</a>
</g>
</g>
<!-- Node2&#45;&gt;Node3 -->
<g id="edge1" class="edge">
<title>Node2&#45;&gt;Node3</title>
<path fill="none" stroke="#191970" d="M62.1178,-45.8554C55.3646,-36.5048 47.2914,-25.3265 41.8202,-17.7511"/>
<polygon fill="#191970" stroke="#191970" points="59.3676,-48.0254 68.0599,-54.083 65.0424,-43.927 59.3676,-48.0254"/>
</g>
<!-- Node4 -->
<g id="node3" class="node">
<title>Node4</title>
<g id="a_node3"><a xlink:href="../../d6/d7d/_with_poly_chord_2main_8cpp.html" target="_top" xlink:title="main.cpp">
<polygon fill="none" stroke="#000000" points="89,-.5 89,-17.5 138,-17.5 138,-.5 89,-.5"/>
<text text-anchor="middle" x="113.5" y="-7.1" font-family="Helvetica,sans-Serif" font-size="8.00" fill="#000000">main.cpp</text>
</a>
</g>
</g>
<!-- Node2&#45;&gt;Node4 -->
<g id="edge2" class="edge">
<title>Node2&#45;&gt;Node4</title>
<path fill="none" stroke="#191970" d="M86.8822,-45.8554C93.6354,-36.5048 101.7086,-25.3265 107.1798,-17.7511"/>
<polygon fill="#191970" stroke="#191970" points="83.9576,-43.927 80.9401,-54.083 89.6324,-48.0254 83.9576,-43.927"/>
</g>
</g>
</svg>
