<?xml version="1.0" encoding="UTF-8" standalone="no"?>
<!DOCTYPE svg PUBLIC "-//W3C//DTD SVG 1.1//EN"
 "http://www.w3.org/Graphics/SVG/1.1/DTD/svg11.dtd">
<!-- Generated by graphviz version 2.40.1 (20161225.0304)
 -->
<!-- Title: LRSMquantities.cpp Pages: 1 -->
<svg width="404pt" height="350pt"
 viewBox="0.00 0.00 404.00 350.00" xmlns="http://www.w3.org/2000/svg" xmlns:xlink="http://www.w3.org/1999/xlink">
<g id="graph0" class="graph" transform="scale(1 1) rotate(0) translate(4 346)">
<title>LRSMquantities.cpp</title>
<!-- Node0 -->
<g id="node1" class="node">
<title>Node0</title>
<polygon fill="#bfbfbf" stroke="#000000" points="182.5,-324.5 182.5,-341.5 270.5,-341.5 270.5,-324.5 182.5,-324.5"/>
<text text-anchor="middle" x="226.5" y="-331.1" font-family="Helvetica,sans-Serif" font-size="8.00" fill="#000000">LRSMquantities.cpp</text>
</g>
<!-- Node1 -->
<g id="node2" class="node">
<title>Node1</title>
<g id="a_node2"><a xlink:href="../../d9/d4e/_l_r_s_mquantities_8h.html" target="_top" xlink:title="LRSMquantities.h">
<polygon fill="none" stroke="#000000" points="152.5,-270.5 152.5,-287.5 232.5,-287.5 232.5,-270.5 152.5,-270.5"/>
<text text-anchor="middle" x="192.5" y="-277.1" font-family="Helvetica,sans-Serif" font-size="8.00" fill="#000000">LRSMquantities.h</text>
</a>
</g>
</g>
<!-- Node0&#45;&gt;Node1 -->
<g id="edge1" class="edge">
<title>Node0&#45;&gt;Node1</title>
<path fill="none" stroke="#191970" d="M220.8856,-324.083C216.1326,-316.5341 209.1819,-305.4948 203.3484,-296.2298"/>
<polygon fill="#191970" stroke="#191970" points="206.2999,-294.3486 198.0099,-287.7511 200.3763,-298.0783 206.2999,-294.3486"/>
</g>
<!-- Node7 -->
<g id="node6" class="node">
<title>Node7</title>
<g id="a_node6"><a xlink:href="../../d9/d72/gslpp_8h.html" target="_top" xlink:title="gslpp.h">
<polygon fill="none" stroke="#ff0000" points="204.5,-162.5 204.5,-179.5 246.5,-179.5 246.5,-162.5 204.5,-162.5"/>
<text text-anchor="middle" x="225.5" y="-169.1" font-family="Helvetica,sans-Serif" font-size="8.00" fill="#000000">gslpp.h</text>
</a>
</g>
</g>
<!-- Node0&#45;&gt;Node7 -->
<g id="edge15" class="edge">
<title>Node0&#45;&gt;Node7</title>
<path fill="none" stroke="#191970" d="M233.5625,-324.4289C246.5207,-308.0811 273.6664,-270.7872 283.5,-234 285.5659,-226.2714 287.0191,-223.1844 283.5,-216 276.9775,-202.6839 264.4041,-192.177 252.6269,-184.6761"/>
<polygon fill="#191970" stroke="#191970" points="254.2822,-181.5891 243.8894,-179.5294 250.7294,-187.6205 254.2822,-181.5891"/>
</g>
<!-- Node2 -->
<g id="node3" class="node">
<title>Node2</title>
<polygon fill="none" stroke="#bfbfbf" points="224,-216.5 224,-233.5 275,-233.5 275,-216.5 224,-216.5"/>
<text text-anchor="middle" x="249.5" y="-223.1" font-family="Helvetica,sans-Serif" font-size="8.00" fill="#000000">stdexcept</text>
</g>
<!-- Node1&#45;&gt;Node2 -->
<g id="edge2" class="edge">
<title>Node1&#45;&gt;Node2</title>
<path fill="none" stroke="#191970" d="M201.658,-270.324C210.0015,-262.4196 222.5324,-250.5482 232.6769,-240.9377"/>
<polygon fill="#191970" stroke="#191970" points="235.3229,-243.2522 240.1753,-233.8339 230.5087,-238.1705 235.3229,-243.2522"/>
</g>
<!-- Node3 -->
<g id="node4" class="node">
<title>Node3</title>
<g id="a_node4"><a xlink:href="../../dd/dcd/_th_observable_8h.html" target="_top" xlink:title="ThObservable.h">
<polygon fill="none" stroke="#ff0000" points="0,-216.5 0,-233.5 73,-233.5 73,-216.5 0,-216.5"/>
<text text-anchor="middle" x="36.5" y="-223.1" font-family="Helvetica,sans-Serif" font-size="8.00" fill="#000000">ThObservable.h</text>
</a>
</g>
</g>
<!-- Node1&#45;&gt;Node3 -->
<g id="edge3" class="edge">
<title>Node1&#45;&gt;Node3</title>
<path fill="none" stroke="#191970" d="M167.7813,-270.4435C141.6515,-261.3986 100.2406,-247.064 70.9236,-236.9158"/>
<polygon fill="#191970" stroke="#191970" points="71.6978,-233.4801 61.103,-233.5164 69.408,-240.0951 71.6978,-233.4801"/>
</g>
<!-- Node6 -->
<g id="node5" class="node">
<title>Node6</title>
<g id="a_node5"><a xlink:href="../../d7/d9d/_left_right_symmetric_model_8h.html" target="_top" xlink:title="LeftRightSymmetricModel.h">
<polygon fill="none" stroke="#ff0000" points="91,-216.5 91,-233.5 206,-233.5 206,-216.5 91,-216.5"/>
<text text-anchor="middle" x="148.5" y="-223.1" font-family="Helvetica,sans-Serif" font-size="8.00" fill="#000000">LeftRightSymmetricModel.h</text>
</a>
</g>
</g>
<!-- Node1&#45;&gt;Node6 -->
<g id="edge4" class="edge">
<title>Node1&#45;&gt;Node6</title>
<path fill="none" stroke="#191970" d="M185.2343,-270.083C178.9552,-262.3768 169.7124,-251.0333 162.0692,-241.6531"/>
<polygon fill="#191970" stroke="#191970" points="164.6606,-239.2926 155.6305,-233.7511 159.2339,-243.7143 164.6606,-239.2926"/>
</g>
<!-- Node6&#45;&gt;Node7 -->
<g id="edge5" class="edge">
<title>Node6&#45;&gt;Node7</title>
<path fill="none" stroke="#191970" d="M160.8714,-216.324C172.6585,-208.0577 190.6323,-195.4527 204.6355,-185.6322"/>
<polygon fill="#191970" stroke="#191970" points="206.9816,-188.2619 213.1593,-179.6545 202.9624,-182.5307 206.9816,-188.2619"/>
</g>
<!-- Node8 -->
<g id="node7" class="node">
<title>Node8</title>
<g id="a_node7"><a xlink:href="../../d1/dc2/gslpp__complex_8h.html" target="_top" xlink:title="gslpp_complex.h">
<polygon fill="none" stroke="#ff0000" points="187,-.5 187,-17.5 264,-17.5 264,-.5 187,-.5"/>
<text text-anchor="middle" x="225.5" y="-7.1" font-family="Helvetica,sans-Serif" font-size="8.00" fill="#000000">gslpp_complex.h</text>
</a>
</g>
</g>
<!-- Node7&#45;&gt;Node8 -->
<g id="edge6" class="edge">
<title>Node7&#45;&gt;Node8</title>
<path fill="none" stroke="#191970" d="M208.652,-162.4653C174.2816,-143.8845 101.5912,-97.905 129.5,-54 140.2138,-37.1455 159.0905,-26.4945 177.2862,-19.8161"/>
<polygon fill="#191970" stroke="#191970" points="178.5981,-23.0682 186.9795,-16.5873 176.3858,-16.427 178.5981,-23.0682"/>
</g>
<!-- Node12 -->
<g id="node8" class="node">
<title>Node12</title>
<g id="a_node8"><a xlink:href="../../da/d8e/gslpp__vector__double_8h.html" target="_top" xlink:title="gslpp_vector_double.h">
<polygon fill="none" stroke="#ff0000" points="139,-54.5 139,-71.5 236,-71.5 236,-54.5 139,-54.5"/>
<text text-anchor="middle" x="187.5" y="-61.1" font-family="Helvetica,sans-Serif" font-size="8.00" fill="#000000">gslpp_vector_double.h</text>
</a>
</g>
</g>
<!-- Node7&#45;&gt;Node12 -->
<g id="edge7" class="edge">
<title>Node7&#45;&gt;Node12</title>
<path fill="none" stroke="#191970" d="M221.5818,-162.4811C217.5322,-153.5106 211.1619,-138.923 206.5,-126 201.163,-111.2055 196.0713,-94.1032 192.5046,-81.4541"/>
<polygon fill="#191970" stroke="#191970" points="195.8335,-80.36 189.7949,-71.6544 189.0866,-82.2256 195.8335,-80.36"/>
</g>
<!-- Node15 -->
<g id="node9" class="node">
<title>Node15</title>
<g id="a_node9"><a xlink:href="../../da/dad/gslpp__vector__complex_8h.html" target="_top" xlink:title="gslpp_vector_complex.h">
<polygon fill="none" stroke="#ff0000" points="293,-54.5 293,-71.5 396,-71.5 396,-54.5 293,-54.5"/>
<text text-anchor="middle" x="344.5" y="-61.1" font-family="Helvetica,sans-Serif" font-size="8.00" fill="#000000">gslpp_vector_complex.h</text>
</a>
</g>
</g>
<!-- Node7&#45;&gt;Node15 -->
<g id="edge9" class="edge">
<title>Node7&#45;&gt;Node15</title>
<path fill="none" stroke="#191970" d="M246.6809,-166.1507C268.2706,-160.1731 301.3658,-147.9953 321.5,-126 332.6786,-113.7881 338.5349,-95.7067 341.5326,-82.0432"/>
<polygon fill="#191970" stroke="#191970" points="345.0444,-82.3022 343.4324,-71.8307 338.1624,-81.0219 345.0444,-82.3022"/>
</g>
<!-- Node17 -->
<g id="node10" class="node">
<title>Node17</title>
<g id="a_node10"><a xlink:href="../../d0/ddb/gslpp__matrix__double_8h.html" target="_top" xlink:title="gslpp_matrix_double.h">
<polygon fill="none" stroke="#ff0000" points="216,-108.5 216,-125.5 313,-125.5 313,-108.5 216,-108.5"/>
<text text-anchor="middle" x="264.5" y="-115.1" font-family="Helvetica,sans-Serif" font-size="8.00" fill="#000000">gslpp_matrix_double.h</text>
</a>
</g>
</g>
<!-- Node7&#45;&gt;Node17 -->
<g id="edge11" class="edge">
<title>Node7&#45;&gt;Node17</title>
<path fill="none" stroke="#191970" d="M231.9401,-162.083C237.4489,-154.4554 245.5312,-143.2645 252.265,-133.9408"/>
<polygon fill="#191970" stroke="#191970" points="255.1622,-135.9071 258.1798,-125.7511 249.4874,-131.8087 255.1622,-135.9071"/>
</g>
<!-- Node12&#45;&gt;Node8 -->
<g id="edge8" class="edge">
<title>Node12&#45;&gt;Node8</title>
<path fill="none" stroke="#191970" d="M193.7749,-54.083C199.1425,-46.4554 207.0176,-35.2645 213.5787,-25.9408"/>
<polygon fill="#191970" stroke="#191970" points="216.4492,-27.9434 219.3418,-17.7511 210.7245,-23.9149 216.4492,-27.9434"/>
</g>
<!-- Node15&#45;&gt;Node8 -->
<g id="edge10" class="edge">
<title>Node15&#45;&gt;Node8</title>
<path fill="none" stroke="#191970" d="M325.6441,-54.4435C306.234,-45.6356 275.7699,-31.8116 253.5355,-21.722"/>
<polygon fill="#191970" stroke="#191970" points="254.8203,-18.4615 244.2677,-17.5164 251.9277,-24.836 254.8203,-18.4615"/>
</g>
<!-- Node17&#45;&gt;Node8 -->
<g id="edge12" class="edge">
<title>Node17&#45;&gt;Node8</title>
<path fill="none" stroke="#191970" d="M262.0305,-108.3554C258.4777,-96.1357 251.5704,-73.1635 244.5,-54 241.1564,-44.9375 237.0267,-35.0307 233.4723,-26.8251"/>
<polygon fill="#191970" stroke="#191970" points="236.6138,-25.2741 229.3804,-17.5327 230.2074,-28.0952 236.6138,-25.2741"/>
</g>
<!-- Node17&#45;&gt;Node12 -->
<g id="edge13" class="edge">
<title>Node17&#45;&gt;Node12</title>
<path fill="none" stroke="#191970" d="M252.1286,-108.324C240.3415,-100.0577 222.3677,-87.4527 208.3645,-77.6322"/>
<polygon fill="#191970" stroke="#191970" points="210.0376,-74.5307 199.8407,-71.6545 206.0184,-80.2619 210.0376,-74.5307"/>
</g>
<!-- Node17&#45;&gt;Node15 -->
<g id="edge14" class="edge">
<title>Node17&#45;&gt;Node15</title>
<path fill="none" stroke="#191970" d="M277.3534,-108.324C289.7164,-99.979 308.6301,-87.2122 323.2372,-77.3524"/>
<polygon fill="#191970" stroke="#191970" points="325.3482,-80.1503 331.6785,-71.6545 321.4318,-74.3483 325.3482,-80.1503"/>
</g>
</g>
</svg>
