<?xml version="1.0" encoding="UTF-8" standalone="no"?>
<!DOCTYPE svg PUBLIC "-//W3C//DTD SVG 1.1//EN"
 "http://www.w3.org/Graphics/SVG/1.1/DTD/svg11.dtd">
<!-- Generated by graphviz version 2.40.1 (20161225.0304)
 -->
<!-- Title: log10_VV_H1_WW_TH8 Pages: 1 -->
<svg width="438pt" height="288pt"
 viewBox="0.00 0.00 438.00 288.00" xmlns="http://www.w3.org/2000/svg" xmlns:xlink="http://www.w3.org/1999/xlink">
<g id="graph0" class="graph" transform="scale(1 1) rotate(0) translate(4 284)">
<title>log10_VV_H1_WW_TH8</title>
<!-- Node2 -->
<g id="node1" class="node">
<title>Node2</title>
<polygon fill="#bfbfbf" stroke="#000000" points="0,-.5 0,-17.5 105,-17.5 105,-.5 0,-.5"/>
<text text-anchor="middle" x="52.5" y="-7.1" font-family="Helvetica,sans-Serif" font-size="8.00" fill="#000000">log10_VV_H1_WW_TH8</text>
</g>
<!-- Node3 -->
<g id="node2" class="node">
<title>Node3</title>
<g id="a_node2"><a xlink:href="../../dc/d1f/class_th_observable.html" target="_top" xlink:title="A class for a model prediction of an observable. ">
<polygon fill="none" stroke="#000000" points="3,-99.5 3,-116.5 70,-116.5 70,-99.5 3,-99.5"/>
<text text-anchor="middle" x="36.5" y="-106.1" font-family="Helvetica,sans-Serif" font-size="8.00" fill="#000000">ThObservable</text>
</a>
</g>
</g>
<!-- Node3&#45;&gt;Node2 -->
<g id="edge1" class="edge">
<title>Node3&#45;&gt;Node2</title>
<path fill="none" stroke="#191970" d="M39.5182,-89.3249C42.9877,-67.8571 48.534,-33.5398 51.1061,-17.6245"/>
<polygon fill="#191970" stroke="#191970" points="36.0603,-88.7841 37.9199,-99.2144 42.9706,-89.9009 36.0603,-88.7841"/>
</g>
<!-- Node4 -->
<g id="node3" class="node">
<title>Node4</title>
<g id="a_node3"><a xlink:href="../../dc/dd5/class_standard_model.html" target="_top" xlink:title="A model class for the Standard Model. ">
<polygon fill="none" stroke="#ff0000" points="210,-207.5 210,-224.5 281,-224.5 281,-207.5 210,-207.5"/>
<text text-anchor="middle" x="245.5" y="-214.1" font-family="Helvetica,sans-Serif" font-size="8.00" fill="#000000">StandardModel</text>
</a>
</g>
</g>
<!-- Node4&#45;&gt;Node3 -->
<g id="edge2" class="edge">
<title>Node4&#45;&gt;Node3</title>
<path fill="none" stroke="#9a32cd" stroke-dasharray="5,2" d="M199.8247,-208.0106C150.5437,-198.5473 76.3154,-181.5747 55.5,-162 42.6129,-149.881 38.4612,-128.5082 37.1276,-116.6092"/>
<polygon fill="#9a32cd" stroke="#9a32cd" points="199.4588,-211.5032 209.9338,-209.9142 200.7543,-204.6241 199.4588,-211.5032"/>
<text text-anchor="middle" x="122" y="-182.6" font-family="Helvetica,sans-Serif" font-size="8.00" fill="#000000"> SM</text>
</g>
<!-- Node9 -->
<g id="node6" class="node">
<title>Node9</title>
<g id="a_node6"><a xlink:href="../../dc/df3/class_e_w_s_mcache.html" target="_top" xlink:title="A class for cache variables used in computing radiative corrections to the EW precision observables...">
<polygon fill="none" stroke="#ff0000" points="367,-140 367,-157 430,-157 430,-140 367,-140"/>
<text text-anchor="middle" x="398.5" y="-146.6" font-family="Helvetica,sans-Serif" font-size="8.00" fill="#000000">EWSMcache</text>
</a>
</g>
</g>
<!-- Node4&#45;&gt;Node9 -->
<g id="edge6" class="edge">
<title>Node4&#45;&gt;Node9</title>
<path fill="none" stroke="#9a32cd" stroke-dasharray="5,2" d="M274.146,-203.362C304.6807,-189.8909 352.213,-168.9207 378.7965,-157.1927"/>
<polygon fill="#9a32cd" stroke="#9a32cd" points="272.614,-200.2124 264.8776,-207.4511 275.4395,-206.6168 272.614,-200.2124"/>
<text text-anchor="middle" x="334" y="-182.6" font-family="Helvetica,sans-Serif" font-size="8.00" fill="#000000"> SM</text>
</g>
<!-- Node48 -->
<g id="node8" class="node">
<title>Node48</title>
<g id="a_node8"><a xlink:href="../../d2/df3/class_n_pbase.html" target="_top" xlink:title="The auxiliary base model class for other model classes. ">
<polygon fill="none" stroke="#000000" points="186,-140 186,-157 231,-157 231,-140 186,-140"/>
<text text-anchor="middle" x="208.5" y="-146.6" font-family="Helvetica,sans-Serif" font-size="8.00" fill="#000000">NPbase</text>
</a>
</g>
</g>
<!-- Node4&#45;&gt;Node48 -->
<g id="edge10" class="edge">
<title>Node4&#45;&gt;Node48</title>
<path fill="none" stroke="#191970" d="M215.9868,-201.8791C211.3692,-198.3354 207.2289,-194.0645 204.5,-189 199.1376,-179.048 202.0407,-165.7157 204.9721,-157.116"/>
<polygon fill="#191970" stroke="#191970" points="214.3206,-204.9705 224.6124,-207.4867 218.136,-199.1017 214.3206,-204.9705"/>
</g>
<!-- Node4&#45;&gt;Node48 -->
<g id="edge11" class="edge">
<title>Node4&#45;&gt;Node48</title>
<path fill="none" stroke="#9a32cd" stroke-dasharray="5,2" d="M231.3965,-199.3772C228.9217,-196.0561 226.5017,-192.5071 224.5,-189 218.5789,-178.6259 213.8719,-165.6301 211.1359,-157.2004"/>
<polygon fill="#9a32cd" stroke="#9a32cd" points="228.8586,-201.8087 237.8259,-207.4512 234.3345,-197.4481 228.8586,-201.8087"/>
<text text-anchor="middle" x="239" y="-182.6" font-family="Helvetica,sans-Serif" font-size="8.00" fill="#000000"> trueSM</text>
</g>
<!-- Node5 -->
<g id="node4" class="node">
<title>Node5</title>
<g id="a_node4"><a xlink:href="../../dd/dfa/class_q_c_d.html" target="_top" xlink:title="A class for parameters related to QCD, hadrons and quarks. ">
<polygon fill="none" stroke="#ff0000" points="228.5,-262.5 228.5,-279.5 262.5,-279.5 262.5,-262.5 228.5,-262.5"/>
<text text-anchor="middle" x="245.5" y="-269.1" font-family="Helvetica,sans-Serif" font-size="8.00" fill="#000000">QCD</text>
</a>
</g>
</g>
<!-- Node5&#45;&gt;Node4 -->
<g id="edge3" class="edge">
<title>Node5&#45;&gt;Node4</title>
<path fill="none" stroke="#191970" d="M245.5,-252.1166C245.5,-242.8173 245.5,-232.0557 245.5,-224.7149"/>
<polygon fill="#191970" stroke="#191970" points="242.0001,-252.4062 245.5,-262.4063 249.0001,-252.4063 242.0001,-252.4062"/>
</g>
<!-- Node8 -->
<g id="node5" class="node">
<title>Node8</title>
<g id="a_node5"><a xlink:href="../../db/d32/class_e_w_s_m_two_fermions_l_e_p2.html" target="_top" xlink:title="A class for the form factors , &#160;and &#160;in the processes &#160;at LEP&#45;II. ">
<polygon fill="none" stroke="#ff0000" points="254,-63.5 254,-80.5 363,-80.5 363,-63.5 254,-63.5"/>
<text text-anchor="middle" x="308.5" y="-70.1" font-family="Helvetica,sans-Serif" font-size="8.00" fill="#000000">EWSMTwoFermionsLEP2</text>
</a>
</g>
</g>
<!-- Node8&#45;&gt;Node4 -->
<g id="edge4" class="edge">
<title>Node8&#45;&gt;Node4</title>
<path fill="none" stroke="#9a32cd" stroke-dasharray="5,2" d="M299.2739,-89.7744C292.8934,-102.2955 284.3528,-119.5203 277.5,-135 265.9932,-160.9927 254.1292,-192.4925 248.6383,-207.3928"/>
<polygon fill="#9a32cd" stroke="#9a32cd" points="302.3951,-91.3582 303.8544,-80.8644 296.1695,-88.1578 302.3951,-91.3582"/>
<text text-anchor="middle" x="318" y="-146.6" font-family="Helvetica,sans-Serif" font-size="8.00" fill="#000000"> myTwoFermionsLEP2</text>
</g>
<!-- Node9&#45;&gt;Node4 -->
<g id="edge7" class="edge">
<title>Node9&#45;&gt;Node4</title>
<path fill="none" stroke="#9a32cd" stroke-dasharray="5,2" d="M381.701,-164.0638C371.8051,-172.5023 358.6744,-182.5038 345.5,-189 325.3392,-198.9411 301.0248,-205.6114 281.4198,-209.8349"/>
<polygon fill="#9a32cd" stroke="#9a32cd" points="384.3138,-166.4255 389.4846,-157.1781 379.6757,-161.1826 384.3138,-166.4255"/>
<text text-anchor="middle" x="389.5" y="-182.6" font-family="Helvetica,sans-Serif" font-size="8.00" fill="#000000"> myEWSMcache</text>
</g>
<!-- Node9&#45;&gt;Node8 -->
<g id="edge5" class="edge">
<title>Node9&#45;&gt;Node8</title>
<path fill="none" stroke="#9a32cd" stroke-dasharray="5,2" d="M380.4162,-133.1288C361.8726,-117.3667 333.6883,-93.4101 318.7037,-80.6732"/>
<polygon fill="#9a32cd" stroke="#9a32cd" points="378.2897,-135.9148 388.1759,-139.7245 382.8232,-130.5812 378.2897,-135.9148"/>
<text text-anchor="middle" x="370.5" y="-106.1" font-family="Helvetica,sans-Serif" font-size="8.00" fill="#000000"> cache</text>
</g>
<!-- Node47 -->
<g id="node7" class="node">
<title>Node47</title>
<g id="a_node7"><a xlink:href="../../db/d2b/class_georgi_machacek.html" target="_top" xlink:title="A base class for the Georgi&#45;Machacek model. ">
<polygon fill="none" stroke="#000000" points="80,-63.5 80,-80.5 157,-80.5 157,-63.5 80,-63.5"/>
<text text-anchor="middle" x="118.5" y="-70.1" font-family="Helvetica,sans-Serif" font-size="8.00" fill="#000000">GeorgiMachacek</text>
</a>
</g>
</g>
<!-- Node47&#45;&gt;Node2 -->
<g id="edge8" class="edge">
<title>Node47&#45;&gt;Node2</title>
<path fill="none" stroke="#9a32cd" stroke-dasharray="5,2" d="M97.7075,-57.0713C92.8868,-53.3112 87.8869,-49.1569 83.5,-45 74.3998,-36.3769 65.1773,-25.3024 59.186,-17.7274"/>
<polygon fill="#9a32cd" stroke="#9a32cd" points="95.9256,-60.1108 106.0199,-63.3289 100.1357,-54.5184 95.9256,-60.1108"/>
<text text-anchor="middle" x="96.5" y="-38.6" font-family="Helvetica,sans-Serif" font-size="8.00" fill="#000000"> myGM</text>
</g>
<!-- Node51 -->
<g id="node10" class="node">
<title>Node51</title>
<g id="a_node10"><a xlink:href="../../d7/db7/class_g_mcache.html" target="_top" xlink:title="A class for the caching of GeorgiMachacek objects. ">
<polygon fill="none" stroke="#ff0000" points="132,-.5 132,-17.5 183,-17.5 183,-.5 132,-.5"/>
<text text-anchor="middle" x="157.5" y="-7.1" font-family="Helvetica,sans-Serif" font-size="8.00" fill="#000000">GMcache</text>
</a>
</g>
</g>
<!-- Node47&#45;&gt;Node51 -->
<g id="edge14" class="edge">
<title>Node47&#45;&gt;Node51</title>
<path fill="none" stroke="#9a32cd" stroke-dasharray="5,2" d="M113.0742,-53.6296C112.314,-47.7014 112.6074,-41.2983 115.5,-36 119.903,-27.9351 127.8606,-21.9199 135.6742,-17.6396"/>
<polygon fill="#9a32cd" stroke="#9a32cd" points="109.6685,-54.4388 115.2465,-63.4463 116.5031,-52.9263 109.6685,-54.4388"/>
<text text-anchor="middle" x="128.5" y="-38.6" font-family="Helvetica,sans-Serif" font-size="8.00" fill="#000000"> myGM</text>
</g>
<!-- Node48&#45;&gt;Node47 -->
<g id="edge9" class="edge">
<title>Node48&#45;&gt;Node47</title>
<path fill="none" stroke="#191970" d="M190.4162,-133.1288C171.8726,-117.3667 143.6883,-93.4101 128.7037,-80.6732"/>
<polygon fill="#191970" stroke="#191970" points="188.2897,-135.9148 198.1759,-139.7245 192.8232,-130.5812 188.2897,-135.9148"/>
</g>
<!-- Node49 -->
<g id="node9" class="node">
<title>Node49</title>
<g id="a_node9"><a xlink:href="../../d5/d76/class_matching.html" target="_top" xlink:title="Matching\&lt; GMMatching,\l GeorgiMachacek \&gt;">
<polygon fill="none" stroke="#ff0000" points="65,-135.5 65,-161.5 168,-161.5 168,-135.5 65,-135.5"/>
<text text-anchor="start" x="73" y="-151.1" font-family="Helvetica,sans-Serif" font-size="8.00" fill="#000000">Matching&lt; GMMatching,</text>
<text text-anchor="middle" x="116.5" y="-142.1" font-family="Helvetica,sans-Serif" font-size="8.00" fill="#000000"> GeorgiMachacek &gt;</text>
</a>
</g>
</g>
<!-- Node49&#45;&gt;Node47 -->
<g id="edge12" class="edge">
<title>Node49&#45;&gt;Node47</title>
<path fill="none" stroke="#9a32cd" stroke-dasharray="5,2" d="M117.1121,-125.0882C117.5027,-110.1453 117.9869,-91.6269 118.2679,-80.8783"/>
<polygon fill="#9a32cd" stroke="#9a32cd" points="113.611,-125.0866 116.8484,-135.1747 120.6086,-125.2696 113.611,-125.0866"/>
<text text-anchor="middle" x="129.5" y="-106.1" font-family="Helvetica,sans-Serif" font-size="8.00" fill="#000000"> GMM</text>
</g>
<!-- Node51&#45;&gt;Node47 -->
<g id="edge13" class="edge">
<title>Node51&#45;&gt;Node47</title>
<path fill="none" stroke="#9a32cd" stroke-dasharray="5,2" d="M153.1354,-27.4895C151.2912,-33.3459 148.7904,-39.6761 145.5,-45 141.1784,-51.9924 134.7087,-58.5457 129.1857,-63.4446"/>
<polygon fill="#9a32cd" stroke="#9a32cd" points="156.5292,-28.3472 155.7743,-17.7793 149.7742,-26.5113 156.5292,-28.3472"/>
<text text-anchor="middle" x="174.5" y="-38.6" font-family="Helvetica,sans-Serif" font-size="8.00" fill="#000000"> myGMcache</text>
</g>
</g>
</svg>
