<?xml version="1.0" encoding="UTF-8" standalone="no"?>
<!DOCTYPE svg PUBLIC "-//W3C//DTD SVG 1.1//EN"
 "http://www.w3.org/Graphics/SVG/1.1/DTD/svg11.dtd">
<!-- Generated by graphviz version 2.40.1 (20161225.0304)
 -->
<!-- Title: unitarity8 Pages: 1 -->
<svg width="413pt" height="271pt"
 viewBox="0.00 0.00 412.50 271.00" xmlns="http://www.w3.org/2000/svg" xmlns:xlink="http://www.w3.org/1999/xlink">
<g id="graph0" class="graph" transform="scale(1 1) rotate(0) translate(4 267)">
<title>unitarity8</title>
<!-- Node3 -->
<g id="node1" class="node">
<title>Node3</title>
<polygon fill="#bfbfbf" stroke="#000000" points="122,-.5 122,-17.5 171,-17.5 171,-.5 122,-.5"/>
<text text-anchor="middle" x="146.5" y="-7.1" font-family="Helvetica,sans-Serif" font-size="8.00" fill="#000000">unitarity8</text>
</g>
<!-- Node4 -->
<g id="node2" class="node">
<title>Node4</title>
<g id="a_node2"><a xlink:href="../../d5/d21/classunitarity.html" target="_top" xlink:title="An observable class for the requirement of tree level perturbative unitarity. ">
<polygon fill="none" stroke="#000000" points="124,-55.5 124,-72.5 169,-72.5 169,-55.5 124,-55.5"/>
<text text-anchor="middle" x="146.5" y="-62.1" font-family="Helvetica,sans-Serif" font-size="8.00" fill="#000000">unitarity</text>
</a>
</g>
</g>
<!-- Node4&#45;&gt;Node3 -->
<g id="edge1" class="edge">
<title>Node4&#45;&gt;Node3</title>
<path fill="none" stroke="#191970" d="M146.5,-45.1166C146.5,-35.8173 146.5,-25.0557 146.5,-17.7149"/>
<polygon fill="#191970" stroke="#191970" points="143.0001,-45.4062 146.5,-55.4063 150.0001,-45.4063 143.0001,-45.4062"/>
</g>
<!-- Node5 -->
<g id="node3" class="node">
<title>Node5</title>
<g id="a_node3"><a xlink:href="../../dc/d1f/class_th_observable.html" target="_top" xlink:title="A class for a model prediction of an observable. ">
<polygon fill="none" stroke="#000000" points="136,-118.5 136,-135.5 203,-135.5 203,-118.5 136,-118.5"/>
<text text-anchor="middle" x="169.5" y="-125.1" font-family="Helvetica,sans-Serif" font-size="8.00" fill="#000000">ThObservable</text>
</a>
</g>
</g>
<!-- Node5&#45;&gt;Node4 -->
<g id="edge2" class="edge">
<title>Node5&#45;&gt;Node4</title>
<path fill="none" stroke="#191970" d="M178.0024,-108.762C179.5676,-102.9207 180.0197,-96.5359 177.5,-91 174.0704,-83.4648 167.3838,-77.2146 161.0962,-72.6321"/>
<polygon fill="#191970" stroke="#191970" points="174.6262,-107.7966 174.3842,-118.3886 181.1787,-110.2593 174.6262,-107.7966"/>
</g>
<!-- Node6 -->
<g id="node4" class="node">
<title>Node6</title>
<g id="a_node4"><a xlink:href="../../dc/dd5/class_standard_model.html" target="_top" xlink:title="A model class for the Standard Model. ">
<polygon fill="none" stroke="#ff0000" points="204,-186 204,-203 275,-203 275,-186 204,-186"/>
<text text-anchor="middle" x="239.5" y="-192.6" font-family="Helvetica,sans-Serif" font-size="8.00" fill="#000000">StandardModel</text>
</a>
</g>
</g>
<!-- Node6&#45;&gt;Node5 -->
<g id="edge3" class="edge">
<title>Node6&#45;&gt;Node5</title>
<path fill="none" stroke="#9a32cd" stroke-dasharray="5,2" d="M223.1902,-178.7727C209.2749,-165.3544 189.782,-146.5576 178.5147,-135.6927"/>
<polygon fill="#9a32cd" stroke="#9a32cd" points="221.0065,-181.5292 230.6345,-185.9511 225.8655,-176.4902 221.0065,-181.5292"/>
<text text-anchor="middle" x="214" y="-156.6" font-family="Helvetica,sans-Serif" font-size="8.00" fill="#000000"> SM</text>
</g>
<!-- Node11 -->
<g id="node7" class="node">
<title>Node11</title>
<g id="a_node7"><a xlink:href="../../dc/df3/class_e_w_s_mcache.html" target="_top" xlink:title="A class for cache variables used in computing radiative corrections to the EW precision observables...">
<polygon fill="none" stroke="#ff0000" points="339,-118.5 339,-135.5 402,-135.5 402,-118.5 339,-118.5"/>
<text text-anchor="middle" x="370.5" y="-125.1" font-family="Helvetica,sans-Serif" font-size="8.00" fill="#000000">EWSMcache</text>
</a>
</g>
</g>
<!-- Node6&#45;&gt;Node11 -->
<g id="edge7" class="edge">
<title>Node6&#45;&gt;Node11</title>
<path fill="none" stroke="#9a32cd" stroke-dasharray="5,2" d="M265.0529,-181.3334C291.2251,-167.8477 331.1643,-147.2684 353.6297,-135.6927"/>
<polygon fill="#9a32cd" stroke="#9a32cd" points="263.3774,-178.2594 256.0912,-185.9511 266.5837,-184.4819 263.3774,-178.2594"/>
<text text-anchor="middle" x="324" y="-156.6" font-family="Helvetica,sans-Serif" font-size="8.00" fill="#000000"> SM</text>
</g>
<!-- Node49 -->
<g id="node8" class="node">
<title>Node49</title>
<g id="a_node8"><a xlink:href="../../d0/d52/class_t_h_d_m.html" target="_top" xlink:title="A base class for &#160;symmetric Two&#45;Higgs&#45;Doublet models. ">
<polygon fill="none" stroke="#000000" points="54.5,-118.5 54.5,-135.5 94.5,-135.5 94.5,-118.5 54.5,-118.5"/>
<text text-anchor="middle" x="74.5" y="-125.1" font-family="Helvetica,sans-Serif" font-size="8.00" fill="#000000">THDM</text>
</a>
</g>
</g>
<!-- Node6&#45;&gt;Node49 -->
<g id="edge10" class="edge">
<title>Node6&#45;&gt;Node49</title>
<path fill="none" stroke="#191970" d="M208.9215,-181.9906C175.6051,-168.3612 123.2557,-146.9455 94.7116,-135.2684"/>
<polygon fill="#191970" stroke="#191970" points="208.0219,-185.4041 218.6026,-185.9511 210.6724,-178.9253 208.0219,-185.4041"/>
</g>
<!-- Node7 -->
<g id="node5" class="node">
<title>Node7</title>
<g id="a_node5"><a xlink:href="../../dd/dfa/class_q_c_d.html" target="_top" xlink:title="A class for parameters related to QCD, hadrons and quarks. ">
<polygon fill="none" stroke="#ff0000" points="222.5,-245.5 222.5,-262.5 256.5,-262.5 256.5,-245.5 222.5,-245.5"/>
<text text-anchor="middle" x="239.5" y="-252.1" font-family="Helvetica,sans-Serif" font-size="8.00" fill="#000000">QCD</text>
</a>
</g>
</g>
<!-- Node7&#45;&gt;Node6 -->
<g id="edge4" class="edge">
<title>Node7&#45;&gt;Node6</title>
<path fill="none" stroke="#191970" d="M239.5,-235.3165C239.5,-224.4962 239.5,-211.398 239.5,-203.0091"/>
<polygon fill="#191970" stroke="#191970" points="236.0001,-235.4751 239.5,-245.4751 243.0001,-235.4751 236.0001,-235.4751"/>
</g>
<!-- Node10 -->
<g id="node6" class="node">
<title>Node10</title>
<g id="a_node6"><a xlink:href="../../db/d32/class_e_w_s_m_two_fermions_l_e_p2.html" target="_top" xlink:title="A class for the form factors , &#160;and &#160;in the processes &#160;at LEP&#45;II. ">
<polygon fill="none" stroke="#ff0000" points="200,-55.5 200,-72.5 309,-72.5 309,-55.5 200,-55.5"/>
<text text-anchor="middle" x="254.5" y="-62.1" font-family="Helvetica,sans-Serif" font-size="8.00" fill="#000000">EWSMTwoFermionsLEP2</text>
</a>
</g>
</g>
<!-- Node10&#45;&gt;Node6 -->
<g id="edge5" class="edge">
<title>Node10&#45;&gt;Node6</title>
<path fill="none" stroke="#9a32cd" stroke-dasharray="5,2" d="M252.3466,-82.7343C249.0487,-111.426 242.8778,-165.1128 240.4842,-185.9375"/>
<polygon fill="#9a32cd" stroke="#9a32cd" points="255.8276,-83.0994 253.4925,-72.7651 248.8734,-82.3 255.8276,-83.0994"/>
<text text-anchor="middle" x="288" y="-125.1" font-family="Helvetica,sans-Serif" font-size="8.00" fill="#000000"> myTwoFermionsLEP2</text>
</g>
<!-- Node11&#45;&gt;Node6 -->
<g id="edge8" class="edge">
<title>Node11&#45;&gt;Node6</title>
<path fill="none" stroke="#9a32cd" stroke-dasharray="5,2" d="M356.9541,-143.1117C350.4513,-150.0198 342.1901,-157.7016 333.5,-163 315.5717,-173.9309 293.3828,-181.5974 275.0659,-186.6282"/>
<polygon fill="#9a32cd" stroke="#9a32cd" points="359.6567,-145.3398 363.7003,-135.5469 354.4324,-140.6807 359.6567,-145.3398"/>
<text text-anchor="middle" x="374.5" y="-156.6" font-family="Helvetica,sans-Serif" font-size="8.00" fill="#000000"> myEWSMcache</text>
</g>
<!-- Node11&#45;&gt;Node10 -->
<g id="edge6" class="edge">
<title>Node11&#45;&gt;Node10</title>
<path fill="none" stroke="#9a32cd" stroke-dasharray="5,2" d="M345.3096,-113.319C322.576,-100.9723 289.821,-83.1829 270.4923,-72.6855"/>
<polygon fill="#9a32cd" stroke="#9a32cd" points="343.9126,-116.5432 354.3707,-118.2401 347.2535,-110.3918 343.9126,-116.5432"/>
<text text-anchor="middle" x="330.5" y="-93.6" font-family="Helvetica,sans-Serif" font-size="8.00" fill="#000000"> cache</text>
</g>
<!-- Node49&#45;&gt;Node4 -->
<g id="edge9" class="edge">
<title>Node49&#45;&gt;Node4</title>
<path fill="none" stroke="#9a32cd" stroke-dasharray="5,2" d="M99.6108,-113.1873C105.7493,-109.295 112.0998,-104.8006 117.5,-100 126.7373,-91.7884 135.3554,-80.4288 140.7565,-72.6802"/>
<polygon fill="#9a32cd" stroke="#9a32cd" points="97.6692,-110.2707 90.9041,-118.4244 101.2774,-116.2691 97.6692,-110.2707"/>
<text text-anchor="middle" x="144.5" y="-93.6" font-family="Helvetica,sans-Serif" font-size="8.00" fill="#000000"> myTHDM</text>
</g>
<!-- Node50 -->
<g id="node9" class="node">
<title>Node50</title>
<g id="a_node9"><a xlink:href="../../d5/df2/class_t_h_d_mcache.html" target="_top" xlink:title="A class for the caching of some THDM objects. ">
<polygon fill="none" stroke="#ff0000" points="0,-55.5 0,-72.5 61,-72.5 61,-55.5 0,-55.5"/>
<text text-anchor="middle" x="30.5" y="-62.1" font-family="Helvetica,sans-Serif" font-size="8.00" fill="#000000">THDMcache</text>
</a>
</g>
</g>
<!-- Node49&#45;&gt;Node50 -->
<g id="edge12" class="edge">
<title>Node49&#45;&gt;Node50</title>
<path fill="none" stroke="#9a32cd" stroke-dasharray="5,2" d="M44.4244,-121.9093C31.7215,-118.1107 18.1281,-111.4973 10.5,-100 4.4918,-90.9443 12.6691,-79.9508 20.3048,-72.5132"/>
<polygon fill="#9a32cd" stroke="#9a32cd" points="43.7382,-125.3457 54.29,-124.3917 45.4464,-118.5573 43.7382,-125.3457"/>
<text text-anchor="middle" x="28.5" y="-93.6" font-family="Helvetica,sans-Serif" font-size="8.00" fill="#000000"> myTHDM</text>
</g>
<!-- Node50&#45;&gt;Node49 -->
<g id="edge11" class="edge">
<title>Node50&#45;&gt;Node49</title>
<path fill="none" stroke="#9a32cd" stroke-dasharray="5,2" d="M42.384,-81.0158C50.7779,-93.0342 61.6832,-108.6487 68.382,-118.2401"/>
<polygon fill="#9a32cd" stroke="#9a32cd" points="45.1614,-78.8799 36.5661,-72.6855 39.4225,-82.888 45.1614,-78.8799"/>
<text text-anchor="middle" x="84.5" y="-93.6" font-family="Helvetica,sans-Serif" font-size="8.00" fill="#000000"> myTHDMcache</text>
</g>
<!-- Node60 -->
<g id="node10" class="node">
<title>Node60</title>
<g id="a_node10"><a xlink:href="../../d5/d76/class_matching.html" target="_top" xlink:title="Matching\&lt; THDMMatching,\l THDM \&gt;">
<polygon fill="none" stroke="#ff0000" points="17.5,-181.5 17.5,-207.5 131.5,-207.5 131.5,-181.5 17.5,-181.5"/>
<text text-anchor="start" x="25.5" y="-197.1" font-family="Helvetica,sans-Serif" font-size="8.00" fill="#000000">Matching&lt; THDMMatching,</text>
<text text-anchor="middle" x="74.5" y="-188.1" font-family="Helvetica,sans-Serif" font-size="8.00" fill="#000000"> THDM &gt;</text>
</a>
</g>
</g>
<!-- Node60&#45;&gt;Node49 -->
<g id="edge13" class="edge">
<title>Node60&#45;&gt;Node49</title>
<path fill="none" stroke="#9a32cd" stroke-dasharray="5,2" d="M74.5,-171.3987C74.5,-159.0883 74.5,-144.6721 74.5,-135.6863"/>
<polygon fill="#9a32cd" stroke="#9a32cd" points="71.0001,-171.4853 74.5,-181.4853 78.0001,-171.4854 71.0001,-171.4853"/>
<text text-anchor="middle" x="90.5" y="-156.6" font-family="Helvetica,sans-Serif" font-size="8.00" fill="#000000"> THDMM</text>
</g>
</g>
</svg>
