<?xml version="1.0" encoding="UTF-8" standalone="no"?>
<!DOCTYPE svg PUBLIC "-//W3C//DTD SVG 1.1//EN"
 "http://www.w3.org/Graphics/SVG/1.1/DTD/svg11.dtd">
<!-- Generated by graphviz version 2.40.1 (20161225.0304)
 -->
<!-- Title: CKM Pages: 1 -->
<svg width="122pt" height="161pt"
 viewBox="0.00 0.00 122.00 161.00" xmlns="http://www.w3.org/2000/svg" xmlns:xlink="http://www.w3.org/1999/xlink">
<g id="graph0" class="graph" transform="scale(1 1) rotate(0) translate(4 157)">
<title>CKM</title>
<!-- Node1 -->
<g id="node1" class="node">
<title>Node1</title>
<polygon fill="#bfbfbf" stroke="#000000" points="27,-.5 27,-17.5 61,-17.5 61,-.5 27,-.5"/>
<text text-anchor="middle" x="44" y="-7.1" font-family="Helvetica,sans-Serif" font-size="8.00" fill="#000000">CKM</text>
</g>
<!-- Node2 -->
<g id="node2" class="node">
<title>Node2</title>
<g id="a_node2"><a xlink:href="../../d1/d3c/classgslpp_1_1matrix.html" target="_top" xlink:title="gslpp::matrix\&lt; gslpp\l::complex \&gt;">
<polygon fill="none" stroke="#000000" points="0,-63.5 0,-89.5 88,-89.5 88,-63.5 0,-63.5"/>
<text text-anchor="start" x="8" y="-79.1" font-family="Helvetica,sans-Serif" font-size="8.00" fill="#000000">gslpp::matrix&lt; gslpp</text>
<text text-anchor="middle" x="44" y="-70.1" font-family="Helvetica,sans-Serif" font-size="8.00" fill="#000000">::complex &gt;</text>
</a>
</g>
</g>
<!-- Node2&#45;&gt;Node1 -->
<g id="edge1" class="edge">
<title>Node2&#45;&gt;Node1</title>
<path fill="none" stroke="#9a32cd" stroke-dasharray="5,2" d="M44,-53.3987C44,-41.0883 44,-26.6721 44,-17.6863"/>
<polygon fill="#9a32cd" stroke="#9a32cd" points="40.5001,-53.4853 44,-63.4853 47.5001,-53.4854 40.5001,-53.4853"/>
<text text-anchor="middle" x="48" y="-38.6" font-family="Helvetica,sans-Serif" font-size="8.00" fill="#000000"> V</text>
</g>
<!-- Node3 -->
<g id="node3" class="node">
<title>Node3</title>
<g id="a_node3"><a xlink:href="../../d1/d3c/classgslpp_1_1matrix.html" target="_top" xlink:title="A base class for defining operations on matrices, both real and complex. ">
<polygon fill="none" stroke="#000000" points="3.5,-135.5 3.5,-152.5 84.5,-152.5 84.5,-135.5 3.5,-135.5"/>
<text text-anchor="middle" x="44" y="-142.1" font-family="Helvetica,sans-Serif" font-size="8.00" fill="#000000">gslpp::matrix&lt; T &gt;</text>
</a>
</g>
</g>
<!-- Node3&#45;&gt;Node2 -->
<g id="edge2" class="edge">
<title>Node3&#45;&gt;Node2</title>
<path fill="none" stroke="#ffa500" stroke-dasharray="5,2" d="M44,-125.3829C44,-114.1182 44,-100.017 44,-89.8585"/>
<polygon fill="#ffa500" stroke="#ffa500" points="40.5001,-125.451 44,-135.4511 47.5001,-125.4511 40.5001,-125.451"/>
<text text-anchor="middle" x="79" y="-110.6" font-family="Helvetica,sans-Serif" font-size="8.00" fill="#000000"> &lt; gslpp::complex &gt;</text>
</g>
</g>
</svg>
