<?xml version="1.0" encoding="UTF-8" standalone="no"?>
<!DOCTYPE svg PUBLIC "-//W3C//DTD SVG 1.1//EN"
 "http://www.w3.org/Graphics/SVG/1.1/DTD/svg11.dtd">
<!-- Generated by graphviz version 2.40.1 (20161225.0304)
 -->
<!-- Title: Hobs_pp_phi2_phi1phi1_bbgaga_CMS8 Pages: 1 -->
<svg width="476pt" height="297pt"
 viewBox="0.00 0.00 476.00 297.00" xmlns="http://www.w3.org/2000/svg" xmlns:xlink="http://www.w3.org/1999/xlink">
<g id="graph0" class="graph" transform="scale(1 1) rotate(0) translate(4 293)">
<title>Hobs_pp_phi2_phi1phi1_bbgaga_CMS8</title>
<!-- Node2 -->
<g id="node1" class="node">
<title>Node2</title>
<polygon fill="#bfbfbf" stroke="#000000" points="0,-.5 0,-26.5 103,-26.5 103,-.5 0,-.5"/>
<text text-anchor="start" x="8" y="-16.1" font-family="Helvetica,sans-Serif" font-size="8.00" fill="#000000">Hobs_pp_phi2_phi1phi1</text>
<text text-anchor="middle" x="51.5" y="-7.1" font-family="Helvetica,sans-Serif" font-size="8.00" fill="#000000">_bbgaga_CMS8</text>
</g>
<!-- Node3 -->
<g id="node2" class="node">
<title>Node3</title>
<g id="a_node2"><a xlink:href="../../dc/d1f/class_th_observable.html" target="_top" xlink:title="A class for a model prediction of an observable. ">
<polygon fill="none" stroke="#000000" points="2,-108.5 2,-125.5 69,-125.5 69,-108.5 2,-108.5"/>
<text text-anchor="middle" x="35.5" y="-115.1" font-family="Helvetica,sans-Serif" font-size="8.00" fill="#000000">ThObservable</text>
</a>
</g>
</g>
<!-- Node3&#45;&gt;Node2 -->
<g id="edge1" class="edge">
<title>Node3&#45;&gt;Node2</title>
<path fill="none" stroke="#191970" d="M38.4228,-98.0934C41.6152,-77.4421 46.6462,-44.8979 49.4461,-26.7859"/>
<polygon fill="#191970" stroke="#191970" points="34.9331,-97.7583 36.8642,-108.1756 41.8509,-98.8278 34.9331,-97.7583"/>
</g>
<!-- Node4 -->
<g id="node3" class="node">
<title>Node4</title>
<g id="a_node3"><a xlink:href="../../dc/dd5/class_standard_model.html" target="_top" xlink:title="A model class for the Standard Model. ">
<polygon fill="none" stroke="#ff0000" points="248,-216.5 248,-233.5 319,-233.5 319,-216.5 248,-216.5"/>
<text text-anchor="middle" x="283.5" y="-223.1" font-family="Helvetica,sans-Serif" font-size="8.00" fill="#000000">StandardModel</text>
</a>
</g>
</g>
<!-- Node4&#45;&gt;Node3 -->
<g id="edge2" class="edge">
<title>Node4&#45;&gt;Node3</title>
<path fill="none" stroke="#9a32cd" stroke-dasharray="5,2" d="M237.6832,-219.4413C178.8524,-211.4387 81.1559,-194.9522 54.5,-171 41.3415,-159.1762 37.2958,-137.6881 36.052,-125.6914"/>
<polygon fill="#9a32cd" stroke="#9a32cd" points="237.4619,-222.9425 247.8359,-220.7907 238.3843,-216.0036 237.4619,-222.9425"/>
<text text-anchor="middle" x="125" y="-191.6" font-family="Helvetica,sans-Serif" font-size="8.00" fill="#000000"> SM</text>
</g>
<!-- Node9 -->
<g id="node6" class="node">
<title>Node9</title>
<g id="a_node6"><a xlink:href="../../dc/df3/class_e_w_s_mcache.html" target="_top" xlink:title="A class for cache variables used in computing radiative corrections to the EW precision observables...">
<polygon fill="none" stroke="#ff0000" points="405,-149 405,-166 468,-166 468,-149 405,-149"/>
<text text-anchor="middle" x="436.5" y="-155.6" font-family="Helvetica,sans-Serif" font-size="8.00" fill="#000000">EWSMcache</text>
</a>
</g>
</g>
<!-- Node4&#45;&gt;Node9 -->
<g id="edge6" class="edge">
<title>Node4&#45;&gt;Node9</title>
<path fill="none" stroke="#9a32cd" stroke-dasharray="5,2" d="M312.146,-212.362C342.6807,-198.8909 390.213,-177.9207 416.7965,-166.1927"/>
<polygon fill="#9a32cd" stroke="#9a32cd" points="310.614,-209.2124 302.8776,-216.4511 313.4395,-215.6168 310.614,-209.2124"/>
<text text-anchor="middle" x="372" y="-191.6" font-family="Helvetica,sans-Serif" font-size="8.00" fill="#000000"> SM</text>
</g>
<!-- Node48 -->
<g id="node8" class="node">
<title>Node48</title>
<g id="a_node8"><a xlink:href="../../d2/df3/class_n_pbase.html" target="_top" xlink:title="The auxiliary base model class for other model classes. ">
<polygon fill="none" stroke="#000000" points="224,-149 224,-166 269,-166 269,-149 224,-149"/>
<text text-anchor="middle" x="246.5" y="-155.6" font-family="Helvetica,sans-Serif" font-size="8.00" fill="#000000">NPbase</text>
</a>
</g>
</g>
<!-- Node4&#45;&gt;Node48 -->
<g id="edge10" class="edge">
<title>Node4&#45;&gt;Node48</title>
<path fill="none" stroke="#191970" d="M253.9868,-210.8791C249.3692,-207.3354 245.2289,-203.0645 242.5,-198 237.1376,-188.048 240.0407,-174.7157 242.9721,-166.116"/>
<polygon fill="#191970" stroke="#191970" points="252.3206,-213.9705 262.6124,-216.4867 256.136,-208.1017 252.3206,-213.9705"/>
</g>
<!-- Node4&#45;&gt;Node48 -->
<g id="edge11" class="edge">
<title>Node4&#45;&gt;Node48</title>
<path fill="none" stroke="#9a32cd" stroke-dasharray="5,2" d="M269.3965,-208.3772C266.9217,-205.0561 264.5017,-201.5071 262.5,-198 256.5789,-187.6259 251.8719,-174.6301 249.1359,-166.2004"/>
<polygon fill="#9a32cd" stroke="#9a32cd" points="266.8586,-210.8087 275.8259,-216.4512 272.3345,-206.4481 266.8586,-210.8087"/>
<text text-anchor="middle" x="277" y="-191.6" font-family="Helvetica,sans-Serif" font-size="8.00" fill="#000000"> trueSM</text>
</g>
<!-- Node5 -->
<g id="node4" class="node">
<title>Node5</title>
<g id="a_node4"><a xlink:href="../../dd/dfa/class_q_c_d.html" target="_top" xlink:title="A class for parameters related to QCD, hadrons and quarks. ">
<polygon fill="none" stroke="#ff0000" points="266.5,-271.5 266.5,-288.5 300.5,-288.5 300.5,-271.5 266.5,-271.5"/>
<text text-anchor="middle" x="283.5" y="-278.1" font-family="Helvetica,sans-Serif" font-size="8.00" fill="#000000">QCD</text>
</a>
</g>
</g>
<!-- Node5&#45;&gt;Node4 -->
<g id="edge3" class="edge">
<title>Node5&#45;&gt;Node4</title>
<path fill="none" stroke="#191970" d="M283.5,-261.1166C283.5,-251.8173 283.5,-241.0557 283.5,-233.7149"/>
<polygon fill="#191970" stroke="#191970" points="280.0001,-261.4062 283.5,-271.4063 287.0001,-261.4063 280.0001,-261.4062"/>
</g>
<!-- Node8 -->
<g id="node5" class="node">
<title>Node8</title>
<g id="a_node5"><a xlink:href="../../db/d32/class_e_w_s_m_two_fermions_l_e_p2.html" target="_top" xlink:title="A class for the form factors , &#160;and &#160;in the processes &#160;at LEP&#45;II. ">
<polygon fill="none" stroke="#ff0000" points="292,-72.5 292,-89.5 401,-89.5 401,-72.5 292,-72.5"/>
<text text-anchor="middle" x="346.5" y="-79.1" font-family="Helvetica,sans-Serif" font-size="8.00" fill="#000000">EWSMTwoFermionsLEP2</text>
</a>
</g>
</g>
<!-- Node8&#45;&gt;Node4 -->
<g id="edge4" class="edge">
<title>Node8&#45;&gt;Node4</title>
<path fill="none" stroke="#9a32cd" stroke-dasharray="5,2" d="M337.2739,-98.7744C330.8934,-111.2955 322.3528,-128.5203 315.5,-144 303.9932,-169.9927 292.1292,-201.4925 286.6383,-216.3928"/>
<polygon fill="#9a32cd" stroke="#9a32cd" points="340.3951,-100.3582 341.8544,-89.8644 334.1695,-97.1578 340.3951,-100.3582"/>
<text text-anchor="middle" x="356" y="-155.6" font-family="Helvetica,sans-Serif" font-size="8.00" fill="#000000"> myTwoFermionsLEP2</text>
</g>
<!-- Node9&#45;&gt;Node4 -->
<g id="edge7" class="edge">
<title>Node9&#45;&gt;Node4</title>
<path fill="none" stroke="#9a32cd" stroke-dasharray="5,2" d="M419.701,-173.0638C409.8051,-181.5023 396.6744,-191.5038 383.5,-198 363.3392,-207.9411 339.0248,-214.6114 319.4198,-218.8349"/>
<polygon fill="#9a32cd" stroke="#9a32cd" points="422.3138,-175.4255 427.4846,-166.1781 417.6757,-170.1826 422.3138,-175.4255"/>
<text text-anchor="middle" x="427.5" y="-191.6" font-family="Helvetica,sans-Serif" font-size="8.00" fill="#000000"> myEWSMcache</text>
</g>
<!-- Node9&#45;&gt;Node8 -->
<g id="edge5" class="edge">
<title>Node9&#45;&gt;Node8</title>
<path fill="none" stroke="#9a32cd" stroke-dasharray="5,2" d="M418.4162,-142.1288C399.8726,-126.3667 371.6883,-102.4101 356.7037,-89.6732"/>
<polygon fill="#9a32cd" stroke="#9a32cd" points="416.2897,-144.9148 426.1759,-148.7245 420.8232,-139.5812 416.2897,-144.9148"/>
<text text-anchor="middle" x="408.5" y="-115.1" font-family="Helvetica,sans-Serif" font-size="8.00" fill="#000000"> cache</text>
</g>
<!-- Node47 -->
<g id="node7" class="node">
<title>Node47</title>
<g id="a_node7"><a xlink:href="../../d3/d55/class_general_t_h_d_m.html" target="_top" xlink:title="A base class for generic Two&#45;Higgs&#45;Doublet models. ">
<polygon fill="none" stroke="#000000" points="100.5,-72.5 100.5,-89.5 168.5,-89.5 168.5,-72.5 100.5,-72.5"/>
<text text-anchor="middle" x="134.5" y="-79.1" font-family="Helvetica,sans-Serif" font-size="8.00" fill="#000000">GeneralTHDM</text>
</a>
</g>
</g>
<!-- Node47&#45;&gt;Node2 -->
<g id="edge8" class="edge">
<title>Node47&#45;&gt;Node2</title>
<path fill="none" stroke="#9a32cd" stroke-dasharray="5,2" d="M103.8241,-67.9048C96.4393,-64.0091 88.8553,-59.3335 82.5,-54 73.2757,-46.2587 65.1032,-35.3124 59.4683,-26.7512"/>
<polygon fill="#9a32cd" stroke="#9a32cd" points="102.4474,-71.1283 112.964,-72.4128 105.5438,-64.8503 102.4474,-71.1283"/>
<text text-anchor="middle" x="104" y="-47.6" font-family="Helvetica,sans-Serif" font-size="8.00" fill="#000000"> myGTHDM</text>
</g>
<!-- Node51 -->
<g id="node10" class="node">
<title>Node51</title>
<g id="a_node10"><a xlink:href="../../dc/dfd/class_general_t_h_d_mcache.html" target="_top" xlink:title="GeneralTHDMcache">
<polygon fill="none" stroke="#ff0000" points="138,-5 138,-22 227,-22 227,-5 138,-5"/>
<text text-anchor="middle" x="182.5" y="-11.6" font-family="Helvetica,sans-Serif" font-size="8.00" fill="#000000">GeneralTHDMcache</text>
</a>
</g>
</g>
<!-- Node47&#45;&gt;Node51 -->
<g id="edge14" class="edge">
<title>Node47&#45;&gt;Node51</title>
<path fill="none" stroke="#9a32cd" stroke-dasharray="5,2" d="M129.0184,-62.5989C128.2545,-56.6686 128.5597,-50.272 131.5,-45 137.3294,-34.5478 148.2131,-27.1296 158.4338,-22.1288"/>
<polygon fill="#9a32cd" stroke="#9a32cd" points="125.6173,-63.428 131.2102,-72.4263 132.4494,-61.9041 125.6173,-63.428"/>
<text text-anchor="middle" x="153" y="-47.6" font-family="Helvetica,sans-Serif" font-size="8.00" fill="#000000"> myGTHDM</text>
</g>
<!-- Node48&#45;&gt;Node47 -->
<g id="edge9" class="edge">
<title>Node48&#45;&gt;Node47</title>
<path fill="none" stroke="#191970" d="M226.7437,-142.8345C213.069,-132.8057 194.3658,-119.3291 177.5,-108 167.9875,-101.6102 157.0475,-94.7475 148.5829,-89.5399"/>
<polygon fill="#191970" stroke="#191970" points="224.8072,-145.7551 234.9339,-148.8697 228.9597,-140.1198 224.8072,-145.7551"/>
</g>
<!-- Node49 -->
<g id="node9" class="node">
<title>Node49</title>
<g id="a_node9"><a xlink:href="../../d5/d76/class_matching.html" target="_top" xlink:title="Matching\&lt; GeneralTHDMMatching,\l GeneralTHDM \&gt;">
<polygon fill="none" stroke="#ff0000" points="63.5,-144.5 63.5,-170.5 205.5,-170.5 205.5,-144.5 63.5,-144.5"/>
<text text-anchor="start" x="71.5" y="-160.1" font-family="Helvetica,sans-Serif" font-size="8.00" fill="#000000">Matching&lt; GeneralTHDMMatching,</text>
<text text-anchor="middle" x="134.5" y="-151.1" font-family="Helvetica,sans-Serif" font-size="8.00" fill="#000000"> GeneralTHDM &gt;</text>
</a>
</g>
</g>
<!-- Node49&#45;&gt;Node47 -->
<g id="edge12" class="edge">
<title>Node49&#45;&gt;Node47</title>
<path fill="none" stroke="#9a32cd" stroke-dasharray="5,2" d="M134.5,-134.0882C134.5,-119.1453 134.5,-100.6269 134.5,-89.8783"/>
<polygon fill="#9a32cd" stroke="#9a32cd" points="131.0001,-134.1747 134.5,-144.1747 138.0001,-134.1748 131.0001,-134.1747"/>
<text text-anchor="middle" x="154" y="-115.1" font-family="Helvetica,sans-Serif" font-size="8.00" fill="#000000"> GTHDMM</text>
</g>
<!-- Node51&#45;&gt;Node47 -->
<g id="edge13" class="edge">
<title>Node51&#45;&gt;Node47</title>
<path fill="none" stroke="#9a32cd" stroke-dasharray="5,2" d="M184.0849,-32.3302C183.85,-39.5798 182.484,-47.6373 178.5,-54 173.4582,-62.052 165.048,-68.065 156.9232,-72.3471"/>
<polygon fill="#9a32cd" stroke="#9a32cd" points="187.5812,-32.1561 183.7654,-22.2723 180.5847,-32.3784 187.5812,-32.1561"/>
<text text-anchor="middle" x="214.5" y="-47.6" font-family="Helvetica,sans-Serif" font-size="8.00" fill="#000000"> myGTHDMcache</text>
</g>
</g>
</svg>
