<?xml version="1.0" encoding="UTF-8" standalone="no"?>
<!DOCTYPE svg PUBLIC "-//W3C//DTD SVG 1.1//EN"
 "http://www.w3.org/Graphics/SVG/1.1/DTD/svg11.dtd">
<!-- Generated by graphviz version 2.40.1 (20161225.0304)
 -->
<!-- Title: UsefulStuff.hpp Pages: 1 -->
<svg width="343pt" height="80pt"
 viewBox="0.00 0.00 343.00 80.00" xmlns="http://www.w3.org/2000/svg" xmlns:xlink="http://www.w3.org/1999/xlink">
<g id="graph0" class="graph" transform="scale(1 1) rotate(0) translate(4 76)">
<title>UsefulStuff.hpp</title>
<!-- Node0 -->
<g id="node1" class="node">
<title>Node0</title>
<polygon fill="#bfbfbf" stroke="#000000" points="133,-54.5 133,-71.5 204,-71.5 204,-54.5 133,-54.5"/>
<text text-anchor="middle" x="168.5" y="-61.1" font-family="Helvetica,sans-Serif" font-size="8.00" fill="#000000">UsefulStuff.hpp</text>
</g>
<!-- Node1 -->
<g id="node2" class="node">
<title>Node1</title>
<polygon fill="none" stroke="#bfbfbf" points="0,-.5 0,-17.5 39,-17.5 39,-.5 0,-.5"/>
<text text-anchor="middle" x="19.5" y="-7.1" font-family="Helvetica,sans-Serif" font-size="8.00" fill="#000000">cstdlib</text>
</g>
<!-- Node0&#45;&gt;Node1 -->
<g id="edge1" class="edge">
<title>Node0&#45;&gt;Node1</title>
<path fill="none" stroke="#191970" d="M144.8905,-54.4435C118.8728,-45.0143 76.9932,-29.8364 48.8744,-19.6458"/>
<polygon fill="#191970" stroke="#191970" points="49.7865,-16.2536 39.1923,-16.1368 47.4014,-22.8347 49.7865,-16.2536"/>
</g>
<!-- Node2 -->
<g id="node3" class="node">
<title>Node2</title>
<polygon fill="none" stroke="#bfbfbf" points="57.5,-.5 57.5,-17.5 93.5,-17.5 93.5,-.5 57.5,-.5"/>
<text text-anchor="middle" x="75.5" y="-7.1" font-family="Helvetica,sans-Serif" font-size="8.00" fill="#000000">ctime</text>
</g>
<!-- Node0&#45;&gt;Node2 -->
<g id="edge2" class="edge">
<title>Node0&#45;&gt;Node2</title>
<path fill="none" stroke="#191970" d="M153.5579,-54.324C138.9148,-45.8215 116.3663,-32.7288 99.2623,-22.7975"/>
<polygon fill="#191970" stroke="#191970" points="100.8104,-19.6491 90.405,-17.6545 97.2954,-25.7027 100.8104,-19.6491"/>
</g>
<!-- Node3 -->
<g id="node4" class="node">
<title>Node3</title>
<polygon fill="none" stroke="#bfbfbf" points="112,-.5 112,-17.5 163,-17.5 163,-.5 112,-.5"/>
<text text-anchor="middle" x="137.5" y="-7.1" font-family="Helvetica,sans-Serif" font-size="8.00" fill="#000000">stdexcept</text>
</g>
<!-- Node0&#45;&gt;Node3 -->
<g id="edge3" class="edge">
<title>Node0&#45;&gt;Node3</title>
<path fill="none" stroke="#191970" d="M163.381,-54.083C159.0925,-46.6127 152.8418,-35.7244 147.5577,-26.5199"/>
<polygon fill="#191970" stroke="#191970" points="150.5379,-24.6811 142.5238,-17.7511 144.4671,-28.1662 150.5379,-24.6811"/>
</g>
<!-- Node4 -->
<g id="node5" class="node">
<title>Node4</title>
<polygon fill="none" stroke="#bfbfbf" points="181.5,-.5 181.5,-17.5 217.5,-17.5 217.5,-.5 181.5,-.5"/>
<text text-anchor="middle" x="199.5" y="-7.1" font-family="Helvetica,sans-Serif" font-size="8.00" fill="#000000">string</text>
</g>
<!-- Node0&#45;&gt;Node4 -->
<g id="edge4" class="edge">
<title>Node0&#45;&gt;Node4</title>
<path fill="none" stroke="#191970" d="M173.619,-54.083C177.9075,-46.6127 184.1582,-35.7244 189.4423,-26.5199"/>
<polygon fill="#191970" stroke="#191970" points="192.5329,-28.1662 194.4762,-17.7511 186.4621,-24.6811 192.5329,-28.1662"/>
</g>
<!-- Node5 -->
<g id="node6" class="node">
<title>Node5</title>
<polygon fill="none" stroke="#bfbfbf" points="235.5,-.5 235.5,-17.5 273.5,-17.5 273.5,-.5 235.5,-.5"/>
<text text-anchor="middle" x="254.5" y="-7.1" font-family="Helvetica,sans-Serif" font-size="8.00" fill="#000000">cmath</text>
</g>
<!-- Node0&#45;&gt;Node5 -->
<g id="edge5" class="edge">
<title>Node0&#45;&gt;Node5</title>
<path fill="none" stroke="#191970" d="M182.3174,-54.324C195.733,-45.9002 216.3241,-32.9709 232.0856,-23.0741"/>
<polygon fill="#191970" stroke="#191970" points="234.1092,-25.9364 240.7169,-17.6545 230.3868,-20.0081 234.1092,-25.9364"/>
</g>
<!-- Node6 -->
<g id="node7" class="node">
<title>Node6</title>
<polygon fill="none" stroke="#bfbfbf" points="292,-.5 292,-17.5 335,-17.5 335,-.5 292,-.5"/>
<text text-anchor="middle" x="313.5" y="-7.1" font-family="Helvetica,sans-Serif" font-size="8.00" fill="#000000">fstream</text>
</g>
<!-- Node0&#45;&gt;Node6 -->
<g id="edge6" class="edge">
<title>Node0&#45;&gt;Node6</title>
<path fill="none" stroke="#191970" d="M191.4757,-54.4435C215.9414,-45.3322 254.8203,-30.8531 282.1025,-20.6929"/>
<polygon fill="#191970" stroke="#191970" points="283.4312,-23.9329 291.581,-17.1629 280.9882,-17.3731 283.4312,-23.9329"/>
</g>
</g>
</svg>
