<?xml version="1.0" encoding="UTF-8" standalone="no"?>
<!DOCTYPE svg PUBLIC "-//W3C//DTD SVG 1.1//EN"
 "http://www.w3.org/Graphics/SVG/1.1/DTD/svg11.dtd">
<!-- Generated by graphviz version 2.40.1 (20161225.0304)
 -->
<!-- Title: EWSMcache.h Pages: 1 -->
<svg width="331pt" height="188pt"
 viewBox="0.00 0.00 330.50 188.00" xmlns="http://www.w3.org/2000/svg" xmlns:xlink="http://www.w3.org/1999/xlink">
<g id="graph0" class="graph" transform="scale(1 1) rotate(0) translate(4 184)">
<title>EWSMcache.h</title>
<!-- Node0 -->
<g id="node1" class="node">
<title>Node0</title>
<polygon fill="#bfbfbf" stroke="#000000" points="115.5,-162.5 115.5,-179.5 184.5,-179.5 184.5,-162.5 115.5,-162.5"/>
<text text-anchor="middle" x="150" y="-169.1" font-family="Helvetica,sans-Serif" font-size="8.00" fill="#000000">EWSMcache.h</text>
</g>
<!-- Node1 -->
<g id="node2" class="node">
<title>Node1</title>
<polygon fill="none" stroke="#bfbfbf" points="0,-108.5 0,-125.5 38,-125.5 38,-108.5 0,-108.5"/>
<text text-anchor="middle" x="19" y="-115.1" font-family="Helvetica,sans-Serif" font-size="8.00" fill="#000000">cmath</text>
</g>
<!-- Node0&#45;&gt;Node1 -->
<g id="edge1" class="edge">
<title>Node0&#45;&gt;Node1</title>
<path fill="none" stroke="#191970" d="M129.2427,-162.4435C107.3031,-153.3998 72.5347,-139.0677 47.9164,-128.9198"/>
<polygon fill="#191970" stroke="#191970" points="48.9583,-125.5636 38.3791,-124.9883 46.2905,-132.0353 48.9583,-125.5636"/>
</g>
<!-- Node2 -->
<g id="node3" class="node">
<title>Node2</title>
<g id="a_node3"><a xlink:href="../../d3/d6b/_p_vfunctions_8h.html" target="_top" xlink:title="PVfunctions.h">
<polygon fill="none" stroke="#000000" points="56,-108.5 56,-125.5 122,-125.5 122,-108.5 56,-108.5"/>
<text text-anchor="middle" x="89" y="-115.1" font-family="Helvetica,sans-Serif" font-size="8.00" fill="#000000">PVfunctions.h</text>
</a>
</g>
</g>
<!-- Node0&#45;&gt;Node2 -->
<g id="edge2" class="edge">
<title>Node0&#45;&gt;Node2</title>
<path fill="none" stroke="#191970" d="M140.1993,-162.324C131.1819,-154.3414 117.594,-142.3128 106.682,-132.6529"/>
<polygon fill="#191970" stroke="#191970" points="108.7866,-129.8416 98.979,-125.8339 104.1467,-135.083 108.7866,-129.8416"/>
</g>
<!-- Node19 -->
<g id="node5" class="node">
<title>Node19</title>
<g id="a_node5"><a xlink:href="../../dd/dc1/_polylogarithms_8h.html" target="_top" xlink:title="Polylogarithms.h">
<polygon fill="none" stroke="#000000" points="51,-54.5 51,-71.5 127,-71.5 127,-54.5 51,-54.5"/>
<text text-anchor="middle" x="89" y="-61.1" font-family="Helvetica,sans-Serif" font-size="8.00" fill="#000000">Polylogarithms.h</text>
</a>
</g>
</g>
<!-- Node0&#45;&gt;Node19 -->
<g id="edge7" class="edge">
<title>Node0&#45;&gt;Node19</title>
<path fill="none" stroke="#191970" d="M148.6812,-162.3525C146.4803,-149.7302 141.2518,-125.8256 131,-108 124.7016,-97.0484 115.2637,-86.6152 106.9291,-78.5571"/>
<polygon fill="#191970" stroke="#191970" points="109.1364,-75.8314 99.4147,-71.6195 104.388,-80.9746 109.1364,-75.8314"/>
</g>
<!-- Node21 -->
<g id="node7" class="node">
<title>Node21</title>
<g id="a_node7"><a xlink:href="../../db/d48/_clausen_functions_8h.html" target="_top" xlink:title="ClausenFunctions.h">
<polygon fill="none" stroke="#000000" points="145.5,-54.5 145.5,-71.5 232.5,-71.5 232.5,-54.5 145.5,-54.5"/>
<text text-anchor="middle" x="189" y="-61.1" font-family="Helvetica,sans-Serif" font-size="8.00" fill="#000000">ClausenFunctions.h</text>
</a>
</g>
</g>
<!-- Node0&#45;&gt;Node21 -->
<g id="edge8" class="edge">
<title>Node0&#45;&gt;Node21</title>
<path fill="none" stroke="#191970" d="M153.1915,-162.1619C159.565,-144.5123 173.9824,-104.5872 182.4512,-81.1352"/>
<polygon fill="#191970" stroke="#191970" points="185.7688,-82.2527 185.8734,-71.6584 179.1849,-79.8751 185.7688,-82.2527"/>
</g>
<!-- Node22 -->
<g id="node8" class="node">
<title>Node22</title>
<g id="a_node8"><a xlink:href="../../d6/d0a/_standard_model_8h.html" target="_top" xlink:title="StandardModel.h">
<polygon fill="none" stroke="#ff0000" points="237.5,-108.5 237.5,-125.5 314.5,-125.5 314.5,-108.5 237.5,-108.5"/>
<text text-anchor="middle" x="276" y="-115.1" font-family="Helvetica,sans-Serif" font-size="8.00" fill="#000000">StandardModel.h</text>
</a>
</g>
</g>
<!-- Node0&#45;&gt;Node22 -->
<g id="edge10" class="edge">
<title>Node0&#45;&gt;Node22</title>
<path fill="none" stroke="#191970" d="M169.9651,-162.4435C190.6091,-153.5961 223.0625,-139.6875 246.6316,-129.5865"/>
<polygon fill="#191970" stroke="#191970" points="248.3156,-132.6727 256.1283,-125.5164 245.5581,-126.2387 248.3156,-132.6727"/>
</g>
<!-- Node3 -->
<g id="node4" class="node">
<title>Node3</title>
<g id="a_node4"><a xlink:href="../../d9/d72/gslpp_8h.html" target="_top" xlink:title="gslpp.h">
<polygon fill="none" stroke="#ff0000" points="35,-.5 35,-17.5 77,-17.5 77,-.5 35,-.5"/>
<text text-anchor="middle" x="56" y="-7.1" font-family="Helvetica,sans-Serif" font-size="8.00" fill="#000000">gslpp.h</text>
</a>
</g>
</g>
<!-- Node2&#45;&gt;Node3 -->
<g id="edge3" class="edge">
<title>Node2&#45;&gt;Node3</title>
<path fill="none" stroke="#191970" d="M74.9216,-108.2591C63.6468,-100.3549 48.6544,-87.5838 42,-72 35.8201,-57.5274 40.6355,-39.9717 46.2414,-27.0724"/>
<polygon fill="#191970" stroke="#191970" points="49.4888,-28.3976 50.7117,-17.8736 43.1928,-25.3379 49.4888,-28.3976"/>
</g>
<!-- Node2&#45;&gt;Node19 -->
<g id="edge4" class="edge">
<title>Node2&#45;&gt;Node19</title>
<path fill="none" stroke="#191970" d="M89,-108.083C89,-101.0059 89,-90.8611 89,-81.9865"/>
<polygon fill="#191970" stroke="#191970" points="92.5001,-81.751 89,-71.7511 85.5001,-81.7511 92.5001,-81.751"/>
</g>
<!-- Node19&#45;&gt;Node3 -->
<g id="edge5" class="edge">
<title>Node19&#45;&gt;Node3</title>
<path fill="none" stroke="#191970" d="M83.5507,-54.083C78.9855,-46.6127 72.3316,-35.7244 66.7066,-26.5199"/>
<polygon fill="#191970" stroke="#191970" points="69.5489,-24.4588 61.3479,-17.7511 63.5759,-28.109 69.5489,-24.4588"/>
</g>
<!-- Node20 -->
<g id="node6" class="node">
<title>Node20</title>
<g id="a_node6"><a xlink:href="../../d1/d27/_bernoulli_numbers_8h.html" target="_top" xlink:title="BernoulliNumbers.h">
<polygon fill="none" stroke="#000000" points="120.5,-.5 120.5,-17.5 207.5,-17.5 207.5,-.5 120.5,-.5"/>
<text text-anchor="middle" x="164" y="-7.1" font-family="Helvetica,sans-Serif" font-size="8.00" fill="#000000">BernoulliNumbers.h</text>
</a>
</g>
</g>
<!-- Node19&#45;&gt;Node20 -->
<g id="edge6" class="edge">
<title>Node19&#45;&gt;Node20</title>
<path fill="none" stroke="#191970" d="M101.05,-54.324C112.4631,-46.1066 129.831,-33.6017 143.4349,-23.8069"/>
<polygon fill="#191970" stroke="#191970" points="145.6604,-26.5174 151.7307,-17.8339 141.5703,-20.8366 145.6604,-26.5174"/>
</g>
<!-- Node21&#45;&gt;Node20 -->
<g id="edge9" class="edge">
<title>Node21&#45;&gt;Node20</title>
<path fill="none" stroke="#191970" d="M184.8718,-54.083C181.4861,-46.77 176.584,-36.1814 172.3812,-27.1034"/>
<polygon fill="#191970" stroke="#191970" points="175.4289,-25.3553 168.0514,-17.7511 169.0766,-28.2962 175.4289,-25.3553"/>
</g>
<!-- Node23 -->
<g id="node9" class="node">
<title>Node23</title>
<g id="a_node9"><a xlink:href="../../d2/d65/_flavour_8h.html" target="_top" xlink:title="Flavour.h">
<polygon fill="none" stroke="#ff0000" points="251,-54.5 251,-71.5 301,-71.5 301,-54.5 251,-54.5"/>
<text text-anchor="middle" x="276" y="-61.1" font-family="Helvetica,sans-Serif" font-size="8.00" fill="#000000">Flavour.h</text>
</a>
</g>
</g>
<!-- Node22&#45;&gt;Node23 -->
<g id="edge11" class="edge">
<title>Node22&#45;&gt;Node23</title>
<path fill="none" stroke="#191970" d="M276,-108.083C276,-101.0059 276,-90.8611 276,-81.9865"/>
<polygon fill="#191970" stroke="#191970" points="279.5001,-81.751 276,-71.7511 272.5001,-81.7511 279.5001,-81.751"/>
</g>
<!-- Node24 -->
<g id="node10" class="node">
<title>Node24</title>
<g id="a_node10"><a xlink:href="../../d4/d68/_q_c_d_8h.html" target="_top" xlink:title="QCD.h">
<polygon fill="none" stroke="#ff0000" points="281.5,-.5 281.5,-17.5 322.5,-17.5 322.5,-.5 281.5,-.5"/>
<text text-anchor="middle" x="302" y="-7.1" font-family="Helvetica,sans-Serif" font-size="8.00" fill="#000000">QCD.h</text>
</a>
</g>
</g>
<!-- Node22&#45;&gt;Node24 -->
<g id="edge13" class="edge">
<title>Node22&#45;&gt;Node24</title>
<path fill="none" stroke="#191970" d="M285.2879,-108.3947C293.5807,-100.0248 305.1439,-86.4826 310,-72 314.8255,-57.6087 312.1472,-40.476 308.6403,-27.7125"/>
<polygon fill="#191970" stroke="#191970" points="311.8596,-26.2833 305.513,-17.7996 305.1839,-28.3894 311.8596,-26.2833"/>
</g>
<!-- Node23&#45;&gt;Node24 -->
<g id="edge12" class="edge">
<title>Node23&#45;&gt;Node24</title>
<path fill="none" stroke="#191970" d="M280.2934,-54.083C283.8523,-46.6913 289.0225,-35.9533 293.4243,-26.8111"/>
<polygon fill="#191970" stroke="#191970" points="296.6018,-28.2795 297.7865,-17.7511 290.2948,-25.2427 296.6018,-28.2795"/>
</g>
</g>
</svg>
