<?xml version="1.0" encoding="UTF-8" standalone="no"?>
<!DOCTYPE svg PUBLIC "-//W3C//DTD SVG 1.1//EN"
 "http://www.w3.org/Graphics/SVG/1.1/DTD/svg11.dtd">
<!-- Generated by graphviz version 2.40.1 (20161225.0304)
 -->
<!-- Title: EWSMOneLoopEW_HV.h Pages: 1 -->
<svg width="442pt" height="152pt"
 viewBox="0.00 0.00 441.50 152.00" xmlns="http://www.w3.org/2000/svg" xmlns:xlink="http://www.w3.org/1999/xlink">
<g id="graph0" class="graph" transform="scale(1 1) rotate(0) translate(4 148)">
<title>EWSMOneLoopEW_HV.h</title>
<!-- Node52 -->
<g id="node1" class="node">
<title>Node52</title>
<polygon fill="#bfbfbf" stroke="#000000" points="174,-126.5 174,-143.5 283,-143.5 283,-126.5 174,-126.5"/>
<text text-anchor="middle" x="228.5" y="-133.1" font-family="Helvetica,sans-Serif" font-size="8.00" fill="#000000">EWSMOneLoopEW_HV.h</text>
</g>
<!-- Node53 -->
<g id="node2" class="node">
<title>Node53</title>
<g id="a_node2"><a xlink:href="../../dd/d9d/_e_w_s_m___output_8cpp.html" target="_top" xlink:title="EWSM_Output.cpp">
<polygon fill="none" stroke="#000000" points="0,-68 0,-85 85,-85 85,-68 0,-68"/>
<text text-anchor="middle" x="42.5" y="-74.6" font-family="Helvetica,sans-Serif" font-size="8.00" fill="#000000">EWSM_Output.cpp</text>
</a>
</g>
</g>
<!-- Node52&#45;&gt;Node53 -->
<g id="edge1" class="edge">
<title>Node52&#45;&gt;Node53</title>
<path fill="none" stroke="#191970" d="M191.818,-123.4629C155.8409,-112.1475 101.8271,-95.1593 69.5786,-85.0167"/>
<polygon fill="#191970" stroke="#191970" points="190.8646,-126.832 201.454,-126.4936 192.9648,-120.1545 190.8646,-126.832"/>
</g>
<!-- Node54 -->
<g id="node3" class="node">
<title>Node54</title>
<g id="a_node3"><a xlink:href="../../d0/d56/_e_w_s_m_one_loop_e_w___h_v_8cpp.html" target="_top" xlink:title="EWSMOneLoopEW_HV.cpp">
<polygon fill="none" stroke="#000000" points="103.5,-68 103.5,-85 221.5,-85 221.5,-68 103.5,-68"/>
<text text-anchor="middle" x="162.5" y="-74.6" font-family="Helvetica,sans-Serif" font-size="8.00" fill="#000000">EWSMOneLoopEW_HV.cpp</text>
</a>
</g>
</g>
<!-- Node52&#45;&gt;Node54 -->
<g id="edge2" class="edge">
<title>Node52&#45;&gt;Node54</title>
<path fill="none" stroke="#191970" d="M211.265,-119.7235C198.8449,-108.7148 182.5304,-94.2543 172.2785,-85.1673"/>
<polygon fill="#191970" stroke="#191970" points="208.9564,-122.3542 218.7615,-126.3681 213.5996,-117.1158 208.9564,-122.3542"/>
</g>
<!-- Node55 -->
<g id="node4" class="node">
<title>Node55</title>
<g id="a_node4"><a xlink:href="../../d2/d93/_e_w_s_m_two_fermions_l_e_p2___hollik_8h.html" target="_top" xlink:title="EWSMTwoFermionsLEP2\l_Hollik.h">
<polygon fill="none" stroke="#000000" points="240,-63.5 240,-89.5 349,-89.5 349,-63.5 240,-63.5"/>
<text text-anchor="start" x="248" y="-79.1" font-family="Helvetica,sans-Serif" font-size="8.00" fill="#000000">EWSMTwoFermionsLEP2</text>
<text text-anchor="middle" x="294.5" y="-70.1" font-family="Helvetica,sans-Serif" font-size="8.00" fill="#000000">_Hollik.h</text>
</a>
</g>
</g>
<!-- Node52&#45;&gt;Node55 -->
<g id="edge3" class="edge">
<title>Node52&#45;&gt;Node55</title>
<path fill="none" stroke="#191970" d="M245.9434,-119.5388C256.4161,-110.2562 269.5993,-98.5711 279.5854,-89.7197"/>
<polygon fill="#191970" stroke="#191970" points="243.4004,-117.1158 238.2385,-126.3681 248.0436,-122.3542 243.4004,-117.1158"/>
</g>
<!-- Node57 -->
<g id="node6" class="node">
<title>Node57</title>
<g id="a_node6"><a xlink:href="../../d0/dc3/_e_w_s_u_s_y_8cpp.html" target="_top" xlink:title="EWSUSY.cpp">
<polygon fill="none" stroke="#000000" points="367.5,-68 367.5,-85 433.5,-85 433.5,-68 367.5,-68"/>
<text text-anchor="middle" x="400.5" y="-74.6" font-family="Helvetica,sans-Serif" font-size="8.00" fill="#000000">EWSUSY.cpp</text>
</a>
</g>
</g>
<!-- Node52&#45;&gt;Node57 -->
<g id="edge5" class="edge">
<title>Node52&#45;&gt;Node57</title>
<path fill="none" stroke="#191970" d="M263.2777,-123.1715C296.5425,-111.8576 345.8932,-95.0726 375.4595,-85.0167"/>
<polygon fill="#191970" stroke="#191970" points="261.8506,-119.9599 253.5103,-126.4936 264.1047,-126.5871 261.8506,-119.9599"/>
</g>
<!-- Node56 -->
<g id="node5" class="node">
<title>Node56</title>
<g id="a_node5"><a xlink:href="../../d4/d6e/_e_w_s_m_two_fermions_l_e_p2___hollik_8cpp.html" target="_top" xlink:title="EWSMTwoFermionsLEP2\l_Hollik.cpp">
<polygon fill="none" stroke="#000000" points="240,-.5 240,-26.5 349,-26.5 349,-.5 240,-.5"/>
<text text-anchor="start" x="248" y="-16.1" font-family="Helvetica,sans-Serif" font-size="8.00" fill="#000000">EWSMTwoFermionsLEP2</text>
<text text-anchor="middle" x="294.5" y="-7.1" font-family="Helvetica,sans-Serif" font-size="8.00" fill="#000000">_Hollik.cpp</text>
</a>
</g>
</g>
<!-- Node55&#45;&gt;Node56 -->
<g id="edge4" class="edge">
<title>Node55&#45;&gt;Node56</title>
<path fill="none" stroke="#191970" d="M294.5,-53.1641C294.5,-44.1693 294.5,-34.2205 294.5,-26.5369"/>
<polygon fill="#191970" stroke="#191970" points="291.0001,-53.4463 294.5,-63.4464 298.0001,-53.4464 291.0001,-53.4463"/>
</g>
</g>
</svg>
