<?xml version="1.0" encoding="UTF-8" standalone="no"?>
<!DOCTYPE svg PUBLIC "-//W3C//DTD SVG 1.1//EN"
 "http://www.w3.org/Graphics/SVG/1.1/DTD/svg11.dtd">
<!-- Generated by graphviz version 2.40.1 (20161225.0304)
 -->
<!-- Title: LHPC::SLHA::SpectrumPlotter Pages: 1 -->
<svg width="941pt" height="198pt"
 viewBox="0.00 0.00 941.00 198.00" xmlns="http://www.w3.org/2000/svg" xmlns:xlink="http://www.w3.org/1999/xlink">
<g id="graph0" class="graph" transform="scale(1 1) rotate(0) translate(4 194)">
<title>LHPC::SLHA::SpectrumPlotter</title>
<!-- Node1 -->
<g id="node1" class="node">
<title>Node1</title>
<polygon fill="#bfbfbf" stroke="#000000" points="808,-87 808,-104 933,-104 933,-87 808,-87"/>
<text text-anchor="middle" x="870.5" y="-93.6" font-family="Helvetica,sans-Serif" font-size="8.00" fill="#000000">LHPC::SLHA::SpectrumPlotter</text>
</g>
<!-- Node2 -->
<g id="node2" class="node">
<title>Node2</title>
<g id="a_node2"><a xlink:href="../../d0/d25/class_l_h_p_c_1_1_s_l_h_a_1_1_sparse_singly_indexed_block.html" target="_top" xlink:title="LHPC::SLHA::SparseSingly\lIndexedBlock\&lt; ValueClass \&gt;">
<polygon fill="none" stroke="#000000" points="360.5,-98.5 360.5,-124.5 479.5,-124.5 479.5,-98.5 360.5,-98.5"/>
<text text-anchor="start" x="368.5" y="-114.1" font-family="Helvetica,sans-Serif" font-size="8.00" fill="#000000">LHPC::SLHA::SparseSingly</text>
<text text-anchor="middle" x="420" y="-105.1" font-family="Helvetica,sans-Serif" font-size="8.00" fill="#000000">IndexedBlock&lt; ValueClass &gt;</text>
</a>
</g>
</g>
<!-- Node2&#45;&gt;Node1 -->
<g id="edge1" class="edge">
<title>Node2&#45;&gt;Node1</title>
<path fill="none" stroke="#9a32cd" stroke-dasharray="5,2" d="M489.8716,-109.0184C576.9253,-105.9266 724.3667,-100.6901 807.8923,-97.7236"/>
<polygon fill="#9a32cd" stroke="#9a32cd" points="489.6924,-105.5225 479.8229,-109.3753 489.9409,-112.5181 489.6924,-105.5225"/>
<text text-anchor="middle" x="660.5" y="-125.1" font-family="Helvetica,sans-Serif" font-size="8.00" fill="#000000"> linePlottingBlock</text>
<text text-anchor="middle" x="660.5" y="-116.1" font-family="Helvetica,sans-Serif" font-size="8.00" fill="#000000">fmassPointer</text>
<text text-anchor="middle" x="660.5" y="-107.1" font-family="Helvetica,sans-Serif" font-size="8.00" fill="#000000">plotControlBlock</text>
</g>
<!-- Node17 -->
<g id="node5" class="node">
<title>Node17</title>
<g id="a_node5"><a xlink:href="../../d0/d25/class_l_h_p_c_1_1_s_l_h_a_1_1_sparse_singly_indexed_block.html" target="_top" xlink:title="LHPC::SLHA::SparseSingly\lIndexedBlock\&lt; double \&gt;">
<polygon fill="none" stroke="#000000" points="603,-154.5 603,-180.5 718,-180.5 718,-154.5 603,-154.5"/>
<text text-anchor="start" x="611" y="-170.1" font-family="Helvetica,sans-Serif" font-size="8.00" fill="#000000">LHPC::SLHA::SparseSingly</text>
<text text-anchor="middle" x="660.5" y="-161.1" font-family="Helvetica,sans-Serif" font-size="8.00" fill="#000000">IndexedBlock&lt; double &gt;</text>
</a>
</g>
</g>
<!-- Node2&#45;&gt;Node17 -->
<g id="edge6" class="edge">
<title>Node2&#45;&gt;Node17</title>
<path fill="none" stroke="#ffa500" stroke-dasharray="5,2" d="M486.2915,-126.9359C523.3524,-135.5654 569.0401,-146.2037 604.3281,-154.4205"/>
<polygon fill="#ffa500" stroke="#ffa500" points="486.6163,-123.4179 476.083,-124.5588 485.0287,-130.2355 486.6163,-123.4179"/>
<text text-anchor="middle" x="538.5" y="-150.1" font-family="Helvetica,sans-Serif" font-size="8.00" fill="#000000"> &lt; double &gt;</text>
</g>
<!-- Node3 -->
<g id="node3" class="node">
<title>Node3</title>
<g id="a_node3"><a xlink:href="../../de/d5e/class_l_h_p_c_1_1_s_l_h_a_1_1_indexed_block_template.html" target="_top" xlink:title="LHPC::SLHA::IndexedBlock\lTemplate\&lt; ValueClass,\l InterpreterClass::SparseSingly\lIndexed\&lt; ValueClass \&gt; \&gt;">
<polygon fill="none" stroke="#ff0000" points="195,-89.5 195,-133.5 322,-133.5 322,-89.5 195,-89.5"/>
<text text-anchor="start" x="203" y="-123.1" font-family="Helvetica,sans-Serif" font-size="8.00" fill="#000000">LHPC::SLHA::IndexedBlock</text>
<text text-anchor="start" x="203" y="-114.1" font-family="Helvetica,sans-Serif" font-size="8.00" fill="#000000">Template&lt; ValueClass,</text>
<text text-anchor="start" x="203" y="-105.1" font-family="Helvetica,sans-Serif" font-size="8.00" fill="#000000"> InterpreterClass::SparseSingly</text>
<text text-anchor="middle" x="258.5" y="-96.1" font-family="Helvetica,sans-Serif" font-size="8.00" fill="#000000">Indexed&lt; ValueClass &gt; &gt;</text>
</a>
</g>
</g>
<!-- Node3&#45;&gt;Node2 -->
<g id="edge2" class="edge">
<title>Node3&#45;&gt;Node2</title>
<path fill="none" stroke="#191970" d="M332.4022,-111.5C341.7519,-111.5 351.2249,-111.5 360.315,-111.5"/>
<polygon fill="#191970" stroke="#191970" points="332.3291,-108.0001 322.3291,-111.5 332.329,-115.0001 332.3291,-108.0001"/>
</g>
<!-- Node4 -->
<g id="node4" class="node">
<title>Node4</title>
<g id="a_node4"><a xlink:href="../../d6/daf/class_l_h_p_c_1_1_s_l_h_a_1_1_slha_block.html" target="_top" xlink:title="LHPC::SLHA::SlhaBlock\l\&lt; ValueClass, InterpreterClass\l::SparseSinglyIndexed\&lt; ValueClass \&gt; \&gt;">
<polygon fill="none" stroke="#ff0000" points="0,-94 0,-129 158,-129 158,-94 0,-94"/>
<text text-anchor="start" x="8" y="-118.6" font-family="Helvetica,sans-Serif" font-size="8.00" fill="#000000">LHPC::SLHA::SlhaBlock</text>
<text text-anchor="start" x="8" y="-109.6" font-family="Helvetica,sans-Serif" font-size="8.00" fill="#000000">&lt; ValueClass, InterpreterClass</text>
<text text-anchor="middle" x="79" y="-100.6" font-family="Helvetica,sans-Serif" font-size="8.00" fill="#000000">::SparseSinglyIndexed&lt; ValueClass &gt; &gt;</text>
</a>
</g>
</g>
<!-- Node4&#45;&gt;Node3 -->
<g id="edge3" class="edge">
<title>Node4&#45;&gt;Node3</title>
<path fill="none" stroke="#191970" d="M168.3093,-111.5C177.2345,-111.5 186.1654,-111.5 194.7491,-111.5"/>
<polygon fill="#191970" stroke="#191970" points="168.2539,-108.0001 158.2538,-111.5 168.2538,-115.0001 168.2539,-108.0001"/>
</g>
<!-- Node17&#45;&gt;Node1 -->
<g id="edge4" class="edge">
<title>Node17&#45;&gt;Node1</title>
<path fill="none" stroke="#9a32cd" stroke-dasharray="5,2" d="M708.1551,-151.1611C750.86,-136.5194 811.8199,-115.6189 845.5832,-104.0429"/>
<polygon fill="#9a32cd" stroke="#9a32cd" points="706.8537,-147.9072 698.5294,-154.4613 709.124,-154.5288 706.8537,-147.9072"/>
<text text-anchor="middle" x="766.5" y="-140.1" font-family="Helvetica,sans-Serif" font-size="8.00" fill="#000000"> massPointer</text>
</g>
<!-- Node18 -->
<g id="node6" class="node">
<title>Node18</title>
<g id="a_node6"><a xlink:href="../../de/d5e/class_l_h_p_c_1_1_s_l_h_a_1_1_indexed_block_template.html" target="_top" xlink:title="LHPC::SLHA::IndexedBlock\lTemplate\&lt; double, Interpreter\lClass::SparseSinglyIndexed\l\&lt; double \&gt; \&gt;">
<polygon fill="none" stroke="#ff0000" points="359,-145.5 359,-189.5 481,-189.5 481,-145.5 359,-145.5"/>
<text text-anchor="start" x="367" y="-179.1" font-family="Helvetica,sans-Serif" font-size="8.00" fill="#000000">LHPC::SLHA::IndexedBlock</text>
<text text-anchor="start" x="367" y="-170.1" font-family="Helvetica,sans-Serif" font-size="8.00" fill="#000000">Template&lt; double, Interpreter</text>
<text text-anchor="start" x="367" y="-161.1" font-family="Helvetica,sans-Serif" font-size="8.00" fill="#000000">Class::SparseSinglyIndexed</text>
<text text-anchor="middle" x="420" y="-152.1" font-family="Helvetica,sans-Serif" font-size="8.00" fill="#000000">&lt; double &gt; &gt;</text>
</a>
</g>
</g>
<!-- Node18&#45;&gt;Node17 -->
<g id="edge5" class="edge">
<title>Node18&#45;&gt;Node17</title>
<path fill="none" stroke="#191970" d="M491.5916,-167.5C527.0291,-167.5 569.2483,-167.5 602.6121,-167.5"/>
<polygon fill="#191970" stroke="#191970" points="491.3106,-164.0001 481.3106,-167.5 491.3105,-171.0001 491.3106,-164.0001"/>
</g>
<!-- Node21 -->
<g id="node7" class="node">
<title>Node21</title>
<g id="a_node7"><a xlink:href="../../de/da2/class_b_o_l_1_1_vectorlike_array.html" target="_top" xlink:title="BOL::VectorlikeArray\l\&lt; LineList \&gt;">
<polygon fill="none" stroke="#000000" points="615,-45.5 615,-71.5 706,-71.5 706,-45.5 615,-45.5"/>
<text text-anchor="start" x="623" y="-61.1" font-family="Helvetica,sans-Serif" font-size="8.00" fill="#000000">BOL::VectorlikeArray</text>
<text text-anchor="middle" x="660.5" y="-52.1" font-family="Helvetica,sans-Serif" font-size="8.00" fill="#000000">&lt; LineList &gt;</text>
</a>
</g>
</g>
<!-- Node21&#45;&gt;Node1 -->
<g id="edge7" class="edge">
<title>Node21&#45;&gt;Node1</title>
<path fill="none" stroke="#9a32cd" stroke-dasharray="5,2" d="M716.0139,-68.281C749.0046,-74.0937 790.4458,-81.3952 822.0993,-86.9723"/>
<polygon fill="#9a32cd" stroke="#9a32cd" points="716.5225,-64.8168 706.0669,-66.5284 715.3078,-71.7106 716.5225,-64.8168"/>
<text text-anchor="middle" x="766.5" y="-82.1" font-family="Helvetica,sans-Serif" font-size="8.00" fill="#000000"> columnSet</text>
</g>
<!-- Node9 -->
<g id="node8" class="node">
<title>Node9</title>
<g id="a_node8"><a xlink:href="../../de/da2/class_b_o_l_1_1_vectorlike_array.html" target="_top" xlink:title="BOL::VectorlikeArray\l\&lt; StoredClass \&gt;">
<polygon fill="none" stroke="#ff0000" points="374.5,-45.5 374.5,-71.5 465.5,-71.5 465.5,-45.5 374.5,-45.5"/>
<text text-anchor="start" x="382.5" y="-61.1" font-family="Helvetica,sans-Serif" font-size="8.00" fill="#000000">BOL::VectorlikeArray</text>
<text text-anchor="middle" x="420" y="-52.1" font-family="Helvetica,sans-Serif" font-size="8.00" fill="#000000">&lt; StoredClass &gt;</text>
</a>
</g>
</g>
<!-- Node9&#45;&gt;Node21 -->
<g id="edge8" class="edge">
<title>Node9&#45;&gt;Node21</title>
<path fill="none" stroke="#ffa500" stroke-dasharray="5,2" d="M475.6354,-58.5C517.8545,-58.5 575.1889,-58.5 614.7586,-58.5"/>
<polygon fill="#ffa500" stroke="#ffa500" points="475.519,-55.0001 465.519,-58.5 475.5189,-62.0001 475.519,-55.0001"/>
<text text-anchor="middle" x="538.5" y="-61.1" font-family="Helvetica,sans-Serif" font-size="8.00" fill="#000000"> &lt; LineList &gt;</text>
</g>
<!-- Node22 -->
<g id="node9" class="node">
<title>Node22</title>
<g id="a_node9"><a xlink:href="../../d6/d60/class_l_h_p_c_1_1_s_l_h_a_1_1_spectrum_plotting_1_1_line_data.html" target="_top" xlink:title="LHPC::SLHA::SpectrumPlotting\l::LineData">
<polygon fill="none" stroke="#000000" points="596,-.5 596,-26.5 725,-26.5 725,-.5 596,-.5"/>
<text text-anchor="start" x="604" y="-16.1" font-family="Helvetica,sans-Serif" font-size="8.00" fill="#000000">LHPC::SLHA::SpectrumPlotting</text>
<text text-anchor="middle" x="660.5" y="-7.1" font-family="Helvetica,sans-Serif" font-size="8.00" fill="#000000">::LineData</text>
</a>
</g>
</g>
<!-- Node22&#45;&gt;Node1 -->
<g id="edge9" class="edge">
<title>Node22&#45;&gt;Node1</title>
<path fill="none" stroke="#9a32cd" stroke-dasharray="5,2" d="M709.085,-29.8477C714.4652,-31.7246 719.8559,-33.6342 725,-35.5 754.0972,-46.0535 761.3564,-48.7711 790,-60.5 811.1544,-69.1623 835.156,-79.6898 851.4054,-86.9227"/>
<polygon fill="#9a32cd" stroke="#9a32cd" points="710.0622,-26.4823 699.4675,-26.5215 707.7742,-33.0979 710.0622,-26.4823"/>
<text text-anchor="middle" x="766.5" y="-63.1" font-family="Helvetica,sans-Serif" font-size="8.00" fill="#000000"> lineAdder</text>
</g>
<!-- Node23 -->
<g id="node10" class="node">
<title>Node23</title>
<g id="a_node10"><a xlink:href="../../d2/d43/class_b_o_l_1_1_string_parser.html" target="_top" xlink:title="BOL::StringParser">
<polygon fill="none" stroke="#000000" points="379.5,-5 379.5,-22 460.5,-22 460.5,-5 379.5,-5"/>
<text text-anchor="middle" x="420" y="-11.6" font-family="Helvetica,sans-Serif" font-size="8.00" fill="#000000">BOL::StringParser</text>
</a>
</g>
</g>
<!-- Node23&#45;&gt;Node22 -->
<g id="edge10" class="edge">
<title>Node23&#45;&gt;Node22</title>
<path fill="none" stroke="#9a32cd" stroke-dasharray="5,2" d="M470.9046,-13.5C507.2981,-13.5 556.5656,-13.5 595.7563,-13.5"/>
<polygon fill="#9a32cd" stroke="#9a32cd" points="470.5256,-10.0001 460.5256,-13.5 470.5256,-17.0001 470.5256,-10.0001"/>
<text text-anchor="middle" x="538.5" y="-16.1" font-family="Helvetica,sans-Serif" font-size="8.00" fill="#000000"> overlargeMassPrinter</text>
</g>
</g>
</svg>
