<?xml version="1.0" encoding="UTF-8" standalone="no"?>
<!DOCTYPE svg PUBLIC "-//W3C//DTD SVG 1.1//EN"
 "http://www.w3.org/Graphics/SVG/1.1/DTD/svg11.dtd">
<!-- Generated by graphviz version 2.38.0 (20140413.2041)
 -->
<!-- Title: RGEvolutor.h Pages: 1 -->
<svg width="499pt" height="296pt"
 viewBox="0.00 0.00 499.07 296.00" xmlns="http://www.w3.org/2000/svg" xmlns:xlink="http://www.w3.org/1999/xlink">
<g id="graph0" class="graph" transform="scale(1 1) rotate(0) translate(4 292)">
<title>RGEvolutor.h</title>
<!-- Node1 -->
<g id="node1" class="node"><title>Node1</title>
<polygon fill="#bfbfbf" stroke="black" points="324.069,-270.5 324.069,-287.5 389.069,-287.5 389.069,-270.5 324.069,-270.5"/>
<text text-anchor="middle" x="356.569" y="-277.1" font-family="Helvetica,sans-Serif" font-size="8.00">RGEvolutor.h</text>
</g>
<!-- Node2 -->
<g id="node2" class="node"><title>Node2</title>
<g id="a_node2"><a xlink:href="../../d9/d72/gslpp_8h.html" target="_top" xlink:title="gslpp.h">
<polygon fill="none" stroke="black" points="132.569,-216.5 132.569,-233.5 174.569,-233.5 174.569,-216.5 132.569,-216.5"/>
<text text-anchor="middle" x="153.569" y="-223.1" font-family="Helvetica,sans-Serif" font-size="8.00">gslpp.h</text>
</a>
</g>
</g>
<!-- Node1&#45;&gt;Node2 -->
<g id="edge1" class="edge"><title>Node1&#45;&gt;Node2</title>
<path fill="none" stroke="midnightblue" d="M327.051,-270.439C289.157,-260.732 223.685,-243.961 184.924,-234.032"/>
<polygon fill="midnightblue" stroke="midnightblue" points="185.3,-230.515 174.745,-231.424 183.563,-237.296 185.3,-230.515"/>
</g>
<!-- Node8 -->
<g id="node8" class="node"><title>Node8</title>
<g id="a_node8"><a xlink:href="../../d4/d36/_order_scheme_8h.html" target="_top" xlink:title="OrderScheme.h">
<polygon fill="none" stroke="black" points="355.069,-162.5 355.069,-179.5 428.069,-179.5 428.069,-162.5 355.069,-162.5"/>
<text text-anchor="middle" x="391.569" y="-169.1" font-family="Helvetica,sans-Serif" font-size="8.00">OrderScheme.h</text>
</a>
</g>
</g>
<!-- Node1&#45;&gt;Node8 -->
<g id="edge17" class="edge"><title>Node1&#45;&gt;Node8</title>
<path fill="none" stroke="midnightblue" d="M358.783,-270.324C362.205,-258.569 369.064,-235.43 375.569,-216 378.547,-207.104 382.092,-197.285 385.088,-189.184"/>
<polygon fill="midnightblue" stroke="midnightblue" points="388.392,-190.339 388.615,-179.747 381.835,-187.889 388.392,-190.339"/>
</g>
<!-- Node9 -->
<g id="node9" class="node"><title>Node9</title>
<g id="a_node9"><a xlink:href="../../d3/de7/_wilson_template_8h.html" target="_top" xlink:title="WilsonTemplate.h">
<polygon fill="none" stroke="red" points="385.069,-216.5 385.069,-233.5 466.069,-233.5 466.069,-216.5 385.069,-216.5"/>
<text text-anchor="middle" x="425.569" y="-223.1" font-family="Helvetica,sans-Serif" font-size="8.00">WilsonTemplate.h</text>
</a>
</g>
</g>
<!-- Node1&#45;&gt;Node9 -->
<g id="edge18" class="edge"><title>Node1&#45;&gt;Node9</title>
<path fill="none" stroke="midnightblue" d="M366.75,-270.327C377.349,-262.339 394.18,-249.655 407.127,-239.898"/>
<polygon fill="midnightblue" stroke="midnightblue" points="409.466,-242.518 415.346,-233.704 405.253,-236.928 409.466,-242.518"/>
</g>
<!-- Node3 -->
<g id="node3" class="node"><title>Node3</title>
<g id="a_node3"><a xlink:href="../../d1/dc2/gslpp__complex_8h.html" target="_top" xlink:title="gslpp_complex.h">
<polygon fill="none" stroke="red" points="105.069,-0.5 105.069,-17.5 182.069,-17.5 182.069,-0.5 105.069,-0.5"/>
<text text-anchor="middle" x="143.569" y="-7.1" font-family="Helvetica,sans-Serif" font-size="8.00">gslpp_complex.h</text>
</a>
</g>
</g>
<!-- Node2&#45;&gt;Node3 -->
<g id="edge2" class="edge"><title>Node2&#45;&gt;Node3</title>
<path fill="none" stroke="midnightblue" d="M140.187,-216.264C108.32,-196.918 28.6581,-142.86 2.56859,-72 -12.452,-31.2039 48.4675,-17.219 94.934,-12.445"/>
<polygon fill="midnightblue" stroke="midnightblue" points="95.2529,-15.9306 104.893,-11.536 94.6165,-8.95954 95.2529,-15.9306"/>
</g>
<!-- Node4 -->
<g id="node4" class="node"><title>Node4</title>
<g id="a_node4"><a xlink:href="../../da/d8e/gslpp__vector__double_8h.html" target="_top" xlink:title="gslpp_vector_double.h">
<polygon fill="none" stroke="red" points="172.069,-54.5 172.069,-71.5 269.069,-71.5 269.069,-54.5 172.069,-54.5"/>
<text text-anchor="middle" x="220.569" y="-61.1" font-family="Helvetica,sans-Serif" font-size="8.00">gslpp_vector_double.h</text>
</a>
</g>
</g>
<!-- Node2&#45;&gt;Node4 -->
<g id="edge3" class="edge"><title>Node2&#45;&gt;Node4</title>
<path fill="none" stroke="midnightblue" d="M174.926,-220.854C197.624,-216.246 232.422,-205.273 248.569,-180 268.665,-148.544 246.604,-103.906 231.772,-80.2223"/>
<polygon fill="midnightblue" stroke="midnightblue" points="234.599,-78.151 226.182,-71.7159 228.749,-81.9951 234.599,-78.151"/>
</g>
<!-- Node5 -->
<g id="node5" class="node"><title>Node5</title>
<g id="a_node5"><a xlink:href="../../da/dad/gslpp__vector__complex_8h.html" target="_top" xlink:title="gslpp_vector_complex.h">
<polygon fill="none" stroke="red" points="12.0686,-54.5 12.0686,-71.5 115.069,-71.5 115.069,-54.5 12.0686,-54.5"/>
<text text-anchor="middle" x="63.5686" y="-61.1" font-family="Helvetica,sans-Serif" font-size="8.00">gslpp_vector_complex.h</text>
</a>
</g>
</g>
<!-- Node2&#45;&gt;Node5 -->
<g id="edge5" class="edge"><title>Node2&#45;&gt;Node5</title>
<path fill="none" stroke="midnightblue" d="M145.165,-216.282C128.912,-200.838 93.2203,-164.315 75.5686,-126 69.1059,-111.972 66.1221,-94.6081 64.7454,-81.8276"/>
<polygon fill="midnightblue" stroke="midnightblue" points="68.2112,-81.275 63.8792,-71.6063 61.2362,-81.8661 68.2112,-81.275"/>
</g>
<!-- Node6 -->
<g id="node6" class="node"><title>Node6</title>
<g id="a_node6"><a xlink:href="../../d0/ddb/gslpp__matrix__double_8h.html" target="_top" xlink:title="gslpp_matrix_double.h">
<polygon fill="none" stroke="red" points="143.069,-162.5 143.069,-179.5 240.069,-179.5 240.069,-162.5 143.069,-162.5"/>
<text text-anchor="middle" x="191.569" y="-169.1" font-family="Helvetica,sans-Serif" font-size="8.00">gslpp_matrix_double.h</text>
</a>
</g>
</g>
<!-- Node2&#45;&gt;Node6 -->
<g id="edge7" class="edge"><title>Node2&#45;&gt;Node6</title>
<path fill="none" stroke="midnightblue" d="M159.176,-216.327C164.62,-208.877 173.05,-197.341 179.945,-187.906"/>
<polygon fill="midnightblue" stroke="midnightblue" points="182.864,-189.843 185.939,-179.704 177.212,-185.713 182.864,-189.843"/>
</g>
<!-- Node7 -->
<g id="node7" class="node"><title>Node7</title>
<g id="a_node7"><a xlink:href="../../d9/d25/gslpp__matrix__complex_8h.html" target="_top" xlink:title="gslpp_matrix_complex.h">
<polygon fill="none" stroke="red" points="101.069,-108.5 101.069,-125.5 204.069,-125.5 204.069,-108.5 101.069,-108.5"/>
<text text-anchor="middle" x="152.569" y="-115.1" font-family="Helvetica,sans-Serif" font-size="8.00">gslpp_matrix_complex.h</text>
</a>
</g>
</g>
<!-- Node2&#45;&gt;Node7 -->
<g id="edge16" class="edge"><title>Node2&#45;&gt;Node7</title>
<path fill="none" stroke="midnightblue" d="M148.805,-216.247C143.87,-207.724 136.482,-193.449 133.569,-180 130.18,-164.355 136.417,-146.963 142.632,-134.591"/>
<polygon fill="midnightblue" stroke="midnightblue" points="145.867,-135.973 147.636,-125.527 139.739,-132.59 145.867,-135.973"/>
</g>
<!-- Node4&#45;&gt;Node3 -->
<g id="edge4" class="edge"><title>Node4&#45;&gt;Node3</title>
<path fill="none" stroke="midnightblue" d="M209.207,-54.3272C197.082,-46.1388 177.65,-33.0157 163.069,-23.1692"/>
<polygon fill="midnightblue" stroke="midnightblue" points="164.973,-20.2313 154.726,-17.5352 161.055,-26.0324 164.973,-20.2313"/>
</g>
<!-- Node5&#45;&gt;Node3 -->
<g id="edge6" class="edge"><title>Node5&#45;&gt;Node3</title>
<path fill="none" stroke="midnightblue" d="M75.3729,-54.3272C87.9705,-46.1388 108.16,-33.0157 123.308,-23.1692"/>
<polygon fill="midnightblue" stroke="midnightblue" points="125.499,-25.9197 131.976,-17.5352 121.684,-20.0506 125.499,-25.9197"/>
</g>
<!-- Node6&#45;&gt;Node3 -->
<g id="edge8" class="edge"><title>Node6&#45;&gt;Node3</title>
<path fill="none" stroke="midnightblue" d="M204.939,-162.443C235.851,-144.008 307.418,-95.2187 277.569,-54 258.234,-27.301 222.176,-16.5148 192.332,-12.2885"/>
<polygon fill="midnightblue" stroke="midnightblue" points="192.419,-8.77376 182.072,-11.0519 191.581,-15.7235 192.419,-8.77376"/>
</g>
<!-- Node6&#45;&gt;Node4 -->
<g id="edge9" class="edge"><title>Node6&#45;&gt;Node4</title>
<path fill="none" stroke="midnightblue" d="M196.234,-162.195C201.128,-153.627 208.642,-139.314 212.569,-126 216.847,-111.495 218.838,-94.4111 219.764,-81.8536"/>
<polygon fill="midnightblue" stroke="midnightblue" points="223.262,-81.9842 220.35,-71.7975 216.274,-81.5768 223.262,-81.9842"/>
</g>
<!-- Node6&#45;&gt;Node5 -->
<g id="edge10" class="edge"><title>Node6&#45;&gt;Node5</title>
<path fill="none" stroke="midnightblue" d="M159.737,-162.454C138.173,-155.93 110.301,-144.552 91.5686,-126 79.2524,-113.803 71.8551,-95.2128 67.7847,-81.5693"/>
<polygon fill="midnightblue" stroke="midnightblue" points="71.1652,-80.6625 65.2031,-71.9044 64.4023,-82.4689 71.1652,-80.6625"/>
</g>
<!-- Node6&#45;&gt;Node7 -->
<g id="edge11" class="edge"><title>Node6&#45;&gt;Node7</title>
<path fill="none" stroke="midnightblue" d="M180.859,-162.327C173.612,-155.03 164.742,-143.815 158.606,-134.492"/>
<polygon fill="midnightblue" stroke="midnightblue" points="161.501,-132.513 153.384,-125.704 155.484,-136.089 161.501,-132.513"/>
</g>
<!-- Node7&#45;&gt;Node3 -->
<g id="edge12" class="edge"><title>Node7&#45;&gt;Node3</title>
<path fill="none" stroke="midnightblue" d="M151.921,-108.377C150.501,-91.6457 147.078,-51.3313 145.083,-27.8308"/>
<polygon fill="midnightblue" stroke="midnightblue" points="148.544,-27.2222 144.21,-17.5542 141.569,-27.8145 148.544,-27.2222"/>
</g>
<!-- Node7&#45;&gt;Node4 -->
<g id="edge13" class="edge"><title>Node7&#45;&gt;Node4</title>
<path fill="none" stroke="midnightblue" d="M162.602,-108.327C173.048,-100.339 189.635,-87.6551 202.394,-77.8979"/>
<polygon fill="midnightblue" stroke="midnightblue" points="204.676,-80.5591 210.494,-71.7043 200.424,-74.9985 204.676,-80.5591"/>
</g>
<!-- Node7&#45;&gt;Node5 -->
<g id="edge14" class="edge"><title>Node7&#45;&gt;Node5</title>
<path fill="none" stroke="midnightblue" d="M139.436,-108.327C125.157,-99.9843 102.11,-86.5188 85.1604,-76.6154"/>
<polygon fill="midnightblue" stroke="midnightblue" points="86.8653,-73.558 76.4654,-71.5352 83.334,-79.602 86.8653,-73.558"/>
</g>
<!-- Node7&#45;&gt;Node6 -->
<g id="edge15" class="edge"><title>Node7&#45;&gt;Node6</title>
<path fill="none" stroke="midnightblue" d="M163.31,-125.704C170.561,-133.012 179.43,-144.23 185.558,-153.548"/>
<polygon fill="midnightblue" stroke="midnightblue" points="182.655,-155.515 190.769,-162.327 188.674,-151.942 182.655,-155.515"/>
</g>
<!-- Node9&#45;&gt;Node8 -->
<g id="edge19" class="edge"><title>Node9&#45;&gt;Node8</title>
<path fill="none" stroke="midnightblue" d="M420.552,-216.327C415.731,-208.954 408.293,-197.579 402.16,-188.198"/>
<polygon fill="midnightblue" stroke="midnightblue" points="405.008,-186.159 396.606,-179.704 399.149,-189.989 405.008,-186.159"/>
</g>
<!-- Node10 -->
<g id="node10" class="node"><title>Node10</title>
<polygon fill="none" stroke="#bfbfbf" points="446.069,-162.5 446.069,-179.5 491.069,-179.5 491.069,-162.5 446.069,-162.5"/>
<text text-anchor="middle" x="468.569" y="-169.1" font-family="Helvetica,sans-Serif" font-size="8.00">sstream</text>
</g>
<!-- Node9&#45;&gt;Node10 -->
<g id="edge20" class="edge"><title>Node9&#45;&gt;Node10</title>
<path fill="none" stroke="midnightblue" d="M431.913,-216.327C438.138,-208.8 447.81,-197.103 455.657,-187.614"/>
<polygon fill="midnightblue" stroke="midnightblue" points="458.522,-189.641 462.198,-179.704 453.128,-185.18 458.522,-189.641"/>
</g>
</g>
</svg>
