<?xml version="1.0" encoding="UTF-8" standalone="no"?>
<!DOCTYPE svg PUBLIC "-//W3C//DTD SVG 1.1//EN"
 "http://www.w3.org/Graphics/SVG/1.1/DTD/svg11.dtd">
<!-- Generated by graphviz version 2.40.1 (20161225.0304)
 -->
<!-- Title: positivity.cpp Pages: 1 -->
<svg width="313pt" height="350pt"
 viewBox="0.00 0.00 312.50 350.00" xmlns="http://www.w3.org/2000/svg" xmlns:xlink="http://www.w3.org/1999/xlink">
<g id="graph0" class="graph" transform="scale(1 1) rotate(0) translate(4 346)">
<title>positivity.cpp</title>
<!-- Node0 -->
<g id="node1" class="node">
<title>Node0</title>
<polygon fill="#bfbfbf" stroke="#000000" points="204,-324.5 204,-341.5 266,-341.5 266,-324.5 204,-324.5"/>
<text text-anchor="middle" x="235" y="-331.1" font-family="Helvetica,sans-Serif" font-size="8.00" fill="#000000">positivity.cpp</text>
</g>
<!-- Node1 -->
<g id="node2" class="node">
<title>Node1</title>
<g id="a_node2"><a xlink:href="../../d4/d77/positivity_8h.html" target="_top" xlink:title="positivity.h">
<polygon fill="none" stroke="#000000" points="101,-270.5 101,-287.5 155,-287.5 155,-270.5 101,-270.5"/>
<text text-anchor="middle" x="128" y="-277.1" font-family="Helvetica,sans-Serif" font-size="8.00" fill="#000000">positivity.h</text>
</a>
</g>
</g>
<!-- Node0&#45;&gt;Node1 -->
<g id="edge1" class="edge">
<title>Node0&#45;&gt;Node1</title>
<path fill="none" stroke="#191970" d="M217.8086,-324.324C200.6491,-315.6641 174.0543,-302.2424 154.2527,-292.249"/>
<polygon fill="#191970" stroke="#191970" points="155.6532,-289.0354 145.1487,-287.6545 152.4993,-295.2847 155.6532,-289.0354"/>
</g>
<!-- Node7 -->
<g id="node6" class="node">
<title>Node7</title>
<g id="a_node6"><a xlink:href="../../d6/d0a/_standard_model_8h.html" target="_top" xlink:title="StandardModel.h">
<polygon fill="none" stroke="#ff0000" points="90.5,-108.5 90.5,-125.5 167.5,-125.5 167.5,-108.5 90.5,-108.5"/>
<text text-anchor="middle" x="129" y="-115.1" font-family="Helvetica,sans-Serif" font-size="8.00" fill="#000000">StandardModel.h</text>
</a>
</g>
</g>
<!-- Node0&#45;&gt;Node7 -->
<g id="edge13" class="edge">
<title>Node0&#45;&gt;Node7</title>
<path fill="none" stroke="#191970" d="M236.6874,-324.2072C241.358,-297.2108 251.8632,-214.1907 216,-162 205.4538,-146.6524 188.0107,-136.2009 171.5009,-129.2651"/>
<polygon fill="#191970" stroke="#191970" points="172.5368,-125.9133 161.9473,-125.5772 170.0159,-132.4436 172.5368,-125.9133"/>
</g>
<!-- Node30 -->
<g id="node10" class="node">
<title>Node30</title>
<polygon fill="none" stroke="#bfbfbf" points="263.5,-270.5 263.5,-287.5 304.5,-287.5 304.5,-270.5 263.5,-270.5"/>
<text text-anchor="middle" x="284" y="-277.1" font-family="Helvetica,sans-Serif" font-size="8.00" fill="#000000">math.h</text>
</g>
<!-- Node0&#45;&gt;Node30 -->
<g id="edge14" class="edge">
<title>Node0&#45;&gt;Node30</title>
<path fill="none" stroke="#191970" d="M243.0914,-324.083C250.1554,-316.2982 260.5876,-304.8015 269.1489,-295.3665"/>
<polygon fill="#191970" stroke="#191970" points="271.9312,-297.5087 276.0592,-287.7511 266.7473,-292.8047 271.9312,-297.5087"/>
</g>
<!-- Node2 -->
<g id="node3" class="node">
<title>Node2</title>
<polygon fill="none" stroke="#bfbfbf" points="155.5,-162.5 155.5,-179.5 206.5,-179.5 206.5,-162.5 155.5,-162.5"/>
<text text-anchor="middle" x="181" y="-169.1" font-family="Helvetica,sans-Serif" font-size="8.00" fill="#000000">stdexcept</text>
</g>
<!-- Node1&#45;&gt;Node2 -->
<g id="edge2" class="edge">
<title>Node1&#45;&gt;Node2</title>
<path fill="none" stroke="#191970" d="M142.7577,-270.3849C154.6183,-262.5574 170.4944,-249.8284 178,-234 184.5315,-220.2258 184.8463,-202.8012 183.7743,-189.7702"/>
<polygon fill="#191970" stroke="#191970" points="187.2293,-189.1802 182.5966,-179.6519 180.2762,-189.9895 187.2293,-189.1802"/>
</g>
<!-- Node3 -->
<g id="node4" class="node">
<title>Node3</title>
<g id="a_node4"><a xlink:href="../../dd/dcd/_th_observable_8h.html" target="_top" xlink:title="ThObservable.h">
<polygon fill="none" stroke="#ff0000" points="64.5,-162.5 64.5,-179.5 137.5,-179.5 137.5,-162.5 64.5,-162.5"/>
<text text-anchor="middle" x="101" y="-169.1" font-family="Helvetica,sans-Serif" font-size="8.00" fill="#000000">ThObservable.h</text>
</a>
</g>
</g>
<!-- Node1&#45;&gt;Node3 -->
<g id="edge3" class="edge">
<title>Node1&#45;&gt;Node3</title>
<path fill="none" stroke="#191970" d="M113.3386,-270.402C101.5939,-262.585 85.9688,-249.8617 79,-234 72.3252,-218.8076 80.0068,-200.8936 88.0692,-188.0595"/>
<polygon fill="#191970" stroke="#191970" points="91.0201,-189.9453 93.8073,-179.7236 85.2542,-185.9762 91.0201,-189.9453"/>
</g>
<!-- Node6 -->
<g id="node5" class="node">
<title>Node6</title>
<g id="a_node5"><a xlink:href="../../de/de8/_t_h_d_m_8h.html" target="_top" xlink:title="THDM.h">
<polygon fill="none" stroke="#ff0000" points="0,-162.5 0,-179.5 46,-179.5 46,-162.5 0,-162.5"/>
<text text-anchor="middle" x="23" y="-169.1" font-family="Helvetica,sans-Serif" font-size="8.00" fill="#000000">THDM.h</text>
</a>
</g>
</g>
<!-- Node1&#45;&gt;Node6 -->
<g id="edge4" class="edge">
<title>Node1&#45;&gt;Node6</title>
<path fill="none" stroke="#191970" d="M115.7407,-270.4398C103.915,-261.8942 85.8233,-248.0445 72,-234 57.9214,-219.6962 44.0879,-201.4106 34.7291,-188.228"/>
<polygon fill="#191970" stroke="#191970" points="37.3513,-185.8686 28.7657,-179.6607 31.6061,-189.8677 37.3513,-185.8686"/>
</g>
<!-- Node53 -->
<g id="node9" class="node">
<title>Node53</title>
<g id="a_node9"><a xlink:href="../../df/d20/_t_h_d_mquantities_8h.html" target="_top" xlink:title="THDMquantities.h">
<polygon fill="none" stroke="#000000" points="87.5,-216.5 87.5,-233.5 168.5,-233.5 168.5,-216.5 87.5,-216.5"/>
<text text-anchor="middle" x="128" y="-223.1" font-family="Helvetica,sans-Serif" font-size="8.00" fill="#000000">THDMquantities.h</text>
</a>
</g>
</g>
<!-- Node1&#45;&gt;Node53 -->
<g id="edge9" class="edge">
<title>Node1&#45;&gt;Node53</title>
<path fill="none" stroke="#191970" d="M128,-270.083C128,-263.0059 128,-252.8611 128,-243.9865"/>
<polygon fill="#191970" stroke="#191970" points="131.5001,-243.751 128,-233.7511 124.5001,-243.7511 131.5001,-243.751"/>
</g>
<!-- Node6&#45;&gt;Node7 -->
<g id="edge5" class="edge">
<title>Node6&#45;&gt;Node7</title>
<path fill="none" stroke="#191970" d="M40.0307,-162.324C57.0298,-153.6641 83.3761,-140.2424 102.9926,-130.249"/>
<polygon fill="#191970" stroke="#191970" points="104.6899,-133.3125 112.0115,-125.6545 101.5124,-127.0752 104.6899,-133.3125"/>
</g>
<!-- Node8 -->
<g id="node7" class="node">
<title>Node8</title>
<g id="a_node7"><a xlink:href="../../d2/d65/_flavour_8h.html" target="_top" xlink:title="Flavour.h">
<polygon fill="none" stroke="#ff0000" points="131,-54.5 131,-71.5 181,-71.5 181,-54.5 131,-54.5"/>
<text text-anchor="middle" x="156" y="-61.1" font-family="Helvetica,sans-Serif" font-size="8.00" fill="#000000">Flavour.h</text>
</a>
</g>
</g>
<!-- Node7&#45;&gt;Node8 -->
<g id="edge6" class="edge">
<title>Node7&#45;&gt;Node8</title>
<path fill="none" stroke="#191970" d="M133.4585,-108.083C137.1543,-100.6913 142.5234,-89.9533 147.0945,-80.8111"/>
<polygon fill="#191970" stroke="#191970" points="150.2828,-82.2606 151.6245,-71.7511 144.0218,-79.1301 150.2828,-82.2606"/>
</g>
<!-- Node9 -->
<g id="node8" class="node">
<title>Node9</title>
<g id="a_node8"><a xlink:href="../../d4/d68/_q_c_d_8h.html" target="_top" xlink:title="QCD.h">
<polygon fill="none" stroke="#ff0000" points="108.5,-.5 108.5,-17.5 149.5,-17.5 149.5,-.5 108.5,-.5"/>
<text text-anchor="middle" x="129" y="-7.1" font-family="Helvetica,sans-Serif" font-size="8.00" fill="#000000">QCD.h</text>
</a>
</g>
</g>
<!-- Node7&#45;&gt;Node9 -->
<g id="edge8" class="edge">
<title>Node7&#45;&gt;Node9</title>
<path fill="none" stroke="#191970" d="M127.0259,-108.4575C124.4641,-96.3592 120.4901,-73.5303 122,-54 122.6788,-45.2204 124.0919,-35.5626 125.4719,-27.4526"/>
<polygon fill="#191970" stroke="#191970" points="128.9215,-28.0446 127.2611,-17.5806 122.0337,-26.7961 128.9215,-28.0446"/>
</g>
<!-- Node8&#45;&gt;Node9 -->
<g id="edge7" class="edge">
<title>Node8&#45;&gt;Node9</title>
<path fill="none" stroke="#191970" d="M151.5415,-54.083C147.8457,-46.6913 142.4766,-35.9533 137.9055,-26.8111"/>
<polygon fill="#191970" stroke="#191970" points="140.9782,-25.1301 133.3755,-17.7511 134.7172,-28.2606 140.9782,-25.1301"/>
</g>
<!-- Node53&#45;&gt;Node2 -->
<g id="edge10" class="edge">
<title>Node53&#45;&gt;Node2</title>
<path fill="none" stroke="#191970" d="M136.7519,-216.083C144.4697,-208.2195 155.9047,-196.5688 165.2165,-187.0813"/>
<polygon fill="#191970" stroke="#191970" points="167.9042,-189.3396 172.411,-179.7511 162.9084,-184.4363 167.9042,-189.3396"/>
</g>
<!-- Node53&#45;&gt;Node3 -->
<g id="edge11" class="edge">
<title>Node53&#45;&gt;Node3</title>
<path fill="none" stroke="#191970" d="M123.5415,-216.083C119.8457,-208.6913 114.4766,-197.9533 109.9055,-188.8111"/>
<polygon fill="#191970" stroke="#191970" points="112.9782,-187.1301 105.3755,-179.7511 106.7172,-190.2606 112.9782,-187.1301"/>
</g>
<!-- Node53&#45;&gt;Node6 -->
<g id="edge12" class="edge">
<title>Node53&#45;&gt;Node6</title>
<path fill="none" stroke="#191970" d="M111.1299,-216.324C94.2912,-207.6641 68.1935,-194.2424 48.762,-184.249"/>
<polygon fill="#191970" stroke="#191970" points="50.3218,-181.1155 39.8282,-179.6545 47.1204,-187.3405 50.3218,-181.1155"/>
</g>
</g>
</svg>
