<?xml version="1.0" encoding="UTF-8" standalone="no"?>
<!DOCTYPE svg PUBLIC "-//W3C//DTD SVG 1.1//EN"
 "http://www.w3.org/Graphics/SVG/1.1/DTD/svg11.dtd">
<!-- Generated by graphviz version 2.40.1 (20161225.0304)
 -->
<!-- Title: OutputSLHAfromFH Pages: 1 -->
<svg width="648pt" height="472pt"
 viewBox="0.00 0.00 648.00 471.66" xmlns="http://www.w3.org/2000/svg" xmlns:xlink="http://www.w3.org/1999/xlink">
<g id="graph0" class="graph" transform="scale(1 1) rotate(0) translate(4 467.6583)">
<title>OutputSLHAfromFH</title>
<!-- Node2 -->
<g id="node1" class="node">
<title>Node2</title>
<polygon fill="#bfbfbf" stroke="#000000" points="552,-304.1583 552,-321.1583 640,-321.1583 640,-304.1583 552,-304.1583"/>
<text text-anchor="middle" x="596" y="-310.7583" font-family="Helvetica,sans-Serif" font-size="8.00" fill="#000000">OutputSLHAfromFH</text>
</g>
<!-- Node3 -->
<g id="node2" class="node">
<title>Node3</title>
<g id="a_node2"><a xlink:href="../../dc/d1f/class_th_observable.html" target="_top" xlink:title="A class for a model prediction of an observable. ">
<polygon fill="none" stroke="#000000" points="380,-319.1583 380,-336.1583 447,-336.1583 447,-319.1583 380,-319.1583"/>
<text text-anchor="middle" x="413.5" y="-325.7583" font-family="Helvetica,sans-Serif" font-size="8.00" fill="#000000">ThObservable</text>
</a>
</g>
</g>
<!-- Node3&#45;&gt;Node2 -->
<g id="edge1" class="edge">
<title>Node3&#45;&gt;Node2</title>
<path fill="none" stroke="#191970" d="M457.523,-324.0399C486.1387,-321.688 523.3083,-318.6329 551.9327,-316.2802"/>
<polygon fill="#191970" stroke="#191970" points="457.0788,-320.5645 447.3991,-324.872 457.6523,-327.541 457.0788,-320.5645"/>
</g>
<!-- Node4 -->
<g id="node3" class="node">
<title>Node4</title>
<g id="a_node3"><a xlink:href="../../dc/dd5/class_standard_model.html" target="_top" xlink:title="A model class for the Standard Model. ">
<polygon fill="none" stroke="#ff0000" points="204.5,-332.1583 204.5,-349.1583 275.5,-349.1583 275.5,-332.1583 204.5,-332.1583"/>
<text text-anchor="middle" x="240" y="-338.7583" font-family="Helvetica,sans-Serif" font-size="8.00" fill="#000000">StandardModel</text>
</a>
</g>
</g>
<!-- Node4&#45;&gt;Node3 -->
<g id="edge2" class="edge">
<title>Node4&#45;&gt;Node3</title>
<path fill="none" stroke="#9a32cd" stroke-dasharray="5,2" d="M285.5991,-337.2416C315.1349,-335.0286 352.954,-332.1949 379.787,-330.1843"/>
<polygon fill="#9a32cd" stroke="#9a32cd" points="285.2395,-333.7587 275.529,-337.9961 285.7626,-340.7391 285.2395,-333.7587"/>
<text text-anchor="middle" x="338" y="-337.2583" font-family="Helvetica,sans-Serif" font-size="8.00" fill="#000000"> SM</text>
</g>
<!-- Node47 -->
<g id="node6" class="node">
<title>Node47</title>
<g id="a_node6"><a xlink:href="../../dc/d6f/class_s_u_s_y.html" target="_top" xlink:title="A base class for SUSY models. ">
<polygon fill="none" stroke="#000000" points="394.5,-251.1583 394.5,-268.1583 432.5,-268.1583 432.5,-251.1583 394.5,-251.1583"/>
<text text-anchor="middle" x="413.5" y="-257.7583" font-family="Helvetica,sans-Serif" font-size="8.00" fill="#000000">SUSY</text>
</a>
</g>
</g>
<!-- Node4&#45;&gt;Node47 -->
<g id="edge6" class="edge">
<title>Node4&#45;&gt;Node47</title>
<path fill="none" stroke="#191970" d="M277.7114,-328.8574C302.3781,-320.4854 334.9273,-308.181 362,-293.6583 376.1616,-286.0615 391.4087,-275.6942 401.6072,-268.4112"/>
<polygon fill="#191970" stroke="#191970" points="276.3828,-325.6108 267.9996,-332.0895 278.5932,-332.2526 276.3828,-325.6108"/>
</g>
<!-- Node23 -->
<g id="node4" class="node">
<title>Node23</title>
<g id="a_node4"><a xlink:href="../../dd/d9b/classgslpp_1_1complex.html" target="_top" xlink:title="A class for defining operations on and functions of complex numbers. ">
<polygon fill="none" stroke="#000000" points="9,-370.1583 9,-387.1583 79,-387.1583 79,-370.1583 9,-370.1583"/>
<text text-anchor="middle" x="44" y="-376.7583" font-family="Helvetica,sans-Serif" font-size="8.00" fill="#000000">gslpp::complex</text>
</a>
</g>
</g>
<!-- Node23&#45;&gt;Node4 -->
<g id="edge3" class="edge">
<title>Node23&#45;&gt;Node4</title>
<path fill="none" stroke="#9a32cd" stroke-dasharray="5,2" d="M65.4768,-364.6432C77.0011,-357.8969 91.7357,-350.4621 106,-346.6583 138.5138,-337.9878 177.0159,-337.1938 204.387,-338.147"/>
<polygon fill="#9a32cd" stroke="#9a32cd" points="63.3366,-361.8494 56.6324,-370.0534 66.9894,-367.8208 63.3366,-361.8494"/>
<text text-anchor="middle" x="136" y="-358.2583" font-family="Helvetica,sans-Serif" font-size="8.00" fill="#000000"> rhoZ_f_cache</text>
<text text-anchor="middle" x="136" y="-349.2583" font-family="Helvetica,sans-Serif" font-size="8.00" fill="#000000">kappaZ_f_cache</text>
</g>
<!-- Node23&#45;&gt;Node47 -->
<g id="edge9" class="edge">
<title>Node23&#45;&gt;Node47</title>
<path fill="none" stroke="#9a32cd" stroke-dasharray="5,2" d="M72.9293,-391.1312C133.939,-415.2758 277.1369,-460.2707 362,-391.6583 391.0151,-368.1993 365.3602,-343.9784 380,-309.6583 386.7235,-293.8963 398.5809,-277.8094 406.2351,-268.2825"/>
<polygon fill="#9a32cd" stroke="#9a32cd" points="74.1106,-387.8334 63.5284,-387.3159 71.4781,-394.3196 74.1106,-387.8334"/>
<text text-anchor="middle" x="240" y="-457.2583" font-family="Helvetica,sans-Serif" font-size="8.00" fill="#000000"> saeff</text>
<text text-anchor="middle" x="240" y="-448.2583" font-family="Helvetica,sans-Serif" font-size="8.00" fill="#000000">m1</text>
<text text-anchor="middle" x="240" y="-439.2583" font-family="Helvetica,sans-Serif" font-size="8.00" fill="#000000">m2</text>
<text text-anchor="middle" x="240" y="-430.2583" font-family="Helvetica,sans-Serif" font-size="8.00" fill="#000000">muH</text>
</g>
<!-- Node53 -->
<g id="node10" class="node">
<title>Node53</title>
<g id="a_node10"><a xlink:href="../../d4/d6e/class_s_u_s_y_spectrum.html" target="_top" xlink:title="A class for calculating the Higgs and sparticle spectra at tree level. ">
<polygon fill="none" stroke="#000000" points="559.5,-219.1583 559.5,-236.1583 632.5,-236.1583 632.5,-219.1583 559.5,-219.1583"/>
<text text-anchor="middle" x="596" y="-225.7583" font-family="Helvetica,sans-Serif" font-size="8.00" fill="#000000">SUSYSpectrum</text>
</a>
</g>
</g>
<!-- Node23&#45;&gt;Node53 -->
<g id="edge14" class="edge">
<title>Node23&#45;&gt;Node53</title>
<path fill="none" stroke="#9a32cd" stroke-dasharray="5,2" d="M89.2735,-379.9509C164.7362,-381.0039 320.4437,-378.4659 447,-345.6583 488.0182,-335.025 500.6135,-332.7522 534,-306.6583 560.2374,-286.1519 581.8363,-252.269 591.1131,-236.3849"/>
<polygon fill="#9a32cd" stroke="#9a32cd" points="89.2267,-376.4497 79.1693,-379.7813 89.1091,-383.4487 89.2267,-376.4497"/>
<text text-anchor="middle" x="338" y="-371.2583" font-family="Helvetica,sans-Serif" font-size="8.00" fill="#000000"> saeff</text>
</g>
<!-- Node30 -->
<g id="node5" class="node">
<title>Node30</title>
<g id="a_node5"><a xlink:href="../../d1/d3c/classgslpp_1_1matrix.html" target="_top" xlink:title="gslpp::matrix\&lt; gslpp\l::complex \&gt;">
<polygon fill="none" stroke="#ff0000" points="0,-82.6583 0,-108.6583 88,-108.6583 88,-82.6583 0,-82.6583"/>
<text text-anchor="start" x="8" y="-98.2583" font-family="Helvetica,sans-Serif" font-size="8.00" fill="#000000">gslpp::matrix&lt; gslpp</text>
<text text-anchor="middle" x="44" y="-89.2583" font-family="Helvetica,sans-Serif" font-size="8.00" fill="#000000">::complex &gt;</text>
</a>
</g>
</g>
<!-- Node30&#45;&gt;Node4 -->
<g id="edge4" class="edge">
<title>Node30&#45;&gt;Node4</title>
<path fill="none" stroke="#9a32cd" stroke-dasharray="5,2" d="M57.0601,-117.6256C90.038,-172.9722 174.7144,-314.2769 184,-321.6583 189.9471,-326.3858 197.1353,-329.9678 204.3501,-332.6716"/>
<polygon fill="#9a32cd" stroke="#9a32cd" points="60.0035,-115.7275 51.8804,-108.9256 53.9888,-119.3085 60.0035,-115.7275"/>
<text text-anchor="middle" x="136" y="-323.2583" font-family="Helvetica,sans-Serif" font-size="8.00" fill="#000000"> Yn</text>
<text text-anchor="middle" x="136" y="-314.2583" font-family="Helvetica,sans-Serif" font-size="8.00" fill="#000000">Yd</text>
<text text-anchor="middle" x="136" y="-305.2583" font-family="Helvetica,sans-Serif" font-size="8.00" fill="#000000">Yu</text>
<text text-anchor="middle" x="136" y="-296.2583" font-family="Helvetica,sans-Serif" font-size="8.00" fill="#000000">Ye</text>
</g>
<!-- Node30&#45;&gt;Node47 -->
<g id="edge11" class="edge">
<title>Node30&#45;&gt;Node47</title>
<path fill="none" stroke="#9a32cd" stroke-dasharray="5,2" d="M98.3031,-85.5997C151.433,-78.4358 233.285,-74.6952 296,-104.6583 336.3664,-123.9439 339.3716,-142.0663 362,-180.6583 373.9465,-201.0325 366.6365,-211.1841 380,-230.6583 385.4841,-238.6501 393.6851,-245.8002 400.6001,-251.0011"/>
<polygon fill="#9a32cd" stroke="#9a32cd" points="97.8034,-82.1355 88.4013,-87.0194 98.7969,-89.0646 97.8034,-82.1355"/>
<text text-anchor="middle" x="240" y="-197.2583" font-family="Helvetica,sans-Serif" font-size="8.00" fill="#000000"> U</text>
<text text-anchor="middle" x="240" y="-188.2583" font-family="Helvetica,sans-Serif" font-size="8.00" fill="#000000">Rd</text>
<text text-anchor="middle" x="240" y="-179.2583" font-family="Helvetica,sans-Serif" font-size="8.00" fill="#000000">Ru</text>
<text text-anchor="middle" x="240" y="-170.2583" font-family="Helvetica,sans-Serif" font-size="8.00" fill="#000000">V</text>
<text text-anchor="middle" x="240" y="-161.2583" font-family="Helvetica,sans-Serif" font-size="8.00" fill="#000000">Rdresum</text>
<text text-anchor="middle" x="240" y="-152.2583" font-family="Helvetica,sans-Serif" font-size="8.00" fill="#000000">TEhat</text>
<text text-anchor="middle" x="240" y="-143.2583" font-family="Helvetica,sans-Serif" font-size="8.00" fill="#000000">TDhat</text>
<text text-anchor="middle" x="240" y="-134.2583" font-family="Helvetica,sans-Serif" font-size="8.00" fill="#000000">TUhat</text>
<text text-anchor="middle" x="240" y="-125.2583" font-family="Helvetica,sans-Serif" font-size="8.00" fill="#000000">msDhat2</text>
<text text-anchor="middle" x="240" y="-116.2583" font-family="Helvetica,sans-Serif" font-size="8.00" fill="#000000">msUhat2</text>
<text text-anchor="middle" x="240" y="-107.2583" font-family="Helvetica,sans-Serif" font-size="8.00" fill="#000000">...</text>
</g>
<!-- Node30&#45;&gt;Node53 -->
<g id="edge16" class="edge">
<title>Node30&#45;&gt;Node53</title>
<path fill="none" stroke="#9a32cd" stroke-dasharray="5,2" d="M71.7849,-76.9599C127.9032,-41.6624 258.2566,27.7655 362,-12.6583 475.0905,-56.7242 566.6216,-183.8348 590.1284,-218.7132"/>
<polygon fill="#9a32cd" stroke="#9a32cd" points="69.6511,-74.1703 63.1202,-82.5128 73.4281,-80.0639 69.6511,-74.1703"/>
<text text-anchor="middle" x="338" y="-105.2583" font-family="Helvetica,sans-Serif" font-size="8.00" fill="#000000"> Msup2</text>
<text text-anchor="middle" x="338" y="-96.2583" font-family="Helvetica,sans-Serif" font-size="8.00" fill="#000000">U</text>
<text text-anchor="middle" x="338" y="-87.2583" font-family="Helvetica,sans-Serif" font-size="8.00" fill="#000000">Rd</text>
<text text-anchor="middle" x="338" y="-78.2583" font-family="Helvetica,sans-Serif" font-size="8.00" fill="#000000">Ru</text>
<text text-anchor="middle" x="338" y="-69.2583" font-family="Helvetica,sans-Serif" font-size="8.00" fill="#000000">Mselectron2</text>
<text text-anchor="middle" x="338" y="-60.2583" font-family="Helvetica,sans-Serif" font-size="8.00" fill="#000000">V</text>
<text text-anchor="middle" x="338" y="-51.2583" font-family="Helvetica,sans-Serif" font-size="8.00" fill="#000000">Mchargino</text>
<text text-anchor="middle" x="338" y="-42.2583" font-family="Helvetica,sans-Serif" font-size="8.00" fill="#000000">Mneutralino</text>
<text text-anchor="middle" x="338" y="-33.2583" font-family="Helvetica,sans-Serif" font-size="8.00" fill="#000000">Rl</text>
<text text-anchor="middle" x="338" y="-24.2583" font-family="Helvetica,sans-Serif" font-size="8.00" fill="#000000">Msneutrino2</text>
<text text-anchor="middle" x="338" y="-15.2583" font-family="Helvetica,sans-Serif" font-size="8.00" fill="#000000">...</text>
</g>
<!-- Node47&#45;&gt;Node2 -->
<g id="edge5" class="edge">
<title>Node47&#45;&gt;Node2</title>
<path fill="none" stroke="#9a32cd" stroke-dasharray="5,2" d="M442.4728,-268.0723C476.4434,-277.9377 532.4368,-294.1988 566.5935,-304.1183"/>
<polygon fill="#9a32cd" stroke="#9a32cd" points="443.2651,-264.6578 432.6858,-265.23 441.3129,-271.3801 443.2651,-264.6578"/>
<text text-anchor="middle" x="499.5" y="-296.2583" font-family="Helvetica,sans-Serif" font-size="8.00" fill="#000000"> mySUSY</text>
</g>
<!-- Node47&#45;&gt;Node53 -->
<g id="edge13" class="edge">
<title>Node47&#45;&gt;Node53</title>
<path fill="none" stroke="#9a32cd" stroke-dasharray="5,2" d="M432.5266,-244.8499C441.7826,-238.5579 453.3987,-231.9283 465,-228.6583 495.9754,-219.9273 532.731,-220.5426 559.4134,-222.8397"/>
<polygon fill="#9a32cd" stroke="#9a32cd" points="430.2101,-242.2052 424.1453,-250.8925 434.3038,-247.8834 430.2101,-242.2052"/>
<text text-anchor="middle" x="499.5" y="-231.2583" font-family="Helvetica,sans-Serif" font-size="8.00" fill="#000000"> mySUSY</text>
</g>
<!-- Node48 -->
<g id="node7" class="node">
<title>Node48</title>
<g id="a_node7"><a xlink:href="../../d5/d76/class_matching.html" target="_top" xlink:title="Matching\&lt; SUSYMatching,\l SUSY \&gt;">
<polygon fill="none" stroke="#ff0000" points="184,-285.6583 184,-311.6583 296,-311.6583 296,-285.6583 184,-285.6583"/>
<text text-anchor="start" x="192" y="-301.2583" font-family="Helvetica,sans-Serif" font-size="8.00" fill="#000000">Matching&lt; SUSYMatching,</text>
<text text-anchor="middle" x="240" y="-292.2583" font-family="Helvetica,sans-Serif" font-size="8.00" fill="#000000"> SUSY &gt;</text>
</a>
</g>
</g>
<!-- Node48&#45;&gt;Node47 -->
<g id="edge7" class="edge">
<title>Node48&#45;&gt;Node47</title>
<path fill="none" stroke="#9a32cd" stroke-dasharray="5,2" d="M306.364,-283.7407C337.7448,-276.6868 372.8981,-268.7849 394.105,-264.0179"/>
<polygon fill="#9a32cd" stroke="#9a32cd" points="305.3194,-280.3881 296.3305,-285.9961 306.8546,-287.2177 305.3194,-280.3881"/>
<text text-anchor="middle" x="338" y="-283.2583" font-family="Helvetica,sans-Serif" font-size="8.00" fill="#000000"> SUSYM</text>
</g>
<!-- Node52 -->
<g id="node8" class="node">
<title>Node52</title>
<g id="a_node8"><a xlink:href="../../da/df7/class_e_w_s_u_s_y.html" target="_top" xlink:title="A class for SUSY contributions to the EW precision observables. ">
<polygon fill="none" stroke="#000000" points="214.5,-249.1583 214.5,-266.1583 265.5,-266.1583 265.5,-249.1583 214.5,-249.1583"/>
<text text-anchor="middle" x="240" y="-255.7583" font-family="Helvetica,sans-Serif" font-size="8.00" fill="#000000">EWSUSY</text>
</a>
</g>
</g>
<!-- Node52&#45;&gt;Node47 -->
<g id="edge8" class="edge">
<title>Node52&#45;&gt;Node47</title>
<path fill="none" stroke="#9a32cd" stroke-dasharray="5,2" d="M275.8949,-257.8467C300.1992,-258.0003 333.0349,-258.2584 362,-258.6583 372.7302,-258.8064 384.7167,-259.0354 394.4241,-259.2369"/>
<polygon fill="#9a32cd" stroke="#9a32cd" points="275.7268,-254.3457 265.7058,-257.7853 275.6845,-261.3456 275.7268,-254.3457"/>
<text text-anchor="middle" x="338" y="-261.2583" font-family="Helvetica,sans-Serif" font-size="8.00" fill="#000000"> myEWSUSY</text>
</g>
<!-- Node51 -->
<g id="node9" class="node">
<title>Node51</title>
<g id="a_node9"><a xlink:href="../../d6/d73/classgslpp_1_1vector_3_01double_01_4.html" target="_top" xlink:title="A class for constructing and defining operations on real vectors. ">
<polygon fill="none" stroke="#000000" points="190,-213.1583 190,-230.1583 290,-230.1583 290,-213.1583 190,-213.1583"/>
<text text-anchor="middle" x="240" y="-219.7583" font-family="Helvetica,sans-Serif" font-size="8.00" fill="#000000">gslpp::vector&lt; double &gt;</text>
</a>
</g>
</g>
<!-- Node51&#45;&gt;Node47 -->
<g id="edge10" class="edge">
<title>Node51&#45;&gt;Node47</title>
<path fill="none" stroke="#9a32cd" stroke-dasharray="5,2" d="M270.6376,-209.2593C278.8914,-205.8687 287.8035,-202.1621 296,-198.6583 304.0499,-195.2171 305.4362,-192.4756 314,-190.6583 334.8686,-186.2296 342.93,-181.0956 362,-190.6583 387.388,-203.3891 403.459,-235.2307 410.0582,-250.8029"/>
<polygon fill="#9a32cd" stroke="#9a32cd" points="269.265,-206.0392 261.3331,-213.0631 271.9139,-212.5186 269.265,-206.0392"/>
<text text-anchor="middle" x="338" y="-247.2583" font-family="Helvetica,sans-Serif" font-size="8.00" fill="#000000"> mneu</text>
<text text-anchor="middle" x="338" y="-238.2583" font-family="Helvetica,sans-Serif" font-size="8.00" fill="#000000">m_sn2</text>
<text text-anchor="middle" x="338" y="-229.2583" font-family="Helvetica,sans-Serif" font-size="8.00" fill="#000000">m_se2</text>
<text text-anchor="middle" x="338" y="-220.2583" font-family="Helvetica,sans-Serif" font-size="8.00" fill="#000000">m_sd2</text>
<text text-anchor="middle" x="338" y="-211.2583" font-family="Helvetica,sans-Serif" font-size="8.00" fill="#000000">m_su2</text>
<text text-anchor="middle" x="338" y="-202.2583" font-family="Helvetica,sans-Serif" font-size="8.00" fill="#000000">m_sdresum2</text>
<text text-anchor="middle" x="338" y="-193.2583" font-family="Helvetica,sans-Serif" font-size="8.00" fill="#000000">mch</text>
</g>
<!-- Node51&#45;&gt;Node53 -->
<g id="edge15" class="edge">
<title>Node51&#45;&gt;Node53</title>
<path fill="none" stroke="#9a32cd" stroke-dasharray="5,2" d="M275.9944,-209.3518C282.8901,-206.3169 289.8657,-202.7438 296,-198.6583 305.4164,-192.3868 303.5475,-184.9878 314,-180.6583 409.3795,-141.1508 535.9314,-196.8703 580.0351,-219.1541"/>
<polygon fill="#9a32cd" stroke="#9a32cd" points="274.6502,-206.1201 266.7272,-213.1541 277.3073,-212.5962 274.6502,-206.1201"/>
<text text-anchor="middle" x="413.5" y="-220.2583" font-family="Helvetica,sans-Serif" font-size="8.00" fill="#000000"> mneu</text>
<text text-anchor="middle" x="413.5" y="-211.2583" font-family="Helvetica,sans-Serif" font-size="8.00" fill="#000000">m_sn2</text>
<text text-anchor="middle" x="413.5" y="-202.2583" font-family="Helvetica,sans-Serif" font-size="8.00" fill="#000000">m_se2</text>
<text text-anchor="middle" x="413.5" y="-193.2583" font-family="Helvetica,sans-Serif" font-size="8.00" fill="#000000">m_sd2</text>
<text text-anchor="middle" x="413.5" y="-184.2583" font-family="Helvetica,sans-Serif" font-size="8.00" fill="#000000">m_su2</text>
<text text-anchor="middle" x="413.5" y="-175.2583" font-family="Helvetica,sans-Serif" font-size="8.00" fill="#000000">mch</text>
</g>
<!-- Node53&#45;&gt;Node47 -->
<g id="edge12" class="edge">
<title>Node53&#45;&gt;Node47</title>
<path fill="none" stroke="#9a32cd" stroke-dasharray="5,2" d="M548.8919,-235.9183C511.1145,-242.5423 460.0397,-251.4979 432.6858,-256.2942"/>
<polygon fill="#9a32cd" stroke="#9a32cd" points="549.9184,-239.2918 559.1636,-234.1172 548.7094,-232.397 549.9184,-239.2918"/>
<text text-anchor="middle" x="499.5" y="-252.2583" font-family="Helvetica,sans-Serif" font-size="8.00" fill="#000000"> mySUSYSpectrum</text>
</g>
</g>
</svg>
