<?xml version="1.0" encoding="UTF-8" standalone="no"?>
<!DOCTYPE svg PUBLIC "-//W3C//DTD SVG 1.1//EN"
 "http://www.w3.org/Graphics/SVG/1.1/DTD/svg11.dtd">
<!-- Generated by graphviz version 2.38.0 (20140413.2041)
 -->
<!-- Title: THDMquantities.h Pages: 1 -->
<svg width="252pt" height="188pt"
 viewBox="0.00 0.00 251.50 188.00" xmlns="http://www.w3.org/2000/svg" xmlns:xlink="http://www.w3.org/1999/xlink">
<g id="graph0" class="graph" transform="scale(1 1) rotate(0) translate(4 184)">
<title>THDMquantities.h</title>
<!-- Node1 -->
<g id="node1" class="node"><title>Node1</title>
<polygon fill="#bfbfbf" stroke="black" points="85.5,-162.5 85.5,-179.5 166.5,-179.5 166.5,-162.5 85.5,-162.5"/>
<text text-anchor="middle" x="126" y="-169.1" font-family="Helvetica,sans-Serif" font-size="8.00">THDMquantities.h</text>
</g>
<!-- Node2 -->
<g id="node2" class="node"><title>Node2</title>
<g id="a_node2"><a xlink:href="../../d4/d77/positivity_8h.html" target="_top" xlink:title="positivity.h">
<polygon fill="none" stroke="black" points="44,-108.5 44,-125.5 98,-125.5 98,-108.5 44,-108.5"/>
<text text-anchor="middle" x="71" y="-115.1" font-family="Helvetica,sans-Serif" font-size="8.00">positivity.h</text>
</a>
</g>
</g>
<!-- Node1&#45;&gt;Node2 -->
<g id="edge1" class="edge"><title>Node1&#45;&gt;Node2</title>
<path fill="none" stroke="midnightblue" d="M110.441,-155.29C100.259,-145.663 87.3666,-133.474 79.1487,-125.704"/>
<polygon fill="midnightblue" stroke="midnightblue" points="108.214,-158 117.885,-162.327 113.023,-152.914 108.214,-158"/>
</g>
<!-- Node4 -->
<g id="node4" class="node"><title>Node4</title>
<g id="a_node4"><a xlink:href="../../d0/d3a/_t_h_d_m_observables_8h.html" target="_top" xlink:title="THDMObservables.h">
<polygon fill="none" stroke="black" points="80.5,-54.5 80.5,-71.5 171.5,-71.5 171.5,-54.5 80.5,-54.5"/>
<text text-anchor="middle" x="126" y="-61.1" font-family="Helvetica,sans-Serif" font-size="8.00">THDMObservables.h</text>
</a>
</g>
</g>
<!-- Node1&#45;&gt;Node4 -->
<g id="edge5" class="edge"><title>Node1&#45;&gt;Node4</title>
<path fill="none" stroke="midnightblue" d="M126,-152.072C126,-128.525 126,-88.2202 126,-71.5542"/>
<polygon fill="midnightblue" stroke="midnightblue" points="122.5,-152.377 126,-162.377 129.5,-152.377 122.5,-152.377"/>
</g>
<!-- Node6 -->
<g id="node6" class="node"><title>Node6</title>
<g id="a_node6"><a xlink:href="../../d7/d3d/_t_h_d_mquantities_8cpp.html" target="_top" xlink:title="THDMquantities.cpp">
<polygon fill="none" stroke="black" points="154.5,-108.5 154.5,-125.5 243.5,-125.5 243.5,-108.5 154.5,-108.5"/>
<text text-anchor="middle" x="199" y="-115.1" font-family="Helvetica,sans-Serif" font-size="8.00">THDMquantities.cpp</text>
</a>
</g>
</g>
<!-- Node1&#45;&gt;Node6 -->
<g id="edge6" class="edge"><title>Node1&#45;&gt;Node6</title>
<path fill="none" stroke="midnightblue" d="M145.063,-156.421C158.8,-146.635 176.845,-133.782 188.184,-125.704"/>
<polygon fill="midnightblue" stroke="midnightblue" points="142.886,-153.675 136.771,-162.327 146.947,-159.376 142.886,-153.675"/>
</g>
<!-- Node3 -->
<g id="node3" class="node"><title>Node3</title>
<g id="a_node3"><a xlink:href="../../de/d1b/positivity_8cpp.html" target="_top" xlink:title="positivity.cpp">
<polygon fill="none" stroke="black" points="0,-54.5 0,-71.5 62,-71.5 62,-54.5 0,-54.5"/>
<text text-anchor="middle" x="31" y="-61.1" font-family="Helvetica,sans-Serif" font-size="8.00">positivity.cpp</text>
</a>
</g>
</g>
<!-- Node2&#45;&gt;Node3 -->
<g id="edge2" class="edge"><title>Node2&#45;&gt;Node3</title>
<path fill="none" stroke="midnightblue" d="M58.7956,-100.134C51.5419,-90.7044 42.6663,-79.1661 36.9264,-71.7043"/>
<polygon fill="midnightblue" stroke="midnightblue" points="56.2265,-102.535 65.0979,-108.327 61.7749,-98.267 56.2265,-102.535"/>
</g>
<!-- Node2&#45;&gt;Node4 -->
<g id="edge3" class="edge"><title>Node2&#45;&gt;Node4</title>
<path fill="none" stroke="midnightblue" d="M86.5591,-101.29C96.7411,-91.663 109.633,-79.4739 117.851,-71.7043"/>
<polygon fill="midnightblue" stroke="midnightblue" points="83.9774,-98.9138 79.1154,-108.327 88.7865,-104 83.9774,-98.9138"/>
</g>
<!-- Node5 -->
<g id="node5" class="node"><title>Node5</title>
<g id="a_node5"><a xlink:href="../../d1/de2/_th_obs_factory_8cpp.html" target="_top" xlink:title="ThObsFactory.cpp">
<polygon fill="none" stroke="black" points="85,-0.5 85,-17.5 167,-17.5 167,-0.5 85,-0.5"/>
<text text-anchor="middle" x="126" y="-7.1" font-family="Helvetica,sans-Serif" font-size="8.00">ThObsFactory.cpp</text>
</a>
</g>
</g>
<!-- Node4&#45;&gt;Node5 -->
<g id="edge4" class="edge"><title>Node4&#45;&gt;Node5</title>
<path fill="none" stroke="midnightblue" d="M126,-44.0621C126,-35.0603 126,-24.6277 126,-17.7043"/>
<polygon fill="midnightblue" stroke="midnightblue" points="122.5,-44.3272 126,-54.3272 129.5,-44.3273 122.5,-44.3272"/>
</g>
</g>
</svg>
