<?xml version="1.0" encoding="UTF-8" standalone="no"?>
<!DOCTYPE svg PUBLIC "-//W3C//DTD SVG 1.1//EN"
 "http://www.w3.org/Graphics/SVG/1.1/DTD/svg11.dtd">
<!-- Generated by graphviz version 2.40.1 (20161225.0304)
 -->
<!-- Title: BR_Bdnunu.cpp Pages: 1 -->
<svg width="303pt" height="242pt"
 viewBox="0.00 0.00 303.07 242.00" xmlns="http://www.w3.org/2000/svg" xmlns:xlink="http://www.w3.org/1999/xlink">
<g id="graph0" class="graph" transform="scale(1 1) rotate(0) translate(4 238)">
<title>BR_Bdnunu.cpp</title>
<!-- Node0 -->
<g id="node1" class="node">
<title>Node0</title>
<polygon fill="#bfbfbf" stroke="#000000" points="87,-216.5 87,-233.5 162,-233.5 162,-216.5 87,-216.5"/>
<text text-anchor="middle" x="124.5" y="-223.1" font-family="Helvetica,sans-Serif" font-size="8.00" fill="#000000">BR_Bdnunu.cpp</text>
</g>
<!-- Node1 -->
<g id="node2" class="node">
<title>Node1</title>
<g id="a_node2"><a xlink:href="../../d1/d4b/_b_r___bdnunu_8h.html" target="_top" xlink:title="BR_Bdnunu.h">
<polygon fill="none" stroke="#000000" points="24.5,-108.5 24.5,-125.5 90.5,-125.5 90.5,-108.5 24.5,-108.5"/>
<text text-anchor="middle" x="57.5" y="-115.1" font-family="Helvetica,sans-Serif" font-size="8.00" fill="#000000">BR_Bdnunu.h</text>
</a>
</g>
</g>
<!-- Node0&#45;&gt;Node1 -->
<g id="edge1" class="edge">
<title>Node0&#45;&gt;Node1</title>
<path fill="none" stroke="#191970" d="M119.0171,-216.1619C107.9198,-198.2738 82.6275,-157.5041 68.1664,-134.1936"/>
<polygon fill="#191970" stroke="#191970" points="71.1173,-132.3109 62.8714,-125.6584 65.1689,-136.0011 71.1173,-132.3109"/>
</g>
<!-- Node22 -->
<g id="node6" class="node">
<title>Node22</title>
<g id="a_node6"><a xlink:href="../../d6/d0a/_standard_model_8h.html" target="_top" xlink:title="StandardModel.h">
<polygon fill="none" stroke="#ff0000" points="153,-162.5 153,-179.5 230,-179.5 230,-162.5 153,-162.5"/>
<text text-anchor="middle" x="191.5" y="-169.1" font-family="Helvetica,sans-Serif" font-size="8.00" fill="#000000">StandardModel.h</text>
</a>
</g>
</g>
<!-- Node0&#45;&gt;Node22 -->
<g id="edge5" class="edge">
<title>Node0&#45;&gt;Node22</title>
<path fill="none" stroke="#191970" d="M135.2647,-216.324C145.2661,-208.2631 160.3865,-196.0765 172.4305,-186.3695"/>
<polygon fill="#191970" stroke="#191970" points="174.9498,-188.8343 180.5394,-179.8339 170.5571,-183.3841 174.9498,-188.8343"/>
</g>
<!-- Node2 -->
<g id="node3" class="node">
<title>Node2</title>
<g id="a_node3"><a xlink:href="../../dd/dcd/_th_observable_8h.html" target="_top" xlink:title="ThObservable.h">
<polygon fill="none" stroke="#ff0000" points="0,-54.5 0,-71.5 73,-71.5 73,-54.5 0,-54.5"/>
<text text-anchor="middle" x="36.5" y="-61.1" font-family="Helvetica,sans-Serif" font-size="8.00" fill="#000000">ThObservable.h</text>
</a>
</g>
</g>
<!-- Node1&#45;&gt;Node2 -->
<g id="edge2" class="edge">
<title>Node1&#45;&gt;Node2</title>
<path fill="none" stroke="#191970" d="M54.0323,-108.083C51.1883,-100.77 47.0705,-90.1814 43.5402,-81.1034"/>
<polygon fill="#191970" stroke="#191970" points="46.7897,-79.8025 39.9032,-71.7511 40.2657,-82.3397 46.7897,-79.8025"/>
</g>
<!-- Node5 -->
<g id="node4" class="node">
<title>Node5</title>
<g id="a_node4"><a xlink:href="../../d4/d36/_order_scheme_8h.html" target="_top" xlink:title="OrderScheme.h">
<polygon fill="none" stroke="#000000" points="132,-.5 132,-17.5 205,-17.5 205,-.5 132,-.5"/>
<text text-anchor="middle" x="168.5" y="-7.1" font-family="Helvetica,sans-Serif" font-size="8.00" fill="#000000">OrderScheme.h</text>
</a>
</g>
</g>
<!-- Node1&#45;&gt;Node5 -->
<g id="edge3" class="edge">
<title>Node1&#45;&gt;Node5</title>
<path fill="none" stroke="#191970" d="M65.9729,-108.3522C77.9885,-96.1289 100.7199,-73.1523 120.5,-54 130.7822,-44.0441 142.4979,-33.054 151.7807,-24.427"/>
<polygon fill="#191970" stroke="#191970" points="154.2579,-26.9032 159.2148,-17.5394 149.5005,-21.7683 154.2579,-26.9032"/>
</g>
<!-- Node6 -->
<g id="node5" class="node">
<title>Node6</title>
<g id="a_node5"><a xlink:href="../../d9/d72/gslpp_8h.html" target="_top" xlink:title="gslpp.h">
<polygon fill="none" stroke="#ff0000" points="129.5,-54.5 129.5,-71.5 171.5,-71.5 171.5,-54.5 129.5,-54.5"/>
<text text-anchor="middle" x="150.5" y="-61.1" font-family="Helvetica,sans-Serif" font-size="8.00" fill="#000000">gslpp.h</text>
</a>
</g>
</g>
<!-- Node1&#45;&gt;Node6 -->
<g id="edge4" class="edge">
<title>Node1&#45;&gt;Node6</title>
<path fill="none" stroke="#191970" d="M72.4421,-108.324C87.0852,-99.8215 109.6337,-86.7288 126.7377,-76.7975"/>
<polygon fill="#191970" stroke="#191970" points="128.7046,-79.7027 135.595,-71.6545 125.1896,-73.6491 128.7046,-79.7027"/>
</g>
<!-- Node23 -->
<g id="node7" class="node">
<title>Node23</title>
<g id="a_node7"><a xlink:href="../../d2/d65/_flavour_8h.html" target="_top" xlink:title="Flavour.h">
<polygon fill="none" stroke="#ff0000" points="232.5,-108.5 232.5,-125.5 282.5,-125.5 282.5,-108.5 232.5,-108.5"/>
<text text-anchor="middle" x="257.5" y="-115.1" font-family="Helvetica,sans-Serif" font-size="8.00" fill="#000000">Flavour.h</text>
</a>
</g>
</g>
<!-- Node22&#45;&gt;Node23 -->
<g id="edge6" class="edge">
<title>Node22&#45;&gt;Node23</title>
<path fill="none" stroke="#191970" d="M202.104,-162.324C211.9562,-154.2631 226.8509,-142.0765 238.7151,-132.3695"/>
<polygon fill="#191970" stroke="#191970" points="241.1798,-134.8752 246.703,-125.8339 236.7471,-129.4575 241.1798,-134.8752"/>
</g>
<!-- Node24 -->
<g id="node8" class="node">
<title>Node24</title>
<g id="a_node8"><a xlink:href="../../d4/d68/_q_c_d_8h.html" target="_top" xlink:title="QCD.h">
<polygon fill="none" stroke="#ff0000" points="237,-54.5 237,-71.5 278,-71.5 278,-54.5 237,-54.5"/>
<text text-anchor="middle" x="257.5" y="-61.1" font-family="Helvetica,sans-Serif" font-size="8.00" fill="#000000">QCD.h</text>
</a>
</g>
</g>
<!-- Node22&#45;&gt;Node24 -->
<g id="edge9" class="edge">
<title>Node22&#45;&gt;Node24</title>
<path fill="none" stroke="#191970" d="M230.0568,-164.2706C252.0902,-158.2358 277.9585,-146.9432 291.5,-126 301.5414,-110.4701 288.4235,-91.7096 275.676,-78.7205"/>
<polygon fill="#191970" stroke="#191970" points="278.0542,-76.1523 268.3911,-71.8078 273.2358,-81.23 278.0542,-76.1523"/>
</g>
<!-- Node37 -->
<g id="node9" class="node">
<title>Node37</title>
<g id="a_node9"><a xlink:href="../../db/d5d/_c_k_m_8h.html" target="_top" xlink:title="CKM.h">
<polygon fill="none" stroke="#ff0000" points="109,-108.5 109,-125.5 150,-125.5 150,-108.5 109,-108.5"/>
<text text-anchor="middle" x="129.5" y="-115.1" font-family="Helvetica,sans-Serif" font-size="8.00" fill="#000000">CKM.h</text>
</a>
</g>
</g>
<!-- Node22&#45;&gt;Node37 -->
<g id="edge10" class="edge">
<title>Node22&#45;&gt;Node37</title>
<path fill="none" stroke="#191970" d="M181.5386,-162.324C172.3734,-154.3414 158.5628,-142.3128 147.4718,-132.6529"/>
<polygon fill="#191970" stroke="#191970" points="149.4822,-129.7624 139.6426,-125.8339 144.8847,-135.041 149.4822,-129.7624"/>
</g>
<!-- Node39 -->
<g id="node10" class="node">
<title>Node39</title>
<g id="a_node10"><a xlink:href="../../d9/d22/_p_m_n_s_8h.html" target="_top" xlink:title="PMNS.h">
<polygon fill="none" stroke="#ff0000" points="168.5,-108.5 168.5,-125.5 214.5,-125.5 214.5,-108.5 168.5,-108.5"/>
<text text-anchor="middle" x="191.5" y="-115.1" font-family="Helvetica,sans-Serif" font-size="8.00" fill="#000000">PMNS.h</text>
</a>
</g>
</g>
<!-- Node22&#45;&gt;Node39 -->
<g id="edge12" class="edge">
<title>Node22&#45;&gt;Node39</title>
<path fill="none" stroke="#191970" d="M191.5,-162.083C191.5,-155.0059 191.5,-144.8611 191.5,-135.9865"/>
<polygon fill="#191970" stroke="#191970" points="195.0001,-135.751 191.5,-125.7511 188.0001,-135.7511 195.0001,-135.751"/>
</g>
<!-- Node23&#45;&gt;Node24 -->
<g id="edge7" class="edge">
<title>Node23&#45;&gt;Node24</title>
<path fill="none" stroke="#191970" d="M257.5,-108.083C257.5,-101.0059 257.5,-90.8611 257.5,-81.9865"/>
<polygon fill="#191970" stroke="#191970" points="261.0001,-81.751 257.5,-71.7511 254.0001,-81.7511 261.0001,-81.751"/>
</g>
<!-- Node24&#45;&gt;Node5 -->
<g id="edge8" class="edge">
<title>Node24&#45;&gt;Node5</title>
<path fill="none" stroke="#191970" d="M243.2006,-54.324C229.3171,-45.9002 208.0076,-32.9709 191.6963,-23.0741"/>
<polygon fill="#191970" stroke="#191970" points="193.1289,-19.8495 182.7639,-17.6545 189.4978,-25.8341 193.1289,-19.8495"/>
</g>
<!-- Node37&#45;&gt;Node6 -->
<g id="edge11" class="edge">
<title>Node37&#45;&gt;Node6</title>
<path fill="none" stroke="#191970" d="M132.9677,-108.083C135.8117,-100.77 139.9295,-90.1814 143.4598,-81.1034"/>
<polygon fill="#191970" stroke="#191970" points="146.7343,-82.3397 147.0968,-71.7511 140.2103,-79.8025 146.7343,-82.3397"/>
</g>
<!-- Node39&#45;&gt;Node6 -->
<g id="edge13" class="edge">
<title>Node39&#45;&gt;Node6</title>
<path fill="none" stroke="#191970" d="M184.7297,-108.083C178.9384,-100.4554 170.4415,-89.2645 163.3625,-79.9408"/>
<polygon fill="#191970" stroke="#191970" points="165.979,-77.5991 157.1443,-71.7511 160.4039,-81.8321 165.979,-77.5991"/>
</g>
</g>
</svg>
