<?xml version="1.0" encoding="UTF-8" standalone="no"?>
<!DOCTYPE svg PUBLIC "-//W3C//DTD SVG 1.1//EN"
 "http://www.w3.org/Graphics/SVG/1.1/DTD/svg11.dtd">
<!-- Generated by graphviz version 2.40.1 (20161225.0304)
 -->
<!-- Title: BalancedPartitionCandidate.hpp Pages: 1 -->
<svg width="384pt" height="134pt"
 viewBox="0.00 0.00 384.00 134.00" xmlns="http://www.w3.org/2000/svg" xmlns:xlink="http://www.w3.org/1999/xlink">
<g id="graph0" class="graph" transform="scale(1 1) rotate(0) translate(4 130)">
<title>BalancedPartitionCandidate.hpp</title>
<!-- Node0 -->
<g id="node1" class="node">
<title>Node0</title>
<polygon fill="#bfbfbf" stroke="#000000" points="27.5,-108.5 27.5,-125.5 158.5,-125.5 158.5,-108.5 27.5,-108.5"/>
<text text-anchor="middle" x="93" y="-115.1" font-family="Helvetica,sans-Serif" font-size="8.00" fill="#000000">BalancedPartitionCandidate.hpp</text>
</g>
<!-- Node1 -->
<g id="node2" class="node">
<title>Node1</title>
<polygon fill="none" stroke="#bfbfbf" points="0,-.5 0,-17.5 38,-17.5 38,-.5 0,-.5"/>
<text text-anchor="middle" x="19" y="-7.1" font-family="Helvetica,sans-Serif" font-size="8.00" fill="#000000">vector</text>
</g>
<!-- Node0&#45;&gt;Node1 -->
<g id="edge1" class="edge">
<title>Node0&#45;&gt;Node1</title>
<path fill="none" stroke="#191970" d="M86.9443,-108.1619C74.6876,-90.2738 46.7528,-49.5041 30.7808,-26.1936"/>
<polygon fill="#191970" stroke="#191970" points="33.4722,-23.9294 24.9326,-17.6584 27.6977,-27.886 33.4722,-23.9294"/>
</g>
<!-- Node2 -->
<g id="node3" class="node">
<title>Node2</title>
<polygon fill="none" stroke="#bfbfbf" points="56.5,-.5 56.5,-17.5 85.5,-17.5 85.5,-.5 56.5,-.5"/>
<text text-anchor="middle" x="71" y="-7.1" font-family="Helvetica,sans-Serif" font-size="8.00" fill="#000000">list</text>
</g>
<!-- Node0&#45;&gt;Node2 -->
<g id="edge2" class="edge">
<title>Node0&#45;&gt;Node2</title>
<path fill="none" stroke="#191970" d="M89.1495,-108.2258C85.4047,-99.292 79.8729,-84.9518 77,-72 73.7575,-57.3821 72.2669,-40.4739 71.5819,-27.8566"/>
<polygon fill="#191970" stroke="#191970" points="75.0704,-27.508 71.1521,-17.6643 68.0766,-27.8029 75.0704,-27.508"/>
</g>
<!-- Node3 -->
<g id="node4" class="node">
<title>Node3</title>
<g id="a_node4"><a xlink:href="../../d6/d75/_useful_stuff_8hpp.html" target="_top" xlink:title="UsefulStuff.hpp">
<polygon fill="none" stroke="#ff0000" points="201.5,-54.5 201.5,-71.5 272.5,-71.5 272.5,-54.5 201.5,-54.5"/>
<text text-anchor="middle" x="237" y="-61.1" font-family="Helvetica,sans-Serif" font-size="8.00" fill="#000000">UsefulStuff.hpp</text>
</a>
</g>
</g>
<!-- Node0&#45;&gt;Node3 -->
<g id="edge3" class="edge">
<title>Node0&#45;&gt;Node3</title>
<path fill="none" stroke="#191970" d="M115.8172,-108.4435C139.8317,-99.4381 177.829,-85.1891 204.8692,-75.049"/>
<polygon fill="#191970" stroke="#191970" points="206.1552,-78.3049 214.2895,-71.5164 203.6973,-71.7506 206.1552,-78.3049"/>
</g>
<!-- Node10 -->
<g id="node10" class="node">
<title>Node10</title>
<g id="a_node10"><a xlink:href="../../d6/d44/_vectorlike_array_8hpp.html" target="_top" xlink:title="VectorlikeArray.hpp">
<polygon fill="none" stroke="#000000" points="86,-54.5 86,-71.5 172,-71.5 172,-54.5 86,-54.5"/>
<text text-anchor="middle" x="129" y="-61.1" font-family="Helvetica,sans-Serif" font-size="8.00" fill="#000000">VectorlikeArray.hpp</text>
</a>
</g>
</g>
<!-- Node0&#45;&gt;Node10 -->
<g id="edge9" class="edge">
<title>Node0&#45;&gt;Node10</title>
<path fill="none" stroke="#191970" d="M98.9447,-108.083C103.9773,-100.5341 111.3368,-89.4948 117.5135,-80.2298"/>
<polygon fill="#191970" stroke="#191970" points="120.5311,-82.0131 123.1659,-71.7511 114.7067,-78.1301 120.5311,-82.0131"/>
</g>
<!-- Node4 -->
<g id="node5" class="node">
<title>Node4</title>
<polygon fill="none" stroke="#bfbfbf" points="172.5,-.5 172.5,-17.5 211.5,-17.5 211.5,-.5 172.5,-.5"/>
<text text-anchor="middle" x="192" y="-7.1" font-family="Helvetica,sans-Serif" font-size="8.00" fill="#000000">cstdlib</text>
</g>
<!-- Node3&#45;&gt;Node4 -->
<g id="edge4" class="edge">
<title>Node3&#45;&gt;Node4</title>
<path fill="none" stroke="#191970" d="M229.5692,-54.083C223.1473,-46.3768 213.6944,-35.0333 205.8775,-25.6531"/>
<polygon fill="#191970" stroke="#191970" points="208.3832,-23.1927 199.2926,-17.7511 203.0057,-27.674 208.3832,-23.1927"/>
</g>
<!-- Node5 -->
<g id="node6" class="node">
<title>Node5</title>
<polygon fill="none" stroke="#bfbfbf" points="230,-.5 230,-17.5 266,-17.5 266,-.5 230,-.5"/>
<text text-anchor="middle" x="248" y="-7.1" font-family="Helvetica,sans-Serif" font-size="8.00" fill="#000000">ctime</text>
</g>
<!-- Node3&#45;&gt;Node5 -->
<g id="edge5" class="edge">
<title>Node3&#45;&gt;Node5</title>
<path fill="none" stroke="#191970" d="M238.8164,-54.083C240.2741,-46.9272 242.3706,-36.6353 244.1925,-27.6911"/>
<polygon fill="#191970" stroke="#191970" points="247.6508,-28.2485 246.2174,-17.7511 240.7917,-26.8512 247.6508,-28.2485"/>
</g>
<!-- Node6 -->
<g id="node7" class="node">
<title>Node6</title>
<polygon fill="none" stroke="#bfbfbf" points="103.5,-.5 103.5,-17.5 154.5,-17.5 154.5,-.5 103.5,-.5"/>
<text text-anchor="middle" x="129" y="-7.1" font-family="Helvetica,sans-Serif" font-size="8.00" fill="#000000">stdexcept</text>
</g>
<!-- Node3&#45;&gt;Node6 -->
<g id="edge6" class="edge">
<title>Node3&#45;&gt;Node6</title>
<path fill="none" stroke="#191970" d="M219.6479,-54.324C202.3281,-45.6641 175.4847,-32.2424 155.4981,-22.249"/>
<polygon fill="#191970" stroke="#191970" points="156.8186,-18.9962 146.309,-17.6545 153.688,-25.2572 156.8186,-18.9962"/>
</g>
<!-- Node7 -->
<g id="node8" class="node">
<title>Node7</title>
<polygon fill="none" stroke="#bfbfbf" points="284,-.5 284,-17.5 320,-17.5 320,-.5 284,-.5"/>
<text text-anchor="middle" x="302" y="-7.1" font-family="Helvetica,sans-Serif" font-size="8.00" fill="#000000">string</text>
</g>
<!-- Node3&#45;&gt;Node7 -->
<g id="edge7" class="edge">
<title>Node3&#45;&gt;Node7</title>
<path fill="none" stroke="#191970" d="M247.4434,-54.324C257.1462,-46.2631 271.8153,-34.0765 283.4997,-24.3695"/>
<polygon fill="#191970" stroke="#191970" points="285.9113,-26.9163 291.3666,-17.8339 281.4381,-21.532 285.9113,-26.9163"/>
</g>
<!-- Node8 -->
<g id="node9" class="node">
<title>Node8</title>
<polygon fill="none" stroke="#bfbfbf" points="338,-.5 338,-17.5 376,-17.5 376,-.5 338,-.5"/>
<text text-anchor="middle" x="357" y="-7.1" font-family="Helvetica,sans-Serif" font-size="8.00" fill="#000000">cmath</text>
</g>
<!-- Node3&#45;&gt;Node8 -->
<g id="edge8" class="edge">
<title>Node3&#45;&gt;Node8</title>
<path fill="none" stroke="#191970" d="M256.0144,-54.4435C275.5876,-45.6356 306.3076,-31.8116 328.7289,-21.722"/>
<polygon fill="#191970" stroke="#191970" points="330.3917,-24.8119 338.0746,-17.5164 327.5191,-18.4284 330.3917,-24.8119"/>
</g>
<!-- Node10&#45;&gt;Node1 -->
<g id="edge12" class="edge">
<title>Node10&#45;&gt;Node1</title>
<path fill="none" stroke="#191970" d="M111.3266,-54.324C93.6059,-45.6247 66.0968,-32.1202 45.7116,-22.113"/>
<polygon fill="#191970" stroke="#191970" points="47.1486,-18.9195 36.6295,-17.6545 44.0639,-25.2031 47.1486,-18.9195"/>
</g>
<!-- Node10&#45;&gt;Node2 -->
<g id="edge13" class="edge">
<title>Node10&#45;&gt;Node2</title>
<path fill="none" stroke="#191970" d="M119.6813,-54.324C111.1074,-46.3414 98.1878,-34.3128 87.8124,-24.6529"/>
<polygon fill="#191970" stroke="#191970" points="90.1922,-22.0865 80.4883,-17.8339 85.4223,-27.2098 90.1922,-22.0865"/>
</g>
<!-- Node10&#45;&gt;Node4 -->
<g id="edge10" class="edge">
<title>Node10&#45;&gt;Node4</title>
<path fill="none" stroke="#191970" d="M139.122,-54.324C148.5264,-46.2631 162.7441,-34.0765 174.069,-24.3695"/>
<polygon fill="#191970" stroke="#191970" points="176.379,-26.9993 181.6938,-17.8339 171.8234,-21.6844 176.379,-26.9993"/>
</g>
<!-- Node10&#45;&gt;Node6 -->
<g id="edge11" class="edge">
<title>Node10&#45;&gt;Node6</title>
<path fill="none" stroke="#191970" d="M129,-54.083C129,-47.0059 129,-36.8611 129,-27.9865"/>
<polygon fill="#191970" stroke="#191970" points="132.5001,-27.751 129,-17.7511 125.5001,-27.7511 132.5001,-27.751"/>
</g>
</g>
</svg>
