<?xml version="1.0" encoding="UTF-8" standalone="no"?>
<!DOCTYPE svg PUBLIC "-//W3C//DTD SVG 1.1//EN"
 "http://www.w3.org/Graphics/SVG/1.1/DTD/svg11.dtd">
<!-- Generated by graphviz version 2.38.0 (20140413.2041)
 -->
<!-- Title: Btaunu.cpp Pages: 1 -->
<svg width="351pt" height="296pt"
 viewBox="0.00 0.00 351.00 296.00" xmlns="http://www.w3.org/2000/svg" xmlns:xlink="http://www.w3.org/1999/xlink">
<g id="graph0" class="graph" transform="scale(1 1) rotate(0) translate(4 292)">
<title>Btaunu.cpp</title>
<!-- Node1 -->
<g id="node1" class="node"><title>Node1</title>
<polygon fill="#bfbfbf" stroke="black" points="0,-270.5 0,-287.5 57,-287.5 57,-270.5 0,-270.5"/>
<text text-anchor="middle" x="28.5" y="-277.1" font-family="Helvetica,sans-Serif" font-size="8.00">Btaunu.cpp</text>
</g>
<!-- Node2 -->
<g id="node2" class="node"><title>Node2</title>
<g id="a_node2"><a xlink:href="../../d9/dda/_btaunu_8h.html" target="_top" xlink:title="Btaunu.h">
<polygon fill="none" stroke="black" points="4,-216.5 4,-233.5 53,-233.5 53,-216.5 4,-216.5"/>
<text text-anchor="middle" x="28.5" y="-223.1" font-family="Helvetica,sans-Serif" font-size="8.00">Btaunu.h</text>
</a>
</g>
</g>
<!-- Node1&#45;&gt;Node2 -->
<g id="edge1" class="edge"><title>Node1&#45;&gt;Node2</title>
<path fill="none" stroke="midnightblue" d="M28.5,-270.327C28.5,-263.414 28.5,-252.985 28.5,-243.979"/>
<polygon fill="midnightblue" stroke="midnightblue" points="32.0001,-243.704 28.5,-233.704 25.0001,-243.704 32.0001,-243.704"/>
</g>
<!-- Node3 -->
<g id="node3" class="node"><title>Node3</title>
<g id="a_node3"><a xlink:href="../../dd/dcd/_th_observable_8h.html" target="_top" xlink:title="ThObservable.h">
<polygon fill="none" stroke="black" points="38,-54.5 38,-71.5 111,-71.5 111,-54.5 38,-54.5"/>
<text text-anchor="middle" x="74.5" y="-61.1" font-family="Helvetica,sans-Serif" font-size="8.00">ThObservable.h</text>
</a>
</g>
</g>
<!-- Node2&#45;&gt;Node3 -->
<g id="edge2" class="edge"><title>Node2&#45;&gt;Node3</title>
<path fill="none" stroke="midnightblue" d="M28.7356,-216.415C29.5345,-197.511 32.9761,-147.015 47.5,-108 51.1857,-98.0993 57.2016,-87.9875 62.6204,-79.9582"/>
<polygon fill="midnightblue" stroke="midnightblue" points="65.5998,-81.8074 68.5319,-71.6264 59.8908,-77.7568 65.5998,-81.8074"/>
</g>
<!-- Node4 -->
<g id="node4" class="node"><title>Node4</title>
<g id="a_node4"><a xlink:href="../../d6/d0a/_standard_model_8h.html" target="_top" xlink:title="StandardModel.h">
<polygon fill="none" stroke="red" points="68,-0.5 68,-17.5 145,-17.5 145,-0.5 68,-0.5"/>
<text text-anchor="middle" x="106.5" y="-7.1" font-family="Helvetica,sans-Serif" font-size="8.00">StandardModel.h</text>
</a>
</g>
</g>
<!-- Node2&#45;&gt;Node4 -->
<g id="edge16" class="edge"><title>Node2&#45;&gt;Node4</title>
<path fill="none" stroke="midnightblue" d="M25.5582,-216.495C16.2034,-191.308 -10.37,-108.324 22.5,-54 32.0466,-38.2224 49.3214,-27.8279 65.7334,-21.1264"/>
<polygon fill="midnightblue" stroke="midnightblue" points="67.0787,-24.3604 75.232,-17.5946 64.6391,-17.7992 67.0787,-24.3604"/>
</g>
<!-- Node5 -->
<g id="node5" class="node"><title>Node5</title>
<g id="a_node5"><a xlink:href="../../d2/d65/_flavour_8h.html" target="_top" xlink:title="Flavour.h">
<polygon fill="none" stroke="black" points="136.5,-162.5 136.5,-179.5 186.5,-179.5 186.5,-162.5 136.5,-162.5"/>
<text text-anchor="middle" x="161.5" y="-169.1" font-family="Helvetica,sans-Serif" font-size="8.00">Flavour.h</text>
</a>
</g>
</g>
<!-- Node2&#45;&gt;Node5 -->
<g id="edge4" class="edge"><title>Node2&#45;&gt;Node5</title>
<path fill="none" stroke="midnightblue" d="M47.8393,-216.439C70.1002,-207.735 106.887,-193.352 132.561,-183.315"/>
<polygon fill="midnightblue" stroke="midnightblue" points="134.098,-186.472 142.137,-179.57 131.549,-179.952 134.098,-186.472"/>
</g>
<!-- Node3&#45;&gt;Node4 -->
<g id="edge3" class="edge"><title>Node3&#45;&gt;Node4</title>
<path fill="none" stroke="midnightblue" d="M79.2217,-54.3272C83.712,-47.0304 90.6137,-35.8153 96.3512,-26.4919"/>
<polygon fill="midnightblue" stroke="midnightblue" points="99.4987,-28.0552 101.759,-17.7043 93.5371,-24.3865 99.4987,-28.0552"/>
</g>
<!-- Node6 -->
<g id="node6" class="node"><title>Node6</title>
<g id="a_node6"><a xlink:href="../../dd/d03/_heff_d_f2_8h.html" target="_top" xlink:title="HeffDF2.h">
<polygon fill="none" stroke="red" points="168,-54.5 168,-71.5 221,-71.5 221,-54.5 168,-54.5"/>
<text text-anchor="middle" x="194.5" y="-61.1" font-family="Helvetica,sans-Serif" font-size="8.00">HeffDF2.h</text>
</a>
</g>
</g>
<!-- Node5&#45;&gt;Node6 -->
<g id="edge5" class="edge"><title>Node5&#45;&gt;Node6</title>
<path fill="none" stroke="midnightblue" d="M163.873,-162.377C169.13,-145.493 181.863,-104.593 189.148,-81.1912"/>
<polygon fill="midnightblue" stroke="midnightblue" points="192.517,-82.1426 192.148,-71.5542 185.834,-80.0618 192.517,-82.1426"/>
</g>
<!-- Node7 -->
<g id="node7" class="node"><title>Node7</title>
<g id="a_node7"><a xlink:href="../../d9/d29/_heff_d_b1_8h.html" target="_top" xlink:title="HeffDB1.h">
<polygon fill="none" stroke="red" points="239,-54.5 239,-71.5 292,-71.5 292,-54.5 239,-54.5"/>
<text text-anchor="middle" x="265.5" y="-61.1" font-family="Helvetica,sans-Serif" font-size="8.00">HeffDB1.h</text>
</a>
</g>
</g>
<!-- Node5&#45;&gt;Node7 -->
<g id="edge7" class="edge"><title>Node5&#45;&gt;Node7</title>
<path fill="none" stroke="midnightblue" d="M168.979,-162.377C186.144,-144.882 228.609,-101.6 251.057,-78.7205"/>
<polygon fill="midnightblue" stroke="midnightblue" points="253.583,-81.1435 258.088,-71.5542 248.587,-76.2411 253.583,-81.1435"/>
</g>
<!-- Node8 -->
<g id="node8" class="node"><title>Node8</title>
<g id="a_node8"><a xlink:href="../../d8/d37/_m_vll_8h.html" target="_top" xlink:title="MVll.h">
<polygon fill="none" stroke="red" points="118,-108.5 118,-125.5 157,-125.5 157,-108.5 118,-108.5"/>
<text text-anchor="middle" x="137.5" y="-115.1" font-family="Helvetica,sans-Serif" font-size="8.00">MVll.h</text>
</a>
</g>
</g>
<!-- Node5&#45;&gt;Node8 -->
<g id="edge9" class="edge"><title>Node5&#45;&gt;Node8</title>
<path fill="none" stroke="midnightblue" d="M157.959,-162.327C154.626,-155.107 149.524,-144.051 145.248,-134.787"/>
<polygon fill="midnightblue" stroke="midnightblue" points="148.424,-133.317 141.056,-125.704 142.069,-136.251 148.424,-133.317"/>
</g>
<!-- Node9 -->
<g id="node9" class="node"><title>Node9</title>
<g id="a_node9"><a xlink:href="../../d0/dee/_m_pll_8h.html" target="_top" xlink:title="MPll.h">
<polygon fill="none" stroke="red" points="57,-108.5 57,-125.5 96,-125.5 96,-108.5 57,-108.5"/>
<text text-anchor="middle" x="76.5" y="-115.1" font-family="Helvetica,sans-Serif" font-size="8.00">MPll.h</text>
</a>
</g>
</g>
<!-- Node5&#45;&gt;Node9 -->
<g id="edge12" class="edge"><title>Node5&#45;&gt;Node9</title>
<path fill="none" stroke="midnightblue" d="M148.958,-162.327C135.447,-154.062 113.716,-140.768 97.5725,-130.891"/>
<polygon fill="midnightblue" stroke="midnightblue" points="99.174,-127.768 88.8171,-125.535 95.521,-133.739 99.174,-127.768"/>
</g>
<!-- Node10 -->
<g id="node10" class="node"><title>Node10</title>
<polygon fill="none" stroke="#bfbfbf" points="252,-108.5 252,-125.5 343,-125.5 343,-108.5 252,-108.5"/>
<text text-anchor="middle" x="297.5" y="-115.1" font-family="Helvetica,sans-Serif" font-size="8.00">boost/tuple/tuple.hpp</text>
</g>
<!-- Node5&#45;&gt;Node10 -->
<g id="edge15" class="edge"><title>Node5&#45;&gt;Node10</title>
<path fill="none" stroke="midnightblue" d="M181.276,-162.439C204.139,-153.697 241.989,-139.225 268.256,-129.182"/>
<polygon fill="midnightblue" stroke="midnightblue" points="269.61,-132.411 277.701,-125.57 267.11,-125.873 269.61,-132.411"/>
</g>
<!-- Node6&#45;&gt;Node4 -->
<g id="edge6" class="edge"><title>Node6&#45;&gt;Node4</title>
<path fill="none" stroke="midnightblue" d="M181.515,-54.3272C167.527,-46.0615 145.03,-32.7677 128.316,-22.8914"/>
<polygon fill="midnightblue" stroke="midnightblue" points="129.642,-19.6093 119.252,-17.5352 126.081,-25.6358 129.642,-19.6093"/>
</g>
<!-- Node7&#45;&gt;Node4 -->
<g id="edge8" class="edge"><title>Node7&#45;&gt;Node4</title>
<path fill="none" stroke="midnightblue" d="M242.38,-54.4388C215.296,-45.5812 170.226,-30.8414 139.479,-20.7857"/>
<polygon fill="midnightblue" stroke="midnightblue" points="140.24,-17.3522 129.648,-17.5704 138.065,-24.0055 140.24,-17.3522"/>
</g>
<!-- Node8&#45;&gt;Node3 -->
<g id="edge11" class="edge"><title>Node8&#45;&gt;Node3</title>
<path fill="none" stroke="midnightblue" d="M128.204,-108.327C118.619,-100.416 103.454,-87.8986 91.6799,-78.1802"/>
<polygon fill="midnightblue" stroke="midnightblue" points="93.7742,-75.3707 83.834,-71.7043 89.3183,-80.7692 93.7742,-75.3707"/>
</g>
<!-- Node8&#45;&gt;Node4 -->
<g id="edge10" class="edge"><title>Node8&#45;&gt;Node4</title>
<path fill="none" stroke="midnightblue" d="M135.295,-108.361C131.913,-96.6546 125.234,-73.5768 119.5,-54 116.945,-45.2761 114.084,-35.5859 111.698,-27.5248"/>
<polygon fill="midnightblue" stroke="midnightblue" points="115.009,-26.3793 108.812,-17.7859 108.298,-28.3682 115.009,-26.3793"/>
</g>
<!-- Node9&#45;&gt;Node3 -->
<g id="edge14" class="edge"><title>Node9&#45;&gt;Node3</title>
<path fill="none" stroke="midnightblue" d="M76.2049,-108.327C75.939,-101.414 75.5379,-90.985 75.1915,-81.9789"/>
<polygon fill="midnightblue" stroke="midnightblue" points="78.6782,-81.5623 74.7963,-71.7043 71.6833,-81.8314 78.6782,-81.5623"/>
</g>
<!-- Node9&#45;&gt;Node4 -->
<g id="edge13" class="edge"><title>Node9&#45;&gt;Node4</title>
<path fill="none" stroke="midnightblue" d="M63.0531,-108.446C44.8933,-97.2148 16.1427,-75.1586 28.5,-54 37.4608,-38.657 53.9653,-28.2441 69.4925,-21.4172"/>
<polygon fill="midnightblue" stroke="midnightblue" points="70.9814,-24.5911 78.9579,-17.6179 68.3738,-18.0949 70.9814,-24.5911"/>
</g>
</g>
</svg>
