<?xml version="1.0" encoding="UTF-8" standalone="no"?>
<!DOCTYPE svg PUBLIC "-//W3C//DTD SVG 1.1//EN"
 "http://www.w3.org/Graphics/SVG/1.1/DTD/svg11.dtd">
<!-- Generated by graphviz version 2.40.1 (20161225.0304)
 -->
<!-- Title: unitarity_GTHDM Pages: 1 -->
<svg width="523pt" height="540pt"
 viewBox="0.00 0.00 523.00 540.00" xmlns="http://www.w3.org/2000/svg" xmlns:xlink="http://www.w3.org/1999/xlink">
<g id="graph0" class="graph" transform="scale(1 1) rotate(0) translate(4 536)">
<title>unitarity_GTHDM</title>
<!-- Node1 -->
<g id="node1" class="node">
<title>Node1</title>
<polygon fill="#bfbfbf" stroke="#000000" points="371,-72.5 371,-89.5 449,-89.5 449,-72.5 371,-72.5"/>
<text text-anchor="middle" x="410" y="-79.1" font-family="Helvetica,sans-Serif" font-size="8.00" fill="#000000">unitarity_GTHDM</text>
</g>
<!-- Node2 -->
<g id="node2" class="node">
<title>Node2</title>
<g id="a_node2"><a xlink:href="../../d3/d55/class_general_t_h_d_m.html" target="_top" xlink:title="A base class for generic Two&#45;Higgs&#45;Doublet models. ">
<polygon fill="none" stroke="#000000" points="190,-153.5 190,-170.5 258,-170.5 258,-153.5 190,-153.5"/>
<text text-anchor="middle" x="224" y="-160.1" font-family="Helvetica,sans-Serif" font-size="8.00" fill="#000000">GeneralTHDM</text>
</a>
</g>
</g>
<!-- Node2&#45;&gt;Node1 -->
<g id="edge1" class="edge">
<title>Node2&#45;&gt;Node1</title>
<path fill="none" stroke="#9a32cd" stroke-dasharray="5,2" d="M268.3139,-153.9241C285.6652,-149.7182 305.3582,-143.6066 322,-135 338.8325,-126.2948 339.0564,-118.2427 355,-108 366.0078,-100.9282 379.1346,-94.419 389.8029,-89.5643"/>
<polygon fill="#9a32cd" stroke="#9a32cd" points="267.3795,-150.5473 258.409,-156.1847 268.9371,-157.3718 267.3795,-150.5473"/>
<text text-anchor="middle" x="376.5" y="-119.6" font-family="Helvetica,sans-Serif" font-size="8.00" fill="#000000"> myGTHDM</text>
</g>
<!-- Node48 -->
<g id="node8" class="node">
<title>Node48</title>
<g id="a_node8"><a xlink:href="../../df/d2f/class_general_t_h_d_m_matching.html" target="_top" xlink:title="GeneralTHDMMatching">
<polygon fill="none" stroke="#ff0000" points="26.5,-72.5 26.5,-89.5 127.5,-89.5 127.5,-72.5 26.5,-72.5"/>
<text text-anchor="middle" x="77" y="-79.1" font-family="Helvetica,sans-Serif" font-size="8.00" fill="#000000">GeneralTHDMMatching</text>
</a>
</g>
</g>
<!-- Node2&#45;&gt;Node48 -->
<g id="edge9" class="edge">
<title>Node2&#45;&gt;Node48</title>
<path fill="none" stroke="#9a32cd" stroke-dasharray="5,2" d="M180.1056,-154.8601C153.6637,-149.9074 123.0367,-142.8151 112,-135 95.7706,-123.508 85.1892,-101.8903 80.2477,-89.7838"/>
<polygon fill="#9a32cd" stroke="#9a32cd" points="179.5213,-158.3111 189.9852,-156.6505 180.7696,-151.4233 179.5213,-158.3111"/>
<text text-anchor="middle" x="133.5" y="-119.6" font-family="Helvetica,sans-Serif" font-size="8.00" fill="#000000"> myGTHDM</text>
</g>
<!-- Node49 -->
<g id="node9" class="node">
<title>Node49</title>
<g id="a_node9"><a xlink:href="../../dc/dfd/class_general_t_h_d_mcache.html" target="_top" xlink:title="GeneralTHDMcache">
<polygon fill="none" stroke="#ff0000" points="145.5,-72.5 145.5,-89.5 234.5,-89.5 234.5,-72.5 145.5,-72.5"/>
<text text-anchor="middle" x="190" y="-79.1" font-family="Helvetica,sans-Serif" font-size="8.00" fill="#000000">GeneralTHDMcache</text>
</a>
</g>
</g>
<!-- Node2&#45;&gt;Node49 -->
<g id="edge12" class="edge">
<title>Node2&#45;&gt;Node49</title>
<path fill="none" stroke="#9a32cd" stroke-dasharray="5,2" d="M180.639,-150.4153C173.652,-146.6288 167.3092,-141.6198 163,-135 156.4534,-124.9431 158.4078,-119.0866 163,-108 166.0442,-100.6506 172.1671,-94.2586 177.8135,-89.5414"/>
<polygon fill="#9a32cd" stroke="#9a32cd" points="179.1806,-153.597 189.7291,-154.5871 182.1004,-147.235 179.1806,-153.597"/>
<text text-anchor="middle" x="184.5" y="-119.6" font-family="Helvetica,sans-Serif" font-size="8.00" fill="#000000"> myGTHDM</text>
</g>
<!-- Node3 -->
<g id="node3" class="node">
<title>Node3</title>
<g id="a_node3"><a xlink:href="../../d2/df3/class_n_pbase.html" target="_top" xlink:title="The auxiliary base model class for other model classes. ">
<polygon fill="none" stroke="#000000" points="150.5,-249 150.5,-266 195.5,-266 195.5,-249 150.5,-249"/>
<text text-anchor="middle" x="173" y="-255.6" font-family="Helvetica,sans-Serif" font-size="8.00" fill="#000000">NPbase</text>
</a>
</g>
</g>
<!-- Node3&#45;&gt;Node2 -->
<g id="edge2" class="edge">
<title>Node3&#45;&gt;Node2</title>
<path fill="none" stroke="#191970" d="M182.5026,-239.706C193.5066,-219.1003 211.1782,-186.0095 219.4517,-170.517"/>
<polygon fill="#191970" stroke="#191970" points="179.3299,-238.217 177.7065,-248.6868 185.5046,-241.5145 179.3299,-238.217"/>
</g>
<!-- Node4 -->
<g id="node4" class="node">
<title>Node4</title>
<g id="a_node4"><a xlink:href="../../dc/dd5/class_standard_model.html" target="_top" xlink:title="A model class for the Standard Model. ">
<polygon fill="none" stroke="#ff0000" points="104.5,-352.5 104.5,-369.5 175.5,-369.5 175.5,-352.5 104.5,-352.5"/>
<text text-anchor="middle" x="140" y="-359.1" font-family="Helvetica,sans-Serif" font-size="8.00" fill="#000000">StandardModel</text>
</a>
</g>
</g>
<!-- Node4&#45;&gt;Node3 -->
<g id="edge3" class="edge">
<title>Node4&#45;&gt;Node3</title>
<path fill="none" stroke="#191970" d="M145.9282,-342.4071C153.1328,-319.8107 164.9828,-282.6449 170.2863,-266.0111"/>
<polygon fill="#191970" stroke="#191970" points="142.5168,-341.585 142.8136,-352.1756 149.186,-343.7114 142.5168,-341.585"/>
</g>
<!-- Node4&#45;&gt;Node3 -->
<g id="edge6" class="edge">
<title>Node4&#45;&gt;Node3</title>
<path fill="none" stroke="#9a32cd" stroke-dasharray="5,2" d="M147.7225,-342.8007C148.8737,-339.8773 150.006,-336.8697 151,-334 159.4132,-309.7115 167.2146,-280.3334 170.852,-266.0833"/>
<polygon fill="#9a32cd" stroke="#9a32cd" points="144.4684,-341.5114 143.9096,-352.0915 150.9442,-344.1691 144.4684,-341.5114"/>
<text text-anchor="middle" x="168.5" y="-327.6" font-family="Helvetica,sans-Serif" font-size="8.00" fill="#000000"> trueSM</text>
</g>
<!-- Node30 -->
<g id="node5" class="node">
<title>Node30</title>
<g id="a_node5"><a xlink:href="../../d1/d3c/classgslpp_1_1matrix.html" target="_top" xlink:title="gslpp::matrix\&lt; gslpp\l::complex \&gt;">
<polygon fill="none" stroke="#000000" points="51,-442.5 51,-468.5 139,-468.5 139,-442.5 51,-442.5"/>
<text text-anchor="start" x="59" y="-458.1" font-family="Helvetica,sans-Serif" font-size="8.00" fill="#000000">gslpp::matrix&lt; gslpp</text>
<text text-anchor="middle" x="95" y="-449.1" font-family="Helvetica,sans-Serif" font-size="8.00" fill="#000000">::complex &gt;</text>
</a>
</g>
</g>
<!-- Node30&#45;&gt;Node1 -->
<g id="edge15" class="edge">
<title>Node30&#45;&gt;Node1</title>
<path fill="none" stroke="#9a32cd" stroke-dasharray="5,2" d="M149.4345,-453.2511C254.5038,-447.4192 475,-427.2842 475,-361 475,-361 475,-361 475,-162 475,-135.1672 465.4568,-128.3779 448,-108 441.6819,-100.6247 432.9374,-94.2311 425.4295,-89.5194"/>
<polygon fill="#9a32cd" stroke="#9a32cd" points="149.1349,-449.762 139.3345,-453.7873 149.5061,-456.7521 149.1349,-449.762"/>
<text text-anchor="middle" x="495" y="-278.1" font-family="Helvetica,sans-Serif" font-size="8.00" fill="#000000"> Seigvec21</text>
<text text-anchor="middle" x="495" y="-269.1" font-family="Helvetica,sans-Serif" font-size="8.00" fill="#000000">Seigvec00</text>
<text text-anchor="middle" x="495" y="-260.1" font-family="Helvetica,sans-Serif" font-size="8.00" fill="#000000">Seigvec01</text>
<text text-anchor="middle" x="495" y="-251.1" font-family="Helvetica,sans-Serif" font-size="8.00" fill="#000000">Smat21</text>
<text text-anchor="middle" x="495" y="-242.1" font-family="Helvetica,sans-Serif" font-size="8.00" fill="#000000">Smat00</text>
<text text-anchor="middle" x="495" y="-233.1" font-family="Helvetica,sans-Serif" font-size="8.00" fill="#000000">Smat01</text>
</g>
<!-- Node30&#45;&gt;Node4 -->
<g id="edge4" class="edge">
<title>Node30&#45;&gt;Node4</title>
<path fill="none" stroke="#9a32cd" stroke-dasharray="5,2" d="M105.6387,-433.1588C115.3375,-412.7912 129.1542,-383.7763 135.9322,-369.5425"/>
<polygon fill="#9a32cd" stroke="#9a32cd" points="102.3964,-431.8268 101.2571,-442.3602 108.7165,-434.8364 102.3964,-431.8268"/>
<text text-anchor="middle" x="133.5" y="-417.6" font-family="Helvetica,sans-Serif" font-size="8.00" fill="#000000"> Yn</text>
<text text-anchor="middle" x="133.5" y="-408.6" font-family="Helvetica,sans-Serif" font-size="8.00" fill="#000000">Yd</text>
<text text-anchor="middle" x="133.5" y="-399.6" font-family="Helvetica,sans-Serif" font-size="8.00" fill="#000000">Yu</text>
<text text-anchor="middle" x="133.5" y="-390.6" font-family="Helvetica,sans-Serif" font-size="8.00" fill="#000000">Ye</text>
</g>
<!-- Node30&#45;&gt;Node48 -->
<g id="edge10" class="edge">
<title>Node30&#45;&gt;Node48</title>
<path fill="none" stroke="#9a32cd" stroke-dasharray="5,2" d="M58.1855,-437.4042C31.4708,-421.4022 0,-395.2772 0,-361 0,-361 0,-361 0,-162 0,-127.6575 36.8093,-102.0828 59.5275,-89.5688"/>
<polygon fill="#9a32cd" stroke="#9a32cd" points="56.5906,-440.5238 67.0107,-442.44 60.0599,-434.444 56.5906,-440.5238"/>
<text text-anchor="middle" x="15.5" y="-255.6" font-family="Helvetica,sans-Serif" font-size="8.00" fill="#000000"> myCKM</text>
</g>
<!-- Node30&#45;&gt;Node49 -->
<g id="edge13" class="edge">
<title>Node30&#45;&gt;Node49</title>
<path fill="none" stroke="#9a32cd" stroke-dasharray="5,2" d="M84.4443,-433.2067C76.5092,-414.3958 67,-386.5279 67,-361 67,-361 67,-361 67,-162 67,-136.5577 67.2674,-125.2162 86,-108 94.8932,-99.8267 121.4019,-93.0134 145.4285,-88.2756"/>
<polygon fill="#9a32cd" stroke="#9a32cd" points="81.2648,-434.6711 88.5059,-442.4053 87.6684,-431.8436 81.2648,-434.6711"/>
<text text-anchor="middle" x="92.5" y="-300.6" font-family="Helvetica,sans-Serif" font-size="8.00" fill="#000000"> Yd1_GTHDM</text>
<text text-anchor="middle" x="92.5" y="-291.6" font-family="Helvetica,sans-Serif" font-size="8.00" fill="#000000">Nd_GTHDM</text>
<text text-anchor="middle" x="92.5" y="-282.6" font-family="Helvetica,sans-Serif" font-size="8.00" fill="#000000">Nu_GTHDM</text>
<text text-anchor="middle" x="92.5" y="-273.6" font-family="Helvetica,sans-Serif" font-size="8.00" fill="#000000">Yd2_GTHDM</text>
<text text-anchor="middle" x="92.5" y="-264.6" font-family="Helvetica,sans-Serif" font-size="8.00" fill="#000000">Md_GTHDM</text>
<text text-anchor="middle" x="92.5" y="-255.6" font-family="Helvetica,sans-Serif" font-size="8.00" fill="#000000">Mu_GTHDM</text>
<text text-anchor="middle" x="92.5" y="-246.6" font-family="Helvetica,sans-Serif" font-size="8.00" fill="#000000">Yu1_GTHDM</text>
<text text-anchor="middle" x="92.5" y="-237.6" font-family="Helvetica,sans-Serif" font-size="8.00" fill="#000000">Yu2_GTHDM</text>
<text text-anchor="middle" x="92.5" y="-228.6" font-family="Helvetica,sans-Serif" font-size="8.00" fill="#000000">Yl1_GTHDM</text>
<text text-anchor="middle" x="92.5" y="-219.6" font-family="Helvetica,sans-Serif" font-size="8.00" fill="#000000">Nl_GTHDM</text>
<text text-anchor="middle" x="92.5" y="-210.6" font-family="Helvetica,sans-Serif" font-size="8.00" fill="#000000">...</text>
</g>
<!-- Node31 -->
<g id="node6" class="node">
<title>Node31</title>
<g id="a_node6"><a xlink:href="../../d1/d3c/classgslpp_1_1matrix.html" target="_top" xlink:title="A base class for defining operations on matrices, both real and complex. ">
<polygon fill="none" stroke="#000000" points="54.5,-514.5 54.5,-531.5 135.5,-531.5 135.5,-514.5 54.5,-514.5"/>
<text text-anchor="middle" x="95" y="-521.1" font-family="Helvetica,sans-Serif" font-size="8.00" fill="#000000">gslpp::matrix&lt; T &gt;</text>
</a>
</g>
</g>
<!-- Node31&#45;&gt;Node30 -->
<g id="edge5" class="edge">
<title>Node31&#45;&gt;Node30</title>
<path fill="none" stroke="#ffa500" stroke-dasharray="5,2" d="M95,-504.3829C95,-493.1182 95,-479.017 95,-468.8585"/>
<polygon fill="#ffa500" stroke="#ffa500" points="91.5001,-504.451 95,-514.4511 98.5001,-504.4511 91.5001,-504.451"/>
<text text-anchor="middle" x="130" y="-489.6" font-family="Helvetica,sans-Serif" font-size="8.00" fill="#000000"> &lt; gslpp::complex &gt;</text>
</g>
<!-- Node47 -->
<g id="node7" class="node">
<title>Node47</title>
<g id="a_node7"><a xlink:href="../../d5/d76/class_matching.html" target="_top" xlink:title="Matching\&lt; GeneralTHDMMatching,\l GeneralTHDM \&gt;">
<polygon fill="none" stroke="#ff0000" points="135,-.5 135,-26.5 277,-26.5 277,-.5 135,-.5"/>
<text text-anchor="start" x="143" y="-16.1" font-family="Helvetica,sans-Serif" font-size="8.00" fill="#000000">Matching&lt; GeneralTHDMMatching,</text>
<text text-anchor="middle" x="206" y="-7.1" font-family="Helvetica,sans-Serif" font-size="8.00" fill="#000000"> GeneralTHDM &gt;</text>
</a>
</g>
</g>
<!-- Node47&#45;&gt;Node2 -->
<g id="edge7" class="edge">
<title>Node47&#45;&gt;Node2</title>
<path fill="none" stroke="#9a32cd" stroke-dasharray="5,2" d="M230.6062,-33.2562C250.0802,-50.5944 275.7985,-77.7196 287,-108 291.1634,-119.2546 293.6059,-124.9819 287,-135 280.3838,-145.0337 269.182,-151.3528 258.0427,-155.3267"/>
<polygon fill="#9a32cd" stroke="#9a32cd" points="232.8245,-30.5475 222.9669,-26.6645 228.2515,-35.8473 232.8245,-30.5475"/>
<text text-anchor="middle" x="298.5" y="-79.1" font-family="Helvetica,sans-Serif" font-size="8.00" fill="#000000"> GTHDMM</text>
</g>
<!-- Node48&#45;&gt;Node47 -->
<g id="edge8" class="edge">
<title>Node48&#45;&gt;Node47</title>
<path fill="none" stroke="#9a32cd" stroke-dasharray="5,2" d="M102.3867,-67.7163C125.1326,-55.8143 158.3054,-38.4565 180.9482,-26.6085"/>
<polygon fill="#9a32cd" stroke="#9a32cd" points="100.5756,-64.7137 93.3379,-72.4511 103.821,-70.9159 100.5756,-64.7137"/>
<text text-anchor="middle" x="152.5" y="-47.6" font-family="Helvetica,sans-Serif" font-size="8.00" fill="#000000"> obj</text>
</g>
<!-- Node49&#45;&gt;Node2 -->
<g id="edge11" class="edge">
<title>Node49&#45;&gt;Node2</title>
<path fill="none" stroke="#9a32cd" stroke-dasharray="5,2" d="M204.166,-98.1056C206.3403,-101.2659 208.3924,-104.6345 210,-108 217.1798,-123.0314 221.0316,-142.2408 222.7863,-153.2286"/>
<polygon fill="#9a32cd" stroke="#9a32cd" points="206.8048,-95.7923 197.9819,-89.9265 201.2211,-100.0141 206.8048,-95.7923"/>
<text text-anchor="middle" x="251" y="-119.6" font-family="Helvetica,sans-Serif" font-size="8.00" fill="#000000"> myGTHDMcache</text>
</g>
<!-- Node52 -->
<g id="node10" class="node">
<title>Node52</title>
<g id="a_node10"><a xlink:href="../../d6/d73/classgslpp_1_1vector_3_01double_01_4.html" target="_top" xlink:title="A class for constructing and defining operations on real vectors. ">
<polygon fill="none" stroke="#000000" points="347,-153.5 347,-170.5 447,-170.5 447,-153.5 347,-153.5"/>
<text text-anchor="middle" x="397" y="-160.1" font-family="Helvetica,sans-Serif" font-size="8.00" fill="#000000">gslpp::vector&lt; double &gt;</text>
</a>
</g>
</g>
<!-- Node52&#45;&gt;Node1 -->
<g id="edge14" class="edge">
<title>Node52&#45;&gt;Node1</title>
<path fill="none" stroke="#9a32cd" stroke-dasharray="5,2" d="M400.0406,-143.0546C402.7319,-126.2855 406.5399,-102.5592 408.5794,-89.8516"/>
<polygon fill="#9a32cd" stroke="#9a32cd" points="396.5202,-142.9033 398.3912,-153.3316 403.4317,-144.0126 396.5202,-142.9033"/>
<text text-anchor="middle" x="425" y="-128.6" font-family="Helvetica,sans-Serif" font-size="8.00" fill="#000000"> Seigval21</text>
<text text-anchor="middle" x="425" y="-119.6" font-family="Helvetica,sans-Serif" font-size="8.00" fill="#000000">Seigval00</text>
<text text-anchor="middle" x="425" y="-110.6" font-family="Helvetica,sans-Serif" font-size="8.00" fill="#000000">Seigval01</text>
</g>
</g>
</svg>
