<?xml version="1.0" encoding="UTF-8" standalone="no"?>
<!DOCTYPE svg PUBLIC "-//W3C//DTD SVG 1.1//EN"
 "http://www.w3.org/Graphics/SVG/1.1/DTD/svg11.dtd">
<!-- Generated by graphviz version 2.40.1 (20161225.0304)
 -->
<!-- Title: SUSYMassInsertion Pages: 1 -->
<svg width="844pt" height="337pt"
 viewBox="0.00 0.00 844.00 337.00" xmlns="http://www.w3.org/2000/svg" xmlns:xlink="http://www.w3.org/1999/xlink">
<g id="graph0" class="graph" transform="scale(1 1) rotate(0) translate(4 333)">
<title>SUSYMassInsertion</title>
<!-- Node4 -->
<g id="node1" class="node">
<title>Node4</title>
<polygon fill="#bfbfbf" stroke="#000000" points="579,-185.5 579,-202.5 667,-202.5 667,-185.5 579,-185.5"/>
<text text-anchor="middle" x="623" y="-192.1" font-family="Helvetica,sans-Serif" font-size="8.00" fill="#000000">SUSYMassInsertion</text>
</g>
<!-- Node5 -->
<g id="node2" class="node">
<title>Node5</title>
<g id="a_node2"><a xlink:href="../../dc/dd5/class_standard_model.html" target="_top" xlink:title="A model class for the Standard Model. ">
<polygon fill="none" stroke="#ff0000" points="381.5,-108.5 381.5,-125.5 452.5,-125.5 452.5,-108.5 381.5,-108.5"/>
<text text-anchor="middle" x="417" y="-115.1" font-family="Helvetica,sans-Serif" font-size="8.00" fill="#000000">StandardModel</text>
</a>
</g>
</g>
<!-- Node5&#45;&gt;Node4 -->
<g id="edge1" class="edge">
<title>Node5&#45;&gt;Node4</title>
<path fill="none" stroke="#191970" d="M449.2991,-129.073C491.2211,-144.7428 563.3407,-171.7001 600.065,-185.4272"/>
<polygon fill="#191970" stroke="#191970" points="450.4252,-125.7574 439.8327,-125.5345 447.9743,-132.3143 450.4252,-125.7574"/>
</g>
<!-- Node10 -->
<g id="node5" class="node">
<title>Node10</title>
<g id="a_node5"><a xlink:href="../../dc/df3/class_e_w_s_mcache.html" target="_top" xlink:title="A class for cache variables used in computing radiative corrections to the EW precision observables...">
<polygon fill="none" stroke="#ff0000" points="591.5,-99.5 591.5,-116.5 654.5,-116.5 654.5,-99.5 591.5,-99.5"/>
<text text-anchor="middle" x="623" y="-106.1" font-family="Helvetica,sans-Serif" font-size="8.00" fill="#000000">EWSMcache</text>
</a>
</g>
</g>
<!-- Node5&#45;&gt;Node10 -->
<g id="edge5" class="edge">
<title>Node5&#45;&gt;Node10</title>
<path fill="none" stroke="#9a32cd" stroke-dasharray="5,2" d="M462.9431,-109.8857C475.2711,-108.2775 488.6165,-106.8074 501,-106 527.6102,-104.2651 534.3368,-105.5701 561,-106 570.9066,-106.1597 581.7002,-106.463 591.4638,-106.7859"/>
<polygon fill="#9a32cd" stroke="#9a32cd" points="462.3064,-106.44 452.8703,-111.2576 463.2511,-113.376 462.3064,-106.44"/>
<text text-anchor="middle" x="531" y="-108.6" font-family="Helvetica,sans-Serif" font-size="8.00" fill="#000000"> SM</text>
</g>
<!-- Node6 -->
<g id="node3" class="node">
<title>Node6</title>
<g id="a_node3"><a xlink:href="../../dd/dfa/class_q_c_d.html" target="_top" xlink:title="A class for parameters related to QCD, hadrons and quarks. ">
<polygon fill="none" stroke="#ff0000" points="188.5,-190.5 188.5,-207.5 222.5,-207.5 222.5,-190.5 188.5,-190.5"/>
<text text-anchor="middle" x="205.5" y="-197.1" font-family="Helvetica,sans-Serif" font-size="8.00" fill="#000000">QCD</text>
</a>
</g>
</g>
<!-- Node6&#45;&gt;Node5 -->
<g id="edge2" class="edge">
<title>Node6&#45;&gt;Node5</title>
<path fill="none" stroke="#191970" d="M232.5719,-193.0579C246.3424,-189.7465 263.2442,-185.235 278,-180 323.4454,-163.877 374.5282,-138.8367 400.2631,-125.7074"/>
<polygon fill="#191970" stroke="#191970" points="231.6845,-189.6709 222.7394,-195.3485 233.2727,-196.4883 231.6845,-189.6709"/>
</g>
<!-- Node9 -->
<g id="node4" class="node">
<title>Node9</title>
<g id="a_node4"><a xlink:href="../../db/d32/class_e_w_s_m_two_fermions_l_e_p2.html" target="_top" xlink:title="A class for the form factors , &#160;and &#160;in the processes &#160;at LEP&#45;II. ">
<polygon fill="none" stroke="#ff0000" points="727,-79.5 727,-96.5 836,-96.5 836,-79.5 727,-79.5"/>
<text text-anchor="middle" x="781.5" y="-86.1" font-family="Helvetica,sans-Serif" font-size="8.00" fill="#000000">EWSMTwoFermionsLEP2</text>
</a>
</g>
</g>
<!-- Node9&#45;&gt;Node5 -->
<g id="edge3" class="edge">
<title>Node9&#45;&gt;Node5</title>
<path fill="none" stroke="#9a32cd" stroke-dasharray="5,2" d="M716.3728,-83.3272C700.2461,-82.3608 683.0028,-81.4887 667,-81 627.9071,-79.8061 617.8776,-76.7323 579,-81 531.8888,-86.1715 478.432,-99.5615 446.2372,-108.4725"/>
<polygon fill="#9a32cd" stroke="#9a32cd" points="716.5873,-86.8472 726.7848,-83.9729 717.0206,-79.8606 716.5873,-86.8472"/>
<text text-anchor="middle" x="623" y="-83.6" font-family="Helvetica,sans-Serif" font-size="8.00" fill="#000000"> myTwoFermionsLEP2</text>
</g>
<!-- Node10&#45;&gt;Node5 -->
<g id="edge6" class="edge">
<title>Node10&#45;&gt;Node5</title>
<path fill="none" stroke="#9a32cd" stroke-dasharray="5,2" d="M580.9334,-113.3149C574.2738,-113.993 567.456,-114.5917 561,-115 524.0702,-117.3355 481.7116,-117.639 452.5442,-117.4795"/>
<polygon fill="#9a32cd" stroke="#9a32cd" points="581.63,-116.7599 591.1933,-112.1999 580.8737,-109.8009 581.63,-116.7599"/>
<text text-anchor="middle" x="531" y="-120.6" font-family="Helvetica,sans-Serif" font-size="8.00" fill="#000000"> myEWSMcache</text>
</g>
<!-- Node10&#45;&gt;Node9 -->
<g id="edge4" class="edge">
<title>Node10&#45;&gt;Node9</title>
<path fill="none" stroke="#9a32cd" stroke-dasharray="5,2" d="M664.8085,-102.7245C683.7721,-100.3316 706.4496,-97.4701 726.7487,-94.9087"/>
<polygon fill="#9a32cd" stroke="#9a32cd" points="664.177,-99.2763 654.6939,-104.0008 665.0534,-106.2212 664.177,-99.2763"/>
<text text-anchor="middle" x="697" y="-102.6" font-family="Helvetica,sans-Serif" font-size="8.00" fill="#000000"> cache</text>
</g>
<!-- Node16 -->
<g id="node6" class="node">
<title>Node16</title>
<g id="a_node6"><a xlink:href="../../d5/d76/class_matching.html" target="_top" xlink:title="Matching\&lt; StandardModelMatching,\l StandardModel \&gt;">
<polygon fill="none" stroke="#ff0000" points="133,-145 133,-171 278,-171 278,-145 133,-145"/>
<text text-anchor="start" x="141" y="-160.6" font-family="Helvetica,sans-Serif" font-size="8.00" fill="#000000">Matching&lt; StandardModelMatching,</text>
<text text-anchor="middle" x="205.5" y="-151.6" font-family="Helvetica,sans-Serif" font-size="8.00" fill="#000000"> StandardModel &gt;</text>
</a>
</g>
</g>
<!-- Node16&#45;&gt;Node5 -->
<g id="edge7" class="edge">
<title>Node16&#45;&gt;Node5</title>
<path fill="none" stroke="#9a32cd" stroke-dasharray="5,2" d="M282.5788,-143.058C316.3686,-136.5077 354.3829,-129.1385 381.3415,-123.9125"/>
<polygon fill="#9a32cd" stroke="#9a32cd" points="281.8616,-139.6318 272.7105,-144.971 283.1939,-146.5039 281.8616,-139.6318"/>
<text text-anchor="middle" x="314.5" y="-142.6" font-family="Helvetica,sans-Serif" font-size="8.00" fill="#000000"> SMM</text>
</g>
<!-- Node34 -->
<g id="node7" class="node">
<title>Node34</title>
<g id="a_node7"><a xlink:href="../../d9/db9/class_c_k_m.html" target="_top" xlink:title="A class for the CKM matrix elements. ">
<polygon fill="none" stroke="#000000" points="188.5,-.5 188.5,-17.5 222.5,-17.5 222.5,-.5 188.5,-.5"/>
<text text-anchor="middle" x="205.5" y="-7.1" font-family="Helvetica,sans-Serif" font-size="8.00" fill="#000000">CKM</text>
</a>
</g>
</g>
<!-- Node34&#45;&gt;Node5 -->
<g id="edge8" class="edge">
<title>Node34&#45;&gt;Node5</title>
<path fill="none" stroke="#9a32cd" stroke-dasharray="5,2" d="M232.886,-8.9222C259.8164,-9.9141 301.3708,-14.3718 333,-31 369.3929,-50.1326 399.5178,-90.7463 411.4705,-108.4504"/>
<polygon fill="#9a32cd" stroke="#9a32cd" points="232.7296,-5.4178 222.6517,-8.6869 232.5686,-12.416 232.7296,-5.4178"/>
<text text-anchor="middle" x="314.5" y="-33.6" font-family="Helvetica,sans-Serif" font-size="8.00" fill="#000000"> myCKM</text>
</g>
<!-- Node31 -->
<g id="node8" class="node">
<title>Node31</title>
<g id="a_node8"><a xlink:href="../../d1/d3c/classgslpp_1_1matrix.html" target="_top" xlink:title="gslpp::matrix\&lt; gslpp\l::complex \&gt;">
<polygon fill="none" stroke="#ff0000" points="0,-72 0,-98 88,-98 88,-72 0,-72"/>
<text text-anchor="start" x="8" y="-87.6" font-family="Helvetica,sans-Serif" font-size="8.00" fill="#000000">gslpp::matrix&lt; gslpp</text>
<text text-anchor="middle" x="44" y="-78.6" font-family="Helvetica,sans-Serif" font-size="8.00" fill="#000000">::complex &gt;</text>
</a>
</g>
</g>
<!-- Node31&#45;&gt;Node4 -->
<g id="edge14" class="edge">
<title>Node31&#45;&gt;Node4</title>
<path fill="none" stroke="#9a32cd" stroke-dasharray="5,2" d="M51.6766,-107.919C63.5349,-139.1736 89.5899,-193.9134 133,-217 293.9085,-302.5755 528.2059,-229.0072 600.7537,-202.5643"/>
<polygon fill="#9a32cd" stroke="#9a32cd" points="54.8893,-106.5114 48.1947,-98.2997 48.3072,-108.8939 54.8893,-106.5114"/>
<text text-anchor="middle" x="314.5" y="-322.6" font-family="Helvetica,sans-Serif" font-size="8.00" fill="#000000"> Dd_LR</text>
<text text-anchor="middle" x="314.5" y="-313.6" font-family="Helvetica,sans-Serif" font-size="8.00" fill="#000000">Du_LR</text>
<text text-anchor="middle" x="314.5" y="-304.6" font-family="Helvetica,sans-Serif" font-size="8.00" fill="#000000">Dd_RL</text>
<text text-anchor="middle" x="314.5" y="-295.6" font-family="Helvetica,sans-Serif" font-size="8.00" fill="#000000">Du_RL</text>
<text text-anchor="middle" x="314.5" y="-286.6" font-family="Helvetica,sans-Serif" font-size="8.00" fill="#000000">Dd_RR</text>
<text text-anchor="middle" x="314.5" y="-277.6" font-family="Helvetica,sans-Serif" font-size="8.00" fill="#000000">Dd_LL</text>
<text text-anchor="middle" x="314.5" y="-268.6" font-family="Helvetica,sans-Serif" font-size="8.00" fill="#000000">Du_RR</text>
<text text-anchor="middle" x="314.5" y="-259.6" font-family="Helvetica,sans-Serif" font-size="8.00" fill="#000000">Du_LL</text>
</g>
<!-- Node31&#45;&gt;Node5 -->
<g id="edge12" class="edge">
<title>Node31&#45;&gt;Node5</title>
<path fill="none" stroke="#9a32cd" stroke-dasharray="5,2" d="M97.8759,-69.4665C109.3724,-66.7773 121.5131,-64.3987 133,-63 196.972,-55.2106 214.6584,-51.1284 278,-63 324.5661,-71.7275 375.5865,-95.5715 400.8975,-108.4603"/>
<polygon fill="#9a32cd" stroke="#9a32cd" points="96.8512,-66.1139 87.9712,-71.8928 98.5168,-72.9129 96.8512,-66.1139"/>
<text text-anchor="middle" x="205.5" y="-92.6" font-family="Helvetica,sans-Serif" font-size="8.00" fill="#000000"> Yn</text>
<text text-anchor="middle" x="205.5" y="-83.6" font-family="Helvetica,sans-Serif" font-size="8.00" fill="#000000">Yd</text>
<text text-anchor="middle" x="205.5" y="-74.6" font-family="Helvetica,sans-Serif" font-size="8.00" fill="#000000">Yu</text>
<text text-anchor="middle" x="205.5" y="-65.6" font-family="Helvetica,sans-Serif" font-size="8.00" fill="#000000">Ye</text>
</g>
<!-- Node31&#45;&gt;Node34 -->
<g id="edge9" class="edge">
<title>Node31&#45;&gt;Node34</title>
<path fill="none" stroke="#9a32cd" stroke-dasharray="5,2" d="M62.6643,-64.2707C74.0952,-52.8061 89.6383,-39.251 106,-31 132.8542,-17.4577 167.9201,-12.1997 188.4494,-10.1953"/>
<polygon fill="#9a32cd" stroke="#9a32cd" points="59.8515,-62.1466 55.4479,-71.7829 64.8997,-66.9959 59.8515,-62.1466"/>
<text text-anchor="middle" x="110.5" y="-33.6" font-family="Helvetica,sans-Serif" font-size="8.00" fill="#000000"> V</text>
</g>
<!-- Node35 -->
<g id="node9" class="node">
<title>Node35</title>
<g id="a_node9"><a xlink:href="../../d5/d59/class_p_m_n_s.html" target="_top" xlink:title="A class for the PMNS matrix elements. ">
<polygon fill="none" stroke="#000000" points="185.5,-108.5 185.5,-125.5 225.5,-125.5 225.5,-108.5 185.5,-108.5"/>
<text text-anchor="middle" x="205.5" y="-115.1" font-family="Helvetica,sans-Serif" font-size="8.00" fill="#000000">PMNS</text>
</a>
</g>
</g>
<!-- Node31&#45;&gt;Node35 -->
<g id="edge11" class="edge">
<title>Node31&#45;&gt;Node35</title>
<path fill="none" stroke="#9a32cd" stroke-dasharray="5,2" d="M98.0741,-95.7144C128.1041,-101.6646 163.6793,-108.7136 185.4131,-113.0199"/>
<polygon fill="#9a32cd" stroke="#9a32cd" points="98.6202,-92.2546 88.1306,-93.7441 97.2596,-99.1211 98.6202,-92.2546"/>
<text text-anchor="middle" x="110.5" y="-101.6" font-family="Helvetica,sans-Serif" font-size="8.00" fill="#000000"> U</text>
</g>
<!-- Node35&#45;&gt;Node5 -->
<g id="edge10" class="edge">
<title>Node35&#45;&gt;Node5</title>
<path fill="none" stroke="#9a32cd" stroke-dasharray="5,2" d="M235.8534,-117C274.3361,-117 340.5739,-117 381.4003,-117"/>
<polygon fill="#9a32cd" stroke="#9a32cd" points="235.7795,-113.5001 225.7795,-117 235.7795,-120.5001 235.7795,-113.5001"/>
<text text-anchor="middle" x="314.5" y="-119.6" font-family="Helvetica,sans-Serif" font-size="8.00" fill="#000000"> myPMNS</text>
</g>
<!-- Node48 -->
<g id="node10" class="node">
<title>Node48</title>
<g id="a_node10"><a xlink:href="../../d5/d76/class_matching.html" target="_top" xlink:title="Matching\&lt; SUSYMassInsertion\lMatching, SUSYMassInsertion \&gt;">
<polygon fill="none" stroke="#ff0000" points="351,-181 351,-207 483,-207 483,-181 351,-181"/>
<text text-anchor="start" x="359" y="-196.6" font-family="Helvetica,sans-Serif" font-size="8.00" fill="#000000">Matching&lt; SUSYMassInsertion</text>
<text text-anchor="middle" x="417" y="-187.6" font-family="Helvetica,sans-Serif" font-size="8.00" fill="#000000">Matching, SUSYMassInsertion &gt;</text>
</a>
</g>
</g>
<!-- Node48&#45;&gt;Node4 -->
<g id="edge13" class="edge">
<title>Node48&#45;&gt;Node4</title>
<path fill="none" stroke="#9a32cd" stroke-dasharray="5,2" d="M493.0934,-194C521.9486,-194 553.8334,-194 578.793,-194"/>
<polygon fill="#9a32cd" stroke="#9a32cd" points="493.0297,-190.5001 483.0297,-194 493.0297,-197.5001 493.0297,-190.5001"/>
<text text-anchor="middle" x="531" y="-196.6" font-family="Helvetica,sans-Serif" font-size="8.00" fill="#000000"> SUSYMIM</text>
</g>
</g>
</svg>
