<?xml version="1.0" encoding="UTF-8" standalone="no"?>
<!DOCTYPE svg PUBLIC "-//W3C//DTD SVG 1.1//EN"
 "http://www.w3.org/Graphics/SVG/1.1/DTD/svg11.dtd">
<!-- Generated by graphviz version 2.40.1 (20161225.0304)
 -->
<!-- Title: HiggsKvgenKfgen.h Pages: 1 -->
<svg width="202pt" height="80pt"
 viewBox="0.00 0.00 202.00 80.00" xmlns="http://www.w3.org/2000/svg" xmlns:xlink="http://www.w3.org/1999/xlink">
<g id="graph0" class="graph" transform="scale(1 1) rotate(0) translate(4 76)">
<title>HiggsKvgenKfgen.h</title>
<!-- Node50 -->
<g id="node1" class="node">
<title>Node50</title>
<polygon fill="#bfbfbf" stroke="#000000" points="57.5,-54.5 57.5,-71.5 144.5,-71.5 144.5,-54.5 57.5,-54.5"/>
<text text-anchor="middle" x="101" y="-61.1" font-family="Helvetica,sans-Serif" font-size="8.00" fill="#000000">HiggsKvgenKfgen.h</text>
</g>
<!-- Node51 -->
<g id="node2" class="node">
<title>Node51</title>
<g id="a_node2"><a xlink:href="../../da/d19/_higgs_kvgen_kfgen_8cpp.html" target="_top" xlink:title="HiggsKvgenKfgen.cpp">
<polygon fill="none" stroke="#000000" points="0,-.5 0,-17.5 96,-17.5 96,-.5 0,-.5"/>
<text text-anchor="middle" x="48" y="-7.1" font-family="Helvetica,sans-Serif" font-size="8.00" fill="#000000">HiggsKvgenKfgen.cpp</text>
</a>
</g>
</g>
<!-- Node50&#45;&gt;Node51 -->
<g id="edge1" class="edge">
<title>Node50&#45;&gt;Node51</title>
<path fill="none" stroke="#191970" d="M85.0191,-46.7175C75.6775,-37.1997 64.2541,-25.5608 56.589,-17.7511"/>
<polygon fill="#191970" stroke="#191970" points="82.7455,-49.3978 92.2481,-54.083 87.7413,-44.4945 82.7455,-49.3978"/>
</g>
<!-- Node52 -->
<g id="node3" class="node">
<title>Node52</title>
<g id="a_node3"><a xlink:href="../../d3/df6/_model_factory_8cpp.html" target="_top" xlink:title="ModelFactory.cpp">
<polygon fill="none" stroke="#000000" points="114,-.5 114,-17.5 194,-17.5 194,-.5 114,-.5"/>
<text text-anchor="middle" x="154" y="-7.1" font-family="Helvetica,sans-Serif" font-size="8.00" fill="#000000">ModelFactory.cpp</text>
</a>
</g>
</g>
<!-- Node50&#45;&gt;Node52 -->
<g id="edge2" class="edge">
<title>Node50&#45;&gt;Node52</title>
<path fill="none" stroke="#191970" d="M116.9809,-46.7175C126.3225,-37.1997 137.7459,-25.5608 145.411,-17.7511"/>
<polygon fill="#191970" stroke="#191970" points="114.2587,-44.4945 109.7519,-54.083 119.2545,-49.3978 114.2587,-44.4945"/>
</g>
</g>
</svg>
