<?xml version="1.0" encoding="UTF-8" standalone="no"?>
<!DOCTYPE svg PUBLIC "-//W3C//DTD SVG 1.1//EN"
 "http://www.w3.org/Graphics/SVG/1.1/DTD/svg11.dtd">
<!-- Generated by graphviz version 2.38.0 (20140413.2041)
 -->
<!-- Title: NPSTUZbbbarLR.h Pages: 1 -->
<svg width="200pt" height="80pt"
 viewBox="0.00 0.00 200.00 80.00" xmlns="http://www.w3.org/2000/svg" xmlns:xlink="http://www.w3.org/1999/xlink">
<g id="graph0" class="graph" transform="scale(1 1) rotate(0) translate(4 76)">
<title>NPSTUZbbbarLR.h</title>
<!-- Node1 -->
<g id="node1" class="node"><title>Node1</title>
<polygon fill="#bfbfbf" stroke="black" points="49,-54.5 49,-71.5 135,-71.5 135,-54.5 49,-54.5"/>
<text text-anchor="middle" x="92" y="-61.1" font-family="Helvetica,sans-Serif" font-size="8.00">NPSTUZbbbarLR.h</text>
</g>
<!-- Node2 -->
<g id="node2" class="node"><title>Node2</title>
<g id="a_node2"><a xlink:href="../../d3/df6/_model_factory_8cpp.html" target="_top" xlink:title="ModelFactory.cpp">
<polygon fill="none" stroke="black" points="0,-0.5 0,-17.5 80,-17.5 80,-0.5 0,-0.5"/>
<text text-anchor="middle" x="40" y="-7.1" font-family="Helvetica,sans-Serif" font-size="8.00">ModelFactory.cpp</text>
</a>
</g>
</g>
<!-- Node1&#45;&gt;Node2 -->
<g id="edge1" class="edge"><title>Node1&#45;&gt;Node2</title>
<path fill="none" stroke="midnightblue" d="M77.0029,-47.0029C67.422,-37.422 55.3969,-25.3969 47.7043,-17.7043"/>
<polygon fill="midnightblue" stroke="midnightblue" points="74.7812,-49.731 84.3272,-54.3272 79.731,-44.7812 74.7812,-49.731"/>
</g>
<!-- Node3 -->
<g id="node3" class="node"><title>Node3</title>
<g id="a_node3"><a xlink:href="../../d1/dfa/_n_p_s_t_u_zbbbar_l_r_8cpp.html" target="_top" xlink:title="NPSTUZbbbarLR.cpp">
<polygon fill="none" stroke="black" points="98,-0.5 98,-17.5 192,-17.5 192,-0.5 98,-0.5"/>
<text text-anchor="middle" x="145" y="-7.1" font-family="Helvetica,sans-Serif" font-size="8.00">NPSTUZbbbarLR.cpp</text>
</a>
</g>
</g>
<!-- Node1&#45;&gt;Node3 -->
<g id="edge2" class="edge"><title>Node1&#45;&gt;Node3</title>
<path fill="none" stroke="midnightblue" d="M106.993,-47.2896C116.805,-37.663 129.229,-25.4739 137.148,-17.7043"/>
<polygon fill="midnightblue" stroke="midnightblue" points="104.507,-44.8254 99.8203,-54.3272 109.41,-49.8221 104.507,-44.8254"/>
</g>
</g>
</svg>
