<?xml version="1.0" encoding="UTF-8" standalone="no"?>
<!DOCTYPE svg PUBLIC "-//W3C//DTD SVG 1.1//EN"
 "http://www.w3.org/Graphics/SVG/1.1/DTD/svg11.dtd">
<!-- Generated by graphviz version 2.40.1 (20161225.0304)
 -->
<!-- Title: LHPC::SlhaTwo Pages: 1 -->
<svg width="537pt" height="605pt"
 viewBox="0.00 0.00 537.00 604.50" xmlns="http://www.w3.org/2000/svg" xmlns:xlink="http://www.w3.org/1999/xlink">
<g id="graph0" class="graph" transform="scale(1 1) rotate(0) translate(4 600.5)">
<title>LHPC::SlhaTwo</title>
<!-- Node3 -->
<g id="node1" class="node">
<title>Node3</title>
<polygon fill="#bfbfbf" stroke="#000000" points="456,-342 456,-359 529,-359 529,-342 456,-342"/>
<text text-anchor="middle" x="492.5" y="-348.6" font-family="Helvetica,sans-Serif" font-size="8.00" fill="#000000">LHPC::SlhaTwo</text>
</g>
<!-- Node4 -->
<g id="node2" class="node">
<title>Node4</title>
<g id="a_node2"><a xlink:href="../../d1/d8e/class_l_h_p_c_1_1_slha_one.html" target="_top" xlink:title="LHPC::SlhaOne">
<polygon fill="none" stroke="#000000" points="255,-257 255,-274 328,-274 328,-257 255,-257"/>
<text text-anchor="middle" x="291.5" y="-263.6" font-family="Helvetica,sans-Serif" font-size="8.00" fill="#000000">LHPC::SlhaOne</text>
</a>
</g>
</g>
<!-- Node4&#45;&gt;Node3 -->
<g id="edge1" class="edge">
<title>Node4&#45;&gt;Node3</title>
<path fill="none" stroke="#191970" d="M321.1827,-278.0524C362.6395,-295.5839 436.7842,-326.9386 472.3658,-341.9855"/>
<polygon fill="#191970" stroke="#191970" points="322.4526,-274.7894 311.8791,-274.118 319.7262,-281.2366 322.4526,-274.7894"/>
</g>
<!-- Node5 -->
<g id="node3" class="node">
<title>Node5</title>
<g id="a_node3"><a xlink:href="../../d2/dcb/class_l_h_p_c_1_1_s_l_h_a_1_1_just_single_value_block.html" target="_top" xlink:title="LHPC::SLHA::JustSingleValue\lBlock\&lt; double \&gt;">
<polygon fill="none" stroke="#ff0000" points="9.5,-542.5 9.5,-568.5 134.5,-568.5 134.5,-542.5 9.5,-542.5"/>
<text text-anchor="start" x="17.5" y="-558.1" font-family="Helvetica,sans-Serif" font-size="8.00" fill="#000000">LHPC::SLHA::JustSingleValue</text>
<text text-anchor="middle" x="72" y="-549.1" font-family="Helvetica,sans-Serif" font-size="8.00" fill="#000000">Block&lt; double &gt;</text>
</a>
</g>
</g>
<!-- Node5&#45;&gt;Node3 -->
<g id="edge10" class="edge">
<title>Node5&#45;&gt;Node3</title>
<path fill="none" stroke="#9a32cd" stroke-dasharray="5,2" d="M122.3833,-571.1467C182.8881,-586.8639 285.6321,-603.543 361,-563.5 445.4323,-518.6412 481.8627,-393.5775 490.439,-359.2905"/>
<polygon fill="#9a32cd" stroke="#9a32cd" points="123.2487,-567.7552 112.6831,-568.5407 121.4325,-574.5155 123.2487,-567.7552"/>
<text text-anchor="middle" x="291.5" y="-590.1" font-family="Helvetica,sans-Serif" font-size="8.00" fill="#000000"> IMALPHA</text>
</g>
<!-- Node5&#45;&gt;Node4 -->
<g id="edge2" class="edge">
<title>Node5&#45;&gt;Node4</title>
<path fill="none" stroke="#9a32cd" stroke-dasharray="5,2" d="M112.4122,-538.0449C142.5947,-522.8337 182.2405,-497.8125 204,-463.5 229.5915,-423.1449 203.058,-401.3709 222,-357.5 236.9175,-322.95 267.4068,-289.5291 282.5516,-274.212"/>
<polygon fill="#9a32cd" stroke="#9a32cd" points="110.8332,-534.9209 103.3793,-542.4501 113.9016,-541.2126 110.8332,-534.9209"/>
<text text-anchor="middle" x="183" y="-509.1" font-family="Helvetica,sans-Serif" font-size="8.00" fill="#000000"> ALPHA</text>
</g>
<!-- Node19 -->
<g id="node4" class="node">
<title>Node19</title>
<g id="a_node4"><a xlink:href="../../d4/deb/class_l_h_p_c_1_1_slha_parser.html" target="_top" xlink:title="LHPC::SlhaParser">
<polygon fill="none" stroke="#ff0000" points="31,-189 31,-206 113,-206 113,-189 31,-189"/>
<text text-anchor="middle" x="72" y="-195.6" font-family="Helvetica,sans-Serif" font-size="8.00" fill="#000000">LHPC::SlhaParser</text>
</a>
</g>
</g>
<!-- Node19&#45;&gt;Node4 -->
<g id="edge3" class="edge">
<title>Node19&#45;&gt;Node4</title>
<path fill="none" stroke="#9a32cd" stroke-dasharray="5,2" d="M123.4538,-196.7644C149.108,-198.4443 179.7485,-203.6879 204,-217.5 214.9779,-223.7523 211.7291,-232.1438 222,-239.5 232.683,-247.1513 245.8862,-252.833 257.9055,-256.9"/>
<polygon fill="#9a32cd" stroke="#9a32cd" points="123.3232,-193.2539 113.1638,-196.2599 122.9804,-200.2455 123.3232,-193.2539"/>
<text text-anchor="middle" x="183" y="-220.1" font-family="Helvetica,sans-Serif" font-size="8.00" fill="#000000"> fileParser</text>
</g>
<!-- Node30 -->
<g id="node5" class="node">
<title>Node30</title>
<g id="a_node5"><a xlink:href="../../df/d08/class_l_h_p_c_1_1_s_l_h_a_1_1_dense_doubly_indexed_block.html" target="_top" xlink:title="LHPC::SLHA::DenseDoublyIndexed\lBlock\&lt; double \&gt;">
<polygon fill="none" stroke="#ff0000" points="0,-340.5 0,-366.5 144,-366.5 144,-340.5 0,-340.5"/>
<text text-anchor="start" x="8" y="-356.1" font-family="Helvetica,sans-Serif" font-size="8.00" fill="#000000">LHPC::SLHA::DenseDoublyIndexed</text>
<text text-anchor="middle" x="72" y="-347.1" font-family="Helvetica,sans-Serif" font-size="8.00" fill="#000000">Block&lt; double &gt;</text>
</a>
</g>
</g>
<!-- Node30&#45;&gt;Node3 -->
<g id="edge11" class="edge">
<title>Node30&#45;&gt;Node3</title>
<path fill="none" stroke="#9a32cd" stroke-dasharray="5,2" d="M154.2631,-364.9172C156.87,-365.1354 159.4539,-365.331 162,-365.5 268.5993,-372.5753 394.7651,-361.4509 455.7919,-354.8383"/>
<polygon fill="#9a32cd" stroke="#9a32cd" points="154.4082,-361.4157 144.1265,-363.9724 153.7585,-368.3855 154.4082,-361.4157"/>
<text text-anchor="middle" x="291.5" y="-460.1" font-family="Helvetica,sans-Serif" font-size="8.00" fill="#000000"> IMNMHMIX</text>
<text text-anchor="middle" x="291.5" y="-451.1" font-family="Helvetica,sans-Serif" font-size="8.00" fill="#000000">IMSNUMIX</text>
<text text-anchor="middle" x="291.5" y="-442.1" font-family="Helvetica,sans-Serif" font-size="8.00" fill="#000000">IMSELMIX</text>
<text text-anchor="middle" x="291.5" y="-433.1" font-family="Helvetica,sans-Serif" font-size="8.00" fill="#000000">MSN2IN</text>
<text text-anchor="middle" x="291.5" y="-424.1" font-family="Helvetica,sans-Serif" font-size="8.00" fill="#000000">IMMSQ2IN</text>
<text text-anchor="middle" x="291.5" y="-415.1" font-family="Helvetica,sans-Serif" font-size="8.00" fill="#000000">IMYD</text>
<text text-anchor="middle" x="291.5" y="-406.1" font-family="Helvetica,sans-Serif" font-size="8.00" fill="#000000">IMYU</text>
<text text-anchor="middle" x="291.5" y="-397.1" font-family="Helvetica,sans-Serif" font-size="8.00" fill="#000000">IMRVLMIX</text>
<text text-anchor="middle" x="291.5" y="-388.1" font-family="Helvetica,sans-Serif" font-size="8.00" fill="#000000">RVNMIX</text>
<text text-anchor="middle" x="291.5" y="-379.1" font-family="Helvetica,sans-Serif" font-size="8.00" fill="#000000">TD</text>
<text text-anchor="middle" x="291.5" y="-370.1" font-family="Helvetica,sans-Serif" font-size="8.00" fill="#000000">...</text>
</g>
<!-- Node30&#45;&gt;Node4 -->
<g id="edge4" class="edge">
<title>Node30&#45;&gt;Node4</title>
<path fill="none" stroke="#9a32cd" stroke-dasharray="5,2" d="M86.6033,-331.9195C102.3661,-310.7372 129.6135,-279.7402 162,-266.5 191.5521,-254.4185 228.1642,-255.4323 254.9115,-258.7309"/>
<polygon fill="#9a32cd" stroke="#9a32cd" points="83.5627,-330.1531 80.5695,-340.3163 89.2473,-334.238 83.5627,-330.1531"/>
<text text-anchor="middle" x="183" y="-359.1" font-family="Helvetica,sans-Serif" font-size="8.00" fill="#000000"> AD</text>
<text text-anchor="middle" x="183" y="-350.1" font-family="Helvetica,sans-Serif" font-size="8.00" fill="#000000">AU</text>
<text text-anchor="middle" x="183" y="-341.1" font-family="Helvetica,sans-Serif" font-size="8.00" fill="#000000">AE</text>
<text text-anchor="middle" x="183" y="-332.1" font-family="Helvetica,sans-Serif" font-size="8.00" fill="#000000">VMIX</text>
<text text-anchor="middle" x="183" y="-323.1" font-family="Helvetica,sans-Serif" font-size="8.00" fill="#000000">UMIX</text>
<text text-anchor="middle" x="183" y="-314.1" font-family="Helvetica,sans-Serif" font-size="8.00" fill="#000000">SBOTMIX</text>
<text text-anchor="middle" x="183" y="-305.1" font-family="Helvetica,sans-Serif" font-size="8.00" fill="#000000">STAUMIX</text>
<text text-anchor="middle" x="183" y="-296.1" font-family="Helvetica,sans-Serif" font-size="8.00" fill="#000000">YD</text>
<text text-anchor="middle" x="183" y="-287.1" font-family="Helvetica,sans-Serif" font-size="8.00" fill="#000000">YU</text>
<text text-anchor="middle" x="183" y="-278.1" font-family="Helvetica,sans-Serif" font-size="8.00" fill="#000000">STOPMIX</text>
<text text-anchor="middle" x="183" y="-269.1" font-family="Helvetica,sans-Serif" font-size="8.00" fill="#000000">...</text>
</g>
<!-- Node41 -->
<g id="node6" class="node">
<title>Node41</title>
<g id="a_node6"><a xlink:href="../../d0/d25/class_l_h_p_c_1_1_s_l_h_a_1_1_sparse_singly_indexed_block.html" target="_top" xlink:title="LHPC::SLHA::SparseSingly\lIndexedBlock\&lt; double \&gt;">
<polygon fill="none" stroke="#ff0000" points="14.5,-425.5 14.5,-451.5 129.5,-451.5 129.5,-425.5 14.5,-425.5"/>
<text text-anchor="start" x="22.5" y="-441.1" font-family="Helvetica,sans-Serif" font-size="8.00" fill="#000000">LHPC::SLHA::SparseSingly</text>
<text text-anchor="middle" x="72" y="-432.1" font-family="Helvetica,sans-Serif" font-size="8.00" fill="#000000">IndexedBlock&lt; double &gt;</text>
</a>
</g>
</g>
<!-- Node41&#45;&gt;Node3 -->
<g id="edge12" class="edge">
<title>Node41&#45;&gt;Node3</title>
<path fill="none" stroke="#9a32cd" stroke-dasharray="5,2" d="M90.4815,-459.018C107.2323,-475.9613 133.5859,-498.7509 162,-508.5 179.6563,-514.558 185.4648,-510.7112 204,-508.5 275.2871,-499.9957 297.6074,-504.198 361,-470.5 417.2186,-440.6155 468.1095,-381.1237 485.8442,-359.0248"/>
<polygon fill="#9a32cd" stroke="#9a32cd" points="92.9314,-456.5159 83.4879,-451.7126 87.8748,-461.3565 92.9314,-456.5159"/>
<text text-anchor="middle" x="291.5" y="-553.1" font-family="Helvetica,sans-Serif" font-size="8.00" fill="#000000"> QEXTPAR</text>
<text text-anchor="middle" x="291.5" y="-544.1" font-family="Helvetica,sans-Serif" font-size="8.00" fill="#000000">NMSSMRUN</text>
<text text-anchor="middle" x="291.5" y="-535.1" font-family="Helvetica,sans-Serif" font-size="8.00" fill="#000000">IMEXTPAR</text>
<text text-anchor="middle" x="291.5" y="-526.1" font-family="Helvetica,sans-Serif" font-size="8.00" fill="#000000">IMMINPAR</text>
<text text-anchor="middle" x="291.5" y="-517.1" font-family="Helvetica,sans-Serif" font-size="8.00" fill="#000000">IMHMIX</text>
<text text-anchor="middle" x="291.5" y="-508.1" font-family="Helvetica,sans-Serif" font-size="8.00" fill="#000000">IMMSOFT</text>
</g>
<!-- Node41&#45;&gt;Node4 -->
<g id="edge5" class="edge">
<title>Node41&#45;&gt;Node4</title>
<path fill="none" stroke="#9a32cd" stroke-dasharray="5,2" d="M114.5732,-421.3746C141.7541,-409.2493 176.8542,-391.2953 204,-369.5 240.7986,-339.9545 273.5051,-293.0973 286.0534,-274.011"/>
<polygon fill="#9a32cd" stroke="#9a32cd" points="113.0791,-418.2078 105.3153,-425.4171 115.8804,-424.6229 113.0791,-418.2078"/>
<text text-anchor="middle" x="183" y="-453.1" font-family="Helvetica,sans-Serif" font-size="8.00" fill="#000000"> MSOFT</text>
<text text-anchor="middle" x="183" y="-444.1" font-family="Helvetica,sans-Serif" font-size="8.00" fill="#000000">SMINPUTS</text>
<text text-anchor="middle" x="183" y="-435.1" font-family="Helvetica,sans-Serif" font-size="8.00" fill="#000000">HMIX</text>
<text text-anchor="middle" x="183" y="-426.1" font-family="Helvetica,sans-Serif" font-size="8.00" fill="#000000">MASS</text>
<text text-anchor="middle" x="183" y="-417.1" font-family="Helvetica,sans-Serif" font-size="8.00" fill="#000000">MODSEL</text>
<text text-anchor="middle" x="183" y="-408.1" font-family="Helvetica,sans-Serif" font-size="8.00" fill="#000000">EXTPAR</text>
<text text-anchor="middle" x="183" y="-399.1" font-family="Helvetica,sans-Serif" font-size="8.00" fill="#000000">MINPAR</text>
</g>
<!-- Node49 -->
<g id="node7" class="node">
<title>Node49</title>
<g id="a_node7"><a xlink:href="../../df/d9c/class_l_h_p_c_1_1_s_l_h_a_1_1_dense_singly_indexed_block.html" target="_top" xlink:title="LHPC::SLHA::DenseSinglyIndexed\lBlock\&lt; double \&gt;">
<polygon fill="none" stroke="#ff0000" points="1.5,-131.5 1.5,-157.5 142.5,-157.5 142.5,-131.5 1.5,-131.5"/>
<text text-anchor="start" x="9.5" y="-147.1" font-family="Helvetica,sans-Serif" font-size="8.00" fill="#000000">LHPC::SLHA::DenseSinglyIndexed</text>
<text text-anchor="middle" x="72" y="-138.1" font-family="Helvetica,sans-Serif" font-size="8.00" fill="#000000">Block&lt; double &gt;</text>
</a>
</g>
</g>
<!-- Node49&#45;&gt;Node3 -->
<g id="edge13" class="edge">
<title>Node49&#45;&gt;Node3</title>
<path fill="none" stroke="#9a32cd" stroke-dasharray="5,2" d="M133.1317,-129.5366C194.7068,-117.9273 290.4422,-109.6068 361,-148.5 441.2569,-192.7395 480.4345,-309.117 490.0827,-341.8332"/>
<polygon fill="#9a32cd" stroke="#9a32cd" points="132.3104,-126.1311 123.1758,-131.4985 133.6639,-132.999 132.3104,-126.1311"/>
<text text-anchor="middle" x="291.5" y="-241.1" font-family="Helvetica,sans-Serif" font-size="8.00" fill="#000000"> UPMNSIN</text>
<text text-anchor="middle" x="291.5" y="-232.1" font-family="Helvetica,sans-Serif" font-size="8.00" fill="#000000">VCKM</text>
<text text-anchor="middle" x="291.5" y="-223.1" font-family="Helvetica,sans-Serif" font-size="8.00" fill="#000000">IMGAUGE</text>
<text text-anchor="middle" x="291.5" y="-214.1" font-family="Helvetica,sans-Serif" font-size="8.00" fill="#000000">IMRVSNVEVIN</text>
<text text-anchor="middle" x="291.5" y="-205.1" font-family="Helvetica,sans-Serif" font-size="8.00" fill="#000000">RVDIN</text>
<text text-anchor="middle" x="291.5" y="-196.1" font-family="Helvetica,sans-Serif" font-size="8.00" fill="#000000">RVSNVEV</text>
<text text-anchor="middle" x="291.5" y="-187.1" font-family="Helvetica,sans-Serif" font-size="8.00" fill="#000000">UPMNS</text>
<text text-anchor="middle" x="291.5" y="-178.1" font-family="Helvetica,sans-Serif" font-size="8.00" fill="#000000">RVSNVEVIN</text>
<text text-anchor="middle" x="291.5" y="-169.1" font-family="Helvetica,sans-Serif" font-size="8.00" fill="#000000">IMVCKM</text>
<text text-anchor="middle" x="291.5" y="-160.1" font-family="Helvetica,sans-Serif" font-size="8.00" fill="#000000">IMRVDIN</text>
<text text-anchor="middle" x="291.5" y="-151.1" font-family="Helvetica,sans-Serif" font-size="8.00" fill="#000000">...</text>
</g>
<!-- Node49&#45;&gt;Node4 -->
<g id="edge6" class="edge">
<title>Node49&#45;&gt;Node4</title>
<path fill="none" stroke="#9a32cd" stroke-dasharray="5,2" d="M152.0851,-158.4768C170.9992,-164.9853 189.776,-174.5233 204,-188.5 221.1452,-205.347 205.1628,-222.3452 222,-239.5 230.8434,-248.5103 243.101,-254.4322 254.8628,-258.3099"/>
<polygon fill="#9a32cd" stroke="#9a32cd" points="153.0985,-155.1264 142.5081,-155.4305 150.9767,-161.7971 153.0985,-155.1264"/>
<text text-anchor="middle" x="183" y="-191.1" font-family="Helvetica,sans-Serif" font-size="8.00" fill="#000000"> GAUGE</text>
</g>
<!-- Node57 -->
<g id="node8" class="node">
<title>Node57</title>
<g id="a_node8"><a xlink:href="../../d6/d67/class_l_h_p_c_1_1_s_l_h_a_1_1_lines_as_strings_block.html" target="_top" xlink:title="LHPC::SLHA::LinesAsStrings\lBlock">
<polygon fill="none" stroke="#ff0000" points="11.5,-225.5 11.5,-251.5 132.5,-251.5 132.5,-225.5 11.5,-225.5"/>
<text text-anchor="start" x="19.5" y="-241.1" font-family="Helvetica,sans-Serif" font-size="8.00" fill="#000000">LHPC::SLHA::LinesAsStrings</text>
<text text-anchor="middle" x="72" y="-232.1" font-family="Helvetica,sans-Serif" font-size="8.00" fill="#000000">Block</text>
</a>
</g>
</g>
<!-- Node57&#45;&gt;Node4 -->
<g id="edge7" class="edge">
<title>Node57&#45;&gt;Node4</title>
<path fill="none" stroke="#9a32cd" stroke-dasharray="5,2" d="M143.0212,-231.1505C162.8694,-230.5021 184.3735,-231.126 204,-234.5 210.5518,-235.6263 245.0072,-248.1788 268.675,-256.9605"/>
<polygon fill="#9a32cd" stroke="#9a32cd" points="142.6488,-227.6633 132.8115,-231.5977 142.9551,-234.6566 142.6488,-227.6633"/>
<text text-anchor="middle" x="183" y="-237.1" font-family="Helvetica,sans-Serif" font-size="8.00" fill="#000000"> SPINFO</text>
</g>
<!-- Node66 -->
<g id="node9" class="node">
<title>Node66</title>
<g id="a_node9"><a xlink:href="../../df/db0/class_l_h_p_c_1_1_s_l_h_a_1_1_dense_triply_indexed_block.html" target="_top" xlink:title="LHPC::SLHA::DenseTriplyIndexed\lBlock\&lt; double \&gt;">
<polygon fill="none" stroke="#ff0000" points="222,-9.5 222,-35.5 361,-35.5 361,-9.5 222,-9.5"/>
<text text-anchor="start" x="230" y="-25.1" font-family="Helvetica,sans-Serif" font-size="8.00" fill="#000000">LHPC::SLHA::DenseTriplyIndexed</text>
<text text-anchor="middle" x="291.5" y="-16.1" font-family="Helvetica,sans-Serif" font-size="8.00" fill="#000000">Block&lt; double &gt;</text>
</a>
</g>
</g>
<!-- Node66&#45;&gt;Node3 -->
<g id="edge8" class="edge">
<title>Node66&#45;&gt;Node3</title>
<path fill="none" stroke="#9a32cd" stroke-dasharray="5,2" d="M344.2397,-7.4819C375.0424,-2.1206 412.704,-1.9223 438,-23.5 463.1779,-44.9769 487.1061,-291.8136 491.7068,-341.7308"/>
<polygon fill="#9a32cd" stroke="#9a32cd" points="343.2235,-4.1145 334.0843,-9.4741 344.5711,-10.9836 343.2235,-4.1145"/>
<text text-anchor="middle" x="408.5" y="-116.1" font-family="Helvetica,sans-Serif" font-size="8.00" fill="#000000"> RVTLQD</text>
<text text-anchor="middle" x="408.5" y="-107.1" font-family="Helvetica,sans-Serif" font-size="8.00" fill="#000000">IMRVLAMUDD</text>
<text text-anchor="middle" x="408.5" y="-98.1" font-family="Helvetica,sans-Serif" font-size="8.00" fill="#000000">RVTLLEIN</text>
<text text-anchor="middle" x="408.5" y="-89.1" font-family="Helvetica,sans-Serif" font-size="8.00" fill="#000000">IMRVLAMLQD</text>
<text text-anchor="middle" x="408.5" y="-80.1" font-family="Helvetica,sans-Serif" font-size="8.00" fill="#000000">RVLAMLLE</text>
<text text-anchor="middle" x="408.5" y="-71.1" font-family="Helvetica,sans-Serif" font-size="8.00" fill="#000000">IMRVLAMLLEIN</text>
<text text-anchor="middle" x="408.5" y="-62.1" font-family="Helvetica,sans-Serif" font-size="8.00" fill="#000000">RVTUDDIN</text>
<text text-anchor="middle" x="408.5" y="-53.1" font-family="Helvetica,sans-Serif" font-size="8.00" fill="#000000">RVLAMLQD</text>
<text text-anchor="middle" x="408.5" y="-44.1" font-family="Helvetica,sans-Serif" font-size="8.00" fill="#000000">RVTUDD</text>
<text text-anchor="middle" x="408.5" y="-35.1" font-family="Helvetica,sans-Serif" font-size="8.00" fill="#000000">RVLAMUDDIN</text>
<text text-anchor="middle" x="408.5" y="-26.1" font-family="Helvetica,sans-Serif" font-size="8.00" fill="#000000">...</text>
</g>
<!-- Node67 -->
<g id="node10" class="node">
<title>Node67</title>
<g id="a_node10"><a xlink:href="../../de/d5e/class_l_h_p_c_1_1_s_l_h_a_1_1_indexed_block_template.html" target="_top" xlink:title="LHPC::SLHA::IndexedBlock\lTemplate\&lt; double, Interpreter\lClass::DenseTriplyIndexed\l\&lt; double \&gt; \&gt;">
<polygon fill="none" stroke="#ff0000" points="11,-.5 11,-44.5 133,-44.5 133,-.5 11,-.5"/>
<text text-anchor="start" x="19" y="-34.1" font-family="Helvetica,sans-Serif" font-size="8.00" fill="#000000">LHPC::SLHA::IndexedBlock</text>
<text text-anchor="start" x="19" y="-25.1" font-family="Helvetica,sans-Serif" font-size="8.00" fill="#000000">Template&lt; double, Interpreter</text>
<text text-anchor="start" x="19" y="-16.1" font-family="Helvetica,sans-Serif" font-size="8.00" fill="#000000">Class::DenseTriplyIndexed</text>
<text text-anchor="middle" x="72" y="-7.1" font-family="Helvetica,sans-Serif" font-size="8.00" fill="#000000">&lt; double &gt; &gt;</text>
</a>
</g>
</g>
<!-- Node67&#45;&gt;Node66 -->
<g id="edge9" class="edge">
<title>Node67&#45;&gt;Node66</title>
<path fill="none" stroke="#191970" d="M143.3514,-22.5C168.5136,-22.5 196.7571,-22.5 221.7826,-22.5"/>
<polygon fill="#191970" stroke="#191970" points="143.143,-19.0001 133.143,-22.5 143.143,-26.0001 143.143,-19.0001"/>
</g>
</g>
</svg>
