<?xml version="1.0" encoding="UTF-8" standalone="no"?>
<!DOCTYPE svg PUBLIC "-//W3C//DTD SVG 1.1//EN"
 "http://www.w3.org/Graphics/SVG/1.1/DTD/svg11.dtd">
<!-- Generated by graphviz version 2.40.1 (20161225.0304)
 -->
<!-- Title: AmpDB2.h Pages: 1 -->
<svg width="471pt" height="296pt"
 viewBox="0.00 0.00 471.00 296.00" xmlns="http://www.w3.org/2000/svg" xmlns:xlink="http://www.w3.org/1999/xlink">
<g id="graph0" class="graph" transform="scale(1 1) rotate(0) translate(4 292)">
<title>AmpDB2.h</title>
<!-- Node0 -->
<g id="node1" class="node">
<title>Node0</title>
<polygon fill="#bfbfbf" stroke="#000000" points="334,-270.5 334,-287.5 389,-287.5 389,-270.5 334,-270.5"/>
<text text-anchor="middle" x="361.5" y="-277.1" font-family="Helvetica,sans-Serif" font-size="8.00" fill="#000000">AmpDB2.h</text>
</g>
<!-- Node1 -->
<g id="node2" class="node">
<title>Node1</title>
<g id="a_node2"><a xlink:href="../../d1/dc2/gslpp__complex_8h.html" target="_top" xlink:title="gslpp_complex.h">
<polygon fill="none" stroke="#000000" points="232,-54.5 232,-71.5 309,-71.5 309,-54.5 232,-54.5"/>
<text text-anchor="middle" x="270.5" y="-61.1" font-family="Helvetica,sans-Serif" font-size="8.00" fill="#000000">gslpp_complex.h</text>
</a>
</g>
</g>
<!-- Node0&#45;&gt;Node1 -->
<g id="edge1" class="edge">
<title>Node0&#45;&gt;Node1</title>
<path fill="none" stroke="#191970" d="M358.8438,-270.2286C350.9563,-244.6166 326.4109,-167.9612 297.5,-108 292.9495,-98.5623 287.0388,-88.5229 281.9082,-80.3269"/>
<polygon fill="#191970" stroke="#191970" points="284.7182,-78.225 276.372,-71.6987 278.8267,-82.0053 284.7182,-78.225"/>
</g>
<!-- Node5 -->
<g id="node6" class="node">
<title>Node5</title>
<g id="a_node6"><a xlink:href="../../d4/d36/_order_scheme_8h.html" target="_top" xlink:title="OrderScheme.h">
<polygon fill="none" stroke="#000000" points="390,-216.5 390,-233.5 463,-233.5 463,-216.5 390,-216.5"/>
<text text-anchor="middle" x="426.5" y="-223.1" font-family="Helvetica,sans-Serif" font-size="8.00" fill="#000000">OrderScheme.h</text>
</a>
</g>
</g>
<!-- Node0&#45;&gt;Node5 -->
<g id="edge5" class="edge">
<title>Node0&#45;&gt;Node5</title>
<path fill="none" stroke="#191970" d="M371.9434,-270.324C381.6462,-262.2631 396.3153,-250.0765 407.9997,-240.3695"/>
<polygon fill="#191970" stroke="#191970" points="410.4113,-242.9163 415.8666,-233.8339 405.9381,-237.532 410.4113,-242.9163"/>
</g>
<!-- Node6 -->
<g id="node7" class="node">
<title>Node6</title>
<g id="a_node7"><a xlink:href="../../d9/d72/gslpp_8h.html" target="_top" xlink:title="gslpp.h">
<polygon fill="none" stroke="#ff0000" points="244.5,-216.5 244.5,-233.5 286.5,-233.5 286.5,-216.5 244.5,-216.5"/>
<text text-anchor="middle" x="265.5" y="-223.1" font-family="Helvetica,sans-Serif" font-size="8.00" fill="#000000">gslpp.h</text>
</a>
</g>
</g>
<!-- Node0&#45;&gt;Node6 -->
<g id="edge6" class="edge">
<title>Node0&#45;&gt;Node6</title>
<path fill="none" stroke="#191970" d="M346.0759,-270.324C330.9605,-261.8215 307.6846,-248.7288 290.0288,-238.7975"/>
<polygon fill="#191970" stroke="#191970" points="291.3175,-235.5066 280.8858,-233.6545 287.8856,-241.6077 291.3175,-235.5066"/>
</g>
<!-- Node2 -->
<g id="node3" class="node">
<title>Node2</title>
<polygon fill="none" stroke="#bfbfbf" points="119,-.5 119,-17.5 166,-17.5 166,-.5 119,-.5"/>
<text text-anchor="middle" x="142.5" y="-7.1" font-family="Helvetica,sans-Serif" font-size="8.00" fill="#000000">iostream</text>
</g>
<!-- Node1&#45;&gt;Node2 -->
<g id="edge2" class="edge">
<title>Node1&#45;&gt;Node2</title>
<path fill="none" stroke="#191970" d="M250.218,-54.4435C229.1527,-45.5566 195.9832,-31.5632 172.0145,-21.4514"/>
<polygon fill="#191970" stroke="#191970" points="173.2612,-18.1787 162.6871,-17.5164 170.5403,-24.6283 173.2612,-18.1787"/>
</g>
<!-- Node3 -->
<g id="node4" class="node">
<title>Node3</title>
<polygon fill="none" stroke="#bfbfbf" points="207.5,-.5 207.5,-17.5 287.5,-17.5 287.5,-.5 207.5,-.5"/>
<text text-anchor="middle" x="247.5" y="-7.1" font-family="Helvetica,sans-Serif" font-size="8.00" fill="#000000">gsl/gsl_complex.h</text>
</g>
<!-- Node1&#45;&gt;Node3 -->
<g id="edge3" class="edge">
<title>Node1&#45;&gt;Node3</title>
<path fill="none" stroke="#191970" d="M266.702,-54.083C263.5872,-46.77 259.0772,-36.1814 255.2107,-27.1034"/>
<polygon fill="#191970" stroke="#191970" points="258.3661,-25.5798 251.2273,-17.7511 251.9259,-28.3229 258.3661,-25.5798"/>
</g>
<!-- Node4 -->
<g id="node5" class="node">
<title>Node4</title>
<polygon fill="none" stroke="#bfbfbf" points="305.5,-.5 305.5,-17.5 407.5,-17.5 407.5,-.5 305.5,-.5"/>
<text text-anchor="middle" x="356.5" y="-7.1" font-family="Helvetica,sans-Serif" font-size="8.00" fill="#000000">gsl/gsl_complex_math.h</text>
</g>
<!-- Node1&#45;&gt;Node4 -->
<g id="edge4" class="edge">
<title>Node1&#45;&gt;Node4</title>
<path fill="none" stroke="#191970" d="M284.3174,-54.324C297.733,-45.9002 318.3241,-32.9709 334.0856,-23.0741"/>
<polygon fill="#191970" stroke="#191970" points="336.1092,-25.9364 342.7169,-17.6545 332.3868,-20.0081 336.1092,-25.9364"/>
</g>
<!-- Node6&#45;&gt;Node1 -->
<g id="edge7" class="edge">
<title>Node6&#45;&gt;Node1</title>
<path fill="none" stroke="#191970" d="M268.5341,-216.4958C275.034,-197.2162 289.2607,-148.6973 283.5,-108 282.2321,-99.0425 279.6111,-89.372 277.0525,-81.2998"/>
<polygon fill="#191970" stroke="#191970" points="280.3608,-80.1569 273.844,-71.8034 273.7291,-82.3976 280.3608,-80.1569"/>
</g>
<!-- Node7 -->
<g id="node8" class="node">
<title>Node7</title>
<g id="a_node8"><a xlink:href="../../da/d8e/gslpp__vector__double_8h.html" target="_top" xlink:title="gslpp_vector_double.h">
<polygon fill="none" stroke="#ff0000" points="160,-108.5 160,-125.5 257,-125.5 257,-108.5 160,-108.5"/>
<text text-anchor="middle" x="208.5" y="-115.1" font-family="Helvetica,sans-Serif" font-size="8.00" fill="#000000">gslpp_vector_double.h</text>
</a>
</g>
</g>
<!-- Node6&#45;&gt;Node7 -->
<g id="edge8" class="edge">
<title>Node6&#45;&gt;Node7</title>
<path fill="none" stroke="#191970" d="M264.0633,-216.4183C261.7156,-203.8781 256.306,-180.0747 246.5,-162 240.7949,-151.4842 232.3673,-141.181 224.8974,-133.0926"/>
<polygon fill="#191970" stroke="#191970" points="227.3432,-130.5868 217.883,-125.8166 222.3037,-135.4451 227.3432,-130.5868"/>
</g>
<!-- Node10 -->
<g id="node9" class="node">
<title>Node10</title>
<g id="a_node9"><a xlink:href="../../da/dad/gslpp__vector__complex_8h.html" target="_top" xlink:title="gslpp_vector_complex.h">
<polygon fill="none" stroke="#ff0000" points="0,-108.5 0,-125.5 103,-125.5 103,-108.5 0,-108.5"/>
<text text-anchor="middle" x="51.5" y="-115.1" font-family="Helvetica,sans-Serif" font-size="8.00" fill="#000000">gslpp_vector_complex.h</text>
</a>
</g>
</g>
<!-- Node6&#45;&gt;Node10 -->
<g id="edge11" class="edge">
<title>Node6&#45;&gt;Node10</title>
<path fill="none" stroke="#191970" d="M244.448,-220.4209C217.0674,-213.9305 168.2768,-200.5138 130.5,-180 106.8266,-167.1447 83.1282,-147.0431 67.9531,-133.0142"/>
<polygon fill="#191970" stroke="#191970" points="70.1265,-130.2526 60.4536,-125.9298 65.3195,-135.3412 70.1265,-130.2526"/>
</g>
<!-- Node12 -->
<g id="node10" class="node">
<title>Node12</title>
<g id="a_node10"><a xlink:href="../../d0/ddb/gslpp__matrix__double_8h.html" target="_top" xlink:title="gslpp_matrix_double.h">
<polygon fill="none" stroke="#ff0000" points="140,-162.5 140,-179.5 237,-179.5 237,-162.5 140,-162.5"/>
<text text-anchor="middle" x="188.5" y="-169.1" font-family="Helvetica,sans-Serif" font-size="8.00" fill="#000000">gslpp_matrix_double.h</text>
</a>
</g>
</g>
<!-- Node6&#45;&gt;Node12 -->
<g id="edge14" class="edge">
<title>Node6&#45;&gt;Node12</title>
<path fill="none" stroke="#191970" d="M253.1286,-216.324C241.3415,-208.0577 223.3677,-195.4527 209.3645,-185.6322"/>
<polygon fill="#191970" stroke="#191970" points="211.0376,-182.5307 200.8407,-179.6545 207.0184,-188.2619 211.0376,-182.5307"/>
</g>
<!-- Node7&#45;&gt;Node1 -->
<g id="edge10" class="edge">
<title>Node7&#45;&gt;Node1</title>
<path fill="none" stroke="#191970" d="M218.4614,-108.324C227.6266,-100.3414 241.4372,-88.3128 252.5282,-78.6529"/>
<polygon fill="#191970" stroke="#191970" points="255.1153,-81.041 260.3574,-71.8339 250.5178,-75.7624 255.1153,-81.041"/>
</g>
<!-- Node7&#45;&gt;Node2 -->
<g id="edge9" class="edge">
<title>Node7&#45;&gt;Node2</title>
<path fill="none" stroke="#191970" d="M203.0989,-108.1619C192.1673,-90.2738 167.2525,-49.5041 153.0072,-26.1936"/>
<polygon fill="#191970" stroke="#191970" points="155.9923,-24.3661 147.7912,-17.6584 150.0193,-28.0163 155.9923,-24.3661"/>
</g>
<!-- Node10&#45;&gt;Node1 -->
<g id="edge13" class="edge">
<title>Node10&#45;&gt;Node1</title>
<path fill="none" stroke="#191970" d="M86.2012,-108.4435C124.0848,-99.1024 184.849,-84.1194 226.1624,-73.9326"/>
<polygon fill="#191970" stroke="#191970" points="227.0899,-77.3088 235.9612,-71.5164 225.414,-70.5123 227.0899,-77.3088"/>
</g>
<!-- Node10&#45;&gt;Node2 -->
<g id="edge12" class="edge">
<title>Node10&#45;&gt;Node2</title>
<path fill="none" stroke="#191970" d="M58.9469,-108.1619C74.1533,-90.1148 108.9838,-48.7775 128.5331,-25.5762"/>
<polygon fill="#191970" stroke="#191970" points="131.4375,-27.5609 135.2045,-17.6584 126.0844,-23.0504 131.4375,-27.5609"/>
</g>
<!-- Node12&#45;&gt;Node1 -->
<g id="edge16" class="edge">
<title>Node12&#45;&gt;Node1</title>
<path fill="none" stroke="#191970" d="M216.8447,-162.3624C234.2878,-155.4658 255.3703,-143.9324 266.5,-126 274.7175,-112.7597 275.0407,-94.7923 273.7038,-81.4334"/>
<polygon fill="#191970" stroke="#191970" points="277.1669,-80.9256 272.3272,-71.5007 270.2332,-81.8866 277.1669,-80.9256"/>
</g>
<!-- Node12&#45;&gt;Node2 -->
<g id="edge15" class="edge">
<title>Node12&#45;&gt;Node2</title>
<path fill="none" stroke="#191970" d="M178.0244,-162.2125C168.9613,-153.9155 156.4105,-140.5958 150.5,-126 137.2998,-93.4027 138.2709,-51.5274 140.299,-27.7355"/>
<polygon fill="#191970" stroke="#191970" points="143.7971,-27.9301 141.3221,-17.6284 136.8327,-27.225 143.7971,-27.9301"/>
</g>
<!-- Node12&#45;&gt;Node7 -->
<g id="edge17" class="edge">
<title>Node12&#45;&gt;Node7</title>
<path fill="none" stroke="#191970" d="M191.8026,-162.083C194.482,-154.8486 198.3486,-144.4087 201.6864,-135.3968"/>
<polygon fill="#191970" stroke="#191970" points="205.0678,-136.3442 205.2589,-125.7511 198.5035,-133.9129 205.0678,-136.3442"/>
</g>
<!-- Node12&#45;&gt;Node10 -->
<g id="edge18" class="edge">
<title>Node12&#45;&gt;Node10</title>
<path fill="none" stroke="#191970" d="M166.7919,-162.4435C144.1452,-153.5171 108.4279,-139.4387 82.7482,-129.3168"/>
<polygon fill="#191970" stroke="#191970" points="83.6934,-125.9273 73.1065,-125.5164 81.1264,-132.4397 83.6934,-125.9273"/>
</g>
</g>
</svg>
