<?xml version="1.0" encoding="UTF-8" standalone="no"?>
<!DOCTYPE svg PUBLIC "-//W3C//DTD SVG 1.1//EN"
 "http://www.w3.org/Graphics/SVG/1.1/DTD/svg11.dtd">
<!-- Generated by graphviz version 2.40.1 (20161225.0304)
 -->
<!-- Title: MPlnuObservables.cpp Pages: 1 -->
<svg width="459pt" height="134pt"
 viewBox="0.00 0.00 458.50 134.00" xmlns="http://www.w3.org/2000/svg" xmlns:xlink="http://www.w3.org/1999/xlink">
<g id="graph0" class="graph" transform="scale(1 1) rotate(0) translate(4 130)">
<title>MPlnuObservables.cpp</title>
<!-- Node0 -->
<g id="node1" class="node">
<title>Node0</title>
<polygon fill="#bfbfbf" stroke="#000000" points="145,-108.5 145,-125.5 244,-125.5 244,-108.5 145,-108.5"/>
<text text-anchor="middle" x="194.5" y="-115.1" font-family="Helvetica,sans-Serif" font-size="8.00" fill="#000000">MPlnuObservables.cpp</text>
</g>
<!-- Node1 -->
<g id="node2" class="node">
<title>Node1</title>
<g id="a_node2"><a xlink:href="../../da/d20/_m_plnu_observables_8h.html" target="_top" xlink:title="MPlnuObservables.h">
<polygon fill="none" stroke="#000000" points="47,-54.5 47,-71.5 138,-71.5 138,-54.5 47,-54.5"/>
<text text-anchor="middle" x="92.5" y="-61.1" font-family="Helvetica,sans-Serif" font-size="8.00" fill="#000000">MPlnuObservables.h</text>
</a>
</g>
</g>
<!-- Node0&#45;&gt;Node1 -->
<g id="edge1" class="edge">
<title>Node0&#45;&gt;Node1</title>
<path fill="none" stroke="#191970" d="M178.1119,-108.324C161.8287,-99.7034 136.6325,-86.3643 117.7837,-76.3855"/>
<polygon fill="#191970" stroke="#191970" points="119.3229,-73.2402 108.8474,-71.6545 116.0477,-79.4267 119.3229,-73.2402"/>
</g>
<!-- Node24 -->
<g id="node5" class="node">
<title>Node24</title>
<g id="a_node5"><a xlink:href="../../df/da9/_m_plnu_8h.html" target="_top" xlink:title="MPlnu.h">
<polygon fill="none" stroke="#ff0000" points="252.5,-54.5 252.5,-71.5 298.5,-71.5 298.5,-54.5 252.5,-54.5"/>
<text text-anchor="middle" x="275.5" y="-61.1" font-family="Helvetica,sans-Serif" font-size="8.00" fill="#000000">MPlnu.h</text>
</a>
</g>
</g>
<!-- Node0&#45;&gt;Node24 -->
<g id="edge4" class="edge">
<title>Node0&#45;&gt;Node24</title>
<path fill="none" stroke="#191970" d="M207.5141,-108.324C220.0316,-99.979 239.1817,-87.2122 253.9714,-77.3524"/>
<polygon fill="#191970" stroke="#191970" points="256.1392,-80.1137 262.5182,-71.6545 252.2563,-74.2894 256.1392,-80.1137"/>
</g>
<!-- Node31 -->
<g id="node10" class="node">
<title>Node31</title>
<g id="a_node10"><a xlink:href="../../d6/d0a/_standard_model_8h.html" target="_top" xlink:title="StandardModel.h">
<polygon fill="none" stroke="#ff0000" points="156,-54.5 156,-71.5 233,-71.5 233,-54.5 156,-54.5"/>
<text text-anchor="middle" x="194.5" y="-61.1" font-family="Helvetica,sans-Serif" font-size="8.00" fill="#000000">StandardModel.h</text>
</a>
</g>
</g>
<!-- Node0&#45;&gt;Node31 -->
<g id="edge9" class="edge">
<title>Node0&#45;&gt;Node31</title>
<path fill="none" stroke="#191970" d="M194.5,-108.083C194.5,-101.0059 194.5,-90.8611 194.5,-81.9865"/>
<polygon fill="#191970" stroke="#191970" points="198.0001,-81.751 194.5,-71.7511 191.0001,-81.7511 198.0001,-81.751"/>
</g>
<!-- Node2 -->
<g id="node3" class="node">
<title>Node2</title>
<g id="a_node3"><a xlink:href="../../d4/d68/_q_c_d_8h.html" target="_top" xlink:title="QCD.h">
<polygon fill="none" stroke="#ff0000" points="91,-.5 91,-17.5 132,-17.5 132,-.5 91,-.5"/>
<text text-anchor="middle" x="111.5" y="-7.1" font-family="Helvetica,sans-Serif" font-size="8.00" fill="#000000">QCD.h</text>
</a>
</g>
</g>
<!-- Node1&#45;&gt;Node2 -->
<g id="edge2" class="edge">
<title>Node1&#45;&gt;Node2</title>
<path fill="none" stroke="#191970" d="M95.6375,-54.083C98.1829,-46.8486 101.8562,-36.4087 105.0271,-27.3968"/>
<polygon fill="#191970" stroke="#191970" points="108.4034,-28.3459 108.4209,-17.7511 101.8002,-26.0225 108.4034,-28.3459"/>
</g>
<!-- Node23 -->
<g id="node4" class="node">
<title>Node23</title>
<g id="a_node4"><a xlink:href="../../dd/dcd/_th_observable_8h.html" target="_top" xlink:title="ThObservable.h">
<polygon fill="none" stroke="#ff0000" points="0,-.5 0,-17.5 73,-17.5 73,-.5 0,-.5"/>
<text text-anchor="middle" x="36.5" y="-7.1" font-family="Helvetica,sans-Serif" font-size="8.00" fill="#000000">ThObservable.h</text>
</a>
</g>
</g>
<!-- Node1&#45;&gt;Node23 -->
<g id="edge3" class="edge">
<title>Node1&#45;&gt;Node23</title>
<path fill="none" stroke="#191970" d="M83.5026,-54.324C75.3056,-46.4196 62.9945,-34.5482 53.028,-24.9377"/>
<polygon fill="#191970" stroke="#191970" points="55.289,-22.2558 45.6611,-17.8339 50.4301,-27.2947 55.289,-22.2558"/>
</g>
<!-- Node25 -->
<g id="node6" class="node">
<title>Node25</title>
<polygon fill="none" stroke="#bfbfbf" points="150.5,-.5 150.5,-17.5 238.5,-17.5 238.5,-.5 150.5,-.5"/>
<text text-anchor="middle" x="194.5" y="-7.1" font-family="Helvetica,sans-Serif" font-size="8.00" fill="#000000">gsl/gsl_integration.h</text>
</g>
<!-- Node24&#45;&gt;Node25 -->
<g id="edge5" class="edge">
<title>Node24&#45;&gt;Node25</title>
<path fill="none" stroke="#191970" d="M262.4859,-54.324C249.9684,-45.979 230.8183,-33.2122 216.0286,-23.3524"/>
<polygon fill="#191970" stroke="#191970" points="217.7437,-20.2894 207.4818,-17.6545 213.8608,-26.1137 217.7437,-20.2894"/>
</g>
<!-- Node26 -->
<g id="node7" class="node">
<title>Node26</title>
<polygon fill="none" stroke="#bfbfbf" points="257,-.5 257,-17.5 294,-17.5 294,-.5 257,-.5"/>
<text text-anchor="middle" x="275.5" y="-7.1" font-family="Helvetica,sans-Serif" font-size="8.00" fill="#000000">TF1.h</text>
</g>
<!-- Node24&#45;&gt;Node26 -->
<g id="edge6" class="edge">
<title>Node24&#45;&gt;Node26</title>
<path fill="none" stroke="#191970" d="M275.5,-54.083C275.5,-47.0059 275.5,-36.8611 275.5,-27.9865"/>
<polygon fill="#191970" stroke="#191970" points="279.0001,-27.751 275.5,-17.7511 272.0001,-27.7511 279.0001,-27.751"/>
</g>
<!-- Node27 -->
<g id="node8" class="node">
<title>Node27</title>
<polygon fill="none" stroke="#bfbfbf" points="312.5,-.5 312.5,-17.5 362.5,-17.5 362.5,-.5 312.5,-.5"/>
<text text-anchor="middle" x="337.5" y="-7.1" font-family="Helvetica,sans-Serif" font-size="8.00" fill="#000000">TGraph.h</text>
</g>
<!-- Node24&#45;&gt;Node27 -->
<g id="edge7" class="edge">
<title>Node24&#45;&gt;Node27</title>
<path fill="none" stroke="#191970" d="M285.4614,-54.324C294.6266,-46.3414 308.4372,-34.3128 319.5282,-24.6529"/>
<polygon fill="#191970" stroke="#191970" points="322.1153,-27.041 327.3574,-17.8339 317.5178,-21.7624 322.1153,-27.041"/>
</g>
<!-- Node28 -->
<g id="node9" class="node">
<title>Node28</title>
<polygon fill="none" stroke="#bfbfbf" points="380.5,-.5 380.5,-17.5 450.5,-17.5 450.5,-.5 380.5,-.5"/>
<text text-anchor="middle" x="415.5" y="-7.1" font-family="Helvetica,sans-Serif" font-size="8.00" fill="#000000">TFitResultPtr.h</text>
</g>
<!-- Node24&#45;&gt;Node28 -->
<g id="edge8" class="edge">
<title>Node24&#45;&gt;Node28</title>
<path fill="none" stroke="#191970" d="M297.6834,-54.4435C320.9285,-45.4776 357.6488,-31.314 383.9152,-21.1827"/>
<polygon fill="#191970" stroke="#191970" points="385.3499,-24.3807 393.4204,-17.5164 382.8308,-17.8497 385.3499,-24.3807"/>
</g>
<!-- Node31&#45;&gt;Node2 -->
<g id="edge10" class="edge">
<title>Node31&#45;&gt;Node2</title>
<path fill="none" stroke="#191970" d="M181.1646,-54.324C168.338,-45.979 148.715,-33.2122 133.5602,-23.3524"/>
<polygon fill="#191970" stroke="#191970" points="135.0932,-20.1742 124.8023,-17.6545 131.2757,-26.0417 135.0932,-20.1742"/>
</g>
<!-- Node31&#45;&gt;Node25 -->
<g id="edge11" class="edge">
<title>Node31&#45;&gt;Node25</title>
<path fill="none" stroke="#191970" d="M194.5,-54.083C194.5,-47.0059 194.5,-36.8611 194.5,-27.9865"/>
<polygon fill="#191970" stroke="#191970" points="198.0001,-27.751 194.5,-17.7511 191.0001,-27.7511 198.0001,-27.751"/>
</g>
</g>
</svg>
