<?xml version="1.0" encoding="UTF-8" standalone="no"?>
<!DOCTYPE svg PUBLIC "-//W3C//DTD SVG 1.1//EN"
 "http://www.w3.org/Graphics/SVG/1.1/DTD/svg11.dtd">
<!-- Generated by graphviz version 2.40.1 (20161225.0304)
 -->
<!-- Title: LHPC::SLHA::SparseSinglyIndexedBlock&lt; ValueClass &gt; Pages: 1 -->
<svg width="1386pt" height="99pt"
 viewBox="0.00 0.00 1386.00 99.07" xmlns="http://www.w3.org/2000/svg" xmlns:xlink="http://www.w3.org/1999/xlink">
<g id="graph0" class="graph" transform="scale(1 1) rotate(0) translate(4 95.0674)">
<title>LHPC::SLHA::SparseSinglyIndexedBlock&lt; ValueClass &gt;</title>
<!-- Node0 -->
<g id="node1" class="node">
<title>Node0</title>
<polygon fill="#bfbfbf" stroke="#000000" points="1037,-30 1037,-56 1156,-56 1156,-30 1037,-30"/>
<text text-anchor="start" x="1045" y="-45.6" font-family="Helvetica,sans-Serif" font-size="8.00" fill="#000000">LHPC::SLHA::SparseSingly</text>
<text text-anchor="middle" x="1096.5" y="-36.6" font-family="Helvetica,sans-Serif" font-size="8.00" fill="#000000">IndexedBlock&lt; ValueClass &gt;</text>
</g>
<!-- Node9 -->
<g id="node8" class="node">
<title>Node9</title>
<g id="a_node8"><a xlink:href="../../d0/d25/class_l_h_p_c_1_1_s_l_h_a_1_1_sparse_singly_indexed_block.html" target="_top" xlink:title="LHPC::SLHA::SparseSingly\lIndexedBlock\&lt; double \&gt;">
<polygon fill="none" stroke="#000000" points="1263,-55 1263,-81 1378,-81 1378,-55 1263,-55"/>
<text text-anchor="start" x="1271" y="-70.6" font-family="Helvetica,sans-Serif" font-size="8.00" fill="#000000">LHPC::SLHA::SparseSingly</text>
<text text-anchor="middle" x="1320.5" y="-61.6" font-family="Helvetica,sans-Serif" font-size="8.00" fill="#000000">IndexedBlock&lt; double &gt;</text>
</a>
</g>
</g>
<!-- Node0&#45;&gt;Node9 -->
<g id="edge10" class="edge">
<title>Node0&#45;&gt;Node9</title>
<path fill="none" stroke="#ffa500" stroke-dasharray="5,2" d="M1166.5286,-50.8157C1197.501,-54.2724 1233.4798,-58.2879 1262.8662,-61.5677"/>
<polygon fill="#ffa500" stroke="#ffa500" points="1166.5602,-47.2976 1156.2336,-49.6667 1165.7837,-54.2544 1166.5602,-47.2976"/>
<text text-anchor="middle" x="1209.5" y="-61.6" font-family="Helvetica,sans-Serif" font-size="8.00" fill="#000000"> &lt; double &gt;</text>
</g>
<!-- Node10 -->
<g id="node9" class="node">
<title>Node10</title>
<g id="a_node9"><a xlink:href="../../d0/d25/class_l_h_p_c_1_1_s_l_h_a_1_1_sparse_singly_indexed_block.html" target="_top" xlink:title="LHPC::SLHA::SparseSingly\lIndexedBlock\&lt; std::pair\l\&lt; double, double \&gt; \&gt;">
<polygon fill="none" stroke="#000000" points="1263,-.5 1263,-35.5 1378,-35.5 1378,-.5 1263,-.5"/>
<text text-anchor="start" x="1271" y="-25.1" font-family="Helvetica,sans-Serif" font-size="8.00" fill="#000000">LHPC::SLHA::SparseSingly</text>
<text text-anchor="start" x="1271" y="-16.1" font-family="Helvetica,sans-Serif" font-size="8.00" fill="#000000">IndexedBlock&lt; std::pair</text>
<text text-anchor="middle" x="1320.5" y="-7.1" font-family="Helvetica,sans-Serif" font-size="8.00" fill="#000000">&lt; double, double &gt; &gt;</text>
</a>
</g>
</g>
<!-- Node0&#45;&gt;Node10 -->
<g id="edge11" class="edge">
<title>Node0&#45;&gt;Node10</title>
<path fill="none" stroke="#ffa500" stroke-dasharray="5,2" d="M1165.9545,-30.0939C1168.6681,-29.7038 1171.3574,-29.337 1174,-29 1203.2224,-25.2737 1235.8971,-22.6707 1262.9605,-20.9359"/>
<polygon fill="#ffa500" stroke="#ffa500" points="1165.4236,-26.6343 1156.0628,-31.5968 1166.4751,-33.5548 1165.4236,-26.6343"/>
<text text-anchor="start" x="1174" y="-40.6" font-family="Helvetica,sans-Serif" font-size="8.00" fill="#000000"> &lt; std::pair&lt; double,</text>
<text text-anchor="middle" x="1209.5" y="-31.6" font-family="Helvetica,sans-Serif" font-size="8.00" fill="#000000"> double &gt; &gt;</text>
</g>
<!-- Node1 -->
<g id="node2" class="node">
<title>Node1</title>
<g id="a_node2"><a xlink:href="../../de/d5e/class_l_h_p_c_1_1_s_l_h_a_1_1_indexed_block_template.html" target="_top" xlink:title="LHPC::SLHA::IndexedBlock\lTemplate\&lt; ValueClass,\l InterpreterClass::SparseSingly\lIndexed\&lt; ValueClass \&gt; \&gt;">
<polygon fill="none" stroke="#000000" points="873,-21 873,-65 1000,-65 1000,-21 873,-21"/>
<text text-anchor="start" x="881" y="-54.6" font-family="Helvetica,sans-Serif" font-size="8.00" fill="#000000">LHPC::SLHA::IndexedBlock</text>
<text text-anchor="start" x="881" y="-45.6" font-family="Helvetica,sans-Serif" font-size="8.00" fill="#000000">Template&lt; ValueClass,</text>
<text text-anchor="start" x="881" y="-36.6" font-family="Helvetica,sans-Serif" font-size="8.00" fill="#000000"> InterpreterClass::SparseSingly</text>
<text text-anchor="middle" x="936.5" y="-27.6" font-family="Helvetica,sans-Serif" font-size="8.00" fill="#000000">Indexed&lt; ValueClass &gt; &gt;</text>
</a>
</g>
</g>
<!-- Node1&#45;&gt;Node0 -->
<g id="edge1" class="edge">
<title>Node1&#45;&gt;Node0</title>
<path fill="none" stroke="#191970" d="M1010.2255,-43C1019.1696,-43 1028.219,-43 1036.9228,-43"/>
<polygon fill="#191970" stroke="#191970" points="1010.196,-39.5001 1000.196,-43 1010.1959,-46.5001 1010.196,-39.5001"/>
</g>
<!-- Node2 -->
<g id="node3" class="node">
<title>Node2</title>
<g id="a_node3"><a xlink:href="../../d6/daf/class_l_h_p_c_1_1_s_l_h_a_1_1_slha_block.html" target="_top" xlink:title="LHPC::SLHA::SlhaBlock\l\&lt; ValueClass, InterpreterClass\l::SparseSinglyIndexed\&lt; ValueClass \&gt; \&gt;">
<polygon fill="none" stroke="#000000" points="425,-49.5 425,-84.5 583,-84.5 583,-49.5 425,-49.5"/>
<text text-anchor="start" x="433" y="-74.1" font-family="Helvetica,sans-Serif" font-size="8.00" fill="#000000">LHPC::SLHA::SlhaBlock</text>
<text text-anchor="start" x="433" y="-65.1" font-family="Helvetica,sans-Serif" font-size="8.00" fill="#000000">&lt; ValueClass, InterpreterClass</text>
<text text-anchor="middle" x="504" y="-56.1" font-family="Helvetica,sans-Serif" font-size="8.00" fill="#000000">::SparseSinglyIndexed&lt; ValueClass &gt; &gt;</text>
</a>
</g>
</g>
<!-- Node2&#45;&gt;Node1 -->
<g id="edge2" class="edge">
<title>Node2&#45;&gt;Node1</title>
<path fill="none" stroke="#191970" d="M593.4471,-64.8366C664.4381,-62.7193 766.1691,-58.7951 855,-52 860.8195,-51.5548 866.8654,-51.0214 872.9159,-50.4394"/>
<polygon fill="#191970" stroke="#191970" points="593.0947,-61.3453 583.2012,-65.136 593.2992,-68.3423 593.0947,-61.3453"/>
</g>
<!-- Node3 -->
<g id="node4" class="node">
<title>Node3</title>
<g id="a_node4"><a xlink:href="../../d2/d20/class_l_h_p_c_1_1_s_l_h_a_1_1_base_slha_block.html" target="_top" xlink:title="LHPC::SLHA::BaseSlhaBlock">
<polygon fill="none" stroke="#ff0000" points="0,-37.5 0,-54.5 121,-54.5 121,-37.5 0,-37.5"/>
<text text-anchor="middle" x="60.5" y="-44.1" font-family="Helvetica,sans-Serif" font-size="8.00" fill="#000000">LHPC::SLHA::BaseSlhaBlock</text>
</a>
</g>
</g>
<!-- Node3&#45;&gt;Node2 -->
<g id="edge3" class="edge">
<title>Node3&#45;&gt;Node2</title>
<path fill="none" stroke="#191970" d="M102.5262,-56.9559C119.6471,-61.1462 139.685,-65.7049 158,-69 267.1715,-88.6414 296.5941,-96.7112 407,-86 412.8072,-85.4366 418.7829,-84.6877 424.7799,-83.8125"/>
<polygon fill="#191970" stroke="#191970" points="103.3667,-53.5584 92.8178,-54.5436 101.6787,-60.3518 103.3667,-53.5584"/>
</g>
<!-- Node6 -->
<g id="node5" class="node">
<title>Node6</title>
<g id="a_node5"><a xlink:href="../../d6/daf/class_l_h_p_c_1_1_s_l_h_a_1_1_slha_block.html" target="_top" xlink:title="LHPC::SLHA::SlhaBlock\l\&lt; ValueClass, BlockParser \&gt;">
<polygon fill="none" stroke="#000000" points="158,-33 158,-59 276,-59 276,-33 158,-33"/>
<text text-anchor="start" x="166" y="-48.6" font-family="Helvetica,sans-Serif" font-size="8.00" fill="#000000">LHPC::SLHA::SlhaBlock</text>
<text text-anchor="middle" x="217" y="-39.6" font-family="Helvetica,sans-Serif" font-size="8.00" fill="#000000">&lt; ValueClass, BlockParser &gt;</text>
</a>
</g>
</g>
<!-- Node3&#45;&gt;Node6 -->
<g id="edge5" class="edge">
<title>Node3&#45;&gt;Node6</title>
<path fill="none" stroke="#191970" d="M131.0648,-46C140.0471,-46 149.1657,-46 157.9412,-46"/>
<polygon fill="#191970" stroke="#191970" points="131.007,-42.5001 121.007,-46 131.007,-49.5001 131.007,-42.5001"/>
</g>
<!-- Node8 -->
<g id="node7" class="node">
<title>Node8</title>
<g id="a_node7"><a xlink:href="../../d6/daf/class_l_h_p_c_1_1_s_l_h_a_1_1_slha_block.html" target="_top" xlink:title="LHPC::SLHA::SlhaBlock\l\&lt; ValueClass, IndexedParser \&gt;">
<polygon fill="none" stroke="#000000" points="440.5,-4 440.5,-30 567.5,-30 567.5,-4 440.5,-4"/>
<text text-anchor="start" x="448.5" y="-19.6" font-family="Helvetica,sans-Serif" font-size="8.00" fill="#000000">LHPC::SLHA::SlhaBlock</text>
<text text-anchor="middle" x="504" y="-10.6" font-family="Helvetica,sans-Serif" font-size="8.00" fill="#000000">&lt; ValueClass, IndexedParser &gt;</text>
</a>
</g>
</g>
<!-- Node3&#45;&gt;Node8 -->
<g id="edge8" class="edge">
<title>Node3&#45;&gt;Node8</title>
<path fill="none" stroke="#191970" d="M99.5958,-34.7542C117.2734,-30.1952 138.5251,-25.4372 158,-23 255.9151,-10.7461 370.617,-11.7465 440.2579,-14.0376"/>
<polygon fill="#191970" stroke="#191970" points="98.4084,-31.4481 89.641,-37.3965 100.2043,-38.2139 98.4084,-31.4481"/>
</g>
<!-- Node6&#45;&gt;Node2 -->
<g id="edge4" class="edge">
<title>Node6&#45;&gt;Node2</title>
<path fill="none" stroke="#ffa500" stroke-dasharray="5,2" d="M286.4581,-50.5187C322.441,-52.9189 367.0901,-55.989 407,-59 412.8131,-59.4386 418.8211,-59.9042 424.8658,-60.3817"/>
<polygon fill="#ffa500" stroke="#ffa500" points="286.2786,-46.9992 276.0684,-49.8283 285.8143,-53.9838 286.2786,-46.9992"/>
<text text-anchor="start" x="300" y="-79.6" font-family="Helvetica,sans-Serif" font-size="8.00" fill="#000000"> &lt; ValueClass, Interpreter</text>
<text text-anchor="start" x="300" y="-70.6" font-family="Helvetica,sans-Serif" font-size="8.00" fill="#000000">Class::SparseSinglyIndexed</text>
<text text-anchor="middle" x="350.5" y="-61.6" font-family="Helvetica,sans-Serif" font-size="8.00" fill="#000000">&lt; ValueClass &gt; &gt;</text>
</g>
<!-- Node6&#45;&gt;Node8 -->
<g id="edge9" class="edge">
<title>Node6&#45;&gt;Node8</title>
<path fill="none" stroke="#ffa500" stroke-dasharray="5,2" d="M286.3359,-38.7837C288.9231,-38.5184 291.4846,-38.2564 294,-38 343.0269,-33.0018 398.5047,-27.4589 440.1217,-23.3233"/>
<polygon fill="#ffa500" stroke="#ffa500" points="285.8614,-35.3139 276.272,-39.8186 286.5776,-42.2772 285.8614,-35.3139"/>
<text text-anchor="middle" x="350.5" y="-40.6" font-family="Helvetica,sans-Serif" font-size="8.00" fill="#000000"> &lt; ValueClass, IndexedParser &gt;</text>
</g>
<!-- Node7 -->
<g id="node6" class="node">
<title>Node7</title>
<g id="a_node6"><a xlink:href="../../de/d5e/class_l_h_p_c_1_1_s_l_h_a_1_1_indexed_block_template.html" target="_top" xlink:title="LHPC::SLHA::IndexedBlock\lTemplate\&lt; ValueClass,\l IndexedParser \&gt;">
<polygon fill="none" stroke="#000000" points="620,-2.5 620,-37.5 736,-37.5 736,-2.5 620,-2.5"/>
<text text-anchor="start" x="628" y="-27.1" font-family="Helvetica,sans-Serif" font-size="8.00" fill="#000000">LHPC::SLHA::IndexedBlock</text>
<text text-anchor="start" x="628" y="-18.1" font-family="Helvetica,sans-Serif" font-size="8.00" fill="#000000">Template&lt; ValueClass,</text>
<text text-anchor="middle" x="678" y="-9.1" font-family="Helvetica,sans-Serif" font-size="8.00" fill="#000000"> IndexedParser &gt;</text>
</a>
</g>
</g>
<!-- Node7&#45;&gt;Node1 -->
<g id="edge6" class="edge">
<title>Node7&#45;&gt;Node1</title>
<path fill="none" stroke="#ffa500" stroke-dasharray="5,2" d="M746.005,-18.9225C779.0184,-19.1624 819.1938,-20.5806 855,-25 860.7525,-25.71 866.697,-26.6376 872.6332,-27.6974"/>
<polygon fill="#ffa500" stroke="#ffa500" points="746.0156,-15.4226 736.0021,-18.8838 745.9885,-22.4225 746.0156,-15.4226"/>
<text text-anchor="start" x="754" y="-45.6" font-family="Helvetica,sans-Serif" font-size="8.00" fill="#000000"> &lt; ValueClass, Interpreter</text>
<text text-anchor="start" x="754" y="-36.6" font-family="Helvetica,sans-Serif" font-size="8.00" fill="#000000">Class::SparseSinglyIndexed</text>
<text text-anchor="middle" x="804.5" y="-27.6" font-family="Helvetica,sans-Serif" font-size="8.00" fill="#000000">&lt; ValueClass &gt; &gt;</text>
</g>
<!-- Node8&#45;&gt;Node7 -->
<g id="edge7" class="edge">
<title>Node8&#45;&gt;Node7</title>
<path fill="none" stroke="#191970" d="M577.9309,-18.2747C591.9822,-18.5169 606.499,-18.7672 619.9698,-18.9995"/>
<polygon fill="#191970" stroke="#191970" points="577.862,-14.7731 567.8032,-18.1001 577.7413,-21.772 577.862,-14.7731"/>
</g>
</g>
</svg>
