<?xml version="1.0" encoding="UTF-8" standalone="no"?>
<!DOCTYPE svg PUBLIC "-//W3C//DTD SVG 1.1//EN"
 "http://www.w3.org/Graphics/SVG/1.1/DTD/svg11.dtd">
<!-- Generated by graphviz version 2.38.0 (20140413.2041)
 -->
<!-- Title: ClausenFunctions.cpp Pages: 1 -->
<svg width="353pt" height="134pt"
 viewBox="0.00 0.00 353.00 134.00" xmlns="http://www.w3.org/2000/svg" xmlns:xlink="http://www.w3.org/1999/xlink">
<g id="graph0" class="graph" transform="scale(1 1) rotate(0) translate(4 130)">
<title>ClausenFunctions.cpp</title>
<!-- Node1 -->
<g id="node1" class="node"><title>Node1</title>
<polygon fill="#bfbfbf" stroke="black" points="97.5,-108.5 97.5,-125.5 193.5,-125.5 193.5,-108.5 97.5,-108.5"/>
<text text-anchor="middle" x="145.5" y="-115.1" font-family="Helvetica,sans-Serif" font-size="8.00">ClausenFunctions.cpp</text>
</g>
<!-- Node2 -->
<g id="node2" class="node"><title>Node2</title>
<polygon fill="none" stroke="#bfbfbf" points="0,-54.5 0,-71.5 39,-71.5 39,-54.5 0,-54.5"/>
<text text-anchor="middle" x="19.5" y="-61.1" font-family="Helvetica,sans-Serif" font-size="8.00">cstdlib</text>
</g>
<!-- Node1&#45;&gt;Node2 -->
<g id="edge1" class="edge"><title>Node1&#45;&gt;Node2</title>
<path fill="none" stroke="midnightblue" d="M127.179,-108.439C106.183,-99.7738 71.5463,-85.4794 47.2395,-75.448"/>
<polygon fill="midnightblue" stroke="midnightblue" points="48.4226,-72.15 37.8436,-71.5704 45.7521,-78.6206 48.4226,-72.15"/>
</g>
<!-- Node3 -->
<g id="node3" class="node"><title>Node3</title>
<polygon fill="none" stroke="#bfbfbf" points="57,-54.5 57,-71.5 108,-71.5 108,-54.5 57,-54.5"/>
<text text-anchor="middle" x="82.5" y="-61.1" font-family="Helvetica,sans-Serif" font-size="8.00">stdexcept</text>
</g>
<!-- Node1&#45;&gt;Node3 -->
<g id="edge2" class="edge"><title>Node1&#45;&gt;Node3</title>
<path fill="none" stroke="midnightblue" d="M136.204,-108.327C126.619,-100.416 111.454,-87.8986 99.6799,-78.1802"/>
<polygon fill="midnightblue" stroke="midnightblue" points="101.774,-75.3707 91.834,-71.7043 97.3183,-80.7692 101.774,-75.3707"/>
</g>
<!-- Node4 -->
<g id="node4" class="node"><title>Node4</title>
<polygon fill="none" stroke="#bfbfbf" points="126.5,-54.5 126.5,-71.5 164.5,-71.5 164.5,-54.5 126.5,-54.5"/>
<text text-anchor="middle" x="145.5" y="-61.1" font-family="Helvetica,sans-Serif" font-size="8.00">cmath</text>
</g>
<!-- Node1&#45;&gt;Node4 -->
<g id="edge3" class="edge"><title>Node1&#45;&gt;Node4</title>
<path fill="none" stroke="midnightblue" d="M145.5,-108.327C145.5,-101.414 145.5,-90.985 145.5,-81.9789"/>
<polygon fill="midnightblue" stroke="midnightblue" points="149,-81.7042 145.5,-71.7043 142,-81.7043 149,-81.7042"/>
</g>
<!-- Node5 -->
<g id="node5" class="node"><title>Node5</title>
<polygon fill="none" stroke="#bfbfbf" points="183,-54.5 183,-71.5 240,-71.5 240,-54.5 183,-54.5"/>
<text text-anchor="middle" x="211.5" y="-61.1" font-family="Helvetica,sans-Serif" font-size="8.00">gsl/gsl_sf.h</text>
</g>
<!-- Node1&#45;&gt;Node5 -->
<g id="edge4" class="edge"><title>Node1&#45;&gt;Node5</title>
<path fill="none" stroke="midnightblue" d="M155.239,-108.327C165.377,-100.339 181.476,-87.6551 193.86,-77.8979"/>
<polygon fill="midnightblue" stroke="midnightblue" points="196.033,-80.6422 201.722,-71.7043 191.701,-75.1438 196.033,-80.6422"/>
</g>
<!-- Node6 -->
<g id="node6" class="node"><title>Node6</title>
<g id="a_node6"><a xlink:href="../../db/d48/_clausen_functions_8h.html" target="_top" xlink:title="ClausenFunctions.h">
<polygon fill="none" stroke="black" points="258,-54.5 258,-71.5 345,-71.5 345,-54.5 258,-54.5"/>
<text text-anchor="middle" x="301.5" y="-61.1" font-family="Helvetica,sans-Serif" font-size="8.00">ClausenFunctions.h</text>
</a>
</g>
</g>
<!-- Node1&#45;&gt;Node6 -->
<g id="edge5" class="edge"><title>Node1&#45;&gt;Node6</title>
<path fill="none" stroke="midnightblue" d="M168.184,-108.439C194.756,-99.5812 238.976,-84.8414 269.143,-74.7857"/>
<polygon fill="midnightblue" stroke="midnightblue" points="270.409,-78.0531 278.789,-71.5704 268.195,-71.4123 270.409,-78.0531"/>
</g>
<!-- Node7 -->
<g id="node7" class="node"><title>Node7</title>
<g id="a_node7"><a xlink:href="../../d1/d27/_bernoulli_numbers_8h.html" target="_top" xlink:title="BernoulliNumbers.h">
<polygon fill="none" stroke="black" points="258,-0.5 258,-17.5 345,-17.5 345,-0.5 258,-0.5"/>
<text text-anchor="middle" x="301.5" y="-7.1" font-family="Helvetica,sans-Serif" font-size="8.00">BernoulliNumbers.h</text>
</a>
</g>
</g>
<!-- Node6&#45;&gt;Node7 -->
<g id="edge6" class="edge"><title>Node6&#45;&gt;Node7</title>
<path fill="none" stroke="midnightblue" d="M301.5,-54.3272C301.5,-47.4145 301.5,-36.985 301.5,-27.9789"/>
<polygon fill="midnightblue" stroke="midnightblue" points="305,-27.7042 301.5,-17.7043 298,-27.7043 305,-27.7042"/>
</g>
</g>
</svg>
