<?xml version="1.0" encoding="UTF-8" standalone="no"?>
<!DOCTYPE svg PUBLIC "-//W3C//DTD SVG 1.1//EN"
 "http://www.w3.org/Graphics/SVG/1.1/DTD/svg11.dtd">
<!-- Generated by graphviz version 2.40.1 (20161225.0304)
 -->
<!-- Title: SlhaValueLineColoring.hpp Pages: 1 -->
<svg width="486pt" height="242pt"
 viewBox="0.00 0.00 485.97 242.00" xmlns="http://www.w3.org/2000/svg" xmlns:xlink="http://www.w3.org/1999/xlink">
<g id="graph0" class="graph" transform="scale(1 1) rotate(0) translate(4 238)">
<title>SlhaValueLineColoring.hpp</title>
<!-- Node4 -->
<g id="node1" class="node">
<title>Node4</title>
<polygon fill="#bfbfbf" stroke="#000000" points="151.9742,-216.5 151.9742,-233.5 264.9742,-233.5 264.9742,-216.5 151.9742,-216.5"/>
<text text-anchor="middle" x="208.4742" y="-223.1" font-family="Helvetica,sans-Serif" font-size="8.00" fill="#000000">SlhaValueLineColoring.hpp</text>
</g>
<!-- Node5 -->
<g id="node2" class="node">
<title>Node5</title>
<g id="a_node2"><a xlink:href="../../d1/d4c/_slha_value_colored_segments_8hpp.html" target="_top" xlink:title="SlhaValueColoredSegments.hpp">
<polygon fill="none" stroke="#000000" points="30.9742,-162.5 30.9742,-179.5 163.9742,-179.5 163.9742,-162.5 30.9742,-162.5"/>
<text text-anchor="middle" x="97.4742" y="-169.1" font-family="Helvetica,sans-Serif" font-size="8.00" fill="#000000">SlhaValueColoredSegments.hpp</text>
</a>
</g>
</g>
<!-- Node4&#45;&gt;Node5 -->
<g id="edge1" class="edge">
<title>Node4&#45;&gt;Node5</title>
<path fill="none" stroke="#191970" d="M181.4689,-211.8622C160.8865,-201.8492 133.1296,-188.3458 115.2641,-179.6545"/>
<polygon fill="#191970" stroke="#191970" points="180.1167,-215.0966 190.6402,-216.324 183.179,-208.8019 180.1167,-215.0966"/>
</g>
<!-- Node6 -->
<g id="node3" class="node">
<title>Node6</title>
<g id="a_node3"><a xlink:href="../../d1/d3b/_slha_value_plot_line_8hpp.html" target="_top" xlink:title="SlhaValuePlotLine.hpp">
<polygon fill="none" stroke="#000000" points="173.9742,-108.5 173.9742,-125.5 270.9742,-125.5 270.9742,-108.5 173.9742,-108.5"/>
<text text-anchor="middle" x="222.4742" y="-115.1" font-family="Helvetica,sans-Serif" font-size="8.00" fill="#000000">SlhaValuePlotLine.hpp</text>
</a>
</g>
</g>
<!-- Node4&#45;&gt;Node6 -->
<g id="edge8" class="edge">
<title>Node4&#45;&gt;Node6</title>
<path fill="none" stroke="#191970" d="M210.9393,-205.9835C214.0038,-182.3433 219.1041,-142.998 221.3519,-125.6584"/>
<polygon fill="#191970" stroke="#191970" points="207.4346,-205.7949 209.6199,-216.1619 214.3765,-206.6948 207.4346,-205.7949"/>
</g>
<!-- Node7 -->
<g id="node4" class="node">
<title>Node7</title>
<g id="a_node4"><a xlink:href="../../d5/dce/_slha_value_plotter_8hpp.html" target="_top" xlink:title="SlhaValuePlotter.hpp">
<polygon fill="none" stroke="#000000" points="6.4742,-54.5 6.4742,-71.5 98.4742,-71.5 98.4742,-54.5 6.4742,-54.5"/>
<text text-anchor="middle" x="52.4742" y="-61.1" font-family="Helvetica,sans-Serif" font-size="8.00" fill="#000000">SlhaValuePlotter.hpp</text>
</a>
</g>
</g>
<!-- Node4&#45;&gt;Node7 -->
<g id="edge13" class="edge">
<title>Node4&#45;&gt;Node7</title>
<path fill="none" stroke="#191970" d="M141.7488,-216.2915C95.2302,-208.8939 38.5602,-196.7892 21.4742,-180 -1.778,-157.1516 -5.001,-138.1178 7.4742,-108 13.9009,-92.4846 28.5602,-79.5295 39.4102,-71.5641"/>
<polygon fill="#191970" stroke="#191970" points="141.3882,-219.7772 151.8051,-217.8438 142.4562,-212.8591 141.3882,-219.7772"/>
</g>
<!-- Node11 -->
<g id="node8" class="node">
<title>Node11</title>
<g id="a_node8"><a xlink:href="../../dd/d18/_slha_value_single_color_8hpp.html" target="_top" xlink:title="SlhaValueSingleColor.hpp">
<polygon fill="none" stroke="#000000" points="236.4742,-162.5 236.4742,-179.5 346.4742,-179.5 346.4742,-162.5 236.4742,-162.5"/>
<text text-anchor="middle" x="291.4742" y="-169.1" font-family="Helvetica,sans-Serif" font-size="8.00" fill="#000000">SlhaValueSingleColor.hpp</text>
</a>
</g>
</g>
<!-- Node4&#45;&gt;Node11 -->
<g id="edge9" class="edge">
<title>Node4&#45;&gt;Node11</title>
<path fill="none" stroke="#191970" d="M230.5736,-210.6221C245.7361,-200.7574 265.3571,-187.9919 278.172,-179.6545"/>
<polygon fill="#191970" stroke="#191970" points="228.2831,-207.9367 221.8096,-216.324 232.1005,-213.8042 228.2831,-207.9367"/>
</g>
<!-- Node13 -->
<g id="node10" class="node">
<title>Node13</title>
<g id="a_node10"><a xlink:href="../../df/d43/_slha_value_line_coloring_8cpp.html" target="_top" xlink:title="SlhaValueLineColoring.cpp">
<polygon fill="none" stroke="#000000" points="364.9742,-162.5 364.9742,-179.5 477.9742,-179.5 477.9742,-162.5 364.9742,-162.5"/>
<text text-anchor="middle" x="421.4742" y="-169.1" font-family="Helvetica,sans-Serif" font-size="8.00" fill="#000000">SlhaValueLineColoring.cpp</text>
</a>
</g>
</g>
<!-- Node4&#45;&gt;Node13 -->
<g id="edge14" class="edge">
<title>Node4&#45;&gt;Node13</title>
<path fill="none" stroke="#191970" d="M252.025,-213.959C292.2549,-203.7598 351.1774,-188.8217 387.8817,-179.5164"/>
<polygon fill="#191970" stroke="#191970" points="251.0579,-210.5933 242.2247,-216.4435 252.7782,-217.3787 251.0579,-210.5933"/>
</g>
<!-- Node5&#45;&gt;Node6 -->
<g id="edge2" class="edge">
<title>Node5&#45;&gt;Node6</title>
<path fill="none" stroke="#191970" d="M126.7155,-158.3678C150.1241,-148.2553 182.3155,-134.3486 202.7603,-125.5164"/>
<polygon fill="#191970" stroke="#191970" points="125.0729,-155.2647 117.2809,-162.4435 127.8489,-161.6907 125.0729,-155.2647"/>
</g>
<!-- Node5&#45;&gt;Node7 -->
<g id="edge6" class="edge">
<title>Node5&#45;&gt;Node7</title>
<path fill="none" stroke="#191970" d="M55.6181,-158.6143C39.8626,-151.6898 23.5707,-141.2792 14.4742,-126 2.8435,-106.464 25.7582,-83.6373 40.8016,-71.5409"/>
<polygon fill="#191970" stroke="#191970" points="54.7052,-162.0189 65.2896,-162.4876 57.3077,-155.5206 54.7052,-162.0189"/>
</g>
<!-- Node10 -->
<g id="node7" class="node">
<title>Node10</title>
<g id="a_node7"><a xlink:href="../../d2/d6d/_slha_value_colored_segments_8cpp.html" target="_top" xlink:title="SlhaValueColoredSegments.cpp">
<polygon fill="none" stroke="#000000" points="23.4742,-108.5 23.4742,-125.5 155.4742,-125.5 155.4742,-108.5 23.4742,-108.5"/>
<text text-anchor="middle" x="89.4742" y="-115.1" font-family="Helvetica,sans-Serif" font-size="8.00" fill="#000000">SlhaValueColoredSegments.cpp</text>
</a>
</g>
</g>
<!-- Node5&#45;&gt;Node10 -->
<g id="edge7" class="edge">
<title>Node5&#45;&gt;Node10</title>
<path fill="none" stroke="#191970" d="M94.6743,-152.1005C93.3462,-143.1357 91.8236,-132.8579 90.7707,-125.7511"/>
<polygon fill="#191970" stroke="#191970" points="91.2254,-152.7039 96.1532,-162.083 98.1498,-151.678 91.2254,-152.7039"/>
</g>
<!-- Node6&#45;&gt;Node7 -->
<g id="edge3" class="edge">
<title>Node6&#45;&gt;Node7</title>
<path fill="none" stroke="#191970" d="M185.6548,-105.3044C153.6223,-95.1294 107.959,-80.6246 79.2852,-71.5164"/>
<polygon fill="#191970" stroke="#191970" points="184.9469,-108.7518 195.5372,-108.4435 187.0661,-102.0803 184.9469,-108.7518"/>
</g>
<!-- Node9 -->
<g id="node6" class="node">
<title>Node9</title>
<g id="a_node6"><a xlink:href="../../da/d5b/_slha_value_plot_line_8cpp.html" target="_top" xlink:title="SlhaValuePlotLine.cpp">
<polygon fill="none" stroke="#000000" points="173.9742,-54.5 173.9742,-71.5 270.9742,-71.5 270.9742,-54.5 173.9742,-54.5"/>
<text text-anchor="middle" x="222.4742" y="-61.1" font-family="Helvetica,sans-Serif" font-size="8.00" fill="#000000">SlhaValuePlotLine.cpp</text>
</a>
</g>
</g>
<!-- Node6&#45;&gt;Node9 -->
<g id="edge5" class="edge">
<title>Node6&#45;&gt;Node9</title>
<path fill="none" stroke="#191970" d="M222.4742,-97.8045C222.4742,-88.9102 222.4742,-78.7798 222.4742,-71.7511"/>
<polygon fill="#191970" stroke="#191970" points="218.9743,-98.083 222.4742,-108.083 225.9743,-98.083 218.9743,-98.083"/>
</g>
<!-- Node8 -->
<g id="node5" class="node">
<title>Node8</title>
<g id="a_node5"><a xlink:href="../../d1/d7a/_slha_value_plotter_8cpp.html" target="_top" xlink:title="SlhaValuePlotter.cpp">
<polygon fill="none" stroke="#000000" points="6.9742,-.5 6.9742,-17.5 97.9742,-17.5 97.9742,-.5 6.9742,-.5"/>
<text text-anchor="middle" x="52.4742" y="-7.1" font-family="Helvetica,sans-Serif" font-size="8.00" fill="#000000">SlhaValuePlotter.cpp</text>
</a>
</g>
</g>
<!-- Node7&#45;&gt;Node8 -->
<g id="edge4" class="edge">
<title>Node7&#45;&gt;Node8</title>
<path fill="none" stroke="#191970" d="M52.4742,-43.8045C52.4742,-34.9102 52.4742,-24.7798 52.4742,-17.7511"/>
<polygon fill="#191970" stroke="#191970" points="48.9743,-44.083 52.4742,-54.083 55.9743,-44.083 48.9743,-44.083"/>
</g>
<!-- Node11&#45;&gt;Node6 -->
<g id="edge10" class="edge">
<title>Node11&#45;&gt;Node6</title>
<path fill="none" stroke="#191970" d="M272.4363,-156.1008C260.0184,-146.3824 244.2309,-134.0269 233.762,-125.8339"/>
<polygon fill="#191970" stroke="#191970" points="270.356,-158.9171 280.3882,-162.324 274.6702,-153.4046 270.356,-158.9171"/>
</g>
<!-- Node11&#45;&gt;Node7 -->
<g id="edge11" class="edge">
<title>Node11&#45;&gt;Node7</title>
<path fill="none" stroke="#191970" d="M293.0767,-152.2557C293.1927,-138.1964 290.8621,-119.4733 279.4742,-108 254.674,-83.0136 157.4483,-71.1484 98.5801,-66.1492"/>
<polygon fill="#191970" stroke="#191970" points="289.578,-152.1444 292.5853,-162.3035 296.5697,-152.4864 289.578,-152.1444"/>
</g>
<!-- Node12 -->
<g id="node9" class="node">
<title>Node12</title>
<g id="a_node9"><a xlink:href="../../d7/df0/_slha_value_single_color_8cpp.html" target="_top" xlink:title="SlhaValueSingleColor.cpp">
<polygon fill="none" stroke="#000000" points="327.9742,-108.5 327.9742,-125.5 436.9742,-125.5 436.9742,-108.5 327.9742,-108.5"/>
<text text-anchor="middle" x="382.4742" y="-115.1" font-family="Helvetica,sans-Serif" font-size="8.00" fill="#000000">SlhaValueSingleColor.cpp</text>
</a>
</g>
</g>
<!-- Node11&#45;&gt;Node12 -->
<g id="edge12" class="edge">
<title>Node11&#45;&gt;Node12</title>
<path fill="none" stroke="#191970" d="M314.768,-157.1774C331.5131,-147.2407 353.5747,-134.1492 367.8898,-125.6545"/>
<polygon fill="#191970" stroke="#191970" points="312.9087,-154.2108 306.095,-162.324 316.481,-160.2307 312.9087,-154.2108"/>
</g>
</g>
</svg>
