<?xml version="1.0" encoding="UTF-8" standalone="no"?>
<!DOCTYPE svg PUBLIC "-//W3C//DTD SVG 1.1//EN"
 "http://www.w3.org/Graphics/SVG/1.1/DTD/svg11.dtd">
<!-- Generated by graphviz version 2.40.1 (20161225.0304)
 -->
<!-- Title: BernoulliNumbers Pages: 1 -->
<svg width="176pt" height="80pt"
 viewBox="0.00 0.00 176.00 80.00" xmlns="http://www.w3.org/2000/svg" xmlns:xlink="http://www.w3.org/1999/xlink">
<g id="graph0" class="graph" transform="scale(1 1) rotate(0) translate(4 76)">
<title>BernoulliNumbers</title>
<!-- Node0 -->
<g id="node1" class="node">
<title>Node0</title>
<polygon fill="#bfbfbf" stroke="#000000" points="46.5,-54.5 46.5,-71.5 126.5,-71.5 126.5,-54.5 46.5,-54.5"/>
<text text-anchor="middle" x="86.5" y="-61.1" font-family="Helvetica,sans-Serif" font-size="8.00" fill="#000000">BernoulliNumbers</text>
</g>
<!-- Node1 -->
<g id="node2" class="node">
<title>Node1</title>
<g id="a_node2"><a xlink:href="../../d5/d9d/class_clausen_functions.html" target="_top" xlink:title="A class for the Clausen functions. ">
<polygon fill="none" stroke="#000000" points="0,-.5 0,-17.5 81,-17.5 81,-.5 0,-.5"/>
<text text-anchor="middle" x="40.5" y="-7.1" font-family="Helvetica,sans-Serif" font-size="8.00" fill="#000000">ClausenFunctions</text>
</a>
</g>
</g>
<!-- Node0&#45;&gt;Node1 -->
<g id="edge1" class="edge">
<title>Node0&#45;&gt;Node1</title>
<path fill="none" stroke="#191970" d="M72.386,-46.4314C64.324,-36.9673 54.5408,-25.4827 47.9546,-17.7511"/>
<polygon fill="#191970" stroke="#191970" points="69.755,-48.7402 78.904,-54.083 75.0837,-44.2009 69.755,-48.7402"/>
</g>
<!-- Node2 -->
<g id="node3" class="node">
<title>Node2</title>
<g id="a_node3"><a xlink:href="../../d8/db3/class_polylogarithms.html" target="_top" xlink:title="A class for the polylogarithms. ">
<polygon fill="none" stroke="#000000" points="99,-.5 99,-17.5 168,-17.5 168,-.5 99,-.5"/>
<text text-anchor="middle" x="133.5" y="-7.1" font-family="Helvetica,sans-Serif" font-size="8.00" fill="#000000">Polylogarithms</text>
</a>
</g>
</g>
<!-- Node0&#45;&gt;Node2 -->
<g id="edge2" class="edge">
<title>Node0&#45;&gt;Node2</title>
<path fill="none" stroke="#191970" d="M100.9208,-46.4314C109.1581,-36.9673 119.1539,-25.4827 125.8833,-17.7511"/>
<polygon fill="#191970" stroke="#191970" points="98.1863,-44.2421 94.2611,-54.083 103.4664,-48.8378 98.1863,-44.2421"/>
</g>
</g>
</svg>
