<?xml version="1.0" encoding="UTF-8" standalone="no"?>
<!DOCTYPE svg PUBLIC "-//W3C//DTD SVG 1.1//EN"
 "http://www.w3.org/Graphics/SVG/1.1/DTD/svg11.dtd">
<!-- Generated by graphviz version 2.38.0 (20140413.2041)
 -->
<!-- Title: Hobs_pp_H_hh_bbbb_CMS Pages: 1 -->
<svg width="125pt" height="134pt"
 viewBox="0.00 0.00 125.00 134.00" xmlns="http://www.w3.org/2000/svg" xmlns:xlink="http://www.w3.org/1999/xlink">
<g id="graph0" class="graph" transform="scale(1 1) rotate(0) translate(4 130)">
<title>Hobs_pp_H_hh_bbbb_CMS</title>
<!-- Node1 -->
<g id="node1" class="node"><title>Node1</title>
<polygon fill="#bfbfbf" stroke="black" points="0,-0.5 0,-17.5 117,-17.5 117,-0.5 0,-0.5"/>
<text text-anchor="middle" x="58.5" y="-7.1" font-family="Helvetica,sans-Serif" font-size="8.00">Hobs_pp_H_hh_bbbb_CMS</text>
</g>
<!-- Node2 -->
<g id="node2" class="node"><title>Node2</title>
<g id="a_node2"><a xlink:href="../../dc/df3/classheavy_higgs.html" target="_top" xlink:title="Base class for direct heavy Higgs search observables. ">
<polygon fill="none" stroke="black" points="29.5,-54.5 29.5,-71.5 87.5,-71.5 87.5,-54.5 29.5,-54.5"/>
<text text-anchor="middle" x="58.5" y="-61.1" font-family="Helvetica,sans-Serif" font-size="8.00">heavyHiggs</text>
</a>
</g>
</g>
<!-- Node2&#45;&gt;Node1 -->
<g id="edge1" class="edge"><title>Node2&#45;&gt;Node1</title>
<path fill="none" stroke="midnightblue" d="M58.5,-44.0621C58.5,-35.0603 58.5,-24.6277 58.5,-17.7043"/>
<polygon fill="midnightblue" stroke="midnightblue" points="55.0001,-44.3272 58.5,-54.3272 62.0001,-44.3273 55.0001,-44.3272"/>
</g>
<!-- Node3 -->
<g id="node3" class="node"><title>Node3</title>
<g id="a_node3"><a xlink:href="../../dc/d1f/class_th_observable.html" target="_top" xlink:title="A class for a model prediction of an observable. ">
<polygon fill="none" stroke="black" points="25,-108.5 25,-125.5 92,-125.5 92,-108.5 25,-108.5"/>
<text text-anchor="middle" x="58.5" y="-115.1" font-family="Helvetica,sans-Serif" font-size="8.00">ThObservable</text>
</a>
</g>
</g>
<!-- Node3&#45;&gt;Node2 -->
<g id="edge2" class="edge"><title>Node3&#45;&gt;Node2</title>
<path fill="none" stroke="midnightblue" d="M58.5,-98.0621C58.5,-89.0603 58.5,-78.6277 58.5,-71.7043"/>
<polygon fill="midnightblue" stroke="midnightblue" points="55.0001,-98.3272 58.5,-108.327 62.0001,-98.3273 55.0001,-98.3272"/>
</g>
</g>
</svg>
