<?xml version="1.0" encoding="UTF-8" standalone="no"?>
<!DOCTYPE svg PUBLIC "-//W3C//DTD SVG 1.1//EN"
 "http://www.w3.org/Graphics/SVG/1.1/DTD/svg11.dtd">
<!-- Generated by graphviz version 2.40.1 (20161225.0304)
 -->
<!-- Title: MFV.h Pages: 1 -->
<svg width="316pt" height="350pt"
 viewBox="0.00 0.00 316.00 350.00" xmlns="http://www.w3.org/2000/svg" xmlns:xlink="http://www.w3.org/1999/xlink">
<g id="graph0" class="graph" transform="scale(1 1) rotate(0) translate(4 346)">
<title>MFV.h</title>
<!-- Node0 -->
<g id="node1" class="node">
<title>Node0</title>
<polygon fill="#bfbfbf" stroke="#000000" points="143.5,-324.5 143.5,-341.5 183.5,-341.5 183.5,-324.5 143.5,-324.5"/>
<text text-anchor="middle" x="163.5" y="-331.1" font-family="Helvetica,sans-Serif" font-size="8.00" fill="#000000">MFV.h</text>
</g>
<!-- Node1 -->
<g id="node2" class="node">
<title>Node1</title>
<g id="a_node2"><a xlink:href="../../d5/d37/_s_u_s_y_8h.html" target="_top" xlink:title="SUSY.h">
<polygon fill="none" stroke="#000000" points="116,-270.5 116,-287.5 161,-287.5 161,-270.5 116,-270.5"/>
<text text-anchor="middle" x="138.5" y="-277.1" font-family="Helvetica,sans-Serif" font-size="8.00" fill="#000000">SUSY.h</text>
</a>
</g>
</g>
<!-- Node0&#45;&gt;Node1 -->
<g id="edge1" class="edge">
<title>Node0&#45;&gt;Node1</title>
<path fill="none" stroke="#191970" d="M159.3718,-324.083C155.9861,-316.77 151.084,-306.1814 146.8812,-297.1034"/>
<polygon fill="#191970" stroke="#191970" points="149.9289,-295.3553 142.5514,-287.7511 143.5766,-298.2962 149.9289,-295.3553"/>
</g>
<!-- Node55 -->
<g id="node10" class="node">
<title>Node55</title>
<g id="a_node10"><a xlink:href="../../d9/d37/_xmatrices_8h.html" target="_top" xlink:title="Xmatrices.h">
<polygon fill="none" stroke="#000000" points="229,-216.5 229,-233.5 288,-233.5 288,-216.5 229,-216.5"/>
<text text-anchor="middle" x="258.5" y="-223.1" font-family="Helvetica,sans-Serif" font-size="8.00" fill="#000000">Xmatrices.h</text>
</a>
</g>
</g>
<!-- Node0&#45;&gt;Node55 -->
<g id="edge13" class="edge">
<title>Node0&#45;&gt;Node55</title>
<path fill="none" stroke="#191970" d="M171.2742,-324.1619C187.219,-306.0353 223.8313,-264.4128 244.1879,-241.2706"/>
<polygon fill="#191970" stroke="#191970" points="246.9071,-243.4786 250.8838,-233.6584 241.6511,-238.8552 246.9071,-243.4786"/>
</g>
<!-- Node2 -->
<g id="node3" class="node">
<title>Node2</title>
<g id="a_node3"><a xlink:href="../../d9/d72/gslpp_8h.html" target="_top" xlink:title="gslpp.h">
<polygon fill="none" stroke="#ff0000" points="117.5,-108.5 117.5,-125.5 159.5,-125.5 159.5,-108.5 117.5,-108.5"/>
<text text-anchor="middle" x="138.5" y="-115.1" font-family="Helvetica,sans-Serif" font-size="8.00" fill="#000000">gslpp.h</text>
</a>
</g>
</g>
<!-- Node1&#45;&gt;Node2 -->
<g id="edge2" class="edge">
<title>Node1&#45;&gt;Node2</title>
<path fill="none" stroke="#191970" d="M135.156,-270.1966C131.9458,-261.2402 127.3236,-246.8827 125.5,-234 120.5768,-199.2198 128.1243,-158.4026 133.6162,-135.3322"/>
<polygon fill="#191970" stroke="#191970" points="137.035,-136.0886 136.0836,-125.5366 130.247,-134.3788 137.035,-136.0886"/>
</g>
<!-- Node18 -->
<g id="node7" class="node">
<title>Node18</title>
<g id="a_node7"><a xlink:href="../../d6/d0a/_standard_model_8h.html" target="_top" xlink:title="StandardModel.h">
<polygon fill="none" stroke="#ff0000" points="134,-216.5 134,-233.5 211,-233.5 211,-216.5 134,-216.5"/>
<text text-anchor="middle" x="172.5" y="-223.1" font-family="Helvetica,sans-Serif" font-size="8.00" fill="#000000">StandardModel.h</text>
</a>
</g>
</g>
<!-- Node1&#45;&gt;Node18 -->
<g id="edge8" class="edge">
<title>Node1&#45;&gt;Node18</title>
<path fill="none" stroke="#191970" d="M144.1144,-270.083C148.8674,-262.5341 155.8181,-251.4948 161.6516,-242.2298"/>
<polygon fill="#191970" stroke="#191970" points="164.6237,-244.0783 166.9901,-233.7511 158.7001,-240.3486 164.6237,-244.0783"/>
</g>
<!-- Node50 -->
<g id="node9" class="node">
<title>Node50</title>
<g id="a_node9"><a xlink:href="../../dd/dc9/_s_u_s_y_matching_8h.html" target="_top" xlink:title="SUSYMatching.h">
<polygon fill="none" stroke="#ff0000" points="0,-162.5 0,-179.5 77,-179.5 77,-162.5 0,-162.5"/>
<text text-anchor="middle" x="38.5" y="-169.1" font-family="Helvetica,sans-Serif" font-size="8.00" fill="#000000">SUSYMatching.h</text>
</a>
</g>
</g>
<!-- Node1&#45;&gt;Node50 -->
<g id="edge11" class="edge">
<title>Node1&#45;&gt;Node50</title>
<path fill="none" stroke="#191970" d="M128.8448,-270.324C119.1321,-261.4667 103.8636,-247.1848 91.5,-234 77.3601,-218.921 62.2813,-200.7725 51.8372,-187.8353"/>
<polygon fill="#191970" stroke="#191970" points="54.3973,-185.4328 45.4157,-179.8131 48.9324,-189.8072 54.3973,-185.4328"/>
</g>
<!-- Node3 -->
<g id="node4" class="node">
<title>Node3</title>
<g id="a_node4"><a xlink:href="../../d1/dc2/gslpp__complex_8h.html" target="_top" xlink:title="gslpp_complex.h">
<polygon fill="none" stroke="#ff0000" points="100,-.5 100,-17.5 177,-17.5 177,-.5 100,-.5"/>
<text text-anchor="middle" x="138.5" y="-7.1" font-family="Helvetica,sans-Serif" font-size="8.00" fill="#000000">gslpp_complex.h</text>
</a>
</g>
</g>
<!-- Node2&#45;&gt;Node3 -->
<g id="edge3" class="edge">
<title>Node2&#45;&gt;Node3</title>
<path fill="none" stroke="#191970" d="M120.1106,-108.4706C106.399,-100.997 88.6851,-88.7104 80.5,-72 70.846,-52.2908 91.612,-34.3633 110.925,-22.7164"/>
<polygon fill="#191970" stroke="#191970" points="112.8749,-25.635 119.865,-17.6732 109.4356,-19.5382 112.8749,-25.635"/>
</g>
<!-- Node7 -->
<g id="node5" class="node">
<title>Node7</title>
<g id="a_node5"><a xlink:href="../../da/d8e/gslpp__vector__double_8h.html" target="_top" xlink:title="gslpp_vector_double.h">
<polygon fill="none" stroke="#ff0000" points="90,-54.5 90,-71.5 187,-71.5 187,-54.5 90,-54.5"/>
<text text-anchor="middle" x="138.5" y="-61.1" font-family="Helvetica,sans-Serif" font-size="8.00" fill="#000000">gslpp_vector_double.h</text>
</a>
</g>
</g>
<!-- Node2&#45;&gt;Node7 -->
<g id="edge4" class="edge">
<title>Node2&#45;&gt;Node7</title>
<path fill="none" stroke="#191970" d="M138.5,-108.083C138.5,-101.0059 138.5,-90.8611 138.5,-81.9865"/>
<polygon fill="#191970" stroke="#191970" points="142.0001,-81.751 138.5,-71.7511 135.0001,-81.7511 142.0001,-81.751"/>
</g>
<!-- Node10 -->
<g id="node6" class="node">
<title>Node10</title>
<g id="a_node6"><a xlink:href="../../da/dad/gslpp__vector__complex_8h.html" target="_top" xlink:title="gslpp_vector_complex.h">
<polygon fill="none" stroke="#ff0000" points="205,-54.5 205,-71.5 308,-71.5 308,-54.5 205,-54.5"/>
<text text-anchor="middle" x="256.5" y="-61.1" font-family="Helvetica,sans-Serif" font-size="8.00" fill="#000000">gslpp_vector_complex.h</text>
</a>
</g>
</g>
<!-- Node2&#45;&gt;Node10 -->
<g id="edge6" class="edge">
<title>Node2&#45;&gt;Node10</title>
<path fill="none" stroke="#191970" d="M157.1975,-108.4435C176.4445,-99.6356 206.6525,-85.8116 228.7001,-75.722"/>
<polygon fill="#191970" stroke="#191970" points="230.2534,-78.8603 237.89,-71.5164 227.3405,-72.4951 230.2534,-78.8603"/>
</g>
<!-- Node7&#45;&gt;Node3 -->
<g id="edge5" class="edge">
<title>Node7&#45;&gt;Node3</title>
<path fill="none" stroke="#191970" d="M138.5,-54.083C138.5,-47.0059 138.5,-36.8611 138.5,-27.9865"/>
<polygon fill="#191970" stroke="#191970" points="142.0001,-27.751 138.5,-17.7511 135.0001,-27.7511 142.0001,-27.751"/>
</g>
<!-- Node10&#45;&gt;Node3 -->
<g id="edge7" class="edge">
<title>Node10&#45;&gt;Node3</title>
<path fill="none" stroke="#191970" d="M237.8025,-54.4435C218.5555,-45.6356 188.3475,-31.8116 166.2999,-21.722"/>
<polygon fill="#191970" stroke="#191970" points="167.6595,-18.4951 157.11,-17.5164 164.7466,-24.8603 167.6595,-18.4951"/>
</g>
<!-- Node36 -->
<g id="node8" class="node">
<title>Node36</title>
<g id="a_node8"><a xlink:href="../../db/d5d/_c_k_m_8h.html" target="_top" xlink:title="CKM.h">
<polygon fill="none" stroke="#ff0000" points="152,-162.5 152,-179.5 193,-179.5 193,-162.5 152,-162.5"/>
<text text-anchor="middle" x="172.5" y="-169.1" font-family="Helvetica,sans-Serif" font-size="8.00" fill="#000000">CKM.h</text>
</a>
</g>
</g>
<!-- Node18&#45;&gt;Node36 -->
<g id="edge9" class="edge">
<title>Node18&#45;&gt;Node36</title>
<path fill="none" stroke="#191970" d="M172.5,-216.083C172.5,-209.0059 172.5,-198.8611 172.5,-189.9865"/>
<polygon fill="#191970" stroke="#191970" points="176.0001,-189.751 172.5,-179.7511 169.0001,-189.7511 176.0001,-189.751"/>
</g>
<!-- Node36&#45;&gt;Node2 -->
<g id="edge10" class="edge">
<title>Node36&#45;&gt;Node2</title>
<path fill="none" stroke="#191970" d="M166.8856,-162.083C162.1326,-154.5341 155.1819,-143.4948 149.3484,-134.2298"/>
<polygon fill="#191970" stroke="#191970" points="152.2999,-132.3486 144.0099,-125.7511 146.3763,-136.0783 152.2999,-132.3486"/>
</g>
<!-- Node50&#45;&gt;Node2 -->
<g id="edge12" class="edge">
<title>Node50&#45;&gt;Node2</title>
<path fill="none" stroke="#191970" d="M54.5667,-162.324C70.4578,-153.7428 95.0074,-140.486 113.4585,-130.5224"/>
<polygon fill="#191970" stroke="#191970" points="115.3371,-133.4857 122.4731,-125.6545 112.011,-127.3264 115.3371,-133.4857"/>
</g>
<!-- Node55&#45;&gt;Node2 -->
<g id="edge14" class="edge">
<title>Node55&#45;&gt;Node2</title>
<path fill="none" stroke="#191970" d="M251.8208,-216.276C241.8558,-203.5584 222.1552,-179.5363 202.5,-162 189.6956,-150.5759 173.9424,-139.468 161.2693,-131.1465"/>
<polygon fill="#191970" stroke="#191970" points="162.9755,-128.0823 152.6719,-125.6148 159.1878,-133.9691 162.9755,-128.0823"/>
</g>
<!-- Node55&#45;&gt;Node36 -->
<g id="edge15" class="edge">
<title>Node55&#45;&gt;Node36</title>
<path fill="none" stroke="#191970" d="M244.6826,-216.324C231.267,-207.9002 210.6759,-194.9709 194.9144,-185.0741"/>
<polygon fill="#191970" stroke="#191970" points="196.6132,-182.0081 186.2831,-179.6545 192.8908,-187.9364 196.6132,-182.0081"/>
</g>
</g>
</svg>
