<?xml version="1.0" encoding="UTF-8" standalone="no"?>
<!DOCTYPE svg PUBLIC "-//W3C//DTD SVG 1.1//EN"
 "http://www.w3.org/Graphics/SVG/1.1/DTD/svg11.dtd">
<!-- Generated by graphviz version 2.40.1 (20161225.0304)
 -->
<!-- Title: SparseSinglyIndexedBlock.hpp Pages: 1 -->
<svg width="288pt" height="305pt"
 viewBox="0.00 0.00 288.31 305.00" xmlns="http://www.w3.org/2000/svg" xmlns:xlink="http://www.w3.org/1999/xlink">
<g id="graph0" class="graph" transform="scale(1 1) rotate(0) translate(4 301)">
<title>SparseSinglyIndexedBlock.hpp</title>
<!-- Node0 -->
<g id="node1" class="node">
<title>Node0</title>
<polygon fill="#bfbfbf" stroke="#000000" points="71.8057,-279.5 71.8057,-296.5 198.8057,-296.5 198.8057,-279.5 71.8057,-279.5"/>
<text text-anchor="middle" x="135.3057" y="-286.1" font-family="Helvetica,sans-Serif" font-size="8.00" fill="#000000">SparseSinglyIndexedBlock.hpp</text>
</g>
<!-- Node1 -->
<g id="node2" class="node">
<title>Node1</title>
<g id="a_node2"><a xlink:href="../../d9/d8c/_indexed_block_template_8hpp.html" target="_top" xlink:title="IndexedBlockTemplate.hpp">
<polygon fill="none" stroke="#000000" points="13.8057,-221 13.8057,-238 126.8057,-238 126.8057,-221 13.8057,-221"/>
<text text-anchor="middle" x="70.3057" y="-227.6" font-family="Helvetica,sans-Serif" font-size="8.00" fill="#000000">IndexedBlockTemplate.hpp</text>
</a>
</g>
</g>
<!-- Node0&#45;&gt;Node1 -->
<g id="edge1" class="edge">
<title>Node0&#45;&gt;Node1</title>
<path fill="none" stroke="#191970" d="M125.7148,-279.3681C115.7297,-270.3816 99.8746,-256.112 87.6782,-245.1352"/>
<polygon fill="#191970" stroke="#191970" points="89.7104,-242.2554 79.9361,-238.1673 85.0276,-247.4585 89.7104,-242.2554"/>
</g>
<!-- Node45 -->
<g id="node9" class="node">
<title>Node45</title>
<g id="a_node9"><a xlink:href="../../d7/d42/_sparse_singly_indexed_8hpp.html" target="_top" xlink:title="InterpreterClasses\l/SparseSinglyIndexed.hpp">
<polygon fill="none" stroke="#000000" points="145.3057,-216.5 145.3057,-242.5 255.3057,-242.5 255.3057,-216.5 145.3057,-216.5"/>
<text text-anchor="start" x="153.3057" y="-232.1" font-family="Helvetica,sans-Serif" font-size="8.00" fill="#000000">InterpreterClasses</text>
<text text-anchor="middle" x="200.3057" y="-223.1" font-family="Helvetica,sans-Serif" font-size="8.00" fill="#000000">/SparseSinglyIndexed.hpp</text>
</a>
</g>
</g>
<!-- Node0&#45;&gt;Node45 -->
<g id="edge13" class="edge">
<title>Node0&#45;&gt;Node45</title>
<path fill="none" stroke="#191970" d="M144.8967,-279.3681C153.6193,-271.5178 166.8213,-259.636 178.1509,-249.4394"/>
<polygon fill="#191970" stroke="#191970" points="180.5256,-252.011 185.6171,-242.7197 175.8428,-246.8079 180.5256,-252.011"/>
</g>
<!-- Node2 -->
<g id="node3" class="node">
<title>Node2</title>
<g id="a_node3"><a xlink:href="../../dd/d89/_slha_block_8hpp.html" target="_top" xlink:title="../SlhaBlock.hpp">
<polygon fill="none" stroke="#ff0000" points="33.3057,-162.5 33.3057,-179.5 107.3057,-179.5 107.3057,-162.5 33.3057,-162.5"/>
<text text-anchor="middle" x="70.3057" y="-169.1" font-family="Helvetica,sans-Serif" font-size="8.00" fill="#000000">../SlhaBlock.hpp</text>
</a>
</g>
</g>
<!-- Node1&#45;&gt;Node2 -->
<g id="edge2" class="edge">
<title>Node1&#45;&gt;Node2</title>
<path fill="none" stroke="#191970" d="M70.3057,-220.8681C70.3057,-212.7457 70.3057,-200.3073 70.3057,-189.8853"/>
<polygon fill="#191970" stroke="#191970" points="73.8058,-189.6673 70.3057,-179.6673 66.8058,-189.6673 73.8058,-189.6673"/>
</g>
<!-- Node3 -->
<g id="node4" class="node">
<title>Node3</title>
<polygon fill="none" stroke="#bfbfbf" points="151.3057,-.5 151.3057,-17.5 187.3057,-17.5 187.3057,-.5 151.3057,-.5"/>
<text text-anchor="middle" x="169.3057" y="-7.1" font-family="Helvetica,sans-Serif" font-size="8.00" fill="#000000">string</text>
</g>
<!-- Node2&#45;&gt;Node3 -->
<g id="edge3" class="edge">
<title>Node2&#45;&gt;Node3</title>
<path fill="none" stroke="#191970" d="M107.3654,-163.2918C142.0529,-155.2361 190.1634,-141.6089 201.3057,-126 223.2207,-95.3 198.8034,-50.2831 182.1606,-26.0128"/>
<polygon fill="#191970" stroke="#191970" points="184.9452,-23.8899 176.2756,-17.7999 179.2552,-27.9671 184.9452,-23.8899"/>
</g>
<!-- Node4 -->
<g id="node5" class="node">
<title>Node4</title>
<g id="a_node5"><a xlink:href="../../d8/d14/_b_o_llib_8hpp.html" target="_top" xlink:title="BOLlib/include/BOLlib.hpp">
<polygon fill="none" stroke="#ff0000" points="2.3057,-.5 2.3057,-17.5 112.3057,-17.5 112.3057,-.5 2.3057,-.5"/>
<text text-anchor="middle" x="57.3057" y="-7.1" font-family="Helvetica,sans-Serif" font-size="8.00" fill="#000000">BOLlib/include/BOLlib.hpp</text>
</a>
</g>
</g>
<!-- Node2&#45;&gt;Node4 -->
<g id="edge4" class="edge">
<title>Node2&#45;&gt;Node4</title>
<path fill="none" stroke="#191970" d="M61.6635,-162.4504C46.153,-146.4243 14.1105,-110.0365 2.3057,-72 -.0655,-64.3595 -1.1201,-61.2294 2.3057,-54 8.4339,-41.0681 20.3,-30.6167 31.4463,-23.0528"/>
<polygon fill="#191970" stroke="#191970" points="33.5004,-25.8958 40.1077,-17.6136 29.7777,-19.9678 33.5004,-25.8958"/>
</g>
<!-- Node40 -->
<g id="node6" class="node">
<title>Node40</title>
<g id="a_node6"><a xlink:href="../../d2/d04/_base_slha_block_8hpp.html" target="_top" xlink:title="BlockClasses/BaseSlhaBlock.hpp">
<polygon fill="none" stroke="#ff0000" points="56.3057,-108.5 56.3057,-125.5 192.3057,-125.5 192.3057,-108.5 56.3057,-108.5"/>
<text text-anchor="middle" x="124.3057" y="-115.1" font-family="Helvetica,sans-Serif" font-size="8.00" fill="#000000">BlockClasses/BaseSlhaBlock.hpp</text>
</a>
</g>
</g>
<!-- Node2&#45;&gt;Node40 -->
<g id="edge5" class="edge">
<title>Node2&#45;&gt;Node40</title>
<path fill="none" stroke="#191970" d="M79.2227,-162.083C87.0862,-154.2195 98.7369,-142.5688 108.2245,-133.0813"/>
<polygon fill="#191970" stroke="#191970" points="110.9584,-135.2971 115.5547,-125.7511 106.0087,-130.3473 110.9584,-135.2971"/>
</g>
<!-- Node41 -->
<g id="node8" class="node">
<title>Node41</title>
<g id="a_node8"><a xlink:href="../../dc/d87/_base_string_block_8hpp.html" target="_top" xlink:title="BaseStringBlock.hpp">
<polygon fill="none" stroke="#ff0000" points="11.8057,-54.5 11.8057,-71.5 102.8057,-71.5 102.8057,-54.5 11.8057,-54.5"/>
<text text-anchor="middle" x="57.3057" y="-61.1" font-family="Helvetica,sans-Serif" font-size="8.00" fill="#000000">BaseStringBlock.hpp</text>
</a>
</g>
</g>
<!-- Node2&#45;&gt;Node41 -->
<g id="edge12" class="edge">
<title>Node2&#45;&gt;Node41</title>
<path fill="none" stroke="#191970" d="M64.2011,-162.1905C58.5511,-153.4602 50.5504,-139.4775 47.3057,-126 43.7372,-111.1771 46.8989,-94.0771 50.5842,-81.4359"/>
<polygon fill="#191970" stroke="#191970" points="54.0049,-82.2371 53.8014,-71.6442 47.3547,-80.052 54.0049,-82.2371"/>
</g>
<!-- Node40&#45;&gt;Node3 -->
<g id="edge6" class="edge">
<title>Node40&#45;&gt;Node3</title>
<path fill="none" stroke="#191970" d="M128.5191,-108.4566C132.8992,-99.4661 139.863,-84.8624 145.3057,-72 151.6486,-57.0105 158.1823,-39.7159 162.8279,-27.0437"/>
<polygon fill="#191970" stroke="#191970" points="166.1198,-28.2324 166.2405,-17.6382 159.5395,-25.8448 166.1198,-28.2324"/>
</g>
<!-- Node40&#45;&gt;Node4 -->
<g id="edge8" class="edge">
<title>Node40&#45;&gt;Node4</title>
<path fill="none" stroke="#191970" d="M124.2804,-108.1988C123.867,-95.385 121.6372,-71.2442 111.3057,-54 103.8823,-41.6096 91.7802,-31.0572 80.9125,-23.2918"/>
<polygon fill="#191970" stroke="#191970" points="82.8247,-20.3599 72.5745,-17.6798 78.9161,-26.1671 82.8247,-20.3599"/>
</g>
<!-- Node11 -->
<g id="node7" class="node">
<title>Node11</title>
<polygon fill="none" stroke="#bfbfbf" points="248.3057,-54.5 248.3057,-71.5 280.3057,-71.5 280.3057,-54.5 248.3057,-54.5"/>
<text text-anchor="middle" x="264.3057" y="-61.1" font-family="Helvetica,sans-Serif" font-size="8.00" fill="#000000">map</text>
</g>
<!-- Node40&#45;&gt;Node11 -->
<g id="edge7" class="edge">
<title>Node40&#45;&gt;Node11</title>
<path fill="none" stroke="#191970" d="M146.4892,-108.4435C171.5118,-98.792 212.1494,-83.1174 238.5527,-72.9333"/>
<polygon fill="#191970" stroke="#191970" points="239.8424,-76.1873 247.9129,-69.323 237.3233,-69.6562 239.8424,-76.1873"/>
</g>
<!-- Node40&#45;&gt;Node41 -->
<g id="edge9" class="edge">
<title>Node40&#45;&gt;Node41</title>
<path fill="none" stroke="#191970" d="M113.541,-108.324C103.5396,-100.2631 88.4192,-88.0765 76.3753,-78.3695"/>
<polygon fill="#191970" stroke="#191970" points="78.2486,-75.3841 68.2663,-71.8339 73.8559,-80.8343 78.2486,-75.3841"/>
</g>
<!-- Node41&#45;&gt;Node3 -->
<g id="edge10" class="edge">
<title>Node41&#45;&gt;Node3</title>
<path fill="none" stroke="#191970" d="M75.3005,-54.324C93.3434,-45.6247 121.3526,-32.1202 142.1085,-22.113"/>
<polygon fill="#191970" stroke="#191970" points="143.868,-25.1502 151.3557,-17.6545 140.8279,-18.8449 143.868,-25.1502"/>
</g>
<!-- Node41&#45;&gt;Node4 -->
<g id="edge11" class="edge">
<title>Node41&#45;&gt;Node4</title>
<path fill="none" stroke="#191970" d="M57.3057,-54.083C57.3057,-47.0059 57.3057,-36.8611 57.3057,-27.9865"/>
<polygon fill="#191970" stroke="#191970" points="60.8058,-27.751 57.3057,-17.7511 53.8058,-27.7511 60.8058,-27.751"/>
</g>
<!-- Node45&#45;&gt;Node11 -->
<g id="edge14" class="edge">
<title>Node45&#45;&gt;Node11</title>
<path fill="none" stroke="#191970" d="M216.1759,-216.4453C226.1726,-207.3079 238.4439,-194.2269 245.3057,-180 260.748,-147.9832 264.0014,-105.905 264.4842,-81.9197"/>
<polygon fill="#191970" stroke="#191970" points="267.9851,-81.7409 264.5398,-71.7219 260.9852,-81.7026 267.9851,-81.7409"/>
</g>
<!-- Node46 -->
<g id="node10" class="node">
<title>Node46</title>
<g id="a_node10"><a xlink:href="../../d6/d7b/_indexed_interpreter_8hpp.html" target="_top" xlink:title="IndexedInterpreter.hpp">
<polygon fill="none" stroke="#ff0000" points="138.8057,-162.5 138.8057,-179.5 235.8057,-179.5 235.8057,-162.5 138.8057,-162.5"/>
<text text-anchor="middle" x="187.3057" y="-169.1" font-family="Helvetica,sans-Serif" font-size="8.00" fill="#000000">IndexedInterpreter.hpp</text>
</a>
</g>
</g>
<!-- Node45&#45;&gt;Node46 -->
<g id="edge15" class="edge">
<title>Node45&#45;&gt;Node46</title>
<path fill="none" stroke="#191970" d="M197.3558,-216.2254C195.6071,-208.3561 193.3638,-198.2613 191.4404,-189.6062"/>
<polygon fill="#191970" stroke="#191970" points="194.8227,-188.6915 189.2366,-179.689 187.9893,-190.2101 194.8227,-188.6915"/>
</g>
</g>
</svg>
