<?xml version="1.0" encoding="UTF-8" standalone="no"?>
<!DOCTYPE svg PUBLIC "-//W3C//DTD SVG 1.1//EN"
 "http://www.w3.org/Graphics/SVG/1.1/DTD/svg11.dtd">
<!-- Generated by graphviz version 2.40.1 (20161225.0304)
 -->
<!-- Title: Robs_ggF_A_tt_ATLAS8 Pages: 1 -->
<svg width="420pt" height="233pt"
 viewBox="0.00 0.00 419.50 233.00" xmlns="http://www.w3.org/2000/svg" xmlns:xlink="http://www.w3.org/1999/xlink">
<g id="graph0" class="graph" transform="scale(1 1) rotate(0) translate(4 229)">
<title>Robs_ggF_A_tt_ATLAS8</title>
<!-- Node2 -->
<g id="node1" class="node">
<title>Node2</title>
<polygon fill="#bfbfbf" stroke="#000000" points="98.5,-.5 98.5,-17.5 204.5,-17.5 204.5,-.5 98.5,-.5"/>
<text text-anchor="middle" x="151.5" y="-7.1" font-family="Helvetica,sans-Serif" font-size="8.00" fill="#000000">Robs_ggF_A_tt_ATLAS8</text>
</g>
<!-- Node3 -->
<g id="node2" class="node">
<title>Node3</title>
<g id="a_node2"><a xlink:href="../../dc/d1f/class_th_observable.html" target="_top" xlink:title="A class for a model prediction of an observable. ">
<polygon fill="none" stroke="#000000" points="143,-63.5 143,-80.5 210,-80.5 210,-63.5 143,-63.5"/>
<text text-anchor="middle" x="176.5" y="-70.1" font-family="Helvetica,sans-Serif" font-size="8.00" fill="#000000">ThObservable</text>
</a>
</g>
</g>
<!-- Node3&#45;&gt;Node2 -->
<g id="edge1" class="edge">
<title>Node3&#45;&gt;Node2</title>
<path fill="none" stroke="#191970" d="M178.4043,-53.3066C178.3535,-47.585 177.6331,-41.3842 175.5,-36 172.728,-29.0031 167.2813,-22.6332 162.2765,-17.8398"/>
<polygon fill="#191970" stroke="#191970" points="174.9047,-53.207 177.8721,-63.3778 181.895,-53.5764 174.9047,-53.207"/>
</g>
<!-- Node4 -->
<g id="node3" class="node">
<title>Node4</title>
<g id="a_node3"><a xlink:href="../../dc/dd5/class_standard_model.html" target="_top" xlink:title="A model class for the Standard Model. ">
<polygon fill="none" stroke="#ff0000" points="211,-131 211,-148 282,-148 282,-131 211,-131"/>
<text text-anchor="middle" x="246.5" y="-137.6" font-family="Helvetica,sans-Serif" font-size="8.00" fill="#000000">StandardModel</text>
</a>
</g>
</g>
<!-- Node4&#45;&gt;Node3 -->
<g id="edge2" class="edge">
<title>Node4&#45;&gt;Node3</title>
<path fill="none" stroke="#9a32cd" stroke-dasharray="5,2" d="M230.1902,-123.7727C216.2749,-110.3544 196.782,-91.5576 185.5147,-80.6927"/>
<polygon fill="#9a32cd" stroke="#9a32cd" points="228.0065,-126.5292 237.6345,-130.9511 232.8655,-121.4902 228.0065,-126.5292"/>
<text text-anchor="middle" x="222" y="-101.6" font-family="Helvetica,sans-Serif" font-size="8.00" fill="#000000"> SM</text>
</g>
<!-- Node9 -->
<g id="node6" class="node">
<title>Node9</title>
<g id="a_node6"><a xlink:href="../../dc/df3/class_e_w_s_mcache.html" target="_top" xlink:title="A class for cache variables used in computing radiative corrections to the EW precision observables...">
<polygon fill="none" stroke="#ff0000" points="346,-63.5 346,-80.5 409,-80.5 409,-63.5 346,-63.5"/>
<text text-anchor="middle" x="377.5" y="-70.1" font-family="Helvetica,sans-Serif" font-size="8.00" fill="#000000">EWSMcache</text>
</a>
</g>
</g>
<!-- Node4&#45;&gt;Node9 -->
<g id="edge6" class="edge">
<title>Node4&#45;&gt;Node9</title>
<path fill="none" stroke="#9a32cd" stroke-dasharray="5,2" d="M272.0529,-126.3334C298.2251,-112.8477 338.1643,-92.2684 360.6297,-80.6927"/>
<polygon fill="#9a32cd" stroke="#9a32cd" points="270.3774,-123.2594 263.0912,-130.9511 273.5837,-129.4819 270.3774,-123.2594"/>
<text text-anchor="middle" x="331" y="-101.6" font-family="Helvetica,sans-Serif" font-size="8.00" fill="#000000"> SM</text>
</g>
<!-- Node47 -->
<g id="node8" class="node">
<title>Node47</title>
<g id="a_node8"><a xlink:href="../../d0/d52/class_t_h_d_m.html" target="_top" xlink:title="A base class for &#160;symmetric Two&#45;Higgs&#45;Doublet models. ">
<polygon fill="none" stroke="#000000" points="67.5,-63.5 67.5,-80.5 107.5,-80.5 107.5,-63.5 67.5,-63.5"/>
<text text-anchor="middle" x="87.5" y="-70.1" font-family="Helvetica,sans-Serif" font-size="8.00" fill="#000000">THDM</text>
</a>
</g>
</g>
<!-- Node4&#45;&gt;Node47 -->
<g id="edge10" class="edge">
<title>Node4&#45;&gt;Node47</title>
<path fill="none" stroke="#191970" d="M217.1146,-127.0251C185.3021,-113.5198 135.4124,-92.3402 107.7245,-80.5859"/>
<polygon fill="#191970" stroke="#191970" points="215.7899,-130.265 226.3625,-130.9511 218.5254,-123.8216 215.7899,-130.265"/>
</g>
<!-- Node5 -->
<g id="node4" class="node">
<title>Node5</title>
<g id="a_node4"><a xlink:href="../../dd/dfa/class_q_c_d.html" target="_top" xlink:title="A class for parameters related to QCD, hadrons and quarks. ">
<polygon fill="none" stroke="#ff0000" points="175.5,-203 175.5,-220 209.5,-220 209.5,-203 175.5,-203"/>
<text text-anchor="middle" x="192.5" y="-209.6" font-family="Helvetica,sans-Serif" font-size="8.00" fill="#000000">QCD</text>
</a>
</g>
</g>
<!-- Node5&#45;&gt;Node4 -->
<g id="edge3" class="edge">
<title>Node5&#45;&gt;Node4</title>
<path fill="none" stroke="#191970" d="M205.0517,-194.7643C216.0208,-180.139 231.4997,-159.5004 240.1018,-148.031"/>
<polygon fill="#191970" stroke="#191970" points="202.1066,-192.8579 198.9066,-202.9579 207.7066,-197.0579 202.1066,-192.8579"/>
</g>
<!-- Node8 -->
<g id="node5" class="node">
<title>Node8</title>
<g id="a_node5"><a xlink:href="../../db/d32/class_e_w_s_m_two_fermions_l_e_p2.html" target="_top" xlink:title="A class for the form factors , &#160;and &#160;in the processes &#160;at LEP&#45;II. ">
<polygon fill="none" stroke="#ff0000" points="230,-.5 230,-17.5 339,-17.5 339,-.5 230,-.5"/>
<text text-anchor="middle" x="284.5" y="-7.1" font-family="Helvetica,sans-Serif" font-size="8.00" fill="#000000">EWSMTwoFermionsLEP2</text>
</a>
</g>
</g>
<!-- Node8&#45;&gt;Node4 -->
<g id="edge4" class="edge">
<title>Node8&#45;&gt;Node4</title>
<path fill="none" stroke="#9a32cd" stroke-dasharray="5,2" d="M273.4397,-26.4933C267.4733,-36.7482 260.5267,-50.1725 256.5,-63 249.0385,-86.7697 247.1406,-116.3829 246.6605,-130.8004"/>
<polygon fill="#9a32cd" stroke="#9a32cd" points="276.5452,-28.1219 278.7325,-17.7552 270.5579,-24.4952 276.5452,-28.1219"/>
<text text-anchor="middle" x="297" y="-70.1" font-family="Helvetica,sans-Serif" font-size="8.00" fill="#000000"> myTwoFermionsLEP2</text>
</g>
<!-- Node9&#45;&gt;Node4 -->
<g id="edge7" class="edge">
<title>Node9&#45;&gt;Node4</title>
<path fill="none" stroke="#9a32cd" stroke-dasharray="5,2" d="M363.9541,-88.1117C357.4513,-95.0198 349.1901,-102.7016 340.5,-108 322.5717,-118.9309 300.3828,-126.5974 282.0659,-131.6282"/>
<polygon fill="#9a32cd" stroke="#9a32cd" points="366.6567,-90.3398 370.7003,-80.5469 361.4324,-85.6807 366.6567,-90.3398"/>
<text text-anchor="middle" x="381.5" y="-101.6" font-family="Helvetica,sans-Serif" font-size="8.00" fill="#000000"> myEWSMcache</text>
</g>
<!-- Node9&#45;&gt;Node8 -->
<g id="edge5" class="edge">
<title>Node9&#45;&gt;Node8</title>
<path fill="none" stroke="#9a32cd" stroke-dasharray="5,2" d="M355.8227,-57.3154C337.6791,-45.0245 312.4026,-27.9018 297.3214,-17.6855"/>
<polygon fill="#9a32cd" stroke="#9a32cd" points="354.3266,-60.5293 364.5687,-63.2401 358.2525,-54.7339 354.3266,-60.5293"/>
<text text-anchor="middle" x="348.5" y="-38.6" font-family="Helvetica,sans-Serif" font-size="8.00" fill="#000000"> cache</text>
</g>
<!-- Node15 -->
<g id="node7" class="node">
<title>Node15</title>
<g id="a_node7"><a xlink:href="../../d5/d76/class_matching.html" target="_top" xlink:title="Matching\&lt; StandardModelMatching,\l StandardModel \&gt;">
<polygon fill="none" stroke="#ff0000" points="228,-198.5 228,-224.5 373,-224.5 373,-198.5 228,-198.5"/>
<text text-anchor="start" x="236" y="-214.1" font-family="Helvetica,sans-Serif" font-size="8.00" fill="#000000">Matching&lt; StandardModelMatching,</text>
<text text-anchor="middle" x="300.5" y="-205.1" font-family="Helvetica,sans-Serif" font-size="8.00" fill="#000000"> StandardModel &gt;</text>
</a>
</g>
</g>
<!-- Node15&#45;&gt;Node4 -->
<g id="edge8" class="edge">
<title>Node15&#45;&gt;Node4</title>
<path fill="none" stroke="#9a32cd" stroke-dasharray="5,2" d="M284.4508,-190.1011C273.9079,-176.0439 260.6829,-158.4105 252.9533,-148.1044"/>
<polygon fill="#9a32cd" stroke="#9a32cd" points="281.7955,-192.3941 290.5956,-198.2941 287.3955,-188.1941 281.7955,-192.3941"/>
<text text-anchor="middle" x="287" y="-173.6" font-family="Helvetica,sans-Serif" font-size="8.00" fill="#000000"> SMM</text>
</g>
<!-- Node47&#45;&gt;Node2 -->
<g id="edge9" class="edge">
<title>Node47&#45;&gt;Node2</title>
<path fill="none" stroke="#9a32cd" stroke-dasharray="5,2" d="M104.6262,-56.3192C108.5622,-52.6426 112.7051,-48.7138 116.5,-45 125.8451,-35.8548 136.2552,-25.067 143.2739,-17.7013"/>
<polygon fill="#9a32cd" stroke="#9a32cd" points="101.9778,-54.0013 97.0152,-63.362 106.7321,-59.1391 101.9778,-54.0013"/>
<text text-anchor="middle" x="143.5" y="-38.6" font-family="Helvetica,sans-Serif" font-size="8.00" fill="#000000"> myTHDM</text>
</g>
<!-- Node48 -->
<g id="node9" class="node">
<title>Node48</title>
<g id="a_node9"><a xlink:href="../../d5/df2/class_t_h_d_mcache.html" target="_top" xlink:title="A class for the caching of some THDM objects. ">
<polygon fill="none" stroke="#ff0000" points="0,-.5 0,-17.5 61,-17.5 61,-.5 0,-.5"/>
<text text-anchor="middle" x="30.5" y="-7.1" font-family="Helvetica,sans-Serif" font-size="8.00" fill="#000000">THDMcache</text>
</a>
</g>
</g>
<!-- Node47&#45;&gt;Node48 -->
<g id="edge12" class="edge">
<title>Node47&#45;&gt;Node48</title>
<path fill="none" stroke="#9a32cd" stroke-dasharray="5,2" d="M57.5642,-65.1279C38.7743,-60.1398 17.0789,-52.9025 11.5,-45 5.3048,-36.2245 13.1646,-25.1785 20.5732,-17.6519"/>
<polygon fill="#9a32cd" stroke="#9a32cd" points="56.7504,-68.5322 67.3033,-67.5902 58.4663,-61.7457 56.7504,-68.5322"/>
<text text-anchor="middle" x="29.5" y="-38.6" font-family="Helvetica,sans-Serif" font-size="8.00" fill="#000000"> myTHDM</text>
</g>
<!-- Node48&#45;&gt;Node47 -->
<g id="edge11" class="edge">
<title>Node48&#45;&gt;Node47</title>
<path fill="none" stroke="#9a32cd" stroke-dasharray="5,2" d="M42.7707,-25.9178C47.4818,-32.0995 53.0412,-39.0345 58.5,-45 64.4442,-51.496 71.6942,-58.246 77.4581,-63.372"/>
<polygon fill="#9a32cd" stroke="#9a32cd" points="45.3618,-23.5367 36.586,-17.6007 39.7446,-27.7138 45.3618,-23.5367"/>
<text text-anchor="middle" x="87.5" y="-38.6" font-family="Helvetica,sans-Serif" font-size="8.00" fill="#000000"> myTHDMcache</text>
</g>
<!-- Node58 -->
<g id="node10" class="node">
<title>Node58</title>
<g id="a_node10"><a xlink:href="../../d5/d76/class_matching.html" target="_top" xlink:title="Matching\&lt; THDMMatching,\l THDM \&gt;">
<polygon fill="none" stroke="#ff0000" points="30.5,-126.5 30.5,-152.5 144.5,-152.5 144.5,-126.5 30.5,-126.5"/>
<text text-anchor="start" x="38.5" y="-142.1" font-family="Helvetica,sans-Serif" font-size="8.00" fill="#000000">Matching&lt; THDMMatching,</text>
<text text-anchor="middle" x="87.5" y="-133.1" font-family="Helvetica,sans-Serif" font-size="8.00" fill="#000000"> THDM &gt;</text>
</a>
</g>
</g>
<!-- Node58&#45;&gt;Node47 -->
<g id="edge13" class="edge">
<title>Node58&#45;&gt;Node47</title>
<path fill="none" stroke="#9a32cd" stroke-dasharray="5,2" d="M87.5,-116.3987C87.5,-104.0883 87.5,-89.6721 87.5,-80.6863"/>
<polygon fill="#9a32cd" stroke="#9a32cd" points="84.0001,-116.4853 87.5,-126.4853 91.0001,-116.4854 84.0001,-116.4853"/>
<text text-anchor="middle" x="103.5" y="-101.6" font-family="Helvetica,sans-Serif" font-size="8.00" fill="#000000"> THDMM</text>
</g>
</g>
</svg>
