<?xml version="1.0" encoding="UTF-8" standalone="no"?>
<!DOCTYPE svg PUBLIC "-//W3C//DTD SVG 1.1//EN"
 "http://www.w3.org/Graphics/SVG/1.1/DTD/svg11.dtd">
<!-- Generated by graphviz version 2.40.1 (20161225.0304)
 -->
<!-- Title: GeneralTHDMEWPO.cpp Pages: 1 -->
<svg width="396pt" height="296pt"
 viewBox="0.00 0.00 395.50 296.00" xmlns="http://www.w3.org/2000/svg" xmlns:xlink="http://www.w3.org/1999/xlink">
<g id="graph0" class="graph" transform="scale(1 1) rotate(0) translate(4 292)">
<title>GeneralTHDMEWPO.cpp</title>
<!-- Node0 -->
<g id="node1" class="node">
<title>Node0</title>
<polygon fill="#bfbfbf" stroke="#000000" points="89,-270.5 89,-287.5 197,-287.5 197,-270.5 89,-270.5"/>
<text text-anchor="middle" x="143" y="-277.1" font-family="Helvetica,sans-Serif" font-size="8.00" fill="#000000">GeneralTHDMEWPO.cpp</text>
</g>
<!-- Node1 -->
<g id="node2" class="node">
<title>Node1</title>
<g id="a_node2"><a xlink:href="../../d1/dc7/_general_t_h_d_mcache_8h.html" target="_top" xlink:title="GeneralTHDMcache.h">
<polygon fill="none" stroke="#ff0000" points="109,-162.5 109,-179.5 205,-179.5 205,-162.5 109,-162.5"/>
<text text-anchor="middle" x="157" y="-169.1" font-family="Helvetica,sans-Serif" font-size="8.00" fill="#000000">GeneralTHDMcache.h</text>
</a>
</g>
</g>
<!-- Node0&#45;&gt;Node1 -->
<g id="edge1" class="edge">
<title>Node0&#45;&gt;Node1</title>
<path fill="none" stroke="#191970" d="M137.0213,-270.4005C129.3304,-258.2345 117.6734,-235.3256 124,-216 127.4899,-205.3397 134.5731,-195.1174 141.2855,-187.1175"/>
<polygon fill="#191970" stroke="#191970" points="143.9044,-189.4395 147.9802,-179.66 138.6954,-184.7633 143.9044,-189.4395"/>
</g>
<!-- Node4 -->
<g id="node5" class="node">
<title>Node4</title>
<g id="a_node5"><a xlink:href="../../d0/d9a/_general_t_h_d_m_8h.html" target="_top" xlink:title="GeneralTHDM.h">
<polygon fill="none" stroke="#ff0000" points="133.5,-54.5 133.5,-71.5 208.5,-71.5 208.5,-54.5 133.5,-54.5"/>
<text text-anchor="middle" x="171" y="-61.1" font-family="Helvetica,sans-Serif" font-size="8.00" fill="#000000">GeneralTHDM.h</text>
</a>
</g>
</g>
<!-- Node0&#45;&gt;Node4 -->
<g id="edge15" class="edge">
<title>Node0&#45;&gt;Node4</title>
<path fill="none" stroke="#191970" d="M132.3062,-270.3802C101.5569,-244.5472 17.5588,-165.9716 57,-108 65.485,-95.5285 99.5396,-83.0682 128.2382,-74.4322"/>
<polygon fill="#191970" stroke="#191970" points="129.4999,-77.7099 138.1152,-71.5432 127.5347,-70.9913 129.4999,-77.7099"/>
</g>
<!-- Node5 -->
<g id="node6" class="node">
<title>Node5</title>
<g id="a_node6"><a xlink:href="../../d6/d0a/_standard_model_8h.html" target="_top" xlink:title="StandardModel.h">
<polygon fill="none" stroke="#ff0000" points="132.5,-.5 132.5,-17.5 209.5,-17.5 209.5,-.5 132.5,-.5"/>
<text text-anchor="middle" x="171" y="-7.1" font-family="Helvetica,sans-Serif" font-size="8.00" fill="#000000">StandardModel.h</text>
</a>
</g>
</g>
<!-- Node0&#45;&gt;Node5 -->
<g id="edge12" class="edge">
<title>Node0&#45;&gt;Node5</title>
<path fill="none" stroke="#191970" d="M111.2637,-270.4543C69.1347,-256.9596 0,-226.3781 0,-171 0,-171 0,-171 0,-117 0,-58.7347 71.8464,-30.627 122.3986,-18.0615"/>
<polygon fill="#191970" stroke="#191970" points="123.2675,-21.4527 132.1975,-15.7513 121.6611,-14.6395 123.2675,-21.4527"/>
</g>
<!-- Node59 -->
<g id="node8" class="node">
<title>Node59</title>
<g id="a_node8"><a xlink:href="../../db/d0f/_general_t_h_d_m_e_w_p_o_8h.html" target="_top" xlink:title="GeneralTHDMEWPO.h">
<polygon fill="none" stroke="#ff0000" points="132.5,-216.5 132.5,-233.5 231.5,-233.5 231.5,-216.5 132.5,-216.5"/>
<text text-anchor="middle" x="182" y="-223.1" font-family="Helvetica,sans-Serif" font-size="8.00" fill="#000000">GeneralTHDMEWPO.h</text>
</a>
</g>
</g>
<!-- Node0&#45;&gt;Node59 -->
<g id="edge8" class="edge">
<title>Node0&#45;&gt;Node59</title>
<path fill="none" stroke="#191970" d="M149.4401,-270.083C154.9489,-262.4554 163.0312,-251.2645 169.765,-241.9408"/>
<polygon fill="#191970" stroke="#191970" points="172.6622,-243.9071 175.6798,-233.7511 166.9874,-239.8087 172.6622,-243.9071"/>
</g>
<!-- Node60 -->
<g id="node9" class="node">
<title>Node60</title>
<polygon fill="none" stroke="#bfbfbf" points="250,-216.5 250,-233.5 328,-233.5 328,-216.5 250,-216.5"/>
<text text-anchor="middle" x="289" y="-223.1" font-family="Helvetica,sans-Serif" font-size="8.00" fill="#000000">gsl/gsl_sf_dilog.h</text>
</g>
<!-- Node0&#45;&gt;Node60 -->
<g id="edge13" class="edge">
<title>Node0&#45;&gt;Node60</title>
<path fill="none" stroke="#191970" d="M166.1341,-270.4435C190.4822,-261.4381 229.0071,-247.1891 256.423,-237.049"/>
<polygon fill="#191970" stroke="#191970" points="257.8092,-240.2681 265.9741,-233.5164 255.3809,-233.7028 257.8092,-240.2681"/>
</g>
<!-- Node31 -->
<g id="node10" class="node">
<title>Node31</title>
<polygon fill="none" stroke="#bfbfbf" points="346.5,-216.5 346.5,-233.5 387.5,-233.5 387.5,-216.5 346.5,-216.5"/>
<text text-anchor="middle" x="367" y="-223.1" font-family="Helvetica,sans-Serif" font-size="8.00" fill="#000000">math.h</text>
</g>
<!-- Node0&#45;&gt;Node31 -->
<g id="edge14" class="edge">
<title>Node0&#45;&gt;Node31</title>
<path fill="none" stroke="#191970" d="M183.3116,-270.4324C220.6032,-262.3322 277.7763,-249.474 336.5624,-233.9815"/>
<polygon fill="#191970" stroke="#191970" points="337.6261,-237.3204 346.3921,-231.37 335.8287,-230.5551 337.6261,-237.3204"/>
</g>
<!-- Node2 -->
<g id="node3" class="node">
<title>Node2</title>
<polygon fill="none" stroke="#bfbfbf" points="66,-108.5 66,-125.5 104,-125.5 104,-108.5 66,-108.5"/>
<text text-anchor="middle" x="85" y="-115.1" font-family="Helvetica,sans-Serif" font-size="8.00" fill="#000000">cmath</text>
</g>
<!-- Node1&#45;&gt;Node2 -->
<g id="edge2" class="edge">
<title>Node1&#45;&gt;Node2</title>
<path fill="none" stroke="#191970" d="M145.432,-162.324C134.5798,-154.1849 118.1193,-141.8395 105.1166,-132.0874"/>
<polygon fill="#191970" stroke="#191970" points="106.8786,-129.0339 96.7785,-125.8339 102.6785,-134.6339 106.8786,-129.0339"/>
</g>
<!-- Node3 -->
<g id="node4" class="node">
<title>Node3</title>
<g id="a_node4"><a xlink:href="../../d1/d5a/_general_t_h_d_m_runner_8h.html" target="_top" xlink:title="GeneralTHDMRunner.h">
<polygon fill="none" stroke="#000000" points="160.5,-108.5 160.5,-125.5 261.5,-125.5 261.5,-108.5 160.5,-108.5"/>
<text text-anchor="middle" x="211" y="-115.1" font-family="Helvetica,sans-Serif" font-size="8.00" fill="#000000">GeneralTHDMRunner.h</text>
</a>
</g>
</g>
<!-- Node1&#45;&gt;Node3 -->
<g id="edge3" class="edge">
<title>Node1&#45;&gt;Node3</title>
<path fill="none" stroke="#191970" d="M165.917,-162.083C173.7805,-154.2195 185.4312,-142.5688 194.9187,-133.0813"/>
<polygon fill="#191970" stroke="#191970" points="197.6527,-135.2971 202.2489,-125.7511 192.7029,-130.3473 197.6527,-135.2971"/>
</g>
<!-- Node1&#45;&gt;Node4 -->
<g id="edge7" class="edge">
<title>Node1&#45;&gt;Node4</title>
<path fill="none" stroke="#191970" d="M154.811,-162.3493C152.0557,-150.1224 148.1246,-127.1416 152,-108 153.8931,-98.6493 157.7916,-88.8267 161.5674,-80.7526"/>
<polygon fill="#191970" stroke="#191970" points="164.7876,-82.1381 166.1241,-71.6279 158.5251,-79.0106 164.7876,-82.1381"/>
</g>
<!-- Node56 -->
<g id="node7" class="node">
<title>Node56</title>
<g id="a_node7"><a xlink:href="../../d3/d6b/_p_vfunctions_8h.html" target="_top" xlink:title="PVfunctions.h">
<polygon fill="none" stroke="#ff0000" points="280,-108.5 280,-125.5 346,-125.5 346,-108.5 280,-108.5"/>
<text text-anchor="middle" x="313" y="-115.1" font-family="Helvetica,sans-Serif" font-size="8.00" fill="#000000">PVfunctions.h</text>
</a>
</g>
</g>
<!-- Node1&#45;&gt;Node56 -->
<g id="edge6" class="edge">
<title>Node1&#45;&gt;Node56</title>
<path fill="none" stroke="#191970" d="M181.7187,-162.4435C207.8485,-153.3986 249.2594,-139.064 278.5764,-128.9158"/>
<polygon fill="#191970" stroke="#191970" points="280.092,-132.0951 288.397,-125.5164 277.8022,-125.4801 280.092,-132.0951"/>
</g>
<!-- Node3&#45;&gt;Node4 -->
<g id="edge4" class="edge">
<title>Node3&#45;&gt;Node4</title>
<path fill="none" stroke="#191970" d="M204.3948,-108.083C198.7448,-100.4554 190.4552,-89.2645 183.5488,-79.9408"/>
<polygon fill="#191970" stroke="#191970" points="186.2471,-77.7034 177.4823,-71.7511 180.6221,-81.87 186.2471,-77.7034"/>
</g>
<!-- Node4&#45;&gt;Node5 -->
<g id="edge5" class="edge">
<title>Node4&#45;&gt;Node5</title>
<path fill="none" stroke="#191970" d="M171,-54.083C171,-47.0059 171,-36.8611 171,-27.9865"/>
<polygon fill="#191970" stroke="#191970" points="174.5001,-27.751 171,-17.7511 167.5001,-27.7511 174.5001,-27.751"/>
</g>
<!-- Node59&#45;&gt;Node1 -->
<g id="edge10" class="edge">
<title>Node59&#45;&gt;Node1</title>
<path fill="none" stroke="#191970" d="M177.8718,-216.083C174.4861,-208.77 169.584,-198.1814 165.3812,-189.1034"/>
<polygon fill="#191970" stroke="#191970" points="168.4289,-187.3553 161.0514,-179.7511 162.0766,-190.2962 168.4289,-187.3553"/>
</g>
<!-- Node59&#45;&gt;Node4 -->
<g id="edge9" class="edge">
<title>Node59&#45;&gt;Node4</title>
<path fill="none" stroke="#191970" d="M219.0491,-216.4858C281.6366,-200.3911 397.5354,-162.1917 355,-108 338.3658,-86.8074 267.6525,-74.309 218.8976,-68.0569"/>
<polygon fill="#191970" stroke="#191970" points="219.208,-64.5688 208.8544,-66.8167 218.3501,-71.516 219.208,-64.5688"/>
</g>
<!-- Node59&#45;&gt;Node5 -->
<g id="edge11" class="edge">
<title>Node59&#45;&gt;Node5</title>
<path fill="none" stroke="#191970" d="M230.8696,-216.483C273.1912,-208.2735 330.3151,-194.9251 348,-180 373.8872,-158.1526 390.9231,-136.744 373,-108 339.6248,-54.4749 267.9584,-29.0822 219.6018,-17.6294"/>
<polygon fill="#191970" stroke="#191970" points="220.1834,-14.1728 209.659,-15.392 218.6466,-21.0021 220.1834,-14.1728"/>
</g>
</g>
</svg>
