<?xml version="1.0" encoding="UTF-8" standalone="no"?>
<!DOCTYPE svg PUBLIC "-//W3C//DTD SVG 1.1//EN"
 "http://www.w3.org/Graphics/SVG/1.1/DTD/svg11.dtd">
<!-- Generated by graphviz version 2.38.0 (20140413.2041)
 -->
<!-- Title: StandardModel Pages: 1 -->
<svg width="464pt" height="188pt"
 viewBox="0.00 0.00 463.50 188.00" xmlns="http://www.w3.org/2000/svg" xmlns:xlink="http://www.w3.org/1999/xlink">
<g id="graph0" class="graph" transform="scale(1 1) rotate(0) translate(4 184)">
<title>StandardModel</title>
<!-- Node1 -->
<g id="node1" class="node"><title>Node1</title>
<polygon fill="#bfbfbf" stroke="black" points="207,-54.5 207,-71.5 278,-71.5 278,-54.5 207,-54.5"/>
<text text-anchor="middle" x="242.5" y="-61.1" font-family="Helvetica,sans-Serif" font-size="8.00">StandardModel</text>
</g>
<!-- Node4 -->
<g id="node4" class="node"><title>Node4</title>
<g id="a_node4"><a xlink:href="../../d6/d75/class_flavour_wilson_coefficient.html" target="_top" xlink:title="Model for NP contributions to flavour. ">
<polygon fill="none" stroke="black" points="0,-0.5 0,-17.5 105,-17.5 105,-0.5 0,-0.5"/>
<text text-anchor="middle" x="52.5" y="-7.1" font-family="Helvetica,sans-Serif" font-size="8.00">FlavourWilsonCoefficient</text>
</a>
</g>
</g>
<!-- Node1&#45;&gt;Node4 -->
<g id="edge3" class="edge"><title>Node1&#45;&gt;Node4</title>
<path fill="none" stroke="midnightblue" d="M205.029,-51.7448C168.278,-41.6867 113.103,-26.5861 80.161,-17.5704"/>
<polygon fill="midnightblue" stroke="midnightblue" points="204.303,-55.1748 214.872,-54.4388 206.151,-48.4231 204.303,-55.1748"/>
</g>
<!-- Node5 -->
<g id="node5" class="node"><title>Node5</title>
<g id="a_node5"><a xlink:href="../../dc/d20/classmy_model.html" target="_top" xlink:title="My own Model. ">
<polygon fill="none" stroke="black" points="123,-0.5 123,-17.5 172,-17.5 172,-0.5 123,-0.5"/>
<text text-anchor="middle" x="147.5" y="-7.1" font-family="Helvetica,sans-Serif" font-size="8.00">myModel</text>
</a>
</g>
</g>
<!-- Node1&#45;&gt;Node5 -->
<g id="edge4" class="edge"><title>Node1&#45;&gt;Node5</title>
<path fill="none" stroke="midnightblue" d="M219.656,-49.4957C201.445,-39.5277 176.545,-25.8981 161.266,-17.5352"/>
<polygon fill="midnightblue" stroke="midnightblue" points="218.03,-52.5959 228.482,-54.3272 221.391,-46.4555 218.03,-52.5959"/>
</g>
<!-- Node6 -->
<g id="node6" class="node"><title>Node6</title>
<g id="a_node6"><a xlink:href="../../d2/df3/class_n_pbase.html" target="_top" xlink:title="The auxiliary base model class for other model classes. ">
<polygon fill="none" stroke="red" points="190,-0.5 190,-17.5 235,-17.5 235,-0.5 190,-0.5"/>
<text text-anchor="middle" x="212.5" y="-7.1" font-family="Helvetica,sans-Serif" font-size="8.00">NPbase</text>
</a>
</g>
</g>
<!-- Node1&#45;&gt;Node6 -->
<g id="edge5" class="edge"><title>Node1&#45;&gt;Node6</title>
<path fill="none" stroke="midnightblue" d="M233.009,-45.5483C227.633,-36.2304 221.161,-25.0123 216.945,-17.7043"/>
<polygon fill="midnightblue" stroke="midnightblue" points="230.044,-47.4144 238.073,-54.3272 236.108,-43.9163 230.044,-47.4144"/>
</g>
<!-- Node7 -->
<g id="node7" class="node"><title>Node7</title>
<g id="a_node7"><a xlink:href="../../dc/d6f/class_s_u_s_y.html" target="_top" xlink:title="A base class for SUSY models. ">
<polygon fill="none" stroke="red" points="253.5,-0.5 253.5,-17.5 291.5,-17.5 291.5,-0.5 253.5,-0.5"/>
<text text-anchor="middle" x="272.5" y="-7.1" font-family="Helvetica,sans-Serif" font-size="8.00">SUSY</text>
</a>
</g>
</g>
<!-- Node1&#45;&gt;Node7 -->
<g id="edge6" class="edge"><title>Node1&#45;&gt;Node7</title>
<path fill="none" stroke="midnightblue" d="M251.991,-45.5483C257.367,-36.2304 263.839,-25.0123 268.055,-17.7043"/>
<polygon fill="midnightblue" stroke="midnightblue" points="248.892,-43.9163 246.927,-54.3272 254.956,-47.4144 248.892,-43.9163"/>
</g>
<!-- Node8 -->
<g id="node8" class="node"><title>Node8</title>
<g id="a_node8"><a xlink:href="../../d9/d3b/class_s_u_s_y_mass_insertion.html" target="_top" xlink:title="SUSYMassInsertion">
<polygon fill="none" stroke="black" points="309.5,-0.5 309.5,-17.5 397.5,-17.5 397.5,-0.5 309.5,-0.5"/>
<text text-anchor="middle" x="353.5" y="-7.1" font-family="Helvetica,sans-Serif" font-size="8.00">SUSYMassInsertion</text>
</a>
</g>
</g>
<!-- Node1&#45;&gt;Node8 -->
<g id="edge7" class="edge"><title>Node1&#45;&gt;Node8</title>
<path fill="none" stroke="midnightblue" d="M268.029,-50.0406C289.398,-40.0296 319.236,-26.0516 337.415,-17.5352"/>
<polygon fill="midnightblue" stroke="midnightblue" points="266.449,-46.9155 258.878,-54.3272 269.419,-53.2544 266.449,-46.9155"/>
</g>
<!-- Node9 -->
<g id="node9" class="node"><title>Node9</title>
<g id="a_node9"><a xlink:href="../../d0/d52/class_t_h_d_m.html" target="_top" xlink:title="A base class &#160;symmetric Two&#45;Higgs&#45;Doublet models. ">
<polygon fill="none" stroke="black" points="415.5,-0.5 415.5,-17.5 455.5,-17.5 455.5,-0.5 415.5,-0.5"/>
<text text-anchor="middle" x="435.5" y="-7.1" font-family="Helvetica,sans-Serif" font-size="8.00">THDM</text>
</a>
</g>
</g>
<!-- Node1&#45;&gt;Node9 -->
<g id="edge8" class="edge"><title>Node1&#45;&gt;Node9</title>
<path fill="none" stroke="midnightblue" d="M280.732,-51.8242C313.983,-42.9547 363.45,-29.7128 406.5,-18 409.322,-17.2322 412.297,-16.4174 415.224,-15.6131"/>
<polygon fill="midnightblue" stroke="midnightblue" points="279.72,-48.4718 270.959,-54.4299 281.523,-55.2356 279.72,-48.4718"/>
</g>
<!-- Node2 -->
<g id="node2" class="node"><title>Node2</title>
<g id="a_node2"><a xlink:href="../../dd/dfa/class_q_c_d.html" target="_top" xlink:title="A class for parameters related to QCD, hadrons and quarks. ">
<polygon fill="none" stroke="black" points="225.5,-108.5 225.5,-125.5 259.5,-125.5 259.5,-108.5 225.5,-108.5"/>
<text text-anchor="middle" x="242.5" y="-115.1" font-family="Helvetica,sans-Serif" font-size="8.00">QCD</text>
</a>
</g>
</g>
<!-- Node2&#45;&gt;Node1 -->
<g id="edge1" class="edge"><title>Node2&#45;&gt;Node1</title>
<path fill="none" stroke="midnightblue" d="M242.5,-98.0621C242.5,-89.0603 242.5,-78.6277 242.5,-71.7043"/>
<polygon fill="midnightblue" stroke="midnightblue" points="239,-98.3272 242.5,-108.327 246,-98.3273 239,-98.3272"/>
</g>
<!-- Node3 -->
<g id="node3" class="node"><title>Node3</title>
<g id="a_node3"><a xlink:href="../../d0/de3/class_model.html" target="_top" xlink:title="A class for the template of models. ">
<polygon fill="none" stroke="black" points="223.5,-162.5 223.5,-179.5 261.5,-179.5 261.5,-162.5 223.5,-162.5"/>
<text text-anchor="middle" x="242.5" y="-169.1" font-family="Helvetica,sans-Serif" font-size="8.00">Model</text>
</a>
</g>
</g>
<!-- Node3&#45;&gt;Node2 -->
<g id="edge2" class="edge"><title>Node3&#45;&gt;Node2</title>
<path fill="none" stroke="midnightblue" d="M242.5,-152.062C242.5,-143.06 242.5,-132.628 242.5,-125.704"/>
<polygon fill="midnightblue" stroke="midnightblue" points="239,-152.327 242.5,-162.327 246,-152.327 239,-152.327"/>
</g>
</g>
</svg>
