<?xml version="1.0" encoding="UTF-8" standalone="no"?>
<!DOCTYPE svg PUBLIC "-//W3C//DTD SVG 1.1//EN"
 "http://www.w3.org/Graphics/SVG/1.1/DTD/svg11.dtd">
<!-- Generated by graphviz version 2.40.1 (20161225.0304)
 -->
<!-- Title: EWSMTwoLoopQCD.h Pages: 1 -->
<svg width="407pt" height="80pt"
 viewBox="0.00 0.00 406.50 80.00" xmlns="http://www.w3.org/2000/svg" xmlns:xlink="http://www.w3.org/1999/xlink">
<g id="graph0" class="graph" transform="scale(1 1) rotate(0) translate(4 76)">
<title>EWSMTwoLoopQCD.h</title>
<!-- Node54 -->
<g id="node1" class="node">
<title>Node54</title>
<polygon fill="#bfbfbf" stroke="#000000" points="164,-54.5 164,-71.5 263,-71.5 263,-54.5 164,-54.5"/>
<text text-anchor="middle" x="213.5" y="-61.1" font-family="Helvetica,sans-Serif" font-size="8.00" fill="#000000">EWSMTwoLoopQCD.h</text>
</g>
<!-- Node55 -->
<g id="node2" class="node">
<title>Node55</title>
<g id="a_node2"><a xlink:href="../../dd/d9d/_e_w_s_m___output_8cpp.html" target="_top" xlink:title="EWSM_Output.cpp">
<polygon fill="none" stroke="#000000" points="0,-.5 0,-17.5 85,-17.5 85,-.5 0,-.5"/>
<text text-anchor="middle" x="42.5" y="-7.1" font-family="Helvetica,sans-Serif" font-size="8.00" fill="#000000">EWSM_Output.cpp</text>
</a>
</g>
</g>
<!-- Node54&#45;&gt;Node55 -->
<g id="edge1" class="edge">
<title>Node54&#45;&gt;Node55</title>
<path fill="none" stroke="#191970" d="M176.464,-51.3044C144.2431,-41.1294 98.3112,-26.6246 69.4687,-17.5164"/>
<polygon fill="#191970" stroke="#191970" points="175.8147,-54.7697 186.4045,-54.4435 177.9227,-48.0946 175.8147,-54.7697"/>
</g>
<!-- Node56 -->
<g id="node3" class="node">
<title>Node56</title>
<g id="a_node3"><a xlink:href="../../d2/d7f/_e_w_s_m_two_loop_q_c_d_8cpp.html" target="_top" xlink:title="EWSMTwoLoopQCD.cpp">
<polygon fill="none" stroke="#000000" points="103,-.5 103,-17.5 210,-17.5 210,-.5 103,-.5"/>
<text text-anchor="middle" x="156.5" y="-7.1" font-family="Helvetica,sans-Serif" font-size="8.00" fill="#000000">EWSMTwoLoopQCD.cpp</text>
</a>
</g>
</g>
<!-- Node54&#45;&gt;Node56 -->
<g id="edge2" class="edge">
<title>Node54&#45;&gt;Node56</title>
<path fill="none" stroke="#191970" d="M196.8785,-47.2533C186.766,-37.6731 174.2234,-25.7906 165.8247,-17.8339"/>
<polygon fill="#191970" stroke="#191970" points="194.6753,-49.9873 204.342,-54.324 199.4895,-44.9056 194.6753,-49.9873"/>
</g>
<!-- Node57 -->
<g id="node4" class="node">
<title>Node57</title>
<g id="a_node4"><a xlink:href="../../dd/df3/_standard_model_2src_2_standard_model_8cpp.html" target="_top" xlink:title="StandardModel.cpp">
<polygon fill="none" stroke="#000000" points="228.5,-.5 228.5,-17.5 314.5,-17.5 314.5,-.5 228.5,-.5"/>
<text text-anchor="middle" x="271.5" y="-7.1" font-family="Helvetica,sans-Serif" font-size="8.00" fill="#000000">StandardModel.cpp</text>
</a>
</g>
</g>
<!-- Node54&#45;&gt;Node57 -->
<g id="edge3" class="edge">
<title>Node54&#45;&gt;Node57</title>
<path fill="none" stroke="#191970" d="M230.4131,-47.2533C240.703,-37.6731 253.4657,-25.7906 262.0117,-17.8339"/>
<polygon fill="#191970" stroke="#191970" points="227.7527,-44.9481 222.8187,-54.324 232.5226,-50.0714 227.7527,-44.9481"/>
</g>
<!-- Node58 -->
<g id="node5" class="node">
<title>Node58</title>
<g id="a_node5"><a xlink:href="../../d0/dc3/_e_w_s_u_s_y_8cpp.html" target="_top" xlink:title="EWSUSY.cpp">
<polygon fill="none" stroke="#000000" points="332.5,-.5 332.5,-17.5 398.5,-17.5 398.5,-.5 332.5,-.5"/>
<text text-anchor="middle" x="365.5" y="-7.1" font-family="Helvetica,sans-Serif" font-size="8.00" fill="#000000">EWSUSY.cpp</text>
</a>
</g>
</g>
<!-- Node54&#45;&gt;Node58 -->
<g id="edge4" class="edge">
<title>Node54&#45;&gt;Node58</title>
<path fill="none" stroke="#191970" d="M247.1675,-51.0392C275.7676,-40.8786 316.112,-26.5457 341.5278,-17.5164"/>
<polygon fill="#191970" stroke="#191970" points="245.8362,-47.7978 237.5849,-54.4435 248.1796,-54.3939 245.8362,-47.7978"/>
</g>
</g>
</svg>
