<?xml version="1.0" encoding="UTF-8" standalone="no"?>
<!DOCTYPE svg PUBLIC "-//W3C//DTD SVG 1.1//EN"
 "http://www.w3.org/Graphics/SVG/1.1/DTD/svg11.dtd">
<!-- Generated by graphviz version 2.40.1 (20161225.0304)
 -->
<!-- Title: positivity2 Pages: 1 -->
<svg width="460pt" height="515pt"
 viewBox="0.00 0.00 459.50 515.00" xmlns="http://www.w3.org/2000/svg" xmlns:xlink="http://www.w3.org/1999/xlink">
<g id="graph0" class="graph" transform="scale(1 1) rotate(0) translate(4 511)">
<title>positivity2</title>
<!-- Node3 -->
<g id="node1" class="node">
<title>Node3</title>
<polygon fill="#bfbfbf" stroke="#000000" points="290.5,-.5 290.5,-17.5 342.5,-17.5 342.5,-.5 290.5,-.5"/>
<text text-anchor="middle" x="316.5" y="-7.1" font-family="Helvetica,sans-Serif" font-size="8.00" fill="#000000">positivity2</text>
</g>
<!-- Node4 -->
<g id="node2" class="node">
<title>Node4</title>
<g id="a_node2"><a xlink:href="../../d5/d19/classpositivity.html" target="_top" xlink:title="An observable class for the positivity conditions of the Higgs potential. ">
<polygon fill="none" stroke="#000000" points="293,-55.5 293,-72.5 340,-72.5 340,-55.5 293,-55.5"/>
<text text-anchor="middle" x="316.5" y="-62.1" font-family="Helvetica,sans-Serif" font-size="8.00" fill="#000000">positivity</text>
</a>
</g>
</g>
<!-- Node4&#45;&gt;Node3 -->
<g id="edge1" class="edge">
<title>Node4&#45;&gt;Node3</title>
<path fill="none" stroke="#191970" d="M316.5,-45.1166C316.5,-35.8173 316.5,-25.0557 316.5,-17.7149"/>
<polygon fill="#191970" stroke="#191970" points="313.0001,-45.4062 316.5,-55.4063 320.0001,-45.4063 313.0001,-45.4062"/>
</g>
<!-- Node5 -->
<g id="node3" class="node">
<title>Node5</title>
<g id="a_node3"><a xlink:href="../../dc/d1f/class_th_observable.html" target="_top" xlink:title="A class for a model prediction of an observable. ">
<polygon fill="none" stroke="#000000" points="315,-371.5 315,-388.5 382,-388.5 382,-371.5 315,-371.5"/>
<text text-anchor="middle" x="348.5" y="-378.1" font-family="Helvetica,sans-Serif" font-size="8.00" fill="#000000">ThObservable</text>
</a>
</g>
</g>
<!-- Node5&#45;&gt;Node4 -->
<g id="edge2" class="edge">
<title>Node5&#45;&gt;Node4</title>
<path fill="none" stroke="#191970" d="M392.3493,-373.9393C420.3784,-367.3098 451.5,-353.526 451.5,-325 451.5,-325 451.5,-325 451.5,-127 451.5,-102.6879 378.6936,-80.1079 340.0152,-69.8276"/>
<polygon fill="#191970" stroke="#191970" points="391.2897,-370.5857 382.2261,-376.0721 392.7328,-377.4353 391.2897,-370.5857"/>
</g>
<!-- Node49 -->
<g id="node6" class="node">
<title>Node49</title>
<g id="a_node6"><a xlink:href="../../d2/ded/classlambda1.html" target="_top" xlink:title="An observable class for the quartic Higgs potential coupling . ">
<polygon fill="none" stroke="#000000" points="275,-316.5 275,-333.5 322,-333.5 322,-316.5 275,-316.5"/>
<text text-anchor="middle" x="298.5" y="-323.1" font-family="Helvetica,sans-Serif" font-size="8.00" fill="#000000">lambda1</text>
</a>
</g>
</g>
<!-- Node5&#45;&gt;Node49 -->
<g id="edge6" class="edge">
<title>Node5&#45;&gt;Node49</title>
<path fill="none" stroke="#191970" d="M333.7983,-363.8281C324.8449,-353.9794 313.7561,-341.7817 306.4226,-333.7149"/>
<polygon fill="#191970" stroke="#191970" points="331.3709,-366.3612 340.6875,-371.4063 336.5505,-361.6525 331.3709,-366.3612"/>
</g>
<!-- Node57 -->
<g id="node9" class="node">
<title>Node57</title>
<g id="a_node9"><a xlink:href="../../db/d8b/classlambda2.html" target="_top" xlink:title="An observable class for the quartic Higgs potential coupling . ">
<polygon fill="none" stroke="#000000" points="243,-118.5 243,-135.5 290,-135.5 290,-118.5 243,-118.5"/>
<text text-anchor="middle" x="266.5" y="-125.1" font-family="Helvetica,sans-Serif" font-size="8.00" fill="#000000">lambda2</text>
</a>
</g>
</g>
<!-- Node5&#45;&gt;Node57 -->
<g id="edge13" class="edge">
<title>Node5&#45;&gt;Node57</title>
<path fill="none" stroke="#191970" d="M380.5834,-366.9213C396.9711,-357.9061 413.5,-344.0832 413.5,-325 413.5,-325 413.5,-325 413.5,-190 413.5,-163.4836 331.6716,-141.4653 290.1181,-131.9936"/>
<polygon fill="#191970" stroke="#191970" points="378.9618,-363.8191 371.5996,-371.438 382.1062,-370.0732 378.9618,-363.8191"/>
</g>
<!-- Node6 -->
<g id="node4" class="node">
<title>Node6</title>
<g id="a_node4"><a xlink:href="../../dc/dd5/class_standard_model.html" target="_top" xlink:title="A model class for the Standard Model. ">
<polygon fill="none" stroke="#ff0000" points="0,-434.5 0,-451.5 71,-451.5 71,-434.5 0,-434.5"/>
<text text-anchor="middle" x="35.5" y="-441.1" font-family="Helvetica,sans-Serif" font-size="8.00" fill="#000000">StandardModel</text>
</a>
</g>
</g>
<!-- Node6&#45;&gt;Node5 -->
<g id="edge3" class="edge">
<title>Node6&#45;&gt;Node5</title>
<path fill="none" stroke="#9a32cd" stroke-dasharray="5,2" d="M81.2351,-433.7945C144.8154,-420.9972 258.4382,-398.1275 314.834,-386.7762"/>
<polygon fill="#9a32cd" stroke="#9a32cd" points="80.2131,-430.43 71.1003,-435.8344 81.5944,-437.2923 80.2131,-430.43"/>
<text text-anchor="middle" x="218" y="-409.6" font-family="Helvetica,sans-Serif" font-size="8.00" fill="#000000"> SM</text>
</g>
<!-- Node50 -->
<g id="node7" class="node">
<title>Node50</title>
<g id="a_node7"><a xlink:href="../../d0/d52/class_t_h_d_m.html" target="_top" xlink:title="A base class for &#160;symmetric Two&#45;Higgs&#45;Doublet models. ">
<polygon fill="none" stroke="#000000" points="133.5,-181.5 133.5,-198.5 173.5,-198.5 173.5,-181.5 133.5,-181.5"/>
<text text-anchor="middle" x="153.5" y="-188.1" font-family="Helvetica,sans-Serif" font-size="8.00" fill="#000000">THDM</text>
</a>
</g>
</g>
<!-- Node6&#45;&gt;Node50 -->
<g id="edge8" class="edge">
<title>Node6&#45;&gt;Node50</title>
<path fill="none" stroke="#191970" d="M28.2607,-424.6C24.0239,-412.1992 19.5,-395.3613 19.5,-380 19.5,-380 19.5,-380 19.5,-257.5 19.5,-207.0957 96.0573,-194.3242 133.4388,-191.0924"/>
<polygon fill="#191970" stroke="#191970" points="25.056,-426.0266 31.7891,-434.2069 31.6268,-423.6133 25.056,-426.0266"/>
</g>
<!-- Node7 -->
<g id="node5" class="node">
<title>Node7</title>
<g id="a_node5"><a xlink:href="../../dd/dfa/class_q_c_d.html" target="_top" xlink:title="A class for parameters related to QCD, hadrons and quarks. ">
<polygon fill="none" stroke="#ff0000" points="18.5,-489.5 18.5,-506.5 52.5,-506.5 52.5,-489.5 18.5,-489.5"/>
<text text-anchor="middle" x="35.5" y="-496.1" font-family="Helvetica,sans-Serif" font-size="8.00" fill="#000000">QCD</text>
</a>
</g>
</g>
<!-- Node7&#45;&gt;Node6 -->
<g id="edge4" class="edge">
<title>Node7&#45;&gt;Node6</title>
<path fill="none" stroke="#191970" d="M35.5,-479.1166C35.5,-469.8173 35.5,-459.0557 35.5,-451.7149"/>
<polygon fill="#191970" stroke="#191970" points="32.0001,-479.4062 35.5,-489.4063 39.0001,-479.4063 32.0001,-479.4062"/>
</g>
<!-- Node49&#45;&gt;Node4 -->
<g id="edge5" class="edge">
<title>Node49&#45;&gt;Node4</title>
<path fill="none" stroke="#9a32cd" stroke-dasharray="5,2" d="M317.9416,-309.4224C321.4639,-305.9417 324.8534,-302.0665 327.5,-298 337.8887,-282.0378 341.5,-276.5451 341.5,-257.5 341.5,-257.5 341.5,-257.5 341.5,-127 341.5,-106.2897 329.6836,-84.2787 322.2983,-72.5444"/>
<polygon fill="#9a32cd" stroke="#9a32cd" points="315.3518,-307.0442 310.256,-316.3331 320.0322,-312.2495 315.3518,-307.0442"/>
<text text-anchor="middle" x="363.5" y="-188.1" font-family="Helvetica,sans-Serif" font-size="8.00" fill="#000000"> mylambda1</text>
</g>
<!-- Node51 -->
<g id="node8" class="node">
<title>Node51</title>
<g id="a_node8"><a xlink:href="../../d5/df2/class_t_h_d_mcache.html" target="_top" xlink:title="A class for the caching of some THDM objects. ">
<polygon fill="none" stroke="#ff0000" points="252,-249 252,-266 313,-266 313,-249 252,-249"/>
<text text-anchor="middle" x="282.5" y="-255.6" font-family="Helvetica,sans-Serif" font-size="8.00" fill="#000000">THDMcache</text>
</a>
</g>
</g>
<!-- Node49&#45;&gt;Node51 -->
<g id="edge10" class="edge">
<title>Node49&#45;&gt;Node51</title>
<path fill="none" stroke="#9a32cd" stroke-dasharray="5,2" d="M287.2184,-307.5105C285.7039,-304.4455 284.3736,-301.2078 283.5,-298 280.5799,-287.2778 280.8834,-274.3635 281.5437,-266.0473"/>
<polygon fill="#9a32cd" stroke="#9a32cd" points="284.3429,-309.532 292.3527,-316.4669 290.4158,-306.0506 284.3429,-309.532"/>
<text text-anchor="middle" x="305.5" y="-291.6" font-family="Helvetica,sans-Serif" font-size="8.00" fill="#000000"> mylambda1</text>
</g>
<!-- Node50&#45;&gt;Node4 -->
<g id="edge16" class="edge">
<title>Node50&#45;&gt;Node4</title>
<path fill="none" stroke="#9a32cd" stroke-dasharray="5,2" d="M161.0838,-172.0202C168.5875,-156.0578 181.4197,-133.0014 198.5,-118 226.4303,-93.4692 267.3763,-78.1274 292.9572,-70.32"/>
<polygon fill="#9a32cd" stroke="#9a32cd" points="157.8086,-170.771 156.9311,-181.3295 164.2014,-173.6228 157.8086,-170.771"/>
<text text-anchor="middle" x="216.5" y="-125.1" font-family="Helvetica,sans-Serif" font-size="8.00" fill="#000000"> myTHDM</text>
</g>
<!-- Node50&#45;&gt;Node49 -->
<g id="edge7" class="edge">
<title>Node50&#45;&gt;Node49</title>
<path fill="none" stroke="#9a32cd" stroke-dasharray="5,2" d="M123.8305,-199.2231C113.1907,-203.4927 101.5896,-209.3479 92.5,-217 73.1467,-233.2927 58.8473,-251.1255 74.5,-271 99.3127,-302.5052 222.6618,-317.7844 274.979,-322.9287"/>
<polygon fill="#9a32cd" stroke="#9a32cd" points="125.0695,-202.4966 133.2318,-195.7418 122.6387,-195.9322 125.0695,-202.4966"/>
<text text-anchor="middle" x="92.5" y="-255.6" font-family="Helvetica,sans-Serif" font-size="8.00" fill="#000000"> myTHDM</text>
</g>
<!-- Node50&#45;&gt;Node51 -->
<g id="edge11" class="edge">
<title>Node50&#45;&gt;Node51</title>
<path fill="none" stroke="#9a32cd" stroke-dasharray="5,2" d="M151.4527,-208.8546C151.7811,-214.991 153.3294,-221.3991 157.5,-226 183.4348,-254.6103 205.2536,-233.8084 242.5,-244 247.7314,-245.4314 253.2806,-247.1634 258.5269,-248.9024"/>
<polygon fill="#9a32cd" stroke="#9a32cd" points="154.9625,-208.6867 151.8761,-198.5514 147.9684,-208.3993 154.9625,-208.6867"/>
<text text-anchor="middle" x="175.5" y="-219.6" font-family="Helvetica,sans-Serif" font-size="8.00" fill="#000000"> myTHDM</text>
</g>
<!-- Node50&#45;&gt;Node57 -->
<g id="edge14" class="edge">
<title>Node50&#45;&gt;Node57</title>
<path fill="none" stroke="#9a32cd" stroke-dasharray="5,2" d="M175.3472,-175.7268C186.0871,-168.8947 199.3126,-160.752 211.5,-154 223.4099,-147.4017 237.1599,-140.6517 247.9324,-135.5513"/>
<polygon fill="#9a32cd" stroke="#9a32cd" points="173.1569,-172.9739 166.6375,-181.3255 176.9421,-178.8623 173.1569,-172.9739"/>
<text text-anchor="middle" x="229.5" y="-156.6" font-family="Helvetica,sans-Serif" font-size="8.00" fill="#000000"> myTHDM</text>
</g>
<!-- Node51&#45;&gt;Node50 -->
<g id="edge9" class="edge">
<title>Node51&#45;&gt;Node50</title>
<path fill="none" stroke="#9a32cd" stroke-dasharray="5,2" d="M252.9029,-244.8635C240.5683,-239.3726 226.1899,-232.6767 213.5,-226 197.1591,-217.4024 179.0707,-206.323 167.0707,-198.74"/>
<polygon fill="#9a32cd" stroke="#9a32cd" points="251.7222,-248.1676 262.2854,-248.9853 254.5376,-241.7587 251.7222,-248.1676"/>
<text text-anchor="middle" x="242.5" y="-219.6" font-family="Helvetica,sans-Serif" font-size="8.00" fill="#000000"> myTHDMcache</text>
</g>
<!-- Node57&#45;&gt;Node4 -->
<g id="edge17" class="edge">
<title>Node57&#45;&gt;Node4</title>
<path fill="none" stroke="#9a32cd" stroke-dasharray="5,2" d="M273.1146,-109.0088C275.8153,-102.9523 279.3024,-96.3738 283.5,-91 289.0593,-83.8829 296.8146,-77.4173 303.4102,-72.5986"/>
<polygon fill="#9a32cd" stroke="#9a32cd" points="269.8199,-107.8207 269.3252,-118.404 276.3117,-110.4392 269.8199,-107.8207"/>
<text text-anchor="middle" x="305.5" y="-93.6" font-family="Helvetica,sans-Serif" font-size="8.00" fill="#000000"> mylambda2</text>
</g>
<!-- Node57&#45;&gt;Node51 -->
<g id="edge12" class="edge">
<title>Node57&#45;&gt;Node51</title>
<path fill="none" stroke="#9a32cd" stroke-dasharray="5,2" d="M268.7969,-145.7343C272.3147,-174.426 278.897,-228.1128 281.4502,-248.9375"/>
<polygon fill="#9a32cd" stroke="#9a32cd" points="272.2657,-145.2648 267.5746,-135.7651 265.3177,-146.1167 272.2657,-145.2648"/>
<text text-anchor="middle" x="296.5" y="-188.1" font-family="Helvetica,sans-Serif" font-size="8.00" fill="#000000"> mylambda2</text>
</g>
<!-- Node60 -->
<g id="node10" class="node">
<title>Node60</title>
<g id="a_node10"><a xlink:href="../../d5/d76/class_matching.html" target="_top" xlink:title="Matching\&lt; THDMMatching,\l THDM \&gt;">
<polygon fill="none" stroke="#ff0000" points="119.5,-244.5 119.5,-270.5 233.5,-270.5 233.5,-244.5 119.5,-244.5"/>
<text text-anchor="start" x="127.5" y="-260.1" font-family="Helvetica,sans-Serif" font-size="8.00" fill="#000000">Matching&lt; THDMMatching,</text>
<text text-anchor="middle" x="176.5" y="-251.1" font-family="Helvetica,sans-Serif" font-size="8.00" fill="#000000"> THDM &gt;</text>
</a>
</g>
</g>
<!-- Node60&#45;&gt;Node50 -->
<g id="edge15" class="edge">
<title>Node60&#45;&gt;Node50</title>
<path fill="none" stroke="#9a32cd" stroke-dasharray="5,2" d="M112.4495,-239.0569C107.4168,-235.4536 102.9555,-231.147 99.5,-226 89.2631,-210.7518 113.9544,-200.3264 133.2452,-194.7641"/>
<polygon fill="#9a32cd" stroke="#9a32cd" points="111.0179,-242.2823 121.382,-244.4812 114.6512,-236.2991 111.0179,-242.2823"/>
<text text-anchor="middle" x="115.5" y="-219.6" font-family="Helvetica,sans-Serif" font-size="8.00" fill="#000000"> THDMM</text>
</g>
</g>
</svg>
