<?xml version="1.0" encoding="UTF-8" standalone="no"?>
<!DOCTYPE svg PUBLIC "-//W3C//DTD SVG 1.1//EN"
 "http://www.w3.org/Graphics/SVG/1.1/DTD/svg11.dtd">
<!-- Generated by graphviz version 2.40.1 (20161225.0304)
 -->
<!-- Title: NPZbbbarLinearized Pages: 1 -->
<svg width="98pt" height="242pt"
 viewBox="0.00 0.00 98.00 242.00" xmlns="http://www.w3.org/2000/svg" xmlns:xlink="http://www.w3.org/1999/xlink">
<g id="graph0" class="graph" transform="scale(1 1) rotate(0) translate(4 238)">
<title>NPZbbbarLinearized</title>
<!-- Node0 -->
<g id="node1" class="node">
<title>Node0</title>
<polygon fill="#bfbfbf" stroke="#000000" points="0,-.5 0,-17.5 90,-17.5 90,-.5 0,-.5"/>
<text text-anchor="middle" x="45" y="-7.1" font-family="Helvetica,sans-Serif" font-size="8.00" fill="#000000">NPZbbbarLinearized</text>
</g>
<!-- Node1 -->
<g id="node2" class="node">
<title>Node1</title>
<g id="a_node2"><a xlink:href="../../d2/df3/class_n_pbase.html" target="_top" xlink:title="The auxiliary base model class for other model classes. ">
<polygon fill="none" stroke="#000000" points="22.5,-54.5 22.5,-71.5 67.5,-71.5 67.5,-54.5 22.5,-54.5"/>
<text text-anchor="middle" x="45" y="-61.1" font-family="Helvetica,sans-Serif" font-size="8.00" fill="#000000">NPbase</text>
</a>
</g>
</g>
<!-- Node1&#45;&gt;Node0 -->
<g id="edge1" class="edge">
<title>Node1&#45;&gt;Node0</title>
<path fill="none" stroke="#191970" d="M45,-43.8045C45,-34.9102 45,-24.7798 45,-17.7511"/>
<polygon fill="#191970" stroke="#191970" points="41.5001,-44.083 45,-54.083 48.5001,-44.083 41.5001,-44.083"/>
</g>
<!-- Node2 -->
<g id="node3" class="node">
<title>Node2</title>
<g id="a_node3"><a xlink:href="../../dc/dd5/class_standard_model.html" target="_top" xlink:title="A model class for the Standard Model. ">
<polygon fill="none" stroke="#000000" points="9.5,-108.5 9.5,-125.5 80.5,-125.5 80.5,-108.5 9.5,-108.5"/>
<text text-anchor="middle" x="45" y="-115.1" font-family="Helvetica,sans-Serif" font-size="8.00" fill="#000000">StandardModel</text>
</a>
</g>
</g>
<!-- Node2&#45;&gt;Node1 -->
<g id="edge2" class="edge">
<title>Node2&#45;&gt;Node1</title>
<path fill="none" stroke="#191970" d="M45,-97.8045C45,-88.9102 45,-78.7798 45,-71.7511"/>
<polygon fill="#191970" stroke="#191970" points="41.5001,-98.083 45,-108.083 48.5001,-98.083 41.5001,-98.083"/>
</g>
<!-- Node3 -->
<g id="node4" class="node">
<title>Node3</title>
<g id="a_node4"><a xlink:href="../../dd/dfa/class_q_c_d.html" target="_top" xlink:title="A class for parameters related to QCD, hadrons and quarks. ">
<polygon fill="none" stroke="#000000" points="28,-162.5 28,-179.5 62,-179.5 62,-162.5 28,-162.5"/>
<text text-anchor="middle" x="45" y="-169.1" font-family="Helvetica,sans-Serif" font-size="8.00" fill="#000000">QCD</text>
</a>
</g>
</g>
<!-- Node3&#45;&gt;Node2 -->
<g id="edge3" class="edge">
<title>Node3&#45;&gt;Node2</title>
<path fill="none" stroke="#191970" d="M45,-151.8045C45,-142.9102 45,-132.7798 45,-125.7511"/>
<polygon fill="#191970" stroke="#191970" points="41.5001,-152.083 45,-162.083 48.5001,-152.083 41.5001,-152.083"/>
</g>
<!-- Node4 -->
<g id="node5" class="node">
<title>Node4</title>
<g id="a_node5"><a xlink:href="../../d0/de3/class_model.html" target="_top" xlink:title="A class for the template of models. ">
<polygon fill="none" stroke="#000000" points="26,-216.5 26,-233.5 64,-233.5 64,-216.5 26,-216.5"/>
<text text-anchor="middle" x="45" y="-223.1" font-family="Helvetica,sans-Serif" font-size="8.00" fill="#000000">Model</text>
</a>
</g>
</g>
<!-- Node4&#45;&gt;Node3 -->
<g id="edge4" class="edge">
<title>Node4&#45;&gt;Node3</title>
<path fill="none" stroke="#191970" d="M45,-205.8045C45,-196.9102 45,-186.7798 45,-179.7511"/>
<polygon fill="#191970" stroke="#191970" points="41.5001,-206.083 45,-216.083 48.5001,-206.083 41.5001,-206.083"/>
</g>
</g>
</svg>
