<?xml version="1.0" encoding="UTF-8" standalone="no"?>
<!DOCTYPE svg PUBLIC "-//W3C//DTD SVG 1.1//EN"
 "http://www.w3.org/Graphics/SVG/1.1/DTD/svg11.dtd">
<!-- Generated by graphviz version 2.40.1 (20161225.0304)
 -->
<!-- Title: Observable2D.h Pages: 1 -->
<svg width="426pt" height="188pt"
 viewBox="0.00 0.00 425.50 188.00" xmlns="http://www.w3.org/2000/svg" xmlns:xlink="http://www.w3.org/1999/xlink">
<g id="graph0" class="graph" transform="scale(1 1) rotate(0) translate(4 184)">
<title>Observable2D.h</title>
<!-- Node0 -->
<g id="node1" class="node">
<title>Node0</title>
<polygon fill="#bfbfbf" stroke="#000000" points="184.5,-162.5 184.5,-179.5 258.5,-179.5 258.5,-162.5 184.5,-162.5"/>
<text text-anchor="middle" x="221.5" y="-169.1" font-family="Helvetica,sans-Serif" font-size="8.00" fill="#000000">Observable2D.h</text>
</g>
<!-- Node1 -->
<g id="node2" class="node">
<title>Node1</title>
<g id="a_node2"><a xlink:href="../../d8/db2/_observable_8h.html" target="_top" xlink:title="Observable.h">
<polygon fill="none" stroke="#000000" points="153.5,-108.5 153.5,-125.5 217.5,-125.5 217.5,-108.5 153.5,-108.5"/>
<text text-anchor="middle" x="185.5" y="-115.1" font-family="Helvetica,sans-Serif" font-size="8.00" fill="#000000">Observable.h</text>
</a>
</g>
</g>
<!-- Node0&#45;&gt;Node1 -->
<g id="edge1" class="edge">
<title>Node0&#45;&gt;Node1</title>
<path fill="none" stroke="#191970" d="M215.5553,-162.083C210.5227,-154.5341 203.1632,-143.4948 196.9865,-134.2298"/>
<polygon fill="#191970" stroke="#191970" points="199.7933,-132.1301 191.3341,-125.7511 193.9689,-136.0131 199.7933,-132.1301"/>
</g>
<!-- Node9 -->
<g id="node10" class="node">
<title>Node9</title>
<polygon fill="none" stroke="#bfbfbf" points="235.5,-108.5 235.5,-125.5 279.5,-125.5 279.5,-108.5 235.5,-108.5"/>
<text text-anchor="middle" x="257.5" y="-115.1" font-family="Helvetica,sans-Serif" font-size="8.00" fill="#000000">TH2D.h</text>
</g>
<!-- Node0&#45;&gt;Node9 -->
<g id="edge10" class="edge">
<title>Node0&#45;&gt;Node9</title>
<path fill="none" stroke="#191970" d="M227.4447,-162.083C232.4773,-154.5341 239.8368,-143.4948 246.0135,-134.2298"/>
<polygon fill="#191970" stroke="#191970" points="249.0311,-136.0131 251.6659,-125.7511 243.2067,-132.1301 249.0311,-136.0131"/>
</g>
<!-- Node2 -->
<g id="node3" class="node">
<title>Node2</title>
<g id="a_node3"><a xlink:href="../../dd/dcd/_th_observable_8h.html" target="_top" xlink:title="ThObservable.h">
<polygon fill="none" stroke="#000000" points="0,-54.5 0,-71.5 73,-71.5 73,-54.5 0,-54.5"/>
<text text-anchor="middle" x="36.5" y="-61.1" font-family="Helvetica,sans-Serif" font-size="8.00" fill="#000000">ThObservable.h</text>
</a>
</g>
</g>
<!-- Node1&#45;&gt;Node2 -->
<g id="edge2" class="edge">
<title>Node1&#45;&gt;Node2</title>
<path fill="none" stroke="#191970" d="M161.8905,-108.4435C137.0422,-99.4381 97.7256,-85.1891 69.7464,-75.049"/>
<polygon fill="#191970" stroke="#191970" points="70.5932,-71.6332 59.999,-71.5164 68.2081,-78.2144 70.5932,-71.6332"/>
</g>
<!-- Node4 -->
<g id="node5" class="node">
<title>Node4</title>
<polygon fill="none" stroke="#bfbfbf" points="78.5,-.5 78.5,-17.5 114.5,-17.5 114.5,-.5 78.5,-.5"/>
<text text-anchor="middle" x="96.5" y="-7.1" font-family="Helvetica,sans-Serif" font-size="8.00" fill="#000000">string</text>
</g>
<!-- Node1&#45;&gt;Node4 -->
<g id="edge5" class="edge">
<title>Node1&#45;&gt;Node4</title>
<path fill="none" stroke="#191970" d="M168.1588,-108.4714C153.922,-100.6967 134.1181,-87.9966 121.5,-72 111.1379,-58.8634 104.5742,-40.8845 100.786,-27.4949"/>
<polygon fill="#191970" stroke="#191970" points="104.1065,-26.3526 98.2344,-17.534 97.3255,-28.0898 104.1065,-26.3526"/>
</g>
<!-- Node5 -->
<g id="node6" class="node">
<title>Node5</title>
<polygon fill="none" stroke="#bfbfbf" points="130,-54.5 130,-71.5 177,-71.5 177,-54.5 130,-54.5"/>
<text text-anchor="middle" x="153.5" y="-61.1" font-family="Helvetica,sans-Serif" font-size="8.00" fill="#000000">iostream</text>
</g>
<!-- Node1&#45;&gt;Node5 -->
<g id="edge6" class="edge">
<title>Node1&#45;&gt;Node5</title>
<path fill="none" stroke="#191970" d="M180.2159,-108.083C175.789,-100.6127 169.3367,-89.7244 163.8821,-80.5199"/>
<polygon fill="#191970" stroke="#191970" points="166.7949,-78.5697 158.6858,-71.7511 160.7729,-82.1383 166.7949,-78.5697"/>
</g>
<!-- Node6 -->
<g id="node7" class="node">
<title>Node6</title>
<polygon fill="none" stroke="#bfbfbf" points="195.5,-54.5 195.5,-71.5 239.5,-71.5 239.5,-54.5 195.5,-54.5"/>
<text text-anchor="middle" x="217.5" y="-61.1" font-family="Helvetica,sans-Serif" font-size="8.00" fill="#000000">TH1D.h</text>
</g>
<!-- Node1&#45;&gt;Node6 -->
<g id="edge7" class="edge">
<title>Node1&#45;&gt;Node6</title>
<path fill="none" stroke="#191970" d="M190.7841,-108.083C195.211,-100.6127 201.6633,-89.7244 207.1179,-80.5199"/>
<polygon fill="#191970" stroke="#191970" points="210.2271,-82.1383 212.3142,-71.7511 204.2051,-78.5697 210.2271,-82.1383"/>
</g>
<!-- Node7 -->
<g id="node8" class="node">
<title>Node7</title>
<polygon fill="none" stroke="#bfbfbf" points="257.5,-54.5 257.5,-71.5 313.5,-71.5 313.5,-54.5 257.5,-54.5"/>
<text text-anchor="middle" x="285.5" y="-61.1" font-family="Helvetica,sans-Serif" font-size="8.00" fill="#000000">TMatrixD.h</text>
</g>
<!-- Node1&#45;&gt;Node7 -->
<g id="edge8" class="edge">
<title>Node1&#45;&gt;Node7</title>
<path fill="none" stroke="#191970" d="M201.5667,-108.324C217.4578,-99.7428 242.0074,-86.486 260.4585,-76.5224"/>
<polygon fill="#191970" stroke="#191970" points="262.3371,-79.4857 269.4731,-71.6545 259.011,-73.3264 262.3371,-79.4857"/>
</g>
<!-- Node8 -->
<g id="node9" class="node">
<title>Node8</title>
<polygon fill="none" stroke="#bfbfbf" points="331.5,-54.5 331.5,-71.5 417.5,-71.5 417.5,-54.5 331.5,-54.5"/>
<text text-anchor="middle" x="374.5" y="-61.1" font-family="Helvetica,sans-Serif" font-size="8.00" fill="#000000">boost/tokenizer.hpp</text>
</g>
<!-- Node1&#45;&gt;Node8 -->
<g id="edge9" class="edge">
<title>Node1&#45;&gt;Node8</title>
<path fill="none" stroke="#191970" d="M215.4476,-108.4435C247.6579,-99.2406 299.0342,-84.5617 334.6422,-74.3879"/>
<polygon fill="#191970" stroke="#191970" points="336.0388,-77.629 344.6925,-71.5164 334.1157,-70.8984 336.0388,-77.629"/>
</g>
<!-- Node3 -->
<g id="node4" class="node">
<title>Node3</title>
<polygon fill="none" stroke="#bfbfbf" points="17.5,-.5 17.5,-17.5 55.5,-17.5 55.5,-.5 17.5,-.5"/>
<text text-anchor="middle" x="36.5" y="-7.1" font-family="Helvetica,sans-Serif" font-size="8.00" fill="#000000">vector</text>
</g>
<!-- Node2&#45;&gt;Node3 -->
<g id="edge3" class="edge">
<title>Node2&#45;&gt;Node3</title>
<path fill="none" stroke="#191970" d="M36.5,-54.083C36.5,-47.0059 36.5,-36.8611 36.5,-27.9865"/>
<polygon fill="#191970" stroke="#191970" points="40.0001,-27.751 36.5,-17.7511 33.0001,-27.7511 40.0001,-27.751"/>
</g>
<!-- Node2&#45;&gt;Node4 -->
<g id="edge4" class="edge">
<title>Node2&#45;&gt;Node4</title>
<path fill="none" stroke="#191970" d="M46.14,-54.324C55.0096,-46.3414 68.3747,-34.3128 79.1079,-24.6529"/>
<polygon fill="#191970" stroke="#191970" points="81.593,-27.1251 86.6846,-17.8339 76.9102,-21.922 81.593,-27.1251"/>
</g>
</g>
</svg>
