<?xml version="1.0" encoding="UTF-8" standalone="no"?>
<!DOCTYPE svg PUBLIC "-//W3C//DTD SVG 1.1//EN"
 "http://www.w3.org/Graphics/SVG/1.1/DTD/svg11.dtd">
<!-- Generated by graphviz version 2.40.1 (20161225.0304)
 -->
<!-- Title: LHPC::MassSpectrumClass::MssmExtraEwsbSpinZeroBosonSet Pages: 1 -->
<svg width="1146pt" height="83pt"
 viewBox="0.00 0.00 1146.00 83.00" xmlns="http://www.w3.org/2000/svg" xmlns:xlink="http://www.w3.org/1999/xlink">
<g id="graph0" class="graph" transform="scale(1 1) rotate(0) translate(4 79)">
<title>LHPC::MassSpectrumClass::MssmExtraEwsbSpinZeroBosonSet</title>
<!-- Node0 -->
<g id="node1" class="node">
<title>Node0</title>
<polygon fill="#bfbfbf" stroke="#000000" points="623,-25.5 623,-51.5 771,-51.5 771,-25.5 623,-25.5"/>
<text text-anchor="start" x="631" y="-41.1" font-family="Helvetica,sans-Serif" font-size="8.00" fill="#000000">LHPC::MassSpectrumClass</text>
<text text-anchor="middle" x="697" y="-32.1" font-family="Helvetica,sans-Serif" font-size="8.00" fill="#000000">::MssmExtraEwsbSpinZeroBosonSet</text>
</g>
<!-- Node5 -->
<g id="node6" class="node">
<title>Node5</title>
<g id="a_node6"><a xlink:href="../../dc/d8e/class_l_h_p_c_1_1_mass_spectrum_class_1_1_minimal_supersymmetric_standard_model.html" target="_top" xlink:title="LHPC::MassSpectrumClass\l::MinimalSupersymmetricStandardModel">
<polygon fill="none" stroke="#000000" points="808,-48.5 808,-74.5 969,-74.5 969,-48.5 808,-48.5"/>
<text text-anchor="start" x="816" y="-64.1" font-family="Helvetica,sans-Serif" font-size="8.00" fill="#000000">LHPC::MassSpectrumClass</text>
<text text-anchor="middle" x="888.5" y="-55.1" font-family="Helvetica,sans-Serif" font-size="8.00" fill="#000000">::MinimalSupersymmetricStandardModel</text>
</a>
</g>
</g>
<!-- Node0&#45;&gt;Node5 -->
<g id="edge6" class="edge">
<title>Node0&#45;&gt;Node5</title>
<path fill="none" stroke="#191970" d="M781.0604,-48.596C790.0036,-49.6701 799.0849,-50.7608 807.9859,-51.8299"/>
<polygon fill="#191970" stroke="#191970" points="781.3849,-45.1099 771.0389,-47.3924 780.5501,-52.06 781.3849,-45.1099"/>
</g>
<!-- Node7 -->
<g id="node8" class="node">
<title>Node7</title>
<g id="a_node8"><a xlink:href="../../db/d6c/class_l_h_p_c_1_1_mass_spectrum_class_1_1_nmssm_extra_ewsb_spin_zero_boson_set.html" target="_top" xlink:title="LHPC::MassSpectrumClass\l::NmssmExtraEwsbSpinZeroBosonSet">
<polygon fill="none" stroke="#000000" points="812,-3.5 812,-29.5 965,-29.5 965,-3.5 812,-3.5"/>
<text text-anchor="start" x="820" y="-19.1" font-family="Helvetica,sans-Serif" font-size="8.00" fill="#000000">LHPC::MassSpectrumClass</text>
<text text-anchor="middle" x="888.5" y="-10.1" font-family="Helvetica,sans-Serif" font-size="8.00" fill="#000000">::NmssmExtraEwsbSpinZeroBosonSet</text>
</a>
</g>
</g>
<!-- Node0&#45;&gt;Node7 -->
<g id="edge8" class="edge">
<title>Node0&#45;&gt;Node7</title>
<path fill="none" stroke="#191970" d="M781.1582,-28.8317C791.3544,-27.6603 801.7285,-26.4685 811.8088,-25.3105"/>
<polygon fill="#191970" stroke="#191970" points="780.5741,-25.3757 771.0389,-29.9942 781.373,-32.33 780.5741,-25.3757"/>
</g>
<!-- Node1 -->
<g id="node2" class="node">
<title>Node1</title>
<g id="a_node2"><a xlink:href="../../d3/d8f/class_l_h_p_c_1_1_mass_spectrum.html" target="_top" xlink:title="LHPC::MassSpectrum">
<polygon fill="none" stroke="#000000" points="490,-30 490,-47 586,-47 586,-30 490,-30"/>
<text text-anchor="middle" x="538" y="-36.6" font-family="Helvetica,sans-Serif" font-size="8.00" fill="#000000">LHPC::MassSpectrum</text>
</a>
</g>
</g>
<!-- Node1&#45;&gt;Node0 -->
<g id="edge1" class="edge">
<title>Node1&#45;&gt;Node0</title>
<path fill="none" stroke="#191970" d="M596.1555,-38.5C604.8578,-38.5 613.9285,-38.5 622.9069,-38.5"/>
<polygon fill="#191970" stroke="#191970" points="596.1368,-35.0001 586.1367,-38.5 596.1367,-42.0001 596.1368,-35.0001"/>
</g>
<!-- Node2 -->
<g id="node3" class="node">
<title>Node2</title>
<g id="a_node3"><a xlink:href="../../d5/d13/class_b_o_l_1_1_pushed_to_observer.html" target="_top" xlink:title="BOL::PushedToObserver\l\&lt; SpectrumUpdater \&gt;">
<polygon fill="none" stroke="#000000" points="347,-25.5 347,-51.5 453,-51.5 453,-25.5 347,-25.5"/>
<text text-anchor="start" x="355" y="-41.1" font-family="Helvetica,sans-Serif" font-size="8.00" fill="#000000">BOL::PushedToObserver</text>
<text text-anchor="middle" x="400" y="-32.1" font-family="Helvetica,sans-Serif" font-size="8.00" fill="#000000">&lt; SpectrumUpdater &gt;</text>
</a>
</g>
</g>
<!-- Node2&#45;&gt;Node1 -->
<g id="edge2" class="edge">
<title>Node2&#45;&gt;Node1</title>
<path fill="none" stroke="#191970" d="M463.5888,-38.5C472.3826,-38.5 481.2943,-38.5 489.7479,-38.5"/>
<polygon fill="#191970" stroke="#191970" points="463.3544,-35.0001 453.3544,-38.5 463.3544,-42.0001 463.3544,-35.0001"/>
</g>
<!-- Node3 -->
<g id="node4" class="node">
<title>Node3</title>
<g id="a_node4"><a xlink:href="../../d3/d09/class_b_o_l_1_1_basic_observer.html" target="_top" xlink:title="BOL::BasicObserver">
<polygon fill="none" stroke="#000000" points="0,-26 0,-43 89,-43 89,-26 0,-26"/>
<text text-anchor="middle" x="44.5" y="-32.6" font-family="Helvetica,sans-Serif" font-size="8.00" fill="#000000">BOL::BasicObserver</text>
</a>
</g>
</g>
<!-- Node3&#45;&gt;Node2 -->
<g id="edge3" class="edge">
<title>Node3&#45;&gt;Node2</title>
<path fill="none" stroke="#191970" d="M99.299,-39.0907C101.9014,-39.2437 104.4787,-39.3816 107,-39.5 205.5621,-44.1267 230.3513,-43.5832 329,-41.5 334.7973,-41.3776 340.859,-41.199 346.8928,-40.989"/>
<polygon fill="#191970" stroke="#191970" points="99.4072,-35.5905 89.2015,-38.4355 98.9538,-42.5758 99.4072,-35.5905"/>
</g>
<!-- Node4 -->
<g id="node5" class="node">
<title>Node4</title>
<g id="a_node5"><a xlink:href="../../d5/d13/class_b_o_l_1_1_pushed_to_observer.html" target="_top" xlink:title="BOL::PushedToObserver\l\&lt; PushedClass \&gt;">
<polygon fill="none" stroke="#000000" points="126,-.5 126,-26.5 232,-26.5 232,-.5 126,-.5"/>
<text text-anchor="start" x="134" y="-16.1" font-family="Helvetica,sans-Serif" font-size="8.00" fill="#000000">BOL::PushedToObserver</text>
<text text-anchor="middle" x="179" y="-7.1" font-family="Helvetica,sans-Serif" font-size="8.00" fill="#000000">&lt; PushedClass &gt;</text>
</a>
</g>
</g>
<!-- Node3&#45;&gt;Node4 -->
<g id="edge5" class="edge">
<title>Node3&#45;&gt;Node4</title>
<path fill="none" stroke="#191970" d="M99.2908,-25.9453C107.9556,-24.5924 116.9063,-23.1949 125.5401,-21.8469"/>
<polygon fill="#191970" stroke="#191970" points="98.6269,-22.5065 89.2866,-27.5073 99.7068,-29.4227 98.6269,-22.5065"/>
</g>
<!-- Node4&#45;&gt;Node2 -->
<g id="edge4" class="edge">
<title>Node4&#45;&gt;Node2</title>
<path fill="none" stroke="#ffa500" stroke-dasharray="5,2" d="M242.2451,-20.6544C275.3363,-24.3978 315.3938,-28.9292 346.8629,-32.489"/>
<polygon fill="#ffa500" stroke="#ffa500" points="242.5463,-17.1663 232.2162,-19.5199 241.7594,-24.1219 242.5463,-17.1663"/>
<text text-anchor="middle" x="289.5" y="-33.1" font-family="Helvetica,sans-Serif" font-size="8.00" fill="#000000"> &lt; SpectrumUpdater &gt;</text>
</g>
<!-- Node6 -->
<g id="node7" class="node">
<title>Node6</title>
<g id="a_node7"><a xlink:href="../../d4/def/class_l_h_p_c_1_1_mass_spectrum_class_1_1_next_to_minimal_supersymmetric_standard_model.html" target="_top" xlink:title="LHPC::MassSpectrumClass\l::NextToMinimalSupersymmetric\lStandardModel">
<polygon fill="none" stroke="#000000" points="1006,-21 1006,-56 1138,-56 1138,-21 1006,-21"/>
<text text-anchor="start" x="1014" y="-45.6" font-family="Helvetica,sans-Serif" font-size="8.00" fill="#000000">LHPC::MassSpectrumClass</text>
<text text-anchor="start" x="1014" y="-36.6" font-family="Helvetica,sans-Serif" font-size="8.00" fill="#000000">::NextToMinimalSupersymmetric</text>
<text text-anchor="middle" x="1072" y="-27.6" font-family="Helvetica,sans-Serif" font-size="8.00" fill="#000000">StandardModel</text>
</a>
</g>
</g>
<!-- Node5&#45;&gt;Node6 -->
<g id="edge7" class="edge">
<title>Node5&#45;&gt;Node6</title>
<path fill="none" stroke="#191970" d="M979.3112,-50.1177C988.2405,-48.9985 997.1817,-47.8778 1005.7964,-46.798"/>
<polygon fill="#191970" stroke="#191970" points="978.7399,-46.6618 969.2528,-51.3784 979.6105,-53.6075 978.7399,-46.6618"/>
</g>
<!-- Node7&#45;&gt;Node6 -->
<g id="edge9" class="edge">
<title>Node7&#45;&gt;Node6</title>
<path fill="none" stroke="#191970" d="M975.4126,-26.92C985.6132,-28.143 995.8939,-29.3756 1005.7482,-30.557"/>
<polygon fill="#191970" stroke="#191970" points="975.6029,-23.4179 965.2573,-25.7025 974.7695,-30.3681 975.6029,-23.4179"/>
</g>
</g>
</svg>
