<?xml version="1.0" encoding="UTF-8" standalone="no"?>
<!DOCTYPE svg PUBLIC "-//W3C//DTD SVG 1.1//EN"
 "http://www.w3.org/Graphics/SVG/1.1/DTD/svg11.dtd">
<!-- Generated by graphviz version 2.40.1 (20161225.0304)
 -->
<!-- Title: GMquantities.h Pages: 1 -->
<svg width="234pt" height="134pt"
 viewBox="0.00 0.00 234.00 134.00" xmlns="http://www.w3.org/2000/svg" xmlns:xlink="http://www.w3.org/1999/xlink">
<g id="graph0" class="graph" transform="scale(1 1) rotate(0) translate(4 130)">
<title>GMquantities.h</title>
<!-- Node54 -->
<g id="node1" class="node">
<title>Node54</title>
<polygon fill="#bfbfbf" stroke="#000000" points="90.5,-108.5 90.5,-125.5 160.5,-125.5 160.5,-108.5 90.5,-108.5"/>
<text text-anchor="middle" x="125.5" y="-115.1" font-family="Helvetica,sans-Serif" font-size="8.00" fill="#000000">GMquantities.h</text>
</g>
<!-- Node55 -->
<g id="node2" class="node">
<title>Node55</title>
<g id="a_node2"><a xlink:href="../../dc/dc3/_georgi_machacek_observables_8h.html" target="_top" xlink:title="GeorgiMachacekObservables.h">
<polygon fill="none" stroke="#000000" points="0,-54.5 0,-71.5 129,-71.5 129,-54.5 0,-54.5"/>
<text text-anchor="middle" x="64.5" y="-61.1" font-family="Helvetica,sans-Serif" font-size="8.00" fill="#000000">GeorgiMachacekObservables.h</text>
</a>
</g>
</g>
<!-- Node54&#45;&gt;Node55 -->
<g id="edge1" class="edge">
<title>Node54&#45;&gt;Node55</title>
<path fill="none" stroke="#191970" d="M108.0328,-101.5372C97.1562,-91.9087 83.5561,-79.8694 74.479,-71.8339"/>
<polygon fill="#191970" stroke="#191970" points="105.8917,-104.3162 115.6993,-108.324 110.5316,-99.0749 105.8917,-104.3162"/>
</g>
<!-- Node57 -->
<g id="node4" class="node">
<title>Node57</title>
<g id="a_node4"><a xlink:href="../../de/dfa/_g_mquantities_8cpp.html" target="_top" xlink:title="GMquantities.cpp">
<polygon fill="none" stroke="#000000" points="147,-54.5 147,-71.5 226,-71.5 226,-54.5 147,-54.5"/>
<text text-anchor="middle" x="186.5" y="-61.1" font-family="Helvetica,sans-Serif" font-size="8.00" fill="#000000">GMquantities.cpp</text>
</a>
</g>
</g>
<!-- Node54&#45;&gt;Node57 -->
<g id="edge3" class="edge">
<title>Node54&#45;&gt;Node57</title>
<path fill="none" stroke="#191970" d="M142.9672,-101.5372C153.8438,-91.9087 167.4439,-79.8694 176.521,-71.8339"/>
<polygon fill="#191970" stroke="#191970" points="140.4684,-99.0749 135.3007,-108.324 145.1083,-104.3162 140.4684,-99.0749"/>
</g>
<!-- Node56 -->
<g id="node3" class="node">
<title>Node56</title>
<g id="a_node3"><a xlink:href="../../d1/de2/_th_obs_factory_8cpp.html" target="_top" xlink:title="ThObsFactory.cpp">
<polygon fill="none" stroke="#000000" points="23.5,-.5 23.5,-17.5 105.5,-17.5 105.5,-.5 23.5,-.5"/>
<text text-anchor="middle" x="64.5" y="-7.1" font-family="Helvetica,sans-Serif" font-size="8.00" fill="#000000">ThObsFactory.cpp</text>
</a>
</g>
</g>
<!-- Node55&#45;&gt;Node56 -->
<g id="edge2" class="edge">
<title>Node55&#45;&gt;Node56</title>
<path fill="none" stroke="#191970" d="M64.5,-43.8045C64.5,-34.9102 64.5,-24.7798 64.5,-17.7511"/>
<polygon fill="#191970" stroke="#191970" points="61.0001,-44.083 64.5,-54.083 68.0001,-44.083 61.0001,-44.083"/>
</g>
</g>
</svg>
