<?xml version="1.0" encoding="UTF-8" standalone="no"?>
<!DOCTYPE svg PUBLIC "-//W3C//DTD SVG 1.1//EN"
 "http://www.w3.org/Graphics/SVG/1.1/DTD/svg11.dtd">
<!-- Generated by graphviz version 2.38.0 (20140413.2041)
 -->
<!-- Title: Mhiggs.h Pages: 1 -->
<svg width="360pt" height="242pt"
 viewBox="0.00 0.00 359.71 242.00" xmlns="http://www.w3.org/2000/svg" xmlns:xlink="http://www.w3.org/1999/xlink">
<g id="graph0" class="graph" transform="scale(1 1) rotate(0) translate(4 238)">
<title>Mhiggs.h</title>
<!-- Node1 -->
<g id="node1" class="node"><title>Node1</title>
<polygon fill="#bfbfbf" stroke="black" points="88.712,-216.5 88.712,-233.5 137.712,-233.5 137.712,-216.5 88.712,-216.5"/>
<text text-anchor="middle" x="113.212" y="-223.1" font-family="Helvetica,sans-Serif" font-size="8.00">Mhiggs.h</text>
</g>
<!-- Node2 -->
<g id="node2" class="node"><title>Node2</title>
<polygon fill="none" stroke="#bfbfbf" points="7.71197,-162.5 7.71197,-179.5 58.712,-179.5 58.712,-162.5 7.71197,-162.5"/>
<text text-anchor="middle" x="33.212" y="-169.1" font-family="Helvetica,sans-Serif" font-size="8.00">stdexcept</text>
</g>
<!-- Node1&#45;&gt;Node2 -->
<g id="edge1" class="edge"><title>Node1&#45;&gt;Node2</title>
<path fill="none" stroke="midnightblue" d="M101.408,-216.327C88.8101,-208.139 68.6208,-195.016 53.4723,-185.169"/>
<polygon fill="midnightblue" stroke="midnightblue" points="55.0965,-182.051 44.8046,-179.535 51.2816,-187.92 55.0965,-182.051"/>
</g>
<!-- Node3 -->
<g id="node3" class="node"><title>Node3</title>
<g id="a_node3"><a xlink:href="../../dd/dcd/_th_observable_8h.html" target="_top" xlink:title="ThObservable.h">
<polygon fill="none" stroke="black" points="76.712,-162.5 76.712,-179.5 149.712,-179.5 149.712,-162.5 76.712,-162.5"/>
<text text-anchor="middle" x="113.212" y="-169.1" font-family="Helvetica,sans-Serif" font-size="8.00">ThObservable.h</text>
</a>
</g>
</g>
<!-- Node1&#45;&gt;Node3 -->
<g id="edge2" class="edge"><title>Node1&#45;&gt;Node3</title>
<path fill="none" stroke="midnightblue" d="M113.212,-216.327C113.212,-209.414 113.212,-198.985 113.212,-189.979"/>
<polygon fill="midnightblue" stroke="midnightblue" points="116.712,-189.704 113.212,-179.704 109.712,-189.704 116.712,-189.704"/>
</g>
<!-- Node9 -->
<g id="node9" class="node"><title>Node9</title>
<g id="a_node9"><a xlink:href="../../d5/d37/_s_u_s_y_8h.html" target="_top" xlink:title="SUSY.h">
<polygon fill="none" stroke="black" points="204.712,-162.5 204.712,-179.5 249.712,-179.5 249.712,-162.5 204.712,-162.5"/>
<text text-anchor="middle" x="227.212" y="-169.1" font-family="Helvetica,sans-Serif" font-size="8.00">SUSY.h</text>
</a>
</g>
</g>
<!-- Node1&#45;&gt;Node9 -->
<g id="edge9" class="edge"><title>Node1&#45;&gt;Node9</title>
<path fill="none" stroke="midnightblue" d="M130.033,-216.327C148.831,-207.753 179.493,-193.767 201.346,-183.799"/>
<polygon fill="midnightblue" stroke="midnightblue" points="203.047,-186.87 210.693,-179.535 200.142,-180.501 203.047,-186.87"/>
</g>
<!-- Node4 -->
<g id="node4" class="node"><title>Node4</title>
<g id="a_node4"><a xlink:href="../../d6/d0a/_standard_model_8h.html" target="_top" xlink:title="StandardModel.h">
<polygon fill="none" stroke="red" points="64.712,-108.5 64.712,-125.5 141.712,-125.5 141.712,-108.5 64.712,-108.5"/>
<text text-anchor="middle" x="103.212" y="-115.1" font-family="Helvetica,sans-Serif" font-size="8.00">StandardModel.h</text>
</a>
</g>
</g>
<!-- Node3&#45;&gt;Node4 -->
<g id="edge3" class="edge"><title>Node3&#45;&gt;Node4</title>
<path fill="none" stroke="midnightblue" d="M111.736,-162.327C110.392,-155.338 108.357,-144.753 106.612,-135.679"/>
<polygon fill="midnightblue" stroke="midnightblue" points="110.019,-134.863 104.694,-125.704 103.145,-136.185 110.019,-134.863"/>
</g>
<!-- Node5 -->
<g id="node5" class="node"><title>Node5</title>
<g id="a_node5"><a xlink:href="../../d9/d72/gslpp_8h.html" target="_top" xlink:title="gslpp.h">
<polygon fill="none" stroke="red" points="149.212,-0.5 149.212,-17.5 191.212,-17.5 191.212,-0.5 149.212,-0.5"/>
<text text-anchor="middle" x="170.212" y="-7.1" font-family="Helvetica,sans-Serif" font-size="8.00">gslpp.h</text>
</a>
</g>
</g>
<!-- Node4&#45;&gt;Node5 -->
<g id="edge4" class="edge"><title>Node4&#45;&gt;Node5</title>
<path fill="none" stroke="midnightblue" d="M68.8076,-108.482C32.9612,-99.0318 -15.3331,-80.7417 5.21197,-54 21.3975,-32.9327 95.7909,-19.7979 138.958,-13.8143"/>
<polygon fill="midnightblue" stroke="midnightblue" points="139.5,-17.273 148.949,-12.4796 138.573,-10.3347 139.5,-17.273"/>
</g>
<!-- Node6 -->
<g id="node6" class="node"><title>Node6</title>
<g id="a_node6"><a xlink:href="../../d4/d68/_q_c_d_8h.html" target="_top" xlink:title="QCD.h">
<polygon fill="none" stroke="red" points="14.712,-54.5 14.712,-71.5 55.712,-71.5 55.712,-54.5 14.712,-54.5"/>
<text text-anchor="middle" x="35.212" y="-61.1" font-family="Helvetica,sans-Serif" font-size="8.00">QCD.h</text>
</a>
</g>
</g>
<!-- Node4&#45;&gt;Node6 -->
<g id="edge5" class="edge"><title>Node4&#45;&gt;Node6</title>
<path fill="none" stroke="midnightblue" d="M93.1783,-108.327C82.7324,-100.339 66.1456,-87.6551 53.3862,-77.8979"/>
<polygon fill="midnightblue" stroke="midnightblue" points="55.3565,-74.9985 45.2868,-71.7043 51.1043,-80.5591 55.3565,-74.9985"/>
</g>
<!-- Node7 -->
<g id="node7" class="node"><title>Node7</title>
<g id="a_node7"><a xlink:href="../../db/d5d/_c_k_m_8h.html" target="_top" xlink:title="CKM.h">
<polygon fill="none" stroke="red" points="73.712,-54.5 73.712,-71.5 114.712,-71.5 114.712,-54.5 73.712,-54.5"/>
<text text-anchor="middle" x="94.212" y="-61.1" font-family="Helvetica,sans-Serif" font-size="8.00">CKM.h</text>
</a>
</g>
</g>
<!-- Node4&#45;&gt;Node7 -->
<g id="edge6" class="edge"><title>Node4&#45;&gt;Node7</title>
<path fill="none" stroke="midnightblue" d="M101.884,-108.327C100.674,-101.338 98.8423,-90.7528 97.2718,-81.6792"/>
<polygon fill="midnightblue" stroke="midnightblue" points="100.7,-80.9608 95.5454,-71.7043 93.8022,-82.1547 100.7,-80.9608"/>
</g>
<!-- Node8 -->
<g id="node8" class="node"><title>Node8</title>
<g id="a_node8"><a xlink:href="../../db/dba/_wilson_coefficient_8h.html" target="_top" xlink:title="WilsonCoefficient.h">
<polygon fill="none" stroke="red" points="132.712,-54.5 132.712,-71.5 217.712,-71.5 217.712,-54.5 132.712,-54.5"/>
<text text-anchor="middle" x="175.212" y="-61.1" font-family="Helvetica,sans-Serif" font-size="8.00">WilsonCoefficient.h</text>
</a>
</g>
</g>
<!-- Node4&#45;&gt;Node8 -->
<g id="edge8" class="edge"><title>Node4&#45;&gt;Node8</title>
<path fill="none" stroke="midnightblue" d="M113.836,-108.327C125.003,-100.262 142.797,-87.4108 156.357,-77.6173"/>
<polygon fill="midnightblue" stroke="midnightblue" points="158.487,-80.3966 164.545,-71.7043 154.388,-74.7218 158.487,-80.3966"/>
</g>
<!-- Node7&#45;&gt;Node5 -->
<g id="edge7" class="edge"><title>Node7&#45;&gt;Node5</title>
<path fill="none" stroke="midnightblue" d="M105.426,-54.3272C117.281,-46.216 136.212,-33.2629 150.556,-23.4488"/>
<polygon fill="midnightblue" stroke="midnightblue" points="152.922,-26.0707 159.199,-17.5352 148.969,-20.2935 152.922,-26.0707"/>
</g>
<!-- Node9&#45;&gt;Node4 -->
<g id="edge11" class="edge"><title>Node9&#45;&gt;Node4</title>
<path fill="none" stroke="midnightblue" d="M209.181,-162.439C188.519,-153.774 154.432,-139.479 130.511,-129.448"/>
<polygon fill="midnightblue" stroke="midnightblue" points="131.84,-126.21 121.264,-125.57 129.133,-132.665 131.84,-126.21"/>
</g>
<!-- Node9&#45;&gt;Node5 -->
<g id="edge10" class="edge"><title>Node9&#45;&gt;Node5</title>
<path fill="none" stroke="midnightblue" d="M229.38,-162.435C234.466,-143.149 245.418,-91.0535 227.212,-54 220.578,-40.4992 207.588,-29.9691 195.682,-22.5998"/>
<polygon fill="midnightblue" stroke="midnightblue" points="197.33,-19.5105 186.912,-17.5837 193.854,-25.5868 197.33,-19.5105"/>
</g>
<!-- Node10 -->
<g id="node10" class="node"><title>Node10</title>
<g id="a_node10"><a xlink:href="../../dd/dc9/_s_u_s_y_matching_8h.html" target="_top" xlink:title="SUSYMatching.h">
<polygon fill="none" stroke="red" points="274.712,-108.5 274.712,-125.5 351.712,-125.5 351.712,-108.5 274.712,-108.5"/>
<text text-anchor="middle" x="313.212" y="-115.1" font-family="Helvetica,sans-Serif" font-size="8.00">SUSYMatching.h</text>
</a>
</g>
</g>
<!-- Node9&#45;&gt;Node10 -->
<g id="edge12" class="edge"><title>Node9&#45;&gt;Node10</title>
<path fill="none" stroke="midnightblue" d="M239.902,-162.327C253.572,-154.062 275.558,-140.768 291.892,-130.891"/>
<polygon fill="midnightblue" stroke="midnightblue" points="294.004,-133.705 300.75,-125.535 290.382,-127.714 294.004,-133.705"/>
</g>
<!-- Node10&#45;&gt;Node5 -->
<g id="edge13" class="edge"><title>Node10&#45;&gt;Node5</title>
<path fill="none" stroke="midnightblue" d="M308.161,-108.246C299.577,-95.5507 281.034,-70.1303 260.212,-54 242.147,-40.0056 218.919,-28.7861 200.585,-21.1793"/>
<polygon fill="midnightblue" stroke="midnightblue" points="201.818,-17.9026 191.233,-17.4329 199.215,-24.4007 201.818,-17.9026"/>
</g>
</g>
</svg>
