<?xml version="1.0" encoding="UTF-8" standalone="no"?>
<!DOCTYPE svg PUBLIC "-//W3C//DTD SVG 1.1//EN"
 "http://www.w3.org/Graphics/SVG/1.1/DTD/svg11.dtd">
<!-- Generated by graphviz version 2.40.1 (20161225.0304)
 -->
<!-- Title: GeneralTHDMEffectivePot.cpp Pages: 1 -->
<svg width="449pt" height="188pt"
 viewBox="0.00 0.00 449.00 188.00" xmlns="http://www.w3.org/2000/svg" xmlns:xlink="http://www.w3.org/1999/xlink">
<g id="graph0" class="graph" transform="scale(1 1) rotate(0) translate(4 184)">
<title>GeneralTHDMEffectivePot.cpp</title>
<!-- Node0 -->
<g id="node1" class="node">
<title>Node0</title>
<polygon fill="#bfbfbf" stroke="#000000" points="209,-162.5 209,-179.5 335,-179.5 335,-162.5 209,-162.5"/>
<text text-anchor="middle" x="272" y="-169.1" font-family="Helvetica,sans-Serif" font-size="8.00" fill="#000000">GeneralTHDMEffectivePot.cpp</text>
</g>
<!-- Node1 -->
<g id="node2" class="node">
<title>Node1</title>
<g id="a_node2"><a xlink:href="../../d8/dce/_general_t_h_d_m_effective_pot_8h.html" target="_top" xlink:title="GeneralTHDMEffectivePot.h">
<polygon fill="none" stroke="#000000" points="52.5,-108.5 52.5,-125.5 169.5,-125.5 169.5,-108.5 52.5,-108.5"/>
<text text-anchor="middle" x="111" y="-115.1" font-family="Helvetica,sans-Serif" font-size="8.00" fill="#000000">GeneralTHDMEffectivePot.h</text>
</a>
</g>
</g>
<!-- Node0&#45;&gt;Node1 -->
<g id="edge1" class="edge">
<title>Node0&#45;&gt;Node1</title>
<path fill="none" stroke="#191970" d="M246.4891,-162.4435C219.404,-153.3591 176.41,-138.9388 146.1312,-128.7831"/>
<polygon fill="#191970" stroke="#191970" points="146.9855,-125.3781 136.3916,-125.5164 144.7595,-132.0148 146.9855,-125.3781"/>
</g>
<!-- Node60 -->
<g id="node8" class="node">
<title>Node60</title>
<polygon fill="none" stroke="#bfbfbf" points="187.5,-108.5 187.5,-125.5 264.5,-125.5 264.5,-108.5 187.5,-108.5"/>
<text text-anchor="middle" x="226" y="-115.1" font-family="Helvetica,sans-Serif" font-size="8.00" fill="#000000">Math/Minimizer.h</text>
</g>
<!-- Node0&#45;&gt;Node60 -->
<g id="edge8" class="edge">
<title>Node0&#45;&gt;Node60</title>
<path fill="none" stroke="#191970" d="M264.404,-162.083C257.7725,-154.2982 247.979,-142.8015 239.9419,-133.3665"/>
<polygon fill="#191970" stroke="#191970" points="242.6037,-131.0939 233.4546,-125.7511 237.275,-135.6332 242.6037,-131.0939"/>
</g>
<!-- Node61 -->
<g id="node9" class="node">
<title>Node61</title>
<polygon fill="none" stroke="#bfbfbf" points="283,-108.5 283,-125.5 353,-125.5 353,-108.5 283,-108.5"/>
<text text-anchor="middle" x="318" y="-115.1" font-family="Helvetica,sans-Serif" font-size="8.00" fill="#000000">Math/Factory.h</text>
</g>
<!-- Node0&#45;&gt;Node61 -->
<g id="edge9" class="edge">
<title>Node0&#45;&gt;Node61</title>
<path fill="none" stroke="#191970" d="M279.596,-162.083C286.2275,-154.2982 296.021,-142.8015 304.0581,-133.3665"/>
<polygon fill="#191970" stroke="#191970" points="306.725,-135.6332 310.5454,-125.7511 301.3963,-131.0939 306.725,-135.6332"/>
</g>
<!-- Node62 -->
<g id="node10" class="node">
<title>Node62</title>
<polygon fill="none" stroke="#bfbfbf" points="371,-108.5 371,-125.5 441,-125.5 441,-108.5 371,-108.5"/>
<text text-anchor="middle" x="406" y="-115.1" font-family="Helvetica,sans-Serif" font-size="8.00" fill="#000000">Math/Functor.h</text>
</g>
<!-- Node0&#45;&gt;Node62 -->
<g id="edge10" class="edge">
<title>Node0&#45;&gt;Node62</title>
<path fill="none" stroke="#191970" d="M293.2327,-162.4435C315.3835,-153.5171 350.3187,-139.4387 375.436,-129.3168"/>
<polygon fill="#191970" stroke="#191970" points="376.8997,-132.5006 384.8666,-125.5164 374.2832,-126.0079 376.8997,-132.5006"/>
</g>
<!-- Node2 -->
<g id="node3" class="node">
<title>Node2</title>
<g id="a_node3"><a xlink:href="../../dd/dcd/_th_observable_8h.html" target="_top" xlink:title="ThObservable.h">
<polygon fill="none" stroke="#000000" points="9.5,-54.5 9.5,-71.5 82.5,-71.5 82.5,-54.5 9.5,-54.5"/>
<text text-anchor="middle" x="46" y="-61.1" font-family="Helvetica,sans-Serif" font-size="8.00" fill="#000000">ThObservable.h</text>
</a>
</g>
</g>
<!-- Node1&#45;&gt;Node2 -->
<g id="edge2" class="edge">
<title>Node1&#45;&gt;Node2</title>
<path fill="none" stroke="#191970" d="M100.5566,-108.324C90.8538,-100.2631 76.1847,-88.0765 64.5003,-78.3695"/>
<polygon fill="#191970" stroke="#191970" points="66.5619,-75.532 56.6334,-71.8339 62.0887,-80.9163 66.5619,-75.532"/>
</g>
<!-- Node5 -->
<g id="node6" class="node">
<title>Node5</title>
<g id="a_node6"><a xlink:href="../../d0/d9a/_general_t_h_d_m_8h.html" target="_top" xlink:title="GeneralTHDM.h">
<polygon fill="none" stroke="#ff0000" points="129.5,-.5 129.5,-17.5 204.5,-17.5 204.5,-.5 129.5,-.5"/>
<text text-anchor="middle" x="167" y="-7.1" font-family="Helvetica,sans-Serif" font-size="8.00" fill="#000000">GeneralTHDM.h</text>
</a>
</g>
</g>
<!-- Node1&#45;&gt;Node5 -->
<g id="edge5" class="edge">
<title>Node1&#45;&gt;Node5</title>
<path fill="none" stroke="#191970" d="M112.4681,-108.4352C114.8549,-95.916 120.3128,-72.1386 130,-54 135.6462,-43.4279 143.9932,-33.0012 151.3308,-24.8506"/>
<polygon fill="#191970" stroke="#191970" points="153.903,-27.2243 158.1945,-17.5375 148.7989,-22.4338 153.903,-27.2243"/>
</g>
<!-- Node56 -->
<g id="node7" class="node">
<title>Node56</title>
<g id="a_node7"><a xlink:href="../../d1/dc7/_general_t_h_d_mcache_8h.html" target="_top" xlink:title="GeneralTHDMcache.h">
<polygon fill="none" stroke="#ff0000" points="139,-54.5 139,-71.5 235,-71.5 235,-54.5 139,-54.5"/>
<text text-anchor="middle" x="187" y="-61.1" font-family="Helvetica,sans-Serif" font-size="8.00" fill="#000000">GeneralTHDMcache.h</text>
</a>
</g>
</g>
<!-- Node1&#45;&gt;Node56 -->
<g id="edge6" class="edge">
<title>Node1&#45;&gt;Node56</title>
<path fill="none" stroke="#191970" d="M123.2107,-108.324C134.7759,-100.1066 152.3754,-87.6017 166.1607,-77.8069"/>
<polygon fill="#191970" stroke="#191970" points="168.4425,-80.4791 174.5671,-71.8339 164.388,-74.7729 168.4425,-80.4791"/>
</g>
<!-- Node3 -->
<g id="node4" class="node">
<title>Node3</title>
<polygon fill="none" stroke="#bfbfbf" points="0,-.5 0,-17.5 38,-17.5 38,-.5 0,-.5"/>
<text text-anchor="middle" x="19" y="-7.1" font-family="Helvetica,sans-Serif" font-size="8.00" fill="#000000">vector</text>
</g>
<!-- Node2&#45;&gt;Node3 -->
<g id="edge3" class="edge">
<title>Node2&#45;&gt;Node3</title>
<path fill="none" stroke="#191970" d="M41.5415,-54.083C37.8457,-46.6913 32.4766,-35.9533 27.9055,-26.8111"/>
<polygon fill="#191970" stroke="#191970" points="30.9782,-25.1301 23.3755,-17.7511 24.7172,-28.2606 30.9782,-25.1301"/>
</g>
<!-- Node4 -->
<g id="node5" class="node">
<title>Node4</title>
<polygon fill="none" stroke="#bfbfbf" points="56,-.5 56,-17.5 92,-17.5 92,-.5 56,-.5"/>
<text text-anchor="middle" x="74" y="-7.1" font-family="Helvetica,sans-Serif" font-size="8.00" fill="#000000">string</text>
</g>
<!-- Node2&#45;&gt;Node4 -->
<g id="edge4" class="edge">
<title>Node2&#45;&gt;Node4</title>
<path fill="none" stroke="#191970" d="M50.6236,-54.083C54.4563,-46.6913 60.0242,-35.9533 64.7646,-26.8111"/>
<polygon fill="#191970" stroke="#191970" points="67.9663,-28.2398 69.4624,-17.7511 61.752,-25.0175 67.9663,-28.2398"/>
</g>
<!-- Node56&#45;&gt;Node5 -->
<g id="edge7" class="edge">
<title>Node56&#45;&gt;Node5</title>
<path fill="none" stroke="#191970" d="M183.6974,-54.083C181.018,-46.8486 177.1514,-36.4087 173.8136,-27.3968"/>
<polygon fill="#191970" stroke="#191970" points="176.9965,-25.9129 170.2411,-17.7511 170.4322,-28.3442 176.9965,-25.9129"/>
</g>
</g>
</svg>
