<?xml version="1.0" encoding="UTF-8" standalone="no"?>
<!DOCTYPE svg PUBLIC "-//W3C//DTD SVG 1.1//EN"
 "http://www.w3.org/Graphics/SVG/1.1/DTD/svg11.dtd">
<!-- Generated by graphviz version 2.40.1 (20161225.0304)
 -->
<!-- Title: RealWeakEFTLFVMatching Pages: 1 -->
<svg width="989pt" height="544pt"
 viewBox="0.00 0.00 989.00 543.93" xmlns="http://www.w3.org/2000/svg" xmlns:xlink="http://www.w3.org/1999/xlink">
<g id="graph0" class="graph" transform="scale(1 1) rotate(0) translate(4 539.9328)">
<title>RealWeakEFTLFVMatching</title>
<!-- Node3 -->
<g id="node1" class="node">
<title>Node3</title>
<polygon fill="#bfbfbf" stroke="#000000" points="498,-321.4328 498,-338.4328 614,-338.4328 614,-321.4328 498,-321.4328"/>
<text text-anchor="middle" x="556" y="-328.0328" font-family="Helvetica,sans-Serif" font-size="8.00" fill="#000000">RealWeakEFTLFVMatching</text>
</g>
<!-- Node48 -->
<g id="node10" class="node">
<title>Node48</title>
<g id="a_node10"><a xlink:href="../../d5/d76/class_matching.html" target="_top" xlink:title="Matching\&lt; RealWeakEFTLFVMatching,\l RealWeakEFTLFV \&gt;">
<polygon fill="none" stroke="#ff0000" points="663,-266.9328 663,-292.9328 820,-292.9328 820,-266.9328 663,-266.9328"/>
<text text-anchor="start" x="671" y="-282.5328" font-family="Helvetica,sans-Serif" font-size="8.00" fill="#000000">Matching&lt; RealWeakEFTLFVMatching,</text>
<text text-anchor="middle" x="741.5" y="-273.5328" font-family="Helvetica,sans-Serif" font-size="8.00" fill="#000000"> RealWeakEFTLFV &gt;</text>
</a>
</g>
</g>
<!-- Node3&#45;&gt;Node48 -->
<g id="edge13" class="edge">
<title>Node3&#45;&gt;Node48</title>
<path fill="none" stroke="#9a32cd" stroke-dasharray="5,2" d="M592.5905,-318.4382C605.0546,-314.635 619.0975,-310.4733 632,-306.9328 649.5601,-302.1142 668.8128,-297.2334 686.2108,-292.9714"/>
<polygon fill="#9a32cd" stroke="#9a32cd" points="591.5141,-315.1073 582.9849,-321.3925 593.572,-321.798 591.5141,-315.1073"/>
<text text-anchor="middle" x="638.5" y="-309.5328" font-family="Helvetica,sans-Serif" font-size="8.00" fill="#000000"> obj</text>
</g>
<!-- Node4 -->
<g id="node2" class="node">
<title>Node4</title>
<g id="a_node2"><a xlink:href="../../d6/d2e/class_standard_model_matching.html" target="_top" xlink:title="A class for the matching in the Standard Model. ">
<polygon fill="none" stroke="#000000" points="358,-166.4328 358,-183.4328 461,-183.4328 461,-166.4328 358,-166.4328"/>
<text text-anchor="middle" x="409.5" y="-173.0328" font-family="Helvetica,sans-Serif" font-size="8.00" fill="#000000">StandardModelMatching</text>
</a>
</g>
</g>
<!-- Node4&#45;&gt;Node3 -->
<g id="edge1" class="edge">
<title>Node4&#45;&gt;Node3</title>
<path fill="none" stroke="#191970" d="M424.7555,-191.0735C455.5327,-223.6364 524.1385,-296.2227 547.7948,-321.2515"/>
<polygon fill="#191970" stroke="#191970" points="427.2089,-188.5738 417.7962,-183.7104 422.1216,-193.3821 427.2089,-188.5738"/>
</g>
<!-- Node5 -->
<g id="node3" class="node">
<title>Node5</title>
<g id="a_node3"><a xlink:href="../../d0/d2a/class_model_matching.html" target="_top" xlink:title="A class for a template of model matching. ">
<polygon fill="none" stroke="#000000" points="195.5,-235.4328 195.5,-252.4328 266.5,-252.4328 266.5,-235.4328 195.5,-235.4328"/>
<text text-anchor="middle" x="231" y="-242.0328" font-family="Helvetica,sans-Serif" font-size="8.00" fill="#000000">ModelMatching</text>
</a>
</g>
</g>
<!-- Node5&#45;&gt;Node4 -->
<g id="edge2" class="edge">
<title>Node5&#45;&gt;Node4</title>
<path fill="none" stroke="#191970" d="M276.7546,-243.5165C296.8124,-241.9698 320.2352,-238.2566 340,-229.9328 365.5256,-219.1829 389.5155,-196.3589 401.5099,-183.7546"/>
<polygon fill="#191970" stroke="#191970" points="276.3757,-240.0331 266.6096,-244.1408 276.8057,-247.0199 276.3757,-240.0331"/>
</g>
<!-- Node6 -->
<g id="node4" class="node">
<title>Node6</title>
<g id="a_node4"><a xlink:href="../../d4/dac/class_wilson_coefficient_new.html" target="_top" xlink:title="A class for the Wilson coefficients. ">
<polygon fill="none" stroke="#ff0000" points="184,-169.4328 184,-186.4328 278,-186.4328 278,-169.4328 184,-169.4328"/>
<text text-anchor="middle" x="231" y="-176.0328" font-family="Helvetica,sans-Serif" font-size="8.00" fill="#000000">WilsonCoefficientNew</text>
</a>
</g>
</g>
<!-- Node6&#45;&gt;Node4 -->
<g id="edge3" class="edge">
<title>Node6&#45;&gt;Node4</title>
<path fill="none" stroke="#9a32cd" stroke-dasharray="5,2" d="M288.3086,-176.1003C290.9081,-176.039 293.4814,-175.9826 296,-175.9328 316.1943,-175.5332 338.4129,-175.2933 357.7973,-175.1492"/>
<polygon fill="#9a32cd" stroke="#9a32cd" points="288.1212,-172.6039 278.214,-176.3584 288.3002,-179.6016 288.1212,-172.6039"/>
<text text-anchor="middle" x="318" y="-223.5328" font-family="Helvetica,sans-Serif" font-size="8.00" fill="#000000"> mcL</text>
<text text-anchor="middle" x="318" y="-214.5328" font-family="Helvetica,sans-Serif" font-size="8.00" fill="#000000">mcM</text>
<text text-anchor="middle" x="318" y="-205.5328" font-family="Helvetica,sans-Serif" font-size="8.00" fill="#000000">mcP</text>
<text text-anchor="middle" x="318" y="-196.5328" font-family="Helvetica,sans-Serif" font-size="8.00" fill="#000000">mcQ</text>
<text text-anchor="middle" x="318" y="-187.5328" font-family="Helvetica,sans-Serif" font-size="8.00" fill="#000000">mcB</text>
<text text-anchor="middle" x="318" y="-178.5328" font-family="Helvetica,sans-Serif" font-size="8.00" fill="#000000">mcC</text>
</g>
<!-- Node11 -->
<g id="node5" class="node">
<title>Node11</title>
<g id="a_node5"><a xlink:href="../../dd/d9b/classgslpp_1_1complex.html" target="_top" xlink:title="A class for defining operations on and functions of complex numbers. ">
<polygon fill="none" stroke="#000000" points="9,-133.4328 9,-150.4328 79,-150.4328 79,-133.4328 9,-133.4328"/>
<text text-anchor="middle" x="44" y="-140.0328" font-family="Helvetica,sans-Serif" font-size="8.00" fill="#000000">gslpp::complex</text>
</a>
</g>
</g>
<!-- Node11&#45;&gt;Node3 -->
<g id="edge14" class="edge">
<title>Node11&#45;&gt;Node3</title>
<path fill="none" stroke="#9a32cd" stroke-dasharray="5,2" d="M51.9288,-159.9806C70.1206,-199.639 118.394,-295.4923 184,-353.9328 248.7104,-411.5755 273.7032,-421.8288 358,-441.9328 402.5289,-452.5525 419.4599,-461.1688 461,-441.9328 508.6621,-419.8619 541.1326,-360.7889 551.9982,-338.5554"/>
<polygon fill="#9a32cd" stroke="#9a32cd" points="55.0761,-158.4455 47.7816,-150.7618 48.6923,-161.3174 55.0761,-158.4455"/>
<text text-anchor="middle" x="318" y="-529.5328" font-family="Helvetica,sans-Serif" font-size="8.00" fill="#000000"> C9NPmu</text>
<text text-anchor="middle" x="318" y="-520.5328" font-family="Helvetica,sans-Serif" font-size="8.00" fill="#000000">CPpNPe</text>
<text text-anchor="middle" x="318" y="-511.5328" font-family="Helvetica,sans-Serif" font-size="8.00" fill="#000000">CPNPe</text>
<text text-anchor="middle" x="318" y="-502.5328" font-family="Helvetica,sans-Serif" font-size="8.00" fill="#000000">loop_factor</text>
<text text-anchor="middle" x="318" y="-493.5328" font-family="Helvetica,sans-Serif" font-size="8.00" fill="#000000">CSpNPe</text>
<text text-anchor="middle" x="318" y="-484.5328" font-family="Helvetica,sans-Serif" font-size="8.00" fill="#000000">C9pNPmu</text>
<text text-anchor="middle" x="318" y="-475.5328" font-family="Helvetica,sans-Serif" font-size="8.00" fill="#000000">C10pNPmu</text>
<text text-anchor="middle" x="318" y="-466.5328" font-family="Helvetica,sans-Serif" font-size="8.00" fill="#000000">CPNPmu</text>
<text text-anchor="middle" x="318" y="-457.5328" font-family="Helvetica,sans-Serif" font-size="8.00" fill="#000000">C8pNP</text>
<text text-anchor="middle" x="318" y="-448.5328" font-family="Helvetica,sans-Serif" font-size="8.00" fill="#000000">C9NPe</text>
<text text-anchor="middle" x="318" y="-439.5328" font-family="Helvetica,sans-Serif" font-size="8.00" fill="#000000">...</text>
</g>
<!-- Node11&#45;&gt;Node4 -->
<g id="edge4" class="edge">
<title>Node11&#45;&gt;Node4</title>
<path fill="none" stroke="#9a32cd" stroke-dasharray="5,2" d="M89.2043,-141.7724C136.4379,-142.0489 212.6279,-143.7469 278,-150.9328 309.4879,-154.394 344.7831,-160.9875 370.8732,-166.3889"/>
<polygon fill="#9a32cd" stroke="#9a32cd" points="89.0152,-138.2718 79.0015,-141.7324 88.9877,-145.2717 89.0152,-138.2718"/>
<text text-anchor="middle" x="231" y="-153.5328" font-family="Helvetica,sans-Serif" font-size="8.00" fill="#000000"> lam_t</text>
</g>
<!-- Node20 -->
<g id="node8" class="node">
<title>Node20</title>
<g id="a_node8"><a xlink:href="../../dc/dd5/class_standard_model.html" target="_top" xlink:title="A model class for the Standard Model. ">
<polygon fill="none" stroke="#ff0000" points="195.5,-37.4328 195.5,-54.4328 266.5,-54.4328 266.5,-37.4328 195.5,-37.4328"/>
<text text-anchor="middle" x="231" y="-44.0328" font-family="Helvetica,sans-Serif" font-size="8.00" fill="#000000">StandardModel</text>
</a>
</g>
</g>
<!-- Node11&#45;&gt;Node20 -->
<g id="edge8" class="edge">
<title>Node11&#45;&gt;Node20</title>
<path fill="none" stroke="#9a32cd" stroke-dasharray="5,2" d="M69.7509,-128.6182C80.8927,-122.8634 94.085,-116.0579 106,-109.9328 144.5961,-90.092 189.9519,-66.9009 214.0076,-54.6107"/>
<polygon fill="#9a32cd" stroke="#9a32cd" points="67.8485,-125.6615 60.571,-133.3614 71.0619,-131.8804 67.8485,-125.6615"/>
<text text-anchor="middle" x="136" y="-121.5328" font-family="Helvetica,sans-Serif" font-size="8.00" fill="#000000"> rhoZ_f_cache</text>
<text text-anchor="middle" x="136" y="-112.5328" font-family="Helvetica,sans-Serif" font-size="8.00" fill="#000000">kappaZ_f_cache</text>
</g>
<!-- Node12 -->
<g id="node6" class="node">
<title>Node12</title>
<g id="a_node6"><a xlink:href="../../d2/d95/class_wilson_coefficient.html" target="_top" xlink:title="A class for the Wilson coefficients. ">
<polygon fill="none" stroke="#ff0000" points="192,-327.4328 192,-344.4328 270,-344.4328 270,-327.4328 192,-327.4328"/>
<text text-anchor="middle" x="231" y="-334.0328" font-family="Helvetica,sans-Serif" font-size="8.00" fill="#000000">WilsonCoefficient</text>
</a>
</g>
</g>
<!-- Node12&#45;&gt;Node3 -->
<g id="edge15" class="edge">
<title>Node12&#45;&gt;Node3</title>
<path fill="none" stroke="#9a32cd" stroke-dasharray="5,2" d="M248.7499,-351.0264C261.1108,-360.5059 278.4661,-371.8649 296,-376.9328 385.4554,-402.7887 496.528,-358.0852 538.6847,-338.4669"/>
<polygon fill="#9a32cd" stroke="#9a32cd" points="250.6922,-348.0975 240.7008,-344.5728 246.3134,-353.5589 250.6922,-348.0975"/>
<text text-anchor="middle" x="409.5" y="-431.5328" font-family="Helvetica,sans-Serif" font-size="8.00" fill="#000000"> mcBMll</text>
<text text-anchor="middle" x="409.5" y="-422.5328" font-family="Helvetica,sans-Serif" font-size="8.00" fill="#000000">mcprimebsg</text>
<text text-anchor="middle" x="409.5" y="-413.5328" font-family="Helvetica,sans-Serif" font-size="8.00" fill="#000000">mcbsmm</text>
<text text-anchor="middle" x="409.5" y="-404.5328" font-family="Helvetica,sans-Serif" font-size="8.00" fill="#000000">mcbdmm</text>
<text text-anchor="middle" x="409.5" y="-395.5328" font-family="Helvetica,sans-Serif" font-size="8.00" fill="#000000">mcbsg</text>
<text text-anchor="middle" x="409.5" y="-386.5328" font-family="Helvetica,sans-Serif" font-size="8.00" fill="#000000">mcprimeBMll</text>
</g>
<!-- Node12&#45;&gt;Node4 -->
<g id="edge5" class="edge">
<title>Node12&#45;&gt;Node4</title>
<path fill="none" stroke="#9a32cd" stroke-dasharray="5,2" d="M247.3649,-319.9812C260.1401,-307.8682 278.586,-291.1062 296,-277.9328 314.4858,-263.9485 322.1983,-264.7781 340,-249.9328 365.6309,-228.5587 391.0982,-198.1298 402.8193,-183.4725"/>
<polygon fill="#9a32cd" stroke="#9a32cd" points="244.649,-317.7365 239.8564,-327.1854 249.4954,-322.7876 244.649,-317.7365"/>
<text text-anchor="middle" x="318" y="-370.5328" font-family="Helvetica,sans-Serif" font-size="8.00" fill="#000000"> mcBMll</text>
<text text-anchor="middle" x="318" y="-361.5328" font-family="Helvetica,sans-Serif" font-size="8.00" fill="#000000">mcprimebsg</text>
<text text-anchor="middle" x="318" y="-352.5328" font-family="Helvetica,sans-Serif" font-size="8.00" fill="#000000">mcdk2</text>
<text text-anchor="middle" x="318" y="-343.5328" font-family="Helvetica,sans-Serif" font-size="8.00" fill="#000000">mcmueconv</text>
<text text-anchor="middle" x="318" y="-334.5328" font-family="Helvetica,sans-Serif" font-size="8.00" fill="#000000">mcbnlep</text>
<text text-anchor="middle" x="318" y="-325.5328" font-family="Helvetica,sans-Serif" font-size="8.00" fill="#000000">mcdbd2</text>
<text text-anchor="middle" x="318" y="-316.5328" font-family="Helvetica,sans-Serif" font-size="8.00" fill="#000000">mcbsmm</text>
<text text-anchor="middle" x="318" y="-307.5328" font-family="Helvetica,sans-Serif" font-size="8.00" fill="#000000">mcbsnn</text>
<text text-anchor="middle" x="318" y="-298.5328" font-family="Helvetica,sans-Serif" font-size="8.00" fill="#000000">mcd1</text>
<text text-anchor="middle" x="318" y="-289.5328" font-family="Helvetica,sans-Serif" font-size="8.00" fill="#000000">mcbnlepCC</text>
<text text-anchor="middle" x="318" y="-280.5328" font-family="Helvetica,sans-Serif" font-size="8.00" fill="#000000">...</text>
</g>
<!-- Node18 -->
<g id="node7" class="node">
<title>Node18</title>
<g id="a_node7"><a xlink:href="../../d1/d3c/classgslpp_1_1matrix.html" target="_top" xlink:title="gslpp::matrix\&lt; gslpp\l::complex \&gt;">
<polygon fill="none" stroke="#ff0000" points="0,-37.9328 0,-63.9328 88,-63.9328 88,-37.9328 0,-37.9328"/>
<text text-anchor="start" x="8" y="-53.5328" font-family="Helvetica,sans-Serif" font-size="8.00" fill="#000000">gslpp::matrix&lt; gslpp</text>
<text text-anchor="middle" x="44" y="-44.5328" font-family="Helvetica,sans-Serif" font-size="8.00" fill="#000000">::complex &gt;</text>
</a>
</g>
</g>
<!-- Node18&#45;&gt;Node4 -->
<g id="edge6" class="edge">
<title>Node18&#45;&gt;Node4</title>
<path fill="none" stroke="#9a32cd" stroke-dasharray="5,2" d="M75.853,-68.9108C85.3696,-73.8587 95.9483,-78.953 106,-82.9328 206.582,-122.757 237.1078,-116.5274 340,-149.9328 355.7331,-155.0408 373.2577,-161.3489 386.7734,-166.3506"/>
<polygon fill="#9a32cd" stroke="#9a32cd" points="77.2203,-65.6735 66.7493,-64.0583 73.9276,-71.8508 77.2203,-65.6735"/>
<text text-anchor="middle" x="231" y="-135.5328" font-family="Helvetica,sans-Serif" font-size="8.00" fill="#000000"> Vckm</text>
</g>
<!-- Node18&#45;&gt;Node20 -->
<g id="edge9" class="edge">
<title>Node18&#45;&gt;Node20</title>
<path fill="none" stroke="#9a32cd" stroke-dasharray="5,2" d="M64.406,-31.0439C75.6865,-21.4518 90.5271,-10.9561 106,-5.9328 131.3635,2.3015 140.3413,1.3297 166,-5.9328 187.419,-11.9953 208.7188,-27.3273 220.8313,-37.1517"/>
<polygon fill="#9a32cd" stroke="#9a32cd" points="61.9921,-28.507 56.8631,-37.7776 66.6539,-33.7289 61.9921,-28.507"/>
<text text-anchor="middle" x="136" y="-35.5328" font-family="Helvetica,sans-Serif" font-size="8.00" fill="#000000"> Yn</text>
<text text-anchor="middle" x="136" y="-26.5328" font-family="Helvetica,sans-Serif" font-size="8.00" fill="#000000">Yd</text>
<text text-anchor="middle" x="136" y="-17.5328" font-family="Helvetica,sans-Serif" font-size="8.00" fill="#000000">Yu</text>
<text text-anchor="middle" x="136" y="-8.5328" font-family="Helvetica,sans-Serif" font-size="8.00" fill="#000000">Ye</text>
</g>
<!-- Node20&#45;&gt;Node4 -->
<g id="edge7" class="edge">
<title>Node20&#45;&gt;Node4</title>
<path fill="none" stroke="#9a32cd" stroke-dasharray="5,2" d="M276.4633,-50.2491C297.2919,-53.9859 321.4179,-60.9519 340,-73.9328 375.0727,-98.4336 397.915,-146.724 406.1112,-166.3429"/>
<polygon fill="#9a32cd" stroke="#9a32cd" points="276.9693,-46.7857 266.5419,-48.6619 275.8634,-53.6978 276.9693,-46.7857"/>
<text text-anchor="middle" x="318" y="-76.5328" font-family="Helvetica,sans-Serif" font-size="8.00" fill="#000000"> SM</text>
</g>
<!-- Node47 -->
<g id="node9" class="node">
<title>Node47</title>
<g id="a_node9"><a xlink:href="../../d5/d7c/class_real_weak_e_f_t_l_f_v.html" target="_top" xlink:title="Model for NP contributions to flavour. ">
<polygon fill="none" stroke="#000000" points="898,-271.4328 898,-288.4328 981,-288.4328 981,-271.4328 898,-271.4328"/>
<text text-anchor="middle" x="939.5" y="-278.0328" font-family="Helvetica,sans-Serif" font-size="8.00" fill="#000000">RealWeakEFTLFV</text>
</a>
</g>
</g>
<!-- Node20&#45;&gt;Node47 -->
<g id="edge11" class="edge">
<title>Node20&#45;&gt;Node47</title>
<path fill="none" stroke="#191970" d="M276.7512,-43.5485C312.803,-41.8743 364.3459,-39.9328 409.5,-39.9328 409.5,-39.9328 409.5,-39.9328 741.5,-39.9328 864.1168,-39.9328 924.9619,-228.6376 937.1736,-271.3911"/>
<polygon fill="#191970" stroke="#191970" points="276.3709,-40.0626 266.5487,-44.0344 276.7039,-47.0546 276.3709,-40.0626"/>
</g>
<!-- Node47&#45;&gt;Node3 -->
<g id="edge10" class="edge">
<title>Node47&#45;&gt;Node3</title>
<path fill="none" stroke="#9a32cd" stroke-dasharray="5,2" d="M892.0544,-290.5939C887.9839,-291.4189 883.924,-292.2106 880,-292.9328 787.7095,-309.9175 679.1054,-320.4189 614.0012,-325.7124"/>
<polygon fill="#9a32cd" stroke="#9a32cd" points="893.048,-293.9621 902.1232,-288.4949 891.6194,-287.1094 893.048,-293.9621"/>
<text text-anchor="middle" x="741.5" y="-324.5328" font-family="Helvetica,sans-Serif" font-size="8.00" fill="#000000"> myRealWeakEFTLFV</text>
</g>
<!-- Node48&#45;&gt;Node47 -->
<g id="edge12" class="edge">
<title>Node48&#45;&gt;Node47</title>
<path fill="none" stroke="#9a32cd" stroke-dasharray="5,2" d="M830.0799,-279.9328C853.6589,-279.9328 878.0353,-279.9328 897.7786,-279.9328"/>
<polygon fill="#9a32cd" stroke="#9a32cd" points="830.0393,-276.4329 820.0392,-279.9328 830.0392,-283.4329 830.0393,-276.4329"/>
<text text-anchor="middle" x="859" y="-282.5328" font-family="Helvetica,sans-Serif" font-size="8.00" fill="#000000"> ReWEFTM</text>
</g>
</g>
</svg>
