<?xml version="1.0" encoding="UTF-8" standalone="no"?>
<!DOCTYPE svg PUBLIC "-//W3C//DTD SVG 1.1//EN"
 "http://www.w3.org/Graphics/SVG/1.1/DTD/svg11.dtd">
<!-- Generated by graphviz version 2.38.0 (20140413.2041)
 -->
<!-- Title: mass_mHh Pages: 1 -->
<svg width="383pt" height="215pt"
 viewBox="0.00 0.00 383.00 215.00" xmlns="http://www.w3.org/2000/svg" xmlns:xlink="http://www.w3.org/1999/xlink">
<g id="graph0" class="graph" transform="scale(1 1) rotate(0) translate(4 211)">
<title>mass_mHh</title>
<!-- Node1 -->
<g id="node1" class="node"><title>Node1</title>
<polygon fill="#bfbfbf" stroke="black" points="138.5,-0.5 138.5,-17.5 195.5,-17.5 195.5,-0.5 138.5,-0.5"/>
<text text-anchor="middle" x="167" y="-7.1" font-family="Helvetica,sans-Serif" font-size="8.00">mass_mHh</text>
</g>
<!-- Node2 -->
<g id="node2" class="node"><title>Node2</title>
<g id="a_node2"><a xlink:href="../../dc/d1f/class_th_observable.html" target="_top" xlink:title="A class for a model prediction of an observable. ">
<polygon fill="none" stroke="black" points="137.5,-63.5 137.5,-80.5 204.5,-80.5 204.5,-63.5 137.5,-63.5"/>
<text text-anchor="middle" x="171" y="-70.1" font-family="Helvetica,sans-Serif" font-size="8.00">ThObservable</text>
</a>
</g>
</g>
<!-- Node2&#45;&gt;Node1 -->
<g id="edge1" class="edge"><title>Node2&#45;&gt;Node1</title>
<path fill="none" stroke="midnightblue" d="M188.756,-56.0812C193.687,-50.1078 196.974,-42.992 194,-36 190.842,-28.5744 184.408,-22.2422 178.614,-17.6864"/>
<polygon fill="midnightblue" stroke="midnightblue" points="186.036,-53.8512 181.445,-63.3997 190.989,-58.7984 186.036,-53.8512"/>
</g>
<!-- Node3 -->
<g id="node3" class="node"><title>Node3</title>
<g id="a_node3"><a xlink:href="../../dc/dd5/class_standard_model.html" target="_top" xlink:title="A model class for the Standard Model. ">
<polygon fill="none" stroke="red" points="173.5,-126.5 173.5,-143.5 244.5,-143.5 244.5,-126.5 173.5,-126.5"/>
<text text-anchor="middle" x="209" y="-133.1" font-family="Helvetica,sans-Serif" font-size="8.00">StandardModel</text>
</a>
</g>
</g>
<!-- Node3&#45;&gt;Node2 -->
<g id="edge2" class="edge"><title>Node3&#45;&gt;Node2</title>
<path fill="none" stroke="#9a32cd" stroke-dasharray="5,2" d="M183.377,-120.802C178.832,-117.272 174.696,-113.013 172,-108 167.451,-99.541 168.136,-88.1914 169.328,-80.7414"/>
<polygon fill="#9a32cd" stroke="#9a32cd" points="181.508,-123.762 191.776,-126.374 185.378,-117.929 181.508,-123.762"/>
<text text-anchor="middle" x="179.5" y="-101.6" font-family="Helvetica,sans-Serif" font-size="8.00"> SM</text>
</g>
<!-- Node5 -->
<g id="node5" class="node"><title>Node5</title>
<g id="a_node5"><a xlink:href="../../dc/df3/class_e_w_s_mcache.html" target="_top" xlink:title="A class for cache variables used in computing radiative corrections to the EW precision observables...">
<polygon fill="none" stroke="red" points="222.5,-63.5 222.5,-80.5 285.5,-80.5 285.5,-63.5 222.5,-63.5"/>
<text text-anchor="middle" x="254" y="-70.1" font-family="Helvetica,sans-Serif" font-size="8.00">EWSMcache</text>
</a>
</g>
</g>
<!-- Node3&#45;&gt;Node5 -->
<g id="edge5" class="edge"><title>Node3&#45;&gt;Node5</title>
<path fill="none" stroke="#9a32cd" stroke-dasharray="5,2" d="M206.213,-116.235C206.127,-110.399 206.989,-104.105 210,-99 214.958,-90.5928 223.779,-84.6102 232.228,-80.5207"/>
<polygon fill="#9a32cd" stroke="#9a32cd" points="202.758,-116.857 207.232,-126.46 209.723,-116.162 202.758,-116.857"/>
<text text-anchor="middle" x="217.5" y="-101.6" font-family="Helvetica,sans-Serif" font-size="8.00"> SM</text>
</g>
<!-- Node8 -->
<g id="node8" class="node"><title>Node8</title>
<g id="a_node8"><a xlink:href="../../d0/d52/class_t_h_d_m.html" target="_top" xlink:title="A base class &#160;symmetric Two&#45;Higgs&#45;Doublet models. ">
<polygon fill="none" stroke="black" points="54,-63.5 54,-80.5 94,-80.5 94,-63.5 54,-63.5"/>
<text text-anchor="middle" x="74" y="-70.1" font-family="Helvetica,sans-Serif" font-size="8.00">THDM</text>
</a>
</g>
</g>
<!-- Node3&#45;&gt;Node8 -->
<g id="edge10" class="edge"><title>Node3&#45;&gt;Node8</title>
<path fill="none" stroke="midnightblue" d="M182.853,-122.186C155.584,-109.864 113.664,-90.9221 90.6128,-80.5065"/>
<polygon fill="midnightblue" stroke="midnightblue" points="181.621,-125.469 192.175,-126.398 184.503,-119.09 181.621,-125.469"/>
</g>
<!-- Node4 -->
<g id="node4" class="node"><title>Node4</title>
<g id="a_node4"><a xlink:href="../../dd/dfa/class_q_c_d.html" target="_top" xlink:title="A class for parameters related to QCD, hadrons and quarks. ">
<polygon fill="none" stroke="red" points="166,-189.5 166,-206.5 200,-206.5 200,-189.5 166,-189.5"/>
<text text-anchor="middle" x="183" y="-196.1" font-family="Helvetica,sans-Serif" font-size="8.00">QCD</text>
</a>
</g>
</g>
<!-- Node4&#45;&gt;Node3 -->
<g id="edge3" class="edge"><title>Node4&#45;&gt;Node3</title>
<path fill="none" stroke="midnightblue" d="M190.25,-179.991C195.292,-168.161 201.78,-152.94 205.652,-143.856"/>
<polygon fill="midnightblue" stroke="midnightblue" points="186.994,-178.703 186.293,-189.274 193.434,-181.447 186.994,-178.703"/>
</g>
<!-- Node5&#45;&gt;Node3 -->
<g id="edge4" class="edge"><title>Node5&#45;&gt;Node3</title>
<path fill="none" stroke="#9a32cd" stroke-dasharray="5,2" d="M242.115,-89.1103C233.26,-101.114 221.559,-116.975 214.699,-126.274"/>
<polygon fill="#9a32cd" stroke="#9a32cd" points="245.085,-90.9807 248.205,-80.8556 239.452,-86.8251 245.085,-90.9807"/>
<text text-anchor="middle" x="265" y="-101.6" font-family="Helvetica,sans-Serif" font-size="8.00"> myEWSMcache</text>
</g>
<!-- Node7 -->
<g id="node7" class="node"><title>Node7</title>
<g id="a_node7"><a xlink:href="../../d5/dad/class_e_w_s_m_three_loop_e_w.html" target="_top" xlink:title="A class for &#160;three&#45;loop corrections to the EW precision observables. ">
<polygon fill="none" stroke="black" points="225.5,-0.5 225.5,-17.5 318.5,-17.5 318.5,-0.5 225.5,-0.5"/>
<text text-anchor="middle" x="272" y="-7.1" font-family="Helvetica,sans-Serif" font-size="8.00">EWSMThreeLoopEW</text>
</a>
</g>
</g>
<!-- Node5&#45;&gt;Node7 -->
<g id="edge8" class="edge"><title>Node5&#45;&gt;Node7</title>
<path fill="none" stroke="#9a32cd" stroke-dasharray="5,2" d="M259.125,-53.6313C262.6,-41.8542 267.028,-26.8484 269.682,-17.8556"/>
<polygon fill="#9a32cd" stroke="#9a32cd" points="255.753,-52.6926 256.28,-63.2743 262.467,-54.6737 255.753,-52.6926"/>
<text text-anchor="middle" x="277" y="-38.6" font-family="Helvetica,sans-Serif" font-size="8.00"> cache</text>
</g>
<!-- Node6 -->
<g id="node6" class="node"><title>Node6</title>
<g id="a_node6"><a xlink:href="../../d9/db9/class_c_k_m.html" target="_top" xlink:title="A class for the CKM matrix elements. ">
<polygon fill="none" stroke="red" points="218,-189.5 218,-206.5 252,-206.5 252,-189.5 218,-189.5"/>
<text text-anchor="middle" x="235" y="-196.1" font-family="Helvetica,sans-Serif" font-size="8.00">CKM</text>
</a>
</g>
</g>
<!-- Node6&#45;&gt;Node3 -->
<g id="edge6" class="edge"><title>Node6&#45;&gt;Node3</title>
<path fill="none" stroke="#9a32cd" stroke-dasharray="5,2" d="M227.75,-179.991C222.708,-168.161 216.22,-152.94 212.348,-143.856"/>
<polygon fill="#9a32cd" stroke="#9a32cd" points="224.566,-181.447 231.707,-189.274 231.006,-178.703 224.566,-181.447"/>
<text text-anchor="middle" x="239.5" y="-164.6" font-family="Helvetica,sans-Serif" font-size="8.00"> myCKM</text>
</g>
<!-- Node7&#45;&gt;Node3 -->
<g id="edge7" class="edge"><title>Node7&#45;&gt;Node3</title>
<path fill="none" stroke="#9a32cd" stroke-dasharray="5,2" d="M286.932,-25.56C289.33,-28.7994 291.51,-32.3465 293,-36 341.394,-154.68 307.074,-97.2635 299,-108 286.488,-124.638 263.988,-131.138 244.616,-133.479"/>
<polygon fill="#9a32cd" stroke="#9a32cd" points="289.53,-23.2121 280.397,-17.8421 284.188,-27.7355 289.53,-23.2121"/>
<text text-anchor="middle" x="342.5" y="-70.1" font-family="Helvetica,sans-Serif" font-size="8.00"> myThreeLoopEW</text>
</g>
<!-- Node8&#45;&gt;Node1 -->
<g id="edge9" class="edge"><title>Node8&#45;&gt;Node1</title>
<path fill="none" stroke="#9a32cd" stroke-dasharray="5,2" d="M103.373,-59.9072C112.578,-55.8356 122.536,-50.7857 131,-45 142.514,-37.1291 153.698,-25.425 160.467,-17.7537"/>
<polygon fill="#9a32cd" stroke="#9a32cd" points="102.009,-56.6838 94.1471,-63.7859 104.722,-63.1367 102.009,-56.6838"/>
<text text-anchor="middle" x="160" y="-38.6" font-family="Helvetica,sans-Serif" font-size="8.00"> myTHDM</text>
</g>
<!-- Node10 -->
<g id="node10" class="node"><title>Node10</title>
<g id="a_node10"><a xlink:href="../../dc/d38/class_t_h_d_m_matching.html" target="_top" xlink:title="A class for the Wilson coefficients in the THDM. ">
<polygon fill="none" stroke="red" points="0,-0.5 0,-17.5 72,-17.5 72,-0.5 0,-0.5"/>
<text text-anchor="middle" x="36" y="-7.1" font-family="Helvetica,sans-Serif" font-size="8.00">THDMMatching</text>
</a>
</g>
</g>
<!-- Node8&#45;&gt;Node10 -->
<g id="edge13" class="edge"><title>Node8&#45;&gt;Node10</title>
<path fill="none" stroke="#9a32cd" stroke-dasharray="5,2" d="M43.8663,-65.5673C32.1876,-61.8314 19.9706,-55.5485 13,-45 6.74657,-35.5368 16.6553,-24.6101 25.3507,-17.5175"/>
<polygon fill="#9a32cd" stroke="#9a32cd" points="43.2807,-69.0337 53.8456,-68.2379 45.0904,-62.2717 43.2807,-69.0337"/>
<text text-anchor="middle" x="31" y="-38.6" font-family="Helvetica,sans-Serif" font-size="8.00"> myTHDM</text>
</g>
<!-- Node9 -->
<g id="node9" class="node"><title>Node9</title>
<g id="a_node9"><a xlink:href="../../d5/df2/class_t_h_d_mcache.html" target="_top" xlink:title="A class for the caching of some THDM objects. ">
<polygon fill="none" stroke="red" points="43.5,-126.5 43.5,-143.5 104.5,-143.5 104.5,-126.5 43.5,-126.5"/>
<text text-anchor="middle" x="74" y="-133.1" font-family="Helvetica,sans-Serif" font-size="8.00">THDMcache</text>
</a>
</g>
</g>
<!-- Node9&#45;&gt;Node8 -->
<g id="edge11" class="edge"><title>Node9&#45;&gt;Node8</title>
<path fill="none" stroke="#9a32cd" stroke-dasharray="5,2" d="M74,-116.27C74,-104.549 74,-89.7567 74,-80.8556"/>
<polygon fill="#9a32cd" stroke="#9a32cd" points="70.5001,-116.274 74,-126.274 77.5001,-116.274 70.5001,-116.274"/>
<text text-anchor="middle" x="91.5" y="-101.6" font-family="Helvetica,sans-Serif" font-size="8.00"> mycache</text>
</g>
<!-- Node10&#45;&gt;Node8 -->
<g id="edge12" class="edge"><title>Node10&#45;&gt;Node8</title>
<path fill="none" stroke="#9a32cd" stroke-dasharray="5,2" d="M46.2565,-26.4644C53.7069,-38.4242 63.4512,-54.0663 69.1873,-63.2743"/>
<polygon fill="#9a32cd" stroke="#9a32cd" points="49.1519,-24.4928 40.8937,-17.8556 43.2105,-28.1941 49.1519,-24.4928"/>
<text text-anchor="middle" x="92.5" y="-38.6" font-family="Helvetica,sans-Serif" font-size="8.00"> myTHDMMatching</text>
</g>
</g>
</svg>
