<?xml version="1.0" encoding="UTF-8" standalone="no"?>
<!DOCTYPE svg PUBLIC "-//W3C//DTD SVG 1.1//EN"
 "http://www.w3.org/Graphics/SVG/1.1/DTD/svg11.dtd">
<!-- Generated by graphviz version 2.38.0 (20140413.2041)
 -->
<!-- Title: ModelParameter.cpp Pages: 1 -->
<svg width="214pt" height="134pt"
 viewBox="0.00 0.00 214.00 134.00" xmlns="http://www.w3.org/2000/svg" xmlns:xlink="http://www.w3.org/1999/xlink">
<g id="graph0" class="graph" transform="scale(1 1) rotate(0) translate(4 130)">
<title>ModelParameter.cpp</title>
<!-- Node1 -->
<g id="node1" class="node"><title>Node1</title>
<polygon fill="#bfbfbf" stroke="black" points="32.5,-108.5 32.5,-125.5 123.5,-125.5 123.5,-108.5 32.5,-108.5"/>
<text text-anchor="middle" x="78" y="-115.1" font-family="Helvetica,sans-Serif" font-size="8.00">ModelParameter.cpp</text>
</g>
<!-- Node2 -->
<g id="node2" class="node"><title>Node2</title>
<g id="a_node2"><a xlink:href="../../d0/d94/_model_parameter_8h.html" target="_top" xlink:title="ModelParameter.h">
<polygon fill="none" stroke="black" points="37,-54.5 37,-71.5 119,-71.5 119,-54.5 37,-54.5"/>
<text text-anchor="middle" x="78" y="-61.1" font-family="Helvetica,sans-Serif" font-size="8.00">ModelParameter.h</text>
</a>
</g>
</g>
<!-- Node1&#45;&gt;Node2 -->
<g id="edge1" class="edge"><title>Node1&#45;&gt;Node2</title>
<path fill="none" stroke="midnightblue" d="M78,-108.327C78,-101.414 78,-90.985 78,-81.9789"/>
<polygon fill="midnightblue" stroke="midnightblue" points="81.5001,-81.7042 78,-71.7043 74.5001,-81.7043 81.5001,-81.7042"/>
</g>
<!-- Node3 -->
<g id="node3" class="node"><title>Node3</title>
<polygon fill="none" stroke="#bfbfbf" points="0,-0.5 0,-17.5 36,-17.5 36,-0.5 0,-0.5"/>
<text text-anchor="middle" x="18" y="-7.1" font-family="Helvetica,sans-Serif" font-size="8.00">string</text>
</g>
<!-- Node2&#45;&gt;Node3 -->
<g id="edge2" class="edge"><title>Node2&#45;&gt;Node3</title>
<path fill="none" stroke="midnightblue" d="M69.1468,-54.3272C60.1071,-46.4928 45.8553,-34.1412 34.6893,-24.4641"/>
<polygon fill="midnightblue" stroke="midnightblue" points="36.7387,-21.6087 26.8895,-17.7043 32.1542,-26.8985 36.7387,-21.6087"/>
</g>
<!-- Node4 -->
<g id="node4" class="node"><title>Node4</title>
<polygon fill="none" stroke="#bfbfbf" points="54.5,-0.5 54.5,-17.5 101.5,-17.5 101.5,-0.5 54.5,-0.5"/>
<text text-anchor="middle" x="78" y="-7.1" font-family="Helvetica,sans-Serif" font-size="8.00">iostream</text>
</g>
<!-- Node2&#45;&gt;Node4 -->
<g id="edge3" class="edge"><title>Node2&#45;&gt;Node4</title>
<path fill="none" stroke="midnightblue" d="M78,-54.3272C78,-47.4145 78,-36.985 78,-27.9789"/>
<polygon fill="midnightblue" stroke="midnightblue" points="81.5001,-27.7042 78,-17.7043 74.5001,-27.7043 81.5001,-27.7042"/>
</g>
<!-- Node5 -->
<g id="node5" class="node"><title>Node5</title>
<polygon fill="none" stroke="#bfbfbf" points="120,-0.5 120,-17.5 206,-17.5 206,-0.5 120,-0.5"/>
<text text-anchor="middle" x="163" y="-7.1" font-family="Helvetica,sans-Serif" font-size="8.00">boost/tokenizer.hpp</text>
</g>
<!-- Node2&#45;&gt;Node5 -->
<g id="edge4" class="edge"><title>Node2&#45;&gt;Node5</title>
<path fill="none" stroke="midnightblue" d="M90.542,-54.3272C104.053,-46.0615 125.784,-32.7677 141.927,-22.8914"/>
<polygon fill="midnightblue" stroke="midnightblue" points="143.979,-25.7394 150.683,-17.5352 140.326,-19.7682 143.979,-25.7394"/>
</g>
</g>
</svg>
