<?xml version="1.0" encoding="UTF-8" standalone="no"?>
<!DOCTYPE svg PUBLIC "-//W3C//DTD SVG 1.1//EN"
 "http://www.w3.org/Graphics/SVG/1.1/DTD/svg11.dtd">
<!-- Generated by graphviz version 2.38.0 (20140413.2041)
 -->
<!-- Title: ComputeObservables.cpp Pages: 1 -->
<svg width="605pt" height="197pt"
 viewBox="0.00 0.00 605.00 197.00" xmlns="http://www.w3.org/2000/svg" xmlns:xlink="http://www.w3.org/1999/xlink">
<g id="graph0" class="graph" transform="scale(1 1) rotate(0) translate(4 193)">
<title>ComputeObservables.cpp</title>
<!-- Node1 -->
<g id="node1" class="node"><title>Node1</title>
<polygon fill="#bfbfbf" stroke="black" points="243,-171.5 243,-188.5 352,-188.5 352,-171.5 243,-171.5"/>
<text text-anchor="middle" x="297.5" y="-178.1" font-family="Helvetica,sans-Serif" font-size="8.00">ComputeObservables.cpp</text>
</g>
<!-- Node2 -->
<g id="node2" class="node"><title>Node2</title>
<g id="a_node2"><a xlink:href="../../d8/db2/_observable_8h.html" target="_top" xlink:title="Observable.h">
<polygon fill="none" stroke="red" points="107.5,-54.5 107.5,-71.5 171.5,-71.5 171.5,-54.5 107.5,-54.5"/>
<text text-anchor="middle" x="139.5" y="-61.1" font-family="Helvetica,sans-Serif" font-size="8.00">Observable.h</text>
</a>
</g>
</g>
<!-- Node1&#45;&gt;Node2 -->
<g id="edge1" class="edge"><title>Node1&#45;&gt;Node2</title>
<path fill="none" stroke="midnightblue" d="M242.833,-172.231C198.382,-165.472 140.774,-153.412 126.5,-135 114.407,-119.402 122.115,-96.1222 129.836,-80.5171"/>
<polygon fill="midnightblue" stroke="midnightblue" points="133.02,-81.9885 134.705,-71.5284 126.865,-78.6548 133.02,-81.9885"/>
</g>
<!-- Node7 -->
<g id="node7" class="node"><title>Node7</title>
<g id="a_node7"><a xlink:href="../../d9/df1/_observable2_d_8h.html" target="_top" xlink:title="Observable2D.h">
<polygon fill="none" stroke="red" points="135.5,-113 135.5,-130 209.5,-130 209.5,-113 135.5,-113"/>
<text text-anchor="middle" x="172.5" y="-119.6" font-family="Helvetica,sans-Serif" font-size="8.00">Observable2D.h</text>
</a>
</g>
</g>
<!-- Node1&#45;&gt;Node7 -->
<g id="edge6" class="edge"><title>Node1&#45;&gt;Node7</title>
<path fill="none" stroke="midnightblue" d="M280.901,-171.497C259.795,-161.957 223.124,-145.382 198.343,-134.181"/>
<polygon fill="midnightblue" stroke="midnightblue" points="199.722,-130.963 189.168,-130.034 196.838,-137.342 199.722,-130.963"/>
</g>
<!-- Node8 -->
<g id="node8" class="node"><title>Node8</title>
<polygon fill="none" stroke="#bfbfbf" points="228,-113 228,-130 367,-130 367,-113 228,-113"/>
<text text-anchor="middle" x="297.5" y="-119.6" font-family="Helvetica,sans-Serif" font-size="8.00">CorrelatedGaussianObservables.h</text>
</g>
<!-- Node1&#45;&gt;Node8 -->
<g id="edge8" class="edge"><title>Node1&#45;&gt;Node8</title>
<path fill="none" stroke="midnightblue" d="M297.5,-171.144C297.5,-163.217 297.5,-150.702 297.5,-140.352"/>
<polygon fill="midnightblue" stroke="midnightblue" points="301,-140.289 297.5,-130.289 294,-140.289 301,-140.289"/>
</g>
<!-- Node9 -->
<g id="node9" class="node"><title>Node9</title>
<g id="a_node9"><a xlink:href="../../d1/dae/_compute_observables_8h.html" target="_top" xlink:title="ComputeObservables.h">
<polygon fill="none" stroke="red" points="385,-113 385,-130 486,-130 486,-113 385,-113"/>
<text text-anchor="middle" x="435.5" y="-119.6" font-family="Helvetica,sans-Serif" font-size="8.00">ComputeObservables.h</text>
</a>
</g>
</g>
<!-- Node1&#45;&gt;Node9 -->
<g id="edge9" class="edge"><title>Node1&#45;&gt;Node9</title>
<path fill="none" stroke="midnightblue" d="M315.825,-171.497C339.333,-161.873 380.329,-145.088 407.692,-133.885"/>
<polygon fill="midnightblue" stroke="midnightblue" points="409.171,-137.062 417.099,-130.034 406.518,-130.584 409.171,-137.062"/>
</g>
<!-- Node10 -->
<g id="node10" class="node"><title>Node10</title>
<polygon fill="none" stroke="#bfbfbf" points="504,-108.5 504,-134.5 597,-134.5 597,-108.5 504,-108.5"/>
<text text-anchor="start" x="512" y="-124.1" font-family="Helvetica,sans-Serif" font-size="8.00">boost/algorithm/string</text>
<text text-anchor="middle" x="550.5" y="-115.1" font-family="Helvetica,sans-Serif" font-size="8.00">/predicate.hpp</text>
</g>
<!-- Node1&#45;&gt;Node10 -->
<g id="edge10" class="edge"><title>Node1&#45;&gt;Node10</title>
<path fill="none" stroke="midnightblue" d="M331.496,-171.497C368.943,-163.222 431.219,-149.425 493.928,-135.347"/>
<polygon fill="midnightblue" stroke="midnightblue" points="495.003,-138.693 503.993,-133.086 493.469,-131.863 495.003,-138.693"/>
</g>
<!-- Node3 -->
<g id="node3" class="node"><title>Node3</title>
<g id="a_node3"><a xlink:href="../../dd/dcd/_th_observable_8h.html" target="_top" xlink:title="ThObservable.h">
<polygon fill="none" stroke="red" points="0,-0.5 0,-17.5 73,-17.5 73,-0.5 0,-0.5"/>
<text text-anchor="middle" x="36.5" y="-7.1" font-family="Helvetica,sans-Serif" font-size="8.00">ThObservable.h</text>
</a>
</g>
</g>
<!-- Node2&#45;&gt;Node3 -->
<g id="edge2" class="edge"><title>Node2&#45;&gt;Node3</title>
<path fill="none" stroke="midnightblue" d="M124.302,-54.3272C107.47,-45.8298 80.1131,-32.0183 60.4058,-22.069"/>
<polygon fill="midnightblue" stroke="midnightblue" points="61.9298,-18.9176 51.4255,-17.5352 58.775,-25.1664 61.9298,-18.9176"/>
</g>
<!-- Node4 -->
<g id="node4" class="node"><title>Node4</title>
<polygon fill="none" stroke="#bfbfbf" points="91.5,-0.5 91.5,-17.5 127.5,-17.5 127.5,-0.5 91.5,-0.5"/>
<text text-anchor="middle" x="109.5" y="-7.1" font-family="Helvetica,sans-Serif" font-size="8.00">string</text>
</g>
<!-- Node2&#45;&gt;Node4 -->
<g id="edge3" class="edge"><title>Node2&#45;&gt;Node4</title>
<path fill="none" stroke="midnightblue" d="M135.073,-54.3272C130.864,-47.0304 124.393,-35.8153 119.015,-26.4919"/>
<polygon fill="midnightblue" stroke="midnightblue" points="121.974,-24.6171 113.945,-17.7043 115.91,-28.1152 121.974,-24.6171"/>
</g>
<!-- Node5 -->
<g id="node5" class="node"><title>Node5</title>
<polygon fill="none" stroke="#bfbfbf" points="146,-0.5 146,-17.5 193,-17.5 193,-0.5 146,-0.5"/>
<text text-anchor="middle" x="169.5" y="-7.1" font-family="Helvetica,sans-Serif" font-size="8.00">iostream</text>
</g>
<!-- Node2&#45;&gt;Node5 -->
<g id="edge4" class="edge"><title>Node2&#45;&gt;Node5</title>
<path fill="none" stroke="midnightblue" d="M143.927,-54.3272C148.136,-47.0304 154.607,-35.8153 159.985,-26.4919"/>
<polygon fill="midnightblue" stroke="midnightblue" points="163.09,-28.1152 165.055,-17.7043 157.026,-24.6171 163.09,-28.1152"/>
</g>
<!-- Node6 -->
<g id="node6" class="node"><title>Node6</title>
<polygon fill="none" stroke="#bfbfbf" points="211.5,-0.5 211.5,-17.5 255.5,-17.5 255.5,-0.5 211.5,-0.5"/>
<text text-anchor="middle" x="233.5" y="-7.1" font-family="Helvetica,sans-Serif" font-size="8.00">TH1D.h</text>
</g>
<!-- Node2&#45;&gt;Node6 -->
<g id="edge5" class="edge"><title>Node2&#45;&gt;Node6</title>
<path fill="none" stroke="midnightblue" d="M153.37,-54.3272C168.452,-45.9843 192.793,-32.5188 210.695,-22.6154"/>
<polygon fill="midnightblue" stroke="midnightblue" points="212.823,-25.4385 219.879,-17.5352 209.434,-19.3132 212.823,-25.4385"/>
</g>
<!-- Node7&#45;&gt;Node2 -->
<g id="edge7" class="edge"><title>Node7&#45;&gt;Node2</title>
<path fill="none" stroke="midnightblue" d="M167.911,-112.644C163.084,-104.379 155.345,-91.1286 149.162,-80.5426"/>
<polygon fill="midnightblue" stroke="midnightblue" points="152.115,-78.6592 144.05,-71.7894 146.071,-82.1896 152.115,-78.6592"/>
</g>
</g>
</svg>
