<?xml version="1.0" encoding="UTF-8" standalone="no"?>
<!DOCTYPE svg PUBLIC "-//W3C//DTD SVG 1.1//EN"
 "http://www.w3.org/Graphics/SVG/1.1/DTD/svg11.dtd">
<!-- Generated by graphviz version 2.38.0 (20140413.2041)
 -->
<!-- Title: FlavourWilsonCoefficientMatching Pages: 1 -->
<svg width="986pt" height="462pt"
 viewBox="0.00 0.00 986.00 461.81" xmlns="http://www.w3.org/2000/svg" xmlns:xlink="http://www.w3.org/1999/xlink">
<g id="graph0" class="graph" transform="scale(1 1) rotate(0) translate(4 457.813)">
<title>FlavourWilsonCoefficientMatching</title>
<!-- Node1 -->
<g id="node1" class="node"><title>Node1</title>
<polygon fill="#bfbfbf" stroke="black" points="630,-90.8131 630,-116.813 735,-116.813 735,-90.8131 630,-90.8131"/>
<text text-anchor="start" x="638" y="-106.413" font-family="Helvetica,sans-Serif" font-size="8.00">FlavourWilsonCoefficient</text>
<text text-anchor="middle" x="682.5" y="-97.4131" font-family="Helvetica,sans-Serif" font-size="8.00">Matching</text>
</g>
<!-- Node10 -->
<g id="node10" class="node"><title>Node10</title>
<g id="a_node10"><a xlink:href="../../d6/d75/class_flavour_wilson_coefficient.html" target="_top" xlink:title="Model for NP contributions to flavour. ">
<polygon fill="none" stroke="black" points="873,-177.313 873,-194.313 978,-194.313 978,-177.313 873,-177.313"/>
<text text-anchor="middle" x="925.5" y="-183.913" font-family="Helvetica,sans-Serif" font-size="8.00">FlavourWilsonCoefficient</text>
</a>
</g>
</g>
<!-- Node1&#45;&gt;Node10 -->
<g id="edge14" class="edge"><title>Node1&#45;&gt;Node10</title>
<path fill="none" stroke="#9a32cd" stroke-dasharray="5,2" d="M709.498,-122.757C722.106,-131.18 737.786,-140.58 753,-146.813 765.008,-151.733 836.696,-167.317 883.506,-177.232"/>
<polygon fill="#9a32cd" stroke="#9a32cd" points="711.136,-119.635 700.912,-116.855 707.171,-125.404 711.136,-119.635"/>
<text text-anchor="start" x="753" y="-182.413" font-family="Helvetica,sans-Serif" font-size="8.00"> myFlavourWilsonCoefficient</text>
<text text-anchor="middle" x="804" y="-173.413" font-family="Helvetica,sans-Serif" font-size="8.00">Matching</text>
</g>
<!-- Node2 -->
<g id="node2" class="node"><title>Node2</title>
<g id="a_node2"><a xlink:href="../../d6/d2e/class_standard_model_matching.html" target="_top" xlink:title="A class for the matching in the Standard Model. ">
<polygon fill="none" stroke="black" points="391,-91.3131 391,-108.313 494,-108.313 494,-91.3131 391,-91.3131"/>
<text text-anchor="middle" x="442.5" y="-97.9131" font-family="Helvetica,sans-Serif" font-size="8.00">StandardModelMatching</text>
</a>
</g>
</g>
<!-- Node2&#45;&gt;Node1 -->
<g id="edge1" class="edge"><title>Node2&#45;&gt;Node1</title>
<path fill="none" stroke="midnightblue" d="M504.405,-100.837C543.273,-101.49 593.098,-102.327 629.992,-102.947"/>
<polygon fill="midnightblue" stroke="midnightblue" points="504.322,-97.3349 494.265,-100.666 504.205,-104.334 504.322,-97.3349"/>
</g>
<!-- Node9 -->
<g id="node9" class="node"><title>Node9</title>
<g id="a_node9"><a xlink:href="../../dc/dd5/class_standard_model.html" target="_top" xlink:title="A model class for the Standard Model. ">
<polygon fill="none" stroke="red" points="647,-201.313 647,-218.313 718,-218.313 718,-201.313 647,-201.313"/>
<text text-anchor="middle" x="682.5" y="-207.913" font-family="Helvetica,sans-Serif" font-size="8.00">StandardModel</text>
</a>
</g>
</g>
<!-- Node2&#45;&gt;Node9 -->
<g id="edge9" class="edge"><title>Node2&#45;&gt;Node9</title>
<path fill="none" stroke="#9a32cd" stroke-dasharray="5,2" d="M472.059,-112.778C479.227,-116.043 486.899,-119.549 494,-122.813 556.113,-151.367 629.612,-185.601 663.156,-201.249"/>
<polygon fill="#9a32cd" stroke="#9a32cd" points="473.25,-109.475 462.699,-108.519 470.351,-115.846 473.25,-109.475"/>
<text text-anchor="middle" x="562" y="-179.413" font-family="Helvetica,sans-Serif" font-size="8.00"> myStandardModelMatching</text>
</g>
<!-- Node3 -->
<g id="node3" class="node"><title>Node3</title>
<g id="a_node3"><a xlink:href="../../d0/d2a/class_model_matching.html" target="_top" xlink:title="A class for a template of model matching. ">
<polygon fill="none" stroke="black" points="231.5,-259.313 231.5,-276.313 302.5,-276.313 302.5,-259.313 231.5,-259.313"/>
<text text-anchor="middle" x="267" y="-265.913" font-family="Helvetica,sans-Serif" font-size="8.00">ModelMatching</text>
</a>
</g>
</g>
<!-- Node3&#45;&gt;Node2 -->
<g id="edge2" class="edge"><title>Node3&#45;&gt;Node2</title>
<path fill="none" stroke="midnightblue" d="M312.133,-258.312C333.636,-251.435 358.023,-239.882 373,-220.813 400.353,-185.987 363.76,-157.728 391,-122.813 395.978,-116.433 403.126,-111.763 410.484,-108.369"/>
<polygon fill="midnightblue" stroke="midnightblue" points="311.102,-254.967 302.501,-261.153 313.082,-261.681 311.102,-254.967"/>
</g>
<!-- Node4 -->
<g id="node4" class="node"><title>Node4</title>
<g id="a_node4"><a xlink:href="../../dd/d9b/classgslpp_1_1complex.html" target="_top" xlink:title="A class for defining operations on and functions of complex numbers. ">
<polygon fill="none" stroke="black" points="232,-338.313 232,-355.313 302,-355.313 302,-338.313 232,-338.313"/>
<text text-anchor="middle" x="267" y="-344.913" font-family="Helvetica,sans-Serif" font-size="8.00">gslpp::complex</text>
</a>
</g>
</g>
<!-- Node4&#45;&gt;Node1 -->
<g id="edge16" class="edge"><title>Node4&#45;&gt;Node1</title>
<path fill="none" stroke="#9a32cd" stroke-dasharray="5,2" d="M312.066,-342.219C333.756,-337.583 358.333,-328.314 373,-309.813 395.914,-280.91 365.205,-171.177 391,-144.813 425.64,-109.409 563.029,-123.251 612,-115.813 617.811,-114.931 623.886,-113.957 629.922,-112.958"/>
<polygon fill="#9a32cd" stroke="#9a32cd" points="311.217,-338.817 302.029,-344.091 312.501,-345.698 311.217,-338.817"/>
<text text-anchor="middle" x="442.5" y="-237.413" font-family="Helvetica,sans-Serif" font-size="8.00"> DC2</text>
<text text-anchor="middle" x="442.5" y="-228.413" font-family="Helvetica,sans-Serif" font-size="8.00">DC3</text>
<text text-anchor="middle" x="442.5" y="-219.413" font-family="Helvetica,sans-Serif" font-size="8.00">DC4</text>
<text text-anchor="middle" x="442.5" y="-210.413" font-family="Helvetica,sans-Serif" font-size="8.00">DC9p</text>
<text text-anchor="middle" x="442.5" y="-201.413" font-family="Helvetica,sans-Serif" font-size="8.00">DC5</text>
<text text-anchor="middle" x="442.5" y="-192.413" font-family="Helvetica,sans-Serif" font-size="8.00">DC8p</text>
<text text-anchor="middle" x="442.5" y="-183.413" font-family="Helvetica,sans-Serif" font-size="8.00">DC6</text>
<text text-anchor="middle" x="442.5" y="-174.413" font-family="Helvetica,sans-Serif" font-size="8.00">DC7p</text>
<text text-anchor="middle" x="442.5" y="-165.413" font-family="Helvetica,sans-Serif" font-size="8.00">DC7</text>
<text text-anchor="middle" x="442.5" y="-156.413" font-family="Helvetica,sans-Serif" font-size="8.00">DC8</text>
<text text-anchor="middle" x="442.5" y="-147.413" font-family="Helvetica,sans-Serif" font-size="8.00">...</text>
</g>
<!-- Node4&#45;&gt;Node2 -->
<g id="edge3" class="edge"><title>Node4&#45;&gt;Node2</title>
<path fill="none" stroke="#9a32cd" stroke-dasharray="5,2" d="M287.314,-331.823C314.688,-310.157 362.611,-270.531 373,-250.813 399.779,-199.988 356.62,-168.839 391,-122.813 395.785,-116.407 402.776,-111.737 410.039,-108.351"/>
<polygon fill="#9a32cd" stroke="#9a32cd" points="284.925,-329.249 279.222,-338.179 289.248,-334.754 284.925,-329.249"/>
<text text-anchor="middle" x="351" y="-299.413" font-family="Helvetica,sans-Serif" font-size="8.00"> lam_t</text>
</g>
<!-- Node4&#45;&gt;Node9 -->
<g id="edge10" class="edge"><title>Node4&#45;&gt;Node9</title>
<path fill="none" stroke="#9a32cd" stroke-dasharray="5,2" d="M312.253,-344.854C331.052,-343.657 353.166,-341.766 373,-338.813 484.364,-322.233 513.863,-310.004 612,-254.813 632.548,-243.258 655.291,-228.04 668.985,-218.594"/>
<polygon fill="#9a32cd" stroke="#9a32cd" points="311.961,-341.365 302.186,-345.45 312.375,-348.353 311.961,-341.365"/>
<text text-anchor="middle" x="442.5" y="-347.413" font-family="Helvetica,sans-Serif" font-size="8.00"> rhoZ_f_cache</text>
<text text-anchor="middle" x="442.5" y="-338.413" font-family="Helvetica,sans-Serif" font-size="8.00">kappaZ_f_cache</text>
</g>
<!-- Node4&#45;&gt;Node10 -->
<g id="edge15" class="edge"><title>Node4&#45;&gt;Node10</title>
<path fill="none" stroke="#9a32cd" stroke-dasharray="5,2" d="M311.958,-355.067C357.819,-362.259 431.599,-369.818 494,-357.813 665.111,-324.896 854.703,-224.638 909.137,-194.483"/>
<polygon fill="#9a32cd" stroke="#9a32cd" points="312.482,-351.606 302.048,-353.45 311.354,-358.515 312.482,-351.606"/>
<text text-anchor="middle" x="562" y="-447.413" font-family="Helvetica,sans-Serif" font-size="8.00"> DC2</text>
<text text-anchor="middle" x="562" y="-438.413" font-family="Helvetica,sans-Serif" font-size="8.00">DC3</text>
<text text-anchor="middle" x="562" y="-429.413" font-family="Helvetica,sans-Serif" font-size="8.00">DC4</text>
<text text-anchor="middle" x="562" y="-420.413" font-family="Helvetica,sans-Serif" font-size="8.00">DC9p</text>
<text text-anchor="middle" x="562" y="-411.413" font-family="Helvetica,sans-Serif" font-size="8.00">DC5</text>
<text text-anchor="middle" x="562" y="-402.413" font-family="Helvetica,sans-Serif" font-size="8.00">DC8p</text>
<text text-anchor="middle" x="562" y="-393.413" font-family="Helvetica,sans-Serif" font-size="8.00">DC6</text>
<text text-anchor="middle" x="562" y="-384.413" font-family="Helvetica,sans-Serif" font-size="8.00">DC7p</text>
<text text-anchor="middle" x="562" y="-375.413" font-family="Helvetica,sans-Serif" font-size="8.00">DC7</text>
<text text-anchor="middle" x="562" y="-366.413" font-family="Helvetica,sans-Serif" font-size="8.00">DC8</text>
<text text-anchor="middle" x="562" y="-357.413" font-family="Helvetica,sans-Serif" font-size="8.00">...</text>
</g>
<!-- Node5 -->
<g id="node5" class="node"><title>Node5</title>
<g id="a_node5"><a xlink:href="../../d2/d95/class_wilson_coefficient.html" target="_top" xlink:title="A class for the Wilson coefficients. ">
<polygon fill="none" stroke="black" points="228,-36.3131 228,-53.3131 306,-53.3131 306,-36.3131 228,-36.3131"/>
<text text-anchor="middle" x="267" y="-42.9131" font-family="Helvetica,sans-Serif" font-size="8.00">WilsonCoefficient</text>
</a>
</g>
</g>
<!-- Node5&#45;&gt;Node1 -->
<g id="edge17" class="edge"><title>Node5&#45;&gt;Node1</title>
<path fill="none" stroke="#9a32cd" stroke-dasharray="5,2" d="M297.88,-32.4876C322.412,-23.069 358.311,-10.8714 391,-5.8131 436.239,1.18726 448.949,2.31292 494,-5.8131 549.083,-15.7487 563.116,-22.5511 612,-49.8131 632.685,-61.3488 653.8,-78.7115 667.241,-90.6161"/>
<polygon fill="#9a32cd" stroke="#9a32cd" points="296.457,-29.2861 288.426,-36.1964 299.013,-35.8026 296.457,-29.2861"/>
<text text-anchor="middle" x="442.5" y="-35.4131" font-family="Helvetica,sans-Serif" font-size="8.00"> mcBMll</text>
<text text-anchor="middle" x="442.5" y="-26.4131" font-family="Helvetica,sans-Serif" font-size="8.00">mcprimebsg</text>
<text text-anchor="middle" x="442.5" y="-17.4131" font-family="Helvetica,sans-Serif" font-size="8.00">mcbsg</text>
<text text-anchor="middle" x="442.5" y="-8.4131" font-family="Helvetica,sans-Serif" font-size="8.00">mcprimeBMll</text>
</g>
<!-- Node5&#45;&gt;Node2 -->
<g id="edge4" class="edge"><title>Node5&#45;&gt;Node2</title>
<path fill="none" stroke="#9a32cd" stroke-dasharray="5,2" d="M304.815,-56.4835C337.706,-66.9101 385.119,-81.9402 414.581,-91.2797"/>
<polygon fill="#9a32cd" stroke="#9a32cd" points="305.7,-53.0924 295.109,-53.4069 303.584,-59.7651 305.7,-53.0924"/>
<text text-anchor="middle" x="351" y="-170.413" font-family="Helvetica,sans-Serif" font-size="8.00"> mcBMll</text>
<text text-anchor="middle" x="351" y="-161.413" font-family="Helvetica,sans-Serif" font-size="8.00">mcprimebsg</text>
<text text-anchor="middle" x="351" y="-152.413" font-family="Helvetica,sans-Serif" font-size="8.00">mcdk2</text>
<text text-anchor="middle" x="351" y="-143.413" font-family="Helvetica,sans-Serif" font-size="8.00">mcmueconv</text>
<text text-anchor="middle" x="351" y="-134.413" font-family="Helvetica,sans-Serif" font-size="8.00">mcbnlep</text>
<text text-anchor="middle" x="351" y="-125.413" font-family="Helvetica,sans-Serif" font-size="8.00">mcdbd2</text>
<text text-anchor="middle" x="351" y="-116.413" font-family="Helvetica,sans-Serif" font-size="8.00">mcbsmm</text>
<text text-anchor="middle" x="351" y="-107.413" font-family="Helvetica,sans-Serif" font-size="8.00">mcbsnn</text>
<text text-anchor="middle" x="351" y="-98.4131" font-family="Helvetica,sans-Serif" font-size="8.00">mcd1</text>
<text text-anchor="middle" x="351" y="-89.4131" font-family="Helvetica,sans-Serif" font-size="8.00">mcbnlepCC</text>
<text text-anchor="middle" x="351" y="-80.4131" font-family="Helvetica,sans-Serif" font-size="8.00">...</text>
</g>
<!-- Node6 -->
<g id="node6" class="node"><title>Node6</title>
<g id="a_node6"><a xlink:href="../../dd/d6f/class_wilson_template.html" target="_top" xlink:title="WilsonTemplate\&lt; gslpp\l::vector\&lt; gslpp::complex \&gt; \&gt;">
<polygon fill="none" stroke="red" points="0,-31.8131 0,-57.8131 117,-57.8131 117,-31.8131 0,-31.8131"/>
<text text-anchor="start" x="8" y="-47.4131" font-family="Helvetica,sans-Serif" font-size="8.00">WilsonTemplate&lt; gslpp</text>
<text text-anchor="middle" x="58.5" y="-38.4131" font-family="Helvetica,sans-Serif" font-size="8.00">::vector&lt; gslpp::complex &gt; &gt;</text>
</a>
</g>
</g>
<!-- Node6&#45;&gt;Node5 -->
<g id="edge5" class="edge"><title>Node6&#45;&gt;Node5</title>
<path fill="none" stroke="midnightblue" d="M127.174,-44.8131C160.531,-44.8131 199.532,-44.8131 227.688,-44.8131"/>
<polygon fill="midnightblue" stroke="midnightblue" points="127.022,-41.3132 117.022,-44.8131 127.022,-48.3132 127.022,-41.3132"/>
</g>
<!-- Node7 -->
<g id="node7" class="node"><title>Node7</title>
<g id="a_node7"><a xlink:href="../../d1/d3c/classgslpp_1_1matrix.html" target="_top" xlink:title="gslpp::matrix\&lt; gslpp\l::complex \&gt;">
<polygon fill="none" stroke="black" points="223,-205.813 223,-231.813 311,-231.813 311,-205.813 223,-205.813"/>
<text text-anchor="start" x="231" y="-221.413" font-family="Helvetica,sans-Serif" font-size="8.00">gslpp::matrix&lt; gslpp</text>
<text text-anchor="middle" x="267" y="-212.413" font-family="Helvetica,sans-Serif" font-size="8.00">::complex &gt;</text>
</a>
</g>
</g>
<!-- Node7&#45;&gt;Node1 -->
<g id="edge18" class="edge"><title>Node7&#45;&gt;Node1</title>
<path fill="none" stroke="#9a32cd" stroke-dasharray="5,2" d="M270.719,-195.648C275.861,-163.335 290.23,-105.578 329,-77.8131 429.279,-5.99876 589.395,-62.9836 653.565,-90.7841"/>
<polygon fill="#9a32cd" stroke="#9a32cd" points="267.254,-195.158 269.308,-205.552 274.184,-196.146 267.254,-195.158"/>
<text text-anchor="middle" x="442.5" y="-52.4131" font-family="Helvetica,sans-Serif" font-size="8.00"> myCKM</text>
</g>
<!-- Node7&#45;&gt;Node2 -->
<g id="edge6" class="edge"><title>Node7&#45;&gt;Node2</title>
<path fill="none" stroke="#9a32cd" stroke-dasharray="5,2" d="M320.915,-209.792C339.525,-204.226 359.213,-195.254 373,-180.813 391.638,-161.291 373.159,-143.066 391,-122.813 396.54,-116.524 404.147,-111.853 411.777,-108.427"/>
<polygon fill="#9a32cd" stroke="#9a32cd" points="319.761,-206.479 311.026,-212.475 321.594,-213.235 319.761,-206.479"/>
<text text-anchor="middle" x="351" y="-210.413" font-family="Helvetica,sans-Serif" font-size="8.00"> Vckm</text>
</g>
<!-- Node7&#45;&gt;Node9 -->
<g id="edge11" class="edge"><title>Node7&#45;&gt;Node9</title>
<path fill="none" stroke="#9a32cd" stroke-dasharray="5,2" d="M321.034,-234.153C342.55,-239.63 367.766,-245.111 391,-247.813 488.853,-259.193 515.825,-252.144 612,-230.813 627.013,-227.483 643.501,-222.558 656.648,-218.314"/>
<polygon fill="#9a32cd" stroke="#9a32cd" points="321.672,-230.702 311.112,-231.562 319.903,-237.475 321.672,-230.702"/>
<text text-anchor="middle" x="442.5" y="-301.413" font-family="Helvetica,sans-Serif" font-size="8.00"> VCKM</text>
<text text-anchor="middle" x="442.5" y="-292.413" font-family="Helvetica,sans-Serif" font-size="8.00">UPMNS</text>
<text text-anchor="middle" x="442.5" y="-283.413" font-family="Helvetica,sans-Serif" font-size="8.00">Yn</text>
<text text-anchor="middle" x="442.5" y="-274.413" font-family="Helvetica,sans-Serif" font-size="8.00">Yd</text>
<text text-anchor="middle" x="442.5" y="-265.413" font-family="Helvetica,sans-Serif" font-size="8.00">Yu</text>
<text text-anchor="middle" x="442.5" y="-256.413" font-family="Helvetica,sans-Serif" font-size="8.00">Ye</text>
</g>
<!-- Node8 -->
<g id="node8" class="node"><title>Node8</title>
<g id="a_node8"><a xlink:href="../../d1/d3c/classgslpp_1_1matrix.html" target="_top" xlink:title="A base class for defining operations on matrices, both real and complex. ">
<polygon fill="none" stroke="black" points="18,-210.313 18,-227.313 99,-227.313 99,-210.313 18,-210.313"/>
<text text-anchor="middle" x="58.5" y="-216.913" font-family="Helvetica,sans-Serif" font-size="8.00">gslpp::matrix&lt; T &gt;</text>
</a>
</g>
</g>
<!-- Node8&#45;&gt;Node7 -->
<g id="edge7" class="edge"><title>Node8&#45;&gt;Node7</title>
<path fill="none" stroke="orange" stroke-dasharray="5,2" d="M109.672,-218.813C144.257,-218.813 189.755,-218.813 222.742,-218.813"/>
<polygon fill="orange" stroke="orange" points="109.315,-215.313 99.3153,-218.813 109.315,-222.313 109.315,-215.313"/>
<text text-anchor="middle" x="170" y="-221.413" font-family="Helvetica,sans-Serif" font-size="8.00"> &lt; gslpp::complex &gt;</text>
</g>
<!-- Node9&#45;&gt;Node2 -->
<g id="edge8" class="edge"><title>Node9&#45;&gt;Node2</title>
<path fill="none" stroke="#9a32cd" stroke-dasharray="5,2" d="M636.632,-216.553C598.924,-219.57 545.9,-217.239 512,-187.813 489.362,-168.163 513.466,-145.608 494,-122.813 488.557,-116.439 480.981,-111.741 473.351,-108.316"/>
<polygon fill="#9a32cd" stroke="#9a32cd" points="637.211,-220.014 646.833,-215.578 636.545,-213.045 637.211,-220.014"/>
<text text-anchor="middle" x="562" y="-220.413" font-family="Helvetica,sans-Serif" font-size="8.00"> SM</text>
</g>
<!-- Node9&#45;&gt;Node10 -->
<g id="edge13" class="edge"><title>Node9&#45;&gt;Node10</title>
<path fill="none" stroke="midnightblue" d="M727.988,-205.383C768.925,-201.306 829.643,-195.259 872.737,-190.968"/>
<polygon fill="midnightblue" stroke="midnightblue" points="727.633,-201.901 718.029,-206.374 728.327,-208.866 727.633,-201.901"/>
</g>
<!-- Node10&#45;&gt;Node1 -->
<g id="edge12" class="edge"><title>Node10&#45;&gt;Node1</title>
<path fill="none" stroke="#9a32cd" stroke-dasharray="5,2" d="M907.045,-170.726C893.664,-159.948 874.278,-145.965 855,-137.813 816.559,-121.558 769.937,-112.956 735.011,-108.475"/>
<polygon fill="#9a32cd" stroke="#9a32cd" points="904.979,-173.56 914.909,-177.252 909.449,-168.173 904.979,-173.56"/>
<text text-anchor="middle" x="804" y="-140.413" font-family="Helvetica,sans-Serif" font-size="8.00"> myFlavourWilsonCoefficient</text>
</g>
</g>
</svg>
