<?xml version="1.0" encoding="UTF-8" standalone="no"?>
<!DOCTYPE svg PUBLIC "-//W3C//DTD SVG 1.1//EN"
 "http://www.w3.org/Graphics/SVG/1.1/DTD/svg11.dtd">
<!-- Generated by graphviz version 2.40.1 (20161225.0304)
 -->
<!-- Title: GeorgiMachacek.cpp Pages: 1 -->
<svg width="292pt" height="296pt"
 viewBox="0.00 0.00 292.00 296.00" xmlns="http://www.w3.org/2000/svg" xmlns:xlink="http://www.w3.org/1999/xlink">
<g id="graph0" class="graph" transform="scale(1 1) rotate(0) translate(4 292)">
<title>GeorgiMachacek.cpp</title>
<!-- Node0 -->
<g id="node1" class="node">
<title>Node0</title>
<polygon fill="#bfbfbf" stroke="#000000" points="70.5,-270.5 70.5,-287.5 162.5,-287.5 162.5,-270.5 70.5,-270.5"/>
<text text-anchor="middle" x="116.5" y="-277.1" font-family="Helvetica,sans-Serif" font-size="8.00" fill="#000000">GeorgiMachacek.cpp</text>
</g>
<!-- Node1 -->
<g id="node2" class="node">
<title>Node1</title>
<g id="a_node2"><a xlink:href="../../d6/d16/_standard_model_matching_8h.html" target="_top" xlink:title="StandardModelMatching.h">
<polygon fill="none" stroke="#000000" points="22.5,-54.5 22.5,-71.5 132.5,-71.5 132.5,-54.5 22.5,-54.5"/>
<text text-anchor="middle" x="77.5" y="-61.1" font-family="Helvetica,sans-Serif" font-size="8.00" fill="#000000">StandardModelMatching.h</text>
</a>
</g>
</g>
<!-- Node0&#45;&gt;Node1 -->
<g id="edge1" class="edge">
<title>Node0&#45;&gt;Node1</title>
<path fill="none" stroke="#191970" d="M110.1712,-270.2956C98.5606,-253.7257 74.2462,-216.0764 65.5,-180 57.9604,-148.9009 61.3422,-139.7287 65.5,-108 66.6556,-99.1813 69.0337,-89.6328 71.3703,-81.6098"/>
<polygon fill="#191970" stroke="#191970" points="74.7852,-82.4151 74.4123,-71.8268 68.1009,-80.3366 74.7852,-82.4151"/>
</g>
<!-- Node40 -->
<g id="node5" class="node">
<title>Node40</title>
<g id="a_node5"><a xlink:href="../../d7/d3e/_georgi_machacek_8h.html" target="_top" xlink:title="GeorgiMachacek.h">
<polygon fill="none" stroke="#000000" points="74.5,-162.5 74.5,-179.5 158.5,-179.5 158.5,-162.5 74.5,-162.5"/>
<text text-anchor="middle" x="116.5" y="-169.1" font-family="Helvetica,sans-Serif" font-size="8.00" fill="#000000">GeorgiMachacek.h</text>
</a>
</g>
</g>
<!-- Node0&#45;&gt;Node40 -->
<g id="edge4" class="edge">
<title>Node0&#45;&gt;Node40</title>
<path fill="none" stroke="#191970" d="M116.5,-270.1619C116.5,-252.6713 116.5,-213.3048 116.5,-189.7731"/>
<polygon fill="#191970" stroke="#191970" points="120.0001,-189.6583 116.5,-179.6584 113.0001,-189.6584 120.0001,-189.6583"/>
</g>
<!-- Node52 -->
<g id="node8" class="node">
<title>Node52</title>
<g id="a_node8"><a xlink:href="../../d2/d68/_g_mcache_8h.html" target="_top" xlink:title="GMcache.h">
<polygon fill="none" stroke="#000000" points="156,-216.5 156,-233.5 213,-233.5 213,-216.5 156,-216.5"/>
<text text-anchor="middle" x="184.5" y="-223.1" font-family="Helvetica,sans-Serif" font-size="8.00" fill="#000000">GMcache.h</text>
</a>
</g>
</g>
<!-- Node0&#45;&gt;Node52 -->
<g id="edge8" class="edge">
<title>Node0&#45;&gt;Node52</title>
<path fill="none" stroke="#191970" d="M127.4254,-270.324C137.6746,-262.1849 153.2206,-249.8395 165.501,-240.0874"/>
<polygon fill="#191970" stroke="#191970" points="167.7213,-242.7937 173.3758,-233.8339 163.3681,-237.3119 167.7213,-242.7937"/>
</g>
<!-- Node2 -->
<g id="node3" class="node">
<title>Node2</title>
<g id="a_node3"><a xlink:href="../../d6/d46/_model_matching_8h.html" target="_top" xlink:title="ModelMatching.h">
<polygon fill="none" stroke="#ff0000" points="0,-.5 0,-17.5 77,-17.5 77,-.5 0,-.5"/>
<text text-anchor="middle" x="38.5" y="-7.1" font-family="Helvetica,sans-Serif" font-size="8.00" fill="#000000">ModelMatching.h</text>
</a>
</g>
</g>
<!-- Node1&#45;&gt;Node2 -->
<g id="edge2" class="edge">
<title>Node1&#45;&gt;Node2</title>
<path fill="none" stroke="#191970" d="M71.0599,-54.083C65.5511,-46.4554 57.4688,-35.2645 50.735,-25.9408"/>
<polygon fill="#191970" stroke="#191970" points="53.5126,-23.8087 44.8202,-17.7511 47.8378,-27.9071 53.5126,-23.8087"/>
</g>
<!-- Node38 -->
<g id="node4" class="node">
<title>Node38</title>
<g id="a_node4"><a xlink:href="../../d9/d72/gslpp_8h.html" target="_top" xlink:title="gslpp.h">
<polygon fill="none" stroke="#ff0000" points="95.5,-.5 95.5,-17.5 137.5,-17.5 137.5,-.5 95.5,-.5"/>
<text text-anchor="middle" x="116.5" y="-7.1" font-family="Helvetica,sans-Serif" font-size="8.00" fill="#000000">gslpp.h</text>
</a>
</g>
</g>
<!-- Node1&#45;&gt;Node38 -->
<g id="edge3" class="edge">
<title>Node1&#45;&gt;Node38</title>
<path fill="none" stroke="#191970" d="M83.9401,-54.083C89.4489,-46.4554 97.5312,-35.2645 104.265,-25.9408"/>
<polygon fill="#191970" stroke="#191970" points="107.1622,-27.9071 110.1798,-17.7511 101.4874,-23.8087 107.1622,-27.9071"/>
</g>
<!-- Node41 -->
<g id="node6" class="node">
<title>Node41</title>
<g id="a_node6"><a xlink:href="../../d6/d15/_g_m_matching_8h.html" target="_top" xlink:title="GMMatching.h">
<polygon fill="none" stroke="#000000" points="75,-108.5 75,-125.5 144,-125.5 144,-108.5 75,-108.5"/>
<text text-anchor="middle" x="109.5" y="-115.1" font-family="Helvetica,sans-Serif" font-size="8.00" fill="#000000">GMMatching.h</text>
</a>
</g>
</g>
<!-- Node40&#45;&gt;Node41 -->
<g id="edge5" class="edge">
<title>Node40&#45;&gt;Node41</title>
<path fill="none" stroke="#191970" d="M115.3441,-162.083C114.4165,-154.9272 113.0824,-144.6353 111.9229,-135.6911"/>
<polygon fill="#191970" stroke="#191970" points="115.391,-135.2181 110.6344,-125.7511 108.4491,-136.1181 115.391,-135.2181"/>
</g>
<!-- Node42 -->
<g id="node7" class="node">
<title>Node42</title>
<g id="a_node7"><a xlink:href="../../d2/de8/_n_pbase_8h.html" target="_top" xlink:title="NPbase.h">
<polygon fill="none" stroke="#ff0000" points="162.5,-108.5 162.5,-125.5 214.5,-125.5 214.5,-108.5 162.5,-108.5"/>
<text text-anchor="middle" x="188.5" y="-115.1" font-family="Helvetica,sans-Serif" font-size="8.00" fill="#000000">NPbase.h</text>
</a>
</g>
</g>
<!-- Node40&#45;&gt;Node42 -->
<g id="edge7" class="edge">
<title>Node40&#45;&gt;Node42</title>
<path fill="none" stroke="#191970" d="M128.068,-162.324C138.9202,-154.1849 155.3807,-141.8395 168.3834,-132.0874"/>
<polygon fill="#191970" stroke="#191970" points="170.8215,-134.6339 176.7215,-125.8339 166.6214,-129.0339 170.8215,-134.6339"/>
</g>
<!-- Node41&#45;&gt;Node1 -->
<g id="edge6" class="edge">
<title>Node41&#45;&gt;Node1</title>
<path fill="none" stroke="#191970" d="M104.2159,-108.083C99.789,-100.6127 93.3367,-89.7244 87.8821,-80.5199"/>
<polygon fill="#191970" stroke="#191970" points="90.7949,-78.5697 82.6858,-71.7511 84.7729,-82.1383 90.7949,-78.5697"/>
</g>
<!-- Node52&#45;&gt;Node40 -->
<g id="edge9" class="edge">
<title>Node52&#45;&gt;Node40</title>
<path fill="none" stroke="#191970" d="M173.5746,-216.324C163.3254,-208.1849 147.7794,-195.8395 135.499,-186.0874"/>
<polygon fill="#191970" stroke="#191970" points="137.6319,-183.3119 127.6242,-179.8339 133.2787,-188.7937 137.6319,-183.3119"/>
</g>
<!-- Node18 -->
<g id="node9" class="node">
<title>Node18</title>
<polygon fill="none" stroke="#bfbfbf" points="176.5,-162.5 176.5,-179.5 214.5,-179.5 214.5,-162.5 176.5,-162.5"/>
<text text-anchor="middle" x="195.5" y="-169.1" font-family="Helvetica,sans-Serif" font-size="8.00" fill="#000000">cmath</text>
</g>
<!-- Node52&#45;&gt;Node18 -->
<g id="edge10" class="edge">
<title>Node52&#45;&gt;Node18</title>
<path fill="none" stroke="#191970" d="M186.3164,-216.083C187.7741,-208.9272 189.8706,-198.6353 191.6925,-189.6911"/>
<polygon fill="#191970" stroke="#191970" points="195.1508,-190.2485 193.7174,-179.7511 188.2917,-188.8512 195.1508,-190.2485"/>
</g>
<!-- Node14 -->
<g id="node10" class="node">
<title>Node14</title>
<polygon fill="none" stroke="#bfbfbf" points="233,-162.5 233,-179.5 284,-179.5 284,-162.5 233,-162.5"/>
<text text-anchor="middle" x="258.5" y="-169.1" font-family="Helvetica,sans-Serif" font-size="8.00" fill="#000000">stdexcept</text>
</g>
<!-- Node52&#45;&gt;Node14 -->
<g id="edge11" class="edge">
<title>Node52&#45;&gt;Node14</title>
<path fill="none" stroke="#191970" d="M196.3894,-216.324C207.6502,-208.1066 224.7866,-195.6017 238.2091,-185.8069"/>
<polygon fill="#191970" stroke="#191970" points="240.3795,-188.5559 246.3943,-179.8339 236.2532,-182.9014 240.3795,-188.5559"/>
</g>
</g>
</svg>
