<?xml version="1.0" encoding="UTF-8" standalone="no"?>
<!DOCTYPE svg PUBLIC "-//W3C//DTD SVG 1.1//EN"
 "http://www.w3.org/Graphics/SVG/1.1/DTD/svg11.dtd">
<!-- Generated by graphviz version 2.38.0 (20140413.2041)
 -->
<!-- Title: Flavour Pages: 1 -->
<svg width="242pt" height="221pt"
 viewBox="0.00 0.00 241.58 220.94" xmlns="http://www.w3.org/2000/svg" xmlns:xlink="http://www.w3.org/1999/xlink">
<g id="graph0" class="graph" transform="scale(1 1) rotate(0) translate(4 216.942)">
<title>Flavour</title>
<g id="clust1" class="cluster"><title>clusterdir_e5487c5b3bd1ab47a3a7900e06b56a92</title>
<g id="a_clust1"><a xlink:href="dir_e5487c5b3bd1ab47a3a7900e06b56a92.html" target="_top">
<polygon fill="#eeeeff" stroke="black" points="8,-136 8,-188 150,-188 150,-136 8,-136"/>
</a>
</g>
</g>
<!-- dir_e5487c5b3bd1ab47a3a7900e06b56a92 -->
<g id="node1" class="node"><title>dir_e5487c5b3bd1ab47a3a7900e06b56a92</title>
<text text-anchor="middle" x="115" y="-160.1" font-family="Helvetica,sans-Serif" font-size="8.00">Flavour</text>
</g>
<!-- dir_f9b8675f75579f03a5f904f6b4057a1d -->
<g id="node2" class="node"><title>dir_f9b8675f75579f03a5f904f6b4057a1d</title>
<g id="a_node2"><a xlink:href="dir_f9b8675f75579f03a5f904f6b4057a1d.html" target="_top" xlink:title="src">
<polygon fill="white" stroke="black" points="70,-180 16,-180 16,-144 70,-144 70,-180"/>
<text text-anchor="middle" x="43" y="-160.1" font-family="Helvetica,sans-Serif" font-size="8.00">src</text>
</a>
</g>
</g>
<!-- dir_c2aa2cb4e0c986d55db329a86184b083 -->
<g id="node3" class="node"><title>dir_c2aa2cb4e0c986d55db329a86184b083</title>
<g id="a_node3"><a xlink:href="dir_c2aa2cb4e0c986d55db329a86184b083.html" target="_top" xlink:title="StandardModel">
<polygon fill="none" stroke="red" points="231.5,-180 160.5,-180 160.5,-144 231.5,-144 231.5,-180"/>
<text text-anchor="middle" x="196" y="-160.1" font-family="Helvetica,sans-Serif" font-size="8.00">StandardModel</text>
</a>
</g>
</g>
<!-- dir_f9b8675f75579f03a5f904f6b4057a1d&#45;&gt;dir_c2aa2cb4e0c986d55db329a86184b083 -->
<g id="edge5" class="edge"><title>dir_f9b8675f75579f03a5f904f6b4057a1d&#45;&gt;dir_c2aa2cb4e0c986d55db329a86184b083</title>
<path fill="none" stroke="black" d="M55.7866,-180.04C63.7989,-189.721 75.0489,-200.721 88,-206 111.459,-215.563 121.254,-214.828 145,-206 155.632,-202.047 165.529,-194.773 173.722,-187.262"/>
<polygon fill="black" stroke="black" points="176.343,-189.593 181.023,-180.088 171.437,-184.6 176.343,-189.593"/>
<g id="a_edge5&#45;headlabel"><a xlink:href="dir_000003_000006.html" target="_top" xlink:title="22">
<text text-anchor="middle" x="175.769" y="-192.238" font-family="Helvetica,sans-Serif" font-size="8.00">22</text>
</a>
</g>
</g>
<!-- dir_5db6616082cde53441490dccc55cf8fe -->
<g id="node4" class="node"><title>dir_5db6616082cde53441490dccc55cf8fe</title>
<g id="a_node4"><a xlink:href="dir_5db6616082cde53441490dccc55cf8fe.html" target="_top" xlink:title="Observables">
<polygon fill="none" stroke="red" points="219.5,-108 158.5,-108 158.5,-72 219.5,-72 219.5,-108"/>
<text text-anchor="middle" x="189" y="-88.1" font-family="Helvetica,sans-Serif" font-size="8.00">Observables</text>
</a>
</g>
</g>
<!-- dir_f9b8675f75579f03a5f904f6b4057a1d&#45;&gt;dir_5db6616082cde53441490dccc55cf8fe -->
<g id="edge6" class="edge"><title>dir_f9b8675f75579f03a5f904f6b4057a1d&#45;&gt;dir_5db6616082cde53441490dccc55cf8fe</title>
<path fill="none" stroke="black" d="M66.1386,-143.801C70.3176,-141.024 74.7117,-138.308 79,-136 108.506,-120.12 118.024,-120.776 149,-108 149.096,-107.96 149.192,-107.921 149.288,-107.881"/>
<polygon fill="black" stroke="black" points="150.569,-111.139 158.453,-104.062 147.876,-104.678 150.569,-111.139"/>
<g id="a_edge6&#45;headlabel"><a xlink:href="dir_000003_000015.html" target="_top" xlink:title="19">
<text text-anchor="middle" x="148.343" y="-113.243" font-family="Helvetica,sans-Serif" font-size="8.00">19</text>
</a>
</g>
</g>
<!-- dir_6db1c069948d59c49e3dd255dfa7d52e -->
<g id="node5" class="node"><title>dir_6db1c069948d59c49e3dd255dfa7d52e</title>
<g id="a_node5"><a xlink:href="dir_6db1c069948d59c49e3dd255dfa7d52e.html" target="_top" xlink:title="LoopFunctions">
<polygon fill="none" stroke="red" points="140.5,-108 71.5,-108 71.5,-72 140.5,-72 140.5,-108"/>
<text text-anchor="middle" x="106" y="-88.1" font-family="Helvetica,sans-Serif" font-size="8.00">LoopFunctions</text>
</a>
</g>
</g>
<!-- dir_f9b8675f75579f03a5f904f6b4057a1d&#45;&gt;dir_6db1c069948d59c49e3dd255dfa7d52e -->
<g id="edge7" class="edge"><title>dir_f9b8675f75579f03a5f904f6b4057a1d&#45;&gt;dir_6db1c069948d59c49e3dd255dfa7d52e</title>
<path fill="none" stroke="black" d="M58.573,-143.697C66.2022,-135.22 75.5228,-124.864 83.8757,-115.583"/>
<polygon fill="black" stroke="black" points="86.518,-117.879 90.6061,-108.104 81.3149,-113.196 86.518,-117.879"/>
<g id="a_edge7&#45;headlabel"><a xlink:href="dir_000003_000004.html" target="_top" xlink:title="2">
<text text-anchor="middle" x="86.2237" y="-120.55" font-family="Helvetica,sans-Serif" font-size="8.00">2</text>
</a>
</g>
</g>
<!-- dir_a41afcbfbf54af8aa656914f5423c760 -->
<g id="node6" class="node"><title>dir_a41afcbfbf54af8aa656914f5423c760</title>
<g id="a_node6"><a xlink:href="dir_a41afcbfbf54af8aa656914f5423c760.html" target="_top" xlink:title="gslpp">
<polygon fill="none" stroke="red" points="174,-36 120,-36 120,-0 174,-0 174,-36"/>
<text text-anchor="middle" x="147" y="-16.1" font-family="Helvetica,sans-Serif" font-size="8.00">gslpp</text>
</a>
</g>
</g>
<!-- dir_f9b8675f75579f03a5f904f6b4057a1d&#45;&gt;dir_a41afcbfbf54af8aa656914f5423c760 -->
<g id="edge8" class="edge"><title>dir_f9b8675f75579f03a5f904f6b4057a1d&#45;&gt;dir_a41afcbfbf54af8aa656914f5423c760</title>
<path fill="none" stroke="black" d="M42.8085,-143.695C43.4197,-124.518 46.9368,-93.4702 62,-72 73.9669,-54.9431 93.3508,-42.2429 110.588,-33.5576"/>
<polygon fill="black" stroke="black" points="112.351,-36.595 119.882,-29.1432 109.348,-30.2719 112.351,-36.595"/>
<g id="a_edge8&#45;headlabel"><a xlink:href="dir_000003_000026.html" target="_top" xlink:title="8">
<text text-anchor="middle" x="110.322" y="-38.8017" font-family="Helvetica,sans-Serif" font-size="8.00">8</text>
</a>
</g>
</g>
<!-- dir_c2aa2cb4e0c986d55db329a86184b083&#45;&gt;dir_f9b8675f75579f03a5f904f6b4057a1d -->
<g id="edge1" class="edge"><title>dir_c2aa2cb4e0c986d55db329a86184b083&#45;&gt;dir_f9b8675f75579f03a5f904f6b4057a1d</title>
<path fill="none" stroke="black" d="M181.023,-180.088C171.78,-189.784 159.03,-200.784 145,-206 121.254,-214.828 111.459,-215.563 88,-206 78.489,-202.123 69.8955,-195.161 62.8279,-187.902"/>
<polygon fill="black" stroke="black" points="65.0657,-185.154 55.7866,-180.04 59.8515,-189.824 65.0657,-185.154"/>
<g id="a_edge1&#45;headlabel"><a xlink:href="dir_000006_000003.html" target="_top" xlink:title="1">
<text text-anchor="middle" x="69.5789" y="-184.037" font-family="Helvetica,sans-Serif" font-size="8.00">1</text>
</a>
</g>
</g>
<!-- dir_c2aa2cb4e0c986d55db329a86184b083&#45;&gt;dir_5db6616082cde53441490dccc55cf8fe -->
<g id="edge2" class="edge"><title>dir_c2aa2cb4e0c986d55db329a86184b083&#45;&gt;dir_5db6616082cde53441490dccc55cf8fe</title>
<path fill="none" stroke="black" d="M188.354,-143.697C186.787,-135.983 185.633,-126.712 185.116,-118.112"/>
<polygon fill="black" stroke="black" points="188.614,-117.995 184.815,-108.104 181.617,-118.205 188.614,-117.995"/>
<g id="a_edge2&#45;headlabel"><a xlink:href="dir_000006_000015.html" target="_top" xlink:title="1">
<text text-anchor="middle" x="191.56" y="-119.603" font-family="Helvetica,sans-Serif" font-size="8.00">1</text>
</a>
</g>
</g>
<!-- dir_c2aa2cb4e0c986d55db329a86184b083&#45;&gt;dir_6db1c069948d59c49e3dd255dfa7d52e -->
<g id="edge3" class="edge"><title>dir_c2aa2cb4e0c986d55db329a86184b083&#45;&gt;dir_6db1c069948d59c49e3dd255dfa7d52e</title>
<path fill="none" stroke="black" d="M173.753,-143.697C162.418,-134.881 148.47,-124.032 136.181,-114.474"/>
<polygon fill="black" stroke="black" points="138.034,-111.481 127.991,-108.104 133.736,-117.007 138.034,-111.481"/>
<g id="a_edge3&#45;headlabel"><a xlink:href="dir_000006_000004.html" target="_top" xlink:title="3">
<text text-anchor="middle" x="142.614" y="-109.547" font-family="Helvetica,sans-Serif" font-size="8.00">3</text>
</a>
</g>
</g>
<!-- dir_c2aa2cb4e0c986d55db329a86184b083&#45;&gt;dir_a41afcbfbf54af8aa656914f5423c760 -->
<g id="edge4" class="edge"><title>dir_c2aa2cb4e0c986d55db329a86184b083&#45;&gt;dir_a41afcbfbf54af8aa656914f5423c760</title>
<path fill="none" stroke="black" d="M210.729,-143.975C224.744,-125.587 241.921,-95.7371 229,-72 219.222,-54.0367 200.445,-41.2329 183.325,-32.7154"/>
<polygon fill="black" stroke="black" points="184.597,-29.4471 174.052,-28.4188 181.654,-35.7985 184.597,-29.4471"/>
<g id="a_edge4&#45;headlabel"><a xlink:href="dir_000006_000026.html" target="_top" xlink:title="7">
<text text-anchor="middle" x="189.052" y="-26.482" font-family="Helvetica,sans-Serif" font-size="8.00">7</text>
</a>
</g>
</g>
<!-- dir_5db6616082cde53441490dccc55cf8fe&#45;&gt;dir_c2aa2cb4e0c986d55db329a86184b083 -->
<g id="edge9" class="edge"><title>dir_5db6616082cde53441490dccc55cf8fe&#45;&gt;dir_c2aa2cb4e0c986d55db329a86184b083</title>
<path fill="none" stroke="black" d="M196.605,-108.104C198.18,-115.791 199.342,-125.054 199.871,-133.665"/>
<polygon fill="black" stroke="black" points="196.373,-133.811 200.185,-143.697 203.37,-133.592 196.373,-133.811"/>
<g id="a_edge9&#45;headlabel"><a xlink:href="dir_000015_000006.html" target="_top" xlink:title="1">
<text text-anchor="middle" x="193.423" y="-128.408" font-family="Helvetica,sans-Serif" font-size="8.00">1</text>
</a>
</g>
</g>
<!-- dir_5db6616082cde53441490dccc55cf8fe&#45;&gt;dir_a41afcbfbf54af8aa656914f5423c760 -->
<g id="edge10" class="edge"><title>dir_5db6616082cde53441490dccc55cf8fe&#45;&gt;dir_a41afcbfbf54af8aa656914f5423c760</title>
<path fill="none" stroke="black" d="M178.618,-71.6966C173.735,-63.5589 167.813,-53.689 162.421,-44.7013"/>
<polygon fill="black" stroke="black" points="165.409,-42.8785 157.263,-36.1043 159.406,-46.48 165.409,-42.8785"/>
<g id="a_edge10&#45;headlabel"><a xlink:href="dir_000015_000026.html" target="_top" xlink:title="1">
<text text-anchor="middle" x="169.693" y="-42.6001" font-family="Helvetica,sans-Serif" font-size="8.00">1</text>
</a>
</g>
</g>
<!-- dir_6db1c069948d59c49e3dd255dfa7d52e&#45;&gt;dir_a41afcbfbf54af8aa656914f5423c760 -->
<g id="edge11" class="edge"><title>dir_6db1c069948d59c49e3dd255dfa7d52e&#45;&gt;dir_a41afcbfbf54af8aa656914f5423c760</title>
<path fill="none" stroke="black" d="M116.135,-71.6966C120.852,-63.6436 126.562,-53.8945 131.782,-44.9824"/>
<polygon fill="black" stroke="black" points="134.948,-46.5021 136.982,-36.1043 128.908,-42.9643 134.948,-46.5021"/>
<g id="a_edge11&#45;headlabel"><a xlink:href="dir_000004_000026.html" target="_top" xlink:title="2">
<text text-anchor="middle" x="135.581" y="-49.1388" font-family="Helvetica,sans-Serif" font-size="8.00">2</text>
</a>
</g>
</g>
</g>
</svg>
