<?xml version="1.0" encoding="UTF-8" standalone="no"?>
<!DOCTYPE svg PUBLIC "-//W3C//DTD SVG 1.1//EN"
 "http://www.w3.org/Graphics/SVG/1.1/DTD/svg11.dtd">
<!-- Generated by graphviz version 2.38.0 (20140413.2041)
 -->
<!-- Title: src Pages: 1 -->
<svg width="125pt" height="293pt"
 viewBox="0.00 0.00 124.50 293.00" xmlns="http://www.w3.org/2000/svg" xmlns:xlink="http://www.w3.org/1999/xlink">
<g id="graph0" class="graph" transform="scale(1 1) rotate(0) translate(4 289)">
<title>src</title>
<g id="clust1" class="cluster"><title>clusterdir_0eda29277a6077c1c02542f56cc6373a</title>
<g id="a_clust1"><a xlink:href="dir_0eda29277a6077c1c02542f56cc6373a.html" target="_top" xlink:title="LeptonFlavour">
<polygon fill="#ddddee" stroke="black" points="28.5,-208 28.5,-277 98.5,-277 98.5,-208 28.5,-208"/>
<text text-anchor="middle" x="63.5" y="-266.6" font-family="Helvetica,sans-Serif" font-size="8.00">LeptonFlavour</text>
</a>
</g>
</g>
<!-- dir_81247f24472eff49ce853a435e3ab184 -->
<g id="node1" class="node"><title>dir_81247f24472eff49ce853a435e3ab184</title>
<g id="a_node1"><a xlink:href="dir_81247f24472eff49ce853a435e3ab184.html" target="_top" xlink:title="src">
<polygon fill="#eeeeff" stroke="black" points="90.5,-252 36.5,-252 36.5,-216 90.5,-216 90.5,-252"/>
<text text-anchor="middle" x="63.5" y="-232.1" font-family="Helvetica,sans-Serif" font-size="8.00">src</text>
</a>
</g>
</g>
<!-- dir_c2aa2cb4e0c986d55db329a86184b083 -->
<g id="node2" class="node"><title>dir_c2aa2cb4e0c986d55db329a86184b083</title>
<g id="a_node2"><a xlink:href="dir_c2aa2cb4e0c986d55db329a86184b083.html" target="_top" xlink:title="StandardModel">
<polygon fill="none" stroke="red" points="99,-180 28,-180 28,-144 99,-144 99,-180"/>
<text text-anchor="middle" x="63.5" y="-160.1" font-family="Helvetica,sans-Serif" font-size="8.00">StandardModel</text>
</a>
</g>
</g>
<!-- dir_81247f24472eff49ce853a435e3ab184&#45;&gt;dir_c2aa2cb4e0c986d55db329a86184b083 -->
<g id="edge5" class="edge"><title>dir_81247f24472eff49ce853a435e3ab184&#45;&gt;dir_c2aa2cb4e0c986d55db329a86184b083</title>
<path fill="none" stroke="black" d="M63.5,-215.697C63.5,-207.983 63.5,-198.712 63.5,-190.112"/>
<polygon fill="black" stroke="black" points="67.0001,-190.104 63.5,-180.104 60.0001,-190.104 67.0001,-190.104"/>
<g id="a_edge5&#45;headlabel"><a xlink:href="dir_000025_000006.html" target="_top" xlink:title="16">
<text text-anchor="middle" x="69.8393" y="-191.799" font-family="Helvetica,sans-Serif" font-size="8.00">16</text>
</a>
</g>
</g>
<!-- dir_5db6616082cde53441490dccc55cf8fe -->
<g id="node3" class="node"><title>dir_5db6616082cde53441490dccc55cf8fe</title>
<g id="a_node3"><a xlink:href="dir_5db6616082cde53441490dccc55cf8fe.html" target="_top" xlink:title="Observables">
<polygon fill="none" stroke="red" points="61,-108 3.55271e-15,-108 3.55271e-15,-72 61,-72 61,-108"/>
<text text-anchor="middle" x="30.5" y="-88.1" font-family="Helvetica,sans-Serif" font-size="8.00">Observables</text>
</a>
</g>
</g>
<!-- dir_81247f24472eff49ce853a435e3ab184&#45;&gt;dir_5db6616082cde53441490dccc55cf8fe -->
<g id="edge6" class="edge"><title>dir_81247f24472eff49ce853a435e3ab184&#45;&gt;dir_5db6616082cde53441490dccc55cf8fe</title>
<path fill="none" stroke="black" d="M43.1214,-215.531C33.6934,-206.092 23.4936,-193.597 18.5,-180 11.1418,-159.965 15.0845,-135.907 20.3461,-117.859"/>
<polygon fill="black" stroke="black" points="23.7039,-118.849 23.4308,-108.258 17.0395,-116.708 23.7039,-118.849"/>
<g id="a_edge6&#45;headlabel"><a xlink:href="dir_000025_000015.html" target="_top" xlink:title="4">
<text text-anchor="middle" x="25.3075" y="-121.24" font-family="Helvetica,sans-Serif" font-size="8.00">4</text>
</a>
</g>
</g>
<!-- dir_a41afcbfbf54af8aa656914f5423c760 -->
<g id="node4" class="node"><title>dir_a41afcbfbf54af8aa656914f5423c760</title>
<g id="a_node4"><a xlink:href="dir_a41afcbfbf54af8aa656914f5423c760.html" target="_top" xlink:title="gslpp">
<polygon fill="none" stroke="red" points="116.5,-36 62.5,-36 62.5,-0 116.5,-0 116.5,-36"/>
<text text-anchor="middle" x="89.5" y="-16.1" font-family="Helvetica,sans-Serif" font-size="8.00">gslpp</text>
</a>
</g>
</g>
<!-- dir_81247f24472eff49ce853a435e3ab184&#45;&gt;dir_a41afcbfbf54af8aa656914f5423c760 -->
<g id="edge7" class="edge"><title>dir_81247f24472eff49ce853a435e3ab184&#45;&gt;dir_a41afcbfbf54af8aa656914f5423c760</title>
<path fill="none" stroke="black" d="M82.9737,-215.918C92.3208,-206.403 102.546,-193.723 107.5,-180 123.787,-134.884 110.385,-78.427 99.623,-45.7621"/>
<polygon fill="black" stroke="black" points="102.837,-44.3456 96.2625,-36.0371 96.2205,-46.6319 102.837,-44.3456"/>
<g id="a_edge7&#45;headlabel"><a xlink:href="dir_000025_000026.html" target="_top" xlink:title="4">
<text text-anchor="middle" x="106.694" y="-44.9158" font-family="Helvetica,sans-Serif" font-size="8.00">4</text>
</a>
</g>
</g>
<!-- dir_c2aa2cb4e0c986d55db329a86184b083&#45;&gt;dir_5db6616082cde53441490dccc55cf8fe -->
<g id="edge1" class="edge"><title>dir_c2aa2cb4e0c986d55db329a86184b083&#45;&gt;dir_5db6616082cde53441490dccc55cf8fe</title>
<path fill="none" stroke="black" d="M49.427,-143.697C44.8973,-135.813 40.1958,-126.304 36.4429,-117.546"/>
<polygon fill="black" stroke="black" points="39.6303,-116.091 32.6684,-108.104 33.1304,-118.689 39.6303,-116.091"/>
<g id="a_edge1&#45;headlabel"><a xlink:href="dir_000006_000015.html" target="_top" xlink:title="1">
<text text-anchor="middle" x="43.601" y="-116.475" font-family="Helvetica,sans-Serif" font-size="8.00">1</text>
</a>
</g>
</g>
<!-- dir_c2aa2cb4e0c986d55db329a86184b083&#45;&gt;dir_a41afcbfbf54af8aa656914f5423c760 -->
<g id="edge2" class="edge"><title>dir_c2aa2cb4e0c986d55db329a86184b083&#45;&gt;dir_a41afcbfbf54af8aa656914f5423c760</title>
<path fill="none" stroke="black" d="M66.6362,-143.871C71.0674,-119.67 79.2079,-75.2108 84.4843,-46.3932"/>
<polygon fill="black" stroke="black" points="87.9943,-46.6561 86.3527,-36.1893 81.1088,-45.3953 87.9943,-46.6561"/>
<g id="a_edge2&#45;headlabel"><a xlink:href="dir_000006_000026.html" target="_top" xlink:title="7">
<text text-anchor="middle" x="90.1398" y="-48.8033" font-family="Helvetica,sans-Serif" font-size="8.00">7</text>
</a>
</g>
</g>
<!-- dir_5db6616082cde53441490dccc55cf8fe&#45;&gt;dir_c2aa2cb4e0c986d55db329a86184b083 -->
<g id="edge3" class="edge"><title>dir_5db6616082cde53441490dccc55cf8fe&#45;&gt;dir_c2aa2cb4e0c986d55db329a86184b083</title>
<path fill="none" stroke="black" d="M44.4585,-108.104C48.9852,-115.96 53.6932,-125.462 57.462,-134.232"/>
<polygon fill="black" stroke="black" points="54.2871,-135.718 61.2584,-143.697 60.784,-133.112 54.2871,-135.718"/>
<g id="a_edge3&#45;headlabel"><a xlink:href="dir_000015_000006.html" target="_top" xlink:title="1">
<text text-anchor="middle" x="50.3138" y="-131.539" font-family="Helvetica,sans-Serif" font-size="8.00">1</text>
</a>
</g>
</g>
<!-- dir_5db6616082cde53441490dccc55cf8fe&#45;&gt;dir_a41afcbfbf54af8aa656914f5423c760 -->
<g id="edge4" class="edge"><title>dir_5db6616082cde53441490dccc55cf8fe&#45;&gt;dir_a41afcbfbf54af8aa656914f5423c760</title>
<path fill="none" stroke="black" d="M45.0843,-71.6966C52.1576,-63.3046 60.7834,-53.0705 68.5454,-43.8613"/>
<polygon fill="black" stroke="black" points="71.3149,-46.0063 75.0835,-36.1043 65.9625,-41.495 71.3149,-46.0063"/>
<g id="a_edge4&#45;headlabel"><a xlink:href="dir_000015_000026.html" target="_top" xlink:title="1">
<text text-anchor="middle" x="71.1693" y="-48.6846" font-family="Helvetica,sans-Serif" font-size="8.00">1</text>
</a>
</g>
</g>
</g>
</svg>
