<?xml version="1.0" encoding="UTF-8" standalone="no"?>
<!DOCTYPE svg PUBLIC "-//W3C//DTD SVG 1.1//EN"
 "http://www.w3.org/Graphics/SVG/1.1/DTD/svg11.dtd">
<!-- Generated by graphviz version 2.38.0 (20140413.2041)
 -->
<!-- Title: NewPhysics Pages: 1 -->
<svg width="197pt" height="204pt"
 viewBox="0.00 0.00 196.50 204.00" xmlns="http://www.w3.org/2000/svg" xmlns:xlink="http://www.w3.org/1999/xlink">
<g id="graph0" class="graph" transform="scale(1 1) rotate(0) translate(4 200)">
<title>NewPhysics</title>
<g id="clust1" class="cluster"><title>clusterdir_666c9667863ccc7af17064510cec8262</title>
<g id="a_clust1"><a xlink:href="dir_666c9667863ccc7af17064510cec8262.html" target="_top">
<polygon fill="#eeeeff" stroke="black" points="32.5,-136 32.5,-188 180.5,-188 180.5,-136 32.5,-136"/>
</a>
</g>
</g>
<!-- dir_666c9667863ccc7af17064510cec8262 -->
<g id="node1" class="node"><title>dir_666c9667863ccc7af17064510cec8262</title>
<text text-anchor="middle" x="142.5" y="-160.1" font-family="Helvetica,sans-Serif" font-size="8.00">NewPhysics</text>
</g>
<!-- dir_6475ae33ee6efb9863764d6f6d4e7ccd -->
<g id="node2" class="node"><title>dir_6475ae33ee6efb9863764d6f6d4e7ccd</title>
<g id="a_node2"><a xlink:href="dir_6475ae33ee6efb9863764d6f6d4e7ccd.html" target="_top" xlink:title="src">
<polygon fill="white" stroke="black" points="94.5,-180 40.5,-180 40.5,-144 94.5,-144 94.5,-180"/>
<text text-anchor="middle" x="67.5" y="-160.1" font-family="Helvetica,sans-Serif" font-size="8.00">src</text>
</a>
</g>
</g>
<!-- dir_c2aa2cb4e0c986d55db329a86184b083 -->
<g id="node3" class="node"><title>dir_c2aa2cb4e0c986d55db329a86184b083</title>
<g id="a_node3"><a xlink:href="dir_c2aa2cb4e0c986d55db329a86184b083.html" target="_top" xlink:title="StandardModel">
<polygon fill="none" stroke="red" points="71,-108 0,-108 0,-72 71,-72 71,-108"/>
<text text-anchor="middle" x="35.5" y="-88.1" font-family="Helvetica,sans-Serif" font-size="8.00">StandardModel</text>
</a>
</g>
</g>
<!-- dir_6475ae33ee6efb9863764d6f6d4e7ccd&#45;&gt;dir_c2aa2cb4e0c986d55db329a86184b083 -->
<g id="edge2" class="edge"><title>dir_6475ae33ee6efb9863764d6f6d4e7ccd&#45;&gt;dir_c2aa2cb4e0c986d55db329a86184b083</title>
<path fill="none" stroke="black" d="M59.5899,-143.697C55.9473,-135.728 51.5455,-126.1 47.5065,-117.264"/>
<polygon fill="black" stroke="black" points="50.6599,-115.744 43.3191,-108.104 44.2936,-118.654 50.6599,-115.744"/>
<g id="a_edge2&#45;headlabel"><a xlink:href="dir_000041_000006.html" target="_top" xlink:title="1">
<text text-anchor="middle" x="54.7366" y="-115.933" font-family="Helvetica,sans-Serif" font-size="8.00">1</text>
</a>
</g>
</g>
<!-- dir_a41afcbfbf54af8aa656914f5423c760 -->
<g id="node4" class="node"><title>dir_a41afcbfbf54af8aa656914f5423c760</title>
<g id="a_node4"><a xlink:href="dir_a41afcbfbf54af8aa656914f5423c760.html" target="_top" xlink:title="gslpp">
<polygon fill="none" stroke="red" points="94.5,-36 40.5,-36 40.5,-0 94.5,-0 94.5,-36"/>
<text text-anchor="middle" x="67.5" y="-16.1" font-family="Helvetica,sans-Serif" font-size="8.00">gslpp</text>
</a>
</g>
</g>
<!-- dir_6475ae33ee6efb9863764d6f6d4e7ccd&#45;&gt;dir_a41afcbfbf54af8aa656914f5423c760 -->
<g id="edge3" class="edge"><title>dir_6475ae33ee6efb9863764d6f6d4e7ccd&#45;&gt;dir_a41afcbfbf54af8aa656914f5423c760</title>
<path fill="none" stroke="black" d="M72.9088,-143.529C75.795,-133.289 79.045,-120.039 80.5,-108 82.4196,-92.1156 82.4196,-87.8844 80.5,-72 79.477,-63.5349 77.5665,-54.4712 75.5191,-46.2761"/>
<polygon fill="black" stroke="black" points="78.8635,-45.2336 72.9088,-36.4705 72.0991,-47.0344 78.8635,-45.2336"/>
<g id="a_edge3&#45;headlabel"><a xlink:href="dir_000041_000026.html" target="_top" xlink:title="1">
<text text-anchor="middle" x="82.5319" y="-46.0769" font-family="Helvetica,sans-Serif" font-size="8.00">1</text>
</a>
</g>
</g>
<!-- dir_c2aa2cb4e0c986d55db329a86184b083&#45;&gt;dir_a41afcbfbf54af8aa656914f5423c760 -->
<g id="edge1" class="edge"><title>dir_c2aa2cb4e0c986d55db329a86184b083&#45;&gt;dir_a41afcbfbf54af8aa656914f5423c760</title>
<path fill="none" stroke="black" d="M43.4101,-71.6966C47.0527,-63.7284 51.4545,-54.0995 55.4935,-45.2641"/>
<polygon fill="black" stroke="black" points="58.7064,-46.6543 59.6809,-36.1043 52.3401,-43.7439 58.7064,-46.6543"/>
<g id="a_edge1&#45;headlabel"><a xlink:href="dir_000006_000026.html" target="_top" xlink:title="7">
<text text-anchor="middle" x="59.7942" y="-49.2039" font-family="Helvetica,sans-Serif" font-size="8.00">7</text>
</a>
</g>
</g>
</g>
</svg>
