<?xml version="1.0" encoding="UTF-8" standalone="no"?>
<!DOCTYPE svg PUBLIC "-//W3C//DTD SVG 1.1//EN"
 "http://www.w3.org/Graphics/SVG/1.1/DTD/svg11.dtd">
<!-- Generated by graphviz version 2.38.0 (20140413.2041)
 -->
<!-- Title: src Pages: 1 -->
<svg width="728pt" height="437pt"
 viewBox="0.00 0.00 728.00 437.00" xmlns="http://www.w3.org/2000/svg" xmlns:xlink="http://www.w3.org/1999/xlink">
<g id="graph0" class="graph" transform="scale(1 1) rotate(0) translate(4 433)">
<title>src</title>
<g id="clust1" class="cluster"><title>clusterdir_6cc8451fad81479d5e8112c416332322</title>
<g id="a_clust1"><a xlink:href="dir_6cc8451fad81479d5e8112c416332322.html" target="_top" xlink:title="InputParser">
<polygon fill="#ddddee" stroke="black" points="303,-352 303,-421 373,-421 373,-352 303,-352"/>
<text text-anchor="middle" x="338" y="-410.6" font-family="Helvetica,sans-Serif" font-size="8.00">InputParser</text>
</a>
</g>
</g>
<!-- dir_0476eed390318da84a06e0b7d3b239e8 -->
<g id="node1" class="node"><title>dir_0476eed390318da84a06e0b7d3b239e8</title>
<g id="a_node1"><a xlink:href="dir_0476eed390318da84a06e0b7d3b239e8.html" target="_top" xlink:title="src">
<polygon fill="#eeeeff" stroke="black" points="365,-396 311,-396 311,-360 365,-360 365,-396"/>
<text text-anchor="middle" x="338" y="-376.1" font-family="Helvetica,sans-Serif" font-size="8.00">src</text>
</a>
</g>
</g>
<!-- dir_9a9fd231415804687953c3309ff81f4b -->
<g id="node2" class="node"><title>dir_9a9fd231415804687953c3309ff81f4b</title>
<g id="a_node2"><a xlink:href="dir_9a9fd231415804687953c3309ff81f4b.html" target="_top" xlink:title="SUSY">
<polygon fill="none" stroke="red" points="172,-252 118,-252 118,-216 172,-216 172,-252"/>
<text text-anchor="middle" x="145" y="-232.1" font-family="Helvetica,sans-Serif" font-size="8.00">SUSY</text>
</a>
</g>
</g>
<!-- dir_0476eed390318da84a06e0b7d3b239e8&#45;&gt;dir_9a9fd231415804687953c3309ff81f4b -->
<g id="edge16" class="edge"><title>dir_0476eed390318da84a06e0b7d3b239e8&#45;&gt;dir_9a9fd231415804687953c3309ff81f4b</title>
<path fill="none" stroke="black" d="M310.848,-374.021C277.64,-369.058 221.481,-356.222 186,-324 167.959,-307.616 157.27,-281.699 151.355,-262.049"/>
<polygon fill="black" stroke="black" points="154.656,-260.856 148.613,-252.153 147.91,-262.725 154.656,-260.856"/>
<g id="a_edge16&#45;headlabel"><a xlink:href="dir_000031_000032.html" target="_top" xlink:title="2">
<text text-anchor="middle" x="158.352" y="-261.662" font-family="Helvetica,sans-Serif" font-size="8.00">2</text>
</a>
</g>
</g>
<!-- dir_c2aa2cb4e0c986d55db329a86184b083 -->
<g id="node3" class="node"><title>dir_c2aa2cb4e0c986d55db329a86184b083</title>
<g id="a_node3"><a xlink:href="dir_c2aa2cb4e0c986d55db329a86184b083.html" target="_top" xlink:title="StandardModel">
<polygon fill="none" stroke="red" points="429.5,-180 358.5,-180 358.5,-144 429.5,-144 429.5,-180"/>
<text text-anchor="middle" x="394" y="-160.1" font-family="Helvetica,sans-Serif" font-size="8.00">StandardModel</text>
</a>
</g>
</g>
<!-- dir_0476eed390318da84a06e0b7d3b239e8&#45;&gt;dir_c2aa2cb4e0c986d55db329a86184b083 -->
<g id="edge17" class="edge"><title>dir_0476eed390318da84a06e0b7d3b239e8&#45;&gt;dir_c2aa2cb4e0c986d55db329a86184b083</title>
<path fill="none" stroke="black" d="M310.766,-373.438C282.356,-368.11 239.199,-355.108 219,-324 210.287,-310.581 211.679,-302.227 219,-288 246.081,-235.377 306.719,-199.997 348.976,-180.682"/>
<polygon fill="black" stroke="black" points="350.506,-183.832 358.225,-176.574 347.665,-177.434 350.506,-183.832"/>
<g id="a_edge17&#45;headlabel"><a xlink:href="dir_000031_000006.html" target="_top" xlink:title="4">
<text text-anchor="middle" x="348.373" y="-185.985" font-family="Helvetica,sans-Serif" font-size="8.00">4</text>
</a>
</g>
</g>
<!-- dir_871726cb4cfde2a189d810e79024a9cf -->
<g id="node4" class="node"><title>dir_871726cb4cfde2a189d810e79024a9cf</title>
<g id="a_node4"><a xlink:href="dir_871726cb4cfde2a189d810e79024a9cf.html" target="_top" xlink:title="EW">
<polygon fill="none" stroke="red" points="720,-324 666,-324 666,-288 720,-288 720,-324"/>
<text text-anchor="middle" x="693" y="-304.1" font-family="Helvetica,sans-Serif" font-size="8.00">EW</text>
</a>
</g>
</g>
<!-- dir_0476eed390318da84a06e0b7d3b239e8&#45;&gt;dir_871726cb4cfde2a189d810e79024a9cf -->
<g id="edge18" class="edge"><title>dir_0476eed390318da84a06e0b7d3b239e8&#45;&gt;dir_871726cb4cfde2a189d810e79024a9cf</title>
<path fill="none" stroke="black" d="M365.341,-374.483C420.439,-368.956 548.397,-353.807 652,-324 653.435,-323.587 654.887,-323.14 656.346,-322.665"/>
<polygon fill="black" stroke="black" points="657.729,-325.887 665.96,-319.216 655.365,-319.298 657.729,-325.887"/>
<g id="a_edge18&#45;headlabel"><a xlink:href="dir_000031_000000.html" target="_top" xlink:title="1">
<text text-anchor="middle" x="655.304" y="-327.873" font-family="Helvetica,sans-Serif" font-size="8.00">1</text>
</a>
</g>
</g>
<!-- dir_852eda2efd0a10ea26fad7b4598e8628 -->
<g id="node5" class="node"><title>dir_852eda2efd0a10ea26fad7b4598e8628</title>
<g id="a_node5"><a xlink:href="dir_852eda2efd0a10ea26fad7b4598e8628.html" target="_top" xlink:title="FlavourWilsonCoefficient">
<polygon fill="none" stroke="red" points="333.5,-324 228.5,-324 228.5,-288 333.5,-288 333.5,-324"/>
<text text-anchor="middle" x="281" y="-304.1" font-family="Helvetica,sans-Serif" font-size="8.00">FlavourWilsonCoefficient</text>
</a>
</g>
</g>
<!-- dir_0476eed390318da84a06e0b7d3b239e8&#45;&gt;dir_852eda2efd0a10ea26fad7b4598e8628 -->
<g id="edge19" class="edge"><title>dir_0476eed390318da84a06e0b7d3b239e8&#45;&gt;dir_852eda2efd0a10ea26fad7b4598e8628</title>
<path fill="none" stroke="black" d="M323.91,-359.697C317.077,-351.305 308.743,-341.07 301.244,-331.861"/>
<polygon fill="black" stroke="black" points="303.956,-329.649 294.928,-324.104 298.528,-334.069 303.956,-329.649"/>
<g id="a_edge19&#45;headlabel"><a xlink:href="dir_000031_000017.html" target="_top" xlink:title="1">
<text text-anchor="middle" x="308.428" y="-328.743" font-family="Helvetica,sans-Serif" font-size="8.00">1</text>
</a>
</g>
</g>
<!-- dir_5db6616082cde53441490dccc55cf8fe -->
<g id="node6" class="node"><title>dir_5db6616082cde53441490dccc55cf8fe</title>
<g id="a_node6"><a xlink:href="dir_5db6616082cde53441490dccc55cf8fe.html" target="_top" xlink:title="Observables">
<polygon fill="none" stroke="red" points="424.5,-36 363.5,-36 363.5,-0 424.5,-0 424.5,-36"/>
<text text-anchor="middle" x="394" y="-16.1" font-family="Helvetica,sans-Serif" font-size="8.00">Observables</text>
</a>
</g>
</g>
<!-- dir_0476eed390318da84a06e0b7d3b239e8&#45;&gt;dir_5db6616082cde53441490dccc55cf8fe -->
<g id="edge20" class="edge"><title>dir_0476eed390318da84a06e0b7d3b239e8&#45;&gt;dir_5db6616082cde53441490dccc55cf8fe</title>
<path fill="none" stroke="black" d="M310.53,-375.487C244.483,-371.338 79.1314,-357.761 37,-324 3.57105,-297.213 0,-277.838 0,-235 0,-235 0,-235 0,-161 0,-86.4743 252.641,-40.25 353.312,-24.7891"/>
<polygon fill="black" stroke="black" points="354.046,-28.218 363.411,-23.2634 353.001,-21.2966 354.046,-28.218"/>
<g id="a_edge20&#45;headlabel"><a xlink:href="dir_000031_000015.html" target="_top" xlink:title="8">
<text text-anchor="middle" x="350.916" y="-29.6623" font-family="Helvetica,sans-Serif" font-size="8.00">8</text>
</a>
</g>
</g>
<!-- dir_0eda29277a6077c1c02542f56cc6373a -->
<g id="node7" class="node"><title>dir_0eda29277a6077c1c02542f56cc6373a</title>
<g id="a_node7"><a xlink:href="dir_0eda29277a6077c1c02542f56cc6373a.html" target="_top" xlink:title="LeptonFlavour">
<polygon fill="none" stroke="red" points="357,-108 289,-108 289,-72 357,-72 357,-108"/>
<text text-anchor="middle" x="323" y="-88.1" font-family="Helvetica,sans-Serif" font-size="8.00">LeptonFlavour</text>
</a>
</g>
</g>
<!-- dir_0476eed390318da84a06e0b7d3b239e8&#45;&gt;dir_0eda29277a6077c1c02542f56cc6373a -->
<g id="edge21" class="edge"><title>dir_0476eed390318da84a06e0b7d3b239e8&#45;&gt;dir_0eda29277a6077c1c02542f56cc6373a</title>
<path fill="none" stroke="black" d="M310.99,-376.114C247.009,-373.389 89.1597,-362.793 57,-324 -21.4285,-229.396 185.413,-140.285 279.368,-105.915"/>
<polygon fill="black" stroke="black" points="280.684,-109.161 288.901,-102.474 278.307,-102.577 280.684,-109.161"/>
<g id="a_edge21&#45;headlabel"><a xlink:href="dir_000031_000024.html" target="_top" xlink:title="1">
<text text-anchor="middle" x="278.267" y="-111.152" font-family="Helvetica,sans-Serif" font-size="8.00">1</text>
</a>
</g>
</g>
<!-- dir_cf22cf761c877bf147092a1f72cf7ff7 -->
<g id="node8" class="node"><title>dir_cf22cf761c877bf147092a1f72cf7ff7</title>
<g id="a_node8"><a xlink:href="dir_cf22cf761c877bf147092a1f72cf7ff7.html" target="_top" xlink:title="SUSYMassInsertion">
<polygon fill="none" stroke="red" points="440,-324 352,-324 352,-288 440,-288 440,-324"/>
<text text-anchor="middle" x="396" y="-304.1" font-family="Helvetica,sans-Serif" font-size="8.00">SUSYMassInsertion</text>
</a>
</g>
</g>
<!-- dir_0476eed390318da84a06e0b7d3b239e8&#45;&gt;dir_cf22cf761c877bf147092a1f72cf7ff7 -->
<g id="edge22" class="edge"><title>dir_0476eed390318da84a06e0b7d3b239e8&#45;&gt;dir_cf22cf761c877bf147092a1f72cf7ff7</title>
<path fill="none" stroke="black" d="M352.337,-359.697C359.291,-351.305 367.77,-341.07 375.401,-331.861"/>
<polygon fill="black" stroke="black" points="378.143,-334.038 381.828,-324.104 372.753,-329.571 378.143,-334.038"/>
<g id="a_edge22&#45;headlabel"><a xlink:href="dir_000031_000042.html" target="_top" xlink:title="1">
<text text-anchor="middle" x="378.036" y="-336.717" font-family="Helvetica,sans-Serif" font-size="8.00">1</text>
</a>
</g>
</g>
<!-- dir_666c9667863ccc7af17064510cec8262 -->
<g id="node9" class="node"><title>dir_666c9667863ccc7af17064510cec8262</title>
<g id="a_node9"><a xlink:href="dir_666c9667863ccc7af17064510cec8262.html" target="_top" xlink:title="NewPhysics">
<polygon fill="none" stroke="red" points="546,-252 486,-252 486,-216 546,-216 546,-252"/>
<text text-anchor="middle" x="516" y="-232.1" font-family="Helvetica,sans-Serif" font-size="8.00">NewPhysics</text>
</a>
</g>
</g>
<!-- dir_0476eed390318da84a06e0b7d3b239e8&#45;&gt;dir_666c9667863ccc7af17064510cec8262 -->
<g id="edge23" class="edge"><title>dir_0476eed390318da84a06e0b7d3b239e8&#45;&gt;dir_666c9667863ccc7af17064510cec8262</title>
<path fill="none" stroke="black" d="M365.209,-373.805C397.163,-368.679 449.876,-355.733 482,-324 498.857,-307.348 507.495,-281.463 511.834,-261.893"/>
<polygon fill="black" stroke="black" points="515.275,-262.533 513.779,-252.044 508.407,-261.176 515.275,-262.533"/>
<g id="a_edge23&#45;headlabel"><a xlink:href="dir_000031_000040.html" target="_top" xlink:title="9">
<text text-anchor="middle" x="517.364" y="-264.709" font-family="Helvetica,sans-Serif" font-size="8.00">9</text>
</a>
</g>
</g>
<!-- dir_c156d02bda83512731887ff2be351829 -->
<g id="node10" class="node"><title>dir_c156d02bda83512731887ff2be351829</title>
<g id="a_node10"><a xlink:href="dir_c156d02bda83512731887ff2be351829.html" target="_top" xlink:title="GeneralSUSY">
<polygon fill="none" stroke="red" points="133.5,-324 66.5,-324 66.5,-288 133.5,-288 133.5,-324"/>
<text text-anchor="middle" x="100" y="-304.1" font-family="Helvetica,sans-Serif" font-size="8.00">GeneralSUSY</text>
</a>
</g>
</g>
<!-- dir_0476eed390318da84a06e0b7d3b239e8&#45;&gt;dir_c156d02bda83512731887ff2be351829 -->
<g id="edge24" class="edge"><title>dir_0476eed390318da84a06e0b7d3b239e8&#45;&gt;dir_c156d02bda83512731887ff2be351829</title>
<path fill="none" stroke="black" d="M310.769,-370.03C273.722,-360.406 205.468,-342.169 148,-324 146.551,-323.542 145.081,-323.069 143.598,-322.585"/>
<polygon fill="black" stroke="black" points="144.325,-319.137 133.731,-319.272 142.097,-325.773 144.325,-319.137"/>
<g id="a_edge24&#45;headlabel"><a xlink:href="dir_000031_000020.html" target="_top" xlink:title="1">
<text text-anchor="middle" x="148.636" y="-315.689" font-family="Helvetica,sans-Serif" font-size="8.00">1</text>
</a>
</g>
</g>
<!-- dir_0c76491da9cff37191668e19637d8bbe -->
<g id="node11" class="node"><title>dir_0c76491da9cff37191668e19637d8bbe</title>
<g id="a_node11"><a xlink:href="dir_0c76491da9cff37191668e19637d8bbe.html" target="_top" xlink:title="HiggsExtensions">
<polygon fill="none" stroke="red" points="610,-324 534,-324 534,-288 610,-288 610,-324"/>
<text text-anchor="middle" x="572" y="-304.1" font-family="Helvetica,sans-Serif" font-size="8.00">HiggsExtensions</text>
</a>
</g>
</g>
<!-- dir_0476eed390318da84a06e0b7d3b239e8&#45;&gt;dir_0c76491da9cff37191668e19637d8bbe -->
<g id="edge25" class="edge"><title>dir_0476eed390318da84a06e0b7d3b239e8&#45;&gt;dir_0c76491da9cff37191668e19637d8bbe</title>
<path fill="none" stroke="black" d="M365.217,-369.373C400.871,-359.314 465.289,-340.904 520,-324 521.418,-323.562 522.856,-323.114 524.308,-322.659"/>
<polygon fill="black" stroke="black" points="525.518,-325.947 533.99,-319.584 523.4,-319.275 525.518,-325.947"/>
<g id="a_edge25&#45;headlabel"><a xlink:href="dir_000031_000028.html" target="_top" xlink:title="4">
<text text-anchor="middle" x="522.952" y="-327.841" font-family="Helvetica,sans-Serif" font-size="8.00">4</text>
</a>
</g>
</g>
<!-- dir_e5487c5b3bd1ab47a3a7900e06b56a92 -->
<g id="node12" class="node"><title>dir_e5487c5b3bd1ab47a3a7900e06b56a92</title>
<g id="a_node12"><a xlink:href="dir_e5487c5b3bd1ab47a3a7900e06b56a92.html" target="_top" xlink:title="Flavour">
<polygon fill="none" stroke="red" points="485,-108 431,-108 431,-72 485,-72 485,-108"/>
<text text-anchor="middle" x="458" y="-88.1" font-family="Helvetica,sans-Serif" font-size="8.00">Flavour</text>
</a>
</g>
</g>
<!-- dir_0476eed390318da84a06e0b7d3b239e8&#45;&gt;dir_e5487c5b3bd1ab47a3a7900e06b56a92 -->
<g id="edge26" class="edge"><title>dir_0476eed390318da84a06e0b7d3b239e8&#45;&gt;dir_e5487c5b3bd1ab47a3a7900e06b56a92</title>
<path fill="none" stroke="black" d="M365.198,-372.272C391.555,-366.111 430.219,-352.543 449,-324 490.803,-260.468 476.098,-164.703 465.31,-118.227"/>
<polygon fill="black" stroke="black" points="468.659,-117.188 462.889,-108.303 461.859,-118.847 468.659,-117.188"/>
<g id="a_edge26&#45;headlabel"><a xlink:href="dir_000031_000002.html" target="_top" xlink:title="1">
<text text-anchor="middle" x="472.27" y="-118.107" font-family="Helvetica,sans-Serif" font-size="8.00">1</text>
</a>
</g>
</g>
<!-- dir_92cfbc6e622f58864485a0138174a950 -->
<g id="node13" class="node"><title>dir_92cfbc6e622f58864485a0138174a950</title>
<g id="a_node13"><a xlink:href="dir_92cfbc6e622f58864485a0138174a950.html" target="_top" xlink:title="THDM">
<polygon fill="none" stroke="red" points="656,-252 602,-252 602,-216 656,-216 656,-252"/>
<text text-anchor="middle" x="629" y="-232.1" font-family="Helvetica,sans-Serif" font-size="8.00">THDM</text>
</a>
</g>
</g>
<!-- dir_0476eed390318da84a06e0b7d3b239e8&#45;&gt;dir_92cfbc6e622f58864485a0138174a950 -->
<g id="edge27" class="edge"><title>dir_0476eed390318da84a06e0b7d3b239e8&#45;&gt;dir_92cfbc6e622f58864485a0138174a950</title>
<path fill="none" stroke="black" d="M365.208,-375.85C428.885,-372.561 584.806,-360.843 619,-324 634.083,-307.749 635.465,-281.989 633.731,-262.355"/>
<polygon fill="black" stroke="black" points="637.176,-261.691 632.514,-252.177 630.226,-262.522 637.176,-261.691"/>
<g id="a_edge27&#45;headlabel"><a xlink:href="dir_000031_000008.html" target="_top" xlink:title="2">
<text text-anchor="middle" x="640.422" y="-263.023" font-family="Helvetica,sans-Serif" font-size="8.00">2</text>
</a>
</g>
</g>
<!-- dir_9a9fd231415804687953c3309ff81f4b&#45;&gt;dir_c2aa2cb4e0c986d55db329a86184b083 -->
<g id="edge1" class="edge"><title>dir_9a9fd231415804687953c3309ff81f4b&#45;&gt;dir_c2aa2cb4e0c986d55db329a86184b083</title>
<path fill="none" stroke="black" d="M172.141,-221.108C176.725,-219.284 181.467,-217.509 186,-216 240.993,-197.698 305.94,-182.072 348.447,-172.625"/>
<polygon fill="black" stroke="black" points="349.207,-176.042 358.221,-170.474 347.702,-169.206 349.207,-176.042"/>
<g id="a_edge1&#45;headlabel"><a xlink:href="dir_000032_000006.html" target="_top" xlink:title="3">
<text text-anchor="middle" x="346.306" y="-177.687" font-family="Helvetica,sans-Serif" font-size="8.00">3</text>
</a>
</g>
</g>
<!-- dir_9a9fd231415804687953c3309ff81f4b&#45;&gt;dir_5db6616082cde53441490dccc55cf8fe -->
<g id="edge2" class="edge"><title>dir_9a9fd231415804687953c3309ff81f4b&#45;&gt;dir_5db6616082cde53441490dccc55cf8fe</title>
<path fill="none" stroke="black" d="M155.672,-215.834C176.272,-183.869 224.419,-114.613 280,-72 302.279,-54.9187 330.949,-41.6224 353.964,-32.6197"/>
<polygon fill="black" stroke="black" points="355.336,-35.8429 363.446,-29.0258 352.855,-29.2973 355.336,-35.8429"/>
<g id="a_edge2&#45;headlabel"><a xlink:href="dir_000032_000015.html" target="_top" xlink:title="7">
<text text-anchor="middle" x="352.981" y="-37.8718" font-family="Helvetica,sans-Serif" font-size="8.00">7</text>
</a>
</g>
</g>
<!-- dir_c2aa2cb4e0c986d55db329a86184b083&#45;&gt;dir_5db6616082cde53441490dccc55cf8fe -->
<g id="edge3" class="edge"><title>dir_c2aa2cb4e0c986d55db329a86184b083&#45;&gt;dir_5db6616082cde53441490dccc55cf8fe</title>
<path fill="none" stroke="black" d="M389.416,-143.871C386.857,-119.67 386.566,-75.2108 388.541,-46.3932"/>
<polygon fill="black" stroke="black" points="392.049,-46.45 389.409,-36.1893 385.074,-45.8566 392.049,-46.45"/>
<g id="a_edge3&#45;headlabel"><a xlink:href="dir_000006_000015.html" target="_top" xlink:title="1">
<text text-anchor="middle" x="394.573" y="-48.3723" font-family="Helvetica,sans-Serif" font-size="8.00">1</text>
</a>
</g>
</g>
<!-- dir_c2aa2cb4e0c986d55db329a86184b083&#45;&gt;dir_0eda29277a6077c1c02542f56cc6373a -->
<g id="edge4" class="edge"><title>dir_c2aa2cb4e0c986d55db329a86184b083&#45;&gt;dir_0eda29277a6077c1c02542f56cc6373a</title>
<path fill="none" stroke="black" d="M370.534,-143.697C361.061,-135.22 350.37,-124.864 341.457,-115.583"/>
<polygon fill="black" stroke="black" points="343.844,-113.011 334.454,-108.104 338.734,-117.796 343.844,-113.011"/>
<g id="a_edge4&#45;headlabel"><a xlink:href="dir_000006_000024.html" target="_top" xlink:title="1">
<text text-anchor="middle" x="348.373" y="-111.794" font-family="Helvetica,sans-Serif" font-size="8.00">1</text>
</a>
</g>
</g>
<!-- dir_c2aa2cb4e0c986d55db329a86184b083&#45;&gt;dir_e5487c5b3bd1ab47a3a7900e06b56a92 -->
<g id="edge5" class="edge"><title>dir_c2aa2cb4e0c986d55db329a86184b083&#45;&gt;dir_e5487c5b3bd1ab47a3a7900e06b56a92</title>
<path fill="none" stroke="black" d="M403.905,-143.697C410.849,-135.135 420.248,-124.656 429.317,-115.304"/>
<polygon fill="black" stroke="black" points="431.904,-117.666 436.467,-108.104 426.937,-112.734 431.904,-117.666"/>
<g id="a_edge5&#45;headlabel"><a xlink:href="dir_000006_000002.html" target="_top" xlink:title="1">
<text text-anchor="middle" x="431.386" y="-120.318" font-family="Helvetica,sans-Serif" font-size="8.00">1</text>
</a>
</g>
</g>
<!-- dir_871726cb4cfde2a189d810e79024a9cf&#45;&gt;dir_5db6616082cde53441490dccc55cf8fe -->
<g id="edge6" class="edge"><title>dir_871726cb4cfde2a189d810e79024a9cf&#45;&gt;dir_5db6616082cde53441490dccc55cf8fe</title>
<path fill="none" stroke="black" d="M692.652,-287.85C690.791,-244.526 679.586,-130.014 614,-72 587.683,-48.7208 490.741,-32.0983 434.713,-24.1949"/>
<polygon fill="black" stroke="black" points="435.139,-20.7205 424.754,-22.821 434.182,-27.6549 435.139,-20.7205"/>
<g id="a_edge6&#45;headlabel"><a xlink:href="dir_000000_000015.html" target="_top" xlink:title="19">
<text text-anchor="middle" x="439.088" y="-16.4991" font-family="Helvetica,sans-Serif" font-size="8.00">19</text>
</a>
</g>
</g>
<!-- dir_852eda2efd0a10ea26fad7b4598e8628&#45;&gt;dir_c2aa2cb4e0c986d55db329a86184b083 -->
<g id="edge7" class="edge"><title>dir_852eda2efd0a10ea26fad7b4598e8628&#45;&gt;dir_c2aa2cb4e0c986d55db329a86184b083</title>
<path fill="none" stroke="black" d="M294.63,-287.871C314.398,-263.031 351.15,-216.846 373.993,-188.142"/>
<polygon fill="black" stroke="black" points="376.833,-190.193 380.321,-180.189 371.356,-185.835 376.833,-190.193"/>
<g id="a_edge7&#45;headlabel"><a xlink:href="dir_000017_000006.html" target="_top" xlink:title="2">
<text text-anchor="middle" x="376.817" y="-192.874" font-family="Helvetica,sans-Serif" font-size="8.00">2</text>
</a>
</g>
</g>
<!-- dir_5db6616082cde53441490dccc55cf8fe&#45;&gt;dir_c2aa2cb4e0c986d55db329a86184b083 -->
<g id="edge8" class="edge"><title>dir_5db6616082cde53441490dccc55cf8fe&#45;&gt;dir_c2aa2cb4e0c986d55db329a86184b083</title>
<path fill="none" stroke="black" d="M398.591,-36.1893C401.145,-60.4244 401.433,-104.888 399.454,-133.679"/>
<polygon fill="black" stroke="black" points="395.947,-133.61 398.584,-143.871 402.922,-134.205 395.947,-133.61"/>
<g id="a_edge8&#45;headlabel"><a xlink:href="dir_000015_000006.html" target="_top" xlink:title="1">
<text text-anchor="middle" x="393.424" y="-127.887" font-family="Helvetica,sans-Serif" font-size="8.00">1</text>
</a>
</g>
</g>
<!-- dir_0eda29277a6077c1c02542f56cc6373a&#45;&gt;dir_c2aa2cb4e0c986d55db329a86184b083 -->
<g id="edge9" class="edge"><title>dir_0eda29277a6077c1c02542f56cc6373a&#45;&gt;dir_c2aa2cb4e0c986d55db329a86184b083</title>
<path fill="none" stroke="black" d="M346.244,-108.104C355.697,-116.552 366.392,-126.901 375.333,-136.199"/>
<polygon fill="black" stroke="black" points="372.971,-138.797 382.365,-143.697 378.077,-134.008 372.971,-138.797"/>
<g id="a_edge9&#45;headlabel"><a xlink:href="dir_000024_000006.html" target="_top" xlink:title="16">
<text text-anchor="middle" x="368.441" y="-136.217" font-family="Helvetica,sans-Serif" font-size="8.00">16</text>
</a>
</g>
</g>
<!-- dir_0eda29277a6077c1c02542f56cc6373a&#45;&gt;dir_5db6616082cde53441490dccc55cf8fe -->
<g id="edge10" class="edge"><title>dir_0eda29277a6077c1c02542f56cc6373a&#45;&gt;dir_5db6616082cde53441490dccc55cf8fe</title>
<path fill="none" stroke="black" d="M340.551,-71.6966C349.234,-63.135 359.863,-52.6562 369.348,-43.3045"/>
<polygon fill="black" stroke="black" points="371.988,-45.6175 376.651,-36.1043 367.073,-40.6327 371.988,-45.6175"/>
<g id="a_edge10&#45;headlabel"><a xlink:href="dir_000024_000015.html" target="_top" xlink:title="4">
<text text-anchor="middle" x="371.421" y="-48.263" font-family="Helvetica,sans-Serif" font-size="8.00">4</text>
</a>
</g>
</g>
<!-- dir_cf22cf761c877bf147092a1f72cf7ff7&#45;&gt;dir_c2aa2cb4e0c986d55db329a86184b083 -->
<g id="edge12" class="edge"><title>dir_cf22cf761c877bf147092a1f72cf7ff7&#45;&gt;dir_c2aa2cb4e0c986d55db329a86184b083</title>
<path fill="none" stroke="black" d="M395.759,-287.871C395.418,-263.67 394.792,-219.211 394.386,-190.393"/>
<polygon fill="black" stroke="black" points="397.883,-190.139 394.242,-180.189 390.883,-190.238 397.883,-190.139"/>
<g id="a_edge12&#45;headlabel"><a xlink:href="dir_000042_000006.html" target="_top" xlink:title="2">
<text text-anchor="middle" x="400.772" y="-191.793" font-family="Helvetica,sans-Serif" font-size="8.00">2</text>
</a>
</g>
</g>
<!-- dir_666c9667863ccc7af17064510cec8262&#45;&gt;dir_c2aa2cb4e0c986d55db329a86184b083 -->
<g id="edge11" class="edge"><title>dir_666c9667863ccc7af17064510cec8262&#45;&gt;dir_c2aa2cb4e0c986d55db329a86184b083</title>
<path fill="none" stroke="black" d="M486.155,-215.876C470.056,-206.639 449.999,-195.131 432.712,-185.212"/>
<polygon fill="black" stroke="black" points="434.375,-182.131 423.959,-180.19 430.891,-188.202 434.375,-182.131"/>
<g id="a_edge11&#45;headlabel"><a xlink:href="dir_000040_000006.html" target="_top" xlink:title="1">
<text text-anchor="middle" x="438.906" y="-179.557" font-family="Helvetica,sans-Serif" font-size="8.00">1</text>
</a>
</g>
</g>
<!-- dir_c156d02bda83512731887ff2be351829&#45;&gt;dir_9a9fd231415804687953c3309ff81f4b -->
<g id="edge13" class="edge"><title>dir_c156d02bda83512731887ff2be351829&#45;&gt;dir_9a9fd231415804687953c3309ff81f4b</title>
<path fill="none" stroke="black" d="M111.124,-287.697C116.355,-279.559 122.7,-269.689 128.478,-260.701"/>
<polygon fill="black" stroke="black" points="131.541,-262.409 134.004,-252.104 125.653,-258.623 131.541,-262.409"/>
<g id="a_edge13&#45;headlabel"><a xlink:href="dir_000020_000032.html" target="_top" xlink:title="1">
<text text-anchor="middle" x="131.985" y="-265.068" font-family="Helvetica,sans-Serif" font-size="8.00">1</text>
</a>
</g>
</g>
<!-- dir_0c76491da9cff37191668e19637d8bbe&#45;&gt;dir_5db6616082cde53441490dccc55cf8fe -->
<g id="edge14" class="edge"><title>dir_0c76491da9cff37191668e19637d8bbe&#45;&gt;dir_5db6616082cde53441490dccc55cf8fe</title>
<path fill="none" stroke="black" d="M570.906,-287.694C567.351,-245.477 552.666,-135.984 494,-72 477.722,-54.2464 454.104,-41.3426 433.907,-32.7149"/>
<polygon fill="black" stroke="black" points="435.194,-29.4598 424.612,-28.9352 432.557,-35.9442 435.194,-29.4598"/>
<g id="a_edge14&#45;headlabel"><a xlink:href="dir_000028_000015.html" target="_top" xlink:title="1">
<text text-anchor="middle" x="439.593" y="-26.2836" font-family="Helvetica,sans-Serif" font-size="8.00">1</text>
</a>
</g>
</g>
<!-- dir_0c76491da9cff37191668e19637d8bbe&#45;&gt;dir_666c9667863ccc7af17064510cec8262 -->
<g id="edge15" class="edge"><title>dir_0c76491da9cff37191668e19637d8bbe&#45;&gt;dir_666c9667863ccc7af17064510cec8262</title>
<path fill="none" stroke="black" d="M558.157,-287.697C551.511,-279.389 543.422,-269.277 536.113,-260.141"/>
<polygon fill="black" stroke="black" points="538.664,-257.727 529.683,-252.104 533.197,-262.099 538.664,-257.727"/>
<g id="a_edge15&#45;headlabel"><a xlink:href="dir_000028_000040.html" target="_top" xlink:title="4">
<text text-anchor="middle" x="543.126" y="-256.86" font-family="Helvetica,sans-Serif" font-size="8.00">4</text>
</a>
</g>
</g>
<!-- dir_e5487c5b3bd1ab47a3a7900e06b56a92&#45;&gt;dir_c2aa2cb4e0c986d55db329a86184b083 -->
<g id="edge28" class="edge"><title>dir_e5487c5b3bd1ab47a3a7900e06b56a92&#45;&gt;dir_c2aa2cb4e0c986d55db329a86184b083</title>
<path fill="none" stroke="black" d="M448.257,-108.104C441.35,-116.636 431.968,-127.108 422.894,-136.478"/>
<polygon fill="black" stroke="black" points="420.292,-134.131 415.736,-143.697 425.262,-139.06 420.292,-134.131"/>
<g id="a_edge28&#45;headlabel"><a xlink:href="dir_000002_000006.html" target="_top" xlink:title="22">
<text text-anchor="middle" x="420.807" y="-127.68" font-family="Helvetica,sans-Serif" font-size="8.00">22</text>
</a>
</g>
</g>
<!-- dir_e5487c5b3bd1ab47a3a7900e06b56a92&#45;&gt;dir_5db6616082cde53441490dccc55cf8fe -->
<g id="edge29" class="edge"><title>dir_e5487c5b3bd1ab47a3a7900e06b56a92&#45;&gt;dir_5db6616082cde53441490dccc55cf8fe</title>
<path fill="none" stroke="black" d="M442.18,-71.6966C434.43,-63.2198 424.961,-52.8636 416.476,-43.5826"/>
<polygon fill="black" stroke="black" points="418.969,-41.1229 409.638,-36.1043 413.803,-45.8464 418.969,-41.1229"/>
<g id="a_edge29&#45;headlabel"><a xlink:href="dir_000002_000015.html" target="_top" xlink:title="19">
<text text-anchor="middle" x="423.49" y="-39.96" font-family="Helvetica,sans-Serif" font-size="8.00">19</text>
</a>
</g>
</g>
<!-- dir_92cfbc6e622f58864485a0138174a950&#45;&gt;dir_c2aa2cb4e0c986d55db329a86184b083 -->
<g id="edge30" class="edge"><title>dir_92cfbc6e622f58864485a0138174a950&#45;&gt;dir_c2aa2cb4e0c986d55db329a86184b083</title>
<path fill="none" stroke="black" d="M601.583,-224.833C561.794,-212.981 487.565,-190.87 439.498,-176.552"/>
<polygon fill="black" stroke="black" points="440.243,-173.122 429.66,-173.622 438.244,-179.831 440.243,-173.122"/>
<g id="a_edge30&#45;headlabel"><a xlink:href="dir_000008_000006.html" target="_top" xlink:title="12">
<text text-anchor="middle" x="444.498" y="-169.527" font-family="Helvetica,sans-Serif" font-size="8.00">12</text>
</a>
</g>
</g>
<!-- dir_92cfbc6e622f58864485a0138174a950&#45;&gt;dir_5db6616082cde53441490dccc55cf8fe -->
<g id="edge31" class="edge"><title>dir_92cfbc6e622f58864485a0138174a950&#45;&gt;dir_5db6616082cde53441490dccc55cf8fe</title>
<path fill="none" stroke="black" d="M629.862,-215.761C630.509,-183.05 627.021,-111.703 588,-72 547.557,-30.8498 478.489,-20.7412 434.604,-18.7454"/>
<polygon fill="black" stroke="black" points="434.674,-15.2459 424.563,-18.41 434.441,-22.242 434.674,-15.2459"/>
<g id="a_edge31&#45;headlabel"><a xlink:href="dir_000008_000015.html" target="_top" xlink:title="10">
<text text-anchor="middle" x="438.362" y="-10.6281" font-family="Helvetica,sans-Serif" font-size="8.00">10</text>
</a>
</g>
</g>
</g>
</svg>
