<?xml version="1.0" encoding="UTF-8" standalone="no"?>
<!DOCTYPE svg PUBLIC "-//W3C//DTD SVG 1.1//EN"
 "http://www.w3.org/Graphics/SVG/1.1/DTD/svg11.dtd">
<!-- Generated by graphviz version 2.38.0 (20140413.2041)
 -->
<!-- Title: Graphical Class Hierarchy Pages: 1 -->
<svg width="299pt" height="134pt"
 viewBox="0.00 0.00 299.00 134.00" xmlns="http://www.w3.org/2000/svg" xmlns:xlink="http://www.w3.org/1999/xlink">
<g id="graph0" class="graph" transform="scale(1 1) rotate(0) translate(4 130)">
<title>Graphical Class Hierarchy</title>
<!-- Node1 -->
<g id="node1" class="node"><title>Node1</title>
<g id="a_node1"><a xlink:href="dd/d6f/class_wilson_template.html" target="_top" xlink:title="WilsonTemplate\&lt; gslpp\l::matrix\&lt; double \&gt; \&gt;">
<polygon fill="none" stroke="black" points="0,-50 0,-76 100,-76 100,-50 0,-50"/>
<text text-anchor="start" x="8" y="-65.6" font-family="Helvetica,sans-Serif" font-size="8.00">WilsonTemplate&lt; gslpp</text>
<text text-anchor="middle" x="50" y="-56.6" font-family="Helvetica,sans-Serif" font-size="8.00">::matrix&lt; double &gt; &gt;</text>
</a>
</g>
</g>
<!-- Node2 -->
<g id="node2" class="node"><title>Node2</title>
<g id="a_node2"><a xlink:href="d9/d15/class_r_g_evolutor.html" target="_top" xlink:title="A class for the RG evolutor of the Wilson coefficients. ">
<polygon fill="none" stroke="black" points="136,-54.5 136,-71.5 194,-71.5 194,-54.5 136,-54.5"/>
<text text-anchor="middle" x="165" y="-61.1" font-family="Helvetica,sans-Serif" font-size="8.00">RGEvolutor</text>
</a>
</g>
</g>
<!-- Node1&#45;&gt;Node2 -->
<g id="edge1" class="edge"><title>Node1&#45;&gt;Node2</title>
<path fill="none" stroke="midnightblue" d="M110.243,-63C119.114,-63 127.895,-63 135.709,-63"/>
<polygon fill="midnightblue" stroke="midnightblue" points="110.235,-59.5001 100.235,-63 110.235,-66.5001 110.235,-59.5001"/>
</g>
<!-- Node3 -->
<g id="node3" class="node"><title>Node3</title>
<g id="a_node3"><a xlink:href="dd/d00/class_evol_bsmm.html" target="_top" xlink:title="EvolBsmm">
<polygon fill="none" stroke="black" points="233,-108.5 233,-125.5 288,-125.5 288,-108.5 233,-108.5"/>
<text text-anchor="middle" x="260.5" y="-115.1" font-family="Helvetica,sans-Serif" font-size="8.00">EvolBsmm</text>
</a>
</g>
</g>
<!-- Node2&#45;&gt;Node3 -->
<g id="edge2" class="edge"><title>Node2&#45;&gt;Node3</title>
<path fill="none" stroke="midnightblue" d="M189.934,-76.8226C207.139,-86.7593 229.806,-99.8508 244.515,-108.345"/>
<polygon fill="midnightblue" stroke="midnightblue" points="191.432,-73.6465 181.022,-71.676 187.931,-79.7082 191.432,-73.6465"/>
</g>
<!-- Node4 -->
<g id="node4" class="node"><title>Node4</title>
<g id="a_node4"><a xlink:href="dc/d99/class_evol_d_b1bsg.html" target="_top" xlink:title="EvolDB1bsg">
<polygon fill="none" stroke="black" points="230,-72.5 230,-89.5 291,-89.5 291,-72.5 230,-72.5"/>
<text text-anchor="middle" x="260.5" y="-79.1" font-family="Helvetica,sans-Serif" font-size="8.00">EvolDB1bsg</text>
</a>
</g>
</g>
<!-- Node2&#45;&gt;Node4 -->
<g id="edge3" class="edge"><title>Node2&#45;&gt;Node4</title>
<path fill="none" stroke="midnightblue" d="M203.924,-70.3009C212.559,-71.9631 221.61,-73.7057 229.842,-75.2904"/>
<polygon fill="midnightblue" stroke="midnightblue" points="204.534,-66.8542 194.053,-68.4006 203.211,-73.728 204.534,-66.8542"/>
</g>
<!-- Node5 -->
<g id="node5" class="node"><title>Node5</title>
<g id="a_node5"><a xlink:href="de/def/class_evol_d_b1_mll.html" target="_top" xlink:title="EvolDB1Mll">
<polygon fill="none" stroke="black" points="231.5,-36.5 231.5,-53.5 289.5,-53.5 289.5,-36.5 231.5,-36.5"/>
<text text-anchor="middle" x="260.5" y="-43.1" font-family="Helvetica,sans-Serif" font-size="8.00">EvolDB1Mll</text>
</a>
</g>
</g>
<!-- Node2&#45;&gt;Node5 -->
<g id="edge4" class="edge"><title>Node2&#45;&gt;Node5</title>
<path fill="none" stroke="midnightblue" d="M204.112,-55.663C213.262,-53.9014 222.87,-52.0517 231.467,-50.3968"/>
<polygon fill="midnightblue" stroke="midnightblue" points="203.211,-52.272 194.053,-57.5994 204.534,-59.1458 203.211,-52.272"/>
</g>
<!-- Node6 -->
<g id="node6" class="node"><title>Node6</title>
<g id="a_node6"><a xlink:href="d6/d86/class_evol_d_f2.html" target="_top" xlink:title="EvolDF2">
<polygon fill="none" stroke="black" points="237,-0.5 237,-17.5 284,-17.5 284,-0.5 237,-0.5"/>
<text text-anchor="middle" x="260.5" y="-7.1" font-family="Helvetica,sans-Serif" font-size="8.00">EvolDF2</text>
</a>
</g>
</g>
<!-- Node2&#45;&gt;Node6 -->
<g id="edge5" class="edge"><title>Node2&#45;&gt;Node6</title>
<path fill="none" stroke="midnightblue" d="M189.934,-49.1774C207.139,-39.2407 229.806,-26.1492 244.515,-17.6545"/>
<polygon fill="midnightblue" stroke="midnightblue" points="187.931,-46.2918 181.022,-54.324 191.432,-52.3535 187.931,-46.2918"/>
</g>
</g>
</svg>
