<?xml version="1.0" encoding="UTF-8" standalone="no"?>
<!DOCTYPE svg PUBLIC "-//W3C//DTD SVG 1.1//EN"
 "http://www.w3.org/Graphics/SVG/1.1/DTD/svg11.dtd">
<!-- Generated by graphviz version 2.38.0 (20140413.2041)
 -->
<!-- Title: Graphical Class Hierarchy Pages: 1 -->
<svg width="605pt" height="422pt"
 viewBox="0.00 0.00 605.00 422.00" xmlns="http://www.w3.org/2000/svg" xmlns:xlink="http://www.w3.org/1999/xlink">
<g id="graph0" class="graph" transform="scale(1 1) rotate(0) translate(4 418)">
<title>Graphical Class Hierarchy</title>
<!-- Node1 -->
<g id="node1" class="node"><title>Node1</title>
<g id="a_node1"><a xlink:href="d0/de3/class_model.html" target="_top" xlink:title="A class for the template of models. ">
<polygon fill="none" stroke="black" points="0,-180.5 0,-197.5 38,-197.5 38,-180.5 0,-180.5"/>
<text text-anchor="middle" x="19" y="-187.1" font-family="Helvetica,sans-Serif" font-size="8.00">Model</text>
</a>
</g>
</g>
<!-- Node2 -->
<g id="node2" class="node"><title>Node2</title>
<g id="a_node2"><a xlink:href="dd/dfa/class_q_c_d.html" target="_top" xlink:title="A class for parameters related to QCD, hadrons and quarks. ">
<polygon fill="none" stroke="black" points="74,-180.5 74,-197.5 108,-197.5 108,-180.5 74,-180.5"/>
<text text-anchor="middle" x="91" y="-187.1" font-family="Helvetica,sans-Serif" font-size="8.00">QCD</text>
</a>
</g>
</g>
<!-- Node1&#45;&gt;Node2 -->
<g id="edge1" class="edge"><title>Node1&#45;&gt;Node2</title>
<path fill="none" stroke="midnightblue" d="M48.1729,-189C56.8518,-189 66.1133,-189 73.7095,-189"/>
<polygon fill="midnightblue" stroke="midnightblue" points="48.0268,-185.5 38.0267,-189 48.0267,-192.5 48.0268,-185.5"/>
</g>
<!-- Node3 -->
<g id="node3" class="node"><title>Node3</title>
<g id="a_node3"><a xlink:href="dc/dd5/class_standard_model.html" target="_top" xlink:title="A model class for the Standard Model. ">
<polygon fill="none" stroke="black" points="144,-180.5 144,-197.5 215,-197.5 215,-180.5 144,-180.5"/>
<text text-anchor="middle" x="179.5" y="-187.1" font-family="Helvetica,sans-Serif" font-size="8.00">StandardModel</text>
</a>
</g>
</g>
<!-- Node2&#45;&gt;Node3 -->
<g id="edge2" class="edge"><title>Node2&#45;&gt;Node3</title>
<path fill="none" stroke="midnightblue" d="M118.439,-189C126.398,-189 135.256,-189 143.672,-189"/>
<polygon fill="midnightblue" stroke="midnightblue" points="118.27,-185.5 108.27,-189 118.27,-192.5 118.27,-185.5"/>
</g>
<!-- Node4 -->
<g id="node4" class="node"><title>Node4</title>
<g id="a_node4"><a xlink:href="d6/d75/class_flavour_wilson_coefficient.html" target="_top" xlink:title="Model for NP contributions to flavour. ">
<polygon fill="none" stroke="black" points="251,-270.5 251,-287.5 356,-287.5 356,-270.5 251,-270.5"/>
<text text-anchor="middle" x="303.5" y="-277.1" font-family="Helvetica,sans-Serif" font-size="8.00">FlavourWilsonCoefficient</text>
</a>
</g>
</g>
<!-- Node3&#45;&gt;Node4 -->
<g id="edge3" class="edge"><title>Node3&#45;&gt;Node4</title>
<path fill="none" stroke="midnightblue" d="M193.175,-205.866C206.114,-222.034 227.578,-246.116 251,-261 256.995,-264.81 263.898,-267.932 270.662,-270.443"/>
<polygon fill="midnightblue" stroke="midnightblue" points="195.808,-203.551 186.904,-197.808 190.283,-207.849 195.808,-203.551"/>
</g>
<!-- Node5 -->
<g id="node5" class="node"><title>Node5</title>
<g id="a_node5"><a xlink:href="dc/d20/classmy_model.html" target="_top" xlink:title="My own Model. ">
<polygon fill="none" stroke="black" points="279,-234.5 279,-251.5 328,-251.5 328,-234.5 279,-234.5"/>
<text text-anchor="middle" x="303.5" y="-241.1" font-family="Helvetica,sans-Serif" font-size="8.00">myModel</text>
</a>
</g>
</g>
<!-- Node3&#45;&gt;Node5 -->
<g id="edge4" class="edge"><title>Node3&#45;&gt;Node5</title>
<path fill="none" stroke="midnightblue" d="M204.93,-202.512C218.323,-209.653 235.342,-218.302 251,-225 259.969,-228.837 270.058,-232.5 278.913,-235.508"/>
<polygon fill="midnightblue" stroke="midnightblue" points="206.352,-199.302 195.89,-197.627 203.024,-205.46 206.352,-199.302"/>
</g>
<!-- Node6 -->
<g id="node6" class="node"><title>Node6</title>
<g id="a_node6"><a xlink:href="d2/df3/class_n_pbase.html" target="_top" xlink:title="The auxiliary base model class for other model classes. ">
<polygon fill="none" stroke="black" points="281,-198.5 281,-215.5 326,-215.5 326,-198.5 281,-198.5"/>
<text text-anchor="middle" x="303.5" y="-205.1" font-family="Helvetica,sans-Serif" font-size="8.00">NPbase</text>
</a>
</g>
</g>
<!-- Node3&#45;&gt;Node6 -->
<g id="edge5" class="edge"><title>Node3&#45;&gt;Node6</title>
<path fill="none" stroke="midnightblue" d="M225.11,-195.582C244.111,-198.385 265.404,-201.527 280.838,-203.804"/>
<polygon fill="midnightblue" stroke="midnightblue" points="225.538,-192.107 215.134,-194.11 224.516,-199.032 225.538,-192.107"/>
</g>
<!-- Node19 -->
<g id="node19" class="node"><title>Node19</title>
<g id="a_node19"><a xlink:href="dc/d6f/class_s_u_s_y.html" target="_top" xlink:title="A base class for SUSY models. ">
<polygon fill="none" stroke="black" points="284.5,-162.5 284.5,-179.5 322.5,-179.5 322.5,-162.5 284.5,-162.5"/>
<text text-anchor="middle" x="303.5" y="-169.1" font-family="Helvetica,sans-Serif" font-size="8.00">SUSY</text>
</a>
</g>
</g>
<!-- Node3&#45;&gt;Node19 -->
<g id="edge18" class="edge"><title>Node3&#45;&gt;Node19</title>
<path fill="none" stroke="midnightblue" d="M225.232,-182.4C245.698,-179.381 268.799,-175.972 284.367,-173.675"/>
<polygon fill="midnightblue" stroke="midnightblue" points="224.516,-178.968 215.134,-183.89 225.538,-185.893 224.516,-178.968"/>
</g>
<!-- Node21 -->
<g id="node21" class="node"><title>Node21</title>
<g id="a_node21"><a xlink:href="d9/d3b/class_s_u_s_y_mass_insertion.html" target="_top" xlink:title="SUSYMassInsertion">
<polygon fill="none" stroke="black" points="259.5,-126.5 259.5,-143.5 347.5,-143.5 347.5,-126.5 259.5,-126.5"/>
<text text-anchor="middle" x="303.5" y="-133.1" font-family="Helvetica,sans-Serif" font-size="8.00">SUSYMassInsertion</text>
</a>
</g>
</g>
<!-- Node3&#45;&gt;Node21 -->
<g id="edge20" class="edge"><title>Node3&#45;&gt;Node21</title>
<path fill="none" stroke="midnightblue" d="M204.93,-175.488C218.323,-168.347 235.342,-159.698 251,-153 258.924,-149.61 267.723,-146.356 275.772,-143.569"/>
<polygon fill="midnightblue" stroke="midnightblue" points="203.024,-172.54 195.89,-180.373 206.352,-178.698 203.024,-172.54"/>
</g>
<!-- Node22 -->
<g id="node22" class="node"><title>Node22</title>
<g id="a_node22"><a xlink:href="d0/d52/class_t_h_d_m.html" target="_top" xlink:title="A base class &#160;symmetric Two&#45;Higgs&#45;Doublet models. ">
<polygon fill="none" stroke="black" points="283.5,-90.5 283.5,-107.5 323.5,-107.5 323.5,-90.5 283.5,-90.5"/>
<text text-anchor="middle" x="303.5" y="-97.1" font-family="Helvetica,sans-Serif" font-size="8.00">THDM</text>
</a>
</g>
</g>
<!-- Node3&#45;&gt;Node22 -->
<g id="edge21" class="edge"><title>Node3&#45;&gt;Node22</title>
<path fill="none" stroke="midnightblue" d="M193.175,-172.134C206.114,-155.966 227.578,-131.884 251,-117 260.912,-110.701 273.305,-106.281 283.45,-103.398"/>
<polygon fill="midnightblue" stroke="midnightblue" points="190.283,-170.151 186.904,-180.192 195.808,-174.449 190.283,-170.151"/>
</g>
<!-- Node7 -->
<g id="node7" class="node"><title>Node7</title>
<g id="a_node7"><a xlink:href="d6/dfa/class_higgs_kvgen_kf.html" target="_top" xlink:title="A model class extending the StandardModel Higgs sector with four couplings. ">
<polygon fill="none" stroke="black" points="403.5,-396.5 403.5,-413.5 470.5,-413.5 470.5,-396.5 403.5,-396.5"/>
<text text-anchor="middle" x="437" y="-403.1" font-family="Helvetica,sans-Serif" font-size="8.00">HiggsKvgenKf</text>
</a>
</g>
</g>
<!-- Node6&#45;&gt;Node7 -->
<g id="edge6" class="edge"><title>Node6&#45;&gt;Node7</title>
<path fill="none" stroke="midnightblue" d="M335.811,-212.392C343.33,-215.059 350.706,-219.044 356,-225 404.999,-280.128 344.453,-330.615 392,-387 395.299,-390.912 399.581,-393.985 404.176,-396.396"/>
<polygon fill="midnightblue" stroke="midnightblue" points="336.585,-208.973 326.008,-209.591 334.662,-215.704 336.585,-208.973"/>
</g>
<!-- Node8 -->
<g id="node8" class="node"><title>Node8</title>
<g id="a_node8"><a xlink:href="d4/dc1/class_higgs_kv_kf.html" target="_top" xlink:title="A model class extending the StandardModel Higgs sector with three universal couplings. ">
<polygon fill="none" stroke="black" points="410,-360.5 410,-377.5 464,-377.5 464,-360.5 410,-360.5"/>
<text text-anchor="middle" x="437" y="-367.1" font-family="Helvetica,sans-Serif" font-size="8.00">HiggsKvKf</text>
</a>
</g>
</g>
<!-- Node6&#45;&gt;Node8 -->
<g id="edge7" class="edge"><title>Node6&#45;&gt;Node8</title>
<path fill="none" stroke="midnightblue" d="M335.76,-212.675C343.217,-215.339 350.576,-219.252 356,-225 395.972,-267.358 353.144,-307.615 392,-351 396.735,-356.287 403.255,-360.054 409.825,-362.724"/>
<polygon fill="midnightblue" stroke="midnightblue" points="336.636,-209.285 326.056,-209.844 334.676,-216.005 336.636,-209.285"/>
</g>
<!-- Node9 -->
<g id="node9" class="node"><title>Node9</title>
<g id="a_node9"><a xlink:href="d2/d27/class_higgs_kv_kfgen.html" target="_top" xlink:title="A model class extending the StandardModel Higgs sector with five flavour&#45;universal couplings...">
<polygon fill="none" stroke="black" points="403.5,-324.5 403.5,-341.5 470.5,-341.5 470.5,-324.5 403.5,-324.5"/>
<text text-anchor="middle" x="437" y="-331.1" font-family="Helvetica,sans-Serif" font-size="8.00">HiggsKvKfgen</text>
</a>
</g>
</g>
<!-- Node6&#45;&gt;Node9 -->
<g id="edge8" class="edge"><title>Node6&#45;&gt;Node9</title>
<path fill="none" stroke="midnightblue" d="M335.99,-213.287C343.243,-215.936 350.448,-219.688 356,-225 387.13,-254.781 361.656,-284.418 392,-315 395.837,-318.867 400.62,-321.936 405.606,-324.362"/>
<polygon fill="midnightblue" stroke="midnightblue" points="336.807,-209.877 326.221,-210.317 334.771,-216.575 336.807,-209.877"/>
</g>
<!-- Node10 -->
<g id="node10" class="node"><title>Node10</title>
<g id="a_node10"><a xlink:href="db/d75/class_n_p_effective_b_s.html" target="_top" xlink:title="A model class for new physics in the form the dimension&#45;six effective Lagrangian in the basis of Barb...">
<polygon fill="none" stroke="black" points="402.5,-288.5 402.5,-305.5 471.5,-305.5 471.5,-288.5 402.5,-288.5"/>
<text text-anchor="middle" x="437" y="-295.1" font-family="Helvetica,sans-Serif" font-size="8.00">NPEffectiveBS</text>
</a>
</g>
</g>
<!-- Node6&#45;&gt;Node10 -->
<g id="edge9" class="edge"><title>Node6&#45;&gt;Node10</title>
<path fill="none" stroke="midnightblue" d="M335.632,-214.266C342.783,-216.88 350.031,-220.372 356,-225 378.795,-242.674 369.672,-260.738 392,-279 396.6,-282.762 402.093,-285.832 407.612,-288.301"/>
<polygon fill="midnightblue" stroke="midnightblue" points="336.661,-210.921 326.07,-211.222 334.537,-217.591 336.661,-210.921"/>
</g>
<!-- Node11 -->
<g id="node11" class="node"><title>Node11</title>
<g id="a_node11"><a xlink:href="de/d04/class_n_p_effective_g_i_m_r.html" target="_top" xlink:title="A model class for new physics in the form of the dimension&#45;six effective Lagrangian. ">
<polygon fill="none" stroke="black" points="397.5,-252.5 397.5,-269.5 476.5,-269.5 476.5,-252.5 397.5,-252.5"/>
<text text-anchor="middle" x="437" y="-259.1" font-family="Helvetica,sans-Serif" font-size="8.00">NPEffectiveGIMR</text>
</a>
</g>
</g>
<!-- Node6&#45;&gt;Node11 -->
<g id="edge10" class="edge"><title>Node6&#45;&gt;Node11</title>
<path fill="none" stroke="midnightblue" d="M335.632,-217.163C342.408,-219.574 349.494,-222.25 356,-225 372.477,-231.965 375.71,-235.608 392,-243 399.065,-246.206 406.874,-249.484 413.928,-252.35"/>
<polygon fill="midnightblue" stroke="midnightblue" points="336.625,-213.803 326.03,-213.843 334.337,-220.419 336.625,-213.803"/>
</g>
<!-- Node12 -->
<g id="node12" class="node"><title>Node12</title>
<g id="a_node12"><a xlink:href="d1/d57/class_n_p_epsilons.html" target="_top" xlink:title="A model class for new physics in the form of contributions to the &#160;parameters. ">
<polygon fill="none" stroke="black" points="408,-216.5 408,-233.5 466,-233.5 466,-216.5 408,-216.5"/>
<text text-anchor="middle" x="437" y="-223.1" font-family="Helvetica,sans-Serif" font-size="8.00">NPEpsilons</text>
</a>
</g>
</g>
<!-- Node6&#45;&gt;Node12 -->
<g id="edge11" class="edge"><title>Node6&#45;&gt;Node12</title>
<path fill="none" stroke="midnightblue" d="M336.311,-211.354C358.134,-214.341 386.828,-218.269 407.825,-221.143"/>
<polygon fill="midnightblue" stroke="midnightblue" points="336.597,-207.861 326.215,-209.972 335.647,-214.796 336.597,-207.861"/>
</g>
<!-- Node13 -->
<g id="node13" class="node"><title>Node13</title>
<g id="a_node13"><a xlink:href="d0/dc8/class_n_p_epsilons__pure_n_p.html" target="_top" xlink:title="A model class for new physics in the form of contributions to the &#160;parameters. ">
<polygon fill="none" stroke="black" points="392.5,-180.5 392.5,-197.5 481.5,-197.5 481.5,-180.5 392.5,-180.5"/>
<text text-anchor="middle" x="437" y="-187.1" font-family="Helvetica,sans-Serif" font-size="8.00">NPEpsilons_pureNP</text>
</a>
</g>
</g>
<!-- Node6&#45;&gt;Node13 -->
<g id="edge12" class="edge"><title>Node6&#45;&gt;Node13</title>
<path fill="none" stroke="midnightblue" d="M336.125,-202.671C353,-200.361 374.024,-197.483 392.424,-194.965"/>
<polygon fill="midnightblue" stroke="midnightblue" points="335.647,-199.204 326.215,-204.028 336.597,-206.139 335.647,-199.204"/>
</g>
<!-- Node14 -->
<g id="node14" class="node"><title>Node14</title>
<g id="a_node14"><a xlink:href="db/db3/class_n_p_higgs.html" target="_top" xlink:title="A model class for new physics in the form of an electroweak chiral Lagrangian with a light Higgs&#45;like...">
<polygon fill="none" stroke="black" points="413,-144.5 413,-161.5 461,-161.5 461,-144.5 413,-144.5"/>
<text text-anchor="middle" x="437" y="-151.1" font-family="Helvetica,sans-Serif" font-size="8.00">NPHiggs</text>
</a>
</g>
</g>
<!-- Node6&#45;&gt;Node14 -->
<g id="edge13" class="edge"><title>Node6&#45;&gt;Node14</title>
<path fill="none" stroke="midnightblue" d="M335.632,-196.837C342.408,-194.426 349.494,-191.75 356,-189 372.477,-182.035 375.71,-178.392 392,-171 399.065,-167.794 406.874,-164.516 413.928,-161.65"/>
<polygon fill="midnightblue" stroke="midnightblue" points="334.337,-193.581 326.03,-200.157 336.625,-200.197 334.337,-193.581"/>
</g>
<!-- Node15 -->
<g id="node15" class="node"><title>Node15</title>
<g id="a_node15"><a xlink:href="d9/dad/class_n_p_s_t_u.html" target="_top" xlink:title="A model class for new physics in the form of contributions to the oblique parameters &#160;and ...">
<polygon fill="none" stroke="black" points="415,-108.5 415,-125.5 459,-125.5 459,-108.5 415,-108.5"/>
<text text-anchor="middle" x="437" y="-115.1" font-family="Helvetica,sans-Serif" font-size="8.00">NPSTU</text>
</a>
</g>
</g>
<!-- Node6&#45;&gt;Node15 -->
<g id="edge14" class="edge"><title>Node6&#45;&gt;Node15</title>
<path fill="none" stroke="midnightblue" d="M335.632,-199.734C342.783,-197.12 350.031,-193.628 356,-189 378.795,-171.326 369.672,-153.262 392,-135 398.644,-129.566 407.152,-125.576 414.912,-122.754"/>
<polygon fill="midnightblue" stroke="midnightblue" points="334.537,-196.409 326.07,-202.778 336.661,-203.079 334.537,-196.409"/>
</g>
<!-- Node17 -->
<g id="node17" class="node"><title>Node17</title>
<g id="a_node17"><a xlink:href="dc/def/class_n_p_zbbbar.html" target="_top" xlink:title="A model class for new physics in the form of contributions to the &#160;couplings. ">
<polygon fill="none" stroke="black" points="410.5,-72.5 410.5,-89.5 463.5,-89.5 463.5,-72.5 410.5,-72.5"/>
<text text-anchor="middle" x="437" y="-79.1" font-family="Helvetica,sans-Serif" font-size="8.00">NPZbbbar</text>
</a>
</g>
</g>
<!-- Node6&#45;&gt;Node17 -->
<g id="edge16" class="edge"><title>Node6&#45;&gt;Node17</title>
<path fill="none" stroke="midnightblue" d="M335.99,-200.713C343.243,-198.064 350.448,-194.312 356,-189 387.13,-159.219 361.656,-129.582 392,-99 396.999,-93.9615 403.605,-90.2768 410.174,-87.605"/>
<polygon fill="midnightblue" stroke="midnightblue" points="334.771,-197.425 326.221,-203.683 336.807,-204.123 334.771,-197.425"/>
</g>
<!-- Node18 -->
<g id="node18" class="node"><title>Node18</title>
<g id="a_node18"><a xlink:href="d4/d22/class_n_p_zbbbar_linearized.html" target="_top" xlink:title="A model class for new physics in the form of contributions to the &#160;couplings. ">
<polygon fill="none" stroke="black" points="392,-36.5 392,-53.5 482,-53.5 482,-36.5 392,-36.5"/>
<text text-anchor="middle" x="437" y="-43.1" font-family="Helvetica,sans-Serif" font-size="8.00">NPZbbbarLinearized</text>
</a>
</g>
</g>
<!-- Node6&#45;&gt;Node18 -->
<g id="edge17" class="edge"><title>Node6&#45;&gt;Node18</title>
<path fill="none" stroke="midnightblue" d="M335.76,-201.325C343.217,-198.661 350.576,-194.748 356,-189 395.972,-146.642 353.144,-106.385 392,-63 395.524,-59.0652 400.036,-55.9729 404.822,-53.5476"/>
<polygon fill="midnightblue" stroke="midnightblue" points="334.676,-197.995 326.056,-204.156 336.636,-204.715 334.676,-197.995"/>
</g>
<!-- Node16 -->
<g id="node16" class="node"><title>Node16</title>
<g id="a_node16"><a xlink:href="d4/dac/class_n_p_s_t_u_zbbbar_l_r.html" target="_top" xlink:title="A model class for new physics in the form of oblique and &#45;vertex corrections. ">
<polygon fill="none" stroke="black" points="518,-108.5 518,-125.5 597,-125.5 597,-108.5 518,-108.5"/>
<text text-anchor="middle" x="557.5" y="-115.1" font-family="Helvetica,sans-Serif" font-size="8.00">NPSTUZbbbarLR</text>
</a>
</g>
</g>
<!-- Node15&#45;&gt;Node16 -->
<g id="edge15" class="edge"><title>Node15&#45;&gt;Node16</title>
<path fill="none" stroke="midnightblue" d="M469.386,-117C484.231,-117 502.097,-117 517.776,-117"/>
<polygon fill="midnightblue" stroke="midnightblue" points="469.185,-113.5 459.185,-117 469.185,-120.5 469.185,-113.5"/>
</g>
<!-- Node20 -->
<g id="node20" class="node"><title>Node20</title>
<g id="a_node20"><a xlink:href="d5/dfb/class_general_s_u_s_y.html" target="_top" xlink:title="A class for the general MSSM. ">
<polygon fill="none" stroke="black" points="403.5,-0.5 403.5,-17.5 470.5,-17.5 470.5,-0.5 403.5,-0.5"/>
<text text-anchor="middle" x="437" y="-7.1" font-family="Helvetica,sans-Serif" font-size="8.00">GeneralSUSY</text>
</a>
</g>
</g>
<!-- Node19&#45;&gt;Node20 -->
<g id="edge19" class="edge"><title>Node19&#45;&gt;Node20</title>
<path fill="none" stroke="midnightblue" d="M332.308,-166.471C340.9,-163.825 349.739,-159.634 356,-153 395.972,-110.642 353.144,-70.3845 392,-27 395.524,-23.0652 400.036,-19.9729 404.822,-17.5476"/>
<polygon fill="midnightblue" stroke="midnightblue" points="331.358,-163.1 322.506,-168.921 333.056,-169.891 331.358,-163.1"/>
</g>
</g>
</svg>
