<?xml version="1.0" encoding="UTF-8" standalone="no"?>
<!DOCTYPE svg PUBLIC "-//W3C//DTD SVG 1.1//EN"
 "http://www.w3.org/Graphics/SVG/1.1/DTD/svg11.dtd">
<!-- Generated by graphviz version 2.40.1 (20161225.0304)
 -->
<!-- Title: GeneralTHDMstability.h Pages: 1 -->
<svg width="256pt" height="134pt"
 viewBox="0.00 0.00 256.00 134.00" xmlns="http://www.w3.org/2000/svg" xmlns:xlink="http://www.w3.org/1999/xlink">
<g id="graph0" class="graph" transform="scale(1 1) rotate(0) translate(4 130)">
<title>GeneralTHDMstability.h</title>
<!-- Node59 -->
<g id="node1" class="node">
<title>Node59</title>
<polygon fill="#bfbfbf" stroke="#000000" points="75.5,-108.5 75.5,-125.5 176.5,-125.5 176.5,-108.5 75.5,-108.5"/>
<text text-anchor="middle" x="126" y="-115.1" font-family="Helvetica,sans-Serif" font-size="8.00" fill="#000000">GeneralTHDMstability.h</text>
</g>
<!-- Node60 -->
<g id="node2" class="node">
<title>Node60</title>
<g id="a_node2"><a xlink:href="../../d4/d31/_general_t_h_d_m_observables_8h.html" target="_top" xlink:title="GeneralTHDMObservables.h">
<polygon fill="none" stroke="#000000" points="0,-54.5 0,-71.5 120,-71.5 120,-54.5 0,-54.5"/>
<text text-anchor="middle" x="60" y="-61.1" font-family="Helvetica,sans-Serif" font-size="8.00" fill="#000000">GeneralTHDMObservables.h</text>
</a>
</g>
</g>
<!-- Node59&#45;&gt;Node60 -->
<g id="edge1" class="edge">
<title>Node59&#45;&gt;Node60</title>
<path fill="none" stroke="#191970" d="M107.4463,-101.8197C95.6219,-92.1452 80.7144,-79.9481 70.797,-71.8339"/>
<polygon fill="#191970" stroke="#191970" points="105.44,-104.7004 115.396,-108.324 109.8727,-99.2827 105.44,-104.7004"/>
</g>
<!-- Node62 -->
<g id="node4" class="node">
<title>Node62</title>
<g id="a_node4"><a xlink:href="../../d9/db3/_general_t_h_d_mstability_8cpp.html" target="_top" xlink:title="GeneralTHDMstability.cpp">
<polygon fill="none" stroke="#000000" points="138,-54.5 138,-71.5 248,-71.5 248,-54.5 138,-54.5"/>
<text text-anchor="middle" x="193" y="-61.1" font-family="Helvetica,sans-Serif" font-size="8.00" fill="#000000">GeneralTHDMstability.cpp</text>
</a>
</g>
</g>
<!-- Node59&#45;&gt;Node62 -->
<g id="edge3" class="edge">
<title>Node59&#45;&gt;Node62</title>
<path fill="none" stroke="#191970" d="M144.8348,-101.8197C156.8384,-92.1452 171.9717,-79.9481 182.0394,-71.8339"/>
<polygon fill="#191970" stroke="#191970" points="142.3543,-99.3236 136.7647,-108.324 146.747,-104.7738 142.3543,-99.3236"/>
</g>
<!-- Node61 -->
<g id="node3" class="node">
<title>Node61</title>
<g id="a_node3"><a xlink:href="../../d1/de2/_th_obs_factory_8cpp.html" target="_top" xlink:title="ThObsFactory.cpp">
<polygon fill="none" stroke="#000000" points="19,-.5 19,-17.5 101,-17.5 101,-.5 19,-.5"/>
<text text-anchor="middle" x="60" y="-7.1" font-family="Helvetica,sans-Serif" font-size="8.00" fill="#000000">ThObsFactory.cpp</text>
</a>
</g>
</g>
<!-- Node60&#45;&gt;Node61 -->
<g id="edge2" class="edge">
<title>Node60&#45;&gt;Node61</title>
<path fill="none" stroke="#191970" d="M60,-43.8045C60,-34.9102 60,-24.7798 60,-17.7511"/>
<polygon fill="#191970" stroke="#191970" points="56.5001,-44.083 60,-54.083 63.5001,-44.083 56.5001,-44.083"/>
</g>
</g>
</svg>
