<?xml version="1.0" encoding="UTF-8" standalone="no"?>
<!DOCTYPE svg PUBLIC "-//W3C//DTD SVG 1.1//EN"
 "http://www.w3.org/Graphics/SVG/1.1/DTD/svg11.dtd">
<!-- Generated by graphviz version 2.38.0 (20140413.2041)
 -->
<!-- Title: MVll.cpp Pages: 1 -->
<svg width="566pt" height="134pt"
 viewBox="0.00 0.00 565.50 134.00" xmlns="http://www.w3.org/2000/svg" xmlns:xlink="http://www.w3.org/1999/xlink">
<g id="graph0" class="graph" transform="scale(1 1) rotate(0) translate(4 130)">
<title>MVll.cpp</title>
<!-- Node1 -->
<g id="node1" class="node"><title>Node1</title>
<polygon fill="#bfbfbf" stroke="black" points="287,-108.5 287,-125.5 334,-125.5 334,-108.5 287,-108.5"/>
<text text-anchor="middle" x="310.5" y="-115.1" font-family="Helvetica,sans-Serif" font-size="8.00">MVll.cpp</text>
</g>
<!-- Node2 -->
<g id="node2" class="node"><title>Node2</title>
<g id="a_node2"><a xlink:href="../../d2/d65/_flavour_8h.html" target="_top" xlink:title="Flavour.h">
<polygon fill="none" stroke="red" points="75.5,-54.5 75.5,-71.5 125.5,-71.5 125.5,-54.5 75.5,-54.5"/>
<text text-anchor="middle" x="100.5" y="-61.1" font-family="Helvetica,sans-Serif" font-size="8.00">Flavour.h</text>
</a>
</g>
</g>
<!-- Node1&#45;&gt;Node2 -->
<g id="edge1" class="edge"><title>Node1&#45;&gt;Node2</title>
<path fill="none" stroke="midnightblue" d="M286.819,-110.136C249.877,-100.989 178.334,-83.2731 135.452,-72.6547"/>
<polygon fill="midnightblue" stroke="midnightblue" points="136.271,-69.252 125.723,-70.2458 134.589,-76.0468 136.271,-69.252"/>
</g>
<!-- Node5 -->
<g id="node5" class="node"><title>Node5</title>
<g id="a_node5"><a xlink:href="../../d8/d37/_m_vll_8h.html" target="_top" xlink:title="MVll.h">
<polygon fill="none" stroke="red" points="142,-0.5 142,-17.5 181,-17.5 181,-0.5 142,-0.5"/>
<text text-anchor="middle" x="161.5" y="-7.1" font-family="Helvetica,sans-Serif" font-size="8.00">MVll.h</text>
</a>
</g>
</g>
<!-- Node1&#45;&gt;Node5 -->
<g id="edge5" class="edge"><title>Node1&#45;&gt;Node5</title>
<path fill="none" stroke="midnightblue" d="M286.934,-114.691C257.418,-111.767 207.24,-102.339 178.5,-72 167.226,-60.0989 163.293,-41.4455 161.988,-27.7053"/>
<polygon fill="midnightblue" stroke="midnightblue" points="165.474,-27.3582 161.407,-17.5751 158.485,-27.7593 165.474,-27.3582"/>
</g>
<!-- Node6 -->
<g id="node6" class="node"><title>Node6</title>
<g id="a_node6"><a xlink:href="../../d1/dc2/gslpp__complex_8h.html" target="_top" xlink:title="gslpp_complex.h">
<polygon fill="none" stroke="red" points="187,-54.5 187,-71.5 264,-71.5 264,-54.5 187,-54.5"/>
<text text-anchor="middle" x="225.5" y="-61.1" font-family="Helvetica,sans-Serif" font-size="8.00">gslpp_complex.h</text>
</a>
</g>
</g>
<!-- Node1&#45;&gt;Node6 -->
<g id="edge6" class="edge"><title>Node1&#45;&gt;Node6</title>
<path fill="none" stroke="midnightblue" d="M297.958,-108.327C284.447,-100.062 262.716,-86.7677 246.573,-76.8914"/>
<polygon fill="midnightblue" stroke="midnightblue" points="248.174,-73.7682 237.817,-71.5352 244.521,-79.7394 248.174,-73.7682"/>
</g>
<!-- Node7 -->
<g id="node7" class="node"><title>Node7</title>
<polygon fill="none" stroke="#bfbfbf" points="282,-54.5 282,-71.5 339,-71.5 339,-54.5 282,-54.5"/>
<text text-anchor="middle" x="310.5" y="-61.1" font-family="Helvetica,sans-Serif" font-size="8.00">gsl/gsl_sf.h</text>
</g>
<!-- Node1&#45;&gt;Node7 -->
<g id="edge7" class="edge"><title>Node1&#45;&gt;Node7</title>
<path fill="none" stroke="midnightblue" d="M310.5,-108.327C310.5,-101.414 310.5,-90.985 310.5,-81.9789"/>
<polygon fill="midnightblue" stroke="midnightblue" points="314,-81.7042 310.5,-71.7043 307,-81.7043 314,-81.7042"/>
</g>
<!-- Node8 -->
<g id="node8" class="node"><title>Node8</title>
<polygon fill="none" stroke="#bfbfbf" points="357,-54.5 357,-71.5 426,-71.5 426,-54.5 357,-54.5"/>
<text text-anchor="middle" x="391.5" y="-61.1" font-family="Helvetica,sans-Serif" font-size="8.00">boost/bind.hpp</text>
</g>
<!-- Node1&#45;&gt;Node8 -->
<g id="edge8" class="edge"><title>Node1&#45;&gt;Node8</title>
<path fill="none" stroke="midnightblue" d="M322.452,-108.327C335.207,-100.139 355.649,-87.0157 370.986,-77.1692"/>
<polygon fill="midnightblue" stroke="midnightblue" points="373.238,-79.8829 379.762,-71.5352 369.456,-73.9923 373.238,-79.8829"/>
</g>
<!-- Node9 -->
<g id="node9" class="node"><title>Node9</title>
<polygon fill="none" stroke="#bfbfbf" points="444,-54.5 444,-71.5 479,-71.5 479,-54.5 444,-54.5"/>
<text text-anchor="middle" x="461.5" y="-61.1" font-family="Helvetica,sans-Serif" font-size="8.00">limits</text>
</g>
<!-- Node1&#45;&gt;Node9 -->
<g id="edge9" class="edge"><title>Node1&#45;&gt;Node9</title>
<path fill="none" stroke="midnightblue" d="M332.457,-108.439C359.383,-99.1662 405.029,-83.4471 434.192,-73.4041"/>
<polygon fill="midnightblue" stroke="midnightblue" points="435.447,-76.6738 443.762,-70.1084 433.168,-70.0552 435.447,-76.6738"/>
</g>
<!-- Node10 -->
<g id="node10" class="node"><title>Node10</title>
<polygon fill="none" stroke="#bfbfbf" points="497.5,-54.5 497.5,-71.5 557.5,-71.5 557.5,-54.5 497.5,-54.5"/>
<text text-anchor="middle" x="527.5" y="-61.1" font-family="Helvetica,sans-Serif" font-size="8.00">TFitResult.h</text>
</g>
<!-- Node1&#45;&gt;Node10 -->
<g id="edge10" class="edge"><title>Node1&#45;&gt;Node10</title>
<path fill="none" stroke="midnightblue" d="M334.136,-110.336C370.925,-101.52 442.321,-84.4115 487.309,-73.6311"/>
<polygon fill="midnightblue" stroke="midnightblue" points="488.403,-76.9681 497.312,-71.234 486.772,-70.1608 488.403,-76.9681"/>
</g>
<!-- Node3 -->
<g id="node3" class="node"><title>Node3</title>
<g id="a_node3"><a xlink:href="../../dd/d03/_heff_d_f2_8h.html" target="_top" xlink:title="HeffDF2.h">
<polygon fill="none" stroke="red" points="0,-0.5 0,-17.5 53,-17.5 53,-0.5 0,-0.5"/>
<text text-anchor="middle" x="26.5" y="-7.1" font-family="Helvetica,sans-Serif" font-size="8.00">HeffDF2.h</text>
</a>
</g>
</g>
<!-- Node2&#45;&gt;Node3 -->
<g id="edge2" class="edge"><title>Node2&#45;&gt;Node3</title>
<path fill="none" stroke="midnightblue" d="M89.581,-54.3272C78.1041,-46.2624 59.8153,-33.4108 45.8785,-23.6173"/>
<polygon fill="midnightblue" stroke="midnightblue" points="47.658,-20.5901 37.4638,-17.7043 43.6334,-26.3174 47.658,-20.5901"/>
</g>
<!-- Node4 -->
<g id="node4" class="node"><title>Node4</title>
<g id="a_node4"><a xlink:href="../../d9/d29/_heff_d_b1_8h.html" target="_top" xlink:title="HeffDB1.h">
<polygon fill="none" stroke="red" points="71,-0.5 71,-17.5 124,-17.5 124,-0.5 71,-0.5"/>
<text text-anchor="middle" x="97.5" y="-7.1" font-family="Helvetica,sans-Serif" font-size="8.00">HeffDB1.h</text>
</a>
</g>
</g>
<!-- Node2&#45;&gt;Node4 -->
<g id="edge3" class="edge"><title>Node2&#45;&gt;Node4</title>
<path fill="none" stroke="midnightblue" d="M100.057,-54.3272C99.6585,-47.4145 99.0568,-36.985 98.5372,-27.9789"/>
<polygon fill="midnightblue" stroke="midnightblue" points="102.015,-27.486 97.9445,-17.7043 95.0263,-27.8893 102.015,-27.486"/>
</g>
<!-- Node2&#45;&gt;Node5 -->
<g id="edge4" class="edge"><title>Node2&#45;&gt;Node5</title>
<path fill="none" stroke="midnightblue" d="M109.501,-54.3272C118.691,-46.4928 133.18,-34.1412 144.533,-24.4641"/>
<polygon fill="midnightblue" stroke="midnightblue" points="147.123,-26.8552 152.462,-17.7043 142.582,-21.5281 147.123,-26.8552"/>
</g>
</g>
</svg>
