<?xml version="1.0" encoding="UTF-8" standalone="no"?>
<!DOCTYPE svg PUBLIC "-//W3C//DTD SVG 1.1//EN"
 "http://www.w3.org/Graphics/SVG/1.1/DTD/svg11.dtd">
<!-- Generated by graphviz version 2.40.1 (20161225.0304)
 -->
<!-- Title: LHPC::LHEF::PreselectorClass::LightLeptonPreselector Pages: 1 -->
<svg width="136pt" height="171pt"
 viewBox="0.00 0.00 136.00 171.00" xmlns="http://www.w3.org/2000/svg" xmlns:xlink="http://www.w3.org/1999/xlink">
<g id="graph0" class="graph" transform="scale(1 1) rotate(0) translate(4 167)">
<title>LHPC::LHEF::PreselectorClass::LightLeptonPreselector</title>
<!-- Node2 -->
<g id="node1" class="node">
<title>Node2</title>
<polygon fill="#bfbfbf" stroke="#000000" points="0,-.5 0,-26.5 128,-26.5 128,-.5 0,-.5"/>
<text text-anchor="start" x="8" y="-16.1" font-family="Helvetica,sans-Serif" font-size="8.00" fill="#000000">LHPC::LHEF::PreselectorClass</text>
<text text-anchor="middle" x="64" y="-7.1" font-family="Helvetica,sans-Serif" font-size="8.00" fill="#000000">::LightLeptonPreselector</text>
</g>
<!-- Node3 -->
<g id="node2" class="node">
<title>Node3</title>
<g id="a_node2"><a xlink:href="../../d5/d30/class_l_h_p_c_1_1_l_h_e_f_1_1_preselector_class_1_1_standard_preselector.html" target="_top" xlink:title="LHPC::LHEF::PreselectorClass\l::StandardPreselector">
<polygon fill="none" stroke="#000000" points="0,-64.5 0,-90.5 128,-90.5 128,-64.5 0,-64.5"/>
<text text-anchor="start" x="8" y="-80.1" font-family="Helvetica,sans-Serif" font-size="8.00" fill="#000000">LHPC::LHEF::PreselectorClass</text>
<text text-anchor="middle" x="64" y="-71.1" font-family="Helvetica,sans-Serif" font-size="8.00" fill="#000000">::StandardPreselector</text>
</a>
</g>
</g>
<!-- Node3&#45;&gt;Node2 -->
<g id="edge1" class="edge">
<title>Node3&#45;&gt;Node2</title>
<path fill="none" stroke="#191970" d="M64,-54.0946C64,-44.8785 64,-34.6352 64,-26.7439"/>
<polygon fill="#191970" stroke="#191970" points="60.5001,-54.2391 64,-64.2392 67.5001,-54.2392 60.5001,-54.2391"/>
</g>
<!-- Node4 -->
<g id="node3" class="node">
<title>Node4</title>
<g id="a_node3"><a xlink:href="../../da/dbc/class_l_h_p_c_1_1_l_h_e_f_1_1_automatic_event_filter.html" target="_top" xlink:title="LHPC::LHEF::AutomaticEvent\lFilter">
<polygon fill="none" stroke="#000000" points="2.5,-136.5 2.5,-162.5 125.5,-162.5 125.5,-136.5 2.5,-136.5"/>
<text text-anchor="start" x="10.5" y="-152.1" font-family="Helvetica,sans-Serif" font-size="8.00" fill="#000000">LHPC::LHEF::AutomaticEvent</text>
<text text-anchor="middle" x="64" y="-143.1" font-family="Helvetica,sans-Serif" font-size="8.00" fill="#000000">Filter</text>
</a>
</g>
</g>
<!-- Node4&#45;&gt;Node3 -->
<g id="edge2" class="edge">
<title>Node4&#45;&gt;Node3</title>
<path fill="none" stroke="#9a32cd" stroke-dasharray="5,2" d="M64,-126.2246C64,-114.431 64,-100.5463 64,-90.6222"/>
<polygon fill="#9a32cd" stroke="#9a32cd" points="60.5001,-126.2941 64,-136.2941 67.5001,-126.2941 60.5001,-126.2941"/>
<text text-anchor="middle" x="80.5" y="-111.6" font-family="Helvetica,sans-Serif" font-size="8.00" fill="#000000"> lineFilter</text>
</g>
</g>
</svg>
