<?xml version="1.0" encoding="UTF-8" standalone="no"?>
<!DOCTYPE svg PUBLIC "-//W3C//DTD SVG 1.1//EN"
 "http://www.w3.org/Graphics/SVG/1.1/DTD/svg11.dtd">
<!-- Generated by graphviz version 2.38.0 (20140413.2041)
 -->
<!-- Title: li_lj_gamma.h Pages: 1 -->
<svg width="220pt" height="134pt"
 viewBox="0.00 0.00 219.50 134.00" xmlns="http://www.w3.org/2000/svg" xmlns:xlink="http://www.w3.org/1999/xlink">
<g id="graph0" class="graph" transform="scale(1 1) rotate(0) translate(4 130)">
<title>li_lj_gamma.h</title>
<!-- Node1 -->
<g id="node1" class="node"><title>Node1</title>
<polygon fill="#bfbfbf" stroke="black" points="83.5,-108.5 83.5,-125.5 149.5,-125.5 149.5,-108.5 83.5,-108.5"/>
<text text-anchor="middle" x="116.5" y="-115.1" font-family="Helvetica,sans-Serif" font-size="8.00">li_lj_gamma.h</text>
</g>
<!-- Node2 -->
<g id="node2" class="node"><title>Node2</title>
<g id="a_node2"><a xlink:href="../../d5/db9/_lepton_flavour_observables_8h.html" target="_top" xlink:title="LeptonFlavourObservables.h">
<polygon fill="none" stroke="black" points="0,-54.5 0,-71.5 119,-71.5 119,-54.5 0,-54.5"/>
<text text-anchor="middle" x="59.5" y="-61.1" font-family="Helvetica,sans-Serif" font-size="8.00">LeptonFlavourObservables.h</text>
</a>
</g>
</g>
<!-- Node1&#45;&gt;Node2 -->
<g id="edge1" class="edge"><title>Node1&#45;&gt;Node2</title>
<path fill="none" stroke="midnightblue" d="M100.688,-101.575C90.0879,-91.9048 76.546,-79.5508 67.9451,-71.7043"/>
<polygon fill="midnightblue" stroke="midnightblue" points="98.3429,-104.173 108.089,-108.327 103.061,-99.0019 98.3429,-104.173"/>
</g>
<!-- Node4 -->
<g id="node4" class="node"><title>Node4</title>
<g id="a_node4"><a xlink:href="../../d4/d40/li__lj__gamma_8cpp.html" target="_top" xlink:title="li_lj_gamma.cpp">
<polygon fill="none" stroke="black" points="137.5,-54.5 137.5,-71.5 211.5,-71.5 211.5,-54.5 137.5,-54.5"/>
<text text-anchor="middle" x="174.5" y="-61.1" font-family="Helvetica,sans-Serif" font-size="8.00">li_lj_gamma.cpp</text>
</a>
</g>
</g>
<!-- Node1&#45;&gt;Node4 -->
<g id="edge3" class="edge"><title>Node1&#45;&gt;Node4</title>
<path fill="none" stroke="midnightblue" d="M132.59,-101.575C143.375,-91.9048 157.155,-79.5508 165.907,-71.7043"/>
<polygon fill="midnightblue" stroke="midnightblue" points="130.167,-99.0457 125.058,-108.327 134.84,-104.258 130.167,-99.0457"/>
</g>
<!-- Node3 -->
<g id="node3" class="node"><title>Node3</title>
<g id="a_node3"><a xlink:href="../../d1/de2/_th_obs_factory_8cpp.html" target="_top" xlink:title="ThObsFactory.cpp">
<polygon fill="none" stroke="black" points="18.5,-0.5 18.5,-17.5 100.5,-17.5 100.5,-0.5 18.5,-0.5"/>
<text text-anchor="middle" x="59.5" y="-7.1" font-family="Helvetica,sans-Serif" font-size="8.00">ThObsFactory.cpp</text>
</a>
</g>
</g>
<!-- Node2&#45;&gt;Node3 -->
<g id="edge2" class="edge"><title>Node2&#45;&gt;Node3</title>
<path fill="none" stroke="midnightblue" d="M59.5,-44.0621C59.5,-35.0603 59.5,-24.6277 59.5,-17.7043"/>
<polygon fill="midnightblue" stroke="midnightblue" points="56.0001,-44.3272 59.5,-54.3272 63.0001,-44.3273 56.0001,-44.3272"/>
</g>
</g>
</svg>
