<?xml version="1.0" encoding="UTF-8" standalone="no"?>
<!DOCTYPE svg PUBLIC "-//W3C//DTD SVG 1.1//EN"
 "http://www.w3.org/Graphics/SVG/1.1/DTD/svg11.dtd">
<!-- Generated by graphviz version 2.40.1 (20161225.0304)
 -->
<!-- Title: FilterRule.hpp Pages: 1 -->
<svg width="421pt" height="296pt"
 viewBox="0.00 0.00 420.94 296.00" xmlns="http://www.w3.org/2000/svg" xmlns:xlink="http://www.w3.org/1999/xlink">
<g id="graph0" class="graph" transform="scale(1 1) rotate(0) translate(4 292)">
<title>FilterRule.hpp</title>
<!-- Node0 -->
<g id="node1" class="node">
<title>Node0</title>
<polygon fill="#bfbfbf" stroke="#000000" points="185.5783,-270.5 185.5783,-287.5 251.5783,-287.5 251.5783,-270.5 185.5783,-270.5"/>
<text text-anchor="middle" x="218.5783" y="-277.1" font-family="Helvetica,sans-Serif" font-size="8.00" fill="#000000">FilterRule.hpp</text>
</g>
<!-- Node1 -->
<g id="node2" class="node">
<title>Node1</title>
<g id="a_node2"><a xlink:href="../../d0/dcd/_particle_line_8hpp.html" target="_top" xlink:title="ParticleLine.hpp">
<polygon fill="none" stroke="#000000" points="181.5783,-216.5 181.5783,-233.5 255.5783,-233.5 255.5783,-216.5 181.5783,-216.5"/>
<text text-anchor="middle" x="218.5783" y="-223.1" font-family="Helvetica,sans-Serif" font-size="8.00" fill="#000000">ParticleLine.hpp</text>
</a>
</g>
</g>
<!-- Node0&#45;&gt;Node1 -->
<g id="edge1" class="edge">
<title>Node0&#45;&gt;Node1</title>
<path fill="none" stroke="#191970" d="M218.5783,-270.083C218.5783,-263.0059 218.5783,-252.8611 218.5783,-243.9865"/>
<polygon fill="#191970" stroke="#191970" points="222.0784,-243.751 218.5783,-233.7511 215.0784,-243.7511 222.0784,-243.751"/>
</g>
<!-- Node2 -->
<g id="node3" class="node">
<title>Node2</title>
<polygon fill="none" stroke="#bfbfbf" points="335.5783,-.5 335.5783,-17.5 371.5783,-17.5 371.5783,-.5 335.5783,-.5"/>
<text text-anchor="middle" x="353.5783" y="-7.1" font-family="Helvetica,sans-Serif" font-size="8.00" fill="#000000">string</text>
</g>
<!-- Node1&#45;&gt;Node2 -->
<g id="edge2" class="edge">
<title>Node1&#45;&gt;Node2</title>
<path fill="none" stroke="#191970" d="M247.8292,-216.471C286.9661,-203.5079 355.7046,-175.0243 392.5783,-126 412.1245,-100.0129 419.096,-83.5746 405.5783,-54 399.801,-41.3602 388.526,-30.911 377.9476,-23.2737"/>
<polygon fill="#191970" stroke="#191970" points="379.6201,-20.1817 369.3616,-17.5333 375.7295,-26.0009 379.6201,-20.1817"/>
</g>
<!-- Node3 -->
<g id="node4" class="node">
<title>Node3</title>
<polygon fill="none" stroke="#bfbfbf" points="58.5783,-.5 58.5783,-17.5 96.5783,-17.5 96.5783,-.5 58.5783,-.5"/>
<text text-anchor="middle" x="77.5783" y="-7.1" font-family="Helvetica,sans-Serif" font-size="8.00" fill="#000000">vector</text>
</g>
<!-- Node1&#45;&gt;Node3 -->
<g id="edge3" class="edge">
<title>Node1&#45;&gt;Node3</title>
<path fill="none" stroke="#191970" d="M181.504,-219.8624C131.7557,-210.7585 45.1928,-186.6497 6.5783,-126 -16.5505,-89.673 28.662,-46.1364 57.0373,-23.8089"/>
<polygon fill="#191970" stroke="#191970" points="59.3693,-26.4326 65.2086,-17.5921 55.1308,-20.8616 59.3693,-26.4326"/>
</g>
<!-- Node4 -->
<g id="node5" class="node">
<title>Node4</title>
<g id="a_node5"><a xlink:href="../../d8/d14/_b_o_llib_8hpp.html" target="_top" xlink:title="BOLlib/include/BOLlib.hpp">
<polygon fill="none" stroke="#ff0000" points="163.5783,-162.5 163.5783,-179.5 273.5783,-179.5 273.5783,-162.5 163.5783,-162.5"/>
<text text-anchor="middle" x="218.5783" y="-169.1" font-family="Helvetica,sans-Serif" font-size="8.00" fill="#000000">BOLlib/include/BOLlib.hpp</text>
</a>
</g>
</g>
<!-- Node1&#45;&gt;Node4 -->
<g id="edge4" class="edge">
<title>Node1&#45;&gt;Node4</title>
<path fill="none" stroke="#191970" d="M218.5783,-216.083C218.5783,-209.0059 218.5783,-198.8611 218.5783,-189.9865"/>
<polygon fill="#191970" stroke="#191970" points="222.0784,-189.751 218.5783,-179.7511 215.0784,-189.7511 222.0784,-189.751"/>
</g>
<!-- Node5 -->
<g id="node6" class="node">
<title>Node5</title>
<g id="a_node6"><a xlink:href="../../dc/d4c/_argument_parser_8hpp.html" target="_top" xlink:title="ArgumentParser.hpp">
<polygon fill="none" stroke="#ff0000" points="173.5783,-108.5 173.5783,-125.5 263.5783,-125.5 263.5783,-108.5 173.5783,-108.5"/>
<text text-anchor="middle" x="218.5783" y="-115.1" font-family="Helvetica,sans-Serif" font-size="8.00" fill="#000000">ArgumentParser.hpp</text>
</a>
</g>
</g>
<!-- Node4&#45;&gt;Node5 -->
<g id="edge5" class="edge">
<title>Node4&#45;&gt;Node5</title>
<path fill="none" stroke="#191970" d="M218.5783,-162.083C218.5783,-155.0059 218.5783,-144.8611 218.5783,-135.9865"/>
<polygon fill="#191970" stroke="#191970" points="222.0784,-135.751 218.5783,-125.7511 215.0784,-135.7511 222.0784,-135.751"/>
</g>
<!-- Node7 -->
<g id="node7" class="node">
<title>Node7</title>
<g id="a_node7"><a xlink:href="../../d4/dbc/_ascii_xml_parser_8hpp.html" target="_top" xlink:title="AsciiXmlParser.hpp">
<polygon fill="none" stroke="#ff0000" points="310.5783,-54.5 310.5783,-71.5 396.5783,-71.5 396.5783,-54.5 310.5783,-54.5"/>
<text text-anchor="middle" x="353.5783" y="-61.1" font-family="Helvetica,sans-Serif" font-size="8.00" fill="#000000">AsciiXmlParser.hpp</text>
</a>
</g>
</g>
<!-- Node4&#45;&gt;Node7 -->
<g id="edge10" class="edge">
<title>Node4&#45;&gt;Node7</title>
<path fill="none" stroke="#191970" d="M273.6614,-162.4957C314.0665,-155.0009 363.9903,-142.6738 376.5783,-126 387.0524,-112.1263 377.4871,-93.0076 367.6937,-79.4802"/>
<polygon fill="#191970" stroke="#191970" points="370.3627,-77.2119 361.4333,-71.5094 364.8576,-81.5357 370.3627,-77.2119"/>
</g>
<!-- Node21 -->
<g id="node8" class="node">
<title>Node21</title>
<g id="a_node8"><a xlink:href="../../da/d0a/_balanced_partition_candidate_8hpp.html" target="_top" xlink:title="BalancedPartitionCandidate.hpp">
<polygon fill="none" stroke="#ff0000" points="59.0783,-54.5 59.0783,-71.5 190.0783,-71.5 190.0783,-54.5 59.0783,-54.5"/>
<text text-anchor="middle" x="124.5783" y="-61.1" font-family="Helvetica,sans-Serif" font-size="8.00" fill="#000000">BalancedPartitionCandidate.hpp</text>
</a>
</g>
</g>
<!-- Node4&#45;&gt;Node21 -->
<g id="edge11" class="edge">
<title>Node4&#45;&gt;Node21</title>
<path fill="none" stroke="#191970" d="M206.0484,-162.3117C194.4474,-153.8832 177.1439,-140.3014 164.5783,-126 152.3123,-112.0396 141.2341,-93.9451 133.8634,-80.732"/>
<polygon fill="#191970" stroke="#191970" points="136.8288,-78.8578 128.9914,-71.7286 130.6724,-82.1892 136.8288,-78.8578"/>
</g>
<!-- Node22 -->
<g id="node9" class="node">
<title>Node22</title>
<g id="a_node9"><a xlink:href="../../d8/d03/_balanced_partitioner_8hpp.html" target="_top" xlink:title="BalancedPartitioner.hpp">
<polygon fill="none" stroke="#ff0000" points="15.5783,-108.5 15.5783,-125.5 117.5783,-125.5 117.5783,-108.5 15.5783,-108.5"/>
<text text-anchor="middle" x="66.5783" y="-115.1" font-family="Helvetica,sans-Serif" font-size="8.00" fill="#000000">BalancedPartitioner.hpp</text>
</a>
</g>
</g>
<!-- Node4&#45;&gt;Node22 -->
<g id="edge13" class="edge">
<title>Node4&#45;&gt;Node22</title>
<path fill="none" stroke="#191970" d="M194.4934,-162.4435C169.0336,-153.3986 128.6845,-139.064 100.1192,-128.9158"/>
<polygon fill="#191970" stroke="#191970" points="101.1452,-125.5661 90.5504,-125.5164 98.8018,-132.1622 101.1452,-125.5661"/>
</g>
<!-- Node23 -->
<g id="node10" class="node">
<title>Node23</title>
<g id="a_node10"><a xlink:href="../../da/dab/_basic_observed_8hpp.html" target="_top" xlink:title="BasicObserved.hpp">
<polygon fill="none" stroke="#ff0000" points="281.5783,-108.5 281.5783,-125.5 367.5783,-125.5 367.5783,-108.5 281.5783,-108.5"/>
<text text-anchor="middle" x="324.5783" y="-115.1" font-family="Helvetica,sans-Serif" font-size="8.00" fill="#000000">BasicObserved.hpp</text>
</a>
</g>
</g>
<!-- Node4&#45;&gt;Node23 -->
<g id="edge16" class="edge">
<title>Node4&#45;&gt;Node23</title>
<path fill="none" stroke="#191970" d="M235.609,-162.324C252.6081,-153.6641 278.9544,-140.2424 298.5709,-130.249"/>
<polygon fill="#191970" stroke="#191970" points="300.2682,-133.3125 307.5898,-125.6545 297.0906,-127.0752 300.2682,-133.3125"/>
</g>
<!-- Node5&#45;&gt;Node2 -->
<g id="edge6" class="edge">
<title>Node5&#45;&gt;Node2</title>
<path fill="none" stroke="#191970" d="M229.6259,-108.1619C252.6817,-89.7172 306.1468,-46.9452 334.7409,-24.0699"/>
<polygon fill="#191970" stroke="#191970" points="337.1331,-26.6384 342.7553,-17.6584 332.7602,-21.1723 337.1331,-26.6384"/>
</g>
<!-- Node5&#45;&gt;Node3 -->
<g id="edge7" class="edge">
<title>Node5&#45;&gt;Node3</title>
<path fill="none" stroke="#191970" d="M218.3339,-108.4852C217.498,-95.1556 213.9859,-69.3061 199.5783,-54 175.2631,-28.1685 134.8306,-17.0939 107.2291,-12.3927"/>
<polygon fill="#191970" stroke="#191970" points="107.3952,-8.8779 96.9833,-10.8378 106.3449,-15.7987 107.3952,-8.8779"/>
</g>
<!-- Node5&#45;&gt;Node7 -->
<g id="edge8" class="edge">
<title>Node5&#45;&gt;Node7</title>
<path fill="none" stroke="#191970" d="M239.9694,-108.4435C262.2855,-99.5171 297.4815,-85.4387 322.7862,-75.3168"/>
<polygon fill="#191970" stroke="#191970" points="324.3023,-78.4801 332.2872,-71.5164 321.7025,-71.9807 324.3023,-78.4801"/>
</g>
<!-- Node7&#45;&gt;Node2 -->
<g id="edge9" class="edge">
<title>Node7&#45;&gt;Node2</title>
<path fill="none" stroke="#191970" d="M353.5783,-54.083C353.5783,-47.0059 353.5783,-36.8611 353.5783,-27.9865"/>
<polygon fill="#191970" stroke="#191970" points="357.0784,-27.751 353.5783,-17.7511 350.0784,-27.7511 357.0784,-27.751"/>
</g>
<!-- Node21&#45;&gt;Node3 -->
<g id="edge12" class="edge">
<title>Node21&#45;&gt;Node3</title>
<path fill="none" stroke="#191970" d="M116.8172,-54.083C110.0415,-46.2982 100.0351,-34.8015 91.8232,-25.3665"/>
<polygon fill="#191970" stroke="#191970" points="94.4003,-22.9963 85.195,-17.7511 89.1202,-27.592 94.4003,-22.9963"/>
</g>
<!-- Node22&#45;&gt;Node3 -->
<g id="edge14" class="edge">
<title>Node22&#45;&gt;Node3</title>
<path fill="none" stroke="#191970" d="M61.2626,-108.4182C54.4213,-96.2733 44.0385,-73.3892 49.5783,-54 52.4801,-43.8435 58.4098,-33.747 64.0684,-25.6991"/>
<polygon fill="#191970" stroke="#191970" points="66.9539,-27.6853 70.1659,-17.5891 61.3589,-23.4786 66.9539,-27.6853"/>
</g>
<!-- Node22&#45;&gt;Node21 -->
<g id="edge15" class="edge">
<title>Node22&#45;&gt;Node21</title>
<path fill="none" stroke="#191970" d="M75.897,-108.324C84.4709,-100.3414 97.3905,-88.3128 107.7659,-78.6529"/>
<polygon fill="#191970" stroke="#191970" points="110.156,-81.2098 115.09,-71.8339 105.3861,-76.0865 110.156,-81.2098"/>
</g>
</g>
</svg>
