<?xml version="1.0" encoding="UTF-8" standalone="no"?>
<!DOCTYPE svg PUBLIC "-//W3C//DTD SVG 1.1//EN"
 "http://www.w3.org/Graphics/SVG/1.1/DTD/svg11.dtd">
<!-- Generated by graphviz version 2.40.1 (20161225.0304)
 -->
<!-- Title: BOL::PushingObserved&lt; PushedClass &gt; Pages: 1 -->
<svg width="268pt" height="162pt"
 viewBox="0.00 0.00 268.00 162.00" xmlns="http://www.w3.org/2000/svg" xmlns:xlink="http://www.w3.org/1999/xlink">
<g id="graph0" class="graph" transform="scale(1 1) rotate(0) translate(4 158)">
<title>BOL::PushingObserved&lt; PushedClass &gt;</title>
<!-- Node0 -->
<g id="node1" class="node">
<title>Node0</title>
<polygon fill="#bfbfbf" stroke="#000000" points="63,-127.5 63,-153.5 164,-153.5 164,-127.5 63,-127.5"/>
<text text-anchor="start" x="71" y="-143.1" font-family="Helvetica,sans-Serif" font-size="8.00" fill="#000000">BOL::PushingObserved</text>
<text text-anchor="middle" x="113.5" y="-134.1" font-family="Helvetica,sans-Serif" font-size="8.00" fill="#000000">&lt; PushedClass &gt;</text>
</g>
<!-- Node1 -->
<g id="node2" class="node">
<title>Node1</title>
<g id="a_node2"><a xlink:href="../../dd/d76/class_l_h_p_c_1_1_s_l_h_a_1_1_same_name_block_set.html" target="_top" xlink:title="LHPC::SLHA::SameNameBlockSet">
<polygon fill="none" stroke="#000000" points="0,-60 0,-77 141,-77 141,-60 0,-60"/>
<text text-anchor="middle" x="70.5" y="-66.6" font-family="Helvetica,sans-Serif" font-size="8.00" fill="#000000">LHPC::SLHA::SameNameBlockSet</text>
</a>
</g>
</g>
<!-- Node0&#45;&gt;Node1 -->
<g id="edge1" class="edge">
<title>Node0&#45;&gt;Node1</title>
<path fill="none" stroke="#191970" d="M100.4819,-118.7023C92.1265,-104.7119 81.7357,-87.3133 75.6388,-77.1044"/>
<polygon fill="#191970" stroke="#191970" points="97.4808,-120.5033 105.6131,-127.2941 103.4906,-116.914 97.4808,-120.5033"/>
</g>
<!-- Node2 -->
<g id="node3" class="node">
<title>Node2</title>
<g id="a_node3"><a xlink:href="../../d4/dbd/class_b_o_l_1_1_pushing_observed.html" target="_top" xlink:title="BOL::PushingObserved\l\&lt; SpectrumUpdater \&gt;">
<polygon fill="none" stroke="#000000" points="159,-55.5 159,-81.5 260,-81.5 260,-55.5 159,-55.5"/>
<text text-anchor="start" x="167" y="-71.1" font-family="Helvetica,sans-Serif" font-size="8.00" fill="#000000">BOL::PushingObserved</text>
<text text-anchor="middle" x="209.5" y="-62.1" font-family="Helvetica,sans-Serif" font-size="8.00" fill="#000000">&lt; SpectrumUpdater &gt;</text>
</a>
</g>
</g>
<!-- Node0&#45;&gt;Node2 -->
<g id="edge2" class="edge">
<title>Node0&#45;&gt;Node2</title>
<path fill="none" stroke="#ffa500" stroke-dasharray="5,2" d="M139.3555,-121.1084C156.0362,-108.5979 177.2863,-92.6602 192.0037,-81.6222"/>
<polygon fill="#ffa500" stroke="#ffa500" points="137.0079,-118.494 131.1079,-127.2941 141.2079,-124.0941 137.0079,-118.494"/>
<text text-anchor="middle" x="206" y="-102.6" font-family="Helvetica,sans-Serif" font-size="8.00" fill="#000000"> &lt; SpectrumUpdater &gt;</text>
</g>
<!-- Node3 -->
<g id="node4" class="node">
<title>Node3</title>
<g id="a_node4"><a xlink:href="../../d4/deb/class_l_h_p_c_1_1_slha_parser.html" target="_top" xlink:title="LHPC::SlhaParser">
<polygon fill="none" stroke="#000000" points="168.5,-.5 168.5,-17.5 250.5,-17.5 250.5,-.5 168.5,-.5"/>
<text text-anchor="middle" x="209.5" y="-7.1" font-family="Helvetica,sans-Serif" font-size="8.00" fill="#000000">LHPC::SlhaParser</text>
</a>
</g>
</g>
<!-- Node2&#45;&gt;Node3 -->
<g id="edge3" class="edge">
<title>Node2&#45;&gt;Node3</title>
<path fill="none" stroke="#191970" d="M209.5,-45.0042C209.5,-35.3375 209.5,-24.7482 209.5,-17.5724"/>
<polygon fill="#191970" stroke="#191970" points="206.0001,-45.295 209.5,-55.295 213.0001,-45.2951 206.0001,-45.295"/>
</g>
</g>
</svg>
