<?xml version="1.0" encoding="UTF-8" standalone="no"?>
<!DOCTYPE svg PUBLIC "-//W3C//DTD SVG 1.1//EN"
 "http://www.w3.org/Graphics/SVG/1.1/DTD/svg11.dtd">
<!-- Generated by graphviz version 2.38.0 (20140413.2041)
 -->
<!-- Title: EWSMThreeLoopEW2QCD.h Pages: 1 -->
<svg width="242pt" height="80pt"
 viewBox="0.00 0.00 242.00 80.00" xmlns="http://www.w3.org/2000/svg" xmlns:xlink="http://www.w3.org/1999/xlink">
<g id="graph0" class="graph" transform="scale(1 1) rotate(0) translate(4 76)">
<title>EWSMThreeLoopEW2QCD.h</title>
<!-- Node1 -->
<g id="node1" class="node"><title>Node1</title>
<polygon fill="#bfbfbf" stroke="black" points="67,-54.5 67,-71.5 189,-71.5 189,-54.5 67,-54.5"/>
<text text-anchor="middle" x="128" y="-61.1" font-family="Helvetica,sans-Serif" font-size="8.00">EWSMThreeLoopEW2QCD.h</text>
</g>
<!-- Node2 -->
<g id="node2" class="node"><title>Node2</title>
<g id="a_node2"><a xlink:href="../../d0/dca/_e_w_s_m_three_loop_e_w2_q_c_d_8cpp.html" target="_top" xlink:title="EWSMThreeLoopEW2QCD.cpp">
<polygon fill="none" stroke="black" points="0,-0.5 0,-17.5 130,-17.5 130,-0.5 0,-0.5"/>
<text text-anchor="middle" x="65" y="-7.1" font-family="Helvetica,sans-Serif" font-size="8.00">EWSMThreeLoopEW2QCD.cpp</text>
</a>
</g>
</g>
<!-- Node1&#45;&gt;Node2 -->
<g id="edge1" class="edge"><title>Node1&#45;&gt;Node2</title>
<path fill="none" stroke="midnightblue" d="M110.867,-47.8584C99.1017,-38.1474 83.9336,-25.6277 74.334,-17.7043"/>
<polygon fill="midnightblue" stroke="midnightblue" points="108.764,-50.6608 118.704,-54.3272 113.22,-45.2622 108.764,-50.6608"/>
</g>
<!-- Node3 -->
<g id="node3" class="node"><title>Node3</title>
<g id="a_node3"><a xlink:href="../../d9/d2b/_standard_model_8cpp.html" target="_top" xlink:title="StandardModel.cpp">
<polygon fill="none" stroke="black" points="148,-0.5 148,-17.5 234,-17.5 234,-0.5 148,-0.5"/>
<text text-anchor="middle" x="191" y="-7.1" font-family="Helvetica,sans-Serif" font-size="8.00">StandardModel.cpp</text>
</a>
</g>
</g>
<!-- Node1&#45;&gt;Node3 -->
<g id="edge2" class="edge"><title>Node1&#45;&gt;Node3</title>
<path fill="none" stroke="midnightblue" d="M145.133,-47.8584C156.898,-38.1474 172.066,-25.6277 181.666,-17.7043"/>
<polygon fill="midnightblue" stroke="midnightblue" points="142.78,-45.2622 137.296,-54.3272 147.236,-50.6608 142.78,-45.2622"/>
</g>
</g>
</svg>
