<?xml version="1.0" encoding="UTF-8" standalone="no"?>
<!DOCTYPE svg PUBLIC "-//W3C//DTD SVG 1.1//EN"
 "http://www.w3.org/Graphics/SVG/1.1/DTD/svg11.dtd">
<!-- Generated by graphviz version 2.38.0 (20140413.2041)
 -->
<!-- Title: MPll.h Pages: 1 -->
<svg width="305pt" height="242pt"
 viewBox="0.00 0.00 305.43 242.00" xmlns="http://www.w3.org/2000/svg" xmlns:xlink="http://www.w3.org/1999/xlink">
<g id="graph0" class="graph" transform="scale(1 1) rotate(0) translate(4 238)">
<title>MPll.h</title>
<!-- Node1 -->
<g id="node1" class="node"><title>Node1</title>
<polygon fill="#bfbfbf" stroke="black" points="71.4281,-216.5 71.4281,-233.5 110.428,-233.5 110.428,-216.5 71.4281,-216.5"/>
<text text-anchor="middle" x="90.9281" y="-223.1" font-family="Helvetica,sans-Serif" font-size="8.00">MPll.h</text>
</g>
<!-- Node2 -->
<g id="node2" class="node"><title>Node2</title>
<polygon fill="none" stroke="#bfbfbf" points="28.4281,-0.5 28.4281,-17.5 69.4281,-17.5 69.4281,-0.5 28.4281,-0.5"/>
<text text-anchor="middle" x="48.9281" y="-7.1" font-family="Helvetica,sans-Serif" font-size="8.00">math.h</text>
</g>
<!-- Node1&#45;&gt;Node2 -->
<g id="edge1" class="edge"><title>Node1&#45;&gt;Node2</title>
<path fill="none" stroke="midnightblue" d="M78.8062,-216.303C67.3266,-208.447 50.3399,-195.263 39.9281,-180 11.2539,-137.964 10.4949,-122.158 1.92813,-72 0.581279,-64.1142 -1.2547,-61.3396 1.92813,-54 7.29367,-41.6271 18.0419,-31.1432 27.9071,-23.5162"/>
<polygon fill="midnightblue" stroke="midnightblue" points="30.1061,-26.2462 36.1917,-17.5734 26.026,-20.5582 30.1061,-26.2462"/>
</g>
<!-- Node3 -->
<g id="node3" class="node"><title>Node3</title>
<g id="a_node3"><a xlink:href="../../d6/d0a/_standard_model_8h.html" target="_top" xlink:title="StandardModel.h">
<polygon fill="none" stroke="red" points="52.4281,-108.5 52.4281,-125.5 129.428,-125.5 129.428,-108.5 52.4281,-108.5"/>
<text text-anchor="middle" x="90.9281" y="-115.1" font-family="Helvetica,sans-Serif" font-size="8.00">StandardModel.h</text>
</a>
</g>
</g>
<!-- Node1&#45;&gt;Node3 -->
<g id="edge2" class="edge"><title>Node1&#45;&gt;Node3</title>
<path fill="none" stroke="midnightblue" d="M78.4555,-216.361C67.3019,-208.724 51.7021,-195.853 44.9281,-180 37.0188,-161.489 54.2221,-143.359 69.7947,-131.533"/>
<polygon fill="midnightblue" stroke="midnightblue" points="71.9675,-134.283 78.1085,-125.65 67.9239,-128.569 71.9675,-134.283"/>
</g>
<!-- Node8 -->
<g id="node8" class="node"><title>Node8</title>
<g id="a_node8"><a xlink:href="../../dd/dcd/_th_observable_8h.html" target="_top" xlink:title="ThObservable.h">
<polygon fill="none" stroke="black" points="54.4281,-162.5 54.4281,-179.5 127.428,-179.5 127.428,-162.5 54.4281,-162.5"/>
<text text-anchor="middle" x="90.9281" y="-169.1" font-family="Helvetica,sans-Serif" font-size="8.00">ThObservable.h</text>
</a>
</g>
</g>
<!-- Node1&#45;&gt;Node8 -->
<g id="edge9" class="edge"><title>Node1&#45;&gt;Node8</title>
<path fill="none" stroke="midnightblue" d="M90.9281,-216.327C90.9281,-209.414 90.9281,-198.985 90.9281,-189.979"/>
<polygon fill="midnightblue" stroke="midnightblue" points="94.4282,-189.704 90.9281,-179.704 87.4282,-189.704 94.4282,-189.704"/>
</g>
<!-- Node9 -->
<g id="node9" class="node"><title>Node9</title>
<polygon fill="none" stroke="#bfbfbf" points="145.928,-162.5 145.928,-179.5 233.928,-179.5 233.928,-162.5 145.928,-162.5"/>
<text text-anchor="middle" x="189.928" y="-169.1" font-family="Helvetica,sans-Serif" font-size="8.00">gsl/gsl_integration.h</text>
</g>
<!-- Node1&#45;&gt;Node9 -->
<g id="edge11" class="edge"><title>Node1&#45;&gt;Node9</title>
<path fill="none" stroke="midnightblue" d="M105.536,-216.327C121.64,-207.868 147.77,-194.144 166.692,-184.205"/>
<polygon fill="midnightblue" stroke="midnightblue" points="168.357,-187.284 175.582,-179.535 165.102,-181.087 168.357,-187.284"/>
</g>
<!-- Node10 -->
<g id="node10" class="node"><title>Node10</title>
<polygon fill="none" stroke="#bfbfbf" points="252.428,-162.5 252.428,-179.5 297.428,-179.5 297.428,-162.5 252.428,-162.5"/>
<text text-anchor="middle" x="274.928" y="-169.1" font-family="Helvetica,sans-Serif" font-size="8.00">assert.h</text>
</g>
<!-- Node1&#45;&gt;Node10 -->
<g id="edge12" class="edge"><title>Node1&#45;&gt;Node10</title>
<path fill="none" stroke="midnightblue" d="M110.619,-218.435C142.059,-209.55 203.932,-192.064 242.132,-181.268"/>
<polygon fill="midnightblue" stroke="midnightblue" points="243.562,-184.501 252.234,-178.414 241.659,-177.765 243.562,-184.501"/>
</g>
<!-- Node4 -->
<g id="node4" class="node"><title>Node4</title>
<g id="a_node4"><a xlink:href="../../d9/d72/gslpp_8h.html" target="_top" xlink:title="gslpp.h">
<polygon fill="none" stroke="red" points="111.928,-0.5 111.928,-17.5 153.928,-17.5 153.928,-0.5 111.928,-0.5"/>
<text text-anchor="middle" x="132.928" y="-7.1" font-family="Helvetica,sans-Serif" font-size="8.00">gslpp.h</text>
</a>
</g>
</g>
<!-- Node3&#45;&gt;Node4 -->
<g id="edge3" class="edge"><title>Node3&#45;&gt;Node4</title>
<path fill="none" stroke="midnightblue" d="M129.464,-114.826C160.574,-111.595 202.564,-101.571 223.928,-72 242.85,-45.8096 197.121,-27.1769 163.861,-17.5385"/>
<polygon fill="midnightblue" stroke="midnightblue" points="164.594,-14.1104 154.024,-14.8377 162.741,-20.8606 164.594,-14.1104"/>
</g>
<!-- Node5 -->
<g id="node5" class="node"><title>Node5</title>
<g id="a_node5"><a xlink:href="../../d4/d68/_q_c_d_8h.html" target="_top" xlink:title="QCD.h">
<polygon fill="none" stroke="red" points="11.4281,-54.5 11.4281,-71.5 52.4281,-71.5 52.4281,-54.5 11.4281,-54.5"/>
<text text-anchor="middle" x="31.9281" y="-61.1" font-family="Helvetica,sans-Serif" font-size="8.00">QCD.h</text>
</a>
</g>
</g>
<!-- Node3&#45;&gt;Node5 -->
<g id="edge4" class="edge"><title>Node3&#45;&gt;Node5</title>
<path fill="none" stroke="midnightblue" d="M82.2225,-108.327C73.3334,-100.493 59.3191,-88.1412 48.3393,-78.4641"/>
<polygon fill="midnightblue" stroke="midnightblue" points="50.4858,-75.6906 40.6695,-71.7043 45.8574,-80.942 50.4858,-75.6906"/>
</g>
<!-- Node6 -->
<g id="node6" class="node"><title>Node6</title>
<g id="a_node6"><a xlink:href="../../db/d5d/_c_k_m_8h.html" target="_top" xlink:title="CKM.h">
<polygon fill="none" stroke="black" points="70.4281,-54.5 70.4281,-71.5 111.428,-71.5 111.428,-54.5 70.4281,-54.5"/>
<text text-anchor="middle" x="90.9281" y="-61.1" font-family="Helvetica,sans-Serif" font-size="8.00">CKM.h</text>
</a>
</g>
</g>
<!-- Node3&#45;&gt;Node6 -->
<g id="edge5" class="edge"><title>Node3&#45;&gt;Node6</title>
<path fill="none" stroke="midnightblue" d="M90.9281,-108.327C90.9281,-101.414 90.9281,-90.985 90.9281,-81.9789"/>
<polygon fill="midnightblue" stroke="midnightblue" points="94.4282,-81.7042 90.9281,-71.7043 87.4282,-81.7043 94.4282,-81.7042"/>
</g>
<!-- Node7 -->
<g id="node7" class="node"><title>Node7</title>
<g id="a_node7"><a xlink:href="../../db/dba/_wilson_coefficient_8h.html" target="_top" xlink:title="WilsonCoefficient.h">
<polygon fill="none" stroke="red" points="129.428,-54.5 129.428,-71.5 214.428,-71.5 214.428,-54.5 129.428,-54.5"/>
<text text-anchor="middle" x="171.928" y="-61.1" font-family="Helvetica,sans-Serif" font-size="8.00">WilsonCoefficient.h</text>
</a>
</g>
</g>
<!-- Node3&#45;&gt;Node7 -->
<g id="edge8" class="edge"><title>Node3&#45;&gt;Node7</title>
<path fill="none" stroke="midnightblue" d="M102.88,-108.327C115.635,-100.139 136.077,-87.0157 151.415,-77.1692"/>
<polygon fill="midnightblue" stroke="midnightblue" points="153.666,-79.8829 160.191,-71.5352 149.885,-73.9923 153.666,-79.8829"/>
</g>
<!-- Node6&#45;&gt;Node2 -->
<g id="edge6" class="edge"><title>Node6&#45;&gt;Node2</title>
<path fill="none" stroke="midnightblue" d="M84.7309,-54.3272C78.6512,-46.8 69.2037,-35.103 61.5398,-25.6144"/>
<polygon fill="midnightblue" stroke="midnightblue" points="64.157,-23.2845 55.1508,-17.7043 58.7114,-27.6829 64.157,-23.2845"/>
</g>
<!-- Node6&#45;&gt;Node4 -->
<g id="edge7" class="edge"><title>Node6&#45;&gt;Node4</title>
<path fill="none" stroke="midnightblue" d="M97.1254,-54.3272C103.205,-46.8 112.653,-35.103 120.316,-25.6144"/>
<polygon fill="midnightblue" stroke="midnightblue" points="123.145,-27.6829 126.705,-17.7043 117.699,-23.2845 123.145,-27.6829"/>
</g>
<!-- Node8&#45;&gt;Node3 -->
<g id="edge10" class="edge"><title>Node8&#45;&gt;Node3</title>
<path fill="none" stroke="midnightblue" d="M90.9281,-162.327C90.9281,-155.414 90.9281,-144.985 90.9281,-135.979"/>
<polygon fill="midnightblue" stroke="midnightblue" points="94.4282,-135.704 90.9281,-125.704 87.4282,-135.704 94.4282,-135.704"/>
</g>
</g>
</svg>
