<?xml version="1.0" encoding="UTF-8" standalone="no"?>
<!DOCTYPE svg PUBLIC "-//W3C//DTD SVG 1.1//EN"
 "http://www.w3.org/Graphics/SVG/1.1/DTD/svg11.dtd">
<!-- Generated by graphviz version 2.40.1 (20161225.0304)
 -->
<!-- Title: EWSMTwoLoopQCD.cpp Pages: 1 -->
<svg width="412pt" height="242pt"
 viewBox="0.00 0.00 412.00 242.00" xmlns="http://www.w3.org/2000/svg" xmlns:xlink="http://www.w3.org/1999/xlink">
<g id="graph0" class="graph" transform="scale(1 1) rotate(0) translate(4 238)">
<title>EWSMTwoLoopQCD.cpp</title>
<!-- Node0 -->
<g id="node1" class="node">
<title>Node0</title>
<polygon fill="#bfbfbf" stroke="#000000" points="44,-216.5 44,-233.5 151,-233.5 151,-216.5 44,-216.5"/>
<text text-anchor="middle" x="97.5" y="-223.1" font-family="Helvetica,sans-Serif" font-size="8.00" fill="#000000">EWSMTwoLoopQCD.cpp</text>
</g>
<!-- Node1 -->
<g id="node2" class="node">
<title>Node1</title>
<polygon fill="none" stroke="#bfbfbf" points="0,-162.5 0,-179.5 51,-179.5 51,-162.5 0,-162.5"/>
<text text-anchor="middle" x="25.5" y="-169.1" font-family="Helvetica,sans-Serif" font-size="8.00" fill="#000000">stdexcept</text>
</g>
<!-- Node0&#45;&gt;Node1 -->
<g id="edge1" class="edge">
<title>Node0&#45;&gt;Node1</title>
<path fill="none" stroke="#191970" d="M85.932,-216.324C75.0798,-208.1849 58.6193,-195.8395 45.6166,-186.0874"/>
<polygon fill="#191970" stroke="#191970" points="47.3786,-183.0339 37.2785,-179.8339 43.1785,-188.6339 47.3786,-183.0339"/>
</g>
<!-- Node2 -->
<g id="node3" class="node">
<title>Node2</title>
<polygon fill="none" stroke="#bfbfbf" points="69,-162.5 69,-179.5 126,-179.5 126,-162.5 69,-162.5"/>
<text text-anchor="middle" x="97.5" y="-169.1" font-family="Helvetica,sans-Serif" font-size="8.00" fill="#000000">gsl/gsl_sf.h</text>
</g>
<!-- Node0&#45;&gt;Node2 -->
<g id="edge2" class="edge">
<title>Node0&#45;&gt;Node2</title>
<path fill="none" stroke="#191970" d="M97.5,-216.083C97.5,-209.0059 97.5,-198.8611 97.5,-189.9865"/>
<polygon fill="#191970" stroke="#191970" points="101.0001,-189.751 97.5,-179.7511 94.0001,-189.7511 101.0001,-189.751"/>
</g>
<!-- Node3 -->
<g id="node4" class="node">
<title>Node3</title>
<g id="a_node4"><a xlink:href="../../d0/d29/_e_w_s_m_two_loop_q_c_d_8h.html" target="_top" xlink:title="EWSMTwoLoopQCD.h">
<polygon fill="none" stroke="#000000" points="144,-162.5 144,-179.5 243,-179.5 243,-162.5 144,-162.5"/>
<text text-anchor="middle" x="193.5" y="-169.1" font-family="Helvetica,sans-Serif" font-size="8.00" fill="#000000">EWSMTwoLoopQCD.h</text>
</a>
</g>
</g>
<!-- Node0&#45;&gt;Node3 -->
<g id="edge3" class="edge">
<title>Node0&#45;&gt;Node3</title>
<path fill="none" stroke="#191970" d="M112.9241,-216.324C128.0395,-207.8215 151.3154,-194.7288 168.9712,-184.7975"/>
<polygon fill="#191970" stroke="#191970" points="171.1144,-187.6077 178.1142,-179.6545 167.6825,-181.5066 171.1144,-187.6077"/>
</g>
<!-- Node4 -->
<g id="node5" class="node">
<title>Node4</title>
<g id="a_node5"><a xlink:href="../../d8/d46/_e_w_s_mcache_8h.html" target="_top" xlink:title="EWSMcache.h">
<polygon fill="none" stroke="#000000" points="159,-108.5 159,-125.5 228,-125.5 228,-108.5 159,-108.5"/>
<text text-anchor="middle" x="193.5" y="-115.1" font-family="Helvetica,sans-Serif" font-size="8.00" fill="#000000">EWSMcache.h</text>
</a>
</g>
</g>
<!-- Node3&#45;&gt;Node4 -->
<g id="edge4" class="edge">
<title>Node3&#45;&gt;Node4</title>
<path fill="none" stroke="#191970" d="M193.5,-162.083C193.5,-155.0059 193.5,-144.8611 193.5,-135.9865"/>
<polygon fill="#191970" stroke="#191970" points="197.0001,-135.751 193.5,-125.7511 190.0001,-135.7511 197.0001,-135.751"/>
</g>
<!-- Node5 -->
<g id="node6" class="node">
<title>Node5</title>
<polygon fill="none" stroke="#bfbfbf" points="43.5,-54.5 43.5,-71.5 81.5,-71.5 81.5,-54.5 43.5,-54.5"/>
<text text-anchor="middle" x="62.5" y="-61.1" font-family="Helvetica,sans-Serif" font-size="8.00" fill="#000000">cmath</text>
</g>
<!-- Node4&#45;&gt;Node5 -->
<g id="edge5" class="edge">
<title>Node4&#45;&gt;Node5</title>
<path fill="none" stroke="#191970" d="M172.7427,-108.4435C150.8031,-99.3998 116.0347,-85.0677 91.4164,-74.9198"/>
<polygon fill="#191970" stroke="#191970" points="92.4583,-71.5636 81.8791,-70.9883 89.7905,-78.0353 92.4583,-71.5636"/>
</g>
<!-- Node6 -->
<g id="node7" class="node">
<title>Node6</title>
<g id="a_node7"><a xlink:href="../../d3/d6b/_p_vfunctions_8h.html" target="_top" xlink:title="PVfunctions.h">
<polygon fill="none" stroke="#ff0000" points="99.5,-54.5 99.5,-71.5 165.5,-71.5 165.5,-54.5 99.5,-54.5"/>
<text text-anchor="middle" x="132.5" y="-61.1" font-family="Helvetica,sans-Serif" font-size="8.00" fill="#000000">PVfunctions.h</text>
</a>
</g>
</g>
<!-- Node4&#45;&gt;Node6 -->
<g id="edge6" class="edge">
<title>Node4&#45;&gt;Node6</title>
<path fill="none" stroke="#191970" d="M183.6993,-108.324C174.6819,-100.3414 161.094,-88.3128 150.182,-78.6529"/>
<polygon fill="#191970" stroke="#191970" points="152.2866,-75.8416 142.479,-71.8339 147.6467,-81.083 152.2866,-75.8416"/>
</g>
<!-- Node23 -->
<g id="node8" class="node">
<title>Node23</title>
<g id="a_node8"><a xlink:href="../../dd/dc1/_polylogarithms_8h.html" target="_top" xlink:title="Polylogarithms.h">
<polygon fill="none" stroke="#ff0000" points="124.5,-.5 124.5,-17.5 200.5,-17.5 200.5,-.5 124.5,-.5"/>
<text text-anchor="middle" x="162.5" y="-7.1" font-family="Helvetica,sans-Serif" font-size="8.00" fill="#000000">Polylogarithms.h</text>
</a>
</g>
</g>
<!-- Node4&#45;&gt;Node23 -->
<g id="edge8" class="edge">
<title>Node4&#45;&gt;Node23</title>
<path fill="none" stroke="#191970" d="M190.9631,-108.1619C185.9199,-90.5918 174.5402,-50.9465 167.7967,-27.4532"/>
<polygon fill="#191970" stroke="#191970" points="171.1085,-26.3046 164.9853,-17.6584 164.3802,-28.2359 171.1085,-26.3046"/>
</g>
<!-- Node25 -->
<g id="node9" class="node">
<title>Node25</title>
<g id="a_node9"><a xlink:href="../../db/d48/_clausen_functions_8h.html" target="_top" xlink:title="ClausenFunctions.h">
<polygon fill="none" stroke="#ff0000" points="222,-54.5 222,-71.5 309,-71.5 309,-54.5 222,-54.5"/>
<text text-anchor="middle" x="265.5" y="-61.1" font-family="Helvetica,sans-Serif" font-size="8.00" fill="#000000">ClausenFunctions.h</text>
</a>
</g>
</g>
<!-- Node4&#45;&gt;Node25 -->
<g id="edge9" class="edge">
<title>Node4&#45;&gt;Node25</title>
<path fill="none" stroke="#191970" d="M205.068,-108.324C215.9202,-100.1849 232.3807,-87.8395 245.3834,-78.0874"/>
<polygon fill="#191970" stroke="#191970" points="247.8215,-80.6339 253.7215,-71.8339 243.6214,-75.0339 247.8215,-80.6339"/>
</g>
<!-- Node26 -->
<g id="node10" class="node">
<title>Node26</title>
<g id="a_node10"><a xlink:href="../../d6/d0a/_standard_model_8h.html" target="_top" xlink:title="StandardModel.h">
<polygon fill="none" stroke="#ff0000" points="327,-54.5 327,-71.5 404,-71.5 404,-54.5 327,-54.5"/>
<text text-anchor="middle" x="365.5" y="-61.1" font-family="Helvetica,sans-Serif" font-size="8.00" fill="#000000">StandardModel.h</text>
</a>
</g>
</g>
<!-- Node4&#45;&gt;Node26 -->
<g id="edge10" class="edge">
<title>Node4&#45;&gt;Node26</title>
<path fill="none" stroke="#191970" d="M220.7539,-108.4435C249.9411,-99.2801 296.4211,-84.6876 328.8093,-74.5192"/>
<polygon fill="#191970" stroke="#191970" points="329.8812,-77.8512 338.3736,-71.5164 327.7843,-71.1726 329.8812,-77.8512"/>
</g>
<!-- Node6&#45;&gt;Node23 -->
<g id="edge7" class="edge">
<title>Node6&#45;&gt;Node23</title>
<path fill="none" stroke="#191970" d="M137.4539,-54.083C141.6041,-46.6127 147.6531,-35.7244 152.7667,-26.5199"/>
<polygon fill="#191970" stroke="#191970" points="155.8414,-28.1924 157.6383,-17.7511 149.7223,-24.7929 155.8414,-28.1924"/>
</g>
</g>
</svg>
