<?xml version="1.0" encoding="UTF-8" standalone="no"?>
<!DOCTYPE svg PUBLIC "-//W3C//DTD SVG 1.1//EN"
 "http://www.w3.org/Graphics/SVG/1.1/DTD/svg11.dtd">
<!-- Generated by graphviz version 2.40.1 (20161225.0304)
 -->
<!-- Title: HeffDF1bnlep Pages: 1 -->
<svg width="978pt" height="297pt"
 viewBox="0.00 0.00 978.00 297.42" xmlns="http://www.w3.org/2000/svg" xmlns:xlink="http://www.w3.org/1999/xlink">
<g id="graph0" class="graph" transform="scale(1 1) rotate(0) translate(4 293.42)">
<title>HeffDF1bnlep</title>
<!-- Node1 -->
<g id="node1" class="node">
<title>Node1</title>
<polygon fill="#bfbfbf" stroke="#000000" points="727.5,-113.92 727.5,-130.92 793.5,-130.92 793.5,-113.92 727.5,-113.92"/>
<text text-anchor="middle" x="760.5" y="-120.52" font-family="Helvetica,sans-Serif" font-size="8.00" fill="#000000">HeffDF1bnlep</text>
</g>
<!-- Node2 -->
<g id="node2" class="node">
<title>Node2</title>
<g id="a_node2"><a xlink:href="../../dd/d59/classgslpp_1_1vector.html" target="_top" xlink:title="gslpp::vector\&lt; gslpp\l::complex \&gt;">
<polygon fill="none" stroke="#000000" points="187,-184.42 187,-210.42 275,-210.42 275,-184.42 187,-184.42"/>
<text text-anchor="start" x="195" y="-200.02" font-family="Helvetica,sans-Serif" font-size="8.00" fill="#000000">gslpp::vector&lt; gslpp</text>
<text text-anchor="middle" x="231" y="-191.02" font-family="Helvetica,sans-Serif" font-size="8.00" fill="#000000">::complex &gt;</text>
</a>
</g>
</g>
<!-- Node2&#45;&gt;Node1 -->
<g id="edge1" class="edge">
<title>Node2&#45;&gt;Node1</title>
<path fill="none" stroke="#9a32cd" stroke-dasharray="5,2" d="M273.2957,-213.9651C360.2579,-245.0852 562.6429,-302.3475 702,-222.42 737.2441,-202.206 753.2919,-151.6303 758.4938,-131.1931"/>
<polygon fill="#9a32cd" stroke="#9a32cd" points="274.3598,-210.6278 263.7658,-210.4929 271.9634,-217.2049 274.3598,-210.6278"/>
<text text-anchor="middle" x="511" y="-283.02" font-family="Helvetica,sans-Serif" font-size="8.00" fill="#000000"> bnlepCC</text>
<text text-anchor="middle" x="511" y="-274.02" font-family="Helvetica,sans-Serif" font-size="8.00" fill="#000000">bnlep</text>
<text text-anchor="middle" x="511" y="-265.02" font-family="Helvetica,sans-Serif" font-size="8.00" fill="#000000">bnlep2</text>
</g>
<!-- Node5 -->
<g id="node5" class="node">
<title>Node5</title>
<g id="a_node5"><a xlink:href="../../dd/d6f/class_wilson_template.html" target="_top" xlink:title="WilsonTemplate\&lt; gslpp\l::vector\&lt; gslpp::complex \&gt; \&gt;">
<polygon fill="none" stroke="#ff0000" points="345,-145.42 345,-171.42 462,-171.42 462,-145.42 345,-145.42"/>
<text text-anchor="start" x="353" y="-161.02" font-family="Helvetica,sans-Serif" font-size="8.00" fill="#000000">WilsonTemplate&lt; gslpp</text>
<text text-anchor="middle" x="403.5" y="-152.02" font-family="Helvetica,sans-Serif" font-size="8.00" fill="#000000">::vector&lt; gslpp::complex &gt; &gt;</text>
</a>
</g>
</g>
<!-- Node2&#45;&gt;Node5 -->
<g id="edge5" class="edge">
<title>Node2&#45;&gt;Node5</title>
<path fill="none" stroke="#9a32cd" stroke-dasharray="5,2" d="M285.257,-185.1532C304.5434,-180.7928 326.3164,-175.8702 345.8745,-171.4484"/>
<polygon fill="#9a32cd" stroke="#9a32cd" points="284.405,-181.7574 275.423,-187.3766 285.9487,-188.5851 284.405,-181.7574"/>
<text text-anchor="middle" x="303" y="-185.02" font-family="Helvetica,sans-Serif" font-size="8.00" fill="#000000"> elem</text>
</g>
<!-- Node3 -->
<g id="node3" class="node">
<title>Node3</title>
<g id="a_node3"><a xlink:href="../../dd/d59/classgslpp_1_1vector.html" target="_top" xlink:title="A base class for defining operations on vectors, both real and complex. ">
<polygon fill="none" stroke="#000000" points="0,-188.92 0,-205.92 81,-205.92 81,-188.92 0,-188.92"/>
<text text-anchor="middle" x="40.5" y="-195.52" font-family="Helvetica,sans-Serif" font-size="8.00" fill="#000000">gslpp::vector&lt; T &gt;</text>
</a>
</g>
</g>
<!-- Node3&#45;&gt;Node2 -->
<g id="edge2" class="edge">
<title>Node3&#45;&gt;Node2</title>
<path fill="none" stroke="#ffa500" stroke-dasharray="5,2" d="M91.5517,-197.42C121.2904,-197.42 158.4148,-197.42 186.8803,-197.42"/>
<polygon fill="#ffa500" stroke="#ffa500" points="91.3671,-193.9201 81.367,-197.42 91.367,-200.9201 91.3671,-193.9201"/>
<text text-anchor="middle" x="134" y="-200.02" font-family="Helvetica,sans-Serif" font-size="8.00" fill="#000000"> &lt; gslpp::complex &gt;</text>
</g>
<!-- Node4 -->
<g id="node4" class="node">
<title>Node4</title>
<g id="a_node4"><a xlink:href="../../d2/d95/class_wilson_coefficient.html" target="_top" xlink:title="A class for the Wilson coefficients. ">
<polygon fill="none" stroke="#000000" points="546,-122.92 546,-139.92 624,-139.92 624,-122.92 546,-122.92"/>
<text text-anchor="middle" x="585" y="-129.52" font-family="Helvetica,sans-Serif" font-size="8.00" fill="#000000">WilsonCoefficient</text>
</a>
</g>
</g>
<!-- Node4&#45;&gt;Node1 -->
<g id="edge3" class="edge">
<title>Node4&#45;&gt;Node1</title>
<path fill="none" stroke="#9a32cd" stroke-dasharray="5,2" d="M634.2741,-124.0963C636.8838,-123.8361 639.4712,-123.6074 642,-123.42 670.7244,-121.2923 703.4716,-121.1927 727.2509,-121.5393"/>
<polygon fill="#9a32cd" stroke="#9a32cd" points="633.7205,-120.6365 624.1754,-125.2343 634.5044,-127.5924 633.7205,-120.6365"/>
<text text-anchor="middle" x="672" y="-216.02" font-family="Helvetica,sans-Serif" font-size="8.00" fill="#000000"> coeffbnlep11B</text>
<text text-anchor="middle" x="672" y="-207.02" font-family="Helvetica,sans-Serif" font-size="8.00" fill="#000000">coeffbnlep00</text>
<text text-anchor="middle" x="672" y="-198.02" font-family="Helvetica,sans-Serif" font-size="8.00" fill="#000000">coeffbnlep01</text>
<text text-anchor="middle" x="672" y="-189.02" font-family="Helvetica,sans-Serif" font-size="8.00" fill="#000000">coeffbnlep00CC</text>
<text text-anchor="middle" x="672" y="-180.02" font-family="Helvetica,sans-Serif" font-size="8.00" fill="#000000">coeffbnlep01A</text>
<text text-anchor="middle" x="672" y="-171.02" font-family="Helvetica,sans-Serif" font-size="8.00" fill="#000000">coeffbnlep01B</text>
<text text-anchor="middle" x="672" y="-162.02" font-family="Helvetica,sans-Serif" font-size="8.00" fill="#000000">coeffbnlep10</text>
<text text-anchor="middle" x="672" y="-153.02" font-family="Helvetica,sans-Serif" font-size="8.00" fill="#000000">coeffbnlep10qcd</text>
<text text-anchor="middle" x="672" y="-144.02" font-family="Helvetica,sans-Serif" font-size="8.00" fill="#000000">coeffbnlep11</text>
<text text-anchor="middle" x="672" y="-135.02" font-family="Helvetica,sans-Serif" font-size="8.00" fill="#000000">coeffbnlep10CC</text>
<text text-anchor="middle" x="672" y="-126.02" font-family="Helvetica,sans-Serif" font-size="8.00" fill="#000000">...</text>
</g>
<!-- Node5&#45;&gt;Node4 -->
<g id="edge4" class="edge">
<title>Node5&#45;&gt;Node4</title>
<path fill="none" stroke="#191970" d="M472.3241,-148.1817C497.248,-144.4741 524.519,-140.4172 545.9884,-137.2234"/>
<polygon fill="#191970" stroke="#191970" points="471.5533,-144.7578 462.1772,-149.6912 472.5834,-151.6816 471.5533,-144.7578"/>
</g>
<!-- Node8 -->
<g id="node6" class="node">
<title>Node8</title>
<g id="a_node6"><a xlink:href="../../dc/dd5/class_standard_model.html" target="_top" xlink:title="A model class for the Standard Model. ">
<polygon fill="none" stroke="#ff0000" points="549.5,-33.92 549.5,-50.92 620.5,-50.92 620.5,-33.92 549.5,-33.92"/>
<text text-anchor="middle" x="585" y="-40.52" font-family="Helvetica,sans-Serif" font-size="8.00" fill="#000000">StandardModel</text>
</a>
</g>
</g>
<!-- Node8&#45;&gt;Node1 -->
<g id="edge6" class="edge">
<title>Node8&#45;&gt;Node1</title>
<path fill="none" stroke="#9a32cd" stroke-dasharray="5,2" d="M613.2327,-55.2897C649.2903,-71.7262 710.707,-99.7224 741.5882,-113.7993"/>
<polygon fill="#9a32cd" stroke="#9a32cd" points="614.3326,-51.9446 603.7816,-50.9814 611.4291,-58.314 614.3326,-51.9446"/>
<text text-anchor="middle" x="672" y="-96.02" font-family="Helvetica,sans-Serif" font-size="8.00" fill="#000000"> model</text>
</g>
<!-- Node13 -->
<g id="node9" class="node">
<title>Node13</title>
<g id="a_node9"><a xlink:href="../../dc/df3/class_e_w_s_mcache.html" target="_top" xlink:title="A class for cache variables used in computing radiative corrections to the EW precision observables...">
<polygon fill="none" stroke="#ff0000" points="729,-20.92 729,-37.92 792,-37.92 792,-20.92 729,-20.92"/>
<text text-anchor="middle" x="760.5" y="-27.52" font-family="Helvetica,sans-Serif" font-size="8.00" fill="#000000">EWSMcache</text>
</a>
</g>
</g>
<!-- Node8&#45;&gt;Node13 -->
<g id="edge10" class="edge">
<title>Node8&#45;&gt;Node13</title>
<path fill="none" stroke="#9a32cd" stroke-dasharray="5,2" d="M630.8428,-40.7898C652.4527,-39.8369 678.576,-38.4198 702,-36.42 710.7648,-35.6718 720.2427,-34.6363 728.9655,-33.591"/>
<polygon fill="#9a32cd" stroke="#9a32cd" points="630.472,-37.3022 620.6285,-41.2208 630.7672,-44.296 630.472,-37.3022"/>
<text text-anchor="middle" x="672" y="-43.02" font-family="Helvetica,sans-Serif" font-size="8.00" fill="#000000"> SM</text>
</g>
<!-- Node9 -->
<g id="node7" class="node">
<title>Node9</title>
<g id="a_node7"><a xlink:href="../../dd/dfa/class_q_c_d.html" target="_top" xlink:title="A class for parameters related to QCD, hadrons and quarks. ">
<polygon fill="none" stroke="#ff0000" points="386.5,-54.92 386.5,-71.92 420.5,-71.92 420.5,-54.92 386.5,-54.92"/>
<text text-anchor="middle" x="403.5" y="-61.52" font-family="Helvetica,sans-Serif" font-size="8.00" fill="#000000">QCD</text>
</a>
</g>
</g>
<!-- Node9&#45;&gt;Node8 -->
<g id="edge7" class="edge">
<title>Node9&#45;&gt;Node8</title>
<path fill="none" stroke="#191970" d="M430.7716,-60.4344C456.0013,-57.6531 494.5441,-53.3553 528,-49.42 534.9313,-48.6047 542.3339,-47.7119 549.4317,-46.845"/>
<polygon fill="#191970" stroke="#191970" points="430.3849,-56.9557 420.8275,-61.5281 431.1502,-63.9138 430.3849,-56.9557"/>
</g>
<!-- Node12 -->
<g id="node8" class="node">
<title>Node12</title>
<g id="a_node8"><a xlink:href="../../db/d32/class_e_w_s_m_two_fermions_l_e_p2.html" target="_top" xlink:title="A class for the form factors , &#160;and &#160;in the processes &#160;at LEP&#45;II. ">
<polygon fill="none" stroke="#ff0000" points="861,-.92 861,-17.92 970,-17.92 970,-.92 861,-.92"/>
<text text-anchor="middle" x="915.5" y="-7.52" font-family="Helvetica,sans-Serif" font-size="8.00" fill="#000000">EWSMTwoFermionsLEP2</text>
</a>
</g>
</g>
<!-- Node12&#45;&gt;Node8 -->
<g id="edge8" class="edge">
<title>Node12&#45;&gt;Node8</title>
<path fill="none" stroke="#9a32cd" stroke-dasharray="5,2" d="M850.3728,-4.7473C834.2461,-3.7808 817.0028,-2.9088 801,-2.42 765.0168,-1.3211 755.7434,1.8706 720,-2.42 684.574,-6.6726 676.129,-11.0135 642,-21.42 630.0967,-25.0496 617.0563,-29.7949 606.4562,-33.8562"/>
<polygon fill="#9a32cd" stroke="#9a32cd" points="850.5873,-8.2672 860.7848,-5.3929 851.0206,-1.2806 850.5873,-8.2672"/>
<text text-anchor="middle" x="760.5" y="-5.02" font-family="Helvetica,sans-Serif" font-size="8.00" fill="#000000"> myTwoFermionsLEP2</text>
</g>
<!-- Node13&#45;&gt;Node8 -->
<g id="edge11" class="edge">
<title>Node13&#45;&gt;Node8</title>
<path fill="none" stroke="#9a32cd" stroke-dasharray="5,2" d="M718.8984,-25.7755C696.0999,-24.516 667.3932,-24.1348 642,-27.42 631.9533,-28.7198 621.1527,-31.2576 611.6837,-33.8814"/>
<polygon fill="#9a32cd" stroke="#9a32cd" points="718.7245,-29.2714 728.9245,-26.4059 719.1639,-22.2852 718.7245,-29.2714"/>
<text text-anchor="middle" x="672" y="-30.02" font-family="Helvetica,sans-Serif" font-size="8.00" fill="#000000"> myEWSMcache</text>
</g>
<!-- Node13&#45;&gt;Node12 -->
<g id="edge9" class="edge">
<title>Node13&#45;&gt;Node12</title>
<path fill="none" stroke="#9a32cd" stroke-dasharray="5,2" d="M802.1681,-24.0435C820.221,-21.7141 841.6,-18.9555 860.8979,-16.4655"/>
<polygon fill="#9a32cd" stroke="#9a32cd" points="801.7104,-20.5735 792.2406,-25.3245 802.6063,-27.5159 801.7104,-20.5735"/>
<text text-anchor="middle" x="831" y="-25.02" font-family="Helvetica,sans-Serif" font-size="8.00" fill="#000000"> cache</text>
</g>
<!-- Node19 -->
<g id="node10" class="node">
<title>Node19</title>
<g id="a_node10"><a xlink:href="../../d5/d76/class_matching.html" target="_top" xlink:title="Matching\&lt; StandardModelMatching,\l StandardModel \&gt;">
<polygon fill="none" stroke="#ff0000" points="331,-9.42 331,-35.42 476,-35.42 476,-9.42 331,-9.42"/>
<text text-anchor="start" x="339" y="-25.02" font-family="Helvetica,sans-Serif" font-size="8.00" fill="#000000">Matching&lt; StandardModelMatching,</text>
<text text-anchor="middle" x="403.5" y="-16.02" font-family="Helvetica,sans-Serif" font-size="8.00" fill="#000000"> StandardModel &gt;</text>
</a>
</g>
</g>
<!-- Node19&#45;&gt;Node8 -->
<g id="edge12" class="edge">
<title>Node19&#45;&gt;Node8</title>
<path fill="none" stroke="#9a32cd" stroke-dasharray="5,2" d="M486.1723,-31.5299C508.4193,-33.9814 531.3188,-36.5048 549.4661,-38.5045"/>
<polygon fill="#9a32cd" stroke="#9a32cd" points="486.3393,-28.0272 476.0161,-30.4108 485.5725,-34.9851 486.3393,-28.0272"/>
<text text-anchor="middle" x="511" y="-39.02" font-family="Helvetica,sans-Serif" font-size="8.00" fill="#000000"> SMM</text>
</g>
</g>
</svg>
