<?xml version="1.0" encoding="UTF-8" standalone="no"?>
<!DOCTYPE svg PUBLIC "-//W3C//DTD SVG 1.1//EN"
 "http://www.w3.org/Graphics/SVG/1.1/DTD/svg11.dtd">
<!-- Generated by graphviz version 2.38.0 (20140413.2041)
 -->
<!-- Title: NPZbbbarLinearized Pages: 1 -->
<svg width="377pt" height="215pt"
 viewBox="0.00 0.00 377.00 215.00" xmlns="http://www.w3.org/2000/svg" xmlns:xlink="http://www.w3.org/1999/xlink">
<g id="graph0" class="graph" transform="scale(1 1) rotate(0) translate(4 211)">
<title>NPZbbbarLinearized</title>
<!-- Node1 -->
<g id="node1" class="node"><title>Node1</title>
<polygon fill="#bfbfbf" stroke="black" points="0,-0.5 0,-17.5 90,-17.5 90,-0.5 0,-0.5"/>
<text text-anchor="middle" x="45" y="-7.1" font-family="Helvetica,sans-Serif" font-size="8.00">NPZbbbarLinearized</text>
</g>
<!-- Node2 -->
<g id="node2" class="node"><title>Node2</title>
<g id="a_node2"><a xlink:href="../../d2/df3/class_n_pbase.html" target="_top" xlink:title="The auxiliary base model class for other model classes. ">
<polygon fill="none" stroke="black" points="22.5,-63.5 22.5,-80.5 67.5,-80.5 67.5,-63.5 22.5,-63.5"/>
<text text-anchor="middle" x="45" y="-70.1" font-family="Helvetica,sans-Serif" font-size="8.00">NPbase</text>
</a>
</g>
</g>
<!-- Node2&#45;&gt;Node1 -->
<g id="edge1" class="edge"><title>Node2&#45;&gt;Node1</title>
<path fill="none" stroke="midnightblue" d="M45,-53.2698C45,-41.5485 45,-26.7567 45,-17.8556"/>
<polygon fill="midnightblue" stroke="midnightblue" points="41.5001,-53.2743 45,-63.2743 48.5001,-53.2743 41.5001,-53.2743"/>
</g>
<!-- Node3 -->
<g id="node3" class="node"><title>Node3</title>
<g id="a_node3"><a xlink:href="../../dc/dd5/class_standard_model.html" target="_top" xlink:title="A model class for the Standard Model. ">
<polygon fill="none" stroke="red" points="101.5,-126.5 101.5,-143.5 172.5,-143.5 172.5,-126.5 101.5,-126.5"/>
<text text-anchor="middle" x="137" y="-133.1" font-family="Helvetica,sans-Serif" font-size="8.00">StandardModel</text>
</a>
</g>
</g>
<!-- Node3&#45;&gt;Node2 -->
<g id="edge2" class="edge"><title>Node3&#45;&gt;Node2</title>
<path fill="none" stroke="midnightblue" d="M91.3236,-130.203C76.0947,-126.641 60.3818,-120.051 50,-108 43.5097,-100.467 43.2315,-88.4518 43.9021,-80.6442"/>
<polygon fill="midnightblue" stroke="midnightblue" points="90.7147,-133.65 101.2,-132.134 92.0576,-126.78 90.7147,-133.65"/>
</g>
<!-- Node3&#45;&gt;Node2 -->
<g id="edge13" class="edge"><title>Node3&#45;&gt;Node2</title>
<path fill="none" stroke="#9a32cd" stroke-dasharray="5,2" d="M97.5924,-123.061C87.9777,-119.259 78.1296,-114.314 70,-108 60.4461,-100.58 52.9726,-88.5349 48.7723,-80.69"/>
<polygon fill="#9a32cd" stroke="#9a32cd" points="96.4628,-126.374 107.057,-126.491 98.8477,-119.793 96.4628,-126.374"/>
<text text-anchor="middle" x="84.5" y="-101.6" font-family="Helvetica,sans-Serif" font-size="8.00"> trueSM</text>
</g>
<!-- Node5 -->
<g id="node5" class="node"><title>Node5</title>
<g id="a_node5"><a xlink:href="../../dc/df3/class_e_w_s_mcache.html" target="_top" xlink:title="A class for cache variables used in computing radiative corrections to the EW precision observables...">
<polygon fill="none" stroke="red" points="223.5,-63.5 223.5,-80.5 286.5,-80.5 286.5,-63.5 223.5,-63.5"/>
<text text-anchor="middle" x="255" y="-70.1" font-family="Helvetica,sans-Serif" font-size="8.00">EWSMcache</text>
</a>
</g>
</g>
<!-- Node3&#45;&gt;Node5 -->
<g id="edge5" class="edge"><title>Node3&#45;&gt;Node5</title>
<path fill="none" stroke="#9a32cd" stroke-dasharray="5,2" d="M148.533,-118.511C154.313,-111.686 161.819,-104.081 170,-99 186.255,-88.9033 206.706,-82.4877 223.474,-78.556"/>
<polygon fill="#9a32cd" stroke="#9a32cd" points="145.68,-116.476 142.215,-126.488 151.167,-120.822 145.68,-116.476"/>
<text text-anchor="middle" x="177.5" y="-101.6" font-family="Helvetica,sans-Serif" font-size="8.00"> SM</text>
</g>
<!-- Node4 -->
<g id="node4" class="node"><title>Node4</title>
<g id="a_node4"><a xlink:href="../../dd/dfa/class_q_c_d.html" target="_top" xlink:title="A class for parameters related to QCD, hadrons and quarks. ">
<polygon fill="none" stroke="red" points="41,-189.5 41,-206.5 75,-206.5 75,-189.5 41,-189.5"/>
<text text-anchor="middle" x="58" y="-196.1" font-family="Helvetica,sans-Serif" font-size="8.00">QCD</text>
</a>
</g>
</g>
<!-- Node4&#45;&gt;Node3 -->
<g id="edge3" class="edge"><title>Node4&#45;&gt;Node3</title>
<path fill="none" stroke="midnightblue" d="M76.0161,-183.089C91.847,-170.865 114.295,-153.532 127.076,-143.663"/>
<polygon fill="midnightblue" stroke="midnightblue" points="73.7814,-180.392 68.0054,-189.274 78.0596,-185.933 73.7814,-180.392"/>
</g>
<!-- Node5&#45;&gt;Node3 -->
<g id="edge4" class="edge"><title>Node5&#45;&gt;Node3</title>
<path fill="none" stroke="#9a32cd" stroke-dasharray="5,2" d="M231.137,-85.3361C207.455,-97.5781 171.894,-115.962 151.945,-126.274"/>
<polygon fill="#9a32cd" stroke="#9a32cd" points="232.901,-88.3643 240.177,-80.663 229.686,-82.1461 232.901,-88.3643"/>
<text text-anchor="middle" x="234" y="-101.6" font-family="Helvetica,sans-Serif" font-size="8.00"> myEWSMcache</text>
</g>
<!-- Node7 -->
<g id="node7" class="node"><title>Node7</title>
<g id="a_node7"><a xlink:href="../../d5/dad/class_e_w_s_m_three_loop_e_w.html" target="_top" xlink:title="A class for &#160;three&#45;loop corrections to the EW precision observables. ">
<polygon fill="none" stroke="black" points="266.5,-0.5 266.5,-17.5 359.5,-17.5 359.5,-0.5 266.5,-0.5"/>
<text text-anchor="middle" x="313" y="-7.1" font-family="Helvetica,sans-Serif" font-size="8.00">EWSMThreeLoopEW</text>
</a>
</g>
</g>
<!-- Node5&#45;&gt;Node7 -->
<g id="edge8" class="edge"><title>Node5&#45;&gt;Node7</title>
<path fill="none" stroke="#9a32cd" stroke-dasharray="5,2" d="M267.591,-55.5503C272.823,-49.335 279.053,-42.1887 285,-36 291.159,-29.5908 298.542,-22.7675 304.18,-17.7198"/>
<polygon fill="#9a32cd" stroke="#9a32cd" points="264.88,-53.3373 261.197,-63.2713 270.271,-57.8024 264.88,-53.3373"/>
<text text-anchor="middle" x="297" y="-38.6" font-family="Helvetica,sans-Serif" font-size="8.00"> cache</text>
</g>
<!-- Node9 -->
<g id="node9" class="node"><title>Node9</title>
<g id="a_node9"><a xlink:href="../../d5/dde/class_e_w_s_m_approximate_formulae.html" target="_top" xlink:title="A class for approximate formulae of the EW precision observables. ">
<polygon fill="none" stroke="black" points="119,-0.5 119,-17.5 239,-17.5 239,-0.5 119,-0.5"/>
<text text-anchor="middle" x="179" y="-7.1" font-family="Helvetica,sans-Serif" font-size="8.00">EWSMApproximateFormulae</text>
</a>
</g>
</g>
<!-- Node5&#45;&gt;Node9 -->
<g id="edge11" class="edge"><title>Node5&#45;&gt;Node9</title>
<path fill="none" stroke="#9a32cd" stroke-dasharray="5,2" d="M237.292,-56.7872C222.184,-44.661 201.02,-27.6743 188.787,-17.8556"/>
<polygon fill="#9a32cd" stroke="#9a32cd" points="235.385,-59.7444 245.375,-63.2743 239.767,-54.2853 235.385,-59.7444"/>
<text text-anchor="middle" x="239.5" y="-38.6" font-family="Helvetica,sans-Serif" font-size="8.00"> mycache</text>
</g>
<!-- Node6 -->
<g id="node6" class="node"><title>Node6</title>
<g id="a_node6"><a xlink:href="../../d9/db9/class_c_k_m.html" target="_top" xlink:title="A class for the CKM matrix elements. ">
<polygon fill="none" stroke="red" points="93,-189.5 93,-206.5 127,-206.5 127,-189.5 93,-189.5"/>
<text text-anchor="middle" x="110" y="-196.1" font-family="Helvetica,sans-Serif" font-size="8.00">CKM</text>
</a>
</g>
</g>
<!-- Node6&#45;&gt;Node3 -->
<g id="edge6" class="edge"><title>Node6&#45;&gt;Node3</title>
<path fill="none" stroke="#9a32cd" stroke-dasharray="5,2" d="M109.279,-179.402C109.618,-173.654 110.63,-167.372 113,-162 116.174,-154.806 122.174,-148.306 127.38,-143.604"/>
<polygon fill="#9a32cd" stroke="#9a32cd" points="105.779,-179.413 109.272,-189.416 112.779,-179.418 105.779,-179.413"/>
<text text-anchor="middle" x="128.5" y="-164.6" font-family="Helvetica,sans-Serif" font-size="8.00"> myCKM</text>
</g>
<!-- Node7&#45;&gt;Node3 -->
<g id="edge7" class="edge"><title>Node7&#45;&gt;Node3</title>
<path fill="none" stroke="#9a32cd" stroke-dasharray="5,2" d="M311.853,-27.8506C311.259,-33.3989 310.359,-39.5006 309,-45 300.983,-77.4311 297.466,-92.2581 268,-108 238.244,-123.897 199.995,-130.122 172.519,-132.535"/>
<polygon fill="#9a32cd" stroke="#9a32cd" points="315.364,-27.8625 312.694,-17.6096 308.387,-27.2896 315.364,-27.8625"/>
<text text-anchor="middle" x="336.5" y="-70.1" font-family="Helvetica,sans-Serif" font-size="8.00"> myThreeLoopEW</text>
</g>
<!-- Node8 -->
<g id="node8" class="node"><title>Node8</title>
<g id="a_node8"><a xlink:href="../../d4/d6d/class_flavour.html" target="_top" xlink:title="The parent class in Flavour for calculating all the Wilson coefficients for various Flavor Violating ...">
<polygon fill="none" stroke="red" points="145.5,-189.5 145.5,-206.5 188.5,-206.5 188.5,-189.5 145.5,-189.5"/>
<text text-anchor="middle" x="167" y="-196.1" font-family="Helvetica,sans-Serif" font-size="8.00">Flavour</text>
</a>
</g>
</g>
<!-- Node8&#45;&gt;Node3 -->
<g id="edge9" class="edge"><title>Node8&#45;&gt;Node3</title>
<path fill="none" stroke="#9a32cd" stroke-dasharray="5,2" d="M158.635,-179.991C152.817,-168.161 145.331,-152.94 140.863,-143.856"/>
<polygon fill="#9a32cd" stroke="#9a32cd" points="155.647,-181.845 163.2,-189.274 161.928,-178.756 155.647,-181.845"/>
<text text-anchor="middle" x="174" y="-164.6" font-family="Helvetica,sans-Serif" font-size="8.00"> myFlavour</text>
</g>
<!-- Node9&#45;&gt;Node3 -->
<g id="edge10" class="edge"><title>Node9&#45;&gt;Node3</title>
<path fill="none" stroke="#9a32cd" stroke-dasharray="5,2" d="M157.448,-23.3149C144.525,-32.644 129.235,-46.3922 122,-63 112.54,-84.7139 125.064,-112.826 132.385,-126.229"/>
<polygon fill="#9a32cd" stroke="#9a32cd" points="159.583,-26.0955 165.889,-17.5814 155.65,-20.305 159.583,-26.0955"/>
<text text-anchor="middle" x="168" y="-70.1" font-family="Helvetica,sans-Serif" font-size="8.00"> myApproximateFormulae</text>
</g>
<!-- Node10 -->
<g id="node10" class="node"><title>Node10</title>
<g id="a_node10"><a xlink:href="../../de/d85/class_particle.html" target="_top" xlink:title="A class for particles. ">
<polygon fill="none" stroke="black" points="207.5,-189.5 207.5,-206.5 250.5,-206.5 250.5,-189.5 207.5,-189.5"/>
<text text-anchor="middle" x="229" y="-196.1" font-family="Helvetica,sans-Serif" font-size="8.00">Particle</text>
</a>
</g>
</g>
<!-- Node10&#45;&gt;Node3 -->
<g id="edge12" class="edge"><title>Node10&#45;&gt;Node3</title>
<path fill="none" stroke="#9a32cd" stroke-dasharray="5,2" d="M217.52,-181.17C212.155,-174.596 205.335,-167.285 198,-162 186.979,-154.058 173.158,-147.914 161.459,-143.597"/>
<polygon fill="#9a32cd" stroke="#9a32cd" points="214.983,-183.613 223.846,-189.418 220.537,-179.353 214.983,-183.613"/>
<text text-anchor="middle" x="222.5" y="-164.6" font-family="Helvetica,sans-Serif" font-size="8.00"> leptons</text>
</g>
</g>
</svg>
