<?xml version="1.0" encoding="UTF-8" standalone="no"?>
<!DOCTYPE svg PUBLIC "-//W3C//DTD SVG 1.1//EN"
 "http://www.w3.org/Graphics/SVG/1.1/DTD/svg11.dtd">
<!-- Generated by graphviz version 2.40.1 (20161225.0304)
 -->
<!-- Title: MassEigenstate.hpp Pages: 1 -->
<svg width="490pt" height="296pt"
 viewBox="0.00 0.00 489.50 296.00" xmlns="http://www.w3.org/2000/svg" xmlns:xlink="http://www.w3.org/1999/xlink">
<g id="graph0" class="graph" transform="scale(1 1) rotate(0) translate(4 292)">
<title>MassEigenstate.hpp</title>
<!-- Node0 -->
<g id="node1" class="node">
<title>Node0</title>
<polygon fill="#bfbfbf" stroke="#000000" points="171.5,-270.5 171.5,-287.5 260.5,-287.5 260.5,-270.5 171.5,-270.5"/>
<text text-anchor="middle" x="216" y="-277.1" font-family="Helvetica,sans-Serif" font-size="8.00" fill="#000000">MassEigenstate.hpp</text>
</g>
<!-- Node1 -->
<g id="node2" class="node">
<title>Node1</title>
<polygon fill="none" stroke="#bfbfbf" points="318,-.5 318,-17.5 350,-17.5 350,-.5 318,-.5"/>
<text text-anchor="middle" x="334" y="-7.1" font-family="Helvetica,sans-Serif" font-size="8.00" fill="#000000">map</text>
</g>
<!-- Node0&#45;&gt;Node1 -->
<g id="edge1" class="edge">
<title>Node0&#45;&gt;Node1</title>
<path fill="none" stroke="#191970" d="M242.3363,-270.4359C261.1783,-263.2044 286.0976,-251.2451 303,-234 324.8436,-211.7136 334,-202.2062 334,-171 334,-171 334,-171 334,-117 334,-85.6897 334,-49.2735 334,-27.7348"/>
<polygon fill="#191970" stroke="#191970" points="337.5001,-27.6794 334,-17.6795 330.5001,-27.6795 337.5001,-27.6794"/>
</g>
<!-- Node2 -->
<g id="node3" class="node">
<title>Node2</title>
<polygon fill="none" stroke="#bfbfbf" points="22.5,-.5 22.5,-17.5 69.5,-17.5 69.5,-.5 22.5,-.5"/>
<text text-anchor="middle" x="46" y="-7.1" font-family="Helvetica,sans-Serif" font-size="8.00" fill="#000000">iostream</text>
</g>
<!-- Node0&#45;&gt;Node2 -->
<g id="edge2" class="edge">
<title>Node0&#45;&gt;Node2</title>
<path fill="none" stroke="#191970" d="M171.2447,-276.1625C107.9769,-269.4532 0,-246.8866 0,-171 0,-171 0,-171 0,-117 0,-82.5373 20.0712,-46.4798 33.6974,-25.9715"/>
<polygon fill="#191970" stroke="#191970" points="36.6044,-27.9214 39.4093,-17.7046 30.8453,-23.9422 36.6044,-27.9214"/>
</g>
<!-- Node3 -->
<g id="node4" class="node">
<title>Node3</title>
<g id="a_node4"><a xlink:href="../../d8/d14/_b_o_llib_8hpp.html" target="_top" xlink:title="BOLlib/include/BOLlib.hpp">
<polygon fill="none" stroke="#ff0000" points="66,-162.5 66,-179.5 176,-179.5 176,-162.5 66,-162.5"/>
<text text-anchor="middle" x="121" y="-169.1" font-family="Helvetica,sans-Serif" font-size="8.00" fill="#000000">BOLlib/include/BOLlib.hpp</text>
</a>
</g>
</g>
<!-- Node0&#45;&gt;Node3 -->
<g id="edge3" class="edge">
<title>Node0&#45;&gt;Node3</title>
<path fill="none" stroke="#191970" d="M208.7448,-270.3694C198.4543,-258.1663 178.9805,-235.2138 162,-216 153.4077,-206.2777 143.6276,-195.5314 135.7748,-186.9791"/>
<polygon fill="#191970" stroke="#191970" points="138.2874,-184.5408 128.938,-179.5567 133.1387,-189.2833 138.2874,-184.5408"/>
</g>
<!-- Node38 -->
<g id="node8" class="node">
<title>Node38</title>
<g id="a_node8"><a xlink:href="../../db/dbc/_extended_mass_8hpp.html" target="_top" xlink:title="ExtendedMass.hpp">
<polygon fill="none" stroke="#ff0000" points="209.5,-216.5 209.5,-233.5 294.5,-233.5 294.5,-216.5 209.5,-216.5"/>
<text text-anchor="middle" x="252" y="-223.1" font-family="Helvetica,sans-Serif" font-size="8.00" fill="#000000">ExtendedMass.hpp</text>
</a>
</g>
</g>
<!-- Node0&#45;&gt;Node38 -->
<g id="edge10" class="edge">
<title>Node0&#45;&gt;Node38</title>
<path fill="none" stroke="#191970" d="M221.9447,-270.083C226.9773,-262.5341 234.3368,-251.4948 240.5135,-242.2298"/>
<polygon fill="#191970" stroke="#191970" points="243.5311,-244.0131 246.1659,-233.7511 237.7067,-240.1301 243.5311,-244.0131"/>
</g>
<!-- Node41 -->
<g id="node9" class="node">
<title>Node41</title>
<g id="a_node9"><a xlink:href="../../dc/d93/_pointers_with_value_8hpp.html" target="_top" xlink:title="PointersWithValue.hpp">
<polygon fill="none" stroke="#ff0000" points="55,-216.5 55,-233.5 153,-233.5 153,-216.5 55,-216.5"/>
<text text-anchor="middle" x="104" y="-223.1" font-family="Helvetica,sans-Serif" font-size="8.00" fill="#000000">PointersWithValue.hpp</text>
</a>
</g>
</g>
<!-- Node0&#45;&gt;Node41 -->
<g id="edge12" class="edge">
<title>Node0&#45;&gt;Node41</title>
<path fill="none" stroke="#191970" d="M198.0053,-270.324C179.9623,-261.6247 151.9531,-248.1202 131.1973,-238.113"/>
<polygon fill="#191970" stroke="#191970" points="132.4778,-234.8449 121.9501,-233.6545 129.4377,-241.1502 132.4778,-234.8449"/>
</g>
<!-- Node43 -->
<g id="node10" class="node">
<title>Node43</title>
<g id="a_node10"><a xlink:href="../../dd/dde/_map_and_vector_and_bools_8hpp.html" target="_top" xlink:title="MapAndVectorAndBools.hpp">
<polygon fill="none" stroke="#ff0000" points="362.5,-162.5 362.5,-179.5 481.5,-179.5 481.5,-162.5 362.5,-162.5"/>
<text text-anchor="middle" x="422" y="-169.1" font-family="Helvetica,sans-Serif" font-size="8.00" fill="#000000">MapAndVectorAndBools.hpp</text>
</a>
</g>
</g>
<!-- Node0&#45;&gt;Node43 -->
<g id="edge14" class="edge">
<title>Node0&#45;&gt;Node43</title>
<path fill="none" stroke="#191970" d="M252.858,-270.4384C280.2404,-263.1467 317.9008,-251.1106 348,-234 370.5613,-221.1745 392.7253,-201.0181 406.8249,-186.97"/>
<polygon fill="#191970" stroke="#191970" points="409.639,-189.0989 414.1367,-179.5062 404.6385,-184.2004 409.639,-189.0989"/>
</g>
<!-- Node4 -->
<g id="node5" class="node">
<title>Node4</title>
<g id="a_node5"><a xlink:href="../../dc/d4c/_argument_parser_8hpp.html" target="_top" xlink:title="ArgumentParser.hpp">
<polygon fill="none" stroke="#ff0000" points="66,-108.5 66,-125.5 156,-125.5 156,-108.5 66,-108.5"/>
<text text-anchor="middle" x="111" y="-115.1" font-family="Helvetica,sans-Serif" font-size="8.00" fill="#000000">ArgumentParser.hpp</text>
</a>
</g>
</g>
<!-- Node3&#45;&gt;Node4 -->
<g id="edge4" class="edge">
<title>Node3&#45;&gt;Node4</title>
<path fill="none" stroke="#191970" d="M119.3487,-162.083C118.0236,-154.9272 116.1176,-144.6353 114.4613,-135.6911"/>
<polygon fill="#191970" stroke="#191970" points="117.883,-134.9466 112.6206,-125.7511 111.0001,-136.2212 117.883,-134.9466"/>
</g>
<!-- Node8 -->
<g id="node6" class="node">
<title>Node8</title>
<g id="a_node6"><a xlink:href="../../d4/dbc/_ascii_xml_parser_8hpp.html" target="_top" xlink:title="AsciiXmlParser.hpp">
<polygon fill="none" stroke="#ff0000" points="48,-54.5 48,-71.5 134,-71.5 134,-54.5 48,-54.5"/>
<text text-anchor="middle" x="91" y="-61.1" font-family="Helvetica,sans-Serif" font-size="8.00" fill="#000000">AsciiXmlParser.hpp</text>
</a>
</g>
</g>
<!-- Node3&#45;&gt;Node8 -->
<g id="edge8" class="edge">
<title>Node3&#45;&gt;Node8</title>
<path fill="none" stroke="#191970" d="M99.5174,-162.3597C84.6084,-155.0903 65.8893,-143.117 57,-126 48.5564,-109.7411 61.1093,-91.3184 73.2784,-78.6144"/>
<polygon fill="#191970" stroke="#191970" points="75.8632,-80.9835 80.6147,-71.5138 70.9949,-75.9536 75.8632,-80.9835"/>
</g>
<!-- Node20 -->
<g id="node7" class="node">
<title>Node20</title>
<g id="a_node7"><a xlink:href="../../da/d0a/_balanced_partition_candidate_8hpp.html" target="_top" xlink:title="BalancedPartitionCandidate.hpp">
<polygon fill="none" stroke="#ff0000" points="174.5,-108.5 174.5,-125.5 305.5,-125.5 305.5,-108.5 174.5,-108.5"/>
<text text-anchor="middle" x="240" y="-115.1" font-family="Helvetica,sans-Serif" font-size="8.00" fill="#000000">BalancedPartitionCandidate.hpp</text>
</a>
</g>
</g>
<!-- Node3&#45;&gt;Node20 -->
<g id="edge9" class="edge">
<title>Node3&#45;&gt;Node20</title>
<path fill="none" stroke="#191970" d="M139.8559,-162.4435C159.266,-153.6356 189.7301,-139.8116 211.9645,-129.722"/>
<polygon fill="#191970" stroke="#191970" points="213.5723,-132.836 221.2323,-125.5164 210.6797,-126.4615 213.5723,-132.836"/>
</g>
<!-- Node4&#45;&gt;Node8 -->
<g id="edge5" class="edge">
<title>Node4&#45;&gt;Node8</title>
<path fill="none" stroke="#191970" d="M107.6974,-108.083C105.018,-100.8486 101.1514,-90.4087 97.8136,-81.3968"/>
<polygon fill="#191970" stroke="#191970" points="100.9965,-79.9129 94.2411,-71.7511 94.4322,-82.3442 100.9965,-79.9129"/>
</g>
<!-- Node8&#45;&gt;Node1 -->
<g id="edge7" class="edge">
<title>Node8&#45;&gt;Node1</title>
<path fill="none" stroke="#191970" d="M129.5041,-54.4435C179.3463,-43.3675 264.8824,-24.3595 307.8104,-14.8199"/>
<polygon fill="#191970" stroke="#191970" points="308.7561,-18.1952 317.7587,-12.6092 307.2375,-11.3619 308.7561,-18.1952"/>
</g>
<!-- Node8&#45;&gt;Node2 -->
<g id="edge6" class="edge">
<title>Node8&#45;&gt;Node2</title>
<path fill="none" stroke="#191970" d="M83.5692,-54.083C77.1473,-46.3768 67.6944,-35.0333 59.8775,-25.6531"/>
<polygon fill="#191970" stroke="#191970" points="62.3832,-23.1927 53.2926,-17.7511 57.0057,-27.674 62.3832,-23.1927"/>
</g>
<!-- Node38&#45;&gt;Node3 -->
<g id="edge11" class="edge">
<title>Node38&#45;&gt;Node3</title>
<path fill="none" stroke="#191970" d="M231.2427,-216.4435C209.6836,-207.5566 175.7367,-193.5632 151.2062,-183.4514"/>
<polygon fill="#191970" stroke="#191970" points="152.2394,-180.0917 141.6602,-179.5164 149.5717,-186.5634 152.2394,-180.0917"/>
</g>
<!-- Node41&#45;&gt;Node3 -->
<g id="edge13" class="edge">
<title>Node41&#45;&gt;Node3</title>
<path fill="none" stroke="#191970" d="M106.8072,-216.083C109.0847,-208.8486 112.3713,-198.4087 115.2084,-189.3968"/>
<polygon fill="#191970" stroke="#191970" points="118.5806,-190.3406 118.245,-179.7511 111.9036,-188.2385 118.5806,-190.3406"/>
</g>
<!-- Node43&#45;&gt;Node1 -->
<g id="edge15" class="edge">
<title>Node43&#45;&gt;Node1</title>
<path fill="none" stroke="#191970" d="M417.2687,-162.2902C403.3618,-136.6888 362.415,-61.3094 343.6243,-26.7174"/>
<polygon fill="#191970" stroke="#191970" points="346.6036,-24.8695 338.7547,-17.7529 340.4525,-28.2108 346.6036,-24.8695"/>
</g>
</g>
</svg>
