<?xml version="1.0" encoding="UTF-8" standalone="no"?>
<!DOCTYPE svg PUBLIC "-//W3C//DTD SVG 1.1//EN"
 "http://www.w3.org/Graphics/SVG/1.1/DTD/svg11.dtd">
<!-- Generated by graphviz version 2.40.1 (20161225.0304)
 -->
<!-- Title: pMSSM.h Pages: 1 -->
<svg width="166pt" height="80pt"
 viewBox="0.00 0.00 166.00 80.00" xmlns="http://www.w3.org/2000/svg" xmlns:xlink="http://www.w3.org/1999/xlink">
<g id="graph0" class="graph" transform="scale(1 1) rotate(0) translate(4 76)">
<title>pMSSM.h</title>
<!-- Node55 -->
<g id="node1" class="node">
<title>Node55</title>
<polygon fill="#bfbfbf" stroke="#000000" points="58,-54.5 58,-71.5 110,-71.5 110,-54.5 58,-54.5"/>
<text text-anchor="middle" x="84" y="-61.1" font-family="Helvetica,sans-Serif" font-size="8.00" fill="#000000">pMSSM.h</text>
</g>
<!-- Node56 -->
<g id="node2" class="node">
<title>Node56</title>
<g id="a_node2"><a xlink:href="../../d3/df6/_model_factory_8cpp.html" target="_top" xlink:title="ModelFactory.cpp">
<polygon fill="none" stroke="#000000" points="0,-.5 0,-17.5 80,-17.5 80,-.5 0,-.5"/>
<text text-anchor="middle" x="40" y="-7.1" font-family="Helvetica,sans-Serif" font-size="8.00" fill="#000000">ModelFactory.cpp</text>
</a>
</g>
</g>
<!-- Node55&#45;&gt;Node56 -->
<g id="edge1" class="edge">
<title>Node55&#45;&gt;Node56</title>
<path fill="none" stroke="#191970" d="M70.2655,-46.144C62.5995,-36.7357 53.3667,-25.4046 47.1305,-17.7511"/>
<polygon fill="#191970" stroke="#191970" points="67.7042,-48.5415 76.7343,-54.083 73.1309,-44.1198 67.7042,-48.5415"/>
</g>
<!-- Node57 -->
<g id="node3" class="node">
<title>Node57</title>
<g id="a_node3"><a xlink:href="../../d1/d51/p_m_s_s_m_8cpp.html" target="_top" xlink:title="pMSSM.cpp">
<polygon fill="none" stroke="#000000" points="98,-.5 98,-17.5 158,-17.5 158,-.5 98,-.5"/>
<text text-anchor="middle" x="128" y="-7.1" font-family="Helvetica,sans-Serif" font-size="8.00" fill="#000000">pMSSM.cpp</text>
</a>
</g>
</g>
<!-- Node55&#45;&gt;Node57 -->
<g id="edge2" class="edge">
<title>Node55&#45;&gt;Node57</title>
<path fill="none" stroke="#191970" d="M97.7345,-46.144C105.4005,-36.7357 114.6333,-25.4046 120.8695,-17.7511"/>
<polygon fill="#191970" stroke="#191970" points="94.8691,-44.1198 91.2657,-54.083 100.2958,-48.5415 94.8691,-44.1198"/>
</g>
</g>
</svg>
