<?xml version="1.0" encoding="UTF-8" standalone="no"?>
<!DOCTYPE svg PUBLIC "-//W3C//DTD SVG 1.1//EN"
 "http://www.w3.org/Graphics/SVG/1.1/DTD/svg11.dtd">
<!-- Generated by graphviz version 2.40.1 (20161225.0304)
 -->
<!-- Title: AmpDB2 Pages: 1 -->
<svg width="666pt" height="186pt"
 viewBox="0.00 0.00 666.00 186.00" xmlns="http://www.w3.org/2000/svg" xmlns:xlink="http://www.w3.org/1999/xlink">
<g id="graph0" class="graph" transform="scale(1 1) rotate(0) translate(4 182)">
<title>AmpDB2</title>
<!-- Node6 -->
<g id="node1" class="node">
<title>Node6</title>
<polygon fill="#bfbfbf" stroke="#000000" points="424,-145.5 424,-162.5 473,-162.5 473,-145.5 424,-145.5"/>
<text text-anchor="middle" x="448.5" y="-152.1" font-family="Helvetica,sans-Serif" font-size="8.00" fill="#000000">AmpDB2</text>
</g>
<!-- Node7 -->
<g id="node2" class="node">
<title>Node7</title>
<g id="a_node2"><a xlink:href="../../dd/d9b/classgslpp_1_1complex.html" target="_top" xlink:title="A class for defining operations on and functions of complex numbers. ">
<polygon fill="none" stroke="#000000" points="37.5,-160.5 37.5,-177.5 107.5,-177.5 107.5,-160.5 37.5,-160.5"/>
<text text-anchor="middle" x="72.5" y="-167.1" font-family="Helvetica,sans-Serif" font-size="8.00" fill="#000000">gslpp::complex</text>
</a>
</g>
</g>
<!-- Node7&#45;&gt;Node6 -->
<g id="edge1" class="edge">
<title>Node7&#45;&gt;Node6</title>
<path fill="none" stroke="#9a32cd" stroke-dasharray="5,2" d="M117.9467,-168.7656C179.6249,-168.2067 293.2484,-166.3242 390,-160 401.1047,-159.2741 413.3585,-158.0787 423.7697,-156.9451"/>
<polygon fill="#9a32cd" stroke="#9a32cd" points="117.7477,-165.267 107.7771,-168.8499 117.8058,-172.2668 117.7477,-165.267"/>
<text text-anchor="middle" x="276.5" y="-168.6" font-family="Helvetica,sans-Serif" font-size="8.00" fill="#000000"> C_1_SM</text>
</g>
<!-- Node8 -->
<g id="node3" class="node">
<title>Node8</title>
<g id="a_node3"><a xlink:href="../../dc/dd5/class_standard_model.html" target="_top" xlink:title="A model class for the Standard Model. ">
<polygon fill="none" stroke="#ff0000" points="241,-78.5 241,-95.5 312,-95.5 312,-78.5 241,-78.5"/>
<text text-anchor="middle" x="276.5" y="-85.1" font-family="Helvetica,sans-Serif" font-size="8.00" fill="#000000">StandardModel</text>
</a>
</g>
</g>
<!-- Node7&#45;&gt;Node8 -->
<g id="edge13" class="edge">
<title>Node7&#45;&gt;Node8</title>
<path fill="none" stroke="#9a32cd" stroke-dasharray="5,2" d="M111.3036,-157.4057C142.1366,-147.7026 186.0641,-132.7763 223,-116 236.467,-109.8833 251.2048,-101.7837 261.7959,-95.6992"/>
<polygon fill="#9a32cd" stroke="#9a32cd" points="109.8884,-154.1803 101.3782,-160.4911 111.9664,-160.8648 109.8884,-154.1803"/>
<text text-anchor="middle" x="193" y="-149.6" font-family="Helvetica,sans-Serif" font-size="8.00" fill="#000000"> rhoZ_f_cache</text>
<text text-anchor="middle" x="193" y="-140.6" font-family="Helvetica,sans-Serif" font-size="8.00" fill="#000000">kappaZ_f_cache</text>
</g>
<!-- Node8&#45;&gt;Node6 -->
<g id="edge2" class="edge">
<title>Node8&#45;&gt;Node6</title>
<path fill="none" stroke="#9a32cd" stroke-dasharray="5,2" d="M292.2266,-102.5301C302.25,-111.5708 315.9562,-122.4443 330,-129 360.4835,-143.2298 399.1517,-149.438 423.8661,-152.093"/>
<polygon fill="#9a32cd" stroke="#9a32cd" points="294.4312,-99.7989 284.7467,-95.502 289.6379,-104.9003 294.4312,-99.7989"/>
<text text-anchor="middle" x="360" y="-149.6" font-family="Helvetica,sans-Serif" font-size="8.00" fill="#000000"> mySM</text>
</g>
<!-- Node13 -->
<g id="node6" class="node">
<title>Node13</title>
<g id="a_node6"><a xlink:href="../../dc/df3/class_e_w_s_mcache.html" target="_top" xlink:title="A class for cache variables used in computing radiative corrections to the EW precision observables...">
<polygon fill="none" stroke="#ff0000" points="417,-57.5 417,-74.5 480,-74.5 480,-57.5 417,-57.5"/>
<text text-anchor="middle" x="448.5" y="-64.1" font-family="Helvetica,sans-Serif" font-size="8.00" fill="#000000">EWSMcache</text>
</a>
</g>
</g>
<!-- Node8&#45;&gt;Node13 -->
<g id="edge6" class="edge">
<title>Node8&#45;&gt;Node13</title>
<path fill="none" stroke="#9a32cd" stroke-dasharray="5,2" d="M322.3285,-81.4047C352.2144,-77.7558 390.4482,-73.0877 416.9557,-69.8513"/>
<polygon fill="#9a32cd" stroke="#9a32cd" points="321.6406,-77.9626 312.1385,-82.6488 322.489,-84.911 321.6406,-77.9626"/>
<text text-anchor="middle" x="360" y="-82.6" font-family="Helvetica,sans-Serif" font-size="8.00" fill="#000000"> SM</text>
</g>
<!-- Node9 -->
<g id="node4" class="node">
<title>Node9</title>
<g id="a_node4"><a xlink:href="../../dd/dfa/class_q_c_d.html" target="_top" xlink:title="A class for parameters related to QCD, hadrons and quarks. ">
<polygon fill="none" stroke="#ff0000" points="55.5,-118.5 55.5,-135.5 89.5,-135.5 89.5,-118.5 55.5,-118.5"/>
<text text-anchor="middle" x="72.5" y="-125.1" font-family="Helvetica,sans-Serif" font-size="8.00" fill="#000000">QCD</text>
</a>
</g>
</g>
<!-- Node9&#45;&gt;Node8 -->
<g id="edge3" class="edge">
<title>Node9&#45;&gt;Node8</title>
<path fill="none" stroke="#191970" d="M99.4048,-121.7245C135.6865,-114.6105 200.3893,-101.9237 240.7343,-94.0129"/>
<polygon fill="#191970" stroke="#191970" points="98.6817,-118.2996 89.542,-123.6584 100.0287,-125.1688 98.6817,-118.2996"/>
</g>
<!-- Node12 -->
<g id="node5" class="node">
<title>Node12</title>
<g id="a_node5"><a xlink:href="../../db/d32/class_e_w_s_m_two_fermions_l_e_p2.html" target="_top" xlink:title="A class for the form factors , &#160;and &#160;in the processes &#160;at LEP&#45;II. ">
<polygon fill="none" stroke="#ff0000" points="549,-41.5 549,-58.5 658,-58.5 658,-41.5 549,-41.5"/>
<text text-anchor="middle" x="603.5" y="-48.1" font-family="Helvetica,sans-Serif" font-size="8.00" fill="#000000">EWSMTwoFermionsLEP2</text>
</a>
</g>
</g>
<!-- Node12&#45;&gt;Node8 -->
<g id="edge4" class="edge">
<title>Node12&#45;&gt;Node8</title>
<path fill="none" stroke="#9a32cd" stroke-dasharray="5,2" d="M553.7197,-39.7528C497.3266,-30.4722 403.695,-22.2063 330,-51 313.3159,-57.5187 296.5885,-69.9515 286.3891,-78.3595"/>
<polygon fill="#9a32cd" stroke="#9a32cd" points="553.3541,-43.2413 563.803,-41.4888 554.5418,-36.3428 553.3541,-43.2413"/>
<text text-anchor="middle" x="448.5" y="-36.6" font-family="Helvetica,sans-Serif" font-size="8.00" fill="#000000"> myTwoFermionsLEP2</text>
</g>
<!-- Node13&#45;&gt;Node8 -->
<g id="edge7" class="edge">
<title>Node13&#45;&gt;Node8</title>
<path fill="none" stroke="#9a32cd" stroke-dasharray="5,2" d="M406.7763,-58.2018C383.8312,-55.3255 355.0241,-54.0433 330,-60 315.223,-63.5175 299.8998,-71.8048 289.4597,-78.2772"/>
<polygon fill="#9a32cd" stroke="#9a32cd" points="406.4828,-61.6948 416.8716,-59.6153 407.4535,-54.7624 406.4828,-61.6948"/>
<text text-anchor="middle" x="360" y="-62.6" font-family="Helvetica,sans-Serif" font-size="8.00" fill="#000000"> myEWSMcache</text>
</g>
<!-- Node13&#45;&gt;Node12 -->
<g id="edge5" class="edge">
<title>Node13&#45;&gt;Node12</title>
<path fill="none" stroke="#9a32cd" stroke-dasharray="5,2" d="M490.4202,-61.6727C508.4198,-59.8147 529.6897,-57.6191 548.8979,-55.6363"/>
<polygon fill="#9a32cd" stroke="#9a32cd" points="489.8283,-58.2152 480.2406,-62.7236 490.5471,-65.1782 489.8283,-58.2152"/>
<text text-anchor="middle" x="519" y="-61.6" font-family="Helvetica,sans-Serif" font-size="8.00" fill="#000000"> cache</text>
</g>
<!-- Node38 -->
<g id="node10" class="node">
<title>Node38</title>
<g id="a_node10"><a xlink:href="../../d5/dad/class_e_w_s_m_three_loop_e_w.html" target="_top" xlink:title="A class for &#160;three&#45;loop corrections to the EW precision observables. ">
<polygon fill="none" stroke="#000000" points="557,-91.5 557,-108.5 650,-108.5 650,-91.5 557,-91.5"/>
<text text-anchor="middle" x="603.5" y="-98.1" font-family="Helvetica,sans-Serif" font-size="8.00" fill="#000000">EWSMThreeLoopEW</text>
</a>
</g>
</g>
<!-- Node13&#45;&gt;Node38 -->
<g id="edge12" class="edge">
<title>Node13&#45;&gt;Node38</title>
<path fill="none" stroke="#9a32cd" stroke-dasharray="5,2" d="M490.1286,-75.1314C513.2972,-80.2136 541.9536,-86.4995 564.6588,-91.48"/>
<polygon fill="#9a32cd" stroke="#9a32cd" points="490.7583,-71.6864 480.2406,-72.9625 489.2584,-78.5239 490.7583,-71.6864"/>
<text text-anchor="middle" x="519" y="-86.6" font-family="Helvetica,sans-Serif" font-size="8.00" fill="#000000"> cache</text>
</g>
<!-- Node19 -->
<g id="node7" class="node">
<title>Node19</title>
<g id="a_node7"><a xlink:href="../../d5/d76/class_matching.html" target="_top" xlink:title="Matching\&lt; StandardModelMatching,\l StandardModel \&gt;">
<polygon fill="none" stroke="#ff0000" points="0,-73 0,-99 145,-99 145,-73 0,-73"/>
<text text-anchor="start" x="8" y="-88.6" font-family="Helvetica,sans-Serif" font-size="8.00" fill="#000000">Matching&lt; StandardModelMatching,</text>
<text text-anchor="middle" x="72.5" y="-79.6" font-family="Helvetica,sans-Serif" font-size="8.00" fill="#000000"> StandardModel &gt;</text>
</a>
</g>
</g>
<!-- Node19&#45;&gt;Node8 -->
<g id="edge8" class="edge">
<title>Node19&#45;&gt;Node8</title>
<path fill="none" stroke="#9a32cd" stroke-dasharray="5,2" d="M155.3043,-86.4059C185.1521,-86.5522 217.2751,-86.7097 240.9459,-86.8257"/>
<polygon fill="#9a32cd" stroke="#9a32cd" points="155.3018,-82.9059 145.2847,-86.3568 155.2674,-89.9059 155.3018,-82.9059"/>
<text text-anchor="middle" x="193" y="-88.6" font-family="Helvetica,sans-Serif" font-size="8.00" fill="#000000"> SMM</text>
</g>
<!-- Node36 -->
<g id="node8" class="node">
<title>Node36</title>
<g id="a_node8"><a xlink:href="../../d9/db9/class_c_k_m.html" target="_top" xlink:title="A class for the CKM matrix elements. ">
<polygon fill="none" stroke="#ff0000" points="55.5,-36.5 55.5,-53.5 89.5,-53.5 89.5,-36.5 55.5,-36.5"/>
<text text-anchor="middle" x="72.5" y="-43.1" font-family="Helvetica,sans-Serif" font-size="8.00" fill="#000000">CKM</text>
</a>
</g>
</g>
<!-- Node36&#45;&gt;Node8 -->
<g id="edge9" class="edge">
<title>Node36&#45;&gt;Node8</title>
<path fill="none" stroke="#9a32cd" stroke-dasharray="5,2" d="M99.9372,-49.4938C130.1968,-54.5916 180.2654,-63.4463 223,-73 230.3083,-74.6338 238.1298,-76.5718 245.4732,-78.4768"/>
<polygon fill="#9a32cd" stroke="#9a32cd" points="100.1752,-45.9852 89.7355,-47.7912 99.0229,-52.8897 100.1752,-45.9852"/>
<text text-anchor="middle" x="193" y="-75.6" font-family="Helvetica,sans-Serif" font-size="8.00" fill="#000000"> myCKM</text>
</g>
<!-- Node37 -->
<g id="node9" class="node">
<title>Node37</title>
<g id="a_node9"><a xlink:href="../../d5/d59/class_p_m_n_s.html" target="_top" xlink:title="A class for the PMNS matrix elements. ">
<polygon fill="none" stroke="#ff0000" points="52.5,-.5 52.5,-17.5 92.5,-17.5 92.5,-.5 52.5,-.5"/>
<text text-anchor="middle" x="72.5" y="-7.1" font-family="Helvetica,sans-Serif" font-size="8.00" fill="#000000">PMNS</text>
</a>
</g>
</g>
<!-- Node37&#45;&gt;Node8 -->
<g id="edge10" class="edge">
<title>Node37&#45;&gt;Node8</title>
<path fill="none" stroke="#9a32cd" stroke-dasharray="5,2" d="M103.0915,-13.3729C134.3727,-18.6469 183.7992,-29.2352 223,-48 239.7954,-56.0397 256.7583,-69.5218 266.9509,-78.3387"/>
<polygon fill="#9a32cd" stroke="#9a32cd" points="103.2589,-9.855 92.8303,-11.7244 102.1485,-16.7664 103.2589,-9.855"/>
<text text-anchor="middle" x="193" y="-50.6" font-family="Helvetica,sans-Serif" font-size="8.00" fill="#000000"> myPMNS</text>
</g>
<!-- Node38&#45;&gt;Node8 -->
<g id="edge11" class="edge">
<title>Node38&#45;&gt;Node8</title>
<path fill="none" stroke="#9a32cd" stroke-dasharray="5,2" d="M546.6809,-99.9695C491.3159,-99.6038 404.789,-98.1413 330,-93 324.2189,-92.6026 318.0999,-92.0457 312.1459,-91.43"/>
<polygon fill="#9a32cd" stroke="#9a32cd" points="546.9662,-103.4711 556.9857,-100.0272 547.0055,-96.4712 546.9662,-103.4711"/>
<text text-anchor="middle" x="448.5" y="-101.6" font-family="Helvetica,sans-Serif" font-size="8.00" fill="#000000"> myThreeLoopEW</text>
</g>
</g>
</svg>
