<?xml version="1.0" encoding="UTF-8" standalone="no"?>
<!DOCTYPE svg PUBLIC "-//W3C//DTD SVG 1.1//EN"
 "http://www.w3.org/Graphics/SVG/1.1/DTD/svg11.dtd">
<!-- Generated by graphviz version 2.40.1 (20161225.0304)
 -->
<!-- Title: SparseSinglyIndexed.hpp Pages: 1 -->
<svg width="383pt" height="296pt"
 viewBox="0.00 0.00 382.50 296.00" xmlns="http://www.w3.org/2000/svg" xmlns:xlink="http://www.w3.org/1999/xlink">
<g id="graph0" class="graph" transform="scale(1 1) rotate(0) translate(4 292)">
<title>SparseSinglyIndexed.hpp</title>
<!-- Node45 -->
<g id="node1" class="node">
<title>Node45</title>
<polygon fill="#bfbfbf" stroke="#000000" points="59.5,-270.5 59.5,-287.5 167.5,-287.5 167.5,-270.5 59.5,-270.5"/>
<text text-anchor="middle" x="113.5" y="-277.1" font-family="Helvetica,sans-Serif" font-size="8.00" fill="#000000">SparseSinglyIndexed.hpp</text>
</g>
<!-- Node46 -->
<g id="node2" class="node">
<title>Node46</title>
<g id="a_node2"><a xlink:href="../../d4/dc2/_interpreter_classes_8hpp.html" target="_top" xlink:title="InterpreterClasses.hpp">
<polygon fill="none" stroke="#000000" points="0,-216.5 0,-233.5 97,-233.5 97,-216.5 0,-216.5"/>
<text text-anchor="middle" x="48.5" y="-223.1" font-family="Helvetica,sans-Serif" font-size="8.00" fill="#000000">InterpreterClasses.hpp</text>
</a>
</g>
</g>
<!-- Node45&#45;&gt;Node46 -->
<g id="edge1" class="edge">
<title>Node45&#45;&gt;Node46</title>
<path fill="none" stroke="#191970" d="M95.2274,-263.8197C83.5822,-254.1452 68.9005,-241.9481 59.1334,-233.8339"/>
<polygon fill="#191970" stroke="#191970" points="93.1281,-266.6259 103.0566,-270.324 97.6013,-261.2416 93.1281,-266.6259"/>
</g>
<!-- Node64 -->
<g id="node5" class="node">
<title>Node64</title>
<g id="a_node5"><a xlink:href="../../d2/dce/_sparse_singly_indexed_block_8hpp.html" target="_top" xlink:title="SparseSinglyIndexedBlock.hpp">
<polygon fill="none" stroke="#000000" points="115,-216.5 115,-233.5 242,-233.5 242,-216.5 115,-216.5"/>
<text text-anchor="middle" x="178.5" y="-223.1" font-family="Helvetica,sans-Serif" font-size="8.00" fill="#000000">SparseSinglyIndexedBlock.hpp</text>
</a>
</g>
</g>
<!-- Node45&#45;&gt;Node64 -->
<g id="edge4" class="edge">
<title>Node45&#45;&gt;Node64</title>
<path fill="none" stroke="#191970" d="M131.7726,-263.8197C143.4178,-254.1452 158.0995,-241.9481 167.8666,-233.8339"/>
<polygon fill="#191970" stroke="#191970" points="129.3987,-261.2416 123.9434,-270.324 133.8719,-266.6259 129.3987,-261.2416"/>
</g>
<!-- Node47 -->
<g id="node3" class="node">
<title>Node47</title>
<g id="a_node3"><a xlink:href="../../db/d13/_block_classes_8hpp.html" target="_top" xlink:title="BlockClasses.hpp">
<polygon fill="none" stroke="#000000" points="8.5,-162.5 8.5,-179.5 88.5,-179.5 88.5,-162.5 8.5,-162.5"/>
<text text-anchor="middle" x="48.5" y="-169.1" font-family="Helvetica,sans-Serif" font-size="8.00" fill="#000000">BlockClasses.hpp</text>
</a>
</g>
</g>
<!-- Node46&#45;&gt;Node47 -->
<g id="edge2" class="edge">
<title>Node46&#45;&gt;Node47</title>
<path fill="none" stroke="#191970" d="M48.5,-205.8045C48.5,-196.9102 48.5,-186.7798 48.5,-179.7511"/>
<polygon fill="#191970" stroke="#191970" points="45.0001,-206.083 48.5,-216.083 52.0001,-206.083 45.0001,-206.083"/>
</g>
<!-- Node48 -->
<g id="node4" class="node">
<title>Node48</title>
<g id="a_node4"><a xlink:href="../../d4/d42/_s_l_h_a_8hpp.html" target="_top" xlink:title="SLHA.hpp">
<polygon fill="none" stroke="#ff0000" points="108,-.5 108,-17.5 161,-17.5 161,-.5 108,-.5"/>
<text text-anchor="middle" x="134.5" y="-7.1" font-family="Helvetica,sans-Serif" font-size="8.00" fill="#000000">SLHA.hpp</text>
</a>
</g>
</g>
<!-- Node47&#45;&gt;Node48 -->
<g id="edge3" class="edge">
<title>Node47&#45;&gt;Node48</title>
<path fill="none" stroke="#191970" d="M52.0133,-152.5596C57.2018,-128.4758 68.5233,-85.6586 88.5,-54 97.6813,-39.4497 112.4627,-26.1208 122.7841,-17.8091"/>
<polygon fill="#191970" stroke="#191970" points="48.5602,-151.9772 49.9996,-162.4738 55.4201,-153.3706 48.5602,-151.9772"/>
</g>
<!-- Node64&#45;&gt;Node47 -->
<g id="edge5" class="edge">
<title>Node64&#45;&gt;Node47</title>
<path fill="none" stroke="#191970" d="M148.4146,-212.503C124.0433,-202.3795 90.36,-188.388 69.0025,-179.5164"/>
<polygon fill="#191970" stroke="#191970" points="147.3235,-215.8397 157.9011,-216.4435 150.0088,-209.3752 147.3235,-215.8397"/>
</g>
<!-- Node65 -->
<g id="node6" class="node">
<title>Node65</title>
<g id="a_node6"><a xlink:href="../../d5/dae/_block_types_8hpp.html" target="_top" xlink:title="BlockTypes.hpp">
<polygon fill="none" stroke="#ff0000" points="148,-162.5 148,-179.5 221,-179.5 221,-162.5 148,-162.5"/>
<text text-anchor="middle" x="184.5" y="-169.1" font-family="Helvetica,sans-Serif" font-size="8.00" fill="#000000">BlockTypes.hpp</text>
</a>
</g>
</g>
<!-- Node64&#45;&gt;Node65 -->
<g id="edge6" class="edge">
<title>Node64&#45;&gt;Node65</title>
<path fill="none" stroke="#191970" d="M180.5999,-206.1005C181.596,-197.1357 182.738,-186.8579 183.5277,-179.7511"/>
<polygon fill="#191970" stroke="#191970" points="177.1166,-205.7576 179.4908,-216.083 184.0738,-206.5307 177.1166,-205.7576"/>
</g>
<!-- Node65&#45;&gt;Node48 -->
<g id="edge15" class="edge">
<title>Node65&#45;&gt;Node48</title>
<path fill="none" stroke="#191970" d="M163.1384,-156.1614C140.6158,-138.9825 106.7335,-108.3428 94.5,-72 87.3082,-50.6348 108.3717,-29.2085 122.6035,-17.6743"/>
<polygon fill="#191970" stroke="#191970" points="161.3036,-159.1569 171.4299,-162.2728 165.4568,-153.5222 161.3036,-159.1569"/>
</g>
<!-- Node66 -->
<g id="node7" class="node">
<title>Node66</title>
<g id="a_node7"><a xlink:href="../../de/d0c/_flha_one_8hpp.html" target="_top" xlink:title="FlhaOne.hpp">
<polygon fill="none" stroke="#000000" points="103,-54.5 103,-71.5 166,-71.5 166,-54.5 103,-54.5"/>
<text text-anchor="middle" x="134.5" y="-61.1" font-family="Helvetica,sans-Serif" font-size="8.00" fill="#000000">FlhaOne.hpp</text>
</a>
</g>
</g>
<!-- Node65&#45;&gt;Node66 -->
<g id="edge7" class="edge">
<title>Node65&#45;&gt;Node66</title>
<path fill="none" stroke="#191970" d="M167.0828,-155.2699C159.2823,-147.2641 150.6901,-136.9257 145.5,-126 136.9247,-107.9479 134.9702,-84.1353 134.5655,-71.5876"/>
<polygon fill="#191970" stroke="#191970" points="164.8505,-157.9807 174.4641,-162.4336 169.7256,-152.9574 164.8505,-157.9807"/>
</g>
<!-- Node67 -->
<g id="node8" class="node">
<title>Node67</title>
<g id="a_node8"><a xlink:href="../../d7/d9f/_slha_parser_8hpp.html" target="_top" xlink:title="SlhaParser.hpp">
<polygon fill="none" stroke="#ff0000" points="154.5,-108.5 154.5,-125.5 226.5,-125.5 226.5,-108.5 154.5,-108.5"/>
<text text-anchor="middle" x="190.5" y="-115.1" font-family="Helvetica,sans-Serif" font-size="8.00" fill="#000000">SlhaParser.hpp</text>
</a>
</g>
</g>
<!-- Node65&#45;&gt;Node67 -->
<g id="edge9" class="edge">
<title>Node65&#45;&gt;Node67</title>
<path fill="none" stroke="#191970" d="M186.5999,-152.1005C187.596,-143.1357 188.738,-132.8579 189.5277,-125.7511"/>
<polygon fill="#191970" stroke="#191970" points="183.1166,-151.7576 185.4908,-162.083 190.0738,-152.5307 183.1166,-151.7576"/>
</g>
<!-- Node68 -->
<g id="node9" class="node">
<title>Node68</title>
<g id="a_node9"><a xlink:href="../../d7/dc0/_slha_one_8hpp.html" target="_top" xlink:title="SlhaOne.hpp">
<polygon fill="none" stroke="#ff0000" points="223,-54.5 223,-71.5 286,-71.5 286,-54.5 223,-54.5"/>
<text text-anchor="middle" x="254.5" y="-61.1" font-family="Helvetica,sans-Serif" font-size="8.00" fill="#000000">SlhaOne.hpp</text>
</a>
</g>
</g>
<!-- Node65&#45;&gt;Node68 -->
<g id="edge14" class="edge">
<title>Node65&#45;&gt;Node68</title>
<path fill="none" stroke="#191970" d="M206.2307,-156.2427C216.408,-148.3382 227.9289,-137.8025 235.5,-126 246.603,-108.6917 251.4857,-84.577 253.4063,-71.7843"/>
<polygon fill="#191970" stroke="#191970" points="204.0811,-153.4791 198.114,-162.2338 208.2382,-159.1111 204.0811,-153.4791"/>
</g>
<!-- Node74 -->
<g id="node10" class="node">
<title>Node74</title>
<g id="a_node10"><a xlink:href="../../d5/dce/_slha_value_plotter_8hpp.html" target="_top" xlink:title="SlhaValuePlotter.hpp">
<polygon fill="none" stroke="#ff0000" points="282.5,-108.5 282.5,-125.5 374.5,-125.5 374.5,-108.5 282.5,-108.5"/>
<text text-anchor="middle" x="328.5" y="-115.1" font-family="Helvetica,sans-Serif" font-size="8.00" fill="#000000">SlhaValuePlotter.hpp</text>
</a>
</g>
</g>
<!-- Node65&#45;&gt;Node74 -->
<g id="edge16" class="edge">
<title>Node65&#45;&gt;Node74</title>
<path fill="none" stroke="#191970" d="M216.7511,-158.9058C243.8239,-148.7536 281.8165,-134.5063 305.7895,-125.5164"/>
<polygon fill="#191970" stroke="#191970" points="215.4516,-155.6551 207.3172,-162.4435 217.9095,-162.2094 215.4516,-155.6551"/>
</g>
<!-- Node66&#45;&gt;Node48 -->
<g id="edge8" class="edge">
<title>Node66&#45;&gt;Node48</title>
<path fill="none" stroke="#191970" d="M134.5,-43.8045C134.5,-34.9102 134.5,-24.7798 134.5,-17.7511"/>
<polygon fill="#191970" stroke="#191970" points="131.0001,-44.083 134.5,-54.083 138.0001,-44.083 131.0001,-44.083"/>
</g>
<!-- Node67&#45;&gt;Node48 -->
<g id="edge13" class="edge">
<title>Node67&#45;&gt;Node48</title>
<path fill="none" stroke="#191970" d="M188.5507,-98.2695C186.6108,-85.2568 182.8159,-67.8378 175.5,-54 167.794,-39.4242 154.2548,-25.9024 144.8532,-17.5627"/>
<polygon fill="#191970" stroke="#191970" points="185.1004,-98.8843 189.8199,-108.3699 192.0457,-98.0115 185.1004,-98.8843"/>
</g>
<!-- Node67&#45;&gt;Node66 -->
<g id="edge10" class="edge">
<title>Node67&#45;&gt;Node66</title>
<path fill="none" stroke="#191970" d="M174.1701,-101.2533C164.235,-91.6731 151.9125,-79.7906 143.6611,-71.8339"/>
<polygon fill="#191970" stroke="#191970" points="171.8747,-103.902 181.5026,-108.324 176.7336,-98.8631 171.8747,-103.902"/>
</g>
<!-- Node67&#45;&gt;Node68 -->
<g id="edge11" class="edge">
<title>Node67&#45;&gt;Node68</title>
<path fill="none" stroke="#191970" d="M208.4915,-101.8197C219.9576,-92.1452 234.4133,-79.9481 244.0302,-71.8339"/>
<polygon fill="#191970" stroke="#191970" points="206.1686,-99.2002 200.7827,-108.324 210.6827,-104.5502 206.1686,-99.2002"/>
</g>
<!-- Node68&#45;&gt;Node48 -->
<g id="edge12" class="edge">
<title>Node68&#45;&gt;Node48</title>
<path fill="none" stroke="#191970" d="M226.1269,-50.2321C203.6804,-40.1312 172.9648,-26.3091 153.4254,-17.5164"/>
<polygon fill="#191970" stroke="#191970" points="224.9301,-53.5316 235.4856,-54.4435 227.8027,-47.1481 224.9301,-53.5316"/>
</g>
</g>
</svg>
