<?xml version="1.0" encoding="UTF-8" standalone="no"?>
<!DOCTYPE svg PUBLIC "-//W3C//DTD SVG 1.1//EN"
 "http://www.w3.org/Graphics/SVG/1.1/DTD/svg11.dtd">
<!-- Generated by graphviz version 2.40.1 (20161225.0304)
 -->
<!-- Title: SlhaValueColoredSegments.cpp Pages: 1 -->
<svg width="463pt" height="197pt"
 viewBox="0.00 0.00 462.61 197.00" xmlns="http://www.w3.org/2000/svg" xmlns:xlink="http://www.w3.org/1999/xlink">
<g id="graph0" class="graph" transform="scale(1 1) rotate(0) translate(4 193)">
<title>SlhaValueColoredSegments.cpp</title>
<!-- Node0 -->
<g id="node1" class="node">
<title>Node0</title>
<polygon fill="#bfbfbf" stroke="#000000" points="229.5,-171.5 229.5,-188.5 361.5,-188.5 361.5,-171.5 229.5,-171.5"/>
<text text-anchor="middle" x="295.5" y="-178.1" font-family="Helvetica,sans-Serif" font-size="8.00" fill="#000000">SlhaValueColoredSegments.cpp</text>
</g>
<!-- Node1 -->
<g id="node2" class="node">
<title>Node1</title>
<g id="a_node2"><a xlink:href="../../d1/d4c/_slha_value_colored_segments_8hpp.html" target="_top" xlink:title="../../include/SSP/SlhaValue\lColoredSegments.hpp">
<polygon fill="none" stroke="#ff0000" points="239.5,-108.5 239.5,-134.5 351.5,-134.5 351.5,-108.5 239.5,-108.5"/>
<text text-anchor="start" x="247.5" y="-124.1" font-family="Helvetica,sans-Serif" font-size="8.00" fill="#000000">../../include/SSP/SlhaValue</text>
<text text-anchor="middle" x="295.5" y="-115.1" font-family="Helvetica,sans-Serif" font-size="8.00" fill="#000000">ColoredSegments.hpp</text>
</a>
</g>
</g>
<!-- Node0&#45;&gt;Node1 -->
<g id="edge1" class="edge">
<title>Node0&#45;&gt;Node1</title>
<path fill="none" stroke="#191970" d="M295.5,-171.3681C295.5,-164.3481 295.5,-154.1043 295.5,-144.7246"/>
<polygon fill="#191970" stroke="#191970" points="299.0001,-144.7197 295.5,-134.7197 292.0001,-144.7198 299.0001,-144.7197"/>
</g>
<!-- Node2 -->
<g id="node3" class="node">
<title>Node2</title>
<polygon fill="none" stroke="#bfbfbf" points="86.5,-.5 86.5,-17.5 122.5,-17.5 122.5,-.5 86.5,-.5"/>
<text text-anchor="middle" x="104.5" y="-7.1" font-family="Helvetica,sans-Serif" font-size="8.00" fill="#000000">string</text>
</g>
<!-- Node1&#45;&gt;Node2 -->
<g id="edge2" class="edge">
<title>Node1&#45;&gt;Node2</title>
<path fill="none" stroke="#191970" d="M239.4926,-118.0901C175.2124,-112.871 75.6509,-100.3423 52.5,-72 38.6513,-55.0459 60.4088,-35.6325 79.8687,-22.8895"/>
<polygon fill="#191970" stroke="#191970" points="81.853,-25.7775 88.5119,-17.5368 78.1674,-19.8263 81.853,-25.7775"/>
</g>
<!-- Node3 -->
<g id="node4" class="node">
<title>Node3</title>
<polygon fill="none" stroke="#bfbfbf" points="224.5,-.5 224.5,-17.5 256.5,-17.5 256.5,-.5 224.5,-.5"/>
<text text-anchor="middle" x="240.5" y="-7.1" font-family="Helvetica,sans-Serif" font-size="8.00" fill="#000000">map</text>
</g>
<!-- Node1&#45;&gt;Node3 -->
<g id="edge3" class="edge">
<title>Node1&#45;&gt;Node3</title>
<path fill="none" stroke="#191970" d="M351.7406,-113.9937C400.6175,-105.0971 459.7797,-87.112 433.5,-54 412.9624,-28.123 314.6289,-15.7465 266.7756,-11.1774"/>
<polygon fill="#191970" stroke="#191970" points="266.8486,-7.6697 256.5726,-10.2491 266.2143,-14.6409 266.8486,-7.6697"/>
</g>
<!-- Node4 -->
<g id="node5" class="node">
<title>Node4</title>
<polygon fill="none" stroke="#bfbfbf" points="0,-.5 0,-17.5 43,-17.5 43,-.5 0,-.5"/>
<text text-anchor="middle" x="21.5" y="-7.1" font-family="Helvetica,sans-Serif" font-size="8.00" fill="#000000">fstream</text>
</g>
<!-- Node1&#45;&gt;Node4 -->
<g id="edge4" class="edge">
<title>Node1&#45;&gt;Node4</title>
<path fill="none" stroke="#191970" d="M239.2648,-116.8041C174.4594,-110.3189 73.1864,-96.5439 44.5,-72 31.6549,-61.0098 25.9818,-42.2218 23.4773,-28.0159"/>
<polygon fill="#191970" stroke="#191970" points="26.9074,-27.2686 22.0716,-17.8418 19.9733,-28.2268 26.9074,-27.2686"/>
</g>
<!-- Node5 -->
<g id="node6" class="node">
<title>Node5</title>
<polygon fill="none" stroke="#bfbfbf" points="372.5,-.5 372.5,-17.5 410.5,-17.5 410.5,-.5 372.5,-.5"/>
<text text-anchor="middle" x="391.5" y="-7.1" font-family="Helvetica,sans-Serif" font-size="8.00" fill="#000000">vector</text>
</g>
<!-- Node1&#45;&gt;Node5 -->
<g id="edge5" class="edge">
<title>Node1&#45;&gt;Node5</title>
<path fill="none" stroke="#191970" d="M351.6559,-110.7977C390.9602,-102.0335 438.5036,-88.4244 450.5,-72 464.0339,-53.4706 440.2685,-34.5678 418.9824,-22.3676"/>
<polygon fill="#191970" stroke="#191970" points="420.5874,-19.2565 410.1276,-17.57 417.2527,-25.4112 420.5874,-19.2565"/>
</g>
<!-- Node6 -->
<g id="node7" class="node">
<title>Node6</title>
<polygon fill="none" stroke="#bfbfbf" points="333,-54.5 333,-71.5 368,-71.5 368,-54.5 333,-54.5"/>
<text text-anchor="middle" x="350.5" y="-61.1" font-family="Helvetica,sans-Serif" font-size="8.00" fill="#000000">utility</text>
</g>
<!-- Node1&#45;&gt;Node6 -->
<g id="edge6" class="edge">
<title>Node1&#45;&gt;Node6</title>
<path fill="none" stroke="#191970" d="M307.9804,-108.2254C316.1188,-99.5691 326.7888,-88.2201 335.4041,-79.0565"/>
<polygon fill="#191970" stroke="#191970" points="338.0311,-81.3721 342.3309,-71.689 332.9311,-76.5772 338.0311,-81.3721"/>
</g>
<!-- Node7 -->
<g id="node8" class="node">
<title>Node7</title>
<polygon fill="none" stroke="#bfbfbf" points="386.5,-54.5 386.5,-71.5 424.5,-71.5 424.5,-54.5 386.5,-54.5"/>
<text text-anchor="middle" x="405.5" y="-61.1" font-family="Helvetica,sans-Serif" font-size="8.00" fill="#000000">cmath</text>
</g>
<!-- Node1&#45;&gt;Node7 -->
<g id="edge7" class="edge">
<title>Node1&#45;&gt;Node7</title>
<path fill="none" stroke="#191970" d="M320.1861,-108.3715C338.037,-98.878 362.0835,-86.0897 380.0973,-76.5096"/>
<polygon fill="#191970" stroke="#191970" points="382.2209,-79.3445 389.4066,-71.5588 378.9341,-73.1641 382.2209,-79.3445"/>
</g>
<!-- Node8 -->
<g id="node9" class="node">
<title>Node8</title>
<g id="a_node9"><a xlink:href="../../d7/d12/_slha_simplistic_interpreter_8hpp.html" target="_top" xlink:title="../SLHA/SlhaSimplisticInterpreter.hpp">
<polygon fill="none" stroke="#ff0000" points="166,-54.5 166,-71.5 315,-71.5 315,-54.5 166,-54.5"/>
<text text-anchor="middle" x="240.5" y="-61.1" font-family="Helvetica,sans-Serif" font-size="8.00" fill="#000000">../SLHA/SlhaSimplisticInterpreter.hpp</text>
</a>
</g>
</g>
<!-- Node1&#45;&gt;Node8 -->
<g id="edge8" class="edge">
<title>Node1&#45;&gt;Node8</title>
<path fill="none" stroke="#191970" d="M283.0196,-108.2254C274.8812,-99.5691 264.2112,-88.2201 255.5959,-79.0565"/>
<polygon fill="#191970" stroke="#191970" points="258.0689,-76.5772 248.6691,-71.689 252.9689,-81.3721 258.0689,-76.5772"/>
</g>
<!-- Node13 -->
<g id="node10" class="node">
<title>Node13</title>
<g id="a_node10"><a xlink:href="../../d4/dbc/_ascii_xml_parser_8hpp.html" target="_top" xlink:title="AsciiXmlParser.hpp">
<polygon fill="none" stroke="#ff0000" points="61.5,-54.5 61.5,-71.5 147.5,-71.5 147.5,-54.5 61.5,-54.5"/>
<text text-anchor="middle" x="104.5" y="-61.1" font-family="Helvetica,sans-Serif" font-size="8.00" fill="#000000">AsciiXmlParser.hpp</text>
</a>
</g>
</g>
<!-- Node1&#45;&gt;Node13 -->
<g id="edge12" class="edge">
<title>Node1&#45;&gt;Node13</title>
<path fill="none" stroke="#191970" d="M252.6359,-108.3715C219.4878,-98.2188 174.0358,-84.2976 142.2507,-74.5624"/>
<polygon fill="#191970" stroke="#191970" points="143.0306,-71.1408 132.444,-71.5588 140.9806,-77.8339 143.0306,-71.1408"/>
</g>
<!-- Node8&#45;&gt;Node2 -->
<g id="edge9" class="edge">
<title>Node8&#45;&gt;Node2</title>
<path fill="none" stroke="#191970" d="M218.9504,-54.4435C195.5433,-45.1495 158.0704,-30.2706 132.4234,-20.0872"/>
<polygon fill="#191970" stroke="#191970" points="133.4815,-16.7416 122.8957,-16.3042 130.8982,-23.2475 133.4815,-16.7416"/>
</g>
<!-- Node8&#45;&gt;Node3 -->
<g id="edge11" class="edge">
<title>Node8&#45;&gt;Node3</title>
<path fill="none" stroke="#191970" d="M240.5,-54.083C240.5,-47.0059 240.5,-36.8611 240.5,-27.9865"/>
<polygon fill="#191970" stroke="#191970" points="244.0001,-27.751 240.5,-17.7511 237.0001,-27.7511 244.0001,-27.751"/>
</g>
<!-- Node8&#45;&gt;Node5 -->
<g id="edge10" class="edge">
<title>Node8&#45;&gt;Node5</title>
<path fill="none" stroke="#191970" d="M264.4264,-54.4435C291.0896,-44.9084 334.1909,-29.4946 362.6865,-19.3042"/>
<polygon fill="#191970" stroke="#191970" points="364.2292,-22.4696 372.4666,-15.8067 361.872,-15.8784 364.2292,-22.4696"/>
</g>
<!-- Node13&#45;&gt;Node2 -->
<g id="edge14" class="edge">
<title>Node13&#45;&gt;Node2</title>
<path fill="none" stroke="#191970" d="M104.5,-54.083C104.5,-47.0059 104.5,-36.8611 104.5,-27.9865"/>
<polygon fill="#191970" stroke="#191970" points="108.0001,-27.751 104.5,-17.7511 101.0001,-27.7511 108.0001,-27.751"/>
</g>
<!-- Node13&#45;&gt;Node3 -->
<g id="edge15" class="edge">
<title>Node13&#45;&gt;Node3</title>
<path fill="none" stroke="#191970" d="M126.0496,-54.4435C150.1179,-44.887 189.058,-29.4255 214.7212,-19.2357"/>
<polygon fill="#191970" stroke="#191970" points="216.1708,-22.426 224.1734,-15.4826 213.5876,-15.9201 216.1708,-22.426"/>
</g>
<!-- Node13&#45;&gt;Node4 -->
<g id="edge13" class="edge">
<title>Node13&#45;&gt;Node4</title>
<path fill="none" stroke="#191970" d="M91.1646,-54.324C78.338,-45.979 58.715,-33.2122 43.5602,-23.3524"/>
<polygon fill="#191970" stroke="#191970" points="45.0932,-20.1742 34.8023,-17.6545 41.2757,-26.0417 45.0932,-20.1742"/>
</g>
</g>
</svg>
