<?xml version="1.0" encoding="UTF-8" standalone="no"?>
<!DOCTYPE svg PUBLIC "-//W3C//DTD SVG 1.1//EN"
 "http://www.w3.org/Graphics/SVG/1.1/DTD/svg11.dtd">
<!-- Generated by graphviz version 2.40.1 (20161225.0304)
 -->
<!-- Title: NPEpsilons.cpp Pages: 1 -->
<svg width="348pt" height="296pt"
 viewBox="0.00 0.00 348.00 296.00" xmlns="http://www.w3.org/2000/svg" xmlns:xlink="http://www.w3.org/1999/xlink">
<g id="graph0" class="graph" transform="scale(1 1) rotate(0) translate(4 292)">
<title>NPEpsilons.cpp</title>
<!-- Node0 -->
<g id="node1" class="node">
<title>Node0</title>
<polygon fill="#bfbfbf" stroke="#000000" points="128.5,-270.5 128.5,-287.5 201.5,-287.5 201.5,-270.5 128.5,-270.5"/>
<text text-anchor="middle" x="165" y="-277.1" font-family="Helvetica,sans-Serif" font-size="8.00" fill="#000000">NPEpsilons.cpp</text>
</g>
<!-- Node1 -->
<g id="node2" class="node">
<title>Node1</title>
<g id="a_node2"><a xlink:href="../../d1/d81/_n_p_epsilons_8h.html" target="_top" xlink:title="NPEpsilons.h">
<polygon fill="none" stroke="#000000" points="94.5,-216.5 94.5,-233.5 159.5,-233.5 159.5,-216.5 94.5,-216.5"/>
<text text-anchor="middle" x="127" y="-223.1" font-family="Helvetica,sans-Serif" font-size="8.00" fill="#000000">NPEpsilons.h</text>
</a>
</g>
</g>
<!-- Node0&#45;&gt;Node1 -->
<g id="edge1" class="edge">
<title>Node0&#45;&gt;Node1</title>
<path fill="none" stroke="#191970" d="M158.7251,-270.083C153.3575,-262.4554 145.4824,-251.2645 138.9213,-241.9408"/>
<polygon fill="#191970" stroke="#191970" points="141.7755,-239.9149 133.1582,-233.7511 136.0508,-243.9434 141.7755,-239.9149"/>
</g>
<!-- Node11 -->
<g id="node10" class="node">
<title>Node11</title>
<polygon fill="none" stroke="#bfbfbf" points="177.5,-216.5 177.5,-233.5 228.5,-233.5 228.5,-216.5 177.5,-216.5"/>
<text text-anchor="middle" x="203" y="-223.1" font-family="Helvetica,sans-Serif" font-size="8.00" fill="#000000">stdexcept</text>
</g>
<!-- Node0&#45;&gt;Node11 -->
<g id="edge10" class="edge">
<title>Node0&#45;&gt;Node11</title>
<path fill="none" stroke="#191970" d="M171.2749,-270.083C176.6425,-262.4554 184.5176,-251.2645 191.0787,-241.9408"/>
<polygon fill="#191970" stroke="#191970" points="193.9492,-243.9434 196.8418,-233.7511 188.2245,-239.9149 193.9492,-243.9434"/>
</g>
<!-- Node2 -->
<g id="node3" class="node">
<title>Node2</title>
<g id="a_node3"><a xlink:href="../../d2/de8/_n_pbase_8h.html" target="_top" xlink:title="NPbase.h">
<polygon fill="none" stroke="#000000" points="101,-162.5 101,-179.5 153,-179.5 153,-162.5 101,-162.5"/>
<text text-anchor="middle" x="127" y="-169.1" font-family="Helvetica,sans-Serif" font-size="8.00" fill="#000000">NPbase.h</text>
</a>
</g>
</g>
<!-- Node1&#45;&gt;Node2 -->
<g id="edge2" class="edge">
<title>Node1&#45;&gt;Node2</title>
<path fill="none" stroke="#191970" d="M127,-216.083C127,-209.0059 127,-198.8611 127,-189.9865"/>
<polygon fill="#191970" stroke="#191970" points="130.5001,-189.751 127,-179.7511 123.5001,-189.7511 130.5001,-189.751"/>
</g>
<!-- Node3 -->
<g id="node4" class="node">
<title>Node3</title>
<g id="a_node4"><a xlink:href="../../d6/d0a/_standard_model_8h.html" target="_top" xlink:title="StandardModel.h">
<polygon fill="none" stroke="#ff0000" points="88.5,-108.5 88.5,-125.5 165.5,-125.5 165.5,-108.5 88.5,-108.5"/>
<text text-anchor="middle" x="127" y="-115.1" font-family="Helvetica,sans-Serif" font-size="8.00" fill="#000000">StandardModel.h</text>
</a>
</g>
</g>
<!-- Node2&#45;&gt;Node3 -->
<g id="edge3" class="edge">
<title>Node2&#45;&gt;Node3</title>
<path fill="none" stroke="#191970" d="M127,-162.083C127,-155.0059 127,-144.8611 127,-135.9865"/>
<polygon fill="#191970" stroke="#191970" points="130.5001,-135.751 127,-125.7511 123.5001,-135.7511 130.5001,-135.751"/>
</g>
<!-- Node4 -->
<g id="node5" class="node">
<title>Node4</title>
<g id="a_node5"><a xlink:href="../../d2/d65/_flavour_8h.html" target="_top" xlink:title="Flavour.h">
<polygon fill="none" stroke="#ff0000" points="0,-54.5 0,-71.5 50,-71.5 50,-54.5 0,-54.5"/>
<text text-anchor="middle" x="25" y="-61.1" font-family="Helvetica,sans-Serif" font-size="8.00" fill="#000000">Flavour.h</text>
</a>
</g>
</g>
<!-- Node3&#45;&gt;Node4 -->
<g id="edge4" class="edge">
<title>Node3&#45;&gt;Node4</title>
<path fill="none" stroke="#191970" d="M110.6119,-108.324C94.3287,-99.7034 69.1325,-86.3643 50.2837,-76.3855"/>
<polygon fill="#191970" stroke="#191970" points="51.8229,-73.2402 41.3474,-71.6545 48.5477,-79.4267 51.8229,-73.2402"/>
</g>
<!-- Node5 -->
<g id="node6" class="node">
<title>Node5</title>
<g id="a_node6"><a xlink:href="../../d4/d68/_q_c_d_8h.html" target="_top" xlink:title="QCD.h">
<polygon fill="none" stroke="#ff0000" points="30.5,-.5 30.5,-17.5 71.5,-17.5 71.5,-.5 30.5,-.5"/>
<text text-anchor="middle" x="51" y="-7.1" font-family="Helvetica,sans-Serif" font-size="8.00" fill="#000000">QCD.h</text>
</a>
</g>
</g>
<!-- Node3&#45;&gt;Node5 -->
<g id="edge6" class="edge">
<title>Node3&#45;&gt;Node5</title>
<path fill="none" stroke="#191970" d="M120.7806,-108.1619C108.1367,-90.1943 79.2476,-49.1413 62.8812,-25.8838"/>
<polygon fill="#191970" stroke="#191970" points="65.7102,-23.8222 57.0929,-17.6584 59.9856,-27.8507 65.7102,-23.8222"/>
</g>
<!-- Node28 -->
<g id="node7" class="node">
<title>Node28</title>
<g id="a_node7"><a xlink:href="../../db/d5d/_c_k_m_8h.html" target="_top" xlink:title="CKM.h">
<polygon fill="none" stroke="#ff0000" points="106.5,-54.5 106.5,-71.5 147.5,-71.5 147.5,-54.5 106.5,-54.5"/>
<text text-anchor="middle" x="127" y="-61.1" font-family="Helvetica,sans-Serif" font-size="8.00" fill="#000000">CKM.h</text>
</a>
</g>
</g>
<!-- Node3&#45;&gt;Node28 -->
<g id="edge7" class="edge">
<title>Node3&#45;&gt;Node28</title>
<path fill="none" stroke="#191970" d="M127,-108.083C127,-101.0059 127,-90.8611 127,-81.9865"/>
<polygon fill="#191970" stroke="#191970" points="130.5001,-81.751 127,-71.7511 123.5001,-81.7511 130.5001,-81.751"/>
</g>
<!-- Node39 -->
<g id="node8" class="node">
<title>Node39</title>
<g id="a_node8"><a xlink:href="../../d9/d22/_p_m_n_s_8h.html" target="_top" xlink:title="PMNS.h">
<polygon fill="none" stroke="#ff0000" points="166,-54.5 166,-71.5 212,-71.5 212,-54.5 166,-54.5"/>
<text text-anchor="middle" x="189" y="-61.1" font-family="Helvetica,sans-Serif" font-size="8.00" fill="#000000">PMNS.h</text>
</a>
</g>
</g>
<!-- Node3&#45;&gt;Node39 -->
<g id="edge8" class="edge">
<title>Node3&#45;&gt;Node39</title>
<path fill="none" stroke="#191970" d="M136.9614,-108.324C146.1266,-100.3414 159.9372,-88.3128 171.0282,-78.6529"/>
<polygon fill="#191970" stroke="#191970" points="173.6153,-81.041 178.8574,-71.8339 169.0178,-75.7624 173.6153,-81.041"/>
</g>
<!-- Node40 -->
<g id="node9" class="node">
<title>Node40</title>
<g id="a_node9"><a xlink:href="../../d6/d16/_standard_model_matching_8h.html" target="_top" xlink:title="StandardModelMatching.h">
<polygon fill="none" stroke="#ff0000" points="230,-54.5 230,-71.5 340,-71.5 340,-54.5 230,-54.5"/>
<text text-anchor="middle" x="285" y="-61.1" font-family="Helvetica,sans-Serif" font-size="8.00" fill="#000000">StandardModelMatching.h</text>
</a>
</g>
</g>
<!-- Node3&#45;&gt;Node40 -->
<g id="edge9" class="edge">
<title>Node3&#45;&gt;Node40</title>
<path fill="none" stroke="#191970" d="M152.0356,-108.4435C178.616,-99.3591 220.8088,-84.9388 250.5234,-74.7831"/>
<polygon fill="#191970" stroke="#191970" points="251.7509,-78.0625 260.0816,-71.5164 249.487,-71.4386 251.7509,-78.0625"/>
</g>
<!-- Node4&#45;&gt;Node5 -->
<g id="edge5" class="edge">
<title>Node4&#45;&gt;Node5</title>
<path fill="none" stroke="#191970" d="M29.2934,-54.083C32.8523,-46.6913 38.0225,-35.9533 42.4243,-26.8111"/>
<polygon fill="#191970" stroke="#191970" points="45.6018,-28.2795 46.7865,-17.7511 39.2948,-25.2427 45.6018,-28.2795"/>
</g>
</g>
</svg>
