<?xml version="1.0" encoding="UTF-8" standalone="no"?>
<!DOCTYPE svg PUBLIC "-//W3C//DTD SVG 1.1//EN"
 "http://www.w3.org/Graphics/SVG/1.1/DTD/svg11.dtd">
<!-- Generated by graphviz version 2.38.0 (20140413.2041)
 -->
<!-- Title: EWSMApproximateFormulae Pages: 1 -->
<svg width="496pt" height="279pt"
 viewBox="0.00 0.00 495.50 279.00" xmlns="http://www.w3.org/2000/svg" xmlns:xlink="http://www.w3.org/1999/xlink">
<g id="graph0" class="graph" transform="scale(1 1) rotate(0) translate(4 275)">
<title>EWSMApproximateFormulae</title>
<!-- Node1 -->
<g id="node1" class="node"><title>Node1</title>
<polygon fill="#bfbfbf" stroke="black" points="137,-198.5 137,-215.5 257,-215.5 257,-198.5 137,-198.5"/>
<text text-anchor="middle" x="197" y="-205.1" font-family="Helvetica,sans-Serif" font-size="8.00">EWSMApproximateFormulae</text>
</g>
<!-- Node7 -->
<g id="node7" class="node"><title>Node7</title>
<g id="a_node7"><a xlink:href="../../dc/dd5/class_standard_model.html" target="_top" xlink:title="A model class for the Standard Model. ">
<polygon fill="none" stroke="red" points="64.5,-126.5 64.5,-143.5 135.5,-143.5 135.5,-126.5 64.5,-126.5"/>
<text text-anchor="middle" x="100" y="-133.1" font-family="Helvetica,sans-Serif" font-size="8.00">StandardModel</text>
</a>
</g>
</g>
<!-- Node1&#45;&gt;Node7 -->
<g id="edge14" class="edge"><title>Node1&#45;&gt;Node7</title>
<path fill="none" stroke="#9a32cd" stroke-dasharray="5,2" d="M150.053,-194.986C140.733,-191.296 131.517,-186.419 124,-180 112.487,-170.168 105.537,-153.374 102.266,-143.625"/>
<polygon fill="#9a32cd" stroke="#9a32cd" points="149.141,-198.376 159.736,-198.417 151.479,-191.778 149.141,-198.376"/>
<text text-anchor="middle" x="170" y="-169.1" font-family="Helvetica,sans-Serif" font-size="8.00"> myApproximateFormulae</text>
</g>
<!-- Node2 -->
<g id="node2" class="node"><title>Node2</title>
<g id="a_node2"><a xlink:href="../../dc/df3/class_e_w_s_mcache.html" target="_top" xlink:title="A class for cache variables used in computing radiative corrections to the EW precision observables...">
<polygon fill="none" stroke="black" points="198.5,-63.5 198.5,-80.5 261.5,-80.5 261.5,-63.5 198.5,-63.5"/>
<text text-anchor="middle" x="230" y="-70.1" font-family="Helvetica,sans-Serif" font-size="8.00">EWSMcache</text>
</a>
</g>
</g>
<!-- Node2&#45;&gt;Node1 -->
<g id="edge1" class="edge"><title>Node2&#45;&gt;Node1</title>
<path fill="none" stroke="#9a32cd" stroke-dasharray="5,2" d="M230.331,-90.6313C230.155,-112.407 227.916,-150.217 216,-180 213.259,-186.852 208.293,-193.55 204.125,-198.432"/>
<polygon fill="#9a32cd" stroke="#9a32cd" points="233.831,-90.5628 230.271,-80.5841 226.831,-90.6052 233.831,-90.5628"/>
<text text-anchor="middle" x="246.5" y="-133.1" font-family="Helvetica,sans-Serif" font-size="8.00"> mycache</text>
</g>
<!-- Node2&#45;&gt;Node7 -->
<g id="edge10" class="edge"><title>Node2&#45;&gt;Node7</title>
<path fill="none" stroke="#9a32cd" stroke-dasharray="5,2" d="M194.508,-83.6966C182.086,-87.9012 168.201,-93.1327 156,-99 139.468,-106.95 121.726,-118.634 110.744,-126.28"/>
<polygon fill="#9a32cd" stroke="#9a32cd" points="195.684,-86.9944 204.095,-80.5522 193.502,-80.3429 195.684,-86.9944"/>
<text text-anchor="middle" x="186" y="-101.6" font-family="Helvetica,sans-Serif" font-size="8.00"> myEWSMcache</text>
</g>
<!-- Node10 -->
<g id="node10" class="node"><title>Node10</title>
<g id="a_node10"><a xlink:href="../../d5/dad/class_e_w_s_m_three_loop_e_w.html" target="_top" xlink:title="A class for &#160;three&#45;loop corrections to the EW precision observables. ">
<polygon fill="none" stroke="black" points="81.5,-0.5 81.5,-17.5 174.5,-17.5 174.5,-0.5 81.5,-0.5"/>
<text text-anchor="middle" x="128" y="-7.1" font-family="Helvetica,sans-Serif" font-size="8.00">EWSMThreeLoopEW</text>
</a>
</g>
</g>
<!-- Node2&#45;&gt;Node10 -->
<g id="edge13" class="edge"><title>Node2&#45;&gt;Node10</title>
<path fill="none" stroke="#9a32cd" stroke-dasharray="5,2" d="M208.422,-58.0954C187.919,-45.8337 157.774,-27.8058 140.813,-17.663"/>
<polygon fill="#9a32cd" stroke="#9a32cd" points="206.703,-61.1455 217.082,-63.2743 210.296,-55.1379 206.703,-61.1455"/>
<text text-anchor="middle" x="198" y="-38.6" font-family="Helvetica,sans-Serif" font-size="8.00"> cache</text>
</g>
<!-- Node3 -->
<g id="node3" class="node"><title>Node3</title>
<g id="a_node3"><a xlink:href="../../d4/d7b/class_p_vfunctions.html" target="_top" xlink:title="A class for Passarino&#45;Veltman functions. ">
<polygon fill="none" stroke="black" points="351.5,-126.5 351.5,-143.5 410.5,-143.5 410.5,-126.5 351.5,-126.5"/>
<text text-anchor="middle" x="381" y="-133.1" font-family="Helvetica,sans-Serif" font-size="8.00">PVfunctions</text>
</a>
</g>
</g>
<!-- Node3&#45;&gt;Node2 -->
<g id="edge2" class="edge"><title>Node3&#45;&gt;Node2</title>
<path fill="none" stroke="#9a32cd" stroke-dasharray="5,2" d="M359.357,-121.175C346.712,-114.027 330.281,-105.321 315,-99 297.032,-91.5677 276.161,-85.1531 259.596,-80.5548"/>
<polygon fill="#9a32cd" stroke="#9a32cd" points="357.795,-124.314 368.207,-126.272 361.288,-118.248 357.795,-124.314"/>
<text text-anchor="middle" x="340.5" y="-101.6" font-family="Helvetica,sans-Serif" font-size="8.00"> PV</text>
</g>
<!-- Node4 -->
<g id="node4" class="node"><title>Node4</title>
<g id="a_node4"><a xlink:href="../../d8/db3/class_polylogarithms.html" target="_top" xlink:title="A class for the polylogarithms. ">
<polygon fill="none" stroke="black" points="326.5,-198.5 326.5,-215.5 395.5,-215.5 395.5,-198.5 326.5,-198.5"/>
<text text-anchor="middle" x="361" y="-205.1" font-family="Helvetica,sans-Serif" font-size="8.00">Polylogarithms</text>
</a>
</g>
</g>
<!-- Node4&#45;&gt;Node2 -->
<g id="edge7" class="edge"><title>Node4&#45;&gt;Node2</title>
<path fill="none" stroke="#9a32cd" stroke-dasharray="5,2" d="M346.332,-191.108C318.484,-162.835 258.85,-102.291 237.663,-80.7804"/>
<polygon fill="#9a32cd" stroke="#9a32cd" points="344.071,-193.8 353.582,-198.468 349.058,-188.888 344.071,-193.8"/>
<text text-anchor="middle" x="316" y="-133.1" font-family="Helvetica,sans-Serif" font-size="8.00"> PolyLog</text>
</g>
<!-- Node4&#45;&gt;Node3 -->
<g id="edge3" class="edge"><title>Node4&#45;&gt;Node3</title>
<path fill="none" stroke="#9a32cd" stroke-dasharray="5,2" d="M356.45,-188.261C355.172,-180.034 354.867,-170.27 358,-162 360.733,-154.786 366.483,-148.286 371.55,-143.59"/>
<polygon fill="#9a32cd" stroke="#9a32cd" points="353.068,-189.184 358.565,-198.241 359.916,-187.733 353.068,-189.184"/>
<text text-anchor="middle" x="378" y="-169.1" font-family="Helvetica,sans-Serif" font-size="8.00"> myPolylog</text>
</g>
<!-- Node5 -->
<g id="node5" class="node"><title>Node5</title>
<g id="a_node5"><a xlink:href="../../df/dea/class_bernoulli_numbers.html" target="_top" xlink:title="A class for the Bernoulli numbers. ">
<polygon fill="none" stroke="black" points="370,-253.5 370,-270.5 450,-270.5 450,-253.5 370,-253.5"/>
<text text-anchor="middle" x="410" y="-260.1" font-family="Helvetica,sans-Serif" font-size="8.00">BernoulliNumbers</text>
</a>
</g>
</g>
<!-- Node5&#45;&gt;Node4 -->
<g id="edge4" class="edge"><title>Node5&#45;&gt;Node4</title>
<path fill="none" stroke="midnightblue" d="M395.781,-245.62C386.634,-235.727 375.152,-223.307 367.943,-215.509"/>
<polygon fill="midnightblue" stroke="midnightblue" points="393.411,-248.213 402.77,-253.18 398.551,-243.461 393.411,-248.213"/>
</g>
<!-- Node6 -->
<g id="node6" class="node"><title>Node6</title>
<g id="a_node6"><a xlink:href="../../d5/d9d/class_clausen_functions.html" target="_top" xlink:title="A class for the Clausen functions. ">
<polygon fill="none" stroke="black" points="406.5,-162.5 406.5,-179.5 487.5,-179.5 487.5,-162.5 406.5,-162.5"/>
<text text-anchor="middle" x="447" y="-169.1" font-family="Helvetica,sans-Serif" font-size="8.00">ClausenFunctions</text>
</a>
</g>
</g>
<!-- Node5&#45;&gt;Node6 -->
<g id="edge6" class="edge"><title>Node5&#45;&gt;Node6</title>
<path fill="none" stroke="midnightblue" d="M417.07,-243.994C425.134,-224.597 437.962,-193.741 443.853,-179.569"/>
<polygon fill="midnightblue" stroke="midnightblue" points="413.762,-242.834 413.155,-253.412 420.225,-245.522 413.762,-242.834"/>
</g>
<!-- Node6&#45;&gt;Node2 -->
<g id="edge5" class="edge"><title>Node6&#45;&gt;Node2</title>
<path fill="none" stroke="#9a32cd" stroke-dasharray="5,2" d="M439.93,-153.181C435.382,-144.091 428.69,-133.271 420,-126 374.168,-87.6537 302.537,-76.9586 261.574,-74.0353"/>
<polygon fill="#9a32cd" stroke="#9a32cd" points="436.813,-154.782 444.146,-162.429 443.182,-151.878 436.813,-154.782"/>
<text text-anchor="middle" x="450" y="-133.1" font-family="Helvetica,sans-Serif" font-size="8.00"> Clausen</text>
</g>
<!-- Node7&#45;&gt;Node2 -->
<g id="edge8" class="edge"><title>Node7&#45;&gt;Node2</title>
<path fill="none" stroke="#9a32cd" stroke-dasharray="5,2" d="M105.285,-116.912C108.095,-110.426 112.199,-103.52 118,-99 140.989,-81.0867 174.185,-75.1491 198.468,-73.3538"/>
<polygon fill="#9a32cd" stroke="#9a32cd" points="101.979,-115.762 101.878,-126.357 108.564,-118.137 101.979,-115.762"/>
<text text-anchor="middle" x="125.5" y="-101.6" font-family="Helvetica,sans-Serif" font-size="8.00"> SM</text>
</g>
<!-- Node8 -->
<g id="node8" class="node"><title>Node8</title>
<g id="a_node8"><a xlink:href="../../dd/dfa/class_q_c_d.html" target="_top" xlink:title="A class for parameters related to QCD, hadrons and quarks. ">
<polygon fill="none" stroke="red" points="0,-198.5 0,-215.5 34,-215.5 34,-198.5 0,-198.5"/>
<text text-anchor="middle" x="17" y="-205.1" font-family="Helvetica,sans-Serif" font-size="8.00">QCD</text>
</a>
</g>
</g>
<!-- Node8&#45;&gt;Node7 -->
<g id="edge9" class="edge"><title>Node8&#45;&gt;Node7</title>
<path fill="none" stroke="midnightblue" d="M31.3625,-191.176C40.1834,-182.352 51.8869,-171.132 63,-162 71.1281,-155.321 80.8846,-148.51 88.3378,-143.536"/>
<polygon fill="midnightblue" stroke="midnightblue" points="28.6948,-188.897 24.1717,-198.478 33.6822,-193.809 28.6948,-188.897"/>
</g>
<!-- Node9 -->
<g id="node9" class="node"><title>Node9</title>
<g id="a_node9"><a xlink:href="../../d9/db9/class_c_k_m.html" target="_top" xlink:title="A class for the CKM matrix elements. ">
<polygon fill="none" stroke="red" points="52,-198.5 52,-215.5 86,-215.5 86,-198.5 52,-198.5"/>
<text text-anchor="middle" x="69" y="-205.1" font-family="Helvetica,sans-Serif" font-size="8.00">CKM</text>
</a>
</g>
</g>
<!-- Node9&#45;&gt;Node7 -->
<g id="edge11" class="edge"><title>Node9&#45;&gt;Node7</title>
<path fill="none" stroke="#9a32cd" stroke-dasharray="5,2" d="M66.1968,-188.299C65.6597,-179.954 66.1986,-170.081 70,-162 73.5793,-154.391 80.5604,-148.13 86.8881,-143.659"/>
<polygon fill="#9a32cd" stroke="#9a32cd" points="62.7431,-188.898 67.3907,-198.419 69.6949,-188.078 62.7431,-188.898"/>
<text text-anchor="middle" x="85.5" y="-169.1" font-family="Helvetica,sans-Serif" font-size="8.00"> myCKM</text>
</g>
<!-- Node10&#45;&gt;Node7 -->
<g id="edge12" class="edge"><title>Node10&#45;&gt;Node7</title>
<path fill="none" stroke="#9a32cd" stroke-dasharray="5,2" d="M123.629,-27.7239C119.251,-45.6566 112.405,-74.1971 107,-99 104.942,-108.445 102.793,-119.376 101.428,-126.474"/>
<polygon fill="#9a32cd" stroke="#9a32cd" points="127.071,-28.3831 126.055,-17.837 120.273,-26.7145 127.071,-28.3831"/>
<text text-anchor="middle" x="148.5" y="-70.1" font-family="Helvetica,sans-Serif" font-size="8.00"> myThreeLoopEW</text>
</g>
</g>
</svg>
