<?xml version="1.0" encoding="UTF-8" standalone="no"?>
<!DOCTYPE svg PUBLIC "-//W3C//DTD SVG 1.1//EN"
 "http://www.w3.org/Graphics/SVG/1.1/DTD/svg11.dtd">
<!-- Generated by graphviz version 2.40.1 (20161225.0304)
 -->
<!-- Title: LHEF.hpp Pages: 1 -->
<svg width="589pt" height="251pt"
 viewBox="0.00 0.00 588.85 251.00" xmlns="http://www.w3.org/2000/svg" xmlns:xlink="http://www.w3.org/1999/xlink">
<g id="graph0" class="graph" transform="scale(1 1) rotate(0) translate(4 247)">
<title>LHEF.hpp</title>
<!-- Node0 -->
<g id="node1" class="node">
<title>Node0</title>
<polygon fill="#bfbfbf" stroke="#000000" points="181.8475,-225.5 181.8475,-242.5 234.8475,-242.5 234.8475,-225.5 181.8475,-225.5"/>
<text text-anchor="middle" x="208.3475" y="-232.1" font-family="Helvetica,sans-Serif" font-size="8.00" fill="#000000">LHEF.hpp</text>
</g>
<!-- Node1 -->
<g id="node2" class="node">
<title>Node1</title>
<g id="a_node2"><a xlink:href="../../d6/deb/_automatic_event_filter_8hpp.html" target="_top" xlink:title="LHEF/AutomaticEventFilter.hpp">
<polygon fill="none" stroke="#ff0000" points="48.8475,-108.5 48.8475,-125.5 177.8475,-125.5 177.8475,-108.5 48.8475,-108.5"/>
<text text-anchor="middle" x="113.3475" y="-115.1" font-family="Helvetica,sans-Serif" font-size="8.00" fill="#000000">LHEF/AutomaticEventFilter.hpp</text>
</a>
</g>
</g>
<!-- Node0&#45;&gt;Node1 -->
<g id="edge1" class="edge">
<title>Node0&#45;&gt;Node1</title>
<path fill="none" stroke="#191970" d="M181.5662,-228.609C146.9498,-221.0343 89.6425,-206.2237 77.3475,-189 64.6249,-171.1773 80.9626,-148.1993 95.5533,-133.0533"/>
<polygon fill="#191970" stroke="#191970" points="98.1527,-135.4069 102.8609,-125.9157 93.2615,-130.3993 98.1527,-135.4069"/>
</g>
<!-- Node3 -->
<g id="node3" class="node">
<title>Node3</title>
<g id="a_node3"><a xlink:href="../../d7/db8/_lhef_event_8hpp.html" target="_top" xlink:title="LhefEvent.hpp">
<polygon fill="none" stroke="#ff0000" points="164.3475,-54.5 164.3475,-71.5 232.3475,-71.5 232.3475,-54.5 164.3475,-54.5"/>
<text text-anchor="middle" x="198.3475" y="-61.1" font-family="Helvetica,sans-Serif" font-size="8.00" fill="#000000">LhefEvent.hpp</text>
</a>
</g>
</g>
<!-- Node0&#45;&gt;Node3 -->
<g id="edge10" class="edge">
<title>Node0&#45;&gt;Node3</title>
<path fill="none" stroke="#191970" d="M234.8514,-230.6686C277.0788,-224.7562 356.5862,-210.9447 373.3475,-189 380.6314,-179.4635 374.6569,-173.9283 373.3475,-162 370.6648,-137.5613 378.2858,-125.8196 361.3475,-108 345.0913,-90.8981 284.983,-77.5308 242.5028,-69.951"/>
<polygon fill="#191970" stroke="#191970" points="242.8403,-66.4573 232.389,-68.1952 241.643,-73.3542 242.8403,-66.4573"/>
</g>
<!-- Node5 -->
<g id="node4" class="node">
<title>Node5</title>
<g id="a_node4"><a xlink:href="../../d0/dcd/_particle_line_8hpp.html" target="_top" xlink:title="ParticleLine.hpp">
<polygon fill="none" stroke="#ff0000" points="84.3475,-.5 84.3475,-17.5 158.3475,-17.5 158.3475,-.5 84.3475,-.5"/>
<text text-anchor="middle" x="121.3475" y="-7.1" font-family="Helvetica,sans-Serif" font-size="8.00" fill="#000000">ParticleLine.hpp</text>
</a>
</g>
</g>
<!-- Node0&#45;&gt;Node5 -->
<g id="edge15" class="edge">
<title>Node0&#45;&gt;Node5</title>
<path fill="none" stroke="#191970" d="M181.6506,-230.274C139.4977,-223.8424 60.3485,-209.3616 41.3475,-189 -.1778,-144.5012 -14.9796,-104.9293 18.3475,-54 30.8925,-34.8291 53.5949,-23.7776 74.4992,-17.4302"/>
<polygon fill="#191970" stroke="#191970" points="75.5311,-20.7765 84.2484,-14.7549 73.6787,-14.0261 75.5311,-20.7765"/>
</g>
<!-- Node41 -->
<g id="node5" class="node">
<title>Node41</title>
<g id="a_node5"><a xlink:href="../../dd/d6c/_filter_rule_8hpp.html" target="_top" xlink:title="FilterRule.hpp">
<polygon fill="none" stroke="#000000" points="27.3475,-54.5 27.3475,-71.5 93.3475,-71.5 93.3475,-54.5 27.3475,-54.5"/>
<text text-anchor="middle" x="60.3475" y="-61.1" font-family="Helvetica,sans-Serif" font-size="8.00" fill="#000000">FilterRule.hpp</text>
</a>
</g>
</g>
<!-- Node0&#45;&gt;Node41 -->
<g id="edge7" class="edge">
<title>Node0&#45;&gt;Node41</title>
<path fill="none" stroke="#191970" d="M181.7246,-231.6613C151.2403,-227.6918 101.3918,-217.0901 69.3475,-189 40.4791,-163.694 31.0329,-145.4786 39.3475,-108 41.4715,-98.426 45.8541,-88.4756 50.0687,-80.3735"/>
<polygon fill="#191970" stroke="#191970" points="53.1695,-81.9989 54.9633,-71.557 47.0494,-78.6012 53.1695,-81.9989"/>
</g>
<!-- Node42 -->
<g id="node6" class="node">
<title>Node42</title>
<g id="a_node6"><a xlink:href="../../d0/db4/_filter_rule_classes_8hpp.html" target="_top" xlink:title="LHEF/FilterRuleClasses.hpp">
<polygon fill="none" stroke="#ff0000" points="234.8475,-108.5 234.8475,-125.5 351.8475,-125.5 351.8475,-108.5 234.8475,-108.5"/>
<text text-anchor="middle" x="293.3475" y="-115.1" font-family="Helvetica,sans-Serif" font-size="8.00" fill="#000000">LHEF/FilterRuleClasses.hpp</text>
</a>
</g>
</g>
<!-- Node0&#45;&gt;Node42 -->
<g id="edge8" class="edge">
<title>Node0&#45;&gt;Node42</title>
<path fill="none" stroke="#191970" d="M208.8793,-225.2052C210.1426,-210.763 214.3643,-181.6658 228.3475,-162 237.7557,-148.7685 252.3473,-138.1569 265.3235,-130.5691"/>
<polygon fill="#191970" stroke="#191970" points="267.3131,-133.4693 274.3894,-125.5842 263.9403,-127.3354 267.3131,-133.4693"/>
</g>
<!-- Node47 -->
<g id="node7" class="node">
<title>Node47</title>
<g id="a_node7"><a xlink:href="../../d7/d3c/_interface_to_clhep_lorentz_vector_class_8hpp.html" target="_top" xlink:title="LHEF/InterfaceToClhepLorentz\lVectorClass.hpp">
<polygon fill="none" stroke="#000000" points="236.8475,-162.5 236.8475,-188.5 363.8475,-188.5 363.8475,-162.5 236.8475,-162.5"/>
<text text-anchor="start" x="244.8475" y="-178.1" font-family="Helvetica,sans-Serif" font-size="8.00" fill="#000000">LHEF/InterfaceToClhepLorentz</text>
<text text-anchor="middle" x="300.3475" y="-169.1" font-family="Helvetica,sans-Serif" font-size="8.00" fill="#000000">VectorClass.hpp</text>
</a>
</g>
</g>
<!-- Node0&#45;&gt;Node47 -->
<g id="edge9" class="edge">
<title>Node0&#45;&gt;Node47</title>
<path fill="none" stroke="#191970" d="M221.9224,-225.3681C234.7431,-217.2159 254.401,-204.716 270.8278,-194.2707"/>
<polygon fill="#191970" stroke="#191970" points="272.997,-197.0391 279.5575,-188.7197 269.2409,-191.1321 272.997,-197.0391"/>
</g>
<!-- Node48 -->
<g id="node8" class="node">
<title>Node48</title>
<g id="a_node8"><a xlink:href="../../dd/d66/_lhef_parser_8hpp.html" target="_top" xlink:title="LHEF/LhefParser.hpp">
<polygon fill="none" stroke="#ff0000" points="86.3475,-167 86.3475,-184 180.3475,-184 180.3475,-167 86.3475,-167"/>
<text text-anchor="middle" x="133.3475" y="-173.6" font-family="Helvetica,sans-Serif" font-size="8.00" fill="#000000">LHEF/LhefParser.hpp</text>
</a>
</g>
</g>
<!-- Node0&#45;&gt;Node48 -->
<g id="edge11" class="edge">
<title>Node0&#45;&gt;Node48</title>
<path fill="none" stroke="#191970" d="M197.281,-225.3681C185.5382,-216.2087 166.7593,-201.5612 152.5855,-190.5056"/>
<polygon fill="#191970" stroke="#191970" points="154.4971,-187.5579 144.4594,-184.1673 150.1918,-193.0774 154.4971,-187.5579"/>
</g>
<!-- Node51 -->
<g id="node9" class="node">
<title>Node51</title>
<g id="a_node9"><a xlink:href="../../d5/dac/_preselector_classes_8hpp.html" target="_top" xlink:title="LHEF/PreselectorClasses.hpp">
<polygon fill="none" stroke="#ff0000" points="420.3475,-167 420.3475,-184 544.3475,-184 544.3475,-167 420.3475,-167"/>
<text text-anchor="middle" x="482.3475" y="-173.6" font-family="Helvetica,sans-Serif" font-size="8.00" fill="#000000">LHEF/PreselectorClasses.hpp</text>
</a>
</g>
</g>
<!-- Node0&#45;&gt;Node51 -->
<g id="edge16" class="edge">
<title>Node0&#45;&gt;Node51</title>
<path fill="none" stroke="#191970" d="M235.1186,-228.2843C280.7231,-218.5475 374.1657,-198.5972 432.2076,-186.2051"/>
<polygon fill="#191970" stroke="#191970" points="433.2127,-189.5694 442.2614,-184.0585 431.751,-182.7237 433.2127,-189.5694"/>
</g>
<!-- Node84 -->
<g id="node10" class="node">
<title>Node84</title>
<g id="a_node10"><a xlink:href="../../d7/dd3/_four_momentum_8hpp.html" target="_top" xlink:title="LHCO/FourMomentum.hpp">
<polygon fill="none" stroke="#ff0000" points="467.8475,-108.5 467.8475,-125.5 580.8475,-125.5 580.8475,-108.5 467.8475,-108.5"/>
<text text-anchor="middle" x="524.3475" y="-115.1" font-family="Helvetica,sans-Serif" font-size="8.00" fill="#000000">LHCO/FourMomentum.hpp</text>
</a>
</g>
</g>
<!-- Node0&#45;&gt;Node84 -->
<g id="edge17" class="edge">
<title>Node0&#45;&gt;Node84</title>
<path fill="none" stroke="#191970" d="M234.9057,-232.5207C312.1083,-227.952 532.3495,-212.9147 553.3475,-189 567.4513,-172.9371 552.9426,-149.1366 539.8646,-133.3545"/>
<polygon fill="#191970" stroke="#191970" points="542.1806,-130.6896 532.9371,-125.5118 536.9341,-135.3237 542.1806,-130.6896"/>
</g>
<!-- Node1&#45;&gt;Node3 -->
<g id="edge2" class="edge">
<title>Node1&#45;&gt;Node3</title>
<path fill="none" stroke="#191970" d="M127.0042,-108.324C140.2638,-99.9002 160.6155,-86.9709 176.1937,-77.0741"/>
<polygon fill="#191970" stroke="#191970" points="178.1608,-79.9711 184.7247,-71.6545 174.4071,-74.0626 178.1608,-79.9711"/>
</g>
<!-- Node1&#45;&gt;Node5 -->
<g id="edge4" class="edge">
<title>Node1&#45;&gt;Node5</title>
<path fill="none" stroke="#191970" d="M114.0022,-108.1619C115.2978,-90.6713 118.2138,-51.3048 119.9569,-27.7731"/>
<polygon fill="#191970" stroke="#191970" points="123.4578,-27.8896 120.7061,-17.6584 116.4769,-27.3725 123.4578,-27.8896"/>
</g>
<!-- Node1&#45;&gt;Node41 -->
<g id="edge5" class="edge">
<title>Node1&#45;&gt;Node41</title>
<path fill="none" stroke="#191970" d="M104.5956,-108.083C96.8778,-100.2195 85.4428,-88.5688 76.1309,-79.0813"/>
<polygon fill="#191970" stroke="#191970" points="78.4391,-76.4363 68.9365,-71.7511 73.4433,-81.3396 78.4391,-76.4363"/>
</g>
<!-- Node3&#45;&gt;Node5 -->
<g id="edge3" class="edge">
<title>Node3&#45;&gt;Node5</title>
<path fill="none" stroke="#191970" d="M185.9761,-54.324C174.189,-46.0577 156.2152,-33.4527 142.212,-23.6322"/>
<polygon fill="#191970" stroke="#191970" points="143.8851,-20.5307 133.6882,-17.6545 139.8659,-26.2619 143.8851,-20.5307"/>
</g>
<!-- Node41&#45;&gt;Node5 -->
<g id="edge6" class="edge">
<title>Node41&#45;&gt;Node5</title>
<path fill="none" stroke="#191970" d="M70.1482,-54.324C79.1656,-46.3414 92.7534,-34.3128 103.6655,-24.6529"/>
<polygon fill="#191970" stroke="#191970" points="106.2008,-27.083 111.3685,-17.8339 101.5609,-21.8416 106.2008,-27.083"/>
</g>
<!-- Node48&#45;&gt;Node1 -->
<g id="edge13" class="edge">
<title>Node48&#45;&gt;Node1</title>
<path fill="none" stroke="#191970" d="M130.3964,-166.8681C127.5604,-158.5728 123.1855,-145.7761 119.5775,-135.2228"/>
<polygon fill="#191970" stroke="#191970" points="122.8575,-133.9973 116.3107,-125.6673 116.2339,-136.2619 122.8575,-133.9973"/>
</g>
<!-- Node48&#45;&gt;Node3 -->
<g id="edge12" class="edge">
<title>Node48&#45;&gt;Node3</title>
<path fill="none" stroke="#191970" d="M147.2685,-166.708C159.8526,-157.9773 177.8209,-143.4029 187.3475,-126 194.7698,-112.4412 197.3724,-94.9977 198.2024,-81.9046"/>
<polygon fill="#191970" stroke="#191970" points="201.7066,-81.8398 198.552,-71.7255 194.7107,-81.5994 201.7066,-81.8398"/>
</g>
<!-- Node48&#45;&gt;Node42 -->
<g id="edge14" class="edge">
<title>Node48&#45;&gt;Node42</title>
<path fill="none" stroke="#191970" d="M156.6129,-166.9936C183.9854,-156.9855 229.6149,-140.3022 260.5634,-128.9867"/>
<polygon fill="#191970" stroke="#191970" points="261.864,-132.2378 270.054,-125.5167 259.4602,-125.6635 261.864,-132.2378"/>
</g>
<!-- Node84&#45;&gt;Node5 -->
<g id="edge18" class="edge">
<title>Node84&#45;&gt;Node5</title>
<path fill="none" stroke="#191970" d="M492.3879,-108.4351C420.0823,-89.058 243.9665,-41.8607 163.1424,-20.2006"/>
<polygon fill="#191970" stroke="#191970" points="163.8756,-16.7737 153.3104,-17.5657 162.0635,-23.5351 163.8756,-16.7737"/>
</g>
</g>
</svg>
