<?xml version="1.0" encoding="UTF-8" standalone="no"?>
<!DOCTYPE svg PUBLIC "-//W3C//DTD SVG 1.1//EN"
 "http://www.w3.org/Graphics/SVG/1.1/DTD/svg11.dtd">
<!-- Generated by graphviz version 2.38.0 (20140413.2041)
 -->
<!-- Title: bsgamma.cpp Pages: 1 -->
<svg width="651pt" height="134pt"
 viewBox="0.00 0.00 651.00 134.00" xmlns="http://www.w3.org/2000/svg" xmlns:xlink="http://www.w3.org/1999/xlink">
<g id="graph0" class="graph" transform="scale(1 1) rotate(0) translate(4 130)">
<title>bsgamma.cpp</title>
<!-- Node1 -->
<g id="node1" class="node"><title>Node1</title>
<polygon fill="#bfbfbf" stroke="black" points="282,-108.5 282,-125.5 349,-125.5 349,-108.5 282,-108.5"/>
<text text-anchor="middle" x="315.5" y="-115.1" font-family="Helvetica,sans-Serif" font-size="8.00">bsgamma.cpp</text>
</g>
<!-- Node2 -->
<g id="node2" class="node"><title>Node2</title>
<g id="a_node2"><a xlink:href="../../d2/d65/_flavour_8h.html" target="_top" xlink:title="Flavour.h">
<polygon fill="none" stroke="red" points="36.5,-54.5 36.5,-71.5 86.5,-71.5 86.5,-54.5 36.5,-54.5"/>
<text text-anchor="middle" x="61.5" y="-61.1" font-family="Helvetica,sans-Serif" font-size="8.00">Flavour.h</text>
</a>
</g>
</g>
<!-- Node1&#45;&gt;Node2 -->
<g id="edge1" class="edge"><title>Node1&#45;&gt;Node2</title>
<path fill="none" stroke="midnightblue" d="M281.882,-109.642C240.607,-101.755 168.222,-87.6657 96.7981,-72.2235"/>
<polygon fill="midnightblue" stroke="midnightblue" points="97.2447,-68.739 86.7295,-70.0361 95.7585,-75.5794 97.2447,-68.739"/>
</g>
<!-- Node5 -->
<g id="node5" class="node"><title>Node5</title>
<g id="a_node5"><a xlink:href="../../d2/dd6/_flavour_2src_2bsgamma_8h.html" target="_top" xlink:title="bsgamma.h">
<polygon fill="none" stroke="red" points="104.5,-54.5 104.5,-71.5 162.5,-71.5 162.5,-54.5 104.5,-54.5"/>
<text text-anchor="middle" x="133.5" y="-61.1" font-family="Helvetica,sans-Serif" font-size="8.00">bsgamma.h</text>
</a>
</g>
</g>
<!-- Node1&#45;&gt;Node5 -->
<g id="edge4" class="edge"><title>Node1&#45;&gt;Node5</title>
<path fill="none" stroke="midnightblue" d="M289.036,-108.439C257.63,-99.4657 205.095,-84.4558 169.881,-74.3946"/>
<polygon fill="midnightblue" stroke="midnightblue" points="170.573,-70.9523 159.996,-71.5704 168.65,-77.683 170.573,-70.9523"/>
</g>
<!-- Node6 -->
<g id="node6" class="node"><title>Node6</title>
<g id="a_node6"><a xlink:href="../../d1/dc2/gslpp__complex_8h.html" target="_top" xlink:title="gslpp_complex.h">
<polygon fill="none" stroke="red" points="181,-54.5 181,-71.5 258,-71.5 258,-54.5 181,-54.5"/>
<text text-anchor="middle" x="219.5" y="-61.1" font-family="Helvetica,sans-Serif" font-size="8.00">gslpp_complex.h</text>
</a>
</g>
</g>
<!-- Node1&#45;&gt;Node6 -->
<g id="edge5" class="edge"><title>Node1&#45;&gt;Node6</title>
<path fill="none" stroke="midnightblue" d="M301.335,-108.327C285.79,-99.907 260.612,-86.269 242.284,-76.3412"/>
<polygon fill="midnightblue" stroke="midnightblue" points="243.871,-73.2206 233.411,-71.5352 240.537,-79.3756 243.871,-73.2206"/>
</g>
<!-- Node7 -->
<g id="node7" class="node"><title>Node7</title>
<polygon fill="none" stroke="#bfbfbf" points="276.5,-54.5 276.5,-71.5 354.5,-71.5 354.5,-54.5 276.5,-54.5"/>
<text text-anchor="middle" x="315.5" y="-61.1" font-family="Helvetica,sans-Serif" font-size="8.00">gsl/gsl_sf_dilog.h</text>
</g>
<!-- Node1&#45;&gt;Node7 -->
<g id="edge6" class="edge"><title>Node1&#45;&gt;Node7</title>
<path fill="none" stroke="midnightblue" d="M315.5,-108.327C315.5,-101.414 315.5,-90.985 315.5,-81.9789"/>
<polygon fill="midnightblue" stroke="midnightblue" points="319,-81.7042 315.5,-71.7043 312,-81.7043 319,-81.7042"/>
</g>
<!-- Node8 -->
<g id="node8" class="node"><title>Node8</title>
<polygon fill="none" stroke="#bfbfbf" points="372.5,-54.5 372.5,-71.5 448.5,-71.5 448.5,-54.5 372.5,-54.5"/>
<text text-anchor="middle" x="410.5" y="-61.1" font-family="Helvetica,sans-Serif" font-size="8.00">gsl/gsl_sf_zeta.h</text>
</g>
<!-- Node1&#45;&gt;Node8 -->
<g id="edge7" class="edge"><title>Node1&#45;&gt;Node8</title>
<path fill="none" stroke="midnightblue" d="M329.518,-108.327C344.901,-99.907 369.816,-86.269 387.953,-76.3412"/>
<polygon fill="midnightblue" stroke="midnightblue" points="389.642,-79.4069 396.734,-71.5352 386.281,-73.2665 389.642,-79.4069"/>
</g>
<!-- Node9 -->
<g id="node9" class="node"><title>Node9</title>
<polygon fill="none" stroke="#bfbfbf" points="467,-54.5 467,-71.5 556,-71.5 556,-54.5 467,-54.5"/>
<text text-anchor="middle" x="511.5" y="-61.1" font-family="Helvetica,sans-Serif" font-size="8.00">gsl/gsl_sf_clausen.h</text>
</g>
<!-- Node1&#45;&gt;Node9 -->
<g id="edge8" class="edge"><title>Node1&#45;&gt;Node9</title>
<path fill="none" stroke="midnightblue" d="M344,-108.439C378.112,-99.3886 435.37,-84.1977 473.293,-74.1367"/>
<polygon fill="midnightblue" stroke="midnightblue" points="474.197,-77.5178 482.966,-71.5704 472.402,-70.7518 474.197,-77.5178"/>
</g>
<!-- Node10 -->
<g id="node10" class="node"><title>Node10</title>
<polygon fill="none" stroke="#bfbfbf" points="574,-54.5 574,-71.5 643,-71.5 643,-54.5 574,-54.5"/>
<text text-anchor="middle" x="608.5" y="-61.1" font-family="Helvetica,sans-Serif" font-size="8.00">boost/bind.hpp</text>
</g>
<!-- Node1&#45;&gt;Node10 -->
<g id="edge9" class="edge"><title>Node1&#45;&gt;Node10</title>
<path fill="none" stroke="midnightblue" d="M349.081,-110.197C395.213,-102.201 481.049,-87.2399 563.71,-72.311"/>
<polygon fill="midnightblue" stroke="midnightblue" points="564.554,-75.7151 573.772,-70.4911 563.308,-68.8269 564.554,-75.7151"/>
</g>
<!-- Node3 -->
<g id="node3" class="node"><title>Node3</title>
<g id="a_node3"><a xlink:href="../../dd/d03/_heff_d_f2_8h.html" target="_top" xlink:title="HeffDF2.h">
<polygon fill="none" stroke="red" points="0,-0.5 0,-17.5 53,-17.5 53,-0.5 0,-0.5"/>
<text text-anchor="middle" x="26.5" y="-7.1" font-family="Helvetica,sans-Serif" font-size="8.00">HeffDF2.h</text>
</a>
</g>
</g>
<!-- Node2&#45;&gt;Node3 -->
<g id="edge2" class="edge"><title>Node2&#45;&gt;Node3</title>
<path fill="none" stroke="midnightblue" d="M56.3356,-54.3272C51.3726,-46.9536 43.7165,-35.5787 37.4026,-26.1981"/>
<polygon fill="midnightblue" stroke="midnightblue" points="40.1729,-24.0458 31.6856,-17.7043 34.3658,-27.9545 40.1729,-24.0458"/>
</g>
<!-- Node4 -->
<g id="node4" class="node"><title>Node4</title>
<g id="a_node4"><a xlink:href="../../d9/d29/_heff_d_b1_8h.html" target="_top" xlink:title="HeffDB1.h">
<polygon fill="none" stroke="red" points="71,-0.5 71,-17.5 124,-17.5 124,-0.5 71,-0.5"/>
<text text-anchor="middle" x="97.5" y="-7.1" font-family="Helvetica,sans-Serif" font-size="8.00">HeffDB1.h</text>
</a>
</g>
</g>
<!-- Node2&#45;&gt;Node4 -->
<g id="edge3" class="edge"><title>Node2&#45;&gt;Node4</title>
<path fill="none" stroke="midnightblue" d="M66.8119,-54.3272C71.9167,-46.9536 79.7916,-35.5787 86.2859,-26.1981"/>
<polygon fill="midnightblue" stroke="midnightblue" points="89.3518,-27.9184 92.1663,-17.7043 83.5965,-23.9339 89.3518,-27.9184"/>
</g>
</g>
</svg>
