<?xml version="1.0" encoding="UTF-8" standalone="no"?>
<!DOCTYPE svg PUBLIC "-//W3C//DTD SVG 1.1//EN"
 "http://www.w3.org/Graphics/SVG/1.1/DTD/svg11.dtd">
<!-- Generated by graphviz version 2.38.0 (20140413.2041)
 -->
<!-- Title: log10_bbF_H_tautau_TH Pages: 1 -->
<svg width="426pt" height="513pt"
 viewBox="0.00 0.00 425.53 513.00" xmlns="http://www.w3.org/2000/svg" xmlns:xlink="http://www.w3.org/1999/xlink">
<g id="graph0" class="graph" transform="scale(1 1) rotate(0) translate(4 509)">
<title>log10_bbF_H_tautau_TH</title>
<!-- Node1 -->
<g id="node1" class="node"><title>Node1</title>
<polygon fill="#bfbfbf" stroke="black" points="61.5279,-0.5 61.5279,-17.5 167.528,-17.5 167.528,-0.5 61.5279,-0.5"/>
<text text-anchor="middle" x="114.528" y="-7.1" font-family="Helvetica,sans-Serif" font-size="8.00">log10_bbF_H_tautau_TH</text>
</g>
<!-- Node2 -->
<g id="node2" class="node"><title>Node2</title>
<g id="a_node2"><a xlink:href="../../dc/df3/classheavy_higgs.html" target="_top" xlink:title="Base class for direct heavy Higgs search observables. ">
<polygon fill="none" stroke="black" points="85.5279,-55.5 85.5279,-72.5 143.528,-72.5 143.528,-55.5 85.5279,-55.5"/>
<text text-anchor="middle" x="114.528" y="-62.1" font-family="Helvetica,sans-Serif" font-size="8.00">heavyHiggs</text>
</a>
</g>
</g>
<!-- Node2&#45;&gt;Node1 -->
<g id="edge1" class="edge"><title>Node2&#45;&gt;Node1</title>
<path fill="none" stroke="midnightblue" d="M114.528,-44.8927C114.528,-35.5285 114.528,-24.6052 114.528,-17.5092"/>
<polygon fill="midnightblue" stroke="midnightblue" points="111.028,-45.1796 114.528,-55.1797 118.028,-45.1797 111.028,-45.1796"/>
</g>
<!-- Node3 -->
<g id="node3" class="node"><title>Node3</title>
<g id="a_node3"><a xlink:href="../../dc/d1f/class_th_observable.html" target="_top" xlink:title="A class for a model prediction of an observable. ">
<polygon fill="none" stroke="black" points="12.0279,-181.5 12.0279,-198.5 79.0279,-198.5 79.0279,-181.5 12.0279,-181.5"/>
<text text-anchor="middle" x="45.5279" y="-188.1" font-family="Helvetica,sans-Serif" font-size="8.00">ThObservable</text>
</a>
</g>
</g>
<!-- Node3&#45;&gt;Node2 -->
<g id="edge2" class="edge"><title>Node3&#45;&gt;Node2</title>
<path fill="none" stroke="midnightblue" d="M52.828,-172.11C59.3217,-157.514 69.3424,-135.992 79.5279,-118 88.9799,-101.303 101.752,-82.819 108.965,-72.6906"/>
<polygon fill="midnightblue" stroke="midnightblue" points="49.5803,-170.802 48.771,-181.366 55.9913,-173.612 49.5803,-170.802"/>
</g>
<!-- Node9 -->
<g id="node9" class="node"><title>Node9</title>
<g id="a_node9"><a xlink:href="../../d7/d2f/classlight_higgs.html" target="_top" xlink:title="lightHiggs">
<polygon fill="none" stroke="black" points="88.5279,-118.5 88.5279,-135.5 140.528,-135.5 140.528,-118.5 88.5279,-118.5"/>
<text text-anchor="middle" x="114.528" y="-125.1" font-family="Helvetica,sans-Serif" font-size="8.00">lightHiggs</text>
</a>
</g>
</g>
<!-- Node3&#45;&gt;Node9 -->
<g id="edge10" class="edge"><title>Node3&#45;&gt;Node9</title>
<path fill="none" stroke="midnightblue" d="M61.9907,-174.446C75.6796,-162.344 94.6394,-145.583 105.642,-135.856"/>
<polygon fill="midnightblue" stroke="midnightblue" points="59.4406,-172.029 54.2668,-181.274 64.077,-177.273 59.4406,-172.029"/>
</g>
<!-- Node4 -->
<g id="node4" class="node"><title>Node4</title>
<g id="a_node4"><a xlink:href="../../dc/dd5/class_standard_model.html" target="_top" xlink:title="A model class for the Standard Model. ">
<polygon fill="none" stroke="red" points="13.0279,-244.5 13.0279,-261.5 84.0279,-261.5 84.0279,-244.5 13.0279,-244.5"/>
<text text-anchor="middle" x="48.5279" y="-251.1" font-family="Helvetica,sans-Serif" font-size="8.00">StandardModel</text>
</a>
</g>
</g>
<!-- Node4&#45;&gt;Node2 -->
<g id="edge16" class="edge"><title>Node4&#45;&gt;Node2</title>
<path fill="none" stroke="#9a32cd" stroke-dasharray="5,2" d="M29.5546,-238.112C13.3724,-224.427 -6.02056,-202.501 2.52788,-181 22.7989,-130.014 77.6823,-89.1031 102.295,-72.727"/>
<polygon fill="#9a32cd" stroke="#9a32cd" points="27.5522,-240.992 37.5592,-244.472 31.9066,-235.511 27.5522,-240.992"/>
<text text-anchor="middle" x="30.0279" y="-156.6" font-family="Helvetica,sans-Serif" font-size="8.00"> mySM</text>
</g>
<!-- Node4&#45;&gt;Node3 -->
<g id="edge3" class="edge"><title>Node4&#45;&gt;Node3</title>
<path fill="none" stroke="#9a32cd" stroke-dasharray="5,2" d="M47.6559,-234.27C47.0794,-222.549 46.352,-207.757 45.9142,-198.856"/>
<polygon fill="#9a32cd" stroke="#9a32cd" points="44.1609,-234.458 48.1479,-244.274 51.1524,-234.114 44.1609,-234.458"/>
<text text-anchor="middle" x="55.0279" y="-219.6" font-family="Helvetica,sans-Serif" font-size="8.00"> SM</text>
</g>
<!-- Node4&#45;&gt;Node9 -->
<g id="edge14" class="edge"><title>Node4&#45;&gt;Node9</title>
<path fill="none" stroke="#9a32cd" stroke-dasharray="5,2" d="M61.8456,-236.299C70.0109,-226.133 80.2566,-212.345 87.5279,-199 99.3899,-177.229 108.391,-149.143 112.336,-135.759"/>
<polygon fill="#9a32cd" stroke="#9a32cd" points="58.9934,-234.257 55.3326,-244.199 64.3945,-238.71 58.9934,-234.257"/>
<text text-anchor="middle" x="109.028" y="-188.1" font-family="Helvetica,sans-Serif" font-size="8.00"> mySM</text>
</g>
<!-- Node10 -->
<g id="node10" class="node"><title>Node10</title>
<g id="a_node10"><a xlink:href="../../d0/d52/class_t_h_d_m.html" target="_top" xlink:title="A base class &#160;symmetric Two&#45;Higgs&#45;Doublet models. ">
<polygon fill="none" stroke="red" points="169.528,-181.5 169.528,-198.5 209.528,-198.5 209.528,-181.5 169.528,-181.5"/>
<text text-anchor="middle" x="189.528" y="-188.1" font-family="Helvetica,sans-Serif" font-size="8.00">THDM</text>
</a>
</g>
</g>
<!-- Node4&#45;&gt;Node10 -->
<g id="edge12" class="edge"><title>Node4&#45;&gt;Node10</title>
<path fill="none" stroke="midnightblue" d="M86.8376,-241.575C100.548,-237.358 115.959,-232.049 129.528,-226 147.151,-218.144 166.183,-206.436 177.978,-198.76"/>
<polygon fill="midnightblue" stroke="midnightblue" points="85.7878,-238.236 77.2052,-244.448 87.7884,-244.944 85.7878,-238.236"/>
</g>
<!-- Node5 -->
<g id="node5" class="node"><title>Node5</title>
<g id="a_node5"><a xlink:href="../../dd/d9b/classgslpp_1_1complex.html" target="_top" xlink:title="A class for defining operations on and functions of complex numbers. ">
<polygon fill="none" stroke="black" points="54.5279,-487.5 54.5279,-504.5 124.528,-504.5 124.528,-487.5 54.5279,-487.5"/>
<text text-anchor="middle" x="89.5279" y="-494.1" font-family="Helvetica,sans-Serif" font-size="8.00">gslpp::complex</text>
</a>
</g>
</g>
<!-- Node5&#45;&gt;Node4 -->
<g id="edge4" class="edge"><title>Node5&#45;&gt;Node4</title>
<path fill="none" stroke="#9a32cd" stroke-dasharray="5,2" d="M61.2628,-481.829C56.5543,-478.339 52.3051,-474.089 49.5279,-469 10.3702,-397.243 37.477,-290.915 46.1306,-261.679"/>
<polygon fill="#9a32cd" stroke="#9a32cd" points="59.6814,-484.968 70.0154,-487.305 63.3942,-479.034 59.6814,-484.968"/>
<text text-anchor="middle" x="79.5279" y="-377.1" font-family="Helvetica,sans-Serif" font-size="8.00"> rhoZ_f_cache</text>
<text text-anchor="middle" x="79.5279" y="-368.1" font-family="Helvetica,sans-Serif" font-size="8.00">kappaZ_f_cache</text>
</g>
<!-- Node6 -->
<g id="node6" class="node"><title>Node6</title>
<g id="a_node6"><a xlink:href="../../d5/df2/class_t_h_d_mcache.html" target="_top" xlink:title="A class for the caching of some THDM objects. ">
<polygon fill="none" stroke="black" points="229.028,-244.5 229.028,-261.5 290.028,-261.5 290.028,-244.5 229.028,-244.5"/>
<text text-anchor="middle" x="259.528" y="-251.1" font-family="Helvetica,sans-Serif" font-size="8.00">THDMcache</text>
</a>
</g>
</g>
<!-- Node5&#45;&gt;Node6 -->
<g id="edge7" class="edge"><title>Node5&#45;&gt;Node6</title>
<path fill="none" stroke="#9a32cd" stroke-dasharray="5,2" d="M103.188,-479.513C105.585,-476.211 107.846,-472.622 109.528,-469 145.723,-391.039 90.3766,-341.399 150.528,-280 161.317,-268.987 200.53,-261.644 228.834,-257.649"/>
<polygon fill="#9a32cd" stroke="#9a32cd" points="100.376,-477.424 96.8312,-487.408 105.829,-481.814 100.376,-477.424"/>
<text text-anchor="start" x="150.528" y="-462.6" font-family="Helvetica,sans-Serif" font-size="8.00"> B00_MZ2_MZ2_mHl2_mA2</text>
<text text-anchor="middle" x="203.028" y="-453.6" font-family="Helvetica,sans-Serif" font-size="8.00">_cache</text>
<text text-anchor="start" x="150.528" y="-444.6" font-family="Helvetica,sans-Serif" font-size="8.00">B00_MZ2_MW2_MW2_mHl2</text>
<text text-anchor="middle" x="203.028" y="-435.6" font-family="Helvetica,sans-Serif" font-size="8.00">_cache</text>
<text text-anchor="start" x="150.528" y="-426.6" font-family="Helvetica,sans-Serif" font-size="8.00">B00_MZ2_0_MW2_mHl2</text>
<text text-anchor="middle" x="203.028" y="-417.6" font-family="Helvetica,sans-Serif" font-size="8.00">_cache</text>
<text text-anchor="start" x="150.528" y="-408.6" font-family="Helvetica,sans-Serif" font-size="8.00">B00_MZ2_0_mHl2_mHp2</text>
<text text-anchor="middle" x="203.028" y="-399.6" font-family="Helvetica,sans-Serif" font-size="8.00">_cache</text>
<text text-anchor="start" x="150.528" y="-390.6" font-family="Helvetica,sans-Serif" font-size="8.00">B0_MZ2_0_MZ2_mHl2</text>
<text text-anchor="middle" x="203.028" y="-381.6" font-family="Helvetica,sans-Serif" font-size="8.00">_cache</text>
<text text-anchor="start" x="150.528" y="-372.6" font-family="Helvetica,sans-Serif" font-size="8.00">B00_MZ2_MW2_mHh2</text>
<text text-anchor="middle" x="203.028" y="-363.6" font-family="Helvetica,sans-Serif" font-size="8.00">_mHp2_cache</text>
<text text-anchor="start" x="150.528" y="-354.6" font-family="Helvetica,sans-Serif" font-size="8.00">B00_MZ2_0_mHh2_mA2</text>
<text text-anchor="middle" x="203.028" y="-345.6" font-family="Helvetica,sans-Serif" font-size="8.00">_cache</text>
<text text-anchor="start" x="150.528" y="-336.6" font-family="Helvetica,sans-Serif" font-size="8.00">B00_MZ2_MZ2_mHh2</text>
<text text-anchor="middle" x="203.028" y="-327.6" font-family="Helvetica,sans-Serif" font-size="8.00">_mA2_cache</text>
<text text-anchor="start" x="150.528" y="-318.6" font-family="Helvetica,sans-Serif" font-size="8.00">B00_MZ2_0_mHh2_mHp2</text>
<text text-anchor="middle" x="203.028" y="-309.6" font-family="Helvetica,sans-Serif" font-size="8.00">_cache</text>
<text text-anchor="start" x="150.528" y="-300.6" font-family="Helvetica,sans-Serif" font-size="8.00">B0_MZ2_MW2_MW2_mHl2</text>
<text text-anchor="middle" x="203.028" y="-291.6" font-family="Helvetica,sans-Serif" font-size="8.00">_cache</text>
<text text-anchor="middle" x="203.028" y="-282.6" font-family="Helvetica,sans-Serif" font-size="8.00">...</text>
</g>
<!-- Node6&#45;&gt;Node2 -->
<g id="edge5" class="edge"><title>Node6&#45;&gt;Node2</title>
<path fill="none" stroke="#9a32cd" stroke-dasharray="5,2" d="M259.176,-234.206C257.809,-206.826 251.806,-153.788 226.528,-118 207.167,-90.5896 169.813,-76.9048 143.583,-70.3959"/>
<polygon fill="#9a32cd" stroke="#9a32cd" points="255.679,-234.37 259.521,-244.244 262.675,-234.13 255.679,-234.37"/>
<text text-anchor="middle" x="265.028" y="-156.6" font-family="Helvetica,sans-Serif" font-size="8.00"> mycache</text>
</g>
<!-- Node6&#45;&gt;Node10 -->
<g id="edge13" class="edge"><title>Node6&#45;&gt;Node10</title>
<path fill="none" stroke="#9a32cd" stroke-dasharray="5,2" d="M232.797,-239.596C226.092,-235.784 219.199,-231.2 213.528,-226 204.839,-218.033 197.636,-206.353 193.456,-198.713"/>
<polygon fill="#9a32cd" stroke="#9a32cd" points="231.216,-242.72 241.692,-244.304 234.491,-236.533 231.216,-242.72"/>
<text text-anchor="middle" x="231.028" y="-219.6" font-family="Helvetica,sans-Serif" font-size="8.00"> mycache</text>
</g>
<!-- Node7 -->
<g id="node7" class="node"><title>Node7</title>
<g id="a_node7"><a xlink:href="../../d4/d7b/class_p_vfunctions.html" target="_top" xlink:title="A class for Passarino&#45;Veltman functions. ">
<polygon fill="none" stroke="red" points="230.028,-487.5 230.028,-504.5 289.028,-504.5 289.028,-487.5 230.028,-487.5"/>
<text text-anchor="middle" x="259.528" y="-494.1" font-family="Helvetica,sans-Serif" font-size="8.00">PVfunctions</text>
</a>
</g>
</g>
<!-- Node7&#45;&gt;Node6 -->
<g id="edge6" class="edge"><title>Node7&#45;&gt;Node6</title>
<path fill="none" stroke="#9a32cd" stroke-dasharray="5,2" d="M259.528,-477.045C259.528,-428.409 259.528,-295.514 259.528,-261.838"/>
<polygon fill="#9a32cd" stroke="#9a32cd" points="256.028,-477.254 259.528,-487.254 263.028,-477.254 256.028,-477.254"/>
<text text-anchor="middle" x="266.028" y="-372.6" font-family="Helvetica,sans-Serif" font-size="8.00"> PV</text>
</g>
<!-- Node8 -->
<g id="node8" class="node"><title>Node8</title>
<g id="a_node8"><a xlink:href="../../d7/d10/classgslpp_1_1matrix_3_01double_01_4.html" target="_top" xlink:title="A class for constructing and defining operations on real matrices. ">
<polygon fill="none" stroke="black" points="307.528,-487.5 307.528,-504.5 407.528,-504.5 407.528,-487.5 307.528,-487.5"/>
<text text-anchor="middle" x="357.528" y="-494.1" font-family="Helvetica,sans-Serif" font-size="8.00">gslpp::matrix&lt; double &gt;</text>
</a>
</g>
</g>
<!-- Node8&#45;&gt;Node6 -->
<g id="edge8" class="edge"><title>Node8&#45;&gt;Node6</title>
<path fill="none" stroke="#9a32cd" stroke-dasharray="5,2" d="M352.368,-477.49C341.052,-440.127 312.195,-350.269 276.528,-280 273.306,-273.652 268.887,-266.938 265.362,-261.923"/>
<polygon fill="#9a32cd" stroke="#9a32cd" points="349.089,-478.74 355.305,-487.32 355.796,-476.737 349.089,-478.74"/>
<text text-anchor="middle" x="383.528" y="-431.1" font-family="Helvetica,sans-Serif" font-size="8.00"> cs_ggA_bb</text>
<text text-anchor="middle" x="383.528" y="-422.1" font-family="Helvetica,sans-Serif" font-size="8.00">br_mumu</text>
<text text-anchor="middle" x="383.528" y="-413.1" font-family="Helvetica,sans-Serif" font-size="8.00">br_tautau</text>
<text text-anchor="middle" x="383.528" y="-404.1" font-family="Helvetica,sans-Serif" font-size="8.00">arraybsgamma</text>
<text text-anchor="start" x="349.528" y="-395.1" font-family="Helvetica,sans-Serif" font-size="8.00">ATLAS_ggF_A_hZ</text>
<text text-anchor="middle" x="383.528" y="-386.1" font-family="Helvetica,sans-Serif" font-size="8.00">_bbZ</text>
<text text-anchor="middle" x="383.528" y="-377.1" font-family="Helvetica,sans-Serif" font-size="8.00">cs_ggA</text>
<text text-anchor="start" x="349.528" y="-368.1" font-family="Helvetica,sans-Serif" font-size="8.00">ATLAS_ggF_phi</text>
<text text-anchor="middle" x="383.528" y="-359.1" font-family="Helvetica,sans-Serif" font-size="8.00">_gaga</text>
<text text-anchor="start" x="349.528" y="-350.1" font-family="Helvetica,sans-Serif" font-size="8.00">ATLAS_pp_phi</text>
<text text-anchor="middle" x="383.528" y="-341.1" font-family="Helvetica,sans-Serif" font-size="8.00">_tt</text>
<text text-anchor="middle" x="383.528" y="-332.1" font-family="Helvetica,sans-Serif" font-size="8.00">cs_ggH_tt</text>
<text text-anchor="middle" x="383.528" y="-323.1" font-family="Helvetica,sans-Serif" font-size="8.00">pc_ZH</text>
<text text-anchor="middle" x="383.528" y="-314.1" font-family="Helvetica,sans-Serif" font-size="8.00">...</text>
</g>
<!-- Node9&#45;&gt;Node2 -->
<g id="edge9" class="edge"><title>Node9&#45;&gt;Node2</title>
<path fill="none" stroke="#9a32cd" stroke-dasharray="5,2" d="M114.528,-108.27C114.528,-96.5485 114.528,-81.7567 114.528,-72.8556"/>
<polygon fill="#9a32cd" stroke="#9a32cd" points="111.028,-108.274 114.528,-118.274 118.028,-108.274 111.028,-108.274"/>
<text text-anchor="middle" x="139.028" y="-93.6" font-family="Helvetica,sans-Serif" font-size="8.00"> mylightHiggs</text>
</g>
<!-- Node10&#45;&gt;Node2 -->
<g id="edge15" class="edge"><title>Node10&#45;&gt;Node2</title>
<path fill="none" stroke="#9a32cd" stroke-dasharray="5,2" d="M190.131,-171.162C189.912,-149.771 186.426,-113.937 167.528,-91 160.555,-82.5363 150.152,-76.6055 140.404,-72.569"/>
<polygon fill="#9a32cd" stroke="#9a32cd" points="186.629,-171.341 189.994,-181.387 193.628,-171.435 186.629,-171.341"/>
<text text-anchor="middle" x="204.528" y="-125.1" font-family="Helvetica,sans-Serif" font-size="8.00"> myTHDM</text>
</g>
<!-- Node10&#45;&gt;Node9 -->
<g id="edge11" class="edge"><title>Node10&#45;&gt;Node9</title>
<path fill="none" stroke="#9a32cd" stroke-dasharray="5,2" d="M167.028,-176.061C160.828,-172.145 154.241,-167.644 148.528,-163 138.141,-154.557 127.624,-143.204 121.094,-135.749"/>
<polygon fill="#9a32cd" stroke="#9a32cd" points="165.325,-179.122 175.688,-181.327 168.962,-173.141 165.325,-179.122"/>
<text text-anchor="middle" x="166.528" y="-156.6" font-family="Helvetica,sans-Serif" font-size="8.00"> myTHDM</text>
</g>
</g>
</svg>
