<?xml version="1.0" encoding="UTF-8" standalone="no"?>
<!DOCTYPE svg PUBLIC "-//W3C//DTD SVG 1.1//EN"
 "http://www.w3.org/Graphics/SVG/1.1/DTD/svg11.dtd">
<!-- Generated by graphviz version 2.38.0 (20140413.2041)
 -->
<!-- Title: EWSMcache.cpp Pages: 1 -->
<svg width="440pt" height="188pt"
 viewBox="0.00 0.00 439.50 188.00" xmlns="http://www.w3.org/2000/svg" xmlns:xlink="http://www.w3.org/1999/xlink">
<g id="graph0" class="graph" transform="scale(1 1) rotate(0) translate(4 184)">
<title>EWSMcache.cpp</title>
<!-- Node1 -->
<g id="node1" class="node"><title>Node1</title>
<polygon fill="#bfbfbf" stroke="black" points="138.5,-162.5 138.5,-179.5 216.5,-179.5 216.5,-162.5 138.5,-162.5"/>
<text text-anchor="middle" x="177.5" y="-169.1" font-family="Helvetica,sans-Serif" font-size="8.00">EWSMcache.cpp</text>
</g>
<!-- Node2 -->
<g id="node2" class="node"><title>Node2</title>
<polygon fill="none" stroke="#bfbfbf" points="0,-108.5 0,-125.5 39,-125.5 39,-108.5 0,-108.5"/>
<text text-anchor="middle" x="19.5" y="-115.1" font-family="Helvetica,sans-Serif" font-size="8.00">cstdlib</text>
</g>
<!-- Node1&#45;&gt;Node2 -->
<g id="edge1" class="edge"><title>Node1&#45;&gt;Node2</title>
<path fill="none" stroke="midnightblue" d="M154.525,-162.439C126.536,-153.227 79.2142,-137.653 48.6759,-127.602"/>
<polygon fill="midnightblue" stroke="midnightblue" points="49.608,-124.224 39.015,-124.423 47.4196,-130.873 49.608,-124.224"/>
</g>
<!-- Node3 -->
<g id="node3" class="node"><title>Node3</title>
<polygon fill="none" stroke="#bfbfbf" points="57,-108.5 57,-125.5 104,-125.5 104,-108.5 57,-108.5"/>
<text text-anchor="middle" x="80.5" y="-115.1" font-family="Helvetica,sans-Serif" font-size="8.00">iostream</text>
</g>
<!-- Node1&#45;&gt;Node3 -->
<g id="edge2" class="edge"><title>Node1&#45;&gt;Node3</title>
<path fill="none" stroke="midnightblue" d="M163.187,-162.327C147.48,-153.907 122.04,-140.269 103.521,-130.341"/>
<polygon fill="midnightblue" stroke="midnightblue" points="105.023,-127.175 94.556,-125.535 101.716,-133.345 105.023,-127.175"/>
</g>
<!-- Node4 -->
<g id="node4" class="node"><title>Node4</title>
<polygon fill="none" stroke="#bfbfbf" points="122,-108.5 122,-125.5 167,-125.5 167,-108.5 122,-108.5"/>
<text text-anchor="middle" x="144.5" y="-115.1" font-family="Helvetica,sans-Serif" font-size="8.00">iomanip</text>
</g>
<!-- Node1&#45;&gt;Node4 -->
<g id="edge3" class="edge"><title>Node1&#45;&gt;Node4</title>
<path fill="none" stroke="midnightblue" d="M172.631,-162.327C167.951,-154.954 160.733,-143.579 154.78,-134.198"/>
<polygon fill="midnightblue" stroke="midnightblue" points="157.703,-132.272 149.389,-125.704 151.792,-136.023 157.703,-132.272"/>
</g>
<!-- Node5 -->
<g id="node5" class="node"><title>Node5</title>
<polygon fill="none" stroke="#bfbfbf" points="185,-108.5 185,-125.5 236,-125.5 236,-108.5 185,-108.5"/>
<text text-anchor="middle" x="210.5" y="-115.1" font-family="Helvetica,sans-Serif" font-size="8.00">stdexcept</text>
</g>
<!-- Node1&#45;&gt;Node5 -->
<g id="edge4" class="edge"><title>Node1&#45;&gt;Node5</title>
<path fill="none" stroke="midnightblue" d="M182.369,-162.327C187.049,-154.954 194.267,-143.579 200.22,-134.198"/>
<polygon fill="midnightblue" stroke="midnightblue" points="203.208,-136.023 205.611,-125.704 197.297,-132.272 203.208,-136.023"/>
</g>
<!-- Node6 -->
<g id="node6" class="node"><title>Node6</title>
<polygon fill="none" stroke="#bfbfbf" points="254,-108.5 254,-125.5 311,-125.5 311,-108.5 254,-108.5"/>
<text text-anchor="middle" x="282.5" y="-115.1" font-family="Helvetica,sans-Serif" font-size="8.00">gsl/gsl_sf.h</text>
</g>
<!-- Node1&#45;&gt;Node6 -->
<g id="edge5" class="edge"><title>Node1&#45;&gt;Node6</title>
<path fill="none" stroke="midnightblue" d="M192.993,-162.327C210.151,-153.83 238.04,-140.018 258.13,-130.069"/>
<polygon fill="midnightblue" stroke="midnightblue" points="259.877,-133.11 267.285,-125.535 256.77,-126.837 259.877,-133.11"/>
</g>
<!-- Node7 -->
<g id="node7" class="node"><title>Node7</title>
<g id="a_node7"><a xlink:href="../../d8/d46/_e_w_s_mcache_8h.html" target="_top" xlink:title="EWSMcache.h">
<polygon fill="none" stroke="red" points="329,-108.5 329,-125.5 398,-125.5 398,-108.5 329,-108.5"/>
<text text-anchor="middle" x="363.5" y="-115.1" font-family="Helvetica,sans-Serif" font-size="8.00">EWSMcache.h</text>
</a>
</g>
</g>
<!-- Node1&#45;&gt;Node7 -->
<g id="edge6" class="edge"><title>Node1&#45;&gt;Node7</title>
<path fill="none" stroke="midnightblue" d="M204.546,-162.439C236.78,-153.427 290.792,-138.327 326.782,-128.265"/>
<polygon fill="midnightblue" stroke="midnightblue" points="327.733,-131.634 336.421,-125.57 325.848,-124.892 327.733,-131.634"/>
</g>
<!-- Node8 -->
<g id="node8" class="node"><title>Node8</title>
<polygon fill="none" stroke="#bfbfbf" points="274.5,-54.5 274.5,-71.5 312.5,-71.5 312.5,-54.5 274.5,-54.5"/>
<text text-anchor="middle" x="293.5" y="-61.1" font-family="Helvetica,sans-Serif" font-size="8.00">cmath</text>
</g>
<!-- Node7&#45;&gt;Node8 -->
<g id="edge7" class="edge"><title>Node7&#45;&gt;Node8</title>
<path fill="none" stroke="midnightblue" d="M353.171,-108.327C342.418,-100.339 325.343,-87.6551 312.209,-77.8979"/>
<polygon fill="midnightblue" stroke="midnightblue" points="313.986,-74.8579 303.871,-71.7043 309.811,-80.4771 313.986,-74.8579"/>
</g>
<!-- Node9 -->
<g id="node9" class="node"><title>Node9</title>
<g id="a_node9"><a xlink:href="../../d3/d6b/_p_vfunctions_8h.html" target="_top" xlink:title="PVfunctions.h">
<polygon fill="none" stroke="red" points="330.5,-54.5 330.5,-71.5 396.5,-71.5 396.5,-54.5 330.5,-54.5"/>
<text text-anchor="middle" x="363.5" y="-61.1" font-family="Helvetica,sans-Serif" font-size="8.00">PVfunctions.h</text>
</a>
</g>
</g>
<!-- Node7&#45;&gt;Node9 -->
<g id="edge8" class="edge"><title>Node7&#45;&gt;Node9</title>
<path fill="none" stroke="midnightblue" d="M363.5,-108.327C363.5,-101.414 363.5,-90.985 363.5,-81.9789"/>
<polygon fill="midnightblue" stroke="midnightblue" points="367,-81.7042 363.5,-71.7043 360,-81.7043 367,-81.7042"/>
</g>
<!-- Node10 -->
<g id="node10" class="node"><title>Node10</title>
<g id="a_node10"><a xlink:href="../../dd/dc1/_polylogarithms_8h.html" target="_top" xlink:title="Polylogarithms.h">
<polygon fill="none" stroke="red" points="355.5,-0.5 355.5,-17.5 431.5,-17.5 431.5,-0.5 355.5,-0.5"/>
<text text-anchor="middle" x="393.5" y="-7.1" font-family="Helvetica,sans-Serif" font-size="8.00">Polylogarithms.h</text>
</a>
</g>
</g>
<!-- Node7&#45;&gt;Node10 -->
<g id="edge10" class="edge"><title>Node7&#45;&gt;Node10</title>
<path fill="none" stroke="midnightblue" d="M374.524,-108.402C384.75,-100.619 399.294,-87.4884 405.5,-72 411.362,-57.3703 406.857,-39.6213 401.779,-26.869"/>
<polygon fill="midnightblue" stroke="midnightblue" points="404.871,-25.2106 397.594,-17.5105 398.481,-28.0681 404.871,-25.2106"/>
</g>
<!-- Node9&#45;&gt;Node10 -->
<g id="edge9" class="edge"><title>Node9&#45;&gt;Node10</title>
<path fill="none" stroke="midnightblue" d="M367.927,-54.3272C372.136,-47.0304 378.607,-35.8153 383.985,-26.4919"/>
<polygon fill="midnightblue" stroke="midnightblue" points="387.09,-28.1152 389.055,-17.7043 381.026,-24.6171 387.09,-28.1152"/>
</g>
</g>
</svg>
