<?xml version="1.0" encoding="UTF-8" standalone="no"?>
<!DOCTYPE svg PUBLIC "-//W3C//DTD SVG 1.1//EN"
 "http://www.w3.org/Graphics/SVG/1.1/DTD/svg11.dtd">
<!-- Generated by graphviz version 2.40.1 (20161225.0304)
 -->
<!-- Title: SlhaTwo.hpp Pages: 1 -->
<svg width="727pt" height="305pt"
 viewBox="0.00 0.00 726.50 305.00" xmlns="http://www.w3.org/2000/svg" xmlns:xlink="http://www.w3.org/1999/xlink">
<g id="graph0" class="graph" transform="scale(1 1) rotate(0) translate(4 301)">
<title>SlhaTwo.hpp</title>
<!-- Node0 -->
<g id="node1" class="node">
<title>Node0</title>
<polygon fill="#bfbfbf" stroke="#000000" points="223.5,-279.5 223.5,-296.5 286.5,-296.5 286.5,-279.5 223.5,-279.5"/>
<text text-anchor="middle" x="255" y="-286.1" font-family="Helvetica,sans-Serif" font-size="8.00" fill="#000000">SlhaTwo.hpp</text>
</g>
<!-- Node1 -->
<g id="node2" class="node">
<title>Node1</title>
<g id="a_node2"><a xlink:href="../../d7/dc0/_slha_one_8hpp.html" target="_top" xlink:title="SlhaOne.hpp">
<polygon fill="none" stroke="#000000" points="223.5,-225.5 223.5,-242.5 286.5,-242.5 286.5,-225.5 223.5,-225.5"/>
<text text-anchor="middle" x="255" y="-232.1" font-family="Helvetica,sans-Serif" font-size="8.00" fill="#000000">SlhaOne.hpp</text>
</a>
</g>
</g>
<!-- Node0&#45;&gt;Node1 -->
<g id="edge1" class="edge">
<title>Node0&#45;&gt;Node1</title>
<path fill="none" stroke="#191970" d="M255,-279.083C255,-272.0059 255,-261.8611 255,-252.9865"/>
<polygon fill="#191970" stroke="#191970" points="258.5001,-252.751 255,-242.7511 251.5001,-252.7511 258.5001,-252.751"/>
</g>
<!-- Node2 -->
<g id="node3" class="node">
<title>Node2</title>
<g id="a_node3"><a xlink:href="../../d5/dae/_block_types_8hpp.html" target="_top" xlink:title="BlockTypes.hpp">
<polygon fill="none" stroke="#ff0000" points="263.5,-117.5 263.5,-134.5 336.5,-134.5 336.5,-117.5 263.5,-117.5"/>
<text text-anchor="middle" x="300" y="-124.1" font-family="Helvetica,sans-Serif" font-size="8.00" fill="#000000">BlockTypes.hpp</text>
</a>
</g>
</g>
<!-- Node1&#45;&gt;Node2 -->
<g id="edge2" class="edge">
<title>Node1&#45;&gt;Node2</title>
<path fill="none" stroke="#191970" d="M258.6825,-225.1619C266.0366,-207.5123 282.672,-167.5872 292.4436,-144.1352"/>
<polygon fill="#191970" stroke="#191970" points="295.7769,-145.2353 296.3923,-134.6584 289.3154,-142.543 295.7769,-145.2353"/>
</g>
<!-- Node76 -->
<g id="node10" class="node">
<title>Node76</title>
<g id="a_node10"><a xlink:href="../../d7/d9f/_slha_parser_8hpp.html" target="_top" xlink:title="SlhaParser.hpp">
<polygon fill="none" stroke="#ff0000" points="187,-171.5 187,-188.5 259,-188.5 259,-171.5 187,-171.5"/>
<text text-anchor="middle" x="223" y="-178.1" font-family="Helvetica,sans-Serif" font-size="8.00" fill="#000000">SlhaParser.hpp</text>
</a>
</g>
</g>
<!-- Node1&#45;&gt;Node76 -->
<g id="edge10" class="edge">
<title>Node1&#45;&gt;Node76</title>
<path fill="none" stroke="#191970" d="M249.7159,-225.083C245.289,-217.6127 238.8367,-206.7244 233.3821,-197.5199"/>
<polygon fill="#191970" stroke="#191970" points="236.2949,-195.5697 228.1858,-188.7511 230.2729,-199.1383 236.2949,-195.5697"/>
</g>
<!-- Node3 -->
<g id="node4" class="node">
<title>Node3</title>
<g id="a_node4"><a xlink:href="../../d7/db2/_running_constant_8hpp.html" target="_top" xlink:title="../MEC/RunningConstant.hpp">
<polygon fill="none" stroke="#ff0000" points="156.5,-59 156.5,-76 277.5,-76 277.5,-59 156.5,-59"/>
<text text-anchor="middle" x="217" y="-65.6" font-family="Helvetica,sans-Serif" font-size="8.00" fill="#000000">../MEC/RunningConstant.hpp</text>
</a>
</g>
</g>
<!-- Node2&#45;&gt;Node3 -->
<g id="edge3" class="edge">
<title>Node2&#45;&gt;Node3</title>
<path fill="none" stroke="#191970" d="M287.7531,-117.3681C274.6351,-108.1223 253.583,-93.2844 237.8475,-82.1937"/>
<polygon fill="#191970" stroke="#191970" points="239.4873,-79.0675 229.2972,-76.1673 235.4546,-84.7892 239.4873,-79.0675"/>
</g>
<!-- Node41 -->
<g id="node5" class="node">
<title>Node41</title>
<g id="a_node5"><a xlink:href="../../d7/dc2/_running_constant_error_8hpp.html" target="_top" xlink:title="../MEC/RunningConstantError.hpp">
<polygon fill="none" stroke="#ff0000" points="0,-59 0,-76 138,-76 138,-59 0,-59"/>
<text text-anchor="middle" x="69" y="-65.6" font-family="Helvetica,sans-Serif" font-size="8.00" fill="#000000">../MEC/RunningConstantError.hpp</text>
</a>
</g>
</g>
<!-- Node2&#45;&gt;Node41 -->
<g id="edge4" class="edge">
<title>Node2&#45;&gt;Node41</title>
<path fill="none" stroke="#191970" d="M266.4106,-117.4936C225.694,-107.1823 156.9971,-89.785 112.3297,-78.4731"/>
<polygon fill="#191970" stroke="#191970" points="113.1832,-75.0788 102.6299,-76.0167 111.4646,-81.8646 113.1832,-75.0788"/>
</g>
<!-- Node42 -->
<g id="node6" class="node">
<title>Node42</title>
<g id="a_node6"><a xlink:href="../../da/d21/_flavor_observable_8hpp.html" target="_top" xlink:title="FlavorObservable.hpp">
<polygon fill="none" stroke="#ff0000" points="476.5,-59 476.5,-76 571.5,-76 571.5,-59 476.5,-59"/>
<text text-anchor="middle" x="524" y="-65.6" font-family="Helvetica,sans-Serif" font-size="8.00" fill="#000000">FlavorObservable.hpp</text>
</a>
</g>
</g>
<!-- Node2&#45;&gt;Node42 -->
<g id="edge5" class="edge">
<title>Node2&#45;&gt;Node42</title>
<path fill="none" stroke="#191970" d="M332.5715,-117.4936C371.9713,-107.2039 438.3897,-89.858 481.71,-78.5445"/>
<polygon fill="#191970" stroke="#191970" points="482.5981,-81.93 491.3892,-76.0167 480.8293,-75.1572 482.5981,-81.93"/>
</g>
<!-- Node43 -->
<g id="node7" class="node">
<title>Node43</title>
<g id="a_node7"><a xlink:href="../../d8/da3/_same_name_block_set_8hpp.html" target="_top" xlink:title="BlockClasses/SameNameBlock\lSet.hpp">
<polygon fill="none" stroke="#ff0000" points="589.5,-54.5 589.5,-80.5 718.5,-80.5 718.5,-54.5 589.5,-54.5"/>
<text text-anchor="start" x="597.5" y="-70.1" font-family="Helvetica,sans-Serif" font-size="8.00" fill="#000000">BlockClasses/SameNameBlock</text>
<text text-anchor="middle" x="654" y="-61.1" font-family="Helvetica,sans-Serif" font-size="8.00" fill="#000000">Set.hpp</text>
</a>
</g>
</g>
<!-- Node2&#45;&gt;Node43 -->
<g id="edge6" class="edge">
<title>Node2&#45;&gt;Node43</title>
<path fill="none" stroke="#191970" d="M336.8693,-120.3852C388.7278,-112.4244 486.426,-97.1958 579.0352,-81.3172"/>
<polygon fill="#191970" stroke="#191970" points="579.8741,-84.7243 589.1357,-79.5792 578.687,-77.8257 579.8741,-84.7243"/>
</g>
<!-- Node45 -->
<g id="node8" class="node">
<title>Node45</title>
<g id="a_node8"><a xlink:href="../../dd/d89/_slha_block_8hpp.html" target="_top" xlink:title="SlhaBlock.hpp">
<polygon fill="none" stroke="#ff0000" points="317,-.5 317,-17.5 385,-17.5 385,-.5 317,-.5"/>
<text text-anchor="middle" x="351" y="-7.1" font-family="Helvetica,sans-Serif" font-size="8.00" fill="#000000">SlhaBlock.hpp</text>
</a>
</g>
</g>
<!-- Node2&#45;&gt;Node45 -->
<g id="edge7" class="edge">
<title>Node2&#45;&gt;Node45</title>
<path fill="none" stroke="#191970" d="M302.4167,-117.3716C306.3875,-103.6492 314.8713,-76.1402 325,-54 329.3166,-44.5643 335.0018,-34.5251 339.9548,-26.3287"/>
<polygon fill="#191970" stroke="#191970" points="343.0102,-28.0428 345.3071,-17.7 337.0617,-24.353 343.0102,-28.0428"/>
</g>
<!-- Node48 -->
<g id="node9" class="node">
<title>Node48</title>
<g id="a_node9"><a xlink:href="../../d7/dcc/_just_single_value_block_8hpp.html" target="_top" xlink:title="BlockClasses/JustSingleValue\lBlock.hpp">
<polygon fill="none" stroke="#ff0000" points="334,-54.5 334,-80.5 458,-80.5 458,-54.5 334,-54.5"/>
<text text-anchor="start" x="342" y="-70.1" font-family="Helvetica,sans-Serif" font-size="8.00" fill="#000000">BlockClasses/JustSingleValue</text>
<text text-anchor="middle" x="396" y="-61.1" font-family="Helvetica,sans-Serif" font-size="8.00" fill="#000000">Block.hpp</text>
</a>
</g>
</g>
<!-- Node2&#45;&gt;Node48 -->
<g id="edge8" class="edge">
<title>Node2&#45;&gt;Node48</title>
<path fill="none" stroke="#191970" d="M314.1651,-117.3681C327.6671,-109.1404 348.4363,-96.4841 365.6721,-85.9811"/>
<polygon fill="#191970" stroke="#191970" points="367.588,-88.9123 374.3061,-80.7197 363.9453,-82.9347 367.588,-88.9123"/>
</g>
<!-- Node48&#45;&gt;Node45 -->
<g id="edge9" class="edge">
<title>Node48&#45;&gt;Node45</title>
<path fill="none" stroke="#191970" d="M385.7888,-54.2254C379.3319,-45.8314 370.9272,-34.9054 363.9965,-25.8955"/>
<polygon fill="#191970" stroke="#191970" points="366.5552,-23.4812 357.6838,-17.689 361.0068,-27.7492 366.5552,-23.4812"/>
</g>
<!-- Node76&#45;&gt;Node2 -->
<g id="edge13" class="edge">
<title>Node76&#45;&gt;Node2</title>
<path fill="none" stroke="#191970" d="M235.3714,-171.324C247.1585,-163.0577 265.1323,-150.4527 279.1355,-140.6322"/>
<polygon fill="#191970" stroke="#191970" points="281.4816,-143.2619 287.6593,-134.6545 277.4624,-137.5307 281.4816,-143.2619"/>
</g>
<!-- Node76&#45;&gt;Node3 -->
<g id="edge11" class="edge">
<title>Node76&#45;&gt;Node3</title>
<path fill="none" stroke="#191970" d="M222.5292,-171.1723C221.5609,-153.0173 219.3273,-111.1361 218.0144,-86.5201"/>
<polygon fill="#191970" stroke="#191970" points="221.4963,-86.0861 217.4686,-76.2867 214.5063,-86.4589 221.4963,-86.0861"/>
</g>
<!-- Node76&#45;&gt;Node41 -->
<g id="edge12" class="edge">
<title>Node76&#45;&gt;Node41</title>
<path fill="none" stroke="#191970" d="M210.9159,-171.1723C184.6019,-151.9494 121.8757,-106.1268 89.3467,-82.3637"/>
<polygon fill="#191970" stroke="#191970" points="91.1675,-79.3594 81.028,-76.2867 87.0383,-85.0118 91.1675,-79.3594"/>
</g>
</g>
</svg>
