<?xml version="1.0" encoding="UTF-8" standalone="no"?>
<!DOCTYPE svg PUBLIC "-//W3C//DTD SVG 1.1//EN"
 "http://www.w3.org/Graphics/SVG/1.1/DTD/svg11.dtd">
<!-- Generated by graphviz version 2.38.0 (20140413.2041)
 -->
<!-- Title: SUSYMatching.h Pages: 1 -->
<svg width="599pt" height="188pt"
 viewBox="0.00 0.00 598.50 188.00" xmlns="http://www.w3.org/2000/svg" xmlns:xlink="http://www.w3.org/1999/xlink">
<g id="graph0" class="graph" transform="scale(1 1) rotate(0) translate(4 184)">
<title>SUSYMatching.h</title>
<!-- Node1 -->
<g id="node1" class="node"><title>Node1</title>
<polygon fill="#bfbfbf" stroke="black" points="342,-162.5 342,-179.5 419,-179.5 419,-162.5 342,-162.5"/>
<text text-anchor="middle" x="380.5" y="-169.1" font-family="Helvetica,sans-Serif" font-size="8.00">SUSYMatching.h</text>
</g>
<!-- Node2 -->
<g id="node2" class="node"><title>Node2</title>
<g id="a_node2"><a xlink:href="../../d5/d37/_s_u_s_y_8h.html" target="_top" xlink:title="SUSY.h">
<polygon fill="none" stroke="red" points="286,-108.5 286,-125.5 331,-125.5 331,-108.5 286,-108.5"/>
<text text-anchor="middle" x="308.5" y="-115.1" font-family="Helvetica,sans-Serif" font-size="8.00">SUSY.h</text>
</a>
</g>
</g>
<!-- Node1&#45;&gt;Node2 -->
<g id="edge1" class="edge"><title>Node1&#45;&gt;Node2</title>
<path fill="none" stroke="midnightblue" d="M361.698,-156.421C348.149,-146.635 330.351,-133.782 319.167,-125.704"/>
<polygon fill="midnightblue" stroke="midnightblue" points="359.72,-159.31 369.876,-162.327 363.819,-153.635 359.72,-159.31"/>
</g>
<!-- Node10 -->
<g id="node10" class="node"><title>Node10</title>
<g id="a_node10"><a xlink:href="../../d7/d7d/_s_u_s_y_matching_8cpp.html" target="_top" xlink:title="SUSYMatching.cpp">
<polygon fill="none" stroke="black" points="504.5,-54.5 504.5,-71.5 590.5,-71.5 590.5,-54.5 504.5,-54.5"/>
<text text-anchor="middle" x="547.5" y="-61.1" font-family="Helvetica,sans-Serif" font-size="8.00">SUSYMatching.cpp</text>
</a>
</g>
</g>
<!-- Node1&#45;&gt;Node10 -->
<g id="edge11" class="edge"><title>Node1&#45;&gt;Node10</title>
<path fill="none" stroke="midnightblue" d="M401.062,-156.949C436.365,-134.541 507.424,-89.4378 535.599,-71.5542"/>
<polygon fill="midnightblue" stroke="midnightblue" points="399.077,-154.063 392.51,-162.377 402.829,-159.973 399.077,-154.063"/>
</g>
<!-- Node3 -->
<g id="node3" class="node"><title>Node3</title>
<g id="a_node3"><a xlink:href="../../d6/d78/_general_s_u_s_y_8h.html" target="_top" xlink:title="GeneralSUSY.h">
<polygon fill="none" stroke="red" points="0,-54.5 0,-71.5 73,-71.5 73,-54.5 0,-54.5"/>
<text text-anchor="middle" x="36.5" y="-61.1" font-family="Helvetica,sans-Serif" font-size="8.00">GeneralSUSY.h</text>
</a>
</g>
</g>
<!-- Node2&#45;&gt;Node3 -->
<g id="edge2" class="edge"><title>Node2&#45;&gt;Node3</title>
<path fill="none" stroke="midnightblue" d="M275.639,-109.718C224.643,-99.9685 126.775,-81.2584 73.4131,-71.0569"/>
<polygon fill="midnightblue" stroke="midnightblue" points="275.298,-113.216 285.777,-111.656 276.612,-106.34 275.298,-113.216"/>
</g>
<!-- Node4 -->
<g id="node4" class="node"><title>Node4</title>
<g id="a_node4"><a xlink:href="../../d3/df6/_model_factory_8cpp.html" target="_top" xlink:title="ModelFactory.cpp">
<polygon fill="none" stroke="black" points="28.5,-0.5 28.5,-17.5 108.5,-17.5 108.5,-0.5 28.5,-0.5"/>
<text text-anchor="middle" x="68.5" y="-7.1" font-family="Helvetica,sans-Serif" font-size="8.00">ModelFactory.cpp</text>
</a>
</g>
</g>
<!-- Node2&#45;&gt;Node4 -->
<g id="edge4" class="edge"><title>Node2&#45;&gt;Node4</title>
<path fill="none" stroke="midnightblue" d="M275.803,-114.567C236.315,-111.504 169.148,-101.92 120.5,-72 98.0031,-58.1637 80.5046,-31.2124 72.7958,-17.8708"/>
<polygon fill="midnightblue" stroke="midnightblue" points="275.716,-118.069 285.93,-115.256 276.191,-111.086 275.716,-118.069"/>
</g>
<!-- Node5 -->
<g id="node5" class="node"><title>Node5</title>
<g id="a_node5"><a xlink:href="../../d6/d2e/_mchargino_8h.html" target="_top" xlink:title="Mchargino.h">
<polygon fill="none" stroke="red" points="130,-54.5 130,-71.5 191,-71.5 191,-54.5 130,-54.5"/>
<text text-anchor="middle" x="160.5" y="-61.1" font-family="Helvetica,sans-Serif" font-size="8.00">Mchargino.h</text>
</a>
</g>
</g>
<!-- Node2&#45;&gt;Node5 -->
<g id="edge5" class="edge"><title>Node2&#45;&gt;Node5</title>
<path fill="none" stroke="midnightblue" d="M277.458,-105.093C248.856,-95.0441 207.158,-80.3934 182.046,-71.5704"/>
<polygon fill="midnightblue" stroke="midnightblue" points="276.385,-108.426 286.98,-108.439 278.705,-101.822 276.385,-108.426"/>
</g>
<!-- Node6 -->
<g id="node6" class="node"><title>Node6</title>
<g id="a_node6"><a xlink:href="../../d8/dc2/_mhiggs_8h.html" target="_top" xlink:title="Mhiggs.h">
<polygon fill="none" stroke="red" points="209,-54.5 209,-71.5 258,-71.5 258,-54.5 209,-54.5"/>
<text text-anchor="middle" x="233.5" y="-61.1" font-family="Helvetica,sans-Serif" font-size="8.00">Mhiggs.h</text>
</a>
</g>
</g>
<!-- Node2&#45;&gt;Node6 -->
<g id="edge6" class="edge"><title>Node2&#45;&gt;Node6</title>
<path fill="none" stroke="midnightblue" d="M288.915,-102.421C274.801,-92.6354 256.262,-79.7816 244.612,-71.7043"/>
<polygon fill="midnightblue" stroke="midnightblue" points="287.221,-105.506 297.433,-108.327 291.21,-99.7531 287.221,-105.506"/>
</g>
<!-- Node7 -->
<g id="node7" class="node"><title>Node7</title>
<g id="a_node7"><a xlink:href="../../dc/db9/_mneutralino_8h.html" target="_top" xlink:title="Mneutralino.h">
<polygon fill="none" stroke="red" points="276,-54.5 276,-71.5 341,-71.5 341,-54.5 276,-54.5"/>
<text text-anchor="middle" x="308.5" y="-61.1" font-family="Helvetica,sans-Serif" font-size="8.00">Mneutralino.h</text>
</a>
</g>
</g>
<!-- Node2&#45;&gt;Node7 -->
<g id="edge7" class="edge"><title>Node2&#45;&gt;Node7</title>
<path fill="none" stroke="midnightblue" d="M308.5,-98.0621C308.5,-89.0603 308.5,-78.6277 308.5,-71.7043"/>
<polygon fill="midnightblue" stroke="midnightblue" points="305,-98.3272 308.5,-108.327 312,-98.3273 305,-98.3272"/>
</g>
<!-- Node8 -->
<g id="node8" class="node"><title>Node8</title>
<g id="a_node8"><a xlink:href="../../d1/d97/_msdown_8h.html" target="_top" xlink:title="Msdown.h">
<polygon fill="none" stroke="red" points="359,-54.5 359,-71.5 412,-71.5 412,-54.5 359,-54.5"/>
<text text-anchor="middle" x="385.5" y="-61.1" font-family="Helvetica,sans-Serif" font-size="8.00">Msdown.h</text>
</a>
</g>
</g>
<!-- Node2&#45;&gt;Node8 -->
<g id="edge8" class="edge"><title>Node2&#45;&gt;Node8</title>
<path fill="none" stroke="midnightblue" d="M328.247,-102.664C342.881,-92.7814 362.299,-79.6679 374.342,-71.5352"/>
<polygon fill="midnightblue" stroke="midnightblue" points="326.19,-99.8301 319.862,-108.327 330.108,-105.631 326.19,-99.8301"/>
</g>
<!-- Node9 -->
<g id="node9" class="node"><title>Node9</title>
<g id="a_node9"><a xlink:href="../../dc/d9f/_mslepton_8h.html" target="_top" xlink:title="Mslepton.h">
<polygon fill="none" stroke="red" points="430.5,-54.5 430.5,-71.5 486.5,-71.5 486.5,-54.5 430.5,-54.5"/>
<text text-anchor="middle" x="458.5" y="-61.1" font-family="Helvetica,sans-Serif" font-size="8.00">Mslepton.h</text>
</a>
</g>
</g>
<!-- Node2&#45;&gt;Node9 -->
<g id="edge9" class="edge"><title>Node2&#45;&gt;Node9</title>
<path fill="none" stroke="midnightblue" d="M339.962,-105.093C368.95,-95.0441 411.211,-80.3934 436.662,-71.5704"/>
<polygon fill="midnightblue" stroke="midnightblue" points="338.613,-101.856 330.311,-108.439 340.906,-108.47 338.613,-101.856"/>
</g>
<!-- Node2&#45;&gt;Node10 -->
<g id="edge10" class="edge"><title>Node2&#45;&gt;Node10</title>
<path fill="none" stroke="midnightblue" d="M341.249,-108.875C386.238,-99.0863 466.801,-81.5579 512.795,-71.5508"/>
<polygon fill="midnightblue" stroke="midnightblue" points="340.444,-105.468 331.416,-111.014 341.932,-112.308 340.444,-105.468"/>
</g>
<!-- Node3&#45;&gt;Node4 -->
<g id="edge3" class="edge"><title>Node3&#45;&gt;Node4</title>
<path fill="none" stroke="midnightblue" d="M46.6241,-45.5483C52.3582,-36.2304 59.2617,-25.0123 63.7589,-17.7043"/>
<polygon fill="midnightblue" stroke="midnightblue" points="43.4819,-43.9763 41.2217,-54.3272 49.4435,-47.645 43.4819,-43.9763"/>
</g>
</g>
</svg>
