<?xml version="1.0" encoding="UTF-8" standalone="no"?>
<!DOCTYPE svg PUBLIC "-//W3C//DTD SVG 1.1//EN"
 "http://www.w3.org/Graphics/SVG/1.1/DTD/svg11.dtd">
<!-- Generated by graphviz version 2.40.1 (20161225.0304)
 -->
<!-- Title: DenseSinglyIndexed.hpp Pages: 1 -->
<svg width="383pt" height="296pt"
 viewBox="0.00 0.00 382.50 296.00" xmlns="http://www.w3.org/2000/svg" xmlns:xlink="http://www.w3.org/1999/xlink">
<g id="graph0" class="graph" transform="scale(1 1) rotate(0) translate(4 292)">
<title>DenseSinglyIndexed.hpp</title>
<!-- Node45 -->
<g id="node1" class="node">
<title>Node45</title>
<polygon fill="#bfbfbf" stroke="#000000" points="60,-270.5 60,-287.5 165,-287.5 165,-270.5 60,-270.5"/>
<text text-anchor="middle" x="112.5" y="-277.1" font-family="Helvetica,sans-Serif" font-size="8.00" fill="#000000">DenseSinglyIndexed.hpp</text>
</g>
<!-- Node46 -->
<g id="node2" class="node">
<title>Node46</title>
<g id="a_node2"><a xlink:href="../../d2/dbd/_dense_singly_indexed_block_8hpp.html" target="_top" xlink:title="DenseSinglyIndexedBlock.hpp">
<polygon fill="none" stroke="#000000" points="115,-216.5 115,-233.5 240,-233.5 240,-216.5 115,-216.5"/>
<text text-anchor="middle" x="177.5" y="-223.1" font-family="Helvetica,sans-Serif" font-size="8.00" fill="#000000">DenseSinglyIndexedBlock.hpp</text>
</a>
</g>
</g>
<!-- Node45&#45;&gt;Node46 -->
<g id="edge1" class="edge">
<title>Node45&#45;&gt;Node46</title>
<path fill="none" stroke="#191970" d="M130.7726,-263.8197C142.4178,-254.1452 157.0995,-241.9481 166.8666,-233.8339"/>
<polygon fill="#191970" stroke="#191970" points="128.3987,-261.2416 122.9434,-270.324 132.8719,-266.6259 128.3987,-261.2416"/>
</g>
<!-- Node79 -->
<g id="node10" class="node">
<title>Node79</title>
<g id="a_node10"><a xlink:href="../../d4/dc2/_interpreter_classes_8hpp.html" target="_top" xlink:title="InterpreterClasses.hpp">
<polygon fill="none" stroke="#000000" points="0,-216.5 0,-233.5 97,-233.5 97,-216.5 0,-216.5"/>
<text text-anchor="middle" x="48.5" y="-223.1" font-family="Helvetica,sans-Serif" font-size="8.00" fill="#000000">InterpreterClasses.hpp</text>
</a>
</g>
</g>
<!-- Node45&#45;&gt;Node79 -->
<g id="edge15" class="edge">
<title>Node45&#45;&gt;Node79</title>
<path fill="none" stroke="#191970" d="M94.5085,-263.8197C83.0424,-254.1452 68.5867,-241.9481 58.9698,-233.8339"/>
<polygon fill="#191970" stroke="#191970" points="92.3173,-266.5502 102.2173,-270.324 96.8314,-261.2002 92.3173,-266.5502"/>
</g>
<!-- Node47 -->
<g id="node3" class="node">
<title>Node47</title>
<g id="a_node3"><a xlink:href="../../db/d13/_block_classes_8hpp.html" target="_top" xlink:title="BlockClasses.hpp">
<polygon fill="none" stroke="#000000" points="8.5,-162.5 8.5,-179.5 88.5,-179.5 88.5,-162.5 8.5,-162.5"/>
<text text-anchor="middle" x="48.5" y="-169.1" font-family="Helvetica,sans-Serif" font-size="8.00" fill="#000000">BlockClasses.hpp</text>
</a>
</g>
</g>
<!-- Node46&#45;&gt;Node47 -->
<g id="edge2" class="edge">
<title>Node46&#45;&gt;Node47</title>
<path fill="none" stroke="#191970" d="M147.646,-212.503C123.4622,-202.3795 90.038,-188.388 68.8448,-179.5164"/>
<polygon fill="#191970" stroke="#191970" points="146.4836,-215.8106 157.0596,-216.4435 149.1867,-209.3536 146.4836,-215.8106"/>
</g>
<!-- Node64 -->
<g id="node5" class="node">
<title>Node64</title>
<g id="a_node5"><a xlink:href="../../d5/dae/_block_types_8hpp.html" target="_top" xlink:title="BlockTypes.hpp">
<polygon fill="none" stroke="#ff0000" points="147,-162.5 147,-179.5 220,-179.5 220,-162.5 147,-162.5"/>
<text text-anchor="middle" x="183.5" y="-169.1" font-family="Helvetica,sans-Serif" font-size="8.00" fill="#000000">BlockTypes.hpp</text>
</a>
</g>
</g>
<!-- Node46&#45;&gt;Node64 -->
<g id="edge4" class="edge">
<title>Node46&#45;&gt;Node64</title>
<path fill="none" stroke="#191970" d="M179.5999,-206.1005C180.596,-197.1357 181.738,-186.8579 182.5277,-179.7511"/>
<polygon fill="#191970" stroke="#191970" points="176.1166,-205.7576 178.4908,-216.083 183.0738,-206.5307 176.1166,-205.7576"/>
</g>
<!-- Node48 -->
<g id="node4" class="node">
<title>Node48</title>
<g id="a_node4"><a xlink:href="../../d4/d42/_s_l_h_a_8hpp.html" target="_top" xlink:title="SLHA.hpp">
<polygon fill="none" stroke="#ff0000" points="108,-.5 108,-17.5 161,-17.5 161,-.5 108,-.5"/>
<text text-anchor="middle" x="134.5" y="-7.1" font-family="Helvetica,sans-Serif" font-size="8.00" fill="#000000">SLHA.hpp</text>
</a>
</g>
</g>
<!-- Node47&#45;&gt;Node48 -->
<g id="edge3" class="edge">
<title>Node47&#45;&gt;Node48</title>
<path fill="none" stroke="#191970" d="M52.0133,-152.5596C57.2018,-128.4758 68.5233,-85.6586 88.5,-54 97.6813,-39.4497 112.4627,-26.1208 122.7841,-17.8091"/>
<polygon fill="#191970" stroke="#191970" points="48.5602,-151.9772 49.9996,-162.4738 55.4201,-153.3706 48.5602,-151.9772"/>
</g>
<!-- Node64&#45;&gt;Node48 -->
<g id="edge13" class="edge">
<title>Node64&#45;&gt;Node48</title>
<path fill="none" stroke="#191970" d="M162.6549,-156.3823C140.2748,-139.2085 106.2197,-108.3928 93.5,-72 86.0082,-50.565 107.6416,-29.1638 122.2691,-17.6528"/>
<polygon fill="#191970" stroke="#191970" points="160.7569,-159.3322 170.873,-162.4813 164.9287,-153.7111 160.7569,-159.3322"/>
</g>
<!-- Node65 -->
<g id="node6" class="node">
<title>Node65</title>
<g id="a_node6"><a xlink:href="../../de/d0c/_flha_one_8hpp.html" target="_top" xlink:title="FlhaOne.hpp">
<polygon fill="none" stroke="#000000" points="103,-54.5 103,-71.5 166,-71.5 166,-54.5 103,-54.5"/>
<text text-anchor="middle" x="134.5" y="-61.1" font-family="Helvetica,sans-Serif" font-size="8.00" fill="#000000">FlhaOne.hpp</text>
</a>
</g>
</g>
<!-- Node64&#45;&gt;Node65 -->
<g id="edge5" class="edge">
<title>Node64&#45;&gt;Node65</title>
<path fill="none" stroke="#191970" d="M166.5356,-155.1933C158.9365,-147.1701 150.564,-136.8391 145.5,-126 137.0406,-107.8933 135.039,-84.1029 134.5961,-71.5732"/>
<polygon fill="#191970" stroke="#191970" points="164.1789,-157.7863 173.7257,-162.3807 169.1277,-152.8356 164.1789,-157.7863"/>
</g>
<!-- Node66 -->
<g id="node7" class="node">
<title>Node66</title>
<g id="a_node7"><a xlink:href="../../d7/d9f/_slha_parser_8hpp.html" target="_top" xlink:title="SlhaParser.hpp">
<polygon fill="none" stroke="#ff0000" points="154.5,-108.5 154.5,-125.5 226.5,-125.5 226.5,-108.5 154.5,-108.5"/>
<text text-anchor="middle" x="190.5" y="-115.1" font-family="Helvetica,sans-Serif" font-size="8.00" fill="#000000">SlhaParser.hpp</text>
</a>
</g>
</g>
<!-- Node64&#45;&gt;Node66 -->
<g id="edge7" class="edge">
<title>Node64&#45;&gt;Node66</title>
<path fill="none" stroke="#191970" d="M185.9499,-152.1005C187.112,-143.1357 188.4443,-132.8579 189.3656,-125.7511"/>
<polygon fill="#191970" stroke="#191970" points="182.4706,-151.716 184.6559,-162.083 189.4125,-152.6159 182.4706,-151.716"/>
</g>
<!-- Node67 -->
<g id="node8" class="node">
<title>Node67</title>
<g id="a_node8"><a xlink:href="../../d7/dc0/_slha_one_8hpp.html" target="_top" xlink:title="SlhaOne.hpp">
<polygon fill="none" stroke="#ff0000" points="223,-54.5 223,-71.5 286,-71.5 286,-54.5 223,-54.5"/>
<text text-anchor="middle" x="254.5" y="-61.1" font-family="Helvetica,sans-Serif" font-size="8.00" fill="#000000">SlhaOne.hpp</text>
</a>
</g>
</g>
<!-- Node64&#45;&gt;Node67 -->
<g id="edge12" class="edge">
<title>Node64&#45;&gt;Node67</title>
<path fill="none" stroke="#191970" d="M205.6631,-156.3235C216.0415,-148.4387 227.7878,-137.8962 235.5,-126 246.6861,-108.7454 251.5351,-84.6088 253.4282,-71.7985"/>
<polygon fill="#191970" stroke="#191970" points="203.4491,-153.605 197.3856,-162.2932 207.5437,-159.2825 203.4491,-153.605"/>
</g>
<!-- Node73 -->
<g id="node9" class="node">
<title>Node73</title>
<g id="a_node9"><a xlink:href="../../d5/dce/_slha_value_plotter_8hpp.html" target="_top" xlink:title="SlhaValuePlotter.hpp">
<polygon fill="none" stroke="#ff0000" points="282.5,-108.5 282.5,-125.5 374.5,-125.5 374.5,-108.5 282.5,-108.5"/>
<text text-anchor="middle" x="328.5" y="-115.1" font-family="Helvetica,sans-Serif" font-size="8.00" fill="#000000">SlhaValuePlotter.hpp</text>
</a>
</g>
</g>
<!-- Node64&#45;&gt;Node73 -->
<g id="edge14" class="edge">
<title>Node64&#45;&gt;Node73</title>
<path fill="none" stroke="#191970" d="M215.9751,-158.9058C243.2358,-148.7536 281.4924,-134.5063 305.6318,-125.5164"/>
<polygon fill="#191970" stroke="#191970" points="214.6254,-155.6736 206.4757,-162.4435 217.0684,-162.2334 214.6254,-155.6736"/>
</g>
<!-- Node65&#45;&gt;Node48 -->
<g id="edge6" class="edge">
<title>Node65&#45;&gt;Node48</title>
<path fill="none" stroke="#191970" d="M134.5,-43.8045C134.5,-34.9102 134.5,-24.7798 134.5,-17.7511"/>
<polygon fill="#191970" stroke="#191970" points="131.0001,-44.083 134.5,-54.083 138.0001,-44.083 131.0001,-44.083"/>
</g>
<!-- Node66&#45;&gt;Node48 -->
<g id="edge11" class="edge">
<title>Node66&#45;&gt;Node48</title>
<path fill="none" stroke="#191970" d="M188.1448,-98.2952C185.9482,-85.2944 181.8615,-67.879 174.5,-54 166.8593,-39.5946 153.6772,-26.0356 144.5445,-17.6407"/>
<polygon fill="#191970" stroke="#191970" points="184.7102,-98.9972 189.6234,-108.3839 191.6362,-97.9821 184.7102,-98.9972"/>
</g>
<!-- Node66&#45;&gt;Node65 -->
<g id="edge8" class="edge">
<title>Node66&#45;&gt;Node65</title>
<path fill="none" stroke="#191970" d="M174.1701,-101.2533C164.235,-91.6731 151.9125,-79.7906 143.6611,-71.8339"/>
<polygon fill="#191970" stroke="#191970" points="171.8747,-103.902 181.5026,-108.324 176.7336,-98.8631 171.8747,-103.902"/>
</g>
<!-- Node66&#45;&gt;Node67 -->
<g id="edge9" class="edge">
<title>Node66&#45;&gt;Node67</title>
<path fill="none" stroke="#191970" d="M208.4915,-101.8197C219.9576,-92.1452 234.4133,-79.9481 244.0302,-71.8339"/>
<polygon fill="#191970" stroke="#191970" points="206.1686,-99.2002 200.7827,-108.324 210.6827,-104.5502 206.1686,-99.2002"/>
</g>
<!-- Node67&#45;&gt;Node48 -->
<g id="edge10" class="edge">
<title>Node67&#45;&gt;Node48</title>
<path fill="none" stroke="#191970" d="M226.1269,-50.2321C203.6804,-40.1312 172.9648,-26.3091 153.4254,-17.5164"/>
<polygon fill="#191970" stroke="#191970" points="224.9301,-53.5316 235.4856,-54.4435 227.8027,-47.1481 224.9301,-53.5316"/>
</g>
<!-- Node79&#45;&gt;Node47 -->
<g id="edge16" class="edge">
<title>Node79&#45;&gt;Node47</title>
<path fill="none" stroke="#191970" d="M48.5,-205.8045C48.5,-196.9102 48.5,-186.7798 48.5,-179.7511"/>
<polygon fill="#191970" stroke="#191970" points="45.0001,-206.083 48.5,-216.083 52.0001,-206.083 45.0001,-206.083"/>
</g>
</g>
</svg>
