<?xml version="1.0" encoding="UTF-8" standalone="no"?>
<!DOCTYPE svg PUBLIC "-//W3C//DTD SVG 1.1//EN"
 "http://www.w3.org/Graphics/SVG/1.1/DTD/svg11.dtd">
<!-- Generated by graphviz version 2.40.1 (20161225.0304)
 -->
<!-- Title: MtMSbar.h Pages: 1 -->
<svg width="172pt" height="80pt"
 viewBox="0.00 0.00 172.00 80.00" xmlns="http://www.w3.org/2000/svg" xmlns:xlink="http://www.w3.org/1999/xlink">
<g id="graph0" class="graph" transform="scale(1 1) rotate(0) translate(4 76)">
<title>MtMSbar.h</title>
<!-- Node4 -->
<g id="node1" class="node">
<title>Node4</title>
<polygon fill="#bfbfbf" stroke="#000000" points="58,-54.5 58,-71.5 114,-71.5 114,-54.5 58,-54.5"/>
<text text-anchor="middle" x="86" y="-61.1" font-family="Helvetica,sans-Serif" font-size="8.00" fill="#000000">MtMSbar.h</text>
</g>
<!-- Node5 -->
<g id="node2" class="node">
<title>Node5</title>
<g id="a_node2"><a xlink:href="../../d1/de2/_th_obs_factory_8cpp.html" target="_top" xlink:title="ThObsFactory.cpp">
<polygon fill="none" stroke="#000000" points="0,-.5 0,-17.5 82,-17.5 82,-.5 0,-.5"/>
<text text-anchor="middle" x="41" y="-7.1" font-family="Helvetica,sans-Serif" font-size="8.00" fill="#000000">ThObsFactory.cpp</text>
</a>
</g>
</g>
<!-- Node4&#45;&gt;Node5 -->
<g id="edge1" class="edge">
<title>Node4&#45;&gt;Node5</title>
<path fill="none" stroke="#191970" d="M71.9533,-46.144C64.1131,-36.7357 54.6705,-25.4046 48.2926,-17.7511"/>
<polygon fill="#191970" stroke="#191970" points="69.4785,-48.6414 78.5692,-54.083 74.8561,-44.1601 69.4785,-48.6414"/>
</g>
<!-- Node6 -->
<g id="node3" class="node">
<title>Node6</title>
<g id="a_node3"><a xlink:href="../../d1/dd5/_mt_m_sbar_8cpp.html" target="_top" xlink:title="MtMSbar.cpp">
<polygon fill="none" stroke="#000000" points="100,-.5 100,-17.5 164,-17.5 164,-.5 100,-.5"/>
<text text-anchor="middle" x="132" y="-7.1" font-family="Helvetica,sans-Serif" font-size="8.00" fill="#000000">MtMSbar.cpp</text>
</a>
</g>
</g>
<!-- Node4&#45;&gt;Node6 -->
<g id="edge2" class="edge">
<title>Node4&#45;&gt;Node6</title>
<path fill="none" stroke="#191970" d="M100.114,-46.4314C108.176,-36.9673 117.9592,-25.4827 124.5454,-17.7511"/>
<polygon fill="#191970" stroke="#191970" points="97.4163,-44.2009 93.596,-54.083 102.745,-48.7402 97.4163,-44.2009"/>
</g>
</g>
</svg>
