<?xml version="1.0" encoding="UTF-8" standalone="no"?>
<!DOCTYPE svg PUBLIC "-//W3C//DTD SVG 1.1//EN"
 "http://www.w3.org/Graphics/SVG/1.1/DTD/svg11.dtd">
<!-- Generated by graphviz version 2.40.1 (20161225.0304)
 -->
<!-- Title: BR_Bdnunu.h Pages: 1 -->
<svg width="366pt" height="242pt"
 viewBox="0.00 0.00 365.59 242.00" xmlns="http://www.w3.org/2000/svg" xmlns:xlink="http://www.w3.org/1999/xlink">
<g id="graph0" class="graph" transform="scale(1 1) rotate(0) translate(4 238)">
<title>BR_Bdnunu.h</title>
<!-- Node0 -->
<g id="node1" class="node">
<title>Node0</title>
<polygon fill="#bfbfbf" stroke="#000000" points="121,-216.5 121,-233.5 187,-233.5 187,-216.5 121,-216.5"/>
<text text-anchor="middle" x="154" y="-223.1" font-family="Helvetica,sans-Serif" font-size="8.00" fill="#000000">BR_Bdnunu.h</text>
</g>
<!-- Node1 -->
<g id="node2" class="node">
<title>Node1</title>
<g id="a_node2"><a xlink:href="../../dd/dcd/_th_observable_8h.html" target="_top" xlink:title="ThObservable.h">
<polygon fill="none" stroke="#000000" points="26.5,-162.5 26.5,-179.5 99.5,-179.5 99.5,-162.5 26.5,-162.5"/>
<text text-anchor="middle" x="63" y="-169.1" font-family="Helvetica,sans-Serif" font-size="8.00" fill="#000000">ThObservable.h</text>
</a>
</g>
</g>
<!-- Node0&#45;&gt;Node1 -->
<g id="edge1" class="edge">
<title>Node0&#45;&gt;Node1</title>
<path fill="none" stroke="#191970" d="M139.3793,-216.324C125.0511,-207.8215 102.9875,-194.7288 86.2513,-184.7975"/>
<polygon fill="#191970" stroke="#191970" points="87.9704,-181.7478 77.5844,-179.6545 84.3982,-187.7677 87.9704,-181.7478"/>
</g>
<!-- Node4 -->
<g id="node5" class="node">
<title>Node4</title>
<g id="a_node5"><a xlink:href="../../d4/d36/_order_scheme_8h.html" target="_top" xlink:title="OrderScheme.h">
<polygon fill="none" stroke="#000000" points="117.5,-162.5 117.5,-179.5 190.5,-179.5 190.5,-162.5 117.5,-162.5"/>
<text text-anchor="middle" x="154" y="-169.1" font-family="Helvetica,sans-Serif" font-size="8.00" fill="#000000">OrderScheme.h</text>
</a>
</g>
</g>
<!-- Node0&#45;&gt;Node4 -->
<g id="edge4" class="edge">
<title>Node0&#45;&gt;Node4</title>
<path fill="none" stroke="#191970" d="M154,-216.083C154,-209.0059 154,-198.8611 154,-189.9865"/>
<polygon fill="#191970" stroke="#191970" points="157.5001,-189.751 154,-179.7511 150.5001,-189.7511 157.5001,-189.751"/>
</g>
<!-- Node5 -->
<g id="node6" class="node">
<title>Node5</title>
<g id="a_node6"><a xlink:href="../../d9/d72/gslpp_8h.html" target="_top" xlink:title="gslpp.h">
<polygon fill="none" stroke="#ff0000" points="209,-162.5 209,-179.5 251,-179.5 251,-162.5 209,-162.5"/>
<text text-anchor="middle" x="230" y="-169.1" font-family="Helvetica,sans-Serif" font-size="8.00" fill="#000000">gslpp.h</text>
</a>
</g>
</g>
<!-- Node0&#45;&gt;Node5 -->
<g id="edge5" class="edge">
<title>Node0&#45;&gt;Node5</title>
<path fill="none" stroke="#191970" d="M166.2107,-216.324C177.7759,-208.1066 195.3754,-195.6017 209.1607,-185.8069"/>
<polygon fill="#191970" stroke="#191970" points="211.4425,-188.4791 217.5671,-179.8339 207.388,-182.7729 211.4425,-188.4791"/>
</g>
<!-- Node2 -->
<g id="node3" class="node">
<title>Node2</title>
<polygon fill="none" stroke="#bfbfbf" points="0,-108.5 0,-125.5 38,-125.5 38,-108.5 0,-108.5"/>
<text text-anchor="middle" x="19" y="-115.1" font-family="Helvetica,sans-Serif" font-size="8.00" fill="#000000">vector</text>
</g>
<!-- Node1&#45;&gt;Node2 -->
<g id="edge2" class="edge">
<title>Node1&#45;&gt;Node2</title>
<path fill="none" stroke="#191970" d="M55.7343,-162.083C49.4552,-154.3768 40.2124,-143.0333 32.5692,-133.6531"/>
<polygon fill="#191970" stroke="#191970" points="35.1606,-131.2926 26.1305,-125.7511 29.7339,-135.7143 35.1606,-131.2926"/>
</g>
<!-- Node3 -->
<g id="node4" class="node">
<title>Node3</title>
<polygon fill="none" stroke="#bfbfbf" points="56,-108.5 56,-125.5 92,-125.5 92,-108.5 56,-108.5"/>
<text text-anchor="middle" x="74" y="-115.1" font-family="Helvetica,sans-Serif" font-size="8.00" fill="#000000">string</text>
</g>
<!-- Node1&#45;&gt;Node3 -->
<g id="edge3" class="edge">
<title>Node1&#45;&gt;Node3</title>
<path fill="none" stroke="#191970" d="M64.8164,-162.083C66.2741,-154.9272 68.3706,-144.6353 70.1925,-135.6911"/>
<polygon fill="#191970" stroke="#191970" points="73.6508,-136.2485 72.2174,-125.7511 66.7917,-134.8512 73.6508,-136.2485"/>
</g>
<!-- Node6 -->
<g id="node7" class="node">
<title>Node6</title>
<g id="a_node7"><a xlink:href="../../d1/dc2/gslpp__complex_8h.html" target="_top" xlink:title="gslpp_complex.h">
<polygon fill="none" stroke="#ff0000" points="219.5,-.5 219.5,-17.5 296.5,-17.5 296.5,-.5 219.5,-.5"/>
<text text-anchor="middle" x="258" y="-7.1" font-family="Helvetica,sans-Serif" font-size="8.00" fill="#000000">gslpp_complex.h</text>
</a>
</g>
</g>
<!-- Node5&#45;&gt;Node6 -->
<g id="edge6" class="edge">
<title>Node5&#45;&gt;Node6</title>
<path fill="none" stroke="#191970" d="M250.7004,-162.295C280.6811,-148.3589 334.8063,-117.8573 355,-72 366.3424,-46.2428 336.1904,-29.8054 306.5794,-20.2033"/>
<polygon fill="#191970" stroke="#191970" points="307.2033,-16.736 296.6189,-17.2054 305.1858,-23.439 307.2033,-16.736"/>
</g>
<!-- Node10 -->
<g id="node8" class="node">
<title>Node10</title>
<g id="a_node8"><a xlink:href="../../da/d8e/gslpp__vector__double_8h.html" target="_top" xlink:title="gslpp_vector_double.h">
<polygon fill="none" stroke="#ff0000" points="248.5,-54.5 248.5,-71.5 345.5,-71.5 345.5,-54.5 248.5,-54.5"/>
<text text-anchor="middle" x="297" y="-61.1" font-family="Helvetica,sans-Serif" font-size="8.00" fill="#000000">gslpp_vector_double.h</text>
</a>
</g>
</g>
<!-- Node5&#45;&gt;Node10 -->
<g id="edge7" class="edge">
<title>Node5&#45;&gt;Node10</title>
<path fill="none" stroke="#191970" d="M242.3714,-162.3803C253.2399,-154.1962 268.7263,-140.9481 278,-126 286.3845,-112.4851 291.2688,-95.0378 293.9802,-81.9321"/>
<polygon fill="#191970" stroke="#191970" points="297.4878,-82.2059 295.8369,-71.7405 290.6011,-80.9513 297.4878,-82.2059"/>
</g>
<!-- Node13 -->
<g id="node9" class="node">
<title>Node13</title>
<g id="a_node9"><a xlink:href="../../da/dad/gslpp__vector__complex_8h.html" target="_top" xlink:title="gslpp_vector_complex.h">
<polygon fill="none" stroke="#ff0000" points="88.5,-54.5 88.5,-71.5 191.5,-71.5 191.5,-54.5 88.5,-54.5"/>
<text text-anchor="middle" x="140" y="-61.1" font-family="Helvetica,sans-Serif" font-size="8.00" fill="#000000">gslpp_vector_complex.h</text>
</a>
</g>
</g>
<!-- Node5&#45;&gt;Node13 -->
<g id="edge9" class="edge">
<title>Node5&#45;&gt;Node13</title>
<path fill="none" stroke="#191970" d="M210.4636,-162.4065C195.3017,-154.8255 174.7768,-142.426 162,-126 151.8862,-112.9976 146.2204,-95.0038 143.1816,-81.5744"/>
<polygon fill="#191970" stroke="#191970" points="146.5784,-80.7093 141.2069,-71.5771 139.7111,-82.0658 146.5784,-80.7093"/>
</g>
<!-- Node15 -->
<g id="node10" class="node">
<title>Node15</title>
<g id="a_node10"><a xlink:href="../../d0/ddb/gslpp__matrix__double_8h.html" target="_top" xlink:title="gslpp_matrix_double.h">
<polygon fill="none" stroke="#ff0000" points="171.5,-108.5 171.5,-125.5 268.5,-125.5 268.5,-108.5 171.5,-108.5"/>
<text text-anchor="middle" x="220" y="-115.1" font-family="Helvetica,sans-Serif" font-size="8.00" fill="#000000">gslpp_matrix_double.h</text>
</a>
</g>
</g>
<!-- Node5&#45;&gt;Node15 -->
<g id="edge11" class="edge">
<title>Node5&#45;&gt;Node15</title>
<path fill="none" stroke="#191970" d="M228.3487,-162.083C227.0236,-154.9272 225.1176,-144.6353 223.4613,-135.6911"/>
<polygon fill="#191970" stroke="#191970" points="226.883,-134.9466 221.6206,-125.7511 220.0001,-136.2212 226.883,-134.9466"/>
</g>
<!-- Node10&#45;&gt;Node6 -->
<g id="edge8" class="edge">
<title>Node10&#45;&gt;Node6</title>
<path fill="none" stroke="#191970" d="M290.5599,-54.083C285.0511,-46.4554 276.9688,-35.2645 270.235,-25.9408"/>
<polygon fill="#191970" stroke="#191970" points="273.0126,-23.8087 264.3202,-17.7511 267.3378,-27.9071 273.0126,-23.8087"/>
</g>
<!-- Node13&#45;&gt;Node6 -->
<g id="edge10" class="edge">
<title>Node13&#45;&gt;Node6</title>
<path fill="none" stroke="#191970" d="M158.6975,-54.4435C177.9445,-45.6356 208.1525,-31.8116 230.2001,-21.722"/>
<polygon fill="#191970" stroke="#191970" points="231.7534,-24.8603 239.39,-17.5164 228.8405,-18.4951 231.7534,-24.8603"/>
</g>
<!-- Node15&#45;&gt;Node6 -->
<g id="edge12" class="edge">
<title>Node15&#45;&gt;Node6</title>
<path fill="none" stroke="#191970" d="M222.5203,-108.3738C226.1335,-96.1761 233.1121,-73.2299 240,-54 243.232,-44.9769 247.1514,-35.0744 250.5067,-26.8615"/>
<polygon fill="#191970" stroke="#191970" points="253.7681,-28.1336 254.3608,-17.5554 247.3008,-25.4552 253.7681,-28.1336"/>
</g>
<!-- Node15&#45;&gt;Node10 -->
<g id="edge13" class="edge">
<title>Node15&#45;&gt;Node10</title>
<path fill="none" stroke="#191970" d="M232.3714,-108.324C244.1585,-100.0577 262.1323,-87.4527 276.1355,-77.6322"/>
<polygon fill="#191970" stroke="#191970" points="278.4816,-80.2619 284.6593,-71.6545 274.4624,-74.5307 278.4816,-80.2619"/>
</g>
<!-- Node15&#45;&gt;Node13 -->
<g id="edge14" class="edge">
<title>Node15&#45;&gt;Node13</title>
<path fill="none" stroke="#191970" d="M207.1466,-108.324C194.7836,-99.979 175.8699,-87.2122 161.2628,-77.3524"/>
<polygon fill="#191970" stroke="#191970" points="163.0682,-74.3483 152.8215,-71.6545 159.1518,-80.1503 163.0682,-74.3483"/>
</g>
</g>
</svg>
