<?xml version="1.0" encoding="UTF-8" standalone="no"?>
<!DOCTYPE svg PUBLIC "-//W3C//DTD SVG 1.1//EN"
 "http://www.w3.org/Graphics/SVG/1.1/DTD/svg11.dtd">
<!-- Generated by graphviz version 2.40.1 (20161225.0304)
 -->
<!-- Title: CMFVMatching.cpp Pages: 1 -->
<svg width="258pt" height="350pt"
 viewBox="0.00 0.00 257.50 350.00" xmlns="http://www.w3.org/2000/svg" xmlns:xlink="http://www.w3.org/1999/xlink">
<g id="graph0" class="graph" transform="scale(1 1) rotate(0) translate(4 346)">
<title>CMFVMatching.cpp</title>
<!-- Node0 -->
<g id="node1" class="node">
<title>Node0</title>
<polygon fill="#bfbfbf" stroke="#000000" points="46.5,-324.5 46.5,-341.5 133.5,-341.5 133.5,-324.5 46.5,-324.5"/>
<text text-anchor="middle" x="90" y="-331.1" font-family="Helvetica,sans-Serif" font-size="8.00" fill="#000000">CMFVMatching.cpp</text>
</g>
<!-- Node1 -->
<g id="node2" class="node">
<title>Node1</title>
<g id="a_node2"><a xlink:href="../../d3/d6c/_c_m_f_v_matching_8h.html" target="_top" xlink:title="CMFVMatching.h">
<polygon fill="none" stroke="#000000" points="0,-216.5 0,-233.5 78,-233.5 78,-216.5 0,-216.5"/>
<text text-anchor="middle" x="39" y="-223.1" font-family="Helvetica,sans-Serif" font-size="8.00" fill="#000000">CMFVMatching.h</text>
</a>
</g>
</g>
<!-- Node0&#45;&gt;Node1 -->
<g id="edge1" class="edge">
<title>Node0&#45;&gt;Node1</title>
<path fill="none" stroke="#191970" d="M82.4515,-324.2453C75.2912,-315.5555 64.6635,-301.602 58,-288 51.0808,-273.876 46.1087,-256.7231 42.9905,-243.8839"/>
<polygon fill="#191970" stroke="#191970" points="46.3504,-242.8741 40.7252,-233.8959 39.5238,-244.4224 46.3504,-242.8741"/>
</g>
<!-- Node41 -->
<g id="node8" class="node">
<title>Node41</title>
<g id="a_node8"><a xlink:href="../../d7/db0/_c_m_f_v_8h.html" target="_top" xlink:title="CMFV.h">
<polygon fill="none" stroke="#000000" points="67,-270.5 67,-287.5 113,-287.5 113,-270.5 67,-270.5"/>
<text text-anchor="middle" x="90" y="-277.1" font-family="Helvetica,sans-Serif" font-size="8.00" fill="#000000">CMFV.h</text>
</a>
</g>
</g>
<!-- Node0&#45;&gt;Node41 -->
<g id="edge10" class="edge">
<title>Node0&#45;&gt;Node41</title>
<path fill="none" stroke="#191970" d="M90,-324.083C90,-317.0059 90,-306.8611 90,-297.9865"/>
<polygon fill="#191970" stroke="#191970" points="93.5001,-297.751 90,-287.7511 86.5001,-297.7511 93.5001,-297.751"/>
</g>
<!-- Node24 -->
<g id="node10" class="node">
<title>Node24</title>
<polygon fill="none" stroke="#bfbfbf" points="131.5,-270.5 131.5,-287.5 182.5,-287.5 182.5,-270.5 131.5,-270.5"/>
<text text-anchor="middle" x="157" y="-277.1" font-family="Helvetica,sans-Serif" font-size="8.00" fill="#000000">stdexcept</text>
</g>
<!-- Node0&#45;&gt;Node24 -->
<g id="edge14" class="edge">
<title>Node0&#45;&gt;Node24</title>
<path fill="none" stroke="#191970" d="M100.7647,-324.324C110.7661,-316.2631 125.8865,-304.0765 137.9305,-294.3695"/>
<polygon fill="#191970" stroke="#191970" points="140.4498,-296.8343 146.0394,-287.8339 136.0571,-291.3841 140.4498,-296.8343"/>
</g>
<!-- Node2 -->
<g id="node3" class="node">
<title>Node2</title>
<g id="a_node3"><a xlink:href="../../d9/d72/gslpp_8h.html" target="_top" xlink:title="gslpp.h">
<polygon fill="none" stroke="#ff0000" points="59,-108.5 59,-125.5 101,-125.5 101,-108.5 59,-108.5"/>
<text text-anchor="middle" x="80" y="-115.1" font-family="Helvetica,sans-Serif" font-size="8.00" fill="#000000">gslpp.h</text>
</a>
</g>
</g>
<!-- Node1&#45;&gt;Node2 -->
<g id="edge2" class="edge">
<title>Node1&#45;&gt;Node2</title>
<path fill="none" stroke="#191970" d="M41.1486,-216.2905C44.2892,-203.9938 50.5743,-180.9306 58,-162 61.6122,-152.7912 66.3579,-142.8815 70.5166,-134.7118"/>
<polygon fill="#191970" stroke="#191970" points="73.6575,-136.2583 75.1826,-125.7737 67.4522,-133.0188 73.6575,-136.2583"/>
</g>
<!-- Node18 -->
<g id="node7" class="node">
<title>Node18</title>
<g id="a_node7"><a xlink:href="../../d6/d16/_standard_model_matching_8h.html" target="_top" xlink:title="StandardModelMatching.h">
<polygon fill="none" stroke="#ff0000" points="67,-162.5 67,-179.5 177,-179.5 177,-162.5 67,-162.5"/>
<text text-anchor="middle" x="122" y="-169.1" font-family="Helvetica,sans-Serif" font-size="8.00" fill="#000000">StandardModelMatching.h</text>
</a>
</g>
</g>
<!-- Node1&#45;&gt;Node18 -->
<g id="edge8" class="edge">
<title>Node1&#45;&gt;Node18</title>
<path fill="none" stroke="#191970" d="M52.3354,-216.324C65.162,-207.979 84.785,-195.2122 99.9398,-185.3524"/>
<polygon fill="#191970" stroke="#191970" points="102.2243,-188.0417 108.6977,-179.6545 98.4068,-182.1742 102.2243,-188.0417"/>
</g>
<!-- Node3 -->
<g id="node4" class="node">
<title>Node3</title>
<g id="a_node4"><a xlink:href="../../d1/dc2/gslpp__complex_8h.html" target="_top" xlink:title="gslpp_complex.h">
<polygon fill="none" stroke="#ff0000" points="41.5,-.5 41.5,-17.5 118.5,-17.5 118.5,-.5 41.5,-.5"/>
<text text-anchor="middle" x="80" y="-7.1" font-family="Helvetica,sans-Serif" font-size="8.00" fill="#000000">gslpp_complex.h</text>
</a>
</g>
</g>
<!-- Node2&#45;&gt;Node3 -->
<g id="edge3" class="edge">
<title>Node2&#45;&gt;Node3</title>
<path fill="none" stroke="#191970" d="M61.6106,-108.4706C47.899,-100.997 30.1851,-88.7104 22,-72 12.346,-52.2908 33.112,-34.3633 52.425,-22.7164"/>
<polygon fill="#191970" stroke="#191970" points="54.3749,-25.635 61.365,-17.6732 50.9356,-19.5382 54.3749,-25.635"/>
</g>
<!-- Node7 -->
<g id="node5" class="node">
<title>Node7</title>
<g id="a_node5"><a xlink:href="../../da/d8e/gslpp__vector__double_8h.html" target="_top" xlink:title="gslpp_vector_double.h">
<polygon fill="none" stroke="#ff0000" points="31.5,-54.5 31.5,-71.5 128.5,-71.5 128.5,-54.5 31.5,-54.5"/>
<text text-anchor="middle" x="80" y="-61.1" font-family="Helvetica,sans-Serif" font-size="8.00" fill="#000000">gslpp_vector_double.h</text>
</a>
</g>
</g>
<!-- Node2&#45;&gt;Node7 -->
<g id="edge4" class="edge">
<title>Node2&#45;&gt;Node7</title>
<path fill="none" stroke="#191970" d="M80,-108.083C80,-101.0059 80,-90.8611 80,-81.9865"/>
<polygon fill="#191970" stroke="#191970" points="83.5001,-81.751 80,-71.7511 76.5001,-81.7511 83.5001,-81.751"/>
</g>
<!-- Node10 -->
<g id="node6" class="node">
<title>Node10</title>
<g id="a_node6"><a xlink:href="../../da/dad/gslpp__vector__complex_8h.html" target="_top" xlink:title="gslpp_vector_complex.h">
<polygon fill="none" stroke="#ff0000" points="146.5,-54.5 146.5,-71.5 249.5,-71.5 249.5,-54.5 146.5,-54.5"/>
<text text-anchor="middle" x="198" y="-61.1" font-family="Helvetica,sans-Serif" font-size="8.00" fill="#000000">gslpp_vector_complex.h</text>
</a>
</g>
</g>
<!-- Node2&#45;&gt;Node10 -->
<g id="edge6" class="edge">
<title>Node2&#45;&gt;Node10</title>
<path fill="none" stroke="#191970" d="M98.6975,-108.4435C117.9445,-99.6356 148.1525,-85.8116 170.2001,-75.722"/>
<polygon fill="#191970" stroke="#191970" points="171.7534,-78.8603 179.39,-71.5164 168.8405,-72.4951 171.7534,-78.8603"/>
</g>
<!-- Node7&#45;&gt;Node3 -->
<g id="edge5" class="edge">
<title>Node7&#45;&gt;Node3</title>
<path fill="none" stroke="#191970" d="M80,-54.083C80,-47.0059 80,-36.8611 80,-27.9865"/>
<polygon fill="#191970" stroke="#191970" points="83.5001,-27.751 80,-17.7511 76.5001,-27.7511 83.5001,-27.751"/>
</g>
<!-- Node10&#45;&gt;Node3 -->
<g id="edge7" class="edge">
<title>Node10&#45;&gt;Node3</title>
<path fill="none" stroke="#191970" d="M179.3025,-54.4435C160.0555,-45.6356 129.8475,-31.8116 107.7999,-21.722"/>
<polygon fill="#191970" stroke="#191970" points="109.1595,-18.4951 98.61,-17.5164 106.2466,-24.8603 109.1595,-18.4951"/>
</g>
<!-- Node18&#45;&gt;Node2 -->
<g id="edge9" class="edge">
<title>Node18&#45;&gt;Node2</title>
<path fill="none" stroke="#191970" d="M115.0646,-162.083C109.0708,-154.3768 100.2482,-143.0333 92.9524,-133.6531"/>
<polygon fill="#191970" stroke="#191970" points="95.7086,-131.4958 86.8064,-125.7511 90.1831,-135.7934 95.7086,-131.4958"/>
</g>
<!-- Node41&#45;&gt;Node1 -->
<g id="edge13" class="edge">
<title>Node41&#45;&gt;Node1</title>
<path fill="none" stroke="#191970" d="M81.5784,-270.083C74.1518,-262.2195 63.1483,-250.5688 54.1878,-241.0813"/>
<polygon fill="#191970" stroke="#191970" points="56.6757,-238.618 47.2649,-233.7511 51.5866,-243.4244 56.6757,-238.618"/>
</g>
<!-- Node42 -->
<g id="node9" class="node">
<title>Node42</title>
<g id="a_node9"><a xlink:href="../../d6/d0a/_standard_model_8h.html" target="_top" xlink:title="StandardModel.h">
<polygon fill="none" stroke="#ff0000" points="96.5,-216.5 96.5,-233.5 173.5,-233.5 173.5,-216.5 96.5,-216.5"/>
<text text-anchor="middle" x="135" y="-223.1" font-family="Helvetica,sans-Serif" font-size="8.00" fill="#000000">StandardModel.h</text>
</a>
</g>
</g>
<!-- Node41&#45;&gt;Node42 -->
<g id="edge11" class="edge">
<title>Node41&#45;&gt;Node42</title>
<path fill="none" stroke="#191970" d="M97.4308,-270.083C103.8527,-262.3768 113.3056,-251.0333 121.1225,-241.6531"/>
<polygon fill="#191970" stroke="#191970" points="123.9943,-243.674 127.7074,-233.7511 118.6168,-239.1927 123.9943,-243.674"/>
</g>
<!-- Node42&#45;&gt;Node18 -->
<g id="edge12" class="edge">
<title>Node42&#45;&gt;Node18</title>
<path fill="none" stroke="#191970" d="M132.8533,-216.083C131.1306,-208.9272 128.6529,-198.6353 126.4997,-189.6911"/>
<polygon fill="#191970" stroke="#191970" points="129.8501,-188.6541 124.1067,-179.7511 123.0446,-190.2925 129.8501,-188.6541"/>
</g>
</g>
</svg>
