<?xml version="1.0" encoding="UTF-8" standalone="no"?>
<!DOCTYPE svg PUBLIC "-//W3C//DTD SVG 1.1//EN"
 "http://www.w3.org/Graphics/SVG/1.1/DTD/svg11.dtd">
<!-- Generated by graphviz version 2.40.1 (20161225.0304)
 -->
<!-- Title: Robs_VBF_VH_H_ZZ_llll_CMS13 Pages: 1 -->
<svg width="420pt" height="242pt"
 viewBox="0.00 0.00 419.50 242.00" xmlns="http://www.w3.org/2000/svg" xmlns:xlink="http://www.w3.org/1999/xlink">
<g id="graph0" class="graph" transform="scale(1 1) rotate(0) translate(4 238)">
<title>Robs_VBF_VH_H_ZZ_llll_CMS13</title>
<!-- Node2 -->
<g id="node1" class="node">
<title>Node2</title>
<polygon fill="#bfbfbf" stroke="#000000" points="98,-.5 98,-26.5 205,-26.5 205,-.5 98,-.5"/>
<text text-anchor="start" x="106" y="-16.1" font-family="Helvetica,sans-Serif" font-size="8.00" fill="#000000">Robs_VBF_VH_H_ZZ_llll</text>
<text text-anchor="middle" x="151.5" y="-7.1" font-family="Helvetica,sans-Serif" font-size="8.00" fill="#000000">_CMS13</text>
</g>
<!-- Node3 -->
<g id="node2" class="node">
<title>Node3</title>
<g id="a_node2"><a xlink:href="../../dc/d1f/class_th_observable.html" target="_top" xlink:title="A class for a model prediction of an observable. ">
<polygon fill="none" stroke="#000000" points="143,-72.5 143,-89.5 210,-89.5 210,-72.5 143,-72.5"/>
<text text-anchor="middle" x="176.5" y="-79.1" font-family="Helvetica,sans-Serif" font-size="8.00" fill="#000000">ThObservable</text>
</a>
</g>
</g>
<!-- Node3&#45;&gt;Node2 -->
<g id="edge1" class="edge">
<title>Node3&#45;&gt;Node2</title>
<path fill="none" stroke="#191970" d="M178.1539,-62.4004C178.092,-56.6829 177.4282,-50.4609 175.5,-45 173.1652,-38.3874 168.8808,-32.0435 164.5712,-26.804"/>
<polygon fill="#191970" stroke="#191970" points="174.6553,-62.2939 177.7056,-72.4401 181.6483,-62.6063 174.6553,-62.2939"/>
</g>
<!-- Node4 -->
<g id="node3" class="node">
<title>Node4</title>
<g id="a_node3"><a xlink:href="../../dc/dd5/class_standard_model.html" target="_top" xlink:title="A model class for the Standard Model. ">
<polygon fill="none" stroke="#ff0000" points="211,-140 211,-157 282,-157 282,-140 211,-140"/>
<text text-anchor="middle" x="246.5" y="-146.6" font-family="Helvetica,sans-Serif" font-size="8.00" fill="#000000">StandardModel</text>
</a>
</g>
</g>
<!-- Node4&#45;&gt;Node3 -->
<g id="edge2" class="edge">
<title>Node4&#45;&gt;Node3</title>
<path fill="none" stroke="#9a32cd" stroke-dasharray="5,2" d="M230.1902,-132.7727C216.2749,-119.3544 196.782,-100.5576 185.5147,-89.6927"/>
<polygon fill="#9a32cd" stroke="#9a32cd" points="228.0065,-135.5292 237.6345,-139.9511 232.8655,-130.4902 228.0065,-135.5292"/>
<text text-anchor="middle" x="222" y="-110.6" font-family="Helvetica,sans-Serif" font-size="8.00" fill="#000000"> SM</text>
</g>
<!-- Node9 -->
<g id="node6" class="node">
<title>Node9</title>
<g id="a_node6"><a xlink:href="../../dc/df3/class_e_w_s_mcache.html" target="_top" xlink:title="A class for cache variables used in computing radiative corrections to the EW precision observables...">
<polygon fill="none" stroke="#ff0000" points="346,-72.5 346,-89.5 409,-89.5 409,-72.5 346,-72.5"/>
<text text-anchor="middle" x="377.5" y="-79.1" font-family="Helvetica,sans-Serif" font-size="8.00" fill="#000000">EWSMcache</text>
</a>
</g>
</g>
<!-- Node4&#45;&gt;Node9 -->
<g id="edge6" class="edge">
<title>Node4&#45;&gt;Node9</title>
<path fill="none" stroke="#9a32cd" stroke-dasharray="5,2" d="M272.0529,-135.3334C298.2251,-121.8477 338.1643,-101.2684 360.6297,-89.6927"/>
<polygon fill="#9a32cd" stroke="#9a32cd" points="270.3774,-132.2594 263.0912,-139.9511 273.5837,-138.4819 270.3774,-132.2594"/>
<text text-anchor="middle" x="331" y="-110.6" font-family="Helvetica,sans-Serif" font-size="8.00" fill="#000000"> SM</text>
</g>
<!-- Node47 -->
<g id="node8" class="node">
<title>Node47</title>
<g id="a_node8"><a xlink:href="../../d0/d52/class_t_h_d_m.html" target="_top" xlink:title="A base class for &#160;symmetric Two&#45;Higgs&#45;Doublet models. ">
<polygon fill="none" stroke="#000000" points="67.5,-72.5 67.5,-89.5 107.5,-89.5 107.5,-72.5 67.5,-72.5"/>
<text text-anchor="middle" x="87.5" y="-79.1" font-family="Helvetica,sans-Serif" font-size="8.00" fill="#000000">THDM</text>
</a>
</g>
</g>
<!-- Node4&#45;&gt;Node47 -->
<g id="edge10" class="edge">
<title>Node4&#45;&gt;Node47</title>
<path fill="none" stroke="#191970" d="M217.1146,-136.0251C185.3021,-122.5198 135.4124,-101.3402 107.7245,-89.5859"/>
<polygon fill="#191970" stroke="#191970" points="215.7899,-139.265 226.3625,-139.9511 218.5254,-132.8216 215.7899,-139.265"/>
</g>
<!-- Node5 -->
<g id="node4" class="node">
<title>Node5</title>
<g id="a_node4"><a xlink:href="../../dd/dfa/class_q_c_d.html" target="_top" xlink:title="A class for parameters related to QCD, hadrons and quarks. ">
<polygon fill="none" stroke="#ff0000" points="175.5,-212 175.5,-229 209.5,-229 209.5,-212 175.5,-212"/>
<text text-anchor="middle" x="192.5" y="-218.6" font-family="Helvetica,sans-Serif" font-size="8.00" fill="#000000">QCD</text>
</a>
</g>
</g>
<!-- Node5&#45;&gt;Node4 -->
<g id="edge3" class="edge">
<title>Node5&#45;&gt;Node4</title>
<path fill="none" stroke="#191970" d="M205.0517,-203.7643C216.0208,-189.139 231.4997,-168.5004 240.1018,-157.031"/>
<polygon fill="#191970" stroke="#191970" points="202.1066,-201.8579 198.9066,-211.9579 207.7066,-206.0579 202.1066,-201.8579"/>
</g>
<!-- Node8 -->
<g id="node5" class="node">
<title>Node8</title>
<g id="a_node5"><a xlink:href="../../db/d32/class_e_w_s_m_two_fermions_l_e_p2.html" target="_top" xlink:title="A class for the form factors , &#160;and &#160;in the processes &#160;at LEP&#45;II. ">
<polygon fill="none" stroke="#ff0000" points="230,-5 230,-22 339,-22 339,-5 230,-5"/>
<text text-anchor="middle" x="284.5" y="-11.6" font-family="Helvetica,sans-Serif" font-size="8.00" fill="#000000">EWSMTwoFermionsLEP2</text>
</a>
</g>
</g>
<!-- Node8&#45;&gt;Node4 -->
<g id="edge4" class="edge">
<title>Node8&#45;&gt;Node4</title>
<path fill="none" stroke="#9a32cd" stroke-dasharray="5,2" d="M274.2719,-31.0856C268.1511,-42.4061 260.7573,-57.6389 256.5,-72 249.4191,-95.8858 247.3487,-125.4464 246.7459,-139.8264"/>
<polygon fill="#9a32cd" stroke="#9a32cd" points="277.3794,-32.6997 279.2123,-22.2646 271.2721,-29.2791 277.3794,-32.6997"/>
<text text-anchor="middle" x="297" y="-79.1" font-family="Helvetica,sans-Serif" font-size="8.00" fill="#000000"> myTwoFermionsLEP2</text>
</g>
<!-- Node9&#45;&gt;Node4 -->
<g id="edge7" class="edge">
<title>Node9&#45;&gt;Node4</title>
<path fill="none" stroke="#9a32cd" stroke-dasharray="5,2" d="M363.9541,-97.1117C357.4513,-104.0198 349.1901,-111.7016 340.5,-117 322.5717,-127.9309 300.3828,-135.5974 282.0659,-140.6282"/>
<polygon fill="#9a32cd" stroke="#9a32cd" points="366.6567,-99.3398 370.7003,-89.5469 361.4324,-94.6807 366.6567,-99.3398"/>
<text text-anchor="middle" x="381.5" y="-110.6" font-family="Helvetica,sans-Serif" font-size="8.00" fill="#000000"> myEWSMcache</text>
</g>
<!-- Node9&#45;&gt;Node8 -->
<g id="edge5" class="edge">
<title>Node9&#45;&gt;Node8</title>
<path fill="none" stroke="#9a32cd" stroke-dasharray="5,2" d="M357.6211,-66.5717C339.0498,-53.0926 311.9357,-33.413 296.4766,-22.1927"/>
<polygon fill="#9a32cd" stroke="#9a32cd" points="355.5726,-69.4096 365.7215,-72.4511 359.6844,-63.7445 355.5726,-69.4096"/>
<text text-anchor="middle" x="350.5" y="-47.6" font-family="Helvetica,sans-Serif" font-size="8.00" fill="#000000"> cache</text>
</g>
<!-- Node15 -->
<g id="node7" class="node">
<title>Node15</title>
<g id="a_node7"><a xlink:href="../../d5/d76/class_matching.html" target="_top" xlink:title="Matching\&lt; StandardModelMatching,\l StandardModel \&gt;">
<polygon fill="none" stroke="#ff0000" points="228,-207.5 228,-233.5 373,-233.5 373,-207.5 228,-207.5"/>
<text text-anchor="start" x="236" y="-223.1" font-family="Helvetica,sans-Serif" font-size="8.00" fill="#000000">Matching&lt; StandardModelMatching,</text>
<text text-anchor="middle" x="300.5" y="-214.1" font-family="Helvetica,sans-Serif" font-size="8.00" fill="#000000"> StandardModel &gt;</text>
</a>
</g>
</g>
<!-- Node15&#45;&gt;Node4 -->
<g id="edge8" class="edge">
<title>Node15&#45;&gt;Node4</title>
<path fill="none" stroke="#9a32cd" stroke-dasharray="5,2" d="M284.4508,-199.1011C273.9079,-185.0439 260.6829,-167.4105 252.9533,-157.1044"/>
<polygon fill="#9a32cd" stroke="#9a32cd" points="281.7955,-201.3941 290.5956,-207.2941 287.3955,-197.1941 281.7955,-201.3941"/>
<text text-anchor="middle" x="287" y="-182.6" font-family="Helvetica,sans-Serif" font-size="8.00" fill="#000000"> SMM</text>
</g>
<!-- Node47&#45;&gt;Node2 -->
<g id="edge9" class="edge">
<title>Node47&#45;&gt;Node2</title>
<path fill="none" stroke="#9a32cd" stroke-dasharray="5,2" d="M104.7879,-65.4797C108.7166,-61.7958 112.8156,-57.8234 116.5,-54 125.0119,-45.167 134.0514,-34.6753 140.8112,-26.5839"/>
<polygon fill="#9a32cd" stroke="#9a32cd" points="102.1467,-63.1534 97.1505,-72.4962 106.8825,-68.3082 102.1467,-63.1534"/>
<text text-anchor="middle" x="142.5" y="-47.6" font-family="Helvetica,sans-Serif" font-size="8.00" fill="#000000"> myTHDM</text>
</g>
<!-- Node48 -->
<g id="node9" class="node">
<title>Node48</title>
<g id="a_node9"><a xlink:href="../../d5/df2/class_t_h_d_mcache.html" target="_top" xlink:title="A class for the caching of some THDM objects. ">
<polygon fill="none" stroke="#ff0000" points="0,-5 0,-22 61,-22 61,-5 0,-5"/>
<text text-anchor="middle" x="30.5" y="-11.6" font-family="Helvetica,sans-Serif" font-size="8.00" fill="#000000">THDMcache</text>
</a>
</g>
</g>
<!-- Node47&#45;&gt;Node48 -->
<g id="edge12" class="edge">
<title>Node47&#45;&gt;Node48</title>
<path fill="none" stroke="#9a32cd" stroke-dasharray="5,2" d="M57.3559,-73.9147C38.9509,-68.9102 17.9385,-61.738 12.5,-54 5.421,-43.9278 14.222,-30.6255 21.8182,-22.0652"/>
<polygon fill="#9a32cd" stroke="#9a32cd" points="56.6391,-77.3445 67.1971,-76.4619 58.3931,-70.5678 56.6391,-77.3445"/>
<text text-anchor="middle" x="30.5" y="-47.6" font-family="Helvetica,sans-Serif" font-size="8.00" fill="#000000"> myTHDM</text>
</g>
<!-- Node48&#45;&gt;Node47 -->
<g id="edge11" class="edge">
<title>Node48&#45;&gt;Node47</title>
<path fill="none" stroke="#9a32cd" stroke-dasharray="5,2" d="M41.2869,-30.8342C46.195,-38.2412 52.2884,-46.8169 58.5,-54 64.2595,-60.6603 71.5095,-67.4103 77.3196,-72.4952"/>
<polygon fill="#9a32cd" stroke="#9a32cd" points="44.1345,-28.7912 35.7844,-22.2699 38.2453,-32.575 44.1345,-28.7912"/>
<text text-anchor="middle" x="87.5" y="-47.6" font-family="Helvetica,sans-Serif" font-size="8.00" fill="#000000"> myTHDMcache</text>
</g>
<!-- Node58 -->
<g id="node10" class="node">
<title>Node58</title>
<g id="a_node10"><a xlink:href="../../d5/d76/class_matching.html" target="_top" xlink:title="Matching\&lt; THDMMatching,\l THDM \&gt;">
<polygon fill="none" stroke="#ff0000" points="30.5,-135.5 30.5,-161.5 144.5,-161.5 144.5,-135.5 30.5,-135.5"/>
<text text-anchor="start" x="38.5" y="-151.1" font-family="Helvetica,sans-Serif" font-size="8.00" fill="#000000">Matching&lt; THDMMatching,</text>
<text text-anchor="middle" x="87.5" y="-142.1" font-family="Helvetica,sans-Serif" font-size="8.00" fill="#000000"> THDM &gt;</text>
</a>
</g>
</g>
<!-- Node58&#45;&gt;Node47 -->
<g id="edge13" class="edge">
<title>Node58&#45;&gt;Node47</title>
<path fill="none" stroke="#9a32cd" stroke-dasharray="5,2" d="M87.5,-125.3987C87.5,-113.0883 87.5,-98.6721 87.5,-89.6863"/>
<polygon fill="#9a32cd" stroke="#9a32cd" points="84.0001,-125.4853 87.5,-135.4853 91.0001,-125.4854 84.0001,-125.4853"/>
<text text-anchor="middle" x="103.5" y="-110.6" font-family="Helvetica,sans-Serif" font-size="8.00" fill="#000000"> THDMM</text>
</g>
</g>
</svg>
