<?xml version="1.0" encoding="UTF-8" standalone="no"?>
<!DOCTYPE svg PUBLIC "-//W3C//DTD SVG 1.1//EN"
 "http://www.w3.org/Graphics/SVG/1.1/DTD/svg11.dtd">
<!-- Generated by graphviz version 2.40.1 (20161225.0304)
 -->
<!-- Title: ArgumentParser.cpp Pages: 1 -->
<svg width="364pt" height="242pt"
 viewBox="0.00 0.00 363.81 242.00" xmlns="http://www.w3.org/2000/svg" xmlns:xlink="http://www.w3.org/1999/xlink">
<g id="graph0" class="graph" transform="scale(1 1) rotate(0) translate(4 238)">
<title>ArgumentParser.cpp</title>
<!-- Node0 -->
<g id="node1" class="node">
<title>Node0</title>
<polygon fill="#bfbfbf" stroke="#000000" points="101.8121,-216.5 101.8121,-233.5 191.8121,-233.5 191.8121,-216.5 101.8121,-216.5"/>
<text text-anchor="middle" x="146.8121" y="-223.1" font-family="Helvetica,sans-Serif" font-size="8.00" fill="#000000">ArgumentParser.cpp</text>
</g>
<!-- Node1 -->
<g id="node2" class="node">
<title>Node1</title>
<g id="a_node2"><a xlink:href="../../dc/d4c/_argument_parser_8hpp.html" target="_top" xlink:title="ArgumentParser.hpp">
<polygon fill="none" stroke="#000000" points="101.8121,-162.5 101.8121,-179.5 191.8121,-179.5 191.8121,-162.5 101.8121,-162.5"/>
<text text-anchor="middle" x="146.8121" y="-169.1" font-family="Helvetica,sans-Serif" font-size="8.00" fill="#000000">ArgumentParser.hpp</text>
</a>
</g>
</g>
<!-- Node0&#45;&gt;Node1 -->
<g id="edge1" class="edge">
<title>Node0&#45;&gt;Node1</title>
<path fill="none" stroke="#191970" d="M146.8121,-216.083C146.8121,-209.0059 146.8121,-198.8611 146.8121,-189.9865"/>
<polygon fill="#191970" stroke="#191970" points="150.3122,-189.751 146.8121,-179.7511 143.3122,-189.7511 150.3122,-189.751"/>
</g>
<!-- Node2 -->
<g id="node3" class="node">
<title>Node2</title>
<polygon fill="none" stroke="#bfbfbf" points="65.8121,-.5 65.8121,-17.5 101.8121,-17.5 101.8121,-.5 65.8121,-.5"/>
<text text-anchor="middle" x="83.8121" y="-7.1" font-family="Helvetica,sans-Serif" font-size="8.00" fill="#000000">string</text>
</g>
<!-- Node1&#45;&gt;Node2 -->
<g id="edge2" class="edge">
<title>Node1&#45;&gt;Node2</title>
<path fill="none" stroke="#191970" d="M121.2433,-162.392C86.7097,-149.1823 26.7326,-120.246 2.8121,-72 -10.3547,-45.4434 27.809,-26.7948 56.1423,-16.9927"/>
<polygon fill="#191970" stroke="#191970" points="57.2286,-20.3199 65.6539,-13.8961 55.0616,-13.6638 57.2286,-20.3199"/>
</g>
<!-- Node3 -->
<g id="node4" class="node">
<title>Node3</title>
<polygon fill="none" stroke="#bfbfbf" points="317.8121,-.5 317.8121,-17.5 355.8121,-17.5 355.8121,-.5 317.8121,-.5"/>
<text text-anchor="middle" x="336.8121" y="-7.1" font-family="Helvetica,sans-Serif" font-size="8.00" fill="#000000">vector</text>
</g>
<!-- Node1&#45;&gt;Node3 -->
<g id="edge3" class="edge">
<title>Node1&#45;&gt;Node3</title>
<path fill="none" stroke="#191970" d="M178.4591,-162.4943C219.0967,-149.8437 288.6728,-122.0142 324.8121,-72 334.0843,-59.168 336.7584,-41.1554 337.3036,-27.6755"/>
<polygon fill="#191970" stroke="#191970" points="340.8037,-27.6509 337.3588,-17.6317 333.8038,-27.6123 340.8037,-27.6509"/>
</g>
<!-- Node4 -->
<g id="node5" class="node">
<title>Node4</title>
<polygon fill="none" stroke="#bfbfbf" points="12.3121,-54.5 12.3121,-71.5 55.3121,-71.5 55.3121,-54.5 12.3121,-54.5"/>
<text text-anchor="middle" x="33.8121" y="-61.1" font-family="Helvetica,sans-Serif" font-size="8.00" fill="#000000">fstream</text>
</g>
<!-- Node1&#45;&gt;Node4 -->
<g id="edge4" class="edge">
<title>Node1&#45;&gt;Node4</title>
<path fill="none" stroke="#191970" d="M136.2144,-162.2986C125.5343,-153.4214 108.6917,-139.1244 94.8121,-126 78.6599,-110.7265 61.0884,-92.3807 48.9714,-79.4361"/>
<polygon fill="#191970" stroke="#191970" points="51.2393,-76.7354 41.8662,-71.7963 46.1135,-81.5025 51.2393,-76.7354"/>
</g>
<!-- Node5 -->
<g id="node6" class="node">
<title>Node5</title>
<g id="a_node6"><a xlink:href="../../d4/dbc/_ascii_xml_parser_8hpp.html" target="_top" xlink:title="AsciiXmlParser.hpp">
<polygon fill="none" stroke="#000000" points="103.8121,-108.5 103.8121,-125.5 189.8121,-125.5 189.8121,-108.5 103.8121,-108.5"/>
<text text-anchor="middle" x="146.8121" y="-115.1" font-family="Helvetica,sans-Serif" font-size="8.00" fill="#000000">AsciiXmlParser.hpp</text>
</a>
</g>
</g>
<!-- Node1&#45;&gt;Node5 -->
<g id="edge5" class="edge">
<title>Node1&#45;&gt;Node5</title>
<path fill="none" stroke="#191970" d="M146.8121,-162.083C146.8121,-155.0059 146.8121,-144.8611 146.8121,-135.9865"/>
<polygon fill="#191970" stroke="#191970" points="150.3122,-135.751 146.8121,-125.7511 143.3122,-135.7511 150.3122,-135.751"/>
</g>
<!-- Node9 -->
<g id="node10" class="node">
<title>Node9</title>
<g id="a_node10"><a xlink:href="../../d3/d97/_string_parser_8hpp.html" target="_top" xlink:title="StringParser.hpp">
<polygon fill="none" stroke="#ff0000" points="238.3121,-54.5 238.3121,-71.5 315.3121,-71.5 315.3121,-54.5 238.3121,-54.5"/>
<text text-anchor="middle" x="276.8121" y="-61.1" font-family="Helvetica,sans-Serif" font-size="8.00" fill="#000000">StringParser.hpp</text>
</a>
</g>
</g>
<!-- Node1&#45;&gt;Node9 -->
<g id="edge16" class="edge">
<title>Node1&#45;&gt;Node9</title>
<path fill="none" stroke="#191970" d="M157.4506,-162.1619C179.6525,-143.7172 231.1374,-100.9452 258.6725,-78.0699"/>
<polygon fill="#191970" stroke="#191970" points="260.9347,-80.7408 266.39,-71.6584 256.4615,-75.3564 260.9347,-80.7408"/>
</g>
<!-- Node5&#45;&gt;Node2 -->
<g id="edge9" class="edge">
<title>Node5&#45;&gt;Node2</title>
<path fill="none" stroke="#191970" d="M135.8841,-108.4833C125.9236,-100.176 111.4811,-86.6762 102.8121,-72 94.7234,-58.306 89.8132,-40.8744 87.0166,-27.8203"/>
<polygon fill="#191970" stroke="#191970" points="90.3933,-26.8434 85.0764,-17.6793 83.518,-28.1589 90.3933,-26.8434"/>
</g>
<!-- Node5&#45;&gt;Node4 -->
<g id="edge7" class="edge">
<title>Node5&#45;&gt;Node4</title>
<path fill="none" stroke="#191970" d="M128.9069,-108.4435C110.5581,-99.6751 81.8067,-85.9355 60.7185,-75.8579"/>
<polygon fill="#191970" stroke="#191970" points="62.1654,-72.6703 51.6335,-71.5164 59.1471,-78.9862 62.1654,-72.6703"/>
</g>
<!-- Node6 -->
<g id="node7" class="node">
<title>Node6</title>
<polygon fill="none" stroke="#bfbfbf" points="155.3121,-.5 155.3121,-17.5 202.3121,-17.5 202.3121,-.5 155.3121,-.5"/>
<text text-anchor="middle" x="178.8121" y="-7.1" font-family="Helvetica,sans-Serif" font-size="8.00" fill="#000000">iostream</text>
</g>
<!-- Node5&#45;&gt;Node6 -->
<g id="edge6" class="edge">
<title>Node5&#45;&gt;Node6</title>
<path fill="none" stroke="#191970" d="M149.4308,-108.1619C154.6368,-90.5918 166.3835,-50.9465 173.3445,-27.4532"/>
<polygon fill="#191970" stroke="#191970" points="176.7615,-28.2407 176.2467,-17.6584 170.0499,-26.252 176.7615,-28.2407"/>
</g>
<!-- Node7 -->
<g id="node8" class="node">
<title>Node7</title>
<polygon fill="none" stroke="#bfbfbf" points="240.3121,-.5 240.3121,-17.5 285.3121,-17.5 285.3121,-.5 240.3121,-.5"/>
<text text-anchor="middle" x="262.8121" y="-7.1" font-family="Helvetica,sans-Serif" font-size="8.00" fill="#000000">sstream</text>
</g>
<!-- Node5&#45;&gt;Node7 -->
<g id="edge8" class="edge">
<title>Node5&#45;&gt;Node7</title>
<path fill="none" stroke="#191970" d="M156.3049,-108.1619C175.945,-89.8763 221.2661,-47.6808 245.9858,-24.6659"/>
<polygon fill="#191970" stroke="#191970" points="248.5784,-27.0342 253.5124,-17.6584 243.8085,-21.9109 248.5784,-27.0342"/>
</g>
<!-- Node8 -->
<g id="node9" class="node">
<title>Node8</title>
<polygon fill="none" stroke="#bfbfbf" points="111.8121,-54.5 111.8121,-71.5 143.8121,-71.5 143.8121,-54.5 111.8121,-54.5"/>
<text text-anchor="middle" x="127.8121" y="-61.1" font-family="Helvetica,sans-Serif" font-size="8.00" fill="#000000">map</text>
</g>
<!-- Node5&#45;&gt;Node8 -->
<g id="edge10" class="edge">
<title>Node5&#45;&gt;Node8</title>
<path fill="none" stroke="#191970" d="M143.6747,-108.083C141.1292,-100.8486 137.4559,-90.4087 134.2851,-81.3968"/>
<polygon fill="#191970" stroke="#191970" points="137.5119,-80.0225 130.8912,-71.7511 130.9087,-82.3459 137.5119,-80.0225"/>
</g>
<!-- Node5&#45;&gt;Node9 -->
<g id="edge11" class="edge">
<title>Node5&#45;&gt;Node9</title>
<path fill="none" stroke="#191970" d="M167.411,-108.4435C188.8055,-99.5566 222.4933,-85.5632 246.8365,-75.4514"/>
<polygon fill="#191970" stroke="#191970" points="248.4173,-78.5848 256.3096,-71.5164 245.732,-72.1203 248.4173,-78.5848"/>
</g>
<!-- Node9&#45;&gt;Node2 -->
<g id="edge13" class="edge">
<title>Node9&#45;&gt;Node2</title>
<path fill="none" stroke="#191970" d="M246.2307,-54.4435C209.2756,-44.1038 147.6149,-26.8515 111.8427,-16.8427"/>
<polygon fill="#191970" stroke="#191970" points="112.6279,-13.4281 102.0547,-14.1041 110.7417,-20.1692 112.6279,-13.4281"/>
</g>
<!-- Node9&#45;&gt;Node3 -->
<g id="edge15" class="edge">
<title>Node9&#45;&gt;Node3</title>
<path fill="none" stroke="#191970" d="M286.4522,-54.324C295.3217,-46.3414 308.6868,-34.3128 319.42,-24.6529"/>
<polygon fill="#191970" stroke="#191970" points="321.9051,-27.1251 326.9967,-17.8339 317.2223,-21.922 321.9051,-27.1251"/>
</g>
<!-- Node9&#45;&gt;Node6 -->
<g id="edge12" class="edge">
<title>Node9&#45;&gt;Node6</title>
<path fill="none" stroke="#191970" d="M261.0667,-54.324C245.4935,-45.7428 221.4349,-32.486 203.3528,-22.5224"/>
<polygon fill="#191970" stroke="#191970" points="204.966,-19.4152 194.5185,-17.6545 201.5877,-25.546 204.966,-19.4152"/>
</g>
<!-- Node9&#45;&gt;Node7 -->
<g id="edge14" class="edge">
<title>Node9&#45;&gt;Node7</title>
<path fill="none" stroke="#191970" d="M274.5003,-54.083C272.6451,-46.9272 269.9768,-36.6353 267.658,-27.6911"/>
<polygon fill="#191970" stroke="#191970" points="270.9786,-26.5527 265.0809,-17.7511 264.2026,-28.3094 270.9786,-26.5527"/>
</g>
</g>
</svg>
