<?xml version="1.0" encoding="UTF-8" standalone="no"?>
<!DOCTYPE svg PUBLIC "-//W3C//DTD SVG 1.1//EN"
 "http://www.w3.org/Graphics/SVG/1.1/DTD/svg11.dtd">
<!-- Generated by graphviz version 2.38.0 (20140413.2041)
 -->
<!-- Title: Bdmumu.cpp Pages: 1 -->
<svg width="355pt" height="296pt"
 viewBox="0.00 0.00 354.50 296.00" xmlns="http://www.w3.org/2000/svg" xmlns:xlink="http://www.w3.org/1999/xlink">
<g id="graph0" class="graph" transform="scale(1 1) rotate(0) translate(4 292)">
<title>Bdmumu.cpp</title>
<!-- Node1 -->
<g id="node1" class="node"><title>Node1</title>
<polygon fill="#bfbfbf" stroke="black" points="0,-270.5 0,-287.5 64,-287.5 64,-270.5 0,-270.5"/>
<text text-anchor="middle" x="32" y="-277.1" font-family="Helvetica,sans-Serif" font-size="8.00">Bdmumu.cpp</text>
</g>
<!-- Node2 -->
<g id="node2" class="node"><title>Node2</title>
<g id="a_node2"><a xlink:href="../../d4/d3e/_bdmumu_8h.html" target="_top" xlink:title="Bdmumu.h">
<polygon fill="none" stroke="black" points="4.5,-216.5 4.5,-233.5 59.5,-233.5 59.5,-216.5 4.5,-216.5"/>
<text text-anchor="middle" x="32" y="-223.1" font-family="Helvetica,sans-Serif" font-size="8.00">Bdmumu.h</text>
</a>
</g>
</g>
<!-- Node1&#45;&gt;Node2 -->
<g id="edge1" class="edge"><title>Node1&#45;&gt;Node2</title>
<path fill="none" stroke="midnightblue" d="M32,-270.327C32,-263.414 32,-252.985 32,-243.979"/>
<polygon fill="midnightblue" stroke="midnightblue" points="35.5001,-243.704 32,-233.704 28.5001,-243.704 35.5001,-243.704"/>
</g>
<!-- Node3 -->
<g id="node3" class="node"><title>Node3</title>
<g id="a_node3"><a xlink:href="../../dd/dcd/_th_observable_8h.html" target="_top" xlink:title="ThObservable.h">
<polygon fill="none" stroke="black" points="41.5,-54.5 41.5,-71.5 114.5,-71.5 114.5,-54.5 41.5,-54.5"/>
<text text-anchor="middle" x="78" y="-61.1" font-family="Helvetica,sans-Serif" font-size="8.00">ThObservable.h</text>
</a>
</g>
</g>
<!-- Node2&#45;&gt;Node3 -->
<g id="edge2" class="edge"><title>Node2&#45;&gt;Node3</title>
<path fill="none" stroke="midnightblue" d="M32.2356,-216.415C33.0345,-197.511 36.4761,-147.015 51,-108 54.6857,-98.0993 60.7016,-87.9875 66.1204,-79.9582"/>
<polygon fill="midnightblue" stroke="midnightblue" points="69.0998,-81.8074 72.0319,-71.6264 63.3908,-77.7568 69.0998,-81.8074"/>
</g>
<!-- Node4 -->
<g id="node4" class="node"><title>Node4</title>
<g id="a_node4"><a xlink:href="../../d6/d0a/_standard_model_8h.html" target="_top" xlink:title="StandardModel.h">
<polygon fill="none" stroke="red" points="71.5,-0.5 71.5,-17.5 148.5,-17.5 148.5,-0.5 71.5,-0.5"/>
<text text-anchor="middle" x="110" y="-7.1" font-family="Helvetica,sans-Serif" font-size="8.00">StandardModel.h</text>
</a>
</g>
</g>
<!-- Node2&#45;&gt;Node4 -->
<g id="edge16" class="edge"><title>Node2&#45;&gt;Node4</title>
<path fill="none" stroke="midnightblue" d="M29.0582,-216.495C19.7034,-191.308 -6.87001,-108.324 26,-54 35.5466,-38.2224 52.8214,-27.8279 69.2334,-21.1264"/>
<polygon fill="midnightblue" stroke="midnightblue" points="70.5787,-24.3604 78.732,-17.5946 68.1391,-17.7992 70.5787,-24.3604"/>
</g>
<!-- Node5 -->
<g id="node5" class="node"><title>Node5</title>
<g id="a_node5"><a xlink:href="../../d2/d65/_flavour_8h.html" target="_top" xlink:title="Flavour.h">
<polygon fill="none" stroke="black" points="140,-162.5 140,-179.5 190,-179.5 190,-162.5 140,-162.5"/>
<text text-anchor="middle" x="165" y="-169.1" font-family="Helvetica,sans-Serif" font-size="8.00">Flavour.h</text>
</a>
</g>
</g>
<!-- Node2&#45;&gt;Node5 -->
<g id="edge4" class="edge"><title>Node2&#45;&gt;Node5</title>
<path fill="none" stroke="midnightblue" d="M51.3393,-216.439C73.6002,-207.735 110.387,-193.352 136.061,-183.315"/>
<polygon fill="midnightblue" stroke="midnightblue" points="137.598,-186.472 145.637,-179.57 135.049,-179.952 137.598,-186.472"/>
</g>
<!-- Node3&#45;&gt;Node4 -->
<g id="edge3" class="edge"><title>Node3&#45;&gt;Node4</title>
<path fill="none" stroke="midnightblue" d="M82.7217,-54.3272C87.212,-47.0304 94.1137,-35.8153 99.8512,-26.4919"/>
<polygon fill="midnightblue" stroke="midnightblue" points="102.999,-28.0552 105.259,-17.7043 97.0371,-24.3865 102.999,-28.0552"/>
</g>
<!-- Node6 -->
<g id="node6" class="node"><title>Node6</title>
<g id="a_node6"><a xlink:href="../../dd/d03/_heff_d_f2_8h.html" target="_top" xlink:title="HeffDF2.h">
<polygon fill="none" stroke="red" points="171.5,-54.5 171.5,-71.5 224.5,-71.5 224.5,-54.5 171.5,-54.5"/>
<text text-anchor="middle" x="198" y="-61.1" font-family="Helvetica,sans-Serif" font-size="8.00">HeffDF2.h</text>
</a>
</g>
</g>
<!-- Node5&#45;&gt;Node6 -->
<g id="edge5" class="edge"><title>Node5&#45;&gt;Node6</title>
<path fill="none" stroke="midnightblue" d="M167.373,-162.377C172.63,-145.493 185.363,-104.593 192.648,-81.1912"/>
<polygon fill="midnightblue" stroke="midnightblue" points="196.017,-82.1426 195.648,-71.5542 189.334,-80.0618 196.017,-82.1426"/>
</g>
<!-- Node7 -->
<g id="node7" class="node"><title>Node7</title>
<g id="a_node7"><a xlink:href="../../d9/d29/_heff_d_b1_8h.html" target="_top" xlink:title="HeffDB1.h">
<polygon fill="none" stroke="red" points="242.5,-54.5 242.5,-71.5 295.5,-71.5 295.5,-54.5 242.5,-54.5"/>
<text text-anchor="middle" x="269" y="-61.1" font-family="Helvetica,sans-Serif" font-size="8.00">HeffDB1.h</text>
</a>
</g>
</g>
<!-- Node5&#45;&gt;Node7 -->
<g id="edge7" class="edge"><title>Node5&#45;&gt;Node7</title>
<path fill="none" stroke="midnightblue" d="M172.479,-162.377C189.644,-144.882 232.109,-101.6 254.557,-78.7205"/>
<polygon fill="midnightblue" stroke="midnightblue" points="257.083,-81.1435 261.588,-71.5542 252.087,-76.2411 257.083,-81.1435"/>
</g>
<!-- Node8 -->
<g id="node8" class="node"><title>Node8</title>
<g id="a_node8"><a xlink:href="../../d8/d37/_m_vll_8h.html" target="_top" xlink:title="MVll.h">
<polygon fill="none" stroke="red" points="121.5,-108.5 121.5,-125.5 160.5,-125.5 160.5,-108.5 121.5,-108.5"/>
<text text-anchor="middle" x="141" y="-115.1" font-family="Helvetica,sans-Serif" font-size="8.00">MVll.h</text>
</a>
</g>
</g>
<!-- Node5&#45;&gt;Node8 -->
<g id="edge9" class="edge"><title>Node5&#45;&gt;Node8</title>
<path fill="none" stroke="midnightblue" d="M161.459,-162.327C158.126,-155.107 153.024,-144.051 148.748,-134.787"/>
<polygon fill="midnightblue" stroke="midnightblue" points="151.924,-133.317 144.556,-125.704 145.569,-136.251 151.924,-133.317"/>
</g>
<!-- Node9 -->
<g id="node9" class="node"><title>Node9</title>
<g id="a_node9"><a xlink:href="../../d0/dee/_m_pll_8h.html" target="_top" xlink:title="MPll.h">
<polygon fill="none" stroke="red" points="60.5,-108.5 60.5,-125.5 99.5,-125.5 99.5,-108.5 60.5,-108.5"/>
<text text-anchor="middle" x="80" y="-115.1" font-family="Helvetica,sans-Serif" font-size="8.00">MPll.h</text>
</a>
</g>
</g>
<!-- Node5&#45;&gt;Node9 -->
<g id="edge12" class="edge"><title>Node5&#45;&gt;Node9</title>
<path fill="none" stroke="midnightblue" d="M152.458,-162.327C138.947,-154.062 117.216,-140.768 101.073,-130.891"/>
<polygon fill="midnightblue" stroke="midnightblue" points="102.674,-127.768 92.3171,-125.535 99.021,-133.739 102.674,-127.768"/>
</g>
<!-- Node10 -->
<g id="node10" class="node"><title>Node10</title>
<polygon fill="none" stroke="#bfbfbf" points="255.5,-108.5 255.5,-125.5 346.5,-125.5 346.5,-108.5 255.5,-108.5"/>
<text text-anchor="middle" x="301" y="-115.1" font-family="Helvetica,sans-Serif" font-size="8.00">boost/tuple/tuple.hpp</text>
</g>
<!-- Node5&#45;&gt;Node10 -->
<g id="edge15" class="edge"><title>Node5&#45;&gt;Node10</title>
<path fill="none" stroke="midnightblue" d="M184.776,-162.439C207.639,-153.697 245.489,-139.225 271.756,-129.182"/>
<polygon fill="midnightblue" stroke="midnightblue" points="273.11,-132.411 281.201,-125.57 270.61,-125.873 273.11,-132.411"/>
</g>
<!-- Node6&#45;&gt;Node4 -->
<g id="edge6" class="edge"><title>Node6&#45;&gt;Node4</title>
<path fill="none" stroke="midnightblue" d="M185.015,-54.3272C171.027,-46.0615 148.53,-32.7677 131.816,-22.8914"/>
<polygon fill="midnightblue" stroke="midnightblue" points="133.142,-19.6093 122.752,-17.5352 129.581,-25.6358 133.142,-19.6093"/>
</g>
<!-- Node7&#45;&gt;Node4 -->
<g id="edge8" class="edge"><title>Node7&#45;&gt;Node4</title>
<path fill="none" stroke="midnightblue" d="M245.88,-54.4388C218.796,-45.5812 173.726,-30.8414 142.979,-20.7857"/>
<polygon fill="midnightblue" stroke="midnightblue" points="143.74,-17.3522 133.148,-17.5704 141.565,-24.0055 143.74,-17.3522"/>
</g>
<!-- Node8&#45;&gt;Node3 -->
<g id="edge11" class="edge"><title>Node8&#45;&gt;Node3</title>
<path fill="none" stroke="midnightblue" d="M131.704,-108.327C122.119,-100.416 106.954,-87.8986 95.1799,-78.1802"/>
<polygon fill="midnightblue" stroke="midnightblue" points="97.2742,-75.3707 87.334,-71.7043 92.8183,-80.7692 97.2742,-75.3707"/>
</g>
<!-- Node8&#45;&gt;Node4 -->
<g id="edge10" class="edge"><title>Node8&#45;&gt;Node4</title>
<path fill="none" stroke="midnightblue" d="M138.795,-108.361C135.413,-96.6546 128.734,-73.5768 123,-54 120.445,-45.2761 117.584,-35.5859 115.198,-27.5248"/>
<polygon fill="midnightblue" stroke="midnightblue" points="118.509,-26.3793 112.312,-17.7859 111.798,-28.3682 118.509,-26.3793"/>
</g>
<!-- Node9&#45;&gt;Node3 -->
<g id="edge14" class="edge"><title>Node9&#45;&gt;Node3</title>
<path fill="none" stroke="midnightblue" d="M79.7049,-108.327C79.439,-101.414 79.0379,-90.985 78.6915,-81.9789"/>
<polygon fill="midnightblue" stroke="midnightblue" points="82.1782,-81.5623 78.2963,-71.7043 75.1833,-81.8314 82.1782,-81.5623"/>
</g>
<!-- Node9&#45;&gt;Node4 -->
<g id="edge13" class="edge"><title>Node9&#45;&gt;Node4</title>
<path fill="none" stroke="midnightblue" d="M66.5531,-108.446C48.3933,-97.2148 19.6427,-75.1586 32,-54 40.9608,-38.657 57.4653,-28.2441 72.9925,-21.4172"/>
<polygon fill="midnightblue" stroke="midnightblue" points="74.4814,-24.5911 82.4579,-17.6179 71.8738,-18.0949 74.4814,-24.5911"/>
</g>
</g>
</svg>
