<?xml version="1.0" encoding="UTF-8" standalone="no"?>
<!DOCTYPE svg PUBLIC "-//W3C//DTD SVG 1.1//EN"
 "http://www.w3.org/Graphics/SVG/1.1/DTD/svg11.dtd">
<!-- Generated by graphviz version 2.40.1 (20161225.0304)
 -->
<!-- Title: AmpDB2 Pages: 1 -->
<svg width="306pt" height="80pt"
 viewBox="0.00 0.00 306.00 80.00" xmlns="http://www.w3.org/2000/svg" xmlns:xlink="http://www.w3.org/1999/xlink">
<g id="graph0" class="graph" transform="scale(1 1) rotate(0) translate(4 76)">
<title>AmpDB2</title>
<!-- Node0 -->
<g id="node1" class="node">
<title>Node0</title>
<polygon fill="#bfbfbf" stroke="#000000" points="138.5,-54.5 138.5,-71.5 187.5,-71.5 187.5,-54.5 138.5,-54.5"/>
<text text-anchor="middle" x="163" y="-61.1" font-family="Helvetica,sans-Serif" font-size="8.00" fill="#000000">AmpDB2</text>
</g>
<!-- Node1 -->
<g id="node2" class="node">
<title>Node1</title>
<g id="a_node2"><a xlink:href="../../d7/d42/class_betas___j_psi_phi.html" target="_top" xlink:title="Betas_JPsiPhi">
<polygon fill="none" stroke="#000000" points="0,-.5 0,-17.5 68,-17.5 68,-.5 0,-.5"/>
<text text-anchor="middle" x="34" y="-7.1" font-family="Helvetica,sans-Serif" font-size="8.00" fill="#000000">Betas_JPsiPhi</text>
</a>
</g>
</g>
<!-- Node0&#45;&gt;Node1 -->
<g id="edge1" class="edge">
<title>Node0&#45;&gt;Node1</title>
<path fill="none" stroke="#8b1a1a" d="M133.146,-50.503C108.9622,-40.3795 75.538,-26.388 54.3448,-17.5164"/>
<polygon fill="#8b1a1a" stroke="#8b1a1a" points="131.9836,-53.8106 142.5596,-54.4435 134.6867,-47.3536 131.9836,-53.8106"/>
</g>
<!-- Node2 -->
<g id="node3" class="node">
<title>Node2</title>
<g id="a_node3"><a xlink:href="../../d9/d00/class_dm_bd.html" target="_top" xlink:title="A class for , the difference in mass of between the heavy and light mass eigenstates of the neutral &#160;...">
<polygon fill="none" stroke="#000000" points="86.5,-.5 86.5,-17.5 125.5,-17.5 125.5,-.5 86.5,-.5"/>
<text text-anchor="middle" x="106" y="-7.1" font-family="Helvetica,sans-Serif" font-size="8.00" fill="#000000">DmBd</text>
</a>
</g>
</g>
<!-- Node0&#45;&gt;Node2 -->
<g id="edge2" class="edge">
<title>Node0&#45;&gt;Node2</title>
<path fill="none" stroke="#8b1a1a" d="M146.3785,-47.2533C136.266,-37.6731 123.7234,-25.7906 115.3247,-17.8339"/>
<polygon fill="#8b1a1a" stroke="#8b1a1a" points="144.1753,-49.9873 153.842,-54.324 148.9895,-44.9056 144.1753,-49.9873"/>
</g>
<!-- Node3 -->
<g id="node4" class="node">
<title>Node3</title>
<g id="a_node4"><a xlink:href="../../d7/dfe/class_dm_bs.html" target="_top" xlink:title="DmBs">
<polygon fill="none" stroke="#000000" points="144,-.5 144,-17.5 182,-17.5 182,-.5 144,-.5"/>
<text text-anchor="middle" x="163" y="-7.1" font-family="Helvetica,sans-Serif" font-size="8.00" fill="#000000">DmBs</text>
</a>
</g>
</g>
<!-- Node0&#45;&gt;Node3 -->
<g id="edge3" class="edge">
<title>Node0&#45;&gt;Node3</title>
<path fill="none" stroke="#8b1a1a" d="M163,-43.8045C163,-34.9102 163,-24.7798 163,-17.7511"/>
<polygon fill="#8b1a1a" stroke="#8b1a1a" points="159.5001,-44.083 163,-54.083 166.5001,-44.083 159.5001,-44.083"/>
</g>
<!-- Node4 -->
<g id="node5" class="node">
<title>Node4</title>
<g id="a_node5"><a xlink:href="../../d7/dfe/class_rm_bs.html" target="_top" xlink:title="A class for , the ratio of the total difference in mass of between the heavy and light mass eigenstat...">
<polygon fill="none" stroke="#000000" points="200,-.5 200,-17.5 238,-17.5 238,-.5 200,-.5"/>
<text text-anchor="middle" x="219" y="-7.1" font-family="Helvetica,sans-Serif" font-size="8.00" fill="#000000">RmBs</text>
</a>
</g>
</g>
<!-- Node0&#45;&gt;Node4 -->
<g id="edge4" class="edge">
<title>Node0&#45;&gt;Node4</title>
<path fill="none" stroke="#8b1a1a" d="M179.3299,-47.2533C189.265,-37.6731 201.5875,-25.7906 209.8389,-17.8339"/>
<polygon fill="#8b1a1a" stroke="#8b1a1a" points="176.7664,-44.8631 171.9974,-54.324 181.6253,-49.902 176.7664,-44.8631"/>
</g>
<!-- Node5 -->
<g id="node6" class="node">
<title>Node5</title>
<g id="a_node6"><a xlink:href="../../da/d33/class_s_j_psi_k.html" target="_top" xlink:title="A class for . ">
<polygon fill="none" stroke="#000000" points="256,-.5 256,-17.5 298,-17.5 298,-.5 256,-.5"/>
<text text-anchor="middle" x="277" y="-7.1" font-family="Helvetica,sans-Serif" font-size="8.00" fill="#000000">SJPsiK</text>
</a>
</g>
</g>
<!-- Node0&#45;&gt;Node5 -->
<g id="edge5" class="edge">
<title>Node0&#45;&gt;Node5</title>
<path fill="none" stroke="#8b1a1a" d="M190.2418,-50.096C211.5401,-40.0073 240.5417,-26.2697 259.0209,-17.5164"/>
<polygon fill="#8b1a1a" stroke="#8b1a1a" points="188.6027,-46.9995 181.0636,-54.4435 191.5993,-53.3257 188.6027,-46.9995"/>
</g>
</g>
</svg>
