<?xml version="1.0" encoding="UTF-8" standalone="no"?>
<!DOCTYPE svg PUBLIC "-//W3C//DTD SVG 1.1//EN"
 "http://www.w3.org/Graphics/SVG/1.1/DTD/svg11.dtd">
<!-- Generated by graphviz version 2.38.0 (20140413.2041)
 -->
<!-- Title: RGEvolutor Pages: 1 -->
<svg width="284pt" height="208pt"
 viewBox="0.00 0.00 284.00 208.00" xmlns="http://www.w3.org/2000/svg" xmlns:xlink="http://www.w3.org/1999/xlink">
<g id="graph0" class="graph" transform="scale(1 1) rotate(0) translate(4 204)">
<title>RGEvolutor</title>
<!-- Node1 -->
<g id="node1" class="node"><title>Node1</title>
<polygon fill="#bfbfbf" stroke="black" points="113.5,-55.5 113.5,-72.5 171.5,-72.5 171.5,-55.5 113.5,-55.5"/>
<text text-anchor="middle" x="142.5" y="-62.1" font-family="Helvetica,sans-Serif" font-size="8.00">RGEvolutor</text>
</g>
<!-- Node4 -->
<g id="node4" class="node"><title>Node4</title>
<g id="a_node4"><a xlink:href="../../dd/d00/class_evol_bsmm.html" target="_top" xlink:title="EvolBsmm">
<polygon fill="none" stroke="black" points="0,-0.5 0,-17.5 55,-17.5 55,-0.5 0,-0.5"/>
<text text-anchor="middle" x="27.5" y="-7.1" font-family="Helvetica,sans-Serif" font-size="8.00">EvolBsmm</text>
</a>
</g>
</g>
<!-- Node1&#45;&gt;Node4 -->
<g id="edge3" class="edge"><title>Node1&#45;&gt;Node4</title>
<path fill="none" stroke="midnightblue" d="M116.817,-51.1634C94.5442,-40.8986 62.9761,-26.3499 43.9461,-17.5795"/>
<polygon fill="midnightblue" stroke="midnightblue" points="115.476,-54.3994 126.023,-55.4064 118.406,-48.0421 115.476,-54.3994"/>
</g>
<!-- Node5 -->
<g id="node5" class="node"><title>Node5</title>
<g id="a_node5"><a xlink:href="../../dc/d99/class_evol_d_b1bsg.html" target="_top" xlink:title="EvolDB1bsg">
<polygon fill="none" stroke="black" points="73,-0.5 73,-17.5 134,-17.5 134,-0.5 73,-0.5"/>
<text text-anchor="middle" x="103.5" y="-7.1" font-family="Helvetica,sans-Serif" font-size="8.00">EvolDB1bsg</text>
</a>
</g>
</g>
<!-- Node1&#45;&gt;Node5 -->
<g id="edge4" class="edge"><title>Node1&#45;&gt;Node5</title>
<path fill="none" stroke="midnightblue" d="M130.744,-47.0236C123.538,-37.2317 114.649,-25.1511 109.026,-17.5092"/>
<polygon fill="midnightblue" stroke="midnightblue" points="128,-49.1997 136.745,-55.1797 133.638,-45.0509 128,-49.1997"/>
</g>
<!-- Node6 -->
<g id="node6" class="node"><title>Node6</title>
<g id="a_node6"><a xlink:href="../../de/def/class_evol_d_b1_mll.html" target="_top" xlink:title="EvolDB1Mll">
<polygon fill="none" stroke="black" points="152.5,-0.5 152.5,-17.5 210.5,-17.5 210.5,-0.5 152.5,-0.5"/>
<text text-anchor="middle" x="181.5" y="-7.1" font-family="Helvetica,sans-Serif" font-size="8.00">EvolDB1Mll</text>
</a>
</g>
</g>
<!-- Node1&#45;&gt;Node6 -->
<g id="edge5" class="edge"><title>Node1&#45;&gt;Node6</title>
<path fill="none" stroke="midnightblue" d="M154.256,-47.0236C161.462,-37.2317 170.351,-25.1511 175.974,-17.5092"/>
<polygon fill="midnightblue" stroke="midnightblue" points="151.362,-45.0509 148.255,-55.1797 157,-49.1997 151.362,-45.0509"/>
</g>
<!-- Node7 -->
<g id="node7" class="node"><title>Node7</title>
<g id="a_node7"><a xlink:href="../../d6/d86/class_evol_d_f2.html" target="_top" xlink:title="EvolDF2">
<polygon fill="none" stroke="black" points="229,-0.5 229,-17.5 276,-17.5 276,-0.5 229,-0.5"/>
<text text-anchor="middle" x="252.5" y="-7.1" font-family="Helvetica,sans-Serif" font-size="8.00">EvolDF2</text>
</a>
</g>
</g>
<!-- Node1&#45;&gt;Node7 -->
<g id="edge6" class="edge"><title>Node1&#45;&gt;Node7</title>
<path fill="none" stroke="midnightblue" d="M167.354,-51.0251C188.641,-40.7683 218.648,-26.3105 236.769,-17.5795"/>
<polygon fill="midnightblue" stroke="midnightblue" points="165.75,-47.9126 158.26,-55.4064 168.788,-54.2188 165.75,-47.9126"/>
</g>
<!-- Node2 -->
<g id="node2" class="node"><title>Node2</title>
<g id="a_node2"><a xlink:href="../../dd/d6f/class_wilson_template.html" target="_top" xlink:title="WilsonTemplate\&lt; gslpp\l::matrix\&lt; double \&gt; \&gt;">
<polygon fill="none" stroke="black" points="92.5,-110.5 92.5,-136.5 192.5,-136.5 192.5,-110.5 92.5,-110.5"/>
<text text-anchor="start" x="100.5" y="-126.1" font-family="Helvetica,sans-Serif" font-size="8.00">WilsonTemplate&lt; gslpp</text>
<text text-anchor="middle" x="142.5" y="-117.1" font-family="Helvetica,sans-Serif" font-size="8.00">::matrix&lt; double &gt; &gt;</text>
</a>
</g>
</g>
<!-- Node2&#45;&gt;Node1 -->
<g id="edge1" class="edge"><title>Node2&#45;&gt;Node1</title>
<path fill="none" stroke="midnightblue" d="M142.5,-100.082C142.5,-90.4295 142.5,-79.7754 142.5,-72.7696"/>
<polygon fill="midnightblue" stroke="midnightblue" points="139,-100.306 142.5,-110.306 146,-100.306 139,-100.306"/>
</g>
<!-- Node3 -->
<g id="node3" class="node"><title>Node3</title>
<g id="a_node3"><a xlink:href="../../dd/d6f/class_wilson_template.html" target="_top" xlink:title="A template class for the Wilson coefficients. ">
<polygon fill="none" stroke="black" points="96,-182.5 96,-199.5 189,-199.5 189,-182.5 96,-182.5"/>
<text text-anchor="middle" x="142.5" y="-189.1" font-family="Helvetica,sans-Serif" font-size="8.00">WilsonTemplate&lt; T &gt;</text>
</a>
</g>
</g>
<!-- Node3&#45;&gt;Node2 -->
<g id="edge2" class="edge"><title>Node3&#45;&gt;Node2</title>
<path fill="none" stroke="orange" stroke-dasharray="5,2" d="M142.5,-172.182C142.5,-160.974 142.5,-146.797 142.5,-136.825"/>
<polygon fill="orange" stroke="orange" points="139,-172.486 142.5,-182.486 146,-172.486 139,-172.486"/>
<text text-anchor="middle" x="192.5" y="-157.6" font-family="Helvetica,sans-Serif" font-size="8.00"> &lt; gslpp::matrix&lt; double &gt; &gt;</text>
</g>
</g>
</svg>
