<?xml version="1.0" encoding="UTF-8" standalone="no"?>
<!DOCTYPE svg PUBLIC "-//W3C//DTD SVG 1.1//EN"
 "http://www.w3.org/Graphics/SVG/1.1/DTD/svg11.dtd">
<!-- Generated by graphviz version 2.40.1 (20161225.0304)
 -->
<!-- Title: EW_CHMN.h Pages: 1 -->
<svg width="164pt" height="134pt"
 viewBox="0.00 0.00 164.00 134.00" xmlns="http://www.w3.org/2000/svg" xmlns:xlink="http://www.w3.org/1999/xlink">
<g id="graph0" class="graph" transform="scale(1 1) rotate(0) translate(4 130)">
<title>EW_CHMN.h</title>
<!-- Node49 -->
<g id="node1" class="node">
<title>Node49</title>
<polygon fill="#bfbfbf" stroke="#000000" points="46,-108.5 46,-125.5 111,-125.5 111,-108.5 46,-108.5"/>
<text text-anchor="middle" x="78.5" y="-115.1" font-family="Helvetica,sans-Serif" font-size="8.00" fill="#000000">EW_CHMN.h</text>
</g>
<!-- Node50 -->
<g id="node2" class="node">
<title>Node50</title>
<g id="a_node2"><a xlink:href="../../d1/dc9/_e_w___c_h_m_n_8cpp.html" target="_top" xlink:title="EW_CHMN.cpp">
<polygon fill="none" stroke="#000000" points="0,-54.5 0,-71.5 73,-71.5 73,-54.5 0,-54.5"/>
<text text-anchor="middle" x="36.5" y="-61.1" font-family="Helvetica,sans-Serif" font-size="8.00" fill="#000000">EW_CHMN.cpp</text>
</a>
</g>
</g>
<!-- Node49&#45;&gt;Node50 -->
<g id="edge1" class="edge">
<title>Node49&#45;&gt;Node50</title>
<path fill="none" stroke="#191970" d="M65.3898,-100.144C58.0722,-90.7357 49.2591,-79.4046 43.3064,-71.7511"/>
<polygon fill="#191970" stroke="#191970" points="62.6624,-102.3383 71.5646,-108.083 68.1878,-98.0406 62.6624,-102.3383"/>
</g>
<!-- Node51 -->
<g id="node3" class="node">
<title>Node51</title>
<g id="a_node3"><a xlink:href="../../dd/db7/_e_w___t_e_s_t_8h.html" target="_top" xlink:title="EW_TEST.h">
<polygon fill="none" stroke="#000000" points="91,-54.5 91,-71.5 152,-71.5 152,-54.5 91,-54.5"/>
<text text-anchor="middle" x="121.5" y="-61.1" font-family="Helvetica,sans-Serif" font-size="8.00" fill="#000000">EW_TEST.h</text>
</a>
</g>
</g>
<!-- Node49&#45;&gt;Node51 -->
<g id="edge2" class="edge">
<title>Node49&#45;&gt;Node51</title>
<path fill="none" stroke="#191970" d="M91.9224,-100.144C99.4142,-90.7357 108.4371,-79.4046 114.5315,-71.7511"/>
<polygon fill="#191970" stroke="#191970" points="89.0919,-98.0799 85.6006,-108.083 94.5679,-102.4404 89.0919,-98.0799"/>
</g>
<!-- Node52 -->
<g id="node4" class="node">
<title>Node52</title>
<g id="a_node4"><a xlink:href="../../d3/dee/_e_w___t_e_s_t_8cpp.html" target="_top" xlink:title="EW_TEST.cpp">
<polygon fill="none" stroke="#000000" points="87,-.5 87,-17.5 156,-17.5 156,-.5 87,-.5"/>
<text text-anchor="middle" x="121.5" y="-7.1" font-family="Helvetica,sans-Serif" font-size="8.00" fill="#000000">EW_TEST.cpp</text>
</a>
</g>
</g>
<!-- Node51&#45;&gt;Node52 -->
<g id="edge3" class="edge">
<title>Node51&#45;&gt;Node52</title>
<path fill="none" stroke="#191970" d="M121.5,-43.8045C121.5,-34.9102 121.5,-24.7798 121.5,-17.7511"/>
<polygon fill="#191970" stroke="#191970" points="118.0001,-44.083 121.5,-54.083 125.0001,-44.083 118.0001,-44.083"/>
</g>
</g>
</svg>
