<?xml version="1.0" encoding="UTF-8" standalone="no"?>
<!DOCTYPE svg PUBLIC "-//W3C//DTD SVG 1.1//EN"
 "http://www.w3.org/Graphics/SVG/1.1/DTD/svg11.dtd">
<!-- Generated by graphviz version 2.38.0 (20140413.2041)
 -->
<!-- Title: FlavourWilsonCoefficientMatching.h Pages: 1 -->
<svg width="362pt" height="413pt"
 viewBox="0.00 0.00 361.93 413.00" xmlns="http://www.w3.org/2000/svg" xmlns:xlink="http://www.w3.org/1999/xlink">
<g id="graph0" class="graph" transform="scale(1 1) rotate(0) translate(4 409)">
<title>FlavourWilsonCoefficientMatching.h</title>
<!-- Node1 -->
<g id="node1" class="node"><title>Node1</title>
<polygon fill="#bfbfbf" stroke="black" points="192,-378.5 192,-404.5 297,-404.5 297,-378.5 192,-378.5"/>
<text text-anchor="start" x="200" y="-394.1" font-family="Helvetica,sans-Serif" font-size="8.00">FlavourWilsonCoefficient</text>
<text text-anchor="middle" x="244.5" y="-385.1" font-family="Helvetica,sans-Serif" font-size="8.00">Matching.h</text>
</g>
<!-- Node2 -->
<g id="node2" class="node"><title>Node2</title>
<g id="a_node2"><a xlink:href="../../d9/d72/gslpp_8h.html" target="_top" xlink:title="gslpp.h">
<polygon fill="none" stroke="black" points="184.5,-270.5 184.5,-287.5 226.5,-287.5 226.5,-270.5 184.5,-270.5"/>
<text text-anchor="middle" x="205.5" y="-277.1" font-family="Helvetica,sans-Serif" font-size="8.00">gslpp.h</text>
</a>
</g>
</g>
<!-- Node1&#45;&gt;Node2 -->
<g id="edge1" class="edge"><title>Node1&#45;&gt;Node2</title>
<path fill="none" stroke="midnightblue" d="M238.346,-378.364C233.598,-368.685 227.087,-354.696 222.5,-342 217.215,-327.373 212.647,-310.3 209.581,-297.778"/>
<polygon fill="midnightblue" stroke="midnightblue" points="212.918,-296.683 207.21,-287.758 206.106,-298.295 212.918,-296.683"/>
</g>
<!-- Node9 -->
<g id="node9" class="node"><title>Node9</title>
<g id="a_node9"><a xlink:href="../../d6/d16/_standard_model_matching_8h.html" target="_top" xlink:title="StandardModelMatching.h">
<polygon fill="none" stroke="black" points="231.5,-324.5 231.5,-341.5 341.5,-341.5 341.5,-324.5 231.5,-324.5"/>
<text text-anchor="middle" x="286.5" y="-331.1" font-family="Helvetica,sans-Serif" font-size="8.00">StandardModelMatching.h</text>
</a>
</g>
</g>
<!-- Node1&#45;&gt;Node9 -->
<g id="edge22" class="edge"><title>Node1&#45;&gt;Node9</title>
<path fill="none" stroke="midnightblue" d="M253.613,-378.24C259.838,-369.867 268.14,-358.699 274.845,-349.679"/>
<polygon fill="midnightblue" stroke="midnightblue" points="277.725,-351.671 280.882,-341.558 272.107,-347.495 277.725,-351.671"/>
</g>
<!-- Node3 -->
<g id="node3" class="node"><title>Node3</title>
<g id="a_node3"><a xlink:href="../../d1/dc2/gslpp__complex_8h.html" target="_top" xlink:title="gslpp_complex.h">
<polygon fill="none" stroke="red" points="163,-54.5 163,-71.5 240,-71.5 240,-54.5 163,-54.5"/>
<text text-anchor="middle" x="201.5" y="-61.1" font-family="Helvetica,sans-Serif" font-size="8.00">gslpp_complex.h</text>
</a>
</g>
</g>
<!-- Node2&#45;&gt;Node3 -->
<g id="edge2" class="edge"><title>Node2&#45;&gt;Node3</title>
<path fill="none" stroke="midnightblue" d="M224.287,-270.36C240.677,-262.966 264.302,-250.466 280.5,-234 324.132,-189.646 378.313,-158.158 341.5,-108 320.688,-79.6436 281.607,-69.0752 250.014,-65.356"/>
<polygon fill="midnightblue" stroke="midnightblue" points="250.347,-61.8719 240.052,-64.3752 249.661,-68.8382 250.347,-61.8719"/>
</g>
<!-- Node5 -->
<g id="node5" class="node"><title>Node5</title>
<g id="a_node5"><a xlink:href="../../da/d8e/gslpp__vector__double_8h.html" target="_top" xlink:title="gslpp_vector_double.h">
<polygon fill="none" stroke="red" points="0,-108.5 0,-125.5 97,-125.5 97,-108.5 0,-108.5"/>
<text text-anchor="middle" x="48.5" y="-115.1" font-family="Helvetica,sans-Serif" font-size="8.00">gslpp_vector_double.h</text>
</a>
</g>
</g>
<!-- Node2&#45;&gt;Node5 -->
<g id="edge4" class="edge"><title>Node2&#45;&gt;Node5</title>
<path fill="none" stroke="midnightblue" d="M184.329,-271.5C149.752,-259.63 82.0594,-230.865 52.5,-180 44.7872,-166.728 44.4135,-149.052 45.6027,-135.97"/>
<polygon fill="midnightblue" stroke="midnightblue" points="49.0957,-136.248 46.9048,-125.882 42.1533,-135.352 49.0957,-136.248"/>
</g>
<!-- Node6 -->
<g id="node6" class="node"><title>Node6</title>
<g id="a_node6"><a xlink:href="../../da/dad/gslpp__vector__complex_8h.html" target="_top" xlink:title="gslpp_vector_complex.h">
<polygon fill="none" stroke="red" points="230,-108.5 230,-125.5 333,-125.5 333,-108.5 230,-108.5"/>
<text text-anchor="middle" x="281.5" y="-115.1" font-family="Helvetica,sans-Serif" font-size="8.00">gslpp_vector_complex.h</text>
</a>
</g>
</g>
<!-- Node2&#45;&gt;Node6 -->
<g id="edge7" class="edge"><title>Node2&#45;&gt;Node6</title>
<path fill="none" stroke="midnightblue" d="M220.738,-270.485C234.013,-263.098 252.637,-250.533 262.5,-234 280.919,-203.125 282.985,-159.809 282.483,-135.797"/>
<polygon fill="midnightblue" stroke="midnightblue" points="285.976,-135.556 282.09,-125.699 278.981,-135.828 285.976,-135.556"/>
</g>
<!-- Node7 -->
<g id="node7" class="node"><title>Node7</title>
<g id="a_node7"><a xlink:href="../../d0/ddb/gslpp__matrix__double_8h.html" target="_top" xlink:title="gslpp_matrix_double.h">
<polygon fill="none" stroke="red" points="157,-216.5 157,-233.5 254,-233.5 254,-216.5 157,-216.5"/>
<text text-anchor="middle" x="205.5" y="-223.1" font-family="Helvetica,sans-Serif" font-size="8.00">gslpp_matrix_double.h</text>
</a>
</g>
</g>
<!-- Node2&#45;&gt;Node7 -->
<g id="edge10" class="edge"><title>Node2&#45;&gt;Node7</title>
<path fill="none" stroke="midnightblue" d="M205.5,-270.327C205.5,-263.414 205.5,-252.985 205.5,-243.979"/>
<polygon fill="midnightblue" stroke="midnightblue" points="209,-243.704 205.5,-233.704 202,-243.704 209,-243.704"/>
</g>
<!-- Node8 -->
<g id="node8" class="node"><title>Node8</title>
<g id="a_node8"><a xlink:href="../../d9/d25/gslpp__matrix__complex_8h.html" target="_top" xlink:title="gslpp_matrix_complex.h">
<polygon fill="none" stroke="red" points="76,-162.5 76,-179.5 179,-179.5 179,-162.5 76,-162.5"/>
<text text-anchor="middle" x="127.5" y="-169.1" font-family="Helvetica,sans-Serif" font-size="8.00">gslpp_matrix_complex.h</text>
</a>
</g>
</g>
<!-- Node2&#45;&gt;Node8 -->
<g id="edge21" class="edge"><title>Node2&#45;&gt;Node8</title>
<path fill="none" stroke="midnightblue" d="M191.085,-270.466C177.949,-262.903 158.907,-250.082 147.5,-234 138.087,-220.729 132.938,-202.794 130.232,-189.628"/>
<polygon fill="midnightblue" stroke="midnightblue" points="133.632,-188.757 128.438,-179.523 126.74,-189.981 133.632,-188.757"/>
</g>
<!-- Node4 -->
<g id="node4" class="node"><title>Node4</title>
<polygon fill="none" stroke="#bfbfbf" points="178,-0.5 178,-17.5 225,-17.5 225,-0.5 178,-0.5"/>
<text text-anchor="middle" x="201.5" y="-7.1" font-family="Helvetica,sans-Serif" font-size="8.00">iostream</text>
</g>
<!-- Node3&#45;&gt;Node4 -->
<g id="edge3" class="edge"><title>Node3&#45;&gt;Node4</title>
<path fill="none" stroke="midnightblue" d="M201.5,-54.3272C201.5,-47.4145 201.5,-36.985 201.5,-27.9789"/>
<polygon fill="midnightblue" stroke="midnightblue" points="205,-27.7042 201.5,-17.7043 198,-27.7043 205,-27.7042"/>
</g>
<!-- Node5&#45;&gt;Node3 -->
<g id="edge6" class="edge"><title>Node5&#45;&gt;Node3</title>
<path fill="none" stroke="midnightblue" d="M70.7475,-108.439C96.6958,-99.6197 139.802,-84.9694 169.378,-74.9171"/>
<polygon fill="midnightblue" stroke="midnightblue" points="170.884,-78.1022 179.226,-71.5704 168.631,-71.4745 170.884,-78.1022"/>
</g>
<!-- Node5&#45;&gt;Node4 -->
<g id="edge5" class="edge"><title>Node5&#45;&gt;Node4</title>
<path fill="none" stroke="midnightblue" d="M54.8298,-108.328C65.5029,-95.7489 88.2043,-70.4928 111.5,-54 130.391,-40.6257 153.963,-29.2659 172.244,-21.4404"/>
<polygon fill="midnightblue" stroke="midnightblue" points="173.645,-24.6486 181.53,-17.5725 170.953,-18.1867 173.645,-24.6486"/>
</g>
<!-- Node6&#45;&gt;Node3 -->
<g id="edge9" class="edge"><title>Node6&#45;&gt;Node3</title>
<path fill="none" stroke="midnightblue" d="M269.696,-108.327C257.098,-100.139 236.909,-87.0157 221.76,-77.1692"/>
<polygon fill="midnightblue" stroke="midnightblue" points="223.385,-74.0506 213.093,-71.5352 219.57,-79.9197 223.385,-74.0506"/>
</g>
<!-- Node6&#45;&gt;Node4 -->
<g id="edge8" class="edge"><title>Node6&#45;&gt;Node4</title>
<path fill="none" stroke="midnightblue" d="M278.375,-108.272C273.223,-96.0476 262.145,-71.8103 248.5,-54 240.069,-42.995 228.775,-32.3253 219.371,-24.2493"/>
<polygon fill="midnightblue" stroke="midnightblue" points="221.33,-21.3268 211.403,-17.6266 216.856,-26.7102 221.33,-21.3268"/>
</g>
<!-- Node7&#45;&gt;Node3 -->
<g id="edge12" class="edge"><title>Node7&#45;&gt;Node3</title>
<path fill="none" stroke="midnightblue" d="M205.307,-216.283C204.699,-191.943 202.809,-116.354 201.942,-81.6925"/>
<polygon fill="midnightblue" stroke="midnightblue" points="205.44,-81.5491 201.691,-71.6397 198.442,-81.7241 205.44,-81.5491"/>
</g>
<!-- Node7&#45;&gt;Node4 -->
<g id="edge11" class="edge"><title>Node7&#45;&gt;Node4</title>
<path fill="none" stroke="midnightblue" d="M229.98,-216.464C276.05,-200.856 368.672,-161.898 341.5,-108 319.255,-63.8744 266.693,-35.6828 232.68,-21.3699"/>
<polygon fill="midnightblue" stroke="midnightblue" points="233.78,-18.0393 223.197,-17.535 231.156,-24.5287 233.78,-18.0393"/>
</g>
<!-- Node7&#45;&gt;Node5 -->
<g id="edge13" class="edge"><title>Node7&#45;&gt;Node5</title>
<path fill="none" stroke="midnightblue" d="M156.692,-220.027C126.892,-215.106 90.1057,-204.179 66.5,-180 55,-168.221 50.7708,-149.549 49.2549,-135.772"/>
<polygon fill="midnightblue" stroke="midnightblue" points="52.7321,-135.329 48.5196,-125.608 45.7504,-135.835 52.7321,-135.329"/>
</g>
<!-- Node7&#45;&gt;Node6 -->
<g id="edge14" class="edge"><title>Node7&#45;&gt;Node6</title>
<path fill="none" stroke="midnightblue" d="M210.966,-216.377C223.29,-199.187 253.463,-157.105 270.073,-133.938"/>
<polygon fill="midnightblue" stroke="midnightblue" points="273.101,-135.721 276.084,-125.554 267.412,-131.642 273.101,-135.721"/>
</g>
<!-- Node7&#45;&gt;Node8 -->
<g id="edge15" class="edge"><title>Node7&#45;&gt;Node8</title>
<path fill="none" stroke="midnightblue" d="M189.035,-216.327C175.111,-208.339 155.719,-195.655 142.294,-185.898"/>
<polygon fill="midnightblue" stroke="midnightblue" points="144.183,-182.938 134.093,-179.704 139.964,-188.524 144.183,-182.938"/>
</g>
<!-- Node8&#45;&gt;Node3 -->
<g id="edge17" class="edge"><title>Node8&#45;&gt;Node3</title>
<path fill="none" stroke="midnightblue" d="M132.822,-162.377C144.822,-145.187 174.201,-103.105 190.374,-79.9379"/>
<polygon fill="midnightblue" stroke="midnightblue" points="193.372,-81.7573 196.226,-71.5542 187.632,-77.7503 193.372,-81.7573"/>
</g>
<!-- Node8&#45;&gt;Node4 -->
<g id="edge16" class="edge"><title>Node8&#45;&gt;Node4</title>
<path fill="none" stroke="midnightblue" d="M127.661,-162.383C128.383,-142.975 132.306,-90.618 153.5,-54 160.42,-42.0435 171.671,-31.4758 181.542,-23.6955"/>
<polygon fill="midnightblue" stroke="midnightblue" points="183.784,-26.3893 189.717,-17.6109 179.605,-20.774 183.784,-26.3893"/>
</g>
<!-- Node8&#45;&gt;Node5 -->
<g id="edge18" class="edge"><title>Node8&#45;&gt;Node5</title>
<path fill="none" stroke="midnightblue" d="M115.843,-162.327C103.403,-154.139 83.4662,-141.016 68.5071,-131.169"/>
<polygon fill="midnightblue" stroke="midnightblue" points="70.225,-128.11 59.9477,-125.535 66.3763,-133.957 70.225,-128.11"/>
</g>
<!-- Node8&#45;&gt;Node6 -->
<g id="edge19" class="edge"><title>Node8&#45;&gt;Node6</title>
<path fill="none" stroke="midnightblue" d="M149.893,-162.439C176.125,-153.581 219.778,-138.841 249.558,-128.786"/>
<polygon fill="midnightblue" stroke="midnightblue" points="250.725,-132.086 259.08,-125.57 248.486,-125.454 250.725,-132.086"/>
</g>
<!-- Node8&#45;&gt;Node7 -->
<g id="edge20" class="edge"><title>Node8&#45;&gt;Node7</title>
<path fill="none" stroke="midnightblue" d="M143.724,-179.535C157.665,-187.514 177.203,-200.288 190.705,-210.102"/>
<polygon fill="midnightblue" stroke="midnightblue" points="188.857,-213.092 198.946,-216.327 193.077,-207.507 188.857,-213.092"/>
</g>
<!-- Node9&#45;&gt;Node2 -->
<g id="edge24" class="edge"><title>Node9&#45;&gt;Node2</title>
<path fill="none" stroke="midnightblue" d="M274.548,-324.327C261.793,-316.139 241.351,-303.016 226.014,-293.169"/>
<polygon fill="midnightblue" stroke="midnightblue" points="227.544,-289.992 217.238,-287.535 223.762,-295.883 227.544,-289.992"/>
</g>
<!-- Node10 -->
<g id="node10" class="node"><title>Node10</title>
<g id="a_node10"><a xlink:href="../../d6/d46/_model_matching_8h.html" target="_top" xlink:title="ModelMatching.h">
<polygon fill="none" stroke="red" points="248,-270.5 248,-287.5 325,-287.5 325,-270.5 248,-270.5"/>
<text text-anchor="middle" x="286.5" y="-277.1" font-family="Helvetica,sans-Serif" font-size="8.00">ModelMatching.h</text>
</a>
</g>
</g>
<!-- Node9&#45;&gt;Node10 -->
<g id="edge23" class="edge"><title>Node9&#45;&gt;Node10</title>
<path fill="none" stroke="midnightblue" d="M286.5,-324.327C286.5,-317.414 286.5,-306.985 286.5,-297.979"/>
<polygon fill="midnightblue" stroke="midnightblue" points="290,-297.704 286.5,-287.704 283,-297.704 290,-297.704"/>
</g>
</g>
</svg>
