<?xml version="1.0" encoding="UTF-8" standalone="no"?>
<!DOCTYPE svg PUBLIC "-//W3C//DTD SVG 1.1//EN"
 "http://www.w3.org/Graphics/SVG/1.1/DTD/svg11.dtd">
<!-- Generated by graphviz version 2.38.0 (20140413.2041)
 -->
<!-- Title: SUSYMatching Pages: 1 -->
<svg width="574pt" height="592pt"
 viewBox="0.00 0.00 574.00 591.51" xmlns="http://www.w3.org/2000/svg" xmlns:xlink="http://www.w3.org/1999/xlink">
<g id="graph0" class="graph" transform="scale(1 1) rotate(0) translate(4 587.512)">
<title>SUSYMatching</title>
<!-- Node1 -->
<g id="node1" class="node"><title>Node1</title>
<polygon fill="#bfbfbf" stroke="black" points="353,-228.012 353,-245.012 424,-245.012 424,-228.012 353,-228.012"/>
<text text-anchor="middle" x="388.5" y="-234.612" font-family="Helvetica,sans-Serif" font-size="8.00">SUSYMatching</text>
</g>
<!-- Node8 -->
<g id="node8" class="node"><title>Node8</title>
<g id="a_node8"><a xlink:href="../../dc/d6f/class_s_u_s_y.html" target="_top" xlink:title="A base class for SUSY models. ">
<polygon fill="none" stroke="red" points="528,-196.012 528,-213.012 566,-213.012 566,-196.012 528,-196.012"/>
<text text-anchor="middle" x="547" y="-202.612" font-family="Helvetica,sans-Serif" font-size="8.00">SUSY</text>
</a>
</g>
</g>
<!-- Node1&#45;&gt;Node8 -->
<g id="edge8" class="edge"><title>Node1&#45;&gt;Node8</title>
<path fill="none" stroke="#9a32cd" stroke-dasharray="5,2" d="M408.646,-221.908C418.139,-215.56 430.1,-208.825 442,-205.512 471.224,-197.377 506.88,-199.489 527.941,-201.902"/>
<polygon fill="#9a32cd" stroke="#9a32cd" points="406.526,-219.12 400.383,-227.752 410.568,-224.835 406.526,-219.12"/>
<text text-anchor="middle" x="476" y="-208.112" font-family="Helvetica,sans-Serif" font-size="8.00"> mySUSYMatching</text>
</g>
<!-- Node2 -->
<g id="node2" class="node"><title>Node2</title>
<g id="a_node2"><a xlink:href="../../d6/d2e/class_standard_model_matching.html" target="_top" xlink:title="A class for the matching in the Standard Model. ">
<polygon fill="none" stroke="red" points="168,-426.012 168,-443.012 271,-443.012 271,-426.012 168,-426.012"/>
<text text-anchor="middle" x="219.5" y="-432.612" font-family="Helvetica,sans-Serif" font-size="8.00">StandardModelMatching</text>
</a>
</g>
</g>
<!-- Node2&#45;&gt;Node1 -->
<g id="edge1" class="edge"><title>Node2&#45;&gt;Node1</title>
<path fill="none" stroke="midnightblue" d="M270.479,-422.975C292.802,-415.568 317.877,-403.797 335,-385.512 374.369,-343.472 384.476,-270.14 386.837,-245.144"/>
<polygon fill="midnightblue" stroke="midnightblue" points="269.297,-419.677 260.784,-425.984 271.372,-426.363 269.297,-419.677"/>
</g>
<!-- Node3 -->
<g id="node3" class="node"><title>Node3</title>
<g id="a_node3"><a xlink:href="../../d0/d2a/class_model_matching.html" target="_top" xlink:title="A class for a template of model matching. ">
<polygon fill="none" stroke="black" points="8.5,-510.012 8.5,-527.012 79.5,-527.012 79.5,-510.012 8.5,-510.012"/>
<text text-anchor="middle" x="44" y="-516.612" font-family="Helvetica,sans-Serif" font-size="8.00">ModelMatching</text>
</a>
</g>
</g>
<!-- Node3&#45;&gt;Node2 -->
<g id="edge2" class="edge"><title>Node3&#45;&gt;Node2</title>
<path fill="none" stroke="midnightblue" d="M89.8585,-522.646C110.235,-522.174 133.431,-518.05 150,-504.512 168.939,-489.038 150.786,-469.885 168,-452.512 171.931,-448.546 176.793,-445.449 181.934,-443.034"/>
<polygon fill="midnightblue" stroke="midnightblue" points="89.8335,-519.146 79.8174,-522.599 89.8011,-526.145 89.8335,-519.146"/>
</g>
<!-- Node4 -->
<g id="node4" class="node"><title>Node4</title>
<g id="a_node4"><a xlink:href="../../dd/d9b/classgslpp_1_1complex.html" target="_top" xlink:title="A class for defining operations on and functions of complex numbers. ">
<polygon fill="none" stroke="black" points="9,-556.012 9,-573.012 79,-573.012 79,-556.012 9,-556.012"/>
<text text-anchor="middle" x="44" y="-562.612" font-family="Helvetica,sans-Serif" font-size="8.00">gslpp::complex</text>
</a>
</g>
</g>
<!-- Node4&#45;&gt;Node2 -->
<g id="edge3" class="edge"><title>Node4&#45;&gt;Node2</title>
<path fill="none" stroke="#9a32cd" stroke-dasharray="5,2" d="M88.7895,-553.615C113.631,-546.588 141.43,-537.016 150,-527.512 172.956,-502.054 145.089,-478.012 168,-452.512 171.546,-448.566 176.016,-445.485 180.824,-443.079"/>
<polygon fill="#9a32cd" stroke="#9a32cd" points="87.8224,-550.251 79.1051,-556.272 89.6748,-557.001 87.8224,-550.251"/>
<text text-anchor="middle" x="128" y="-550.112" font-family="Helvetica,sans-Serif" font-size="8.00"> lam_t</text>
</g>
<!-- Node4&#45;&gt;Node8 -->
<g id="edge9" class="edge"><title>Node4&#45;&gt;Node8</title>
<path fill="none" stroke="#9a32cd" stroke-dasharray="5,2" d="M89.1973,-569.715C149.928,-574.525 260.147,-574.633 335,-524.512 459.966,-440.836 528.733,-255.506 543.135,-213.219"/>
<polygon fill="#9a32cd" stroke="#9a32cd" points="89.4366,-566.223 79.1706,-568.842 88.8292,-573.196 89.4366,-566.223"/>
<text text-anchor="middle" x="312" y="-577.112" font-family="Helvetica,sans-Serif" font-size="8.00"> saeff</text>
<text text-anchor="middle" x="312" y="-568.112" font-family="Helvetica,sans-Serif" font-size="8.00">m1</text>
<text text-anchor="middle" x="312" y="-559.112" font-family="Helvetica,sans-Serif" font-size="8.00">m2</text>
<text text-anchor="middle" x="312" y="-550.112" font-family="Helvetica,sans-Serif" font-size="8.00">muH</text>
</g>
<!-- Node5 -->
<g id="node5" class="node"><title>Node5</title>
<g id="a_node5"><a xlink:href="../../d2/d95/class_wilson_coefficient.html" target="_top" xlink:title="A class for the Wilson coefficients. ">
<polygon fill="none" stroke="red" points="5,-379.012 5,-396.012 83,-396.012 83,-379.012 5,-379.012"/>
<text text-anchor="middle" x="44" y="-385.612" font-family="Helvetica,sans-Serif" font-size="8.00">WilsonCoefficient</text>
</a>
</g>
</g>
<!-- Node5&#45;&gt;Node1 -->
<g id="edge13" class="edge"><title>Node5&#45;&gt;Node1</title>
<path fill="none" stroke="#9a32cd" stroke-dasharray="5,2" d="M93.3582,-384.405C140.798,-379.749 214.097,-368.176 271,-339.512 319.704,-314.979 364.082,-265.033 380.637,-245.053"/>
<polygon fill="#9a32cd" stroke="#9a32cd" points="92.9887,-380.924 83.3498,-385.322 93.6275,-387.895 92.9887,-380.924"/>
<text text-anchor="middle" x="219.5" y="-403.112" font-family="Helvetica,sans-Serif" font-size="8.00"> mcmueconv</text>
<text text-anchor="middle" x="219.5" y="-394.112" font-family="Helvetica,sans-Serif" font-size="8.00">mcgminus2mu</text>
<text text-anchor="middle" x="219.5" y="-385.112" font-family="Helvetica,sans-Serif" font-size="8.00">mcDLi3j</text>
<text text-anchor="middle" x="219.5" y="-376.112" font-family="Helvetica,sans-Serif" font-size="8.00">mcDLij</text>
</g>
<!-- Node5&#45;&gt;Node2 -->
<g id="edge4" class="edge"><title>Node5&#45;&gt;Node2</title>
<path fill="none" stroke="#9a32cd" stroke-dasharray="5,2" d="M93.3796,-393.418C111.366,-396.235 131.815,-400.182 150,-405.512 168.093,-410.816 187.829,-419.503 201.449,-425.988"/>
<polygon fill="#9a32cd" stroke="#9a32cd" points="93.7978,-389.942 83.3908,-391.928 92.7649,-396.865 93.7978,-389.942"/>
<text text-anchor="middle" x="128" y="-498.112" font-family="Helvetica,sans-Serif" font-size="8.00"> mcBMll</text>
<text text-anchor="middle" x="128" y="-489.112" font-family="Helvetica,sans-Serif" font-size="8.00">mcprimebsg</text>
<text text-anchor="middle" x="128" y="-480.112" font-family="Helvetica,sans-Serif" font-size="8.00">mcdk2</text>
<text text-anchor="middle" x="128" y="-471.112" font-family="Helvetica,sans-Serif" font-size="8.00">mcmueconv</text>
<text text-anchor="middle" x="128" y="-462.112" font-family="Helvetica,sans-Serif" font-size="8.00">mcbnlep</text>
<text text-anchor="middle" x="128" y="-453.112" font-family="Helvetica,sans-Serif" font-size="8.00">mcdbd2</text>
<text text-anchor="middle" x="128" y="-444.112" font-family="Helvetica,sans-Serif" font-size="8.00">mcbsmm</text>
<text text-anchor="middle" x="128" y="-435.112" font-family="Helvetica,sans-Serif" font-size="8.00">mcbsnn</text>
<text text-anchor="middle" x="128" y="-426.112" font-family="Helvetica,sans-Serif" font-size="8.00">mcd1</text>
<text text-anchor="middle" x="128" y="-417.112" font-family="Helvetica,sans-Serif" font-size="8.00">mcbnlepCC</text>
<text text-anchor="middle" x="128" y="-408.112" font-family="Helvetica,sans-Serif" font-size="8.00">...</text>
</g>
<!-- Node6 -->
<g id="node6" class="node"><title>Node6</title>
<g id="a_node6"><a xlink:href="../../d1/d3c/classgslpp_1_1matrix.html" target="_top" xlink:title="gslpp::matrix\&lt; gslpp\l::complex \&gt;">
<polygon fill="none" stroke="red" points="0,-223.512 0,-249.512 88,-249.512 88,-223.512 0,-223.512"/>
<text text-anchor="start" x="8" y="-239.112" font-family="Helvetica,sans-Serif" font-size="8.00">gslpp::matrix&lt; gslpp</text>
<text text-anchor="middle" x="44" y="-230.112" font-family="Helvetica,sans-Serif" font-size="8.00">::complex &gt;</text>
</a>
</g>
</g>
<!-- Node6&#45;&gt;Node1 -->
<g id="edge14" class="edge"><title>Node6&#45;&gt;Node1</title>
<path fill="none" stroke="#9a32cd" stroke-dasharray="5,2" d="M98.0924,-236.512C168.971,-236.512 292.541,-236.512 352.659,-236.512"/>
<polygon fill="#9a32cd" stroke="#9a32cd" points="98.0311,-233.013 88.0311,-236.512 98.031,-240.013 98.0311,-233.013"/>
<text text-anchor="middle" x="219.5" y="-329.112" font-family="Helvetica,sans-Serif" font-size="8.00"> AmpTEARN</text>
<text text-anchor="middle" x="219.5" y="-320.112" font-family="Helvetica,sans-Serif" font-size="8.00">NLqDOWN</text>
<text text-anchor="middle" x="219.5" y="-311.112" font-family="Helvetica,sans-Serif" font-size="8.00">NRlTAU</text>
<text text-anchor="middle" x="219.5" y="-302.112" font-family="Helvetica,sans-Serif" font-size="8.00">TEhat</text>
<text text-anchor="middle" x="219.5" y="-293.112" font-family="Helvetica,sans-Serif" font-size="8.00">AmpTEA1LC</text>
<text text-anchor="middle" x="219.5" y="-284.112" font-family="Helvetica,sans-Serif" font-size="8.00">NRqUP</text>
<text text-anchor="middle" x="219.5" y="-275.112" font-family="Helvetica,sans-Serif" font-size="8.00">AmpTauALC</text>
<text text-anchor="middle" x="219.5" y="-266.112" font-family="Helvetica,sans-Serif" font-size="8.00">AmpTauA1LC</text>
<text text-anchor="middle" x="219.5" y="-257.112" font-family="Helvetica,sans-Serif" font-size="8.00">AmpA1LN</text>
<text text-anchor="middle" x="219.5" y="-248.112" font-family="Helvetica,sans-Serif" font-size="8.00">AmpTEA1RC</text>
<text text-anchor="middle" x="219.5" y="-239.112" font-family="Helvetica,sans-Serif" font-size="8.00">...</text>
</g>
<!-- Node6&#45;&gt;Node2 -->
<g id="edge5" class="edge"><title>Node6&#45;&gt;Node2</title>
<path fill="none" stroke="#9a32cd" stroke-dasharray="5,2" d="M60.9369,-258.119C81.8088,-286.576 119.35,-338.304 150,-383.512 158.302,-395.758 156.814,-401.831 168,-411.512 175.066,-417.628 184.027,-422.411 192.434,-425.994"/>
<polygon fill="#9a32cd" stroke="#9a32cd" points="63.5181,-255.721 54.7758,-249.736 57.8774,-259.867 63.5181,-255.721"/>
<text text-anchor="middle" x="128" y="-386.112" font-family="Helvetica,sans-Serif" font-size="8.00"> Vckm</text>
</g>
<!-- Node6&#45;&gt;Node8 -->
<g id="edge11" class="edge"><title>Node6&#45;&gt;Node8</title>
<path fill="none" stroke="#9a32cd" stroke-dasharray="5,2" d="M58.0379,-214.745C89.7822,-164.369 176.783,-41.3288 289,-5.51248 411.032,33.4364 518.719,-153.156 541.551,-195.931"/>
<polygon fill="#9a32cd" stroke="#9a32cd" points="55.0491,-212.924 52.76,-223.268 61.0004,-216.609 55.0491,-212.924"/>
<text text-anchor="middle" x="312" y="-98.1125" font-family="Helvetica,sans-Serif" font-size="8.00"> U</text>
<text text-anchor="middle" x="312" y="-89.1125" font-family="Helvetica,sans-Serif" font-size="8.00">Rd</text>
<text text-anchor="middle" x="312" y="-80.1125" font-family="Helvetica,sans-Serif" font-size="8.00">Ru</text>
<text text-anchor="middle" x="312" y="-71.1125" font-family="Helvetica,sans-Serif" font-size="8.00">V</text>
<text text-anchor="middle" x="312" y="-62.1125" font-family="Helvetica,sans-Serif" font-size="8.00">Rdresum</text>
<text text-anchor="middle" x="312" y="-53.1125" font-family="Helvetica,sans-Serif" font-size="8.00">TEhat</text>
<text text-anchor="middle" x="312" y="-44.1125" font-family="Helvetica,sans-Serif" font-size="8.00">TDhat</text>
<text text-anchor="middle" x="312" y="-35.1125" font-family="Helvetica,sans-Serif" font-size="8.00">TUhat</text>
<text text-anchor="middle" x="312" y="-26.1125" font-family="Helvetica,sans-Serif" font-size="8.00">msDhat2</text>
<text text-anchor="middle" x="312" y="-17.1125" font-family="Helvetica,sans-Serif" font-size="8.00">msUhat2</text>
<text text-anchor="middle" x="312" y="-8.11248" font-family="Helvetica,sans-Serif" font-size="8.00">...</text>
</g>
<!-- Node7 -->
<g id="node7" class="node"><title>Node7</title>
<g id="a_node7"><a xlink:href="../../d4/d7b/class_p_vfunctions.html" target="_top" xlink:title="A class for Passarino&#45;Veltman functions. ">
<polygon fill="none" stroke="red" points="190,-183.012 190,-200.012 249,-200.012 249,-183.012 190,-183.012"/>
<text text-anchor="middle" x="219.5" y="-189.612" font-family="Helvetica,sans-Serif" font-size="8.00">PVfunctions</text>
</a>
</g>
</g>
<!-- Node7&#45;&gt;Node1 -->
<g id="edge6" class="edge"><title>Node7&#45;&gt;Node1</title>
<path fill="none" stroke="#9a32cd" stroke-dasharray="5,2" d="M259.317,-196.764C281.738,-200.342 310.303,-205.836 335,-213.512 347.163,-217.293 360.288,-223.043 370.372,-227.848"/>
<polygon fill="#9a32cd" stroke="#9a32cd" points="259.581,-193.264 249.166,-195.207 258.52,-200.183 259.581,-193.264"/>
<text text-anchor="middle" x="312" y="-216.112" font-family="Helvetica,sans-Serif" font-size="8.00"> PV</text>
</g>
<!-- Node8&#45;&gt;Node1 -->
<g id="edge7" class="edge"><title>Node8&#45;&gt;Node1</title>
<path fill="none" stroke="#9a32cd" stroke-dasharray="5,2" d="M518.094,-212.531C515.367,-213.234 512.635,-213.907 510,-214.512 481.294,-221.106 448.379,-227.004 424.211,-231.03"/>
<polygon fill="#9a32cd" stroke="#9a32cd" points="519.024,-215.905 527.767,-209.921 517.201,-209.146 519.024,-215.905"/>
<text text-anchor="middle" x="476" y="-231.112" font-family="Helvetica,sans-Serif" font-size="8.00"> mySUSY</text>
</g>
<!-- Node9 -->
<g id="node9" class="node"><title>Node9</title>
<g id="a_node9"><a xlink:href="../../d6/d73/classgslpp_1_1vector_3_01double_01_4.html" target="_top" xlink:title="A class for constructing and defining operations on real vectors. ">
<polygon fill="none" stroke="black" points="169.5,-101.012 169.5,-118.012 269.5,-118.012 269.5,-101.012 169.5,-101.012"/>
<text text-anchor="middle" x="219.5" y="-107.612" font-family="Helvetica,sans-Serif" font-size="8.00">gslpp::vector&lt; double &gt;</text>
</a>
</g>
</g>
<!-- Node9&#45;&gt;Node1 -->
<g id="edge15" class="edge"><title>Node9&#45;&gt;Node1</title>
<path fill="none" stroke="#9a32cd" stroke-dasharray="5,2" d="M279.473,-113.666C298.724,-117.428 319.193,-124.258 335,-136.512 350.962,-148.887 375.23,-206.098 384.101,-227.975"/>
<polygon fill="#9a32cd" stroke="#9a32cd" points="279.996,-110.205 269.548,-111.966 278.814,-117.104 279.996,-110.205"/>
<text text-anchor="middle" x="312" y="-193.112" font-family="Helvetica,sans-Serif" font-size="8.00"> mym_sd_sq</text>
<text text-anchor="middle" x="312" y="-184.112" font-family="Helvetica,sans-Serif" font-size="8.00">mym_se_sq</text>
<text text-anchor="middle" x="312" y="-175.112" font-family="Helvetica,sans-Serif" font-size="8.00">mym_su_sq</text>
<text text-anchor="middle" x="312" y="-166.112" font-family="Helvetica,sans-Serif" font-size="8.00">MChi0</text>
<text text-anchor="middle" x="312" y="-157.112" font-family="Helvetica,sans-Serif" font-size="8.00">MChi</text>
<text text-anchor="middle" x="312" y="-148.112" font-family="Helvetica,sans-Serif" font-size="8.00">MNeig</text>
<text text-anchor="middle" x="312" y="-139.112" font-family="Helvetica,sans-Serif" font-size="8.00">mym_sn_sq</text>
</g>
<!-- Node9&#45;&gt;Node8 -->
<g id="edge10" class="edge"><title>Node9&#45;&gt;Node8</title>
<path fill="none" stroke="#9a32cd" stroke-dasharray="5,2" d="M279.8,-107.408C297.714,-107.887 317.316,-109.539 335,-113.512 412.846,-131.006 497.842,-176.708 531.302,-195.865"/>
<polygon fill="#9a32cd" stroke="#9a32cd" points="279.814,-103.908 269.761,-107.254 279.706,-110.907 279.814,-103.908"/>
<text text-anchor="middle" x="388.5" y="-199.112" font-family="Helvetica,sans-Serif" font-size="8.00"> mneu</text>
<text text-anchor="middle" x="388.5" y="-190.112" font-family="Helvetica,sans-Serif" font-size="8.00">m_sn2</text>
<text text-anchor="middle" x="388.5" y="-181.112" font-family="Helvetica,sans-Serif" font-size="8.00">m_se2</text>
<text text-anchor="middle" x="388.5" y="-172.112" font-family="Helvetica,sans-Serif" font-size="8.00">m_sd2</text>
<text text-anchor="middle" x="388.5" y="-163.112" font-family="Helvetica,sans-Serif" font-size="8.00">m_su2</text>
<text text-anchor="middle" x="388.5" y="-154.112" font-family="Helvetica,sans-Serif" font-size="8.00">m_sdresum2</text>
<text text-anchor="middle" x="388.5" y="-145.112" font-family="Helvetica,sans-Serif" font-size="8.00">mch</text>
</g>
<!-- Node10 -->
<g id="node10" class="node"><title>Node10</title>
<g id="a_node10"><a xlink:href="../../d7/d10/classgslpp_1_1matrix_3_01double_01_4.html" target="_top" xlink:title="A class for constructing and defining operations on real matrices. ">
<polygon fill="none" stroke="black" points="169.5,-462.012 169.5,-479.012 269.5,-479.012 269.5,-462.012 169.5,-462.012"/>
<text text-anchor="middle" x="219.5" y="-468.612" font-family="Helvetica,sans-Serif" font-size="8.00">gslpp::matrix&lt; double &gt;</text>
</a>
</g>
</g>
<!-- Node10&#45;&gt;Node1 -->
<g id="edge12" class="edge"><title>Node10&#45;&gt;Node1</title>
<path fill="none" stroke="#9a32cd" stroke-dasharray="5,2" d="M266.284,-458.732C290.216,-450.266 317.988,-436.392 335,-414.512 377.125,-360.336 385.496,-273.087 387.119,-245.306"/>
<polygon fill="#9a32cd" stroke="#9a32cd" points="265.038,-455.458 256.649,-461.93 267.243,-462.101 265.038,-455.458"/>
<text text-anchor="middle" x="312" y="-514.112" font-family="Helvetica,sans-Serif" font-size="8.00"> Leptfa2</text>
<text text-anchor="middle" x="312" y="-505.112" font-family="Helvetica,sans-Serif" font-size="8.00">Lepty</text>
<text text-anchor="middle" x="312" y="-496.112" font-family="Helvetica,sans-Serif" font-size="8.00">Leptz</text>
<text text-anchor="middle" x="312" y="-487.112" font-family="Helvetica,sans-Serif" font-size="8.00">Leptf1</text>
<text text-anchor="middle" x="312" y="-478.112" font-family="Helvetica,sans-Serif" font-size="8.00">Leptf2</text>
<text text-anchor="middle" x="312" y="-469.112" font-family="Helvetica,sans-Serif" font-size="8.00">Leptf3</text>
<text text-anchor="middle" x="312" y="-460.112" font-family="Helvetica,sans-Serif" font-size="8.00">Leptf4</text>
<text text-anchor="middle" x="312" y="-451.112" font-family="Helvetica,sans-Serif" font-size="8.00">Leptfa1</text>
</g>
</g>
</svg>
