<?xml version="1.0" encoding="UTF-8" standalone="no"?>
<!DOCTYPE svg PUBLIC "-//W3C//DTD SVG 1.1//EN"
 "http://www.w3.org/Graphics/SVG/1.1/DTD/svg11.dtd">
<!-- Generated by graphviz version 2.40.1 (20161225.0304)
 -->
<!-- Title: LinesAsStringsBlock.hpp Pages: 1 -->
<svg width="490pt" height="422pt"
 viewBox="0.00 0.00 490.00 422.00" xmlns="http://www.w3.org/2000/svg" xmlns:xlink="http://www.w3.org/1999/xlink">
<g id="graph0" class="graph" transform="scale(1 1) rotate(0) translate(4 418)">
<title>LinesAsStringsBlock.hpp</title>
<!-- Node0 -->
<g id="node1" class="node">
<title>Node0</title>
<polygon fill="#bfbfbf" stroke="#000000" points="177.5,-396.5 177.5,-413.5 282.5,-413.5 282.5,-396.5 177.5,-396.5"/>
<text text-anchor="middle" x="230" y="-403.1" font-family="Helvetica,sans-Serif" font-size="8.00" fill="#000000">LinesAsStringsBlock.hpp</text>
</g>
<!-- Node1 -->
<g id="node2" class="node">
<title>Node1</title>
<polygon fill="none" stroke="#bfbfbf" points="159,-.5 159,-17.5 195,-17.5 195,-.5 159,-.5"/>
<text text-anchor="middle" x="177" y="-7.1" font-family="Helvetica,sans-Serif" font-size="8.00" fill="#000000">string</text>
</g>
<!-- Node0&#45;&gt;Node1 -->
<g id="edge1" class="edge">
<title>Node0&#45;&gt;Node1</title>
<path fill="none" stroke="#191970" d="M177.2334,-401.0348C109.3295,-392.7266 0,-367.0721 0,-288 0,-288 0,-288 0,-117 0,-48.2491 98.514,-21.9698 148.5511,-13.0562"/>
<polygon fill="#191970" stroke="#191970" points="149.4341,-16.4576 158.7246,-11.3647 148.2859,-9.5524 149.4341,-16.4576"/>
</g>
<!-- Node2 -->
<g id="node3" class="node">
<title>Node2</title>
<g id="a_node3"><a xlink:href="../../dd/d89/_slha_block_8hpp.html" target="_top" xlink:title="../SlhaBlock.hpp">
<polygon fill="none" stroke="#000000" points="193,-279.5 193,-296.5 267,-296.5 267,-279.5 193,-279.5"/>
<text text-anchor="middle" x="230" y="-286.1" font-family="Helvetica,sans-Serif" font-size="8.00" fill="#000000">../SlhaBlock.hpp</text>
</a>
</g>
</g>
<!-- Node0&#45;&gt;Node2 -->
<g id="edge2" class="edge">
<title>Node0&#45;&gt;Node2</title>
<path fill="none" stroke="#191970" d="M230,-396.206C230,-377.3108 230,-332.4782 230,-306.8433"/>
<polygon fill="#191970" stroke="#191970" points="233.5001,-306.5781 230,-296.5781 226.5001,-306.5781 233.5001,-306.5781"/>
</g>
<!-- Node44 -->
<g id="node9" class="node">
<title>Node44</title>
<g id="a_node9"><a xlink:href="../../d1/d7c/_lines_as_strings_8hpp.html" target="_top" xlink:title="InterpreterClasses\l/LinesAsStrings.hpp">
<polygon fill="none" stroke="#000000" points="335,-333.5 335,-359.5 423,-359.5 423,-333.5 335,-333.5"/>
<text text-anchor="start" x="343" y="-349.1" font-family="Helvetica,sans-Serif" font-size="8.00" fill="#000000">InterpreterClasses</text>
<text text-anchor="middle" x="379" y="-340.1" font-family="Helvetica,sans-Serif" font-size="8.00" fill="#000000">/LinesAsStrings.hpp</text>
</a>
</g>
</g>
<!-- Node0&#45;&gt;Node44 -->
<g id="edge17" class="edge">
<title>Node0&#45;&gt;Node44</title>
<path fill="none" stroke="#191970" d="M251.6659,-396.4936C273.759,-387.8194 308.624,-374.1309 336.2898,-363.2688"/>
<polygon fill="#191970" stroke="#191970" points="337.7135,-366.47 345.7426,-359.5574 335.1552,-359.9542 337.7135,-366.47"/>
</g>
<!-- Node2&#45;&gt;Node1 -->
<g id="edge3" class="edge">
<title>Node2&#45;&gt;Node1</title>
<path fill="none" stroke="#191970" d="M192.8426,-282.7909C147.9184,-275.7572 75.9605,-261.8937 57,-243 33.5567,-219.6393 38,-204.0954 38,-171 38,-171 38,-171 38,-117 38,-61.2185 108.6658,-30.077 149.2262,-16.7969"/>
<polygon fill="#191970" stroke="#191970" points="150.3243,-20.1207 158.8282,-13.8013 148.2396,-13.4384 150.3243,-20.1207"/>
</g>
<!-- Node3 -->
<g id="node4" class="node">
<title>Node3</title>
<g id="a_node4"><a xlink:href="../../d8/d14/_b_o_llib_8hpp.html" target="_top" xlink:title="BOLlib/include/BOLlib.hpp">
<polygon fill="none" stroke="#ff0000" points="166,-108.5 166,-125.5 276,-125.5 276,-108.5 166,-108.5"/>
<text text-anchor="middle" x="221" y="-115.1" font-family="Helvetica,sans-Serif" font-size="8.00" fill="#000000">BOLlib/include/BOLlib.hpp</text>
</a>
</g>
</g>
<!-- Node2&#45;&gt;Node3 -->
<g id="edge4" class="edge">
<title>Node2&#45;&gt;Node3</title>
<path fill="none" stroke="#191970" d="M229.5413,-279.285C228.1514,-252.8774 223.9628,-173.2939 222.0156,-136.2968"/>
<polygon fill="#191970" stroke="#191970" points="225.4894,-135.7047 221.4686,-125.9025 218.4991,-136.0727 225.4894,-135.7047"/>
</g>
<!-- Node39 -->
<g id="node6" class="node">
<title>Node39</title>
<g id="a_node6"><a xlink:href="../../d2/d04/_base_slha_block_8hpp.html" target="_top" xlink:title="BlockClasses/BaseSlhaBlock.hpp">
<polygon fill="none" stroke="#ff0000" points="66,-221 66,-238 202,-238 202,-221 66,-221"/>
<text text-anchor="middle" x="134" y="-227.6" font-family="Helvetica,sans-Serif" font-size="8.00" fill="#000000">BlockClasses/BaseSlhaBlock.hpp</text>
</a>
</g>
</g>
<!-- Node2&#45;&gt;Node39 -->
<g id="edge7" class="edge">
<title>Node2&#45;&gt;Node39</title>
<path fill="none" stroke="#191970" d="M215.8349,-279.3681C200.3078,-269.9063 175.17,-254.588 156.8473,-243.4226"/>
<polygon fill="#191970" stroke="#191970" points="158.584,-240.3822 148.2232,-238.1673 154.9414,-246.3598 158.584,-240.3822"/>
</g>
<!-- Node40 -->
<g id="node7" class="node">
<title>Node40</title>
<g id="a_node7"><a xlink:href="../../dc/d87/_base_string_block_8hpp.html" target="_top" xlink:title="BaseStringBlock.hpp">
<polygon fill="none" stroke="#ff0000" points="253.5,-162.5 253.5,-179.5 344.5,-179.5 344.5,-162.5 253.5,-162.5"/>
<text text-anchor="middle" x="299" y="-169.1" font-family="Helvetica,sans-Serif" font-size="8.00" fill="#000000">BaseStringBlock.hpp</text>
</a>
</g>
</g>
<!-- Node2&#45;&gt;Node40 -->
<g id="edge13" class="edge">
<title>Node2&#45;&gt;Node40</title>
<path fill="none" stroke="#191970" d="M235.1862,-279.206C246.5303,-259.9704 273.727,-213.8542 288.6933,-188.4765"/>
<polygon fill="#191970" stroke="#191970" points="291.876,-189.9697 293.9411,-179.5781 285.8464,-186.4138 291.876,-189.9697"/>
</g>
<!-- Node43 -->
<g id="node8" class="node">
<title>Node43</title>
<g id="a_node8"><a xlink:href="../../db/d22/_block_interpreter_8hpp.html" target="_top" xlink:title="BlockClasses/Interpreter\lClasses/BlockInterpreter.hpp">
<polygon fill="none" stroke="#000000" points="296.5,-216.5 296.5,-242.5 415.5,-242.5 415.5,-216.5 296.5,-216.5"/>
<text text-anchor="start" x="304.5" y="-232.1" font-family="Helvetica,sans-Serif" font-size="8.00" fill="#000000">BlockClasses/Interpreter</text>
<text text-anchor="middle" x="356" y="-223.1" font-family="Helvetica,sans-Serif" font-size="8.00" fill="#000000">Classes/BlockInterpreter.hpp</text>
</a>
</g>
</g>
<!-- Node2&#45;&gt;Node43 -->
<g id="edge14" class="edge">
<title>Node2&#45;&gt;Node43</title>
<path fill="none" stroke="#191970" d="M248.3215,-279.4936C266.6779,-270.971 295.4607,-257.6075 318.6512,-246.8405"/>
<polygon fill="#191970" stroke="#191970" points="320.2801,-249.9431 327.8763,-242.5574 317.3323,-243.5941 320.2801,-249.9431"/>
</g>
<!-- Node4 -->
<g id="node5" class="node">
<title>Node4</title>
<g id="a_node5"><a xlink:href="../../dc/d4c/_argument_parser_8hpp.html" target="_top" xlink:title="ArgumentParser.hpp">
<polygon fill="none" stroke="#ff0000" points="167,-54.5 167,-71.5 257,-71.5 257,-54.5 167,-54.5"/>
<text text-anchor="middle" x="212" y="-61.1" font-family="Helvetica,sans-Serif" font-size="8.00" fill="#000000">ArgumentParser.hpp</text>
</a>
</g>
</g>
<!-- Node3&#45;&gt;Node4 -->
<g id="edge5" class="edge">
<title>Node3&#45;&gt;Node4</title>
<path fill="none" stroke="#191970" d="M219.5138,-108.083C218.3212,-100.9272 216.6059,-90.6353 215.1152,-81.6911"/>
<polygon fill="#191970" stroke="#191970" points="218.555,-81.0396 213.4585,-71.7511 211.6502,-82.1904 218.555,-81.0396"/>
</g>
<!-- Node4&#45;&gt;Node1 -->
<g id="edge6" class="edge">
<title>Node4&#45;&gt;Node1</title>
<path fill="none" stroke="#191970" d="M206.2205,-54.083C201.3276,-46.5341 194.1726,-35.4948 188.1674,-26.2298"/>
<polygon fill="#191970" stroke="#191970" points="191.048,-24.239 182.672,-17.7511 185.174,-28.0463 191.048,-24.239"/>
</g>
<!-- Node39&#45;&gt;Node1 -->
<g id="edge8" class="edge">
<title>Node39&#45;&gt;Node1</title>
<path fill="none" stroke="#191970" d="M134.3729,-220.9387C135.6616,-195.223 140.8356,-116.576 158,-54 160.5237,-44.7995 164.4985,-34.995 168.1618,-26.8942"/>
<polygon fill="#191970" stroke="#191970" points="171.3902,-28.2543 172.5025,-17.718 165.0624,-25.2609 171.3902,-28.2543"/>
</g>
<!-- Node39&#45;&gt;Node3 -->
<g id="edge9" class="edge">
<title>Node39&#45;&gt;Node3</title>
<path fill="none" stroke="#191970" d="M140.8267,-220.6723C155.3113,-201.9423 189.3249,-157.9591 208.0588,-133.7343"/>
<polygon fill="#191970" stroke="#191970" points="210.8561,-135.8384 214.205,-125.7867 205.3188,-131.5561 210.8561,-135.8384"/>
</g>
<!-- Node39&#45;&gt;Node40 -->
<g id="edge10" class="edge">
<title>Node39&#45;&gt;Node40</title>
<path fill="none" stroke="#191970" d="M157.9924,-220.9936C186.2203,-210.9855 233.2758,-194.3022 265.1914,-182.9867"/>
<polygon fill="#191970" stroke="#191970" points="266.7231,-186.1572 274.9786,-179.5167 264.3839,-179.5596 266.7231,-186.1572"/>
</g>
<!-- Node40&#45;&gt;Node1 -->
<g id="edge11" class="edge">
<title>Node40&#45;&gt;Node1</title>
<path fill="none" stroke="#191970" d="M298.9844,-162.4838C298.495,-141.4401 294.4053,-86.3544 266,-54 249.8523,-35.6074 224.4008,-23.8061 204.8439,-16.925"/>
<polygon fill="#191970" stroke="#191970" points="205.8276,-13.5642 195.2347,-13.7663 203.6416,-20.2141 205.8276,-13.5642"/>
</g>
<!-- Node40&#45;&gt;Node3 -->
<g id="edge12" class="edge">
<title>Node40&#45;&gt;Node3</title>
<path fill="none" stroke="#191970" d="M286.468,-162.324C274.4141,-153.979 255.9732,-141.2122 241.7313,-131.3524"/>
<polygon fill="#191970" stroke="#191970" points="243.7151,-128.469 233.5009,-125.6545 239.7306,-134.2243 243.7151,-128.469"/>
</g>
<!-- Node43&#45;&gt;Node3 -->
<g id="edge15" class="edge">
<title>Node43&#45;&gt;Node3</title>
<path fill="none" stroke="#191970" d="M359.6659,-216.4041C362.9491,-201.6678 365.6465,-177.7382 354,-162 343.8816,-148.3268 305.2672,-136.1876 272.2342,-127.9737"/>
<polygon fill="#191970" stroke="#191970" points="272.7414,-124.4957 262.1995,-125.5532 271.0999,-131.3006 272.7414,-124.4957"/>
</g>
<!-- Node43&#45;&gt;Node40 -->
<g id="edge16" class="edge">
<title>Node43&#45;&gt;Node40</title>
<path fill="none" stroke="#191970" d="M343.0658,-216.2254C334.6315,-207.5691 323.5734,-196.2201 314.6448,-187.0565"/>
<polygon fill="#191970" stroke="#191970" points="316.9517,-184.4087 307.4662,-179.689 311.938,-189.2938 316.9517,-184.4087"/>
</g>
<!-- Node44&#45;&gt;Node1 -->
<g id="edge18" class="edge">
<title>Node44&#45;&gt;Node1</title>
<path fill="none" stroke="#191970" d="M402.6303,-333.477C433.0394,-314.7818 482,-277.2647 482,-229.5 482,-229.5 482,-229.5 482,-117 482,-58.6415 281.0756,-23.8688 205.3856,-12.8401"/>
<polygon fill="#191970" stroke="#191970" points="205.5592,-9.3296 195.1657,-11.3852 204.5726,-16.2597 205.5592,-9.3296"/>
</g>
<!-- Node45 -->
<g id="node10" class="node">
<title>Node45</title>
<g id="a_node10"><a xlink:href="../../d2/d6b/_interpreter_template_8hpp.html" target="_top" xlink:title="InterpreterTemplate.hpp">
<polygon fill="none" stroke="#ff0000" points="328,-279.5 328,-296.5 430,-296.5 430,-279.5 328,-279.5"/>
<text text-anchor="middle" x="379" y="-286.1" font-family="Helvetica,sans-Serif" font-size="8.00" fill="#000000">InterpreterTemplate.hpp</text>
</a>
</g>
</g>
<!-- Node44&#45;&gt;Node45 -->
<g id="edge19" class="edge">
<title>Node44&#45;&gt;Node45</title>
<path fill="none" stroke="#191970" d="M379,-333.2254C379,-325.4435 379,-315.4853 379,-306.8952"/>
<polygon fill="#191970" stroke="#191970" points="382.5001,-306.6889 379,-296.689 375.5001,-306.689 382.5001,-306.6889"/>
</g>
<!-- Node45&#45;&gt;Node3 -->
<g id="edge20" class="edge">
<title>Node45&#45;&gt;Node3</title>
<path fill="none" stroke="#191970" d="M392.7865,-279.1887C403.826,-271.2415 418.502,-258.4469 425,-243 429.653,-231.9388 429.5922,-227.0866 425,-216 402.5437,-161.7856 337.0738,-137.1412 286.2955,-126.0121"/>
<polygon fill="#191970" stroke="#191970" points="286.8537,-122.5537 276.3528,-123.9618 285.4398,-129.4094 286.8537,-122.5537"/>
</g>
<!-- Node45&#45;&gt;Node43 -->
<g id="edge21" class="edge">
<title>Node45&#45;&gt;Node43</title>
<path fill="none" stroke="#191970" d="M375.6063,-279.3681C372.7869,-272.1971 368.645,-261.6622 364.8936,-252.1207"/>
<polygon fill="#191970" stroke="#191970" points="368.1138,-250.7456 361.1975,-242.7197 361.5993,-253.307 368.1138,-250.7456"/>
</g>
</g>
</svg>
