<?xml version="1.0" encoding="UTF-8" standalone="no"?>
<!DOCTYPE svg PUBLIC "-//W3C//DTD SVG 1.1//EN"
 "http://www.w3.org/Graphics/SVG/1.1/DTD/svg11.dtd">
<!-- Generated by graphviz version 2.40.1 (20161225.0304)
 -->
<!-- Title: PpoltauTHDM Pages: 1 -->
<svg width="75pt" height="134pt"
 viewBox="0.00 0.00 75.00 134.00" xmlns="http://www.w3.org/2000/svg" xmlns:xlink="http://www.w3.org/1999/xlink">
<g id="graph0" class="graph" transform="scale(1 1) rotate(0) translate(4 130)">
<title>PpoltauTHDM</title>
<!-- Node0 -->
<g id="node1" class="node">
<title>Node0</title>
<polygon fill="#bfbfbf" stroke="#000000" points="0,-.5 0,-17.5 67,-17.5 67,-.5 0,-.5"/>
<text text-anchor="middle" x="33.5" y="-7.1" font-family="Helvetica,sans-Serif" font-size="8.00" fill="#000000">PpoltauTHDM</text>
</g>
<!-- Node1 -->
<g id="node2" class="node">
<title>Node1</title>
<g id="a_node2"><a xlink:href="../../dc/dae/class_e_w_p_o.html" target="_top" xlink:title="An observable class to calculate the electroweak precision observables in the THDM. ">
<polygon fill="none" stroke="#000000" points="13,-54.5 13,-71.5 54,-71.5 54,-54.5 13,-54.5"/>
<text text-anchor="middle" x="33.5" y="-61.1" font-family="Helvetica,sans-Serif" font-size="8.00" fill="#000000">EWPO</text>
</a>
</g>
</g>
<!-- Node1&#45;&gt;Node0 -->
<g id="edge1" class="edge">
<title>Node1&#45;&gt;Node0</title>
<path fill="none" stroke="#191970" d="M33.5,-43.8045C33.5,-34.9102 33.5,-24.7798 33.5,-17.7511"/>
<polygon fill="#191970" stroke="#191970" points="30.0001,-44.083 33.5,-54.083 37.0001,-44.083 30.0001,-44.083"/>
</g>
<!-- Node2 -->
<g id="node3" class="node">
<title>Node2</title>
<g id="a_node3"><a xlink:href="../../dc/d1f/class_th_observable.html" target="_top" xlink:title="A class for a model prediction of an observable. ">
<polygon fill="none" stroke="#000000" points="0,-108.5 0,-125.5 67,-125.5 67,-108.5 0,-108.5"/>
<text text-anchor="middle" x="33.5" y="-115.1" font-family="Helvetica,sans-Serif" font-size="8.00" fill="#000000">ThObservable</text>
</a>
</g>
</g>
<!-- Node2&#45;&gt;Node1 -->
<g id="edge2" class="edge">
<title>Node2&#45;&gt;Node1</title>
<path fill="none" stroke="#191970" d="M33.5,-97.8045C33.5,-88.9102 33.5,-78.7798 33.5,-71.7511"/>
<polygon fill="#191970" stroke="#191970" points="30.0001,-98.083 33.5,-108.083 37.0001,-98.083 30.0001,-98.083"/>
</g>
</g>
</svg>
