<?xml version="1.0" encoding="UTF-8" standalone="no"?>
<!DOCTYPE svg PUBLIC "-//W3C//DTD SVG 1.1//EN"
 "http://www.w3.org/Graphics/SVG/1.1/DTD/svg11.dtd">
<!-- Generated by graphviz version 2.40.1 (20161225.0304)
 -->
<!-- Title: Hobs_pp_H5_WW_lnuqq_CMS13 Pages: 1 -->
<svg width="439pt" height="297pt"
 viewBox="0.00 0.00 439.00 297.00" xmlns="http://www.w3.org/2000/svg" xmlns:xlink="http://www.w3.org/1999/xlink">
<g id="graph0" class="graph" transform="scale(1 1) rotate(0) translate(4 293)">
<title>Hobs_pp_H5_WW_lnuqq_CMS13</title>
<!-- Node2 -->
<g id="node1" class="node">
<title>Node2</title>
<polygon fill="#bfbfbf" stroke="#000000" points="0,-.5 0,-26.5 107,-26.5 107,-.5 0,-.5"/>
<text text-anchor="start" x="8" y="-16.1" font-family="Helvetica,sans-Serif" font-size="8.00" fill="#000000">Hobs_pp_H5_WW_lnuqq</text>
<text text-anchor="middle" x="53.5" y="-7.1" font-family="Helvetica,sans-Serif" font-size="8.00" fill="#000000">_CMS13</text>
</g>
<!-- Node3 -->
<g id="node2" class="node">
<title>Node3</title>
<g id="a_node2"><a xlink:href="../../dc/d1f/class_th_observable.html" target="_top" xlink:title="A class for a model prediction of an observable. ">
<polygon fill="none" stroke="#000000" points="4,-108.5 4,-125.5 71,-125.5 71,-108.5 4,-108.5"/>
<text text-anchor="middle" x="37.5" y="-115.1" font-family="Helvetica,sans-Serif" font-size="8.00" fill="#000000">ThObservable</text>
</a>
</g>
</g>
<!-- Node3&#45;&gt;Node2 -->
<g id="edge1" class="edge">
<title>Node3&#45;&gt;Node2</title>
<path fill="none" stroke="#191970" d="M40.4228,-98.0934C43.6152,-77.4421 48.6462,-44.8979 51.4461,-26.7859"/>
<polygon fill="#191970" stroke="#191970" points="36.9331,-97.7583 38.8642,-108.1756 43.8509,-98.8278 36.9331,-97.7583"/>
</g>
<!-- Node4 -->
<g id="node3" class="node">
<title>Node4</title>
<g id="a_node3"><a xlink:href="../../dc/dd5/class_standard_model.html" target="_top" xlink:title="A model class for the Standard Model. ">
<polygon fill="none" stroke="#ff0000" points="211,-216.5 211,-233.5 282,-233.5 282,-216.5 211,-216.5"/>
<text text-anchor="middle" x="246.5" y="-223.1" font-family="Helvetica,sans-Serif" font-size="8.00" fill="#000000">StandardModel</text>
</a>
</g>
</g>
<!-- Node4&#45;&gt;Node3 -->
<g id="edge2" class="edge">
<title>Node4&#45;&gt;Node3</title>
<path fill="none" stroke="#9a32cd" stroke-dasharray="5,2" d="M200.8247,-217.0106C151.5437,-207.5473 77.3154,-190.5747 56.5,-171 43.6129,-158.881 39.4612,-137.5082 38.1276,-125.6092"/>
<polygon fill="#9a32cd" stroke="#9a32cd" points="200.4588,-220.5032 210.9338,-218.9142 201.7543,-213.6241 200.4588,-220.5032"/>
<text text-anchor="middle" x="123" y="-191.6" font-family="Helvetica,sans-Serif" font-size="8.00" fill="#000000"> SM</text>
</g>
<!-- Node9 -->
<g id="node6" class="node">
<title>Node9</title>
<g id="a_node6"><a xlink:href="../../dc/df3/class_e_w_s_mcache.html" target="_top" xlink:title="A class for cache variables used in computing radiative corrections to the EW precision observables...">
<polygon fill="none" stroke="#ff0000" points="368,-149 368,-166 431,-166 431,-149 368,-149"/>
<text text-anchor="middle" x="399.5" y="-155.6" font-family="Helvetica,sans-Serif" font-size="8.00" fill="#000000">EWSMcache</text>
</a>
</g>
</g>
<!-- Node4&#45;&gt;Node9 -->
<g id="edge6" class="edge">
<title>Node4&#45;&gt;Node9</title>
<path fill="none" stroke="#9a32cd" stroke-dasharray="5,2" d="M275.146,-212.362C305.6807,-198.8909 353.213,-177.9207 379.7965,-166.1927"/>
<polygon fill="#9a32cd" stroke="#9a32cd" points="273.614,-209.2124 265.8776,-216.4511 276.4395,-215.6168 273.614,-209.2124"/>
<text text-anchor="middle" x="335" y="-191.6" font-family="Helvetica,sans-Serif" font-size="8.00" fill="#000000"> SM</text>
</g>
<!-- Node48 -->
<g id="node8" class="node">
<title>Node48</title>
<g id="a_node8"><a xlink:href="../../d2/df3/class_n_pbase.html" target="_top" xlink:title="The auxiliary base model class for other model classes. ">
<polygon fill="none" stroke="#000000" points="187,-149 187,-166 232,-166 232,-149 187,-149"/>
<text text-anchor="middle" x="209.5" y="-155.6" font-family="Helvetica,sans-Serif" font-size="8.00" fill="#000000">NPbase</text>
</a>
</g>
</g>
<!-- Node4&#45;&gt;Node48 -->
<g id="edge10" class="edge">
<title>Node4&#45;&gt;Node48</title>
<path fill="none" stroke="#191970" d="M216.9868,-210.8791C212.3692,-207.3354 208.2289,-203.0645 205.5,-198 200.1376,-188.048 203.0407,-174.7157 205.9721,-166.116"/>
<polygon fill="#191970" stroke="#191970" points="215.3206,-213.9705 225.6124,-216.4867 219.136,-208.1017 215.3206,-213.9705"/>
</g>
<!-- Node4&#45;&gt;Node48 -->
<g id="edge11" class="edge">
<title>Node4&#45;&gt;Node48</title>
<path fill="none" stroke="#9a32cd" stroke-dasharray="5,2" d="M232.3965,-208.3772C229.9217,-205.0561 227.5017,-201.5071 225.5,-198 219.5789,-187.6259 214.8719,-174.6301 212.1359,-166.2004"/>
<polygon fill="#9a32cd" stroke="#9a32cd" points="229.8586,-210.8087 238.8259,-216.4512 235.3345,-206.4481 229.8586,-210.8087"/>
<text text-anchor="middle" x="240" y="-191.6" font-family="Helvetica,sans-Serif" font-size="8.00" fill="#000000"> trueSM</text>
</g>
<!-- Node5 -->
<g id="node4" class="node">
<title>Node5</title>
<g id="a_node4"><a xlink:href="../../dd/dfa/class_q_c_d.html" target="_top" xlink:title="A class for parameters related to QCD, hadrons and quarks. ">
<polygon fill="none" stroke="#ff0000" points="229.5,-271.5 229.5,-288.5 263.5,-288.5 263.5,-271.5 229.5,-271.5"/>
<text text-anchor="middle" x="246.5" y="-278.1" font-family="Helvetica,sans-Serif" font-size="8.00" fill="#000000">QCD</text>
</a>
</g>
</g>
<!-- Node5&#45;&gt;Node4 -->
<g id="edge3" class="edge">
<title>Node5&#45;&gt;Node4</title>
<path fill="none" stroke="#191970" d="M246.5,-261.1166C246.5,-251.8173 246.5,-241.0557 246.5,-233.7149"/>
<polygon fill="#191970" stroke="#191970" points="243.0001,-261.4062 246.5,-271.4063 250.0001,-261.4063 243.0001,-261.4062"/>
</g>
<!-- Node8 -->
<g id="node5" class="node">
<title>Node8</title>
<g id="a_node5"><a xlink:href="../../db/d32/class_e_w_s_m_two_fermions_l_e_p2.html" target="_top" xlink:title="A class for the form factors , &#160;and &#160;in the processes &#160;at LEP&#45;II. ">
<polygon fill="none" stroke="#ff0000" points="255,-72.5 255,-89.5 364,-89.5 364,-72.5 255,-72.5"/>
<text text-anchor="middle" x="309.5" y="-79.1" font-family="Helvetica,sans-Serif" font-size="8.00" fill="#000000">EWSMTwoFermionsLEP2</text>
</a>
</g>
</g>
<!-- Node8&#45;&gt;Node4 -->
<g id="edge4" class="edge">
<title>Node8&#45;&gt;Node4</title>
<path fill="none" stroke="#9a32cd" stroke-dasharray="5,2" d="M300.2739,-98.7744C293.8934,-111.2955 285.3528,-128.5203 278.5,-144 266.9932,-169.9927 255.1292,-201.4925 249.6383,-216.3928"/>
<polygon fill="#9a32cd" stroke="#9a32cd" points="303.3951,-100.3582 304.8544,-89.8644 297.1695,-97.1578 303.3951,-100.3582"/>
<text text-anchor="middle" x="319" y="-155.6" font-family="Helvetica,sans-Serif" font-size="8.00" fill="#000000"> myTwoFermionsLEP2</text>
</g>
<!-- Node9&#45;&gt;Node4 -->
<g id="edge7" class="edge">
<title>Node9&#45;&gt;Node4</title>
<path fill="none" stroke="#9a32cd" stroke-dasharray="5,2" d="M382.701,-173.0638C372.8051,-181.5023 359.6744,-191.5038 346.5,-198 326.3392,-207.9411 302.0248,-214.6114 282.4198,-218.8349"/>
<polygon fill="#9a32cd" stroke="#9a32cd" points="385.3138,-175.4255 390.4846,-166.1781 380.6757,-170.1826 385.3138,-175.4255"/>
<text text-anchor="middle" x="390.5" y="-191.6" font-family="Helvetica,sans-Serif" font-size="8.00" fill="#000000"> myEWSMcache</text>
</g>
<!-- Node9&#45;&gt;Node8 -->
<g id="edge5" class="edge">
<title>Node9&#45;&gt;Node8</title>
<path fill="none" stroke="#9a32cd" stroke-dasharray="5,2" d="M381.4162,-142.1288C362.8726,-126.3667 334.6883,-102.4101 319.7037,-89.6732"/>
<polygon fill="#9a32cd" stroke="#9a32cd" points="379.2897,-144.9148 389.1759,-148.7245 383.8232,-139.5812 379.2897,-144.9148"/>
<text text-anchor="middle" x="371.5" y="-115.1" font-family="Helvetica,sans-Serif" font-size="8.00" fill="#000000"> cache</text>
</g>
<!-- Node47 -->
<g id="node7" class="node">
<title>Node47</title>
<g id="a_node7"><a xlink:href="../../db/d2b/class_georgi_machacek.html" target="_top" xlink:title="A base class for the Georgi&#45;Machacek model. ">
<polygon fill="none" stroke="#000000" points="81,-72.5 81,-89.5 158,-89.5 158,-72.5 81,-72.5"/>
<text text-anchor="middle" x="119.5" y="-79.1" font-family="Helvetica,sans-Serif" font-size="8.00" fill="#000000">GeorgiMachacek</text>
</a>
</g>
</g>
<!-- Node47&#45;&gt;Node2 -->
<g id="edge8" class="edge">
<title>Node47&#45;&gt;Node2</title>
<path fill="none" stroke="#9a32cd" stroke-dasharray="5,2" d="M98.5327,-66.2505C93.7185,-62.4838 88.7654,-58.2815 84.5,-54 76.1259,-45.5943 68.0248,-34.8918 62.2054,-26.6001"/>
<polygon fill="#9a32cd" stroke="#9a32cd" points="96.7646,-69.2986 106.8695,-72.4832 100.956,-63.6922 96.7646,-69.2986"/>
<text text-anchor="middle" x="97.5" y="-47.6" font-family="Helvetica,sans-Serif" font-size="8.00" fill="#000000"> myGM</text>
</g>
<!-- Node51 -->
<g id="node10" class="node">
<title>Node51</title>
<g id="a_node10"><a xlink:href="../../d7/db7/class_g_mcache.html" target="_top" xlink:title="A class for the caching of GeorgiMachacek objects. ">
<polygon fill="none" stroke="#ff0000" points="134,-5 134,-22 185,-22 185,-5 134,-5"/>
<text text-anchor="middle" x="159.5" y="-11.6" font-family="Helvetica,sans-Serif" font-size="8.00" fill="#000000">GMcache</text>
</a>
</g>
</g>
<!-- Node47&#45;&gt;Node51 -->
<g id="edge14" class="edge">
<title>Node47&#45;&gt;Node51</title>
<path fill="none" stroke="#9a32cd" stroke-dasharray="5,2" d="M114.1841,-62.0586C113.5396,-56.3258 113.8729,-50.1811 116.5,-45 121.6058,-34.9305 131.6109,-27.3045 140.6861,-22.0799"/>
<polygon fill="#9a32cd" stroke="#9a32cd" points="110.8311,-63.1281 116.2824,-72.2128 117.6862,-61.7114 110.8311,-63.1281"/>
<text text-anchor="middle" x="129.5" y="-47.6" font-family="Helvetica,sans-Serif" font-size="8.00" fill="#000000"> myGM</text>
</g>
<!-- Node48&#45;&gt;Node47 -->
<g id="edge9" class="edge">
<title>Node48&#45;&gt;Node47</title>
<path fill="none" stroke="#191970" d="M191.4162,-142.1288C172.8726,-126.3667 144.6883,-102.4101 129.7037,-89.6732"/>
<polygon fill="#191970" stroke="#191970" points="189.2897,-144.9148 199.1759,-148.7245 193.8232,-139.5812 189.2897,-144.9148"/>
</g>
<!-- Node49 -->
<g id="node9" class="node">
<title>Node49</title>
<g id="a_node9"><a xlink:href="../../d5/d76/class_matching.html" target="_top" xlink:title="Matching\&lt; GMMatching,\l GeorgiMachacek \&gt;">
<polygon fill="none" stroke="#ff0000" points="66,-144.5 66,-170.5 169,-170.5 169,-144.5 66,-144.5"/>
<text text-anchor="start" x="74" y="-160.1" font-family="Helvetica,sans-Serif" font-size="8.00" fill="#000000">Matching&lt; GMMatching,</text>
<text text-anchor="middle" x="117.5" y="-151.1" font-family="Helvetica,sans-Serif" font-size="8.00" fill="#000000"> GeorgiMachacek &gt;</text>
</a>
</g>
</g>
<!-- Node49&#45;&gt;Node47 -->
<g id="edge12" class="edge">
<title>Node49&#45;&gt;Node47</title>
<path fill="none" stroke="#9a32cd" stroke-dasharray="5,2" d="M118.1121,-134.0882C118.5027,-119.1453 118.9869,-100.6269 119.2679,-89.8783"/>
<polygon fill="#9a32cd" stroke="#9a32cd" points="114.611,-134.0866 117.8484,-144.1747 121.6086,-134.2696 114.611,-134.0866"/>
<text text-anchor="middle" x="130.5" y="-115.1" font-family="Helvetica,sans-Serif" font-size="8.00" fill="#000000"> GMM</text>
</g>
<!-- Node51&#45;&gt;Node47 -->
<g id="edge13" class="edge">
<title>Node51&#45;&gt;Node47</title>
<path fill="none" stroke="#9a32cd" stroke-dasharray="5,2" d="M155.5554,-31.9868C153.5216,-39.1884 150.5877,-47.3028 146.5,-54 142.2175,-61.0164 135.7489,-67.5704 130.2168,-72.4638"/>
<polygon fill="#9a32cd" stroke="#9a32cd" points="159.0073,-32.605 157.9836,-22.0598 152.2077,-30.9417 159.0073,-32.605"/>
<text text-anchor="middle" x="175.5" y="-47.6" font-family="Helvetica,sans-Serif" font-size="8.00" fill="#000000"> myGMcache</text>
</g>
</g>
</svg>
