<?xml version="1.0" encoding="UTF-8" standalone="no"?>
<!DOCTYPE svg PUBLIC "-//W3C//DTD SVG 1.1//EN"
 "http://www.w3.org/Graphics/SVG/1.1/DTD/svg11.dtd">
<!-- Generated by graphviz version 2.38.0 (20140413.2041)
 -->
<!-- Title: unitarity8 Pages: 1 -->
<svg width="275pt" height="270pt"
 viewBox="0.00 0.00 274.50 270.00" xmlns="http://www.w3.org/2000/svg" xmlns:xlink="http://www.w3.org/1999/xlink">
<g id="graph0" class="graph" transform="scale(1 1) rotate(0) translate(4 266)">
<title>unitarity8</title>
<!-- Node1 -->
<g id="node1" class="node"><title>Node1</title>
<polygon fill="#bfbfbf" stroke="black" points="61,-0.5 61,-17.5 110,-17.5 110,-0.5 61,-0.5"/>
<text text-anchor="middle" x="85.5" y="-7.1" font-family="Helvetica,sans-Serif" font-size="8.00">unitarity8</text>
</g>
<!-- Node2 -->
<g id="node2" class="node"><title>Node2</title>
<g id="a_node2"><a xlink:href="../../d5/d21/classunitarity.html" target="_top" xlink:title="An observable class for the requirement of tree level perturbative unitarity. ">
<polygon fill="none" stroke="black" points="63,-55.5 63,-72.5 108,-72.5 108,-55.5 63,-55.5"/>
<text text-anchor="middle" x="85.5" y="-62.1" font-family="Helvetica,sans-Serif" font-size="8.00">unitarity</text>
</a>
</g>
</g>
<!-- Node2&#45;&gt;Node1 -->
<g id="edge1" class="edge"><title>Node2&#45;&gt;Node1</title>
<path fill="none" stroke="midnightblue" d="M85.5,-44.8927C85.5,-35.5285 85.5,-24.6052 85.5,-17.5092"/>
<polygon fill="midnightblue" stroke="midnightblue" points="82.0001,-45.1796 85.5,-55.1797 89.0001,-45.1797 82.0001,-45.1796"/>
</g>
<!-- Node3 -->
<g id="node3" class="node"><title>Node3</title>
<g id="a_node3"><a xlink:href="../../dc/d1f/class_th_observable.html" target="_top" xlink:title="A class for a model prediction of an observable. ">
<polygon fill="none" stroke="black" points="0,-118.5 0,-135.5 67,-135.5 67,-118.5 0,-118.5"/>
<text text-anchor="middle" x="33.5" y="-125.1" font-family="Helvetica,sans-Serif" font-size="8.00">ThObservable</text>
</a>
</g>
</g>
<!-- Node3&#45;&gt;Node2 -->
<g id="edge2" class="edge"><title>Node3&#45;&gt;Node2</title>
<path fill="none" stroke="midnightblue" d="M46.792,-110.407C57.027,-98.401 70.7463,-82.3072 78.8034,-72.8556"/>
<polygon fill="midnightblue" stroke="midnightblue" points="43.9097,-108.394 40.0858,-118.274 49.2368,-112.935 43.9097,-108.394"/>
</g>
<!-- Node4 -->
<g id="node4" class="node"><title>Node4</title>
<g id="a_node4"><a xlink:href="../../dc/dd5/class_standard_model.html" target="_top" xlink:title="A model class for the Standard Model. ">
<polygon fill="none" stroke="red" points="59,-181.5 59,-198.5 130,-198.5 130,-181.5 59,-181.5"/>
<text text-anchor="middle" x="94.5" y="-188.1" font-family="Helvetica,sans-Serif" font-size="8.00">StandardModel</text>
</a>
</g>
</g>
<!-- Node4&#45;&gt;Node3 -->
<g id="edge3" class="edge"><title>Node4&#45;&gt;Node3</title>
<path fill="none" stroke="#9a32cd" stroke-dasharray="5,2" d="M78.1131,-174.82C73.9248,-171.058 69.4818,-166.943 65.5,-163 56.3738,-153.962 46.4874,-142.943 40.1561,-135.712"/>
<polygon fill="#9a32cd" stroke="#9a32cd" points="75.8505,-177.492 85.6649,-181.483 80.4814,-172.242 75.8505,-177.492"/>
<text text-anchor="middle" x="73" y="-156.6" font-family="Helvetica,sans-Serif" font-size="8.00"> SM</text>
</g>
<!-- Node6 -->
<g id="node6" class="node"><title>Node6</title>
<g id="a_node6"><a xlink:href="../../dc/df3/class_e_w_s_mcache.html" target="_top" xlink:title="A class for cache variables used in computing radiative corrections to the EW precision observables...">
<polygon fill="none" stroke="red" points="85,-118.5 85,-135.5 148,-135.5 148,-118.5 85,-118.5"/>
<text text-anchor="middle" x="116.5" y="-125.1" font-family="Helvetica,sans-Serif" font-size="8.00">EWSMcache</text>
</a>
</g>
</g>
<!-- Node4&#45;&gt;Node6 -->
<g id="edge6" class="edge"><title>Node4&#45;&gt;Node6</title>
<path fill="none" stroke="#9a32cd" stroke-dasharray="5,2" d="M85.5198,-171.962C83.6216,-166.106 82.881,-159.615 85.5,-154 89.1226,-146.234 96.3328,-139.965 102.889,-135.53"/>
<polygon fill="#9a32cd" stroke="#9a32cd" points="82.4806,-173.745 89.7108,-181.489 88.8881,-170.926 82.4806,-173.745"/>
<text text-anchor="middle" x="93" y="-156.6" font-family="Helvetica,sans-Serif" font-size="8.00"> SM</text>
</g>
<!-- Node8 -->
<g id="node8" class="node"><title>Node8</title>
<g id="a_node8"><a xlink:href="../../d0/d52/class_t_h_d_m.html" target="_top" xlink:title="A base class &#160;symmetric Two&#45;Higgs&#45;Doublet models. ">
<polygon fill="none" stroke="black" points="168.5,-118.5 168.5,-135.5 208.5,-135.5 208.5,-118.5 168.5,-118.5"/>
<text text-anchor="middle" x="188.5" y="-125.1" font-family="Helvetica,sans-Serif" font-size="8.00">THDM</text>
</a>
</g>
</g>
<!-- Node4&#45;&gt;Node8 -->
<g id="edge9" class="edge"><title>Node4&#45;&gt;Node8</title>
<path fill="none" stroke="midnightblue" d="M139.903,-180.212C151.176,-176.366 162.574,-170.863 171.5,-163 179.712,-155.766 184.338,-143.672 186.629,-135.765"/>
<polygon fill="midnightblue" stroke="midnightblue" points="138.65,-176.934 130.094,-183.182 140.679,-183.634 138.65,-176.934"/>
</g>
<!-- Node5 -->
<g id="node5" class="node"><title>Node5</title>
<g id="a_node5"><a xlink:href="../../dd/dfa/class_q_c_d.html" target="_top" xlink:title="A class for parameters related to QCD, hadrons and quarks. ">
<polygon fill="none" stroke="red" points="51.5,-244.5 51.5,-261.5 85.5,-261.5 85.5,-244.5 51.5,-244.5"/>
<text text-anchor="middle" x="68.5" y="-251.1" font-family="Helvetica,sans-Serif" font-size="8.00">QCD</text>
</a>
</g>
</g>
<!-- Node5&#45;&gt;Node4 -->
<g id="edge4" class="edge"><title>Node5&#45;&gt;Node4</title>
<path fill="none" stroke="midnightblue" d="M75.7498,-234.991C80.792,-223.161 87.2796,-207.94 91.1517,-198.856"/>
<polygon fill="midnightblue" stroke="midnightblue" points="72.4942,-233.703 71.7929,-244.274 78.9337,-236.447 72.4942,-233.703"/>
</g>
<!-- Node6&#45;&gt;Node4 -->
<g id="edge5" class="edge"><title>Node6&#45;&gt;Node4</title>
<path fill="none" stroke="#9a32cd" stroke-dasharray="5,2" d="M110.174,-145.54C105.916,-157.348 100.509,-172.34 97.2863,-181.274"/>
<polygon fill="#9a32cd" stroke="#9a32cd" points="113.567,-146.45 113.667,-135.856 106.982,-144.075 113.567,-146.45"/>
<text text-anchor="middle" x="137.5" y="-156.6" font-family="Helvetica,sans-Serif" font-size="8.00"> myEWSMcache</text>
</g>
<!-- Node7 -->
<g id="node7" class="node"><title>Node7</title>
<g id="a_node7"><a xlink:href="../../d9/db9/class_c_k_m.html" target="_top" xlink:title="A class for the CKM matrix elements. ">
<polygon fill="none" stroke="red" points="103.5,-244.5 103.5,-261.5 137.5,-261.5 137.5,-244.5 103.5,-244.5"/>
<text text-anchor="middle" x="120.5" y="-251.1" font-family="Helvetica,sans-Serif" font-size="8.00">CKM</text>
</a>
</g>
</g>
<!-- Node7&#45;&gt;Node4 -->
<g id="edge7" class="edge"><title>Node7&#45;&gt;Node4</title>
<path fill="none" stroke="#9a32cd" stroke-dasharray="5,2" d="M113.25,-234.991C108.208,-223.161 101.72,-207.94 97.8483,-198.856"/>
<polygon fill="#9a32cd" stroke="#9a32cd" points="110.066,-236.447 117.207,-244.274 116.506,-233.703 110.066,-236.447"/>
<text text-anchor="middle" x="125" y="-219.6" font-family="Helvetica,sans-Serif" font-size="8.00"> myCKM</text>
</g>
<!-- Node8&#45;&gt;Node2 -->
<g id="edge8" class="edge"><title>Node8&#45;&gt;Node2</title>
<path fill="none" stroke="#9a32cd" stroke-dasharray="5,2" d="M158.455,-117.234C141.342,-111.897 121.879,-105.14 114.5,-100 104.01,-92.6936 95.1833,-80.6186 90.1155,-72.7361"/>
<polygon fill="#9a32cd" stroke="#9a32cd" points="157.564,-120.622 168.15,-120.19 159.606,-113.926 157.564,-120.622"/>
<text text-anchor="middle" x="132.5" y="-93.6" font-family="Helvetica,sans-Serif" font-size="8.00"> myTHDM</text>
</g>
<!-- Node10 -->
<g id="node10" class="node"><title>Node10</title>
<g id="a_node10"><a xlink:href="../../dc/d38/class_t_h_d_m_matching.html" target="_top" xlink:title="A class for the Wilson coefficients in the THDM. ">
<polygon fill="none" stroke="red" points="135.5,-55.5 135.5,-72.5 207.5,-72.5 207.5,-55.5 135.5,-55.5"/>
<text text-anchor="middle" x="171.5" y="-62.1" font-family="Helvetica,sans-Serif" font-size="8.00">THDMMatching</text>
</a>
</g>
</g>
<!-- Node8&#45;&gt;Node10 -->
<g id="edge12" class="edge"><title>Node8&#45;&gt;Node10</title>
<path fill="none" stroke="#9a32cd" stroke-dasharray="5,2" d="M165.604,-112.498C161.519,-108.977 157.828,-104.799 155.5,-100 150.95,-90.6228 157.887,-79.6773 164,-72.5569"/>
<polygon fill="#9a32cd" stroke="#9a32cd" points="163.562,-115.341 173.69,-118.45 167.711,-109.703 163.562,-115.341"/>
<text text-anchor="middle" x="173.5" y="-93.6" font-family="Helvetica,sans-Serif" font-size="8.00"> myTHDM</text>
</g>
<!-- Node9 -->
<g id="node9" class="node"><title>Node9</title>
<g id="a_node9"><a xlink:href="../../d5/df2/class_t_h_d_mcache.html" target="_top" xlink:title="A class for the caching of some THDM objects. ">
<polygon fill="none" stroke="red" points="191,-181.5 191,-198.5 252,-198.5 252,-181.5 191,-181.5"/>
<text text-anchor="middle" x="221.5" y="-188.1" font-family="Helvetica,sans-Serif" font-size="8.00">THDMcache</text>
</a>
</g>
</g>
<!-- Node9&#45;&gt;Node8 -->
<g id="edge10" class="edge"><title>Node9&#45;&gt;Node8</title>
<path fill="none" stroke="#9a32cd" stroke-dasharray="5,2" d="M212.492,-172.348C206.065,-160.469 197.714,-145.032 192.75,-135.856"/>
<polygon fill="#9a32cd" stroke="#9a32cd" points="209.484,-174.144 217.321,-181.274 215.641,-170.813 209.484,-174.144"/>
<text text-anchor="middle" x="225" y="-156.6" font-family="Helvetica,sans-Serif" font-size="8.00"> mycache</text>
</g>
<!-- Node10&#45;&gt;Node8 -->
<g id="edge11" class="edge"><title>Node10&#45;&gt;Node8</title>
<path fill="none" stroke="#9a32cd" stroke-dasharray="5,2" d="M188.618,-79.8888C191.43,-83.2365 193.934,-86.9951 195.5,-91 199.02,-100.003 195.651,-111.031 192.481,-118.272"/>
<polygon fill="#9a32cd" stroke="#9a32cd" points="190.862,-77.1789 181.353,-72.5076 185.873,-82.0895 190.862,-77.1789"/>
<text text-anchor="middle" x="232" y="-93.6" font-family="Helvetica,sans-Serif" font-size="8.00"> myTHDMMatching</text>
</g>
</g>
</svg>
