<?xml version="1.0" encoding="UTF-8" standalone="no"?>
<!DOCTYPE svg PUBLIC "-//W3C//DTD SVG 1.1//EN"
 "http://www.w3.org/Graphics/SVG/1.1/DTD/svg11.dtd">
<!-- Generated by graphviz version 2.40.1 (20161225.0304)
 -->
<!-- Title: AFBstrange.h Pages: 1 -->
<svg width="182pt" height="134pt"
 viewBox="0.00 0.00 182.00 134.00" xmlns="http://www.w3.org/2000/svg" xmlns:xlink="http://www.w3.org/1999/xlink">
<g id="graph0" class="graph" transform="scale(1 1) rotate(0) translate(4 130)">
<title>AFBstrange.h</title>
<!-- Node5 -->
<g id="node1" class="node">
<title>Node5</title>
<polygon fill="#bfbfbf" stroke="#000000" points="52.5,-108.5 52.5,-125.5 117.5,-125.5 117.5,-108.5 52.5,-108.5"/>
<text text-anchor="middle" x="85" y="-115.1" font-family="Helvetica,sans-Serif" font-size="8.00" fill="#000000">AFBstrange.h</text>
</g>
<!-- Node6 -->
<g id="node2" class="node">
<title>Node6</title>
<g id="a_node2"><a xlink:href="../../d9/db7/_a_f_bstrange_8cpp.html" target="_top" xlink:title="AFBstrange.cpp">
<polygon fill="none" stroke="#000000" points="0,-54.5 0,-71.5 74,-71.5 74,-54.5 0,-54.5"/>
<text text-anchor="middle" x="37" y="-61.1" font-family="Helvetica,sans-Serif" font-size="8.00" fill="#000000">AFBstrange.cpp</text>
</a>
</g>
</g>
<!-- Node5&#45;&gt;Node6 -->
<g id="edge1" class="edge">
<title>Node5&#45;&gt;Node6</title>
<path fill="none" stroke="#191970" d="M70.2723,-100.4314C61.8599,-90.9673 51.6513,-79.4827 44.7787,-71.7511"/>
<polygon fill="#191970" stroke="#191970" points="67.8142,-102.9342 77.0738,-108.083 73.046,-98.2836 67.8142,-102.9342"/>
</g>
<!-- Node7 -->
<g id="node3" class="node">
<title>Node7</title>
<g id="a_node3"><a xlink:href="../../dd/df3/_e_w_observables_8h.html" target="_top" xlink:title="A header file for the observables defined in EW module. ">
<polygon fill="none" stroke="#000000" points="92.5,-54.5 92.5,-71.5 173.5,-71.5 173.5,-54.5 92.5,-54.5"/>
<text text-anchor="middle" x="133" y="-61.1" font-family="Helvetica,sans-Serif" font-size="8.00" fill="#000000">EWObservables.h</text>
</a>
</g>
</g>
<!-- Node5&#45;&gt;Node7 -->
<g id="edge2" class="edge">
<title>Node5&#45;&gt;Node7</title>
<path fill="none" stroke="#191970" d="M99.7277,-100.4314C108.1401,-90.9673 118.3487,-79.4827 125.2213,-71.7511"/>
<polygon fill="#191970" stroke="#191970" points="96.954,-98.2836 92.9262,-108.083 102.1858,-102.9342 96.954,-98.2836"/>
</g>
<!-- Node8 -->
<g id="node4" class="node">
<title>Node8</title>
<g id="a_node4"><a xlink:href="../../d1/de2/_th_obs_factory_8cpp.html" target="_top" xlink:title="ThObsFactory.cpp">
<polygon fill="none" stroke="#000000" points="92,-.5 92,-17.5 174,-17.5 174,-.5 92,-.5"/>
<text text-anchor="middle" x="133" y="-7.1" font-family="Helvetica,sans-Serif" font-size="8.00" fill="#000000">ThObsFactory.cpp</text>
</a>
</g>
</g>
<!-- Node7&#45;&gt;Node8 -->
<g id="edge3" class="edge">
<title>Node7&#45;&gt;Node8</title>
<path fill="none" stroke="#191970" d="M133,-43.8045C133,-34.9102 133,-24.7798 133,-17.7511"/>
<polygon fill="#191970" stroke="#191970" points="129.5001,-44.083 133,-54.083 136.5001,-44.083 129.5001,-44.083"/>
</g>
</g>
</svg>
