<?xml version="1.0" encoding="UTF-8" standalone="no"?>
<!DOCTYPE svg PUBLIC "-//W3C//DTD SVG 1.1//EN"
 "http://www.w3.org/Graphics/SVG/1.1/DTD/svg11.dtd">
<!-- Generated by graphviz version 2.40.1 (20161225.0304)
 -->
<!-- Title: LHPC::LhefParser Pages: 1 -->
<svg width="1275pt" height="117pt"
 viewBox="0.00 0.00 1275.00 116.50" xmlns="http://www.w3.org/2000/svg" xmlns:xlink="http://www.w3.org/1999/xlink">
<g id="graph0" class="graph" transform="scale(1 1) rotate(0) translate(4 112.5)">
<title>LHPC::LhefParser</title>
<!-- Node1 -->
<g id="node1" class="node">
<title>Node1</title>
<polygon fill="#bfbfbf" stroke="#000000" points="1186,-16.5 1186,-33.5 1267,-33.5 1267,-16.5 1186,-16.5"/>
<text text-anchor="middle" x="1226.5" y="-23.1" font-family="Helvetica,sans-Serif" font-size="8.00" fill="#000000">LHPC::LhefParser</text>
</g>
<!-- Node2 -->
<g id="node2" class="node">
<title>Node2</title>
<g id="a_node2"><a xlink:href="../../d1/d16/class_l_h_p_c_1_1_l_h_e_f_1_1_lhef_event.html" target="_top" xlink:title="LHPC::LHEF::LhefEvent">
<polygon fill="none" stroke="#000000" points="999,-36.5 999,-53.5 1102,-53.5 1102,-36.5 999,-36.5"/>
<text text-anchor="middle" x="1050.5" y="-43.1" font-family="Helvetica,sans-Serif" font-size="8.00" fill="#000000">LHPC::LHEF::LhefEvent</text>
</a>
</g>
</g>
<!-- Node2&#45;&gt;Node1 -->
<g id="edge1" class="edge">
<title>Node2&#45;&gt;Node1</title>
<path fill="none" stroke="#9a32cd" stroke-dasharray="5,2" d="M1112.581,-37.9453C1136.9162,-35.18 1164.1549,-32.0847 1185.8941,-29.6143"/>
<polygon fill="#9a32cd" stroke="#9a32cd" points="1111.8947,-34.5007 1102.3539,-39.1075 1112.6851,-41.4559 1111.8947,-34.5007"/>
<text text-anchor="middle" x="1144" y="-38.6" font-family="Helvetica,sans-Serif" font-size="8.00" fill="#000000"> currentEvent</text>
</g>
<!-- Node3 -->
<g id="node3" class="node">
<title>Node3</title>
<g id="a_node3"><a xlink:href="../../de/da2/class_b_o_l_1_1_vectorlike_array.html" target="_top" xlink:title="BOL::VectorlikeArray\l\&lt; LHPC::LHEF::ParticleLine \&gt;">
<polygon fill="none" stroke="#000000" points="792,-82 792,-108 915,-108 915,-82 792,-82"/>
<text text-anchor="start" x="800" y="-97.6" font-family="Helvetica,sans-Serif" font-size="8.00" fill="#000000">BOL::VectorlikeArray</text>
<text text-anchor="middle" x="853.5" y="-88.6" font-family="Helvetica,sans-Serif" font-size="8.00" fill="#000000">&lt; LHPC::LHEF::ParticleLine &gt;</text>
</a>
</g>
</g>
<!-- Node3&#45;&gt;Node2 -->
<g id="edge2" class="edge">
<title>Node3&#45;&gt;Node2</title>
<path fill="none" stroke="#9a32cd" stroke-dasharray="5,2" d="M914.5096,-79.5153C948.2254,-70.958 988.8295,-60.6524 1016.8426,-53.5425"/>
<polygon fill="#9a32cd" stroke="#9a32cd" points="913.5768,-76.141 904.7452,-81.9936 915.2989,-82.9259 913.5768,-76.141"/>
<text text-anchor="middle" x="957" y="-76.6" font-family="Helvetica,sans-Serif" font-size="8.00" fill="#000000"> particleLines</text>
</g>
<!-- Node4 -->
<g id="node4" class="node">
<title>Node4</title>
<g id="a_node4"><a xlink:href="../../db/d28/class_l_h_p_c_1_1_l_h_e_f_1_1_particle_line.html" target="_top" xlink:title="LHPC::LHEF::ParticleLine">
<polygon fill="none" stroke="#000000" points="556,-31.5 556,-48.5 665,-48.5 665,-31.5 556,-31.5"/>
<text text-anchor="middle" x="610.5" y="-38.1" font-family="Helvetica,sans-Serif" font-size="8.00" fill="#000000">LHPC::LHEF::ParticleLine</text>
</a>
</g>
</g>
<!-- Node4&#45;&gt;Node2 -->
<g id="edge9" class="edge">
<title>Node4&#45;&gt;Node2</title>
<path fill="none" stroke="#9a32cd" stroke-dasharray="5,2" d="M675.4483,-40.738C763.3074,-41.7364 918.2718,-43.4974 998.7402,-44.4118"/>
<polygon fill="#9a32cd" stroke="#9a32cd" points="675.3758,-37.2371 665.3367,-40.6231 675.2962,-44.2366 675.3758,-37.2371"/>
<text text-anchor="middle" x="853.5" y="-54.6" font-family="Helvetica,sans-Serif" font-size="8.00" fill="#000000"> secondaryMotherLinePointer</text>
<text text-anchor="middle" x="853.5" y="-45.6" font-family="Helvetica,sans-Serif" font-size="8.00" fill="#000000">primaryMotherLinePointer</text>
</g>
<!-- Node4&#45;&gt;Node3 -->
<g id="edge3" class="edge">
<title>Node4&#45;&gt;Node3</title>
<path fill="none" stroke="#9a32cd" stroke-dasharray="5,2" d="M651.7253,-51.1718C661.923,-53.8337 672.8382,-56.5971 683,-59 718.9185,-67.4933 759.3248,-76.0675 791.7839,-82.7165"/>
<polygon fill="#9a32cd" stroke="#9a32cd" points="652.3831,-47.7257 641.8212,-48.5609 650.5987,-54.4945 652.3831,-47.7257"/>
<text text-anchor="middle" x="728.5" y="-80.6" font-family="Helvetica,sans-Serif" font-size="8.00" fill="#000000"> pointerArray</text>
</g>
<!-- Node4&#45;&gt;Node4 -->
<g id="edge4" class="edge">
<title>Node4&#45;&gt;Node4</title>
<path fill="none" stroke="#9a32cd" stroke-dasharray="5,2" d="M588.4039,-57.4802C588.9176,-62.8193 596.283,-67 610.5,-67 632.1641,-67 637.9186,-57.2925 627.7635,-48.5709"/>
<polygon fill="#9a32cd" stroke="#9a32cd" points="591.545,-59.0298 593.2365,-48.5709 585.3919,-55.6922 591.545,-59.0298"/>
<text text-anchor="middle" x="610.5" y="-78.6" font-family="Helvetica,sans-Serif" font-size="8.00" fill="#000000"> secondaryMotherLinePointer</text>
<text text-anchor="middle" x="610.5" y="-69.6" font-family="Helvetica,sans-Serif" font-size="8.00" fill="#000000">primaryMotherLinePointer</text>
</g>
<!-- Node5 -->
<g id="node5" class="node">
<title>Node5</title>
<g id="a_node5"><a xlink:href="../../de/da2/class_b_o_l_1_1_vectorlike_array.html" target="_top" xlink:title="BOL::VectorlikeArray\l\&lt; std::string \&gt;">
<polygon fill="none" stroke="#000000" points="320,-27 320,-53 411,-53 411,-27 320,-27"/>
<text text-anchor="start" x="328" y="-42.6" font-family="Helvetica,sans-Serif" font-size="8.00" fill="#000000">BOL::VectorlikeArray</text>
<text text-anchor="middle" x="365.5" y="-33.6" font-family="Helvetica,sans-Serif" font-size="8.00" fill="#000000">&lt; std::string &gt;</text>
</a>
</g>
</g>
<!-- Node5&#45;&gt;Node2 -->
<g id="edge10" class="edge">
<title>Node5&#45;&gt;Node2</title>
<path fill="none" stroke="#9a32cd" stroke-dasharray="5,2" d="M421.5655,-33.7702C459.4748,-29.7873 510.6934,-24.8511 556,-22 612.3609,-18.4532 626.5346,-18.889 683,-18 723.4394,-17.3633 733.6034,-16.0323 774,-18 852.6452,-21.8307 943.4272,-31.7555 998.8854,-38.4442"/>
<polygon fill="#9a32cd" stroke="#9a32cd" points="420.8168,-30.3299 411.242,-34.8658 421.5556,-37.2908 420.8168,-30.3299"/>
<text text-anchor="middle" x="728.5" y="-29.6" font-family="Helvetica,sans-Serif" font-size="8.00" fill="#000000"> lineAsNumbersAsStrings</text>
<text text-anchor="middle" x="728.5" y="-20.6" font-family="Helvetica,sans-Serif" font-size="8.00" fill="#000000">eventAsLines</text>
</g>
<!-- Node5&#45;&gt;Node4 -->
<g id="edge5" class="edge">
<title>Node5&#45;&gt;Node4</title>
<path fill="none" stroke="#9a32cd" stroke-dasharray="5,2" d="M421.2018,-40C461.5162,-40 515.7342,-40 555.8126,-40"/>
<polygon fill="#9a32cd" stroke="#9a32cd" points="421.0085,-36.5001 411.0084,-40 421.0084,-43.5001 421.0085,-36.5001"/>
<text text-anchor="middle" x="483.5" y="-42.6" font-family="Helvetica,sans-Serif" font-size="8.00" fill="#000000"> lineParser</text>
</g>
<!-- Node6 -->
<g id="node6" class="node">
<title>Node6</title>
<g id="a_node6"><a xlink:href="../../de/da2/class_b_o_l_1_1_vectorlike_array.html" target="_top" xlink:title="BOL::VectorlikeArray\l\&lt; StoredClass \&gt;">
<polygon fill="none" stroke="#000000" points="142,-64 142,-90 233,-90 233,-64 142,-64"/>
<text text-anchor="start" x="150" y="-79.6" font-family="Helvetica,sans-Serif" font-size="8.00" fill="#000000">BOL::VectorlikeArray</text>
<text text-anchor="middle" x="187.5" y="-70.6" font-family="Helvetica,sans-Serif" font-size="8.00" fill="#000000">&lt; StoredClass &gt;</text>
</a>
</g>
</g>
<!-- Node6&#45;&gt;Node3 -->
<g id="edge8" class="edge">
<title>Node6&#45;&gt;Node3</title>
<path fill="none" stroke="#ffa500" stroke-dasharray="5,2" d="M243.3724,-80.3218C315.5466,-84.4417 445.0907,-91.2566 556,-94 637.5814,-96.018 731.7846,-95.9259 791.9535,-95.5597"/>
<polygon fill="#ffa500" stroke="#ffa500" points="243.3335,-76.8139 233.1491,-79.7343 242.9318,-83.8023 243.3335,-76.8139"/>
<text text-anchor="middle" x="483.5" y="-95.6" font-family="Helvetica,sans-Serif" font-size="8.00" fill="#000000"> &lt; LHPC::LHEF::ParticleLine &gt;</text>
</g>
<!-- Node6&#45;&gt;Node5 -->
<g id="edge6" class="edge">
<title>Node6&#45;&gt;Node5</title>
<path fill="none" stroke="#ffa500" stroke-dasharray="5,2" d="M243.2679,-65.4078C267.8929,-60.2891 296.4813,-54.3466 319.8159,-49.4961"/>
<polygon fill="#ffa500" stroke="#ffa500" points="242.4178,-62.0096 233.3394,-67.4716 243.8425,-68.8631 242.4178,-62.0096"/>
<text text-anchor="middle" x="276.5" y="-64.6" font-family="Helvetica,sans-Serif" font-size="8.00" fill="#000000"> &lt; std::string &gt;</text>
</g>
<!-- Node7 -->
<g id="node7" class="node">
<title>Node7</title>
<polygon fill="none" stroke="#bfbfbf" points="0,-68.5 0,-85.5 60,-85.5 60,-68.5 0,-68.5"/>
<text text-anchor="middle" x="30" y="-75.1" font-family="Helvetica,sans-Serif" font-size="8.00" fill="#000000">StoredClass</text>
</g>
<!-- Node7&#45;&gt;Node6 -->
<g id="edge7" class="edge">
<title>Node7&#45;&gt;Node6</title>
<path fill="none" stroke="#9a32cd" stroke-dasharray="5,2" d="M70.5917,-77C92.3415,-77 119.2125,-77 141.7064,-77"/>
<polygon fill="#9a32cd" stroke="#9a32cd" points="70.3676,-73.5001 60.3676,-77 70.3675,-80.5001 70.3676,-73.5001"/>
<text text-anchor="middle" x="101" y="-79.6" font-family="Helvetica,sans-Serif" font-size="8.00" fill="#000000"> pointerArray</text>
</g>
<!-- Node8 -->
<g id="node8" class="node">
<title>Node8</title>
<g id="a_node8"><a xlink:href="../../dc/d22/class_b_o_l_1_1_ascii_xml_parser.html" target="_top" xlink:title="BOL::AsciiXmlParser">
<polygon fill="none" stroke="#000000" points="1005,-.5 1005,-17.5 1096,-17.5 1096,-.5 1005,-.5"/>
<text text-anchor="middle" x="1050.5" y="-7.1" font-family="Helvetica,sans-Serif" font-size="8.00" fill="#000000">BOL::AsciiXmlParser</text>
</a>
</g>
</g>
<!-- Node8&#45;&gt;Node1 -->
<g id="edge11" class="edge">
<title>Node8&#45;&gt;Node1</title>
<path fill="none" stroke="#9a32cd" stroke-dasharray="5,2" d="M1106.1264,-8.2229C1125.7408,-8.5292 1147.9066,-9.5344 1168,-12 1176.2612,-13.0137 1185.0721,-14.6634 1193.2823,-16.4526"/>
<polygon fill="#9a32cd" stroke="#9a32cd" points="1106.1612,-4.7231 1096.1264,-8.1223 1106.0907,-11.7228 1106.1612,-4.7231"/>
<text text-anchor="middle" x="1144" y="-14.6" font-family="Helvetica,sans-Serif" font-size="8.00" fill="#000000"> fileParser</text>
</g>
</g>
</svg>
