<?xml version="1.0" encoding="UTF-8" standalone="no"?>
<!DOCTYPE svg PUBLIC "-//W3C//DTD SVG 1.1//EN"
 "http://www.w3.org/Graphics/SVG/1.1/DTD/svg11.dtd">
<!-- Generated by graphviz version 2.40.1 (20161225.0304)
 -->
<!-- Title: Hobs_ggVV_H5_WW_lnulnu_CMS13 Pages: 1 -->
<svg width="447pt" height="297pt"
 viewBox="0.00 0.00 447.00 297.00" xmlns="http://www.w3.org/2000/svg" xmlns:xlink="http://www.w3.org/1999/xlink">
<g id="graph0" class="graph" transform="scale(1 1) rotate(0) translate(4 293)">
<title>Hobs_ggVV_H5_WW_lnulnu_CMS13</title>
<!-- Node2 -->
<g id="node1" class="node">
<title>Node2</title>
<polygon fill="#bfbfbf" stroke="#000000" points="0,-.5 0,-26.5 119,-26.5 119,-.5 0,-.5"/>
<text text-anchor="start" x="8" y="-16.1" font-family="Helvetica,sans-Serif" font-size="8.00" fill="#000000">Hobs_ggVV_H5_WW_lnulnu</text>
<text text-anchor="middle" x="59.5" y="-7.1" font-family="Helvetica,sans-Serif" font-size="8.00" fill="#000000">_CMS13</text>
</g>
<!-- Node3 -->
<g id="node2" class="node">
<title>Node3</title>
<g id="a_node2"><a xlink:href="../../dc/d1f/class_th_observable.html" target="_top" xlink:title="A class for a model prediction of an observable. ">
<polygon fill="none" stroke="#000000" points="12,-108.5 12,-125.5 79,-125.5 79,-108.5 12,-108.5"/>
<text text-anchor="middle" x="45.5" y="-115.1" font-family="Helvetica,sans-Serif" font-size="8.00" fill="#000000">ThObservable</text>
</a>
</g>
</g>
<!-- Node3&#45;&gt;Node2 -->
<g id="edge1" class="edge">
<title>Node3&#45;&gt;Node2</title>
<path fill="none" stroke="#191970" d="M48.0574,-98.0934C50.8508,-77.4421 55.2529,-44.8979 57.7029,-26.7859"/>
<polygon fill="#191970" stroke="#191970" points="44.5658,-97.7967 46.6936,-108.1756 51.5026,-98.7351 44.5658,-97.7967"/>
</g>
<!-- Node4 -->
<g id="node3" class="node">
<title>Node4</title>
<g id="a_node3"><a xlink:href="../../dc/dd5/class_standard_model.html" target="_top" xlink:title="A model class for the Standard Model. ">
<polygon fill="none" stroke="#ff0000" points="219,-216.5 219,-233.5 290,-233.5 290,-216.5 219,-216.5"/>
<text text-anchor="middle" x="254.5" y="-223.1" font-family="Helvetica,sans-Serif" font-size="8.00" fill="#000000">StandardModel</text>
</a>
</g>
</g>
<!-- Node4&#45;&gt;Node3 -->
<g id="edge2" class="edge">
<title>Node4&#45;&gt;Node3</title>
<path fill="none" stroke="#9a32cd" stroke-dasharray="5,2" d="M208.8247,-217.0106C159.5437,-207.5473 85.3154,-190.5747 64.5,-171 51.6129,-158.881 47.4612,-137.5082 46.1276,-125.6092"/>
<polygon fill="#9a32cd" stroke="#9a32cd" points="208.4588,-220.5032 218.9338,-218.9142 209.7543,-213.6241 208.4588,-220.5032"/>
<text text-anchor="middle" x="131" y="-191.6" font-family="Helvetica,sans-Serif" font-size="8.00" fill="#000000"> SM</text>
</g>
<!-- Node9 -->
<g id="node6" class="node">
<title>Node9</title>
<g id="a_node6"><a xlink:href="../../dc/df3/class_e_w_s_mcache.html" target="_top" xlink:title="A class for cache variables used in computing radiative corrections to the EW precision observables...">
<polygon fill="none" stroke="#ff0000" points="376,-149 376,-166 439,-166 439,-149 376,-149"/>
<text text-anchor="middle" x="407.5" y="-155.6" font-family="Helvetica,sans-Serif" font-size="8.00" fill="#000000">EWSMcache</text>
</a>
</g>
</g>
<!-- Node4&#45;&gt;Node9 -->
<g id="edge6" class="edge">
<title>Node4&#45;&gt;Node9</title>
<path fill="none" stroke="#9a32cd" stroke-dasharray="5,2" d="M283.146,-212.362C313.6807,-198.8909 361.213,-177.9207 387.7965,-166.1927"/>
<polygon fill="#9a32cd" stroke="#9a32cd" points="281.614,-209.2124 273.8776,-216.4511 284.4395,-215.6168 281.614,-209.2124"/>
<text text-anchor="middle" x="343" y="-191.6" font-family="Helvetica,sans-Serif" font-size="8.00" fill="#000000"> SM</text>
</g>
<!-- Node48 -->
<g id="node8" class="node">
<title>Node48</title>
<g id="a_node8"><a xlink:href="../../d2/df3/class_n_pbase.html" target="_top" xlink:title="The auxiliary base model class for other model classes. ">
<polygon fill="none" stroke="#000000" points="195,-149 195,-166 240,-166 240,-149 195,-149"/>
<text text-anchor="middle" x="217.5" y="-155.6" font-family="Helvetica,sans-Serif" font-size="8.00" fill="#000000">NPbase</text>
</a>
</g>
</g>
<!-- Node4&#45;&gt;Node48 -->
<g id="edge10" class="edge">
<title>Node4&#45;&gt;Node48</title>
<path fill="none" stroke="#191970" d="M224.9868,-210.8791C220.3692,-207.3354 216.2289,-203.0645 213.5,-198 208.1376,-188.048 211.0407,-174.7157 213.9721,-166.116"/>
<polygon fill="#191970" stroke="#191970" points="223.3206,-213.9705 233.6124,-216.4867 227.136,-208.1017 223.3206,-213.9705"/>
</g>
<!-- Node4&#45;&gt;Node48 -->
<g id="edge11" class="edge">
<title>Node4&#45;&gt;Node48</title>
<path fill="none" stroke="#9a32cd" stroke-dasharray="5,2" d="M240.3965,-208.3772C237.9217,-205.0561 235.5017,-201.5071 233.5,-198 227.5789,-187.6259 222.8719,-174.6301 220.1359,-166.2004"/>
<polygon fill="#9a32cd" stroke="#9a32cd" points="237.8586,-210.8087 246.8259,-216.4512 243.3345,-206.4481 237.8586,-210.8087"/>
<text text-anchor="middle" x="248" y="-191.6" font-family="Helvetica,sans-Serif" font-size="8.00" fill="#000000"> trueSM</text>
</g>
<!-- Node5 -->
<g id="node4" class="node">
<title>Node5</title>
<g id="a_node4"><a xlink:href="../../dd/dfa/class_q_c_d.html" target="_top" xlink:title="A class for parameters related to QCD, hadrons and quarks. ">
<polygon fill="none" stroke="#ff0000" points="237.5,-271.5 237.5,-288.5 271.5,-288.5 271.5,-271.5 237.5,-271.5"/>
<text text-anchor="middle" x="254.5" y="-278.1" font-family="Helvetica,sans-Serif" font-size="8.00" fill="#000000">QCD</text>
</a>
</g>
</g>
<!-- Node5&#45;&gt;Node4 -->
<g id="edge3" class="edge">
<title>Node5&#45;&gt;Node4</title>
<path fill="none" stroke="#191970" d="M254.5,-261.1166C254.5,-251.8173 254.5,-241.0557 254.5,-233.7149"/>
<polygon fill="#191970" stroke="#191970" points="251.0001,-261.4062 254.5,-271.4063 258.0001,-261.4063 251.0001,-261.4062"/>
</g>
<!-- Node8 -->
<g id="node5" class="node">
<title>Node8</title>
<g id="a_node5"><a xlink:href="../../db/d32/class_e_w_s_m_two_fermions_l_e_p2.html" target="_top" xlink:title="A class for the form factors , &#160;and &#160;in the processes &#160;at LEP&#45;II. ">
<polygon fill="none" stroke="#ff0000" points="263,-72.5 263,-89.5 372,-89.5 372,-72.5 263,-72.5"/>
<text text-anchor="middle" x="317.5" y="-79.1" font-family="Helvetica,sans-Serif" font-size="8.00" fill="#000000">EWSMTwoFermionsLEP2</text>
</a>
</g>
</g>
<!-- Node8&#45;&gt;Node4 -->
<g id="edge4" class="edge">
<title>Node8&#45;&gt;Node4</title>
<path fill="none" stroke="#9a32cd" stroke-dasharray="5,2" d="M308.2739,-98.7744C301.8934,-111.2955 293.3528,-128.5203 286.5,-144 274.9932,-169.9927 263.1292,-201.4925 257.6383,-216.3928"/>
<polygon fill="#9a32cd" stroke="#9a32cd" points="311.3951,-100.3582 312.8544,-89.8644 305.1695,-97.1578 311.3951,-100.3582"/>
<text text-anchor="middle" x="327" y="-155.6" font-family="Helvetica,sans-Serif" font-size="8.00" fill="#000000"> myTwoFermionsLEP2</text>
</g>
<!-- Node9&#45;&gt;Node4 -->
<g id="edge7" class="edge">
<title>Node9&#45;&gt;Node4</title>
<path fill="none" stroke="#9a32cd" stroke-dasharray="5,2" d="M390.701,-173.0638C380.8051,-181.5023 367.6744,-191.5038 354.5,-198 334.3392,-207.9411 310.0248,-214.6114 290.4198,-218.8349"/>
<polygon fill="#9a32cd" stroke="#9a32cd" points="393.3138,-175.4255 398.4846,-166.1781 388.6757,-170.1826 393.3138,-175.4255"/>
<text text-anchor="middle" x="398.5" y="-191.6" font-family="Helvetica,sans-Serif" font-size="8.00" fill="#000000"> myEWSMcache</text>
</g>
<!-- Node9&#45;&gt;Node8 -->
<g id="edge5" class="edge">
<title>Node9&#45;&gt;Node8</title>
<path fill="none" stroke="#9a32cd" stroke-dasharray="5,2" d="M389.4162,-142.1288C370.8726,-126.3667 342.6883,-102.4101 327.7037,-89.6732"/>
<polygon fill="#9a32cd" stroke="#9a32cd" points="387.2897,-144.9148 397.1759,-148.7245 391.8232,-139.5812 387.2897,-144.9148"/>
<text text-anchor="middle" x="379.5" y="-115.1" font-family="Helvetica,sans-Serif" font-size="8.00" fill="#000000"> cache</text>
</g>
<!-- Node47 -->
<g id="node7" class="node">
<title>Node47</title>
<g id="a_node7"><a xlink:href="../../db/d2b/class_georgi_machacek.html" target="_top" xlink:title="A base class for the Georgi&#45;Machacek model. ">
<polygon fill="none" stroke="#000000" points="89,-72.5 89,-89.5 166,-89.5 166,-72.5 89,-72.5"/>
<text text-anchor="middle" x="127.5" y="-79.1" font-family="Helvetica,sans-Serif" font-size="8.00" fill="#000000">GeorgiMachacek</text>
</a>
</g>
</g>
<!-- Node47&#45;&gt;Node2 -->
<g id="edge8" class="edge">
<title>Node47&#45;&gt;Node2</title>
<path fill="none" stroke="#9a32cd" stroke-dasharray="5,2" d="M106.6256,-66.1566C101.808,-62.3933 96.8299,-58.2161 92.5,-54 83.7924,-45.5213 75.159,-34.8223 68.9079,-26.5504"/>
<polygon fill="#9a32cd" stroke="#9a32cd" points="104.8501,-69.2001 114.9495,-72.4023 109.0514,-63.601 104.8501,-69.2001"/>
<text text-anchor="middle" x="105.5" y="-47.6" font-family="Helvetica,sans-Serif" font-size="8.00" fill="#000000"> myGM</text>
</g>
<!-- Node51 -->
<g id="node10" class="node">
<title>Node51</title>
<g id="a_node10"><a xlink:href="../../d7/db7/class_g_mcache.html" target="_top" xlink:title="A class for the caching of GeorgiMachacek objects. ">
<polygon fill="none" stroke="#ff0000" points="144,-5 144,-22 195,-22 195,-5 144,-5"/>
<text text-anchor="middle" x="169.5" y="-11.6" font-family="Helvetica,sans-Serif" font-size="8.00" fill="#000000">GMcache</text>
</a>
</g>
</g>
<!-- Node47&#45;&gt;Node51 -->
<g id="edge14" class="edge">
<title>Node47&#45;&gt;Node51</title>
<path fill="none" stroke="#9a32cd" stroke-dasharray="5,2" d="M122.1967,-62.695C121.4449,-56.7712 121.7123,-50.3542 124.5,-45 129.7848,-34.8497 140.0028,-27.294 149.3679,-22.1306"/>
<polygon fill="#9a32cd" stroke="#9a32cd" points="118.7814,-63.4611 124.3265,-72.4889 125.6215,-61.9735 118.7814,-63.4611"/>
<text text-anchor="middle" x="137.5" y="-47.6" font-family="Helvetica,sans-Serif" font-size="8.00" fill="#000000"> myGM</text>
</g>
<!-- Node48&#45;&gt;Node47 -->
<g id="edge9" class="edge">
<title>Node48&#45;&gt;Node47</title>
<path fill="none" stroke="#191970" d="M199.4162,-142.1288C180.8726,-126.3667 152.6883,-102.4101 137.7037,-89.6732"/>
<polygon fill="#191970" stroke="#191970" points="197.2897,-144.9148 207.1759,-148.7245 201.8232,-139.5812 197.2897,-144.9148"/>
</g>
<!-- Node49 -->
<g id="node9" class="node">
<title>Node49</title>
<g id="a_node9"><a xlink:href="../../d5/d76/class_matching.html" target="_top" xlink:title="Matching\&lt; GMMatching,\l GeorgiMachacek \&gt;">
<polygon fill="none" stroke="#ff0000" points="74,-144.5 74,-170.5 177,-170.5 177,-144.5 74,-144.5"/>
<text text-anchor="start" x="82" y="-160.1" font-family="Helvetica,sans-Serif" font-size="8.00" fill="#000000">Matching&lt; GMMatching,</text>
<text text-anchor="middle" x="125.5" y="-151.1" font-family="Helvetica,sans-Serif" font-size="8.00" fill="#000000"> GeorgiMachacek &gt;</text>
</a>
</g>
</g>
<!-- Node49&#45;&gt;Node47 -->
<g id="edge12" class="edge">
<title>Node49&#45;&gt;Node47</title>
<path fill="none" stroke="#9a32cd" stroke-dasharray="5,2" d="M126.1121,-134.0882C126.5027,-119.1453 126.9869,-100.6269 127.2679,-89.8783"/>
<polygon fill="#9a32cd" stroke="#9a32cd" points="122.611,-134.0866 125.8484,-144.1747 129.6086,-134.2696 122.611,-134.0866"/>
<text text-anchor="middle" x="138.5" y="-115.1" font-family="Helvetica,sans-Serif" font-size="8.00" fill="#000000"> GMM</text>
</g>
<!-- Node51&#45;&gt;Node47 -->
<g id="edge13" class="edge">
<title>Node51&#45;&gt;Node47</title>
<path fill="none" stroke="#9a32cd" stroke-dasharray="5,2" d="M164.6048,-31.7231C162.1917,-38.9859 158.85,-47.2142 154.5,-54 150.0638,-60.9203 143.5905,-67.4713 138.0943,-72.3871"/>
<polygon fill="#9a32cd" stroke="#9a32cd" points="167.9846,-32.6367 167.4853,-22.0536 161.2759,-30.6382 167.9846,-32.6367"/>
<text text-anchor="middle" x="183.5" y="-47.6" font-family="Helvetica,sans-Serif" font-size="8.00" fill="#000000"> myGMcache</text>
</g>
</g>
</svg>
