<?xml version="1.0" encoding="UTF-8" standalone="no"?>
<!DOCTYPE svg PUBLIC "-//W3C//DTD SVG 1.1//EN"
 "http://www.w3.org/Graphics/SVG/1.1/DTD/svg11.dtd">
<!-- Generated by graphviz version 2.40.1 (20161225.0304)
 -->
<!-- Title: lambda4 Pages: 1 -->
<svg width="378pt" height="359pt"
 viewBox="0.00 0.00 378.04 359.00" xmlns="http://www.w3.org/2000/svg" xmlns:xlink="http://www.w3.org/1999/xlink">
<g id="graph0" class="graph" transform="scale(1 1) rotate(0) translate(4 355)">
<title>lambda4</title>
<!-- Node2 -->
<g id="node1" class="node">
<title>Node2</title>
<polygon fill="#bfbfbf" stroke="#000000" points="56.5368,-135.5 56.5368,-152.5 103.5368,-152.5 103.5368,-135.5 56.5368,-135.5"/>
<text text-anchor="middle" x="80.0368" y="-142.1" font-family="Helvetica,sans-Serif" font-size="8.00" fill="#000000">lambda4</text>
</g>
<!-- Node48 -->
<g id="node9" class="node">
<title>Node48</title>
<g id="a_node9"><a xlink:href="../../d5/df2/class_t_h_d_mcache.html" target="_top" xlink:title="A class for the caching of some THDM objects. ">
<polygon fill="none" stroke="#ff0000" points="49.5368,-68 49.5368,-85 110.5368,-85 110.5368,-68 49.5368,-68"/>
<text text-anchor="middle" x="80.0368" y="-74.6" font-family="Helvetica,sans-Serif" font-size="8.00" fill="#000000">THDMcache</text>
</a>
</g>
</g>
<!-- Node2&#45;&gt;Node48 -->
<g id="edge12" class="edge">
<title>Node2&#45;&gt;Node48</title>
<path fill="none" stroke="#9a32cd" stroke-dasharray="5,2" d="M80.0368,-125.1784C80.0368,-112.088 80.0368,-95.2453 80.0368,-85.1927"/>
<polygon fill="#9a32cd" stroke="#9a32cd" points="76.5369,-125.451 80.0368,-135.4511 83.5369,-125.4511 76.5369,-125.451"/>
<text text-anchor="middle" x="102.0368" y="-110.6" font-family="Helvetica,sans-Serif" font-size="8.00" fill="#000000"> mylambda4</text>
</g>
<!-- Node3 -->
<g id="node2" class="node">
<title>Node3</title>
<g id="a_node2"><a xlink:href="../../dc/d1f/class_th_observable.html" target="_top" xlink:title="A class for a model prediction of an observable. ">
<polygon fill="none" stroke="#000000" points="58.5368,-198.5 58.5368,-215.5 125.5368,-215.5 125.5368,-198.5 58.5368,-198.5"/>
<text text-anchor="middle" x="92.0368" y="-205.1" font-family="Helvetica,sans-Serif" font-size="8.00" fill="#000000">ThObservable</text>
</a>
</g>
</g>
<!-- Node3&#45;&gt;Node2 -->
<g id="edge1" class="edge">
<title>Node3&#45;&gt;Node2</title>
<path fill="none" stroke="#191970" d="M88.4361,-188.096C86.1965,-176.3381 83.4229,-161.777 81.6912,-152.6855"/>
<polygon fill="#191970" stroke="#191970" points="85.0589,-189.0717 90.3683,-198.2401 91.9353,-187.7618 85.0589,-189.0717"/>
</g>
<!-- Node4 -->
<g id="node3" class="node">
<title>Node4</title>
<g id="a_node3"><a xlink:href="../../dc/dd5/class_standard_model.html" target="_top" xlink:title="A model class for the Standard Model. ">
<polygon fill="none" stroke="#ff0000" points="155.5368,-261.5 155.5368,-278.5 226.5368,-278.5 226.5368,-261.5 155.5368,-261.5"/>
<text text-anchor="middle" x="191.0368" y="-268.1" font-family="Helvetica,sans-Serif" font-size="8.00" fill="#000000">StandardModel</text>
</a>
</g>
</g>
<!-- Node4&#45;&gt;Node3 -->
<g id="edge2" class="edge">
<title>Node4&#45;&gt;Node3</title>
<path fill="none" stroke="#9a32cd" stroke-dasharray="5,2" d="M156.4469,-257.5519C147.1886,-253.5318 137.4289,-248.6336 129.0368,-243 117.4285,-235.2073 106.2283,-223.5438 99.2495,-215.6207"/>
<polygon fill="#9a32cd" stroke="#9a32cd" points="155.2558,-260.8465 165.8352,-261.4175 157.921,-254.3737 155.2558,-260.8465"/>
<text text-anchor="middle" x="136.5368" y="-236.6" font-family="Helvetica,sans-Serif" font-size="8.00" fill="#000000"> SM</text>
</g>
<!-- Node9 -->
<g id="node6" class="node">
<title>Node9</title>
<g id="a_node6"><a xlink:href="../../dc/df3/class_e_w_s_mcache.html" target="_top" xlink:title="A class for cache variables used in computing radiative corrections to the EW precision observables...">
<polygon fill="none" stroke="#ff0000" points="204.5368,-198.5 204.5368,-215.5 267.5368,-215.5 267.5368,-198.5 204.5368,-198.5"/>
<text text-anchor="middle" x="236.0368" y="-205.1" font-family="Helvetica,sans-Serif" font-size="8.00" fill="#000000">EWSMcache</text>
</a>
</g>
</g>
<!-- Node4&#45;&gt;Node9 -->
<g id="edge6" class="edge">
<title>Node4&#45;&gt;Node9</title>
<path fill="none" stroke="#9a32cd" stroke-dasharray="5,2" d="M235.7009,-257.6904C242.1703,-253.9959 247.9971,-249.2058 252.0368,-243 257.7084,-234.2873 251.0043,-223.2296 244.6213,-215.683"/>
<polygon fill="#9a32cd" stroke="#9a32cd" points="234.0791,-254.5867 226.5883,-262.0793 237.1166,-260.8933 234.0791,-254.5867"/>
<text text-anchor="middle" x="261.5368" y="-236.6" font-family="Helvetica,sans-Serif" font-size="8.00" fill="#000000"> SM</text>
</g>
<!-- Node47 -->
<g id="node8" class="node">
<title>Node47</title>
<g id="a_node8"><a xlink:href="../../d0/d52/class_t_h_d_m.html" target="_top" xlink:title="A base class for &#160;symmetric Two&#45;Higgs&#45;Doublet models. ">
<polygon fill="none" stroke="#000000" points="65.0368,-.5 65.0368,-17.5 105.0368,-17.5 105.0368,-.5 65.0368,-.5"/>
<text text-anchor="middle" x="85.0368" y="-7.1" font-family="Helvetica,sans-Serif" font-size="8.00" fill="#000000">THDM</text>
</a>
</g>
</g>
<!-- Node4&#45;&gt;Node47 -->
<g id="edge10" class="edge">
<title>Node4&#45;&gt;Node47</title>
<path fill="none" stroke="#191970" d="M176.5926,-253.2157C167.7177,-241.1764 158.0368,-224.1201 158.0368,-207 158.0368,-207 158.0368,-207 158.0368,-76.5 158.0368,-57.4549 156.8396,-50.0999 144.0368,-36 133.814,-24.7414 117.9657,-17.8486 105.2679,-13.848"/>
<polygon fill="#191970" stroke="#191970" points="174.0944,-255.6987 183.0485,-261.3623 179.5806,-251.351 174.0944,-255.6987"/>
</g>
<!-- Node5 -->
<g id="node4" class="node">
<title>Node5</title>
<g id="a_node4"><a xlink:href="../../dd/dfa/class_q_c_d.html" target="_top" xlink:title="A class for parameters related to QCD, hadrons and quarks. ">
<polygon fill="none" stroke="#ff0000" points="120.0368,-329 120.0368,-346 154.0368,-346 154.0368,-329 120.0368,-329"/>
<text text-anchor="middle" x="137.0368" y="-335.6" font-family="Helvetica,sans-Serif" font-size="8.00" fill="#000000">QCD</text>
</a>
</g>
</g>
<!-- Node5&#45;&gt;Node4 -->
<g id="edge3" class="edge">
<title>Node5&#45;&gt;Node4</title>
<path fill="none" stroke="#191970" d="M150.225,-321.0147C160.9132,-307.6545 175.5532,-289.3545 184.0827,-278.6927"/>
<polygon fill="#191970" stroke="#191970" points="147.3899,-318.9559 143.876,-328.9511 152.856,-323.3288 147.3899,-318.9559"/>
</g>
<!-- Node8 -->
<g id="node5" class="node">
<title>Node8</title>
<g id="a_node5"><a xlink:href="../../db/d32/class_e_w_s_m_two_fermions_l_e_p2.html" target="_top" xlink:title="A class for the form factors , &#160;and &#160;in the processes &#160;at LEP&#45;II. ">
<polygon fill="none" stroke="#ff0000" points="222.5368,-135.5 222.5368,-152.5 331.5368,-152.5 331.5368,-135.5 222.5368,-135.5"/>
<text text-anchor="middle" x="277.0368" y="-142.1" font-family="Helvetica,sans-Serif" font-size="8.00" fill="#000000">EWSMTwoFermionsLEP2</text>
</a>
</g>
</g>
<!-- Node8&#45;&gt;Node4 -->
<g id="edge4" class="edge">
<title>Node8&#45;&gt;Node4</title>
<path fill="none" stroke="#9a32cd" stroke-dasharray="5,2" d="M284.0364,-162.3936C284.8648,-165.2383 285.5778,-168.1712 286.0368,-171 291.2455,-203.0975 294.6757,-218.7277 273.0368,-243 266.6037,-250.216 245.8324,-257.0155 226.8066,-261.986"/>
<polygon fill="#9a32cd" stroke="#9a32cd" points="287.3127,-161.1567 280.777,-152.8178 280.686,-163.4123 287.3127,-161.1567"/>
<text text-anchor="middle" x="329.5368" y="-205.1" font-family="Helvetica,sans-Serif" font-size="8.00" fill="#000000"> myTwoFermionsLEP2</text>
</g>
<!-- Node9&#45;&gt;Node4 -->
<g id="edge7" class="edge">
<title>Node9&#45;&gt;Node4</title>
<path fill="none" stroke="#9a32cd" stroke-dasharray="5,2" d="M200.9175,-220.7519C195.7707,-224.2943 191.16,-228.6598 188.0368,-234 183.1608,-242.3372 185.2369,-253.6713 187.6654,-261.3796"/>
<polygon fill="#9a32cd" stroke="#9a32cd" points="203.0173,-223.5805 209.9174,-215.5405 199.5096,-217.5227 203.0173,-223.5805"/>
<text text-anchor="middle" x="218.0368" y="-236.6" font-family="Helvetica,sans-Serif" font-size="8.00" fill="#000000"> myEWSMcache</text>
</g>
<!-- Node9&#45;&gt;Node8 -->
<g id="edge5" class="edge">
<title>Node9&#45;&gt;Node8</title>
<path fill="none" stroke="#9a32cd" stroke-dasharray="5,2" d="M247.4025,-189.5357C255.2038,-177.5483 265.2237,-162.1519 271.3844,-152.6855"/>
<polygon fill="#9a32cd" stroke="#9a32cd" points="244.2588,-187.9496 241.7377,-198.2401 250.1258,-191.7678 244.2588,-187.9496"/>
<text text-anchor="middle" x="270.0368" y="-173.6" font-family="Helvetica,sans-Serif" font-size="8.00" fill="#000000"> cache</text>
</g>
<!-- Node15 -->
<g id="node7" class="node">
<title>Node15</title>
<g id="a_node7"><a xlink:href="../../d5/d76/class_matching.html" target="_top" xlink:title="Matching\&lt; StandardModelMatching,\l StandardModel \&gt;">
<polygon fill="none" stroke="#ff0000" points="172.5368,-324.5 172.5368,-350.5 317.5368,-350.5 317.5368,-324.5 172.5368,-324.5"/>
<text text-anchor="start" x="180.5368" y="-340.1" font-family="Helvetica,sans-Serif" font-size="8.00" fill="#000000">Matching&lt; StandardModelMatching,</text>
<text text-anchor="middle" x="245.0368" y="-331.1" font-family="Helvetica,sans-Serif" font-size="8.00" fill="#000000"> StandardModel &gt;</text>
</a>
</g>
</g>
<!-- Node15&#45;&gt;Node4 -->
<g id="edge8" class="edge">
<title>Node15&#45;&gt;Node4</title>
<path fill="none" stroke="#9a32cd" stroke-dasharray="5,2" d="M228.3265,-316.612C218.1214,-303.8557 205.6102,-288.2167 197.9858,-278.6863"/>
<polygon fill="#9a32cd" stroke="#9a32cd" points="225.6451,-318.8631 234.6251,-324.4853 231.1111,-314.4902 225.6451,-318.8631"/>
<text text-anchor="middle" x="229.5368" y="-299.6" font-family="Helvetica,sans-Serif" font-size="8.00" fill="#000000"> SMM</text>
</g>
<!-- Node47&#45;&gt;Node2 -->
<g id="edge9" class="edge">
<title>Node47&#45;&gt;Node2</title>
<path fill="none" stroke="#9a32cd" stroke-dasharray="5,2" d="M55.6202,-19.417C36.7665,-27.8877 14.0212,-41.9305 4.0368,-63 -1.1019,-73.844 -1.4674,-79.3368 4.0368,-90 15.396,-112.0056 40.3241,-126.9961 58.5446,-135.4964"/>
<polygon fill="#9a32cd" stroke="#9a32cd" points="57.1557,-22.5688 65.0365,-15.4875 54.4599,-16.1087 57.1557,-22.5688"/>
<text text-anchor="middle" x="22.0368" y="-74.6" font-family="Helvetica,sans-Serif" font-size="8.00" fill="#000000"> myTHDM</text>
</g>
<!-- Node47&#45;&gt;Node48 -->
<g id="edge13" class="edge">
<title>Node47&#45;&gt;Node48</title>
<path fill="none" stroke="#9a32cd" stroke-dasharray="5,2" d="M55.9912,-21.5596C50.4018,-25.36 45.2837,-30.1274 42.0368,-36 35.0391,-48.6568 49.2881,-60.386 62.2878,-67.9293"/>
<polygon fill="#9a32cd" stroke="#9a32cd" points="58.0623,-24.4048 64.9613,-16.364 54.5538,-18.3475 58.0623,-24.4048"/>
<text text-anchor="middle" x="60.0368" y="-38.6" font-family="Helvetica,sans-Serif" font-size="8.00" fill="#000000"> myTHDM</text>
</g>
<!-- Node48&#45;&gt;Node47 -->
<g id="edge11" class="edge">
<title>Node48&#45;&gt;Node47</title>
<path fill="none" stroke="#9a32cd" stroke-dasharray="5,2" d="M81.431,-57.6784C82.4007,-44.588 83.6483,-27.7453 84.3929,-17.6927"/>
<polygon fill="#9a32cd" stroke="#9a32cd" points="77.9185,-57.7198 80.6701,-67.9511 84.8993,-58.237 77.9185,-57.7198"/>
<text text-anchor="middle" x="111.0368" y="-38.6" font-family="Helvetica,sans-Serif" font-size="8.00" fill="#000000"> myTHDMcache</text>
</g>
<!-- Node57 -->
<g id="node10" class="node">
<title>Node57</title>
<g id="a_node10"><a xlink:href="../../d5/d76/class_matching.html" target="_top" xlink:title="Matching\&lt; THDMMatching,\l THDM \&gt;">
<polygon fill="none" stroke="#ff0000" points="186.0368,-63.5 186.0368,-89.5 300.0368,-89.5 300.0368,-63.5 186.0368,-63.5"/>
<text text-anchor="start" x="194.0368" y="-79.1" font-family="Helvetica,sans-Serif" font-size="8.00" fill="#000000">Matching&lt; THDMMatching,</text>
<text text-anchor="middle" x="243.0368" y="-70.1" font-family="Helvetica,sans-Serif" font-size="8.00" fill="#000000"> THDM &gt;</text>
</a>
</g>
</g>
<!-- Node57&#45;&gt;Node47 -->
<g id="edge14" class="edge">
<title>Node57&#45;&gt;Node47</title>
<path fill="none" stroke="#9a32cd" stroke-dasharray="5,2" d="M214.1524,-58.1229C201.544,-50.6059 186.3866,-42.231 172.0368,-36 149.8422,-26.3627 123.1013,-18.6007 105.1761,-13.9149"/>
<polygon fill="#9a32cd" stroke="#9a32cd" points="212.4718,-61.1972 222.8347,-63.4018 216.1084,-55.2159 212.4718,-61.1972"/>
<text text-anchor="middle" x="206.0368" y="-38.6" font-family="Helvetica,sans-Serif" font-size="8.00" fill="#000000"> THDMM</text>
</g>
</g>
</svg>
