<?xml version="1.0" encoding="UTF-8" standalone="no"?>
<!DOCTYPE svg PUBLIC "-//W3C//DTD SVG 1.1//EN"
 "http://www.w3.org/Graphics/SVG/1.1/DTD/svg11.dtd">
<!-- Generated by graphviz version 2.40.1 (20161225.0304)
 -->
<!-- Title: heavyHiggs.h Pages: 1 -->
<svg width="190pt" height="134pt"
 viewBox="0.00 0.00 190.00 134.00" xmlns="http://www.w3.org/2000/svg" xmlns:xlink="http://www.w3.org/1999/xlink">
<g id="graph0" class="graph" transform="scale(1 1) rotate(0) translate(4 130)">
<title>heavyHiggs.h</title>
<!-- Node58 -->
<g id="node1" class="node">
<title>Node58</title>
<polygon fill="#bfbfbf" stroke="#000000" points="54,-108.5 54,-125.5 119,-125.5 119,-108.5 54,-108.5"/>
<text text-anchor="middle" x="86.5" y="-115.1" font-family="Helvetica,sans-Serif" font-size="8.00" fill="#000000">heavyHiggs.h</text>
</g>
<!-- Node59 -->
<g id="node2" class="node">
<title>Node59</title>
<g id="a_node2"><a xlink:href="../../d7/dee/heavy_higgs_8cpp.html" target="_top" xlink:title="heavyHiggs.cpp">
<polygon fill="none" stroke="#000000" points="0,-54.5 0,-71.5 73,-71.5 73,-54.5 0,-54.5"/>
<text text-anchor="middle" x="36.5" y="-61.1" font-family="Helvetica,sans-Serif" font-size="8.00" fill="#000000">heavyHiggs.cpp</text>
</a>
</g>
</g>
<!-- Node58&#45;&gt;Node59 -->
<g id="edge1" class="edge">
<title>Node58&#45;&gt;Node59</title>
<path fill="none" stroke="#191970" d="M71.4237,-100.7175C62.6109,-91.1997 51.8341,-79.5608 44.6028,-71.7511"/>
<polygon fill="#191970" stroke="#191970" points="68.8812,-103.1233 78.2435,-108.083 74.0176,-98.3674 68.8812,-103.1233"/>
</g>
<!-- Node60 -->
<g id="node3" class="node">
<title>Node60</title>
<g id="a_node3"><a xlink:href="../../d0/d3a/_t_h_d_m_observables_8h.html" target="_top" xlink:title="THDMObservables.h">
<polygon fill="none" stroke="#000000" points="91,-54.5 91,-71.5 182,-71.5 182,-54.5 91,-54.5"/>
<text text-anchor="middle" x="136.5" y="-61.1" font-family="Helvetica,sans-Serif" font-size="8.00" fill="#000000">THDMObservables.h</text>
</a>
</g>
</g>
<!-- Node58&#45;&gt;Node60 -->
<g id="edge2" class="edge">
<title>Node58&#45;&gt;Node60</title>
<path fill="none" stroke="#191970" d="M101.5763,-100.7175C110.3891,-91.1997 121.1659,-79.5608 128.3972,-71.7511"/>
<polygon fill="#191970" stroke="#191970" points="98.9824,-98.3674 94.7565,-108.083 104.1188,-103.1233 98.9824,-98.3674"/>
</g>
<!-- Node61 -->
<g id="node4" class="node">
<title>Node61</title>
<g id="a_node4"><a xlink:href="../../d1/de2/_th_obs_factory_8cpp.html" target="_top" xlink:title="ThObsFactory.cpp">
<polygon fill="none" stroke="#000000" points="95.5,-.5 95.5,-17.5 177.5,-17.5 177.5,-.5 95.5,-.5"/>
<text text-anchor="middle" x="136.5" y="-7.1" font-family="Helvetica,sans-Serif" font-size="8.00" fill="#000000">ThObsFactory.cpp</text>
</a>
</g>
</g>
<!-- Node60&#45;&gt;Node61 -->
<g id="edge3" class="edge">
<title>Node60&#45;&gt;Node61</title>
<path fill="none" stroke="#191970" d="M136.5,-43.8045C136.5,-34.9102 136.5,-24.7798 136.5,-17.7511"/>
<polygon fill="#191970" stroke="#191970" points="133.0001,-44.083 136.5,-54.083 140.0001,-44.083 133.0001,-44.083"/>
</g>
</g>
</svg>
