<?xml version="1.0" encoding="UTF-8" standalone="no"?>
<!DOCTYPE svg PUBLIC "-//W3C//DTD SVG 1.1//EN"
 "http://www.w3.org/Graphics/SVG/1.1/DTD/svg11.dtd">
<!-- Generated by graphviz version 2.40.1 (20161225.0304)
 -->
<!-- Title: GMcache.cpp Pages: 1 -->
<svg width="386pt" height="242pt"
 viewBox="0.00 0.00 385.64 242.00" xmlns="http://www.w3.org/2000/svg" xmlns:xlink="http://www.w3.org/1999/xlink">
<g id="graph0" class="graph" transform="scale(1 1) rotate(0) translate(4 238)">
<title>GMcache.cpp</title>
<!-- Node0 -->
<g id="node1" class="node">
<title>Node0</title>
<polygon fill="#bfbfbf" stroke="#000000" points="205.6377,-216.5 205.6377,-233.5 271.6377,-233.5 271.6377,-216.5 205.6377,-216.5"/>
<text text-anchor="middle" x="238.6377" y="-223.1" font-family="Helvetica,sans-Serif" font-size="8.00" fill="#000000">GMcache.cpp</text>
</g>
<!-- Node1 -->
<g id="node2" class="node">
<title>Node1</title>
<g id="a_node2"><a xlink:href="../../d9/d72/gslpp_8h.html" target="_top" xlink:title="gslpp.h">
<polygon fill="none" stroke="#ff0000" points="81.6377,-162.5 81.6377,-179.5 123.6377,-179.5 123.6377,-162.5 81.6377,-162.5"/>
<text text-anchor="middle" x="102.6377" y="-169.1" font-family="Helvetica,sans-Serif" font-size="8.00" fill="#000000">gslpp.h</text>
</a>
</g>
</g>
<!-- Node0&#45;&gt;Node1 -->
<g id="edge1" class="edge">
<title>Node0&#45;&gt;Node1</title>
<path fill="none" stroke="#191970" d="M217.0881,-216.4435C194.4745,-207.4646 158.7325,-193.2729 133.209,-183.1386"/>
<polygon fill="#191970" stroke="#191970" points="134.2254,-179.7764 123.6396,-179.339 131.6422,-186.2823 134.2254,-179.7764"/>
</g>
<!-- Node17 -->
<g id="node7" class="node">
<title>Node17</title>
<g id="a_node7"><a xlink:href="../../d2/d68/_g_mcache_8h.html" target="_top" xlink:title="GMcache.h">
<polygon fill="none" stroke="#ff0000" points="142.1377,-162.5 142.1377,-179.5 199.1377,-179.5 199.1377,-162.5 142.1377,-162.5"/>
<text text-anchor="middle" x="170.6377" y="-169.1" font-family="Helvetica,sans-Serif" font-size="8.00" fill="#000000">GMcache.h</text>
</a>
</g>
</g>
<!-- Node0&#45;&gt;Node17 -->
<g id="edge11" class="edge">
<title>Node0&#45;&gt;Node17</title>
<path fill="none" stroke="#191970" d="M227.7123,-216.324C217.4631,-208.1849 201.9171,-195.8395 189.6367,-186.0874"/>
<polygon fill="#191970" stroke="#191970" points="191.7696,-183.3119 181.7619,-179.8339 187.4164,-188.7937 191.7696,-183.3119"/>
</g>
<!-- Node53 -->
<g id="node8" class="node">
<title>Node53</title>
<polygon fill="none" stroke="#bfbfbf" points="217.1377,-162.5 217.1377,-179.5 260.1377,-179.5 260.1377,-162.5 217.1377,-162.5"/>
<text text-anchor="middle" x="238.6377" y="-169.1" font-family="Helvetica,sans-Serif" font-size="8.00" fill="#000000">fstream</text>
</g>
<!-- Node0&#45;&gt;Node53 -->
<g id="edge12" class="edge">
<title>Node0&#45;&gt;Node53</title>
<path fill="none" stroke="#191970" d="M238.6377,-216.083C238.6377,-209.0059 238.6377,-198.8611 238.6377,-189.9865"/>
<polygon fill="#191970" stroke="#191970" points="242.1378,-189.751 238.6377,-179.7511 235.1378,-189.7511 242.1378,-189.751"/>
</g>
<!-- Node25 -->
<g id="node9" class="node">
<title>Node25</title>
<polygon fill="none" stroke="#bfbfbf" points="278.1377,-162.5 278.1377,-179.5 323.1377,-179.5 323.1377,-162.5 278.1377,-162.5"/>
<text text-anchor="middle" x="300.6377" y="-169.1" font-family="Helvetica,sans-Serif" font-size="8.00" fill="#000000">sstream</text>
</g>
<!-- Node0&#45;&gt;Node25 -->
<g id="edge13" class="edge">
<title>Node0&#45;&gt;Node25</title>
<path fill="none" stroke="#191970" d="M248.5991,-216.324C257.7643,-208.3414 271.5749,-196.3128 282.6659,-186.6529"/>
<polygon fill="#191970" stroke="#191970" points="285.253,-189.041 290.4951,-179.8339 280.6555,-183.7624 285.253,-189.041"/>
</g>
<!-- Node36 -->
<g id="node10" class="node">
<title>Node36</title>
<polygon fill="none" stroke="#bfbfbf" points="341.6377,-162.5 341.6377,-179.5 377.6377,-179.5 377.6377,-162.5 341.6377,-162.5"/>
<text text-anchor="middle" x="359.6377" y="-169.1" font-family="Helvetica,sans-Serif" font-size="8.00" fill="#000000">string</text>
</g>
<!-- Node0&#45;&gt;Node36 -->
<g id="edge14" class="edge">
<title>Node0&#45;&gt;Node36</title>
<path fill="none" stroke="#191970" d="M257.8105,-216.4435C277.7791,-207.532 309.2533,-193.4856 331.9255,-183.3674"/>
<polygon fill="#191970" stroke="#191970" points="333.6412,-186.4346 341.3467,-179.1629 330.7884,-180.0422 333.6412,-186.4346"/>
</g>
<!-- Node2 -->
<g id="node3" class="node">
<title>Node2</title>
<g id="a_node3"><a xlink:href="../../d1/dc2/gslpp__complex_8h.html" target="_top" xlink:title="gslpp_complex.h">
<polygon fill="none" stroke="#ff0000" points="64.1377,-.5 64.1377,-17.5 141.1377,-17.5 141.1377,-.5 64.1377,-.5"/>
<text text-anchor="middle" x="102.6377" y="-7.1" font-family="Helvetica,sans-Serif" font-size="8.00" fill="#000000">gslpp_complex.h</text>
</a>
</g>
</g>
<!-- Node1&#45;&gt;Node2 -->
<g id="edge2" class="edge">
<title>Node1&#45;&gt;Node2</title>
<path fill="none" stroke="#191970" d="M85.7897,-162.4653C51.4193,-143.8845 -21.271,-97.905 6.6377,-54 17.3515,-37.1455 36.2282,-26.4945 54.4239,-19.8161"/>
<polygon fill="#191970" stroke="#191970" points="55.7358,-23.0682 64.1172,-16.5873 53.5236,-16.427 55.7358,-23.0682"/>
</g>
<!-- Node6 -->
<g id="node4" class="node">
<title>Node6</title>
<g id="a_node4"><a xlink:href="../../da/d8e/gslpp__vector__double_8h.html" target="_top" xlink:title="gslpp_vector_double.h">
<polygon fill="none" stroke="#ff0000" points="16.1377,-54.5 16.1377,-71.5 113.1377,-71.5 113.1377,-54.5 16.1377,-54.5"/>
<text text-anchor="middle" x="64.6377" y="-61.1" font-family="Helvetica,sans-Serif" font-size="8.00" fill="#000000">gslpp_vector_double.h</text>
</a>
</g>
</g>
<!-- Node1&#45;&gt;Node6 -->
<g id="edge3" class="edge">
<title>Node1&#45;&gt;Node6</title>
<path fill="none" stroke="#191970" d="M98.9986,-162.4446C95.2215,-153.4444 89.2343,-138.8328 84.6377,-126 79.3103,-111.1269 73.9287,-94.0306 70.0919,-81.4037"/>
<polygon fill="#191970" stroke="#191970" points="73.3845,-80.1983 67.1581,-71.6262 66.6798,-82.2102 73.3845,-80.1983"/>
</g>
<!-- Node9 -->
<g id="node5" class="node">
<title>Node9</title>
<g id="a_node5"><a xlink:href="../../da/dad/gslpp__vector__complex_8h.html" target="_top" xlink:title="gslpp_vector_complex.h">
<polygon fill="none" stroke="#ff0000" points="170.1377,-54.5 170.1377,-71.5 273.1377,-71.5 273.1377,-54.5 170.1377,-54.5"/>
<text text-anchor="middle" x="221.6377" y="-61.1" font-family="Helvetica,sans-Serif" font-size="8.00" fill="#000000">gslpp_vector_complex.h</text>
</a>
</g>
</g>
<!-- Node1&#45;&gt;Node9 -->
<g id="edge5" class="edge">
<title>Node1&#45;&gt;Node9</title>
<path fill="none" stroke="#191970" d="M123.6523,-163.4659C148.8152,-154.0776 188.9175,-137.8307 199.6377,-126 210.6988,-113.7933 216.2596,-95.7113 219.0178,-82.0462"/>
<polygon fill="#191970" stroke="#191970" points="222.5285,-82.2742 220.7347,-71.8323 215.6253,-81.1138 222.5285,-82.2742"/>
</g>
<!-- Node11 -->
<g id="node6" class="node">
<title>Node11</title>
<g id="a_node6"><a xlink:href="../../d0/ddb/gslpp__matrix__double_8h.html" target="_top" xlink:title="gslpp_matrix_double.h">
<polygon fill="none" stroke="#ff0000" points="93.1377,-108.5 93.1377,-125.5 190.1377,-125.5 190.1377,-108.5 93.1377,-108.5"/>
<text text-anchor="middle" x="141.6377" y="-115.1" font-family="Helvetica,sans-Serif" font-size="8.00" fill="#000000">gslpp_matrix_double.h</text>
</a>
</g>
</g>
<!-- Node1&#45;&gt;Node11 -->
<g id="edge7" class="edge">
<title>Node1&#45;&gt;Node11</title>
<path fill="none" stroke="#191970" d="M109.0778,-162.083C114.5866,-154.4554 122.6689,-143.2645 129.4027,-133.9408"/>
<polygon fill="#191970" stroke="#191970" points="132.2999,-135.9071 135.3175,-125.7511 126.6252,-131.8087 132.2999,-135.9071"/>
</g>
<!-- Node6&#45;&gt;Node2 -->
<g id="edge4" class="edge">
<title>Node6&#45;&gt;Node2</title>
<path fill="none" stroke="#191970" d="M70.9127,-54.083C76.2802,-46.4554 84.1553,-35.2645 90.7164,-25.9408"/>
<polygon fill="#191970" stroke="#191970" points="93.5869,-27.9434 96.4796,-17.7511 87.8623,-23.9149 93.5869,-27.9434"/>
</g>
<!-- Node9&#45;&gt;Node2 -->
<g id="edge6" class="edge">
<title>Node9&#45;&gt;Node2</title>
<path fill="none" stroke="#191970" d="M202.7818,-54.4435C183.3717,-45.6356 152.9077,-31.8116 130.6732,-21.722"/>
<polygon fill="#191970" stroke="#191970" points="131.958,-18.4615 121.4054,-17.5164 129.0654,-24.836 131.958,-18.4615"/>
</g>
<!-- Node11&#45;&gt;Node2 -->
<g id="edge8" class="edge">
<title>Node11&#45;&gt;Node2</title>
<path fill="none" stroke="#191970" d="M139.3925,-108.3273C136.1372,-96.0744 129.7168,-73.0629 122.6377,-54 119.2895,-44.9836 115.0216,-35.2014 111.2891,-27.0677"/>
<polygon fill="#191970" stroke="#191970" points="114.3712,-25.3967 106.9569,-17.8284 108.0333,-28.3685 114.3712,-25.3967"/>
</g>
<!-- Node11&#45;&gt;Node6 -->
<g id="edge9" class="edge">
<title>Node11&#45;&gt;Node6</title>
<path fill="none" stroke="#191970" d="M129.2663,-108.324C117.4792,-100.0577 99.5054,-87.4527 85.5022,-77.6322"/>
<polygon fill="#191970" stroke="#191970" points="87.1754,-74.5307 76.9784,-71.6545 83.1561,-80.2619 87.1754,-74.5307"/>
</g>
<!-- Node11&#45;&gt;Node9 -->
<g id="edge10" class="edge">
<title>Node11&#45;&gt;Node9</title>
<path fill="none" stroke="#191970" d="M154.4911,-108.324C166.8541,-99.979 185.7678,-87.2122 200.3749,-77.3524"/>
<polygon fill="#191970" stroke="#191970" points="202.4859,-80.1503 208.8162,-71.6545 198.5696,-74.3483 202.4859,-80.1503"/>
</g>
</g>
</svg>
