<?xml version="1.0" encoding="UTF-8" standalone="no"?>
<!DOCTYPE svg PUBLIC "-//W3C//DTD SVG 1.1//EN"
 "http://www.w3.org/Graphics/SVG/1.1/DTD/svg11.dtd">
<!-- Generated by graphviz version 2.40.1 (20161225.0304)
 -->
<!-- Title: WaitingOnSubprocessExecutor.cpp Pages: 1 -->
<svg width="480pt" height="188pt"
 viewBox="0.00 0.00 479.50 188.00" xmlns="http://www.w3.org/2000/svg" xmlns:xlink="http://www.w3.org/1999/xlink">
<g id="graph0" class="graph" transform="scale(1 1) rotate(0) translate(4 184)">
<title>WaitingOnSubprocessExecutor.cpp</title>
<!-- Node0 -->
<g id="node1" class="node">
<title>Node0</title>
<polygon fill="#bfbfbf" stroke="#000000" points="144,-162.5 144,-179.5 287,-179.5 287,-162.5 144,-162.5"/>
<text text-anchor="middle" x="215.5" y="-169.1" font-family="Helvetica,sans-Serif" font-size="8.00" fill="#000000">WaitingOnSubprocessExecutor.cpp</text>
</g>
<!-- Node1 -->
<g id="node2" class="node">
<title>Node1</title>
<g id="a_node2"><a xlink:href="../../de/d2b/_waiting_on_subprocess_executor_8hpp.html" target="_top" xlink:title="WaitingOnSubprocessExecutor.hpp">
<polygon fill="none" stroke="#000000" points="144,-108.5 144,-125.5 287,-125.5 287,-108.5 144,-108.5"/>
<text text-anchor="middle" x="215.5" y="-115.1" font-family="Helvetica,sans-Serif" font-size="8.00" fill="#000000">WaitingOnSubprocessExecutor.hpp</text>
</a>
</g>
</g>
<!-- Node0&#45;&gt;Node1 -->
<g id="edge1" class="edge">
<title>Node0&#45;&gt;Node1</title>
<path fill="none" stroke="#191970" d="M215.5,-162.083C215.5,-155.0059 215.5,-144.8611 215.5,-135.9865"/>
<polygon fill="#191970" stroke="#191970" points="219.0001,-135.751 215.5,-125.7511 212.0001,-135.7511 219.0001,-135.751"/>
</g>
<!-- Node2 -->
<g id="node3" class="node">
<title>Node2</title>
<polygon fill="none" stroke="#bfbfbf" points="0,-54.5 0,-71.5 41,-71.5 41,-54.5 0,-54.5"/>
<text text-anchor="middle" x="20.5" y="-61.1" font-family="Helvetica,sans-Serif" font-size="8.00" fill="#000000">csignal</text>
</g>
<!-- Node1&#45;&gt;Node2 -->
<g id="edge2" class="edge">
<title>Node1&#45;&gt;Node2</title>
<path fill="none" stroke="#191970" d="M183.184,-108.4445C151.8224,-100.0848 102.6479,-86.8276 50.8378,-72.043"/>
<polygon fill="#191970" stroke="#191970" points="51.7139,-68.6533 41.1367,-69.2655 49.787,-75.3829 51.7139,-68.6533"/>
</g>
<!-- Node3 -->
<g id="node4" class="node">
<title>Node3</title>
<polygon fill="none" stroke="#bfbfbf" points="59.5,-54.5 59.5,-71.5 95.5,-71.5 95.5,-54.5 59.5,-54.5"/>
<text text-anchor="middle" x="77.5" y="-61.1" font-family="Helvetica,sans-Serif" font-size="8.00" fill="#000000">ctime</text>
</g>
<!-- Node1&#45;&gt;Node3 -->
<g id="edge3" class="edge">
<title>Node1&#45;&gt;Node3</title>
<path fill="none" stroke="#191970" d="M193.6335,-108.4435C169.748,-99.097 131.4281,-84.1023 105.3941,-73.9151"/>
<polygon fill="#191970" stroke="#191970" points="106.3264,-70.5215 95.7385,-70.1368 103.7756,-77.0402 106.3264,-70.5215"/>
</g>
<!-- Node4 -->
<g id="node5" class="node">
<title>Node4</title>
<polygon fill="none" stroke="#bfbfbf" points="114,-54.5 114,-71.5 171,-71.5 171,-54.5 114,-54.5"/>
<text text-anchor="middle" x="142.5" y="-61.1" font-family="Helvetica,sans-Serif" font-size="8.00" fill="#000000">sys/types.h</text>
</g>
<!-- Node1&#45;&gt;Node4 -->
<g id="edge4" class="edge">
<title>Node1&#45;&gt;Node4</title>
<path fill="none" stroke="#191970" d="M203.7713,-108.324C192.6626,-100.1066 175.7578,-87.6017 162.5167,-77.8069"/>
<polygon fill="#191970" stroke="#191970" points="164.5631,-74.9671 154.4421,-71.8339 160.4001,-80.5948 164.5631,-74.9671"/>
</g>
<!-- Node5 -->
<g id="node6" class="node">
<title>Node5</title>
<polygon fill="none" stroke="#bfbfbf" points="189.5,-54.5 189.5,-71.5 241.5,-71.5 241.5,-54.5 189.5,-54.5"/>
<text text-anchor="middle" x="215.5" y="-61.1" font-family="Helvetica,sans-Serif" font-size="8.00" fill="#000000">sys/wait.h</text>
</g>
<!-- Node1&#45;&gt;Node5 -->
<g id="edge5" class="edge">
<title>Node1&#45;&gt;Node5</title>
<path fill="none" stroke="#191970" d="M215.5,-108.083C215.5,-101.0059 215.5,-90.8611 215.5,-81.9865"/>
<polygon fill="#191970" stroke="#191970" points="219.0001,-81.751 215.5,-71.7511 212.0001,-81.7511 219.0001,-81.751"/>
</g>
<!-- Node6 -->
<g id="node7" class="node">
<title>Node6</title>
<polygon fill="none" stroke="#bfbfbf" points="260,-54.5 260,-71.5 305,-71.5 305,-54.5 260,-54.5"/>
<text text-anchor="middle" x="282.5" y="-61.1" font-family="Helvetica,sans-Serif" font-size="8.00" fill="#000000">unistd.h</text>
</g>
<!-- Node1&#45;&gt;Node6 -->
<g id="edge6" class="edge">
<title>Node1&#45;&gt;Node6</title>
<path fill="none" stroke="#191970" d="M226.2647,-108.324C236.2661,-100.2631 251.3865,-88.0765 263.4305,-78.3695"/>
<polygon fill="#191970" stroke="#191970" points="265.9498,-80.8343 271.5394,-71.8339 261.5571,-75.3841 265.9498,-80.8343"/>
</g>
<!-- Node7 -->
<g id="node8" class="node">
<title>Node7</title>
<g id="a_node8"><a xlink:href="../../d3/d97/_string_parser_8hpp.html" target="_top" xlink:title="StringParser.hpp">
<polygon fill="none" stroke="#ff0000" points="323,-54.5 323,-71.5 400,-71.5 400,-54.5 323,-54.5"/>
<text text-anchor="middle" x="361.5" y="-61.1" font-family="Helvetica,sans-Serif" font-size="8.00" fill="#000000">StringParser.hpp</text>
</a>
</g>
</g>
<!-- Node1&#45;&gt;Node7 -->
<g id="edge7" class="edge">
<title>Node1&#45;&gt;Node7</title>
<path fill="none" stroke="#191970" d="M238.6341,-108.4435C262.9822,-99.4381 301.5071,-85.1891 328.923,-75.049"/>
<polygon fill="#191970" stroke="#191970" points="330.3092,-78.2681 338.4741,-71.5164 327.8809,-71.7028 330.3092,-78.2681"/>
</g>
<!-- Node14 -->
<g id="node10" class="node">
<title>Node14</title>
<g id="a_node10"><a xlink:href="../../d6/d44/_vectorlike_array_8hpp.html" target="_top" xlink:title="VectorlikeArray.hpp">
<polygon fill="none" stroke="#ff0000" points="385.5,-.5 385.5,-17.5 471.5,-17.5 471.5,-.5 385.5,-.5"/>
<text text-anchor="middle" x="428.5" y="-7.1" font-family="Helvetica,sans-Serif" font-size="8.00" fill="#000000">VectorlikeArray.hpp</text>
</a>
</g>
</g>
<!-- Node1&#45;&gt;Node14 -->
<g id="edge10" class="edge">
<title>Node1&#45;&gt;Node14</title>
<path fill="none" stroke="#191970" d="M283.9765,-108.4708C332.2227,-101.1321 391.3348,-89.0215 409.5,-72 421.6031,-60.6589 426.0892,-41.918 427.7052,-27.8186"/>
<polygon fill="#191970" stroke="#191970" points="431.2034,-27.9742 428.4765,-17.7363 424.2238,-27.4401 431.2034,-27.9742"/>
</g>
<!-- Node8 -->
<g id="node9" class="node">
<title>Node8</title>
<polygon fill="none" stroke="#bfbfbf" points="330,-.5 330,-17.5 367,-17.5 367,-.5 330,-.5"/>
<text text-anchor="middle" x="348.5" y="-7.1" font-family="Helvetica,sans-Serif" font-size="8.00" fill="#000000">cstdio</text>
</g>
<!-- Node7&#45;&gt;Node8 -->
<g id="edge8" class="edge">
<title>Node7&#45;&gt;Node8</title>
<path fill="none" stroke="#191970" d="M359.3533,-54.083C357.6306,-46.9272 355.1529,-36.6353 352.9997,-27.6911"/>
<polygon fill="#191970" stroke="#191970" points="356.3501,-26.6541 350.6067,-17.7511 349.5446,-28.2925 356.3501,-26.6541"/>
</g>
<!-- Node7&#45;&gt;Node14 -->
<g id="edge9" class="edge">
<title>Node7&#45;&gt;Node14</title>
<path fill="none" stroke="#191970" d="M372.2647,-54.324C382.2661,-46.2631 397.3865,-34.0765 409.4305,-24.3695"/>
<polygon fill="#191970" stroke="#191970" points="411.9498,-26.8343 417.5394,-17.8339 407.5571,-21.3841 411.9498,-26.8343"/>
</g>
</g>
</svg>
