<?xml version="1.0" encoding="UTF-8" standalone="no"?>
<!DOCTYPE svg PUBLIC "-//W3C//DTD SVG 1.1//EN"
 "http://www.w3.org/Graphics/SVG/1.1/DTD/svg11.dtd">
<!-- Generated by graphviz version 2.40.1 (20161225.0304)
 -->
<!-- Title: THDMWdirectsearches.cpp Pages: 1 -->
<svg width="296pt" height="350pt"
 viewBox="0.00 0.00 295.69 350.00" xmlns="http://www.w3.org/2000/svg" xmlns:xlink="http://www.w3.org/1999/xlink">
<g id="graph0" class="graph" transform="scale(1 1) rotate(0) translate(4 346)">
<title>THDMWdirectsearches.cpp</title>
<!-- Node0 -->
<g id="node1" class="node">
<title>Node0</title>
<polygon fill="#bfbfbf" stroke="#000000" points="137.1891,-324.5 137.1891,-341.5 251.1891,-341.5 251.1891,-324.5 137.1891,-324.5"/>
<text text-anchor="middle" x="194.1891" y="-331.1" font-family="Helvetica,sans-Serif" font-size="8.00" fill="#000000">THDMWdirectsearches.cpp</text>
</g>
<!-- Node1 -->
<g id="node2" class="node">
<title>Node1</title>
<g id="a_node2"><a xlink:href="../../d7/d5a/_t_h_d_m_wdirectsearches_8h.html" target="_top" xlink:title="THDMWdirectsearches.h">
<polygon fill="none" stroke="#000000" points="89.1891,-270.5 89.1891,-287.5 195.1891,-287.5 195.1891,-270.5 89.1891,-270.5"/>
<text text-anchor="middle" x="142.1891" y="-277.1" font-family="Helvetica,sans-Serif" font-size="8.00" fill="#000000">THDMWdirectsearches.h</text>
</a>
</g>
</g>
<!-- Node0&#45;&gt;Node1 -->
<g id="edge1" class="edge">
<title>Node0&#45;&gt;Node1</title>
<path fill="none" stroke="#191970" d="M185.6024,-324.083C178.0302,-316.2195 166.811,-304.5688 157.6748,-295.0813"/>
<polygon fill="#191970" stroke="#191970" points="160.0737,-292.5266 150.6161,-287.7511 155.0314,-297.3821 160.0737,-292.5266"/>
</g>
<!-- Node7 -->
<g id="node6" class="node">
<title>Node7</title>
<g id="a_node6"><a xlink:href="../../d6/d0a/_standard_model_8h.html" target="_top" xlink:title="StandardModel.h">
<polygon fill="none" stroke="#ff0000" points="179.6891,-108.5 179.6891,-125.5 256.6891,-125.5 256.6891,-108.5 179.6891,-108.5"/>
<text text-anchor="middle" x="218.1891" y="-115.1" font-family="Helvetica,sans-Serif" font-size="8.00" fill="#000000">StandardModel.h</text>
</a>
</g>
</g>
<!-- Node0&#45;&gt;Node7 -->
<g id="edge13" class="edge">
<title>Node0&#45;&gt;Node7</title>
<path fill="none" stroke="#191970" d="M197.7473,-324.1837C207.4804,-299.0651 233.4159,-224.8842 227.1891,-162 226.3148,-153.1697 224.4977,-143.5054 222.7237,-135.4041"/>
<polygon fill="#191970" stroke="#191970" points="226.1053,-134.4935 220.4239,-125.5508 219.2886,-136.0846 226.1053,-134.4935"/>
</g>
<!-- Node2 -->
<g id="node3" class="node">
<title>Node2</title>
<polygon fill="none" stroke="#bfbfbf" points="27.6891,-162.5 27.6891,-179.5 78.6891,-179.5 78.6891,-162.5 27.6891,-162.5"/>
<text text-anchor="middle" x="53.1891" y="-169.1" font-family="Helvetica,sans-Serif" font-size="8.00" fill="#000000">stdexcept</text>
</g>
<!-- Node1&#45;&gt;Node2 -->
<g id="edge2" class="edge">
<title>Node1&#45;&gt;Node2</title>
<path fill="none" stroke="#191970" d="M97.9376,-270.4284C61.9794,-262.4582 15.4382,-249.5002 4.1891,-234 -8.1905,-216.942 11.4406,-197.913 29.4128,-185.2776"/>
<polygon fill="#191970" stroke="#191970" points="31.5469,-188.0623 37.9548,-179.6249 27.6839,-182.2248 31.5469,-188.0623"/>
</g>
<!-- Node3 -->
<g id="node4" class="node">
<title>Node3</title>
<g id="a_node4"><a xlink:href="../../dd/dcd/_th_observable_8h.html" target="_top" xlink:title="ThObservable.h">
<polygon fill="none" stroke="#ff0000" points="13.6891,-216.5 13.6891,-233.5 86.6891,-233.5 86.6891,-216.5 13.6891,-216.5"/>
<text text-anchor="middle" x="50.1891" y="-223.1" font-family="Helvetica,sans-Serif" font-size="8.00" fill="#000000">ThObservable.h</text>
</a>
</g>
</g>
<!-- Node1&#45;&gt;Node3 -->
<g id="edge3" class="edge">
<title>Node1&#45;&gt;Node3</title>
<path fill="none" stroke="#191970" d="M127.4077,-270.324C112.9221,-261.8215 90.6161,-248.7288 73.6959,-238.7975"/>
<polygon fill="#191970" stroke="#191970" points="75.3297,-235.6981 64.9338,-233.6545 71.7863,-241.735 75.3297,-235.6981"/>
</g>
<!-- Node6 -->
<g id="node5" class="node">
<title>Node6</title>
<g id="a_node5"><a xlink:href="../../d7/dfb/_t_h_d_m_w_8h.html" target="_top" xlink:title="THDMW.h">
<polygon fill="none" stroke="#ff0000" points="164.1891,-162.5 164.1891,-179.5 218.1891,-179.5 218.1891,-162.5 164.1891,-162.5"/>
<text text-anchor="middle" x="191.1891" y="-169.1" font-family="Helvetica,sans-Serif" font-size="8.00" fill="#000000">THDMW.h</text>
</a>
</g>
</g>
<!-- Node1&#45;&gt;Node6 -->
<g id="edge4" class="edge">
<title>Node1&#45;&gt;Node6</title>
<path fill="none" stroke="#191970" d="M155.3526,-270.4242C166.3213,-262.4513 181.234,-249.4918 188.1891,-234 194.4328,-220.093 194.7728,-202.68 193.7837,-189.6873"/>
<polygon fill="#191970" stroke="#191970" points="197.2481,-189.1694 192.6873,-179.6065 190.2891,-189.9263 197.2481,-189.1694"/>
</g>
<!-- Node56 -->
<g id="node10" class="node">
<title>Node56</title>
<g id="a_node10"><a xlink:href="../../d2/de6/_t_h_d_m_wcache_8h.html" target="_top" xlink:title="THDMWcache.h">
<polygon fill="none" stroke="#ff0000" points="104.6891,-216.5 104.6891,-233.5 179.6891,-233.5 179.6891,-216.5 104.6891,-216.5"/>
<text text-anchor="middle" x="142.1891" y="-223.1" font-family="Helvetica,sans-Serif" font-size="8.00" fill="#000000">THDMWcache.h</text>
</a>
</g>
</g>
<!-- Node1&#45;&gt;Node56 -->
<g id="edge10" class="edge">
<title>Node1&#45;&gt;Node56</title>
<path fill="none" stroke="#191970" d="M142.1891,-270.083C142.1891,-263.0059 142.1891,-252.8611 142.1891,-243.9865"/>
<polygon fill="#191970" stroke="#191970" points="145.6892,-243.751 142.1891,-233.7511 138.6892,-243.7511 145.6892,-243.751"/>
</g>
<!-- Node6&#45;&gt;Node7 -->
<g id="edge5" class="edge">
<title>Node6&#45;&gt;Node7</title>
<path fill="none" stroke="#191970" d="M195.6476,-162.083C199.3435,-154.6913 204.7125,-143.9533 209.2836,-134.8111"/>
<polygon fill="#191970" stroke="#191970" points="212.4719,-136.2606 213.8136,-125.7511 206.2109,-133.1301 212.4719,-136.2606"/>
</g>
<!-- Node8 -->
<g id="node7" class="node">
<title>Node8</title>
<g id="a_node7"><a xlink:href="../../d2/d65/_flavour_8h.html" target="_top" xlink:title="Flavour.h">
<polygon fill="none" stroke="#ff0000" points="140.1891,-54.5 140.1891,-71.5 190.1891,-71.5 190.1891,-54.5 140.1891,-54.5"/>
<text text-anchor="middle" x="165.1891" y="-61.1" font-family="Helvetica,sans-Serif" font-size="8.00" fill="#000000">Flavour.h</text>
</a>
</g>
</g>
<!-- Node7&#45;&gt;Node8 -->
<g id="edge6" class="edge">
<title>Node7&#45;&gt;Node8</title>
<path fill="none" stroke="#191970" d="M209.4373,-108.083C201.7194,-100.2195 190.2845,-88.5688 180.9726,-79.0813"/>
<polygon fill="#191970" stroke="#191970" points="183.2808,-76.4363 173.7782,-71.7511 178.285,-81.3396 183.2808,-76.4363"/>
</g>
<!-- Node9 -->
<g id="node8" class="node">
<title>Node9</title>
<g id="a_node8"><a xlink:href="../../d4/d68/_q_c_d_8h.html" target="_top" xlink:title="QCD.h">
<polygon fill="none" stroke="#ff0000" points="170.6891,-.5 170.6891,-17.5 211.6891,-17.5 211.6891,-.5 170.6891,-.5"/>
<text text-anchor="middle" x="191.1891" y="-7.1" font-family="Helvetica,sans-Serif" font-size="8.00" fill="#000000">QCD.h</text>
</a>
</g>
</g>
<!-- Node7&#45;&gt;Node9 -->
<g id="edge8" class="edge">
<title>Node7&#45;&gt;Node9</title>
<path fill="none" stroke="#191970" d="M215.9796,-108.1619C211.5871,-90.5918 201.6757,-50.9465 195.8024,-27.4532"/>
<polygon fill="#191970" stroke="#191970" points="199.1747,-26.5109 193.3537,-17.6584 192.3837,-28.2087 199.1747,-26.5109"/>
</g>
<!-- Node29 -->
<g id="node9" class="node">
<title>Node29</title>
<g id="a_node9"><a xlink:href="../../db/d5d/_c_k_m_8h.html" target="_top" xlink:title="CKM.h">
<polygon fill="none" stroke="#ff0000" points="246.6891,-54.5 246.6891,-71.5 287.6891,-71.5 287.6891,-54.5 246.6891,-54.5"/>
<text text-anchor="middle" x="267.1891" y="-61.1" font-family="Helvetica,sans-Serif" font-size="8.00" fill="#000000">CKM.h</text>
</a>
</g>
</g>
<!-- Node7&#45;&gt;Node29 -->
<g id="edge9" class="edge">
<title>Node7&#45;&gt;Node29</title>
<path fill="none" stroke="#191970" d="M226.2805,-108.083C233.3445,-100.2982 243.7767,-88.8015 252.338,-79.3665"/>
<polygon fill="#191970" stroke="#191970" points="255.1204,-81.5087 259.2483,-71.7511 249.9364,-76.8047 255.1204,-81.5087"/>
</g>
<!-- Node8&#45;&gt;Node9 -->
<g id="edge7" class="edge">
<title>Node8&#45;&gt;Node9</title>
<path fill="none" stroke="#191970" d="M169.4825,-54.083C173.0415,-46.6913 178.2116,-35.9533 182.6134,-26.8111"/>
<polygon fill="#191970" stroke="#191970" points="185.7909,-28.2795 186.9756,-17.7511 179.4839,-25.2427 185.7909,-28.2795"/>
</g>
<!-- Node56&#45;&gt;Node2 -->
<g id="edge12" class="edge">
<title>Node56&#45;&gt;Node2</title>
<path fill="none" stroke="#191970" d="M127.8897,-216.324C114.0062,-207.9002 92.6967,-194.9709 76.3854,-185.0741"/>
<polygon fill="#191970" stroke="#191970" points="77.818,-181.8495 67.453,-179.6545 74.1869,-187.8341 77.818,-181.8495"/>
</g>
<!-- Node56&#45;&gt;Node6 -->
<g id="edge11" class="edge">
<title>Node56&#45;&gt;Node6</title>
<path fill="none" stroke="#191970" d="M150.2805,-216.083C157.3445,-208.2982 167.7767,-196.8015 176.338,-187.3665"/>
<polygon fill="#191970" stroke="#191970" points="179.1204,-189.5087 183.2483,-179.7511 173.9364,-184.8047 179.1204,-189.5087"/>
</g>
</g>
</svg>
