<?xml version="1.0" encoding="UTF-8" standalone="no"?>
<!DOCTYPE svg PUBLIC "-//W3C//DTD SVG 1.1//EN"
 "http://www.w3.org/Graphics/SVG/1.1/DTD/svg11.dtd">
<!-- Generated by graphviz version 2.38.0 (20140413.2041)
 -->
<!-- Title: THDMfunctions Pages: 1 -->
<svg width="371pt" height="215pt"
 viewBox="0.00 0.00 371.00 215.00" xmlns="http://www.w3.org/2000/svg" xmlns:xlink="http://www.w3.org/1999/xlink">
<g id="graph0" class="graph" transform="scale(1 1) rotate(0) translate(4 211)">
<title>THDMfunctions</title>
<!-- Node1 -->
<g id="node1" class="node"><title>Node1</title>
<polygon fill="#bfbfbf" stroke="black" points="0,-0.5 0,-17.5 72,-17.5 72,-0.5 0,-0.5"/>
<text text-anchor="middle" x="36" y="-7.1" font-family="Helvetica,sans-Serif" font-size="8.00">THDMfunctions</text>
</g>
<!-- Node2 -->
<g id="node2" class="node"><title>Node2</title>
<g id="a_node2"><a xlink:href="../../dc/d1f/class_th_observable.html" target="_top" xlink:title="A class for a model prediction of an observable. ">
<polygon fill="none" stroke="black" points="2.5,-63.5 2.5,-80.5 69.5,-80.5 69.5,-63.5 2.5,-63.5"/>
<text text-anchor="middle" x="36" y="-70.1" font-family="Helvetica,sans-Serif" font-size="8.00">ThObservable</text>
</a>
</g>
</g>
<!-- Node2&#45;&gt;Node1 -->
<g id="edge1" class="edge"><title>Node2&#45;&gt;Node1</title>
<path fill="none" stroke="midnightblue" d="M36,-53.2698C36,-41.5485 36,-26.7567 36,-17.8556"/>
<polygon fill="midnightblue" stroke="midnightblue" points="32.5001,-53.2743 36,-63.2743 39.5001,-53.2743 32.5001,-53.2743"/>
</g>
<!-- Node3 -->
<g id="node3" class="node"><title>Node3</title>
<g id="a_node3"><a xlink:href="../../dc/dd5/class_standard_model.html" target="_top" xlink:title="A model class for the Standard Model. ">
<polygon fill="none" stroke="red" points="129.5,-126.5 129.5,-143.5 200.5,-143.5 200.5,-126.5 129.5,-126.5"/>
<text text-anchor="middle" x="165" y="-133.1" font-family="Helvetica,sans-Serif" font-size="8.00">StandardModel</text>
</a>
</g>
</g>
<!-- Node3&#45;&gt;Node2 -->
<g id="edge2" class="edge"><title>Node3&#45;&gt;Node2</title>
<path fill="none" stroke="#9a32cd" stroke-dasharray="5,2" d="M119.398,-124.435C105.31,-120.465 90.0716,-115.089 77,-108 63.6725,-100.772 50.7941,-88.676 43.1334,-80.7677"/>
<polygon fill="#9a32cd" stroke="#9a32cd" points="118.843,-127.909 129.405,-127.082 120.632,-121.141 118.843,-127.909"/>
<text text-anchor="middle" x="84.5" y="-101.6" font-family="Helvetica,sans-Serif" font-size="8.00"> SM</text>
</g>
<!-- Node5 -->
<g id="node5" class="node"><title>Node5</title>
<g id="a_node5"><a xlink:href="../../dc/df3/class_e_w_s_mcache.html" target="_top" xlink:title="A class for cache variables used in computing radiative corrections to the EW precision observables...">
<polygon fill="none" stroke="red" points="216.5,-63.5 216.5,-80.5 279.5,-80.5 279.5,-63.5 216.5,-63.5"/>
<text text-anchor="middle" x="248" y="-70.1" font-family="Helvetica,sans-Serif" font-size="8.00">EWSMcache</text>
</a>
</g>
</g>
<!-- Node3&#45;&gt;Node5 -->
<g id="edge5" class="edge"><title>Node3&#45;&gt;Node5</title>
<path fill="none" stroke="#9a32cd" stroke-dasharray="5,2" d="M201.71,-122.597C210.27,-118.835 218.937,-114.026 226,-108 234.846,-100.454 241.306,-88.4427 244.858,-80.6392"/>
<polygon fill="#9a32cd" stroke="#9a32cd" points="200.169,-119.444 192.184,-126.407 202.768,-125.943 200.169,-119.444"/>
<text text-anchor="middle" x="241.5" y="-101.6" font-family="Helvetica,sans-Serif" font-size="8.00"> SM</text>
</g>
<!-- Node4 -->
<g id="node4" class="node"><title>Node4</title>
<g id="a_node4"><a xlink:href="../../dd/dfa/class_q_c_d.html" target="_top" xlink:title="A class for parameters related to QCD, hadrons and quarks. ">
<polygon fill="none" stroke="red" points="69,-189.5 69,-206.5 103,-206.5 103,-189.5 69,-189.5"/>
<text text-anchor="middle" x="86" y="-196.1" font-family="Helvetica,sans-Serif" font-size="8.00">QCD</text>
</a>
</g>
</g>
<!-- Node4&#45;&gt;Node3 -->
<g id="edge3" class="edge"><title>Node4&#45;&gt;Node3</title>
<path fill="none" stroke="midnightblue" d="M104.016,-183.089C119.847,-170.865 142.295,-153.532 155.076,-143.663"/>
<polygon fill="midnightblue" stroke="midnightblue" points="101.781,-180.392 96.0054,-189.274 106.06,-185.933 101.781,-180.392"/>
</g>
<!-- Node5&#45;&gt;Node3 -->
<g id="edge4" class="edge"><title>Node5&#45;&gt;Node3</title>
<path fill="none" stroke="#9a32cd" stroke-dasharray="5,2" d="M206.019,-81.5952C188.599,-86.0773 171.224,-92.0725 166,-99 160.07,-106.862 161.245,-118.79 162.907,-126.489"/>
<polygon fill="#9a32cd" stroke="#9a32cd" points="207.292,-84.8883 216.188,-79.1354 205.646,-78.0845 207.292,-84.8883"/>
<text text-anchor="middle" x="196" y="-101.6" font-family="Helvetica,sans-Serif" font-size="8.00"> myEWSMcache</text>
</g>
<!-- Node7 -->
<g id="node7" class="node"><title>Node7</title>
<g id="a_node7"><a xlink:href="../../d5/dad/class_e_w_s_m_three_loop_e_w.html" target="_top" xlink:title="A class for &#160;three&#45;loop corrections to the EW precision observables. ">
<polygon fill="none" stroke="black" points="255.5,-0.5 255.5,-17.5 348.5,-17.5 348.5,-0.5 255.5,-0.5"/>
<text text-anchor="middle" x="302" y="-7.1" font-family="Helvetica,sans-Serif" font-size="8.00">EWSMThreeLoopEW</text>
</a>
</g>
</g>
<!-- Node5&#45;&gt;Node7 -->
<g id="edge8" class="edge"><title>Node5&#45;&gt;Node7</title>
<path fill="none" stroke="#9a32cd" stroke-dasharray="5,2" d="M260.837,-55.7775C266.105,-49.5957 272.295,-42.4131 278,-36 283.553,-29.7579 289.979,-22.8101 294.784,-17.6682"/>
<polygon fill="#9a32cd" stroke="#9a32cd" points="258.155,-53.5294 254.358,-63.4207 263.494,-58.0558 258.155,-53.5294"/>
<text text-anchor="middle" x="290" y="-38.6" font-family="Helvetica,sans-Serif" font-size="8.00"> cache</text>
</g>
<!-- Node9 -->
<g id="node9" class="node"><title>Node9</title>
<g id="a_node9"><a xlink:href="../../d5/dde/class_e_w_s_m_approximate_formulae.html" target="_top" xlink:title="A class for approximate formulae of the EW precision observables. ">
<polygon fill="none" stroke="black" points="103,-0.5 103,-17.5 223,-17.5 223,-0.5 103,-0.5"/>
<text text-anchor="middle" x="163" y="-7.1" font-family="Helvetica,sans-Serif" font-size="8.00">EWSMApproximateFormulae</text>
</a>
</g>
</g>
<!-- Node5&#45;&gt;Node9 -->
<g id="edge11" class="edge"><title>Node5&#45;&gt;Node9</title>
<path fill="none" stroke="#9a32cd" stroke-dasharray="5,2" d="M229.087,-57.427C212.03,-45.1866 187.557,-27.6231 173.678,-17.663"/>
<polygon fill="#9a32cd" stroke="#9a32cd" points="227.07,-60.2874 237.235,-63.2743 231.151,-54.6003 227.07,-60.2874"/>
<text text-anchor="middle" x="228.5" y="-38.6" font-family="Helvetica,sans-Serif" font-size="8.00"> mycache</text>
</g>
<!-- Node6 -->
<g id="node6" class="node"><title>Node6</title>
<g id="a_node6"><a xlink:href="../../d9/db9/class_c_k_m.html" target="_top" xlink:title="A class for the CKM matrix elements. ">
<polygon fill="none" stroke="red" points="121,-189.5 121,-206.5 155,-206.5 155,-189.5 121,-189.5"/>
<text text-anchor="middle" x="138" y="-196.1" font-family="Helvetica,sans-Serif" font-size="8.00">CKM</text>
</a>
</g>
</g>
<!-- Node6&#45;&gt;Node3 -->
<g id="edge6" class="edge"><title>Node6&#45;&gt;Node3</title>
<path fill="none" stroke="#9a32cd" stroke-dasharray="5,2" d="M137.279,-179.402C137.618,-173.654 138.63,-167.372 141,-162 144.174,-154.806 150.174,-148.306 155.38,-143.604"/>
<polygon fill="#9a32cd" stroke="#9a32cd" points="133.779,-179.413 137.272,-189.416 140.779,-179.418 133.779,-179.413"/>
<text text-anchor="middle" x="156.5" y="-164.6" font-family="Helvetica,sans-Serif" font-size="8.00"> myCKM</text>
</g>
<!-- Node7&#45;&gt;Node3 -->
<g id="edge7" class="edge"><title>Node7&#45;&gt;Node3</title>
<path fill="none" stroke="#9a32cd" stroke-dasharray="5,2" d="M303.186,-27.7961C303.239,-33.342 302.97,-39.456 302,-45 299.067,-61.7565 299.117,-67.3241 289,-81 268.184,-109.138 229.392,-122.487 200.718,-128.723"/>
<polygon fill="#9a32cd" stroke="#9a32cd" points="306.673,-27.4163 302.748,-17.5752 299.679,-27.7157 306.673,-27.4163"/>
<text text-anchor="middle" x="330.5" y="-70.1" font-family="Helvetica,sans-Serif" font-size="8.00"> myThreeLoopEW</text>
</g>
<!-- Node8 -->
<g id="node8" class="node"><title>Node8</title>
<g id="a_node8"><a xlink:href="../../d4/d6d/class_flavour.html" target="_top" xlink:title="The parent class in Flavour for calculating all the Wilson coefficients for various Flavor Violating ...">
<polygon fill="none" stroke="red" points="173.5,-189.5 173.5,-206.5 216.5,-206.5 216.5,-189.5 173.5,-189.5"/>
<text text-anchor="middle" x="195" y="-196.1" font-family="Helvetica,sans-Serif" font-size="8.00">Flavour</text>
</a>
</g>
</g>
<!-- Node8&#45;&gt;Node3 -->
<g id="edge9" class="edge"><title>Node8&#45;&gt;Node3</title>
<path fill="none" stroke="#9a32cd" stroke-dasharray="5,2" d="M186.635,-179.991C180.817,-168.161 173.331,-152.94 168.863,-143.856"/>
<polygon fill="#9a32cd" stroke="#9a32cd" points="183.647,-181.845 191.2,-189.274 189.928,-178.756 183.647,-181.845"/>
<text text-anchor="middle" x="202" y="-164.6" font-family="Helvetica,sans-Serif" font-size="8.00"> myFlavour</text>
</g>
<!-- Node9&#45;&gt;Node3 -->
<g id="edge10" class="edge"><title>Node9&#45;&gt;Node3</title>
<path fill="none" stroke="#9a32cd" stroke-dasharray="5,2" d="M143.047,-23.9832C126.304,-37.5915 106.393,-59.3335 115,-81 122.753,-100.515 141.475,-117.007 153.68,-126.19"/>
<polygon fill="#9a32cd" stroke="#9a32cd" points="145.519,-26.4998 151.347,-17.6517 141.273,-20.9344 145.519,-26.4998"/>
<text text-anchor="middle" x="161" y="-70.1" font-family="Helvetica,sans-Serif" font-size="8.00"> myApproximateFormulae</text>
</g>
<!-- Node10 -->
<g id="node10" class="node"><title>Node10</title>
<g id="a_node10"><a xlink:href="../../de/d85/class_particle.html" target="_top" xlink:title="A class for particles. ">
<polygon fill="none" stroke="black" points="235.5,-189.5 235.5,-206.5 278.5,-206.5 278.5,-189.5 235.5,-189.5"/>
<text text-anchor="middle" x="257" y="-196.1" font-family="Helvetica,sans-Serif" font-size="8.00">Particle</text>
</a>
</g>
</g>
<!-- Node10&#45;&gt;Node3 -->
<g id="edge12" class="edge"><title>Node10&#45;&gt;Node3</title>
<path fill="none" stroke="#9a32cd" stroke-dasharray="5,2" d="M245.52,-181.17C240.155,-174.596 233.335,-167.285 226,-162 214.979,-154.058 201.158,-147.914 189.459,-143.597"/>
<polygon fill="#9a32cd" stroke="#9a32cd" points="242.983,-183.613 251.846,-189.418 248.537,-179.353 242.983,-183.613"/>
<text text-anchor="middle" x="250.5" y="-164.6" font-family="Helvetica,sans-Serif" font-size="8.00"> leptons</text>
</g>
</g>
</svg>
