<?xml version="1.0" encoding="UTF-8" standalone="no"?>
<!DOCTYPE svg PUBLIC "-//W3C//DTD SVG 1.1//EN"
 "http://www.w3.org/Graphics/SVG/1.1/DTD/svg11.dtd">
<!-- Generated by graphviz version 2.40.1 (20161225.0304)
 -->
<!-- Title: MVlnu.h Pages: 1 -->
<svg width="249pt" height="80pt"
 viewBox="0.00 0.00 248.50 80.00" xmlns="http://www.w3.org/2000/svg" xmlns:xlink="http://www.w3.org/1999/xlink">
<g id="graph0" class="graph" transform="scale(1 1) rotate(0) translate(4 76)">
<title>MVlnu.h</title>
<!-- Node0 -->
<g id="node1" class="node">
<title>Node0</title>
<polygon fill="#bfbfbf" stroke="#000000" points="119,-54.5 119,-71.5 165,-71.5 165,-54.5 119,-54.5"/>
<text text-anchor="middle" x="142" y="-61.1" font-family="Helvetica,sans-Serif" font-size="8.00" fill="#000000">MVlnu.h</text>
</g>
<!-- Node1 -->
<g id="node2" class="node">
<title>Node1</title>
<polygon fill="none" stroke="#bfbfbf" points="0,-.5 0,-17.5 88,-17.5 88,-.5 0,-.5"/>
<text text-anchor="middle" x="44" y="-7.1" font-family="Helvetica,sans-Serif" font-size="8.00" fill="#000000">gsl/gsl_integration.h</text>
</g>
<!-- Node0&#45;&gt;Node1 -->
<g id="edge1" class="edge">
<title>Node0&#45;&gt;Node1</title>
<path fill="none" stroke="#191970" d="M126.2546,-54.324C110.6813,-45.7428 86.6227,-32.486 68.5407,-22.5224"/>
<polygon fill="#191970" stroke="#191970" points="70.1539,-19.4152 59.7063,-17.6545 66.7756,-25.546 70.1539,-19.4152"/>
</g>
<!-- Node2 -->
<g id="node3" class="node">
<title>Node2</title>
<polygon fill="none" stroke="#bfbfbf" points="106.5,-.5 106.5,-17.5 177.5,-17.5 177.5,-.5 106.5,-.5"/>
<text text-anchor="middle" x="142" y="-7.1" font-family="Helvetica,sans-Serif" font-size="8.00" fill="#000000">gsl/gsl_spline.h</text>
</g>
<!-- Node0&#45;&gt;Node2 -->
<g id="edge2" class="edge">
<title>Node0&#45;&gt;Node2</title>
<path fill="none" stroke="#191970" d="M142,-54.083C142,-47.0059 142,-36.8611 142,-27.9865"/>
<polygon fill="#191970" stroke="#191970" points="145.5001,-27.751 142,-17.7511 138.5001,-27.7511 145.5001,-27.751"/>
</g>
<!-- Node3 -->
<g id="node4" class="node">
<title>Node3</title>
<polygon fill="none" stroke="#bfbfbf" points="195.5,-.5 195.5,-17.5 240.5,-17.5 240.5,-.5 195.5,-.5"/>
<text text-anchor="middle" x="218" y="-7.1" font-family="Helvetica,sans-Serif" font-size="8.00" fill="#000000">memory</text>
</g>
<!-- Node0&#45;&gt;Node3 -->
<g id="edge3" class="edge">
<title>Node0&#45;&gt;Node3</title>
<path fill="none" stroke="#191970" d="M154.2107,-54.324C165.7759,-46.1066 183.3754,-33.6017 197.1607,-23.8069"/>
<polygon fill="#191970" stroke="#191970" points="199.4425,-26.4791 205.5671,-17.8339 195.388,-20.7729 199.4425,-26.4791"/>
</g>
</g>
</svg>
