<?xml version="1.0" encoding="UTF-8" standalone="no"?>
<!DOCTYPE svg PUBLIC "-//W3C//DTD SVG 1.1//EN"
 "http://www.w3.org/Graphics/SVG/1.1/DTD/svg11.dtd">
<!-- Generated by graphviz version 2.38.0 (20140413.2041)
 -->
<!-- Title: NPSTU Pages: 1 -->
<svg width="350pt" height="215pt"
 viewBox="0.00 0.00 349.50 215.00" xmlns="http://www.w3.org/2000/svg" xmlns:xlink="http://www.w3.org/1999/xlink">
<g id="graph0" class="graph" transform="scale(1 1) rotate(0) translate(4 211)">
<title>NPSTU</title>
<!-- Node1 -->
<g id="node1" class="node"><title>Node1</title>
<polygon fill="#bfbfbf" stroke="black" points="0.5,-0.5 0.5,-17.5 44.5,-17.5 44.5,-0.5 0.5,-0.5"/>
<text text-anchor="middle" x="22.5" y="-7.1" font-family="Helvetica,sans-Serif" font-size="8.00">NPSTU</text>
</g>
<!-- Node2 -->
<g id="node2" class="node"><title>Node2</title>
<g id="a_node2"><a xlink:href="../../d2/df3/class_n_pbase.html" target="_top" xlink:title="The auxiliary base model class for other model classes. ">
<polygon fill="none" stroke="black" points="0,-63.5 0,-80.5 45,-80.5 45,-63.5 0,-63.5"/>
<text text-anchor="middle" x="22.5" y="-70.1" font-family="Helvetica,sans-Serif" font-size="8.00">NPbase</text>
</a>
</g>
</g>
<!-- Node2&#45;&gt;Node1 -->
<g id="edge1" class="edge"><title>Node2&#45;&gt;Node1</title>
<path fill="none" stroke="midnightblue" d="M22.5,-53.2698C22.5,-41.5485 22.5,-26.7567 22.5,-17.8556"/>
<polygon fill="midnightblue" stroke="midnightblue" points="19.0001,-53.2743 22.5,-63.2743 26.0001,-53.2743 19.0001,-53.2743"/>
</g>
<!-- Node3 -->
<g id="node3" class="node"><title>Node3</title>
<g id="a_node3"><a xlink:href="../../dc/dd5/class_standard_model.html" target="_top" xlink:title="A model class for the Standard Model. ">
<polygon fill="none" stroke="red" points="74,-126.5 74,-143.5 145,-143.5 145,-126.5 74,-126.5"/>
<text text-anchor="middle" x="109.5" y="-133.1" font-family="Helvetica,sans-Serif" font-size="8.00">StandardModel</text>
</a>
</g>
</g>
<!-- Node3&#45;&gt;Node2 -->
<g id="edge2" class="edge"><title>Node3&#45;&gt;Node2</title>
<path fill="none" stroke="midnightblue" d="M63.6016,-131.148C48.0344,-127.714 32.1559,-120.964 22.5,-108 16.6924,-100.203 18.1443,-88.4804 20.0499,-80.7849"/>
<polygon fill="midnightblue" stroke="midnightblue" points="63.2578,-134.642 73.7179,-132.958 64.4906,-127.751 63.2578,-134.642"/>
</g>
<!-- Node3&#45;&gt;Node2 -->
<g id="edge13" class="edge"><title>Node3&#45;&gt;Node2</title>
<path fill="none" stroke="#9a32cd" stroke-dasharray="5,2" d="M68.041,-122.971C58.9589,-119.236 49.868,-114.345 42.5,-108 33.9088,-100.602 28.1818,-88.5513 25.1344,-80.699"/>
<polygon fill="#9a32cd" stroke="#9a32cd" points="66.8367,-126.257 77.4296,-126.456 69.2731,-119.695 66.8367,-126.257"/>
<text text-anchor="middle" x="57" y="-101.6" font-family="Helvetica,sans-Serif" font-size="8.00"> trueSM</text>
</g>
<!-- Node5 -->
<g id="node5" class="node"><title>Node5</title>
<g id="a_node5"><a xlink:href="../../dc/df3/class_e_w_s_mcache.html" target="_top" xlink:title="A class for cache variables used in computing radiative corrections to the EW precision observables...">
<polygon fill="none" stroke="red" points="196,-63.5 196,-80.5 259,-80.5 259,-63.5 196,-63.5"/>
<text text-anchor="middle" x="227.5" y="-70.1" font-family="Helvetica,sans-Serif" font-size="8.00">EWSMcache</text>
</a>
</g>
</g>
<!-- Node3&#45;&gt;Node5 -->
<g id="edge5" class="edge"><title>Node3&#45;&gt;Node5</title>
<path fill="none" stroke="#9a32cd" stroke-dasharray="5,2" d="M121.033,-118.511C126.813,-111.686 134.319,-104.081 142.5,-99 158.755,-88.9033 179.206,-82.4877 195.974,-78.556"/>
<polygon fill="#9a32cd" stroke="#9a32cd" points="118.18,-116.476 114.715,-126.488 123.667,-120.822 118.18,-116.476"/>
<text text-anchor="middle" x="150" y="-101.6" font-family="Helvetica,sans-Serif" font-size="8.00"> SM</text>
</g>
<!-- Node4 -->
<g id="node4" class="node"><title>Node4</title>
<g id="a_node4"><a xlink:href="../../dd/dfa/class_q_c_d.html" target="_top" xlink:title="A class for parameters related to QCD, hadrons and quarks. ">
<polygon fill="none" stroke="red" points="13.5,-189.5 13.5,-206.5 47.5,-206.5 47.5,-189.5 13.5,-189.5"/>
<text text-anchor="middle" x="30.5" y="-196.1" font-family="Helvetica,sans-Serif" font-size="8.00">QCD</text>
</a>
</g>
</g>
<!-- Node4&#45;&gt;Node3 -->
<g id="edge3" class="edge"><title>Node4&#45;&gt;Node3</title>
<path fill="none" stroke="midnightblue" d="M48.5161,-183.089C64.347,-170.865 86.795,-153.532 99.5758,-143.663"/>
<polygon fill="midnightblue" stroke="midnightblue" points="46.2814,-180.392 40.5054,-189.274 50.5596,-185.933 46.2814,-180.392"/>
</g>
<!-- Node5&#45;&gt;Node3 -->
<g id="edge4" class="edge"><title>Node5&#45;&gt;Node3</title>
<path fill="none" stroke="#9a32cd" stroke-dasharray="5,2" d="M203.637,-85.3361C179.955,-97.5781 144.394,-115.962 124.445,-126.274"/>
<polygon fill="#9a32cd" stroke="#9a32cd" points="205.401,-88.3643 212.677,-80.663 202.186,-82.1461 205.401,-88.3643"/>
<text text-anchor="middle" x="206.5" y="-101.6" font-family="Helvetica,sans-Serif" font-size="8.00"> myEWSMcache</text>
</g>
<!-- Node7 -->
<g id="node7" class="node"><title>Node7</title>
<g id="a_node7"><a xlink:href="../../d5/dad/class_e_w_s_m_three_loop_e_w.html" target="_top" xlink:title="A class for &#160;three&#45;loop corrections to the EW precision observables. ">
<polygon fill="none" stroke="black" points="232,-0.5 232,-17.5 325,-17.5 325,-0.5 232,-0.5"/>
<text text-anchor="middle" x="278.5" y="-7.1" font-family="Helvetica,sans-Serif" font-size="8.00">EWSMThreeLoopEW</text>
</a>
</g>
</g>
<!-- Node5&#45;&gt;Node7 -->
<g id="edge8" class="edge"><title>Node5&#45;&gt;Node7</title>
<path fill="none" stroke="#9a32cd" stroke-dasharray="5,2" d="M240.536,-55.4075C250.575,-43.401 264.03,-27.3072 271.932,-17.8556"/>
<polygon fill="#9a32cd" stroke="#9a32cd" points="237.688,-53.3574 233.959,-63.2743 243.059,-57.8474 237.688,-53.3574"/>
<text text-anchor="middle" x="268.5" y="-38.6" font-family="Helvetica,sans-Serif" font-size="8.00"> cache</text>
</g>
<!-- Node9 -->
<g id="node9" class="node"><title>Node9</title>
<g id="a_node9"><a xlink:href="../../d5/dde/class_e_w_s_m_approximate_formulae.html" target="_top" xlink:title="A class for approximate formulae of the EW precision observables. ">
<polygon fill="none" stroke="black" points="76.5,-0.5 76.5,-17.5 196.5,-17.5 196.5,-0.5 76.5,-0.5"/>
<text text-anchor="middle" x="136.5" y="-7.1" font-family="Helvetica,sans-Serif" font-size="8.00">EWSMApproximateFormulae</text>
</a>
</g>
</g>
<!-- Node5&#45;&gt;Node9 -->
<g id="edge11" class="edge"><title>Node5&#45;&gt;Node9</title>
<path fill="none" stroke="#9a32cd" stroke-dasharray="5,2" d="M207.503,-57.5951C189.232,-45.3479 162.858,-27.6687 147.932,-17.663"/>
<polygon fill="#9a32cd" stroke="#9a32cd" points="205.72,-60.6135 215.975,-63.2743 209.617,-54.799 205.72,-60.6135"/>
<text text-anchor="middle" x="205" y="-38.6" font-family="Helvetica,sans-Serif" font-size="8.00"> mycache</text>
</g>
<!-- Node6 -->
<g id="node6" class="node"><title>Node6</title>
<g id="a_node6"><a xlink:href="../../d9/db9/class_c_k_m.html" target="_top" xlink:title="A class for the CKM matrix elements. ">
<polygon fill="none" stroke="red" points="65.5,-189.5 65.5,-206.5 99.5,-206.5 99.5,-189.5 65.5,-189.5"/>
<text text-anchor="middle" x="82.5" y="-196.1" font-family="Helvetica,sans-Serif" font-size="8.00">CKM</text>
</a>
</g>
</g>
<!-- Node6&#45;&gt;Node3 -->
<g id="edge6" class="edge"><title>Node6&#45;&gt;Node3</title>
<path fill="none" stroke="#9a32cd" stroke-dasharray="5,2" d="M81.7786,-179.402C82.1184,-173.654 83.13,-167.372 85.5,-162 88.6736,-154.806 94.6736,-148.306 99.8802,-143.604"/>
<polygon fill="#9a32cd" stroke="#9a32cd" points="78.2787,-179.413 81.7725,-189.416 85.2787,-179.418 78.2787,-179.413"/>
<text text-anchor="middle" x="101" y="-164.6" font-family="Helvetica,sans-Serif" font-size="8.00"> myCKM</text>
</g>
<!-- Node7&#45;&gt;Node3 -->
<g id="edge7" class="edge"><title>Node7&#45;&gt;Node3</title>
<path fill="none" stroke="#9a32cd" stroke-dasharray="5,2" d="M281.879,-27.7863C282.437,-33.3317 282.542,-39.448 281.5,-45 275.34,-77.8345 269.966,-92.2581 240.5,-108 210.744,-123.897 172.495,-130.122 145.019,-132.535"/>
<polygon fill="#9a32cd" stroke="#9a32cd" points="285.288,-26.9261 280.319,-17.5689 278.368,-27.9827 285.288,-26.9261"/>
<text text-anchor="middle" x="309" y="-70.1" font-family="Helvetica,sans-Serif" font-size="8.00"> myThreeLoopEW</text>
</g>
<!-- Node8 -->
<g id="node8" class="node"><title>Node8</title>
<g id="a_node8"><a xlink:href="../../d4/d6d/class_flavour.html" target="_top" xlink:title="The parent class in Flavour for calculating all the Wilson coefficients for various Flavor Violating ...">
<polygon fill="none" stroke="red" points="118,-189.5 118,-206.5 161,-206.5 161,-189.5 118,-189.5"/>
<text text-anchor="middle" x="139.5" y="-196.1" font-family="Helvetica,sans-Serif" font-size="8.00">Flavour</text>
</a>
</g>
</g>
<!-- Node8&#45;&gt;Node3 -->
<g id="edge9" class="edge"><title>Node8&#45;&gt;Node3</title>
<path fill="none" stroke="#9a32cd" stroke-dasharray="5,2" d="M131.135,-179.991C125.317,-168.161 117.831,-152.94 113.363,-143.856"/>
<polygon fill="#9a32cd" stroke="#9a32cd" points="128.147,-181.845 135.7,-189.274 134.428,-178.756 128.147,-181.845"/>
<text text-anchor="middle" x="146.5" y="-164.6" font-family="Helvetica,sans-Serif" font-size="8.00"> myFlavour</text>
</g>
<!-- Node9&#45;&gt;Node3 -->
<g id="edge10" class="edge"><title>Node9&#45;&gt;Node3</title>
<path fill="none" stroke="#9a32cd" stroke-dasharray="5,2" d="M120.245,-24.777C110.739,-34.5631 99.6272,-48.2746 94.5,-63 86.7117,-85.368 98.4521,-113.174 105.239,-126.367"/>
<polygon fill="#9a32cd" stroke="#9a32cd" points="122.956,-27.0235 127.687,-17.5437 118.077,-22.004 122.956,-27.0235"/>
<text text-anchor="middle" x="140.5" y="-70.1" font-family="Helvetica,sans-Serif" font-size="8.00"> myApproximateFormulae</text>
</g>
<!-- Node10 -->
<g id="node10" class="node"><title>Node10</title>
<g id="a_node10"><a xlink:href="../../de/d85/class_particle.html" target="_top" xlink:title="A class for particles. ">
<polygon fill="none" stroke="black" points="180,-189.5 180,-206.5 223,-206.5 223,-189.5 180,-189.5"/>
<text text-anchor="middle" x="201.5" y="-196.1" font-family="Helvetica,sans-Serif" font-size="8.00">Particle</text>
</a>
</g>
</g>
<!-- Node10&#45;&gt;Node3 -->
<g id="edge12" class="edge"><title>Node10&#45;&gt;Node3</title>
<path fill="none" stroke="#9a32cd" stroke-dasharray="5,2" d="M190.02,-181.17C184.655,-174.596 177.835,-167.285 170.5,-162 159.479,-154.058 145.658,-147.914 133.959,-143.597"/>
<polygon fill="#9a32cd" stroke="#9a32cd" points="187.483,-183.613 196.346,-189.418 193.037,-179.353 187.483,-183.613"/>
<text text-anchor="middle" x="195" y="-164.6" font-family="Helvetica,sans-Serif" font-size="8.00"> leptons</text>
</g>
</g>
</svg>
