<?xml version="1.0" encoding="UTF-8" standalone="no"?>
<!DOCTYPE svg PUBLIC "-//W3C//DTD SVG 1.1//EN"
 "http://www.w3.org/Graphics/SVG/1.1/DTD/svg11.dtd">
<!-- Generated by graphviz version 2.40.1 (20161225.0304)
 -->
<!-- Title: alpha.h Pages: 1 -->
<svg width="172pt" height="134pt"
 viewBox="0.00 0.00 172.00 134.00" xmlns="http://www.w3.org/2000/svg" xmlns:xlink="http://www.w3.org/1999/xlink">
<g id="graph0" class="graph" transform="scale(1 1) rotate(0) translate(4 130)">
<title>alpha.h</title>
<!-- Node4 -->
<g id="node1" class="node">
<title>Node4</title>
<polygon fill="#bfbfbf" stroke="#000000" points="49,-108.5 49,-125.5 92,-125.5 92,-108.5 49,-108.5"/>
<text text-anchor="middle" x="70.5" y="-115.1" font-family="Helvetica,sans-Serif" font-size="8.00" fill="#000000">alpha.h</text>
</g>
<!-- Node5 -->
<g id="node2" class="node">
<title>Node5</title>
<g id="a_node2"><a xlink:href="../../d9/dbb/alpha_8cpp.html" target="_top" xlink:title="alpha.cpp">
<polygon fill="none" stroke="#000000" points="0,-54.5 0,-71.5 51,-71.5 51,-54.5 0,-54.5"/>
<text text-anchor="middle" x="25.5" y="-61.1" font-family="Helvetica,sans-Serif" font-size="8.00" fill="#000000">alpha.cpp</text>
</a>
</g>
</g>
<!-- Node4&#45;&gt;Node5 -->
<g id="edge1" class="edge">
<title>Node4&#45;&gt;Node5</title>
<path fill="none" stroke="#191970" d="M56.4533,-100.144C48.6131,-90.7357 39.1705,-79.4046 32.7926,-71.7511"/>
<polygon fill="#191970" stroke="#191970" points="53.9785,-102.6414 63.0692,-108.083 59.3561,-98.1601 53.9785,-102.6414"/>
</g>
<!-- Node6 -->
<g id="node3" class="node">
<title>Node6</title>
<g id="a_node3"><a xlink:href="../../df/d7a/_flavour_observables_8h.html" target="_top" xlink:title="FlavourObservables.h">
<polygon fill="none" stroke="#000000" points="69,-54.5 69,-71.5 164,-71.5 164,-54.5 69,-54.5"/>
<text text-anchor="middle" x="116.5" y="-61.1" font-family="Helvetica,sans-Serif" font-size="8.00" fill="#000000">FlavourObservables.h</text>
</a>
</g>
</g>
<!-- Node4&#45;&gt;Node6 -->
<g id="edge2" class="edge">
<title>Node4&#45;&gt;Node6</title>
<path fill="none" stroke="#191970" d="M84.614,-100.4314C92.676,-90.9673 102.4592,-79.4827 109.0454,-71.7511"/>
<polygon fill="#191970" stroke="#191970" points="81.9163,-98.2009 78.096,-108.083 87.245,-102.7402 81.9163,-98.2009"/>
</g>
<!-- Node7 -->
<g id="node4" class="node">
<title>Node7</title>
<g id="a_node4"><a xlink:href="../../d1/de2/_th_obs_factory_8cpp.html" target="_top" xlink:title="ThObsFactory.cpp">
<polygon fill="none" stroke="#000000" points="75.5,-.5 75.5,-17.5 157.5,-17.5 157.5,-.5 75.5,-.5"/>
<text text-anchor="middle" x="116.5" y="-7.1" font-family="Helvetica,sans-Serif" font-size="8.00" fill="#000000">ThObsFactory.cpp</text>
</a>
</g>
</g>
<!-- Node6&#45;&gt;Node7 -->
<g id="edge3" class="edge">
<title>Node6&#45;&gt;Node7</title>
<path fill="none" stroke="#191970" d="M116.5,-43.8045C116.5,-34.9102 116.5,-24.7798 116.5,-17.7511"/>
<polygon fill="#191970" stroke="#191970" points="113.0001,-44.083 116.5,-54.083 120.0001,-44.083 113.0001,-44.083"/>
</g>
</g>
</svg>
