<?xml version="1.0" encoding="UTF-8" standalone="no"?>
<!DOCTYPE svg PUBLIC "-//W3C//DTD SVG 1.1//EN"
 "http://www.w3.org/Graphics/SVG/1.1/DTD/svg11.dtd">
<!-- Generated by graphviz version 2.38.0 (20140413.2041)
 -->
<!-- Title: WilsonCoefficient.h Pages: 1 -->
<svg width="550pt" height="197pt"
 viewBox="0.00 0.00 549.63 197.00" xmlns="http://www.w3.org/2000/svg" xmlns:xlink="http://www.w3.org/1999/xlink">
<g id="graph0" class="graph" transform="scale(1 1) rotate(0) translate(4 193)">
<title>WilsonCoefficient.h</title>
<!-- Node1 -->
<g id="node1" class="node"><title>Node1</title>
<polygon fill="#bfbfbf" stroke="black" points="229.634,-171.5 229.634,-188.5 314.634,-188.5 314.634,-171.5 229.634,-171.5"/>
<text text-anchor="middle" x="272.134" y="-178.1" font-family="Helvetica,sans-Serif" font-size="8.00">WilsonCoefficient.h</text>
</g>
<!-- Node2 -->
<g id="node2" class="node"><title>Node2</title>
<g id="a_node2"><a xlink:href="../../da/dad/gslpp__vector__complex_8h.html" target="_top" xlink:title="gslpp_vector_complex.h">
<polygon fill="none" stroke="black" points="119.634,-117.5 119.634,-134.5 222.634,-134.5 222.634,-117.5 119.634,-117.5"/>
<text text-anchor="middle" x="171.134" y="-124.1" font-family="Helvetica,sans-Serif" font-size="8.00">gslpp_vector_complex.h</text>
</a>
</g>
</g>
<!-- Node1&#45;&gt;Node2 -->
<g id="edge1" class="edge"><title>Node1&#45;&gt;Node2</title>
<path fill="none" stroke="midnightblue" d="M257.232,-171.327C240.802,-162.868 214.144,-149.144 194.84,-139.205"/>
<polygon fill="midnightblue" stroke="midnightblue" points="196.263,-136.001 185.77,-134.535 193.059,-142.225 196.263,-136.001"/>
</g>
<!-- Node7 -->
<g id="node7" class="node"><title>Node7</title>
<g id="a_node7"><a xlink:href="../../d3/de7/_wilson_template_8h.html" target="_top" xlink:title="WilsonTemplate.h">
<polygon fill="none" stroke="black" points="370.634,-117.5 370.634,-134.5 451.634,-134.5 451.634,-117.5 370.634,-117.5"/>
<text text-anchor="middle" x="411.134" y="-124.1" font-family="Helvetica,sans-Serif" font-size="8.00">WilsonTemplate.h</text>
</a>
</g>
</g>
<!-- Node1&#45;&gt;Node7 -->
<g id="edge7" class="edge"><title>Node1&#45;&gt;Node7</title>
<path fill="none" stroke="midnightblue" d="M292.346,-171.439C315.714,-162.697 354.399,-148.225 381.245,-138.182"/>
<polygon fill="midnightblue" stroke="midnightblue" points="382.759,-141.352 390.898,-134.57 380.306,-134.796 382.759,-141.352"/>
</g>
<!-- Node3 -->
<g id="node3" class="node"><title>Node3</title>
<polygon fill="none" stroke="#bfbfbf" points="54.6345,-0.5 54.6345,-17.5 101.634,-17.5 101.634,-0.5 54.6345,-0.5"/>
<text text-anchor="middle" x="78.1345" y="-7.1" font-family="Helvetica,sans-Serif" font-size="8.00">iostream</text>
</g>
<!-- Node2&#45;&gt;Node3 -->
<g id="edge2" class="edge"><title>Node2&#45;&gt;Node3</title>
<path fill="none" stroke="midnightblue" d="M119.32,-118.209C75.9912,-111.342 19.0891,-99.1353 5.13445,-81 -2.18352,-71.4896 -0.767423,-64.4483 5.13445,-54 13.7314,-38.7804 29.9374,-28.238 44.8999,-21.297"/>
<polygon fill="midnightblue" stroke="midnightblue" points="46.6204,-24.3691 54.4604,-17.2428 43.8876,-17.9246 46.6204,-24.3691"/>
</g>
<!-- Node4 -->
<g id="node4" class="node"><title>Node4</title>
<polygon fill="none" stroke="#bfbfbf" points="14.1345,-54.5 14.1345,-80.5 114.134,-80.5 114.134,-54.5 14.1345,-54.5"/>
<text text-anchor="start" x="22.1345" y="-70.1" font-family="Helvetica,sans-Serif" font-size="8.00">gsl/gsl_vector_complex</text>
<text text-anchor="middle" x="64.1345" y="-61.1" font-family="Helvetica,sans-Serif" font-size="8.00">_double.h</text>
</g>
<!-- Node2&#45;&gt;Node4 -->
<g id="edge3" class="edge"><title>Node2&#45;&gt;Node4</title>
<path fill="none" stroke="midnightblue" d="M156.704,-117.38C141.171,-109.178 115.977,-95.875 95.7918,-85.2163"/>
<polygon fill="midnightblue" stroke="midnightblue" points="97.3998,-82.1074 86.9226,-80.533 94.1312,-88.2974 97.3998,-82.1074"/>
</g>
<!-- Node5 -->
<g id="node5" class="node"><title>Node5</title>
<g id="a_node5"><a xlink:href="../../d1/dc2/gslpp__complex_8h.html" target="_top" xlink:title="gslpp_complex.h">
<polygon fill="none" stroke="red" points="132.634,-59 132.634,-76 209.634,-76 209.634,-59 132.634,-59"/>
<text text-anchor="middle" x="171.134" y="-65.6" font-family="Helvetica,sans-Serif" font-size="8.00">gslpp_complex.h</text>
</a>
</g>
</g>
<!-- Node2&#45;&gt;Node5 -->
<g id="edge4" class="edge"><title>Node2&#45;&gt;Node5</title>
<path fill="none" stroke="midnightblue" d="M171.134,-117.144C171.134,-109.217 171.134,-96.702 171.134,-86.3516"/>
<polygon fill="midnightblue" stroke="midnightblue" points="174.635,-86.2893 171.134,-76.2894 167.635,-86.2894 174.635,-86.2893"/>
</g>
<!-- Node6 -->
<g id="node6" class="node"><title>Node6</title>
<g id="a_node6"><a xlink:href="../../d3/d9f/gslpp__vector__base_8h.html" target="_top" xlink:title="gslpp_vector_base.h">
<polygon fill="none" stroke="black" points="228.134,-59 228.134,-76 318.134,-76 318.134,-59 228.134,-59"/>
<text text-anchor="middle" x="273.134" y="-65.6" font-family="Helvetica,sans-Serif" font-size="8.00">gslpp_vector_base.h</text>
</a>
</g>
</g>
<!-- Node2&#45;&gt;Node6 -->
<g id="edge6" class="edge"><title>Node2&#45;&gt;Node6</title>
<path fill="none" stroke="midnightblue" d="M184.891,-117.38C201.696,-108.071 230.366,-92.1903 250.454,-81.0634"/>
<polygon fill="midnightblue" stroke="midnightblue" points="252.219,-84.0868 259.27,-76.1796 248.827,-77.9634 252.219,-84.0868"/>
</g>
<!-- Node5&#45;&gt;Node3 -->
<g id="edge5" class="edge"><title>Node5&#45;&gt;Node3</title>
<path fill="none" stroke="midnightblue" d="M158.592,-58.8802C143.477,-49.6974 117.837,-34.1203 99.5642,-23.0192"/>
<polygon fill="midnightblue" stroke="midnightblue" points="101.139,-19.8805 90.7751,-17.6796 97.5043,-25.863 101.139,-19.8805"/>
</g>
<!-- Node8 -->
<g id="node8" class="node"><title>Node8</title>
<g id="a_node8"><a xlink:href="../../d4/d36/_order_scheme_8h.html" target="_top" xlink:title="OrderScheme.h">
<polygon fill="none" stroke="black" points="336.634,-59 336.634,-76 409.634,-76 409.634,-59 336.634,-59"/>
<text text-anchor="middle" x="373.134" y="-65.6" font-family="Helvetica,sans-Serif" font-size="8.00">OrderScheme.h</text>
</a>
</g>
</g>
<!-- Node7&#45;&gt;Node8 -->
<g id="edge8" class="edge"><title>Node7&#45;&gt;Node8</title>
<path fill="none" stroke="midnightblue" d="M405.851,-117.144C400.236,-108.795 391.198,-95.3577 384.043,-84.7194"/>
<polygon fill="midnightblue" stroke="midnightblue" points="386.858,-82.6339 378.373,-76.2894 381.05,-86.5405 386.858,-82.6339"/>
</g>
<!-- Node9 -->
<g id="node9" class="node"><title>Node9</title>
<polygon fill="none" stroke="#bfbfbf" points="427.634,-59 427.634,-76 472.634,-76 472.634,-59 427.634,-59"/>
<text text-anchor="middle" x="450.134" y="-65.6" font-family="Helvetica,sans-Serif" font-size="8.00">sstream</text>
</g>
<!-- Node7&#45;&gt;Node9 -->
<g id="edge9" class="edge"><title>Node7&#45;&gt;Node9</title>
<path fill="none" stroke="midnightblue" d="M416.557,-117.144C422.32,-108.795 431.596,-95.3577 438.939,-84.7194"/>
<polygon fill="midnightblue" stroke="midnightblue" points="441.957,-86.5074 444.758,-76.2894 436.197,-82.5309 441.957,-86.5074"/>
</g>
<!-- Node10 -->
<g id="node10" class="node"><title>Node10</title>
<polygon fill="none" stroke="#bfbfbf" points="490.634,-59 490.634,-76 541.634,-76 541.634,-59 490.634,-59"/>
<text text-anchor="middle" x="516.134" y="-65.6" font-family="Helvetica,sans-Serif" font-size="8.00">stdexcept</text>
</g>
<!-- Node7&#45;&gt;Node10 -->
<g id="edge10" class="edge"><title>Node7&#45;&gt;Node10</title>
<path fill="none" stroke="midnightblue" d="M425.295,-117.38C442.595,-108.071 472.108,-92.1903 492.787,-81.0634"/>
<polygon fill="midnightblue" stroke="midnightblue" points="494.715,-84.0002 501.863,-76.1796 491.398,-77.836 494.715,-84.0002"/>
</g>
</g>
</svg>
