<?xml version="1.0" encoding="UTF-8" standalone="no"?>
<!DOCTYPE svg PUBLIC "-//W3C//DTD SVG 1.1//EN"
 "http://www.w3.org/Graphics/SVG/1.1/DTD/svg11.dtd">
<!-- Generated by graphviz version 2.40.1 (20161225.0304)
 -->
<!-- Title: stability_GTHDM Pages: 1 -->
<svg width="543pt" height="297pt"
 viewBox="0.00 0.00 542.50 297.00" xmlns="http://www.w3.org/2000/svg" xmlns:xlink="http://www.w3.org/1999/xlink">
<g id="graph0" class="graph" transform="scale(1 1) rotate(0) translate(4 293)">
<title>stability_GTHDM</title>
<!-- Node1 -->
<g id="node1" class="node">
<title>Node1</title>
<polygon fill="#bfbfbf" stroke="#000000" points="35.5,-81.5 35.5,-98.5 112.5,-98.5 112.5,-81.5 35.5,-81.5"/>
<text text-anchor="middle" x="74" y="-88.1" font-family="Helvetica,sans-Serif" font-size="8.00" fill="#000000">stability_GTHDM</text>
</g>
<!-- Node2 -->
<g id="node2" class="node">
<title>Node2</title>
<g id="a_node2"><a xlink:href="../../d3/d55/class_general_t_h_d_m.html" target="_top" xlink:title="A base class for generic Two&#45;Higgs&#45;Doublet models. ">
<polygon fill="none" stroke="#000000" points="241,-153.5 241,-170.5 309,-170.5 309,-153.5 241,-153.5"/>
<text text-anchor="middle" x="275" y="-160.1" font-family="Helvetica,sans-Serif" font-size="8.00" fill="#000000">GeneralTHDM</text>
</a>
</g>
</g>
<!-- Node2&#45;&gt;Node1 -->
<g id="edge1" class="edge">
<title>Node2&#45;&gt;Node1</title>
<path fill="none" stroke="#9a32cd" stroke-dasharray="5,2" d="M230.6671,-157.7877C190.41,-153.3782 134.4497,-145.6134 115,-135 99.0427,-126.2923 86.02,-108.9719 79.1919,-98.5428"/>
<polygon fill="#9a32cd" stroke="#9a32cd" points="230.4749,-161.2869 240.7887,-158.8626 231.2142,-154.326 230.4749,-161.2869"/>
<text text-anchor="middle" x="136.5" y="-124.1" font-family="Helvetica,sans-Serif" font-size="8.00" fill="#000000"> myGTHDM</text>
</g>
<!-- Node48 -->
<g id="node6" class="node">
<title>Node48</title>
<g id="a_node6"><a xlink:href="../../df/d2f/class_general_t_h_d_m_matching.html" target="_top" xlink:title="GeneralTHDMMatching">
<polygon fill="none" stroke="#ff0000" points="229.5,-81.5 229.5,-98.5 330.5,-98.5 330.5,-81.5 229.5,-81.5"/>
<text text-anchor="middle" x="280" y="-88.1" font-family="Helvetica,sans-Serif" font-size="8.00" fill="#000000">GeneralTHDMMatching</text>
</a>
</g>
</g>
<!-- Node2&#45;&gt;Node48 -->
<g id="edge7" class="edge">
<title>Node2&#45;&gt;Node48</title>
<path fill="none" stroke="#9a32cd" stroke-dasharray="5,2" d="M274.8954,-143.1668C274.9858,-135.0969 275.2725,-125.5736 276,-117 276.5128,-110.9562 277.5128,-104.2062 278.3846,-98.9672"/>
<polygon fill="#9a32cd" stroke="#9a32cd" points="271.395,-143.3483 274.8725,-153.3561 278.395,-143.364 271.395,-143.3483"/>
<text text-anchor="middle" x="297.5" y="-124.1" font-family="Helvetica,sans-Serif" font-size="8.00" fill="#000000"> myGTHDM</text>
</g>
<!-- Node49 -->
<g id="node8" class="node">
<title>Node49</title>
<g id="a_node8"><a xlink:href="../../dc/dfd/class_general_t_h_d_mcache.html" target="_top" xlink:title="GeneralTHDMcache">
<polygon fill="none" stroke="#ff0000" points="445.5,-81.5 445.5,-98.5 534.5,-98.5 534.5,-81.5 445.5,-81.5"/>
<text text-anchor="middle" x="490" y="-88.1" font-family="Helvetica,sans-Serif" font-size="8.00" fill="#000000">GeneralTHDMcache</text>
</a>
</g>
</g>
<!-- Node2&#45;&gt;Node49 -->
<g id="edge11" class="edge">
<title>Node2&#45;&gt;Node49</title>
<path fill="none" stroke="#9a32cd" stroke-dasharray="5,2" d="M299.9656,-147.9217C306.3472,-143.9911 313.0756,-139.5448 319,-135 328.2293,-127.9198 327.6138,-122.2379 338,-117 340.438,-115.7705 401.3938,-105.1606 445.3602,-97.6141"/>
<polygon fill="#9a32cd" stroke="#9a32cd" points="297.7985,-145.1385 290.9979,-153.2627 301.3805,-151.1527 297.7985,-145.1385"/>
<text text-anchor="middle" x="359.5" y="-124.1" font-family="Helvetica,sans-Serif" font-size="8.00" fill="#000000"> myGTHDM</text>
</g>
<!-- Node3 -->
<g id="node3" class="node">
<title>Node3</title>
<g id="a_node3"><a xlink:href="../../d2/df3/class_n_pbase.html" target="_top" xlink:title="The auxiliary base model class for other model classes. ">
<polygon fill="none" stroke="#000000" points="252.5,-208.5 252.5,-225.5 297.5,-225.5 297.5,-208.5 252.5,-208.5"/>
<text text-anchor="middle" x="275" y="-215.1" font-family="Helvetica,sans-Serif" font-size="8.00" fill="#000000">NPbase</text>
</a>
</g>
</g>
<!-- Node3&#45;&gt;Node2 -->
<g id="edge2" class="edge">
<title>Node3&#45;&gt;Node2</title>
<path fill="none" stroke="#191970" d="M275,-198.1166C275,-188.8173 275,-178.0557 275,-170.7149"/>
<polygon fill="#191970" stroke="#191970" points="271.5001,-198.4062 275,-208.4063 278.5001,-198.4063 271.5001,-198.4062"/>
</g>
<!-- Node4 -->
<g id="node4" class="node">
<title>Node4</title>
<g id="a_node4"><a xlink:href="../../dc/dd5/class_standard_model.html" target="_top" xlink:title="A model class for the Standard Model. ">
<polygon fill="none" stroke="#ff0000" points="239.5,-271.5 239.5,-288.5 310.5,-288.5 310.5,-271.5 239.5,-271.5"/>
<text text-anchor="middle" x="275" y="-278.1" font-family="Helvetica,sans-Serif" font-size="8.00" fill="#000000">StandardModel</text>
</a>
</g>
</g>
<!-- Node4&#45;&gt;Node3 -->
<g id="edge3" class="edge">
<title>Node4&#45;&gt;Node3</title>
<path fill="none" stroke="#191970" d="M273.2949,-261.1471C272.9733,-255.6232 272.7939,-249.5712 273,-244 273.2293,-237.7998 273.7539,-230.8151 274.2083,-225.5033"/>
<polygon fill="#191970" stroke="#191970" points="269.8279,-261.7155 274.0768,-271.421 276.8078,-261.1842 269.8279,-261.7155"/>
</g>
<!-- Node4&#45;&gt;Node3 -->
<g id="edge4" class="edge">
<title>Node4&#45;&gt;Node3</title>
<path fill="none" stroke="#9a32cd" stroke-dasharray="5,2" d="M275,-261.096C275,-249.3381 275,-234.777 275,-225.6855"/>
<polygon fill="#9a32cd" stroke="#9a32cd" points="271.5001,-261.2401 275,-271.2401 278.5001,-261.2402 271.5001,-261.2401"/>
<text text-anchor="middle" x="289.5" y="-246.6" font-family="Helvetica,sans-Serif" font-size="8.00" fill="#000000"> trueSM</text>
</g>
<!-- Node47 -->
<g id="node5" class="node">
<title>Node47</title>
<g id="a_node5"><a xlink:href="../../d5/d76/class_matching.html" target="_top" xlink:title="Matching\&lt; GeneralTHDMMatching,\l GeneralTHDM \&gt;">
<polygon fill="none" stroke="#000000" points="209,-.5 209,-26.5 351,-26.5 351,-.5 209,-.5"/>
<text text-anchor="start" x="217" y="-16.1" font-family="Helvetica,sans-Serif" font-size="8.00" fill="#000000">Matching&lt; GeneralTHDMMatching,</text>
<text text-anchor="middle" x="280" y="-7.1" font-family="Helvetica,sans-Serif" font-size="8.00" fill="#000000"> GeneralTHDM &gt;</text>
</a>
</g>
</g>
<!-- Node47&#45;&gt;Node2 -->
<g id="edge5" class="edge">
<title>Node47&#45;&gt;Node2</title>
<path fill="none" stroke="#9a32cd" stroke-dasharray="5,2" d="M237.6125,-31.0594C216.8393,-42.0918 193.8033,-58.5379 182,-81 164.2716,-114.7377 216.1585,-140.7191 249.4229,-153.4195"/>
<polygon fill="#9a32cd" stroke="#9a32cd" points="239.2829,-34.1371 246.6423,-26.5154 236.1362,-27.8842 239.2829,-34.1371"/>
<text text-anchor="middle" x="201.5" y="-88.1" font-family="Helvetica,sans-Serif" font-size="8.00" fill="#000000"> GTHDMM</text>
</g>
<!-- Node48&#45;&gt;Node47 -->
<g id="edge6" class="edge">
<title>Node48&#45;&gt;Node47</title>
<path fill="none" stroke="#9a32cd" stroke-dasharray="5,2" d="M280,-70.8869C280,-57.0389 280,-38.683 280,-26.5015"/>
<polygon fill="#9a32cd" stroke="#9a32cd" points="276.5001,-71.2244 280,-81.2245 283.5001,-71.2245 276.5001,-71.2244"/>
<text text-anchor="middle" x="286.5" y="-52.1" font-family="Helvetica,sans-Serif" font-size="8.00" fill="#000000"> obj</text>
</g>
<!-- Node32 -->
<g id="node7" class="node">
<title>Node32</title>
<g id="a_node7"><a xlink:href="../../d5/d76/class_matching.html" target="_top" xlink:title="Matching\&lt; T, U \&gt;">
<polygon fill="none" stroke="#ff0000" points="349,-81.5 349,-98.5 427,-98.5 427,-81.5 349,-81.5"/>
<text text-anchor="middle" x="388" y="-88.1" font-family="Helvetica,sans-Serif" font-size="8.00" fill="#000000">Matching&lt; T, U &gt;</text>
</a>
</g>
</g>
<!-- Node32&#45;&gt;Node47 -->
<g id="edge8" class="edge">
<title>Node32&#45;&gt;Node47</title>
<path fill="none" stroke="#ffa500" stroke-dasharray="5,2" d="M367.2173,-75.2789C347.2733,-61.1519 317.4442,-40.023 298.3551,-26.5015"/>
<polygon fill="#ffa500" stroke="#ffa500" points="365.4277,-78.3004 375.611,-81.2245 369.4738,-72.5882 365.4277,-78.3004"/>
<text text-anchor="start" x="346" y="-56.6" font-family="Helvetica,sans-Serif" font-size="8.00" fill="#000000"> &lt; GeneralTHDMMatching,</text>
<text text-anchor="middle" x="394" y="-47.6" font-family="Helvetica,sans-Serif" font-size="8.00" fill="#000000"> GeneralTHDM &gt;</text>
</g>
<!-- Node49&#45;&gt;Node2 -->
<g id="edge9" class="edge">
<title>Node49&#45;&gt;Node2</title>
<path fill="none" stroke="#9a32cd" stroke-dasharray="5,2" d="M458.4043,-102.2858C447.1665,-106.7732 434.4618,-111.9811 423,-117 405.8814,-124.4958 402.6084,-128.7408 385,-135 360.172,-143.8255 331.1973,-150.8094 309.2195,-155.4616"/>
<polygon fill="#9a32cd" stroke="#9a32cd" points="459.8257,-105.4874 467.8341,-98.5508 457.2479,-98.9793 459.8257,-105.4874"/>
<text text-anchor="middle" x="455" y="-124.1" font-family="Helvetica,sans-Serif" font-size="8.00" fill="#000000"> myGTHDMcache</text>
</g>
<!-- Node10 -->
<g id="node9" class="node">
<title>Node10</title>
<g id="a_node9"><a xlink:href="../../d4/d7b/class_p_vfunctions.html" target="_top" xlink:title="A class for Passarino&#45;Veltman functions. ">
<polygon fill="none" stroke="#ff0000" points="464.5,-153.5 464.5,-170.5 523.5,-170.5 523.5,-153.5 464.5,-153.5"/>
<text text-anchor="middle" x="494" y="-160.1" font-family="Helvetica,sans-Serif" font-size="8.00" fill="#000000">PVfunctions</text>
</a>
</g>
</g>
<!-- Node10&#45;&gt;Node49 -->
<g id="edge10" class="edge">
<title>Node10&#45;&gt;Node49</title>
<path fill="none" stroke="#9a32cd" stroke-dasharray="5,2" d="M492.9531,-143.1562C492.1507,-128.7123 491.0811,-109.4594 490.4739,-98.531"/>
<polygon fill="#9a32cd" stroke="#9a32cd" points="489.476,-143.6675 493.5254,-153.4579 496.4653,-143.2791 489.476,-143.6675"/>
<text text-anchor="middle" x="498.5" y="-124.1" font-family="Helvetica,sans-Serif" font-size="8.00" fill="#000000"> PV</text>
</g>
<!-- Node52 -->
<g id="node10" class="node">
<title>Node52</title>
<g id="a_node10"><a xlink:href="../../d6/d73/classgslpp_1_1vector_3_01double_01_4.html" target="_top" xlink:title="A class for constructing and defining operations on real vectors. ">
<polygon fill="none" stroke="#000000" points="0,-153.5 0,-170.5 100,-170.5 100,-153.5 0,-153.5"/>
<text text-anchor="middle" x="50" y="-160.1" font-family="Helvetica,sans-Serif" font-size="8.00" fill="#000000">gslpp::vector&lt; double &gt;</text>
</a>
</g>
</g>
<!-- Node52&#45;&gt;Node1 -->
<g id="edge12" class="edge">
<title>Node52&#45;&gt;Node1</title>
<path fill="none" stroke="#9a32cd" stroke-dasharray="5,2" d="M47.6432,-143.2325C47.2965,-134.9438 47.8641,-125.2338 51,-117 53.6299,-110.0946 58.848,-103.7304 63.65,-98.9173"/>
<polygon fill="#9a32cd" stroke="#9a32cd" points="44.1727,-143.7237 48.5273,-153.3822 51.1462,-143.1162 44.1727,-143.7237"/>
<text text-anchor="middle" x="71.5" y="-128.6" font-family="Helvetica,sans-Serif" font-size="8.00" fill="#000000"> vecMinus1</text>
<text text-anchor="middle" x="71.5" y="-119.6" font-family="Helvetica,sans-Serif" font-size="8.00" fill="#000000">vecStability</text>
</g>
</g>
</svg>
