<?xml version="1.0" encoding="UTF-8" standalone="no"?>
<!DOCTYPE svg PUBLIC "-//W3C//DTD SVG 1.1//EN"
 "http://www.w3.org/Graphics/SVG/1.1/DTD/svg11.dtd">
<!-- Generated by graphviz version 2.40.1 (20161225.0304)
 -->
<!-- Title: Heffmueconv.h Pages: 1 -->
<svg width="565pt" height="188pt"
 viewBox="0.00 0.00 564.50 188.00" xmlns="http://www.w3.org/2000/svg" xmlns:xlink="http://www.w3.org/1999/xlink">
<g id="graph0" class="graph" transform="scale(1 1) rotate(0) translate(4 184)">
<title>Heffmueconv.h</title>
<!-- Node49 -->
<g id="node1" class="node">
<title>Node49</title>
<polygon fill="#bfbfbf" stroke="#000000" points="264.5,-162.5 264.5,-179.5 334.5,-179.5 334.5,-162.5 264.5,-162.5"/>
<text text-anchor="middle" x="299.5" y="-169.1" font-family="Helvetica,sans-Serif" font-size="8.00" fill="#000000">Heffmueconv.h</text>
</g>
<!-- Node50 -->
<g id="node2" class="node">
<title>Node50</title>
<g id="a_node2"><a xlink:href="../../db/d63/_lepton_flavour_8h.html" target="_top" xlink:title="LeptonFlavour.h">
<polygon fill="none" stroke="#ff0000" points="215.5,-108.5 215.5,-125.5 289.5,-125.5 289.5,-108.5 215.5,-108.5"/>
<text text-anchor="middle" x="252.5" y="-115.1" font-family="Helvetica,sans-Serif" font-size="8.00" fill="#000000">LeptonFlavour.h</text>
</a>
</g>
</g>
<!-- Node49&#45;&gt;Node50 -->
<g id="edge1" class="edge">
<title>Node49&#45;&gt;Node50</title>
<path fill="none" stroke="#191970" d="M285.0792,-154.4314C276.8419,-144.9673 266.8461,-133.4827 260.1167,-125.7511"/>
<polygon fill="#191970" stroke="#191970" points="282.5336,-156.8378 291.7389,-162.083 287.8137,-152.2421 282.5336,-156.8378"/>
</g>
<!-- Node68 -->
<g id="node10" class="node">
<title>Node68</title>
<g id="a_node10"><a xlink:href="../../da/d13/_heffmueconv_8cpp.html" target="_top" xlink:title="Heffmueconv.cpp">
<polygon fill="none" stroke="#000000" points="308,-108.5 308,-125.5 387,-125.5 387,-108.5 308,-108.5"/>
<text text-anchor="middle" x="347.5" y="-115.1" font-family="Helvetica,sans-Serif" font-size="8.00" fill="#000000">Heffmueconv.cpp</text>
</a>
</g>
</g>
<!-- Node49&#45;&gt;Node68 -->
<g id="edge13" class="edge">
<title>Node49&#45;&gt;Node68</title>
<path fill="none" stroke="#191970" d="M314.2277,-154.4314C322.6401,-144.9673 332.8487,-133.4827 339.7213,-125.7511"/>
<polygon fill="#191970" stroke="#191970" points="311.454,-152.2836 307.4262,-162.083 316.6858,-156.9342 311.454,-152.2836"/>
</g>
<!-- Node51 -->
<g id="node3" class="node">
<title>Node51</title>
<g id="a_node3"><a xlink:href="../../d8/da7/_general_t_h_d_mgminus2_8h.html" target="_top" xlink:title="GeneralTHDMgminus2.h">
<polygon fill="none" stroke="#ff0000" points="0,-54.5 0,-71.5 105,-71.5 105,-54.5 0,-54.5"/>
<text text-anchor="middle" x="52.5" y="-61.1" font-family="Helvetica,sans-Serif" font-size="8.00" fill="#000000">GeneralTHDMgminus2.h</text>
</a>
</g>
</g>
<!-- Node50&#45;&gt;Node51 -->
<g id="edge2" class="edge">
<title>Node50&#45;&gt;Node51</title>
<path fill="none" stroke="#191970" d="M211.1261,-105.8291C173.3642,-95.6333 118.3604,-80.7823 84.0423,-71.5164"/>
<polygon fill="#191970" stroke="#191970" points="210.2428,-109.2158 220.8094,-108.4435 212.0675,-102.4578 210.2428,-109.2158"/>
</g>
<!-- Node55 -->
<g id="node4" class="node">
<title>Node55</title>
<g id="a_node4"><a xlink:href="../../d8/d1b/gminus2_8h.html" target="_top" xlink:title="gminus2.h">
<polygon fill="none" stroke="#ff0000" points="123,-54.5 123,-71.5 176,-71.5 176,-54.5 123,-54.5"/>
<text text-anchor="middle" x="149.5" y="-61.1" font-family="Helvetica,sans-Serif" font-size="8.00" fill="#000000">gminus2.h</text>
</a>
</g>
</g>
<!-- Node50&#45;&gt;Node55 -->
<g id="edge3" class="edge">
<title>Node50&#45;&gt;Node55</title>
<path fill="none" stroke="#191970" d="M226.9208,-103.5895C207.8766,-93.6052 182.4356,-80.2672 166.0077,-71.6545"/>
<polygon fill="#191970" stroke="#191970" points="225.4695,-106.7805 235.9513,-108.324 228.7198,-100.5808 225.4695,-106.7805"/>
</g>
<!-- Node57 -->
<g id="node5" class="node">
<title>Node57</title>
<g id="a_node5"><a xlink:href="../../d5/db9/_lepton_flavour_observables_8h.html" target="_top" xlink:title="LeptonFlavourObservables.h">
<polygon fill="none" stroke="#ff0000" points="193,-.5 193,-17.5 312,-17.5 312,-.5 193,-.5"/>
<text text-anchor="middle" x="252.5" y="-7.1" font-family="Helvetica,sans-Serif" font-size="8.00" fill="#000000">LeptonFlavourObservables.h</text>
</a>
</g>
</g>
<!-- Node50&#45;&gt;Node57 -->
<g id="edge5" class="edge">
<title>Node50&#45;&gt;Node57</title>
<path fill="none" stroke="#191970" d="M237.9382,-100.2709C228.9084,-87.8455 219.8431,-70.299 224.5,-54 228.4939,-40.0212 238.2236,-26.156 245.0876,-17.5891"/>
<polygon fill="#191970" stroke="#191970" points="235.36,-102.653 244.3104,-108.3223 240.8489,-98.3088 235.36,-102.653"/>
</g>
<!-- Node58 -->
<g id="node6" class="node">
<title>Node58</title>
<g id="a_node6"><a xlink:href="../../df/d7b/li__3lj_8h.html" target="_top" xlink:title="li_3lj.h">
<polygon fill="none" stroke="#ff0000" points="233,-54.5 233,-71.5 272,-71.5 272,-54.5 233,-54.5"/>
<text text-anchor="middle" x="252.5" y="-61.1" font-family="Helvetica,sans-Serif" font-size="8.00" fill="#000000">li_3lj.h</text>
</a>
</g>
</g>
<!-- Node50&#45;&gt;Node58 -->
<g id="edge6" class="edge">
<title>Node50&#45;&gt;Node58</title>
<path fill="none" stroke="#191970" d="M252.5,-97.8045C252.5,-88.9102 252.5,-78.7798 252.5,-71.7511"/>
<polygon fill="#191970" stroke="#191970" points="249.0001,-98.083 252.5,-108.083 256.0001,-98.083 249.0001,-98.083"/>
</g>
<!-- Node60 -->
<g id="node7" class="node">
<title>Node60</title>
<g id="a_node7"><a xlink:href="../../d2/d95/li__lj__gamma_8h.html" target="_top" xlink:title="li_lj_gamma.h">
<polygon fill="none" stroke="#ff0000" points="290.5,-54.5 290.5,-71.5 356.5,-71.5 356.5,-54.5 290.5,-54.5"/>
<text text-anchor="middle" x="323.5" y="-61.1" font-family="Helvetica,sans-Serif" font-size="8.00" fill="#000000">li_lj_gamma.h</text>
</a>
</g>
</g>
<!-- Node50&#45;&gt;Node60 -->
<g id="edge8" class="edge">
<title>Node50&#45;&gt;Node60</title>
<path fill="none" stroke="#191970" d="M272.0897,-102.1008C284.8676,-92.3824 301.1127,-80.0269 311.8851,-71.8339"/>
<polygon fill="#191970" stroke="#191970" points="269.7481,-99.4844 263.9074,-108.324 273.9857,-105.0561 269.7481,-99.4844"/>
</g>
<!-- Node62 -->
<g id="node8" class="node">
<title>Node62</title>
<g id="a_node8"><a xlink:href="../../d8/df5/mueconversion_8h.html" target="_top" xlink:title="mueconversion.h">
<polygon fill="none" stroke="#ff0000" points="375,-54.5 375,-71.5 452,-71.5 452,-54.5 375,-54.5"/>
<text text-anchor="middle" x="413.5" y="-61.1" font-family="Helvetica,sans-Serif" font-size="8.00" fill="#000000">mueconversion.h</text>
</a>
</g>
</g>
<!-- Node50&#45;&gt;Node62 -->
<g id="edge10" class="edge">
<title>Node50&#45;&gt;Node62</title>
<path fill="none" stroke="#191970" d="M287.7648,-105.172C318.0809,-95.0039 361.0702,-80.5852 388.1084,-71.5164"/>
<polygon fill="#191970" stroke="#191970" points="286.3789,-101.9452 278.0109,-108.4435 288.6049,-108.5819 286.3789,-101.9452"/>
</g>
<!-- Node64 -->
<g id="node9" class="node">
<title>Node64</title>
<g id="a_node9"><a xlink:href="../../dd/df3/_standard_model_2src_2_standard_model_8cpp.html" target="_top" xlink:title="StandardModel.cpp">
<polygon fill="none" stroke="#000000" points="470.5,-54.5 470.5,-71.5 556.5,-71.5 556.5,-54.5 470.5,-54.5"/>
<text text-anchor="middle" x="513.5" y="-61.1" font-family="Helvetica,sans-Serif" font-size="8.00" fill="#000000">StandardModel.cpp</text>
</a>
</g>
</g>
<!-- Node50&#45;&gt;Node64 -->
<g id="edge12" class="edge">
<title>Node50&#45;&gt;Node64</title>
<path fill="none" stroke="#191970" d="M299.6878,-107.237C348.9073,-97.0537 425.299,-81.2485 472.204,-71.544"/>
<polygon fill="#191970" stroke="#191970" points="298.7012,-103.8669 289.6178,-109.3205 300.1195,-110.7217 298.7012,-103.8669"/>
</g>
<!-- Node55&#45;&gt;Node57 -->
<g id="edge4" class="edge">
<title>Node55&#45;&gt;Node57</title>
<path fill="none" stroke="#191970" d="M175.0792,-49.5895C194.1234,-39.6052 219.5644,-26.2672 235.9923,-17.6545"/>
<polygon fill="#191970" stroke="#191970" points="173.2802,-46.5808 166.0487,-54.324 176.5305,-52.7805 173.2802,-46.5808"/>
</g>
<!-- Node58&#45;&gt;Node57 -->
<g id="edge7" class="edge">
<title>Node58&#45;&gt;Node57</title>
<path fill="none" stroke="#191970" d="M252.5,-43.8045C252.5,-34.9102 252.5,-24.7798 252.5,-17.7511"/>
<polygon fill="#191970" stroke="#191970" points="249.0001,-44.083 252.5,-54.083 256.0001,-44.083 249.0001,-44.083"/>
</g>
<!-- Node60&#45;&gt;Node57 -->
<g id="edge9" class="edge">
<title>Node60&#45;&gt;Node57</title>
<path fill="none" stroke="#191970" d="M303.9103,-48.1008C291.1324,-38.3824 274.8873,-26.0269 264.1149,-17.8339"/>
<polygon fill="#191970" stroke="#191970" points="302.0143,-51.0561 312.0926,-54.324 306.2519,-45.4844 302.0143,-51.0561"/>
</g>
<!-- Node62&#45;&gt;Node57 -->
<g id="edge11" class="edge">
<title>Node62&#45;&gt;Node57</title>
<path fill="none" stroke="#191970" d="M378.2352,-51.172C347.9191,-41.0039 304.9298,-26.5852 277.8916,-17.5164"/>
<polygon fill="#191970" stroke="#191970" points="377.3951,-54.5819 387.9891,-54.4435 379.6211,-47.9452 377.3951,-54.5819"/>
</g>
</g>
</svg>
