<?xml version="1.0" encoding="UTF-8" standalone="no"?>
<!DOCTYPE svg PUBLIC "-//W3C//DTD SVG 1.1//EN"
 "http://www.w3.org/Graphics/SVG/1.1/DTD/svg11.dtd">
<!-- Generated by graphviz version 2.38.0 (20140413.2041)
 -->
<!-- Title: THDMfunctions.h Pages: 1 -->
<svg width="372pt" height="242pt"
 viewBox="0.00 0.00 372.00 242.00" xmlns="http://www.w3.org/2000/svg" xmlns:xlink="http://www.w3.org/1999/xlink">
<g id="graph0" class="graph" transform="scale(1 1) rotate(0) translate(4 238)">
<title>THDMfunctions.h</title>
<!-- Node1 -->
<g id="node1" class="node"><title>Node1</title>
<polygon fill="#bfbfbf" stroke="black" points="107.5,-216.5 107.5,-233.5 185.5,-233.5 185.5,-216.5 107.5,-216.5"/>
<text text-anchor="middle" x="146.5" y="-223.1" font-family="Helvetica,sans-Serif" font-size="8.00">THDMfunctions.h</text>
</g>
<!-- Node2 -->
<g id="node2" class="node"><title>Node2</title>
<g id="a_node2"><a xlink:href="../../d8/d4f/_c_podd_higgs_8h.html" target="_top" xlink:title="CPoddHiggs.h">
<polygon fill="none" stroke="black" points="12.5,-108.5 12.5,-125.5 80.5,-125.5 80.5,-108.5 12.5,-108.5"/>
<text text-anchor="middle" x="46.5" y="-115.1" font-family="Helvetica,sans-Serif" font-size="8.00">CPoddHiggs.h</text>
</a>
</g>
</g>
<!-- Node1&#45;&gt;Node2 -->
<g id="edge1" class="edge"><title>Node1&#45;&gt;Node2</title>
<path fill="none" stroke="midnightblue" d="M132.243,-208.887C110.536,-185.878 69.9953,-142.905 53.6266,-125.554"/>
<polygon fill="midnightblue" stroke="midnightblue" points="129.9,-211.505 139.308,-216.377 134.992,-206.701 129.9,-211.505"/>
</g>
<!-- Node4 -->
<g id="node4" class="node"><title>Node4</title>
<g id="a_node4"><a xlink:href="../../d0/d3a/_t_h_d_m_observables_8h.html" target="_top" xlink:title="THDMObservables.h">
<polygon fill="none" stroke="black" points="0,-54.5 0,-71.5 91,-71.5 91,-54.5 0,-54.5"/>
<text text-anchor="middle" x="45.5" y="-61.1" font-family="Helvetica,sans-Serif" font-size="8.00">THDMObservables.h</text>
</a>
</g>
</g>
<!-- Node1&#45;&gt;Node4 -->
<g id="edge16" class="edge"><title>Node1&#45;&gt;Node4</title>
<path fill="none" stroke="midnightblue" d="M114.605,-212.595C80.071,-198.319 26.8066,-170.227 3.5,-126 -7.41018,-105.297 17.7862,-83.0556 33.7082,-71.6746"/>
<polygon fill="midnightblue" stroke="midnightblue" points="113.652,-215.982 124.238,-216.42 116.236,-209.476 113.652,-215.982"/>
</g>
<!-- Node6 -->
<g id="node6" class="node"><title>Node6</title>
<g id="a_node6"><a xlink:href="../../da/daf/light_higgs_8h.html" target="_top" xlink:title="lightHiggs.h">
<polygon fill="none" stroke="black" points="117.5,-162.5 117.5,-179.5 175.5,-179.5 175.5,-162.5 117.5,-162.5"/>
<text text-anchor="middle" x="146.5" y="-169.1" font-family="Helvetica,sans-Serif" font-size="8.00">lightHiggs.h</text>
</a>
</g>
</g>
<!-- Node1&#45;&gt;Node6 -->
<g id="edge5" class="edge"><title>Node1&#45;&gt;Node6</title>
<path fill="none" stroke="midnightblue" d="M146.5,-206.062C146.5,-197.06 146.5,-186.628 146.5,-179.704"/>
<polygon fill="midnightblue" stroke="midnightblue" points="143,-206.327 146.5,-216.327 150,-206.327 143,-206.327"/>
</g>
<!-- Node7 -->
<g id="node7" class="node"><title>Node7</title>
<g id="a_node7"><a xlink:href="../../d5/d92/heavy_higgs_8h.html" target="_top" xlink:title="heavyHiggs.h">
<polygon fill="none" stroke="black" points="299,-108.5 299,-125.5 364,-125.5 364,-108.5 299,-108.5"/>
<text text-anchor="middle" x="331.5" y="-115.1" font-family="Helvetica,sans-Serif" font-size="8.00">heavyHiggs.h</text>
</a>
</g>
</g>
<!-- Node1&#45;&gt;Node7 -->
<g id="edge14" class="edge"><title>Node1&#45;&gt;Node7</title>
<path fill="none" stroke="midnightblue" d="M161.909,-209.063C176.568,-195.453 199.71,-175.475 222.5,-162 249.728,-145.901 283.943,-133.167 306.703,-125.625"/>
<polygon fill="midnightblue" stroke="midnightblue" points="159.18,-206.827 154.324,-216.244 163.992,-211.91 159.18,-206.827"/>
</g>
<!-- Node10 -->
<g id="node10" class="node"><title>Node10</title>
<g id="a_node10"><a xlink:href="../../d0/da8/_t_h_d_mfunctions_8cpp.html" target="_top" xlink:title="THDMfunctions.cpp">
<polygon fill="none" stroke="black" points="232,-162.5 232,-179.5 319,-179.5 319,-162.5 232,-162.5"/>
<text text-anchor="middle" x="275.5" y="-169.1" font-family="Helvetica,sans-Serif" font-size="8.00">THDMfunctions.cpp</text>
</a>
</g>
</g>
<!-- Node1&#45;&gt;Node10 -->
<g id="edge15" class="edge"><title>Node1&#45;&gt;Node10</title>
<path fill="none" stroke="midnightblue" d="M174.543,-212.696C199.436,-202.661 235.118,-188.278 256.72,-179.57"/>
<polygon fill="midnightblue" stroke="midnightblue" points="173.224,-209.454 165.258,-216.439 175.841,-215.946 173.224,-209.454"/>
</g>
<!-- Node3 -->
<g id="node3" class="node"><title>Node3</title>
<g id="a_node3"><a xlink:href="../../d4/d4f/_c_podd_higgs_8cpp.html" target="_top" xlink:title="CPoddHiggs.cpp">
<polygon fill="none" stroke="black" points="109,-54.5 109,-71.5 186,-71.5 186,-54.5 109,-54.5"/>
<text text-anchor="middle" x="147.5" y="-61.1" font-family="Helvetica,sans-Serif" font-size="8.00">CPoddHiggs.cpp</text>
</a>
</g>
</g>
<!-- Node2&#45;&gt;Node3 -->
<g id="edge2" class="edge"><title>Node2&#45;&gt;Node3</title>
<path fill="none" stroke="midnightblue" d="M70.5213,-103.633C89.9051,-93.6528 116.546,-79.9365 132.864,-71.5352"/>
<polygon fill="midnightblue" stroke="midnightblue" points="68.6916,-100.638 61.4029,-108.327 71.8959,-106.862 68.6916,-100.638"/>
</g>
<!-- Node2&#45;&gt;Node4 -->
<g id="edge3" class="edge"><title>Node2&#45;&gt;Node4</title>
<path fill="none" stroke="midnightblue" d="M46.155,-98.0621C45.9819,-89.0603 45.7813,-78.6277 45.6482,-71.7043"/>
<polygon fill="midnightblue" stroke="midnightblue" points="42.6607,-98.3964 46.3524,-108.327 49.6594,-98.2617 42.6607,-98.3964"/>
</g>
<!-- Node5 -->
<g id="node5" class="node"><title>Node5</title>
<g id="a_node5"><a xlink:href="../../d1/de2/_th_obs_factory_8cpp.html" target="_top" xlink:title="ThObsFactory.cpp">
<polygon fill="none" stroke="black" points="4.5,-0.5 4.5,-17.5 86.5,-17.5 86.5,-0.5 4.5,-0.5"/>
<text text-anchor="middle" x="45.5" y="-7.1" font-family="Helvetica,sans-Serif" font-size="8.00">ThObsFactory.cpp</text>
</a>
</g>
</g>
<!-- Node4&#45;&gt;Node5 -->
<g id="edge4" class="edge"><title>Node4&#45;&gt;Node5</title>
<path fill="none" stroke="midnightblue" d="M45.5,-44.0621C45.5,-35.0603 45.5,-24.6277 45.5,-17.7043"/>
<polygon fill="midnightblue" stroke="midnightblue" points="42.0001,-44.3272 45.5,-54.3272 49.0001,-44.3273 42.0001,-44.3272"/>
</g>
<!-- Node6&#45;&gt;Node2 -->
<g id="edge6" class="edge"><title>Node6&#45;&gt;Node2</title>
<path fill="none" stroke="midnightblue" d="M122.717,-157.633C103.525,-147.653 77.1471,-133.936 60.9908,-125.535"/>
<polygon fill="midnightblue" stroke="midnightblue" points="121.258,-160.819 131.745,-162.327 124.487,-154.608 121.258,-160.819"/>
</g>
<!-- Node6&#45;&gt;Node3 -->
<g id="edge7" class="edge"><title>Node6&#45;&gt;Node3</title>
<path fill="none" stroke="midnightblue" d="M146.669,-152.072C146.891,-128.525 147.272,-88.2202 147.429,-71.5542"/>
<polygon fill="midnightblue" stroke="midnightblue" points="143.167,-152.344 146.572,-162.377 150.166,-152.41 143.167,-152.344"/>
</g>
<!-- Node6&#45;&gt;Node4 -->
<g id="edge13" class="edge"><title>Node6&#45;&gt;Node4</title>
<path fill="none" stroke="midnightblue" d="M132.593,-154.514C121.16,-141.87 104.464,-123.606 89.5,-108 77.0885,-95.056 62.2724,-80.398 53.3889,-71.6915"/>
<polygon fill="midnightblue" stroke="midnightblue" points="130.287,-157.183 139.582,-162.268 135.487,-152.497 130.287,-157.183"/>
</g>
<!-- Node6&#45;&gt;Node7 -->
<g id="edge8" class="edge"><title>Node6&#45;&gt;Node7</title>
<path fill="none" stroke="midnightblue" d="M183.445,-159.616C219.227,-149.558 272.629,-134.548 304.567,-125.57"/>
<polygon fill="midnightblue" stroke="midnightblue" points="182.08,-156.363 173.401,-162.439 183.975,-163.102 182.08,-156.363"/>
</g>
<!-- Node8 -->
<g id="node8" class="node"><title>Node8</title>
<g id="a_node8"><a xlink:href="../../d7/dee/heavy_higgs_8cpp.html" target="_top" xlink:title="heavyHiggs.cpp">
<polygon fill="none" stroke="black" points="264,-54.5 264,-71.5 337,-71.5 337,-54.5 264,-54.5"/>
<text text-anchor="middle" x="300.5" y="-61.1" font-family="Helvetica,sans-Serif" font-size="8.00">heavyHiggs.cpp</text>
</a>
</g>
</g>
<!-- Node6&#45;&gt;Node8 -->
<g id="edge11" class="edge"><title>Node6&#45;&gt;Node8</title>
<path fill="none" stroke="midnightblue" d="M184.435,-159.289C205.55,-152.11 231.523,-141.167 251.5,-126 271.824,-110.569 288.482,-84.8316 296.071,-71.9104"/>
<polygon fill="midnightblue" stroke="midnightblue" points="183.239,-155.997 174.811,-162.418 185.403,-162.654 183.239,-155.997"/>
</g>
<!-- Node9 -->
<g id="node9" class="node"><title>Node9</title>
<g id="a_node9"><a xlink:href="../../da/dd8/light_higgs_8cpp.html" target="_top" xlink:title="lightHiggs.cpp">
<polygon fill="none" stroke="black" points="175,-108.5 175,-125.5 242,-125.5 242,-108.5 175,-108.5"/>
<text text-anchor="middle" x="208.5" y="-115.1" font-family="Helvetica,sans-Serif" font-size="8.00">lightHiggs.cpp</text>
</a>
</g>
</g>
<!-- Node6&#45;&gt;Node9 -->
<g id="edge12" class="edge"><title>Node6&#45;&gt;Node9</title>
<path fill="none" stroke="midnightblue" d="M163.361,-155.858C174.94,-146.147 189.867,-133.628 199.314,-125.704"/>
<polygon fill="midnightblue" stroke="midnightblue" points="161.061,-153.219 155.648,-162.327 165.559,-158.583 161.061,-153.219"/>
</g>
<!-- Node7&#45;&gt;Node4 -->
<g id="edge10" class="edge"><title>Node7&#45;&gt;Node4</title>
<path fill="none" stroke="midnightblue" d="M288.944,-108.263C234.444,-98.3534 140.621,-81.2947 86.7546,-71.5008"/>
<polygon fill="midnightblue" stroke="midnightblue" points="288.506,-111.74 298.971,-110.086 289.758,-104.853 288.506,-111.74"/>
</g>
<!-- Node7&#45;&gt;Node8 -->
<g id="edge9" class="edge"><title>Node7&#45;&gt;Node8</title>
<path fill="none" stroke="midnightblue" d="M321.692,-99.5483C316.137,-90.2304 309.45,-79.0123 305.093,-71.7043"/>
<polygon fill="midnightblue" stroke="midnightblue" points="318.799,-101.53 326.926,-108.327 324.811,-97.9455 318.799,-101.53"/>
</g>
</g>
</svg>
