<?xml version="1.0" encoding="UTF-8" standalone="no"?>
<!DOCTYPE svg PUBLIC "-//W3C//DTD SVG 1.1//EN"
 "http://www.w3.org/Graphics/SVG/1.1/DTD/svg11.dtd">
<!-- Generated by graphviz version 2.40.1 (20161225.0304)
 -->
<!-- Title: SneutrinosOneToThree.hpp Pages: 1 -->
<svg width="263pt" height="314pt"
 viewBox="0.00 0.00 263.11 314.00" xmlns="http://www.w3.org/2000/svg" xmlns:xlink="http://www.w3.org/1999/xlink">
<g id="graph0" class="graph" transform="scale(1 1) rotate(0) translate(4 310)">
<title>SneutrinosOneToThree.hpp</title>
<!-- Node51 -->
<g id="node1" class="node">
<title>Node51</title>
<polygon fill="#bfbfbf" stroke="#000000" points="91.6064,-288.5 91.6064,-305.5 207.6064,-305.5 207.6064,-288.5 91.6064,-288.5"/>
<text text-anchor="middle" x="149.6064" y="-295.1" font-family="Helvetica,sans-Serif" font-size="8.00" fill="#000000">SneutrinosOneToThree.hpp</text>
</g>
<!-- Node52 -->
<g id="node2" class="node">
<title>Node52</title>
<g id="a_node2"><a xlink:href="../../d1/dc4/_minimal_supersymmetric_standard_model_8hpp.html" target="_top" xlink:title="MinimalSupersymmetricStandard\lModel.hpp">
<polygon fill="none" stroke="#000000" points="35.6064,-225.5 35.6064,-251.5 169.6064,-251.5 169.6064,-225.5 35.6064,-225.5"/>
<text text-anchor="start" x="43.6064" y="-241.1" font-family="Helvetica,sans-Serif" font-size="8.00" fill="#000000">MinimalSupersymmetricStandard</text>
<text text-anchor="middle" x="102.6064" y="-232.1" font-family="Helvetica,sans-Serif" font-size="8.00" fill="#000000">Model.hpp</text>
</a>
</g>
</g>
<!-- Node51&#45;&gt;Node52 -->
<g id="edge1" class="edge">
<title>Node51&#45;&gt;Node52</title>
<path fill="none" stroke="#191970" d="M136.2897,-280.4249C128.9867,-271.3351 120.0571,-260.2206 113.2274,-251.7197"/>
<polygon fill="#191970" stroke="#191970" points="133.6797,-282.7646 142.6714,-288.3681 139.1366,-278.3803 133.6797,-282.7646"/>
</g>
<!-- Node112 -->
<g id="node10" class="node">
<title>Node112</title>
<g id="a_node10"><a xlink:href="../../d5/d92/_p_s_c_8hpp.html" target="_top" xlink:title="PSC.hpp">
<polygon fill="none" stroke="#000000" points="198.1064,-167 198.1064,-184 247.1064,-184 247.1064,-167 198.1064,-167"/>
<text text-anchor="middle" x="222.6064" y="-173.6" font-family="Helvetica,sans-Serif" font-size="8.00" fill="#000000">PSC.hpp</text>
</a>
</g>
</g>
<!-- Node51&#45;&gt;Node112 -->
<g id="edge12" class="edge">
<title>Node51&#45;&gt;Node112</title>
<path fill="none" stroke="#191970" d="M160.8689,-279.9702C166.3261,-271.6066 172.9144,-261.3422 178.6064,-252 193.4339,-227.6635 209.9425,-198.3072 217.862,-184.0725"/>
<polygon fill="#191970" stroke="#191970" points="157.8605,-278.175 155.2962,-288.4549 163.7114,-282.0179 157.8605,-278.175"/>
</g>
<!-- Node53 -->
<g id="node3" class="node">
<title>Node53</title>
<g id="a_node3"><a xlink:href="../../d0/d81/_default_spectra_8hpp.html" target="_top" xlink:title="DefaultSpectra.hpp">
<polygon fill="none" stroke="#000000" points="35.1064,-108.5 35.1064,-125.5 120.1064,-125.5 120.1064,-108.5 35.1064,-108.5"/>
<text text-anchor="middle" x="77.6064" y="-115.1" font-family="Helvetica,sans-Serif" font-size="8.00" fill="#000000">DefaultSpectra.hpp</text>
</a>
</g>
</g>
<!-- Node52&#45;&gt;Node53 -->
<g id="edge2" class="edge">
<title>Node52&#45;&gt;Node53</title>
<path fill="none" stroke="#191970" d="M43.2654,-221.2406C28.0566,-213.8396 13.498,-203.4527 4.6064,-189 -1.6816,-178.7794 -1.2432,-172.4777 4.6064,-162 14.5492,-144.1908 34.7567,-132.5554 51.3949,-125.5863"/>
<polygon fill="#191970" stroke="#191970" points="42.2151,-224.6041 52.7743,-225.4726 45.0614,-218.2089 42.2151,-224.6041"/>
</g>
<!-- Node110 -->
<g id="node8" class="node">
<title>Node110</title>
<g id="a_node8"><a xlink:href="../../d3/d26/_next_to_minimal_supersymmetric_standard_model_8hpp.html" target="_top" xlink:title="NextToMinimalSupersymmetric\lStandardModel.hpp">
<polygon fill="none" stroke="#000000" points="13.6064,-162.5 13.6064,-188.5 141.6064,-188.5 141.6064,-162.5 13.6064,-162.5"/>
<text text-anchor="start" x="21.6064" y="-178.1" font-family="Helvetica,sans-Serif" font-size="8.00" fill="#000000">NextToMinimalSupersymmetric</text>
<text text-anchor="middle" x="77.6064" y="-169.1" font-family="Helvetica,sans-Serif" font-size="8.00" fill="#000000">StandardModel.hpp</text>
</a>
</g>
</g>
<!-- Node52&#45;&gt;Node110 -->
<g id="edge7" class="edge">
<title>Node52&#45;&gt;Node110</title>
<path fill="none" stroke="#191970" d="M93.6979,-216.0505C90.038,-206.8277 85.9293,-196.4738 82.7798,-188.5369"/>
<polygon fill="#191970" stroke="#191970" points="90.4846,-217.4424 97.4264,-225.4464 96.9911,-214.8605 90.4846,-217.4424"/>
</g>
<!-- Node111 -->
<g id="node9" class="node">
<title>Node111</title>
<g id="a_node9"><a xlink:href="../../d1/d34/_m_s_c_8hpp.html" target="_top" xlink:title="MSC.hpp">
<polygon fill="none" stroke="#000000" points="141.6064,-108.5 141.6064,-125.5 191.6064,-125.5 191.6064,-108.5 141.6064,-108.5"/>
<text text-anchor="middle" x="166.6064" y="-115.1" font-family="Helvetica,sans-Serif" font-size="8.00" fill="#000000">MSC.hpp</text>
</a>
</g>
</g>
<!-- Node52&#45;&gt;Node111 -->
<g id="edge11" class="edge">
<title>Node52&#45;&gt;Node111</title>
<path fill="none" stroke="#191970" d="M127.381,-218.1243C135.9139,-209.9067 144.7796,-199.8109 150.6064,-189 161.9065,-168.0342 165.2324,-139.526 166.2064,-125.5032"/>
<polygon fill="#191970" stroke="#191970" points="124.757,-215.7807 119.7348,-225.1096 129.4784,-220.9488 124.757,-215.7807"/>
</g>
<!-- Node54 -->
<g id="node4" class="node">
<title>Node54</title>
<g id="a_node4"><a xlink:href="../../dd/d0e/_m_e_c_8hpp.html" target="_top" xlink:title="MEC.hpp">
<polygon fill="none" stroke="#ff0000" points="130.6064,-54.5 130.6064,-71.5 180.6064,-71.5 180.6064,-54.5 130.6064,-54.5"/>
<text text-anchor="middle" x="155.6064" y="-61.1" font-family="Helvetica,sans-Serif" font-size="8.00" fill="#000000">MEC.hpp</text>
</a>
</g>
</g>
<!-- Node53&#45;&gt;Node54 -->
<g id="edge3" class="edge">
<title>Node53&#45;&gt;Node54</title>
<path fill="none" stroke="#191970" d="M98.3744,-102.6221C112.6235,-92.7574 131.0625,-79.9919 143.1054,-71.6545"/>
<polygon fill="#191970" stroke="#191970" points="96.3681,-99.7541 90.1384,-108.324 100.3526,-105.5095 96.3681,-99.7541"/>
</g>
<!-- Node94 -->
<g id="node7" class="node">
<title>Node94</title>
<g id="a_node7"><a xlink:href="../../d4/d42/_s_l_h_a_8hpp.html" target="_top" xlink:title="SLHA.hpp">
<polygon fill="none" stroke="#ff0000" points="51.1064,-54.5 51.1064,-71.5 104.1064,-71.5 104.1064,-54.5 51.1064,-54.5"/>
<text text-anchor="middle" x="77.6064" y="-61.1" font-family="Helvetica,sans-Serif" font-size="8.00" fill="#000000">SLHA.hpp</text>
</a>
</g>
</g>
<!-- Node53&#45;&gt;Node94 -->
<g id="edge6" class="edge">
<title>Node53&#45;&gt;Node94</title>
<path fill="none" stroke="#191970" d="M77.6064,-97.8045C77.6064,-88.9102 77.6064,-78.7798 77.6064,-71.7511"/>
<polygon fill="#191970" stroke="#191970" points="74.1065,-98.083 77.6064,-108.083 81.1065,-98.083 74.1065,-98.083"/>
</g>
<!-- Node55 -->
<g id="node5" class="node">
<title>Node55</title>
<g id="a_node5"><a xlink:href="../../dd/d50/_standard_preselector_8hpp.html" target="_top" xlink:title="StandardPreselector.hpp">
<polygon fill="none" stroke="#ff0000" points="47.1064,-.5 47.1064,-17.5 152.1064,-17.5 152.1064,-.5 47.1064,-.5"/>
<text text-anchor="middle" x="99.6064" y="-7.1" font-family="Helvetica,sans-Serif" font-size="8.00" fill="#000000">StandardPreselector.hpp</text>
</a>
</g>
</g>
<!-- Node54&#45;&gt;Node55 -->
<g id="edge4" class="edge">
<title>Node54&#45;&gt;Node55</title>
<path fill="none" stroke="#191970" d="M139.2765,-47.2533C129.3414,-37.6731 117.0189,-25.7906 108.7675,-17.8339"/>
<polygon fill="#191970" stroke="#191970" points="136.9811,-49.902 146.609,-54.324 141.84,-44.8631 136.9811,-49.902"/>
</g>
<!-- Node76 -->
<g id="node6" class="node">
<title>Node76</title>
<g id="a_node6"><a xlink:href="../../d9/de5/_extended_mass_8cpp.html" target="_top" xlink:title="ExtendedMass.cpp">
<polygon fill="none" stroke="#000000" points="170.1064,-.5 170.1064,-17.5 255.1064,-17.5 255.1064,-.5 170.1064,-.5"/>
<text text-anchor="middle" x="212.6064" y="-7.1" font-family="Helvetica,sans-Serif" font-size="8.00" fill="#000000">ExtendedMass.cpp</text>
</a>
</g>
</g>
<!-- Node54&#45;&gt;Node76 -->
<g id="edge5" class="edge">
<title>Node54&#45;&gt;Node76</title>
<path fill="none" stroke="#191970" d="M172.2279,-47.2533C182.3404,-37.6731 194.883,-25.7906 203.2817,-17.8339"/>
<polygon fill="#191970" stroke="#191970" points="169.6169,-44.9056 164.7644,-54.324 174.4311,-49.9873 169.6169,-44.9056"/>
</g>
<!-- Node110&#45;&gt;Node53 -->
<g id="edge8" class="edge">
<title>Node110&#45;&gt;Node53</title>
<path fill="none" stroke="#191970" d="M77.6064,-151.9486C77.6064,-142.6839 77.6064,-132.6257 77.6064,-125.689"/>
<polygon fill="#191970" stroke="#191970" points="74.1065,-152.2254 77.6064,-162.2254 81.1065,-152.2255 74.1065,-152.2254"/>
</g>
<!-- Node110&#45;&gt;Node111 -->
<g id="edge9" class="edge">
<title>Node110&#45;&gt;Node111</title>
<path fill="none" stroke="#191970" d="M106.2768,-156.6549C122.221,-146.1746 141.2828,-133.6453 153.6516,-125.5152"/>
<polygon fill="#191970" stroke="#191970" points="104.2359,-153.8079 97.8019,-162.2254 108.0808,-159.6574 104.2359,-153.8079"/>
</g>
<!-- Node111&#45;&gt;Node54 -->
<g id="edge10" class="edge">
<title>Node111&#45;&gt;Node54</title>
<path fill="none" stroke="#191970" d="M162.7565,-98.1005C160.9303,-89.1357 158.8367,-78.8579 157.389,-71.7511"/>
<polygon fill="#191970" stroke="#191970" points="159.3643,-98.9829 164.79,-108.083 166.2234,-97.5856 159.3643,-98.9829"/>
</g>
<!-- Node112&#45;&gt;Node111 -->
<g id="edge13" class="edge">
<title>Node112&#45;&gt;Node111</title>
<path fill="none" stroke="#191970" d="M207.377,-159.5907C196.919,-148.6659 183.4362,-134.5812 174.9033,-125.6673"/>
<polygon fill="#191970" stroke="#191970" points="204.9,-162.0646 214.3434,-166.8681 209.9567,-157.2241 204.9,-162.0646"/>
</g>
</g>
</svg>
