<?xml version="1.0" encoding="UTF-8" standalone="no"?>
<!DOCTYPE svg PUBLIC "-//W3C//DTD SVG 1.1//EN"
 "http://www.w3.org/Graphics/SVG/1.1/DTD/svg11.dtd">
<!-- Generated by graphviz version 2.40.1 (20161225.0304)
 -->
<!-- Title: WilsonTemplateNew.h Pages: 1 -->
<svg width="363pt" height="242pt"
 viewBox="0.00 0.00 362.50 242.00" xmlns="http://www.w3.org/2000/svg" xmlns:xlink="http://www.w3.org/1999/xlink">
<g id="graph0" class="graph" transform="scale(1 1) rotate(0) translate(4 238)">
<title>WilsonTemplateNew.h</title>
<!-- Node0 -->
<g id="node1" class="node">
<title>Node0</title>
<polygon fill="#bfbfbf" stroke="#000000" points="140.5,-216.5 140.5,-233.5 237.5,-233.5 237.5,-216.5 140.5,-216.5"/>
<text text-anchor="middle" x="189" y="-223.1" font-family="Helvetica,sans-Serif" font-size="8.00" fill="#000000">WilsonTemplateNew.h</text>
</g>
<!-- Node1 -->
<g id="node2" class="node">
<title>Node1</title>
<g id="a_node2"><a xlink:href="../../d4/d36/_order_scheme_8h.html" target="_top" xlink:title="OrderScheme.h">
<polygon fill="none" stroke="#000000" points="39.5,-162.5 39.5,-179.5 112.5,-179.5 112.5,-162.5 39.5,-162.5"/>
<text text-anchor="middle" x="76" y="-169.1" font-family="Helvetica,sans-Serif" font-size="8.00" fill="#000000">OrderScheme.h</text>
</a>
</g>
</g>
<!-- Node0&#45;&gt;Node1 -->
<g id="edge1" class="edge">
<title>Node0&#45;&gt;Node1</title>
<path fill="none" stroke="#191970" d="M171.0948,-216.4435C152.746,-207.6751 123.9946,-193.9355 102.9064,-183.8579"/>
<polygon fill="#191970" stroke="#191970" points="104.3532,-180.6703 93.8214,-179.5164 101.335,-186.9862 104.3532,-180.6703"/>
</g>
<!-- Node2 -->
<g id="node3" class="node">
<title>Node2</title>
<g id="a_node3"><a xlink:href="../../d6/d7d/_expanded_8h.html" target="_top" xlink:title="Expanded.h">
<polygon fill="none" stroke="#ff0000" points="130.5,-162.5 130.5,-179.5 189.5,-179.5 189.5,-162.5 130.5,-162.5"/>
<text text-anchor="middle" x="160" y="-169.1" font-family="Helvetica,sans-Serif" font-size="8.00" fill="#000000">Expanded.h</text>
</a>
</g>
</g>
<!-- Node0&#45;&gt;Node2 -->
<g id="edge2" class="edge">
<title>Node0&#45;&gt;Node2</title>
<path fill="none" stroke="#191970" d="M184.2112,-216.083C180.2416,-208.6913 174.4749,-197.9533 169.5652,-188.8111"/>
<polygon fill="#191970" stroke="#191970" points="172.5145,-186.9051 164.6997,-179.7511 166.3475,-190.217 172.5145,-186.9051"/>
</g>
<!-- Node6 -->
<g id="node7" class="node">
<title>Node6</title>
<polygon fill="none" stroke="#bfbfbf" points="303.5,-108.5 303.5,-125.5 354.5,-125.5 354.5,-108.5 303.5,-108.5"/>
<text text-anchor="middle" x="329" y="-115.1" font-family="Helvetica,sans-Serif" font-size="8.00" fill="#000000">stdexcept</text>
</g>
<!-- Node0&#45;&gt;Node6 -->
<g id="edge13" class="edge">
<title>Node0&#45;&gt;Node6</title>
<path fill="none" stroke="#191970" d="M194.0183,-216.248C201.9386,-203.0606 218.4623,-177.9452 238,-162 254.9359,-148.1782 276.8221,-137.1864 294.8863,-129.5269"/>
<polygon fill="#191970" stroke="#191970" points="296.5349,-132.6345 304.4731,-125.6177 293.8918,-126.1527 296.5349,-132.6345"/>
</g>
<!-- Node20 -->
<g id="node10" class="node">
<title>Node20</title>
<polygon fill="none" stroke="#bfbfbf" points="246.5,-162.5 246.5,-179.5 291.5,-179.5 291.5,-162.5 246.5,-162.5"/>
<text text-anchor="middle" x="269" y="-169.1" font-family="Helvetica,sans-Serif" font-size="8.00" fill="#000000">sstream</text>
</g>
<!-- Node0&#45;&gt;Node20 -->
<g id="edge12" class="edge">
<title>Node0&#45;&gt;Node20</title>
<path fill="none" stroke="#191970" d="M201.8534,-216.324C214.2164,-207.979 233.1301,-195.2122 247.7372,-185.3524"/>
<polygon fill="#191970" stroke="#191970" points="249.8482,-188.1503 256.1785,-179.6545 245.9318,-182.3483 249.8482,-188.1503"/>
</g>
<!-- Node3 -->
<g id="node4" class="node">
<title>Node3</title>
<polygon fill="none" stroke="#bfbfbf" points="0,-108.5 0,-125.5 38,-125.5 38,-108.5 0,-108.5"/>
<text text-anchor="middle" x="19" y="-115.1" font-family="Helvetica,sans-Serif" font-size="8.00" fill="#000000">cmath</text>
</g>
<!-- Node2&#45;&gt;Node3 -->
<g id="edge3" class="edge">
<title>Node2&#45;&gt;Node3</title>
<path fill="none" stroke="#191970" d="M137.6581,-162.4435C113.2831,-153.1084 74.1958,-138.1388 47.5977,-127.9523"/>
<polygon fill="#191970" stroke="#191970" points="48.6624,-124.6122 38.072,-124.3042 46.1588,-131.1492 48.6624,-124.6122"/>
</g>
<!-- Node4 -->
<g id="node5" class="node">
<title>Node4</title>
<polygon fill="none" stroke="#bfbfbf" points="56,-108.5 56,-125.5 94,-125.5 94,-108.5 56,-108.5"/>
<text text-anchor="middle" x="75" y="-115.1" font-family="Helvetica,sans-Serif" font-size="8.00" fill="#000000">vector</text>
</g>
<!-- Node2&#45;&gt;Node4 -->
<g id="edge4" class="edge">
<title>Node2&#45;&gt;Node4</title>
<path fill="none" stroke="#191970" d="M146.3433,-162.324C133.0837,-153.9002 112.732,-140.9709 97.1538,-131.0741"/>
<polygon fill="#191970" stroke="#191970" points="98.9404,-128.0626 88.6228,-125.6545 95.1867,-133.9711 98.9404,-128.0626"/>
</g>
<!-- Node5 -->
<g id="node6" class="node">
<title>Node5</title>
<polygon fill="none" stroke="#bfbfbf" points="165.5,-.5 165.5,-17.5 212.5,-17.5 212.5,-.5 165.5,-.5"/>
<text text-anchor="middle" x="189" y="-7.1" font-family="Helvetica,sans-Serif" font-size="8.00" fill="#000000">iostream</text>
</g>
<!-- Node2&#45;&gt;Node5 -->
<g id="edge5" class="edge">
<title>Node2&#45;&gt;Node5</title>
<path fill="none" stroke="#191970" d="M155.6182,-162.3797C146.1261,-142.4509 125.7781,-91.99 142,-54 147.1467,-41.9469 157.2814,-31.5764 166.826,-23.8389"/>
<polygon fill="#191970" stroke="#191970" points="169.0398,-26.5532 174.9216,-17.7409 164.8282,-20.9619 169.0398,-26.5532"/>
</g>
<!-- Node2&#45;&gt;Node6 -->
<g id="edge6" class="edge">
<title>Node2&#45;&gt;Node6</title>
<path fill="none" stroke="#191970" d="M186.7786,-162.4435C215.669,-153.2123 261.8031,-138.4712 293.6537,-128.2941"/>
<polygon fill="#191970" stroke="#191970" points="294.9928,-131.5406 303.453,-125.1629 292.8621,-124.8727 294.9928,-131.5406"/>
</g>
<!-- Node7 -->
<g id="node8" class="node">
<title>Node7</title>
<g id="a_node8"><a xlink:href="../../d1/dc2/gslpp__complex_8h.html" target="_top" xlink:title="gslpp_complex.h">
<polygon fill="none" stroke="#ff0000" points="150.5,-54.5 150.5,-71.5 227.5,-71.5 227.5,-54.5 150.5,-54.5"/>
<text text-anchor="middle" x="189" y="-61.1" font-family="Helvetica,sans-Serif" font-size="8.00" fill="#000000">gslpp_complex.h</text>
</a>
</g>
</g>
<!-- Node2&#45;&gt;Node7 -->
<g id="edge7" class="edge">
<title>Node2&#45;&gt;Node7</title>
<path fill="none" stroke="#191970" d="M162.3732,-162.1619C167.0911,-144.5918 177.7366,-104.9465 184.045,-81.4532"/>
<polygon fill="#191970" stroke="#191970" points="187.4619,-82.2239 186.6751,-71.6584 180.7014,-80.4086 187.4619,-82.2239"/>
</g>
<!-- Node10 -->
<g id="node9" class="node">
<title>Node10</title>
<g id="a_node9"><a xlink:href="../../da/d8e/gslpp__vector__double_8h.html" target="_top" xlink:title="gslpp_vector_double.h">
<polygon fill="none" stroke="#ff0000" points="188.5,-108.5 188.5,-125.5 285.5,-125.5 285.5,-108.5 188.5,-108.5"/>
<text text-anchor="middle" x="237" y="-115.1" font-family="Helvetica,sans-Serif" font-size="8.00" fill="#000000">gslpp_vector_double.h</text>
</a>
</g>
</g>
<!-- Node2&#45;&gt;Node10 -->
<g id="edge9" class="edge">
<title>Node2&#45;&gt;Node10</title>
<path fill="none" stroke="#191970" d="M172.3714,-162.324C184.1585,-154.0577 202.1323,-141.4527 216.1355,-131.6322"/>
<polygon fill="#191970" stroke="#191970" points="218.4816,-134.2619 224.6593,-125.6545 214.4624,-128.5307 218.4816,-134.2619"/>
</g>
<!-- Node7&#45;&gt;Node5 -->
<g id="edge8" class="edge">
<title>Node7&#45;&gt;Node5</title>
<path fill="none" stroke="#191970" d="M189,-54.083C189,-47.0059 189,-36.8611 189,-27.9865"/>
<polygon fill="#191970" stroke="#191970" points="192.5001,-27.751 189,-17.7511 185.5001,-27.7511 192.5001,-27.751"/>
</g>
<!-- Node10&#45;&gt;Node5 -->
<g id="edge10" class="edge">
<title>Node10&#45;&gt;Node5</title>
<path fill="none" stroke="#191970" d="M239.0693,-108.4158C241.6469,-95.8724 244.8264,-72.065 237,-54 231.7319,-41.8399 221.3805,-31.4594 211.6352,-23.7429"/>
<polygon fill="#191970" stroke="#191970" points="213.501,-20.7707 203.3701,-17.6698 209.356,-26.4116 213.501,-20.7707"/>
</g>
<!-- Node10&#45;&gt;Node7 -->
<g id="edge11" class="edge">
<title>Node10&#45;&gt;Node7</title>
<path fill="none" stroke="#191970" d="M229.0738,-108.083C222.1539,-100.2982 211.9346,-88.8015 203.548,-79.3665"/>
<polygon fill="#191970" stroke="#191970" points="206.0383,-76.8999 196.7787,-71.7511 200.8065,-81.5505 206.0383,-76.8999"/>
</g>
</g>
</svg>
