<?xml version="1.0" encoding="UTF-8" standalone="no"?>
<!DOCTYPE svg PUBLIC "-//W3C//DTD SVG 1.1//EN"
 "http://www.w3.org/Graphics/SVG/1.1/DTD/svg11.dtd">
<!-- Generated by graphviz version 2.38.0 (20140413.2041)
 -->
<!-- Title: THDMMatching Pages: 1 -->
<svg width="111pt" height="134pt"
 viewBox="0.00 0.00 111.00 134.00" xmlns="http://www.w3.org/2000/svg" xmlns:xlink="http://www.w3.org/1999/xlink">
<g id="graph0" class="graph" transform="scale(1 1) rotate(0) translate(4 130)">
<title>THDMMatching</title>
<!-- Node1 -->
<g id="node1" class="node"><title>Node1</title>
<polygon fill="#bfbfbf" stroke="black" points="15.5,-0.5 15.5,-17.5 87.5,-17.5 87.5,-0.5 15.5,-0.5"/>
<text text-anchor="middle" x="51.5" y="-7.1" font-family="Helvetica,sans-Serif" font-size="8.00">THDMMatching</text>
</g>
<!-- Node2 -->
<g id="node2" class="node"><title>Node2</title>
<g id="a_node2"><a xlink:href="../../d6/d2e/class_standard_model_matching.html" target="_top" xlink:title="A class for the matching in the Standard Model. ">
<polygon fill="none" stroke="black" points="0,-54.5 0,-71.5 103,-71.5 103,-54.5 0,-54.5"/>
<text text-anchor="middle" x="51.5" y="-61.1" font-family="Helvetica,sans-Serif" font-size="8.00">StandardModelMatching</text>
</a>
</g>
</g>
<!-- Node2&#45;&gt;Node1 -->
<g id="edge1" class="edge"><title>Node2&#45;&gt;Node1</title>
<path fill="none" stroke="midnightblue" d="M51.5,-44.0621C51.5,-35.0603 51.5,-24.6277 51.5,-17.7043"/>
<polygon fill="midnightblue" stroke="midnightblue" points="48.0001,-44.3272 51.5,-54.3272 55.0001,-44.3273 48.0001,-44.3272"/>
</g>
<!-- Node3 -->
<g id="node3" class="node"><title>Node3</title>
<g id="a_node3"><a xlink:href="../../d0/d2a/class_model_matching.html" target="_top" xlink:title="A class for a template of model matching. ">
<polygon fill="none" stroke="black" points="16,-108.5 16,-125.5 87,-125.5 87,-108.5 16,-108.5"/>
<text text-anchor="middle" x="51.5" y="-115.1" font-family="Helvetica,sans-Serif" font-size="8.00">ModelMatching</text>
</a>
</g>
</g>
<!-- Node3&#45;&gt;Node2 -->
<g id="edge2" class="edge"><title>Node3&#45;&gt;Node2</title>
<path fill="none" stroke="midnightblue" d="M51.5,-98.0621C51.5,-89.0603 51.5,-78.6277 51.5,-71.7043"/>
<polygon fill="midnightblue" stroke="midnightblue" points="48.0001,-98.3272 51.5,-108.327 55.0001,-98.3273 48.0001,-98.3272"/>
</g>
</g>
</svg>
