<?xml version="1.0" encoding="UTF-8" standalone="no"?>
<!DOCTYPE svg PUBLIC "-//W3C//DTD SVG 1.1//EN"
 "http://www.w3.org/Graphics/SVG/1.1/DTD/svg11.dtd">
<!-- Generated by graphviz version 2.40.1 (20161225.0304)
 -->
<!-- Title: LHPC::SLHA::DenseTriplyIndexedBlock&lt; ValueClass &gt; Pages: 1 -->
<svg width="1513pt" height="95pt"
 viewBox="0.00 0.00 1513.00 94.84" xmlns="http://www.w3.org/2000/svg" xmlns:xlink="http://www.w3.org/1999/xlink">
<g id="graph0" class="graph" transform="scale(1 1) rotate(0) translate(4 90.8423)">
<title>LHPC::SLHA::DenseTriplyIndexedBlock&lt; ValueClass &gt;</title>
<!-- Node0 -->
<g id="node1" class="node">
<title>Node0</title>
<polygon fill="#bfbfbf" stroke="#000000" points="1150,-28 1150,-54 1289,-54 1289,-28 1150,-28"/>
<text text-anchor="start" x="1158" y="-43.6" font-family="Helvetica,sans-Serif" font-size="8.00" fill="#000000">LHPC::SLHA::DenseTriplyIndexed</text>
<text text-anchor="middle" x="1219.5" y="-34.6" font-family="Helvetica,sans-Serif" font-size="8.00" fill="#000000">Block&lt; ValueClass &gt;</text>
</g>
<!-- Node9 -->
<g id="node9" class="node">
<title>Node9</title>
<g id="a_node9"><a xlink:href="../../df/db0/class_l_h_p_c_1_1_s_l_h_a_1_1_dense_triply_indexed_block.html" target="_top" xlink:title="LHPC::SLHA::DenseTriplyIndexed\lBlock\&lt; double \&gt;">
<polygon fill="none" stroke="#000000" points="1366,-28 1366,-54 1505,-54 1505,-28 1366,-28"/>
<text text-anchor="start" x="1374" y="-43.6" font-family="Helvetica,sans-Serif" font-size="8.00" fill="#000000">LHPC::SLHA::DenseTriplyIndexed</text>
<text text-anchor="middle" x="1435.5" y="-34.6" font-family="Helvetica,sans-Serif" font-size="8.00" fill="#000000">Block&lt; double &gt;</text>
</a>
</g>
</g>
<!-- Node0&#45;&gt;Node9 -->
<g id="edge11" class="edge">
<title>Node0&#45;&gt;Node9</title>
<path fill="none" stroke="#ffa500" stroke-dasharray="5,2" d="M1299.2543,-41C1321.0626,-41 1344.5236,-41 1365.7275,-41"/>
<polygon fill="#ffa500" stroke="#ffa500" points="1299.0328,-37.5001 1289.0327,-41 1299.0327,-44.5001 1299.0328,-37.5001"/>
<text text-anchor="middle" x="1327.5" y="-43.6" font-family="Helvetica,sans-Serif" font-size="8.00" fill="#000000"> &lt; double &gt;</text>
</g>
<!-- Node1 -->
<g id="node2" class="node">
<title>Node1</title>
<g id="a_node2"><a xlink:href="../../de/d5e/class_l_h_p_c_1_1_s_l_h_a_1_1_indexed_block_template.html" target="_top" xlink:title="LHPC::SLHA::IndexedBlock\lTemplate\&lt; ValueClass,\l InterpreterClass::DenseTriply\lIndexed\&lt; ValueClass \&gt; \&gt;">
<polygon fill="none" stroke="#000000" points="990,-19 990,-63 1113,-63 1113,-19 990,-19"/>
<text text-anchor="start" x="998" y="-52.6" font-family="Helvetica,sans-Serif" font-size="8.00" fill="#000000">LHPC::SLHA::IndexedBlock</text>
<text text-anchor="start" x="998" y="-43.6" font-family="Helvetica,sans-Serif" font-size="8.00" fill="#000000">Template&lt; ValueClass,</text>
<text text-anchor="start" x="998" y="-34.6" font-family="Helvetica,sans-Serif" font-size="8.00" fill="#000000"> InterpreterClass::DenseTriply</text>
<text text-anchor="middle" x="1051.5" y="-25.6" font-family="Helvetica,sans-Serif" font-size="8.00" fill="#000000">Indexed&lt; ValueClass &gt; &gt;</text>
</a>
</g>
</g>
<!-- Node1&#45;&gt;Node0 -->
<g id="edge1" class="edge">
<title>Node1&#45;&gt;Node0</title>
<path fill="none" stroke="#191970" d="M1123.3487,-41C1132.1683,-41 1141.1705,-41 1149.9553,-41"/>
<polygon fill="#191970" stroke="#191970" points="1123.1031,-37.5001 1113.103,-41 1123.103,-44.5001 1123.1031,-37.5001"/>
</g>
<!-- Node2 -->
<g id="node3" class="node">
<title>Node2</title>
<g id="a_node3"><a xlink:href="../../d6/daf/class_l_h_p_c_1_1_s_l_h_a_1_1_slha_block.html" target="_top" xlink:title="LHPC::SLHA::SlhaBlock\l\&lt; ValueClass, InterpreterClass\l::DenseTriplyIndexed\&lt; ValueClass \&gt; \&gt;">
<polygon fill="none" stroke="#000000" points="552,-47.5 552,-82.5 705,-82.5 705,-47.5 552,-47.5"/>
<text text-anchor="start" x="560" y="-72.1" font-family="Helvetica,sans-Serif" font-size="8.00" fill="#000000">LHPC::SLHA::SlhaBlock</text>
<text text-anchor="start" x="560" y="-63.1" font-family="Helvetica,sans-Serif" font-size="8.00" fill="#000000">&lt; ValueClass, InterpreterClass</text>
<text text-anchor="middle" x="628.5" y="-54.1" font-family="Helvetica,sans-Serif" font-size="8.00" fill="#000000">::DenseTriplyIndexed&lt; ValueClass &gt; &gt;</text>
</a>
</g>
</g>
<!-- Node2&#45;&gt;Node1 -->
<g id="edge2" class="edge">
<title>Node2&#45;&gt;Node1</title>
<path fill="none" stroke="#191970" d="M715.3617,-62.8654C784.8678,-60.7576 884.7924,-56.8322 972,-50 977.8161,-49.5443 983.8636,-48.996 989.9101,-48.3975"/>
<polygon fill="#191970" stroke="#191970" points="715.2241,-59.3678 705.3325,-63.1633 715.4321,-66.3647 715.2241,-59.3678"/>
</g>
<!-- Node3 -->
<g id="node4" class="node">
<title>Node3</title>
<g id="a_node4"><a xlink:href="../../d2/d20/class_l_h_p_c_1_1_s_l_h_a_1_1_base_slha_block.html" target="_top" xlink:title="LHPC::SLHA::BaseSlhaBlock">
<polygon fill="none" stroke="#000000" points="127,-35.5 127,-52.5 248,-52.5 248,-35.5 127,-35.5"/>
<text text-anchor="middle" x="187.5" y="-42.1" font-family="Helvetica,sans-Serif" font-size="8.00" fill="#000000">LHPC::SLHA::BaseSlhaBlock</text>
</a>
</g>
</g>
<!-- Node3&#45;&gt;Node2 -->
<g id="edge3" class="edge">
<title>Node3&#45;&gt;Node2</title>
<path fill="none" stroke="#191970" d="M230.3706,-54.8874C295.7831,-70.1546 424.4658,-94.9023 534,-84 539.8283,-83.4199 545.8293,-82.6433 551.8469,-81.7347"/>
<polygon fill="#191970" stroke="#191970" points="230.9664,-51.4316 220.4282,-52.5254 229.3484,-58.2421 230.9664,-51.4316"/>
</g>
<!-- Node6 -->
<g id="node6" class="node">
<title>Node6</title>
<g id="a_node6"><a xlink:href="../../d6/daf/class_l_h_p_c_1_1_s_l_h_a_1_1_slha_block.html" target="_top" xlink:title="LHPC::SLHA::SlhaBlock\l\&lt; ValueClass, BlockParser \&gt;">
<polygon fill="none" stroke="#000000" points="285,-31 285,-57 403,-57 403,-31 285,-31"/>
<text text-anchor="start" x="293" y="-46.6" font-family="Helvetica,sans-Serif" font-size="8.00" fill="#000000">LHPC::SLHA::SlhaBlock</text>
<text text-anchor="middle" x="344" y="-37.6" font-family="Helvetica,sans-Serif" font-size="8.00" fill="#000000">&lt; ValueClass, BlockParser &gt;</text>
</a>
</g>
</g>
<!-- Node3&#45;&gt;Node6 -->
<g id="edge6" class="edge">
<title>Node3&#45;&gt;Node6</title>
<path fill="none" stroke="#191970" d="M258.0648,-44C267.0471,-44 276.1657,-44 284.9412,-44"/>
<polygon fill="#191970" stroke="#191970" points="258.007,-40.5001 248.007,-44 258.007,-47.5001 258.007,-40.5001"/>
</g>
<!-- Node8 -->
<g id="node8" class="node">
<title>Node8</title>
<g id="a_node8"><a xlink:href="../../d6/daf/class_l_h_p_c_1_1_s_l_h_a_1_1_slha_block.html" target="_top" xlink:title="LHPC::SLHA::SlhaBlock\l\&lt; ValueClass, IndexedParser \&gt;">
<polygon fill="none" stroke="#000000" points="565,-2 565,-28 692,-28 692,-2 565,-2"/>
<text text-anchor="start" x="573" y="-17.6" font-family="Helvetica,sans-Serif" font-size="8.00" fill="#000000">LHPC::SLHA::SlhaBlock</text>
<text text-anchor="middle" x="628.5" y="-8.6" font-family="Helvetica,sans-Serif" font-size="8.00" fill="#000000">&lt; ValueClass, IndexedParser &gt;</text>
</a>
</g>
</g>
<!-- Node3&#45;&gt;Node8 -->
<g id="edge9" class="edge">
<title>Node3&#45;&gt;Node8</title>
<path fill="none" stroke="#191970" d="M226.596,-32.7554C244.2735,-28.1966 265.5253,-23.4385 285,-21 382.0591,-8.847 495.7338,-9.8026 564.9022,-12.0591"/>
<polygon fill="#191970" stroke="#191970" points="225.4087,-29.4493 216.6411,-35.3975 227.2044,-36.215 225.4087,-29.4493"/>
</g>
<!-- Node4 -->
<g id="node5" class="node">
<title>Node4</title>
<g id="a_node5"><a xlink:href="../../d5/d13/class_b_o_l_1_1_pushed_to_observer.html" target="_top" xlink:title="StringBlockObserver">
<polygon fill="none" stroke="#ff0000" points="0,-35.5 0,-52.5 90,-52.5 90,-35.5 0,-35.5"/>
<text text-anchor="middle" x="45" y="-42.1" font-family="Helvetica,sans-Serif" font-size="8.00" fill="#000000">StringBlockObserver</text>
</a>
</g>
</g>
<!-- Node4&#45;&gt;Node3 -->
<g id="edge4" class="edge">
<title>Node4&#45;&gt;Node3</title>
<path fill="none" stroke="#191970" d="M100.15,-44C108.8834,-44 117.9573,-44 126.8089,-44"/>
<polygon fill="#191970" stroke="#191970" points="100.0879,-40.5001 90.0879,-44 100.0879,-47.5001 100.0879,-40.5001"/>
</g>
<!-- Node6&#45;&gt;Node2 -->
<g id="edge5" class="edge">
<title>Node6&#45;&gt;Node2</title>
<path fill="none" stroke="#ffa500" stroke-dasharray="5,2" d="M413.4608,-48.4827C449.4445,-50.8733 494.0934,-53.9458 534,-57 539.828,-57.446 545.8569,-57.9222 551.9188,-58.4116"/>
<polygon fill="#ffa500" stroke="#ffa500" points="413.2802,-44.9632 403.0709,-47.7954 412.8181,-51.9479 413.2802,-44.9632"/>
<text text-anchor="start" x="429.5" y="-77.6" font-family="Helvetica,sans-Serif" font-size="8.00" fill="#000000"> &lt; ValueClass, Interpreter</text>
<text text-anchor="start" x="429.5" y="-68.6" font-family="Helvetica,sans-Serif" font-size="8.00" fill="#000000">Class::DenseTriplyIndexed</text>
<text text-anchor="middle" x="477.5" y="-59.6" font-family="Helvetica,sans-Serif" font-size="8.00" fill="#000000">&lt; ValueClass &gt; &gt;</text>
</g>
<!-- Node6&#45;&gt;Node8 -->
<g id="edge10" class="edge">
<title>Node6&#45;&gt;Node8</title>
<path fill="none" stroke="#ffa500" stroke-dasharray="5,2" d="M413.3363,-36.7875C415.9234,-36.5212 418.4848,-36.2579 421,-36 469.266,-31.0503 523.8558,-25.5286 564.9249,-21.3899"/>
<polygon fill="#ffa500" stroke="#ffa500" points="412.8607,-33.3179 403.2727,-37.8257 413.5791,-40.281 412.8607,-33.3179"/>
<text text-anchor="middle" x="477.5" y="-38.6" font-family="Helvetica,sans-Serif" font-size="8.00" fill="#000000"> &lt; ValueClass, IndexedParser &gt;</text>
</g>
<!-- Node7 -->
<g id="node7" class="node">
<title>Node7</title>
<g id="a_node7"><a xlink:href="../../de/d5e/class_l_h_p_c_1_1_s_l_h_a_1_1_indexed_block_template.html" target="_top" xlink:title="LHPC::SLHA::IndexedBlock\lTemplate\&lt; ValueClass,\l IndexedParser \&gt;">
<polygon fill="none" stroke="#000000" points="742,-.5 742,-35.5 858,-35.5 858,-.5 742,-.5"/>
<text text-anchor="start" x="750" y="-25.1" font-family="Helvetica,sans-Serif" font-size="8.00" fill="#000000">LHPC::SLHA::IndexedBlock</text>
<text text-anchor="start" x="750" y="-16.1" font-family="Helvetica,sans-Serif" font-size="8.00" fill="#000000">Template&lt; ValueClass,</text>
<text text-anchor="middle" x="800" y="-7.1" font-family="Helvetica,sans-Serif" font-size="8.00" fill="#000000"> IndexedParser &gt;</text>
</a>
</g>
</g>
<!-- Node7&#45;&gt;Node1 -->
<g id="edge7" class="edge">
<title>Node7&#45;&gt;Node1</title>
<path fill="none" stroke="#ffa500" stroke-dasharray="5,2" d="M868.3713,-16.9578C900.0133,-17.2507 938.0362,-18.7026 972,-23 977.7562,-23.7283 983.7078,-24.6851 989.6445,-25.7784"/>
<polygon fill="#ffa500" stroke="#ffa500" points="868.3549,-13.4578 858.3353,-16.9014 868.3154,-20.4577 868.3549,-13.4578"/>
<text text-anchor="start" x="876" y="-43.6" font-family="Helvetica,sans-Serif" font-size="8.00" fill="#000000"> &lt; ValueClass, Interpreter</text>
<text text-anchor="start" x="876" y="-34.6" font-family="Helvetica,sans-Serif" font-size="8.00" fill="#000000">Class::DenseTriplyIndexed</text>
<text text-anchor="middle" x="924" y="-25.6" font-family="Helvetica,sans-Serif" font-size="8.00" fill="#000000">&lt; ValueClass &gt; &gt;</text>
</g>
<!-- Node8&#45;&gt;Node7 -->
<g id="edge8" class="edge">
<title>Node8&#45;&gt;Node7</title>
<path fill="none" stroke="#191970" d="M702.7306,-16.2985C715.7881,-16.5269 729.2085,-16.7617 741.751,-16.9811"/>
<polygon fill="#191970" stroke="#191970" points="702.42,-12.7926 692.3603,-16.1171 702.2975,-19.7915 702.42,-12.7926"/>
</g>
</g>
</svg>
