<?xml version="1.0" encoding="UTF-8" standalone="no"?>
<!DOCTYPE svg PUBLIC "-//W3C//DTD SVG 1.1//EN"
 "http://www.w3.org/Graphics/SVG/1.1/DTD/svg11.dtd">
<!-- Generated by graphviz version 2.38.0 (20140413.2041)
 -->
<!-- Title: DeltaS Pages: 1 -->
<svg width="439pt" height="450pt"
 viewBox="0.00 0.00 439.48 450.00" xmlns="http://www.w3.org/2000/svg" xmlns:xlink="http://www.w3.org/1999/xlink">
<g id="graph0" class="graph" transform="scale(1 1) rotate(0) translate(4 446)">
<title>DeltaS</title>
<!-- Node1 -->
<g id="node1" class="node"><title>Node1</title>
<polygon fill="#bfbfbf" stroke="black" points="182.982,-0.5 182.982,-17.5 223.982,-17.5 223.982,-0.5 182.982,-0.5"/>
<text text-anchor="middle" x="203.482" y="-7.1" font-family="Helvetica,sans-Serif" font-size="8.00">DeltaS</text>
</g>
<!-- Node2 -->
<g id="node2" class="node"><title>Node2</title>
<g id="a_node2"><a xlink:href="../../d7/d0f/class_s_t_u.html" target="_top" xlink:title="An observable class for the electroweak Peskin&#45;Takeuchi pseudo&#45;observables. ">
<polygon fill="none" stroke="black" points="186.982,-55.5 186.982,-72.5 219.982,-72.5 219.982,-55.5 186.982,-55.5"/>
<text text-anchor="middle" x="203.482" y="-62.1" font-family="Helvetica,sans-Serif" font-size="8.00">STU</text>
</a>
</g>
</g>
<!-- Node2&#45;&gt;Node1 -->
<g id="edge1" class="edge"><title>Node2&#45;&gt;Node1</title>
<path fill="none" stroke="midnightblue" d="M203.482,-44.8927C203.482,-35.5285 203.482,-24.6052 203.482,-17.5092"/>
<polygon fill="midnightblue" stroke="midnightblue" points="199.982,-45.1796 203.482,-55.1797 206.982,-45.1797 199.982,-45.1796"/>
</g>
<!-- Node3 -->
<g id="node3" class="node"><title>Node3</title>
<g id="a_node3"><a xlink:href="../../dc/d1f/class_th_observable.html" target="_top" xlink:title="A class for a model prediction of an observable. ">
<polygon fill="none" stroke="black" points="140.982,-118.5 140.982,-135.5 207.982,-135.5 207.982,-118.5 140.982,-118.5"/>
<text text-anchor="middle" x="174.482" y="-125.1" font-family="Helvetica,sans-Serif" font-size="8.00">ThObservable</text>
</a>
</g>
</g>
<!-- Node3&#45;&gt;Node2 -->
<g id="edge2" class="edge"><title>Node3&#45;&gt;Node2</title>
<path fill="none" stroke="midnightblue" d="M184.366,-109.687C186.151,-106.517 187.934,-103.188 189.482,-100 193.94,-90.8154 198.163,-79.8277 200.783,-72.645"/>
<polygon fill="midnightblue" stroke="midnightblue" points="181.283,-108.024 179.24,-118.42 187.32,-111.567 181.283,-108.024"/>
</g>
<!-- Node4 -->
<g id="node4" class="node"><title>Node4</title>
<g id="a_node4"><a xlink:href="../../dc/dd5/class_standard_model.html" target="_top" xlink:title="A model class for the Standard Model. ">
<polygon fill="none" stroke="red" points="47.9819,-181.5 47.9819,-198.5 118.982,-198.5 118.982,-181.5 47.9819,-181.5"/>
<text text-anchor="middle" x="83.4819" y="-188.1" font-family="Helvetica,sans-Serif" font-size="8.00">StandardModel</text>
</a>
</g>
</g>
<!-- Node4&#45;&gt;Node3 -->
<g id="edge3" class="edge"><title>Node4&#45;&gt;Node3</title>
<path fill="none" stroke="#9a32cd" stroke-dasharray="5,2" d="M125.979,-177.923C135.34,-174.19 144.756,-169.312 152.482,-163 161.486,-155.644 167.904,-143.582 171.404,-135.716"/>
<polygon fill="#9a32cd" stroke="#9a32cd" points="124.534,-174.723 116.316,-181.41 126.91,-181.307 124.534,-174.723"/>
<text text-anchor="middle" x="167.982" y="-156.6" font-family="Helvetica,sans-Serif" font-size="8.00"> SM</text>
</g>
<!-- Node9 -->
<g id="node9" class="node"><title>Node9</title>
<g id="a_node9"><a xlink:href="../../d0/d52/class_t_h_d_m.html" target="_top" xlink:title="A base class &#160;symmetric Two&#45;Higgs&#45;Doublet models. ">
<polygon fill="none" stroke="black" points="73.4819,-118.5 73.4819,-135.5 113.482,-135.5 113.482,-118.5 73.4819,-118.5"/>
<text text-anchor="middle" x="93.4819" y="-125.1" font-family="Helvetica,sans-Serif" font-size="8.00">THDM</text>
</a>
</g>
</g>
<!-- Node4&#45;&gt;Node9 -->
<g id="edge10" class="edge"><title>Node4&#45;&gt;Node9</title>
<path fill="none" stroke="midnightblue" d="M86.3885,-171.27C88.31,-159.549 90.7349,-144.757 92.1941,-135.856"/>
<polygon fill="midnightblue" stroke="midnightblue" points="82.9123,-170.84 84.7484,-181.274 89.8201,-171.972 82.9123,-170.84"/>
</g>
<!-- Node5 -->
<g id="node5" class="node"><title>Node5</title>
<g id="a_node5"><a xlink:href="../../dd/d9b/classgslpp_1_1complex.html" target="_top" xlink:title="A class for defining operations on and functions of complex numbers. ">
<polygon fill="none" stroke="black" points="64.4819,-424.5 64.4819,-441.5 134.482,-441.5 134.482,-424.5 64.4819,-424.5"/>
<text text-anchor="middle" x="99.4819" y="-431.1" font-family="Helvetica,sans-Serif" font-size="8.00">gslpp::complex</text>
</a>
</g>
</g>
<!-- Node5&#45;&gt;Node4 -->
<g id="edge4" class="edge"><title>Node5&#45;&gt;Node4</title>
<path fill="none" stroke="#9a32cd" stroke-dasharray="5,2" d="M71.198,-418.839C66.4911,-415.349 62.2473,-411.096 59.4819,-406 19.4159,-332.171 28.8941,-295.233 59.4819,-217 62.3451,-209.677 68.3451,-203.177 73.6293,-198.508"/>
<polygon fill="#9a32cd" stroke="#9a32cd" points="69.6172,-421.978 79.9513,-424.314 73.3295,-416.044 69.6172,-421.978"/>
<text text-anchor="middle" x="89.4819" y="-314.1" font-family="Helvetica,sans-Serif" font-size="8.00"> rhoZ_f_cache</text>
<text text-anchor="middle" x="89.4819" y="-305.1" font-family="Helvetica,sans-Serif" font-size="8.00">kappaZ_f_cache</text>
</g>
<!-- Node6 -->
<g id="node6" class="node"><title>Node6</title>
<g id="a_node6"><a xlink:href="../../d5/df2/class_t_h_d_mcache.html" target="_top" xlink:title="A class for the caching of some THDM objects. ">
<polygon fill="none" stroke="black" points="213.982,-181.5 213.982,-198.5 274.982,-198.5 274.982,-181.5 213.982,-181.5"/>
<text text-anchor="middle" x="244.482" y="-188.1" font-family="Helvetica,sans-Serif" font-size="8.00">THDMcache</text>
</a>
</g>
</g>
<!-- Node5&#45;&gt;Node6 -->
<g id="edge7" class="edge"><title>Node5&#45;&gt;Node6</title>
<path fill="none" stroke="#9a32cd" stroke-dasharray="5,2" d="M113.887,-416.066C116.094,-412.914 118.095,-409.493 119.482,-406 135.058,-366.767 110.8,-248.867 138.482,-217 148.267,-205.735 186.135,-198.49 213.826,-194.582"/>
<polygon fill="#9a32cd" stroke="#9a32cd" points="110.987,-414.089 107.464,-424.081 116.449,-418.466 110.987,-414.089"/>
<text text-anchor="start" x="138.482" y="-399.6" font-family="Helvetica,sans-Serif" font-size="8.00"> B00_MZ2_MZ2_mHl2_mA2</text>
<text text-anchor="middle" x="190.982" y="-390.6" font-family="Helvetica,sans-Serif" font-size="8.00">_cache</text>
<text text-anchor="start" x="138.482" y="-381.6" font-family="Helvetica,sans-Serif" font-size="8.00">B00_MZ2_MW2_MW2_mHl2</text>
<text text-anchor="middle" x="190.982" y="-372.6" font-family="Helvetica,sans-Serif" font-size="8.00">_cache</text>
<text text-anchor="start" x="138.482" y="-363.6" font-family="Helvetica,sans-Serif" font-size="8.00">B00_MZ2_0_MW2_mHl2</text>
<text text-anchor="middle" x="190.982" y="-354.6" font-family="Helvetica,sans-Serif" font-size="8.00">_cache</text>
<text text-anchor="start" x="138.482" y="-345.6" font-family="Helvetica,sans-Serif" font-size="8.00">B00_MZ2_0_mHl2_mHp2</text>
<text text-anchor="middle" x="190.982" y="-336.6" font-family="Helvetica,sans-Serif" font-size="8.00">_cache</text>
<text text-anchor="start" x="138.482" y="-327.6" font-family="Helvetica,sans-Serif" font-size="8.00">B0_MZ2_0_MZ2_mHl2</text>
<text text-anchor="middle" x="190.982" y="-318.6" font-family="Helvetica,sans-Serif" font-size="8.00">_cache</text>
<text text-anchor="start" x="138.482" y="-309.6" font-family="Helvetica,sans-Serif" font-size="8.00">B00_MZ2_MW2_mHh2</text>
<text text-anchor="middle" x="190.982" y="-300.6" font-family="Helvetica,sans-Serif" font-size="8.00">_mHp2_cache</text>
<text text-anchor="start" x="138.482" y="-291.6" font-family="Helvetica,sans-Serif" font-size="8.00">B00_MZ2_0_mHh2_mA2</text>
<text text-anchor="middle" x="190.982" y="-282.6" font-family="Helvetica,sans-Serif" font-size="8.00">_cache</text>
<text text-anchor="start" x="138.482" y="-273.6" font-family="Helvetica,sans-Serif" font-size="8.00">B00_MZ2_MZ2_mHh2</text>
<text text-anchor="middle" x="190.982" y="-264.6" font-family="Helvetica,sans-Serif" font-size="8.00">_mA2_cache</text>
<text text-anchor="start" x="138.482" y="-255.6" font-family="Helvetica,sans-Serif" font-size="8.00">B00_MZ2_0_mHh2_mHp2</text>
<text text-anchor="middle" x="190.982" y="-246.6" font-family="Helvetica,sans-Serif" font-size="8.00">_cache</text>
<text text-anchor="start" x="138.482" y="-237.6" font-family="Helvetica,sans-Serif" font-size="8.00">B0_MZ2_MW2_MW2_mHl2</text>
<text text-anchor="middle" x="190.982" y="-228.6" font-family="Helvetica,sans-Serif" font-size="8.00">_cache</text>
<text text-anchor="middle" x="190.982" y="-219.6" font-family="Helvetica,sans-Serif" font-size="8.00">...</text>
</g>
<!-- Node6&#45;&gt;Node2 -->
<g id="edge5" class="edge"><title>Node6&#45;&gt;Node2</title>
<path fill="none" stroke="#9a32cd" stroke-dasharray="5,2" d="M238.685,-171.468C229.635,-144.097 212.516,-92.3227 206.046,-72.7538"/>
<polygon fill="#9a32cd" stroke="#9a32cd" points="235.455,-172.848 241.917,-181.243 242.101,-170.65 235.455,-172.848"/>
<text text-anchor="middle" x="244.982" y="-125.1" font-family="Helvetica,sans-Serif" font-size="8.00"> mycache</text>
</g>
<!-- Node6&#45;&gt;Node9 -->
<g id="edge11" class="edge"><title>Node6&#45;&gt;Node9</title>
<path fill="none" stroke="#9a32cd" stroke-dasharray="5,2" d="M203.66,-189.461C175.895,-187.853 139.599,-181.795 113.482,-163 104.166,-156.296 98.578,-143.817 95.7649,-135.714"/>
<polygon fill="#9a32cd" stroke="#9a32cd" points="203.71,-192.965 213.844,-189.876 203.995,-185.971 203.71,-192.965"/>
<text text-anchor="middle" x="130.982" y="-156.6" font-family="Helvetica,sans-Serif" font-size="8.00"> mycache</text>
</g>
<!-- Node7 -->
<g id="node7" class="node"><title>Node7</title>
<g id="a_node7"><a xlink:href="../../d4/d7b/class_p_vfunctions.html" target="_top" xlink:title="A class for Passarino&#45;Veltman functions. ">
<polygon fill="none" stroke="red" points="239.982,-424.5 239.982,-441.5 298.982,-441.5 298.982,-424.5 239.982,-424.5"/>
<text text-anchor="middle" x="269.482" y="-431.1" font-family="Helvetica,sans-Serif" font-size="8.00">PVfunctions</text>
</a>
</g>
</g>
<!-- Node7&#45;&gt;Node6 -->
<g id="edge6" class="edge"><title>Node7&#45;&gt;Node6</title>
<path fill="none" stroke="#9a32cd" stroke-dasharray="5,2" d="M267.724,-414.045C264.091,-377.129 255.432,-290.038 247.482,-217 246.813,-210.857 246.008,-203.903 245.401,-198.733"/>
<polygon fill="#9a32cd" stroke="#9a32cd" points="264.259,-414.576 268.719,-424.187 271.225,-413.892 264.259,-414.576"/>
<text text-anchor="middle" x="273.982" y="-309.6" font-family="Helvetica,sans-Serif" font-size="8.00"> PV</text>
</g>
<!-- Node8 -->
<g id="node8" class="node"><title>Node8</title>
<g id="a_node8"><a xlink:href="../../d7/d10/classgslpp_1_1matrix_3_01double_01_4.html" target="_top" xlink:title="A class for constructing and defining operations on real matrices. ">
<polygon fill="none" stroke="black" points="317.482,-424.5 317.482,-441.5 417.482,-441.5 417.482,-424.5 317.482,-424.5"/>
<text text-anchor="middle" x="367.482" y="-431.1" font-family="Helvetica,sans-Serif" font-size="8.00">gslpp::matrix&lt; double &gt;</text>
</a>
</g>
</g>
<!-- Node8&#45;&gt;Node6 -->
<g id="edge8" class="edge"><title>Node8&#45;&gt;Node6</title>
<path fill="none" stroke="#9a32cd" stroke-dasharray="5,2" d="M364.471,-414.19C357.054,-374.816 334.73,-278.958 284.482,-217 278.221,-209.281 269.041,-203.085 261.054,-198.681"/>
<polygon fill="#9a32cd" stroke="#9a32cd" points="361.108,-415.266 366.309,-424.497 367.999,-414.037 361.108,-415.266"/>
<text text-anchor="middle" x="397.482" y="-368.1" font-family="Helvetica,sans-Serif" font-size="8.00"> cs_ggA_bb</text>
<text text-anchor="middle" x="397.482" y="-359.1" font-family="Helvetica,sans-Serif" font-size="8.00">br_mumu</text>
<text text-anchor="middle" x="397.482" y="-350.1" font-family="Helvetica,sans-Serif" font-size="8.00">br_tautau</text>
<text text-anchor="middle" x="397.482" y="-341.1" font-family="Helvetica,sans-Serif" font-size="8.00">arraybsgamma</text>
<text text-anchor="start" x="363.482" y="-332.1" font-family="Helvetica,sans-Serif" font-size="8.00">ATLAS_ggF_A_hZ</text>
<text text-anchor="middle" x="397.482" y="-323.1" font-family="Helvetica,sans-Serif" font-size="8.00">_bbZ</text>
<text text-anchor="middle" x="397.482" y="-314.1" font-family="Helvetica,sans-Serif" font-size="8.00">cs_ggA</text>
<text text-anchor="start" x="363.482" y="-305.1" font-family="Helvetica,sans-Serif" font-size="8.00">ATLAS_ggF_phi</text>
<text text-anchor="middle" x="397.482" y="-296.1" font-family="Helvetica,sans-Serif" font-size="8.00">_gaga</text>
<text text-anchor="start" x="363.482" y="-287.1" font-family="Helvetica,sans-Serif" font-size="8.00">ATLAS_pp_phi</text>
<text text-anchor="middle" x="397.482" y="-278.1" font-family="Helvetica,sans-Serif" font-size="8.00">_tt</text>
<text text-anchor="middle" x="397.482" y="-269.1" font-family="Helvetica,sans-Serif" font-size="8.00">cs_ggH_tt</text>
<text text-anchor="middle" x="397.482" y="-260.1" font-family="Helvetica,sans-Serif" font-size="8.00">pc_ZH</text>
<text text-anchor="middle" x="397.482" y="-251.1" font-family="Helvetica,sans-Serif" font-size="8.00">...</text>
</g>
<!-- Node9&#45;&gt;Node2 -->
<g id="edge9" class="edge"><title>Node9&#45;&gt;Node2</title>
<path fill="none" stroke="#9a32cd" stroke-dasharray="5,2" d="M113.327,-112.853C123.895,-106.044 137.211,-97.762 149.482,-91 161.693,-84.2707 175.916,-77.4625 186.699,-72.5017"/>
<polygon fill="#9a32cd" stroke="#9a32cd" points="111.31,-109.99 104.843,-118.383 115.132,-115.855 111.31,-109.99"/>
<text text-anchor="middle" x="167.482" y="-93.6" font-family="Helvetica,sans-Serif" font-size="8.00"> myTHDM</text>
</g>
<!-- Node10 -->
<g id="node10" class="node"><title>Node10</title>
<g id="a_node10"><a xlink:href="../../dc/d38/class_t_h_d_m_matching.html" target="_top" xlink:title="A class for the Wilson coefficients in the THDM. ">
<polygon fill="none" stroke="red" points="11.4819,-55.5 11.4819,-72.5 83.4819,-72.5 83.4819,-55.5 11.4819,-55.5"/>
<text text-anchor="middle" x="47.4819" y="-62.1" font-family="Helvetica,sans-Serif" font-size="8.00">THDMMatching</text>
</a>
</g>
</g>
<!-- Node9&#45;&gt;Node10 -->
<g id="edge13" class="edge"><title>Node9&#45;&gt;Node10</title>
<path fill="none" stroke="#9a32cd" stroke-dasharray="5,2" d="M84.1889,-109.85C80.4732,-103.774 76.005,-96.9094 71.4819,-91 66.5533,-84.5609 60.3265,-77.8496 55.4506,-72.8586"/>
<polygon fill="#9a32cd" stroke="#9a32cd" points="81.2027,-111.676 89.3084,-118.499 87.2265,-108.11 81.2027,-111.676"/>
<text text-anchor="middle" x="95.4819" y="-93.6" font-family="Helvetica,sans-Serif" font-size="8.00"> myTHDM</text>
</g>
<!-- Node10&#45;&gt;Node9 -->
<g id="edge12" class="edge"><title>Node10&#45;&gt;Node9</title>
<path fill="none" stroke="#9a32cd" stroke-dasharray="5,2" d="M15.4897,-76.8011C4.09255,-82.8515 -4.40489,-90.87 2.48187,-100 18.8079,-121.644 51.8919,-126.188 73.3497,-126.684"/>
<polygon fill="#9a32cd" stroke="#9a32cd" points="16.9782,-79.9689 24.5636,-72.5722 14.0211,-73.6241 16.9782,-79.9689"/>
<text text-anchor="middle" x="36.9819" y="-93.6" font-family="Helvetica,sans-Serif" font-size="8.00"> myTHDMMatching</text>
</g>
</g>
</svg>
