<?xml version="1.0" encoding="UTF-8" standalone="no"?>
<!DOCTYPE svg PUBLIC "-//W3C//DTD SVG 1.1//EN"
 "http://www.w3.org/Graphics/SVG/1.1/DTD/svg11.dtd">
<!-- Generated by graphviz version 2.38.0 (20140413.2041)
 -->
<!-- Title: mueconversion.cpp Pages: 1 -->
<svg width="405pt" height="296pt"
 viewBox="0.00 0.00 405.04 296.00" xmlns="http://www.w3.org/2000/svg" xmlns:xlink="http://www.w3.org/1999/xlink">
<g id="graph0" class="graph" transform="scale(1 1) rotate(0) translate(4 292)">
<title>mueconversion.cpp</title>
<!-- Node1 -->
<g id="node1" class="node"><title>Node1</title>
<polygon fill="#bfbfbf" stroke="black" points="138.035,-270.5 138.035,-287.5 224.035,-287.5 224.035,-270.5 138.035,-270.5"/>
<text text-anchor="middle" x="181.035" y="-277.1" font-family="Helvetica,sans-Serif" font-size="8.00">mueconversion.cpp</text>
</g>
<!-- Node2 -->
<g id="node2" class="node"><title>Node2</title>
<g id="a_node2"><a xlink:href="../../d8/df5/mueconversion_8h.html" target="_top" xlink:title="mueconversion.h">
<polygon fill="none" stroke="black" points="64.535,-216.5 64.535,-233.5 141.535,-233.5 141.535,-216.5 64.535,-216.5"/>
<text text-anchor="middle" x="103.035" y="-223.1" font-family="Helvetica,sans-Serif" font-size="8.00">mueconversion.h</text>
</a>
</g>
</g>
<!-- Node1&#45;&gt;Node2 -->
<g id="edge1" class="edge"><title>Node1&#45;&gt;Node2</title>
<path fill="none" stroke="midnightblue" d="M169.526,-270.327C157.243,-262.139 137.559,-249.016 122.789,-239.169"/>
<polygon fill="midnightblue" stroke="midnightblue" points="124.6,-236.17 114.338,-233.535 120.717,-241.994 124.6,-236.17"/>
</g>
<!-- Node5 -->
<g id="node5" class="node"><title>Node5</title>
<g id="a_node5"><a xlink:href="../../d6/d0a/_standard_model_8h.html" target="_top" xlink:title="StandardModel.h">
<polygon fill="none" stroke="black" points="106.535,-108.5 106.535,-125.5 183.535,-125.5 183.535,-108.5 106.535,-108.5"/>
<text text-anchor="middle" x="145.035" y="-115.1" font-family="Helvetica,sans-Serif" font-size="8.00">StandardModel.h</text>
</a>
</g>
</g>
<!-- Node1&#45;&gt;Node5 -->
<g id="edge13" class="edge"><title>Node1&#45;&gt;Node5</title>
<path fill="none" stroke="midnightblue" d="M185.561,-270.224C196.18,-250.884 220.447,-199.472 202.035,-162 195.401,-148.499 182.411,-137.969 170.505,-130.6"/>
<polygon fill="midnightblue" stroke="midnightblue" points="172.153,-127.51 161.735,-125.584 168.678,-133.587 172.153,-127.51"/>
</g>
<!-- Node3 -->
<g id="node3" class="node"><title>Node3</title>
<g id="a_node3"><a xlink:href="../../d9/d72/gslpp_8h.html" target="_top" xlink:title="gslpp.h">
<polygon fill="none" stroke="red" points="70.035,-0.5 70.035,-17.5 112.035,-17.5 112.035,-0.5 70.035,-0.5"/>
<text text-anchor="middle" x="91.035" y="-7.1" font-family="Helvetica,sans-Serif" font-size="8.00">gslpp.h</text>
</a>
</g>
</g>
<!-- Node2&#45;&gt;Node3 -->
<g id="edge2" class="edge"><title>Node2&#45;&gt;Node3</title>
<path fill="none" stroke="midnightblue" d="M70.9792,-216.364C52.0157,-210.019 29.5219,-198.881 18.035,-180 -0.211038,-150.009 -21.3215,-176.643 49.035,-54 55.4066,-42.8934 65.1643,-32.4373 73.6714,-24.5069"/>
<polygon fill="midnightblue" stroke="midnightblue" points="76.1397,-26.9959 81.293,-17.7388 71.4916,-21.7618 76.1397,-26.9959"/>
</g>
<!-- Node4 -->
<g id="node4" class="node"><title>Node4</title>
<g id="a_node4"><a xlink:href="../../dd/dcd/_th_observable_8h.html" target="_top" xlink:title="ThObservable.h">
<polygon fill="none" stroke="black" points="27.535,-162.5 27.535,-179.5 100.535,-179.5 100.535,-162.5 27.535,-162.5"/>
<text text-anchor="middle" x="64.035" y="-169.1" font-family="Helvetica,sans-Serif" font-size="8.00">ThObservable.h</text>
</a>
</g>
</g>
<!-- Node2&#45;&gt;Node4 -->
<g id="edge3" class="edge"><title>Node2&#45;&gt;Node4</title>
<path fill="none" stroke="midnightblue" d="M97.2804,-216.327C91.6926,-208.877 83.041,-197.341 75.9642,-187.906"/>
<polygon fill="midnightblue" stroke="midnightblue" points="78.6133,-185.604 69.8132,-179.704 73.0133,-189.804 78.6133,-185.604"/>
</g>
<!-- Node10 -->
<g id="node10" class="node"><title>Node10</title>
<g id="a_node10"><a xlink:href="../../db/d63/_lepton_flavour_8h.html" target="_top" xlink:title="LeptonFlavour.h">
<polygon fill="none" stroke="red" points="119.035,-162.5 119.035,-179.5 193.035,-179.5 193.035,-162.5 119.035,-162.5"/>
<text text-anchor="middle" x="156.035" y="-169.1" font-family="Helvetica,sans-Serif" font-size="8.00">LeptonFlavour.h</text>
</a>
</g>
</g>
<!-- Node2&#45;&gt;Node10 -->
<g id="edge12" class="edge"><title>Node2&#45;&gt;Node10</title>
<path fill="none" stroke="midnightblue" d="M110.855,-216.327C118.762,-208.57 131.183,-196.383 141.002,-186.749"/>
<polygon fill="midnightblue" stroke="midnightblue" points="143.496,-189.206 148.183,-179.704 138.593,-184.209 143.496,-189.206"/>
</g>
<!-- Node4&#45;&gt;Node5 -->
<g id="edge4" class="edge"><title>Node4&#45;&gt;Node5</title>
<path fill="none" stroke="midnightblue" d="M75.9869,-162.327C88.742,-154.139 109.184,-141.016 124.521,-131.169"/>
<polygon fill="midnightblue" stroke="midnightblue" points="126.773,-133.883 133.298,-125.535 122.992,-127.992 126.773,-133.883"/>
</g>
<!-- Node5&#45;&gt;Node3 -->
<g id="edge5" class="edge"><title>Node5&#45;&gt;Node3</title>
<path fill="none" stroke="midnightblue" d="M110.621,-108.492C90.9751,-102.253 67.9492,-91.1808 56.035,-72 46.1124,-56.0254 60.3455,-37.1403 73.5275,-24.4462"/>
<polygon fill="midnightblue" stroke="midnightblue" points="75.8752,-27.0421 80.9768,-17.7564 71.198,-21.834 75.8752,-27.0421"/>
</g>
<!-- Node6 -->
<g id="node6" class="node"><title>Node6</title>
<g id="a_node6"><a xlink:href="../../d4/d68/_q_c_d_8h.html" target="_top" xlink:title="QCD.h">
<polygon fill="none" stroke="red" points="65.535,-54.5 65.535,-71.5 106.535,-71.5 106.535,-54.5 65.535,-54.5"/>
<text text-anchor="middle" x="86.035" y="-61.1" font-family="Helvetica,sans-Serif" font-size="8.00">QCD.h</text>
</a>
</g>
</g>
<!-- Node5&#45;&gt;Node6 -->
<g id="edge6" class="edge"><title>Node5&#45;&gt;Node6</title>
<path fill="none" stroke="midnightblue" d="M136.329,-108.327C127.44,-100.493 113.426,-88.1412 102.446,-78.4641"/>
<polygon fill="midnightblue" stroke="midnightblue" points="104.593,-75.6906 94.7764,-71.7043 99.9643,-80.942 104.593,-75.6906"/>
</g>
<!-- Node7 -->
<g id="node7" class="node"><title>Node7</title>
<g id="a_node7"><a xlink:href="../../db/d5d/_c_k_m_8h.html" target="_top" xlink:title="CKM.h">
<polygon fill="none" stroke="red" points="124.535,-54.5 124.535,-71.5 165.535,-71.5 165.535,-54.5 124.535,-54.5"/>
<text text-anchor="middle" x="145.035" y="-61.1" font-family="Helvetica,sans-Serif" font-size="8.00">CKM.h</text>
</a>
</g>
</g>
<!-- Node5&#45;&gt;Node7 -->
<g id="edge7" class="edge"><title>Node5&#45;&gt;Node7</title>
<path fill="none" stroke="midnightblue" d="M145.035,-108.327C145.035,-101.414 145.035,-90.985 145.035,-81.9789"/>
<polygon fill="midnightblue" stroke="midnightblue" points="148.535,-81.7042 145.035,-71.7043 141.535,-81.7043 148.535,-81.7042"/>
</g>
<!-- Node8 -->
<g id="node8" class="node"><title>Node8</title>
<g id="a_node8"><a xlink:href="../../db/dba/_wilson_coefficient_8h.html" target="_top" xlink:title="WilsonCoefficient.h">
<polygon fill="none" stroke="red" points="183.535,-54.5 183.535,-71.5 268.535,-71.5 268.535,-54.5 183.535,-54.5"/>
<text text-anchor="middle" x="226.035" y="-61.1" font-family="Helvetica,sans-Serif" font-size="8.00">WilsonCoefficient.h</text>
</a>
</g>
</g>
<!-- Node5&#45;&gt;Node8 -->
<g id="edge9" class="edge"><title>Node5&#45;&gt;Node8</title>
<path fill="none" stroke="midnightblue" d="M156.987,-108.327C169.742,-100.139 190.184,-87.0157 205.521,-77.1692"/>
<polygon fill="midnightblue" stroke="midnightblue" points="207.773,-79.8829 214.298,-71.5352 203.992,-73.9923 207.773,-79.8829"/>
</g>
<!-- Node9 -->
<g id="node9" class="node"><title>Node9</title>
<g id="a_node9"><a xlink:href="../../d6/d16/_standard_model_matching_8h.html" target="_top" xlink:title="StandardModelMatching.h">
<polygon fill="none" stroke="red" points="287.035,-54.5 287.035,-71.5 397.035,-71.5 397.035,-54.5 287.035,-54.5"/>
<text text-anchor="middle" x="342.035" y="-61.1" font-family="Helvetica,sans-Serif" font-size="8.00">StandardModelMatching.h</text>
</a>
</g>
</g>
<!-- Node5&#45;&gt;Node9 -->
<g id="edge10" class="edge"><title>Node5&#45;&gt;Node9</title>
<path fill="none" stroke="midnightblue" d="M173.681,-108.439C207.967,-99.3886 265.517,-84.1977 303.633,-74.1367"/>
<polygon fill="midnightblue" stroke="midnightblue" points="304.579,-77.5067 313.355,-71.5704 302.793,-70.7385 304.579,-77.5067"/>
</g>
<!-- Node7&#45;&gt;Node3 -->
<g id="edge8" class="edge"><title>Node7&#45;&gt;Node3</title>
<path fill="none" stroke="midnightblue" d="M137.067,-54.3272C129.011,-46.5696 116.356,-34.383 106.352,-24.7494"/>
<polygon fill="midnightblue" stroke="midnightblue" points="108.667,-22.1196 99.0356,-17.7043 103.811,-27.1618 108.667,-22.1196"/>
</g>
<!-- Node9&#45;&gt;Node3 -->
<g id="edge11" class="edge"><title>Node9&#45;&gt;Node3</title>
<path fill="none" stroke="midnightblue" d="M305.806,-54.4943C256.329,-44.2442 168.474,-26.043 121.942,-16.403"/>
<polygon fill="midnightblue" stroke="midnightblue" points="122.63,-12.9713 112.128,-14.3698 121.21,-19.8258 122.63,-12.9713"/>
</g>
</g>
</svg>
