<?xml version="1.0" encoding="UTF-8" standalone="no"?>
<!DOCTYPE svg PUBLIC "-//W3C//DTD SVG 1.1//EN"
 "http://www.w3.org/Graphics/SVG/1.1/DTD/svg11.dtd">
<!-- Generated by graphviz version 2.40.1 (20161225.0304)
 -->
<!-- Title: EvolBsmm.h Pages: 1 -->
<svg width="274pt" height="80pt"
 viewBox="0.00 0.00 273.50 80.00" xmlns="http://www.w3.org/2000/svg" xmlns:xlink="http://www.w3.org/1999/xlink">
<g id="graph0" class="graph" transform="scale(1 1) rotate(0) translate(4 76)">
<title>EvolBsmm.h</title>
<!-- Node23 -->
<g id="node1" class="node">
<title>Node23</title>
<polygon fill="#bfbfbf" stroke="#000000" points="120,-54.5 120,-71.5 181,-71.5 181,-54.5 120,-54.5"/>
<text text-anchor="middle" x="150.5" y="-61.1" font-family="Helvetica,sans-Serif" font-size="8.00" fill="#000000">EvolBsmm.h</text>
</g>
<!-- Node24 -->
<g id="node2" class="node">
<title>Node24</title>
<g id="a_node2"><a xlink:href="../../d6/d68/main__df1evol__test_8cpp.html" target="_top" xlink:title="main_df1evol_test.cpp">
<polygon fill="none" stroke="#000000" points="0,-.5 0,-17.5 97,-17.5 97,-.5 0,-.5"/>
<text text-anchor="middle" x="48.5" y="-7.1" font-family="Helvetica,sans-Serif" font-size="8.00" fill="#000000">main_df1evol_test.cpp</text>
</a>
</g>
</g>
<!-- Node23&#45;&gt;Node24 -->
<g id="edge1" class="edge">
<title>Node23&#45;&gt;Node24</title>
<path fill="none" stroke="#191970" d="M125.1691,-49.5895C106.3098,-39.6052 81.1158,-26.2672 64.8474,-17.6545"/>
<polygon fill="#191970" stroke="#191970" points="123.6364,-52.7383 134.1119,-54.324 126.9117,-46.5518 123.6364,-52.7383"/>
</g>
<!-- Node25 -->
<g id="node3" class="node">
<title>Node25</title>
<g id="a_node3"><a xlink:href="../../d1/ddf/_evol_bsmm_8cpp.html" target="_top" xlink:title="EvolBsmm.cpp">
<polygon fill="none" stroke="#000000" points="115.5,-.5 115.5,-17.5 185.5,-17.5 185.5,-.5 115.5,-.5"/>
<text text-anchor="middle" x="150.5" y="-7.1" font-family="Helvetica,sans-Serif" font-size="8.00" fill="#000000">EvolBsmm.cpp</text>
</a>
</g>
</g>
<!-- Node23&#45;&gt;Node25 -->
<g id="edge2" class="edge">
<title>Node23&#45;&gt;Node25</title>
<path fill="none" stroke="#191970" d="M150.5,-43.8045C150.5,-34.9102 150.5,-24.7798 150.5,-17.7511"/>
<polygon fill="#191970" stroke="#191970" points="147.0001,-44.083 150.5,-54.083 154.0001,-44.083 147.0001,-44.083"/>
</g>
<!-- Node26 -->
<g id="node4" class="node">
<title>Node26</title>
<g id="a_node4"><a xlink:href="../../d5/d20/_heff_d_b1_8cpp.html" target="_top" xlink:title="HeffDB1.cpp">
<polygon fill="none" stroke="#000000" points="203.5,-.5 203.5,-17.5 265.5,-17.5 265.5,-.5 203.5,-.5"/>
<text text-anchor="middle" x="234.5" y="-7.1" font-family="Helvetica,sans-Serif" font-size="8.00" fill="#000000">HeffDB1.cpp</text>
</a>
</g>
</g>
<!-- Node23&#45;&gt;Node26 -->
<g id="edge3" class="edge">
<title>Node23&#45;&gt;Node26</title>
<path fill="none" stroke="#191970" d="M172.4325,-48.9005C187.8355,-38.9986 207.9458,-26.0705 221.0374,-17.6545"/>
<polygon fill="#191970" stroke="#191970" points="170.5152,-45.9722 163.9961,-54.324 174.3005,-51.8605 170.5152,-45.9722"/>
</g>
</g>
</svg>
