<?xml version="1.0" encoding="UTF-8" standalone="no"?>
<!DOCTYPE svg PUBLIC "-//W3C//DTD SVG 1.1//EN"
 "http://www.w3.org/Graphics/SVG/1.1/DTD/svg11.dtd">
<!-- Generated by graphviz version 2.40.1 (20161225.0304)
 -->
<!-- Title: EWSMOneLoopEW.h Pages: 1 -->
<svg width="738pt" height="134pt"
 viewBox="0.00 0.00 738.00 134.00" xmlns="http://www.w3.org/2000/svg" xmlns:xlink="http://www.w3.org/1999/xlink">
<g id="graph0" class="graph" transform="scale(1 1) rotate(0) translate(4 130)">
<title>EWSMOneLoopEW.h</title>
<!-- Node54 -->
<g id="node1" class="node">
<title>Node54</title>
<polygon fill="#bfbfbf" stroke="#000000" points="331,-108.5 331,-125.5 425,-125.5 425,-108.5 331,-108.5"/>
<text text-anchor="middle" x="378" y="-115.1" font-family="Helvetica,sans-Serif" font-size="8.00" fill="#000000">EWSMOneLoopEW.h</text>
</g>
<!-- Node55 -->
<g id="node2" class="node">
<title>Node55</title>
<g id="a_node2"><a xlink:href="../../dd/d9d/_e_w_s_m___output_8cpp.html" target="_top" xlink:title="EWSM_Output.cpp">
<polygon fill="none" stroke="#000000" points="120.5,-.5 120.5,-17.5 205.5,-17.5 205.5,-.5 120.5,-.5"/>
<text text-anchor="middle" x="163" y="-7.1" font-family="Helvetica,sans-Serif" font-size="8.00" fill="#000000">EWSM_Output.cpp</text>
</a>
</g>
</g>
<!-- Node54&#45;&gt;Node55 -->
<g id="edge1" class="edge">
<title>Node54&#45;&gt;Node55</title>
<path fill="none" stroke="#191970" d="M320.9421,-113.1466C263.5597,-107.9421 180.8186,-96.3501 161,-72 148.4279,-56.5533 154.7426,-31.2277 159.4438,-17.8769"/>
<polygon fill="#191970" stroke="#191970" points="320.7199,-116.6404 330.9847,-114.0163 321.324,-109.6665 320.7199,-116.6404"/>
</g>
<!-- Node56 -->
<g id="node3" class="node">
<title>Node56</title>
<g id="a_node3"><a xlink:href="../../d1/dd4/_e_w_s_m_two_loop_e_w_8h.html" target="_top" xlink:title="EWSMTwoLoopEW.h">
<polygon fill="none" stroke="#000000" points="170,-54.5 170,-71.5 264,-71.5 264,-54.5 170,-54.5"/>
<text text-anchor="middle" x="217" y="-61.1" font-family="Helvetica,sans-Serif" font-size="8.00" fill="#000000">EWSMTwoLoopEW.h</text>
</a>
</g>
</g>
<!-- Node54&#45;&gt;Node56 -->
<g id="edge2" class="edge">
<title>Node54&#45;&gt;Node56</title>
<path fill="none" stroke="#191970" d="M342.7352,-105.172C312.4191,-95.0039 269.4298,-80.5852 242.3916,-71.5164"/>
<polygon fill="#191970" stroke="#191970" points="341.8951,-108.5819 352.4891,-108.4435 344.1211,-101.9452 341.8951,-108.5819"/>
</g>
<!-- Node58 -->
<g id="node5" class="node">
<title>Node58</title>
<g id="a_node5"><a xlink:href="../../dd/df3/_standard_model_2src_2_standard_model_8cpp.html" target="_top" xlink:title="StandardModel.cpp">
<polygon fill="none" stroke="#000000" points="224,-.5 224,-17.5 310,-17.5 310,-.5 224,-.5"/>
<text text-anchor="middle" x="267" y="-7.1" font-family="Helvetica,sans-Serif" font-size="8.00" fill="#000000">StandardModel.cpp</text>
</a>
</g>
</g>
<!-- Node54&#45;&gt;Node58 -->
<g id="edge14" class="edge">
<title>Node54&#45;&gt;Node58</title>
<path fill="none" stroke="#191970" d="M353.1801,-103.3735C339.7968,-95.3102 323.5098,-84.2839 311,-72 293.8657,-55.1751 279.0736,-30.864 271.8009,-17.9121"/>
<polygon fill="#191970" stroke="#191970" points="351.4984,-106.4445 361.8994,-108.4616 355.0264,-100.3986 351.4984,-106.4445"/>
</g>
<!-- Node59 -->
<g id="node6" class="node">
<title>Node59</title>
<g id="a_node6"><a xlink:href="../../d0/dc3/_e_w_s_u_s_y_8cpp.html" target="_top" xlink:title="EWSUSY.cpp">
<polygon fill="none" stroke="#000000" points="446,-.5 446,-17.5 512,-17.5 512,-.5 446,-.5"/>
<text text-anchor="middle" x="479" y="-7.1" font-family="Helvetica,sans-Serif" font-size="8.00" fill="#000000">EWSUSY.cpp</text>
</a>
</g>
</g>
<!-- Node54&#45;&gt;Node59 -->
<g id="edge15" class="edge">
<title>Node54&#45;&gt;Node59</title>
<path fill="none" stroke="#191970" d="M404.1837,-103.4552C417.5768,-95.5922 433.4449,-84.7283 445,-72 460.2044,-55.2519 470.9747,-30.4753 475.9309,-17.5507"/>
<polygon fill="#191970" stroke="#191970" points="402.3875,-100.4498 395.3904,-108.4054 405.8215,-106.5496 402.3875,-100.4498"/>
</g>
<!-- Node60 -->
<g id="node7" class="node">
<title>Node60</title>
<g id="a_node7"><a xlink:href="../../dc/dad/_e_w_s_m_two_fermions_l_e_p2_8h.html" target="_top" xlink:title="EWSMTwoFermionsLEP2.h">
<polygon fill="none" stroke="#ff0000" points="320,-54.5 320,-71.5 436,-71.5 436,-54.5 320,-54.5"/>
<text text-anchor="middle" x="378" y="-61.1" font-family="Helvetica,sans-Serif" font-size="8.00" fill="#000000">EWSMTwoFermionsLEP2.h</text>
</a>
</g>
</g>
<!-- Node54&#45;&gt;Node60 -->
<g id="edge7" class="edge">
<title>Node54&#45;&gt;Node60</title>
<path fill="none" stroke="#191970" d="M378,-97.8045C378,-88.9102 378,-78.7798 378,-71.7511"/>
<polygon fill="#191970" stroke="#191970" points="374.5001,-98.083 378,-108.083 381.5001,-98.083 374.5001,-98.083"/>
</g>
<!-- Node63 -->
<g id="node9" class="node">
<title>Node63</title>
<g id="a_node9"><a xlink:href="../../da/d61/_e_w_s_m_one_loop_e_w_8cpp.html" target="_top" xlink:title="EWSMOneLoopEW.cpp">
<polygon fill="none" stroke="#000000" points="492,-54.5 492,-71.5 594,-71.5 594,-54.5 492,-54.5"/>
<text text-anchor="middle" x="543" y="-61.1" font-family="Helvetica,sans-Serif" font-size="8.00" fill="#000000">EWSMOneLoopEW.cpp</text>
</a>
</g>
</g>
<!-- Node54&#45;&gt;Node63 -->
<g id="edge12" class="edge">
<title>Node54&#45;&gt;Node63</title>
<path fill="none" stroke="#191970" d="M413.7365,-105.3044C444.8269,-95.1294 489.1471,-80.6246 516.9776,-71.5164"/>
<polygon fill="#191970" stroke="#191970" points="412.5601,-102.0067 404.1447,-108.4435 414.7374,-108.6595 412.5601,-102.0067"/>
</g>
<!-- Node64 -->
<g id="node10" class="node">
<title>Node64</title>
<g id="a_node10"><a xlink:href="../../d0/d56/_e_w_s_m_one_loop_e_w___h_v_8cpp.html" target="_top" xlink:title="EWSMOneLoopEW_HV.cpp">
<polygon fill="none" stroke="#000000" points="612,-54.5 612,-71.5 730,-71.5 730,-54.5 612,-54.5"/>
<text text-anchor="middle" x="671" y="-61.1" font-family="Helvetica,sans-Serif" font-size="8.00" fill="#000000">EWSMOneLoopEW_HV.cpp</text>
</a>
</g>
</g>
<!-- Node54&#45;&gt;Node64 -->
<g id="edge13" class="edge">
<title>Node54&#45;&gt;Node64</title>
<path fill="none" stroke="#191970" d="M434.4257,-106.6007C489.7994,-96.3953 573.2309,-81.0189 624.7905,-71.5164"/>
<polygon fill="#191970" stroke="#191970" points="433.6267,-103.1889 424.4267,-108.4435 434.8955,-110.073 433.6267,-103.1889"/>
</g>
<!-- Node56&#45;&gt;Node55 -->
<g id="edge3" class="edge">
<title>Node56&#45;&gt;Node55</title>
<path fill="none" stroke="#191970" d="M201.0024,-47.0024C191.4329,-37.4329 179.6389,-25.6389 171.7511,-17.7511"/>
<polygon fill="#191970" stroke="#191970" points="198.537,-49.4868 208.083,-54.083 203.4868,-44.537 198.537,-49.4868"/>
</g>
<!-- Node57 -->
<g id="node4" class="node">
<title>Node57</title>
<g id="a_node4"><a xlink:href="../../d8/d02/_e_w_s_m_two_loop_e_w_8cpp.html" target="_top" xlink:title="EWSMTwoLoopEW.cpp">
<polygon fill="none" stroke="#000000" points="0,-.5 0,-17.5 102,-17.5 102,-.5 0,-.5"/>
<text text-anchor="middle" x="51" y="-7.1" font-family="Helvetica,sans-Serif" font-size="8.00" fill="#000000">EWSMTwoLoopEW.cpp</text>
</a>
</g>
</g>
<!-- Node56&#45;&gt;Node57 -->
<g id="edge4" class="edge">
<title>Node56&#45;&gt;Node57</title>
<path fill="none" stroke="#191970" d="M181.0469,-51.3044C149.7681,-41.1294 105.1793,-26.6246 77.1801,-17.5164"/>
<polygon fill="#191970" stroke="#191970" points="180.1046,-54.6783 190.6968,-54.4435 182.27,-48.0217 180.1046,-54.6783"/>
</g>
<!-- Node56&#45;&gt;Node58 -->
<g id="edge5" class="edge">
<title>Node56&#45;&gt;Node58</title>
<path fill="none" stroke="#191970" d="M232.0763,-46.7175C240.8891,-37.1997 251.6659,-25.5608 258.8972,-17.7511"/>
<polygon fill="#191970" stroke="#191970" points="229.4824,-44.3674 225.2565,-54.083 234.6188,-49.1233 229.4824,-44.3674"/>
</g>
<!-- Node56&#45;&gt;Node59 -->
<g id="edge6" class="edge">
<title>Node56&#45;&gt;Node59</title>
<path fill="none" stroke="#191970" d="M269.2197,-52.4614C313.8135,-43.4277 379.6518,-30.0093 437,-18 439.9196,-17.3886 442.9521,-16.7486 445.9911,-16.1037"/>
<polygon fill="#191970" stroke="#191970" points="268.3063,-49.0752 259.1996,-54.4899 269.6953,-55.9361 268.3063,-49.0752"/>
</g>
<!-- Node60&#45;&gt;Node55 -->
<g id="edge9" class="edge">
<title>Node60&#45;&gt;Node55</title>
<path fill="none" stroke="#191970" d="M334.0403,-51.959C293.4327,-41.7598 233.9569,-26.8217 196.908,-17.5164"/>
<polygon fill="#191970" stroke="#191970" points="333.3812,-55.4021 343.9326,-54.4435 335.0865,-48.6129 333.3812,-55.4021"/>
</g>
<!-- Node60&#45;&gt;Node58 -->
<g id="edge10" class="edge">
<title>Node60&#45;&gt;Node58</title>
<path fill="none" stroke="#191970" d="M350.9946,-49.8622C330.4123,-39.8492 302.6553,-26.3458 284.7898,-17.6545"/>
<polygon fill="#191970" stroke="#191970" points="349.6424,-53.0966 360.1659,-54.324 352.7047,-46.8019 349.6424,-53.0966"/>
</g>
<!-- Node60&#45;&gt;Node59 -->
<g id="edge11" class="edge">
<title>Node60&#45;&gt;Node59</title>
<path fill="none" stroke="#191970" d="M403.0825,-49.5895C421.757,-39.6052 446.704,-26.2672 462.8129,-17.6545"/>
<polygon fill="#191970" stroke="#191970" points="401.3959,-46.5224 394.2274,-54.324 404.6963,-52.6955 401.3959,-46.5224"/>
</g>
<!-- Node61 -->
<g id="node8" class="node">
<title>Node61</title>
<g id="a_node8"><a xlink:href="../../d8/de7/_l_e_p2_two_fermions_8cpp.html" target="_top" xlink:title="LEP2TwoFermions.cpp">
<polygon fill="none" stroke="#000000" points="328,-.5 328,-17.5 428,-17.5 428,-.5 328,-.5"/>
<text text-anchor="middle" x="378" y="-7.1" font-family="Helvetica,sans-Serif" font-size="8.00" fill="#000000">LEP2TwoFermions.cpp</text>
</a>
</g>
</g>
<!-- Node60&#45;&gt;Node61 -->
<g id="edge8" class="edge">
<title>Node60&#45;&gt;Node61</title>
<path fill="none" stroke="#191970" d="M378,-43.8045C378,-34.9102 378,-24.7798 378,-17.7511"/>
<polygon fill="#191970" stroke="#191970" points="374.5001,-44.083 378,-54.083 381.5001,-44.083 374.5001,-44.083"/>
</g>
</g>
</svg>
