<?xml version="1.0" encoding="UTF-8" standalone="no"?>
<!DOCTYPE svg PUBLIC "-//W3C//DTD SVG 1.1//EN"
 "http://www.w3.org/Graphics/SVG/1.1/DTD/svg11.dtd">
<!-- Generated by graphviz version 2.40.1 (20161225.0304)
 -->
<!-- Title: Robs_tau_mu_gamma_BelleII Pages: 1 -->
<svg width="658pt" height="182pt"
 viewBox="0.00 0.00 658.00 181.76" xmlns="http://www.w3.org/2000/svg" xmlns:xlink="http://www.w3.org/1999/xlink">
<g id="graph0" class="graph" transform="scale(1 1) rotate(0) translate(4 177.7617)">
<title>Robs_tau_mu_gamma_BelleII</title>
<!-- Node2 -->
<g id="node1" class="node">
<title>Node2</title>
<polygon fill="#bfbfbf" stroke="#000000" points="526,-149.2617 526,-166.2617 650,-166.2617 650,-149.2617 526,-149.2617"/>
<text text-anchor="middle" x="588" y="-155.8617" font-family="Helvetica,sans-Serif" font-size="8.00" fill="#000000">Robs_tau_mu_gamma_BelleII</text>
</g>
<!-- Node3 -->
<g id="node2" class="node">
<title>Node3</title>
<g id="a_node2"><a xlink:href="../../dc/d1f/class_th_observable.html" target="_top" xlink:title="A class for a model prediction of an observable. ">
<polygon fill="none" stroke="#000000" points="392,-117.2617 392,-134.2617 459,-134.2617 459,-117.2617 392,-117.2617"/>
<text text-anchor="middle" x="425.5" y="-123.8617" font-family="Helvetica,sans-Serif" font-size="8.00" fill="#000000">ThObservable</text>
</a>
</g>
</g>
<!-- Node3&#45;&gt;Node2 -->
<g id="edge1" class="edge">
<title>Node3&#45;&gt;Node2</title>
<path fill="none" stroke="#191970" d="M469.19,-134.3652C492.6301,-138.9811 521.4175,-144.65 544.7847,-149.2516"/>
<polygon fill="#191970" stroke="#191970" points="469.6579,-130.8902 459.1701,-132.3921 468.3054,-137.7583 469.6579,-130.8902"/>
</g>
<!-- Node4 -->
<g id="node3" class="node">
<title>Node4</title>
<g id="a_node3"><a xlink:href="../../dc/dd5/class_standard_model.html" target="_top" xlink:title="A model class for the Standard Model. ">
<polygon fill="none" stroke="#ff0000" points="218,-69.2617 218,-86.2617 289,-86.2617 289,-69.2617 218,-69.2617"/>
<text text-anchor="middle" x="253.5" y="-75.8617" font-family="Helvetica,sans-Serif" font-size="8.00" fill="#000000">StandardModel</text>
</a>
</g>
</g>
<!-- Node4&#45;&gt;Node2 -->
<g id="edge13" class="edge">
<title>Node4&#45;&gt;Node2</title>
<path fill="none" stroke="#9a32cd" stroke-dasharray="5,2" d="M265.8901,-94.2087C275.7121,-106.0169 290.4961,-121.2869 307,-129.7617 375.6896,-165.0337 466.221,-167.503 525.7187,-164.1813"/>
<polygon fill="#9a32cd" stroke="#9a32cd" points="268.6225,-92.0214 259.6614,-86.369 263.1417,-96.3759 268.6225,-92.0214"/>
<text text-anchor="middle" x="425.5" y="-167.3617" font-family="Helvetica,sans-Serif" font-size="8.00" fill="#000000"> mySM</text>
</g>
<!-- Node4&#45;&gt;Node3 -->
<g id="edge2" class="edge">
<title>Node4&#45;&gt;Node3</title>
<path fill="none" stroke="#9a32cd" stroke-dasharray="5,2" d="M278.454,-90.9722C287.2822,-95.2261 297.4058,-99.6415 307,-102.7617 334.9012,-111.8355 367.7255,-117.8635 391.7438,-121.4633"/>
<polygon fill="#9a32cd" stroke="#9a32cd" points="279.9798,-87.822 269.4692,-86.4886 276.8542,-94.0855 279.9798,-87.822"/>
<text text-anchor="middle" x="337" y="-119.3617" font-family="Helvetica,sans-Serif" font-size="8.00" fill="#000000"> SM</text>
</g>
<!-- Node9 -->
<g id="node6" class="node">
<title>Node9</title>
<g id="a_node6"><a xlink:href="../../dc/df3/class_e_w_s_mcache.html" target="_top" xlink:title="A class for cache variables used in computing radiative corrections to the EW precision observables...">
<polygon fill="none" stroke="#ff0000" points="394,-32.2617 394,-49.2617 457,-49.2617 457,-32.2617 394,-32.2617"/>
<text text-anchor="middle" x="425.5" y="-38.8617" font-family="Helvetica,sans-Serif" font-size="8.00" fill="#000000">EWSMcache</text>
</a>
</g>
</g>
<!-- Node4&#45;&gt;Node9 -->
<g id="edge6" class="edge">
<title>Node4&#45;&gt;Node9</title>
<path fill="none" stroke="#9a32cd" stroke-dasharray="5,2" d="M267.7303,-61.7609C277.6282,-51.8941 291.745,-40.1323 307,-34.7617 335.1739,-24.8428 369.4488,-28.085 393.8747,-32.7615"/>
<polygon fill="#9a32cd" stroke="#9a32cd" points="265.1013,-59.4467 260.7558,-69.1094 270.1785,-64.2656 265.1013,-59.4467"/>
<text text-anchor="middle" x="337" y="-37.3617" font-family="Helvetica,sans-Serif" font-size="8.00" fill="#000000"> SM</text>
</g>
<!-- Node5 -->
<g id="node4" class="node">
<title>Node5</title>
<g id="a_node4"><a xlink:href="../../dd/dfa/class_q_c_d.html" target="_top" xlink:title="A class for parameters related to QCD, hadrons and quarks. ">
<polygon fill="none" stroke="#ff0000" points="55.5,-131.2617 55.5,-148.2617 89.5,-148.2617 89.5,-131.2617 55.5,-131.2617"/>
<text text-anchor="middle" x="72.5" y="-137.8617" font-family="Helvetica,sans-Serif" font-size="8.00" fill="#000000">QCD</text>
</a>
</g>
</g>
<!-- Node5&#45;&gt;Node4 -->
<g id="edge3" class="edge">
<title>Node5&#45;&gt;Node4</title>
<path fill="none" stroke="#191970" d="M99.4593,-133.8901C113.2006,-130.6904 130.1105,-126.4336 145,-121.7617 169.9655,-113.9281 175.7534,-110.5976 200,-100.7617 211.2424,-96.2011 223.7004,-90.8623 233.7641,-86.477"/>
<polygon fill="#191970" stroke="#191970" points="98.6293,-130.4894 89.6547,-136.1202 100.1819,-137.315 98.6293,-130.4894"/>
</g>
<!-- Node8 -->
<g id="node5" class="node">
<title>Node8</title>
<g id="a_node5"><a xlink:href="../../db/d32/class_e_w_s_m_two_fermions_l_e_p2.html" target="_top" xlink:title="A class for the form factors , &#160;and &#160;in the processes &#160;at LEP&#45;II. ">
<polygon fill="none" stroke="#ff0000" points="533.5,-66.2617 533.5,-83.2617 642.5,-83.2617 642.5,-66.2617 533.5,-66.2617"/>
<text text-anchor="middle" x="588" y="-72.8617" font-family="Helvetica,sans-Serif" font-size="8.00" fill="#000000">EWSMTwoFermionsLEP2</text>
</a>
</g>
</g>
<!-- Node8&#45;&gt;Node4 -->
<g id="edge4" class="edge">
<title>Node8&#45;&gt;Node4</title>
<path fill="none" stroke="#9a32cd" stroke-dasharray="5,2" d="M523.0233,-75.3444C453.2739,-75.97 345.0049,-76.941 289.2974,-77.4406"/>
<polygon fill="#9a32cd" stroke="#9a32cd" points="523.48,-78.8406 533.4482,-75.2509 523.4172,-71.8408 523.48,-78.8406"/>
<text text-anchor="middle" x="425.5" y="-78.3617" font-family="Helvetica,sans-Serif" font-size="8.00" fill="#000000"> myTwoFermionsLEP2</text>
</g>
<!-- Node9&#45;&gt;Node4 -->
<g id="edge7" class="edge">
<title>Node9&#45;&gt;Node4</title>
<path fill="none" stroke="#9a32cd" stroke-dasharray="5,2" d="M384.1235,-49.6624C355.13,-55.8994 316.7769,-64.1498 289.1385,-70.0953"/>
<polygon fill="#9a32cd" stroke="#9a32cd" points="384.9154,-53.0722 393.9557,-47.5474 383.4432,-46.2288 384.9154,-53.0722"/>
<text text-anchor="middle" x="337" y="-68.3617" font-family="Helvetica,sans-Serif" font-size="8.00" fill="#000000"> myEWSMcache</text>
</g>
<!-- Node9&#45;&gt;Node8 -->
<g id="edge5" class="edge">
<title>Node9&#45;&gt;Node8</title>
<path fill="none" stroke="#9a32cd" stroke-dasharray="5,2" d="M467.3092,-49.5095C491.8495,-54.644 522.7275,-61.1047 547.1075,-66.2057"/>
<polygon fill="#9a32cd" stroke="#9a32cd" points="467.7223,-46.0202 457.2174,-47.3979 466.2886,-52.8718 467.7223,-46.0202"/>
<text text-anchor="middle" x="496" y="-60.3617" font-family="Helvetica,sans-Serif" font-size="8.00" fill="#000000"> cache</text>
</g>
<!-- Node35 -->
<g id="node10" class="node">
<title>Node35</title>
<g id="a_node10"><a xlink:href="../../d5/dad/class_e_w_s_m_three_loop_e_w.html" target="_top" xlink:title="A class for &#160;three&#45;loop corrections to the EW precision observables. ">
<polygon fill="none" stroke="#000000" points="541.5,-16.2617 541.5,-33.2617 634.5,-33.2617 634.5,-16.2617 541.5,-16.2617"/>
<text text-anchor="middle" x="588" y="-22.8617" font-family="Helvetica,sans-Serif" font-size="8.00" fill="#000000">EWSMThreeLoopEW</text>
</a>
</g>
</g>
<!-- Node9&#45;&gt;Node35 -->
<g id="edge12" class="edge">
<title>Node9&#45;&gt;Node35</title>
<path fill="none" stroke="#9a32cd" stroke-dasharray="5,2" d="M467.1211,-36.4601C472.7927,-35.8835 478.5393,-35.3042 484,-34.7617 502.772,-32.8965 523.4558,-30.8964 541.3999,-29.1788"/>
<polygon fill="#9a32cd" stroke="#9a32cd" points="466.6637,-32.9885 457.0711,-37.4866 467.375,-39.9523 466.6637,-32.9885"/>
<text text-anchor="middle" x="496" y="-37.3617" font-family="Helvetica,sans-Serif" font-size="8.00" fill="#000000"> cache</text>
</g>
<!-- Node15 -->
<g id="node7" class="node">
<title>Node15</title>
<g id="a_node7"><a xlink:href="../../d5/d76/class_matching.html" target="_top" xlink:title="Matching\&lt; StandardModelMatching,\l StandardModel \&gt;">
<polygon fill="none" stroke="#ff0000" points="0,-85.7617 0,-111.7617 145,-111.7617 145,-85.7617 0,-85.7617"/>
<text text-anchor="start" x="8" y="-101.3617" font-family="Helvetica,sans-Serif" font-size="8.00" fill="#000000">Matching&lt; StandardModelMatching,</text>
<text text-anchor="middle" x="72.5" y="-92.3617" font-family="Helvetica,sans-Serif" font-size="8.00" fill="#000000"> StandardModel &gt;</text>
</a>
</g>
</g>
<!-- Node15&#45;&gt;Node4 -->
<g id="edge8" class="edge">
<title>Node15&#45;&gt;Node4</title>
<path fill="none" stroke="#9a32cd" stroke-dasharray="5,2" d="M155.1117,-89.1769C177.0894,-86.627 199.6922,-84.0046 217.6828,-81.9173"/>
<polygon fill="#9a32cd" stroke="#9a32cd" points="154.6067,-85.7119 145.0767,-90.3412 155.4135,-92.6653 154.6067,-85.7119"/>
<text text-anchor="middle" x="181.5" y="-90.3617" font-family="Helvetica,sans-Serif" font-size="8.00" fill="#000000"> SMM</text>
</g>
<!-- Node33 -->
<g id="node8" class="node">
<title>Node33</title>
<g id="a_node8"><a xlink:href="../../d9/db9/class_c_k_m.html" target="_top" xlink:title="A class for the CKM matrix elements. ">
<polygon fill="none" stroke="#ff0000" points="55.5,-49.2617 55.5,-66.2617 89.5,-66.2617 89.5,-49.2617 55.5,-49.2617"/>
<text text-anchor="middle" x="72.5" y="-55.8617" font-family="Helvetica,sans-Serif" font-size="8.00" fill="#000000">CKM</text>
</a>
</g>
</g>
<!-- Node33&#45;&gt;Node4 -->
<g id="edge9" class="edge">
<title>Node33&#45;&gt;Node4</title>
<path fill="none" stroke="#9a32cd" stroke-dasharray="5,2" d="M100.0715,-59.0747C125.9554,-60.5081 165.7169,-63.2263 200,-67.7617 205.8078,-68.53 211.9405,-69.5127 217.9,-70.5609"/>
<polygon fill="#9a32cd" stroke="#9a32cd" points="100.0549,-55.569 89.8844,-58.5374 99.6862,-62.5593 100.0549,-55.569"/>
<text text-anchor="middle" x="181.5" y="-70.3617" font-family="Helvetica,sans-Serif" font-size="8.00" fill="#000000"> myCKM</text>
</g>
<!-- Node34 -->
<g id="node9" class="node">
<title>Node34</title>
<g id="a_node9"><a xlink:href="../../d5/d59/class_p_m_n_s.html" target="_top" xlink:title="A class for the PMNS matrix elements. ">
<polygon fill="none" stroke="#ff0000" points="52.5,-13.2617 52.5,-30.2617 92.5,-30.2617 92.5,-13.2617 52.5,-13.2617"/>
<text text-anchor="middle" x="72.5" y="-19.8617" font-family="Helvetica,sans-Serif" font-size="8.00" fill="#000000">PMNS</text>
</a>
</g>
</g>
<!-- Node34&#45;&gt;Node4 -->
<g id="edge10" class="edge">
<title>Node34&#45;&gt;Node4</title>
<path fill="none" stroke="#9a32cd" stroke-dasharray="5,2" d="M102.8856,-26.5208C129.0959,-31.1307 167.7109,-39.1392 200,-50.7617 213.7048,-55.6947 228.4203,-63.3072 238.9424,-69.1932"/>
<polygon fill="#9a32cd" stroke="#9a32cd" points="103.2524,-23.033 92.8074,-24.8083 102.0798,-29.9341 103.2524,-23.033"/>
<text text-anchor="middle" x="181.5" y="-53.3617" font-family="Helvetica,sans-Serif" font-size="8.00" fill="#000000"> myPMNS</text>
</g>
<!-- Node35&#45;&gt;Node4 -->
<g id="edge11" class="edge">
<title>Node35&#45;&gt;Node4</title>
<path fill="none" stroke="#9a32cd" stroke-dasharray="5,2" d="M547.133,-13.9783C490.0489,-1.2207 384.7176,13.7824 307,-24.7617 286.1511,-35.1017 268.4301,-56.686 259.5669,-68.879"/>
<polygon fill="#9a32cd" stroke="#9a32cd" points="546.3446,-17.3883 556.8771,-16.2399 547.9273,-10.5696 546.3446,-17.3883"/>
<text text-anchor="middle" x="425.5" y="-5.3617" font-family="Helvetica,sans-Serif" font-size="8.00" fill="#000000"> myThreeLoopEW</text>
</g>
</g>
</svg>
