<?xml version="1.0" encoding="UTF-8" standalone="no"?>
<!DOCTYPE svg PUBLIC "-//W3C//DTD SVG 1.1//EN"
 "http://www.w3.org/Graphics/SVG/1.1/DTD/svg11.dtd">
<!-- Generated by graphviz version 2.40.1 (20161225.0304)
 -->
<!-- Title: CKM.h Pages: 1 -->
<svg width="439pt" height="350pt"
 viewBox="0.00 0.00 439.00 350.00" xmlns="http://www.w3.org/2000/svg" xmlns:xlink="http://www.w3.org/1999/xlink">
<g id="graph0" class="graph" transform="scale(1 1) rotate(0) translate(4 346)">
<title>CKM.h</title>
<!-- Node0 -->
<g id="node1" class="node">
<title>Node0</title>
<polygon fill="#bfbfbf" stroke="#000000" points="126.4998,-324.5 126.4998,-341.5 167.4998,-341.5 167.4998,-324.5 126.4998,-324.5"/>
<text text-anchor="middle" x="146.9998" y="-331.1" font-family="Helvetica,sans-Serif" font-size="8.00" fill="#000000">CKM.h</text>
</g>
<!-- Node1 -->
<g id="node2" class="node">
<title>Node1</title>
<polygon fill="none" stroke="#bfbfbf" points="96.4998,-270.5 96.4998,-287.5 137.4998,-287.5 137.4998,-270.5 96.4998,-270.5"/>
<text text-anchor="middle" x="116.9998" y="-277.1" font-family="Helvetica,sans-Serif" font-size="8.00" fill="#000000">math.h</text>
</g>
<!-- Node0&#45;&gt;Node1 -->
<g id="edge1" class="edge">
<title>Node0&#45;&gt;Node1</title>
<path fill="none" stroke="#191970" d="M142.046,-324.083C137.8958,-316.6127 131.8467,-305.7244 126.7331,-296.5199"/>
<polygon fill="#191970" stroke="#191970" points="129.7776,-294.7929 121.8616,-287.7511 123.6585,-298.1924 129.7776,-294.7929"/>
</g>
<!-- Node2 -->
<g id="node3" class="node">
<title>Node2</title>
<g id="a_node3"><a xlink:href="../../d9/d72/gslpp_8h.html" target="_top" xlink:title="gslpp.h">
<polygon fill="none" stroke="#000000" points="155.9998,-270.5 155.9998,-287.5 197.9998,-287.5 197.9998,-270.5 155.9998,-270.5"/>
<text text-anchor="middle" x="176.9998" y="-277.1" font-family="Helvetica,sans-Serif" font-size="8.00" fill="#000000">gslpp.h</text>
</a>
</g>
</g>
<!-- Node0&#45;&gt;Node2 -->
<g id="edge2" class="edge">
<title>Node0&#45;&gt;Node2</title>
<path fill="none" stroke="#191970" d="M151.9537,-324.083C156.1039,-316.6127 162.1529,-305.7244 167.2666,-296.5199"/>
<polygon fill="#191970" stroke="#191970" points="170.3412,-298.1924 172.1381,-287.7511 164.2221,-294.7929 170.3412,-298.1924"/>
</g>
<!-- Node3 -->
<g id="node4" class="node">
<title>Node3</title>
<g id="a_node4"><a xlink:href="../../d1/dc2/gslpp__complex_8h.html" target="_top" xlink:title="gslpp_complex.h">
<polygon fill="none" stroke="#ff0000" points="104.4998,-54.5 104.4998,-71.5 181.4998,-71.5 181.4998,-54.5 104.4998,-54.5"/>
<text text-anchor="middle" x="142.9998" y="-61.1" font-family="Helvetica,sans-Serif" font-size="8.00" fill="#000000">gslpp_complex.h</text>
</a>
</g>
</g>
<!-- Node2&#45;&gt;Node3 -->
<g id="edge3" class="edge">
<title>Node2&#45;&gt;Node3</title>
<path fill="none" stroke="#191970" d="M155.9191,-271.7512C136.3936,-264.3399 107.2504,-251.446 85.9998,-234 39.2103,-195.5874 22.4805,-183.3175 2.9998,-126 .4255,-118.4255 -1.7127,-114.4647 2.9998,-108 14.0658,-92.8195 58.6739,-80.2215 94.6032,-72.2534"/>
<polygon fill="#191970" stroke="#191970" points="95.4317,-75.6553 104.4719,-70.1304 93.9595,-68.8119 95.4317,-75.6553"/>
</g>
<!-- Node7 -->
<g id="node6" class="node">
<title>Node7</title>
<g id="a_node6"><a xlink:href="../../da/d8e/gslpp__vector__double_8h.html" target="_top" xlink:title="gslpp_vector_double.h">
<polygon fill="none" stroke="#ff0000" points="12.4998,-108.5 12.4998,-125.5 109.4998,-125.5 109.4998,-108.5 12.4998,-108.5"/>
<text text-anchor="middle" x="60.9998" y="-115.1" font-family="Helvetica,sans-Serif" font-size="8.00" fill="#000000">gslpp_vector_double.h</text>
</a>
</g>
</g>
<!-- Node2&#45;&gt;Node7 -->
<g id="edge5" class="edge">
<title>Node2&#45;&gt;Node7</title>
<path fill="none" stroke="#191970" d="M160.5832,-270.4075C134.6408,-255.8075 84.9644,-223.4596 63.9998,-180 57.3765,-166.2697 57.0698,-148.8413 58.1682,-135.7976"/>
<polygon fill="#191970" stroke="#191970" points="61.6675,-136.01 59.3718,-125.6669 54.7164,-135.1841 61.6675,-136.01"/>
</g>
<!-- Node10 -->
<g id="node7" class="node">
<title>Node10</title>
<g id="a_node7"><a xlink:href="../../da/dad/gslpp__vector__complex_8h.html" target="_top" xlink:title="gslpp_vector_complex.h">
<polygon fill="none" stroke="#ff0000" points="242.4998,-108.5 242.4998,-125.5 345.4998,-125.5 345.4998,-108.5 242.4998,-108.5"/>
<text text-anchor="middle" x="293.9998" y="-115.1" font-family="Helvetica,sans-Serif" font-size="8.00" fill="#000000">gslpp_vector_complex.h</text>
</a>
</g>
</g>
<!-- Node2&#45;&gt;Node10 -->
<g id="edge8" class="edge">
<title>Node2&#45;&gt;Node10</title>
<path fill="none" stroke="#191970" d="M198.0027,-275.2076C220.4755,-269.9922 255.3926,-258.3316 273.9998,-234 296.0366,-205.1838 297.2234,-160.6734 295.8149,-135.6792"/>
<polygon fill="#191970" stroke="#191970" points="299.3038,-135.3989 295.0507,-125.6952 292.3242,-135.9332 299.3038,-135.3989"/>
</g>
<!-- Node12 -->
<g id="node8" class="node">
<title>Node12</title>
<g id="a_node8"><a xlink:href="../../d0/ddb/gslpp__matrix__double_8h.html" target="_top" xlink:title="gslpp_matrix_double.h">
<polygon fill="none" stroke="#ff0000" points="167.4998,-216.5 167.4998,-233.5 264.4998,-233.5 264.4998,-216.5 167.4998,-216.5"/>
<text text-anchor="middle" x="215.9998" y="-223.1" font-family="Helvetica,sans-Serif" font-size="8.00" fill="#000000">gslpp_matrix_double.h</text>
</a>
</g>
</g>
<!-- Node2&#45;&gt;Node12 -->
<g id="edge11" class="edge">
<title>Node2&#45;&gt;Node12</title>
<path fill="none" stroke="#191970" d="M183.4399,-270.083C188.9487,-262.4554 197.0311,-251.2645 203.7648,-241.9408"/>
<polygon fill="#191970" stroke="#191970" points="206.6621,-243.9071 209.6796,-233.7511 200.9873,-239.8087 206.6621,-243.9071"/>
</g>
<!-- Node15 -->
<g id="node9" class="node">
<title>Node15</title>
<g id="a_node9"><a xlink:href="../../d9/d25/gslpp__matrix__complex_8h.html" target="_top" xlink:title="gslpp_matrix_complex.h">
<polygon fill="none" stroke="#ff0000" points="87.4998,-162.5 87.4998,-179.5 190.4998,-179.5 190.4998,-162.5 87.4998,-162.5"/>
<text text-anchor="middle" x="138.9998" y="-169.1" font-family="Helvetica,sans-Serif" font-size="8.00" fill="#000000">gslpp_matrix_complex.h</text>
</a>
</g>
</g>
<!-- Node2&#45;&gt;Node15 -->
<g id="edge22" class="edge">
<title>Node2&#45;&gt;Node15</title>
<path fill="none" stroke="#191970" d="M173.3607,-270.4446C169.5836,-261.4444 163.5964,-246.8328 158.9998,-234 153.6725,-219.1269 148.2908,-202.0306 144.454,-189.4037"/>
<polygon fill="#191970" stroke="#191970" points="147.7466,-188.1983 141.5202,-179.6262 141.0419,-190.2102 147.7466,-188.1983"/>
</g>
<!-- Node17 -->
<g id="node10" class="node">
<title>Node17</title>
<g id="a_node10"><a xlink:href="../../d2/d04/gslpp__special__functions_8h.html" target="_top" xlink:title="gslpp_special_functions.h">
<polygon fill="none" stroke="#000000" points="322.9998,-216.5 322.9998,-233.5 430.9998,-233.5 430.9998,-216.5 322.9998,-216.5"/>
<text text-anchor="middle" x="376.9998" y="-223.1" font-family="Helvetica,sans-Serif" font-size="8.00" fill="#000000">gslpp_special_functions.h</text>
</a>
</g>
</g>
<!-- Node2&#45;&gt;Node17 -->
<g id="edge23" class="edge">
<title>Node2&#45;&gt;Node17</title>
<path fill="none" stroke="#191970" d="M198.0253,-273.3231C230.5462,-264.5425 293.6617,-247.5013 335.5747,-236.1848"/>
<polygon fill="#191970" stroke="#191970" points="336.7388,-239.4959 345.4808,-233.5102 334.9141,-232.7379 336.7388,-239.4959"/>
</g>
<!-- Node4 -->
<g id="node5" class="node">
<title>Node4</title>
<polygon fill="none" stroke="#bfbfbf" points="190.4998,-.5 190.4998,-17.5 237.4998,-17.5 237.4998,-.5 190.4998,-.5"/>
<text text-anchor="middle" x="213.9998" y="-7.1" font-family="Helvetica,sans-Serif" font-size="8.00" fill="#000000">iostream</text>
</g>
<!-- Node3&#45;&gt;Node4 -->
<g id="edge4" class="edge">
<title>Node3&#45;&gt;Node4</title>
<path fill="none" stroke="#191970" d="M154.4072,-54.324C165.1086,-46.1849 181.3405,-33.8395 194.1627,-24.0874"/>
<polygon fill="#191970" stroke="#191970" points="196.5442,-26.6734 202.3849,-17.8339 192.3066,-21.1018 196.5442,-26.6734"/>
</g>
<!-- Node7&#45;&gt;Node3 -->
<g id="edge7" class="edge">
<title>Node7&#45;&gt;Node3</title>
<path fill="none" stroke="#191970" d="M74.1746,-108.324C86.8466,-99.979 106.2332,-87.2122 121.2054,-77.3524"/>
<polygon fill="#191970" stroke="#191970" points="123.4311,-80.0776 129.8578,-71.6545 119.5811,-74.2313 123.4311,-80.0776"/>
</g>
<!-- Node7&#45;&gt;Node4 -->
<g id="edge6" class="edge">
<title>Node7&#45;&gt;Node4</title>
<path fill="none" stroke="#191970" d="M63.6194,-108.4307C68.132,-95.0265 78.6011,-69.0766 95.9998,-54 120.0292,-33.1777 154.7006,-21.5058 180.246,-15.299"/>
<polygon fill="#191970" stroke="#191970" points="181.2544,-18.6593 190.2333,-13.0352 179.7069,-11.8325 181.2544,-18.6593"/>
</g>
<!-- Node10&#45;&gt;Node3 -->
<g id="edge10" class="edge">
<title>Node10&#45;&gt;Node3</title>
<path fill="none" stroke="#191970" d="M270.0734,-108.4435C244.7811,-99.3986 204.6975,-85.064 176.3201,-74.9158"/>
<polygon fill="#191970" stroke="#191970" points="177.4089,-71.5882 166.8143,-71.5164 175.0517,-78.1794 177.4089,-71.5882"/>
</g>
<!-- Node10&#45;&gt;Node4 -->
<g id="edge9" class="edge">
<title>Node10&#45;&gt;Node4</title>
<path fill="none" stroke="#191970" d="M287.4531,-108.1619C274.1437,-90.1943 243.7341,-49.1413 226.5064,-25.8838"/>
<polygon fill="#191970" stroke="#191970" points="229.1782,-23.6107 220.4134,-17.6584 223.5533,-27.7773 229.1782,-23.6107"/>
</g>
<!-- Node12&#45;&gt;Node3 -->
<g id="edge13" class="edge">
<title>Node12&#45;&gt;Node3</title>
<path fill="none" stroke="#191970" d="M214.5528,-216.2018C212.3385,-203.7998 207.554,-180.6122 199.9998,-162 187.6853,-131.6589 167.5459,-99.2751 154.797,-80.104"/>
<polygon fill="#191970" stroke="#191970" points="157.5423,-77.9156 149.0415,-71.5921 151.7435,-81.8366 157.5423,-77.9156"/>
</g>
<!-- Node12&#45;&gt;Node4 -->
<g id="edge12" class="edge">
<title>Node12&#45;&gt;Node4</title>
<path fill="none" stroke="#191970" d="M244.0843,-216.4127C292.2099,-200.0717 382.7116,-161.3175 354.9998,-108 332.4641,-64.641 281.267,-36.3038 247.1687,-21.474"/>
<polygon fill="#191970" stroke="#191970" points="248.1907,-18.1076 237.6147,-17.4757 245.4883,-24.565 248.1907,-18.1076"/>
</g>
<!-- Node12&#45;&gt;Node7 -->
<g id="edge14" class="edge">
<title>Node12&#45;&gt;Node7</title>
<path fill="none" stroke="#191970" d="M176.8306,-216.4518C141.3723,-207.9683 92.6655,-194.2102 78.9998,-180 67.6654,-168.2139 63.3845,-149.7997 61.8096,-135.9173"/>
<polygon fill="#191970" stroke="#191970" points="65.2711,-135.2749 61.0276,-125.567 58.291,-135.8023 65.2711,-135.2749"/>
</g>
<!-- Node12&#45;&gt;Node10 -->
<g id="edge15" class="edge">
<title>Node12&#45;&gt;Node10</title>
<path fill="none" stroke="#191970" d="M222.3829,-216.1619C235.3595,-198.1943 265.0089,-157.1413 281.806,-133.8838"/>
<polygon fill="#191970" stroke="#191970" points="284.729,-135.8144 287.7466,-125.6584 279.0542,-131.7159 284.729,-135.8144"/>
</g>
<!-- Node12&#45;&gt;Node15 -->
<g id="edge16" class="edge">
<title>Node12&#45;&gt;Node15</title>
<path fill="none" stroke="#191970" d="M198.5136,-216.324C185.1457,-208.1849 167.2042,-195.8395 154.385,-186.0874"/>
<polygon fill="#191970" stroke="#191970" points="156.4687,-183.2733 146.4476,-179.8339 152.1366,-188.7718 156.4687,-183.2733"/>
</g>
<!-- Node15&#45;&gt;Node3 -->
<g id="edge18" class="edge">
<title>Node15&#45;&gt;Node3</title>
<path fill="none" stroke="#191970" d="M139.3272,-162.1619C139.975,-144.6713 141.433,-105.3048 142.3045,-81.7731"/>
<polygon fill="#191970" stroke="#191970" points="145.8066,-81.7811 142.6792,-71.6584 138.8113,-81.5219 145.8066,-81.7811"/>
</g>
<!-- Node15&#45;&gt;Node4 -->
<g id="edge17" class="edge">
<title>Node15&#45;&gt;Node4</title>
<path fill="none" stroke="#191970" d="M143.9893,-162.4521C153.751,-145.5348 175.7507,-106.4384 190.9998,-72 197.49,-57.3427 203.6514,-40.2301 207.9606,-27.542"/>
<polygon fill="#191970" stroke="#191970" points="211.3978,-28.2974 211.2324,-17.7039 204.7555,-26.0884 211.3978,-28.2974"/>
</g>
<!-- Node15&#45;&gt;Node7 -->
<g id="edge19" class="edge">
<title>Node15&#45;&gt;Node7</title>
<path fill="none" stroke="#191970" d="M126.4678,-162.324C114.4139,-153.979 95.973,-141.2122 81.7311,-131.3524"/>
<polygon fill="#191970" stroke="#191970" points="83.715,-128.469 73.5008,-125.6545 79.7305,-134.2243 83.715,-128.469"/>
</g>
<!-- Node15&#45;&gt;Node10 -->
<g id="edge20" class="edge">
<title>Node15&#45;&gt;Node10</title>
<path fill="none" stroke="#191970" d="M163.5601,-162.4435C189.5224,-153.3986 230.6679,-139.064 259.7969,-128.9158"/>
<polygon fill="#191970" stroke="#191970" points="261.2627,-132.1116 269.5545,-125.5164 258.9597,-125.5013 261.2627,-132.1116"/>
</g>
<!-- Node15&#45;&gt;Node12 -->
<g id="edge21" class="edge">
<title>Node15&#45;&gt;Node12</title>
<path fill="none" stroke="#191970" d="M156.4507,-179.6545C169.8901,-187.8346 187.9663,-200.2772 200.8093,-210.0607"/>
<polygon fill="#191970" stroke="#191970" points="198.7256,-212.8749 208.7433,-216.324 203.0629,-207.3806 198.7256,-212.8749"/>
</g>
</g>
</svg>
