<?xml version="1.0" encoding="UTF-8" standalone="no"?>
<!DOCTYPE svg PUBLIC "-//W3C//DTD SVG 1.1//EN"
 "http://www.w3.org/Graphics/SVG/1.1/DTD/svg11.dtd">
<!-- Generated by graphviz version 2.38.0 (20140413.2041)
 -->
<!-- Title: bsgamma.h Pages: 1 -->
<svg width="342pt" height="242pt"
 viewBox="0.00 0.00 342.00 242.00" xmlns="http://www.w3.org/2000/svg" xmlns:xlink="http://www.w3.org/1999/xlink">
<g id="graph0" class="graph" transform="scale(1 1) rotate(0) translate(4 238)">
<title>bsgamma.h</title>
<!-- Node1 -->
<g id="node1" class="node"><title>Node1</title>
<polygon fill="#bfbfbf" stroke="black" points="128.5,-216.5 128.5,-233.5 186.5,-233.5 186.5,-216.5 128.5,-216.5"/>
<text text-anchor="middle" x="157.5" y="-223.1" font-family="Helvetica,sans-Serif" font-size="8.00">bsgamma.h</text>
</g>
<!-- Node2 -->
<g id="node2" class="node"><title>Node2</title>
<polygon fill="none" stroke="#bfbfbf" points="0,-54.5 0,-71.5 51,-71.5 51,-54.5 0,-54.5"/>
<text text-anchor="middle" x="25.5" y="-61.1" font-family="Helvetica,sans-Serif" font-size="8.00">stdexcept</text>
</g>
<!-- Node1&#45;&gt;Node2 -->
<g id="edge1" class="edge"><title>Node1&#45;&gt;Node2</title>
<path fill="none" stroke="midnightblue" d="M149.216,-216.357C132.234,-200.465 92.6998,-162.308 64.5,-126 53.1751,-111.419 42.1515,-93.4347 34.7302,-80.5974"/>
<polygon fill="midnightblue" stroke="midnightblue" points="37.5892,-78.5435 29.6137,-71.569 31.4991,-81.9948 37.5892,-78.5435"/>
</g>
<!-- Node3 -->
<g id="node3" class="node"><title>Node3</title>
<g id="a_node3"><a xlink:href="../../dd/dcd/_th_observable_8h.html" target="_top" xlink:title="ThObservable.h">
<polygon fill="none" stroke="black" points="244,-162.5 244,-179.5 317,-179.5 317,-162.5 244,-162.5"/>
<text text-anchor="middle" x="280.5" y="-169.1" font-family="Helvetica,sans-Serif" font-size="8.00">ThObservable.h</text>
</a>
</g>
</g>
<!-- Node1&#45;&gt;Node3 -->
<g id="edge2" class="edge"><title>Node1&#45;&gt;Node3</title>
<path fill="none" stroke="midnightblue" d="M175.385,-216.439C195.79,-207.812 229.393,-193.606 253.104,-183.582"/>
<polygon fill="midnightblue" stroke="midnightblue" points="254.745,-186.688 262.593,-179.57 252.02,-180.241 254.745,-186.688"/>
</g>
<!-- Node6 -->
<g id="node6" class="node"><title>Node6</title>
<g id="a_node6"><a xlink:href="../../de/de8/_t_h_d_m_8h.html" target="_top" xlink:title="THDM.h">
<polygon fill="none" stroke="black" points="165.5,-162.5 165.5,-179.5 211.5,-179.5 211.5,-162.5 165.5,-162.5"/>
<text text-anchor="middle" x="188.5" y="-169.1" font-family="Helvetica,sans-Serif" font-size="8.00">THDM.h</text>
</a>
</g>
</g>
<!-- Node1&#45;&gt;Node6 -->
<g id="edge5" class="edge"><title>Node1&#45;&gt;Node6</title>
<path fill="none" stroke="midnightblue" d="M162.074,-216.327C166.424,-209.03 173.11,-197.815 178.668,-188.492"/>
<polygon fill="midnightblue" stroke="midnightblue" points="181.793,-190.086 183.907,-179.704 175.78,-186.501 181.793,-190.086"/>
</g>
<!-- Node8 -->
<g id="node8" class="node"><title>Node8</title>
<g id="a_node8"><a xlink:href="../../d0/d7c/_t_h_d_mcache_8h.html" target="_top" xlink:title="THDMcache.h">
<polygon fill="none" stroke="black" points="73.5,-108.5 73.5,-125.5 141.5,-125.5 141.5,-108.5 73.5,-108.5"/>
<text text-anchor="middle" x="107.5" y="-115.1" font-family="Helvetica,sans-Serif" font-size="8.00">THDMcache.h</text>
</a>
</g>
</g>
<!-- Node1&#45;&gt;Node8 -->
<g id="edge15" class="edge"><title>Node1&#45;&gt;Node8</title>
<path fill="none" stroke="midnightblue" d="M153.904,-216.377C145.904,-199.416 126.473,-158.222 115.46,-134.875"/>
<polygon fill="midnightblue" stroke="midnightblue" points="118.495,-133.105 111.063,-125.554 112.164,-136.092 118.495,-133.105"/>
</g>
<!-- Node4 -->
<g id="node4" class="node"><title>Node4</title>
<g id="a_node4"><a xlink:href="../../d6/d0a/_standard_model_8h.html" target="_top" xlink:title="StandardModel.h">
<polygon fill="none" stroke="red" points="257,-108.5 257,-125.5 334,-125.5 334,-108.5 257,-108.5"/>
<text text-anchor="middle" x="295.5" y="-115.1" font-family="Helvetica,sans-Serif" font-size="8.00">StandardModel.h</text>
</a>
</g>
</g>
<!-- Node3&#45;&gt;Node4 -->
<g id="edge3" class="edge"><title>Node3&#45;&gt;Node4</title>
<path fill="none" stroke="midnightblue" d="M282.713,-162.327C284.752,-155.261 287.85,-144.52 290.486,-135.381"/>
<polygon fill="midnightblue" stroke="midnightblue" points="293.869,-136.283 293.278,-125.704 287.143,-134.342 293.869,-136.283"/>
</g>
<!-- Node5 -->
<g id="node5" class="node"><title>Node5</title>
<g id="a_node5"><a xlink:href="../../d9/d72/gslpp_8h.html" target="_top" xlink:title="gslpp.h">
<polygon fill="none" stroke="red" points="177.5,-0.5 177.5,-17.5 219.5,-17.5 219.5,-0.5 177.5,-0.5"/>
<text text-anchor="middle" x="198.5" y="-7.1" font-family="Helvetica,sans-Serif" font-size="8.00">gslpp.h</text>
</a>
</g>
</g>
<!-- Node4&#45;&gt;Node5 -->
<g id="edge4" class="edge"><title>Node4&#45;&gt;Node5</title>
<path fill="none" stroke="midnightblue" d="M291.254,-108.216C284.327,-95.9141 269.731,-71.573 253.5,-54 242.894,-42.5176 229.167,-31.5317 218.08,-23.4093"/>
<polygon fill="midnightblue" stroke="midnightblue" points="220.039,-20.5078 209.864,-17.5545 215.976,-26.2084 220.039,-20.5078"/>
</g>
<!-- Node6&#45;&gt;Node4 -->
<g id="edge6" class="edge"><title>Node6&#45;&gt;Node4</title>
<path fill="none" stroke="midnightblue" d="M204.288,-162.327C221.853,-153.791 250.452,-139.893 270.944,-129.934"/>
<polygon fill="midnightblue" stroke="midnightblue" points="272.531,-133.054 279.995,-125.535 269.471,-126.758 272.531,-133.054"/>
</g>
<!-- Node7 -->
<g id="node7" class="node"><title>Node7</title>
<g id="a_node7"><a xlink:href="../../db/d1f/_t_h_d_m_matching_8h.html" target="_top" xlink:title="THDMMatching.h">
<polygon fill="none" stroke="red" points="160,-108.5 160,-125.5 239,-125.5 239,-108.5 160,-108.5"/>
<text text-anchor="middle" x="199.5" y="-115.1" font-family="Helvetica,sans-Serif" font-size="8.00">THDMMatching.h</text>
</a>
</g>
</g>
<!-- Node6&#45;&gt;Node7 -->
<g id="edge7" class="edge"><title>Node6&#45;&gt;Node7</title>
<path fill="none" stroke="midnightblue" d="M190.123,-162.327C191.602,-155.338 193.841,-144.753 195.76,-135.679"/>
<polygon fill="midnightblue" stroke="midnightblue" points="199.225,-136.212 197.87,-125.704 192.376,-134.763 199.225,-136.212"/>
</g>
<!-- Node6&#45;&gt;Node8 -->
<g id="edge9" class="edge"><title>Node6&#45;&gt;Node8</title>
<path fill="none" stroke="midnightblue" d="M176.548,-162.327C163.793,-154.139 143.351,-141.016 128.014,-131.169"/>
<polygon fill="midnightblue" stroke="midnightblue" points="129.544,-127.992 119.238,-125.535 125.762,-133.883 129.544,-127.992"/>
</g>
<!-- Node7&#45;&gt;Node5 -->
<g id="edge8" class="edge"><title>Node7&#45;&gt;Node5</title>
<path fill="none" stroke="midnightblue" d="M209.953,-108.496C224.12,-97.3281 246.754,-75.3495 238.5,-54 234.043,-42.4707 225.005,-32.1009 216.646,-24.3282"/>
<polygon fill="midnightblue" stroke="midnightblue" points="218.863,-21.618 209.012,-17.7186 214.281,-26.9102 218.863,-21.618"/>
</g>
<!-- Node8&#45;&gt;Node2 -->
<g id="edge13" class="edge"><title>Node8&#45;&gt;Node2</title>
<path fill="none" stroke="midnightblue" d="M95.4006,-108.327C82.3662,-100.062 61.4029,-86.7677 45.8288,-76.8914"/>
<polygon fill="midnightblue" stroke="midnightblue" points="47.7019,-73.9349 37.3824,-71.5352 43.9531,-79.8464 47.7019,-73.9349"/>
</g>
<!-- Node8&#45;&gt;Node5 -->
<g id="edge14" class="edge"><title>Node8&#45;&gt;Node5</title>
<path fill="none" stroke="midnightblue" d="M103.369,-108.429C97.2051,-95.9949 87.4445,-70.9427 98.5,-54 113.669,-30.7537 144.174,-19.7064 167.524,-14.5075"/>
<polygon fill="midnightblue" stroke="midnightblue" points="168.217,-17.9382 177.347,-12.5631 166.858,-11.0715 168.217,-17.9382"/>
</g>
<!-- Node9 -->
<g id="node9" class="node"><title>Node9</title>
<polygon fill="none" stroke="#bfbfbf" points="191.5,-54.5 191.5,-71.5 229.5,-71.5 229.5,-54.5 191.5,-54.5"/>
<text text-anchor="middle" x="210.5" y="-61.1" font-family="Helvetica,sans-Serif" font-size="8.00">cmath</text>
</g>
<!-- Node8&#45;&gt;Node9 -->
<g id="edge10" class="edge"><title>Node8&#45;&gt;Node9</title>
<path fill="none" stroke="midnightblue" d="M122.698,-108.327C139.53,-99.8298 166.887,-86.0183 186.594,-76.069"/>
<polygon fill="midnightblue" stroke="midnightblue" points="188.225,-79.1664 195.575,-71.5352 185.07,-72.9176 188.225,-79.1664"/>
</g>
<!-- Node10 -->
<g id="node10" class="node"><title>Node10</title>
<g id="a_node10"><a xlink:href="../../d3/d6b/_p_vfunctions_8h.html" target="_top" xlink:title="PVfunctions.h">
<polygon fill="none" stroke="red" points="107.5,-54.5 107.5,-71.5 173.5,-71.5 173.5,-54.5 107.5,-54.5"/>
<text text-anchor="middle" x="140.5" y="-61.1" font-family="Helvetica,sans-Serif" font-size="8.00">PVfunctions.h</text>
</a>
</g>
</g>
<!-- Node8&#45;&gt;Node10 -->
<g id="edge11" class="edge"><title>Node8&#45;&gt;Node10</title>
<path fill="none" stroke="midnightblue" d="M112.369,-108.327C117.049,-100.954 124.267,-89.5787 130.22,-80.1981"/>
<polygon fill="midnightblue" stroke="midnightblue" points="133.208,-82.023 135.611,-71.7043 127.297,-78.2722 133.208,-82.023"/>
</g>
<!-- Node10&#45;&gt;Node5 -->
<g id="edge12" class="edge"><title>Node10&#45;&gt;Node5</title>
<path fill="none" stroke="midnightblue" d="M149.058,-54.3272C157.797,-46.4928 171.573,-34.1412 182.367,-24.4641"/>
<polygon fill="midnightblue" stroke="midnightblue" points="184.797,-26.9857 189.907,-17.7043 180.125,-21.7737 184.797,-26.9857"/>
</g>
</g>
</svg>
