<?xml version="1.0" encoding="UTF-8" standalone="no"?>
<!DOCTYPE svg PUBLIC "-//W3C//DTD SVG 1.1//EN"
 "http://www.w3.org/Graphics/SVG/1.1/DTD/svg11.dtd">
<!-- Generated by graphviz version 2.40.1 (20161225.0304)
 -->
<!-- Title: LineData.hpp Pages: 1 -->
<svg width="290pt" height="134pt"
 viewBox="0.00 0.00 290.00 134.00" xmlns="http://www.w3.org/2000/svg" xmlns:xlink="http://www.w3.org/1999/xlink">
<g id="graph0" class="graph" transform="scale(1 1) rotate(0) translate(4 130)">
<title>LineData.hpp</title>
<!-- Node38 -->
<g id="node1" class="node">
<title>Node38</title>
<polygon fill="#bfbfbf" stroke="#000000" points="123,-108.5 123,-125.5 187,-125.5 187,-108.5 123,-108.5"/>
<text text-anchor="middle" x="155" y="-115.1" font-family="Helvetica,sans-Serif" font-size="8.00" fill="#000000">LineData.hpp</text>
</g>
<!-- Node39 -->
<g id="node2" class="node">
<title>Node39</title>
<g id="a_node2"><a xlink:href="../../d5/dce/_slha_value_plotter_8hpp.html" target="_top" xlink:title="SlhaValuePlotter.hpp">
<polygon fill="none" stroke="#000000" points="0,-54.5 0,-71.5 92,-71.5 92,-54.5 0,-54.5"/>
<text text-anchor="middle" x="46" y="-61.1" font-family="Helvetica,sans-Serif" font-size="8.00" fill="#000000">SlhaValuePlotter.hpp</text>
</a>
</g>
</g>
<!-- Node38&#45;&gt;Node39 -->
<g id="edge1" class="edge">
<title>Node38&#45;&gt;Node39</title>
<path fill="none" stroke="#191970" d="M128.4812,-103.8622C108.2697,-93.8492 81.0129,-80.3458 63.4693,-71.6545"/>
<polygon fill="#191970" stroke="#191970" points="126.9729,-107.0209 137.4873,-108.324 130.0803,-100.7485 126.9729,-107.0209"/>
</g>
<!-- Node41 -->
<g id="node4" class="node">
<title>Node41</title>
<g id="a_node4"><a xlink:href="../../d8/db0/_spectrum_plotter_8hpp.html" target="_top" xlink:title="SpectrumPlotter.hpp">
<polygon fill="none" stroke="#000000" points="110.5,-54.5 110.5,-71.5 199.5,-71.5 199.5,-54.5 110.5,-54.5"/>
<text text-anchor="middle" x="155" y="-61.1" font-family="Helvetica,sans-Serif" font-size="8.00" fill="#000000">SpectrumPlotter.hpp</text>
</a>
</g>
</g>
<!-- Node38&#45;&gt;Node41 -->
<g id="edge3" class="edge">
<title>Node38&#45;&gt;Node41</title>
<path fill="none" stroke="#191970" d="M155,-97.8045C155,-88.9102 155,-78.7798 155,-71.7511"/>
<polygon fill="#191970" stroke="#191970" points="151.5001,-98.083 155,-108.083 158.5001,-98.083 151.5001,-98.083"/>
</g>
<!-- Node43 -->
<g id="node6" class="node">
<title>Node43</title>
<g id="a_node6"><a xlink:href="../../d5/df4/_line_data_8cpp.html" target="_top" xlink:title="LineData.cpp">
<polygon fill="none" stroke="#000000" points="218,-54.5 218,-71.5 282,-71.5 282,-54.5 218,-54.5"/>
<text text-anchor="middle" x="250" y="-61.1" font-family="Helvetica,sans-Serif" font-size="8.00" fill="#000000">LineData.cpp</text>
</a>
</g>
</g>
<!-- Node38&#45;&gt;Node43 -->
<g id="edge5" class="edge">
<title>Node38&#45;&gt;Node43</title>
<path fill="none" stroke="#191970" d="M179.3176,-103.1774C196.7988,-93.2407 219.8301,-80.1492 234.7745,-71.6545"/>
<polygon fill="#191970" stroke="#191970" points="177.2275,-100.3395 170.2634,-108.324 180.6867,-106.425 177.2275,-100.3395"/>
</g>
<!-- Node40 -->
<g id="node3" class="node">
<title>Node40</title>
<g id="a_node3"><a xlink:href="../../d1/d7a/_slha_value_plotter_8cpp.html" target="_top" xlink:title="SlhaValuePlotter.cpp">
<polygon fill="none" stroke="#000000" points=".5,-.5 .5,-17.5 91.5,-17.5 91.5,-.5 .5,-.5"/>
<text text-anchor="middle" x="46" y="-7.1" font-family="Helvetica,sans-Serif" font-size="8.00" fill="#000000">SlhaValuePlotter.cpp</text>
</a>
</g>
</g>
<!-- Node39&#45;&gt;Node40 -->
<g id="edge2" class="edge">
<title>Node39&#45;&gt;Node40</title>
<path fill="none" stroke="#191970" d="M46,-43.8045C46,-34.9102 46,-24.7798 46,-17.7511"/>
<polygon fill="#191970" stroke="#191970" points="42.5001,-44.083 46,-54.083 49.5001,-44.083 42.5001,-44.083"/>
</g>
<!-- Node42 -->
<g id="node5" class="node">
<title>Node42</title>
<g id="a_node5"><a xlink:href="../../d7/dff/_spectrum_plotter_8cpp.html" target="_top" xlink:title="SpectrumPlotter.cpp">
<polygon fill="none" stroke="#000000" points="110.5,-.5 110.5,-17.5 199.5,-17.5 199.5,-.5 110.5,-.5"/>
<text text-anchor="middle" x="155" y="-7.1" font-family="Helvetica,sans-Serif" font-size="8.00" fill="#000000">SpectrumPlotter.cpp</text>
</a>
</g>
</g>
<!-- Node41&#45;&gt;Node42 -->
<g id="edge4" class="edge">
<title>Node41&#45;&gt;Node42</title>
<path fill="none" stroke="#191970" d="M155,-43.8045C155,-34.9102 155,-24.7798 155,-17.7511"/>
<polygon fill="#191970" stroke="#191970" points="151.5001,-44.083 155,-54.083 158.5001,-44.083 151.5001,-44.083"/>
</g>
</g>
</svg>
