<?xml version="1.0" encoding="UTF-8" standalone="no"?>
<!DOCTYPE svg PUBLIC "-//W3C//DTD SVG 1.1//EN"
 "http://www.w3.org/Graphics/SVG/1.1/DTD/svg11.dtd">
<!-- Generated by graphviz version 2.40.1 (20161225.0304)
 -->
<!-- Title: LEP2sigmaHadron.h Pages: 1 -->
<svg width="207pt" height="134pt"
 viewBox="0.00 0.00 206.50 134.00" xmlns="http://www.w3.org/2000/svg" xmlns:xlink="http://www.w3.org/1999/xlink">
<g id="graph0" class="graph" transform="scale(1 1) rotate(0) translate(4 130)">
<title>LEP2sigmaHadron.h</title>
<!-- Node53 -->
<g id="node1" class="node">
<title>Node53</title>
<polygon fill="#bfbfbf" stroke="#000000" points="50,-108.5 50,-125.5 140,-125.5 140,-108.5 50,-108.5"/>
<text text-anchor="middle" x="95" y="-115.1" font-family="Helvetica,sans-Serif" font-size="8.00" fill="#000000">LEP2sigmaHadron.h</text>
</g>
<!-- Node54 -->
<g id="node2" class="node">
<title>Node54</title>
<g id="a_node2"><a xlink:href="../../dd/df3/_e_w_observables_8h.html" target="_top" xlink:title="A header file for the observables defined in EW module. ">
<polygon fill="none" stroke="#000000" points=".5,-54.5 .5,-71.5 81.5,-71.5 81.5,-54.5 .5,-54.5"/>
<text text-anchor="middle" x="41" y="-61.1" font-family="Helvetica,sans-Serif" font-size="8.00" fill="#000000">EWObservables.h</text>
</a>
</g>
</g>
<!-- Node53&#45;&gt;Node54 -->
<g id="edge1" class="edge">
<title>Node53&#45;&gt;Node54</title>
<path fill="none" stroke="#191970" d="M79.0024,-101.0024C69.4329,-91.4329 57.6389,-79.6389 49.7511,-71.7511"/>
<polygon fill="#191970" stroke="#191970" points="76.537,-103.4868 86.083,-108.083 81.4868,-98.537 76.537,-103.4868"/>
</g>
<!-- Node56 -->
<g id="node4" class="node">
<title>Node56</title>
<g id="a_node4"><a xlink:href="../../db/dbe/_l_e_p2sigma_hadron_8cpp.html" target="_top" xlink:title="LEP2sigmaHadron.cpp">
<polygon fill="none" stroke="#000000" points="99.5,-54.5 99.5,-71.5 198.5,-71.5 198.5,-54.5 99.5,-54.5"/>
<text text-anchor="middle" x="149" y="-61.1" font-family="Helvetica,sans-Serif" font-size="8.00" fill="#000000">LEP2sigmaHadron.cpp</text>
</a>
</g>
</g>
<!-- Node53&#45;&gt;Node56 -->
<g id="edge3" class="edge">
<title>Node53&#45;&gt;Node56</title>
<path fill="none" stroke="#191970" d="M110.9976,-101.0024C120.5671,-91.4329 132.3611,-79.6389 140.2489,-71.7511"/>
<polygon fill="#191970" stroke="#191970" points="108.5132,-98.537 103.917,-108.083 113.463,-103.4868 108.5132,-98.537"/>
</g>
<!-- Node55 -->
<g id="node3" class="node">
<title>Node55</title>
<g id="a_node3"><a xlink:href="../../d1/de2/_th_obs_factory_8cpp.html" target="_top" xlink:title="ThObsFactory.cpp">
<polygon fill="none" stroke="#000000" points="0,-.5 0,-17.5 82,-17.5 82,-.5 0,-.5"/>
<text text-anchor="middle" x="41" y="-7.1" font-family="Helvetica,sans-Serif" font-size="8.00" fill="#000000">ThObsFactory.cpp</text>
</a>
</g>
</g>
<!-- Node54&#45;&gt;Node55 -->
<g id="edge2" class="edge">
<title>Node54&#45;&gt;Node55</title>
<path fill="none" stroke="#191970" d="M41,-43.8045C41,-34.9102 41,-24.7798 41,-17.7511"/>
<polygon fill="#191970" stroke="#191970" points="37.5001,-44.083 41,-54.083 44.5001,-44.083 37.5001,-44.083"/>
</g>
</g>
</svg>
