<?xml version="1.0" encoding="UTF-8" standalone="no"?>
<!DOCTYPE svg PUBLIC "-//W3C//DTD SVG 1.1//EN"
 "http://www.w3.org/Graphics/SVG/1.1/DTD/svg11.dtd">
<!-- Generated by graphviz version 2.40.1 (20161225.0304)
 -->
<!-- Title: LHPC::SLHA::SameNameBlockSet Pages: 1 -->
<svg width="1117pt" height="114pt"
 viewBox="0.00 0.00 1117.00 114.00" xmlns="http://www.w3.org/2000/svg" xmlns:xlink="http://www.w3.org/1999/xlink">
<g id="graph0" class="graph" transform="scale(1 1) rotate(0) translate(4 110)">
<title>LHPC::SLHA::SameNameBlockSet</title>
<!-- Node2 -->
<g id="node1" class="node">
<title>Node2</title>
<polygon fill="#bfbfbf" stroke="#000000" points="968,-43.5 968,-60.5 1109,-60.5 1109,-43.5 968,-43.5"/>
<text text-anchor="middle" x="1038.5" y="-50.1" font-family="Helvetica,sans-Serif" font-size="8.00" fill="#000000">LHPC::SLHA::SameNameBlockSet</text>
</g>
<!-- Node3 -->
<g id="node2" class="node">
<title>Node3</title>
<g id="a_node2"><a xlink:href="../../d4/dbd/class_b_o_l_1_1_pushing_observed.html" target="_top" xlink:title="StringBlockPusher">
<polygon fill="none" stroke="#000000" points="788,-88.5 788,-105.5 870,-105.5 870,-88.5 788,-88.5"/>
<text text-anchor="middle" x="829" y="-95.1" font-family="Helvetica,sans-Serif" font-size="8.00" fill="#000000">StringBlockPusher</text>
</a>
</g>
</g>
<!-- Node3&#45;&gt;Node2 -->
<g id="edge1" class="edge">
<title>Node3&#45;&gt;Node2</title>
<path fill="none" stroke="#191970" d="M878.8865,-86.2845C915.5549,-78.4083 964.7196,-67.8478 998.7501,-60.5382"/>
<polygon fill="#191970" stroke="#191970" points="877.9404,-82.9078 868.8985,-88.4299 879.4105,-89.7517 877.9404,-82.9078"/>
</g>
<!-- Node4 -->
<g id="node3" class="node">
<title>Node4</title>
<g id="a_node3"><a xlink:href="../../de/da2/class_b_o_l_1_1_vectorlike_array.html" target="_top" xlink:title="BOL::VectorlikeArray\l\&lt; LHPC::SLHA::BlockClass\l::BaseStringBlock \&gt;">
<polygon fill="none" stroke="#000000" points="772,-34.5 772,-69.5 886,-69.5 886,-34.5 772,-34.5"/>
<text text-anchor="start" x="780" y="-59.1" font-family="Helvetica,sans-Serif" font-size="8.00" fill="#000000">BOL::VectorlikeArray</text>
<text text-anchor="start" x="780" y="-50.1" font-family="Helvetica,sans-Serif" font-size="8.00" fill="#000000">&lt; LHPC::SLHA::BlockClass</text>
<text text-anchor="middle" x="829" y="-41.1" font-family="Helvetica,sans-Serif" font-size="8.00" fill="#000000">::BaseStringBlock &gt;</text>
</a>
</g>
</g>
<!-- Node4&#45;&gt;Node2 -->
<g id="edge2" class="edge">
<title>Node4&#45;&gt;Node2</title>
<path fill="none" stroke="#9a32cd" stroke-dasharray="5,2" d="M896.5148,-52C919.3177,-52 944.827,-52 967.8649,-52"/>
<polygon fill="#9a32cd" stroke="#9a32cd" points="896.2468,-48.5001 886.2468,-52 896.2468,-55.5001 896.2468,-48.5001"/>
<text text-anchor="middle" x="927" y="-54.6" font-family="Helvetica,sans-Serif" font-size="8.00" fill="#000000"> stringBlocks</text>
</g>
<!-- Node5 -->
<g id="node4" class="node">
<title>Node5</title>
<g id="a_node4"><a xlink:href="../../dc/d7c/class_l_h_p_c_1_1_s_l_h_a_1_1_block_class_1_1_base_string_block.html" target="_top" xlink:title="LHPC::SLHA::BlockClass\l::BaseStringBlock">
<polygon fill="none" stroke="#000000" points="583,-5 583,-31 690,-31 690,-5 583,-5"/>
<text text-anchor="start" x="591" y="-20.6" font-family="Helvetica,sans-Serif" font-size="8.00" fill="#000000">LHPC::SLHA::BlockClass</text>
<text text-anchor="middle" x="636.5" y="-11.6" font-family="Helvetica,sans-Serif" font-size="8.00" fill="#000000">::BaseStringBlock</text>
</a>
</g>
</g>
<!-- Node5&#45;&gt;Node2 -->
<g id="edge8" class="edge">
<title>Node5&#45;&gt;Node2</title>
<path fill="none" stroke="#9a32cd" stroke-dasharray="5,2" d="M700.4,-16.863C723.0168,-16.5119 748.6401,-16.1724 772,-16 822.6653,-15.6261 835.6733,-10.1403 886,-16 930.4493,-21.1754 980.7426,-34.5642 1011.016,-43.474"/>
<polygon fill="#9a32cd" stroke="#9a32cd" points="700.1821,-13.3659 690.239,-17.0246 700.2935,-20.3651 700.1821,-13.3659"/>
<text text-anchor="middle" x="829" y="-18.6" font-family="Helvetica,sans-Serif" font-size="8.00" fill="#000000"> currentStringBlock</text>
</g>
<!-- Node5&#45;&gt;Node4 -->
<g id="edge3" class="edge">
<title>Node5&#45;&gt;Node4</title>
<path fill="none" stroke="#9a32cd" stroke-dasharray="5,2" d="M700.2024,-29.2513C723.3772,-33.3445 749.4054,-37.9417 771.9661,-41.9265"/>
<polygon fill="#9a32cd" stroke="#9a32cd" points="700.5783,-25.7636 690.122,-27.4709 699.3608,-32.6569 700.5783,-25.7636"/>
<text text-anchor="middle" x="731" y="-41.6" font-family="Helvetica,sans-Serif" font-size="8.00" fill="#000000"> pointerArray</text>
</g>
<!-- Node6 -->
<g id="node5" class="node">
<title>Node6</title>
<g id="a_node5"><a xlink:href="../../de/da2/class_b_o_l_1_1_vectorlike_array.html" target="_top" xlink:title="BOL::VectorlikeArray\l\&lt; std::pair\&lt; std::string,\l std::string \&gt; \&gt;">
<polygon fill="none" stroke="#000000" points="351,-.5 351,-35.5 447,-35.5 447,-.5 351,-.5"/>
<text text-anchor="start" x="359" y="-25.1" font-family="Helvetica,sans-Serif" font-size="8.00" fill="#000000">BOL::VectorlikeArray</text>
<text text-anchor="start" x="359" y="-16.1" font-family="Helvetica,sans-Serif" font-size="8.00" fill="#000000">&lt; std::pair&lt; std::string,</text>
<text text-anchor="middle" x="399" y="-7.1" font-family="Helvetica,sans-Serif" font-size="8.00" fill="#000000"> std::string &gt; &gt;</text>
</a>
</g>
</g>
<!-- Node6&#45;&gt;Node5 -->
<g id="edge4" class="edge">
<title>Node6&#45;&gt;Node5</title>
<path fill="none" stroke="#9a32cd" stroke-dasharray="5,2" d="M457.5359,-18C495.8086,-18 545.4286,-18 582.7096,-18"/>
<polygon fill="#9a32cd" stroke="#9a32cd" points="457.0617,-14.5001 447.0617,-18 457.0616,-21.5001 457.0617,-14.5001"/>
<text text-anchor="middle" x="515" y="-20.6" font-family="Helvetica,sans-Serif" font-size="8.00" fill="#000000"> stringPairArray</text>
</g>
<!-- Node7 -->
<g id="node6" class="node">
<title>Node7</title>
<g id="a_node6"><a xlink:href="../../de/da2/class_b_o_l_1_1_vectorlike_array.html" target="_top" xlink:title="BOL::VectorlikeArray\l\&lt; StoredClass \&gt;">
<polygon fill="none" stroke="#000000" points="142,-28 142,-54 233,-54 233,-28 142,-28"/>
<text text-anchor="start" x="150" y="-43.6" font-family="Helvetica,sans-Serif" font-size="8.00" fill="#000000">BOL::VectorlikeArray</text>
<text text-anchor="middle" x="187.5" y="-34.6" font-family="Helvetica,sans-Serif" font-size="8.00" fill="#000000">&lt; StoredClass &gt;</text>
</a>
</g>
</g>
<!-- Node7&#45;&gt;Node4 -->
<g id="edge7" class="edge">
<title>Node7&#45;&gt;Node4</title>
<path fill="none" stroke="#ffa500" stroke-dasharray="5,2" d="M243.2924,-49.3448C245.8945,-49.5963 248.4735,-49.8175 251,-50 441.4154,-63.758 668.0363,-58.1717 771.8844,-54.3946"/>
<polygon fill="#ffa500" stroke="#ffa500" points="243.5242,-45.8493 233.2031,-48.242 242.7635,-52.8079 243.5242,-45.8493"/>
<text text-anchor="start" x="465" y="-70.6" font-family="Helvetica,sans-Serif" font-size="8.00" fill="#000000"> &lt; LHPC::SLHA::BlockClass</text>
<text text-anchor="middle" x="515" y="-61.6" font-family="Helvetica,sans-Serif" font-size="8.00" fill="#000000">::BaseStringBlock &gt;</text>
</g>
<!-- Node7&#45;&gt;Node6 -->
<g id="edge5" class="edge">
<title>Node7&#45;&gt;Node6</title>
<path fill="none" stroke="#ffa500" stroke-dasharray="5,2" d="M243.3196,-32.9405C245.9144,-32.6125 248.4844,-32.2971 251,-32 284.3203,-28.0649 321.965,-24.5162 350.9496,-21.9761"/>
<polygon fill="#ffa500" stroke="#ffa500" points="242.7124,-29.49 233.2505,-34.2568 243.6199,-36.4309 242.7124,-29.49"/>
<text text-anchor="start" x="251" y="-43.6" font-family="Helvetica,sans-Serif" font-size="8.00" fill="#000000"> &lt; std::pair&lt; std::string,</text>
<text text-anchor="middle" x="292" y="-34.6" font-family="Helvetica,sans-Serif" font-size="8.00" fill="#000000"> std::string &gt; &gt;</text>
</g>
<!-- Node8 -->
<g id="node7" class="node">
<title>Node8</title>
<polygon fill="none" stroke="#bfbfbf" points="0,-32.5 0,-49.5 60,-49.5 60,-32.5 0,-32.5"/>
<text text-anchor="middle" x="30" y="-39.1" font-family="Helvetica,sans-Serif" font-size="8.00" fill="#000000">StoredClass</text>
</g>
<!-- Node8&#45;&gt;Node7 -->
<g id="edge6" class="edge">
<title>Node8&#45;&gt;Node7</title>
<path fill="none" stroke="#9a32cd" stroke-dasharray="5,2" d="M70.5917,-41C92.3415,-41 119.2125,-41 141.7064,-41"/>
<polygon fill="#9a32cd" stroke="#9a32cd" points="70.3676,-37.5001 60.3676,-41 70.3675,-44.5001 70.3676,-37.5001"/>
<text text-anchor="middle" x="101" y="-43.6" font-family="Helvetica,sans-Serif" font-size="8.00" fill="#000000"> pointerArray</text>
</g>
</g>
</svg>
