<?xml version="1.0" encoding="UTF-8" standalone="no"?>
<!DOCTYPE svg PUBLIC "-//W3C//DTD SVG 1.1//EN"
 "http://www.w3.org/Graphics/SVG/1.1/DTD/svg11.dtd">
<!-- Generated by graphviz version 2.40.1 (20161225.0304)
 -->
<!-- Title: LHPC::MassSpectrumClass::NmssmExtraEwsbSpinZeroBosonSet Pages: 1 -->
<svg width="1214pt" height="198pt"
 viewBox="0.00 0.00 1214.00 197.50" xmlns="http://www.w3.org/2000/svg" xmlns:xlink="http://www.w3.org/1999/xlink">
<g id="graph0" class="graph" transform="scale(1 1) rotate(0) translate(4 193.5)">
<title>LHPC::MassSpectrumClass::NmssmExtraEwsbSpinZeroBosonSet</title>
<!-- Node7 -->
<g id="node1" class="node">
<title>Node7</title>
<polygon fill="#bfbfbf" stroke="#000000" points="1053,-79.5 1053,-105.5 1206,-105.5 1206,-79.5 1053,-79.5"/>
<text text-anchor="start" x="1061" y="-95.1" font-family="Helvetica,sans-Serif" font-size="8.00" fill="#000000">LHPC::MassSpectrumClass</text>
<text text-anchor="middle" x="1129.5" y="-86.1" font-family="Helvetica,sans-Serif" font-size="8.00" fill="#000000">::NmssmExtraEwsbSpinZeroBosonSet</text>
</g>
<!-- Node8 -->
<g id="node2" class="node">
<title>Node8</title>
<g id="a_node2"><a xlink:href="../../d3/d8f/class_l_h_p_c_1_1_mass_spectrum.html" target="_top" xlink:title="LHPC::MassSpectrum">
<polygon fill="none" stroke="#000000" points="603.5,-36 603.5,-53 699.5,-53 699.5,-36 603.5,-36"/>
<text text-anchor="middle" x="651.5" y="-42.6" font-family="Helvetica,sans-Serif" font-size="8.00" fill="#000000">LHPC::MassSpectrum</text>
</a>
</g>
</g>
<!-- Node8&#45;&gt;Node7 -->
<g id="edge1" class="edge">
<title>Node8&#45;&gt;Node7</title>
<path fill="none" stroke="#191970" d="M710.021,-46.2744C782.2335,-49.0152 908.6382,-55.6114 1016,-70.5 1033.1974,-72.8849 1051.7314,-76.1698 1068.7353,-79.4744"/>
<polygon fill="#191970" stroke="#191970" points="709.8905,-42.7673 699.7686,-45.8975 709.6332,-49.7626 709.8905,-42.7673"/>
</g>
<!-- Node14 -->
<g id="node7" class="node">
<title>Node14</title>
<g id="a_node7"><a xlink:href="../../dc/db3/class_l_h_p_c_1_1_mass_spectrum_class_1_1_mssm_extra_ewsb_spin_zero_boson_set.html" target="_top" xlink:title="LHPC::MassSpectrumClass\l::MssmExtraEwsbSpinZeroBosonSet">
<polygon fill="none" stroke="#000000" points="868,-79.5 868,-105.5 1016,-105.5 1016,-79.5 868,-79.5"/>
<text text-anchor="start" x="876" y="-95.1" font-family="Helvetica,sans-Serif" font-size="8.00" fill="#000000">LHPC::MassSpectrumClass</text>
<text text-anchor="middle" x="942" y="-86.1" font-family="Helvetica,sans-Serif" font-size="8.00" fill="#000000">::MssmExtraEwsbSpinZeroBosonSet</text>
</a>
</g>
</g>
<!-- Node8&#45;&gt;Node14 -->
<g id="edge8" class="edge">
<title>Node8&#45;&gt;Node14</title>
<path fill="none" stroke="#191970" d="M709.7987,-54.1328C755.3084,-61.6525 818.8394,-72.1499 867.9459,-80.2639"/>
<polygon fill="#191970" stroke="#191970" points="710.2331,-50.6572 699.7963,-52.4801 709.0919,-57.5636 710.2331,-50.6572"/>
</g>
<!-- Node9 -->
<g id="node3" class="node">
<title>Node9</title>
<g id="a_node3"><a xlink:href="../../d5/d13/class_b_o_l_1_1_pushed_to_observer.html" target="_top" xlink:title="BOL::PushedToObserver\l\&lt; SpectrumUpdater \&gt;">
<polygon fill="none" stroke="#000000" points="358.5,-45.5 358.5,-71.5 464.5,-71.5 464.5,-45.5 358.5,-45.5"/>
<text text-anchor="start" x="366.5" y="-61.1" font-family="Helvetica,sans-Serif" font-size="8.00" fill="#000000">BOL::PushedToObserver</text>
<text text-anchor="middle" x="411.5" y="-52.1" font-family="Helvetica,sans-Serif" font-size="8.00" fill="#000000">&lt; SpectrumUpdater &gt;</text>
</a>
</g>
</g>
<!-- Node9&#45;&gt;Node8 -->
<g id="edge2" class="edge">
<title>Node9&#45;&gt;Node8</title>
<path fill="none" stroke="#191970" d="M474.9992,-54.7959C515.212,-52.4501 566.3937,-49.4645 603.2752,-47.3131"/>
<polygon fill="#191970" stroke="#191970" points="474.543,-51.3165 464.7638,-55.3929 474.9507,-58.3046 474.543,-51.3165"/>
</g>
<!-- Node10 -->
<g id="node4" class="node">
<title>Node10</title>
<g id="a_node4"><a xlink:href="../../d3/d09/class_b_o_l_1_1_basic_observer.html" target="_top" xlink:title="BOL::BasicObserver">
<polygon fill="none" stroke="#000000" points="0,-45 0,-62 89,-62 89,-45 0,-45"/>
<text text-anchor="middle" x="44.5" y="-51.6" font-family="Helvetica,sans-Serif" font-size="8.00" fill="#000000">BOL::BasicObserver</text>
</a>
</g>
</g>
<!-- Node10&#45;&gt;Node9 -->
<g id="edge3" class="edge">
<title>Node10&#45;&gt;Node9</title>
<path fill="none" stroke="#191970" d="M99.3049,-57.1421C101.9058,-57.2726 104.4811,-57.393 107,-57.5 205.5868,-61.687 230.3316,-61.6958 329,-60.5 338.4552,-60.3854 348.5186,-60.197 358.2482,-59.9804"/>
<polygon fill="#191970" stroke="#191970" points="99.3865,-53.6415 89.2118,-56.5954 99.0078,-60.6312 99.3865,-53.6415"/>
</g>
<!-- Node11 -->
<g id="node5" class="node">
<title>Node11</title>
<g id="a_node5"><a xlink:href="../../d5/d13/class_b_o_l_1_1_pushed_to_observer.html" target="_top" xlink:title="BOL::PushedToObserver\l\&lt; PushedClass \&gt;">
<polygon fill="none" stroke="#000000" points="126,-19.5 126,-45.5 232,-45.5 232,-19.5 126,-19.5"/>
<text text-anchor="start" x="134" y="-35.1" font-family="Helvetica,sans-Serif" font-size="8.00" fill="#000000">BOL::PushedToObserver</text>
<text text-anchor="middle" x="179" y="-26.1" font-family="Helvetica,sans-Serif" font-size="8.00" fill="#000000">&lt; PushedClass &gt;</text>
</a>
</g>
</g>
<!-- Node10&#45;&gt;Node11 -->
<g id="edge5" class="edge">
<title>Node10&#45;&gt;Node11</title>
<path fill="none" stroke="#191970" d="M99.2908,-44.9453C107.9556,-43.5924 116.9063,-42.1949 125.5401,-40.8469"/>
<polygon fill="#191970" stroke="#191970" points="98.6269,-41.5065 89.2866,-46.5073 99.7068,-48.4227 98.6269,-41.5065"/>
</g>
<!-- Node11&#45;&gt;Node9 -->
<g id="edge4" class="edge">
<title>Node11&#45;&gt;Node9</title>
<path fill="none" stroke="#ffa500" stroke-dasharray="5,2" d="M242.0602,-39.5519C278.446,-43.6208 323.6946,-48.6809 358.2771,-52.5482"/>
<polygon fill="#ffa500" stroke="#ffa500" points="242.3758,-36.0655 232.0488,-38.4323 241.5978,-43.0221 242.3758,-36.0655"/>
<text text-anchor="middle" x="289.5" y="-51.1" font-family="Helvetica,sans-Serif" font-size="8.00" fill="#000000"> &lt; SpectrumUpdater &gt;</text>
</g>
<!-- Node12 -->
<g id="node6" class="node">
<title>Node12</title>
<g id="a_node6"><a xlink:href="../../da/d50/class_l_h_p_c_1_1_map_and_vector_and_bools.html" target="_top" xlink:title="LHPC::MapAndVectorAndBools\l\&lt; MassEigenstate *\&gt;">
<polygon fill="none" stroke="#ff0000" points="347,-.5 347,-26.5 476,-26.5 476,-.5 347,-.5"/>
<text text-anchor="start" x="355" y="-16.1" font-family="Helvetica,sans-Serif" font-size="8.00" fill="#000000">LHPC::MapAndVectorAndBools</text>
<text text-anchor="middle" x="411.5" y="-7.1" font-family="Helvetica,sans-Serif" font-size="8.00" fill="#000000">&lt; MassEigenstate *&gt;</text>
</a>
</g>
</g>
<!-- Node12&#45;&gt;Node8 -->
<g id="edge6" class="edge">
<title>Node12&#45;&gt;Node8</title>
<path fill="none" stroke="#9a32cd" stroke-dasharray="5,2" d="M486.3043,-22.9459C516.6336,-26.8003 551.9932,-31.3252 584,-35.5 590.2133,-36.3104 596.747,-37.171 603.2023,-38.0263"/>
<polygon fill="#9a32cd" stroke="#9a32cd" points="486.5848,-19.4535 476.2236,-21.6659 485.703,-26.3977 486.5848,-19.4535"/>
<text text-anchor="middle" x="539" y="-38.1" font-family="Helvetica,sans-Serif" font-size="8.00" fill="#000000"> mapAndVectorAndBools</text>
</g>
<!-- Node14&#45;&gt;Node7 -->
<g id="edge7" class="edge">
<title>Node14&#45;&gt;Node7</title>
<path fill="none" stroke="#191970" d="M1026.3856,-92.5C1035.2029,-92.5 1044.1319,-92.5 1052.8562,-92.5"/>
<polygon fill="#191970" stroke="#191970" points="1026.105,-89.0001 1016.105,-92.5 1026.1049,-96.0001 1026.105,-89.0001"/>
</g>
<!-- Node15 -->
<g id="node8" class="node">
<title>Node15</title>
<g id="a_node8"><a xlink:href="../../db/d20/class_l_h_p_c_1_1_mass_eigenstate.html" target="_top" xlink:title="LHPC::MassEigenstate">
<polygon fill="none" stroke="#000000" points="602,-112 602,-129 701,-129 701,-112 602,-112"/>
<text text-anchor="middle" x="651.5" y="-118.6" font-family="Helvetica,sans-Serif" font-size="8.00" fill="#000000">LHPC::MassEigenstate</text>
</a>
</g>
</g>
<!-- Node15&#45;&gt;Node7 -->
<g id="edge13" class="edge">
<title>Node15&#45;&gt;Node7</title>
<path fill="none" stroke="#9a32cd" stroke-dasharray="5,2" d="M672.2363,-134.5704C685.0872,-142.423 702.2818,-151.4234 719,-155.5 858.3981,-189.4914 1029.1258,-132.5682 1098.2422,-105.5344"/>
<polygon fill="#9a32cd" stroke="#9a32cd" points="674.0301,-131.5633 663.7155,-129.1422 670.269,-137.4671 674.0301,-131.5633"/>
<text text-anchor="start" x="887.5" y="-183.1" font-family="Helvetica,sans-Serif" font-size="8.00" fill="#000000"> neutralColorlessPseudoscalar</text>
<text text-anchor="middle" x="942" y="-174.1" font-family="Helvetica,sans-Serif" font-size="8.00" fill="#000000">Two</text>
<text text-anchor="middle" x="942" y="-165.1" font-family="Helvetica,sans-Serif" font-size="8.00" fill="#000000">neutralColorlessScalarThree</text>
</g>
<!-- Node15&#45;&gt;Node14 -->
<g id="edge9" class="edge">
<title>Node15&#45;&gt;Node14</title>
<path fill="none" stroke="#9a32cd" stroke-dasharray="5,2" d="M686.1251,-109.0776C696.5772,-106.0865 708.157,-103.2205 719,-101.5 768.1745,-93.6974 824.1688,-91.4603 867.7466,-91.1673"/>
<polygon fill="#9a32cd" stroke="#9a32cd" points="685.0899,-105.7339 676.5104,-111.9503 687.0939,-112.441 685.0899,-105.7339"/>
<text text-anchor="start" x="719" y="-149.1" font-family="Helvetica,sans-Serif" font-size="8.00" fill="#000000"> neutralColorlessPseudoscalar</text>
<text text-anchor="middle" x="784.5" y="-140.1" font-family="Helvetica,sans-Serif" font-size="8.00" fill="#000000">One</text>
<text text-anchor="middle" x="784.5" y="-131.1" font-family="Helvetica,sans-Serif" font-size="8.00" fill="#000000">neutralColorlessScalarTwo</text>
<text text-anchor="start" x="719" y="-122.1" font-family="Helvetica,sans-Serif" font-size="8.00" fill="#000000">negativeColorlessSpinZeroBoson</text>
<text text-anchor="middle" x="784.5" y="-113.1" font-family="Helvetica,sans-Serif" font-size="8.00" fill="#000000">One</text>
<text text-anchor="middle" x="784.5" y="-104.1" font-family="Helvetica,sans-Serif" font-size="8.00" fill="#000000">positiveColorlessSpinZeroBosonOne</text>
</g>
<!-- Node15&#45;&gt;Node15 -->
<g id="edge12" class="edge">
<title>Node15&#45;&gt;Node15</title>
<path fill="none" stroke="#9a32cd" stroke-dasharray="5,2" d="M630.5274,-137.9802C631.015,-143.3193 638.0059,-147.5 651.5,-147.5 672.0625,-147.5 677.5244,-137.7925 667.8857,-129.0709"/>
<polygon fill="#9a32cd" stroke="#9a32cd" points="633.6487,-139.5639 635.1143,-129.0709 627.425,-136.3597 633.6487,-139.5639"/>
<text text-anchor="middle" x="651.5" y="-150.1" font-family="Helvetica,sans-Serif" font-size="8.00" fill="#000000"> chargeConjugate</text>
</g>
<!-- Node16 -->
<g id="node9" class="node">
<title>Node16</title>
<g id="a_node9"><a xlink:href="../../de/da2/class_b_o_l_1_1_vectorlike_array.html" target="_top" xlink:title="BOL::VectorlikeArray\l\&lt; LHPC::ExtendedMass \&gt;">
<polygon fill="none" stroke="#ff0000" points="357,-141.5 357,-167.5 466,-167.5 466,-141.5 357,-141.5"/>
<text text-anchor="start" x="365" y="-157.1" font-family="Helvetica,sans-Serif" font-size="8.00" fill="#000000">BOL::VectorlikeArray</text>
<text text-anchor="middle" x="411.5" y="-148.1" font-family="Helvetica,sans-Serif" font-size="8.00" fill="#000000">&lt; LHPC::ExtendedMass &gt;</text>
</a>
</g>
</g>
<!-- Node16&#45;&gt;Node15 -->
<g id="edge10" class="edge">
<title>Node16&#45;&gt;Node15</title>
<path fill="none" stroke="#9a32cd" stroke-dasharray="5,2" d="M476.5967,-146.9631C508.9417,-143.0236 548.5863,-137.9028 584,-132.5 590.9421,-131.4409 598.2697,-130.2326 605.4363,-129.0001"/>
<polygon fill="#9a32cd" stroke="#9a32cd" points="475.874,-143.5249 466.3662,-148.1995 476.7139,-150.4743 475.874,-143.5249"/>
<text text-anchor="middle" x="539" y="-147.1" font-family="Helvetica,sans-Serif" font-size="8.00" fill="#000000"> runningMasses</text>
</g>
<!-- Node20 -->
<g id="node10" class="node">
<title>Node20</title>
<g id="a_node10"><a xlink:href="../../de/da2/class_b_o_l_1_1_vectorlike_array.html" target="_top" xlink:title="BOL::VectorlikeArray\l\&lt; LHPC::PointersWithValue \&gt;">
<polygon fill="none" stroke="#ff0000" points="350.5,-96.5 350.5,-122.5 472.5,-122.5 472.5,-96.5 350.5,-96.5"/>
<text text-anchor="start" x="358.5" y="-112.1" font-family="Helvetica,sans-Serif" font-size="8.00" fill="#000000">BOL::VectorlikeArray</text>
<text text-anchor="middle" x="411.5" y="-103.1" font-family="Helvetica,sans-Serif" font-size="8.00" fill="#000000">&lt; LHPC::PointersWithValue &gt;</text>
</a>
</g>
</g>
<!-- Node20&#45;&gt;Node15 -->
<g id="edge11" class="edge">
<title>Node20&#45;&gt;Node15</title>
<path fill="none" stroke="#9a32cd" stroke-dasharray="5,2" d="M482.9157,-110.6145C513.9901,-111.3464 550.8142,-112.5459 584,-114.5 589.7549,-114.8389 595.7796,-115.2678 601.7602,-115.74"/>
<polygon fill="#9a32cd" stroke="#9a32cd" points="482.6873,-107.1086 472.6114,-110.3838 482.5306,-114.1068 482.6873,-107.1086"/>
<text text-anchor="middle" x="539" y="-126.1" font-family="Helvetica,sans-Serif" font-size="8.00" fill="#000000"> defaultDecaySet</text>
<text text-anchor="middle" x="539" y="-117.1" font-family="Helvetica,sans-Serif" font-size="8.00" fill="#000000">decaySet</text>
</g>
</g>
</svg>
