<?xml version="1.0" encoding="UTF-8" standalone="no"?>
<!DOCTYPE svg PUBLIC "-//W3C//DTD SVG 1.1//EN"
 "http://www.w3.org/Graphics/SVG/1.1/DTD/svg11.dtd">
<!-- Generated by graphviz version 2.38.0 (20140413.2041)
 -->
<!-- Title: EvolDF2 Pages: 1 -->
<svg width="634pt" height="166pt"
 viewBox="0.00 0.00 634.00 166.01" xmlns="http://www.w3.org/2000/svg" xmlns:xlink="http://www.w3.org/1999/xlink">
<g id="graph0" class="graph" transform="scale(1 1) rotate(0) translate(4 162.006)">
<title>EvolDF2</title>
<!-- Node1 -->
<g id="node1" class="node"><title>Node1</title>
<polygon fill="#bfbfbf" stroke="black" points="365.5,-125.006 365.5,-142.006 412.5,-142.006 412.5,-125.006 365.5,-125.006"/>
<text text-anchor="middle" x="389" y="-131.606" font-family="Helvetica,sans-Serif" font-size="8.00">EvolDF2</text>
</g>
<!-- Node2 -->
<g id="node2" class="node"><title>Node2</title>
<g id="a_node2"><a xlink:href="../../d9/d15/class_r_g_evolutor.html" target="_top" xlink:title="A class for the RG evolutor of the Wilson coefficients. ">
<polygon fill="none" stroke="black" points="182.5,-136.006 182.5,-153.006 240.5,-153.006 240.5,-136.006 182.5,-136.006"/>
<text text-anchor="middle" x="211.5" y="-142.606" font-family="Helvetica,sans-Serif" font-size="8.00">RGEvolutor</text>
</a>
</g>
</g>
<!-- Node2&#45;&gt;Node1 -->
<g id="edge1" class="edge"><title>Node2&#45;&gt;Node1</title>
<path fill="none" stroke="midnightblue" d="M251.032,-142.091C286.066,-139.895 336.569,-136.73 365.452,-134.92"/>
<polygon fill="midnightblue" stroke="midnightblue" points="250.459,-138.62 240.697,-142.739 250.897,-145.606 250.459,-138.62"/>
</g>
<!-- Node3 -->
<g id="node3" class="node"><title>Node3</title>
<g id="a_node3"><a xlink:href="../../dd/d6f/class_wilson_template.html" target="_top" xlink:title="WilsonTemplate\&lt; gslpp\l::matrix\&lt; double \&gt; \&gt;">
<polygon fill="none" stroke="red" points="0,-131.506 0,-157.506 100,-157.506 100,-131.506 0,-131.506"/>
<text text-anchor="start" x="8" y="-147.106" font-family="Helvetica,sans-Serif" font-size="8.00">WilsonTemplate&lt; gslpp</text>
<text text-anchor="middle" x="50" y="-138.106" font-family="Helvetica,sans-Serif" font-size="8.00">::matrix&lt; double &gt; &gt;</text>
</a>
</g>
</g>
<!-- Node3&#45;&gt;Node2 -->
<g id="edge2" class="edge"><title>Node3&#45;&gt;Node2</title>
<path fill="none" stroke="midnightblue" d="M110.475,-144.506C135.013,-144.506 162.294,-144.506 182.158,-144.506"/>
<polygon fill="midnightblue" stroke="midnightblue" points="110.157,-141.006 100.157,-144.506 110.157,-148.006 110.157,-141.006"/>
</g>
<!-- Node4 -->
<g id="node4" class="node"><title>Node4</title>
<g id="a_node4"><a xlink:href="../../dc/dd5/class_standard_model.html" target="_top" xlink:title="A model class for the Standard Model. ">
<polygon fill="none" stroke="red" points="176,-55.0063 176,-72.0063 247,-72.0063 247,-55.0063 176,-55.0063"/>
<text text-anchor="middle" x="211.5" y="-61.6063" font-family="Helvetica,sans-Serif" font-size="8.00">StandardModel</text>
</a>
</g>
</g>
<!-- Node4&#45;&gt;Node1 -->
<g id="edge3" class="edge"><title>Node4&#45;&gt;Node1</title>
<path fill="none" stroke="#9a32cd" stroke-dasharray="5,2" d="M231.24,-78.0769C240.899,-85.0356 253.122,-93.021 265,-98.5063 298.46,-113.958 340.244,-124.087 365.489,-129.299"/>
<polygon fill="#9a32cd" stroke="#9a32cd" points="233.285,-75.2361 223.172,-72.0761 229.107,-80.8527 233.285,-75.2361"/>
<text text-anchor="middle" x="295" y="-122.106" font-family="Helvetica,sans-Serif" font-size="8.00"> model</text>
</g>
<!-- Node6 -->
<g id="node6" class="node"><title>Node6</title>
<g id="a_node6"><a xlink:href="../../dc/df3/class_e_w_s_mcache.html" target="_top" xlink:title="A class for cache variables used in computing radiative corrections to the EW precision observables...">
<polygon fill="none" stroke="red" points="357.5,-30.0063 357.5,-47.0063 420.5,-47.0063 420.5,-30.0063 357.5,-30.0063"/>
<text text-anchor="middle" x="389" y="-36.6063" font-family="Helvetica,sans-Serif" font-size="8.00">EWSMcache</text>
</a>
</g>
</g>
<!-- Node4&#45;&gt;Node6 -->
<g id="edge6" class="edge"><title>Node4&#45;&gt;Node6</title>
<path fill="none" stroke="#9a32cd" stroke-dasharray="5,2" d="M257.379,-57.1132C288.66,-52.6573 329.577,-46.8287 357.215,-42.8915"/>
<polygon fill="#9a32cd" stroke="#9a32cd" points="256.58,-53.6917 247.173,-58.5671 257.567,-60.6217 256.58,-53.6917"/>
<text text-anchor="middle" x="295" y="-58.1063" font-family="Helvetica,sans-Serif" font-size="8.00"> SM</text>
</g>
<!-- Node5 -->
<g id="node5" class="node"><title>Node5</title>
<g id="a_node5"><a xlink:href="../../dd/dfa/class_q_c_d.html" target="_top" xlink:title="A class for parameters related to QCD, hadrons and quarks. ">
<polygon fill="none" stroke="red" points="33,-91.0063 33,-108.006 67,-108.006 67,-91.0063 33,-91.0063"/>
<text text-anchor="middle" x="50" y="-97.6063" font-family="Helvetica,sans-Serif" font-size="8.00">QCD</text>
</a>
</g>
</g>
<!-- Node5&#45;&gt;Node4 -->
<g id="edge4" class="edge"><title>Node5&#45;&gt;Node4</title>
<path fill="none" stroke="midnightblue" d="M77.4359,-94.0619C99.122,-89.5385 130.603,-82.8413 158,-76.5063 164.038,-75.1101 170.452,-73.5698 176.647,-72.0524"/>
<polygon fill="midnightblue" stroke="midnightblue" points="76.4294,-90.6961 67.3499,-96.1562 77.8526,-97.5499 76.4294,-90.6961"/>
</g>
<!-- Node6&#45;&gt;Node4 -->
<g id="edge5" class="edge"><title>Node6&#45;&gt;Node4</title>
<path fill="none" stroke="#9a32cd" stroke-dasharray="5,2" d="M347.391,-30.2484C323.08,-26.8416 291.798,-25.185 265,-32.5063 249.071,-36.858 233.06,-47.4175 222.983,-55.0032"/>
<polygon fill="#9a32cd" stroke="#9a32cd" points="346.931,-33.7188 357.349,-31.7946 348.005,-26.8017 346.931,-33.7188"/>
<text text-anchor="middle" x="295" y="-35.1063" font-family="Helvetica,sans-Serif" font-size="8.00"> myEWSMcache</text>
</g>
<!-- Node8 -->
<g id="node8" class="node"><title>Node8</title>
<g id="a_node8"><a xlink:href="../../d5/dad/class_e_w_s_m_three_loop_e_w.html" target="_top" xlink:title="A class for &#160;three&#45;loop corrections to the EW precision observables. ">
<polygon fill="none" stroke="black" points="519.5,-14.0063 519.5,-31.0063 612.5,-31.0063 612.5,-14.0063 519.5,-14.0063"/>
<text text-anchor="middle" x="566" y="-20.6063" font-family="Helvetica,sans-Serif" font-size="8.00">EWSMThreeLoopEW</text>
</a>
</g>
</g>
<!-- Node6&#45;&gt;Node8 -->
<g id="edge9" class="edge"><title>Node6&#45;&gt;Node8</title>
<path fill="none" stroke="#9a32cd" stroke-dasharray="5,2" d="M430.918,-34.5739C438.269,-33.8776 445.861,-33.1649 453,-32.5063 474.869,-30.4886 499.147,-28.3131 519.493,-26.5081"/>
<polygon fill="#9a32cd" stroke="#9a32cd" points="430.382,-31.109 420.758,-35.5403 431.045,-38.0776 430.382,-31.109"/>
<text text-anchor="middle" x="470.5" y="-35.1063" font-family="Helvetica,sans-Serif" font-size="8.00"> cache</text>
</g>
<!-- Node10 -->
<g id="node10" class="node"><title>Node10</title>
<g id="a_node10"><a xlink:href="../../d5/dde/class_e_w_s_m_approximate_formulae.html" target="_top" xlink:title="A class for approximate formulae of the EW precision observables. ">
<polygon fill="none" stroke="black" points="506,-64.0063 506,-81.0063 626,-81.0063 626,-64.0063 506,-64.0063"/>
<text text-anchor="middle" x="566" y="-70.6063" font-family="Helvetica,sans-Serif" font-size="8.00">EWSMApproximateFormulae</text>
</a>
</g>
</g>
<!-- Node6&#45;&gt;Node10 -->
<g id="edge12" class="edge"><title>Node6&#45;&gt;Node10</title>
<path fill="none" stroke="#9a32cd" stroke-dasharray="5,2" d="M430.8,-46.4332C457.838,-51.6861 493.289,-58.5739 520.965,-63.9508"/>
<polygon fill="#9a32cd" stroke="#9a32cd" points="431.368,-42.978 420.884,-44.5065 430.033,-49.8495 431.368,-42.978"/>
<text text-anchor="middle" x="470.5" y="-61.1063" font-family="Helvetica,sans-Serif" font-size="8.00"> mycache</text>
</g>
<!-- Node7 -->
<g id="node7" class="node"><title>Node7</title>
<g id="a_node7"><a xlink:href="../../d9/db9/class_c_k_m.html" target="_top" xlink:title="A class for the CKM matrix elements. ">
<polygon fill="none" stroke="red" points="33,-55.0063 33,-72.0063 67,-72.0063 67,-55.0063 33,-55.0063"/>
<text text-anchor="middle" x="50" y="-61.6063" font-family="Helvetica,sans-Serif" font-size="8.00">CKM</text>
</a>
</g>
</g>
<!-- Node7&#45;&gt;Node4 -->
<g id="edge7" class="edge"><title>Node7&#45;&gt;Node4</title>
<path fill="none" stroke="#9a32cd" stroke-dasharray="5,2" d="M77.3761,-63.5063C104.306,-63.5063 146.245,-63.5063 175.842,-63.5063"/>
<polygon fill="#9a32cd" stroke="#9a32cd" points="77.1715,-60.0064 67.1715,-63.5063 77.1714,-67.0064 77.1715,-60.0064"/>
<text text-anchor="middle" x="138" y="-66.1063" font-family="Helvetica,sans-Serif" font-size="8.00"> myCKM</text>
</g>
<!-- Node8&#45;&gt;Node4 -->
<g id="edge8" class="edge"><title>Node8&#45;&gt;Node4</title>
<path fill="none" stroke="#9a32cd" stroke-dasharray="5,2" d="M518.976,-12.0128C458.127,-0.462055 348.829,12.1203 265,-23.5063 247.494,-30.9462 230.616,-45.5563 220.913,-54.9095"/>
<polygon fill="#9a32cd" stroke="#9a32cd" points="518.547,-15.4957 529.036,-13.9976 519.902,-8.62805 518.547,-15.4957"/>
<text text-anchor="middle" x="389" y="-6.10626" font-family="Helvetica,sans-Serif" font-size="8.00"> myThreeLoopEW</text>
</g>
<!-- Node9 -->
<g id="node9" class="node"><title>Node9</title>
<g id="a_node9"><a xlink:href="../../d4/d6d/class_flavour.html" target="_top" xlink:title="The parent class in Flavour for calculating all the Wilson coefficients for various Flavor Violating ...">
<polygon fill="none" stroke="red" points="28.5,-19.0063 28.5,-36.0063 71.5,-36.0063 71.5,-19.0063 28.5,-19.0063"/>
<text text-anchor="middle" x="50" y="-25.6063" font-family="Helvetica,sans-Serif" font-size="8.00">Flavour</text>
</a>
</g>
</g>
<!-- Node9&#45;&gt;Node4 -->
<g id="edge10" class="edge"><title>Node9&#45;&gt;Node4</title>
<path fill="none" stroke="#9a32cd" stroke-dasharray="5,2" d="M81.3948,-33.7779C102.842,-38.2671 132.227,-44.5469 158,-50.5063 164.038,-51.9024 170.452,-53.4427 176.647,-54.9601"/>
<polygon fill="#9a32cd" stroke="#9a32cd" points="82.0584,-30.341 71.5546,-31.7271 80.6302,-37.1938 82.0584,-30.341"/>
<text text-anchor="middle" x="138" y="-53.1063" font-family="Helvetica,sans-Serif" font-size="8.00"> myFlavour</text>
</g>
<!-- Node10&#45;&gt;Node4 -->
<g id="edge11" class="edge"><title>Node10&#45;&gt;Node4</title>
<path fill="none" stroke="#9a32cd" stroke-dasharray="5,2" d="M495.5,-73.2362C434.66,-73.4797 343.908,-72.8865 265,-68.5063 259.241,-68.1866 253.137,-67.7214 247.206,-67.2017"/>
<polygon fill="#9a32cd" stroke="#9a32cd" points="495.768,-76.735 505.75,-73.1861 495.733,-69.7351 495.768,-76.735"/>
<text text-anchor="middle" x="389" y="-76.1063" font-family="Helvetica,sans-Serif" font-size="8.00"> myApproximateFormulae</text>
</g>
</g>
</svg>
