<?xml version="1.0" encoding="UTF-8" standalone="no"?>
<!DOCTYPE svg PUBLIC "-//W3C//DTD SVG 1.1//EN"
 "http://www.w3.org/Graphics/SVG/1.1/DTD/svg11.dtd">
<!-- Generated by graphviz version 2.40.1 (20161225.0304)
 -->
<!-- Title: Hobs_gg_phi2_Zga_qqga_ATLAS13 Pages: 1 -->
<svg width="479pt" height="297pt"
 viewBox="0.00 0.00 479.00 297.00" xmlns="http://www.w3.org/2000/svg" xmlns:xlink="http://www.w3.org/1999/xlink">
<g id="graph0" class="graph" transform="scale(1 1) rotate(0) translate(4 293)">
<title>Hobs_gg_phi2_Zga_qqga_ATLAS13</title>
<!-- Node2 -->
<g id="node1" class="node">
<title>Node2</title>
<polygon fill="#bfbfbf" stroke="#000000" points="0,-.5 0,-26.5 109,-26.5 109,-.5 0,-.5"/>
<text text-anchor="start" x="8" y="-16.1" font-family="Helvetica,sans-Serif" font-size="8.00" fill="#000000">Hobs_gg_phi2_Zga_qqga</text>
<text text-anchor="middle" x="54.5" y="-7.1" font-family="Helvetica,sans-Serif" font-size="8.00" fill="#000000">_ATLAS13</text>
</g>
<!-- Node3 -->
<g id="node2" class="node">
<title>Node3</title>
<g id="a_node2"><a xlink:href="../../dc/d1f/class_th_observable.html" target="_top" xlink:title="A class for a model prediction of an observable. ">
<polygon fill="none" stroke="#000000" points="5,-108.5 5,-125.5 72,-125.5 72,-108.5 5,-108.5"/>
<text text-anchor="middle" x="38.5" y="-115.1" font-family="Helvetica,sans-Serif" font-size="8.00" fill="#000000">ThObservable</text>
</a>
</g>
</g>
<!-- Node3&#45;&gt;Node2 -->
<g id="edge1" class="edge">
<title>Node3&#45;&gt;Node2</title>
<path fill="none" stroke="#191970" d="M41.4228,-98.0934C44.6152,-77.4421 49.6462,-44.8979 52.4461,-26.7859"/>
<polygon fill="#191970" stroke="#191970" points="37.9331,-97.7583 39.8642,-108.1756 44.8509,-98.8278 37.9331,-97.7583"/>
</g>
<!-- Node4 -->
<g id="node3" class="node">
<title>Node4</title>
<g id="a_node3"><a xlink:href="../../dc/dd5/class_standard_model.html" target="_top" xlink:title="A model class for the Standard Model. ">
<polygon fill="none" stroke="#ff0000" points="251,-216.5 251,-233.5 322,-233.5 322,-216.5 251,-216.5"/>
<text text-anchor="middle" x="286.5" y="-223.1" font-family="Helvetica,sans-Serif" font-size="8.00" fill="#000000">StandardModel</text>
</a>
</g>
</g>
<!-- Node4&#45;&gt;Node3 -->
<g id="edge2" class="edge">
<title>Node4&#45;&gt;Node3</title>
<path fill="none" stroke="#9a32cd" stroke-dasharray="5,2" d="M240.6832,-219.4413C181.8524,-211.4387 84.1559,-194.9522 57.5,-171 44.3415,-159.1762 40.2958,-137.6881 39.052,-125.6914"/>
<polygon fill="#9a32cd" stroke="#9a32cd" points="240.4619,-222.9425 250.8359,-220.7907 241.3843,-216.0036 240.4619,-222.9425"/>
<text text-anchor="middle" x="128" y="-191.6" font-family="Helvetica,sans-Serif" font-size="8.00" fill="#000000"> SM</text>
</g>
<!-- Node9 -->
<g id="node6" class="node">
<title>Node9</title>
<g id="a_node6"><a xlink:href="../../dc/df3/class_e_w_s_mcache.html" target="_top" xlink:title="A class for cache variables used in computing radiative corrections to the EW precision observables...">
<polygon fill="none" stroke="#ff0000" points="408,-149 408,-166 471,-166 471,-149 408,-149"/>
<text text-anchor="middle" x="439.5" y="-155.6" font-family="Helvetica,sans-Serif" font-size="8.00" fill="#000000">EWSMcache</text>
</a>
</g>
</g>
<!-- Node4&#45;&gt;Node9 -->
<g id="edge6" class="edge">
<title>Node4&#45;&gt;Node9</title>
<path fill="none" stroke="#9a32cd" stroke-dasharray="5,2" d="M315.146,-212.362C345.6807,-198.8909 393.213,-177.9207 419.7965,-166.1927"/>
<polygon fill="#9a32cd" stroke="#9a32cd" points="313.614,-209.2124 305.8776,-216.4511 316.4395,-215.6168 313.614,-209.2124"/>
<text text-anchor="middle" x="375" y="-191.6" font-family="Helvetica,sans-Serif" font-size="8.00" fill="#000000"> SM</text>
</g>
<!-- Node48 -->
<g id="node8" class="node">
<title>Node48</title>
<g id="a_node8"><a xlink:href="../../d2/df3/class_n_pbase.html" target="_top" xlink:title="The auxiliary base model class for other model classes. ">
<polygon fill="none" stroke="#000000" points="227,-149 227,-166 272,-166 272,-149 227,-149"/>
<text text-anchor="middle" x="249.5" y="-155.6" font-family="Helvetica,sans-Serif" font-size="8.00" fill="#000000">NPbase</text>
</a>
</g>
</g>
<!-- Node4&#45;&gt;Node48 -->
<g id="edge10" class="edge">
<title>Node4&#45;&gt;Node48</title>
<path fill="none" stroke="#191970" d="M256.9868,-210.8791C252.3692,-207.3354 248.2289,-203.0645 245.5,-198 240.1376,-188.048 243.0407,-174.7157 245.9721,-166.116"/>
<polygon fill="#191970" stroke="#191970" points="255.3206,-213.9705 265.6124,-216.4867 259.136,-208.1017 255.3206,-213.9705"/>
</g>
<!-- Node4&#45;&gt;Node48 -->
<g id="edge11" class="edge">
<title>Node4&#45;&gt;Node48</title>
<path fill="none" stroke="#9a32cd" stroke-dasharray="5,2" d="M272.3965,-208.3772C269.9217,-205.0561 267.5017,-201.5071 265.5,-198 259.5789,-187.6259 254.8719,-174.6301 252.1359,-166.2004"/>
<polygon fill="#9a32cd" stroke="#9a32cd" points="269.8586,-210.8087 278.8259,-216.4512 275.3345,-206.4481 269.8586,-210.8087"/>
<text text-anchor="middle" x="280" y="-191.6" font-family="Helvetica,sans-Serif" font-size="8.00" fill="#000000"> trueSM</text>
</g>
<!-- Node5 -->
<g id="node4" class="node">
<title>Node5</title>
<g id="a_node4"><a xlink:href="../../dd/dfa/class_q_c_d.html" target="_top" xlink:title="A class for parameters related to QCD, hadrons and quarks. ">
<polygon fill="none" stroke="#ff0000" points="269.5,-271.5 269.5,-288.5 303.5,-288.5 303.5,-271.5 269.5,-271.5"/>
<text text-anchor="middle" x="286.5" y="-278.1" font-family="Helvetica,sans-Serif" font-size="8.00" fill="#000000">QCD</text>
</a>
</g>
</g>
<!-- Node5&#45;&gt;Node4 -->
<g id="edge3" class="edge">
<title>Node5&#45;&gt;Node4</title>
<path fill="none" stroke="#191970" d="M286.5,-261.1166C286.5,-251.8173 286.5,-241.0557 286.5,-233.7149"/>
<polygon fill="#191970" stroke="#191970" points="283.0001,-261.4062 286.5,-271.4063 290.0001,-261.4063 283.0001,-261.4062"/>
</g>
<!-- Node8 -->
<g id="node5" class="node">
<title>Node8</title>
<g id="a_node5"><a xlink:href="../../db/d32/class_e_w_s_m_two_fermions_l_e_p2.html" target="_top" xlink:title="A class for the form factors , &#160;and &#160;in the processes &#160;at LEP&#45;II. ">
<polygon fill="none" stroke="#ff0000" points="295,-72.5 295,-89.5 404,-89.5 404,-72.5 295,-72.5"/>
<text text-anchor="middle" x="349.5" y="-79.1" font-family="Helvetica,sans-Serif" font-size="8.00" fill="#000000">EWSMTwoFermionsLEP2</text>
</a>
</g>
</g>
<!-- Node8&#45;&gt;Node4 -->
<g id="edge4" class="edge">
<title>Node8&#45;&gt;Node4</title>
<path fill="none" stroke="#9a32cd" stroke-dasharray="5,2" d="M340.2739,-98.7744C333.8934,-111.2955 325.3528,-128.5203 318.5,-144 306.9932,-169.9927 295.1292,-201.4925 289.6383,-216.3928"/>
<polygon fill="#9a32cd" stroke="#9a32cd" points="343.3951,-100.3582 344.8544,-89.8644 337.1695,-97.1578 343.3951,-100.3582"/>
<text text-anchor="middle" x="359" y="-155.6" font-family="Helvetica,sans-Serif" font-size="8.00" fill="#000000"> myTwoFermionsLEP2</text>
</g>
<!-- Node9&#45;&gt;Node4 -->
<g id="edge7" class="edge">
<title>Node9&#45;&gt;Node4</title>
<path fill="none" stroke="#9a32cd" stroke-dasharray="5,2" d="M422.701,-173.0638C412.8051,-181.5023 399.6744,-191.5038 386.5,-198 366.3392,-207.9411 342.0248,-214.6114 322.4198,-218.8349"/>
<polygon fill="#9a32cd" stroke="#9a32cd" points="425.3138,-175.4255 430.4846,-166.1781 420.6757,-170.1826 425.3138,-175.4255"/>
<text text-anchor="middle" x="430.5" y="-191.6" font-family="Helvetica,sans-Serif" font-size="8.00" fill="#000000"> myEWSMcache</text>
</g>
<!-- Node9&#45;&gt;Node8 -->
<g id="edge5" class="edge">
<title>Node9&#45;&gt;Node8</title>
<path fill="none" stroke="#9a32cd" stroke-dasharray="5,2" d="M421.4162,-142.1288C402.8726,-126.3667 374.6883,-102.4101 359.7037,-89.6732"/>
<polygon fill="#9a32cd" stroke="#9a32cd" points="419.2897,-144.9148 429.1759,-148.7245 423.8232,-139.5812 419.2897,-144.9148"/>
<text text-anchor="middle" x="411.5" y="-115.1" font-family="Helvetica,sans-Serif" font-size="8.00" fill="#000000"> cache</text>
</g>
<!-- Node47 -->
<g id="node7" class="node">
<title>Node47</title>
<g id="a_node7"><a xlink:href="../../d3/d55/class_general_t_h_d_m.html" target="_top" xlink:title="A base class for generic Two&#45;Higgs&#45;Doublet models. ">
<polygon fill="none" stroke="#000000" points="103.5,-72.5 103.5,-89.5 171.5,-89.5 171.5,-72.5 103.5,-72.5"/>
<text text-anchor="middle" x="137.5" y="-79.1" font-family="Helvetica,sans-Serif" font-size="8.00" fill="#000000">GeneralTHDM</text>
</a>
</g>
</g>
<!-- Node47&#45;&gt;Node2 -->
<g id="edge8" class="edge">
<title>Node47&#45;&gt;Node2</title>
<path fill="none" stroke="#9a32cd" stroke-dasharray="5,2" d="M106.8241,-67.9048C99.4393,-64.0091 91.8553,-59.3335 85.5,-54 76.2757,-46.2587 68.1032,-35.3124 62.4683,-26.7512"/>
<polygon fill="#9a32cd" stroke="#9a32cd" points="105.4474,-71.1283 115.964,-72.4128 108.5438,-64.8503 105.4474,-71.1283"/>
<text text-anchor="middle" x="107" y="-47.6" font-family="Helvetica,sans-Serif" font-size="8.00" fill="#000000"> myGTHDM</text>
</g>
<!-- Node51 -->
<g id="node10" class="node">
<title>Node51</title>
<g id="a_node10"><a xlink:href="../../dc/dfd/class_general_t_h_d_mcache.html" target="_top" xlink:title="GeneralTHDMcache">
<polygon fill="none" stroke="#ff0000" points="143,-5 143,-22 232,-22 232,-5 143,-5"/>
<text text-anchor="middle" x="187.5" y="-11.6" font-family="Helvetica,sans-Serif" font-size="8.00" fill="#000000">GeneralTHDMcache</text>
</a>
</g>
</g>
<!-- Node47&#45;&gt;Node51 -->
<g id="edge14" class="edge">
<title>Node47&#45;&gt;Node51</title>
<path fill="none" stroke="#9a32cd" stroke-dasharray="5,2" d="M131.9661,-62.5694C131.1985,-56.6371 131.5149,-50.2467 134.5,-45 140.5343,-34.394 151.7043,-26.9875 162.2395,-22.034"/>
<polygon fill="#9a32cd" stroke="#9a32cd" points="128.5693,-63.4173 134.1761,-72.407 135.399,-61.883 128.5693,-63.4173"/>
<text text-anchor="middle" x="156" y="-47.6" font-family="Helvetica,sans-Serif" font-size="8.00" fill="#000000"> myGTHDM</text>
</g>
<!-- Node48&#45;&gt;Node47 -->
<g id="edge9" class="edge">
<title>Node48&#45;&gt;Node47</title>
<path fill="none" stroke="#191970" d="M229.7437,-142.8345C216.069,-132.8057 197.3658,-119.3291 180.5,-108 170.9875,-101.6102 160.0475,-94.7475 151.5829,-89.5399"/>
<polygon fill="#191970" stroke="#191970" points="227.8072,-145.7551 237.9339,-148.8697 231.9597,-140.1198 227.8072,-145.7551"/>
</g>
<!-- Node49 -->
<g id="node9" class="node">
<title>Node49</title>
<g id="a_node9"><a xlink:href="../../d5/d76/class_matching.html" target="_top" xlink:title="Matching\&lt; GeneralTHDMMatching,\l GeneralTHDM \&gt;">
<polygon fill="none" stroke="#ff0000" points="66.5,-144.5 66.5,-170.5 208.5,-170.5 208.5,-144.5 66.5,-144.5"/>
<text text-anchor="start" x="74.5" y="-160.1" font-family="Helvetica,sans-Serif" font-size="8.00" fill="#000000">Matching&lt; GeneralTHDMMatching,</text>
<text text-anchor="middle" x="137.5" y="-151.1" font-family="Helvetica,sans-Serif" font-size="8.00" fill="#000000"> GeneralTHDM &gt;</text>
</a>
</g>
</g>
<!-- Node49&#45;&gt;Node47 -->
<g id="edge12" class="edge">
<title>Node49&#45;&gt;Node47</title>
<path fill="none" stroke="#9a32cd" stroke-dasharray="5,2" d="M137.5,-134.0882C137.5,-119.1453 137.5,-100.6269 137.5,-89.8783"/>
<polygon fill="#9a32cd" stroke="#9a32cd" points="134.0001,-134.1747 137.5,-144.1747 141.0001,-134.1748 134.0001,-134.1747"/>
<text text-anchor="middle" x="157" y="-115.1" font-family="Helvetica,sans-Serif" font-size="8.00" fill="#000000"> GTHDMM</text>
</g>
<!-- Node51&#45;&gt;Node47 -->
<g id="edge13" class="edge">
<title>Node51&#45;&gt;Node47</title>
<path fill="none" stroke="#9a32cd" stroke-dasharray="5,2" d="M188.0156,-32.3928C187.4033,-39.6512 185.6624,-47.6984 181.5,-54 176.1652,-62.0766 167.5005,-68.1439 159.2651,-72.4599"/>
<polygon fill="#9a32cd" stroke="#9a32cd" points="191.5165,-32.3884 188.2459,-22.3111 184.5184,-32.2285 191.5165,-32.3884"/>
<text text-anchor="middle" x="218.5" y="-47.6" font-family="Helvetica,sans-Serif" font-size="8.00" fill="#000000"> myGTHDMcache</text>
</g>
</g>
</svg>
