<?xml version="1.0" encoding="UTF-8" standalone="no"?>
<!DOCTYPE svg PUBLIC "-//W3C//DTD SVG 1.1//EN"
 "http://www.w3.org/Graphics/SVG/1.1/DTD/svg11.dtd">
<!-- Generated by graphviz version 2.40.1 (20161225.0304)
 -->
<!-- Title: BXqll Pages: 1 -->
<svg width="694pt" height="403pt"
 viewBox="0.00 0.00 694.00 402.50" xmlns="http://www.w3.org/2000/svg" xmlns:xlink="http://www.w3.org/1999/xlink">
<g id="graph0" class="graph" transform="scale(1 1) rotate(0) translate(4 398.5)">
<title>BXqll</title>
<!-- Node1 -->
<g id="node1" class="node">
<title>Node1</title>
<polygon fill="#bfbfbf" stroke="#000000" points="651,-119 651,-136 686,-136 686,-119 651,-119"/>
<text text-anchor="middle" x="668.5" y="-125.6" font-family="Helvetica,sans-Serif" font-size="8.00" fill="#000000">BXqll</text>
</g>
<!-- Node2 -->
<g id="node2" class="node">
<title>Node2</title>
<g id="a_node2"><a xlink:href="../../dd/d59/classgslpp_1_1vector.html" target="_top" xlink:title="gslpp::vector\&lt; gslpp\l::complex \&gt;">
<polygon fill="none" stroke="#000000" points="187,-131.5 187,-157.5 275,-157.5 275,-131.5 187,-131.5"/>
<text text-anchor="start" x="195" y="-147.1" font-family="Helvetica,sans-Serif" font-size="8.00" fill="#000000">gslpp::vector&lt; gslpp</text>
<text text-anchor="middle" x="231" y="-138.1" font-family="Helvetica,sans-Serif" font-size="8.00" fill="#000000">::complex &gt;</text>
</a>
</g>
</g>
<!-- Node2&#45;&gt;Node1 -->
<g id="edge1" class="edge">
<title>Node2&#45;&gt;Node1</title>
<path fill="none" stroke="#9a32cd" stroke-dasharray="5,2" d="M285.4679,-142.3835C384.5576,-138.5332 589.7303,-130.5608 650.9109,-128.1835"/>
<polygon fill="#9a32cd" stroke="#9a32cd" points="285.214,-138.8907 275.3575,-142.7764 285.4859,-145.8854 285.214,-138.8907"/>
<text text-anchor="middle" x="425" y="-159.1" font-family="Helvetica,sans-Serif" font-size="8.00" fill="#000000"> allcoeff</text>
<text text-anchor="middle" x="425" y="-150.1" font-family="Helvetica,sans-Serif" font-size="8.00" fill="#000000">allcoeff_smm</text>
<text text-anchor="middle" x="425" y="-141.1" font-family="Helvetica,sans-Serif" font-size="8.00" fill="#000000">allcoeffprime</text>
</g>
<!-- Node5 -->
<g id="node5" class="node">
<title>Node5</title>
<g id="a_node5"><a xlink:href="../../dd/d88/class_evol_d_f1.html" target="_top" xlink:title="EvolDF1">
<polygon fill="none" stroke="#ff0000" points="336,-159 336,-176 383,-176 383,-159 336,-159"/>
<text text-anchor="middle" x="359.5" y="-165.6" font-family="Helvetica,sans-Serif" font-size="8.00" fill="#000000">EvolDF1</text>
</a>
</g>
</g>
<!-- Node2&#45;&gt;Node5 -->
<g id="edge5" class="edge">
<title>Node2&#45;&gt;Node5</title>
<path fill="none" stroke="#9a32cd" stroke-dasharray="5,2" d="M285.4262,-154.2416C303.024,-157.3915 321.6288,-160.7215 335.7907,-163.2563"/>
<polygon fill="#9a32cd" stroke="#9a32cd" points="285.6827,-150.732 275.2224,-152.4153 284.4493,-157.6225 285.6827,-150.732"/>
<text text-anchor="middle" x="305.5" y="-163.1" font-family="Helvetica,sans-Serif" font-size="8.00" fill="#000000"> evalc</text>
</g>
<!-- Node3 -->
<g id="node3" class="node">
<title>Node3</title>
<g id="a_node3"><a xlink:href="../../dd/d59/classgslpp_1_1vector.html" target="_top" xlink:title="A base class for defining operations on vectors, both real and complex. ">
<polygon fill="none" stroke="#000000" points="0,-136 0,-153 81,-153 81,-136 0,-136"/>
<text text-anchor="middle" x="40.5" y="-142.6" font-family="Helvetica,sans-Serif" font-size="8.00" fill="#000000">gslpp::vector&lt; T &gt;</text>
</a>
</g>
</g>
<!-- Node3&#45;&gt;Node2 -->
<g id="edge2" class="edge">
<title>Node3&#45;&gt;Node2</title>
<path fill="none" stroke="#ffa500" stroke-dasharray="5,2" d="M91.5517,-144.5C121.2904,-144.5 158.4148,-144.5 186.8803,-144.5"/>
<polygon fill="#ffa500" stroke="#ffa500" points="91.3671,-141.0001 81.367,-144.5 91.367,-148.0001 91.3671,-141.0001"/>
<text text-anchor="middle" x="134" y="-147.1" font-family="Helvetica,sans-Serif" font-size="8.00" fill="#000000"> &lt; gslpp::complex &gt;</text>
</g>
<!-- Node4 -->
<g id="node4" class="node">
<title>Node4</title>
<g id="a_node4"><a xlink:href="../../d0/d49/class_heff_d_f1.html" target="_top" xlink:title="HeffDF1">
<polygon fill="none" stroke="#ff0000" points="496.5,-169 496.5,-186 542.5,-186 542.5,-169 496.5,-169"/>
<text text-anchor="middle" x="519.5" y="-175.6" font-family="Helvetica,sans-Serif" font-size="8.00" fill="#000000">HeffDF1</text>
</a>
</g>
</g>
<!-- Node4&#45;&gt;Node1 -->
<g id="edge3" class="edge">
<title>Node4&#45;&gt;Node1</title>
<path fill="none" stroke="#9a32cd" stroke-dasharray="5,2" d="M552.5372,-167.6752C575.2893,-160.7496 606.1414,-151.043 633,-141.5 638.8682,-139.415 645.2133,-136.9736 650.8939,-134.7186"/>
<polygon fill="#9a32cd" stroke="#9a32cd" points="551.2557,-164.4061 542.6969,-170.651 553.2819,-171.1064 551.2557,-164.4061"/>
<text text-anchor="middle" x="611.5" y="-158.1" font-family="Helvetica,sans-Serif" font-size="8.00" fill="#000000"> myHeff</text>
</g>
<!-- Node5&#45;&gt;Node4 -->
<g id="edge4" class="edge">
<title>Node5&#45;&gt;Node4</title>
<path fill="none" stroke="#9a32cd" stroke-dasharray="5,2" d="M393.4217,-169.6201C424.3722,-171.5545 469.2843,-174.3615 496.3148,-176.0509"/>
<polygon fill="#9a32cd" stroke="#9a32cd" points="393.3074,-166.1062 383.1086,-168.9755 392.8707,-173.0926 393.3074,-166.1062"/>
<text text-anchor="middle" x="425" y="-176.1" font-family="Helvetica,sans-Serif" font-size="8.00" fill="#000000"> evolDF1</text>
</g>
<!-- Node15 -->
<g id="node6" class="node">
<title>Node15</title>
<g id="a_node6"><a xlink:href="../../dc/dd5/class_standard_model.html" target="_top" xlink:title="A model class for the Standard Model. ">
<polygon fill="none" stroke="#ff0000" points="195.5,-224 195.5,-241 266.5,-241 266.5,-224 195.5,-224"/>
<text text-anchor="middle" x="231" y="-230.6" font-family="Helvetica,sans-Serif" font-size="8.00" fill="#000000">StandardModel</text>
</a>
</g>
</g>
<!-- Node15&#45;&gt;Node1 -->
<g id="edge13" class="edge">
<title>Node15&#45;&gt;Node1</title>
<path fill="none" stroke="#9a32cd" stroke-dasharray="5,2" d="M276.9174,-233.5506C290.1841,-233.5697 304.6767,-233.3168 318,-232.5 385.4771,-228.3632 550.4765,-201.7936 572,-195.5 600.4565,-187.1791 609.1652,-186.1328 633,-168.5 645.4137,-159.3164 656.4916,-145.0729 662.8505,-136.0214"/>
<polygon fill="#9a32cd" stroke="#9a32cd" points="276.6091,-230.0486 266.5862,-233.4826 276.563,-237.0484 276.6091,-230.0486"/>
<text text-anchor="middle" x="425" y="-225.1" font-family="Helvetica,sans-Serif" font-size="8.00" fill="#000000"> mySM</text>
</g>
<!-- Node15&#45;&gt;Node4 -->
<g id="edge8" class="edge">
<title>Node15&#45;&gt;Node4</title>
<path fill="none" stroke="#9a32cd" stroke-dasharray="5,2" d="M276.6351,-223.8001C339.0776,-211.896 448.8129,-190.9759 496.4022,-181.9034"/>
<polygon fill="#9a32cd" stroke="#9a32cd" points="275.8327,-220.3899 266.6651,-225.7008 277.1437,-227.2661 275.8327,-220.3899"/>
<text text-anchor="middle" x="359.5" y="-214.1" font-family="Helvetica,sans-Serif" font-size="8.00" fill="#000000"> model</text>
</g>
<!-- Node15&#45;&gt;Node5 -->
<g id="edge6" class="edge">
<title>Node15&#45;&gt;Node5</title>
<path fill="none" stroke="#9a32cd" stroke-dasharray="5,2" d="M252.0329,-217.8759C263.7721,-210.0741 278.8446,-200.6389 293,-193.5 306.8354,-186.5225 323.0145,-180.1601 335.9499,-175.4757"/>
<polygon fill="#9a32cd" stroke="#9a32cd" points="249.7351,-215.2047 243.4142,-223.7075 253.6579,-221.0023 249.7351,-215.2047"/>
<text text-anchor="middle" x="305.5" y="-196.1" font-family="Helvetica,sans-Serif" font-size="8.00" fill="#000000"> model</text>
</g>
<!-- Node32 -->
<g id="node7" class="node">
<title>Node32</title>
<g id="a_node7"><a xlink:href="../../dd/d9b/classgslpp_1_1complex.html" target="_top" xlink:title="A class for defining operations on and functions of complex numbers. ">
<polygon fill="none" stroke="#000000" points="5.5,-275 5.5,-292 75.5,-292 75.5,-275 5.5,-275"/>
<text text-anchor="middle" x="40.5" y="-281.6" font-family="Helvetica,sans-Serif" font-size="8.00" fill="#000000">gslpp::complex</text>
</a>
</g>
</g>
<!-- Node32&#45;&gt;Node1 -->
<g id="edge12" class="edge">
<title>Node32&#45;&gt;Node1</title>
<path fill="none" stroke="#9a32cd" stroke-dasharray="5,2" d="M85.9407,-287.9748C124.5039,-291.3853 181.3234,-295.5 231,-295.5 231,-295.5 231,-295.5 519.5,-295.5 605.6574,-295.5 654.1016,-170.2972 665.7376,-136.0621"/>
<polygon fill="#9a32cd" stroke="#9a32cd" points="85.844,-284.4518 75.5691,-287.0355 85.2126,-291.4232 85.844,-284.4518"/>
<text text-anchor="middle" x="359.5" y="-388.1" font-family="Helvetica,sans-Serif" font-size="8.00" fill="#000000"> C_10p</text>
<text text-anchor="middle" x="359.5" y="-379.1" font-family="Helvetica,sans-Serif" font-size="8.00" fill="#000000">C_7p</text>
<text text-anchor="middle" x="359.5" y="-370.1" font-family="Helvetica,sans-Serif" font-size="8.00" fill="#000000">C_P</text>
<text text-anchor="middle" x="359.5" y="-361.1" font-family="Helvetica,sans-Serif" font-size="8.00" fill="#000000">C_S</text>
<text text-anchor="middle" x="359.5" y="-352.1" font-family="Helvetica,sans-Serif" font-size="8.00" fill="#000000">C_1</text>
<text text-anchor="middle" x="359.5" y="-343.1" font-family="Helvetica,sans-Serif" font-size="8.00" fill="#000000">C_2L_bar</text>
<text text-anchor="middle" x="359.5" y="-334.1" font-family="Helvetica,sans-Serif" font-size="8.00" fill="#000000">C_2</text>
<text text-anchor="middle" x="359.5" y="-325.1" font-family="Helvetica,sans-Serif" font-size="8.00" fill="#000000">C_Sp</text>
<text text-anchor="middle" x="359.5" y="-316.1" font-family="Helvetica,sans-Serif" font-size="8.00" fill="#000000">C_3</text>
<text text-anchor="middle" x="359.5" y="-307.1" font-family="Helvetica,sans-Serif" font-size="8.00" fill="#000000">C_1L_bar</text>
<text text-anchor="middle" x="359.5" y="-298.1" font-family="Helvetica,sans-Serif" font-size="8.00" fill="#000000">...</text>
</g>
<!-- Node32&#45;&gt;Node15 -->
<g id="edge7" class="edge">
<title>Node32&#45;&gt;Node15</title>
<path fill="none" stroke="#9a32cd" stroke-dasharray="5,2" d="M73.1351,-271.7065C81.5134,-268.8545 90.5479,-265.9308 99,-263.5 131.351,-254.1957 168.7475,-245.6132 195.4582,-239.8493"/>
<polygon fill="#9a32cd" stroke="#9a32cd" points="71.9762,-268.4038 63.6754,-274.9877 74.2702,-275.0173 71.9762,-268.4038"/>
<text text-anchor="middle" x="134" y="-275.1" font-family="Helvetica,sans-Serif" font-size="8.00" fill="#000000"> rhoZ_f_cache</text>
<text text-anchor="middle" x="134" y="-266.1" font-family="Helvetica,sans-Serif" font-size="8.00" fill="#000000">kappaZ_f_cache</text>
</g>
<!-- Node52 -->
<g id="node8" class="node">
<title>Node52</title>
<g id="a_node8"><a xlink:href="../../d6/d2d/class_f__1.html" target="_top" xlink:title="F_1">
<polygon fill="none" stroke="#000000" points="504.5,-82 504.5,-99 534.5,-99 534.5,-82 504.5,-82"/>
<text text-anchor="middle" x="519.5" y="-88.6" font-family="Helvetica,sans-Serif" font-size="8.00" fill="#000000">F_1</text>
</a>
</g>
</g>
<!-- Node52&#45;&gt;Node1 -->
<g id="edge9" class="edge">
<title>Node52&#45;&gt;Node1</title>
<path fill="none" stroke="#9a32cd" stroke-dasharray="5,2" d="M544.8777,-90.4016C568.3924,-91.0538 604.0063,-93.9556 633,-104.5 642.1099,-107.8131 651.2636,-113.8245 657.9938,-118.8708"/>
<polygon fill="#9a32cd" stroke="#9a32cd" points="544.7447,-86.8991 534.6903,-90.2395 544.6333,-93.8982 544.7447,-86.8991"/>
<text text-anchor="middle" x="611.5" y="-107.1" font-family="Helvetica,sans-Serif" font-size="8.00" fill="#000000"> myF_1</text>
</g>
<!-- Node53 -->
<g id="node9" class="node">
<title>Node53</title>
<g id="a_node9"><a xlink:href="../../d8/d52/class_f__2.html" target="_top" xlink:title="F_2">
<polygon fill="none" stroke="#000000" points="504.5,-46 504.5,-63 534.5,-63 534.5,-46 504.5,-46"/>
<text text-anchor="middle" x="519.5" y="-52.6" font-family="Helvetica,sans-Serif" font-size="8.00" fill="#000000">F_2</text>
</a>
</g>
</g>
<!-- Node53&#45;&gt;Node1 -->
<g id="edge10" class="edge">
<title>Node53&#45;&gt;Node1</title>
<path fill="none" stroke="#9a32cd" stroke-dasharray="5,2" d="M544.9255,-55.7139C569.2646,-57.9338 606.1476,-64.1542 633,-81.5 647.5746,-90.9147 658.5898,-108.4435 664.2494,-118.9332"/>
<polygon fill="#9a32cd" stroke="#9a32cd" points="544.9395,-52.2053 534.7064,-54.9498 544.4176,-59.1858 544.9395,-52.2053"/>
<text text-anchor="middle" x="611.5" y="-84.1" font-family="Helvetica,sans-Serif" font-size="8.00" fill="#000000"> myF_2</text>
</g>
<!-- Node31 -->
<g id="node10" class="node">
<title>Node31</title>
<g id="a_node10"><a xlink:href="../../d4/d4b/class_expanded.html" target="_top" xlink:title="Expanded\&lt; gslpp::vector\l\&lt; gslpp::complex \&gt; \&gt;">
<polygon fill="none" stroke="#ff0000" points="467,-.5 467,-26.5 572,-26.5 572,-.5 467,-.5"/>
<text text-anchor="start" x="475" y="-16.1" font-family="Helvetica,sans-Serif" font-size="8.00" fill="#000000">Expanded&lt; gslpp::vector</text>
<text text-anchor="middle" x="519.5" y="-7.1" font-family="Helvetica,sans-Serif" font-size="8.00" fill="#000000">&lt; gslpp::complex &gt; &gt;</text>
</a>
</g>
</g>
<!-- Node31&#45;&gt;Node1 -->
<g id="edge11" class="edge">
<title>Node31&#45;&gt;Node1</title>
<path fill="none" stroke="#9a32cd" stroke-dasharray="5,2" d="M581.7637,-24.5627C599.9032,-30.2135 618.6731,-38.7188 633,-51.5 653.756,-70.0167 663.3015,-103.2089 666.8106,-118.8705"/>
<polygon fill="#9a32cd" stroke="#9a32cd" points="582.6513,-21.1762 572.074,-21.7842 580.7219,-27.905 582.6513,-21.1762"/>
<text text-anchor="middle" x="611.5" y="-54.1" font-family="Helvetica,sans-Serif" font-size="8.00" fill="#000000"> allcoeffDF1</text>
</g>
</g>
</svg>
