<?xml version="1.0" encoding="UTF-8" standalone="no"?>
<!DOCTYPE svg PUBLIC "-//W3C//DTD SVG 1.1//EN"
 "http://www.w3.org/Graphics/SVG/1.1/DTD/svg11.dtd">
<!-- Generated by graphviz version 2.38.0 (20140413.2041)
 -->
<!-- Title: SUSYMassInsertionMatching.cpp Pages: 1 -->
<svg width="373pt" height="350pt"
 viewBox="0.00 0.00 373.32 350.00" xmlns="http://www.w3.org/2000/svg" xmlns:xlink="http://www.w3.org/1999/xlink">
<g id="graph0" class="graph" transform="scale(1 1) rotate(0) translate(4 346)">
<title>SUSYMassInsertionMatching.cpp</title>
<!-- Node1 -->
<g id="node1" class="node"><title>Node1</title>
<polygon fill="#bfbfbf" stroke="black" points="134.824,-324.5 134.824,-341.5 270.824,-341.5 270.824,-324.5 134.824,-324.5"/>
<text text-anchor="middle" x="202.824" y="-331.1" font-family="Helvetica,sans-Serif" font-size="8.00">SUSYMassInsertionMatching.cpp</text>
</g>
<!-- Node2 -->
<g id="node2" class="node"><title>Node2</title>
<g id="a_node2"><a xlink:href="../../d9/d9d/_s_u_s_y_mass_insertion_matching_8h.html" target="_top" xlink:title="SUSYMassInsertionMatching.h">
<polygon fill="none" stroke="black" points="74.3243,-216.5 74.3243,-233.5 201.324,-233.5 201.324,-216.5 74.3243,-216.5"/>
<text text-anchor="middle" x="137.824" y="-223.1" font-family="Helvetica,sans-Serif" font-size="8.00">SUSYMassInsertionMatching.h</text>
</a>
</g>
</g>
<!-- Node1&#45;&gt;Node2 -->
<g id="edge1" class="edge"><title>Node1&#45;&gt;Node2</title>
<path fill="none" stroke="midnightblue" d="M198.15,-324.377C187.656,-307.264 162.033,-265.478 147.788,-242.248"/>
<polygon fill="midnightblue" stroke="midnightblue" points="150.668,-240.249 142.457,-233.554 144.7,-243.909 150.668,-240.249"/>
</g>
<!-- Node9 -->
<g id="node9" class="node"><title>Node9</title>
<g id="a_node9"><a xlink:href="../../d9/df7/_s_u_s_y_mass_insertion_8h.html" target="_top" xlink:title="SUSYMassInsertion.h">
<polygon fill="none" stroke="black" points="199.324,-270.5 199.324,-287.5 294.324,-287.5 294.324,-270.5 199.324,-270.5"/>
<text text-anchor="middle" x="246.824" y="-277.1" font-family="Helvetica,sans-Serif" font-size="8.00">SUSYMassInsertion.h</text>
</a>
</g>
</g>
<!-- Node1&#45;&gt;Node9 -->
<g id="edge10" class="edge"><title>Node1&#45;&gt;Node9</title>
<path fill="none" stroke="midnightblue" d="M209.317,-324.327C215.686,-316.8 225.583,-305.103 233.612,-295.614"/>
<polygon fill="midnightblue" stroke="midnightblue" points="236.518,-297.599 240.305,-287.704 231.174,-293.077 236.518,-297.599"/>
</g>
<!-- Node3 -->
<g id="node3" class="node"><title>Node3</title>
<g id="a_node3"><a xlink:href="../../d9/d72/gslpp_8h.html" target="_top" xlink:title="gslpp.h">
<polygon fill="none" stroke="red" points="256.824,-108.5 256.824,-125.5 298.824,-125.5 298.824,-108.5 256.824,-108.5"/>
<text text-anchor="middle" x="277.824" y="-115.1" font-family="Helvetica,sans-Serif" font-size="8.00">gslpp.h</text>
</a>
</g>
</g>
<!-- Node2&#45;&gt;Node3 -->
<g id="edge2" class="edge"><title>Node2&#45;&gt;Node3</title>
<path fill="none" stroke="midnightblue" d="M80.495,-216.453C34.5639,-208.062 -18.3654,-191.609 6.82431,-162 37.3244,-126.148 182.067,-119.427 246.62,-118.226"/>
<polygon fill="midnightblue" stroke="midnightblue" points="246.677,-121.726 256.622,-118.073 246.57,-114.727 246.677,-121.726"/>
</g>
<!-- Node6 -->
<g id="node6" class="node"><title>Node6</title>
<polygon fill="none" stroke="#bfbfbf" points="15.8243,-162.5 15.8243,-179.5 93.8243,-179.5 93.8243,-162.5 15.8243,-162.5"/>
<text text-anchor="middle" x="54.8243" y="-169.1" font-family="Helvetica,sans-Serif" font-size="8.00">gsl/gsl_sf_dilog.h</text>
</g>
<!-- Node2&#45;&gt;Node6 -->
<g id="edge6" class="edge"><title>Node2&#45;&gt;Node6</title>
<path fill="none" stroke="midnightblue" d="M125.577,-216.327C112.384,-208.062 91.165,-194.768 75.401,-184.891"/>
<polygon fill="midnightblue" stroke="midnightblue" points="77.1841,-181.878 66.8516,-179.535 73.4677,-187.81 77.1841,-181.878"/>
</g>
<!-- Node7 -->
<g id="node7" class="node"><title>Node7</title>
<polygon fill="none" stroke="#bfbfbf" points="112.324,-162.5 112.324,-179.5 163.324,-179.5 163.324,-162.5 112.324,-162.5"/>
<text text-anchor="middle" x="137.824" y="-169.1" font-family="Helvetica,sans-Serif" font-size="8.00">stdexcept</text>
</g>
<!-- Node2&#45;&gt;Node7 -->
<g id="edge7" class="edge"><title>Node2&#45;&gt;Node7</title>
<path fill="none" stroke="midnightblue" d="M137.824,-216.327C137.824,-209.414 137.824,-198.985 137.824,-189.979"/>
<polygon fill="midnightblue" stroke="midnightblue" points="141.324,-189.704 137.824,-179.704 134.324,-189.704 141.324,-189.704"/>
</g>
<!-- Node8 -->
<g id="node8" class="node"><title>Node8</title>
<g id="a_node8"><a xlink:href="../../d6/d16/_standard_model_matching_8h.html" target="_top" xlink:title="StandardModelMatching.h">
<polygon fill="none" stroke="red" points="181.824,-162.5 181.824,-179.5 291.824,-179.5 291.824,-162.5 181.824,-162.5"/>
<text text-anchor="middle" x="236.824" y="-169.1" font-family="Helvetica,sans-Serif" font-size="8.00">StandardModelMatching.h</text>
</a>
</g>
</g>
<!-- Node2&#45;&gt;Node8 -->
<g id="edge8" class="edge"><title>Node2&#45;&gt;Node8</title>
<path fill="none" stroke="midnightblue" d="M152.432,-216.327C168.536,-207.868 194.666,-194.144 213.588,-184.205"/>
<polygon fill="midnightblue" stroke="midnightblue" points="215.253,-187.284 222.478,-179.535 211.998,-181.087 215.253,-187.284"/>
</g>
<!-- Node4 -->
<g id="node4" class="node"><title>Node4</title>
<g id="a_node4"><a xlink:href="../../d1/dc2/gslpp__complex_8h.html" target="_top" xlink:title="gslpp_complex.h">
<polygon fill="none" stroke="red" points="239.324,-0.5 239.324,-17.5 316.324,-17.5 316.324,-0.5 239.324,-0.5"/>
<text text-anchor="middle" x="277.824" y="-7.1" font-family="Helvetica,sans-Serif" font-size="8.00">gslpp_complex.h</text>
</a>
</g>
</g>
<!-- Node3&#45;&gt;Node4 -->
<g id="edge3" class="edge"><title>Node3&#45;&gt;Node4</title>
<path fill="none" stroke="midnightblue" d="M273.297,-108.214C268.607,-99.6626 261.586,-85.3634 258.824,-72 255.584,-56.3239 261.805,-38.935 267.976,-26.5718"/>
<polygon fill="midnightblue" stroke="midnightblue" points="271.202,-27.9682 272.94,-17.5168 265.064,-24.6033 271.202,-27.9682"/>
</g>
<!-- Node5 -->
<g id="node5" class="node"><title>Node5</title>
<g id="a_node5"><a xlink:href="../../da/d8e/gslpp__vector__double_8h.html" target="_top" xlink:title="gslpp_vector_double.h">
<polygon fill="none" stroke="red" points="268.324,-54.5 268.324,-71.5 365.324,-71.5 365.324,-54.5 268.324,-54.5"/>
<text text-anchor="middle" x="316.824" y="-61.1" font-family="Helvetica,sans-Serif" font-size="8.00">gslpp_vector_double.h</text>
</a>
</g>
</g>
<!-- Node3&#45;&gt;Node5 -->
<g id="edge4" class="edge"><title>Node3&#45;&gt;Node5</title>
<path fill="none" stroke="midnightblue" d="M283.579,-108.327C289.167,-100.877 297.818,-89.3413 304.895,-79.9056"/>
<polygon fill="midnightblue" stroke="midnightblue" points="307.846,-81.8043 311.046,-71.7043 302.246,-77.6043 307.846,-81.8043"/>
</g>
<!-- Node5&#45;&gt;Node4 -->
<g id="edge5" class="edge"><title>Node5&#45;&gt;Node4</title>
<path fill="none" stroke="midnightblue" d="M311.07,-54.3272C305.482,-46.8768 296.83,-35.3413 289.754,-25.9056"/>
<polygon fill="midnightblue" stroke="midnightblue" points="292.403,-23.6043 283.603,-17.7043 286.803,-27.8043 292.403,-23.6043"/>
</g>
<!-- Node8&#45;&gt;Node3 -->
<g id="edge9" class="edge"><title>Node8&#45;&gt;Node3</title>
<path fill="none" stroke="midnightblue" d="M242.874,-162.327C248.809,-154.8 258.032,-143.103 265.513,-133.614"/>
<polygon fill="midnightblue" stroke="midnightblue" points="268.307,-135.724 271.75,-125.704 262.81,-131.39 268.307,-135.724"/>
</g>
<!-- Node9&#45;&gt;Node2 -->
<g id="edge15" class="edge"><title>Node9&#45;&gt;Node2</title>
<path fill="none" stroke="midnightblue" d="M230.741,-270.327C212.848,-261.791 183.715,-247.893 162.839,-237.934"/>
<polygon fill="midnightblue" stroke="midnightblue" points="164.152,-234.682 153.619,-233.535 161.138,-241 164.152,-234.682"/>
</g>
<!-- Node9&#45;&gt;Node3 -->
<g id="edge11" class="edge"><title>Node9&#45;&gt;Node3</title>
<path fill="none" stroke="midnightblue" d="M262.106,-270.414C275.462,-262.979 294.317,-250.384 304.824,-234 318.096,-213.305 314.142,-204.439 316.824,-180 317.697,-172.048 319.662,-169.48 316.824,-162 312.534,-150.69 303.859,-140.423 295.778,-132.657"/>
<polygon fill="midnightblue" stroke="midnightblue" points="297.868,-129.831 288.079,-125.778 293.204,-135.051 297.868,-129.831"/>
</g>
<!-- Node10 -->
<g id="node10" class="node"><title>Node10</title>
<g id="a_node10"><a xlink:href="../../d6/d0a/_standard_model_8h.html" target="_top" xlink:title="StandardModel.h">
<polygon fill="none" stroke="red" points="219.324,-216.5 219.324,-233.5 296.324,-233.5 296.324,-216.5 219.324,-216.5"/>
<text text-anchor="middle" x="257.824" y="-223.1" font-family="Helvetica,sans-Serif" font-size="8.00">StandardModel.h</text>
</a>
</g>
</g>
<!-- Node9&#45;&gt;Node10 -->
<g id="edge12" class="edge"><title>Node9&#45;&gt;Node10</title>
<path fill="none" stroke="midnightblue" d="M248.447,-270.327C249.926,-263.338 252.165,-252.753 254.084,-243.679"/>
<polygon fill="midnightblue" stroke="midnightblue" points="257.549,-244.212 256.195,-233.704 250.701,-242.763 257.549,-244.212"/>
</g>
<!-- Node10&#45;&gt;Node3 -->
<g id="edge13" class="edge"><title>Node10&#45;&gt;Node3</title>
<path fill="none" stroke="midnightblue" d="M269.104,-216.463C279.569,-208.726 294.456,-195.628 300.824,-180 307.169,-164.429 298.727,-146.383 290.34,-133.789"/>
<polygon fill="midnightblue" stroke="midnightblue" points="293.167,-131.726 284.455,-125.696 287.506,-135.842 293.167,-131.726"/>
</g>
<!-- Node10&#45;&gt;Node8 -->
<g id="edge14" class="edge"><title>Node10&#45;&gt;Node8</title>
<path fill="none" stroke="midnightblue" d="M254.726,-216.327C251.841,-209.184 247.44,-198.286 243.723,-189.083"/>
<polygon fill="midnightblue" stroke="midnightblue" points="246.926,-187.666 239.936,-179.704 240.435,-190.287 246.926,-187.666"/>
</g>
</g>
</svg>
