<?xml version="1.0" encoding="UTF-8" standalone="no"?>
<!DOCTYPE svg PUBLIC "-//W3C//DTD SVG 1.1//EN"
 "http://www.w3.org/Graphics/SVG/1.1/DTD/svg11.dtd">
<!-- Generated by graphviz version 2.40.1 (20161225.0304)
 -->
<!-- Title: NPSMEFTd6.h Pages: 1 -->
<svg width="315pt" height="80pt"
 viewBox="0.00 0.00 314.50 80.00" xmlns="http://www.w3.org/2000/svg" xmlns:xlink="http://www.w3.org/1999/xlink">
<g id="graph0" class="graph" transform="scale(1 1) rotate(0) translate(4 76)">
<title>NPSMEFTd6.h</title>
<!-- Node52 -->
<g id="node1" class="node">
<title>Node52</title>
<polygon fill="#bfbfbf" stroke="#000000" points="103,-54.5 103,-71.5 173,-71.5 173,-54.5 103,-54.5"/>
<text text-anchor="middle" x="138" y="-61.1" font-family="Helvetica,sans-Serif" font-size="8.00" fill="#000000">NPSMEFTd6.h</text>
</g>
<!-- Node53 -->
<g id="node2" class="node">
<title>Node53</title>
<g id="a_node2"><a xlink:href="../../d3/df6/_model_factory_8cpp.html" target="_top" xlink:title="ModelFactory.cpp">
<polygon fill="none" stroke="#000000" points="0,-.5 0,-17.5 80,-17.5 80,-.5 0,-.5"/>
<text text-anchor="middle" x="40" y="-7.1" font-family="Helvetica,sans-Serif" font-size="8.00" fill="#000000">ModelFactory.cpp</text>
</a>
</g>
</g>
<!-- Node52&#45;&gt;Node53 -->
<g id="edge1" class="edge">
<title>Node52&#45;&gt;Node53</title>
<path fill="none" stroke="#191970" d="M113.4139,-49.4526C95.3219,-39.4835 71.2654,-26.2279 55.7063,-17.6545"/>
<polygon fill="#191970" stroke="#191970" points="111.8071,-52.5633 122.2546,-54.324 115.1853,-46.4324 111.8071,-52.5633"/>
</g>
<!-- Node54 -->
<g id="node3" class="node">
<title>Node54</title>
<g id="a_node3"><a xlink:href="../../d7/d99/_n_p_s_m_e_f_td6_8cpp.html" target="_top" xlink:title="NPSMEFTd6.cpp">
<polygon fill="none" stroke="#000000" points="98.5,-.5 98.5,-17.5 177.5,-17.5 177.5,-.5 98.5,-.5"/>
<text text-anchor="middle" x="138" y="-7.1" font-family="Helvetica,sans-Serif" font-size="8.00" fill="#000000">NPSMEFTd6.cpp</text>
</a>
</g>
</g>
<!-- Node52&#45;&gt;Node54 -->
<g id="edge2" class="edge">
<title>Node52&#45;&gt;Node54</title>
<path fill="none" stroke="#191970" d="M138,-43.8045C138,-34.9102 138,-24.7798 138,-17.7511"/>
<polygon fill="#191970" stroke="#191970" points="134.5001,-44.083 138,-54.083 141.5001,-44.083 134.5001,-44.083"/>
</g>
<!-- Node55 -->
<g id="node4" class="node">
<title>Node55</title>
<g id="a_node4"><a xlink:href="../../de/ddd/_n_p_s_m_e_f_td6_matching_8cpp.html" target="_top" xlink:title="NPSMEFTd6Matching.cpp">
<polygon fill="none" stroke="#000000" points="195.5,-.5 195.5,-17.5 306.5,-17.5 306.5,-.5 195.5,-.5"/>
<text text-anchor="middle" x="251" y="-7.1" font-family="Helvetica,sans-Serif" font-size="8.00" fill="#000000">NPSMEFTd6Matching.cpp</text>
</a>
</g>
</g>
<!-- Node52&#45;&gt;Node55 -->
<g id="edge3" class="edge">
<title>Node52&#45;&gt;Node55</title>
<path fill="none" stroke="#191970" d="M165.0028,-50.096C186.1143,-40.0073 214.8615,-26.2697 233.1786,-17.5164"/>
<polygon fill="#191970" stroke="#191970" points="163.4188,-46.9738 155.9052,-54.4435 166.437,-53.2897 163.4188,-46.9738"/>
</g>
</g>
</svg>
