<?xml version="1.0" encoding="UTF-8" standalone="no"?>
<!DOCTYPE svg PUBLIC "-//W3C//DTD SVG 1.1//EN"
 "http://www.w3.org/Graphics/SVG/1.1/DTD/svg11.dtd">
<!-- Generated by graphviz version 2.38.0 (20140413.2041)
 -->
<!-- Title: EvolDB1Mll Pages: 1 -->
<svg width="648pt" height="305pt"
 viewBox="0.00 0.00 648.00 304.50" xmlns="http://www.w3.org/2000/svg" xmlns:xlink="http://www.w3.org/1999/xlink">
<g id="graph0" class="graph" transform="scale(1 1) rotate(0) translate(4 300.5)">
<title>EvolDB1Mll</title>
<!-- Node1 -->
<g id="node1" class="node"><title>Node1</title>
<polygon fill="#bfbfbf" stroke="black" points="579.5,-143.5 579.5,-160.5 637.5,-160.5 637.5,-143.5 579.5,-143.5"/>
<text text-anchor="middle" x="608.5" y="-150.1" font-family="Helvetica,sans-Serif" font-size="8.00">EvolDB1Mll</text>
</g>
<!-- Node2 -->
<g id="node2" class="node"><title>Node2</title>
<g id="a_node2"><a xlink:href="../../d9/d15/class_r_g_evolutor.html" target="_top" xlink:title="A class for the RG evolutor of the Wilson coefficients. ">
<polygon fill="none" stroke="black" points="408,-274.5 408,-291.5 466,-291.5 466,-274.5 408,-274.5"/>
<text text-anchor="middle" x="437" y="-281.1" font-family="Helvetica,sans-Serif" font-size="8.00">RGEvolutor</text>
</a>
</g>
</g>
<!-- Node2&#45;&gt;Node1 -->
<g id="edge1" class="edge"><title>Node2&#45;&gt;Node1</title>
<path fill="none" stroke="midnightblue" d="M472.429,-270.658C498.362,-260.122 533.658,-243.012 559,-220 578.752,-202.063 595.166,-174.782 602.836,-160.855"/>
<polygon fill="midnightblue" stroke="midnightblue" points="471.013,-267.454 462.989,-274.373 473.576,-273.968 471.013,-267.454"/>
</g>
<!-- Node3 -->
<g id="node3" class="node"><title>Node3</title>
<g id="a_node3"><a xlink:href="../../dd/d6f/class_wilson_template.html" target="_top" xlink:title="WilsonTemplate\&lt; gslpp\l::matrix\&lt; double \&gt; \&gt;">
<polygon fill="none" stroke="red" points="187,-270 187,-296 287,-296 287,-270 187,-270"/>
<text text-anchor="start" x="195" y="-285.6" font-family="Helvetica,sans-Serif" font-size="8.00">WilsonTemplate&lt; gslpp</text>
<text text-anchor="middle" x="237" y="-276.6" font-family="Helvetica,sans-Serif" font-size="8.00">::matrix&lt; double &gt; &gt;</text>
</a>
</g>
</g>
<!-- Node3&#45;&gt;Node2 -->
<g id="edge2" class="edge"><title>Node3&#45;&gt;Node2</title>
<path fill="none" stroke="midnightblue" d="M297.274,-283C333.889,-283 379.196,-283 407.856,-283"/>
<polygon fill="midnightblue" stroke="midnightblue" points="297.198,-279.5 287.198,-283 297.198,-286.5 297.198,-279.5"/>
</g>
<!-- Node4 -->
<g id="node4" class="node"><title>Node4</title>
<g id="a_node4"><a xlink:href="../../dd/d59/classgslpp_1_1vector.html" target="_top" xlink:title="gslpp::vector\&lt; gslpp\l::complex \&gt;">
<polygon fill="none" stroke="black" points="393,-229 393,-255 481,-255 481,-229 393,-229"/>
<text text-anchor="start" x="401" y="-244.6" font-family="Helvetica,sans-Serif" font-size="8.00">gslpp::vector&lt; gslpp</text>
<text text-anchor="middle" x="437" y="-235.6" font-family="Helvetica,sans-Serif" font-size="8.00">::complex &gt;</text>
</a>
</g>
</g>
<!-- Node4&#45;&gt;Node1 -->
<g id="edge3" class="edge"><title>Node4&#45;&gt;Node1</title>
<path fill="none" stroke="#9a32cd" stroke-dasharray="5,2" d="M471.866,-224.018C508.15,-204.752 564.194,-174.994 591.478,-160.508"/>
<polygon fill="#9a32cd" stroke="#9a32cd" points="469.838,-221.132 462.647,-228.913 473.12,-227.315 469.838,-221.132"/>
<text text-anchor="middle" x="529" y="-209.6" font-family="Helvetica,sans-Serif" font-size="8.00"> e</text>
</g>
<!-- Node5 -->
<g id="node5" class="node"><title>Node5</title>
<g id="a_node5"><a xlink:href="../../dd/d59/classgslpp_1_1vector.html" target="_top" xlink:title="A base class for defining operations on vectors, both real and complex. ">
<polygon fill="none" stroke="black" points="196.5,-233.5 196.5,-250.5 277.5,-250.5 277.5,-233.5 196.5,-233.5"/>
<text text-anchor="middle" x="237" y="-240.1" font-family="Helvetica,sans-Serif" font-size="8.00">gslpp::vector&lt; T &gt;</text>
</a>
</g>
</g>
<!-- Node5&#45;&gt;Node4 -->
<g id="edge4" class="edge"><title>Node5&#45;&gt;Node4</title>
<path fill="none" stroke="orange" stroke-dasharray="5,2" d="M287.727,-242C320.039,-242 361.749,-242 392.696,-242"/>
<polygon fill="orange" stroke="orange" points="287.592,-238.5 277.592,-242 287.592,-245.5 287.592,-238.5"/>
<text text-anchor="middle" x="340" y="-244.6" font-family="Helvetica,sans-Serif" font-size="8.00"> &lt; gslpp::complex &gt;</text>
</g>
<!-- Node6 -->
<g id="node6" class="node"><title>Node6</title>
<g id="a_node6"><a xlink:href="../../d1/d3c/classgslpp_1_1matrix.html" target="_top" xlink:title="gslpp::matrix\&lt; gslpp\l::complex \&gt;">
<polygon fill="none" stroke="black" points="193,-67 193,-93 281,-93 281,-67 193,-67"/>
<text text-anchor="start" x="201" y="-82.6" font-family="Helvetica,sans-Serif" font-size="8.00">gslpp::matrix&lt; gslpp</text>
<text text-anchor="middle" x="237" y="-73.6" font-family="Helvetica,sans-Serif" font-size="8.00">::complex &gt;</text>
</a>
</g>
</g>
<!-- Node6&#45;&gt;Node1 -->
<g id="edge5" class="edge"><title>Node6&#45;&gt;Node1</title>
<path fill="none" stroke="#9a32cd" stroke-dasharray="5,2" d="M290.837,-93.9958C295.611,-95.0816 300.384,-96.1026 305,-97 382.495,-112.065 403.444,-106.251 481,-121 514.987,-127.463 553.534,-137.274 579.05,-144.122"/>
<polygon fill="#9a32cd" stroke="#9a32cd" points="291.625,-90.5856 281.088,-91.6951 290.017,-97.3985 291.625,-90.5856"/>
<text text-anchor="middle" x="437" y="-213.6" font-family="Helvetica,sans-Serif" font-size="8.00"> vij</text>
<text text-anchor="middle" x="437" y="-204.6" font-family="Helvetica,sans-Serif" font-size="8.00">gg</text>
<text text-anchor="middle" x="437" y="-195.6" font-family="Helvetica,sans-Serif" font-size="8.00">h</text>
<text text-anchor="middle" x="437" y="-186.6" font-family="Helvetica,sans-Serif" font-size="8.00">jss</text>
<text text-anchor="middle" x="437" y="-177.6" font-family="Helvetica,sans-Serif" font-size="8.00">vi</text>
<text text-anchor="middle" x="437" y="-168.6" font-family="Helvetica,sans-Serif" font-size="8.00">js</text>
<text text-anchor="middle" x="437" y="-159.6" font-family="Helvetica,sans-Serif" font-size="8.00">jv</text>
<text text-anchor="middle" x="437" y="-150.6" font-family="Helvetica,sans-Serif" font-size="8.00">jssv</text>
<text text-anchor="middle" x="437" y="-141.6" font-family="Helvetica,sans-Serif" font-size="8.00">s_s</text>
<text text-anchor="middle" x="437" y="-132.6" font-family="Helvetica,sans-Serif" font-size="8.00">v</text>
<text text-anchor="middle" x="437" y="-123.6" font-family="Helvetica,sans-Serif" font-size="8.00">...</text>
</g>
<!-- Node8 -->
<g id="node8" class="node"><title>Node8</title>
<g id="a_node8"><a xlink:href="../../dc/dd5/class_standard_model.html" target="_top" xlink:title="A model class for the Standard Model. ">
<polygon fill="none" stroke="red" points="401.5,-33.5 401.5,-50.5 472.5,-50.5 472.5,-33.5 401.5,-33.5"/>
<text text-anchor="middle" x="437" y="-40.1" font-family="Helvetica,sans-Serif" font-size="8.00">StandardModel</text>
</a>
</g>
</g>
<!-- Node6&#45;&gt;Node8 -->
<g id="edge11" class="edge"><title>Node6&#45;&gt;Node8</title>
<path fill="none" stroke="#9a32cd" stroke-dasharray="5,2" d="M264.222,-61.5421C276.093,-54.2641 290.659,-46.7551 305,-43 336.903,-34.6464 374.693,-35.435 401.466,-37.6894"/>
<polygon fill="#9a32cd" stroke="#9a32cd" points="262.246,-58.6516 255.718,-66.9965 266.025,-64.5439 262.246,-58.6516"/>
<text text-anchor="middle" x="340" y="-90.6" font-family="Helvetica,sans-Serif" font-size="8.00"> VCKM</text>
<text text-anchor="middle" x="340" y="-81.6" font-family="Helvetica,sans-Serif" font-size="8.00">UPMNS</text>
<text text-anchor="middle" x="340" y="-72.6" font-family="Helvetica,sans-Serif" font-size="8.00">Yn</text>
<text text-anchor="middle" x="340" y="-63.6" font-family="Helvetica,sans-Serif" font-size="8.00">Yd</text>
<text text-anchor="middle" x="340" y="-54.6" font-family="Helvetica,sans-Serif" font-size="8.00">Yu</text>
<text text-anchor="middle" x="340" y="-45.6" font-family="Helvetica,sans-Serif" font-size="8.00">Ye</text>
</g>
<!-- Node7 -->
<g id="node7" class="node"><title>Node7</title>
<g id="a_node7"><a xlink:href="../../d1/d3c/classgslpp_1_1matrix.html" target="_top" xlink:title="A base class for defining operations on matrices, both real and complex. ">
<polygon fill="none" stroke="black" points="0,-71.5 0,-88.5 81,-88.5 81,-71.5 0,-71.5"/>
<text text-anchor="middle" x="40.5" y="-78.1" font-family="Helvetica,sans-Serif" font-size="8.00">gslpp::matrix&lt; T &gt;</text>
</a>
</g>
</g>
<!-- Node7&#45;&gt;Node6 -->
<g id="edge6" class="edge"><title>Node7&#45;&gt;Node6</title>
<path fill="none" stroke="orange" stroke-dasharray="5,2" d="M91.6016,-80C122.946,-80 162.91,-80 192.845,-80"/>
<polygon fill="orange" stroke="orange" points="91.3294,-76.5001 81.3293,-80 91.3293,-83.5001 91.3294,-76.5001"/>
<text text-anchor="middle" x="134" y="-82.6" font-family="Helvetica,sans-Serif" font-size="8.00"> &lt; gslpp::complex &gt;</text>
</g>
<!-- Node8&#45;&gt;Node1 -->
<g id="edge7" class="edge"><title>Node8&#45;&gt;Node1</title>
<path fill="none" stroke="#9a32cd" stroke-dasharray="5,2" d="M482.312,-52.3862C506.61,-59.5947 536.312,-71.0091 559,-88 579.532,-103.377 595.604,-129.712 603.021,-143.309"/>
<polygon fill="#9a32cd" stroke="#9a32cd" points="483.184,-48.9956 472.609,-49.6426 481.28,-55.7315 483.184,-48.9956"/>
<text text-anchor="middle" x="529" y="-90.6" font-family="Helvetica,sans-Serif" font-size="8.00"> model</text>
</g>
<!-- Node10 -->
<g id="node10" class="node"><title>Node10</title>
<g id="a_node10"><a xlink:href="../../dc/df3/class_e_w_s_mcache.html" target="_top" xlink:title="A class for cache variables used in computing radiative corrections to the EW precision observables...">
<polygon fill="none" stroke="red" points="577,-21.5 577,-38.5 640,-38.5 640,-21.5 577,-21.5"/>
<text text-anchor="middle" x="608.5" y="-28.1" font-family="Helvetica,sans-Serif" font-size="8.00">EWSMcache</text>
</a>
</g>
</g>
<!-- Node8&#45;&gt;Node10 -->
<g id="edge10" class="edge"><title>Node8&#45;&gt;Node10</title>
<path fill="none" stroke="#9a32cd" stroke-dasharray="5,2" d="M466.809,-29.8905C476.815,-26.2776 488.229,-22.802 499,-21 525.099,-16.6333 555.102,-19.7343 576.933,-23.4412"/>
<polygon fill="#9a32cd" stroke="#9a32cd" points="465.449,-26.6631 457.349,-33.4922 467.94,-33.205 465.449,-26.6631"/>
<text text-anchor="middle" x="529" y="-23.6" font-family="Helvetica,sans-Serif" font-size="8.00"> SM</text>
</g>
<!-- Node9 -->
<g id="node9" class="node"><title>Node9</title>
<g id="a_node9"><a xlink:href="../../dd/dfa/class_q_c_d.html" target="_top" xlink:title="A class for parameters related to QCD, hadrons and quarks. ">
<polygon fill="none" stroke="red" points="220,-0.5 220,-17.5 254,-17.5 254,-0.5 220,-0.5"/>
<text text-anchor="middle" x="237" y="-7.1" font-family="Helvetica,sans-Serif" font-size="8.00">QCD</text>
</a>
</g>
</g>
<!-- Node9&#45;&gt;Node8 -->
<g id="edge8" class="edge"><title>Node9&#45;&gt;Node8</title>
<path fill="none" stroke="midnightblue" d="M264.276,-10.1225C292.03,-11.6709 336.952,-15.2123 375,-23 387.605,-25.5801 401.312,-29.7231 412.533,-33.4829"/>
<polygon fill="midnightblue" stroke="midnightblue" points="264.353,-6.62196 254.188,-9.60597 263.995,-13.6128 264.353,-6.62196"/>
</g>
<!-- Node10&#45;&gt;Node8 -->
<g id="edge9" class="edge"><title>Node10&#45;&gt;Node8</title>
<path fill="none" stroke="#9a32cd" stroke-dasharray="5,2" d="M566.7,-32.8885C537.987,-34.9213 499.968,-37.6129 472.71,-39.5427"/>
<polygon fill="#9a32cd" stroke="#9a32cd" points="567.092,-36.3696 576.82,-32.172 566.598,-29.3871 567.092,-36.3696"/>
<text text-anchor="middle" x="529" y="-40.6" font-family="Helvetica,sans-Serif" font-size="8.00"> myEWSMcache</text>
</g>
</g>
</svg>
