<?xml version="1.0" encoding="UTF-8" standalone="no"?>
<!DOCTYPE svg PUBLIC "-//W3C//DTD SVG 1.1//EN"
 "http://www.w3.org/Graphics/SVG/1.1/DTD/svg11.dtd">
<!-- Generated by graphviz version 2.40.1 (20161225.0304)
 -->
<!-- Title: Hobs_gg_phi3_WW_ATLAS8 Pages: 1 -->
<svg width="486pt" height="288pt"
 viewBox="0.00 0.00 485.50 288.00" xmlns="http://www.w3.org/2000/svg" xmlns:xlink="http://www.w3.org/1999/xlink">
<g id="graph0" class="graph" transform="scale(1 1) rotate(0) translate(4 284)">
<title>Hobs_gg_phi3_WW_ATLAS8</title>
<!-- Node2 -->
<g id="node1" class="node">
<title>Node2</title>
<polygon fill="#bfbfbf" stroke="#000000" points="0,-.5 0,-17.5 122,-17.5 122,-.5 0,-.5"/>
<text text-anchor="middle" x="61" y="-7.1" font-family="Helvetica,sans-Serif" font-size="8.00" fill="#000000">Hobs_gg_phi3_WW_ATLAS8</text>
</g>
<!-- Node3 -->
<g id="node2" class="node">
<title>Node3</title>
<g id="a_node2"><a xlink:href="../../dc/d1f/class_th_observable.html" target="_top" xlink:title="A class for a model prediction of an observable. ">
<polygon fill="none" stroke="#000000" points="11.5,-99.5 11.5,-116.5 78.5,-116.5 78.5,-99.5 11.5,-99.5"/>
<text text-anchor="middle" x="45" y="-106.1" font-family="Helvetica,sans-Serif" font-size="8.00" fill="#000000">ThObservable</text>
</a>
</g>
</g>
<!-- Node3&#45;&gt;Node2 -->
<g id="edge1" class="edge">
<title>Node3&#45;&gt;Node2</title>
<path fill="none" stroke="#191970" d="M48.0182,-89.3249C51.4877,-67.8571 57.034,-33.5398 59.6061,-17.6245"/>
<polygon fill="#191970" stroke="#191970" points="44.5603,-88.7841 46.4199,-99.2144 51.4706,-89.9009 44.5603,-88.7841"/>
</g>
<!-- Node4 -->
<g id="node3" class="node">
<title>Node4</title>
<g id="a_node3"><a xlink:href="../../dc/dd5/class_standard_model.html" target="_top" xlink:title="A model class for the Standard Model. ">
<polygon fill="none" stroke="#ff0000" points="257.5,-207.5 257.5,-224.5 328.5,-224.5 328.5,-207.5 257.5,-207.5"/>
<text text-anchor="middle" x="293" y="-214.1" font-family="Helvetica,sans-Serif" font-size="8.00" fill="#000000">StandardModel</text>
</a>
</g>
</g>
<!-- Node4&#45;&gt;Node3 -->
<g id="edge2" class="edge">
<title>Node4&#45;&gt;Node3</title>
<path fill="none" stroke="#9a32cd" stroke-dasharray="5,2" d="M247.1832,-210.4413C188.3524,-202.4387 90.6559,-185.9522 64,-162 50.8415,-150.1762 46.7958,-128.6881 45.552,-116.6914"/>
<polygon fill="#9a32cd" stroke="#9a32cd" points="246.9619,-213.9425 257.3359,-211.7907 247.8843,-207.0036 246.9619,-213.9425"/>
<text text-anchor="middle" x="134.5" y="-182.6" font-family="Helvetica,sans-Serif" font-size="8.00" fill="#000000"> SM</text>
</g>
<!-- Node9 -->
<g id="node6" class="node">
<title>Node9</title>
<g id="a_node6"><a xlink:href="../../dc/df3/class_e_w_s_mcache.html" target="_top" xlink:title="A class for cache variables used in computing radiative corrections to the EW precision observables...">
<polygon fill="none" stroke="#ff0000" points="414.5,-140 414.5,-157 477.5,-157 477.5,-140 414.5,-140"/>
<text text-anchor="middle" x="446" y="-146.6" font-family="Helvetica,sans-Serif" font-size="8.00" fill="#000000">EWSMcache</text>
</a>
</g>
</g>
<!-- Node4&#45;&gt;Node9 -->
<g id="edge6" class="edge">
<title>Node4&#45;&gt;Node9</title>
<path fill="none" stroke="#9a32cd" stroke-dasharray="5,2" d="M321.646,-203.362C352.1807,-189.8909 399.713,-168.9207 426.2965,-157.1927"/>
<polygon fill="#9a32cd" stroke="#9a32cd" points="320.114,-200.2124 312.3776,-207.4511 322.9395,-206.6168 320.114,-200.2124"/>
<text text-anchor="middle" x="381.5" y="-182.6" font-family="Helvetica,sans-Serif" font-size="8.00" fill="#000000"> SM</text>
</g>
<!-- Node48 -->
<g id="node8" class="node">
<title>Node48</title>
<g id="a_node8"><a xlink:href="../../d2/df3/class_n_pbase.html" target="_top" xlink:title="The auxiliary base model class for other model classes. ">
<polygon fill="none" stroke="#000000" points="233.5,-140 233.5,-157 278.5,-157 278.5,-140 233.5,-140"/>
<text text-anchor="middle" x="256" y="-146.6" font-family="Helvetica,sans-Serif" font-size="8.00" fill="#000000">NPbase</text>
</a>
</g>
</g>
<!-- Node4&#45;&gt;Node48 -->
<g id="edge10" class="edge">
<title>Node4&#45;&gt;Node48</title>
<path fill="none" stroke="#191970" d="M263.4868,-201.8791C258.8692,-198.3354 254.7289,-194.0645 252,-189 246.6376,-179.048 249.5407,-165.7157 252.4721,-157.116"/>
<polygon fill="#191970" stroke="#191970" points="261.8206,-204.9705 272.1124,-207.4867 265.636,-199.1017 261.8206,-204.9705"/>
</g>
<!-- Node4&#45;&gt;Node48 -->
<g id="edge11" class="edge">
<title>Node4&#45;&gt;Node48</title>
<path fill="none" stroke="#9a32cd" stroke-dasharray="5,2" d="M278.8965,-199.3772C276.4217,-196.0561 274.0017,-192.5071 272,-189 266.0789,-178.6259 261.3719,-165.6301 258.6359,-157.2004"/>
<polygon fill="#9a32cd" stroke="#9a32cd" points="276.3586,-201.8087 285.3259,-207.4512 281.8345,-197.4481 276.3586,-201.8087"/>
<text text-anchor="middle" x="286.5" y="-182.6" font-family="Helvetica,sans-Serif" font-size="8.00" fill="#000000"> trueSM</text>
</g>
<!-- Node5 -->
<g id="node4" class="node">
<title>Node5</title>
<g id="a_node4"><a xlink:href="../../dd/dfa/class_q_c_d.html" target="_top" xlink:title="A class for parameters related to QCD, hadrons and quarks. ">
<polygon fill="none" stroke="#ff0000" points="276,-262.5 276,-279.5 310,-279.5 310,-262.5 276,-262.5"/>
<text text-anchor="middle" x="293" y="-269.1" font-family="Helvetica,sans-Serif" font-size="8.00" fill="#000000">QCD</text>
</a>
</g>
</g>
<!-- Node5&#45;&gt;Node4 -->
<g id="edge3" class="edge">
<title>Node5&#45;&gt;Node4</title>
<path fill="none" stroke="#191970" d="M293,-252.1166C293,-242.8173 293,-232.0557 293,-224.7149"/>
<polygon fill="#191970" stroke="#191970" points="289.5001,-252.4062 293,-262.4063 296.5001,-252.4063 289.5001,-252.4062"/>
</g>
<!-- Node8 -->
<g id="node5" class="node">
<title>Node8</title>
<g id="a_node5"><a xlink:href="../../db/d32/class_e_w_s_m_two_fermions_l_e_p2.html" target="_top" xlink:title="A class for the form factors , &#160;and &#160;in the processes &#160;at LEP&#45;II. ">
<polygon fill="none" stroke="#ff0000" points="301.5,-63.5 301.5,-80.5 410.5,-80.5 410.5,-63.5 301.5,-63.5"/>
<text text-anchor="middle" x="356" y="-70.1" font-family="Helvetica,sans-Serif" font-size="8.00" fill="#000000">EWSMTwoFermionsLEP2</text>
</a>
</g>
</g>
<!-- Node8&#45;&gt;Node4 -->
<g id="edge4" class="edge">
<title>Node8&#45;&gt;Node4</title>
<path fill="none" stroke="#9a32cd" stroke-dasharray="5,2" d="M346.7739,-89.7744C340.3934,-102.2955 331.8528,-119.5203 325,-135 313.4932,-160.9927 301.6292,-192.4925 296.1383,-207.3928"/>
<polygon fill="#9a32cd" stroke="#9a32cd" points="349.8951,-91.3582 351.3544,-80.8644 343.6695,-88.1578 349.8951,-91.3582"/>
<text text-anchor="middle" x="365.5" y="-146.6" font-family="Helvetica,sans-Serif" font-size="8.00" fill="#000000"> myTwoFermionsLEP2</text>
</g>
<!-- Node9&#45;&gt;Node4 -->
<g id="edge7" class="edge">
<title>Node9&#45;&gt;Node4</title>
<path fill="none" stroke="#9a32cd" stroke-dasharray="5,2" d="M429.201,-164.0638C419.3051,-172.5023 406.1744,-182.5038 393,-189 372.8392,-198.9411 348.5248,-205.6114 328.9198,-209.8349"/>
<polygon fill="#9a32cd" stroke="#9a32cd" points="431.8138,-166.4255 436.9846,-157.1781 427.1757,-161.1826 431.8138,-166.4255"/>
<text text-anchor="middle" x="437" y="-182.6" font-family="Helvetica,sans-Serif" font-size="8.00" fill="#000000"> myEWSMcache</text>
</g>
<!-- Node9&#45;&gt;Node8 -->
<g id="edge5" class="edge">
<title>Node9&#45;&gt;Node8</title>
<path fill="none" stroke="#9a32cd" stroke-dasharray="5,2" d="M427.9162,-133.1288C409.3726,-117.3667 381.1883,-93.4101 366.2037,-80.6732"/>
<polygon fill="#9a32cd" stroke="#9a32cd" points="425.7897,-135.9148 435.6759,-139.7245 430.3232,-130.5812 425.7897,-135.9148"/>
<text text-anchor="middle" x="418" y="-106.1" font-family="Helvetica,sans-Serif" font-size="8.00" fill="#000000"> cache</text>
</g>
<!-- Node47 -->
<g id="node7" class="node">
<title>Node47</title>
<g id="a_node7"><a xlink:href="../../d3/d55/class_general_t_h_d_m.html" target="_top" xlink:title="A base class for generic Two&#45;Higgs&#45;Doublet models. ">
<polygon fill="none" stroke="#000000" points="110,-63.5 110,-80.5 178,-80.5 178,-63.5 110,-63.5"/>
<text text-anchor="middle" x="144" y="-70.1" font-family="Helvetica,sans-Serif" font-size="8.00" fill="#000000">GeneralTHDM</text>
</a>
</g>
</g>
<!-- Node47&#45;&gt;Node2 -->
<g id="edge8" class="edge">
<title>Node47&#45;&gt;Node2</title>
<path fill="none" stroke="#9a32cd" stroke-dasharray="5,2" d="M114.1665,-58.9781C106.5821,-55.0193 98.6919,-50.2952 92,-45 81.91,-37.016 72.6057,-25.3943 66.8763,-17.5332"/>
<polygon fill="#9a32cd" stroke="#9a32cd" points="112.6482,-62.1317 123.1651,-63.4142 115.7434,-55.8532 112.6482,-62.1317"/>
<text text-anchor="middle" x="113.5" y="-38.6" font-family="Helvetica,sans-Serif" font-size="8.00" fill="#000000"> myGTHDM</text>
</g>
<!-- Node51 -->
<g id="node10" class="node">
<title>Node51</title>
<g id="a_node10"><a xlink:href="../../dc/dfd/class_general_t_h_d_mcache.html" target="_top" xlink:title="GeneralTHDMcache">
<polygon fill="none" stroke="#ff0000" points="152.5,-.5 152.5,-17.5 241.5,-17.5 241.5,-.5 152.5,-.5"/>
<text text-anchor="middle" x="197" y="-7.1" font-family="Helvetica,sans-Serif" font-size="8.00" fill="#000000">GeneralTHDMcache</text>
</a>
</g>
</g>
<!-- Node47&#45;&gt;Node51 -->
<g id="edge14" class="edge">
<title>Node47&#45;&gt;Node51</title>
<path fill="none" stroke="#9a32cd" stroke-dasharray="5,2" d="M138.2029,-53.412C137.4173,-47.4689 137.7896,-41.112 141,-36 146.3384,-27.4996 155.1887,-21.612 164.2946,-17.5606"/>
<polygon fill="#9a32cd" stroke="#9a32cd" points="134.8293,-54.3576 140.5044,-63.3043 141.6472,-52.7713 134.8293,-54.3576"/>
<text text-anchor="middle" x="162.5" y="-38.6" font-family="Helvetica,sans-Serif" font-size="8.00" fill="#000000"> myGTHDM</text>
</g>
<!-- Node48&#45;&gt;Node47 -->
<g id="edge9" class="edge">
<title>Node48&#45;&gt;Node47</title>
<path fill="none" stroke="#191970" d="M236.2437,-133.8345C222.569,-123.8057 203.8658,-110.3291 187,-99 177.4875,-92.6102 166.5475,-85.7475 158.0829,-80.5399"/>
<polygon fill="#191970" stroke="#191970" points="234.3072,-136.7551 244.4339,-139.8697 238.4597,-131.1198 234.3072,-136.7551"/>
</g>
<!-- Node49 -->
<g id="node9" class="node">
<title>Node49</title>
<g id="a_node9"><a xlink:href="../../d5/d76/class_matching.html" target="_top" xlink:title="Matching\&lt; GeneralTHDMMatching,\l GeneralTHDM \&gt;">
<polygon fill="none" stroke="#ff0000" points="73,-135.5 73,-161.5 215,-161.5 215,-135.5 73,-135.5"/>
<text text-anchor="start" x="81" y="-151.1" font-family="Helvetica,sans-Serif" font-size="8.00" fill="#000000">Matching&lt; GeneralTHDMMatching,</text>
<text text-anchor="middle" x="144" y="-142.1" font-family="Helvetica,sans-Serif" font-size="8.00" fill="#000000"> GeneralTHDM &gt;</text>
</a>
</g>
</g>
<!-- Node49&#45;&gt;Node47 -->
<g id="edge12" class="edge">
<title>Node49&#45;&gt;Node47</title>
<path fill="none" stroke="#9a32cd" stroke-dasharray="5,2" d="M144,-125.0882C144,-110.1453 144,-91.6269 144,-80.8783"/>
<polygon fill="#9a32cd" stroke="#9a32cd" points="140.5001,-125.1747 144,-135.1747 147.5001,-125.1748 140.5001,-125.1747"/>
<text text-anchor="middle" x="163.5" y="-106.1" font-family="Helvetica,sans-Serif" font-size="8.00" fill="#000000"> GTHDMM</text>
</g>
<!-- Node51&#45;&gt;Node47 -->
<g id="edge13" class="edge">
<title>Node51&#45;&gt;Node47</title>
<path fill="none" stroke="#9a32cd" stroke-dasharray="5,2" d="M195.1434,-27.7182C193.8484,-33.6702 191.6666,-39.9995 188,-45 182.1704,-52.9504 173.2268,-59.0535 164.9217,-63.4289"/>
<polygon fill="#9a32cd" stroke="#9a32cd" points="198.6116,-28.1915 196.6463,-17.7806 191.6903,-27.1448 198.6116,-28.1915"/>
<text text-anchor="middle" x="225" y="-38.6" font-family="Helvetica,sans-Serif" font-size="8.00" fill="#000000"> myGTHDMcache</text>
</g>
</g>
</svg>
