<?xml version="1.0" encoding="UTF-8" standalone="no"?>
<!DOCTYPE svg PUBLIC "-//W3C//DTD SVG 1.1//EN"
 "http://www.w3.org/Graphics/SVG/1.1/DTD/svg11.dtd">
<!-- Generated by graphviz version 2.40.1 (20161225.0304)
 -->
<!-- Title: LHPC::SLHA::BaseSlhaBlock Pages: 1 -->
<svg width="129pt" height="134pt"
 viewBox="0.00 0.00 129.00 134.00" xmlns="http://www.w3.org/2000/svg" xmlns:xlink="http://www.w3.org/1999/xlink">
<g id="graph0" class="graph" transform="scale(1 1) rotate(0) translate(4 130)">
<title>LHPC::SLHA::BaseSlhaBlock</title>
<!-- Node84 -->
<g id="node1" class="node">
<title>Node84</title>
<polygon fill="#bfbfbf" stroke="#000000" points="0,-.5 0,-17.5 121,-17.5 121,-.5 0,-.5"/>
<text text-anchor="middle" x="60.5" y="-7.1" font-family="Helvetica,sans-Serif" font-size="8.00" fill="#000000">LHPC::SLHA::BaseSlhaBlock</text>
</g>
<!-- Node85 -->
<g id="node2" class="node">
<title>Node85</title>
<g id="a_node2"><a xlink:href="../../d5/d13/class_b_o_l_1_1_pushed_to_observer.html" target="_top" xlink:title="StringBlockObserver">
<polygon fill="none" stroke="#000000" points="15.5,-54.5 15.5,-71.5 105.5,-71.5 105.5,-54.5 15.5,-54.5"/>
<text text-anchor="middle" x="60.5" y="-61.1" font-family="Helvetica,sans-Serif" font-size="8.00" fill="#000000">StringBlockObserver</text>
</a>
</g>
</g>
<!-- Node85&#45;&gt;Node84 -->
<g id="edge1" class="edge">
<title>Node85&#45;&gt;Node84</title>
<path fill="none" stroke="#191970" d="M60.5,-43.8045C60.5,-34.9102 60.5,-24.7798 60.5,-17.7511"/>
<polygon fill="#191970" stroke="#191970" points="57.0001,-44.083 60.5,-54.083 64.0001,-44.083 57.0001,-44.083"/>
</g>
<!-- Node86 -->
<g id="node3" class="node">
<title>Node86</title>
<g id="a_node3"><a xlink:href="../../d3/d09/class_b_o_l_1_1_basic_observer.html" target="_top" xlink:title="BOL::BasicObserver">
<polygon fill="none" stroke="#000000" points="16,-108.5 16,-125.5 105,-125.5 105,-108.5 16,-108.5"/>
<text text-anchor="middle" x="60.5" y="-115.1" font-family="Helvetica,sans-Serif" font-size="8.00" fill="#000000">BOL::BasicObserver</text>
</a>
</g>
</g>
<!-- Node86&#45;&gt;Node85 -->
<g id="edge2" class="edge">
<title>Node86&#45;&gt;Node85</title>
<path fill="none" stroke="#191970" d="M60.5,-97.8045C60.5,-88.9102 60.5,-78.7798 60.5,-71.7511"/>
<polygon fill="#191970" stroke="#191970" points="57.0001,-98.083 60.5,-108.083 64.0001,-98.083 57.0001,-98.083"/>
</g>
</g>
</svg>
