<?xml version="1.0" encoding="UTF-8" standalone="no"?>
<!DOCTYPE svg PUBLIC "-//W3C//DTD SVG 1.1//EN"
 "http://www.w3.org/Graphics/SVG/1.1/DTD/svg11.dtd">
<!-- Generated by graphviz version 2.40.1 (20161225.0304)
 -->
<!-- Title: HiggsKvgenKf.h Pages: 1 -->
<svg width="188pt" height="80pt"
 viewBox="0.00 0.00 188.00 80.00" xmlns="http://www.w3.org/2000/svg" xmlns:xlink="http://www.w3.org/1999/xlink">
<g id="graph0" class="graph" transform="scale(1 1) rotate(0) translate(4 76)">
<title>HiggsKvgenKf.h</title>
<!-- Node50 -->
<g id="node1" class="node">
<title>Node50</title>
<polygon fill="#bfbfbf" stroke="#000000" points="53,-54.5 53,-71.5 127,-71.5 127,-54.5 53,-54.5"/>
<text text-anchor="middle" x="90" y="-61.1" font-family="Helvetica,sans-Serif" font-size="8.00" fill="#000000">HiggsKvgenKf.h</text>
</g>
<!-- Node51 -->
<g id="node2" class="node">
<title>Node51</title>
<g id="a_node2"><a xlink:href="../../dd/d08/_higgs_kvgen_kf_8cpp.html" target="_top" xlink:title="HiggsKvgenKf.cpp">
<polygon fill="none" stroke="#000000" points="0,-.5 0,-17.5 82,-17.5 82,-.5 0,-.5"/>
<text text-anchor="middle" x="41" y="-7.1" font-family="Helvetica,sans-Serif" font-size="8.00" fill="#000000">HiggsKvgenKf.cpp</text>
</a>
</g>
</g>
<!-- Node50&#45;&gt;Node51 -->
<g id="edge1" class="edge">
<title>Node50&#45;&gt;Node51</title>
<path fill="none" stroke="#191970" d="M74.9655,-46.4314C66.3778,-36.9673 55.9565,-25.4827 48.9408,-17.7511"/>
<polygon fill="#191970" stroke="#191970" points="72.5967,-49.0293 81.9086,-54.083 77.7807,-44.3254 72.5967,-49.0293"/>
</g>
<!-- Node52 -->
<g id="node3" class="node">
<title>Node52</title>
<g id="a_node3"><a xlink:href="../../d3/df6/_model_factory_8cpp.html" target="_top" xlink:title="ModelFactory.cpp">
<polygon fill="none" stroke="#000000" points="100,-.5 100,-17.5 180,-17.5 180,-.5 100,-.5"/>
<text text-anchor="middle" x="140" y="-7.1" font-family="Helvetica,sans-Serif" font-size="8.00" fill="#000000">ModelFactory.cpp</text>
</a>
</g>
</g>
<!-- Node50&#45;&gt;Node52 -->
<g id="edge2" class="edge">
<title>Node50&#45;&gt;Node52</title>
<path fill="none" stroke="#191970" d="M105.0763,-46.7175C113.8891,-37.1997 124.6659,-25.5608 131.8972,-17.7511"/>
<polygon fill="#191970" stroke="#191970" points="102.4824,-44.3674 98.2565,-54.083 107.6188,-49.1233 102.4824,-44.3674"/>
</g>
</g>
</svg>
