<?xml version="1.0" encoding="UTF-8" standalone="no"?>
<!DOCTYPE svg PUBLIC "-//W3C//DTD SVG 1.1//EN"
 "http://www.w3.org/Graphics/SVG/1.1/DTD/svg11.dtd">
<!-- Generated by graphviz version 2.38.0 (20140413.2041)
 -->
<!-- Title: myObservables.h Pages: 1 -->
<svg width="104pt" height="134pt"
 viewBox="0.00 0.00 103.50 134.00" xmlns="http://www.w3.org/2000/svg" xmlns:xlink="http://www.w3.org/1999/xlink">
<g id="graph0" class="graph" transform="scale(1 1) rotate(0) translate(4 130)">
<title>myObservables.h</title>
<!-- Node1 -->
<g id="node1" class="node"><title>Node1</title>
<polygon fill="#bfbfbf" stroke="black" points="0,-108.5 0,-125.5 79,-125.5 79,-108.5 0,-108.5"/>
<text text-anchor="middle" x="39.5" y="-115.1" font-family="Helvetica,sans-Serif" font-size="8.00">myObservables.h</text>
</g>
<!-- Node2 -->
<g id="node2" class="node"><title>Node2</title>
<polygon fill="none" stroke="#bfbfbf" points="16.5,-0.5 16.5,-17.5 62.5,-17.5 62.5,-0.5 16.5,-0.5"/>
<text text-anchor="middle" x="39.5" y="-7.1" font-family="Helvetica,sans-Serif" font-size="8.00">HEPfit.h</text>
</g>
<!-- Node1&#45;&gt;Node2 -->
<g id="edge1" class="edge"><title>Node1&#45;&gt;Node2</title>
<path fill="none" stroke="midnightblue" d="M37.4284,-108.284C35.2008,-99.5551 31.8035,-84.8773 30.5,-72 28.9736,-56.921 31.7754,-39.8883 34.6458,-27.4963"/>
<polygon fill="midnightblue" stroke="midnightblue" points="38.0873,-28.1655 37.179,-17.6097 31.3064,-26.428 38.0873,-28.1655"/>
</g>
<!-- Node3 -->
<g id="node3" class="node"><title>Node3</title>
<g id="a_node3"><a xlink:href="../../d1/ddf/my_model_8h.html" target="_top" xlink:title="myModel.h">
<polygon fill="none" stroke="black" points="39.5,-54.5 39.5,-71.5 95.5,-71.5 95.5,-54.5 39.5,-54.5"/>
<text text-anchor="middle" x="67.5" y="-61.1" font-family="Helvetica,sans-Serif" font-size="8.00">myModel.h</text>
</a>
</g>
</g>
<!-- Node1&#45;&gt;Node3 -->
<g id="edge2" class="edge"><title>Node1&#45;&gt;Node3</title>
<path fill="none" stroke="midnightblue" d="M43.6315,-108.327C47.5192,-101.107 53.4726,-90.0509 58.4609,-80.7869"/>
<polygon fill="midnightblue" stroke="midnightblue" points="61.6922,-82.1683 63.3516,-71.7043 55.5289,-78.8496 61.6922,-82.1683"/>
</g>
<!-- Node3&#45;&gt;Node2 -->
<g id="edge3" class="edge"><title>Node3&#45;&gt;Node2</title>
<path fill="none" stroke="midnightblue" d="M63.3685,-54.3272C59.4808,-47.1072 53.5274,-36.0509 48.5391,-26.7869"/>
<polygon fill="midnightblue" stroke="midnightblue" points="51.4711,-24.8496 43.6484,-17.7043 45.3078,-28.1683 51.4711,-24.8496"/>
</g>
</g>
</svg>
