<?xml version="1.0" encoding="UTF-8" standalone="no"?>
<!DOCTYPE svg PUBLIC "-//W3C//DTD SVG 1.1//EN"
 "http://www.w3.org/Graphics/SVG/1.1/DTD/svg11.dtd">
<!-- Generated by graphviz version 2.38.0 (20140413.2041)
 -->
<!-- Title: unitarity.h Pages: 1 -->
<svg width="178pt" height="134pt"
 viewBox="0.00 0.00 177.50 134.00" xmlns="http://www.w3.org/2000/svg" xmlns:xlink="http://www.w3.org/1999/xlink">
<g id="graph0" class="graph" transform="scale(1 1) rotate(0) translate(4 130)">
<title>unitarity.h</title>
<!-- Node1 -->
<g id="node1" class="node"><title>Node1</title>
<polygon fill="#bfbfbf" stroke="black" points="67,-108.5 67,-125.5 118,-125.5 118,-108.5 67,-108.5"/>
<text text-anchor="middle" x="92.5" y="-115.1" font-family="Helvetica,sans-Serif" font-size="8.00">unitarity.h</text>
</g>
<!-- Node2 -->
<g id="node2" class="node"><title>Node2</title>
<g id="a_node2"><a xlink:href="../../d0/d3a/_t_h_d_m_observables_8h.html" target="_top" xlink:title="THDMObservables.h">
<polygon fill="none" stroke="black" points="0,-54.5 0,-71.5 91,-71.5 91,-54.5 0,-54.5"/>
<text text-anchor="middle" x="45.5" y="-61.1" font-family="Helvetica,sans-Serif" font-size="8.00">THDMObservables.h</text>
</a>
</g>
</g>
<!-- Node1&#45;&gt;Node2 -->
<g id="edge1" class="edge"><title>Node1&#45;&gt;Node2</title>
<path fill="none" stroke="midnightblue" d="M78.6845,-100.715C70.0683,-91.182 59.3469,-79.32 52.4635,-71.7043"/>
<polygon fill="midnightblue" stroke="midnightblue" points="76.263,-103.255 85.565,-108.327 81.4561,-98.5616 76.263,-103.255"/>
</g>
<!-- Node4 -->
<g id="node4" class="node"><title>Node4</title>
<g id="a_node4"><a xlink:href="../../dd/d76/unitarity_8cpp.html" target="_top" xlink:title="unitarity.cpp">
<polygon fill="none" stroke="black" points="109.5,-54.5 109.5,-71.5 169.5,-71.5 169.5,-54.5 109.5,-54.5"/>
<text text-anchor="middle" x="139.5" y="-61.1" font-family="Helvetica,sans-Serif" font-size="8.00">unitarity.cpp</text>
</a>
</g>
</g>
<!-- Node1&#45;&gt;Node4 -->
<g id="edge3" class="edge"><title>Node1&#45;&gt;Node4</title>
<path fill="none" stroke="midnightblue" d="M106.315,-100.715C114.932,-91.182 125.653,-79.32 132.537,-71.7043"/>
<polygon fill="midnightblue" stroke="midnightblue" points="103.544,-98.5616 99.435,-108.327 108.737,-103.255 103.544,-98.5616"/>
</g>
<!-- Node3 -->
<g id="node3" class="node"><title>Node3</title>
<g id="a_node3"><a xlink:href="../../d1/de2/_th_obs_factory_8cpp.html" target="_top" xlink:title="ThObsFactory.cpp">
<polygon fill="none" stroke="black" points="4.5,-0.5 4.5,-17.5 86.5,-17.5 86.5,-0.5 4.5,-0.5"/>
<text text-anchor="middle" x="45.5" y="-7.1" font-family="Helvetica,sans-Serif" font-size="8.00">ThObsFactory.cpp</text>
</a>
</g>
</g>
<!-- Node2&#45;&gt;Node3 -->
<g id="edge2" class="edge"><title>Node2&#45;&gt;Node3</title>
<path fill="none" stroke="midnightblue" d="M45.5,-44.0621C45.5,-35.0603 45.5,-24.6277 45.5,-17.7043"/>
<polygon fill="midnightblue" stroke="midnightblue" points="42.0001,-44.3272 45.5,-54.3272 49.0001,-44.3273 42.0001,-44.3272"/>
</g>
</g>
</svg>
