<?xml version="1.0" encoding="UTF-8" standalone="no"?>
<!DOCTYPE svg PUBLIC "-//W3C//DTD SVG 1.1//EN"
 "http://www.w3.org/Graphics/SVG/1.1/DTD/svg11.dtd">
<!-- Generated by graphviz version 2.40.1 (20161225.0304)
 -->
<!-- Title: BDtaunu.h Pages: 1 -->
<svg width="180pt" height="134pt"
 viewBox="0.00 0.00 180.00 134.00" xmlns="http://www.w3.org/2000/svg" xmlns:xlink="http://www.w3.org/1999/xlink">
<g id="graph0" class="graph" transform="scale(1 1) rotate(0) translate(4 130)">
<title>BDtaunu.h</title>
<!-- Node52 -->
<g id="node1" class="node">
<title>Node52</title>
<polygon fill="#bfbfbf" stroke="#000000" points="51.5,-108.5 51.5,-125.5 105.5,-125.5 105.5,-108.5 51.5,-108.5"/>
<text text-anchor="middle" x="78.5" y="-115.1" font-family="Helvetica,sans-Serif" font-size="8.00" fill="#000000">BDtaunu.h</text>
</g>
<!-- Node53 -->
<g id="node2" class="node">
<title>Node53</title>
<g id="a_node2"><a xlink:href="../../d8/db1/_b_dtaunu_8cpp.html" target="_top" xlink:title="BDtaunu.cpp">
<polygon fill="none" stroke="#000000" points="0,-54.5 0,-71.5 63,-71.5 63,-54.5 0,-54.5"/>
<text text-anchor="middle" x="31.5" y="-61.1" font-family="Helvetica,sans-Serif" font-size="8.00" fill="#000000">BDtaunu.cpp</text>
</a>
</g>
</g>
<!-- Node52&#45;&gt;Node53 -->
<g id="edge1" class="edge">
<title>Node52&#45;&gt;Node53</title>
<path fill="none" stroke="#191970" d="M64.0792,-100.4314C55.8419,-90.9673 45.8461,-79.4827 39.1167,-71.7511"/>
<polygon fill="#191970" stroke="#191970" points="61.5336,-102.8378 70.7389,-108.083 66.8137,-98.2421 61.5336,-102.8378"/>
</g>
<!-- Node54 -->
<g id="node3" class="node">
<title>Node54</title>
<g id="a_node3"><a xlink:href="../../d0/d3a/_t_h_d_m_observables_8h.html" target="_top" xlink:title="THDMObservables.h">
<polygon fill="none" stroke="#000000" points="81,-54.5 81,-71.5 172,-71.5 172,-54.5 81,-54.5"/>
<text text-anchor="middle" x="126.5" y="-61.1" font-family="Helvetica,sans-Serif" font-size="8.00" fill="#000000">THDMObservables.h</text>
</a>
</g>
</g>
<!-- Node52&#45;&gt;Node54 -->
<g id="edge2" class="edge">
<title>Node52&#45;&gt;Node54</title>
<path fill="none" stroke="#191970" d="M93.2277,-100.4314C101.6401,-90.9673 111.8487,-79.4827 118.7213,-71.7511"/>
<polygon fill="#191970" stroke="#191970" points="90.454,-98.2836 86.4262,-108.083 95.6858,-102.9342 90.454,-98.2836"/>
</g>
<!-- Node55 -->
<g id="node4" class="node">
<title>Node55</title>
<g id="a_node4"><a xlink:href="../../d1/de2/_th_obs_factory_8cpp.html" target="_top" xlink:title="ThObsFactory.cpp">
<polygon fill="none" stroke="#000000" points="85.5,-.5 85.5,-17.5 167.5,-17.5 167.5,-.5 85.5,-.5"/>
<text text-anchor="middle" x="126.5" y="-7.1" font-family="Helvetica,sans-Serif" font-size="8.00" fill="#000000">ThObsFactory.cpp</text>
</a>
</g>
</g>
<!-- Node54&#45;&gt;Node55 -->
<g id="edge3" class="edge">
<title>Node54&#45;&gt;Node55</title>
<path fill="none" stroke="#191970" d="M126.5,-43.8045C126.5,-34.9102 126.5,-24.7798 126.5,-17.7511"/>
<polygon fill="#191970" stroke="#191970" points="123.0001,-44.083 126.5,-54.083 130.0001,-44.083 123.0001,-44.083"/>
</g>
</g>
</svg>
