<?xml version="1.0" encoding="UTF-8" standalone="no"?>
<!DOCTYPE svg PUBLIC "-//W3C//DTD SVG 1.1//EN"
 "http://www.w3.org/Graphics/SVG/1.1/DTD/svg11.dtd">
<!-- Generated by graphviz version 2.38.0 (20140413.2041)
 -->
<!-- Title: MonteCarlo.h Pages: 1 -->
<svg width="670pt" height="188pt"
 viewBox="0.00 0.00 670.00 188.00" xmlns="http://www.w3.org/2000/svg" xmlns:xlink="http://www.w3.org/1999/xlink">
<g id="graph0" class="graph" transform="scale(1 1) rotate(0) translate(4 184)">
<title>MonteCarlo.h</title>
<!-- Node1 -->
<g id="node1" class="node"><title>Node1</title>
<polygon fill="#bfbfbf" stroke="black" points="477.5,-162.5 477.5,-179.5 542.5,-179.5 542.5,-162.5 477.5,-162.5"/>
<text text-anchor="middle" x="510" y="-169.1" font-family="Helvetica,sans-Serif" font-size="8.00">MonteCarlo.h</text>
</g>
<!-- Node2 -->
<g id="node2" class="node"><title>Node2</title>
<g id="a_node2"><a xlink:href="../../d8/d48/_input_parser_8h.html" target="_top" xlink:title="InputParser.h">
<polygon fill="none" stroke="red" points="208.5,-108.5 208.5,-125.5 273.5,-125.5 273.5,-108.5 208.5,-108.5"/>
<text text-anchor="middle" x="241" y="-115.1" font-family="Helvetica,sans-Serif" font-size="8.00">InputParser.h</text>
</a>
</g>
</g>
<!-- Node1&#45;&gt;Node2 -->
<g id="edge1" class="edge"><title>Node1&#45;&gt;Node2</title>
<path fill="none" stroke="midnightblue" d="M477.284,-163.676C428.746,-154.293 337.618,-136.677 283.823,-126.278"/>
<polygon fill="midnightblue" stroke="midnightblue" points="284.391,-122.823 273.908,-124.361 283.062,-129.696 284.391,-122.823"/>
</g>
<!-- Node8 -->
<g id="node8" class="node"><title>Node8</title>
<g id="a_node8"><a xlink:href="../../d0/d26/_monte_carlo_engine_8h.html" target="_top" xlink:title="MonteCarloEngine.h">
<polygon fill="none" stroke="red" points="429.5,-108.5 429.5,-125.5 518.5,-125.5 518.5,-108.5 429.5,-108.5"/>
<text text-anchor="middle" x="474" y="-115.1" font-family="Helvetica,sans-Serif" font-size="8.00">MonteCarloEngine.h</text>
</a>
</g>
</g>
<!-- Node1&#45;&gt;Node8 -->
<g id="edge8" class="edge"><title>Node1&#45;&gt;Node8</title>
<path fill="none" stroke="midnightblue" d="M504.688,-162.327C499.583,-154.954 491.708,-143.579 485.214,-134.198"/>
<polygon fill="midnightblue" stroke="midnightblue" points="487.904,-131.934 479.334,-125.704 482.148,-135.918 487.904,-131.934"/>
</g>
<!-- Node9 -->
<g id="node9" class="node"><title>Node9</title>
<polygon fill="none" stroke="#bfbfbf" points="508,-54.5 508,-71.5 576,-71.5 576,-54.5 508,-54.5"/>
<text text-anchor="middle" x="542" y="-61.1" font-family="Helvetica,sans-Serif" font-size="8.00">BAT/BCH1D.h</text>
</g>
<!-- Node1&#45;&gt;Node9 -->
<g id="edge14" class="edge"><title>Node1&#45;&gt;Node9</title>
<path fill="none" stroke="midnightblue" d="M513.322,-162.32C517,-153.624 522.943,-138.975 527,-126 531.605,-111.272 535.641,-94.2078 538.363,-81.7147"/>
<polygon fill="midnightblue" stroke="midnightblue" points="541.831,-82.2318 540.472,-71.7244 534.982,-80.7858 541.831,-82.2318"/>
</g>
<!-- Node10 -->
<g id="node10" class="node"><title>Node10</title>
<polygon fill="none" stroke="#bfbfbf" points="594,-54.5 594,-71.5 662,-71.5 662,-54.5 594,-54.5"/>
<text text-anchor="middle" x="628" y="-61.1" font-family="Helvetica,sans-Serif" font-size="8.00">BAT/BCH2D.h</text>
</g>
<!-- Node1&#45;&gt;Node10 -->
<g id="edge15" class="edge"><title>Node1&#45;&gt;Node10</title>
<path fill="none" stroke="midnightblue" d="M518.486,-162.377C538.047,-144.805 586.564,-101.222 611.945,-78.422"/>
<polygon fill="midnightblue" stroke="midnightblue" points="614.49,-80.8406 619.591,-71.5542 609.812,-75.6332 614.49,-80.8406"/>
</g>
<!-- Node3 -->
<g id="node3" class="node"><title>Node3</title>
<g id="a_node3"><a xlink:href="../../d8/d81/_th_obs_factory_8h.html" target="_top" xlink:title="ThObsFactory.h">
<polygon fill="none" stroke="red" points="0,-54.5 0,-71.5 74,-71.5 74,-54.5 0,-54.5"/>
<text text-anchor="middle" x="37" y="-61.1" font-family="Helvetica,sans-Serif" font-size="8.00">ThObsFactory.h</text>
</a>
</g>
</g>
<!-- Node2&#45;&gt;Node3 -->
<g id="edge2" class="edge"><title>Node2&#45;&gt;Node3</title>
<path fill="none" stroke="midnightblue" d="M211.337,-108.439C175.757,-99.3694 115.984,-84.133 76.5152,-74.0725"/>
<polygon fill="midnightblue" stroke="midnightblue" points="77.2538,-70.6489 66.6992,-71.5704 75.5248,-77.432 77.2538,-70.6489"/>
</g>
<!-- Node4 -->
<g id="node4" class="node"><title>Node4</title>
<g id="a_node4"><a xlink:href="../../df/df3/_model_factory_8h.html" target="_top" xlink:title="ModelFactory.h">
<polygon fill="none" stroke="red" points="92,-54.5 92,-71.5 164,-71.5 164,-54.5 92,-54.5"/>
<text text-anchor="middle" x="128" y="-61.1" font-family="Helvetica,sans-Serif" font-size="8.00">ModelFactory.h</text>
</a>
</g>
</g>
<!-- Node2&#45;&gt;Node4 -->
<g id="edge3" class="edge"><title>Node2&#45;&gt;Node4</title>
<path fill="none" stroke="midnightblue" d="M224.326,-108.327C205.693,-99.7525 175.301,-85.7667 153.639,-75.7986"/>
<polygon fill="midnightblue" stroke="midnightblue" points="154.922,-72.5361 144.375,-71.5352 151.996,-78.8951 154.922,-72.5361"/>
</g>
<!-- Node5 -->
<g id="node5" class="node"><title>Node5</title>
<g id="a_node5"><a xlink:href="../../d8/db2/_observable_8h.html" target="_top" xlink:title="Observable.h">
<polygon fill="none" stroke="red" points="383,-0.5 383,-17.5 447,-17.5 447,-0.5 383,-0.5"/>
<text text-anchor="middle" x="415" y="-7.1" font-family="Helvetica,sans-Serif" font-size="8.00">Observable.h</text>
</a>
</g>
</g>
<!-- Node2&#45;&gt;Node5 -->
<g id="edge4" class="edge"><title>Node2&#45;&gt;Node5</title>
<path fill="none" stroke="midnightblue" d="M231.936,-108.108C218.724,-95.6591 197.179,-71.1197 211,-54 230.896,-29.355 318.774,-17.8497 372.492,-13.0318"/>
<polygon fill="midnightblue" stroke="midnightblue" points="373.084,-16.4941 382.75,-12.1555 372.488,-9.51947 373.084,-16.4941"/>
</g>
<!-- Node6 -->
<g id="node6" class="node"><title>Node6</title>
<g id="a_node6"><a xlink:href="../../d9/df1/_observable2_d_8h.html" target="_top" xlink:title="Observable2D.h">
<polygon fill="none" stroke="red" points="378,-54.5 378,-71.5 452,-71.5 452,-54.5 378,-54.5"/>
<text text-anchor="middle" x="415" y="-61.1" font-family="Helvetica,sans-Serif" font-size="8.00">Observable2D.h</text>
</a>
</g>
</g>
<!-- Node2&#45;&gt;Node6 -->
<g id="edge5" class="edge"><title>Node2&#45;&gt;Node6</title>
<path fill="none" stroke="midnightblue" d="M266.301,-108.439C296.198,-99.5042 346.121,-84.5846 379.784,-74.5245"/>
<polygon fill="midnightblue" stroke="midnightblue" points="381.089,-77.7873 389.668,-71.5704 379.085,-71.0804 381.089,-77.7873"/>
</g>
<!-- Node7 -->
<g id="node7" class="node"><title>Node7</title>
<polygon fill="none" stroke="#bfbfbf" points="220.5,-54.5 220.5,-71.5 359.5,-71.5 359.5,-54.5 220.5,-54.5"/>
<text text-anchor="middle" x="290" y="-61.1" font-family="Helvetica,sans-Serif" font-size="8.00">CorrelatedGaussianObservables.h</text>
</g>
<!-- Node2&#45;&gt;Node7 -->
<g id="edge7" class="edge"><title>Node2&#45;&gt;Node7</title>
<path fill="none" stroke="midnightblue" d="M248.23,-108.327C255.468,-100.646 266.797,-88.6239 275.831,-79.0363"/>
<polygon fill="midnightblue" stroke="midnightblue" points="278.429,-81.3825 282.74,-71.7043 273.335,-76.5819 278.429,-81.3825"/>
</g>
<!-- Node6&#45;&gt;Node5 -->
<g id="edge6" class="edge"><title>Node6&#45;&gt;Node5</title>
<path fill="none" stroke="midnightblue" d="M415,-54.3272C415,-47.4145 415,-36.985 415,-27.9789"/>
<polygon fill="midnightblue" stroke="midnightblue" points="418.5,-27.7042 415,-17.7043 411.5,-27.7043 418.5,-27.7042"/>
</g>
<!-- Node8&#45;&gt;Node5 -->
<g id="edge9" class="edge"><title>Node8&#45;&gt;Node5</title>
<path fill="none" stroke="midnightblue" d="M473.826,-108.243C473.244,-95.9794 470.828,-71.6892 461,-54 454.507,-42.3141 443.879,-31.8475 434.474,-24.0572"/>
<polygon fill="midnightblue" stroke="midnightblue" points="436.369,-21.0959 426.334,-17.697 432.059,-26.6119 436.369,-21.0959"/>
</g>
<!-- Node8&#45;&gt;Node6 -->
<g id="edge10" class="edge"><title>Node8&#45;&gt;Node6</title>
<path fill="none" stroke="midnightblue" d="M465.294,-108.327C456.405,-100.493 442.391,-88.1412 431.411,-78.4641"/>
<polygon fill="midnightblue" stroke="midnightblue" points="433.558,-75.6906 423.741,-71.7043 428.929,-80.942 433.558,-75.6906"/>
</g>
<!-- Node8&#45;&gt;Node7 -->
<g id="edge11" class="edge"><title>Node8&#45;&gt;Node7</title>
<path fill="none" stroke="midnightblue" d="M447.245,-108.439C415.494,-99.4657 362.382,-84.4558 326.781,-74.3946"/>
<polygon fill="midnightblue" stroke="midnightblue" points="327.362,-70.9219 316.787,-71.5704 325.459,-77.6581 327.362,-70.9219"/>
</g>
<!-- Node8&#45;&gt;Node9 -->
<g id="edge12" class="edge"><title>Node8&#45;&gt;Node9</title>
<path fill="none" stroke="midnightblue" d="M484.034,-108.327C494.48,-100.339 511.066,-87.6551 523.826,-77.8979"/>
<polygon fill="midnightblue" stroke="midnightblue" points="526.108,-80.5591 531.925,-71.7043 521.856,-74.9985 526.108,-80.5591"/>
</g>
<!-- Node8&#45;&gt;Node10 -->
<g id="edge13" class="edge"><title>Node8&#45;&gt;Node10</title>
<path fill="none" stroke="midnightblue" d="M496.393,-108.439C522.625,-99.5812 566.278,-84.8414 596.058,-74.7857"/>
<polygon fill="midnightblue" stroke="midnightblue" points="597.225,-78.0857 605.58,-71.5704 594.986,-71.4535 597.225,-78.0857"/>
</g>
</g>
</svg>
