<?xml version="1.0" encoding="UTF-8" standalone="no"?>
<!DOCTYPE svg PUBLIC "-//W3C//DTD SVG 1.1//EN"
 "http://www.w3.org/Graphics/SVG/1.1/DTD/svg11.dtd">
<!-- Generated by graphviz version 2.40.1 (20161225.0304)
 -->
<!-- Title: BasicTimer.hpp Pages: 1 -->
<svg width="480pt" height="242pt"
 viewBox="0.00 0.00 479.50 242.00" xmlns="http://www.w3.org/2000/svg" xmlns:xlink="http://www.w3.org/1999/xlink">
<g id="graph0" class="graph" transform="scale(1 1) rotate(0) translate(4 238)">
<title>BasicTimer.hpp</title>
<!-- Node3 -->
<g id="node1" class="node">
<title>Node3</title>
<polygon fill="#bfbfbf" stroke="#000000" points="233,-216.5 233,-233.5 305,-233.5 305,-216.5 233,-216.5"/>
<text text-anchor="middle" x="269" y="-223.1" font-family="Helvetica,sans-Serif" font-size="8.00" fill="#000000">BasicTimer.hpp</text>
</g>
<!-- Node4 -->
<g id="node2" class="node">
<title>Node4</title>
<g id="a_node2"><a xlink:href="../../d8/d14/_b_o_llib_8hpp.html" target="_top" xlink:title="BOLlib.hpp">
<polygon fill="none" stroke="#ff0000" points="200,-162.5 200,-179.5 256,-179.5 256,-162.5 200,-162.5"/>
<text text-anchor="middle" x="228" y="-169.1" font-family="Helvetica,sans-Serif" font-size="8.00" fill="#000000">BOLlib.hpp</text>
</a>
</g>
</g>
<!-- Node3&#45;&gt;Node4 -->
<g id="edge1" class="edge">
<title>Node3&#45;&gt;Node4</title>
<path fill="none" stroke="#191970" d="M255.9828,-207.8554C248.8833,-198.5048 240.396,-187.3265 234.6443,-179.7511"/>
<polygon fill="#191970" stroke="#191970" points="253.395,-210.235 262.2297,-216.083 258.9701,-206.002 253.395,-210.235"/>
</g>
<!-- Node156 -->
<g id="node10" class="node">
<title>Node156</title>
<g id="a_node10"><a xlink:href="../../dd/d64/_basic_timer_8cpp.html" target="_top" xlink:title="BasicTimer.cpp">
<polygon fill="none" stroke="#000000" points="274,-162.5 274,-179.5 346,-179.5 346,-162.5 274,-162.5"/>
<text text-anchor="middle" x="310" y="-169.1" font-family="Helvetica,sans-Serif" font-size="8.00" fill="#000000">BasicTimer.cpp</text>
</a>
</g>
</g>
<!-- Node3&#45;&gt;Node156 -->
<g id="edge12" class="edge">
<title>Node3&#45;&gt;Node156</title>
<path fill="none" stroke="#191970" d="M282.0172,-207.8554C289.1167,-198.5048 297.604,-187.3265 303.3557,-179.7511"/>
<polygon fill="#191970" stroke="#191970" points="279.0299,-206.002 275.7703,-216.083 284.605,-210.235 279.0299,-206.002"/>
</g>
<!-- Node5 -->
<g id="node3" class="node">
<title>Node5</title>
<g id="a_node3"><a xlink:href="../../d4/d01/_object_line_8hpp.html" target="_top" xlink:title="ObjectLine.hpp">
<polygon fill="none" stroke="#ff0000" points="0,-108.5 0,-125.5 70,-125.5 70,-108.5 0,-108.5"/>
<text text-anchor="middle" x="35" y="-115.1" font-family="Helvetica,sans-Serif" font-size="8.00" fill="#000000">ObjectLine.hpp</text>
</a>
</g>
</g>
<!-- Node4&#45;&gt;Node5 -->
<g id="edge2" class="edge">
<title>Node4&#45;&gt;Node5</title>
<path fill="none" stroke="#191970" d="M190.1779,-160.4176C153.7789,-150.2335 99.4255,-135.0258 65.6497,-125.5756"/>
<polygon fill="#191970" stroke="#191970" points="189.3629,-163.824 199.9361,-163.1479 191.2491,-157.0829 189.3629,-163.824"/>
</g>
<!-- Node29 -->
<g id="node4" class="node">
<title>Node29</title>
<g id="a_node4"><a xlink:href="../../d0/dcd/_particle_line_8hpp.html" target="_top" xlink:title="ParticleLine.hpp">
<polygon fill="none" stroke="#ff0000" points="88,-108.5 88,-125.5 162,-125.5 162,-108.5 88,-108.5"/>
<text text-anchor="middle" x="125" y="-115.1" font-family="Helvetica,sans-Serif" font-size="8.00" fill="#000000">ParticleLine.hpp</text>
</a>
</g>
</g>
<!-- Node4&#45;&gt;Node29 -->
<g id="edge3" class="edge">
<title>Node4&#45;&gt;Node29</title>
<path fill="none" stroke="#191970" d="M202.4208,-157.5895C183.3766,-147.6052 157.9356,-134.2672 141.5077,-125.6545"/>
<polygon fill="#191970" stroke="#191970" points="200.9695,-160.7805 211.4513,-162.324 204.2198,-154.5808 200.9695,-160.7805"/>
</g>
<!-- Node30 -->
<g id="node5" class="node">
<title>Node30</title>
<g id="a_node5"><a xlink:href="../../d7/db8/_lhef_event_8hpp.html" target="_top" xlink:title="LhefEvent.hpp">
<polygon fill="none" stroke="#ff0000" points="132,-54.5 132,-71.5 200,-71.5 200,-54.5 132,-54.5"/>
<text text-anchor="middle" x="166" y="-61.1" font-family="Helvetica,sans-Serif" font-size="8.00" fill="#000000">LhefEvent.hpp</text>
</a>
</g>
</g>
<!-- Node4&#45;&gt;Node30 -->
<g id="edge7" class="edge">
<title>Node4&#45;&gt;Node30</title>
<path fill="none" stroke="#191970" d="M217.8143,-153.2572C204.3374,-129.7813 181.1058,-89.3133 170.9705,-71.6584"/>
<polygon fill="#191970" stroke="#191970" points="214.9122,-155.2319 222.9263,-162.1619 220.9829,-151.7468 214.9122,-155.2319"/>
</g>
<!-- Node32 -->
<g id="node6" class="node">
<title>Node32</title>
<g id="a_node6"><a xlink:href="../../dd/d66/_lhef_parser_8hpp.html" target="_top" xlink:title="LhefParser.hpp">
<polygon fill="none" stroke="#ff0000" points="161.5,-.5 161.5,-17.5 232.5,-17.5 232.5,-.5 161.5,-.5"/>
<text text-anchor="middle" x="197" y="-7.1" font-family="Helvetica,sans-Serif" font-size="8.00" fill="#000000">LhefParser.hpp</text>
</a>
</g>
</g>
<!-- Node4&#45;&gt;Node32 -->
<g id="edge8" class="edge">
<title>Node4&#45;&gt;Node32</title>
<path fill="none" stroke="#191970" d="M225.5474,-152.2885C222.3735,-129.0986 216.367,-88.4293 209,-54 206.2593,-41.1914 202.1819,-26.5734 199.557,-17.5652"/>
<polygon fill="#191970" stroke="#191970" points="222.1093,-152.9845 226.9065,-162.431 229.0473,-152.0548 222.1093,-152.9845"/>
</g>
<!-- Node28 -->
<g id="node7" class="node">
<title>Node28</title>
<g id="a_node7"><a xlink:href="../../da/d4b/_lhco_parser_8hpp.html" target="_top" xlink:title="LhcoParser.hpp">
<polygon fill="none" stroke="#ff0000" points="256.5,-108.5 256.5,-125.5 329.5,-125.5 329.5,-108.5 256.5,-108.5"/>
<text text-anchor="middle" x="293" y="-115.1" font-family="Helvetica,sans-Serif" font-size="8.00" fill="#000000">LhcoParser.hpp</text>
</a>
</g>
</g>
<!-- Node4&#45;&gt;Node28 -->
<g id="edge6" class="edge">
<title>Node4&#45;&gt;Node28</title>
<path fill="none" stroke="#191970" d="M246.2726,-155.8197C257.9178,-146.1452 272.5995,-133.9481 282.3666,-125.8339"/>
<polygon fill="#191970" stroke="#191970" points="243.8987,-153.2416 238.4434,-162.324 248.3719,-158.6259 243.8987,-153.2416"/>
</g>
<!-- Node45 -->
<g id="node8" class="node">
<title>Node45</title>
<g id="a_node8"><a xlink:href="../../d0/d2e/_mass_eigenstate_8hpp.html" target="_top" xlink:title="MassEigenstate.hpp">
<polygon fill="none" stroke="#ff0000" points="348.5,-54.5 348.5,-71.5 437.5,-71.5 437.5,-54.5 348.5,-54.5"/>
<text text-anchor="middle" x="393" y="-61.1" font-family="Helvetica,sans-Serif" font-size="8.00" fill="#000000">MassEigenstate.hpp</text>
</a>
</g>
</g>
<!-- Node4&#45;&gt;Node45 -->
<g id="edge9" class="edge">
<title>Node4&#45;&gt;Node45</title>
<path fill="none" stroke="#191970" d="M265.8132,-160.3784C288.1211,-152.975 316.1668,-141.6101 338,-126 359.4957,-110.6311 378.226,-85.2726 387.2583,-71.8964"/>
<polygon fill="#191970" stroke="#191970" points="264.4755,-157.1312 256.0103,-163.5023 266.601,-163.8008 264.4755,-157.1312"/>
</g>
<!-- Node111 -->
<g id="node9" class="node">
<title>Node111</title>
<g id="a_node9"><a xlink:href="../../db/dbc/_extended_mass_8hpp.html" target="_top" xlink:title="ExtendedMass.hpp">
<polygon fill="none" stroke="#ff0000" points="386.5,-108.5 386.5,-125.5 471.5,-125.5 471.5,-108.5 386.5,-108.5"/>
<text text-anchor="middle" x="429" y="-115.1" font-family="Helvetica,sans-Serif" font-size="8.00" fill="#000000">ExtendedMass.hpp</text>
</a>
</g>
</g>
<!-- Node4&#45;&gt;Node111 -->
<g id="edge10" class="edge">
<title>Node4&#45;&gt;Node111</title>
<path fill="none" stroke="#191970" d="M266.0368,-160.7812C303.9553,-150.5941 361.5307,-135.1261 397.1241,-125.5637"/>
<polygon fill="#191970" stroke="#191970" points="265.1215,-157.4029 256.3721,-163.3776 266.9378,-164.1632 265.1215,-157.4029"/>
</g>
<!-- Node29&#45;&gt;Node30 -->
<g id="edge4" class="edge">
<title>Node29&#45;&gt;Node30</title>
<path fill="none" stroke="#191970" d="M138.0172,-99.8554C145.1167,-90.5048 153.604,-79.3265 159.3557,-71.7511"/>
<polygon fill="#191970" stroke="#191970" points="135.0299,-98.002 131.7703,-108.083 140.605,-102.235 135.0299,-98.002"/>
</g>
<!-- Node30&#45;&gt;Node32 -->
<g id="edge5" class="edge">
<title>Node30&#45;&gt;Node32</title>
<path fill="none" stroke="#191970" d="M176.1756,-45.2747C181.4739,-36.0454 187.717,-25.1703 191.9762,-17.7511"/>
<polygon fill="#191970" stroke="#191970" points="173.0624,-43.6679 171.119,-54.083 179.1331,-47.153 173.0624,-43.6679"/>
</g>
<!-- Node111&#45;&gt;Node45 -->
<g id="edge11" class="edge">
<title>Node111&#45;&gt;Node45</title>
<path fill="none" stroke="#191970" d="M417.3771,-99.5656C411.1832,-90.2747 403.8323,-79.2484 398.8341,-71.7511"/>
<polygon fill="#191970" stroke="#191970" points="414.5961,-101.7039 423.0553,-108.083 420.4205,-97.821 414.5961,-101.7039"/>
</g>
</g>
</svg>
