<?xml version="1.0" encoding="UTF-8" standalone="no"?>
<!DOCTYPE svg PUBLIC "-//W3C//DTD SVG 1.1//EN"
 "http://www.w3.org/Graphics/SVG/1.1/DTD/svg11.dtd">
<!-- Generated by graphviz version 2.40.1 (20161225.0304)
 -->
<!-- Title: EWSMThreeLoopQCD.cpp Pages: 1 -->
<svg width="302pt" height="296pt"
 viewBox="0.00 0.00 301.50 296.00" xmlns="http://www.w3.org/2000/svg" xmlns:xlink="http://www.w3.org/1999/xlink">
<g id="graph0" class="graph" transform="scale(1 1) rotate(0) translate(4 292)">
<title>EWSMThreeLoopQCD.cpp</title>
<!-- Node0 -->
<g id="node1" class="node">
<title>Node0</title>
<polygon fill="#bfbfbf" stroke="#000000" points="93.5,-270.5 93.5,-287.5 206.5,-287.5 206.5,-270.5 93.5,-270.5"/>
<text text-anchor="middle" x="150" y="-277.1" font-family="Helvetica,sans-Serif" font-size="8.00" fill="#000000">EWSMThreeLoopQCD.cpp</text>
</g>
<!-- Node1 -->
<g id="node2" class="node">
<title>Node1</title>
<g id="a_node2"><a xlink:href="../../d8/df5/_e_w_s_m_three_loop_q_c_d_8h.html" target="_top" xlink:title="EWSMThreeLoopQCD.h">
<polygon fill="none" stroke="#000000" points="97.5,-216.5 97.5,-233.5 202.5,-233.5 202.5,-216.5 97.5,-216.5"/>
<text text-anchor="middle" x="150" y="-223.1" font-family="Helvetica,sans-Serif" font-size="8.00" fill="#000000">EWSMThreeLoopQCD.h</text>
</a>
</g>
</g>
<!-- Node0&#45;&gt;Node1 -->
<g id="edge1" class="edge">
<title>Node0&#45;&gt;Node1</title>
<path fill="none" stroke="#191970" d="M150,-270.083C150,-263.0059 150,-252.8611 150,-243.9865"/>
<polygon fill="#191970" stroke="#191970" points="153.5001,-243.751 150,-233.7511 146.5001,-243.7511 153.5001,-243.751"/>
</g>
<!-- Node2 -->
<g id="node3" class="node">
<title>Node2</title>
<g id="a_node3"><a xlink:href="../../d8/d46/_e_w_s_mcache_8h.html" target="_top" xlink:title="EWSMcache.h">
<polygon fill="none" stroke="#000000" points="115.5,-162.5 115.5,-179.5 184.5,-179.5 184.5,-162.5 115.5,-162.5"/>
<text text-anchor="middle" x="150" y="-169.1" font-family="Helvetica,sans-Serif" font-size="8.00" fill="#000000">EWSMcache.h</text>
</a>
</g>
</g>
<!-- Node1&#45;&gt;Node2 -->
<g id="edge2" class="edge">
<title>Node1&#45;&gt;Node2</title>
<path fill="none" stroke="#191970" d="M150,-216.083C150,-209.0059 150,-198.8611 150,-189.9865"/>
<polygon fill="#191970" stroke="#191970" points="153.5001,-189.751 150,-179.7511 146.5001,-189.7511 153.5001,-189.751"/>
</g>
<!-- Node3 -->
<g id="node4" class="node">
<title>Node3</title>
<polygon fill="none" stroke="#bfbfbf" points="0,-108.5 0,-125.5 38,-125.5 38,-108.5 0,-108.5"/>
<text text-anchor="middle" x="19" y="-115.1" font-family="Helvetica,sans-Serif" font-size="8.00" fill="#000000">cmath</text>
</g>
<!-- Node2&#45;&gt;Node3 -->
<g id="edge3" class="edge">
<title>Node2&#45;&gt;Node3</title>
<path fill="none" stroke="#191970" d="M129.2427,-162.4435C107.3031,-153.3998 72.5347,-139.0677 47.9164,-128.9198"/>
<polygon fill="#191970" stroke="#191970" points="48.9583,-125.5636 38.3791,-124.9883 46.2905,-132.0353 48.9583,-125.5636"/>
</g>
<!-- Node4 -->
<g id="node5" class="node">
<title>Node4</title>
<g id="a_node5"><a xlink:href="../../d3/d6b/_p_vfunctions_8h.html" target="_top" xlink:title="PVfunctions.h">
<polygon fill="none" stroke="#000000" points="56,-108.5 56,-125.5 122,-125.5 122,-108.5 56,-108.5"/>
<text text-anchor="middle" x="89" y="-115.1" font-family="Helvetica,sans-Serif" font-size="8.00" fill="#000000">PVfunctions.h</text>
</a>
</g>
</g>
<!-- Node2&#45;&gt;Node4 -->
<g id="edge4" class="edge">
<title>Node2&#45;&gt;Node4</title>
<path fill="none" stroke="#191970" d="M140.1993,-162.324C131.1819,-154.3414 117.594,-142.3128 106.682,-132.6529"/>
<polygon fill="#191970" stroke="#191970" points="108.7866,-129.8416 98.979,-125.8339 104.1467,-135.083 108.7866,-129.8416"/>
</g>
<!-- Node21 -->
<g id="node7" class="node">
<title>Node21</title>
<g id="a_node7"><a xlink:href="../../dd/dc1/_polylogarithms_8h.html" target="_top" xlink:title="Polylogarithms.h">
<polygon fill="none" stroke="#000000" points="82,-54.5 82,-71.5 158,-71.5 158,-54.5 82,-54.5"/>
<text text-anchor="middle" x="120" y="-61.1" font-family="Helvetica,sans-Serif" font-size="8.00" fill="#000000">Polylogarithms.h</text>
</a>
</g>
</g>
<!-- Node2&#45;&gt;Node21 -->
<g id="edge9" class="edge">
<title>Node2&#45;&gt;Node21</title>
<path fill="none" stroke="#191970" d="M147.545,-162.1619C142.6644,-144.5918 131.6518,-104.9465 125.1259,-81.4532"/>
<polygon fill="#191970" stroke="#191970" points="128.4539,-80.3568 122.4051,-71.6584 121.7093,-82.2303 128.4539,-80.3568"/>
</g>
<!-- Node23 -->
<g id="node9" class="node">
<title>Node23</title>
<g id="a_node9"><a xlink:href="../../db/d48/_clausen_functions_8h.html" target="_top" xlink:title="ClausenFunctions.h">
<polygon fill="none" stroke="#000000" points="176.5,-54.5 176.5,-71.5 263.5,-71.5 263.5,-54.5 176.5,-54.5"/>
<text text-anchor="middle" x="220" y="-61.1" font-family="Helvetica,sans-Serif" font-size="8.00" fill="#000000">ClausenFunctions.h</text>
</a>
</g>
</g>
<!-- Node2&#45;&gt;Node23 -->
<g id="edge10" class="edge">
<title>Node2&#45;&gt;Node23</title>
<path fill="none" stroke="#191970" d="M155.7284,-162.1619C167.3226,-144.2738 193.7473,-103.5041 208.856,-80.1936"/>
<polygon fill="#191970" stroke="#191970" points="211.8861,-81.9536 214.3881,-71.6584 206.0121,-78.1463 211.8861,-81.9536"/>
</g>
<!-- Node24 -->
<g id="node10" class="node">
<title>Node24</title>
<g id="a_node10"><a xlink:href="../../d6/d0a/_standard_model_8h.html" target="_top" xlink:title="StandardModel.h">
<polygon fill="none" stroke="#ff0000" points="216.5,-108.5 216.5,-125.5 293.5,-125.5 293.5,-108.5 216.5,-108.5"/>
<text text-anchor="middle" x="255" y="-115.1" font-family="Helvetica,sans-Serif" font-size="8.00" fill="#000000">StandardModel.h</text>
</a>
</g>
</g>
<!-- Node2&#45;&gt;Node24 -->
<g id="edge12" class="edge">
<title>Node2&#45;&gt;Node24</title>
<path fill="none" stroke="#191970" d="M166.8701,-162.324C183.7088,-153.6641 209.8065,-140.2424 229.238,-130.249"/>
<polygon fill="#191970" stroke="#191970" points="230.8796,-133.3405 238.1718,-125.6545 227.6782,-127.1155 230.8796,-133.3405"/>
</g>
<!-- Node5 -->
<g id="node6" class="node">
<title>Node5</title>
<g id="a_node6"><a xlink:href="../../d9/d72/gslpp_8h.html" target="_top" xlink:title="gslpp.h">
<polygon fill="none" stroke="#ff0000" points="66,-.5 66,-17.5 108,-17.5 108,-.5 66,-.5"/>
<text text-anchor="middle" x="87" y="-7.1" font-family="Helvetica,sans-Serif" font-size="8.00" fill="#000000">gslpp.h</text>
</a>
</g>
</g>
<!-- Node4&#45;&gt;Node5 -->
<g id="edge5" class="edge">
<title>Node4&#45;&gt;Node5</title>
<path fill="none" stroke="#191970" d="M84.8888,-108.2771C80.9413,-99.3833 75.255,-85.0736 73,-72 70.3516,-56.6457 74.7116,-39.3827 79.2474,-26.8153"/>
<polygon fill="#191970" stroke="#191970" points="82.5056,-28.0938 82.9488,-17.5082 76.0011,-25.5069 82.5056,-28.0938"/>
</g>
<!-- Node4&#45;&gt;Node21 -->
<g id="edge6" class="edge">
<title>Node4&#45;&gt;Node21</title>
<path fill="none" stroke="#191970" d="M94.119,-108.083C98.4075,-100.6127 104.6582,-89.7244 109.9423,-80.5199"/>
<polygon fill="#191970" stroke="#191970" points="113.0329,-82.1662 114.9762,-71.7511 106.9621,-78.6811 113.0329,-82.1662"/>
</g>
<!-- Node21&#45;&gt;Node5 -->
<g id="edge7" class="edge">
<title>Node21&#45;&gt;Node5</title>
<path fill="none" stroke="#191970" d="M114.5507,-54.083C109.9855,-46.6127 103.3316,-35.7244 97.7066,-26.5199"/>
<polygon fill="#191970" stroke="#191970" points="100.5489,-24.4588 92.3479,-17.7511 94.5759,-28.109 100.5489,-24.4588"/>
</g>
<!-- Node22 -->
<g id="node8" class="node">
<title>Node22</title>
<g id="a_node8"><a xlink:href="../../d1/d27/_bernoulli_numbers_8h.html" target="_top" xlink:title="BernoulliNumbers.h">
<polygon fill="none" stroke="#000000" points="151.5,-.5 151.5,-17.5 238.5,-17.5 238.5,-.5 151.5,-.5"/>
<text text-anchor="middle" x="195" y="-7.1" font-family="Helvetica,sans-Serif" font-size="8.00" fill="#000000">BernoulliNumbers.h</text>
</a>
</g>
</g>
<!-- Node21&#45;&gt;Node22 -->
<g id="edge8" class="edge">
<title>Node21&#45;&gt;Node22</title>
<path fill="none" stroke="#191970" d="M132.05,-54.324C143.4631,-46.1066 160.831,-33.6017 174.4349,-23.8069"/>
<polygon fill="#191970" stroke="#191970" points="176.6604,-26.5174 182.7307,-17.8339 172.5703,-20.8366 176.6604,-26.5174"/>
</g>
<!-- Node23&#45;&gt;Node22 -->
<g id="edge11" class="edge">
<title>Node23&#45;&gt;Node22</title>
<path fill="none" stroke="#191970" d="M215.8718,-54.083C212.4861,-46.77 207.584,-36.1814 203.3812,-27.1034"/>
<polygon fill="#191970" stroke="#191970" points="206.4289,-25.3553 199.0514,-17.7511 200.0766,-28.2962 206.4289,-25.3553"/>
</g>
</g>
</svg>
