<?xml version="1.0" encoding="UTF-8" standalone="no"?>
<!DOCTYPE svg PUBLIC "-//W3C//DTD SVG 1.1//EN"
 "http://www.w3.org/Graphics/SVG/1.1/DTD/svg11.dtd">
<!-- Generated by graphviz version 2.40.1 (20161225.0304)
 -->
<!-- Title: InputParser.h Pages: 1 -->
<svg width="559pt" height="143pt"
 viewBox="0.00 0.00 558.78 143.00" xmlns="http://www.w3.org/2000/svg" xmlns:xlink="http://www.w3.org/1999/xlink">
<g id="graph0" class="graph" transform="scale(1 1) rotate(0) translate(4 139)">
<title>InputParser.h</title>
<!-- Node65 -->
<g id="node1" class="node">
<title>Node65</title>
<polygon fill="#bfbfbf" stroke="#000000" points="102.7828,-117.5 102.7828,-134.5 167.7828,-134.5 167.7828,-117.5 102.7828,-117.5"/>
<text text-anchor="middle" x="135.2828" y="-124.1" font-family="Helvetica,sans-Serif" font-size="8.00" fill="#000000">InputParser.h</text>
</g>
<!-- Node66 -->
<g id="node2" class="node">
<title>Node66</title>
<g id="a_node2"><a xlink:href="../../df/d0a/main_8cpp.html" target="_top" xlink:title="main.cpp">
<polygon fill="none" stroke="#000000" points="21.7828,-5 21.7828,-22 70.7828,-22 70.7828,-5 21.7828,-5"/>
<text text-anchor="middle" x="46.2828" y="-11.6" font-family="Helvetica,sans-Serif" font-size="8.00" fill="#000000">main.cpp</text>
</a>
</g>
</g>
<!-- Node65&#45;&gt;Node66 -->
<g id="edge1" class="edge">
<title>Node65&#45;&gt;Node66</title>
<path fill="none" stroke="#191970" d="M92.9365,-117.0447C58.8263,-108.8712 14.8692,-95.8301 4.2828,-81 -10.3118,-60.5549 17.0735,-35.0635 34.1251,-22.0346"/>
<polygon fill="#191970" stroke="#191970" points="92.1752,-120.461 102.7084,-119.3199 93.7626,-113.6433 92.1752,-120.461"/>
</g>
<!-- Node67 -->
<g id="node3" class="node">
<title>Node67</title>
<g id="a_node3"><a xlink:href="../../d1/dae/_compute_observables_8h.html" target="_top" xlink:title="ComputeObservables.h">
<polygon fill="none" stroke="#ff0000" points="282.7828,-63.5 282.7828,-80.5 383.7828,-80.5 383.7828,-63.5 282.7828,-63.5"/>
<text text-anchor="middle" x="333.2828" y="-70.1" font-family="Helvetica,sans-Serif" font-size="8.00" fill="#000000">ComputeObservables.h</text>
</a>
</g>
</g>
<!-- Node65&#45;&gt;Node67 -->
<g id="edge2" class="edge">
<title>Node65&#45;&gt;Node67</title>
<path fill="none" stroke="#191970" d="M176.7212,-114.6986C214.0903,-104.507 268.2256,-89.7429 302.0559,-80.5164"/>
<polygon fill="#191970" stroke="#191970" points="175.3832,-111.4356 166.6565,-117.4435 177.2251,-118.189 175.3832,-111.4356"/>
</g>
<!-- Node74 -->
<g id="node8" class="node">
<title>Node74</title>
<g id="a_node8"><a xlink:href="../../d2/dc8/_generate_event_8h.html" target="_top" xlink:title="GenerateEvent.h">
<polygon fill="none" stroke="#ff0000" points="96.7828,-63.5 96.7828,-80.5 173.7828,-80.5 173.7828,-63.5 96.7828,-63.5"/>
<text text-anchor="middle" x="135.2828" y="-70.1" font-family="Helvetica,sans-Serif" font-size="8.00" fill="#000000">GenerateEvent.h</text>
</a>
</g>
</g>
<!-- Node65&#45;&gt;Node74 -->
<g id="edge7" class="edge">
<title>Node65&#45;&gt;Node74</title>
<path fill="none" stroke="#191970" d="M135.2828,-106.8045C135.2828,-97.9102 135.2828,-87.7798 135.2828,-80.7511"/>
<polygon fill="#191970" stroke="#191970" points="131.7829,-107.083 135.2828,-117.083 138.7829,-107.083 131.7829,-107.083"/>
</g>
<!-- Node76 -->
<g id="node9" class="node">
<title>Node76</title>
<g id="a_node9"><a xlink:href="../../d0/d8e/_input_parser_8cpp.html" target="_top" xlink:title="InputParser.cpp">
<polygon fill="none" stroke="#000000" points="191.7828,-63.5 191.7828,-80.5 264.7828,-80.5 264.7828,-63.5 191.7828,-63.5"/>
<text text-anchor="middle" x="228.2828" y="-70.1" font-family="Helvetica,sans-Serif" font-size="8.00" fill="#000000">InputParser.cpp</text>
</a>
</g>
</g>
<!-- Node65&#45;&gt;Node76 -->
<g id="edge9" class="edge">
<title>Node65&#45;&gt;Node76</title>
<path fill="none" stroke="#191970" d="M159.0885,-112.1774C176.2017,-102.2407 198.7481,-89.1492 213.3779,-80.6545"/>
<polygon fill="#191970" stroke="#191970" points="157.1153,-109.2758 150.2249,-117.324 160.6303,-115.3293 157.1153,-109.2758"/>
</g>
<!-- Node77 -->
<g id="node10" class="node">
<title>Node77</title>
<g id="a_node10"><a xlink:href="../../d2/d66/_monte_carlo_8h.html" target="_top" xlink:title="MonteCarlo.h">
<polygon fill="none" stroke="#ff0000" points="13.7828,-63.5 13.7828,-80.5 78.7828,-80.5 78.7828,-63.5 13.7828,-63.5"/>
<text text-anchor="middle" x="46.2828" y="-70.1" font-family="Helvetica,sans-Serif" font-size="8.00" fill="#000000">MonteCarlo.h</text>
</a>
</g>
</g>
<!-- Node65&#45;&gt;Node77 -->
<g id="edge10" class="edge">
<title>Node65&#45;&gt;Node77</title>
<path fill="none" stroke="#191970" d="M112.0448,-111.9005C95.725,-101.9986 74.4176,-89.0705 60.5467,-80.6545"/>
<polygon fill="#191970" stroke="#191970" points="110.6185,-115.1289 120.9835,-117.324 114.2496,-109.1444 110.6185,-115.1289"/>
</g>
<!-- Node68 -->
<g id="node4" class="node">
<title>Node68</title>
<g id="a_node4"><a xlink:href="../../df/dae/main__als__test_8cpp.html" target="_top" xlink:title="main_als_test.cpp">
<polygon fill="none" stroke="#000000" points="469.7828,-5 469.7828,-22 550.7828,-22 550.7828,-5 469.7828,-5"/>
<text text-anchor="middle" x="510.2828" y="-11.6" font-family="Helvetica,sans-Serif" font-size="8.00" fill="#000000">main_als_test.cpp</text>
</a>
</g>
</g>
<!-- Node67&#45;&gt;Node68 -->
<g id="edge3" class="edge">
<title>Node67&#45;&gt;Node68</title>
<path fill="none" stroke="#191970" d="M368.6298,-60.3175C402.8651,-49.0025 453.9575,-32.116 484.5145,-22.0167"/>
<polygon fill="#191970" stroke="#191970" points="367.4166,-57.0322 359.0202,-63.4936 369.6134,-63.6786 367.4166,-57.0322"/>
</g>
<!-- Node69 -->
<g id="node5" class="node">
<title>Node69</title>
<g id="a_node5"><a xlink:href="../../d6/d68/main__df1evol__test_8cpp.html" target="_top" xlink:title="main_df1evol_test.cpp">
<polygon fill="none" stroke="#000000" points="129.7828,-5 129.7828,-22 226.7828,-22 226.7828,-5 129.7828,-5"/>
<text text-anchor="middle" x="178.2828" y="-11.6" font-family="Helvetica,sans-Serif" font-size="8.00" fill="#000000">main_df1evol_test.cpp</text>
</a>
</g>
</g>
<!-- Node67&#45;&gt;Node69 -->
<g id="edge4" class="edge">
<title>Node67&#45;&gt;Node69</title>
<path fill="none" stroke="#191970" d="M301.164,-59.8777C271.2,-48.5687 227.2627,-31.986 200.8484,-22.0167"/>
<polygon fill="#191970" stroke="#191970" points="300.1528,-63.237 310.7445,-63.4936 302.6246,-56.6879 300.1528,-63.237"/>
</g>
<!-- Node70 -->
<g id="node6" class="node">
<title>Node70</title>
<g id="a_node6"><a xlink:href="../../dd/db3/main__libmode__config__example_8cpp.html" target="_top" xlink:title="main_libmode_config\l_example.cpp">
<polygon fill="none" stroke="#000000" points="245.2828,-.5 245.2828,-26.5 337.2828,-26.5 337.2828,-.5 245.2828,-.5"/>
<text text-anchor="start" x="253.2828" y="-16.1" font-family="Helvetica,sans-Serif" font-size="8.00" fill="#000000">main_libmode_config</text>
<text text-anchor="middle" x="291.2828" y="-7.1" font-family="Helvetica,sans-Serif" font-size="8.00" fill="#000000">_example.cpp</text>
</a>
</g>
</g>
<!-- Node67&#45;&gt;Node70 -->
<g id="edge5" class="edge">
<title>Node67&#45;&gt;Node70</title>
<path fill="none" stroke="#191970" d="M321.1805,-55.1432C314.6924,-46.1062 306.8142,-35.1329 300.7739,-26.7197"/>
<polygon fill="#191970" stroke="#191970" points="318.4103,-57.2861 327.0856,-63.3681 324.0966,-53.2036 318.4103,-57.2861"/>
</g>
<!-- Node71 -->
<g id="node7" class="node">
<title>Node71</title>
<g id="a_node7"><a xlink:href="../../d5/d02/main__libmode__header__example_8cpp.html" target="_top" xlink:title="main_libmode_header\l_example.cpp">
<polygon fill="none" stroke="#000000" points="355.2828,-.5 355.2828,-26.5 451.2828,-26.5 451.2828,-.5 355.2828,-.5"/>
<text text-anchor="start" x="363.2828" y="-16.1" font-family="Helvetica,sans-Serif" font-size="8.00" fill="#000000">main_libmode_header</text>
<text text-anchor="middle" x="403.2828" y="-7.1" font-family="Helvetica,sans-Serif" font-size="8.00" fill="#000000">_example.cpp</text>
</a>
</g>
</g>
<!-- Node67&#45;&gt;Node71 -->
<g id="edge6" class="edge">
<title>Node67&#45;&gt;Node71</title>
<path fill="none" stroke="#191970" d="M351.4544,-56.8138C362.6136,-47.4879 376.7681,-35.6588 387.4644,-26.7197"/>
<polygon fill="#191970" stroke="#191970" points="349.0404,-54.2698 343.6116,-63.3681 353.5293,-59.6411 349.0404,-54.2698"/>
</g>
<!-- Node74&#45;&gt;Node66 -->
<g id="edge8" class="edge">
<title>Node74&#45;&gt;Node66</title>
<path fill="none" stroke="#191970" d="M113.464,-57.6584C96.5572,-46.5455 73.6886,-31.5139 59.469,-22.1673"/>
<polygon fill="#191970" stroke="#191970" points="111.8717,-60.8001 122.1506,-63.3681 115.7166,-54.9506 111.8717,-60.8001"/>
</g>
<!-- Node77&#45;&gt;Node66 -->
<g id="edge11" class="edge">
<title>Node77&#45;&gt;Node66</title>
<path fill="none" stroke="#191970" d="M46.2828,-53.1601C46.2828,-42.7439 46.2828,-30.3023 46.2828,-22.1673"/>
<polygon fill="#191970" stroke="#191970" points="42.7829,-53.3681 46.2828,-63.3681 49.7829,-53.3682 42.7829,-53.3681"/>
</g>
</g>
</svg>
