<?xml version="1.0" encoding="UTF-8" standalone="no"?>
<!DOCTYPE svg PUBLIC "-//W3C//DTD SVG 1.1//EN"
 "http://www.w3.org/Graphics/SVG/1.1/DTD/svg11.dtd">
<!-- Generated by graphviz version 2.40.1 (20161225.0304)
 -->
<!-- Title: GMpositivity.h Pages: 1 -->
<svg width="328pt" height="188pt"
 viewBox="0.00 0.00 327.50 188.00" xmlns="http://www.w3.org/2000/svg" xmlns:xlink="http://www.w3.org/1999/xlink">
<g id="graph0" class="graph" transform="scale(1 1) rotate(0) translate(4 184)">
<title>GMpositivity.h</title>
<!-- Node0 -->
<g id="node1" class="node">
<title>Node0</title>
<polygon fill="#bfbfbf" stroke="#000000" points="118.5,-162.5 118.5,-179.5 185.5,-179.5 185.5,-162.5 118.5,-162.5"/>
<text text-anchor="middle" x="152" y="-169.1" font-family="Helvetica,sans-Serif" font-size="8.00" fill="#000000">GMpositivity.h</text>
</g>
<!-- Node1 -->
<g id="node2" class="node">
<title>Node1</title>
<g id="a_node2"><a xlink:href="../../dd/dcd/_th_observable_8h.html" target="_top" xlink:title="ThObservable.h">
<polygon fill="none" stroke="#000000" points="37.5,-108.5 37.5,-125.5 110.5,-125.5 110.5,-108.5 37.5,-108.5"/>
<text text-anchor="middle" x="74" y="-115.1" font-family="Helvetica,sans-Serif" font-size="8.00" fill="#000000">ThObservable.h</text>
</a>
</g>
</g>
<!-- Node0&#45;&gt;Node1 -->
<g id="edge1" class="edge">
<title>Node0&#45;&gt;Node1</title>
<path fill="none" stroke="#191970" d="M139.468,-162.324C127.4141,-153.979 108.9732,-141.2122 94.7313,-131.3524"/>
<polygon fill="#191970" stroke="#191970" points="96.7151,-128.469 86.5009,-125.6545 92.7306,-134.2243 96.7151,-128.469"/>
</g>
<!-- Node4 -->
<g id="node5" class="node">
<title>Node4</title>
<g id="a_node5"><a xlink:href="../../d7/d3e/_georgi_machacek_8h.html" target="_top" xlink:title="GeorgiMachacek.h">
<polygon fill="none" stroke="#000000" points="110,-54.5 110,-71.5 194,-71.5 194,-54.5 110,-54.5"/>
<text text-anchor="middle" x="152" y="-61.1" font-family="Helvetica,sans-Serif" font-size="8.00" fill="#000000">GeorgiMachacek.h</text>
</a>
</g>
</g>
<!-- Node0&#45;&gt;Node4 -->
<g id="edge4" class="edge">
<title>Node0&#45;&gt;Node4</title>
<path fill="none" stroke="#191970" d="M152,-162.1619C152,-144.6713 152,-105.3048 152,-81.7731"/>
<polygon fill="#191970" stroke="#191970" points="155.5001,-81.6583 152,-71.6584 148.5001,-81.6584 155.5001,-81.6583"/>
</g>
<!-- Node53 -->
<g id="node8" class="node">
<title>Node53</title>
<g id="a_node8"><a xlink:href="../../d2/d68/_g_mcache_8h.html" target="_top" xlink:title="GMcache.h">
<polygon fill="none" stroke="#000000" points="191.5,-108.5 191.5,-125.5 248.5,-125.5 248.5,-108.5 191.5,-108.5"/>
<text text-anchor="middle" x="220" y="-115.1" font-family="Helvetica,sans-Serif" font-size="8.00" fill="#000000">GMcache.h</text>
</a>
</g>
</g>
<!-- Node0&#45;&gt;Node53 -->
<g id="edge7" class="edge">
<title>Node0&#45;&gt;Node53</title>
<path fill="none" stroke="#191970" d="M162.9254,-162.324C173.1746,-154.1849 188.7206,-141.8395 201.001,-132.0874"/>
<polygon fill="#191970" stroke="#191970" points="203.2213,-134.7937 208.8758,-125.8339 198.8681,-129.3119 203.2213,-134.7937"/>
</g>
<!-- Node2 -->
<g id="node3" class="node">
<title>Node2</title>
<polygon fill="none" stroke="#bfbfbf" points="0,-54.5 0,-71.5 38,-71.5 38,-54.5 0,-54.5"/>
<text text-anchor="middle" x="19" y="-61.1" font-family="Helvetica,sans-Serif" font-size="8.00" fill="#000000">vector</text>
</g>
<!-- Node1&#45;&gt;Node2 -->
<g id="edge2" class="edge">
<title>Node1&#45;&gt;Node2</title>
<path fill="none" stroke="#191970" d="M64.9179,-108.083C56.8287,-100.1409 44.8046,-88.3354 35.0898,-78.7973"/>
<polygon fill="#191970" stroke="#191970" points="37.5009,-76.2595 27.9131,-71.7511 32.5967,-81.2545 37.5009,-76.2595"/>
</g>
<!-- Node3 -->
<g id="node4" class="node">
<title>Node3</title>
<polygon fill="none" stroke="#bfbfbf" points="56,-54.5 56,-71.5 92,-71.5 92,-54.5 56,-54.5"/>
<text text-anchor="middle" x="74" y="-61.1" font-family="Helvetica,sans-Serif" font-size="8.00" fill="#000000">string</text>
</g>
<!-- Node1&#45;&gt;Node3 -->
<g id="edge3" class="edge">
<title>Node1&#45;&gt;Node3</title>
<path fill="none" stroke="#191970" d="M74,-108.083C74,-101.0059 74,-90.8611 74,-81.9865"/>
<polygon fill="#191970" stroke="#191970" points="77.5001,-81.751 74,-71.7511 70.5001,-81.7511 77.5001,-81.751"/>
</g>
<!-- Node5 -->
<g id="node6" class="node">
<title>Node5</title>
<g id="a_node6"><a xlink:href="../../d6/d15/_g_m_matching_8h.html" target="_top" xlink:title="GMMatching.h">
<polygon fill="none" stroke="#ff0000" points="78.5,-.5 78.5,-17.5 147.5,-17.5 147.5,-.5 78.5,-.5"/>
<text text-anchor="middle" x="113" y="-7.1" font-family="Helvetica,sans-Serif" font-size="8.00" fill="#000000">GMMatching.h</text>
</a>
</g>
</g>
<!-- Node4&#45;&gt;Node5 -->
<g id="edge5" class="edge">
<title>Node4&#45;&gt;Node5</title>
<path fill="none" stroke="#191970" d="M145.5599,-54.083C140.0511,-46.4554 131.9688,-35.2645 125.235,-25.9408"/>
<polygon fill="#191970" stroke="#191970" points="128.0126,-23.8087 119.3202,-17.7511 122.3378,-27.9071 128.0126,-23.8087"/>
</g>
<!-- Node43 -->
<g id="node7" class="node">
<title>Node43</title>
<g id="a_node7"><a xlink:href="../../d2/de8/_n_pbase_8h.html" target="_top" xlink:title="NPbase.h">
<polygon fill="none" stroke="#ff0000" points="166,-.5 166,-17.5 218,-17.5 218,-.5 166,-.5"/>
<text text-anchor="middle" x="192" y="-7.1" font-family="Helvetica,sans-Serif" font-size="8.00" fill="#000000">NPbase.h</text>
</a>
</g>
</g>
<!-- Node4&#45;&gt;Node43 -->
<g id="edge6" class="edge">
<title>Node4&#45;&gt;Node43</title>
<path fill="none" stroke="#191970" d="M158.6052,-54.083C164.2552,-46.4554 172.5448,-35.2645 179.4512,-25.9408"/>
<polygon fill="#191970" stroke="#191970" points="182.3779,-27.87 185.5177,-17.7511 176.7529,-23.7034 182.3779,-27.87"/>
</g>
<!-- Node53&#45;&gt;Node4 -->
<g id="edge8" class="edge">
<title>Node53&#45;&gt;Node4</title>
<path fill="none" stroke="#191970" d="M209.0746,-108.324C198.8254,-100.1849 183.2794,-87.8395 170.999,-78.0874"/>
<polygon fill="#191970" stroke="#191970" points="173.1319,-75.3119 163.1242,-71.8339 168.7787,-80.7937 173.1319,-75.3119"/>
</g>
<!-- Node23 -->
<g id="node9" class="node">
<title>Node23</title>
<polygon fill="none" stroke="#bfbfbf" points="212,-54.5 212,-71.5 250,-71.5 250,-54.5 212,-54.5"/>
<text text-anchor="middle" x="231" y="-61.1" font-family="Helvetica,sans-Serif" font-size="8.00" fill="#000000">cmath</text>
</g>
<!-- Node53&#45;&gt;Node23 -->
<g id="edge9" class="edge">
<title>Node53&#45;&gt;Node23</title>
<path fill="none" stroke="#191970" d="M221.8164,-108.083C223.2741,-100.9272 225.3706,-90.6353 227.1925,-81.6911"/>
<polygon fill="#191970" stroke="#191970" points="230.6508,-82.2485 229.2174,-71.7511 223.7917,-80.8512 230.6508,-82.2485"/>
</g>
<!-- Node19 -->
<g id="node10" class="node">
<title>Node19</title>
<polygon fill="none" stroke="#bfbfbf" points="268.5,-54.5 268.5,-71.5 319.5,-71.5 319.5,-54.5 268.5,-54.5"/>
<text text-anchor="middle" x="294" y="-61.1" font-family="Helvetica,sans-Serif" font-size="8.00" fill="#000000">stdexcept</text>
</g>
<!-- Node53&#45;&gt;Node19 -->
<g id="edge10" class="edge">
<title>Node53&#45;&gt;Node19</title>
<path fill="none" stroke="#191970" d="M231.8894,-108.324C243.1502,-100.1066 260.2866,-87.6017 273.7091,-77.8069"/>
<polygon fill="#191970" stroke="#191970" points="275.8795,-80.5559 281.8943,-71.8339 271.7532,-74.9014 275.8795,-80.5559"/>
</g>
</g>
</svg>
