<?xml version="1.0" encoding="UTF-8" standalone="no"?>
<!DOCTYPE svg PUBLIC "-//W3C//DTD SVG 1.1//EN"
 "http://www.w3.org/Graphics/SVG/1.1/DTD/svg11.dtd">
<!-- Generated by graphviz version 2.40.1 (20161225.0304)
 -->
<!-- Title: GeneralTHDMunitarity.h Pages: 1 -->
<svg width="258pt" height="134pt"
 viewBox="0.00 0.00 257.50 134.00" xmlns="http://www.w3.org/2000/svg" xmlns:xlink="http://www.w3.org/1999/xlink">
<g id="graph0" class="graph" transform="scale(1 1) rotate(0) translate(4 130)">
<title>GeneralTHDMunitarity.h</title>
<!-- Node59 -->
<g id="node1" class="node">
<title>Node59</title>
<polygon fill="#bfbfbf" stroke="#000000" points="75.5,-108.5 75.5,-125.5 178.5,-125.5 178.5,-108.5 75.5,-108.5"/>
<text text-anchor="middle" x="127" y="-115.1" font-family="Helvetica,sans-Serif" font-size="8.00" fill="#000000">GeneralTHDMunitarity.h</text>
</g>
<!-- Node60 -->
<g id="node2" class="node">
<title>Node60</title>
<g id="a_node2"><a xlink:href="../../d4/d31/_general_t_h_d_m_observables_8h.html" target="_top" xlink:title="GeneralTHDMObservables.h">
<polygon fill="none" stroke="#000000" points="0,-54.5 0,-71.5 120,-71.5 120,-54.5 0,-54.5"/>
<text text-anchor="middle" x="60" y="-61.1" font-family="Helvetica,sans-Serif" font-size="8.00" fill="#000000">GeneralTHDMObservables.h</text>
</a>
</g>
</g>
<!-- Node59&#45;&gt;Node60 -->
<g id="edge1" class="edge">
<title>Node59&#45;&gt;Node60</title>
<path fill="none" stroke="#191970" d="M108.1652,-101.8197C96.1616,-92.1452 81.0283,-79.9481 70.9606,-71.8339"/>
<polygon fill="#191970" stroke="#191970" points="106.253,-104.7738 116.2353,-108.324 110.6457,-99.3236 106.253,-104.7738"/>
</g>
<!-- Node62 -->
<g id="node4" class="node">
<title>Node62</title>
<g id="a_node4"><a xlink:href="../../d5/da8/_general_t_h_d_munitarity_8cpp.html" target="_top" xlink:title="GeneralTHDMunitarity.cpp">
<polygon fill="none" stroke="#000000" points="138.5,-54.5 138.5,-71.5 249.5,-71.5 249.5,-54.5 138.5,-54.5"/>
<text text-anchor="middle" x="194" y="-61.1" font-family="Helvetica,sans-Serif" font-size="8.00" fill="#000000">GeneralTHDMunitarity.cpp</text>
</a>
</g>
</g>
<!-- Node59&#45;&gt;Node62 -->
<g id="edge3" class="edge">
<title>Node59&#45;&gt;Node62</title>
<path fill="none" stroke="#191970" d="M145.8348,-101.8197C157.8384,-92.1452 172.9717,-79.9481 183.0394,-71.8339"/>
<polygon fill="#191970" stroke="#191970" points="143.3543,-99.3236 137.7647,-108.324 147.747,-104.7738 143.3543,-99.3236"/>
</g>
<!-- Node61 -->
<g id="node3" class="node">
<title>Node61</title>
<g id="a_node3"><a xlink:href="../../d1/de2/_th_obs_factory_8cpp.html" target="_top" xlink:title="ThObsFactory.cpp">
<polygon fill="none" stroke="#000000" points="19,-.5 19,-17.5 101,-17.5 101,-.5 19,-.5"/>
<text text-anchor="middle" x="60" y="-7.1" font-family="Helvetica,sans-Serif" font-size="8.00" fill="#000000">ThObsFactory.cpp</text>
</a>
</g>
</g>
<!-- Node60&#45;&gt;Node61 -->
<g id="edge2" class="edge">
<title>Node60&#45;&gt;Node61</title>
<path fill="none" stroke="#191970" d="M60,-43.8045C60,-34.9102 60,-24.7798 60,-17.7511"/>
<polygon fill="#191970" stroke="#191970" points="56.5001,-44.083 60,-54.083 63.5001,-44.083 56.5001,-44.083"/>
</g>
</g>
</svg>
