<?xml version="1.0" encoding="UTF-8" standalone="no"?>
<!DOCTYPE svg PUBLIC "-//W3C//DTD SVG 1.1//EN"
 "http://www.w3.org/Graphics/SVG/1.1/DTD/svg11.dtd">
<!-- Generated by graphviz version 2.40.1 (20161225.0304)
 -->
<!-- Title: ModelMatching.h Pages: 1 -->
<svg width="872pt" height="143pt"
 viewBox="0.00 0.00 872.00 143.00" xmlns="http://www.w3.org/2000/svg" xmlns:xlink="http://www.w3.org/1999/xlink">
<g id="graph0" class="graph" transform="scale(1 1) rotate(0) translate(4 139)">
<title>ModelMatching.h</title>
<!-- Node36 -->
<g id="node1" class="node">
<title>Node36</title>
<polygon fill="#bfbfbf" stroke="#000000" points="374,-117.5 374,-134.5 451,-134.5 451,-117.5 374,-117.5"/>
<text text-anchor="middle" x="412.5" y="-124.1" font-family="Helvetica,sans-Serif" font-size="8.00" fill="#000000">ModelMatching.h</text>
</g>
<!-- Node37 -->
<g id="node2" class="node">
<title>Node37</title>
<g id="a_node2"><a xlink:href="../../d6/d16/_standard_model_matching_8h.html" target="_top" xlink:title="StandardModelMatching.h">
<polygon fill="none" stroke="#ff0000" points="357.5,-63.5 357.5,-80.5 467.5,-80.5 467.5,-63.5 357.5,-63.5"/>
<text text-anchor="middle" x="412.5" y="-70.1" font-family="Helvetica,sans-Serif" font-size="8.00" fill="#000000">StandardModelMatching.h</text>
</a>
</g>
</g>
<!-- Node36&#45;&gt;Node37 -->
<g id="edge1" class="edge">
<title>Node36&#45;&gt;Node37</title>
<path fill="none" stroke="#191970" d="M412.5,-106.8045C412.5,-97.9102 412.5,-87.7798 412.5,-80.7511"/>
<polygon fill="#191970" stroke="#191970" points="409.0001,-107.083 412.5,-117.083 416.0001,-107.083 409.0001,-107.083"/>
</g>
<!-- Node38 -->
<g id="node3" class="node">
<title>Node38</title>
<g id="a_node3"><a xlink:href="../../d0/dc2/_heff_d_f1_8h.html" target="_top" xlink:title="HeffDF1.h">
<polygon fill="none" stroke="#ff0000" points="0,-5 0,-22 53,-22 53,-5 0,-5"/>
<text text-anchor="middle" x="26.5" y="-11.6" font-family="Helvetica,sans-Serif" font-size="8.00" fill="#000000">HeffDF1.h</text>
</a>
</g>
</g>
<!-- Node37&#45;&gt;Node38 -->
<g id="edge2" class="edge">
<title>Node37&#45;&gt;Node38</title>
<path fill="none" stroke="#191970" d="M347.0821,-68.1148C276.1394,-62.8576 159.9763,-51.1974 62.5,-27 57.3173,-25.7135 51.8582,-23.9126 46.8015,-22.0446"/>
<polygon fill="#191970" stroke="#191970" points="346.9876,-71.617 357.2133,-68.8447 347.4907,-64.6351 346.9876,-71.617"/>
</g>
<!-- Node47 -->
<g id="node4" class="node">
<title>Node47</title>
<g id="a_node4"><a xlink:href="../../d3/d6c/_c_m_f_v_matching_8h.html" target="_top" xlink:title="CMFVMatching.h">
<polygon fill="none" stroke="#ff0000" points="71.5,-5 71.5,-22 149.5,-22 149.5,-5 71.5,-5"/>
<text text-anchor="middle" x="110.5" y="-11.6" font-family="Helvetica,sans-Serif" font-size="8.00" fill="#000000">CMFVMatching.h</text>
</a>
</g>
</g>
<!-- Node37&#45;&gt;Node47 -->
<g id="edge3" class="edge">
<title>Node37&#45;&gt;Node47</title>
<path fill="none" stroke="#191970" d="M347.1859,-62.2497C295.671,-54.1218 222.1445,-41.5504 158.5,-27 152.1708,-25.553 145.4303,-23.7952 139.0626,-22.0328"/>
<polygon fill="#191970" stroke="#191970" points="346.7649,-65.7263 357.186,-63.8153 347.8477,-58.8106 346.7649,-65.7263"/>
</g>
<!-- Node52 -->
<g id="node5" class="node">
<title>Node52</title>
<g id="a_node5"><a xlink:href="../../d0/df8/_flavour_wilson_coefficient_matching_8h.html" target="_top" xlink:title="FlavourWilsonCoefficient\lMatching.h">
<polygon fill="none" stroke="#ff0000" points="168,-.5 168,-26.5 273,-26.5 273,-.5 168,-.5"/>
<text text-anchor="start" x="176" y="-16.1" font-family="Helvetica,sans-Serif" font-size="8.00" fill="#000000">FlavourWilsonCoefficient</text>
<text text-anchor="middle" x="220.5" y="-7.1" font-family="Helvetica,sans-Serif" font-size="8.00" fill="#000000">Matching.h</text>
</a>
</g>
</g>
<!-- Node37&#45;&gt;Node52 -->
<g id="edge4" class="edge">
<title>Node37&#45;&gt;Node52</title>
<path fill="none" stroke="#191970" d="M374.7027,-60.4836C342.6697,-50.7236 296.749,-36.7321 263.3552,-26.5574"/>
<polygon fill="#191970" stroke="#191970" points="373.9956,-63.927 384.5816,-63.4936 376.0358,-57.2309 373.9956,-63.927"/>
</g>
<!-- Node56 -->
<g id="node6" class="node">
<title>Node56</title>
<g id="a_node6"><a xlink:href="../../de/de5/_loop_mediators_matching_8h.html" target="_top" xlink:title="LoopMediatorsMatching.h">
<polygon fill="none" stroke="#ff0000" points="291,-5 291,-22 400,-22 400,-5 291,-5"/>
<text text-anchor="middle" x="345.5" y="-11.6" font-family="Helvetica,sans-Serif" font-size="8.00" fill="#000000">LoopMediatorsMatching.h</text>
</a>
</g>
</g>
<!-- Node37&#45;&gt;Node56 -->
<g id="edge5" class="edge">
<title>Node37&#45;&gt;Node56</title>
<path fill="none" stroke="#191970" d="M395.0038,-56.7235C382.3956,-45.7148 365.8339,-31.2543 355.4266,-22.1673"/>
<polygon fill="#191970" stroke="#191970" points="392.7792,-59.4275 402.6139,-63.3681 397.3832,-54.1545 392.7792,-59.4275"/>
</g>
<!-- Node60 -->
<g id="node7" class="node">
<title>Node60</title>
<g id="a_node7"><a xlink:href="../../d0/d91/_real_weak_e_f_t_l_f_v_matching_8h.html" target="_top" xlink:title="RealWeakEFTLFVMatching.h">
<polygon fill="none" stroke="#ff0000" points="418.5,-5 418.5,-22 540.5,-22 540.5,-5 418.5,-5"/>
<text text-anchor="middle" x="479.5" y="-11.6" font-family="Helvetica,sans-Serif" font-size="8.00" fill="#000000">RealWeakEFTLFVMatching.h</text>
</a>
</g>
</g>
<!-- Node37&#45;&gt;Node60 -->
<g id="edge6" class="edge">
<title>Node37&#45;&gt;Node60</title>
<path fill="none" stroke="#191970" d="M429.9962,-56.7235C442.6044,-45.7148 459.1661,-31.2543 469.5734,-22.1673"/>
<polygon fill="#191970" stroke="#191970" points="427.6168,-54.1545 422.3861,-63.3681 432.2208,-59.4275 427.6168,-54.1545"/>
</g>
<!-- Node64 -->
<g id="node8" class="node">
<title>Node64</title>
<g id="a_node8"><a xlink:href="../../d4/dbe/_general_t_h_d_m_matching_8h.html" target="_top" xlink:title="GeneralTHDMMatching.h">
<polygon fill="none" stroke="#ff0000" points="559,-5 559,-22 666,-22 666,-5 559,-5"/>
<text text-anchor="middle" x="612.5" y="-11.6" font-family="Helvetica,sans-Serif" font-size="8.00" fill="#000000">GeneralTHDMMatching.h</text>
</a>
</g>
</g>
<!-- Node37&#45;&gt;Node64 -->
<g id="edge7" class="edge">
<title>Node37&#45;&gt;Node64</title>
<path fill="none" stroke="#191970" d="M451.4481,-60.6077C490.1313,-49.2929 548.5592,-32.2027 583.3832,-22.0167"/>
<polygon fill="#191970" stroke="#191970" points="450.197,-57.3269 441.5817,-63.4936 452.1622,-64.0454 450.197,-57.3269"/>
</g>
<!-- Node90 -->
<g id="node9" class="node">
<title>Node90</title>
<g id="a_node9"><a xlink:href="../../df/d9e/_georgi_machacek_8cpp.html" target="_top" xlink:title="GeorgiMachacek.cpp">
<polygon fill="none" stroke="#000000" points="684.5,-5 684.5,-22 776.5,-22 776.5,-5 684.5,-5"/>
<text text-anchor="middle" x="730.5" y="-11.6" font-family="Helvetica,sans-Serif" font-size="8.00" fill="#000000">GeorgiMachacek.cpp</text>
</a>
</g>
</g>
<!-- Node37&#45;&gt;Node90 -->
<g id="edge8" class="edge">
<title>Node37&#45;&gt;Node90</title>
<path fill="none" stroke="#191970" d="M477.6309,-62.179C531.0017,-53.8141 608.3946,-40.9581 675.5,-27 682.6233,-25.5183 690.224,-23.7652 697.431,-22.0214"/>
<polygon fill="#191970" stroke="#191970" points="476.9619,-58.7409 467.6203,-63.7394 478.0401,-65.6574 476.9619,-58.7409"/>
</g>
<!-- Node91 -->
<g id="node10" class="node">
<title>Node91</title>
<g id="a_node10"><a xlink:href="../../d6/d15/_g_m_matching_8h.html" target="_top" xlink:title="GMMatching.h">
<polygon fill="none" stroke="#ff0000" points="795,-5 795,-22 864,-22 864,-5 795,-5"/>
<text text-anchor="middle" x="829.5" y="-11.6" font-family="Helvetica,sans-Serif" font-size="8.00" fill="#000000">GMMatching.h</text>
</a>
</g>
</g>
<!-- Node37&#45;&gt;Node91 -->
<g id="edge9" class="edge">
<title>Node37&#45;&gt;Node91</title>
<path fill="none" stroke="#191970" d="M477.8978,-67.6449C552.8274,-61.8409 679.0033,-49.5745 785.5,-27 791.597,-25.7076 798.0634,-23.9495 804.108,-22.1294"/>
<polygon fill="#191970" stroke="#191970" points="477.3786,-64.1741 467.6724,-68.4213 477.9087,-71.154 477.3786,-64.1741"/>
</g>
</g>
</svg>
