<?xml version="1.0" encoding="UTF-8" standalone="no"?>
<!DOCTYPE svg PUBLIC "-//W3C//DTD SVG 1.1//EN"
 "http://www.w3.org/Graphics/SVG/1.1/DTD/svg11.dtd">
<!-- Generated by graphviz version 2.38.0 (20140413.2041)
 -->
<!-- Title: Polylogarithms.h Pages: 1 -->
<svg width="572pt" height="134pt"
 viewBox="0.00 0.00 571.50 134.00" xmlns="http://www.w3.org/2000/svg" xmlns:xlink="http://www.w3.org/1999/xlink">
<g id="graph0" class="graph" transform="scale(1 1) rotate(0) translate(4 130)">
<title>Polylogarithms.h</title>
<!-- Node1 -->
<g id="node1" class="node"><title>Node1</title>
<polygon fill="#bfbfbf" stroke="black" points="196.5,-108.5 196.5,-125.5 272.5,-125.5 272.5,-108.5 196.5,-108.5"/>
<text text-anchor="middle" x="234.5" y="-115.1" font-family="Helvetica,sans-Serif" font-size="8.00">Polylogarithms.h</text>
</g>
<!-- Node2 -->
<g id="node2" class="node"><title>Node2</title>
<g id="a_node2"><a xlink:href="../../d2/dd6/_flavour_2src_2bsgamma_8h.html" target="_top" xlink:title="bsgamma.h">
<polygon fill="none" stroke="black" points="81.5,-54.5 81.5,-71.5 139.5,-71.5 139.5,-54.5 81.5,-54.5"/>
<text text-anchor="middle" x="110.5" y="-61.1" font-family="Helvetica,sans-Serif" font-size="8.00">bsgamma.h</text>
</a>
</g>
</g>
<!-- Node1&#45;&gt;Node2 -->
<g id="edge1" class="edge"><title>Node1&#45;&gt;Node2</title>
<path fill="none" stroke="midnightblue" d="M207.226,-104.563C183.312,-94.5341 149.225,-80.2393 128.552,-71.5704"/>
<polygon fill="midnightblue" stroke="midnightblue" points="205.894,-107.799 216.469,-108.439 208.601,-101.344 205.894,-107.799"/>
</g>
<!-- Node5 -->
<g id="node5" class="node"><title>Node5</title>
<g id="a_node5"><a xlink:href="../../df/d62/_polylogarithms_8cpp.html" target="_top" xlink:title="Polylogarithms.cpp">
<polygon fill="none" stroke="black" points="157.5,-54.5 157.5,-71.5 241.5,-71.5 241.5,-54.5 157.5,-54.5"/>
<text text-anchor="middle" x="199.5" y="-61.1" font-family="Helvetica,sans-Serif" font-size="8.00">Polylogarithms.cpp</text>
</a>
</g>
</g>
<!-- Node1&#45;&gt;Node5 -->
<g id="edge4" class="edge"><title>Node1&#45;&gt;Node5</title>
<path fill="none" stroke="midnightblue" d="M223.624,-99.8419C217.314,-90.467 209.656,-79.0892 204.686,-71.7043"/>
<polygon fill="midnightblue" stroke="midnightblue" points="220.848,-101.986 229.336,-108.327 226.655,-98.077 220.848,-101.986"/>
</g>
<!-- Node6 -->
<g id="node6" class="node"><title>Node6</title>
<g id="a_node6"><a xlink:href="../../d3/d6b/_p_vfunctions_8h.html" target="_top" xlink:title="PVfunctions.h">
<polygon fill="none" stroke="black" points="311.5,-54.5 311.5,-71.5 377.5,-71.5 377.5,-54.5 311.5,-54.5"/>
<text text-anchor="middle" x="344.5" y="-61.1" font-family="Helvetica,sans-Serif" font-size="8.00">PVfunctions.h</text>
</a>
</g>
</g>
<!-- Node1&#45;&gt;Node6 -->
<g id="edge5" class="edge"><title>Node1&#45;&gt;Node6</title>
<path fill="none" stroke="midnightblue" d="M259.799,-104.041C280.976,-94.0296 310.545,-80.0516 328.56,-71.5352"/>
<polygon fill="midnightblue" stroke="midnightblue" points="258.276,-100.889 250.731,-108.327 261.267,-107.218 258.276,-100.889"/>
</g>
<!-- Node8 -->
<g id="node8" class="node"><title>Node8</title>
<g id="a_node8"><a xlink:href="../../d8/d46/_e_w_s_mcache_8h.html" target="_top" xlink:title="EWSMcache.h">
<polygon fill="none" stroke="red" points="220,-0.5 220,-17.5 289,-17.5 289,-0.5 220,-0.5"/>
<text text-anchor="middle" x="254.5" y="-7.1" font-family="Helvetica,sans-Serif" font-size="8.00">EWSMcache.h</text>
</a>
</g>
</g>
<!-- Node1&#45;&gt;Node8 -->
<g id="edge10" class="edge"><title>Node1&#45;&gt;Node8</title>
<path fill="none" stroke="midnightblue" d="M241.934,-99.0743C245.134,-91.0289 248.575,-81.1823 250.5,-72 254.527,-52.7865 254.85,-29.5554 254.7,-17.7303"/>
<polygon fill="midnightblue" stroke="midnightblue" points="238.661,-97.8305 238.016,-108.406 245.115,-100.541 238.661,-97.8305"/>
</g>
<!-- Node3 -->
<g id="node3" class="node"><title>Node3</title>
<g id="a_node3"><a xlink:href="../../dd/d19/_flavour_2src_2bsgamma_8cpp.html" target="_top" xlink:title="bsgamma.cpp">
<polygon fill="none" stroke="black" points="0,-0.5 0,-17.5 67,-17.5 67,-0.5 0,-0.5"/>
<text text-anchor="middle" x="33.5" y="-7.1" font-family="Helvetica,sans-Serif" font-size="8.00">bsgamma.cpp</text>
</a>
</g>
</g>
<!-- Node2&#45;&gt;Node3 -->
<g id="edge2" class="edge"><title>Node2&#45;&gt;Node3</title>
<path fill="none" stroke="midnightblue" d="M90.7532,-48.6645C76.1186,-38.7814 56.7006,-25.6679 44.6579,-17.5352"/>
<polygon fill="midnightblue" stroke="midnightblue" points="88.8923,-51.6311 99.1384,-54.3272 92.8099,-45.8301 88.8923,-51.6311"/>
</g>
<!-- Node4 -->
<g id="node4" class="node"><title>Node4</title>
<g id="a_node4"><a xlink:href="../../df/d7a/_flavour_observables_8h.html" target="_top" xlink:title="FlavourObservables.h">
<polygon fill="none" stroke="red" points="85,-0.5 85,-17.5 180,-17.5 180,-0.5 85,-0.5"/>
<text text-anchor="middle" x="132.5" y="-7.1" font-family="Helvetica,sans-Serif" font-size="8.00">FlavourObservables.h</text>
</a>
</g>
</g>
<!-- Node2&#45;&gt;Node4 -->
<g id="edge3" class="edge"><title>Node2&#45;&gt;Node4</title>
<path fill="none" stroke="midnightblue" d="M117.71,-44.9573C121.602,-35.7598 126.214,-24.8584 129.241,-17.7043"/>
<polygon fill="midnightblue" stroke="midnightblue" points="114.419,-43.7538 113.746,-54.3272 120.866,-46.4813 114.419,-43.7538"/>
</g>
<!-- Node7 -->
<g id="node7" class="node"><title>Node7</title>
<g id="a_node7"><a xlink:href="../../da/dd6/_p_vfunctions_8cpp.html" target="_top" xlink:title="PVfunctions.cpp">
<polygon fill="none" stroke="black" points="307.5,-0.5 307.5,-17.5 381.5,-17.5 381.5,-0.5 307.5,-0.5"/>
<text text-anchor="middle" x="344.5" y="-7.1" font-family="Helvetica,sans-Serif" font-size="8.00">PVfunctions.cpp</text>
</a>
</g>
</g>
<!-- Node6&#45;&gt;Node7 -->
<g id="edge6" class="edge"><title>Node6&#45;&gt;Node7</title>
<path fill="none" stroke="midnightblue" d="M344.5,-44.0621C344.5,-35.0603 344.5,-24.6277 344.5,-17.7043"/>
<polygon fill="midnightblue" stroke="midnightblue" points="341,-44.3272 344.5,-54.3272 348,-44.3273 341,-44.3272"/>
</g>
<!-- Node6&#45;&gt;Node8 -->
<g id="edge7" class="edge"><title>Node6&#45;&gt;Node8</title>
<path fill="none" stroke="midnightblue" d="M322.381,-49.2204C305.173,-39.278 281.883,-25.8214 267.542,-17.5352"/>
<polygon fill="midnightblue" stroke="midnightblue" points="320.811,-52.3549 331.22,-54.3272 324.313,-46.2939 320.811,-52.3549"/>
</g>
<!-- Node9 -->
<g id="node9" class="node"><title>Node9</title>
<g id="a_node9"><a xlink:href="../../dd/dc9/_s_u_s_y_matching_8h.html" target="_top" xlink:title="SUSYMatching.h">
<polygon fill="none" stroke="red" points="400,-0.5 400,-17.5 477,-17.5 477,-0.5 400,-0.5"/>
<text text-anchor="middle" x="438.5" y="-7.1" font-family="Helvetica,sans-Serif" font-size="8.00">SUSYMatching.h</text>
</a>
</g>
</g>
<!-- Node6&#45;&gt;Node9 -->
<g id="edge8" class="edge"><title>Node6&#45;&gt;Node9</title>
<path fill="none" stroke="midnightblue" d="M367.602,-49.2204C385.574,-39.278 409.9,-25.8214 424.879,-17.5352"/>
<polygon fill="midnightblue" stroke="midnightblue" points="365.426,-46.4239 358.37,-54.3272 368.815,-52.5492 365.426,-46.4239"/>
</g>
<!-- Node10 -->
<g id="node10" class="node"><title>Node10</title>
<g id="a_node10"><a xlink:href="../../d0/d7c/_t_h_d_mcache_8h.html" target="_top" xlink:title="THDMcache.h">
<polygon fill="none" stroke="red" points="495.5,-0.5 495.5,-17.5 563.5,-17.5 563.5,-0.5 495.5,-0.5"/>
<text text-anchor="middle" x="529.5" y="-7.1" font-family="Helvetica,sans-Serif" font-size="8.00">THDMcache.h</text>
</a>
</g>
</g>
<!-- Node6&#45;&gt;Node10 -->
<g id="edge9" class="edge"><title>Node6&#45;&gt;Node10</title>
<path fill="none" stroke="midnightblue" d="M381.445,-51.6156C417.227,-41.5577 470.629,-26.5475 502.567,-17.5704"/>
<polygon fill="midnightblue" stroke="midnightblue" points="380.08,-48.3633 371.401,-54.4388 381.975,-55.1022 380.08,-48.3633"/>
</g>
</g>
</svg>
