<?xml version="1.0" encoding="UTF-8" standalone="no"?>
<!DOCTYPE svg PUBLIC "-//W3C//DTD SVG 1.1//EN"
 "http://www.w3.org/Graphics/SVG/1.1/DTD/svg11.dtd">
<!-- Generated by graphviz version 2.38.0 (20140413.2041)
 -->
<!-- Title: Bsmumu.h Pages: 1 -->
<svg width="184pt" height="134pt"
 viewBox="0.00 0.00 184.00 134.00" xmlns="http://www.w3.org/2000/svg" xmlns:xlink="http://www.w3.org/1999/xlink">
<g id="graph0" class="graph" transform="scale(1 1) rotate(0) translate(4 130)">
<title>Bsmumu.h</title>
<!-- Node1 -->
<g id="node1" class="node"><title>Node1</title>
<polygon fill="#bfbfbf" stroke="black" points="52,-108.5 52,-125.5 107,-125.5 107,-108.5 52,-108.5"/>
<text text-anchor="middle" x="79.5" y="-115.1" font-family="Helvetica,sans-Serif" font-size="8.00">Bsmumu.h</text>
</g>
<!-- Node2 -->
<g id="node2" class="node"><title>Node2</title>
<g id="a_node2"><a xlink:href="../../de/d38/_bsmumu_8cpp.html" target="_top" xlink:title="Bsmumu.cpp">
<polygon fill="none" stroke="black" points="0,-54.5 0,-71.5 63,-71.5 63,-54.5 0,-54.5"/>
<text text-anchor="middle" x="31.5" y="-61.1" font-family="Helvetica,sans-Serif" font-size="8.00">Bsmumu.cpp</text>
</a>
</g>
</g>
<!-- Node1&#45;&gt;Node2 -->
<g id="edge1" class="edge"><title>Node1&#45;&gt;Node2</title>
<path fill="none" stroke="midnightblue" d="M65.3906,-100.715C56.591,-91.182 45.6415,-79.32 38.6116,-71.7043"/>
<polygon fill="midnightblue" stroke="midnightblue" points="63.0628,-103.353 72.4174,-108.327 68.2064,-98.6052 63.0628,-103.353"/>
</g>
<!-- Node3 -->
<g id="node3" class="node"><title>Node3</title>
<g id="a_node3"><a xlink:href="../../df/d7a/_flavour_observables_8h.html" target="_top" xlink:title="FlavourObservables.h">
<polygon fill="none" stroke="black" points="81,-54.5 81,-71.5 176,-71.5 176,-54.5 81,-54.5"/>
<text text-anchor="middle" x="128.5" y="-61.1" font-family="Helvetica,sans-Serif" font-size="8.00">FlavourObservables.h</text>
</a>
</g>
</g>
<!-- Node1&#45;&gt;Node3 -->
<g id="edge2" class="edge"><title>Node1&#45;&gt;Node3</title>
<path fill="none" stroke="midnightblue" d="M93.6319,-101.003C102.66,-91.422 113.991,-79.3969 121.24,-71.7043"/>
<polygon fill="midnightblue" stroke="midnightblue" points="91.0409,-98.649 86.7301,-108.327 96.1354,-103.45 91.0409,-98.649"/>
</g>
<!-- Node4 -->
<g id="node4" class="node"><title>Node4</title>
<g id="a_node4"><a xlink:href="../../d1/de2/_th_obs_factory_8cpp.html" target="_top" xlink:title="ThObsFactory.cpp">
<polygon fill="none" stroke="black" points="87.5,-0.5 87.5,-17.5 169.5,-17.5 169.5,-0.5 87.5,-0.5"/>
<text text-anchor="middle" x="128.5" y="-7.1" font-family="Helvetica,sans-Serif" font-size="8.00">ThObsFactory.cpp</text>
</a>
</g>
</g>
<!-- Node3&#45;&gt;Node4 -->
<g id="edge3" class="edge"><title>Node3&#45;&gt;Node4</title>
<path fill="none" stroke="midnightblue" d="M128.5,-44.0621C128.5,-35.0603 128.5,-24.6277 128.5,-17.7043"/>
<polygon fill="midnightblue" stroke="midnightblue" points="125,-44.3272 128.5,-54.3272 132,-44.3273 125,-44.3272"/>
</g>
</g>
</svg>
