<?xml version="1.0" encoding="UTF-8" standalone="no"?>
<!DOCTYPE svg PUBLIC "-//W3C//DTD SVG 1.1//EN"
 "http://www.w3.org/Graphics/SVG/1.1/DTD/svg11.dtd">
<!-- Generated by graphviz version 2.38.0 (20140413.2041)
 -->
<!-- Title: SUSYMassInsertion Pages: 1 -->
<svg width="428pt" height="323pt"
 viewBox="0.00 0.00 427.50 323.00" xmlns="http://www.w3.org/2000/svg" xmlns:xlink="http://www.w3.org/1999/xlink">
<g id="graph0" class="graph" transform="scale(1 1) rotate(0) translate(4 319)">
<title>SUSYMassInsertion</title>
<!-- Node1 -->
<g id="node1" class="node"><title>Node1</title>
<polygon fill="#bfbfbf" stroke="black" points="331.5,-63.5 331.5,-80.5 419.5,-80.5 419.5,-63.5 331.5,-63.5"/>
<text text-anchor="middle" x="375.5" y="-70.1" font-family="Helvetica,sans-Serif" font-size="8.00">SUSYMassInsertion</text>
</g>
<!-- Node10 -->
<g id="node10" class="node"><title>Node10</title>
<g id="a_node10"><a xlink:href="../../d5/d1f/class_s_u_s_y_mass_insertion_matching.html" target="_top" xlink:title="A class for the matching of SUSY MIA. ">
<polygon fill="none" stroke="red" points="283,-0.5 283,-17.5 404,-17.5 404,-0.5 283,-0.5"/>
<text text-anchor="middle" x="343.5" y="-7.1" font-family="Helvetica,sans-Serif" font-size="8.00">SUSYMassInsertionMatching</text>
</a>
</g>
</g>
<!-- Node1&#45;&gt;Node10 -->
<g id="edge13" class="edge"><title>Node1&#45;&gt;Node10</title>
<path fill="none" stroke="#9a32cd" stroke-dasharray="5,2" d="M341.415,-58.6273C335.862,-55.0846 330.842,-50.6107 327.5,-45 322.166,-36.0453 329.275,-25.0073 335.642,-17.7503"/>
<polygon fill="#9a32cd" stroke="#9a32cd" points="339.949,-61.8127 350.416,-63.4574 343.26,-55.6448 339.949,-61.8127"/>
<text text-anchor="middle" x="342" y="-38.6" font-family="Helvetica,sans-Serif" font-size="8.00"> SusyMI</text>
</g>
<!-- Node2 -->
<g id="node2" class="node"><title>Node2</title>
<g id="a_node2"><a xlink:href="../../dc/dd5/class_standard_model.html" target="_top" xlink:title="A model class for the Standard Model. ">
<polygon fill="none" stroke="red" points="148,-153.5 148,-170.5 219,-170.5 219,-153.5 148,-153.5"/>
<text text-anchor="middle" x="183.5" y="-160.1" font-family="Helvetica,sans-Serif" font-size="8.00">StandardModel</text>
</a>
</g>
</g>
<!-- Node2&#45;&gt;Node1 -->
<g id="edge1" class="edge"><title>Node2&#45;&gt;Node1</title>
<path fill="none" stroke="midnightblue" d="M208.969,-149.327C248.933,-131.01 325.275,-96.0199 358.899,-80.6088"/>
<polygon fill="midnightblue" stroke="midnightblue" points="207.502,-146.149 199.87,-153.497 210.419,-152.512 207.502,-146.149"/>
</g>
<!-- Node4 -->
<g id="node4" class="node"><title>Node4</title>
<g id="a_node4"><a xlink:href="../../dc/df3/class_e_w_s_mcache.html" target="_top" xlink:title="A class for cache variables used in computing radiative corrections to the EW precision observables...">
<polygon fill="none" stroke="red" points="119,-63.5 119,-80.5 182,-80.5 182,-63.5 119,-63.5"/>
<text text-anchor="middle" x="150.5" y="-70.1" font-family="Helvetica,sans-Serif" font-size="8.00">EWSMcache</text>
</a>
</g>
</g>
<!-- Node2&#45;&gt;Node4 -->
<g id="edge4" class="edge"><title>Node2&#45;&gt;Node4</title>
<path fill="none" stroke="#9a32cd" stroke-dasharray="5,2" d="M162.086,-147.43C149.435,-138.071 134.552,-124.384 127.5,-108 123.131,-97.8486 132.058,-87.4131 140.033,-80.6096"/>
<polygon fill="#9a32cd" stroke="#9a32cd" points="160.158,-150.353 170.364,-153.198 164.16,-144.609 160.158,-150.353"/>
<text text-anchor="middle" x="135" y="-101.6" font-family="Helvetica,sans-Serif" font-size="8.00"> SM</text>
</g>
<!-- Node3 -->
<g id="node3" class="node"><title>Node3</title>
<g id="a_node3"><a xlink:href="../../dd/dfa/class_q_c_d.html" target="_top" xlink:title="A class for parameters related to QCD, hadrons and quarks. ">
<polygon fill="none" stroke="red" points="223.5,-293 223.5,-310 257.5,-310 257.5,-293 223.5,-293"/>
<text text-anchor="middle" x="240.5" y="-299.6" font-family="Helvetica,sans-Serif" font-size="8.00">QCD</text>
</a>
</g>
</g>
<!-- Node3&#45;&gt;Node2 -->
<g id="edge2" class="edge"><title>Node3&#45;&gt;Node2</title>
<path fill="none" stroke="midnightblue" d="M240.175,-282.632C239.259,-264.984 236.212,-237.58 226.5,-216 218.233,-197.631 201.984,-180.287 191.999,-170.706"/>
<polygon fill="midnightblue" stroke="midnightblue" points="236.678,-282.786 240.518,-292.661 243.674,-282.547 236.678,-282.786"/>
</g>
<!-- Node4&#45;&gt;Node2 -->
<g id="edge3" class="edge"><title>Node4&#45;&gt;Node2</title>
<path fill="none" stroke="#9a32cd" stroke-dasharray="5,2" d="M146.413,-90.5354C145.771,-96.2064 145.796,-102.459 147.5,-108 153.058,-126.074 167.11,-143.516 175.923,-153.194"/>
<polygon fill="#9a32cd" stroke="#9a32cd" points="149.859,-91.1515 148.204,-80.6866 142.972,-89.8991 149.859,-91.1515"/>
<text text-anchor="middle" x="177.5" y="-101.6" font-family="Helvetica,sans-Serif" font-size="8.00"> myEWSMcache</text>
</g>
<!-- Node6 -->
<g id="node6" class="node"><title>Node6</title>
<g id="a_node6"><a xlink:href="../../d5/dad/class_e_w_s_m_three_loop_e_w.html" target="_top" xlink:title="A class for &#160;three&#45;loop corrections to the EW precision observables. ">
<polygon fill="none" stroke="black" points="0,-0.5 0,-17.5 93,-17.5 93,-0.5 0,-0.5"/>
<text text-anchor="middle" x="46.5" y="-7.1" font-family="Helvetica,sans-Serif" font-size="8.00">EWSMThreeLoopEW</text>
</a>
</g>
</g>
<!-- Node4&#45;&gt;Node6 -->
<g id="edge7" class="edge"><title>Node4&#45;&gt;Node6</title>
<path fill="none" stroke="#9a32cd" stroke-dasharray="5,2" d="M128.499,-58.0954C107.593,-45.8337 76.8574,-27.8058 59.5647,-17.663"/>
<polygon fill="#9a32cd" stroke="#9a32cd" points="126.932,-61.2339 137.328,-63.2743 130.473,-55.1959 126.932,-61.2339"/>
<text text-anchor="middle" x="117.5" y="-38.6" font-family="Helvetica,sans-Serif" font-size="8.00"> cache</text>
</g>
<!-- Node8 -->
<g id="node8" class="node"><title>Node8</title>
<g id="a_node8"><a xlink:href="../../d5/dde/class_e_w_s_m_approximate_formulae.html" target="_top" xlink:title="A class for approximate formulae of the EW precision observables. ">
<polygon fill="none" stroke="black" points="133.5,-0.5 133.5,-17.5 253.5,-17.5 253.5,-0.5 133.5,-0.5"/>
<text text-anchor="middle" x="193.5" y="-7.1" font-family="Helvetica,sans-Serif" font-size="8.00">EWSMApproximateFormulae</text>
</a>
</g>
</g>
<!-- Node4&#45;&gt;Node8 -->
<g id="edge10" class="edge"><title>Node4&#45;&gt;Node8</title>
<path fill="none" stroke="#9a32cd" stroke-dasharray="5,2" d="M160.411,-54.3443C164.064,-48.4499 168.331,-41.8364 172.5,-36 177.087,-29.5788 182.727,-22.6423 187.007,-17.5501"/>
<polygon fill="#9a32cd" stroke="#9a32cd" points="157.16,-52.9553 154.969,-63.3211 163.146,-56.5842 157.16,-52.9553"/>
<text text-anchor="middle" x="190" y="-38.6" font-family="Helvetica,sans-Serif" font-size="8.00"> mycache</text>
</g>
<!-- Node5 -->
<g id="node5" class="node"><title>Node5</title>
<g id="a_node5"><a xlink:href="../../d9/db9/class_c_k_m.html" target="_top" xlink:title="A class for the CKM matrix elements. ">
<polygon fill="none" stroke="red" points="109.5,-293 109.5,-310 143.5,-310 143.5,-293 109.5,-293"/>
<text text-anchor="middle" x="126.5" y="-299.6" font-family="Helvetica,sans-Serif" font-size="8.00">CKM</text>
</a>
</g>
</g>
<!-- Node5&#45;&gt;Node2 -->
<g id="edge5" class="edge"><title>Node5&#45;&gt;Node2</title>
<path fill="none" stroke="#9a32cd" stroke-dasharray="5,2" d="M129.348,-282.828C132.568,-265.329 138.681,-238.036 148.5,-216 156.219,-198.676 169.365,-180.706 177.161,-170.779"/>
<polygon fill="#9a32cd" stroke="#9a32cd" points="125.886,-282.31 127.64,-292.759 132.785,-283.497 125.886,-282.31"/>
<text text-anchor="middle" x="164" y="-241.1" font-family="Helvetica,sans-Serif" font-size="8.00"> myCKM</text>
</g>
<!-- Node6&#45;&gt;Node2 -->
<g id="edge6" class="edge"><title>Node6&#45;&gt;Node2</title>
<path fill="none" stroke="#9a32cd" stroke-dasharray="5,2" d="M41.1949,-27.3326C37.6108,-42.5282 35.0622,-64.6789 44.5,-81 67.9159,-121.494 120.461,-143.293 153.818,-153.494"/>
<polygon fill="#9a32cd" stroke="#9a32cd" points="44.5728,-28.2487 43.8311,-17.6798 37.8201,-26.4045 44.5728,-28.2487"/>
<text text-anchor="middle" x="77" y="-70.1" font-family="Helvetica,sans-Serif" font-size="8.00"> myThreeLoopEW</text>
</g>
<!-- Node7 -->
<g id="node7" class="node"><title>Node7</title>
<g id="a_node7"><a xlink:href="../../d4/d6d/class_flavour.html" target="_top" xlink:title="The parent class in Flavour for calculating all the Wilson coefficients for various Flavor Violating ...">
<polygon fill="none" stroke="red" points="162,-293 162,-310 205,-310 205,-293 162,-293"/>
<text text-anchor="middle" x="183.5" y="-299.6" font-family="Helvetica,sans-Serif" font-size="8.00">Flavour</text>
</a>
</g>
</g>
<!-- Node7&#45;&gt;Node2 -->
<g id="edge8" class="edge"><title>Node7&#45;&gt;Node2</title>
<path fill="none" stroke="#9a32cd" stroke-dasharray="5,2" d="M183.5,-282.324C183.5,-251.914 183.5,-191.963 183.5,-170.701"/>
<polygon fill="#9a32cd" stroke="#9a32cd" points="180,-282.713 183.5,-292.713 187,-282.713 180,-282.713"/>
<text text-anchor="middle" x="203.5" y="-241.1" font-family="Helvetica,sans-Serif" font-size="8.00"> myFlavour</text>
</g>
<!-- Node8&#45;&gt;Node2 -->
<g id="edge9" class="edge"><title>Node8&#45;&gt;Node2</title>
<path fill="none" stroke="#9a32cd" stroke-dasharray="5,2" d="M203.963,-26.5776C205.424,-29.609 206.699,-32.8216 207.5,-36 215.323,-67.029 214.252,-76.7205 207.5,-108 203.792,-125.18 194.037,-143.49 188.168,-153.458"/>
<polygon fill="#9a32cd" stroke="#9a32cd" points="206.962,-24.7702 199.008,-17.7722 200.862,-28.2035 206.962,-24.7702"/>
<text text-anchor="middle" x="259.5" y="-70.1" font-family="Helvetica,sans-Serif" font-size="8.00"> myApproximateFormulae</text>
</g>
<!-- Node9 -->
<g id="node9" class="node"><title>Node9</title>
<g id="a_node9"><a xlink:href="../../d1/d3c/classgslpp_1_1matrix.html" target="_top" xlink:title="gslpp::matrix\&lt; gslpp\l::complex \&gt;">
<polygon fill="none" stroke="red" points="292.5,-288.5 292.5,-314.5 380.5,-314.5 380.5,-288.5 292.5,-288.5"/>
<text text-anchor="start" x="300.5" y="-304.1" font-family="Helvetica,sans-Serif" font-size="8.00">gslpp::matrix&lt; gslpp</text>
<text text-anchor="middle" x="336.5" y="-295.1" font-family="Helvetica,sans-Serif" font-size="8.00">::complex &gt;</text>
</a>
</g>
</g>
<!-- Node9&#45;&gt;Node1 -->
<g id="edge14" class="edge"><title>Node9&#45;&gt;Node1</title>
<path fill="none" stroke="#9a32cd" stroke-dasharray="5,2" d="M340.307,-278.293C348.771,-228.922 368.823,-111.95 374.17,-80.757"/>
<polygon fill="#9a32cd" stroke="#9a32cd" points="336.837,-277.821 338.597,-288.269 343.736,-279.004 336.837,-277.821"/>
<text text-anchor="middle" x="380.5" y="-191.6" font-family="Helvetica,sans-Serif" font-size="8.00"> Dd_LR</text>
<text text-anchor="middle" x="380.5" y="-182.6" font-family="Helvetica,sans-Serif" font-size="8.00">Du_LR</text>
<text text-anchor="middle" x="380.5" y="-173.6" font-family="Helvetica,sans-Serif" font-size="8.00">Dd_RL</text>
<text text-anchor="middle" x="380.5" y="-164.6" font-family="Helvetica,sans-Serif" font-size="8.00">Du_RL</text>
<text text-anchor="middle" x="380.5" y="-155.6" font-family="Helvetica,sans-Serif" font-size="8.00">Dd_RR</text>
<text text-anchor="middle" x="380.5" y="-146.6" font-family="Helvetica,sans-Serif" font-size="8.00">Dd_LL</text>
<text text-anchor="middle" x="380.5" y="-137.6" font-family="Helvetica,sans-Serif" font-size="8.00">Du_RR</text>
<text text-anchor="middle" x="380.5" y="-128.6" font-family="Helvetica,sans-Serif" font-size="8.00">Du_LL</text>
</g>
<!-- Node9&#45;&gt;Node2 -->
<g id="edge11" class="edge"><title>Node9&#45;&gt;Node2</title>
<path fill="none" stroke="#9a32cd" stroke-dasharray="5,2" d="M316.887,-281.143C299.089,-263.756 271.966,-237.701 247.5,-216 228.721,-199.343 205.903,-180.845 193.212,-170.703"/>
<polygon fill="#9a32cd" stroke="#9a32cd" points="314.774,-283.973 324.365,-288.475 319.674,-278.975 314.774,-283.973"/>
<text text-anchor="middle" x="320" y="-263.6" font-family="Helvetica,sans-Serif" font-size="8.00"> VCKM</text>
<text text-anchor="middle" x="320" y="-254.6" font-family="Helvetica,sans-Serif" font-size="8.00">UPMNS</text>
<text text-anchor="middle" x="320" y="-245.6" font-family="Helvetica,sans-Serif" font-size="8.00">Yn</text>
<text text-anchor="middle" x="320" y="-236.6" font-family="Helvetica,sans-Serif" font-size="8.00">Yd</text>
<text text-anchor="middle" x="320" y="-227.6" font-family="Helvetica,sans-Serif" font-size="8.00">Yu</text>
<text text-anchor="middle" x="320" y="-218.6" font-family="Helvetica,sans-Serif" font-size="8.00">Ye</text>
</g>
<!-- Node10&#45;&gt;Node1 -->
<g id="edge12" class="edge"><title>Node10&#45;&gt;Node1</title>
<path fill="none" stroke="#9a32cd" stroke-dasharray="5,2" d="M354.547,-25.9441C356.63,-29.2085 358.714,-32.6666 360.5,-36 365.372,-45.0899 369.876,-56.0983 372.652,-63.3116"/>
<polygon fill="#9a32cd" stroke="#9a32cd" points="357.385,-23.8927 348.92,-17.5214 351.565,-27.781 357.385,-23.8927"/>
<text text-anchor="middle" x="390" y="-38.6" font-family="Helvetica,sans-Serif" font-size="8.00"> mySUSYMIA</text>
</g>
</g>
</svg>
