<?xml version="1.0" encoding="UTF-8" standalone="no"?>
<!DOCTYPE svg PUBLIC "-//W3C//DTD SVG 1.1//EN"
 "http://www.w3.org/Graphics/SVG/1.1/DTD/svg11.dtd">
<!-- Generated by graphviz version 2.38.0 (20140413.2041)
 -->
<!-- Title: ggF_tth_htoWW Pages: 1 -->
<svg width="421pt" height="270pt"
 viewBox="0.00 0.00 421.00 270.00" xmlns="http://www.w3.org/2000/svg" xmlns:xlink="http://www.w3.org/1999/xlink">
<g id="graph0" class="graph" transform="scale(1 1) rotate(0) translate(4 266)">
<title>ggF_tth_htoWW</title>
<!-- Node1 -->
<g id="node1" class="node"><title>Node1</title>
<polygon fill="#bfbfbf" stroke="black" points="171,-0.5 171,-17.5 245,-17.5 245,-0.5 171,-0.5"/>
<text text-anchor="middle" x="208" y="-7.1" font-family="Helvetica,sans-Serif" font-size="8.00">ggF_tth_htoWW</text>
</g>
<!-- Node2 -->
<g id="node2" class="node"><title>Node2</title>
<g id="a_node2"><a xlink:href="../../d7/d2f/classlight_higgs.html" target="_top" xlink:title="lightHiggs">
<polygon fill="none" stroke="black" points="182,-55.5 182,-72.5 234,-72.5 234,-55.5 182,-55.5"/>
<text text-anchor="middle" x="208" y="-62.1" font-family="Helvetica,sans-Serif" font-size="8.00">lightHiggs</text>
</a>
</g>
</g>
<!-- Node2&#45;&gt;Node1 -->
<g id="edge1" class="edge"><title>Node2&#45;&gt;Node1</title>
<path fill="none" stroke="midnightblue" d="M208,-44.8927C208,-35.5285 208,-24.6052 208,-17.5092"/>
<polygon fill="midnightblue" stroke="midnightblue" points="204.5,-45.1796 208,-55.1797 211.5,-45.1797 204.5,-45.1796"/>
</g>
<!-- Node3 -->
<g id="node3" class="node"><title>Node3</title>
<g id="a_node3"><a xlink:href="../../dc/d1f/class_th_observable.html" target="_top" xlink:title="A class for a model prediction of an observable. ">
<polygon fill="none" stroke="black" points="251.5,-118.5 251.5,-135.5 318.5,-135.5 318.5,-118.5 251.5,-118.5"/>
<text text-anchor="middle" x="285" y="-125.1" font-family="Helvetica,sans-Serif" font-size="8.00">ThObservable</text>
</a>
</g>
</g>
<!-- Node3&#45;&gt;Node2 -->
<g id="edge2" class="edge"><title>Node3&#45;&gt;Node2</title>
<path fill="none" stroke="midnightblue" d="M267.059,-111.787C251.752,-99.661 230.31,-82.6743 217.916,-72.8556"/>
<polygon fill="midnightblue" stroke="midnightblue" points="265.236,-114.808 275.248,-118.274 269.583,-109.321 265.236,-114.808"/>
</g>
<!-- Node4 -->
<g id="node4" class="node"><title>Node4</title>
<g id="a_node4"><a xlink:href="../../dc/dd5/class_standard_model.html" target="_top" xlink:title="A model class for the Standard Model. ">
<polygon fill="none" stroke="red" points="249.5,-181.5 249.5,-198.5 320.5,-198.5 320.5,-181.5 249.5,-181.5"/>
<text text-anchor="middle" x="285" y="-188.1" font-family="Helvetica,sans-Serif" font-size="8.00">StandardModel</text>
</a>
</g>
</g>
<!-- Node4&#45;&gt;Node2 -->
<g id="edge13" class="edge"><title>Node4&#45;&gt;Node2</title>
<path fill="none" stroke="#9a32cd" stroke-dasharray="5,2" d="M260.48,-176.438C245.354,-167.337 226.994,-153.56 217,-136 205.323,-115.483 206.021,-86.3109 207.158,-72.633"/>
<polygon fill="#9a32cd" stroke="#9a32cd" points="258.952,-179.596 269.376,-181.493 262.41,-173.51 258.952,-179.596"/>
<text text-anchor="middle" x="229.5" y="-125.1" font-family="Helvetica,sans-Serif" font-size="8.00"> mySM</text>
</g>
<!-- Node4&#45;&gt;Node3 -->
<g id="edge3" class="edge"><title>Node4&#45;&gt;Node3</title>
<path fill="none" stroke="#9a32cd" stroke-dasharray="5,2" d="M285,-171.27C285,-159.549 285,-144.757 285,-135.856"/>
<polygon fill="#9a32cd" stroke="#9a32cd" points="281.5,-171.274 285,-181.274 288.5,-171.274 281.5,-171.274"/>
<text text-anchor="middle" x="292.5" y="-156.6" font-family="Helvetica,sans-Serif" font-size="8.00"> SM</text>
</g>
<!-- Node6 -->
<g id="node6" class="node"><title>Node6</title>
<g id="a_node6"><a xlink:href="../../dc/df3/class_e_w_s_mcache.html" target="_top" xlink:title="A class for cache variables used in computing radiative corrections to the EW precision observables...">
<polygon fill="none" stroke="red" points="336.5,-118.5 336.5,-135.5 399.5,-135.5 399.5,-118.5 336.5,-118.5"/>
<text text-anchor="middle" x="368" y="-125.1" font-family="Helvetica,sans-Serif" font-size="8.00">EWSMcache</text>
</a>
</g>
</g>
<!-- Node4&#45;&gt;Node6 -->
<g id="edge6" class="edge"><title>Node4&#45;&gt;Node6</title>
<path fill="none" stroke="#9a32cd" stroke-dasharray="5,2" d="M300.513,-174.296C307.715,-167.77 316.541,-160.185 325,-154 334.296,-147.203 345.438,-140.503 354.05,-135.607"/>
<polygon fill="#9a32cd" stroke="#9a32cd" points="297.883,-171.961 292.923,-181.323 302.639,-177.097 297.883,-171.961"/>
<text text-anchor="middle" x="332.5" y="-156.6" font-family="Helvetica,sans-Serif" font-size="8.00"> SM</text>
</g>
<!-- Node8 -->
<g id="node8" class="node"><title>Node8</title>
<g id="a_node8"><a xlink:href="../../d0/d52/class_t_h_d_m.html" target="_top" xlink:title="A base class &#160;symmetric Two&#45;Higgs&#45;Doublet models. ">
<polygon fill="none" stroke="black" points="62,-118.5 62,-135.5 102,-135.5 102,-118.5 62,-118.5"/>
<text text-anchor="middle" x="82" y="-125.1" font-family="Helvetica,sans-Serif" font-size="8.00">THDM</text>
</a>
</g>
</g>
<!-- Node4&#45;&gt;Node8 -->
<g id="edge9" class="edge"><title>Node4&#45;&gt;Node8</title>
<path fill="none" stroke="midnightblue" d="M248.025,-178.658C231.472,-173.971 211.729,-168.302 194,-163 161.796,-153.369 124.578,-141.613 102.187,-134.473"/>
<polygon fill="midnightblue" stroke="midnightblue" points="247.298,-182.09 257.872,-181.438 249.199,-175.353 247.298,-182.09"/>
</g>
<!-- Node5 -->
<g id="node5" class="node"><title>Node5</title>
<g id="a_node5"><a xlink:href="../../dd/dfa/class_q_c_d.html" target="_top" xlink:title="A class for parameters related to QCD, hadrons and quarks. ">
<polygon fill="none" stroke="red" points="242,-244.5 242,-261.5 276,-261.5 276,-244.5 242,-244.5"/>
<text text-anchor="middle" x="259" y="-251.1" font-family="Helvetica,sans-Serif" font-size="8.00">QCD</text>
</a>
</g>
</g>
<!-- Node5&#45;&gt;Node4 -->
<g id="edge4" class="edge"><title>Node5&#45;&gt;Node4</title>
<path fill="none" stroke="midnightblue" d="M266.25,-234.991C271.292,-223.161 277.78,-207.94 281.652,-198.856"/>
<polygon fill="midnightblue" stroke="midnightblue" points="262.994,-233.703 262.293,-244.274 269.434,-236.447 262.994,-233.703"/>
</g>
<!-- Node6&#45;&gt;Node4 -->
<g id="edge5" class="edge"><title>Node6&#45;&gt;Node4</title>
<path fill="none" stroke="#9a32cd" stroke-dasharray="5,2" d="M359.445,-144.324C355.435,-150.787 350.173,-157.881 344,-163 334.178,-171.146 321.404,-177.193 310.254,-181.395"/>
<polygon fill="#9a32cd" stroke="#9a32cd" points="362.499,-146.035 364.385,-135.609 356.409,-142.583 362.499,-146.035"/>
<text text-anchor="middle" x="383" y="-156.6" font-family="Helvetica,sans-Serif" font-size="8.00"> myEWSMcache</text>
</g>
<!-- Node7 -->
<g id="node7" class="node"><title>Node7</title>
<g id="a_node7"><a xlink:href="../../d9/db9/class_c_k_m.html" target="_top" xlink:title="A class for the CKM matrix elements. ">
<polygon fill="none" stroke="red" points="294,-244.5 294,-261.5 328,-261.5 328,-244.5 294,-244.5"/>
<text text-anchor="middle" x="311" y="-251.1" font-family="Helvetica,sans-Serif" font-size="8.00">CKM</text>
</a>
</g>
</g>
<!-- Node7&#45;&gt;Node4 -->
<g id="edge7" class="edge"><title>Node7&#45;&gt;Node4</title>
<path fill="none" stroke="#9a32cd" stroke-dasharray="5,2" d="M303.75,-234.991C298.708,-223.161 292.22,-207.94 288.348,-198.856"/>
<polygon fill="#9a32cd" stroke="#9a32cd" points="300.566,-236.447 307.707,-244.274 307.006,-233.703 300.566,-236.447"/>
<text text-anchor="middle" x="315.5" y="-219.6" font-family="Helvetica,sans-Serif" font-size="8.00"> myCKM</text>
</g>
<!-- Node8&#45;&gt;Node2 -->
<g id="edge8" class="edge"><title>Node8&#45;&gt;Node2</title>
<path fill="none" stroke="#9a32cd" stroke-dasharray="5,2" d="M106.739,-114.023C132.198,-101.698 171.075,-82.8764 192.495,-72.5065"/>
<polygon fill="#9a32cd" stroke="#9a32cd" points="105.179,-110.89 97.7032,-118.398 108.229,-117.19 105.179,-110.89"/>
<text text-anchor="middle" x="171" y="-93.6" font-family="Helvetica,sans-Serif" font-size="8.00"> myTHDM</text>
</g>
<!-- Node10 -->
<g id="node10" class="node"><title>Node10</title>
<g id="a_node10"><a xlink:href="../../dc/d38/class_t_h_d_m_matching.html" target="_top" xlink:title="A class for the Wilson coefficients in the THDM. ">
<polygon fill="none" stroke="red" points="0,-55.5 0,-72.5 72,-72.5 72,-55.5 0,-55.5"/>
<text text-anchor="middle" x="36" y="-62.1" font-family="Helvetica,sans-Serif" font-size="8.00">THDMMatching</text>
</a>
</g>
</g>
<!-- Node8&#45;&gt;Node10 -->
<g id="edge12" class="edge"><title>Node8&#45;&gt;Node10</title>
<path fill="none" stroke="#9a32cd" stroke-dasharray="5,2" d="M51.7658,-121.578C38.7978,-118.019 24.8498,-111.594 17,-100 10.9532,-91.0686 19.3313,-80.0255 26.7994,-72.7609"/>
<polygon fill="#9a32cd" stroke="#9a32cd" points="51.2936,-125.06 61.8206,-123.863 52.8446,-118.234 51.2936,-125.06"/>
<text text-anchor="middle" x="35" y="-93.6" font-family="Helvetica,sans-Serif" font-size="8.00"> myTHDM</text>
</g>
<!-- Node9 -->
<g id="node9" class="node"><title>Node9</title>
<g id="a_node9"><a xlink:href="../../d5/df2/class_t_h_d_mcache.html" target="_top" xlink:title="A class for the caching of some THDM objects. ">
<polygon fill="none" stroke="red" points="51.5,-181.5 51.5,-198.5 112.5,-198.5 112.5,-181.5 51.5,-181.5"/>
<text text-anchor="middle" x="82" y="-188.1" font-family="Helvetica,sans-Serif" font-size="8.00">THDMcache</text>
</a>
</g>
</g>
<!-- Node9&#45;&gt;Node8 -->
<g id="edge10" class="edge"><title>Node9&#45;&gt;Node8</title>
<path fill="none" stroke="#9a32cd" stroke-dasharray="5,2" d="M82,-171.27C82,-159.549 82,-144.757 82,-135.856"/>
<polygon fill="#9a32cd" stroke="#9a32cd" points="78.5001,-171.274 82,-181.274 85.5001,-171.274 78.5001,-171.274"/>
<text text-anchor="middle" x="99.5" y="-156.6" font-family="Helvetica,sans-Serif" font-size="8.00"> mycache</text>
</g>
<!-- Node10&#45;&gt;Node8 -->
<g id="edge11" class="edge"><title>Node10&#45;&gt;Node8</title>
<path fill="none" stroke="#9a32cd" stroke-dasharray="5,2" d="M48.1487,-81.1103C57.2006,-93.1139 69.1616,-108.975 76.1741,-118.274"/>
<polygon fill="#9a32cd" stroke="#9a32cd" points="50.7394,-78.7326 41.9239,-72.8556 45.1504,-82.9473 50.7394,-78.7326"/>
<text text-anchor="middle" x="96.5" y="-93.6" font-family="Helvetica,sans-Serif" font-size="8.00"> myTHDMMatching</text>
</g>
</g>
</svg>
