<?xml version="1.0" encoding="UTF-8" standalone="no"?>
<!DOCTYPE svg PUBLIC "-//W3C//DTD SVG 1.1//EN"
 "http://www.w3.org/Graphics/SVG/1.1/DTD/svg11.dtd">
<!-- Generated by graphviz version 2.40.1 (20161225.0304)
 -->
<!-- Title: SUSYMassInsertionMatching.h Pages: 1 -->
<svg width="364pt" height="134pt"
 viewBox="0.00 0.00 364.00 134.00" xmlns="http://www.w3.org/2000/svg" xmlns:xlink="http://www.w3.org/1999/xlink">
<g id="graph0" class="graph" transform="scale(1 1) rotate(0) translate(4 130)">
<title>SUSYMassInsertionMatching.h</title>
<!-- Node41 -->
<g id="node1" class="node">
<title>Node41</title>
<polygon fill="#bfbfbf" stroke="#000000" points="155.5,-108.5 155.5,-125.5 282.5,-125.5 282.5,-108.5 155.5,-108.5"/>
<text text-anchor="middle" x="219" y="-115.1" font-family="Helvetica,sans-Serif" font-size="8.00" fill="#000000">SUSYMassInsertionMatching.h</text>
</g>
<!-- Node42 -->
<g id="node2" class="node">
<title>Node42</title>
<g id="a_node2"><a xlink:href="../../d9/df7/_s_u_s_y_mass_insertion_8h.html" target="_top" xlink:title="SUSYMassInsertion.h">
<polygon fill="none" stroke="#000000" points="133.5,-54.5 133.5,-71.5 228.5,-71.5 228.5,-54.5 133.5,-54.5"/>
<text text-anchor="middle" x="181" y="-61.1" font-family="Helvetica,sans-Serif" font-size="8.00" fill="#000000">SUSYMassInsertion.h</text>
</a>
</g>
</g>
<!-- Node41&#45;&gt;Node42 -->
<g id="edge1" class="edge">
<title>Node41&#45;&gt;Node42</title>
<path fill="none" stroke="#191970" d="M206.9353,-99.8554C200.3553,-90.5048 192.489,-79.3265 187.1582,-71.7511"/>
<polygon fill="#191970" stroke="#191970" points="204.1078,-101.9192 212.7251,-108.083 209.8324,-97.8907 204.1078,-101.9192"/>
</g>
<!-- Node45 -->
<g id="node5" class="node">
<title>Node45</title>
<g id="a_node5"><a xlink:href="../../d3/d52/_s_u_s_y_mass_insertion_matching_8cpp.html" target="_top" xlink:title="SUSYMassInsertionMatching.cpp">
<polygon fill="none" stroke="#000000" points="220,-.5 220,-17.5 356,-17.5 356,-.5 220,-.5"/>
<text text-anchor="middle" x="288" y="-7.1" font-family="Helvetica,sans-Serif" font-size="8.00" fill="#000000">SUSYMassInsertionMatching.cpp</text>
</a>
</g>
</g>
<!-- Node41&#45;&gt;Node45 -->
<g id="edge5" class="edge">
<title>Node41&#45;&gt;Node45</title>
<path fill="none" stroke="#191970" d="M230.1355,-99.5706C245.103,-76.1431 271.1384,-35.3921 282.4683,-17.6584"/>
<polygon fill="#191970" stroke="#191970" points="227.0811,-97.8506 224.6466,-108.1619 232.9799,-101.6193 227.0811,-97.8506"/>
</g>
<!-- Node43 -->
<g id="node3" class="node">
<title>Node43</title>
<g id="a_node3"><a xlink:href="../../d3/df6/_model_factory_8cpp.html" target="_top" xlink:title="ModelFactory.cpp">
<polygon fill="none" stroke="#000000" points="0,-.5 0,-17.5 80,-17.5 80,-.5 0,-.5"/>
<text text-anchor="middle" x="40" y="-7.1" font-family="Helvetica,sans-Serif" font-size="8.00" fill="#000000">ModelFactory.cpp</text>
</a>
</g>
</g>
<!-- Node42&#45;&gt;Node43 -->
<g id="edge2" class="edge">
<title>Node42&#45;&gt;Node43</title>
<path fill="none" stroke="#191970" d="M149.0714,-50.772C122.586,-40.6287 85.6079,-26.4669 62.2373,-17.5164"/>
<polygon fill="#191970" stroke="#191970" points="148.0678,-54.1355 158.6581,-54.4435 150.5713,-47.5985 148.0678,-54.1355"/>
</g>
<!-- Node44 -->
<g id="node4" class="node">
<title>Node44</title>
<g id="a_node4"><a xlink:href="../../dc/d03/_s_u_s_y_mass_insertion_8cpp.html" target="_top" xlink:title="SUSYMassInsertion.cpp">
<polygon fill="none" stroke="#000000" points="98.5,-.5 98.5,-17.5 201.5,-17.5 201.5,-.5 98.5,-.5"/>
<text text-anchor="middle" x="150" y="-7.1" font-family="Helvetica,sans-Serif" font-size="8.00" fill="#000000">SUSYMassInsertion.cpp</text>
</a>
</g>
</g>
<!-- Node42&#45;&gt;Node44 -->
<g id="edge3" class="edge">
<title>Node42&#45;&gt;Node44</title>
<path fill="none" stroke="#191970" d="M170.8244,-45.2747C165.5261,-36.0454 159.283,-25.1703 155.0238,-17.7511"/>
<polygon fill="#191970" stroke="#191970" points="167.8669,-47.153 175.881,-54.083 173.9376,-43.6679 167.8669,-47.153"/>
</g>
<!-- Node42&#45;&gt;Node45 -->
<g id="edge4" class="edge">
<title>Node42&#45;&gt;Node45</title>
<path fill="none" stroke="#191970" d="M207.302,-49.7261C227.1148,-39.7271 253.7075,-26.3065 270.8513,-17.6545"/>
<polygon fill="#191970" stroke="#191970" points="205.542,-46.6938 198.1914,-54.324 208.6959,-52.9431 205.542,-46.6938"/>
</g>
</g>
</svg>
