<?xml version="1.0" encoding="UTF-8" standalone="no"?>
<!DOCTYPE svg PUBLIC "-//W3C//DTD SVG 1.1//EN"
 "http://www.w3.org/Graphics/SVG/1.1/DTD/svg11.dtd">
<!-- Generated by graphviz version 2.40.1 (20161225.0304)
 -->
<!-- Title: ModelFactory.h Pages: 1 -->
<svg width="424pt" height="242pt"
 viewBox="0.00 0.00 423.64 242.00" xmlns="http://www.w3.org/2000/svg" xmlns:xlink="http://www.w3.org/1999/xlink">
<g id="graph0" class="graph" transform="scale(1 1) rotate(0) translate(4 238)">
<title>ModelFactory.h</title>
<!-- Node0 -->
<g id="node1" class="node">
<title>Node0</title>
<polygon fill="#bfbfbf" stroke="#000000" points="243.6361,-216.5 243.6361,-233.5 315.6361,-233.5 315.6361,-216.5 243.6361,-216.5"/>
<text text-anchor="middle" x="279.6361" y="-223.1" font-family="Helvetica,sans-Serif" font-size="8.00" fill="#000000">ModelFactory.h</text>
</g>
<!-- Node1 -->
<g id="node2" class="node">
<title>Node1</title>
<g id="a_node2"><a xlink:href="../../d6/d0a/_standard_model_8h.html" target="_top" xlink:title="StandardModel.h">
<polygon fill="none" stroke="#ff0000" points="118.1361,-162.5 118.1361,-179.5 195.1361,-179.5 195.1361,-162.5 118.1361,-162.5"/>
<text text-anchor="middle" x="156.6361" y="-169.1" font-family="Helvetica,sans-Serif" font-size="8.00" fill="#000000">StandardModel.h</text>
</a>
</g>
</g>
<!-- Node0&#45;&gt;Node1 -->
<g id="edge1" class="edge">
<title>Node0&#45;&gt;Node1</title>
<path fill="none" stroke="#191970" d="M260.1464,-216.4435C239.9939,-207.5961 208.3132,-193.6875 185.3053,-183.5865"/>
<polygon fill="#191970" stroke="#191970" points="186.5981,-180.3316 176.0346,-179.5164 183.7841,-186.7411 186.5981,-180.3316"/>
</g>
<!-- Node22 -->
<g id="node5" class="node">
<title>Node22</title>
<polygon fill="none" stroke="#bfbfbf" points=".6361,-.5 .6361,-17.5 114.6361,-17.5 114.6361,-.5 .6361,-.5"/>
<text text-anchor="middle" x="57.6361" y="-7.1" font-family="Helvetica,sans-Serif" font-size="8.00" fill="#000000">boost/functional/factory.hpp</text>
</g>
<!-- Node0&#45;&gt;Node22 -->
<g id="edge10" class="edge">
<title>Node0&#45;&gt;Node22</title>
<path fill="none" stroke="#191970" d="M243.5437,-217.6988C175.3033,-203.0315 31.9125,-167.7912 6.6361,-126 -13.9827,-91.9095 19.5194,-47.9906 41.2903,-24.8658"/>
<polygon fill="#191970" stroke="#191970" points="43.9032,-27.1998 48.3937,-17.6037 38.8991,-22.3051 43.9032,-27.1998"/>
</g>
<!-- Node23 -->
<g id="node6" class="node">
<title>Node23</title>
<polygon fill="none" stroke="#bfbfbf" points="272.6361,-.5 272.6361,-17.5 354.6361,-17.5 354.6361,-.5 272.6361,-.5"/>
<text text-anchor="middle" x="313.6361" y="-7.1" font-family="Helvetica,sans-Serif" font-size="8.00" fill="#000000">boost/function.hpp</text>
</g>
<!-- Node0&#45;&gt;Node23 -->
<g id="edge11" class="edge">
<title>Node0&#45;&gt;Node23</title>
<path fill="none" stroke="#191970" d="M286.6986,-216.4289C299.6568,-200.0811 326.8026,-162.7872 336.6361,-126 345.908,-91.3141 332.0598,-49.9247 322.1631,-26.8356"/>
<polygon fill="#191970" stroke="#191970" points="325.299,-25.2757 317.9912,-17.6046 318.9202,-28.1586 325.299,-25.2757"/>
</g>
<!-- Node5 -->
<g id="node10" class="node">
<title>Node5</title>
<polygon fill="none" stroke="#bfbfbf" points="383.6361,-162.5 383.6361,-179.5 415.6361,-179.5 415.6361,-162.5 383.6361,-162.5"/>
<text text-anchor="middle" x="399.6361" y="-169.1" font-family="Helvetica,sans-Serif" font-size="8.00" fill="#000000">map</text>
</g>
<!-- Node0&#45;&gt;Node5 -->
<g id="edge12" class="edge">
<title>Node0&#45;&gt;Node5</title>
<path fill="none" stroke="#191970" d="M298.6505,-216.4435C319.0297,-207.2729 351.4925,-192.6646 374.0912,-182.4952"/>
<polygon fill="#191970" stroke="#191970" points="375.7217,-185.5996 383.4046,-178.3042 372.8491,-179.2162 375.7217,-185.5996"/>
</g>
<!-- Node2 -->
<g id="node3" class="node">
<title>Node2</title>
<g id="a_node3"><a xlink:href="../../d2/d65/_flavour_8h.html" target="_top" xlink:title="Flavour.h">
<polygon fill="none" stroke="#ff0000" points="277.6361,-108.5 277.6361,-125.5 327.6361,-125.5 327.6361,-108.5 277.6361,-108.5"/>
<text text-anchor="middle" x="302.6361" y="-115.1" font-family="Helvetica,sans-Serif" font-size="8.00" fill="#000000">Flavour.h</text>
</a>
</g>
</g>
<!-- Node1&#45;&gt;Node2 -->
<g id="edge2" class="edge">
<title>Node1&#45;&gt;Node2</title>
<path fill="none" stroke="#191970" d="M179.7703,-162.4435C204.1183,-153.4381 242.6433,-139.1891 270.0591,-129.049"/>
<polygon fill="#191970" stroke="#191970" points="271.4453,-132.2681 279.6102,-125.5164 269.017,-125.7028 271.4453,-132.2681"/>
</g>
<!-- Node3 -->
<g id="node4" class="node">
<title>Node3</title>
<g id="a_node4"><a xlink:href="../../d4/d68/_q_c_d_8h.html" target="_top" xlink:title="QCD.h">
<polygon fill="none" stroke="#ff0000" points="251.1361,-54.5 251.1361,-71.5 292.1361,-71.5 292.1361,-54.5 251.1361,-54.5"/>
<text text-anchor="middle" x="271.6361" y="-61.1" font-family="Helvetica,sans-Serif" font-size="8.00" fill="#000000">QCD.h</text>
</a>
</g>
</g>
<!-- Node1&#45;&gt;Node3 -->
<g id="edge6" class="edge">
<title>Node1&#45;&gt;Node3</title>
<path fill="none" stroke="#191970" d="M117.9357,-167.2497C66.6366,-160.7879 -14.0281,-144.5494 16.6361,-108 44.9157,-74.2929 179.0389,-65.823 240.6075,-63.7033"/>
<polygon fill="#191970" stroke="#191970" points="240.9871,-67.1933 250.8742,-63.3861 240.7709,-60.1967 240.9871,-67.1933"/>
</g>
<!-- Node26 -->
<g id="node7" class="node">
<title>Node26</title>
<g id="a_node7"><a xlink:href="../../db/d5d/_c_k_m_8h.html" target="_top" xlink:title="CKM.h">
<polygon fill="none" stroke="#ff0000" points="26.1361,-108.5 26.1361,-125.5 67.1361,-125.5 67.1361,-108.5 26.1361,-108.5"/>
<text text-anchor="middle" x="46.6361" y="-115.1" font-family="Helvetica,sans-Serif" font-size="8.00" fill="#000000">CKM.h</text>
</a>
</g>
</g>
<!-- Node1&#45;&gt;Node26 -->
<g id="edge7" class="edge">
<title>Node1&#45;&gt;Node26</title>
<path fill="none" stroke="#191970" d="M138.9627,-162.324C121.242,-153.6247 93.7329,-140.1202 73.3477,-130.113"/>
<polygon fill="#191970" stroke="#191970" points="74.7847,-126.9195 64.2657,-125.6545 71.7,-133.2031 74.7847,-126.9195"/>
</g>
<!-- Node37 -->
<g id="node8" class="node">
<title>Node37</title>
<g id="a_node8"><a xlink:href="../../d9/d22/_p_m_n_s_8h.html" target="_top" xlink:title="PMNS.h">
<polygon fill="none" stroke="#ff0000" points="85.6361,-108.5 85.6361,-125.5 131.6361,-125.5 131.6361,-108.5 85.6361,-108.5"/>
<text text-anchor="middle" x="108.6361" y="-115.1" font-family="Helvetica,sans-Serif" font-size="8.00" fill="#000000">PMNS.h</text>
</a>
</g>
</g>
<!-- Node1&#45;&gt;Node37 -->
<g id="edge8" class="edge">
<title>Node1&#45;&gt;Node37</title>
<path fill="none" stroke="#191970" d="M148.7099,-162.083C141.79,-154.2982 131.5707,-142.8015 123.1841,-133.3665"/>
<polygon fill="#191970" stroke="#191970" points="125.6745,-130.8999 116.4149,-125.7511 120.4426,-135.5505 125.6745,-130.8999"/>
</g>
<!-- Node38 -->
<g id="node9" class="node">
<title>Node38</title>
<g id="a_node9"><a xlink:href="../../d6/d16/_standard_model_matching_8h.html" target="_top" xlink:title="StandardModelMatching.h">
<polygon fill="none" stroke="#ff0000" points="149.6361,-108.5 149.6361,-125.5 259.6361,-125.5 259.6361,-108.5 149.6361,-108.5"/>
<text text-anchor="middle" x="204.6361" y="-115.1" font-family="Helvetica,sans-Serif" font-size="8.00" fill="#000000">StandardModelMatching.h</text>
</a>
</g>
</g>
<!-- Node1&#45;&gt;Node38 -->
<g id="edge9" class="edge">
<title>Node1&#45;&gt;Node38</title>
<path fill="none" stroke="#191970" d="M164.5623,-162.083C171.4822,-154.2982 181.7015,-142.8015 190.0881,-133.3665"/>
<polygon fill="#191970" stroke="#191970" points="192.8297,-135.5505 196.8574,-125.7511 187.5978,-130.8999 192.8297,-135.5505"/>
</g>
<!-- Node2&#45;&gt;Node3 -->
<g id="edge3" class="edge">
<title>Node2&#45;&gt;Node3</title>
<path fill="none" stroke="#191970" d="M297.5171,-108.083C293.2286,-100.6127 286.9779,-89.7244 281.6938,-80.5199"/>
<polygon fill="#191970" stroke="#191970" points="284.674,-78.6811 276.6599,-71.7511 278.6032,-82.1662 284.674,-78.6811"/>
</g>
<!-- Node3&#45;&gt;Node22 -->
<g id="edge4" class="edge">
<title>Node3&#45;&gt;Node22</title>
<path fill="none" stroke="#191970" d="M251.1169,-57.8223C216.7846,-49.159 146.9731,-31.543 101.2704,-20.0105"/>
<polygon fill="#191970" stroke="#191970" points="101.8928,-16.5579 91.3403,-17.5048 100.1801,-23.3452 101.8928,-16.5579"/>
</g>
<!-- Node3&#45;&gt;Node23 -->
<g id="edge5" class="edge">
<title>Node3&#45;&gt;Node23</title>
<path fill="none" stroke="#191970" d="M278.5716,-54.083C284.5653,-46.3768 293.388,-35.0333 300.6837,-25.6531"/>
<polygon fill="#191970" stroke="#191970" points="303.453,-27.7934 306.8297,-17.7511 297.9275,-23.4958 303.453,-27.7934"/>
</g>
</g>
</svg>
