<?xml version="1.0" encoding="UTF-8" standalone="no"?>
<!DOCTYPE svg PUBLIC "-//W3C//DTD SVG 1.1//EN"
 "http://www.w3.org/Graphics/SVG/1.1/DTD/svg11.dtd">
<!-- Generated by graphviz version 2.40.1 (20161225.0304)
 -->
<!-- Title: Hobs_pp_H1_hh_bbbb_2_CMS13 Pages: 1 -->
<svg width="435pt" height="297pt"
 viewBox="0.00 0.00 435.00 297.00" xmlns="http://www.w3.org/2000/svg" xmlns:xlink="http://www.w3.org/1999/xlink">
<g id="graph0" class="graph" transform="scale(1 1) rotate(0) translate(4 293)">
<title>Hobs_pp_H1_hh_bbbb_2_CMS13</title>
<!-- Node2 -->
<g id="node1" class="node">
<title>Node2</title>
<polygon fill="#bfbfbf" stroke="#000000" points="0,-.5 0,-26.5 99,-26.5 99,-.5 0,-.5"/>
<text text-anchor="start" x="8" y="-16.1" font-family="Helvetica,sans-Serif" font-size="8.00" fill="#000000">Hobs_pp_H1_hh_bbbb</text>
<text text-anchor="middle" x="49.5" y="-7.1" font-family="Helvetica,sans-Serif" font-size="8.00" fill="#000000">_2_CMS13</text>
</g>
<!-- Node3 -->
<g id="node2" class="node">
<title>Node3</title>
<g id="a_node2"><a xlink:href="../../dc/d1f/class_th_observable.html" target="_top" xlink:title="A class for a model prediction of an observable. ">
<polygon fill="none" stroke="#000000" points="0,-108.5 0,-125.5 67,-125.5 67,-108.5 0,-108.5"/>
<text text-anchor="middle" x="33.5" y="-115.1" font-family="Helvetica,sans-Serif" font-size="8.00" fill="#000000">ThObservable</text>
</a>
</g>
</g>
<!-- Node3&#45;&gt;Node2 -->
<g id="edge1" class="edge">
<title>Node3&#45;&gt;Node2</title>
<path fill="none" stroke="#191970" d="M36.4228,-98.0934C39.6152,-77.4421 44.6462,-44.8979 47.4461,-26.7859"/>
<polygon fill="#191970" stroke="#191970" points="32.9331,-97.7583 34.8642,-108.1756 39.8509,-98.8278 32.9331,-97.7583"/>
</g>
<!-- Node4 -->
<g id="node3" class="node">
<title>Node4</title>
<g id="a_node3"><a xlink:href="../../dc/dd5/class_standard_model.html" target="_top" xlink:title="A model class for the Standard Model. ">
<polygon fill="none" stroke="#ff0000" points="207,-216.5 207,-233.5 278,-233.5 278,-216.5 207,-216.5"/>
<text text-anchor="middle" x="242.5" y="-223.1" font-family="Helvetica,sans-Serif" font-size="8.00" fill="#000000">StandardModel</text>
</a>
</g>
</g>
<!-- Node4&#45;&gt;Node3 -->
<g id="edge2" class="edge">
<title>Node4&#45;&gt;Node3</title>
<path fill="none" stroke="#9a32cd" stroke-dasharray="5,2" d="M196.8247,-217.0106C147.5437,-207.5473 73.3154,-190.5747 52.5,-171 39.6129,-158.881 35.4612,-137.5082 34.1276,-125.6092"/>
<polygon fill="#9a32cd" stroke="#9a32cd" points="196.4588,-220.5032 206.9338,-218.9142 197.7543,-213.6241 196.4588,-220.5032"/>
<text text-anchor="middle" x="119" y="-191.6" font-family="Helvetica,sans-Serif" font-size="8.00" fill="#000000"> SM</text>
</g>
<!-- Node9 -->
<g id="node6" class="node">
<title>Node9</title>
<g id="a_node6"><a xlink:href="../../dc/df3/class_e_w_s_mcache.html" target="_top" xlink:title="A class for cache variables used in computing radiative corrections to the EW precision observables...">
<polygon fill="none" stroke="#ff0000" points="364,-149 364,-166 427,-166 427,-149 364,-149"/>
<text text-anchor="middle" x="395.5" y="-155.6" font-family="Helvetica,sans-Serif" font-size="8.00" fill="#000000">EWSMcache</text>
</a>
</g>
</g>
<!-- Node4&#45;&gt;Node9 -->
<g id="edge6" class="edge">
<title>Node4&#45;&gt;Node9</title>
<path fill="none" stroke="#9a32cd" stroke-dasharray="5,2" d="M271.146,-212.362C301.6807,-198.8909 349.213,-177.9207 375.7965,-166.1927"/>
<polygon fill="#9a32cd" stroke="#9a32cd" points="269.614,-209.2124 261.8776,-216.4511 272.4395,-215.6168 269.614,-209.2124"/>
<text text-anchor="middle" x="331" y="-191.6" font-family="Helvetica,sans-Serif" font-size="8.00" fill="#000000"> SM</text>
</g>
<!-- Node48 -->
<g id="node8" class="node">
<title>Node48</title>
<g id="a_node8"><a xlink:href="../../d2/df3/class_n_pbase.html" target="_top" xlink:title="The auxiliary base model class for other model classes. ">
<polygon fill="none" stroke="#000000" points="183,-149 183,-166 228,-166 228,-149 183,-149"/>
<text text-anchor="middle" x="205.5" y="-155.6" font-family="Helvetica,sans-Serif" font-size="8.00" fill="#000000">NPbase</text>
</a>
</g>
</g>
<!-- Node4&#45;&gt;Node48 -->
<g id="edge10" class="edge">
<title>Node4&#45;&gt;Node48</title>
<path fill="none" stroke="#191970" d="M212.9868,-210.8791C208.3692,-207.3354 204.2289,-203.0645 201.5,-198 196.1376,-188.048 199.0407,-174.7157 201.9721,-166.116"/>
<polygon fill="#191970" stroke="#191970" points="211.3206,-213.9705 221.6124,-216.4867 215.136,-208.1017 211.3206,-213.9705"/>
</g>
<!-- Node4&#45;&gt;Node48 -->
<g id="edge11" class="edge">
<title>Node4&#45;&gt;Node48</title>
<path fill="none" stroke="#9a32cd" stroke-dasharray="5,2" d="M228.3965,-208.3772C225.9217,-205.0561 223.5017,-201.5071 221.5,-198 215.5789,-187.6259 210.8719,-174.6301 208.1359,-166.2004"/>
<polygon fill="#9a32cd" stroke="#9a32cd" points="225.8586,-210.8087 234.8259,-216.4512 231.3345,-206.4481 225.8586,-210.8087"/>
<text text-anchor="middle" x="236" y="-191.6" font-family="Helvetica,sans-Serif" font-size="8.00" fill="#000000"> trueSM</text>
</g>
<!-- Node5 -->
<g id="node4" class="node">
<title>Node5</title>
<g id="a_node4"><a xlink:href="../../dd/dfa/class_q_c_d.html" target="_top" xlink:title="A class for parameters related to QCD, hadrons and quarks. ">
<polygon fill="none" stroke="#ff0000" points="225.5,-271.5 225.5,-288.5 259.5,-288.5 259.5,-271.5 225.5,-271.5"/>
<text text-anchor="middle" x="242.5" y="-278.1" font-family="Helvetica,sans-Serif" font-size="8.00" fill="#000000">QCD</text>
</a>
</g>
</g>
<!-- Node5&#45;&gt;Node4 -->
<g id="edge3" class="edge">
<title>Node5&#45;&gt;Node4</title>
<path fill="none" stroke="#191970" d="M242.5,-261.1166C242.5,-251.8173 242.5,-241.0557 242.5,-233.7149"/>
<polygon fill="#191970" stroke="#191970" points="239.0001,-261.4062 242.5,-271.4063 246.0001,-261.4063 239.0001,-261.4062"/>
</g>
<!-- Node8 -->
<g id="node5" class="node">
<title>Node8</title>
<g id="a_node5"><a xlink:href="../../db/d32/class_e_w_s_m_two_fermions_l_e_p2.html" target="_top" xlink:title="A class for the form factors , &#160;and &#160;in the processes &#160;at LEP&#45;II. ">
<polygon fill="none" stroke="#ff0000" points="251,-72.5 251,-89.5 360,-89.5 360,-72.5 251,-72.5"/>
<text text-anchor="middle" x="305.5" y="-79.1" font-family="Helvetica,sans-Serif" font-size="8.00" fill="#000000">EWSMTwoFermionsLEP2</text>
</a>
</g>
</g>
<!-- Node8&#45;&gt;Node4 -->
<g id="edge4" class="edge">
<title>Node8&#45;&gt;Node4</title>
<path fill="none" stroke="#9a32cd" stroke-dasharray="5,2" d="M296.2739,-98.7744C289.8934,-111.2955 281.3528,-128.5203 274.5,-144 262.9932,-169.9927 251.1292,-201.4925 245.6383,-216.3928"/>
<polygon fill="#9a32cd" stroke="#9a32cd" points="299.3951,-100.3582 300.8544,-89.8644 293.1695,-97.1578 299.3951,-100.3582"/>
<text text-anchor="middle" x="315" y="-155.6" font-family="Helvetica,sans-Serif" font-size="8.00" fill="#000000"> myTwoFermionsLEP2</text>
</g>
<!-- Node9&#45;&gt;Node4 -->
<g id="edge7" class="edge">
<title>Node9&#45;&gt;Node4</title>
<path fill="none" stroke="#9a32cd" stroke-dasharray="5,2" d="M378.701,-173.0638C368.8051,-181.5023 355.6744,-191.5038 342.5,-198 322.3392,-207.9411 298.0248,-214.6114 278.4198,-218.8349"/>
<polygon fill="#9a32cd" stroke="#9a32cd" points="381.3138,-175.4255 386.4846,-166.1781 376.6757,-170.1826 381.3138,-175.4255"/>
<text text-anchor="middle" x="386.5" y="-191.6" font-family="Helvetica,sans-Serif" font-size="8.00" fill="#000000"> myEWSMcache</text>
</g>
<!-- Node9&#45;&gt;Node8 -->
<g id="edge5" class="edge">
<title>Node9&#45;&gt;Node8</title>
<path fill="none" stroke="#9a32cd" stroke-dasharray="5,2" d="M377.4162,-142.1288C358.8726,-126.3667 330.6883,-102.4101 315.7037,-89.6732"/>
<polygon fill="#9a32cd" stroke="#9a32cd" points="375.2897,-144.9148 385.1759,-148.7245 379.8232,-139.5812 375.2897,-144.9148"/>
<text text-anchor="middle" x="367.5" y="-115.1" font-family="Helvetica,sans-Serif" font-size="8.00" fill="#000000"> cache</text>
</g>
<!-- Node47 -->
<g id="node7" class="node">
<title>Node47</title>
<g id="a_node7"><a xlink:href="../../db/d2b/class_georgi_machacek.html" target="_top" xlink:title="A base class for the Georgi&#45;Machacek model. ">
<polygon fill="none" stroke="#000000" points="77,-72.5 77,-89.5 154,-89.5 154,-72.5 77,-72.5"/>
<text text-anchor="middle" x="115.5" y="-79.1" font-family="Helvetica,sans-Serif" font-size="8.00" fill="#000000">GeorgiMachacek</text>
</a>
</g>
</g>
<!-- Node47&#45;&gt;Node2 -->
<g id="edge8" class="edge">
<title>Node47&#45;&gt;Node2</title>
<path fill="none" stroke="#9a32cd" stroke-dasharray="5,2" d="M94.5327,-66.2505C89.7185,-62.4838 84.7654,-58.2815 80.5,-54 72.1259,-45.5943 64.0248,-34.8918 58.2054,-26.6001"/>
<polygon fill="#9a32cd" stroke="#9a32cd" points="92.7646,-69.2986 102.8695,-72.4832 96.956,-63.6922 92.7646,-69.2986"/>
<text text-anchor="middle" x="93.5" y="-47.6" font-family="Helvetica,sans-Serif" font-size="8.00" fill="#000000"> myGM</text>
</g>
<!-- Node51 -->
<g id="node10" class="node">
<title>Node51</title>
<g id="a_node10"><a xlink:href="../../d7/db7/class_g_mcache.html" target="_top" xlink:title="A class for the caching of GeorgiMachacek objects. ">
<polygon fill="none" stroke="#ff0000" points="128,-5 128,-22 179,-22 179,-5 128,-5"/>
<text text-anchor="middle" x="153.5" y="-11.6" font-family="Helvetica,sans-Serif" font-size="8.00" fill="#000000">GMcache</text>
</a>
</g>
</g>
<!-- Node47&#45;&gt;Node51 -->
<g id="edge14" class="edge">
<title>Node47&#45;&gt;Node51</title>
<path fill="none" stroke="#9a32cd" stroke-dasharray="5,2" d="M110.2567,-62.0948C109.6154,-56.3637 109.9323,-50.2108 112.5,-45 117.4199,-35.0158 127.193,-27.3133 135.9635,-22.0245"/>
<polygon fill="#9a32cd" stroke="#9a32cd" points="106.8981,-63.141 112.3307,-72.237 113.7562,-61.7385 106.8981,-63.141"/>
<text text-anchor="middle" x="125.5" y="-47.6" font-family="Helvetica,sans-Serif" font-size="8.00" fill="#000000"> myGM</text>
</g>
<!-- Node48&#45;&gt;Node47 -->
<g id="edge9" class="edge">
<title>Node48&#45;&gt;Node47</title>
<path fill="none" stroke="#191970" d="M187.4162,-142.1288C168.8726,-126.3667 140.6883,-102.4101 125.7037,-89.6732"/>
<polygon fill="#191970" stroke="#191970" points="185.2897,-144.9148 195.1759,-148.7245 189.8232,-139.5812 185.2897,-144.9148"/>
</g>
<!-- Node49 -->
<g id="node9" class="node">
<title>Node49</title>
<g id="a_node9"><a xlink:href="../../d5/d76/class_matching.html" target="_top" xlink:title="Matching\&lt; GMMatching,\l GeorgiMachacek \&gt;">
<polygon fill="none" stroke="#ff0000" points="62,-144.5 62,-170.5 165,-170.5 165,-144.5 62,-144.5"/>
<text text-anchor="start" x="70" y="-160.1" font-family="Helvetica,sans-Serif" font-size="8.00" fill="#000000">Matching&lt; GMMatching,</text>
<text text-anchor="middle" x="113.5" y="-151.1" font-family="Helvetica,sans-Serif" font-size="8.00" fill="#000000"> GeorgiMachacek &gt;</text>
</a>
</g>
</g>
<!-- Node49&#45;&gt;Node47 -->
<g id="edge12" class="edge">
<title>Node49&#45;&gt;Node47</title>
<path fill="none" stroke="#9a32cd" stroke-dasharray="5,2" d="M114.1121,-134.0882C114.5027,-119.1453 114.9869,-100.6269 115.2679,-89.8783"/>
<polygon fill="#9a32cd" stroke="#9a32cd" points="110.611,-134.0866 113.8484,-144.1747 117.6086,-134.2696 110.611,-134.0866"/>
<text text-anchor="middle" x="126.5" y="-115.1" font-family="Helvetica,sans-Serif" font-size="8.00" fill="#000000"> GMM</text>
</g>
<!-- Node51&#45;&gt;Node47 -->
<g id="edge13" class="edge">
<title>Node51&#45;&gt;Node47</title>
<path fill="none" stroke="#9a32cd" stroke-dasharray="5,2" d="M150.5968,-31.9864C148.9366,-39.1879 146.3821,-47.3024 142.5,-54 138.4443,-60.9971 132.1222,-67.4571 126.6149,-72.3028"/>
<polygon fill="#9a32cd" stroke="#9a32cd" points="154.0546,-32.5375 152.4858,-22.0595 147.178,-31.2289 154.0546,-32.5375"/>
<text text-anchor="middle" x="170.5" y="-47.6" font-family="Helvetica,sans-Serif" font-size="8.00" fill="#000000"> myGMcache</text>
</g>
</g>
</svg>
