<?xml version="1.0" encoding="UTF-8" standalone="no"?>
<!DOCTYPE svg PUBLIC "-//W3C//DTD SVG 1.1//EN"
 "http://www.w3.org/Graphics/SVG/1.1/DTD/svg11.dtd">
<!-- Generated by graphviz version 2.40.1 (20161225.0304)
 -->
<!-- Title: NPSMEFTd6.cpp Pages: 1 -->
<svg width="470pt" height="188pt"
 viewBox="0.00 0.00 469.60 188.00" xmlns="http://www.w3.org/2000/svg" xmlns:xlink="http://www.w3.org/1999/xlink">
<g id="graph0" class="graph" transform="scale(1 1) rotate(0) translate(4 184)">
<title>NPSMEFTd6.cpp</title>
<!-- Node0 -->
<g id="node1" class="node">
<title>Node0</title>
<polygon fill="#bfbfbf" stroke="#000000" points="182.0997,-162.5 182.0997,-179.5 261.0997,-179.5 261.0997,-162.5 182.0997,-162.5"/>
<text text-anchor="middle" x="221.5997" y="-169.1" font-family="Helvetica,sans-Serif" font-size="8.00" fill="#000000">NPSMEFTd6.cpp</text>
</g>
<!-- Node1 -->
<g id="node2" class="node">
<title>Node1</title>
<g id="a_node2"><a xlink:href="../../df/d4e/_n_p_s_m_e_f_td6_8h.html" target="_top" xlink:title="NPSMEFTd6.h">
<polygon fill="none" stroke="#ff0000" points="51.5997,-108.5 51.5997,-125.5 121.5997,-125.5 121.5997,-108.5 51.5997,-108.5"/>
<text text-anchor="middle" x="86.5997" y="-115.1" font-family="Helvetica,sans-Serif" font-size="8.00" fill="#000000">NPSMEFTd6.h</text>
</a>
</g>
</g>
<!-- Node0&#45;&gt;Node1 -->
<g id="edge1" class="edge">
<title>Node0&#45;&gt;Node1</title>
<path fill="none" stroke="#191970" d="M200.2085,-162.4435C177.8924,-153.5171 142.6965,-139.4387 117.3917,-129.3168"/>
<polygon fill="#191970" stroke="#191970" points="118.4754,-125.9807 107.8908,-125.5164 115.8756,-132.4801 118.4754,-125.9807"/>
</g>
<!-- Node53 -->
<g id="node7" class="node">
<title>Node53</title>
<polygon fill="none" stroke="#bfbfbf" points="140.0997,-108.5 140.0997,-125.5 175.0997,-125.5 175.0997,-108.5 140.0997,-108.5"/>
<text text-anchor="middle" x="157.5997" y="-115.1" font-family="Helvetica,sans-Serif" font-size="8.00" fill="#000000">limits</text>
</g>
<!-- Node0&#45;&gt;Node53 -->
<g id="edge7" class="edge">
<title>Node0&#45;&gt;Node53</title>
<path fill="none" stroke="#191970" d="M211.317,-162.324C201.7634,-154.2631 187.32,-142.0765 175.8153,-132.3695"/>
<polygon fill="#191970" stroke="#191970" points="177.9695,-129.6076 168.0695,-125.8339 173.4554,-134.9577 177.9695,-129.6076"/>
</g>
<!-- Node54 -->
<g id="node8" class="node">
<title>Node54</title>
<polygon fill="none" stroke="#bfbfbf" points="193.0997,-108.5 193.0997,-125.5 250.0997,-125.5 250.0997,-108.5 193.0997,-108.5"/>
<text text-anchor="middle" x="221.5997" y="-115.1" font-family="Helvetica,sans-Serif" font-size="8.00" fill="#000000">gsl/gsl_sf.h</text>
</g>
<!-- Node0&#45;&gt;Node54 -->
<g id="edge8" class="edge">
<title>Node0&#45;&gt;Node54</title>
<path fill="none" stroke="#191970" d="M221.5997,-162.083C221.5997,-155.0059 221.5997,-144.8611 221.5997,-135.9865"/>
<polygon fill="#191970" stroke="#191970" points="225.0998,-135.751 221.5997,-125.7511 218.0998,-135.7511 225.0998,-135.751"/>
</g>
<!-- Node55 -->
<g id="node9" class="node">
<title>Node55</title>
<polygon fill="none" stroke="#bfbfbf" points="268.0997,-108.5 268.0997,-125.5 337.0997,-125.5 337.0997,-108.5 268.0997,-108.5"/>
<text text-anchor="middle" x="302.5997" y="-115.1" font-family="Helvetica,sans-Serif" font-size="8.00" fill="#000000">boost/bind.hpp</text>
</g>
<!-- Node0&#45;&gt;Node55 -->
<g id="edge9" class="edge">
<title>Node0&#45;&gt;Node55</title>
<path fill="none" stroke="#191970" d="M234.6137,-162.324C247.1312,-153.979 266.2814,-141.2122 281.0711,-131.3524"/>
<polygon fill="#191970" stroke="#191970" points="283.2389,-134.1137 289.6179,-125.6545 279.3559,-128.2894 283.2389,-134.1137"/>
</g>
<!-- Node56 -->
<g id="node10" class="node">
<title>Node56</title>
<g id="a_node10"><a xlink:href="../../dc/d6e/gslpp__function__adapter_8h.html" target="_top" xlink:title="gslpp_function_adapter.h">
<polygon fill="none" stroke="#ff0000" points="355.5997,-108.5 355.5997,-125.5 461.5997,-125.5 461.5997,-108.5 355.5997,-108.5"/>
<text text-anchor="middle" x="408.5997" y="-115.1" font-family="Helvetica,sans-Serif" font-size="8.00" fill="#000000">gslpp_function_adapter.h</text>
</a>
</g>
</g>
<!-- Node0&#45;&gt;Node56 -->
<g id="edge10" class="edge">
<title>Node0&#45;&gt;Node56</title>
<path fill="none" stroke="#191970" d="M251.2304,-162.4435C283.0998,-153.2406 333.9324,-138.5617 369.1636,-128.3879"/>
<polygon fill="#191970" stroke="#191970" points="370.4712,-131.6534 379.1076,-125.5164 368.5291,-124.9282 370.4712,-131.6534"/>
</g>
<!-- Node2 -->
<g id="node3" class="node">
<title>Node2</title>
<g id="a_node3"><a xlink:href="../../d9/d72/gslpp_8h.html" target="_top" xlink:title="gslpp.h">
<polygon fill="none" stroke="#ff0000" points="38.5997,-.5 38.5997,-17.5 80.5997,-17.5 80.5997,-.5 38.5997,-.5"/>
<text text-anchor="middle" x="59.5997" y="-7.1" font-family="Helvetica,sans-Serif" font-size="8.00" fill="#000000">gslpp.h</text>
</a>
</g>
</g>
<!-- Node1&#45;&gt;Node2 -->
<g id="edge2" class="edge">
<title>Node1&#45;&gt;Node2</title>
<path fill="none" stroke="#191970" d="M54.4151,-108.4876C36.0607,-101.8015 14.5841,-90.4504 3.5997,-72 -7.696,-53.0267 13.7791,-34.5328 33.3179,-22.5448"/>
<polygon fill="#191970" stroke="#191970" points="35.1214,-25.545 42.0343,-17.5162 31.6234,-19.4817 35.1214,-25.545"/>
</g>
<!-- Node18 -->
<g id="node4" class="node">
<title>Node18</title>
<g id="a_node4"><a xlink:href="../../d2/de8/_n_pbase_8h.html" target="_top" xlink:title="NPbase.h">
<polygon fill="none" stroke="#ff0000" points="12.5997,-54.5 12.5997,-71.5 64.5997,-71.5 64.5997,-54.5 12.5997,-54.5"/>
<text text-anchor="middle" x="38.5997" y="-61.1" font-family="Helvetica,sans-Serif" font-size="8.00" fill="#000000">NPbase.h</text>
</a>
</g>
</g>
<!-- Node1&#45;&gt;Node18 -->
<g id="edge3" class="edge">
<title>Node1&#45;&gt;Node18</title>
<path fill="none" stroke="#191970" d="M78.6735,-108.083C71.7536,-100.2982 61.5343,-88.8015 53.1477,-79.3665"/>
<polygon fill="#191970" stroke="#191970" points="55.638,-76.8999 46.3784,-71.7511 50.4061,-81.5505 55.638,-76.8999"/>
</g>
<!-- Node51 -->
<g id="node5" class="node">
<title>Node51</title>
<g id="a_node5"><a xlink:href="../../d2/d96/_n_p_s_m_e_f_td6_matching_8h.html" target="_top" xlink:title="NPSMEFTd6Matching.h">
<polygon fill="none" stroke="#ff0000" points="83.0997,-54.5 83.0997,-71.5 186.0997,-71.5 186.0997,-54.5 83.0997,-54.5"/>
<text text-anchor="middle" x="134.5997" y="-61.1" font-family="Helvetica,sans-Serif" font-size="8.00" fill="#000000">NPSMEFTd6Matching.h</text>
</a>
</g>
</g>
<!-- Node1&#45;&gt;Node51 -->
<g id="edge4" class="edge">
<title>Node1&#45;&gt;Node51</title>
<path fill="none" stroke="#191970" d="M94.5259,-108.083C101.4458,-100.2982 111.665,-88.8015 120.0517,-79.3665"/>
<polygon fill="#191970" stroke="#191970" points="122.7932,-81.5505 126.8209,-71.7511 117.5613,-76.8999 122.7932,-81.5505"/>
</g>
<!-- Node52 -->
<g id="node6" class="node">
<title>Node52</title>
<polygon fill="none" stroke="#bfbfbf" points="204.0997,-54.5 204.0997,-71.5 247.0997,-71.5 247.0997,-54.5 204.0997,-54.5"/>
<text text-anchor="middle" x="225.5997" y="-61.1" font-family="Helvetica,sans-Serif" font-size="8.00" fill="#000000">string.h</text>
</g>
<!-- Node1&#45;&gt;Node52 -->
<g id="edge6" class="edge">
<title>Node1&#45;&gt;Node52</title>
<path fill="none" stroke="#191970" d="M108.6246,-108.4435C131.7036,-99.4776 168.1617,-85.314 194.2405,-75.1827"/>
<polygon fill="#191970" stroke="#191970" points="195.6239,-78.4002 203.6778,-71.5164 193.089,-71.8753 195.6239,-78.4002"/>
</g>
<!-- Node51&#45;&gt;Node2 -->
<g id="edge5" class="edge">
<title>Node51&#45;&gt;Node2</title>
<path fill="none" stroke="#191970" d="M122.5496,-54.324C111.1366,-46.1066 93.7687,-33.6017 80.1648,-23.8069"/>
<polygon fill="#191970" stroke="#191970" points="82.0294,-20.8366 71.869,-17.8339 77.9393,-26.5174 82.0294,-20.8366"/>
</g>
</g>
</svg>
