<?xml version="1.0" encoding="UTF-8" standalone="no"?>
<!DOCTYPE svg PUBLIC "-//W3C//DTD SVG 1.1//EN"
 "http://www.w3.org/Graphics/SVG/1.1/DTD/svg11.dtd">
<!-- Generated by graphviz version 2.40.1 (20161225.0304)
 -->
<!-- Title: EffectivePotMin1_GTHDM Pages: 1 -->
<svg width="745pt" height="151pt"
 viewBox="0.00 0.00 745.00 151.00" xmlns="http://www.w3.org/2000/svg" xmlns:xlink="http://www.w3.org/1999/xlink">
<g id="graph0" class="graph" transform="scale(1 1) rotate(0) translate(4 147)">
<title>EffectivePotMin1_GTHDM</title>
<!-- Node2 -->
<g id="node1" class="node">
<title>Node2</title>
<polygon fill="#bfbfbf" stroke="#000000" points="627,-17.5 627,-34.5 737,-34.5 737,-17.5 627,-17.5"/>
<text text-anchor="middle" x="682" y="-24.1" font-family="Helvetica,sans-Serif" font-size="8.00" fill="#000000">EffectivePotMin1_GTHDM</text>
</g>
<!-- Node3 -->
<g id="node2" class="node">
<title>Node3</title>
<g id="a_node2"><a xlink:href="../../dc/d1f/class_th_observable.html" target="_top" xlink:title="A class for a model prediction of an observable. ">
<polygon fill="none" stroke="#000000" points="421,-36.5 421,-53.5 488,-53.5 488,-36.5 421,-36.5"/>
<text text-anchor="middle" x="454.5" y="-43.1" font-family="Helvetica,sans-Serif" font-size="8.00" fill="#000000">ThObservable</text>
</a>
</g>
</g>
<!-- Node3&#45;&gt;Node2 -->
<g id="edge1" class="edge">
<title>Node3&#45;&gt;Node2</title>
<path fill="none" stroke="#191970" d="M498.4101,-41.3328C534.9753,-38.279 587.2473,-33.9134 626.6699,-30.621"/>
<polygon fill="#191970" stroke="#191970" points="497.7424,-37.8763 488.0684,-42.1965 498.325,-44.852 497.7424,-37.8763"/>
</g>
<!-- Node4 -->
<g id="node3" class="node">
<title>Node4</title>
<g id="a_node3"><a xlink:href="../../dc/dd5/class_standard_model.html" target="_top" xlink:title="A model class for the Standard Model. ">
<polygon fill="none" stroke="#ff0000" points="226.5,-84.5 226.5,-101.5 297.5,-101.5 297.5,-84.5 226.5,-84.5"/>
<text text-anchor="middle" x="262" y="-91.1" font-family="Helvetica,sans-Serif" font-size="8.00" fill="#000000">StandardModel</text>
</a>
</g>
</g>
<!-- Node4&#45;&gt;Node3 -->
<g id="edge2" class="edge">
<title>Node4&#45;&gt;Node3</title>
<path fill="none" stroke="#9a32cd" stroke-dasharray="5,2" d="M287.3553,-79.8424C299.8877,-73.8544 315.4183,-67.1857 330,-63 360.1229,-54.3531 395.5947,-49.7444 420.9538,-47.3636"/>
<polygon fill="#9a32cd" stroke="#9a32cd" points="285.4476,-76.8805 278.0228,-84.4384 288.5402,-83.1603 285.4476,-76.8805"/>
<text text-anchor="middle" x="360" y="-65.6" font-family="Helvetica,sans-Serif" font-size="8.00" fill="#000000"> SM</text>
</g>
<!-- Node9 -->
<g id="node6" class="node">
<title>Node9</title>
<g id="a_node6"><a xlink:href="../../dc/df3/class_e_w_s_mcache.html" target="_top" xlink:title="A class for cache variables used in computing radiative corrections to the EW precision observables...">
<polygon fill="none" stroke="#ff0000" points="423,-79.5 423,-96.5 486,-96.5 486,-79.5 423,-79.5"/>
<text text-anchor="middle" x="454.5" y="-86.1" font-family="Helvetica,sans-Serif" font-size="8.00" fill="#000000">EWSMcache</text>
</a>
</g>
</g>
<!-- Node4&#45;&gt;Node9 -->
<g id="edge6" class="edge">
<title>Node4&#45;&gt;Node9</title>
<path fill="none" stroke="#9a32cd" stroke-dasharray="5,2" d="M303.7845,-82.2901C312.397,-80.5048 321.4483,-78.932 330,-78 356.5097,-75.1109 363.4122,-75.9512 390,-78 400.7333,-78.8271 412.3828,-80.4174 422.7904,-82.0907"/>
<polygon fill="#9a32cd" stroke="#9a32cd" points="302.9462,-78.8907 293.9319,-84.4579 304.4505,-85.7272 302.9462,-78.8907"/>
<text text-anchor="middle" x="360" y="-80.6" font-family="Helvetica,sans-Serif" font-size="8.00" fill="#000000"> SM</text>
</g>
<!-- Node5 -->
<g id="node4" class="node">
<title>Node5</title>
<g id="a_node4"><a xlink:href="../../dd/dfa/class_q_c_d.html" target="_top" xlink:title="A class for parameters related to QCD, hadrons and quarks. ">
<polygon fill="none" stroke="#ff0000" points="55.5,-125.5 55.5,-142.5 89.5,-142.5 89.5,-125.5 55.5,-125.5"/>
<text text-anchor="middle" x="72.5" y="-132.1" font-family="Helvetica,sans-Serif" font-size="8.00" fill="#000000">QCD</text>
</a>
</g>
</g>
<!-- Node5&#45;&gt;Node4 -->
<g id="edge3" class="edge">
<title>Node5&#45;&gt;Node4</title>
<path fill="none" stroke="#191970" d="M99.6037,-128.1359C132.9558,-120.9199 189.6759,-108.648 226.4833,-100.6843"/>
<polygon fill="#191970" stroke="#191970" points="98.6848,-124.7536 89.6511,-130.2892 100.1651,-131.5953 98.6848,-124.7536"/>
</g>
<!-- Node8 -->
<g id="node5" class="node">
<title>Node8</title>
<g id="a_node5"><a xlink:href="../../db/d32/class_e_w_s_m_two_fermions_l_e_p2.html" target="_top" xlink:title="A class for the form factors , &#160;and &#160;in the processes &#160;at LEP&#45;II. ">
<polygon fill="none" stroke="#ff0000" points="627.5,-106.5 627.5,-123.5 736.5,-123.5 736.5,-106.5 627.5,-106.5"/>
<text text-anchor="middle" x="682" y="-113.1" font-family="Helvetica,sans-Serif" font-size="8.00" fill="#000000">EWSMTwoFermionsLEP2</text>
</a>
</g>
</g>
<!-- Node8&#45;&gt;Node4 -->
<g id="edge4" class="edge">
<title>Node8&#45;&gt;Node4</title>
<path fill="none" stroke="#9a32cd" stroke-dasharray="5,2" d="M617.2453,-118.735C614.4599,-118.8367 611.7021,-118.926 609,-119 484.8674,-122.3983 453.2892,-118.8395 330,-104 319.4327,-102.7281 307.9942,-101.011 297.5674,-99.3121"/>
<polygon fill="#9a32cd" stroke="#9a32cd" points="617.554,-122.2254 627.4022,-118.3186 617.2672,-115.2313 617.554,-122.2254"/>
<text text-anchor="middle" x="454.5" y="-121.6" font-family="Helvetica,sans-Serif" font-size="8.00" fill="#000000"> myTwoFermionsLEP2</text>
</g>
<!-- Node9&#45;&gt;Node4 -->
<g id="edge7" class="edge">
<title>Node9&#45;&gt;Node4</title>
<path fill="none" stroke="#9a32cd" stroke-dasharray="5,2" d="M412.5896,-89.0886C378.2816,-89.9797 330.2736,-91.2267 297.7566,-92.0713"/>
<polygon fill="#9a32cd" stroke="#9a32cd" points="412.8591,-92.5829 422.7648,-88.8243 412.6773,-85.5852 412.8591,-92.5829"/>
<text text-anchor="middle" x="360" y="-93.6" font-family="Helvetica,sans-Serif" font-size="8.00" fill="#000000"> myEWSMcache</text>
</g>
<!-- Node9&#45;&gt;Node8 -->
<g id="edge5" class="edge">
<title>Node9&#45;&gt;Node8</title>
<path fill="none" stroke="#9a32cd" stroke-dasharray="5,2" d="M496.5278,-92.9879C533.4059,-97.3647 587.2719,-103.7575 627.4629,-108.5275"/>
<polygon fill="#9a32cd" stroke="#9a32cd" points="496.4757,-89.4573 486.1329,-91.7542 495.6507,-96.4085 496.4757,-89.4573"/>
<text text-anchor="middle" x="564" y="-108.6" font-family="Helvetica,sans-Serif" font-size="8.00" fill="#000000"> cache</text>
</g>
<!-- Node15 -->
<g id="node7" class="node">
<title>Node15</title>
<g id="a_node7"><a xlink:href="../../d5/d76/class_matching.html" target="_top" xlink:title="Matching\&lt; StandardModelMatching,\l StandardModel \&gt;">
<polygon fill="none" stroke="#ff0000" points="0,-80 0,-106 145,-106 145,-80 0,-80"/>
<text text-anchor="start" x="8" y="-95.6" font-family="Helvetica,sans-Serif" font-size="8.00" fill="#000000">Matching&lt; StandardModelMatching,</text>
<text text-anchor="middle" x="72.5" y="-86.6" font-family="Helvetica,sans-Serif" font-size="8.00" fill="#000000"> StandardModel &gt;</text>
</a>
</g>
</g>
<!-- Node15&#45;&gt;Node4 -->
<g id="edge8" class="edge">
<title>Node15&#45;&gt;Node4</title>
<path fill="none" stroke="#9a32cd" stroke-dasharray="5,2" d="M155.409,-93C180.247,-93 206.1877,-93 226.2591,-93"/>
<polygon fill="#9a32cd" stroke="#9a32cd" points="155.2237,-89.5001 145.2237,-93 155.2237,-96.5001 155.2237,-89.5001"/>
<text text-anchor="middle" x="178.5" y="-95.6" font-family="Helvetica,sans-Serif" font-size="8.00" fill="#000000"> SMM</text>
</g>
<!-- Node33 -->
<g id="node8" class="node">
<title>Node33</title>
<g id="a_node8"><a xlink:href="../../d9/db9/class_c_k_m.html" target="_top" xlink:title="A class for the CKM matrix elements. ">
<polygon fill="none" stroke="#ff0000" points="55.5,-43.5 55.5,-60.5 89.5,-60.5 89.5,-43.5 55.5,-43.5"/>
<text text-anchor="middle" x="72.5" y="-50.1" font-family="Helvetica,sans-Serif" font-size="8.00" fill="#000000">CKM</text>
</a>
</g>
</g>
<!-- Node33&#45;&gt;Node4 -->
<g id="edge9" class="edge">
<title>Node33&#45;&gt;Node4</title>
<path fill="none" stroke="#9a32cd" stroke-dasharray="5,2" d="M99.6037,-57.8641C132.9558,-65.0801 189.6759,-77.352 226.4833,-85.3157"/>
<polygon fill="#9a32cd" stroke="#9a32cd" points="100.1651,-54.4047 89.6511,-55.7108 98.6848,-61.2464 100.1651,-54.4047"/>
<text text-anchor="middle" x="178.5" y="-79.6" font-family="Helvetica,sans-Serif" font-size="8.00" fill="#000000"> myCKM</text>
</g>
<!-- Node47 -->
<g id="node9" class="node">
<title>Node47</title>
<g id="a_node9"><a xlink:href="../../d9/d1d/class_effective_pot___g_t_h_d_m.html" target="_top" xlink:title="EffectivePot_GTHDM">
<polygon fill="none" stroke="#000000" points="408,-.5 408,-17.5 501,-17.5 501,-.5 408,-.5"/>
<text text-anchor="middle" x="454.5" y="-7.1" font-family="Helvetica,sans-Serif" font-size="8.00" fill="#000000">EffectivePot_GTHDM</text>
</a>
</g>
</g>
<!-- Node47&#45;&gt;Node2 -->
<g id="edge10" class="edge">
<title>Node47&#45;&gt;Node2</title>
<path fill="none" stroke="#9a32cd" stroke-dasharray="5,2" d="M511.2603,-10.3375C540.5021,-11.3391 576.7083,-13.0628 609,-16 614.7327,-16.5214 620.7057,-17.1685 626.6572,-17.881"/>
<polygon fill="#9a32cd" stroke="#9a32cd" points="511.3335,-6.8381 501.2254,-10.0126 511.1068,-13.8345 511.3335,-6.8381"/>
<text text-anchor="middle" x="564" y="-18.6" font-family="Helvetica,sans-Serif" font-size="8.00" fill="#000000"> myEffectivePot_GTHDM</text>
</g>
<!-- Node48 -->
<g id="node10" class="node">
<title>Node48</title>
<g id="a_node10"><a xlink:href="../../d7/d10/classgslpp_1_1matrix_3_01double_01_4.html" target="_top" xlink:title="A class for constructing and defining operations on real matrices. ">
<polygon fill="none" stroke="#000000" points="212,-.5 212,-17.5 312,-17.5 312,-.5 212,-.5"/>
<text text-anchor="middle" x="262" y="-7.1" font-family="Helvetica,sans-Serif" font-size="8.00" fill="#000000">gslpp::matrix&lt; double &gt;</text>
</a>
</g>
</g>
<!-- Node48&#45;&gt;Node47 -->
<g id="edge11" class="edge">
<title>Node48&#45;&gt;Node47</title>
<path fill="none" stroke="#9a32cd" stroke-dasharray="5,2" d="M322.4164,-9C350.0479,-9 382.2757,-9 407.9798,-9"/>
<polygon fill="#9a32cd" stroke="#9a32cd" points="322.0746,-5.5001 312.0746,-9 322.0746,-12.5001 322.0746,-5.5001"/>
<text text-anchor="middle" x="360" y="-11.6" font-family="Helvetica,sans-Serif" font-size="8.00" fill="#000000"> mat_neutral</text>
</g>
</g>
</svg>
