<?xml version="1.0" encoding="UTF-8" standalone="no"?>
<!DOCTYPE svg PUBLIC "-//W3C//DTD SVG 1.1//EN"
 "http://www.w3.org/Graphics/SVG/1.1/DTD/svg11.dtd">
<!-- Generated by graphviz version 2.38.0 (20140413.2041)
 -->
<!-- Title: myModel.h Pages: 1 -->
<svg width="227pt" height="134pt"
 viewBox="0.00 0.00 227.00 134.00" xmlns="http://www.w3.org/2000/svg" xmlns:xlink="http://www.w3.org/1999/xlink">
<g id="graph0" class="graph" transform="scale(1 1) rotate(0) translate(4 130)">
<title>myModel.h</title>
<!-- Node1 -->
<g id="node1" class="node"><title>Node1</title>
<polygon fill="#bfbfbf" stroke="black" points="57.5,-108.5 57.5,-125.5 113.5,-125.5 113.5,-108.5 57.5,-108.5"/>
<text text-anchor="middle" x="85.5" y="-115.1" font-family="Helvetica,sans-Serif" font-size="8.00">myModel.h</text>
</g>
<!-- Node2 -->
<g id="node2" class="node"><title>Node2</title>
<g id="a_node2"><a xlink:href="../../d1/d39/my_model___m_c_m_c_8cpp.html" target="_top" xlink:title="myModel_MCMC.cpp">
<polygon fill="none" stroke="black" points="0,-0.5 0,-17.5 93,-17.5 93,-0.5 0,-0.5"/>
<text text-anchor="middle" x="46.5" y="-7.1" font-family="Helvetica,sans-Serif" font-size="8.00">myModel_MCMC.cpp</text>
</a>
</g>
</g>
<!-- Node1&#45;&gt;Node2 -->
<g id="edge1" class="edge"><title>Node1&#45;&gt;Node2</title>
<path fill="none" stroke="midnightblue" d="M66.9098,-101.76C58.3444,-94.0091 49.0797,-83.6327 44.5,-72 37.2409,-53.5616 41.45,-29.5991 44.3918,-17.5787"/>
<polygon fill="midnightblue" stroke="midnightblue" points="64.8268,-104.581 74.7319,-108.341 69.3336,-99.2249 64.8268,-104.581"/>
</g>
<!-- Node3 -->
<g id="node3" class="node"><title>Node3</title>
<g id="a_node3"><a xlink:href="../../d2/dfd/my_model_8cpp.html" target="_top" xlink:title="myModel.cpp">
<polygon fill="none" stroke="black" points="53.5,-54.5 53.5,-71.5 117.5,-71.5 117.5,-54.5 53.5,-54.5"/>
<text text-anchor="middle" x="85.5" y="-61.1" font-family="Helvetica,sans-Serif" font-size="8.00">myModel.cpp</text>
</a>
</g>
</g>
<!-- Node1&#45;&gt;Node3 -->
<g id="edge2" class="edge"><title>Node1&#45;&gt;Node3</title>
<path fill="none" stroke="midnightblue" d="M85.5,-98.0621C85.5,-89.0603 85.5,-78.6277 85.5,-71.7043"/>
<polygon fill="midnightblue" stroke="midnightblue" points="82.0001,-98.3272 85.5,-108.327 89.0001,-98.3273 82.0001,-98.3272"/>
</g>
<!-- Node4 -->
<g id="node4" class="node"><title>Node4</title>
<g id="a_node4"><a xlink:href="../../d5/d9e/my_observables_8h.html" target="_top" xlink:title="myObservables.h">
<polygon fill="none" stroke="black" points="136,-54.5 136,-71.5 215,-71.5 215,-54.5 136,-54.5"/>
<text text-anchor="middle" x="175.5" y="-61.1" font-family="Helvetica,sans-Serif" font-size="8.00">myObservables.h</text>
</a>
</g>
</g>
<!-- Node1&#45;&gt;Node4 -->
<g id="edge3" class="edge"><title>Node1&#45;&gt;Node4</title>
<path fill="none" stroke="midnightblue" d="M107.619,-103.22C124.827,-93.278 148.117,-79.8214 162.458,-71.5352"/>
<polygon fill="midnightblue" stroke="midnightblue" points="105.687,-100.294 98.7798,-108.327 109.189,-106.355 105.687,-100.294"/>
</g>
<!-- Node4&#45;&gt;Node2 -->
<g id="edge4" class="edge"><title>Node4&#45;&gt;Node2</title>
<path fill="none" stroke="midnightblue" d="M147.457,-50.696C122.564,-40.6613 86.8816,-26.2778 65.2803,-17.5704"/>
<polygon fill="midnightblue" stroke="midnightblue" points="146.159,-53.9462 156.742,-54.4388 148.776,-47.4538 146.159,-53.9462"/>
</g>
<!-- Node5 -->
<g id="node5" class="node"><title>Node5</title>
<g id="a_node5"><a xlink:href="../../d5/d46/my_observables_8cpp.html" target="_top" xlink:title="myObservables.cpp">
<polygon fill="none" stroke="black" points="132,-0.5 132,-17.5 219,-17.5 219,-0.5 132,-0.5"/>
<text text-anchor="middle" x="175.5" y="-7.1" font-family="Helvetica,sans-Serif" font-size="8.00">myObservables.cpp</text>
</a>
</g>
</g>
<!-- Node4&#45;&gt;Node5 -->
<g id="edge5" class="edge"><title>Node4&#45;&gt;Node5</title>
<path fill="none" stroke="midnightblue" d="M175.5,-44.0621C175.5,-35.0603 175.5,-24.6277 175.5,-17.7043"/>
<polygon fill="midnightblue" stroke="midnightblue" points="172,-44.3272 175.5,-54.3272 179,-44.3273 172,-44.3272"/>
</g>
</g>
</svg>
