<?xml version="1.0" encoding="UTF-8" standalone="no"?>
<!DOCTYPE svg PUBLIC "-//W3C//DTD SVG 1.1//EN"
 "http://www.w3.org/Graphics/SVG/1.1/DTD/svg11.dtd">
<!-- Generated by graphviz version 2.40.1 (20161225.0304)
 -->
<!-- Title: DenseTriplyIndexedBlock.hpp Pages: 1 -->
<svg width="369pt" height="314pt"
 viewBox="0.00 0.00 369.37 314.00" xmlns="http://www.w3.org/2000/svg" xmlns:xlink="http://www.w3.org/1999/xlink">
<g id="graph0" class="graph" transform="scale(1 1) rotate(0) translate(4 310)">
<title>DenseTriplyIndexedBlock.hpp</title>
<!-- Node0 -->
<g id="node1" class="node">
<title>Node0</title>
<polygon fill="#bfbfbf" stroke="#000000" points="183.3748,-288.5 183.3748,-305.5 306.3748,-305.5 306.3748,-288.5 183.3748,-288.5"/>
<text text-anchor="middle" x="244.8748" y="-295.1" font-family="Helvetica,sans-Serif" font-size="8.00" fill="#000000">DenseTriplyIndexedBlock.hpp</text>
</g>
<!-- Node1 -->
<g id="node2" class="node">
<title>Node1</title>
<g id="a_node2"><a xlink:href="../../d9/d8c/_indexed_block_template_8hpp.html" target="_top" xlink:title="IndexedBlockTemplate.hpp">
<polygon fill="none" stroke="#000000" points="125.3748,-230 125.3748,-247 238.3748,-247 238.3748,-230 125.3748,-230"/>
<text text-anchor="middle" x="181.8748" y="-236.6" font-family="Helvetica,sans-Serif" font-size="8.00" fill="#000000">IndexedBlockTemplate.hpp</text>
</a>
</g>
</g>
<!-- Node0&#45;&gt;Node1 -->
<g id="edge1" class="edge">
<title>Node0&#45;&gt;Node1</title>
<path fill="none" stroke="#191970" d="M235.579,-288.3681C225.9011,-279.3816 210.5339,-265.112 198.7127,-254.1352"/>
<polygon fill="#191970" stroke="#191970" points="200.9184,-251.407 191.2089,-247.1673 196.1552,-256.5366 200.9184,-251.407"/>
</g>
<!-- Node45 -->
<g id="node9" class="node">
<title>Node45</title>
<g id="a_node9"><a xlink:href="../../d0/d07/_dense_triply_indexed_8hpp.html" target="_top" xlink:title="InterpreterClasses\l/DenseTriplyIndexed.hpp">
<polygon fill="none" stroke="#000000" points="256.3748,-225.5 256.3748,-251.5 361.3748,-251.5 361.3748,-225.5 256.3748,-225.5"/>
<text text-anchor="start" x="264.3748" y="-241.1" font-family="Helvetica,sans-Serif" font-size="8.00" fill="#000000">InterpreterClasses</text>
<text text-anchor="middle" x="308.8748" y="-232.1" font-family="Helvetica,sans-Serif" font-size="8.00" fill="#000000">/DenseTriplyIndexed.hpp</text>
</a>
</g>
</g>
<!-- Node0&#45;&gt;Node45 -->
<g id="edge15" class="edge">
<title>Node0&#45;&gt;Node45</title>
<path fill="none" stroke="#191970" d="M254.3183,-288.3681C262.8241,-280.5933 275.656,-268.8641 286.7385,-258.734"/>
<polygon fill="#191970" stroke="#191970" points="289.3925,-261.05 294.4122,-251.7197 284.6697,-255.8832 289.3925,-261.05"/>
</g>
<!-- Node2 -->
<g id="node3" class="node">
<title>Node2</title>
<g id="a_node3"><a xlink:href="../../dd/d89/_slha_block_8hpp.html" target="_top" xlink:title="../SlhaBlock.hpp">
<polygon fill="none" stroke="#000000" points="144.8748,-171.5 144.8748,-188.5 218.8748,-188.5 218.8748,-171.5 144.8748,-171.5"/>
<text text-anchor="middle" x="181.8748" y="-178.1" font-family="Helvetica,sans-Serif" font-size="8.00" fill="#000000">../SlhaBlock.hpp</text>
</a>
</g>
</g>
<!-- Node1&#45;&gt;Node2 -->
<g id="edge2" class="edge">
<title>Node1&#45;&gt;Node2</title>
<path fill="none" stroke="#191970" d="M181.8748,-229.8681C181.8748,-221.7457 181.8748,-209.3073 181.8748,-198.8853"/>
<polygon fill="#191970" stroke="#191970" points="185.3749,-198.6673 181.8748,-188.6673 178.3749,-198.6673 185.3749,-198.6673"/>
</g>
<!-- Node3 -->
<g id="node4" class="node">
<title>Node3</title>
<polygon fill="none" stroke="#bfbfbf" points="54.8748,-.5 54.8748,-17.5 90.8748,-17.5 90.8748,-.5 54.8748,-.5"/>
<text text-anchor="middle" x="72.8748" y="-7.1" font-family="Helvetica,sans-Serif" font-size="8.00" fill="#000000">string</text>
</g>
<!-- Node2&#45;&gt;Node3 -->
<g id="edge3" class="edge">
<title>Node2&#45;&gt;Node3</title>
<path fill="none" stroke="#191970" d="M144.6849,-175.6277C98.9515,-169.3972 25.3421,-156.2986 8.8748,-135 -18.8697,-99.1154 26.8359,-49.3479 54.3745,-24.4638"/>
<polygon fill="#191970" stroke="#191970" points="57.0164,-26.8027 62.2363,-17.5829 52.4062,-21.5353 57.0164,-26.8027"/>
</g>
<!-- Node4 -->
<g id="node5" class="node">
<title>Node4</title>
<g id="a_node5"><a xlink:href="../../d8/d14/_b_o_llib_8hpp.html" target="_top" xlink:title="BOLlib/include/BOLlib.hpp">
<polygon fill="none" stroke="#ff0000" points="169.8748,-.5 169.8748,-17.5 279.8748,-17.5 279.8748,-.5 169.8748,-.5"/>
<text text-anchor="middle" x="224.8748" y="-7.1" font-family="Helvetica,sans-Serif" font-size="8.00" fill="#000000">BOLlib/include/BOLlib.hpp</text>
</a>
</g>
</g>
<!-- Node2&#45;&gt;Node4 -->
<g id="edge4" class="edge">
<title>Node2&#45;&gt;Node4</title>
<path fill="none" stroke="#191970" d="M218.9516,-174.5704C260.652,-167.6165 324.4546,-154.1341 338.8748,-135 372.0394,-90.9943 296.1113,-44.1238 252.6354,-21.9982"/>
<polygon fill="#191970" stroke="#191970" points="254.159,-18.847 243.6453,-17.5383 251.0482,-25.1178 254.159,-18.847"/>
</g>
<!-- Node40 -->
<g id="node6" class="node">
<title>Node40</title>
<g id="a_node6"><a xlink:href="../../d2/d04/_base_slha_block_8hpp.html" target="_top" xlink:title="BlockClasses/BaseSlhaBlock.hpp">
<polygon fill="none" stroke="#ff0000" points="17.8748,-113 17.8748,-130 153.8748,-130 153.8748,-113 17.8748,-113"/>
<text text-anchor="middle" x="85.8748" y="-119.6" font-family="Helvetica,sans-Serif" font-size="8.00" fill="#000000">BlockClasses/BaseSlhaBlock.hpp</text>
</a>
</g>
</g>
<!-- Node2&#45;&gt;Node40 -->
<g id="edge5" class="edge">
<title>Node2&#45;&gt;Node40</title>
<path fill="none" stroke="#191970" d="M167.7097,-171.3681C152.1826,-161.9063 127.0448,-146.588 108.7221,-135.4226"/>
<polygon fill="#191970" stroke="#191970" points="110.4588,-132.3822 100.0981,-130.1673 106.8162,-138.3598 110.4588,-132.3822"/>
</g>
<!-- Node41 -->
<g id="node7" class="node">
<title>Node41</title>
<g id="a_node7"><a xlink:href="../../dc/d87/_base_string_block_8hpp.html" target="_top" xlink:title="BaseStringBlock.hpp">
<polygon fill="none" stroke="#ff0000" points="139.3748,-54.5 139.3748,-71.5 230.3748,-71.5 230.3748,-54.5 139.3748,-54.5"/>
<text text-anchor="middle" x="184.8748" y="-61.1" font-family="Helvetica,sans-Serif" font-size="8.00" fill="#000000">BaseStringBlock.hpp</text>
</a>
</g>
</g>
<!-- Node2&#45;&gt;Node41 -->
<g id="edge11" class="edge">
<title>Node2&#45;&gt;Node41</title>
<path fill="none" stroke="#191970" d="M182.1003,-171.206C182.5848,-152.3108 183.7344,-107.4782 184.3917,-81.8433"/>
<polygon fill="#191970" stroke="#191970" points="187.8973,-81.6646 184.6549,-71.5781 180.8996,-81.4851 187.8973,-81.6646"/>
</g>
<!-- Node44 -->
<g id="node8" class="node">
<title>Node44</title>
<g id="a_node8"><a xlink:href="../../db/d22/_block_interpreter_8hpp.html" target="_top" xlink:title="BlockClasses/Interpreter\lClasses/BlockInterpreter.hpp">
<polygon fill="none" stroke="#000000" points="210.3748,-108.5 210.3748,-134.5 329.3748,-134.5 329.3748,-108.5 210.3748,-108.5"/>
<text text-anchor="start" x="218.3748" y="-124.1" font-family="Helvetica,sans-Serif" font-size="8.00" fill="#000000">BlockClasses/Interpreter</text>
<text text-anchor="middle" x="269.8748" y="-115.1" font-family="Helvetica,sans-Serif" font-size="8.00" fill="#000000">Classes/BlockInterpreter.hpp</text>
</a>
</g>
</g>
<!-- Node2&#45;&gt;Node44 -->
<g id="edge12" class="edge">
<title>Node2&#45;&gt;Node44</title>
<path fill="none" stroke="#191970" d="M194.8596,-171.3681C207.1228,-163.2159 225.926,-150.716 241.6386,-140.2707"/>
<polygon fill="#191970" stroke="#191970" points="243.5986,-143.1706 249.9887,-134.7197 239.7233,-137.3411 243.5986,-143.1706"/>
</g>
<!-- Node40&#45;&gt;Node3 -->
<g id="edge6" class="edge">
<title>Node40&#45;&gt;Node3</title>
<path fill="none" stroke="#191970" d="M84.8548,-112.6723C82.7569,-94.5173 77.9172,-52.6361 75.0727,-28.0201"/>
<polygon fill="#191970" stroke="#191970" points="78.5151,-27.3188 73.8902,-17.7867 71.5613,-28.1224 78.5151,-27.3188"/>
</g>
<!-- Node40&#45;&gt;Node4 -->
<g id="edge7" class="edge">
<title>Node40&#45;&gt;Node4</title>
<path fill="none" stroke="#191970" d="M89.5488,-112.9578C95.929,-98.9911 110.2751,-71.1123 129.8748,-54 146.6155,-39.3839 168.9254,-28.4908 187.7184,-21.0859"/>
<polygon fill="#191970" stroke="#191970" points="189.0481,-24.3253 197.1772,-17.5304 186.5851,-17.7729 189.0481,-24.3253"/>
</g>
<!-- Node40&#45;&gt;Node41 -->
<g id="edge8" class="edge">
<title>Node40&#45;&gt;Node41</title>
<path fill="none" stroke="#191970" d="M100.4826,-112.8681C116.5681,-103.3631 142.6552,-87.9479 161.572,-76.7699"/>
<polygon fill="#191970" stroke="#191970" points="163.3784,-79.7679 170.2071,-71.6673 159.8173,-73.7414 163.3784,-79.7679"/>
</g>
<!-- Node41&#45;&gt;Node3 -->
<g id="edge9" class="edge">
<title>Node41&#45;&gt;Node3</title>
<path fill="none" stroke="#191970" d="M166.8801,-54.324C148.8372,-45.6247 120.8279,-32.1202 100.0721,-22.113"/>
<polygon fill="#191970" stroke="#191970" points="101.3527,-18.8449 90.8249,-17.6545 98.3126,-25.1502 101.3527,-18.8449"/>
</g>
<!-- Node41&#45;&gt;Node4 -->
<g id="edge10" class="edge">
<title>Node41&#45;&gt;Node4</title>
<path fill="none" stroke="#191970" d="M191.48,-54.083C197.1301,-46.4554 205.4197,-35.2645 212.3261,-25.9408"/>
<polygon fill="#191970" stroke="#191970" points="215.2527,-27.87 218.3926,-17.7511 209.6278,-23.7034 215.2527,-27.87"/>
</g>
<!-- Node44&#45;&gt;Node4 -->
<g id="edge13" class="edge">
<title>Node44&#45;&gt;Node4</title>
<path fill="none" stroke="#191970" d="M264.536,-108.153C256.4565,-87.9542 241.1083,-49.5837 232.057,-26.9554"/>
<polygon fill="#191970" stroke="#191970" points="235.2479,-25.5084 228.2843,-17.5236 228.7486,-28.1082 235.2479,-25.5084"/>
</g>
<!-- Node44&#45;&gt;Node41 -->
<g id="edge14" class="edge">
<title>Node44&#45;&gt;Node41</title>
<path fill="none" stroke="#191970" d="M250.587,-108.2254C237.1668,-98.9892 219.2923,-86.6873 205.5737,-77.2457"/>
<polygon fill="#191970" stroke="#191970" points="207.4693,-74.3015 197.2474,-71.5152 203.5007,-80.0678 207.4693,-74.3015"/>
</g>
<!-- Node46 -->
<g id="node10" class="node">
<title>Node46</title>
<g id="a_node10"><a xlink:href="../../d6/d7b/_indexed_interpreter_8hpp.html" target="_top" xlink:title="IndexedInterpreter.hpp">
<polygon fill="none" stroke="#ff0000" points="260.3748,-171.5 260.3748,-188.5 357.3748,-188.5 357.3748,-171.5 260.3748,-171.5"/>
<text text-anchor="middle" x="308.8748" y="-178.1" font-family="Helvetica,sans-Serif" font-size="8.00" fill="#000000">IndexedInterpreter.hpp</text>
</a>
</g>
</g>
<!-- Node45&#45;&gt;Node46 -->
<g id="edge16" class="edge">
<title>Node45&#45;&gt;Node46</title>
<path fill="none" stroke="#191970" d="M308.8748,-225.2254C308.8748,-217.4435 308.8748,-207.4853 308.8748,-198.8952"/>
<polygon fill="#191970" stroke="#191970" points="312.3749,-198.6889 308.8748,-188.689 305.3749,-198.689 312.3749,-198.6889"/>
</g>
</g>
</svg>
