<?xml version="1.0" encoding="UTF-8" standalone="no"?>
<!DOCTYPE svg PUBLIC "-//W3C//DTD SVG 1.1//EN"
 "http://www.w3.org/Graphics/SVG/1.1/DTD/svg11.dtd">
<!-- Generated by graphviz version 2.38.0 (20140413.2041)
 -->
<!-- Title: Hobs_bbF_A_tautau_CMS Pages: 1 -->
<svg width="120pt" height="134pt"
 viewBox="0.00 0.00 120.00 134.00" xmlns="http://www.w3.org/2000/svg" xmlns:xlink="http://www.w3.org/1999/xlink">
<g id="graph0" class="graph" transform="scale(1 1) rotate(0) translate(4 130)">
<title>Hobs_bbF_A_tautau_CMS</title>
<!-- Node1 -->
<g id="node1" class="node"><title>Node1</title>
<polygon fill="#bfbfbf" stroke="black" points="0,-0.5 0,-17.5 112,-17.5 112,-0.5 0,-0.5"/>
<text text-anchor="middle" x="56" y="-7.1" font-family="Helvetica,sans-Serif" font-size="8.00">Hobs_bbF_A_tautau_CMS</text>
</g>
<!-- Node2 -->
<g id="node2" class="node"><title>Node2</title>
<g id="a_node2"><a xlink:href="../../db/d1d/class_c_podd_higgs.html" target="_top" xlink:title="Base class for direct CP&#45;odd Higgs search observables. ">
<polygon fill="none" stroke="black" points="25.5,-54.5 25.5,-71.5 86.5,-71.5 86.5,-54.5 25.5,-54.5"/>
<text text-anchor="middle" x="56" y="-61.1" font-family="Helvetica,sans-Serif" font-size="8.00">CPoddHiggs</text>
</a>
</g>
</g>
<!-- Node2&#45;&gt;Node1 -->
<g id="edge1" class="edge"><title>Node2&#45;&gt;Node1</title>
<path fill="none" stroke="midnightblue" d="M56,-44.0621C56,-35.0603 56,-24.6277 56,-17.7043"/>
<polygon fill="midnightblue" stroke="midnightblue" points="52.5001,-44.3272 56,-54.3272 59.5001,-44.3273 52.5001,-44.3272"/>
</g>
<!-- Node3 -->
<g id="node3" class="node"><title>Node3</title>
<g id="a_node3"><a xlink:href="../../dc/d1f/class_th_observable.html" target="_top" xlink:title="A class for a model prediction of an observable. ">
<polygon fill="none" stroke="black" points="22.5,-108.5 22.5,-125.5 89.5,-125.5 89.5,-108.5 22.5,-108.5"/>
<text text-anchor="middle" x="56" y="-115.1" font-family="Helvetica,sans-Serif" font-size="8.00">ThObservable</text>
</a>
</g>
</g>
<!-- Node3&#45;&gt;Node2 -->
<g id="edge2" class="edge"><title>Node3&#45;&gt;Node2</title>
<path fill="none" stroke="midnightblue" d="M56,-98.0621C56,-89.0603 56,-78.6277 56,-71.7043"/>
<polygon fill="midnightblue" stroke="midnightblue" points="52.5001,-98.3272 56,-108.327 59.5001,-98.3273 52.5001,-98.3272"/>
</g>
</g>
</svg>
