<?xml version="1.0" encoding="UTF-8" standalone="no"?>
<!DOCTYPE svg PUBLIC "-//W3C//DTD SVG 1.1//EN"
 "http://www.w3.org/Graphics/SVG/1.1/DTD/svg11.dtd">
<!-- Generated by graphviz version 2.38.0 (20140413.2041)
 -->
<!-- Title: InputParser Pages: 1 -->
<svg width="511pt" height="215pt"
 viewBox="0.00 0.00 510.50 215.00" xmlns="http://www.w3.org/2000/svg" xmlns:xlink="http://www.w3.org/1999/xlink">
<g id="graph0" class="graph" transform="scale(1 1) rotate(0) translate(4 211)">
<title>InputParser</title>
<!-- Node1 -->
<g id="node1" class="node"><title>Node1</title>
<polygon fill="#bfbfbf" stroke="black" points="88.5,-63.5 88.5,-80.5 146.5,-80.5 146.5,-63.5 88.5,-63.5"/>
<text text-anchor="middle" x="117.5" y="-70.1" font-family="Helvetica,sans-Serif" font-size="8.00">InputParser</text>
</g>
<!-- Node2 -->
<g id="node2" class="node"><title>Node2</title>
<g id="a_node2"><a xlink:href="../../db/da7/class_model_factory.html" target="_top" xlink:title="A class for. ">
<polygon fill="none" stroke="black" points="0,-126.5 0,-143.5 65,-143.5 65,-126.5 0,-126.5"/>
<text text-anchor="middle" x="32.5" y="-133.1" font-family="Helvetica,sans-Serif" font-size="8.00">ModelFactory</text>
</a>
</g>
</g>
<!-- Node2&#45;&gt;Node1 -->
<g id="edge1" class="edge"><title>Node2&#45;&gt;Node1</title>
<path fill="none" stroke="#9a32cd" stroke-dasharray="5,2" d="M38.9642,-116.636C41.9868,-110.407 46.1262,-103.755 51.5,-99 61.9223,-89.7782 76.0031,-83.6317 88.4819,-79.6423"/>
<polygon fill="#9a32cd" stroke="#9a32cd" points="35.5469,-115.735 34.9109,-126.311 42.0032,-118.44 35.5469,-115.735"/>
<text text-anchor="middle" x="82.5" y="-101.6" font-family="Helvetica,sans-Serif" font-size="8.00"> myModelFactory</text>
</g>
<!-- Node3 -->
<g id="node3" class="node"><title>Node3</title>
<g id="a_node3"><a xlink:href="../../d5/d49/class_th_obs_factory.html" target="_top" xlink:title="A class for. ">
<polygon fill="none" stroke="black" points="84,-126.5 84,-143.5 151,-143.5 151,-126.5 84,-126.5"/>
<text text-anchor="middle" x="117.5" y="-133.1" font-family="Helvetica,sans-Serif" font-size="8.00">ThObsFactory</text>
</a>
</g>
</g>
<!-- Node3&#45;&gt;Node1 -->
<g id="edge2" class="edge"><title>Node3&#45;&gt;Node1</title>
<path fill="none" stroke="#9a32cd" stroke-dasharray="5,2" d="M117.5,-116.27C117.5,-104.549 117.5,-89.7567 117.5,-80.8556"/>
<polygon fill="#9a32cd" stroke="#9a32cd" points="114,-116.274 117.5,-126.274 121,-116.274 114,-116.274"/>
<text text-anchor="middle" x="145" y="-101.6" font-family="Helvetica,sans-Serif" font-size="8.00"> myObsFactory</text>
</g>
<!-- Node4 -->
<g id="node4" class="node"><title>Node4</title>
<g id="a_node4"><a xlink:href="../../dc/dd5/class_standard_model.html" target="_top" xlink:title="A model class for the Standard Model. ">
<polygon fill="none" stroke="red" points="243,-126.5 243,-143.5 314,-143.5 314,-126.5 243,-126.5"/>
<text text-anchor="middle" x="278.5" y="-133.1" font-family="Helvetica,sans-Serif" font-size="8.00">StandardModel</text>
</a>
</g>
</g>
<!-- Node4&#45;&gt;Node1 -->
<g id="edge3" class="edge"><title>Node4&#45;&gt;Node1</title>
<path fill="none" stroke="#9a32cd" stroke-dasharray="5,2" d="M242.043,-123.383C227.724,-118.968 211.223,-113.576 196.5,-108 174.195,-99.552 149.122,-88.0965 133.324,-80.6282"/>
<polygon fill="#9a32cd" stroke="#9a32cd" points="241.442,-126.858 252.027,-126.413 243.475,-120.16 241.442,-126.858"/>
<text text-anchor="middle" x="214" y="-101.6" font-family="Helvetica,sans-Serif" font-size="8.00"> myModel</text>
</g>
<!-- Node6 -->
<g id="node6" class="node"><title>Node6</title>
<g id="a_node6"><a xlink:href="../../dc/df3/class_e_w_s_mcache.html" target="_top" xlink:title="A class for cache variables used in computing radiative corrections to the EW precision observables...">
<polygon fill="none" stroke="red" points="329,-63.5 329,-80.5 392,-80.5 392,-63.5 329,-63.5"/>
<text text-anchor="middle" x="360.5" y="-70.1" font-family="Helvetica,sans-Serif" font-size="8.00">EWSMcache</text>
</a>
</g>
</g>
<!-- Node4&#45;&gt;Node6 -->
<g id="edge6" class="edge"><title>Node4&#45;&gt;Node6</title>
<path fill="none" stroke="#9a32cd" stroke-dasharray="5,2" d="M315.53,-122.597C324.011,-118.848 332.563,-114.044 339.5,-108 348.156,-100.459 354.266,-88.4466 357.586,-80.6413"/>
<polygon fill="#9a32cd" stroke="#9a32cd" points="314.051,-119.419 306.074,-126.392 316.658,-125.916 314.051,-119.419"/>
<text text-anchor="middle" x="355" y="-101.6" font-family="Helvetica,sans-Serif" font-size="8.00"> SM</text>
</g>
<!-- Node5 -->
<g id="node5" class="node"><title>Node5</title>
<g id="a_node5"><a xlink:href="../../dd/dfa/class_q_c_d.html" target="_top" xlink:title="A class for parameters related to QCD, hadrons and quarks. ">
<polygon fill="none" stroke="red" points="209.5,-189.5 209.5,-206.5 243.5,-206.5 243.5,-189.5 209.5,-189.5"/>
<text text-anchor="middle" x="226.5" y="-196.1" font-family="Helvetica,sans-Serif" font-size="8.00">QCD</text>
</a>
</g>
</g>
<!-- Node5&#45;&gt;Node4 -->
<g id="edge4" class="edge"><title>Node5&#45;&gt;Node4</title>
<path fill="none" stroke="midnightblue" d="M239.792,-181.407C250.027,-169.401 263.746,-153.307 271.803,-143.856"/>
<polygon fill="midnightblue" stroke="midnightblue" points="236.91,-179.394 233.086,-189.274 242.237,-183.935 236.91,-179.394"/>
</g>
<!-- Node6&#45;&gt;Node4 -->
<g id="edge5" class="edge"><title>Node6&#45;&gt;Node4</title>
<path fill="none" stroke="#9a32cd" stroke-dasharray="5,2" d="M318.654,-81.7529C301.571,-86.2373 284.617,-92.1894 279.5,-99 273.584,-106.873 274.755,-118.798 276.413,-126.493"/>
<polygon fill="#9a32cd" stroke="#9a32cd" points="319.769,-85.0825 328.638,-79.2867 318.091,-78.2868 319.769,-85.0825"/>
<text text-anchor="middle" x="309.5" y="-101.6" font-family="Helvetica,sans-Serif" font-size="8.00"> myEWSMcache</text>
</g>
<!-- Node8 -->
<g id="node8" class="node"><title>Node8</title>
<g id="a_node8"><a xlink:href="../../d5/dad/class_e_w_s_m_three_loop_e_w.html" target="_top" xlink:title="A class for &#160;three&#45;loop corrections to the EW precision observables. ">
<polygon fill="none" stroke="black" points="227,-0.5 227,-17.5 320,-17.5 320,-0.5 227,-0.5"/>
<text text-anchor="middle" x="273.5" y="-7.1" font-family="Helvetica,sans-Serif" font-size="8.00">EWSMThreeLoopEW</text>
</a>
</g>
</g>
<!-- Node6&#45;&gt;Node8 -->
<g id="edge9" class="edge"><title>Node6&#45;&gt;Node8</title>
<path fill="none" stroke="#9a32cd" stroke-dasharray="5,2" d="M341.142,-57.427C323.684,-45.1866 298.635,-27.6231 284.429,-17.663"/>
<polygon fill="#9a32cd" stroke="#9a32cd" points="339.284,-60.3991 349.481,-63.2743 343.303,-54.6676 339.284,-60.3991"/>
<text text-anchor="middle" x="334.5" y="-38.6" font-family="Helvetica,sans-Serif" font-size="8.00"> cache</text>
</g>
<!-- Node10 -->
<g id="node10" class="node"><title>Node10</title>
<g id="a_node10"><a xlink:href="../../d5/dde/class_e_w_s_m_approximate_formulae.html" target="_top" xlink:title="A class for approximate formulae of the EW precision observables. ">
<polygon fill="none" stroke="black" points="353.5,-0.5 353.5,-17.5 473.5,-17.5 473.5,-0.5 353.5,-0.5"/>
<text text-anchor="middle" x="413.5" y="-7.1" font-family="Helvetica,sans-Serif" font-size="8.00">EWSMApproximateFormulae</text>
</a>
</g>
</g>
<!-- Node6&#45;&gt;Node10 -->
<g id="edge12" class="edge"><title>Node6&#45;&gt;Node10</title>
<path fill="none" stroke="#9a32cd" stroke-dasharray="5,2" d="M367.832,-54.1482C370.93,-48.069 374.893,-41.3853 379.5,-36 385.683,-28.7722 394.183,-22.2722 401.137,-17.5792"/>
<polygon fill="#9a32cd" stroke="#9a32cd" points="364.538,-52.9305 363.478,-63.4722 370.881,-55.8926 364.538,-52.9305"/>
<text text-anchor="middle" x="397" y="-38.6" font-family="Helvetica,sans-Serif" font-size="8.00"> mycache</text>
</g>
<!-- Node7 -->
<g id="node7" class="node"><title>Node7</title>
<g id="a_node7"><a xlink:href="../../d9/db9/class_c_k_m.html" target="_top" xlink:title="A class for the CKM matrix elements. ">
<polygon fill="none" stroke="red" points="261.5,-189.5 261.5,-206.5 295.5,-206.5 295.5,-189.5 261.5,-189.5"/>
<text text-anchor="middle" x="278.5" y="-196.1" font-family="Helvetica,sans-Serif" font-size="8.00">CKM</text>
</a>
</g>
</g>
<!-- Node7&#45;&gt;Node4 -->
<g id="edge7" class="edge"><title>Node7&#45;&gt;Node4</title>
<path fill="none" stroke="#9a32cd" stroke-dasharray="5,2" d="M278.5,-179.27C278.5,-167.549 278.5,-152.757 278.5,-143.856"/>
<polygon fill="#9a32cd" stroke="#9a32cd" points="275,-179.274 278.5,-189.274 282,-179.274 275,-179.274"/>
<text text-anchor="middle" x="294" y="-164.6" font-family="Helvetica,sans-Serif" font-size="8.00"> myCKM</text>
</g>
<!-- Node8&#45;&gt;Node4 -->
<g id="edge8" class="edge"><title>Node8&#45;&gt;Node4</title>
<path fill="none" stroke="#9a32cd" stroke-dasharray="5,2" d="M264.304,-26.9089C257.647,-41.2231 250.47,-62.3317 254.5,-81 258.208,-98.1797 267.963,-116.49 273.832,-126.458"/>
<polygon fill="#9a32cd" stroke="#9a32cd" points="267.511,-28.3232 268.892,-17.8188 261.261,-25.1692 267.511,-28.3232"/>
<text text-anchor="middle" x="287" y="-70.1" font-family="Helvetica,sans-Serif" font-size="8.00"> myThreeLoopEW</text>
</g>
<!-- Node9 -->
<g id="node9" class="node"><title>Node9</title>
<g id="a_node9"><a xlink:href="../../d4/d6d/class_flavour.html" target="_top" xlink:title="The parent class in Flavour for calculating all the Wilson coefficients for various Flavor Violating ...">
<polygon fill="none" stroke="red" points="314,-189.5 314,-206.5 357,-206.5 357,-189.5 314,-189.5"/>
<text text-anchor="middle" x="335.5" y="-196.1" font-family="Helvetica,sans-Serif" font-size="8.00">Flavour</text>
</a>
</g>
</g>
<!-- Node9&#45;&gt;Node4 -->
<g id="edge10" class="edge"><title>Node9&#45;&gt;Node4</title>
<path fill="none" stroke="#9a32cd" stroke-dasharray="5,2" d="M326.909,-180.608C323.238,-174.414 318.618,-167.532 313.5,-162 306.92,-154.888 298.17,-148.388 291.065,-143.666"/>
<polygon fill="#9a32cd" stroke="#9a32cd" points="323.919,-182.434 331.829,-189.482 330.041,-179.039 323.919,-182.434"/>
<text text-anchor="middle" x="341.5" y="-164.6" font-family="Helvetica,sans-Serif" font-size="8.00"> myFlavour</text>
</g>
<!-- Node10&#45;&gt;Node4 -->
<g id="edge11" class="edge"><title>Node10&#45;&gt;Node4</title>
<path fill="none" stroke="#9a32cd" stroke-dasharray="5,2" d="M414.282,-27.9877C414.372,-30.673 414.45,-33.4087 414.5,-36 414.577,-39.9993 415.238,-41.0686 414.5,-45 411.335,-61.8729 410.687,-67.1819 400.5,-81 380.151,-108.603 342.358,-122.016 314.206,-128.414"/>
<polygon fill="#9a32cd" stroke="#9a32cd" points="417.769,-27.5874 413.875,-17.734 410.774,-27.8648 417.769,-27.5874"/>
<text text-anchor="middle" x="456.5" y="-70.1" font-family="Helvetica,sans-Serif" font-size="8.00"> myApproximateFormulae</text>
</g>
</g>
</svg>
