<?xml version="1.0" encoding="UTF-8" standalone="no"?>
<!DOCTYPE svg PUBLIC "-//W3C//DTD SVG 1.1//EN"
 "http://www.w3.org/Graphics/SVG/1.1/DTD/svg11.dtd">
<!-- Generated by graphviz version 2.40.1 (20161225.0304)
 -->
<!-- Title: SJPsiK.h Pages: 1 -->
<svg width="290pt" height="242pt"
 viewBox="0.00 0.00 290.00 242.00" xmlns="http://www.w3.org/2000/svg" xmlns:xlink="http://www.w3.org/1999/xlink">
<g id="graph0" class="graph" transform="scale(1 1) rotate(0) translate(4 238)">
<title>SJPsiK.h</title>
<!-- Node0 -->
<g id="node1" class="node">
<title>Node0</title>
<polygon fill="#bfbfbf" stroke="#000000" points="90.5,-216.5 90.5,-233.5 139.5,-233.5 139.5,-216.5 90.5,-216.5"/>
<text text-anchor="middle" x="115" y="-223.1" font-family="Helvetica,sans-Serif" font-size="8.00" fill="#000000">SJPsiK.h</text>
</g>
<!-- Node1 -->
<g id="node2" class="node">
<title>Node1</title>
<g id="a_node2"><a xlink:href="../../dd/dcd/_th_observable_8h.html" target="_top" xlink:title="ThObservable.h">
<polygon fill="none" stroke="#000000" points="37.5,-162.5 37.5,-179.5 110.5,-179.5 110.5,-162.5 37.5,-162.5"/>
<text text-anchor="middle" x="74" y="-169.1" font-family="Helvetica,sans-Serif" font-size="8.00" fill="#000000">ThObservable.h</text>
</a>
</g>
</g>
<!-- Node0&#45;&gt;Node1 -->
<g id="edge1" class="edge">
<title>Node0&#45;&gt;Node1</title>
<path fill="none" stroke="#191970" d="M108.2297,-216.083C102.4384,-208.4554 93.9415,-197.2645 86.8625,-187.9408"/>
<polygon fill="#191970" stroke="#191970" points="89.479,-185.5991 80.6443,-179.7511 83.9039,-189.8321 89.479,-185.5991"/>
</g>
<!-- Node4 -->
<g id="node5" class="node">
<title>Node4</title>
<g id="a_node5"><a xlink:href="../../da/d41/_amp_d_b2_8h.html" target="_top" xlink:title="AmpDB2.h">
<polygon fill="none" stroke="#000000" points="142.5,-162.5 142.5,-179.5 197.5,-179.5 197.5,-162.5 142.5,-162.5"/>
<text text-anchor="middle" x="170" y="-169.1" font-family="Helvetica,sans-Serif" font-size="8.00" fill="#000000">AmpDB2.h</text>
</a>
</g>
</g>
<!-- Node0&#45;&gt;Node4 -->
<g id="edge4" class="edge">
<title>Node0&#45;&gt;Node4</title>
<path fill="none" stroke="#191970" d="M124.0821,-216.083C132.1713,-208.1409 144.1954,-196.3354 153.9102,-186.7973"/>
<polygon fill="#191970" stroke="#191970" points="156.4033,-189.2545 161.0869,-179.7511 151.4991,-184.2595 156.4033,-189.2545"/>
</g>
<!-- Node2 -->
<g id="node3" class="node">
<title>Node2</title>
<polygon fill="none" stroke="#bfbfbf" points="0,-108.5 0,-125.5 38,-125.5 38,-108.5 0,-108.5"/>
<text text-anchor="middle" x="19" y="-115.1" font-family="Helvetica,sans-Serif" font-size="8.00" fill="#000000">vector</text>
</g>
<!-- Node1&#45;&gt;Node2 -->
<g id="edge2" class="edge">
<title>Node1&#45;&gt;Node2</title>
<path fill="none" stroke="#191970" d="M64.9179,-162.083C56.8287,-154.1409 44.8046,-142.3354 35.0898,-132.7973"/>
<polygon fill="#191970" stroke="#191970" points="37.5009,-130.2595 27.9131,-125.7511 32.5967,-135.2545 37.5009,-130.2595"/>
</g>
<!-- Node3 -->
<g id="node4" class="node">
<title>Node3</title>
<polygon fill="none" stroke="#bfbfbf" points="56,-108.5 56,-125.5 92,-125.5 92,-108.5 56,-108.5"/>
<text text-anchor="middle" x="74" y="-115.1" font-family="Helvetica,sans-Serif" font-size="8.00" fill="#000000">string</text>
</g>
<!-- Node1&#45;&gt;Node3 -->
<g id="edge3" class="edge">
<title>Node1&#45;&gt;Node3</title>
<path fill="none" stroke="#191970" d="M74,-162.083C74,-155.0059 74,-144.8611 74,-135.9865"/>
<polygon fill="#191970" stroke="#191970" points="77.5001,-135.751 74,-125.7511 70.5001,-135.7511 77.5001,-135.751"/>
</g>
<!-- Node5 -->
<g id="node6" class="node">
<title>Node5</title>
<g id="a_node6"><a xlink:href="../../d1/dc2/gslpp__complex_8h.html" target="_top" xlink:title="gslpp_complex.h">
<polygon fill="none" stroke="#ff0000" points="151.5,-54.5 151.5,-71.5 228.5,-71.5 228.5,-54.5 151.5,-54.5"/>
<text text-anchor="middle" x="190" y="-61.1" font-family="Helvetica,sans-Serif" font-size="8.00" fill="#000000">gslpp_complex.h</text>
</a>
</g>
</g>
<!-- Node4&#45;&gt;Node5 -->
<g id="edge5" class="edge">
<title>Node4&#45;&gt;Node5</title>
<path fill="none" stroke="#191970" d="M160.2247,-162.1173C148.1369,-149.9994 130.1753,-127.5553 139,-108 144.6159,-95.5553 155.5627,-85.1723 165.8792,-77.5273"/>
<polygon fill="#191970" stroke="#191970" points="168.0064,-80.3123 174.266,-71.7643 164.0421,-74.5431 168.0064,-80.3123"/>
</g>
<!-- Node9 -->
<g id="node9" class="node">
<title>Node9</title>
<g id="a_node9"><a xlink:href="../../d4/d36/_order_scheme_8h.html" target="_top" xlink:title="OrderScheme.h">
<polygon fill="none" stroke="#000000" points="148.5,-108.5 148.5,-125.5 221.5,-125.5 221.5,-108.5 148.5,-108.5"/>
<text text-anchor="middle" x="185" y="-115.1" font-family="Helvetica,sans-Serif" font-size="8.00" fill="#000000">OrderScheme.h</text>
</a>
</g>
</g>
<!-- Node4&#45;&gt;Node9 -->
<g id="edge8" class="edge">
<title>Node4&#45;&gt;Node9</title>
<path fill="none" stroke="#191970" d="M172.4769,-162.083C174.4865,-154.8486 177.3865,-144.4087 179.8898,-135.3968"/>
<polygon fill="#191970" stroke="#191970" points="183.2649,-136.323 182.5691,-125.7511 176.5203,-134.4495 183.2649,-136.323"/>
</g>
<!-- Node10 -->
<g id="node10" class="node">
<title>Node10</title>
<g id="a_node10"><a xlink:href="../../d9/d72/gslpp_8h.html" target="_top" xlink:title="gslpp.h">
<polygon fill="none" stroke="#ff0000" points="240,-108.5 240,-125.5 282,-125.5 282,-108.5 240,-108.5"/>
<text text-anchor="middle" x="261" y="-115.1" font-family="Helvetica,sans-Serif" font-size="8.00" fill="#000000">gslpp.h</text>
</a>
</g>
</g>
<!-- Node4&#45;&gt;Node10 -->
<g id="edge9" class="edge">
<title>Node4&#45;&gt;Node10</title>
<path fill="none" stroke="#191970" d="M184.6207,-162.324C198.9489,-153.8215 221.0125,-140.7288 237.7487,-130.7975"/>
<polygon fill="#191970" stroke="#191970" points="239.6018,-133.7677 246.4156,-125.6545 236.0296,-127.7478 239.6018,-133.7677"/>
</g>
<!-- Node6 -->
<g id="node7" class="node">
<title>Node6</title>
<polygon fill="none" stroke="#bfbfbf" points="125.5,-.5 125.5,-17.5 172.5,-17.5 172.5,-.5 125.5,-.5"/>
<text text-anchor="middle" x="149" y="-7.1" font-family="Helvetica,sans-Serif" font-size="8.00" fill="#000000">iostream</text>
</g>
<!-- Node5&#45;&gt;Node6 -->
<g id="edge6" class="edge">
<title>Node5&#45;&gt;Node6</title>
<path fill="none" stroke="#191970" d="M183.2297,-54.083C177.4384,-46.4554 168.9415,-35.2645 161.8625,-25.9408"/>
<polygon fill="#191970" stroke="#191970" points="164.479,-23.5991 155.6443,-17.7511 158.9039,-27.8321 164.479,-23.5991"/>
</g>
<!-- Node7 -->
<g id="node8" class="node">
<title>Node7</title>
<polygon fill="none" stroke="#bfbfbf" points="191,-.5 191,-17.5 271,-17.5 271,-.5 191,-.5"/>
<text text-anchor="middle" x="231" y="-7.1" font-family="Helvetica,sans-Serif" font-size="8.00" fill="#000000">gsl/gsl_complex.h</text>
</g>
<!-- Node5&#45;&gt;Node7 -->
<g id="edge7" class="edge">
<title>Node5&#45;&gt;Node7</title>
<path fill="none" stroke="#191970" d="M196.7703,-54.083C202.5616,-46.4554 211.0585,-35.2645 218.1375,-25.9408"/>
<polygon fill="#191970" stroke="#191970" points="221.0961,-27.8321 224.3557,-17.7511 215.521,-23.5991 221.0961,-27.8321"/>
</g>
<!-- Node10&#45;&gt;Node5 -->
<g id="edge10" class="edge">
<title>Node10&#45;&gt;Node5</title>
<path fill="none" stroke="#191970" d="M249.5926,-108.324C238.8912,-100.1849 222.6593,-87.8395 209.8372,-78.0874"/>
<polygon fill="#191970" stroke="#191970" points="211.6932,-75.1018 201.6149,-71.8339 207.4556,-80.6734 211.6932,-75.1018"/>
</g>
</g>
</svg>
