<?xml version="1.0" encoding="UTF-8" standalone="no"?>
<!DOCTYPE svg PUBLIC "-//W3C//DTD SVG 1.1//EN"
 "http://www.w3.org/Graphics/SVG/1.1/DTD/svg11.dtd">
<!-- Generated by graphviz version 2.40.1 (20161225.0304)
 -->
<!-- Title: Y1_THDM Pages: 1 -->
<svg width="423pt" height="233pt"
 viewBox="0.00 0.00 422.50 233.00" xmlns="http://www.w3.org/2000/svg" xmlns:xlink="http://www.w3.org/1999/xlink">
<g id="graph0" class="graph" transform="scale(1 1) rotate(0) translate(4 229)">
<title>Y1_THDM</title>
<!-- Node2 -->
<g id="node1" class="node">
<title>Node2</title>
<polygon fill="#bfbfbf" stroke="#000000" points="124.5,-.5 124.5,-17.5 178.5,-17.5 178.5,-.5 124.5,-.5"/>
<text text-anchor="middle" x="151.5" y="-7.1" font-family="Helvetica,sans-Serif" font-size="8.00" fill="#000000">Y1_THDM</text>
</g>
<!-- Node3 -->
<g id="node2" class="node">
<title>Node3</title>
<g id="a_node2"><a xlink:href="../../dc/d1f/class_th_observable.html" target="_top" xlink:title="A class for a model prediction of an observable. ">
<polygon fill="none" stroke="#000000" points="146,-63.5 146,-80.5 213,-80.5 213,-63.5 146,-63.5"/>
<text text-anchor="middle" x="179.5" y="-70.1" font-family="Helvetica,sans-Serif" font-size="8.00" fill="#000000">ThObservable</text>
</a>
</g>
</g>
<!-- Node3&#45;&gt;Node2 -->
<g id="edge1" class="edge">
<title>Node3&#45;&gt;Node2</title>
<path fill="none" stroke="#191970" d="M180.9264,-53.2222C180.7186,-47.4968 179.8165,-41.3151 177.5,-36 174.38,-28.8413 168.4721,-22.4613 163.0755,-17.7029"/>
<polygon fill="#191970" stroke="#191970" points="177.425,-53.2329 180.6601,-63.3217 184.4226,-53.4175 177.425,-53.2329"/>
</g>
<!-- Node4 -->
<g id="node3" class="node">
<title>Node4</title>
<g id="a_node3"><a xlink:href="../../dc/dd5/class_standard_model.html" target="_top" xlink:title="A model class for the Standard Model. ">
<polygon fill="none" stroke="#ff0000" points="214,-131 214,-148 285,-148 285,-131 214,-131"/>
<text text-anchor="middle" x="249.5" y="-137.6" font-family="Helvetica,sans-Serif" font-size="8.00" fill="#000000">StandardModel</text>
</a>
</g>
</g>
<!-- Node4&#45;&gt;Node3 -->
<g id="edge2" class="edge">
<title>Node4&#45;&gt;Node3</title>
<path fill="none" stroke="#9a32cd" stroke-dasharray="5,2" d="M233.1902,-123.7727C219.2749,-110.3544 199.782,-91.5576 188.5147,-80.6927"/>
<polygon fill="#9a32cd" stroke="#9a32cd" points="231.0065,-126.5292 240.6345,-130.9511 235.8655,-121.4902 231.0065,-126.5292"/>
<text text-anchor="middle" x="225" y="-101.6" font-family="Helvetica,sans-Serif" font-size="8.00" fill="#000000"> SM</text>
</g>
<!-- Node9 -->
<g id="node6" class="node">
<title>Node9</title>
<g id="a_node6"><a xlink:href="../../dc/df3/class_e_w_s_mcache.html" target="_top" xlink:title="A class for cache variables used in computing radiative corrections to the EW precision observables...">
<polygon fill="none" stroke="#ff0000" points="349,-63.5 349,-80.5 412,-80.5 412,-63.5 349,-63.5"/>
<text text-anchor="middle" x="380.5" y="-70.1" font-family="Helvetica,sans-Serif" font-size="8.00" fill="#000000">EWSMcache</text>
</a>
</g>
</g>
<!-- Node4&#45;&gt;Node9 -->
<g id="edge6" class="edge">
<title>Node4&#45;&gt;Node9</title>
<path fill="none" stroke="#9a32cd" stroke-dasharray="5,2" d="M275.0529,-126.3334C301.2251,-112.8477 341.1643,-92.2684 363.6297,-80.6927"/>
<polygon fill="#9a32cd" stroke="#9a32cd" points="273.3774,-123.2594 266.0912,-130.9511 276.5837,-129.4819 273.3774,-123.2594"/>
<text text-anchor="middle" x="334" y="-101.6" font-family="Helvetica,sans-Serif" font-size="8.00" fill="#000000"> SM</text>
</g>
<!-- Node47 -->
<g id="node8" class="node">
<title>Node47</title>
<g id="a_node8"><a xlink:href="../../d0/d52/class_t_h_d_m.html" target="_top" xlink:title="A base class for &#160;symmetric Two&#45;Higgs&#45;Doublet models. ">
<polygon fill="none" stroke="#000000" points="63.5,-63.5 63.5,-80.5 103.5,-80.5 103.5,-63.5 63.5,-63.5"/>
<text text-anchor="middle" x="83.5" y="-70.1" font-family="Helvetica,sans-Serif" font-size="8.00" fill="#000000">THDM</text>
</a>
</g>
</g>
<!-- Node4&#45;&gt;Node47 -->
<g id="edge10" class="edge">
<title>Node4&#45;&gt;Node47</title>
<path fill="none" stroke="#191970" d="M219.1416,-127.1555C185.5438,-113.4937 132.3506,-91.864 103.5764,-80.1636"/>
<polygon fill="#191970" stroke="#191970" points="217.8941,-130.4265 228.476,-130.9511 220.5309,-123.942 217.8941,-130.4265"/>
</g>
<!-- Node5 -->
<g id="node4" class="node">
<title>Node5</title>
<g id="a_node4"><a xlink:href="../../dd/dfa/class_q_c_d.html" target="_top" xlink:title="A class for parameters related to QCD, hadrons and quarks. ">
<polygon fill="none" stroke="#ff0000" points="178.5,-203 178.5,-220 212.5,-220 212.5,-203 178.5,-203"/>
<text text-anchor="middle" x="195.5" y="-209.6" font-family="Helvetica,sans-Serif" font-size="8.00" fill="#000000">QCD</text>
</a>
</g>
</g>
<!-- Node5&#45;&gt;Node4 -->
<g id="edge3" class="edge">
<title>Node5&#45;&gt;Node4</title>
<path fill="none" stroke="#191970" d="M208.0517,-194.7643C219.0208,-180.139 234.4997,-159.5004 243.1018,-148.031"/>
<polygon fill="#191970" stroke="#191970" points="205.1066,-192.8579 201.9066,-202.9579 210.7066,-197.0579 205.1066,-192.8579"/>
</g>
<!-- Node8 -->
<g id="node5" class="node">
<title>Node8</title>
<g id="a_node5"><a xlink:href="../../db/d32/class_e_w_s_m_two_fermions_l_e_p2.html" target="_top" xlink:title="A class for the form factors , &#160;and &#160;in the processes &#160;at LEP&#45;II. ">
<polygon fill="none" stroke="#ff0000" points="207,-.5 207,-17.5 316,-17.5 316,-.5 207,-.5"/>
<text text-anchor="middle" x="261.5" y="-7.1" font-family="Helvetica,sans-Serif" font-size="8.00" fill="#000000">EWSMTwoFermionsLEP2</text>
</a>
</g>
</g>
<!-- Node8&#45;&gt;Node4 -->
<g id="edge4" class="edge">
<title>Node8&#45;&gt;Node4</title>
<path fill="none" stroke="#9a32cd" stroke-dasharray="5,2" d="M259.7773,-27.7343C257.139,-56.426 252.2023,-110.1128 250.2874,-130.9375"/>
<polygon fill="#9a32cd" stroke="#9a32cd" points="263.2635,-28.0436 260.694,-17.7651 256.2929,-27.4026 263.2635,-28.0436"/>
<text text-anchor="middle" x="297" y="-70.1" font-family="Helvetica,sans-Serif" font-size="8.00" fill="#000000"> myTwoFermionsLEP2</text>
</g>
<!-- Node9&#45;&gt;Node4 -->
<g id="edge7" class="edge">
<title>Node9&#45;&gt;Node4</title>
<path fill="none" stroke="#9a32cd" stroke-dasharray="5,2" d="M366.9541,-88.1117C360.4513,-95.0198 352.1901,-102.7016 343.5,-108 325.5717,-118.9309 303.3828,-126.5974 285.0659,-131.6282"/>
<polygon fill="#9a32cd" stroke="#9a32cd" points="369.6567,-90.3398 373.7003,-80.5469 364.4324,-85.6807 369.6567,-90.3398"/>
<text text-anchor="middle" x="384.5" y="-101.6" font-family="Helvetica,sans-Serif" font-size="8.00" fill="#000000"> myEWSMcache</text>
</g>
<!-- Node9&#45;&gt;Node8 -->
<g id="edge5" class="edge">
<title>Node9&#45;&gt;Node8</title>
<path fill="none" stroke="#9a32cd" stroke-dasharray="5,2" d="M354.9699,-58.4841C331.6369,-46.1313 297.823,-28.2298 277.9059,-17.6855"/>
<polygon fill="#9a32cd" stroke="#9a32cd" points="353.478,-61.6545 363.9536,-63.2401 356.7533,-55.4679 353.478,-61.6545"/>
<text text-anchor="middle" x="339.5" y="-38.6" font-family="Helvetica,sans-Serif" font-size="8.00" fill="#000000"> cache</text>
</g>
<!-- Node15 -->
<g id="node7" class="node">
<title>Node15</title>
<g id="a_node7"><a xlink:href="../../d5/d76/class_matching.html" target="_top" xlink:title="Matching\&lt; StandardModelMatching,\l StandardModel \&gt;">
<polygon fill="none" stroke="#ff0000" points="231,-198.5 231,-224.5 376,-224.5 376,-198.5 231,-198.5"/>
<text text-anchor="start" x="239" y="-214.1" font-family="Helvetica,sans-Serif" font-size="8.00" fill="#000000">Matching&lt; StandardModelMatching,</text>
<text text-anchor="middle" x="303.5" y="-205.1" font-family="Helvetica,sans-Serif" font-size="8.00" fill="#000000"> StandardModel &gt;</text>
</a>
</g>
</g>
<!-- Node15&#45;&gt;Node4 -->
<g id="edge8" class="edge">
<title>Node15&#45;&gt;Node4</title>
<path fill="none" stroke="#9a32cd" stroke-dasharray="5,2" d="M287.4508,-190.1011C276.9079,-176.0439 263.6829,-158.4105 255.9533,-148.1044"/>
<polygon fill="#9a32cd" stroke="#9a32cd" points="284.7955,-192.3941 293.5956,-198.2941 290.3955,-188.1941 284.7955,-192.3941"/>
<text text-anchor="middle" x="290" y="-173.6" font-family="Helvetica,sans-Serif" font-size="8.00" fill="#000000"> SMM</text>
</g>
<!-- Node47&#45;&gt;Node2 -->
<g id="edge9" class="edge">
<title>Node47&#45;&gt;Node2</title>
<path fill="none" stroke="#9a32cd" stroke-dasharray="5,2" d="M103.6043,-57.4358C108.6089,-53.5571 113.8654,-49.257 118.5,-45 127.9912,-36.282 137.8454,-25.2252 144.2855,-17.6804"/>
<polygon fill="#9a32cd" stroke="#9a32cd" points="101.4564,-54.6719 95.5742,-63.4838 105.6677,-60.2634 101.4564,-54.6719"/>
<text text-anchor="middle" x="145.5" y="-38.6" font-family="Helvetica,sans-Serif" font-size="8.00" fill="#000000"> myTHDM</text>
</g>
<!-- Node48 -->
<g id="node9" class="node">
<title>Node48</title>
<g id="a_node9"><a xlink:href="../../d5/df2/class_t_h_d_mcache.html" target="_top" xlink:title="A class for the caching of some THDM objects. ">
<polygon fill="none" stroke="#ff0000" points="0,-.5 0,-17.5 61,-17.5 61,-.5 0,-.5"/>
<text text-anchor="middle" x="30.5" y="-7.1" font-family="Helvetica,sans-Serif" font-size="8.00" fill="#000000">THDMcache</text>
</a>
</g>
</g>
<!-- Node47&#45;&gt;Node48 -->
<g id="edge12" class="edge">
<title>Node47&#45;&gt;Node48</title>
<path fill="none" stroke="#9a32cd" stroke-dasharray="5,2" d="M53.4385,-64.0842C36.7307,-59.0111 18.3515,-52.0712 13.5,-45 7.5563,-36.337 14.6639,-25.2699 21.4198,-17.7076"/>
<polygon fill="#9a32cd" stroke="#9a32cd" points="52.911,-67.5748 63.4895,-66.9861 54.8528,-60.8495 52.911,-67.5748"/>
<text text-anchor="middle" x="31.5" y="-38.6" font-family="Helvetica,sans-Serif" font-size="8.00" fill="#000000"> myTHDM</text>
</g>
<!-- Node48&#45;&gt;Node47 -->
<g id="edge11" class="edge">
<title>Node48&#45;&gt;Node47</title>
<path fill="none" stroke="#9a32cd" stroke-dasharray="5,2" d="M44.0341,-25.3169C49.1753,-31.4951 55.0941,-38.5839 60.5,-45 65.5785,-51.0276 71.3285,-57.7776 75.8089,-63.0207"/>
<polygon fill="#9a32cd" stroke="#9a32cd" points="46.7093,-23.0598 37.6265,-17.6049 41.3252,-27.5332 46.7093,-23.0598"/>
<text text-anchor="middle" x="89.5" y="-38.6" font-family="Helvetica,sans-Serif" font-size="8.00" fill="#000000"> myTHDMcache</text>
</g>
<!-- Node58 -->
<g id="node10" class="node">
<title>Node58</title>
<g id="a_node10"><a xlink:href="../../d5/d76/class_matching.html" target="_top" xlink:title="Matching\&lt; THDMMatching,\l THDM \&gt;">
<polygon fill="none" stroke="#ff0000" points="26.5,-126.5 26.5,-152.5 140.5,-152.5 140.5,-126.5 26.5,-126.5"/>
<text text-anchor="start" x="34.5" y="-142.1" font-family="Helvetica,sans-Serif" font-size="8.00" fill="#000000">Matching&lt; THDMMatching,</text>
<text text-anchor="middle" x="83.5" y="-133.1" font-family="Helvetica,sans-Serif" font-size="8.00" fill="#000000"> THDM &gt;</text>
</a>
</g>
</g>
<!-- Node58&#45;&gt;Node47 -->
<g id="edge13" class="edge">
<title>Node58&#45;&gt;Node47</title>
<path fill="none" stroke="#9a32cd" stroke-dasharray="5,2" d="M83.5,-116.3987C83.5,-104.0883 83.5,-89.6721 83.5,-80.6863"/>
<polygon fill="#9a32cd" stroke="#9a32cd" points="80.0001,-116.4853 83.5,-126.4853 87.0001,-116.4854 80.0001,-116.4853"/>
<text text-anchor="middle" x="99.5" y="-101.6" font-family="Helvetica,sans-Serif" font-size="8.00" fill="#000000"> THDMM</text>
</g>
</g>
</svg>
