<?xml version="1.0" encoding="UTF-8" standalone="no"?>
<!DOCTYPE svg PUBLIC "-//W3C//DTD SVG 1.1//EN"
 "http://www.w3.org/Graphics/SVG/1.1/DTD/svg11.dtd">
<!-- Generated by graphviz version 2.40.1 (20161225.0304)
 -->
<!-- Title: GeneralTHDMSTU Pages: 1 -->
<svg width="669pt" height="609pt"
 viewBox="0.00 0.00 669.00 609.41" xmlns="http://www.w3.org/2000/svg" xmlns:xlink="http://www.w3.org/1999/xlink">
<g id="graph0" class="graph" transform="scale(1 1) rotate(0) translate(4 605.4108)">
<title>GeneralTHDMSTU</title>
<!-- Node5 -->
<g id="node1" class="node">
<title>Node5</title>
<polygon fill="#bfbfbf" stroke="#000000" points="572,-257.9108 572,-274.9108 656,-274.9108 656,-257.9108 572,-257.9108"/>
<text text-anchor="middle" x="614" y="-264.5108" font-family="Helvetica,sans-Serif" font-size="8.00" fill="#000000">GeneralTHDMSTU</text>
</g>
<!-- Node6 -->
<g id="node2" class="node">
<title>Node6</title>
<g id="a_node2"><a xlink:href="../../dc/d1f/class_th_observable.html" target="_top" xlink:title="A class for a model prediction of an observable. ">
<polygon fill="none" stroke="#000000" points="420,-409.9108 420,-426.9108 487,-426.9108 487,-409.9108 420,-409.9108"/>
<text text-anchor="middle" x="453.5" y="-416.5108" font-family="Helvetica,sans-Serif" font-size="8.00" fill="#000000">ThObservable</text>
</a>
</g>
</g>
<!-- Node6&#45;&gt;Node5 -->
<g id="edge1" class="edge">
<title>Node6&#45;&gt;Node5</title>
<path fill="none" stroke="#191970" d="M470.2134,-402.5825C503.9318,-370.6498 579.0937,-299.4684 605.0106,-274.924"/>
<polygon fill="#191970" stroke="#191970" points="467.4431,-400.3856 462.589,-409.8031 472.2565,-405.4681 467.4431,-400.3856"/>
</g>
<!-- Node7 -->
<g id="node3" class="node">
<title>Node7</title>
<g id="a_node3"><a xlink:href="../../dc/dd5/class_standard_model.html" target="_top" xlink:title="A model class for the Standard Model. ">
<polygon fill="none" stroke="#ff0000" points="239,-526.9108 239,-543.9108 310,-543.9108 310,-526.9108 239,-526.9108"/>
<text text-anchor="middle" x="274.5" y="-533.5108" font-family="Helvetica,sans-Serif" font-size="8.00" fill="#000000">StandardModel</text>
</a>
</g>
</g>
<!-- Node7&#45;&gt;Node6 -->
<g id="edge2" class="edge">
<title>Node7&#45;&gt;Node6</title>
<path fill="none" stroke="#9a32cd" stroke-dasharray="5,2" d="M296.3463,-521.1313C333.9442,-496.5561 409.7829,-446.9856 440.3184,-427.0267"/>
<polygon fill="#9a32cd" stroke="#9a32cd" points="294.1179,-518.4065 287.6623,-526.8075 297.9478,-524.2659 294.1179,-518.4065"/>
<text text-anchor="middle" x="369" y="-496.0108" font-family="Helvetica,sans-Serif" font-size="8.00" fill="#000000"> SM</text>
</g>
<!-- Node26 -->
<g id="node4" class="node">
<title>Node26</title>
<g id="a_node4"><a xlink:href="../../dd/d9b/classgslpp_1_1complex.html" target="_top" xlink:title="A class for defining operations on and functions of complex numbers. ">
<polygon fill="none" stroke="#000000" points="15,-454.9108 15,-471.9108 85,-471.9108 85,-454.9108 15,-454.9108"/>
<text text-anchor="middle" x="50" y="-461.5108" font-family="Helvetica,sans-Serif" font-size="8.00" fill="#000000">gslpp::complex</text>
</a>
</g>
</g>
<!-- Node26&#45;&gt;Node7 -->
<g id="edge3" class="edge">
<title>Node26&#45;&gt;Node7</title>
<path fill="none" stroke="#9a32cd" stroke-dasharray="5,2" d="M55.2266,-481.6443C63.6719,-507.2775 83.0153,-553.0017 118,-572.4108 154.5323,-592.6784 171.7054,-583.4438 212,-572.4108 231.9455,-566.9495 251.9858,-553.3007 263.8139,-544.1959"/>
<polygon fill="#9a32cd" stroke="#9a32cd" points="58.5515,-480.549 52.2606,-472.0241 51.8622,-482.6114 58.5515,-480.549"/>
<text text-anchor="middle" x="165" y="-595.0108" font-family="Helvetica,sans-Serif" font-size="8.00" fill="#000000"> rhoZ_f_cache</text>
<text text-anchor="middle" x="165" y="-586.0108" font-family="Helvetica,sans-Serif" font-size="8.00" fill="#000000">kappaZ_f_cache</text>
</g>
<!-- Node50 -->
<g id="node6" class="node">
<title>Node50</title>
<g id="a_node6"><a xlink:href="../../dc/dfd/class_general_t_h_d_mcache.html" target="_top" xlink:title="GeneralTHDMcache">
<polygon fill="none" stroke="#000000" points="230,-201.9108 230,-218.9108 319,-218.9108 319,-201.9108 230,-201.9108"/>
<text text-anchor="middle" x="274.5" y="-208.5108" font-family="Helvetica,sans-Serif" font-size="8.00" fill="#000000">GeneralTHDMcache</text>
</a>
</g>
</g>
<!-- Node26&#45;&gt;Node50 -->
<g id="edge11" class="edge">
<title>Node26&#45;&gt;Node50</title>
<path fill="none" stroke="#9a32cd" stroke-dasharray="5,2" d="M68.6262,-447.8843C79.361,-437.9519 92.2283,-424.1893 100,-409.4108 116.9628,-377.1546 91.9496,-354.8975 118,-329.4108 148.4666,-299.6034 176.9626,-334.6816 212,-310.4108 245.8275,-286.978 265.0646,-238.695 271.7692,-219.0299"/>
<polygon fill="#9a32cd" stroke="#9a32cd" points="66.114,-445.434 60.9525,-454.6866 70.7574,-450.6723 66.114,-445.434"/>
<text text-anchor="middle" x="165" y="-503.0108" font-family="Helvetica,sans-Serif" font-size="8.00" fill="#000000"> I_A_D_cache</text>
<text text-anchor="start" x="118.5" y="-494.0108" font-family="Helvetica,sans-Serif" font-size="8.00" fill="#000000">B00_MZ2_MZ2_mHl2</text>
<text text-anchor="middle" x="165" y="-485.0108" font-family="Helvetica,sans-Serif" font-size="8.00" fill="#000000">_mA2_cache</text>
<text text-anchor="start" x="118.5" y="-476.0108" font-family="Helvetica,sans-Serif" font-size="8.00" fill="#000000">B00_MZ2_MW2_MW2</text>
<text text-anchor="middle" x="165" y="-467.0108" font-family="Helvetica,sans-Serif" font-size="8.00" fill="#000000">_mHl2_cache</text>
<text text-anchor="start" x="118.5" y="-458.0108" font-family="Helvetica,sans-Serif" font-size="8.00" fill="#000000">B00_MZ2_0_MW2_mHl2</text>
<text text-anchor="middle" x="165" y="-449.0108" font-family="Helvetica,sans-Serif" font-size="8.00" fill="#000000">_cache</text>
<text text-anchor="start" x="118.5" y="-440.0108" font-family="Helvetica,sans-Serif" font-size="8.00" fill="#000000">B00_MZ2_0_mHl2</text>
<text text-anchor="middle" x="165" y="-431.0108" font-family="Helvetica,sans-Serif" font-size="8.00" fill="#000000">_mHp2_cache</text>
<text text-anchor="start" x="118.5" y="-422.0108" font-family="Helvetica,sans-Serif" font-size="8.00" fill="#000000">B0p_MZ2_mHh2_mHh2</text>
<text text-anchor="middle" x="165" y="-413.0108" font-family="Helvetica,sans-Serif" font-size="8.00" fill="#000000">_mHl2_cache</text>
<text text-anchor="start" x="118.5" y="-404.0108" font-family="Helvetica,sans-Serif" font-size="8.00" fill="#000000">B0p_MZ2_mHl2_0_mHp2</text>
<text text-anchor="middle" x="165" y="-395.0108" font-family="Helvetica,sans-Serif" font-size="8.00" fill="#000000">_cache</text>
<text text-anchor="start" x="118.5" y="-386.0108" font-family="Helvetica,sans-Serif" font-size="8.00" fill="#000000">B0_MZ2_mHp2_0_mHl2</text>
<text text-anchor="middle" x="165" y="-377.0108" font-family="Helvetica,sans-Serif" font-size="8.00" fill="#000000">_cache</text>
<text text-anchor="start" x="118.5" y="-368.0108" font-family="Helvetica,sans-Serif" font-size="8.00" fill="#000000">B0_MZ2_0_MZ2_mHl2</text>
<text text-anchor="middle" x="165" y="-359.0108" font-family="Helvetica,sans-Serif" font-size="8.00" fill="#000000">_cache</text>
<text text-anchor="start" x="118.5" y="-350.0108" font-family="Helvetica,sans-Serif" font-size="8.00" fill="#000000">B0_MZ2_mA2_0_mHl2</text>
<text text-anchor="middle" x="165" y="-341.0108" font-family="Helvetica,sans-Serif" font-size="8.00" fill="#000000">_cache</text>
<text text-anchor="middle" x="165" y="-332.0108" font-family="Helvetica,sans-Serif" font-size="8.00" fill="#000000">...</text>
</g>
<!-- Node33 -->
<g id="node5" class="node">
<title>Node33</title>
<g id="a_node5"><a xlink:href="../../d1/d3c/classgslpp_1_1matrix.html" target="_top" xlink:title="gslpp::matrix\&lt; gslpp\l::complex \&gt;">
<polygon fill="none" stroke="#ff0000" points="6,-373.4108 6,-399.4108 94,-399.4108 94,-373.4108 6,-373.4108"/>
<text text-anchor="start" x="14" y="-389.0108" font-family="Helvetica,sans-Serif" font-size="8.00" fill="#000000">gslpp::matrix&lt; gslpp</text>
<text text-anchor="middle" x="50" y="-380.0108" font-family="Helvetica,sans-Serif" font-size="8.00" fill="#000000">::complex &gt;</text>
</a>
</g>
</g>
<!-- Node33&#45;&gt;Node7 -->
<g id="edge4" class="edge">
<title>Node33&#45;&gt;Node7</title>
<path fill="none" stroke="#9a32cd" stroke-dasharray="5,2" d="M71.2587,-406.8212C81.2677,-417.4789 92.6034,-431.2341 100,-445.4108 114.4614,-473.1281 94.6171,-492.6594 118,-513.4108 126.9012,-521.3102 195.6213,-528.6073 238.9891,-532.4901"/>
<polygon fill="#9a32cd" stroke="#9a32cd" points="73.7617,-404.3746 64.2804,-399.6463 68.7437,-409.2552 73.7617,-404.3746"/>
<text text-anchor="middle" x="165" y="-559.0108" font-family="Helvetica,sans-Serif" font-size="8.00" fill="#000000"> Yn</text>
<text text-anchor="middle" x="165" y="-550.0108" font-family="Helvetica,sans-Serif" font-size="8.00" fill="#000000">Yd</text>
<text text-anchor="middle" x="165" y="-541.0108" font-family="Helvetica,sans-Serif" font-size="8.00" fill="#000000">Yu</text>
<text text-anchor="middle" x="165" y="-532.0108" font-family="Helvetica,sans-Serif" font-size="8.00" fill="#000000">Ye</text>
</g>
<!-- Node33&#45;&gt;Node50 -->
<g id="edge13" class="edge">
<title>Node33&#45;&gt;Node50</title>
<path fill="none" stroke="#9a32cd" stroke-dasharray="5,2" d="M55.5208,-363.4737C66.4451,-320.2166 92.0186,-229.3112 118,-211.4108 156.1484,-185.1276 212.9017,-193.4109 246.5559,-201.8756"/>
<polygon fill="#9a32cd" stroke="#9a32cd" points="52.0763,-362.8228 53.0677,-373.3712 58.8707,-364.5069 52.0763,-362.8228"/>
<text text-anchor="middle" x="165" y="-304.0108" font-family="Helvetica,sans-Serif" font-size="8.00" fill="#000000"> Yd1_GTHDM</text>
<text text-anchor="middle" x="165" y="-295.0108" font-family="Helvetica,sans-Serif" font-size="8.00" fill="#000000">Nd_GTHDM</text>
<text text-anchor="middle" x="165" y="-286.0108" font-family="Helvetica,sans-Serif" font-size="8.00" fill="#000000">Nu_GTHDM</text>
<text text-anchor="middle" x="165" y="-277.0108" font-family="Helvetica,sans-Serif" font-size="8.00" fill="#000000">Yd2_GTHDM</text>
<text text-anchor="middle" x="165" y="-268.0108" font-family="Helvetica,sans-Serif" font-size="8.00" fill="#000000">Md_GTHDM</text>
<text text-anchor="middle" x="165" y="-259.0108" font-family="Helvetica,sans-Serif" font-size="8.00" fill="#000000">Mu_GTHDM</text>
<text text-anchor="middle" x="165" y="-250.0108" font-family="Helvetica,sans-Serif" font-size="8.00" fill="#000000">Yu1_GTHDM</text>
<text text-anchor="middle" x="165" y="-241.0108" font-family="Helvetica,sans-Serif" font-size="8.00" fill="#000000">Yu2_GTHDM</text>
<text text-anchor="middle" x="165" y="-232.0108" font-family="Helvetica,sans-Serif" font-size="8.00" fill="#000000">Yl1_GTHDM</text>
<text text-anchor="middle" x="165" y="-223.0108" font-family="Helvetica,sans-Serif" font-size="8.00" fill="#000000">Nl_GTHDM</text>
<text text-anchor="middle" x="165" y="-214.0108" font-family="Helvetica,sans-Serif" font-size="8.00" fill="#000000">...</text>
</g>
<!-- Node50&#45;&gt;Node5 -->
<g id="edge5" class="edge">
<title>Node50&#45;&gt;Node5</title>
<path fill="none" stroke="#9a32cd" stroke-dasharray="5,2" d="M302.2188,-222.777C312.8988,-227.0816 325.333,-231.5454 337,-234.4108 418.5677,-254.4431 516.8056,-262.0206 571.6518,-264.8241"/>
<polygon fill="#9a32cd" stroke="#9a32cd" points="303.5526,-219.5412 292.9761,-218.9191 300.8562,-226.001 303.5526,-219.5412"/>
<text text-anchor="middle" x="453.5" y="-261.0108" font-family="Helvetica,sans-Serif" font-size="8.00" fill="#000000"> mycache</text>
</g>
<!-- Node52 -->
<g id="node9" class="node">
<title>Node52</title>
<g id="a_node9"><a xlink:href="../../d3/d55/class_general_t_h_d_m.html" target="_top" xlink:title="A base class for generic Two&#45;Higgs&#45;Doublet models. ">
<polygon fill="none" stroke="#ff0000" points="419.5,-208.9108 419.5,-225.9108 487.5,-225.9108 487.5,-208.9108 419.5,-208.9108"/>
<text text-anchor="middle" x="453.5" y="-215.5108" font-family="Helvetica,sans-Serif" font-size="8.00" fill="#000000">GeneralTHDM</text>
</a>
</g>
</g>
<!-- Node50&#45;&gt;Node52 -->
<g id="edge9" class="edge">
<title>Node50&#45;&gt;Node52</title>
<path fill="none" stroke="#9a32cd" stroke-dasharray="5,2" d="M329.2525,-219.6785C331.8674,-219.9615 334.46,-220.2088 337,-220.4108 365.355,-222.6648 372.5671,-221.2225 401,-220.4108 406.9317,-220.2414 413.2358,-219.9647 419.3408,-219.646"/>
<polygon fill="#9a32cd" stroke="#9a32cd" points="329.4734,-216.1794 319.1207,-218.4318 328.6184,-223.127 329.4734,-216.1794"/>
<text text-anchor="middle" x="369" y="-224.0108" font-family="Helvetica,sans-Serif" font-size="8.00" fill="#000000"> myGTHDMcache</text>
</g>
<!-- Node13 -->
<g id="node7" class="node">
<title>Node13</title>
<g id="a_node7"><a xlink:href="../../d4/d7b/class_p_vfunctions.html" target="_top" xlink:title="A class for Passarino&#45;Veltman functions. ">
<polygon fill="none" stroke="#ff0000" points="20.5,-169.9108 20.5,-186.9108 79.5,-186.9108 79.5,-169.9108 20.5,-169.9108"/>
<text text-anchor="middle" x="50" y="-176.5108" font-family="Helvetica,sans-Serif" font-size="8.00" fill="#000000">PVfunctions</text>
</a>
</g>
</g>
<!-- Node13&#45;&gt;Node50 -->
<g id="edge6" class="edge">
<title>Node13&#45;&gt;Node50</title>
<path fill="none" stroke="#9a32cd" stroke-dasharray="5,2" d="M89.9527,-173.7047C123.1115,-170.9709 171.2593,-169.7293 212,-179.4108 230.1473,-183.7232 249.0784,-194.0654 261.2833,-201.6223"/>
<polygon fill="#9a32cd" stroke="#9a32cd" points="89.3841,-170.2419 79.742,-174.6328 90.0178,-177.2132 89.3841,-170.2419"/>
<text text-anchor="middle" x="165" y="-182.0108" font-family="Helvetica,sans-Serif" font-size="8.00" fill="#000000"> PV</text>
</g>
<!-- Node51 -->
<g id="node8" class="node">
<title>Node51</title>
<g id="a_node8"><a xlink:href="../../db/d3a/class_general_t_h_d_m_runner.html" target="_top" xlink:title="An RGE running algorithm for the GeneralTHDM parameters. ">
<polygon fill="none" stroke="#000000" points="567,-185.9108 567,-202.9108 661,-202.9108 661,-185.9108 567,-185.9108"/>
<text text-anchor="middle" x="614" y="-192.5108" font-family="Helvetica,sans-Serif" font-size="8.00" fill="#000000">GeneralTHDMRunner</text>
</a>
</g>
</g>
<!-- Node51&#45;&gt;Node50 -->
<g id="edge7" class="edge">
<title>Node51&#45;&gt;Node50</title>
<path fill="none" stroke="#9a32cd" stroke-dasharray="5,2" d="M556.4685,-192.1999C534.9855,-191.4756 510.3791,-190.7659 488,-190.4108 457.3372,-189.9242 449.5942,-188.3036 419,-190.4108 385.3961,-192.7253 347.7064,-198.0331 319.2463,-202.5993"/>
<polygon fill="#9a32cd" stroke="#9a32cd" points="556.6253,-195.7074 566.7403,-192.5552 556.8673,-188.7116 556.6253,-195.7074"/>
<text text-anchor="middle" x="453.5" y="-193.0108" font-family="Helvetica,sans-Serif" font-size="8.00" fill="#000000"> myRunnerGTHDM</text>
</g>
<!-- Node52&#45;&gt;Node5 -->
<g id="edge14" class="edge">
<title>Node52&#45;&gt;Node5</title>
<path fill="none" stroke="#9a32cd" stroke-dasharray="5,2" d="M497.1086,-228.5526C513.462,-232.9221 532.1584,-238.1465 549,-243.4108 563.1673,-247.8391 578.8602,-253.3737 591.277,-257.9039"/>
<polygon fill="#9a32cd" stroke="#9a32cd" points="497.8291,-225.1228 487.2666,-225.9497 496.0393,-231.8902 497.8291,-225.1228"/>
<text text-anchor="middle" x="527.5" y="-246.0108" font-family="Helvetica,sans-Serif" font-size="8.00" fill="#000000"> myGTHDM</text>
</g>
<!-- Node52&#45;&gt;Node50 -->
<g id="edge10" class="edge">
<title>Node52&#45;&gt;Node50</title>
<path fill="none" stroke="#9a32cd" stroke-dasharray="5,2" d="M409.2612,-212.0168C406.4684,-211.781 403.697,-211.5751 401,-211.4108 373.8169,-209.7547 343.2881,-209.4683 319.0324,-209.6133"/>
<polygon fill="#9a32cd" stroke="#9a32cd" points="409.0878,-215.516 419.3747,-212.9803 409.7518,-208.5476 409.0878,-215.516"/>
<text text-anchor="middle" x="369" y="-214.0108" font-family="Helvetica,sans-Serif" font-size="8.00" fill="#000000"> myGTHDM</text>
</g>
<!-- Node52&#45;&gt;Node51 -->
<g id="edge8" class="edge">
<title>Node52&#45;&gt;Node51</title>
<path fill="none" stroke="#9a32cd" stroke-dasharray="5,2" d="M497.7048,-211.0761C519.2025,-207.9954 545.0563,-204.2905 566.9224,-201.1571"/>
<polygon fill="#9a32cd" stroke="#9a32cd" points="496.9403,-207.6498 487.5379,-212.533 497.9333,-214.579 496.9403,-207.6498"/>
<text text-anchor="middle" x="527.5" y="-211.0108" font-family="Helvetica,sans-Serif" font-size="8.00" fill="#000000"> myGTHDM</text>
</g>
<!-- Node56 -->
<g id="node10" class="node">
<title>Node56</title>
<g id="a_node10"><a xlink:href="../../d7/d10/classgslpp_1_1matrix_3_01double_01_4.html" target="_top" xlink:title="A class for constructing and defining operations on real matrices. ">
<polygon fill="none" stroke="#000000" points="0,-2.9108 0,-19.9108 100,-19.9108 100,-2.9108 0,-2.9108"/>
<text text-anchor="middle" x="50" y="-9.5108" font-family="Helvetica,sans-Serif" font-size="8.00" fill="#000000">gslpp::matrix&lt; double &gt;</text>
</a>
</g>
</g>
<!-- Node56&#45;&gt;Node50 -->
<g id="edge12" class="edge">
<title>Node56&#45;&gt;Node50</title>
<path fill="none" stroke="#9a32cd" stroke-dasharray="5,2" d="M100.3238,-1.6508C135.2005,2.1502 180.7988,.8593 212,-23.4108 241.7209,-46.5293 266.5168,-168.0171 272.903,-201.7284"/>
<polygon fill="#9a32cd" stroke="#9a32cd" points="99.8178,1.8133 90.3331,-2.908 100.6918,-5.132 99.8178,1.8133"/>
<text text-anchor="start" x="118" y="-161.0108" font-family="Helvetica,sans-Serif" font-size="8.00" fill="#000000"> ATLAS13_gg_phi3_phi2Z</text>
<text text-anchor="middle" x="165" y="-152.0108" font-family="Helvetica,sans-Serif" font-size="8.00" fill="#000000">_bbZ</text>
<text text-anchor="middle" x="165" y="-143.0108" font-family="Helvetica,sans-Serif" font-size="8.00" fill="#000000">CMS8_mu_pp_phi_VV</text>
<text text-anchor="middle" x="165" y="-134.0108" font-family="Helvetica,sans-Serif" font-size="8.00" fill="#000000">csrH_bottom_13</text>
<text text-anchor="middle" x="165" y="-125.0108" font-family="Helvetica,sans-Serif" font-size="8.00" fill="#000000">log_cs_ggHp_13</text>
<text text-anchor="middle" x="165" y="-116.0108" font-family="Helvetica,sans-Serif" font-size="8.00" fill="#000000">log_cs_ttA_13</text>
<text text-anchor="start" x="118" y="-107.0108" font-family="Helvetica,sans-Serif" font-size="8.00" fill="#000000">ATLAS13_bb_phi_phi1Z</text>
<text text-anchor="middle" x="165" y="-98.0108" font-family="Helvetica,sans-Serif" font-size="8.00" fill="#000000">_bbZ</text>
<text text-anchor="start" x="118" y="-89.0108" font-family="Helvetica,sans-Serif" font-size="8.00" fill="#000000">ATLAS13_gg_phi_ZZ</text>
<text text-anchor="middle" x="165" y="-80.0108" font-family="Helvetica,sans-Serif" font-size="8.00" fill="#000000">_qqllnunu</text>
<text text-anchor="start" x="118" y="-71.0108" font-family="Helvetica,sans-Serif" font-size="8.00" fill="#000000">ATLAS13_gg_phi_Zga</text>
<text text-anchor="middle" x="165" y="-62.0108" font-family="Helvetica,sans-Serif" font-size="8.00" fill="#000000">_llga</text>
<text text-anchor="start" x="118" y="-53.0108" font-family="Helvetica,sans-Serif" font-size="8.00" fill="#000000">ATLAS13_bb_phi</text>
<text text-anchor="middle" x="165" y="-44.0108" font-family="Helvetica,sans-Serif" font-size="8.00" fill="#000000">_tt</text>
<text text-anchor="middle" x="165" y="-35.0108" font-family="Helvetica,sans-Serif" font-size="8.00" fill="#000000">log_cs_WH_13</text>
<text text-anchor="middle" x="165" y="-26.0108" font-family="Helvetica,sans-Serif" font-size="8.00" fill="#000000">...</text>
</g>
</g>
</svg>
