<?xml version="1.0" encoding="UTF-8" standalone="no"?>
<!DOCTYPE svg PUBLIC "-//W3C//DTD SVG 1.1//EN"
 "http://www.w3.org/Graphics/SVG/1.1/DTD/svg11.dtd">
<!-- Generated by graphviz version 2.40.1 (20161225.0304)
 -->
<!-- Title: GeneralTHDM.cpp Pages: 1 -->
<svg width="405pt" height="296pt"
 viewBox="0.00 0.00 404.56 296.00" xmlns="http://www.w3.org/2000/svg" xmlns:xlink="http://www.w3.org/1999/xlink">
<g id="graph0" class="graph" transform="scale(1 1) rotate(0) translate(4 292)">
<title>GeneralTHDM.cpp</title>
<!-- Node0 -->
<g id="node1" class="node">
<title>Node0</title>
<polygon fill="#bfbfbf" stroke="#000000" points="5.5613,-270.5 5.5613,-287.5 88.5613,-287.5 88.5613,-270.5 5.5613,-270.5"/>
<text text-anchor="middle" x="47.0613" y="-277.1" font-family="Helvetica,sans-Serif" font-size="8.00" fill="#000000">GeneralTHDM.cpp</text>
</g>
<!-- Node1 -->
<g id="node2" class="node">
<title>Node1</title>
<g id="a_node2"><a xlink:href="../../d0/d9a/_general_t_h_d_m_8h.html" target="_top" xlink:title="GeneralTHDM.h">
<polygon fill="none" stroke="#000000" points="28.5613,-108.5 28.5613,-125.5 103.5613,-125.5 103.5613,-108.5 28.5613,-108.5"/>
<text text-anchor="middle" x="66.0613" y="-115.1" font-family="Helvetica,sans-Serif" font-size="8.00" fill="#000000">GeneralTHDM.h</text>
</a>
</g>
</g>
<!-- Node0&#45;&gt;Node1 -->
<g id="edge1" class="edge">
<title>Node0&#45;&gt;Node1</title>
<path fill="none" stroke="#191970" d="M40.2572,-270.4645C25.394,-250.7139 -7.2315,-200.6022 11.0613,-162 17.1894,-149.0681 29.0555,-138.6167 40.2018,-131.0528"/>
<polygon fill="#191970" stroke="#191970" points="42.256,-133.8958 48.8632,-125.6136 38.5332,-127.9678 42.256,-133.8958"/>
</g>
<!-- Node54 -->
<g id="node6" class="node">
<title>Node54</title>
<g id="a_node6"><a xlink:href="../../d1/dc7/_general_t_h_d_mcache_8h.html" target="_top" xlink:title="GeneralTHDMcache.h">
<polygon fill="none" stroke="#ff0000" points="86.0613,-216.5 86.0613,-233.5 182.0613,-233.5 182.0613,-216.5 86.0613,-216.5"/>
<text text-anchor="middle" x="134.0613" y="-223.1" font-family="Helvetica,sans-Serif" font-size="8.00" fill="#000000">GeneralTHDMcache.h</text>
</a>
</g>
</g>
<!-- Node0&#45;&gt;Node54 -->
<g id="edge6" class="edge">
<title>Node0&#45;&gt;Node54</title>
<path fill="none" stroke="#191970" d="M61.0393,-270.324C74.6109,-261.9002 95.4415,-248.9709 111.3863,-239.0741"/>
<polygon fill="#191970" stroke="#191970" points="113.4673,-241.9019 120.1179,-233.6545 109.7757,-235.9544 113.4673,-241.9019"/>
</g>
<!-- Node2 -->
<g id="node3" class="node">
<title>Node2</title>
<g id="a_node3"><a xlink:href="../../d6/d0a/_standard_model_8h.html" target="_top" xlink:title="StandardModel.h">
<polygon fill="none" stroke="#ff0000" points="35.5613,-.5 35.5613,-17.5 112.5613,-17.5 112.5613,-.5 35.5613,-.5"/>
<text text-anchor="middle" x="74.0613" y="-7.1" font-family="Helvetica,sans-Serif" font-size="8.00" fill="#000000">StandardModel.h</text>
</a>
</g>
</g>
<!-- Node1&#45;&gt;Node2 -->
<g id="edge2" class="edge">
<title>Node1&#45;&gt;Node2</title>
<path fill="none" stroke="#191970" d="M45.6206,-108.4406C22.7045,-97.499 -9.688,-77.1748 3.0613,-54 10.9485,-39.6632 25.5468,-29.2525 39.4646,-22.0792"/>
<polygon fill="#191970" stroke="#191970" points="41.3534,-25.0578 48.9003,-17.6217 38.3634,-18.7285 41.3534,-25.0578"/>
</g>
<!-- Node50 -->
<g id="node4" class="node">
<title>Node50</title>
<g id="a_node4"><a xlink:href="../../d4/dbe/_general_t_h_d_m_matching_8h.html" target="_top" xlink:title="GeneralTHDMMatching.h">
<polygon fill="none" stroke="#ff0000" points="12.5613,-54.5 12.5613,-71.5 119.5613,-71.5 119.5613,-54.5 12.5613,-54.5"/>
<text text-anchor="middle" x="66.0613" y="-61.1" font-family="Helvetica,sans-Serif" font-size="8.00" fill="#000000">GeneralTHDMMatching.h</text>
</a>
</g>
</g>
<!-- Node1&#45;&gt;Node50 -->
<g id="edge3" class="edge">
<title>Node1&#45;&gt;Node50</title>
<path fill="none" stroke="#191970" d="M66.0613,-108.083C66.0613,-101.0059 66.0613,-90.8611 66.0613,-81.9865"/>
<polygon fill="#191970" stroke="#191970" points="69.5614,-81.751 66.0613,-71.7511 62.5614,-81.7511 69.5614,-81.751"/>
</g>
<!-- Node53 -->
<g id="node5" class="node">
<title>Node53</title>
<g id="a_node5"><a xlink:href="../../d2/de8/_n_pbase_8h.html" target="_top" xlink:title="NPbase.h">
<polygon fill="none" stroke="#000000" points="138.0613,-54.5 138.0613,-71.5 190.0613,-71.5 190.0613,-54.5 138.0613,-54.5"/>
<text text-anchor="middle" x="164.0613" y="-61.1" font-family="Helvetica,sans-Serif" font-size="8.00" fill="#000000">NPbase.h</text>
</a>
</g>
</g>
<!-- Node1&#45;&gt;Node53 -->
<g id="edge4" class="edge">
<title>Node1&#45;&gt;Node53</title>
<path fill="none" stroke="#191970" d="M81.8067,-108.324C97.3799,-99.7428 121.4385,-86.486 139.5206,-76.5224"/>
<polygon fill="#191970" stroke="#191970" points="141.2857,-79.546 148.355,-71.6545 137.9074,-73.4152 141.2857,-79.546"/>
</g>
<!-- Node53&#45;&gt;Node2 -->
<g id="edge5" class="edge">
<title>Node53&#45;&gt;Node2</title>
<path fill="none" stroke="#191970" d="M149.6012,-54.324C135.5617,-45.9002 114.0128,-32.9709 97.5182,-23.0741"/>
<polygon fill="#191970" stroke="#191970" points="98.8611,-19.7983 88.4854,-17.6545 95.2596,-25.8007 98.8611,-19.7983"/>
</g>
<!-- Node54&#45;&gt;Node1 -->
<g id="edge11" class="edge">
<title>Node54&#45;&gt;Node1</title>
<path fill="none" stroke="#191970" d="M100.317,-216.4557C69.6293,-207.922 27.702,-194.0807 18.0613,-180 6.2451,-162.7419 25.4169,-143.7506 42.9237,-131.1787"/>
<polygon fill="#191970" stroke="#191970" points="44.915,-134.0573 51.2412,-125.5584 40.9958,-128.2573 44.915,-134.0573"/>
</g>
<!-- Node47 -->
<g id="node7" class="node">
<title>Node47</title>
<polygon fill="none" stroke="#bfbfbf" points="27.0613,-162.5 27.0613,-179.5 65.0613,-179.5 65.0613,-162.5 27.0613,-162.5"/>
<text text-anchor="middle" x="46.0613" y="-169.1" font-family="Helvetica,sans-Serif" font-size="8.00" fill="#000000">cmath</text>
</g>
<!-- Node54&#45;&gt;Node47 -->
<g id="edge7" class="edge">
<title>Node54&#45;&gt;Node47</title>
<path fill="none" stroke="#191970" d="M119.9226,-216.324C106.195,-207.9002 85.125,-194.9709 68.9969,-185.0741"/>
<polygon fill="#191970" stroke="#191970" points="70.5187,-181.9016 60.1649,-179.6545 66.8576,-187.8678 70.5187,-181.9016"/>
</g>
<!-- Node55 -->
<g id="node8" class="node">
<title>Node55</title>
<g id="a_node8"><a xlink:href="../../d1/d5a/_general_t_h_d_m_runner_8h.html" target="_top" xlink:title="GeneralTHDMRunner.h">
<polygon fill="none" stroke="#000000" points="83.5613,-162.5 83.5613,-179.5 184.5613,-179.5 184.5613,-162.5 83.5613,-162.5"/>
<text text-anchor="middle" x="134.0613" y="-169.1" font-family="Helvetica,sans-Serif" font-size="8.00" fill="#000000">GeneralTHDMRunner.h</text>
</a>
</g>
</g>
<!-- Node54&#45;&gt;Node55 -->
<g id="edge8" class="edge">
<title>Node54&#45;&gt;Node55</title>
<path fill="none" stroke="#191970" d="M134.0613,-216.083C134.0613,-209.0059 134.0613,-198.8611 134.0613,-189.9865"/>
<polygon fill="#191970" stroke="#191970" points="137.5614,-189.751 134.0613,-179.7511 130.5614,-189.7511 137.5614,-189.751"/>
</g>
<!-- Node56 -->
<g id="node9" class="node">
<title>Node56</title>
<g id="a_node9"><a xlink:href="../../d3/d6b/_p_vfunctions_8h.html" target="_top" xlink:title="PVfunctions.h">
<polygon fill="none" stroke="#ff0000" points="203.0613,-162.5 203.0613,-179.5 269.0613,-179.5 269.0613,-162.5 203.0613,-162.5"/>
<text text-anchor="middle" x="236.0613" y="-169.1" font-family="Helvetica,sans-Serif" font-size="8.00" fill="#000000">PVfunctions.h</text>
</a>
</g>
</g>
<!-- Node54&#45;&gt;Node56 -->
<g id="edge10" class="edge">
<title>Node54&#45;&gt;Node56</title>
<path fill="none" stroke="#191970" d="M150.4493,-216.324C166.7326,-207.7034 191.9288,-194.3643 210.7775,-184.3855"/>
<polygon fill="#191970" stroke="#191970" points="212.5136,-187.4267 219.7139,-179.6545 209.2384,-181.2402 212.5136,-187.4267"/>
</g>
<!-- Node57 -->
<g id="node10" class="node">
<title>Node57</title>
<g id="a_node10"><a xlink:href="../../d9/d18/_general_t_h_d_mquantities_8h.html" target="_top" xlink:title="GeneralTHDMquantities.h">
<polygon fill="none" stroke="#ff0000" points="287.5613,-162.5 287.5613,-179.5 396.5613,-179.5 396.5613,-162.5 287.5613,-162.5"/>
<text text-anchor="middle" x="342.0613" y="-169.1" font-family="Helvetica,sans-Serif" font-size="8.00" fill="#000000">GeneralTHDMquantities.h</text>
</a>
</g>
</g>
<!-- Node54&#45;&gt;Node57 -->
<g id="edge12" class="edge">
<title>Node54&#45;&gt;Node57</title>
<path fill="none" stroke="#191970" d="M161.9307,-216.4435C195.8626,-207.1024 253.4211,-192.1194 294.4012,-181.9326"/>
<polygon fill="#191970" stroke="#191970" points="295.3092,-185.3136 304.1773,-179.5164 293.6296,-178.518 295.3092,-185.3136"/>
</g>
<!-- Node55&#45;&gt;Node1 -->
<g id="edge9" class="edge">
<title>Node55&#45;&gt;Node1</title>
<path fill="none" stroke="#191970" d="M123.1359,-162.324C112.8867,-154.1849 97.3406,-141.8395 85.0603,-132.0874"/>
<polygon fill="#191970" stroke="#191970" points="87.1932,-129.3119 77.1854,-125.8339 82.84,-134.7937 87.1932,-129.3119"/>
</g>
<!-- Node57&#45;&gt;Node1 -->
<g id="edge13" class="edge">
<title>Node57&#45;&gt;Node1</title>
<path fill="none" stroke="#191970" d="M298.3283,-162.4435C248.0254,-152.6017 165.7128,-136.497 113.786,-126.3374"/>
<polygon fill="#191970" stroke="#191970" points="114.3103,-122.8737 103.8243,-124.3884 112.9661,-129.7435 114.3103,-122.8737"/>
</g>
<!-- Node57&#45;&gt;Node54 -->
<g id="edge14" class="edge">
<title>Node57&#45;&gt;Node54</title>
<path fill="none" stroke="#191970" d="M314.3372,-179.5164C280.473,-188.8414 222.9247,-203.8232 181.8972,-214.0237"/>
<polygon fill="#191970" stroke="#191970" points="180.9761,-210.646 172.1083,-216.4435 182.656,-217.4414 180.9761,-210.646"/>
</g>
</g>
</svg>
