<?xml version="1.0" encoding="UTF-8" standalone="no"?>
<!DOCTYPE svg PUBLIC "-//W3C//DTD SVG 1.1//EN"
 "http://www.w3.org/Graphics/SVG/1.1/DTD/svg11.dtd">
<!-- Generated by graphviz version 2.38.0 (20140413.2041)
 -->
<!-- Title: SJPsiK.h Pages: 1 -->
<svg width="178pt" height="134pt"
 viewBox="0.00 0.00 178.00 134.00" xmlns="http://www.w3.org/2000/svg" xmlns:xlink="http://www.w3.org/1999/xlink">
<g id="graph0" class="graph" transform="scale(1 1) rotate(0) translate(4 130)">
<title>SJPsiK.h</title>
<!-- Node1 -->
<g id="node1" class="node"><title>Node1</title>
<polygon fill="#bfbfbf" stroke="black" points="70,-108.5 70,-125.5 119,-125.5 119,-108.5 70,-108.5"/>
<text text-anchor="middle" x="94.5" y="-115.1" font-family="Helvetica,sans-Serif" font-size="8.00">SJPsiK.h</text>
</g>
<!-- Node2 -->
<g id="node2" class="node"><title>Node2</title>
<g id="a_node2"><a xlink:href="../../df/d7a/_flavour_observables_8h.html" target="_top" xlink:title="FlavourObservables.h">
<polygon fill="none" stroke="black" points="0,-54.5 0,-71.5 95,-71.5 95,-54.5 0,-54.5"/>
<text text-anchor="middle" x="47.5" y="-61.1" font-family="Helvetica,sans-Serif" font-size="8.00">FlavourObservables.h</text>
</a>
</g>
</g>
<!-- Node1&#45;&gt;Node2 -->
<g id="edge1" class="edge"><title>Node1&#45;&gt;Node2</title>
<path fill="none" stroke="midnightblue" d="M80.6845,-100.715C72.0683,-91.182 61.3469,-79.32 54.4635,-71.7043"/>
<polygon fill="midnightblue" stroke="midnightblue" points="78.263,-103.255 87.565,-108.327 83.4561,-98.5616 78.263,-103.255"/>
</g>
<!-- Node4 -->
<g id="node4" class="node"><title>Node4</title>
<g id="a_node4"><a xlink:href="../../d7/db9/_s_j_psi_k_8cpp.html" target="_top" xlink:title="SJPsiK.cpp">
<polygon fill="none" stroke="black" points="113,-54.5 113,-71.5 170,-71.5 170,-54.5 113,-54.5"/>
<text text-anchor="middle" x="141.5" y="-61.1" font-family="Helvetica,sans-Serif" font-size="8.00">SJPsiK.cpp</text>
</a>
</g>
</g>
<!-- Node1&#45;&gt;Node4 -->
<g id="edge3" class="edge"><title>Node1&#45;&gt;Node4</title>
<path fill="none" stroke="midnightblue" d="M108.315,-100.715C116.932,-91.182 127.653,-79.32 134.537,-71.7043"/>
<polygon fill="midnightblue" stroke="midnightblue" points="105.544,-98.5616 101.435,-108.327 110.737,-103.255 105.544,-98.5616"/>
</g>
<!-- Node3 -->
<g id="node3" class="node"><title>Node3</title>
<g id="a_node3"><a xlink:href="../../d1/de2/_th_obs_factory_8cpp.html" target="_top" xlink:title="ThObsFactory.cpp">
<polygon fill="none" stroke="black" points="6.5,-0.5 6.5,-17.5 88.5,-17.5 88.5,-0.5 6.5,-0.5"/>
<text text-anchor="middle" x="47.5" y="-7.1" font-family="Helvetica,sans-Serif" font-size="8.00">ThObsFactory.cpp</text>
</a>
</g>
</g>
<!-- Node2&#45;&gt;Node3 -->
<g id="edge2" class="edge"><title>Node2&#45;&gt;Node3</title>
<path fill="none" stroke="midnightblue" d="M47.5,-44.0621C47.5,-35.0603 47.5,-24.6277 47.5,-17.7043"/>
<polygon fill="midnightblue" stroke="midnightblue" points="44.0001,-44.3272 47.5,-54.3272 51.0001,-44.3273 44.0001,-44.3272"/>
</g>
</g>
</svg>
