<?xml version="1.0" encoding="UTF-8" standalone="no"?>
<!DOCTYPE svg PUBLIC "-//W3C//DTD SVG 1.1//EN"
 "http://www.w3.org/Graphics/SVG/1.1/DTD/svg11.dtd">
<!-- Generated by graphviz version 2.38.0 (20140413.2041)
 -->
<!-- Title: EWSMcache.h Pages: 1 -->
<svg width="736pt" height="188pt"
 viewBox="0.00 0.00 736.00 188.00" xmlns="http://www.w3.org/2000/svg" xmlns:xlink="http://www.w3.org/1999/xlink">
<g id="graph0" class="graph" transform="scale(1 1) rotate(0) translate(4 184)">
<title>EWSMcache.h</title>
<!-- Node1 -->
<g id="node1" class="node"><title>Node1</title>
<polygon fill="#bfbfbf" stroke="black" points="367,-162.5 367,-179.5 436,-179.5 436,-162.5 367,-162.5"/>
<text text-anchor="middle" x="401.5" y="-169.1" font-family="Helvetica,sans-Serif" font-size="8.00">EWSMcache.h</text>
</g>
<!-- Node2 -->
<g id="node2" class="node"><title>Node2</title>
<g id="a_node2"><a xlink:href="../../d9/d03/_e_w_s_m_approximate_formulae_8h.html" target="_top" xlink:title="EWSMApproximateFormulae.h">
<polygon fill="none" stroke="red" points="0,-54.5 0,-71.5 127,-71.5 127,-54.5 0,-54.5"/>
<text text-anchor="middle" x="63.5" y="-61.1" font-family="Helvetica,sans-Serif" font-size="8.00">EWSMApproximateFormulae.h</text>
</a>
</g>
</g>
<!-- Node1&#45;&gt;Node2 -->
<g id="edge1" class="edge"><title>Node1&#45;&gt;Node2</title>
<path fill="none" stroke="midnightblue" d="M356.514,-169.14C303.069,-166.624 212.248,-157.562 141.5,-126 111.484,-112.609 83.0575,-84.9432 70.3949,-71.5679"/>
<polygon fill="midnightblue" stroke="midnightblue" points="356.551,-172.645 366.687,-169.561 356.84,-165.651 356.551,-172.645"/>
</g>
<!-- Node3 -->
<g id="node3" class="node"><title>Node3</title>
<g id="a_node3"><a xlink:href="../../d9/d2b/_standard_model_8cpp.html" target="_top" xlink:title="StandardModel.cpp">
<polygon fill="none" stroke="black" points="321.5,-0.5 321.5,-17.5 407.5,-17.5 407.5,-0.5 321.5,-0.5"/>
<text text-anchor="middle" x="364.5" y="-7.1" font-family="Helvetica,sans-Serif" font-size="8.00">StandardModel.cpp</text>
</a>
</g>
</g>
<!-- Node1&#45;&gt;Node3 -->
<g id="edge17" class="edge"><title>Node1&#45;&gt;Node3</title>
<path fill="none" stroke="midnightblue" d="M356.327,-167.838C296.832,-163.935 197.09,-153.389 174.5,-126 127.408,-68.904 257.089,-32.3184 325.426,-17.5071"/>
<polygon fill="midnightblue" stroke="midnightblue" points="356.386,-171.348 366.583,-168.471 356.818,-164.361 356.386,-171.348"/>
</g>
<!-- Node4 -->
<g id="node4" class="node"><title>Node4</title>
<g id="a_node4"><a xlink:href="../../dc/db9/_e_w_s_mcache_8cpp.html" target="_top" xlink:title="EWSMcache.cpp">
<polygon fill="none" stroke="black" points="183.5,-108.5 183.5,-125.5 261.5,-125.5 261.5,-108.5 183.5,-108.5"/>
<text text-anchor="middle" x="222.5" y="-115.1" font-family="Helvetica,sans-Serif" font-size="8.00">EWSMcache.cpp</text>
</a>
</g>
</g>
<!-- Node1&#45;&gt;Node4 -->
<g id="edge3" class="edge"><title>Node1&#45;&gt;Node4</title>
<path fill="none" stroke="midnightblue" d="M365.754,-159.616C331.131,-149.558 279.462,-134.548 248.56,-125.57"/>
<polygon fill="midnightblue" stroke="midnightblue" points="364.892,-163.01 375.472,-162.439 366.845,-156.288 364.892,-163.01"/>
</g>
<!-- Node5 -->
<g id="node5" class="node"><title>Node5</title>
<g id="a_node5"><a xlink:href="../../d2/d7c/_e_w_s_m_one_loop_e_w_8h.html" target="_top" xlink:title="EWSMOneLoopEW.h">
<polygon fill="none" stroke="red" points="279.5,-108.5 279.5,-125.5 373.5,-125.5 373.5,-108.5 279.5,-108.5"/>
<text text-anchor="middle" x="326.5" y="-115.1" font-family="Helvetica,sans-Serif" font-size="8.00">EWSMOneLoopEW.h</text>
</a>
</g>
</g>
<!-- Node1&#45;&gt;Node5 -->
<g id="edge4" class="edge"><title>Node1&#45;&gt;Node5</title>
<path fill="none" stroke="midnightblue" d="M381.915,-156.421C367.801,-146.635 349.262,-133.782 337.612,-125.704"/>
<polygon fill="midnightblue" stroke="midnightblue" points="380.221,-159.506 390.433,-162.327 384.21,-153.753 380.221,-159.506"/>
</g>
<!-- Node6 -->
<g id="node6" class="node"><title>Node6</title>
<g id="a_node6"><a xlink:href="../../d1/dd4/_e_w_s_m_two_loop_e_w_8h.html" target="_top" xlink:title="EWSMTwoLoopEW.h">
<polygon fill="none" stroke="red" points="260.5,-54.5 260.5,-71.5 354.5,-71.5 354.5,-54.5 260.5,-54.5"/>
<text text-anchor="middle" x="307.5" y="-61.1" font-family="Helvetica,sans-Serif" font-size="8.00">EWSMTwoLoopEW.h</text>
</a>
</g>
</g>
<!-- Node1&#45;&gt;Node6 -->
<g id="edge14" class="edge"><title>Node1&#45;&gt;Node6</title>
<path fill="none" stroke="midnightblue" d="M399.537,-152.047C397.298,-138.711 392.542,-120.707 382.5,-108 368.647,-90.471 345.744,-78.5038 328.886,-71.5263"/>
<polygon fill="midnightblue" stroke="midnightblue" points="396.117,-152.873 400.927,-162.313 403.054,-151.934 396.117,-152.873"/>
</g>
<!-- Node7 -->
<g id="node7" class="node"><title>Node7</title>
<g id="a_node7"><a xlink:href="../../d1/d57/_e_w_s_m_three_loop_e_w_8h.html" target="_top" xlink:title="EWSMThreeLoopEW.h">
<polygon fill="none" stroke="red" points="372.5,-54.5 372.5,-71.5 472.5,-71.5 472.5,-54.5 372.5,-54.5"/>
<text text-anchor="middle" x="422.5" y="-61.1" font-family="Helvetica,sans-Serif" font-size="8.00">EWSMThreeLoopEW.h</text>
</a>
</g>
</g>
<!-- Node1&#45;&gt;Node7 -->
<g id="edge8" class="edge"><title>Node1&#45;&gt;Node7</title>
<path fill="none" stroke="midnightblue" d="M407.875,-152.681C410.601,-144.661 413.591,-134.947 415.5,-126 419.614,-106.719 421.417,-83.5166 422.115,-71.7135"/>
<polygon fill="midnightblue" stroke="midnightblue" points="404.495,-151.74 404.445,-162.334 411.091,-154.083 404.495,-151.74"/>
</g>
<!-- Node8 -->
<g id="node8" class="node"><title>Node8</title>
<g id="a_node8"><a xlink:href="../../d4/d5b/_e_w_s_m_three_loop_e_w2_q_c_d_8h.html" target="_top" xlink:title="EWSMThreeLoopEW2QCD.h">
<polygon fill="none" stroke="red" points="490.5,-54.5 490.5,-71.5 612.5,-71.5 612.5,-54.5 490.5,-54.5"/>
<text text-anchor="middle" x="551.5" y="-61.1" font-family="Helvetica,sans-Serif" font-size="8.00">EWSMThreeLoopEW2QCD.h</text>
</a>
</g>
</g>
<!-- Node1&#45;&gt;Node8 -->
<g id="edge10" class="edge"><title>Node1&#45;&gt;Node8</title>
<path fill="none" stroke="midnightblue" d="M420.785,-156.372C452.762,-133.775 515.719,-89.2856 540.81,-71.5542"/>
<polygon fill="midnightblue" stroke="midnightblue" points="418.434,-153.747 412.288,-162.377 422.474,-159.464 418.434,-153.747"/>
</g>
<!-- Node9 -->
<g id="node9" class="node"><title>Node9</title>
<g id="a_node9"><a xlink:href="../../d8/df5/_e_w_s_m_three_loop_q_c_d_8h.html" target="_top" xlink:title="EWSMThreeLoopQCD.h">
<polygon fill="none" stroke="red" points="506,-108.5 506,-125.5 611,-125.5 611,-108.5 506,-108.5"/>
<text text-anchor="middle" x="558.5" y="-115.1" font-family="Helvetica,sans-Serif" font-size="8.00">EWSMThreeLoopQCD.h</text>
</a>
</g>
</g>
<!-- Node1&#45;&gt;Node9 -->
<g id="edge12" class="edge"><title>Node1&#45;&gt;Node9</title>
<path fill="none" stroke="midnightblue" d="M434.033,-159.225C464.384,-149.172 508.888,-134.432 535.643,-125.57"/>
<polygon fill="midnightblue" stroke="midnightblue" points="432.722,-155.972 424.329,-162.439 434.922,-162.617 432.722,-155.972"/>
</g>
<!-- Node10 -->
<g id="node10" class="node"><title>Node10</title>
<g id="a_node10"><a xlink:href="../../d0/d29/_e_w_s_m_two_loop_q_c_d_8h.html" target="_top" xlink:title="EWSMTwoLoopQCD.h">
<polygon fill="none" stroke="red" points="629,-108.5 629,-125.5 728,-125.5 728,-108.5 629,-108.5"/>
<text text-anchor="middle" x="678.5" y="-115.1" font-family="Helvetica,sans-Serif" font-size="8.00">EWSMTwoLoopQCD.h</text>
</a>
</g>
</g>
<!-- Node1&#45;&gt;Node10 -->
<g id="edge15" class="edge"><title>Node1&#45;&gt;Node10</title>
<path fill="none" stroke="midnightblue" d="M446.154,-161.617C499.232,-151.653 587.031,-135.171 638.145,-125.576"/>
<polygon fill="midnightblue" stroke="midnightblue" points="445.205,-158.234 436.022,-163.519 446.496,-165.114 445.205,-158.234"/>
</g>
<!-- Node2&#45;&gt;Node3 -->
<g id="edge2" class="edge"><title>Node2&#45;&gt;Node3</title>
<path fill="none" stroke="midnightblue" d="M117.052,-52.7485C175.264,-42.692 267.165,-26.8154 321.067,-17.5034"/>
<polygon fill="midnightblue" stroke="midnightblue" points="116.205,-49.3429 106.947,-54.4943 117.396,-56.2408 116.205,-49.3429"/>
</g>
<!-- Node5&#45;&gt;Node3 -->
<g id="edge7" class="edge"><title>Node5&#45;&gt;Node3</title>
<path fill="none" stroke="midnightblue" d="M293.772,-104.75C267.32,-93.7775 236.723,-75.6113 251.5,-54 267.126,-31.147 296.515,-20.1621 321.404,-14.8826"/>
<polygon fill="midnightblue" stroke="midnightblue" points="292.65,-108.07 303.238,-108.46 295.205,-101.553 292.65,-108.07"/>
</g>
<!-- Node5&#45;&gt;Node6 -->
<g id="edge5" class="edge"><title>Node5&#45;&gt;Node6</title>
<path fill="none" stroke="midnightblue" d="M320.164,-98.6601C316.827,-89.5257 312.901,-78.7815 310.315,-71.7043"/>
<polygon fill="midnightblue" stroke="midnightblue" points="316.977,-100.136 323.696,-108.327 323.552,-97.7334 316.977,-100.136"/>
</g>
<!-- Node6&#45;&gt;Node3 -->
<g id="edge6" class="edge"><title>Node6&#45;&gt;Node3</title>
<path fill="none" stroke="midnightblue" d="M323.312,-47.5748C333.912,-37.9048 347.454,-25.5508 356.055,-17.7043"/>
<polygon fill="midnightblue" stroke="midnightblue" points="320.939,-45.0019 315.911,-54.3272 325.657,-50.1733 320.939,-45.0019"/>
</g>
<!-- Node7&#45;&gt;Node3 -->
<g id="edge9" class="edge"><title>Node7&#45;&gt;Node3</title>
<path fill="none" stroke="midnightblue" d="M406.41,-47.5748C395.625,-37.9048 381.845,-25.5508 373.093,-17.7043"/>
<polygon fill="midnightblue" stroke="midnightblue" points="404.16,-50.2577 413.942,-54.3272 408.833,-45.0457 404.16,-50.2577"/>
</g>
<!-- Node8&#45;&gt;Node3 -->
<g id="edge11" class="edge"><title>Node8&#45;&gt;Node3</title>
<path fill="none" stroke="midnightblue" d="M514.621,-51.7448C478.45,-41.6867 424.146,-26.5861 391.724,-17.5704"/>
<polygon fill="midnightblue" stroke="midnightblue" points="513.736,-55.1316 524.309,-54.4388 515.612,-48.3875 513.736,-55.1316"/>
</g>
<!-- Node9&#45;&gt;Node3 -->
<g id="edge13" class="edge"><title>Node9&#45;&gt;Node3</title>
<path fill="none" stroke="midnightblue" d="M585.597,-104.054C609.151,-92.0289 637.221,-72.6412 621.5,-54 594.651,-22.164 473.631,-13.3618 407.681,-10.9288"/>
<polygon fill="midnightblue" stroke="midnightblue" points="584.038,-100.92 576.569,-108.434 587.094,-107.218 584.038,-100.92"/>
</g>
<!-- Node10&#45;&gt;Node3 -->
<g id="edge16" class="edge"><title>Node10&#45;&gt;Node3</title>
<path fill="none" stroke="midnightblue" d="M672.057,-98.719C665.761,-84.3526 654.738,-64.6048 638.5,-54 601.237,-29.6649 475.053,-17.538 407.7,-12.6726"/>
<polygon fill="midnightblue" stroke="midnightblue" points="668.978,-100.445 675.958,-108.416 675.472,-97.8319 668.978,-100.445"/>
</g>
</g>
</svg>
