<?xml version="1.0" encoding="UTF-8" standalone="no"?>
<!DOCTYPE svg PUBLIC "-//W3C//DTD SVG 1.1//EN"
 "http://www.w3.org/Graphics/SVG/1.1/DTD/svg11.dtd">
<!-- Generated by graphviz version 2.40.1 (20161225.0304)
 -->
<!-- Title: BalancedPartitionCandidate.cpp Pages: 1 -->
<svg width="330pt" height="188pt"
 viewBox="0.00 0.00 330.00 188.00" xmlns="http://www.w3.org/2000/svg" xmlns:xlink="http://www.w3.org/1999/xlink">
<g id="graph0" class="graph" transform="scale(1 1) rotate(0) translate(4 184)">
<title>BalancedPartitionCandidate.cpp</title>
<!-- Node0 -->
<g id="node1" class="node">
<title>Node0</title>
<polygon fill="#bfbfbf" stroke="#000000" points="24.5,-162.5 24.5,-179.5 155.5,-179.5 155.5,-162.5 24.5,-162.5"/>
<text text-anchor="middle" x="90" y="-169.1" font-family="Helvetica,sans-Serif" font-size="8.00" fill="#000000">BalancedPartitionCandidate.cpp</text>
</g>
<!-- Node1 -->
<g id="node2" class="node">
<title>Node1</title>
<g id="a_node2"><a xlink:href="../../da/d0a/_balanced_partition_candidate_8hpp.html" target="_top" xlink:title="BalancedPartitionCandidate.hpp">
<polygon fill="none" stroke="#000000" points="24.5,-108.5 24.5,-125.5 155.5,-125.5 155.5,-108.5 24.5,-108.5"/>
<text text-anchor="middle" x="90" y="-115.1" font-family="Helvetica,sans-Serif" font-size="8.00" fill="#000000">BalancedPartitionCandidate.hpp</text>
</a>
</g>
</g>
<!-- Node0&#45;&gt;Node1 -->
<g id="edge1" class="edge">
<title>Node0&#45;&gt;Node1</title>
<path fill="none" stroke="#191970" d="M90,-162.083C90,-155.0059 90,-144.8611 90,-135.9865"/>
<polygon fill="#191970" stroke="#191970" points="93.5001,-135.751 90,-125.7511 86.5001,-135.7511 93.5001,-135.751"/>
</g>
<!-- Node2 -->
<g id="node3" class="node">
<title>Node2</title>
<polygon fill="none" stroke="#bfbfbf" points="0,-.5 0,-17.5 38,-17.5 38,-.5 0,-.5"/>
<text text-anchor="middle" x="19" y="-7.1" font-family="Helvetica,sans-Serif" font-size="8.00" fill="#000000">vector</text>
</g>
<!-- Node1&#45;&gt;Node2 -->
<g id="edge2" class="edge">
<title>Node1&#45;&gt;Node2</title>
<path fill="none" stroke="#191970" d="M84.1898,-108.1619C72.43,-90.2738 45.6277,-49.5041 30.3032,-26.1936"/>
<polygon fill="#191970" stroke="#191970" points="33.1101,-24.0917 24.6921,-17.6584 27.2608,-27.9371 33.1101,-24.0917"/>
</g>
<!-- Node3 -->
<g id="node4" class="node">
<title>Node3</title>
<polygon fill="none" stroke="#bfbfbf" points="57.5,-.5 57.5,-17.5 86.5,-17.5 86.5,-.5 57.5,-.5"/>
<text text-anchor="middle" x="72" y="-7.1" font-family="Helvetica,sans-Serif" font-size="8.00" fill="#000000">list</text>
</g>
<!-- Node1&#45;&gt;Node3 -->
<g id="edge3" class="edge">
<title>Node1&#45;&gt;Node3</title>
<path fill="none" stroke="#191970" d="M85.9762,-108.2613C82.0966,-99.3552 76.4622,-85.0361 74,-72 71.2322,-57.3458 70.8445,-40.44 71.0872,-27.8328"/>
<polygon fill="#191970" stroke="#191970" points="74.5914,-27.7655 71.4371,-17.6511 67.5956,-27.525 74.5914,-27.7655"/>
</g>
<!-- Node4 -->
<g id="node5" class="node">
<title>Node4</title>
<g id="a_node5"><a xlink:href="../../d6/d75/_useful_stuff_8hpp.html" target="_top" xlink:title="UsefulStuff.hpp">
<polygon fill="none" stroke="#ff0000" points="187.5,-54.5 187.5,-71.5 258.5,-71.5 258.5,-54.5 187.5,-54.5"/>
<text text-anchor="middle" x="223" y="-61.1" font-family="Helvetica,sans-Serif" font-size="8.00" fill="#000000">UsefulStuff.hpp</text>
</a>
</g>
</g>
<!-- Node1&#45;&gt;Node4 -->
<g id="edge4" class="edge">
<title>Node1&#45;&gt;Node4</title>
<path fill="none" stroke="#191970" d="M111.0742,-108.4435C133.0598,-99.5171 167.7343,-85.4387 192.6641,-75.3168"/>
<polygon fill="#191970" stroke="#191970" points="194.0756,-78.5213 202.0244,-71.5164 191.4422,-72.0355 194.0756,-78.5213"/>
</g>
<!-- Node11 -->
<g id="node10" class="node">
<title>Node11</title>
<g id="a_node10"><a xlink:href="../../d6/d44/_vectorlike_array_8hpp.html" target="_top" xlink:title="VectorlikeArray.hpp">
<polygon fill="none" stroke="#000000" points="83,-54.5 83,-71.5 169,-71.5 169,-54.5 83,-54.5"/>
<text text-anchor="middle" x="126" y="-61.1" font-family="Helvetica,sans-Serif" font-size="8.00" fill="#000000">VectorlikeArray.hpp</text>
</a>
</g>
</g>
<!-- Node1&#45;&gt;Node11 -->
<g id="edge9" class="edge">
<title>Node1&#45;&gt;Node11</title>
<path fill="none" stroke="#191970" d="M95.9447,-108.083C100.9773,-100.5341 108.3368,-89.4948 114.5135,-80.2298"/>
<polygon fill="#191970" stroke="#191970" points="117.5311,-82.0131 120.1659,-71.7511 111.7067,-78.1301 117.5311,-82.0131"/>
</g>
<!-- Node5 -->
<g id="node6" class="node">
<title>Node5</title>
<polygon fill="none" stroke="#bfbfbf" points="105.5,-.5 105.5,-17.5 144.5,-17.5 144.5,-.5 105.5,-.5"/>
<text text-anchor="middle" x="125" y="-7.1" font-family="Helvetica,sans-Serif" font-size="8.00" fill="#000000">cstdlib</text>
</g>
<!-- Node4&#45;&gt;Node5 -->
<g id="edge5" class="edge">
<title>Node4&#45;&gt;Node5</title>
<path fill="none" stroke="#191970" d="M207.2546,-54.324C191.6813,-45.7428 167.6227,-32.486 149.5407,-22.5224"/>
<polygon fill="#191970" stroke="#191970" points="151.1539,-19.4152 140.7063,-17.6545 147.7756,-25.546 151.1539,-19.4152"/>
</g>
<!-- Node6 -->
<g id="node7" class="node">
<title>Node6</title>
<polygon fill="none" stroke="#bfbfbf" points="232,-.5 232,-17.5 268,-17.5 268,-.5 232,-.5"/>
<text text-anchor="middle" x="250" y="-7.1" font-family="Helvetica,sans-Serif" font-size="8.00" fill="#000000">ctime</text>
</g>
<!-- Node4&#45;&gt;Node6 -->
<g id="edge6" class="edge">
<title>Node4&#45;&gt;Node6</title>
<path fill="none" stroke="#191970" d="M227.4585,-54.083C231.1543,-46.6913 236.5234,-35.9533 241.0945,-26.8111"/>
<polygon fill="#191970" stroke="#191970" points="244.2828,-28.2606 245.6245,-17.7511 238.0218,-25.1301 244.2828,-28.2606"/>
</g>
<!-- Node7 -->
<g id="node8" class="node">
<title>Node7</title>
<polygon fill="none" stroke="#bfbfbf" points="162.5,-.5 162.5,-17.5 213.5,-17.5 213.5,-.5 162.5,-.5"/>
<text text-anchor="middle" x="188" y="-7.1" font-family="Helvetica,sans-Serif" font-size="8.00" fill="#000000">stdexcept</text>
</g>
<!-- Node4&#45;&gt;Node7 -->
<g id="edge7" class="edge">
<title>Node4&#45;&gt;Node7</title>
<path fill="none" stroke="#191970" d="M217.2205,-54.083C212.3276,-46.5341 205.1726,-35.4948 199.1674,-26.2298"/>
<polygon fill="#191970" stroke="#191970" points="202.048,-24.239 193.672,-17.7511 196.174,-28.0463 202.048,-24.239"/>
</g>
<!-- Node8 -->
<g id="node9" class="node">
<title>Node8</title>
<polygon fill="none" stroke="#bfbfbf" points="286,-.5 286,-17.5 322,-17.5 322,-.5 286,-.5"/>
<text text-anchor="middle" x="304" y="-7.1" font-family="Helvetica,sans-Serif" font-size="8.00" fill="#000000">string</text>
</g>
<!-- Node4&#45;&gt;Node8 -->
<g id="edge8" class="edge">
<title>Node4&#45;&gt;Node8</title>
<path fill="none" stroke="#191970" d="M236.0141,-54.324C248.5316,-45.979 267.6817,-33.2122 282.4714,-23.3524"/>
<polygon fill="#191970" stroke="#191970" points="284.6392,-26.1137 291.0182,-17.6545 280.7563,-20.2894 284.6392,-26.1137"/>
</g>
<!-- Node11&#45;&gt;Node2 -->
<g id="edge12" class="edge">
<title>Node11&#45;&gt;Node2</title>
<path fill="none" stroke="#191970" d="M108.8086,-54.324C91.6491,-45.6641 65.0543,-32.2424 45.2527,-22.249"/>
<polygon fill="#191970" stroke="#191970" points="46.6532,-19.0354 36.1487,-17.6545 43.4993,-25.2847 46.6532,-19.0354"/>
</g>
<!-- Node11&#45;&gt;Node3 -->
<g id="edge13" class="edge">
<title>Node11&#45;&gt;Node3</title>
<path fill="none" stroke="#191970" d="M117.083,-54.083C109.2195,-46.2195 97.5688,-34.5688 88.0813,-25.0813"/>
<polygon fill="#191970" stroke="#191970" points="90.2971,-22.3473 80.7511,-17.7511 85.3473,-27.2971 90.2971,-22.3473"/>
</g>
<!-- Node11&#45;&gt;Node5 -->
<g id="edge10" class="edge">
<title>Node11&#45;&gt;Node5</title>
<path fill="none" stroke="#191970" d="M125.8349,-54.083C125.7038,-47.0059 125.5159,-36.8611 125.3516,-27.9865"/>
<polygon fill="#191970" stroke="#191970" points="128.8467,-27.6845 125.1621,-17.7511 121.8479,-27.8142 128.8467,-27.6845"/>
</g>
<!-- Node11&#45;&gt;Node7 -->
<g id="edge11" class="edge">
<title>Node11&#45;&gt;Node7</title>
<path fill="none" stroke="#191970" d="M135.9614,-54.324C145.1266,-46.3414 158.9372,-34.3128 170.0282,-24.6529"/>
<polygon fill="#191970" stroke="#191970" points="172.6153,-27.041 177.8574,-17.8339 168.0178,-21.7624 172.6153,-27.041"/>
</g>
</g>
</svg>
