<?xml version="1.0" encoding="UTF-8" standalone="no"?>
<!DOCTYPE svg PUBLIC "-//W3C//DTD SVG 1.1//EN"
 "http://www.w3.org/Graphics/SVG/1.1/DTD/svg11.dtd">
<!-- Generated by graphviz version 2.40.1 (20161225.0304)
 -->
<!-- Title: GeneralTHDMEWPO.h Pages: 1 -->
<svg width="254pt" height="134pt"
 viewBox="0.00 0.00 254.00 134.00" xmlns="http://www.w3.org/2000/svg" xmlns:xlink="http://www.w3.org/1999/xlink">
<g id="graph0" class="graph" transform="scale(1 1) rotate(0) translate(4 130)">
<title>GeneralTHDMEWPO.h</title>
<!-- Node59 -->
<g id="node1" class="node">
<title>Node59</title>
<polygon fill="#bfbfbf" stroke="#000000" points="70.5,-108.5 70.5,-125.5 169.5,-125.5 169.5,-108.5 70.5,-108.5"/>
<text text-anchor="middle" x="120" y="-115.1" font-family="Helvetica,sans-Serif" font-size="8.00" fill="#000000">GeneralTHDMEWPO.h</text>
</g>
<!-- Node60 -->
<g id="node2" class="node">
<title>Node60</title>
<g id="a_node2"><a xlink:href="../../d8/df4/_general_t_h_d_m_e_w_p_o_8cpp.html" target="_top" xlink:title="GeneralTHDMEWPO.cpp">
<polygon fill="none" stroke="#000000" points="0,-54.5 0,-71.5 108,-71.5 108,-54.5 0,-54.5"/>
<text text-anchor="middle" x="54" y="-61.1" font-family="Helvetica,sans-Serif" font-size="8.00" fill="#000000">GeneralTHDMEWPO.cpp</text>
</a>
</g>
</g>
<!-- Node59&#45;&gt;Node60 -->
<g id="edge1" class="edge">
<title>Node59&#45;&gt;Node60</title>
<path fill="none" stroke="#191970" d="M101.4463,-101.8197C89.6219,-92.1452 74.7144,-79.9481 64.797,-71.8339"/>
<polygon fill="#191970" stroke="#191970" points="99.44,-104.7004 109.396,-108.324 103.8727,-99.2827 99.44,-104.7004"/>
</g>
<!-- Node61 -->
<g id="node3" class="node">
<title>Node61</title>
<g id="a_node3"><a xlink:href="../../d4/d31/_general_t_h_d_m_observables_8h.html" target="_top" xlink:title="GeneralTHDMObservables.h">
<polygon fill="none" stroke="#000000" points="126,-54.5 126,-71.5 246,-71.5 246,-54.5 126,-54.5"/>
<text text-anchor="middle" x="186" y="-61.1" font-family="Helvetica,sans-Serif" font-size="8.00" fill="#000000">GeneralTHDMObservables.h</text>
</a>
</g>
</g>
<!-- Node59&#45;&gt;Node61 -->
<g id="edge2" class="edge">
<title>Node59&#45;&gt;Node61</title>
<path fill="none" stroke="#191970" d="M138.5537,-101.8197C150.3781,-92.1452 165.2856,-79.9481 175.203,-71.8339"/>
<polygon fill="#191970" stroke="#191970" points="136.1273,-99.2827 130.604,-108.324 140.56,-104.7004 136.1273,-99.2827"/>
</g>
<!-- Node62 -->
<g id="node4" class="node">
<title>Node62</title>
<g id="a_node4"><a xlink:href="../../d1/de2/_th_obs_factory_8cpp.html" target="_top" xlink:title="ThObsFactory.cpp">
<polygon fill="none" stroke="#000000" points="145,-.5 145,-17.5 227,-17.5 227,-.5 145,-.5"/>
<text text-anchor="middle" x="186" y="-7.1" font-family="Helvetica,sans-Serif" font-size="8.00" fill="#000000">ThObsFactory.cpp</text>
</a>
</g>
</g>
<!-- Node61&#45;&gt;Node62 -->
<g id="edge3" class="edge">
<title>Node61&#45;&gt;Node62</title>
<path fill="none" stroke="#191970" d="M186,-43.8045C186,-34.9102 186,-24.7798 186,-17.7511"/>
<polygon fill="#191970" stroke="#191970" points="182.5001,-44.083 186,-54.083 189.5001,-44.083 182.5001,-44.083"/>
</g>
</g>
</svg>
