<?xml version="1.0" encoding="UTF-8" standalone="no"?>
<!DOCTYPE svg PUBLIC "-//W3C//DTD SVG 1.1//EN"
 "http://www.w3.org/Graphics/SVG/1.1/DTD/svg11.dtd">
<!-- Generated by graphviz version 2.40.1 (20161225.0304)
 -->
<!-- Title: GMMatching.h Pages: 1 -->
<svg width="477pt" height="188pt"
 viewBox="0.00 0.00 477.00 188.00" xmlns="http://www.w3.org/2000/svg" xmlns:xlink="http://www.w3.org/1999/xlink">
<g id="graph0" class="graph" transform="scale(1 1) rotate(0) translate(4 184)">
<title>GMMatching.h</title>
<!-- Node0 -->
<g id="node1" class="node">
<title>Node0</title>
<polygon fill="#bfbfbf" stroke="#000000" points="276,-162.5 276,-179.5 345,-179.5 345,-162.5 276,-162.5"/>
<text text-anchor="middle" x="310.5" y="-169.1" font-family="Helvetica,sans-Serif" font-size="8.00" fill="#000000">GMMatching.h</text>
</g>
<!-- Node1 -->
<g id="node2" class="node">
<title>Node1</title>
<g id="a_node2"><a xlink:href="../../d6/d16/_standard_model_matching_8h.html" target="_top" xlink:title="StandardModelMatching.h">
<polygon fill="none" stroke="#000000" points="255.5,-108.5 255.5,-125.5 365.5,-125.5 365.5,-108.5 255.5,-108.5"/>
<text text-anchor="middle" x="310.5" y="-115.1" font-family="Helvetica,sans-Serif" font-size="8.00" fill="#000000">StandardModelMatching.h</text>
</a>
</g>
</g>
<!-- Node0&#45;&gt;Node1 -->
<g id="edge1" class="edge">
<title>Node0&#45;&gt;Node1</title>
<path fill="none" stroke="#191970" d="M310.5,-162.083C310.5,-155.0059 310.5,-144.8611 310.5,-135.9865"/>
<polygon fill="#191970" stroke="#191970" points="314.0001,-135.751 310.5,-125.7511 307.0001,-135.7511 314.0001,-135.751"/>
</g>
<!-- Node2 -->
<g id="node3" class="node">
<title>Node2</title>
<g id="a_node3"><a xlink:href="../../d6/d46/_model_matching_8h.html" target="_top" xlink:title="ModelMatching.h">
<polygon fill="none" stroke="#000000" points="233,-54.5 233,-71.5 310,-71.5 310,-54.5 233,-54.5"/>
<text text-anchor="middle" x="271.5" y="-61.1" font-family="Helvetica,sans-Serif" font-size="8.00" fill="#000000">ModelMatching.h</text>
</a>
</g>
</g>
<!-- Node1&#45;&gt;Node2 -->
<g id="edge2" class="edge">
<title>Node1&#45;&gt;Node2</title>
<path fill="none" stroke="#191970" d="M304.0599,-108.083C298.5511,-100.4554 290.4688,-89.2645 283.735,-79.9408"/>
<polygon fill="#191970" stroke="#191970" points="286.5126,-77.8087 277.8202,-71.7511 280.8378,-81.9071 286.5126,-77.8087"/>
</g>
<!-- Node38 -->
<g id="node9" class="node">
<title>Node38</title>
<g id="a_node9"><a xlink:href="../../d9/d72/gslpp_8h.html" target="_top" xlink:title="gslpp.h">
<polygon fill="none" stroke="#ff0000" points="368.5,-54.5 368.5,-71.5 410.5,-71.5 410.5,-54.5 368.5,-54.5"/>
<text text-anchor="middle" x="389.5" y="-61.1" font-family="Helvetica,sans-Serif" font-size="8.00" fill="#000000">gslpp.h</text>
</a>
</g>
</g>
<!-- Node1&#45;&gt;Node38 -->
<g id="edge8" class="edge">
<title>Node1&#45;&gt;Node38</title>
<path fill="none" stroke="#191970" d="M323.1927,-108.324C335.4011,-99.979 354.0785,-87.2122 368.5029,-77.3524"/>
<polygon fill="#191970" stroke="#191970" points="370.5582,-80.1871 376.8388,-71.6545 366.608,-74.4082 370.5582,-80.1871"/>
</g>
<!-- Node3 -->
<g id="node4" class="node">
<title>Node3</title>
<g id="a_node4"><a xlink:href="../../db/dba/_wilson_coefficient_8h.html" target="_top" xlink:title="WilsonCoefficient.h">
<polygon fill="none" stroke="#ff0000" points="0,-.5 0,-17.5 85,-17.5 85,-.5 0,-.5"/>
<text text-anchor="middle" x="42.5" y="-7.1" font-family="Helvetica,sans-Serif" font-size="8.00" fill="#000000">WilsonCoefficient.h</text>
</a>
</g>
</g>
<!-- Node2&#45;&gt;Node3 -->
<g id="edge3" class="edge">
<title>Node2&#45;&gt;Node3</title>
<path fill="none" stroke="#191970" d="M235.2143,-54.4435C195.517,-45.0826 131.7933,-30.0561 88.5884,-19.868"/>
<polygon fill="#191970" stroke="#191970" points="89.1523,-16.4051 78.616,-17.5164 87.5457,-23.2182 89.1523,-16.4051"/>
</g>
<!-- Node15 -->
<g id="node5" class="node">
<title>Node15</title>
<g id="a_node5"><a xlink:href="../../d8/d68/_wilson_coefficient_new_8h.html" target="_top" xlink:title="WilsonCoefficientNew.h">
<polygon fill="none" stroke="#ff0000" points="103,-.5 103,-17.5 204,-17.5 204,-.5 103,-.5"/>
<text text-anchor="middle" x="153.5" y="-7.1" font-family="Helvetica,sans-Serif" font-size="8.00" fill="#000000">WilsonCoefficientNew.h</text>
</a>
</g>
</g>
<!-- Node2&#45;&gt;Node15 -->
<g id="edge4" class="edge">
<title>Node2&#45;&gt;Node15</title>
<path fill="none" stroke="#191970" d="M252.8025,-54.4435C233.5555,-45.6356 203.3475,-31.8116 181.2999,-21.722"/>
<polygon fill="#191970" stroke="#191970" points="182.6595,-18.4951 172.11,-17.5164 179.7466,-24.8603 182.6595,-18.4951"/>
</g>
<!-- Node27 -->
<g id="node6" class="node">
<title>Node27</title>
<g id="a_node6"><a xlink:href="../../d4/d68/_q_c_d_8h.html" target="_top" xlink:title="QCD.h">
<polygon fill="none" stroke="#ff0000" points="222,-.5 222,-17.5 263,-17.5 263,-.5 222,-.5"/>
<text text-anchor="middle" x="242.5" y="-7.1" font-family="Helvetica,sans-Serif" font-size="8.00" fill="#000000">QCD.h</text>
</a>
</g>
</g>
<!-- Node2&#45;&gt;Node27 -->
<g id="edge5" class="edge">
<title>Node2&#45;&gt;Node27</title>
<path fill="none" stroke="#191970" d="M266.7112,-54.083C262.7416,-46.6913 256.9749,-35.9533 252.0652,-26.8111"/>
<polygon fill="#191970" stroke="#191970" points="255.0145,-24.9051 247.1997,-17.7511 248.8475,-28.217 255.0145,-24.9051"/>
</g>
<!-- Node19 -->
<g id="node7" class="node">
<title>Node19</title>
<polygon fill="none" stroke="#bfbfbf" points="281.5,-.5 281.5,-17.5 319.5,-17.5 319.5,-.5 281.5,-.5"/>
<text text-anchor="middle" x="300.5" y="-7.1" font-family="Helvetica,sans-Serif" font-size="8.00" fill="#000000">vector</text>
</g>
<!-- Node2&#45;&gt;Node19 -->
<g id="edge6" class="edge">
<title>Node2&#45;&gt;Node19</title>
<path fill="none" stroke="#191970" d="M276.2888,-54.083C280.2584,-46.6913 286.0251,-35.9533 290.9348,-26.8111"/>
<polygon fill="#191970" stroke="#191970" points="294.1525,-28.217 295.8003,-17.7511 287.9855,-24.9051 294.1525,-28.217"/>
</g>
<!-- Node31 -->
<g id="node8" class="node">
<title>Node31</title>
<polygon fill="none" stroke="#bfbfbf" points="337.5,-.5 337.5,-17.5 373.5,-17.5 373.5,-.5 337.5,-.5"/>
<text text-anchor="middle" x="355.5" y="-7.1" font-family="Helvetica,sans-Serif" font-size="8.00" fill="#000000">string</text>
</g>
<!-- Node2&#45;&gt;Node31 -->
<g id="edge7" class="edge">
<title>Node2&#45;&gt;Node31</title>
<path fill="none" stroke="#191970" d="M284.9961,-54.324C298.0996,-45.9002 318.2119,-32.9709 333.6069,-23.0741"/>
<polygon fill="#191970" stroke="#191970" points="335.5183,-26.0063 342.0374,-17.6545 331.733,-20.118 335.5183,-26.0063"/>
</g>
<!-- Node7 -->
<g id="node10" class="node">
<title>Node7</title>
<g id="a_node10"><a xlink:href="../../d1/dc2/gslpp__complex_8h.html" target="_top" xlink:title="gslpp_complex.h">
<polygon fill="none" stroke="#ff0000" points="392,-.5 392,-17.5 469,-17.5 469,-.5 392,-.5"/>
<text text-anchor="middle" x="430.5" y="-7.1" font-family="Helvetica,sans-Serif" font-size="8.00" fill="#000000">gslpp_complex.h</text>
</a>
</g>
</g>
<!-- Node38&#45;&gt;Node7 -->
<g id="edge9" class="edge">
<title>Node38&#45;&gt;Node7</title>
<path fill="none" stroke="#191970" d="M396.2703,-54.083C402.0616,-46.4554 410.5585,-35.2645 417.6375,-25.9408"/>
<polygon fill="#191970" stroke="#191970" points="420.5961,-27.8321 423.8557,-17.7511 415.021,-23.5991 420.5961,-27.8321"/>
</g>
</g>
</svg>
