<?xml version="1.0" encoding="UTF-8" standalone="no"?>
<!DOCTYPE svg PUBLIC "-//W3C//DTD SVG 1.1//EN"
 "http://www.w3.org/Graphics/SVG/1.1/DTD/svg11.dtd">
<!-- Generated by graphviz version 2.38.0 (20140413.2041)
 -->
<!-- Title: gslpp_complex.h Pages: 1 -->
<svg width="274pt" height="80pt"
 viewBox="0.00 0.00 273.50 80.00" xmlns="http://www.w3.org/2000/svg" xmlns:xlink="http://www.w3.org/1999/xlink">
<g id="graph0" class="graph" transform="scale(1 1) rotate(0) translate(4 76)">
<title>gslpp_complex.h</title>
<!-- Node1 -->
<g id="node1" class="node"><title>Node1</title>
<polygon fill="#bfbfbf" stroke="black" points="67,-54.5 67,-71.5 144,-71.5 144,-54.5 67,-54.5"/>
<text text-anchor="middle" x="105.5" y="-61.1" font-family="Helvetica,sans-Serif" font-size="8.00">gslpp_complex.h</text>
</g>
<!-- Node2 -->
<g id="node2" class="node"><title>Node2</title>
<polygon fill="none" stroke="#bfbfbf" points="0,-0.5 0,-17.5 47,-17.5 47,-0.5 0,-0.5"/>
<text text-anchor="middle" x="23.5" y="-7.1" font-family="Helvetica,sans-Serif" font-size="8.00">iostream</text>
</g>
<!-- Node1&#45;&gt;Node2 -->
<g id="edge1" class="edge"><title>Node1&#45;&gt;Node2</title>
<path fill="none" stroke="midnightblue" d="M93.4006,-54.3272C80.3662,-46.0615 59.4029,-32.7677 43.8288,-22.8914"/>
<polygon fill="midnightblue" stroke="midnightblue" points="45.7019,-19.9349 35.3824,-17.5352 41.9531,-25.8464 45.7019,-19.9349"/>
</g>
<!-- Node3 -->
<g id="node3" class="node"><title>Node3</title>
<polygon fill="none" stroke="#bfbfbf" points="65.5,-0.5 65.5,-17.5 145.5,-17.5 145.5,-0.5 65.5,-0.5"/>
<text text-anchor="middle" x="105.5" y="-7.1" font-family="Helvetica,sans-Serif" font-size="8.00">gsl/gsl_complex.h</text>
</g>
<!-- Node1&#45;&gt;Node3 -->
<g id="edge2" class="edge"><title>Node1&#45;&gt;Node3</title>
<path fill="none" stroke="midnightblue" d="M105.5,-54.3272C105.5,-47.4145 105.5,-36.985 105.5,-27.9789"/>
<polygon fill="midnightblue" stroke="midnightblue" points="109,-27.7042 105.5,-17.7043 102,-27.7043 109,-27.7042"/>
</g>
<!-- Node4 -->
<g id="node4" class="node"><title>Node4</title>
<polygon fill="none" stroke="#bfbfbf" points="163.5,-0.5 163.5,-17.5 265.5,-17.5 265.5,-0.5 163.5,-0.5"/>
<text text-anchor="middle" x="214.5" y="-7.1" font-family="Helvetica,sans-Serif" font-size="8.00">gsl/gsl_complex_math.h</text>
</g>
<!-- Node1&#45;&gt;Node4 -->
<g id="edge3" class="edge"><title>Node1&#45;&gt;Node4</title>
<path fill="none" stroke="midnightblue" d="M121.583,-54.3272C139.476,-45.7911 168.61,-31.8926 189.486,-21.9335"/>
<polygon fill="midnightblue" stroke="midnightblue" points="191.187,-25 198.705,-17.5352 188.172,-18.6821 191.187,-25"/>
</g>
</g>
</svg>
