<?xml version="1.0" encoding="UTF-8" standalone="no"?>
<!DOCTYPE svg PUBLIC "-//W3C//DTD SVG 1.1//EN"
 "http://www.w3.org/Graphics/SVG/1.1/DTD/svg11.dtd">
<!-- Generated by graphviz version 2.40.1 (20161225.0304)
 -->
<!-- Title: ComputeObservables.cpp Pages: 1 -->
<svg width="593pt" height="251pt"
 viewBox="0.00 0.00 593.00 251.00" xmlns="http://www.w3.org/2000/svg" xmlns:xlink="http://www.w3.org/1999/xlink">
<g id="graph0" class="graph" transform="scale(1 1) rotate(0) translate(4 247)">
<title>ComputeObservables.cpp</title>
<!-- Node0 -->
<g id="node1" class="node">
<title>Node0</title>
<polygon fill="#bfbfbf" stroke="#000000" points="231,-225.5 231,-242.5 340,-242.5 340,-225.5 231,-225.5"/>
<text text-anchor="middle" x="285.5" y="-232.1" font-family="Helvetica,sans-Serif" font-size="8.00" fill="#000000">ComputeObservables.cpp</text>
</g>
<!-- Node1 -->
<g id="node2" class="node">
<title>Node1</title>
<g id="a_node2"><a xlink:href="../../d8/db2/_observable_8h.html" target="_top" xlink:title="Observable.h">
<polygon fill="none" stroke="#ff0000" points="95.5,-108.5 95.5,-125.5 159.5,-125.5 159.5,-108.5 95.5,-108.5"/>
<text text-anchor="middle" x="127.5" y="-115.1" font-family="Helvetica,sans-Serif" font-size="8.00" fill="#000000">Observable.h</text>
</a>
</g>
</g>
<!-- Node0&#45;&gt;Node1 -->
<g id="edge1" class="edge">
<title>Node0&#45;&gt;Node1</title>
<path fill="none" stroke="#191970" d="M230.8176,-226.9026C186.3576,-219.8773 128.7442,-207.4776 114.5,-189 102.5402,-173.4857 109.7078,-150.5343 117.2977,-134.7365"/>
<polygon fill="#191970" stroke="#191970" points="120.5797,-136.0161 122.1495,-125.5382 114.3883,-132.7502 120.5797,-136.0161"/>
</g>
<!-- Node9 -->
<g id="node7" class="node">
<title>Node9</title>
<g id="a_node7"><a xlink:href="../../d9/df1/_observable2_d_8h.html" target="_top" xlink:title="Observable2D.h">
<polygon fill="none" stroke="#ff0000" points="123.5,-167 123.5,-184 197.5,-184 197.5,-167 123.5,-167"/>
<text text-anchor="middle" x="160.5" y="-173.6" font-family="Helvetica,sans-Serif" font-size="8.00" fill="#000000">Observable2D.h</text>
</a>
</g>
</g>
<!-- Node0&#45;&gt;Node9 -->
<g id="edge7" class="edge">
<title>Node0&#45;&gt;Node9</title>
<path fill="none" stroke="#191970" d="M267.3239,-225.4936C246.4946,-215.7455 212.1333,-199.6644 188.0193,-188.3791"/>
<polygon fill="#191970" stroke="#191970" points="189.2388,-185.0855 178.698,-184.0167 186.2716,-191.4255 189.2388,-185.0855"/>
</g>
<!-- Node11 -->
<g id="node8" class="node">
<title>Node11</title>
<polygon fill="none" stroke="#bfbfbf" points="216,-167 216,-184 355,-184 355,-167 216,-167"/>
<text text-anchor="middle" x="285.5" y="-173.6" font-family="Helvetica,sans-Serif" font-size="8.00" fill="#000000">CorrelatedGaussianObservables.h</text>
</g>
<!-- Node0&#45;&gt;Node11 -->
<g id="edge9" class="edge">
<title>Node0&#45;&gt;Node11</title>
<path fill="none" stroke="#191970" d="M285.5,-225.3681C285.5,-217.2457 285.5,-204.8073 285.5,-194.3853"/>
<polygon fill="#191970" stroke="#191970" points="289.0001,-194.1673 285.5,-184.1673 282.0001,-194.1673 289.0001,-194.1673"/>
</g>
<!-- Node12 -->
<g id="node9" class="node">
<title>Node12</title>
<g id="a_node9"><a xlink:href="../../d1/dae/_compute_observables_8h.html" target="_top" xlink:title="ComputeObservables.h">
<polygon fill="none" stroke="#ff0000" points="373,-167 373,-184 474,-184 474,-167 373,-167"/>
<text text-anchor="middle" x="423.5" y="-173.6" font-family="Helvetica,sans-Serif" font-size="8.00" fill="#000000">ComputeObservables.h</text>
</a>
</g>
</g>
<!-- Node0&#45;&gt;Node12 -->
<g id="edge10" class="edge">
<title>Node0&#45;&gt;Node12</title>
<path fill="none" stroke="#191970" d="M305.5664,-225.4936C328.8686,-215.6155 367.5111,-199.2344 394.1774,-187.9302"/>
<polygon fill="#191970" stroke="#191970" points="395.5685,-191.1421 403.4094,-184.0167 392.8364,-184.6972 395.5685,-191.1421"/>
</g>
<!-- Node67 -->
<g id="node10" class="node">
<title>Node67</title>
<polygon fill="none" stroke="#bfbfbf" points="492,-162.5 492,-188.5 585,-188.5 585,-162.5 492,-162.5"/>
<text text-anchor="start" x="500" y="-178.1" font-family="Helvetica,sans-Serif" font-size="8.00" fill="#000000">boost/algorithm/string</text>
<text text-anchor="middle" x="538.5" y="-169.1" font-family="Helvetica,sans-Serif" font-size="8.00" fill="#000000">/predicate.hpp</text>
</g>
<!-- Node0&#45;&gt;Node67 -->
<g id="edge11" class="edge">
<title>Node0&#45;&gt;Node67</title>
<path fill="none" stroke="#191970" d="M323.8729,-225.4844C361.6896,-217.0466 421.3812,-203.6066 481.64,-189.4196"/>
<polygon fill="#191970" stroke="#191970" points="482.7768,-192.7475 491.7054,-187.044 481.1688,-185.9347 482.7768,-192.7475"/>
</g>
<!-- Node2 -->
<g id="node3" class="node">
<title>Node2</title>
<g id="a_node3"><a xlink:href="../../dd/dcd/_th_observable_8h.html" target="_top" xlink:title="ThObservable.h">
<polygon fill="none" stroke="#ff0000" points="0,-54.5 0,-71.5 73,-71.5 73,-54.5 0,-54.5"/>
<text text-anchor="middle" x="36.5" y="-61.1" font-family="Helvetica,sans-Serif" font-size="8.00" fill="#000000">ThObservable.h</text>
</a>
</g>
</g>
<!-- Node1&#45;&gt;Node2 -->
<g id="edge2" class="edge">
<title>Node1&#45;&gt;Node2</title>
<path fill="none" stroke="#191970" d="M112.8793,-108.324C98.5511,-99.8215 76.4875,-86.7288 59.7513,-76.7975"/>
<polygon fill="#191970" stroke="#191970" points="61.4704,-73.7478 51.0844,-71.6545 57.8982,-79.7677 61.4704,-73.7478"/>
</g>
<!-- Node4 -->
<g id="node4" class="node">
<title>Node4</title>
<polygon fill="none" stroke="#bfbfbf" points="50.5,-.5 50.5,-17.5 86.5,-17.5 86.5,-.5 50.5,-.5"/>
<text text-anchor="middle" x="68.5" y="-7.1" font-family="Helvetica,sans-Serif" font-size="8.00" fill="#000000">string</text>
</g>
<!-- Node1&#45;&gt;Node4 -->
<g id="edge4" class="edge">
<title>Node1&#45;&gt;Node4</title>
<path fill="none" stroke="#191970" d="M122.6718,-108.1619C112.943,-90.3533 90.825,-49.8661 78.0632,-26.5054"/>
<polygon fill="#191970" stroke="#191970" points="81.0959,-24.7562 73.23,-17.6584 74.9527,-28.1122 81.0959,-24.7562"/>
</g>
<!-- Node5 -->
<g id="node5" class="node">
<title>Node5</title>
<polygon fill="none" stroke="#bfbfbf" points="130,-54.5 130,-71.5 177,-71.5 177,-54.5 130,-54.5"/>
<text text-anchor="middle" x="153.5" y="-61.1" font-family="Helvetica,sans-Serif" font-size="8.00" fill="#000000">iostream</text>
</g>
<!-- Node1&#45;&gt;Node5 -->
<g id="edge5" class="edge">
<title>Node1&#45;&gt;Node5</title>
<path fill="none" stroke="#191970" d="M131.7934,-108.083C135.3523,-100.6913 140.5225,-89.9533 144.9243,-80.8111"/>
<polygon fill="#191970" stroke="#191970" points="148.1018,-82.2795 149.2865,-71.7511 141.7948,-79.2427 148.1018,-82.2795"/>
</g>
<!-- Node6 -->
<g id="node6" class="node">
<title>Node6</title>
<polygon fill="none" stroke="#bfbfbf" points="195.5,-54.5 195.5,-71.5 239.5,-71.5 239.5,-54.5 195.5,-54.5"/>
<text text-anchor="middle" x="217.5" y="-61.1" font-family="Helvetica,sans-Serif" font-size="8.00" fill="#000000">TH1D.h</text>
</g>
<!-- Node1&#45;&gt;Node6 -->
<g id="edge6" class="edge">
<title>Node1&#45;&gt;Node6</title>
<path fill="none" stroke="#191970" d="M141.9601,-108.324C155.9996,-99.9002 177.5485,-86.9709 194.0431,-77.0741"/>
<polygon fill="#191970" stroke="#191970" points="196.3016,-79.8007 203.0758,-71.6545 192.7001,-73.7983 196.3016,-79.8007"/>
</g>
<!-- Node2&#45;&gt;Node4 -->
<g id="edge3" class="edge">
<title>Node2&#45;&gt;Node4</title>
<path fill="none" stroke="#191970" d="M41.7841,-54.083C46.211,-46.6127 52.6633,-35.7244 58.1179,-26.5199"/>
<polygon fill="#191970" stroke="#191970" points="61.2271,-28.1383 63.3142,-17.7511 55.2051,-24.5697 61.2271,-28.1383"/>
</g>
<!-- Node9&#45;&gt;Node1 -->
<g id="edge8" class="edge">
<title>Node9&#45;&gt;Node1</title>
<path fill="none" stroke="#191970" d="M155.6307,-166.8681C150.8539,-158.4 143.4308,-145.2409 137.4092,-134.5663"/>
<polygon fill="#191970" stroke="#191970" points="140.3509,-132.6574 132.3892,-125.6673 134.2541,-136.0967 140.3509,-132.6574"/>
</g>
</g>
</svg>
