<?xml version="1.0" encoding="UTF-8" standalone="no"?>
<!DOCTYPE svg PUBLIC "-//W3C//DTD SVG 1.1//EN"
 "http://www.w3.org/Graphics/SVG/1.1/DTD/svg11.dtd">
<!-- Generated by graphviz version 2.38.0 (20140413.2041)
 -->
<!-- Title: EvolBsmm.h Pages: 1 -->
<svg width="330pt" height="242pt"
 viewBox="0.00 0.00 329.97 242.00" xmlns="http://www.w3.org/2000/svg" xmlns:xlink="http://www.w3.org/1999/xlink">
<g id="graph0" class="graph" transform="scale(1 1) rotate(0) translate(4 238)">
<title>EvolBsmm.h</title>
<!-- Node1 -->
<g id="node1" class="node"><title>Node1</title>
<polygon fill="#bfbfbf" stroke="black" points="173,-216.5 173,-233.5 234,-233.5 234,-216.5 173,-216.5"/>
<text text-anchor="middle" x="203.5" y="-223.1" font-family="Helvetica,sans-Serif" font-size="8.00">EvolBsmm.h</text>
</g>
<!-- Node2 -->
<g id="node2" class="node"><title>Node2</title>
<g id="a_node2"><a xlink:href="../../dc/d57/_r_g_evolutor_8h.html" target="_top" xlink:title="RGEvolutor.h">
<polygon fill="none" stroke="black" points="43,-108.5 43,-125.5 108,-125.5 108,-108.5 43,-108.5"/>
<text text-anchor="middle" x="75.5" y="-115.1" font-family="Helvetica,sans-Serif" font-size="8.00">RGEvolutor.h</text>
</a>
</g>
</g>
<!-- Node1&#45;&gt;Node2 -->
<g id="edge1" class="edge"><title>Node1&#45;&gt;Node2</title>
<path fill="none" stroke="midnightblue" d="M194.295,-216.377C172.984,-198.729 119.989,-154.842 92.5575,-132.126"/>
<polygon fill="midnightblue" stroke="midnightblue" points="94.5563,-129.237 84.622,-125.554 90.0916,-134.628 94.5563,-129.237"/>
</g>
<!-- Node6 -->
<g id="node6" class="node"><title>Node6</title>
<polygon fill="none" stroke="#bfbfbf" points="133,-0.5 133,-17.5 178,-17.5 178,-0.5 133,-0.5"/>
<text text-anchor="middle" x="155.5" y="-7.1" font-family="Helvetica,sans-Serif" font-size="8.00">sstream</text>
</g>
<!-- Node1&#45;&gt;Node6 -->
<g id="edge15" class="edge"><title>Node1&#45;&gt;Node6</title>
<path fill="none" stroke="midnightblue" d="M222.789,-216.416C260.473,-200.303 338.519,-159.852 318.5,-108 297.724,-54.1878 229.399,-28.1828 188.094,-17.0925"/>
<polygon fill="midnightblue" stroke="midnightblue" points="188.774,-13.6542 178.22,-14.5864 187.052,-20.439 188.774,-13.6542"/>
</g>
<!-- Node7 -->
<g id="node7" class="node"><title>Node7</title>
<g id="a_node7"><a xlink:href="../../d6/d0a/_standard_model_8h.html" target="_top" xlink:title="StandardModel.h">
<polygon fill="none" stroke="red" points="165,-162.5 165,-179.5 242,-179.5 242,-162.5 165,-162.5"/>
<text text-anchor="middle" x="203.5" y="-169.1" font-family="Helvetica,sans-Serif" font-size="8.00">StandardModel.h</text>
</a>
</g>
</g>
<!-- Node1&#45;&gt;Node7 -->
<g id="edge7" class="edge"><title>Node1&#45;&gt;Node7</title>
<path fill="none" stroke="midnightblue" d="M203.5,-216.327C203.5,-209.414 203.5,-198.985 203.5,-189.979"/>
<polygon fill="midnightblue" stroke="midnightblue" points="207,-189.704 203.5,-179.704 200,-189.704 207,-189.704"/>
</g>
<!-- Node3 -->
<g id="node3" class="node"><title>Node3</title>
<g id="a_node3"><a xlink:href="../../d9/d72/gslpp_8h.html" target="_top" xlink:title="gslpp.h">
<polygon fill="none" stroke="red" points="218.5,-54.5 218.5,-71.5 260.5,-71.5 260.5,-54.5 218.5,-54.5"/>
<text text-anchor="middle" x="239.5" y="-61.1" font-family="Helvetica,sans-Serif" font-size="8.00">gslpp.h</text>
</a>
</g>
</g>
<!-- Node2&#45;&gt;Node3 -->
<g id="edge2" class="edge"><title>Node2&#45;&gt;Node3</title>
<path fill="none" stroke="midnightblue" d="M99.347,-108.439C128.286,-99.2631 177.132,-83.7751 208.842,-73.7209"/>
<polygon fill="midnightblue" stroke="midnightblue" points="210.013,-77.0213 218.488,-70.6624 207.898,-70.3486 210.013,-77.0213"/>
</g>
<!-- Node4 -->
<g id="node4" class="node"><title>Node4</title>
<g id="a_node4"><a xlink:href="../../d4/d36/_order_scheme_8h.html" target="_top" xlink:title="OrderScheme.h">
<polygon fill="none" stroke="black" points="39,-0.5 39,-17.5 112,-17.5 112,-0.5 39,-0.5"/>
<text text-anchor="middle" x="75.5" y="-7.1" font-family="Helvetica,sans-Serif" font-size="8.00">OrderScheme.h</text>
</a>
</g>
</g>
<!-- Node2&#45;&gt;Node4 -->
<g id="edge3" class="edge"><title>Node2&#45;&gt;Node4</title>
<path fill="none" stroke="midnightblue" d="M75.5,-108.377C75.5,-91.6457 75.5,-51.3313 75.5,-27.8308"/>
<polygon fill="midnightblue" stroke="midnightblue" points="79.0001,-27.5541 75.5,-17.5542 72.0001,-27.5542 79.0001,-27.5541"/>
</g>
<!-- Node5 -->
<g id="node5" class="node"><title>Node5</title>
<g id="a_node5"><a xlink:href="../../d3/de7/_wilson_template_8h.html" target="_top" xlink:title="WilsonTemplate.h">
<polygon fill="none" stroke="red" points="110,-54.5 110,-71.5 191,-71.5 191,-54.5 110,-54.5"/>
<text text-anchor="middle" x="150.5" y="-61.1" font-family="Helvetica,sans-Serif" font-size="8.00">WilsonTemplate.h</text>
</a>
</g>
</g>
<!-- Node2&#45;&gt;Node5 -->
<g id="edge4" class="edge"><title>Node2&#45;&gt;Node5</title>
<path fill="none" stroke="midnightblue" d="M86.5665,-108.327C98.1985,-100.262 116.734,-87.4108 130.86,-77.6173"/>
<polygon fill="midnightblue" stroke="midnightblue" points="133.164,-80.2784 139.388,-71.7043 129.176,-74.5258 133.164,-80.2784"/>
</g>
<!-- Node5&#45;&gt;Node4 -->
<g id="edge5" class="edge"><title>Node5&#45;&gt;Node4</title>
<path fill="none" stroke="midnightblue" d="M139.433,-54.3272C127.801,-46.2624 109.266,-33.4108 95.1403,-23.6173"/>
<polygon fill="midnightblue" stroke="midnightblue" points="96.8241,-20.5258 86.6119,-17.7043 92.8357,-26.2784 96.8241,-20.5258"/>
</g>
<!-- Node5&#45;&gt;Node6 -->
<g id="edge6" class="edge"><title>Node5&#45;&gt;Node6</title>
<path fill="none" stroke="midnightblue" d="M151.238,-54.3272C151.91,-47.3377 152.928,-36.7528 153.8,-27.6792"/>
<polygon fill="midnightblue" stroke="midnightblue" points="157.286,-27.9934 154.759,-17.7043 150.318,-27.3233 157.286,-27.9934"/>
</g>
<!-- Node7&#45;&gt;Node3 -->
<g id="edge8" class="edge"><title>Node7&#45;&gt;Node3</title>
<path fill="none" stroke="midnightblue" d="M206.419,-162.241C209.695,-153.475 215.123,-138.763 219.5,-126 224.665,-110.94 230.197,-93.6965 234.131,-81.2237"/>
<polygon fill="midnightblue" stroke="midnightblue" points="237.475,-82.2549 237.127,-71.6658 230.796,-80.1611 237.475,-82.2549"/>
</g>
<!-- Node8 -->
<g id="node8" class="node"><title>Node8</title>
<g id="a_node8"><a xlink:href="../../d4/d68/_q_c_d_8h.html" target="_top" xlink:title="QCD.h">
<polygon fill="none" stroke="red" points="0,-54.5 0,-71.5 41,-71.5 41,-54.5 0,-54.5"/>
<text text-anchor="middle" x="20.5" y="-61.1" font-family="Helvetica,sans-Serif" font-size="8.00">QCD.h</text>
</a>
</g>
</g>
<!-- Node7&#45;&gt;Node8 -->
<g id="edge9" class="edge"><title>Node7&#45;&gt;Node8</title>
<path fill="none" stroke="midnightblue" d="M164.892,-164.786C120.488,-157.998 51.3919,-144.745 33.5,-126 22.347,-114.315 19.7125,-95.6298 19.493,-81.8231"/>
<polygon fill="midnightblue" stroke="midnightblue" points="22.9966,-81.7164 19.7427,-71.6337 15.9987,-81.5449 22.9966,-81.7164"/>
</g>
<!-- Node9 -->
<g id="node9" class="node"><title>Node9</title>
<g id="a_node9"><a xlink:href="../../db/d5d/_c_k_m_8h.html" target="_top" xlink:title="CKM.h">
<polygon fill="none" stroke="red" points="268,-108.5 268,-125.5 309,-125.5 309,-108.5 268,-108.5"/>
<text text-anchor="middle" x="288.5" y="-115.1" font-family="Helvetica,sans-Serif" font-size="8.00">CKM.h</text>
</a>
</g>
</g>
<!-- Node7&#45;&gt;Node9 -->
<g id="edge11" class="edge"><title>Node7&#45;&gt;Node9</title>
<path fill="none" stroke="midnightblue" d="M216.042,-162.327C229.553,-154.062 251.284,-140.768 267.427,-130.891"/>
<polygon fill="midnightblue" stroke="midnightblue" points="269.479,-133.739 276.183,-125.535 265.826,-127.768 269.479,-133.739"/>
</g>
<!-- Node10 -->
<g id="node10" class="node"><title>Node10</title>
<g id="a_node10"><a xlink:href="../../db/dba/_wilson_coefficient_8h.html" target="_top" xlink:title="WilsonCoefficient.h">
<polygon fill="none" stroke="red" points="126,-108.5 126,-125.5 211,-125.5 211,-108.5 126,-108.5"/>
<text text-anchor="middle" x="168.5" y="-115.1" font-family="Helvetica,sans-Serif" font-size="8.00">WilsonCoefficient.h</text>
</a>
</g>
</g>
<!-- Node7&#45;&gt;Node10 -->
<g id="edge13" class="edge"><title>Node7&#45;&gt;Node10</title>
<path fill="none" stroke="midnightblue" d="M198.336,-162.327C193.373,-154.954 185.716,-143.579 179.403,-134.198"/>
<polygon fill="midnightblue" stroke="midnightblue" points="182.173,-132.046 173.686,-125.704 176.366,-135.954 182.173,-132.046"/>
</g>
<!-- Node8&#45;&gt;Node4 -->
<g id="edge10" class="edge"><title>Node8&#45;&gt;Node4</title>
<path fill="none" stroke="midnightblue" d="M28.6154,-54.3272C36.8206,-46.5696 49.7103,-34.383 59.8996,-24.7494"/>
<polygon fill="midnightblue" stroke="midnightblue" points="62.4893,-27.1177 67.3513,-17.7043 57.6802,-22.0311 62.4893,-27.1177"/>
</g>
<!-- Node9&#45;&gt;Node3 -->
<g id="edge12" class="edge"><title>Node9&#45;&gt;Node3</title>
<path fill="none" stroke="midnightblue" d="M281.27,-108.327C274.032,-100.646 262.703,-88.6239 253.669,-79.0363"/>
<polygon fill="midnightblue" stroke="midnightblue" points="256.165,-76.5819 246.76,-71.7043 251.071,-81.3825 256.165,-76.5819"/>
</g>
<!-- Node10&#45;&gt;Node5 -->
<g id="edge14" class="edge"><title>Node10&#45;&gt;Node5</title>
<path fill="none" stroke="midnightblue" d="M165.844,-108.327C163.398,-101.261 159.68,-90.5197 156.516,-81.3806"/>
<polygon fill="midnightblue" stroke="midnightblue" points="159.745,-80.0092 153.167,-71.7043 153.131,-82.299 159.745,-80.0092"/>
</g>
</g>
</svg>
