<?xml version="1.0" encoding="UTF-8" standalone="no"?>
<!DOCTYPE svg PUBLIC "-//W3C//DTD SVG 1.1//EN"
 "http://www.w3.org/Graphics/SVG/1.1/DTD/svg11.dtd">
<!-- Generated by graphviz version 2.40.1 (20161225.0304)
 -->
<!-- Title: THDMWquantities.h Pages: 1 -->
<svg width="222pt" height="134pt"
 viewBox="0.00 0.00 222.00 134.00" xmlns="http://www.w3.org/2000/svg" xmlns:xlink="http://www.w3.org/1999/xlink">
<g id="graph0" class="graph" transform="scale(1 1) rotate(0) translate(4 130)">
<title>THDMWquantities.h</title>
<!-- Node58 -->
<g id="node1" class="node">
<title>Node58</title>
<polygon fill="#bfbfbf" stroke="#000000" points="63.5,-108.5 63.5,-125.5 151.5,-125.5 151.5,-108.5 63.5,-108.5"/>
<text text-anchor="middle" x="107.5" y="-115.1" font-family="Helvetica,sans-Serif" font-size="8.00" fill="#000000">THDMWquantities.h</text>
</g>
<!-- Node59 -->
<g id="node2" class="node">
<title>Node59</title>
<g id="a_node2"><a xlink:href="../../de/d76/_t_h_d_m_w_observables_8h.html" target="_top" xlink:title="THDMWObservables.h">
<polygon fill="none" stroke="#000000" points="0,-54.5 0,-71.5 99,-71.5 99,-54.5 0,-54.5"/>
<text text-anchor="middle" x="49.5" y="-61.1" font-family="Helvetica,sans-Serif" font-size="8.00" fill="#000000">THDMWObservables.h</text>
</a>
</g>
</g>
<!-- Node58&#45;&gt;Node59 -->
<g id="edge1" class="edge">
<title>Node58&#45;&gt;Node59</title>
<path fill="none" stroke="#191970" d="M90.5869,-101.2533C80.297,-91.6731 67.5343,-79.7906 58.9883,-71.8339"/>
<polygon fill="#191970" stroke="#191970" points="88.4774,-104.0714 98.1813,-108.324 93.2473,-98.9481 88.4774,-104.0714"/>
</g>
<!-- Node61 -->
<g id="node4" class="node">
<title>Node61</title>
<g id="a_node4"><a xlink:href="../../d2/dc3/_t_h_d_m_wquantities_8cpp.html" target="_top" xlink:title="THDMWquantities.cpp">
<polygon fill="none" stroke="#000000" points="117,-54.5 117,-71.5 214,-71.5 214,-54.5 117,-54.5"/>
<text text-anchor="middle" x="165.5" y="-61.1" font-family="Helvetica,sans-Serif" font-size="8.00" fill="#000000">THDMWquantities.cpp</text>
</a>
</g>
</g>
<!-- Node58&#45;&gt;Node61 -->
<g id="edge3" class="edge">
<title>Node58&#45;&gt;Node61</title>
<path fill="none" stroke="#191970" d="M124.4131,-101.2533C134.703,-91.6731 147.4657,-79.7906 156.0117,-71.8339"/>
<polygon fill="#191970" stroke="#191970" points="121.7527,-98.9481 116.8187,-108.324 126.5226,-104.0714 121.7527,-98.9481"/>
</g>
<!-- Node60 -->
<g id="node3" class="node">
<title>Node60</title>
<g id="a_node3"><a xlink:href="../../d1/de2/_th_obs_factory_8cpp.html" target="_top" xlink:title="ThObsFactory.cpp">
<polygon fill="none" stroke="#000000" points="8.5,-.5 8.5,-17.5 90.5,-17.5 90.5,-.5 8.5,-.5"/>
<text text-anchor="middle" x="49.5" y="-7.1" font-family="Helvetica,sans-Serif" font-size="8.00" fill="#000000">ThObsFactory.cpp</text>
</a>
</g>
</g>
<!-- Node59&#45;&gt;Node60 -->
<g id="edge2" class="edge">
<title>Node59&#45;&gt;Node60</title>
<path fill="none" stroke="#191970" d="M49.5,-43.8045C49.5,-34.9102 49.5,-24.7798 49.5,-17.7511"/>
<polygon fill="#191970" stroke="#191970" points="46.0001,-44.083 49.5,-54.083 53.0001,-44.083 46.0001,-44.083"/>
</g>
</g>
</svg>
