<?xml version="1.0" encoding="UTF-8" standalone="no"?>
<!DOCTYPE svg PUBLIC "-//W3C//DTD SVG 1.1//EN"
 "http://www.w3.org/Graphics/SVG/1.1/DTD/svg11.dtd">
<!-- Generated by graphviz version 2.40.1 (20161225.0304)
 -->
<!-- Title: NPSTUVWXY.h Pages: 1 -->
<svg width="188pt" height="80pt"
 viewBox="0.00 0.00 188.00 80.00" xmlns="http://www.w3.org/2000/svg" xmlns:xlink="http://www.w3.org/1999/xlink">
<g id="graph0" class="graph" transform="scale(1 1) rotate(0) translate(4 76)">
<title>NPSTUVWXY.h</title>
<!-- Node51 -->
<g id="node1" class="node">
<title>Node51</title>
<polygon fill="#bfbfbf" stroke="#000000" points="52,-54.5 52,-71.5 126,-71.5 126,-54.5 52,-54.5"/>
<text text-anchor="middle" x="89" y="-61.1" font-family="Helvetica,sans-Serif" font-size="8.00" fill="#000000">NPSTUVWXY.h</text>
</g>
<!-- Node52 -->
<g id="node2" class="node">
<title>Node52</title>
<g id="a_node2"><a xlink:href="../../d3/df6/_model_factory_8cpp.html" target="_top" xlink:title="ModelFactory.cpp">
<polygon fill="none" stroke="#000000" points="0,-.5 0,-17.5 80,-17.5 80,-.5 0,-.5"/>
<text text-anchor="middle" x="40" y="-7.1" font-family="Helvetica,sans-Serif" font-size="8.00" fill="#000000">ModelFactory.cpp</text>
</a>
</g>
</g>
<!-- Node51&#45;&gt;Node52 -->
<g id="edge1" class="edge">
<title>Node51&#45;&gt;Node52</title>
<path fill="none" stroke="#191970" d="M73.9655,-46.4314C65.3778,-36.9673 54.9565,-25.4827 47.9408,-17.7511"/>
<polygon fill="#191970" stroke="#191970" points="71.5967,-49.0293 80.9086,-54.083 76.7807,-44.3254 71.5967,-49.0293"/>
</g>
<!-- Node53 -->
<g id="node3" class="node">
<title>Node53</title>
<g id="a_node3"><a xlink:href="../../db/d97/_n_p_s_t_u_v_w_x_y_8cpp.html" target="_top" xlink:title="NPSTUVWXY.cpp">
<polygon fill="none" stroke="#000000" points="98,-.5 98,-17.5 180,-17.5 180,-.5 98,-.5"/>
<text text-anchor="middle" x="139" y="-7.1" font-family="Helvetica,sans-Serif" font-size="8.00" fill="#000000">NPSTUVWXY.cpp</text>
</a>
</g>
</g>
<!-- Node51&#45;&gt;Node53 -->
<g id="edge2" class="edge">
<title>Node51&#45;&gt;Node53</title>
<path fill="none" stroke="#191970" d="M104.0763,-46.7175C112.8891,-37.1997 123.6659,-25.5608 130.8972,-17.7511"/>
<polygon fill="#191970" stroke="#191970" points="101.4824,-44.3674 97.2565,-54.083 106.6188,-49.1233 101.4824,-44.3674"/>
</g>
</g>
</svg>
