<?xml version="1.0" encoding="UTF-8" standalone="no"?>
<!DOCTYPE svg PUBLIC "-//W3C//DTD SVG 1.1//EN"
 "http://www.w3.org/Graphics/SVG/1.1/DTD/svg11.dtd">
<!-- Generated by graphviz version 2.38.0 (20140413.2041)
 -->
<!-- Title: THDM.cpp Pages: 1 -->
<svg width="318pt" height="296pt"
 viewBox="0.00 0.00 318.00 296.00" xmlns="http://www.w3.org/2000/svg" xmlns:xlink="http://www.w3.org/1999/xlink">
<g id="graph0" class="graph" transform="scale(1 1) rotate(0) translate(4 292)">
<title>THDM.cpp</title>
<!-- Node1 -->
<g id="node1" class="node"><title>Node1</title>
<polygon fill="#bfbfbf" stroke="black" points="75.5,-270.5 75.5,-287.5 130.5,-287.5 130.5,-270.5 75.5,-270.5"/>
<text text-anchor="middle" x="103" y="-277.1" font-family="Helvetica,sans-Serif" font-size="8.00">THDM.cpp</text>
</g>
<!-- Node2 -->
<g id="node2" class="node"><title>Node2</title>
<g id="a_node2"><a xlink:href="../../d6/d16/_standard_model_matching_8h.html" target="_top" xlink:title="StandardModelMatching.h">
<polygon fill="none" stroke="black" points="0,-108.5 0,-125.5 110,-125.5 110,-108.5 0,-108.5"/>
<text text-anchor="middle" x="55" y="-115.1" font-family="Helvetica,sans-Serif" font-size="8.00">StandardModelMatching.h</text>
</a>
</g>
</g>
<!-- Node1&#45;&gt;Node2 -->
<g id="edge1" class="edge"><title>Node1&#45;&gt;Node2</title>
<path fill="none" stroke="midnightblue" d="M99.106,-270.087C91.2097,-253.698 73.2771,-214.671 64,-180 60.0824,-165.359 57.7632,-148.288 56.4629,-135.769"/>
<polygon fill="midnightblue" stroke="midnightblue" points="59.9428,-135.389 55.5386,-125.753 52.9724,-136.032 59.9428,-135.389"/>
</g>
<!-- Node7 -->
<g id="node7" class="node"><title>Node7</title>
<g id="a_node7"><a xlink:href="../../de/de8/_t_h_d_m_8h.html" target="_top" xlink:title="THDM.h">
<polygon fill="none" stroke="black" points="138,-216.5 138,-233.5 184,-233.5 184,-216.5 138,-216.5"/>
<text text-anchor="middle" x="161" y="-223.1" font-family="Helvetica,sans-Serif" font-size="8.00">THDM.h</text>
</a>
</g>
</g>
<!-- Node1&#45;&gt;Node7 -->
<g id="edge6" class="edge"><title>Node1&#45;&gt;Node7</title>
<path fill="none" stroke="midnightblue" d="M111.558,-270.327C120.297,-262.493 134.073,-250.141 144.867,-240.464"/>
<polygon fill="midnightblue" stroke="midnightblue" points="147.297,-242.986 152.407,-233.704 142.625,-237.774 147.297,-242.986"/>
</g>
<!-- Node3 -->
<g id="node3" class="node"><title>Node3</title>
<g id="a_node3"><a xlink:href="../../d6/d46/_model_matching_8h.html" target="_top" xlink:title="ModelMatching.h">
<polygon fill="none" stroke="black" points="18.5,-54.5 18.5,-71.5 95.5,-71.5 95.5,-54.5 18.5,-54.5"/>
<text text-anchor="middle" x="57" y="-61.1" font-family="Helvetica,sans-Serif" font-size="8.00">ModelMatching.h</text>
</a>
</g>
</g>
<!-- Node2&#45;&gt;Node3 -->
<g id="edge2" class="edge"><title>Node2&#45;&gt;Node3</title>
<path fill="none" stroke="midnightblue" d="M55.2951,-108.327C55.561,-101.414 55.9621,-90.985 56.3085,-81.9789"/>
<polygon fill="midnightblue" stroke="midnightblue" points="59.8167,-81.8314 56.7037,-71.7043 52.8218,-81.5623 59.8167,-81.8314"/>
</g>
<!-- Node6 -->
<g id="node6" class="node"><title>Node6</title>
<g id="a_node6"><a xlink:href="../../d9/d72/gslpp_8h.html" target="_top" xlink:title="gslpp.h">
<polygon fill="none" stroke="red" points="130,-54.5 130,-71.5 172,-71.5 172,-54.5 130,-54.5"/>
<text text-anchor="middle" x="151" y="-61.1" font-family="Helvetica,sans-Serif" font-size="8.00">gslpp.h</text>
</a>
</g>
</g>
<!-- Node2&#45;&gt;Node6 -->
<g id="edge5" class="edge"><title>Node2&#45;&gt;Node6</title>
<path fill="none" stroke="midnightblue" d="M69.1651,-108.327C84.7101,-99.907 109.888,-86.269 128.216,-76.3412"/>
<polygon fill="midnightblue" stroke="midnightblue" points="129.963,-79.3756 137.089,-71.5352 126.629,-73.2206 129.963,-79.3756"/>
</g>
<!-- Node4 -->
<g id="node4" class="node"><title>Node4</title>
<g id="a_node4"><a xlink:href="../../db/dba/_wilson_coefficient_8h.html" target="_top" xlink:title="WilsonCoefficient.h">
<polygon fill="none" stroke="red" points="132.5,-0.5 132.5,-17.5 217.5,-17.5 217.5,-0.5 132.5,-0.5"/>
<text text-anchor="middle" x="175" y="-7.1" font-family="Helvetica,sans-Serif" font-size="8.00">WilsonCoefficient.h</text>
</a>
</g>
</g>
<!-- Node3&#45;&gt;Node4 -->
<g id="edge3" class="edge"><title>Node3&#45;&gt;Node4</title>
<path fill="none" stroke="midnightblue" d="M74.1582,-54.4388C93.6463,-45.8508 125.683,-31.7331 148.412,-21.7166"/>
<polygon fill="midnightblue" stroke="midnightblue" points="150.082,-24.8058 157.821,-17.5704 147.259,-18.4002 150.082,-24.8058"/>
</g>
<!-- Node5 -->
<g id="node5" class="node"><title>Node5</title>
<polygon fill="none" stroke="#bfbfbf" points="38,-0.5 38,-17.5 76,-17.5 76,-0.5 38,-0.5"/>
<text text-anchor="middle" x="57" y="-7.1" font-family="Helvetica,sans-Serif" font-size="8.00">vector</text>
</g>
<!-- Node3&#45;&gt;Node5 -->
<g id="edge4" class="edge"><title>Node3&#45;&gt;Node5</title>
<path fill="none" stroke="midnightblue" d="M57,-54.3272C57,-47.4145 57,-36.985 57,-27.9789"/>
<polygon fill="midnightblue" stroke="midnightblue" points="60.5001,-27.7042 57,-17.7043 53.5001,-27.7043 60.5001,-27.7042"/>
</g>
<!-- Node8 -->
<g id="node8" class="node"><title>Node8</title>
<g id="a_node8"><a xlink:href="../../d6/d0a/_standard_model_8h.html" target="_top" xlink:title="StandardModel.h">
<polygon fill="none" stroke="red" points="170.5,-162.5 170.5,-179.5 247.5,-179.5 247.5,-162.5 170.5,-162.5"/>
<text text-anchor="middle" x="209" y="-169.1" font-family="Helvetica,sans-Serif" font-size="8.00">StandardModel.h</text>
</a>
</g>
</g>
<!-- Node7&#45;&gt;Node8 -->
<g id="edge7" class="edge"><title>Node7&#45;&gt;Node8</title>
<path fill="none" stroke="midnightblue" d="M168.083,-216.327C175.102,-208.723 186.049,-196.864 194.854,-187.325"/>
<polygon fill="midnightblue" stroke="midnightblue" points="197.677,-189.426 201.888,-179.704 192.534,-184.678 197.677,-189.426"/>
</g>
<!-- Node9 -->
<g id="node9" class="node"><title>Node9</title>
<g id="a_node9"><a xlink:href="../../db/d1f/_t_h_d_m_matching_8h.html" target="_top" xlink:title="THDMMatching.h">
<polygon fill="none" stroke="black" points="73.5,-162.5 73.5,-179.5 152.5,-179.5 152.5,-162.5 73.5,-162.5"/>
<text text-anchor="middle" x="113" y="-169.1" font-family="Helvetica,sans-Serif" font-size="8.00">THDMMatching.h</text>
</a>
</g>
</g>
<!-- Node7&#45;&gt;Node9 -->
<g id="edge11" class="edge"><title>Node7&#45;&gt;Node9</title>
<path fill="none" stroke="midnightblue" d="M153.917,-216.327C146.898,-208.723 135.951,-196.864 127.146,-187.325"/>
<polygon fill="midnightblue" stroke="midnightblue" points="129.466,-184.678 120.112,-179.704 124.323,-189.426 129.466,-184.678"/>
</g>
<!-- Node10 -->
<g id="node10" class="node"><title>Node10</title>
<g id="a_node10"><a xlink:href="../../d0/d7c/_t_h_d_mcache_8h.html" target="_top" xlink:title="THDMcache.h">
<polygon fill="none" stroke="red" points="242,-108.5 242,-125.5 310,-125.5 310,-108.5 242,-108.5"/>
<text text-anchor="middle" x="276" y="-115.1" font-family="Helvetica,sans-Serif" font-size="8.00">THDMcache.h</text>
</a>
</g>
</g>
<!-- Node7&#45;&gt;Node10 -->
<g id="edge14" class="edge"><title>Node7&#45;&gt;Node10</title>
<path fill="none" stroke="midnightblue" d="M184.148,-218.936C205.64,-213.076 237.086,-201.368 256,-180 266.893,-167.694 271.864,-149.382 274.126,-135.847"/>
<polygon fill="midnightblue" stroke="midnightblue" points="277.608,-136.213 275.459,-125.838 270.669,-135.289 277.608,-136.213"/>
</g>
<!-- Node8&#45;&gt;Node2 -->
<g id="edge10" class="edge"><title>Node8&#45;&gt;Node2</title>
<path fill="none" stroke="midnightblue" d="M186.607,-162.439C160.375,-153.581 116.722,-138.841 86.9423,-128.786"/>
<polygon fill="midnightblue" stroke="midnightblue" points="88.0141,-125.454 77.4199,-125.57 85.7747,-132.086 88.0141,-125.454"/>
</g>
<!-- Node8&#45;&gt;Node4 -->
<g id="edge9" class="edge"><title>Node8&#45;&gt;Node4</title>
<path fill="none" stroke="midnightblue" d="M207.36,-162.283C202.188,-137.943 186.125,-62.3544 178.76,-27.6925"/>
<polygon fill="midnightblue" stroke="midnightblue" points="182.126,-26.6938 176.623,-17.6397 175.279,-28.1488 182.126,-26.6938"/>
</g>
<!-- Node8&#45;&gt;Node6 -->
<g id="edge8" class="edge"><title>Node8&#45;&gt;Node6</title>
<path fill="none" stroke="midnightblue" d="M204.829,-162.377C195.507,-145.34 172.805,-103.851 160.061,-80.5601"/>
<polygon fill="midnightblue" stroke="midnightblue" points="163.004,-78.6468 155.133,-71.5542 156.863,-82.0069 163.004,-78.6468"/>
</g>
<!-- Node9&#45;&gt;Node2 -->
<g id="edge13" class="edge"><title>Node9&#45;&gt;Node2</title>
<path fill="none" stroke="midnightblue" d="M104.442,-162.327C95.7035,-154.493 81.9268,-142.141 71.133,-132.464"/>
<polygon fill="midnightblue" stroke="midnightblue" points="73.3753,-129.774 63.5932,-125.704 68.7025,-134.986 73.3753,-129.774"/>
</g>
<!-- Node9&#45;&gt;Node6 -->
<g id="edge12" class="edge"><title>Node9&#45;&gt;Node6</title>
<path fill="none" stroke="midnightblue" d="M115.733,-162.377C121.786,-145.493 136.448,-104.593 144.837,-81.1912"/>
<polygon fill="midnightblue" stroke="midnightblue" points="148.212,-82.1487 148.292,-71.5542 141.623,-79.7864 148.212,-82.1487"/>
</g>
<!-- Node10&#45;&gt;Node6 -->
<g id="edge15" class="edge"><title>Node10&#45;&gt;Node6</title>
<path fill="none" stroke="midnightblue" d="M257.824,-108.439C236.995,-99.7738 202.633,-85.4794 178.519,-75.448"/>
<polygon fill="midnightblue" stroke="midnightblue" points="179.775,-72.1798 169.198,-71.5704 177.087,-78.6429 179.775,-72.1798"/>
</g>
</g>
</svg>
