<?xml version="1.0" encoding="UTF-8" standalone="no"?>
<!DOCTYPE svg PUBLIC "-//W3C//DTD SVG 1.1//EN"
 "http://www.w3.org/Graphics/SVG/1.1/DTD/svg11.dtd">
<!-- Generated by graphviz version 2.40.1 (20161225.0304)
 -->
<!-- Title: LRSMquantities Pages: 1 -->
<svg width="759pt" height="272pt"
 viewBox="0.00 0.00 759.00 271.67" xmlns="http://www.w3.org/2000/svg" xmlns:xlink="http://www.w3.org/1999/xlink">
<g id="graph0" class="graph" transform="scale(1 1) rotate(0) translate(4 267.6685)">
<title>LRSMquantities</title>
<!-- Node1 -->
<g id="node1" class="node">
<title>Node1</title>
<polygon fill="#bfbfbf" stroke="#000000" points="259,-9.1685 259,-26.1685 332,-26.1685 332,-9.1685 259,-9.1685"/>
<text text-anchor="middle" x="295.5" y="-15.7685" font-family="Helvetica,sans-Serif" font-size="8.00" fill="#000000">LRSMquantities</text>
</g>
<!-- Node2 -->
<g id="node2" class="node">
<title>Node2</title>
<g id="a_node2"><a xlink:href="../../d6/da6/class_left_right_symmetric_model.html" target="_top" xlink:title="A base class for generic Left Right Symmetric Models. ">
<polygon fill="none" stroke="#000000" points="474,-64.1685 474,-81.1685 582,-81.1685 582,-64.1685 474,-64.1685"/>
<text text-anchor="middle" x="528" y="-70.7685" font-family="Helvetica,sans-Serif" font-size="8.00" fill="#000000">LeftRightSymmetricModel</text>
</a>
</g>
</g>
<!-- Node1&#45;&gt;Node2 -->
<g id="edge11" class="edge">
<title>Node1&#45;&gt;Node2</title>
<path fill="none" stroke="#9a32cd" stroke-dasharray="5,2" d="M341.468,-28.5427C385.5906,-38.9803 451.3378,-54.5334 491.8423,-64.1151"/>
<polygon fill="#9a32cd" stroke="#9a32cd" points="342.1102,-25.0981 331.573,-26.202 340.4987,-31.9101 342.1102,-25.0981"/>
<text text-anchor="middle" x="421" y="-58.2685" font-family="Helvetica,sans-Serif" font-size="8.00" fill="#000000"> myLRSMquantities</text>
</g>
<!-- Node2&#45;&gt;Node1 -->
<g id="edge1" class="edge">
<title>Node2&#45;&gt;Node1</title>
<path fill="none" stroke="#9a32cd" stroke-dasharray="5,2" d="M515.0159,-55.8513C502.0033,-40.5007 480.4351,-18.8497 456,-9.6685 413.0384,6.4736 359.0176,-1.4327 325.8896,-9.1466"/>
<polygon fill="#9a32cd" stroke="#9a32cd" points="512.6262,-58.461 521.6458,-64.0196 518.0613,-54.0495 512.6262,-58.461"/>
<text text-anchor="middle" x="421" y="-12.2685" font-family="Helvetica,sans-Serif" font-size="8.00" fill="#000000"> myLRSM</text>
</g>
<!-- Node3 -->
<g id="node3" class="node">
<title>Node3</title>
<g id="a_node3"><a xlink:href="../../dc/dd5/class_standard_model.html" target="_top" xlink:title="A model class for the Standard Model. ">
<polygon fill="none" stroke="#ff0000" points="260,-203.1685 260,-220.1685 331,-220.1685 331,-203.1685 260,-203.1685"/>
<text text-anchor="middle" x="295.5" y="-209.7685" font-family="Helvetica,sans-Serif" font-size="8.00" fill="#000000">StandardModel</text>
</a>
</g>
</g>
<!-- Node3&#45;&gt;Node2 -->
<g id="edge2" class="edge">
<title>Node3&#45;&gt;Node2</title>
<path fill="none" stroke="#191970" d="M320.2167,-198.0975C338.2486,-188.3781 363.3861,-175.2011 386,-164.6685 416.5266,-150.4506 427.3935,-153.4363 456,-135.6685 481.6794,-119.7189 507.237,-94.6054 519.8668,-81.4194"/>
<polygon fill="#191970" stroke="#191970" points="318.1118,-195.2575 310.9911,-203.1027 321.4499,-201.4103 318.1118,-195.2575"/>
</g>
<!-- Node8 -->
<g id="node6" class="node">
<title>Node8</title>
<g id="a_node6"><a xlink:href="../../dc/df3/class_e_w_s_mcache.html" target="_top" xlink:title="A class for cache variables used in computing radiative corrections to the EW precision observables...">
<polygon fill="none" stroke="#ff0000" points="496.5,-206.1685 496.5,-223.1685 559.5,-223.1685 559.5,-206.1685 496.5,-206.1685"/>
<text text-anchor="middle" x="528" y="-212.7685" font-family="Helvetica,sans-Serif" font-size="8.00" fill="#000000">EWSMcache</text>
</a>
</g>
</g>
<!-- Node3&#45;&gt;Node8 -->
<g id="edge6" class="edge">
<title>Node3&#45;&gt;Node8</title>
<path fill="none" stroke="#9a32cd" stroke-dasharray="5,2" d="M341.2081,-217.7092C355.5222,-219.3345 371.3941,-220.864 386,-221.6685 417.064,-223.3796 424.9254,-223.1756 456,-221.6685 469.1714,-221.0298 483.6506,-219.7374 496.1489,-218.435"/>
<polygon fill="#9a32cd" stroke="#9a32cd" points="341.442,-214.2126 331.101,-216.5178 340.6224,-221.1645 341.442,-214.2126"/>
<text text-anchor="middle" x="421" y="-225.2685" font-family="Helvetica,sans-Serif" font-size="8.00" fill="#000000"> SM</text>
</g>
<!-- Node4 -->
<g id="node4" class="node">
<title>Node4</title>
<g id="a_node4"><a xlink:href="../../dd/dfa/class_q_c_d.html" target="_top" xlink:title="A class for parameters related to QCD, hadrons and quarks. ">
<polygon fill="none" stroke="#ff0000" points="55.5,-246.1685 55.5,-263.1685 89.5,-263.1685 89.5,-246.1685 55.5,-246.1685"/>
<text text-anchor="middle" x="72.5" y="-252.7685" font-family="Helvetica,sans-Serif" font-size="8.00" fill="#000000">QCD</text>
</a>
</g>
</g>
<!-- Node4&#45;&gt;Node3 -->
<g id="edge3" class="edge">
<title>Node4&#45;&gt;Node3</title>
<path fill="none" stroke="#191970" d="M99.506,-249.4611C139.6915,-241.7123 215.2739,-227.1382 259.9223,-218.5288"/>
<polygon fill="#191970" stroke="#191970" points="98.7846,-246.0357 89.6282,-251.3658 100.11,-252.909 98.7846,-246.0357"/>
</g>
<!-- Node7 -->
<g id="node5" class="node">
<title>Node7</title>
<g id="a_node5"><a xlink:href="../../db/d32/class_e_w_s_m_two_fermions_l_e_p2.html" target="_top" xlink:title="A class for the form factors , &#160;and &#160;in the processes &#160;at LEP&#45;II. ">
<polygon fill="none" stroke="#ff0000" points="642,-186.1685 642,-203.1685 751,-203.1685 751,-186.1685 642,-186.1685"/>
<text text-anchor="middle" x="696.5" y="-192.7685" font-family="Helvetica,sans-Serif" font-size="8.00" fill="#000000">EWSMTwoFermionsLEP2</text>
</a>
</g>
</g>
<!-- Node7&#45;&gt;Node3 -->
<g id="edge4" class="edge">
<title>Node7&#45;&gt;Node3</title>
<path fill="none" stroke="#9a32cd" stroke-dasharray="5,2" d="M631.3728,-189.9958C615.2461,-189.0293 598.0028,-188.1573 582,-187.6685 534.0224,-186.2034 521.8929,-184.4633 474,-187.6685 424.2382,-190.9989 367.1928,-199.4958 331.2568,-205.4285"/>
<polygon fill="#9a32cd" stroke="#9a32cd" points="631.5873,-193.5157 641.7848,-190.6414 632.0206,-186.5291 631.5873,-193.5157"/>
<text text-anchor="middle" x="528" y="-190.2685" font-family="Helvetica,sans-Serif" font-size="8.00" fill="#000000"> myTwoFermionsLEP2</text>
</g>
<!-- Node8&#45;&gt;Node3 -->
<g id="edge7" class="edge">
<title>Node8&#45;&gt;Node3</title>
<path fill="none" stroke="#9a32cd" stroke-dasharray="5,2" d="M486.3789,-213.3598C476.4268,-213.0891 465.8364,-212.8358 456,-212.6685 413.0939,-211.9391 363.7279,-211.7254 331.2008,-211.6709"/>
<polygon fill="#9a32cd" stroke="#9a32cd" points="486.3654,-216.8608 496.4605,-213.6454 486.5636,-209.8636 486.3654,-216.8608"/>
<text text-anchor="middle" x="421" y="-215.2685" font-family="Helvetica,sans-Serif" font-size="8.00" fill="#000000"> myEWSMcache</text>
</g>
<!-- Node8&#45;&gt;Node7 -->
<g id="edge5" class="edge">
<title>Node8&#45;&gt;Node7</title>
<path fill="none" stroke="#9a32cd" stroke-dasharray="5,2" d="M569.9084,-209.6943C591.6223,-207.1169 618.4067,-203.9378 641.7383,-201.1685"/>
<polygon fill="#9a32cd" stroke="#9a32cd" points="569.2113,-206.2523 559.6936,-210.9067 570.0364,-213.2035 569.2113,-206.2523"/>
<text text-anchor="middle" x="612" y="-208.2685" font-family="Helvetica,sans-Serif" font-size="8.00" fill="#000000"> cache</text>
</g>
<!-- Node14 -->
<g id="node7" class="node">
<title>Node14</title>
<g id="a_node7"><a xlink:href="../../d5/d76/class_matching.html" target="_top" xlink:title="Matching\&lt; StandardModelMatching,\l StandardModel \&gt;">
<polygon fill="none" stroke="#ff0000" points="0,-200.6685 0,-226.6685 145,-226.6685 145,-200.6685 0,-200.6685"/>
<text text-anchor="start" x="8" y="-216.2685" font-family="Helvetica,sans-Serif" font-size="8.00" fill="#000000">Matching&lt; StandardModelMatching,</text>
<text text-anchor="middle" x="72.5" y="-207.2685" font-family="Helvetica,sans-Serif" font-size="8.00" fill="#000000"> StandardModel &gt;</text>
</a>
</g>
</g>
<!-- Node14&#45;&gt;Node3 -->
<g id="edge8" class="edge">
<title>Node14&#45;&gt;Node3</title>
<path fill="none" stroke="#9a32cd" stroke-dasharray="5,2" d="M155.2475,-212.9264C191.2882,-212.6032 231.6305,-212.2414 259.763,-211.9891"/>
<polygon fill="#9a32cd" stroke="#9a32cd" points="155.1781,-209.4268 145.21,-213.0164 155.241,-216.4265 155.1781,-209.4268"/>
<text text-anchor="middle" x="184" y="-215.2685" font-family="Helvetica,sans-Serif" font-size="8.00" fill="#000000"> SMM</text>
</g>
<!-- Node29 -->
<g id="node8" class="node">
<title>Node29</title>
<g id="a_node8"><a xlink:href="../../d1/d3c/classgslpp_1_1matrix.html" target="_top" xlink:title="gslpp::matrix\&lt; gslpp\l::complex \&gt;">
<polygon fill="none" stroke="#ff0000" points="28.5,-125.6685 28.5,-151.6685 116.5,-151.6685 116.5,-125.6685 28.5,-125.6685"/>
<text text-anchor="start" x="36.5" y="-141.2685" font-family="Helvetica,sans-Serif" font-size="8.00" fill="#000000">gslpp::matrix&lt; gslpp</text>
<text text-anchor="middle" x="72.5" y="-132.2685" font-family="Helvetica,sans-Serif" font-size="8.00" fill="#000000">::complex &gt;</text>
</a>
</g>
</g>
<!-- Node29&#45;&gt;Node2 -->
<g id="edge12" class="edge">
<title>Node29&#45;&gt;Node2</title>
<path fill="none" stroke="#9a32cd" stroke-dasharray="5,2" d="M126.5688,-131.0733C200.8438,-120.6033 338.5978,-101.0551 456,-83.6685 461.754,-82.8164 467.7648,-81.9154 473.7544,-81.0105"/>
<polygon fill="#9a32cd" stroke="#9a32cd" points="125.9323,-127.6283 116.5183,-132.4892 126.9088,-134.5599 125.9323,-127.6283"/>
<text text-anchor="middle" x="295.5" y="-119.2685" font-family="Helvetica,sans-Serif" font-size="8.00" fill="#000000"> U</text>
</g>
<!-- Node29&#45;&gt;Node3 -->
<g id="edge9" class="edge">
<title>Node29&#45;&gt;Node3</title>
<path fill="none" stroke="#9a32cd" stroke-dasharray="5,2" d="M126.3768,-149.8706C150.6796,-155.4875 179.5736,-162.9556 205,-171.6685 231.3257,-180.6896 260.5738,-194.3115 278.5035,-203.0987"/>
<polygon fill="#9a32cd" stroke="#9a32cd" points="127.1407,-146.455 116.6141,-147.6559 125.592,-153.2816 127.1407,-146.455"/>
<text text-anchor="middle" x="184" y="-201.2685" font-family="Helvetica,sans-Serif" font-size="8.00" fill="#000000"> Yn</text>
<text text-anchor="middle" x="184" y="-192.2685" font-family="Helvetica,sans-Serif" font-size="8.00" fill="#000000">Yd</text>
<text text-anchor="middle" x="184" y="-183.2685" font-family="Helvetica,sans-Serif" font-size="8.00" fill="#000000">Yu</text>
<text text-anchor="middle" x="184" y="-174.2685" font-family="Helvetica,sans-Serif" font-size="8.00" fill="#000000">Ye</text>
</g>
<!-- Node46 -->
<g id="node9" class="node">
<title>Node46</title>
<g id="a_node9"><a xlink:href="../../d5/d76/class_matching.html" target="_top" xlink:title="Matching\&lt; LeftRightSymmetric\lModelMatching, LeftRightSymmetric\lModel \&gt;">
<polygon fill="none" stroke="#ff0000" points="223,-50.1685 223,-85.1685 368,-85.1685 368,-50.1685 223,-50.1685"/>
<text text-anchor="start" x="231" y="-74.7685" font-family="Helvetica,sans-Serif" font-size="8.00" fill="#000000">Matching&lt; LeftRightSymmetric</text>
<text text-anchor="start" x="231" y="-65.7685" font-family="Helvetica,sans-Serif" font-size="8.00" fill="#000000">ModelMatching, LeftRightSymmetric</text>
<text text-anchor="middle" x="295.5" y="-56.7685" font-family="Helvetica,sans-Serif" font-size="8.00" fill="#000000">Model &gt;</text>
</a>
</g>
</g>
<!-- Node46&#45;&gt;Node2 -->
<g id="edge10" class="edge">
<title>Node46&#45;&gt;Node2</title>
<path fill="none" stroke="#9a32cd" stroke-dasharray="5,2" d="M378.2554,-69.4482C409.9431,-70.1297 445.261,-70.8892 473.6359,-71.4994"/>
<polygon fill="#9a32cd" stroke="#9a32cd" points="378.1811,-65.9459 368.1081,-69.23 378.0305,-72.9443 378.1811,-65.9459"/>
<text text-anchor="middle" x="421" y="-73.2685" font-family="Helvetica,sans-Serif" font-size="8.00" fill="#000000"> LRSMM</text>
</g>
<!-- Node48 -->
<g id="node10" class="node">
<title>Node48</title>
<g id="a_node10"><a xlink:href="../../d7/d10/classgslpp_1_1matrix_3_01double_01_4.html" target="_top" xlink:title="A class for constructing and defining operations on real matrices. ">
<polygon fill="none" stroke="#000000" points="22.5,-9.1685 22.5,-26.1685 122.5,-26.1685 122.5,-9.1685 22.5,-9.1685"/>
<text text-anchor="middle" x="72.5" y="-15.7685" font-family="Helvetica,sans-Serif" font-size="8.00" fill="#000000">gslpp::matrix&lt; double &gt;</text>
</a>
</g>
</g>
<!-- Node48&#45;&gt;Node1 -->
<g id="edge13" class="edge">
<title>Node48&#45;&gt;Node1</title>
<path fill="none" stroke="#9a32cd" stroke-dasharray="5,2" d="M132.7755,-17.6685C173.0113,-17.6685 224.618,-17.6685 258.8069,-17.6685"/>
<polygon fill="#9a32cd" stroke="#9a32cd" points="132.5456,-14.1686 122.5456,-17.6685 132.5455,-21.1686 132.5456,-14.1686"/>
<text text-anchor="middle" x="184" y="-20.2685" font-family="Helvetica,sans-Serif" font-size="8.00" fill="#000000"> Msqneutral</text>
</g>
</g>
</svg>
