<?xml version="1.0" encoding="UTF-8" standalone="no"?>
<!DOCTYPE svg PUBLIC "-//W3C//DTD SVG 1.1//EN"
 "http://www.w3.org/Graphics/SVG/1.1/DTD/svg11.dtd">
<!-- Generated by graphviz version 2.40.1 (20161225.0304)
 -->
<!-- Title: EvolDF2 Pages: 1 -->
<svg width="643pt" height="193pt"
 viewBox="0.00 0.00 643.00 192.50" xmlns="http://www.w3.org/2000/svg" xmlns:xlink="http://www.w3.org/1999/xlink">
<g id="graph0" class="graph" transform="scale(1 1) rotate(0) translate(4 188.5)">
<title>EvolDF2</title>
<!-- Node4 -->
<g id="node1" class="node">
<title>Node4</title>
<polygon fill="#bfbfbf" stroke="#000000" points="402,-150.5 402,-167.5 449,-167.5 449,-150.5 402,-150.5"/>
<text text-anchor="middle" x="425.5" y="-157.1" font-family="Helvetica,sans-Serif" font-size="8.00" fill="#000000">EvolDF2</text>
</g>
<!-- Node5 -->
<g id="node2" class="node">
<title>Node5</title>
<g id="a_node2"><a xlink:href="../../d9/d15/class_r_g_evolutor.html" target="_top" xlink:title="A class for the RG evolutor of the Wilson coefficients. ">
<polygon fill="none" stroke="#000000" points="224.5,-162.5 224.5,-179.5 282.5,-179.5 282.5,-162.5 224.5,-162.5"/>
<text text-anchor="middle" x="253.5" y="-169.1" font-family="Helvetica,sans-Serif" font-size="8.00" fill="#000000">RGEvolutor</text>
</a>
</g>
</g>
<!-- Node5&#45;&gt;Node4 -->
<g id="edge1" class="edge">
<title>Node5&#45;&gt;Node4</title>
<path fill="none" stroke="#191970" d="M292.656,-168.2682C326.3562,-165.917 373.8673,-162.6023 401.9939,-160.64"/>
<polygon fill="#191970" stroke="#191970" points="292.4096,-164.7768 282.6775,-168.9644 292.8968,-171.7598 292.4096,-164.7768"/>
</g>
<!-- Node6 -->
<g id="node3" class="node">
<title>Node6</title>
<g id="a_node3"><a xlink:href="../../dd/d6f/class_wilson_template.html" target="_top" xlink:title="WilsonTemplate\&lt; gslpp\l::matrix\&lt; double \&gt; \&gt;">
<polygon fill="none" stroke="#ff0000" points="22.5,-158 22.5,-184 122.5,-184 122.5,-158 22.5,-158"/>
<text text-anchor="start" x="30.5" y="-173.6" font-family="Helvetica,sans-Serif" font-size="8.00" fill="#000000">WilsonTemplate&lt; gslpp</text>
<text text-anchor="middle" x="72.5" y="-164.6" font-family="Helvetica,sans-Serif" font-size="8.00" fill="#000000">::matrix&lt; double &gt; &gt;</text>
</a>
</g>
</g>
<!-- Node6&#45;&gt;Node5 -->
<g id="edge2" class="edge">
<title>Node6&#45;&gt;Node5</title>
<path fill="none" stroke="#191970" d="M133.1416,-171C163.9448,-171 199.9454,-171 224.493,-171"/>
<polygon fill="#191970" stroke="#191970" points="132.9186,-167.5001 122.9186,-171 132.9186,-174.5001 132.9186,-167.5001"/>
</g>
<!-- Node10 -->
<g id="node4" class="node">
<title>Node10</title>
<g id="a_node4"><a xlink:href="../../dc/dd5/class_standard_model.html" target="_top" xlink:title="A model class for the Standard Model. ">
<polygon fill="none" stroke="#ff0000" points="218,-75.5 218,-92.5 289,-92.5 289,-75.5 218,-75.5"/>
<text text-anchor="middle" x="253.5" y="-82.1" font-family="Helvetica,sans-Serif" font-size="8.00" fill="#000000">StandardModel</text>
</a>
</g>
</g>
<!-- Node10&#45;&gt;Node4 -->
<g id="edge3" class="edge">
<title>Node10&#45;&gt;Node4</title>
<path fill="none" stroke="#9a32cd" stroke-dasharray="5,2" d="M282.4816,-96.6373C317.6024,-111.9516 375.8143,-137.3347 405.9995,-150.4969"/>
<polygon fill="#9a32cd" stroke="#9a32cd" points="283.796,-93.3923 273.2306,-92.6035 280.9981,-99.8088 283.796,-93.3923"/>
<text text-anchor="middle" x="337" y="-134.6" font-family="Helvetica,sans-Serif" font-size="8.00" fill="#000000"> model</text>
</g>
<!-- Node15 -->
<g id="node7" class="node">
<title>Node15</title>
<g id="a_node7"><a xlink:href="../../dc/df3/class_e_w_s_mcache.html" target="_top" xlink:title="A class for cache variables used in computing radiative corrections to the EW precision observables...">
<polygon fill="none" stroke="#ff0000" points="394,-77.5 394,-94.5 457,-94.5 457,-77.5 394,-77.5"/>
<text text-anchor="middle" x="425.5" y="-84.1" font-family="Helvetica,sans-Serif" font-size="8.00" fill="#000000">EWSMcache</text>
</a>
</g>
</g>
<!-- Node10&#45;&gt;Node15 -->
<g id="edge7" class="edge">
<title>Node10&#45;&gt;Node15</title>
<path fill="none" stroke="#9a32cd" stroke-dasharray="5,2" d="M299.2203,-92.2084C301.847,-92.5187 304.454,-92.7873 307,-93 333.5741,-95.2196 340.3806,-94.587 367,-93 375.7811,-92.4765 385.2643,-91.5148 393.987,-90.4683"/>
<polygon fill="#9a32cd" stroke="#9a32cd" points="299.4595,-88.7089 289.0801,-90.8346 298.5197,-95.6455 299.4595,-88.7089"/>
<text text-anchor="middle" x="337" y="-96.6" font-family="Helvetica,sans-Serif" font-size="8.00" fill="#000000"> SM</text>
</g>
<!-- Node11 -->
<g id="node5" class="node">
<title>Node11</title>
<g id="a_node5"><a xlink:href="../../dd/dfa/class_q_c_d.html" target="_top" xlink:title="A class for parameters related to QCD, hadrons and quarks. ">
<polygon fill="none" stroke="#ff0000" points="55.5,-118.5 55.5,-135.5 89.5,-135.5 89.5,-118.5 55.5,-118.5"/>
<text text-anchor="middle" x="72.5" y="-125.1" font-family="Helvetica,sans-Serif" font-size="8.00" fill="#000000">QCD</text>
</a>
</g>
</g>
<!-- Node11&#45;&gt;Node10 -->
<g id="edge4" class="edge">
<title>Node11&#45;&gt;Node10</title>
<path fill="none" stroke="#191970" d="M99.6975,-121.0807C125.5521,-115.3907 165.5019,-106.4348 200,-98 206.9947,-96.2898 214.4828,-94.3801 221.575,-92.5345"/>
<polygon fill="#191970" stroke="#191970" points="98.8831,-117.6761 89.8648,-123.2367 100.3824,-124.5136 98.8831,-117.6761"/>
</g>
<!-- Node14 -->
<g id="node6" class="node">
<title>Node14</title>
<g id="a_node6"><a xlink:href="../../db/d32/class_e_w_s_m_two_fermions_l_e_p2.html" target="_top" xlink:title="A class for the form factors , &#160;and &#160;in the processes &#160;at LEP&#45;II. ">
<polygon fill="none" stroke="#ff0000" points="526,-57.5 526,-74.5 635,-74.5 635,-57.5 526,-57.5"/>
<text text-anchor="middle" x="580.5" y="-64.1" font-family="Helvetica,sans-Serif" font-size="8.00" fill="#000000">EWSMTwoFermionsLEP2</text>
</a>
</g>
</g>
<!-- Node14&#45;&gt;Node10 -->
<g id="edge5" class="edge">
<title>Node14&#45;&gt;Node10</title>
<path fill="none" stroke="#9a32cd" stroke-dasharray="5,2" d="M515.3728,-61.3272C499.2461,-60.3608 482.0028,-59.4887 466,-59 430.0168,-57.9011 420.8413,-55.6233 385,-59 352.0307,-62.1061 315.0204,-69.5005 288.6834,-75.4466"/>
<polygon fill="#9a32cd" stroke="#9a32cd" points="515.5873,-64.8472 525.7848,-61.9729 516.0206,-57.8606 515.5873,-64.8472"/>
<text text-anchor="middle" x="425.5" y="-61.6" font-family="Helvetica,sans-Serif" font-size="8.00" fill="#000000"> myTwoFermionsLEP2</text>
</g>
<!-- Node15&#45;&gt;Node10 -->
<g id="edge8" class="edge">
<title>Node15&#45;&gt;Node10</title>
<path fill="none" stroke="#9a32cd" stroke-dasharray="5,2" d="M383.8801,-84.4022C378.2083,-84.2356 372.4614,-84.0933 367,-84 340.8949,-83.5539 311.4074,-83.5696 289.0321,-83.6885"/>
<polygon fill="#9a32cd" stroke="#9a32cd" points="383.8237,-87.9021 393.9303,-84.723 384.0471,-80.9057 383.8237,-87.9021"/>
<text text-anchor="middle" x="337" y="-86.6" font-family="Helvetica,sans-Serif" font-size="8.00" fill="#000000"> myEWSMcache</text>
</g>
<!-- Node15&#45;&gt;Node14 -->
<g id="edge6" class="edge">
<title>Node15&#45;&gt;Node14</title>
<path fill="none" stroke="#9a32cd" stroke-dasharray="5,2" d="M467.1681,-80.6235C485.221,-78.2941 506.6,-75.5355 525.8979,-73.0454"/>
<polygon fill="#9a32cd" stroke="#9a32cd" points="466.7104,-77.1534 457.2406,-81.9044 467.6063,-84.0959 466.7104,-77.1534"/>
<text text-anchor="middle" x="496" y="-80.6" font-family="Helvetica,sans-Serif" font-size="8.00" fill="#000000"> cache</text>
</g>
<!-- Node21 -->
<g id="node8" class="node">
<title>Node21</title>
<g id="a_node8"><a xlink:href="../../d5/d76/class_matching.html" target="_top" xlink:title="Matching\&lt; StandardModelMatching,\l StandardModel \&gt;">
<polygon fill="none" stroke="#ff0000" points="0,-73 0,-99 145,-99 145,-73 0,-73"/>
<text text-anchor="start" x="8" y="-88.6" font-family="Helvetica,sans-Serif" font-size="8.00" fill="#000000">Matching&lt; StandardModelMatching,</text>
<text text-anchor="middle" x="72.5" y="-79.6" font-family="Helvetica,sans-Serif" font-size="8.00" fill="#000000"> StandardModel &gt;</text>
</a>
</g>
</g>
<!-- Node21&#45;&gt;Node10 -->
<g id="edge9" class="edge">
<title>Node21&#45;&gt;Node10</title>
<path fill="none" stroke="#9a32cd" stroke-dasharray="5,2" d="M155.1117,-85.0872C177.0894,-84.8443 199.6922,-84.5946 217.6828,-84.3958"/>
<polygon fill="#9a32cd" stroke="#9a32cd" points="155.0374,-81.5877 145.0767,-85.198 155.1148,-88.5872 155.0374,-81.5877"/>
<text text-anchor="middle" x="181.5" y="-87.6" font-family="Helvetica,sans-Serif" font-size="8.00" fill="#000000"> SMM</text>
</g>
<!-- Node37 -->
<g id="node9" class="node">
<title>Node37</title>
<g id="a_node9"><a xlink:href="../../d9/db9/class_c_k_m.html" target="_top" xlink:title="A class for the CKM matrix elements. ">
<polygon fill="none" stroke="#ff0000" points="55.5,-36.5 55.5,-53.5 89.5,-53.5 89.5,-36.5 55.5,-36.5"/>
<text text-anchor="middle" x="72.5" y="-43.1" font-family="Helvetica,sans-Serif" font-size="8.00" fill="#000000">CKM</text>
</a>
</g>
</g>
<!-- Node37&#45;&gt;Node10 -->
<g id="edge10" class="edge">
<title>Node37&#45;&gt;Node10</title>
<path fill="none" stroke="#9a32cd" stroke-dasharray="5,2" d="M99.7001,-50.2423C125.5565,-55.2975 165.5075,-63.2952 200,-71 206.2501,-72.3961 212.8933,-73.9519 219.2956,-75.4882"/>
<polygon fill="#9a32cd" stroke="#9a32cd" points="100.351,-46.8033 89.8666,-48.3288 99.0139,-53.6745 100.351,-46.8033"/>
<text text-anchor="middle" x="181.5" y="-73.6" font-family="Helvetica,sans-Serif" font-size="8.00" fill="#000000"> myCKM</text>
</g>
<!-- Node38 -->
<g id="node10" class="node">
<title>Node38</title>
<g id="a_node10"><a xlink:href="../../d5/d59/class_p_m_n_s.html" target="_top" xlink:title="A class for the PMNS matrix elements. ">
<polygon fill="none" stroke="#ff0000" points="52.5,-.5 52.5,-17.5 92.5,-17.5 92.5,-.5 52.5,-.5"/>
<text text-anchor="middle" x="72.5" y="-7.1" font-family="Helvetica,sans-Serif" font-size="8.00" fill="#000000">PMNS</text>
</a>
</g>
</g>
<!-- Node38&#45;&gt;Node10 -->
<g id="edge11" class="edge">
<title>Node38&#45;&gt;Node10</title>
<path fill="none" stroke="#9a32cd" stroke-dasharray="5,2" d="M102.6851,-15.4065C115.817,-18.472 131.3022,-22.465 145,-27 170.153,-35.3276 176.5119,-37.7389 200,-50 214.6339,-57.6391 230.4864,-67.9991 241.1054,-75.2688"/>
<polygon fill="#9a32cd" stroke="#9a32cd" points="103.2632,-11.9489 92.7372,-13.1542 101.7175,-18.7761 103.2632,-11.9489"/>
<text text-anchor="middle" x="181.5" y="-52.6" font-family="Helvetica,sans-Serif" font-size="8.00" fill="#000000"> myPMNS</text>
</g>
</g>
</svg>
