<?xml version="1.0" encoding="UTF-8" standalone="no"?>
<!DOCTYPE svg PUBLIC "-//W3C//DTD SVG 1.1//EN"
 "http://www.w3.org/Graphics/SVG/1.1/DTD/svg11.dtd">
<!-- Generated by graphviz version 2.40.1 (20161225.0304)
 -->
<!-- Title: RunnerTHDMW.cpp Pages: 1 -->
<svg width="373pt" height="296pt"
 viewBox="0.00 0.00 372.66 296.00" xmlns="http://www.w3.org/2000/svg" xmlns:xlink="http://www.w3.org/1999/xlink">
<g id="graph0" class="graph" transform="scale(1 1) rotate(0) translate(4 292)">
<title>RunnerTHDMW.cpp</title>
<!-- Node0 -->
<g id="node1" class="node">
<title>Node0</title>
<polygon fill="#bfbfbf" stroke="#000000" points="147.1564,-270.5 147.1564,-287.5 236.1564,-287.5 236.1564,-270.5 147.1564,-270.5"/>
<text text-anchor="middle" x="191.6564" y="-277.1" font-family="Helvetica,sans-Serif" font-size="8.00" fill="#000000">RunnerTHDMW.cpp</text>
</g>
<!-- Node1 -->
<g id="node2" class="node">
<title>Node1</title>
<g id="a_node2"><a xlink:href="../../d6/d28/_runner_t_h_d_m_w_8h.html" target="_top" xlink:title="RunnerTHDMW.h">
<polygon fill="none" stroke="#000000" points="14.6564,-216.5 14.6564,-233.5 94.6564,-233.5 94.6564,-216.5 14.6564,-216.5"/>
<text text-anchor="middle" x="54.6564" y="-223.1" font-family="Helvetica,sans-Serif" font-size="8.00" fill="#000000">RunnerTHDMW.h</text>
</a>
</g>
</g>
<!-- Node0&#45;&gt;Node1 -->
<g id="edge1" class="edge">
<title>Node0&#45;&gt;Node1</title>
<path fill="none" stroke="#191970" d="M169.9484,-270.4435C147.3016,-261.5171 111.5843,-247.4387 85.9046,-237.3168"/>
<polygon fill="#191970" stroke="#191970" points="86.8498,-233.9273 76.2629,-233.5164 84.2828,-240.4397 86.8498,-233.9273"/>
</g>
<!-- Node55 -->
<g id="node8" class="node">
<title>Node55</title>
<polygon fill="none" stroke="#bfbfbf" points="113.1564,-216.5 113.1564,-233.5 182.1564,-233.5 182.1564,-216.5 113.1564,-216.5"/>
<text text-anchor="middle" x="147.6564" y="-223.1" font-family="Helvetica,sans-Serif" font-size="8.00" fill="#000000">gsl/gsl_errno.h</text>
</g>
<!-- Node0&#45;&gt;Node55 -->
<g id="edge8" class="edge">
<title>Node0&#45;&gt;Node55</title>
<path fill="none" stroke="#191970" d="M184.3907,-270.083C178.1116,-262.3768 168.8688,-251.0333 161.2256,-241.6531"/>
<polygon fill="#191970" stroke="#191970" points="163.817,-239.2926 154.7869,-233.7511 158.3904,-243.7143 163.817,-239.2926"/>
</g>
<!-- Node56 -->
<g id="node9" class="node">
<title>Node56</title>
<polygon fill="none" stroke="#bfbfbf" points="200.6564,-216.5 200.6564,-233.5 272.6564,-233.5 272.6564,-216.5 200.6564,-216.5"/>
<text text-anchor="middle" x="236.6564" y="-223.1" font-family="Helvetica,sans-Serif" font-size="8.00" fill="#000000">gsl/gsl_matrix.h</text>
</g>
<!-- Node0&#45;&gt;Node56 -->
<g id="edge9" class="edge">
<title>Node0&#45;&gt;Node56</title>
<path fill="none" stroke="#191970" d="M199.0873,-270.083C205.5091,-262.3768 214.962,-251.0333 222.7789,-241.6531"/>
<polygon fill="#191970" stroke="#191970" points="225.6508,-243.674 229.3639,-233.7511 220.2732,-239.1927 225.6508,-243.674"/>
</g>
<!-- Node57 -->
<g id="node10" class="node">
<title>Node57</title>
<polygon fill="none" stroke="#bfbfbf" points="290.6564,-216.5 290.6564,-233.5 364.6564,-233.5 364.6564,-216.5 290.6564,-216.5"/>
<text text-anchor="middle" x="327.6564" y="-223.1" font-family="Helvetica,sans-Serif" font-size="8.00" fill="#000000">gsl/gsl_odeiv2.h</text>
</g>
<!-- Node0&#45;&gt;Node57 -->
<g id="edge10" class="edge">
<title>Node0&#45;&gt;Node57</title>
<path fill="none" stroke="#191970" d="M213.206,-270.4435C235.6874,-261.5171 271.1441,-247.4387 296.6363,-237.3168"/>
<polygon fill="#191970" stroke="#191970" points="298.2051,-240.4598 306.2076,-233.5164 295.6218,-233.9539 298.2051,-240.4598"/>
</g>
<!-- Node2 -->
<g id="node3" class="node">
<title>Node2</title>
<g id="a_node3"><a xlink:href="../../d7/dfb/_t_h_d_m_w_8h.html" target="_top" xlink:title="THDMW.h">
<polygon fill="none" stroke="#000000" points="27.6564,-162.5 27.6564,-179.5 81.6564,-179.5 81.6564,-162.5 27.6564,-162.5"/>
<text text-anchor="middle" x="54.6564" y="-169.1" font-family="Helvetica,sans-Serif" font-size="8.00" fill="#000000">THDMW.h</text>
</a>
</g>
</g>
<!-- Node1&#45;&gt;Node2 -->
<g id="edge2" class="edge">
<title>Node1&#45;&gt;Node2</title>
<path fill="none" stroke="#191970" d="M54.6564,-216.083C54.6564,-209.0059 54.6564,-198.8611 54.6564,-189.9865"/>
<polygon fill="#191970" stroke="#191970" points="58.1565,-189.751 54.6564,-179.7511 51.1565,-189.7511 58.1565,-189.751"/>
</g>
<!-- Node3 -->
<g id="node4" class="node">
<title>Node3</title>
<g id="a_node4"><a xlink:href="../../d6/d0a/_standard_model_8h.html" target="_top" xlink:title="StandardModel.h">
<polygon fill="none" stroke="#ff0000" points="24.1564,-54.5 24.1564,-71.5 101.1564,-71.5 101.1564,-54.5 24.1564,-54.5"/>
<text text-anchor="middle" x="62.6564" y="-61.1" font-family="Helvetica,sans-Serif" font-size="8.00" fill="#000000">StandardModel.h</text>
</a>
</g>
</g>
<!-- Node2&#45;&gt;Node3 -->
<g id="edge3" class="edge">
<title>Node2&#45;&gt;Node3</title>
<path fill="none" stroke="#191970" d="M38.3423,-162.3473C19.2889,-151.0006 -8.3159,-129.9447 2.6564,-108 9.3848,-94.5432 22.2627,-84.0665 34.3682,-76.6212"/>
<polygon fill="#191970" stroke="#191970" points="36.3896,-79.4985 43.3601,-71.5195 32.9353,-73.4101 36.3896,-79.4985"/>
</g>
<!-- Node51 -->
<g id="node6" class="node">
<title>Node51</title>
<g id="a_node6"><a xlink:href="../../d4/d00/_t_h_d_m_w_matching_8h.html" target="_top" xlink:title="THDMWMatching.h">
<polygon fill="none" stroke="#ff0000" points="11.6564,-108.5 11.6564,-125.5 97.6564,-125.5 97.6564,-108.5 11.6564,-108.5"/>
<text text-anchor="middle" x="54.6564" y="-115.1" font-family="Helvetica,sans-Serif" font-size="8.00" fill="#000000">THDMWMatching.h</text>
</a>
</g>
</g>
<!-- Node2&#45;&gt;Node51 -->
<g id="edge5" class="edge">
<title>Node2&#45;&gt;Node51</title>
<path fill="none" stroke="#191970" d="M54.6564,-162.083C54.6564,-155.0059 54.6564,-144.8611 54.6564,-135.9865"/>
<polygon fill="#191970" stroke="#191970" points="58.1565,-135.751 54.6564,-125.7511 51.1565,-135.7511 58.1565,-135.751"/>
</g>
<!-- Node54 -->
<g id="node7" class="node">
<title>Node54</title>
<g id="a_node7"><a xlink:href="../../d2/de8/_n_pbase_8h.html" target="_top" xlink:title="NPbase.h">
<polygon fill="none" stroke="#000000" points="115.6564,-108.5 115.6564,-125.5 167.6564,-125.5 167.6564,-108.5 115.6564,-108.5"/>
<text text-anchor="middle" x="141.6564" y="-115.1" font-family="Helvetica,sans-Serif" font-size="8.00" fill="#000000">NPbase.h</text>
</a>
</g>
</g>
<!-- Node2&#45;&gt;Node54 -->
<g id="edge6" class="edge">
<title>Node2&#45;&gt;Node54</title>
<path fill="none" stroke="#191970" d="M68.6345,-162.324C82.206,-153.9002 103.0366,-140.9709 118.9814,-131.0741"/>
<polygon fill="#191970" stroke="#191970" points="121.0624,-133.9019 127.7131,-125.6545 117.3709,-127.9544 121.0624,-133.9019"/>
</g>
<!-- Node4 -->
<g id="node5" class="node">
<title>Node4</title>
<g id="a_node5"><a xlink:href="../../d2/d65/_flavour_8h.html" target="_top" xlink:title="Flavour.h">
<polygon fill="none" stroke="#ff0000" points="37.6564,-.5 37.6564,-17.5 87.6564,-17.5 87.6564,-.5 37.6564,-.5"/>
<text text-anchor="middle" x="62.6564" y="-7.1" font-family="Helvetica,sans-Serif" font-size="8.00" fill="#000000">Flavour.h</text>
</a>
</g>
</g>
<!-- Node3&#45;&gt;Node4 -->
<g id="edge4" class="edge">
<title>Node3&#45;&gt;Node4</title>
<path fill="none" stroke="#191970" d="M62.6564,-54.083C62.6564,-47.0059 62.6564,-36.8611 62.6564,-27.9865"/>
<polygon fill="#191970" stroke="#191970" points="66.1565,-27.751 62.6564,-17.7511 59.1565,-27.7511 66.1565,-27.751"/>
</g>
<!-- Node54&#45;&gt;Node3 -->
<g id="edge7" class="edge">
<title>Node54&#45;&gt;Node3</title>
<path fill="none" stroke="#191970" d="M128.9637,-108.324C116.7553,-99.979 98.078,-87.2122 83.6535,-77.3524"/>
<polygon fill="#191970" stroke="#191970" points="85.5484,-74.4082 75.3176,-71.6545 81.5982,-80.1871 85.5484,-74.4082"/>
</g>
</g>
</svg>
