<?xml version="1.0" encoding="UTF-8" standalone="no"?>
<!DOCTYPE svg PUBLIC "-//W3C//DTD SVG 1.1//EN"
 "http://www.w3.org/Graphics/SVG/1.1/DTD/svg11.dtd">
<!-- Generated by graphviz version 2.40.1 (20161225.0304)
 -->
<!-- Title: LHPC::SLHA::InterpreterClass::IndexedInterpreter&lt; ValueClass &gt; Pages: 1 -->
<svg width="1414pt" height="124pt"
 viewBox="0.00 0.00 1414.00 124.00" xmlns="http://www.w3.org/2000/svg" xmlns:xlink="http://www.w3.org/1999/xlink">
<g id="graph0" class="graph" transform="scale(1 1) rotate(0) translate(4 120)">
<title>LHPC::SLHA::InterpreterClass::IndexedInterpreter&lt; ValueClass &gt;</title>
<!-- Node14 -->
<g id="node1" class="node">
<title>Node14</title>
<polygon fill="#bfbfbf" stroke="#000000" points="1265,-33 1265,-59 1406,-59 1406,-33 1265,-33"/>
<text text-anchor="start" x="1273" y="-48.6" font-family="Helvetica,sans-Serif" font-size="8.00" fill="#000000">LHPC::SLHA::InterpreterClass</text>
<text text-anchor="middle" x="1335.5" y="-39.6" font-family="Helvetica,sans-Serif" font-size="8.00" fill="#000000">::IndexedInterpreter&lt; ValueClass &gt;</text>
</g>
<!-- Node15 -->
<g id="node2" class="node">
<title>Node15</title>
<g id="a_node2"><a xlink:href="../../d6/d0a/class_l_h_p_c_1_1_s_l_h_a_1_1_interpreter_class_1_1_interpreter_template.html" target="_top" xlink:title="LHPC::SLHA::InterpreterClass\l::InterpreterTemplate\&lt; ValueClass \&gt;">
<polygon fill="none" stroke="#000000" points="1083,-33 1083,-59 1228,-59 1228,-33 1083,-33"/>
<text text-anchor="start" x="1091" y="-48.6" font-family="Helvetica,sans-Serif" font-size="8.00" fill="#000000">LHPC::SLHA::InterpreterClass</text>
<text text-anchor="middle" x="1155.5" y="-39.6" font-family="Helvetica,sans-Serif" font-size="8.00" fill="#000000">::InterpreterTemplate&lt; ValueClass &gt;</text>
</a>
</g>
</g>
<!-- Node15&#45;&gt;Node14 -->
<g id="edge1" class="edge">
<title>Node15&#45;&gt;Node14</title>
<path fill="none" stroke="#191970" d="M1238.1974,-46C1247.1103,-46 1256.1193,-46 1264.8718,-46"/>
<polygon fill="#191970" stroke="#191970" points="1238.1941,-42.5001 1228.194,-46 1238.194,-49.5001 1238.1941,-42.5001"/>
</g>
<!-- Node16 -->
<g id="node3" class="node">
<title>Node16</title>
<g id="a_node3"><a xlink:href="../../d2/db5/class_l_h_p_c_1_1_s_l_h_a_1_1_block_interpreter.html" target="_top" xlink:title="LHPC::SLHA::BlockInterpreter">
<polygon fill="none" stroke="#000000" points="608,-48.5 608,-65.5 732,-65.5 732,-48.5 608,-48.5"/>
<text text-anchor="middle" x="670" y="-55.1" font-family="Helvetica,sans-Serif" font-size="8.00" fill="#000000">LHPC::SLHA::BlockInterpreter</text>
</a>
</g>
</g>
<!-- Node16&#45;&gt;Node15 -->
<g id="edge2" class="edge">
<title>Node16&#45;&gt;Node15</title>
<path fill="none" stroke="#191970" d="M742.51,-55.3571C834.2343,-53.2789 991.2597,-49.7212 1082.9859,-47.643"/>
<polygon fill="#191970" stroke="#191970" points="742.3948,-51.8587 732.4767,-55.5845 742.5535,-58.857 742.3948,-51.8587"/>
</g>
<!-- Node23 -->
<g id="node9" class="node">
<title>Node23</title>
<g id="a_node9"><a xlink:href="../../d6/d0a/class_l_h_p_c_1_1_s_l_h_a_1_1_interpreter_class_1_1_interpreter_template.html" target="_top" xlink:title="LHPC::SLHA::InterpreterClass\l::InterpreterTemplate\&lt; ValueType \&gt;">
<polygon fill="none" stroke="#000000" points="836,-75 836,-101 979,-101 979,-75 836,-75"/>
<text text-anchor="start" x="844" y="-90.6" font-family="Helvetica,sans-Serif" font-size="8.00" fill="#000000">LHPC::SLHA::InterpreterClass</text>
<text text-anchor="middle" x="907.5" y="-81.6" font-family="Helvetica,sans-Serif" font-size="8.00" fill="#000000">::InterpreterTemplate&lt; ValueType &gt;</text>
</a>
</g>
</g>
<!-- Node16&#45;&gt;Node23 -->
<g id="edge9" class="edge">
<title>Node16&#45;&gt;Node23</title>
<path fill="none" stroke="#191970" d="M742.356,-66.4444C771.9601,-70.3085 806.1288,-74.7684 835.6777,-78.6253"/>
<polygon fill="#191970" stroke="#191970" points="742.459,-62.9282 732.0901,-65.1044 741.553,-69.8693 742.459,-62.9282"/>
</g>
<!-- Node17 -->
<g id="node4" class="node">
<title>Node17</title>
<g id="a_node4"><a xlink:href="../../d2/d43/class_b_o_l_1_1_string_parser.html" target="_top" xlink:title="BOL::StringParser">
<polygon fill="none" stroke="#000000" points="410,-68.5 410,-85.5 491,-85.5 491,-68.5 410,-68.5"/>
<text text-anchor="middle" x="450.5" y="-75.1" font-family="Helvetica,sans-Serif" font-size="8.00" fill="#000000">BOL::StringParser</text>
</a>
</g>
</g>
<!-- Node17&#45;&gt;Node16 -->
<g id="edge3" class="edge">
<title>Node17&#45;&gt;Node16</title>
<path fill="none" stroke="#9a32cd" stroke-dasharray="5,2" d="M501.3844,-72.3636C533.0824,-69.4754 574.0848,-65.7394 607.7193,-62.6748"/>
<polygon fill="#9a32cd" stroke="#9a32cd" points="500.6566,-68.9153 491.0155,-73.3084 501.2919,-75.8865 500.6566,-68.9153"/>
<text text-anchor="middle" x="556" y="-89.6" font-family="Helvetica,sans-Serif" font-size="8.00" fill="#000000"> slhaIntHelper</text>
<text text-anchor="middle" x="556" y="-80.6" font-family="Helvetica,sans-Serif" font-size="8.00" fill="#000000">slhaDoubleMaker</text>
<text text-anchor="middle" x="556" y="-71.6" font-family="Helvetica,sans-Serif" font-size="8.00" fill="#000000">particleCodeMaker</text>
</g>
<!-- Node18 -->
<g id="node5" class="node">
<title>Node18</title>
<g id="a_node5"><a xlink:href="../../dc/d7c/class_l_h_p_c_1_1_s_l_h_a_1_1_block_class_1_1_base_string_block.html" target="_top" xlink:title="LHPC::SLHA::BlockClass\l::BaseStringBlock">
<polygon fill="none" stroke="#000000" points="397,-23 397,-49 504,-49 504,-23 397,-23"/>
<text text-anchor="start" x="405" y="-38.6" font-family="Helvetica,sans-Serif" font-size="8.00" fill="#000000">LHPC::SLHA::BlockClass</text>
<text text-anchor="middle" x="450.5" y="-29.6" font-family="Helvetica,sans-Serif" font-size="8.00" fill="#000000">::BaseStringBlock</text>
</a>
</g>
</g>
<!-- Node18&#45;&gt;Node16 -->
<g id="edge4" class="edge">
<title>Node18&#45;&gt;Node16</title>
<path fill="none" stroke="#9a32cd" stroke-dasharray="5,2" d="M514.3751,-42.1111C543.839,-44.9299 578.6822,-48.2634 607.9219,-51.0609"/>
<polygon fill="#9a32cd" stroke="#9a32cd" points="514.4836,-38.6055 504.1957,-41.1372 513.8169,-45.5737 514.4836,-38.6055"/>
<text text-anchor="middle" x="556" y="-50.6" font-family="Helvetica,sans-Serif" font-size="8.00" fill="#000000"> currentStringBlock</text>
</g>
<!-- Node19 -->
<g id="node6" class="node">
<title>Node19</title>
<g id="a_node6"><a xlink:href="../../de/da2/class_b_o_l_1_1_vectorlike_array.html" target="_top" xlink:title="BOL::VectorlikeArray\l\&lt; std::pair\&lt; std::string,\l std::string \&gt; \&gt;">
<polygon fill="none" stroke="#000000" points="209,-18.5 209,-53.5 305,-53.5 305,-18.5 209,-18.5"/>
<text text-anchor="start" x="217" y="-43.1" font-family="Helvetica,sans-Serif" font-size="8.00" fill="#000000">BOL::VectorlikeArray</text>
<text text-anchor="start" x="217" y="-34.1" font-family="Helvetica,sans-Serif" font-size="8.00" fill="#000000">&lt; std::pair&lt; std::string,</text>
<text text-anchor="middle" x="257" y="-25.1" font-family="Helvetica,sans-Serif" font-size="8.00" fill="#000000"> std::string &gt; &gt;</text>
</a>
</g>
</g>
<!-- Node19&#45;&gt;Node18 -->
<g id="edge5" class="edge">
<title>Node19&#45;&gt;Node18</title>
<path fill="none" stroke="#9a32cd" stroke-dasharray="5,2" d="M315.3624,-36C341.19,-36 371.3737,-36 396.6557,-36"/>
<polygon fill="#9a32cd" stroke="#9a32cd" points="315.3291,-32.5001 305.3291,-36 315.329,-39.5001 315.3291,-32.5001"/>
<text text-anchor="middle" x="351" y="-38.6" font-family="Helvetica,sans-Serif" font-size="8.00" fill="#000000"> stringPairArray</text>
</g>
<!-- Node20 -->
<g id="node7" class="node">
<title>Node20</title>
<g id="a_node7"><a xlink:href="../../de/da2/class_b_o_l_1_1_vectorlike_array.html" target="_top" xlink:title="BOL::VectorlikeArray\l\&lt; StoredClass \&gt;">
<polygon fill="none" stroke="#ff0000" points="0,-23 0,-49 91,-49 91,-23 0,-23"/>
<text text-anchor="start" x="8" y="-38.6" font-family="Helvetica,sans-Serif" font-size="8.00" fill="#000000">BOL::VectorlikeArray</text>
<text text-anchor="middle" x="45.5" y="-29.6" font-family="Helvetica,sans-Serif" font-size="8.00" fill="#000000">&lt; StoredClass &gt;</text>
</a>
</g>
</g>
<!-- Node20&#45;&gt;Node19 -->
<g id="edge6" class="edge">
<title>Node20&#45;&gt;Node19</title>
<path fill="none" stroke="#ffa500" stroke-dasharray="5,2" d="M101.2207,-36C134.695,-36 176.8602,-36 208.8782,-36"/>
<polygon fill="#ffa500" stroke="#ffa500" points="101.132,-32.5001 91.132,-36 101.1319,-39.5001 101.132,-32.5001"/>
<text text-anchor="start" x="109" y="-47.6" font-family="Helvetica,sans-Serif" font-size="8.00" fill="#000000"> &lt; std::pair&lt; std::string,</text>
<text text-anchor="middle" x="150" y="-38.6" font-family="Helvetica,sans-Serif" font-size="8.00" fill="#000000"> std::string &gt; &gt;</text>
</g>
<!-- Node22 -->
<g id="node8" class="node">
<title>Node22</title>
<polygon fill="none" stroke="#bfbfbf" points="879,-.5 879,-17.5 936,-17.5 936,-.5 879,-.5"/>
<text text-anchor="middle" x="907.5" y="-7.1" font-family="Helvetica,sans-Serif" font-size="8.00" fill="#000000">ValueClass</text>
</g>
<!-- Node22&#45;&gt;Node15 -->
<g id="edge7" class="edge">
<title>Node22&#45;&gt;Node15</title>
<path fill="none" stroke="#9a32cd" stroke-dasharray="5,2" d="M946.5393,-6.9296C978.6323,-6.0162 1025.1426,-6.508 1065,-14 1085.9642,-17.9407 1108.5892,-25.9407 1125.9731,-32.9555"/>
<polygon fill="#9a32cd" stroke="#9a32cd" points="946.1119,-3.4421 936.2387,-7.2851 946.3535,-10.438 946.1119,-3.4421"/>
<text text-anchor="middle" x="1031" y="-25.6" font-family="Helvetica,sans-Serif" font-size="8.00" fill="#000000"> defaultUnsetValue</text>
<text text-anchor="middle" x="1031" y="-16.6" font-family="Helvetica,sans-Serif" font-size="8.00" fill="#000000">valueFromString</text>
</g>
<!-- Node23&#45;&gt;Node15 -->
<g id="edge8" class="edge">
<title>Node23&#45;&gt;Node15</title>
<path fill="none" stroke="#ffa500" stroke-dasharray="5,2" d="M989.2951,-74.1476C1019.4314,-69.0439 1053.3441,-63.3006 1082.6396,-58.3393"/>
<polygon fill="#ffa500" stroke="#ffa500" points="988.507,-70.7311 979.2319,-75.8519 989.6759,-77.6329 988.507,-70.7311"/>
<text text-anchor="middle" x="1031" y="-73.6" font-family="Helvetica,sans-Serif" font-size="8.00" fill="#000000"> &lt; ValueClass &gt;</text>
</g>
<!-- Node24 -->
<g id="node10" class="node">
<title>Node24</title>
<polygon fill="none" stroke="#bfbfbf" points="642.5,-95.5 642.5,-112.5 697.5,-112.5 697.5,-95.5 642.5,-95.5"/>
<text text-anchor="middle" x="670" y="-102.1" font-family="Helvetica,sans-Serif" font-size="8.00" fill="#000000">ValueType</text>
</g>
<!-- Node24&#45;&gt;Node23 -->
<g id="edge10" class="edge">
<title>Node24&#45;&gt;Node23</title>
<path fill="none" stroke="#9a32cd" stroke-dasharray="5,2" d="M707.7862,-101.4544C742.1373,-99.1402 793.7434,-95.6636 835.8911,-92.8242"/>
<polygon fill="#9a32cd" stroke="#9a32cd" points="707.4512,-97.9689 697.7091,-102.1333 707.9218,-104.9531 707.4512,-97.9689"/>
<text text-anchor="middle" x="784" y="-109.6" font-family="Helvetica,sans-Serif" font-size="8.00" fill="#000000"> defaultUnsetValue</text>
<text text-anchor="middle" x="784" y="-100.6" font-family="Helvetica,sans-Serif" font-size="8.00" fill="#000000">valueFromString</text>
</g>
</g>
</svg>
