<?xml version="1.0" encoding="UTF-8" standalone="no"?>
<!DOCTYPE svg PUBLIC "-//W3C//DTD SVG 1.1//EN"
 "http://www.w3.org/Graphics/SVG/1.1/DTD/svg11.dtd">
<!-- Generated by graphviz version 2.38.0 (20140413.2041)
 -->
<!-- Title: AmpDB2.h Pages: 1 -->
<svg width="390pt" height="134pt"
 viewBox="0.00 0.00 389.50 134.00" xmlns="http://www.w3.org/2000/svg" xmlns:xlink="http://www.w3.org/1999/xlink">
<g id="graph0" class="graph" transform="scale(1 1) rotate(0) translate(4 130)">
<title>AmpDB2.h</title>
<!-- Node1 -->
<g id="node1" class="node"><title>Node1</title>
<polygon fill="#bfbfbf" stroke="black" points="170.5,-108.5 170.5,-125.5 225.5,-125.5 225.5,-108.5 170.5,-108.5"/>
<text text-anchor="middle" x="198" y="-115.1" font-family="Helvetica,sans-Serif" font-size="8.00">AmpDB2.h</text>
</g>
<!-- Node2 -->
<g id="node2" class="node"><title>Node2</title>
<g id="a_node2"><a xlink:href="../../d5/ddc/_amp_d_b2_8cpp.html" target="_top" xlink:title="AmpDB2.cpp">
<polygon fill="none" stroke="black" points="0,-54.5 0,-71.5 64,-71.5 64,-54.5 0,-54.5"/>
<text text-anchor="middle" x="32" y="-61.1" font-family="Helvetica,sans-Serif" font-size="8.00">AmpDB2.cpp</text>
</a>
</g>
</g>
<!-- Node1&#45;&gt;Node2 -->
<g id="edge1" class="edge"><title>Node1&#45;&gt;Node2</title>
<path fill="none" stroke="midnightblue" d="M164.019,-105.355C131.921,-95.3005 84.5789,-80.4705 56.167,-71.5704"/>
<polygon fill="midnightblue" stroke="midnightblue" points="163.273,-108.789 173.862,-108.439 165.366,-102.109 163.273,-108.789"/>
</g>
<!-- Node3 -->
<g id="node3" class="node"><title>Node3</title>
<g id="a_node3"><a xlink:href="../../df/d5c/_betas___j_psi_phi_8h.html" target="_top" xlink:title="Betas_JPsiPhi.h">
<polygon fill="none" stroke="black" points="82.5,-54.5 82.5,-71.5 157.5,-71.5 157.5,-54.5 82.5,-54.5"/>
<text text-anchor="middle" x="120" y="-61.1" font-family="Helvetica,sans-Serif" font-size="8.00">Betas_JPsiPhi.h</text>
</a>
</g>
</g>
<!-- Node1&#45;&gt;Node3 -->
<g id="edge2" class="edge"><title>Node1&#45;&gt;Node3</title>
<path fill="none" stroke="midnightblue" d="M177.997,-102.664C163.172,-92.7814 143.502,-79.6679 131.303,-71.5352"/>
<polygon fill="midnightblue" stroke="midnightblue" points="176.229,-105.692 186.491,-108.327 180.112,-99.868 176.229,-105.692"/>
</g>
<!-- Node6 -->
<g id="node6" class="node"><title>Node6</title>
<g id="a_node6"><a xlink:href="../../d8/d5b/_dm_bd_8h.html" target="_top" xlink:title="DmBd.h">
<polygon fill="none" stroke="black" points="175.5,-54.5 175.5,-71.5 220.5,-71.5 220.5,-54.5 175.5,-54.5"/>
<text text-anchor="middle" x="198" y="-61.1" font-family="Helvetica,sans-Serif" font-size="8.00">DmBd.h</text>
</a>
</g>
</g>
<!-- Node1&#45;&gt;Node6 -->
<g id="edge5" class="edge"><title>Node1&#45;&gt;Node6</title>
<path fill="none" stroke="midnightblue" d="M198,-98.0621C198,-89.0603 198,-78.6277 198,-71.7043"/>
<polygon fill="midnightblue" stroke="midnightblue" points="194.5,-98.3272 198,-108.327 201.5,-98.3273 194.5,-98.3272"/>
</g>
<!-- Node8 -->
<g id="node8" class="node"><title>Node8</title>
<g id="a_node8"><a xlink:href="../../df/dee/_dm_bs_8h.html" target="_top" xlink:title="DmBs.h">
<polygon fill="none" stroke="black" points="305.5,-54.5 305.5,-71.5 350.5,-71.5 350.5,-54.5 305.5,-54.5"/>
<text text-anchor="middle" x="328" y="-61.1" font-family="Helvetica,sans-Serif" font-size="8.00">DmBs.h</text>
</a>
</g>
</g>
<!-- Node1&#45;&gt;Node8 -->
<g id="edge8" class="edge"><title>Node1&#45;&gt;Node8</title>
<path fill="none" stroke="midnightblue" d="M226.26,-104.696C251.347,-94.6613 287.305,-80.2778 309.074,-71.5704"/>
<polygon fill="midnightblue" stroke="midnightblue" points="224.888,-101.475 216.903,-108.439 227.488,-107.974 224.888,-101.475"/>
</g>
<!-- Node10 -->
<g id="node10" class="node"><title>Node10</title>
<g id="a_node10"><a xlink:href="../../d3/d5e/_s_j_psi_k_8h.html" target="_top" xlink:title="SJPsiK.h">
<polygon fill="none" stroke="red" points="238.5,-54.5 238.5,-71.5 287.5,-71.5 287.5,-54.5 238.5,-54.5"/>
<text text-anchor="middle" x="263" y="-61.1" font-family="Helvetica,sans-Serif" font-size="8.00">SJPsiK.h</text>
</a>
</g>
</g>
<!-- Node1&#45;&gt;Node10 -->
<g id="edge11" class="edge"><title>Node1&#45;&gt;Node10</title>
<path fill="none" stroke="midnightblue" d="M215.677,-101.858C227.816,-92.1474 243.465,-79.6277 253.37,-71.7043"/>
<polygon fill="midnightblue" stroke="midnightblue" points="213.213,-99.3472 207.591,-108.327 217.586,-104.813 213.213,-99.3472"/>
</g>
<!-- Node4 -->
<g id="node4" class="node"><title>Node4</title>
<g id="a_node4"><a xlink:href="../../dd/dd8/_betas___j_psi_phi_8cpp.html" target="_top" xlink:title="Betas_JPsiPhi.cpp">
<polygon fill="none" stroke="black" points="41.5,-0.5 41.5,-17.5 124.5,-17.5 124.5,-0.5 41.5,-0.5"/>
<text text-anchor="middle" x="83" y="-7.1" font-family="Helvetica,sans-Serif" font-size="8.00">Betas_JPsiPhi.cpp</text>
</a>
</g>
</g>
<!-- Node3&#45;&gt;Node4 -->
<g id="edge3" class="edge"><title>Node3&#45;&gt;Node4</title>
<path fill="none" stroke="midnightblue" d="M108.711,-46.1342C102.001,-36.7044 93.7913,-25.1661 88.4819,-17.7043"/>
<polygon fill="midnightblue" stroke="midnightblue" points="105.891,-48.2085 114.541,-54.3272 111.595,-44.1501 105.891,-48.2085"/>
</g>
<!-- Node5 -->
<g id="node5" class="node"><title>Node5</title>
<g id="a_node5"><a xlink:href="../../df/d7a/_flavour_observables_8h.html" target="_top" xlink:title="FlavourObservables.h">
<polygon fill="none" stroke="red" points="215.5,-0.5 215.5,-17.5 310.5,-17.5 310.5,-0.5 215.5,-0.5"/>
<text text-anchor="middle" x="263" y="-7.1" font-family="Helvetica,sans-Serif" font-size="8.00">FlavourObservables.h</text>
</a>
</g>
</g>
<!-- Node3&#45;&gt;Node5 -->
<g id="edge4" class="edge"><title>Node3&#45;&gt;Node5</title>
<path fill="none" stroke="midnightblue" d="M150.356,-50.9614C177.98,-40.9163 218.024,-26.3549 242.181,-17.5704"/>
<polygon fill="midnightblue" stroke="midnightblue" points="148.995,-47.732 140.793,-54.4388 151.387,-54.3105 148.995,-47.732"/>
</g>
<!-- Node6&#45;&gt;Node5 -->
<g id="edge7" class="edge"><title>Node6&#45;&gt;Node5</title>
<path fill="none" stroke="midnightblue" d="M215.677,-47.8584C227.816,-38.1474 243.465,-25.6277 253.37,-17.7043"/>
<polygon fill="midnightblue" stroke="midnightblue" points="213.213,-45.3472 207.591,-54.3272 217.586,-50.8133 213.213,-45.3472"/>
</g>
<!-- Node7 -->
<g id="node7" class="node"><title>Node7</title>
<g id="a_node7"><a xlink:href="../../d7/da7/_dm_bd_8cpp.html" target="_top" xlink:title="DmBd.cpp">
<polygon fill="none" stroke="black" points="143,-0.5 143,-17.5 197,-17.5 197,-0.5 143,-0.5"/>
<text text-anchor="middle" x="170" y="-7.1" font-family="Helvetica,sans-Serif" font-size="8.00">DmBd.cpp</text>
</a>
</g>
</g>
<!-- Node6&#45;&gt;Node7 -->
<g id="edge6" class="edge"><title>Node6&#45;&gt;Node7</title>
<path fill="none" stroke="midnightblue" d="M188.983,-45.2534C183.997,-35.9946 178.042,-24.9354 174.148,-17.7043"/>
<polygon fill="midnightblue" stroke="midnightblue" points="186.046,-47.1819 193.869,-54.3272 192.209,-43.8631 186.046,-47.1819"/>
</g>
<!-- Node8&#45;&gt;Node5 -->
<g id="edge10" class="edge"><title>Node8&#45;&gt;Node5</title>
<path fill="none" stroke="midnightblue" d="M310.323,-47.8584C298.184,-38.1474 282.535,-25.6277 272.63,-17.7043"/>
<polygon fill="midnightblue" stroke="midnightblue" points="308.414,-50.8133 318.409,-54.3272 312.787,-45.3472 308.414,-50.8133"/>
</g>
<!-- Node9 -->
<g id="node9" class="node"><title>Node9</title>
<g id="a_node9"><a xlink:href="../../d2/d59/_dm_bs_8cpp.html" target="_top" xlink:title="DmBs.cpp">
<polygon fill="none" stroke="black" points="328.5,-0.5 328.5,-17.5 381.5,-17.5 381.5,-0.5 328.5,-0.5"/>
<text text-anchor="middle" x="355" y="-7.1" font-family="Helvetica,sans-Serif" font-size="8.00">DmBs.cpp</text>
</a>
</g>
</g>
<!-- Node8&#45;&gt;Node9 -->
<g id="edge9" class="edge"><title>Node8&#45;&gt;Node9</title>
<path fill="none" stroke="midnightblue" d="M336.695,-45.2534C341.503,-35.9946 347.245,-24.9354 351,-17.7043"/>
<polygon fill="midnightblue" stroke="midnightblue" points="333.486,-43.8394 331.984,-54.3272 339.698,-47.0651 333.486,-43.8394"/>
</g>
<!-- Node10&#45;&gt;Node5 -->
<g id="edge12" class="edge"><title>Node10&#45;&gt;Node5</title>
<path fill="none" stroke="midnightblue" d="M263,-44.0621C263,-35.0603 263,-24.6277 263,-17.7043"/>
<polygon fill="midnightblue" stroke="midnightblue" points="259.5,-44.3272 263,-54.3272 266.5,-44.3273 259.5,-44.3272"/>
</g>
</g>
</svg>
