<?xml version="1.0" encoding="UTF-8" standalone="no"?>
<!DOCTYPE svg PUBLIC "-//W3C//DTD SVG 1.1//EN"
 "http://www.w3.org/Graphics/SVG/1.1/DTD/svg11.dtd">
<!-- Generated by graphviz version 2.40.1 (20161225.0304)
 -->
<!-- Title: LinesAsStrings.hpp Pages: 1 -->
<svg width="364pt" height="350pt"
 viewBox="0.00 0.00 363.50 350.00" xmlns="http://www.w3.org/2000/svg" xmlns:xlink="http://www.w3.org/1999/xlink">
<g id="graph0" class="graph" transform="scale(1 1) rotate(0) translate(4 346)">
<title>LinesAsStrings.hpp</title>
<!-- Node0 -->
<g id="node1" class="node">
<title>Node0</title>
<polygon fill="#bfbfbf" stroke="#000000" points="12.5,-324.5 12.5,-341.5 97.5,-341.5 97.5,-324.5 12.5,-324.5"/>
<text text-anchor="middle" x="55" y="-331.1" font-family="Helvetica,sans-Serif" font-size="8.00" fill="#000000">LinesAsStrings.hpp</text>
</g>
<!-- Node1 -->
<g id="node2" class="node">
<title>Node1</title>
<polygon fill="none" stroke="#bfbfbf" points="67,-.5 67,-17.5 103,-17.5 103,-.5 67,-.5"/>
<text text-anchor="middle" x="85" y="-7.1" font-family="Helvetica,sans-Serif" font-size="8.00" fill="#000000">string</text>
</g>
<!-- Node0&#45;&gt;Node1 -->
<g id="edge1" class="edge">
<title>Node0&#45;&gt;Node1</title>
<path fill="none" stroke="#191970" d="M46.8846,-324.2471C31.5854,-306.7945 0,-265.8202 0,-225 0,-225 0,-225 0,-117 0,-76.2328 37.8614,-41.7757 63.0465,-23.3649"/>
<polygon fill="#191970" stroke="#191970" points="65.1715,-26.1495 71.3433,-17.5379 61.1483,-20.4211 65.1715,-26.1495"/>
</g>
<!-- Node2 -->
<g id="node3" class="node">
<title>Node2</title>
<g id="a_node3"><a xlink:href="../../d2/d6b/_interpreter_template_8hpp.html" target="_top" xlink:title="InterpreterTemplate.hpp">
<polygon fill="none" stroke="#000000" points="80,-270.5 80,-287.5 182,-287.5 182,-270.5 80,-270.5"/>
<text text-anchor="middle" x="131" y="-277.1" font-family="Helvetica,sans-Serif" font-size="8.00" fill="#000000">InterpreterTemplate.hpp</text>
</a>
</g>
</g>
<!-- Node0&#45;&gt;Node2 -->
<g id="edge2" class="edge">
<title>Node0&#45;&gt;Node2</title>
<path fill="none" stroke="#191970" d="M67.2107,-324.324C78.7759,-316.1066 96.3754,-303.6017 110.1607,-293.8069"/>
<polygon fill="#191970" stroke="#191970" points="112.4425,-296.4791 118.5671,-287.8339 108.388,-290.7729 112.4425,-296.4791"/>
</g>
<!-- Node3 -->
<g id="node4" class="node">
<title>Node3</title>
<g id="a_node4"><a xlink:href="../../d8/d14/_b_o_llib_8hpp.html" target="_top" xlink:title="BOLlib/include/BOLlib.hpp">
<polygon fill="none" stroke="#ff0000" points="113,-162.5 113,-179.5 223,-179.5 223,-162.5 113,-162.5"/>
<text text-anchor="middle" x="168" y="-169.1" font-family="Helvetica,sans-Serif" font-size="8.00" fill="#000000">BOLlib/include/BOLlib.hpp</text>
</a>
</g>
</g>
<!-- Node2&#45;&gt;Node3 -->
<g id="edge3" class="edge">
<title>Node2&#45;&gt;Node3</title>
<path fill="none" stroke="#191970" d="M124.8451,-270.1041C117.0067,-257.5859 105.4469,-234.2613 114,-216 120.0448,-203.0941 131.8119,-192.5985 142.8226,-184.9999"/>
<polygon fill="#191970" stroke="#191970" points="144.8276,-187.8723 151.367,-179.5364 141.0566,-181.9748 144.8276,-187.8723"/>
</g>
<!-- Node39 -->
<g id="node9" class="node">
<title>Node39</title>
<g id="a_node9"><a xlink:href="../../db/d22/_block_interpreter_8hpp.html" target="_top" xlink:title="BlockInterpreter.hpp">
<polygon fill="none" stroke="#ff0000" points="123.5,-216.5 123.5,-233.5 212.5,-233.5 212.5,-216.5 123.5,-216.5"/>
<text text-anchor="middle" x="168" y="-223.1" font-family="Helvetica,sans-Serif" font-size="8.00" fill="#000000">BlockInterpreter.hpp</text>
</a>
</g>
</g>
<!-- Node2&#45;&gt;Node39 -->
<g id="edge12" class="edge">
<title>Node2&#45;&gt;Node39</title>
<path fill="none" stroke="#191970" d="M137.1098,-270.083C142.2822,-262.5341 149.8461,-251.4948 156.1944,-242.2298"/>
<polygon fill="#191970" stroke="#191970" points="159.2388,-243.9787 162.0039,-233.7511 153.4643,-240.0221 159.2388,-243.9787"/>
</g>
<!-- Node41 -->
<g id="node10" class="node">
<title>Node41</title>
<g id="a_node10"><a xlink:href="../../db/dbc/_extended_mass_8hpp.html" target="_top" xlink:title="../../../MEC/ExtendedMass.hpp">
<polygon fill="none" stroke="#ff0000" points="230.5,-216.5 230.5,-233.5 355.5,-233.5 355.5,-216.5 230.5,-216.5"/>
<text text-anchor="middle" x="293" y="-223.1" font-family="Helvetica,sans-Serif" font-size="8.00" fill="#000000">../../../MEC/ExtendedMass.hpp</text>
</a>
</g>
</g>
<!-- Node2&#45;&gt;Node41 -->
<g id="edge14" class="edge">
<title>Node2&#45;&gt;Node41</title>
<path fill="none" stroke="#191970" d="M156.6694,-270.4435C183.9227,-261.3591 227.1837,-246.9388 257.6506,-236.7831"/>
<polygon fill="#191970" stroke="#191970" points="259.0707,-239.9992 267.4507,-233.5164 256.8571,-233.3584 259.0707,-239.9992"/>
</g>
<!-- Node4 -->
<g id="node5" class="node">
<title>Node4</title>
<g id="a_node5"><a xlink:href="../../dc/d4c/_argument_parser_8hpp.html" target="_top" xlink:title="ArgumentParser.hpp">
<polygon fill="none" stroke="#ff0000" points="28,-108.5 28,-125.5 118,-125.5 118,-108.5 28,-108.5"/>
<text text-anchor="middle" x="73" y="-115.1" font-family="Helvetica,sans-Serif" font-size="8.00" fill="#000000">ArgumentParser.hpp</text>
</a>
</g>
</g>
<!-- Node3&#45;&gt;Node4 -->
<g id="edge4" class="edge">
<title>Node3&#45;&gt;Node4</title>
<path fill="none" stroke="#191970" d="M152.7366,-162.324C137.7786,-153.8215 114.7452,-140.7288 97.2733,-130.7975"/>
<polygon fill="#191970" stroke="#191970" points="98.6488,-127.5534 88.2255,-125.6545 95.1896,-133.639 98.6488,-127.5534"/>
</g>
<!-- Node7 -->
<g id="node6" class="node">
<title>Node7</title>
<g id="a_node6"><a xlink:href="../../d4/dbc/_ascii_xml_parser_8hpp.html" target="_top" xlink:title="AsciiXmlParser.hpp">
<polygon fill="none" stroke="#ff0000" points="78,-54.5 78,-71.5 164,-71.5 164,-54.5 78,-54.5"/>
<text text-anchor="middle" x="121" y="-61.1" font-family="Helvetica,sans-Serif" font-size="8.00" fill="#000000">AsciiXmlParser.hpp</text>
</a>
</g>
</g>
<!-- Node3&#45;&gt;Node7 -->
<g id="edge8" class="edge">
<title>Node3&#45;&gt;Node7</title>
<path fill="none" stroke="#191970" d="M164.1538,-162.1619C156.4729,-144.5123 139.0981,-104.5872 128.8922,-81.1352"/>
<polygon fill="#191970" stroke="#191970" points="131.9677,-79.4311 124.768,-71.6584 125.5491,-82.2244 131.9677,-79.4311"/>
</g>
<!-- Node21 -->
<g id="node7" class="node">
<title>Node21</title>
<g id="a_node7"><a xlink:href="../../da/d0a/_balanced_partition_candidate_8hpp.html" target="_top" xlink:title="BalancedPartitionCandidate.hpp">
<polygon fill="none" stroke="#ff0000" points="182.5,-54.5 182.5,-71.5 313.5,-71.5 313.5,-54.5 182.5,-54.5"/>
<text text-anchor="middle" x="248" y="-61.1" font-family="Helvetica,sans-Serif" font-size="8.00" fill="#000000">BalancedPartitionCandidate.hpp</text>
</a>
</g>
</g>
<!-- Node3&#45;&gt;Node21 -->
<g id="edge9" class="edge">
<title>Node3&#45;&gt;Node21</title>
<path fill="none" stroke="#191970" d="M171.8366,-162.3934C177.6438,-149.822 189.4375,-125.9802 203,-108 211.0485,-97.3298 221.5386,-86.6957 230.3657,-78.4461"/>
<polygon fill="#191970" stroke="#191970" points="232.8425,-80.9246 237.8869,-71.6077 228.1334,-75.7453 232.8425,-80.9246"/>
</g>
<!-- Node22 -->
<g id="node8" class="node">
<title>Node22</title>
<g id="a_node8"><a xlink:href="../../d8/d03/_balanced_partitioner_8hpp.html" target="_top" xlink:title="BalancedPartitioner.hpp">
<polygon fill="none" stroke="#ff0000" points="212,-108.5 212,-125.5 314,-125.5 314,-108.5 212,-108.5"/>
<text text-anchor="middle" x="263" y="-115.1" font-family="Helvetica,sans-Serif" font-size="8.00" fill="#000000">BalancedPartitioner.hpp</text>
</a>
</g>
</g>
<!-- Node3&#45;&gt;Node22 -->
<g id="edge10" class="edge">
<title>Node3&#45;&gt;Node22</title>
<path fill="none" stroke="#191970" d="M183.2634,-162.324C198.2214,-153.8215 221.2548,-140.7288 238.7267,-130.7975"/>
<polygon fill="#191970" stroke="#191970" points="240.8104,-133.639 247.7745,-125.6545 237.3512,-127.5534 240.8104,-133.639"/>
</g>
<!-- Node4&#45;&gt;Node1 -->
<g id="edge5" class="edge">
<title>Node4&#45;&gt;Node1</title>
<path fill="none" stroke="#191970" d="M71.1888,-108.3722C68.9132,-96.1726 65.6841,-73.2241 69,-54 70.568,-44.9098 73.7948,-35.2219 76.9425,-27.1726"/>
<polygon fill="#191970" stroke="#191970" points="80.2649,-28.2993 80.8888,-17.7229 73.8055,-25.6018 80.2649,-28.2993"/>
</g>
<!-- Node4&#45;&gt;Node7 -->
<g id="edge6" class="edge">
<title>Node4&#45;&gt;Node7</title>
<path fill="none" stroke="#191970" d="M80.9262,-108.083C87.8461,-100.2982 98.0654,-88.8015 106.452,-79.3665"/>
<polygon fill="#191970" stroke="#191970" points="109.1935,-81.5505 113.2213,-71.7511 103.9617,-76.8999 109.1935,-81.5505"/>
</g>
<!-- Node7&#45;&gt;Node1 -->
<g id="edge7" class="edge">
<title>Node7&#45;&gt;Node1</title>
<path fill="none" stroke="#191970" d="M115.0553,-54.083C110.0227,-46.5341 102.6632,-35.4948 96.4865,-26.2298"/>
<polygon fill="#191970" stroke="#191970" points="99.2933,-24.1301 90.8341,-17.7511 93.4689,-28.0131 99.2933,-24.1301"/>
</g>
<!-- Node22&#45;&gt;Node21 -->
<g id="edge11" class="edge">
<title>Node22&#45;&gt;Node21</title>
<path fill="none" stroke="#191970" d="M260.5231,-108.083C258.5135,-100.8486 255.6135,-90.4087 253.1102,-81.3968"/>
<polygon fill="#191970" stroke="#191970" points="256.4797,-80.4495 250.4309,-71.7511 249.7351,-82.323 256.4797,-80.4495"/>
</g>
<!-- Node39&#45;&gt;Node3 -->
<g id="edge13" class="edge">
<title>Node39&#45;&gt;Node3</title>
<path fill="none" stroke="#191970" d="M168,-216.083C168,-209.0059 168,-198.8611 168,-189.9865"/>
<polygon fill="#191970" stroke="#191970" points="171.5001,-189.751 168,-179.7511 164.5001,-189.7511 171.5001,-189.751"/>
</g>
<!-- Node41&#45;&gt;Node1 -->
<g id="edge15" class="edge">
<title>Node41&#45;&gt;Node1</title>
<path fill="none" stroke="#191970" d="M298.6804,-216.2963C315.8182,-188.847 363.3594,-103.0203 322,-54 295.4862,-22.5751 170.2277,-12.8832 113.2908,-10.0726"/>
<polygon fill="#191970" stroke="#191970" points="113.3275,-6.5707 103.1783,-9.611 113.0083,-13.5634 113.3275,-6.5707"/>
</g>
<!-- Node41&#45;&gt;Node3 -->
<g id="edge16" class="edge">
<title>Node41&#45;&gt;Node3</title>
<path fill="none" stroke="#191970" d="M273.1934,-216.4435C252.7132,-207.5961 220.5173,-193.6875 197.1353,-183.5865"/>
<polygon fill="#191970" stroke="#191970" points="198.282,-180.2692 187.714,-179.5164 195.5059,-186.6953 198.282,-180.2692"/>
</g>
</g>
</svg>
