<?xml version="1.0" encoding="UTF-8" standalone="no"?>
<!DOCTYPE svg PUBLIC "-//W3C//DTD SVG 1.1//EN"
 "http://www.w3.org/Graphics/SVG/1.1/DTD/svg11.dtd">
<!-- Generated by graphviz version 2.40.1 (20161225.0304)
 -->
<!-- Title: WilsonCoefficient Pages: 1 -->
<svg width="220pt" height="234pt"
 viewBox="0.00 0.00 220.00 234.00" xmlns="http://www.w3.org/2000/svg" xmlns:xlink="http://www.w3.org/1999/xlink">
<g id="graph0" class="graph" transform="scale(1 1) rotate(0) translate(4 230)">
<title>WilsonCoefficient</title>
<!-- Node3 -->
<g id="node1" class="node">
<title>Node3</title>
<polygon fill="#bfbfbf" stroke="#000000" points="59,-.5 59,-17.5 137,-17.5 137,-.5 59,-.5"/>
<text text-anchor="middle" x="98" y="-7.1" font-family="Helvetica,sans-Serif" font-size="8.00" fill="#000000">WilsonCoefficient</text>
</g>
<!-- Node4 -->
<g id="node2" class="node">
<title>Node4</title>
<g id="a_node2"><a xlink:href="../../dd/d6f/class_wilson_template.html" target="_top" xlink:title="WilsonTemplate\&lt; gslpp\l::vector\&lt; gslpp::complex \&gt; \&gt;">
<polygon fill="none" stroke="#000000" points="39.5,-55.5 39.5,-81.5 156.5,-81.5 156.5,-55.5 39.5,-55.5"/>
<text text-anchor="start" x="47.5" y="-71.1" font-family="Helvetica,sans-Serif" font-size="8.00" fill="#000000">WilsonTemplate&lt; gslpp</text>
<text text-anchor="middle" x="98" y="-62.1" font-family="Helvetica,sans-Serif" font-size="8.00" fill="#000000">::vector&lt; gslpp::complex &gt; &gt;</text>
</a>
</g>
</g>
<!-- Node4&#45;&gt;Node3 -->
<g id="edge1" class="edge">
<title>Node4&#45;&gt;Node3</title>
<path fill="none" stroke="#191970" d="M98,-45.0042C98,-35.3375 98,-24.7482 98,-17.5724"/>
<polygon fill="#191970" stroke="#191970" points="94.5001,-45.295 98,-55.295 101.5001,-45.2951 94.5001,-45.295"/>
</g>
<!-- Node5 -->
<g id="node3" class="node">
<title>Node5</title>
<g id="a_node3"><a xlink:href="../../dd/d59/classgslpp_1_1vector.html" target="_top" xlink:title="gslpp::vector\&lt; gslpp\l::complex \&gt;">
<polygon fill="none" stroke="#000000" points="0,-136.5 0,-162.5 88,-162.5 88,-136.5 0,-136.5"/>
<text text-anchor="start" x="8" y="-152.1" font-family="Helvetica,sans-Serif" font-size="8.00" fill="#000000">gslpp::vector&lt; gslpp</text>
<text text-anchor="middle" x="44" y="-143.1" font-family="Helvetica,sans-Serif" font-size="8.00" fill="#000000">::complex &gt;</text>
</a>
</g>
</g>
<!-- Node5&#45;&gt;Node4 -->
<g id="edge2" class="edge">
<title>Node5&#45;&gt;Node4</title>
<path fill="none" stroke="#9a32cd" stroke-dasharray="5,2" d="M58.3415,-127.9877C68.1408,-113.2887 80.8155,-94.2767 89.1661,-81.7508"/>
<polygon fill="#9a32cd" stroke="#9a32cd" points="55.3109,-126.224 52.676,-136.4859 61.1353,-130.1069 55.3109,-126.224"/>
<text text-anchor="middle" x="86" y="-107.1" font-family="Helvetica,sans-Serif" font-size="8.00" fill="#000000"> elem</text>
</g>
<!-- Node6 -->
<g id="node4" class="node">
<title>Node6</title>
<g id="a_node4"><a xlink:href="../../dd/d59/classgslpp_1_1vector.html" target="_top" xlink:title="A base class for defining operations on vectors, both real and complex. ">
<polygon fill="none" stroke="#000000" points="3.5,-208.5 3.5,-225.5 84.5,-225.5 84.5,-208.5 3.5,-208.5"/>
<text text-anchor="middle" x="44" y="-215.1" font-family="Helvetica,sans-Serif" font-size="8.00" fill="#000000">gslpp::vector&lt; T &gt;</text>
</a>
</g>
</g>
<!-- Node6&#45;&gt;Node5 -->
<g id="edge3" class="edge">
<title>Node6&#45;&gt;Node5</title>
<path fill="none" stroke="#ffa500" stroke-dasharray="5,2" d="M44,-198.3829C44,-187.1182 44,-173.017 44,-162.8585"/>
<polygon fill="#ffa500" stroke="#ffa500" points="40.5001,-198.451 44,-208.4511 47.5001,-198.4511 40.5001,-198.451"/>
<text text-anchor="middle" x="79" y="-183.6" font-family="Helvetica,sans-Serif" font-size="8.00" fill="#000000"> &lt; gslpp::complex &gt;</text>
</g>
<!-- Node7 -->
<g id="node5" class="node">
<title>Node7</title>
<g id="a_node5"><a xlink:href="../../dd/d6f/class_wilson_template.html" target="_top" xlink:title="A template class for the Wilson coefficients. ">
<polygon fill="none" stroke="#000000" points="106.5,-141 106.5,-158 199.5,-158 199.5,-141 106.5,-141"/>
<text text-anchor="middle" x="153" y="-147.6" font-family="Helvetica,sans-Serif" font-size="8.00" fill="#000000">WilsonTemplate&lt; T &gt;</text>
</a>
</g>
</g>
<!-- Node7&#45;&gt;Node4 -->
<g id="edge4" class="edge">
<title>Node7&#45;&gt;Node4</title>
<path fill="none" stroke="#ffa500" stroke-dasharray="5,2" d="M141.3812,-132.3887C131.0954,-117.2406 116.2999,-95.4508 106.9208,-81.6379"/>
<polygon fill="#ffa500" stroke="#ffa500" points="138.6009,-134.5246 147.114,-140.8316 144.3921,-130.5924 138.6009,-134.5246"/>
<text text-anchor="start" x="131" y="-111.6" font-family="Helvetica,sans-Serif" font-size="8.00" fill="#000000"> &lt; gslpp::vector&lt; gslpp</text>
<text text-anchor="middle" x="171.5" y="-102.6" font-family="Helvetica,sans-Serif" font-size="8.00" fill="#000000">::complex &gt; &gt;</text>
</g>
<!-- Node8 -->
<g id="node6" class="node">
<title>Node8</title>
<polygon fill="none" stroke="#bfbfbf" points="138.5,-208.5 138.5,-225.5 167.5,-225.5 167.5,-208.5 138.5,-208.5"/>
<text text-anchor="middle" x="153" y="-215.1" font-family="Helvetica,sans-Serif" font-size="8.00" fill="#000000">T</text>
</g>
<!-- Node8&#45;&gt;Node7 -->
<g id="edge5" class="edge">
<title>Node8&#45;&gt;Node7</title>
<path fill="none" stroke="#9a32cd" stroke-dasharray="5,2" d="M153,-198.1784C153,-185.088 153,-168.2453 153,-158.1927"/>
<polygon fill="#9a32cd" stroke="#9a32cd" points="149.5001,-198.451 153,-208.4511 156.5001,-198.4511 149.5001,-198.451"/>
<text text-anchor="middle" x="163" y="-183.6" font-family="Helvetica,sans-Serif" font-size="8.00" fill="#000000"> elem</text>
</g>
</g>
</svg>
