<?xml version="1.0" encoding="UTF-8" standalone="no"?>
<!DOCTYPE svg PUBLIC "-//W3C//DTD SVG 1.1//EN"
 "http://www.w3.org/Graphics/SVG/1.1/DTD/svg11.dtd">
<!-- Generated by graphviz version 2.38.0 (20140413.2041)
 -->
<!-- Title: FlavourWilsonCoefficientMatching Pages: 1 -->
<svg width="113pt" height="143pt"
 viewBox="0.00 0.00 113.00 143.00" xmlns="http://www.w3.org/2000/svg" xmlns:xlink="http://www.w3.org/1999/xlink">
<g id="graph0" class="graph" transform="scale(1 1) rotate(0) translate(4 139)">
<title>FlavourWilsonCoefficientMatching</title>
<!-- Node1 -->
<g id="node1" class="node"><title>Node1</title>
<polygon fill="#bfbfbf" stroke="black" points="0,-0.5 0,-26.5 105,-26.5 105,-0.5 0,-0.5"/>
<text text-anchor="start" x="8" y="-16.1" font-family="Helvetica,sans-Serif" font-size="8.00">FlavourWilsonCoefficient</text>
<text text-anchor="middle" x="52.5" y="-7.1" font-family="Helvetica,sans-Serif" font-size="8.00">Matching</text>
</g>
<!-- Node2 -->
<g id="node2" class="node"><title>Node2</title>
<g id="a_node2"><a xlink:href="../../d6/d2e/class_standard_model_matching.html" target="_top" xlink:title="A class for the matching in the Standard Model. ">
<polygon fill="none" stroke="black" points="1,-63.5 1,-80.5 104,-80.5 104,-63.5 1,-63.5"/>
<text text-anchor="middle" x="52.5" y="-70.1" font-family="Helvetica,sans-Serif" font-size="8.00">StandardModelMatching</text>
</a>
</g>
</g>
<!-- Node2&#45;&gt;Node1 -->
<g id="edge1" class="edge"><title>Node2&#45;&gt;Node1</title>
<path fill="none" stroke="midnightblue" d="M52.5,-53.0016C52.5,-44.3961 52.5,-34.3224 52.5,-26.638"/>
<polygon fill="midnightblue" stroke="midnightblue" points="49.0001,-53.1439 52.5,-63.1439 56.0001,-53.144 49.0001,-53.1439"/>
</g>
<!-- Node3 -->
<g id="node3" class="node"><title>Node3</title>
<g id="a_node3"><a xlink:href="../../d0/d2a/class_model_matching.html" target="_top" xlink:title="A class for a template of model matching. ">
<polygon fill="none" stroke="black" points="17,-117.5 17,-134.5 88,-134.5 88,-117.5 17,-117.5"/>
<text text-anchor="middle" x="52.5" y="-124.1" font-family="Helvetica,sans-Serif" font-size="8.00">ModelMatching</text>
</a>
</g>
</g>
<!-- Node3&#45;&gt;Node2 -->
<g id="edge2" class="edge"><title>Node3&#45;&gt;Node2</title>
<path fill="none" stroke="midnightblue" d="M52.5,-107.062C52.5,-98.0603 52.5,-87.6277 52.5,-80.7043"/>
<polygon fill="midnightblue" stroke="midnightblue" points="49.0001,-107.327 52.5,-117.327 56.0001,-107.327 49.0001,-107.327"/>
</g>
</g>
</svg>
