<?xml version="1.0" encoding="UTF-8" standalone="no"?>
<!DOCTYPE svg PUBLIC "-//W3C//DTD SVG 1.1//EN"
 "http://www.w3.org/Graphics/SVG/1.1/DTD/svg11.dtd">
<!-- Generated by graphviz version 2.40.1 (20161225.0304)
 -->
<!-- Title: MVgamma.h Pages: 1 -->
<svg width="268pt" height="134pt"
 viewBox="0.00 0.00 268.00 134.00" xmlns="http://www.w3.org/2000/svg" xmlns:xlink="http://www.w3.org/1999/xlink">
<g id="graph0" class="graph" transform="scale(1 1) rotate(0) translate(4 130)">
<title>MVgamma.h</title>
<!-- Node6 -->
<g id="node1" class="node">
<title>Node6</title>
<polygon fill="#bfbfbf" stroke="#000000" points="93,-108.5 93,-125.5 155,-125.5 155,-108.5 93,-108.5"/>
<text text-anchor="middle" x="124" y="-115.1" font-family="Helvetica,sans-Serif" font-size="8.00" fill="#000000">MVgamma.h</text>
</g>
<!-- Node7 -->
<g id="node2" class="node">
<title>Node7</title>
<g id="a_node2"><a xlink:href="../../d7/d30/_flavour_8cpp.html" target="_top" xlink:title="Flavour.cpp">
<polygon fill="none" stroke="#000000" points="0,-54.5 0,-71.5 58,-71.5 58,-54.5 0,-54.5"/>
<text text-anchor="middle" x="29" y="-61.1" font-family="Helvetica,sans-Serif" font-size="8.00" fill="#000000">Flavour.cpp</text>
</a>
</g>
</g>
<!-- Node6&#45;&gt;Node7 -->
<g id="edge1" class="edge">
<title>Node6&#45;&gt;Node7</title>
<path fill="none" stroke="#191970" d="M99.6824,-103.1774C82.2012,-93.2407 59.1699,-80.1492 44.2255,-71.6545"/>
<polygon fill="#191970" stroke="#191970" points="98.3133,-106.425 108.7366,-108.324 101.7725,-100.3395 98.3133,-106.425"/>
</g>
<!-- Node8 -->
<g id="node3" class="node">
<title>Node8</title>
<g id="a_node3"><a xlink:href="../../df/d7a/_flavour_observables_8h.html" target="_top" xlink:title="FlavourObservables.h">
<polygon fill="none" stroke="#000000" points="76.5,-54.5 76.5,-71.5 171.5,-71.5 171.5,-54.5 76.5,-54.5"/>
<text text-anchor="middle" x="124" y="-61.1" font-family="Helvetica,sans-Serif" font-size="8.00" fill="#000000">FlavourObservables.h</text>
</a>
</g>
</g>
<!-- Node6&#45;&gt;Node8 -->
<g id="edge2" class="edge">
<title>Node6&#45;&gt;Node8</title>
<path fill="none" stroke="#191970" d="M124,-97.8045C124,-88.9102 124,-78.7798 124,-71.7511"/>
<polygon fill="#191970" stroke="#191970" points="120.5001,-98.083 124,-108.083 127.5001,-98.083 120.5001,-98.083"/>
</g>
<!-- Node10 -->
<g id="node5" class="node">
<title>Node10</title>
<g id="a_node5"><a xlink:href="../../da/dd5/_m_vgamma_8cpp.html" target="_top" xlink:title="MVgamma.cpp">
<polygon fill="none" stroke="#000000" points="190,-54.5 190,-71.5 260,-71.5 260,-54.5 190,-54.5"/>
<text text-anchor="middle" x="225" y="-61.1" font-family="Helvetica,sans-Serif" font-size="8.00" fill="#000000">MVgamma.cpp</text>
</a>
</g>
</g>
<!-- Node6&#45;&gt;Node10 -->
<g id="edge4" class="edge">
<title>Node6&#45;&gt;Node10</title>
<path fill="none" stroke="#191970" d="M149.0825,-103.5895C167.757,-93.6052 192.704,-80.2672 208.8129,-71.6545"/>
<polygon fill="#191970" stroke="#191970" points="147.3959,-100.5224 140.2274,-108.324 150.6963,-106.6955 147.3959,-100.5224"/>
</g>
<!-- Node9 -->
<g id="node4" class="node">
<title>Node9</title>
<g id="a_node4"><a xlink:href="../../d1/de2/_th_obs_factory_8cpp.html" target="_top" xlink:title="ThObsFactory.cpp">
<polygon fill="none" stroke="#000000" points="83,-.5 83,-17.5 165,-17.5 165,-.5 83,-.5"/>
<text text-anchor="middle" x="124" y="-7.1" font-family="Helvetica,sans-Serif" font-size="8.00" fill="#000000">ThObsFactory.cpp</text>
</a>
</g>
</g>
<!-- Node8&#45;&gt;Node9 -->
<g id="edge3" class="edge">
<title>Node8&#45;&gt;Node9</title>
<path fill="none" stroke="#191970" d="M124,-43.8045C124,-34.9102 124,-24.7798 124,-17.7511"/>
<polygon fill="#191970" stroke="#191970" points="120.5001,-44.083 124,-54.083 127.5001,-44.083 120.5001,-44.083"/>
</g>
</g>
</svg>
