<?xml version="1.0" encoding="UTF-8" standalone="no"?>
<!DOCTYPE svg PUBLIC "-//W3C//DTD SVG 1.1//EN"
 "http://www.w3.org/Graphics/SVG/1.1/DTD/svg11.dtd">
<!-- Generated by graphviz version 2.40.1 (20161225.0304)
 -->
<!-- Title: EvolDC1.cpp Pages: 1 -->
<svg width="353pt" height="188pt"
 viewBox="0.00 0.00 352.50 188.00" xmlns="http://www.w3.org/2000/svg" xmlns:xlink="http://www.w3.org/1999/xlink">
<g id="graph0" class="graph" transform="scale(1 1) rotate(0) translate(4 184)">
<title>EvolDC1.cpp</title>
<!-- Node0 -->
<g id="node1" class="node">
<title>Node0</title>
<polygon fill="#bfbfbf" stroke="#000000" points="125.5,-162.5 125.5,-179.5 188.5,-179.5 188.5,-162.5 125.5,-162.5"/>
<text text-anchor="middle" x="157" y="-169.1" font-family="Helvetica,sans-Serif" font-size="8.00" fill="#000000">EvolDC1.cpp</text>
</g>
<!-- Node1 -->
<g id="node2" class="node">
<title>Node1</title>
<polygon fill="none" stroke="#bfbfbf" points="0,-108.5 0,-125.5 76,-125.5 76,-108.5 0,-108.5"/>
<text text-anchor="middle" x="38" y="-115.1" font-family="Helvetica,sans-Serif" font-size="8.00" fill="#000000">gsl/gsl_sf_zeta.h</text>
</g>
<!-- Node0&#45;&gt;Node1 -->
<g id="edge1" class="edge">
<title>Node0&#45;&gt;Node1</title>
<path fill="none" stroke="#191970" d="M138.1441,-162.4435C118.734,-153.6356 88.2699,-139.8116 66.0355,-129.722"/>
<polygon fill="#191970" stroke="#191970" points="67.3203,-126.4615 56.7677,-125.5164 64.4277,-132.836 67.3203,-126.4615"/>
</g>
<!-- Node2 -->
<g id="node3" class="node">
<title>Node2</title>
<g id="a_node3"><a xlink:href="../../d4/d98/_evol_d_c1_8h.html" target="_top" xlink:title="EvolDC1.h">
<polygon fill="none" stroke="#000000" points="94.5,-108.5 94.5,-125.5 149.5,-125.5 149.5,-108.5 94.5,-108.5"/>
<text text-anchor="middle" x="122" y="-115.1" font-family="Helvetica,sans-Serif" font-size="8.00" fill="#000000">EvolDC1.h</text>
</a>
</g>
</g>
<!-- Node0&#45;&gt;Node2 -->
<g id="edge2" class="edge">
<title>Node0&#45;&gt;Node2</title>
<path fill="none" stroke="#191970" d="M151.2205,-162.083C146.3276,-154.5341 139.1726,-143.4948 133.1674,-134.2298"/>
<polygon fill="#191970" stroke="#191970" points="136.048,-132.239 127.672,-125.7511 130.174,-136.0463 136.048,-132.239"/>
</g>
<!-- Node23 -->
<g id="node6" class="node">
<title>Node23</title>
<polygon fill="none" stroke="#bfbfbf" points="167.5,-108.5 167.5,-125.5 218.5,-125.5 218.5,-108.5 167.5,-108.5"/>
<text text-anchor="middle" x="193" y="-115.1" font-family="Helvetica,sans-Serif" font-size="8.00" fill="#000000">stdexcept</text>
</g>
<!-- Node0&#45;&gt;Node23 -->
<g id="edge5" class="edge">
<title>Node0&#45;&gt;Node23</title>
<path fill="none" stroke="#191970" d="M162.9447,-162.083C167.9773,-154.5341 175.3368,-143.4948 181.5135,-134.2298"/>
<polygon fill="#191970" stroke="#191970" points="184.5311,-136.0131 187.1659,-125.7511 178.7067,-132.1301 184.5311,-136.0131"/>
</g>
<!-- Node24 -->
<g id="node7" class="node">
<title>Node24</title>
<g id="a_node7"><a xlink:href="../../d6/d0a/_standard_model_8h.html" target="_top" xlink:title="StandardModel.h">
<polygon fill="none" stroke="#ff0000" points="236.5,-108.5 236.5,-125.5 313.5,-125.5 313.5,-108.5 236.5,-108.5"/>
<text text-anchor="middle" x="275" y="-115.1" font-family="Helvetica,sans-Serif" font-size="8.00" fill="#000000">StandardModel.h</text>
</a>
</g>
</g>
<!-- Node0&#45;&gt;Node24 -->
<g id="edge6" class="edge">
<title>Node0&#45;&gt;Node24</title>
<path fill="none" stroke="#191970" d="M175.6975,-162.4435C194.9445,-153.6356 225.1525,-139.8116 247.2001,-129.722"/>
<polygon fill="#191970" stroke="#191970" points="248.7534,-132.8603 256.39,-125.5164 245.8405,-126.4951 248.7534,-132.8603"/>
</g>
<!-- Node3 -->
<g id="node4" class="node">
<title>Node3</title>
<g id="a_node4"><a xlink:href="../../dc/d57/_r_g_evolutor_8h.html" target="_top" xlink:title="RGEvolutor.h">
<polygon fill="none" stroke="#ff0000" points="33.5,-54.5 33.5,-71.5 98.5,-71.5 98.5,-54.5 33.5,-54.5"/>
<text text-anchor="middle" x="66" y="-61.1" font-family="Helvetica,sans-Serif" font-size="8.00" fill="#000000">RGEvolutor.h</text>
</a>
</g>
</g>
<!-- Node2&#45;&gt;Node3 -->
<g id="edge3" class="edge">
<title>Node2&#45;&gt;Node3</title>
<path fill="none" stroke="#191970" d="M113.0026,-108.324C104.8056,-100.4196 92.4945,-88.5482 82.528,-78.9377"/>
<polygon fill="#191970" stroke="#191970" points="84.789,-76.2558 75.1611,-71.8339 79.9301,-81.2947 84.789,-76.2558"/>
</g>
<!-- Node22 -->
<g id="node5" class="node">
<title>Node22</title>
<polygon fill="none" stroke="#bfbfbf" points="116.5,-54.5 116.5,-71.5 161.5,-71.5 161.5,-54.5 116.5,-54.5"/>
<text text-anchor="middle" x="139" y="-61.1" font-family="Helvetica,sans-Serif" font-size="8.00" fill="#000000">sstream</text>
</g>
<!-- Node2&#45;&gt;Node22 -->
<g id="edge4" class="edge">
<title>Node2&#45;&gt;Node22</title>
<path fill="none" stroke="#191970" d="M124.8072,-108.083C127.0847,-100.8486 130.3713,-90.4087 133.2084,-81.3968"/>
<polygon fill="#191970" stroke="#191970" points="136.5806,-82.3406 136.245,-71.7511 129.9036,-80.2385 136.5806,-82.3406"/>
</g>
<!-- Node25 -->
<g id="node8" class="node">
<title>Node25</title>
<g id="a_node8"><a xlink:href="../../d2/d65/_flavour_8h.html" target="_top" xlink:title="Flavour.h">
<polygon fill="none" stroke="#ff0000" points="197,-54.5 197,-71.5 247,-71.5 247,-54.5 197,-54.5"/>
<text text-anchor="middle" x="222" y="-61.1" font-family="Helvetica,sans-Serif" font-size="8.00" fill="#000000">Flavour.h</text>
</a>
</g>
</g>
<!-- Node24&#45;&gt;Node25 -->
<g id="edge7" class="edge">
<title>Node24&#45;&gt;Node25</title>
<path fill="none" stroke="#191970" d="M266.2481,-108.083C258.5303,-100.2195 247.0953,-88.5688 237.7835,-79.0813"/>
<polygon fill="#191970" stroke="#191970" points="240.0916,-76.4363 230.589,-71.7511 235.0958,-81.3396 240.0916,-76.4363"/>
</g>
<!-- Node26 -->
<g id="node9" class="node">
<title>Node26</title>
<g id="a_node9"><a xlink:href="../../d4/d68/_q_c_d_8h.html" target="_top" xlink:title="QCD.h">
<polygon fill="none" stroke="#ff0000" points="227.5,-.5 227.5,-17.5 268.5,-17.5 268.5,-.5 227.5,-.5"/>
<text text-anchor="middle" x="248" y="-7.1" font-family="Helvetica,sans-Serif" font-size="8.00" fill="#000000">QCD.h</text>
</a>
</g>
</g>
<!-- Node24&#45;&gt;Node26 -->
<g id="edge9" class="edge">
<title>Node24&#45;&gt;Node26</title>
<path fill="none" stroke="#191970" d="M272.7905,-108.1619C268.3979,-90.5918 258.4866,-50.9465 252.6133,-27.4532"/>
<polygon fill="#191970" stroke="#191970" points="255.9855,-26.5109 250.1646,-17.6584 249.1945,-28.2087 255.9855,-26.5109"/>
</g>
<!-- Node40 -->
<g id="node10" class="node">
<title>Node40</title>
<g id="a_node10"><a xlink:href="../../db/d5d/_c_k_m_8h.html" target="_top" xlink:title="CKM.h">
<polygon fill="none" stroke="#ff0000" points="303.5,-54.5 303.5,-71.5 344.5,-71.5 344.5,-54.5 303.5,-54.5"/>
<text text-anchor="middle" x="324" y="-61.1" font-family="Helvetica,sans-Serif" font-size="8.00" fill="#000000">CKM.h</text>
</a>
</g>
</g>
<!-- Node24&#45;&gt;Node40 -->
<g id="edge10" class="edge">
<title>Node24&#45;&gt;Node40</title>
<path fill="none" stroke="#191970" d="M283.0914,-108.083C290.1554,-100.2982 300.5876,-88.8015 309.1489,-79.3665"/>
<polygon fill="#191970" stroke="#191970" points="311.9312,-81.5087 316.0592,-71.7511 306.7473,-76.8047 311.9312,-81.5087"/>
</g>
<!-- Node25&#45;&gt;Node26 -->
<g id="edge8" class="edge">
<title>Node25&#45;&gt;Node26</title>
<path fill="none" stroke="#191970" d="M226.2934,-54.083C229.8523,-46.6913 235.0225,-35.9533 239.4243,-26.8111"/>
<polygon fill="#191970" stroke="#191970" points="242.6018,-28.2795 243.7865,-17.7511 236.2948,-25.2427 242.6018,-28.2795"/>
</g>
</g>
</svg>
