<?xml version="1.0" encoding="UTF-8" standalone="no"?>
<!DOCTYPE svg PUBLIC "-//W3C//DTD SVG 1.1//EN"
 "http://www.w3.org/Graphics/SVG/1.1/DTD/svg11.dtd">
<!-- Generated by graphviz version 2.40.1 (20161225.0304)
 -->
<!-- Title: LHPC::MassSpectrumClass::SneutrinosOneToThree Pages: 1 -->
<svg width="951pt" height="199pt"
 viewBox="0.00 0.00 951.00 198.50" xmlns="http://www.w3.org/2000/svg" xmlns:xlink="http://www.w3.org/1999/xlink">
<g id="graph0" class="graph" transform="scale(1 1) rotate(0) translate(4 194.5)">
<title>LHPC::MassSpectrumClass::SneutrinosOneToThree</title>
<!-- Node7 -->
<g id="node1" class="node">
<title>Node7</title>
<polygon fill="#bfbfbf" stroke="#000000" points="827,-76.5 827,-102.5 943,-102.5 943,-76.5 827,-76.5"/>
<text text-anchor="start" x="835" y="-92.1" font-family="Helvetica,sans-Serif" font-size="8.00" fill="#000000">LHPC::MassSpectrumClass</text>
<text text-anchor="middle" x="885" y="-83.1" font-family="Helvetica,sans-Serif" font-size="8.00" fill="#000000">::SneutrinosOneToThree</text>
</g>
<!-- Node8 -->
<g id="node2" class="node">
<title>Node8</title>
<g id="a_node2"><a xlink:href="../../d3/d8f/class_l_h_p_c_1_1_mass_spectrum.html" target="_top" xlink:title="LHPC::MassSpectrum">
<polygon fill="none" stroke="#000000" points="626.5,-116 626.5,-133 722.5,-133 722.5,-116 626.5,-116"/>
<text text-anchor="middle" x="674.5" y="-122.6" font-family="Helvetica,sans-Serif" font-size="8.00" fill="#000000">LHPC::MassSpectrum</text>
</a>
</g>
</g>
<!-- Node8&#45;&gt;Node7 -->
<g id="edge1" class="edge">
<title>Node8&#45;&gt;Node7</title>
<path fill="none" stroke="#191970" d="M732.9695,-120.539C756.6951,-118.3808 784.2827,-115.1679 809,-110.5 820.0299,-108.417 831.7914,-105.5138 842.6841,-102.5296"/>
<polygon fill="#191970" stroke="#191970" points="732.3721,-117.0776 722.7121,-121.4291 732.9773,-124.0514 732.3721,-117.0776"/>
</g>
<!-- Node9 -->
<g id="node3" class="node">
<title>Node9</title>
<g id="a_node3"><a xlink:href="../../d5/d13/class_b_o_l_1_1_pushed_to_observer.html" target="_top" xlink:title="BOL::PushedToObserver\l\&lt; SpectrumUpdater \&gt;">
<polygon fill="none" stroke="#000000" points="381.5,-147.5 381.5,-173.5 487.5,-173.5 487.5,-147.5 381.5,-147.5"/>
<text text-anchor="start" x="389.5" y="-163.1" font-family="Helvetica,sans-Serif" font-size="8.00" fill="#000000">BOL::PushedToObserver</text>
<text text-anchor="middle" x="434.5" y="-154.1" font-family="Helvetica,sans-Serif" font-size="8.00" fill="#000000">&lt; SpectrumUpdater &gt;</text>
</a>
</g>
</g>
<!-- Node9&#45;&gt;Node8 -->
<g id="edge2" class="edge">
<title>Node9&#45;&gt;Node8</title>
<path fill="none" stroke="#191970" d="M497.7432,-151.0135C537.9946,-144.9758 589.3154,-137.2777 626.2752,-131.7337"/>
<polygon fill="#191970" stroke="#191970" points="497.1339,-147.5657 487.7638,-152.5104 498.1724,-154.4882 497.1339,-147.5657"/>
</g>
<!-- Node10 -->
<g id="node4" class="node">
<title>Node10</title>
<g id="a_node4"><a xlink:href="../../d3/d09/class_b_o_l_1_1_basic_observer.html" target="_top" xlink:title="BOL::BasicObserver">
<polygon fill="none" stroke="#000000" points="0,-173 0,-190 89,-190 89,-173 0,-173"/>
<text text-anchor="middle" x="44.5" y="-179.6" font-family="Helvetica,sans-Serif" font-size="8.00" fill="#000000">BOL::BasicObserver</text>
</a>
</g>
</g>
<!-- Node10&#45;&gt;Node9 -->
<g id="edge3" class="edge">
<title>Node10&#45;&gt;Node9</title>
<path fill="none" stroke="#191970" d="M99.2884,-185.4335C102.234,-185.4943 105.1522,-185.5194 108,-185.5 173.3379,-185.0555 189.7711,-187.2985 255,-183.5 298.2663,-180.9805 309.0234,-179.0972 352,-173.5 361.4896,-172.2641 371.5697,-170.8014 381.3051,-169.3109"/>
<polygon fill="#191970" stroke="#191970" points="99.3407,-181.9334 89.2307,-185.1019 99.1099,-188.9296 99.3407,-181.9334"/>
</g>
<!-- Node11 -->
<g id="node5" class="node">
<title>Node11</title>
<g id="a_node5"><a xlink:href="../../d5/d13/class_b_o_l_1_1_pushed_to_observer.html" target="_top" xlink:title="BOL::PushedToObserver\l\&lt; PushedClass \&gt;">
<polygon fill="none" stroke="#000000" points="137.5,-147.5 137.5,-173.5 243.5,-173.5 243.5,-147.5 137.5,-147.5"/>
<text text-anchor="start" x="145.5" y="-163.1" font-family="Helvetica,sans-Serif" font-size="8.00" fill="#000000">BOL::PushedToObserver</text>
<text text-anchor="middle" x="190.5" y="-154.1" font-family="Helvetica,sans-Serif" font-size="8.00" fill="#000000">&lt; PushedClass &gt;</text>
</a>
</g>
</g>
<!-- Node10&#45;&gt;Node11 -->
<g id="edge5" class="edge">
<title>Node10&#45;&gt;Node11</title>
<path fill="none" stroke="#191970" d="M99.361,-173.609C111.8312,-171.8154 125.0554,-169.9133 137.4487,-168.1307"/>
<polygon fill="#191970" stroke="#191970" points="98.4979,-170.1971 89.0981,-175.0852 99.4946,-177.1258 98.4979,-170.1971"/>
</g>
<!-- Node11&#45;&gt;Node9 -->
<g id="edge4" class="edge">
<title>Node11&#45;&gt;Node9</title>
<path fill="none" stroke="#ffa500" stroke-dasharray="5,2" d="M253.8255,-160.5C293.4278,-160.5 343.8568,-160.5 381.3682,-160.5"/>
<polygon fill="#ffa500" stroke="#ffa500" points="253.7454,-157.0001 243.7453,-160.5 253.7453,-164.0001 253.7454,-157.0001"/>
<text text-anchor="middle" x="312.5" y="-163.1" font-family="Helvetica,sans-Serif" font-size="8.00" fill="#000000"> &lt; SpectrumUpdater &gt;</text>
</g>
<!-- Node12 -->
<g id="node6" class="node">
<title>Node12</title>
<g id="a_node6"><a xlink:href="../../da/d50/class_l_h_p_c_1_1_map_and_vector_and_bools.html" target="_top" xlink:title="LHPC::MapAndVectorAndBools\l\&lt; MassEigenstate *\&gt;">
<polygon fill="none" stroke="#000000" points="370,-102.5 370,-128.5 499,-128.5 499,-102.5 370,-102.5"/>
<text text-anchor="start" x="378" y="-118.1" font-family="Helvetica,sans-Serif" font-size="8.00" fill="#000000">LHPC::MapAndVectorAndBools</text>
<text text-anchor="middle" x="434.5" y="-109.1" font-family="Helvetica,sans-Serif" font-size="8.00" fill="#000000">&lt; MassEigenstate *&gt;</text>
</a>
</g>
</g>
<!-- Node12&#45;&gt;Node8 -->
<g id="edge6" class="edge">
<title>Node12&#45;&gt;Node8</title>
<path fill="none" stroke="#9a32cd" stroke-dasharray="5,2" d="M509.1699,-118.3001C547.3058,-119.7302 592.6021,-121.4288 626.131,-122.6862"/>
<polygon fill="#9a32cd" stroke="#9a32cd" points="509.2555,-114.801 499.1313,-117.9237 508.9931,-121.796 509.2555,-114.801"/>
<text text-anchor="middle" x="562" y="-124.1" font-family="Helvetica,sans-Serif" font-size="8.00" fill="#000000"> mapAndVectorAndBools</text>
</g>
<!-- Node13 -->
<g id="node7" class="node">
<title>Node13</title>
<g id="a_node7"><a xlink:href="../../da/d50/class_l_h_p_c_1_1_map_and_vector_and_bools.html" target="_top" xlink:title="LHPC::MapAndVectorAndBools\l\&lt; PointerClass \&gt;">
<polygon fill="none" stroke="#000000" points="126,-102.5 126,-128.5 255,-128.5 255,-102.5 126,-102.5"/>
<text text-anchor="start" x="134" y="-118.1" font-family="Helvetica,sans-Serif" font-size="8.00" fill="#000000">LHPC::MapAndVectorAndBools</text>
<text text-anchor="middle" x="190.5" y="-109.1" font-family="Helvetica,sans-Serif" font-size="8.00" fill="#000000">&lt; PointerClass &gt;</text>
</a>
</g>
</g>
<!-- Node13&#45;&gt;Node12 -->
<g id="edge7" class="edge">
<title>Node13&#45;&gt;Node12</title>
<path fill="none" stroke="#ffa500" stroke-dasharray="5,2" d="M265.4196,-115.5C298.8179,-115.5 337.7765,-115.5 369.8742,-115.5"/>
<polygon fill="#ffa500" stroke="#ffa500" points="265.247,-112.0001 255.2469,-115.5 265.2469,-119.0001 265.247,-112.0001"/>
<text text-anchor="middle" x="312.5" y="-118.1" font-family="Helvetica,sans-Serif" font-size="8.00" fill="#000000"> &lt; MassEigenstate *&gt;</text>
</g>
<!-- Node14 -->
<g id="node8" class="node">
<title>Node14</title>
<g id="a_node8"><a xlink:href="../../db/d20/class_l_h_p_c_1_1_mass_eigenstate.html" target="_top" xlink:title="LHPC::MassEigenstate">
<polygon fill="none" stroke="#000000" points="625,-47 625,-64 724,-64 724,-47 625,-47"/>
<text text-anchor="middle" x="674.5" y="-53.6" font-family="Helvetica,sans-Serif" font-size="8.00" fill="#000000">LHPC::MassEigenstate</text>
</a>
</g>
</g>
<!-- Node14&#45;&gt;Node7 -->
<g id="edge8" class="edge">
<title>Node14&#45;&gt;Node7</title>
<path fill="none" stroke="#9a32cd" stroke-dasharray="5,2" d="M734.3746,-50.8408C757.8689,-50.3352 784.9204,-51.4043 809,-56.5 827.4356,-60.4013 846.9045,-68.9511 861.5218,-76.3704"/>
<polygon fill="#9a32cd" stroke="#9a32cd" points="734.0843,-47.3481 724.1993,-51.1607 734.3044,-54.3446 734.0843,-47.3481"/>
<text text-anchor="middle" x="775.5" y="-104.1" font-family="Helvetica,sans-Serif" font-size="8.00" fill="#000000"> sneutrinoTwo</text>
<text text-anchor="middle" x="775.5" y="-95.1" font-family="Helvetica,sans-Serif" font-size="8.00" fill="#000000">antisneutrinoThree</text>
<text text-anchor="middle" x="775.5" y="-86.1" font-family="Helvetica,sans-Serif" font-size="8.00" fill="#000000">sneutrinoThree</text>
<text text-anchor="middle" x="775.5" y="-77.1" font-family="Helvetica,sans-Serif" font-size="8.00" fill="#000000">sneutrinoOne</text>
<text text-anchor="middle" x="775.5" y="-68.1" font-family="Helvetica,sans-Serif" font-size="8.00" fill="#000000">antisneutrinoTwo</text>
<text text-anchor="middle" x="775.5" y="-59.1" font-family="Helvetica,sans-Serif" font-size="8.00" fill="#000000">antisneutrinoOne</text>
</g>
<!-- Node14&#45;&gt;Node14 -->
<g id="edge11" class="edge">
<title>Node14&#45;&gt;Node14</title>
<path fill="none" stroke="#9a32cd" stroke-dasharray="5,2" d="M655.8155,-73.3595C656.5103,-78.516 662.7385,-82.5 674.5,-82.5 692.8594,-82.5 697.7361,-72.7925 689.1301,-64.0709"/>
<polygon fill="#9a32cd" stroke="#9a32cd" points="659.0771,-74.636 659.8699,-64.0709 652.6616,-71.8357 659.0771,-74.636"/>
<text text-anchor="middle" x="674.5" y="-85.1" font-family="Helvetica,sans-Serif" font-size="8.00" fill="#000000"> chargeConjugate</text>
</g>
<!-- Node15 -->
<g id="node9" class="node">
<title>Node15</title>
<g id="a_node9"><a xlink:href="../../de/da2/class_b_o_l_1_1_vectorlike_array.html" target="_top" xlink:title="BOL::VectorlikeArray\l\&lt; LHPC::ExtendedMass \&gt;">
<polygon fill="none" stroke="#ff0000" points="380,-45.5 380,-71.5 489,-71.5 489,-45.5 380,-45.5"/>
<text text-anchor="start" x="388" y="-61.1" font-family="Helvetica,sans-Serif" font-size="8.00" fill="#000000">BOL::VectorlikeArray</text>
<text text-anchor="middle" x="434.5" y="-52.1" font-family="Helvetica,sans-Serif" font-size="8.00" fill="#000000">&lt; LHPC::ExtendedMass &gt;</text>
</a>
</g>
</g>
<!-- Node15&#45;&gt;Node14 -->
<g id="edge9" class="edge">
<title>Node15&#45;&gt;Node14</title>
<path fill="none" stroke="#9a32cd" stroke-dasharray="5,2" d="M499.3273,-57.6897C538.8244,-57.1959 588.5148,-56.5748 624.8748,-56.1203"/>
<polygon fill="#9a32cd" stroke="#9a32cd" points="499.2155,-54.1907 489.26,-57.8155 499.303,-61.1901 499.2155,-54.1907"/>
<text text-anchor="middle" x="562" y="-59.1" font-family="Helvetica,sans-Serif" font-size="8.00" fill="#000000"> runningMasses</text>
</g>
<!-- Node19 -->
<g id="node10" class="node">
<title>Node19</title>
<g id="a_node10"><a xlink:href="../../de/da2/class_b_o_l_1_1_vectorlike_array.html" target="_top" xlink:title="BOL::VectorlikeArray\l\&lt; LHPC::PointersWithValue \&gt;">
<polygon fill="none" stroke="#ff0000" points="373.5,-.5 373.5,-26.5 495.5,-26.5 495.5,-.5 373.5,-.5"/>
<text text-anchor="start" x="381.5" y="-16.1" font-family="Helvetica,sans-Serif" font-size="8.00" fill="#000000">BOL::VectorlikeArray</text>
<text text-anchor="middle" x="434.5" y="-7.1" font-family="Helvetica,sans-Serif" font-size="8.00" fill="#000000">&lt; LHPC::PointersWithValue &gt;</text>
</a>
</g>
</g>
<!-- Node19&#45;&gt;Node14 -->
<g id="edge10" class="edge">
<title>Node19&#45;&gt;Node14</title>
<path fill="none" stroke="#9a32cd" stroke-dasharray="5,2" d="M506.0246,-18.5678C537.2656,-21.6084 574.1877,-26.3261 607,-33.5 622.2921,-36.8434 639.024,-42.2839 652.0035,-46.918"/>
<polygon fill="#9a32cd" stroke="#9a32cd" points="505.9441,-15.0451 495.6618,-17.5998 505.2929,-22.0148 505.9441,-15.0451"/>
<text text-anchor="middle" x="562" y="-45.1" font-family="Helvetica,sans-Serif" font-size="8.00" fill="#000000"> defaultDecaySet</text>
<text text-anchor="middle" x="562" y="-36.1" font-family="Helvetica,sans-Serif" font-size="8.00" fill="#000000">decaySet</text>
</g>
</g>
</svg>
