<?xml version="1.0" encoding="UTF-8" standalone="no"?>
<!DOCTYPE svg PUBLIC "-//W3C//DTD SVG 1.1//EN"
 "http://www.w3.org/Graphics/SVG/1.1/DTD/svg11.dtd">
<!-- Generated by graphviz version 2.38.0 (20140413.2041)
 -->
<!-- Title: muVBF Pages: 1 -->
<svg width="432pt" height="215pt"
 viewBox="0.00 0.00 431.50 215.00" xmlns="http://www.w3.org/2000/svg" xmlns:xlink="http://www.w3.org/1999/xlink">
<g id="graph0" class="graph" transform="scale(1 1) rotate(0) translate(4 211)">
<title>muVBF</title>
<!-- Node1 -->
<g id="node1" class="node"><title>Node1</title>
<polygon fill="#bfbfbf" stroke="black" points="57,-0.5 57,-17.5 100,-17.5 100,-0.5 57,-0.5"/>
<text text-anchor="middle" x="78.5" y="-7.1" font-family="Helvetica,sans-Serif" font-size="8.00">muVBF</text>
</g>
<!-- Node2 -->
<g id="node2" class="node"><title>Node2</title>
<g id="a_node2"><a xlink:href="../../dc/d1f/class_th_observable.html" target="_top" xlink:title="A class for a model prediction of an observable. ">
<polygon fill="none" stroke="black" points="0,-63.5 0,-80.5 67,-80.5 67,-63.5 0,-63.5"/>
<text text-anchor="middle" x="33.5" y="-70.1" font-family="Helvetica,sans-Serif" font-size="8.00">ThObservable</text>
</a>
</g>
</g>
<!-- Node2&#45;&gt;Node1 -->
<g id="edge1" class="edge"><title>Node2&#45;&gt;Node1</title>
<path fill="none" stroke="midnightblue" d="M45.2615,-55.0566C54.09,-43.0891 65.8001,-27.2155 72.7049,-17.8556"/>
<polygon fill="midnightblue" stroke="midnightblue" points="42.3193,-53.1493 39.1993,-63.2743 47.9524,-57.3048 42.3193,-53.1493"/>
</g>
<!-- Node3 -->
<g id="node3" class="node"><title>Node3</title>
<g id="a_node3"><a xlink:href="../../dc/dd5/class_standard_model.html" target="_top" xlink:title="A model class for the Standard Model. ">
<polygon fill="none" stroke="red" points="131,-126.5 131,-143.5 202,-143.5 202,-126.5 131,-126.5"/>
<text text-anchor="middle" x="166.5" y="-133.1" font-family="Helvetica,sans-Serif" font-size="8.00">StandardModel</text>
</a>
</g>
</g>
<!-- Node3&#45;&gt;Node2 -->
<g id="edge2" class="edge"><title>Node3&#45;&gt;Node2</title>
<path fill="none" stroke="#9a32cd" stroke-dasharray="5,2" d="M120.93,-123.719C107.214,-119.75 92.3905,-114.555 79.5,-108 65.0091,-100.632 50.4375,-88.573 41.6902,-80.711"/>
<polygon fill="#9a32cd" stroke="#9a32cd" points="120.108,-127.123 130.678,-126.394 121.961,-120.373 120.108,-127.123"/>
<text text-anchor="middle" x="87" y="-101.6" font-family="Helvetica,sans-Serif" font-size="8.00"> SM</text>
</g>
<!-- Node5 -->
<g id="node5" class="node"><title>Node5</title>
<g id="a_node5"><a xlink:href="../../dc/df3/class_e_w_s_mcache.html" target="_top" xlink:title="A class for cache variables used in computing radiative corrections to the EW precision observables...">
<polygon fill="none" stroke="red" points="250,-63.5 250,-80.5 313,-80.5 313,-63.5 250,-63.5"/>
<text text-anchor="middle" x="281.5" y="-70.1" font-family="Helvetica,sans-Serif" font-size="8.00">EWSMcache</text>
</a>
</g>
</g>
<!-- Node3&#45;&gt;Node5 -->
<g id="edge5" class="edge"><title>Node3&#45;&gt;Node5</title>
<path fill="none" stroke="#9a32cd" stroke-dasharray="5,2" d="M212.368,-128.518C228.798,-124.789 246.659,-118.524 260.5,-108 269.751,-100.966 275.767,-88.5802 278.897,-80.5865"/>
<polygon fill="#9a32cd" stroke="#9a32cd" points="211.486,-125.125 202.372,-130.527 212.866,-131.988 211.486,-125.125"/>
<text text-anchor="middle" x="277" y="-101.6" font-family="Helvetica,sans-Serif" font-size="8.00"> SM</text>
</g>
<!-- Node10 -->
<g id="node10" class="node"><title>Node10</title>
<g id="a_node10"><a xlink:href="../../d2/df3/class_n_pbase.html" target="_top" xlink:title="The auxiliary base model class for other model classes. ">
<polygon fill="none" stroke="black" points="85,-63.5 85,-80.5 130,-80.5 130,-63.5 85,-63.5"/>
<text text-anchor="middle" x="107.5" y="-70.1" font-family="Helvetica,sans-Serif" font-size="8.00">NPbase</text>
</a>
</g>
</g>
<!-- Node3&#45;&gt;Node10 -->
<g id="edge13" class="edge"><title>Node3&#45;&gt;Node10</title>
<path fill="none" stroke="midnightblue" d="M151.756,-118.756C140.109,-106.714 124.329,-90.399 115.098,-80.8556"/>
<polygon fill="midnightblue" stroke="midnightblue" points="149.56,-121.52 159.028,-126.274 154.591,-116.653 149.56,-121.52"/>
</g>
<!-- Node3&#45;&gt;Node10 -->
<g id="edge14" class="edge"><title>Node3&#45;&gt;Node10</title>
<path fill="none" stroke="#9a32cd" stroke-dasharray="5,2" d="M121.425,-124.588C113.18,-120.794 105.586,-115.47 100.5,-108 94.92,-99.8045 99.0494,-88.1815 102.931,-80.6167"/>
<polygon fill="#9a32cd" stroke="#9a32cd" points="120.323,-127.915 130.912,-128.255 122.846,-121.386 120.323,-127.915"/>
<text text-anchor="middle" x="115" y="-101.6" font-family="Helvetica,sans-Serif" font-size="8.00"> trueSM</text>
</g>
<!-- Node4 -->
<g id="node4" class="node"><title>Node4</title>
<g id="a_node4"><a xlink:href="../../dd/dfa/class_q_c_d.html" target="_top" xlink:title="A class for parameters related to QCD, hadrons and quarks. ">
<polygon fill="none" stroke="red" points="97.5,-189.5 97.5,-206.5 131.5,-206.5 131.5,-189.5 97.5,-189.5"/>
<text text-anchor="middle" x="114.5" y="-196.1" font-family="Helvetica,sans-Serif" font-size="8.00">QCD</text>
</a>
</g>
</g>
<!-- Node4&#45;&gt;Node3 -->
<g id="edge3" class="edge"><title>Node4&#45;&gt;Node3</title>
<path fill="none" stroke="midnightblue" d="M127.792,-181.407C138.027,-169.401 151.746,-153.307 159.803,-143.856"/>
<polygon fill="midnightblue" stroke="midnightblue" points="124.91,-179.394 121.086,-189.274 130.237,-183.935 124.91,-179.394"/>
</g>
<!-- Node5&#45;&gt;Node3 -->
<g id="edge4" class="edge"><title>Node5&#45;&gt;Node3</title>
<path fill="none" stroke="#9a32cd" stroke-dasharray="5,2" d="M240.092,-82.0614C226.839,-86.0442 212.501,-91.555 200.5,-99 188.838,-106.234 178.32,-118.329 172.169,-126.235"/>
<polygon fill="#9a32cd" stroke="#9a32cd" points="241.269,-85.3669 249.96,-79.3069 239.387,-78.6247 241.269,-85.3669"/>
<text text-anchor="middle" x="230.5" y="-101.6" font-family="Helvetica,sans-Serif" font-size="8.00"> myEWSMcache</text>
</g>
<!-- Node7 -->
<g id="node7" class="node"><title>Node7</title>
<g id="a_node7"><a xlink:href="../../d5/dad/class_e_w_s_m_three_loop_e_w.html" target="_top" xlink:title="A class for &#160;three&#45;loop corrections to the EW precision observables. ">
<polygon fill="none" stroke="black" points="134,-0.5 134,-17.5 227,-17.5 227,-0.5 134,-0.5"/>
<text text-anchor="middle" x="180.5" y="-7.1" font-family="Helvetica,sans-Serif" font-size="8.00">EWSMThreeLoopEW</text>
</a>
</g>
</g>
<!-- Node5&#45;&gt;Node7 -->
<g id="edge8" class="edge"><title>Node5&#45;&gt;Node7</title>
<path fill="none" stroke="#9a32cd" stroke-dasharray="5,2" d="M260.133,-58.0954C239.831,-45.8337 209.982,-27.8058 193.188,-17.663"/>
<polygon fill="#9a32cd" stroke="#9a32cd" points="258.339,-61.1004 268.708,-63.2743 261.958,-55.1084 258.339,-61.1004"/>
<text text-anchor="middle" x="249.5" y="-38.6" font-family="Helvetica,sans-Serif" font-size="8.00"> cache</text>
</g>
<!-- Node9 -->
<g id="node9" class="node"><title>Node9</title>
<g id="a_node9"><a xlink:href="../../d5/dde/class_e_w_s_m_approximate_formulae.html" target="_top" xlink:title="A class for approximate formulae of the EW precision observables. ">
<polygon fill="none" stroke="black" points="274.5,-0.5 274.5,-17.5 394.5,-17.5 394.5,-0.5 274.5,-0.5"/>
<text text-anchor="middle" x="334.5" y="-7.1" font-family="Helvetica,sans-Serif" font-size="8.00">EWSMApproximateFormulae</text>
</a>
</g>
</g>
<!-- Node5&#45;&gt;Node9 -->
<g id="edge11" class="edge"><title>Node5&#45;&gt;Node9</title>
<path fill="none" stroke="#9a32cd" stroke-dasharray="5,2" d="M288.832,-54.1482C291.93,-48.069 295.893,-41.3853 300.5,-36 306.683,-28.7722 315.183,-22.2722 322.137,-17.5792"/>
<polygon fill="#9a32cd" stroke="#9a32cd" points="285.538,-52.9305 284.478,-63.4722 291.881,-55.8926 285.538,-52.9305"/>
<text text-anchor="middle" x="318" y="-38.6" font-family="Helvetica,sans-Serif" font-size="8.00"> mycache</text>
</g>
<!-- Node6 -->
<g id="node6" class="node"><title>Node6</title>
<g id="a_node6"><a xlink:href="../../d9/db9/class_c_k_m.html" target="_top" xlink:title="A class for the CKM matrix elements. ">
<polygon fill="none" stroke="red" points="149.5,-189.5 149.5,-206.5 183.5,-206.5 183.5,-189.5 149.5,-189.5"/>
<text text-anchor="middle" x="166.5" y="-196.1" font-family="Helvetica,sans-Serif" font-size="8.00">CKM</text>
</a>
</g>
</g>
<!-- Node6&#45;&gt;Node3 -->
<g id="edge6" class="edge"><title>Node6&#45;&gt;Node3</title>
<path fill="none" stroke="#9a32cd" stroke-dasharray="5,2" d="M166.5,-179.27C166.5,-167.549 166.5,-152.757 166.5,-143.856"/>
<polygon fill="#9a32cd" stroke="#9a32cd" points="163,-179.274 166.5,-189.274 170,-179.274 163,-179.274"/>
<text text-anchor="middle" x="182" y="-164.6" font-family="Helvetica,sans-Serif" font-size="8.00"> myCKM</text>
</g>
<!-- Node7&#45;&gt;Node3 -->
<g id="edge7" class="edge"><title>Node7&#45;&gt;Node3</title>
<path fill="none" stroke="#9a32cd" stroke-dasharray="5,2" d="M178.48,-27.8946C175.379,-55.3564 169.576,-106.758 167.376,-126.243"/>
<polygon fill="#9a32cd" stroke="#9a32cd" points="181.98,-28.0834 179.625,-17.7538 175.025,-27.298 181.98,-28.0834"/>
<text text-anchor="middle" x="207" y="-70.1" font-family="Helvetica,sans-Serif" font-size="8.00"> myThreeLoopEW</text>
</g>
<!-- Node8 -->
<g id="node8" class="node"><title>Node8</title>
<g id="a_node8"><a xlink:href="../../d4/d6d/class_flavour.html" target="_top" xlink:title="The parent class in Flavour for calculating all the Wilson coefficients for various Flavor Violating ...">
<polygon fill="none" stroke="red" points="202,-189.5 202,-206.5 245,-206.5 245,-189.5 202,-189.5"/>
<text text-anchor="middle" x="223.5" y="-196.1" font-family="Helvetica,sans-Serif" font-size="8.00">Flavour</text>
</a>
</g>
</g>
<!-- Node8&#45;&gt;Node3 -->
<g id="edge9" class="edge"><title>Node8&#45;&gt;Node3</title>
<path fill="none" stroke="#9a32cd" stroke-dasharray="5,2" d="M214.909,-180.608C211.238,-174.414 206.618,-167.532 201.5,-162 194.92,-154.888 186.17,-148.388 179.065,-143.666"/>
<polygon fill="#9a32cd" stroke="#9a32cd" points="211.919,-182.434 219.829,-189.482 218.041,-179.039 211.919,-182.434"/>
<text text-anchor="middle" x="229.5" y="-164.6" font-family="Helvetica,sans-Serif" font-size="8.00"> myFlavour</text>
</g>
<!-- Node9&#45;&gt;Node3 -->
<g id="edge10" class="edge"><title>Node9&#45;&gt;Node3</title>
<path fill="none" stroke="#9a32cd" stroke-dasharray="5,2" d="M336.47,-27.8083C336.694,-33.3547 336.538,-39.466 335.5,-45 329.059,-79.3345 319.988,-92.8728 288.5,-108 261.171,-121.129 227.247,-127.674 202.113,-130.91"/>
<polygon fill="#9a32cd" stroke="#9a32cd" points="339.938,-27.2662 335.639,-17.5828 332.961,-27.8337 339.938,-27.2662"/>
<text text-anchor="middle" x="377.5" y="-70.1" font-family="Helvetica,sans-Serif" font-size="8.00"> myApproximateFormulae</text>
</g>
<!-- Node10&#45;&gt;Node1 -->
<g id="edge12" class="edge"><title>Node10&#45;&gt;Node1</title>
<path fill="none" stroke="#9a32cd" stroke-dasharray="5,2" d="M99.4137,-53.9908C93.7897,-42.161 86.5535,-26.9402 82.2346,-17.8556"/>
<polygon fill="#9a32cd" stroke="#9a32cd" points="96.3725,-55.7457 103.827,-63.2743 102.694,-52.7402 96.3725,-55.7457"/>
<text text-anchor="middle" x="116.5" y="-38.6" font-family="Helvetica,sans-Serif" font-size="8.00"> myNPbase</text>
</g>
</g>
</svg>
