<?xml version="1.0" encoding="UTF-8" standalone="no"?>
<!DOCTYPE svg PUBLIC "-//W3C//DTD SVG 1.1//EN"
 "http://www.w3.org/Graphics/SVG/1.1/DTD/svg11.dtd">
<!-- Generated by graphviz version 2.40.1 (20161225.0304)
 -->
<!-- Title: Astrange.h Pages: 1 -->
<svg width="172pt" height="134pt"
 viewBox="0.00 0.00 172.00 134.00" xmlns="http://www.w3.org/2000/svg" xmlns:xlink="http://www.w3.org/1999/xlink">
<g id="graph0" class="graph" transform="scale(1 1) rotate(0) translate(4 130)">
<title>Astrange.h</title>
<!-- Node5 -->
<g id="node1" class="node">
<title>Node5</title>
<polygon fill="#bfbfbf" stroke="#000000" points="49.5,-108.5 49.5,-125.5 104.5,-125.5 104.5,-108.5 49.5,-108.5"/>
<text text-anchor="middle" x="77" y="-115.1" font-family="Helvetica,sans-Serif" font-size="8.00" fill="#000000">Astrange.h</text>
</g>
<!-- Node6 -->
<g id="node2" class="node">
<title>Node6</title>
<g id="a_node2"><a xlink:href="../../d4/d55/_astrange_8cpp.html" target="_top" xlink:title="Astrange.cpp">
<polygon fill="none" stroke="#000000" points="0,-54.5 0,-71.5 64,-71.5 64,-54.5 0,-54.5"/>
<text text-anchor="middle" x="32" y="-61.1" font-family="Helvetica,sans-Serif" font-size="8.00" fill="#000000">Astrange.cpp</text>
</a>
</g>
</g>
<!-- Node5&#45;&gt;Node6 -->
<g id="edge1" class="edge">
<title>Node5&#45;&gt;Node6</title>
<path fill="none" stroke="#191970" d="M62.9533,-100.144C55.1131,-90.7357 45.6705,-79.4046 39.2926,-71.7511"/>
<polygon fill="#191970" stroke="#191970" points="60.4785,-102.6414 69.5692,-108.083 65.8561,-98.1601 60.4785,-102.6414"/>
</g>
<!-- Node7 -->
<g id="node3" class="node">
<title>Node7</title>
<g id="a_node3"><a xlink:href="../../dd/df3/_e_w_observables_8h.html" target="_top" xlink:title="A header file for the observables defined in EW module. ">
<polygon fill="none" stroke="#000000" points="82.5,-54.5 82.5,-71.5 163.5,-71.5 163.5,-54.5 82.5,-54.5"/>
<text text-anchor="middle" x="123" y="-61.1" font-family="Helvetica,sans-Serif" font-size="8.00" fill="#000000">EWObservables.h</text>
</a>
</g>
</g>
<!-- Node5&#45;&gt;Node7 -->
<g id="edge2" class="edge">
<title>Node5&#45;&gt;Node7</title>
<path fill="none" stroke="#191970" d="M91.114,-100.4314C99.176,-90.9673 108.9592,-79.4827 115.5454,-71.7511"/>
<polygon fill="#191970" stroke="#191970" points="88.4163,-98.2009 84.596,-108.083 93.745,-102.7402 88.4163,-98.2009"/>
</g>
<!-- Node8 -->
<g id="node4" class="node">
<title>Node8</title>
<g id="a_node4"><a xlink:href="../../d1/de2/_th_obs_factory_8cpp.html" target="_top" xlink:title="ThObsFactory.cpp">
<polygon fill="none" stroke="#000000" points="82,-.5 82,-17.5 164,-17.5 164,-.5 82,-.5"/>
<text text-anchor="middle" x="123" y="-7.1" font-family="Helvetica,sans-Serif" font-size="8.00" fill="#000000">ThObsFactory.cpp</text>
</a>
</g>
</g>
<!-- Node7&#45;&gt;Node8 -->
<g id="edge3" class="edge">
<title>Node7&#45;&gt;Node8</title>
<path fill="none" stroke="#191970" d="M123,-43.8045C123,-34.9102 123,-24.7798 123,-17.7511"/>
<polygon fill="#191970" stroke="#191970" points="119.5001,-44.083 123,-54.083 126.5001,-44.083 119.5001,-44.083"/>
</g>
</g>
</svg>
