<?xml version="1.0" encoding="UTF-8" standalone="no"?>
<!DOCTYPE svg PUBLIC "-//W3C//DTD SVG 1.1//EN"
 "http://www.w3.org/Graphics/SVG/1.1/DTD/svg11.dtd">
<!-- Generated by graphviz version 2.38.0 (20140413.2041)
 -->
<!-- Title: NPEffectiveBS.h Pages: 1 -->
<svg width="190pt" height="80pt"
 viewBox="0.00 0.00 190.00 80.00" xmlns="http://www.w3.org/2000/svg" xmlns:xlink="http://www.w3.org/1999/xlink">
<g id="graph0" class="graph" transform="scale(1 1) rotate(0) translate(4 76)">
<title>NPEffectiveBS.h</title>
<!-- Node1 -->
<g id="node1" class="node"><title>Node1</title>
<polygon fill="#bfbfbf" stroke="black" points="52,-54.5 52,-71.5 128,-71.5 128,-54.5 52,-54.5"/>
<text text-anchor="middle" x="90" y="-61.1" font-family="Helvetica,sans-Serif" font-size="8.00">NPEffectiveBS.h</text>
</g>
<!-- Node2 -->
<g id="node2" class="node"><title>Node2</title>
<g id="a_node2"><a xlink:href="../../d3/df6/_model_factory_8cpp.html" target="_top" xlink:title="ModelFactory.cpp">
<polygon fill="none" stroke="black" points="0,-0.5 0,-17.5 80,-17.5 80,-0.5 0,-0.5"/>
<text text-anchor="middle" x="40" y="-7.1" font-family="Helvetica,sans-Serif" font-size="8.00">ModelFactory.cpp</text>
</a>
</g>
</g>
<!-- Node1&#45;&gt;Node2 -->
<g id="edge1" class="edge"><title>Node1&#45;&gt;Node2</title>
<path fill="none" stroke="midnightblue" d="M75.5797,-47.0029C66.3673,-37.422 54.8047,-25.3969 47.4079,-17.7043"/>
<polygon fill="midnightblue" stroke="midnightblue" points="73.1683,-49.5448 82.6223,-54.3272 78.2141,-44.693 73.1683,-49.5448"/>
</g>
<!-- Node3 -->
<g id="node3" class="node"><title>Node3</title>
<g id="a_node3"><a xlink:href="../../d8/dcd/_n_p_effective_b_s_8cpp.html" target="_top" xlink:title="NPEffectiveBS.cpp">
<polygon fill="none" stroke="black" points="98,-0.5 98,-17.5 182,-17.5 182,-0.5 98,-0.5"/>
<text text-anchor="middle" x="140" y="-7.1" font-family="Helvetica,sans-Serif" font-size="8.00">NPEffectiveBS.cpp</text>
</a>
</g>
</g>
<!-- Node1&#45;&gt;Node3 -->
<g id="edge2" class="edge"><title>Node1&#45;&gt;Node3</title>
<path fill="none" stroke="midnightblue" d="M104.42,-47.0029C113.633,-37.422 125.195,-25.3969 132.592,-17.7043"/>
<polygon fill="midnightblue" stroke="midnightblue" points="101.786,-44.693 97.3777,-54.3272 106.832,-49.5448 101.786,-44.693"/>
</g>
</g>
</svg>
