<?xml version="1.0" encoding="UTF-8" standalone="no"?>
<!DOCTYPE svg PUBLIC "-//W3C//DTD SVG 1.1//EN"
 "http://www.w3.org/Graphics/SVG/1.1/DTD/svg11.dtd">
<!-- Generated by graphviz version 2.40.1 (20161225.0304)
 -->
<!-- Title: GTHDM_ggF_htobb Pages: 1 -->
<svg width="474pt" height="288pt"
 viewBox="0.00 0.00 474.00 288.00" xmlns="http://www.w3.org/2000/svg" xmlns:xlink="http://www.w3.org/1999/xlink">
<g id="graph0" class="graph" transform="scale(1 1) rotate(0) translate(4 284)">
<title>GTHDM_ggF_htobb</title>
<!-- Node2 -->
<g id="node1" class="node">
<title>Node2</title>
<polygon fill="#bfbfbf" stroke="#000000" points="5,-.5 5,-17.5 94,-17.5 94,-.5 5,-.5"/>
<text text-anchor="middle" x="49.5" y="-7.1" font-family="Helvetica,sans-Serif" font-size="8.00" fill="#000000">GTHDM_ggF_htobb</text>
</g>
<!-- Node3 -->
<g id="node2" class="node">
<title>Node3</title>
<g id="a_node2"><a xlink:href="../../dc/d1f/class_th_observable.html" target="_top" xlink:title="A class for a model prediction of an observable. ">
<polygon fill="none" stroke="#000000" points="0,-99.5 0,-116.5 67,-116.5 67,-99.5 0,-99.5"/>
<text text-anchor="middle" x="33.5" y="-106.1" font-family="Helvetica,sans-Serif" font-size="8.00" fill="#000000">ThObservable</text>
</a>
</g>
</g>
<!-- Node3&#45;&gt;Node2 -->
<g id="edge1" class="edge">
<title>Node3&#45;&gt;Node2</title>
<path fill="none" stroke="#191970" d="M36.5182,-89.3249C39.9877,-67.8571 45.534,-33.5398 48.1061,-17.6245"/>
<polygon fill="#191970" stroke="#191970" points="33.0603,-88.7841 34.9199,-99.2144 39.9706,-89.9009 33.0603,-88.7841"/>
</g>
<!-- Node4 -->
<g id="node3" class="node">
<title>Node4</title>
<g id="a_node3"><a xlink:href="../../dc/dd5/class_standard_model.html" target="_top" xlink:title="A model class for the Standard Model. ">
<polygon fill="none" stroke="#ff0000" points="246,-207.5 246,-224.5 317,-224.5 317,-207.5 246,-207.5"/>
<text text-anchor="middle" x="281.5" y="-214.1" font-family="Helvetica,sans-Serif" font-size="8.00" fill="#000000">StandardModel</text>
</a>
</g>
</g>
<!-- Node4&#45;&gt;Node3 -->
<g id="edge2" class="edge">
<title>Node4&#45;&gt;Node3</title>
<path fill="none" stroke="#9a32cd" stroke-dasharray="5,2" d="M235.6832,-210.4413C176.8524,-202.4387 79.1559,-185.9522 52.5,-162 39.3415,-150.1762 35.2958,-128.6881 34.052,-116.6914"/>
<polygon fill="#9a32cd" stroke="#9a32cd" points="235.4619,-213.9425 245.8359,-211.7907 236.3843,-207.0036 235.4619,-213.9425"/>
<text text-anchor="middle" x="123" y="-182.6" font-family="Helvetica,sans-Serif" font-size="8.00" fill="#000000"> SM</text>
</g>
<!-- Node9 -->
<g id="node6" class="node">
<title>Node9</title>
<g id="a_node6"><a xlink:href="../../dc/df3/class_e_w_s_mcache.html" target="_top" xlink:title="A class for cache variables used in computing radiative corrections to the EW precision observables...">
<polygon fill="none" stroke="#ff0000" points="403,-140 403,-157 466,-157 466,-140 403,-140"/>
<text text-anchor="middle" x="434.5" y="-146.6" font-family="Helvetica,sans-Serif" font-size="8.00" fill="#000000">EWSMcache</text>
</a>
</g>
</g>
<!-- Node4&#45;&gt;Node9 -->
<g id="edge6" class="edge">
<title>Node4&#45;&gt;Node9</title>
<path fill="none" stroke="#9a32cd" stroke-dasharray="5,2" d="M310.146,-203.362C340.6807,-189.8909 388.213,-168.9207 414.7965,-157.1927"/>
<polygon fill="#9a32cd" stroke="#9a32cd" points="308.614,-200.2124 300.8776,-207.4511 311.4395,-206.6168 308.614,-200.2124"/>
<text text-anchor="middle" x="370" y="-182.6" font-family="Helvetica,sans-Serif" font-size="8.00" fill="#000000"> SM</text>
</g>
<!-- Node48 -->
<g id="node8" class="node">
<title>Node48</title>
<g id="a_node8"><a xlink:href="../../d2/df3/class_n_pbase.html" target="_top" xlink:title="The auxiliary base model class for other model classes. ">
<polygon fill="none" stroke="#000000" points="222,-140 222,-157 267,-157 267,-140 222,-140"/>
<text text-anchor="middle" x="244.5" y="-146.6" font-family="Helvetica,sans-Serif" font-size="8.00" fill="#000000">NPbase</text>
</a>
</g>
</g>
<!-- Node4&#45;&gt;Node48 -->
<g id="edge10" class="edge">
<title>Node4&#45;&gt;Node48</title>
<path fill="none" stroke="#191970" d="M251.9868,-201.8791C247.3692,-198.3354 243.2289,-194.0645 240.5,-189 235.1376,-179.048 238.0407,-165.7157 240.9721,-157.116"/>
<polygon fill="#191970" stroke="#191970" points="250.3206,-204.9705 260.6124,-207.4867 254.136,-199.1017 250.3206,-204.9705"/>
</g>
<!-- Node4&#45;&gt;Node48 -->
<g id="edge11" class="edge">
<title>Node4&#45;&gt;Node48</title>
<path fill="none" stroke="#9a32cd" stroke-dasharray="5,2" d="M267.3965,-199.3772C264.9217,-196.0561 262.5017,-192.5071 260.5,-189 254.5789,-178.6259 249.8719,-165.6301 247.1359,-157.2004"/>
<polygon fill="#9a32cd" stroke="#9a32cd" points="264.8586,-201.8087 273.8259,-207.4512 270.3345,-197.4481 264.8586,-201.8087"/>
<text text-anchor="middle" x="275" y="-182.6" font-family="Helvetica,sans-Serif" font-size="8.00" fill="#000000"> trueSM</text>
</g>
<!-- Node5 -->
<g id="node4" class="node">
<title>Node5</title>
<g id="a_node4"><a xlink:href="../../dd/dfa/class_q_c_d.html" target="_top" xlink:title="A class for parameters related to QCD, hadrons and quarks. ">
<polygon fill="none" stroke="#ff0000" points="264.5,-262.5 264.5,-279.5 298.5,-279.5 298.5,-262.5 264.5,-262.5"/>
<text text-anchor="middle" x="281.5" y="-269.1" font-family="Helvetica,sans-Serif" font-size="8.00" fill="#000000">QCD</text>
</a>
</g>
</g>
<!-- Node5&#45;&gt;Node4 -->
<g id="edge3" class="edge">
<title>Node5&#45;&gt;Node4</title>
<path fill="none" stroke="#191970" d="M281.5,-252.1166C281.5,-242.8173 281.5,-232.0557 281.5,-224.7149"/>
<polygon fill="#191970" stroke="#191970" points="278.0001,-252.4062 281.5,-262.4063 285.0001,-252.4063 278.0001,-252.4062"/>
</g>
<!-- Node8 -->
<g id="node5" class="node">
<title>Node8</title>
<g id="a_node5"><a xlink:href="../../db/d32/class_e_w_s_m_two_fermions_l_e_p2.html" target="_top" xlink:title="A class for the form factors , &#160;and &#160;in the processes &#160;at LEP&#45;II. ">
<polygon fill="none" stroke="#ff0000" points="290,-63.5 290,-80.5 399,-80.5 399,-63.5 290,-63.5"/>
<text text-anchor="middle" x="344.5" y="-70.1" font-family="Helvetica,sans-Serif" font-size="8.00" fill="#000000">EWSMTwoFermionsLEP2</text>
</a>
</g>
</g>
<!-- Node8&#45;&gt;Node4 -->
<g id="edge4" class="edge">
<title>Node8&#45;&gt;Node4</title>
<path fill="none" stroke="#9a32cd" stroke-dasharray="5,2" d="M335.2739,-89.7744C328.8934,-102.2955 320.3528,-119.5203 313.5,-135 301.9932,-160.9927 290.1292,-192.4925 284.6383,-207.3928"/>
<polygon fill="#9a32cd" stroke="#9a32cd" points="338.3951,-91.3582 339.8544,-80.8644 332.1695,-88.1578 338.3951,-91.3582"/>
<text text-anchor="middle" x="354" y="-146.6" font-family="Helvetica,sans-Serif" font-size="8.00" fill="#000000"> myTwoFermionsLEP2</text>
</g>
<!-- Node9&#45;&gt;Node4 -->
<g id="edge7" class="edge">
<title>Node9&#45;&gt;Node4</title>
<path fill="none" stroke="#9a32cd" stroke-dasharray="5,2" d="M417.701,-164.0638C407.8051,-172.5023 394.6744,-182.5038 381.5,-189 361.3392,-198.9411 337.0248,-205.6114 317.4198,-209.8349"/>
<polygon fill="#9a32cd" stroke="#9a32cd" points="420.3138,-166.4255 425.4846,-157.1781 415.6757,-161.1826 420.3138,-166.4255"/>
<text text-anchor="middle" x="425.5" y="-182.6" font-family="Helvetica,sans-Serif" font-size="8.00" fill="#000000"> myEWSMcache</text>
</g>
<!-- Node9&#45;&gt;Node8 -->
<g id="edge5" class="edge">
<title>Node9&#45;&gt;Node8</title>
<path fill="none" stroke="#9a32cd" stroke-dasharray="5,2" d="M416.4162,-133.1288C397.8726,-117.3667 369.6883,-93.4101 354.7037,-80.6732"/>
<polygon fill="#9a32cd" stroke="#9a32cd" points="414.2897,-135.9148 424.1759,-139.7245 418.8232,-130.5812 414.2897,-135.9148"/>
<text text-anchor="middle" x="406.5" y="-106.1" font-family="Helvetica,sans-Serif" font-size="8.00" fill="#000000"> cache</text>
</g>
<!-- Node47 -->
<g id="node7" class="node">
<title>Node47</title>
<g id="a_node7"><a xlink:href="../../d3/d55/class_general_t_h_d_m.html" target="_top" xlink:title="A base class for generic Two&#45;Higgs&#45;Doublet models. ">
<polygon fill="none" stroke="#000000" points="98.5,-63.5 98.5,-80.5 166.5,-80.5 166.5,-63.5 98.5,-63.5"/>
<text text-anchor="middle" x="132.5" y="-70.1" font-family="Helvetica,sans-Serif" font-size="8.00" fill="#000000">GeneralTHDM</text>
</a>
</g>
</g>
<!-- Node47&#45;&gt;Node2 -->
<g id="edge8" class="edge">
<title>Node47&#45;&gt;Node2</title>
<path fill="none" stroke="#9a32cd" stroke-dasharray="5,2" d="M102.6665,-58.9781C95.0821,-55.0193 87.1919,-50.2952 80.5,-45 70.41,-37.016 61.1057,-25.3943 55.3763,-17.5332"/>
<polygon fill="#9a32cd" stroke="#9a32cd" points="101.1482,-62.1317 111.6651,-63.4142 104.2434,-55.8532 101.1482,-62.1317"/>
<text text-anchor="middle" x="102" y="-38.6" font-family="Helvetica,sans-Serif" font-size="8.00" fill="#000000"> myGTHDM</text>
</g>
<!-- Node51 -->
<g id="node10" class="node">
<title>Node51</title>
<g id="a_node10"><a xlink:href="../../dc/dfd/class_general_t_h_d_mcache.html" target="_top" xlink:title="GeneralTHDMcache">
<polygon fill="none" stroke="#ff0000" points="133,-.5 133,-17.5 222,-17.5 222,-.5 133,-.5"/>
<text text-anchor="middle" x="177.5" y="-7.1" font-family="Helvetica,sans-Serif" font-size="8.00" fill="#000000">GeneralTHDMcache</text>
</a>
</g>
</g>
<!-- Node47&#45;&gt;Node51 -->
<g id="edge14" class="edge">
<title>Node47&#45;&gt;Node51</title>
<path fill="none" stroke="#9a32cd" stroke-dasharray="5,2" d="M126.8932,-53.5274C126.1207,-47.5922 126.4525,-41.2107 129.5,-36 134.3752,-27.6641 142.875,-21.7031 151.3805,-17.5405"/>
<polygon fill="#9a32cd" stroke="#9a32cd" points="123.5026,-54.4019 129.1285,-63.3796 130.3291,-52.853 123.5026,-54.4019"/>
<text text-anchor="middle" x="151" y="-38.6" font-family="Helvetica,sans-Serif" font-size="8.00" fill="#000000"> myGTHDM</text>
</g>
<!-- Node48&#45;&gt;Node47 -->
<g id="edge9" class="edge">
<title>Node48&#45;&gt;Node47</title>
<path fill="none" stroke="#191970" d="M224.7437,-133.8345C211.069,-123.8057 192.3658,-110.3291 175.5,-99 165.9875,-92.6102 155.0475,-85.7475 146.5829,-80.5399"/>
<polygon fill="#191970" stroke="#191970" points="222.8072,-136.7551 232.9339,-139.8697 226.9597,-131.1198 222.8072,-136.7551"/>
</g>
<!-- Node49 -->
<g id="node9" class="node">
<title>Node49</title>
<g id="a_node9"><a xlink:href="../../d5/d76/class_matching.html" target="_top" xlink:title="Matching\&lt; GeneralTHDMMatching,\l GeneralTHDM \&gt;">
<polygon fill="none" stroke="#ff0000" points="61.5,-135.5 61.5,-161.5 203.5,-161.5 203.5,-135.5 61.5,-135.5"/>
<text text-anchor="start" x="69.5" y="-151.1" font-family="Helvetica,sans-Serif" font-size="8.00" fill="#000000">Matching&lt; GeneralTHDMMatching,</text>
<text text-anchor="middle" x="132.5" y="-142.1" font-family="Helvetica,sans-Serif" font-size="8.00" fill="#000000"> GeneralTHDM &gt;</text>
</a>
</g>
</g>
<!-- Node49&#45;&gt;Node47 -->
<g id="edge12" class="edge">
<title>Node49&#45;&gt;Node47</title>
<path fill="none" stroke="#9a32cd" stroke-dasharray="5,2" d="M132.5,-125.0882C132.5,-110.1453 132.5,-91.6269 132.5,-80.8783"/>
<polygon fill="#9a32cd" stroke="#9a32cd" points="129.0001,-125.1747 132.5,-135.1747 136.0001,-125.1748 129.0001,-125.1747"/>
<text text-anchor="middle" x="152" y="-106.1" font-family="Helvetica,sans-Serif" font-size="8.00" fill="#000000"> GTHDMM</text>
</g>
<!-- Node51&#45;&gt;Node47 -->
<g id="edge13" class="edge">
<title>Node51&#45;&gt;Node47</title>
<path fill="none" stroke="#9a32cd" stroke-dasharray="5,2" d="M180.3389,-27.9192C180.3542,-33.7268 179.4362,-39.92 176.5,-45 171.8356,-53.0699 163.6993,-59.039 155.6818,-63.2825"/>
<polygon fill="#9a32cd" stroke="#9a32cd" points="183.7967,-27.2807 179.4451,-17.6208 176.8229,-27.886 183.7967,-27.2807"/>
<text text-anchor="middle" x="211.5" y="-38.6" font-family="Helvetica,sans-Serif" font-size="8.00" fill="#000000"> myGTHDMcache</text>
</g>
</g>
</svg>
