<?xml version="1.0" encoding="UTF-8" standalone="no"?>
<!DOCTYPE svg PUBLIC "-//W3C//DTD SVG 1.1//EN"
 "http://www.w3.org/Graphics/SVG/1.1/DTD/svg11.dtd">
<!-- Generated by graphviz version 2.40.1 (20161225.0304)
 -->
<!-- Title: WilsonCoefficientNew.cpp Pages: 1 -->
<svg width="489pt" height="251pt"
 viewBox="0.00 0.00 488.50 251.00" xmlns="http://www.w3.org/2000/svg" xmlns:xlink="http://www.w3.org/1999/xlink">
<g id="graph0" class="graph" transform="scale(1 1) rotate(0) translate(4 247)">
<title>WilsonCoefficientNew.cpp</title>
<!-- Node0 -->
<g id="node1" class="node">
<title>Node0</title>
<polygon fill="#bfbfbf" stroke="#000000" points="327.5,-225.5 327.5,-242.5 436.5,-242.5 436.5,-225.5 327.5,-225.5"/>
<text text-anchor="middle" x="382" y="-232.1" font-family="Helvetica,sans-Serif" font-size="8.00" fill="#000000">WilsonCoefficientNew.cpp</text>
</g>
<!-- Node1 -->
<g id="node2" class="node">
<title>Node1</title>
<g id="a_node2"><a xlink:href="../../d8/d68/_wilson_coefficient_new_8h.html" target="_top" xlink:title="WilsonCoefficientNew.h">
<polygon fill="none" stroke="#000000" points="331.5,-171.5 331.5,-188.5 432.5,-188.5 432.5,-171.5 331.5,-171.5"/>
<text text-anchor="middle" x="382" y="-178.1" font-family="Helvetica,sans-Serif" font-size="8.00" fill="#000000">WilsonCoefficientNew.h</text>
</a>
</g>
</g>
<!-- Node0&#45;&gt;Node1 -->
<g id="edge1" class="edge">
<title>Node0&#45;&gt;Node1</title>
<path fill="none" stroke="#191970" d="M382,-225.083C382,-218.0059 382,-207.8611 382,-198.9865"/>
<polygon fill="#191970" stroke="#191970" points="385.5001,-198.751 382,-188.7511 378.5001,-198.7511 385.5001,-198.751"/>
</g>
<!-- Node22 -->
<g id="node9" class="node">
<title>Node22</title>
<polygon fill="none" stroke="#bfbfbf" points="360.5,-59 360.5,-76 405.5,-76 405.5,-59 360.5,-59"/>
<text text-anchor="middle" x="383" y="-65.6" font-family="Helvetica,sans-Serif" font-size="8.00" fill="#000000">sstream</text>
</g>
<!-- Node0&#45;&gt;Node22 -->
<g id="edge11" class="edge">
<title>Node0&#45;&gt;Node22</title>
<path fill="none" stroke="#191970" d="M362.7036,-225.4805C348.571,-218.0809 330.4435,-205.887 322,-189 318.4223,-181.8446 321.778,-178.9969 322,-171 322.6669,-146.9722 314.3309,-138.5395 325,-117 332.2815,-102.2997 346.1042,-90.2323 358.4292,-81.6934"/>
<polygon fill="#191970" stroke="#191970" points="360.5433,-84.4939 367.024,-76.1123 356.7309,-78.623 360.5433,-84.4939"/>
</g>
<!-- Node14 -->
<g id="node10" class="node">
<title>Node14</title>
<polygon fill="none" stroke="#bfbfbf" points="429.5,-59 429.5,-76 480.5,-76 480.5,-59 429.5,-59"/>
<text text-anchor="middle" x="455" y="-65.6" font-family="Helvetica,sans-Serif" font-size="8.00" fill="#000000">stdexcept</text>
</g>
<!-- Node0&#45;&gt;Node14 -->
<g id="edge12" class="edge">
<title>Node0&#45;&gt;Node14</title>
<path fill="none" stroke="#191970" d="M399.8895,-225.4264C413.5759,-217.8565 431.6405,-205.4624 441,-189 459.4743,-156.5056 459.1609,-111.2477 457.1628,-86.1455"/>
<polygon fill="#191970" stroke="#191970" points="460.642,-85.7615 456.1876,-76.1486 453.6751,-86.4412 460.642,-85.7615"/>
</g>
<!-- Node2 -->
<g id="node3" class="node">
<title>Node2</title>
<g id="a_node3"><a xlink:href="../../da/dad/gslpp__vector__complex_8h.html" target="_top" xlink:title="gslpp_vector_complex.h">
<polygon fill="none" stroke="#000000" points="133.5,-117.5 133.5,-134.5 236.5,-134.5 236.5,-117.5 133.5,-117.5"/>
<text text-anchor="middle" x="185" y="-124.1" font-family="Helvetica,sans-Serif" font-size="8.00" fill="#000000">gslpp_vector_complex.h</text>
</a>
</g>
</g>
<!-- Node1&#45;&gt;Node2 -->
<g id="edge2" class="edge">
<title>Node1&#45;&gt;Node2</title>
<path fill="none" stroke="#191970" d="M350.7848,-171.4435C317.067,-162.2011 263.2001,-147.4356 226.0679,-137.2572"/>
<polygon fill="#191970" stroke="#191970" points="226.6387,-133.7846 216.0692,-134.5164 224.7882,-140.5356 226.6387,-133.7846"/>
</g>
<!-- Node9 -->
<g id="node8" class="node">
<title>Node9</title>
<g id="a_node8"><a xlink:href="../../dd/d8d/_wilson_template_new_8h.html" target="_top" xlink:title="WilsonTemplateNew.h">
<polygon fill="none" stroke="#ff0000" points="334.5,-117.5 334.5,-134.5 431.5,-134.5 431.5,-117.5 334.5,-117.5"/>
<text text-anchor="middle" x="383" y="-124.1" font-family="Helvetica,sans-Serif" font-size="8.00" fill="#000000">WilsonTemplateNew.h</text>
</a>
</g>
</g>
<!-- Node1&#45;&gt;Node9 -->
<g id="edge8" class="edge">
<title>Node1&#45;&gt;Node9</title>
<path fill="none" stroke="#191970" d="M382.1651,-171.083C382.2962,-164.0059 382.4841,-153.8611 382.6484,-144.9865"/>
<polygon fill="#191970" stroke="#191970" points="386.1521,-144.8142 382.8379,-134.7511 379.1533,-144.6845 386.1521,-144.8142"/>
</g>
<!-- Node3 -->
<g id="node4" class="node">
<title>Node3</title>
<polygon fill="none" stroke="#bfbfbf" points="127.5,-.5 127.5,-17.5 174.5,-17.5 174.5,-.5 127.5,-.5"/>
<text text-anchor="middle" x="151" y="-7.1" font-family="Helvetica,sans-Serif" font-size="8.00" fill="#000000">iostream</text>
</g>
<!-- Node2&#45;&gt;Node3 -->
<g id="edge3" class="edge">
<title>Node2&#45;&gt;Node3</title>
<path fill="none" stroke="#191970" d="M170.6299,-117.3302C159.1201,-109.4694 143.8113,-96.7221 137,-81 129.432,-63.5314 135.4777,-41.9109 141.8177,-26.9452"/>
<polygon fill="#191970" stroke="#191970" points="145.0372,-28.3227 146.0903,-17.7803 138.6927,-25.3649 145.0372,-28.3227"/>
</g>
<!-- Node4 -->
<g id="node5" class="node">
<title>Node4</title>
<polygon fill="none" stroke="#bfbfbf" points="242,-54.5 242,-80.5 342,-80.5 342,-54.5 242,-54.5"/>
<text text-anchor="start" x="250" y="-70.1" font-family="Helvetica,sans-Serif" font-size="8.00" fill="#000000">gsl/gsl_vector_complex</text>
<text text-anchor="middle" x="292" y="-61.1" font-family="Helvetica,sans-Serif" font-size="8.00" fill="#000000">_double.h</text>
</g>
<!-- Node2&#45;&gt;Node4 -->
<g id="edge4" class="edge">
<title>Node2&#45;&gt;Node4</title>
<path fill="none" stroke="#191970" d="M200.7882,-117.3681C216.0444,-109.0271 239.6249,-96.135 258.9879,-85.5487"/>
<polygon fill="#191970" stroke="#191970" points="260.7251,-88.5879 267.8203,-80.7197 257.367,-82.4459 260.7251,-88.5879"/>
</g>
<!-- Node5 -->
<g id="node6" class="node">
<title>Node5</title>
<g id="a_node6"><a xlink:href="../../d1/dc2/gslpp__complex_8h.html" target="_top" xlink:title="gslpp_complex.h">
<polygon fill="none" stroke="#ff0000" points="146.5,-59 146.5,-76 223.5,-76 223.5,-59 146.5,-59"/>
<text text-anchor="middle" x="185" y="-65.6" font-family="Helvetica,sans-Serif" font-size="8.00" fill="#000000">gslpp_complex.h</text>
</a>
</g>
</g>
<!-- Node2&#45;&gt;Node5 -->
<g id="edge5" class="edge">
<title>Node2&#45;&gt;Node5</title>
<path fill="none" stroke="#191970" d="M185,-117.3681C185,-109.2457 185,-96.8073 185,-86.3853"/>
<polygon fill="#191970" stroke="#191970" points="188.5001,-86.1673 185,-76.1673 181.5001,-86.1673 188.5001,-86.1673"/>
</g>
<!-- Node8 -->
<g id="node7" class="node">
<title>Node8</title>
<g id="a_node7"><a xlink:href="../../d3/d9f/gslpp__vector__base_8h.html" target="_top" xlink:title="gslpp_vector_base.h">
<polygon fill="none" stroke="#000000" points="0,-59 0,-76 90,-76 90,-59 0,-59"/>
<text text-anchor="middle" x="45" y="-65.6" font-family="Helvetica,sans-Serif" font-size="8.00" fill="#000000">gslpp_vector_base.h</text>
</a>
</g>
</g>
<!-- Node2&#45;&gt;Node8 -->
<g id="edge7" class="edge">
<title>Node2&#45;&gt;Node8</title>
<path fill="none" stroke="#191970" d="M164.6428,-117.4936C141.0029,-107.6155 101.8003,-91.2344 74.7475,-79.9302"/>
<polygon fill="#191970" stroke="#191970" points="75.9581,-76.6428 65.3818,-76.0167 73.2592,-83.1016 75.9581,-76.6428"/>
</g>
<!-- Node5&#45;&gt;Node3 -->
<g id="edge6" class="edge">
<title>Node5&#45;&gt;Node3</title>
<path fill="none" stroke="#191970" d="M179.9832,-58.8681C175.0615,-50.4 167.4135,-37.2409 161.2094,-26.5663"/>
<polygon fill="#191970" stroke="#191970" points="164.0884,-24.5544 156.0374,-17.6673 158.0363,-28.0719 164.0884,-24.5544"/>
</g>
<!-- Node9&#45;&gt;Node22 -->
<g id="edge9" class="edge">
<title>Node9&#45;&gt;Node22</title>
<path fill="none" stroke="#191970" d="M383,-117.3681C383,-109.2457 383,-96.8073 383,-86.3853"/>
<polygon fill="#191970" stroke="#191970" points="386.5001,-86.1673 383,-76.1673 379.5001,-86.1673 386.5001,-86.1673"/>
</g>
<!-- Node9&#45;&gt;Node14 -->
<g id="edge10" class="edge">
<title>Node9&#45;&gt;Node14</title>
<path fill="none" stroke="#191970" d="M393.6238,-117.3681C404.8969,-108.2087 422.9246,-93.5612 436.5315,-82.5056"/>
<polygon fill="#191970" stroke="#191970" points="438.7785,-85.1897 444.3326,-76.1673 434.3643,-79.7568 438.7785,-85.1897"/>
</g>
</g>
</svg>
