<?xml version="1.0" encoding="UTF-8" standalone="no"?>
<!DOCTYPE svg PUBLIC "-//W3C//DTD SVG 1.1//EN"
 "http://www.w3.org/Graphics/SVG/1.1/DTD/svg11.dtd">
<!-- Generated by graphviz version 2.38.0 (20140413.2041)
 -->
<!-- Title: Betas_JPsiPhi Pages: 1 -->
<svg width="439pt" height="215pt"
 viewBox="0.00 0.00 438.50 215.00" xmlns="http://www.w3.org/2000/svg" xmlns:xlink="http://www.w3.org/1999/xlink">
<g id="graph0" class="graph" transform="scale(1 1) rotate(0) translate(4 211)">
<title>Betas_JPsiPhi</title>
<!-- Node1 -->
<g id="node1" class="node"><title>Node1</title>
<polygon fill="#bfbfbf" stroke="black" points="55.5,-0.5 55.5,-17.5 123.5,-17.5 123.5,-0.5 55.5,-0.5"/>
<text text-anchor="middle" x="89.5" y="-7.1" font-family="Helvetica,sans-Serif" font-size="8.00">Betas_JPsiPhi</text>
</g>
<!-- Node2 -->
<g id="node2" class="node"><title>Node2</title>
<g id="a_node2"><a xlink:href="../../dc/d1f/class_th_observable.html" target="_top" xlink:title="A class for a model prediction of an observable. ">
<polygon fill="none" stroke="black" points="0,-63.5 0,-80.5 67,-80.5 67,-63.5 0,-63.5"/>
<text text-anchor="middle" x="33.5" y="-70.1" font-family="Helvetica,sans-Serif" font-size="8.00">ThObservable</text>
</a>
</g>
</g>
<!-- Node2&#45;&gt;Node1 -->
<g id="edge1" class="edge"><title>Node2&#45;&gt;Node1</title>
<path fill="none" stroke="midnightblue" d="M47.4945,-55.756C58.5493,-43.7141 73.5271,-27.399 82.2883,-17.8556"/>
<polygon fill="midnightblue" stroke="midnightblue" points="44.7769,-53.5408 40.5924,-63.2743 49.9335,-58.2747 44.7769,-53.5408"/>
</g>
<!-- Node3 -->
<g id="node3" class="node"><title>Node3</title>
<g id="a_node3"><a xlink:href="../../dc/dd5/class_standard_model.html" target="_top" xlink:title="A model class for the Standard Model. ">
<polygon fill="none" stroke="red" points="156,-126.5 156,-143.5 227,-143.5 227,-126.5 156,-126.5"/>
<text text-anchor="middle" x="191.5" y="-133.1" font-family="Helvetica,sans-Serif" font-size="8.00">StandardModel</text>
</a>
</g>
</g>
<!-- Node3&#45;&gt;Node2 -->
<g id="edge2" class="edge"><title>Node3&#45;&gt;Node2</title>
<path fill="none" stroke="#9a32cd" stroke-dasharray="5,2" d="M152.525,-123.639C137.632,-119.311 120.606,-113.912 105.5,-108 84.6621,-99.845 61.5567,-88.1041 47.2778,-80.5133"/>
<polygon fill="#9a32cd" stroke="#9a32cd" points="151.868,-127.091 162.444,-126.457 153.781,-120.358 151.868,-127.091"/>
<text text-anchor="middle" x="113" y="-101.6" font-family="Helvetica,sans-Serif" font-size="8.00"> SM</text>
</g>
<!-- Node5 -->
<g id="node5" class="node"><title>Node5</title>
<g id="a_node5"><a xlink:href="../../dc/df3/class_e_w_s_mcache.html" target="_top" xlink:title="A class for cache variables used in computing radiative corrections to the EW precision observables...">
<polygon fill="none" stroke="red" points="254,-63.5 254,-80.5 317,-80.5 317,-63.5 254,-63.5"/>
<text text-anchor="middle" x="285.5" y="-70.1" font-family="Helvetica,sans-Serif" font-size="8.00">EWSMcache</text>
</a>
</g>
</g>
<!-- Node3&#45;&gt;Node5 -->
<g id="edge5" class="edge"><title>Node3&#45;&gt;Node5</title>
<path fill="none" stroke="#9a32cd" stroke-dasharray="5,2" d="M199.174,-117.004C202.757,-110.634 207.558,-103.786 213.5,-99 225.092,-89.6627 240.322,-83.519 253.788,-79.5616"/>
<polygon fill="#9a32cd" stroke="#9a32cd" points="195.89,-115.748 194.558,-126.259 202.154,-118.873 195.89,-115.748"/>
<text text-anchor="middle" x="221" y="-101.6" font-family="Helvetica,sans-Serif" font-size="8.00"> SM</text>
</g>
<!-- Node10 -->
<g id="node10" class="node"><title>Node10</title>
<g id="a_node10"><a xlink:href="../../da/d29/class_amp_d_b2.html" target="_top" xlink:title="AmpDB2">
<polygon fill="none" stroke="black" points="85,-63.5 85,-80.5 134,-80.5 134,-63.5 85,-63.5"/>
<text text-anchor="middle" x="109.5" y="-70.1" font-family="Helvetica,sans-Serif" font-size="8.00">AmpDB2</text>
</a>
</g>
</g>
<!-- Node3&#45;&gt;Node10 -->
<g id="edge13" class="edge"><title>Node3&#45;&gt;Node10</title>
<path fill="none" stroke="#9a32cd" stroke-dasharray="5,2" d="M155.619,-122.61C147.126,-118.835 138.51,-114.017 131.5,-108 122.677,-100.428 116.211,-88.4232 112.652,-80.6285"/>
<polygon fill="#9a32cd" stroke="#9a32cd" points="154.48,-125.925 165.063,-126.436 157.109,-119.437 154.48,-125.925"/>
<text text-anchor="middle" x="144" y="-101.6" font-family="Helvetica,sans-Serif" font-size="8.00"> mySM</text>
</g>
<!-- Node4 -->
<g id="node4" class="node"><title>Node4</title>
<g id="a_node4"><a xlink:href="../../dd/dfa/class_q_c_d.html" target="_top" xlink:title="A class for parameters related to QCD, hadrons and quarks. ">
<polygon fill="none" stroke="red" points="122.5,-189.5 122.5,-206.5 156.5,-206.5 156.5,-189.5 122.5,-189.5"/>
<text text-anchor="middle" x="139.5" y="-196.1" font-family="Helvetica,sans-Serif" font-size="8.00">QCD</text>
</a>
</g>
</g>
<!-- Node4&#45;&gt;Node3 -->
<g id="edge3" class="edge"><title>Node4&#45;&gt;Node3</title>
<path fill="none" stroke="midnightblue" d="M152.792,-181.407C163.027,-169.401 176.746,-153.307 184.803,-143.856"/>
<polygon fill="midnightblue" stroke="midnightblue" points="149.91,-179.394 146.086,-189.274 155.237,-183.935 149.91,-179.394"/>
</g>
<!-- Node5&#45;&gt;Node3 -->
<g id="edge4" class="edge"><title>Node5&#45;&gt;Node3</title>
<path fill="none" stroke="#9a32cd" stroke-dasharray="5,2" d="M265.784,-86.1446C255.833,-92.7472 243.557,-100.844 232.5,-108 222.877,-114.228 211.907,-121.177 203.737,-126.323"/>
<polygon fill="#9a32cd" stroke="#9a32cd" points="267.777,-89.0222 274.167,-80.5711 263.902,-83.1929 267.777,-89.0222"/>
<text text-anchor="middle" x="276.5" y="-101.6" font-family="Helvetica,sans-Serif" font-size="8.00"> myEWSMcache</text>
</g>
<!-- Node7 -->
<g id="node7" class="node"><title>Node7</title>
<g id="a_node7"><a xlink:href="../../d5/dad/class_e_w_s_m_three_loop_e_w.html" target="_top" xlink:title="A class for &#160;three&#45;loop corrections to the EW precision observables. ">
<polygon fill="none" stroke="black" points="162,-0.5 162,-17.5 255,-17.5 255,-0.5 162,-0.5"/>
<text text-anchor="middle" x="208.5" y="-7.1" font-family="Helvetica,sans-Serif" font-size="8.00">EWSMThreeLoopEW</text>
</a>
</g>
</g>
<!-- Node5&#45;&gt;Node7 -->
<g id="edge8" class="edge"><title>Node5&#45;&gt;Node7</title>
<path fill="none" stroke="#9a32cd" stroke-dasharray="5,2" d="M267.559,-56.7872C252.252,-44.661 230.81,-27.6743 218.416,-17.8556"/>
<polygon fill="#9a32cd" stroke="#9a32cd" points="265.736,-59.8081 275.748,-63.2743 270.083,-54.3212 265.736,-59.8081"/>
<text text-anchor="middle" x="264.5" y="-38.6" font-family="Helvetica,sans-Serif" font-size="8.00"> cache</text>
</g>
<!-- Node9 -->
<g id="node9" class="node"><title>Node9</title>
<g id="a_node9"><a xlink:href="../../d5/dde/class_e_w_s_m_approximate_formulae.html" target="_top" xlink:title="A class for approximate formulae of the EW precision observables. ">
<polygon fill="none" stroke="black" points="283.5,-0.5 283.5,-17.5 403.5,-17.5 403.5,-0.5 283.5,-0.5"/>
<text text-anchor="middle" x="343.5" y="-7.1" font-family="Helvetica,sans-Serif" font-size="8.00">EWSMApproximateFormulae</text>
</a>
</g>
</g>
<!-- Node5&#45;&gt;Node9 -->
<g id="edge11" class="edge"><title>Node5&#45;&gt;Node9</title>
<path fill="none" stroke="#9a32cd" stroke-dasharray="5,2" d="M292.647,-53.9841C295.723,-47.8866 299.721,-41.2331 304.5,-36 311.304,-28.5489 320.667,-22.216 328.514,-17.6661"/>
<polygon fill="#9a32cd" stroke="#9a32cd" points="289.33,-52.8212 288.365,-63.372 295.699,-55.7263 289.33,-52.8212"/>
<text text-anchor="middle" x="322" y="-38.6" font-family="Helvetica,sans-Serif" font-size="8.00"> mycache</text>
</g>
<!-- Node6 -->
<g id="node6" class="node"><title>Node6</title>
<g id="a_node6"><a xlink:href="../../d9/db9/class_c_k_m.html" target="_top" xlink:title="A class for the CKM matrix elements. ">
<polygon fill="none" stroke="red" points="174.5,-189.5 174.5,-206.5 208.5,-206.5 208.5,-189.5 174.5,-189.5"/>
<text text-anchor="middle" x="191.5" y="-196.1" font-family="Helvetica,sans-Serif" font-size="8.00">CKM</text>
</a>
</g>
</g>
<!-- Node6&#45;&gt;Node3 -->
<g id="edge6" class="edge"><title>Node6&#45;&gt;Node3</title>
<path fill="none" stroke="#9a32cd" stroke-dasharray="5,2" d="M191.5,-179.27C191.5,-167.549 191.5,-152.757 191.5,-143.856"/>
<polygon fill="#9a32cd" stroke="#9a32cd" points="188,-179.274 191.5,-189.274 195,-179.274 188,-179.274"/>
<text text-anchor="middle" x="207" y="-164.6" font-family="Helvetica,sans-Serif" font-size="8.00"> myCKM</text>
</g>
<!-- Node7&#45;&gt;Node3 -->
<g id="edge7" class="edge"><title>Node7&#45;&gt;Node3</title>
<path fill="none" stroke="#9a32cd" stroke-dasharray="5,2" d="M196.846,-26.1987C190.343,-36.2576 182.887,-49.7547 179.5,-63 173.678,-85.7697 182.879,-113.387 188.177,-126.452"/>
<polygon fill="#9a32cd" stroke="#9a32cd" points="199.88,-27.9617 202.626,-17.7287 194.098,-24.0162 199.88,-27.9617"/>
<text text-anchor="middle" x="212" y="-70.1" font-family="Helvetica,sans-Serif" font-size="8.00"> myThreeLoopEW</text>
</g>
<!-- Node8 -->
<g id="node8" class="node"><title>Node8</title>
<g id="a_node8"><a xlink:href="../../d4/d6d/class_flavour.html" target="_top" xlink:title="The parent class in Flavour for calculating all the Wilson coefficients for various Flavor Violating ...">
<polygon fill="none" stroke="red" points="227,-189.5 227,-206.5 270,-206.5 270,-189.5 227,-189.5"/>
<text text-anchor="middle" x="248.5" y="-196.1" font-family="Helvetica,sans-Serif" font-size="8.00">Flavour</text>
</a>
</g>
</g>
<!-- Node8&#45;&gt;Node3 -->
<g id="edge9" class="edge"><title>Node8&#45;&gt;Node3</title>
<path fill="none" stroke="#9a32cd" stroke-dasharray="5,2" d="M239.909,-180.608C236.238,-174.414 231.618,-167.532 226.5,-162 219.92,-154.888 211.17,-148.388 204.065,-143.666"/>
<polygon fill="#9a32cd" stroke="#9a32cd" points="236.919,-182.434 244.829,-189.482 243.041,-179.039 236.919,-182.434"/>
<text text-anchor="middle" x="254.5" y="-164.6" font-family="Helvetica,sans-Serif" font-size="8.00"> myFlavour</text>
</g>
<!-- Node9&#45;&gt;Node3 -->
<g id="edge10" class="edge"><title>Node9&#45;&gt;Node3</title>
<path fill="none" stroke="#9a32cd" stroke-dasharray="5,2" d="M343.241,-27.762C341.844,-50.5322 335.649,-89.299 310.5,-108 286.488,-125.856 252.664,-131.916 227.211,-133.765"/>
<polygon fill="#9a32cd" stroke="#9a32cd" points="346.748,-27.6229 343.609,-17.5039 339.753,-27.3719 346.748,-27.6229"/>
<text text-anchor="middle" x="384.5" y="-70.1" font-family="Helvetica,sans-Serif" font-size="8.00"> myApproximateFormulae</text>
</g>
<!-- Node10&#45;&gt;Node1 -->
<g id="edge12" class="edge"><title>Node10&#45;&gt;Node1</title>
<path fill="none" stroke="#8b1a1a" d="M103.805,-53.6313C99.944,-41.8542 95.0241,-26.8484 92.0756,-17.8556"/>
<polygon fill="#8b1a1a" stroke="#8b1a1a" points="100.526,-54.8625 106.967,-63.2743 107.177,-52.6816 100.526,-54.8625"/>
</g>
</g>
</svg>
