<?xml version="1.0" encoding="UTF-8" standalone="no"?>
<!DOCTYPE svg PUBLIC "-//W3C//DTD SVG 1.1//EN"
 "http://www.w3.org/Graphics/SVG/1.1/DTD/svg11.dtd">
<!-- Generated by graphviz version 2.40.1 (20161225.0304)
 -->
<!-- Title: gslpp_complex.h Pages: 1 -->
<svg width="274pt" height="80pt"
 viewBox="0.00 0.00 273.50 80.00" xmlns="http://www.w3.org/2000/svg" xmlns:xlink="http://www.w3.org/1999/xlink">
<g id="graph0" class="graph" transform="scale(1 1) rotate(0) translate(4 76)">
<title>gslpp_complex.h</title>
<!-- Node0 -->
<g id="node1" class="node">
<title>Node0</title>
<polygon fill="#bfbfbf" stroke="#000000" points="67,-54.5 67,-71.5 144,-71.5 144,-54.5 67,-54.5"/>
<text text-anchor="middle" x="105.5" y="-61.1" font-family="Helvetica,sans-Serif" font-size="8.00" fill="#000000">gslpp_complex.h</text>
</g>
<!-- Node1 -->
<g id="node2" class="node">
<title>Node1</title>
<polygon fill="none" stroke="#bfbfbf" points="0,-.5 0,-17.5 47,-17.5 47,-.5 0,-.5"/>
<text text-anchor="middle" x="23.5" y="-7.1" font-family="Helvetica,sans-Serif" font-size="8.00" fill="#000000">iostream</text>
</g>
<!-- Node0&#45;&gt;Node1 -->
<g id="edge1" class="edge">
<title>Node0&#45;&gt;Node1</title>
<path fill="none" stroke="#191970" d="M92.3253,-54.324C79.6532,-45.979 60.2666,-33.2122 45.2944,-23.3524"/>
<polygon fill="#191970" stroke="#191970" points="46.9187,-20.2313 36.642,-17.6545 43.0688,-26.0776 46.9187,-20.2313"/>
</g>
<!-- Node2 -->
<g id="node3" class="node">
<title>Node2</title>
<polygon fill="none" stroke="#bfbfbf" points="65.5,-.5 65.5,-17.5 145.5,-17.5 145.5,-.5 65.5,-.5"/>
<text text-anchor="middle" x="105.5" y="-7.1" font-family="Helvetica,sans-Serif" font-size="8.00" fill="#000000">gsl/gsl_complex.h</text>
</g>
<!-- Node0&#45;&gt;Node2 -->
<g id="edge2" class="edge">
<title>Node0&#45;&gt;Node2</title>
<path fill="none" stroke="#191970" d="M105.5,-54.083C105.5,-47.0059 105.5,-36.8611 105.5,-27.9865"/>
<polygon fill="#191970" stroke="#191970" points="109.0001,-27.751 105.5,-17.7511 102.0001,-27.7511 109.0001,-27.751"/>
</g>
<!-- Node3 -->
<g id="node4" class="node">
<title>Node3</title>
<polygon fill="none" stroke="#bfbfbf" points="163.5,-.5 163.5,-17.5 265.5,-17.5 265.5,-.5 163.5,-.5"/>
<text text-anchor="middle" x="214.5" y="-7.1" font-family="Helvetica,sans-Serif" font-size="8.00" fill="#000000">gsl/gsl_complex_math.h</text>
</g>
<!-- Node0&#45;&gt;Node3 -->
<g id="edge3" class="edge">
<title>Node0&#45;&gt;Node3</title>
<path fill="none" stroke="#191970" d="M123.0127,-54.324C140.5724,-45.6247 167.8314,-32.1202 188.0312,-22.113"/>
<polygon fill="#191970" stroke="#191970" points="189.6238,-25.23 197.0307,-17.6545 186.5163,-18.9575 189.6238,-25.23"/>
</g>
</g>
</svg>
