<?xml version="1.0" encoding="UTF-8" standalone="no"?>
<!DOCTYPE svg PUBLIC "-//W3C//DTD SVG 1.1//EN"
 "http://www.w3.org/Graphics/SVG/1.1/DTD/svg11.dtd">
<!-- Generated by graphviz version 2.40.1 (20161225.0304)
 -->
<!-- Title: AlphaMz.h Pages: 1 -->
<svg width="171pt" height="134pt"
 viewBox="0.00 0.00 170.50 134.00" xmlns="http://www.w3.org/2000/svg" xmlns:xlink="http://www.w3.org/1999/xlink">
<g id="graph0" class="graph" transform="scale(1 1) rotate(0) translate(4 130)">
<title>AlphaMz.h</title>
<!-- Node5 -->
<g id="node1" class="node">
<title>Node5</title>
<polygon fill="#bfbfbf" stroke="#000000" points="49.5,-108.5 49.5,-125.5 103.5,-125.5 103.5,-108.5 49.5,-108.5"/>
<text text-anchor="middle" x="76.5" y="-115.1" font-family="Helvetica,sans-Serif" font-size="8.00" fill="#000000">AlphaMz.h</text>
</g>
<!-- Node6 -->
<g id="node2" class="node">
<title>Node6</title>
<g id="a_node2"><a xlink:href="../../d6/dfe/_alpha_mz_8cpp.html" target="_top" xlink:title="AlphaMz.cpp">
<polygon fill="none" stroke="#000000" points="0,-54.5 0,-71.5 63,-71.5 63,-54.5 0,-54.5"/>
<text text-anchor="middle" x="31.5" y="-61.1" font-family="Helvetica,sans-Serif" font-size="8.00" fill="#000000">AlphaMz.cpp</text>
</a>
</g>
</g>
<!-- Node5&#45;&gt;Node6 -->
<g id="edge1" class="edge">
<title>Node5&#45;&gt;Node6</title>
<path fill="none" stroke="#191970" d="M62.4533,-100.144C54.6131,-90.7357 45.1705,-79.4046 38.7926,-71.7511"/>
<polygon fill="#191970" stroke="#191970" points="59.9785,-102.6414 69.0692,-108.083 65.3561,-98.1601 59.9785,-102.6414"/>
</g>
<!-- Node7 -->
<g id="node3" class="node">
<title>Node7</title>
<g id="a_node3"><a xlink:href="../../dd/df3/_e_w_observables_8h.html" target="_top" xlink:title="A header file for the observables defined in EW module. ">
<polygon fill="none" stroke="#000000" points="81,-54.5 81,-71.5 162,-71.5 162,-54.5 81,-54.5"/>
<text text-anchor="middle" x="121.5" y="-61.1" font-family="Helvetica,sans-Serif" font-size="8.00" fill="#000000">EWObservables.h</text>
</a>
</g>
</g>
<!-- Node5&#45;&gt;Node7 -->
<g id="edge2" class="edge">
<title>Node5&#45;&gt;Node7</title>
<path fill="none" stroke="#191970" d="M90.5467,-100.144C98.3869,-90.7357 107.8295,-79.4046 114.2074,-71.7511"/>
<polygon fill="#191970" stroke="#191970" points="87.6439,-98.1601 83.9308,-108.083 93.0215,-102.6414 87.6439,-98.1601"/>
</g>
<!-- Node8 -->
<g id="node4" class="node">
<title>Node8</title>
<g id="a_node4"><a xlink:href="../../d1/de2/_th_obs_factory_8cpp.html" target="_top" xlink:title="ThObsFactory.cpp">
<polygon fill="none" stroke="#000000" points="80.5,-.5 80.5,-17.5 162.5,-17.5 162.5,-.5 80.5,-.5"/>
<text text-anchor="middle" x="121.5" y="-7.1" font-family="Helvetica,sans-Serif" font-size="8.00" fill="#000000">ThObsFactory.cpp</text>
</a>
</g>
</g>
<!-- Node7&#45;&gt;Node8 -->
<g id="edge3" class="edge">
<title>Node7&#45;&gt;Node8</title>
<path fill="none" stroke="#191970" d="M121.5,-43.8045C121.5,-34.9102 121.5,-24.7798 121.5,-17.7511"/>
<polygon fill="#191970" stroke="#191970" points="118.0001,-44.083 121.5,-54.083 125.0001,-44.083 118.0001,-44.083"/>
</g>
</g>
</svg>
