<?xml version="1.0" encoding="UTF-8" standalone="no"?>
<!DOCTYPE svg PUBLIC "-//W3C//DTD SVG 1.1//EN"
 "http://www.w3.org/Graphics/SVG/1.1/DTD/svg11.dtd">
<!-- Generated by graphviz version 2.40.1 (20161225.0304)
 -->
<!-- Title: THDMgminus2.h Pages: 1 -->
<svg width="202pt" height="134pt"
 viewBox="0.00 0.00 202.00 134.00" xmlns="http://www.w3.org/2000/svg" xmlns:xlink="http://www.w3.org/1999/xlink">
<g id="graph0" class="graph" transform="scale(1 1) rotate(0) translate(4 130)">
<title>THDMgminus2.h</title>
<!-- Node55 -->
<g id="node1" class="node">
<title>Node55</title>
<polygon fill="#bfbfbf" stroke="#000000" points="57,-108.5 57,-125.5 134,-125.5 134,-108.5 57,-108.5"/>
<text text-anchor="middle" x="95.5" y="-115.1" font-family="Helvetica,sans-Serif" font-size="8.00" fill="#000000">THDMgminus2.h</text>
</g>
<!-- Node56 -->
<g id="node2" class="node">
<title>Node56</title>
<g id="a_node2"><a xlink:href="../../dd/d88/_t_h_d_mgminus2_8cpp.html" target="_top" xlink:title="THDMgminus2.cpp">
<polygon fill="none" stroke="#000000" points="0,-54.5 0,-71.5 85,-71.5 85,-54.5 0,-54.5"/>
<text text-anchor="middle" x="42.5" y="-61.1" font-family="Helvetica,sans-Serif" font-size="8.00" fill="#000000">THDMgminus2.cpp</text>
</a>
</g>
</g>
<!-- Node55&#45;&gt;Node56 -->
<g id="edge1" class="edge">
<title>Node55&#45;&gt;Node56</title>
<path fill="none" stroke="#191970" d="M79.5191,-100.7175C70.1775,-91.1997 58.7541,-79.5608 51.089,-71.7511"/>
<polygon fill="#191970" stroke="#191970" points="77.2455,-103.3978 86.7481,-108.083 82.2413,-98.4945 77.2455,-103.3978"/>
</g>
<!-- Node57 -->
<g id="node3" class="node">
<title>Node57</title>
<g id="a_node3"><a xlink:href="../../d0/d3a/_t_h_d_m_observables_8h.html" target="_top" xlink:title="THDMObservables.h">
<polygon fill="none" stroke="#000000" points="103,-54.5 103,-71.5 194,-71.5 194,-54.5 103,-54.5"/>
<text text-anchor="middle" x="148.5" y="-61.1" font-family="Helvetica,sans-Serif" font-size="8.00" fill="#000000">THDMObservables.h</text>
</a>
</g>
</g>
<!-- Node55&#45;&gt;Node57 -->
<g id="edge2" class="edge">
<title>Node55&#45;&gt;Node57</title>
<path fill="none" stroke="#191970" d="M111.4809,-100.7175C120.8225,-91.1997 132.2459,-79.5608 139.911,-71.7511"/>
<polygon fill="#191970" stroke="#191970" points="108.7587,-98.4945 104.2519,-108.083 113.7545,-103.3978 108.7587,-98.4945"/>
</g>
<!-- Node58 -->
<g id="node4" class="node">
<title>Node58</title>
<g id="a_node4"><a xlink:href="../../d1/de2/_th_obs_factory_8cpp.html" target="_top" xlink:title="ThObsFactory.cpp">
<polygon fill="none" stroke="#000000" points="107.5,-.5 107.5,-17.5 189.5,-17.5 189.5,-.5 107.5,-.5"/>
<text text-anchor="middle" x="148.5" y="-7.1" font-family="Helvetica,sans-Serif" font-size="8.00" fill="#000000">ThObsFactory.cpp</text>
</a>
</g>
</g>
<!-- Node57&#45;&gt;Node58 -->
<g id="edge3" class="edge">
<title>Node57&#45;&gt;Node58</title>
<path fill="none" stroke="#191970" d="M148.5,-43.8045C148.5,-34.9102 148.5,-24.7798 148.5,-17.7511"/>
<polygon fill="#191970" stroke="#191970" points="145.0001,-44.083 148.5,-54.083 152.0001,-44.083 145.0001,-44.083"/>
</g>
</g>
</svg>
