<?xml version="1.0" encoding="UTF-8" standalone="no"?>
<!DOCTYPE svg PUBLIC "-//W3C//DTD SVG 1.1//EN"
 "http://www.w3.org/Graphics/SVG/1.1/DTD/svg11.dtd">
<!-- Generated by graphviz version 2.40.1 (20161225.0304)
 -->
<!-- Title: InputParser.cpp Pages: 1 -->
<svg width="636pt" height="197pt"
 viewBox="0.00 0.00 635.99 197.00" xmlns="http://www.w3.org/2000/svg" xmlns:xlink="http://www.w3.org/1999/xlink">
<g id="graph0" class="graph" transform="scale(1 1) rotate(0) translate(4 193)">
<title>InputParser.cpp</title>
<!-- Node0 -->
<g id="node1" class="node">
<title>Node0</title>
<polygon fill="#bfbfbf" stroke="#000000" points="287.993,-171.5 287.993,-188.5 360.993,-188.5 360.993,-171.5 287.993,-171.5"/>
<text text-anchor="middle" x="324.493" y="-178.1" font-family="Helvetica,sans-Serif" font-size="8.00" fill="#000000">InputParser.cpp</text>
</g>
<!-- Node1 -->
<g id="node2" class="node">
<title>Node1</title>
<g id="a_node2"><a xlink:href="../../d8/d48/_input_parser_8h.html" target="_top" xlink:title="InputParser.h">
<polygon fill="none" stroke="#ff0000" points="171.993,-113 171.993,-130 236.993,-130 236.993,-113 171.993,-113"/>
<text text-anchor="middle" x="204.493" y="-119.6" font-family="Helvetica,sans-Serif" font-size="8.00" fill="#000000">InputParser.h</text>
</a>
</g>
</g>
<!-- Node0&#45;&gt;Node1 -->
<g id="edge1" class="edge">
<title>Node0&#45;&gt;Node1</title>
<path fill="none" stroke="#191970" d="M307.044,-171.4936C287.1367,-161.7888 254.354,-145.8072 231.2209,-134.5298"/>
<polygon fill="#191970" stroke="#191970" points="232.4856,-131.2527 221.9631,-130.0167 229.4182,-137.5448 232.4856,-131.2527"/>
</g>
<!-- Node51 -->
<g id="node4" class="node">
<title>Node51</title>
<g id="a_node4"><a xlink:href="../../df/df3/_model_factory_8h.html" target="_top" xlink:title="ModelFactory.h">
<polygon fill="none" stroke="#ff0000" points="12.493,-54.5 12.493,-71.5 84.493,-71.5 84.493,-54.5 12.493,-54.5"/>
<text text-anchor="middle" x="48.493" y="-61.1" font-family="Helvetica,sans-Serif" font-size="8.00" fill="#000000">ModelFactory.h</text>
</a>
</g>
</g>
<!-- Node0&#45;&gt;Node51 -->
<g id="edge8" class="edge">
<title>Node0&#45;&gt;Node51</title>
<path fill="none" stroke="#191970" d="M287.7327,-173.0041C254.1937,-165.8789 203.7245,-153.2712 162.493,-135 126.9425,-119.2463 89.5289,-93.6218 67.6384,-77.5695"/>
<polygon fill="#191970" stroke="#191970" points="69.6324,-74.6907 59.5198,-71.5306 65.4545,-80.3072 69.6324,-74.6907"/>
</g>
<!-- Node17 -->
<g id="node6" class="node">
<title>Node17</title>
<polygon fill="none" stroke="#bfbfbf" points="180.993,-.5 180.993,-17.5 227.993,-17.5 227.993,-.5 180.993,-.5"/>
<text text-anchor="middle" x="204.493" y="-7.1" font-family="Helvetica,sans-Serif" font-size="8.00" fill="#000000">iostream</text>
</g>
<!-- Node0&#45;&gt;Node17 -->
<g id="edge12" class="edge">
<title>Node0&#45;&gt;Node17</title>
<path fill="none" stroke="#191970" d="M287.8737,-175.9735C244.4189,-170.3689 170.3195,-158.1836 110.493,-135 59.0353,-115.0594 30.882,-119.9101 3.493,-72 -.4774,-65.0548 -1.5078,-60.2443 3.493,-54 24.0923,-28.279 119.2103,-16.2691 170.8734,-11.5595"/>
<polygon fill="#191970" stroke="#191970" points="171.2348,-15.0414 180.8939,-10.688 170.6282,-8.0677 171.2348,-15.0414"/>
</g>
<!-- Node56 -->
<g id="node7" class="node">
<title>Node56</title>
<polygon fill="none" stroke="#bfbfbf" points="263.493,-.5 263.493,-17.5 349.493,-17.5 349.493,-.5 263.493,-.5"/>
<text text-anchor="middle" x="306.493" y="-7.1" font-family="Helvetica,sans-Serif" font-size="8.00" fill="#000000">boost/tokenizer.hpp</text>
</g>
<!-- Node0&#45;&gt;Node56 -->
<g id="edge13" class="edge">
<title>Node0&#45;&gt;Node56</title>
<path fill="none" stroke="#191970" d="M323.5757,-171.285C320.7959,-144.8774 312.4187,-65.2939 308.5243,-28.2968"/>
<polygon fill="#191970" stroke="#191970" points="311.9579,-27.4811 307.4302,-17.9025 304.9963,-28.214 311.9579,-27.4811"/>
</g>
<!-- Node11 -->
<g id="node8" class="node">
<title>Node11</title>
<polygon fill="none" stroke="#bfbfbf" points="352.993,-113 352.993,-130 403.993,-130 403.993,-113 352.993,-113"/>
<text text-anchor="middle" x="378.493" y="-119.6" font-family="Helvetica,sans-Serif" font-size="8.00" fill="#000000">stdexcept</text>
</g>
<!-- Node0&#45;&gt;Node11 -->
<g id="edge9" class="edge">
<title>Node0&#45;&gt;Node11</title>
<path fill="none" stroke="#191970" d="M332.4609,-171.3681C340.5967,-162.5544 353.4233,-148.6589 363.4727,-137.7721"/>
<polygon fill="#191970" stroke="#191970" points="366.2815,-139.8893 370.4925,-130.1673 361.1378,-135.1414 366.2815,-139.8893"/>
</g>
<!-- Node14 -->
<g id="node9" class="node">
<title>Node14</title>
<polygon fill="none" stroke="#bfbfbf" points="421.993,-113 421.993,-130 516.993,-130 516.993,-113 421.993,-113"/>
<text text-anchor="middle" x="469.493" y="-119.6" font-family="Helvetica,sans-Serif" font-size="8.00" fill="#000000">boost/lexical_cast.hpp</text>
</g>
<!-- Node0&#45;&gt;Node14 -->
<g id="edge10" class="edge">
<title>Node0&#45;&gt;Node14</title>
<path fill="none" stroke="#191970" d="M345.5773,-171.4936C370.1688,-161.5722 411.0206,-145.0906 439.051,-133.7818"/>
<polygon fill="#191970" stroke="#191970" points="440.4192,-137.004 448.3834,-130.0167 437.8001,-130.5124 440.4192,-137.004"/>
</g>
<!-- Node66 -->
<g id="node10" class="node">
<title>Node66</title>
<polygon fill="none" stroke="#bfbfbf" points="534.993,-108.5 534.993,-134.5 627.993,-134.5 627.993,-108.5 534.993,-108.5"/>
<text text-anchor="start" x="542.993" y="-124.1" font-family="Helvetica,sans-Serif" font-size="8.00" fill="#000000">boost/algorithm/string</text>
<text text-anchor="middle" x="581.493" y="-115.1" font-family="Helvetica,sans-Serif" font-size="8.00" fill="#000000">/predicate.hpp</text>
</g>
<!-- Node0&#45;&gt;Node66 -->
<g id="edge11" class="edge">
<title>Node0&#45;&gt;Node66</title>
<path fill="none" stroke="#191970" d="M361.0387,-172.1062C399.4841,-163.7473 462.0113,-149.9985 524.6511,-135.4062"/>
<polygon fill="#191970" stroke="#191970" points="525.7604,-138.7414 534.7016,-133.0577 524.1675,-131.925 525.7604,-138.7414"/>
</g>
<!-- Node2 -->
<g id="node3" class="node">
<title>Node2</title>
<g id="a_node3"><a xlink:href="../../d8/d81/_th_obs_factory_8h.html" target="_top" xlink:title="ThObsFactory.h">
<polygon fill="none" stroke="#ff0000" points="102.493,-54.5 102.493,-71.5 176.493,-71.5 176.493,-54.5 102.493,-54.5"/>
<text text-anchor="middle" x="139.493" y="-61.1" font-family="Helvetica,sans-Serif" font-size="8.00" fill="#000000">ThObsFactory.h</text>
</a>
</g>
</g>
<!-- Node1&#45;&gt;Node2 -->
<g id="edge2" class="edge">
<title>Node1&#45;&gt;Node2</title>
<path fill="none" stroke="#191970" d="M194.9021,-112.8681C184.917,-103.8816 169.062,-89.612 156.8655,-78.6352"/>
<polygon fill="#191970" stroke="#191970" points="158.8977,-75.7554 149.1234,-71.6673 154.2149,-80.9585 158.8977,-75.7554"/>
</g>
<!-- Node1&#45;&gt;Node51 -->
<g id="edge3" class="edge">
<title>Node1&#45;&gt;Node51</title>
<path fill="none" stroke="#191970" d="M181.8093,-112.9936C155.2366,-103.0289 111.0171,-86.4465 80.8502,-75.1339"/>
<polygon fill="#191970" stroke="#191970" points="81.7964,-71.7508 71.2042,-71.5167 79.3385,-78.3051 81.7964,-71.7508"/>
</g>
<!-- Node52 -->
<g id="node5" class="node">
<title>Node52</title>
<g id="a_node5"><a xlink:href="../../d8/db2/_observable_8h.html" target="_top" xlink:title="Observable.h">
<polygon fill="none" stroke="#ff0000" points="232.493,-54.5 232.493,-71.5 296.493,-71.5 296.493,-54.5 232.493,-54.5"/>
<text text-anchor="middle" x="264.493" y="-61.1" font-family="Helvetica,sans-Serif" font-size="8.00" fill="#000000">Observable.h</text>
</a>
</g>
</g>
<!-- Node1&#45;&gt;Node52 -->
<g id="edge4" class="edge">
<title>Node1&#45;&gt;Node52</title>
<path fill="none" stroke="#191970" d="M213.3463,-112.8681C222.4746,-103.968 236.9177,-89.8859 248.1313,-78.9527"/>
<polygon fill="#191970" stroke="#191970" points="250.8868,-81.1543 255.6035,-71.6673 246.0001,-76.1423 250.8868,-81.1543"/>
</g>
<!-- Node1&#45;&gt;Node17 -->
<g id="edge7" class="edge">
<title>Node1&#45;&gt;Node17</title>
<path fill="none" stroke="#191970" d="M204.493,-112.6723C204.493,-94.5173 204.493,-52.6361 204.493,-28.0201"/>
<polygon fill="#191970" stroke="#191970" points="207.9931,-27.7866 204.493,-17.7867 200.9931,-27.7867 207.9931,-27.7866"/>
</g>
<!-- Node52&#45;&gt;Node17 -->
<g id="edge5" class="edge">
<title>Node52&#45;&gt;Node17</title>
<path fill="none" stroke="#191970" d="M254.853,-54.324C245.9835,-46.3414 232.6183,-34.3128 221.8851,-24.6529"/>
<polygon fill="#191970" stroke="#191970" points="224.0828,-21.922 214.3085,-17.8339 219.4001,-27.1251 224.0828,-21.922"/>
</g>
<!-- Node52&#45;&gt;Node56 -->
<g id="edge6" class="edge">
<title>Node52&#45;&gt;Node56</title>
<path fill="none" stroke="#191970" d="M271.4285,-54.083C277.4222,-46.3768 286.2449,-35.0333 293.5407,-25.6531"/>
<polygon fill="#191970" stroke="#191970" points="296.3099,-27.7934 299.6867,-17.7511 290.7845,-23.4958 296.3099,-27.7934"/>
</g>
</g>
</svg>
