<?xml version="1.0" encoding="UTF-8" standalone="no"?>
<!DOCTYPE svg PUBLIC "-//W3C//DTD SVG 1.1//EN"
 "http://www.w3.org/Graphics/SVG/1.1/DTD/svg11.dtd">
<!-- Generated by graphviz version 2.40.1 (20161225.0304)
 -->
<!-- Title: QCD Pages: 1 -->
<svg width="108pt" height="89pt"
 viewBox="0.00 0.00 107.50 89.00" xmlns="http://www.w3.org/2000/svg" xmlns:xlink="http://www.w3.org/1999/xlink">
<g id="graph0" class="graph" transform="scale(1 1) rotate(0) translate(4 85)">
<title>QCD</title>
<!-- Node41 -->
<g id="node1" class="node">
<title>Node41</title>
<polygon fill="#bfbfbf" stroke="#000000" points="31,-.5 31,-17.5 65,-17.5 65,-.5 31,-.5"/>
<text text-anchor="middle" x="48" y="-7.1" font-family="Helvetica,sans-Serif" font-size="8.00" fill="#000000">QCD</text>
</g>
<!-- Node42 -->
<g id="node2" class="node">
<title>Node42</title>
<g id="a_node2"><a xlink:href="../../d0/de3/class_model.html" target="_top" xlink:title="A class for the template of models. ">
<polygon fill="none" stroke="#000000" points="0,-63.5 0,-80.5 38,-80.5 38,-63.5 0,-63.5"/>
<text text-anchor="middle" x="19" y="-70.1" font-family="Helvetica,sans-Serif" font-size="8.00" fill="#000000">Model</text>
</a>
</g>
</g>
<!-- Node42&#45;&gt;Node41 -->
<g id="edge1" class="edge">
<title>Node42&#45;&gt;Node41</title>
<path fill="none" stroke="#191970" d="M27.3687,-53.8197C32.8367,-41.9409 39.7306,-26.9645 44.0019,-17.6855"/>
<polygon fill="#191970" stroke="#191970" points="24.0345,-52.6928 23.0323,-63.2401 30.3932,-55.6198 24.0345,-52.6928"/>
</g>
<!-- Node43 -->
<g id="node3" class="node">
<title>Node43</title>
<g id="a_node3"><a xlink:href="../../de/d85/class_particle.html" target="_top" xlink:title="A class for particles. ">
<polygon fill="none" stroke="#000000" points="56.5,-63.5 56.5,-80.5 99.5,-80.5 99.5,-63.5 56.5,-63.5"/>
<text text-anchor="middle" x="78" y="-70.1" font-family="Helvetica,sans-Serif" font-size="8.00" fill="#000000">Particle</text>
</a>
</g>
</g>
<!-- Node43&#45;&gt;Node41 -->
<g id="edge2" class="edge">
<title>Node43&#45;&gt;Node41</title>
<path fill="none" stroke="#9a32cd" stroke-dasharray="5,2" d="M69.5136,-54.1787C63.8305,-42.244 56.5992,-27.0582 52.1359,-17.6855"/>
<polygon fill="#9a32cd" stroke="#9a32cd" points="66.3692,-55.7163 73.8286,-63.2401 72.6893,-52.7067 66.3692,-55.7163"/>
<text text-anchor="middle" x="77.5" y="-38.6" font-family="Helvetica,sans-Serif" font-size="8.00" fill="#000000"> quarks</text>
</g>
</g>
</svg>
