<?xml version="1.0" encoding="UTF-8" standalone="no"?>
<!DOCTYPE svg PUBLIC "-//W3C//DTD SVG 1.1//EN"
 "http://www.w3.org/Graphics/SVG/1.1/DTD/svg11.dtd">
<!-- Generated by graphviz version 2.40.1 (20161225.0304)
 -->
<!-- Title: EvolDC1.h Pages: 1 -->
<svg width="152pt" height="80pt"
 viewBox="0.00 0.00 151.50 80.00" xmlns="http://www.w3.org/2000/svg" xmlns:xlink="http://www.w3.org/1999/xlink">
<g id="graph0" class="graph" transform="scale(1 1) rotate(0) translate(4 76)">
<title>EvolDC1.h</title>
<!-- Node22 -->
<g id="node1" class="node">
<title>Node22</title>
<polygon fill="#bfbfbf" stroke="#000000" points="44,-54.5 44,-71.5 99,-71.5 99,-54.5 44,-54.5"/>
<text text-anchor="middle" x="71.5" y="-61.1" font-family="Helvetica,sans-Serif" font-size="8.00" fill="#000000">EvolDC1.h</text>
</g>
<!-- Node23 -->
<g id="node2" class="node">
<title>Node23</title>
<g id="a_node2"><a xlink:href="../../d2/d4f/_evol_d_c1_8cpp.html" target="_top" xlink:title="EvolDC1.cpp">
<polygon fill="none" stroke="#000000" points="0,-.5 0,-17.5 63,-17.5 63,-.5 0,-.5"/>
<text text-anchor="middle" x="31.5" y="-7.1" font-family="Helvetica,sans-Serif" font-size="8.00" fill="#000000">EvolDC1.cpp</text>
</a>
</g>
</g>
<!-- Node22&#45;&gt;Node23 -->
<g id="edge1" class="edge">
<title>Node22&#45;&gt;Node23</title>
<path fill="none" stroke="#191970" d="M58.8003,-45.8554C51.874,-36.5048 43.5937,-25.3265 37.9823,-17.7511"/>
<polygon fill="#191970" stroke="#191970" points="56.13,-48.1307 64.8948,-54.083 61.755,-43.9641 56.13,-48.1307"/>
</g>
<!-- Node24 -->
<g id="node3" class="node">
<title>Node24</title>
<g id="a_node3"><a xlink:href="../../d5/d42/_heff_d_c1_8cpp.html" target="_top" xlink:title="HeffDC1.cpp">
<polygon fill="none" stroke="#000000" points="81.5,-.5 81.5,-17.5 143.5,-17.5 143.5,-.5 81.5,-.5"/>
<text text-anchor="middle" x="112.5" y="-7.1" font-family="Helvetica,sans-Serif" font-size="8.00" fill="#000000">HeffDC1.cpp</text>
</a>
</g>
</g>
<!-- Node22&#45;&gt;Node24 -->
<g id="edge2" class="edge">
<title>Node22&#45;&gt;Node24</title>
<path fill="none" stroke="#191970" d="M84.5172,-45.8554C91.6167,-36.5048 100.104,-25.3265 105.8557,-17.7511"/>
<polygon fill="#191970" stroke="#191970" points="81.5299,-44.002 78.2703,-54.083 87.105,-48.235 81.5299,-44.002"/>
</g>
</g>
</svg>
