<?xml version="1.0" encoding="UTF-8" standalone="no"?>
<!DOCTYPE svg PUBLIC "-//W3C//DTD SVG 1.1//EN"
 "http://www.w3.org/Graphics/SVG/1.1/DTD/svg11.dtd">
<!-- Generated by graphviz version 2.40.1 (20161225.0304)
 -->
<!-- Title: StandardModelMatching.cpp Pages: 1 -->
<svg width="334pt" height="242pt"
 viewBox="0.00 0.00 334.21 242.00" xmlns="http://www.w3.org/2000/svg" xmlns:xlink="http://www.w3.org/1999/xlink">
<g id="graph0" class="graph" transform="scale(1 1) rotate(0) translate(4 238)">
<title>StandardModelMatching.cpp</title>
<!-- Node0 -->
<g id="node1" class="node">
<title>Node0</title>
<polygon fill="#bfbfbf" stroke="#000000" points="96.7083,-216.5 96.7083,-233.5 214.7083,-233.5 214.7083,-216.5 96.7083,-216.5"/>
<text text-anchor="middle" x="155.7083" y="-223.1" font-family="Helvetica,sans-Serif" font-size="8.00" fill="#000000">StandardModelMatching.cpp</text>
</g>
<!-- Node1 -->
<g id="node2" class="node">
<title>Node1</title>
<g id="a_node2"><a xlink:href="../../d6/d16/_standard_model_matching_8h.html" target="_top" xlink:title="StandardModelMatching.h">
<polygon fill="none" stroke="#000000" points="13.7083,-108.5 13.7083,-125.5 123.7083,-125.5 123.7083,-108.5 13.7083,-108.5"/>
<text text-anchor="middle" x="68.7083" y="-115.1" font-family="Helvetica,sans-Serif" font-size="8.00" fill="#000000">StandardModelMatching.h</text>
</a>
</g>
</g>
<!-- Node0&#45;&gt;Node1 -->
<g id="edge1" class="edge">
<title>Node0&#45;&gt;Node1</title>
<path fill="none" stroke="#191970" d="M145.292,-216.3351C135.2724,-207.712 120.0204,-193.8065 108.7083,-180 96.9306,-165.6252 85.7935,-147.5807 78.2766,-134.4916"/>
<polygon fill="#191970" stroke="#191970" points="81.2286,-132.6 73.2835,-125.5911 75.1237,-136.0249 81.2286,-132.6"/>
</g>
<!-- Node27 -->
<g id="node4" class="node">
<title>Node27</title>
<g id="a_node4"><a xlink:href="../../d4/d68/_q_c_d_8h.html" target="_top" xlink:title="QCD.h">
<polygon fill="none" stroke="#ff0000" points="112.2083,-.5 112.2083,-17.5 153.2083,-17.5 153.2083,-.5 112.2083,-.5"/>
<text text-anchor="middle" x="132.7083" y="-7.1" font-family="Helvetica,sans-Serif" font-size="8.00" fill="#000000">QCD.h</text>
</a>
</g>
</g>
<!-- Node0&#45;&gt;Node27 -->
<g id="edge12" class="edge">
<title>Node0&#45;&gt;Node27</title>
<path fill="none" stroke="#191970" d="M128.9773,-216.4823C93.1671,-203.4564 31.0769,-174.8185 4.7083,-126 -4.4837,-108.9818 1.4533,-69.9045 14.7083,-54 36.3945,-27.9793 74.881,-16.9761 101.9924,-12.3413"/>
<polygon fill="#191970" stroke="#191970" points="102.7563,-15.7657 112.1218,-10.812 101.7113,-8.8441 102.7563,-15.7657"/>
</g>
<!-- Node40 -->
<g id="node6" class="node">
<title>Node40</title>
<g id="a_node6"><a xlink:href="../../d6/d0a/_standard_model_8h.html" target="_top" xlink:title="StandardModel.h">
<polygon fill="none" stroke="#ff0000" points="117.2083,-162.5 117.2083,-179.5 194.2083,-179.5 194.2083,-162.5 117.2083,-162.5"/>
<text text-anchor="middle" x="155.7083" y="-169.1" font-family="Helvetica,sans-Serif" font-size="8.00" fill="#000000">StandardModel.h</text>
</a>
</g>
</g>
<!-- Node0&#45;&gt;Node40 -->
<g id="edge5" class="edge">
<title>Node0&#45;&gt;Node40</title>
<path fill="none" stroke="#191970" d="M155.7083,-216.083C155.7083,-209.0059 155.7083,-198.8611 155.7083,-189.9865"/>
<polygon fill="#191970" stroke="#191970" points="159.2084,-189.751 155.7083,-179.7511 152.2084,-189.7511 159.2084,-189.751"/>
</g>
<!-- Node14 -->
<g id="node9" class="node">
<title>Node14</title>
<polygon fill="none" stroke="#bfbfbf" points="212.2083,-162.5 212.2083,-179.5 263.2083,-179.5 263.2083,-162.5 212.2083,-162.5"/>
<text text-anchor="middle" x="237.7083" y="-169.1" font-family="Helvetica,sans-Serif" font-size="8.00" fill="#000000">stdexcept</text>
</g>
<!-- Node0&#45;&gt;Node14 -->
<g id="edge13" class="edge">
<title>Node0&#45;&gt;Node14</title>
<path fill="none" stroke="#191970" d="M168.8831,-216.324C181.5551,-207.979 200.9417,-195.2122 215.9139,-185.3524"/>
<polygon fill="#191970" stroke="#191970" points="218.1396,-188.0776 224.5663,-179.6545 214.2896,-182.2313 218.1396,-188.0776"/>
</g>
<!-- Node13 -->
<g id="node10" class="node">
<title>Node13</title>
<polygon fill="none" stroke="#bfbfbf" points="281.2083,-162.5 281.2083,-179.5 326.2083,-179.5 326.2083,-162.5 281.2083,-162.5"/>
<text text-anchor="middle" x="303.7083" y="-169.1" font-family="Helvetica,sans-Serif" font-size="8.00" fill="#000000">sstream</text>
</g>
<!-- Node0&#45;&gt;Node13 -->
<g id="edge14" class="edge">
<title>Node0&#45;&gt;Node13</title>
<path fill="none" stroke="#191970" d="M179.1594,-216.4435C203.9861,-207.3851 243.3536,-193.0213 271.1743,-182.8705"/>
<polygon fill="#191970" stroke="#191970" points="272.6588,-186.0547 280.8533,-179.339 270.2594,-179.4787 272.6588,-186.0547"/>
</g>
<!-- Node2 -->
<g id="node3" class="node">
<title>Node2</title>
<g id="a_node3"><a xlink:href="../../d6/d46/_model_matching_8h.html" target="_top" xlink:title="ModelMatching.h">
<polygon fill="none" stroke="#ff0000" points="23.2083,-54.5 23.2083,-71.5 100.2083,-71.5 100.2083,-54.5 23.2083,-54.5"/>
<text text-anchor="middle" x="61.7083" y="-61.1" font-family="Helvetica,sans-Serif" font-size="8.00" fill="#000000">ModelMatching.h</text>
</a>
</g>
</g>
<!-- Node1&#45;&gt;Node2 -->
<g id="edge2" class="edge">
<title>Node1&#45;&gt;Node2</title>
<path fill="none" stroke="#191970" d="M67.5524,-108.083C66.6248,-100.9272 65.2907,-90.6353 64.1313,-81.6911"/>
<polygon fill="#191970" stroke="#191970" points="67.5993,-81.2181 62.8427,-71.7511 60.6574,-82.1181 67.5993,-81.2181"/>
</g>
<!-- Node38 -->
<g id="node5" class="node">
<title>Node38</title>
<g id="a_node5"><a xlink:href="../../d9/d72/gslpp_8h.html" target="_top" xlink:title="gslpp.h">
<polygon fill="none" stroke="#ff0000" points="118.7083,-54.5 118.7083,-71.5 160.7083,-71.5 160.7083,-54.5 118.7083,-54.5"/>
<text text-anchor="middle" x="139.7083" y="-61.1" font-family="Helvetica,sans-Serif" font-size="8.00" fill="#000000">gslpp.h</text>
</a>
</g>
</g>
<!-- Node1&#45;&gt;Node38 -->
<g id="edge4" class="edge">
<title>Node1&#45;&gt;Node38</title>
<path fill="none" stroke="#191970" d="M80.1157,-108.324C90.8171,-100.1849 107.049,-87.8395 119.8712,-78.0874"/>
<polygon fill="#191970" stroke="#191970" points="122.2527,-80.6734 128.0934,-71.8339 118.0151,-75.1018 122.2527,-80.6734"/>
</g>
<!-- Node2&#45;&gt;Node27 -->
<g id="edge3" class="edge">
<title>Node2&#45;&gt;Node27</title>
<path fill="none" stroke="#191970" d="M73.1157,-54.324C83.8171,-46.1849 100.049,-33.8395 112.8712,-24.0874"/>
<polygon fill="#191970" stroke="#191970" points="115.2527,-26.6734 121.0934,-17.8339 111.0151,-21.1018 115.2527,-26.6734"/>
</g>
<!-- Node40&#45;&gt;Node1 -->
<g id="edge11" class="edge">
<title>Node40&#45;&gt;Node1</title>
<path fill="none" stroke="#191970" d="M141.7303,-162.324C128.1587,-153.9002 107.3281,-140.9709 91.3834,-131.0741"/>
<polygon fill="#191970" stroke="#191970" points="92.9939,-127.9544 82.6517,-125.6545 89.3023,-133.9019 92.9939,-127.9544"/>
</g>
<!-- Node40&#45;&gt;Node27 -->
<g id="edge8" class="edge">
<title>Node40&#45;&gt;Node27</title>
<path fill="none" stroke="#191970" d="M170.135,-162.3107C200.2591,-143.0495 264.8811,-95.2086 237.7083,-54 221.3727,-29.2263 188.2636,-18.0393 163.5688,-13.0198"/>
<polygon fill="#191970" stroke="#191970" points="164.0351,-9.5477 153.5739,-11.2246 162.7976,-16.4374 164.0351,-9.5477"/>
</g>
<!-- Node41 -->
<g id="node7" class="node">
<title>Node41</title>
<g id="a_node7"><a xlink:href="../../d2/d65/_flavour_8h.html" target="_top" xlink:title="Flavour.h">
<polygon fill="none" stroke="#ff0000" points="178.7083,-54.5 178.7083,-71.5 228.7083,-71.5 228.7083,-54.5 178.7083,-54.5"/>
<text text-anchor="middle" x="203.7083" y="-61.1" font-family="Helvetica,sans-Serif" font-size="8.00" fill="#000000">Flavour.h</text>
</a>
</g>
</g>
<!-- Node40&#45;&gt;Node41 -->
<g id="edge6" class="edge">
<title>Node40&#45;&gt;Node41</title>
<path fill="none" stroke="#191970" d="M165.2206,-162.3287C173.8246,-153.9122 186.1237,-140.3386 192.7083,-126 199.1592,-111.953 201.8469,-94.5523 202.9568,-81.5999"/>
<polygon fill="#191970" stroke="#191970" points="206.4537,-81.7565 203.5808,-71.5586 199.4672,-81.3222 206.4537,-81.7565"/>
</g>
<!-- Node44 -->
<g id="node8" class="node">
<title>Node44</title>
<g id="a_node8"><a xlink:href="../../db/d5d/_c_k_m_8h.html" target="_top" xlink:title="CKM.h">
<polygon fill="none" stroke="#ff0000" points="142.2083,-108.5 142.2083,-125.5 183.2083,-125.5 183.2083,-108.5 142.2083,-108.5"/>
<text text-anchor="middle" x="162.7083" y="-115.1" font-family="Helvetica,sans-Serif" font-size="8.00" fill="#000000">CKM.h</text>
</a>
</g>
</g>
<!-- Node40&#45;&gt;Node44 -->
<g id="edge9" class="edge">
<title>Node40&#45;&gt;Node44</title>
<path fill="none" stroke="#191970" d="M156.8643,-162.083C157.7918,-154.9272 159.126,-144.6353 160.2854,-135.6911"/>
<polygon fill="#191970" stroke="#191970" points="163.7593,-136.1181 161.5739,-125.7511 156.8174,-135.2181 163.7593,-136.1181"/>
</g>
<!-- Node41&#45;&gt;Node27 -->
<g id="edge7" class="edge">
<title>Node41&#45;&gt;Node27</title>
<path fill="none" stroke="#191970" d="M192.301,-54.324C181.5995,-46.1849 165.3677,-33.8395 152.5455,-24.0874"/>
<polygon fill="#191970" stroke="#191970" points="154.4016,-21.1018 144.3233,-17.8339 150.164,-26.6734 154.4016,-21.1018"/>
</g>
<!-- Node44&#45;&gt;Node38 -->
<g id="edge10" class="edge">
<title>Node44&#45;&gt;Node38</title>
<path fill="none" stroke="#191970" d="M158.9104,-108.083C155.7956,-100.77 151.2856,-90.1814 147.419,-81.1034"/>
<polygon fill="#191970" stroke="#191970" points="150.5744,-79.5798 143.4357,-71.7511 144.1342,-82.3229 150.5744,-79.5798"/>
</g>
</g>
</svg>
