<?xml version="1.0" encoding="UTF-8" standalone="no"?>
<!DOCTYPE svg PUBLIC "-//W3C//DTD SVG 1.1//EN"
 "http://www.w3.org/Graphics/SVG/1.1/DTD/svg11.dtd">
<!-- Generated by graphviz version 2.40.1 (20161225.0304)
 -->
<!-- Title: log10_gg_H3_hZ_tautauZ_TH8 Pages: 1 -->
<svg width="455pt" height="288pt"
 viewBox="0.00 0.00 455.00 288.00" xmlns="http://www.w3.org/2000/svg" xmlns:xlink="http://www.w3.org/1999/xlink">
<g id="graph0" class="graph" transform="scale(1 1) rotate(0) translate(4 284)">
<title>log10_gg_H3_hZ_tautauZ_TH8</title>
<!-- Node2 -->
<g id="node1" class="node">
<title>Node2</title>
<polygon fill="#bfbfbf" stroke="#000000" points="0,-.5 0,-17.5 129,-17.5 129,-.5 0,-.5"/>
<text text-anchor="middle" x="64.5" y="-7.1" font-family="Helvetica,sans-Serif" font-size="8.00" fill="#000000">log10_gg_H3_hZ_tautauZ_TH8</text>
</g>
<!-- Node3 -->
<g id="node2" class="node">
<title>Node3</title>
<g id="a_node2"><a xlink:href="../../dc/d1f/class_th_observable.html" target="_top" xlink:title="A class for a model prediction of an observable. ">
<polygon fill="none" stroke="#000000" points="20,-99.5 20,-116.5 87,-116.5 87,-99.5 20,-99.5"/>
<text text-anchor="middle" x="53.5" y="-106.1" font-family="Helvetica,sans-Serif" font-size="8.00" fill="#000000">ThObservable</text>
</a>
</g>
</g>
<!-- Node3&#45;&gt;Node2 -->
<g id="edge1" class="edge">
<title>Node3&#45;&gt;Node2</title>
<path fill="none" stroke="#191970" d="M55.6079,-89.0287C57.9953,-67.5427 61.7815,-33.4668 63.5417,-17.6245"/>
<polygon fill="#191970" stroke="#191970" points="52.102,-88.889 54.4762,-99.2144 59.0592,-89.6621 52.102,-88.889"/>
</g>
<!-- Node4 -->
<g id="node3" class="node">
<title>Node4</title>
<g id="a_node3"><a xlink:href="../../dc/dd5/class_standard_model.html" target="_top" xlink:title="A model class for the Standard Model. ">
<polygon fill="none" stroke="#ff0000" points="227,-207.5 227,-224.5 298,-224.5 298,-207.5 227,-207.5"/>
<text text-anchor="middle" x="262.5" y="-214.1" font-family="Helvetica,sans-Serif" font-size="8.00" fill="#000000">StandardModel</text>
</a>
</g>
</g>
<!-- Node4&#45;&gt;Node3 -->
<g id="edge2" class="edge">
<title>Node4&#45;&gt;Node3</title>
<path fill="none" stroke="#9a32cd" stroke-dasharray="5,2" d="M216.8247,-208.0106C167.5437,-198.5473 93.3154,-181.5747 72.5,-162 59.6129,-149.881 55.4612,-128.5082 54.1276,-116.6092"/>
<polygon fill="#9a32cd" stroke="#9a32cd" points="216.4588,-211.5032 226.9338,-209.9142 217.7543,-204.6241 216.4588,-211.5032"/>
<text text-anchor="middle" x="139" y="-182.6" font-family="Helvetica,sans-Serif" font-size="8.00" fill="#000000"> SM</text>
</g>
<!-- Node9 -->
<g id="node6" class="node">
<title>Node9</title>
<g id="a_node6"><a xlink:href="../../dc/df3/class_e_w_s_mcache.html" target="_top" xlink:title="A class for cache variables used in computing radiative corrections to the EW precision observables...">
<polygon fill="none" stroke="#ff0000" points="384,-140 384,-157 447,-157 447,-140 384,-140"/>
<text text-anchor="middle" x="415.5" y="-146.6" font-family="Helvetica,sans-Serif" font-size="8.00" fill="#000000">EWSMcache</text>
</a>
</g>
</g>
<!-- Node4&#45;&gt;Node9 -->
<g id="edge6" class="edge">
<title>Node4&#45;&gt;Node9</title>
<path fill="none" stroke="#9a32cd" stroke-dasharray="5,2" d="M291.146,-203.362C321.6807,-189.8909 369.213,-168.9207 395.7965,-157.1927"/>
<polygon fill="#9a32cd" stroke="#9a32cd" points="289.614,-200.2124 281.8776,-207.4511 292.4395,-206.6168 289.614,-200.2124"/>
<text text-anchor="middle" x="351" y="-182.6" font-family="Helvetica,sans-Serif" font-size="8.00" fill="#000000"> SM</text>
</g>
<!-- Node48 -->
<g id="node8" class="node">
<title>Node48</title>
<g id="a_node8"><a xlink:href="../../d2/df3/class_n_pbase.html" target="_top" xlink:title="The auxiliary base model class for other model classes. ">
<polygon fill="none" stroke="#000000" points="203,-140 203,-157 248,-157 248,-140 203,-140"/>
<text text-anchor="middle" x="225.5" y="-146.6" font-family="Helvetica,sans-Serif" font-size="8.00" fill="#000000">NPbase</text>
</a>
</g>
</g>
<!-- Node4&#45;&gt;Node48 -->
<g id="edge10" class="edge">
<title>Node4&#45;&gt;Node48</title>
<path fill="none" stroke="#191970" d="M232.9868,-201.8791C228.3692,-198.3354 224.2289,-194.0645 221.5,-189 216.1376,-179.048 219.0407,-165.7157 221.9721,-157.116"/>
<polygon fill="#191970" stroke="#191970" points="231.3206,-204.9705 241.6124,-207.4867 235.136,-199.1017 231.3206,-204.9705"/>
</g>
<!-- Node4&#45;&gt;Node48 -->
<g id="edge11" class="edge">
<title>Node4&#45;&gt;Node48</title>
<path fill="none" stroke="#9a32cd" stroke-dasharray="5,2" d="M248.3965,-199.3772C245.9217,-196.0561 243.5017,-192.5071 241.5,-189 235.5789,-178.6259 230.8719,-165.6301 228.1359,-157.2004"/>
<polygon fill="#9a32cd" stroke="#9a32cd" points="245.8586,-201.8087 254.8259,-207.4512 251.3345,-197.4481 245.8586,-201.8087"/>
<text text-anchor="middle" x="256" y="-182.6" font-family="Helvetica,sans-Serif" font-size="8.00" fill="#000000"> trueSM</text>
</g>
<!-- Node5 -->
<g id="node4" class="node">
<title>Node5</title>
<g id="a_node4"><a xlink:href="../../dd/dfa/class_q_c_d.html" target="_top" xlink:title="A class for parameters related to QCD, hadrons and quarks. ">
<polygon fill="none" stroke="#ff0000" points="245.5,-262.5 245.5,-279.5 279.5,-279.5 279.5,-262.5 245.5,-262.5"/>
<text text-anchor="middle" x="262.5" y="-269.1" font-family="Helvetica,sans-Serif" font-size="8.00" fill="#000000">QCD</text>
</a>
</g>
</g>
<!-- Node5&#45;&gt;Node4 -->
<g id="edge3" class="edge">
<title>Node5&#45;&gt;Node4</title>
<path fill="none" stroke="#191970" d="M262.5,-252.1166C262.5,-242.8173 262.5,-232.0557 262.5,-224.7149"/>
<polygon fill="#191970" stroke="#191970" points="259.0001,-252.4062 262.5,-262.4063 266.0001,-252.4063 259.0001,-252.4062"/>
</g>
<!-- Node8 -->
<g id="node5" class="node">
<title>Node8</title>
<g id="a_node5"><a xlink:href="../../db/d32/class_e_w_s_m_two_fermions_l_e_p2.html" target="_top" xlink:title="A class for the form factors , &#160;and &#160;in the processes &#160;at LEP&#45;II. ">
<polygon fill="none" stroke="#ff0000" points="271,-63.5 271,-80.5 380,-80.5 380,-63.5 271,-63.5"/>
<text text-anchor="middle" x="325.5" y="-70.1" font-family="Helvetica,sans-Serif" font-size="8.00" fill="#000000">EWSMTwoFermionsLEP2</text>
</a>
</g>
</g>
<!-- Node8&#45;&gt;Node4 -->
<g id="edge4" class="edge">
<title>Node8&#45;&gt;Node4</title>
<path fill="none" stroke="#9a32cd" stroke-dasharray="5,2" d="M316.2739,-89.7744C309.8934,-102.2955 301.3528,-119.5203 294.5,-135 282.9932,-160.9927 271.1292,-192.4925 265.6383,-207.3928"/>
<polygon fill="#9a32cd" stroke="#9a32cd" points="319.3951,-91.3582 320.8544,-80.8644 313.1695,-88.1578 319.3951,-91.3582"/>
<text text-anchor="middle" x="335" y="-146.6" font-family="Helvetica,sans-Serif" font-size="8.00" fill="#000000"> myTwoFermionsLEP2</text>
</g>
<!-- Node9&#45;&gt;Node4 -->
<g id="edge7" class="edge">
<title>Node9&#45;&gt;Node4</title>
<path fill="none" stroke="#9a32cd" stroke-dasharray="5,2" d="M398.701,-164.0638C388.8051,-172.5023 375.6744,-182.5038 362.5,-189 342.3392,-198.9411 318.0248,-205.6114 298.4198,-209.8349"/>
<polygon fill="#9a32cd" stroke="#9a32cd" points="401.3138,-166.4255 406.4846,-157.1781 396.6757,-161.1826 401.3138,-166.4255"/>
<text text-anchor="middle" x="406.5" y="-182.6" font-family="Helvetica,sans-Serif" font-size="8.00" fill="#000000"> myEWSMcache</text>
</g>
<!-- Node9&#45;&gt;Node8 -->
<g id="edge5" class="edge">
<title>Node9&#45;&gt;Node8</title>
<path fill="none" stroke="#9a32cd" stroke-dasharray="5,2" d="M397.4162,-133.1288C378.8726,-117.3667 350.6883,-93.4101 335.7037,-80.6732"/>
<polygon fill="#9a32cd" stroke="#9a32cd" points="395.2897,-135.9148 405.1759,-139.7245 399.8232,-130.5812 395.2897,-135.9148"/>
<text text-anchor="middle" x="387.5" y="-106.1" font-family="Helvetica,sans-Serif" font-size="8.00" fill="#000000"> cache</text>
</g>
<!-- Node47 -->
<g id="node7" class="node">
<title>Node47</title>
<g id="a_node7"><a xlink:href="../../db/d2b/class_georgi_machacek.html" target="_top" xlink:title="A base class for the Georgi&#45;Machacek model. ">
<polygon fill="none" stroke="#000000" points="97,-63.5 97,-80.5 174,-80.5 174,-63.5 97,-63.5"/>
<text text-anchor="middle" x="135.5" y="-70.1" font-family="Helvetica,sans-Serif" font-size="8.00" fill="#000000">GeorgiMachacek</text>
</a>
</g>
</g>
<!-- Node47&#45;&gt;Node2 -->
<g id="edge8" class="edge">
<title>Node47&#45;&gt;Node2</title>
<path fill="none" stroke="#9a32cd" stroke-dasharray="5,2" d="M115.5223,-57.2949C110.5153,-53.4188 105.2259,-49.1553 100.5,-45 90.4104,-36.1287 79.6108,-25.1006 72.5013,-17.6045"/>
<polygon fill="#9a32cd" stroke="#9a32cd" points="113.4487,-60.1149 123.5328,-63.3648 117.6763,-54.5357 113.4487,-60.1149"/>
<text text-anchor="middle" x="113.5" y="-38.6" font-family="Helvetica,sans-Serif" font-size="8.00" fill="#000000"> myGM</text>
</g>
<!-- Node51 -->
<g id="node10" class="node">
<title>Node51</title>
<g id="a_node10"><a xlink:href="../../d7/db7/class_g_mcache.html" target="_top" xlink:title="A class for the caching of GeorgiMachacek objects. ">
<polygon fill="none" stroke="#ff0000" points="153,-.5 153,-17.5 204,-17.5 204,-.5 153,-.5"/>
<text text-anchor="middle" x="178.5" y="-7.1" font-family="Helvetica,sans-Serif" font-size="8.00" fill="#000000">GMcache</text>
</a>
</g>
</g>
<!-- Node47&#45;&gt;Node51 -->
<g id="edge14" class="edge">
<title>Node47&#45;&gt;Node51</title>
<path fill="none" stroke="#9a32cd" stroke-dasharray="5,2" d="M129.9493,-53.5598C129.1806,-47.6268 129.5005,-41.2385 132.5,-36 137.1933,-27.8032 145.4492,-21.8519 153.6838,-17.658"/>
<polygon fill="#9a32cd" stroke="#9a32cd" points="126.5539,-54.4139 132.1651,-63.4008 133.3829,-52.8762 126.5539,-54.4139"/>
<text text-anchor="middle" x="145.5" y="-38.6" font-family="Helvetica,sans-Serif" font-size="8.00" fill="#000000"> myGM</text>
</g>
<!-- Node48&#45;&gt;Node47 -->
<g id="edge9" class="edge">
<title>Node48&#45;&gt;Node47</title>
<path fill="none" stroke="#191970" d="M207.4162,-133.1288C188.8726,-117.3667 160.6883,-93.4101 145.7037,-80.6732"/>
<polygon fill="#191970" stroke="#191970" points="205.2897,-135.9148 215.1759,-139.7245 209.8232,-130.5812 205.2897,-135.9148"/>
</g>
<!-- Node49 -->
<g id="node9" class="node">
<title>Node49</title>
<g id="a_node9"><a xlink:href="../../d5/d76/class_matching.html" target="_top" xlink:title="Matching\&lt; GMMatching,\l GeorgiMachacek \&gt;">
<polygon fill="none" stroke="#ff0000" points="82,-135.5 82,-161.5 185,-161.5 185,-135.5 82,-135.5"/>
<text text-anchor="start" x="90" y="-151.1" font-family="Helvetica,sans-Serif" font-size="8.00" fill="#000000">Matching&lt; GMMatching,</text>
<text text-anchor="middle" x="133.5" y="-142.1" font-family="Helvetica,sans-Serif" font-size="8.00" fill="#000000"> GeorgiMachacek &gt;</text>
</a>
</g>
</g>
<!-- Node49&#45;&gt;Node47 -->
<g id="edge12" class="edge">
<title>Node49&#45;&gt;Node47</title>
<path fill="none" stroke="#9a32cd" stroke-dasharray="5,2" d="M134.1121,-125.0882C134.5027,-110.1453 134.9869,-91.6269 135.2679,-80.8783"/>
<polygon fill="#9a32cd" stroke="#9a32cd" points="130.611,-125.0866 133.8484,-135.1747 137.6086,-125.2696 130.611,-125.0866"/>
<text text-anchor="middle" x="146.5" y="-106.1" font-family="Helvetica,sans-Serif" font-size="8.00" fill="#000000"> GMM</text>
</g>
<!-- Node51&#45;&gt;Node47 -->
<g id="edge13" class="edge">
<title>Node51&#45;&gt;Node47</title>
<path fill="none" stroke="#9a32cd" stroke-dasharray="5,2" d="M171.8396,-27.4515C169.3302,-33.3056 166.1785,-39.644 162.5,-45 157.8463,-51.7759 151.3661,-58.3224 145.9208,-63.2719"/>
<polygon fill="#9a32cd" stroke="#9a32cd" points="175.2498,-28.3416 175.6377,-17.7539 168.7318,-25.7888 175.2498,-28.3416"/>
<text text-anchor="middle" x="191.5" y="-38.6" font-family="Helvetica,sans-Serif" font-size="8.00" fill="#000000"> myGMcache</text>
</g>
</g>
</svg>
