<?xml version="1.0" encoding="UTF-8" standalone="no"?>
<!DOCTYPE svg PUBLIC "-//W3C//DTD SVG 1.1//EN"
 "http://www.w3.org/Graphics/SVG/1.1/DTD/svg11.dtd">
<!-- Generated by graphviz version 2.40.1 (20161225.0304)
 -->
<!-- Title: THDMWDeltaU Pages: 1 -->
<svg width="416pt" height="378pt"
 viewBox="0.00 0.00 416.00 378.00" xmlns="http://www.w3.org/2000/svg" xmlns:xlink="http://www.w3.org/1999/xlink">
<g id="graph0" class="graph" transform="scale(1 1) rotate(0) translate(4 374)">
<title>THDMWDeltaU</title>
<!-- Node3 -->
<g id="node1" class="node">
<title>Node3</title>
<polygon fill="#bfbfbf" stroke="#000000" points="43.5,-.5 43.5,-17.5 115.5,-17.5 115.5,-.5 43.5,-.5"/>
<text text-anchor="middle" x="79.5" y="-7.1" font-family="Helvetica,sans-Serif" font-size="8.00" fill="#000000">THDMWDeltaU</text>
</g>
<!-- Node4 -->
<g id="node2" class="node">
<title>Node4</title>
<g id="a_node2"><a xlink:href="../../de/d45/class_t_h_d_m_w_s_t_u.html" target="_top" xlink:title="An observable class for the electroweak Peskin&#45;Takeuchi pseudo&#45;observables. ">
<polygon fill="none" stroke="#000000" points="48,-55.5 48,-72.5 111,-72.5 111,-55.5 48,-55.5"/>
<text text-anchor="middle" x="79.5" y="-62.1" font-family="Helvetica,sans-Serif" font-size="8.00" fill="#000000">THDMWSTU</text>
</a>
</g>
</g>
<!-- Node4&#45;&gt;Node3 -->
<g id="edge1" class="edge">
<title>Node4&#45;&gt;Node3</title>
<path fill="none" stroke="#191970" d="M79.5,-45.1166C79.5,-35.8173 79.5,-25.0557 79.5,-17.7149"/>
<polygon fill="#191970" stroke="#191970" points="76.0001,-45.4062 79.5,-55.4063 83.0001,-45.4063 76.0001,-45.4062"/>
</g>
<!-- Node5 -->
<g id="node3" class="node">
<title>Node5</title>
<g id="a_node3"><a xlink:href="../../dc/d1f/class_th_observable.html" target="_top" xlink:title="A class for a model prediction of an observable. ">
<polygon fill="none" stroke="#000000" points="0,-244.5 0,-261.5 67,-261.5 67,-244.5 0,-244.5"/>
<text text-anchor="middle" x="33.5" y="-251.1" font-family="Helvetica,sans-Serif" font-size="8.00" fill="#000000">ThObservable</text>
</a>
</g>
</g>
<!-- Node5&#45;&gt;Node4 -->
<g id="edge2" class="edge">
<title>Node5&#45;&gt;Node4</title>
<path fill="none" stroke="#191970" d="M37.9641,-234.6584C47.6666,-194.7938 70.3687,-101.5179 77.3916,-72.6626"/>
<polygon fill="#191970" stroke="#191970" points="34.5602,-233.8439 35.5961,-244.3879 41.3617,-235.4993 34.5602,-233.8439"/>
</g>
<!-- Node6 -->
<g id="node4" class="node">
<title>Node6</title>
<g id="a_node4"><a xlink:href="../../dc/dd5/class_standard_model.html" target="_top" xlink:title="A model class for the Standard Model. ">
<polygon fill="none" stroke="#ff0000" points="28,-352.5 28,-369.5 99,-369.5 99,-352.5 28,-352.5"/>
<text text-anchor="middle" x="63.5" y="-359.1" font-family="Helvetica,sans-Serif" font-size="8.00" fill="#000000">StandardModel</text>
</a>
</g>
</g>
<!-- Node6&#45;&gt;Node5 -->
<g id="edge3" class="edge">
<title>Node6&#45;&gt;Node5</title>
<path fill="none" stroke="#9a32cd" stroke-dasharray="5,2" d="M57.9357,-342.4251C57.1086,-339.6055 56.2744,-336.7278 55.5,-334 48.0179,-307.6463 39.6604,-276.3157 35.7484,-261.5308"/>
<polygon fill="#9a32cd" stroke="#9a32cd" points="54.5812,-343.4241 60.7818,-352.0149 61.2919,-341.4324 54.5812,-343.4241"/>
<text text-anchor="middle" x="63" y="-327.6" font-family="Helvetica,sans-Serif" font-size="8.00" fill="#000000"> SM</text>
</g>
<!-- Node50 -->
<g id="node6" class="node">
<title>Node50</title>
<g id="a_node6"><a xlink:href="../../d2/df3/class_n_pbase.html" target="_top" xlink:title="The auxiliary base model class for other model classes. ">
<polygon fill="none" stroke="#000000" points="68,-285 68,-302 113,-302 113,-285 68,-285"/>
<text text-anchor="middle" x="90.5" y="-291.6" font-family="Helvetica,sans-Serif" font-size="8.00" fill="#000000">NPbase</text>
</a>
</g>
</g>
<!-- Node6&#45;&gt;Node50 -->
<g id="edge6" class="edge">
<title>Node6&#45;&gt;Node50</title>
<path fill="none" stroke="#191970" d="M70.4243,-342.9802C72.6581,-337.2252 75.1614,-330.8357 77.5,-325 80.625,-317.2019 84.2831,-308.363 86.9213,-302.0372"/>
<polygon fill="#191970" stroke="#191970" points="67.1252,-341.8079 66.7885,-352.3974 73.6554,-344.3292 67.1252,-341.8079"/>
</g>
<!-- Node6&#45;&gt;Node50 -->
<g id="edge7" class="edge">
<title>Node6&#45;&gt;Node50</title>
<path fill="none" stroke="#9a32cd" stroke-dasharray="5,2" d="M70.8711,-342.9836C72.0887,-339.9855 73.3338,-336.9066 74.5,-334 78.8916,-323.0544 83.8723,-310.4096 87.0934,-302.201"/>
<polygon fill="#9a32cd" stroke="#9a32cd" points="67.5267,-341.9158 66.9911,-352.4971 74.0084,-344.5593 67.5267,-341.9158"/>
<text text-anchor="middle" x="93" y="-327.6" font-family="Helvetica,sans-Serif" font-size="8.00" fill="#000000"> trueSM</text>
</g>
<!-- Node49 -->
<g id="node5" class="node">
<title>Node49</title>
<g id="a_node5"><a xlink:href="../../dc/d90/class_t_h_d_m_w.html" target="_top" xlink:title="A base class for &#160;symmetric Two&#45;Higgs&#45;Doublet&#45;Manohar&#45;Wise models. ">
<polygon fill="none" stroke="#000000" points="89,-204 89,-221 136,-221 136,-204 89,-204"/>
<text text-anchor="middle" x="112.5" y="-210.6" font-family="Helvetica,sans-Serif" font-size="8.00" fill="#000000">THDMW</text>
</a>
</g>
</g>
<!-- Node49&#45;&gt;Node4 -->
<g id="edge4" class="edge">
<title>Node49&#45;&gt;Node4</title>
<path fill="none" stroke="#9a32cd" stroke-dasharray="5,2" d="M104.9809,-194.4949C103.3426,-190.13 101.7327,-185.4406 100.5,-181 89.4596,-141.2298 82.8524,-92.1894 80.4901,-72.6373"/>
<polygon fill="#9a32cd" stroke="#9a32cd" points="101.7425,-195.8232 108.6912,-203.8211 108.2467,-193.2356 101.7425,-195.8232"/>
<text text-anchor="middle" x="112.5" y="-125.1" font-family="Helvetica,sans-Serif" font-size="8.00" fill="#000000"> myTHDMW</text>
</g>
<!-- Node53 -->
<g id="node8" class="node">
<title>Node53</title>
<g id="a_node8"><a xlink:href="../../da/d99/class_t_h_d_m_wcache.html" target="_top" xlink:title="A class for the caching of some THDMW objects. ">
<polygon fill="none" stroke="#ff0000" points="145,-118.5 145,-135.5 214,-135.5 214,-118.5 145,-118.5"/>
<text text-anchor="middle" x="179.5" y="-125.1" font-family="Helvetica,sans-Serif" font-size="8.00" fill="#000000">THDMWcache</text>
</a>
</g>
</g>
<!-- Node49&#45;&gt;Node53 -->
<g id="edge12" class="edge">
<title>Node49&#45;&gt;Node53</title>
<path fill="none" stroke="#9a32cd" stroke-dasharray="5,2" d="M106.093,-193.9584C103.0454,-181.591 101.5792,-165.5447 109.5,-154 114.1425,-147.2334 131.1724,-140.587 147.2713,-135.5816"/>
<polygon fill="#9a32cd" stroke="#9a32cd" points="102.7769,-195.0865 108.9821,-203.674 109.4865,-193.0912 102.7769,-195.0865"/>
<text text-anchor="middle" x="131.5" y="-165.6" font-family="Helvetica,sans-Serif" font-size="8.00" fill="#000000"> myTHDMW</text>
</g>
<!-- Node50&#45;&gt;Node49 -->
<g id="edge5" class="edge">
<title>Node50&#45;&gt;Node49</title>
<path fill="none" stroke="#191970" d="M95.5148,-275.0364C100.076,-258.2428 106.6112,-234.1814 110.0958,-221.3516"/>
<polygon fill="#191970" stroke="#191970" points="92.0979,-274.2638 92.8544,-284.8316 98.8532,-276.0986 92.0979,-274.2638"/>
</g>
<!-- Node51 -->
<g id="node7" class="node">
<title>Node51</title>
<g id="a_node7"><a xlink:href="../../d5/d76/class_matching.html" target="_top" xlink:title="Matching\&lt; THDMWMatching,\l THDMW \&gt;">
<polygon fill="none" stroke="#ff0000" points="131,-280.5 131,-306.5 252,-306.5 252,-280.5 131,-280.5"/>
<text text-anchor="start" x="139" y="-296.1" font-family="Helvetica,sans-Serif" font-size="8.00" fill="#000000">Matching&lt; THDMWMatching,</text>
<text text-anchor="middle" x="191.5" y="-287.1" font-family="Helvetica,sans-Serif" font-size="8.00" fill="#000000"> THDMW &gt;</text>
</a>
</g>
</g>
<!-- Node51&#45;&gt;Node49 -->
<g id="edge8" class="edge">
<title>Node51&#45;&gt;Node49</title>
<path fill="none" stroke="#9a32cd" stroke-dasharray="5,2" d="M171.7969,-273.2981C155.4797,-256.5677 133.0837,-233.6048 121.0224,-221.2382"/>
<polygon fill="#9a32cd" stroke="#9a32cd" points="169.3195,-275.7708 178.8073,-280.4859 174.3307,-270.8833 169.3195,-275.7708"/>
<text text-anchor="middle" x="178.5" y="-251.1" font-family="Helvetica,sans-Serif" font-size="8.00" fill="#000000"> THDMWM</text>
</g>
<!-- Node53&#45;&gt;Node4 -->
<g id="edge13" class="edge">
<title>Node53&#45;&gt;Node4</title>
<path fill="none" stroke="#9a32cd" stroke-dasharray="5,2" d="M156.9921,-112.82C137.4319,-100.4971 109.726,-83.0424 93.2865,-72.6855"/>
<polygon fill="#9a32cd" stroke="#9a32cd" points="155.2689,-115.871 165.5954,-118.2401 159.0001,-109.9484 155.2689,-115.871"/>
<text text-anchor="middle" x="152" y="-93.6" font-family="Helvetica,sans-Serif" font-size="8.00" fill="#000000"> mycache</text>
</g>
<!-- Node53&#45;&gt;Node49 -->
<g id="edge9" class="edge">
<title>Node53&#45;&gt;Node49</title>
<path fill="none" stroke="#9a32cd" stroke-dasharray="5,2" d="M174.7629,-145.7639C171.2956,-156.8429 165.7396,-170.6737 157.5,-181 149.8867,-190.5414 138.6367,-198.4164 129.29,-203.906"/>
<polygon fill="#9a32cd" stroke="#9a32cd" points="178.2174,-146.4081 177.556,-135.834 171.4789,-144.5127 178.2174,-146.4081"/>
<text text-anchor="middle" x="204" y="-165.6" font-family="Helvetica,sans-Serif" font-size="8.00" fill="#000000"> myTHDMWcache</text>
</g>
<!-- Node28 -->
<g id="node9" class="node">
<title>Node28</title>
<g id="a_node9"><a xlink:href="../../dd/d59/classgslpp_1_1vector.html" target="_top" xlink:title="gslpp::vector\&lt; gslpp\l::complex \&gt;">
<polygon fill="none" stroke="#ff0000" points="223.5,-199.5 223.5,-225.5 311.5,-225.5 311.5,-199.5 223.5,-199.5"/>
<text text-anchor="start" x="231.5" y="-215.1" font-family="Helvetica,sans-Serif" font-size="8.00" fill="#000000">gslpp::vector&lt; gslpp</text>
<text text-anchor="middle" x="267.5" y="-206.1" font-family="Helvetica,sans-Serif" font-size="8.00" fill="#000000">::complex &gt;</text>
</a>
</g>
</g>
<!-- Node28&#45;&gt;Node53 -->
<g id="edge10" class="edge">
<title>Node28&#45;&gt;Node53</title>
<path fill="none" stroke="#9a32cd" stroke-dasharray="5,2" d="M261.2258,-189.5686C257.0014,-177.7033 250.3646,-163.7109 240.5,-154 232.0817,-145.7128 220.6878,-139.7432 210.0259,-135.5599"/>
<polygon fill="#9a32cd" stroke="#9a32cd" points="257.9548,-190.8308 264.3377,-199.2871 264.6214,-188.6961 257.9548,-190.8308"/>
<text text-anchor="middle" x="301.5" y="-174.6" font-family="Helvetica,sans-Serif" font-size="8.00" fill="#000000"> betaeigenvalues</text>
<text text-anchor="middle" x="301.5" y="-165.6" font-family="Helvetica,sans-Serif" font-size="8.00" fill="#000000">NLOunitarityeigenvalues</text>
<text text-anchor="middle" x="301.5" y="-156.6" font-family="Helvetica,sans-Serif" font-size="8.00" fill="#000000">unitarityeigenvalues</text>
</g>
<!-- Node12 -->
<g id="node10" class="node">
<title>Node12</title>
<g id="a_node10"><a xlink:href="../../d4/d7b/class_p_vfunctions.html" target="_top" xlink:title="A class for Passarino&#45;Veltman functions. ">
<polygon fill="none" stroke="#ff0000" points="349,-204 349,-221 408,-221 408,-204 349,-204"/>
<text text-anchor="middle" x="378.5" y="-210.6" font-family="Helvetica,sans-Serif" font-size="8.00" fill="#000000">PVfunctions</text>
</a>
</g>
</g>
<!-- Node12&#45;&gt;Node53 -->
<g id="edge11" class="edge">
<title>Node12&#45;&gt;Node53</title>
<path fill="none" stroke="#9a32cd" stroke-dasharray="5,2" d="M374.1006,-193.7549C369.9922,-180.5367 362.4853,-163.5483 349.5,-154 328.5542,-138.5981 257.5458,-131.6598 214.2051,-128.7952"/>
<polygon fill="#9a32cd" stroke="#9a32cd" points="370.8078,-194.9863 376.7979,-203.7253 377.5649,-193.1583 370.8078,-194.9863"/>
<text text-anchor="middle" x="375" y="-165.6" font-family="Helvetica,sans-Serif" font-size="8.00" fill="#000000"> PV</text>
</g>
</g>
</svg>
