<?xml version="1.0" encoding="UTF-8" standalone="no"?>
<!DOCTYPE svg PUBLIC "-//W3C//DTD SVG 1.1//EN"
 "http://www.w3.org/Graphics/SVG/1.1/DTD/svg11.dtd">
<!-- Generated by graphviz version 2.38.0 (20140413.2041)
 -->
<!-- Title: FlavourWilsonCoefficientMatching.h Pages: 1 -->
<svg width="350pt" height="152pt"
 viewBox="0.00 0.00 349.50 152.00" xmlns="http://www.w3.org/2000/svg" xmlns:xlink="http://www.w3.org/1999/xlink">
<g id="graph0" class="graph" transform="scale(1 1) rotate(0) translate(4 148)">
<title>FlavourWilsonCoefficientMatching.h</title>
<!-- Node1 -->
<g id="node1" class="node"><title>Node1</title>
<polygon fill="#bfbfbf" stroke="black" points="180.5,-117.5 180.5,-143.5 285.5,-143.5 285.5,-117.5 180.5,-117.5"/>
<text text-anchor="start" x="188.5" y="-133.1" font-family="Helvetica,sans-Serif" font-size="8.00">FlavourWilsonCoefficient</text>
<text text-anchor="middle" x="233" y="-124.1" font-family="Helvetica,sans-Serif" font-size="8.00">Matching.h</text>
</g>
<!-- Node2 -->
<g id="node2" class="node"><title>Node2</title>
<g id="a_node2"><a xlink:href="../../dc/dbd/_flavour_wilson_coefficient_8h.html" target="_top" xlink:title="FlavourWilsonCoefficient.h">
<polygon fill="none" stroke="black" points="129,-63.5 129,-80.5 241,-80.5 241,-63.5 129,-63.5"/>
<text text-anchor="middle" x="185" y="-70.1" font-family="Helvetica,sans-Serif" font-size="8.00">FlavourWilsonCoefficient.h</text>
</a>
</g>
</g>
<!-- Node1&#45;&gt;Node2 -->
<g id="edge1" class="edge"><title>Node1&#45;&gt;Node2</title>
<path fill="none" stroke="midnightblue" d="M215.858,-109.323C207.378,-99.3404 197.65,-87.8897 191.421,-80.5576"/>
<polygon fill="midnightblue" stroke="midnightblue" points="213.443,-111.885 222.585,-117.24 218.778,-107.353 213.443,-111.885"/>
</g>
<!-- Node4 -->
<g id="node4" class="node"><title>Node4</title>
<g id="a_node4"><a xlink:href="../../df/d4d/_flavour_wilson_coefficient_matching_8cpp.html" target="_top" xlink:title="FlavourWilsonCoefficient\lMatching.cpp">
<polygon fill="none" stroke="black" points="236.5,-0.5 236.5,-26.5 341.5,-26.5 341.5,-0.5 236.5,-0.5"/>
<text text-anchor="start" x="244.5" y="-16.1" font-family="Helvetica,sans-Serif" font-size="8.00">FlavourWilsonCoefficient</text>
<text text-anchor="middle" x="289" y="-7.1" font-family="Helvetica,sans-Serif" font-size="8.00">Matching.cpp</text>
</a>
</g>
</g>
<!-- Node1&#45;&gt;Node4 -->
<g id="edge5" class="edge"><title>Node1&#45;&gt;Node4</title>
<path fill="none" stroke="midnightblue" d="M243.384,-108.176C255.055,-84.2075 273.604,-46.1158 283.05,-26.7185"/>
<polygon fill="midnightblue" stroke="midnightblue" points="240.224,-106.67 238.993,-117.193 246.518,-109.735 240.224,-106.67"/>
</g>
<!-- Node3 -->
<g id="node3" class="node"><title>Node3</title>
<g id="a_node3"><a xlink:href="../../d2/d24/_flavour_wilson_coefficient_8cpp.html" target="_top" xlink:title="FlavourWilsonCoefficient.cpp">
<polygon fill="none" stroke="black" points="0,-5 0,-22 120,-22 120,-5 0,-5"/>
<text text-anchor="middle" x="60" y="-11.6" font-family="Helvetica,sans-Serif" font-size="8.00">FlavourWilsonCoefficient.cpp</text>
</a>
</g>
</g>
<!-- Node2&#45;&gt;Node3 -->
<g id="edge2" class="edge"><title>Node2&#45;&gt;Node3</title>
<path fill="none" stroke="midnightblue" d="M159.237,-59.3552C134.483,-48.1661 97.8076,-31.5891 76.6677,-22.0338"/>
<polygon fill="midnightblue" stroke="midnightblue" points="157.847,-62.5677 168.401,-63.4972 160.73,-56.189 157.847,-62.5677"/>
</g>
<!-- Node2&#45;&gt;Node4 -->
<g id="edge3" class="edge"><title>Node2&#45;&gt;Node4</title>
<path fill="none" stroke="midnightblue" d="M208.018,-58.4952C225.549,-48.9709 249.538,-35.9386 266.851,-26.533"/>
<polygon fill="midnightblue" stroke="midnightblue" points="206.142,-55.5309 199.026,-63.3802 209.484,-61.6819 206.142,-55.5309"/>
</g>
<!-- Node5 -->
<g id="node5" class="node"><title>Node5</title>
<g id="a_node5"><a xlink:href="../../d3/df6/_model_factory_8cpp.html" target="_top" xlink:title="ModelFactory.cpp">
<polygon fill="none" stroke="black" points="138,-5 138,-22 218,-22 218,-5 138,-5"/>
<text text-anchor="middle" x="178" y="-11.6" font-family="Helvetica,sans-Serif" font-size="8.00">ModelFactory.cpp</text>
</a>
</g>
</g>
<!-- Node2&#45;&gt;Node5 -->
<g id="edge4" class="edge"><title>Node2&#45;&gt;Node5</title>
<path fill="none" stroke="midnightblue" d="M182.777,-53.061C181.494,-42.6986 179.944,-30.1907 178.965,-22.2894"/>
<polygon fill="midnightblue" stroke="midnightblue" points="179.324,-53.6502 184.027,-63.1439 186.27,-52.7894 179.324,-53.6502"/>
</g>
</g>
</svg>
