<?xml version="1.0" encoding="UTF-8" standalone="no"?>
<!DOCTYPE svg PUBLIC "-//W3C//DTD SVG 1.1//EN"
 "http://www.w3.org/Graphics/SVG/1.1/DTD/svg11.dtd">
<!-- Generated by graphviz version 2.38.0 (20140413.2041)
 -->
<!-- Title: massdifference_mHhmmHp Pages: 1 -->
<svg width="410pt" height="215pt"
 viewBox="0.00 0.00 410.00 215.00" xmlns="http://www.w3.org/2000/svg" xmlns:xlink="http://www.w3.org/1999/xlink">
<g id="graph0" class="graph" transform="scale(1 1) rotate(0) translate(4 211)">
<title>massdifference_mHhmmHp</title>
<!-- Node1 -->
<g id="node1" class="node"><title>Node1</title>
<polygon fill="#bfbfbf" stroke="black" points="118,-0.5 118,-17.5 234,-17.5 234,-0.5 118,-0.5"/>
<text text-anchor="middle" x="176" y="-7.1" font-family="Helvetica,sans-Serif" font-size="8.00">massdifference_mHhmmHp</text>
</g>
<!-- Node2 -->
<g id="node2" class="node"><title>Node2</title>
<g id="a_node2"><a xlink:href="../../dc/d1f/class_th_observable.html" target="_top" xlink:title="A class for a model prediction of an observable. ">
<polygon fill="none" stroke="black" points="162.5,-63.5 162.5,-80.5 229.5,-80.5 229.5,-63.5 162.5,-63.5"/>
<text text-anchor="middle" x="196" y="-70.1" font-family="Helvetica,sans-Serif" font-size="8.00">ThObservable</text>
</a>
</g>
</g>
<!-- Node2&#45;&gt;Node1 -->
<g id="edge1" class="edge"><title>Node2&#45;&gt;Node1</title>
<path fill="none" stroke="midnightblue" d="M204.946,-53.7871C206.783,-47.9936 207.494,-41.5857 205,-36 201.581,-28.3438 194.671,-22.0044 188.453,-17.5025"/>
<polygon fill="midnightblue" stroke="midnightblue" points="201.615,-52.6728 200.874,-63.2417 208.044,-55.4421 201.615,-52.6728"/>
</g>
<!-- Node3 -->
<g id="node3" class="node"><title>Node3</title>
<g id="a_node3"><a xlink:href="../../dc/dd5/class_standard_model.html" target="_top" xlink:title="A model class for the Standard Model. ">
<polygon fill="none" stroke="red" points="198.5,-126.5 198.5,-143.5 269.5,-143.5 269.5,-126.5 198.5,-126.5"/>
<text text-anchor="middle" x="234" y="-133.1" font-family="Helvetica,sans-Serif" font-size="8.00">StandardModel</text>
</a>
</g>
</g>
<!-- Node3&#45;&gt;Node2 -->
<g id="edge2" class="edge"><title>Node3&#45;&gt;Node2</title>
<path fill="none" stroke="#9a32cd" stroke-dasharray="5,2" d="M208.377,-120.802C203.832,-117.272 199.696,-113.013 197,-108 192.451,-99.541 193.136,-88.1914 194.328,-80.7414"/>
<polygon fill="#9a32cd" stroke="#9a32cd" points="206.508,-123.762 216.776,-126.374 210.378,-117.929 206.508,-123.762"/>
<text text-anchor="middle" x="204.5" y="-101.6" font-family="Helvetica,sans-Serif" font-size="8.00"> SM</text>
</g>
<!-- Node5 -->
<g id="node5" class="node"><title>Node5</title>
<g id="a_node5"><a xlink:href="../../dc/df3/class_e_w_s_mcache.html" target="_top" xlink:title="A class for cache variables used in computing radiative corrections to the EW precision observables...">
<polygon fill="none" stroke="red" points="247.5,-63.5 247.5,-80.5 310.5,-80.5 310.5,-63.5 247.5,-63.5"/>
<text text-anchor="middle" x="279" y="-70.1" font-family="Helvetica,sans-Serif" font-size="8.00">EWSMcache</text>
</a>
</g>
</g>
<!-- Node3&#45;&gt;Node5 -->
<g id="edge5" class="edge"><title>Node3&#45;&gt;Node5</title>
<path fill="none" stroke="#9a32cd" stroke-dasharray="5,2" d="M231.213,-116.235C231.127,-110.399 231.989,-104.105 235,-99 239.958,-90.5928 248.779,-84.6102 257.228,-80.5207"/>
<polygon fill="#9a32cd" stroke="#9a32cd" points="227.758,-116.857 232.232,-126.46 234.723,-116.162 227.758,-116.857"/>
<text text-anchor="middle" x="242.5" y="-101.6" font-family="Helvetica,sans-Serif" font-size="8.00"> SM</text>
</g>
<!-- Node8 -->
<g id="node8" class="node"><title>Node8</title>
<g id="a_node8"><a xlink:href="../../d0/d52/class_t_h_d_m.html" target="_top" xlink:title="A base class &#160;symmetric Two&#45;Higgs&#45;Doublet models. ">
<polygon fill="none" stroke="black" points="78,-63.5 78,-80.5 118,-80.5 118,-63.5 78,-63.5"/>
<text text-anchor="middle" x="98" y="-70.1" font-family="Helvetica,sans-Serif" font-size="8.00">THDM</text>
</a>
</g>
</g>
<!-- Node3&#45;&gt;Node8 -->
<g id="edge10" class="edge"><title>Node3&#45;&gt;Node8</title>
<path fill="none" stroke="midnightblue" d="M207.66,-122.186C180.188,-109.864 137.958,-90.9221 114.736,-80.5065"/>
<polygon fill="midnightblue" stroke="midnightblue" points="206.494,-125.499 217.05,-126.398 209.359,-119.112 206.494,-125.499"/>
</g>
<!-- Node4 -->
<g id="node4" class="node"><title>Node4</title>
<g id="a_node4"><a xlink:href="../../dd/dfa/class_q_c_d.html" target="_top" xlink:title="A class for parameters related to QCD, hadrons and quarks. ">
<polygon fill="none" stroke="red" points="191,-189.5 191,-206.5 225,-206.5 225,-189.5 191,-189.5"/>
<text text-anchor="middle" x="208" y="-196.1" font-family="Helvetica,sans-Serif" font-size="8.00">QCD</text>
</a>
</g>
</g>
<!-- Node4&#45;&gt;Node3 -->
<g id="edge3" class="edge"><title>Node4&#45;&gt;Node3</title>
<path fill="none" stroke="midnightblue" d="M215.25,-179.991C220.292,-168.161 226.78,-152.94 230.652,-143.856"/>
<polygon fill="midnightblue" stroke="midnightblue" points="211.994,-178.703 211.293,-189.274 218.434,-181.447 211.994,-178.703"/>
</g>
<!-- Node5&#45;&gt;Node3 -->
<g id="edge4" class="edge"><title>Node5&#45;&gt;Node3</title>
<path fill="none" stroke="#9a32cd" stroke-dasharray="5,2" d="M267.115,-89.1103C258.26,-101.114 246.559,-116.975 239.699,-126.274"/>
<polygon fill="#9a32cd" stroke="#9a32cd" points="270.085,-90.9807 273.205,-80.8556 264.452,-86.8251 270.085,-90.9807"/>
<text text-anchor="middle" x="290" y="-101.6" font-family="Helvetica,sans-Serif" font-size="8.00"> myEWSMcache</text>
</g>
<!-- Node7 -->
<g id="node7" class="node"><title>Node7</title>
<g id="a_node7"><a xlink:href="../../d5/dad/class_e_w_s_m_three_loop_e_w.html" target="_top" xlink:title="A class for &#160;three&#45;loop corrections to the EW precision observables. ">
<polygon fill="none" stroke="black" points="269.5,-0.5 269.5,-17.5 362.5,-17.5 362.5,-0.5 269.5,-0.5"/>
<text text-anchor="middle" x="316" y="-7.1" font-family="Helvetica,sans-Serif" font-size="8.00">EWSMThreeLoopEW</text>
</a>
</g>
</g>
<!-- Node5&#45;&gt;Node7 -->
<g id="edge8" class="edge"><title>Node5&#45;&gt;Node7</title>
<path fill="none" stroke="#9a32cd" stroke-dasharray="5,2" d="M288.885,-54.7035C296.118,-42.7785 305.613,-27.1237 311.235,-17.8556"/>
<polygon fill="#9a32cd" stroke="#9a32cd" points="285.88,-52.909 283.686,-63.2743 291.865,-56.5394 285.88,-52.909"/>
<text text-anchor="middle" x="312" y="-38.6" font-family="Helvetica,sans-Serif" font-size="8.00"> cache</text>
</g>
<!-- Node6 -->
<g id="node6" class="node"><title>Node6</title>
<g id="a_node6"><a xlink:href="../../d9/db9/class_c_k_m.html" target="_top" xlink:title="A class for the CKM matrix elements. ">
<polygon fill="none" stroke="red" points="243,-189.5 243,-206.5 277,-206.5 277,-189.5 243,-189.5"/>
<text text-anchor="middle" x="260" y="-196.1" font-family="Helvetica,sans-Serif" font-size="8.00">CKM</text>
</a>
</g>
</g>
<!-- Node6&#45;&gt;Node3 -->
<g id="edge6" class="edge"><title>Node6&#45;&gt;Node3</title>
<path fill="none" stroke="#9a32cd" stroke-dasharray="5,2" d="M252.75,-179.991C247.708,-168.161 241.22,-152.94 237.348,-143.856"/>
<polygon fill="#9a32cd" stroke="#9a32cd" points="249.566,-181.447 256.707,-189.274 256.006,-178.703 249.566,-181.447"/>
<text text-anchor="middle" x="264.5" y="-164.6" font-family="Helvetica,sans-Serif" font-size="8.00"> myCKM</text>
</g>
<!-- Node7&#45;&gt;Node3 -->
<g id="edge7" class="edge"><title>Node7&#45;&gt;Node3</title>
<path fill="none" stroke="#9a32cd" stroke-dasharray="5,2" d="M325.097,-26.9947C326.298,-29.9245 327.34,-32.9955 328,-36 334.875,-67.3032 344.065,-83.0086 324,-108 311.069,-124.106 288.818,-130.631 269.677,-133.117"/>
<polygon fill="#9a32cd" stroke="#9a32cd" points="328.207,-25.384 320.728,-17.8794 321.895,-28.4098 328.207,-25.384"/>
<text text-anchor="middle" x="369.5" y="-70.1" font-family="Helvetica,sans-Serif" font-size="8.00"> myThreeLoopEW</text>
</g>
<!-- Node8&#45;&gt;Node1 -->
<g id="edge9" class="edge"><title>Node8&#45;&gt;Node1</title>
<path fill="none" stroke="#9a32cd" stroke-dasharray="5,2" d="M123.27,-58.6002C130.275,-54.6709 137.684,-50.0275 144,-45 154.307,-36.7959 164.23,-25.1751 170.223,-17.6131"/>
<polygon fill="#9a32cd" stroke="#9a32cd" points="121.287,-55.6911 114.11,-63.4846 124.581,-61.8678 121.287,-55.6911"/>
<text text-anchor="middle" x="172" y="-38.6" font-family="Helvetica,sans-Serif" font-size="8.00"> myTHDM</text>
</g>
<!-- Node10 -->
<g id="node10" class="node"><title>Node10</title>
<g id="a_node10"><a xlink:href="../../dc/d38/class_t_h_d_m_matching.html" target="_top" xlink:title="A class for the Wilson coefficients in the THDM. ">
<polygon fill="none" stroke="red" points="0,-0.5 0,-17.5 72,-17.5 72,-0.5 0,-0.5"/>
<text text-anchor="middle" x="36" y="-7.1" font-family="Helvetica,sans-Serif" font-size="8.00">THDMMatching</text>
</a>
</g>
</g>
<!-- Node8&#45;&gt;Node10 -->
<g id="edge13" class="edge"><title>Node8&#45;&gt;Node10</title>
<path fill="none" stroke="#9a32cd" stroke-dasharray="5,2" d="M67.9304,-68.549C52.0953,-65.5505 33.9455,-59.0359 24,-45 18.0579,-36.614 24.2309,-25.0387 29.6963,-17.5364"/>
<polygon fill="#9a32cd" stroke="#9a32cd" points="67.4816,-72.0209 77.8925,-70.0554 68.5283,-65.0995 67.4816,-72.0209"/>
<text text-anchor="middle" x="42" y="-38.6" font-family="Helvetica,sans-Serif" font-size="8.00"> myTHDM</text>
</g>
<!-- Node9 -->
<g id="node9" class="node"><title>Node9</title>
<g id="a_node9"><a xlink:href="../../d5/df2/class_t_h_d_mcache.html" target="_top" xlink:title="A class for the caching of some THDM objects. ">
<polygon fill="none" stroke="red" points="67.5,-126.5 67.5,-143.5 128.5,-143.5 128.5,-126.5 67.5,-126.5"/>
<text text-anchor="middle" x="98" y="-133.1" font-family="Helvetica,sans-Serif" font-size="8.00">THDMcache</text>
</a>
</g>
</g>
<!-- Node9&#45;&gt;Node8 -->
<g id="edge11" class="edge"><title>Node9&#45;&gt;Node8</title>
<path fill="none" stroke="#9a32cd" stroke-dasharray="5,2" d="M98,-116.27C98,-104.549 98,-89.7567 98,-80.8556"/>
<polygon fill="#9a32cd" stroke="#9a32cd" points="94.5001,-116.274 98,-126.274 101.5,-116.274 94.5001,-116.274"/>
<text text-anchor="middle" x="115.5" y="-101.6" font-family="Helvetica,sans-Serif" font-size="8.00"> mycache</text>
</g>
<!-- Node10&#45;&gt;Node8 -->
<g id="edge12" class="edge"><title>Node10&#45;&gt;Node8</title>
<path fill="none" stroke="#9a32cd" stroke-dasharray="5,2" d="M51.3083,-25.0614C63.6207,-37.1752 80.4181,-53.7017 90.1477,-63.2743"/>
<polygon fill="#9a32cd" stroke="#9a32cd" points="53.5675,-22.3741 43.9844,-17.8556 48.6581,-27.3639 53.5675,-22.3741"/>
<text text-anchor="middle" x="105.5" y="-38.6" font-family="Helvetica,sans-Serif" font-size="8.00"> myTHDMMatching</text>
</g>
</g>
</svg>
