<?xml version="1.0" encoding="UTF-8" standalone="no"?>
<!DOCTYPE svg PUBLIC "-//W3C//DTD SVG 1.1//EN"
 "http://www.w3.org/Graphics/SVG/1.1/DTD/svg11.dtd">
<!-- Generated by graphviz version 2.40.1 (20161225.0304)
 -->
<!-- Title: NeutralinosOneToFive.hpp Pages: 1 -->
<svg width="323pt" height="251pt"
 viewBox="0.00 0.00 323.00 251.00" xmlns="http://www.w3.org/2000/svg" xmlns:xlink="http://www.w3.org/1999/xlink">
<g id="graph0" class="graph" transform="scale(1 1) rotate(0) translate(4 247)">
<title>NeutralinosOneToFive.hpp</title>
<!-- Node52 -->
<g id="node1" class="node">
<title>Node52</title>
<polygon fill="#bfbfbf" stroke="#000000" points="84.5,-225.5 84.5,-242.5 196.5,-242.5 196.5,-225.5 84.5,-225.5"/>
<text text-anchor="middle" x="140.5" y="-232.1" font-family="Helvetica,sans-Serif" font-size="8.00" fill="#000000">NeutralinosOneToFive.hpp</text>
</g>
<!-- Node53 -->
<g id="node2" class="node">
<title>Node53</title>
<g id="a_node2"><a xlink:href="../../d3/d26/_next_to_minimal_supersymmetric_standard_model_8hpp.html" target="_top" xlink:title="NextToMinimalSupersymmetric\lStandardModel.hpp">
<polygon fill="none" stroke="#000000" points="23.5,-162.5 23.5,-188.5 151.5,-188.5 151.5,-162.5 23.5,-162.5"/>
<text text-anchor="start" x="31.5" y="-178.1" font-family="Helvetica,sans-Serif" font-size="8.00" fill="#000000">NextToMinimalSupersymmetric</text>
<text text-anchor="middle" x="87.5" y="-169.1" font-family="Helvetica,sans-Serif" font-size="8.00" fill="#000000">StandardModel.hpp</text>
</a>
</g>
</g>
<!-- Node52&#45;&gt;Node53 -->
<g id="edge1" class="edge">
<title>Node52&#45;&gt;Node53</title>
<path fill="none" stroke="#191970" d="M125.7374,-217.7054C117.4559,-208.5645 107.2579,-197.3082 99.4769,-188.7197"/>
<polygon fill="#191970" stroke="#191970" points="123.3717,-220.3072 132.6797,-225.3681 128.5593,-215.6073 123.3717,-220.3072"/>
</g>
<!-- Node112 -->
<g id="node10" class="node">
<title>Node112</title>
<g id="a_node10"><a xlink:href="../../d5/d92/_p_s_c_8hpp.html" target="_top" xlink:title="PSC.hpp">
<polygon fill="none" stroke="#000000" points="170,-167 170,-184 219,-184 219,-167 170,-167"/>
<text text-anchor="middle" x="194.5" y="-173.6" font-family="Helvetica,sans-Serif" font-size="8.00" fill="#000000">PSC.hpp</text>
</a>
</g>
</g>
<!-- Node52&#45;&gt;Node112 -->
<g id="edge10" class="edge">
<title>Node52&#45;&gt;Node112</title>
<path fill="none" stroke="#191970" d="M155.48,-217.7716C165.522,-206.8929 178.3511,-192.9946 186.4994,-184.1673"/>
<polygon fill="#191970" stroke="#191970" points="152.6789,-215.6461 148.4679,-225.3681 157.8225,-220.3941 152.6789,-215.6461"/>
</g>
<!-- Node54 -->
<g id="node3" class="node">
<title>Node54</title>
<g id="a_node3"><a xlink:href="../../d0/d81/_default_spectra_8hpp.html" target="_top" xlink:title="DefaultSpectra.hpp">
<polygon fill="none" stroke="#000000" points="45,-108.5 45,-125.5 130,-125.5 130,-108.5 45,-108.5"/>
<text text-anchor="middle" x="87.5" y="-115.1" font-family="Helvetica,sans-Serif" font-size="8.00" fill="#000000">DefaultSpectra.hpp</text>
</a>
</g>
</g>
<!-- Node53&#45;&gt;Node54 -->
<g id="edge2" class="edge">
<title>Node53&#45;&gt;Node54</title>
<path fill="none" stroke="#191970" d="M87.5,-151.9486C87.5,-142.6839 87.5,-132.6257 87.5,-125.689"/>
<polygon fill="#191970" stroke="#191970" points="84.0001,-152.2254 87.5,-162.2254 91.0001,-152.2255 84.0001,-152.2254"/>
</g>
<!-- Node111 -->
<g id="node9" class="node">
<title>Node111</title>
<g id="a_node9"><a xlink:href="../../d1/d34/_m_s_c_8hpp.html" target="_top" xlink:title="MSC.hpp">
<polygon fill="none" stroke="#000000" points="148.5,-108.5 148.5,-125.5 198.5,-125.5 198.5,-108.5 148.5,-108.5"/>
<text text-anchor="middle" x="173.5" y="-115.1" font-family="Helvetica,sans-Serif" font-size="8.00" fill="#000000">MSC.hpp</text>
</a>
</g>
</g>
<!-- Node53&#45;&gt;Node111 -->
<g id="edge8" class="edge">
<title>Node53&#45;&gt;Node111</title>
<path fill="none" stroke="#191970" d="M115.6327,-156.3632C130.9513,-145.943 149.1407,-133.57 160.9819,-125.5152"/>
<polygon fill="#191970" stroke="#191970" points="113.3146,-153.7071 107.0147,-162.2254 117.2517,-159.4949 113.3146,-153.7071"/>
</g>
<!-- Node55 -->
<g id="node4" class="node">
<title>Node55</title>
<g id="a_node4"><a xlink:href="../../dd/d0e/_m_e_c_8hpp.html" target="_top" xlink:title="MEC.hpp">
<polygon fill="none" stroke="#ff0000" points="140.5,-54.5 140.5,-71.5 190.5,-71.5 190.5,-54.5 140.5,-54.5"/>
<text text-anchor="middle" x="165.5" y="-61.1" font-family="Helvetica,sans-Serif" font-size="8.00" fill="#000000">MEC.hpp</text>
</a>
</g>
</g>
<!-- Node54&#45;&gt;Node55 -->
<g id="edge3" class="edge">
<title>Node54&#45;&gt;Node55</title>
<path fill="none" stroke="#191970" d="M108.268,-102.6221C122.5171,-92.7574 140.9562,-79.9919 152.9991,-71.6545"/>
<polygon fill="#191970" stroke="#191970" points="106.2617,-99.7541 100.032,-108.324 110.2462,-105.5095 106.2617,-99.7541"/>
</g>
<!-- Node95 -->
<g id="node8" class="node">
<title>Node95</title>
<g id="a_node8"><a xlink:href="../../d4/d42/_s_l_h_a_8hpp.html" target="_top" xlink:title="SLHA.hpp">
<polygon fill="none" stroke="#ff0000" points="61,-54.5 61,-71.5 114,-71.5 114,-54.5 61,-54.5"/>
<text text-anchor="middle" x="87.5" y="-61.1" font-family="Helvetica,sans-Serif" font-size="8.00" fill="#000000">SLHA.hpp</text>
</a>
</g>
</g>
<!-- Node54&#45;&gt;Node95 -->
<g id="edge7" class="edge">
<title>Node54&#45;&gt;Node95</title>
<path fill="none" stroke="#191970" d="M87.5,-97.8045C87.5,-88.9102 87.5,-78.7798 87.5,-71.7511"/>
<polygon fill="#191970" stroke="#191970" points="84.0001,-98.083 87.5,-108.083 91.0001,-98.083 84.0001,-98.083"/>
</g>
<!-- Node56 -->
<g id="node5" class="node">
<title>Node56</title>
<g id="a_node5"><a xlink:href="../../dd/d50/_standard_preselector_8hpp.html" target="_top" xlink:title="StandardPreselector.hpp">
<polygon fill="none" stroke="#ff0000" points="0,-.5 0,-17.5 105,-17.5 105,-.5 0,-.5"/>
<text text-anchor="middle" x="52.5" y="-7.1" font-family="Helvetica,sans-Serif" font-size="8.00" fill="#000000">StandardPreselector.hpp</text>
</a>
</g>
</g>
<!-- Node55&#45;&gt;Node56 -->
<g id="edge4" class="edge">
<title>Node55&#45;&gt;Node56</title>
<path fill="none" stroke="#191970" d="M138.4972,-50.096C117.3857,-40.0073 88.6385,-26.2697 70.3214,-17.5164"/>
<polygon fill="#191970" stroke="#191970" points="137.063,-53.2897 147.5948,-54.4435 140.0812,-46.9738 137.063,-53.2897"/>
</g>
<!-- Node77 -->
<g id="node6" class="node">
<title>Node77</title>
<g id="a_node6"><a xlink:href="../../d9/de5/_extended_mass_8cpp.html" target="_top" xlink:title="ExtendedMass.cpp">
<polygon fill="none" stroke="#000000" points="123,-.5 123,-17.5 208,-17.5 208,-.5 123,-.5"/>
<text text-anchor="middle" x="165.5" y="-7.1" font-family="Helvetica,sans-Serif" font-size="8.00" fill="#000000">ExtendedMass.cpp</text>
</a>
</g>
</g>
<!-- Node55&#45;&gt;Node77 -->
<g id="edge5" class="edge">
<title>Node55&#45;&gt;Node77</title>
<path fill="none" stroke="#191970" d="M165.5,-43.8045C165.5,-34.9102 165.5,-24.7798 165.5,-17.7511"/>
<polygon fill="#191970" stroke="#191970" points="162.0001,-44.083 165.5,-54.083 169.0001,-44.083 162.0001,-44.083"/>
</g>
<!-- Node78 -->
<g id="node7" class="node">
<title>Node78</title>
<g id="a_node7"><a xlink:href="../../de/d33/_mass_eigenstate_8cpp.html" target="_top" xlink:title="MassEigenstate.cpp">
<polygon fill="none" stroke="#000000" points="226,-.5 226,-17.5 315,-17.5 315,-.5 226,-.5"/>
<text text-anchor="middle" x="270.5" y="-7.1" font-family="Helvetica,sans-Serif" font-size="8.00" fill="#000000">MassEigenstate.cpp</text>
</a>
</g>
</g>
<!-- Node55&#45;&gt;Node78 -->
<g id="edge6" class="edge">
<title>Node55&#45;&gt;Node78</title>
<path fill="none" stroke="#191970" d="M191.3103,-49.7261C210.7529,-39.7271 236.8484,-26.3065 253.6718,-17.6545"/>
<polygon fill="#191970" stroke="#191970" points="189.6622,-46.6379 182.3701,-54.324 192.8637,-52.8629 189.6622,-46.6379"/>
</g>
<!-- Node111&#45;&gt;Node55 -->
<g id="edge9" class="edge">
<title>Node111&#45;&gt;Node55</title>
<path fill="none" stroke="#191970" d="M170.7001,-98.1005C169.372,-89.1357 167.8493,-78.8579 166.7965,-71.7511"/>
<polygon fill="#191970" stroke="#191970" points="167.2512,-98.7039 172.179,-108.083 174.1756,-97.678 167.2512,-98.7039"/>
</g>
<!-- Node112&#45;&gt;Node111 -->
<g id="edge11" class="edge">
<title>Node112&#45;&gt;Node111</title>
<path fill="none" stroke="#191970" d="M187.9746,-157.3222C184.1886,-146.7753 179.5937,-133.9754 176.6113,-125.6673"/>
<polygon fill="#191970" stroke="#191970" points="184.7285,-158.6387 191.4014,-166.8681 191.3168,-156.2736 184.7285,-158.6387"/>
</g>
</g>
</svg>
