<?xml version="1.0" encoding="UTF-8" standalone="no"?>
<!DOCTYPE svg PUBLIC "-//W3C//DTD SVG 1.1//EN"
 "http://www.w3.org/Graphics/SVG/1.1/DTD/svg11.dtd">
<!-- Generated by graphviz version 2.40.1 (20161225.0304)
 -->
<!-- Title: Observable2D.h Pages: 1 -->
<svg width="518pt" height="188pt"
 viewBox="0.00 0.00 518.00 188.00" xmlns="http://www.w3.org/2000/svg" xmlns:xlink="http://www.w3.org/1999/xlink">
<g id="graph0" class="graph" transform="scale(1 1) rotate(0) translate(4 184)">
<title>Observable2D.h</title>
<!-- Node10 -->
<g id="node1" class="node">
<title>Node10</title>
<polygon fill="#bfbfbf" stroke="#000000" points="254.5,-162.5 254.5,-179.5 328.5,-179.5 328.5,-162.5 254.5,-162.5"/>
<text text-anchor="middle" x="291.5" y="-169.1" font-family="Helvetica,sans-Serif" font-size="8.00" fill="#000000">Observable2D.h</text>
</g>
<!-- Node11 -->
<g id="node2" class="node">
<title>Node11</title>
<g id="a_node2"><a xlink:href="../../dd/dee/_compute_observables_8cpp.html" target="_top" xlink:title="ComputeObservables.cpp">
<polygon fill="none" stroke="#000000" points="0,-.5 0,-17.5 109,-17.5 109,-.5 0,-.5"/>
<text text-anchor="middle" x="54.5" y="-7.1" font-family="Helvetica,sans-Serif" font-size="8.00" fill="#000000">ComputeObservables.cpp</text>
</a>
</g>
</g>
<!-- Node10&#45;&gt;Node11 -->
<g id="edge1" class="edge">
<title>Node10&#45;&gt;Node11</title>
<path fill="none" stroke="#191970" d="M245.391,-159.9596C178.0823,-142.8039 58.2185,-107.9609 33.5,-72 21.7446,-54.8981 36.9023,-30.6995 46.9383,-17.8389"/>
<polygon fill="#191970" stroke="#191970" points="244.7695,-163.4123 255.3214,-162.4596 246.4784,-156.6241 244.7695,-163.4123"/>
</g>
<!-- Node12 -->
<g id="node3" class="node">
<title>Node12</title>
<g id="a_node3"><a xlink:href="../../d2/dc8/_generate_event_8h.html" target="_top" xlink:title="GenerateEvent.h">
<polygon fill="none" stroke="#000000" points="292,-54.5 292,-71.5 369,-71.5 369,-54.5 292,-54.5"/>
<text text-anchor="middle" x="330.5" y="-61.1" font-family="Helvetica,sans-Serif" font-size="8.00" fill="#000000">GenerateEvent.h</text>
</a>
</g>
</g>
<!-- Node10&#45;&gt;Node12 -->
<g id="edge2" class="edge">
<title>Node10&#45;&gt;Node12</title>
<path fill="none" stroke="#191970" d="M296.8637,-152.5634C300.6605,-139.922 306.0315,-122.8218 311.5,-108 316.2554,-95.1111 322.6008,-80.5144 326.6196,-71.5327"/>
<polygon fill="#191970" stroke="#191970" points="293.4476,-151.7734 293.9695,-162.3554 300.1605,-153.7576 293.4476,-151.7734"/>
</g>
<!-- Node15 -->
<g id="node6" class="node">
<title>Node15</title>
<g id="a_node6"><a xlink:href="../../d8/d48/_input_parser_8h.html" target="_top" xlink:title="InputParser.h">
<polygon fill="none" stroke="#ff0000" points="198,-108.5 198,-125.5 263,-125.5 263,-108.5 198,-108.5"/>
<text text-anchor="middle" x="230.5" y="-115.1" font-family="Helvetica,sans-Serif" font-size="8.00" fill="#000000">InputParser.h</text>
</a>
</g>
</g>
<!-- Node10&#45;&gt;Node15 -->
<g id="edge5" class="edge">
<title>Node10&#45;&gt;Node15</title>
<path fill="none" stroke="#191970" d="M274.0328,-155.5372C263.1562,-145.9087 249.5561,-133.8694 240.479,-125.8339"/>
<polygon fill="#191970" stroke="#191970" points="271.8917,-158.3162 281.6993,-162.324 276.5316,-153.0749 271.8917,-158.3162"/>
</g>
<!-- Node25 -->
<g id="node9" class="node">
<title>Node25</title>
<g id="a_node9"><a xlink:href="../../d0/d26/_monte_carlo_engine_8h.html" target="_top" xlink:title="MonteCarloEngine.h">
<polygon fill="none" stroke="#ff0000" points="320,-108.5 320,-125.5 409,-125.5 409,-108.5 320,-108.5"/>
<text text-anchor="middle" x="364.5" y="-115.1" font-family="Helvetica,sans-Serif" font-size="8.00" fill="#000000">MonteCarloEngine.h</text>
</a>
</g>
</g>
<!-- Node10&#45;&gt;Node25 -->
<g id="edge11" class="edge">
<title>Node10&#45;&gt;Node25</title>
<path fill="none" stroke="#191970" d="M311.6416,-156.1008C324.7793,-146.3824 341.4821,-134.0269 352.5579,-125.8339"/>
<polygon fill="#191970" stroke="#191970" points="309.1867,-153.5631 303.2287,-162.324 313.3497,-159.1907 309.1867,-153.5631"/>
</g>
<!-- Node27 -->
<g id="node10" class="node">
<title>Node27</title>
<g id="a_node10"><a xlink:href="../../d9/dc9/_observable2_d_8cpp.html" target="_top" xlink:title="Observable2D.cpp">
<polygon fill="none" stroke="#000000" points="427,-108.5 427,-125.5 510,-125.5 510,-108.5 427,-108.5"/>
<text text-anchor="middle" x="468.5" y="-115.1" font-family="Helvetica,sans-Serif" font-size="8.00" fill="#000000">Observable2D.cpp</text>
</a>
</g>
</g>
<!-- Node10&#45;&gt;Node27 -->
<g id="edge12" class="edge">
<title>Node10&#45;&gt;Node27</title>
<path fill="none" stroke="#191970" d="M329.4032,-159.4363C362.775,-149.2551 410.6013,-134.664 440.585,-125.5164"/>
<polygon fill="#191970" stroke="#191970" points="328.0896,-156.1777 319.5462,-162.4435 330.1323,-162.8731 328.0896,-156.1777"/>
</g>
<!-- Node13 -->
<g id="node4" class="node">
<title>Node13</title>
<g id="a_node4"><a xlink:href="../../df/d0a/main_8cpp.html" target="_top" xlink:title="main.cpp">
<polygon fill="none" stroke="#000000" points="239,-.5 239,-17.5 288,-17.5 288,-.5 239,-.5"/>
<text text-anchor="middle" x="263.5" y="-7.1" font-family="Helvetica,sans-Serif" font-size="8.00" fill="#000000">main.cpp</text>
</a>
</g>
</g>
<!-- Node12&#45;&gt;Node13 -->
<g id="edge3" class="edge">
<title>Node12&#45;&gt;Node13</title>
<path fill="none" stroke="#191970" d="M311.6652,-47.8197C299.6616,-38.1452 284.5283,-25.9481 274.4606,-17.8339"/>
<polygon fill="#191970" stroke="#191970" points="309.753,-50.7738 319.7353,-54.324 314.1457,-45.3236 309.753,-50.7738"/>
</g>
<!-- Node14 -->
<g id="node5" class="node">
<title>Node14</title>
<g id="a_node5"><a xlink:href="../../d3/d4a/_generate_event_8cpp.html" target="_top" xlink:title="GenerateEvent.cpp">
<polygon fill="none" stroke="#000000" points="306,-.5 306,-17.5 391,-17.5 391,-.5 306,-.5"/>
<text text-anchor="middle" x="348.5" y="-7.1" font-family="Helvetica,sans-Serif" font-size="8.00" fill="#000000">GenerateEvent.cpp</text>
</a>
</g>
</g>
<!-- Node12&#45;&gt;Node14 -->
<g id="edge4" class="edge">
<title>Node12&#45;&gt;Node14</title>
<path fill="none" stroke="#191970" d="M336.7015,-44.3956C339.7127,-35.362 343.188,-24.936 345.583,-17.7511"/>
<polygon fill="#191970" stroke="#191970" points="333.3143,-43.4893 333.4723,-54.083 339.9551,-45.703 333.3143,-43.4893"/>
</g>
<!-- Node15&#45;&gt;Node12 -->
<g id="edge9" class="edge">
<title>Node15&#45;&gt;Node12</title>
<path fill="none" stroke="#191970" d="M255.5878,-103.4526C274.0491,-93.4835 298.5966,-80.2279 314.4731,-71.6545"/>
<polygon fill="#191970" stroke="#191970" points="253.7028,-100.4928 246.5667,-108.324 257.0288,-106.6521 253.7028,-100.4928"/>
</g>
<!-- Node15&#45;&gt;Node13 -->
<g id="edge6" class="edge">
<title>Node15&#45;&gt;Node13</title>
<path fill="none" stroke="#191970" d="M236.2124,-98.3049C243.4246,-74.7014 255.5321,-35.0769 260.8544,-17.6584"/>
<polygon fill="#191970" stroke="#191970" points="232.7756,-97.5756 233.2005,-108.1619 239.47,-99.6212 232.7756,-97.5756"/>
</g>
<!-- Node16 -->
<g id="node7" class="node">
<title>Node16</title>
<g id="a_node7"><a xlink:href="../../d1/dae/_compute_observables_8h.html" target="_top" xlink:title="ComputeObservables.h">
<polygon fill="none" stroke="#ff0000" points="43,-54.5 43,-71.5 144,-71.5 144,-54.5 43,-54.5"/>
<text text-anchor="middle" x="93.5" y="-61.1" font-family="Helvetica,sans-Serif" font-size="8.00" fill="#000000">ComputeObservables.h</text>
</a>
</g>
</g>
<!-- Node15&#45;&gt;Node16 -->
<g id="edge7" class="edge">
<title>Node15&#45;&gt;Node16</title>
<path fill="none" stroke="#191970" d="M199.4771,-104.772C173.7431,-94.6287 137.8141,-80.4669 115.1065,-71.5164"/>
<polygon fill="#191970" stroke="#191970" points="198.2051,-108.0326 208.7919,-108.4435 200.772,-101.5203 198.2051,-108.0326"/>
</g>
<!-- Node22 -->
<g id="node8" class="node">
<title>Node22</title>
<g id="a_node8"><a xlink:href="../../d0/d8e/_input_parser_8cpp.html" target="_top" xlink:title="InputParser.cpp">
<polygon fill="none" stroke="#000000" points="162,-54.5 162,-71.5 235,-71.5 235,-54.5 162,-54.5"/>
<text text-anchor="middle" x="198.5" y="-61.1" font-family="Helvetica,sans-Serif" font-size="8.00" fill="#000000">InputParser.cpp</text>
</a>
</g>
</g>
<!-- Node15&#45;&gt;Node22 -->
<g id="edge10" class="edge">
<title>Node15&#45;&gt;Node22</title>
<path fill="none" stroke="#191970" d="M219.9961,-99.2747C214.5269,-90.0454 208.0824,-79.1703 203.6858,-71.7511"/>
<polygon fill="#191970" stroke="#191970" points="217.1068,-101.2644 225.2159,-108.083 223.1288,-97.6957 217.1068,-101.2644"/>
</g>
<!-- Node16&#45;&gt;Node11 -->
<g id="edge8" class="edge">
<title>Node16&#45;&gt;Node11</title>
<path fill="none" stroke="#191970" d="M81.1178,-45.8554C74.3646,-36.5048 66.2914,-25.3265 60.8202,-17.7511"/>
<polygon fill="#191970" stroke="#191970" points="78.3676,-48.0254 87.0599,-54.083 84.0424,-43.927 78.3676,-48.0254"/>
</g>
</g>
</svg>
