<?xml version="1.0" encoding="UTF-8" standalone="no"?>
<!DOCTYPE svg PUBLIC "-//W3C//DTD SVG 1.1//EN"
 "http://www.w3.org/Graphics/SVG/1.1/DTD/svg11.dtd">
<!-- Generated by graphviz version 2.38.0 (20140413.2041)
 -->
<!-- Title: BParameter.h Pages: 1 -->
<svg width="329pt" height="296pt"
 viewBox="0.00 0.00 329.47 296.00" xmlns="http://www.w3.org/2000/svg" xmlns:xlink="http://www.w3.org/1999/xlink">
<g id="graph0" class="graph" transform="scale(1 1) rotate(0) translate(4 292)">
<title>BParameter.h</title>
<!-- Node1 -->
<g id="node1" class="node"><title>Node1</title>
<polygon fill="#bfbfbf" stroke="black" points="191.467,-270.5 191.467,-287.5 257.467,-287.5 257.467,-270.5 191.467,-270.5"/>
<text text-anchor="middle" x="224.467" y="-277.1" font-family="Helvetica,sans-Serif" font-size="8.00">BParameter.h</text>
</g>
<!-- Node2 -->
<g id="node2" class="node"><title>Node2</title>
<g id="a_node2"><a xlink:href="../../d1/d1a/_meson_8h.html" target="_top" xlink:title="Meson.h">
<polygon fill="none" stroke="black" points="200.967,-216.5 200.967,-233.5 247.967,-233.5 247.967,-216.5 200.967,-216.5"/>
<text text-anchor="middle" x="224.467" y="-223.1" font-family="Helvetica,sans-Serif" font-size="8.00">Meson.h</text>
</a>
</g>
</g>
<!-- Node1&#45;&gt;Node2 -->
<g id="edge1" class="edge"><title>Node1&#45;&gt;Node2</title>
<path fill="none" stroke="midnightblue" d="M224.467,-260.062C224.467,-251.06 224.467,-240.628 224.467,-233.704"/>
<polygon fill="midnightblue" stroke="midnightblue" points="220.967,-260.327 224.467,-270.327 227.967,-260.327 220.967,-260.327"/>
</g>
<!-- Node3 -->
<g id="node3" class="node"><title>Node3</title>
<g id="a_node3"><a xlink:href="../../d4/d68/_q_c_d_8h.html" target="_top" xlink:title="QCD.h">
<polygon fill="none" stroke="black" points="170.967,-162.5 170.967,-179.5 211.967,-179.5 211.967,-162.5 170.967,-162.5"/>
<text text-anchor="middle" x="191.467" y="-169.1" font-family="Helvetica,sans-Serif" font-size="8.00">QCD.h</text>
</a>
</g>
</g>
<!-- Node2&#45;&gt;Node3 -->
<g id="edge2" class="edge"><title>Node2&#45;&gt;Node3</title>
<path fill="none" stroke="midnightblue" d="M214.213,-207.842C208.263,-198.467 201.043,-187.089 196.356,-179.704"/>
<polygon fill="midnightblue" stroke="midnightblue" points="211.284,-209.759 219.597,-216.327 217.194,-206.009 211.284,-209.759"/>
</g>
<!-- Node10 -->
<g id="node10" class="node"><title>Node10</title>
<g id="a_node10"><a xlink:href="../../d9/df1/_meson_8cpp.html" target="_top" xlink:title="Meson.cpp">
<polygon fill="none" stroke="black" points="230.467,-162.5 230.467,-179.5 286.467,-179.5 286.467,-162.5 230.467,-162.5"/>
<text text-anchor="middle" x="258.467" y="-169.1" font-family="Helvetica,sans-Serif" font-size="8.00">Meson.cpp</text>
</a>
</g>
</g>
<!-- Node2&#45;&gt;Node10 -->
<g id="edge11" class="edge"><title>Node2&#45;&gt;Node10</title>
<path fill="none" stroke="midnightblue" d="M235.032,-207.842C241.161,-198.467 248.601,-187.089 253.429,-179.704"/>
<polygon fill="midnightblue" stroke="midnightblue" points="232.027,-206.042 229.484,-216.327 237.885,-209.873 232.027,-206.042"/>
</g>
<!-- Node4 -->
<g id="node4" class="node"><title>Node4</title>
<g id="a_node4"><a xlink:href="../../d5/dcf/_heff_d_f2_8cpp.html" target="_top" xlink:title="HeffDF2.cpp">
<polygon fill="none" stroke="black" points="40.9667,-0.5 40.9667,-17.5 101.967,-17.5 101.967,-0.5 40.9667,-0.5"/>
<text text-anchor="middle" x="71.4667" y="-7.1" font-family="Helvetica,sans-Serif" font-size="8.00">HeffDF2.cpp</text>
</a>
</g>
</g>
<!-- Node3&#45;&gt;Node4 -->
<g id="edge3" class="edge"><title>Node3&#45;&gt;Node4</title>
<path fill="none" stroke="midnightblue" d="M161.065,-164.284C117.272,-154.234 37.9218,-128.816 3.46669,-72 -11.0305,-48.0943 26.0691,-27.8996 50.9976,-17.5133"/>
<polygon fill="midnightblue" stroke="midnightblue" points="160.355,-167.711 170.87,-166.413 161.841,-160.87 160.355,-167.711"/>
</g>
<!-- Node5 -->
<g id="node5" class="node"><title>Node5</title>
<g id="a_node5"><a xlink:href="../../d6/d0a/_standard_model_8h.html" target="_top" xlink:title="StandardModel.h">
<polygon fill="none" stroke="red" points="119.967,-108.5 119.967,-125.5 196.967,-125.5 196.967,-108.5 119.967,-108.5"/>
<text text-anchor="middle" x="158.467" y="-115.1" font-family="Helvetica,sans-Serif" font-size="8.00">StandardModel.h</text>
</a>
</g>
</g>
<!-- Node3&#45;&gt;Node5 -->
<g id="edge4" class="edge"><title>Node3&#45;&gt;Node5</title>
<path fill="none" stroke="midnightblue" d="M181.213,-153.842C175.263,-144.467 168.043,-133.089 163.356,-125.704"/>
<polygon fill="midnightblue" stroke="midnightblue" points="178.284,-155.759 186.597,-162.327 184.194,-152.009 178.284,-155.759"/>
</g>
<!-- Node8 -->
<g id="node8" class="node"><title>Node8</title>
<g id="a_node8"><a xlink:href="../../d3/db6/_standard_model_matching_8cpp.html" target="_top" xlink:title="StandardModelMatching.cpp">
<polygon fill="none" stroke="black" points="203.467,-54.5 203.467,-71.5 321.467,-71.5 321.467,-54.5 203.467,-54.5"/>
<text text-anchor="middle" x="262.467" y="-61.1" font-family="Helvetica,sans-Serif" font-size="8.00">StandardModelMatching.cpp</text>
</a>
</g>
</g>
<!-- Node3&#45;&gt;Node8 -->
<g id="edge10" class="edge"><title>Node3&#45;&gt;Node8</title>
<path fill="none" stroke="midnightblue" d="M202.205,-153.969C217.756,-130.751 245.938,-88.6768 257.407,-71.5542"/>
<polygon fill="midnightblue" stroke="midnightblue" points="199.23,-152.121 196.573,-162.377 205.046,-156.016 199.23,-152.121"/>
</g>
<!-- Node9 -->
<g id="node9" class="node"><title>Node9</title>
<g id="a_node9"><a xlink:href="../../d2/d8d/_q_c_d_8cpp.html" target="_top" xlink:title="QCD.cpp">
<polygon fill="none" stroke="black" points="253.967,-108.5 253.967,-125.5 302.967,-125.5 302.967,-108.5 253.967,-108.5"/>
<text text-anchor="middle" x="278.467" y="-115.1" font-family="Helvetica,sans-Serif" font-size="8.00">QCD.cpp</text>
</a>
</g>
</g>
<!-- Node3&#45;&gt;Node9 -->
<g id="edge9" class="edge"><title>Node3&#45;&gt;Node9</title>
<path fill="none" stroke="midnightblue" d="M213.312,-156.943C229.899,-147.029 252.125,-133.745 265.86,-125.535"/>
<polygon fill="midnightblue" stroke="midnightblue" points="211.092,-154.192 204.304,-162.327 214.683,-160.201 211.092,-154.192"/>
</g>
<!-- Node6 -->
<g id="node6" class="node"><title>Node6</title>
<g id="a_node6"><a xlink:href="../../d1/dae/_compute_observables_8h.html" target="_top" xlink:title="ComputeObservables.h">
<polygon fill="none" stroke="red" points="12.9667,-54.5 12.9667,-71.5 113.967,-71.5 113.967,-54.5 12.9667,-54.5"/>
<text text-anchor="middle" x="63.4667" y="-61.1" font-family="Helvetica,sans-Serif" font-size="8.00">ComputeObservables.h</text>
</a>
</g>
</g>
<!-- Node5&#45;&gt;Node6 -->
<g id="edge5" class="edge"><title>Node5&#45;&gt;Node6</title>
<path fill="none" stroke="midnightblue" d="M135.622,-103.496C117.411,-93.5277 92.5113,-79.8981 77.2329,-71.5352"/>
<polygon fill="midnightblue" stroke="midnightblue" points="133.997,-106.596 144.449,-108.327 137.358,-100.456 133.997,-106.596"/>
</g>
<!-- Node7 -->
<g id="node7" class="node"><title>Node7</title>
<g id="a_node7"><a xlink:href="../../dd/d03/_heff_d_f2_8h.html" target="_top" xlink:title="HeffDF2.h">
<polygon fill="none" stroke="red" points="131.967,-54.5 131.967,-71.5 184.967,-71.5 184.967,-54.5 131.967,-54.5"/>
<text text-anchor="middle" x="158.467" y="-61.1" font-family="Helvetica,sans-Serif" font-size="8.00">HeffDF2.h</text>
</a>
</g>
</g>
<!-- Node5&#45;&gt;Node7 -->
<g id="edge6" class="edge"><title>Node5&#45;&gt;Node7</title>
<path fill="none" stroke="midnightblue" d="M158.467,-98.0621C158.467,-89.0603 158.467,-78.6277 158.467,-71.7043"/>
<polygon fill="midnightblue" stroke="midnightblue" points="154.967,-98.3272 158.467,-108.327 161.967,-98.3273 154.967,-98.3272"/>
</g>
<!-- Node5&#45;&gt;Node8 -->
<g id="edge8" class="edge"><title>Node5&#45;&gt;Node8</title>
<path fill="none" stroke="midnightblue" d="M182.929,-103.769C202.91,-93.7782 230.517,-79.9748 247.396,-71.5352"/>
<polygon fill="midnightblue" stroke="midnightblue" points="181.191,-100.725 173.812,-108.327 184.322,-106.986 181.191,-100.725"/>
</g>
<!-- Node7&#45;&gt;Node4 -->
<g id="edge7" class="edge"><title>Node7&#45;&gt;Node4</title>
<path fill="none" stroke="midnightblue" d="M136.622,-48.9433C120.035,-39.0293 97.8087,-25.7447 84.0736,-17.5352"/>
<polygon fill="midnightblue" stroke="midnightblue" points="135.25,-52.201 145.63,-54.3272 138.842,-46.1925 135.25,-52.201"/>
</g>
</g>
</svg>
