<?xml version="1.0" encoding="UTF-8" standalone="no"?>
<!DOCTYPE svg PUBLIC "-//W3C//DTD SVG 1.1//EN"
 "http://www.w3.org/Graphics/SVG/1.1/DTD/svg11.dtd">
<!-- Generated by graphviz version 2.40.1 (20161225.0304)
 -->
<!-- Title: StdVectorFiller.hpp Pages: 1 -->
<svg width="669pt" height="242pt"
 viewBox="0.00 0.00 668.82 242.00" xmlns="http://www.w3.org/2000/svg" xmlns:xlink="http://www.w3.org/1999/xlink">
<g id="graph0" class="graph" transform="scale(1 1) rotate(0) translate(4 238)">
<title>StdVectorFiller.hpp</title>
<!-- Node3 -->
<g id="node1" class="node">
<title>Node3</title>
<polygon fill="#bfbfbf" stroke="#000000" points="469.5,-216.5 469.5,-233.5 554.5,-233.5 554.5,-216.5 469.5,-216.5"/>
<text text-anchor="middle" x="512" y="-223.1" font-family="Helvetica,sans-Serif" font-size="8.00" fill="#000000">StdVectorFiller.hpp</text>
</g>
<!-- Node4 -->
<g id="node2" class="node">
<title>Node4</title>
<g id="a_node2"><a xlink:href="../../d3/d97/_string_parser_8hpp.html" target="_top" xlink:title="StringParser.hpp">
<polygon fill="none" stroke="#ff0000" points="307.5,-162.5 307.5,-179.5 384.5,-179.5 384.5,-162.5 307.5,-162.5"/>
<text text-anchor="middle" x="346" y="-169.1" font-family="Helvetica,sans-Serif" font-size="8.00" fill="#000000">StringParser.hpp</text>
</a>
</g>
</g>
<!-- Node3&#45;&gt;Node4 -->
<g id="edge1" class="edge">
<title>Node3&#45;&gt;Node4</title>
<path fill="none" stroke="#191970" d="M476.0469,-213.3044C444.7681,-203.1294 400.1793,-188.6246 372.1801,-179.5164"/>
<polygon fill="#191970" stroke="#191970" points="475.1046,-216.6783 485.6968,-216.4435 477.27,-210.0217 475.1046,-216.6783"/>
</g>
<!-- Node7 -->
<g id="node5" class="node">
<title>Node7</title>
<g id="a_node5"><a xlink:href="../../d8/d14/_b_o_llib_8hpp.html" target="_top" xlink:title="BOLlib.hpp">
<polygon fill="none" stroke="#ff0000" points="366,-.5 366,-17.5 422,-17.5 422,-.5 366,-.5"/>
<text text-anchor="middle" x="394" y="-7.1" font-family="Helvetica,sans-Serif" font-size="8.00" fill="#000000">BOLlib.hpp</text>
</a>
</g>
</g>
<!-- Node3&#45;&gt;Node7 -->
<g id="edge17" class="edge">
<title>Node3&#45;&gt;Node7</title>
<path fill="none" stroke="#191970" d="M552.9197,-213.2137C600.6291,-196.8081 671.4999,-162.7751 659,-108 653.0737,-82.0306 654.1392,-70.2069 633,-54 600.2463,-28.8885 478.1352,-15.8871 422.248,-11.1445"/>
<polygon fill="#191970" stroke="#191970" points="551.5263,-209.9879 543.1289,-216.4481 553.7221,-216.6346 551.5263,-209.9879"/>
</g>
<!-- Node5 -->
<g id="node3" class="node">
<title>Node5</title>
<g id="a_node3"><a xlink:href="../../d4/dbc/_ascii_xml_parser_8hpp.html" target="_top" xlink:title="AsciiXmlParser.hpp">
<polygon fill="none" stroke="#ff0000" points="125,-108.5 125,-125.5 211,-125.5 211,-108.5 125,-108.5"/>
<text text-anchor="middle" x="168" y="-115.1" font-family="Helvetica,sans-Serif" font-size="8.00" fill="#000000">AsciiXmlParser.hpp</text>
</a>
</g>
</g>
<!-- Node4&#45;&gt;Node5 -->
<g id="edge2" class="edge">
<title>Node4&#45;&gt;Node5</title>
<path fill="none" stroke="#191970" d="M307.8827,-159.4363C274.3223,-149.2551 226.2258,-134.664 196.0727,-125.5164"/>
<polygon fill="#191970" stroke="#191970" points="307.2099,-162.8897 317.7954,-162.4435 309.2421,-156.1911 307.2099,-162.8897"/>
</g>
<!-- Node6 -->
<g id="node4" class="node">
<title>Node6</title>
<g id="a_node4"><a xlink:href="../../dc/d4c/_argument_parser_8hpp.html" target="_top" xlink:title="ArgumentParser.hpp">
<polygon fill="none" stroke="#ff0000" points="0,-54.5 0,-71.5 90,-71.5 90,-54.5 0,-54.5"/>
<text text-anchor="middle" x="45" y="-61.1" font-family="Helvetica,sans-Serif" font-size="8.00" fill="#000000">ArgumentParser.hpp</text>
</a>
</g>
</g>
<!-- Node4&#45;&gt;Node6 -->
<g id="edge7" class="edge">
<title>Node4&#45;&gt;Node6</title>
<path fill="none" stroke="#191970" d="M297.3039,-164.5455C239.5641,-156.3617 147.2198,-141.4479 116,-126 88.5276,-112.4063 63.4956,-85.3087 51.8603,-71.506"/>
<polygon fill="#191970" stroke="#191970" points="296.9208,-168.0259 307.3093,-165.9455 297.8908,-161.0935 296.9208,-168.0259"/>
</g>
<!-- Node4&#45;&gt;Node7 -->
<g id="edge12" class="edge">
<title>Node4&#45;&gt;Node7</title>
<path fill="none" stroke="#191970" d="M336.8664,-153.2167C325.9381,-129.2685 311.1027,-85.9721 328,-54 337.1369,-36.7117 356.2307,-24.8163 371.5415,-17.6178"/>
<polygon fill="#191970" stroke="#191970" points="333.8408,-154.9996 341.3459,-162.4779 340.1424,-151.9516 333.8408,-154.9996"/>
</g>
<!-- Node107 -->
<g id="node6" class="node">
<title>Node107</title>
<g id="a_node6"><a xlink:href="../../d1/d4c/_slha_value_colored_segments_8hpp.html" target="_top" xlink:title="SlhaValueColoredSegments.hpp">
<polygon fill="none" stroke="#ff0000" points="146.5,-54.5 146.5,-71.5 279.5,-71.5 279.5,-54.5 146.5,-54.5"/>
<text text-anchor="middle" x="213" y="-61.1" font-family="Helvetica,sans-Serif" font-size="8.00" fill="#000000">SlhaValueColoredSegments.hpp</text>
</a>
</g>
</g>
<!-- Node4&#45;&gt;Node107 -->
<g id="edge16" class="edge">
<title>Node4&#45;&gt;Node107</title>
<path fill="none" stroke="#191970" d="M327.1653,-155.7056C298.8355,-132.701 246.1808,-89.9438 223.6626,-71.6584"/>
<polygon fill="#191970" stroke="#191970" points="325.1468,-158.5752 335.1161,-162.1619 329.5594,-153.1411 325.1468,-158.5752"/>
</g>
<!-- Node161 -->
<g id="node7" class="node">
<title>Node161</title>
<g id="a_node7"><a xlink:href="../../d5/d0a/_commented_text_parser_8hpp.html" target="_top" xlink:title="CommentedTextParser.hpp">
<polygon fill="none" stroke="#ff0000" points="336.5,-54.5 336.5,-71.5 451.5,-71.5 451.5,-54.5 336.5,-54.5"/>
<text text-anchor="middle" x="394" y="-61.1" font-family="Helvetica,sans-Serif" font-size="8.00" fill="#000000">CommentedTextParser.hpp</text>
</a>
</g>
</g>
<!-- Node4&#45;&gt;Node161 -->
<g id="edge8" class="edge">
<title>Node4&#45;&gt;Node161</title>
<path fill="none" stroke="#191970" d="M352.2291,-152.8471C356.7604,-140.1247 363.2598,-122.8151 370,-108 375.8666,-95.1051 383.775,-80.7507 388.8812,-71.7983"/>
<polygon fill="#191970" stroke="#191970" points="348.9208,-151.7048 348.9236,-162.2996 355.5284,-154.0155 348.9208,-151.7048"/>
</g>
<!-- Node163 -->
<g id="node8" class="node">
<title>Node163</title>
<g id="a_node8"><a xlink:href="../../db/d94/_input_file_to_output_file_claimer_8hpp.html" target="_top" xlink:title="InputFileToOutputFileClaimer.hpp">
<polygon fill="none" stroke="#ff0000" points="469.5,-54.5 469.5,-71.5 606.5,-71.5 606.5,-54.5 469.5,-54.5"/>
<text text-anchor="middle" x="538" y="-61.1" font-family="Helvetica,sans-Serif" font-size="8.00" fill="#000000">InputFileToOutputFileClaimer.hpp</text>
</a>
</g>
</g>
<!-- Node4&#45;&gt;Node163 -->
<g id="edge10" class="edge">
<title>Node4&#45;&gt;Node163</title>
<path fill="none" stroke="#191970" d="M357.7753,-154.046C368.3844,-139.9224 385.173,-120.2099 404,-108 431.7962,-89.9733 467.5403,-78.445 495.1199,-71.5744"/>
<polygon fill="#191970" stroke="#191970" points="354.7669,-152.2329 351.7366,-162.3851 360.4366,-156.3385 354.7669,-152.2329"/>
</g>
<!-- Node165 -->
<g id="node9" class="node">
<title>Node165</title>
<g id="a_node9"><a xlink:href="../../de/d2b/_waiting_on_subprocess_executor_8hpp.html" target="_top" xlink:title="WaitingOnSubprocessExecutor.hpp">
<polygon fill="none" stroke="#ff0000" points="412.5,-108.5 412.5,-125.5 555.5,-125.5 555.5,-108.5 412.5,-108.5"/>
<text text-anchor="middle" x="484" y="-115.1" font-family="Helvetica,sans-Serif" font-size="8.00" fill="#000000">WaitingOnSubprocessExecutor.hpp</text>
</a>
</g>
</g>
<!-- Node4&#45;&gt;Node165 -->
<g id="edge13" class="edge">
<title>Node4&#45;&gt;Node165</title>
<path fill="none" stroke="#191970" d="M377.2493,-158.772C403.1712,-148.6287 439.3625,-134.4669 462.2358,-125.5164"/>
<polygon fill="#191970" stroke="#191970" points="375.9035,-155.5401 367.8665,-162.4435 378.4544,-162.0588 375.9035,-155.5401"/>
</g>
<!-- Node169 -->
<g id="node10" class="node">
<title>Node169</title>
<g id="a_node10"><a xlink:href="../../d3/db9/_string_parser_8cpp.html" target="_top" xlink:title="StringParser.cpp">
<polygon fill="none" stroke="#000000" points="574,-108.5 574,-125.5 650,-125.5 650,-108.5 574,-108.5"/>
<text text-anchor="middle" x="612" y="-115.1" font-family="Helvetica,sans-Serif" font-size="8.00" fill="#000000">StringParser.cpp</text>
</a>
</g>
</g>
<!-- Node4&#45;&gt;Node169 -->
<g id="edge15" class="edge">
<title>Node4&#45;&gt;Node169</title>
<path fill="none" stroke="#191970" d="M394.5827,-161.1374C446.1157,-150.6758 526.4704,-134.3631 573.7062,-124.7739"/>
<polygon fill="#191970" stroke="#191970" points="393.7824,-157.7283 384.6787,-163.1479 395.1751,-164.5884 393.7824,-157.7283"/>
</g>
<!-- Node5&#45;&gt;Node6 -->
<g id="edge3" class="edge">
<title>Node5&#45;&gt;Node6</title>
<path fill="none" stroke="#191970" d="M139.2266,-104.3678C116.1926,-94.2553 84.5162,-80.3486 64.3985,-71.5164"/>
<polygon fill="#191970" stroke="#191970" points="137.9468,-107.6283 148.5103,-108.4435 140.7608,-101.2188 137.9468,-107.6283"/>
</g>
<!-- Node5&#45;&gt;Node7 -->
<g id="edge5" class="edge">
<title>Node5&#45;&gt;Node7</title>
<path fill="none" stroke="#191970" d="M151.3415,-101.2756C138.98,-87.7045 126.1492,-68.1156 138,-54 166.8704,-19.6121 305.5478,-11.4948 365.8712,-9.5849"/>
<polygon fill="#191970" stroke="#191970" points="148.8864,-103.7711 158.3754,-108.4838 153.8963,-98.8823 148.8864,-103.7711"/>
</g>
<!-- Node5&#45;&gt;Node107 -->
<g id="edge6" class="edge">
<title>Node5&#45;&gt;Node107</title>
<path fill="none" stroke="#191970" d="M182.0467,-100.144C189.8869,-90.7357 199.3295,-79.4046 205.7074,-71.7511"/>
<polygon fill="#191970" stroke="#191970" points="179.1439,-98.1601 175.4308,-108.083 184.5215,-102.6414 179.1439,-98.1601"/>
</g>
<!-- Node6&#45;&gt;Node7 -->
<g id="edge4" class="edge">
<title>Node6&#45;&gt;Node7</title>
<path fill="none" stroke="#191970" d="M100.5399,-54.4064C176.1064,-42.7142 308.4784,-22.2326 365.996,-13.333"/>
<polygon fill="#191970" stroke="#191970" points="99.6151,-51.0078 90.2679,-55.9958 100.6855,-57.9255 99.6151,-51.0078"/>
</g>
<!-- Node161&#45;&gt;Node7 -->
<g id="edge9" class="edge">
<title>Node161&#45;&gt;Node7</title>
<path fill="none" stroke="#191970" d="M394,-43.8045C394,-34.9102 394,-24.7798 394,-17.7511"/>
<polygon fill="#191970" stroke="#191970" points="390.5001,-44.083 394,-54.083 397.5001,-44.083 390.5001,-44.083"/>
</g>
<!-- Node163&#45;&gt;Node7 -->
<g id="edge11" class="edge">
<title>Node163&#45;&gt;Node7</title>
<path fill="none" stroke="#191970" d="M505.7489,-50.9058C478.6761,-40.7536 440.6835,-26.5063 416.7105,-17.5164"/>
<polygon fill="#191970" stroke="#191970" points="504.5905,-54.2094 515.1828,-54.4435 507.0484,-47.6551 504.5905,-54.2094"/>
</g>
<!-- Node165&#45;&gt;Node7 -->
<g id="edge14" class="edge">
<title>Node165&#45;&gt;Node7</title>
<path fill="none" stroke="#191970" d="M556.8918,-106.3712C598.3927,-97.1937 638.0974,-81.026 616,-54 591.7921,-24.3928 476.2207,-13.7987 422.0894,-10.4173"/>
<polygon fill="#191970" stroke="#191970" points="555.9858,-102.9846 546.9068,-108.4457 557.4097,-109.8383 555.9858,-102.9846"/>
</g>
</g>
</svg>
