<?xml version="1.0" encoding="UTF-8" standalone="no"?>
<!DOCTYPE svg PUBLIC "-//W3C//DTD SVG 1.1//EN"
 "http://www.w3.org/Graphics/SVG/1.1/DTD/svg11.dtd">
<!-- Generated by graphviz version 2.40.1 (20161225.0304)
 -->
<!-- Title: EvolDB1bsg.cpp Pages: 1 -->
<svg width="508pt" height="188pt"
 viewBox="0.00 0.00 508.00 188.00" xmlns="http://www.w3.org/2000/svg" xmlns:xlink="http://www.w3.org/1999/xlink">
<g id="graph0" class="graph" transform="scale(1 1) rotate(0) translate(4 184)">
<title>EvolDB1bsg.cpp</title>
<!-- Node0 -->
<g id="node1" class="node">
<title>Node0</title>
<polygon fill="#bfbfbf" stroke="#000000" points="90,-162.5 90,-179.5 166,-179.5 166,-162.5 90,-162.5"/>
<text text-anchor="middle" x="128" y="-169.1" font-family="Helvetica,sans-Serif" font-size="8.00" fill="#000000">EvolDB1bsg.cpp</text>
</g>
<!-- Node1 -->
<g id="node2" class="node">
<title>Node1</title>
<polygon fill="none" stroke="#bfbfbf" points="0,-108.5 0,-125.5 76,-125.5 76,-108.5 0,-108.5"/>
<text text-anchor="middle" x="38" y="-115.1" font-family="Helvetica,sans-Serif" font-size="8.00" fill="#000000">gsl/gsl_sf_zeta.h</text>
</g>
<!-- Node0&#45;&gt;Node1 -->
<g id="edge1" class="edge">
<title>Node0&#45;&gt;Node1</title>
<path fill="none" stroke="#191970" d="M113.5399,-162.324C99.5004,-153.9002 77.9515,-140.9709 61.4569,-131.0741"/>
<polygon fill="#191970" stroke="#191970" points="62.7999,-127.7983 52.4242,-125.6545 59.1984,-133.8007 62.7999,-127.7983"/>
</g>
<!-- Node2 -->
<g id="node3" class="node">
<title>Node2</title>
<g id="a_node3"><a xlink:href="../../de/d14/_evol_d_b1bsg_8h.html" target="_top" xlink:title="EvolDB1bsg.h">
<polygon fill="none" stroke="#000000" points="94.5,-108.5 94.5,-125.5 161.5,-125.5 161.5,-108.5 94.5,-108.5"/>
<text text-anchor="middle" x="128" y="-115.1" font-family="Helvetica,sans-Serif" font-size="8.00" fill="#000000">EvolDB1bsg.h</text>
</a>
</g>
</g>
<!-- Node0&#45;&gt;Node2 -->
<g id="edge2" class="edge">
<title>Node0&#45;&gt;Node2</title>
<path fill="none" stroke="#191970" d="M128,-162.083C128,-155.0059 128,-144.8611 128,-135.9865"/>
<polygon fill="#191970" stroke="#191970" points="131.5001,-135.751 128,-125.7511 124.5001,-135.7511 131.5001,-135.751"/>
</g>
<!-- Node24 -->
<g id="node5" class="node">
<title>Node24</title>
<g id="a_node5"><a xlink:href="../../d6/d0a/_standard_model_8h.html" target="_top" xlink:title="StandardModel.h">
<polygon fill="none" stroke="#ff0000" points="223.5,-108.5 223.5,-125.5 300.5,-125.5 300.5,-108.5 223.5,-108.5"/>
<text text-anchor="middle" x="262" y="-115.1" font-family="Helvetica,sans-Serif" font-size="8.00" fill="#000000">StandardModel.h</text>
</a>
</g>
</g>
<!-- Node0&#45;&gt;Node24 -->
<g id="edge4" class="edge">
<title>Node0&#45;&gt;Node24</title>
<path fill="none" stroke="#191970" d="M149.2327,-162.4435C171.3835,-153.5171 206.3187,-139.4387 231.436,-129.3168"/>
<polygon fill="#191970" stroke="#191970" points="232.8997,-132.5006 240.8666,-125.5164 230.2832,-126.0079 232.8997,-132.5006"/>
</g>
<!-- Node3 -->
<g id="node4" class="node">
<title>Node3</title>
<g id="a_node4"><a xlink:href="../../dc/d57/_r_g_evolutor_8h.html" target="_top" xlink:title="RGEvolutor.h">
<polygon fill="none" stroke="#ff0000" points="76.5,-54.5 76.5,-71.5 141.5,-71.5 141.5,-54.5 76.5,-54.5"/>
<text text-anchor="middle" x="109" y="-61.1" font-family="Helvetica,sans-Serif" font-size="8.00" fill="#000000">RGEvolutor.h</text>
</a>
</g>
</g>
<!-- Node2&#45;&gt;Node3 -->
<g id="edge3" class="edge">
<title>Node2&#45;&gt;Node3</title>
<path fill="none" stroke="#191970" d="M124.8625,-108.083C122.3171,-100.8486 118.6438,-90.4087 115.4729,-81.3968"/>
<polygon fill="#191970" stroke="#191970" points="118.6998,-80.0225 112.0791,-71.7511 112.0966,-82.3459 118.6998,-80.0225"/>
</g>
<!-- Node25 -->
<g id="node6" class="node">
<title>Node25</title>
<g id="a_node6"><a xlink:href="../../d2/d65/_flavour_8h.html" target="_top" xlink:title="Flavour.h">
<polygon fill="none" stroke="#ff0000" points="160,-54.5 160,-71.5 210,-71.5 210,-54.5 160,-54.5"/>
<text text-anchor="middle" x="185" y="-61.1" font-family="Helvetica,sans-Serif" font-size="8.00" fill="#000000">Flavour.h</text>
</a>
</g>
</g>
<!-- Node24&#45;&gt;Node25 -->
<g id="edge5" class="edge">
<title>Node24&#45;&gt;Node25</title>
<path fill="none" stroke="#191970" d="M249.6286,-108.324C237.8415,-100.0577 219.8677,-87.4527 205.8645,-77.6322"/>
<polygon fill="#191970" stroke="#191970" points="207.5376,-74.5307 197.3407,-71.6545 203.5184,-80.2619 207.5376,-74.5307"/>
</g>
<!-- Node26 -->
<g id="node7" class="node">
<title>Node26</title>
<g id="a_node7"><a xlink:href="../../d4/d68/_q_c_d_8h.html" target="_top" xlink:title="QCD.h">
<polygon fill="none" stroke="#ff0000" points="190.5,-.5 190.5,-17.5 231.5,-17.5 231.5,-.5 190.5,-.5"/>
<text text-anchor="middle" x="211" y="-7.1" font-family="Helvetica,sans-Serif" font-size="8.00" fill="#000000">QCD.h</text>
</a>
</g>
</g>
<!-- Node24&#45;&gt;Node26 -->
<g id="edge7" class="edge">
<title>Node24&#45;&gt;Node26</title>
<path fill="none" stroke="#191970" d="M257.8265,-108.1619C249.4544,-90.4328 230.4683,-50.2271 219.4147,-26.8193"/>
<polygon fill="#191970" stroke="#191970" points="222.5237,-25.2063 215.0887,-17.6584 216.1939,-28.1954 222.5237,-25.2063"/>
</g>
<!-- Node40 -->
<g id="node8" class="node">
<title>Node40</title>
<g id="a_node8"><a xlink:href="../../db/d5d/_c_k_m_8h.html" target="_top" xlink:title="CKM.h">
<polygon fill="none" stroke="#ff0000" points="266.5,-54.5 266.5,-71.5 307.5,-71.5 307.5,-54.5 266.5,-54.5"/>
<text text-anchor="middle" x="287" y="-61.1" font-family="Helvetica,sans-Serif" font-size="8.00" fill="#000000">CKM.h</text>
</a>
</g>
</g>
<!-- Node24&#45;&gt;Node40 -->
<g id="edge8" class="edge">
<title>Node24&#45;&gt;Node40</title>
<path fill="none" stroke="#191970" d="M266.1282,-108.083C269.5139,-100.77 274.416,-90.1814 278.6188,-81.1034"/>
<polygon fill="#191970" stroke="#191970" points="281.9234,-82.2962 282.9486,-71.7511 275.5711,-79.3553 281.9234,-82.2962"/>
</g>
<!-- Node42 -->
<g id="node9" class="node">
<title>Node42</title>
<g id="a_node9"><a xlink:href="../../d9/d22/_p_m_n_s_8h.html" target="_top" xlink:title="PMNS.h">
<polygon fill="none" stroke="#ff0000" points="326,-54.5 326,-71.5 372,-71.5 372,-54.5 326,-54.5"/>
<text text-anchor="middle" x="349" y="-61.1" font-family="Helvetica,sans-Serif" font-size="8.00" fill="#000000">PMNS.h</text>
</a>
</g>
</g>
<!-- Node24&#45;&gt;Node42 -->
<g id="edge9" class="edge">
<title>Node24&#45;&gt;Node42</title>
<path fill="none" stroke="#191970" d="M275.9781,-108.324C289.5496,-99.9002 310.3802,-86.9709 326.325,-77.0741"/>
<polygon fill="#191970" stroke="#191970" points="328.406,-79.9019 335.0566,-71.6545 324.7144,-73.9544 328.406,-79.9019"/>
</g>
<!-- Node43 -->
<g id="node10" class="node">
<title>Node43</title>
<g id="a_node10"><a xlink:href="../../d6/d16/_standard_model_matching_8h.html" target="_top" xlink:title="StandardModelMatching.h">
<polygon fill="none" stroke="#ff0000" points="390,-54.5 390,-71.5 500,-71.5 500,-54.5 390,-54.5"/>
<text text-anchor="middle" x="445" y="-61.1" font-family="Helvetica,sans-Serif" font-size="8.00" fill="#000000">StandardModelMatching.h</text>
</a>
</g>
</g>
<!-- Node24&#45;&gt;Node43 -->
<g id="edge10" class="edge">
<title>Node24&#45;&gt;Node43</title>
<path fill="none" stroke="#191970" d="M290.9969,-108.4435C322.1846,-99.2406 371.9299,-84.5617 406.4075,-74.3879"/>
<polygon fill="#191970" stroke="#191970" points="407.5382,-77.7036 416.1388,-71.5164 405.557,-70.9898 407.5382,-77.7036"/>
</g>
<!-- Node25&#45;&gt;Node26 -->
<g id="edge6" class="edge">
<title>Node25&#45;&gt;Node26</title>
<path fill="none" stroke="#191970" d="M189.2934,-54.083C192.8523,-46.6913 198.0225,-35.9533 202.4243,-26.8111"/>
<polygon fill="#191970" stroke="#191970" points="205.6018,-28.2795 206.7865,-17.7511 199.2948,-25.2427 205.6018,-28.2795"/>
</g>
</g>
</svg>
