<?xml version="1.0" encoding="UTF-8" standalone="no"?>
<!DOCTYPE svg PUBLIC "-//W3C//DTD SVG 1.1//EN"
 "http://www.w3.org/Graphics/SVG/1.1/DTD/svg11.dtd">
<!-- Generated by graphviz version 2.40.1 (20161225.0304)
 -->
<!-- Title: BR_Kp0nunu.cpp Pages: 1 -->
<svg width="435pt" height="242pt"
 viewBox="0.00 0.00 435.00 242.00" xmlns="http://www.w3.org/2000/svg" xmlns:xlink="http://www.w3.org/1999/xlink">
<g id="graph0" class="graph" transform="scale(1 1) rotate(0) translate(4 238)">
<title>BR_Kp0nunu.cpp</title>
<!-- Node0 -->
<g id="node1" class="node">
<title>Node0</title>
<polygon fill="#bfbfbf" stroke="#000000" points="224,-216.5 224,-233.5 303,-233.5 303,-216.5 224,-216.5"/>
<text text-anchor="middle" x="263.5" y="-223.1" font-family="Helvetica,sans-Serif" font-size="8.00" fill="#000000">BR_Kp0nunu.cpp</text>
</g>
<!-- Node1 -->
<g id="node2" class="node">
<title>Node1</title>
<g id="a_node2"><a xlink:href="../../d1/daa/_b_r___kp0nunu_8h.html" target="_top" xlink:title="BR_Kp0nunu.h">
<polygon fill="none" stroke="#000000" points="77,-162.5 77,-179.5 148,-179.5 148,-162.5 77,-162.5"/>
<text text-anchor="middle" x="112.5" y="-169.1" font-family="Helvetica,sans-Serif" font-size="8.00" fill="#000000">BR_Kp0nunu.h</text>
</a>
</g>
</g>
<!-- Node0&#45;&gt;Node1 -->
<g id="edge1" class="edge">
<title>Node0&#45;&gt;Node1</title>
<path fill="none" stroke="#191970" d="M239.5736,-216.4435C214.2813,-207.3986 174.1976,-193.064 145.8202,-182.9158"/>
<polygon fill="#191970" stroke="#191970" points="146.9091,-179.5882 136.3145,-179.5164 144.5519,-186.1794 146.9091,-179.5882"/>
</g>
<!-- Node22 -->
<g id="node6" class="node">
<title>Node22</title>
<g id="a_node6"><a xlink:href="../../d6/d0a/_standard_model_8h.html" target="_top" xlink:title="StandardModel.h">
<polygon fill="none" stroke="#ff0000" points="176,-162.5 176,-179.5 253,-179.5 253,-162.5 176,-162.5"/>
<text text-anchor="middle" x="214.5" y="-169.1" font-family="Helvetica,sans-Serif" font-size="8.00" fill="#000000">StandardModel.h</text>
</a>
</g>
</g>
<!-- Node0&#45;&gt;Node22 -->
<g id="edge5" class="edge">
<title>Node0&#45;&gt;Node22</title>
<path fill="none" stroke="#191970" d="M255.4086,-216.083C248.3446,-208.2982 237.9124,-196.8015 229.3511,-187.3665"/>
<polygon fill="#191970" stroke="#191970" points="231.7527,-184.8047 222.4408,-179.7511 226.5688,-189.5087 231.7527,-184.8047"/>
</g>
<!-- Node51 -->
<g id="node9" class="node">
<title>Node51</title>
<g id="a_node9"><a xlink:href="../../da/de2/std__make__vector_8h.html" target="_top" xlink:title="std_make_vector.h">
<polygon fill="none" stroke="#ff0000" points="271.5,-162.5 271.5,-179.5 355.5,-179.5 355.5,-162.5 271.5,-162.5"/>
<text text-anchor="middle" x="313.5" y="-169.1" font-family="Helvetica,sans-Serif" font-size="8.00" fill="#000000">std_make_vector.h</text>
</a>
</g>
</g>
<!-- Node0&#45;&gt;Node51 -->
<g id="edge10" class="edge">
<title>Node0&#45;&gt;Node51</title>
<path fill="none" stroke="#191970" d="M271.7565,-216.083C278.9647,-208.2982 289.6098,-196.8015 298.3458,-187.3665"/>
<polygon fill="#191970" stroke="#191970" points="301.1712,-189.4666 305.3972,-179.7511 296.0349,-184.7108 301.1712,-189.4666"/>
</g>
<!-- Node52 -->
<g id="node10" class="node">
<title>Node52</title>
<g id="a_node10"><a xlink:href="../../df/da7/_heff_d_s1_8h.html" target="_top" xlink:title="HeffDS1.h">
<polygon fill="none" stroke="#ff0000" points="374,-162.5 374,-179.5 427,-179.5 427,-162.5 374,-162.5"/>
<text text-anchor="middle" x="400.5" y="-169.1" font-family="Helvetica,sans-Serif" font-size="8.00" fill="#000000">HeffDS1.h</text>
</a>
</g>
</g>
<!-- Node0&#45;&gt;Node52 -->
<g id="edge11" class="edge">
<title>Node0&#45;&gt;Node52</title>
<path fill="none" stroke="#191970" d="M285.2081,-216.4435C307.8548,-207.5171 343.5721,-193.4387 369.2518,-183.3168"/>
<polygon fill="#191970" stroke="#191970" points="370.8736,-186.4397 378.8935,-179.5164 368.3066,-179.9273 370.8736,-186.4397"/>
</g>
<!-- Node2 -->
<g id="node3" class="node">
<title>Node2</title>
<g id="a_node3"><a xlink:href="../../dd/dcd/_th_observable_8h.html" target="_top" xlink:title="ThObservable.h">
<polygon fill="none" stroke="#ff0000" points="0,-108.5 0,-125.5 73,-125.5 73,-108.5 0,-108.5"/>
<text text-anchor="middle" x="36.5" y="-115.1" font-family="Helvetica,sans-Serif" font-size="8.00" fill="#000000">ThObservable.h</text>
</a>
</g>
</g>
<!-- Node1&#45;&gt;Node2 -->
<g id="edge2" class="edge">
<title>Node1&#45;&gt;Node2</title>
<path fill="none" stroke="#191970" d="M100.2893,-162.324C88.7241,-154.1066 71.1246,-141.6017 57.3393,-131.8069"/>
<polygon fill="#191970" stroke="#191970" points="59.112,-128.7729 48.9329,-125.8339 55.0575,-134.4791 59.112,-128.7729"/>
</g>
<!-- Node5 -->
<g id="node4" class="node">
<title>Node5</title>
<g id="a_node4"><a xlink:href="../../d4/d36/_order_scheme_8h.html" target="_top" xlink:title="OrderScheme.h">
<polygon fill="none" stroke="#000000" points="121,-.5 121,-17.5 194,-17.5 194,-.5 121,-.5"/>
<text text-anchor="middle" x="157.5" y="-7.1" font-family="Helvetica,sans-Serif" font-size="8.00" fill="#000000">OrderScheme.h</text>
</a>
</g>
</g>
<!-- Node1&#45;&gt;Node5 -->
<g id="edge3" class="edge">
<title>Node1&#45;&gt;Node5</title>
<path fill="none" stroke="#191970" d="M112.9657,-162.3247C113.7666,-150.0685 115.7972,-127.0533 120.5,-108 127.7305,-78.7056 140.9392,-46.196 149.4621,-26.6897"/>
<polygon fill="#191970" stroke="#191970" points="152.6718,-28.0857 153.5415,-17.5266 146.2769,-25.2386 152.6718,-28.0857"/>
</g>
<!-- Node6 -->
<g id="node5" class="node">
<title>Node6</title>
<g id="a_node5"><a xlink:href="../../d9/d72/gslpp_8h.html" target="_top" xlink:title="gslpp.h">
<polygon fill="none" stroke="#ff0000" points="129.5,-108.5 129.5,-125.5 171.5,-125.5 171.5,-108.5 129.5,-108.5"/>
<text text-anchor="middle" x="150.5" y="-115.1" font-family="Helvetica,sans-Serif" font-size="8.00" fill="#000000">gslpp.h</text>
</a>
</g>
</g>
<!-- Node1&#45;&gt;Node6 -->
<g id="edge4" class="edge">
<title>Node1&#45;&gt;Node6</title>
<path fill="none" stroke="#191970" d="M118.7749,-162.083C124.1425,-154.4554 132.0176,-143.2645 138.5787,-133.9408"/>
<polygon fill="#191970" stroke="#191970" points="141.4492,-135.9434 144.3418,-125.7511 135.7245,-131.9149 141.4492,-135.9434"/>
</g>
<!-- Node23 -->
<g id="node7" class="node">
<title>Node23</title>
<g id="a_node7"><a xlink:href="../../d2/d65/_flavour_8h.html" target="_top" xlink:title="Flavour.h">
<polygon fill="none" stroke="#ff0000" points="189.5,-108.5 189.5,-125.5 239.5,-125.5 239.5,-108.5 189.5,-108.5"/>
<text text-anchor="middle" x="214.5" y="-115.1" font-family="Helvetica,sans-Serif" font-size="8.00" fill="#000000">Flavour.h</text>
</a>
</g>
</g>
<!-- Node22&#45;&gt;Node23 -->
<g id="edge6" class="edge">
<title>Node22&#45;&gt;Node23</title>
<path fill="none" stroke="#191970" d="M214.5,-162.083C214.5,-155.0059 214.5,-144.8611 214.5,-135.9865"/>
<polygon fill="#191970" stroke="#191970" points="218.0001,-135.751 214.5,-125.7511 211.0001,-135.7511 218.0001,-135.751"/>
</g>
<!-- Node24 -->
<g id="node8" class="node">
<title>Node24</title>
<g id="a_node8"><a xlink:href="../../d4/d68/_q_c_d_8h.html" target="_top" xlink:title="QCD.h">
<polygon fill="none" stroke="#ff0000" points="194,-54.5 194,-71.5 235,-71.5 235,-54.5 194,-54.5"/>
<text text-anchor="middle" x="214.5" y="-61.1" font-family="Helvetica,sans-Serif" font-size="8.00" fill="#000000">QCD.h</text>
</a>
</g>
</g>
<!-- Node22&#45;&gt;Node24 -->
<g id="edge9" class="edge">
<title>Node22&#45;&gt;Node24</title>
<path fill="none" stroke="#191970" d="M223.7879,-162.3947C232.0807,-154.0248 243.6439,-140.4826 248.5,-126 254.2045,-108.987 242.6608,-91.1259 231.5093,-78.7844"/>
<polygon fill="#191970" stroke="#191970" points="233.9164,-76.2398 224.4231,-71.5358 228.9108,-81.1332 233.9164,-76.2398"/>
</g>
<!-- Node23&#45;&gt;Node24 -->
<g id="edge7" class="edge">
<title>Node23&#45;&gt;Node24</title>
<path fill="none" stroke="#191970" d="M214.5,-108.083C214.5,-101.0059 214.5,-90.8611 214.5,-81.9865"/>
<polygon fill="#191970" stroke="#191970" points="218.0001,-81.751 214.5,-71.7511 211.0001,-81.7511 218.0001,-81.751"/>
</g>
<!-- Node24&#45;&gt;Node5 -->
<g id="edge8" class="edge">
<title>Node24&#45;&gt;Node5</title>
<path fill="none" stroke="#191970" d="M205.342,-54.324C196.9985,-46.4196 184.4676,-34.5482 174.3231,-24.9377"/>
<polygon fill="#191970" stroke="#191970" points="176.4913,-22.1705 166.8247,-17.8339 171.6771,-27.2522 176.4913,-22.1705"/>
</g>
</g>
</svg>
