<?xml version="1.0" encoding="UTF-8" standalone="no"?>
<!DOCTYPE svg PUBLIC "-//W3C//DTD SVG 1.1//EN"
 "http://www.w3.org/Graphics/SVG/1.1/DTD/svg11.dtd">
<!-- Generated by graphviz version 2.38.0 (20140413.2041)
 -->
<!-- Title: NPEpsilons.h Pages: 1 -->
<svg width="180pt" height="80pt"
 viewBox="0.00 0.00 179.50 80.00" xmlns="http://www.w3.org/2000/svg" xmlns:xlink="http://www.w3.org/1999/xlink">
<g id="graph0" class="graph" transform="scale(1 1) rotate(0) translate(4 76)">
<title>NPEpsilons.h</title>
<!-- Node1 -->
<g id="node1" class="node"><title>Node1</title>
<polygon fill="#bfbfbf" stroke="black" points="54.5,-54.5 54.5,-71.5 119.5,-71.5 119.5,-54.5 54.5,-54.5"/>
<text text-anchor="middle" x="87" y="-61.1" font-family="Helvetica,sans-Serif" font-size="8.00">NPEpsilons.h</text>
</g>
<!-- Node2 -->
<g id="node2" class="node"><title>Node2</title>
<g id="a_node2"><a xlink:href="../../d3/df6/_model_factory_8cpp.html" target="_top" xlink:title="ModelFactory.cpp">
<polygon fill="none" stroke="black" points="0,-0.5 0,-17.5 80,-17.5 80,-0.5 0,-0.5"/>
<text text-anchor="middle" x="40" y="-7.1" font-family="Helvetica,sans-Serif" font-size="8.00">ModelFactory.cpp</text>
</a>
</g>
</g>
<!-- Node1&#45;&gt;Node2 -->
<g id="edge1" class="edge"><title>Node1&#45;&gt;Node2</title>
<path fill="none" stroke="midnightblue" d="M73.1845,-46.7148C64.5683,-37.182 53.8469,-25.32 46.9635,-17.7043"/>
<polygon fill="midnightblue" stroke="midnightblue" points="70.763,-49.2554 80.065,-54.3272 75.9561,-44.5616 70.763,-49.2554"/>
</g>
<!-- Node3 -->
<g id="node3" class="node"><title>Node3</title>
<g id="a_node3"><a xlink:href="../../db/d2f/_n_p_epsilons_8cpp.html" target="_top" xlink:title="NPEpsilons.cpp">
<polygon fill="none" stroke="black" points="98.5,-0.5 98.5,-17.5 171.5,-17.5 171.5,-0.5 98.5,-0.5"/>
<text text-anchor="middle" x="135" y="-7.1" font-family="Helvetica,sans-Serif" font-size="8.00">NPEpsilons.cpp</text>
</a>
</g>
</g>
<!-- Node1&#45;&gt;Node3 -->
<g id="edge2" class="edge"><title>Node1&#45;&gt;Node3</title>
<path fill="none" stroke="midnightblue" d="M101.109,-46.7148C109.909,-37.182 120.858,-25.32 127.888,-17.7043"/>
<polygon fill="midnightblue" stroke="midnightblue" points="98.2936,-44.6052 94.0826,-54.3272 103.437,-49.3532 98.2936,-44.6052"/>
</g>
</g>
</svg>
