<?xml version="1.0" encoding="UTF-8" standalone="no"?>
<!DOCTYPE svg PUBLIC "-//W3C//DTD SVG 1.1//EN"
 "http://www.w3.org/Graphics/SVG/1.1/DTD/svg11.dtd">
<!-- Generated by graphviz version 2.40.1 (20161225.0304)
 -->
<!-- Title: RGEvolutorNew.h Pages: 1 -->
<svg width="310pt" height="242pt"
 viewBox="0.00 0.00 310.00 242.00" xmlns="http://www.w3.org/2000/svg" xmlns:xlink="http://www.w3.org/1999/xlink">
<g id="graph0" class="graph" transform="scale(1 1) rotate(0) translate(4 238)">
<title>RGEvolutorNew.h</title>
<!-- Node24 -->
<g id="node1" class="node">
<title>Node24</title>
<polygon fill="#bfbfbf" stroke="#000000" points="172,-216.5 172,-233.5 253,-233.5 253,-216.5 172,-216.5"/>
<text text-anchor="middle" x="212.5" y="-223.1" font-family="Helvetica,sans-Serif" font-size="8.00" fill="#000000">RGEvolutorNew.h</text>
</g>
<!-- Node25 -->
<g id="node2" class="node">
<title>Node25</title>
<g id="a_node2"><a xlink:href="../../d1/d32/_evol_d_f1_8h.html" target="_top" xlink:title="EvolDF1.h">
<polygon fill="none" stroke="#000000" points="140.5,-162.5 140.5,-179.5 194.5,-179.5 194.5,-162.5 140.5,-162.5"/>
<text text-anchor="middle" x="167.5" y="-169.1" font-family="Helvetica,sans-Serif" font-size="8.00" fill="#000000">EvolDF1.h</text>
</a>
</g>
</g>
<!-- Node24&#45;&gt;Node25 -->
<g id="edge1" class="edge">
<title>Node24&#45;&gt;Node25</title>
<path fill="none" stroke="#191970" d="M198.4533,-208.144C190.6131,-198.7357 181.1705,-187.4046 174.7926,-179.7511"/>
<polygon fill="#191970" stroke="#191970" points="195.9785,-210.6414 205.0692,-216.083 201.3561,-206.1601 195.9785,-210.6414"/>
</g>
<!-- Node36 -->
<g id="node10" class="node">
<title>Node36</title>
<g id="a_node10"><a xlink:href="../../df/d82/_r_g_evolutor_new_8cpp.html" target="_top" xlink:title="RGEvolutorNew.cpp">
<polygon fill="none" stroke="#000000" points="213,-162.5 213,-179.5 302,-179.5 302,-162.5 213,-162.5"/>
<text text-anchor="middle" x="257.5" y="-169.1" font-family="Helvetica,sans-Serif" font-size="8.00" fill="#000000">RGEvolutorNew.cpp</text>
</a>
</g>
</g>
<!-- Node24&#45;&gt;Node36 -->
<g id="edge10" class="edge">
<title>Node24&#45;&gt;Node36</title>
<path fill="none" stroke="#191970" d="M226.5467,-208.144C234.3869,-198.7357 243.8295,-187.4046 250.2074,-179.7511"/>
<polygon fill="#191970" stroke="#191970" points="223.6439,-206.1601 219.9308,-216.083 229.0215,-210.6414 223.6439,-206.1601"/>
</g>
<!-- Node26 -->
<g id="node3" class="node">
<title>Node26</title>
<g id="a_node3"><a xlink:href="../../d0/dc2/_heff_d_f1_8h.html" target="_top" xlink:title="HeffDF1.h">
<polygon fill="none" stroke="#000000" points="103,-108.5 103,-125.5 156,-125.5 156,-108.5 103,-108.5"/>
<text text-anchor="middle" x="129.5" y="-115.1" font-family="Helvetica,sans-Serif" font-size="8.00" fill="#000000">HeffDF1.h</text>
</a>
</g>
</g>
<!-- Node25&#45;&gt;Node26 -->
<g id="edge2" class="edge">
<title>Node25&#45;&gt;Node26</title>
<path fill="none" stroke="#191970" d="M155.4353,-153.8554C148.8553,-144.5048 140.989,-133.3265 135.6582,-125.7511"/>
<polygon fill="#191970" stroke="#191970" points="152.6078,-155.9192 161.2251,-162.083 158.3324,-151.8907 152.6078,-155.9192"/>
</g>
<!-- Node35 -->
<g id="node9" class="node">
<title>Node35</title>
<g id="a_node9"><a xlink:href="../../d6/db8/_evol_d_f1_8cpp.html" target="_top" xlink:title="EvolDF1.cpp">
<polygon fill="none" stroke="#000000" points="174.5,-108.5 174.5,-125.5 236.5,-125.5 236.5,-108.5 174.5,-108.5"/>
<text text-anchor="middle" x="205.5" y="-115.1" font-family="Helvetica,sans-Serif" font-size="8.00" fill="#000000">EvolDF1.cpp</text>
</a>
</g>
</g>
<!-- Node25&#45;&gt;Node35 -->
<g id="edge9" class="edge">
<title>Node25&#45;&gt;Node35</title>
<path fill="none" stroke="#191970" d="M179.5647,-153.8554C186.1447,-144.5048 194.011,-133.3265 199.3418,-125.7511"/>
<polygon fill="#191970" stroke="#191970" points="176.6676,-151.8907 173.7749,-162.083 182.3922,-155.9192 176.6676,-151.8907"/>
</g>
<!-- Node27 -->
<g id="node4" class="node">
<title>Node27</title>
<g id="a_node4"><a xlink:href="../../d6/d68/main__df1evol__test_8cpp.html" target="_top" xlink:title="main_df1evol_test.cpp">
<polygon fill="none" stroke="#000000" points="0,-.5 0,-17.5 97,-17.5 97,-.5 0,-.5"/>
<text text-anchor="middle" x="48.5" y="-7.1" font-family="Helvetica,sans-Serif" font-size="8.00" fill="#000000">main_df1evol_test.cpp</text>
</a>
</g>
</g>
<!-- Node26&#45;&gt;Node27 -->
<g id="edge3" class="edge">
<title>Node26&#45;&gt;Node27</title>
<path fill="none" stroke="#191970" d="M116.6614,-99.8819C99.1293,-76.5058 68.3532,-35.4709 54.9938,-17.6584"/>
<polygon fill="#191970" stroke="#191970" points="114.0714,-102.2619 122.8714,-108.1619 119.6714,-98.0619 114.0714,-102.2619"/>
</g>
<!-- Node28 -->
<g id="node5" class="node">
<title>Node28</title>
<g id="a_node5"><a xlink:href="../../d3/d50/_b_xqll_8h.html" target="_top" xlink:title="BXqll.h">
<polygon fill="none" stroke="#000000" points="108.5,-54.5 108.5,-71.5 150.5,-71.5 150.5,-54.5 108.5,-54.5"/>
<text text-anchor="middle" x="129.5" y="-61.1" font-family="Helvetica,sans-Serif" font-size="8.00" fill="#000000">BXqll.h</text>
</a>
</g>
</g>
<!-- Node26&#45;&gt;Node28 -->
<g id="edge4" class="edge">
<title>Node26&#45;&gt;Node28</title>
<path fill="none" stroke="#191970" d="M129.5,-97.8045C129.5,-88.9102 129.5,-78.7798 129.5,-71.7511"/>
<polygon fill="#191970" stroke="#191970" points="126.0001,-98.083 129.5,-108.083 133.0001,-98.083 126.0001,-98.083"/>
</g>
<!-- Node34 -->
<g id="node8" class="node">
<title>Node34</title>
<g id="a_node8"><a xlink:href="../../d4/de3/_heff_d_f1_8cpp.html" target="_top" xlink:title="HeffDF1.cpp">
<polygon fill="none" stroke="#000000" points="169,-54.5 169,-71.5 230,-71.5 230,-54.5 169,-54.5"/>
<text text-anchor="middle" x="199.5" y="-61.1" font-family="Helvetica,sans-Serif" font-size="8.00" fill="#000000">HeffDF1.cpp</text>
</a>
</g>
</g>
<!-- Node26&#45;&gt;Node34 -->
<g id="edge8" class="edge">
<title>Node26&#45;&gt;Node34</title>
<path fill="none" stroke="#191970" d="M148.8138,-102.1008C161.4117,-92.3824 177.4281,-80.0269 188.0487,-71.8339"/>
<polygon fill="#191970" stroke="#191970" points="146.5267,-99.4446 140.7467,-108.324 150.8024,-104.9871 146.5267,-99.4446"/>
</g>
<!-- Node28&#45;&gt;Node27 -->
<g id="edge5" class="edge">
<title>Node28&#45;&gt;Node27</title>
<path fill="none" stroke="#191970" d="M107.9332,-48.6221C93.136,-38.7574 73.9878,-25.9919 61.4818,-17.6545"/>
<polygon fill="#191970" stroke="#191970" points="106.224,-51.6891 116.4859,-54.324 110.1069,-45.8647 106.224,-51.6891"/>
</g>
<!-- Node29 -->
<g id="node6" class="node">
<title>Node29</title>
<g id="a_node6"><a xlink:href="../../d1/d4f/_b_xqll_8cpp.html" target="_top" xlink:title="BXqll.cpp">
<polygon fill="none" stroke="#000000" points="115.5,-.5 115.5,-17.5 165.5,-17.5 165.5,-.5 115.5,-.5"/>
<text text-anchor="middle" x="140.5" y="-7.1" font-family="Helvetica,sans-Serif" font-size="8.00" fill="#000000">BXqll.cpp</text>
</a>
</g>
</g>
<!-- Node28&#45;&gt;Node29 -->
<g id="edge6" class="edge">
<title>Node28&#45;&gt;Node29</title>
<path fill="none" stroke="#191970" d="M133.3499,-44.1005C135.1761,-35.1357 137.2697,-24.8579 138.7174,-17.7511"/>
<polygon fill="#191970" stroke="#191970" points="129.883,-43.5856 131.3164,-54.083 136.7421,-44.9829 129.883,-43.5856"/>
</g>
<!-- Node30 -->
<g id="node7" class="node">
<title>Node30</title>
<g id="a_node7"><a xlink:href="../../d6/d3f/_b_xqll_observables_8h.html" target="_top" xlink:title="BXqllObservables.h">
<polygon fill="none" stroke="#ff0000" points="184,-.5 184,-17.5 271,-17.5 271,-.5 184,-.5"/>
<text text-anchor="middle" x="227.5" y="-7.1" font-family="Helvetica,sans-Serif" font-size="8.00" fill="#000000">BXqllObservables.h</text>
</a>
</g>
</g>
<!-- Node28&#45;&gt;Node30 -->
<g id="edge7" class="edge">
<title>Node28&#45;&gt;Node30</title>
<path fill="none" stroke="#191970" d="M154.0861,-49.4526C172.1781,-39.4835 196.2346,-26.2279 211.7937,-17.6545"/>
<polygon fill="#191970" stroke="#191970" points="152.3147,-46.4324 145.2454,-54.324 155.6929,-52.5633 152.3147,-46.4324"/>
</g>
</g>
</svg>
