<?xml version="1.0" encoding="UTF-8" standalone="no"?>
<!DOCTYPE svg PUBLIC "-//W3C//DTD SVG 1.1//EN"
 "http://www.w3.org/Graphics/SVG/1.1/DTD/svg11.dtd">
<!-- Generated by graphviz version 2.38.0 (20140413.2041)
 -->
<!-- Title: Polylogarithms.cpp Pages: 1 -->
<svg width="394pt" height="242pt"
 viewBox="0.00 0.00 394.00 242.00" xmlns="http://www.w3.org/2000/svg" xmlns:xlink="http://www.w3.org/1999/xlink">
<g id="graph0" class="graph" transform="scale(1 1) rotate(0) translate(4 238)">
<title>Polylogarithms.cpp</title>
<!-- Node1 -->
<g id="node1" class="node"><title>Node1</title>
<polygon fill="#bfbfbf" stroke="black" points="126.5,-216.5 126.5,-233.5 210.5,-233.5 210.5,-216.5 126.5,-216.5"/>
<text text-anchor="middle" x="168.5" y="-223.1" font-family="Helvetica,sans-Serif" font-size="8.00">Polylogarithms.cpp</text>
</g>
<!-- Node2 -->
<g id="node2" class="node"><title>Node2</title>
<polygon fill="none" stroke="#bfbfbf" points="0,-162.5 0,-179.5 39,-179.5 39,-162.5 0,-162.5"/>
<text text-anchor="middle" x="19.5" y="-169.1" font-family="Helvetica,sans-Serif" font-size="8.00">cstdlib</text>
</g>
<!-- Node1&#45;&gt;Node2 -->
<g id="edge1" class="edge"><title>Node1&#45;&gt;Node2</title>
<path fill="none" stroke="midnightblue" d="M146.834,-216.439C120.987,-207.418 77.6577,-192.297 48.8277,-182.235"/>
<polygon fill="midnightblue" stroke="midnightblue" points="49.8821,-178.896 39.2873,-178.906 47.5755,-185.505 49.8821,-178.896"/>
</g>
<!-- Node3 -->
<g id="node3" class="node"><title>Node3</title>
<polygon fill="none" stroke="#bfbfbf" points="57,-162.5 57,-179.5 108,-179.5 108,-162.5 57,-162.5"/>
<text text-anchor="middle" x="82.5" y="-169.1" font-family="Helvetica,sans-Serif" font-size="8.00">stdexcept</text>
</g>
<!-- Node1&#45;&gt;Node3 -->
<g id="edge2" class="edge"><title>Node1&#45;&gt;Node3</title>
<path fill="none" stroke="midnightblue" d="M155.81,-216.327C142.14,-208.062 120.154,-194.768 103.82,-184.891"/>
<polygon fill="midnightblue" stroke="midnightblue" points="105.33,-181.714 94.9621,-179.535 101.708,-187.705 105.33,-181.714"/>
</g>
<!-- Node4 -->
<g id="node4" class="node"><title>Node4</title>
<polygon fill="none" stroke="#bfbfbf" points="126.5,-162.5 126.5,-179.5 164.5,-179.5 164.5,-162.5 126.5,-162.5"/>
<text text-anchor="middle" x="145.5" y="-169.1" font-family="Helvetica,sans-Serif" font-size="8.00">cmath</text>
</g>
<!-- Node1&#45;&gt;Node4 -->
<g id="edge3" class="edge"><title>Node1&#45;&gt;Node4</title>
<path fill="none" stroke="midnightblue" d="M165.106,-216.327C161.947,-209.184 157.126,-198.286 153.056,-189.083"/>
<polygon fill="midnightblue" stroke="midnightblue" points="156.154,-187.434 148.908,-179.704 149.752,-190.265 156.154,-187.434"/>
</g>
<!-- Node5 -->
<g id="node5" class="node"><title>Node5</title>
<polygon fill="none" stroke="#bfbfbf" points="185.5,-0.5 185.5,-17.5 265.5,-17.5 265.5,-0.5 185.5,-0.5"/>
<text text-anchor="middle" x="225.5" y="-7.1" font-family="Helvetica,sans-Serif" font-size="8.00">gsl/gsl_complex.h</text>
</g>
<!-- Node1&#45;&gt;Node5 -->
<g id="edge4" class="edge"><title>Node1&#45;&gt;Node5</title>
<path fill="none" stroke="midnightblue" d="M170.423,-216.18C176.393,-191.995 195.244,-116.285 212.5,-54 214.927,-45.2396 217.774,-35.5455 220.184,-27.4912"/>
<polygon fill="midnightblue" stroke="midnightblue" points="223.58,-28.351 223.119,-17.7662 216.879,-26.3285 223.58,-28.351"/>
</g>
<!-- Node6 -->
<g id="node6" class="node"><title>Node6</title>
<polygon fill="none" stroke="#bfbfbf" points="221,-162.5 221,-179.5 278,-179.5 278,-162.5 221,-162.5"/>
<text text-anchor="middle" x="249.5" y="-169.1" font-family="Helvetica,sans-Serif" font-size="8.00">gsl/gsl_sf.h</text>
</g>
<!-- Node1&#45;&gt;Node6 -->
<g id="edge5" class="edge"><title>Node1&#45;&gt;Node6</title>
<path fill="none" stroke="midnightblue" d="M180.452,-216.327C193.207,-208.139 213.649,-195.016 228.986,-185.169"/>
<polygon fill="midnightblue" stroke="midnightblue" points="231.238,-187.883 237.762,-179.535 227.456,-181.992 231.238,-187.883"/>
</g>
<!-- Node7 -->
<g id="node7" class="node"><title>Node7</title>
<g id="a_node7"><a xlink:href="../../dd/dc1/_polylogarithms_8h.html" target="_top" xlink:title="Polylogarithms.h">
<polygon fill="none" stroke="black" points="296.5,-162.5 296.5,-179.5 372.5,-179.5 372.5,-162.5 296.5,-162.5"/>
<text text-anchor="middle" x="334.5" y="-169.1" font-family="Helvetica,sans-Serif" font-size="8.00">Polylogarithms.h</text>
</a>
</g>
</g>
<!-- Node1&#45;&gt;Node7 -->
<g id="edge6" class="edge"><title>Node1&#45;&gt;Node7</title>
<path fill="none" stroke="midnightblue" d="M192.638,-216.439C221.037,-207.543 268.377,-192.713 300.487,-182.655"/>
<polygon fill="midnightblue" stroke="midnightblue" points="301.837,-185.9 310.333,-179.57 299.744,-179.22 301.837,-185.9"/>
</g>
<!-- Node8 -->
<g id="node8" class="node"><title>Node8</title>
<g id="a_node8"><a xlink:href="../../d9/d72/gslpp_8h.html" target="_top" xlink:title="gslpp.h">
<polygon fill="none" stroke="red" points="238.5,-108.5 238.5,-125.5 280.5,-125.5 280.5,-108.5 238.5,-108.5"/>
<text text-anchor="middle" x="259.5" y="-115.1" font-family="Helvetica,sans-Serif" font-size="8.00">gslpp.h</text>
</a>
</g>
</g>
<!-- Node7&#45;&gt;Node8 -->
<g id="edge7" class="edge"><title>Node7&#45;&gt;Node8</title>
<path fill="none" stroke="midnightblue" d="M323.433,-162.327C311.801,-154.262 293.266,-141.411 279.14,-131.617"/>
<polygon fill="midnightblue" stroke="midnightblue" points="280.824,-128.526 270.612,-125.704 276.836,-134.278 280.824,-128.526"/>
</g>
<!-- Node10 -->
<g id="node10" class="node"><title>Node10</title>
<g id="a_node10"><a xlink:href="../../d1/d27/_bernoulli_numbers_8h.html" target="_top" xlink:title="BernoulliNumbers.h">
<polygon fill="none" stroke="black" points="299,-108.5 299,-125.5 386,-125.5 386,-108.5 299,-108.5"/>
<text text-anchor="middle" x="342.5" y="-115.1" font-family="Helvetica,sans-Serif" font-size="8.00">BernoulliNumbers.h</text>
</a>
</g>
</g>
<!-- Node7&#45;&gt;Node10 -->
<g id="edge10" class="edge"><title>Node7&#45;&gt;Node10</title>
<path fill="none" stroke="midnightblue" d="M335.68,-162.327C336.756,-155.338 338.384,-144.753 339.78,-135.679"/>
<polygon fill="midnightblue" stroke="midnightblue" points="343.253,-136.12 341.315,-125.704 336.335,-135.056 343.253,-136.12"/>
</g>
<!-- Node9 -->
<g id="node9" class="node"><title>Node9</title>
<g id="a_node9"><a xlink:href="../../d1/dc2/gslpp__complex_8h.html" target="_top" xlink:title="gslpp_complex.h">
<polygon fill="none" stroke="red" points="221,-54.5 221,-71.5 298,-71.5 298,-54.5 221,-54.5"/>
<text text-anchor="middle" x="259.5" y="-61.1" font-family="Helvetica,sans-Serif" font-size="8.00">gslpp_complex.h</text>
</a>
</g>
</g>
<!-- Node8&#45;&gt;Node9 -->
<g id="edge8" class="edge"><title>Node8&#45;&gt;Node9</title>
<path fill="none" stroke="midnightblue" d="M259.5,-108.327C259.5,-101.414 259.5,-90.985 259.5,-81.9789"/>
<polygon fill="midnightblue" stroke="midnightblue" points="263,-81.7042 259.5,-71.7043 256,-81.7043 263,-81.7042"/>
</g>
<!-- Node9&#45;&gt;Node5 -->
<g id="edge9" class="edge"><title>Node9&#45;&gt;Node5</title>
<path fill="none" stroke="midnightblue" d="M254.483,-54.3272C249.662,-46.9536 242.225,-35.5787 236.091,-26.1981"/>
<polygon fill="midnightblue" stroke="midnightblue" points="238.939,-24.1586 230.537,-17.7043 233.081,-27.9894 238.939,-24.1586"/>
</g>
</g>
</svg>
