<?xml version="1.0" encoding="UTF-8" standalone="no"?>
<!DOCTYPE svg PUBLIC "-//W3C//DTD SVG 1.1//EN"
 "http://www.w3.org/Graphics/SVG/1.1/DTD/svg11.dtd">
<!-- Generated by graphviz version 2.40.1 (20161225.0304)
 -->
<!-- Title: MultipleSinglyIndexed.hpp Pages: 1 -->
<svg width="381pt" height="305pt"
 viewBox="0.00 0.00 380.50 305.00" xmlns="http://www.w3.org/2000/svg" xmlns:xlink="http://www.w3.org/1999/xlink">
<g id="graph0" class="graph" transform="scale(1 1) rotate(0) translate(4 301)">
<title>MultipleSinglyIndexed.hpp</title>
<!-- Node45 -->
<g id="node1" class="node">
<title>Node45</title>
<polygon fill="#bfbfbf" stroke="#000000" points="56.5,-279.5 56.5,-296.5 166.5,-296.5 166.5,-279.5 56.5,-279.5"/>
<text text-anchor="middle" x="111.5" y="-286.1" font-family="Helvetica,sans-Serif" font-size="8.00" fill="#000000">MultipleSinglyIndexed.hpp</text>
</g>
<!-- Node46 -->
<g id="node2" class="node">
<title>Node46</title>
<g id="a_node2"><a xlink:href="../../d4/dc2/_interpreter_classes_8hpp.html" target="_top" xlink:title="InterpreterClasses.hpp">
<polygon fill="none" stroke="#000000" points="0,-221 0,-238 97,-238 97,-221 0,-221"/>
<text text-anchor="middle" x="48.5" y="-227.6" font-family="Helvetica,sans-Serif" font-size="8.00" fill="#000000">InterpreterClasses.hpp</text>
</a>
</g>
</g>
<!-- Node45&#45;&gt;Node46 -->
<g id="edge1" class="edge">
<title>Node45&#45;&gt;Node46</title>
<path fill="none" stroke="#191970" d="M94.7086,-272.408C82.8968,-261.4399 67.5268,-247.1677 57.834,-238.1673"/>
<polygon fill="#191970" stroke="#191970" points="92.4946,-275.1284 102.2041,-279.3681 97.2578,-269.9988 92.4946,-275.1284"/>
</g>
<!-- Node64 -->
<g id="node5" class="node">
<title>Node64</title>
<g id="a_node5"><a xlink:href="../../dd/d26/_singly_indexed_multiple_entries_block_8hpp.html" target="_top" xlink:title="SinglyIndexedMultipleEntries\lBlock.hpp">
<polygon fill="none" stroke="#000000" points="115,-216.5 115,-242.5 234,-242.5 234,-216.5 115,-216.5"/>
<text text-anchor="start" x="123" y="-232.1" font-family="Helvetica,sans-Serif" font-size="8.00" fill="#000000">SinglyIndexedMultipleEntries</text>
<text text-anchor="middle" x="174.5" y="-223.1" font-family="Helvetica,sans-Serif" font-size="8.00" fill="#000000">Block.hpp</text>
</a>
</g>
</g>
<!-- Node45&#45;&gt;Node64 -->
<g id="edge4" class="edge">
<title>Node45&#45;&gt;Node64</title>
<path fill="none" stroke="#191970" d="M128.1505,-272.5388C138.1472,-263.2562 150.7311,-251.5711 160.2634,-242.7197"/>
<polygon fill="#191970" stroke="#191970" points="125.7422,-269.9988 120.7959,-279.3681 130.5054,-275.1284 125.7422,-269.9988"/>
</g>
<!-- Node47 -->
<g id="node3" class="node">
<title>Node47</title>
<g id="a_node3"><a xlink:href="../../db/d13/_block_classes_8hpp.html" target="_top" xlink:title="BlockClasses.hpp">
<polygon fill="none" stroke="#000000" points="8.5,-162.5 8.5,-179.5 88.5,-179.5 88.5,-162.5 8.5,-162.5"/>
<text text-anchor="middle" x="48.5" y="-169.1" font-family="Helvetica,sans-Serif" font-size="8.00" fill="#000000">BlockClasses.hpp</text>
</a>
</g>
</g>
<!-- Node46&#45;&gt;Node47 -->
<g id="edge2" class="edge">
<title>Node46&#45;&gt;Node47</title>
<path fill="none" stroke="#191970" d="M48.5,-210.6601C48.5,-200.2439 48.5,-187.8023 48.5,-179.6673"/>
<polygon fill="#191970" stroke="#191970" points="45.0001,-210.8681 48.5,-220.8681 52.0001,-210.8682 45.0001,-210.8681"/>
</g>
<!-- Node48 -->
<g id="node4" class="node">
<title>Node48</title>
<g id="a_node4"><a xlink:href="../../d4/d42/_s_l_h_a_8hpp.html" target="_top" xlink:title="SLHA.hpp">
<polygon fill="none" stroke="#ff0000" points="106,-.5 106,-17.5 159,-17.5 159,-.5 106,-.5"/>
<text text-anchor="middle" x="132.5" y="-7.1" font-family="Helvetica,sans-Serif" font-size="8.00" fill="#000000">SLHA.hpp</text>
</a>
</g>
</g>
<!-- Node47&#45;&gt;Node48 -->
<g id="edge3" class="edge">
<title>Node47&#45;&gt;Node48</title>
<path fill="none" stroke="#191970" d="M51.6383,-152.5565C56.3498,-128.4694 66.8684,-85.6486 86.5,-54 95.5691,-39.3795 110.3733,-26.0648 120.7307,-17.7757"/>
<polygon fill="#191970" stroke="#191970" points="48.1811,-152.0055 49.8236,-162.4722 55.0667,-153.2657 48.1811,-152.0055"/>
</g>
<!-- Node64&#45;&gt;Node47 -->
<g id="edge5" class="edge">
<title>Node64&#45;&gt;Node47</title>
<path fill="none" stroke="#191970" d="M137.0223,-212.0996C113.9016,-201.365 85.2616,-188.0679 66.9343,-179.5588"/>
<polygon fill="#191970" stroke="#191970" points="135.6791,-215.3348 146.2231,-216.3715 138.627,-208.9858 135.6791,-215.3348"/>
</g>
<!-- Node65 -->
<g id="node6" class="node">
<title>Node65</title>
<g id="a_node6"><a xlink:href="../../d5/dae/_block_types_8hpp.html" target="_top" xlink:title="BlockTypes.hpp">
<polygon fill="none" stroke="#ff0000" points="145,-162.5 145,-179.5 218,-179.5 218,-162.5 145,-162.5"/>
<text text-anchor="middle" x="181.5" y="-169.1" font-family="Helvetica,sans-Serif" font-size="8.00" fill="#000000">BlockTypes.hpp</text>
</a>
</g>
</g>
<!-- Node64&#45;&gt;Node65 -->
<g id="edge6" class="edge">
<title>Node64&#45;&gt;Node65</title>
<path fill="none" stroke="#191970" d="M177.282,-206.2504C178.4005,-196.9029 179.6212,-186.7011 180.4603,-179.689"/>
<polygon fill="#191970" stroke="#191970" points="173.8014,-205.8804 176.0884,-216.2254 180.7518,-206.7121 173.8014,-205.8804"/>
</g>
<!-- Node65&#45;&gt;Node48 -->
<g id="edge15" class="edge">
<title>Node65&#45;&gt;Node48</title>
<path fill="none" stroke="#191970" d="M160.76,-156.3679C138.5152,-139.1813 104.7373,-108.354 92.5,-72 85.3082,-50.6348 106.3717,-29.2085 120.6035,-17.6743"/>
<polygon fill="#191970" stroke="#191970" points="158.8253,-159.2914 168.9315,-162.472 163.0146,-153.6833 158.8253,-159.2914"/>
</g>
<!-- Node66 -->
<g id="node7" class="node">
<title>Node66</title>
<g id="a_node7"><a xlink:href="../../de/d0c/_flha_one_8hpp.html" target="_top" xlink:title="FlhaOne.hpp">
<polygon fill="none" stroke="#000000" points="101,-54.5 101,-71.5 164,-71.5 164,-54.5 101,-54.5"/>
<text text-anchor="middle" x="132.5" y="-61.1" font-family="Helvetica,sans-Serif" font-size="8.00" fill="#000000">FlhaOne.hpp</text>
</a>
</g>
</g>
<!-- Node65&#45;&gt;Node66 -->
<g id="edge7" class="edge">
<title>Node65&#45;&gt;Node66</title>
<path fill="none" stroke="#191970" d="M164.5356,-155.1933C156.9365,-147.1701 148.564,-136.8391 143.5,-126 135.0406,-107.8933 133.039,-84.1029 132.5961,-71.5732"/>
<polygon fill="#191970" stroke="#191970" points="162.1789,-157.7863 171.7257,-162.3807 167.1277,-152.8356 162.1789,-157.7863"/>
</g>
<!-- Node67 -->
<g id="node8" class="node">
<title>Node67</title>
<g id="a_node8"><a xlink:href="../../d7/d9f/_slha_parser_8hpp.html" target="_top" xlink:title="SlhaParser.hpp">
<polygon fill="none" stroke="#ff0000" points="152.5,-108.5 152.5,-125.5 224.5,-125.5 224.5,-108.5 152.5,-108.5"/>
<text text-anchor="middle" x="188.5" y="-115.1" font-family="Helvetica,sans-Serif" font-size="8.00" fill="#000000">SlhaParser.hpp</text>
</a>
</g>
</g>
<!-- Node65&#45;&gt;Node67 -->
<g id="edge9" class="edge">
<title>Node65&#45;&gt;Node67</title>
<path fill="none" stroke="#191970" d="M183.9499,-152.1005C185.112,-143.1357 186.4443,-132.8579 187.3656,-125.7511"/>
<polygon fill="#191970" stroke="#191970" points="180.4706,-151.716 182.6559,-162.083 187.4125,-152.6159 180.4706,-151.716"/>
</g>
<!-- Node68 -->
<g id="node9" class="node">
<title>Node68</title>
<g id="a_node9"><a xlink:href="../../d7/dc0/_slha_one_8hpp.html" target="_top" xlink:title="SlhaOne.hpp">
<polygon fill="none" stroke="#ff0000" points="221,-54.5 221,-71.5 284,-71.5 284,-54.5 221,-54.5"/>
<text text-anchor="middle" x="252.5" y="-61.1" font-family="Helvetica,sans-Serif" font-size="8.00" fill="#000000">SlhaOne.hpp</text>
</a>
</g>
</g>
<!-- Node65&#45;&gt;Node68 -->
<g id="edge14" class="edge">
<title>Node65&#45;&gt;Node68</title>
<path fill="none" stroke="#191970" d="M203.6631,-156.3235C214.0415,-148.4387 225.7878,-137.8962 233.5,-126 244.6861,-108.7454 249.5351,-84.6088 251.4282,-71.7985"/>
<polygon fill="#191970" stroke="#191970" points="201.4491,-153.605 195.3856,-162.2932 205.5437,-159.2825 201.4491,-153.605"/>
</g>
<!-- Node74 -->
<g id="node10" class="node">
<title>Node74</title>
<g id="a_node10"><a xlink:href="../../d5/dce/_slha_value_plotter_8hpp.html" target="_top" xlink:title="SlhaValuePlotter.hpp">
<polygon fill="none" stroke="#ff0000" points="280.5,-108.5 280.5,-125.5 372.5,-125.5 372.5,-108.5 280.5,-108.5"/>
<text text-anchor="middle" x="326.5" y="-115.1" font-family="Helvetica,sans-Serif" font-size="8.00" fill="#000000">SlhaValuePlotter.hpp</text>
</a>
</g>
</g>
<!-- Node65&#45;&gt;Node74 -->
<g id="edge16" class="edge">
<title>Node65&#45;&gt;Node74</title>
<path fill="none" stroke="#191970" d="M213.9751,-158.9058C241.2358,-148.7536 279.4924,-134.5063 303.6318,-125.5164"/>
<polygon fill="#191970" stroke="#191970" points="212.6254,-155.6736 204.4757,-162.4435 215.0684,-162.2334 212.6254,-155.6736"/>
</g>
<!-- Node66&#45;&gt;Node48 -->
<g id="edge8" class="edge">
<title>Node66&#45;&gt;Node48</title>
<path fill="none" stroke="#191970" d="M132.5,-43.8045C132.5,-34.9102 132.5,-24.7798 132.5,-17.7511"/>
<polygon fill="#191970" stroke="#191970" points="129.0001,-44.083 132.5,-54.083 136.0001,-44.083 129.0001,-44.083"/>
</g>
<!-- Node67&#45;&gt;Node48 -->
<g id="edge13" class="edge">
<title>Node67&#45;&gt;Node48</title>
<path fill="none" stroke="#191970" d="M186.5507,-98.2695C184.6108,-85.2568 180.8159,-67.8378 173.5,-54 165.794,-39.4242 152.2548,-25.9024 142.8532,-17.5627"/>
<polygon fill="#191970" stroke="#191970" points="183.1004,-98.8843 187.8199,-108.3699 190.0457,-98.0115 183.1004,-98.8843"/>
</g>
<!-- Node67&#45;&gt;Node66 -->
<g id="edge10" class="edge">
<title>Node67&#45;&gt;Node66</title>
<path fill="none" stroke="#191970" d="M172.1701,-101.2533C162.235,-91.6731 149.9125,-79.7906 141.6611,-71.8339"/>
<polygon fill="#191970" stroke="#191970" points="169.8747,-103.902 179.5026,-108.324 174.7336,-98.8631 169.8747,-103.902"/>
</g>
<!-- Node67&#45;&gt;Node68 -->
<g id="edge11" class="edge">
<title>Node67&#45;&gt;Node68</title>
<path fill="none" stroke="#191970" d="M206.4915,-101.8197C217.9576,-92.1452 232.4133,-79.9481 242.0302,-71.8339"/>
<polygon fill="#191970" stroke="#191970" points="204.1686,-99.2002 198.7827,-108.324 208.6827,-104.5502 204.1686,-99.2002"/>
</g>
<!-- Node68&#45;&gt;Node48 -->
<g id="edge12" class="edge">
<title>Node68&#45;&gt;Node48</title>
<path fill="none" stroke="#191970" d="M224.1269,-50.2321C201.6804,-40.1312 170.9648,-26.3091 151.4254,-17.5164"/>
<polygon fill="#191970" stroke="#191970" points="222.9301,-53.5316 233.4856,-54.4435 225.8027,-47.1481 222.9301,-53.5316"/>
</g>
</g>
</svg>
