<?xml version="1.0" encoding="UTF-8" standalone="no"?>
<!DOCTYPE svg PUBLIC "-//W3C//DTD SVG 1.1//EN"
 "http://www.w3.org/Graphics/SVG/1.1/DTD/svg11.dtd">
<!-- Generated by graphviz version 2.40.1 (20161225.0304)
 -->
<!-- Title: aTGC.cpp Pages: 1 -->
<svg width="332pt" height="296pt"
 viewBox="0.00 0.00 331.50 296.00" xmlns="http://www.w3.org/2000/svg" xmlns:xlink="http://www.w3.org/1999/xlink">
<g id="graph0" class="graph" transform="scale(1 1) rotate(0) translate(4 292)">
<title>aTGC.cpp</title>
<!-- Node0 -->
<g id="node1" class="node">
<title>Node0</title>
<polygon fill="#bfbfbf" stroke="#000000" points="147,-270.5 147,-287.5 200,-287.5 200,-270.5 147,-270.5"/>
<text text-anchor="middle" x="173.5" y="-277.1" font-family="Helvetica,sans-Serif" font-size="8.00" fill="#000000">aTGC.cpp</text>
</g>
<!-- Node1 -->
<g id="node2" class="node">
<title>Node1</title>
<g id="a_node2"><a xlink:href="../../d0/d72/a_t_g_c_8h.html" target="_top" xlink:title="aTGC.h">
<polygon fill="none" stroke="#000000" points="124,-216.5 124,-233.5 169,-233.5 169,-216.5 124,-216.5"/>
<text text-anchor="middle" x="146.5" y="-223.1" font-family="Helvetica,sans-Serif" font-size="8.00" fill="#000000">aTGC.h</text>
</a>
</g>
</g>
<!-- Node0&#45;&gt;Node1 -->
<g id="edge1" class="edge">
<title>Node0&#45;&gt;Node1</title>
<path fill="none" stroke="#191970" d="M169.0415,-270.083C165.3457,-262.6913 159.9766,-251.9533 155.4055,-242.8111"/>
<polygon fill="#191970" stroke="#191970" points="158.4782,-241.1301 150.8755,-233.7511 152.2172,-244.2606 158.4782,-241.1301"/>
</g>
<!-- Node7 -->
<g id="node6" class="node">
<title>Node7</title>
<g id="a_node6"><a xlink:href="../../d6/d0a/_standard_model_8h.html" target="_top" xlink:title="StandardModel.h">
<polygon fill="none" stroke="#ff0000" points="175,-108.5 175,-125.5 252,-125.5 252,-108.5 175,-108.5"/>
<text text-anchor="middle" x="213.5" y="-115.1" font-family="Helvetica,sans-Serif" font-size="8.00" fill="#000000">StandardModel.h</text>
</a>
</g>
</g>
<!-- Node0&#45;&gt;Node7 -->
<g id="edge11" class="edge">
<title>Node0&#45;&gt;Node7</title>
<path fill="none" stroke="#191970" d="M179.2911,-270.492C190.157,-253.9534 213.249,-215.93 221.5,-180 224.8972,-165.2063 222.3269,-148.104 219.2249,-135.4546"/>
<polygon fill="#191970" stroke="#191970" points="222.5508,-134.3509 216.4988,-125.6547 215.8069,-136.227 222.5508,-134.3509"/>
</g>
<!-- Node2 -->
<g id="node3" class="node">
<title>Node2</title>
<polygon fill="none" stroke="#bfbfbf" points="0,-162.5 0,-179.5 51,-179.5 51,-162.5 0,-162.5"/>
<text text-anchor="middle" x="25.5" y="-169.1" font-family="Helvetica,sans-Serif" font-size="8.00" fill="#000000">stdexcept</text>
</g>
<!-- Node1&#45;&gt;Node2 -->
<g id="edge2" class="edge">
<title>Node1&#45;&gt;Node2</title>
<path fill="none" stroke="#191970" d="M127.3272,-216.4435C107.5909,-207.6356 76.6148,-193.8116 54.0066,-183.722"/>
<polygon fill="#191970" stroke="#191970" points="55.1414,-180.3957 44.5831,-179.5164 52.2886,-186.788 55.1414,-180.3957"/>
</g>
<!-- Node3 -->
<g id="node4" class="node">
<title>Node3</title>
<g id="a_node4"><a xlink:href="../../dd/dcd/_th_observable_8h.html" target="_top" xlink:title="ThObservable.h">
<polygon fill="none" stroke="#ff0000" points="69,-162.5 69,-179.5 142,-179.5 142,-162.5 69,-162.5"/>
<text text-anchor="middle" x="105.5" y="-169.1" font-family="Helvetica,sans-Serif" font-size="8.00" fill="#000000">ThObservable.h</text>
</a>
</g>
</g>
<!-- Node1&#45;&gt;Node3 -->
<g id="edge3" class="edge">
<title>Node1&#45;&gt;Node3</title>
<path fill="none" stroke="#191970" d="M139.7297,-216.083C133.9384,-208.4554 125.4415,-197.2645 118.3625,-187.9408"/>
<polygon fill="#191970" stroke="#191970" points="120.979,-185.5991 112.1443,-179.7511 115.4039,-189.8321 120.979,-185.5991"/>
</g>
<!-- Node6 -->
<g id="node5" class="node">
<title>Node6</title>
<g id="a_node5"><a xlink:href="../../d2/de8/_n_pbase_8h.html" target="_top" xlink:title="NPbase.h">
<polygon fill="none" stroke="#000000" points="160.5,-162.5 160.5,-179.5 212.5,-179.5 212.5,-162.5 160.5,-162.5"/>
<text text-anchor="middle" x="186.5" y="-169.1" font-family="Helvetica,sans-Serif" font-size="8.00" fill="#000000">NPbase.h</text>
</a>
</g>
</g>
<!-- Node1&#45;&gt;Node6 -->
<g id="edge4" class="edge">
<title>Node1&#45;&gt;Node6</title>
<path fill="none" stroke="#191970" d="M153.1052,-216.083C158.7552,-208.4554 167.0448,-197.2645 173.9512,-187.9408"/>
<polygon fill="#191970" stroke="#191970" points="176.8779,-189.87 180.0177,-179.7511 171.2529,-185.7034 176.8779,-189.87"/>
</g>
<!-- Node6&#45;&gt;Node7 -->
<g id="edge5" class="edge">
<title>Node6&#45;&gt;Node7</title>
<path fill="none" stroke="#191970" d="M190.9585,-162.083C194.6543,-154.6913 200.0234,-143.9533 204.5945,-134.8111"/>
<polygon fill="#191970" stroke="#191970" points="207.7828,-136.2606 209.1245,-125.7511 201.5218,-133.1301 207.7828,-136.2606"/>
</g>
<!-- Node8 -->
<g id="node7" class="node">
<title>Node8</title>
<g id="a_node7"><a xlink:href="../../d2/d65/_flavour_8h.html" target="_top" xlink:title="Flavour.h">
<polygon fill="none" stroke="#ff0000" points="111.5,-54.5 111.5,-71.5 161.5,-71.5 161.5,-54.5 111.5,-54.5"/>
<text text-anchor="middle" x="136.5" y="-61.1" font-family="Helvetica,sans-Serif" font-size="8.00" fill="#000000">Flavour.h</text>
</a>
</g>
</g>
<!-- Node7&#45;&gt;Node8 -->
<g id="edge6" class="edge">
<title>Node7&#45;&gt;Node8</title>
<path fill="none" stroke="#191970" d="M201.1286,-108.324C189.3415,-100.0577 171.3677,-87.4527 157.3645,-77.6322"/>
<polygon fill="#191970" stroke="#191970" points="159.0376,-74.5307 148.8407,-71.6545 155.0184,-80.2619 159.0376,-74.5307"/>
</g>
<!-- Node9 -->
<g id="node8" class="node">
<title>Node9</title>
<g id="a_node8"><a xlink:href="../../d4/d68/_q_c_d_8h.html" target="_top" xlink:title="QCD.h">
<polygon fill="none" stroke="#ff0000" points="142,-.5 142,-17.5 183,-17.5 183,-.5 142,-.5"/>
<text text-anchor="middle" x="162.5" y="-7.1" font-family="Helvetica,sans-Serif" font-size="8.00" fill="#000000">QCD.h</text>
</a>
</g>
</g>
<!-- Node7&#45;&gt;Node9 -->
<g id="edge8" class="edge">
<title>Node7&#45;&gt;Node9</title>
<path fill="none" stroke="#191970" d="M209.3265,-108.1619C200.9544,-90.4328 181.9683,-50.2271 170.9147,-26.8193"/>
<polygon fill="#191970" stroke="#191970" points="174.0237,-25.2063 166.5887,-17.6584 167.6939,-28.1954 174.0237,-25.2063"/>
</g>
<!-- Node29 -->
<g id="node9" class="node">
<title>Node29</title>
<g id="a_node9"><a xlink:href="../../db/d5d/_c_k_m_8h.html" target="_top" xlink:title="CKM.h">
<polygon fill="none" stroke="#ff0000" points="218,-54.5 218,-71.5 259,-71.5 259,-54.5 218,-54.5"/>
<text text-anchor="middle" x="238.5" y="-61.1" font-family="Helvetica,sans-Serif" font-size="8.00" fill="#000000">CKM.h</text>
</a>
</g>
</g>
<!-- Node7&#45;&gt;Node29 -->
<g id="edge9" class="edge">
<title>Node7&#45;&gt;Node29</title>
<path fill="none" stroke="#191970" d="M217.6282,-108.083C221.0139,-100.77 225.916,-90.1814 230.1188,-81.1034"/>
<polygon fill="#191970" stroke="#191970" points="233.4234,-82.2962 234.4486,-71.7511 227.0711,-79.3553 233.4234,-82.2962"/>
</g>
<!-- Node40 -->
<g id="node10" class="node">
<title>Node40</title>
<g id="a_node10"><a xlink:href="../../d9/d22/_p_m_n_s_8h.html" target="_top" xlink:title="PMNS.h">
<polygon fill="none" stroke="#ff0000" points="277.5,-54.5 277.5,-71.5 323.5,-71.5 323.5,-54.5 277.5,-54.5"/>
<text text-anchor="middle" x="300.5" y="-61.1" font-family="Helvetica,sans-Serif" font-size="8.00" fill="#000000">PMNS.h</text>
</a>
</g>
</g>
<!-- Node7&#45;&gt;Node40 -->
<g id="edge10" class="edge">
<title>Node7&#45;&gt;Node40</title>
<path fill="none" stroke="#191970" d="M227.4781,-108.324C241.0496,-99.9002 261.8802,-86.9709 277.825,-77.0741"/>
<polygon fill="#191970" stroke="#191970" points="279.906,-79.9019 286.5566,-71.6545 276.2144,-73.9544 279.906,-79.9019"/>
</g>
<!-- Node8&#45;&gt;Node9 -->
<g id="edge7" class="edge">
<title>Node8&#45;&gt;Node9</title>
<path fill="none" stroke="#191970" d="M140.7934,-54.083C144.3523,-46.6913 149.5225,-35.9533 153.9243,-26.8111"/>
<polygon fill="#191970" stroke="#191970" points="157.1018,-28.2795 158.2865,-17.7511 150.7948,-25.2427 157.1018,-28.2795"/>
</g>
</g>
</svg>
