<?xml version="1.0" encoding="UTF-8" standalone="no"?>
<!DOCTYPE svg PUBLIC "-//W3C//DTD SVG 1.1//EN"
 "http://www.w3.org/Graphics/SVG/1.1/DTD/svg11.dtd">
<!-- Generated by graphviz version 2.40.1 (20161225.0304)
 -->
<!-- Title: GeneralTHDMEffectivePot.h Pages: 1 -->
<svg width="272pt" height="134pt"
 viewBox="0.00 0.00 272.00 134.00" xmlns="http://www.w3.org/2000/svg" xmlns:xlink="http://www.w3.org/1999/xlink">
<g id="graph0" class="graph" transform="scale(1 1) rotate(0) translate(4 130)">
<title>GeneralTHDMEffectivePot.h</title>
<!-- Node59 -->
<g id="node1" class="node">
<title>Node59</title>
<polygon fill="#bfbfbf" stroke="#000000" points="74.5,-108.5 74.5,-125.5 191.5,-125.5 191.5,-108.5 74.5,-108.5"/>
<text text-anchor="middle" x="133" y="-115.1" font-family="Helvetica,sans-Serif" font-size="8.00" fill="#000000">GeneralTHDMEffectivePot.h</text>
</g>
<!-- Node60 -->
<g id="node2" class="node">
<title>Node60</title>
<g id="a_node2"><a xlink:href="../../db/d4d/_general_t_h_d_m_effective_pot_8cpp.html" target="_top" xlink:title="GeneralTHDMEffectivePot.cpp">
<polygon fill="none" stroke="#000000" points="0,-54.5 0,-71.5 126,-71.5 126,-54.5 0,-54.5"/>
<text text-anchor="middle" x="63" y="-61.1" font-family="Helvetica,sans-Serif" font-size="8.00" fill="#000000">GeneralTHDMEffectivePot.cpp</text>
</a>
</g>
</g>
<!-- Node59&#45;&gt;Node60 -->
<g id="edge1" class="edge">
<title>Node59&#45;&gt;Node60</title>
<path fill="none" stroke="#191970" d="M113.6862,-102.1008C101.0883,-92.3824 85.0719,-80.0269 74.4513,-71.8339"/>
<polygon fill="#191970" stroke="#191970" points="111.6976,-104.9871 121.7533,-108.324 115.9733,-99.4446 111.6976,-104.9871"/>
</g>
<!-- Node61 -->
<g id="node3" class="node">
<title>Node61</title>
<g id="a_node3"><a xlink:href="../../d4/d31/_general_t_h_d_m_observables_8h.html" target="_top" xlink:title="GeneralTHDMObservables.h">
<polygon fill="none" stroke="#000000" points="144,-54.5 144,-71.5 264,-71.5 264,-54.5 144,-54.5"/>
<text text-anchor="middle" x="204" y="-61.1" font-family="Helvetica,sans-Serif" font-size="8.00" fill="#000000">GeneralTHDMObservables.h</text>
</a>
</g>
</g>
<!-- Node59&#45;&gt;Node61 -->
<g id="edge2" class="edge">
<title>Node59&#45;&gt;Node61</title>
<path fill="none" stroke="#191970" d="M152.5897,-102.1008C165.3676,-92.3824 181.6127,-80.0269 192.3851,-71.8339"/>
<polygon fill="#191970" stroke="#191970" points="150.2481,-99.4844 144.4074,-108.324 154.4857,-105.0561 150.2481,-99.4844"/>
</g>
<!-- Node62 -->
<g id="node4" class="node">
<title>Node62</title>
<g id="a_node4"><a xlink:href="../../d1/de2/_th_obs_factory_8cpp.html" target="_top" xlink:title="ThObsFactory.cpp">
<polygon fill="none" stroke="#000000" points="163,-.5 163,-17.5 245,-17.5 245,-.5 163,-.5"/>
<text text-anchor="middle" x="204" y="-7.1" font-family="Helvetica,sans-Serif" font-size="8.00" fill="#000000">ThObsFactory.cpp</text>
</a>
</g>
</g>
<!-- Node61&#45;&gt;Node62 -->
<g id="edge3" class="edge">
<title>Node61&#45;&gt;Node62</title>
<path fill="none" stroke="#191970" d="M204,-43.8045C204,-34.9102 204,-24.7798 204,-17.7511"/>
<polygon fill="#191970" stroke="#191970" points="200.5001,-44.083 204,-54.083 207.5001,-44.083 200.5001,-44.083"/>
</g>
</g>
</svg>
