<?xml version="1.0" encoding="UTF-8" standalone="no"?>
<!DOCTYPE svg PUBLIC "-//W3C//DTD SVG 1.1//EN"
 "http://www.w3.org/Graphics/SVG/1.1/DTD/svg11.dtd">
<!-- Generated by graphviz version 2.40.1 (20161225.0304)
 -->
<!-- Title: NPDF2.h Pages: 1 -->
<svg width="539pt" height="188pt"
 viewBox="0.00 0.00 538.50 188.00" xmlns="http://www.w3.org/2000/svg" xmlns:xlink="http://www.w3.org/1999/xlink">
<g id="graph0" class="graph" transform="scale(1 1) rotate(0) translate(4 184)">
<title>NPDF2.h</title>
<!-- Node0 -->
<g id="node1" class="node">
<title>Node0</title>
<polygon fill="#bfbfbf" stroke="#000000" points="175,-162.5 175,-179.5 224,-179.5 224,-162.5 175,-162.5"/>
<text text-anchor="middle" x="199.5" y="-169.1" font-family="Helvetica,sans-Serif" font-size="8.00" fill="#000000">NPDF2.h</text>
</g>
<!-- Node1 -->
<g id="node2" class="node">
<title>Node1</title>
<g id="a_node2"><a xlink:href="../../d6/d0a/_standard_model_8h.html" target="_top" xlink:title="StandardModel.h">
<polygon fill="none" stroke="#000000" points="161,-108.5 161,-125.5 238,-125.5 238,-108.5 161,-108.5"/>
<text text-anchor="middle" x="199.5" y="-115.1" font-family="Helvetica,sans-Serif" font-size="8.00" fill="#000000">StandardModel.h</text>
</a>
</g>
</g>
<!-- Node0&#45;&gt;Node1 -->
<g id="edge1" class="edge">
<title>Node0&#45;&gt;Node1</title>
<path fill="none" stroke="#191970" d="M199.5,-162.083C199.5,-155.0059 199.5,-144.8611 199.5,-135.9865"/>
<polygon fill="#191970" stroke="#191970" points="203.0001,-135.751 199.5,-125.7511 196.0001,-135.7511 203.0001,-135.751"/>
</g>
<!-- Node2 -->
<g id="node3" class="node">
<title>Node2</title>
<g id="a_node3"><a xlink:href="../../d2/d65/_flavour_8h.html" target="_top" xlink:title="Flavour.h">
<polygon fill="none" stroke="#ff0000" points="48.5,-54.5 48.5,-71.5 98.5,-71.5 98.5,-54.5 48.5,-54.5"/>
<text text-anchor="middle" x="73.5" y="-61.1" font-family="Helvetica,sans-Serif" font-size="8.00" fill="#000000">Flavour.h</text>
</a>
</g>
</g>
<!-- Node1&#45;&gt;Node2 -->
<g id="edge2" class="edge">
<title>Node1&#45;&gt;Node2</title>
<path fill="none" stroke="#191970" d="M179.5349,-108.4435C158.8909,-99.5961 126.4375,-85.6875 102.8684,-75.5865"/>
<polygon fill="#191970" stroke="#191970" points="103.9419,-72.2387 93.3717,-71.5164 101.1844,-78.6727 103.9419,-72.2387"/>
</g>
<!-- Node3 -->
<g id="node4" class="node">
<title>Node3</title>
<g id="a_node4"><a xlink:href="../../d4/d68/_q_c_d_8h.html" target="_top" xlink:title="QCD.h">
<polygon fill="none" stroke="#ff0000" points="0,-.5 0,-17.5 41,-17.5 41,-.5 0,-.5"/>
<text text-anchor="middle" x="20.5" y="-7.1" font-family="Helvetica,sans-Serif" font-size="8.00" fill="#000000">QCD.h</text>
</a>
</g>
</g>
<!-- Node1&#45;&gt;Node3 -->
<g id="edge5" class="edge">
<title>Node1&#45;&gt;Node3</title>
<path fill="none" stroke="#191970" d="M160.7919,-110.5151C119.1692,-102.8006 56.6447,-88.8263 39.5,-72 27.6623,-60.3821 23.1405,-41.6784 21.444,-27.663"/>
<polygon fill="#191970" stroke="#191970" points="24.928,-27.325 20.6033,-17.653 17.9526,-27.9109 24.928,-27.325"/>
</g>
<!-- Node26 -->
<g id="node6" class="node">
<title>Node26</title>
<g id="a_node6"><a xlink:href="../../db/d5d/_c_k_m_8h.html" target="_top" xlink:title="CKM.h">
<polygon fill="none" stroke="#ff0000" points="117,-54.5 117,-71.5 158,-71.5 158,-54.5 117,-54.5"/>
<text text-anchor="middle" x="137.5" y="-61.1" font-family="Helvetica,sans-Serif" font-size="8.00" fill="#000000">CKM.h</text>
</a>
</g>
</g>
<!-- Node1&#45;&gt;Node26 -->
<g id="edge6" class="edge">
<title>Node1&#45;&gt;Node26</title>
<path fill="none" stroke="#191970" d="M189.5386,-108.324C180.3734,-100.3414 166.5628,-88.3128 155.4718,-78.6529"/>
<polygon fill="#191970" stroke="#191970" points="157.4822,-75.7624 147.6426,-71.8339 152.8847,-81.041 157.4822,-75.7624"/>
</g>
<!-- Node37 -->
<g id="node7" class="node">
<title>Node37</title>
<g id="a_node7"><a xlink:href="../../d9/d22/_p_m_n_s_8h.html" target="_top" xlink:title="PMNS.h">
<polygon fill="none" stroke="#ff0000" points="176.5,-54.5 176.5,-71.5 222.5,-71.5 222.5,-54.5 176.5,-54.5"/>
<text text-anchor="middle" x="199.5" y="-61.1" font-family="Helvetica,sans-Serif" font-size="8.00" fill="#000000">PMNS.h</text>
</a>
</g>
</g>
<!-- Node1&#45;&gt;Node37 -->
<g id="edge7" class="edge">
<title>Node1&#45;&gt;Node37</title>
<path fill="none" stroke="#191970" d="M199.5,-108.083C199.5,-101.0059 199.5,-90.8611 199.5,-81.9865"/>
<polygon fill="#191970" stroke="#191970" points="203.0001,-81.751 199.5,-71.7511 196.0001,-81.7511 203.0001,-81.751"/>
</g>
<!-- Node38 -->
<g id="node8" class="node">
<title>Node38</title>
<g id="a_node8"><a xlink:href="../../d6/d16/_standard_model_matching_8h.html" target="_top" xlink:title="StandardModelMatching.h">
<polygon fill="none" stroke="#ff0000" points="240.5,-54.5 240.5,-71.5 350.5,-71.5 350.5,-54.5 240.5,-54.5"/>
<text text-anchor="middle" x="295.5" y="-61.1" font-family="Helvetica,sans-Serif" font-size="8.00" fill="#000000">StandardModelMatching.h</text>
</a>
</g>
</g>
<!-- Node1&#45;&gt;Node38 -->
<g id="edge8" class="edge">
<title>Node1&#45;&gt;Node38</title>
<path fill="none" stroke="#191970" d="M214.9241,-108.324C230.0395,-99.8215 253.3154,-86.7288 270.9712,-76.7975"/>
<polygon fill="#191970" stroke="#191970" points="273.1144,-79.6077 280.1142,-71.6545 269.6825,-73.5066 273.1144,-79.6077"/>
</g>
<!-- Node47 -->
<g id="node9" class="node">
<title>Node47</title>
<g id="a_node9"><a xlink:href="../../dc/d38/_matching_8h.html" target="_top" xlink:title="Matching.h">
<polygon fill="none" stroke="#ff0000" points="368.5,-54.5 368.5,-71.5 424.5,-71.5 424.5,-54.5 368.5,-54.5"/>
<text text-anchor="middle" x="396.5" y="-61.1" font-family="Helvetica,sans-Serif" font-size="8.00" fill="#000000">Matching.h</text>
</a>
</g>
</g>
<!-- Node1&#45;&gt;Node47 -->
<g id="edge9" class="edge">
<title>Node1&#45;&gt;Node47</title>
<path fill="none" stroke="#191970" d="M230.7152,-108.4435C265.3255,-98.9565 321.1658,-83.65 358.3449,-73.4588"/>
<polygon fill="#191970" stroke="#191970" points="359.5844,-76.7482 368.3033,-70.729 357.7338,-69.9972 359.5844,-76.7482"/>
</g>
<!-- Node48 -->
<g id="node10" class="node">
<title>Node48</title>
<polygon fill="none" stroke="#bfbfbf" points="442.5,-54.5 442.5,-71.5 530.5,-71.5 530.5,-54.5 442.5,-54.5"/>
<text text-anchor="middle" x="486.5" y="-61.1" font-family="Helvetica,sans-Serif" font-size="8.00" fill="#000000">gsl/gsl_integration.h</text>
</g>
<!-- Node1&#45;&gt;Node48 -->
<g id="edge10" class="edge">
<title>Node1&#45;&gt;Node48</title>
<path fill="none" stroke="#191970" d="M238.2061,-109.7173C288.2917,-100.2935 375.8269,-83.8235 432.4519,-73.1693"/>
<polygon fill="#191970" stroke="#191970" points="433.122,-76.6047 442.3024,-71.3159 431.8276,-69.7255 433.122,-76.6047"/>
</g>
<!-- Node2&#45;&gt;Node3 -->
<g id="edge3" class="edge">
<title>Node2&#45;&gt;Node3</title>
<path fill="none" stroke="#191970" d="M64.7481,-54.083C57.0303,-46.2195 45.5953,-34.5688 36.2835,-25.0813"/>
<polygon fill="#191970" stroke="#191970" points="38.5916,-22.4363 29.089,-17.7511 33.5958,-27.3396 38.5916,-22.4363"/>
</g>
<!-- Node24 -->
<g id="node5" class="node">
<title>Node24</title>
<polygon fill="none" stroke="#bfbfbf" points="59,-.5 59,-17.5 150,-17.5 150,-.5 59,-.5"/>
<text text-anchor="middle" x="104.5" y="-7.1" font-family="Helvetica,sans-Serif" font-size="8.00" fill="#000000">boost/tuple/tuple.hpp</text>
</g>
<!-- Node2&#45;&gt;Node24 -->
<g id="edge4" class="edge">
<title>Node2&#45;&gt;Node24</title>
<path fill="none" stroke="#191970" d="M78.619,-54.083C82.9075,-46.6127 89.1582,-35.7244 94.4423,-26.5199"/>
<polygon fill="#191970" stroke="#191970" points="97.5329,-28.1662 99.4762,-17.7511 91.4621,-24.6811 97.5329,-28.1662"/>
</g>
</g>
</svg>
