<?xml version="1.0" encoding="UTF-8" standalone="no"?>
<!DOCTYPE svg PUBLIC "-//W3C//DTD SVG 1.1//EN"
 "http://www.w3.org/Graphics/SVG/1.1/DTD/svg11.dtd">
<!-- Generated by graphviz version 2.40.1 (20161225.0304)
 -->
<!-- Title: Hobs_gg_phi2_phi1Z_bbZ_ATLAS8 Pages: 1 -->
<svg width="474pt" height="297pt"
 viewBox="0.00 0.00 474.00 297.00" xmlns="http://www.w3.org/2000/svg" xmlns:xlink="http://www.w3.org/1999/xlink">
<g id="graph0" class="graph" transform="scale(1 1) rotate(0) translate(4 293)">
<title>Hobs_gg_phi2_phi1Z_bbZ_ATLAS8</title>
<!-- Node2 -->
<g id="node1" class="node">
<title>Node2</title>
<polygon fill="#bfbfbf" stroke="#000000" points="3,-.5 3,-26.5 96,-26.5 96,-.5 3,-.5"/>
<text text-anchor="start" x="11" y="-16.1" font-family="Helvetica,sans-Serif" font-size="8.00" fill="#000000">Hobs_gg_phi2_phi1Z</text>
<text text-anchor="middle" x="49.5" y="-7.1" font-family="Helvetica,sans-Serif" font-size="8.00" fill="#000000">_bbZ_ATLAS8</text>
</g>
<!-- Node3 -->
<g id="node2" class="node">
<title>Node3</title>
<g id="a_node2"><a xlink:href="../../dc/d1f/class_th_observable.html" target="_top" xlink:title="A class for a model prediction of an observable. ">
<polygon fill="none" stroke="#000000" points="0,-108.5 0,-125.5 67,-125.5 67,-108.5 0,-108.5"/>
<text text-anchor="middle" x="33.5" y="-115.1" font-family="Helvetica,sans-Serif" font-size="8.00" fill="#000000">ThObservable</text>
</a>
</g>
</g>
<!-- Node3&#45;&gt;Node2 -->
<g id="edge1" class="edge">
<title>Node3&#45;&gt;Node2</title>
<path fill="none" stroke="#191970" d="M36.4228,-98.0934C39.6152,-77.4421 44.6462,-44.8979 47.4461,-26.7859"/>
<polygon fill="#191970" stroke="#191970" points="32.9331,-97.7583 34.8642,-108.1756 39.8509,-98.8278 32.9331,-97.7583"/>
</g>
<!-- Node4 -->
<g id="node3" class="node">
<title>Node4</title>
<g id="a_node3"><a xlink:href="../../dc/dd5/class_standard_model.html" target="_top" xlink:title="A model class for the Standard Model. ">
<polygon fill="none" stroke="#ff0000" points="246,-216.5 246,-233.5 317,-233.5 317,-216.5 246,-216.5"/>
<text text-anchor="middle" x="281.5" y="-223.1" font-family="Helvetica,sans-Serif" font-size="8.00" fill="#000000">StandardModel</text>
</a>
</g>
</g>
<!-- Node4&#45;&gt;Node3 -->
<g id="edge2" class="edge">
<title>Node4&#45;&gt;Node3</title>
<path fill="none" stroke="#9a32cd" stroke-dasharray="5,2" d="M235.6832,-219.4413C176.8524,-211.4387 79.1559,-194.9522 52.5,-171 39.3415,-159.1762 35.2958,-137.6881 34.052,-125.6914"/>
<polygon fill="#9a32cd" stroke="#9a32cd" points="235.4619,-222.9425 245.8359,-220.7907 236.3843,-216.0036 235.4619,-222.9425"/>
<text text-anchor="middle" x="123" y="-191.6" font-family="Helvetica,sans-Serif" font-size="8.00" fill="#000000"> SM</text>
</g>
<!-- Node9 -->
<g id="node6" class="node">
<title>Node9</title>
<g id="a_node6"><a xlink:href="../../dc/df3/class_e_w_s_mcache.html" target="_top" xlink:title="A class for cache variables used in computing radiative corrections to the EW precision observables...">
<polygon fill="none" stroke="#ff0000" points="403,-149 403,-166 466,-166 466,-149 403,-149"/>
<text text-anchor="middle" x="434.5" y="-155.6" font-family="Helvetica,sans-Serif" font-size="8.00" fill="#000000">EWSMcache</text>
</a>
</g>
</g>
<!-- Node4&#45;&gt;Node9 -->
<g id="edge6" class="edge">
<title>Node4&#45;&gt;Node9</title>
<path fill="none" stroke="#9a32cd" stroke-dasharray="5,2" d="M310.146,-212.362C340.6807,-198.8909 388.213,-177.9207 414.7965,-166.1927"/>
<polygon fill="#9a32cd" stroke="#9a32cd" points="308.614,-209.2124 300.8776,-216.4511 311.4395,-215.6168 308.614,-209.2124"/>
<text text-anchor="middle" x="370" y="-191.6" font-family="Helvetica,sans-Serif" font-size="8.00" fill="#000000"> SM</text>
</g>
<!-- Node48 -->
<g id="node8" class="node">
<title>Node48</title>
<g id="a_node8"><a xlink:href="../../d2/df3/class_n_pbase.html" target="_top" xlink:title="The auxiliary base model class for other model classes. ">
<polygon fill="none" stroke="#000000" points="222,-149 222,-166 267,-166 267,-149 222,-149"/>
<text text-anchor="middle" x="244.5" y="-155.6" font-family="Helvetica,sans-Serif" font-size="8.00" fill="#000000">NPbase</text>
</a>
</g>
</g>
<!-- Node4&#45;&gt;Node48 -->
<g id="edge10" class="edge">
<title>Node4&#45;&gt;Node48</title>
<path fill="none" stroke="#191970" d="M251.9868,-210.8791C247.3692,-207.3354 243.2289,-203.0645 240.5,-198 235.1376,-188.048 238.0407,-174.7157 240.9721,-166.116"/>
<polygon fill="#191970" stroke="#191970" points="250.3206,-213.9705 260.6124,-216.4867 254.136,-208.1017 250.3206,-213.9705"/>
</g>
<!-- Node4&#45;&gt;Node48 -->
<g id="edge11" class="edge">
<title>Node4&#45;&gt;Node48</title>
<path fill="none" stroke="#9a32cd" stroke-dasharray="5,2" d="M267.3965,-208.3772C264.9217,-205.0561 262.5017,-201.5071 260.5,-198 254.5789,-187.6259 249.8719,-174.6301 247.1359,-166.2004"/>
<polygon fill="#9a32cd" stroke="#9a32cd" points="264.8586,-210.8087 273.8259,-216.4512 270.3345,-206.4481 264.8586,-210.8087"/>
<text text-anchor="middle" x="275" y="-191.6" font-family="Helvetica,sans-Serif" font-size="8.00" fill="#000000"> trueSM</text>
</g>
<!-- Node5 -->
<g id="node4" class="node">
<title>Node5</title>
<g id="a_node4"><a xlink:href="../../dd/dfa/class_q_c_d.html" target="_top" xlink:title="A class for parameters related to QCD, hadrons and quarks. ">
<polygon fill="none" stroke="#ff0000" points="264.5,-271.5 264.5,-288.5 298.5,-288.5 298.5,-271.5 264.5,-271.5"/>
<text text-anchor="middle" x="281.5" y="-278.1" font-family="Helvetica,sans-Serif" font-size="8.00" fill="#000000">QCD</text>
</a>
</g>
</g>
<!-- Node5&#45;&gt;Node4 -->
<g id="edge3" class="edge">
<title>Node5&#45;&gt;Node4</title>
<path fill="none" stroke="#191970" d="M281.5,-261.1166C281.5,-251.8173 281.5,-241.0557 281.5,-233.7149"/>
<polygon fill="#191970" stroke="#191970" points="278.0001,-261.4062 281.5,-271.4063 285.0001,-261.4063 278.0001,-261.4062"/>
</g>
<!-- Node8 -->
<g id="node5" class="node">
<title>Node8</title>
<g id="a_node5"><a xlink:href="../../db/d32/class_e_w_s_m_two_fermions_l_e_p2.html" target="_top" xlink:title="A class for the form factors , &#160;and &#160;in the processes &#160;at LEP&#45;II. ">
<polygon fill="none" stroke="#ff0000" points="290,-72.5 290,-89.5 399,-89.5 399,-72.5 290,-72.5"/>
<text text-anchor="middle" x="344.5" y="-79.1" font-family="Helvetica,sans-Serif" font-size="8.00" fill="#000000">EWSMTwoFermionsLEP2</text>
</a>
</g>
</g>
<!-- Node8&#45;&gt;Node4 -->
<g id="edge4" class="edge">
<title>Node8&#45;&gt;Node4</title>
<path fill="none" stroke="#9a32cd" stroke-dasharray="5,2" d="M335.2739,-98.7744C328.8934,-111.2955 320.3528,-128.5203 313.5,-144 301.9932,-169.9927 290.1292,-201.4925 284.6383,-216.3928"/>
<polygon fill="#9a32cd" stroke="#9a32cd" points="338.3951,-100.3582 339.8544,-89.8644 332.1695,-97.1578 338.3951,-100.3582"/>
<text text-anchor="middle" x="354" y="-155.6" font-family="Helvetica,sans-Serif" font-size="8.00" fill="#000000"> myTwoFermionsLEP2</text>
</g>
<!-- Node9&#45;&gt;Node4 -->
<g id="edge7" class="edge">
<title>Node9&#45;&gt;Node4</title>
<path fill="none" stroke="#9a32cd" stroke-dasharray="5,2" d="M417.701,-173.0638C407.8051,-181.5023 394.6744,-191.5038 381.5,-198 361.3392,-207.9411 337.0248,-214.6114 317.4198,-218.8349"/>
<polygon fill="#9a32cd" stroke="#9a32cd" points="420.3138,-175.4255 425.4846,-166.1781 415.6757,-170.1826 420.3138,-175.4255"/>
<text text-anchor="middle" x="425.5" y="-191.6" font-family="Helvetica,sans-Serif" font-size="8.00" fill="#000000"> myEWSMcache</text>
</g>
<!-- Node9&#45;&gt;Node8 -->
<g id="edge5" class="edge">
<title>Node9&#45;&gt;Node8</title>
<path fill="none" stroke="#9a32cd" stroke-dasharray="5,2" d="M416.4162,-142.1288C397.8726,-126.3667 369.6883,-102.4101 354.7037,-89.6732"/>
<polygon fill="#9a32cd" stroke="#9a32cd" points="414.2897,-144.9148 424.1759,-148.7245 418.8232,-139.5812 414.2897,-144.9148"/>
<text text-anchor="middle" x="406.5" y="-115.1" font-family="Helvetica,sans-Serif" font-size="8.00" fill="#000000"> cache</text>
</g>
<!-- Node47 -->
<g id="node7" class="node">
<title>Node47</title>
<g id="a_node7"><a xlink:href="../../d3/d55/class_general_t_h_d_m.html" target="_top" xlink:title="A base class for generic Two&#45;Higgs&#45;Doublet models. ">
<polygon fill="none" stroke="#000000" points="98.5,-72.5 98.5,-89.5 166.5,-89.5 166.5,-72.5 98.5,-72.5"/>
<text text-anchor="middle" x="132.5" y="-79.1" font-family="Helvetica,sans-Serif" font-size="8.00" fill="#000000">GeneralTHDM</text>
</a>
</g>
</g>
<!-- Node47&#45;&gt;Node2 -->
<g id="edge8" class="edge">
<title>Node47&#45;&gt;Node2</title>
<path fill="none" stroke="#9a32cd" stroke-dasharray="5,2" d="M101.8241,-67.9048C94.4393,-64.0091 86.8553,-59.3335 80.5,-54 71.2757,-46.2587 63.1032,-35.3124 57.4683,-26.7512"/>
<polygon fill="#9a32cd" stroke="#9a32cd" points="100.4474,-71.1283 110.964,-72.4128 103.5438,-64.8503 100.4474,-71.1283"/>
<text text-anchor="middle" x="102" y="-47.6" font-family="Helvetica,sans-Serif" font-size="8.00" fill="#000000"> myGTHDM</text>
</g>
<!-- Node51 -->
<g id="node10" class="node">
<title>Node51</title>
<g id="a_node10"><a xlink:href="../../dc/dfd/class_general_t_h_d_mcache.html" target="_top" xlink:title="GeneralTHDMcache">
<polygon fill="none" stroke="#ff0000" points="134,-5 134,-22 223,-22 223,-5 134,-5"/>
<text text-anchor="middle" x="178.5" y="-11.6" font-family="Helvetica,sans-Serif" font-size="8.00" fill="#000000">GeneralTHDMcache</text>
</a>
</g>
</g>
<!-- Node47&#45;&gt;Node51 -->
<g id="edge14" class="edge">
<title>Node47&#45;&gt;Node51</title>
<path fill="none" stroke="#9a32cd" stroke-dasharray="5,2" d="M127.0742,-62.6296C126.314,-56.7014 126.6074,-50.2983 129.5,-45 135.1699,-34.6146 145.8922,-27.1425 155.8643,-22.09"/>
<polygon fill="#9a32cd" stroke="#9a32cd" points="123.6685,-63.4388 129.2465,-72.4463 130.5031,-61.9263 123.6685,-63.4388"/>
<text text-anchor="middle" x="151" y="-47.6" font-family="Helvetica,sans-Serif" font-size="8.00" fill="#000000"> myGTHDM</text>
</g>
<!-- Node48&#45;&gt;Node47 -->
<g id="edge9" class="edge">
<title>Node48&#45;&gt;Node47</title>
<path fill="none" stroke="#191970" d="M224.7437,-142.8345C211.069,-132.8057 192.3658,-119.3291 175.5,-108 165.9875,-101.6102 155.0475,-94.7475 146.5829,-89.5399"/>
<polygon fill="#191970" stroke="#191970" points="222.8072,-145.7551 232.9339,-148.8697 226.9597,-140.1198 222.8072,-145.7551"/>
</g>
<!-- Node49 -->
<g id="node9" class="node">
<title>Node49</title>
<g id="a_node9"><a xlink:href="../../d5/d76/class_matching.html" target="_top" xlink:title="Matching\&lt; GeneralTHDMMatching,\l GeneralTHDM \&gt;">
<polygon fill="none" stroke="#ff0000" points="61.5,-144.5 61.5,-170.5 203.5,-170.5 203.5,-144.5 61.5,-144.5"/>
<text text-anchor="start" x="69.5" y="-160.1" font-family="Helvetica,sans-Serif" font-size="8.00" fill="#000000">Matching&lt; GeneralTHDMMatching,</text>
<text text-anchor="middle" x="132.5" y="-151.1" font-family="Helvetica,sans-Serif" font-size="8.00" fill="#000000"> GeneralTHDM &gt;</text>
</a>
</g>
</g>
<!-- Node49&#45;&gt;Node47 -->
<g id="edge12" class="edge">
<title>Node49&#45;&gt;Node47</title>
<path fill="none" stroke="#9a32cd" stroke-dasharray="5,2" d="M132.5,-134.0882C132.5,-119.1453 132.5,-100.6269 132.5,-89.8783"/>
<polygon fill="#9a32cd" stroke="#9a32cd" points="129.0001,-134.1747 132.5,-144.1747 136.0001,-134.1748 129.0001,-134.1747"/>
<text text-anchor="middle" x="152" y="-115.1" font-family="Helvetica,sans-Serif" font-size="8.00" fill="#000000"> GTHDMM</text>
</g>
<!-- Node51&#45;&gt;Node47 -->
<g id="edge13" class="edge">
<title>Node51&#45;&gt;Node47</title>
<path fill="none" stroke="#9a32cd" stroke-dasharray="5,2" d="M181.1615,-32.2558C181.3051,-39.495 180.3127,-47.5649 176.5,-54 171.6574,-62.1733 163.2814,-68.2072 155.1283,-72.4721"/>
<polygon fill="#9a32cd" stroke="#9a32cd" points="184.6426,-31.8855 180.2894,-22.2263 177.6689,-32.4919 184.6426,-31.8855"/>
<text text-anchor="middle" x="212.5" y="-47.6" font-family="Helvetica,sans-Serif" font-size="8.00" fill="#000000"> myGTHDMcache</text>
</g>
</g>
</svg>
