<?xml version="1.0" encoding="UTF-8" standalone="no"?>
<!DOCTYPE svg PUBLIC "-//W3C//DTD SVG 1.1//EN"
 "http://www.w3.org/Graphics/SVG/1.1/DTD/svg11.dtd">
<!-- Generated by graphviz version 2.40.1 (20161225.0304)
 -->
<!-- Title: CPenguinBox.cpp Pages: 1 -->
<svg width="503pt" height="134pt"
 viewBox="0.00 0.00 503.00 134.00" xmlns="http://www.w3.org/2000/svg" xmlns:xlink="http://www.w3.org/1999/xlink">
<g id="graph0" class="graph" transform="scale(1 1) rotate(0) translate(4 130)">
<title>CPenguinBox.cpp</title>
<!-- Node0 -->
<g id="node1" class="node">
<title>Node0</title>
<polygon fill="#bfbfbf" stroke="#000000" points="267,-108.5 267,-125.5 348,-125.5 348,-108.5 267,-108.5"/>
<text text-anchor="middle" x="307.5" y="-115.1" font-family="Helvetica,sans-Serif" font-size="8.00" fill="#000000">CPenguinBox.cpp</text>
</g>
<!-- Node1 -->
<g id="node2" class="node">
<title>Node1</title>
<g id="a_node2"><a xlink:href="../../d0/d83/_c_penguin_box_8h.html" target="_top" xlink:title="CPenguinBox.h">
<polygon fill="none" stroke="#000000" points="178.5,-54.5 178.5,-71.5 250.5,-71.5 250.5,-54.5 178.5,-54.5"/>
<text text-anchor="middle" x="214.5" y="-61.1" font-family="Helvetica,sans-Serif" font-size="8.00" fill="#000000">CPenguinBox.h</text>
</a>
</g>
</g>
<!-- Node0&#45;&gt;Node1 -->
<g id="edge1" class="edge">
<title>Node0&#45;&gt;Node1</title>
<path fill="none" stroke="#191970" d="M292.5579,-108.324C277.9148,-99.8215 255.3663,-86.7288 238.2623,-76.7975"/>
<polygon fill="#191970" stroke="#191970" points="239.8104,-73.6491 229.405,-71.6545 236.2954,-79.7027 239.8104,-73.6491"/>
</g>
<!-- Node23 -->
<g id="node9" class="node">
<title>Node23</title>
<g id="a_node9"><a xlink:href="../../d6/d0a/_standard_model_8h.html" target="_top" xlink:title="StandardModel.h">
<polygon fill="none" stroke="#ff0000" points="269,-54.5 269,-71.5 346,-71.5 346,-54.5 269,-54.5"/>
<text text-anchor="middle" x="307.5" y="-61.1" font-family="Helvetica,sans-Serif" font-size="8.00" fill="#000000">StandardModel.h</text>
</a>
</g>
</g>
<!-- Node0&#45;&gt;Node23 -->
<g id="edge8" class="edge">
<title>Node0&#45;&gt;Node23</title>
<path fill="none" stroke="#191970" d="M307.5,-108.083C307.5,-101.0059 307.5,-90.8611 307.5,-81.9865"/>
<polygon fill="#191970" stroke="#191970" points="311.0001,-81.751 307.5,-71.7511 304.0001,-81.7511 311.0001,-81.751"/>
</g>
<!-- Node53 -->
<g id="node10" class="node">
<title>Node53</title>
<g id="a_node10"><a xlink:href="../../da/de2/std__make__vector_8h.html" target="_top" xlink:title="std_make_vector.h">
<polygon fill="none" stroke="#ff0000" points="364.5,-54.5 364.5,-71.5 448.5,-71.5 448.5,-54.5 364.5,-54.5"/>
<text text-anchor="middle" x="406.5" y="-61.1" font-family="Helvetica,sans-Serif" font-size="8.00" fill="#000000">std_make_vector.h</text>
</a>
</g>
</g>
<!-- Node0&#45;&gt;Node53 -->
<g id="edge9" class="edge">
<title>Node0&#45;&gt;Node53</title>
<path fill="none" stroke="#191970" d="M323.4061,-108.324C339.1382,-99.7428 363.4423,-86.486 381.7089,-76.5224"/>
<polygon fill="#191970" stroke="#191970" points="383.5304,-79.5157 390.6334,-71.6545 380.1784,-73.3704 383.5304,-79.5157"/>
</g>
<!-- Node2 -->
<g id="node3" class="node">
<title>Node2</title>
<g id="a_node3"><a xlink:href="../../d4/d36/_order_scheme_8h.html" target="_top" xlink:title="OrderScheme.h">
<polygon fill="none" stroke="#000000" points="0,-.5 0,-17.5 73,-17.5 73,-.5 0,-.5"/>
<text text-anchor="middle" x="36.5" y="-7.1" font-family="Helvetica,sans-Serif" font-size="8.00" fill="#000000">OrderScheme.h</text>
</a>
</g>
</g>
<!-- Node1&#45;&gt;Node2 -->
<g id="edge2" class="edge">
<title>Node1&#45;&gt;Node2</title>
<path fill="none" stroke="#191970" d="M186.2954,-54.4435C156.09,-45.2801 107.9886,-30.6876 74.4707,-20.5192"/>
<polygon fill="#191970" stroke="#191970" points="75.1581,-17.0703 64.5727,-17.5164 73.1259,-23.7688 75.1581,-17.0703"/>
</g>
<!-- Node3 -->
<g id="node4" class="node">
<title>Node3</title>
<g id="a_node4"><a xlink:href="../../d9/d72/gslpp_8h.html" target="_top" xlink:title="gslpp.h">
<polygon fill="none" stroke="#ff0000" points="91.5,-.5 91.5,-17.5 133.5,-17.5 133.5,-.5 91.5,-.5"/>
<text text-anchor="middle" x="112.5" y="-7.1" font-family="Helvetica,sans-Serif" font-size="8.00" fill="#000000">gslpp.h</text>
</a>
</g>
</g>
<!-- Node1&#45;&gt;Node3 -->
<g id="edge3" class="edge">
<title>Node1&#45;&gt;Node3</title>
<path fill="none" stroke="#191970" d="M198.1119,-54.324C181.8287,-45.7034 156.6325,-32.3643 137.7837,-22.3855"/>
<polygon fill="#191970" stroke="#191970" points="139.3229,-19.2402 128.8474,-17.6545 136.0477,-25.4267 139.3229,-19.2402"/>
</g>
<!-- Node19 -->
<g id="node5" class="node">
<title>Node19</title>
<polygon fill="none" stroke="#bfbfbf" points="152,-.5 152,-17.5 197,-17.5 197,-.5 152,-.5"/>
<text text-anchor="middle" x="174.5" y="-7.1" font-family="Helvetica,sans-Serif" font-size="8.00" fill="#000000">sstream</text>
</g>
<!-- Node1&#45;&gt;Node19 -->
<g id="edge4" class="edge">
<title>Node1&#45;&gt;Node19</title>
<path fill="none" stroke="#191970" d="M207.8948,-54.083C202.2448,-46.4554 193.9552,-35.2645 187.0488,-25.9408"/>
<polygon fill="#191970" stroke="#191970" points="189.7471,-23.7034 180.9823,-17.7511 184.1221,-27.87 189.7471,-23.7034"/>
</g>
<!-- Node20 -->
<g id="node6" class="node">
<title>Node20</title>
<polygon fill="none" stroke="#bfbfbf" points="215.5,-.5 215.5,-17.5 293.5,-17.5 293.5,-.5 215.5,-.5"/>
<text text-anchor="middle" x="254.5" y="-7.1" font-family="Helvetica,sans-Serif" font-size="8.00" fill="#000000">gsl/gsl_sf_dilog.h</text>
</g>
<!-- Node1&#45;&gt;Node20 -->
<g id="edge5" class="edge">
<title>Node1&#45;&gt;Node20</title>
<path fill="none" stroke="#191970" d="M221.1052,-54.083C226.7552,-46.4554 235.0448,-35.2645 241.9512,-25.9408"/>
<polygon fill="#191970" stroke="#191970" points="244.8779,-27.87 248.0177,-17.7511 239.2529,-23.7034 244.8779,-27.87"/>
</g>
<!-- Node21 -->
<g id="node7" class="node">
<title>Node21</title>
<polygon fill="none" stroke="#bfbfbf" points="311.5,-.5 311.5,-17.5 387.5,-17.5 387.5,-.5 311.5,-.5"/>
<text text-anchor="middle" x="349.5" y="-7.1" font-family="Helvetica,sans-Serif" font-size="8.00" fill="#000000">gsl/gsl_sf_zeta.h</text>
</g>
<!-- Node1&#45;&gt;Node21 -->
<g id="edge6" class="edge">
<title>Node1&#45;&gt;Node21</title>
<path fill="none" stroke="#191970" d="M235.8912,-54.4435C258.2073,-45.5171 293.4032,-31.4387 318.708,-21.3168"/>
<polygon fill="#191970" stroke="#191970" points="320.224,-24.4801 328.2089,-17.5164 317.6243,-17.9807 320.224,-24.4801"/>
</g>
<!-- Node22 -->
<g id="node8" class="node">
<title>Node22</title>
<polygon fill="none" stroke="#bfbfbf" points="406,-.5 406,-17.5 495,-17.5 495,-.5 406,-.5"/>
<text text-anchor="middle" x="450.5" y="-7.1" font-family="Helvetica,sans-Serif" font-size="8.00" fill="#000000">gsl/gsl_sf_clausen.h</text>
</g>
<!-- Node1&#45;&gt;Node22 -->
<g id="edge7" class="edge">
<title>Node1&#45;&gt;Node22</title>
<path fill="none" stroke="#191970" d="M250.6002,-54.7398C291.535,-45.3733 358.4172,-30.0698 403.4202,-19.7725"/>
<polygon fill="#191970" stroke="#191970" points="404.2674,-23.1692 413.2348,-17.5268 402.706,-16.3455 404.2674,-23.1692"/>
</g>
</g>
</svg>
