<?xml version="1.0" encoding="UTF-8" standalone="no"?>
<!DOCTYPE svg PUBLIC "-//W3C//DTD SVG 1.1//EN"
 "http://www.w3.org/Graphics/SVG/1.1/DTD/svg11.dtd">
<!-- Generated by graphviz version 2.40.1 (20161225.0304)
 -->
<!-- Title: Hobs_gg_H3_hZ_bbll_CMS8 Pages: 1 -->
<svg width="449pt" height="288pt"
 viewBox="0.00 0.00 449.00 288.00" xmlns="http://www.w3.org/2000/svg" xmlns:xlink="http://www.w3.org/1999/xlink">
<g id="graph0" class="graph" transform="scale(1 1) rotate(0) translate(4 284)">
<title>Hobs_gg_H3_hZ_bbll_CMS8</title>
<!-- Node2 -->
<g id="node1" class="node">
<title>Node2</title>
<polygon fill="#bfbfbf" stroke="#000000" points="0,-.5 0,-17.5 121,-17.5 121,-.5 0,-.5"/>
<text text-anchor="middle" x="60.5" y="-7.1" font-family="Helvetica,sans-Serif" font-size="8.00" fill="#000000">Hobs_gg_H3_hZ_bbll_CMS8</text>
</g>
<!-- Node3 -->
<g id="node2" class="node">
<title>Node3</title>
<g id="a_node2"><a xlink:href="../../dc/d1f/class_th_observable.html" target="_top" xlink:title="A class for a model prediction of an observable. ">
<polygon fill="none" stroke="#000000" points="14,-99.5 14,-116.5 81,-116.5 81,-99.5 14,-99.5"/>
<text text-anchor="middle" x="47.5" y="-106.1" font-family="Helvetica,sans-Serif" font-size="8.00" fill="#000000">ThObservable</text>
</a>
</g>
</g>
<!-- Node3&#45;&gt;Node2 -->
<g id="edge1" class="edge">
<title>Node3&#45;&gt;Node2</title>
<path fill="none" stroke="#191970" d="M49.9912,-89.0287C52.8126,-67.5427 57.2872,-33.4668 59.3675,-17.6245"/>
<polygon fill="#191970" stroke="#191970" points="46.4855,-88.8438 48.6537,-99.2144 53.4259,-89.7552 46.4855,-88.8438"/>
</g>
<!-- Node4 -->
<g id="node3" class="node">
<title>Node4</title>
<g id="a_node3"><a xlink:href="../../dc/dd5/class_standard_model.html" target="_top" xlink:title="A model class for the Standard Model. ">
<polygon fill="none" stroke="#ff0000" points="221,-207.5 221,-224.5 292,-224.5 292,-207.5 221,-207.5"/>
<text text-anchor="middle" x="256.5" y="-214.1" font-family="Helvetica,sans-Serif" font-size="8.00" fill="#000000">StandardModel</text>
</a>
</g>
</g>
<!-- Node4&#45;&gt;Node3 -->
<g id="edge2" class="edge">
<title>Node4&#45;&gt;Node3</title>
<path fill="none" stroke="#9a32cd" stroke-dasharray="5,2" d="M210.8247,-208.0106C161.5437,-198.5473 87.3154,-181.5747 66.5,-162 53.6129,-149.881 49.4612,-128.5082 48.1276,-116.6092"/>
<polygon fill="#9a32cd" stroke="#9a32cd" points="210.4588,-211.5032 220.9338,-209.9142 211.7543,-204.6241 210.4588,-211.5032"/>
<text text-anchor="middle" x="133" y="-182.6" font-family="Helvetica,sans-Serif" font-size="8.00" fill="#000000"> SM</text>
</g>
<!-- Node9 -->
<g id="node6" class="node">
<title>Node9</title>
<g id="a_node6"><a xlink:href="../../dc/df3/class_e_w_s_mcache.html" target="_top" xlink:title="A class for cache variables used in computing radiative corrections to the EW precision observables...">
<polygon fill="none" stroke="#ff0000" points="378,-140 378,-157 441,-157 441,-140 378,-140"/>
<text text-anchor="middle" x="409.5" y="-146.6" font-family="Helvetica,sans-Serif" font-size="8.00" fill="#000000">EWSMcache</text>
</a>
</g>
</g>
<!-- Node4&#45;&gt;Node9 -->
<g id="edge6" class="edge">
<title>Node4&#45;&gt;Node9</title>
<path fill="none" stroke="#9a32cd" stroke-dasharray="5,2" d="M285.146,-203.362C315.6807,-189.8909 363.213,-168.9207 389.7965,-157.1927"/>
<polygon fill="#9a32cd" stroke="#9a32cd" points="283.614,-200.2124 275.8776,-207.4511 286.4395,-206.6168 283.614,-200.2124"/>
<text text-anchor="middle" x="345" y="-182.6" font-family="Helvetica,sans-Serif" font-size="8.00" fill="#000000"> SM</text>
</g>
<!-- Node48 -->
<g id="node8" class="node">
<title>Node48</title>
<g id="a_node8"><a xlink:href="../../d2/df3/class_n_pbase.html" target="_top" xlink:title="The auxiliary base model class for other model classes. ">
<polygon fill="none" stroke="#000000" points="197,-140 197,-157 242,-157 242,-140 197,-140"/>
<text text-anchor="middle" x="219.5" y="-146.6" font-family="Helvetica,sans-Serif" font-size="8.00" fill="#000000">NPbase</text>
</a>
</g>
</g>
<!-- Node4&#45;&gt;Node48 -->
<g id="edge10" class="edge">
<title>Node4&#45;&gt;Node48</title>
<path fill="none" stroke="#191970" d="M226.9868,-201.8791C222.3692,-198.3354 218.2289,-194.0645 215.5,-189 210.1376,-179.048 213.0407,-165.7157 215.9721,-157.116"/>
<polygon fill="#191970" stroke="#191970" points="225.3206,-204.9705 235.6124,-207.4867 229.136,-199.1017 225.3206,-204.9705"/>
</g>
<!-- Node4&#45;&gt;Node48 -->
<g id="edge11" class="edge">
<title>Node4&#45;&gt;Node48</title>
<path fill="none" stroke="#9a32cd" stroke-dasharray="5,2" d="M242.3965,-199.3772C239.9217,-196.0561 237.5017,-192.5071 235.5,-189 229.5789,-178.6259 224.8719,-165.6301 222.1359,-157.2004"/>
<polygon fill="#9a32cd" stroke="#9a32cd" points="239.8586,-201.8087 248.8259,-207.4512 245.3345,-197.4481 239.8586,-201.8087"/>
<text text-anchor="middle" x="250" y="-182.6" font-family="Helvetica,sans-Serif" font-size="8.00" fill="#000000"> trueSM</text>
</g>
<!-- Node5 -->
<g id="node4" class="node">
<title>Node5</title>
<g id="a_node4"><a xlink:href="../../dd/dfa/class_q_c_d.html" target="_top" xlink:title="A class for parameters related to QCD, hadrons and quarks. ">
<polygon fill="none" stroke="#ff0000" points="239.5,-262.5 239.5,-279.5 273.5,-279.5 273.5,-262.5 239.5,-262.5"/>
<text text-anchor="middle" x="256.5" y="-269.1" font-family="Helvetica,sans-Serif" font-size="8.00" fill="#000000">QCD</text>
</a>
</g>
</g>
<!-- Node5&#45;&gt;Node4 -->
<g id="edge3" class="edge">
<title>Node5&#45;&gt;Node4</title>
<path fill="none" stroke="#191970" d="M256.5,-252.1166C256.5,-242.8173 256.5,-232.0557 256.5,-224.7149"/>
<polygon fill="#191970" stroke="#191970" points="253.0001,-252.4062 256.5,-262.4063 260.0001,-252.4063 253.0001,-252.4062"/>
</g>
<!-- Node8 -->
<g id="node5" class="node">
<title>Node8</title>
<g id="a_node5"><a xlink:href="../../db/d32/class_e_w_s_m_two_fermions_l_e_p2.html" target="_top" xlink:title="A class for the form factors , &#160;and &#160;in the processes &#160;at LEP&#45;II. ">
<polygon fill="none" stroke="#ff0000" points="265,-63.5 265,-80.5 374,-80.5 374,-63.5 265,-63.5"/>
<text text-anchor="middle" x="319.5" y="-70.1" font-family="Helvetica,sans-Serif" font-size="8.00" fill="#000000">EWSMTwoFermionsLEP2</text>
</a>
</g>
</g>
<!-- Node8&#45;&gt;Node4 -->
<g id="edge4" class="edge">
<title>Node8&#45;&gt;Node4</title>
<path fill="none" stroke="#9a32cd" stroke-dasharray="5,2" d="M310.2739,-89.7744C303.8934,-102.2955 295.3528,-119.5203 288.5,-135 276.9932,-160.9927 265.1292,-192.4925 259.6383,-207.3928"/>
<polygon fill="#9a32cd" stroke="#9a32cd" points="313.3951,-91.3582 314.8544,-80.8644 307.1695,-88.1578 313.3951,-91.3582"/>
<text text-anchor="middle" x="329" y="-146.6" font-family="Helvetica,sans-Serif" font-size="8.00" fill="#000000"> myTwoFermionsLEP2</text>
</g>
<!-- Node9&#45;&gt;Node4 -->
<g id="edge7" class="edge">
<title>Node9&#45;&gt;Node4</title>
<path fill="none" stroke="#9a32cd" stroke-dasharray="5,2" d="M392.701,-164.0638C382.8051,-172.5023 369.6744,-182.5038 356.5,-189 336.3392,-198.9411 312.0248,-205.6114 292.4198,-209.8349"/>
<polygon fill="#9a32cd" stroke="#9a32cd" points="395.3138,-166.4255 400.4846,-157.1781 390.6757,-161.1826 395.3138,-166.4255"/>
<text text-anchor="middle" x="400.5" y="-182.6" font-family="Helvetica,sans-Serif" font-size="8.00" fill="#000000"> myEWSMcache</text>
</g>
<!-- Node9&#45;&gt;Node8 -->
<g id="edge5" class="edge">
<title>Node9&#45;&gt;Node8</title>
<path fill="none" stroke="#9a32cd" stroke-dasharray="5,2" d="M391.4162,-133.1288C372.8726,-117.3667 344.6883,-93.4101 329.7037,-80.6732"/>
<polygon fill="#9a32cd" stroke="#9a32cd" points="389.2897,-135.9148 399.1759,-139.7245 393.8232,-130.5812 389.2897,-135.9148"/>
<text text-anchor="middle" x="381.5" y="-106.1" font-family="Helvetica,sans-Serif" font-size="8.00" fill="#000000"> cache</text>
</g>
<!-- Node47 -->
<g id="node7" class="node">
<title>Node47</title>
<g id="a_node7"><a xlink:href="../../db/d2b/class_georgi_machacek.html" target="_top" xlink:title="A base class for the Georgi&#45;Machacek model. ">
<polygon fill="none" stroke="#000000" points="91,-63.5 91,-80.5 168,-80.5 168,-63.5 91,-63.5"/>
<text text-anchor="middle" x="129.5" y="-70.1" font-family="Helvetica,sans-Serif" font-size="8.00" fill="#000000">GeorgiMachacek</text>
</a>
</g>
</g>
<!-- Node47&#45;&gt;Node2 -->
<g id="edge8" class="edge">
<title>Node47&#45;&gt;Node2</title>
<path fill="none" stroke="#9a32cd" stroke-dasharray="5,2" d="M109.4394,-57.3879C104.434,-53.51 99.1661,-49.2224 94.5,-45 84.8109,-36.2323 74.6413,-25.1848 67.9776,-17.6558"/>
<polygon fill="#9a32cd" stroke="#9a32cd" points="107.3724,-60.2128 117.4628,-63.4433 111.5893,-54.6255 107.3724,-60.2128"/>
<text text-anchor="middle" x="107.5" y="-38.6" font-family="Helvetica,sans-Serif" font-size="8.00" fill="#000000"> myGM</text>
</g>
<!-- Node51 -->
<g id="node10" class="node">
<title>Node51</title>
<g id="a_node10"><a xlink:href="../../d7/db7/class_g_mcache.html" target="_top" xlink:title="A class for the caching of GeorgiMachacek objects. ">
<polygon fill="none" stroke="#ff0000" points="146,-.5 146,-17.5 197,-17.5 197,-.5 146,-.5"/>
<text text-anchor="middle" x="171.5" y="-7.1" font-family="Helvetica,sans-Serif" font-size="8.00" fill="#000000">GMcache</text>
</a>
</g>
</g>
<!-- Node47&#45;&gt;Node51 -->
<g id="edge14" class="edge">
<title>Node47&#45;&gt;Node51</title>
<path fill="none" stroke="#9a32cd" stroke-dasharray="5,2" d="M123.9789,-53.5767C123.2122,-47.6448 123.5258,-41.2529 126.5,-36 131.1685,-27.7546 139.4706,-21.7525 147.6835,-17.5319"/>
<polygon fill="#9a32cd" stroke="#9a32cd" points="120.581,-54.42 126.1844,-63.4117 127.4113,-52.8882 120.581,-54.42"/>
<text text-anchor="middle" x="139.5" y="-38.6" font-family="Helvetica,sans-Serif" font-size="8.00" fill="#000000"> myGM</text>
</g>
<!-- Node48&#45;&gt;Node47 -->
<g id="edge9" class="edge">
<title>Node48&#45;&gt;Node47</title>
<path fill="none" stroke="#191970" d="M201.4162,-133.1288C182.8726,-117.3667 154.6883,-93.4101 139.7037,-80.6732"/>
<polygon fill="#191970" stroke="#191970" points="199.2897,-135.9148 209.1759,-139.7245 203.8232,-130.5812 199.2897,-135.9148"/>
</g>
<!-- Node49 -->
<g id="node9" class="node">
<title>Node49</title>
<g id="a_node9"><a xlink:href="../../d5/d76/class_matching.html" target="_top" xlink:title="Matching\&lt; GMMatching,\l GeorgiMachacek \&gt;">
<polygon fill="none" stroke="#ff0000" points="76,-135.5 76,-161.5 179,-161.5 179,-135.5 76,-135.5"/>
<text text-anchor="start" x="84" y="-151.1" font-family="Helvetica,sans-Serif" font-size="8.00" fill="#000000">Matching&lt; GMMatching,</text>
<text text-anchor="middle" x="127.5" y="-142.1" font-family="Helvetica,sans-Serif" font-size="8.00" fill="#000000"> GeorgiMachacek &gt;</text>
</a>
</g>
</g>
<!-- Node49&#45;&gt;Node47 -->
<g id="edge12" class="edge">
<title>Node49&#45;&gt;Node47</title>
<path fill="none" stroke="#9a32cd" stroke-dasharray="5,2" d="M128.1121,-125.0882C128.5027,-110.1453 128.9869,-91.6269 129.2679,-80.8783"/>
<polygon fill="#9a32cd" stroke="#9a32cd" points="124.611,-125.0866 127.8484,-135.1747 131.6086,-125.2696 124.611,-125.0866"/>
<text text-anchor="middle" x="140.5" y="-106.1" font-family="Helvetica,sans-Serif" font-size="8.00" fill="#000000"> GMM</text>
</g>
<!-- Node51&#45;&gt;Node47 -->
<g id="edge13" class="edge">
<title>Node51&#45;&gt;Node47</title>
<path fill="none" stroke="#9a32cd" stroke-dasharray="5,2" d="M165.4108,-27.4651C163.0676,-33.32 160.0792,-39.6555 156.5,-45 151.926,-51.83 145.4483,-58.3782 139.9844,-63.315"/>
<polygon fill="#9a32cd" stroke="#9a32cd" points="168.81,-28.3572 168.92,-17.763 162.2273,-25.9763 168.81,-28.3572"/>
<text text-anchor="middle" x="185.5" y="-38.6" font-family="Helvetica,sans-Serif" font-size="8.00" fill="#000000"> myGMcache</text>
</g>
</g>
</svg>
