<?xml version="1.0" encoding="UTF-8" standalone="no"?>
<!DOCTYPE svg PUBLIC "-//W3C//DTD SVG 1.1//EN"
 "http://www.w3.org/Graphics/SVG/1.1/DTD/svg11.dtd">
<!-- Generated by graphviz version 2.40.1 (20161225.0304)
 -->
<!-- Title: gslpp_matrix_complex.cpp Pages: 1 -->
<svg width="579pt" height="197pt"
 viewBox="0.00 0.00 578.50 197.00" xmlns="http://www.w3.org/2000/svg" xmlns:xlink="http://www.w3.org/1999/xlink">
<g id="graph0" class="graph" transform="scale(1 1) rotate(0) translate(4 193)">
<title>gslpp_matrix_complex.cpp</title>
<!-- Node0 -->
<g id="node1" class="node">
<title>Node0</title>
<polygon fill="#bfbfbf" stroke="#000000" points="121,-171.5 121,-188.5 232,-188.5 232,-171.5 121,-171.5"/>
<text text-anchor="middle" x="176.5" y="-178.1" font-family="Helvetica,sans-Serif" font-size="8.00" fill="#000000">gslpp_matrix_complex.cpp</text>
</g>
<!-- Node1 -->
<g id="node2" class="node">
<title>Node1</title>
<polygon fill="none" stroke="#bfbfbf" points="0,-117.5 0,-134.5 41,-134.5 41,-117.5 0,-117.5"/>
<text text-anchor="middle" x="20.5" y="-124.1" font-family="Helvetica,sans-Serif" font-size="8.00" fill="#000000">math.h</text>
</g>
<!-- Node0&#45;&gt;Node1 -->
<g id="edge1" class="edge">
<title>Node0&#45;&gt;Node1</title>
<path fill="none" stroke="#191970" d="M151.7813,-171.4435C124.4219,-161.973 80.3092,-146.7032 50.8679,-136.512"/>
<polygon fill="#191970" stroke="#191970" points="51.7123,-133.1005 41.1175,-133.1368 49.4224,-139.7154 51.7123,-133.1005"/>
</g>
<!-- Node2 -->
<g id="node3" class="node">
<title>Node2</title>
<polygon fill="none" stroke="#bfbfbf" points="59,-117.5 59,-134.5 124,-134.5 124,-117.5 59,-117.5"/>
<text text-anchor="middle" x="91.5" y="-124.1" font-family="Helvetica,sans-Serif" font-size="8.00" fill="#000000">gsl/gsl_blas.h</text>
</g>
<!-- Node0&#45;&gt;Node2 -->
<g id="edge2" class="edge">
<title>Node0&#45;&gt;Node2</title>
<path fill="none" stroke="#191970" d="M162.8433,-171.324C149.5837,-162.9002 129.232,-149.9709 113.6538,-140.0741"/>
<polygon fill="#191970" stroke="#191970" points="115.4404,-137.0626 105.1228,-134.6545 111.6867,-142.9711 115.4404,-137.0626"/>
</g>
<!-- Node3 -->
<g id="node4" class="node">
<title>Node3</title>
<polygon fill="none" stroke="#bfbfbf" points="142,-117.5 142,-134.5 211,-134.5 211,-117.5 142,-117.5"/>
<text text-anchor="middle" x="176.5" y="-124.1" font-family="Helvetica,sans-Serif" font-size="8.00" fill="#000000">gsl/gsl_linalg.h</text>
</g>
<!-- Node0&#45;&gt;Node3 -->
<g id="edge3" class="edge">
<title>Node0&#45;&gt;Node3</title>
<path fill="none" stroke="#191970" d="M176.5,-171.083C176.5,-164.0059 176.5,-153.8611 176.5,-144.9865"/>
<polygon fill="#191970" stroke="#191970" points="180.0001,-144.751 176.5,-134.7511 173.0001,-144.7511 180.0001,-144.751"/>
</g>
<!-- Node4 -->
<g id="node5" class="node">
<title>Node4</title>
<polygon fill="none" stroke="#bfbfbf" points="229.5,-117.5 229.5,-134.5 299.5,-134.5 299.5,-117.5 229.5,-117.5"/>
<text text-anchor="middle" x="264.5" y="-124.1" font-family="Helvetica,sans-Serif" font-size="8.00" fill="#000000">gsl/gsl_eigen.h</text>
</g>
<!-- Node0&#45;&gt;Node4 -->
<g id="edge4" class="edge">
<title>Node0&#45;&gt;Node4</title>
<path fill="none" stroke="#191970" d="M190.6387,-171.324C204.3663,-162.9002 225.4363,-149.9709 241.5643,-140.0741"/>
<polygon fill="#191970" stroke="#191970" points="243.7037,-142.8678 250.3964,-134.6545 240.0426,-136.9016 243.7037,-142.8678"/>
</g>
<!-- Node5 -->
<g id="node6" class="node">
<title>Node5</title>
<g id="a_node6"><a xlink:href="../../d9/d25/gslpp__matrix__complex_8h.html" target="_top" xlink:title="gslpp_matrix_complex.h">
<polygon fill="none" stroke="#ff0000" points="318,-117.5 318,-134.5 421,-134.5 421,-117.5 318,-117.5"/>
<text text-anchor="middle" x="369.5" y="-124.1" font-family="Helvetica,sans-Serif" font-size="8.00" fill="#000000">gslpp_matrix_complex.h</text>
</a>
</g>
</g>
<!-- Node0&#45;&gt;Node5 -->
<g id="edge5" class="edge">
<title>Node0&#45;&gt;Node5</title>
<path fill="none" stroke="#191970" d="M207.0814,-171.4435C240.1145,-162.2011 292.8877,-147.4356 329.2659,-137.2572"/>
<polygon fill="#191970" stroke="#191970" points="330.3746,-140.5815 339.0617,-134.5164 328.4884,-133.8404 330.3746,-140.5815"/>
</g>
<!-- Node6 -->
<g id="node7" class="node">
<title>Node6</title>
<polygon fill="none" stroke="#bfbfbf" points="307,-.5 307,-17.5 354,-17.5 354,-.5 307,-.5"/>
<text text-anchor="middle" x="330.5" y="-7.1" font-family="Helvetica,sans-Serif" font-size="8.00" fill="#000000">iostream</text>
</g>
<!-- Node5&#45;&gt;Node6 -->
<g id="edge6" class="edge">
<title>Node5&#45;&gt;Node6</title>
<path fill="none" stroke="#191970" d="M317.8613,-118.4144C295.3846,-112.2667 271.1123,-101.1392 257.5,-81 250.7801,-71.058 251.6504,-64.4777 257.5,-54 266.0729,-38.6445 282.277,-27.8787 297.2445,-20.7364"/>
<polygon fill="#191970" stroke="#191970" points="299.0489,-23.7675 306.8091,-16.5543 296.2445,-17.3538 299.0489,-23.7675"/>
</g>
<!-- Node7 -->
<g id="node8" class="node">
<title>Node7</title>
<polygon fill="none" stroke="#bfbfbf" points="266.5,-54.5 266.5,-80.5 366.5,-80.5 366.5,-54.5 266.5,-54.5"/>
<text text-anchor="start" x="274.5" y="-70.1" font-family="Helvetica,sans-Serif" font-size="8.00" fill="#000000">gsl/gsl_matrix_complex</text>
<text text-anchor="middle" x="316.5" y="-61.1" font-family="Helvetica,sans-Serif" font-size="8.00" fill="#000000">_double.h</text>
</g>
<!-- Node5&#45;&gt;Node7 -->
<g id="edge7" class="edge">
<title>Node5&#45;&gt;Node7</title>
<path fill="none" stroke="#191970" d="M361.6797,-117.3681C354.7726,-109.7442 344.4207,-98.3181 335.3679,-88.3259"/>
<polygon fill="#191970" stroke="#191970" points="337.7848,-85.7807 328.4769,-80.7197 332.5972,-90.4806 337.7848,-85.7807"/>
</g>
<!-- Node8 -->
<g id="node9" class="node">
<title>Node8</title>
<g id="a_node9"><a xlink:href="../../d1/dc2/gslpp__complex_8h.html" target="_top" xlink:title="gslpp_complex.h">
<polygon fill="none" stroke="#ff0000" points="385,-59 385,-76 462,-76 462,-59 385,-59"/>
<text text-anchor="middle" x="423.5" y="-65.6" font-family="Helvetica,sans-Serif" font-size="8.00" fill="#000000">gslpp_complex.h</text>
</a>
</g>
</g>
<!-- Node5&#45;&gt;Node8 -->
<g id="edge8" class="edge">
<title>Node5&#45;&gt;Node8</title>
<path fill="none" stroke="#191970" d="M377.4679,-117.3681C385.6037,-108.5544 398.4303,-94.6589 408.4796,-83.7721"/>
<polygon fill="#191970" stroke="#191970" points="411.2884,-85.8893 415.4994,-76.1673 406.1448,-81.1414 411.2884,-85.8893"/>
</g>
<!-- Node11 -->
<g id="node10" class="node">
<title>Node11</title>
<g id="a_node10"><a xlink:href="../../d3/d9f/gslpp__vector__base_8h.html" target="_top" xlink:title="gslpp_vector_base.h">
<polygon fill="none" stroke="#000000" points="480.5,-59 480.5,-76 570.5,-76 570.5,-59 480.5,-59"/>
<text text-anchor="middle" x="525.5" y="-65.6" font-family="Helvetica,sans-Serif" font-size="8.00" fill="#000000">gslpp_vector_base.h</text>
</a>
</g>
</g>
<!-- Node5&#45;&gt;Node11 -->
<g id="edge10" class="edge">
<title>Node5&#45;&gt;Node11</title>
<path fill="none" stroke="#191970" d="M392.1837,-117.4936C418.7564,-107.5289 462.9759,-90.9465 493.1429,-79.6339"/>
<polygon fill="#191970" stroke="#191970" points="494.6545,-82.8051 502.7889,-76.0167 492.1966,-76.2508 494.6545,-82.8051"/>
</g>
<!-- Node8&#45;&gt;Node6 -->
<g id="edge9" class="edge">
<title>Node8&#45;&gt;Node6</title>
<path fill="none" stroke="#191970" d="M409.7775,-58.8681C394.8044,-49.4495 370.6056,-34.2277 352.8769,-23.0758"/>
<polygon fill="#191970" stroke="#191970" points="354.607,-20.0292 344.2788,-17.6673 350.8798,-25.9545 354.607,-20.0292"/>
</g>
</g>
</svg>
