<?xml version="1.0" encoding="UTF-8" standalone="no"?>
<!DOCTYPE svg PUBLIC "-//W3C//DTD SVG 1.1//EN"
 "http://www.w3.org/Graphics/SVG/1.1/DTD/svg11.dtd">
<!-- Generated by graphviz version 2.40.1 (20161225.0304)
 -->
<!-- Title: mHmedium_GTHDM Pages: 1 -->
<svg width="643pt" height="144pt"
 viewBox="0.00 0.00 643.00 144.00" xmlns="http://www.w3.org/2000/svg" xmlns:xlink="http://www.w3.org/1999/xlink">
<g id="graph0" class="graph" transform="scale(1 1) rotate(0) translate(4 140)">
<title>mHmedium_GTHDM</title>
<!-- Node2 -->
<g id="node1" class="node">
<title>Node2</title>
<polygon fill="#bfbfbf" stroke="#000000" points="535,-116.5 535,-133.5 626,-133.5 626,-116.5 535,-116.5"/>
<text text-anchor="middle" x="580.5" y="-123.1" font-family="Helvetica,sans-Serif" font-size="8.00" fill="#000000">mHmedium_GTHDM</text>
</g>
<!-- Node3 -->
<g id="node2" class="node">
<title>Node3</title>
<g id="a_node2"><a xlink:href="../../dc/d1f/class_th_observable.html" target="_top" xlink:title="A class for a model prediction of an observable. ">
<polygon fill="none" stroke="#000000" points="392,-116.5 392,-133.5 459,-133.5 459,-116.5 392,-116.5"/>
<text text-anchor="middle" x="425.5" y="-123.1" font-family="Helvetica,sans-Serif" font-size="8.00" fill="#000000">ThObservable</text>
</a>
</g>
</g>
<!-- Node3&#45;&gt;Node2 -->
<g id="edge1" class="edge">
<title>Node3&#45;&gt;Node2</title>
<path fill="none" stroke="#191970" d="M469.1562,-125C489.6702,-125 514.121,-125 534.8773,-125"/>
<polygon fill="#191970" stroke="#191970" points="469.1327,-121.5001 459.1327,-125 469.1327,-128.5001 469.1327,-121.5001"/>
</g>
<!-- Node4 -->
<g id="node3" class="node">
<title>Node4</title>
<g id="a_node3"><a xlink:href="../../dc/dd5/class_standard_model.html" target="_top" xlink:title="A model class for the Standard Model. ">
<polygon fill="none" stroke="#ff0000" points="218,-56.5 218,-73.5 289,-73.5 289,-56.5 218,-56.5"/>
<text text-anchor="middle" x="253.5" y="-63.1" font-family="Helvetica,sans-Serif" font-size="8.00" fill="#000000">StandardModel</text>
</a>
</g>
</g>
<!-- Node4&#45;&gt;Node3 -->
<g id="edge2" class="edge">
<title>Node4&#45;&gt;Node3</title>
<path fill="none" stroke="#9a32cd" stroke-dasharray="5,2" d="M271.269,-80.0805C281.19,-87.7527 294.1192,-96.5786 307,-102 334.3317,-113.5036 367.6526,-119.3172 391.9916,-122.2164"/>
<polygon fill="#9a32cd" stroke="#9a32cd" points="273.387,-77.2923 263.4019,-73.7499 268.9985,-82.7459 273.387,-77.2923"/>
<text text-anchor="middle" x="337" y="-120.6" font-family="Helvetica,sans-Serif" font-size="8.00" fill="#000000"> SM</text>
</g>
<!-- Node9 -->
<g id="node6" class="node">
<title>Node9</title>
<g id="a_node6"><a xlink:href="../../dc/df3/class_e_w_s_mcache.html" target="_top" xlink:title="A class for cache variables used in computing radiative corrections to the EW precision observables...">
<polygon fill="none" stroke="#ff0000" points="394,-31.5 394,-48.5 457,-48.5 457,-31.5 394,-31.5"/>
<text text-anchor="middle" x="425.5" y="-38.1" font-family="Helvetica,sans-Serif" font-size="8.00" fill="#000000">EWSMcache</text>
</a>
</g>
</g>
<!-- Node4&#45;&gt;Node9 -->
<g id="edge6" class="edge">
<title>Node4&#45;&gt;Node9</title>
<path fill="none" stroke="#9a32cd" stroke-dasharray="5,2" d="M299.3285,-58.3389C329.2144,-53.995 367.4482,-48.4378 393.9557,-44.5849"/>
<polygon fill="#9a32cd" stroke="#9a32cd" points="298.5311,-54.9179 289.1385,-59.82 299.538,-61.8451 298.5311,-54.9179"/>
<text text-anchor="middle" x="337" y="-58.6" font-family="Helvetica,sans-Serif" font-size="8.00" fill="#000000"> SM</text>
</g>
<!-- Node5 -->
<g id="node4" class="node">
<title>Node5</title>
<g id="a_node4"><a xlink:href="../../dd/dfa/class_q_c_d.html" target="_top" xlink:title="A class for parameters related to QCD, hadrons and quarks. ">
<polygon fill="none" stroke="#ff0000" points="55.5,-118.5 55.5,-135.5 89.5,-135.5 89.5,-118.5 55.5,-118.5"/>
<text text-anchor="middle" x="72.5" y="-125.1" font-family="Helvetica,sans-Serif" font-size="8.00" fill="#000000">QCD</text>
</a>
</g>
</g>
<!-- Node5&#45;&gt;Node4 -->
<g id="edge3" class="edge">
<title>Node5&#45;&gt;Node4</title>
<path fill="none" stroke="#191970" d="M99.4593,-121.1284C113.2006,-117.9287 130.1105,-113.6719 145,-109 169.9655,-101.1665 175.7534,-97.8359 200,-88 211.2424,-83.4394 223.7004,-78.1007 233.7641,-73.7154"/>
<polygon fill="#191970" stroke="#191970" points="98.6293,-117.7277 89.6547,-123.3586 100.1819,-124.5534 98.6293,-117.7277"/>
</g>
<!-- Node8 -->
<g id="node5" class="node">
<title>Node8</title>
<g id="a_node5"><a xlink:href="../../db/d32/class_e_w_s_m_two_fermions_l_e_p2.html" target="_top" xlink:title="A class for the form factors , &#160;and &#160;in the processes &#160;at LEP&#45;II. ">
<polygon fill="none" stroke="#ff0000" points="526,-15.5 526,-32.5 635,-32.5 635,-15.5 526,-15.5"/>
<text text-anchor="middle" x="580.5" y="-22.1" font-family="Helvetica,sans-Serif" font-size="8.00" fill="#000000">EWSMTwoFermionsLEP2</text>
</a>
</g>
</g>
<!-- Node8&#45;&gt;Node4 -->
<g id="edge4" class="edge">
<title>Node8&#45;&gt;Node4</title>
<path fill="none" stroke="#9a32cd" stroke-dasharray="5,2" d="M530.9273,-13.7188C474.3386,-4.3832 380.1585,3.7237 307,-27 289.9835,-34.1463 273.0793,-47.4652 262.9596,-56.2828"/>
<polygon fill="#9a32cd" stroke="#9a32cd" points="530.5926,-17.2127 541.0427,-15.4671 531.7849,-10.315 530.5926,-17.2127"/>
<text text-anchor="middle" x="425.5" y="-10.6" font-family="Helvetica,sans-Serif" font-size="8.00" fill="#000000"> myTwoFermionsLEP2</text>
</g>
<!-- Node9&#45;&gt;Node4 -->
<g id="edge7" class="edge">
<title>Node9&#45;&gt;Node4</title>
<path fill="none" stroke="#9a32cd" stroke-dasharray="5,2" d="M383.6616,-32.2931C360.6819,-29.5318 331.8784,-28.5008 307,-35 291.1333,-39.145 274.9958,-49.1594 264.6551,-56.4815"/>
<polygon fill="#9a32cd" stroke="#9a32cd" points="383.3958,-35.789 393.775,-33.6628 384.3352,-28.8523 383.3958,-35.789"/>
<text text-anchor="middle" x="337" y="-37.6" font-family="Helvetica,sans-Serif" font-size="8.00" fill="#000000"> myEWSMcache</text>
</g>
<!-- Node9&#45;&gt;Node8 -->
<g id="edge5" class="edge">
<title>Node9&#45;&gt;Node8</title>
<path fill="none" stroke="#9a32cd" stroke-dasharray="5,2" d="M467.4202,-35.6727C485.4198,-33.8147 506.6897,-31.6191 525.8979,-29.6363"/>
<polygon fill="#9a32cd" stroke="#9a32cd" points="466.8283,-32.2152 457.2406,-36.7236 467.5471,-39.1782 466.8283,-32.2152"/>
<text text-anchor="middle" x="496" y="-36.6" font-family="Helvetica,sans-Serif" font-size="8.00" fill="#000000"> cache</text>
</g>
<!-- Node35 -->
<g id="node10" class="node">
<title>Node35</title>
<g id="a_node10"><a xlink:href="../../d5/dad/class_e_w_s_m_three_loop_e_w.html" target="_top" xlink:title="A class for &#160;three&#45;loop corrections to the EW precision observables. ">
<polygon fill="none" stroke="#000000" points="534,-65.5 534,-82.5 627,-82.5 627,-65.5 534,-65.5"/>
<text text-anchor="middle" x="580.5" y="-72.1" font-family="Helvetica,sans-Serif" font-size="8.00" fill="#000000">EWSMThreeLoopEW</text>
</a>
</g>
</g>
<!-- Node9&#45;&gt;Node35 -->
<g id="edge12" class="edge">
<title>Node9&#45;&gt;Node35</title>
<path fill="none" stroke="#9a32cd" stroke-dasharray="5,2" d="M467.1286,-49.1314C490.2972,-54.2136 518.9536,-60.4995 541.6588,-65.48"/>
<polygon fill="#9a32cd" stroke="#9a32cd" points="467.7583,-45.6864 457.2406,-46.9625 466.2584,-52.5239 467.7583,-45.6864"/>
<text text-anchor="middle" x="496" y="-60.6" font-family="Helvetica,sans-Serif" font-size="8.00" fill="#000000"> cache</text>
</g>
<!-- Node15 -->
<g id="node7" class="node">
<title>Node15</title>
<g id="a_node7"><a xlink:href="../../d5/d76/class_matching.html" target="_top" xlink:title="Matching\&lt; StandardModelMatching,\l StandardModel \&gt;">
<polygon fill="none" stroke="#ff0000" points="0,-73 0,-99 145,-99 145,-73 0,-73"/>
<text text-anchor="start" x="8" y="-88.6" font-family="Helvetica,sans-Serif" font-size="8.00" fill="#000000">Matching&lt; StandardModelMatching,</text>
<text text-anchor="middle" x="72.5" y="-79.6" font-family="Helvetica,sans-Serif" font-size="8.00" fill="#000000"> StandardModel &gt;</text>
</a>
</g>
</g>
<!-- Node15&#45;&gt;Node4 -->
<g id="edge8" class="edge">
<title>Node15&#45;&gt;Node4</title>
<path fill="none" stroke="#9a32cd" stroke-dasharray="5,2" d="M155.1117,-76.4152C177.0894,-73.8653 199.6922,-71.2429 217.6828,-69.1556"/>
<polygon fill="#9a32cd" stroke="#9a32cd" points="154.6067,-72.9502 145.0767,-77.5795 155.4135,-79.9036 154.6067,-72.9502"/>
<text text-anchor="middle" x="181.5" y="-77.6" font-family="Helvetica,sans-Serif" font-size="8.00" fill="#000000"> SMM</text>
</g>
<!-- Node33 -->
<g id="node8" class="node">
<title>Node33</title>
<g id="a_node8"><a xlink:href="../../d9/db9/class_c_k_m.html" target="_top" xlink:title="A class for the CKM matrix elements. ">
<polygon fill="none" stroke="#ff0000" points="55.5,-36.5 55.5,-53.5 89.5,-53.5 89.5,-36.5 55.5,-36.5"/>
<text text-anchor="middle" x="72.5" y="-43.1" font-family="Helvetica,sans-Serif" font-size="8.00" fill="#000000">CKM</text>
</a>
</g>
</g>
<!-- Node33&#45;&gt;Node4 -->
<g id="edge9" class="edge">
<title>Node33&#45;&gt;Node4</title>
<path fill="none" stroke="#9a32cd" stroke-dasharray="5,2" d="M100.0715,-46.313C125.9554,-47.7464 165.7169,-50.4647 200,-55 205.8078,-55.7683 211.9405,-56.751 217.9,-57.7992"/>
<polygon fill="#9a32cd" stroke="#9a32cd" points="100.0549,-42.8073 89.8844,-45.7758 99.6862,-49.7976 100.0549,-42.8073"/>
<text text-anchor="middle" x="181.5" y="-57.6" font-family="Helvetica,sans-Serif" font-size="8.00" fill="#000000"> myCKM</text>
</g>
<!-- Node34 -->
<g id="node9" class="node">
<title>Node34</title>
<g id="a_node9"><a xlink:href="../../d5/d59/class_p_m_n_s.html" target="_top" xlink:title="A class for the PMNS matrix elements. ">
<polygon fill="none" stroke="#ff0000" points="52.5,-.5 52.5,-17.5 92.5,-17.5 92.5,-.5 52.5,-.5"/>
<text text-anchor="middle" x="72.5" y="-7.1" font-family="Helvetica,sans-Serif" font-size="8.00" fill="#000000">PMNS</text>
</a>
</g>
</g>
<!-- Node34&#45;&gt;Node4 -->
<g id="edge10" class="edge">
<title>Node34&#45;&gt;Node4</title>
<path fill="none" stroke="#9a32cd" stroke-dasharray="5,2" d="M102.8856,-13.7591C129.0959,-18.369 167.7109,-26.3775 200,-38 213.7048,-42.9331 228.4203,-50.5455 238.9424,-56.4315"/>
<polygon fill="#9a32cd" stroke="#9a32cd" points="103.2524,-10.2713 92.8074,-12.0467 102.0798,-17.1724 103.2524,-10.2713"/>
<text text-anchor="middle" x="181.5" y="-40.6" font-family="Helvetica,sans-Serif" font-size="8.00" fill="#000000"> myPMNS</text>
</g>
<!-- Node35&#45;&gt;Node4 -->
<g id="edge11" class="edge">
<title>Node35&#45;&gt;Node4</title>
<path fill="none" stroke="#9a32cd" stroke-dasharray="5,2" d="M523.2228,-73.8907C467.8653,-73.5635 381.6498,-72.4702 307,-69 301.2315,-68.7318 295.119,-68.3589 289.1677,-67.9478"/>
<polygon fill="#9a32cd" stroke="#9a32cd" points="523.5119,-77.3922 533.5302,-73.9449 523.5488,-70.3923 523.5119,-77.3922"/>
<text text-anchor="middle" x="425.5" y="-75.6" font-family="Helvetica,sans-Serif" font-size="8.00" fill="#000000"> myThreeLoopEW</text>
</g>
</g>
</svg>
