<?xml version="1.0" encoding="UTF-8" standalone="no"?>
<!DOCTYPE svg PUBLIC "-//W3C//DTD SVG 1.1//EN"
 "http://www.w3.org/Graphics/SVG/1.1/DTD/svg11.dtd">
<!-- Generated by graphviz version 2.38.0 (20140413.2041)
 -->
<!-- Title: StandardModelMatching.h Pages: 1 -->
<svg width="450pt" height="296pt"
 viewBox="0.00 0.00 450.42 296.00" xmlns="http://www.w3.org/2000/svg" xmlns:xlink="http://www.w3.org/1999/xlink">
<g id="graph0" class="graph" transform="scale(1 1) rotate(0) translate(4 292)">
<title>StandardModelMatching.h</title>
<!-- Node1 -->
<g id="node1" class="node"><title>Node1</title>
<polygon fill="#bfbfbf" stroke="black" points="85.5,-270.5 85.5,-287.5 195.5,-287.5 195.5,-270.5 85.5,-270.5"/>
<text text-anchor="middle" x="140.5" y="-277.1" font-family="Helvetica,sans-Serif" font-size="8.00">StandardModelMatching.h</text>
</g>
<!-- Node2 -->
<g id="node2" class="node"><title>Node2</title>
<g id="a_node2"><a xlink:href="../../d6/d46/_model_matching_8h.html" target="_top" xlink:title="ModelMatching.h">
<polygon fill="none" stroke="black" points="39,-216.5 39,-233.5 116,-233.5 116,-216.5 39,-216.5"/>
<text text-anchor="middle" x="77.5" y="-223.1" font-family="Helvetica,sans-Serif" font-size="8.00">ModelMatching.h</text>
</a>
</g>
</g>
<!-- Node1&#45;&gt;Node2 -->
<g id="edge1" class="edge"><title>Node1&#45;&gt;Node2</title>
<path fill="none" stroke="midnightblue" d="M131.204,-270.327C121.619,-262.416 106.454,-249.899 94.6799,-240.18"/>
<polygon fill="midnightblue" stroke="midnightblue" points="96.7742,-237.371 86.834,-233.704 92.3183,-242.769 96.7742,-237.371"/>
</g>
<!-- Node7 -->
<g id="node7" class="node"><title>Node7</title>
<g id="a_node7"><a xlink:href="../../d9/d72/gslpp_8h.html" target="_top" xlink:title="gslpp.h">
<polygon fill="none" stroke="black" points="183.5,-216.5 183.5,-233.5 225.5,-233.5 225.5,-216.5 183.5,-216.5"/>
<text text-anchor="middle" x="204.5" y="-223.1" font-family="Helvetica,sans-Serif" font-size="8.00">gslpp.h</text>
</a>
</g>
</g>
<!-- Node1&#45;&gt;Node7 -->
<g id="edge6" class="edge"><title>Node1&#45;&gt;Node7</title>
<path fill="none" stroke="midnightblue" d="M149.943,-270.327C159.68,-262.416 175.086,-249.899 187.047,-240.18"/>
<polygon fill="midnightblue" stroke="midnightblue" points="189.464,-242.727 195.018,-233.704 185.05,-237.294 189.464,-242.727"/>
</g>
<!-- Node3 -->
<g id="node3" class="node"><title>Node3</title>
<g id="a_node3"><a xlink:href="../../db/dba/_wilson_coefficient_8h.html" target="_top" xlink:title="WilsonCoefficient.h">
<polygon fill="none" stroke="red" points="0,-108.5 0,-125.5 85,-125.5 85,-108.5 0,-108.5"/>
<text text-anchor="middle" x="42.5" y="-115.1" font-family="Helvetica,sans-Serif" font-size="8.00">WilsonCoefficient.h</text>
</a>
</g>
</g>
<!-- Node2&#45;&gt;Node3 -->
<g id="edge2" class="edge"><title>Node2&#45;&gt;Node3</title>
<path fill="none" stroke="midnightblue" d="M71.1669,-216.461C64.5463,-208.121 54.4461,-194.001 49.5,-180 44.4723,-165.768 42.844,-148.66 42.4039,-136.024"/>
<polygon fill="midnightblue" stroke="midnightblue" points="45.9019,-135.84 42.2705,-125.887 38.9025,-135.932 45.9019,-135.84"/>
</g>
<!-- Node6 -->
<g id="node6" class="node"><title>Node6</title>
<polygon fill="none" stroke="#bfbfbf" points="58.5,-162.5 58.5,-179.5 96.5,-179.5 96.5,-162.5 58.5,-162.5"/>
<text text-anchor="middle" x="77.5" y="-169.1" font-family="Helvetica,sans-Serif" font-size="8.00">vector</text>
</g>
<!-- Node2&#45;&gt;Node6 -->
<g id="edge5" class="edge"><title>Node2&#45;&gt;Node6</title>
<path fill="none" stroke="midnightblue" d="M77.5,-216.327C77.5,-209.414 77.5,-198.985 77.5,-189.979"/>
<polygon fill="midnightblue" stroke="midnightblue" points="81.0001,-189.704 77.5,-179.704 74.0001,-189.704 81.0001,-189.704"/>
</g>
<!-- Node4 -->
<g id="node4" class="node"><title>Node4</title>
<g id="a_node4"><a xlink:href="../../da/dad/gslpp__vector__complex_8h.html" target="_top" xlink:title="gslpp_vector_complex.h">
<polygon fill="none" stroke="red" points="111,-54.5 111,-71.5 214,-71.5 214,-54.5 111,-54.5"/>
<text text-anchor="middle" x="162.5" y="-61.1" font-family="Helvetica,sans-Serif" font-size="8.00">gslpp_vector_complex.h</text>
</a>
</g>
</g>
<!-- Node3&#45;&gt;Node4 -->
<g id="edge3" class="edge"><title>Node3&#45;&gt;Node4</title>
<path fill="none" stroke="midnightblue" d="M59.949,-108.439C79.8563,-99.8123 112.639,-85.6064 135.772,-75.5821"/>
<polygon fill="midnightblue" stroke="midnightblue" points="137.246,-78.758 145.03,-71.5704 134.463,-72.3351 137.246,-78.758"/>
</g>
<!-- Node5 -->
<g id="node5" class="node"><title>Node5</title>
<g id="a_node5"><a xlink:href="../../d1/dc2/gslpp__complex_8h.html" target="_top" xlink:title="gslpp_complex.h">
<polygon fill="none" stroke="red" points="264,-0.5 264,-17.5 341,-17.5 341,-0.5 264,-0.5"/>
<text text-anchor="middle" x="302.5" y="-7.1" font-family="Helvetica,sans-Serif" font-size="8.00">gslpp_complex.h</text>
</a>
</g>
</g>
<!-- Node4&#45;&gt;Node5 -->
<g id="edge4" class="edge"><title>Node4&#45;&gt;Node5</title>
<path fill="none" stroke="midnightblue" d="M182.857,-54.4388C206.393,-45.6967 245.356,-31.2249 272.396,-21.1816"/>
<polygon fill="midnightblue" stroke="midnightblue" points="273.963,-24.3333 282.118,-17.5704 271.525,-17.7713 273.963,-24.3333"/>
</g>
<!-- Node7&#45;&gt;Node4 -->
<g id="edge10" class="edge"><title>Node7&#45;&gt;Node4</title>
<path fill="none" stroke="midnightblue" d="M198.817,-216.316C192.839,-207.852 183.604,-193.627 178.5,-180 166.055,-146.776 163.142,-104.943 162.548,-81.6776"/>
<polygon fill="midnightblue" stroke="midnightblue" points="166.047,-81.5583 162.412,-71.6068 159.048,-81.6535 166.047,-81.5583"/>
</g>
<!-- Node7&#45;&gt;Node5 -->
<g id="edge7" class="edge"><title>Node7&#45;&gt;Node5</title>
<path fill="none" stroke="midnightblue" d="M225.896,-220.808C248.672,-216.161 283.694,-205.153 300.5,-180 332.037,-132.8 317.317,-60.5713 308.044,-27.5601"/>
<polygon fill="midnightblue" stroke="midnightblue" points="311.292,-26.2041 305.075,-17.6245 304.584,-28.208 311.292,-26.2041"/>
</g>
<!-- Node8 -->
<g id="node8" class="node"><title>Node8</title>
<g id="a_node8"><a xlink:href="../../da/d8e/gslpp__vector__double_8h.html" target="_top" xlink:title="gslpp_vector_double.h">
<polygon fill="none" stroke="red" points="331,-54.5 331,-71.5 428,-71.5 428,-54.5 331,-54.5"/>
<text text-anchor="middle" x="379.5" y="-61.1" font-family="Helvetica,sans-Serif" font-size="8.00">gslpp_vector_double.h</text>
</a>
</g>
</g>
<!-- Node7&#45;&gt;Node8 -->
<g id="edge8" class="edge"><title>Node7&#45;&gt;Node8</title>
<path fill="none" stroke="midnightblue" d="M225.673,-222.508C254.431,-219.381 305.768,-209.727 336.5,-180 364.212,-153.194 374.203,-106.946 377.699,-81.7009"/>
<polygon fill="midnightblue" stroke="midnightblue" points="381.18,-82.0694 378.889,-71.7252 374.229,-81.2402 381.18,-82.0694"/>
</g>
<!-- Node9 -->
<g id="node9" class="node"><title>Node9</title>
<g id="a_node9"><a xlink:href="../../d0/ddb/gslpp__matrix__double_8h.html" target="_top" xlink:title="gslpp_matrix_double.h">
<polygon fill="none" stroke="red" points="195,-162.5 195,-179.5 292,-179.5 292,-162.5 195,-162.5"/>
<text text-anchor="middle" x="243.5" y="-169.1" font-family="Helvetica,sans-Serif" font-size="8.00">gslpp_matrix_double.h</text>
</a>
</g>
</g>
<!-- Node7&#45;&gt;Node9 -->
<g id="edge11" class="edge"><title>Node7&#45;&gt;Node9</title>
<path fill="none" stroke="midnightblue" d="M210.255,-216.327C215.842,-208.877 224.494,-197.341 231.571,-187.906"/>
<polygon fill="midnightblue" stroke="midnightblue" points="234.522,-189.804 237.722,-179.704 228.922,-185.604 234.522,-189.804"/>
</g>
<!-- Node10 -->
<g id="node10" class="node"><title>Node10</title>
<g id="a_node10"><a xlink:href="../../d9/d25/gslpp__matrix__complex_8h.html" target="_top" xlink:title="gslpp_matrix_complex.h">
<polygon fill="none" stroke="red" points="191,-108.5 191,-125.5 294,-125.5 294,-108.5 191,-108.5"/>
<text text-anchor="middle" x="242.5" y="-115.1" font-family="Helvetica,sans-Serif" font-size="8.00">gslpp_matrix_complex.h</text>
</a>
</g>
</g>
<!-- Node7&#45;&gt;Node10 -->
<g id="edge20" class="edge"><title>Node7&#45;&gt;Node10</title>
<path fill="none" stroke="midnightblue" d="M198.669,-216.458C190.177,-204.487 176.365,-180.592 185.5,-162 192.134,-148.499 205.124,-137.969 217.03,-130.6"/>
<polygon fill="midnightblue" stroke="midnightblue" points="218.858,-133.587 225.8,-125.584 215.382,-127.51 218.858,-133.587"/>
</g>
<!-- Node8&#45;&gt;Node5 -->
<g id="edge9" class="edge"><title>Node8&#45;&gt;Node5</title>
<path fill="none" stroke="midnightblue" d="M368.138,-54.3272C356.013,-46.1388 336.581,-33.0157 322.001,-23.1692"/>
<polygon fill="midnightblue" stroke="midnightblue" points="323.904,-20.2313 313.658,-17.5352 319.986,-26.0324 323.904,-20.2313"/>
</g>
<!-- Node9&#45;&gt;Node4 -->
<g id="edge14" class="edge"><title>Node9&#45;&gt;Node4</title>
<path fill="none" stroke="midnightblue" d="M227.483,-162.459C213.42,-155.054 193.401,-142.478 181.5,-126 172.018,-112.871 167.192,-94.9184 164.785,-81.7099"/>
<polygon fill="midnightblue" stroke="midnightblue" points="168.205,-80.9208 163.235,-71.5641 161.285,-81.978 168.205,-80.9208"/>
</g>
<!-- Node9&#45;&gt;Node5 -->
<g id="edge12" class="edge"><title>Node9&#45;&gt;Node5</title>
<path fill="none" stroke="midnightblue" d="M284.323,-162.46C330.679,-151.476 404.184,-126.155 437.5,-72 459.596,-36.0833 398.398,-20.7546 351.291,-14.3664"/>
<polygon fill="midnightblue" stroke="midnightblue" points="351.545,-10.871 341.187,-13.1001 350.674,-17.8166 351.545,-10.871"/>
</g>
<!-- Node9&#45;&gt;Node8 -->
<g id="edge13" class="edge"><title>Node9&#45;&gt;Node8</title>
<path fill="none" stroke="midnightblue" d="M254.033,-162.327C265.904,-153.637 285.735,-138.994 302.5,-126 323.139,-110.004 346.442,-91.1229 361.953,-78.4356"/>
<polygon fill="midnightblue" stroke="midnightblue" points="364.593,-80.7972 370.107,-71.7499 360.155,-75.3843 364.593,-80.7972"/>
</g>
<!-- Node9&#45;&gt;Node10 -->
<g id="edge15" class="edge"><title>Node9&#45;&gt;Node10</title>
<path fill="none" stroke="midnightblue" d="M238.397,-162.327C236.563,-155.338 235.867,-144.753 236.407,-135.679"/>
<polygon fill="midnightblue" stroke="midnightblue" points="239.886,-136.068 237.685,-125.704 232.943,-135.178 239.886,-136.068"/>
</g>
<!-- Node10&#45;&gt;Node4 -->
<g id="edge18" class="edge"><title>Node10&#45;&gt;Node4</title>
<path fill="none" stroke="midnightblue" d="M230.696,-108.327C218.098,-100.139 197.909,-87.0157 182.76,-77.1692"/>
<polygon fill="midnightblue" stroke="midnightblue" points="184.385,-74.0506 174.093,-71.5352 180.57,-79.9197 184.385,-74.0506"/>
</g>
<!-- Node10&#45;&gt;Node5 -->
<g id="edge16" class="edge"><title>Node10&#45;&gt;Node5</title>
<path fill="none" stroke="midnightblue" d="M246.815,-108.377C256.458,-91.3401 279.943,-49.8507 293.126,-26.5601"/>
<polygon fill="midnightblue" stroke="midnightblue" points="296.344,-27.9809 298.224,-17.5542 290.252,-24.5327 296.344,-27.9809"/>
</g>
<!-- Node10&#45;&gt;Node8 -->
<g id="edge17" class="edge"><title>Node10&#45;&gt;Node8</title>
<path fill="none" stroke="midnightblue" d="M262.421,-108.439C285.453,-99.6967 323.581,-85.2249 350.041,-75.1816"/>
<polygon fill="midnightblue" stroke="midnightblue" points="351.448,-78.3913 359.555,-71.5704 348.964,-71.8468 351.448,-78.3913"/>
</g>
<!-- Node10&#45;&gt;Node9 -->
<g id="edge19" class="edge"><title>Node10&#45;&gt;Node9</title>
<path fill="none" stroke="midnightblue" d="M247.611,-125.704C249.442,-132.705 250.134,-143.293 249.59,-152.362"/>
<polygon fill="midnightblue" stroke="midnightblue" points="246.113,-151.962 248.308,-162.327 253.056,-152.856 246.113,-151.962"/>
</g>
</g>
</svg>
