<?xml version="1.0" encoding="UTF-8" standalone="no"?>
<!DOCTYPE svg PUBLIC "-//W3C//DTD SVG 1.1//EN"
 "http://www.w3.org/Graphics/SVG/1.1/DTD/svg11.dtd">
<!-- Generated by graphviz version 2.38.0 (20140413.2041)
 -->
<!-- Title: NPZbbbar.h Pages: 1 -->
<svg width="174pt" height="80pt"
 viewBox="0.00 0.00 174.00 80.00" xmlns="http://www.w3.org/2000/svg" xmlns:xlink="http://www.w3.org/1999/xlink">
<g id="graph0" class="graph" transform="scale(1 1) rotate(0) translate(4 76)">
<title>NPZbbbar.h</title>
<!-- Node1 -->
<g id="node1" class="node"><title>Node1</title>
<polygon fill="#bfbfbf" stroke="black" points="56,-54.5 56,-71.5 116,-71.5 116,-54.5 56,-54.5"/>
<text text-anchor="middle" x="86" y="-61.1" font-family="Helvetica,sans-Serif" font-size="8.00">NPZbbbar.h</text>
</g>
<!-- Node2 -->
<g id="node2" class="node"><title>Node2</title>
<g id="a_node2"><a xlink:href="../../d3/df6/_model_factory_8cpp.html" target="_top" xlink:title="ModelFactory.cpp">
<polygon fill="none" stroke="black" points="0,-0.5 0,-17.5 80,-17.5 80,-0.5 0,-0.5"/>
<text text-anchor="middle" x="40" y="-7.1" font-family="Helvetica,sans-Serif" font-size="8.00">ModelFactory.cpp</text>
</a>
</g>
</g>
<!-- Node1&#45;&gt;Node2 -->
<g id="edge1" class="edge"><title>Node1&#45;&gt;Node2</title>
<path fill="none" stroke="midnightblue" d="M72.4784,-46.7148C64.0456,-37.182 53.5523,-25.32 46.8153,-17.7043"/>
<polygon fill="midnightblue" stroke="midnightblue" points="69.9653,-49.1563 79.2125,-54.3272 75.2083,-44.5182 69.9653,-49.1563"/>
</g>
<!-- Node3 -->
<g id="node3" class="node"><title>Node3</title>
<g id="a_node3"><a xlink:href="../../d5/d89/_n_p_zbbbar_8cpp.html" target="_top" xlink:title="NPZbbbar.cpp">
<polygon fill="none" stroke="black" points="98,-0.5 98,-17.5 166,-17.5 166,-0.5 98,-0.5"/>
<text text-anchor="middle" x="132" y="-7.1" font-family="Helvetica,sans-Serif" font-size="8.00">NPZbbbar.cpp</text>
</a>
</g>
</g>
<!-- Node1&#45;&gt;Node3 -->
<g id="edge2" class="edge"><title>Node1&#45;&gt;Node3</title>
<path fill="none" stroke="midnightblue" d="M99.5216,-46.7148C107.954,-37.182 118.448,-25.32 125.185,-17.7043"/>
<polygon fill="midnightblue" stroke="midnightblue" points="96.7917,-44.5182 92.7875,-54.3272 102.035,-49.1563 96.7917,-44.5182"/>
</g>
</g>
</svg>
