<?xml version="1.0" encoding="UTF-8" standalone="no"?>
<!DOCTYPE svg PUBLIC "-//W3C//DTD SVG 1.1//EN"
 "http://www.w3.org/Graphics/SVG/1.1/DTD/svg11.dtd">
<!-- Generated by graphviz version 2.40.1 (20161225.0304)
 -->
<!-- Title: alpha_s.h Pages: 1 -->
<svg width="168pt" height="80pt"
 viewBox="0.00 0.00 168.00 80.00" xmlns="http://www.w3.org/2000/svg" xmlns:xlink="http://www.w3.org/1999/xlink">
<g id="graph0" class="graph" transform="scale(1 1) rotate(0) translate(4 76)">
<title>alpha_s.h</title>
<!-- Node5 -->
<g id="node1" class="node">
<title>Node5</title>
<polygon fill="#bfbfbf" stroke="#000000" points="59.5,-54.5 59.5,-71.5 110.5,-71.5 110.5,-54.5 59.5,-54.5"/>
<text text-anchor="middle" x="85" y="-61.1" font-family="Helvetica,sans-Serif" font-size="8.00" fill="#000000">alpha_s.h</text>
</g>
<!-- Node6 -->
<g id="node2" class="node">
<title>Node6</title>
<g id="a_node2"><a xlink:href="../../d1/de2/_th_obs_factory_8cpp.html" target="_top" xlink:title="ThObsFactory.cpp">
<polygon fill="none" stroke="#000000" points="0,-.5 0,-17.5 82,-17.5 82,-.5 0,-.5"/>
<text text-anchor="middle" x="41" y="-7.1" font-family="Helvetica,sans-Serif" font-size="8.00" fill="#000000">ThObsFactory.cpp</text>
</a>
</g>
</g>
<!-- Node5&#45;&gt;Node6 -->
<g id="edge1" class="edge">
<title>Node5&#45;&gt;Node6</title>
<path fill="none" stroke="#191970" d="M71.2655,-46.144C63.5995,-36.7357 54.3667,-25.4046 48.1305,-17.7511"/>
<polygon fill="#191970" stroke="#191970" points="68.7042,-48.5415 77.7343,-54.083 74.1309,-44.1198 68.7042,-48.5415"/>
</g>
<!-- Node7 -->
<g id="node3" class="node">
<title>Node7</title>
<g id="a_node3"><a xlink:href="../../d7/d97/alpha__s_8cpp.html" target="_top" xlink:title="alpha_s.cpp">
<polygon fill="none" stroke="#000000" points="100,-.5 100,-17.5 160,-17.5 160,-.5 100,-.5"/>
<text text-anchor="middle" x="130" y="-7.1" font-family="Helvetica,sans-Serif" font-size="8.00" fill="#000000">alpha_s.cpp</text>
</a>
</g>
</g>
<!-- Node5&#45;&gt;Node7 -->
<g id="edge2" class="edge">
<title>Node5&#45;&gt;Node7</title>
<path fill="none" stroke="#191970" d="M99.0467,-46.144C106.8869,-36.7357 116.3295,-25.4046 122.7074,-17.7511"/>
<polygon fill="#191970" stroke="#191970" points="96.1439,-44.1601 92.4308,-54.083 101.5215,-48.6414 96.1439,-44.1601"/>
</g>
</g>
</svg>
