<?xml version="1.0" encoding="UTF-8" standalone="no"?>
<!DOCTYPE svg PUBLIC "-//W3C//DTD SVG 1.1//EN"
 "http://www.w3.org/Graphics/SVG/1.1/DTD/svg11.dtd">
<!-- Generated by graphviz version 2.40.1 (20161225.0304)
 -->
<!-- Title: AmpDS1.cpp Pages: 1 -->
<svg width="325pt" height="242pt"
 viewBox="0.00 0.00 325.00 242.00" xmlns="http://www.w3.org/2000/svg" xmlns:xlink="http://www.w3.org/1999/xlink">
<g id="graph0" class="graph" transform="scale(1 1) rotate(0) translate(4 238)">
<title>AmpDS1.cpp</title>
<!-- Node0 -->
<g id="node1" class="node">
<title>Node0</title>
<polygon fill="#bfbfbf" stroke="#000000" points="182.5,-216.5 182.5,-233.5 246.5,-233.5 246.5,-216.5 182.5,-216.5"/>
<text text-anchor="middle" x="214.5" y="-223.1" font-family="Helvetica,sans-Serif" font-size="8.00" fill="#000000">AmpDS1.cpp</text>
</g>
<!-- Node1 -->
<g id="node2" class="node">
<title>Node1</title>
<g id="a_node2"><a xlink:href="../../de/de4/_amp_d_s1_8h.html" target="_top" xlink:title="AmpDS1.h">
<polygon fill="none" stroke="#000000" points="53,-162.5 53,-179.5 108,-179.5 108,-162.5 53,-162.5"/>
<text text-anchor="middle" x="80.5" y="-169.1" font-family="Helvetica,sans-Serif" font-size="8.00" fill="#000000">AmpDS1.h</text>
</a>
</g>
</g>
<!-- Node0&#45;&gt;Node1 -->
<g id="edge1" class="edge">
<title>Node0&#45;&gt;Node1</title>
<path fill="none" stroke="#191970" d="M193.2673,-216.4435C171.1165,-207.5171 136.1813,-193.4387 111.064,-183.3168"/>
<polygon fill="#191970" stroke="#191970" points="112.2168,-180.0079 101.6334,-179.5164 109.6003,-186.5006 112.2168,-180.0079"/>
</g>
<!-- Node19 -->
<g id="node6" class="node">
<title>Node19</title>
<g id="a_node6"><a xlink:href="../../d6/d0a/_standard_model_8h.html" target="_top" xlink:title="StandardModel.h">
<polygon fill="none" stroke="#ff0000" points="135,-162.5 135,-179.5 212,-179.5 212,-162.5 135,-162.5"/>
<text text-anchor="middle" x="173.5" y="-169.1" font-family="Helvetica,sans-Serif" font-size="8.00" fill="#000000">StandardModel.h</text>
</a>
</g>
</g>
<!-- Node0&#45;&gt;Node19 -->
<g id="edge6" class="edge">
<title>Node0&#45;&gt;Node19</title>
<path fill="none" stroke="#191970" d="M207.7297,-216.083C201.9384,-208.4554 193.4415,-197.2645 186.3625,-187.9408"/>
<polygon fill="#191970" stroke="#191970" points="188.979,-185.5991 180.1443,-179.7511 183.4039,-189.8321 188.979,-185.5991"/>
</g>
<!-- Node50 -->
<g id="node9" class="node">
<title>Node50</title>
<g id="a_node9"><a xlink:href="../../df/da7/_heff_d_s1_8h.html" target="_top" xlink:title="HeffDS1.h">
<polygon fill="none" stroke="#ff0000" points="230,-162.5 230,-179.5 283,-179.5 283,-162.5 230,-162.5"/>
<text text-anchor="middle" x="256.5" y="-169.1" font-family="Helvetica,sans-Serif" font-size="8.00" fill="#000000">HeffDS1.h</text>
</a>
</g>
</g>
<!-- Node0&#45;&gt;Node50 -->
<g id="edge11" class="edge">
<title>Node0&#45;&gt;Node50</title>
<path fill="none" stroke="#191970" d="M221.4354,-216.083C227.4292,-208.3768 236.2518,-197.0333 243.5476,-187.6531"/>
<polygon fill="#191970" stroke="#191970" points="246.3169,-189.7934 249.6936,-179.7511 240.7914,-185.4958 246.3169,-189.7934"/>
</g>
<!-- Node43 -->
<g id="node10" class="node">
<title>Node43</title>
<polygon fill="none" stroke="#bfbfbf" points="272,-108.5 272,-125.5 317,-125.5 317,-108.5 272,-108.5"/>
<text text-anchor="middle" x="294.5" y="-115.1" font-family="Helvetica,sans-Serif" font-size="8.00" fill="#000000">sstream</text>
</g>
<!-- Node0&#45;&gt;Node43 -->
<g id="edge13" class="edge">
<title>Node0&#45;&gt;Node43</title>
<path fill="none" stroke="#191970" d="M243.036,-216.479C260.5576,-209.6303 281.6557,-198.1064 292.5,-180 300.4069,-166.7981 300.2305,-149.0901 298.4655,-135.8102"/>
<polygon fill="#191970" stroke="#191970" points="301.9035,-135.1507 296.7518,-125.8927 295.0057,-136.3426 301.9035,-135.1507"/>
</g>
<!-- Node2 -->
<g id="node3" class="node">
<title>Node2</title>
<g id="a_node3"><a xlink:href="../../d1/dc2/gslpp__complex_8h.html" target="_top" xlink:title="gslpp_complex.h">
<polygon fill="none" stroke="#ff0000" points="0,-54.5 0,-71.5 77,-71.5 77,-54.5 0,-54.5"/>
<text text-anchor="middle" x="38.5" y="-61.1" font-family="Helvetica,sans-Serif" font-size="8.00" fill="#000000">gslpp_complex.h</text>
</a>
</g>
</g>
<!-- Node1&#45;&gt;Node2 -->
<g id="edge2" class="edge">
<title>Node1&#45;&gt;Node2</title>
<path fill="none" stroke="#191970" d="M69.6781,-162.3004C60.3289,-154.0625 47.4178,-140.7802 41.5,-126 35.8337,-111.8479 35.4431,-94.4564 36.2659,-81.5343"/>
<polygon fill="#191970" stroke="#191970" points="39.7558,-81.8044 37.1992,-71.5227 32.786,-81.1546 39.7558,-81.8044"/>
</g>
<!-- Node6 -->
<g id="node4" class="node">
<title>Node6</title>
<g id="a_node4"><a xlink:href="../../d4/d36/_order_scheme_8h.html" target="_top" xlink:title="OrderScheme.h">
<polygon fill="none" stroke="#000000" points="110,-.5 110,-17.5 183,-17.5 183,-.5 110,-.5"/>
<text text-anchor="middle" x="146.5" y="-7.1" font-family="Helvetica,sans-Serif" font-size="8.00" fill="#000000">OrderScheme.h</text>
</a>
</g>
</g>
<!-- Node1&#45;&gt;Node6 -->
<g id="edge3" class="edge">
<title>Node1&#45;&gt;Node6</title>
<path fill="none" stroke="#191970" d="M84.705,-162.4531C89.0784,-153.4597 96.0367,-138.8537 101.5,-126 116.1983,-91.4187 131.5394,-50.2638 139.9705,-27.1323"/>
<polygon fill="#191970" stroke="#191970" points="143.3098,-28.1902 143.4263,-17.596 136.7286,-25.8052 143.3098,-28.1902"/>
</g>
<!-- Node7 -->
<g id="node5" class="node">
<title>Node7</title>
<g id="a_node5"><a xlink:href="../../d9/d72/gslpp_8h.html" target="_top" xlink:title="gslpp.h">
<polygon fill="none" stroke="#ff0000" points="50.5,-108.5 50.5,-125.5 92.5,-125.5 92.5,-108.5 50.5,-108.5"/>
<text text-anchor="middle" x="71.5" y="-115.1" font-family="Helvetica,sans-Serif" font-size="8.00" fill="#000000">gslpp.h</text>
</a>
</g>
</g>
<!-- Node1&#45;&gt;Node7 -->
<g id="edge4" class="edge">
<title>Node1&#45;&gt;Node7</title>
<path fill="none" stroke="#191970" d="M79.0138,-162.083C77.8212,-154.9272 76.1059,-144.6353 74.6152,-135.6911"/>
<polygon fill="#191970" stroke="#191970" points="78.055,-135.0396 72.9585,-125.7511 71.1502,-136.1904 78.055,-135.0396"/>
</g>
<!-- Node7&#45;&gt;Node2 -->
<g id="edge5" class="edge">
<title>Node7&#45;&gt;Node2</title>
<path fill="none" stroke="#191970" d="M66.0507,-108.083C61.4855,-100.6127 54.8316,-89.7244 49.2066,-80.5199"/>
<polygon fill="#191970" stroke="#191970" points="52.0489,-78.4588 43.8479,-71.7511 46.0759,-82.109 52.0489,-78.4588"/>
</g>
<!-- Node20 -->
<g id="node7" class="node">
<title>Node20</title>
<g id="a_node7"><a xlink:href="../../d2/d65/_flavour_8h.html" target="_top" xlink:title="Flavour.h">
<polygon fill="none" stroke="#ff0000" points="148.5,-108.5 148.5,-125.5 198.5,-125.5 198.5,-108.5 148.5,-108.5"/>
<text text-anchor="middle" x="173.5" y="-115.1" font-family="Helvetica,sans-Serif" font-size="8.00" fill="#000000">Flavour.h</text>
</a>
</g>
</g>
<!-- Node19&#45;&gt;Node20 -->
<g id="edge7" class="edge">
<title>Node19&#45;&gt;Node20</title>
<path fill="none" stroke="#191970" d="M173.5,-162.083C173.5,-155.0059 173.5,-144.8611 173.5,-135.9865"/>
<polygon fill="#191970" stroke="#191970" points="177.0001,-135.751 173.5,-125.7511 170.0001,-135.7511 177.0001,-135.751"/>
</g>
<!-- Node21 -->
<g id="node8" class="node">
<title>Node21</title>
<g id="a_node8"><a xlink:href="../../d4/d68/_q_c_d_8h.html" target="_top" xlink:title="QCD.h">
<polygon fill="none" stroke="#ff0000" points="153,-54.5 153,-71.5 194,-71.5 194,-54.5 153,-54.5"/>
<text text-anchor="middle" x="173.5" y="-61.1" font-family="Helvetica,sans-Serif" font-size="8.00" fill="#000000">QCD.h</text>
</a>
</g>
</g>
<!-- Node19&#45;&gt;Node21 -->
<g id="edge10" class="edge">
<title>Node19&#45;&gt;Node21</title>
<path fill="none" stroke="#191970" d="M183.4231,-162.4642C195.776,-150.7396 214.4541,-128.7396 207.5,-108 203.8959,-97.2512 196.5972,-87.0204 189.683,-79.0378"/>
<polygon fill="#191970" stroke="#191970" points="192.1549,-76.5561 182.7879,-71.6053 187.0231,-81.3168 192.1549,-76.5561"/>
</g>
<!-- Node20&#45;&gt;Node21 -->
<g id="edge8" class="edge">
<title>Node20&#45;&gt;Node21</title>
<path fill="none" stroke="#191970" d="M173.5,-108.083C173.5,-101.0059 173.5,-90.8611 173.5,-81.9865"/>
<polygon fill="#191970" stroke="#191970" points="177.0001,-81.751 173.5,-71.7511 170.0001,-81.7511 177.0001,-81.751"/>
</g>
<!-- Node21&#45;&gt;Node6 -->
<g id="edge9" class="edge">
<title>Node21&#45;&gt;Node6</title>
<path fill="none" stroke="#191970" d="M169.0415,-54.083C165.3457,-46.6913 159.9766,-35.9533 155.4055,-26.8111"/>
<polygon fill="#191970" stroke="#191970" points="158.4782,-25.1301 150.8755,-17.7511 152.2172,-28.2606 158.4782,-25.1301"/>
</g>
<!-- Node50&#45;&gt;Node43 -->
<g id="edge12" class="edge">
<title>Node50&#45;&gt;Node43</title>
<path fill="none" stroke="#191970" d="M262.7749,-162.083C268.1425,-154.4554 276.0176,-143.2645 282.5787,-133.9408"/>
<polygon fill="#191970" stroke="#191970" points="285.4492,-135.9434 288.3418,-125.7511 279.7245,-131.9149 285.4492,-135.9434"/>
</g>
</g>
</svg>
