<?xml version="1.0" encoding="UTF-8" standalone="no"?>
<!DOCTYPE svg PUBLIC "-//W3C//DTD SVG 1.1//EN"
 "http://www.w3.org/Graphics/SVG/1.1/DTD/svg11.dtd">
<!-- Generated by graphviz version 2.38.0 (20140413.2041)
 -->
<!-- Title: NPZbbbarLinearized.h Pages: 1 -->
<svg width="212pt" height="80pt"
 viewBox="0.00 0.00 211.50 80.00" xmlns="http://www.w3.org/2000/svg" xmlns:xlink="http://www.w3.org/1999/xlink">
<g id="graph0" class="graph" transform="scale(1 1) rotate(0) translate(4 76)">
<title>NPZbbbarLinearized.h</title>
<!-- Node1 -->
<g id="node1" class="node"><title>Node1</title>
<polygon fill="#bfbfbf" stroke="black" points="46.5,-54.5 46.5,-71.5 143.5,-71.5 143.5,-54.5 46.5,-54.5"/>
<text text-anchor="middle" x="95" y="-61.1" font-family="Helvetica,sans-Serif" font-size="8.00">NPZbbbarLinearized.h</text>
</g>
<!-- Node2 -->
<g id="node2" class="node"><title>Node2</title>
<g id="a_node2"><a xlink:href="../../d3/df6/_model_factory_8cpp.html" target="_top" xlink:title="ModelFactory.cpp">
<polygon fill="none" stroke="black" points="0,-0.5 0,-17.5 80,-17.5 80,-0.5 0,-0.5"/>
<text text-anchor="middle" x="40" y="-7.1" font-family="Helvetica,sans-Serif" font-size="8.00">ModelFactory.cpp</text>
</a>
</g>
</g>
<!-- Node1&#45;&gt;Node2 -->
<g id="edge1" class="edge"><title>Node1&#45;&gt;Node2</title>
<path fill="none" stroke="midnightblue" d="M79.4409,-47.2896C69.2589,-37.663 56.3666,-25.4739 48.1487,-17.7043"/>
<polygon fill="midnightblue" stroke="midnightblue" points="77.2135,-50.0003 86.8846,-54.3272 82.0226,-44.9138 77.2135,-50.0003"/>
</g>
<!-- Node3 -->
<g id="node3" class="node"><title>Node3</title>
<g id="a_node3"><a xlink:href="../../d7/d31/_n_p_zbbbar_linearized_8cpp.html" target="_top" xlink:title="NPZbbbarLinearized.cpp">
<polygon fill="none" stroke="black" points="98.5,-0.5 98.5,-17.5 203.5,-17.5 203.5,-0.5 98.5,-0.5"/>
<text text-anchor="middle" x="151" y="-7.1" font-family="Helvetica,sans-Serif" font-size="8.00">NPZbbbarLinearized.cpp</text>
</a>
</g>
</g>
<!-- Node1&#45;&gt;Node3 -->
<g id="edge2" class="edge"><title>Node1&#45;&gt;Node3</title>
<path fill="none" stroke="midnightblue" d="M110.842,-47.2896C121.209,-37.663 134.336,-25.4739 142.703,-17.7043"/>
<polygon fill="midnightblue" stroke="midnightblue" points="108.209,-44.9579 103.263,-54.3272 112.973,-50.0875 108.209,-44.9579"/>
</g>
</g>
</svg>
