<?xml version="1.0" encoding="UTF-8" standalone="no"?>
<!DOCTYPE svg PUBLIC "-//W3C//DTD SVG 1.1//EN"
 "http://www.w3.org/Graphics/SVG/1.1/DTD/svg11.dtd">
<!-- Generated by graphviz version 2.40.1 (20161225.0304)
 -->
<!-- Title: EWSMOneLoopEW Pages: 1 -->
<svg width="804pt" height="278pt"
 viewBox="0.00 0.00 804.00 278.00" xmlns="http://www.w3.org/2000/svg" xmlns:xlink="http://www.w3.org/1999/xlink">
<g id="graph0" class="graph" transform="scale(1 1) rotate(0) translate(4 274)">
<title>EWSMOneLoopEW</title>
<!-- Node1 -->
<g id="node1" class="node">
<title>Node1</title>
<polygon fill="#bfbfbf" stroke="#000000" points="146,-202.5 146,-219.5 233,-219.5 233,-202.5 146,-202.5"/>
<text text-anchor="middle" x="189.5" y="-209.1" font-family="Helvetica,sans-Serif" font-size="8.00" fill="#000000">EWSMOneLoopEW</text>
</g>
<!-- Node7 -->
<g id="node7" class="node">
<title>Node7</title>
<g id="a_node7"><a xlink:href="../../dc/dd5/class_standard_model.html" target="_top" xlink:title="A model class for the Standard Model. ">
<polygon fill="none" stroke="#ff0000" points="379,-143.5 379,-160.5 450,-160.5 450,-143.5 379,-143.5"/>
<text text-anchor="middle" x="414.5" y="-150.1" font-family="Helvetica,sans-Serif" font-size="8.00" fill="#000000">StandardModel</text>
</a>
</g>
</g>
<!-- Node1&#45;&gt;Node7 -->
<g id="edge15" class="edge">
<title>Node1&#45;&gt;Node7</title>
<path fill="none" stroke="#9a32cd" stroke-dasharray="5,2" d="M231.9354,-199.8725C275.4336,-188.4663 342.1498,-170.9718 381.7436,-160.5895"/>
<polygon fill="#9a32cd" stroke="#9a32cd" points="231.0021,-196.4988 222.2169,-202.4209 232.7777,-203.2699 231.0021,-196.4988"/>
<text text-anchor="middle" x="320.5" y="-188.6" font-family="Helvetica,sans-Serif" font-size="8.00" fill="#000000"> myOneLoopEW</text>
</g>
<!-- Node11 -->
<g id="node9" class="node">
<title>Node11</title>
<g id="a_node9"><a xlink:href="../../db/d32/class_e_w_s_m_two_fermions_l_e_p2.html" target="_top" xlink:title="A class for the form factors , &#160;and &#160;in the processes &#160;at LEP&#45;II. ">
<polygon fill="none" stroke="#000000" points="687,-165.5 687,-182.5 796,-182.5 796,-165.5 687,-165.5"/>
<text text-anchor="middle" x="741.5" y="-172.1" font-family="Helvetica,sans-Serif" font-size="8.00" fill="#000000">EWSMTwoFermionsLEP2</text>
</a>
</g>
</g>
<!-- Node1&#45;&gt;Node11 -->
<g id="edge12" class="edge">
<title>Node1&#45;&gt;Node11</title>
<path fill="none" stroke="#9a32cd" stroke-dasharray="5,2" d="M243.2812,-208.6169C332.0407,-204.4887 514.7319,-195.1683 669,-182 674.804,-181.5046 680.863,-180.9289 686.898,-180.3178"/>
<polygon fill="#9a32cd" stroke="#9a32cd" points="243.0155,-205.1253 233.1876,-209.0827 243.3383,-212.1179 243.0155,-205.1253"/>
<text text-anchor="middle" x="498" y="-198.6" font-family="Helvetica,sans-Serif" font-size="8.00" fill="#000000"> myOneLoopEW</text>
</g>
<!-- Node2 -->
<g id="node2" class="node">
<title>Node2</title>
<g id="a_node2"><a xlink:href="../../dc/df3/class_e_w_s_mcache.html" target="_top" xlink:title="A class for cache variables used in computing radiative corrections to the EW precision observables...">
<polygon fill="none" stroke="#000000" points="555,-109.5 555,-126.5 618,-126.5 618,-109.5 555,-109.5"/>
<text text-anchor="middle" x="586.5" y="-116.1" font-family="Helvetica,sans-Serif" font-size="8.00" fill="#000000">EWSMcache</text>
</a>
</g>
</g>
<!-- Node2&#45;&gt;Node1 -->
<g id="edge1" class="edge">
<title>Node2&#45;&gt;Node1</title>
<path fill="none" stroke="#9a32cd" stroke-dasharray="5,2" d="M566.7538,-133.075C559.2893,-139.6835 551.3212,-147.9878 546,-157 530.3232,-183.551 552.4119,-205.1645 528,-224 430.4524,-299.2646 265.8652,-242.636 209.2922,-219.5806"/>
<polygon fill="#9a32cd" stroke="#9a32cd" points="569.0637,-135.7062 574.5068,-126.6165 564.5833,-130.3279 569.0637,-135.7062"/>
<text text-anchor="middle" x="414.5" y="-263.6" font-family="Helvetica,sans-Serif" font-size="8.00" fill="#000000"> cache</text>
</g>
<!-- Node2&#45;&gt;Node7 -->
<g id="edge13" class="edge">
<title>Node2&#45;&gt;Node7</title>
<path fill="none" stroke="#9a32cd" stroke-dasharray="5,2" d="M545.1235,-126.1791C516.13,-131.9104 477.7769,-139.4918 450.1385,-144.9552"/>
<polygon fill="#9a32cd" stroke="#9a32cd" points="545.8243,-129.6084 554.9557,-124.2355 544.4668,-122.7412 545.8243,-129.6084"/>
<text text-anchor="middle" x="498" y="-143.6" font-family="Helvetica,sans-Serif" font-size="8.00" fill="#000000"> myEWSMcache</text>
</g>
<!-- Node2&#45;&gt;Node11 -->
<g id="edge11" class="edge">
<title>Node2&#45;&gt;Node11</title>
<path fill="none" stroke="#9a32cd" stroke-dasharray="5,2" d="M619.5004,-129.9227C648.9867,-140.5758 691.4715,-155.9252 717.7373,-165.4148"/>
<polygon fill="#9a32cd" stroke="#9a32cd" points="620.6355,-126.6114 610.0412,-126.5052 618.2569,-133.1949 620.6355,-126.6114"/>
<text text-anchor="middle" x="657" y="-149.6" font-family="Helvetica,sans-Serif" font-size="8.00" fill="#000000"> cache</text>
</g>
<!-- Node3 -->
<g id="node3" class="node">
<title>Node3</title>
<g id="a_node3"><a xlink:href="../../d4/d7b/class_p_vfunctions.html" target="_top" xlink:title="A class for Passarino&#45;Veltman functions. ">
<polygon fill="none" stroke="#000000" points="385,-79.5 385,-96.5 444,-96.5 444,-79.5 385,-79.5"/>
<text text-anchor="middle" x="414.5" y="-86.1" font-family="Helvetica,sans-Serif" font-size="8.00" fill="#000000">PVfunctions</text>
</a>
</g>
</g>
<!-- Node3&#45;&gt;Node2 -->
<g id="edge2" class="edge">
<title>Node3&#45;&gt;Node2</title>
<path fill="none" stroke="#9a32cd" stroke-dasharray="5,2" d="M454.3733,-82.8214C476.397,-81.1571 504.0619,-81.0494 528,-87 545.4012,-91.3257 563.318,-101.8909 574.6602,-109.485"/>
<polygon fill="#9a32cd" stroke="#9a32cd" points="454.0217,-79.3387 444.3712,-83.7113 454.6421,-86.3112 454.0217,-79.3387"/>
<text text-anchor="middle" x="498" y="-89.6" font-family="Helvetica,sans-Serif" font-size="8.00" fill="#000000"> PV</text>
</g>
<!-- Node4 -->
<g id="node4" class="node">
<title>Node4</title>
<g id="a_node4"><a xlink:href="../../d8/db3/class_polylogarithms.html" target="_top" xlink:title="A class for the polylogarithms. ">
<polygon fill="none" stroke="#000000" points="155,-43.5 155,-60.5 224,-60.5 224,-43.5 155,-43.5"/>
<text text-anchor="middle" x="189.5" y="-50.1" font-family="Helvetica,sans-Serif" font-size="8.00" fill="#000000">Polylogarithms</text>
</a>
</g>
</g>
<!-- Node4&#45;&gt;Node2 -->
<g id="edge7" class="edge">
<title>Node4&#45;&gt;Node2</title>
<path fill="none" stroke="#9a32cd" stroke-dasharray="5,2" d="M234.6065,-46.4908C301.6345,-40.2399 430.1336,-35.7933 528,-78 546.528,-85.9906 565.3255,-100.1592 576.4432,-109.311"/>
<polygon fill="#9a32cd" stroke="#9a32cd" points="233.9971,-43.034 224.3908,-47.5027 234.6871,-49.9999 233.9971,-43.034"/>
<text text-anchor="middle" x="414.5" y="-57.6" font-family="Helvetica,sans-Serif" font-size="8.00" fill="#000000"> PolyLog</text>
</g>
<!-- Node4&#45;&gt;Node3 -->
<g id="edge3" class="edge">
<title>Node4&#45;&gt;Node3</title>
<path fill="none" stroke="#9a32cd" stroke-dasharray="5,2" d="M234.1677,-59.1468C278.8599,-66.2976 346.3439,-77.095 384.8294,-83.2527"/>
<polygon fill="#9a32cd" stroke="#9a32cd" points="234.5906,-55.6701 224.1632,-57.5461 233.4846,-62.5821 234.5906,-55.6701"/>
<text text-anchor="middle" x="320.5" y="-82.6" font-family="Helvetica,sans-Serif" font-size="8.00" fill="#000000"> myPolylog</text>
</g>
<!-- Node5 -->
<g id="node5" class="node">
<title>Node5</title>
<g id="a_node5"><a xlink:href="../../df/dea/class_bernoulli_numbers.html" target="_top" xlink:title="A class for the Bernoulli numbers. ">
<polygon fill="none" stroke="#000000" points="0,-16.5 0,-33.5 80,-33.5 80,-16.5 0,-16.5"/>
<text text-anchor="middle" x="40" y="-23.1" font-family="Helvetica,sans-Serif" font-size="8.00" fill="#000000">BernoulliNumbers</text>
</a>
</g>
</g>
<!-- Node5&#45;&gt;Node4 -->
<g id="edge4" class="edge">
<title>Node5&#45;&gt;Node4</title>
<path fill="none" stroke="#191970" d="M89.9347,-34.0183C111.2611,-37.8699 135.6273,-42.2705 154.917,-45.7542"/>
<polygon fill="#191970" stroke="#191970" points="90.5261,-30.5686 80.0633,-32.2355 89.282,-37.4571 90.5261,-30.5686"/>
</g>
<!-- Node6 -->
<g id="node6" class="node">
<title>Node6</title>
<g id="a_node6"><a xlink:href="../../d5/d9d/class_clausen_functions.html" target="_top" xlink:title="A class for the Clausen functions. ">
<polygon fill="none" stroke="#000000" points="280,-.5 280,-17.5 361,-17.5 361,-.5 280,-.5"/>
<text text-anchor="middle" x="320.5" y="-7.1" font-family="Helvetica,sans-Serif" font-size="8.00" fill="#000000">ClausenFunctions</text>
</a>
</g>
</g>
<!-- Node5&#45;&gt;Node6 -->
<g id="edge6" class="edge">
<title>Node5&#45;&gt;Node6</title>
<path fill="none" stroke="#191970" d="M90.2695,-22.1326C144.5012,-19.0391 229.7997,-14.1736 279.9306,-11.3141"/>
<polygon fill="#191970" stroke="#191970" points="89.9732,-18.6437 80.1888,-22.7076 90.3719,-25.6323 89.9732,-18.6437"/>
</g>
<!-- Node6&#45;&gt;Node2 -->
<g id="edge5" class="edge">
<title>Node6&#45;&gt;Node2</title>
<path fill="none" stroke="#9a32cd" stroke-dasharray="5,2" d="M371.1161,-4.5768C415.8904,-3.1808 481.1925,-7.5336 528,-38 555.9758,-56.2091 575.1461,-92.7624 582.7909,-109.3999"/>
<polygon fill="#9a32cd" stroke="#9a32cd" points="370.8901,-1.0831 361.0451,-4.998 371.1827,-8.077 370.8901,-1.0831"/>
<text text-anchor="middle" x="414.5" y="-12.6" font-family="Helvetica,sans-Serif" font-size="8.00" fill="#000000"> Clausen</text>
</g>
<!-- Node7&#45;&gt;Node2 -->
<g id="edge8" class="edge">
<title>Node7&#45;&gt;Node2</title>
<path fill="none" stroke="#9a32cd" stroke-dasharray="5,2" d="M432.8641,-137.1929C442.6721,-130.2248 455.3149,-122.6555 468,-119 496.5665,-110.768 530.639,-111.5106 554.9004,-113.719"/>
<polygon fill="#9a32cd" stroke="#9a32cd" points="430.6318,-134.4922 424.7339,-143.2936 434.8331,-140.0912 430.6318,-134.4922"/>
<text text-anchor="middle" x="498" y="-121.6" font-family="Helvetica,sans-Serif" font-size="8.00" fill="#000000"> SM</text>
</g>
<!-- Node8 -->
<g id="node8" class="node">
<title>Node8</title>
<g id="a_node8"><a xlink:href="../../dd/dfa/class_q_c_d.html" target="_top" xlink:title="A class for parameters related to QCD, hadrons and quarks. ">
<polygon fill="none" stroke="#ff0000" points="172.5,-147.5 172.5,-164.5 206.5,-164.5 206.5,-147.5 172.5,-147.5"/>
<text text-anchor="middle" x="189.5" y="-154.1" font-family="Helvetica,sans-Serif" font-size="8.00" fill="#000000">QCD</text>
</a>
</g>
</g>
<!-- Node8&#45;&gt;Node7 -->
<g id="edge9" class="edge">
<title>Node8&#45;&gt;Node7</title>
<path fill="none" stroke="#191970" d="M217.0075,-155.511C257.6185,-154.789 333.6502,-153.4373 378.6032,-152.6382"/>
<polygon fill="#191970" stroke="#191970" points="216.7179,-152.0155 206.7818,-155.6928 216.8424,-159.0144 216.7179,-152.0155"/>
</g>
<!-- Node11&#45;&gt;Node7 -->
<g id="edge10" class="edge">
<title>Node11&#45;&gt;Node7</title>
<path fill="none" stroke="#9a32cd" stroke-dasharray="5,2" d="M676.7836,-169.646C608.8226,-165.0737 504.4365,-158.0508 450.1172,-154.3963"/>
<polygon fill="#9a32cd" stroke="#9a32cd" points="676.7378,-173.1507 686.9502,-170.33 677.2077,-166.1665 676.7378,-173.1507"/>
<text text-anchor="middle" x="586.5" y="-168.6" font-family="Helvetica,sans-Serif" font-size="8.00" fill="#000000"> myTwoFermionsLEP2</text>
</g>
<!-- Node12 -->
<g id="node10" class="node">
<title>Node12</title>
<g id="a_node10"><a xlink:href="../../d5/d76/class_matching.html" target="_top" xlink:title="Matching\&lt; StandardModelMatching,\l StandardModel \&gt;">
<polygon fill="none" stroke="#ff0000" points="117,-102 117,-128 262,-128 262,-102 117,-102"/>
<text text-anchor="start" x="125" y="-117.6" font-family="Helvetica,sans-Serif" font-size="8.00" fill="#000000">Matching&lt; StandardModelMatching,</text>
<text text-anchor="middle" x="189.5" y="-108.6" font-family="Helvetica,sans-Serif" font-size="8.00" fill="#000000"> StandardModel &gt;</text>
</a>
</g>
</g>
<!-- Node12&#45;&gt;Node7 -->
<g id="edge14" class="edge">
<title>Node12&#45;&gt;Node7</title>
<path fill="none" stroke="#9a32cd" stroke-dasharray="5,2" d="M272.5744,-124.9341C300.7447,-128.7512 332.3321,-133.5251 361,-139 367.666,-140.2731 374.7497,-141.8399 381.5066,-143.4397"/>
<polygon fill="#9a32cd" stroke="#9a32cd" points="272.7374,-121.4249 262.3623,-123.5715 271.8115,-128.3634 272.7374,-121.4249"/>
<text text-anchor="middle" x="320.5" y="-141.6" font-family="Helvetica,sans-Serif" font-size="8.00" fill="#000000"> SMM</text>
</g>
</g>
</svg>
