<?xml version="1.0" encoding="UTF-8" standalone="no"?>
<!DOCTYPE svg PUBLIC "-//W3C//DTD SVG 1.1//EN"
 "http://www.w3.org/Graphics/SVG/1.1/DTD/svg11.dtd">
<!-- Generated by graphviz version 2.40.1 (20161225.0304)
 -->
<!-- Title: LhefEvent.hpp Pages: 1 -->
<svg width="684pt" height="251pt"
 viewBox="0.00 0.00 683.50 251.00" xmlns="http://www.w3.org/2000/svg" xmlns:xlink="http://www.w3.org/1999/xlink">
<g id="graph0" class="graph" transform="scale(1 1) rotate(0) translate(4 247)">
<title>LhefEvent.hpp</title>
<!-- Node39 -->
<g id="node1" class="node">
<title>Node39</title>
<polygon fill="#bfbfbf" stroke="#000000" points="267.5,-225.5 267.5,-242.5 335.5,-242.5 335.5,-225.5 267.5,-225.5"/>
<text text-anchor="middle" x="301.5" y="-232.1" font-family="Helvetica,sans-Serif" font-size="8.00" fill="#000000">LhefEvent.hpp</text>
</g>
<!-- Node40 -->
<g id="node2" class="node">
<title>Node40</title>
<g id="a_node2"><a xlink:href="../../d6/deb/_automatic_event_filter_8hpp.html" target="_top" xlink:title="AutomaticEventFilter.hpp">
<polygon fill="none" stroke="#000000" points="248.5,-171.5 248.5,-188.5 354.5,-188.5 354.5,-171.5 248.5,-171.5"/>
<text text-anchor="middle" x="301.5" y="-178.1" font-family="Helvetica,sans-Serif" font-size="8.00" fill="#000000">AutomaticEventFilter.hpp</text>
</a>
</g>
</g>
<!-- Node39&#45;&gt;Node40 -->
<g id="edge1" class="edge">
<title>Node39&#45;&gt;Node40</title>
<path fill="none" stroke="#191970" d="M301.5,-214.8045C301.5,-205.9102 301.5,-195.7798 301.5,-188.7511"/>
<polygon fill="#191970" stroke="#191970" points="298.0001,-215.083 301.5,-225.083 305.0001,-215.083 298.0001,-215.083"/>
</g>
<!-- Node41 -->
<g id="node3" class="node">
<title>Node41</title>
<g id="a_node3"><a xlink:href="../../dd/d66/_lhef_parser_8hpp.html" target="_top" xlink:title="LhefParser.hpp">
<polygon fill="none" stroke="#000000" points="223,-117.5 223,-134.5 294,-134.5 294,-117.5 223,-117.5"/>
<text text-anchor="middle" x="258.5" y="-124.1" font-family="Helvetica,sans-Serif" font-size="8.00" fill="#000000">LhefParser.hpp</text>
</a>
</g>
</g>
<!-- Node39&#45;&gt;Node41 -->
<g id="edge11" class="edge">
<title>Node39&#45;&gt;Node41</title>
<path fill="none" stroke="#191970" d="M272.4002,-220.6535C259.8657,-213.2504 246.5001,-202.7302 239.5,-189 230.16,-170.6802 243.3477,-146.9764 252.0011,-134.5168"/>
<polygon fill="#191970" stroke="#191970" points="270.8223,-223.7796 281.2774,-225.4945 274.1737,-217.634 270.8223,-223.7796"/>
</g>
<!-- Node42 -->
<g id="node4" class="node">
<title>Node42</title>
<g id="a_node4"><a xlink:href="../../de/dc0/_l_h_e_f_8hpp.html" target="_top" xlink:title="LHEF.hpp">
<polygon fill="none" stroke="#ff0000" points="296,-63.5 296,-80.5 349,-80.5 349,-63.5 296,-63.5"/>
<text text-anchor="middle" x="322.5" y="-70.1" font-family="Helvetica,sans-Serif" font-size="8.00" fill="#000000">LHEF.hpp</text>
</a>
</g>
</g>
<!-- Node39&#45;&gt;Node42 -->
<g id="edge12" class="edge">
<title>Node39&#45;&gt;Node42</title>
<path fill="none" stroke="#191970" d="M330.5998,-220.6535C343.1343,-213.2504 356.4999,-202.7302 363.5,-189 383.15,-150.4577 346.6681,-100.3118 330.0852,-80.5438"/>
<polygon fill="#191970" stroke="#191970" points="328.8263,-217.634 321.7226,-225.4945 332.1777,-223.7796 328.8263,-217.634"/>
</g>
<!-- Node40&#45;&gt;Node41 -->
<g id="edge2" class="edge">
<title>Node40&#45;&gt;Node41</title>
<path fill="none" stroke="#191970" d="M288.0776,-163.144C280.5858,-153.7357 271.5629,-142.4046 265.4685,-134.7511"/>
<polygon fill="#191970" stroke="#191970" points="285.4321,-165.4404 294.3994,-171.083 290.9081,-161.0799 285.4321,-165.4404"/>
</g>
<!-- Node40&#45;&gt;Node42 -->
<g id="edge10" class="edge">
<title>Node40&#45;&gt;Node42</title>
<path fill="none" stroke="#191970" d="M305.1352,-161.3049C309.7247,-137.7014 317.4295,-98.0769 320.8164,-80.6584"/>
<polygon fill="#191970" stroke="#191970" points="301.6916,-160.6777 303.2185,-171.1619 308.5629,-162.0138 301.6916,-160.6777"/>
</g>
<!-- Node41&#45;&gt;Node42 -->
<g id="edge3" class="edge">
<title>Node41&#45;&gt;Node42</title>
<path fill="none" stroke="#191970" d="M276.4915,-110.8197C287.9576,-101.1452 302.4133,-88.9481 312.0302,-80.8339"/>
<polygon fill="#191970" stroke="#191970" points="274.1686,-108.2002 268.7827,-117.324 278.6827,-113.5502 274.1686,-108.2002"/>
</g>
<!-- Node43 -->
<g id="node5" class="node">
<title>Node43</title>
<g id="a_node5"><a xlink:href="../../da/db8/_automatic_event_filter_8cpp.html" target="_top" xlink:title="AutomaticEventFilter.cpp">
<polygon fill="none" stroke="#000000" points="0,-5 0,-22 105,-22 105,-5 0,-5"/>
<text text-anchor="middle" x="52.5" y="-11.6" font-family="Helvetica,sans-Serif" font-size="8.00" fill="#000000">AutomaticEventFilter.cpp</text>
</a>
</g>
</g>
<!-- Node42&#45;&gt;Node43 -->
<g id="edge4" class="edge">
<title>Node42&#45;&gt;Node43</title>
<path fill="none" stroke="#191970" d="M285.9743,-64.1132C244.4348,-55.1402 174.5796,-40.0399 114.5,-27 107.0718,-25.3878 99.1438,-23.6639 91.525,-22.0057"/>
<polygon fill="#191970" stroke="#191970" points="285.3884,-67.5673 295.9019,-66.2575 286.8663,-60.7251 285.3884,-67.5673"/>
</g>
<!-- Node44 -->
<g id="node6" class="node">
<title>Node44</title>
<g id="a_node6"><a xlink:href="../../d1/d39/_filter_rule_8cpp.html" target="_top" xlink:title="FilterRule.cpp">
<polygon fill="none" stroke="#000000" points="123.5,-5 123.5,-22 189.5,-22 189.5,-5 123.5,-5"/>
<text text-anchor="middle" x="156.5" y="-11.6" font-family="Helvetica,sans-Serif" font-size="8.00" fill="#000000">FilterRule.cpp</text>
</a>
</g>
</g>
<!-- Node42&#45;&gt;Node44 -->
<g id="edge5" class="edge">
<title>Node42&#45;&gt;Node44</title>
<path fill="none" stroke="#191970" d="M288.5195,-60.0249C256.4208,-48.7131 209.0789,-32.0293 180.667,-22.0167"/>
<polygon fill="#191970" stroke="#191970" points="287.7674,-63.4708 298.3622,-63.4936 290.094,-56.8688 287.7674,-63.4708"/>
</g>
<!-- Node45 -->
<g id="node7" class="node">
<title>Node45</title>
<g id="a_node7"><a xlink:href="../../db/d31/_initial_or_intermediate_or_final_state_8cpp.html" target="_top" xlink:title="InitialOrIntermediateOrFinal\lState.cpp">
<polygon fill="none" stroke="#000000" points="208,-.5 208,-26.5 323,-26.5 323,-.5 208,-.5"/>
<text text-anchor="start" x="216" y="-16.1" font-family="Helvetica,sans-Serif" font-size="8.00" fill="#000000">InitialOrIntermediateOrFinal</text>
<text text-anchor="middle" x="265.5" y="-7.1" font-family="Helvetica,sans-Serif" font-size="8.00" fill="#000000">State.cpp</text>
</a>
</g>
</g>
<!-- Node42&#45;&gt;Node45 -->
<g id="edge6" class="edge">
<title>Node42&#45;&gt;Node45</title>
<path fill="none" stroke="#191970" d="M306.8952,-55.9846C297.9408,-46.7945 286.8344,-35.3958 278.3808,-26.7197"/>
<polygon fill="#191970" stroke="#191970" points="304.604,-58.6483 314.0895,-63.3681 309.6176,-53.7633 304.604,-58.6483"/>
</g>
<!-- Node46 -->
<g id="node8" class="node">
<title>Node46</title>
<g id="a_node8"><a xlink:href="../../d9/d77/_particle_code_8cpp.html" target="_top" xlink:title="ParticleCode.cpp">
<polygon fill="none" stroke="#000000" points="341,-5 341,-22 418,-22 418,-5 341,-5"/>
<text text-anchor="middle" x="379.5" y="-11.6" font-family="Helvetica,sans-Serif" font-size="8.00" fill="#000000">ParticleCode.cpp</text>
</a>
</g>
</g>
<!-- Node42&#45;&gt;Node46 -->
<g id="edge7" class="edge">
<title>Node42&#45;&gt;Node46</title>
<path fill="none" stroke="#191970" d="M338.0013,-56.0907C348.6461,-45.1659 362.3696,-31.0812 371.0549,-22.1673"/>
<polygon fill="#191970" stroke="#191970" points="335.3824,-53.7633 330.9105,-63.3681 340.396,-58.6483 335.3824,-53.7633"/>
</g>
<!-- Node47 -->
<g id="node9" class="node">
<title>Node47</title>
<g id="a_node9"><a xlink:href="../../d5/dc7/_pseudorapidity_cut_8cpp.html" target="_top" xlink:title="PseudorapidityCut.cpp">
<polygon fill="none" stroke="#000000" points="436,-5 436,-22 533,-22 533,-5 436,-5"/>
<text text-anchor="middle" x="484.5" y="-11.6" font-family="Helvetica,sans-Serif" font-size="8.00" fill="#000000">PseudorapidityCut.cpp</text>
</a>
</g>
</g>
<!-- Node42&#45;&gt;Node47 -->
<g id="edge8" class="edge">
<title>Node42&#45;&gt;Node47</title>
<path fill="none" stroke="#191970" d="M355.6617,-60.0249C386.9869,-48.7131 433.1881,-32.0293 460.9154,-22.0167"/>
<polygon fill="#191970" stroke="#191970" points="354.273,-56.8051 346.0562,-63.4936 356.6505,-63.389 354.273,-56.8051"/>
</g>
<!-- Node48 -->
<g id="node10" class="node">
<title>Node48</title>
<g id="a_node10"><a xlink:href="../../d2/d4a/_transverse_momentum_cut_8cpp.html" target="_top" xlink:title="TransverseMomentumCut.cpp">
<polygon fill="none" stroke="#000000" points="551.5,-5 551.5,-22 675.5,-22 675.5,-5 551.5,-5"/>
<text text-anchor="middle" x="613.5" y="-11.6" font-family="Helvetica,sans-Serif" font-size="8.00" fill="#000000">TransverseMomentumCut.cpp</text>
</a>
</g>
</g>
<!-- Node42&#45;&gt;Node48 -->
<g id="edge9" class="edge">
<title>Node42&#45;&gt;Node48</title>
<path fill="none" stroke="#191970" d="M358.9172,-64.679C412.8674,-53.8334 513.7987,-33.543 571.0356,-22.0367"/>
<polygon fill="#191970" stroke="#191970" points="358.2098,-61.2511 349.0957,-66.6534 359.5894,-68.1138 358.2098,-61.2511"/>
</g>
</g>
</svg>
