<?xml version="1.0" encoding="UTF-8" standalone="no"?>
<!DOCTYPE svg PUBLIC "-//W3C//DTD SVG 1.1//EN"
 "http://www.w3.org/Graphics/SVG/1.1/DTD/svg11.dtd">
<!-- Generated by graphviz version 2.40.1 (20161225.0304)
 -->
<!-- Title: HeffDB1.cpp Pages: 1 -->
<svg width="601pt" height="134pt"
 viewBox="0.00 0.00 601.00 134.00" xmlns="http://www.w3.org/2000/svg" xmlns:xlink="http://www.w3.org/1999/xlink">
<g id="graph0" class="graph" transform="scale(1 1) rotate(0) translate(4 130)">
<title>HeffDB1.cpp</title>
<!-- Node0 -->
<g id="node1" class="node">
<title>Node0</title>
<polygon fill="#bfbfbf" stroke="#000000" points="280.5,-108.5 280.5,-125.5 342.5,-125.5 342.5,-108.5 280.5,-108.5"/>
<text text-anchor="middle" x="311.5" y="-115.1" font-family="Helvetica,sans-Serif" font-size="8.00" fill="#000000">HeffDB1.cpp</text>
</g>
<!-- Node1 -->
<g id="node2" class="node">
<title>Node1</title>
<g id="a_node2"><a xlink:href="../../d9/d29/_heff_d_b1_8h.html" target="_top" xlink:title="HeffDB1.h">
<polygon fill="none" stroke="#ff0000" points="16,-54.5 16,-71.5 69,-71.5 69,-54.5 16,-54.5"/>
<text text-anchor="middle" x="42.5" y="-61.1" font-family="Helvetica,sans-Serif" font-size="8.00" fill="#000000">HeffDB1.h</text>
</a>
</g>
</g>
<!-- Node0&#45;&gt;Node1 -->
<g id="edge1" class="edge">
<title>Node0&#45;&gt;Node1</title>
<path fill="none" stroke="#191970" d="M280.3355,-111.6381C237.2131,-104.0818 156.7076,-89.4825 79.1447,-72.2719"/>
<polygon fill="#191970" stroke="#191970" points="79.7349,-68.8175 69.212,-70.0497 78.2065,-75.6487 79.7349,-68.8175"/>
</g>
<!-- Node16 -->
<g id="node5" class="node">
<title>Node16</title>
<g id="a_node5"><a xlink:href="../../d1/dc2/gslpp__complex_8h.html" target="_top" xlink:title="gslpp_complex.h">
<polygon fill="none" stroke="#ff0000" points="87,-54.5 87,-71.5 164,-71.5 164,-54.5 87,-54.5"/>
<text text-anchor="middle" x="125.5" y="-61.1" font-family="Helvetica,sans-Serif" font-size="8.00" fill="#000000">gslpp_complex.h</text>
</a>
</g>
</g>
<!-- Node0&#45;&gt;Node16 -->
<g id="edge4" class="edge">
<title>Node0&#45;&gt;Node16</title>
<path fill="none" stroke="#191970" d="M282.0277,-108.4435C250.3288,-99.2406 199.768,-84.5617 164.7251,-74.3879"/>
<polygon fill="#191970" stroke="#191970" points="165.4137,-70.9434 154.8344,-71.5164 163.462,-77.6658 165.4137,-70.9434"/>
</g>
<!-- Node29 -->
<g id="node6" class="node">
<title>Node29</title>
<g id="a_node6"><a xlink:href="../../d6/d0a/_standard_model_8h.html" target="_top" xlink:title="StandardModel.h">
<polygon fill="none" stroke="#ff0000" points="182,-54.5 182,-71.5 259,-71.5 259,-54.5 182,-54.5"/>
<text text-anchor="middle" x="220.5" y="-61.1" font-family="Helvetica,sans-Serif" font-size="8.00" fill="#000000">StandardModel.h</text>
</a>
</g>
</g>
<!-- Node0&#45;&gt;Node29 -->
<g id="edge5" class="edge">
<title>Node0&#45;&gt;Node29</title>
<path fill="none" stroke="#191970" d="M296.8793,-108.324C282.5511,-99.8215 260.4875,-86.7288 243.7513,-76.7975"/>
<polygon fill="#191970" stroke="#191970" points="245.4704,-73.7478 235.0844,-71.6545 241.8982,-79.7677 245.4704,-73.7478"/>
</g>
<!-- Node50 -->
<g id="node7" class="node">
<title>Node50</title>
<g id="a_node7"><a xlink:href="../../d8/dfb/_evol_d_f1nlep_8h.html" target="_top" xlink:title="EvolDF1nlep.h">
<polygon fill="none" stroke="#ff0000" points="277,-54.5 277,-71.5 346,-71.5 346,-54.5 277,-54.5"/>
<text text-anchor="middle" x="311.5" y="-61.1" font-family="Helvetica,sans-Serif" font-size="8.00" fill="#000000">EvolDF1nlep.h</text>
</a>
</g>
</g>
<!-- Node0&#45;&gt;Node50 -->
<g id="edge7" class="edge">
<title>Node0&#45;&gt;Node50</title>
<path fill="none" stroke="#191970" d="M311.5,-108.083C311.5,-101.0059 311.5,-90.8611 311.5,-81.9865"/>
<polygon fill="#191970" stroke="#191970" points="315.0001,-81.751 311.5,-71.7511 308.0001,-81.7511 315.0001,-81.751"/>
</g>
<!-- Node52 -->
<g id="node8" class="node">
<title>Node52</title>
<g id="a_node8"><a xlink:href="../../d1/dc8/_evol_d_b1_mll_8h.html" target="_top" xlink:title="EvolDB1Mll.h">
<polygon fill="none" stroke="#ff0000" points="364,-54.5 364,-71.5 429,-71.5 429,-54.5 364,-54.5"/>
<text text-anchor="middle" x="396.5" y="-61.1" font-family="Helvetica,sans-Serif" font-size="8.00" fill="#000000">EvolDB1Mll.h</text>
</a>
</g>
</g>
<!-- Node0&#45;&gt;Node52 -->
<g id="edge8" class="edge">
<title>Node0&#45;&gt;Node52</title>
<path fill="none" stroke="#191970" d="M325.1567,-108.324C338.4163,-99.9002 358.768,-86.9709 374.3462,-77.0741"/>
<polygon fill="#191970" stroke="#191970" points="376.3133,-79.9711 382.8772,-71.6545 372.5596,-74.0626 376.3133,-79.9711"/>
</g>
<!-- Node53 -->
<g id="node9" class="node">
<title>Node53</title>
<g id="a_node9"><a xlink:href="../../de/d14/_evol_d_b1bsg_8h.html" target="_top" xlink:title="EvolDB1bsg.h">
<polygon fill="none" stroke="#ff0000" points="447,-54.5 447,-71.5 514,-71.5 514,-54.5 447,-54.5"/>
<text text-anchor="middle" x="480.5" y="-61.1" font-family="Helvetica,sans-Serif" font-size="8.00" fill="#000000">EvolDB1bsg.h</text>
</a>
</g>
</g>
<!-- Node0&#45;&gt;Node53 -->
<g id="edge9" class="edge">
<title>Node0&#45;&gt;Node53</title>
<path fill="none" stroke="#191970" d="M338.2786,-108.4435C366.8331,-99.3196 412.2326,-84.8133 444.0369,-74.6509"/>
<polygon fill="#191970" stroke="#191970" points="445.3865,-77.8941 453.8467,-71.5164 443.2559,-71.2262 445.3865,-77.8941"/>
</g>
<!-- Node54 -->
<g id="node10" class="node">
<title>Node54</title>
<g id="a_node10"><a xlink:href="../../d8/df7/_evol_bsmm_8h.html" target="_top" xlink:title="EvolBsmm.h">
<polygon fill="none" stroke="#ff0000" points="532,-54.5 532,-71.5 593,-71.5 593,-54.5 532,-54.5"/>
<text text-anchor="middle" x="562.5" y="-61.1" font-family="Helvetica,sans-Serif" font-size="8.00" fill="#000000">EvolBsmm.h</text>
</a>
</g>
</g>
<!-- Node0&#45;&gt;Node54 -->
<g id="edge10" class="edge">
<title>Node0&#45;&gt;Node54</title>
<path fill="none" stroke="#191970" d="M342.7883,-110.5386C382.3226,-102.335 452.7077,-87.5993 522.0766,-72.2892"/>
<polygon fill="#191970" stroke="#191970" points="522.847,-75.7035 531.8547,-70.1257 521.3347,-68.8688 522.847,-75.7035"/>
</g>
<!-- Node2 -->
<g id="node3" class="node">
<title>Node2</title>
<g id="a_node3"><a xlink:href="../../d4/d68/_q_c_d_8h.html" target="_top" xlink:title="QCD.h">
<polygon fill="none" stroke="#ff0000" points="151,-.5 151,-17.5 192,-17.5 192,-.5 151,-.5"/>
<text text-anchor="middle" x="171.5" y="-7.1" font-family="Helvetica,sans-Serif" font-size="8.00" fill="#000000">QCD.h</text>
</a>
</g>
</g>
<!-- Node1&#45;&gt;Node2 -->
<g id="edge2" class="edge">
<title>Node1&#45;&gt;Node2</title>
<path fill="none" stroke="#191970" d="M62.9404,-54.4435C84.1704,-45.5566 117.599,-31.5632 141.755,-21.4514"/>
<polygon fill="#191970" stroke="#191970" points="143.2823,-24.6064 151.1552,-17.5164 140.5793,-18.1493 143.2823,-24.6064"/>
</g>
<!-- Node23 -->
<g id="node4" class="node">
<title>Node23</title>
<g id="a_node4"><a xlink:href="../../db/dba/_wilson_coefficient_8h.html" target="_top" xlink:title="WilsonCoefficient.h">
<polygon fill="none" stroke="#ff0000" points="0,-.5 0,-17.5 85,-17.5 85,-.5 0,-.5"/>
<text text-anchor="middle" x="42.5" y="-7.1" font-family="Helvetica,sans-Serif" font-size="8.00" fill="#000000">WilsonCoefficient.h</text>
</a>
</g>
</g>
<!-- Node1&#45;&gt;Node23 -->
<g id="edge3" class="edge">
<title>Node1&#45;&gt;Node23</title>
<path fill="none" stroke="#191970" d="M42.5,-54.083C42.5,-47.0059 42.5,-36.8611 42.5,-27.9865"/>
<polygon fill="#191970" stroke="#191970" points="46.0001,-27.751 42.5,-17.7511 39.0001,-27.7511 46.0001,-27.751"/>
</g>
<!-- Node29&#45;&gt;Node2 -->
<g id="edge6" class="edge">
<title>Node29&#45;&gt;Node2</title>
<path fill="none" stroke="#191970" d="M212.4086,-54.083C205.3446,-46.2982 194.9124,-34.8015 186.3511,-25.3665"/>
<polygon fill="#191970" stroke="#191970" points="188.7527,-22.8047 179.4408,-17.7511 183.5688,-27.5087 188.7527,-22.8047"/>
</g>
</g>
</svg>
