<?xml version="1.0" encoding="UTF-8" standalone="no"?>
<!DOCTYPE svg PUBLIC "-//W3C//DTD SVG 1.1//EN"
 "http://www.w3.org/Graphics/SVG/1.1/DTD/svg11.dtd">
<!-- Generated by graphviz version 2.40.1 (20161225.0304)
 -->
<!-- Title: BOL::BasicObserver Pages: 1 -->
<svg width="935pt" height="238pt"
 viewBox="0.00 0.00 935.00 237.50" xmlns="http://www.w3.org/2000/svg" xmlns:xlink="http://www.w3.org/1999/xlink">
<g id="graph0" class="graph" transform="scale(1 1) rotate(0) translate(4 233.5)">
<title>BOL::BasicObserver</title>
<!-- Node0 -->
<g id="node1" class="node">
<title>Node0</title>
<polygon fill="#bfbfbf" stroke="#000000" points="0,-17 0,-34 89,-34 89,-17 0,-17"/>
<text text-anchor="middle" x="44.5" y="-23.6" font-family="Helvetica,sans-Serif" font-size="8.00" fill="#000000">BOL::BasicObserver</text>
</g>
<!-- Node1 -->
<g id="node2" class="node">
<title>Node1</title>
<g id="a_node2"><a xlink:href="../../d5/d13/class_b_o_l_1_1_pushed_to_observer.html" target="_top" xlink:title="BOL::PushedToObserver\l\&lt; PushedClass \&gt;">
<polygon fill="none" stroke="#000000" points="126,-42.5 126,-68.5 232,-68.5 232,-42.5 126,-42.5"/>
<text text-anchor="start" x="134" y="-58.1" font-family="Helvetica,sans-Serif" font-size="8.00" fill="#000000">BOL::PushedToObserver</text>
<text text-anchor="middle" x="179" y="-49.1" font-family="Helvetica,sans-Serif" font-size="8.00" fill="#000000">&lt; PushedClass &gt;</text>
</a>
</g>
</g>
<!-- Node0&#45;&gt;Node1 -->
<g id="edge1" class="edge">
<title>Node0&#45;&gt;Node1</title>
<path fill="none" stroke="#191970" d="M92.7417,-36.2602C103.5014,-38.6602 114.9684,-41.2179 125.9114,-43.6587"/>
<polygon fill="#191970" stroke="#191970" points="93.2047,-32.7776 82.6825,-34.0166 91.6807,-39.6097 93.2047,-32.7776"/>
</g>
<!-- Node84 -->
<g id="node8" class="node">
<title>Node84</title>
<g id="a_node8"><a xlink:href="../../d5/d13/class_b_o_l_1_1_pushed_to_observer.html" target="_top" xlink:title="BOL::PushedToObserver\l\&lt; SpectrumUpdater \&gt;">
<polygon fill="none" stroke="#000000" points="354.5,-.5 354.5,-26.5 460.5,-26.5 460.5,-.5 354.5,-.5"/>
<text text-anchor="start" x="362.5" y="-16.1" font-family="Helvetica,sans-Serif" font-size="8.00" fill="#000000">BOL::PushedToObserver</text>
<text text-anchor="middle" x="407.5" y="-7.1" font-family="Helvetica,sans-Serif" font-size="8.00" fill="#000000">&lt; SpectrumUpdater &gt;</text>
</a>
</g>
</g>
<!-- Node0&#45;&gt;Node84 -->
<g id="edge12" class="edge">
<title>Node0&#45;&gt;Node84</title>
<path fill="none" stroke="#191970" d="M99.241,-23.6904C168.262,-21.4087 286.129,-17.5123 354.3766,-15.2561"/>
<polygon fill="#191970" stroke="#191970" points="98.8898,-20.2 89.0109,-24.0286 99.1211,-27.1962 98.8898,-20.2"/>
</g>
<!-- Node2 -->
<g id="node3" class="node">
<title>Node2</title>
<g id="a_node3"><a xlink:href="../../d2/d20/class_l_h_p_c_1_1_s_l_h_a_1_1_base_slha_block.html" target="_top" xlink:title="LHPC::SLHA::BaseSlhaBlock">
<polygon fill="none" stroke="#ff0000" points="347,-76 347,-93 468,-93 468,-76 347,-76"/>
<text text-anchor="middle" x="407.5" y="-82.6" font-family="Helvetica,sans-Serif" font-size="8.00" fill="#000000">LHPC::SLHA::BaseSlhaBlock</text>
</a>
</g>
</g>
<!-- Node1&#45;&gt;Node2 -->
<g id="edge2" class="edge">
<title>Node1&#45;&gt;Node2</title>
<path fill="none" stroke="#191970" d="M242.6082,-63.5728C275.2066,-67.71 314.7007,-72.7224 346.8638,-76.8044"/>
<polygon fill="#191970" stroke="#191970" points="242.6458,-60.0496 232.2847,-62.2626 241.7644,-66.9939 242.6458,-60.0496"/>
</g>
<!-- Node1&#45;&gt;Node84 -->
<g id="edge10" class="edge">
<title>Node1&#45;&gt;Node84</title>
<path fill="none" stroke="#ffa500" stroke-dasharray="5,2" d="M242.4357,-43.84C277.5663,-37.3828 320.7469,-29.4459 354.1308,-23.3096"/>
<polygon fill="#ffa500" stroke="#ffa500" points="241.4872,-40.4557 232.2847,-45.7059 242.7527,-47.3403 241.4872,-40.4557"/>
<text text-anchor="middle" x="289.5" y="-44.1" font-family="Helvetica,sans-Serif" font-size="8.00" fill="#000000"> &lt; SpectrumUpdater &gt;</text>
</g>
<!-- Node3 -->
<g id="node4" class="node">
<title>Node3</title>
<g id="a_node4"><a xlink:href="../../d6/daf/class_l_h_p_c_1_1_s_l_h_a_1_1_slha_block.html" target="_top" xlink:title="LHPC::SLHA::SlhaBlock\l\&lt; ValueClass, BlockParser \&gt;">
<polygon fill="none" stroke="#ff0000" points="505,-133.5 505,-159.5 623,-159.5 623,-133.5 505,-133.5"/>
<text text-anchor="start" x="513" y="-149.1" font-family="Helvetica,sans-Serif" font-size="8.00" fill="#000000">LHPC::SLHA::SlhaBlock</text>
<text text-anchor="middle" x="564" y="-140.1" font-family="Helvetica,sans-Serif" font-size="8.00" fill="#000000">&lt; ValueClass, BlockParser &gt;</text>
</a>
</g>
</g>
<!-- Node2&#45;&gt;Node3 -->
<g id="edge3" class="edge">
<title>Node2&#45;&gt;Node3</title>
<path fill="none" stroke="#191970" d="M438.8817,-96.9324C465.5802,-107.5094 503.8052,-122.6528 530.9658,-133.413"/>
<polygon fill="#191970" stroke="#191970" points="439.8468,-93.5501 429.2607,-93.1208 437.2685,-100.058 439.8468,-93.5501"/>
</g>
<!-- Node34 -->
<g id="node5" class="node">
<title>Node34</title>
<g id="a_node5"><a xlink:href="../../d6/daf/class_l_h_p_c_1_1_s_l_h_a_1_1_slha_block.html" target="_top" xlink:title="LHPC::SLHA::SlhaBlock\l\&lt; double, InterpreterClass\l::DenseSinglyIndexed\&lt; double \&gt; \&gt;">
<polygon fill="none" stroke="#ff0000" points="786.5,-194 786.5,-229 925.5,-229 925.5,-194 786.5,-194"/>
<text text-anchor="start" x="794.5" y="-218.6" font-family="Helvetica,sans-Serif" font-size="8.00" fill="#000000">LHPC::SLHA::SlhaBlock</text>
<text text-anchor="start" x="794.5" y="-209.6" font-family="Helvetica,sans-Serif" font-size="8.00" fill="#000000">&lt; double, InterpreterClass</text>
<text text-anchor="middle" x="856" y="-200.6" font-family="Helvetica,sans-Serif" font-size="8.00" fill="#000000">::DenseSinglyIndexed&lt; double &gt; &gt;</text>
</a>
</g>
</g>
<!-- Node2&#45;&gt;Node34 -->
<g id="edge8" class="edge">
<title>Node2&#45;&gt;Node34</title>
<path fill="none" stroke="#191970" d="M422.2513,-100.6918C440.1891,-119.5333 472.1588,-150.4832 505,-169.5 607.378,-228.7824 648.7433,-219.8192 767,-216.5 773.1879,-216.3263 779.6149,-216.0848 786.0552,-215.801"/>
<polygon fill="#191970" stroke="#191970" points="424.6368,-98.1183 415.2524,-93.2006 419.5218,-102.8971 424.6368,-98.1183"/>
</g>
<!-- Node58 -->
<g id="node6" class="node">
<title>Node58</title>
<g id="a_node6"><a xlink:href="../../d6/daf/class_l_h_p_c_1_1_s_l_h_a_1_1_slha_block.html" target="_top" xlink:title="LHPC::SLHA::SlhaBlock\l\&lt; double, InterpreterClass\l::DenseTriplyIndexed\&lt; double \&gt; \&gt;">
<polygon fill="none" stroke="#ff0000" points="787.5,-129 787.5,-164 924.5,-164 924.5,-129 787.5,-129"/>
<text text-anchor="start" x="795.5" y="-153.6" font-family="Helvetica,sans-Serif" font-size="8.00" fill="#000000">LHPC::SLHA::SlhaBlock</text>
<text text-anchor="start" x="795.5" y="-144.6" font-family="Helvetica,sans-Serif" font-size="8.00" fill="#000000">&lt; double, InterpreterClass</text>
<text text-anchor="middle" x="856" y="-135.6" font-family="Helvetica,sans-Serif" font-size="8.00" fill="#000000">::DenseTriplyIndexed&lt; double &gt; &gt;</text>
</a>
</g>
</g>
<!-- Node2&#45;&gt;Node58 -->
<g id="edge9" class="edge">
<title>Node2&#45;&gt;Node58</title>
<path fill="none" stroke="#191970" d="M478.3165,-77.9568C551.8719,-73.2986 669.6058,-71.884 767,-98.5 790.0307,-104.7939 813.7095,-117.9474 830.8478,-128.8959"/>
<polygon fill="#191970" stroke="#191970" points="477.9807,-74.4714 468.2375,-78.6331 478.4494,-81.4557 477.9807,-74.4714"/>
</g>
<!-- Node82 -->
<g id="node7" class="node">
<title>Node82</title>
<g id="a_node7"><a xlink:href="../../d6/daf/class_l_h_p_c_1_1_s_l_h_a_1_1_slha_block.html" target="_top" xlink:title="LHPC::SLHA::SlhaBlock\l\&lt; double, InterpreterClass\l::DenseDoublyIndexed\&lt; double \&gt; \&gt;">
<polygon fill="none" stroke="#ff0000" points="785,-53 785,-88 927,-88 927,-53 785,-53"/>
<text text-anchor="start" x="793" y="-77.6" font-family="Helvetica,sans-Serif" font-size="8.00" fill="#000000">LHPC::SLHA::SlhaBlock</text>
<text text-anchor="start" x="793" y="-68.6" font-family="Helvetica,sans-Serif" font-size="8.00" fill="#000000">&lt; double, InterpreterClass</text>
<text text-anchor="middle" x="856" y="-59.6" font-family="Helvetica,sans-Serif" font-size="8.00" fill="#000000">::DenseDoublyIndexed&lt; double &gt; &gt;</text>
</a>
</g>
</g>
<!-- Node2&#45;&gt;Node82 -->
<g id="edge7" class="edge">
<title>Node2&#45;&gt;Node82</title>
<path fill="none" stroke="#191970" d="M457.6484,-74.1996C467.0311,-72.659 476.7846,-71.3153 486,-70.5 589.6576,-61.329 710.2907,-63.765 784.9048,-66.7905"/>
<polygon fill="#191970" stroke="#191970" points="456.9104,-70.7753 447.6557,-75.933 458.1068,-77.6723 456.9104,-70.7753"/>
</g>
<!-- Node3&#45;&gt;Node34 -->
<g id="edge4" class="edge">
<title>Node3&#45;&gt;Node34</title>
<path fill="none" stroke="#ffa500" stroke-dasharray="5,2" d="M617.0422,-162.2618C625.0427,-164.4628 633.2192,-166.6137 641,-168.5 689.2771,-180.2041 744.2043,-191.1496 786.4563,-199.0684"/>
<polygon fill="#ffa500" stroke="#ffa500" points="617.9824,-158.8905 607.4091,-159.5666 616.0963,-165.6316 617.9824,-158.8905"/>
<text text-anchor="start" x="642.5" y="-206.1" font-family="Helvetica,sans-Serif" font-size="8.00" fill="#000000"> &lt; double, InterpreterClass</text>
<text text-anchor="middle" x="704" y="-197.1" font-family="Helvetica,sans-Serif" font-size="8.00" fill="#000000">::DenseSinglyIndexed&lt; double &gt; &gt;</text>
</g>
<!-- Node3&#45;&gt;Node58 -->
<g id="edge5" class="edge">
<title>Node3&#45;&gt;Node58</title>
<path fill="none" stroke="#ffa500" stroke-dasharray="5,2" d="M633.3825,-146.5C679.8932,-146.5 740.879,-146.5 787.2564,-146.5"/>
<polygon fill="#ffa500" stroke="#ffa500" points="633.0906,-143.0001 623.0906,-146.5 633.0905,-150.0001 633.0906,-143.0001"/>
<text text-anchor="start" x="643.5" y="-158.1" font-family="Helvetica,sans-Serif" font-size="8.00" fill="#000000"> &lt; double, InterpreterClass</text>
<text text-anchor="middle" x="704" y="-149.1" font-family="Helvetica,sans-Serif" font-size="8.00" fill="#000000">::DenseTriplyIndexed&lt; double &gt; &gt;</text>
</g>
<!-- Node3&#45;&gt;Node82 -->
<g id="edge6" class="edge">
<title>Node3&#45;&gt;Node82</title>
<path fill="none" stroke="#ffa500" stroke-dasharray="5,2" d="M618.5254,-130.6858C626.0647,-128.568 633.7175,-126.4544 641,-124.5 688.7641,-111.6819 742.7482,-98.1262 784.6736,-87.8031"/>
<polygon fill="#ffa500" stroke="#ffa500" points="617.3902,-127.3695 608.7203,-133.4592 619.2954,-134.1053 617.3902,-127.3695"/>
<text text-anchor="start" x="641" y="-136.1" font-family="Helvetica,sans-Serif" font-size="8.00" fill="#000000"> &lt; double, InterpreterClass</text>
<text text-anchor="middle" x="704" y="-127.1" font-family="Helvetica,sans-Serif" font-size="8.00" fill="#000000">::DenseDoublyIndexed&lt; double &gt; &gt;</text>
</g>
<!-- Node85 -->
<g id="node9" class="node">
<title>Node85</title>
<g id="a_node9"><a xlink:href="../../d3/d8f/class_l_h_p_c_1_1_mass_spectrum.html" target="_top" xlink:title="LHPC::MassSpectrum">
<polygon fill="none" stroke="#ff0000" points="516,-1 516,-18 612,-18 612,-1 516,-1"/>
<text text-anchor="middle" x="564" y="-7.6" font-family="Helvetica,sans-Serif" font-size="8.00" fill="#000000">LHPC::MassSpectrum</text>
</a>
</g>
</g>
<!-- Node84&#45;&gt;Node85 -->
<g id="edge11" class="edge">
<title>Node84&#45;&gt;Node85</title>
<path fill="none" stroke="#191970" d="M471.1059,-11.8743C486.0283,-11.4929 501.6875,-11.0927 515.8071,-10.7318"/>
<polygon fill="#191970" stroke="#191970" points="470.828,-8.3802 460.9207,-12.1346 471.0069,-15.3779 470.828,-8.3802"/>
</g>
</g>
</svg>
