<?xml version="1.0" encoding="UTF-8" standalone="no"?>
<!DOCTYPE svg PUBLIC "-//W3C//DTD SVG 1.1//EN"
 "http://www.w3.org/Graphics/SVG/1.1/DTD/svg11.dtd">
<!-- Generated by graphviz version 2.40.1 (20161225.0304)
 -->
<!-- Title: RGEvolutor.h Pages: 1 -->
<svg width="661pt" height="134pt"
 viewBox="0.00 0.00 660.50 134.00" xmlns="http://www.w3.org/2000/svg" xmlns:xlink="http://www.w3.org/1999/xlink">
<g id="graph0" class="graph" transform="scale(1 1) rotate(0) translate(4 130)">
<title>RGEvolutor.h</title>
<!-- Node21 -->
<g id="node1" class="node">
<title>Node21</title>
<polygon fill="#bfbfbf" stroke="#000000" points="280.5,-108.5 280.5,-125.5 345.5,-125.5 345.5,-108.5 280.5,-108.5"/>
<text text-anchor="middle" x="313" y="-115.1" font-family="Helvetica,sans-Serif" font-size="8.00" fill="#000000">RGEvolutor.h</text>
</g>
<!-- Node22 -->
<g id="node2" class="node">
<title>Node22</title>
<g id="a_node2"><a xlink:href="../../de/dce/_evol_d_f2_8h.html" target="_top" xlink:title="EvolDF2.h">
<polygon fill="none" stroke="#ff0000" points="5,-54.5 5,-71.5 59,-71.5 59,-54.5 5,-54.5"/>
<text text-anchor="middle" x="32" y="-61.1" font-family="Helvetica,sans-Serif" font-size="8.00" fill="#000000">EvolDF2.h</text>
</a>
</g>
</g>
<!-- Node21&#45;&gt;Node22 -->
<g id="edge1" class="edge">
<title>Node21&#45;&gt;Node22</title>
<path fill="none" stroke="#191970" d="M270.23,-109.8621C221.4,-101.5391 139.1994,-86.9987 69,-72 65.7675,-71.3094 62.3863,-70.5452 59.0377,-69.7625"/>
<polygon fill="#191970" stroke="#191970" points="269.6823,-113.3191 280.127,-111.5417 270.8536,-106.4178 269.6823,-113.3191"/>
</g>
<!-- Node26 -->
<g id="node4" class="node">
<title>Node26</title>
<g id="a_node4"><a xlink:href="../../d8/df7/_evol_bsmm_8h.html" target="_top" xlink:title="EvolBsmm.h">
<polygon fill="none" stroke="#ff0000" points="77.5,-54.5 77.5,-71.5 138.5,-71.5 138.5,-54.5 77.5,-54.5"/>
<text text-anchor="middle" x="108" y="-61.1" font-family="Helvetica,sans-Serif" font-size="8.00" fill="#000000">EvolBsmm.h</text>
</a>
</g>
</g>
<!-- Node21&#45;&gt;Node26 -->
<g id="edge3" class="edge">
<title>Node21&#45;&gt;Node26</title>
<path fill="none" stroke="#191970" d="M270.6898,-105.8549C231.3615,-95.4952 173.7251,-80.313 138.6568,-71.0755"/>
<polygon fill="#191970" stroke="#191970" points="269.9554,-109.2808 280.5171,-108.4435 271.7386,-102.5117 269.9554,-109.2808"/>
</g>
<!-- Node30 -->
<g id="node5" class="node">
<title>Node30</title>
<g id="a_node5"><a xlink:href="../../de/d14/_evol_d_b1bsg_8h.html" target="_top" xlink:title="EvolDB1bsg.h">
<polygon fill="none" stroke="#ff0000" points="156.5,-54.5 156.5,-71.5 223.5,-71.5 223.5,-54.5 156.5,-54.5"/>
<text text-anchor="middle" x="190" y="-61.1" font-family="Helvetica,sans-Serif" font-size="8.00" fill="#000000">EvolDB1bsg.h</text>
</a>
</g>
</g>
<!-- Node21&#45;&gt;Node30 -->
<g id="edge4" class="edge">
<title>Node21&#45;&gt;Node30</title>
<path fill="none" stroke="#191970" d="M284.2266,-104.3678C261.1926,-94.2553 229.5162,-80.3486 209.3985,-71.5164"/>
<polygon fill="#191970" stroke="#191970" points="282.9468,-107.6283 293.5103,-108.4435 285.7608,-101.2188 282.9468,-107.6283"/>
</g>
<!-- Node33 -->
<g id="node6" class="node">
<title>Node33</title>
<g id="a_node6"><a xlink:href="../../d1/dc8/_evol_d_b1_mll_8h.html" target="_top" xlink:title="EvolDB1Mll.h">
<polygon fill="none" stroke="#ff0000" points="241.5,-54.5 241.5,-71.5 306.5,-71.5 306.5,-54.5 241.5,-54.5"/>
<text text-anchor="middle" x="274" y="-61.1" font-family="Helvetica,sans-Serif" font-size="8.00" fill="#000000">EvolDB1Mll.h</text>
</a>
</g>
</g>
<!-- Node21&#45;&gt;Node33 -->
<g id="edge5" class="edge">
<title>Node21&#45;&gt;Node33</title>
<path fill="none" stroke="#191970" d="M300.6178,-99.8554C293.8646,-90.5048 285.7914,-79.3265 280.3202,-71.7511"/>
<polygon fill="#191970" stroke="#191970" points="297.8676,-102.0254 306.5599,-108.083 303.5424,-97.927 297.8676,-102.0254"/>
</g>
<!-- Node36 -->
<g id="node7" class="node">
<title>Node36</title>
<g id="a_node7"><a xlink:href="../../d4/d98/_evol_d_c1_8h.html" target="_top" xlink:title="EvolDC1.h">
<polygon fill="none" stroke="#ff0000" points="324.5,-54.5 324.5,-71.5 379.5,-71.5 379.5,-54.5 324.5,-54.5"/>
<text text-anchor="middle" x="352" y="-61.1" font-family="Helvetica,sans-Serif" font-size="8.00" fill="#000000">EvolDC1.h</text>
</a>
</g>
</g>
<!-- Node21&#45;&gt;Node36 -->
<g id="edge6" class="edge">
<title>Node21&#45;&gt;Node36</title>
<path fill="none" stroke="#191970" d="M325.3822,-99.8554C332.1354,-90.5048 340.2086,-79.3265 345.6798,-71.7511"/>
<polygon fill="#191970" stroke="#191970" points="322.4576,-97.927 319.4401,-108.083 328.1324,-102.0254 322.4576,-97.927"/>
</g>
<!-- Node39 -->
<g id="node8" class="node">
<title>Node39</title>
<g id="a_node8"><a xlink:href="../../d6/da2/_evol_d_c1_buras_8h.html" target="_top" xlink:title="EvolDC1Buras.h">
<polygon fill="none" stroke="#ff0000" points="398,-54.5 398,-71.5 474,-71.5 474,-54.5 398,-54.5"/>
<text text-anchor="middle" x="436" y="-61.1" font-family="Helvetica,sans-Serif" font-size="8.00" fill="#000000">EvolDC1Buras.h</text>
</a>
</g>
</g>
<!-- Node21&#45;&gt;Node39 -->
<g id="edge7" class="edge">
<title>Node21&#45;&gt;Node39</title>
<path fill="none" stroke="#191970" d="M341.7734,-104.3678C364.8074,-94.2553 396.4838,-80.3486 416.6015,-71.5164"/>
<polygon fill="#191970" stroke="#191970" points="340.2392,-101.2188 332.4897,-108.4435 343.0532,-107.6283 340.2392,-101.2188"/>
</g>
<!-- Node41 -->
<g id="node9" class="node">
<title>Node41</title>
<g id="a_node9"><a xlink:href="../../d8/dfb/_evol_d_f1nlep_8h.html" target="_top" xlink:title="EvolDF1nlep.h">
<polygon fill="none" stroke="#ff0000" points="492.5,-54.5 492.5,-71.5 561.5,-71.5 561.5,-54.5 492.5,-54.5"/>
<text text-anchor="middle" x="527" y="-61.1" font-family="Helvetica,sans-Serif" font-size="8.00" fill="#000000">EvolDF1nlep.h</text>
</a>
</g>
</g>
<!-- Node21&#45;&gt;Node41 -->
<g id="edge8" class="edge">
<title>Node21&#45;&gt;Node41</title>
<path fill="none" stroke="#191970" d="M355.3227,-106.3204C395.721,-96.1265 455.8063,-80.9648 493.1298,-71.5467"/>
<polygon fill="#191970" stroke="#191970" points="354.3417,-102.9582 345.502,-108.7986 356.0544,-109.7454 354.3417,-102.9582"/>
</g>
<!-- Node44 -->
<g id="node10" class="node">
<title>Node44</title>
<g id="a_node10"><a xlink:href="../../d0/d43/_r_g_evolutor_8cpp.html" target="_top" xlink:title="RGEvolutor.cpp">
<polygon fill="none" stroke="#000000" points="579.5,-54.5 579.5,-71.5 652.5,-71.5 652.5,-54.5 579.5,-54.5"/>
<text text-anchor="middle" x="616" y="-61.1" font-family="Helvetica,sans-Serif" font-size="8.00" fill="#000000">RGEvolutor.cpp</text>
</a>
</g>
</g>
<!-- Node21&#45;&gt;Node44 -->
<g id="edge9" class="edge">
<title>Node21&#45;&gt;Node44</title>
<path fill="none" stroke="#191970" d="M355.6664,-109.8902C406.877,-101.28 495.3217,-86.1654 571,-72 573.6626,-71.5016 576.4117,-70.9769 579.1774,-70.4415"/>
<polygon fill="#191970" stroke="#191970" points="354.9115,-106.4679 345.6287,-111.5747 356.0701,-113.3713 354.9115,-106.4679"/>
</g>
<!-- Node23 -->
<g id="node3" class="node">
<title>Node23</title>
<g id="a_node3"><a xlink:href="../../d5/ddc/_amp_d_b2_8cpp.html" target="_top" xlink:title="AmpDB2.cpp">
<polygon fill="none" stroke="#000000" points="0,-.5 0,-17.5 64,-17.5 64,-.5 0,-.5"/>
<text text-anchor="middle" x="32" y="-7.1" font-family="Helvetica,sans-Serif" font-size="8.00" fill="#000000">AmpDB2.cpp</text>
</a>
</g>
</g>
<!-- Node22&#45;&gt;Node23 -->
<g id="edge2" class="edge">
<title>Node22&#45;&gt;Node23</title>
<path fill="none" stroke="#191970" d="M32,-43.8045C32,-34.9102 32,-24.7798 32,-17.7511"/>
<polygon fill="#191970" stroke="#191970" points="28.5001,-44.083 32,-54.083 35.5001,-44.083 28.5001,-44.083"/>
</g>
</g>
</svg>
