<?xml version="1.0" encoding="UTF-8" standalone="no"?>
<!DOCTYPE svg PUBLIC "-//W3C//DTD SVG 1.1//EN"
 "http://www.w3.org/Graphics/SVG/1.1/DTD/svg11.dtd">
<!-- Generated by graphviz version 2.40.1 (20161225.0304)
 -->
<!-- Title: FlavorObservableError.hpp Pages: 1 -->
<svg width="804pt" height="197pt"
 viewBox="0.00 0.00 804.00 197.00" xmlns="http://www.w3.org/2000/svg" xmlns:xlink="http://www.w3.org/1999/xlink">
<g id="graph0" class="graph" transform="scale(1 1) rotate(0) translate(4 193)">
<title>FlavorObservableError.hpp</title>
<!-- Node39 -->
<g id="node1" class="node">
<title>Node39</title>
<polygon fill="#bfbfbf" stroke="#000000" points="346,-171.5 346,-188.5 459,-188.5 459,-171.5 346,-171.5"/>
<text text-anchor="middle" x="402.5" y="-178.1" font-family="Helvetica,sans-Serif" font-size="8.00" fill="#000000">FlavorObservableError.hpp</text>
</g>
<!-- Node40 -->
<g id="node2" class="node">
<title>Node40</title>
<g id="a_node2"><a xlink:href="../../de/d0c/_flha_one_8hpp.html" target="_top" xlink:title="FlhaOne.hpp">
<polygon fill="none" stroke="#000000" points="371,-117.5 371,-134.5 434,-134.5 434,-117.5 371,-117.5"/>
<text text-anchor="middle" x="402.5" y="-124.1" font-family="Helvetica,sans-Serif" font-size="8.00" fill="#000000">FlhaOne.hpp</text>
</a>
</g>
</g>
<!-- Node39&#45;&gt;Node40 -->
<g id="edge1" class="edge">
<title>Node39&#45;&gt;Node40</title>
<path fill="none" stroke="#191970" d="M402.5,-160.8045C402.5,-151.9102 402.5,-141.7798 402.5,-134.7511"/>
<polygon fill="#191970" stroke="#191970" points="399.0001,-161.083 402.5,-171.083 406.0001,-161.083 399.0001,-161.083"/>
</g>
<!-- Node41 -->
<g id="node3" class="node">
<title>Node41</title>
<g id="a_node3"><a xlink:href="../../d4/d42/_s_l_h_a_8hpp.html" target="_top" xlink:title="SLHA.hpp">
<polygon fill="none" stroke="#ff0000" points="376,-63.5 376,-80.5 429,-80.5 429,-63.5 376,-63.5"/>
<text text-anchor="middle" x="402.5" y="-70.1" font-family="Helvetica,sans-Serif" font-size="8.00" fill="#000000">SLHA.hpp</text>
</a>
</g>
</g>
<!-- Node40&#45;&gt;Node41 -->
<g id="edge2" class="edge">
<title>Node40&#45;&gt;Node41</title>
<path fill="none" stroke="#191970" d="M402.5,-106.8045C402.5,-97.9102 402.5,-87.7798 402.5,-80.7511"/>
<polygon fill="#191970" stroke="#191970" points="399.0001,-107.083 402.5,-117.083 406.0001,-107.083 399.0001,-107.083"/>
</g>
<!-- Node42 -->
<g id="node4" class="node">
<title>Node42</title>
<g id="a_node4"><a xlink:href="../../da/d87/main__libmode__slha2__to___general_s_u_s_yconfigfile_8cpp.html" target="_top" xlink:title="main_libmode_slha2\l_to_GeneralSUSYconfigfile.cpp">
<polygon fill="none" stroke="#000000" points="0,-.5 0,-26.5 129,-26.5 129,-.5 0,-.5"/>
<text text-anchor="start" x="8" y="-16.1" font-family="Helvetica,sans-Serif" font-size="8.00" fill="#000000">main_libmode_slha2</text>
<text text-anchor="middle" x="64.5" y="-7.1" font-family="Helvetica,sans-Serif" font-size="8.00" fill="#000000">_to_GeneralSUSYconfigfile.cpp</text>
</a>
</g>
</g>
<!-- Node41&#45;&gt;Node42 -->
<g id="edge3" class="edge">
<title>Node41&#45;&gt;Node42</title>
<path fill="none" stroke="#191970" d="M365.8503,-65.9509C314.6853,-57.4663 218.9602,-41.4479 137.5,-27 134.835,-26.5273 132.116,-26.0414 129.3698,-25.5475"/>
<polygon fill="#191970" stroke="#191970" points="365.3338,-69.413 375.7714,-67.5943 366.4778,-62.5071 365.3338,-69.413"/>
</g>
<!-- Node43 -->
<g id="node5" class="node">
<title>Node43</title>
<g id="a_node5"><a xlink:href="../../d5/d2a/_base_slha_block_8cpp.html" target="_top" xlink:title="BaseSlhaBlock.cpp">
<polygon fill="none" stroke="#000000" points="147,-5 147,-22 232,-22 232,-5 147,-5"/>
<text text-anchor="middle" x="189.5" y="-11.6" font-family="Helvetica,sans-Serif" font-size="8.00" fill="#000000">BaseSlhaBlock.cpp</text>
</a>
</g>
</g>
<!-- Node41&#45;&gt;Node43 -->
<g id="edge4" class="edge">
<title>Node41&#45;&gt;Node43</title>
<path fill="none" stroke="#191970" d="M366.1007,-62.003C325.1061,-50.7439 259.1803,-32.6375 220.5308,-22.0225"/>
<polygon fill="#191970" stroke="#191970" points="365.3842,-65.4358 375.9541,-64.7092 367.2381,-58.6857 365.3842,-65.4358"/>
</g>
<!-- Node44 -->
<g id="node6" class="node">
<title>Node44</title>
<g id="a_node6"><a xlink:href="../../dc/dae/_base_string_block_8cpp.html" target="_top" xlink:title="BaseStringBlock.cpp">
<polygon fill="none" stroke="#000000" points="250.5,-5 250.5,-22 340.5,-22 340.5,-5 250.5,-5"/>
<text text-anchor="middle" x="295.5" y="-11.6" font-family="Helvetica,sans-Serif" font-size="8.00" fill="#000000">BaseStringBlock.cpp</text>
</a>
</g>
</g>
<!-- Node41&#45;&gt;Node44 -->
<g id="edge5" class="edge">
<title>Node41&#45;&gt;Node44</title>
<path fill="none" stroke="#191970" d="M377.6682,-58.4237C357.2206,-47.2445 328.8442,-31.7302 311.353,-22.1673"/>
<polygon fill="#191970" stroke="#191970" points="376.2585,-61.6419 386.7118,-63.3681 379.6165,-55.4999 376.2585,-61.6419"/>
</g>
<!-- Node45 -->
<g id="node7" class="node">
<title>Node45</title>
<g id="a_node7"><a xlink:href="../../d6/d46/_block_interpreter_8cpp.html" target="_top" xlink:title="BlockInterpreter.cpp">
<polygon fill="none" stroke="#000000" points="358.5,-5 358.5,-22 446.5,-22 446.5,-5 358.5,-5"/>
<text text-anchor="middle" x="402.5" y="-11.6" font-family="Helvetica,sans-Serif" font-size="8.00" fill="#000000">BlockInterpreter.cpp</text>
</a>
</g>
</g>
<!-- Node41&#45;&gt;Node45 -->
<g id="edge6" class="edge">
<title>Node41&#45;&gt;Node45</title>
<path fill="none" stroke="#191970" d="M402.5,-53.1601C402.5,-42.7439 402.5,-30.3023 402.5,-22.1673"/>
<polygon fill="#191970" stroke="#191970" points="399.0001,-53.3681 402.5,-63.3681 406.0001,-53.3682 399.0001,-53.3681"/>
</g>
<!-- Node46 -->
<g id="node8" class="node">
<title>Node46</title>
<g id="a_node8"><a xlink:href="../../d4/de4/_lines_as_strings_8cpp.html" target="_top" xlink:title="LinesAsStrings.cpp">
<polygon fill="none" stroke="#000000" points="465,-5 465,-22 550,-22 550,-5 465,-5"/>
<text text-anchor="middle" x="507.5" y="-11.6" font-family="Helvetica,sans-Serif" font-size="8.00" fill="#000000">LinesAsStrings.cpp</text>
</a>
</g>
</g>
<!-- Node41&#45;&gt;Node46 -->
<g id="edge7" class="edge">
<title>Node41&#45;&gt;Node46</title>
<path fill="none" stroke="#191970" d="M426.8676,-58.4237C446.933,-47.2445 474.7791,-31.7302 491.9433,-22.1673"/>
<polygon fill="#191970" stroke="#191970" points="425.0253,-55.4436 417.9931,-63.3681 428.4323,-61.5585 425.0253,-55.4436"/>
</g>
<!-- Node47 -->
<g id="node9" class="node">
<title>Node47</title>
<g id="a_node9"><a xlink:href="../../d9/d6e/_lines_as_strings_block_8cpp.html" target="_top" xlink:title="LinesAsStringsBlock.cpp">
<polygon fill="none" stroke="#000000" points="568,-5 568,-22 673,-22 673,-5 568,-5"/>
<text text-anchor="middle" x="620.5" y="-11.6" font-family="Helvetica,sans-Serif" font-size="8.00" fill="#000000">LinesAsStringsBlock.cpp</text>
</a>
</g>
</g>
<!-- Node41&#45;&gt;Node47 -->
<g id="edge8" class="edge">
<title>Node41&#45;&gt;Node47</title>
<path fill="none" stroke="#191970" d="M439.0209,-62.1997C480.8706,-50.9694 548.7888,-32.7436 588.5967,-22.0612"/>
<polygon fill="#191970" stroke="#191970" points="437.9822,-58.8545 429.2311,-64.8268 439.7965,-65.6153 437.9822,-58.8545"/>
</g>
<!-- Node48 -->
<g id="node10" class="node">
<title>Node48</title>
<g id="a_node10"><a xlink:href="../../d4/d9e/_same_name_block_set_8cpp.html" target="_top" xlink:title="SameNameBlockSet.cpp">
<polygon fill="none" stroke="#000000" points="691,-5 691,-22 796,-22 796,-5 691,-5"/>
<text text-anchor="middle" x="743.5" y="-11.6" font-family="Helvetica,sans-Serif" font-size="8.00" fill="#000000">SameNameBlockSet.cpp</text>
</a>
</g>
</g>
<!-- Node41&#45;&gt;Node48 -->
<g id="edge9" class="edge">
<title>Node41&#45;&gt;Node48</title>
<path fill="none" stroke="#191970" d="M439.2831,-66.7887C492.922,-59.0307 595.675,-43.57 682.5,-27 690.2776,-25.5157 698.5797,-23.7802 706.4747,-22.0574"/>
<polygon fill="#191970" stroke="#191970" points="438.6288,-63.3467 429.2294,-68.2356 439.6261,-70.2753 438.6288,-63.3467"/>
</g>
</g>
</svg>
