<?xml version="1.0" encoding="UTF-8" standalone="no"?>
<!DOCTYPE svg PUBLIC "-//W3C//DTD SVG 1.1//EN"
 "http://www.w3.org/Graphics/SVG/1.1/DTD/svg11.dtd">
<!-- Generated by graphviz version 2.40.1 (20161225.0304)
 -->
<!-- Title: EvolDF2.cpp Pages: 1 -->
<svg width="462pt" height="188pt"
 viewBox="0.00 0.00 462.00 188.00" xmlns="http://www.w3.org/2000/svg" xmlns:xlink="http://www.w3.org/1999/xlink">
<g id="graph0" class="graph" transform="scale(1 1) rotate(0) translate(4 184)">
<title>EvolDF2.cpp</title>
<!-- Node0 -->
<g id="node1" class="node">
<title>Node0</title>
<polygon fill="#bfbfbf" stroke="#000000" points="54,-162.5 54,-179.5 116,-179.5 116,-162.5 54,-162.5"/>
<text text-anchor="middle" x="85" y="-169.1" font-family="Helvetica,sans-Serif" font-size="8.00" fill="#000000">EvolDF2.cpp</text>
</g>
<!-- Node1 -->
<g id="node2" class="node">
<title>Node1</title>
<polygon fill="none" stroke="#bfbfbf" points="0,-108.5 0,-125.5 40,-125.5 40,-108.5 0,-108.5"/>
<text text-anchor="middle" x="20" y="-115.1" font-family="Helvetica,sans-Serif" font-size="8.00" fill="#000000">cstring</text>
</g>
<!-- Node0&#45;&gt;Node1 -->
<g id="edge1" class="edge">
<title>Node0&#45;&gt;Node1</title>
<path fill="none" stroke="#191970" d="M74.5566,-162.324C64.8538,-154.2631 50.1847,-142.0765 38.5003,-132.3695"/>
<polygon fill="#191970" stroke="#191970" points="40.5619,-129.532 30.6334,-125.8339 36.0887,-134.9163 40.5619,-129.532"/>
</g>
<!-- Node2 -->
<g id="node3" class="node">
<title>Node2</title>
<g id="a_node3"><a xlink:href="../../de/dce/_evol_d_f2_8h.html" target="_top" xlink:title="EvolDF2.h">
<polygon fill="none" stroke="#000000" points="58,-108.5 58,-125.5 112,-125.5 112,-108.5 58,-108.5"/>
<text text-anchor="middle" x="85" y="-115.1" font-family="Helvetica,sans-Serif" font-size="8.00" fill="#000000">EvolDF2.h</text>
</a>
</g>
</g>
<!-- Node0&#45;&gt;Node2 -->
<g id="edge2" class="edge">
<title>Node0&#45;&gt;Node2</title>
<path fill="none" stroke="#191970" d="M85,-162.083C85,-155.0059 85,-144.8611 85,-135.9865"/>
<polygon fill="#191970" stroke="#191970" points="88.5001,-135.751 85,-125.7511 81.5001,-135.7511 88.5001,-135.751"/>
</g>
<!-- Node24 -->
<g id="node5" class="node">
<title>Node24</title>
<g id="a_node5"><a xlink:href="../../d6/d0a/_standard_model_8h.html" target="_top" xlink:title="StandardModel.h">
<polygon fill="none" stroke="#ff0000" points="177.5,-108.5 177.5,-125.5 254.5,-125.5 254.5,-108.5 177.5,-108.5"/>
<text text-anchor="middle" x="216" y="-115.1" font-family="Helvetica,sans-Serif" font-size="8.00" fill="#000000">StandardModel.h</text>
</a>
</g>
</g>
<!-- Node0&#45;&gt;Node24 -->
<g id="edge4" class="edge">
<title>Node0&#45;&gt;Node24</title>
<path fill="none" stroke="#191970" d="M105.7573,-162.4435C127.3164,-153.5566 161.2633,-139.5632 185.7938,-129.4514"/>
<polygon fill="#191970" stroke="#191970" points="187.4283,-132.5634 195.3398,-125.5164 184.7606,-126.0917 187.4283,-132.5634"/>
</g>
<!-- Node3 -->
<g id="node4" class="node">
<title>Node3</title>
<g id="a_node4"><a xlink:href="../../dc/d57/_r_g_evolutor_8h.html" target="_top" xlink:title="RGEvolutor.h">
<polygon fill="none" stroke="#ff0000" points="30.5,-54.5 30.5,-71.5 95.5,-71.5 95.5,-54.5 30.5,-54.5"/>
<text text-anchor="middle" x="63" y="-61.1" font-family="Helvetica,sans-Serif" font-size="8.00" fill="#000000">RGEvolutor.h</text>
</a>
</g>
</g>
<!-- Node2&#45;&gt;Node3 -->
<g id="edge3" class="edge">
<title>Node2&#45;&gt;Node3</title>
<path fill="none" stroke="#191970" d="M81.3671,-108.083C78.3878,-100.77 74.0739,-90.1814 70.3755,-81.1034"/>
<polygon fill="#191970" stroke="#191970" points="73.5796,-79.6914 66.5653,-71.7511 67.097,-82.3326 73.5796,-79.6914"/>
</g>
<!-- Node25 -->
<g id="node6" class="node">
<title>Node25</title>
<g id="a_node6"><a xlink:href="../../d2/d65/_flavour_8h.html" target="_top" xlink:title="Flavour.h">
<polygon fill="none" stroke="#ff0000" points="114,-54.5 114,-71.5 164,-71.5 164,-54.5 114,-54.5"/>
<text text-anchor="middle" x="139" y="-61.1" font-family="Helvetica,sans-Serif" font-size="8.00" fill="#000000">Flavour.h</text>
</a>
</g>
</g>
<!-- Node24&#45;&gt;Node25 -->
<g id="edge5" class="edge">
<title>Node24&#45;&gt;Node25</title>
<path fill="none" stroke="#191970" d="M203.6286,-108.324C191.8415,-100.0577 173.8677,-87.4527 159.8645,-77.6322"/>
<polygon fill="#191970" stroke="#191970" points="161.5376,-74.5307 151.3407,-71.6545 157.5184,-80.2619 161.5376,-74.5307"/>
</g>
<!-- Node26 -->
<g id="node7" class="node">
<title>Node26</title>
<g id="a_node7"><a xlink:href="../../d4/d68/_q_c_d_8h.html" target="_top" xlink:title="QCD.h">
<polygon fill="none" stroke="#ff0000" points="144.5,-.5 144.5,-17.5 185.5,-17.5 185.5,-.5 144.5,-.5"/>
<text text-anchor="middle" x="165" y="-7.1" font-family="Helvetica,sans-Serif" font-size="8.00" fill="#000000">QCD.h</text>
</a>
</g>
</g>
<!-- Node24&#45;&gt;Node26 -->
<g id="edge7" class="edge">
<title>Node24&#45;&gt;Node26</title>
<path fill="none" stroke="#191970" d="M211.8265,-108.1619C203.4544,-90.4328 184.4683,-50.2271 173.4147,-26.8193"/>
<polygon fill="#191970" stroke="#191970" points="176.5237,-25.2063 169.0887,-17.6584 170.1939,-28.1954 176.5237,-25.2063"/>
</g>
<!-- Node40 -->
<g id="node8" class="node">
<title>Node40</title>
<g id="a_node8"><a xlink:href="../../db/d5d/_c_k_m_8h.html" target="_top" xlink:title="CKM.h">
<polygon fill="none" stroke="#ff0000" points="220.5,-54.5 220.5,-71.5 261.5,-71.5 261.5,-54.5 220.5,-54.5"/>
<text text-anchor="middle" x="241" y="-61.1" font-family="Helvetica,sans-Serif" font-size="8.00" fill="#000000">CKM.h</text>
</a>
</g>
</g>
<!-- Node24&#45;&gt;Node40 -->
<g id="edge8" class="edge">
<title>Node24&#45;&gt;Node40</title>
<path fill="none" stroke="#191970" d="M220.1282,-108.083C223.5139,-100.77 228.416,-90.1814 232.6188,-81.1034"/>
<polygon fill="#191970" stroke="#191970" points="235.9234,-82.2962 236.9486,-71.7511 229.5711,-79.3553 235.9234,-82.2962"/>
</g>
<!-- Node42 -->
<g id="node9" class="node">
<title>Node42</title>
<g id="a_node9"><a xlink:href="../../d9/d22/_p_m_n_s_8h.html" target="_top" xlink:title="PMNS.h">
<polygon fill="none" stroke="#ff0000" points="280,-54.5 280,-71.5 326,-71.5 326,-54.5 280,-54.5"/>
<text text-anchor="middle" x="303" y="-61.1" font-family="Helvetica,sans-Serif" font-size="8.00" fill="#000000">PMNS.h</text>
</a>
</g>
</g>
<!-- Node24&#45;&gt;Node42 -->
<g id="edge9" class="edge">
<title>Node24&#45;&gt;Node42</title>
<path fill="none" stroke="#191970" d="M229.9781,-108.324C243.5496,-99.9002 264.3802,-86.9709 280.325,-77.0741"/>
<polygon fill="#191970" stroke="#191970" points="282.406,-79.9019 289.0566,-71.6545 278.7144,-73.9544 282.406,-79.9019"/>
</g>
<!-- Node43 -->
<g id="node10" class="node">
<title>Node43</title>
<g id="a_node10"><a xlink:href="../../d6/d16/_standard_model_matching_8h.html" target="_top" xlink:title="StandardModelMatching.h">
<polygon fill="none" stroke="#ff0000" points="344,-54.5 344,-71.5 454,-71.5 454,-54.5 344,-54.5"/>
<text text-anchor="middle" x="399" y="-61.1" font-family="Helvetica,sans-Serif" font-size="8.00" fill="#000000">StandardModelMatching.h</text>
</a>
</g>
</g>
<!-- Node24&#45;&gt;Node43 -->
<g id="edge10" class="edge">
<title>Node24&#45;&gt;Node43</title>
<path fill="none" stroke="#191970" d="M244.9969,-108.4435C276.1846,-99.2406 325.9299,-84.5617 360.4075,-74.3879"/>
<polygon fill="#191970" stroke="#191970" points="361.5382,-77.7036 370.1388,-71.5164 359.557,-70.9898 361.5382,-77.7036"/>
</g>
<!-- Node25&#45;&gt;Node26 -->
<g id="edge6" class="edge">
<title>Node25&#45;&gt;Node26</title>
<path fill="none" stroke="#191970" d="M143.2934,-54.083C146.8523,-46.6913 152.0225,-35.9533 156.4243,-26.8111"/>
<polygon fill="#191970" stroke="#191970" points="159.6018,-28.2795 160.7865,-17.7511 153.2948,-25.2427 159.6018,-28.2795"/>
</g>
</g>
</svg>
