<?xml version="1.0" encoding="UTF-8" standalone="no"?>
<!DOCTYPE svg PUBLIC "-//W3C//DTD SVG 1.1//EN"
 "http://www.w3.org/Graphics/SVG/1.1/DTD/svg11.dtd">
<!-- Generated by graphviz version 2.40.1 (20161225.0304)
 -->
<!-- Title: Matching.h Pages: 1 -->
<svg width="653pt" height="188pt"
 viewBox="0.00 0.00 652.50 188.00" xmlns="http://www.w3.org/2000/svg" xmlns:xlink="http://www.w3.org/1999/xlink">
<g id="graph0" class="graph" transform="scale(1 1) rotate(0) translate(4 184)">
<title>Matching.h</title>
<!-- Node2 -->
<g id="node1" class="node">
<title>Node2</title>
<polygon fill="#bfbfbf" stroke="#000000" points="271.5,-162.5 271.5,-179.5 327.5,-179.5 327.5,-162.5 271.5,-162.5"/>
<text text-anchor="middle" x="299.5" y="-169.1" font-family="Helvetica,sans-Serif" font-size="8.00" fill="#000000">Matching.h</text>
</g>
<!-- Node3 -->
<g id="node2" class="node">
<title>Node3</title>
<g id="a_node2"><a xlink:href="../../d6/d0a/_standard_model_8h.html" target="_top" xlink:title="StandardModel.h">
<polygon fill="none" stroke="#ff0000" points="261,-108.5 261,-125.5 338,-125.5 338,-108.5 261,-108.5"/>
<text text-anchor="middle" x="299.5" y="-115.1" font-family="Helvetica,sans-Serif" font-size="8.00" fill="#000000">StandardModel.h</text>
</a>
</g>
</g>
<!-- Node2&#45;&gt;Node3 -->
<g id="edge1" class="edge">
<title>Node2&#45;&gt;Node3</title>
<path fill="none" stroke="#191970" d="M299.5,-151.8045C299.5,-142.9102 299.5,-132.7798 299.5,-125.7511"/>
<polygon fill="#191970" stroke="#191970" points="296.0001,-152.083 299.5,-162.083 303.0001,-152.083 296.0001,-152.083"/>
</g>
<!-- Node4 -->
<g id="node3" class="node">
<title>Node4</title>
<g id="a_node3"><a xlink:href="../../df/dae/main__als__test_8cpp.html" target="_top" xlink:title="main_als_test.cpp">
<polygon fill="none" stroke="#000000" points="0,-.5 0,-17.5 81,-17.5 81,-.5 0,-.5"/>
<text text-anchor="middle" x="40.5" y="-7.1" font-family="Helvetica,sans-Serif" font-size="8.00" fill="#000000">main_als_test.cpp</text>
</a>
</g>
</g>
<!-- Node3&#45;&gt;Node4 -->
<g id="edge2" class="edge">
<title>Node3&#45;&gt;Node4</title>
<path fill="none" stroke="#191970" d="M250.4745,-112.528C174.4335,-105.0911 35.2164,-89.2802 20.5,-72 6.9586,-56.0995 22.78,-30.9653 33.0583,-17.7632"/>
<polygon fill="#191970" stroke="#191970" points="250.4754,-116.0443 260.7654,-113.5211 251.1479,-109.0766 250.4754,-116.0443"/>
</g>
<!-- Node5 -->
<g id="node4" class="node">
<title>Node5</title>
<g id="a_node4"><a xlink:href="../../d1/dae/_compute_observables_8h.html" target="_top" xlink:title="ComputeObservables.h">
<polygon fill="none" stroke="#ff0000" points="30,-54.5 30,-71.5 131,-71.5 131,-54.5 30,-54.5"/>
<text text-anchor="middle" x="80.5" y="-61.1" font-family="Helvetica,sans-Serif" font-size="8.00" fill="#000000">ComputeObservables.h</text>
</a>
</g>
</g>
<!-- Node3&#45;&gt;Node5 -->
<g id="edge3" class="edge">
<title>Node3&#45;&gt;Node5</title>
<path fill="none" stroke="#191970" d="M254.9851,-106.0237C213.6161,-95.8232 152.857,-80.8414 115.0388,-71.5164"/>
<polygon fill="#191970" stroke="#191970" points="254.2517,-109.4476 264.7988,-108.4435 255.9275,-102.6512 254.2517,-109.4476"/>
</g>
<!-- Node11 -->
<g id="node5" class="node">
<title>Node11</title>
<g id="a_node5"><a xlink:href="../../dd/d0f/_abottom_8cpp.html" target="_top" xlink:title="Abottom.cpp">
<polygon fill="none" stroke="#000000" points="149,-54.5 149,-71.5 210,-71.5 210,-54.5 149,-54.5"/>
<text text-anchor="middle" x="179.5" y="-61.1" font-family="Helvetica,sans-Serif" font-size="8.00" fill="#000000">Abottom.cpp</text>
</a>
</g>
</g>
<!-- Node3&#45;&gt;Node11 -->
<g id="edge5" class="edge">
<title>Node3&#45;&gt;Node11</title>
<path fill="none" stroke="#191970" d="M271.1269,-104.2321C248.6804,-94.1312 217.9648,-80.3091 198.4254,-71.5164"/>
<polygon fill="#191970" stroke="#191970" points="269.9301,-107.5316 280.4856,-108.4435 272.8027,-101.1481 269.9301,-107.5316"/>
</g>
<!-- Node12 -->
<g id="node6" class="node">
<title>Node12</title>
<g id="a_node6"><a xlink:href="../../d5/d2d/_acharm_8cpp.html" target="_top" xlink:title="Acharm.cpp">
<polygon fill="none" stroke="#000000" points="228,-54.5 228,-71.5 287,-71.5 287,-54.5 228,-54.5"/>
<text text-anchor="middle" x="257.5" y="-61.1" font-family="Helvetica,sans-Serif" font-size="8.00" fill="#000000">Acharm.cpp</text>
</a>
</g>
</g>
<!-- Node3&#45;&gt;Node12 -->
<g id="edge6" class="edge">
<title>Node3&#45;&gt;Node12</title>
<path fill="none" stroke="#191970" d="M286.3898,-100.144C279.0722,-90.7357 270.2591,-79.4046 264.3064,-71.7511"/>
<polygon fill="#191970" stroke="#191970" points="283.6624,-102.3383 292.5646,-108.083 289.1878,-98.0406 283.6624,-102.3383"/>
</g>
<!-- Node13 -->
<g id="node7" class="node">
<title>Node13</title>
<g id="a_node7"><a xlink:href="../../d9/d12/_a_f_bbottom_8cpp.html" target="_top" xlink:title="AFBbottom.cpp">
<polygon fill="none" stroke="#000000" points="305.5,-54.5 305.5,-71.5 377.5,-71.5 377.5,-54.5 305.5,-54.5"/>
<text text-anchor="middle" x="341.5" y="-61.1" font-family="Helvetica,sans-Serif" font-size="8.00" fill="#000000">AFBbottom.cpp</text>
</a>
</g>
</g>
<!-- Node3&#45;&gt;Node13 -->
<g id="edge7" class="edge">
<title>Node3&#45;&gt;Node13</title>
<path fill="none" stroke="#191970" d="M312.6102,-100.144C319.9278,-90.7357 328.7409,-79.4046 334.6936,-71.7511"/>
<polygon fill="#191970" stroke="#191970" points="309.8122,-98.0406 306.4354,-108.083 315.3376,-102.3383 309.8122,-98.0406"/>
</g>
<!-- Node14 -->
<g id="node8" class="node">
<title>Node14</title>
<g id="a_node8"><a xlink:href="../../d3/dcc/_a_f_bcharm_8cpp.html" target="_top" xlink:title="AFBcharm.cpp">
<polygon fill="none" stroke="#000000" points="396,-54.5 396,-71.5 465,-71.5 465,-54.5 396,-54.5"/>
<text text-anchor="middle" x="430.5" y="-61.1" font-family="Helvetica,sans-Serif" font-size="8.00" fill="#000000">AFBcharm.cpp</text>
</a>
</g>
</g>
<!-- Node3&#45;&gt;Node14 -->
<g id="edge8" class="edge">
<title>Node3&#45;&gt;Node14</title>
<path fill="none" stroke="#191970" d="M329.8169,-104.503C354.3756,-94.3795 388.318,-80.388 409.8398,-71.5164"/>
<polygon fill="#191970" stroke="#191970" points="328.1688,-101.3966 320.2573,-108.4435 330.8366,-107.8683 328.1688,-101.3966"/>
</g>
<!-- Node15 -->
<g id="node9" class="node">
<title>Node15</title>
<g id="a_node9"><a xlink:href="../../de/d15/_a_f_blepton_8cpp.html" target="_top" xlink:title="AFBlepton.cpp">
<polygon fill="none" stroke="#000000" points="483,-54.5 483,-71.5 552,-71.5 552,-54.5 483,-54.5"/>
<text text-anchor="middle" x="517.5" y="-61.1" font-family="Helvetica,sans-Serif" font-size="8.00" fill="#000000">AFBlepton.cpp</text>
</a>
</g>
</g>
<!-- Node3&#45;&gt;Node15 -->
<g id="edge9" class="edge">
<title>Node3&#45;&gt;Node15</title>
<path fill="none" stroke="#191970" d="M343.8117,-106.0237C384.9917,-95.8232 445.4734,-80.8414 483.1189,-71.5164"/>
<polygon fill="#191970" stroke="#191970" points="342.9078,-102.6417 334.0427,-108.4435 344.591,-109.4364 342.9078,-102.6417"/>
</g>
<!-- Node16 -->
<g id="node10" class="node">
<title>Node16</title>
<g id="a_node10"><a xlink:href="../../d9/db7/_a_f_bstrange_8cpp.html" target="_top" xlink:title="AFBstrange.cpp">
<polygon fill="none" stroke="#000000" points="570.5,-54.5 570.5,-71.5 644.5,-71.5 644.5,-54.5 570.5,-54.5"/>
<text text-anchor="middle" x="607.5" y="-61.1" font-family="Helvetica,sans-Serif" font-size="8.00" fill="#000000">AFBstrange.cpp</text>
</a>
</g>
</g>
<!-- Node3&#45;&gt;Node16 -->
<g id="edge10" class="edge">
<title>Node3&#45;&gt;Node16</title>
<path fill="none" stroke="#191970" d="M348.2398,-108.9747C400.8973,-100.2236 487.2402,-85.6399 561.5,-72 564.3813,-71.4708 567.3619,-70.9124 570.3569,-70.3436"/>
<polygon fill="#191970" stroke="#191970" points="347.4633,-105.5556 338.171,-110.6452 348.609,-112.4613 347.4633,-105.5556"/>
</g>
<!-- Node5&#45;&gt;Node4 -->
<g id="edge4" class="edge">
<title>Node5&#45;&gt;Node4</title>
<path fill="none" stroke="#191970" d="M67.8003,-45.8554C60.874,-36.5048 52.5937,-25.3265 46.9823,-17.7511"/>
<polygon fill="#191970" stroke="#191970" points="65.13,-48.1307 73.8948,-54.083 70.755,-43.9641 65.13,-48.1307"/>
</g>
</g>
</svg>
