<?xml version="1.0" encoding="UTF-8" standalone="no"?>
<!DOCTYPE svg PUBLIC "-//W3C//DTD SVG 1.1//EN"
 "http://www.w3.org/Graphics/SVG/1.1/DTD/svg11.dtd">
<!-- Generated by graphviz version 2.38.0 (20140413.2041)
 -->
<!-- Title: EvolDB1Mll.h Pages: 1 -->
<svg width="333pt" height="242pt"
 viewBox="0.00 0.00 333.00 242.00" xmlns="http://www.w3.org/2000/svg" xmlns:xlink="http://www.w3.org/1999/xlink">
<g id="graph0" class="graph" transform="scale(1 1) rotate(0) translate(4 238)">
<title>EvolDB1Mll.h</title>
<!-- Node1 -->
<g id="node1" class="node"><title>Node1</title>
<polygon fill="#bfbfbf" stroke="black" points="184,-216.5 184,-233.5 249,-233.5 249,-216.5 184,-216.5"/>
<text text-anchor="middle" x="216.5" y="-223.1" font-family="Helvetica,sans-Serif" font-size="8.00">EvolDB1Mll.h</text>
</g>
<!-- Node2 -->
<g id="node2" class="node"><title>Node2</title>
<g id="a_node2"><a xlink:href="../../d9/d29/_heff_d_b1_8h.html" target="_top" xlink:title="HeffDB1.h">
<polygon fill="none" stroke="black" points="150,-162.5 150,-179.5 203,-179.5 203,-162.5 150,-162.5"/>
<text text-anchor="middle" x="176.5" y="-169.1" font-family="Helvetica,sans-Serif" font-size="8.00">HeffDB1.h</text>
</a>
</g>
</g>
<!-- Node1&#45;&gt;Node2 -->
<g id="edge1" class="edge"><title>Node1&#45;&gt;Node2</title>
<path fill="none" stroke="midnightblue" d="M204.296,-208.134C197.042,-198.704 188.166,-187.166 182.426,-179.704"/>
<polygon fill="midnightblue" stroke="midnightblue" points="201.727,-210.535 210.598,-216.327 207.275,-206.267 201.727,-210.535"/>
</g>
<!-- Node10 -->
<g id="node10" class="node"><title>Node10</title>
<g id="a_node10"><a xlink:href="../../d4/d75/_evol_d_b1_mll_8cpp.html" target="_top" xlink:title="EvolDB1Mll.cpp">
<polygon fill="none" stroke="black" points="221,-162.5 221,-179.5 294,-179.5 294,-162.5 221,-162.5"/>
<text text-anchor="middle" x="257.5" y="-169.1" font-family="Helvetica,sans-Serif" font-size="8.00">EvolDB1Mll.cpp</text>
</a>
</g>
</g>
<!-- Node1&#45;&gt;Node10 -->
<g id="edge10" class="edge"><title>Node1&#45;&gt;Node10</title>
<path fill="none" stroke="midnightblue" d="M228.78,-208.425C236.257,-198.943 245.481,-187.243 251.425,-179.704"/>
<polygon fill="midnightblue" stroke="midnightblue" points="225.993,-206.307 222.55,-216.327 231.49,-210.642 225.993,-206.307"/>
</g>
<!-- Node3 -->
<g id="node3" class="node"><title>Node3</title>
<g id="a_node3"><a xlink:href="../../d2/d65/_flavour_8h.html" target="_top" xlink:title="Flavour.h">
<polygon fill="none" stroke="red" points="114.5,-108.5 114.5,-125.5 164.5,-125.5 164.5,-108.5 114.5,-108.5"/>
<text text-anchor="middle" x="139.5" y="-115.1" font-family="Helvetica,sans-Serif" font-size="8.00">Flavour.h</text>
</a>
</g>
</g>
<!-- Node2&#45;&gt;Node3 -->
<g id="edge2" class="edge"><title>Node2&#45;&gt;Node3</title>
<path fill="none" stroke="midnightblue" d="M165.211,-154.134C158.501,-144.704 150.291,-133.166 144.982,-125.704"/>
<polygon fill="midnightblue" stroke="midnightblue" points="162.391,-156.208 171.041,-162.327 168.095,-152.15 162.391,-156.208"/>
</g>
<!-- Node9 -->
<g id="node9" class="node"><title>Node9</title>
<g id="a_node9"><a xlink:href="../../d5/d20/_heff_d_b1_8cpp.html" target="_top" xlink:title="HeffDB1.cpp">
<polygon fill="none" stroke="black" points="182.5,-108.5 182.5,-125.5 244.5,-125.5 244.5,-108.5 182.5,-108.5"/>
<text text-anchor="middle" x="213.5" y="-115.1" font-family="Helvetica,sans-Serif" font-size="8.00">HeffDB1.cpp</text>
</a>
</g>
</g>
<!-- Node2&#45;&gt;Node9 -->
<g id="edge9" class="edge"><title>Node2&#45;&gt;Node9</title>
<path fill="none" stroke="midnightblue" d="M187.789,-154.134C194.499,-144.704 202.709,-133.166 208.018,-125.704"/>
<polygon fill="midnightblue" stroke="midnightblue" points="184.905,-152.15 181.959,-162.327 190.609,-156.208 184.905,-152.15"/>
</g>
<!-- Node4 -->
<g id="node4" class="node"><title>Node4</title>
<g id="a_node4"><a xlink:href="../../da/d41/_amp_d_b2_8h.html" target="_top" xlink:title="AmpDB2.h">
<polygon fill="none" stroke="red" points="0,-54.5 0,-71.5 55,-71.5 55,-54.5 0,-54.5"/>
<text text-anchor="middle" x="27.5" y="-61.1" font-family="Helvetica,sans-Serif" font-size="8.00">AmpDB2.h</text>
</a>
</g>
</g>
<!-- Node3&#45;&gt;Node4 -->
<g id="edge3" class="edge"><title>Node3&#45;&gt;Node4</title>
<path fill="none" stroke="midnightblue" d="M113.741,-104.041C92.1791,-94.0296 62.0726,-80.0516 43.7297,-71.5352"/>
<polygon fill="midnightblue" stroke="midnightblue" points="112.43,-107.291 122.974,-108.327 115.378,-100.942 112.43,-107.291"/>
</g>
<!-- Node5 -->
<g id="node5" class="node"><title>Node5</title>
<g id="a_node5"><a xlink:href="../../df/d5c/_betas___j_psi_phi_8h.html" target="_top" xlink:title="Betas_JPsiPhi.h">
<polygon fill="none" stroke="red" points="18,-0.5 18,-17.5 93,-17.5 93,-0.5 18,-0.5"/>
<text text-anchor="middle" x="55.5" y="-7.1" font-family="Helvetica,sans-Serif" font-size="8.00">Betas_JPsiPhi.h</text>
</a>
</g>
</g>
<!-- Node3&#45;&gt;Node5 -->
<g id="edge7" class="edge"><title>Node3&#45;&gt;Node5</title>
<path fill="none" stroke="midnightblue" d="M126.602,-100.444C119.695,-92.0617 111.073,-81.5142 103.5,-72 88.071,-52.6157 70.3194,-29.4566 61.3459,-17.6875"/>
<polygon fill="midnightblue" stroke="midnightblue" points="123.995,-102.784 133.063,-108.262 129.39,-98.3244 123.995,-102.784"/>
</g>
<!-- Node6 -->
<g id="node6" class="node"><title>Node6</title>
<g id="a_node6"><a xlink:href="../../d9/d37/_amp_d_k2_8h.html" target="_top" xlink:title="AmpDK2.h">
<polygon fill="none" stroke="red" points="112,-54.5 112,-71.5 167,-71.5 167,-54.5 112,-54.5"/>
<text text-anchor="middle" x="139.5" y="-61.1" font-family="Helvetica,sans-Serif" font-size="8.00">AmpDK2.h</text>
</a>
</g>
</g>
<!-- Node3&#45;&gt;Node6 -->
<g id="edge5" class="edge"><title>Node3&#45;&gt;Node6</title>
<path fill="none" stroke="midnightblue" d="M139.5,-98.0621C139.5,-89.0603 139.5,-78.6277 139.5,-71.7043"/>
<polygon fill="midnightblue" stroke="midnightblue" points="136,-98.3272 139.5,-108.327 143,-98.3273 136,-98.3272"/>
</g>
<!-- Node7 -->
<g id="node7" class="node"><title>Node7</title>
<g id="a_node7"><a xlink:href="../../d4/d3e/_bdmumu_8h.html" target="_top" xlink:title="Bdmumu.h">
<polygon fill="none" stroke="red" points="185,-54.5 185,-71.5 240,-71.5 240,-54.5 185,-54.5"/>
<text text-anchor="middle" x="212.5" y="-61.1" font-family="Helvetica,sans-Serif" font-size="8.00">Bdmumu.h</text>
</a>
</g>
</g>
<!-- Node3&#45;&gt;Node7 -->
<g id="edge6" class="edge"><title>Node3&#45;&gt;Node7</title>
<path fill="none" stroke="midnightblue" d="M158.563,-102.421C172.3,-92.6354 190.345,-79.7816 201.684,-71.7043"/>
<polygon fill="midnightblue" stroke="midnightblue" points="156.386,-99.6746 150.271,-108.327 160.447,-105.376 156.386,-99.6746"/>
</g>
<!-- Node8 -->
<g id="node8" class="node"><title>Node8</title>
<g id="a_node8"><a xlink:href="../../dd/d19/_flavour_2src_2bsgamma_8cpp.html" target="_top" xlink:title="bsgamma.cpp">
<polygon fill="none" stroke="black" points="258,-54.5 258,-71.5 325,-71.5 325,-54.5 258,-54.5"/>
<text text-anchor="middle" x="291.5" y="-61.1" font-family="Helvetica,sans-Serif" font-size="8.00">bsgamma.cpp</text>
</a>
</g>
</g>
<!-- Node3&#45;&gt;Node8 -->
<g id="edge8" class="edge"><title>Node3&#45;&gt;Node8</title>
<path fill="none" stroke="midnightblue" d="M171.381,-105.093C200.756,-95.0441 243.581,-80.3934 269.371,-71.5704"/>
<polygon fill="midnightblue" stroke="midnightblue" points="169.931,-101.89 161.602,-108.439 172.197,-108.513 169.931,-101.89"/>
</g>
<!-- Node4&#45;&gt;Node5 -->
<g id="edge4" class="edge"><title>Node4&#45;&gt;Node5</title>
<path fill="none" stroke="midnightblue" d="M36.5174,-45.2534C41.5029,-35.9946 47.4579,-24.9354 51.3516,-17.7043"/>
<polygon fill="midnightblue" stroke="midnightblue" points="33.2909,-43.8631 31.6315,-54.3272 39.4542,-47.1819 33.2909,-43.8631"/>
</g>
</g>
</svg>
