<?xml version="1.0" encoding="UTF-8" standalone="no"?>
<!DOCTYPE svg PUBLIC "-//W3C//DTD SVG 1.1//EN"
 "http://www.w3.org/Graphics/SVG/1.1/DTD/svg11.dtd">
<!-- Generated by graphviz version 2.40.1 (20161225.0304)
 -->
<!-- Title: SlhaParser.hpp Pages: 1 -->
<svg width="462pt" height="350pt"
 viewBox="0.00 0.00 462.00 350.00" xmlns="http://www.w3.org/2000/svg" xmlns:xlink="http://www.w3.org/1999/xlink">
<g id="graph0" class="graph" transform="scale(1 1) rotate(0) translate(4 346)">
<title>SlhaParser.hpp</title>
<!-- Node0 -->
<g id="node1" class="node">
<title>Node0</title>
<polygon fill="#bfbfbf" stroke="#000000" points="166,-324.5 166,-341.5 238,-341.5 238,-324.5 166,-324.5"/>
<text text-anchor="middle" x="202" y="-331.1" font-family="Helvetica,sans-Serif" font-size="8.00" fill="#000000">SlhaParser.hpp</text>
</g>
<!-- Node1 -->
<g id="node2" class="node">
<title>Node1</title>
<polygon fill="none" stroke="#bfbfbf" points="226,-.5 226,-17.5 262,-17.5 262,-.5 226,-.5"/>
<text text-anchor="middle" x="244" y="-7.1" font-family="Helvetica,sans-Serif" font-size="8.00" fill="#000000">string</text>
</g>
<!-- Node0&#45;&gt;Node1 -->
<g id="edge1" class="edge">
<title>Node0&#45;&gt;Node1</title>
<path fill="none" stroke="#191970" d="M165.8864,-329.8989C107.7841,-322.7143 0,-299.3646 0,-225 0,-225 0,-225 0,-117 0,-70.2654 151.5698,-30.1107 215.7885,-15.1949"/>
<polygon fill="#191970" stroke="#191970" points="216.6899,-18.5793 225.6603,-12.9417 215.1322,-11.7548 216.6899,-18.5793"/>
</g>
<!-- Node2 -->
<g id="node3" class="node">
<title>Node2</title>
<polygon fill="none" stroke="#bfbfbf" points="142,-162.5 142,-179.5 174,-179.5 174,-162.5 142,-162.5"/>
<text text-anchor="middle" x="158" y="-169.1" font-family="Helvetica,sans-Serif" font-size="8.00" fill="#000000">map</text>
</g>
<!-- Node0&#45;&gt;Node2 -->
<g id="edge2" class="edge">
<title>Node0&#45;&gt;Node2</title>
<path fill="none" stroke="#191970" d="M165.8792,-328.1879C141.3665,-322.8361 110.6668,-311.5847 95,-288 71.8477,-253.1466 113.1239,-208.9516 139.157,-186.1461"/>
<polygon fill="#191970" stroke="#191970" points="141.6,-188.6638 146.9727,-179.5323 137.0782,-183.3203 141.6,-188.6638"/>
</g>
<!-- Node3 -->
<g id="node4" class="node">
<title>Node3</title>
<g id="a_node4"><a xlink:href="../../d8/d14/_b_o_llib_8hpp.html" target="_top" xlink:title="BOLlib/include/BOLlib.hpp">
<polygon fill="none" stroke="#ff0000" points="143,-108.5 143,-125.5 253,-125.5 253,-108.5 143,-108.5"/>
<text text-anchor="middle" x="198" y="-115.1" font-family="Helvetica,sans-Serif" font-size="8.00" fill="#000000">BOLlib/include/BOLlib.hpp</text>
</a>
</g>
</g>
<!-- Node0&#45;&gt;Node3 -->
<g id="edge3" class="edge">
<title>Node0&#45;&gt;Node3</title>
<path fill="none" stroke="#191970" d="M167.969,-324.496C137.0199,-315.9921 94.7335,-302.1723 85,-288 51.8124,-239.6779 83.6726,-204.5458 124,-162 136.5581,-148.7511 153.8481,-137.9478 168.5575,-130.2503"/>
<polygon fill="#191970" stroke="#191970" points="170.3933,-133.2457 177.7753,-125.6459 167.2652,-126.9834 170.3933,-133.2457"/>
</g>
<!-- Node38 -->
<g id="node6" class="node">
<title>Node38</title>
<g id="a_node6"><a xlink:href="../../dc/db9/_mass_spectrum_8hpp.html" target="_top" xlink:title="../MEC/MassSpectrum.hpp">
<polygon fill="none" stroke="#ff0000" points="104,-270.5 104,-287.5 216,-287.5 216,-270.5 104,-270.5"/>
<text text-anchor="middle" x="160" y="-277.1" font-family="Helvetica,sans-Serif" font-size="8.00" fill="#000000">../MEC/MassSpectrum.hpp</text>
</a>
</g>
</g>
<!-- Node0&#45;&gt;Node38 -->
<g id="edge6" class="edge">
<title>Node0&#45;&gt;Node38</title>
<path fill="none" stroke="#191970" d="M195.0646,-324.083C189.0708,-316.3768 180.2482,-305.0333 172.9524,-295.6531"/>
<polygon fill="#191970" stroke="#191970" points="175.7086,-293.4958 166.8064,-287.7511 170.1831,-297.7934 175.7086,-293.4958"/>
</g>
<!-- Node46 -->
<g id="node7" class="node">
<title>Node46</title>
<g id="a_node7"><a xlink:href="../../d5/dc2/_spectrum_updater_8hpp.html" target="_top" xlink:title="SpectrumUpdater.hpp">
<polygon fill="none" stroke="#ff0000" points="180.5,-216.5 180.5,-233.5 275.5,-233.5 275.5,-216.5 180.5,-216.5"/>
<text text-anchor="middle" x="228" y="-223.1" font-family="Helvetica,sans-Serif" font-size="8.00" fill="#000000">SpectrumUpdater.hpp</text>
</a>
</g>
</g>
<!-- Node0&#45;&gt;Node46 -->
<g id="edge20" class="edge">
<title>Node0&#45;&gt;Node46</title>
<path fill="none" stroke="#191970" d="M207.7546,-324.4849C213.3085,-315.7527 221.3905,-301.5661 225,-288 228.8369,-273.5791 229.4388,-256.6582 229.1627,-243.9858"/>
<polygon fill="#191970" stroke="#191970" points="232.6488,-243.5794 228.7299,-233.736 225.655,-243.8748 232.6488,-243.5794"/>
</g>
<!-- Node41 -->
<g id="node8" class="node">
<title>Node41</title>
<g id="a_node8"><a xlink:href="../../d7/db2/_running_constant_8hpp.html" target="_top" xlink:title="RunningConstant.hpp">
<polygon fill="none" stroke="#000000" points="230,-162.5 230,-179.5 324,-179.5 324,-162.5 230,-162.5"/>
<text text-anchor="middle" x="277" y="-169.1" font-family="Helvetica,sans-Serif" font-size="8.00" fill="#000000">RunningConstant.hpp</text>
</a>
</g>
</g>
<!-- Node0&#45;&gt;Node41 -->
<g id="edge18" class="edge">
<title>Node0&#45;&gt;Node41</title>
<path fill="none" stroke="#191970" d="M213.0504,-324.3883C232.0205,-308.8033 270.083,-273.8183 284,-234 288.9988,-219.6979 286.5966,-202.5584 283.308,-189.7697"/>
<polygon fill="#191970" stroke="#191970" points="286.5581,-188.4197 280.3535,-179.8318 279.8483,-190.4145 286.5581,-188.4197"/>
</g>
<!-- Node42 -->
<g id="node9" class="node">
<title>Node42</title>
<g id="a_node9"><a xlink:href="../../d7/dc2/_running_constant_error_8hpp.html" target="_top" xlink:title="RunningConstantError.hpp">
<polygon fill="none" stroke="#000000" points="342,-162.5 342,-179.5 454,-179.5 454,-162.5 342,-162.5"/>
<text text-anchor="middle" x="398" y="-169.1" font-family="Helvetica,sans-Serif" font-size="8.00" fill="#000000">RunningConstantError.hpp</text>
</a>
</g>
</g>
<!-- Node0&#45;&gt;Node42 -->
<g id="edge19" class="edge">
<title>Node0&#45;&gt;Node42</title>
<path fill="none" stroke="#191970" d="M238.379,-329.306C289.9508,-321.7963 381.7448,-299.4354 415,-234 422.3621,-219.5138 416.1372,-201.4828 409.2398,-188.427"/>
<polygon fill="#191970" stroke="#191970" points="412.1192,-186.4176 404.048,-179.5541 406.0774,-189.9528 412.1192,-186.4176"/>
</g>
<!-- Node47 -->
<g id="node10" class="node">
<title>Node47</title>
<g id="a_node10"><a xlink:href="../../d5/dae/_block_types_8hpp.html" target="_top" xlink:title="BlockTypes.hpp">
<polygon fill="none" stroke="#ff0000" points="332.5,-216.5 332.5,-233.5 405.5,-233.5 405.5,-216.5 332.5,-216.5"/>
<text text-anchor="middle" x="369" y="-223.1" font-family="Helvetica,sans-Serif" font-size="8.00" fill="#000000">BlockTypes.hpp</text>
</a>
</g>
</g>
<!-- Node0&#45;&gt;Node47 -->
<g id="edge21" class="edge">
<title>Node0&#45;&gt;Node47</title>
<path fill="none" stroke="#191970" d="M237.3406,-324.4806C261.6276,-317.4396 293.7414,-305.6935 318,-288 334.9971,-275.6028 349.535,-256.1998 358.6894,-242.2014"/>
<polygon fill="#191970" stroke="#191970" points="361.7822,-243.8574 364.131,-233.5262 355.8522,-240.1378 361.7822,-243.8574"/>
</g>
<!-- Node4 -->
<g id="node5" class="node">
<title>Node4</title>
<g id="a_node5"><a xlink:href="../../dc/d4c/_argument_parser_8hpp.html" target="_top" xlink:title="ArgumentParser.hpp">
<polygon fill="none" stroke="#ff0000" points="158,-54.5 158,-71.5 248,-71.5 248,-54.5 158,-54.5"/>
<text text-anchor="middle" x="203" y="-61.1" font-family="Helvetica,sans-Serif" font-size="8.00" fill="#000000">ArgumentParser.hpp</text>
</a>
</g>
</g>
<!-- Node3&#45;&gt;Node4 -->
<g id="edge4" class="edge">
<title>Node3&#45;&gt;Node4</title>
<path fill="none" stroke="#191970" d="M198.8256,-108.083C199.4809,-101.0059 200.4203,-90.8611 201.242,-81.9865"/>
<polygon fill="#191970" stroke="#191970" points="204.7527,-82.0312 202.1897,-71.7511 197.7826,-81.3858 204.7527,-82.0312"/>
</g>
<!-- Node4&#45;&gt;Node1 -->
<g id="edge5" class="edge">
<title>Node4&#45;&gt;Node1</title>
<path fill="none" stroke="#191970" d="M209.7703,-54.083C215.5616,-46.4554 224.0585,-35.2645 231.1375,-25.9408"/>
<polygon fill="#191970" stroke="#191970" points="234.0961,-27.8321 237.3557,-17.7511 228.521,-23.5991 234.0961,-27.8321"/>
</g>
<!-- Node38&#45;&gt;Node2 -->
<g id="edge7" class="edge">
<title>Node38&#45;&gt;Node2</title>
<path fill="none" stroke="#191970" d="M159.8363,-270.1619C159.5124,-252.6713 158.7834,-213.3048 158.3476,-189.7731"/>
<polygon fill="#191970" stroke="#191970" points="161.845,-189.5918 158.1603,-179.6584 154.8462,-189.7215 161.845,-189.5918"/>
</g>
<!-- Node38&#45;&gt;Node3 -->
<g id="edge17" class="edge">
<title>Node38&#45;&gt;Node3</title>
<path fill="none" stroke="#191970" d="M154.1039,-270.2586C141.2887,-250.075 113.5534,-199.1152 133,-162 140.2787,-148.1082 154.0095,-137.6523 166.9825,-130.3328"/>
<polygon fill="#191970" stroke="#191970" points="168.9285,-133.2662 176.1919,-125.553 165.7038,-127.0532 168.9285,-133.2662"/>
</g>
<!-- Node38&#45;&gt;Node46 -->
<g id="edge8" class="edge">
<title>Node38&#45;&gt;Node46</title>
<path fill="none" stroke="#191970" d="M170.9254,-270.324C181.1746,-262.1849 196.7206,-249.8395 209.001,-240.0874"/>
<polygon fill="#191970" stroke="#191970" points="211.2213,-242.7937 216.8758,-233.8339 206.8681,-237.3119 211.2213,-242.7937"/>
</g>
<!-- Node46&#45;&gt;Node2 -->
<g id="edge9" class="edge">
<title>Node46&#45;&gt;Node2</title>
<path fill="none" stroke="#191970" d="M216.7533,-216.324C206.2026,-208.1849 190.1993,-195.8395 177.5578,-186.0874"/>
<polygon fill="#191970" stroke="#191970" points="179.507,-183.1707 169.4513,-179.8339 175.2314,-188.7132 179.507,-183.1707"/>
</g>
<!-- Node46&#45;&gt;Node3 -->
<g id="edge10" class="edge">
<title>Node46&#45;&gt;Node3</title>
<path fill="none" stroke="#191970" d="M225.545,-216.1619C220.6644,-198.5918 209.6518,-158.9465 203.1259,-135.4532"/>
<polygon fill="#191970" stroke="#191970" points="206.4539,-134.3568 200.4051,-125.6584 199.7093,-136.2303 206.4539,-134.3568"/>
</g>
<!-- Node46&#45;&gt;Node41 -->
<g id="edge11" class="edge">
<title>Node46&#45;&gt;Node41</title>
<path fill="none" stroke="#191970" d="M236.0914,-216.083C243.1554,-208.2982 253.5876,-196.8015 262.1489,-187.3665"/>
<polygon fill="#191970" stroke="#191970" points="264.9312,-189.5087 269.0592,-179.7511 259.7473,-184.8047 264.9312,-189.5087"/>
</g>
<!-- Node46&#45;&gt;Node42 -->
<g id="edge14" class="edge">
<title>Node46&#45;&gt;Node42</title>
<path fill="none" stroke="#191970" d="M254.937,-216.4435C283.6605,-207.3196 329.3286,-192.8133 361.3212,-182.6509"/>
<polygon fill="#191970" stroke="#191970" points="362.7179,-185.8797 371.189,-179.5164 360.5987,-179.2081 362.7179,-185.8797"/>
</g>
<!-- Node41&#45;&gt;Node1 -->
<g id="edge12" class="edge">
<title>Node41&#45;&gt;Node1</title>
<path fill="none" stroke="#191970" d="M275.8692,-162.4205C273.2346,-142.9868 266.2059,-94.173 257,-54 254.954,-45.0715 252.1916,-35.2881 249.7395,-27.1306"/>
<polygon fill="#191970" stroke="#191970" points="253.0763,-26.0737 246.7808,-17.5521 246.388,-28.1396 253.0763,-26.0737"/>
</g>
<!-- Node41&#45;&gt;Node3 -->
<g id="edge13" class="edge">
<title>Node41&#45;&gt;Node3</title>
<path fill="none" stroke="#191970" d="M264.3073,-162.324C252.0989,-153.979 233.4215,-141.2122 218.9971,-131.3524"/>
<polygon fill="#191970" stroke="#191970" points="220.892,-128.4082 210.6612,-125.6545 216.9418,-134.1871 220.892,-128.4082"/>
</g>
<!-- Node42&#45;&gt;Node1 -->
<g id="edge15" class="edge">
<title>Node42&#45;&gt;Node1</title>
<path fill="none" stroke="#191970" d="M389.7203,-162.2902C365.0699,-136.3592 291.8732,-59.3601 259.5918,-25.4018"/>
<polygon fill="#191970" stroke="#191970" points="261.7472,-22.5892 252.3206,-17.7529 256.6738,-27.4121 261.7472,-22.5892"/>
</g>
<!-- Node42&#45;&gt;Node3 -->
<g id="edge16" class="edge">
<title>Node42&#45;&gt;Node3</title>
<path fill="none" stroke="#191970" d="M366.3094,-162.4435C331.9319,-153.1616 276.9232,-138.3093 239.211,-128.127"/>
<polygon fill="#191970" stroke="#191970" points="240.109,-124.7442 229.5423,-125.5164 238.2843,-131.5022 240.109,-124.7442"/>
</g>
<!-- Node47&#45;&gt;Node41 -->
<g id="edge22" class="edge">
<title>Node47&#45;&gt;Node41</title>
<path fill="none" stroke="#191970" d="M354.2186,-216.324C339.7329,-207.8215 317.4269,-194.7288 300.5068,-184.7975"/>
<polygon fill="#191970" stroke="#191970" points="302.1406,-181.6981 291.7447,-179.6545 298.5972,-187.735 302.1406,-181.6981"/>
</g>
<!-- Node47&#45;&gt;Node42 -->
<g id="edge23" class="edge">
<title>Node47&#45;&gt;Node42</title>
<path fill="none" stroke="#191970" d="M373.7888,-216.083C377.7584,-208.6913 383.5251,-197.9533 388.4348,-188.8111"/>
<polygon fill="#191970" stroke="#191970" points="391.6525,-190.217 393.3003,-179.7511 385.4855,-186.9051 391.6525,-190.217"/>
</g>
</g>
</svg>
