<?xml version="1.0" encoding="UTF-8" standalone="no"?>
<!DOCTYPE svg PUBLIC "-//W3C//DTD SVG 1.1//EN"
 "http://www.w3.org/Graphics/SVG/1.1/DTD/svg11.dtd">
<!-- Generated by graphviz version 2.38.0 (20140413.2041)
 -->
<!-- Title: EWSMThreeLoopEW.h Pages: 1 -->
<svg width="220pt" height="80pt"
 viewBox="0.00 0.00 220.00 80.00" xmlns="http://www.w3.org/2000/svg" xmlns:xlink="http://www.w3.org/1999/xlink">
<g id="graph0" class="graph" transform="scale(1 1) rotate(0) translate(4 76)">
<title>EWSMThreeLoopEW.h</title>
<!-- Node1 -->
<g id="node1" class="node"><title>Node1</title>
<polygon fill="#bfbfbf" stroke="black" points="61,-54.5 61,-71.5 161,-71.5 161,-54.5 61,-54.5"/>
<text text-anchor="middle" x="111" y="-61.1" font-family="Helvetica,sans-Serif" font-size="8.00">EWSMThreeLoopEW.h</text>
</g>
<!-- Node2 -->
<g id="node2" class="node"><title>Node2</title>
<g id="a_node2"><a xlink:href="../../d2/d64/_e_w_s_m_three_loop_e_w_8cpp.html" target="_top" xlink:title="EWSMThreeLoopEW.cpp">
<polygon fill="none" stroke="black" points="0,-0.5 0,-17.5 108,-17.5 108,-0.5 0,-0.5"/>
<text text-anchor="middle" x="54" y="-7.1" font-family="Helvetica,sans-Serif" font-size="8.00">EWSMThreeLoopEW.cpp</text>
</a>
</g>
</g>
<!-- Node1&#45;&gt;Node2 -->
<g id="edge1" class="edge"><title>Node1&#45;&gt;Node2</title>
<path fill="none" stroke="midnightblue" d="M95.1877,-47.5748C84.5879,-37.9048 71.046,-25.5508 62.4451,-17.7043"/>
<polygon fill="midnightblue" stroke="midnightblue" points="92.8429,-50.1733 102.589,-54.3272 97.5606,-45.0019 92.8429,-50.1733"/>
</g>
<!-- Node3 -->
<g id="node3" class="node"><title>Node3</title>
<g id="a_node3"><a xlink:href="../../d9/d2b/_standard_model_8cpp.html" target="_top" xlink:title="StandardModel.cpp">
<polygon fill="none" stroke="black" points="126,-0.5 126,-17.5 212,-17.5 212,-0.5 126,-0.5"/>
<text text-anchor="middle" x="169" y="-7.1" font-family="Helvetica,sans-Serif" font-size="8.00">StandardModel.cpp</text>
</a>
</g>
</g>
<!-- Node1&#45;&gt;Node3 -->
<g id="edge2" class="edge"><title>Node1&#45;&gt;Node3</title>
<path fill="none" stroke="midnightblue" d="M127.09,-47.5748C137.875,-37.9048 151.655,-25.5508 160.407,-17.7043"/>
<polygon fill="midnightblue" stroke="midnightblue" points="124.667,-45.0457 119.558,-54.3272 129.34,-50.2577 124.667,-45.0457"/>
</g>
</g>
</svg>
