<?xml version="1.0" encoding="UTF-8" standalone="no"?>
<!DOCTYPE svg PUBLIC "-//W3C//DTD SVG 1.1//EN"
 "http://www.w3.org/Graphics/SVG/1.1/DTD/svg11.dtd">
<!-- Generated by graphviz version 2.38.0 (20140413.2041)
 -->
<!-- Title: EWSMTwoLoopEW Pages: 1 -->
<svg width="635pt" height="279pt"
 viewBox="0.00 0.00 634.50 279.00" xmlns="http://www.w3.org/2000/svg" xmlns:xlink="http://www.w3.org/1999/xlink">
<g id="graph0" class="graph" transform="scale(1 1) rotate(0) translate(4 275)">
<title>EWSMTwoLoopEW</title>
<!-- Node1 -->
<g id="node1" class="node"><title>Node1</title>
<polygon fill="#bfbfbf" stroke="black" points="153.5,-198.5 153.5,-215.5 240.5,-215.5 240.5,-198.5 153.5,-198.5"/>
<text text-anchor="middle" x="197" y="-205.1" font-family="Helvetica,sans-Serif" font-size="8.00">EWSMTwoLoopEW</text>
</g>
<!-- Node7 -->
<g id="node7" class="node"><title>Node7</title>
<g id="a_node7"><a xlink:href="../../dc/dd5/class_standard_model.html" target="_top" xlink:title="A model class for the Standard Model. ">
<polygon fill="none" stroke="red" points="80.5,-126.5 80.5,-143.5 151.5,-143.5 151.5,-126.5 80.5,-126.5"/>
<text text-anchor="middle" x="116" y="-133.1" font-family="Helvetica,sans-Serif" font-size="8.00">StandardModel</text>
</a>
</g>
</g>
<!-- Node1&#45;&gt;Node7 -->
<g id="edge12" class="edge"><title>Node1&#45;&gt;Node7</title>
<path fill="none" stroke="#9a32cd" stroke-dasharray="5,2" d="M144.021,-194.762C136.433,-191.137 129.388,-186.342 124,-180 115.354,-169.823 114.714,-153.459 115.226,-143.816"/>
<polygon fill="#9a32cd" stroke="#9a32cd" points="142.89,-198.081 153.471,-198.63 145.542,-191.602 142.89,-198.081"/>
<text text-anchor="middle" x="153.5" y="-169.1" font-family="Helvetica,sans-Serif" font-size="8.00"> myTwoLoopEW</text>
</g>
<!-- Node2 -->
<g id="node2" class="node"><title>Node2</title>
<g id="a_node2"><a xlink:href="../../dc/df3/class_e_w_s_mcache.html" target="_top" xlink:title="A class for cache variables used in computing radiative corrections to the EW precision observables...">
<polygon fill="none" stroke="black" points="360.5,-63.5 360.5,-80.5 423.5,-80.5 423.5,-63.5 360.5,-63.5"/>
<text text-anchor="middle" x="392" y="-70.1" font-family="Helvetica,sans-Serif" font-size="8.00">EWSMcache</text>
</a>
</g>
</g>
<!-- Node2&#45;&gt;Node1 -->
<g id="edge1" class="edge"><title>Node2&#45;&gt;Node1</title>
<path fill="none" stroke="#9a32cd" stroke-dasharray="5,2" d="M387.588,-90.7058C385.441,-96.7027 382.352,-103.112 378,-108 334.631,-156.703 261.11,-185.771 222.468,-198.448"/>
<polygon fill="#9a32cd" stroke="#9a32cd" points="391.045,-91.3563 390.508,-80.7751 384.329,-89.3817 391.045,-91.3563"/>
<text text-anchor="middle" x="370" y="-133.1" font-family="Helvetica,sans-Serif" font-size="8.00"> cache</text>
</g>
<!-- Node2&#45;&gt;Node7 -->
<g id="edge10" class="edge"><title>Node2&#45;&gt;Node7</title>
<path fill="none" stroke="#9a32cd" stroke-dasharray="5,2" d="M360.36,-83.843C347.218,-88.4174 331.835,-93.8644 318,-99 307.709,-102.82 305.612,-105.193 295,-108 246.275,-120.89 188.287,-127.837 151.803,-131.226"/>
<polygon fill="#9a32cd" stroke="#9a32cd" points="361.606,-87.1155 369.909,-80.5347 359.314,-80.5012 361.606,-87.1155"/>
<text text-anchor="middle" x="348" y="-101.6" font-family="Helvetica,sans-Serif" font-size="8.00"> myEWSMcache</text>
</g>
<!-- Node10 -->
<g id="node10" class="node"><title>Node10</title>
<g id="a_node10"><a xlink:href="../../d1/dfc/class_e_w_s_m_one_loop_e_w.html" target="_top" xlink:title="A class for &#160;one&#45;loop corrections to the EW precision observables. ">
<polygon fill="none" stroke="black" points="153.5,-0.5 153.5,-17.5 240.5,-17.5 240.5,-0.5 153.5,-0.5"/>
<text text-anchor="middle" x="197" y="-7.1" font-family="Helvetica,sans-Serif" font-size="8.00">EWSMOneLoopEW</text>
</a>
</g>
</g>
<!-- Node2&#45;&gt;Node10 -->
<g id="edge14" class="edge"><title>Node2&#45;&gt;Node10</title>
<path fill="none" stroke="#9a32cd" stroke-dasharray="5,2" d="M358.049,-60.3795C318.856,-48.119 255.387,-28.2647 220.996,-17.5065"/>
<polygon fill="#9a32cd" stroke="#9a32cd" points="357.108,-63.7524 367.697,-63.3976 359.198,-57.0717 357.108,-63.7524"/>
<text text-anchor="middle" x="319" y="-38.6" font-family="Helvetica,sans-Serif" font-size="8.00"> cache</text>
</g>
<!-- Node3 -->
<g id="node3" class="node"><title>Node3</title>
<g id="a_node3"><a xlink:href="../../d4/d7b/class_p_vfunctions.html" target="_top" xlink:title="A class for Passarino&#45;Veltman functions. ">
<polygon fill="none" stroke="black" points="424.5,-126.5 424.5,-143.5 483.5,-143.5 483.5,-126.5 424.5,-126.5"/>
<text text-anchor="middle" x="454" y="-133.1" font-family="Helvetica,sans-Serif" font-size="8.00">PVfunctions</text>
</a>
</g>
</g>
<!-- Node3&#45;&gt;Node2 -->
<g id="edge2" class="edge"><title>Node3&#45;&gt;Node2</title>
<path fill="none" stroke="#9a32cd" stroke-dasharray="5,2" d="M438.858,-119.102C426.586,-107.029 409.778,-90.4908 399.984,-80.8556"/>
<polygon fill="#9a32cd" stroke="#9a32cd" points="436.565,-121.756 446.148,-126.274 441.474,-116.766 436.565,-121.756"/>
<text text-anchor="middle" x="432.5" y="-101.6" font-family="Helvetica,sans-Serif" font-size="8.00"> PV</text>
</g>
<!-- Node4 -->
<g id="node4" class="node"><title>Node4</title>
<g id="a_node4"><a xlink:href="../../d8/db3/class_polylogarithms.html" target="_top" xlink:title="A class for the polylogarithms. ">
<polygon fill="none" stroke="black" points="485.5,-198.5 485.5,-215.5 554.5,-215.5 554.5,-198.5 485.5,-198.5"/>
<text text-anchor="middle" x="520" y="-205.1" font-family="Helvetica,sans-Serif" font-size="8.00">Polylogarithms</text>
</a>
</g>
</g>
<!-- Node4&#45;&gt;Node2 -->
<g id="edge7" class="edge"><title>Node4&#45;&gt;Node2</title>
<path fill="none" stroke="#9a32cd" stroke-dasharray="5,2" d="M517.957,-188.441C515.093,-170.839 508.382,-143.856 493,-126 473.097,-102.895 440.59,-88.4089 417.846,-80.533"/>
<polygon fill="#9a32cd" stroke="#9a32cd" points="514.505,-189.034 519.336,-198.464 521.44,-188.08 514.505,-189.034"/>
<text text-anchor="middle" x="520" y="-133.1" font-family="Helvetica,sans-Serif" font-size="8.00"> PolyLog</text>
</g>
<!-- Node4&#45;&gt;Node3 -->
<g id="edge3" class="edge"><title>Node4&#45;&gt;Node3</title>
<path fill="none" stroke="#9a32cd" stroke-dasharray="5,2" d="M484.083,-194.068C477.316,-190.445 470.851,-185.828 466,-180 457.288,-169.533 454.865,-153.269 454.214,-143.722"/>
<polygon fill="#9a32cd" stroke="#9a32cd" points="482.834,-197.347 493.375,-198.413 485.799,-191.006 482.834,-197.347"/>
<text text-anchor="middle" x="486" y="-169.1" font-family="Helvetica,sans-Serif" font-size="8.00"> myPolylog</text>
</g>
<!-- Node5 -->
<g id="node5" class="node"><title>Node5</title>
<g id="a_node5"><a xlink:href="../../df/dea/class_bernoulli_numbers.html" target="_top" xlink:title="A class for the Bernoulli numbers. ">
<polygon fill="none" stroke="black" points="522,-253.5 522,-270.5 602,-270.5 602,-253.5 522,-253.5"/>
<text text-anchor="middle" x="562" y="-260.1" font-family="Helvetica,sans-Serif" font-size="8.00">BernoulliNumbers</text>
</a>
</g>
</g>
<!-- Node5&#45;&gt;Node4 -->
<g id="edge4" class="edge"><title>Node5&#45;&gt;Node4</title>
<path fill="none" stroke="midnightblue" d="M549.576,-245.323C541.776,-235.479 532.068,-223.229 525.951,-215.509"/>
<polygon fill="midnightblue" stroke="midnightblue" points="546.849,-247.516 555.803,-253.18 552.335,-243.168 546.849,-247.516"/>
</g>
<!-- Node6 -->
<g id="node6" class="node"><title>Node6</title>
<g id="a_node6"><a xlink:href="../../d5/d9d/class_clausen_functions.html" target="_top" xlink:title="A class for the Clausen functions. ">
<polygon fill="none" stroke="black" points="545.5,-162.5 545.5,-179.5 626.5,-179.5 626.5,-162.5 545.5,-162.5"/>
<text text-anchor="middle" x="586" y="-169.1" font-family="Helvetica,sans-Serif" font-size="8.00">ClausenFunctions</text>
</a>
</g>
</g>
<!-- Node5&#45;&gt;Node6 -->
<g id="edge6" class="edge"><title>Node5&#45;&gt;Node6</title>
<path fill="none" stroke="midnightblue" d="M566.659,-243.724C571.893,-224.312 580.155,-193.676 583.959,-179.569"/>
<polygon fill="midnightblue" stroke="midnightblue" points="563.271,-242.846 564.046,-253.412 570.029,-244.668 563.271,-242.846"/>
</g>
<!-- Node6&#45;&gt;Node2 -->
<g id="edge5" class="edge"><title>Node6&#45;&gt;Node2</title>
<path fill="none" stroke="#9a32cd" stroke-dasharray="5,2" d="M578.526,-152.99C570.217,-136.27 555.128,-111.495 534,-99 499.916,-78.8419 453.814,-73.6625 423.512,-72.6511"/>
<polygon fill="#9a32cd" stroke="#9a32cd" points="575.414,-154.599 582.817,-162.179 581.757,-151.637 575.414,-154.599"/>
<text text-anchor="middle" x="589" y="-133.1" font-family="Helvetica,sans-Serif" font-size="8.00"> Clausen</text>
</g>
<!-- Node7&#45;&gt;Node2 -->
<g id="edge8" class="edge"><title>Node7&#45;&gt;Node2</title>
<path fill="none" stroke="#9a32cd" stroke-dasharray="5,2" d="M162.009,-127.786C189.814,-123.471 225.797,-116.894 257,-108 267.557,-104.991 269.515,-102.25 280,-99 306.693,-90.7268 337.687,-83.7265 360.294,-79.0812"/>
<polygon fill="#9a32cd" stroke="#9a32cd" points="161.146,-124.376 151.78,-129.328 162.19,-131.298 161.146,-124.376"/>
<text text-anchor="middle" x="287.5" y="-101.6" font-family="Helvetica,sans-Serif" font-size="8.00"> SM</text>
</g>
<!-- Node8 -->
<g id="node8" class="node"><title>Node8</title>
<g id="a_node8"><a xlink:href="../../dd/dfa/class_q_c_d.html" target="_top" xlink:title="A class for parameters related to QCD, hadrons and quarks. ">
<polygon fill="none" stroke="red" points="0,-198.5 0,-215.5 34,-215.5 34,-198.5 0,-198.5"/>
<text text-anchor="middle" x="17" y="-205.1" font-family="Helvetica,sans-Serif" font-size="8.00">QCD</text>
</a>
</g>
</g>
<!-- Node8&#45;&gt;Node7 -->
<g id="edge9" class="edge"><title>Node8&#45;&gt;Node7</title>
<path fill="none" stroke="midnightblue" d="M30.1934,-190.794C38.65,-181.665 50.2182,-170.26 62,-162 72.6499,-154.534 85.7741,-148.16 96.4172,-143.592"/>
<polygon fill="midnightblue" stroke="midnightblue" points="27.4583,-188.601 23.3849,-198.382 32.6684,-193.276 27.4583,-188.601"/>
</g>
<!-- Node9 -->
<g id="node9" class="node"><title>Node9</title>
<g id="a_node9"><a xlink:href="../../d9/db9/class_c_k_m.html" target="_top" xlink:title="A class for the CKM matrix elements. ">
<polygon fill="none" stroke="red" points="52,-198.5 52,-215.5 86,-215.5 86,-198.5 52,-198.5"/>
<text text-anchor="middle" x="69" y="-205.1" font-family="Helvetica,sans-Serif" font-size="8.00">CKM</text>
</a>
</g>
</g>
<!-- Node9&#45;&gt;Node7 -->
<g id="edge11" class="edge"><title>Node9&#45;&gt;Node7</title>
<path fill="none" stroke="#9a32cd" stroke-dasharray="5,2" d="M65.5243,-188.214C64.7917,-179.722 65.3601,-169.749 70,-162 74.9955,-153.657 83.7407,-147.766 92.2739,-143.726"/>
<polygon fill="#9a32cd" stroke="#9a32cd" points="62.0775,-188.832 67.0035,-198.213 69.0021,-187.808 62.0775,-188.832"/>
<text text-anchor="middle" x="85.5" y="-169.1" font-family="Helvetica,sans-Serif" font-size="8.00"> myCKM</text>
</g>
<!-- Node10&#45;&gt;Node1 -->
<g id="edge15" class="edge"><title>Node10&#45;&gt;Node1</title>
<path fill="none" stroke="#9a32cd" stroke-dasharray="5,2" d="M196.215,-28.0163C195.473,-45.9917 194.414,-74.4001 194,-99 193.371,-136.348 195.579,-181.01 196.557,-198.477"/>
<polygon fill="#9a32cd" stroke="#9a32cd" points="199.719,-27.9949 196.646,-17.8554 192.725,-27.6978 199.719,-27.9949"/>
<text text-anchor="middle" x="223.5" y="-101.6" font-family="Helvetica,sans-Serif" font-size="8.00"> myOneLoopEW</text>
</g>
<!-- Node10&#45;&gt;Node7 -->
<g id="edge13" class="edge"><title>Node10&#45;&gt;Node7</title>
<path fill="none" stroke="#9a32cd" stroke-dasharray="5,2" d="M170.172,-22.3329C153.997,-31.246 134.545,-44.9001 124,-63 112.136,-83.3645 113.476,-112.61 114.955,-126.337"/>
<polygon fill="#9a32cd" stroke="#9a32cd" points="171.96,-25.348 179.224,-17.635 168.736,-19.1348 171.96,-25.348"/>
<text text-anchor="middle" x="153.5" y="-70.1" font-family="Helvetica,sans-Serif" font-size="8.00"> myOneLoopEW</text>
</g>
</g>
</svg>
