<?xml version="1.0" encoding="UTF-8" standalone="no"?>
<!DOCTYPE svg PUBLIC "-//W3C//DTD SVG 1.1//EN"
 "http://www.w3.org/Graphics/SVG/1.1/DTD/svg11.dtd">
<!-- Generated by graphviz version 2.38.0 (20140413.2041)
 -->
<!-- Title: EWSMTwoLoopEW.h Pages: 1 -->
<svg width="214pt" height="80pt"
 viewBox="0.00 0.00 214.00 80.00" xmlns="http://www.w3.org/2000/svg" xmlns:xlink="http://www.w3.org/1999/xlink">
<g id="graph0" class="graph" transform="scale(1 1) rotate(0) translate(4 76)">
<title>EWSMTwoLoopEW.h</title>
<!-- Node1 -->
<g id="node1" class="node"><title>Node1</title>
<polygon fill="#bfbfbf" stroke="black" points="60,-54.5 60,-71.5 154,-71.5 154,-54.5 60,-54.5"/>
<text text-anchor="middle" x="107" y="-61.1" font-family="Helvetica,sans-Serif" font-size="8.00">EWSMTwoLoopEW.h</text>
</g>
<!-- Node2 -->
<g id="node2" class="node"><title>Node2</title>
<g id="a_node2"><a xlink:href="../../d8/d02/_e_w_s_m_two_loop_e_w_8cpp.html" target="_top" xlink:title="EWSMTwoLoopEW.cpp">
<polygon fill="none" stroke="black" points="0,-0.5 0,-17.5 102,-17.5 102,-0.5 0,-0.5"/>
<text text-anchor="middle" x="51" y="-7.1" font-family="Helvetica,sans-Serif" font-size="8.00">EWSMTwoLoopEW.cpp</text>
</a>
</g>
</g>
<!-- Node1&#45;&gt;Node2 -->
<g id="edge1" class="edge"><title>Node1&#45;&gt;Node2</title>
<path fill="none" stroke="midnightblue" d="M91.158,-47.2896C80.7909,-37.663 67.6641,-25.4739 59.2969,-17.7043"/>
<polygon fill="midnightblue" stroke="midnightblue" points="89.0275,-50.0875 98.737,-54.3272 93.7906,-44.9579 89.0275,-50.0875"/>
</g>
<!-- Node3 -->
<g id="node3" class="node"><title>Node3</title>
<g id="a_node3"><a xlink:href="../../d9/d2b/_standard_model_8cpp.html" target="_top" xlink:title="StandardModel.cpp">
<polygon fill="none" stroke="black" points="120,-0.5 120,-17.5 206,-17.5 206,-0.5 120,-0.5"/>
<text text-anchor="middle" x="163" y="-7.1" font-family="Helvetica,sans-Serif" font-size="8.00">StandardModel.cpp</text>
</a>
</g>
</g>
<!-- Node1&#45;&gt;Node3 -->
<g id="edge2" class="edge"><title>Node1&#45;&gt;Node3</title>
<path fill="none" stroke="midnightblue" d="M122.842,-47.2896C133.209,-37.663 146.336,-25.4739 154.703,-17.7043"/>
<polygon fill="midnightblue" stroke="midnightblue" points="120.209,-44.9579 115.263,-54.3272 124.973,-50.0875 120.209,-44.9579"/>
</g>
</g>
</svg>
