<?xml version="1.0" encoding="UTF-8" standalone="no"?>
<!DOCTYPE svg PUBLIC "-//W3C//DTD SVG 1.1//EN"
 "http://www.w3.org/Graphics/SVG/1.1/DTD/svg11.dtd">
<!-- Generated by graphviz version 2.40.1 (20161225.0304)
 -->
<!-- Title: g1atQ Pages: 1 -->
<svg width="422pt" height="233pt"
 viewBox="0.00 0.00 421.50 233.00" xmlns="http://www.w3.org/2000/svg" xmlns:xlink="http://www.w3.org/1999/xlink">
<g id="graph0" class="graph" transform="scale(1 1) rotate(0) translate(4 229)">
<title>g1atQ</title>
<!-- Node2 -->
<g id="node1" class="node">
<title>Node2</title>
<polygon fill="#bfbfbf" stroke="#000000" points="134.5,-.5 134.5,-17.5 172.5,-17.5 172.5,-.5 134.5,-.5"/>
<text text-anchor="middle" x="153.5" y="-7.1" font-family="Helvetica,sans-Serif" font-size="8.00" fill="#000000">g1atQ</text>
</g>
<!-- Node3 -->
<g id="node2" class="node">
<title>Node3</title>
<g id="a_node2"><a xlink:href="../../dc/d1f/class_th_observable.html" target="_top" xlink:title="A class for a model prediction of an observable. ">
<polygon fill="none" stroke="#000000" points="145,-63.5 145,-80.5 212,-80.5 212,-63.5 145,-63.5"/>
<text text-anchor="middle" x="178.5" y="-70.1" font-family="Helvetica,sans-Serif" font-size="8.00" fill="#000000">ThObservable</text>
</a>
</g>
</g>
<!-- Node3&#45;&gt;Node2 -->
<g id="edge1" class="edge">
<title>Node3&#45;&gt;Node2</title>
<path fill="none" stroke="#191970" d="M180.4043,-53.3066C180.3535,-47.585 179.6331,-41.3842 177.5,-36 174.728,-29.0031 169.2813,-22.6332 164.2765,-17.8398"/>
<polygon fill="#191970" stroke="#191970" points="176.9047,-53.207 179.8721,-63.3778 183.895,-53.5764 176.9047,-53.207"/>
</g>
<!-- Node4 -->
<g id="node3" class="node">
<title>Node4</title>
<g id="a_node3"><a xlink:href="../../dc/dd5/class_standard_model.html" target="_top" xlink:title="A model class for the Standard Model. ">
<polygon fill="none" stroke="#ff0000" points="213,-131 213,-148 284,-148 284,-131 213,-131"/>
<text text-anchor="middle" x="248.5" y="-137.6" font-family="Helvetica,sans-Serif" font-size="8.00" fill="#000000">StandardModel</text>
</a>
</g>
</g>
<!-- Node4&#45;&gt;Node3 -->
<g id="edge2" class="edge">
<title>Node4&#45;&gt;Node3</title>
<path fill="none" stroke="#9a32cd" stroke-dasharray="5,2" d="M232.1902,-123.7727C218.2749,-110.3544 198.782,-91.5576 187.5147,-80.6927"/>
<polygon fill="#9a32cd" stroke="#9a32cd" points="230.0065,-126.5292 239.6345,-130.9511 234.8655,-121.4902 230.0065,-126.5292"/>
<text text-anchor="middle" x="224" y="-101.6" font-family="Helvetica,sans-Serif" font-size="8.00" fill="#000000"> SM</text>
</g>
<!-- Node9 -->
<g id="node6" class="node">
<title>Node9</title>
<g id="a_node6"><a xlink:href="../../dc/df3/class_e_w_s_mcache.html" target="_top" xlink:title="A class for cache variables used in computing radiative corrections to the EW precision observables...">
<polygon fill="none" stroke="#ff0000" points="348,-63.5 348,-80.5 411,-80.5 411,-63.5 348,-63.5"/>
<text text-anchor="middle" x="379.5" y="-70.1" font-family="Helvetica,sans-Serif" font-size="8.00" fill="#000000">EWSMcache</text>
</a>
</g>
</g>
<!-- Node4&#45;&gt;Node9 -->
<g id="edge6" class="edge">
<title>Node4&#45;&gt;Node9</title>
<path fill="none" stroke="#9a32cd" stroke-dasharray="5,2" d="M274.0529,-126.3334C300.2251,-112.8477 340.1643,-92.2684 362.6297,-80.6927"/>
<polygon fill="#9a32cd" stroke="#9a32cd" points="272.3774,-123.2594 265.0912,-130.9511 275.5837,-129.4819 272.3774,-123.2594"/>
<text text-anchor="middle" x="333" y="-101.6" font-family="Helvetica,sans-Serif" font-size="8.00" fill="#000000"> SM</text>
</g>
<!-- Node47 -->
<g id="node8" class="node">
<title>Node47</title>
<g id="a_node8"><a xlink:href="../../d0/d52/class_t_h_d_m.html" target="_top" xlink:title="A base class for &#160;symmetric Two&#45;Higgs&#45;Doublet models. ">
<polygon fill="none" stroke="#000000" points="64.5,-63.5 64.5,-80.5 104.5,-80.5 104.5,-63.5 64.5,-63.5"/>
<text text-anchor="middle" x="84.5" y="-70.1" font-family="Helvetica,sans-Serif" font-size="8.00" fill="#000000">THDM</text>
</a>
</g>
</g>
<!-- Node4&#45;&gt;Node47 -->
<g id="edge10" class="edge">
<title>Node4&#45;&gt;Node47</title>
<path fill="none" stroke="#191970" d="M218.1068,-126.9906C184.9923,-113.3612 132.9602,-91.9455 104.5891,-80.2684"/>
<polygon fill="#191970" stroke="#191970" points="217.1498,-130.3815 227.7293,-130.9511 219.8141,-123.9084 217.1498,-130.3815"/>
</g>
<!-- Node5 -->
<g id="node4" class="node">
<title>Node5</title>
<g id="a_node4"><a xlink:href="../../dd/dfa/class_q_c_d.html" target="_top" xlink:title="A class for parameters related to QCD, hadrons and quarks. ">
<polygon fill="none" stroke="#ff0000" points="177.5,-203 177.5,-220 211.5,-220 211.5,-203 177.5,-203"/>
<text text-anchor="middle" x="194.5" y="-209.6" font-family="Helvetica,sans-Serif" font-size="8.00" fill="#000000">QCD</text>
</a>
</g>
</g>
<!-- Node5&#45;&gt;Node4 -->
<g id="edge3" class="edge">
<title>Node5&#45;&gt;Node4</title>
<path fill="none" stroke="#191970" d="M207.0517,-194.7643C218.0208,-180.139 233.4997,-159.5004 242.1018,-148.031"/>
<polygon fill="#191970" stroke="#191970" points="204.1066,-192.8579 200.9066,-202.9579 209.7066,-197.0579 204.1066,-192.8579"/>
</g>
<!-- Node8 -->
<g id="node5" class="node">
<title>Node8</title>
<g id="a_node5"><a xlink:href="../../db/d32/class_e_w_s_m_two_fermions_l_e_p2.html" target="_top" xlink:title="A class for the form factors , &#160;and &#160;in the processes &#160;at LEP&#45;II. ">
<polygon fill="none" stroke="#ff0000" points="205,-.5 205,-17.5 314,-17.5 314,-.5 205,-.5"/>
<text text-anchor="middle" x="259.5" y="-7.1" font-family="Helvetica,sans-Serif" font-size="8.00" fill="#000000">EWSMTwoFermionsLEP2</text>
</a>
</g>
</g>
<!-- Node8&#45;&gt;Node4 -->
<g id="edge4" class="edge">
<title>Node8&#45;&gt;Node4</title>
<path fill="none" stroke="#9a32cd" stroke-dasharray="5,2" d="M257.9209,-27.7343C255.5024,-56.426 250.9771,-110.1128 249.2217,-130.9375"/>
<polygon fill="#9a32cd" stroke="#9a32cd" points="261.4088,-28.0238 258.7612,-17.7651 254.4335,-27.4358 261.4088,-28.0238"/>
<text text-anchor="middle" x="296" y="-70.1" font-family="Helvetica,sans-Serif" font-size="8.00" fill="#000000"> myTwoFermionsLEP2</text>
</g>
<!-- Node9&#45;&gt;Node4 -->
<g id="edge7" class="edge">
<title>Node9&#45;&gt;Node4</title>
<path fill="none" stroke="#9a32cd" stroke-dasharray="5,2" d="M365.9541,-88.1117C359.4513,-95.0198 351.1901,-102.7016 342.5,-108 324.5717,-118.9309 302.3828,-126.5974 284.0659,-131.6282"/>
<polygon fill="#9a32cd" stroke="#9a32cd" points="368.6567,-90.3398 372.7003,-80.5469 363.4324,-85.6807 368.6567,-90.3398"/>
<text text-anchor="middle" x="383.5" y="-101.6" font-family="Helvetica,sans-Serif" font-size="8.00" fill="#000000"> myEWSMcache</text>
</g>
<!-- Node9&#45;&gt;Node8 -->
<g id="edge5" class="edge">
<title>Node9&#45;&gt;Node8</title>
<path fill="none" stroke="#9a32cd" stroke-dasharray="5,2" d="M353.7553,-58.4841C330.2262,-46.1313 296.1282,-28.2298 276.0438,-17.6855"/>
<polygon fill="#9a32cd" stroke="#9a32cd" points="352.3336,-61.6906 362.8145,-63.2401 355.5875,-55.4928 352.3336,-61.6906"/>
<text text-anchor="middle" x="338.5" y="-38.6" font-family="Helvetica,sans-Serif" font-size="8.00" fill="#000000"> cache</text>
</g>
<!-- Node15 -->
<g id="node7" class="node">
<title>Node15</title>
<g id="a_node7"><a xlink:href="../../d5/d76/class_matching.html" target="_top" xlink:title="Matching\&lt; StandardModelMatching,\l StandardModel \&gt;">
<polygon fill="none" stroke="#ff0000" points="230,-198.5 230,-224.5 375,-224.5 375,-198.5 230,-198.5"/>
<text text-anchor="start" x="238" y="-214.1" font-family="Helvetica,sans-Serif" font-size="8.00" fill="#000000">Matching&lt; StandardModelMatching,</text>
<text text-anchor="middle" x="302.5" y="-205.1" font-family="Helvetica,sans-Serif" font-size="8.00" fill="#000000"> StandardModel &gt;</text>
</a>
</g>
</g>
<!-- Node15&#45;&gt;Node4 -->
<g id="edge8" class="edge">
<title>Node15&#45;&gt;Node4</title>
<path fill="none" stroke="#9a32cd" stroke-dasharray="5,2" d="M286.4508,-190.1011C275.9079,-176.0439 262.6829,-158.4105 254.9533,-148.1044"/>
<polygon fill="#9a32cd" stroke="#9a32cd" points="283.7955,-192.3941 292.5956,-198.2941 289.3955,-188.1941 283.7955,-192.3941"/>
<text text-anchor="middle" x="289" y="-173.6" font-family="Helvetica,sans-Serif" font-size="8.00" fill="#000000"> SMM</text>
</g>
<!-- Node47&#45;&gt;Node2 -->
<g id="edge9" class="edge">
<title>Node47&#45;&gt;Node2</title>
<path fill="none" stroke="#9a32cd" stroke-dasharray="5,2" d="M104.2731,-56.998C109.0306,-53.1987 114.028,-49.0451 118.5,-45 128.3263,-36.1118 138.8227,-25.0869 145.7294,-17.5961"/>
<polygon fill="#9a32cd" stroke="#9a32cd" points="101.861,-54.4408 96.1336,-63.3541 106.1693,-59.9579 101.861,-54.4408"/>
<text text-anchor="middle" x="146.5" y="-38.6" font-family="Helvetica,sans-Serif" font-size="8.00" fill="#000000"> myTHDM</text>
</g>
<!-- Node48 -->
<g id="node9" class="node">
<title>Node48</title>
<g id="a_node9"><a xlink:href="../../d5/df2/class_t_h_d_mcache.html" target="_top" xlink:title="A class for the caching of some THDM objects. ">
<polygon fill="none" stroke="#ff0000" points="0,-.5 0,-17.5 61,-17.5 61,-.5 0,-.5"/>
<text text-anchor="middle" x="30.5" y="-7.1" font-family="Helvetica,sans-Serif" font-size="8.00" fill="#000000">THDMcache</text>
</a>
</g>
</g>
<!-- Node47&#45;&gt;Node48 -->
<g id="edge12" class="edge">
<title>Node47&#45;&gt;Node48</title>
<path fill="none" stroke="#9a32cd" stroke-dasharray="5,2" d="M54.4938,-64.2807C37.4234,-59.2162 18.4753,-52.2149 13.5,-45 7.5358,-36.3511 14.6473,-25.2813 21.4096,-17.7146"/>
<polygon fill="#9a32cd" stroke="#9a32cd" points="53.6329,-67.6744 64.2078,-67.0258 55.5365,-60.9383 53.6329,-67.6744"/>
<text text-anchor="middle" x="31.5" y="-38.6" font-family="Helvetica,sans-Serif" font-size="8.00" fill="#000000"> myTHDM</text>
</g>
<!-- Node48&#45;&gt;Node47 -->
<g id="edge11" class="edge">
<title>Node48&#45;&gt;Node47</title>
<path fill="none" stroke="#9a32cd" stroke-dasharray="5,2" d="M43.9621,-25.3782C49.0949,-31.5636 55.0268,-38.6412 60.5,-45 65.7369,-51.0843 71.7369,-57.8343 76.4277,-63.0632"/>
<polygon fill="#9a32cd" stroke="#9a32cd" points="46.6434,-23.1284 37.5762,-17.6478 41.2466,-27.5866 46.6434,-23.1284"/>
<text text-anchor="middle" x="89.5" y="-38.6" font-family="Helvetica,sans-Serif" font-size="8.00" fill="#000000"> myTHDMcache</text>
</g>
<!-- Node58 -->
<g id="node10" class="node">
<title>Node58</title>
<g id="a_node10"><a xlink:href="../../d5/d76/class_matching.html" target="_top" xlink:title="Matching\&lt; THDMMatching,\l THDM \&gt;">
<polygon fill="none" stroke="#ff0000" points="27.5,-126.5 27.5,-152.5 141.5,-152.5 141.5,-126.5 27.5,-126.5"/>
<text text-anchor="start" x="35.5" y="-142.1" font-family="Helvetica,sans-Serif" font-size="8.00" fill="#000000">Matching&lt; THDMMatching,</text>
<text text-anchor="middle" x="84.5" y="-133.1" font-family="Helvetica,sans-Serif" font-size="8.00" fill="#000000"> THDM &gt;</text>
</a>
</g>
</g>
<!-- Node58&#45;&gt;Node47 -->
<g id="edge13" class="edge">
<title>Node58&#45;&gt;Node47</title>
<path fill="none" stroke="#9a32cd" stroke-dasharray="5,2" d="M84.5,-116.3987C84.5,-104.0883 84.5,-89.6721 84.5,-80.6863"/>
<polygon fill="#9a32cd" stroke="#9a32cd" points="81.0001,-116.4853 84.5,-126.4853 88.0001,-116.4854 81.0001,-116.4853"/>
<text text-anchor="middle" x="100.5" y="-101.6" font-family="Helvetica,sans-Serif" font-size="8.00" fill="#000000"> THDMM</text>
</g>
</g>
</svg>
