<?xml version="1.0" encoding="UTF-8" standalone="no"?>
<!DOCTYPE svg PUBLIC "-//W3C//DTD SVG 1.1//EN"
 "http://www.w3.org/Graphics/SVG/1.1/DTD/svg11.dtd">
<!-- Generated by graphviz version 2.40.1 (20161225.0304)
 -->
<!-- Title: BR_MPll Pages: 1 -->
<svg width="192pt" height="134pt"
 viewBox="0.00 0.00 191.50 134.00" xmlns="http://www.w3.org/2000/svg" xmlns:xlink="http://www.w3.org/1999/xlink">
<g id="graph0" class="graph" transform="scale(1 1) rotate(0) translate(4 130)">
<title>BR_MPll</title>
<!-- Node0 -->
<g id="node1" class="node">
<title>Node0</title>
<polygon fill="#bfbfbf" stroke="#000000" points="73.5,-54.5 73.5,-71.5 121.5,-71.5 121.5,-54.5 73.5,-54.5"/>
<text text-anchor="middle" x="97.5" y="-61.1" font-family="Helvetica,sans-Serif" font-size="8.00" fill="#000000">BR_MPll</text>
</g>
<!-- Node2 -->
<g id="node3" class="node">
<title>Node2</title>
<g id="a_node3"><a xlink:href="../../da/dcb/class_a_c_p___m_pll.html" target="_top" xlink:title="A class for the binned observable &#160;in . ">
<polygon fill="none" stroke="#000000" points="0,-.5 0,-17.5 53,-17.5 53,-.5 0,-.5"/>
<text text-anchor="middle" x="26.5" y="-7.1" font-family="Helvetica,sans-Serif" font-size="8.00" fill="#000000">ACP_MPll</text>
</a>
</g>
</g>
<!-- Node0&#45;&gt;Node2 -->
<g id="edge2" class="edge">
<title>Node0&#45;&gt;Node2</title>
<path fill="none" stroke="#191970" d="M77.9103,-48.1008C65.1324,-38.3824 48.8873,-26.0269 38.1149,-17.8339"/>
<polygon fill="#191970" stroke="#191970" points="76.0143,-51.0561 86.0926,-54.324 80.2519,-45.4844 76.0143,-51.0561"/>
</g>
<!-- Node3 -->
<g id="node4" class="node">
<title>Node3</title>
<g id="a_node4"><a xlink:href="../../dd/da2/classd_b_r___m_pll.html" target="_top" xlink:title="A class for the binned differential observable &#160;in . ">
<polygon fill="none" stroke="#000000" points="71.5,-.5 71.5,-17.5 123.5,-17.5 123.5,-.5 71.5,-.5"/>
<text text-anchor="middle" x="97.5" y="-7.1" font-family="Helvetica,sans-Serif" font-size="8.00" fill="#000000">dBR_MPll</text>
</a>
</g>
</g>
<!-- Node0&#45;&gt;Node3 -->
<g id="edge3" class="edge">
<title>Node0&#45;&gt;Node3</title>
<path fill="none" stroke="#191970" d="M97.5,-43.8045C97.5,-34.9102 97.5,-24.7798 97.5,-17.7511"/>
<polygon fill="#191970" stroke="#191970" points="94.0001,-44.083 97.5,-54.083 101.0001,-44.083 94.0001,-44.083"/>
</g>
<!-- Node4 -->
<g id="node5" class="node">
<title>Node4</title>
<g id="a_node5"><a xlink:href="../../d3/de0/class_r___m_pll.html" target="_top" xlink:title="A class for the binned observable ratio &#160;in . ">
<polygon fill="none" stroke="#000000" points="141.5,-.5 141.5,-17.5 183.5,-17.5 183.5,-.5 141.5,-.5"/>
<text text-anchor="middle" x="162.5" y="-7.1" font-family="Helvetica,sans-Serif" font-size="8.00" fill="#000000">R_MPll</text>
</a>
</g>
</g>
<!-- Node0&#45;&gt;Node4 -->
<g id="edge4" class="edge">
<title>Node0&#45;&gt;Node4</title>
<path fill="none" stroke="#191970" d="M115.7726,-47.8197C127.4178,-38.1452 142.0995,-25.9481 151.8666,-17.8339"/>
<polygon fill="#191970" stroke="#191970" points="113.3987,-45.2416 107.9434,-54.324 117.8719,-50.6259 113.3987,-45.2416"/>
</g>
<!-- Node1 -->
<g id="node2" class="node">
<title>Node1</title>
<g id="a_node2"><a xlink:href="../../dc/d1f/class_th_observable.html" target="_top" xlink:title="A class for a model prediction of an observable. ">
<polygon fill="none" stroke="#000000" points="64,-108.5 64,-125.5 131,-125.5 131,-108.5 64,-108.5"/>
<text text-anchor="middle" x="97.5" y="-115.1" font-family="Helvetica,sans-Serif" font-size="8.00" fill="#000000">ThObservable</text>
</a>
</g>
</g>
<!-- Node1&#45;&gt;Node0 -->
<g id="edge1" class="edge">
<title>Node1&#45;&gt;Node0</title>
<path fill="none" stroke="#191970" d="M97.5,-97.8045C97.5,-88.9102 97.5,-78.7798 97.5,-71.7511"/>
<polygon fill="#191970" stroke="#191970" points="94.0001,-98.083 97.5,-108.083 101.0001,-98.083 94.0001,-98.083"/>
</g>
</g>
</svg>
