<?xml version="1.0" encoding="UTF-8" standalone="no"?>
<!DOCTYPE svg PUBLIC "-//W3C//DTD SVG 1.1//EN"
 "http://www.w3.org/Graphics/SVG/1.1/DTD/svg11.dtd">
<!-- Generated by graphviz version 2.40.1 (20161225.0304)
 -->
<!-- Title: HeffDF2.h Pages: 1 -->
<svg width="392pt" height="80pt"
 viewBox="0.00 0.00 391.50 80.00" xmlns="http://www.w3.org/2000/svg" xmlns:xlink="http://www.w3.org/1999/xlink">
<g id="graph0" class="graph" transform="scale(1 1) rotate(0) translate(4 76)">
<title>HeffDF2.h</title>
<!-- Node23 -->
<g id="node1" class="node">
<title>Node23</title>
<polygon fill="#bfbfbf" stroke="#000000" points="169.5,-54.5 169.5,-71.5 222.5,-71.5 222.5,-54.5 169.5,-54.5"/>
<text text-anchor="middle" x="196" y="-61.1" font-family="Helvetica,sans-Serif" font-size="8.00" fill="#000000">HeffDF2.h</text>
</g>
<!-- Node24 -->
<g id="node2" class="node">
<title>Node24</title>
<g id="a_node2"><a xlink:href="../../d5/ddc/_amp_d_b2_8cpp.html" target="_top" xlink:title="AmpDB2.cpp">
<polygon fill="none" stroke="#000000" points="0,-.5 0,-17.5 64,-17.5 64,-.5 0,-.5"/>
<text text-anchor="middle" x="32" y="-7.1" font-family="Helvetica,sans-Serif" font-size="8.00" fill="#000000">AmpDB2.cpp</text>
</a>
</g>
</g>
<!-- Node23&#45;&gt;Node24 -->
<g id="edge1" class="edge">
<title>Node23&#45;&gt;Node24</title>
<path fill="none" stroke="#191970" d="M160.4801,-51.3044C129.5781,-41.1294 85.5265,-26.6246 57.8647,-17.5164"/>
<polygon fill="#191970" stroke="#191970" points="159.4207,-54.6404 170.0137,-54.4435 161.61,-47.9915 159.4207,-54.6404"/>
</g>
<!-- Node25 -->
<g id="node3" class="node">
<title>Node25</title>
<g id="a_node3"><a xlink:href="../../d6/dd5/_amp_d_d2_8cpp.html" target="_top" xlink:title="AmpDD2.cpp">
<polygon fill="none" stroke="#000000" points="82,-.5 82,-17.5 146,-17.5 146,-.5 82,-.5"/>
<text text-anchor="middle" x="114" y="-7.1" font-family="Helvetica,sans-Serif" font-size="8.00" fill="#000000">AmpDD2.cpp</text>
</a>
</g>
</g>
<!-- Node23&#45;&gt;Node25 -->
<g id="edge2" class="edge">
<title>Node23&#45;&gt;Node25</title>
<path fill="none" stroke="#191970" d="M174.1669,-48.6221C159.1871,-38.7574 139.8025,-25.9919 127.142,-17.6545"/>
<polygon fill="#191970" stroke="#191970" points="172.5486,-51.7471 182.8253,-54.324 176.3985,-45.9009 172.5486,-51.7471"/>
</g>
<!-- Node26 -->
<g id="node4" class="node">
<title>Node26</title>
<g id="a_node4"><a xlink:href="../../d0/d2a/_amp_d_k2_8cpp.html" target="_top" xlink:title="AmpDK2.cpp">
<polygon fill="none" stroke="#000000" points="164,-.5 164,-17.5 228,-17.5 228,-.5 164,-.5"/>
<text text-anchor="middle" x="196" y="-7.1" font-family="Helvetica,sans-Serif" font-size="8.00" fill="#000000">AmpDK2.cpp</text>
</a>
</g>
</g>
<!-- Node23&#45;&gt;Node26 -->
<g id="edge3" class="edge">
<title>Node23&#45;&gt;Node26</title>
<path fill="none" stroke="#191970" d="M196,-43.8045C196,-34.9102 196,-24.7798 196,-17.7511"/>
<polygon fill="#191970" stroke="#191970" points="192.5001,-44.083 196,-54.083 199.5001,-44.083 192.5001,-44.083"/>
</g>
<!-- Node27 -->
<g id="node5" class="node">
<title>Node27</title>
<g id="a_node5"><a xlink:href="../../d7/d30/_flavour_8cpp.html" target="_top" xlink:title="Flavour.cpp">
<polygon fill="none" stroke="#000000" points="246,-.5 246,-17.5 304,-17.5 304,-.5 246,-.5"/>
<text text-anchor="middle" x="275" y="-7.1" font-family="Helvetica,sans-Serif" font-size="8.00" fill="#000000">Flavour.cpp</text>
</a>
</g>
</g>
<!-- Node23&#45;&gt;Node27 -->
<g id="edge4" class="edge">
<title>Node23&#45;&gt;Node27</title>
<path fill="none" stroke="#191970" d="M217.0343,-48.6221C231.4661,-38.7574 250.1415,-25.9919 262.3388,-17.6545"/>
<polygon fill="#191970" stroke="#191970" points="214.9733,-45.7914 208.6927,-54.324 218.9235,-51.5703 214.9733,-45.7914"/>
</g>
<!-- Node28 -->
<g id="node6" class="node">
<title>Node28</title>
<g id="a_node6"><a xlink:href="../../d5/dcf/_heff_d_f2_8cpp.html" target="_top" xlink:title="HeffDF2.cpp">
<polygon fill="none" stroke="#000000" points="322.5,-.5 322.5,-17.5 383.5,-17.5 383.5,-.5 322.5,-.5"/>
<text text-anchor="middle" x="353" y="-7.1" font-family="Helvetica,sans-Serif" font-size="8.00" fill="#000000">HeffDF2.cpp</text>
</a>
</g>
</g>
<!-- Node23&#45;&gt;Node28 -->
<g id="edge5" class="edge">
<title>Node23&#45;&gt;Node28</title>
<path fill="none" stroke="#191970" d="M230.3887,-51.172C259.9516,-41.0039 301.8728,-26.5852 328.2393,-17.5164"/>
<polygon fill="#191970" stroke="#191970" points="229.195,-47.8813 220.8771,-54.4435 231.4718,-54.5007 229.195,-47.8813"/>
</g>
</g>
</svg>
