<?xml version="1.0" encoding="UTF-8" standalone="no"?>
<!DOCTYPE svg PUBLIC "-//W3C//DTD SVG 1.1//EN"
 "http://www.w3.org/Graphics/SVG/1.1/DTD/svg11.dtd">
<!-- Generated by graphviz version 2.40.1 (20161225.0304)
 -->
<!-- Title: LHPC::SlhaTwoWithSpheno Pages: 1 -->
<svg width="897pt" height="588pt"
 viewBox="0.00 0.00 897.00 587.55" xmlns="http://www.w3.org/2000/svg" xmlns:xlink="http://www.w3.org/1999/xlink">
<g id="graph0" class="graph" transform="scale(1 1) rotate(0) translate(4 583.5519)">
<title>LHPC::SlhaTwoWithSpheno</title>
<!-- Node3 -->
<g id="node1" class="node">
<title>Node3</title>
<polygon fill="#bfbfbf" stroke="#000000" points="772,-107.0519 772,-124.0519 889,-124.0519 889,-107.0519 772,-107.0519"/>
<text text-anchor="middle" x="830.5" y="-113.6519" font-family="Helvetica,sans-Serif" font-size="8.00" fill="#000000">LHPC::SlhaTwoWithSpheno</text>
</g>
<!-- Node4 -->
<g id="node2" class="node">
<title>Node4</title>
<g id="a_node2"><a xlink:href="../../d0/dd8/class_l_h_p_c_1_1_slha_two.html" target="_top" xlink:title="LHPC::SlhaTwo">
<polygon fill="none" stroke="#000000" points="662,-262.0519 662,-279.0519 735,-279.0519 735,-262.0519 662,-262.0519"/>
<text text-anchor="middle" x="698.5" y="-268.6519" font-family="Helvetica,sans-Serif" font-size="8.00" fill="#000000">LHPC::SlhaTwo</text>
</a>
</g>
</g>
<!-- Node4&#45;&gt;Node3 -->
<g id="edge1" class="edge">
<title>Node4&#45;&gt;Node3</title>
<path fill="none" stroke="#191970" d="M712.5999,-253.9951C740.4997,-221.234 801.8823,-149.1559 823.1069,-124.2332"/>
<polygon fill="#191970" stroke="#191970" points="709.7941,-251.8917 705.9751,-261.7743 715.1234,-256.4302 709.7941,-251.8917"/>
</g>
<!-- Node5 -->
<g id="node3" class="node">
<title>Node5</title>
<g id="a_node3"><a xlink:href="../../d1/d8e/class_l_h_p_c_1_1_slha_one.html" target="_top" xlink:title="LHPC::SlhaOne">
<polygon fill="none" stroke="#ff0000" points="414,-376.0519 414,-393.0519 487,-393.0519 487,-376.0519 414,-376.0519"/>
<text text-anchor="middle" x="450.5" y="-382.6519" font-family="Helvetica,sans-Serif" font-size="8.00" fill="#000000">LHPC::SlhaOne</text>
</a>
</g>
</g>
<!-- Node5&#45;&gt;Node4 -->
<g id="edge2" class="edge">
<title>Node5&#45;&gt;Node4</title>
<path fill="none" stroke="#191970" d="M489.3928,-372.8359C499.4729,-369.4861 510.2362,-365.6285 520,-361.5519 582.5926,-335.4177 653.3978,-296.2977 683.5869,-279.1384"/>
<polygon fill="#191970" stroke="#191970" points="488.0382,-369.5955 479.6026,-376.0058 490.1945,-376.2551 488.0382,-369.5955"/>
</g>
<!-- Node6 -->
<g id="node4" class="node">
<title>Node6</title>
<g id="a_node4"><a xlink:href="../../d2/dcb/class_l_h_p_c_1_1_s_l_h_a_1_1_just_single_value_block.html" target="_top" xlink:title="LHPC::SLHA::JustSingleValue\lBlock\&lt; double \&gt;">
<polygon fill="none" stroke="#ff0000" points="168.5,-415.5519 168.5,-441.5519 293.5,-441.5519 293.5,-415.5519 168.5,-415.5519"/>
<text text-anchor="start" x="176.5" y="-431.1519" font-family="Helvetica,sans-Serif" font-size="8.00" fill="#000000">LHPC::SLHA::JustSingleValue</text>
<text text-anchor="middle" x="231" y="-422.1519" font-family="Helvetica,sans-Serif" font-size="8.00" fill="#000000">Block&lt; double &gt;</text>
</a>
</g>
</g>
<!-- Node6&#45;&gt;Node4 -->
<g id="edge10" class="edge">
<title>Node6&#45;&gt;Node4</title>
<path fill="none" stroke="#9a32cd" stroke-dasharray="5,2" d="M303.5705,-430.0338C362.9572,-429.3601 448.5121,-424.036 520,-402.5519 578.8198,-384.8749 596.5004,-380.4882 644,-341.5519 666.3527,-323.229 684.9943,-294.0511 693.5177,-279.4645"/>
<polygon fill="#9a32cd" stroke="#9a32cd" points="303.5087,-426.534 293.5342,-430.1062 303.5593,-433.5338 303.5087,-426.534"/>
<text text-anchor="middle" x="450.5" y="-428.1519" font-family="Helvetica,sans-Serif" font-size="8.00" fill="#000000"> IMALPHA</text>
</g>
<!-- Node6&#45;&gt;Node5 -->
<g id="edge3" class="edge">
<title>Node6&#45;&gt;Node5</title>
<path fill="none" stroke="#9a32cd" stroke-dasharray="5,2" d="M303.8353,-413.9516C340.7532,-406.5512 383.9787,-397.8865 413.8943,-391.8897"/>
<polygon fill="#9a32cd" stroke="#9a32cd" points="302.7232,-410.6049 293.6061,-416.0021 304.099,-417.4683 302.7232,-410.6049"/>
<text text-anchor="middle" x="342" y="-412.1519" font-family="Helvetica,sans-Serif" font-size="8.00" fill="#000000"> ALPHA</text>
</g>
<!-- Node31 -->
<g id="node5" class="node">
<title>Node31</title>
<g id="a_node5"><a xlink:href="../../df/d08/class_l_h_p_c_1_1_s_l_h_a_1_1_dense_doubly_indexed_block.html" target="_top" xlink:title="LHPC::SLHA::DenseDoublyIndexed\lBlock\&lt; double \&gt;">
<polygon fill="none" stroke="#ff0000" points="159,-272.5519 159,-298.5519 303,-298.5519 303,-272.5519 159,-272.5519"/>
<text text-anchor="start" x="167" y="-288.1519" font-family="Helvetica,sans-Serif" font-size="8.00" fill="#000000">LHPC::SLHA::DenseDoublyIndexed</text>
<text text-anchor="middle" x="231" y="-279.1519" font-family="Helvetica,sans-Serif" font-size="8.00" fill="#000000">Block&lt; double &gt;</text>
</a>
</g>
</g>
<!-- Node31&#45;&gt;Node4 -->
<g id="edge11" class="edge">
<title>Node31&#45;&gt;Node4</title>
<path fill="none" stroke="#9a32cd" stroke-dasharray="5,2" d="M313.2734,-273.8856C335.2313,-271.2634 358.9767,-268.8686 381,-267.5519 482.5225,-261.4823 602.6235,-265.7197 661.7917,-268.5601"/>
<polygon fill="#9a32cd" stroke="#9a32cd" points="312.8237,-270.4145 303.323,-275.1034 313.6741,-277.3626 312.8237,-270.4145"/>
<text text-anchor="middle" x="450.5" y="-360.1519" font-family="Helvetica,sans-Serif" font-size="8.00" fill="#000000"> IMNMHMIX</text>
<text text-anchor="middle" x="450.5" y="-351.1519" font-family="Helvetica,sans-Serif" font-size="8.00" fill="#000000">IMSNUMIX</text>
<text text-anchor="middle" x="450.5" y="-342.1519" font-family="Helvetica,sans-Serif" font-size="8.00" fill="#000000">IMSELMIX</text>
<text text-anchor="middle" x="450.5" y="-333.1519" font-family="Helvetica,sans-Serif" font-size="8.00" fill="#000000">MSN2IN</text>
<text text-anchor="middle" x="450.5" y="-324.1519" font-family="Helvetica,sans-Serif" font-size="8.00" fill="#000000">IMMSQ2IN</text>
<text text-anchor="middle" x="450.5" y="-315.1519" font-family="Helvetica,sans-Serif" font-size="8.00" fill="#000000">IMYD</text>
<text text-anchor="middle" x="450.5" y="-306.1519" font-family="Helvetica,sans-Serif" font-size="8.00" fill="#000000">IMYU</text>
<text text-anchor="middle" x="450.5" y="-297.1519" font-family="Helvetica,sans-Serif" font-size="8.00" fill="#000000">IMRVLMIX</text>
<text text-anchor="middle" x="450.5" y="-288.1519" font-family="Helvetica,sans-Serif" font-size="8.00" fill="#000000">RVNMIX</text>
<text text-anchor="middle" x="450.5" y="-279.1519" font-family="Helvetica,sans-Serif" font-size="8.00" fill="#000000">TD</text>
<text text-anchor="middle" x="450.5" y="-270.1519" font-family="Helvetica,sans-Serif" font-size="8.00" fill="#000000">...</text>
</g>
<!-- Node31&#45;&gt;Node5 -->
<g id="edge4" class="edge">
<title>Node31&#45;&gt;Node5</title>
<path fill="none" stroke="#9a32cd" stroke-dasharray="5,2" d="M313.1017,-279.6261C331.1749,-282.0753 349.0592,-287.8821 363,-299.5519 385.0021,-317.9697 361.0899,-340.8904 381,-361.5519 389.7309,-370.6122 402.1028,-376.1046 413.9939,-379.4337"/>
<polygon fill="#9a32cd" stroke="#9a32cd" points="313.3707,-276.1354 303.0654,-278.5949 312.6553,-283.0987 313.3707,-276.1354"/>
<text text-anchor="middle" x="342" y="-392.1519" font-family="Helvetica,sans-Serif" font-size="8.00" fill="#000000"> AD</text>
<text text-anchor="middle" x="342" y="-383.1519" font-family="Helvetica,sans-Serif" font-size="8.00" fill="#000000">AU</text>
<text text-anchor="middle" x="342" y="-374.1519" font-family="Helvetica,sans-Serif" font-size="8.00" fill="#000000">AE</text>
<text text-anchor="middle" x="342" y="-365.1519" font-family="Helvetica,sans-Serif" font-size="8.00" fill="#000000">VMIX</text>
<text text-anchor="middle" x="342" y="-356.1519" font-family="Helvetica,sans-Serif" font-size="8.00" fill="#000000">UMIX</text>
<text text-anchor="middle" x="342" y="-347.1519" font-family="Helvetica,sans-Serif" font-size="8.00" fill="#000000">SBOTMIX</text>
<text text-anchor="middle" x="342" y="-338.1519" font-family="Helvetica,sans-Serif" font-size="8.00" fill="#000000">STAUMIX</text>
<text text-anchor="middle" x="342" y="-329.1519" font-family="Helvetica,sans-Serif" font-size="8.00" fill="#000000">YD</text>
<text text-anchor="middle" x="342" y="-320.1519" font-family="Helvetica,sans-Serif" font-size="8.00" fill="#000000">YU</text>
<text text-anchor="middle" x="342" y="-311.1519" font-family="Helvetica,sans-Serif" font-size="8.00" fill="#000000">STOPMIX</text>
<text text-anchor="middle" x="342" y="-302.1519" font-family="Helvetica,sans-Serif" font-size="8.00" fill="#000000">...</text>
</g>
<!-- Node42 -->
<g id="node6" class="node">
<title>Node42</title>
<g id="a_node6"><a xlink:href="../../d0/d25/class_l_h_p_c_1_1_s_l_h_a_1_1_sparse_singly_indexed_block.html" target="_top" xlink:title="LHPC::SLHA::SparseSingly\lIndexedBlock\&lt; double \&gt;">
<polygon fill="none" stroke="#ff0000" points="173.5,-20.5519 173.5,-46.5519 288.5,-46.5519 288.5,-20.5519 173.5,-20.5519"/>
<text text-anchor="start" x="181.5" y="-36.1519" font-family="Helvetica,sans-Serif" font-size="8.00" fill="#000000">LHPC::SLHA::SparseSingly</text>
<text text-anchor="middle" x="231" y="-27.1519" font-family="Helvetica,sans-Serif" font-size="8.00" fill="#000000">IndexedBlock&lt; double &gt;</text>
</a>
</g>
</g>
<!-- Node42&#45;&gt;Node3 -->
<g id="edge14" class="edge">
<title>Node42&#45;&gt;Node3</title>
<path fill="none" stroke="#9a32cd" stroke-dasharray="5,2" d="M298.6121,-19.1375C381.4792,-4.1413 525.4904,13.2143 644,-17.5519 715.5138,-36.1175 790.2885,-86.401 818.652,-106.7883"/>
<polygon fill="#9a32cd" stroke="#9a32cd" points="297.7637,-15.735 288.5685,-20.9979 299.0388,-22.6179 297.7637,-15.735"/>
<text text-anchor="middle" x="591" y="-29.1519" font-family="Helvetica,sans-Serif" font-size="8.00" fill="#000000"> SPHENOLOWENERGY</text>
<text text-anchor="middle" x="591" y="-20.1519" font-family="Helvetica,sans-Serif" font-size="8.00" fill="#000000">SPHENOINFO</text>
</g>
<!-- Node42&#45;&gt;Node4 -->
<g id="edge12" class="edge">
<title>Node42&#45;&gt;Node4</title>
<path fill="none" stroke="#9a32cd" stroke-dasharray="5,2" d="M298.8304,-23.1219C388.7494,-13.3432 547.2934,-10.7347 644,-93.5519 670.7416,-116.4527 691.6145,-229.705 697.0895,-261.9636"/>
<polygon fill="#9a32cd" stroke="#9a32cd" points="298.2826,-19.6617 288.7473,-24.28 299.0814,-26.616 298.2826,-19.6617"/>
<text text-anchor="middle" x="450.5" y="-80.1519" font-family="Helvetica,sans-Serif" font-size="8.00" fill="#000000"> QEXTPAR</text>
<text text-anchor="middle" x="450.5" y="-71.1519" font-family="Helvetica,sans-Serif" font-size="8.00" fill="#000000">NMSSMRUN</text>
<text text-anchor="middle" x="450.5" y="-62.1519" font-family="Helvetica,sans-Serif" font-size="8.00" fill="#000000">IMEXTPAR</text>
<text text-anchor="middle" x="450.5" y="-53.1519" font-family="Helvetica,sans-Serif" font-size="8.00" fill="#000000">IMMINPAR</text>
<text text-anchor="middle" x="450.5" y="-44.1519" font-family="Helvetica,sans-Serif" font-size="8.00" fill="#000000">IMHMIX</text>
<text text-anchor="middle" x="450.5" y="-35.1519" font-family="Helvetica,sans-Serif" font-size="8.00" fill="#000000">IMMSOFT</text>
</g>
<!-- Node42&#45;&gt;Node5 -->
<g id="edge5" class="edge">
<title>Node42&#45;&gt;Node5</title>
<path fill="none" stroke="#9a32cd" stroke-dasharray="5,2" d="M261.1149,-52.2972C292.5839,-73.7265 340.4508,-111.935 363,-158.5519 382.7205,-199.3209 352.883,-326.0491 381,-361.5519 388.9696,-371.6149 401.4687,-377.3177 413.6827,-380.5343"/>
<polygon fill="#9a32cd" stroke="#9a32cd" points="262.9731,-49.3297 252.7086,-46.705 259.096,-55.1579 262.9731,-49.3297"/>
<text text-anchor="middle" x="342" y="-215.1519" font-family="Helvetica,sans-Serif" font-size="8.00" fill="#000000"> MSOFT</text>
<text text-anchor="middle" x="342" y="-206.1519" font-family="Helvetica,sans-Serif" font-size="8.00" fill="#000000">SMINPUTS</text>
<text text-anchor="middle" x="342" y="-197.1519" font-family="Helvetica,sans-Serif" font-size="8.00" fill="#000000">HMIX</text>
<text text-anchor="middle" x="342" y="-188.1519" font-family="Helvetica,sans-Serif" font-size="8.00" fill="#000000">MASS</text>
<text text-anchor="middle" x="342" y="-179.1519" font-family="Helvetica,sans-Serif" font-size="8.00" fill="#000000">MODSEL</text>
<text text-anchor="middle" x="342" y="-170.1519" font-family="Helvetica,sans-Serif" font-size="8.00" fill="#000000">EXTPAR</text>
<text text-anchor="middle" x="342" y="-161.1519" font-family="Helvetica,sans-Serif" font-size="8.00" fill="#000000">MINPAR</text>
</g>
<!-- Node43 -->
<g id="node7" class="node">
<title>Node43</title>
<g id="a_node7"><a xlink:href="../../de/d5e/class_l_h_p_c_1_1_s_l_h_a_1_1_indexed_block_template.html" target="_top" xlink:title="LHPC::SLHA::IndexedBlock\lTemplate\&lt; double, Interpreter\lClass::SparseSinglyIndexed\l\&lt; double \&gt; \&gt;">
<polygon fill="none" stroke="#ff0000" points="0,-11.5519 0,-55.5519 122,-55.5519 122,-11.5519 0,-11.5519"/>
<text text-anchor="start" x="8" y="-45.1519" font-family="Helvetica,sans-Serif" font-size="8.00" fill="#000000">LHPC::SLHA::IndexedBlock</text>
<text text-anchor="start" x="8" y="-36.1519" font-family="Helvetica,sans-Serif" font-size="8.00" fill="#000000">Template&lt; double, Interpreter</text>
<text text-anchor="start" x="8" y="-27.1519" font-family="Helvetica,sans-Serif" font-size="8.00" fill="#000000">Class::SparseSinglyIndexed</text>
<text text-anchor="middle" x="61" y="-18.1519" font-family="Helvetica,sans-Serif" font-size="8.00" fill="#000000">&lt; double &gt; &gt;</text>
</a>
</g>
</g>
<!-- Node43&#45;&gt;Node42 -->
<g id="edge6" class="edge">
<title>Node43&#45;&gt;Node42</title>
<path fill="none" stroke="#191970" d="M132.6548,-33.5519C146.2492,-33.5519 160.3107,-33.5519 173.4013,-33.5519"/>
<polygon fill="#191970" stroke="#191970" points="132.3739,-30.052 122.3739,-33.5519 132.3739,-37.052 132.3739,-30.052"/>
</g>
<!-- Node50 -->
<g id="node8" class="node">
<title>Node50</title>
<g id="a_node8"><a xlink:href="../../df/d9c/class_l_h_p_c_1_1_s_l_h_a_1_1_dense_singly_indexed_block.html" target="_top" xlink:title="LHPC::SLHA::DenseSinglyIndexed\lBlock\&lt; double \&gt;">
<polygon fill="none" stroke="#ff0000" points="160.5,-466.5519 160.5,-492.5519 301.5,-492.5519 301.5,-466.5519 160.5,-466.5519"/>
<text text-anchor="start" x="168.5" y="-482.1519" font-family="Helvetica,sans-Serif" font-size="8.00" fill="#000000">LHPC::SLHA::DenseSinglyIndexed</text>
<text text-anchor="middle" x="231" y="-473.1519" font-family="Helvetica,sans-Serif" font-size="8.00" fill="#000000">Block&lt; double &gt;</text>
</a>
</g>
</g>
<!-- Node50&#45;&gt;Node4 -->
<g id="edge13" class="edge">
<title>Node50&#45;&gt;Node4</title>
<path fill="none" stroke="#9a32cd" stroke-dasharray="5,2" d="M311.6758,-483.6141C404.3474,-483.6865 555.0295,-469.0065 644,-382.5519 675.327,-352.1107 691.1489,-299.9761 696.4298,-279.3363"/>
<polygon fill="#9a32cd" stroke="#9a32cd" points="311.5277,-480.1132 301.5047,-483.5468 311.4813,-487.113 311.5277,-480.1132"/>
<text text-anchor="middle" x="450.5" y="-573.1519" font-family="Helvetica,sans-Serif" font-size="8.00" fill="#000000"> UPMNSIN</text>
<text text-anchor="middle" x="450.5" y="-564.1519" font-family="Helvetica,sans-Serif" font-size="8.00" fill="#000000">VCKM</text>
<text text-anchor="middle" x="450.5" y="-555.1519" font-family="Helvetica,sans-Serif" font-size="8.00" fill="#000000">IMGAUGE</text>
<text text-anchor="middle" x="450.5" y="-546.1519" font-family="Helvetica,sans-Serif" font-size="8.00" fill="#000000">IMRVSNVEVIN</text>
<text text-anchor="middle" x="450.5" y="-537.1519" font-family="Helvetica,sans-Serif" font-size="8.00" fill="#000000">RVDIN</text>
<text text-anchor="middle" x="450.5" y="-528.1519" font-family="Helvetica,sans-Serif" font-size="8.00" fill="#000000">RVSNVEV</text>
<text text-anchor="middle" x="450.5" y="-519.1519" font-family="Helvetica,sans-Serif" font-size="8.00" fill="#000000">UPMNS</text>
<text text-anchor="middle" x="450.5" y="-510.1519" font-family="Helvetica,sans-Serif" font-size="8.00" fill="#000000">RVSNVEVIN</text>
<text text-anchor="middle" x="450.5" y="-501.1519" font-family="Helvetica,sans-Serif" font-size="8.00" fill="#000000">IMVCKM</text>
<text text-anchor="middle" x="450.5" y="-492.1519" font-family="Helvetica,sans-Serif" font-size="8.00" fill="#000000">IMRVDIN</text>
<text text-anchor="middle" x="450.5" y="-483.1519" font-family="Helvetica,sans-Serif" font-size="8.00" fill="#000000">...</text>
</g>
<!-- Node50&#45;&gt;Node5 -->
<g id="edge7" class="edge">
<title>Node50&#45;&gt;Node5</title>
<path fill="none" stroke="#9a32cd" stroke-dasharray="5,2" d="M275.3458,-462.8001C284.5301,-459.1926 294.1129,-455.3266 303,-451.5519 338.1423,-436.6256 346.2313,-431.3288 381,-415.5519 397.8436,-407.9088 417.05,-399.3541 430.9975,-393.1707"/>
<polygon fill="#9a32cd" stroke="#9a32cd" points="274.0145,-459.5624 265.965,-466.4512 276.5535,-466.0858 274.0145,-459.5624"/>
<text text-anchor="middle" x="342" y="-446.1519" font-family="Helvetica,sans-Serif" font-size="8.00" fill="#000000"> GAUGE</text>
</g>
<!-- Node58 -->
<g id="node9" class="node">
<title>Node58</title>
<g id="a_node9"><a xlink:href="../../d6/d67/class_l_h_p_c_1_1_s_l_h_a_1_1_lines_as_strings_block.html" target="_top" xlink:title="LHPC::SLHA::LinesAsStrings\lBlock">
<polygon fill="none" stroke="#ff0000" points="170.5,-162.5519 170.5,-188.5519 291.5,-188.5519 291.5,-162.5519 170.5,-162.5519"/>
<text text-anchor="start" x="178.5" y="-178.1519" font-family="Helvetica,sans-Serif" font-size="8.00" fill="#000000">LHPC::SLHA::LinesAsStrings</text>
<text text-anchor="middle" x="231" y="-169.1519" font-family="Helvetica,sans-Serif" font-size="8.00" fill="#000000">Block</text>
</a>
</g>
</g>
<!-- Node58&#45;&gt;Node3 -->
<g id="edge15" class="edge">
<title>Node58&#45;&gt;Node3</title>
<path fill="none" stroke="#9a32cd" stroke-dasharray="5,2" d="M259.6679,-157.116C276.7694,-147.1042 299.3151,-135.571 321,-129.5519 479.1657,-85.6495 675.6321,-98.0205 771.8469,-108.1637"/>
<polygon fill="#9a32cd" stroke="#9a32cd" points="257.5276,-154.3192 250.7672,-162.4769 261.1393,-160.3156 257.5276,-154.3192"/>
<text text-anchor="middle" x="591" y="-111.1519" font-family="Helvetica,sans-Serif" font-size="8.00" fill="#000000"> SPHENOCROSSSECTIONS</text>
<text text-anchor="middle" x="591" y="-102.1519" font-family="Helvetica,sans-Serif" font-size="8.00" fill="#000000">SPHENOINPUT</text>
</g>
<!-- Node58&#45;&gt;Node5 -->
<g id="edge8" class="edge">
<title>Node58&#45;&gt;Node5</title>
<path fill="none" stroke="#9a32cd" stroke-dasharray="5,2" d="M270.9306,-192.9932C301.0378,-208.2611 340.8127,-233.3635 363,-267.5519 386.1563,-303.2334 352.9454,-329.5781 381,-361.5519 389.3824,-371.1053 401.8209,-376.7046 413.8676,-379.9813"/>
<polygon fill="#9a32cd" stroke="#9a32cd" points="272.4464,-189.8384 261.9275,-188.5715 269.3605,-196.1215 272.4464,-189.8384"/>
<text text-anchor="middle" x="342" y="-270.1519" font-family="Helvetica,sans-Serif" font-size="8.00" fill="#000000"> SPINFO</text>
</g>
<!-- Node67 -->
<g id="node10" class="node">
<title>Node67</title>
<g id="a_node10"><a xlink:href="../../df/db0/class_l_h_p_c_1_1_s_l_h_a_1_1_dense_triply_indexed_block.html" target="_top" xlink:title="LHPC::SLHA::DenseTriplyIndexed\lBlock\&lt; double \&gt;">
<polygon fill="none" stroke="#ff0000" points="381,-144.5519 381,-170.5519 520,-170.5519 520,-144.5519 381,-144.5519"/>
<text text-anchor="start" x="389" y="-160.1519" font-family="Helvetica,sans-Serif" font-size="8.00" fill="#000000">LHPC::SLHA::DenseTriplyIndexed</text>
<text text-anchor="middle" x="450.5" y="-151.1519" font-family="Helvetica,sans-Serif" font-size="8.00" fill="#000000">Block&lt; double &gt;</text>
</a>
</g>
</g>
<!-- Node67&#45;&gt;Node4 -->
<g id="edge9" class="edge">
<title>Node67&#45;&gt;Node4</title>
<path fill="none" stroke="#9a32cd" stroke-dasharray="5,2" d="M506.7729,-142.5767C547.9158,-134.9881 603.393,-132.0535 644,-157.5519 681.9979,-181.4119 694.1329,-240.0422 697.4236,-262.0345"/>
<polygon fill="#9a32cd" stroke="#9a32cd" points="506.0319,-139.1554 496.9046,-144.5354 507.3947,-146.0215 506.0319,-139.1554"/>
<text text-anchor="middle" x="591" y="-250.1519" font-family="Helvetica,sans-Serif" font-size="8.00" fill="#000000"> RVTLQD</text>
<text text-anchor="middle" x="591" y="-241.1519" font-family="Helvetica,sans-Serif" font-size="8.00" fill="#000000">IMRVLAMUDD</text>
<text text-anchor="middle" x="591" y="-232.1519" font-family="Helvetica,sans-Serif" font-size="8.00" fill="#000000">RVTLLEIN</text>
<text text-anchor="middle" x="591" y="-223.1519" font-family="Helvetica,sans-Serif" font-size="8.00" fill="#000000">IMRVLAMLQD</text>
<text text-anchor="middle" x="591" y="-214.1519" font-family="Helvetica,sans-Serif" font-size="8.00" fill="#000000">RVLAMLLE</text>
<text text-anchor="middle" x="591" y="-205.1519" font-family="Helvetica,sans-Serif" font-size="8.00" fill="#000000">IMRVLAMLLEIN</text>
<text text-anchor="middle" x="591" y="-196.1519" font-family="Helvetica,sans-Serif" font-size="8.00" fill="#000000">RVTUDDIN</text>
<text text-anchor="middle" x="591" y="-187.1519" font-family="Helvetica,sans-Serif" font-size="8.00" fill="#000000">RVLAMLQD</text>
<text text-anchor="middle" x="591" y="-178.1519" font-family="Helvetica,sans-Serif" font-size="8.00" fill="#000000">RVTUDD</text>
<text text-anchor="middle" x="591" y="-169.1519" font-family="Helvetica,sans-Serif" font-size="8.00" fill="#000000">RVLAMUDDIN</text>
<text text-anchor="middle" x="591" y="-160.1519" font-family="Helvetica,sans-Serif" font-size="8.00" fill="#000000">...</text>
</g>
</g>
</svg>
