<?xml version="1.0" encoding="UTF-8" standalone="no"?>
<!DOCTYPE svg PUBLIC "-//W3C//DTD SVG 1.1//EN"
 "http://www.w3.org/Graphics/SVG/1.1/DTD/svg11.dtd">
<!-- Generated by graphviz version 2.40.1 (20161225.0304)
 -->
<!-- Title: HeffDC1.h Pages: 1 -->
<svg width="386pt" height="242pt"
 viewBox="0.00 0.00 386.09 242.00" xmlns="http://www.w3.org/2000/svg" xmlns:xlink="http://www.w3.org/1999/xlink">
<g id="graph0" class="graph" transform="scale(1 1) rotate(0) translate(4 238)">
<title>HeffDC1.h</title>
<!-- Node0 -->
<g id="node1" class="node">
<title>Node0</title>
<polygon fill="#bfbfbf" stroke="#000000" points="139.5,-216.5 139.5,-233.5 193.5,-233.5 193.5,-216.5 139.5,-216.5"/>
<text text-anchor="middle" x="166.5" y="-223.1" font-family="Helvetica,sans-Serif" font-size="8.00" fill="#000000">HeffDC1.h</text>
</g>
<!-- Node1 -->
<g id="node2" class="node">
<title>Node1</title>
<g id="a_node2"><a xlink:href="../../db/dba/_wilson_coefficient_8h.html" target="_top" xlink:title="WilsonCoefficient.h">
<polygon fill="none" stroke="#000000" points="83,-162.5 83,-179.5 168,-179.5 168,-162.5 83,-162.5"/>
<text text-anchor="middle" x="125.5" y="-169.1" font-family="Helvetica,sans-Serif" font-size="8.00" fill="#000000">WilsonCoefficient.h</text>
</a>
</g>
</g>
<!-- Node0&#45;&gt;Node1 -->
<g id="edge1" class="edge">
<title>Node0&#45;&gt;Node1</title>
<path fill="none" stroke="#191970" d="M159.7297,-216.083C153.9384,-208.4554 145.4415,-197.2645 138.3625,-187.9408"/>
<polygon fill="#191970" stroke="#191970" points="140.979,-185.5991 132.1443,-179.7511 135.4039,-189.8321 140.979,-185.5991"/>
</g>
<!-- Node11 -->
<g id="node6" class="node">
<title>Node11</title>
<polygon fill="none" stroke="#bfbfbf" points="0,-54.5 0,-71.5 45,-71.5 45,-54.5 0,-54.5"/>
<text text-anchor="middle" x="22.5" y="-61.1" font-family="Helvetica,sans-Serif" font-size="8.00" fill="#000000">sstream</text>
</g>
<!-- Node0&#45;&gt;Node11 -->
<g id="edge15" class="edge">
<title>Node0&#45;&gt;Node11</title>
<path fill="none" stroke="#191970" d="M139.2771,-218.0288C100.6675,-206.4368 31.8741,-179.0404 6.5,-126 -.4853,-111.3983 5.3802,-93.3812 11.8887,-80.36"/>
<polygon fill="#191970" stroke="#191970" points="15.004,-81.9592 16.7891,-71.5158 8.881,-78.5666 15.004,-81.9592"/>
</g>
<!-- Node13 -->
<g id="node7" class="node">
<title>Node13</title>
<g id="a_node7"><a xlink:href="../../d9/d72/gslpp_8h.html" target="_top" xlink:title="gslpp.h">
<polygon fill="none" stroke="#ff0000" points="202.5,-162.5 202.5,-179.5 244.5,-179.5 244.5,-162.5 202.5,-162.5"/>
<text text-anchor="middle" x="223.5" y="-169.1" font-family="Helvetica,sans-Serif" font-size="8.00" fill="#000000">gslpp.h</text>
</a>
</g>
</g>
<!-- Node0&#45;&gt;Node13 -->
<g id="edge6" class="edge">
<title>Node0&#45;&gt;Node13</title>
<path fill="none" stroke="#191970" d="M175.658,-216.324C184.0015,-208.4196 196.5324,-196.5482 206.6769,-186.9377"/>
<polygon fill="#191970" stroke="#191970" points="209.3229,-189.2522 214.1753,-179.8339 204.5087,-184.1705 209.3229,-189.2522"/>
</g>
<!-- Node22 -->
<g id="node10" class="node">
<title>Node22</title>
<polygon fill="none" stroke="#bfbfbf" points="263,-162.5 263,-179.5 308,-179.5 308,-162.5 263,-162.5"/>
<text text-anchor="middle" x="285.5" y="-169.1" font-family="Helvetica,sans-Serif" font-size="8.00" fill="#000000">memory</text>
</g>
<!-- Node0&#45;&gt;Node22 -->
<g id="edge16" class="edge">
<title>Node0&#45;&gt;Node22</title>
<path fill="none" stroke="#191970" d="M185.3559,-216.4435C204.766,-207.6356 235.2301,-193.8116 257.4645,-183.722"/>
<polygon fill="#191970" stroke="#191970" points="259.0723,-186.836 266.7323,-179.5164 256.1797,-180.4615 259.0723,-186.836"/>
</g>
<!-- Node2 -->
<g id="node3" class="node">
<title>Node2</title>
<g id="a_node3"><a xlink:href="../../da/dad/gslpp__vector__complex_8h.html" target="_top" xlink:title="gslpp_vector_complex.h">
<polygon fill="none" stroke="#ff0000" points="109,-54.5 109,-71.5 212,-71.5 212,-54.5 109,-54.5"/>
<text text-anchor="middle" x="160.5" y="-61.1" font-family="Helvetica,sans-Serif" font-size="8.00" fill="#000000">gslpp_vector_complex.h</text>
</a>
</g>
</g>
<!-- Node1&#45;&gt;Node2 -->
<g id="edge2" class="edge">
<title>Node1&#45;&gt;Node2</title>
<path fill="none" stroke="#191970" d="M128.3642,-162.1619C134.0582,-144.5918 146.9062,-104.9465 154.5198,-81.4532"/>
<polygon fill="#191970" stroke="#191970" points="157.9406,-82.2503 157.694,-71.6584 151.2816,-80.0923 157.9406,-82.2503"/>
</g>
<!-- Node9 -->
<g id="node5" class="node">
<title>Node9</title>
<g id="a_node5"><a xlink:href="../../d3/de7/_wilson_template_8h.html" target="_top" xlink:title="WilsonTemplate.h">
<polygon fill="none" stroke="#ff0000" points="16,-108.5 16,-125.5 97,-125.5 97,-108.5 16,-108.5"/>
<text text-anchor="middle" x="56.5" y="-115.1" font-family="Helvetica,sans-Serif" font-size="8.00" fill="#000000">WilsonTemplate.h</text>
</a>
</g>
</g>
<!-- Node1&#45;&gt;Node9 -->
<g id="edge4" class="edge">
<title>Node1&#45;&gt;Node9</title>
<path fill="none" stroke="#191970" d="M114.414,-162.324C104.014,-154.1849 88.2394,-141.8395 75.7784,-132.0874"/>
<polygon fill="#191970" stroke="#191970" points="77.8199,-129.2407 67.7878,-125.8339 73.5057,-134.7533 77.8199,-129.2407"/>
</g>
<!-- Node5 -->
<g id="node4" class="node">
<title>Node5</title>
<g id="a_node4"><a xlink:href="../../d1/dc2/gslpp__complex_8h.html" target="_top" xlink:title="gslpp_complex.h">
<polygon fill="none" stroke="#ff0000" points="240,-.5 240,-17.5 317,-17.5 317,-.5 240,-.5"/>
<text text-anchor="middle" x="278.5" y="-7.1" font-family="Helvetica,sans-Serif" font-size="8.00" fill="#000000">gslpp_complex.h</text>
</a>
</g>
</g>
<!-- Node2&#45;&gt;Node5 -->
<g id="edge3" class="edge">
<title>Node2&#45;&gt;Node5</title>
<path fill="none" stroke="#191970" d="M179.1975,-54.4435C198.4445,-45.6356 228.6525,-31.8116 250.7001,-21.722"/>
<polygon fill="#191970" stroke="#191970" points="252.2534,-24.8603 259.89,-17.5164 249.3405,-18.4951 252.2534,-24.8603"/>
</g>
<!-- Node9&#45;&gt;Node11 -->
<g id="edge5" class="edge">
<title>Node9&#45;&gt;Node11</title>
<path fill="none" stroke="#191970" d="M50.8856,-108.083C46.1326,-100.5341 39.1819,-89.4948 33.3484,-80.2298"/>
<polygon fill="#191970" stroke="#191970" points="36.2999,-78.3486 28.0099,-71.7511 30.3763,-82.0783 36.2999,-78.3486"/>
</g>
<!-- Node13&#45;&gt;Node2 -->
<g id="edge10" class="edge">
<title>Node13&#45;&gt;Node2</title>
<path fill="none" stroke="#191970" d="M214.1252,-162.4991C205.2199,-153.9975 191.9677,-140.1794 183.5,-126 175.1049,-111.9421 168.9927,-94.3185 165.1886,-81.2886"/>
<polygon fill="#191970" stroke="#191970" points="168.5533,-80.3236 162.5365,-71.603 161.8018,-82.1723 168.5533,-80.3236"/>
</g>
<!-- Node13&#45;&gt;Node5 -->
<g id="edge7" class="edge">
<title>Node13&#45;&gt;Node5</title>
<path fill="none" stroke="#191970" d="M244.7606,-162.8002C264.2508,-154.8095 293.4903,-141.6043 316.5,-126 345.92,-106.0484 361.1739,-104.5326 375.5,-72 386.8424,-46.2428 356.6904,-29.8054 327.0794,-20.2033"/>
<polygon fill="#191970" stroke="#191970" points="327.7033,-16.736 317.1189,-17.2054 325.6858,-23.439 327.7033,-16.736"/>
</g>
<!-- Node14 -->
<g id="node8" class="node">
<title>Node14</title>
<g id="a_node8"><a xlink:href="../../da/d8e/gslpp__vector__double_8h.html" target="_top" xlink:title="gslpp_vector_double.h">
<polygon fill="none" stroke="#ff0000" points="269,-54.5 269,-71.5 366,-71.5 366,-54.5 269,-54.5"/>
<text text-anchor="middle" x="317.5" y="-61.1" font-family="Helvetica,sans-Serif" font-size="8.00" fill="#000000">gslpp_vector_double.h</text>
</a>
</g>
</g>
<!-- Node13&#45;&gt;Node14 -->
<g id="edge8" class="edge">
<title>Node13&#45;&gt;Node14</title>
<path fill="none" stroke="#191970" d="M244.5687,-163.343C261.4723,-156.1665 284.5987,-143.851 298.5,-126 308.4803,-113.1841 313.2354,-95.1696 315.4909,-81.685"/>
<polygon fill="#191970" stroke="#191970" points="318.9778,-82.0173 316.8573,-71.6369 312.0417,-81.074 318.9778,-82.0173"/>
</g>
<!-- Node16 -->
<g id="node9" class="node">
<title>Node16</title>
<g id="a_node9"><a xlink:href="../../d0/ddb/gslpp__matrix__double_8h.html" target="_top" xlink:title="gslpp_matrix_double.h">
<polygon fill="none" stroke="#ff0000" points="192,-108.5 192,-125.5 289,-125.5 289,-108.5 192,-108.5"/>
<text text-anchor="middle" x="240.5" y="-115.1" font-family="Helvetica,sans-Serif" font-size="8.00" fill="#000000">gslpp_matrix_double.h</text>
</a>
</g>
</g>
<!-- Node13&#45;&gt;Node16 -->
<g id="edge11" class="edge">
<title>Node13&#45;&gt;Node16</title>
<path fill="none" stroke="#191970" d="M226.3072,-162.083C228.5847,-154.8486 231.8713,-144.4087 234.7084,-135.3968"/>
<polygon fill="#191970" stroke="#191970" points="238.0806,-136.3406 237.745,-125.7511 231.4036,-134.2385 238.0806,-136.3406"/>
</g>
<!-- Node14&#45;&gt;Node5 -->
<g id="edge9" class="edge">
<title>Node14&#45;&gt;Node5</title>
<path fill="none" stroke="#191970" d="M311.0599,-54.083C305.5511,-46.4554 297.4688,-35.2645 290.735,-25.9408"/>
<polygon fill="#191970" stroke="#191970" points="293.5126,-23.8087 284.8202,-17.7511 287.8378,-27.9071 293.5126,-23.8087"/>
</g>
<!-- Node16&#45;&gt;Node2 -->
<g id="edge14" class="edge">
<title>Node16&#45;&gt;Node2</title>
<path fill="none" stroke="#191970" d="M227.6466,-108.324C215.2836,-99.979 196.3699,-87.2122 181.7628,-77.3524"/>
<polygon fill="#191970" stroke="#191970" points="183.5682,-74.3483 173.3215,-71.6545 179.6518,-80.1503 183.5682,-74.3483"/>
</g>
<!-- Node16&#45;&gt;Node5 -->
<g id="edge12" class="edge">
<title>Node16&#45;&gt;Node5</title>
<path fill="none" stroke="#191970" d="M243.0203,-108.3738C246.6335,-96.1761 253.6121,-73.2299 260.5,-54 263.732,-44.9769 267.6514,-35.0744 271.0067,-26.8615"/>
<polygon fill="#191970" stroke="#191970" points="274.2681,-28.1336 274.8608,-17.5554 267.8008,-25.4552 274.2681,-28.1336"/>
</g>
<!-- Node16&#45;&gt;Node14 -->
<g id="edge13" class="edge">
<title>Node16&#45;&gt;Node14</title>
<path fill="none" stroke="#191970" d="M252.8714,-108.324C264.6585,-100.0577 282.6323,-87.4527 296.6355,-77.6322"/>
<polygon fill="#191970" stroke="#191970" points="298.9816,-80.2619 305.1593,-71.6545 294.9624,-74.5307 298.9816,-80.2619"/>
</g>
</g>
</svg>
