<?xml version="1.0" encoding="UTF-8" standalone="no"?>
<!DOCTYPE svg PUBLIC "-//W3C//DTD SVG 1.1//EN"
 "http://www.w3.org/Graphics/SVG/1.1/DTD/svg11.dtd">
<!-- Generated by graphviz version 2.40.1 (20161225.0304)
 -->
<!-- Title: FindAction Pages: 1 -->
<svg width="818pt" height="404pt"
 viewBox="0.00 0.00 818.00 404.00" xmlns="http://www.w3.org/2000/svg" xmlns:xlink="http://www.w3.org/1999/xlink">
<g id="graph0" class="graph" transform="scale(1 1) rotate(0) translate(4 400)">
<title>FindAction</title>
<!-- Node2 -->
<g id="node1" class="node">
<title>Node2</title>
<polygon fill="#bfbfbf" stroke="#000000" points="756,-151.5 756,-168.5 810,-168.5 810,-151.5 756,-151.5"/>
<text text-anchor="middle" x="783" y="-158.1" font-family="Helvetica,sans-Serif" font-size="8.00" fill="#000000">FindAction</text>
</g>
<!-- Node3 -->
<g id="node2" class="node">
<title>Node3</title>
<g id="a_node2"><a xlink:href="../../dc/d1f/class_th_observable.html" target="_top" xlink:title="A class for a model prediction of an observable. ">
<polygon fill="none" stroke="#000000" points="445,-264.5 445,-281.5 512,-281.5 512,-264.5 445,-264.5"/>
<text text-anchor="middle" x="478.5" y="-271.1" font-family="Helvetica,sans-Serif" font-size="8.00" fill="#000000">ThObservable</text>
</a>
</g>
</g>
<!-- Node3&#45;&gt;Node2 -->
<g id="edge1" class="edge">
<title>Node3&#45;&gt;Node2</title>
<path fill="none" stroke="#191970" d="M522.1426,-261.7187C574.6279,-247.4347 664.8023,-220.5893 738,-187 749.4273,-181.7562 761.611,-174.32 770.415,-168.5788"/>
<polygon fill="#191970" stroke="#191970" points="520.9098,-258.4259 512.1642,-264.4063 522.7304,-265.1851 520.9098,-258.4259"/>
</g>
<!-- Node4 -->
<g id="node3" class="node">
<title>Node4</title>
<g id="a_node3"><a xlink:href="../../dc/dd5/class_standard_model.html" target="_top" xlink:title="A model class for the Standard Model. ">
<polygon fill="none" stroke="#ff0000" points="204.5,-297.5 204.5,-314.5 275.5,-314.5 275.5,-297.5 204.5,-297.5"/>
<text text-anchor="middle" x="240" y="-304.1" font-family="Helvetica,sans-Serif" font-size="8.00" fill="#000000">StandardModel</text>
</a>
</g>
</g>
<!-- Node4&#45;&gt;Node3 -->
<g id="edge2" class="edge">
<title>Node4&#45;&gt;Node3</title>
<path fill="none" stroke="#9a32cd" stroke-dasharray="5,2" d="M285.8201,-299.6601C332.3467,-293.2225 403.2908,-283.4063 444.8661,-277.6537"/>
<polygon fill="#9a32cd" stroke="#9a32cd" points="285.1318,-296.2219 275.7059,-301.0596 286.0912,-303.1559 285.1318,-296.2219"/>
<text text-anchor="middle" x="338" y="-297.6" font-family="Helvetica,sans-Serif" font-size="8.00" fill="#000000"> SM</text>
</g>
<!-- Node47 -->
<g id="node6" class="node">
<title>Node47</title>
<g id="a_node6"><a xlink:href="../../dc/d6f/class_s_u_s_y.html" target="_top" xlink:title="A base class for SUSY models. ">
<polygon fill="none" stroke="#ff0000" points="380,-142.5 380,-159.5 418,-159.5 418,-142.5 380,-142.5"/>
<text text-anchor="middle" x="399" y="-149.1" font-family="Helvetica,sans-Serif" font-size="8.00" fill="#000000">SUSY</text>
</a>
</g>
</g>
<!-- Node4&#45;&gt;Node47 -->
<g id="edge6" class="edge">
<title>Node4&#45;&gt;Node47</title>
<path fill="none" stroke="#191970" d="M278.4995,-293.3165C284.6541,-290.4267 290.7245,-287.0017 296,-283 320.5485,-264.379 375.075,-186.0746 393.0933,-159.7076"/>
<polygon fill="#191970" stroke="#191970" points="276.6887,-290.2835 268.8608,-297.4232 279.4325,-296.7234 276.6887,-290.2835"/>
</g>
<!-- Node23 -->
<g id="node4" class="node">
<title>Node23</title>
<g id="a_node4"><a xlink:href="../../dd/d9b/classgslpp_1_1complex.html" target="_top" xlink:title="A class for defining operations on and functions of complex numbers. ">
<polygon fill="none" stroke="#000000" points="9,-325.5 9,-342.5 79,-342.5 79,-325.5 9,-325.5"/>
<text text-anchor="middle" x="44" y="-332.1" font-family="Helvetica,sans-Serif" font-size="8.00" fill="#000000">gslpp::complex</text>
</a>
</g>
</g>
<!-- Node23&#45;&gt;Node4 -->
<g id="edge3" class="edge">
<title>Node23&#45;&gt;Node4</title>
<path fill="none" stroke="#9a32cd" stroke-dasharray="5,2" d="M85.4747,-323.1149C92.2993,-321.5694 99.3233,-320.1258 106,-319 139.0736,-313.4233 177.1731,-310.0139 204.2718,-308.0942"/>
<polygon fill="#9a32cd" stroke="#9a32cd" points="84.6105,-319.7226 75.6824,-325.4269 86.219,-326.5353 84.6105,-319.7226"/>
<text text-anchor="middle" x="136" y="-330.6" font-family="Helvetica,sans-Serif" font-size="8.00" fill="#000000"> rhoZ_f_cache</text>
<text text-anchor="middle" x="136" y="-321.6" font-family="Helvetica,sans-Serif" font-size="8.00" fill="#000000">kappaZ_f_cache</text>
</g>
<!-- Node23&#45;&gt;Node47 -->
<g id="edge9" class="edge">
<title>Node23&#45;&gt;Node47</title>
<path fill="none" stroke="#9a32cd" stroke-dasharray="5,2" d="M83.4968,-345.022C151.0217,-361.1932 288.4693,-382.0021 362,-308 383.3172,-286.5461 395.0025,-189.5251 398.1336,-159.7299"/>
<polygon fill="#9a32cd" stroke="#9a32cd" points="84.2173,-341.5947 73.6686,-342.5817 82.5304,-348.3884 84.2173,-341.5947"/>
<text text-anchor="middle" x="240" y="-389.6" font-family="Helvetica,sans-Serif" font-size="8.00" fill="#000000"> saeff</text>
<text text-anchor="middle" x="240" y="-380.6" font-family="Helvetica,sans-Serif" font-size="8.00" fill="#000000">m1</text>
<text text-anchor="middle" x="240" y="-371.6" font-family="Helvetica,sans-Serif" font-size="8.00" fill="#000000">m2</text>
<text text-anchor="middle" x="240" y="-362.6" font-family="Helvetica,sans-Serif" font-size="8.00" fill="#000000">muH</text>
</g>
<!-- Node30 -->
<g id="node5" class="node">
<title>Node30</title>
<g id="a_node5"><a xlink:href="../../d1/d3c/classgslpp_1_1matrix.html" target="_top" xlink:title="gslpp::matrix\&lt; gslpp\l::complex \&gt;">
<polygon fill="none" stroke="#ff0000" points="0,-190 0,-216 88,-216 88,-190 0,-190"/>
<text text-anchor="start" x="8" y="-205.6" font-family="Helvetica,sans-Serif" font-size="8.00" fill="#000000">gslpp::matrix&lt; gslpp</text>
<text text-anchor="middle" x="44" y="-196.6" font-family="Helvetica,sans-Serif" font-size="8.00" fill="#000000">::complex &gt;</text>
</a>
</g>
</g>
<!-- Node30&#45;&gt;Node4 -->
<g id="edge4" class="edge">
<title>Node30&#45;&gt;Node4</title>
<path fill="none" stroke="#9a32cd" stroke-dasharray="5,2" d="M78.0802,-221.0535C102.7799,-234.3648 136.823,-253.1818 166,-271 174.2057,-276.0111 175.5114,-278.4847 184,-283 194.2999,-288.4787 206.1961,-293.5305 216.3678,-297.4955"/>
<polygon fill="#9a32cd" stroke="#9a32cd" points="79.5673,-217.8795 69.1009,-216.235 76.2574,-224.0475 79.5673,-217.8795"/>
<text text-anchor="middle" x="136" y="-300.6" font-family="Helvetica,sans-Serif" font-size="8.00" fill="#000000"> Yn</text>
<text text-anchor="middle" x="136" y="-291.6" font-family="Helvetica,sans-Serif" font-size="8.00" fill="#000000">Yd</text>
<text text-anchor="middle" x="136" y="-282.6" font-family="Helvetica,sans-Serif" font-size="8.00" fill="#000000">Yu</text>
<text text-anchor="middle" x="136" y="-273.6" font-family="Helvetica,sans-Serif" font-size="8.00" fill="#000000">Ye</text>
</g>
<!-- Node30&#45;&gt;Node47 -->
<g id="edge11" class="edge">
<title>Node30&#45;&gt;Node47</title>
<path fill="none" stroke="#9a32cd" stroke-dasharray="5,2" d="M98.2426,-196.1035C161.6347,-187.8633 269.6329,-173.2644 362,-158 367.8051,-157.0407 374.1015,-155.8907 379.8263,-154.8027"/>
<polygon fill="#9a32cd" stroke="#9a32cd" points="97.5481,-192.6641 88.0805,-197.4196 98.4473,-199.6061 97.5481,-192.6641"/>
<text text-anchor="middle" x="240" y="-276.6" font-family="Helvetica,sans-Serif" font-size="8.00" fill="#000000"> U</text>
<text text-anchor="middle" x="240" y="-267.6" font-family="Helvetica,sans-Serif" font-size="8.00" fill="#000000">Rd</text>
<text text-anchor="middle" x="240" y="-258.6" font-family="Helvetica,sans-Serif" font-size="8.00" fill="#000000">Ru</text>
<text text-anchor="middle" x="240" y="-249.6" font-family="Helvetica,sans-Serif" font-size="8.00" fill="#000000">V</text>
<text text-anchor="middle" x="240" y="-240.6" font-family="Helvetica,sans-Serif" font-size="8.00" fill="#000000">Rdresum</text>
<text text-anchor="middle" x="240" y="-231.6" font-family="Helvetica,sans-Serif" font-size="8.00" fill="#000000">TEhat</text>
<text text-anchor="middle" x="240" y="-222.6" font-family="Helvetica,sans-Serif" font-size="8.00" fill="#000000">TDhat</text>
<text text-anchor="middle" x="240" y="-213.6" font-family="Helvetica,sans-Serif" font-size="8.00" fill="#000000">TUhat</text>
<text text-anchor="middle" x="240" y="-204.6" font-family="Helvetica,sans-Serif" font-size="8.00" fill="#000000">msDhat2</text>
<text text-anchor="middle" x="240" y="-195.6" font-family="Helvetica,sans-Serif" font-size="8.00" fill="#000000">msUhat2</text>
<text text-anchor="middle" x="240" y="-186.6" font-family="Helvetica,sans-Serif" font-size="8.00" fill="#000000">...</text>
</g>
<!-- Node47&#45;&gt;Node2 -->
<g id="edge5" class="edge">
<title>Node47&#45;&gt;Node2</title>
<path fill="none" stroke="#9a32cd" stroke-dasharray="5,2" d="M428.1169,-157.8918C430.7707,-158.3391 433.4273,-158.7213 436,-159 554.5879,-171.8467 697.3125,-165.4194 755.8974,-161.8476"/>
<polygon fill="#9a32cd" stroke="#9a32cd" points="428.5649,-154.4131 418.0786,-155.9254 427.2192,-161.2825 428.5649,-154.4131"/>
<text text-anchor="middle" x="585" y="-168.6" font-family="Helvetica,sans-Serif" font-size="8.00" fill="#000000"> mySUSY</text>
</g>
<!-- Node54 -->
<g id="node10" class="node">
<title>Node54</title>
<g id="a_node10"><a xlink:href="../../d2/d4e/class_s_u_s_y_scalar_potential.html" target="_top" xlink:title="SUSYScalarPotential. ">
<polygon fill="none" stroke="#000000" points="539,-119.5 539,-136.5 631,-136.5 631,-119.5 539,-119.5"/>
<text text-anchor="middle" x="585" y="-126.1" font-family="Helvetica,sans-Serif" font-size="8.00" fill="#000000">SUSYScalarPotential</text>
</a>
</g>
</g>
<!-- Node47&#45;&gt;Node54 -->
<g id="edge13" class="edge">
<title>Node47&#45;&gt;Node54</title>
<path fill="none" stroke="#9a32cd" stroke-dasharray="5,2" d="M428.3187,-147.3746C457.9511,-143.7103 504.1786,-137.994 538.7536,-133.7186"/>
<polygon fill="#9a32cd" stroke="#9a32cd" points="427.6996,-143.9244 418.2047,-148.6252 428.5587,-150.8715 427.6996,-143.9244"/>
<text text-anchor="middle" x="478.5" y="-148.6" font-family="Helvetica,sans-Serif" font-size="8.00" fill="#000000"> mySUSY</text>
</g>
<!-- Node48 -->
<g id="node7" class="node">
<title>Node48</title>
<g id="a_node7"><a xlink:href="../../d5/d76/class_matching.html" target="_top" xlink:title="Matching\&lt; SUSYMatching,\l SUSY \&gt;">
<polygon fill="none" stroke="#ff0000" points="184,-117 184,-143 296,-143 296,-117 184,-117"/>
<text text-anchor="start" x="192" y="-132.6" font-family="Helvetica,sans-Serif" font-size="8.00" fill="#000000">Matching&lt; SUSYMatching,</text>
<text text-anchor="middle" x="240" y="-123.6" font-family="Helvetica,sans-Serif" font-size="8.00" fill="#000000"> SUSY &gt;</text>
</a>
</g>
</g>
<!-- Node48&#45;&gt;Node47 -->
<g id="edge7" class="edge">
<title>Node48&#45;&gt;Node47</title>
<path fill="none" stroke="#9a32cd" stroke-dasharray="5,2" d="M306.1149,-138.7322C332.6864,-142.2416 361.3119,-146.0223 379.6538,-148.4448"/>
<polygon fill="#9a32cd" stroke="#9a32cd" points="306.4297,-135.2434 296.0575,-137.4038 305.513,-142.1832 306.4297,-135.2434"/>
<text text-anchor="middle" x="338" y="-147.6" font-family="Helvetica,sans-Serif" font-size="8.00" fill="#000000"> SUSYM</text>
</g>
<!-- Node52 -->
<g id="node8" class="node">
<title>Node52</title>
<g id="a_node8"><a xlink:href="../../da/df7/class_e_w_s_u_s_y.html" target="_top" xlink:title="A class for SUSY contributions to the EW precision observables. ">
<polygon fill="none" stroke="#000000" points="214.5,-80.5 214.5,-97.5 265.5,-97.5 265.5,-80.5 214.5,-80.5"/>
<text text-anchor="middle" x="240" y="-87.1" font-family="Helvetica,sans-Serif" font-size="8.00" fill="#000000">EWSUSY</text>
</a>
</g>
</g>
<!-- Node52&#45;&gt;Node47 -->
<g id="edge8" class="edge">
<title>Node52&#45;&gt;Node47</title>
<path fill="none" stroke="#9a32cd" stroke-dasharray="5,2" d="M275.3496,-96.735C300.2813,-102.8988 334.0732,-112.7043 362,-126 371.3796,-130.4655 381.0774,-137.1059 388.1905,-142.4208"/>
<polygon fill="#9a32cd" stroke="#9a32cd" points="276.1279,-93.3225 265.5875,-94.3951 274.4962,-100.1297 276.1279,-93.3225"/>
<text text-anchor="middle" x="338" y="-128.6" font-family="Helvetica,sans-Serif" font-size="8.00" fill="#000000"> myEWSUSY</text>
</g>
<!-- Node51 -->
<g id="node9" class="node">
<title>Node51</title>
<g id="a_node9"><a xlink:href="../../d6/d73/classgslpp_1_1vector_3_01double_01_4.html" target="_top" xlink:title="A class for constructing and defining operations on real vectors. ">
<polygon fill="none" stroke="#000000" points="190,-.5 190,-17.5 290,-17.5 290,-.5 190,-.5"/>
<text text-anchor="middle" x="240" y="-7.1" font-family="Helvetica,sans-Serif" font-size="8.00" fill="#000000">gslpp::vector&lt; double &gt;</text>
</a>
</g>
</g>
<!-- Node51&#45;&gt;Node2 -->
<g id="edge14" class="edge">
<title>Node51&#45;&gt;Node2</title>
<path fill="none" stroke="#9a32cd" stroke-dasharray="5,2" d="M300.2883,-7.7179C320.0671,-8.1626 342.0783,-9.5876 362,-13 534.7646,-42.5931 578.7897,-58.6825 738,-132 749.7009,-137.3883 762.0622,-145.2572 770.8621,-151.282"/>
<polygon fill="#9a32cd" stroke="#9a32cd" points="300.222,-4.2166 290.1717,-7.5693 300.1192,-11.2159 300.222,-4.2166"/>
<text text-anchor="middle" x="478.5" y="-47.6" font-family="Helvetica,sans-Serif" font-size="8.00" fill="#000000"> potentialcoefficientspar</text>
</g>
<!-- Node51&#45;&gt;Node47 -->
<g id="edge10" class="edge">
<title>Node51&#45;&gt;Node47</title>
<path fill="none" stroke="#9a32cd" stroke-dasharray="5,2" d="M300.0446,-12.9444C321.8825,-17.1792 345.28,-25.3793 362,-41 377.3119,-55.3052 392.1678,-118.9816 397.2004,-142.3574"/>
<polygon fill="#9a32cd" stroke="#9a32cd" points="300.5951,-9.4879 290.1504,-11.2653 299.4238,-16.3892 300.5951,-9.4879"/>
<text text-anchor="middle" x="338" y="-97.6" font-family="Helvetica,sans-Serif" font-size="8.00" fill="#000000"> mneu</text>
<text text-anchor="middle" x="338" y="-88.6" font-family="Helvetica,sans-Serif" font-size="8.00" fill="#000000">m_sn2</text>
<text text-anchor="middle" x="338" y="-79.6" font-family="Helvetica,sans-Serif" font-size="8.00" fill="#000000">m_se2</text>
<text text-anchor="middle" x="338" y="-70.6" font-family="Helvetica,sans-Serif" font-size="8.00" fill="#000000">m_sd2</text>
<text text-anchor="middle" x="338" y="-61.6" font-family="Helvetica,sans-Serif" font-size="8.00" fill="#000000">m_su2</text>
<text text-anchor="middle" x="338" y="-52.6" font-family="Helvetica,sans-Serif" font-size="8.00" fill="#000000">m_sdresum2</text>
<text text-anchor="middle" x="338" y="-43.6" font-family="Helvetica,sans-Serif" font-size="8.00" fill="#000000">mch</text>
</g>
<!-- Node54&#45;&gt;Node2 -->
<g id="edge12" class="edge">
<title>Node54&#45;&gt;Node2</title>
<path fill="none" stroke="#9a32cd" stroke-dasharray="5,2" d="M640.9703,-135.0116C670.006,-138.9109 706.0026,-144.153 738,-150 743.8258,-151.0646 750.0436,-152.3493 755.9401,-153.6379"/>
<polygon fill="#9a32cd" stroke="#9a32cd" points="641.3818,-131.5357 631.0083,-133.6896 640.4609,-138.4748 641.3818,-131.5357"/>
<text text-anchor="middle" x="693.5" y="-152.6" font-family="Helvetica,sans-Serif" font-size="8.00" fill="#000000"> mySUSYScalarPotential</text>
</g>
</g>
</svg>
