<?xml version="1.0" encoding="UTF-8" standalone="no"?>
<!DOCTYPE svg PUBLIC "-//W3C//DTD SVG 1.1//EN"
 "http://www.w3.org/Graphics/SVG/1.1/DTD/svg11.dtd">
<!-- Generated by graphviz version 2.40.1 (20161225.0304)
 -->
<!-- Title: log10_pp_SrSr_jjjj_TH13 Pages: 1 -->
<svg width="456pt" height="288pt"
 viewBox="0.00 0.00 456.00 288.00" xmlns="http://www.w3.org/2000/svg" xmlns:xlink="http://www.w3.org/1999/xlink">
<g id="graph0" class="graph" transform="scale(1 1) rotate(0) translate(4 284)">
<title>log10_pp_SrSr_jjjj_TH13</title>
<!-- Node2 -->
<g id="node1" class="node">
<title>Node2</title>
<polygon fill="#bfbfbf" stroke="#000000" points="0,-.5 0,-17.5 105,-17.5 105,-.5 0,-.5"/>
<text text-anchor="middle" x="52.5" y="-7.1" font-family="Helvetica,sans-Serif" font-size="8.00" fill="#000000">log10_pp_SrSr_jjjj_TH13</text>
</g>
<!-- Node3 -->
<g id="node2" class="node">
<title>Node3</title>
<g id="a_node2"><a xlink:href="../../dc/d1f/class_th_observable.html" target="_top" xlink:title="A class for a model prediction of an observable. ">
<polygon fill="none" stroke="#000000" points="3,-99.5 3,-116.5 70,-116.5 70,-99.5 3,-99.5"/>
<text text-anchor="middle" x="36.5" y="-106.1" font-family="Helvetica,sans-Serif" font-size="8.00" fill="#000000">ThObservable</text>
</a>
</g>
</g>
<!-- Node3&#45;&gt;Node2 -->
<g id="edge1" class="edge">
<title>Node3&#45;&gt;Node2</title>
<path fill="none" stroke="#191970" d="M39.5182,-89.3249C42.9877,-67.8571 48.534,-33.5398 51.1061,-17.6245"/>
<polygon fill="#191970" stroke="#191970" points="36.0603,-88.7841 37.9199,-99.2144 42.9706,-89.9009 36.0603,-88.7841"/>
</g>
<!-- Node4 -->
<g id="node3" class="node">
<title>Node4</title>
<g id="a_node3"><a xlink:href="../../dc/dd5/class_standard_model.html" target="_top" xlink:title="A model class for the Standard Model. ">
<polygon fill="none" stroke="#ff0000" points="228,-207.5 228,-224.5 299,-224.5 299,-207.5 228,-207.5"/>
<text text-anchor="middle" x="263.5" y="-214.1" font-family="Helvetica,sans-Serif" font-size="8.00" fill="#000000">StandardModel</text>
</a>
</g>
</g>
<!-- Node4&#45;&gt;Node3 -->
<g id="edge2" class="edge">
<title>Node4&#45;&gt;Node3</title>
<path fill="none" stroke="#9a32cd" stroke-dasharray="5,2" d="M217.6841,-209.2295C163.8828,-200.4238 78.9836,-183.5825 55.5,-162 42.475,-150.0294 38.3771,-128.5986 37.0892,-116.6505"/>
<polygon fill="#9a32cd" stroke="#9a32cd" points="217.2462,-212.7039 227.6741,-210.8311 218.3543,-205.7922 217.2462,-212.7039"/>
<text text-anchor="middle" x="128" y="-182.6" font-family="Helvetica,sans-Serif" font-size="8.00" fill="#000000"> SM</text>
</g>
<!-- Node9 -->
<g id="node6" class="node">
<title>Node9</title>
<g id="a_node6"><a xlink:href="../../dc/df3/class_e_w_s_mcache.html" target="_top" xlink:title="A class for cache variables used in computing radiative corrections to the EW precision observables...">
<polygon fill="none" stroke="#ff0000" points="385,-140 385,-157 448,-157 448,-140 385,-140"/>
<text text-anchor="middle" x="416.5" y="-146.6" font-family="Helvetica,sans-Serif" font-size="8.00" fill="#000000">EWSMcache</text>
</a>
</g>
</g>
<!-- Node4&#45;&gt;Node9 -->
<g id="edge6" class="edge">
<title>Node4&#45;&gt;Node9</title>
<path fill="none" stroke="#9a32cd" stroke-dasharray="5,2" d="M292.146,-203.362C322.6807,-189.8909 370.213,-168.9207 396.7965,-157.1927"/>
<polygon fill="#9a32cd" stroke="#9a32cd" points="290.614,-200.2124 282.8776,-207.4511 293.4395,-206.6168 290.614,-200.2124"/>
<text text-anchor="middle" x="352" y="-182.6" font-family="Helvetica,sans-Serif" font-size="8.00" fill="#000000"> SM</text>
</g>
<!-- Node48 -->
<g id="node8" class="node">
<title>Node48</title>
<g id="a_node8"><a xlink:href="../../d2/df3/class_n_pbase.html" target="_top" xlink:title="The auxiliary base model class for other model classes. ">
<polygon fill="none" stroke="#000000" points="204,-140 204,-157 249,-157 249,-140 204,-140"/>
<text text-anchor="middle" x="226.5" y="-146.6" font-family="Helvetica,sans-Serif" font-size="8.00" fill="#000000">NPbase</text>
</a>
</g>
</g>
<!-- Node4&#45;&gt;Node48 -->
<g id="edge10" class="edge">
<title>Node4&#45;&gt;Node48</title>
<path fill="none" stroke="#191970" d="M233.9868,-201.8791C229.3692,-198.3354 225.2289,-194.0645 222.5,-189 217.1376,-179.048 220.0407,-165.7157 222.9721,-157.116"/>
<polygon fill="#191970" stroke="#191970" points="232.3206,-204.9705 242.6124,-207.4867 236.136,-199.1017 232.3206,-204.9705"/>
</g>
<!-- Node4&#45;&gt;Node48 -->
<g id="edge11" class="edge">
<title>Node4&#45;&gt;Node48</title>
<path fill="none" stroke="#9a32cd" stroke-dasharray="5,2" d="M249.3965,-199.3772C246.9217,-196.0561 244.5017,-192.5071 242.5,-189 236.5789,-178.6259 231.8719,-165.6301 229.1359,-157.2004"/>
<polygon fill="#9a32cd" stroke="#9a32cd" points="246.8586,-201.8087 255.8259,-207.4512 252.3345,-197.4481 246.8586,-201.8087"/>
<text text-anchor="middle" x="257" y="-182.6" font-family="Helvetica,sans-Serif" font-size="8.00" fill="#000000"> trueSM</text>
</g>
<!-- Node5 -->
<g id="node4" class="node">
<title>Node5</title>
<g id="a_node4"><a xlink:href="../../dd/dfa/class_q_c_d.html" target="_top" xlink:title="A class for parameters related to QCD, hadrons and quarks. ">
<polygon fill="none" stroke="#ff0000" points="246.5,-262.5 246.5,-279.5 280.5,-279.5 280.5,-262.5 246.5,-262.5"/>
<text text-anchor="middle" x="263.5" y="-269.1" font-family="Helvetica,sans-Serif" font-size="8.00" fill="#000000">QCD</text>
</a>
</g>
</g>
<!-- Node5&#45;&gt;Node4 -->
<g id="edge3" class="edge">
<title>Node5&#45;&gt;Node4</title>
<path fill="none" stroke="#191970" d="M263.5,-252.1166C263.5,-242.8173 263.5,-232.0557 263.5,-224.7149"/>
<polygon fill="#191970" stroke="#191970" points="260.0001,-252.4062 263.5,-262.4063 267.0001,-252.4063 260.0001,-252.4062"/>
</g>
<!-- Node8 -->
<g id="node5" class="node">
<title>Node8</title>
<g id="a_node5"><a xlink:href="../../db/d32/class_e_w_s_m_two_fermions_l_e_p2.html" target="_top" xlink:title="A class for the form factors , &#160;and &#160;in the processes &#160;at LEP&#45;II. ">
<polygon fill="none" stroke="#ff0000" points="247,-63.5 247,-80.5 356,-80.5 356,-63.5 247,-63.5"/>
<text text-anchor="middle" x="301.5" y="-70.1" font-family="Helvetica,sans-Serif" font-size="8.00" fill="#000000">EWSMTwoFermionsLEP2</text>
</a>
</g>
</g>
<!-- Node8&#45;&gt;Node4 -->
<g id="edge4" class="edge">
<title>Node8&#45;&gt;Node4</title>
<path fill="none" stroke="#9a32cd" stroke-dasharray="5,2" d="M297.0194,-90.3452C291.3302,-113.4288 281.097,-154.2597 271.5,-189 269.8337,-195.0319 267.8337,-201.7819 266.2503,-207.0239"/>
<polygon fill="#9a32cd" stroke="#9a32cd" points="300.4406,-91.0893 299.4246,-80.5433 293.6422,-89.4211 300.4406,-91.0893"/>
<text text-anchor="middle" x="327" y="-146.6" font-family="Helvetica,sans-Serif" font-size="8.00" fill="#000000"> myTwoFermionsLEP2</text>
</g>
<!-- Node9&#45;&gt;Node4 -->
<g id="edge7" class="edge">
<title>Node9&#45;&gt;Node4</title>
<path fill="none" stroke="#9a32cd" stroke-dasharray="5,2" d="M399.701,-164.0638C389.8051,-172.5023 376.6744,-182.5038 363.5,-189 343.3392,-198.9411 319.0248,-205.6114 299.4198,-209.8349"/>
<polygon fill="#9a32cd" stroke="#9a32cd" points="402.3138,-166.4255 407.4846,-157.1781 397.6757,-161.1826 402.3138,-166.4255"/>
<text text-anchor="middle" x="407.5" y="-182.6" font-family="Helvetica,sans-Serif" font-size="8.00" fill="#000000"> myEWSMcache</text>
</g>
<!-- Node9&#45;&gt;Node8 -->
<g id="edge5" class="edge">
<title>Node9&#45;&gt;Node8</title>
<path fill="none" stroke="#9a32cd" stroke-dasharray="5,2" d="M394.9749,-134.1811C371.329,-118.4515 334.1163,-93.697 314.5381,-80.6732"/>
<polygon fill="#9a32cd" stroke="#9a32cd" points="393.0434,-137.0999 403.308,-139.7245 396.9205,-131.2717 393.0434,-137.0999"/>
<text text-anchor="middle" x="377.5" y="-106.1" font-family="Helvetica,sans-Serif" font-size="8.00" fill="#000000"> cache</text>
</g>
<!-- Node47 -->
<g id="node7" class="node">
<title>Node47</title>
<g id="a_node7"><a xlink:href="../../dc/d90/class_t_h_d_m_w.html" target="_top" xlink:title="A base class for &#160;symmetric Two&#45;Higgs&#45;Doublet&#45;Manohar&#45;Wise models. ">
<polygon fill="none" stroke="#000000" points="113,-63.5 113,-80.5 160,-80.5 160,-63.5 113,-63.5"/>
<text text-anchor="middle" x="136.5" y="-70.1" font-family="Helvetica,sans-Serif" font-size="8.00" fill="#000000">THDMW</text>
</a>
</g>
</g>
<!-- Node47&#45;&gt;Node2 -->
<g id="edge8" class="edge">
<title>Node47&#45;&gt;Node2</title>
<path fill="none" stroke="#9a32cd" stroke-dasharray="5,2" d="M106.0841,-59.0513C98.3539,-55.092 90.3143,-50.3492 83.5,-45 73.3791,-37.0551 64.0816,-25.4249 58.3622,-17.5511"/>
<polygon fill="#9a32cd" stroke="#9a32cd" points="104.7296,-62.2839 115.2566,-63.4805 107.7734,-55.9803 104.7296,-62.2839"/>
<text text-anchor="middle" x="105.5" y="-38.6" font-family="Helvetica,sans-Serif" font-size="8.00" fill="#000000"> myTHDMW</text>
</g>
<!-- Node51 -->
<g id="node10" class="node">
<title>Node51</title>
<g id="a_node10"><a xlink:href="../../da/d99/class_t_h_d_m_wcache.html" target="_top" xlink:title="A class for the caching of some THDMW objects. ">
<polygon fill="none" stroke="#ff0000" points="146,-.5 146,-17.5 215,-17.5 215,-.5 146,-.5"/>
<text text-anchor="middle" x="180.5" y="-7.1" font-family="Helvetica,sans-Serif" font-size="8.00" fill="#000000">THDMWcache</text>
</a>
</g>
</g>
<!-- Node47&#45;&gt;Node51 -->
<g id="edge14" class="edge">
<title>Node47&#45;&gt;Node51</title>
<path fill="none" stroke="#9a32cd" stroke-dasharray="5,2" d="M130.9208,-53.5434C130.1501,-47.6093 130.4761,-41.2245 133.5,-36 138.3082,-27.6926 146.7463,-21.7189 155.1583,-17.538"/>
<polygon fill="#9a32cd" stroke="#9a32cd" points="127.5278,-54.4078 133.1465,-63.3901 134.3555,-52.8644 127.5278,-54.4078"/>
<text text-anchor="middle" x="155.5" y="-38.6" font-family="Helvetica,sans-Serif" font-size="8.00" fill="#000000"> myTHDMW</text>
</g>
<!-- Node48&#45;&gt;Node47 -->
<g id="edge9" class="edge">
<title>Node48&#45;&gt;Node47</title>
<path fill="none" stroke="#191970" d="M211.9086,-132.5942C202.288,-122.4849 189.1676,-109.3926 176.5,-99 168.3384,-92.3042 158.5209,-85.6588 150.6547,-80.6363"/>
<polygon fill="#191970" stroke="#191970" points="209.409,-135.0454 218.7984,-139.9536 214.5191,-130.2614 209.409,-135.0454"/>
</g>
<!-- Node49 -->
<g id="node9" class="node">
<title>Node49</title>
<g id="a_node9"><a xlink:href="../../d5/d76/class_matching.html" target="_top" xlink:title="Matching\&lt; THDMWMatching,\l THDMW \&gt;">
<polygon fill="none" stroke="#ff0000" points="65,-135.5 65,-161.5 186,-161.5 186,-135.5 65,-135.5"/>
<text text-anchor="start" x="73" y="-151.1" font-family="Helvetica,sans-Serif" font-size="8.00" fill="#000000">Matching&lt; THDMWMatching,</text>
<text text-anchor="middle" x="125.5" y="-142.1" font-family="Helvetica,sans-Serif" font-size="8.00" fill="#000000"> THDMW &gt;</text>
</a>
</g>
</g>
<!-- Node49&#45;&gt;Node47 -->
<g id="edge12" class="edge">
<title>Node49&#45;&gt;Node47</title>
<path fill="none" stroke="#9a32cd" stroke-dasharray="5,2" d="M128.8664,-125.0882C131.0151,-110.1453 133.6778,-91.6269 135.2234,-80.8783"/>
<polygon fill="#9a32cd" stroke="#9a32cd" points="125.375,-124.7783 127.4161,-135.1747 132.3038,-125.7747 125.375,-124.7783"/>
<text text-anchor="middle" x="152.5" y="-106.1" font-family="Helvetica,sans-Serif" font-size="8.00" fill="#000000"> THDMWM</text>
</g>
<!-- Node51&#45;&gt;Node47 -->
<g id="edge13" class="edge">
<title>Node51&#45;&gt;Node47</title>
<path fill="none" stroke="#9a32cd" stroke-dasharray="5,2" d="M184.6751,-27.888C185.028,-33.694 184.3909,-39.8941 181.5,-45 176.8315,-53.2454 168.5294,-59.2475 160.3165,-63.4681"/>
<polygon fill="#9a32cd" stroke="#9a32cd" points="188.0742,-26.9599 183.1091,-17.6005 181.1539,-28.0134 188.0742,-26.9599"/>
<text text-anchor="middle" x="217" y="-38.6" font-family="Helvetica,sans-Serif" font-size="8.00" fill="#000000"> myTHDMWcache</text>
</g>
</g>
</svg>
