<?xml version="1.0" encoding="UTF-8" standalone="no"?>
<!DOCTYPE svg PUBLIC "-//W3C//DTD SVG 1.1//EN"
 "http://www.w3.org/Graphics/SVG/1.1/DTD/svg11.dtd">
<!-- Generated by graphviz version 2.40.1 (20161225.0304)
 -->
<!-- Title: DmBs.h Pages: 1 -->
<svg width="174pt" height="134pt"
 viewBox="0.00 0.00 174.00 134.00" xmlns="http://www.w3.org/2000/svg" xmlns:xlink="http://www.w3.org/1999/xlink">
<g id="graph0" class="graph" transform="scale(1 1) rotate(0) translate(4 130)">
<title>DmBs.h</title>
<!-- Node22 -->
<g id="node1" class="node">
<title>Node22</title>
<polygon fill="#bfbfbf" stroke="#000000" points="50,-108.5 50,-125.5 95,-125.5 95,-108.5 50,-108.5"/>
<text text-anchor="middle" x="72.5" y="-115.1" font-family="Helvetica,sans-Serif" font-size="8.00" fill="#000000">DmBs.h</text>
</g>
<!-- Node23 -->
<g id="node2" class="node">
<title>Node23</title>
<g id="a_node2"><a xlink:href="../../d2/d59/_dm_bs_8cpp.html" target="_top" xlink:title="DmBs.cpp">
<polygon fill="none" stroke="#000000" points="0,-54.5 0,-71.5 53,-71.5 53,-54.5 0,-54.5"/>
<text text-anchor="middle" x="26.5" y="-61.1" font-family="Helvetica,sans-Serif" font-size="8.00" fill="#000000">DmBs.cpp</text>
</a>
</g>
</g>
<!-- Node22&#45;&gt;Node23 -->
<g id="edge1" class="edge">
<title>Node22&#45;&gt;Node23</title>
<path fill="none" stroke="#191970" d="M58.386,-100.4314C50.324,-90.9673 40.5408,-79.4827 33.9546,-71.7511"/>
<polygon fill="#191970" stroke="#191970" points="55.755,-102.7402 64.904,-108.083 61.0837,-98.2009 55.755,-102.7402"/>
</g>
<!-- Node24 -->
<g id="node3" class="node">
<title>Node24</title>
<g id="a_node3"><a xlink:href="../../df/d7a/_flavour_observables_8h.html" target="_top" xlink:title="FlavourObservables.h">
<polygon fill="none" stroke="#000000" points="71,-54.5 71,-71.5 166,-71.5 166,-54.5 71,-54.5"/>
<text text-anchor="middle" x="118.5" y="-61.1" font-family="Helvetica,sans-Serif" font-size="8.00" fill="#000000">FlavourObservables.h</text>
</a>
</g>
</g>
<!-- Node22&#45;&gt;Node24 -->
<g id="edge2" class="edge">
<title>Node22&#45;&gt;Node24</title>
<path fill="none" stroke="#191970" d="M86.614,-100.4314C94.676,-90.9673 104.4592,-79.4827 111.0454,-71.7511"/>
<polygon fill="#191970" stroke="#191970" points="83.9163,-98.2009 80.096,-108.083 89.245,-102.7402 83.9163,-98.2009"/>
</g>
<!-- Node25 -->
<g id="node4" class="node">
<title>Node25</title>
<g id="a_node4"><a xlink:href="../../d1/de2/_th_obs_factory_8cpp.html" target="_top" xlink:title="ThObsFactory.cpp">
<polygon fill="none" stroke="#000000" points="77.5,-.5 77.5,-17.5 159.5,-17.5 159.5,-.5 77.5,-.5"/>
<text text-anchor="middle" x="118.5" y="-7.1" font-family="Helvetica,sans-Serif" font-size="8.00" fill="#000000">ThObsFactory.cpp</text>
</a>
</g>
</g>
<!-- Node24&#45;&gt;Node25 -->
<g id="edge3" class="edge">
<title>Node24&#45;&gt;Node25</title>
<path fill="none" stroke="#191970" d="M118.5,-43.8045C118.5,-34.9102 118.5,-24.7798 118.5,-17.7511"/>
<polygon fill="#191970" stroke="#191970" points="115.0001,-44.083 118.5,-54.083 122.0001,-44.083 115.0001,-44.083"/>
</g>
</g>
</svg>
