<?xml version="1.0" encoding="UTF-8" standalone="no"?>
<!DOCTYPE svg PUBLIC "-//W3C//DTD SVG 1.1//EN"
 "http://www.w3.org/Graphics/SVG/1.1/DTD/svg11.dtd">
<!-- Generated by graphviz version 2.40.1 (20161225.0304)
 -->
<!-- Title: log10_pp_phi2_ZZ_TH13 Pages: 1 -->
<svg width="478pt" height="288pt"
 viewBox="0.00 0.00 478.00 288.00" xmlns="http://www.w3.org/2000/svg" xmlns:xlink="http://www.w3.org/1999/xlink">
<g id="graph0" class="graph" transform="scale(1 1) rotate(0) translate(4 284)">
<title>log10_pp_phi2_ZZ_TH13</title>
<!-- Node2 -->
<g id="node1" class="node">
<title>Node2</title>
<polygon fill="#bfbfbf" stroke="#000000" points="0,-.5 0,-17.5 107,-17.5 107,-.5 0,-.5"/>
<text text-anchor="middle" x="53.5" y="-7.1" font-family="Helvetica,sans-Serif" font-size="8.00" fill="#000000">log10_pp_phi2_ZZ_TH13</text>
</g>
<!-- Node3 -->
<g id="node2" class="node">
<title>Node3</title>
<g id="a_node2"><a xlink:href="../../dc/d1f/class_th_observable.html" target="_top" xlink:title="A class for a model prediction of an observable. ">
<polygon fill="none" stroke="#000000" points="4,-99.5 4,-116.5 71,-116.5 71,-99.5 4,-99.5"/>
<text text-anchor="middle" x="37.5" y="-106.1" font-family="Helvetica,sans-Serif" font-size="8.00" fill="#000000">ThObservable</text>
</a>
</g>
</g>
<!-- Node3&#45;&gt;Node2 -->
<g id="edge1" class="edge">
<title>Node3&#45;&gt;Node2</title>
<path fill="none" stroke="#191970" d="M40.5182,-89.3249C43.9877,-67.8571 49.534,-33.5398 52.1061,-17.6245"/>
<polygon fill="#191970" stroke="#191970" points="37.0603,-88.7841 38.9199,-99.2144 43.9706,-89.9009 37.0603,-88.7841"/>
</g>
<!-- Node4 -->
<g id="node3" class="node">
<title>Node4</title>
<g id="a_node3"><a xlink:href="../../dc/dd5/class_standard_model.html" target="_top" xlink:title="A model class for the Standard Model. ">
<polygon fill="none" stroke="#ff0000" points="250,-207.5 250,-224.5 321,-224.5 321,-207.5 250,-207.5"/>
<text text-anchor="middle" x="285.5" y="-214.1" font-family="Helvetica,sans-Serif" font-size="8.00" fill="#000000">StandardModel</text>
</a>
</g>
</g>
<!-- Node4&#45;&gt;Node3 -->
<g id="edge2" class="edge">
<title>Node4&#45;&gt;Node3</title>
<path fill="none" stroke="#9a32cd" stroke-dasharray="5,2" d="M239.6832,-210.4413C180.8524,-202.4387 83.1559,-185.9522 56.5,-162 43.3415,-150.1762 39.2958,-128.6881 38.052,-116.6914"/>
<polygon fill="#9a32cd" stroke="#9a32cd" points="239.4619,-213.9425 249.8359,-211.7907 240.3843,-207.0036 239.4619,-213.9425"/>
<text text-anchor="middle" x="127" y="-182.6" font-family="Helvetica,sans-Serif" font-size="8.00" fill="#000000"> SM</text>
</g>
<!-- Node9 -->
<g id="node6" class="node">
<title>Node9</title>
<g id="a_node6"><a xlink:href="../../dc/df3/class_e_w_s_mcache.html" target="_top" xlink:title="A class for cache variables used in computing radiative corrections to the EW precision observables...">
<polygon fill="none" stroke="#ff0000" points="407,-140 407,-157 470,-157 470,-140 407,-140"/>
<text text-anchor="middle" x="438.5" y="-146.6" font-family="Helvetica,sans-Serif" font-size="8.00" fill="#000000">EWSMcache</text>
</a>
</g>
</g>
<!-- Node4&#45;&gt;Node9 -->
<g id="edge6" class="edge">
<title>Node4&#45;&gt;Node9</title>
<path fill="none" stroke="#9a32cd" stroke-dasharray="5,2" d="M314.146,-203.362C344.6807,-189.8909 392.213,-168.9207 418.7965,-157.1927"/>
<polygon fill="#9a32cd" stroke="#9a32cd" points="312.614,-200.2124 304.8776,-207.4511 315.4395,-206.6168 312.614,-200.2124"/>
<text text-anchor="middle" x="374" y="-182.6" font-family="Helvetica,sans-Serif" font-size="8.00" fill="#000000"> SM</text>
</g>
<!-- Node48 -->
<g id="node8" class="node">
<title>Node48</title>
<g id="a_node8"><a xlink:href="../../d2/df3/class_n_pbase.html" target="_top" xlink:title="The auxiliary base model class for other model classes. ">
<polygon fill="none" stroke="#000000" points="226,-140 226,-157 271,-157 271,-140 226,-140"/>
<text text-anchor="middle" x="248.5" y="-146.6" font-family="Helvetica,sans-Serif" font-size="8.00" fill="#000000">NPbase</text>
</a>
</g>
</g>
<!-- Node4&#45;&gt;Node48 -->
<g id="edge10" class="edge">
<title>Node4&#45;&gt;Node48</title>
<path fill="none" stroke="#191970" d="M255.9868,-201.8791C251.3692,-198.3354 247.2289,-194.0645 244.5,-189 239.1376,-179.048 242.0407,-165.7157 244.9721,-157.116"/>
<polygon fill="#191970" stroke="#191970" points="254.3206,-204.9705 264.6124,-207.4867 258.136,-199.1017 254.3206,-204.9705"/>
</g>
<!-- Node4&#45;&gt;Node48 -->
<g id="edge11" class="edge">
<title>Node4&#45;&gt;Node48</title>
<path fill="none" stroke="#9a32cd" stroke-dasharray="5,2" d="M271.3965,-199.3772C268.9217,-196.0561 266.5017,-192.5071 264.5,-189 258.5789,-178.6259 253.8719,-165.6301 251.1359,-157.2004"/>
<polygon fill="#9a32cd" stroke="#9a32cd" points="268.8586,-201.8087 277.8259,-207.4512 274.3345,-197.4481 268.8586,-201.8087"/>
<text text-anchor="middle" x="279" y="-182.6" font-family="Helvetica,sans-Serif" font-size="8.00" fill="#000000"> trueSM</text>
</g>
<!-- Node5 -->
<g id="node4" class="node">
<title>Node5</title>
<g id="a_node4"><a xlink:href="../../dd/dfa/class_q_c_d.html" target="_top" xlink:title="A class for parameters related to QCD, hadrons and quarks. ">
<polygon fill="none" stroke="#ff0000" points="268.5,-262.5 268.5,-279.5 302.5,-279.5 302.5,-262.5 268.5,-262.5"/>
<text text-anchor="middle" x="285.5" y="-269.1" font-family="Helvetica,sans-Serif" font-size="8.00" fill="#000000">QCD</text>
</a>
</g>
</g>
<!-- Node5&#45;&gt;Node4 -->
<g id="edge3" class="edge">
<title>Node5&#45;&gt;Node4</title>
<path fill="none" stroke="#191970" d="M285.5,-252.1166C285.5,-242.8173 285.5,-232.0557 285.5,-224.7149"/>
<polygon fill="#191970" stroke="#191970" points="282.0001,-252.4062 285.5,-262.4063 289.0001,-252.4063 282.0001,-252.4062"/>
</g>
<!-- Node8 -->
<g id="node5" class="node">
<title>Node8</title>
<g id="a_node5"><a xlink:href="../../db/d32/class_e_w_s_m_two_fermions_l_e_p2.html" target="_top" xlink:title="A class for the form factors , &#160;and &#160;in the processes &#160;at LEP&#45;II. ">
<polygon fill="none" stroke="#ff0000" points="294,-63.5 294,-80.5 403,-80.5 403,-63.5 294,-63.5"/>
<text text-anchor="middle" x="348.5" y="-70.1" font-family="Helvetica,sans-Serif" font-size="8.00" fill="#000000">EWSMTwoFermionsLEP2</text>
</a>
</g>
</g>
<!-- Node8&#45;&gt;Node4 -->
<g id="edge4" class="edge">
<title>Node8&#45;&gt;Node4</title>
<path fill="none" stroke="#9a32cd" stroke-dasharray="5,2" d="M339.2739,-89.7744C332.8934,-102.2955 324.3528,-119.5203 317.5,-135 305.9932,-160.9927 294.1292,-192.4925 288.6383,-207.3928"/>
<polygon fill="#9a32cd" stroke="#9a32cd" points="342.3951,-91.3582 343.8544,-80.8644 336.1695,-88.1578 342.3951,-91.3582"/>
<text text-anchor="middle" x="358" y="-146.6" font-family="Helvetica,sans-Serif" font-size="8.00" fill="#000000"> myTwoFermionsLEP2</text>
</g>
<!-- Node9&#45;&gt;Node4 -->
<g id="edge7" class="edge">
<title>Node9&#45;&gt;Node4</title>
<path fill="none" stroke="#9a32cd" stroke-dasharray="5,2" d="M421.701,-164.0638C411.8051,-172.5023 398.6744,-182.5038 385.5,-189 365.3392,-198.9411 341.0248,-205.6114 321.4198,-209.8349"/>
<polygon fill="#9a32cd" stroke="#9a32cd" points="424.3138,-166.4255 429.4846,-157.1781 419.6757,-161.1826 424.3138,-166.4255"/>
<text text-anchor="middle" x="429.5" y="-182.6" font-family="Helvetica,sans-Serif" font-size="8.00" fill="#000000"> myEWSMcache</text>
</g>
<!-- Node9&#45;&gt;Node8 -->
<g id="edge5" class="edge">
<title>Node9&#45;&gt;Node8</title>
<path fill="none" stroke="#9a32cd" stroke-dasharray="5,2" d="M420.4162,-133.1288C401.8726,-117.3667 373.6883,-93.4101 358.7037,-80.6732"/>
<polygon fill="#9a32cd" stroke="#9a32cd" points="418.2897,-135.9148 428.1759,-139.7245 422.8232,-130.5812 418.2897,-135.9148"/>
<text text-anchor="middle" x="410.5" y="-106.1" font-family="Helvetica,sans-Serif" font-size="8.00" fill="#000000"> cache</text>
</g>
<!-- Node47 -->
<g id="node7" class="node">
<title>Node47</title>
<g id="a_node7"><a xlink:href="../../d3/d55/class_general_t_h_d_m.html" target="_top" xlink:title="A base class for generic Two&#45;Higgs&#45;Doublet models. ">
<polygon fill="none" stroke="#000000" points="102.5,-63.5 102.5,-80.5 170.5,-80.5 170.5,-63.5 102.5,-63.5"/>
<text text-anchor="middle" x="136.5" y="-70.1" font-family="Helvetica,sans-Serif" font-size="8.00" fill="#000000">GeneralTHDM</text>
</a>
</g>
</g>
<!-- Node47&#45;&gt;Node2 -->
<g id="edge8" class="edge">
<title>Node47&#45;&gt;Node2</title>
<path fill="none" stroke="#9a32cd" stroke-dasharray="5,2" d="M106.6665,-58.9781C99.0821,-55.0193 91.1919,-50.2952 84.5,-45 74.41,-37.016 65.1057,-25.3943 59.3763,-17.5332"/>
<polygon fill="#9a32cd" stroke="#9a32cd" points="105.1482,-62.1317 115.6651,-63.4142 108.2434,-55.8532 105.1482,-62.1317"/>
<text text-anchor="middle" x="106" y="-38.6" font-family="Helvetica,sans-Serif" font-size="8.00" fill="#000000"> myGTHDM</text>
</g>
<!-- Node51 -->
<g id="node10" class="node">
<title>Node51</title>
<g id="a_node10"><a xlink:href="../../dc/dfd/class_general_t_h_d_mcache.html" target="_top" xlink:title="GeneralTHDMcache">
<polygon fill="none" stroke="#ff0000" points="141,-.5 141,-17.5 230,-17.5 230,-.5 141,-.5"/>
<text text-anchor="middle" x="185.5" y="-7.1" font-family="Helvetica,sans-Serif" font-size="8.00" fill="#000000">GeneralTHDMcache</text>
</a>
</g>
</g>
<!-- Node47&#45;&gt;Node51 -->
<g id="edge14" class="edge">
<title>Node47&#45;&gt;Node51</title>
<path fill="none" stroke="#9a32cd" stroke-dasharray="5,2" d="M130.7918,-53.4669C130.0124,-47.5276 130.3657,-41.159 133.5,-36 138.6232,-27.5673 147.3296,-21.6486 156.1683,-17.5494"/>
<polygon fill="#9a32cd" stroke="#9a32cd" points="127.4101,-54.379 133.0624,-63.3402 134.2321,-52.8101 127.4101,-54.379"/>
<text text-anchor="middle" x="155" y="-38.6" font-family="Helvetica,sans-Serif" font-size="8.00" fill="#000000"> myGTHDM</text>
</g>
<!-- Node48&#45;&gt;Node47 -->
<g id="edge9" class="edge">
<title>Node48&#45;&gt;Node47</title>
<path fill="none" stroke="#191970" d="M228.7437,-133.8345C215.069,-123.8057 196.3658,-110.3291 179.5,-99 169.9875,-92.6102 159.0475,-85.7475 150.5829,-80.5399"/>
<polygon fill="#191970" stroke="#191970" points="226.8072,-136.7551 236.9339,-139.8697 230.9597,-131.1198 226.8072,-136.7551"/>
</g>
<!-- Node49 -->
<g id="node9" class="node">
<title>Node49</title>
<g id="a_node9"><a xlink:href="../../d5/d76/class_matching.html" target="_top" xlink:title="Matching\&lt; GeneralTHDMMatching,\l GeneralTHDM \&gt;">
<polygon fill="none" stroke="#ff0000" points="65.5,-135.5 65.5,-161.5 207.5,-161.5 207.5,-135.5 65.5,-135.5"/>
<text text-anchor="start" x="73.5" y="-151.1" font-family="Helvetica,sans-Serif" font-size="8.00" fill="#000000">Matching&lt; GeneralTHDMMatching,</text>
<text text-anchor="middle" x="136.5" y="-142.1" font-family="Helvetica,sans-Serif" font-size="8.00" fill="#000000"> GeneralTHDM &gt;</text>
</a>
</g>
</g>
<!-- Node49&#45;&gt;Node47 -->
<g id="edge12" class="edge">
<title>Node49&#45;&gt;Node47</title>
<path fill="none" stroke="#9a32cd" stroke-dasharray="5,2" d="M136.5,-125.0882C136.5,-110.1453 136.5,-91.6269 136.5,-80.8783"/>
<polygon fill="#9a32cd" stroke="#9a32cd" points="133.0001,-125.1747 136.5,-135.1747 140.0001,-125.1748 133.0001,-125.1747"/>
<text text-anchor="middle" x="156" y="-106.1" font-family="Helvetica,sans-Serif" font-size="8.00" fill="#000000"> GTHDMM</text>
</g>
<!-- Node51&#45;&gt;Node47 -->
<g id="edge13" class="edge">
<title>Node51&#45;&gt;Node47</title>
<path fill="none" stroke="#9a32cd" stroke-dasharray="5,2" d="M185.9245,-28.0688C185.278,-33.8842 183.7412,-40.0443 180.5,-45 175.2019,-53.1007 166.543,-59.1718 158.3019,-63.4841"/>
<polygon fill="#9a32cd" stroke="#9a32cd" points="189.4347,-27.8336 186.2844,-17.7179 182.4389,-27.5902 189.4347,-27.8336"/>
<text text-anchor="middle" x="216.5" y="-38.6" font-family="Helvetica,sans-Serif" font-size="8.00" fill="#000000"> myGTHDMcache</text>
</g>
</g>
</svg>
