<?xml version="1.0" encoding="UTF-8" standalone="no"?>
<!DOCTYPE svg PUBLIC "-//W3C//DTD SVG 1.1//EN"
 "http://www.w3.org/Graphics/SVG/1.1/DTD/svg11.dtd">
<!-- Generated by graphviz version 2.40.1 (20161225.0304)
 -->
<!-- Title: AmpDB2.cpp Pages: 1 -->
<svg width="302pt" height="242pt"
 viewBox="0.00 0.00 302.00 242.00" xmlns="http://www.w3.org/2000/svg" xmlns:xlink="http://www.w3.org/1999/xlink">
<g id="graph0" class="graph" transform="scale(1 1) rotate(0) translate(4 238)">
<title>AmpDB2.cpp</title>
<!-- Node0 -->
<g id="node1" class="node">
<title>Node0</title>
<polygon fill="#bfbfbf" stroke="#000000" points="126.5,-216.5 126.5,-233.5 190.5,-233.5 190.5,-216.5 126.5,-216.5"/>
<text text-anchor="middle" x="158.5" y="-223.1" font-family="Helvetica,sans-Serif" font-size="8.00" fill="#000000">AmpDB2.cpp</text>
</g>
<!-- Node1 -->
<g id="node2" class="node">
<title>Node1</title>
<g id="a_node2"><a xlink:href="../../da/d41/_amp_d_b2_8h.html" target="_top" xlink:title="AmpDB2.h">
<polygon fill="none" stroke="#000000" points="95,-162.5 95,-179.5 150,-179.5 150,-162.5 95,-162.5"/>
<text text-anchor="middle" x="122.5" y="-169.1" font-family="Helvetica,sans-Serif" font-size="8.00" fill="#000000">AmpDB2.h</text>
</a>
</g>
</g>
<!-- Node0&#45;&gt;Node1 -->
<g id="edge1" class="edge">
<title>Node0&#45;&gt;Node1</title>
<path fill="none" stroke="#191970" d="M152.5553,-216.083C147.5227,-208.5341 140.1632,-197.4948 133.9865,-188.2298"/>
<polygon fill="#191970" stroke="#191970" points="136.7933,-186.1301 128.3341,-179.7511 130.9689,-190.0131 136.7933,-186.1301"/>
</g>
<!-- Node19 -->
<g id="node6" class="node">
<title>Node19</title>
<g id="a_node6"><a xlink:href="../../d6/d0a/_standard_model_8h.html" target="_top" xlink:title="StandardModel.h">
<polygon fill="none" stroke="#ff0000" points="0,-162.5 0,-179.5 77,-179.5 77,-162.5 0,-162.5"/>
<text text-anchor="middle" x="38.5" y="-169.1" font-family="Helvetica,sans-Serif" font-size="8.00" fill="#000000">StandardModel.h</text>
</a>
</g>
</g>
<!-- Node0&#45;&gt;Node19 -->
<g id="edge6" class="edge">
<title>Node0&#45;&gt;Node19</title>
<path fill="none" stroke="#191970" d="M139.4856,-216.4435C119.9124,-207.6356 89.1924,-193.8116 66.7711,-183.722"/>
<polygon fill="#191970" stroke="#191970" points="67.9809,-180.4284 57.4254,-179.5164 65.1083,-186.8119 67.9809,-180.4284"/>
</g>
<!-- Node50 -->
<g id="node9" class="node">
<title>Node50</title>
<g id="a_node9"><a xlink:href="../../de/dce/_evol_d_f2_8h.html" target="_top" xlink:title="EvolDF2.h">
<polygon fill="none" stroke="#ff0000" points="168.5,-162.5 168.5,-179.5 222.5,-179.5 222.5,-162.5 168.5,-162.5"/>
<text text-anchor="middle" x="195.5" y="-169.1" font-family="Helvetica,sans-Serif" font-size="8.00" fill="#000000">EvolDF2.h</text>
</a>
</g>
</g>
<!-- Node0&#45;&gt;Node50 -->
<g id="edge11" class="edge">
<title>Node0&#45;&gt;Node50</title>
<path fill="none" stroke="#191970" d="M164.6098,-216.083C169.7822,-208.5341 177.3461,-197.4948 183.6944,-188.2298"/>
<polygon fill="#191970" stroke="#191970" points="186.7388,-189.9787 189.5039,-179.7511 180.9643,-186.0221 186.7388,-189.9787"/>
</g>
<!-- Node52 -->
<g id="node10" class="node">
<title>Node52</title>
<g id="a_node10"><a xlink:href="../../dd/d03/_heff_d_f2_8h.html" target="_top" xlink:title="HeffDF2.h">
<polygon fill="none" stroke="#ff0000" points="241,-162.5 241,-179.5 294,-179.5 294,-162.5 241,-162.5"/>
<text text-anchor="middle" x="267.5" y="-169.1" font-family="Helvetica,sans-Serif" font-size="8.00" fill="#000000">HeffDF2.h</text>
</a>
</g>
</g>
<!-- Node0&#45;&gt;Node52 -->
<g id="edge12" class="edge">
<title>Node0&#45;&gt;Node52</title>
<path fill="none" stroke="#191970" d="M176.0127,-216.324C193.5724,-207.6247 220.8314,-194.1202 241.0312,-184.113"/>
<polygon fill="#191970" stroke="#191970" points="242.6238,-187.23 250.0307,-179.6545 239.5163,-180.9575 242.6238,-187.23"/>
</g>
<!-- Node2 -->
<g id="node3" class="node">
<title>Node2</title>
<g id="a_node3"><a xlink:href="../../d1/dc2/gslpp__complex_8h.html" target="_top" xlink:title="gslpp_complex.h">
<polygon fill="none" stroke="#ff0000" points="146,-54.5 146,-71.5 223,-71.5 223,-54.5 146,-54.5"/>
<text text-anchor="middle" x="184.5" y="-61.1" font-family="Helvetica,sans-Serif" font-size="8.00" fill="#000000">gslpp_complex.h</text>
</a>
</g>
</g>
<!-- Node1&#45;&gt;Node2 -->
<g id="edge2" class="edge">
<title>Node1&#45;&gt;Node2</title>
<path fill="none" stroke="#191970" d="M127.5737,-162.1619C137.7972,-144.3533 161.0399,-103.8661 174.4506,-80.5054"/>
<polygon fill="#191970" stroke="#191970" points="177.5861,-82.0735 179.5295,-71.6584 171.5153,-78.5884 177.5861,-82.0735"/>
</g>
<!-- Node6 -->
<g id="node4" class="node">
<title>Node6</title>
<g id="a_node4"><a xlink:href="../../d4/d36/_order_scheme_8h.html" target="_top" xlink:title="OrderScheme.h">
<polygon fill="none" stroke="#000000" points="44,-.5 44,-17.5 117,-17.5 117,-.5 44,-.5"/>
<text text-anchor="middle" x="80.5" y="-7.1" font-family="Helvetica,sans-Serif" font-size="8.00" fill="#000000">OrderScheme.h</text>
</a>
</g>
</g>
<!-- Node1&#45;&gt;Node6 -->
<g id="edge3" class="edge">
<title>Node1&#45;&gt;Node6</title>
<path fill="none" stroke="#191970" d="M120.2419,-162.2902C113.6615,-136.9086 94.3963,-62.5998 85.3267,-27.6172"/>
<polygon fill="#191970" stroke="#191970" points="88.667,-26.5545 82.7693,-17.7529 81.891,-28.3113 88.667,-26.5545"/>
</g>
<!-- Node7 -->
<g id="node5" class="node">
<title>Node7</title>
<g id="a_node5"><a xlink:href="../../d9/d72/gslpp_8h.html" target="_top" xlink:title="gslpp.h">
<polygon fill="none" stroke="#ff0000" points="173.5,-108.5 173.5,-125.5 215.5,-125.5 215.5,-108.5 173.5,-108.5"/>
<text text-anchor="middle" x="194.5" y="-115.1" font-family="Helvetica,sans-Serif" font-size="8.00" fill="#000000">gslpp.h</text>
</a>
</g>
</g>
<!-- Node1&#45;&gt;Node7 -->
<g id="edge4" class="edge">
<title>Node1&#45;&gt;Node7</title>
<path fill="none" stroke="#191970" d="M134.068,-162.324C144.9202,-154.1849 161.3807,-141.8395 174.3834,-132.0874"/>
<polygon fill="#191970" stroke="#191970" points="176.8215,-134.6339 182.7215,-125.8339 172.6214,-129.0339 176.8215,-134.6339"/>
</g>
<!-- Node7&#45;&gt;Node2 -->
<g id="edge5" class="edge">
<title>Node7&#45;&gt;Node2</title>
<path fill="none" stroke="#191970" d="M192.8487,-108.083C191.5236,-100.9272 189.6176,-90.6353 187.9613,-81.6911"/>
<polygon fill="#191970" stroke="#191970" points="191.383,-80.9466 186.1206,-71.7511 184.5001,-82.2212 191.383,-80.9466"/>
</g>
<!-- Node20 -->
<g id="node7" class="node">
<title>Node20</title>
<g id="a_node7"><a xlink:href="../../d2/d65/_flavour_8h.html" target="_top" xlink:title="Flavour.h">
<polygon fill="none" stroke="#ff0000" points="29.5,-108.5 29.5,-125.5 79.5,-125.5 79.5,-108.5 29.5,-108.5"/>
<text text-anchor="middle" x="54.5" y="-115.1" font-family="Helvetica,sans-Serif" font-size="8.00" fill="#000000">Flavour.h</text>
</a>
</g>
</g>
<!-- Node19&#45;&gt;Node20 -->
<g id="edge7" class="edge">
<title>Node19&#45;&gt;Node20</title>
<path fill="none" stroke="#191970" d="M41.1421,-162.083C43.2856,-154.8486 46.3789,-144.4087 49.0491,-135.3968"/>
<polygon fill="#191970" stroke="#191970" points="52.4219,-136.3334 51.9071,-125.7511 45.7103,-134.3447 52.4219,-136.3334"/>
</g>
<!-- Node21 -->
<g id="node8" class="node">
<title>Node21</title>
<g id="a_node8"><a xlink:href="../../d4/d68/_q_c_d_8h.html" target="_top" xlink:title="QCD.h">
<polygon fill="none" stroke="#ff0000" points="34,-54.5 34,-71.5 75,-71.5 75,-54.5 34,-54.5"/>
<text text-anchor="middle" x="54.5" y="-61.1" font-family="Helvetica,sans-Serif" font-size="8.00" fill="#000000">QCD.h</text>
</a>
</g>
</g>
<!-- Node19&#45;&gt;Node21 -->
<g id="edge10" class="edge">
<title>Node19&#45;&gt;Node21</title>
<path fill="none" stroke="#191970" d="M32.7125,-162.3648C25.2797,-150.1563 14.063,-127.1974 20.5,-108 24.1041,-97.2512 31.4028,-87.0204 38.317,-79.0378"/>
<polygon fill="#191970" stroke="#191970" points="40.9769,-81.3168 45.2121,-71.6053 35.8451,-76.5561 40.9769,-81.3168"/>
</g>
<!-- Node20&#45;&gt;Node21 -->
<g id="edge8" class="edge">
<title>Node20&#45;&gt;Node21</title>
<path fill="none" stroke="#191970" d="M54.5,-108.083C54.5,-101.0059 54.5,-90.8611 54.5,-81.9865"/>
<polygon fill="#191970" stroke="#191970" points="58.0001,-81.751 54.5,-71.7511 51.0001,-81.7511 58.0001,-81.751"/>
</g>
<!-- Node21&#45;&gt;Node6 -->
<g id="edge9" class="edge">
<title>Node21&#45;&gt;Node6</title>
<path fill="none" stroke="#191970" d="M58.7934,-54.083C62.3523,-46.6913 67.5225,-35.9533 71.9243,-26.8111"/>
<polygon fill="#191970" stroke="#191970" points="75.1018,-28.2795 76.2865,-17.7511 68.7948,-25.2427 75.1018,-28.2795"/>
</g>
<!-- Node52&#45;&gt;Node7 -->
<g id="edge13" class="edge">
<title>Node52&#45;&gt;Node7</title>
<path fill="none" stroke="#191970" d="M255.7713,-162.324C244.6626,-154.1066 227.7578,-141.6017 214.5167,-131.8069"/>
<polygon fill="#191970" stroke="#191970" points="216.5631,-128.9671 206.4421,-125.8339 212.4001,-134.5948 216.5631,-128.9671"/>
</g>
</g>
</svg>
