<?xml version="1.0" encoding="UTF-8" standalone="no"?>
<!DOCTYPE svg PUBLIC "-//W3C//DTD SVG 1.1//EN"
 "http://www.w3.org/Graphics/SVG/1.1/DTD/svg11.dtd">
<!-- Generated by graphviz version 2.38.0 (20140413.2041)
 -->
<!-- Title: gslpp_vector_complex.h Pages: 1 -->
<svg width="586pt" height="242pt"
 viewBox="0.00 0.00 586.00 242.00" xmlns="http://www.w3.org/2000/svg" xmlns:xlink="http://www.w3.org/1999/xlink">
<g id="graph0" class="graph" transform="scale(1 1) rotate(0) translate(4 238)">
<title>gslpp_vector_complex.h</title>
<!-- Node1 -->
<g id="node1" class="node"><title>Node1</title>
<polygon fill="#bfbfbf" stroke="black" points="203,-216.5 203,-233.5 306,-233.5 306,-216.5 203,-216.5"/>
<text text-anchor="middle" x="254.5" y="-223.1" font-family="Helvetica,sans-Serif" font-size="8.00">gslpp_vector_complex.h</text>
</g>
<!-- Node2 -->
<g id="node2" class="node"><title>Node2</title>
<g id="a_node2"><a xlink:href="../../d9/d72/gslpp_8h.html" target="_top" xlink:title="gslpp.h">
<polygon fill="none" stroke="red" points="75.5,-54.5 75.5,-71.5 117.5,-71.5 117.5,-54.5 75.5,-54.5"/>
<text text-anchor="middle" x="96.5" y="-61.1" font-family="Helvetica,sans-Serif" font-size="8.00">gslpp.h</text>
</a>
</g>
</g>
<!-- Node1&#45;&gt;Node2 -->
<g id="edge1" class="edge"><title>Node1&#45;&gt;Node2</title>
<path fill="none" stroke="midnightblue" d="M192.825,-216.755C147.63,-210.029 91.7789,-198.263 77.5,-180 51.6067,-146.882 79.6883,-91.9507 91.6455,-71.7565"/>
<polygon fill="midnightblue" stroke="midnightblue" points="192.479,-220.241 202.874,-218.195 193.472,-213.312 192.479,-220.241"/>
</g>
<!-- Node6 -->
<g id="node6" class="node"><title>Node6</title>
<g id="a_node6"><a xlink:href="../../d0/ddb/gslpp__matrix__double_8h.html" target="_top" xlink:title="gslpp_matrix_double.h">
<polygon fill="none" stroke="red" points="87,-162.5 87,-179.5 184,-179.5 184,-162.5 87,-162.5"/>
<text text-anchor="middle" x="135.5" y="-169.1" font-family="Helvetica,sans-Serif" font-size="8.00">gslpp_matrix_double.h</text>
</a>
</g>
</g>
<!-- Node1&#45;&gt;Node6 -->
<g id="edge5" class="edge"><title>Node1&#45;&gt;Node6</title>
<path fill="none" stroke="midnightblue" d="M228.019,-212.429C205.086,-202.407 172.575,-188.201 152.825,-179.57"/>
<polygon fill="midnightblue" stroke="midnightblue" points="226.632,-215.642 237.196,-216.439 229.435,-209.227 226.632,-215.642"/>
</g>
<!-- Node7 -->
<g id="node7" class="node"><title>Node7</title>
<g id="a_node7"><a xlink:href="../../d9/d25/gslpp__matrix__complex_8h.html" target="_top" xlink:title="gslpp_matrix_complex.h">
<polygon fill="none" stroke="red" points="125,-108.5 125,-125.5 228,-125.5 228,-108.5 125,-108.5"/>
<text text-anchor="middle" x="176.5" y="-115.1" font-family="Helvetica,sans-Serif" font-size="8.00">gslpp_matrix_complex.h</text>
</a>
</g>
</g>
<!-- Node1&#45;&gt;Node7 -->
<g id="edge10" class="edge"><title>Node1&#45;&gt;Node7</title>
<path fill="none" stroke="midnightblue" d="M242.93,-208.277C225.895,-185.126 194.714,-142.753 182.059,-125.554"/>
<polygon fill="midnightblue" stroke="midnightblue" points="240.145,-210.397 248.89,-216.377 245.783,-206.248 240.145,-210.397"/>
</g>
<!-- Node8 -->
<g id="node8" class="node"><title>Node8</title>
<g id="a_node8"><a xlink:href="../../d8/db9/gslpp__vector__complex_8cpp.html" target="_top" xlink:title="gslpp_vector_complex.cpp">
<polygon fill="none" stroke="black" points="241,-162.5 241,-179.5 352,-179.5 352,-162.5 241,-162.5"/>
<text text-anchor="middle" x="296.5" y="-169.1" font-family="Helvetica,sans-Serif" font-size="8.00">gslpp_vector_complex.cpp</text>
</a>
</g>
</g>
<!-- Node1&#45;&gt;Node8 -->
<g id="edge11" class="edge"><title>Node1&#45;&gt;Node8</title>
<path fill="none" stroke="midnightblue" d="M267.08,-208.425C274.739,-198.943 284.188,-187.243 290.277,-179.704"/>
<polygon fill="midnightblue" stroke="midnightblue" points="264.258,-206.349 260.697,-216.327 269.703,-210.747 264.258,-206.349"/>
</g>
<!-- Node9 -->
<g id="node9" class="node"><title>Node9</title>
<g id="a_node9"><a xlink:href="../../d0/d61/gslpp__vector__double_8cpp.html" target="_top" xlink:title="gslpp_vector_double.cpp">
<polygon fill="none" stroke="black" points="370,-162.5 370,-179.5 475,-179.5 475,-162.5 370,-162.5"/>
<text text-anchor="middle" x="422.5" y="-169.1" font-family="Helvetica,sans-Serif" font-size="8.00">gslpp_vector_double.cpp</text>
</a>
</g>
</g>
<!-- Node1&#45;&gt;Node9 -->
<g id="edge12" class="edge"><title>Node1&#45;&gt;Node9</title>
<path fill="none" stroke="midnightblue" d="M288.89,-213.355C321.375,-203.3 369.288,-188.47 398.042,-179.57"/>
<polygon fill="midnightblue" stroke="midnightblue" points="287.447,-210.138 278.929,-216.439 289.516,-216.825 287.447,-210.138"/>
</g>
<!-- Node10 -->
<g id="node10" class="node"><title>Node10</title>
<g id="a_node10"><a xlink:href="../../db/dba/_wilson_coefficient_8h.html" target="_top" xlink:title="WilsonCoefficient.h">
<polygon fill="none" stroke="red" points="493,-162.5 493,-179.5 578,-179.5 578,-162.5 493,-162.5"/>
<text text-anchor="middle" x="535.5" y="-169.1" font-family="Helvetica,sans-Serif" font-size="8.00">WilsonCoefficient.h</text>
</a>
</g>
</g>
<!-- Node1&#45;&gt;Node10 -->
<g id="edge13" class="edge"><title>Node1&#45;&gt;Node10</title>
<path fill="none" stroke="midnightblue" d="M305.17,-214.623C359.548,-204.561 444.841,-188.777 494.953,-179.503"/>
<polygon fill="midnightblue" stroke="midnightblue" points="304.256,-211.233 295.06,-216.494 305.53,-218.116 304.256,-211.233"/>
</g>
<!-- Node3 -->
<g id="node3" class="node"><title>Node3</title>
<g id="a_node3"><a xlink:href="../../d9/d37/_amp_d_k2_8h.html" target="_top" xlink:title="AmpDK2.h">
<polygon fill="none" stroke="red" points="0,-0.5 0,-17.5 55,-17.5 55,-0.5 0,-0.5"/>
<text text-anchor="middle" x="27.5" y="-7.1" font-family="Helvetica,sans-Serif" font-size="8.00">AmpDK2.h</text>
</a>
</g>
</g>
<!-- Node2&#45;&gt;Node3 -->
<g id="edge2" class="edge"><title>Node2&#45;&gt;Node3</title>
<path fill="none" stroke="midnightblue" d="M78.1095,-48.1405C65.1726,-38.391 48.3388,-25.7046 37.723,-17.7043"/>
<polygon fill="midnightblue" stroke="midnightblue" points="76.2262,-51.1038 86.3188,-54.3272 80.4392,-45.5135 76.2262,-51.1038"/>
</g>
<!-- Node4 -->
<g id="node4" class="node"><title>Node4</title>
<g id="a_node4"><a xlink:href="../../d5/dac/_m_pll_8cpp.html" target="_top" xlink:title="MPll.cpp">
<polygon fill="none" stroke="black" points="73,-0.5 73,-17.5 120,-17.5 120,-0.5 73,-0.5"/>
<text text-anchor="middle" x="96.5" y="-7.1" font-family="Helvetica,sans-Serif" font-size="8.00">MPll.cpp</text>
</a>
</g>
</g>
<!-- Node2&#45;&gt;Node4 -->
<g id="edge3" class="edge"><title>Node2&#45;&gt;Node4</title>
<path fill="none" stroke="midnightblue" d="M96.5,-44.0621C96.5,-35.0603 96.5,-24.6277 96.5,-17.7043"/>
<polygon fill="midnightblue" stroke="midnightblue" points="93.0001,-44.3272 96.5,-54.3272 100,-44.3273 93.0001,-44.3272"/>
</g>
<!-- Node5 -->
<g id="node5" class="node"><title>Node5</title>
<g id="a_node5"><a xlink:href="../../d2/dce/_m_vll_observables_8cpp.html" target="_top" xlink:title="MVllObservables.cpp">
<polygon fill="none" stroke="black" points="138.5,-0.5 138.5,-17.5 230.5,-17.5 230.5,-0.5 138.5,-0.5"/>
<text text-anchor="middle" x="184.5" y="-7.1" font-family="Helvetica,sans-Serif" font-size="8.00">MVllObservables.cpp</text>
</a>
</g>
</g>
<!-- Node2&#45;&gt;Node5 -->
<g id="edge4" class="edge"><title>Node2&#45;&gt;Node5</title>
<path fill="none" stroke="midnightblue" d="M118.127,-49.2204C134.953,-39.278 157.725,-25.8214 171.748,-17.5352"/>
<polygon fill="midnightblue" stroke="midnightblue" points="116.313,-46.2266 109.485,-54.3272 119.875,-52.2531 116.313,-46.2266"/>
</g>
<!-- Node6&#45;&gt;Node2 -->
<g id="edge6" class="edge"><title>Node6&#45;&gt;Node2</title>
<path fill="none" stroke="midnightblue" d="M127.261,-153.233C123.432,-145.113 118.968,-135.159 115.5,-126 108.244,-106.838 101.702,-83.5854 98.526,-71.7434"/>
<polygon fill="midnightblue" stroke="midnightblue" points="124.156,-154.851 131.651,-162.339 130.462,-151.811 124.156,-154.851"/>
</g>
<!-- Node6&#45;&gt;Node7 -->
<g id="edge7" class="edge"><title>Node6&#45;&gt;Node7</title>
<path fill="none" stroke="midnightblue" d="M141.94,-153.842C148.434,-144.467 157.851,-133.089 165.462,-125.704"/>
<polygon fill="midnightblue" stroke="midnightblue" points="138.963,-152.001 136.594,-162.327 144.886,-155.732 138.963,-152.001"/>
</g>
<!-- Node7&#45;&gt;Node2 -->
<g id="edge9" class="edge"><title>Node7&#45;&gt;Node2</title>
<path fill="none" stroke="midnightblue" d="M155.984,-102.664C140.779,-92.7814 120.605,-79.6679 108.093,-71.5352"/>
<polygon fill="midnightblue" stroke="midnightblue" points="154.404,-105.812 164.696,-108.327 158.219,-99.9427 154.404,-105.812"/>
</g>
<!-- Node7&#45;&gt;Node6 -->
<g id="edge8" class="edge"><title>Node7&#45;&gt;Node6</title>
<path fill="none" stroke="midnightblue" d="M170.033,-134.198C163.53,-143.579 154.112,-154.954 146.505,-162.327"/>
<polygon fill="midnightblue" stroke="midnightblue" points="173.015,-136.03 175.389,-125.704 167.094,-132.296 173.015,-136.03"/>
</g>
</g>
</svg>
