<?xml version="1.0" encoding="UTF-8" standalone="no"?>
<!DOCTYPE svg PUBLIC "-//W3C//DTD SVG 1.1//EN"
 "http://www.w3.org/Graphics/SVG/1.1/DTD/svg11.dtd">
<!-- Generated by graphviz version 2.40.1 (20161225.0304)
 -->
<!-- Title: MultipleSinglyIndexed.hpp Pages: 1 -->
<svg width="332pt" height="404pt"
 viewBox="0.00 0.00 331.50 404.00" xmlns="http://www.w3.org/2000/svg" xmlns:xlink="http://www.w3.org/1999/xlink">
<g id="graph0" class="graph" transform="scale(1 1) rotate(0) translate(4 400)">
<title>MultipleSinglyIndexed.hpp</title>
<!-- Node0 -->
<g id="node1" class="node">
<title>Node0</title>
<polygon fill="#bfbfbf" stroke="#000000" points="0,-378.5 0,-395.5 110,-395.5 110,-378.5 0,-378.5"/>
<text text-anchor="middle" x="55" y="-385.1" font-family="Helvetica,sans-Serif" font-size="8.00" fill="#000000">MultipleSinglyIndexed.hpp</text>
</g>
<!-- Node1 -->
<g id="node2" class="node">
<title>Node1</title>
<polygon fill="none" stroke="#bfbfbf" points="32,-.5 32,-17.5 64,-17.5 64,-.5 32,-.5"/>
<text text-anchor="middle" x="48" y="-7.1" font-family="Helvetica,sans-Serif" font-size="8.00" fill="#000000">map</text>
</g>
<!-- Node0&#45;&gt;Node1 -->
<g id="edge1" class="edge">
<title>Node0&#45;&gt;Node1</title>
<path fill="none" stroke="#191970" d="M48.8391,-378.2295C36.9493,-360.4179 12,-318.3539 12,-279 12,-279 12,-279 12,-117 12,-83.7096 27.5848,-47.4724 38.246,-26.5778"/>
<polygon fill="#191970" stroke="#191970" points="41.3969,-28.1069 42.9944,-17.6331 35.2141,-24.8246 41.3969,-28.1069"/>
</g>
<!-- Node2 -->
<g id="node3" class="node">
<title>Node2</title>
<polygon fill="none" stroke="#bfbfbf" points="40.5,-324.5 40.5,-341.5 69.5,-341.5 69.5,-324.5 40.5,-324.5"/>
<text text-anchor="middle" x="55" y="-331.1" font-family="Helvetica,sans-Serif" font-size="8.00" fill="#000000">list</text>
</g>
<!-- Node0&#45;&gt;Node2 -->
<g id="edge2" class="edge">
<title>Node0&#45;&gt;Node2</title>
<path fill="none" stroke="#191970" d="M55,-378.083C55,-371.0059 55,-360.8611 55,-351.9865"/>
<polygon fill="#191970" stroke="#191970" points="58.5001,-351.751 55,-341.7511 51.5001,-351.7511 58.5001,-351.751"/>
</g>
<!-- Node3 -->
<g id="node4" class="node">
<title>Node3</title>
<g id="a_node4"><a xlink:href="../../d6/d7b/_indexed_interpreter_8hpp.html" target="_top" xlink:title="IndexedInterpreter.hpp">
<polygon fill="none" stroke="#000000" points="87.5,-324.5 87.5,-341.5 184.5,-341.5 184.5,-324.5 87.5,-324.5"/>
<text text-anchor="middle" x="136" y="-331.1" font-family="Helvetica,sans-Serif" font-size="8.00" fill="#000000">IndexedInterpreter.hpp</text>
</a>
</g>
</g>
<!-- Node0&#45;&gt;Node3 -->
<g id="edge3" class="edge">
<title>Node0&#45;&gt;Node3</title>
<path fill="none" stroke="#191970" d="M68.0141,-378.324C80.5316,-369.979 99.6817,-357.2122 114.4714,-347.3524"/>
<polygon fill="#191970" stroke="#191970" points="116.6392,-350.1137 123.0182,-341.6545 112.7563,-344.2894 116.6392,-350.1137"/>
</g>
<!-- Node4 -->
<g id="node5" class="node">
<title>Node4</title>
<g id="a_node5"><a xlink:href="../../d2/d6b/_interpreter_template_8hpp.html" target="_top" xlink:title="InterpreterTemplate.hpp">
<polygon fill="none" stroke="#000000" points="85,-270.5 85,-287.5 187,-287.5 187,-270.5 85,-270.5"/>
<text text-anchor="middle" x="136" y="-277.1" font-family="Helvetica,sans-Serif" font-size="8.00" fill="#000000">InterpreterTemplate.hpp</text>
</a>
</g>
</g>
<!-- Node3&#45;&gt;Node4 -->
<g id="edge4" class="edge">
<title>Node3&#45;&gt;Node4</title>
<path fill="none" stroke="#191970" d="M136,-324.083C136,-317.0059 136,-306.8611 136,-297.9865"/>
<polygon fill="#191970" stroke="#191970" points="139.5001,-297.751 136,-287.7511 132.5001,-297.7511 139.5001,-297.751"/>
</g>
<!-- Node5 -->
<g id="node6" class="node">
<title>Node5</title>
<g id="a_node6"><a xlink:href="../../d8/d14/_b_o_llib_8hpp.html" target="_top" xlink:title="BOLlib/include/BOLlib.hpp">
<polygon fill="none" stroke="#ff0000" points="81,-162.5 81,-179.5 191,-179.5 191,-162.5 81,-162.5"/>
<text text-anchor="middle" x="136" y="-169.1" font-family="Helvetica,sans-Serif" font-size="8.00" fill="#000000">BOLlib/include/BOLlib.hpp</text>
</a>
</g>
</g>
<!-- Node4&#45;&gt;Node5 -->
<g id="edge5" class="edge">
<title>Node4&#45;&gt;Node5</title>
<path fill="none" stroke="#191970" d="M119.367,-270.4636C106.5121,-262.8407 89.6608,-250.356 82,-234 72.9684,-214.7171 92.369,-196.6987 110.3797,-184.9132"/>
<polygon fill="#191970" stroke="#191970" points="112.2768,-187.8556 118.979,-179.65 108.6226,-181.8852 112.2768,-187.8556"/>
</g>
<!-- Node40 -->
<g id="node9" class="node">
<title>Node40</title>
<g id="a_node9"><a xlink:href="../../db/d22/_block_interpreter_8hpp.html" target="_top" xlink:title="BlockInterpreter.hpp">
<polygon fill="none" stroke="#ff0000" points="91.5,-216.5 91.5,-233.5 180.5,-233.5 180.5,-216.5 91.5,-216.5"/>
<text text-anchor="middle" x="136" y="-223.1" font-family="Helvetica,sans-Serif" font-size="8.00" fill="#000000">BlockInterpreter.hpp</text>
</a>
</g>
</g>
<!-- Node4&#45;&gt;Node40 -->
<g id="edge10" class="edge">
<title>Node4&#45;&gt;Node40</title>
<path fill="none" stroke="#191970" d="M136,-270.083C136,-263.0059 136,-252.8611 136,-243.9865"/>
<polygon fill="#191970" stroke="#191970" points="139.5001,-243.751 136,-233.7511 132.5001,-243.7511 139.5001,-243.751"/>
</g>
<!-- Node42 -->
<g id="node10" class="node">
<title>Node42</title>
<g id="a_node10"><a xlink:href="../../db/dbc/_extended_mass_8hpp.html" target="_top" xlink:title="../../../MEC/ExtendedMass.hpp">
<polygon fill="none" stroke="#ff0000" points="198.5,-216.5 198.5,-233.5 323.5,-233.5 323.5,-216.5 198.5,-216.5"/>
<text text-anchor="middle" x="261" y="-223.1" font-family="Helvetica,sans-Serif" font-size="8.00" fill="#000000">../../../MEC/ExtendedMass.hpp</text>
</a>
</g>
</g>
<!-- Node4&#45;&gt;Node42 -->
<g id="edge12" class="edge">
<title>Node4&#45;&gt;Node42</title>
<path fill="none" stroke="#191970" d="M155.8066,-270.4435C176.2868,-261.5961 208.4827,-247.6875 231.8647,-237.5865"/>
<polygon fill="#191970" stroke="#191970" points="233.4941,-240.6953 241.286,-233.5164 230.718,-234.2692 233.4941,-240.6953"/>
</g>
<!-- Node6 -->
<g id="node7" class="node">
<title>Node6</title>
<g id="a_node7"><a xlink:href="../../dc/d4c/_argument_parser_8hpp.html" target="_top" xlink:title="ArgumentParser.hpp">
<polygon fill="none" stroke="#ff0000" points="40,-108.5 40,-125.5 130,-125.5 130,-108.5 40,-108.5"/>
<text text-anchor="middle" x="85" y="-115.1" font-family="Helvetica,sans-Serif" font-size="8.00" fill="#000000">ArgumentParser.hpp</text>
</a>
</g>
</g>
<!-- Node5&#45;&gt;Node6 -->
<g id="edge6" class="edge">
<title>Node5&#45;&gt;Node6</title>
<path fill="none" stroke="#191970" d="M127.5784,-162.083C120.1518,-154.2195 109.1483,-142.5688 100.1878,-133.0813"/>
<polygon fill="#191970" stroke="#191970" points="102.6757,-130.618 93.2649,-125.7511 97.5866,-135.4244 102.6757,-130.618"/>
</g>
<!-- Node10 -->
<g id="node8" class="node">
<title>Node10</title>
<g id="a_node8"><a xlink:href="../../d4/dbc/_ascii_xml_parser_8hpp.html" target="_top" xlink:title="AsciiXmlParser.hpp">
<polygon fill="none" stroke="#ff0000" points="42,-54.5 42,-71.5 128,-71.5 128,-54.5 42,-54.5"/>
<text text-anchor="middle" x="85" y="-61.1" font-family="Helvetica,sans-Serif" font-size="8.00" fill="#000000">AsciiXmlParser.hpp</text>
</a>
</g>
</g>
<!-- Node5&#45;&gt;Node10 -->
<g id="edge9" class="edge">
<title>Node5&#45;&gt;Node10</title>
<path fill="none" stroke="#191970" d="M138.8466,-162.3587C142.4806,-149.7441 147.36,-125.849 139,-108 132.9552,-95.0941 121.1881,-84.5985 110.1774,-76.9999"/>
<polygon fill="#191970" stroke="#191970" points="111.9434,-73.9748 101.633,-71.5364 108.1724,-79.8723 111.9434,-73.9748"/>
</g>
<!-- Node6&#45;&gt;Node10 -->
<g id="edge7" class="edge">
<title>Node6&#45;&gt;Node10</title>
<path fill="none" stroke="#191970" d="M85,-108.083C85,-101.0059 85,-90.8611 85,-81.9865"/>
<polygon fill="#191970" stroke="#191970" points="88.5001,-81.751 85,-71.7511 81.5001,-81.7511 88.5001,-81.751"/>
</g>
<!-- Node10&#45;&gt;Node1 -->
<g id="edge8" class="edge">
<title>Node10&#45;&gt;Node1</title>
<path fill="none" stroke="#191970" d="M78.8902,-54.083C73.7178,-46.5341 66.1539,-35.4948 59.8056,-26.2298"/>
<polygon fill="#191970" stroke="#191970" points="62.5357,-24.0221 53.9961,-17.7511 56.7612,-27.9787 62.5357,-24.0221"/>
</g>
<!-- Node40&#45;&gt;Node5 -->
<g id="edge11" class="edge">
<title>Node40&#45;&gt;Node5</title>
<path fill="none" stroke="#191970" d="M136,-216.083C136,-209.0059 136,-198.8611 136,-189.9865"/>
<polygon fill="#191970" stroke="#191970" points="139.5001,-189.751 136,-179.7511 132.5001,-189.7511 139.5001,-189.751"/>
</g>
<!-- Node42&#45;&gt;Node5 -->
<g id="edge13" class="edge">
<title>Node42&#45;&gt;Node5</title>
<path fill="none" stroke="#191970" d="M241.1934,-216.4435C220.7132,-207.5961 188.5173,-193.6875 165.1353,-183.5865"/>
<polygon fill="#191970" stroke="#191970" points="166.282,-180.2692 155.714,-179.5164 163.5059,-186.6953 166.282,-180.2692"/>
</g>
</g>
</svg>
