<?xml version="1.0" encoding="UTF-8" standalone="no"?>
<!DOCTYPE svg PUBLIC "-//W3C//DTD SVG 1.1//EN"
 "http://www.w3.org/Graphics/SVG/1.1/DTD/svg11.dtd">
<!-- Generated by graphviz version 2.40.1 (20161225.0304)
 -->
<!-- Title: GMpositivity.h Pages: 1 -->
<svg width="230pt" height="134pt"
 viewBox="0.00 0.00 230.00 134.00" xmlns="http://www.w3.org/2000/svg" xmlns:xlink="http://www.w3.org/1999/xlink">
<g id="graph0" class="graph" transform="scale(1 1) rotate(0) translate(4 130)">
<title>GMpositivity.h</title>
<!-- Node54 -->
<g id="node1" class="node">
<title>Node54</title>
<polygon fill="#bfbfbf" stroke="#000000" points="91,-108.5 91,-125.5 158,-125.5 158,-108.5 91,-108.5"/>
<text text-anchor="middle" x="124.5" y="-115.1" font-family="Helvetica,sans-Serif" font-size="8.00" fill="#000000">GMpositivity.h</text>
</g>
<!-- Node55 -->
<g id="node2" class="node">
<title>Node55</title>
<g id="a_node2"><a xlink:href="../../dc/dc3/_georgi_machacek_observables_8h.html" target="_top" xlink:title="GeorgiMachacekObservables.h">
<polygon fill="none" stroke="#000000" points="0,-54.5 0,-71.5 129,-71.5 129,-54.5 0,-54.5"/>
<text text-anchor="middle" x="64.5" y="-61.1" font-family="Helvetica,sans-Serif" font-size="8.00" fill="#000000">GeorgiMachacekObservables.h</text>
</a>
</g>
</g>
<!-- Node54&#45;&gt;Node55 -->
<g id="edge1" class="edge">
<title>Node54&#45;&gt;Node55</title>
<path fill="none" stroke="#191970" d="M107.3191,-101.5372C96.6208,-91.9087 83.2437,-79.8694 74.3154,-71.8339"/>
<polygon fill="#191970" stroke="#191970" points="105.0856,-104.2358 114.86,-108.324 109.7684,-99.0327 105.0856,-104.2358"/>
</g>
<!-- Node57 -->
<g id="node4" class="node">
<title>Node57</title>
<g id="a_node4"><a xlink:href="../../dc/d4c/_g_mpositivity_8cpp.html" target="_top" xlink:title="GMpositivity.cpp">
<polygon fill="none" stroke="#000000" points="147,-54.5 147,-71.5 222,-71.5 222,-54.5 147,-54.5"/>
<text text-anchor="middle" x="184.5" y="-61.1" font-family="Helvetica,sans-Serif" font-size="8.00" fill="#000000">GMpositivity.cpp</text>
</a>
</g>
</g>
<!-- Node54&#45;&gt;Node57 -->
<g id="edge3" class="edge">
<title>Node54&#45;&gt;Node57</title>
<path fill="none" stroke="#191970" d="M141.6809,-101.5372C152.3792,-91.9087 165.7563,-79.8694 174.6846,-71.8339"/>
<polygon fill="#191970" stroke="#191970" points="139.2316,-99.0327 134.14,-108.324 143.9144,-104.2358 139.2316,-99.0327"/>
</g>
<!-- Node56 -->
<g id="node3" class="node">
<title>Node56</title>
<g id="a_node3"><a xlink:href="../../d1/de2/_th_obs_factory_8cpp.html" target="_top" xlink:title="ThObsFactory.cpp">
<polygon fill="none" stroke="#000000" points="23.5,-.5 23.5,-17.5 105.5,-17.5 105.5,-.5 23.5,-.5"/>
<text text-anchor="middle" x="64.5" y="-7.1" font-family="Helvetica,sans-Serif" font-size="8.00" fill="#000000">ThObsFactory.cpp</text>
</a>
</g>
</g>
<!-- Node55&#45;&gt;Node56 -->
<g id="edge2" class="edge">
<title>Node55&#45;&gt;Node56</title>
<path fill="none" stroke="#191970" d="M64.5,-43.8045C64.5,-34.9102 64.5,-24.7798 64.5,-17.7511"/>
<polygon fill="#191970" stroke="#191970" points="61.0001,-44.083 64.5,-54.083 68.0001,-44.083 61.0001,-44.083"/>
</g>
</g>
</svg>
