<?xml version="1.0" encoding="UTF-8" standalone="no"?>
<!DOCTYPE svg PUBLIC "-//W3C//DTD SVG 1.1//EN"
 "http://www.w3.org/Graphics/SVG/1.1/DTD/svg11.dtd">
<!-- Generated by graphviz version 2.38.0 (20140413.2041)
 -->
<!-- Title: BR_MPll Pages: 1 -->
<svg width="122pt" height="134pt"
 viewBox="0.00 0.00 121.50 134.00" xmlns="http://www.w3.org/2000/svg" xmlns:xlink="http://www.w3.org/1999/xlink">
<g id="graph0" class="graph" transform="scale(1 1) rotate(0) translate(4 130)">
<title>BR_MPll</title>
<!-- Node1 -->
<g id="node1" class="node"><title>Node1</title>
<polygon fill="#bfbfbf" stroke="black" points="35.5,-54.5 35.5,-71.5 83.5,-71.5 83.5,-54.5 35.5,-54.5"/>
<text text-anchor="middle" x="59.5" y="-61.1" font-family="Helvetica,sans-Serif" font-size="8.00">BR_MPll</text>
</g>
<!-- Node3 -->
<g id="node3" class="node"><title>Node3</title>
<g id="a_node3"><a xlink:href="../../da/dcb/class_a_c_p___m_pll.html" target="_top" xlink:title="A class for the binned observable &#160;in . ">
<polygon fill="none" stroke="black" points="0,-0.5 0,-17.5 53,-17.5 53,-0.5 0,-0.5"/>
<text text-anchor="middle" x="26.5" y="-7.1" font-family="Helvetica,sans-Serif" font-size="8.00">ACP_MPll</text>
</a>
</g>
</g>
<!-- Node1&#45;&gt;Node3 -->
<g id="edge2" class="edge"><title>Node1&#45;&gt;Node3</title>
<path fill="none" stroke="midnightblue" d="M49.2458,-45.8419C43.2963,-36.467 36.0759,-25.0892 31.3892,-17.7043"/>
<polygon fill="midnightblue" stroke="midnightblue" points="46.3173,-47.7593 54.6307,-54.3272 52.2276,-44.0085 46.3173,-47.7593"/>
</g>
<!-- Node4 -->
<g id="node4" class="node"><title>Node4</title>
<g id="a_node4"><a xlink:href="../../d3/de0/class_r___m_pll.html" target="_top" xlink:title="A class for the binned observable ratio &#160;in . ">
<polygon fill="none" stroke="black" points="71.5,-0.5 71.5,-17.5 113.5,-17.5 113.5,-0.5 71.5,-0.5"/>
<text text-anchor="middle" x="92.5" y="-7.1" font-family="Helvetica,sans-Serif" font-size="8.00">R_MPll</text>
</a>
</g>
</g>
<!-- Node1&#45;&gt;Node4 -->
<g id="edge3" class="edge"><title>Node1&#45;&gt;Node4</title>
<path fill="none" stroke="midnightblue" d="M69.7542,-45.8419C75.7037,-36.467 82.9241,-25.0892 87.6108,-17.7043"/>
<polygon fill="midnightblue" stroke="midnightblue" points="66.7724,-44.0085 64.3693,-54.3272 72.6827,-47.7593 66.7724,-44.0085"/>
</g>
<!-- Node2 -->
<g id="node2" class="node"><title>Node2</title>
<g id="a_node2"><a xlink:href="../../dc/d1f/class_th_observable.html" target="_top" xlink:title="A class for a model prediction of an observable. ">
<polygon fill="none" stroke="black" points="26,-108.5 26,-125.5 93,-125.5 93,-108.5 26,-108.5"/>
<text text-anchor="middle" x="59.5" y="-115.1" font-family="Helvetica,sans-Serif" font-size="8.00">ThObservable</text>
</a>
</g>
</g>
<!-- Node2&#45;&gt;Node1 -->
<g id="edge1" class="edge"><title>Node2&#45;&gt;Node1</title>
<path fill="none" stroke="midnightblue" d="M59.5,-98.0621C59.5,-89.0603 59.5,-78.6277 59.5,-71.7043"/>
<polygon fill="midnightblue" stroke="midnightblue" points="56.0001,-98.3272 59.5,-108.327 63.0001,-98.3273 56.0001,-98.3272"/>
</g>
</g>
</svg>
