<?xml version="1.0" encoding="UTF-8" standalone="no"?>
<!DOCTYPE svg PUBLIC "-//W3C//DTD SVG 1.1//EN"
 "http://www.w3.org/Graphics/SVG/1.1/DTD/svg11.dtd">
<!-- Generated by graphviz version 2.40.1 (20161225.0304)
 -->
<!-- Title: CKM.h Pages: 1 -->
<svg width="448pt" height="188pt"
 viewBox="0.00 0.00 447.50 188.00" xmlns="http://www.w3.org/2000/svg" xmlns:xlink="http://www.w3.org/1999/xlink">
<g id="graph0" class="graph" transform="scale(1 1) rotate(0) translate(4 184)">
<title>CKM.h</title>
<!-- Node18 -->
<g id="node1" class="node">
<title>Node18</title>
<polygon fill="#bfbfbf" stroke="#000000" points="212.5,-162.5 212.5,-179.5 253.5,-179.5 253.5,-162.5 212.5,-162.5"/>
<text text-anchor="middle" x="233" y="-169.1" font-family="Helvetica,sans-Serif" font-size="8.00" fill="#000000">CKM.h</text>
</g>
<!-- Node19 -->
<g id="node2" class="node">
<title>Node19</title>
<g id="a_node2"><a xlink:href="../../d9/d37/_xmatrices_8h.html" target="_top" xlink:title="Xmatrices.h">
<polygon fill="none" stroke="#000000" points="62.5,-108.5 62.5,-125.5 121.5,-125.5 121.5,-108.5 62.5,-108.5"/>
<text text-anchor="middle" x="92" y="-115.1" font-family="Helvetica,sans-Serif" font-size="8.00" fill="#000000">Xmatrices.h</text>
</a>
</g>
</g>
<!-- Node18&#45;&gt;Node19 -->
<g id="edge1" class="edge">
<title>Node18&#45;&gt;Node19</title>
<path fill="none" stroke="#191970" d="M202.9474,-159.4905C176.414,-149.3288 138.3291,-134.7431 114.3918,-125.5756"/>
<polygon fill="#191970" stroke="#191970" points="201.907,-162.8399 212.4974,-163.1479 204.4106,-156.3029 201.907,-162.8399"/>
</g>
<!-- Node24 -->
<g id="node5" class="node">
<title>Node24</title>
<g id="a_node5"><a xlink:href="../../d6/d0a/_standard_model_8h.html" target="_top" xlink:title="StandardModel.h">
<polygon fill="none" stroke="#ff0000" points="194.5,-108.5 194.5,-125.5 271.5,-125.5 271.5,-108.5 194.5,-108.5"/>
<text text-anchor="middle" x="233" y="-115.1" font-family="Helvetica,sans-Serif" font-size="8.00" fill="#000000">StandardModel.h</text>
</a>
</g>
</g>
<!-- Node18&#45;&gt;Node24 -->
<g id="edge4" class="edge">
<title>Node18&#45;&gt;Node24</title>
<path fill="none" stroke="#191970" d="M233,-151.8045C233,-142.9102 233,-132.7798 233,-125.7511"/>
<polygon fill="#191970" stroke="#191970" points="229.5001,-152.083 233,-162.083 236.5001,-152.083 229.5001,-152.083"/>
</g>
<!-- Node419 -->
<g id="node10" class="node">
<title>Node419</title>
<g id="a_node10"><a xlink:href="../../db/d91/_c_k_m_8cpp.html" target="_top" xlink:title="CKM.cpp">
<polygon fill="none" stroke="#000000" points="289.5,-108.5 289.5,-125.5 338.5,-125.5 338.5,-108.5 289.5,-108.5"/>
<text text-anchor="middle" x="314" y="-115.1" font-family="Helvetica,sans-Serif" font-size="8.00" fill="#000000">CKM.cpp</text>
</a>
</g>
</g>
<!-- Node18&#45;&gt;Node419 -->
<g id="edge10" class="edge">
<title>Node18&#45;&gt;Node419</title>
<path fill="none" stroke="#191970" d="M254.5668,-156.6221C269.364,-146.7574 288.5122,-133.9919 301.0182,-125.6545"/>
<polygon fill="#191970" stroke="#191970" points="252.3931,-153.8647 246.0141,-162.324 256.276,-159.6891 252.3931,-153.8647"/>
</g>
<!-- Node20 -->
<g id="node3" class="node">
<title>Node20</title>
<g id="a_node3"><a xlink:href="../../d2/d1e/_m_f_v_8h.html" target="_top" xlink:title="MFV.h">
<polygon fill="none" stroke="#ff0000" points="0,-54.5 0,-71.5 40,-71.5 40,-54.5 0,-54.5"/>
<text text-anchor="middle" x="20" y="-61.1" font-family="Helvetica,sans-Serif" font-size="8.00" fill="#000000">MFV.h</text>
</a>
</g>
</g>
<!-- Node19&#45;&gt;Node20 -->
<g id="edge2" class="edge">
<title>Node19&#45;&gt;Node20</title>
<path fill="none" stroke="#191970" d="M72.1343,-102.1008C59.1765,-92.3824 42.7026,-80.0269 31.7785,-71.8339"/>
<polygon fill="#191970" stroke="#191970" points="70.3319,-105.1239 80.432,-108.324 74.5319,-99.5239 70.3319,-105.1239"/>
</g>
<!-- Node23 -->
<g id="node4" class="node">
<title>Node23</title>
<g id="a_node4"><a xlink:href="../../d8/d07/_xmatrices_8cpp.html" target="_top" xlink:title="Xmatrices.cpp">
<polygon fill="none" stroke="#000000" points="58.5,-54.5 58.5,-71.5 125.5,-71.5 125.5,-54.5 58.5,-54.5"/>
<text text-anchor="middle" x="92" y="-61.1" font-family="Helvetica,sans-Serif" font-size="8.00" fill="#000000">Xmatrices.cpp</text>
</a>
</g>
</g>
<!-- Node19&#45;&gt;Node23 -->
<g id="edge3" class="edge">
<title>Node19&#45;&gt;Node23</title>
<path fill="none" stroke="#191970" d="M92,-97.8045C92,-88.9102 92,-78.7798 92,-71.7511"/>
<polygon fill="#191970" stroke="#191970" points="88.5001,-98.083 92,-108.083 95.5001,-98.083 88.5001,-98.083"/>
</g>
<!-- Node25 -->
<g id="node6" class="node">
<title>Node25</title>
<g id="a_node6"><a xlink:href="../../df/dae/main__als__test_8cpp.html" target="_top" xlink:title="main_als_test.cpp">
<polygon fill="none" stroke="#000000" points="152.5,-.5 152.5,-17.5 233.5,-17.5 233.5,-.5 152.5,-.5"/>
<text text-anchor="middle" x="193" y="-7.1" font-family="Helvetica,sans-Serif" font-size="8.00" fill="#000000">main_als_test.cpp</text>
</a>
</g>
</g>
<!-- Node24&#45;&gt;Node25 -->
<g id="edge5" class="edge">
<title>Node24&#45;&gt;Node25</title>
<path fill="none" stroke="#191970" d="M205.1712,-103.2738C193.2649,-95.8059 180.603,-85.3405 174,-72 164.9796,-53.7753 177.6889,-30.4364 186.2711,-17.9061"/>
<polygon fill="#191970" stroke="#191970" points="203.6086,-106.4134 214.0158,-108.3982 207.1178,-100.3565 203.6086,-106.4134"/>
</g>
<!-- Node26 -->
<g id="node7" class="node">
<title>Node26</title>
<g id="a_node7"><a xlink:href="../../d1/dae/_compute_observables_8h.html" target="_top" xlink:title="ComputeObservables.h">
<polygon fill="none" stroke="#ff0000" points="182.5,-54.5 182.5,-71.5 283.5,-71.5 283.5,-54.5 182.5,-54.5"/>
<text text-anchor="middle" x="233" y="-61.1" font-family="Helvetica,sans-Serif" font-size="8.00" fill="#000000">ComputeObservables.h</text>
</a>
</g>
</g>
<!-- Node24&#45;&gt;Node26 -->
<g id="edge6" class="edge">
<title>Node24&#45;&gt;Node26</title>
<path fill="none" stroke="#191970" d="M233,-97.8045C233,-88.9102 233,-78.7798 233,-71.7511"/>
<polygon fill="#191970" stroke="#191970" points="229.5001,-98.083 233,-108.083 236.5001,-98.083 229.5001,-98.083"/>
</g>
<!-- Node32 -->
<g id="node8" class="node">
<title>Node32</title>
<g id="a_node8"><a xlink:href="../../dd/d0f/_abottom_8cpp.html" target="_top" xlink:title="Abottom.cpp">
<polygon fill="none" stroke="#000000" points="301.5,-54.5 301.5,-71.5 362.5,-71.5 362.5,-54.5 301.5,-54.5"/>
<text text-anchor="middle" x="332" y="-61.1" font-family="Helvetica,sans-Serif" font-size="8.00" fill="#000000">Abottom.cpp</text>
</a>
</g>
</g>
<!-- Node24&#45;&gt;Node32 -->
<g id="edge8" class="edge">
<title>Node24&#45;&gt;Node32</title>
<path fill="none" stroke="#191970" d="M257.837,-103.4526C276.1136,-93.4835 300.4156,-80.2279 316.1334,-71.6545"/>
<polygon fill="#191970" stroke="#191970" points="256.009,-100.4628 248.9061,-108.324 259.361,-106.608 256.009,-100.4628"/>
</g>
<!-- Node33 -->
<g id="node9" class="node">
<title>Node33</title>
<g id="a_node9"><a xlink:href="../../d5/d2d/_acharm_8cpp.html" target="_top" xlink:title="Acharm.cpp">
<polygon fill="none" stroke="#000000" points="380.5,-54.5 380.5,-71.5 439.5,-71.5 439.5,-54.5 380.5,-54.5"/>
<text text-anchor="middle" x="410" y="-61.1" font-family="Helvetica,sans-Serif" font-size="8.00" fill="#000000">Acharm.cpp</text>
</a>
</g>
</g>
<!-- Node24&#45;&gt;Node33 -->
<g id="edge9" class="edge">
<title>Node24&#45;&gt;Node33</title>
<path fill="none" stroke="#191970" d="M270.9032,-105.4363C304.275,-95.2551 352.1013,-80.664 382.085,-71.5164"/>
<polygon fill="#191970" stroke="#191970" points="269.5896,-102.1777 261.0462,-108.4435 271.6323,-108.8731 269.5896,-102.1777"/>
</g>
<!-- Node26&#45;&gt;Node25 -->
<g id="edge7" class="edge">
<title>Node26&#45;&gt;Node25</title>
<path fill="none" stroke="#191970" d="M220.3003,-45.8554C213.374,-36.5048 205.0937,-25.3265 199.4823,-17.7511"/>
<polygon fill="#191970" stroke="#191970" points="217.63,-48.1307 226.3948,-54.083 223.255,-43.9641 217.63,-48.1307"/>
</g>
</g>
</svg>
