<?xml version="1.0" encoding="UTF-8" standalone="no"?>
<!DOCTYPE svg PUBLIC "-//W3C//DTD SVG 1.1//EN"
 "http://www.w3.org/Graphics/SVG/1.1/DTD/svg11.dtd">
<!-- Generated by graphviz version 2.38.0 (20140413.2041)
 -->
<!-- Title: THDMfunctions.h Pages: 1 -->
<svg width="307pt" height="242pt"
 viewBox="0.00 0.00 307.00 242.00" xmlns="http://www.w3.org/2000/svg" xmlns:xlink="http://www.w3.org/1999/xlink">
<g id="graph0" class="graph" transform="scale(1 1) rotate(0) translate(4 238)">
<title>THDMfunctions.h</title>
<!-- Node1 -->
<g id="node1" class="node"><title>Node1</title>
<polygon fill="#bfbfbf" stroke="black" points="66.5,-216.5 66.5,-233.5 144.5,-233.5 144.5,-216.5 66.5,-216.5"/>
<text text-anchor="middle" x="105.5" y="-223.1" font-family="Helvetica,sans-Serif" font-size="8.00">THDMfunctions.h</text>
</g>
<!-- Node2 -->
<g id="node2" class="node"><title>Node2</title>
<polygon fill="none" stroke="#bfbfbf" points="136,-54.5 136,-71.5 187,-71.5 187,-54.5 136,-54.5"/>
<text text-anchor="middle" x="161.5" y="-61.1" font-family="Helvetica,sans-Serif" font-size="8.00">stdexcept</text>
</g>
<!-- Node1&#45;&gt;Node2 -->
<g id="edge1" class="edge"><title>Node1&#45;&gt;Node2</title>
<path fill="none" stroke="midnightblue" d="M105.382,-216.268C105.373,-197.029 107.116,-145.828 124.5,-108 129.501,-97.1173 137.944,-86.7691 145.502,-78.8456"/>
<polygon fill="midnightblue" stroke="midnightblue" points="147.97,-81.3272 152.606,-71.8003 143.041,-76.357 147.97,-81.3272"/>
</g>
<!-- Node3 -->
<g id="node3" class="node"><title>Node3</title>
<g id="a_node3"><a xlink:href="../../dd/dcd/_th_observable_8h.html" target="_top" xlink:title="ThObservable.h">
<polygon fill="none" stroke="black" points="3,-162.5 3,-179.5 76,-179.5 76,-162.5 3,-162.5"/>
<text text-anchor="middle" x="39.5" y="-169.1" font-family="Helvetica,sans-Serif" font-size="8.00">ThObservable.h</text>
</a>
</g>
</g>
<!-- Node1&#45;&gt;Node3 -->
<g id="edge2" class="edge"><title>Node1&#45;&gt;Node3</title>
<path fill="none" stroke="midnightblue" d="M95.7615,-216.327C85.6228,-208.339 69.5238,-195.655 57.1397,-185.898"/>
<polygon fill="midnightblue" stroke="midnightblue" points="59.2995,-183.144 49.2785,-179.704 54.9674,-188.642 59.2995,-183.144"/>
</g>
<!-- Node8 -->
<g id="node8" class="node"><title>Node8</title>
<g id="a_node8"><a xlink:href="../../de/de8/_t_h_d_m_8h.html" target="_top" xlink:title="THDM.h">
<polygon fill="none" stroke="black" points="138.5,-162.5 138.5,-179.5 184.5,-179.5 184.5,-162.5 138.5,-162.5"/>
<text text-anchor="middle" x="161.5" y="-169.1" font-family="Helvetica,sans-Serif" font-size="8.00">THDM.h</text>
</a>
</g>
</g>
<!-- Node1&#45;&gt;Node8 -->
<g id="edge8" class="edge"><title>Node1&#45;&gt;Node8</title>
<path fill="none" stroke="midnightblue" d="M113.763,-216.327C122.117,-208.57 135.241,-196.383 145.616,-186.749"/>
<polygon fill="midnightblue" stroke="midnightblue" points="148.257,-189.074 153.203,-179.704 143.494,-183.944 148.257,-189.074"/>
</g>
<!-- Node4 -->
<g id="node4" class="node"><title>Node4</title>
<g id="a_node4"><a xlink:href="../../d6/d0a/_standard_model_8h.html" target="_top" xlink:title="StandardModel.h">
<polygon fill="none" stroke="red" points="0,-108.5 0,-125.5 77,-125.5 77,-108.5 0,-108.5"/>
<text text-anchor="middle" x="38.5" y="-115.1" font-family="Helvetica,sans-Serif" font-size="8.00">StandardModel.h</text>
</a>
</g>
</g>
<!-- Node3&#45;&gt;Node4 -->
<g id="edge3" class="edge"><title>Node3&#45;&gt;Node4</title>
<path fill="none" stroke="midnightblue" d="M39.3524,-162.327C39.2195,-155.414 39.0189,-144.985 38.8457,-135.979"/>
<polygon fill="midnightblue" stroke="midnightblue" points="42.3399,-135.635 38.6482,-125.704 35.3412,-135.77 42.3399,-135.635"/>
</g>
<!-- Node5 -->
<g id="node5" class="node"><title>Node5</title>
<g id="a_node5"><a xlink:href="../../d9/d72/gslpp_8h.html" target="_top" xlink:title="gslpp.h">
<polygon fill="none" stroke="red" points="105.5,-0.5 105.5,-17.5 147.5,-17.5 147.5,-0.5 105.5,-0.5"/>
<text text-anchor="middle" x="126.5" y="-7.1" font-family="Helvetica,sans-Serif" font-size="8.00">gslpp.h</text>
</a>
</g>
</g>
<!-- Node4&#45;&gt;Node5 -->
<g id="edge4" class="edge"><title>Node4&#45;&gt;Node5</title>
<path fill="none" stroke="midnightblue" d="M29.7377,-108.334C16.9391,-96.1951 -4.04919,-72.0726 8.5,-54 27.8509,-26.132 67.0986,-15.882 95.0119,-12.1309"/>
<polygon fill="midnightblue" stroke="midnightblue" points="95.5479,-15.5927 105.09,-10.9883 94.7593,-8.63721 95.5479,-15.5927"/>
</g>
<!-- Node6 -->
<g id="node6" class="node"><title>Node6</title>
<g id="a_node6"><a xlink:href="../../d4/d68/_q_c_d_8h.html" target="_top" xlink:title="QCD.h">
<polygon fill="none" stroke="red" points="77,-54.5 77,-71.5 118,-71.5 118,-54.5 77,-54.5"/>
<text text-anchor="middle" x="97.5" y="-61.1" font-family="Helvetica,sans-Serif" font-size="8.00">QCD.h</text>
</a>
</g>
</g>
<!-- Node4&#45;&gt;Node6 -->
<g id="edge5" class="edge"><title>Node4&#45;&gt;Node6</title>
<path fill="none" stroke="midnightblue" d="M47.2057,-108.327C56.0947,-100.493 70.109,-88.1412 81.0889,-78.4641"/>
<polygon fill="midnightblue" stroke="midnightblue" points="83.5707,-80.942 88.7586,-71.7043 78.9423,-75.6906 83.5707,-80.942"/>
</g>
<!-- Node7 -->
<g id="node7" class="node"><title>Node7</title>
<g id="a_node7"><a xlink:href="../../db/d5d/_c_k_m_8h.html" target="_top" xlink:title="CKM.h">
<polygon fill="none" stroke="red" points="18,-54.5 18,-71.5 59,-71.5 59,-54.5 18,-54.5"/>
<text text-anchor="middle" x="38.5" y="-61.1" font-family="Helvetica,sans-Serif" font-size="8.00">CKM.h</text>
</a>
</g>
</g>
<!-- Node4&#45;&gt;Node7 -->
<g id="edge6" class="edge"><title>Node4&#45;&gt;Node7</title>
<path fill="none" stroke="midnightblue" d="M38.5,-108.327C38.5,-101.414 38.5,-90.985 38.5,-81.9789"/>
<polygon fill="midnightblue" stroke="midnightblue" points="42.0001,-81.7042 38.5,-71.7043 35.0001,-81.7043 42.0001,-81.7042"/>
</g>
<!-- Node7&#45;&gt;Node5 -->
<g id="edge7" class="edge"><title>Node7&#45;&gt;Node5</title>
<path fill="none" stroke="midnightblue" d="M51.4847,-54.3272C65.4728,-46.0615 87.9701,-32.7677 104.684,-22.8914"/>
<polygon fill="midnightblue" stroke="midnightblue" points="106.919,-25.6358 113.748,-17.5352 103.358,-19.6093 106.919,-25.6358"/>
</g>
<!-- Node8&#45;&gt;Node4 -->
<g id="edge9" class="edge"><title>Node8&#45;&gt;Node4</title>
<path fill="none" stroke="midnightblue" d="M143.615,-162.439C123.21,-153.812 89.6074,-139.606 65.896,-129.582"/>
<polygon fill="midnightblue" stroke="midnightblue" points="66.9805,-126.241 56.4068,-125.57 64.2547,-132.688 66.9805,-126.241"/>
</g>
<!-- Node9 -->
<g id="node9" class="node"><title>Node9</title>
<g id="a_node9"><a xlink:href="../../db/d1f/_t_h_d_m_matching_8h.html" target="_top" xlink:title="THDMMatching.h">
<polygon fill="none" stroke="red" points="220,-108.5 220,-125.5 299,-125.5 299,-108.5 220,-108.5"/>
<text text-anchor="middle" x="259.5" y="-115.1" font-family="Helvetica,sans-Serif" font-size="8.00">THDMMatching.h</text>
</a>
</g>
</g>
<!-- Node8&#45;&gt;Node9 -->
<g id="edge10" class="edge"><title>Node8&#45;&gt;Node9</title>
<path fill="none" stroke="midnightblue" d="M175.96,-162.327C191.829,-153.907 217.532,-140.269 236.241,-130.341"/>
<polygon fill="midnightblue" stroke="midnightblue" points="238.106,-133.314 245.299,-125.535 234.825,-127.131 238.106,-133.314"/>
</g>
<!-- Node10 -->
<g id="node10" class="node"><title>Node10</title>
<g id="a_node10"><a xlink:href="../../d0/d7c/_t_h_d_mcache_8h.html" target="_top" xlink:title="THDMcache.h">
<polygon fill="none" stroke="red" points="133.5,-108.5 133.5,-125.5 201.5,-125.5 201.5,-108.5 133.5,-108.5"/>
<text text-anchor="middle" x="167.5" y="-115.1" font-family="Helvetica,sans-Serif" font-size="8.00">THDMcache.h</text>
</a>
</g>
</g>
<!-- Node8&#45;&gt;Node10 -->
<g id="edge12" class="edge"><title>Node8&#45;&gt;Node10</title>
<path fill="none" stroke="midnightblue" d="M162.385,-162.327C163.192,-155.338 164.413,-144.753 165.46,-135.679"/>
<polygon fill="midnightblue" stroke="midnightblue" points="168.942,-136.04 166.611,-125.704 161.988,-135.237 168.942,-136.04"/>
</g>
<!-- Node9&#45;&gt;Node5 -->
<g id="edge11" class="edge"><title>Node9&#45;&gt;Node5</title>
<path fill="none" stroke="midnightblue" d="M255.059,-108.264C247.475,-95.5947 230.95,-70.211 211.5,-54 195.068,-40.304 173.667,-29.2559 156.451,-21.6562"/>
<polygon fill="midnightblue" stroke="midnightblue" points="157.439,-18.2734 146.867,-17.586 154.703,-24.7165 157.439,-18.2734"/>
</g>
<!-- Node10&#45;&gt;Node2 -->
<g id="edge13" class="edge"><title>Node10&#45;&gt;Node2</title>
<path fill="none" stroke="midnightblue" d="M166.615,-108.327C165.808,-101.338 164.587,-90.7528 163.54,-81.6792"/>
<polygon fill="midnightblue" stroke="midnightblue" points="167.012,-81.2371 162.389,-71.7043 160.058,-82.0396 167.012,-81.2371"/>
</g>
<!-- Node10&#45;&gt;Node5 -->
<g id="edge14" class="edge"><title>Node10&#45;&gt;Node5</title>
<path fill="none" stroke="midnightblue" d="M175.757,-108.178C187.323,-96.2332 205.835,-72.8478 195.5,-54 187.207,-38.8757 171.261,-28.2007 156.786,-21.1565"/>
<polygon fill="midnightblue" stroke="midnightblue" points="158.14,-17.9277 147.582,-17.0414 155.283,-24.3181 158.14,-17.9277"/>
</g>
</g>
</svg>
