<?xml version="1.0" encoding="UTF-8" standalone="no"?>
<!DOCTYPE svg PUBLIC "-//W3C//DTD SVG 1.1//EN"
 "http://www.w3.org/Graphics/SVG/1.1/DTD/svg11.dtd">
<!-- Generated by graphviz version 2.40.1 (20161225.0304)
 -->
<!-- Title: BasicObserved.hpp Pages: 1 -->
<svg width="130pt" height="134pt"
 viewBox="0.00 0.00 129.50 134.00" xmlns="http://www.w3.org/2000/svg" xmlns:xlink="http://www.w3.org/1999/xlink">
<g id="graph0" class="graph" transform="scale(1 1) rotate(0) translate(4 130)">
<title>BasicObserved.hpp</title>
<!-- Node0 -->
<g id="node1" class="node">
<title>Node0</title>
<polygon fill="#bfbfbf" stroke="#000000" points="0,-108.5 0,-125.5 86,-125.5 86,-108.5 0,-108.5"/>
<text text-anchor="middle" x="43" y="-115.1" font-family="Helvetica,sans-Serif" font-size="8.00" fill="#000000">BasicObserved.hpp</text>
</g>
<!-- Node1 -->
<g id="node2" class="node">
<title>Node1</title>
<polygon fill="none" stroke="#bfbfbf" points="28.5,-.5 28.5,-17.5 57.5,-17.5 57.5,-.5 28.5,-.5"/>
<text text-anchor="middle" x="43" y="-7.1" font-family="Helvetica,sans-Serif" font-size="8.00" fill="#000000">list</text>
</g>
<!-- Node0&#45;&gt;Node1 -->
<g id="edge1" class="edge">
<title>Node0&#45;&gt;Node1</title>
<path fill="none" stroke="#191970" d="M38.8888,-108.2771C34.9413,-99.3833 29.255,-85.0736 27,-72 24.3625,-56.7093 29.1741,-39.6695 34.1936,-27.1707"/>
<polygon fill="#191970" stroke="#191970" points="37.4595,-28.4393 38.3,-17.8778 31.0567,-25.6099 37.4595,-28.4393"/>
</g>
<!-- Node2 -->
<g id="node3" class="node">
<title>Node2</title>
<g id="a_node3"><a xlink:href="../../d7/dab/_basic_observer_8hpp.html" target="_top" xlink:title="BasicObserver.hpp">
<polygon fill="none" stroke="#000000" points="36.5,-54.5 36.5,-71.5 121.5,-71.5 121.5,-54.5 36.5,-54.5"/>
<text text-anchor="middle" x="79" y="-61.1" font-family="Helvetica,sans-Serif" font-size="8.00" fill="#000000">BasicObserver.hpp</text>
</a>
</g>
</g>
<!-- Node0&#45;&gt;Node2 -->
<g id="edge2" class="edge">
<title>Node0&#45;&gt;Node2</title>
<path fill="none" stroke="#191970" d="M48.9447,-108.083C53.9773,-100.5341 61.3368,-89.4948 67.5135,-80.2298"/>
<polygon fill="#191970" stroke="#191970" points="70.5311,-82.0131 73.1659,-71.7511 64.7067,-78.1301 70.5311,-82.0131"/>
</g>
<!-- Node2&#45;&gt;Node1 -->
<g id="edge3" class="edge">
<title>Node2&#45;&gt;Node1</title>
<path fill="none" stroke="#191970" d="M73.0553,-54.083C68.0227,-46.5341 60.6632,-35.4948 54.4865,-26.2298"/>
<polygon fill="#191970" stroke="#191970" points="57.2933,-24.1301 48.8341,-17.7511 51.4689,-28.0131 57.2933,-24.1301"/>
</g>
</g>
</svg>
