<?xml version="1.0" encoding="UTF-8" standalone="no"?>
<!DOCTYPE svg PUBLIC "-//W3C//DTD SVG 1.1//EN"
 "http://www.w3.org/Graphics/SVG/1.1/DTD/svg11.dtd">
<!-- Generated by graphviz version 2.40.1 (20161225.0304)
 -->
<!-- Title: RGEvolutor Pages: 1 -->
<svg width="453pt" height="208pt"
 viewBox="0.00 0.00 452.50 208.00" xmlns="http://www.w3.org/2000/svg" xmlns:xlink="http://www.w3.org/1999/xlink">
<g id="graph0" class="graph" transform="scale(1 1) rotate(0) translate(4 204)">
<title>RGEvolutor</title>
<!-- Node0 -->
<g id="node1" class="node">
<title>Node0</title>
<polygon fill="#bfbfbf" stroke="#000000" points="187.5,-55.5 187.5,-72.5 245.5,-72.5 245.5,-55.5 187.5,-55.5"/>
<text text-anchor="middle" x="216.5" y="-62.1" font-family="Helvetica,sans-Serif" font-size="8.00" fill="#000000">RGEvolutor</text>
</g>
<!-- Node3 -->
<g id="node4" class="node">
<title>Node3</title>
<g id="a_node4"><a xlink:href="../../dd/d00/class_evol_bsmm.html" target="_top" xlink:title="EvolBsmm">
<polygon fill="none" stroke="#000000" points="0,-.5 0,-17.5 55,-17.5 55,-.5 0,-.5"/>
<text text-anchor="middle" x="27.5" y="-7.1" font-family="Helvetica,sans-Serif" font-size="8.00" fill="#000000">EvolBsmm</text>
</a>
</g>
</g>
<!-- Node0&#45;&gt;Node3 -->
<g id="edge3" class="edge">
<title>Node0&#45;&gt;Node3</title>
<path fill="none" stroke="#191970" d="M177.5737,-52.6722C141.0683,-42.049 87.4008,-26.4315 55.1118,-17.0352"/>
<polygon fill="#191970" stroke="#191970" points="176.8033,-56.0932 187.3829,-55.5268 178.7592,-49.372 176.8033,-56.0932"/>
</g>
<!-- Node4 -->
<g id="node5" class="node">
<title>Node4</title>
<g id="a_node5"><a xlink:href="../../dc/d99/class_evol_d_b1bsg.html" target="_top" xlink:title="EvolDB1bsg">
<polygon fill="none" stroke="#000000" points="73,-.5 73,-17.5 134,-17.5 134,-.5 73,-.5"/>
<text text-anchor="middle" x="103.5" y="-7.1" font-family="Helvetica,sans-Serif" font-size="8.00" fill="#000000">EvolDB1bsg</text>
</a>
</g>
</g>
<!-- Node0&#45;&gt;Node4 -->
<g id="edge4" class="edge">
<title>Node0&#45;&gt;Node4</title>
<path fill="none" stroke="#191970" d="M189.7016,-50.9565C168.4604,-40.6179 139.3937,-26.4704 121.0323,-17.5334"/>
<polygon fill="#191970" stroke="#191970" points="188.3205,-54.1768 198.8438,-55.4063 191.384,-47.8828 188.3205,-54.1768"/>
</g>
<!-- Node5 -->
<g id="node6" class="node">
<title>Node5</title>
<g id="a_node6"><a xlink:href="../../de/def/class_evol_d_b1_mll.html" target="_top" xlink:title="EvolDB1Mll">
<polygon fill="none" stroke="#000000" points="152.5,-.5 152.5,-17.5 210.5,-17.5 210.5,-.5 152.5,-.5"/>
<text text-anchor="middle" x="181.5" y="-7.1" font-family="Helvetica,sans-Serif" font-size="8.00" fill="#000000">EvolDB1Mll</text>
</a>
</g>
</g>
<!-- Node0&#45;&gt;Node5 -->
<g id="edge5" class="edge">
<title>Node0&#45;&gt;Node5</title>
<path fill="none" stroke="#191970" d="M205.6408,-46.9356C199.4781,-37.2513 192.0253,-25.5397 187.0459,-17.7149"/>
<polygon fill="#191970" stroke="#191970" points="202.7096,-48.8487 211.0313,-55.4063 208.6153,-45.0905 202.7096,-48.8487"/>
</g>
<!-- Node6 -->
<g id="node7" class="node">
<title>Node6</title>
<g id="a_node7"><a xlink:href="../../d7/dda/class_evol_d_c1.html" target="_top" xlink:title=" Evolutor Class ">
<polygon fill="none" stroke="#000000" points="228.5,-.5 228.5,-17.5 276.5,-17.5 276.5,-.5 228.5,-.5"/>
<text text-anchor="middle" x="252.5" y="-7.1" font-family="Helvetica,sans-Serif" font-size="8.00" fill="#000000">EvolDC1</text>
</a>
</g>
</g>
<!-- Node0&#45;&gt;Node6 -->
<g id="edge6" class="edge">
<title>Node0&#45;&gt;Node6</title>
<path fill="none" stroke="#191970" d="M227.6694,-46.9356C234.0082,-37.2513 241.674,-25.5397 246.7957,-17.7149"/>
<polygon fill="#191970" stroke="#191970" points="224.6732,-45.1224 222.125,-55.4063 230.5301,-48.956 224.6732,-45.1224"/>
</g>
<!-- Node7 -->
<g id="node8" class="node">
<title>Node7</title>
<g id="a_node8"><a xlink:href="../../df/dcf/class_evol_d_c1_buras.html" target="_top" xlink:title=" Evolutor Class ">
<polygon fill="none" stroke="#000000" points="295,-.5 295,-17.5 364,-17.5 364,-.5 295,-.5"/>
<text text-anchor="middle" x="329.5" y="-7.1" font-family="Helvetica,sans-Serif" font-size="8.00" fill="#000000">EvolDC1Buras</text>
</a>
</g>
</g>
<!-- Node0&#45;&gt;Node7 -->
<g id="edge7" class="edge">
<title>Node0&#45;&gt;Node7</title>
<path fill="none" stroke="#191970" d="M243.2984,-50.9565C264.5396,-40.6179 293.6063,-26.4704 311.9677,-17.5334"/>
<polygon fill="#191970" stroke="#191970" points="241.616,-47.8828 234.1563,-55.4063 244.6795,-54.1768 241.616,-47.8828"/>
</g>
<!-- Node8 -->
<g id="node9" class="node">
<title>Node8</title>
<g id="a_node9"><a xlink:href="../../d7/dc5/class_evol_d_f1nlep.html" target="_top" xlink:title=" Evolutor Class ">
<polygon fill="none" stroke="#000000" points="382.5,-.5 382.5,-17.5 444.5,-17.5 444.5,-.5 382.5,-.5"/>
<text text-anchor="middle" x="413.5" y="-7.1" font-family="Helvetica,sans-Serif" font-size="8.00" fill="#000000">EvolDF1nlep</text>
</a>
</g>
</g>
<!-- Node0&#45;&gt;Node8 -->
<g id="edge8" class="edge">
<title>Node0&#45;&gt;Node8</title>
<path fill="none" stroke="#191970" d="M255.6106,-53.0808C293.0505,-42.628 348.7578,-27.0752 383.0158,-17.5108"/>
<polygon fill="#191970" stroke="#191970" points="254.2585,-49.8244 245.568,-55.8846 256.1409,-56.5665 254.2585,-49.8244"/>
</g>
<!-- Node1 -->
<g id="node2" class="node">
<title>Node1</title>
<g id="a_node2"><a xlink:href="../../dd/d6f/class_wilson_template.html" target="_top" xlink:title="WilsonTemplate\&lt; gslpp\l::matrix\&lt; double \&gt; \&gt;">
<polygon fill="none" stroke="#000000" points="166.5,-110.5 166.5,-136.5 266.5,-136.5 266.5,-110.5 166.5,-110.5"/>
<text text-anchor="start" x="174.5" y="-126.1" font-family="Helvetica,sans-Serif" font-size="8.00" fill="#000000">WilsonTemplate&lt; gslpp</text>
<text text-anchor="middle" x="216.5" y="-117.1" font-family="Helvetica,sans-Serif" font-size="8.00" fill="#000000">::matrix&lt; double &gt; &gt;</text>
</a>
</g>
</g>
<!-- Node1&#45;&gt;Node0 -->
<g id="edge1" class="edge">
<title>Node1&#45;&gt;Node0</title>
<path fill="none" stroke="#191970" d="M216.5,-100.0042C216.5,-90.3375 216.5,-79.7482 216.5,-72.5724"/>
<polygon fill="#191970" stroke="#191970" points="213.0001,-100.295 216.5,-110.295 220.0001,-100.2951 213.0001,-100.295"/>
</g>
<!-- Node2 -->
<g id="node3" class="node">
<title>Node2</title>
<g id="a_node3"><a xlink:href="../../dd/d6f/class_wilson_template.html" target="_top" xlink:title="A template class for the Wilson coefficients. ">
<polygon fill="none" stroke="#000000" points="170,-182.5 170,-199.5 263,-199.5 263,-182.5 170,-182.5"/>
<text text-anchor="middle" x="216.5" y="-189.1" font-family="Helvetica,sans-Serif" font-size="8.00" fill="#000000">WilsonTemplate&lt; T &gt;</text>
</a>
</g>
</g>
<!-- Node2&#45;&gt;Node1 -->
<g id="edge2" class="edge">
<title>Node2&#45;&gt;Node1</title>
<path fill="none" stroke="#ffa500" stroke-dasharray="5,2" d="M216.5,-172.3829C216.5,-161.1182 216.5,-147.017 216.5,-136.8585"/>
<polygon fill="#ffa500" stroke="#ffa500" points="213.0001,-172.451 216.5,-182.4511 220.0001,-172.4511 213.0001,-172.451"/>
<text text-anchor="middle" x="266.5" y="-157.6" font-family="Helvetica,sans-Serif" font-size="8.00" fill="#000000"> &lt; gslpp::matrix&lt; double &gt; &gt;</text>
</g>
</g>
</svg>
