<?xml version="1.0" encoding="UTF-8" standalone="no"?>
<!DOCTYPE svg PUBLIC "-//W3C//DTD SVG 1.1//EN"
 "http://www.w3.org/Graphics/SVG/1.1/DTD/svg11.dtd">
<!-- Generated by graphviz version 2.40.1 (20161225.0304)
 -->
<!-- Title: heavyHiggs.cpp Pages: 1 -->
<svg width="291pt" height="350pt"
 viewBox="0.00 0.00 290.67 350.00" xmlns="http://www.w3.org/2000/svg" xmlns:xlink="http://www.w3.org/1999/xlink">
<g id="graph0" class="graph" transform="scale(1 1) rotate(0) translate(4 346)">
<title>heavyHiggs.cpp</title>
<!-- Node0 -->
<g id="node1" class="node">
<title>Node0</title>
<polygon fill="#bfbfbf" stroke="#000000" points="152.6654,-324.5 152.6654,-341.5 225.6654,-341.5 225.6654,-324.5 152.6654,-324.5"/>
<text text-anchor="middle" x="189.1654" y="-331.1" font-family="Helvetica,sans-Serif" font-size="8.00" fill="#000000">heavyHiggs.cpp</text>
</g>
<!-- Node1 -->
<g id="node2" class="node">
<title>Node1</title>
<g id="a_node2"><a xlink:href="../../d5/d92/heavy_higgs_8h.html" target="_top" xlink:title="heavyHiggs.h">
<polygon fill="none" stroke="#000000" points="106.6654,-270.5 106.6654,-287.5 171.6654,-287.5 171.6654,-270.5 106.6654,-270.5"/>
<text text-anchor="middle" x="139.1654" y="-277.1" font-family="Helvetica,sans-Serif" font-size="8.00" fill="#000000">heavyHiggs.h</text>
</a>
</g>
</g>
<!-- Node0&#45;&gt;Node1 -->
<g id="edge1" class="edge">
<title>Node0&#45;&gt;Node1</title>
<path fill="none" stroke="#191970" d="M180.9089,-324.083C173.7007,-316.2982 163.0556,-304.8015 154.3196,-295.3665"/>
<polygon fill="#191970" stroke="#191970" points="156.6305,-292.7108 147.2682,-287.7511 151.4942,-297.4666 156.6305,-292.7108"/>
</g>
<!-- Node7 -->
<g id="node6" class="node">
<title>Node7</title>
<g id="a_node6"><a xlink:href="../../d6/d0a/_standard_model_8h.html" target="_top" xlink:title="StandardModel.h">
<polygon fill="none" stroke="#ff0000" points="174.6654,-108.5 174.6654,-125.5 251.6654,-125.5 251.6654,-108.5 174.6654,-108.5"/>
<text text-anchor="middle" x="213.1654" y="-115.1" font-family="Helvetica,sans-Serif" font-size="8.00" fill="#000000">StandardModel.h</text>
</a>
</g>
</g>
<!-- Node0&#45;&gt;Node7 -->
<g id="edge13" class="edge">
<title>Node0&#45;&gt;Node7</title>
<path fill="none" stroke="#191970" d="M192.4079,-324.1824C201.2881,-299.0601 225.0261,-224.8706 220.1654,-162 219.4866,-153.2204 218.0735,-143.5626 216.6935,-135.4526"/>
<polygon fill="#191970" stroke="#191970" points="220.1316,-134.7961 214.9043,-125.5806 213.2438,-136.0446 220.1316,-134.7961"/>
</g>
<!-- Node2 -->
<g id="node3" class="node">
<title>Node2</title>
<polygon fill="none" stroke="#bfbfbf" points="27.6654,-162.5 27.6654,-179.5 78.6654,-179.5 78.6654,-162.5 27.6654,-162.5"/>
<text text-anchor="middle" x="53.1654" y="-169.1" font-family="Helvetica,sans-Serif" font-size="8.00" fill="#000000">stdexcept</text>
</g>
<!-- Node1&#45;&gt;Node2 -->
<g id="edge2" class="edge">
<title>Node1&#45;&gt;Node2</title>
<path fill="none" stroke="#191970" d="M106.5775,-272.6715C70.6473,-264.9541 16.2995,-250.8353 4.1654,-234 -8.1584,-216.9017 11.4621,-197.8803 29.4167,-185.2576"/>
<polygon fill="#191970" stroke="#191970" points="31.5413,-188.0486 37.9496,-179.6115 27.6786,-182.2109 31.5413,-188.0486"/>
</g>
<!-- Node3 -->
<g id="node4" class="node">
<title>Node3</title>
<g id="a_node4"><a xlink:href="../../dd/dcd/_th_observable_8h.html" target="_top" xlink:title="ThObservable.h">
<polygon fill="none" stroke="#ff0000" points="13.6654,-216.5 13.6654,-233.5 86.6654,-233.5 86.6654,-216.5 13.6654,-216.5"/>
<text text-anchor="middle" x="50.1654" y="-223.1" font-family="Helvetica,sans-Serif" font-size="8.00" fill="#000000">ThObservable.h</text>
</a>
</g>
</g>
<!-- Node1&#45;&gt;Node3 -->
<g id="edge3" class="edge">
<title>Node1&#45;&gt;Node3</title>
<path fill="none" stroke="#191970" d="M124.866,-270.324C110.9824,-261.9002 89.673,-248.9709 73.3617,-239.0741"/>
<polygon fill="#191970" stroke="#191970" points="74.7942,-235.8495 64.4293,-233.6545 71.1631,-241.8341 74.7942,-235.8495"/>
</g>
<!-- Node6 -->
<g id="node5" class="node">
<title>Node6</title>
<g id="a_node5"><a xlink:href="../../de/de8/_t_h_d_m_8h.html" target="_top" xlink:title="THDM.h">
<polygon fill="none" stroke="#ff0000" points="165.1654,-162.5 165.1654,-179.5 211.1654,-179.5 211.1654,-162.5 165.1654,-162.5"/>
<text text-anchor="middle" x="188.1654" y="-169.1" font-family="Helvetica,sans-Serif" font-size="8.00" fill="#000000">THDM.h</text>
</a>
</g>
</g>
<!-- Node1&#45;&gt;Node6 -->
<g id="edge4" class="edge">
<title>Node1&#45;&gt;Node6</title>
<path fill="none" stroke="#191970" d="M150.9094,-270.469C161.0909,-262.3446 175.2462,-249.1343 182.1654,-234 188.5253,-220.0889 189.7423,-202.6763 189.5292,-189.6848"/>
<polygon fill="#191970" stroke="#191970" points="193.0215,-189.4343 189.0671,-179.6051 186.0289,-189.7549 193.0215,-189.4343"/>
</g>
<!-- Node53 -->
<g id="node10" class="node">
<title>Node53</title>
<g id="a_node10"><a xlink:href="../../d0/d7c/_t_h_d_mcache_8h.html" target="_top" xlink:title="THDMcache.h">
<polygon fill="none" stroke="#ff0000" points="105.1654,-216.5 105.1654,-233.5 173.1654,-233.5 173.1654,-216.5 105.1654,-216.5"/>
<text text-anchor="middle" x="139.1654" y="-223.1" font-family="Helvetica,sans-Serif" font-size="8.00" fill="#000000">THDMcache.h</text>
</a>
</g>
</g>
<!-- Node1&#45;&gt;Node53 -->
<g id="edge10" class="edge">
<title>Node1&#45;&gt;Node53</title>
<path fill="none" stroke="#191970" d="M139.1654,-270.083C139.1654,-263.0059 139.1654,-252.8611 139.1654,-243.9865"/>
<polygon fill="#191970" stroke="#191970" points="142.6655,-243.751 139.1654,-233.7511 135.6655,-243.7511 142.6655,-243.751"/>
</g>
<!-- Node6&#45;&gt;Node7 -->
<g id="edge5" class="edge">
<title>Node6&#45;&gt;Node7</title>
<path fill="none" stroke="#191970" d="M192.2936,-162.083C195.6793,-154.77 200.5814,-144.1814 204.7842,-135.1034"/>
<polygon fill="#191970" stroke="#191970" points="208.0888,-136.2962 209.1139,-125.7511 201.7365,-133.3553 208.0888,-136.2962"/>
</g>
<!-- Node8 -->
<g id="node7" class="node">
<title>Node8</title>
<g id="a_node7"><a xlink:href="../../d2/d65/_flavour_8h.html" target="_top" xlink:title="Flavour.h">
<polygon fill="none" stroke="#ff0000" points="135.1654,-54.5 135.1654,-71.5 185.1654,-71.5 185.1654,-54.5 135.1654,-54.5"/>
<text text-anchor="middle" x="160.1654" y="-61.1" font-family="Helvetica,sans-Serif" font-size="8.00" fill="#000000">Flavour.h</text>
</a>
</g>
</g>
<!-- Node7&#45;&gt;Node8 -->
<g id="edge6" class="edge">
<title>Node7&#45;&gt;Node8</title>
<path fill="none" stroke="#191970" d="M204.4135,-108.083C196.6956,-100.2195 185.2607,-88.5688 175.9488,-79.0813"/>
<polygon fill="#191970" stroke="#191970" points="178.257,-76.4363 168.7544,-71.7511 173.2612,-81.3396 178.257,-76.4363"/>
</g>
<!-- Node9 -->
<g id="node8" class="node">
<title>Node9</title>
<g id="a_node8"><a xlink:href="../../d4/d68/_q_c_d_8h.html" target="_top" xlink:title="QCD.h">
<polygon fill="none" stroke="#ff0000" points="165.6654,-.5 165.6654,-17.5 206.6654,-17.5 206.6654,-.5 165.6654,-.5"/>
<text text-anchor="middle" x="186.1654" y="-7.1" font-family="Helvetica,sans-Serif" font-size="8.00" fill="#000000">QCD.h</text>
</a>
</g>
</g>
<!-- Node7&#45;&gt;Node9 -->
<g id="edge8" class="edge">
<title>Node7&#45;&gt;Node9</title>
<path fill="none" stroke="#191970" d="M210.9558,-108.1619C206.5633,-90.5918 196.652,-50.9465 190.7787,-27.4532"/>
<polygon fill="#191970" stroke="#191970" points="194.1509,-26.5109 188.33,-17.6584 187.3599,-28.2087 194.1509,-26.5109"/>
</g>
<!-- Node29 -->
<g id="node9" class="node">
<title>Node29</title>
<g id="a_node9"><a xlink:href="../../db/d5d/_c_k_m_8h.html" target="_top" xlink:title="CKM.h">
<polygon fill="none" stroke="#ff0000" points="241.6654,-54.5 241.6654,-71.5 282.6654,-71.5 282.6654,-54.5 241.6654,-54.5"/>
<text text-anchor="middle" x="262.1654" y="-61.1" font-family="Helvetica,sans-Serif" font-size="8.00" fill="#000000">CKM.h</text>
</a>
</g>
</g>
<!-- Node7&#45;&gt;Node29 -->
<g id="edge9" class="edge">
<title>Node7&#45;&gt;Node29</title>
<path fill="none" stroke="#191970" d="M221.2567,-108.083C228.3207,-100.2982 238.7529,-88.8015 247.3143,-79.3665"/>
<polygon fill="#191970" stroke="#191970" points="250.0966,-81.5087 254.2246,-71.7511 244.9127,-76.8047 250.0966,-81.5087"/>
</g>
<!-- Node8&#45;&gt;Node9 -->
<g id="edge7" class="edge">
<title>Node8&#45;&gt;Node9</title>
<path fill="none" stroke="#191970" d="M164.4587,-54.083C168.0177,-46.6913 173.1879,-35.9533 177.5897,-26.8111"/>
<polygon fill="#191970" stroke="#191970" points="180.7672,-28.2795 181.9519,-17.7511 174.4602,-25.2427 180.7672,-28.2795"/>
</g>
<!-- Node53&#45;&gt;Node2 -->
<g id="edge12" class="edge">
<title>Node53&#45;&gt;Node2</title>
<path fill="none" stroke="#191970" d="M125.348,-216.324C111.9324,-207.9002 91.3413,-194.9709 75.5798,-185.0741"/>
<polygon fill="#191970" stroke="#191970" points="77.2786,-182.0081 66.9485,-179.6545 73.5562,-187.9364 77.2786,-182.0081"/>
</g>
<!-- Node53&#45;&gt;Node6 -->
<g id="edge11" class="edge">
<title>Node53&#45;&gt;Node6</title>
<path fill="none" stroke="#191970" d="M147.2567,-216.083C154.3207,-208.2982 164.7529,-196.8015 173.3143,-187.3665"/>
<polygon fill="#191970" stroke="#191970" points="176.0966,-189.5087 180.2246,-179.7511 170.9127,-184.8047 176.0966,-189.5087"/>
</g>
</g>
</svg>
