<?xml version="1.0" encoding="UTF-8" standalone="no"?>
<!DOCTYPE svg PUBLIC "-//W3C//DTD SVG 1.1//EN"
 "http://www.w3.org/Graphics/SVG/1.1/DTD/svg11.dtd">
<!-- Generated by graphviz version 2.38.0 (20140413.2041)
 -->
<!-- Title: HiggsKvKf Pages: 1 -->
<svg width="356pt" height="215pt"
 viewBox="0.00 0.00 356.00 215.00" xmlns="http://www.w3.org/2000/svg" xmlns:xlink="http://www.w3.org/1999/xlink">
<g id="graph0" class="graph" transform="scale(1 1) rotate(0) translate(4 211)">
<title>HiggsKvKf</title>
<!-- Node1 -->
<g id="node1" class="node"><title>Node1</title>
<polygon fill="#bfbfbf" stroke="black" points="0,-0.5 0,-17.5 54,-17.5 54,-0.5 0,-0.5"/>
<text text-anchor="middle" x="27" y="-7.1" font-family="Helvetica,sans-Serif" font-size="8.00">HiggsKvKf</text>
</g>
<!-- Node2 -->
<g id="node2" class="node"><title>Node2</title>
<g id="a_node2"><a xlink:href="../../d2/df3/class_n_pbase.html" target="_top" xlink:title="The auxiliary base model class for other model classes. ">
<polygon fill="none" stroke="black" points="4.5,-63.5 4.5,-80.5 49.5,-80.5 49.5,-63.5 4.5,-63.5"/>
<text text-anchor="middle" x="27" y="-70.1" font-family="Helvetica,sans-Serif" font-size="8.00">NPbase</text>
</a>
</g>
</g>
<!-- Node2&#45;&gt;Node1 -->
<g id="edge1" class="edge"><title>Node2&#45;&gt;Node1</title>
<path fill="none" stroke="midnightblue" d="M27,-53.2698C27,-41.5485 27,-26.7567 27,-17.8556"/>
<polygon fill="midnightblue" stroke="midnightblue" points="23.5001,-53.2743 27,-63.2743 30.5001,-53.2743 23.5001,-53.2743"/>
</g>
<!-- Node3 -->
<g id="node3" class="node"><title>Node3</title>
<g id="a_node3"><a xlink:href="../../dc/dd5/class_standard_model.html" target="_top" xlink:title="A model class for the Standard Model. ">
<polygon fill="none" stroke="red" points="80.5,-126.5 80.5,-143.5 151.5,-143.5 151.5,-126.5 80.5,-126.5"/>
<text text-anchor="middle" x="116" y="-133.1" font-family="Helvetica,sans-Serif" font-size="8.00">StandardModel</text>
</a>
</g>
</g>
<!-- Node3&#45;&gt;Node2 -->
<g id="edge2" class="edge"><title>Node3&#45;&gt;Node2</title>
<path fill="none" stroke="midnightblue" d="M70.1235,-130.761C54.7184,-127.269 38.9417,-120.581 29,-108 22.887,-100.264 23.7098,-88.303 25.1383,-80.5623"/>
<polygon fill="midnightblue" stroke="midnightblue" points="69.6564,-134.234 80.1282,-132.624 70.9378,-127.352 69.6564,-134.234"/>
</g>
<!-- Node3&#45;&gt;Node2 -->
<g id="edge13" class="edge"><title>Node3&#45;&gt;Node2</title>
<path fill="none" stroke="#9a32cd" stroke-dasharray="5,2" d="M75.2514,-122.956C65.991,-119.202 56.6425,-114.306 49,-108 40.0321,-100.6 33.6042,-88.5498 30.0929,-80.6982"/>
<polygon fill="#9a32cd" stroke="#9a32cd" points="74.2013,-126.299 84.7948,-126.465 76.6172,-119.729 74.2013,-126.299"/>
<text text-anchor="middle" x="63.5" y="-101.6" font-family="Helvetica,sans-Serif" font-size="8.00"> trueSM</text>
</g>
<!-- Node5 -->
<g id="node5" class="node"><title>Node5</title>
<g id="a_node5"><a xlink:href="../../dc/df3/class_e_w_s_mcache.html" target="_top" xlink:title="A class for cache variables used in computing radiative corrections to the EW precision observables...">
<polygon fill="none" stroke="red" points="202.5,-63.5 202.5,-80.5 265.5,-80.5 265.5,-63.5 202.5,-63.5"/>
<text text-anchor="middle" x="234" y="-70.1" font-family="Helvetica,sans-Serif" font-size="8.00">EWSMcache</text>
</a>
</g>
</g>
<!-- Node3&#45;&gt;Node5 -->
<g id="edge5" class="edge"><title>Node3&#45;&gt;Node5</title>
<path fill="none" stroke="#9a32cd" stroke-dasharray="5,2" d="M127.533,-118.511C133.313,-111.686 140.819,-104.081 149,-99 165.255,-88.9033 185.706,-82.4877 202.474,-78.556"/>
<polygon fill="#9a32cd" stroke="#9a32cd" points="124.68,-116.476 121.215,-126.488 130.167,-120.822 124.68,-116.476"/>
<text text-anchor="middle" x="156.5" y="-101.6" font-family="Helvetica,sans-Serif" font-size="8.00"> SM</text>
</g>
<!-- Node4 -->
<g id="node4" class="node"><title>Node4</title>
<g id="a_node4"><a xlink:href="../../dd/dfa/class_q_c_d.html" target="_top" xlink:title="A class for parameters related to QCD, hadrons and quarks. ">
<polygon fill="none" stroke="red" points="20,-189.5 20,-206.5 54,-206.5 54,-189.5 20,-189.5"/>
<text text-anchor="middle" x="37" y="-196.1" font-family="Helvetica,sans-Serif" font-size="8.00">QCD</text>
</a>
</g>
</g>
<!-- Node4&#45;&gt;Node3 -->
<g id="edge3" class="edge"><title>Node4&#45;&gt;Node3</title>
<path fill="none" stroke="midnightblue" d="M55.0161,-183.089C70.847,-170.865 93.295,-153.532 106.076,-143.663"/>
<polygon fill="midnightblue" stroke="midnightblue" points="52.7814,-180.392 47.0054,-189.274 57.0596,-185.933 52.7814,-180.392"/>
</g>
<!-- Node5&#45;&gt;Node3 -->
<g id="edge4" class="edge"><title>Node5&#45;&gt;Node3</title>
<path fill="none" stroke="#9a32cd" stroke-dasharray="5,2" d="M210.137,-85.3361C186.455,-97.5781 150.894,-115.962 130.945,-126.274"/>
<polygon fill="#9a32cd" stroke="#9a32cd" points="211.901,-88.3643 219.177,-80.663 208.686,-82.1461 211.901,-88.3643"/>
<text text-anchor="middle" x="213" y="-101.6" font-family="Helvetica,sans-Serif" font-size="8.00"> myEWSMcache</text>
</g>
<!-- Node7 -->
<g id="node7" class="node"><title>Node7</title>
<g id="a_node7"><a xlink:href="../../d5/dad/class_e_w_s_m_three_loop_e_w.html" target="_top" xlink:title="A class for &#160;three&#45;loop corrections to the EW precision observables. ">
<polygon fill="none" stroke="black" points="239.5,-0.5 239.5,-17.5 332.5,-17.5 332.5,-0.5 239.5,-0.5"/>
<text text-anchor="middle" x="286" y="-7.1" font-family="Helvetica,sans-Serif" font-size="8.00">EWSMThreeLoopEW</text>
</a>
</g>
</g>
<!-- Node5&#45;&gt;Node7 -->
<g id="edge8" class="edge"><title>Node5&#45;&gt;Node7</title>
<path fill="none" stroke="#9a32cd" stroke-dasharray="5,2" d="M247.292,-55.4075C257.527,-43.401 271.246,-27.3072 279.303,-17.8556"/>
<polygon fill="#9a32cd" stroke="#9a32cd" points="244.41,-53.3936 240.586,-63.2743 249.737,-57.9347 244.41,-53.3936"/>
<text text-anchor="middle" x="276" y="-38.6" font-family="Helvetica,sans-Serif" font-size="8.00"> cache</text>
</g>
<!-- Node9 -->
<g id="node9" class="node"><title>Node9</title>
<g id="a_node9"><a xlink:href="../../d5/dde/class_e_w_s_m_approximate_formulae.html" target="_top" xlink:title="A class for approximate formulae of the EW precision observables. ">
<polygon fill="none" stroke="black" points="86,-0.5 86,-17.5 206,-17.5 206,-0.5 86,-0.5"/>
<text text-anchor="middle" x="146" y="-7.1" font-family="Helvetica,sans-Serif" font-size="8.00">EWSMApproximateFormulae</text>
</a>
</g>
</g>
<!-- Node5&#45;&gt;Node9 -->
<g id="edge11" class="edge"><title>Node5&#45;&gt;Node9</title>
<path fill="none" stroke="#9a32cd" stroke-dasharray="5,2" d="M214.419,-57.427C196.761,-45.1866 171.423,-27.6231 157.055,-17.663"/>
<polygon fill="#9a32cd" stroke="#9a32cd" points="212.642,-60.4538 222.855,-63.2743 216.63,-54.7008 212.642,-60.4538"/>
<text text-anchor="middle" x="213.5" y="-38.6" font-family="Helvetica,sans-Serif" font-size="8.00"> mycache</text>
</g>
<!-- Node6 -->
<g id="node6" class="node"><title>Node6</title>
<g id="a_node6"><a xlink:href="../../d9/db9/class_c_k_m.html" target="_top" xlink:title="A class for the CKM matrix elements. ">
<polygon fill="none" stroke="red" points="72,-189.5 72,-206.5 106,-206.5 106,-189.5 72,-189.5"/>
<text text-anchor="middle" x="89" y="-196.1" font-family="Helvetica,sans-Serif" font-size="8.00">CKM</text>
</a>
</g>
</g>
<!-- Node6&#45;&gt;Node3 -->
<g id="edge6" class="edge"><title>Node6&#45;&gt;Node3</title>
<path fill="none" stroke="#9a32cd" stroke-dasharray="5,2" d="M88.2786,-179.402C88.6184,-173.654 89.63,-167.372 92,-162 95.1736,-154.806 101.174,-148.306 106.38,-143.604"/>
<polygon fill="#9a32cd" stroke="#9a32cd" points="84.7787,-179.413 88.2725,-189.416 91.7787,-179.418 84.7787,-179.413"/>
<text text-anchor="middle" x="107.5" y="-164.6" font-family="Helvetica,sans-Serif" font-size="8.00"> myCKM</text>
</g>
<!-- Node7&#45;&gt;Node3 -->
<g id="edge7" class="edge"><title>Node7&#45;&gt;Node3</title>
<path fill="none" stroke="#9a32cd" stroke-dasharray="5,2" d="M288.674,-27.8C289.065,-33.346 289.039,-39.4592 288,-45 281.84,-77.8345 276.466,-92.2581 247,-108 217.244,-123.897 178.995,-130.122 151.519,-132.535"/>
<polygon fill="#9a32cd" stroke="#9a32cd" points="292.117,-27.1033 287.478,-17.5776 285.164,-27.9165 292.117,-27.1033"/>
<text text-anchor="middle" x="315.5" y="-70.1" font-family="Helvetica,sans-Serif" font-size="8.00"> myThreeLoopEW</text>
</g>
<!-- Node8 -->
<g id="node8" class="node"><title>Node8</title>
<g id="a_node8"><a xlink:href="../../d4/d6d/class_flavour.html" target="_top" xlink:title="The parent class in Flavour for calculating all the Wilson coefficients for various Flavor Violating ...">
<polygon fill="none" stroke="red" points="124.5,-189.5 124.5,-206.5 167.5,-206.5 167.5,-189.5 124.5,-189.5"/>
<text text-anchor="middle" x="146" y="-196.1" font-family="Helvetica,sans-Serif" font-size="8.00">Flavour</text>
</a>
</g>
</g>
<!-- Node8&#45;&gt;Node3 -->
<g id="edge9" class="edge"><title>Node8&#45;&gt;Node3</title>
<path fill="none" stroke="#9a32cd" stroke-dasharray="5,2" d="M137.635,-179.991C131.817,-168.161 124.331,-152.94 119.863,-143.856"/>
<polygon fill="#9a32cd" stroke="#9a32cd" points="134.647,-181.845 142.2,-189.274 140.928,-178.756 134.647,-181.845"/>
<text text-anchor="middle" x="153" y="-164.6" font-family="Helvetica,sans-Serif" font-size="8.00"> myFlavour</text>
</g>
<!-- Node9&#45;&gt;Node3 -->
<g id="edge10" class="edge"><title>Node9&#45;&gt;Node3</title>
<path fill="none" stroke="#9a32cd" stroke-dasharray="5,2" d="M128.55,-24.6073C118.386,-34.3038 106.516,-47.9798 101,-63 92.8345,-85.2331 104.752,-113.102 111.659,-126.339"/>
<polygon fill="#9a32cd" stroke="#9a32cd" points="131.093,-27.0273 136.182,-17.7345 126.409,-21.8257 131.093,-27.0273"/>
<text text-anchor="middle" x="147" y="-70.1" font-family="Helvetica,sans-Serif" font-size="8.00"> myApproximateFormulae</text>
</g>
<!-- Node10 -->
<g id="node10" class="node"><title>Node10</title>
<g id="a_node10"><a xlink:href="../../de/d85/class_particle.html" target="_top" xlink:title="A class for particles. ">
<polygon fill="none" stroke="black" points="186.5,-189.5 186.5,-206.5 229.5,-206.5 229.5,-189.5 186.5,-189.5"/>
<text text-anchor="middle" x="208" y="-196.1" font-family="Helvetica,sans-Serif" font-size="8.00">Particle</text>
</a>
</g>
</g>
<!-- Node10&#45;&gt;Node3 -->
<g id="edge12" class="edge"><title>Node10&#45;&gt;Node3</title>
<path fill="none" stroke="#9a32cd" stroke-dasharray="5,2" d="M196.52,-181.17C191.155,-174.596 184.335,-167.285 177,-162 165.979,-154.058 152.158,-147.914 140.459,-143.597"/>
<polygon fill="#9a32cd" stroke="#9a32cd" points="193.983,-183.613 202.846,-189.418 199.537,-179.353 193.983,-183.613"/>
<text text-anchor="middle" x="201.5" y="-164.6" font-family="Helvetica,sans-Serif" font-size="8.00"> leptons</text>
</g>
</g>
</svg>
