<?xml version="1.0" encoding="UTF-8" standalone="no"?>
<!DOCTYPE svg PUBLIC "-//W3C//DTD SVG 1.1//EN"
 "http://www.w3.org/Graphics/SVG/1.1/DTD/svg11.dtd">
<!-- Generated by graphviz version 2.40.1 (20161225.0304)
 -->
<!-- Title: THDMcache Pages: 1 -->
<svg width="477pt" height="449pt"
 viewBox="0.00 0.00 477.29 449.00" xmlns="http://www.w3.org/2000/svg" xmlns:xlink="http://www.w3.org/1999/xlink">
<g id="graph0" class="graph" transform="scale(1 1) rotate(0) translate(4 445)">
<title>THDMcache</title>
<!-- Node1 -->
<g id="node1" class="node">
<title>Node1</title>
<polygon fill="#bfbfbf" stroke="#000000" points="237.7921,-189.5 237.7921,-206.5 298.7921,-206.5 298.7921,-189.5 237.7921,-189.5"/>
<text text-anchor="middle" x="268.2921" y="-196.1" font-family="Helvetica,sans-Serif" font-size="8.00" fill="#000000">THDMcache</text>
</g>
<!-- Node47 -->
<g id="node3" class="node">
<title>Node47</title>
<g id="a_node3"><a xlink:href="../../d0/d52/class_t_h_d_m.html" target="_top" xlink:title="A base class for &#160;symmetric Two&#45;Higgs&#45;Doublet models. ">
<polygon fill="none" stroke="#ff0000" points="153.2921,-126.5 153.2921,-143.5 193.2921,-143.5 193.2921,-126.5 153.2921,-126.5"/>
<text text-anchor="middle" x="173.2921" y="-133.1" font-family="Helvetica,sans-Serif" font-size="8.00" fill="#000000">THDM</text>
</a>
</g>
</g>
<!-- Node1&#45;&gt;Node47 -->
<g id="edge3" class="edge">
<title>Node1&#45;&gt;Node47</title>
<path fill="none" stroke="#9a32cd" stroke-dasharray="5,2" d="M227.5901,-192.718C201.5933,-188.4138 171.3104,-181.341 163.2921,-171 157.0914,-163.0032 162.1612,-151.3843 167.0681,-143.5273"/>
<polygon fill="#9a32cd" stroke="#9a32cd" points="227.2343,-196.2047 237.6541,-194.2868 228.3125,-189.2882 227.2343,-196.2047"/>
<text text-anchor="middle" x="192.2921" y="-164.6" font-family="Helvetica,sans-Serif" font-size="8.00" fill="#000000"> myTHDMcache</text>
</g>
<!-- Node2 -->
<g id="node2" class="node">
<title>Node2</title>
<g id="a_node2"><a xlink:href="../../df/d51/classlambda4.html" target="_top" xlink:title="An observable class for the quartic Higgs potential coupling . ">
<polygon fill="none" stroke="#ff0000" points="1.7921,-63.5 1.7921,-80.5 48.7921,-80.5 48.7921,-63.5 1.7921,-63.5"/>
<text text-anchor="middle" x="25.2921" y="-70.1" font-family="Helvetica,sans-Serif" font-size="8.00" fill="#000000">lambda4</text>
</a>
</g>
</g>
<!-- Node2&#45;&gt;Node1 -->
<g id="edge1" class="edge">
<title>Node2&#45;&gt;Node1</title>
<path fill="none" stroke="#9a32cd" stroke-dasharray="5,2" d="M13.0413,-89.2568C3.4767,-105.0448 -6.2671,-128.272 6.2921,-144 34.8369,-179.747 174.6002,-192.4547 237.5061,-196.4135"/>
<polygon fill="#9a32cd" stroke="#9a32cd" points="16.2132,-90.8025 18.7724,-80.5214 10.3604,-86.9625 16.2132,-90.8025"/>
<text text-anchor="middle" x="28.2921" y="-133.1" font-family="Helvetica,sans-Serif" font-size="8.00" fill="#000000"> mylambda4</text>
</g>
<!-- Node53 -->
<g id="node9" class="node">
<title>Node53</title>
<g id="a_node9"><a xlink:href="../../da/df0/class_runner.html" target="_top" xlink:title="An RGE running algorithm. ">
<polygon fill="none" stroke="#ff0000" points="202.7921,-.5 202.7921,-17.5 245.7921,-17.5 245.7921,-.5 202.7921,-.5"/>
<text text-anchor="middle" x="224.2921" y="-7.1" font-family="Helvetica,sans-Serif" font-size="8.00" fill="#000000">Runner</text>
</a>
</g>
</g>
<!-- Node2&#45;&gt;Node53 -->
<g id="edge13" class="edge">
<title>Node2&#45;&gt;Node53</title>
<path fill="none" stroke="#9a32cd" stroke-dasharray="5,2" d="M29.4558,-53.7341C31.8537,-47.1801 35.573,-40.3434 41.2921,-36 66.2918,-17.0137 159.833,-11.2797 202.6495,-9.63"/>
<polygon fill="#9a32cd" stroke="#9a32cd" points="26.0758,-52.8239 26.678,-63.4016 32.8036,-54.7571 26.0758,-52.8239"/>
<text text-anchor="middle" x="63.2921" y="-38.6" font-family="Helvetica,sans-Serif" font-size="8.00" fill="#000000"> mylambda4</text>
</g>
<!-- Node47&#45;&gt;Node1 -->
<g id="edge21" class="edge">
<title>Node47&#45;&gt;Node1</title>
<path fill="none" stroke="#9a32cd" stroke-dasharray="5,2" d="M198.9532,-148.5546C206.295,-152.6672 214.2207,-157.3366 221.2921,-162 234.3343,-170.6011 248.4582,-181.6798 257.7814,-189.2617"/>
<polygon fill="#9a32cd" stroke="#9a32cd" points="200.5252,-145.425 190.0742,-143.6854 197.1593,-151.5626 200.5252,-145.425"/>
<text text-anchor="middle" x="251.2921" y="-164.6" font-family="Helvetica,sans-Serif" font-size="8.00" fill="#000000"> myTHDM</text>
</g>
<!-- Node47&#45;&gt;Node2 -->
<g id="edge2" class="edge">
<title>Node47&#45;&gt;Node2</title>
<path fill="none" stroke="#9a32cd" stroke-dasharray="5,2" d="M142.9604,-130.2085C113.3369,-125.1396 70.6747,-116.6869 56.2921,-108 44.9959,-101.1773 35.7106,-88.8205 30.3351,-80.5123"/>
<polygon fill="#9a32cd" stroke="#9a32cd" points="142.7683,-133.7247 153.2078,-131.9171 143.9196,-126.8201 142.7683,-133.7247"/>
<text text-anchor="middle" x="74.2921" y="-101.6" font-family="Helvetica,sans-Serif" font-size="8.00" fill="#000000"> myTHDM</text>
</g>
<!-- Node50 -->
<g id="node4" class="node">
<title>Node50</title>
<g id="a_node4"><a xlink:href="../../d4/d9f/classlambda5.html" target="_top" xlink:title="An observable class for the quartic Higgs potential coupling . ">
<polygon fill="none" stroke="#ff0000" points="67.7921,-63.5 67.7921,-80.5 114.7921,-80.5 114.7921,-63.5 67.7921,-63.5"/>
<text text-anchor="middle" x="91.2921" y="-70.1" font-family="Helvetica,sans-Serif" font-size="8.00" fill="#000000">lambda5</text>
</a>
</g>
</g>
<!-- Node47&#45;&gt;Node50 -->
<g id="edge5" class="edge">
<title>Node47&#45;&gt;Node50</title>
<path fill="none" stroke="#9a32cd" stroke-dasharray="5,2" d="M143.0455,-130.2293C128.5804,-126.4739 112.1026,-119.8042 101.2921,-108 94.4577,-100.5375 92.2394,-88.8017 91.5491,-80.7719"/>
<polygon fill="#9a32cd" stroke="#9a32cd" points="142.59,-133.7139 153.1128,-132.4805 144.1177,-126.8826 142.59,-133.7139"/>
<text text-anchor="middle" x="119.2921" y="-101.6" font-family="Helvetica,sans-Serif" font-size="8.00" fill="#000000"> myTHDM</text>
</g>
<!-- Node51 -->
<g id="node6" class="node">
<title>Node51</title>
<g id="a_node6"><a xlink:href="../../de/d6f/classm22__2.html" target="_top" xlink:title="An observable class for the quadratic Higgs potential coupling . ">
<polygon fill="none" stroke="#ff0000" points="205.7921,-63.5 205.7921,-80.5 246.7921,-80.5 246.7921,-63.5 205.7921,-63.5"/>
<text text-anchor="middle" x="226.2921" y="-70.1" font-family="Helvetica,sans-Serif" font-size="8.00" fill="#000000">m22_2</text>
</a>
</g>
</g>
<!-- Node47&#45;&gt;Node51 -->
<g id="edge8" class="edge">
<title>Node47&#45;&gt;Node51</title>
<path fill="none" stroke="#9a32cd" stroke-dasharray="5,2" d="M176.9657,-116.3143C178.7743,-110.3645 181.4289,-104.0284 185.2921,-99 191.2114,-91.2953 199.9893,-85.0984 207.906,-80.5943"/>
<polygon fill="#9a32cd" stroke="#9a32cd" points="173.5139,-115.6961 174.5453,-126.2406 180.3147,-117.3544 173.5139,-115.6961"/>
<text text-anchor="middle" x="203.2921" y="-101.6" font-family="Helvetica,sans-Serif" font-size="8.00" fill="#000000"> myTHDM</text>
</g>
<!-- Node52 -->
<g id="node7" class="node">
<title>Node52</title>
<g id="a_node7"><a xlink:href="../../d4/df4/classm11__2.html" target="_top" xlink:title="An observable class for the quadratic Higgs potential coupling . ">
<polygon fill="none" stroke="#ff0000" points="331.7921,-63.5 331.7921,-80.5 372.7921,-80.5 372.7921,-63.5 331.7921,-63.5"/>
<text text-anchor="middle" x="352.2921" y="-70.1" font-family="Helvetica,sans-Serif" font-size="8.00" fill="#000000">m11_2</text>
</a>
</g>
</g>
<!-- Node47&#45;&gt;Node52 -->
<g id="edge10" class="edge">
<title>Node47&#45;&gt;Node52</title>
<path fill="none" stroke="#9a32cd" stroke-dasharray="5,2" d="M203.4511,-128.9365C224.707,-124.256 253.6575,-117.0547 278.2921,-108 299.3453,-100.2616 322.4078,-88.4748 337.0967,-80.5156"/>
<polygon fill="#9a32cd" stroke="#9a32cd" points="202.44,-125.5736 193.3944,-131.0897 203.9056,-132.4185 202.44,-125.5736"/>
<text text-anchor="middle" x="316.2921" y="-101.6" font-family="Helvetica,sans-Serif" font-size="8.00" fill="#000000"> myTHDM</text>
</g>
<!-- Node47&#45;&gt;Node53 -->
<g id="edge19" class="edge">
<title>Node47&#45;&gt;Node53</title>
<path fill="none" stroke="#9a32cd" stroke-dasharray="5,2" d="M164.2597,-116.9265C158.0677,-101.8835 152.2901,-80.2214 160.2921,-63 169.9711,-42.1692 192.0815,-26.4817 207.5913,-17.5236"/>
<polygon fill="#9a32cd" stroke="#9a32cd" points="161.1259,-118.4904 168.4484,-126.1475 167.4991,-115.5953 161.1259,-118.4904"/>
<text text-anchor="middle" x="178.2921" y="-70.1" font-family="Helvetica,sans-Serif" font-size="8.00" fill="#000000"> myTHDM</text>
</g>
<!-- Node54 -->
<g id="node10" class="node">
<title>Node54</title>
<g id="a_node10"><a xlink:href="../../d2/ded/classlambda1.html" target="_top" xlink:title="An observable class for the quartic Higgs potential coupling . ">
<polygon fill="none" stroke="#ff0000" points="264.7921,-63.5 264.7921,-80.5 311.7921,-80.5 311.7921,-63.5 264.7921,-63.5"/>
<text text-anchor="middle" x="288.2921" y="-70.1" font-family="Helvetica,sans-Serif" font-size="8.00" fill="#000000">lambda1</text>
</a>
</g>
</g>
<!-- Node47&#45;&gt;Node54 -->
<g id="edge18" class="edge">
<title>Node47&#45;&gt;Node54</title>
<path fill="none" stroke="#9a32cd" stroke-dasharray="5,2" d="M198.2653,-121.319C220.8029,-108.9723 253.2756,-91.1829 272.4376,-80.6855"/>
<polygon fill="#9a32cd" stroke="#9a32cd" points="196.3709,-118.366 189.2823,-126.2401 199.7341,-124.5051 196.3709,-118.366"/>
<text text-anchor="middle" x="256.2921" y="-101.6" font-family="Helvetica,sans-Serif" font-size="8.00" fill="#000000"> myTHDM</text>
</g>
<!-- Node50&#45;&gt;Node1 -->
<g id="edge4" class="edge">
<title>Node50&#45;&gt;Node1</title>
<path fill="none" stroke="#9a32cd" stroke-dasharray="5,2" d="M58.0763,-82.4661C45.3045,-88.4432 35.0991,-96.9664 41.2921,-108 70.0077,-159.1604 101.9918,-151.4077 157.2921,-171 183.8378,-180.4049 215.0866,-187.6835 237.6535,-192.3011"/>
<polygon fill="#9a32cd" stroke="#9a32cd" points="59.697,-85.5849 67.6319,-78.5643 57.0508,-79.1043 59.697,-85.5849"/>
<text text-anchor="middle" x="95.2921" y="-133.1" font-family="Helvetica,sans-Serif" font-size="8.00" fill="#000000"> mylambda5</text>
</g>
<!-- Node50&#45;&gt;Node53 -->
<g id="edge14" class="edge">
<title>Node50&#45;&gt;Node53</title>
<path fill="none" stroke="#9a32cd" stroke-dasharray="5,2" d="M88.0597,-53.0039C88.0671,-46.9457 89.3068,-40.6224 93.2921,-36 107.2799,-19.776 169.1487,-12.9132 202.6171,-10.3453"/>
<polygon fill="#9a32cd" stroke="#9a32cd" points="84.5994,-53.583 89.0503,-63.1976 91.5665,-52.9059 84.5994,-53.583"/>
<text text-anchor="middle" x="115.2921" y="-38.6" font-family="Helvetica,sans-Serif" font-size="8.00" fill="#000000"> mylambda5</text>
</g>
<!-- Node10 -->
<g id="node5" class="node">
<title>Node10</title>
<g id="a_node5"><a xlink:href="../../d4/d7b/class_p_vfunctions.html" target="_top" xlink:title="A class for Passarino&#45;Veltman functions. ">
<polygon fill="none" stroke="#ff0000" points="197.7921,-423.5 197.7921,-440.5 256.7921,-440.5 256.7921,-423.5 197.7921,-423.5"/>
<text text-anchor="middle" x="227.2921" y="-430.1" font-family="Helvetica,sans-Serif" font-size="8.00" fill="#000000">PVfunctions</text>
</a>
</g>
</g>
<!-- Node10&#45;&gt;Node1 -->
<g id="edge6" class="edge">
<title>Node10&#45;&gt;Node1</title>
<path fill="none" stroke="#9a32cd" stroke-dasharray="5,2" d="M230.5726,-413.2766C238.9141,-365.6695 260.6994,-241.3338 266.7267,-206.9339"/>
<polygon fill="#9a32cd" stroke="#9a32cd" points="227.0783,-412.9403 228.7999,-423.3943 233.9733,-414.1484 227.0783,-412.9403"/>
<text text-anchor="middle" x="269.7921" y="-313.1" font-family="Helvetica,sans-Serif" font-size="8.00" fill="#000000"> PV</text>
</g>
<!-- Node51&#45;&gt;Node1 -->
<g id="edge7" class="edge">
<title>Node51&#45;&gt;Node1</title>
<path fill="none" stroke="#9a32cd" stroke-dasharray="5,2" d="M256.1438,-84.247C266.1573,-89.0066 275.5019,-94.4074 278.2921,-99 295.9621,-128.0848 280.5151,-171.0319 272.4564,-189.283"/>
<polygon fill="#9a32cd" stroke="#9a32cd" points="257.4839,-81.012 246.9285,-80.0978 254.6099,-87.3948 257.4839,-81.012"/>
<text text-anchor="middle" x="305.2921" y="-133.1" font-family="Helvetica,sans-Serif" font-size="8.00" fill="#000000"> mym22_2</text>
</g>
<!-- Node51&#45;&gt;Node53 -->
<g id="edge15" class="edge">
<title>Node51&#45;&gt;Node53</title>
<path fill="none" stroke="#9a32cd" stroke-dasharray="5,2" d="M225.5796,-53.3732C225.4788,-50.5674 225.3798,-47.7075 225.2921,-45 224.9883,-35.6263 224.6972,-24.8778 224.5082,-17.5838"/>
<polygon fill="#9a32cd" stroke="#9a32cd" points="222.0865,-53.6258 225.9566,-63.4884 229.0817,-53.365 222.0865,-53.6258"/>
<text text-anchor="middle" x="244.2921" y="-38.6" font-family="Helvetica,sans-Serif" font-size="8.00" fill="#000000"> mym22_2</text>
</g>
<!-- Node52&#45;&gt;Node1 -->
<g id="edge9" class="edge">
<title>Node52&#45;&gt;Node1</title>
<path fill="none" stroke="#9a32cd" stroke-dasharray="5,2" d="M370.7526,-87.62C385.9725,-102.4546 403.2663,-125.2176 391.2921,-144 371.2955,-175.3658 328.4695,-188.609 299.0241,-194.1362"/>
<polygon fill="#9a32cd" stroke="#9a32cd" points="372.8847,-84.8265 363.1485,-80.6482 368.1541,-89.9861 372.8847,-84.8265"/>
<text text-anchor="middle" x="413.2921" y="-133.1" font-family="Helvetica,sans-Serif" font-size="8.00" fill="#000000"> mym11_2</text>
</g>
<!-- Node52&#45;&gt;Node53 -->
<g id="edge16" class="edge">
<title>Node52&#45;&gt;Node53</title>
<path fill="none" stroke="#9a32cd" stroke-dasharray="5,2" d="M340.2469,-55.209C334.5812,-48.3792 327.3079,-40.9464 319.2921,-36 296.529,-21.9535 266.2313,-15 246.0346,-11.711"/>
<polygon fill="#9a32cd" stroke="#9a32cd" points="337.6165,-57.5293 346.4986,-63.305 343.157,-53.251 337.6165,-57.5293"/>
<text text-anchor="middle" x="348.2921" y="-38.6" font-family="Helvetica,sans-Serif" font-size="8.00" fill="#000000"> mym11_2</text>
</g>
<!-- Node23 -->
<g id="node8" class="node">
<title>Node23</title>
<g id="a_node8"><a xlink:href="../../dd/d9b/classgslpp_1_1complex.html" target="_top" xlink:title="A class for defining operations on and functions of complex numbers. ">
<polygon fill="none" stroke="#000000" points="275.2921,-423.5 275.2921,-440.5 345.2921,-440.5 345.2921,-423.5 275.2921,-423.5"/>
<text text-anchor="middle" x="310.2921" y="-430.1" font-family="Helvetica,sans-Serif" font-size="8.00" fill="#000000">gslpp::complex</text>
</a>
</g>
</g>
<!-- Node23&#45;&gt;Node1 -->
<g id="edge11" class="edge">
<title>Node23&#45;&gt;Node1</title>
<path fill="none" stroke="#9a32cd" stroke-dasharray="5,2" d="M309.2715,-412.8532C306.9192,-375.8822 299.7428,-292.3692 280.2921,-225 278.4708,-218.6918 275.4708,-211.9418 272.9261,-206.7688"/>
<polygon fill="#9a32cd" stroke="#9a32cd" points="305.7954,-413.364 309.8752,-423.1418 312.7833,-412.954 305.7954,-413.364"/>
<text text-anchor="middle" x="354.7921" y="-398.6" font-family="Helvetica,sans-Serif" font-size="8.00" fill="#000000"> I_A_D_cache</text>
<text text-anchor="start" x="308.2921" y="-389.6" font-family="Helvetica,sans-Serif" font-size="8.00" fill="#000000">B00_MZ2_MZ2_mHl2</text>
<text text-anchor="middle" x="354.7921" y="-380.6" font-family="Helvetica,sans-Serif" font-size="8.00" fill="#000000">_mA2_cache</text>
<text text-anchor="start" x="308.2921" y="-371.6" font-family="Helvetica,sans-Serif" font-size="8.00" fill="#000000">B00_MZ2_MW2_MW2</text>
<text text-anchor="middle" x="354.7921" y="-362.6" font-family="Helvetica,sans-Serif" font-size="8.00" fill="#000000">_mHl2_cache</text>
<text text-anchor="start" x="308.2921" y="-353.6" font-family="Helvetica,sans-Serif" font-size="8.00" fill="#000000">B00_MZ2_0_MW2_mHl2</text>
<text text-anchor="middle" x="354.7921" y="-344.6" font-family="Helvetica,sans-Serif" font-size="8.00" fill="#000000">_cache</text>
<text text-anchor="start" x="308.2921" y="-335.6" font-family="Helvetica,sans-Serif" font-size="8.00" fill="#000000">B00_MZ2_0_mHl2</text>
<text text-anchor="middle" x="354.7921" y="-326.6" font-family="Helvetica,sans-Serif" font-size="8.00" fill="#000000">_mHp2_cache</text>
<text text-anchor="start" x="308.2921" y="-317.6" font-family="Helvetica,sans-Serif" font-size="8.00" fill="#000000">B0p_MZ2_mHh2_mHh2</text>
<text text-anchor="middle" x="354.7921" y="-308.6" font-family="Helvetica,sans-Serif" font-size="8.00" fill="#000000">_mHl2_cache</text>
<text text-anchor="start" x="308.2921" y="-299.6" font-family="Helvetica,sans-Serif" font-size="8.00" fill="#000000">B0p_MZ2_mHl2_0_mHp2</text>
<text text-anchor="middle" x="354.7921" y="-290.6" font-family="Helvetica,sans-Serif" font-size="8.00" fill="#000000">_cache</text>
<text text-anchor="start" x="308.2921" y="-281.6" font-family="Helvetica,sans-Serif" font-size="8.00" fill="#000000">B0_MZ2_mHp2_0_mHl2</text>
<text text-anchor="middle" x="354.7921" y="-272.6" font-family="Helvetica,sans-Serif" font-size="8.00" fill="#000000">_cache</text>
<text text-anchor="start" x="308.2921" y="-263.6" font-family="Helvetica,sans-Serif" font-size="8.00" fill="#000000">B0_MZ2_0_MZ2_mHl2</text>
<text text-anchor="middle" x="354.7921" y="-254.6" font-family="Helvetica,sans-Serif" font-size="8.00" fill="#000000">_cache</text>
<text text-anchor="start" x="308.2921" y="-245.6" font-family="Helvetica,sans-Serif" font-size="8.00" fill="#000000">B0_MZ2_mA2_0_mHl2</text>
<text text-anchor="middle" x="354.7921" y="-236.6" font-family="Helvetica,sans-Serif" font-size="8.00" fill="#000000">_cache</text>
<text text-anchor="middle" x="354.7921" y="-227.6" font-family="Helvetica,sans-Serif" font-size="8.00" fill="#000000">...</text>
</g>
<!-- Node53&#45;&gt;Node1 -->
<g id="edge12" class="edge">
<title>Node53&#45;&gt;Node1</title>
<path fill="none" stroke="#9a32cd" stroke-dasharray="5,2" d="M256.1716,-12.0586C293.488,-16.1166 352.5745,-24.1741 371.2921,-36 413.0053,-62.3548 421.1112,-79.052 436.2921,-126 438.7534,-133.6119 440.4723,-137.179 436.2921,-144 421.7644,-167.705 343.3898,-184.9406 299.0037,-192.9647"/>
<polygon fill="#9a32cd" stroke="#9a32cd" points="256.1273,-8.5349 245.817,-10.974 255.398,-15.4968 256.1273,-8.5349"/>
<text text-anchor="middle" x="449.2921" y="-101.6" font-family="Helvetica,sans-Serif" font-size="8.00" fill="#000000"> myRunner</text>
</g>
<!-- Node54&#45;&gt;Node1 -->
<g id="edge20" class="edge">
<title>Node54&#45;&gt;Node1</title>
<path fill="none" stroke="#9a32cd" stroke-dasharray="5,2" d="M321.2045,-83.265C327.9998,-87.1651 334.2964,-92.3014 338.2921,-99 348.5477,-116.1934 344.6293,-125.7989 336.2921,-144 326.561,-165.2439 303.6854,-180.5588 287.1498,-189.3364"/>
<polygon fill="#9a32cd" stroke="#9a32cd" points="322.3211,-79.9157 311.7983,-78.6823 319.2552,-86.2086 322.3211,-79.9157"/>
<text text-anchor="middle" x="365.2921" y="-133.1" font-family="Helvetica,sans-Serif" font-size="8.00" fill="#000000"> mylambda1</text>
</g>
<!-- Node54&#45;&gt;Node53 -->
<g id="edge17" class="edge">
<title>Node54&#45;&gt;Node53</title>
<path fill="none" stroke="#9a32cd" stroke-dasharray="5,2" d="M278.1761,-54.8137C274.0149,-48.5102 268.8633,-41.5632 263.2921,-36 256.1828,-28.901 246.9922,-22.4362 239.3186,-17.6134"/>
<polygon fill="#9a32cd" stroke="#9a32cd" points="275.2379,-56.7167 283.4974,-63.3524 281.1787,-53.0144 275.2379,-56.7167"/>
<text text-anchor="middle" x="293.2921" y="-38.6" font-family="Helvetica,sans-Serif" font-size="8.00" fill="#000000"> mylambda1</text>
</g>
</g>
</svg>
