<?xml version="1.0" encoding="UTF-8" standalone="no"?>
<!DOCTYPE svg PUBLIC "-//W3C//DTD SVG 1.1//EN"
 "http://www.w3.org/Graphics/SVG/1.1/DTD/svg11.dtd">
<!-- Generated by graphviz version 2.40.1 (20161225.0304)
 -->
<!-- Title: Charm_Kpnunu.cpp Pages: 1 -->
<svg width="572pt" height="134pt"
 viewBox="0.00 0.00 571.50 134.00" xmlns="http://www.w3.org/2000/svg" xmlns:xlink="http://www.w3.org/1999/xlink">
<g id="graph0" class="graph" transform="scale(1 1) rotate(0) translate(4 130)">
<title>Charm_Kpnunu.cpp</title>
<!-- Node0 -->
<g id="node1" class="node">
<title>Node0</title>
<polygon fill="#bfbfbf" stroke="#000000" points="258.5,-108.5 258.5,-125.5 346.5,-125.5 346.5,-108.5 258.5,-108.5"/>
<text text-anchor="middle" x="302.5" y="-115.1" font-family="Helvetica,sans-Serif" font-size="8.00" fill="#000000">Charm_Kpnunu.cpp</text>
</g>
<!-- Node1 -->
<g id="node2" class="node">
<title>Node1</title>
<g id="a_node2"><a xlink:href="../../db/d33/_charm___kpnunu_8h.html" target="_top" xlink:title="Charm_Kpnunu.h">
<polygon fill="none" stroke="#000000" points="215,-54.5 215,-71.5 294,-71.5 294,-54.5 215,-54.5"/>
<text text-anchor="middle" x="254.5" y="-61.1" font-family="Helvetica,sans-Serif" font-size="8.00" fill="#000000">Charm_Kpnunu.h</text>
</a>
</g>
</g>
<!-- Node0&#45;&gt;Node1 -->
<g id="edge1" class="edge">
<title>Node0&#45;&gt;Node1</title>
<path fill="none" stroke="#191970" d="M294.5738,-108.083C287.6539,-100.2982 277.4346,-88.8015 269.048,-79.3665"/>
<polygon fill="#191970" stroke="#191970" points="271.5383,-76.8999 262.2787,-71.7511 266.3065,-81.5505 271.5383,-76.8999"/>
</g>
<!-- Node23 -->
<g id="node9" class="node">
<title>Node23</title>
<g id="a_node9"><a xlink:href="../../d6/d0a/_standard_model_8h.html" target="_top" xlink:title="StandardModel.h">
<polygon fill="none" stroke="#ff0000" points="406,-54.5 406,-71.5 483,-71.5 483,-54.5 406,-54.5"/>
<text text-anchor="middle" x="444.5" y="-61.1" font-family="Helvetica,sans-Serif" font-size="8.00" fill="#000000">StandardModel.h</text>
</a>
</g>
</g>
<!-- Node0&#45;&gt;Node23 -->
<g id="edge8" class="edge">
<title>Node0&#45;&gt;Node23</title>
<path fill="none" stroke="#191970" d="M325.0003,-108.4435C348.5774,-99.4776 385.8224,-85.314 412.464,-75.1827"/>
<polygon fill="#191970" stroke="#191970" points="414.0021,-78.3424 422.1049,-71.5164 411.5139,-71.7995 414.0021,-78.3424"/>
</g>
<!-- Node2 -->
<g id="node3" class="node">
<title>Node2</title>
<g id="a_node3"><a xlink:href="../../d4/d36/_order_scheme_8h.html" target="_top" xlink:title="OrderScheme.h">
<polygon fill="none" stroke="#000000" points="0,-.5 0,-17.5 73,-17.5 73,-.5 0,-.5"/>
<text text-anchor="middle" x="36.5" y="-7.1" font-family="Helvetica,sans-Serif" font-size="8.00" fill="#000000">OrderScheme.h</text>
</a>
</g>
</g>
<!-- Node1&#45;&gt;Node2 -->
<g id="edge2" class="edge">
<title>Node1&#45;&gt;Node2</title>
<path fill="none" stroke="#191970" d="M219.9573,-54.4435C182.2466,-45.1024 121.7599,-30.1194 80.6351,-19.9326"/>
<polygon fill="#191970" stroke="#191970" points="81.4293,-16.5236 70.8811,-17.5164 79.7462,-23.3182 81.4293,-16.5236"/>
</g>
<!-- Node3 -->
<g id="node4" class="node">
<title>Node3</title>
<g id="a_node4"><a xlink:href="../../d9/d72/gslpp_8h.html" target="_top" xlink:title="gslpp.h">
<polygon fill="none" stroke="#ff0000" points="91.5,-.5 91.5,-17.5 133.5,-17.5 133.5,-.5 91.5,-.5"/>
<text text-anchor="middle" x="112.5" y="-7.1" font-family="Helvetica,sans-Serif" font-size="8.00" fill="#000000">gslpp.h</text>
</a>
</g>
</g>
<!-- Node1&#45;&gt;Node3 -->
<g id="edge3" class="edge">
<title>Node1&#45;&gt;Node3</title>
<path fill="none" stroke="#191970" d="M231.9997,-54.4435C208.0065,-45.3194 169.8588,-30.8125 143.1356,-20.6501"/>
<polygon fill="#191970" stroke="#191970" points="144.0974,-17.2714 133.5063,-16.9883 141.6092,-23.8143 144.0974,-17.2714"/>
</g>
<!-- Node19 -->
<g id="node5" class="node">
<title>Node19</title>
<polygon fill="none" stroke="#bfbfbf" points="152,-.5 152,-17.5 197,-17.5 197,-.5 152,-.5"/>
<text text-anchor="middle" x="174.5" y="-7.1" font-family="Helvetica,sans-Serif" font-size="8.00" fill="#000000">sstream</text>
</g>
<!-- Node1&#45;&gt;Node19 -->
<g id="edge4" class="edge">
<title>Node1&#45;&gt;Node19</title>
<path fill="none" stroke="#191970" d="M241.6466,-54.324C229.2836,-45.979 210.3699,-33.2122 195.7628,-23.3524"/>
<polygon fill="#191970" stroke="#191970" points="197.5682,-20.3483 187.3215,-17.6545 193.6518,-26.1503 197.5682,-20.3483"/>
</g>
<!-- Node20 -->
<g id="node6" class="node">
<title>Node20</title>
<polygon fill="none" stroke="#bfbfbf" points="215.5,-.5 215.5,-17.5 293.5,-17.5 293.5,-.5 215.5,-.5"/>
<text text-anchor="middle" x="254.5" y="-7.1" font-family="Helvetica,sans-Serif" font-size="8.00" fill="#000000">gsl/gsl_sf_dilog.h</text>
</g>
<!-- Node1&#45;&gt;Node20 -->
<g id="edge5" class="edge">
<title>Node1&#45;&gt;Node20</title>
<path fill="none" stroke="#191970" d="M254.5,-54.083C254.5,-47.0059 254.5,-36.8611 254.5,-27.9865"/>
<polygon fill="#191970" stroke="#191970" points="258.0001,-27.751 254.5,-17.7511 251.0001,-27.7511 258.0001,-27.751"/>
</g>
<!-- Node21 -->
<g id="node7" class="node">
<title>Node21</title>
<polygon fill="none" stroke="#bfbfbf" points="311.5,-.5 311.5,-17.5 387.5,-17.5 387.5,-.5 311.5,-.5"/>
<text text-anchor="middle" x="349.5" y="-7.1" font-family="Helvetica,sans-Serif" font-size="8.00" fill="#000000">gsl/gsl_sf_zeta.h</text>
</g>
<!-- Node1&#45;&gt;Node21 -->
<g id="edge6" class="edge">
<title>Node1&#45;&gt;Node21</title>
<path fill="none" stroke="#191970" d="M269.7634,-54.324C284.7214,-45.8215 307.7548,-32.7288 325.2267,-22.7975"/>
<polygon fill="#191970" stroke="#191970" points="327.3104,-25.639 334.2745,-17.6545 323.8512,-19.5534 327.3104,-25.639"/>
</g>
<!-- Node22 -->
<g id="node8" class="node">
<title>Node22</title>
<polygon fill="none" stroke="#bfbfbf" points="406,-.5 406,-17.5 495,-17.5 495,-.5 406,-.5"/>
<text text-anchor="middle" x="450.5" y="-7.1" font-family="Helvetica,sans-Serif" font-size="8.00" fill="#000000">gsl/gsl_sf_clausen.h</text>
</g>
<!-- Node1&#45;&gt;Node22 -->
<g id="edge7" class="edge">
<title>Node1&#45;&gt;Node22</title>
<path fill="none" stroke="#191970" d="M285.5568,-54.4435C319.1034,-45.2011 372.6968,-30.4356 409.6405,-20.2572"/>
<polygon fill="#191970" stroke="#191970" points="410.8774,-23.5469 419.5885,-17.5164 409.018,-16.7984 410.8774,-23.5469"/>
</g>
<!-- Node24 -->
<g id="node10" class="node">
<title>Node24</title>
<g id="a_node10"><a xlink:href="../../d2/d65/_flavour_8h.html" target="_top" xlink:title="Flavour.h">
<polygon fill="none" stroke="#ff0000" points="513.5,-.5 513.5,-17.5 563.5,-17.5 563.5,-.5 513.5,-.5"/>
<text text-anchor="middle" x="538.5" y="-7.1" font-family="Helvetica,sans-Serif" font-size="8.00" fill="#000000">Flavour.h</text>
</a>
</g>
</g>
<!-- Node23&#45;&gt;Node24 -->
<g id="edge9" class="edge">
<title>Node23&#45;&gt;Node24</title>
<path fill="none" stroke="#191970" d="M459.6027,-54.324C474.4033,-45.8215 497.1942,-32.7288 514.4822,-22.7975"/>
<polygon fill="#191970" stroke="#191970" points="516.5071,-25.6707 523.4348,-17.6545 513.0202,-19.6009 516.5071,-25.6707"/>
</g>
</g>
</svg>
