<?xml version="1.0" encoding="UTF-8" standalone="no"?>
<!DOCTYPE svg PUBLIC "-//W3C//DTD SVG 1.1//EN"
 "http://www.w3.org/Graphics/SVG/1.1/DTD/svg11.dtd">
<!-- Generated by graphviz version 2.40.1 (20161225.0304)
 -->
<!-- Title: MultipleDoublyIndexed.hpp Pages: 1 -->
<svg width="382pt" height="305pt"
 viewBox="0.00 0.00 381.50 305.00" xmlns="http://www.w3.org/2000/svg" xmlns:xlink="http://www.w3.org/1999/xlink">
<g id="graph0" class="graph" transform="scale(1 1) rotate(0) translate(4 301)">
<title>MultipleDoublyIndexed.hpp</title>
<!-- Node45 -->
<g id="node1" class="node">
<title>Node45</title>
<polygon fill="#bfbfbf" stroke="#000000" points="56,-279.5 56,-296.5 169,-296.5 169,-279.5 56,-279.5"/>
<text text-anchor="middle" x="112.5" y="-286.1" font-family="Helvetica,sans-Serif" font-size="8.00" fill="#000000">MultipleDoublyIndexed.hpp</text>
</g>
<!-- Node46 -->
<g id="node2" class="node">
<title>Node46</title>
<g id="a_node2"><a xlink:href="../../d5/db2/_doubly_indexed_multiple_entries_block_8hpp.html" target="_top" xlink:title="DoublyIndexedMultipleEntries\lBlock.hpp">
<polygon fill="none" stroke="#000000" points="115.5,-216.5 115.5,-242.5 237.5,-242.5 237.5,-216.5 115.5,-216.5"/>
<text text-anchor="start" x="123.5" y="-232.1" font-family="Helvetica,sans-Serif" font-size="8.00" fill="#000000">DoublyIndexedMultipleEntries</text>
<text text-anchor="middle" x="176.5" y="-223.1" font-family="Helvetica,sans-Serif" font-size="8.00" fill="#000000">Block.hpp</text>
</a>
</g>
</g>
<!-- Node45&#45;&gt;Node46 -->
<g id="edge1" class="edge">
<title>Node45&#45;&gt;Node46</title>
<path fill="none" stroke="#191970" d="M129.4148,-272.5388C139.5701,-263.2562 152.3538,-251.5711 162.0374,-242.7197"/>
<polygon fill="#191970" stroke="#191970" points="126.9632,-270.0379 121.9434,-279.3681 131.6859,-275.2047 126.9632,-270.0379"/>
</g>
<!-- Node79 -->
<g id="node10" class="node">
<title>Node79</title>
<g id="a_node10"><a xlink:href="../../d4/dc2/_interpreter_classes_8hpp.html" target="_top" xlink:title="InterpreterClasses.hpp">
<polygon fill="none" stroke="#000000" points="0,-221 0,-238 97,-238 97,-221 0,-221"/>
<text text-anchor="middle" x="48.5" y="-227.6" font-family="Helvetica,sans-Serif" font-size="8.00" fill="#000000">InterpreterClasses.hpp</text>
</a>
</g>
</g>
<!-- Node45&#45;&gt;Node79 -->
<g id="edge15" class="edge">
<title>Node45&#45;&gt;Node79</title>
<path fill="none" stroke="#191970" d="M95.4421,-272.408C83.4427,-261.4399 67.8288,-247.1677 57.9822,-238.1673"/>
<polygon fill="#191970" stroke="#191970" points="93.3141,-275.2047 103.0566,-279.3681 98.0368,-270.0379 93.3141,-275.2047"/>
</g>
<!-- Node47 -->
<g id="node3" class="node">
<title>Node47</title>
<g id="a_node3"><a xlink:href="../../db/d13/_block_classes_8hpp.html" target="_top" xlink:title="BlockClasses.hpp">
<polygon fill="none" stroke="#000000" points="8.5,-162.5 8.5,-179.5 88.5,-179.5 88.5,-162.5 8.5,-162.5"/>
<text text-anchor="middle" x="48.5" y="-169.1" font-family="Helvetica,sans-Serif" font-size="8.00" fill="#000000">BlockClasses.hpp</text>
</a>
</g>
</g>
<!-- Node46&#45;&gt;Node47 -->
<g id="edge2" class="edge">
<title>Node46&#45;&gt;Node47</title>
<path fill="none" stroke="#191970" d="M138.4274,-212.0996C114.9397,-201.365 85.8451,-188.0679 67.2269,-179.5588"/>
<polygon fill="#191970" stroke="#191970" points="137.2243,-215.3979 147.7743,-216.3715 140.134,-209.0313 137.2243,-215.3979"/>
</g>
<!-- Node64 -->
<g id="node5" class="node">
<title>Node64</title>
<g id="a_node5"><a xlink:href="../../d5/dae/_block_types_8hpp.html" target="_top" xlink:title="BlockTypes.hpp">
<polygon fill="none" stroke="#ff0000" points="146,-162.5 146,-179.5 219,-179.5 219,-162.5 146,-162.5"/>
<text text-anchor="middle" x="182.5" y="-169.1" font-family="Helvetica,sans-Serif" font-size="8.00" fill="#000000">BlockTypes.hpp</text>
</a>
</g>
</g>
<!-- Node46&#45;&gt;Node64 -->
<g id="edge4" class="edge">
<title>Node46&#45;&gt;Node64</title>
<path fill="none" stroke="#191970" d="M178.8846,-206.2504C179.8433,-196.9029 180.8896,-186.7011 181.6088,-179.689"/>
<polygon fill="#191970" stroke="#191970" points="175.4001,-205.9205 177.8615,-216.2254 182.3636,-206.6348 175.4001,-205.9205"/>
</g>
<!-- Node48 -->
<g id="node4" class="node">
<title>Node48</title>
<g id="a_node4"><a xlink:href="../../d4/d42/_s_l_h_a_8hpp.html" target="_top" xlink:title="SLHA.hpp">
<polygon fill="none" stroke="#ff0000" points="107,-.5 107,-17.5 160,-17.5 160,-.5 107,-.5"/>
<text text-anchor="middle" x="133.5" y="-7.1" font-family="Helvetica,sans-Serif" font-size="8.00" fill="#000000">SLHA.hpp</text>
</a>
</g>
</g>
<!-- Node47&#45;&gt;Node48 -->
<g id="edge3" class="edge">
<title>Node47&#45;&gt;Node48</title>
<path fill="none" stroke="#191970" d="M51.8259,-152.5578C56.7761,-128.4721 67.6963,-85.6529 87.5,-54 96.6254,-39.4146 111.4182,-26.0928 121.7575,-17.7924"/>
<polygon fill="#191970" stroke="#191970" points="48.3708,-151.9907 49.9117,-162.4729 55.2439,-153.3177 48.3708,-151.9907"/>
</g>
<!-- Node64&#45;&gt;Node48 -->
<g id="edge13" class="edge">
<title>Node64&#45;&gt;Node48</title>
<path fill="none" stroke="#191970" d="M161.6549,-156.3823C139.2748,-139.2085 105.2197,-108.3928 92.5,-72 85.0082,-50.565 106.6416,-29.1638 121.2691,-17.6528"/>
<polygon fill="#191970" stroke="#191970" points="159.7569,-159.3322 169.873,-162.4813 163.9287,-153.7111 159.7569,-159.3322"/>
</g>
<!-- Node65 -->
<g id="node6" class="node">
<title>Node65</title>
<g id="a_node6"><a xlink:href="../../de/d0c/_flha_one_8hpp.html" target="_top" xlink:title="FlhaOne.hpp">
<polygon fill="none" stroke="#000000" points="102,-54.5 102,-71.5 165,-71.5 165,-54.5 102,-54.5"/>
<text text-anchor="middle" x="133.5" y="-61.1" font-family="Helvetica,sans-Serif" font-size="8.00" fill="#000000">FlhaOne.hpp</text>
</a>
</g>
</g>
<!-- Node64&#45;&gt;Node65 -->
<g id="edge5" class="edge">
<title>Node64&#45;&gt;Node65</title>
<path fill="none" stroke="#191970" d="M165.5356,-155.1933C157.9365,-147.1701 149.564,-136.8391 144.5,-126 136.0406,-107.8933 134.039,-84.1029 133.5961,-71.5732"/>
<polygon fill="#191970" stroke="#191970" points="163.1789,-157.7863 172.7257,-162.3807 168.1277,-152.8356 163.1789,-157.7863"/>
</g>
<!-- Node66 -->
<g id="node7" class="node">
<title>Node66</title>
<g id="a_node7"><a xlink:href="../../d7/d9f/_slha_parser_8hpp.html" target="_top" xlink:title="SlhaParser.hpp">
<polygon fill="none" stroke="#ff0000" points="153.5,-108.5 153.5,-125.5 225.5,-125.5 225.5,-108.5 153.5,-108.5"/>
<text text-anchor="middle" x="189.5" y="-115.1" font-family="Helvetica,sans-Serif" font-size="8.00" fill="#000000">SlhaParser.hpp</text>
</a>
</g>
</g>
<!-- Node64&#45;&gt;Node66 -->
<g id="edge7" class="edge">
<title>Node64&#45;&gt;Node66</title>
<path fill="none" stroke="#191970" d="M184.9499,-152.1005C186.112,-143.1357 187.4443,-132.8579 188.3656,-125.7511"/>
<polygon fill="#191970" stroke="#191970" points="181.4706,-151.716 183.6559,-162.083 188.4125,-152.6159 181.4706,-151.716"/>
</g>
<!-- Node67 -->
<g id="node8" class="node">
<title>Node67</title>
<g id="a_node8"><a xlink:href="../../d7/dc0/_slha_one_8hpp.html" target="_top" xlink:title="SlhaOne.hpp">
<polygon fill="none" stroke="#ff0000" points="222,-54.5 222,-71.5 285,-71.5 285,-54.5 222,-54.5"/>
<text text-anchor="middle" x="253.5" y="-61.1" font-family="Helvetica,sans-Serif" font-size="8.00" fill="#000000">SlhaOne.hpp</text>
</a>
</g>
</g>
<!-- Node64&#45;&gt;Node67 -->
<g id="edge12" class="edge">
<title>Node64&#45;&gt;Node67</title>
<path fill="none" stroke="#191970" d="M204.6631,-156.3235C215.0415,-148.4387 226.7878,-137.8962 234.5,-126 245.6861,-108.7454 250.5351,-84.6088 252.4282,-71.7985"/>
<polygon fill="#191970" stroke="#191970" points="202.4491,-153.605 196.3856,-162.2932 206.5437,-159.2825 202.4491,-153.605"/>
</g>
<!-- Node73 -->
<g id="node9" class="node">
<title>Node73</title>
<g id="a_node9"><a xlink:href="../../d5/dce/_slha_value_plotter_8hpp.html" target="_top" xlink:title="SlhaValuePlotter.hpp">
<polygon fill="none" stroke="#ff0000" points="281.5,-108.5 281.5,-125.5 373.5,-125.5 373.5,-108.5 281.5,-108.5"/>
<text text-anchor="middle" x="327.5" y="-115.1" font-family="Helvetica,sans-Serif" font-size="8.00" fill="#000000">SlhaValuePlotter.hpp</text>
</a>
</g>
</g>
<!-- Node64&#45;&gt;Node73 -->
<g id="edge14" class="edge">
<title>Node64&#45;&gt;Node73</title>
<path fill="none" stroke="#191970" d="M214.9751,-158.9058C242.2358,-148.7536 280.4924,-134.5063 304.6318,-125.5164"/>
<polygon fill="#191970" stroke="#191970" points="213.6254,-155.6736 205.4757,-162.4435 216.0684,-162.2334 213.6254,-155.6736"/>
</g>
<!-- Node65&#45;&gt;Node48 -->
<g id="edge6" class="edge">
<title>Node65&#45;&gt;Node48</title>
<path fill="none" stroke="#191970" d="M133.5,-43.8045C133.5,-34.9102 133.5,-24.7798 133.5,-17.7511"/>
<polygon fill="#191970" stroke="#191970" points="130.0001,-44.083 133.5,-54.083 137.0001,-44.083 130.0001,-44.083"/>
</g>
<!-- Node66&#45;&gt;Node48 -->
<g id="edge11" class="edge">
<title>Node66&#45;&gt;Node48</title>
<path fill="none" stroke="#191970" d="M187.1448,-98.2952C184.9482,-85.2944 180.8615,-67.879 173.5,-54 165.8593,-39.5946 152.6772,-26.0356 143.5445,-17.6407"/>
<polygon fill="#191970" stroke="#191970" points="183.7102,-98.9972 188.6234,-108.3839 190.6362,-97.9821 183.7102,-98.9972"/>
</g>
<!-- Node66&#45;&gt;Node65 -->
<g id="edge8" class="edge">
<title>Node66&#45;&gt;Node65</title>
<path fill="none" stroke="#191970" d="M173.1701,-101.2533C163.235,-91.6731 150.9125,-79.7906 142.6611,-71.8339"/>
<polygon fill="#191970" stroke="#191970" points="170.8747,-103.902 180.5026,-108.324 175.7336,-98.8631 170.8747,-103.902"/>
</g>
<!-- Node66&#45;&gt;Node67 -->
<g id="edge9" class="edge">
<title>Node66&#45;&gt;Node67</title>
<path fill="none" stroke="#191970" d="M207.4915,-101.8197C218.9576,-92.1452 233.4133,-79.9481 243.0302,-71.8339"/>
<polygon fill="#191970" stroke="#191970" points="205.1686,-99.2002 199.7827,-108.324 209.6827,-104.5502 205.1686,-99.2002"/>
</g>
<!-- Node67&#45;&gt;Node48 -->
<g id="edge10" class="edge">
<title>Node67&#45;&gt;Node48</title>
<path fill="none" stroke="#191970" d="M225.1269,-50.2321C202.6804,-40.1312 171.9648,-26.3091 152.4254,-17.5164"/>
<polygon fill="#191970" stroke="#191970" points="223.9301,-53.5316 234.4856,-54.4435 226.8027,-47.1481 223.9301,-53.5316"/>
</g>
<!-- Node79&#45;&gt;Node47 -->
<g id="edge16" class="edge">
<title>Node79&#45;&gt;Node47</title>
<path fill="none" stroke="#191970" d="M48.5,-210.6601C48.5,-200.2439 48.5,-187.8023 48.5,-179.6673"/>
<polygon fill="#191970" stroke="#191970" points="45.0001,-210.8681 48.5,-220.8681 52.0001,-210.8682 45.0001,-210.8681"/>
</g>
</g>
</svg>
