<?xml version="1.0" encoding="UTF-8" standalone="no"?>
<!DOCTYPE svg PUBLIC "-//W3C//DTD SVG 1.1//EN"
 "http://www.w3.org/Graphics/SVG/1.1/DTD/svg11.dtd">
<!-- Generated by graphviz version 2.40.1 (20161225.0304)
 -->
<!-- Title: MPlnu.h Pages: 1 -->
<svg width="461pt" height="80pt"
 viewBox="0.00 0.00 460.50 80.00" xmlns="http://www.w3.org/2000/svg" xmlns:xlink="http://www.w3.org/1999/xlink">
<g id="graph0" class="graph" transform="scale(1 1) rotate(0) translate(4 76)">
<title>MPlnu.h</title>
<!-- Node0 -->
<g id="node1" class="node">
<title>Node0</title>
<polygon fill="#bfbfbf" stroke="#000000" points="203,-54.5 203,-71.5 249,-71.5 249,-54.5 203,-54.5"/>
<text text-anchor="middle" x="226" y="-61.1" font-family="Helvetica,sans-Serif" font-size="8.00" fill="#000000">MPlnu.h</text>
</g>
<!-- Node1 -->
<g id="node2" class="node">
<title>Node1</title>
<polygon fill="none" stroke="#bfbfbf" points="0,-.5 0,-17.5 88,-17.5 88,-.5 0,-.5"/>
<text text-anchor="middle" x="44" y="-7.1" font-family="Helvetica,sans-Serif" font-size="8.00" fill="#000000">gsl/gsl_integration.h</text>
</g>
<!-- Node0&#45;&gt;Node1 -->
<g id="edge1" class="edge">
<title>Node0&#45;&gt;Node1</title>
<path fill="none" stroke="#191970" d="M202.9496,-56.1609C172.6982,-47.1852 119.1708,-31.3034 82.6656,-20.4722"/>
<polygon fill="#191970" stroke="#191970" points="83.4367,-17.0502 72.8541,-17.5611 81.4455,-23.7611 83.4367,-17.0502"/>
</g>
<!-- Node2 -->
<g id="node3" class="node">
<title>Node2</title>
<polygon fill="none" stroke="#bfbfbf" points="106.5,-.5 106.5,-17.5 143.5,-17.5 143.5,-.5 106.5,-.5"/>
<text text-anchor="middle" x="125" y="-7.1" font-family="Helvetica,sans-Serif" font-size="8.00" fill="#000000">TF1.h</text>
</g>
<!-- Node0&#45;&gt;Node2 -->
<g id="edge2" class="edge">
<title>Node0&#45;&gt;Node2</title>
<path fill="none" stroke="#191970" d="M209.7726,-54.324C193.649,-45.7034 168.6998,-32.3643 150.0359,-22.3855"/>
<polygon fill="#191970" stroke="#191970" points="151.6561,-19.283 141.1871,-17.6545 148.3556,-25.456 151.6561,-19.283"/>
</g>
<!-- Node3 -->
<g id="node4" class="node">
<title>Node3</title>
<polygon fill="none" stroke="#bfbfbf" points="162,-.5 162,-17.5 212,-17.5 212,-.5 162,-.5"/>
<text text-anchor="middle" x="187" y="-7.1" font-family="Helvetica,sans-Serif" font-size="8.00" fill="#000000">TGraph.h</text>
</g>
<!-- Node0&#45;&gt;Node3 -->
<g id="edge3" class="edge">
<title>Node0&#45;&gt;Node3</title>
<path fill="none" stroke="#191970" d="M219.5599,-54.083C214.0511,-46.4554 205.9688,-35.2645 199.235,-25.9408"/>
<polygon fill="#191970" stroke="#191970" points="202.0126,-23.8087 193.3202,-17.7511 196.3378,-27.9071 202.0126,-23.8087"/>
</g>
<!-- Node4 -->
<g id="node5" class="node">
<title>Node4</title>
<polygon fill="none" stroke="#bfbfbf" points="230,-.5 230,-17.5 300,-17.5 300,-.5 230,-.5"/>
<text text-anchor="middle" x="265" y="-7.1" font-family="Helvetica,sans-Serif" font-size="8.00" fill="#000000">TFitResultPtr.h</text>
</g>
<!-- Node0&#45;&gt;Node4 -->
<g id="edge4" class="edge">
<title>Node0&#45;&gt;Node4</title>
<path fill="none" stroke="#191970" d="M232.4401,-54.083C237.9489,-46.4554 246.0312,-35.2645 252.765,-25.9408"/>
<polygon fill="#191970" stroke="#191970" points="255.6622,-27.9071 258.6798,-17.7511 249.9874,-23.8087 255.6622,-27.9071"/>
</g>
<!-- Node5 -->
<g id="node6" class="node">
<title>Node5</title>
<polygon fill="none" stroke="#bfbfbf" points="318.5,-.5 318.5,-17.5 389.5,-17.5 389.5,-.5 318.5,-.5"/>
<text text-anchor="middle" x="354" y="-7.1" font-family="Helvetica,sans-Serif" font-size="8.00" fill="#000000">gsl/gsl_spline.h</text>
</g>
<!-- Node0&#45;&gt;Node5 -->
<g id="edge5" class="edge">
<title>Node0&#45;&gt;Node5</title>
<path fill="none" stroke="#191970" d="M246.282,-54.4435C267.3473,-45.5566 300.5168,-31.5632 324.4855,-21.4514"/>
<polygon fill="#191970" stroke="#191970" points="325.9597,-24.6283 333.8129,-17.5164 323.2388,-18.1787 325.9597,-24.6283"/>
</g>
<!-- Node6 -->
<g id="node7" class="node">
<title>Node6</title>
<polygon fill="none" stroke="#bfbfbf" points="407.5,-.5 407.5,-17.5 452.5,-17.5 452.5,-.5 407.5,-.5"/>
<text text-anchor="middle" x="430" y="-7.1" font-family="Helvetica,sans-Serif" font-size="8.00" fill="#000000">memory</text>
</g>
<!-- Node0&#45;&gt;Node6 -->
<g id="edge6" class="edge">
<title>Node0&#45;&gt;Node6</title>
<path fill="none" stroke="#191970" d="M249.0017,-57.2356C280.4485,-49.3078 338.8531,-34.4173 397.5354,-18.3529"/>
<polygon fill="#191970" stroke="#191970" points="398.6189,-21.6849 407.3339,-15.66 396.7639,-14.9352 398.6189,-21.6849"/>
</g>
</g>
</svg>
