<?xml version="1.0" encoding="UTF-8" standalone="no"?>
<!DOCTYPE svg PUBLIC "-//W3C//DTD SVG 1.1//EN"
 "http://www.w3.org/Graphics/SVG/1.1/DTD/svg11.dtd">
<!-- Generated by graphviz version 2.40.1 (20161225.0304)
 -->
<!-- Title: Hobs_pp_Stb_tbtb_ATLAS13 Pages: 1 -->
<svg width="464pt" height="288pt"
 viewBox="0.00 0.00 464.00 288.00" xmlns="http://www.w3.org/2000/svg" xmlns:xlink="http://www.w3.org/1999/xlink">
<g id="graph0" class="graph" transform="scale(1 1) rotate(0) translate(4 284)">
<title>Hobs_pp_Stb_tbtb_ATLAS13</title>
<!-- Node2 -->
<g id="node1" class="node">
<title>Node2</title>
<polygon fill="#bfbfbf" stroke="#000000" points="0,-.5 0,-17.5 121,-17.5 121,-.5 0,-.5"/>
<text text-anchor="middle" x="60.5" y="-7.1" font-family="Helvetica,sans-Serif" font-size="8.00" fill="#000000">Hobs_pp_Stb_tbtb_ATLAS13</text>
</g>
<!-- Node3 -->
<g id="node2" class="node">
<title>Node3</title>
<g id="a_node2"><a xlink:href="../../dc/d1f/class_th_observable.html" target="_top" xlink:title="A class for a model prediction of an observable. ">
<polygon fill="none" stroke="#000000" points="11,-99.5 11,-116.5 78,-116.5 78,-99.5 11,-99.5"/>
<text text-anchor="middle" x="44.5" y="-106.1" font-family="Helvetica,sans-Serif" font-size="8.00" fill="#000000">ThObservable</text>
</a>
</g>
</g>
<!-- Node3&#45;&gt;Node2 -->
<g id="edge1" class="edge">
<title>Node3&#45;&gt;Node2</title>
<path fill="none" stroke="#191970" d="M47.5182,-89.3249C50.9877,-67.8571 56.534,-33.5398 59.1061,-17.6245"/>
<polygon fill="#191970" stroke="#191970" points="44.0603,-88.7841 45.9199,-99.2144 50.9706,-89.9009 44.0603,-88.7841"/>
</g>
<!-- Node4 -->
<g id="node3" class="node">
<title>Node4</title>
<g id="a_node3"><a xlink:href="../../dc/dd5/class_standard_model.html" target="_top" xlink:title="A model class for the Standard Model. ">
<polygon fill="none" stroke="#ff0000" points="236,-207.5 236,-224.5 307,-224.5 307,-207.5 236,-207.5"/>
<text text-anchor="middle" x="271.5" y="-214.1" font-family="Helvetica,sans-Serif" font-size="8.00" fill="#000000">StandardModel</text>
</a>
</g>
</g>
<!-- Node4&#45;&gt;Node3 -->
<g id="edge2" class="edge">
<title>Node4&#45;&gt;Node3</title>
<path fill="none" stroke="#9a32cd" stroke-dasharray="5,2" d="M225.6841,-209.2295C171.8828,-200.4238 86.9836,-183.5825 63.5,-162 50.475,-150.0294 46.3771,-128.5986 45.0892,-116.6505"/>
<polygon fill="#9a32cd" stroke="#9a32cd" points="225.2462,-212.7039 235.6741,-210.8311 226.3543,-205.7922 225.2462,-212.7039"/>
<text text-anchor="middle" x="136" y="-182.6" font-family="Helvetica,sans-Serif" font-size="8.00" fill="#000000"> SM</text>
</g>
<!-- Node9 -->
<g id="node6" class="node">
<title>Node9</title>
<g id="a_node6"><a xlink:href="../../dc/df3/class_e_w_s_mcache.html" target="_top" xlink:title="A class for cache variables used in computing radiative corrections to the EW precision observables...">
<polygon fill="none" stroke="#ff0000" points="393,-140 393,-157 456,-157 456,-140 393,-140"/>
<text text-anchor="middle" x="424.5" y="-146.6" font-family="Helvetica,sans-Serif" font-size="8.00" fill="#000000">EWSMcache</text>
</a>
</g>
</g>
<!-- Node4&#45;&gt;Node9 -->
<g id="edge6" class="edge">
<title>Node4&#45;&gt;Node9</title>
<path fill="none" stroke="#9a32cd" stroke-dasharray="5,2" d="M300.146,-203.362C330.6807,-189.8909 378.213,-168.9207 404.7965,-157.1927"/>
<polygon fill="#9a32cd" stroke="#9a32cd" points="298.614,-200.2124 290.8776,-207.4511 301.4395,-206.6168 298.614,-200.2124"/>
<text text-anchor="middle" x="360" y="-182.6" font-family="Helvetica,sans-Serif" font-size="8.00" fill="#000000"> SM</text>
</g>
<!-- Node48 -->
<g id="node8" class="node">
<title>Node48</title>
<g id="a_node8"><a xlink:href="../../d2/df3/class_n_pbase.html" target="_top" xlink:title="The auxiliary base model class for other model classes. ">
<polygon fill="none" stroke="#000000" points="212,-140 212,-157 257,-157 257,-140 212,-140"/>
<text text-anchor="middle" x="234.5" y="-146.6" font-family="Helvetica,sans-Serif" font-size="8.00" fill="#000000">NPbase</text>
</a>
</g>
</g>
<!-- Node4&#45;&gt;Node48 -->
<g id="edge10" class="edge">
<title>Node4&#45;&gt;Node48</title>
<path fill="none" stroke="#191970" d="M241.9868,-201.8791C237.3692,-198.3354 233.2289,-194.0645 230.5,-189 225.1376,-179.048 228.0407,-165.7157 230.9721,-157.116"/>
<polygon fill="#191970" stroke="#191970" points="240.3206,-204.9705 250.6124,-207.4867 244.136,-199.1017 240.3206,-204.9705"/>
</g>
<!-- Node4&#45;&gt;Node48 -->
<g id="edge11" class="edge">
<title>Node4&#45;&gt;Node48</title>
<path fill="none" stroke="#9a32cd" stroke-dasharray="5,2" d="M257.3965,-199.3772C254.9217,-196.0561 252.5017,-192.5071 250.5,-189 244.5789,-178.6259 239.8719,-165.6301 237.1359,-157.2004"/>
<polygon fill="#9a32cd" stroke="#9a32cd" points="254.8586,-201.8087 263.8259,-207.4512 260.3345,-197.4481 254.8586,-201.8087"/>
<text text-anchor="middle" x="265" y="-182.6" font-family="Helvetica,sans-Serif" font-size="8.00" fill="#000000"> trueSM</text>
</g>
<!-- Node5 -->
<g id="node4" class="node">
<title>Node5</title>
<g id="a_node4"><a xlink:href="../../dd/dfa/class_q_c_d.html" target="_top" xlink:title="A class for parameters related to QCD, hadrons and quarks. ">
<polygon fill="none" stroke="#ff0000" points="254.5,-262.5 254.5,-279.5 288.5,-279.5 288.5,-262.5 254.5,-262.5"/>
<text text-anchor="middle" x="271.5" y="-269.1" font-family="Helvetica,sans-Serif" font-size="8.00" fill="#000000">QCD</text>
</a>
</g>
</g>
<!-- Node5&#45;&gt;Node4 -->
<g id="edge3" class="edge">
<title>Node5&#45;&gt;Node4</title>
<path fill="none" stroke="#191970" d="M271.5,-252.1166C271.5,-242.8173 271.5,-232.0557 271.5,-224.7149"/>
<polygon fill="#191970" stroke="#191970" points="268.0001,-252.4062 271.5,-262.4063 275.0001,-252.4063 268.0001,-252.4062"/>
</g>
<!-- Node8 -->
<g id="node5" class="node">
<title>Node8</title>
<g id="a_node5"><a xlink:href="../../db/d32/class_e_w_s_m_two_fermions_l_e_p2.html" target="_top" xlink:title="A class for the form factors , &#160;and &#160;in the processes &#160;at LEP&#45;II. ">
<polygon fill="none" stroke="#ff0000" points="255,-63.5 255,-80.5 364,-80.5 364,-63.5 255,-63.5"/>
<text text-anchor="middle" x="309.5" y="-70.1" font-family="Helvetica,sans-Serif" font-size="8.00" fill="#000000">EWSMTwoFermionsLEP2</text>
</a>
</g>
</g>
<!-- Node8&#45;&gt;Node4 -->
<g id="edge4" class="edge">
<title>Node8&#45;&gt;Node4</title>
<path fill="none" stroke="#9a32cd" stroke-dasharray="5,2" d="M305.0194,-90.3452C299.3302,-113.4288 289.097,-154.2597 279.5,-189 277.8337,-195.0319 275.8337,-201.7819 274.2503,-207.0239"/>
<polygon fill="#9a32cd" stroke="#9a32cd" points="308.4406,-91.0893 307.4246,-80.5433 301.6422,-89.4211 308.4406,-91.0893"/>
<text text-anchor="middle" x="335" y="-146.6" font-family="Helvetica,sans-Serif" font-size="8.00" fill="#000000"> myTwoFermionsLEP2</text>
</g>
<!-- Node9&#45;&gt;Node4 -->
<g id="edge7" class="edge">
<title>Node9&#45;&gt;Node4</title>
<path fill="none" stroke="#9a32cd" stroke-dasharray="5,2" d="M407.701,-164.0638C397.8051,-172.5023 384.6744,-182.5038 371.5,-189 351.3392,-198.9411 327.0248,-205.6114 307.4198,-209.8349"/>
<polygon fill="#9a32cd" stroke="#9a32cd" points="410.3138,-166.4255 415.4846,-157.1781 405.6757,-161.1826 410.3138,-166.4255"/>
<text text-anchor="middle" x="415.5" y="-182.6" font-family="Helvetica,sans-Serif" font-size="8.00" fill="#000000"> myEWSMcache</text>
</g>
<!-- Node9&#45;&gt;Node8 -->
<g id="edge5" class="edge">
<title>Node9&#45;&gt;Node8</title>
<path fill="none" stroke="#9a32cd" stroke-dasharray="5,2" d="M402.9749,-134.1811C379.329,-118.4515 342.1163,-93.697 322.5381,-80.6732"/>
<polygon fill="#9a32cd" stroke="#9a32cd" points="401.0434,-137.0999 411.308,-139.7245 404.9205,-131.2717 401.0434,-137.0999"/>
<text text-anchor="middle" x="385.5" y="-106.1" font-family="Helvetica,sans-Serif" font-size="8.00" fill="#000000"> cache</text>
</g>
<!-- Node47 -->
<g id="node7" class="node">
<title>Node47</title>
<g id="a_node7"><a xlink:href="../../dc/d90/class_t_h_d_m_w.html" target="_top" xlink:title="A base class for &#160;symmetric Two&#45;Higgs&#45;Doublet&#45;Manohar&#45;Wise models. ">
<polygon fill="none" stroke="#000000" points="121,-63.5 121,-80.5 168,-80.5 168,-63.5 121,-63.5"/>
<text text-anchor="middle" x="144.5" y="-70.1" font-family="Helvetica,sans-Serif" font-size="8.00" fill="#000000">THDMW</text>
</a>
</g>
</g>
<!-- Node47&#45;&gt;Node2 -->
<g id="edge8" class="edge">
<title>Node47&#45;&gt;Node2</title>
<path fill="none" stroke="#9a32cd" stroke-dasharray="5,2" d="M114.0841,-59.0513C106.3539,-55.092 98.3143,-50.3492 91.5,-45 81.3791,-37.0551 72.0816,-25.4249 66.3622,-17.5511"/>
<polygon fill="#9a32cd" stroke="#9a32cd" points="112.7296,-62.2839 123.2566,-63.4805 115.7734,-55.9803 112.7296,-62.2839"/>
<text text-anchor="middle" x="113.5" y="-38.6" font-family="Helvetica,sans-Serif" font-size="8.00" fill="#000000"> myTHDMW</text>
</g>
<!-- Node51 -->
<g id="node10" class="node">
<title>Node51</title>
<g id="a_node10"><a xlink:href="../../da/d99/class_t_h_d_m_wcache.html" target="_top" xlink:title="A class for the caching of some THDMW objects. ">
<polygon fill="none" stroke="#ff0000" points="158,-.5 158,-17.5 227,-17.5 227,-.5 158,-.5"/>
<text text-anchor="middle" x="192.5" y="-7.1" font-family="Helvetica,sans-Serif" font-size="8.00" fill="#000000">THDMWcache</text>
</a>
</g>
</g>
<!-- Node47&#45;&gt;Node51 -->
<g id="edge14" class="edge">
<title>Node47&#45;&gt;Node51</title>
<path fill="none" stroke="#9a32cd" stroke-dasharray="5,2" d="M138.8159,-53.4815C138.0381,-47.5432 138.3863,-41.1715 141.5,-36 146.5642,-27.5888 155.225,-21.6607 163.9865,-17.5472"/>
<polygon fill="#9a32cd" stroke="#9a32cd" points="135.4321,-54.3846 141.0781,-63.3497 142.2551,-52.8204 135.4321,-54.3846"/>
<text text-anchor="middle" x="163.5" y="-38.6" font-family="Helvetica,sans-Serif" font-size="8.00" fill="#000000"> myTHDMW</text>
</g>
<!-- Node48&#45;&gt;Node47 -->
<g id="edge9" class="edge">
<title>Node48&#45;&gt;Node47</title>
<path fill="none" stroke="#191970" d="M219.9086,-132.5942C210.288,-122.4849 197.1676,-109.3926 184.5,-99 176.3384,-92.3042 166.5209,-85.6588 158.6547,-80.6363"/>
<polygon fill="#191970" stroke="#191970" points="217.409,-135.0454 226.7984,-139.9536 222.5191,-130.2614 217.409,-135.0454"/>
</g>
<!-- Node49 -->
<g id="node9" class="node">
<title>Node49</title>
<g id="a_node9"><a xlink:href="../../d5/d76/class_matching.html" target="_top" xlink:title="Matching\&lt; THDMWMatching,\l THDMW \&gt;">
<polygon fill="none" stroke="#ff0000" points="73,-135.5 73,-161.5 194,-161.5 194,-135.5 73,-135.5"/>
<text text-anchor="start" x="81" y="-151.1" font-family="Helvetica,sans-Serif" font-size="8.00" fill="#000000">Matching&lt; THDMWMatching,</text>
<text text-anchor="middle" x="133.5" y="-142.1" font-family="Helvetica,sans-Serif" font-size="8.00" fill="#000000"> THDMW &gt;</text>
</a>
</g>
</g>
<!-- Node49&#45;&gt;Node47 -->
<g id="edge12" class="edge">
<title>Node49&#45;&gt;Node47</title>
<path fill="none" stroke="#9a32cd" stroke-dasharray="5,2" d="M136.8664,-125.0882C139.0151,-110.1453 141.6778,-91.6269 143.2234,-80.8783"/>
<polygon fill="#9a32cd" stroke="#9a32cd" points="133.375,-124.7783 135.4161,-135.1747 140.3038,-125.7747 133.375,-124.7783"/>
<text text-anchor="middle" x="160.5" y="-106.1" font-family="Helvetica,sans-Serif" font-size="8.00" fill="#000000"> THDMWM</text>
</g>
<!-- Node51&#45;&gt;Node47 -->
<g id="edge13" class="edge">
<title>Node51&#45;&gt;Node47</title>
<path fill="none" stroke="#9a32cd" stroke-dasharray="5,2" d="M194.1575,-28.0195C193.8432,-33.8323 192.6102,-40.0033 189.5,-45 184.3966,-53.199 175.8043,-59.2372 167.4873,-63.4985"/>
<polygon fill="#9a32cd" stroke="#9a32cd" points="197.6473,-27.5889 193.8815,-17.6859 190.6498,-27.7758 197.6473,-27.5889"/>
<text text-anchor="middle" x="226" y="-38.6" font-family="Helvetica,sans-Serif" font-size="8.00" fill="#000000"> myTHDMWcache</text>
</g>
</g>
</svg>
