<?xml version="1.0" encoding="UTF-8" standalone="no"?>
<!DOCTYPE svg PUBLIC "-//W3C//DTD SVG 1.1//EN"
 "http://www.w3.org/Graphics/SVG/1.1/DTD/svg11.dtd">
<!-- Generated by graphviz version 2.40.1 (20161225.0304)
 -->
<!-- Title: SigmaBR.cpp Pages: 1 -->
<svg width="332pt" height="296pt"
 viewBox="0.00 0.00 332.14 296.00" xmlns="http://www.w3.org/2000/svg" xmlns:xlink="http://www.w3.org/1999/xlink">
<g id="graph0" class="graph" transform="scale(1 1) rotate(0) translate(4 292)">
<title>SigmaBR.cpp</title>
<!-- Node0 -->
<g id="node1" class="node">
<title>Node0</title>
<polygon fill="#bfbfbf" stroke="#000000" points="168.1377,-270.5 168.1377,-287.5 233.1377,-287.5 233.1377,-270.5 168.1377,-270.5"/>
<text text-anchor="middle" x="200.6377" y="-277.1" font-family="Helvetica,sans-Serif" font-size="8.00" fill="#000000">SigmaBR.cpp</text>
</g>
<!-- Node1 -->
<g id="node2" class="node">
<title>Node1</title>
<g id="a_node2"><a xlink:href="../../d4/d0f/_sigma_b_r_8h.html" target="_top" xlink:title="SigmaBR.h">
<polygon fill="none" stroke="#000000" points="172.1377,-216.5 172.1377,-233.5 229.1377,-233.5 229.1377,-216.5 172.1377,-216.5"/>
<text text-anchor="middle" x="200.6377" y="-223.1" font-family="Helvetica,sans-Serif" font-size="8.00" fill="#000000">SigmaBR.h</text>
</a>
</g>
</g>
<!-- Node0&#45;&gt;Node1 -->
<g id="edge1" class="edge">
<title>Node0&#45;&gt;Node1</title>
<path fill="none" stroke="#191970" d="M200.6377,-270.083C200.6377,-263.0059 200.6377,-252.8611 200.6377,-243.9865"/>
<polygon fill="#191970" stroke="#191970" points="204.1378,-243.751 200.6377,-233.7511 197.1378,-243.7511 204.1378,-243.751"/>
</g>
<!-- Node2 -->
<g id="node3" class="node">
<title>Node2</title>
<g id="a_node3"><a xlink:href="../../d9/d72/gslpp_8h.html" target="_top" xlink:title="gslpp.h">
<polygon fill="none" stroke="#ff0000" points="81.6377,-162.5 81.6377,-179.5 123.6377,-179.5 123.6377,-162.5 81.6377,-162.5"/>
<text text-anchor="middle" x="102.6377" y="-169.1" font-family="Helvetica,sans-Serif" font-size="8.00" fill="#000000">gslpp.h</text>
</a>
</g>
</g>
<!-- Node1&#45;&gt;Node2 -->
<g id="edge2" class="edge">
<title>Node1&#45;&gt;Node2</title>
<path fill="none" stroke="#191970" d="M184.8923,-216.324C169.3191,-207.7428 145.2605,-194.486 127.1784,-184.5224"/>
<polygon fill="#191970" stroke="#191970" points="128.7916,-181.4152 118.344,-179.6545 125.4133,-187.546 128.7916,-181.4152"/>
</g>
<!-- Node18 -->
<g id="node8" class="node">
<title>Node18</title>
<g id="a_node8"><a xlink:href="../../d2/de8/_n_pbase_8h.html" target="_top" xlink:title="NPbase.h">
<polygon fill="none" stroke="#ff0000" points="141.6377,-162.5 141.6377,-179.5 193.6377,-179.5 193.6377,-162.5 141.6377,-162.5"/>
<text text-anchor="middle" x="167.6377" y="-169.1" font-family="Helvetica,sans-Serif" font-size="8.00" fill="#000000">NPbase.h</text>
</a>
</g>
</g>
<!-- Node1&#45;&gt;Node18 -->
<g id="edge12" class="edge">
<title>Node1&#45;&gt;Node18</title>
<path fill="none" stroke="#191970" d="M195.1884,-216.083C190.6233,-208.6127 183.9693,-197.7244 178.3443,-188.5199"/>
<polygon fill="#191970" stroke="#191970" points="181.1866,-186.4588 172.9856,-179.7511 175.2137,-190.109 181.1866,-186.4588"/>
</g>
<!-- Node51 -->
<g id="node9" class="node">
<title>Node51</title>
<polygon fill="none" stroke="#bfbfbf" points="212.1377,-162.5 212.1377,-179.5 255.1377,-179.5 255.1377,-162.5 212.1377,-162.5"/>
<text text-anchor="middle" x="233.6377" y="-169.1" font-family="Helvetica,sans-Serif" font-size="8.00" fill="#000000">string.h</text>
</g>
<!-- Node1&#45;&gt;Node51 -->
<g id="edge13" class="edge">
<title>Node1&#45;&gt;Node51</title>
<path fill="none" stroke="#191970" d="M206.087,-216.083C210.6522,-208.6127 217.3061,-197.7244 222.9311,-188.5199"/>
<polygon fill="#191970" stroke="#191970" points="226.0618,-190.109 228.2898,-179.7511 220.0888,-186.4588 226.0618,-190.109"/>
</g>
<!-- Node27 -->
<g id="node10" class="node">
<title>Node27</title>
<polygon fill="none" stroke="#bfbfbf" points="273.1377,-162.5 273.1377,-179.5 324.1377,-179.5 324.1377,-162.5 273.1377,-162.5"/>
<text text-anchor="middle" x="298.6377" y="-169.1" font-family="Helvetica,sans-Serif" font-size="8.00" fill="#000000">stdexcept</text>
</g>
<!-- Node1&#45;&gt;Node27 -->
<g id="edge14" class="edge">
<title>Node1&#45;&gt;Node27</title>
<path fill="none" stroke="#191970" d="M216.3831,-216.324C231.9564,-207.7428 256.015,-194.486 274.097,-184.5224"/>
<polygon fill="#191970" stroke="#191970" points="275.8621,-187.546 282.9314,-179.6545 272.4839,-181.4152 275.8621,-187.546"/>
</g>
<!-- Node3 -->
<g id="node4" class="node">
<title>Node3</title>
<g id="a_node4"><a xlink:href="../../d1/dc2/gslpp__complex_8h.html" target="_top" xlink:title="gslpp_complex.h">
<polygon fill="none" stroke="#ff0000" points="64.1377,-.5 64.1377,-17.5 141.1377,-17.5 141.1377,-.5 64.1377,-.5"/>
<text text-anchor="middle" x="102.6377" y="-7.1" font-family="Helvetica,sans-Serif" font-size="8.00" fill="#000000">gslpp_complex.h</text>
</a>
</g>
</g>
<!-- Node2&#45;&gt;Node3 -->
<g id="edge3" class="edge">
<title>Node2&#45;&gt;Node3</title>
<path fill="none" stroke="#191970" d="M85.7897,-162.4653C51.4193,-143.8845 -21.271,-97.905 6.6377,-54 17.3515,-37.1455 36.2282,-26.4945 54.4239,-19.8161"/>
<polygon fill="#191970" stroke="#191970" points="55.7358,-23.0682 64.1172,-16.5873 53.5236,-16.427 55.7358,-23.0682"/>
</g>
<!-- Node7 -->
<g id="node5" class="node">
<title>Node7</title>
<g id="a_node5"><a xlink:href="../../da/d8e/gslpp__vector__double_8h.html" target="_top" xlink:title="gslpp_vector_double.h">
<polygon fill="none" stroke="#ff0000" points="16.1377,-54.5 16.1377,-71.5 113.1377,-71.5 113.1377,-54.5 16.1377,-54.5"/>
<text text-anchor="middle" x="64.6377" y="-61.1" font-family="Helvetica,sans-Serif" font-size="8.00" fill="#000000">gslpp_vector_double.h</text>
</a>
</g>
</g>
<!-- Node2&#45;&gt;Node7 -->
<g id="edge4" class="edge">
<title>Node2&#45;&gt;Node7</title>
<path fill="none" stroke="#191970" d="M98.9986,-162.4446C95.2215,-153.4444 89.2343,-138.8328 84.6377,-126 79.3103,-111.1269 73.9287,-94.0306 70.0919,-81.4037"/>
<polygon fill="#191970" stroke="#191970" points="73.3845,-80.1983 67.1581,-71.6262 66.6798,-82.2102 73.3845,-80.1983"/>
</g>
<!-- Node10 -->
<g id="node6" class="node">
<title>Node10</title>
<g id="a_node6"><a xlink:href="../../da/dad/gslpp__vector__complex_8h.html" target="_top" xlink:title="gslpp_vector_complex.h">
<polygon fill="none" stroke="#ff0000" points="170.1377,-54.5 170.1377,-71.5 273.1377,-71.5 273.1377,-54.5 170.1377,-54.5"/>
<text text-anchor="middle" x="221.6377" y="-61.1" font-family="Helvetica,sans-Serif" font-size="8.00" fill="#000000">gslpp_vector_complex.h</text>
</a>
</g>
</g>
<!-- Node2&#45;&gt;Node10 -->
<g id="edge6" class="edge">
<title>Node2&#45;&gt;Node10</title>
<path fill="none" stroke="#191970" d="M123.6523,-163.4659C148.8152,-154.0776 188.9175,-137.8307 199.6377,-126 210.6988,-113.7933 216.2596,-95.7113 219.0178,-82.0462"/>
<polygon fill="#191970" stroke="#191970" points="222.5285,-82.2742 220.7347,-71.8323 215.6253,-81.1138 222.5285,-82.2742"/>
</g>
<!-- Node12 -->
<g id="node7" class="node">
<title>Node12</title>
<g id="a_node7"><a xlink:href="../../d0/ddb/gslpp__matrix__double_8h.html" target="_top" xlink:title="gslpp_matrix_double.h">
<polygon fill="none" stroke="#ff0000" points="93.1377,-108.5 93.1377,-125.5 190.1377,-125.5 190.1377,-108.5 93.1377,-108.5"/>
<text text-anchor="middle" x="141.6377" y="-115.1" font-family="Helvetica,sans-Serif" font-size="8.00" fill="#000000">gslpp_matrix_double.h</text>
</a>
</g>
</g>
<!-- Node2&#45;&gt;Node12 -->
<g id="edge8" class="edge">
<title>Node2&#45;&gt;Node12</title>
<path fill="none" stroke="#191970" d="M109.0778,-162.083C114.5866,-154.4554 122.6689,-143.2645 129.4027,-133.9408"/>
<polygon fill="#191970" stroke="#191970" points="132.2999,-135.9071 135.3175,-125.7511 126.6252,-131.8087 132.2999,-135.9071"/>
</g>
<!-- Node7&#45;&gt;Node3 -->
<g id="edge5" class="edge">
<title>Node7&#45;&gt;Node3</title>
<path fill="none" stroke="#191970" d="M70.9127,-54.083C76.2802,-46.4554 84.1553,-35.2645 90.7164,-25.9408"/>
<polygon fill="#191970" stroke="#191970" points="93.5869,-27.9434 96.4796,-17.7511 87.8623,-23.9149 93.5869,-27.9434"/>
</g>
<!-- Node10&#45;&gt;Node3 -->
<g id="edge7" class="edge">
<title>Node10&#45;&gt;Node3</title>
<path fill="none" stroke="#191970" d="M202.7818,-54.4435C183.3717,-45.6356 152.9077,-31.8116 130.6732,-21.722"/>
<polygon fill="#191970" stroke="#191970" points="131.958,-18.4615 121.4054,-17.5164 129.0654,-24.836 131.958,-18.4615"/>
</g>
<!-- Node12&#45;&gt;Node3 -->
<g id="edge9" class="edge">
<title>Node12&#45;&gt;Node3</title>
<path fill="none" stroke="#191970" d="M139.3925,-108.3273C136.1372,-96.0744 129.7168,-73.0629 122.6377,-54 119.2895,-44.9836 115.0216,-35.2014 111.2891,-27.0677"/>
<polygon fill="#191970" stroke="#191970" points="114.3712,-25.3967 106.9569,-17.8284 108.0333,-28.3685 114.3712,-25.3967"/>
</g>
<!-- Node12&#45;&gt;Node7 -->
<g id="edge10" class="edge">
<title>Node12&#45;&gt;Node7</title>
<path fill="none" stroke="#191970" d="M129.2663,-108.324C117.4792,-100.0577 99.5054,-87.4527 85.5022,-77.6322"/>
<polygon fill="#191970" stroke="#191970" points="87.1754,-74.5307 76.9784,-71.6545 83.1561,-80.2619 87.1754,-74.5307"/>
</g>
<!-- Node12&#45;&gt;Node10 -->
<g id="edge11" class="edge">
<title>Node12&#45;&gt;Node10</title>
<path fill="none" stroke="#191970" d="M154.4911,-108.324C166.8541,-99.979 185.7678,-87.2122 200.3749,-77.3524"/>
<polygon fill="#191970" stroke="#191970" points="202.4859,-80.1503 208.8162,-71.6545 198.5696,-74.3483 202.4859,-80.1503"/>
</g>
</g>
</svg>
