<?xml version="1.0" encoding="UTF-8" standalone="no"?>
<!DOCTYPE svg PUBLIC "-//W3C//DTD SVG 1.1//EN"
 "http://www.w3.org/Graphics/SVG/1.1/DTD/svg11.dtd">
<!-- Generated by graphviz version 2.40.1 (20161225.0304)
 -->
<!-- Title: log10_gg_H1_gaga_TH8 Pages: 1 -->
<svg width="439pt" height="288pt"
 viewBox="0.00 0.00 438.50 288.00" xmlns="http://www.w3.org/2000/svg" xmlns:xlink="http://www.w3.org/1999/xlink">
<g id="graph0" class="graph" transform="scale(1 1) rotate(0) translate(4 284)">
<title>log10_gg_H1_gaga_TH8</title>
<!-- Node2 -->
<g id="node1" class="node">
<title>Node2</title>
<polygon fill="#bfbfbf" stroke="#000000" points="0,-.5 0,-17.5 106,-17.5 106,-.5 0,-.5"/>
<text text-anchor="middle" x="53" y="-7.1" font-family="Helvetica,sans-Serif" font-size="8.00" fill="#000000">log10_gg_H1_gaga_TH8</text>
</g>
<!-- Node3 -->
<g id="node2" class="node">
<title>Node3</title>
<g id="a_node2"><a xlink:href="../../dc/d1f/class_th_observable.html" target="_top" xlink:title="A class for a model prediction of an observable. ">
<polygon fill="none" stroke="#000000" points="3.5,-99.5 3.5,-116.5 70.5,-116.5 70.5,-99.5 3.5,-99.5"/>
<text text-anchor="middle" x="37" y="-106.1" font-family="Helvetica,sans-Serif" font-size="8.00" fill="#000000">ThObservable</text>
</a>
</g>
</g>
<!-- Node3&#45;&gt;Node2 -->
<g id="edge1" class="edge">
<title>Node3&#45;&gt;Node2</title>
<path fill="none" stroke="#191970" d="M40.0182,-89.3249C43.4877,-67.8571 49.034,-33.5398 51.6061,-17.6245"/>
<polygon fill="#191970" stroke="#191970" points="36.5603,-88.7841 38.4199,-99.2144 43.4706,-89.9009 36.5603,-88.7841"/>
</g>
<!-- Node4 -->
<g id="node3" class="node">
<title>Node4</title>
<g id="a_node3"><a xlink:href="../../dc/dd5/class_standard_model.html" target="_top" xlink:title="A model class for the Standard Model. ">
<polygon fill="none" stroke="#ff0000" points="210.5,-207.5 210.5,-224.5 281.5,-224.5 281.5,-207.5 210.5,-207.5"/>
<text text-anchor="middle" x="246" y="-214.1" font-family="Helvetica,sans-Serif" font-size="8.00" fill="#000000">StandardModel</text>
</a>
</g>
</g>
<!-- Node4&#45;&gt;Node3 -->
<g id="edge2" class="edge">
<title>Node4&#45;&gt;Node3</title>
<path fill="none" stroke="#9a32cd" stroke-dasharray="5,2" d="M200.3247,-208.0106C151.0437,-198.5473 76.8154,-181.5747 56,-162 43.1129,-149.881 38.9612,-128.5082 37.6276,-116.6092"/>
<polygon fill="#9a32cd" stroke="#9a32cd" points="199.9588,-211.5032 210.4338,-209.9142 201.2543,-204.6241 199.9588,-211.5032"/>
<text text-anchor="middle" x="122.5" y="-182.6" font-family="Helvetica,sans-Serif" font-size="8.00" fill="#000000"> SM</text>
</g>
<!-- Node9 -->
<g id="node6" class="node">
<title>Node9</title>
<g id="a_node6"><a xlink:href="../../dc/df3/class_e_w_s_mcache.html" target="_top" xlink:title="A class for cache variables used in computing radiative corrections to the EW precision observables...">
<polygon fill="none" stroke="#ff0000" points="367.5,-140 367.5,-157 430.5,-157 430.5,-140 367.5,-140"/>
<text text-anchor="middle" x="399" y="-146.6" font-family="Helvetica,sans-Serif" font-size="8.00" fill="#000000">EWSMcache</text>
</a>
</g>
</g>
<!-- Node4&#45;&gt;Node9 -->
<g id="edge6" class="edge">
<title>Node4&#45;&gt;Node9</title>
<path fill="none" stroke="#9a32cd" stroke-dasharray="5,2" d="M274.646,-203.362C305.1807,-189.8909 352.713,-168.9207 379.2965,-157.1927"/>
<polygon fill="#9a32cd" stroke="#9a32cd" points="273.114,-200.2124 265.3776,-207.4511 275.9395,-206.6168 273.114,-200.2124"/>
<text text-anchor="middle" x="334.5" y="-182.6" font-family="Helvetica,sans-Serif" font-size="8.00" fill="#000000"> SM</text>
</g>
<!-- Node48 -->
<g id="node8" class="node">
<title>Node48</title>
<g id="a_node8"><a xlink:href="../../d2/df3/class_n_pbase.html" target="_top" xlink:title="The auxiliary base model class for other model classes. ">
<polygon fill="none" stroke="#000000" points="186.5,-140 186.5,-157 231.5,-157 231.5,-140 186.5,-140"/>
<text text-anchor="middle" x="209" y="-146.6" font-family="Helvetica,sans-Serif" font-size="8.00" fill="#000000">NPbase</text>
</a>
</g>
</g>
<!-- Node4&#45;&gt;Node48 -->
<g id="edge10" class="edge">
<title>Node4&#45;&gt;Node48</title>
<path fill="none" stroke="#191970" d="M216.4868,-201.8791C211.8692,-198.3354 207.7289,-194.0645 205,-189 199.6376,-179.048 202.5407,-165.7157 205.4721,-157.116"/>
<polygon fill="#191970" stroke="#191970" points="214.8206,-204.9705 225.1124,-207.4867 218.636,-199.1017 214.8206,-204.9705"/>
</g>
<!-- Node4&#45;&gt;Node48 -->
<g id="edge11" class="edge">
<title>Node4&#45;&gt;Node48</title>
<path fill="none" stroke="#9a32cd" stroke-dasharray="5,2" d="M231.8965,-199.3772C229.4217,-196.0561 227.0017,-192.5071 225,-189 219.0789,-178.6259 214.3719,-165.6301 211.6359,-157.2004"/>
<polygon fill="#9a32cd" stroke="#9a32cd" points="229.3586,-201.8087 238.3259,-207.4512 234.8345,-197.4481 229.3586,-201.8087"/>
<text text-anchor="middle" x="239.5" y="-182.6" font-family="Helvetica,sans-Serif" font-size="8.00" fill="#000000"> trueSM</text>
</g>
<!-- Node5 -->
<g id="node4" class="node">
<title>Node5</title>
<g id="a_node4"><a xlink:href="../../dd/dfa/class_q_c_d.html" target="_top" xlink:title="A class for parameters related to QCD, hadrons and quarks. ">
<polygon fill="none" stroke="#ff0000" points="229,-262.5 229,-279.5 263,-279.5 263,-262.5 229,-262.5"/>
<text text-anchor="middle" x="246" y="-269.1" font-family="Helvetica,sans-Serif" font-size="8.00" fill="#000000">QCD</text>
</a>
</g>
</g>
<!-- Node5&#45;&gt;Node4 -->
<g id="edge3" class="edge">
<title>Node5&#45;&gt;Node4</title>
<path fill="none" stroke="#191970" d="M246,-252.1166C246,-242.8173 246,-232.0557 246,-224.7149"/>
<polygon fill="#191970" stroke="#191970" points="242.5001,-252.4062 246,-262.4063 249.5001,-252.4063 242.5001,-252.4062"/>
</g>
<!-- Node8 -->
<g id="node5" class="node">
<title>Node8</title>
<g id="a_node5"><a xlink:href="../../db/d32/class_e_w_s_m_two_fermions_l_e_p2.html" target="_top" xlink:title="A class for the form factors , &#160;and &#160;in the processes &#160;at LEP&#45;II. ">
<polygon fill="none" stroke="#ff0000" points="254.5,-63.5 254.5,-80.5 363.5,-80.5 363.5,-63.5 254.5,-63.5"/>
<text text-anchor="middle" x="309" y="-70.1" font-family="Helvetica,sans-Serif" font-size="8.00" fill="#000000">EWSMTwoFermionsLEP2</text>
</a>
</g>
</g>
<!-- Node8&#45;&gt;Node4 -->
<g id="edge4" class="edge">
<title>Node8&#45;&gt;Node4</title>
<path fill="none" stroke="#9a32cd" stroke-dasharray="5,2" d="M299.7739,-89.7744C293.3934,-102.2955 284.8528,-119.5203 278,-135 266.4932,-160.9927 254.6292,-192.4925 249.1383,-207.3928"/>
<polygon fill="#9a32cd" stroke="#9a32cd" points="302.8951,-91.3582 304.3544,-80.8644 296.6695,-88.1578 302.8951,-91.3582"/>
<text text-anchor="middle" x="318.5" y="-146.6" font-family="Helvetica,sans-Serif" font-size="8.00" fill="#000000"> myTwoFermionsLEP2</text>
</g>
<!-- Node9&#45;&gt;Node4 -->
<g id="edge7" class="edge">
<title>Node9&#45;&gt;Node4</title>
<path fill="none" stroke="#9a32cd" stroke-dasharray="5,2" d="M382.201,-164.0638C372.3051,-172.5023 359.1744,-182.5038 346,-189 325.8392,-198.9411 301.5248,-205.6114 281.9198,-209.8349"/>
<polygon fill="#9a32cd" stroke="#9a32cd" points="384.8138,-166.4255 389.9846,-157.1781 380.1757,-161.1826 384.8138,-166.4255"/>
<text text-anchor="middle" x="390" y="-182.6" font-family="Helvetica,sans-Serif" font-size="8.00" fill="#000000"> myEWSMcache</text>
</g>
<!-- Node9&#45;&gt;Node8 -->
<g id="edge5" class="edge">
<title>Node9&#45;&gt;Node8</title>
<path fill="none" stroke="#9a32cd" stroke-dasharray="5,2" d="M380.9162,-133.1288C362.3726,-117.3667 334.1883,-93.4101 319.2037,-80.6732"/>
<polygon fill="#9a32cd" stroke="#9a32cd" points="378.7897,-135.9148 388.6759,-139.7245 383.3232,-130.5812 378.7897,-135.9148"/>
<text text-anchor="middle" x="371" y="-106.1" font-family="Helvetica,sans-Serif" font-size="8.00" fill="#000000"> cache</text>
</g>
<!-- Node47 -->
<g id="node7" class="node">
<title>Node47</title>
<g id="a_node7"><a xlink:href="../../db/d2b/class_georgi_machacek.html" target="_top" xlink:title="A base class for the Georgi&#45;Machacek model. ">
<polygon fill="none" stroke="#000000" points="80.5,-63.5 80.5,-80.5 157.5,-80.5 157.5,-63.5 80.5,-63.5"/>
<text text-anchor="middle" x="119" y="-70.1" font-family="Helvetica,sans-Serif" font-size="8.00" fill="#000000">GeorgiMachacek</text>
</a>
</g>
</g>
<!-- Node47&#45;&gt;Node2 -->
<g id="edge8" class="edge">
<title>Node47&#45;&gt;Node2</title>
<path fill="none" stroke="#9a32cd" stroke-dasharray="5,2" d="M98.2075,-57.0713C93.3868,-53.3112 88.3869,-49.1569 84,-45 74.8998,-36.3769 65.6773,-25.3024 59.686,-17.7274"/>
<polygon fill="#9a32cd" stroke="#9a32cd" points="96.4256,-60.1108 106.5199,-63.3289 100.6357,-54.5184 96.4256,-60.1108"/>
<text text-anchor="middle" x="97" y="-38.6" font-family="Helvetica,sans-Serif" font-size="8.00" fill="#000000"> myGM</text>
</g>
<!-- Node51 -->
<g id="node10" class="node">
<title>Node51</title>
<g id="a_node10"><a xlink:href="../../d7/db7/class_g_mcache.html" target="_top" xlink:title="A class for the caching of GeorgiMachacek objects. ">
<polygon fill="none" stroke="#ff0000" points="133.5,-.5 133.5,-17.5 184.5,-17.5 184.5,-.5 133.5,-.5"/>
<text text-anchor="middle" x="159" y="-7.1" font-family="Helvetica,sans-Serif" font-size="8.00" fill="#000000">GMcache</text>
</a>
</g>
</g>
<!-- Node47&#45;&gt;Node51 -->
<g id="edge14" class="edge">
<title>Node47&#45;&gt;Node51</title>
<path fill="none" stroke="#9a32cd" stroke-dasharray="5,2" d="M113.5412,-53.6116C112.7788,-47.6821 113.0792,-41.2828 116,-36 120.5211,-27.8228 128.6704,-21.7882 136.6682,-17.5239"/>
<polygon fill="#9a32cd" stroke="#9a32cd" points="110.1382,-54.4324 115.7251,-63.4345 116.9714,-52.9132 110.1382,-54.4324"/>
<text text-anchor="middle" x="129" y="-38.6" font-family="Helvetica,sans-Serif" font-size="8.00" fill="#000000"> myGM</text>
</g>
<!-- Node48&#45;&gt;Node47 -->
<g id="edge9" class="edge">
<title>Node48&#45;&gt;Node47</title>
<path fill="none" stroke="#191970" d="M190.9162,-133.1288C172.3726,-117.3667 144.1883,-93.4101 129.2037,-80.6732"/>
<polygon fill="#191970" stroke="#191970" points="188.7897,-135.9148 198.6759,-139.7245 193.3232,-130.5812 188.7897,-135.9148"/>
</g>
<!-- Node49 -->
<g id="node9" class="node">
<title>Node49</title>
<g id="a_node9"><a xlink:href="../../d5/d76/class_matching.html" target="_top" xlink:title="Matching\&lt; GMMatching,\l GeorgiMachacek \&gt;">
<polygon fill="none" stroke="#ff0000" points="65.5,-135.5 65.5,-161.5 168.5,-161.5 168.5,-135.5 65.5,-135.5"/>
<text text-anchor="start" x="73.5" y="-151.1" font-family="Helvetica,sans-Serif" font-size="8.00" fill="#000000">Matching&lt; GMMatching,</text>
<text text-anchor="middle" x="117" y="-142.1" font-family="Helvetica,sans-Serif" font-size="8.00" fill="#000000"> GeorgiMachacek &gt;</text>
</a>
</g>
</g>
<!-- Node49&#45;&gt;Node47 -->
<g id="edge12" class="edge">
<title>Node49&#45;&gt;Node47</title>
<path fill="none" stroke="#9a32cd" stroke-dasharray="5,2" d="M117.6121,-125.0882C118.0027,-110.1453 118.4869,-91.6269 118.7679,-80.8783"/>
<polygon fill="#9a32cd" stroke="#9a32cd" points="114.111,-125.0866 117.3484,-135.1747 121.1086,-125.2696 114.111,-125.0866"/>
<text text-anchor="middle" x="130" y="-106.1" font-family="Helvetica,sans-Serif" font-size="8.00" fill="#000000"> GMM</text>
</g>
<!-- Node51&#45;&gt;Node47 -->
<g id="edge13" class="edge">
<title>Node51&#45;&gt;Node47</title>
<path fill="none" stroke="#9a32cd" stroke-dasharray="5,2" d="M154.0587,-27.4842C152.0481,-33.3403 149.3851,-39.6716 146,-45 141.5921,-51.9384 135.1196,-58.4899 129.6168,-63.4015"/>
<polygon fill="#9a32cd" stroke="#9a32cd" points="157.4501,-28.3605 156.9884,-17.7757 150.7486,-26.3382 157.4501,-28.3605"/>
<text text-anchor="middle" x="175" y="-38.6" font-family="Helvetica,sans-Serif" font-size="8.00" fill="#000000"> myGMcache</text>
</g>
</g>
</svg>
