<?xml version="1.0" encoding="UTF-8" standalone="no"?>
<!DOCTYPE svg PUBLIC "-//W3C//DTD SVG 1.1//EN"
 "http://www.w3.org/Graphics/SVG/1.1/DTD/svg11.dtd">
<!-- Generated by graphviz version 2.40.1 (20161225.0304)
 -->
<!-- Title: EWSMOneLoopEW_HV Pages: 1 -->
<svg width="871pt" height="302pt"
 viewBox="0.00 0.00 871.00 302.00" xmlns="http://www.w3.org/2000/svg" xmlns:xlink="http://www.w3.org/1999/xlink">
<g id="graph0" class="graph" transform="scale(1 1) rotate(0) translate(4 298)">
<title>EWSMOneLoopEW_HV</title>
<!-- Node1 -->
<g id="node1" class="node">
<title>Node1</title>
<polygon fill="#bfbfbf" stroke="#000000" points="760,-7.5 760,-24.5 863,-24.5 863,-7.5 760,-7.5"/>
<text text-anchor="middle" x="811.5" y="-14.1" font-family="Helvetica,sans-Serif" font-size="8.00" fill="#000000">EWSMOneLoopEW_HV</text>
</g>
<!-- Node2 -->
<g id="node2" class="node">
<title>Node2</title>
<g id="a_node2"><a xlink:href="../../d4/d7b/class_p_vfunctions.html" target="_top" xlink:title="A class for Passarino&#45;Veltman functions. ">
<polygon fill="none" stroke="#000000" points="145,-20.5 145,-37.5 204,-37.5 204,-20.5 145,-20.5"/>
<text text-anchor="middle" x="174.5" y="-27.1" font-family="Helvetica,sans-Serif" font-size="8.00" fill="#000000">PVfunctions</text>
</a>
</g>
</g>
<!-- Node2&#45;&gt;Node1 -->
<g id="edge1" class="edge">
<title>Node2&#45;&gt;Node1</title>
<path fill="none" stroke="#9a32cd" stroke-dasharray="5,2" d="M203.7276,-16.9061C225.5833,-8.9502 256.4122,0 284.5,0 284.5,0 284.5,0 673.5,0 703.0456,0 735.914,-3.6636 762.1599,-7.4847"/>
<polygon fill="#9a32cd" stroke="#9a32cd" points="202.4703,-13.6396 194.3593,-20.4559 204.9507,-20.1855 202.4703,-13.6396"/>
<text text-anchor="middle" x="448.5" y="-2.6" font-family="Helvetica,sans-Serif" font-size="8.00" fill="#000000"> PV</text>
</g>
<!-- Node10 -->
<g id="node7" class="node">
<title>Node10</title>
<g id="a_node7"><a xlink:href="../../dc/df3/class_e_w_s_mcache.html" target="_top" xlink:title="A class for cache variables used in computing radiative corrections to the EW precision observables...">
<polygon fill="none" stroke="#ff0000" points="253,-65.5 253,-82.5 316,-82.5 316,-65.5 253,-65.5"/>
<text text-anchor="middle" x="284.5" y="-72.1" font-family="Helvetica,sans-Serif" font-size="8.00" fill="#000000">EWSMcache</text>
</a>
</g>
</g>
<!-- Node2&#45;&gt;Node10 -->
<g id="edge7" class="edge">
<title>Node2&#45;&gt;Node10</title>
<path fill="none" stroke="#9a32cd" stroke-dasharray="5,2" d="M209.092,-40.9974C217.6171,-44.1134 226.685,-47.5639 235,-51 245.6845,-55.4153 257.4274,-60.8458 266.7933,-65.3212"/>
<polygon fill="#9a32cd" stroke="#9a32cd" points="210.0056,-37.6065 199.4111,-37.5139 207.6355,-44.193 210.0056,-37.6065"/>
<text text-anchor="middle" x="228.5" y="-53.6" font-family="Helvetica,sans-Serif" font-size="8.00" fill="#000000"> PV</text>
</g>
<!-- Node3 -->
<g id="node3" class="node">
<title>Node3</title>
<g id="a_node3"><a xlink:href="../../d8/db3/class_polylogarithms.html" target="_top" xlink:title="A class for the polylogarithms. ">
<polygon fill="none" stroke="#ff0000" points="0,-43.5 0,-60.5 69,-60.5 69,-43.5 0,-43.5"/>
<text text-anchor="middle" x="34.5" y="-50.1" font-family="Helvetica,sans-Serif" font-size="8.00" fill="#000000">Polylogarithms</text>
</a>
</g>
</g>
<!-- Node3&#45;&gt;Node2 -->
<g id="edge2" class="edge">
<title>Node3&#45;&gt;Node2</title>
<path fill="none" stroke="#9a32cd" stroke-dasharray="5,2" d="M79.2508,-44.6481C100.5916,-41.1421 125.5478,-37.0421 144.5604,-33.9186"/>
<polygon fill="#9a32cd" stroke="#9a32cd" points="78.4071,-41.2397 69.1068,-46.3146 79.5419,-48.1471 78.4071,-41.2397"/>
<text text-anchor="middle" x="107" y="-46.6" font-family="Helvetica,sans-Serif" font-size="8.00" fill="#000000"> myPolylog</text>
</g>
<!-- Node3&#45;&gt;Node10 -->
<g id="edge8" class="edge">
<title>Node3&#45;&gt;Node10</title>
<path fill="none" stroke="#9a32cd" stroke-dasharray="5,2" d="M79.3017,-56.2943C81.9061,-56.5354 84.4867,-56.7722 87,-57 145.4379,-62.2977 213.6411,-68.0795 252.6802,-71.3506"/>
<polygon fill="#9a32cd" stroke="#9a32cd" points="79.5136,-52.799 69.2311,-55.3526 78.8618,-59.7686 79.5136,-52.799"/>
<text text-anchor="middle" x="174.5" y="-69.6" font-family="Helvetica,sans-Serif" font-size="8.00" fill="#000000"> PolyLog</text>
</g>
<!-- Node5 -->
<g id="node4" class="node">
<title>Node5</title>
<g id="a_node4"><a xlink:href="../../dc/dd5/class_standard_model.html" target="_top" xlink:title="A model class for the Standard Model. ">
<polygon fill="none" stroke="#ff0000" points="638,-126.5 638,-143.5 709,-143.5 709,-126.5 638,-126.5"/>
<text text-anchor="middle" x="673.5" y="-133.1" font-family="Helvetica,sans-Serif" font-size="8.00" fill="#000000">StandardModel</text>
</a>
</g>
</g>
<!-- Node5&#45;&gt;Node1 -->
<g id="edge3" class="edge">
<title>Node5&#45;&gt;Node1</title>
<path fill="none" stroke="#9a32cd" stroke-dasharray="5,2" d="M691.2002,-119.7368C720.4487,-94.5153 777.9528,-44.9284 801.293,-24.8017"/>
<polygon fill="#9a32cd" stroke="#9a32cd" points="688.7121,-117.2607 683.4246,-126.4418 693.2835,-122.5619 688.7121,-117.2607"/>
<text text-anchor="middle" x="734.5" y="-88.6" font-family="Helvetica,sans-Serif" font-size="8.00" fill="#000000"> SM</text>
</g>
<!-- Node5&#45;&gt;Node10 -->
<g id="edge9" class="edge">
<title>Node5&#45;&gt;Node10</title>
<path fill="none" stroke="#9a32cd" stroke-dasharray="5,2" d="M666.5344,-153.0164C658.2265,-172.233 642.5688,-202.2885 620,-220 533.9127,-287.5595 469.3433,-310.1169 376,-253 311.6968,-213.6527 290.7651,-113.2714 285.7939,-82.8628"/>
<polygon fill="#9a32cd" stroke="#9a32cd" points="669.8386,-154.1833 670.3909,-143.6029 663.3611,-151.5296 669.8386,-154.1833"/>
<text text-anchor="middle" x="448.5" y="-287.6" font-family="Helvetica,sans-Serif" font-size="8.00" fill="#000000"> SM</text>
</g>
<!-- Node6 -->
<g id="node5" class="node">
<title>Node6</title>
<g id="a_node5"><a xlink:href="../../dd/dfa/class_q_c_d.html" target="_top" xlink:title="A class for parameters related to QCD, hadrons and quarks. ">
<polygon fill="none" stroke="#ff0000" points="431.5,-226.5 431.5,-243.5 465.5,-243.5 465.5,-226.5 431.5,-226.5"/>
<text text-anchor="middle" x="448.5" y="-233.1" font-family="Helvetica,sans-Serif" font-size="8.00" fill="#000000">QCD</text>
</a>
</g>
</g>
<!-- Node6&#45;&gt;Node5 -->
<g id="edge4" class="edge">
<title>Node6&#45;&gt;Node5</title>
<path fill="none" stroke="#191970" d="M475.8323,-232.7071C511.2519,-228.7231 573.9211,-218.155 620,-191 640.8512,-178.7121 658.83,-156.0185 667.6672,-143.6272"/>
<polygon fill="#191970" stroke="#191970" points="475.3525,-229.2379 465.7633,-233.7433 476.0691,-236.2012 475.3525,-229.2379"/>
</g>
<!-- Node9 -->
<g id="node6" class="node">
<title>Node9</title>
<g id="a_node6"><a xlink:href="../../db/d32/class_e_w_s_m_two_fermions_l_e_p2.html" target="_top" xlink:title="A class for the form factors , &#160;and &#160;in the processes &#160;at LEP&#45;II. ">
<polygon fill="none" stroke="#ff0000" points="394,-72.5 394,-89.5 503,-89.5 503,-72.5 394,-72.5"/>
<text text-anchor="middle" x="448.5" y="-79.1" font-family="Helvetica,sans-Serif" font-size="8.00" fill="#000000">EWSMTwoFermionsLEP2</text>
</a>
</g>
</g>
<!-- Node9&#45;&gt;Node5 -->
<g id="edge5" class="edge">
<title>Node9&#45;&gt;Node5</title>
<path fill="none" stroke="#9a32cd" stroke-dasharray="5,2" d="M513.6257,-85.0696C546.2015,-88.4576 585.86,-94.6584 620,-106 634.6383,-110.863 649.981,-119.6115 660.4634,-126.232"/>
<polygon fill="#9a32cd" stroke="#9a32cd" points="513.6061,-81.5512 503.3139,-84.0655 512.9276,-88.5183 513.6061,-81.5512"/>
<text text-anchor="middle" x="579.5" y="-108.6" font-family="Helvetica,sans-Serif" font-size="8.00" fill="#000000"> myTwoFermionsLEP2</text>
</g>
<!-- Node10&#45;&gt;Node5 -->
<g id="edge10" class="edge">
<title>Node10&#45;&gt;Node5</title>
<path fill="none" stroke="#9a32cd" stroke-dasharray="5,2" d="M325.4759,-63.0731C341.1582,-59.4126 359.2905,-55.8049 376,-54 440.0718,-47.0793 457.2517,-44.5533 521,-54 566.4792,-60.7395 580.282,-60.8427 620,-84 639.289,-95.2463 657.0727,-114.7654 666.4863,-126.1159"/>
<polygon fill="#9a32cd" stroke="#9a32cd" points="324.4622,-59.7172 315.5638,-65.4678 326.1061,-66.5215 324.4622,-59.7172"/>
<text text-anchor="middle" x="448.5" y="-56.6" font-family="Helvetica,sans-Serif" font-size="8.00" fill="#000000"> myEWSMcache</text>
</g>
<!-- Node10&#45;&gt;Node9 -->
<g id="edge6" class="edge">
<title>Node10&#45;&gt;Node9</title>
<path fill="none" stroke="#9a32cd" stroke-dasharray="5,2" d="M326.3844,-75.7878C346.8575,-76.6616 371.7576,-77.7244 393.7194,-78.6618"/>
<polygon fill="#9a32cd" stroke="#9a32cd" points="326.261,-72.2794 316.1208,-75.3497 325.9625,-79.273 326.261,-72.2794"/>
<text text-anchor="middle" x="346" y="-79.6" font-family="Helvetica,sans-Serif" font-size="8.00" fill="#000000"> cache</text>
</g>
<!-- Node13 -->
<g id="node8" class="node">
<title>Node13</title>
<g id="a_node8"><a xlink:href="../../d5/d76/class_matching.html" target="_top" xlink:title="Matching\&lt; StandardModelMatching,\l StandardModel \&gt;">
<polygon fill="none" stroke="#ff0000" points="376,-181 376,-207 521,-207 521,-181 376,-181"/>
<text text-anchor="start" x="384" y="-196.6" font-family="Helvetica,sans-Serif" font-size="8.00" fill="#000000">Matching&lt; StandardModelMatching,</text>
<text text-anchor="middle" x="448.5" y="-187.6" font-family="Helvetica,sans-Serif" font-size="8.00" fill="#000000"> StandardModel &gt;</text>
</a>
</g>
</g>
<!-- Node13&#45;&gt;Node5 -->
<g id="edge11" class="edge">
<title>Node13&#45;&gt;Node5</title>
<path fill="none" stroke="#9a32cd" stroke-dasharray="5,2" d="M531.0144,-180.1359C559.5211,-174.4386 591.4589,-167.0314 620,-158 632.338,-154.0958 645.713,-148.3458 656.0035,-143.5719"/>
<polygon fill="#9a32cd" stroke="#9a32cd" points="530.2268,-176.7236 521.0855,-182.0797 531.5717,-183.5932 530.2268,-176.7236"/>
<text text-anchor="middle" x="579.5" y="-180.6" font-family="Helvetica,sans-Serif" font-size="8.00" fill="#000000"> SMM</text>
</g>
<!-- Node31 -->
<g id="node9" class="node">
<title>Node31</title>
<g id="a_node9"><a xlink:href="../../d9/db9/class_c_k_m.html" target="_top" xlink:title="A class for the CKM matrix elements. ">
<polygon fill="none" stroke="#ff0000" points="431.5,-144.5 431.5,-161.5 465.5,-161.5 465.5,-144.5 431.5,-144.5"/>
<text text-anchor="middle" x="448.5" y="-151.1" font-family="Helvetica,sans-Serif" font-size="8.00" fill="#000000">CKM</text>
</a>
</g>
</g>
<!-- Node31&#45;&gt;Node5 -->
<g id="edge12" class="edge">
<title>Node31&#45;&gt;Node5</title>
<path fill="none" stroke="#9a32cd" stroke-dasharray="5,2" d="M476.0075,-150.7994C516.6185,-147.5505 592.6502,-141.468 637.6032,-137.8717"/>
<polygon fill="#9a32cd" stroke="#9a32cd" points="475.4708,-147.3311 465.7818,-151.6175 476.0291,-154.3088 475.4708,-147.3311"/>
<text text-anchor="middle" x="579.5" y="-147.6" font-family="Helvetica,sans-Serif" font-size="8.00" fill="#000000"> myCKM</text>
</g>
<!-- Node32 -->
<g id="node10" class="node">
<title>Node32</title>
<g id="a_node10"><a xlink:href="../../d5/d59/class_p_m_n_s.html" target="_top" xlink:title="A class for the PMNS matrix elements. ">
<polygon fill="none" stroke="#ff0000" points="428.5,-108.5 428.5,-125.5 468.5,-125.5 468.5,-108.5 428.5,-108.5"/>
<text text-anchor="middle" x="448.5" y="-115.1" font-family="Helvetica,sans-Serif" font-size="8.00" fill="#000000">PMNS</text>
</a>
</g>
</g>
<!-- Node32&#45;&gt;Node5 -->
<g id="edge13" class="edge">
<title>Node32&#45;&gt;Node5</title>
<path fill="none" stroke="#9a32cd" stroke-dasharray="5,2" d="M478.9253,-117.5481C513.2761,-118.4103 570.7941,-120.588 620,-126 625.8046,-126.6384 631.9356,-127.4955 637.8945,-128.4279"/>
<polygon fill="#9a32cd" stroke="#9a32cd" points="478.704,-114.0422 468.6264,-117.312 478.5435,-121.0404 478.704,-114.0422"/>
<text text-anchor="middle" x="579.5" y="-128.6" font-family="Helvetica,sans-Serif" font-size="8.00" fill="#000000"> myPMNS</text>
</g>
</g>
</svg>
