<?xml version="1.0" encoding="UTF-8" standalone="no"?>
<!DOCTYPE svg PUBLIC "-//W3C//DTD SVG 1.1//EN"
 "http://www.w3.org/Graphics/SVG/1.1/DTD/svg11.dtd">
<!-- Generated by graphviz version 2.40.1 (20161225.0304)
 -->
<!-- Title: THDMWSignalStrengths.h Pages: 1 -->
<svg width="428pt" height="296pt"
 viewBox="0.00 0.00 427.50 296.00" xmlns="http://www.w3.org/2000/svg" xmlns:xlink="http://www.w3.org/1999/xlink">
<g id="graph0" class="graph" transform="scale(1 1) rotate(0) translate(4 292)">
<title>THDMWSignalStrengths.h</title>
<!-- Node0 -->
<g id="node1" class="node">
<title>Node0</title>
<polygon fill="#bfbfbf" stroke="#000000" points="9,-270.5 9,-287.5 119,-287.5 119,-270.5 9,-270.5"/>
<text text-anchor="middle" x="64" y="-277.1" font-family="Helvetica,sans-Serif" font-size="8.00" fill="#000000">THDMWSignalStrengths.h</text>
</g>
<!-- Node1 -->
<g id="node2" class="node">
<title>Node1</title>
<g id="a_node2"><a xlink:href="../../d2/de8/_n_pbase_8h.html" target="_top" xlink:title="NPbase.h">
<polygon fill="none" stroke="#000000" points="0,-54.5 0,-71.5 52,-71.5 52,-54.5 0,-54.5"/>
<text text-anchor="middle" x="26" y="-61.1" font-family="Helvetica,sans-Serif" font-size="8.00" fill="#000000">NPbase.h</text>
</a>
</g>
</g>
<!-- Node0&#45;&gt;Node1 -->
<g id="edge1" class="edge">
<title>Node0&#45;&gt;Node1</title>
<path fill="none" stroke="#191970" d="M62.4633,-270.265C56.8175,-238.1732 37.1424,-126.3358 29.2814,-81.6524"/>
<polygon fill="#191970" stroke="#191970" points="32.694,-80.8493 27.5142,-71.607 25.7999,-82.0622 32.694,-80.8493"/>
</g>
<!-- Node50 -->
<g id="node4" class="node">
<title>Node50</title>
<g id="a_node4"><a xlink:href="../../d7/dfb/_t_h_d_m_w_8h.html" target="_top" xlink:title="THDMW.h">
<polygon fill="none" stroke="#000000" points="64,-108.5 64,-125.5 118,-125.5 118,-108.5 64,-108.5"/>
<text text-anchor="middle" x="91" y="-115.1" font-family="Helvetica,sans-Serif" font-size="8.00" fill="#000000">THDMW.h</text>
</a>
</g>
</g>
<!-- Node0&#45;&gt;Node50 -->
<g id="edge3" class="edge">
<title>Node0&#45;&gt;Node50</title>
<path fill="none" stroke="#191970" d="M65.4516,-270.2902C69.6819,-244.9086 82.0667,-170.5998 87.8971,-135.6172"/>
<polygon fill="#191970" stroke="#191970" points="91.3495,-136.1923 89.5412,-125.7529 84.4447,-135.0414 91.3495,-136.1923"/>
</g>
<!-- Node54 -->
<g id="node6" class="node">
<title>Node54</title>
<g id="a_node6"><a xlink:href="../../d2/de6/_t_h_d_m_wcache_8h.html" target="_top" xlink:title="THDMWcache.h">
<polygon fill="none" stroke="#ff0000" points="149.5,-216.5 149.5,-233.5 224.5,-233.5 224.5,-216.5 149.5,-216.5"/>
<text text-anchor="middle" x="187" y="-223.1" font-family="Helvetica,sans-Serif" font-size="8.00" fill="#000000">THDMWcache.h</text>
</a>
</g>
</g>
<!-- Node0&#45;&gt;Node54 -->
<g id="edge7" class="edge">
<title>Node0&#45;&gt;Node54</title>
<path fill="none" stroke="#191970" d="M83.4897,-270.4435C103.6422,-261.5961 135.3229,-247.6875 158.3308,-237.5865"/>
<polygon fill="#191970" stroke="#191970" points="159.852,-240.7411 167.6015,-233.5164 157.038,-234.3316 159.852,-240.7411"/>
</g>
<!-- Node2 -->
<g id="node3" class="node">
<title>Node2</title>
<g id="a_node3"><a xlink:href="../../d6/d0a/_standard_model_8h.html" target="_top" xlink:title="StandardModel.h">
<polygon fill="none" stroke="#ff0000" points="14.5,-.5 14.5,-17.5 91.5,-17.5 91.5,-.5 14.5,-.5"/>
<text text-anchor="middle" x="53" y="-7.1" font-family="Helvetica,sans-Serif" font-size="8.00" fill="#000000">StandardModel.h</text>
</a>
</g>
</g>
<!-- Node1&#45;&gt;Node2 -->
<g id="edge2" class="edge">
<title>Node1&#45;&gt;Node2</title>
<path fill="none" stroke="#191970" d="M30.4585,-54.083C34.1543,-46.6913 39.5234,-35.9533 44.0945,-26.8111"/>
<polygon fill="#191970" stroke="#191970" points="47.2828,-28.2606 48.6245,-17.7511 41.0218,-25.1301 47.2828,-28.2606"/>
</g>
<!-- Node50&#45;&gt;Node1 -->
<g id="edge6" class="edge">
<title>Node50&#45;&gt;Node1</title>
<path fill="none" stroke="#191970" d="M80.5566,-108.324C70.8538,-100.2631 56.1847,-88.0765 44.5003,-78.3695"/>
<polygon fill="#191970" stroke="#191970" points="46.5619,-75.532 36.6334,-71.8339 42.0887,-80.9163 46.5619,-75.532"/>
</g>
<!-- Node50&#45;&gt;Node2 -->
<g id="edge4" class="edge">
<title>Node50&#45;&gt;Node2</title>
<path fill="none" stroke="#191970" d="M87.8903,-108.1619C81.6802,-90.5123 67.6325,-50.5872 59.3809,-27.1352"/>
<polygon fill="#191970" stroke="#191970" points="62.6672,-25.9298 56.0465,-17.6584 56.064,-28.2532 62.6672,-25.9298"/>
</g>
<!-- Node51 -->
<g id="node5" class="node">
<title>Node51</title>
<g id="a_node5"><a xlink:href="../../d4/d00/_t_h_d_m_w_matching_8h.html" target="_top" xlink:title="THDMWMatching.h">
<polygon fill="none" stroke="#ff0000" points="108,-54.5 108,-71.5 194,-71.5 194,-54.5 108,-54.5"/>
<text text-anchor="middle" x="151" y="-61.1" font-family="Helvetica,sans-Serif" font-size="8.00" fill="#000000">THDMWMatching.h</text>
</a>
</g>
</g>
<!-- Node50&#45;&gt;Node51 -->
<g id="edge5" class="edge">
<title>Node50&#45;&gt;Node51</title>
<path fill="none" stroke="#191970" d="M100.64,-108.324C109.5096,-100.3414 122.8747,-88.3128 133.6079,-78.6529"/>
<polygon fill="#191970" stroke="#191970" points="136.093,-81.1251 141.1846,-71.8339 131.4102,-75.922 136.093,-81.1251"/>
</g>
<!-- Node54&#45;&gt;Node50 -->
<g id="edge9" class="edge">
<title>Node54&#45;&gt;Node50</title>
<path fill="none" stroke="#191970" d="M169.3854,-216.369C154.8675,-208.5318 134.5344,-195.7974 121,-180 109.681,-166.7885 101.6206,-148.574 96.7248,-135.1272"/>
<polygon fill="#191970" stroke="#191970" points="100.0033,-133.8966 93.4751,-125.5519 93.3746,-136.1463 100.0033,-133.8966"/>
</g>
<!-- Node47 -->
<g id="node7" class="node">
<title>Node47</title>
<polygon fill="none" stroke="#bfbfbf" points="130,-162.5 130,-179.5 168,-179.5 168,-162.5 130,-162.5"/>
<text text-anchor="middle" x="149" y="-169.1" font-family="Helvetica,sans-Serif" font-size="8.00" fill="#000000">cmath</text>
</g>
<!-- Node54&#45;&gt;Node47 -->
<g id="edge8" class="edge">
<title>Node54&#45;&gt;Node47</title>
<path fill="none" stroke="#191970" d="M180.7251,-216.083C175.3575,-208.4554 167.4824,-197.2645 160.9213,-187.9408"/>
<polygon fill="#191970" stroke="#191970" points="163.7755,-185.9149 155.1582,-179.7511 158.0508,-189.9434 163.7755,-185.9149"/>
</g>
<!-- Node55 -->
<g id="node8" class="node">
<title>Node55</title>
<g id="a_node8"><a xlink:href="../../d6/d28/_runner_t_h_d_m_w_8h.html" target="_top" xlink:title="RunnerTHDMW.h">
<polygon fill="none" stroke="#000000" points="186,-162.5 186,-179.5 266,-179.5 266,-162.5 186,-162.5"/>
<text text-anchor="middle" x="226" y="-169.1" font-family="Helvetica,sans-Serif" font-size="8.00" fill="#000000">RunnerTHDMW.h</text>
</a>
</g>
</g>
<!-- Node54&#45;&gt;Node55 -->
<g id="edge10" class="edge">
<title>Node54&#45;&gt;Node55</title>
<path fill="none" stroke="#191970" d="M193.4401,-216.083C198.9489,-208.4554 207.0312,-197.2645 213.765,-187.9408"/>
<polygon fill="#191970" stroke="#191970" points="216.6622,-189.9071 219.6798,-179.7511 210.9874,-185.8087 216.6622,-189.9071"/>
</g>
<!-- Node56 -->
<g id="node9" class="node">
<title>Node56</title>
<g id="a_node9"><a xlink:href="../../d3/d6b/_p_vfunctions_8h.html" target="_top" xlink:title="PVfunctions.h">
<polygon fill="none" stroke="#ff0000" points="284,-162.5 284,-179.5 350,-179.5 350,-162.5 284,-162.5"/>
<text text-anchor="middle" x="317" y="-169.1" font-family="Helvetica,sans-Serif" font-size="8.00" fill="#000000">PVfunctions.h</text>
</a>
</g>
</g>
<!-- Node54&#45;&gt;Node56 -->
<g id="edge12" class="edge">
<title>Node54&#45;&gt;Node56</title>
<path fill="none" stroke="#191970" d="M207.5989,-216.4435C228.9934,-207.5566 262.6812,-193.5632 287.0244,-183.4514"/>
<polygon fill="#191970" stroke="#191970" points="288.6052,-186.5848 296.4975,-179.5164 285.9199,-180.1203 288.6052,-186.5848"/>
</g>
<!-- Node10 -->
<g id="node10" class="node">
<title>Node10</title>
<polygon fill="none" stroke="#bfbfbf" points="368.5,-162.5 368.5,-179.5 419.5,-179.5 419.5,-162.5 368.5,-162.5"/>
<text text-anchor="middle" x="394" y="-169.1" font-family="Helvetica,sans-Serif" font-size="8.00" fill="#000000">stdexcept</text>
</g>
<!-- Node54&#45;&gt;Node10 -->
<g id="edge13" class="edge">
<title>Node54&#45;&gt;Node10</title>
<path fill="none" stroke="#191970" d="M219.7998,-216.4435C257.5781,-206.5883 319.429,-190.4533 358.3649,-180.2961"/>
<polygon fill="#191970" stroke="#191970" points="359.4279,-183.636 368.2206,-177.7251 357.6609,-176.8627 359.4279,-183.636"/>
</g>
<!-- Node55&#45;&gt;Node50 -->
<g id="edge11" class="edge">
<title>Node55&#45;&gt;Node50</title>
<path fill="none" stroke="#191970" d="M204.6088,-162.4435C182.2927,-153.5171 147.0968,-139.4387 121.792,-129.3168"/>
<polygon fill="#191970" stroke="#191970" points="122.8757,-125.9807 112.2911,-125.5164 120.276,-132.4801 122.8757,-125.9807"/>
</g>
</g>
</svg>
