<?xml version="1.0" encoding="UTF-8" standalone="no"?>
<!DOCTYPE svg PUBLIC "-//W3C//DTD SVG 1.1//EN"
 "http://www.w3.org/Graphics/SVG/1.1/DTD/svg11.dtd">
<!-- Generated by graphviz version 2.40.1 (20161225.0304)
 -->
<!-- Title: LHPC::MassSpectrumClass::ChargedSleptonsOneToSix Pages: 1 -->
<svg width="953pt" height="211pt"
 viewBox="0.00 0.00 953.00 210.50" xmlns="http://www.w3.org/2000/svg" xmlns:xlink="http://www.w3.org/1999/xlink">
<g id="graph0" class="graph" transform="scale(1 1) rotate(0) translate(4 206.5)">
<title>LHPC::MassSpectrumClass::ChargedSleptonsOneToSix</title>
<!-- Node7 -->
<g id="node1" class="node">
<title>Node7</title>
<polygon fill="#bfbfbf" stroke="#000000" points="827,-79.5 827,-105.5 945,-105.5 945,-79.5 827,-79.5"/>
<text text-anchor="start" x="835" y="-95.1" font-family="Helvetica,sans-Serif" font-size="8.00" fill="#000000">LHPC::MassSpectrumClass</text>
<text text-anchor="middle" x="886" y="-86.1" font-family="Helvetica,sans-Serif" font-size="8.00" fill="#000000">::ChargedSleptonsOneToSix</text>
</g>
<!-- Node8 -->
<g id="node2" class="node">
<title>Node8</title>
<g id="a_node2"><a xlink:href="../../d3/d8f/class_l_h_p_c_1_1_mass_spectrum.html" target="_top" xlink:title="LHPC::MassSpectrum">
<polygon fill="none" stroke="#000000" points="626.5,-141 626.5,-158 722.5,-158 722.5,-141 626.5,-141"/>
<text text-anchor="middle" x="674.5" y="-147.6" font-family="Helvetica,sans-Serif" font-size="8.00" fill="#000000">LHPC::MassSpectrum</text>
</a>
</g>
</g>
<!-- Node8&#45;&gt;Node7 -->
<g id="edge1" class="edge">
<title>Node8&#45;&gt;Node7</title>
<path fill="none" stroke="#191970" d="M732.8126,-148.5672C756.8548,-146.8715 784.7148,-143.1858 809,-135.5 830.4586,-128.7088 852.6623,-115.5386 867.68,-105.5545"/>
<polygon fill="#191970" stroke="#191970" points="732.5333,-145.0777 722.7641,-149.178 732.9581,-152.0648 732.5333,-145.0777"/>
</g>
<!-- Node9 -->
<g id="node3" class="node">
<title>Node9</title>
<g id="a_node3"><a xlink:href="../../d5/d13/class_b_o_l_1_1_pushed_to_observer.html" target="_top" xlink:title="BOL::PushedToObserver\l\&lt; SpectrumUpdater \&gt;">
<polygon fill="none" stroke="#000000" points="381.5,-159.5 381.5,-185.5 487.5,-185.5 487.5,-159.5 381.5,-159.5"/>
<text text-anchor="start" x="389.5" y="-175.1" font-family="Helvetica,sans-Serif" font-size="8.00" fill="#000000">BOL::PushedToObserver</text>
<text text-anchor="middle" x="434.5" y="-166.1" font-family="Helvetica,sans-Serif" font-size="8.00" fill="#000000">&lt; SpectrumUpdater &gt;</text>
</a>
</g>
</g>
<!-- Node9&#45;&gt;Node8 -->
<g id="edge2" class="edge">
<title>Node9&#45;&gt;Node8</title>
<path fill="none" stroke="#191970" d="M497.7432,-166.4392C537.9946,-162.5818 589.3154,-157.6635 626.2752,-154.1215"/>
<polygon fill="#191970" stroke="#191970" points="497.3843,-162.9575 487.7638,-167.3956 498.0521,-169.9255 497.3843,-162.9575"/>
</g>
<!-- Node10 -->
<g id="node4" class="node">
<title>Node10</title>
<g id="a_node4"><a xlink:href="../../d3/d09/class_b_o_l_1_1_basic_observer.html" target="_top" xlink:title="BOL::BasicObserver">
<polygon fill="none" stroke="#000000" points="0,-185 0,-202 89,-202 89,-185 0,-185"/>
<text text-anchor="middle" x="44.5" y="-191.6" font-family="Helvetica,sans-Serif" font-size="8.00" fill="#000000">BOL::BasicObserver</text>
</a>
</g>
</g>
<!-- Node10&#45;&gt;Node9 -->
<g id="edge3" class="edge">
<title>Node10&#45;&gt;Node9</title>
<path fill="none" stroke="#191970" d="M99.2884,-197.4335C102.234,-197.4943 105.1522,-197.5194 108,-197.5 173.3379,-197.0555 189.7711,-199.2985 255,-195.5 298.2663,-192.9805 309.0234,-191.0972 352,-185.5 361.4896,-184.2641 371.5697,-182.8014 381.3051,-181.3109"/>
<polygon fill="#191970" stroke="#191970" points="99.3407,-193.9334 89.2307,-197.1019 99.1099,-200.9296 99.3407,-193.9334"/>
</g>
<!-- Node11 -->
<g id="node5" class="node">
<title>Node11</title>
<g id="a_node5"><a xlink:href="../../d5/d13/class_b_o_l_1_1_pushed_to_observer.html" target="_top" xlink:title="BOL::PushedToObserver\l\&lt; PushedClass \&gt;">
<polygon fill="none" stroke="#000000" points="137.5,-159.5 137.5,-185.5 243.5,-185.5 243.5,-159.5 137.5,-159.5"/>
<text text-anchor="start" x="145.5" y="-175.1" font-family="Helvetica,sans-Serif" font-size="8.00" fill="#000000">BOL::PushedToObserver</text>
<text text-anchor="middle" x="190.5" y="-166.1" font-family="Helvetica,sans-Serif" font-size="8.00" fill="#000000">&lt; PushedClass &gt;</text>
</a>
</g>
</g>
<!-- Node10&#45;&gt;Node11 -->
<g id="edge5" class="edge">
<title>Node10&#45;&gt;Node11</title>
<path fill="none" stroke="#191970" d="M99.361,-185.609C111.8312,-183.8154 125.0554,-181.9133 137.4487,-180.1307"/>
<polygon fill="#191970" stroke="#191970" points="98.4979,-182.1971 89.0981,-187.0852 99.4946,-189.1258 98.4979,-182.1971"/>
</g>
<!-- Node11&#45;&gt;Node9 -->
<g id="edge4" class="edge">
<title>Node11&#45;&gt;Node9</title>
<path fill="none" stroke="#ffa500" stroke-dasharray="5,2" d="M253.8255,-172.5C293.4278,-172.5 343.8568,-172.5 381.3682,-172.5"/>
<polygon fill="#ffa500" stroke="#ffa500" points="253.7454,-169.0001 243.7453,-172.5 253.7453,-176.0001 253.7454,-169.0001"/>
<text text-anchor="middle" x="312.5" y="-175.1" font-family="Helvetica,sans-Serif" font-size="8.00" fill="#000000"> &lt; SpectrumUpdater &gt;</text>
</g>
<!-- Node12 -->
<g id="node6" class="node">
<title>Node12</title>
<g id="a_node6"><a xlink:href="../../da/d50/class_l_h_p_c_1_1_map_and_vector_and_bools.html" target="_top" xlink:title="LHPC::MapAndVectorAndBools\l\&lt; MassEigenstate *\&gt;">
<polygon fill="none" stroke="#000000" points="370,-114.5 370,-140.5 499,-140.5 499,-114.5 370,-114.5"/>
<text text-anchor="start" x="378" y="-130.1" font-family="Helvetica,sans-Serif" font-size="8.00" fill="#000000">LHPC::MapAndVectorAndBools</text>
<text text-anchor="middle" x="434.5" y="-121.1" font-family="Helvetica,sans-Serif" font-size="8.00" fill="#000000">&lt; MassEigenstate *&gt;</text>
</a>
</g>
</g>
<!-- Node12&#45;&gt;Node8 -->
<g id="edge6" class="edge">
<title>Node12&#45;&gt;Node8</title>
<path fill="none" stroke="#9a32cd" stroke-dasharray="5,2" d="M509.1699,-134.3447C547.3058,-137.8405 592.6021,-141.9927 626.131,-145.0662"/>
<polygon fill="#9a32cd" stroke="#9a32cd" points="509.4091,-130.8521 499.1313,-133.4245 508.77,-137.8229 509.4091,-130.8521"/>
<text text-anchor="middle" x="562" y="-145.1" font-family="Helvetica,sans-Serif" font-size="8.00" fill="#000000"> mapAndVectorAndBools</text>
</g>
<!-- Node13 -->
<g id="node7" class="node">
<title>Node13</title>
<g id="a_node7"><a xlink:href="../../da/d50/class_l_h_p_c_1_1_map_and_vector_and_bools.html" target="_top" xlink:title="LHPC::MapAndVectorAndBools\l\&lt; PointerClass \&gt;">
<polygon fill="none" stroke="#000000" points="126,-114.5 126,-140.5 255,-140.5 255,-114.5 126,-114.5"/>
<text text-anchor="start" x="134" y="-130.1" font-family="Helvetica,sans-Serif" font-size="8.00" fill="#000000">LHPC::MapAndVectorAndBools</text>
<text text-anchor="middle" x="190.5" y="-121.1" font-family="Helvetica,sans-Serif" font-size="8.00" fill="#000000">&lt; PointerClass &gt;</text>
</a>
</g>
</g>
<!-- Node13&#45;&gt;Node12 -->
<g id="edge7" class="edge">
<title>Node13&#45;&gt;Node12</title>
<path fill="none" stroke="#ffa500" stroke-dasharray="5,2" d="M265.4196,-127.5C298.8179,-127.5 337.7765,-127.5 369.8742,-127.5"/>
<polygon fill="#ffa500" stroke="#ffa500" points="265.247,-124.0001 255.2469,-127.5 265.2469,-131.0001 265.247,-124.0001"/>
<text text-anchor="middle" x="312.5" y="-130.1" font-family="Helvetica,sans-Serif" font-size="8.00" fill="#000000"> &lt; MassEigenstate *&gt;</text>
</g>
<!-- Node14 -->
<g id="node8" class="node">
<title>Node14</title>
<g id="a_node8"><a xlink:href="../../db/d20/class_l_h_p_c_1_1_mass_eigenstate.html" target="_top" xlink:title="LHPC::MassEigenstate">
<polygon fill="none" stroke="#000000" points="625,-27 625,-44 724,-44 724,-27 625,-27"/>
<text text-anchor="middle" x="674.5" y="-33.6" font-family="Helvetica,sans-Serif" font-size="8.00" fill="#000000">LHPC::MassEigenstate</text>
</a>
</g>
</g>
<!-- Node14&#45;&gt;Node7 -->
<g id="edge8" class="edge">
<title>Node14&#45;&gt;Node7</title>
<path fill="none" stroke="#9a32cd" stroke-dasharray="5,2" d="M728.4659,-25.864C753.5782,-23.4879 783.4705,-23.7278 809,-32.5 835.9263,-41.7521 860.673,-64.7007 874.5046,-79.3845"/>
<polygon fill="#9a32cd" stroke="#9a32cd" points="727.9367,-22.4011 718.3823,-26.9797 728.7066,-29.3587 727.9367,-22.4011"/>
<text text-anchor="middle" x="775.5" y="-125.1" font-family="Helvetica,sans-Serif" font-size="8.00" fill="#000000"> antispositronFive</text>
<text text-anchor="middle" x="775.5" y="-116.1" font-family="Helvetica,sans-Serif" font-size="8.00" fill="#000000">spositronThree</text>
<text text-anchor="middle" x="775.5" y="-107.1" font-family="Helvetica,sans-Serif" font-size="8.00" fill="#000000">antispositronSix</text>
<text text-anchor="middle" x="775.5" y="-98.1" font-family="Helvetica,sans-Serif" font-size="8.00" fill="#000000">spositronSix</text>
<text text-anchor="middle" x="775.5" y="-89.1" font-family="Helvetica,sans-Serif" font-size="8.00" fill="#000000">spositronFive</text>
<text text-anchor="middle" x="775.5" y="-80.1" font-family="Helvetica,sans-Serif" font-size="8.00" fill="#000000">spositronFour</text>
<text text-anchor="middle" x="775.5" y="-71.1" font-family="Helvetica,sans-Serif" font-size="8.00" fill="#000000">spositronOne</text>
<text text-anchor="middle" x="775.5" y="-62.1" font-family="Helvetica,sans-Serif" font-size="8.00" fill="#000000">spositronTwo</text>
<text text-anchor="middle" x="775.5" y="-53.1" font-family="Helvetica,sans-Serif" font-size="8.00" fill="#000000">antispositronThree</text>
<text text-anchor="middle" x="775.5" y="-44.1" font-family="Helvetica,sans-Serif" font-size="8.00" fill="#000000">antispositronTwo</text>
<text text-anchor="middle" x="775.5" y="-35.1" font-family="Helvetica,sans-Serif" font-size="8.00" fill="#000000">...</text>
</g>
<!-- Node14&#45;&gt;Node14 -->
<g id="edge11" class="edge">
<title>Node14&#45;&gt;Node14</title>
<path fill="none" stroke="#9a32cd" stroke-dasharray="5,2" d="M655.8155,-53.3595C656.5103,-58.516 662.7385,-62.5 674.5,-62.5 692.8594,-62.5 697.7361,-52.7925 689.1301,-44.0709"/>
<polygon fill="#9a32cd" stroke="#9a32cd" points="659.0771,-54.636 659.8699,-44.0709 652.6616,-51.8357 659.0771,-54.636"/>
<text text-anchor="middle" x="674.5" y="-65.1" font-family="Helvetica,sans-Serif" font-size="8.00" fill="#000000"> chargeConjugate</text>
</g>
<!-- Node15 -->
<g id="node9" class="node">
<title>Node15</title>
<g id="a_node9"><a xlink:href="../../de/da2/class_b_o_l_1_1_vectorlike_array.html" target="_top" xlink:title="BOL::VectorlikeArray\l\&lt; LHPC::ExtendedMass \&gt;">
<polygon fill="none" stroke="#ff0000" points="380,-45.5 380,-71.5 489,-71.5 489,-45.5 380,-45.5"/>
<text text-anchor="start" x="388" y="-61.1" font-family="Helvetica,sans-Serif" font-size="8.00" fill="#000000">BOL::VectorlikeArray</text>
<text text-anchor="middle" x="434.5" y="-52.1" font-family="Helvetica,sans-Serif" font-size="8.00" fill="#000000">&lt; LHPC::ExtendedMass &gt;</text>
</a>
</g>
</g>
<!-- Node15&#45;&gt;Node14 -->
<g id="edge9" class="edge">
<title>Node15&#45;&gt;Node14</title>
<path fill="none" stroke="#9a32cd" stroke-dasharray="5,2" d="M499.3273,-52.2874C538.8244,-48.5022 588.5148,-43.7402 624.8748,-40.2557"/>
<polygon fill="#9a32cd" stroke="#9a32cd" points="498.8805,-48.8141 489.26,-53.2522 499.5483,-55.7822 498.8805,-48.8141"/>
<text text-anchor="middle" x="562" y="-53.1" font-family="Helvetica,sans-Serif" font-size="8.00" fill="#000000"> runningMasses</text>
</g>
<!-- Node19 -->
<g id="node10" class="node">
<title>Node19</title>
<g id="a_node10"><a xlink:href="../../de/da2/class_b_o_l_1_1_vectorlike_array.html" target="_top" xlink:title="BOL::VectorlikeArray\l\&lt; LHPC::PointersWithValue \&gt;">
<polygon fill="none" stroke="#ff0000" points="373.5,-.5 373.5,-26.5 495.5,-26.5 495.5,-.5 373.5,-.5"/>
<text text-anchor="start" x="381.5" y="-16.1" font-family="Helvetica,sans-Serif" font-size="8.00" fill="#000000">BOL::VectorlikeArray</text>
<text text-anchor="middle" x="434.5" y="-7.1" font-family="Helvetica,sans-Serif" font-size="8.00" fill="#000000">&lt; LHPC::PointersWithValue &gt;</text>
</a>
</g>
</g>
<!-- Node19&#45;&gt;Node14 -->
<g id="edge10" class="edge">
<title>Node19&#45;&gt;Node14</title>
<path fill="none" stroke="#9a32cd" stroke-dasharray="5,2" d="M506.164,-12.0972C537.2823,-12.3844 574.0721,-13.9319 607,-18.5 620.0474,-20.31 634.2211,-23.6606 646.1968,-26.9118"/>
<polygon fill="#9a32cd" stroke="#9a32cd" points="505.8595,-8.5958 495.8421,-12.0456 505.8244,-15.5957 505.8595,-8.5958"/>
<text text-anchor="middle" x="562" y="-30.1" font-family="Helvetica,sans-Serif" font-size="8.00" fill="#000000"> defaultDecaySet</text>
<text text-anchor="middle" x="562" y="-21.1" font-family="Helvetica,sans-Serif" font-size="8.00" fill="#000000">decaySet</text>
</g>
</g>
</svg>
