<?xml version="1.0" encoding="UTF-8" standalone="no"?>
<!DOCTYPE svg PUBLIC "-//W3C//DTD SVG 1.1//EN"
 "http://www.w3.org/Graphics/SVG/1.1/DTD/svg11.dtd">
<!-- Generated by graphviz version 2.40.1 (20161225.0304)
 -->
<!-- Title: Mll.h Pages: 1 -->
<svg width="164pt" height="134pt"
 viewBox="0.00 0.00 163.50 134.00" xmlns="http://www.w3.org/2000/svg" xmlns:xlink="http://www.w3.org/1999/xlink">
<g id="graph0" class="graph" transform="scale(1 1) rotate(0) translate(4 130)">
<title>Mll.h</title>
<!-- Node23 -->
<g id="node1" class="node">
<title>Node23</title>
<polygon fill="#bfbfbf" stroke="#000000" points="74,-108.5 74,-125.5 107,-125.5 107,-108.5 74,-108.5"/>
<text text-anchor="middle" x="90.5" y="-115.1" font-family="Helvetica,sans-Serif" font-size="8.00" fill="#000000">Mll.h</text>
</g>
<!-- Node24 -->
<g id="node2" class="node">
<title>Node24</title>
<g id="a_node2"><a xlink:href="../../df/d7a/_flavour_observables_8h.html" target="_top" xlink:title="FlavourObservables.h">
<polygon fill="none" stroke="#000000" points="0,-54.5 0,-71.5 95,-71.5 95,-54.5 0,-54.5"/>
<text text-anchor="middle" x="47.5" y="-61.1" font-family="Helvetica,sans-Serif" font-size="8.00" fill="#000000">FlavourObservables.h</text>
</a>
</g>
</g>
<!-- Node23&#45;&gt;Node24 -->
<g id="edge1" class="edge">
<title>Node23&#45;&gt;Node24</title>
<path fill="none" stroke="#191970" d="M77.0776,-100.144C69.5858,-90.7357 60.5629,-79.4046 54.4685,-71.7511"/>
<polygon fill="#191970" stroke="#191970" points="74.4321,-102.4404 83.3994,-108.083 79.9081,-98.0799 74.4321,-102.4404"/>
</g>
<!-- Node26 -->
<g id="node4" class="node">
<title>Node26</title>
<g id="a_node4"><a xlink:href="../../de/d72/_mll_8cpp.html" target="_top" xlink:title="Mll.cpp">
<polygon fill="none" stroke="#000000" points="113.5,-54.5 113.5,-71.5 155.5,-71.5 155.5,-54.5 113.5,-54.5"/>
<text text-anchor="middle" x="134.5" y="-61.1" font-family="Helvetica,sans-Serif" font-size="8.00" fill="#000000">Mll.cpp</text>
</a>
</g>
</g>
<!-- Node23&#45;&gt;Node26 -->
<g id="edge3" class="edge">
<title>Node23&#45;&gt;Node26</title>
<path fill="none" stroke="#191970" d="M104.2345,-100.144C111.9005,-90.7357 121.1333,-79.4046 127.3695,-71.7511"/>
<polygon fill="#191970" stroke="#191970" points="101.3691,-98.1198 97.7657,-108.083 106.7958,-102.5415 101.3691,-98.1198"/>
</g>
<!-- Node25 -->
<g id="node3" class="node">
<title>Node25</title>
<g id="a_node3"><a xlink:href="../../d1/de2/_th_obs_factory_8cpp.html" target="_top" xlink:title="ThObsFactory.cpp">
<polygon fill="none" stroke="#000000" points="6.5,-.5 6.5,-17.5 88.5,-17.5 88.5,-.5 6.5,-.5"/>
<text text-anchor="middle" x="47.5" y="-7.1" font-family="Helvetica,sans-Serif" font-size="8.00" fill="#000000">ThObsFactory.cpp</text>
</a>
</g>
</g>
<!-- Node24&#45;&gt;Node25 -->
<g id="edge2" class="edge">
<title>Node24&#45;&gt;Node25</title>
<path fill="none" stroke="#191970" d="M47.5,-43.8045C47.5,-34.9102 47.5,-24.7798 47.5,-17.7511"/>
<polygon fill="#191970" stroke="#191970" points="44.0001,-44.083 47.5,-54.083 51.0001,-44.083 44.0001,-44.083"/>
</g>
</g>
</svg>
