<?xml version="1.0" encoding="UTF-8" standalone="no"?>
<!DOCTYPE svg PUBLIC "-//W3C//DTD SVG 1.1//EN"
 "http://www.w3.org/Graphics/SVG/1.1/DTD/svg11.dtd">
<!-- Generated by graphviz version 2.40.1 (20161225.0304)
 -->
<!-- Title: LHPC::SLHA::SlhaValuePlotLine Pages: 1 -->
<svg width="226pt" height="98pt"
 viewBox="0.00 0.00 226.00 98.00" xmlns="http://www.w3.org/2000/svg" xmlns:xlink="http://www.w3.org/1999/xlink">
<g id="graph0" class="graph" transform="scale(1 1) rotate(0) translate(4 94)">
<title>LHPC::SLHA::SlhaValuePlotLine</title>
<!-- Node1 -->
<g id="node1" class="node">
<title>Node1</title>
<polygon fill="#bfbfbf" stroke="#000000" points="33,-.5 33,-17.5 166,-17.5 166,-.5 33,-.5"/>
<text text-anchor="middle" x="99.5" y="-7.1" font-family="Helvetica,sans-Serif" font-size="8.00" fill="#000000">LHPC::SLHA::SlhaValuePlotLine</text>
</g>
<!-- Node2 -->
<g id="node2" class="node">
<title>Node2</title>
<g id="a_node2"><a xlink:href="../../d2/d43/class_b_o_l_1_1_string_parser.html" target="_top" xlink:title="BOL::StringParser">
<polygon fill="none" stroke="#000000" points="0,-68 0,-85 81,-85 81,-68 0,-68"/>
<text text-anchor="middle" x="40.5" y="-74.6" font-family="Helvetica,sans-Serif" font-size="8.00" fill="#000000">BOL::StringParser</text>
</a>
</g>
</g>
<!-- Node2&#45;&gt;Node1 -->
<g id="edge1" class="edge">
<title>Node2&#45;&gt;Node1</title>
<path fill="none" stroke="#9a32cd" stroke-dasharray="5,2" d="M44.9839,-58.2709C47.4775,-50.7907 51.1809,-42.4033 56.5,-36 62.9212,-28.2701 72.1505,-22.0704 80.4137,-17.571"/>
<polygon fill="#9a32cd" stroke="#9a32cd" points="41.6034,-57.3624 42.2221,-67.9392 48.3342,-59.2851 41.6034,-57.3624"/>
<text text-anchor="middle" x="96.5" y="-38.6" font-family="Helvetica,sans-Serif" font-size="8.00" fill="#000000"> overlargeValuePrinter</text>
</g>
<!-- Node3 -->
<g id="node3" class="node">
<title>Node3</title>
<g id="a_node3"><a xlink:href="../../d0/d23/class_l_h_p_c_1_1_s_l_h_a_1_1_slha_value_line_coloring.html" target="_top" xlink:title="LHPC::SLHA::SlhaValueLine\lColoring">
<polygon fill="none" stroke="#000000" points="99,-63.5 99,-89.5 218,-89.5 218,-63.5 99,-63.5"/>
<text text-anchor="start" x="107" y="-79.1" font-family="Helvetica,sans-Serif" font-size="8.00" fill="#000000">LHPC::SLHA::SlhaValueLine</text>
<text text-anchor="middle" x="158.5" y="-70.1" font-family="Helvetica,sans-Serif" font-size="8.00" fill="#000000">Coloring</text>
</a>
</g>
</g>
<!-- Node3&#45;&gt;Node1 -->
<g id="edge2" class="edge">
<title>Node3&#45;&gt;Node1</title>
<path fill="none" stroke="#9a32cd" stroke-dasharray="5,2" d="M148.4965,-53.8992C145.1809,-47.7307 141.1345,-41.2947 136.5,-36 130.215,-28.8196 121.6923,-22.4383 114.4107,-17.6845"/>
<polygon fill="#9a32cd" stroke="#9a32cd" points="145.5121,-55.7598 153.0845,-63.1698 151.7858,-52.6549 145.5121,-55.7598"/>
<text text-anchor="middle" x="165" y="-38.6" font-family="Helvetica,sans-Serif" font-size="8.00" fill="#000000"> lineColoring</text>
</g>
</g>
</svg>
