<?xml version="1.0" encoding="UTF-8" standalone="no"?>
<!DOCTYPE svg PUBLIC "-//W3C//DTD SVG 1.1//EN"
 "http://www.w3.org/Graphics/SVG/1.1/DTD/svg11.dtd">
<!-- Generated by graphviz version 2.38.0 (20140413.2041)
 -->
<!-- Title: Observable.cpp Pages: 1 -->
<svg width="468pt" height="134pt"
 viewBox="0.00 0.00 468.00 134.00" xmlns="http://www.w3.org/2000/svg" xmlns:xlink="http://www.w3.org/1999/xlink">
<g id="graph0" class="graph" transform="scale(1 1) rotate(0) translate(4 130)">
<title>Observable.cpp</title>
<!-- Node1 -->
<g id="node1" class="node"><title>Node1</title>
<polygon fill="#bfbfbf" stroke="black" points="248,-108.5 248,-125.5 321,-125.5 321,-108.5 248,-108.5"/>
<text text-anchor="middle" x="284.5" y="-115.1" font-family="Helvetica,sans-Serif" font-size="8.00">Observable.cpp</text>
</g>
<!-- Node2 -->
<g id="node2" class="node"><title>Node2</title>
<g id="a_node2"><a xlink:href="../../d8/db2/_observable_8h.html" target="_top" xlink:title="Observable.h">
<polygon fill="none" stroke="red" points="77.5,-54.5 77.5,-71.5 141.5,-71.5 141.5,-54.5 77.5,-54.5"/>
<text text-anchor="middle" x="109.5" y="-61.1" font-family="Helvetica,sans-Serif" font-size="8.00">Observable.h</text>
</a>
</g>
</g>
<!-- Node1&#45;&gt;Node2 -->
<g id="edge1" class="edge"><title>Node1&#45;&gt;Node2</title>
<path fill="none" stroke="midnightblue" d="M259.053,-108.439C228.985,-99.5042 178.775,-84.5846 144.919,-74.5245"/>
<polygon fill="midnightblue" stroke="midnightblue" points="145.56,-71.0638 134.977,-71.5704 143.566,-77.7738 145.56,-71.0638"/>
</g>
<!-- Node6 -->
<g id="node6" class="node"><title>Node6</title>
<polygon fill="none" stroke="#bfbfbf" points="159.5,-54.5 159.5,-71.5 213.5,-71.5 213.5,-54.5 159.5,-54.5"/>
<text text-anchor="middle" x="186.5" y="-61.1" font-family="Helvetica,sans-Serif" font-size="8.00">TNamed.h</text>
</g>
<!-- Node1&#45;&gt;Node6 -->
<g id="edge5" class="edge"><title>Node1&#45;&gt;Node6</title>
<path fill="none" stroke="midnightblue" d="M270.04,-108.327C254.171,-99.907 228.468,-86.269 209.759,-76.3412"/>
<polygon fill="midnightblue" stroke="midnightblue" points="211.175,-73.1307 200.701,-71.5352 207.894,-79.3141 211.175,-73.1307"/>
</g>
<!-- Node7 -->
<g id="node7" class="node"><title>Node7</title>
<polygon fill="none" stroke="#bfbfbf" points="232,-54.5 232,-71.5 273,-71.5 273,-54.5 232,-54.5"/>
<text text-anchor="middle" x="252.5" y="-61.1" font-family="Helvetica,sans-Serif" font-size="8.00">TFile.h</text>
</g>
<!-- Node1&#45;&gt;Node7 -->
<g id="edge6" class="edge"><title>Node1&#45;&gt;Node7</title>
<path fill="none" stroke="midnightblue" d="M279.778,-108.327C275.288,-101.03 268.386,-89.8153 262.649,-80.4919"/>
<polygon fill="midnightblue" stroke="midnightblue" points="265.463,-78.3865 257.241,-71.7043 259.501,-82.0552 265.463,-78.3865"/>
</g>
<!-- Node8 -->
<g id="node8" class="node"><title>Node8</title>
<polygon fill="none" stroke="#bfbfbf" points="291,-54.5 291,-71.5 342,-71.5 342,-54.5 291,-54.5"/>
<text text-anchor="middle" x="316.5" y="-61.1" font-family="Helvetica,sans-Serif" font-size="8.00">TROOT.h</text>
</g>
<!-- Node1&#45;&gt;Node8 -->
<g id="edge7" class="edge"><title>Node1&#45;&gt;Node8</title>
<path fill="none" stroke="midnightblue" d="M289.222,-108.327C293.712,-101.03 300.614,-89.8153 306.351,-80.4919"/>
<polygon fill="midnightblue" stroke="midnightblue" points="309.499,-82.0552 311.759,-71.7043 303.537,-78.3865 309.499,-82.0552"/>
</g>
<!-- Node9 -->
<g id="node9" class="node"><title>Node9</title>
<polygon fill="none" stroke="#bfbfbf" points="360.5,-54.5 360.5,-71.5 406.5,-71.5 406.5,-54.5 360.5,-54.5"/>
<text text-anchor="middle" x="383.5" y="-61.1" font-family="Helvetica,sans-Serif" font-size="8.00">TMath.h</text>
</g>
<!-- Node1&#45;&gt;Node9 -->
<g id="edge8" class="edge"><title>Node1&#45;&gt;Node9</title>
<path fill="none" stroke="midnightblue" d="M299.108,-108.327C315.212,-99.8684 341.342,-86.1437 360.264,-76.2049"/>
<polygon fill="midnightblue" stroke="midnightblue" points="361.929,-79.2839 369.154,-71.5352 358.674,-73.0868 361.929,-79.2839"/>
</g>
<!-- Node10 -->
<g id="node10" class="node"><title>Node10</title>
<polygon fill="none" stroke="#bfbfbf" points="425,-54.5 425,-71.5 460,-71.5 460,-54.5 425,-54.5"/>
<text text-anchor="middle" x="442.5" y="-61.1" font-family="Helvetica,sans-Serif" font-size="8.00">limits</text>
</g>
<!-- Node1&#45;&gt;Node10 -->
<g id="edge9" class="edge"><title>Node1&#45;&gt;Node10</title>
<path fill="none" stroke="midnightblue" d="M307.475,-108.439C336.08,-99.0244 384.875,-82.9651 415.313,-72.9476"/>
<polygon fill="midnightblue" stroke="midnightblue" points="416.471,-76.2512 424.876,-69.8004 414.283,-69.602 416.471,-76.2512"/>
</g>
<!-- Node3 -->
<g id="node3" class="node"><title>Node3</title>
<g id="a_node3"><a xlink:href="../../dd/dcd/_th_observable_8h.html" target="_top" xlink:title="ThObservable.h">
<polygon fill="none" stroke="red" points="0,-0.5 0,-17.5 73,-17.5 73,-0.5 0,-0.5"/>
<text text-anchor="middle" x="36.5" y="-7.1" font-family="Helvetica,sans-Serif" font-size="8.00">ThObservable.h</text>
</a>
</g>
</g>
<!-- Node2&#45;&gt;Node3 -->
<g id="edge2" class="edge"><title>Node2&#45;&gt;Node3</title>
<path fill="none" stroke="midnightblue" d="M98.7286,-54.3272C87.4068,-46.2624 69.3651,-33.4108 55.6166,-23.6173"/>
<polygon fill="midnightblue" stroke="midnightblue" points="57.4911,-20.6554 47.3156,-17.7043 53.4298,-26.3568 57.4911,-20.6554"/>
</g>
<!-- Node4 -->
<g id="node4" class="node"><title>Node4</title>
<polygon fill="none" stroke="#bfbfbf" points="91.5,-0.5 91.5,-17.5 127.5,-17.5 127.5,-0.5 91.5,-0.5"/>
<text text-anchor="middle" x="109.5" y="-7.1" font-family="Helvetica,sans-Serif" font-size="8.00">string</text>
</g>
<!-- Node2&#45;&gt;Node4 -->
<g id="edge3" class="edge"><title>Node2&#45;&gt;Node4</title>
<path fill="none" stroke="midnightblue" d="M109.5,-54.3272C109.5,-47.4145 109.5,-36.985 109.5,-27.9789"/>
<polygon fill="midnightblue" stroke="midnightblue" points="113,-27.7042 109.5,-17.7043 106,-27.7043 113,-27.7042"/>
</g>
<!-- Node5 -->
<g id="node5" class="node"><title>Node5</title>
<polygon fill="none" stroke="#bfbfbf" points="146,-0.5 146,-17.5 193,-17.5 193,-0.5 146,-0.5"/>
<text text-anchor="middle" x="169.5" y="-7.1" font-family="Helvetica,sans-Serif" font-size="8.00">iostream</text>
</g>
<!-- Node2&#45;&gt;Node5 -->
<g id="edge4" class="edge"><title>Node2&#45;&gt;Node5</title>
<path fill="none" stroke="midnightblue" d="M118.353,-54.3272C127.393,-46.4928 141.645,-34.1412 152.811,-24.4641"/>
<polygon fill="midnightblue" stroke="midnightblue" points="155.346,-26.8985 160.61,-17.7043 150.761,-21.6087 155.346,-26.8985"/>
</g>
</g>
</svg>
