<?xml version="1.0" encoding="UTF-8" standalone="no"?>
<!DOCTYPE svg PUBLIC "-//W3C//DTD SVG 1.1//EN"
 "http://www.w3.org/Graphics/SVG/1.1/DTD/svg11.dtd">
<!-- Generated by graphviz version 2.40.1 (20161225.0304)
 -->
<!-- Title: Abottom.h Pages: 1 -->
<svg width="169pt" height="134pt"
 viewBox="0.00 0.00 168.50 134.00" xmlns="http://www.w3.org/2000/svg" xmlns:xlink="http://www.w3.org/1999/xlink">
<g id="graph0" class="graph" transform="scale(1 1) rotate(0) translate(4 130)">
<title>Abottom.h</title>
<!-- Node5 -->
<g id="node1" class="node">
<title>Node5</title>
<polygon fill="#bfbfbf" stroke="#000000" points="48,-108.5 48,-125.5 101,-125.5 101,-108.5 48,-108.5"/>
<text text-anchor="middle" x="74.5" y="-115.1" font-family="Helvetica,sans-Serif" font-size="8.00" fill="#000000">Abottom.h</text>
</g>
<!-- Node6 -->
<g id="node2" class="node">
<title>Node6</title>
<g id="a_node2"><a xlink:href="../../dd/d0f/_abottom_8cpp.html" target="_top" xlink:title="Abottom.cpp">
<polygon fill="none" stroke="#000000" points="0,-54.5 0,-71.5 61,-71.5 61,-54.5 0,-54.5"/>
<text text-anchor="middle" x="30.5" y="-61.1" font-family="Helvetica,sans-Serif" font-size="8.00" fill="#000000">Abottom.cpp</text>
</a>
</g>
</g>
<!-- Node5&#45;&gt;Node6 -->
<g id="edge1" class="edge">
<title>Node5&#45;&gt;Node6</title>
<path fill="none" stroke="#191970" d="M60.7655,-100.144C53.0995,-90.7357 43.8667,-79.4046 37.6305,-71.7511"/>
<polygon fill="#191970" stroke="#191970" points="58.2042,-102.5415 67.2343,-108.083 63.6309,-98.1198 58.2042,-102.5415"/>
</g>
<!-- Node7 -->
<g id="node3" class="node">
<title>Node7</title>
<g id="a_node3"><a xlink:href="../../dd/df3/_e_w_observables_8h.html" target="_top" xlink:title="A header file for the observables defined in EW module. ">
<polygon fill="none" stroke="#000000" points="79,-54.5 79,-71.5 160,-71.5 160,-54.5 79,-54.5"/>
<text text-anchor="middle" x="119.5" y="-61.1" font-family="Helvetica,sans-Serif" font-size="8.00" fill="#000000">EWObservables.h</text>
</a>
</g>
</g>
<!-- Node5&#45;&gt;Node7 -->
<g id="edge2" class="edge">
<title>Node5&#45;&gt;Node7</title>
<path fill="none" stroke="#191970" d="M88.5467,-100.144C96.3869,-90.7357 105.8295,-79.4046 112.2074,-71.7511"/>
<polygon fill="#191970" stroke="#191970" points="85.6439,-98.1601 81.9308,-108.083 91.0215,-102.6414 85.6439,-98.1601"/>
</g>
<!-- Node8 -->
<g id="node4" class="node">
<title>Node8</title>
<g id="a_node4"><a xlink:href="../../d1/de2/_th_obs_factory_8cpp.html" target="_top" xlink:title="ThObsFactory.cpp">
<polygon fill="none" stroke="#000000" points="78.5,-.5 78.5,-17.5 160.5,-17.5 160.5,-.5 78.5,-.5"/>
<text text-anchor="middle" x="119.5" y="-7.1" font-family="Helvetica,sans-Serif" font-size="8.00" fill="#000000">ThObsFactory.cpp</text>
</a>
</g>
</g>
<!-- Node7&#45;&gt;Node8 -->
<g id="edge3" class="edge">
<title>Node7&#45;&gt;Node8</title>
<path fill="none" stroke="#191970" d="M119.5,-43.8045C119.5,-34.9102 119.5,-24.7798 119.5,-17.7511"/>
<polygon fill="#191970" stroke="#191970" points="116.0001,-44.083 119.5,-54.083 123.0001,-44.083 116.0001,-44.083"/>
</g>
</g>
</svg>
