<?xml version="1.0" encoding="UTF-8" standalone="no"?>
<!DOCTYPE svg PUBLIC "-//W3C//DTD SVG 1.1//EN"
 "http://www.w3.org/Graphics/SVG/1.1/DTD/svg11.dtd">
<!-- Generated by graphviz version 2.38.0 (20140413.2041)
 -->
<!-- Title: Observable.h Pages: 1 -->
<svg width="456pt" height="188pt"
 viewBox="0.00 0.00 456.00 188.00" xmlns="http://www.w3.org/2000/svg" xmlns:xlink="http://www.w3.org/1999/xlink">
<g id="graph0" class="graph" transform="scale(1 1) rotate(0) translate(4 184)">
<title>Observable.h</title>
<!-- Node1 -->
<g id="node1" class="node"><title>Node1</title>
<polygon fill="#bfbfbf" stroke="black" points="184,-162.5 184,-179.5 248,-179.5 248,-162.5 184,-162.5"/>
<text text-anchor="middle" x="216" y="-169.1" font-family="Helvetica,sans-Serif" font-size="8.00">Observable.h</text>
</g>
<!-- Node2 -->
<g id="node2" class="node"><title>Node2</title>
<g id="a_node2"><a xlink:href="../../dd/dcd/_th_observable_8h.html" target="_top" xlink:title="ThObservable.h">
<polygon fill="none" stroke="black" points="14.5,-108.5 14.5,-125.5 87.5,-125.5 87.5,-108.5 14.5,-108.5"/>
<text text-anchor="middle" x="51" y="-115.1" font-family="Helvetica,sans-Serif" font-size="8.00">ThObservable.h</text>
</a>
</g>
</g>
<!-- Node1&#45;&gt;Node2 -->
<g id="edge1" class="edge"><title>Node1&#45;&gt;Node2</title>
<path fill="none" stroke="midnightblue" d="M192.008,-162.439C163.78,-153.543 116.724,-138.713 84.8086,-128.655"/>
<polygon fill="midnightblue" stroke="midnightblue" points="85.611,-125.238 75.0214,-125.57 83.5069,-131.914 85.611,-125.238"/>
</g>
<!-- Node6 -->
<g id="node6" class="node"><title>Node6</title>
<polygon fill="none" stroke="#bfbfbf" points="106,-108.5 106,-125.5 142,-125.5 142,-108.5 106,-108.5"/>
<text text-anchor="middle" x="124" y="-115.1" font-family="Helvetica,sans-Serif" font-size="8.00">string</text>
</g>
<!-- Node1&#45;&gt;Node6 -->
<g id="edge5" class="edge"><title>Node1&#45;&gt;Node6</title>
<path fill="none" stroke="midnightblue" d="M202.425,-162.327C187.664,-153.984 163.841,-140.519 146.32,-130.615"/>
<polygon fill="midnightblue" stroke="midnightblue" points="147.759,-127.409 137.331,-125.535 144.315,-133.503 147.759,-127.409"/>
</g>
<!-- Node7 -->
<g id="node7" class="node"><title>Node7</title>
<polygon fill="none" stroke="#bfbfbf" points="160.5,-108.5 160.5,-125.5 207.5,-125.5 207.5,-108.5 160.5,-108.5"/>
<text text-anchor="middle" x="184" y="-115.1" font-family="Helvetica,sans-Serif" font-size="8.00">iostream</text>
</g>
<!-- Node1&#45;&gt;Node7 -->
<g id="edge6" class="edge"><title>Node1&#45;&gt;Node7</title>
<path fill="none" stroke="midnightblue" d="M211.278,-162.327C206.788,-155.03 199.886,-143.815 194.149,-134.492"/>
<polygon fill="midnightblue" stroke="midnightblue" points="196.963,-132.386 188.741,-125.704 191.001,-136.055 196.963,-132.386"/>
</g>
<!-- Node8 -->
<g id="node8" class="node"><title>Node8</title>
<polygon fill="none" stroke="#bfbfbf" points="226,-108.5 226,-125.5 270,-125.5 270,-108.5 226,-108.5"/>
<text text-anchor="middle" x="248" y="-115.1" font-family="Helvetica,sans-Serif" font-size="8.00">TH1D.h</text>
</g>
<!-- Node1&#45;&gt;Node8 -->
<g id="edge7" class="edge"><title>Node1&#45;&gt;Node8</title>
<path fill="none" stroke="midnightblue" d="M220.722,-162.327C225.212,-155.03 232.114,-143.815 237.851,-134.492"/>
<polygon fill="midnightblue" stroke="midnightblue" points="240.999,-136.055 243.259,-125.704 235.037,-132.386 240.999,-136.055"/>
</g>
<!-- Node9 -->
<g id="node9" class="node"><title>Node9</title>
<polygon fill="none" stroke="#bfbfbf" points="288,-108.5 288,-125.5 344,-125.5 344,-108.5 288,-108.5"/>
<text text-anchor="middle" x="316" y="-115.1" font-family="Helvetica,sans-Serif" font-size="8.00">TMatrixD.h</text>
</g>
<!-- Node1&#45;&gt;Node9 -->
<g id="edge8" class="edge"><title>Node1&#45;&gt;Node9</title>
<path fill="none" stroke="midnightblue" d="M230.755,-162.327C247.022,-153.868 273.416,-140.144 292.529,-130.205"/>
<polygon fill="midnightblue" stroke="midnightblue" points="294.252,-133.254 301.509,-125.535 291.022,-127.044 294.252,-133.254"/>
</g>
<!-- Node10 -->
<g id="node10" class="node"><title>Node10</title>
<polygon fill="none" stroke="#bfbfbf" points="362,-108.5 362,-125.5 448,-125.5 448,-108.5 362,-108.5"/>
<text text-anchor="middle" x="405" y="-115.1" font-family="Helvetica,sans-Serif" font-size="8.00">boost/tokenizer.hpp</text>
</g>
<!-- Node1&#45;&gt;Node10 -->
<g id="edge9" class="edge"><title>Node1&#45;&gt;Node10</title>
<path fill="none" stroke="midnightblue" d="M243.482,-162.439C276.236,-153.427 331.12,-138.327 367.689,-128.265"/>
<polygon fill="midnightblue" stroke="midnightblue" points="368.771,-131.598 377.485,-125.57 366.914,-124.849 368.771,-131.598"/>
</g>
<!-- Node3 -->
<g id="node3" class="node"><title>Node3</title>
<g id="a_node3"><a xlink:href="../../d6/d0a/_standard_model_8h.html" target="_top" xlink:title="StandardModel.h">
<polygon fill="none" stroke="red" points="12.5,-54.5 12.5,-71.5 89.5,-71.5 89.5,-54.5 12.5,-54.5"/>
<text text-anchor="middle" x="51" y="-61.1" font-family="Helvetica,sans-Serif" font-size="8.00">StandardModel.h</text>
</a>
</g>
</g>
<!-- Node2&#45;&gt;Node3 -->
<g id="edge2" class="edge"><title>Node2&#45;&gt;Node3</title>
<path fill="none" stroke="midnightblue" d="M51,-108.327C51,-101.414 51,-90.985 51,-81.9789"/>
<polygon fill="midnightblue" stroke="midnightblue" points="54.5001,-81.7042 51,-71.7043 47.5001,-81.7043 54.5001,-81.7042"/>
</g>
<!-- Node4 -->
<g id="node4" class="node"><title>Node4</title>
<g id="a_node4"><a xlink:href="../../d9/d72/gslpp_8h.html" target="_top" xlink:title="gslpp.h">
<polygon fill="none" stroke="red" points="0,-0.5 0,-17.5 42,-17.5 42,-0.5 0,-0.5"/>
<text text-anchor="middle" x="21" y="-7.1" font-family="Helvetica,sans-Serif" font-size="8.00">gslpp.h</text>
</a>
</g>
</g>
<!-- Node3&#45;&gt;Node4 -->
<g id="edge3" class="edge"><title>Node3&#45;&gt;Node4</title>
<path fill="none" stroke="midnightblue" d="M46.5734,-54.3272C42.3637,-47.0304 35.8934,-35.8153 30.5145,-26.4919"/>
<polygon fill="midnightblue" stroke="midnightblue" points="33.4737,-24.6171 25.4448,-17.7043 27.4104,-28.1152 33.4737,-24.6171"/>
</g>
<!-- Node5 -->
<g id="node5" class="node"><title>Node5</title>
<g id="a_node5"><a xlink:href="../../d4/d68/_q_c_d_8h.html" target="_top" xlink:title="QCD.h">
<polygon fill="none" stroke="red" points="60.5,-0.5 60.5,-17.5 101.5,-17.5 101.5,-0.5 60.5,-0.5"/>
<text text-anchor="middle" x="81" y="-7.1" font-family="Helvetica,sans-Serif" font-size="8.00">QCD.h</text>
</a>
</g>
</g>
<!-- Node3&#45;&gt;Node5 -->
<g id="edge4" class="edge"><title>Node3&#45;&gt;Node5</title>
<path fill="none" stroke="midnightblue" d="M55.4266,-54.3272C59.6363,-47.0304 66.1066,-35.8153 71.4855,-26.4919"/>
<polygon fill="midnightblue" stroke="midnightblue" points="74.5896,-28.1152 76.5552,-17.7043 68.5263,-24.6171 74.5896,-28.1152"/>
</g>
</g>
</svg>
