<?xml version="1.0" encoding="UTF-8" standalone="no"?>
<!DOCTYPE svg PUBLIC "-//W3C//DTD SVG 1.1//EN"
 "http://www.w3.org/Graphics/SVG/1.1/DTD/svg11.dtd">
<!-- Generated by graphviz version 2.40.1 (20161225.0304)
 -->
<!-- Title: AmpDB2.h Pages: 1 -->
<svg width="447pt" height="134pt"
 viewBox="0.00 0.00 447.00 134.00" xmlns="http://www.w3.org/2000/svg" xmlns:xlink="http://www.w3.org/1999/xlink">
<g id="graph0" class="graph" transform="scale(1 1) rotate(0) translate(4 130)">
<title>AmpDB2.h</title>
<!-- Node18 -->
<g id="node1" class="node">
<title>Node18</title>
<polygon fill="#bfbfbf" stroke="#000000" points="202.5,-108.5 202.5,-125.5 257.5,-125.5 257.5,-108.5 202.5,-108.5"/>
<text text-anchor="middle" x="230" y="-115.1" font-family="Helvetica,sans-Serif" font-size="8.00" fill="#000000">AmpDB2.h</text>
</g>
<!-- Node19 -->
<g id="node2" class="node">
<title>Node19</title>
<g id="a_node2"><a xlink:href="../../d5/ddc/_amp_d_b2_8cpp.html" target="_top" xlink:title="AmpDB2.cpp">
<polygon fill="none" stroke="#000000" points="0,-54.5 0,-71.5 64,-71.5 64,-54.5 0,-54.5"/>
<text text-anchor="middle" x="32" y="-61.1" font-family="Helvetica,sans-Serif" font-size="8.00" fill="#000000">AmpDB2.cpp</text>
</a>
</g>
</g>
<!-- Node18&#45;&gt;Node19 -->
<g id="edge1" class="edge">
<title>Node18&#45;&gt;Node19</title>
<path fill="none" stroke="#191970" d="M192.4626,-106.7625C155.0416,-96.5568 98.2354,-81.0642 63.2099,-71.5118"/>
<polygon fill="#191970" stroke="#191970" points="191.9004,-110.237 202.4689,-109.4915 193.7422,-103.4836 191.9004,-110.237"/>
</g>
<!-- Node20 -->
<g id="node3" class="node">
<title>Node20</title>
<g id="a_node3"><a xlink:href="../../df/d5c/_betas___j_psi_phi_8h.html" target="_top" xlink:title="Betas_JPsiPhi.h">
<polygon fill="none" stroke="#000000" points="82.5,-54.5 82.5,-71.5 157.5,-71.5 157.5,-54.5 82.5,-54.5"/>
<text text-anchor="middle" x="120" y="-61.1" font-family="Helvetica,sans-Serif" font-size="8.00" fill="#000000">Betas_JPsiPhi.h</text>
</a>
</g>
</g>
<!-- Node18&#45;&gt;Node20 -->
<g id="edge2" class="edge">
<title>Node18&#45;&gt;Node20</title>
<path fill="none" stroke="#191970" d="M203.2379,-103.8622C182.841,-93.8492 155.3341,-80.3458 137.6295,-71.6545"/>
<polygon fill="#191970" stroke="#191970" points="201.8075,-107.059 212.3266,-108.324 204.8923,-100.7753 201.8075,-107.059"/>
</g>
<!-- Node24 -->
<g id="node6" class="node">
<title>Node24</title>
<g id="a_node6"><a xlink:href="../../d8/d5b/_dm_bd_8h.html" target="_top" xlink:title="DmBd.h">
<polygon fill="none" stroke="#000000" points="305.5,-54.5 305.5,-71.5 350.5,-71.5 350.5,-54.5 305.5,-54.5"/>
<text text-anchor="middle" x="328" y="-61.1" font-family="Helvetica,sans-Serif" font-size="8.00" fill="#000000">DmBd.h</text>
</a>
</g>
</g>
<!-- Node18&#45;&gt;Node24 -->
<g id="edge5" class="edge">
<title>Node18&#45;&gt;Node24</title>
<path fill="none" stroke="#191970" d="M254.5861,-103.4526C272.6781,-93.4835 296.7346,-80.2279 312.2937,-71.6545"/>
<polygon fill="#191970" stroke="#191970" points="252.8147,-100.4324 245.7454,-108.324 256.1929,-106.5633 252.8147,-100.4324"/>
</g>
<!-- Node26 -->
<g id="node8" class="node">
<title>Node26</title>
<g id="a_node8"><a xlink:href="../../df/dee/_dm_bs_8h.html" target="_top" xlink:title="DmBs.h">
<polygon fill="none" stroke="#ff0000" points="175.5,-54.5 175.5,-71.5 220.5,-71.5 220.5,-54.5 175.5,-54.5"/>
<text text-anchor="middle" x="198" y="-61.1" font-family="Helvetica,sans-Serif" font-size="8.00" fill="#000000">DmBs.h</text>
</a>
</g>
</g>
<!-- Node18&#45;&gt;Node26 -->
<g id="edge8" class="edge">
<title>Node18&#45;&gt;Node26</title>
<path fill="none" stroke="#191970" d="M219.4961,-99.2747C214.0269,-90.0454 207.5824,-79.1703 203.1858,-71.7511"/>
<polygon fill="#191970" stroke="#191970" points="216.6068,-101.2644 224.7159,-108.083 222.6288,-97.6957 216.6068,-101.2644"/>
</g>
<!-- Node28 -->
<g id="node9" class="node">
<title>Node28</title>
<g id="a_node9"><a xlink:href="../../d3/d5e/_s_j_psi_k_8h.html" target="_top" xlink:title="SJPsiK.h">
<polygon fill="none" stroke="#ff0000" points="238.5,-54.5 238.5,-71.5 287.5,-71.5 287.5,-54.5 238.5,-54.5"/>
<text text-anchor="middle" x="263" y="-61.1" font-family="Helvetica,sans-Serif" font-size="8.00" fill="#000000">SJPsiK.h</text>
</a>
</g>
</g>
<!-- Node18&#45;&gt;Node28 -->
<g id="edge10" class="edge">
<title>Node18&#45;&gt;Node28</title>
<path fill="none" stroke="#191970" d="M240.8321,-99.2747C246.4722,-90.0454 253.1181,-79.1703 257.6521,-71.7511"/>
<polygon fill="#191970" stroke="#191970" points="237.6773,-97.7251 235.4493,-108.083 243.6503,-101.3753 237.6773,-97.7251"/>
</g>
<!-- Node30 -->
<g id="node10" class="node">
<title>Node30</title>
<g id="a_node10"><a xlink:href="../../da/dd5/_m_vgamma_8cpp.html" target="_top" xlink:title="MVgamma.cpp">
<polygon fill="none" stroke="#000000" points="369,-54.5 369,-71.5 439,-71.5 439,-54.5 369,-54.5"/>
<text text-anchor="middle" x="404" y="-61.1" font-family="Helvetica,sans-Serif" font-size="8.00" fill="#000000">MVgamma.cpp</text>
</a>
</g>
</g>
<!-- Node18&#45;&gt;Node30 -->
<g id="edge12" class="edge">
<title>Node18&#45;&gt;Node30</title>
<path fill="none" stroke="#191970" d="M267.2607,-105.4363C300.067,-95.2551 347.0826,-80.664 376.5582,-71.5164"/>
<polygon fill="#191970" stroke="#191970" points="266.084,-102.1368 257.5708,-108.4435 268.1589,-108.8222 266.084,-102.1368"/>
</g>
<!-- Node21 -->
<g id="node4" class="node">
<title>Node21</title>
<g id="a_node4"><a xlink:href="../../dd/dd8/_betas___j_psi_phi_8cpp.html" target="_top" xlink:title="Betas_JPsiPhi.cpp">
<polygon fill="none" stroke="#000000" points="78.5,-.5 78.5,-17.5 161.5,-17.5 161.5,-.5 78.5,-.5"/>
<text text-anchor="middle" x="120" y="-7.1" font-family="Helvetica,sans-Serif" font-size="8.00" fill="#000000">Betas_JPsiPhi.cpp</text>
</a>
</g>
</g>
<!-- Node20&#45;&gt;Node21 -->
<g id="edge3" class="edge">
<title>Node20&#45;&gt;Node21</title>
<path fill="none" stroke="#191970" d="M120,-43.8045C120,-34.9102 120,-24.7798 120,-17.7511"/>
<polygon fill="#191970" stroke="#191970" points="116.5001,-44.083 120,-54.083 123.5001,-44.083 116.5001,-44.083"/>
</g>
<!-- Node22 -->
<g id="node5" class="node">
<title>Node22</title>
<g id="a_node5"><a xlink:href="../../df/d7a/_flavour_observables_8h.html" target="_top" xlink:title="FlavourObservables.h">
<polygon fill="none" stroke="#ff0000" points="183.5,-.5 183.5,-17.5 278.5,-17.5 278.5,-.5 183.5,-.5"/>
<text text-anchor="middle" x="231" y="-7.1" font-family="Helvetica,sans-Serif" font-size="8.00" fill="#000000">FlavourObservables.h</text>
</a>
</g>
</g>
<!-- Node20&#45;&gt;Node22 -->
<g id="edge4" class="edge">
<title>Node20&#45;&gt;Node22</title>
<path fill="none" stroke="#191970" d="M147.0054,-49.8622C167.5877,-39.8492 195.3447,-26.3458 213.2102,-17.6545"/>
<polygon fill="#191970" stroke="#191970" points="145.2953,-46.8019 137.8341,-54.324 148.3576,-53.0966 145.2953,-46.8019"/>
</g>
<!-- Node24&#45;&gt;Node22 -->
<g id="edge7" class="edge">
<title>Node24&#45;&gt;Node22</title>
<path fill="none" stroke="#191970" d="M303.6648,-49.4526C285.7574,-39.4835 261.9463,-26.2279 246.5461,-17.6545"/>
<polygon fill="#191970" stroke="#191970" points="301.9755,-52.5179 312.4153,-54.324 305.3804,-46.4018 301.9755,-52.5179"/>
</g>
<!-- Node25 -->
<g id="node7" class="node">
<title>Node25</title>
<g id="a_node7"><a xlink:href="../../d7/da7/_dm_bd_8cpp.html" target="_top" xlink:title="DmBd.cpp">
<polygon fill="none" stroke="#000000" points="301,-.5 301,-17.5 355,-17.5 355,-.5 301,-.5"/>
<text text-anchor="middle" x="328" y="-7.1" font-family="Helvetica,sans-Serif" font-size="8.00" fill="#000000">DmBd.cpp</text>
</a>
</g>
</g>
<!-- Node24&#45;&gt;Node25 -->
<g id="edge6" class="edge">
<title>Node24&#45;&gt;Node25</title>
<path fill="none" stroke="#191970" d="M328,-43.8045C328,-34.9102 328,-24.7798 328,-17.7511"/>
<polygon fill="#191970" stroke="#191970" points="324.5001,-44.083 328,-54.083 331.5001,-44.083 324.5001,-44.083"/>
</g>
<!-- Node26&#45;&gt;Node22 -->
<g id="edge9" class="edge">
<title>Node26&#45;&gt;Node22</title>
<path fill="none" stroke="#191970" d="M208.8321,-45.2747C214.4722,-36.0454 221.1181,-25.1703 225.6521,-17.7511"/>
<polygon fill="#191970" stroke="#191970" points="205.6773,-43.7251 203.4493,-54.083 211.6503,-47.3753 205.6773,-43.7251"/>
</g>
<!-- Node28&#45;&gt;Node22 -->
<g id="edge11" class="edge">
<title>Node28&#45;&gt;Node22</title>
<path fill="none" stroke="#191970" d="M252.4961,-45.2747C247.0269,-36.0454 240.5824,-25.1703 236.1858,-17.7511"/>
<polygon fill="#191970" stroke="#191970" points="249.6068,-47.2644 257.7159,-54.083 255.6288,-43.6957 249.6068,-47.2644"/>
</g>
</g>
</svg>
