<?xml version="1.0" encoding="UTF-8" standalone="no"?>
<!DOCTYPE svg PUBLIC "-//W3C//DTD SVG 1.1//EN"
 "http://www.w3.org/Graphics/SVG/1.1/DTD/svg11.dtd">
<!-- Generated by graphviz version 2.38.0 (20140413.2041)
 -->
<!-- Title: Heffmueconv Pages: 1 -->
<svg width="658pt" height="172pt"
 viewBox="0.00 0.00 658.00 172.48" xmlns="http://www.w3.org/2000/svg" xmlns:xlink="http://www.w3.org/1999/xlink">
<g id="graph0" class="graph" transform="scale(1 1) rotate(0) translate(4 168.48)">
<title>Heffmueconv</title>
<!-- Node1 -->
<g id="node1" class="node"><title>Node1</title>
<polygon fill="#bfbfbf" stroke="black" points="381,-127.48 381,-144.48 445,-144.48 445,-127.48 381,-127.48"/>
<text text-anchor="middle" x="413" y="-134.08" font-family="Helvetica,sans-Serif" font-size="8.00">Heffmueconv</text>
</g>
<!-- Node2 -->
<g id="node2" class="node"><title>Node2</title>
<g id="a_node2"><a xlink:href="../../d2/d95/class_wilson_coefficient.html" target="_top" xlink:title="A class for the Wilson coefficients. ">
<polygon fill="none" stroke="black" points="193,-142.48 193,-159.48 271,-159.48 271,-142.48 193,-142.48"/>
<text text-anchor="middle" x="232" y="-149.08" font-family="Helvetica,sans-Serif" font-size="8.00">WilsonCoefficient</text>
</a>
</g>
</g>
<!-- Node2&#45;&gt;Node1 -->
<g id="edge1" class="edge"><title>Node2&#45;&gt;Node1</title>
<path fill="none" stroke="#9a32cd" stroke-dasharray="5,2" d="M281.745,-146.896C313.313,-144.25 353.482,-140.884 380.809,-138.594"/>
<polygon fill="#9a32cd" stroke="#9a32cd" points="281.073,-143.44 271.4,-147.763 281.657,-150.415 281.073,-143.44"/>
<text text-anchor="middle" x="319" y="-148.58" font-family="Helvetica,sans-Serif" font-size="8.00"> coeffmueconv</text>
</g>
<!-- Node3 -->
<g id="node3" class="node"><title>Node3</title>
<g id="a_node3"><a xlink:href="../../dd/d6f/class_wilson_template.html" target="_top" xlink:title="WilsonTemplate\&lt; gslpp\l::vector\&lt; gslpp::complex \&gt; \&gt;">
<polygon fill="none" stroke="red" points="0,-137.98 0,-163.98 117,-163.98 117,-137.98 0,-137.98"/>
<text text-anchor="start" x="8" y="-153.58" font-family="Helvetica,sans-Serif" font-size="8.00">WilsonTemplate&lt; gslpp</text>
<text text-anchor="middle" x="58.5" y="-144.58" font-family="Helvetica,sans-Serif" font-size="8.00">::vector&lt; gslpp::complex &gt; &gt;</text>
</a>
</g>
</g>
<!-- Node3&#45;&gt;Node2 -->
<g id="edge2" class="edge"><title>Node3&#45;&gt;Node2</title>
<path fill="none" stroke="midnightblue" d="M127.216,-150.98C149.579,-150.98 173.657,-150.98 192.986,-150.98"/>
<polygon fill="midnightblue" stroke="midnightblue" points="127.084,-147.481 117.084,-150.98 127.084,-154.481 127.084,-147.481"/>
</g>
<!-- Node4 -->
<g id="node4" class="node"><title>Node4</title>
<g id="a_node4"><a xlink:href="../../dc/dd5/class_standard_model.html" target="_top" xlink:title="A model class for the Standard Model. ">
<polygon fill="none" stroke="red" points="196.5,-53.4804 196.5,-70.4804 267.5,-70.4804 267.5,-53.4804 196.5,-53.4804"/>
<text text-anchor="middle" x="232" y="-60.0804" font-family="Helvetica,sans-Serif" font-size="8.00">StandardModel</text>
</a>
</g>
</g>
<!-- Node4&#45;&gt;Node1 -->
<g id="edge3" class="edge"><title>Node4&#45;&gt;Node1</title>
<path fill="none" stroke="#9a32cd" stroke-dasharray="5,2" d="M253.279,-76.3875C263.62,-83.2782 276.603,-91.2527 289,-96.9804 319.097,-110.887 355.505,-121.749 380.867,-128.439"/>
<polygon fill="#9a32cd" stroke="#9a32cd" points="255.183,-73.4497 244.953,-70.6948 251.232,-79.2282 255.183,-73.4497"/>
<text text-anchor="middle" x="319" y="-122.58" font-family="Helvetica,sans-Serif" font-size="8.00"> model</text>
</g>
<!-- Node6 -->
<g id="node6" class="node"><title>Node6</title>
<g id="a_node6"><a xlink:href="../../dc/df3/class_e_w_s_mcache.html" target="_top" xlink:title="A class for cache variables used in computing radiative corrections to the EW precision observables...">
<polygon fill="none" stroke="red" points="381.5,-28.4804 381.5,-45.4804 444.5,-45.4804 444.5,-28.4804 381.5,-28.4804"/>
<text text-anchor="middle" x="413" y="-35.0804" font-family="Helvetica,sans-Serif" font-size="8.00">EWSMcache</text>
</a>
</g>
</g>
<!-- Node4&#45;&gt;Node6 -->
<g id="edge6" class="edge"><title>Node4&#45;&gt;Node6</title>
<path fill="none" stroke="#9a32cd" stroke-dasharray="5,2" d="M277.621,-55.7485C309.994,-51.227 352.937,-45.2294 381.47,-41.2443"/>
<polygon fill="#9a32cd" stroke="#9a32cd" points="276.933,-52.3105 267.513,-57.1602 277.901,-59.2432 276.933,-52.3105"/>
<text text-anchor="middle" x="319" y="-56.5804" font-family="Helvetica,sans-Serif" font-size="8.00"> SM</text>
</g>
<!-- Node5 -->
<g id="node5" class="node"><title>Node5</title>
<g id="a_node5"><a xlink:href="../../dd/dfa/class_q_c_d.html" target="_top" xlink:title="A class for parameters related to QCD, hadrons and quarks. ">
<polygon fill="none" stroke="red" points="41.5,-89.4804 41.5,-106.48 75.5,-106.48 75.5,-89.4804 41.5,-89.4804"/>
<text text-anchor="middle" x="58.5" y="-96.0804" font-family="Helvetica,sans-Serif" font-size="8.00">QCD</text>
</a>
</g>
</g>
<!-- Node5&#45;&gt;Node4 -->
<g id="edge4" class="edge"><title>Node5&#45;&gt;Node4</title>
<path fill="none" stroke="midnightblue" d="M85.4696,-93.0517C108.91,-88.5453 144.322,-81.594 175,-74.9804 181.927,-73.487 189.319,-71.8221 196.386,-70.1955"/>
<polygon fill="midnightblue" stroke="midnightblue" points="84.7659,-89.6228 75.6021,-94.9402 86.0817,-96.498 84.7659,-89.6228"/>
</g>
<!-- Node6&#45;&gt;Node4 -->
<g id="edge5" class="edge"><title>Node6&#45;&gt;Node4</title>
<path fill="none" stroke="#9a32cd" stroke-dasharray="5,2" d="M371.463,-28.9941C347.178,-25.6834 315.897,-24.0324 289,-30.9804 272.216,-35.3161 255.092,-45.8792 244.276,-53.47"/>
<polygon fill="#9a32cd" stroke="#9a32cd" points="370.999,-32.4636 381.409,-30.4944 372.043,-25.5419 370.999,-32.4636"/>
<text text-anchor="middle" x="319" y="-33.5804" font-family="Helvetica,sans-Serif" font-size="8.00"> myEWSMcache</text>
</g>
<!-- Node8 -->
<g id="node8" class="node"><title>Node8</title>
<g id="a_node8"><a xlink:href="../../d5/dad/class_e_w_s_m_three_loop_e_w.html" target="_top" xlink:title="A class for &#160;three&#45;loop corrections to the EW precision observables. ">
<polygon fill="none" stroke="black" points="543.5,-12.4804 543.5,-29.4804 636.5,-29.4804 636.5,-12.4804 543.5,-12.4804"/>
<text text-anchor="middle" x="590" y="-19.0804" font-family="Helvetica,sans-Serif" font-size="8.00">EWSMThreeLoopEW</text>
</a>
</g>
</g>
<!-- Node6&#45;&gt;Node8 -->
<g id="edge9" class="edge"><title>Node6&#45;&gt;Node8</title>
<path fill="none" stroke="#9a32cd" stroke-dasharray="5,2" d="M454.918,-33.0481C462.269,-32.3517 469.861,-31.639 477,-30.9804 498.869,-28.9627 523.147,-26.7872 543.493,-24.9822"/>
<polygon fill="#9a32cd" stroke="#9a32cd" points="454.382,-29.5832 444.758,-34.0144 455.045,-36.5517 454.382,-29.5832"/>
<text text-anchor="middle" x="494.5" y="-33.5804" font-family="Helvetica,sans-Serif" font-size="8.00"> cache</text>
</g>
<!-- Node10 -->
<g id="node10" class="node"><title>Node10</title>
<g id="a_node10"><a xlink:href="../../d5/dde/class_e_w_s_m_approximate_formulae.html" target="_top" xlink:title="A class for approximate formulae of the EW precision observables. ">
<polygon fill="none" stroke="black" points="530,-62.4804 530,-79.4804 650,-79.4804 650,-62.4804 530,-62.4804"/>
<text text-anchor="middle" x="590" y="-69.0804" font-family="Helvetica,sans-Serif" font-size="8.00">EWSMApproximateFormulae</text>
</a>
</g>
</g>
<!-- Node6&#45;&gt;Node10 -->
<g id="edge12" class="edge"><title>Node6&#45;&gt;Node10</title>
<path fill="none" stroke="#9a32cd" stroke-dasharray="5,2" d="M454.8,-44.9073C481.838,-50.1603 517.289,-57.048 544.965,-62.425"/>
<polygon fill="#9a32cd" stroke="#9a32cd" points="455.368,-41.4522 444.884,-42.9807 454.033,-48.3237 455.368,-41.4522"/>
<text text-anchor="middle" x="494.5" y="-59.5804" font-family="Helvetica,sans-Serif" font-size="8.00"> mycache</text>
</g>
<!-- Node7 -->
<g id="node7" class="node"><title>Node7</title>
<g id="a_node7"><a xlink:href="../../d9/db9/class_c_k_m.html" target="_top" xlink:title="A class for the CKM matrix elements. ">
<polygon fill="none" stroke="red" points="41.5,-53.4804 41.5,-70.4804 75.5,-70.4804 75.5,-53.4804 41.5,-53.4804"/>
<text text-anchor="middle" x="58.5" y="-60.0804" font-family="Helvetica,sans-Serif" font-size="8.00">CKM</text>
</a>
</g>
</g>
<!-- Node7&#45;&gt;Node4 -->
<g id="edge7" class="edge"><title>Node7&#45;&gt;Node4</title>
<path fill="none" stroke="#9a32cd" stroke-dasharray="5,2" d="M85.6426,-61.9804C115.292,-61.9804 163.759,-61.9804 196.493,-61.9804"/>
<polygon fill="#9a32cd" stroke="#9a32cd" points="85.6343,-58.4805 75.6343,-61.9804 85.6343,-65.4805 85.6343,-58.4805"/>
<text text-anchor="middle" x="155" y="-64.5804" font-family="Helvetica,sans-Serif" font-size="8.00"> myCKM</text>
</g>
<!-- Node8&#45;&gt;Node4 -->
<g id="edge8" class="edge"><title>Node8&#45;&gt;Node4</title>
<path fill="none" stroke="#9a32cd" stroke-dasharray="5,2" d="M540.146,-10.5801C478.931,0.0904401 371.992,10.8175 289,-22.9804 271.005,-30.3088 253.084,-44.2533 242.527,-53.3295"/>
<polygon fill="#9a32cd" stroke="#9a32cd" points="539.833,-14.0804 550.298,-12.4228 541.084,-7.193 539.833,-14.0804"/>
<text text-anchor="middle" x="413" y="-6.58041" font-family="Helvetica,sans-Serif" font-size="8.00"> myThreeLoopEW</text>
</g>
<!-- Node9 -->
<g id="node9" class="node"><title>Node9</title>
<g id="a_node9"><a xlink:href="../../d4/d6d/class_flavour.html" target="_top" xlink:title="The parent class in Flavour for calculating all the Wilson coefficients for various Flavor Violating ...">
<polygon fill="none" stroke="red" points="37,-17.4804 37,-34.4804 80,-34.4804 80,-17.4804 37,-17.4804"/>
<text text-anchor="middle" x="58.5" y="-24.0804" font-family="Helvetica,sans-Serif" font-size="8.00">Flavour</text>
</a>
</g>
</g>
<!-- Node9&#45;&gt;Node4 -->
<g id="edge10" class="edge"><title>Node9&#45;&gt;Node4</title>
<path fill="none" stroke="#9a32cd" stroke-dasharray="5,2" d="M90.3971,-31.8585C113.69,-36.3566 146.402,-42.8152 175,-48.9804 181.927,-50.4738 189.319,-52.1388 196.386,-53.7653"/>
<polygon fill="#9a32cd" stroke="#9a32cd" points="90.8873,-28.3888 80.4063,-29.938 89.5657,-35.2629 90.8873,-28.3888"/>
<text text-anchor="middle" x="155" y="-51.5804" font-family="Helvetica,sans-Serif" font-size="8.00"> myFlavour</text>
</g>
<!-- Node10&#45;&gt;Node4 -->
<g id="edge11" class="edge"><title>Node10&#45;&gt;Node4</title>
<path fill="none" stroke="#9a32cd" stroke-dasharray="5,2" d="M519.506,-71.5944C458.67,-71.7641 367.92,-71.1278 289,-66.9804 282.079,-66.6167 274.69,-66.0702 267.624,-65.4702"/>
<polygon fill="#9a32cd" stroke="#9a32cd" points="519.769,-75.0936 529.756,-71.5574 519.743,-68.0937 519.769,-75.0936"/>
<text text-anchor="middle" x="413" y="-74.5804" font-family="Helvetica,sans-Serif" font-size="8.00"> myApproximateFormulae</text>
</g>
</g>
</svg>
