<?xml version="1.0" encoding="UTF-8" standalone="no"?>
<!DOCTYPE svg PUBLIC "-//W3C//DTD SVG 1.1//EN"
 "http://www.w3.org/Graphics/SVG/1.1/DTD/svg11.dtd">
<!-- Generated by graphviz version 2.38.0 (20140413.2041)
 -->
<!-- Title: CorrelatedGaussianObservables.cpp Pages: 1 -->
<svg width="517pt" height="143pt"
 viewBox="0.00 0.00 516.50 143.00" xmlns="http://www.w3.org/2000/svg" xmlns:xlink="http://www.w3.org/1999/xlink">
<g id="graph0" class="graph" transform="scale(1 1) rotate(0) translate(4 139)">
<title>CorrelatedGaussianObservables.cpp</title>
<!-- Node1 -->
<g id="node1" class="node"><title>Node1</title>
<polygon fill="#bfbfbf" stroke="black" points="126.5,-117.5 126.5,-134.5 274.5,-134.5 274.5,-117.5 126.5,-117.5"/>
<text text-anchor="middle" x="200.5" y="-124.1" font-family="Helvetica,sans-Serif" font-size="8.00">CorrelatedGaussianObservables.cpp</text>
</g>
<!-- Node2 -->
<g id="node2" class="node"><title>Node2</title>
<polygon fill="none" stroke="#bfbfbf" points="0,-63.5 0,-80.5 51,-80.5 51,-63.5 0,-63.5"/>
<text text-anchor="middle" x="25.5" y="-70.1" font-family="Helvetica,sans-Serif" font-size="8.00">stdexcept</text>
</g>
<!-- Node1&#45;&gt;Node2 -->
<g id="edge1" class="edge"><title>Node1&#45;&gt;Node2</title>
<path fill="none" stroke="midnightblue" d="M175.053,-117.439C144.985,-108.504 94.775,-93.5846 60.9189,-83.5245"/>
<polygon fill="midnightblue" stroke="midnightblue" points="61.5599,-80.0638 50.9772,-80.5704 59.566,-86.7738 61.5599,-80.0638"/>
</g>
<!-- Node3 -->
<g id="node3" class="node"><title>Node3</title>
<g id="a_node3"><a xlink:href="../../d6/d42/_observables_2src_2_correlated_gaussian_observables_8h.html" target="_top" xlink:title="CorrelatedGaussianObservables.h">
<polygon fill="none" stroke="black" points="69,-63.5 69,-80.5 208,-80.5 208,-63.5 69,-63.5"/>
<text text-anchor="middle" x="138.5" y="-70.1" font-family="Helvetica,sans-Serif" font-size="8.00">CorrelatedGaussianObservables.h</text>
</a>
</g>
</g>
<!-- Node1&#45;&gt;Node3 -->
<g id="edge2" class="edge"><title>Node1&#45;&gt;Node3</title>
<path fill="none" stroke="midnightblue" d="M191.352,-117.327C181.919,-109.416 166.995,-96.8986 155.407,-87.1802"/>
<polygon fill="midnightblue" stroke="midnightblue" points="157.597,-84.4487 147.686,-80.7043 153.099,-89.8121 157.597,-84.4487"/>
</g>
<!-- Node6 -->
<g id="node6" class="node"><title>Node6</title>
<g id="a_node6"><a xlink:href="../../d8/d81/_th_obs_factory_8h.html" target="_top" xlink:title="ThObsFactory.h">
<polygon fill="none" stroke="red" points="226.5,-63.5 226.5,-80.5 300.5,-80.5 300.5,-63.5 226.5,-63.5"/>
<text text-anchor="middle" x="263.5" y="-70.1" font-family="Helvetica,sans-Serif" font-size="8.00">ThObsFactory.h</text>
</a>
</g>
</g>
<!-- Node1&#45;&gt;Node6 -->
<g id="edge5" class="edge"><title>Node1&#45;&gt;Node6</title>
<path fill="none" stroke="midnightblue" d="M209.796,-117.327C219.381,-109.416 234.546,-96.8986 246.32,-87.1802"/>
<polygon fill="midnightblue" stroke="midnightblue" points="248.682,-89.7692 254.166,-80.7043 244.226,-84.3707 248.682,-89.7692"/>
</g>
<!-- Node10 -->
<g id="node10" class="node"><title>Node10</title>
<polygon fill="none" stroke="#bfbfbf" points="319,-63.5 319,-80.5 362,-80.5 362,-63.5 319,-63.5"/>
<text text-anchor="middle" x="340.5" y="-70.1" font-family="Helvetica,sans-Serif" font-size="8.00">fstream</text>
</g>
<!-- Node1&#45;&gt;Node10 -->
<g id="edge9" class="edge"><title>Node1&#45;&gt;Node10</title>
<path fill="none" stroke="midnightblue" d="M220.857,-117.439C244.393,-108.697 283.356,-94.2249 310.396,-84.1816"/>
<polygon fill="midnightblue" stroke="midnightblue" points="311.963,-87.3333 320.118,-80.5704 309.525,-80.7713 311.963,-87.3333"/>
</g>
<!-- Node4 -->
<g id="node4" class="node"><title>Node4</title>
<g id="a_node4"><a xlink:href="../../d8/db2/_observable_8h.html" target="_top" xlink:title="Observable.h">
<polygon fill="none" stroke="red" points="13.5,-5 13.5,-22 77.5,-22 77.5,-5 13.5,-5"/>
<text text-anchor="middle" x="45.5" y="-11.6" font-family="Helvetica,sans-Serif" font-size="8.00">Observable.h</text>
</a>
</g>
</g>
<!-- Node3&#45;&gt;Node4 -->
<g id="edge3" class="edge"><title>Node3&#45;&gt;Node4</title>
<path fill="none" stroke="midnightblue" d="M125.958,-63.3802C110.843,-54.1974 85.2024,-38.6203 66.9298,-27.5192"/>
<polygon fill="midnightblue" stroke="midnightblue" points="68.5044,-24.3805 58.1407,-22.1796 64.8698,-30.363 68.5044,-24.3805"/>
</g>
<!-- Node5 -->
<g id="node5" class="node"><title>Node5</title>
<polygon fill="none" stroke="#bfbfbf" points="96,-0.5 96,-26.5 181,-26.5 181,-0.5 96,-0.5"/>
<text text-anchor="start" x="104" y="-16.1" font-family="Helvetica,sans-Serif" font-size="8.00">boost/ptr_container</text>
<text text-anchor="middle" x="138.5" y="-7.1" font-family="Helvetica,sans-Serif" font-size="8.00">/ptr_vector.hpp</text>
</g>
<!-- Node3&#45;&gt;Node5 -->
<g id="edge4" class="edge"><title>Node3&#45;&gt;Node5</title>
<path fill="none" stroke="midnightblue" d="M138.5,-63.1439C138.5,-56.3443 138.5,-46.1694 138.5,-36.8804"/>
<polygon fill="midnightblue" stroke="midnightblue" points="142,-36.638 138.5,-26.638 135,-36.638 142,-36.638"/>
</g>
<!-- Node7 -->
<g id="node7" class="node"><title>Node7</title>
<g id="a_node7"><a xlink:href="../../d6/d0a/_standard_model_8h.html" target="_top" xlink:title="StandardModel.h">
<polygon fill="none" stroke="red" points="199,-5 199,-22 276,-22 276,-5 199,-5"/>
<text text-anchor="middle" x="237.5" y="-11.6" font-family="Helvetica,sans-Serif" font-size="8.00">StandardModel.h</text>
</a>
</g>
</g>
<!-- Node6&#45;&gt;Node7 -->
<g id="edge6" class="edge"><title>Node6&#45;&gt;Node7</title>
<path fill="none" stroke="midnightblue" d="M259.885,-63.1439C256.159,-55.0481 250.232,-42.1674 245.412,-31.694"/>
<polygon fill="midnightblue" stroke="midnightblue" points="248.444,-29.9105 241.084,-22.2894 242.085,-32.8368 248.444,-29.9105"/>
</g>
<!-- Node8 -->
<g id="node8" class="node"><title>Node8</title>
<polygon fill="none" stroke="#bfbfbf" points="294.5,-5 294.5,-22 408.5,-22 408.5,-5 294.5,-5"/>
<text text-anchor="middle" x="351.5" y="-11.6" font-family="Helvetica,sans-Serif" font-size="8.00">boost/functional/factory.hpp</text>
</g>
<!-- Node6&#45;&gt;Node8 -->
<g id="edge7" class="edge"><title>Node6&#45;&gt;Node8</title>
<path fill="none" stroke="midnightblue" d="M275.368,-63.3802C289.539,-54.2817 313.488,-38.9056 330.745,-27.8258"/>
<polygon fill="midnightblue" stroke="midnightblue" points="333.015,-30.5276 339.539,-22.1796 329.233,-24.6371 333.015,-30.5276"/>
</g>
<!-- Node9 -->
<g id="node9" class="node"><title>Node9</title>
<polygon fill="none" stroke="#bfbfbf" points="426.5,-5 426.5,-22 508.5,-22 508.5,-5 426.5,-5"/>
<text text-anchor="middle" x="467.5" y="-11.6" font-family="Helvetica,sans-Serif" font-size="8.00">boost/function.hpp</text>
</g>
<!-- Node6&#45;&gt;Node9 -->
<g id="edge8" class="edge"><title>Node6&#45;&gt;Node9</title>
<path fill="none" stroke="midnightblue" d="M290.59,-63.4972C326.559,-53.5351 390.228,-35.9013 430.574,-24.727"/>
<polygon fill="midnightblue" stroke="midnightblue" points="431.595,-28.076 440.298,-22.0338 429.727,-21.33 431.595,-28.076"/>
</g>
</g>
</svg>
