<?xml version="1.0" encoding="UTF-8" standalone="no"?>
<!DOCTYPE svg PUBLIC "-//W3C//DTD SVG 1.1//EN"
 "http://www.w3.org/Graphics/SVG/1.1/DTD/svg11.dtd">
<!-- Generated by graphviz version 2.40.1 (20161225.0304)
 -->
<!-- Title: GTHDMDeltaT Pages: 1 -->
<svg width="425pt" height="441pt"
 viewBox="0.00 0.00 424.50 441.00" xmlns="http://www.w3.org/2000/svg" xmlns:xlink="http://www.w3.org/1999/xlink">
<g id="graph0" class="graph" transform="scale(1 1) rotate(0) translate(4 437)">
<title>GTHDMDeltaT</title>
<!-- Node3 -->
<g id="node1" class="node">
<title>Node3</title>
<polygon fill="#bfbfbf" stroke="#000000" points="78,-.5 78,-17.5 147,-17.5 147,-.5 78,-.5"/>
<text text-anchor="middle" x="112.5" y="-7.1" font-family="Helvetica,sans-Serif" font-size="8.00" fill="#000000">GTHDMDeltaT</text>
</g>
<!-- Node4 -->
<g id="node2" class="node">
<title>Node4</title>
<g id="a_node2"><a xlink:href="../../da/d70/class_general_t_h_d_m_s_t_u.html" target="_top" xlink:title="An observable class for the electroweak Peskin&#45;Takeuchi pseudo&#45;observables. ">
<polygon fill="none" stroke="#000000" points="70.5,-55.5 70.5,-72.5 154.5,-72.5 154.5,-55.5 70.5,-55.5"/>
<text text-anchor="middle" x="112.5" y="-62.1" font-family="Helvetica,sans-Serif" font-size="8.00" fill="#000000">GeneralTHDMSTU</text>
</a>
</g>
</g>
<!-- Node4&#45;&gt;Node3 -->
<g id="edge1" class="edge">
<title>Node4&#45;&gt;Node3</title>
<path fill="none" stroke="#191970" d="M112.5,-45.1166C112.5,-35.8173 112.5,-25.0557 112.5,-17.7149"/>
<polygon fill="#191970" stroke="#191970" points="109.0001,-45.4062 112.5,-55.4063 116.0001,-45.4063 109.0001,-45.4062"/>
</g>
<!-- Node5 -->
<g id="node3" class="node">
<title>Node5</title>
<g id="a_node3"><a xlink:href="../../dc/d1f/class_th_observable.html" target="_top" xlink:title="A class for a model prediction of an observable. ">
<polygon fill="none" stroke="#000000" points="8,-118.5 8,-135.5 75,-135.5 75,-118.5 8,-118.5"/>
<text text-anchor="middle" x="41.5" y="-125.1" font-family="Helvetica,sans-Serif" font-size="8.00" fill="#000000">ThObservable</text>
</a>
</g>
</g>
<!-- Node5&#45;&gt;Node4 -->
<g id="edge2" class="edge">
<title>Node5&#45;&gt;Node4</title>
<path fill="none" stroke="#191970" d="M59.2051,-111.2898C72.9573,-99.0872 91.5149,-82.6206 102.7116,-72.6855"/>
<polygon fill="#191970" stroke="#191970" points="56.5292,-108.985 51.3722,-118.2401 61.1752,-114.221 56.5292,-108.985"/>
</g>
<!-- Node6 -->
<g id="node4" class="node">
<title>Node6</title>
<g id="a_node4"><a xlink:href="../../dc/dd5/class_standard_model.html" target="_top" xlink:title="A model class for the Standard Model. ">
<polygon fill="none" stroke="#ff0000" points="0,-181.5 0,-198.5 71,-198.5 71,-181.5 0,-181.5"/>
<text text-anchor="middle" x="35.5" y="-188.1" font-family="Helvetica,sans-Serif" font-size="8.00" fill="#000000">StandardModel</text>
</a>
</g>
</g>
<!-- Node6&#45;&gt;Node5 -->
<g id="edge3" class="edge">
<title>Node6&#45;&gt;Node5</title>
<path fill="none" stroke="#9a32cd" stroke-dasharray="5,2" d="M37.3004,-171.096C38.4202,-159.3381 39.8069,-144.777 40.6728,-135.6855"/>
<polygon fill="#9a32cd" stroke="#9a32cd" points="33.7982,-170.9533 36.3343,-181.2401 40.7667,-171.617 33.7982,-170.9533"/>
<text text-anchor="middle" x="47" y="-156.6" font-family="Helvetica,sans-Serif" font-size="8.00" fill="#000000"> SM</text>
</g>
<!-- Node25 -->
<g id="node5" class="node">
<title>Node25</title>
<g id="a_node5"><a xlink:href="../../dd/d9b/classgslpp_1_1complex.html" target="_top" xlink:title="A class for defining operations on and functions of complex numbers. ">
<polygon fill="none" stroke="#000000" points="41.5,-415.5 41.5,-432.5 111.5,-432.5 111.5,-415.5 41.5,-415.5"/>
<text text-anchor="middle" x="76.5" y="-422.1" font-family="Helvetica,sans-Serif" font-size="8.00" fill="#000000">gslpp::complex</text>
</a>
</g>
</g>
<!-- Node25&#45;&gt;Node6 -->
<g id="edge4" class="edge">
<title>Node25&#45;&gt;Node6</title>
<path fill="none" stroke="#9a32cd" stroke-dasharray="5,2" d="M46.9868,-409.8791C42.3692,-406.3354 38.2289,-402.0645 35.5,-397 -1.3212,-328.6637 23.9934,-228.2787 32.8031,-198.5768"/>
<polygon fill="#9a32cd" stroke="#9a32cd" points="45.3206,-412.9705 55.6124,-415.4867 49.136,-407.1017 45.3206,-412.9705"/>
<text text-anchor="middle" x="65.5" y="-309.6" font-family="Helvetica,sans-Serif" font-size="8.00" fill="#000000"> rhoZ_f_cache</text>
<text text-anchor="middle" x="65.5" y="-300.6" font-family="Helvetica,sans-Serif" font-size="8.00" fill="#000000">kappaZ_f_cache</text>
</g>
<!-- Node49 -->
<g id="node6" class="node">
<title>Node49</title>
<g id="a_node6"><a xlink:href="../../dc/dfd/class_general_t_h_d_mcache.html" target="_top" xlink:title="GeneralTHDMcache">
<polygon fill="none" stroke="#ff0000" points="188,-181.5 188,-198.5 277,-198.5 277,-181.5 188,-181.5"/>
<text text-anchor="middle" x="232.5" y="-188.1" font-family="Helvetica,sans-Serif" font-size="8.00" fill="#000000">GeneralTHDMcache</text>
</a>
</g>
</g>
<!-- Node25&#45;&gt;Node49 -->
<g id="edge11" class="edge">
<title>Node25&#45;&gt;Node49</title>
<path fill="none" stroke="#9a32cd" stroke-dasharray="5,2" d="M90.0211,-406.8654C92.0797,-403.7084 94.0104,-400.3484 95.5,-397 128.8501,-322.0345 79.9572,-276.4556 136.5,-217 143.8675,-209.253 166.4687,-202.6969 187.8908,-197.9856"/>
<polygon fill="#9a32cd" stroke="#9a32cd" points="87.1351,-404.8839 84.1409,-415.0469 92.8193,-408.9693 87.1351,-404.8839"/>
<text text-anchor="middle" x="183" y="-390.6" font-family="Helvetica,sans-Serif" font-size="8.00" fill="#000000"> I_A_D_cache</text>
<text text-anchor="start" x="136.5" y="-381.6" font-family="Helvetica,sans-Serif" font-size="8.00" fill="#000000">B00_MZ2_MZ2_mHl2</text>
<text text-anchor="middle" x="183" y="-372.6" font-family="Helvetica,sans-Serif" font-size="8.00" fill="#000000">_mA2_cache</text>
<text text-anchor="start" x="136.5" y="-363.6" font-family="Helvetica,sans-Serif" font-size="8.00" fill="#000000">B00_MZ2_MW2_MW2</text>
<text text-anchor="middle" x="183" y="-354.6" font-family="Helvetica,sans-Serif" font-size="8.00" fill="#000000">_mHl2_cache</text>
<text text-anchor="start" x="136.5" y="-345.6" font-family="Helvetica,sans-Serif" font-size="8.00" fill="#000000">B00_MZ2_0_MW2_mHl2</text>
<text text-anchor="middle" x="183" y="-336.6" font-family="Helvetica,sans-Serif" font-size="8.00" fill="#000000">_cache</text>
<text text-anchor="start" x="136.5" y="-327.6" font-family="Helvetica,sans-Serif" font-size="8.00" fill="#000000">B00_MZ2_0_mHl2</text>
<text text-anchor="middle" x="183" y="-318.6" font-family="Helvetica,sans-Serif" font-size="8.00" fill="#000000">_mHp2_cache</text>
<text text-anchor="start" x="136.5" y="-309.6" font-family="Helvetica,sans-Serif" font-size="8.00" fill="#000000">B0p_MZ2_mHh2_mHh2</text>
<text text-anchor="middle" x="183" y="-300.6" font-family="Helvetica,sans-Serif" font-size="8.00" fill="#000000">_mHl2_cache</text>
<text text-anchor="start" x="136.5" y="-291.6" font-family="Helvetica,sans-Serif" font-size="8.00" fill="#000000">B0p_MZ2_mHl2_0_mHp2</text>
<text text-anchor="middle" x="183" y="-282.6" font-family="Helvetica,sans-Serif" font-size="8.00" fill="#000000">_cache</text>
<text text-anchor="start" x="136.5" y="-273.6" font-family="Helvetica,sans-Serif" font-size="8.00" fill="#000000">B0_MZ2_mHp2_0_mHl2</text>
<text text-anchor="middle" x="183" y="-264.6" font-family="Helvetica,sans-Serif" font-size="8.00" fill="#000000">_cache</text>
<text text-anchor="start" x="136.5" y="-255.6" font-family="Helvetica,sans-Serif" font-size="8.00" fill="#000000">B0_MZ2_0_MZ2_mHl2</text>
<text text-anchor="middle" x="183" y="-246.6" font-family="Helvetica,sans-Serif" font-size="8.00" fill="#000000">_cache</text>
<text text-anchor="start" x="136.5" y="-237.6" font-family="Helvetica,sans-Serif" font-size="8.00" fill="#000000">B0_MZ2_mA2_0_mHl2</text>
<text text-anchor="middle" x="183" y="-228.6" font-family="Helvetica,sans-Serif" font-size="8.00" fill="#000000">_cache</text>
<text text-anchor="middle" x="183" y="-219.6" font-family="Helvetica,sans-Serif" font-size="8.00" fill="#000000">...</text>
</g>
<!-- Node49&#45;&gt;Node4 -->
<g id="edge5" class="edge">
<title>Node49&#45;&gt;Node4</title>
<path fill="none" stroke="#9a32cd" stroke-dasharray="5,2" d="M178.1282,-178.9675C161.2326,-174.5477 145.4632,-169.0612 139.5,-163 114.6366,-137.7279 112.1129,-91.924 112.2217,-72.7798"/>
<polygon fill="#9a32cd" stroke="#9a32cd" points="177.5929,-182.4405 188.1407,-181.4428 179.2729,-175.6451 177.5929,-182.4405"/>
<text text-anchor="middle" x="141" y="-125.1" font-family="Helvetica,sans-Serif" font-size="8.00" fill="#000000"> mycache</text>
</g>
<!-- Node51 -->
<g id="node9" class="node">
<title>Node51</title>
<g id="a_node9"><a xlink:href="../../d3/d55/class_general_t_h_d_m.html" target="_top" xlink:title="A base class for generic Two&#45;Higgs&#45;Doublet models. ">
<polygon fill="none" stroke="#ff0000" points="186.5,-118.5 186.5,-135.5 254.5,-135.5 254.5,-118.5 186.5,-118.5"/>
<text text-anchor="middle" x="220.5" y="-125.1" font-family="Helvetica,sans-Serif" font-size="8.00" fill="#000000">GeneralTHDM</text>
</a>
</g>
</g>
<!-- Node49&#45;&gt;Node51 -->
<g id="edge9" class="edge">
<title>Node49&#45;&gt;Node51</title>
<path fill="none" stroke="#9a32cd" stroke-dasharray="5,2" d="M179.2885,-178.7448C164.3703,-174.4537 150.9823,-169.1052 146.5,-163 133.8175,-145.7254 161.4032,-136.3349 186.422,-131.52"/>
<polygon fill="#9a32cd" stroke="#9a32cd" points="178.6695,-182.2023 189.2346,-181.4093 180.4809,-175.4408 178.6695,-182.2023"/>
<text text-anchor="middle" x="178.5" y="-156.6" font-family="Helvetica,sans-Serif" font-size="8.00" fill="#000000"> myGTHDMcache</text>
</g>
<!-- Node12 -->
<g id="node7" class="node">
<title>Node12</title>
<g id="a_node7"><a xlink:href="../../d4/d7b/class_p_vfunctions.html" target="_top" xlink:title="A class for Passarino&#45;Veltman functions. ">
<polygon fill="none" stroke="#ff0000" points="204,-415.5 204,-432.5 263,-432.5 263,-415.5 204,-415.5"/>
<text text-anchor="middle" x="233.5" y="-422.1" font-family="Helvetica,sans-Serif" font-size="8.00" fill="#000000">PVfunctions</text>
</a>
</g>
</g>
<!-- Node12&#45;&gt;Node49 -->
<g id="edge6" class="edge">
<title>Node12&#45;&gt;Node49</title>
<path fill="none" stroke="#9a32cd" stroke-dasharray="5,2" d="M233.42,-405.2766C233.2165,-357.6695 232.6852,-233.3338 232.5382,-198.9339"/>
<polygon fill="#9a32cd" stroke="#9a32cd" points="229.9204,-405.4094 233.4632,-415.3943 236.9204,-405.3794 229.9204,-405.4094"/>
<text text-anchor="middle" x="240" y="-305.1" font-family="Helvetica,sans-Serif" font-size="8.00" fill="#000000"> PV</text>
</g>
<!-- Node50 -->
<g id="node8" class="node">
<title>Node50</title>
<g id="a_node8"><a xlink:href="../../db/d3a/class_general_t_h_d_m_runner.html" target="_top" xlink:title="An RGE running algorithm for the GeneralTHDM parameters. ">
<polygon fill="none" stroke="#000000" points="211.5,-55.5 211.5,-72.5 305.5,-72.5 305.5,-55.5 211.5,-55.5"/>
<text text-anchor="middle" x="258.5" y="-62.1" font-family="Helvetica,sans-Serif" font-size="8.00" fill="#000000">GeneralTHDMRunner</text>
</a>
</g>
</g>
<!-- Node50&#45;&gt;Node49 -->
<g id="edge7" class="edge">
<title>Node50&#45;&gt;Node49</title>
<path fill="none" stroke="#9a32cd" stroke-dasharray="5,2" d="M272.1002,-81.2566C273.9101,-84.3496 275.4878,-87.657 276.5,-91 285.7767,-121.6388 290.2838,-135.1493 274.5,-163 269.9696,-170.994 261.9901,-176.997 254.1946,-181.2873"/>
<polygon fill="#9a32cd" stroke="#9a32cd" points="274.846,-79.0717 266.3071,-72.7998 269.0711,-83.0278 274.846,-79.0717"/>
<text text-anchor="middle" x="319" y="-125.1" font-family="Helvetica,sans-Serif" font-size="8.00" fill="#000000"> myRunnerGTHDM</text>
</g>
<!-- Node51&#45;&gt;Node4 -->
<g id="edge13" class="edge">
<title>Node51&#45;&gt;Node4</title>
<path fill="none" stroke="#9a32cd" stroke-dasharray="5,2" d="M196.7629,-113.1533C175.6091,-100.8136 145.3047,-83.1361 127.3894,-72.6855"/>
<polygon fill="#9a32cd" stroke="#9a32cd" points="195.0817,-116.2246 205.4831,-118.2401 198.6088,-110.1781 195.0817,-116.2246"/>
<text text-anchor="middle" x="195" y="-93.6" font-family="Helvetica,sans-Serif" font-size="8.00" fill="#000000"> myGTHDM</text>
</g>
<!-- Node51&#45;&gt;Node49 -->
<g id="edge10" class="edge">
<title>Node51&#45;&gt;Node49</title>
<path fill="none" stroke="#9a32cd" stroke-dasharray="5,2" d="M224.0825,-145.808C226.3192,-157.5506 229.0941,-172.1188 230.8315,-181.2401"/>
<polygon fill="#9a32cd" stroke="#9a32cd" points="227.4638,-144.8539 222.1544,-135.6855 220.5874,-146.1638 227.4638,-144.8539"/>
<text text-anchor="middle" x="249" y="-156.6" font-family="Helvetica,sans-Serif" font-size="8.00" fill="#000000"> myGTHDM</text>
</g>
<!-- Node51&#45;&gt;Node50 -->
<g id="edge8" class="edge">
<title>Node51&#45;&gt;Node50</title>
<path fill="none" stroke="#9a32cd" stroke-dasharray="5,2" d="M225.5636,-108.5919C227.5815,-102.7403 230.2179,-96.3925 233.5,-91 237.6185,-84.2333 243.6127,-77.6871 248.6992,-72.7354"/>
<polygon fill="#9a32cd" stroke="#9a32cd" points="222.1798,-107.6883 222.5933,-118.275 228.8721,-109.7411 222.1798,-107.6883"/>
<text text-anchor="middle" x="255" y="-93.6" font-family="Helvetica,sans-Serif" font-size="8.00" fill="#000000"> myGTHDM</text>
</g>
<!-- Node55 -->
<g id="node10" class="node">
<title>Node55</title>
<g id="a_node10"><a xlink:href="../../d7/d10/classgslpp_1_1matrix_3_01double_01_4.html" target="_top" xlink:title="A class for constructing and defining operations on real matrices. ">
<polygon fill="none" stroke="#000000" points="281.5,-415.5 281.5,-432.5 381.5,-432.5 381.5,-415.5 281.5,-415.5"/>
<text text-anchor="middle" x="331.5" y="-422.1" font-family="Helvetica,sans-Serif" font-size="8.00" fill="#000000">gslpp::matrix&lt; double &gt;</text>
</a>
</g>
</g>
<!-- Node55&#45;&gt;Node49 -->
<g id="edge12" class="edge">
<title>Node55&#45;&gt;Node49</title>
<path fill="none" stroke="#9a32cd" stroke-dasharray="5,2" d="M325.7911,-405.62C314.0276,-368.7697 285.2551,-283.6777 250.5,-217 247.1669,-210.6054 242.6669,-203.8554 239.0002,-198.7041"/>
<polygon fill="#9a32cd" stroke="#9a32cd" points="322.5399,-406.948 328.8836,-415.4337 329.2162,-404.8441 322.5399,-406.948"/>
<text text-anchor="start" x="322.5" y="-372.6" font-family="Helvetica,sans-Serif" font-size="8.00" fill="#000000"> ATLAS13_gg_phi3_phi2Z</text>
<text text-anchor="middle" x="369.5" y="-363.6" font-family="Helvetica,sans-Serif" font-size="8.00" fill="#000000">_bbZ</text>
<text text-anchor="middle" x="369.5" y="-354.6" font-family="Helvetica,sans-Serif" font-size="8.00" fill="#000000">CMS8_mu_pp_phi_VV</text>
<text text-anchor="middle" x="369.5" y="-345.6" font-family="Helvetica,sans-Serif" font-size="8.00" fill="#000000">csrH_bottom_13</text>
<text text-anchor="middle" x="369.5" y="-336.6" font-family="Helvetica,sans-Serif" font-size="8.00" fill="#000000">log_cs_ggHp_13</text>
<text text-anchor="middle" x="369.5" y="-327.6" font-family="Helvetica,sans-Serif" font-size="8.00" fill="#000000">log_cs_ttA_13</text>
<text text-anchor="start" x="322.5" y="-318.6" font-family="Helvetica,sans-Serif" font-size="8.00" fill="#000000">ATLAS13_bb_phi_phi1Z</text>
<text text-anchor="middle" x="369.5" y="-309.6" font-family="Helvetica,sans-Serif" font-size="8.00" fill="#000000">_bbZ</text>
<text text-anchor="start" x="322.5" y="-300.6" font-family="Helvetica,sans-Serif" font-size="8.00" fill="#000000">ATLAS13_gg_phi_ZZ</text>
<text text-anchor="middle" x="369.5" y="-291.6" font-family="Helvetica,sans-Serif" font-size="8.00" fill="#000000">_qqllnunu</text>
<text text-anchor="start" x="322.5" y="-282.6" font-family="Helvetica,sans-Serif" font-size="8.00" fill="#000000">ATLAS13_gg_phi_Zga</text>
<text text-anchor="middle" x="369.5" y="-273.6" font-family="Helvetica,sans-Serif" font-size="8.00" fill="#000000">_llga</text>
<text text-anchor="start" x="322.5" y="-264.6" font-family="Helvetica,sans-Serif" font-size="8.00" fill="#000000">ATLAS13_bb_phi</text>
<text text-anchor="middle" x="369.5" y="-255.6" font-family="Helvetica,sans-Serif" font-size="8.00" fill="#000000">_tt</text>
<text text-anchor="middle" x="369.5" y="-246.6" font-family="Helvetica,sans-Serif" font-size="8.00" fill="#000000">log_cs_WH_13</text>
<text text-anchor="middle" x="369.5" y="-237.6" font-family="Helvetica,sans-Serif" font-size="8.00" fill="#000000">...</text>
</g>
</g>
</svg>
