<?xml version="1.0" encoding="UTF-8" standalone="no"?>
<!DOCTYPE svg PUBLIC "-//W3C//DTD SVG 1.1//EN"
 "http://www.w3.org/Graphics/SVG/1.1/DTD/svg11.dtd">
<!-- Generated by graphviz version 2.40.1 (20161225.0304)
 -->
<!-- Title: CommentedTextParser.cpp Pages: 1 -->
<svg width="371pt" height="242pt"
 viewBox="0.00 0.00 370.50 242.00" xmlns="http://www.w3.org/2000/svg" xmlns:xlink="http://www.w3.org/1999/xlink">
<g id="graph0" class="graph" transform="scale(1 1) rotate(0) translate(4 238)">
<title>CommentedTextParser.cpp</title>
<!-- Node0 -->
<g id="node1" class="node">
<title>Node0</title>
<polygon fill="#bfbfbf" stroke="#000000" points="140.5,-216.5 140.5,-233.5 254.5,-233.5 254.5,-216.5 140.5,-216.5"/>
<text text-anchor="middle" x="197.5" y="-223.1" font-family="Helvetica,sans-Serif" font-size="8.00" fill="#000000">CommentedTextParser.cpp</text>
</g>
<!-- Node1 -->
<g id="node2" class="node">
<title>Node1</title>
<g id="a_node2"><a xlink:href="../../d5/d0a/_commented_text_parser_8hpp.html" target="_top" xlink:title="CommentedTextParser.hpp">
<polygon fill="none" stroke="#000000" points="140,-162.5 140,-179.5 255,-179.5 255,-162.5 140,-162.5"/>
<text text-anchor="middle" x="197.5" y="-169.1" font-family="Helvetica,sans-Serif" font-size="8.00" fill="#000000">CommentedTextParser.hpp</text>
</a>
</g>
</g>
<!-- Node0&#45;&gt;Node1 -->
<g id="edge1" class="edge">
<title>Node0&#45;&gt;Node1</title>
<path fill="none" stroke="#191970" d="M197.5,-216.083C197.5,-209.0059 197.5,-198.8611 197.5,-189.9865"/>
<polygon fill="#191970" stroke="#191970" points="201.0001,-189.751 197.5,-179.7511 194.0001,-189.7511 201.0001,-189.751"/>
</g>
<!-- Node2 -->
<g id="node3" class="node">
<title>Node2</title>
<polygon fill="none" stroke="#bfbfbf" points="98,-108.5 98,-125.5 141,-125.5 141,-108.5 98,-108.5"/>
<text text-anchor="middle" x="119.5" y="-115.1" font-family="Helvetica,sans-Serif" font-size="8.00" fill="#000000">fstream</text>
</g>
<!-- Node1&#45;&gt;Node2 -->
<g id="edge2" class="edge">
<title>Node1&#45;&gt;Node2</title>
<path fill="none" stroke="#191970" d="M184.968,-162.324C172.9141,-153.979 154.4732,-141.2122 140.2313,-131.3524"/>
<polygon fill="#191970" stroke="#191970" points="142.2151,-128.469 132.0009,-125.6545 138.2306,-134.2243 142.2151,-128.469"/>
</g>
<!-- Node3 -->
<g id="node4" class="node">
<title>Node3</title>
<g id="a_node4"><a xlink:href="../../d3/d97/_string_parser_8hpp.html" target="_top" xlink:title="StringParser.hpp">
<polygon fill="none" stroke="#ff0000" points="159,-108.5 159,-125.5 236,-125.5 236,-108.5 159,-108.5"/>
<text text-anchor="middle" x="197.5" y="-115.1" font-family="Helvetica,sans-Serif" font-size="8.00" fill="#000000">StringParser.hpp</text>
</a>
</g>
</g>
<!-- Node1&#45;&gt;Node3 -->
<g id="edge3" class="edge">
<title>Node1&#45;&gt;Node3</title>
<path fill="none" stroke="#191970" d="M197.5,-162.083C197.5,-155.0059 197.5,-144.8611 197.5,-135.9865"/>
<polygon fill="#191970" stroke="#191970" points="201.0001,-135.751 197.5,-125.7511 194.0001,-135.7511 201.0001,-135.751"/>
</g>
<!-- Node10 -->
<g id="node10" class="node">
<title>Node10</title>
<g id="a_node10"><a xlink:href="../../d6/d44/_vectorlike_array_8hpp.html" target="_top" xlink:title="VectorlikeArray.hpp">
<polygon fill="none" stroke="#ff0000" points="276.5,-54.5 276.5,-71.5 362.5,-71.5 362.5,-54.5 276.5,-54.5"/>
<text text-anchor="middle" x="319.5" y="-61.1" font-family="Helvetica,sans-Serif" font-size="8.00" fill="#000000">VectorlikeArray.hpp</text>
</a>
</g>
</g>
<!-- Node1&#45;&gt;Node10 -->
<g id="edge11" class="edge">
<title>Node1&#45;&gt;Node10</title>
<path fill="none" stroke="#191970" d="M207.4838,-162.1619C228.2296,-143.7967 276.22,-101.3135 302.1412,-78.3668"/>
<polygon fill="#191970" stroke="#191970" points="304.5515,-80.9075 309.7192,-71.6584 299.9117,-75.6661 304.5515,-80.9075"/>
</g>
<!-- Node4 -->
<g id="node5" class="node">
<title>Node4</title>
<polygon fill="none" stroke="#bfbfbf" points="0,-54.5 0,-71.5 37,-71.5 37,-54.5 0,-54.5"/>
<text text-anchor="middle" x="18.5" y="-61.1" font-family="Helvetica,sans-Serif" font-size="8.00" fill="#000000">cstdio</text>
</g>
<!-- Node3&#45;&gt;Node4 -->
<g id="edge4" class="edge">
<title>Node3&#45;&gt;Node4</title>
<path fill="none" stroke="#191970" d="M167.4145,-108.4193C138.6644,-100.1479 93.882,-87.079 46.8192,-72.3474"/>
<polygon fill="#191970" stroke="#191970" points="47.6536,-68.9409 37.0642,-69.28 45.5538,-75.6186 47.6536,-68.9409"/>
</g>
<!-- Node5 -->
<g id="node6" class="node">
<title>Node5</title>
<polygon fill="none" stroke="#bfbfbf" points="55,-54.5 55,-71.5 102,-71.5 102,-54.5 55,-54.5"/>
<text text-anchor="middle" x="78.5" y="-61.1" font-family="Helvetica,sans-Serif" font-size="8.00" fill="#000000">iostream</text>
</g>
<!-- Node3&#45;&gt;Node5 -->
<g id="edge5" class="edge">
<title>Node3&#45;&gt;Node5</title>
<path fill="none" stroke="#191970" d="M178.6441,-108.4435C159.234,-99.6356 128.7699,-85.8116 106.5355,-75.722"/>
<polygon fill="#191970" stroke="#191970" points="107.8203,-72.4615 97.2677,-71.5164 104.9277,-78.836 107.8203,-72.4615"/>
</g>
<!-- Node6 -->
<g id="node7" class="node">
<title>Node6</title>
<polygon fill="none" stroke="#bfbfbf" points="120.5,-54.5 120.5,-71.5 156.5,-71.5 156.5,-54.5 120.5,-54.5"/>
<text text-anchor="middle" x="138.5" y="-61.1" font-family="Helvetica,sans-Serif" font-size="8.00" fill="#000000">string</text>
</g>
<!-- Node3&#45;&gt;Node6 -->
<g id="edge6" class="edge">
<title>Node3&#45;&gt;Node6</title>
<path fill="none" stroke="#191970" d="M188.0206,-108.324C179.2989,-100.3414 166.1565,-88.3128 155.6022,-78.6529"/>
<polygon fill="#191970" stroke="#191970" points="157.8917,-76.0036 148.1519,-71.8339 153.1655,-81.1674 157.8917,-76.0036"/>
</g>
<!-- Node7 -->
<g id="node8" class="node">
<title>Node7</title>
<polygon fill="none" stroke="#bfbfbf" points="175,-54.5 175,-71.5 220,-71.5 220,-54.5 175,-54.5"/>
<text text-anchor="middle" x="197.5" y="-61.1" font-family="Helvetica,sans-Serif" font-size="8.00" fill="#000000">sstream</text>
</g>
<!-- Node3&#45;&gt;Node7 -->
<g id="edge7" class="edge">
<title>Node3&#45;&gt;Node7</title>
<path fill="none" stroke="#191970" d="M197.5,-108.083C197.5,-101.0059 197.5,-90.8611 197.5,-81.9865"/>
<polygon fill="#191970" stroke="#191970" points="201.0001,-81.751 197.5,-71.7511 194.0001,-81.7511 201.0001,-81.751"/>
</g>
<!-- Node8 -->
<g id="node9" class="node">
<title>Node8</title>
<polygon fill="none" stroke="#bfbfbf" points="264.5,-.5 264.5,-17.5 302.5,-17.5 302.5,-.5 264.5,-.5"/>
<text text-anchor="middle" x="283.5" y="-7.1" font-family="Helvetica,sans-Serif" font-size="8.00" fill="#000000">vector</text>
</g>
<!-- Node3&#45;&gt;Node8 -->
<g id="edge8" class="edge">
<title>Node3&#45;&gt;Node8</title>
<path fill="none" stroke="#191970" d="M204.5377,-108.1619C218.9086,-90.1148 251.8253,-48.7775 270.3005,-25.5762"/>
<polygon fill="#191970" stroke="#191970" points="273.1141,-27.6614 276.6054,-17.6584 267.6381,-23.3009 273.1141,-27.6614"/>
</g>
<!-- Node3&#45;&gt;Node10 -->
<g id="edge9" class="edge">
<title>Node3&#45;&gt;Node10</title>
<path fill="none" stroke="#191970" d="M216.8313,-108.4435C236.8199,-99.5961 268.2431,-85.6875 291.0639,-75.5865"/>
<polygon fill="#191970" stroke="#191970" points="292.5315,-78.7645 300.2592,-71.5164 289.6982,-72.3635 292.5315,-78.7645"/>
</g>
<!-- Node10&#45;&gt;Node8 -->
<g id="edge10" class="edge">
<title>Node10&#45;&gt;Node8</title>
<path fill="none" stroke="#191970" d="M313.5553,-54.083C308.5227,-46.5341 301.1632,-35.4948 294.9865,-26.2298"/>
<polygon fill="#191970" stroke="#191970" points="297.7933,-24.1301 289.3341,-17.7511 291.9689,-28.0131 297.7933,-24.1301"/>
</g>
</g>
</svg>
