<?xml version="1.0" encoding="UTF-8" standalone="no"?>
<!DOCTYPE svg PUBLIC "-//W3C//DTD SVG 1.1//EN"
 "http://www.w3.org/Graphics/SVG/1.1/DTD/svg11.dtd">
<!-- Generated by graphviz version 2.38.0 (20140413.2041)
 -->
<!-- Title: NPEffectiveGIMR.h Pages: 1 -->
<svg width="306pt" height="296pt"
 viewBox="0.00 0.00 305.78 296.00" xmlns="http://www.w3.org/2000/svg" xmlns:xlink="http://www.w3.org/1999/xlink">
<g id="graph0" class="graph" transform="scale(1 1) rotate(0) translate(4 292)">
<title>NPEffectiveGIMR.h</title>
<!-- Node1 -->
<g id="node1" class="node"><title>Node1</title>
<polygon fill="#bfbfbf" stroke="black" points="131.284,-270.5 131.284,-287.5 217.284,-287.5 217.284,-270.5 131.284,-270.5"/>
<text text-anchor="middle" x="174.284" y="-277.1" font-family="Helvetica,sans-Serif" font-size="8.00">NPEffectiveGIMR.h</text>
</g>
<!-- Node2 -->
<g id="node2" class="node"><title>Node2</title>
<g id="a_node2"><a xlink:href="../../d9/d72/gslpp_8h.html" target="_top" xlink:title="gslpp.h">
<polygon fill="none" stroke="black" points="55.2836,-216.5 55.2836,-233.5 97.2836,-233.5 97.2836,-216.5 55.2836,-216.5"/>
<text text-anchor="middle" x="76.2836" y="-223.1" font-family="Helvetica,sans-Serif" font-size="8.00">gslpp.h</text>
</a>
</g>
</g>
<!-- Node1&#45;&gt;Node2 -->
<g id="edge1" class="edge"><title>Node1&#45;&gt;Node2</title>
<path fill="none" stroke="midnightblue" d="M159.823,-270.327C143.954,-261.907 118.252,-248.269 99.5421,-238.341"/>
<polygon fill="midnightblue" stroke="midnightblue" points="100.959,-235.131 90.4845,-233.535 97.6775,-241.314 100.959,-235.131"/>
</g>
<!-- Node8 -->
<g id="node8" class="node"><title>Node8</title>
<g id="a_node8"><a xlink:href="../../d2/de8/_n_pbase_8h.html" target="_top" xlink:title="NPbase.h">
<polygon fill="none" stroke="red" points="115.284,-216.5 115.284,-233.5 167.284,-233.5 167.284,-216.5 115.284,-216.5"/>
<text text-anchor="middle" x="141.284" y="-223.1" font-family="Helvetica,sans-Serif" font-size="8.00">NPbase.h</text>
</a>
</g>
</g>
<!-- Node1&#45;&gt;Node8 -->
<g id="edge17" class="edge"><title>Node1&#45;&gt;Node8</title>
<path fill="none" stroke="midnightblue" d="M169.414,-270.327C164.735,-262.954 157.516,-251.579 151.563,-242.198"/>
<polygon fill="midnightblue" stroke="midnightblue" points="154.486,-240.272 146.173,-233.704 148.576,-244.023 154.486,-240.272"/>
</g>
<!-- Node9 -->
<g id="node9" class="node"><title>Node9</title>
<polygon fill="none" stroke="#bfbfbf" points="185.784,-216.5 185.784,-233.5 228.784,-233.5 228.784,-216.5 185.784,-216.5"/>
<text text-anchor="middle" x="207.284" y="-223.1" font-family="Helvetica,sans-Serif" font-size="8.00">string.h</text>
</g>
<!-- Node1&#45;&gt;Node9 -->
<g id="edge18" class="edge"><title>Node1&#45;&gt;Node9</title>
<path fill="none" stroke="midnightblue" d="M179.153,-270.327C183.832,-262.954 191.051,-251.579 197.004,-242.198"/>
<polygon fill="midnightblue" stroke="midnightblue" points="199.991,-244.023 202.394,-233.704 194.081,-240.272 199.991,-244.023"/>
</g>
<!-- Node10 -->
<g id="node10" class="node"><title>Node10</title>
<polygon fill="none" stroke="#bfbfbf" points="246.784,-216.5 246.784,-233.5 297.784,-233.5 297.784,-216.5 246.784,-216.5"/>
<text text-anchor="middle" x="272.284" y="-223.1" font-family="Helvetica,sans-Serif" font-size="8.00">stdexcept</text>
</g>
<!-- Node1&#45;&gt;Node10 -->
<g id="edge19" class="edge"><title>Node1&#45;&gt;Node10</title>
<path fill="none" stroke="midnightblue" d="M188.744,-270.327C204.613,-261.907 230.315,-248.269 249.025,-238.341"/>
<polygon fill="midnightblue" stroke="midnightblue" points="250.89,-241.314 258.083,-233.535 247.609,-235.131 250.89,-241.314"/>
</g>
<!-- Node3 -->
<g id="node3" class="node"><title>Node3</title>
<g id="a_node3"><a xlink:href="../../d1/dc2/gslpp__complex_8h.html" target="_top" xlink:title="gslpp_complex.h">
<polygon fill="none" stroke="red" points="114.784,-0.5 114.784,-17.5 191.784,-17.5 191.784,-0.5 114.784,-0.5"/>
<text text-anchor="middle" x="153.284" y="-7.1" font-family="Helvetica,sans-Serif" font-size="8.00">gslpp_complex.h</text>
</a>
</g>
</g>
<!-- Node2&#45;&gt;Node3 -->
<g id="edge2" class="edge"><title>Node2&#45;&gt;Node3</title>
<path fill="none" stroke="midnightblue" d="M68.452,-216.164C43.8858,-190.633 -27.7026,-108.366 12.2836,-54 33.2597,-25.4805 72.6191,-14.9249 104.433,-11.2521"/>
<polygon fill="midnightblue" stroke="midnightblue" points="104.846,-14.7287 114.465,-10.2874 104.175,-7.76083 104.846,-14.7287"/>
</g>
<!-- Node4 -->
<g id="node4" class="node"><title>Node4</title>
<g id="a_node4"><a xlink:href="../../da/d8e/gslpp__vector__double_8h.html" target="_top" xlink:title="gslpp_vector_double.h">
<polygon fill="none" stroke="red" points="181.784,-54.5 181.784,-71.5 278.784,-71.5 278.784,-54.5 181.784,-54.5"/>
<text text-anchor="middle" x="230.284" y="-61.1" font-family="Helvetica,sans-Serif" font-size="8.00">gslpp_vector_double.h</text>
</a>
</g>
</g>
<!-- Node2&#45;&gt;Node4 -->
<g id="edge3" class="edge"><title>Node2&#45;&gt;Node4</title>
<path fill="none" stroke="midnightblue" d="M97.559,-218.078C133.182,-208.006 201.845,-187.87 210.284,-180 237.24,-154.858 236.139,-107.558 233.136,-81.8058"/>
<polygon fill="midnightblue" stroke="midnightblue" points="236.567,-81.0666 231.716,-71.6472 229.634,-82.0354 236.567,-81.0666"/>
</g>
<!-- Node5 -->
<g id="node5" class="node"><title>Node5</title>
<g id="a_node5"><a xlink:href="../../da/dad/gslpp__vector__complex_8h.html" target="_top" xlink:title="gslpp_vector_complex.h">
<polygon fill="none" stroke="red" points="21.7836,-54.5 21.7836,-71.5 124.784,-71.5 124.784,-54.5 21.7836,-54.5"/>
<text text-anchor="middle" x="73.2836" y="-61.1" font-family="Helvetica,sans-Serif" font-size="8.00">gslpp_vector_complex.h</text>
</a>
</g>
</g>
<!-- Node2&#45;&gt;Node5 -->
<g id="edge5" class="edge"><title>Node2&#45;&gt;Node5</title>
<path fill="none" stroke="midnightblue" d="M76.1389,-216.283C75.6825,-191.943 74.2652,-116.354 73.6153,-81.6925"/>
<polygon fill="midnightblue" stroke="midnightblue" points="77.1138,-81.5723 73.4268,-71.6397 70.115,-81.7036 77.1138,-81.5723"/>
</g>
<!-- Node6 -->
<g id="node6" class="node"><title>Node6</title>
<g id="a_node6"><a xlink:href="../../d0/ddb/gslpp__matrix__double_8h.html" target="_top" xlink:title="gslpp_matrix_double.h">
<polygon fill="none" stroke="red" points="104.784,-162.5 104.784,-179.5 201.784,-179.5 201.784,-162.5 104.784,-162.5"/>
<text text-anchor="middle" x="153.284" y="-169.1" font-family="Helvetica,sans-Serif" font-size="8.00">gslpp_matrix_double.h</text>
</a>
</g>
</g>
<!-- Node2&#45;&gt;Node6 -->
<g id="edge7" class="edge"><title>Node2&#45;&gt;Node6</title>
<path fill="none" stroke="midnightblue" d="M87.6452,-216.327C99.7704,-208.139 119.203,-195.016 133.783,-185.169"/>
<polygon fill="midnightblue" stroke="midnightblue" points="135.797,-188.032 142.126,-179.535 131.88,-182.231 135.797,-188.032"/>
</g>
<!-- Node7 -->
<g id="node7" class="node"><title>Node7</title>
<g id="a_node7"><a xlink:href="../../d9/d25/gslpp__matrix__complex_8h.html" target="_top" xlink:title="gslpp_matrix_complex.h">
<polygon fill="none" stroke="red" points="101.784,-108.5 101.784,-125.5 204.784,-125.5 204.784,-108.5 101.784,-108.5"/>
<text text-anchor="middle" x="153.284" y="-115.1" font-family="Helvetica,sans-Serif" font-size="8.00">gslpp_matrix_complex.h</text>
</a>
</g>
</g>
<!-- Node2&#45;&gt;Node7 -->
<g id="edge16" class="edge"><title>Node2&#45;&gt;Node7</title>
<path fill="none" stroke="midnightblue" d="M77.0794,-216.479C78.6973,-204.118 83.295,-179.168 95.2836,-162 104.221,-149.201 118.036,-138.509 129.942,-130.872"/>
<polygon fill="midnightblue" stroke="midnightblue" points="131.827,-133.822 138.561,-125.642 128.196,-127.837 131.827,-133.822"/>
</g>
<!-- Node4&#45;&gt;Node3 -->
<g id="edge4" class="edge"><title>Node4&#45;&gt;Node3</title>
<path fill="none" stroke="midnightblue" d="M218.922,-54.3272C206.797,-46.1388 187.365,-33.0157 172.784,-23.1692"/>
<polygon fill="midnightblue" stroke="midnightblue" points="174.688,-20.2313 164.441,-17.5352 170.77,-26.0324 174.688,-20.2313"/>
</g>
<!-- Node5&#45;&gt;Node3 -->
<g id="edge6" class="edge"><title>Node5&#45;&gt;Node3</title>
<path fill="none" stroke="midnightblue" d="M85.0878,-54.3272C97.6855,-46.1388 117.875,-33.0157 133.023,-23.1692"/>
<polygon fill="midnightblue" stroke="midnightblue" points="135.214,-25.9197 141.691,-17.5352 131.399,-20.0506 135.214,-25.9197"/>
</g>
<!-- Node6&#45;&gt;Node3 -->
<g id="edge8" class="edge"><title>Node6&#45;&gt;Node3</title>
<path fill="none" stroke="midnightblue" d="M176.467,-162.46C223.812,-145.829 324.224,-103.516 288.284,-54 268.704,-27.0251 232.146,-16.2706 202.007,-12.1272"/>
<polygon fill="midnightblue" stroke="midnightblue" points="202.405,-8.65 192.065,-10.9616 201.59,-15.6024 202.405,-8.65"/>
</g>
<!-- Node6&#45;&gt;Node4 -->
<g id="edge9" class="edge"><title>Node6&#45;&gt;Node4</title>
<path fill="none" stroke="midnightblue" d="M168.897,-162.415C182.583,-154.981 202.005,-142.386 213.284,-126 222.387,-112.774 226.628,-94.8337 228.596,-81.6543"/>
<polygon fill="midnightblue" stroke="midnightblue" points="232.094,-81.8809 229.806,-71.536 225.143,-81.0498 232.094,-81.8809"/>
</g>
<!-- Node6&#45;&gt;Node5 -->
<g id="edge10" class="edge"><title>Node6&#45;&gt;Node5</title>
<path fill="none" stroke="midnightblue" d="M137.526,-162.396C123.69,-154.949 103.994,-142.347 92.2836,-126 82.8517,-112.834 78.0204,-94.8865 75.5975,-81.689"/>
<polygon fill="midnightblue" stroke="midnightblue" points="79.0176,-80.9026 74.0331,-71.5535 72.0995,-81.9704 79.0176,-80.9026"/>
</g>
<!-- Node6&#45;&gt;Node7 -->
<g id="edge11" class="edge"><title>Node6&#45;&gt;Node7</title>
<path fill="none" stroke="midnightblue" d="M148.328,-162.327C146.629,-155.338 146.136,-144.753 146.851,-135.679"/>
<polygon fill="midnightblue" stroke="midnightblue" points="150.325,-136.108 148.321,-125.704 143.4,-135.087 150.325,-136.108"/>
</g>
<!-- Node7&#45;&gt;Node3 -->
<g id="edge12" class="edge"><title>Node7&#45;&gt;Node3</title>
<path fill="none" stroke="midnightblue" d="M153.284,-108.377C153.284,-91.6457 153.284,-51.3313 153.284,-27.8308"/>
<polygon fill="midnightblue" stroke="midnightblue" points="156.784,-27.5541 153.284,-17.5542 149.784,-27.5542 156.784,-27.5541"/>
</g>
<!-- Node7&#45;&gt;Node4 -->
<g id="edge13" class="edge"><title>Node7&#45;&gt;Node4</title>
<path fill="none" stroke="midnightblue" d="M164.645,-108.327C176.77,-100.139 196.203,-87.0157 210.783,-77.1692"/>
<polygon fill="midnightblue" stroke="midnightblue" points="212.797,-80.0324 219.126,-71.5352 208.88,-74.2313 212.797,-80.0324"/>
</g>
<!-- Node7&#45;&gt;Node5 -->
<g id="edge14" class="edge"><title>Node7&#45;&gt;Node5</title>
<path fill="none" stroke="midnightblue" d="M141.479,-108.327C128.882,-100.139 108.692,-87.0157 93.5439,-77.1692"/>
<polygon fill="midnightblue" stroke="midnightblue" points="95.1681,-74.0506 84.8762,-71.5352 91.3532,-79.9197 95.1681,-74.0506"/>
</g>
<!-- Node7&#45;&gt;Node6 -->
<g id="edge15" class="edge"><title>Node7&#45;&gt;Node6</title>
<path fill="none" stroke="midnightblue" d="M158.247,-125.704C159.942,-132.705 160.431,-143.293 159.713,-152.362"/>
<polygon fill="midnightblue" stroke="midnightblue" points="156.24,-151.923 158.239,-162.327 163.165,-152.947 156.24,-151.923"/>
</g>
</g>
</svg>
