<?xml version="1.0" encoding="UTF-8" standalone="no"?>
<!DOCTYPE svg PUBLIC "-//W3C//DTD SVG 1.1//EN"
 "http://www.w3.org/Graphics/SVG/1.1/DTD/svg11.dtd">
<!-- Generated by graphviz version 2.40.1 (20161225.0304)
 -->
<!-- Title: FlavourWilsonCoefficientMatching Pages: 1 -->
<svg width="113pt" height="143pt"
 viewBox="0.00 0.00 113.00 143.00" xmlns="http://www.w3.org/2000/svg" xmlns:xlink="http://www.w3.org/1999/xlink">
<g id="graph0" class="graph" transform="scale(1 1) rotate(0) translate(4 139)">
<title>FlavourWilsonCoefficientMatching</title>
<!-- Node0 -->
<g id="node1" class="node">
<title>Node0</title>
<polygon fill="#bfbfbf" stroke="#000000" points="0,-.5 0,-26.5 105,-26.5 105,-.5 0,-.5"/>
<text text-anchor="start" x="8" y="-16.1" font-family="Helvetica,sans-Serif" font-size="8.00" fill="#000000">FlavourWilsonCoefficient</text>
<text text-anchor="middle" x="52.5" y="-7.1" font-family="Helvetica,sans-Serif" font-size="8.00" fill="#000000">Matching</text>
</g>
<!-- Node1 -->
<g id="node2" class="node">
<title>Node1</title>
<g id="a_node2"><a xlink:href="../../d6/d2e/class_standard_model_matching.html" target="_top" xlink:title="A class for the matching in the Standard Model. ">
<polygon fill="none" stroke="#000000" points="1,-63.5 1,-80.5 104,-80.5 104,-63.5 1,-63.5"/>
<text text-anchor="middle" x="52.5" y="-70.1" font-family="Helvetica,sans-Serif" font-size="8.00" fill="#000000">StandardModelMatching</text>
</a>
</g>
</g>
<!-- Node1&#45;&gt;Node0 -->
<g id="edge1" class="edge">
<title>Node1&#45;&gt;Node0</title>
<path fill="none" stroke="#191970" d="M52.5,-53.1372C52.5,-44.5195 52.5,-34.5195 52.5,-26.7197"/>
<polygon fill="#191970" stroke="#191970" points="49.0001,-53.3681 52.5,-63.3681 56.0001,-53.3682 49.0001,-53.3681"/>
</g>
<!-- Node2 -->
<g id="node3" class="node">
<title>Node2</title>
<g id="a_node3"><a xlink:href="../../d0/d2a/class_model_matching.html" target="_top" xlink:title="A class for a template of model matching. ">
<polygon fill="none" stroke="#000000" points="17,-117.5 17,-134.5 88,-134.5 88,-117.5 17,-117.5"/>
<text text-anchor="middle" x="52.5" y="-124.1" font-family="Helvetica,sans-Serif" font-size="8.00" fill="#000000">ModelMatching</text>
</a>
</g>
</g>
<!-- Node2&#45;&gt;Node1 -->
<g id="edge2" class="edge">
<title>Node2&#45;&gt;Node1</title>
<path fill="none" stroke="#191970" d="M52.5,-106.8045C52.5,-97.9102 52.5,-87.7798 52.5,-80.7511"/>
<polygon fill="#191970" stroke="#191970" points="49.0001,-107.083 52.5,-117.083 56.0001,-107.083 49.0001,-107.083"/>
</g>
</g>
</svg>
