<?xml version="1.0" encoding="UTF-8" standalone="no"?>
<!DOCTYPE svg PUBLIC "-//W3C//DTD SVG 1.1//EN"
 "http://www.w3.org/Graphics/SVG/1.1/DTD/svg11.dtd">
<!-- Generated by graphviz version 2.38.0 (20140413.2041)
 -->
<!-- Title: SUSYMassInsertionMatching.h Pages: 1 -->
<svg width="364pt" height="134pt"
 viewBox="0.00 0.00 364.00 134.00" xmlns="http://www.w3.org/2000/svg" xmlns:xlink="http://www.w3.org/1999/xlink">
<g id="graph0" class="graph" transform="scale(1 1) rotate(0) translate(4 130)">
<title>SUSYMassInsertionMatching.h</title>
<!-- Node1 -->
<g id="node1" class="node"><title>Node1</title>
<polygon fill="#bfbfbf" stroke="black" points="154.5,-108.5 154.5,-125.5 281.5,-125.5 281.5,-108.5 154.5,-108.5"/>
<text text-anchor="middle" x="218" y="-115.1" font-family="Helvetica,sans-Serif" font-size="8.00">SUSYMassInsertionMatching.h</text>
</g>
<!-- Node2 -->
<g id="node2" class="node"><title>Node2</title>
<g id="a_node2"><a xlink:href="../../d9/df7/_s_u_s_y_mass_insertion_8h.html" target="_top" xlink:title="SUSYMassInsertion.h">
<polygon fill="none" stroke="black" points="117.5,-54.5 117.5,-71.5 212.5,-71.5 212.5,-54.5 117.5,-54.5"/>
<text text-anchor="middle" x="165" y="-61.1" font-family="Helvetica,sans-Serif" font-size="8.00">SUSYMassInsertion.h</text>
</a>
</g>
</g>
<!-- Node1&#45;&gt;Node2 -->
<g id="edge1" class="edge"><title>Node1&#45;&gt;Node2</title>
<path fill="none" stroke="midnightblue" d="M203.007,-101.29C193.195,-91.663 180.771,-79.4739 172.852,-71.7043"/>
<polygon fill="midnightblue" stroke="midnightblue" points="200.59,-103.822 210.18,-108.327 205.493,-98.8254 200.59,-103.822"/>
</g>
<!-- Node5 -->
<g id="node5" class="node"><title>Node5</title>
<g id="a_node5"><a xlink:href="../../d3/d52/_s_u_s_y_mass_insertion_matching_8cpp.html" target="_top" xlink:title="SUSYMassInsertionMatching.cpp">
<polygon fill="none" stroke="black" points="220,-0.5 220,-17.5 356,-17.5 356,-0.5 220,-0.5"/>
<text text-anchor="middle" x="288" y="-7.1" font-family="Helvetica,sans-Serif" font-size="8.00">SUSYMassInsertionMatching.cpp</text>
</a>
</g>
</g>
<!-- Node1&#45;&gt;Node5 -->
<g id="edge5" class="edge"><title>Node1&#45;&gt;Node5</title>
<path fill="none" stroke="midnightblue" d="M228.587,-99.9687C243.919,-76.7514 271.704,-34.6768 283.011,-17.5542"/>
<polygon fill="midnightblue" stroke="midnightblue" points="225.624,-98.1033 223.034,-108.377 231.466,-101.961 225.624,-98.1033"/>
</g>
<!-- Node3 -->
<g id="node3" class="node"><title>Node3</title>
<g id="a_node3"><a xlink:href="../../d3/df6/_model_factory_8cpp.html" target="_top" xlink:title="ModelFactory.cpp">
<polygon fill="none" stroke="black" points="0,-0.5 0,-17.5 80,-17.5 80,-0.5 0,-0.5"/>
<text text-anchor="middle" x="40" y="-7.1" font-family="Helvetica,sans-Serif" font-size="8.00">ModelFactory.cpp</text>
</a>
</g>
</g>
<!-- Node2&#45;&gt;Node3 -->
<g id="edge2" class="edge"><title>Node2&#45;&gt;Node3</title>
<path fill="none" stroke="midnightblue" d="M137.506,-50.5625C113.399,-40.5341 79.0368,-26.2393 58.198,-17.5704"/>
<polygon fill="midnightblue" stroke="midnightblue" points="136.247,-53.8293 146.824,-54.4388 138.935,-47.3662 136.247,-53.8293"/>
</g>
<!-- Node4 -->
<g id="node4" class="node"><title>Node4</title>
<g id="a_node4"><a xlink:href="../../dc/d03/_s_u_s_y_mass_insertion_8cpp.html" target="_top" xlink:title="SUSYMassInsertion.cpp">
<polygon fill="none" stroke="black" points="98.5,-0.5 98.5,-17.5 201.5,-17.5 201.5,-0.5 98.5,-0.5"/>
<text text-anchor="middle" x="150" y="-7.1" font-family="Helvetica,sans-Serif" font-size="8.00">SUSYMassInsertion.cpp</text>
</a>
</g>
</g>
<!-- Node2&#45;&gt;Node4 -->
<g id="edge3" class="edge"><title>Node2&#45;&gt;Node4</title>
<path fill="none" stroke="midnightblue" d="M159.998,-44.6601C157.363,-35.5257 154.264,-24.7815 152.222,-17.7043"/>
<polygon fill="midnightblue" stroke="midnightblue" points="156.652,-45.6891 162.787,-54.3272 163.378,-43.7489 156.652,-45.6891"/>
</g>
<!-- Node2&#45;&gt;Node5 -->
<g id="edge4" class="edge"><title>Node2&#45;&gt;Node5</title>
<path fill="none" stroke="midnightblue" d="M192.371,-50.4286C216.075,-40.4072 249.679,-26.2008 270.093,-17.5704"/>
<polygon fill="midnightblue" stroke="midnightblue" points="190.733,-47.321 182.885,-54.4388 193.459,-53.7685 190.733,-47.321"/>
</g>
</g>
</svg>
