<?xml version="1.0" encoding="UTF-8" standalone="no"?>
<!DOCTYPE svg PUBLIC "-//W3C//DTD SVG 1.1//EN"
 "http://www.w3.org/Graphics/SVG/1.1/DTD/svg11.dtd">
<!-- Generated by graphviz version 2.38.0 (20140413.2041)
 -->
<!-- Title: Particle.h Pages: 1 -->
<svg width="100pt" height="80pt"
 viewBox="0.00 0.00 100.00 80.00" xmlns="http://www.w3.org/2000/svg" xmlns:xlink="http://www.w3.org/1999/xlink">
<g id="graph0" class="graph" transform="scale(1 1) rotate(0) translate(4 76)">
<title>Particle.h</title>
<!-- Node1 -->
<g id="node1" class="node"><title>Node1</title>
<polygon fill="#bfbfbf" stroke="black" points="21,-54.5 21,-71.5 71,-71.5 71,-54.5 21,-54.5"/>
<text text-anchor="middle" x="46" y="-61.1" font-family="Helvetica,sans-Serif" font-size="8.00">Particle.h</text>
</g>
<!-- Node2 -->
<g id="node2" class="node"><title>Node2</title>
<polygon fill="none" stroke="#bfbfbf" points="0,-0.5 0,-17.5 38,-17.5 38,-0.5 0,-0.5"/>
<text text-anchor="middle" x="19" y="-7.1" font-family="Helvetica,sans-Serif" font-size="8.00">vector</text>
</g>
<!-- Node1&#45;&gt;Node2 -->
<g id="edge1" class="edge"><title>Node1&#45;&gt;Node2</title>
<path fill="none" stroke="midnightblue" d="M42.0161,-54.3272C38.2672,-47.1072 32.5265,-36.0509 27.7163,-26.7869"/>
<polygon fill="midnightblue" stroke="midnightblue" points="30.7147,-24.9664 23.0003,-17.7043 24.5023,-28.1921 30.7147,-24.9664"/>
</g>
<!-- Node3 -->
<g id="node3" class="node"><title>Node3</title>
<polygon fill="none" stroke="#bfbfbf" points="56,-0.5 56,-17.5 92,-17.5 92,-0.5 56,-0.5"/>
<text text-anchor="middle" x="74" y="-7.1" font-family="Helvetica,sans-Serif" font-size="8.00">string</text>
</g>
<!-- Node1&#45;&gt;Node3 -->
<g id="edge2" class="edge"><title>Node1&#45;&gt;Node3</title>
<path fill="none" stroke="midnightblue" d="M50.1315,-54.3272C54.0192,-47.1072 59.9726,-36.0509 64.9609,-26.7869"/>
<polygon fill="midnightblue" stroke="midnightblue" points="68.1922,-28.1683 69.8516,-17.7043 62.0289,-24.8496 68.1922,-28.1683"/>
</g>
</g>
</svg>
