<?xml version="1.0" encoding="UTF-8" standalone="no"?>
<!DOCTYPE svg PUBLIC "-//W3C//DTD SVG 1.1//EN"
 "http://www.w3.org/Graphics/SVG/1.1/DTD/svg11.dtd">
<!-- Generated by graphviz version 2.40.1 (20161225.0304)
 -->
<!-- Title: NP_couplings.h Pages: 1 -->
<svg width="190pt" height="80pt"
 viewBox="0.00 0.00 189.50 80.00" xmlns="http://www.w3.org/2000/svg" xmlns:xlink="http://www.w3.org/1999/xlink">
<g id="graph0" class="graph" transform="scale(1 1) rotate(0) translate(4 76)">
<title>NP_couplings.h</title>
<!-- Node52 -->
<g id="node1" class="node">
<title>Node52</title>
<polygon fill="#bfbfbf" stroke="#000000" points="54.5,-54.5 54.5,-71.5 127.5,-71.5 127.5,-54.5 54.5,-54.5"/>
<text text-anchor="middle" x="91" y="-61.1" font-family="Helvetica,sans-Serif" font-size="8.00" fill="#000000">NP_couplings.h</text>
</g>
<!-- Node53 -->
<g id="node2" class="node">
<title>Node53</title>
<g id="a_node2"><a xlink:href="../../d1/de2/_th_obs_factory_8cpp.html" target="_top" xlink:title="ThObsFactory.cpp">
<polygon fill="none" stroke="#000000" points="0,-.5 0,-17.5 82,-17.5 82,-.5 0,-.5"/>
<text text-anchor="middle" x="41" y="-7.1" font-family="Helvetica,sans-Serif" font-size="8.00" fill="#000000">ThObsFactory.cpp</text>
</a>
</g>
</g>
<!-- Node52&#45;&gt;Node53 -->
<g id="edge1" class="edge">
<title>Node52&#45;&gt;Node53</title>
<path fill="none" stroke="#191970" d="M75.9237,-46.7175C67.1109,-37.1997 56.3341,-25.5608 49.1028,-17.7511"/>
<polygon fill="#191970" stroke="#191970" points="73.3812,-49.1233 82.7435,-54.083 78.5176,-44.3674 73.3812,-49.1233"/>
</g>
<!-- Node54 -->
<g id="node3" class="node">
<title>Node54</title>
<g id="a_node3"><a xlink:href="../../df/d82/_n_p__couplings_8cpp.html" target="_top" xlink:title="NP_couplings.cpp">
<polygon fill="none" stroke="#000000" points="100.5,-.5 100.5,-17.5 181.5,-17.5 181.5,-.5 100.5,-.5"/>
<text text-anchor="middle" x="141" y="-7.1" font-family="Helvetica,sans-Serif" font-size="8.00" fill="#000000">NP_couplings.cpp</text>
</a>
</g>
</g>
<!-- Node52&#45;&gt;Node54 -->
<g id="edge2" class="edge">
<title>Node52&#45;&gt;Node54</title>
<path fill="none" stroke="#191970" d="M106.0763,-46.7175C114.8891,-37.1997 125.6659,-25.5608 132.8972,-17.7511"/>
<polygon fill="#191970" stroke="#191970" points="103.4824,-44.3674 99.2565,-54.083 108.6188,-49.1233 103.4824,-44.3674"/>
</g>
</g>
</svg>
