<?xml version="1.0" encoding="UTF-8" standalone="no"?>
<!DOCTYPE svg PUBLIC "-//W3C//DTD SVG 1.1//EN"
 "http://www.w3.org/Graphics/SVG/1.1/DTD/svg11.dtd">
<!-- Generated by graphviz version 2.40.1 (20161225.0304)
 -->
<!-- Title: LHPC::SLHA::InterpreterClass::LinesAsStrings Pages: 1 -->
<svg width="1503pt" height="106pt"
 viewBox="0.00 0.00 1503.00 106.00" xmlns="http://www.w3.org/2000/svg" xmlns:xlink="http://www.w3.org/1999/xlink">
<g id="graph0" class="graph" transform="scale(1 1) rotate(0) translate(4 102)">
<title>LHPC::SLHA::InterpreterClass::LinesAsStrings</title>
<!-- Node4 -->
<g id="node1" class="node">
<title>Node4</title>
<polygon fill="#bfbfbf" stroke="#000000" points="1370,-31 1370,-57 1495,-57 1495,-31 1370,-31"/>
<text text-anchor="start" x="1378" y="-46.6" font-family="Helvetica,sans-Serif" font-size="8.00" fill="#000000">LHPC::SLHA::InterpreterClass</text>
<text text-anchor="middle" x="1432.5" y="-37.6" font-family="Helvetica,sans-Serif" font-size="8.00" fill="#000000">::LinesAsStrings</text>
</g>
<!-- Node5 -->
<g id="node2" class="node">
<title>Node5</title>
<g id="a_node2"><a xlink:href="../../d6/d0a/class_l_h_p_c_1_1_s_l_h_a_1_1_interpreter_class_1_1_interpreter_template.html" target="_top" xlink:title="LHPC::SLHA::InterpreterClass\l::InterpreterTemplate\&lt; std\l::string \&gt;">
<polygon fill="none" stroke="#000000" points="1208,-26.5 1208,-61.5 1333,-61.5 1333,-26.5 1208,-26.5"/>
<text text-anchor="start" x="1216" y="-51.1" font-family="Helvetica,sans-Serif" font-size="8.00" fill="#000000">LHPC::SLHA::InterpreterClass</text>
<text text-anchor="start" x="1216" y="-42.1" font-family="Helvetica,sans-Serif" font-size="8.00" fill="#000000">::InterpreterTemplate&lt; std</text>
<text text-anchor="middle" x="1270.5" y="-33.1" font-family="Helvetica,sans-Serif" font-size="8.00" fill="#000000">::string &gt;</text>
</a>
</g>
</g>
<!-- Node5&#45;&gt;Node4 -->
<g id="edge1" class="edge">
<title>Node5&#45;&gt;Node4</title>
<path fill="none" stroke="#191970" d="M1343.3852,-44C1352.1902,-44 1361.1244,-44 1369.7661,-44"/>
<polygon fill="#191970" stroke="#191970" points="1343.1335,-40.5001 1333.1334,-44 1343.1334,-47.5001 1343.1335,-40.5001"/>
</g>
<!-- Node6 -->
<g id="node3" class="node">
<title>Node6</title>
<g id="a_node3"><a xlink:href="../../d2/db5/class_l_h_p_c_1_1_s_l_h_a_1_1_block_interpreter.html" target="_top" xlink:title="LHPC::SLHA::BlockInterpreter">
<polygon fill="none" stroke="#000000" points="750,-30.5 750,-47.5 874,-47.5 874,-30.5 750,-30.5"/>
<text text-anchor="middle" x="812" y="-37.1" font-family="Helvetica,sans-Serif" font-size="8.00" fill="#000000">LHPC::SLHA::BlockInterpreter</text>
</a>
</g>
</g>
<!-- Node6&#45;&gt;Node5 -->
<g id="edge2" class="edge">
<title>Node6&#45;&gt;Node5</title>
<path fill="none" stroke="#191970" d="M884.3432,-39.7889C973.5085,-40.7613 1123.5513,-42.3975 1207.9563,-43.318"/>
<polygon fill="#191970" stroke="#191970" points="884.3501,-36.2889 874.3125,-39.6795 884.2737,-43.2885 884.3501,-36.2889"/>
</g>
<!-- Node12 -->
<g id="node9" class="node">
<title>Node12</title>
<g id="a_node9"><a xlink:href="../../d6/d0a/class_l_h_p_c_1_1_s_l_h_a_1_1_interpreter_class_1_1_interpreter_template.html" target="_top" xlink:title="LHPC::SLHA::InterpreterClass\l::InterpreterTemplate\&lt; ValueType \&gt;">
<polygon fill="none" stroke="#000000" points="978,-57 978,-83 1121,-83 1121,-57 978,-57"/>
<text text-anchor="start" x="986" y="-72.6" font-family="Helvetica,sans-Serif" font-size="8.00" fill="#000000">LHPC::SLHA::InterpreterClass</text>
<text text-anchor="middle" x="1049.5" y="-63.6" font-family="Helvetica,sans-Serif" font-size="8.00" fill="#000000">::InterpreterTemplate&lt; ValueType &gt;</text>
</a>
</g>
</g>
<!-- Node6&#45;&gt;Node12 -->
<g id="edge9" class="edge">
<title>Node6&#45;&gt;Node12</title>
<path fill="none" stroke="#191970" d="M884.356,-48.4444C913.9601,-52.3085 948.1288,-56.7684 977.6777,-60.6253"/>
<polygon fill="#191970" stroke="#191970" points="884.459,-44.9282 874.0901,-47.1044 883.553,-51.8693 884.459,-44.9282"/>
</g>
<!-- Node7 -->
<g id="node4" class="node">
<title>Node7</title>
<g id="a_node4"><a xlink:href="../../d2/d43/class_b_o_l_1_1_string_parser.html" target="_top" xlink:title="BOL::StringParser">
<polygon fill="none" stroke="#000000" points="552,-50.5 552,-67.5 633,-67.5 633,-50.5 552,-50.5"/>
<text text-anchor="middle" x="592.5" y="-57.1" font-family="Helvetica,sans-Serif" font-size="8.00" fill="#000000">BOL::StringParser</text>
</a>
</g>
</g>
<!-- Node7&#45;&gt;Node6 -->
<g id="edge3" class="edge">
<title>Node7&#45;&gt;Node6</title>
<path fill="none" stroke="#9a32cd" stroke-dasharray="5,2" d="M643.3844,-54.3636C675.0824,-51.4754 716.0848,-47.7394 749.7193,-44.6748"/>
<polygon fill="#9a32cd" stroke="#9a32cd" points="642.6566,-50.9153 633.0155,-55.3084 643.2919,-57.8865 642.6566,-50.9153"/>
<text text-anchor="middle" x="698" y="-71.6" font-family="Helvetica,sans-Serif" font-size="8.00" fill="#000000"> slhaIntHelper</text>
<text text-anchor="middle" x="698" y="-62.6" font-family="Helvetica,sans-Serif" font-size="8.00" fill="#000000">slhaDoubleMaker</text>
<text text-anchor="middle" x="698" y="-53.6" font-family="Helvetica,sans-Serif" font-size="8.00" fill="#000000">particleCodeMaker</text>
</g>
<!-- Node8 -->
<g id="node5" class="node">
<title>Node8</title>
<g id="a_node5"><a xlink:href="../../dc/d7c/class_l_h_p_c_1_1_s_l_h_a_1_1_block_class_1_1_base_string_block.html" target="_top" xlink:title="LHPC::SLHA::BlockClass\l::BaseStringBlock">
<polygon fill="none" stroke="#000000" points="539,-5 539,-31 646,-31 646,-5 539,-5"/>
<text text-anchor="start" x="547" y="-20.6" font-family="Helvetica,sans-Serif" font-size="8.00" fill="#000000">LHPC::SLHA::BlockClass</text>
<text text-anchor="middle" x="592.5" y="-11.6" font-family="Helvetica,sans-Serif" font-size="8.00" fill="#000000">::BaseStringBlock</text>
</a>
</g>
</g>
<!-- Node8&#45;&gt;Node6 -->
<g id="edge4" class="edge">
<title>Node8&#45;&gt;Node6</title>
<path fill="none" stroke="#9a32cd" stroke-dasharray="5,2" d="M656.3751,-24.1111C685.839,-26.9299 720.6822,-30.2634 749.9219,-33.0609"/>
<polygon fill="#9a32cd" stroke="#9a32cd" points="656.4836,-20.6055 646.1957,-23.1372 655.8169,-27.5737 656.4836,-20.6055"/>
<text text-anchor="middle" x="698" y="-33.6" font-family="Helvetica,sans-Serif" font-size="8.00" fill="#000000"> currentStringBlock</text>
</g>
<!-- Node9 -->
<g id="node6" class="node">
<title>Node9</title>
<g id="a_node6"><a xlink:href="../../de/da2/class_b_o_l_1_1_vectorlike_array.html" target="_top" xlink:title="BOL::VectorlikeArray\l\&lt; std::pair\&lt; std::string,\l std::string \&gt; \&gt;">
<polygon fill="none" stroke="#000000" points="351,-.5 351,-35.5 447,-35.5 447,-.5 351,-.5"/>
<text text-anchor="start" x="359" y="-25.1" font-family="Helvetica,sans-Serif" font-size="8.00" fill="#000000">BOL::VectorlikeArray</text>
<text text-anchor="start" x="359" y="-16.1" font-family="Helvetica,sans-Serif" font-size="8.00" fill="#000000">&lt; std::pair&lt; std::string,</text>
<text text-anchor="middle" x="399" y="-7.1" font-family="Helvetica,sans-Serif" font-size="8.00" fill="#000000"> std::string &gt; &gt;</text>
</a>
</g>
</g>
<!-- Node9&#45;&gt;Node8 -->
<g id="edge5" class="edge">
<title>Node9&#45;&gt;Node8</title>
<path fill="none" stroke="#9a32cd" stroke-dasharray="5,2" d="M457.3624,-18C483.19,-18 513.3737,-18 538.6557,-18"/>
<polygon fill="#9a32cd" stroke="#9a32cd" points="457.3291,-14.5001 447.3291,-18 457.329,-21.5001 457.3291,-14.5001"/>
<text text-anchor="middle" x="493" y="-20.6" font-family="Helvetica,sans-Serif" font-size="8.00" fill="#000000"> stringPairArray</text>
</g>
<!-- Node10 -->
<g id="node7" class="node">
<title>Node10</title>
<g id="a_node7"><a xlink:href="../../de/da2/class_b_o_l_1_1_vectorlike_array.html" target="_top" xlink:title="BOL::VectorlikeArray\l\&lt; StoredClass \&gt;">
<polygon fill="none" stroke="#000000" points="142,-5 142,-31 233,-31 233,-5 142,-5"/>
<text text-anchor="start" x="150" y="-20.6" font-family="Helvetica,sans-Serif" font-size="8.00" fill="#000000">BOL::VectorlikeArray</text>
<text text-anchor="middle" x="187.5" y="-11.6" font-family="Helvetica,sans-Serif" font-size="8.00" fill="#000000">&lt; StoredClass &gt;</text>
</a>
</g>
</g>
<!-- Node10&#45;&gt;Node9 -->
<g id="edge6" class="edge">
<title>Node10&#45;&gt;Node9</title>
<path fill="none" stroke="#ffa500" stroke-dasharray="5,2" d="M243.2207,-18C276.695,-18 318.8602,-18 350.8782,-18"/>
<polygon fill="#ffa500" stroke="#ffa500" points="243.132,-14.5001 233.132,-18 243.1319,-21.5001 243.132,-14.5001"/>
<text text-anchor="start" x="251" y="-29.6" font-family="Helvetica,sans-Serif" font-size="8.00" fill="#000000"> &lt; std::pair&lt; std::string,</text>
<text text-anchor="middle" x="292" y="-20.6" font-family="Helvetica,sans-Serif" font-size="8.00" fill="#000000"> std::string &gt; &gt;</text>
</g>
<!-- Node11 -->
<g id="node8" class="node">
<title>Node11</title>
<polygon fill="none" stroke="#bfbfbf" points="0,-9.5 0,-26.5 60,-26.5 60,-9.5 0,-9.5"/>
<text text-anchor="middle" x="30" y="-16.1" font-family="Helvetica,sans-Serif" font-size="8.00" fill="#000000">StoredClass</text>
</g>
<!-- Node11&#45;&gt;Node10 -->
<g id="edge7" class="edge">
<title>Node11&#45;&gt;Node10</title>
<path fill="none" stroke="#9a32cd" stroke-dasharray="5,2" d="M70.5917,-18C92.3415,-18 119.2125,-18 141.7064,-18"/>
<polygon fill="#9a32cd" stroke="#9a32cd" points="70.3676,-14.5001 60.3676,-18 70.3675,-21.5001 70.3676,-14.5001"/>
<text text-anchor="middle" x="101" y="-20.6" font-family="Helvetica,sans-Serif" font-size="8.00" fill="#000000"> pointerArray</text>
</g>
<!-- Node12&#45;&gt;Node5 -->
<g id="edge8" class="edge">
<title>Node12&#45;&gt;Node5</title>
<path fill="none" stroke="#ffa500" stroke-dasharray="5,2" d="M1131.1862,-60.3899C1156.452,-57.4174 1183.8784,-54.1908 1207.6611,-51.3928"/>
<polygon fill="#ffa500" stroke="#ffa500" points="1130.7749,-56.914 1121.2524,-61.5585 1131.5928,-63.8661 1130.7749,-56.914"/>
<text text-anchor="middle" x="1164.5" y="-61.6" font-family="Helvetica,sans-Serif" font-size="8.00" fill="#000000"> &lt; std::string &gt;</text>
</g>
<!-- Node13 -->
<g id="node10" class="node">
<title>Node13</title>
<polygon fill="none" stroke="#bfbfbf" points="784.5,-77.5 784.5,-94.5 839.5,-94.5 839.5,-77.5 784.5,-77.5"/>
<text text-anchor="middle" x="812" y="-84.1" font-family="Helvetica,sans-Serif" font-size="8.00" fill="#000000">ValueType</text>
</g>
<!-- Node13&#45;&gt;Node12 -->
<g id="edge10" class="edge">
<title>Node13&#45;&gt;Node12</title>
<path fill="none" stroke="#9a32cd" stroke-dasharray="5,2" d="M849.7862,-83.4544C884.1373,-81.1402 935.7434,-77.6636 977.8911,-74.8242"/>
<polygon fill="#9a32cd" stroke="#9a32cd" points="849.4512,-79.9689 839.7091,-84.1333 849.9218,-86.9531 849.4512,-79.9689"/>
<text text-anchor="middle" x="926" y="-91.6" font-family="Helvetica,sans-Serif" font-size="8.00" fill="#000000"> defaultUnsetValue</text>
<text text-anchor="middle" x="926" y="-82.6" font-family="Helvetica,sans-Serif" font-size="8.00" fill="#000000">valueFromString</text>
</g>
</g>
</svg>
