<?xml version="1.0" encoding="UTF-8" standalone="no"?>
<!DOCTYPE svg PUBLIC "-//W3C//DTD SVG 1.1//EN"
 "http://www.w3.org/Graphics/SVG/1.1/DTD/svg11.dtd">
<!-- Generated by graphviz version 2.40.1 (20161225.0304)
 -->
<!-- Title: BR_Kmumu.cpp Pages: 1 -->
<svg width="552pt" height="134pt"
 viewBox="0.00 0.00 552.00 134.00" xmlns="http://www.w3.org/2000/svg" xmlns:xlink="http://www.w3.org/1999/xlink">
<g id="graph0" class="graph" transform="scale(1 1) rotate(0) translate(4 130)">
<title>BR_Kmumu.cpp</title>
<!-- Node0 -->
<g id="node1" class="node">
<title>Node0</title>
<polygon fill="#bfbfbf" stroke="#000000" points="343,-108.5 343,-125.5 418,-125.5 418,-108.5 343,-108.5"/>
<text text-anchor="middle" x="380.5" y="-115.1" font-family="Helvetica,sans-Serif" font-size="8.00" fill="#000000">BR_Kmumu.cpp</text>
</g>
<!-- Node1 -->
<g id="node2" class="node">
<title>Node1</title>
<g id="a_node2"><a xlink:href="../../d7/dd0/_b_r___kmumu_8h.html" target="_top" xlink:title="BR_Kmumu.h">
<polygon fill="none" stroke="#000000" points="170.5,-54.5 170.5,-71.5 236.5,-71.5 236.5,-54.5 170.5,-54.5"/>
<text text-anchor="middle" x="203.5" y="-61.1" font-family="Helvetica,sans-Serif" font-size="8.00" fill="#000000">BR_Kmumu.h</text>
</a>
</g>
</g>
<!-- Node0&#45;&gt;Node1 -->
<g id="edge1" class="edge">
<title>Node0&#45;&gt;Node1</title>
<path fill="none" stroke="#191970" d="M352.4538,-108.4435C322.4181,-99.2801 274.587,-84.6876 241.2573,-74.5192"/>
<polygon fill="#191970" stroke="#191970" points="242.0011,-71.0869 231.415,-71.5164 239.9584,-77.7822 242.0011,-71.0869"/>
</g>
<!-- Node27 -->
<g id="node7" class="node">
<title>Node27</title>
<g id="a_node7"><a xlink:href="../../d6/d0a/_standard_model_8h.html" target="_top" xlink:title="StandardModel.h">
<polygon fill="none" stroke="#ff0000" points="293,-54.5 293,-71.5 370,-71.5 370,-54.5 293,-54.5"/>
<text text-anchor="middle" x="331.5" y="-61.1" font-family="Helvetica,sans-Serif" font-size="8.00" fill="#000000">StandardModel.h</text>
</a>
</g>
</g>
<!-- Node0&#45;&gt;Node27 -->
<g id="edge6" class="edge">
<title>Node0&#45;&gt;Node27</title>
<path fill="none" stroke="#191970" d="M372.4086,-108.083C365.3446,-100.2982 354.9124,-88.8015 346.3511,-79.3665"/>
<polygon fill="#191970" stroke="#191970" points="348.7527,-76.8047 339.4408,-71.7511 343.5688,-81.5087 348.7527,-76.8047"/>
</g>
<!-- Node55 -->
<g id="node9" class="node">
<title>Node55</title>
<g id="a_node9"><a xlink:href="../../da/de2/std__make__vector_8h.html" target="_top" xlink:title="std_make_vector.h">
<polygon fill="none" stroke="#ff0000" points="388.5,-54.5 388.5,-71.5 472.5,-71.5 472.5,-54.5 388.5,-54.5"/>
<text text-anchor="middle" x="430.5" y="-61.1" font-family="Helvetica,sans-Serif" font-size="8.00" fill="#000000">std_make_vector.h</text>
</a>
</g>
</g>
<!-- Node0&#45;&gt;Node55 -->
<g id="edge8" class="edge">
<title>Node0&#45;&gt;Node55</title>
<path fill="none" stroke="#191970" d="M388.7565,-108.083C395.9647,-100.2982 406.6098,-88.8015 415.3458,-79.3665"/>
<polygon fill="#191970" stroke="#191970" points="418.1712,-81.4666 422.3972,-71.7511 413.0349,-76.7108 418.1712,-81.4666"/>
</g>
<!-- Node56 -->
<g id="node10" class="node">
<title>Node56</title>
<g id="a_node10"><a xlink:href="../../df/da7/_heff_d_s1_8h.html" target="_top" xlink:title="HeffDS1.h">
<polygon fill="none" stroke="#ff0000" points="491,-54.5 491,-71.5 544,-71.5 544,-54.5 491,-54.5"/>
<text text-anchor="middle" x="517.5" y="-61.1" font-family="Helvetica,sans-Serif" font-size="8.00" fill="#000000">HeffDS1.h</text>
</a>
</g>
</g>
<!-- Node0&#45;&gt;Node56 -->
<g id="edge9" class="edge">
<title>Node0&#45;&gt;Node56</title>
<path fill="none" stroke="#191970" d="M402.2081,-108.4435C424.8548,-99.5171 460.5721,-85.4387 486.2518,-75.3168"/>
<polygon fill="#191970" stroke="#191970" points="487.8736,-78.4397 495.8935,-71.5164 485.3066,-71.9273 487.8736,-78.4397"/>
</g>
<!-- Node2 -->
<g id="node3" class="node">
<title>Node2</title>
<g id="a_node3"><a xlink:href="../../dd/dcd/_th_observable_8h.html" target="_top" xlink:title="ThObservable.h">
<polygon fill="none" stroke="#ff0000" points="0,-.5 0,-17.5 73,-17.5 73,-.5 0,-.5"/>
<text text-anchor="middle" x="36.5" y="-7.1" font-family="Helvetica,sans-Serif" font-size="8.00" fill="#000000">ThObservable.h</text>
</a>
</g>
</g>
<!-- Node1&#45;&gt;Node2 -->
<g id="edge2" class="edge">
<title>Node1&#45;&gt;Node2</title>
<path fill="none" stroke="#191970" d="M177.0384,-54.4435C148.8217,-45.3196 103.9595,-30.8133 72.5315,-20.6509"/>
<polygon fill="#191970" stroke="#191970" points="73.4296,-17.263 62.8378,-17.5164 71.2759,-23.9234 73.4296,-17.263"/>
</g>
<!-- Node5 -->
<g id="node4" class="node">
<title>Node5</title>
<g id="a_node4"><a xlink:href="../../d4/d36/_order_scheme_8h.html" target="_top" xlink:title="OrderScheme.h">
<polygon fill="none" stroke="#000000" points="91,-.5 91,-17.5 164,-17.5 164,-.5 91,-.5"/>
<text text-anchor="middle" x="127.5" y="-7.1" font-family="Helvetica,sans-Serif" font-size="8.00" fill="#000000">OrderScheme.h</text>
</a>
</g>
</g>
<!-- Node1&#45;&gt;Node5 -->
<g id="edge3" class="edge">
<title>Node1&#45;&gt;Node5</title>
<path fill="none" stroke="#191970" d="M191.2893,-54.324C179.7241,-46.1066 162.1246,-33.6017 148.3393,-23.8069"/>
<polygon fill="#191970" stroke="#191970" points="150.112,-20.7729 139.9329,-17.8339 146.0575,-26.4791 150.112,-20.7729"/>
</g>
<!-- Node6 -->
<g id="node5" class="node">
<title>Node6</title>
<g id="a_node5"><a xlink:href="../../d9/d72/gslpp_8h.html" target="_top" xlink:title="gslpp.h">
<polygon fill="none" stroke="#ff0000" points="182.5,-.5 182.5,-17.5 224.5,-17.5 224.5,-.5 182.5,-.5"/>
<text text-anchor="middle" x="203.5" y="-7.1" font-family="Helvetica,sans-Serif" font-size="8.00" fill="#000000">gslpp.h</text>
</a>
</g>
</g>
<!-- Node1&#45;&gt;Node6 -->
<g id="edge4" class="edge">
<title>Node1&#45;&gt;Node6</title>
<path fill="none" stroke="#191970" d="M203.5,-54.083C203.5,-47.0059 203.5,-36.8611 203.5,-27.9865"/>
<polygon fill="#191970" stroke="#191970" points="207.0001,-27.751 203.5,-17.7511 200.0001,-27.7511 207.0001,-27.751"/>
</g>
<!-- Node22 -->
<g id="node6" class="node">
<title>Node22</title>
<g id="a_node6"><a xlink:href="../../da/d8c/_c_penguin_box_mu_8h.html" target="_top" xlink:title="CPenguinBoxMu.h">
<polygon fill="none" stroke="#ff0000" points="243,-.5 243,-17.5 326,-17.5 326,-.5 243,-.5"/>
<text text-anchor="middle" x="284.5" y="-7.1" font-family="Helvetica,sans-Serif" font-size="8.00" fill="#000000">CPenguinBoxMu.h</text>
</a>
</g>
</g>
<!-- Node1&#45;&gt;Node22 -->
<g id="edge5" class="edge">
<title>Node1&#45;&gt;Node22</title>
<path fill="none" stroke="#191970" d="M216.5141,-54.324C229.0316,-45.979 248.1817,-33.2122 262.9714,-23.3524"/>
<polygon fill="#191970" stroke="#191970" points="265.1392,-26.1137 271.5182,-17.6545 261.2563,-20.2894 265.1392,-26.1137"/>
</g>
<!-- Node28 -->
<g id="node8" class="node">
<title>Node28</title>
<g id="a_node8"><a xlink:href="../../d2/d65/_flavour_8h.html" target="_top" xlink:title="Flavour.h">
<polygon fill="none" stroke="#ff0000" points="344.5,-.5 344.5,-17.5 394.5,-17.5 394.5,-.5 344.5,-.5"/>
<text text-anchor="middle" x="369.5" y="-7.1" font-family="Helvetica,sans-Serif" font-size="8.00" fill="#000000">Flavour.h</text>
</a>
</g>
</g>
<!-- Node27&#45;&gt;Node28 -->
<g id="edge7" class="edge">
<title>Node27&#45;&gt;Node28</title>
<path fill="none" stroke="#191970" d="M337.7749,-54.083C343.1425,-46.4554 351.0176,-35.2645 357.5787,-25.9408"/>
<polygon fill="#191970" stroke="#191970" points="360.4492,-27.9434 363.3418,-17.7511 354.7245,-23.9149 360.4492,-27.9434"/>
</g>
</g>
</svg>
