<?xml version="1.0" encoding="UTF-8" standalone="no"?>
<!DOCTYPE svg PUBLIC "-//W3C//DTD SVG 1.1//EN"
 "http://www.w3.org/Graphics/SVG/1.1/DTD/svg11.dtd">
<!-- Generated by graphviz version 2.40.1 (20161225.0304)
 -->
<!-- Title: BlockInterpreter.hpp Pages: 1 -->
<svg width="641pt" height="242pt"
 viewBox="0.00 0.00 641.00 242.00" xmlns="http://www.w3.org/2000/svg" xmlns:xlink="http://www.w3.org/1999/xlink">
<g id="graph0" class="graph" transform="scale(1 1) rotate(0) translate(4 238)">
<title>BlockInterpreter.hpp</title>
<!-- Node39 -->
<g id="node1" class="node">
<title>Node39</title>
<polygon fill="#bfbfbf" stroke="#000000" points="481,-216.5 481,-233.5 570,-233.5 570,-216.5 481,-216.5"/>
<text text-anchor="middle" x="525.5" y="-223.1" font-family="Helvetica,sans-Serif" font-size="8.00" fill="#000000">BlockInterpreter.hpp</text>
</g>
<!-- Node40 -->
<g id="node2" class="node">
<title>Node40</title>
<g id="a_node2"><a xlink:href="../../dd/d89/_slha_block_8hpp.html" target="_top" xlink:title="SlhaBlock.hpp">
<polygon fill="none" stroke="#000000" points="275.5,-162.5 275.5,-179.5 343.5,-179.5 343.5,-162.5 275.5,-162.5"/>
<text text-anchor="middle" x="309.5" y="-169.1" font-family="Helvetica,sans-Serif" font-size="8.00" fill="#000000">SlhaBlock.hpp</text>
</a>
</g>
</g>
<!-- Node39&#45;&gt;Node40 -->
<g id="edge1" class="edge">
<title>Node39&#45;&gt;Node40</title>
<path fill="none" stroke="#191970" d="M481.3358,-213.959C440.5393,-203.7598 380.7869,-188.8217 343.5657,-179.5164"/>
<polygon fill="#191970" stroke="#191970" points="480.7238,-217.4136 491.2742,-216.4435 482.4216,-210.6226 480.7238,-217.4136"/>
</g>
<!-- Node86 -->
<g id="node8" class="node">
<title>Node86</title>
<g id="a_node8"><a xlink:href="../../d2/d6b/_interpreter_template_8hpp.html" target="_top" xlink:title="InterpreterTemplate.hpp">
<polygon fill="none" stroke="#ff0000" points="474.5,-162.5 474.5,-179.5 576.5,-179.5 576.5,-162.5 474.5,-162.5"/>
<text text-anchor="middle" x="525.5" y="-169.1" font-family="Helvetica,sans-Serif" font-size="8.00" fill="#000000">InterpreterTemplate.hpp</text>
</a>
</g>
</g>
<!-- Node39&#45;&gt;Node86 -->
<g id="edge10" class="edge">
<title>Node39&#45;&gt;Node86</title>
<path fill="none" stroke="#191970" d="M525.5,-205.8045C525.5,-196.9102 525.5,-186.7798 525.5,-179.7511"/>
<polygon fill="#191970" stroke="#191970" points="522.0001,-206.083 525.5,-216.083 529.0001,-206.083 522.0001,-206.083"/>
</g>
<!-- Node89 -->
<g id="node10" class="node">
<title>Node89</title>
<g id="a_node10"><a xlink:href="../../d4/dc2/_interpreter_classes_8hpp.html" target="_top" xlink:title="InterpreterClasses.hpp">
<polygon fill="none" stroke="#ff0000" points="536,-54.5 536,-71.5 633,-71.5 633,-54.5 536,-54.5"/>
<text text-anchor="middle" x="584.5" y="-61.1" font-family="Helvetica,sans-Serif" font-size="8.00" fill="#000000">InterpreterClasses.hpp</text>
</a>
</g>
</g>
<!-- Node39&#45;&gt;Node89 -->
<g id="edge14" class="edge">
<title>Node39&#45;&gt;Node89</title>
<path fill="none" stroke="#191970" d="M553.7883,-211.3788C565.8937,-203.9335 578.7716,-193.4568 585.5,-180 603.8504,-143.2992 592.619,-91.6704 587.0642,-71.5224"/>
<polygon fill="#191970" stroke="#191970" points="551.7668,-208.5015 544.7964,-216.4805 555.2212,-214.5899 551.7668,-208.5015"/>
</g>
<!-- Node41 -->
<g id="node3" class="node">
<title>Node41</title>
<g id="a_node3"><a xlink:href="../../d9/d8c/_indexed_block_template_8hpp.html" target="_top" xlink:title="IndexedBlockTemplate.hpp">
<polygon fill="none" stroke="#ff0000" points="0,-108.5 0,-125.5 113,-125.5 113,-108.5 0,-108.5"/>
<text text-anchor="middle" x="56.5" y="-115.1" font-family="Helvetica,sans-Serif" font-size="8.00" fill="#000000">IndexedBlockTemplate.hpp</text>
</a>
</g>
</g>
<!-- Node40&#45;&gt;Node41 -->
<g id="edge2" class="edge">
<title>Node40&#45;&gt;Node41</title>
<path fill="none" stroke="#191970" d="M265.3752,-161.5821C217.8093,-151.4296 142.7492,-135.4089 96.7459,-125.59"/>
<polygon fill="#191970" stroke="#191970" points="264.869,-165.0528 275.3793,-163.7173 266.3302,-158.207 264.869,-165.0528"/>
</g>
<!-- Node84 -->
<g id="node4" class="node">
<title>Node84</title>
<g id="a_node4"><a xlink:href="../../d7/dcc/_just_single_value_block_8hpp.html" target="_top" xlink:title="JustSingleValueBlock.hpp">
<polygon fill="none" stroke="#ff0000" points="131,-108.5 131,-125.5 240,-125.5 240,-108.5 131,-108.5"/>
<text text-anchor="middle" x="185.5" y="-115.1" font-family="Helvetica,sans-Serif" font-size="8.00" fill="#000000">JustSingleValueBlock.hpp</text>
</a>
</g>
</g>
<!-- Node40&#45;&gt;Node84 -->
<g id="edge3" class="edge">
<title>Node40&#45;&gt;Node84</title>
<path fill="none" stroke="#191970" d="M280.4926,-158.3678C257.2714,-148.2553 225.3375,-134.3486 205.0562,-125.5164"/>
<polygon fill="#191970" stroke="#191970" points="279.286,-161.6597 289.8518,-162.4435 282.0809,-155.2419 279.286,-161.6597"/>
</g>
<!-- Node60 -->
<g id="node5" class="node">
<title>Node60</title>
<g id="a_node5"><a xlink:href="../../d5/dae/_block_types_8hpp.html" target="_top" xlink:title="BlockTypes.hpp">
<polygon fill="none" stroke="#ff0000" points="273,-54.5 273,-71.5 346,-71.5 346,-54.5 273,-54.5"/>
<text text-anchor="middle" x="309.5" y="-61.1" font-family="Helvetica,sans-Serif" font-size="8.00" fill="#000000">BlockTypes.hpp</text>
</a>
</g>
</g>
<!-- Node40&#45;&gt;Node60 -->
<g id="edge8" class="edge">
<title>Node40&#45;&gt;Node60</title>
<path fill="none" stroke="#191970" d="M298.736,-153.6851C294.3215,-145.5948 289.7297,-135.6373 287.5,-126 282.904,-106.1348 295.0259,-83.8069 303.051,-71.7919"/>
<polygon fill="#191970" stroke="#191970" points="295.8028,-155.6032 303.8622,-162.4806 301.8506,-152.0784 295.8028,-155.6032"/>
</g>
<!-- Node44 -->
<g id="node6" class="node">
<title>Node44</title>
<g id="a_node6"><a xlink:href="../../d4/d42/_s_l_h_a_8hpp.html" target="_top" xlink:title="SLHA.hpp">
<polygon fill="none" stroke="#ff0000" points="323,-.5 323,-17.5 376,-17.5 376,-.5 323,-.5"/>
<text text-anchor="middle" x="349.5" y="-7.1" font-family="Helvetica,sans-Serif" font-size="8.00" fill="#000000">SLHA.hpp</text>
</a>
</g>
</g>
<!-- Node40&#45;&gt;Node44 -->
<g id="edge9" class="edge">
<title>Node40&#45;&gt;Node44</title>
<path fill="none" stroke="#191970" d="M353.6597,-162.8875C374.6504,-156.5747 397.8666,-145.4594 410.5,-126 435.5723,-87.381 383.6685,-37.2788 360.2089,-17.5332"/>
<polygon fill="#191970" stroke="#191970" points="352.6366,-159.5385 343.9051,-165.5394 354.4731,-166.2933 352.6366,-159.5385"/>
</g>
<!-- Node85 -->
<g id="node7" class="node">
<title>Node85</title>
<g id="a_node7"><a xlink:href="../../d5/de5/_lines_as_strings_block_8hpp.html" target="_top" xlink:title="LinesAsStringsBlock.hpp">
<polygon fill="none" stroke="#ff0000" points="297,-108.5 297,-125.5 402,-125.5 402,-108.5 297,-108.5"/>
<text text-anchor="middle" x="349.5" y="-115.1" font-family="Helvetica,sans-Serif" font-size="8.00" fill="#000000">LinesAsStringsBlock.hpp</text>
</a>
</g>
</g>
<!-- Node40&#45;&gt;Node85 -->
<g id="edge6" class="edge">
<title>Node40&#45;&gt;Node85</title>
<path fill="none" stroke="#191970" d="M322.1997,-153.8554C329.126,-144.5048 337.4063,-133.3265 343.0177,-125.7511"/>
<polygon fill="#191970" stroke="#191970" points="319.245,-151.9641 316.1052,-162.083 324.87,-156.1307 319.245,-151.9641"/>
</g>
<!-- Node84&#45;&gt;Node60 -->
<g id="edge4" class="edge">
<title>Node84&#45;&gt;Node60</title>
<path fill="none" stroke="#191970" d="M214.5074,-104.3678C237.7286,-94.2553 269.6625,-80.3486 289.9438,-71.5164"/>
<polygon fill="#191970" stroke="#191970" points="212.9191,-101.2419 205.1482,-108.4435 215.714,-107.6597 212.9191,-101.2419"/>
</g>
<!-- Node60&#45;&gt;Node44 -->
<g id="edge5" class="edge">
<title>Node60&#45;&gt;Node44</title>
<path fill="none" stroke="#191970" d="M322.1997,-45.8554C329.126,-36.5048 337.4063,-25.3265 343.0177,-17.7511"/>
<polygon fill="#191970" stroke="#191970" points="319.245,-43.9641 316.1052,-54.083 324.87,-48.1307 319.245,-43.9641"/>
</g>
<!-- Node85&#45;&gt;Node60 -->
<g id="edge7" class="edge">
<title>Node85&#45;&gt;Node60</title>
<path fill="none" stroke="#191970" d="M336.8003,-99.8554C329.874,-90.5048 321.5937,-79.3265 315.9823,-71.7511"/>
<polygon fill="#191970" stroke="#191970" points="334.13,-102.1307 342.8948,-108.083 339.755,-97.9641 334.13,-102.1307"/>
</g>
<!-- Node87 -->
<g id="node9" class="node">
<title>Node87</title>
<g id="a_node9"><a xlink:href="../../d6/d7b/_indexed_interpreter_8hpp.html" target="_top" xlink:title="IndexedInterpreter.hpp">
<polygon fill="none" stroke="#ff0000" points="459,-108.5 459,-125.5 556,-125.5 556,-108.5 459,-108.5"/>
<text text-anchor="middle" x="507.5" y="-115.1" font-family="Helvetica,sans-Serif" font-size="8.00" fill="#000000">IndexedInterpreter.hpp</text>
</a>
</g>
</g>
<!-- Node86&#45;&gt;Node87 -->
<g id="edge11" class="edge">
<title>Node86&#45;&gt;Node87</title>
<path fill="none" stroke="#191970" d="M519.2985,-152.3956C516.2873,-143.362 512.812,-132.936 510.417,-125.7511"/>
<polygon fill="#191970" stroke="#191970" points="516.0449,-153.703 522.5277,-162.083 522.6857,-151.4893 516.0449,-153.703"/>
</g>
<!-- Node86&#45;&gt;Node89 -->
<g id="edge13" class="edge">
<title>Node86&#45;&gt;Node89</title>
<path fill="none" stroke="#191970" d="M542.7935,-155.048C550.6641,-146.9916 559.5321,-136.6748 565.5,-126 575.5346,-108.0512 580.8513,-84.1967 583.1238,-71.6149"/>
<polygon fill="#191970" stroke="#191970" points="540.1009,-152.7857 535.3997,-162.2804 544.9958,-157.7898 540.1009,-152.7857"/>
</g>
<!-- Node87&#45;&gt;Node89 -->
<g id="edge12" class="edge">
<title>Node87&#45;&gt;Node89</title>
<path fill="none" stroke="#191970" d="M528.401,-102.3422C542.4111,-92.5169 560.383,-79.9132 572.1593,-71.6545"/>
<polygon fill="#191970" stroke="#191970" points="526.0491,-99.7166 519.8714,-108.324 530.0683,-105.4477 526.0491,-99.7166"/>
</g>
</g>
</svg>
