<?xml version="1.0" encoding="UTF-8" standalone="no"?>
<!DOCTYPE svg PUBLIC "-//W3C//DTD SVG 1.1//EN"
 "http://www.w3.org/Graphics/SVG/1.1/DTD/svg11.dtd">
<!-- Generated by graphviz version 2.40.1 (20161225.0304)
 -->
<!-- Title: EWSMTwoFermionsLEP2_Hollik Pages: 1 -->
<svg width="623pt" height="477pt"
 viewBox="0.00 0.00 623.00 477.00" xmlns="http://www.w3.org/2000/svg" xmlns:xlink="http://www.w3.org/1999/xlink">
<g id="graph0" class="graph" transform="scale(1 1) rotate(0) translate(4 473)">
<title>EWSMTwoFermionsLEP2_Hollik</title>
<!-- Node1 -->
<g id="node1" class="node">
<title>Node1</title>
<polygon fill="#bfbfbf" stroke="#000000" points="134.5,-.5 134.5,-26.5 243.5,-26.5 243.5,-.5 134.5,-.5"/>
<text text-anchor="start" x="142.5" y="-16.1" font-family="Helvetica,sans-Serif" font-size="8.00" fill="#000000">EWSMTwoFermionsLEP2</text>
<text text-anchor="middle" x="189" y="-7.1" font-family="Helvetica,sans-Serif" font-size="8.00" fill="#000000">_Hollik</text>
</g>
<!-- Node2 -->
<g id="node2" class="node">
<title>Node2</title>
<g id="a_node2"><a xlink:href="../../d9/dcc/class_e_w_s_m_one_loop_e_w___h_v.html" target="_top" xlink:title="A class for &#160;one&#45;loop corrections to the EW precision observables in the &#39;t Hooft&#45;Feynman gauge...">
<polygon fill="none" stroke="#000000" points="92.5,-72.5 92.5,-89.5 195.5,-89.5 195.5,-72.5 92.5,-72.5"/>
<text text-anchor="middle" x="144" y="-79.1" font-family="Helvetica,sans-Serif" font-size="8.00" fill="#000000">EWSMOneLoopEW_HV</text>
</a>
</g>
</g>
<!-- Node2&#45;&gt;Node1 -->
<g id="edge1" class="edge">
<title>Node2&#45;&gt;Node1</title>
<path fill="none" stroke="#9a32cd" stroke-dasharray="5,2" d="M141.3802,-62.2023C141.3764,-56.401 142.2457,-50.1809 145,-45 148.969,-37.5342 155.5855,-31.4245 162.4974,-26.6402"/>
<polygon fill="#9a32cd" stroke="#9a32cd" points="137.914,-62.7676 142.1972,-72.4581 144.8919,-62.2117 137.914,-62.7676"/>
<text text-anchor="middle" x="182.5" y="-47.6" font-family="Helvetica,sans-Serif" font-size="8.00" fill="#000000"> myOneLoopEW_HV</text>
</g>
<!-- Node3 -->
<g id="node3" class="node">
<title>Node3</title>
<g id="a_node3"><a xlink:href="../../d4/d7b/class_p_vfunctions.html" target="_top" xlink:title="A class for Passarino&#45;Veltman functions. ">
<polygon fill="none" stroke="#000000" points="90.5,-333.5 90.5,-350.5 149.5,-350.5 149.5,-333.5 90.5,-333.5"/>
<text text-anchor="middle" x="120" y="-340.1" font-family="Helvetica,sans-Serif" font-size="8.00" fill="#000000">PVfunctions</text>
</a>
</g>
</g>
<!-- Node3&#45;&gt;Node1 -->
<g id="edge14" class="edge">
<title>Node3&#45;&gt;Node1</title>
<path fill="none" stroke="#9a32cd" stroke-dasharray="5,2" d="M80.3463,-337.6511C45.3968,-331.3565 0,-316.0495 0,-279 0,-279 0,-279 0,-81 0,-52.2551 78.5145,-32.5233 134.3334,-22.1273"/>
<polygon fill="#9a32cd" stroke="#9a32cd" points="79.9071,-341.1254 90.3371,-339.264 81.0227,-334.2149 79.9071,-341.1254"/>
<text text-anchor="middle" x="6.5" y="-173.6" font-family="Helvetica,sans-Serif" font-size="8.00" fill="#000000"> PV</text>
</g>
<!-- Node3&#45;&gt;Node2 -->
<g id="edge2" class="edge">
<title>Node3&#45;&gt;Node2</title>
<path fill="none" stroke="#9a32cd" stroke-dasharray="5,2" d="M87.381,-329.0527C67.5425,-318.8019 46,-302.3051 46,-279 46,-279 46,-279 46,-144 46,-114.4697 77.8751,-98.1312 105.2678,-89.5426"/>
<polygon fill="#9a32cd" stroke="#9a32cd" points="86.0545,-332.298 96.5859,-333.4553 89.0748,-325.9831 86.0545,-332.298"/>
<text text-anchor="middle" x="52.5" y="-209.6" font-family="Helvetica,sans-Serif" font-size="8.00" fill="#000000"> PV</text>
</g>
<!-- Node11 -->
<g id="node9" class="node">
<title>Node11</title>
<g id="a_node9"><a xlink:href="../../dc/df3/class_e_w_s_mcache.html" target="_top" xlink:title="A class for cache variables used in computing radiative corrections to the EW precision observables...">
<polygon fill="none" stroke="#ff0000" points="301.5,-270.5 301.5,-287.5 364.5,-287.5 364.5,-270.5 301.5,-270.5"/>
<text text-anchor="middle" x="333" y="-277.1" font-family="Helvetica,sans-Serif" font-size="8.00" fill="#000000">EWSMcache</text>
</a>
</g>
</g>
<!-- Node3&#45;&gt;Node11 -->
<g id="edge9" class="edge">
<title>Node3&#45;&gt;Node11</title>
<path fill="none" stroke="#9a32cd" stroke-dasharray="5,2" d="M158.7678,-330.5335C200.7059,-318.1292 266.5963,-298.6405 304.1822,-287.5236"/>
<polygon fill="#9a32cd" stroke="#9a32cd" points="157.7668,-327.1796 149.1701,-333.3722 159.7522,-333.8921 157.7668,-327.1796"/>
<text text-anchor="middle" x="246.5" y="-308.6" font-family="Helvetica,sans-Serif" font-size="8.00" fill="#000000"> PV</text>
</g>
<!-- Node4 -->
<g id="node4" class="node">
<title>Node4</title>
<g id="a_node4"><a xlink:href="../../d8/db3/class_polylogarithms.html" target="_top" xlink:title="A class for the polylogarithms. ">
<polygon fill="none" stroke="#000000" points="298.5,-396.5 298.5,-413.5 367.5,-413.5 367.5,-396.5 298.5,-396.5"/>
<text text-anchor="middle" x="333" y="-403.1" font-family="Helvetica,sans-Serif" font-size="8.00" fill="#000000">Polylogarithms</text>
</a>
</g>
</g>
<!-- Node4&#45;&gt;Node1 -->
<g id="edge15" class="edge">
<title>Node4&#45;&gt;Node1</title>
<path fill="none" stroke="#9a32cd" stroke-dasharray="5,2" d="M377.8943,-402.9817C450.5854,-398.474 586,-384.3881 586,-342 586,-342 586,-342 586,-81 586,-46.6991 352.6919,-25.3202 243.7843,-17.2091"/>
<polygon fill="#9a32cd" stroke="#9a32cd" points="377.4272,-399.5029 367.6481,-403.5795 377.835,-406.491 377.4272,-399.5029"/>
<text text-anchor="middle" x="600.5" y="-209.6" font-family="Helvetica,sans-Serif" font-size="8.00" fill="#000000"> Polylog</text>
</g>
<!-- Node4&#45;&gt;Node3 -->
<g id="edge3" class="edge">
<title>Node4&#45;&gt;Node3</title>
<path fill="none" stroke="#9a32cd" stroke-dasharray="5,2" d="M294.2322,-393.5335C252.2941,-381.1292 186.4037,-361.6405 148.8178,-350.5236"/>
<polygon fill="#9a32cd" stroke="#9a32cd" points="293.2478,-396.8921 303.8299,-396.3722 295.2332,-390.1796 293.2478,-396.8921"/>
<text text-anchor="middle" x="260" y="-371.6" font-family="Helvetica,sans-Serif" font-size="8.00" fill="#000000"> myPolylog</text>
</g>
<!-- Node4&#45;&gt;Node11 -->
<g id="edge10" class="edge">
<title>Node4&#45;&gt;Node11</title>
<path fill="none" stroke="#9a32cd" stroke-dasharray="5,2" d="M333,-386.0105C333,-358.3091 333,-307.9226 333,-287.7211"/>
<polygon fill="#9a32cd" stroke="#9a32cd" points="329.5001,-386.3395 333,-396.3395 336.5001,-386.3395 329.5001,-386.3395"/>
<text text-anchor="middle" x="349" y="-340.1" font-family="Helvetica,sans-Serif" font-size="8.00" fill="#000000"> PolyLog</text>
</g>
<!-- Node5 -->
<g id="node5" class="node">
<title>Node5</title>
<g id="a_node5"><a xlink:href="../../df/dea/class_bernoulli_numbers.html" target="_top" xlink:title="A class for the Bernoulli numbers. ">
<polygon fill="none" stroke="#000000" points="293,-451.5 293,-468.5 373,-468.5 373,-451.5 293,-451.5"/>
<text text-anchor="middle" x="333" y="-458.1" font-family="Helvetica,sans-Serif" font-size="8.00" fill="#000000">BernoulliNumbers</text>
</a>
</g>
</g>
<!-- Node5&#45;&gt;Node4 -->
<g id="edge4" class="edge">
<title>Node5&#45;&gt;Node4</title>
<path fill="none" stroke="#191970" d="M333,-441.1166C333,-431.8173 333,-421.0557 333,-413.7149"/>
<polygon fill="#191970" stroke="#191970" points="329.5001,-441.4062 333,-451.4063 336.5001,-441.4063 329.5001,-441.4062"/>
</g>
<!-- Node6 -->
<g id="node6" class="node">
<title>Node6</title>
<g id="a_node6"><a xlink:href="../../dc/dd5/class_standard_model.html" target="_top" xlink:title="A model class for the Standard Model. ">
<polygon fill="none" stroke="#ff0000" points="198.5,-135.5 198.5,-152.5 269.5,-152.5 269.5,-135.5 198.5,-135.5"/>
<text text-anchor="middle" x="234" y="-142.1" font-family="Helvetica,sans-Serif" font-size="8.00" fill="#000000">StandardModel</text>
</a>
</g>
</g>
<!-- Node6&#45;&gt;Node1 -->
<g id="edge16" class="edge">
<title>Node6&#45;&gt;Node1</title>
<path fill="none" stroke="#9a32cd" stroke-dasharray="5,2" d="M234.7598,-125.2399C234.8461,-104.5352 232.717,-70.7361 220,-45 216.6009,-38.1211 211.1272,-31.8098 205.7182,-26.6724"/>
<polygon fill="#9a32cd" stroke="#9a32cd" points="231.2603,-125.1857 234.5371,-135.2611 238.2585,-125.3413 231.2603,-125.1857"/>
<text text-anchor="middle" x="240.5" y="-79.1" font-family="Helvetica,sans-Serif" font-size="8.00" fill="#000000"> SM</text>
</g>
<!-- Node6&#45;&gt;Node2 -->
<g id="edge5" class="edge">
<title>Node6&#45;&gt;Node2</title>
<path fill="none" stroke="#9a32cd" stroke-dasharray="5,2" d="M213.022,-129.3154C195.4636,-117.0245 171.0025,-99.9018 156.4078,-89.6855"/>
<polygon fill="#9a32cd" stroke="#9a32cd" points="211.2864,-132.3728 221.4859,-135.2401 215.3007,-126.6381 211.2864,-132.3728"/>
<text text-anchor="middle" x="202.5" y="-110.6" font-family="Helvetica,sans-Serif" font-size="8.00" fill="#000000"> SM</text>
</g>
<!-- Node6&#45;&gt;Node11 -->
<g id="edge11" class="edge">
<title>Node6&#45;&gt;Node11</title>
<path fill="none" stroke="#9a32cd" stroke-dasharray="5,2" d="M279.6124,-154.9344C317.5778,-165.0678 367.2527,-181.0896 379,-198 396.4381,-223.1024 363.0551,-255.2893 344.3866,-270.4177"/>
<polygon fill="#9a32cd" stroke="#9a32cd" points="280.31,-151.4994 269.7504,-152.3625 278.5435,-158.2728 280.31,-151.4994"/>
<text text-anchor="middle" x="391.5" y="-209.6" font-family="Helvetica,sans-Serif" font-size="8.00" fill="#000000"> SM</text>
</g>
<!-- Node7 -->
<g id="node7" class="node">
<title>Node7</title>
<g id="a_node7"><a xlink:href="../../dd/dfa/class_q_c_d.html" target="_top" xlink:title="A class for parameters related to QCD, hadrons and quarks. ">
<polygon fill="none" stroke="#ff0000" points="77,-203 77,-220 111,-220 111,-203 77,-203"/>
<text text-anchor="middle" x="94" y="-209.6" font-family="Helvetica,sans-Serif" font-size="8.00" fill="#000000">QCD</text>
</a>
</g>
</g>
<!-- Node7&#45;&gt;Node6 -->
<g id="edge6" class="edge">
<title>Node7&#45;&gt;Node6</title>
<path fill="none" stroke="#191970" d="M106.4863,-194.7416C113.4464,-186.4863 122.7652,-177.0345 133,-171 152.8566,-159.2924 177.8688,-152.556 198.0343,-148.7398"/>
<polygon fill="#191970" stroke="#191970" points="103.629,-192.7115 100.1474,-202.718 109.1092,-197.0667 103.629,-192.7115"/>
</g>
<!-- Node10 -->
<g id="node8" class="node">
<title>Node10</title>
<g id="a_node8"><a xlink:href="../../db/d32/class_e_w_s_m_two_fermions_l_e_p2.html" target="_top" xlink:title="A class for the form factors , &#160;and &#160;in the processes &#160;at LEP&#45;II. ">
<polygon fill="none" stroke="#ff0000" points="440.5,-203 440.5,-220 549.5,-220 549.5,-203 440.5,-203"/>
<text text-anchor="middle" x="495" y="-209.6" font-family="Helvetica,sans-Serif" font-size="8.00" fill="#000000">EWSMTwoFermionsLEP2</text>
</a>
</g>
</g>
<!-- Node10&#45;&gt;Node6 -->
<g id="edge7" class="edge">
<title>Node10&#45;&gt;Node6</title>
<path fill="none" stroke="#9a32cd" stroke-dasharray="5,2" d="M473.9728,-197.3359C459.6474,-188.3688 439.9175,-177.3128 421,-171 370.1266,-154.0236 307.9584,-147.7185 269.6741,-145.3786"/>
<polygon fill="#9a32cd" stroke="#9a32cd" points="472.2411,-200.3837 482.5434,-202.8561 476.0315,-194.4987 472.2411,-200.3837"/>
<text text-anchor="middle" x="483.5" y="-173.6" font-family="Helvetica,sans-Serif" font-size="8.00" fill="#000000"> myTwoFermionsLEP2</text>
</g>
<!-- Node11&#45;&gt;Node6 -->
<g id="edge12" class="edge">
<title>Node11&#45;&gt;Node6</title>
<path fill="none" stroke="#9a32cd" stroke-dasharray="5,2" d="M291.2419,-272.1029C244.1968,-263.3812 172.1634,-246.8301 156,-225 134.5084,-195.9737 184.813,-166.5987 214.3694,-152.5374"/>
<polygon fill="#9a32cd" stroke="#9a32cd" points="290.6993,-275.5615 301.1623,-273.8953 291.9439,-268.673 290.6993,-275.5615"/>
<text text-anchor="middle" x="186" y="-209.6" font-family="Helvetica,sans-Serif" font-size="8.00" fill="#000000"> myEWSMcache</text>
</g>
<!-- Node11&#45;&gt;Node10 -->
<g id="edge8" class="edge">
<title>Node11&#45;&gt;Node10</title>
<path fill="none" stroke="#9a32cd" stroke-dasharray="5,2" d="M374.8323,-268.0529C389.6482,-263.6838 406.2852,-258.208 421,-252 442.8599,-242.7776 466.6868,-229.009 481.2373,-220.1411"/>
<polygon fill="#9a32cd" stroke="#9a32cd" points="373.5606,-264.7764 364.9121,-270.8963 375.4894,-271.5054 373.5606,-264.7764"/>
<text text-anchor="middle" x="452" y="-245.6" font-family="Helvetica,sans-Serif" font-size="8.00" fill="#000000"> cache</text>
</g>
<!-- Node14 -->
<g id="node10" class="node">
<title>Node14</title>
<g id="a_node10"><a xlink:href="../../d5/d76/class_matching.html" target="_top" xlink:title="Matching\&lt; StandardModelMatching,\l StandardModel \&gt;">
<polygon fill="none" stroke="#ff0000" points="225.5,-198.5 225.5,-224.5 370.5,-224.5 370.5,-198.5 225.5,-198.5"/>
<text text-anchor="start" x="233.5" y="-214.1" font-family="Helvetica,sans-Serif" font-size="8.00" fill="#000000">Matching&lt; StandardModelMatching,</text>
<text text-anchor="middle" x="298" y="-205.1" font-family="Helvetica,sans-Serif" font-size="8.00" fill="#000000"> StandardModel &gt;</text>
</a>
</g>
</g>
<!-- Node14&#45;&gt;Node6 -->
<g id="edge13" class="edge">
<title>Node14&#45;&gt;Node6</title>
<path fill="none" stroke="#9a32cd" stroke-dasharray="5,2" d="M278.5399,-190.9757C266.3832,-178.1542 251.3582,-162.3074 242.2359,-152.6863"/>
<polygon fill="#9a32cd" stroke="#9a32cd" points="276.2398,-193.6368 285.6602,-198.4853 281.3196,-188.8204 276.2398,-193.6368"/>
<text text-anchor="middle" x="278.5" y="-173.6" font-family="Helvetica,sans-Serif" font-size="8.00" fill="#000000"> SMM</text>
</g>
</g>
</svg>
