<?xml version="1.0" encoding="UTF-8" standalone="no"?>
<!DOCTYPE svg PUBLIC "-//W3C//DTD SVG 1.1//EN"
 "http://www.w3.org/Graphics/SVG/1.1/DTD/svg11.dtd">
<!-- Generated by graphviz version 2.40.1 (20161225.0304)
 -->
<!-- Title: PdgData.hpp Pages: 1 -->
<svg width="761pt" height="251pt"
 viewBox="0.00 0.00 760.97 251.00" xmlns="http://www.w3.org/2000/svg" xmlns:xlink="http://www.w3.org/1999/xlink">
<g id="graph0" class="graph" transform="scale(1 1) rotate(0) translate(4 247)">
<title>PdgData.hpp</title>
<!-- Node1 -->
<g id="node1" class="node">
<title>Node1</title>
<polygon fill="#bfbfbf" stroke="#000000" points="643.9708,-225.5 643.9708,-242.5 706.9708,-242.5 706.9708,-225.5 643.9708,-225.5"/>
<text text-anchor="middle" x="675.4708" y="-232.1" font-family="Helvetica,sans-Serif" font-size="8.00" fill="#000000">PdgData.hpp</text>
</g>
<!-- Node2 -->
<g id="node2" class="node">
<title>Node2</title>
<g id="a_node2"><a xlink:href="../../d8/d88/_codes_and_data_for_mass_eigenstates_8hpp.html" target="_top" xlink:title="CodesAndDataForMassEigenstates.hpp">
<polygon fill="none" stroke="#ff0000" points="252.9708,-171.5 252.9708,-188.5 411.9708,-188.5 411.9708,-171.5 252.9708,-171.5"/>
<text text-anchor="middle" x="332.4708" y="-178.1" font-family="Helvetica,sans-Serif" font-size="8.00" fill="#000000">CodesAndDataForMassEigenstates.hpp</text>
</a>
</g>
</g>
<!-- Node1&#45;&gt;Node2 -->
<g id="edge1" class="edge">
<title>Node1&#45;&gt;Node2</title>
<path fill="none" stroke="#191970" d="M633.6131,-227.4102C571.5603,-217.6409 455.1405,-199.3124 386.6545,-188.5304"/>
<polygon fill="#191970" stroke="#191970" points="633.3943,-230.9187 643.817,-229.0166 634.483,-224.0039 633.3943,-230.9187"/>
</g>
<!-- Node44 -->
<g id="node4" class="node">
<title>Node44</title>
<g id="a_node4"><a xlink:href="../../d4/d42/_s_l_h_a_8hpp.html" target="_top" xlink:title="SLHA.hpp">
<polygon fill="none" stroke="#ff0000" points="339.9708,-.5 339.9708,-17.5 392.9708,-17.5 392.9708,-.5 339.9708,-.5"/>
<text text-anchor="middle" x="366.4708" y="-7.1" font-family="Helvetica,sans-Serif" font-size="8.00" fill="#000000">SLHA.hpp</text>
</a>
</g>
</g>
<!-- Node1&#45;&gt;Node44 -->
<g id="edge11" class="edge">
<title>Node1&#45;&gt;Node44</title>
<path fill="none" stroke="#191970" d="M678.1779,-215.4722C681.0156,-188.579 682.0292,-138.6075 656.4708,-108 621.6898,-66.3481 458.1882,-28.213 393.2007,-14.4391"/>
<polygon fill="#191970" stroke="#191970" points="674.6969,-215.1027 676.9223,-225.4611 681.6423,-215.9758 674.6969,-215.1027"/>
</g>
<!-- Node74 -->
<g id="node10" class="node">
<title>Node74</title>
<g id="a_node10"><a xlink:href="../../db/d0f/_p_d_g_8hpp.html" target="_top" xlink:title="PDG.hpp">
<polygon fill="none" stroke="#ff0000" points="703.9708,-171.5 703.9708,-188.5 752.9708,-188.5 752.9708,-171.5 703.9708,-171.5"/>
<text text-anchor="middle" x="728.4708" y="-178.1" font-family="Helvetica,sans-Serif" font-size="8.00" fill="#000000">PDG.hpp</text>
</a>
</g>
</g>
<!-- Node1&#45;&gt;Node74 -->
<g id="edge10" class="edge">
<title>Node1&#45;&gt;Node74</title>
<path fill="none" stroke="#191970" d="M691.4517,-217.7175C700.7932,-208.1997 712.2166,-196.5608 719.8817,-188.7511"/>
<polygon fill="#191970" stroke="#191970" points="688.7294,-215.4945 684.2226,-225.083 693.7252,-220.3978 688.7294,-215.4945"/>
</g>
<!-- Node3 -->
<g id="node3" class="node">
<title>Node3</title>
<g id="a_node3"><a xlink:href="../../d0/d81/_default_spectra_8hpp.html" target="_top" xlink:title="DefaultSpectra.hpp">
<polygon fill="none" stroke="#ff0000" points="14.9708,-54.5 14.9708,-71.5 99.9708,-71.5 99.9708,-54.5 14.9708,-54.5"/>
<text text-anchor="middle" x="57.4708" y="-61.1" font-family="Helvetica,sans-Serif" font-size="8.00" fill="#000000">DefaultSpectra.hpp</text>
</a>
</g>
</g>
<!-- Node2&#45;&gt;Node3 -->
<g id="edge2" class="edge">
<title>Node2&#45;&gt;Node3</title>
<path fill="none" stroke="#191970" d="M242.6773,-173.6496C151.307,-166.2529 20.9425,-152.7467 5.4708,-135 -13.2745,-113.4984 22.2291,-85.4726 43.3643,-71.581"/>
<polygon fill="#191970" stroke="#191970" points="242.5338,-177.1492 252.7805,-174.4556 243.0905,-170.1713 242.5338,-177.1492"/>
</g>
<!-- Node60 -->
<g id="node5" class="node">
<title>Node60</title>
<g id="a_node5"><a xlink:href="../../d8/d88/_standard_model_8hpp.html" target="_top" xlink:title="StandardModel.hpp">
<polygon fill="none" stroke="#ff0000" points="14.4708,-113 14.4708,-130 100.4708,-130 100.4708,-113 14.4708,-113"/>
<text text-anchor="middle" x="57.4708" y="-119.6" font-family="Helvetica,sans-Serif" font-size="8.00" fill="#000000">StandardModel.hpp</text>
</a>
</g>
</g>
<!-- Node2&#45;&gt;Node60 -->
<g id="edge4" class="edge">
<title>Node2&#45;&gt;Node60</title>
<path fill="none" stroke="#191970" d="M276.283,-169.5467C231.0801,-160.9244 166.0036,-148.032 109.4708,-135 102.9269,-133.4915 95.9507,-131.7637 89.3029,-130.0592"/>
<polygon fill="#191970" stroke="#191970" points="275.7082,-173.0001 286.1858,-171.428 277.0147,-166.123 275.7082,-173.0001"/>
</g>
<!-- Node64 -->
<g id="node6" class="node">
<title>Node64</title>
<g id="a_node6"><a xlink:href="../../db/dd6/_mssm_extra_ewsb_spin_zero_boson_set_8hpp.html" target="_top" xlink:title="MssmExtraEwsbSpinZeroBoson\lSet.hpp">
<polygon fill="none" stroke="#ff0000" points="118.9708,-108.5 118.9708,-134.5 249.9708,-134.5 249.9708,-108.5 118.9708,-108.5"/>
<text text-anchor="start" x="126.9708" y="-124.1" font-family="Helvetica,sans-Serif" font-size="8.00" fill="#000000">MssmExtraEwsbSpinZeroBoson</text>
<text text-anchor="middle" x="184.4708" y="-115.1" font-family="Helvetica,sans-Serif" font-size="8.00" fill="#000000">Set.hpp</text>
</a>
</g>
</g>
<!-- Node2&#45;&gt;Node64 -->
<g id="edge6" class="edge">
<title>Node2&#45;&gt;Node64</title>
<path fill="none" stroke="#191970" d="M301.39,-167.7147C276.8109,-157.9993 242.5774,-144.4678 217.505,-134.5574"/>
<polygon fill="#191970" stroke="#191970" points="300.3638,-171.0725 310.9503,-171.4936 302.937,-164.5626 300.3638,-171.0725"/>
</g>
<!-- Node67 -->
<g id="node7" class="node">
<title>Node67</title>
<g id="a_node7"><a xlink:href="../../d2/dea/_charged_sleptons_one_to_six_8hpp.html" target="_top" xlink:title="ChargedSleptonsOneToSix.hpp">
<polygon fill="none" stroke="#ff0000" points="267.9708,-113 267.9708,-130 396.9708,-130 396.9708,-113 267.9708,-113"/>
<text text-anchor="middle" x="332.4708" y="-119.6" font-family="Helvetica,sans-Serif" font-size="8.00" fill="#000000">ChargedSleptonsOneToSix.hpp</text>
</a>
</g>
</g>
<!-- Node2&#45;&gt;Node67 -->
<g id="edge7" class="edge">
<title>Node2&#45;&gt;Node67</title>
<path fill="none" stroke="#191970" d="M332.4708,-161.1601C332.4708,-150.7439 332.4708,-138.3023 332.4708,-130.1673"/>
<polygon fill="#191970" stroke="#191970" points="328.9709,-161.3681 332.4708,-171.3681 335.9709,-161.3682 328.9709,-161.3681"/>
</g>
<!-- Node68 -->
<g id="node8" class="node">
<title>Node68</title>
<g id="a_node8"><a xlink:href="../../d2/d67/_sneutrinos_one_to_three_8hpp.html" target="_top" xlink:title="SneutrinosOneToThree.hpp">
<polygon fill="none" stroke="#ff0000" points="415.4708,-113 415.4708,-130 531.4708,-130 531.4708,-113 415.4708,-113"/>
<text text-anchor="middle" x="473.4708" y="-119.6" font-family="Helvetica,sans-Serif" font-size="8.00" fill="#000000">SneutrinosOneToThree.hpp</text>
</a>
</g>
</g>
<!-- Node2&#45;&gt;Node68 -->
<g id="edge8" class="edge">
<title>Node2&#45;&gt;Node68</title>
<path fill="none" stroke="#191970" d="M362.4025,-167.5815C389.64,-156.2808 429.1238,-139.8993 452.9434,-130.0167"/>
<polygon fill="#191970" stroke="#191970" points="360.8687,-164.4285 352.9734,-171.4936 363.5512,-170.8941 360.8687,-164.4285"/>
</g>
<!-- Node69 -->
<g id="node9" class="node">
<title>Node69</title>
<g id="a_node9"><a xlink:href="../../d7/d2c/_squarks_one_to_six_8hpp.html" target="_top" xlink:title="SquarksOneToSix.hpp">
<polygon fill="none" stroke="#ff0000" points="549.9708,-113 549.9708,-130 646.9708,-130 646.9708,-113 549.9708,-113"/>
<text text-anchor="middle" x="598.4708" y="-119.6" font-family="Helvetica,sans-Serif" font-size="8.00" fill="#000000">SquarksOneToSix.hpp</text>
</a>
</g>
</g>
<!-- Node2&#45;&gt;Node69 -->
<g id="edge9" class="edge">
<title>Node2&#45;&gt;Node69</title>
<path fill="none" stroke="#191970" d="M382.7879,-169.3441C424.9438,-160.3614 486.6863,-147.0767 540.4708,-135 547.532,-133.4145 555.0681,-131.6867 562.2915,-130.013"/>
<polygon fill="#191970" stroke="#191970" points="381.8275,-165.9701 372.7752,-171.4753 383.2848,-172.8167 381.8275,-165.9701"/>
</g>
<!-- Node3&#45;&gt;Node44 -->
<g id="edge3" class="edge">
<title>Node3&#45;&gt;Node44</title>
<path fill="none" stroke="#191970" d="M109.9834,-53.823C176.5206,-42.1952 288.6684,-22.5965 339.7193,-13.675"/>
<polygon fill="#191970" stroke="#191970" points="109.3596,-50.3789 100.1115,-55.5482 110.5647,-57.2744 109.3596,-50.3789"/>
</g>
<!-- Node60&#45;&gt;Node3 -->
<g id="edge5" class="edge">
<title>Node60&#45;&gt;Node3</title>
<path fill="none" stroke="#191970" d="M57.4708,-102.6601C57.4708,-92.2439 57.4708,-79.8023 57.4708,-71.6673"/>
<polygon fill="#191970" stroke="#191970" points="53.9709,-102.8681 57.4708,-112.8681 60.9709,-102.8682 53.9709,-102.8681"/>
</g>
</g>
</svg>
