<?xml version="1.0" encoding="UTF-8" standalone="no"?>
<!DOCTYPE svg PUBLIC "-//W3C//DTD SVG 1.1//EN"
 "http://www.w3.org/Graphics/SVG/1.1/DTD/svg11.dtd">
<!-- Generated by graphviz version 2.40.1 (20161225.0304)
 -->
<!-- Title: BalancedPartitionCandidate.hpp Pages: 1 -->
<svg width="445pt" height="296pt"
 viewBox="0.00 0.00 444.50 296.00" xmlns="http://www.w3.org/2000/svg" xmlns:xlink="http://www.w3.org/1999/xlink">
<g id="graph0" class="graph" transform="scale(1 1) rotate(0) translate(4 292)">
<title>BalancedPartitionCandidate.hpp</title>
<!-- Node11 -->
<g id="node1" class="node">
<title>Node11</title>
<polygon fill="#bfbfbf" stroke="#000000" points="183.5,-270.5 183.5,-287.5 314.5,-287.5 314.5,-270.5 183.5,-270.5"/>
<text text-anchor="middle" x="249" y="-277.1" font-family="Helvetica,sans-Serif" font-size="8.00" fill="#000000">BalancedPartitionCandidate.hpp</text>
</g>
<!-- Node12 -->
<g id="node2" class="node">
<title>Node12</title>
<g id="a_node2"><a xlink:href="../../d8/d03/_balanced_partitioner_8hpp.html" target="_top" xlink:title="BalancedPartitioner.hpp">
<polygon fill="none" stroke="#000000" points="119,-216.5 119,-233.5 221,-233.5 221,-216.5 119,-216.5"/>
<text text-anchor="middle" x="170" y="-223.1" font-family="Helvetica,sans-Serif" font-size="8.00" fill="#000000">BalancedPartitioner.hpp</text>
</a>
</g>
</g>
<!-- Node11&#45;&gt;Node12 -->
<g id="edge1" class="edge">
<title>Node11&#45;&gt;Node12</title>
<path fill="none" stroke="#191970" d="M227.9657,-264.6221C213.5339,-254.7574 194.8585,-241.9919 182.6612,-233.6545"/>
<polygon fill="#191970" stroke="#191970" points="226.0765,-267.5703 236.3073,-270.324 230.0267,-261.7914 226.0765,-267.5703"/>
</g>
<!-- Node13 -->
<g id="node3" class="node">
<title>Node13</title>
<g id="a_node3"><a xlink:href="../../d8/d14/_b_o_llib_8hpp.html" target="_top" xlink:title="BOLlib.hpp">
<polygon fill="none" stroke="#ff0000" points="181,-162.5 181,-179.5 237,-179.5 237,-162.5 181,-162.5"/>
<text text-anchor="middle" x="209" y="-169.1" font-family="Helvetica,sans-Serif" font-size="8.00" fill="#000000">BOLlib.hpp</text>
</a>
</g>
</g>
<!-- Node11&#45;&gt;Node13 -->
<g id="edge11" class="edge">
<title>Node11&#45;&gt;Node13</title>
<path fill="none" stroke="#191970" d="M244.1708,-260.4808C240.6816,-247.8029 235.6106,-230.693 230,-216 225.0792,-203.1135 218.1062,-188.757 213.5686,-179.8018"/>
<polygon fill="#191970" stroke="#191970" points="240.8351,-261.5552 246.8036,-270.309 247.5967,-259.7439 240.8351,-261.5552"/>
</g>
<!-- Node165 -->
<g id="node10" class="node">
<title>Node165</title>
<g id="a_node10"><a xlink:href="../../d8/d49/_balanced_partition_candidate_8cpp.html" target="_top" xlink:title="BalancedPartitionCandidate.cpp">
<polygon fill="none" stroke="#000000" points="277.5,-216.5 277.5,-233.5 408.5,-233.5 408.5,-216.5 277.5,-216.5"/>
<text text-anchor="middle" x="343" y="-223.1" font-family="Helvetica,sans-Serif" font-size="8.00" fill="#000000">BalancedPartitionCandidate.cpp</text>
</a>
</g>
</g>
<!-- Node11&#45;&gt;Node165 -->
<g id="edge12" class="edge">
<title>Node11&#45;&gt;Node165</title>
<path fill="none" stroke="#191970" d="M273.0616,-265.1774C290.3589,-255.2407 313.1477,-242.1492 327.9348,-233.6545"/>
<polygon fill="#191970" stroke="#191970" points="271.0303,-262.3078 264.1027,-270.324 274.5172,-268.3775 271.0303,-262.3078"/>
</g>
<!-- Node12&#45;&gt;Node13 -->
<g id="edge2" class="edge">
<title>Node12&#45;&gt;Node13</title>
<path fill="none" stroke="#191970" d="M182.3822,-207.8554C189.1354,-198.5048 197.2086,-187.3265 202.6798,-179.7511"/>
<polygon fill="#191970" stroke="#191970" points="179.4576,-205.927 176.4401,-216.083 185.1324,-210.0254 179.4576,-205.927"/>
</g>
<!-- Node14 -->
<g id="node4" class="node">
<title>Node14</title>
<g id="a_node4"><a xlink:href="../../d4/d01/_object_line_8hpp.html" target="_top" xlink:title="ObjectLine.hpp">
<polygon fill="none" stroke="#ff0000" points="0,-108.5 0,-125.5 70,-125.5 70,-108.5 0,-108.5"/>
<text text-anchor="middle" x="35" y="-115.1" font-family="Helvetica,sans-Serif" font-size="8.00" fill="#000000">ObjectLine.hpp</text>
</a>
</g>
</g>
<!-- Node13&#45;&gt;Node14 -->
<g id="edge3" class="edge">
<title>Node13&#45;&gt;Node14</title>
<path fill="none" stroke="#191970" d="M171.7393,-159.4363C138.933,-149.2551 91.9174,-134.664 62.4418,-125.5164"/>
<polygon fill="#191970" stroke="#191970" points="170.8411,-162.8222 181.4292,-162.4435 172.916,-156.1368 170.8411,-162.8222"/>
</g>
<!-- Node38 -->
<g id="node5" class="node">
<title>Node38</title>
<g id="a_node5"><a xlink:href="../../d0/dcd/_particle_line_8hpp.html" target="_top" xlink:title="ParticleLine.hpp">
<polygon fill="none" stroke="#ff0000" points="88,-108.5 88,-125.5 162,-125.5 162,-108.5 88,-108.5"/>
<text text-anchor="middle" x="125" y="-115.1" font-family="Helvetica,sans-Serif" font-size="8.00" fill="#000000">ParticleLine.hpp</text>
</a>
</g>
</g>
<!-- Node13&#45;&gt;Node38 -->
<g id="edge4" class="edge">
<title>Node13&#45;&gt;Node38</title>
<path fill="none" stroke="#191970" d="M187.0675,-156.9005C171.6645,-146.9986 151.5542,-134.0705 138.4626,-125.6545"/>
<polygon fill="#191970" stroke="#191970" points="185.1995,-159.8605 195.5039,-162.324 188.9848,-153.9722 185.1995,-159.8605"/>
</g>
<!-- Node39 -->
<g id="node6" class="node">
<title>Node39</title>
<g id="a_node6"><a xlink:href="../../d7/db8/_lhef_event_8hpp.html" target="_top" xlink:title="LhefEvent.hpp">
<polygon fill="none" stroke="#ff0000" points="132,-54.5 132,-71.5 200,-71.5 200,-54.5 132,-54.5"/>
<text text-anchor="middle" x="166" y="-61.1" font-family="Helvetica,sans-Serif" font-size="8.00" fill="#000000">LhefEvent.hpp</text>
</a>
</g>
</g>
<!-- Node13&#45;&gt;Node39 -->
<g id="edge8" class="edge">
<title>Node13&#45;&gt;Node39</title>
<path fill="none" stroke="#191970" d="M201.6838,-152.6243C192.3019,-129.0605 176.4138,-89.1557 169.4473,-71.6584"/>
<polygon fill="#191970" stroke="#191970" points="198.5303,-154.1659 205.4811,-162.1619 205.0337,-151.5765 198.5303,-154.1659"/>
</g>
<!-- Node41 -->
<g id="node7" class="node">
<title>Node41</title>
<g id="a_node7"><a xlink:href="../../dd/d66/_lhef_parser_8hpp.html" target="_top" xlink:title="LhefParser.hpp">
<polygon fill="none" stroke="#ff0000" points="161.5,-.5 161.5,-17.5 232.5,-17.5 232.5,-.5 161.5,-.5"/>
<text text-anchor="middle" x="197" y="-7.1" font-family="Helvetica,sans-Serif" font-size="8.00" fill="#000000">LhefParser.hpp</text>
</a>
</g>
</g>
<!-- Node13&#45;&gt;Node41 -->
<g id="edge9" class="edge">
<title>Node13&#45;&gt;Node41</title>
<path fill="none" stroke="#191970" d="M210.4902,-152.2982C211.9953,-129.1181 213.5156,-88.4588 209,-54 207.3191,-41.1729 203.0518,-26.8015 200.0877,-17.8268"/>
<polygon fill="#191970" stroke="#191970" points="206.9875,-152.2097 209.7578,-162.436 213.9693,-152.7142 206.9875,-152.2097"/>
</g>
<!-- Node37 -->
<g id="node8" class="node">
<title>Node37</title>
<g id="a_node8"><a xlink:href="../../da/d4b/_lhco_parser_8hpp.html" target="_top" xlink:title="LhcoParser.hpp">
<polygon fill="none" stroke="#ff0000" points="256.5,-108.5 256.5,-125.5 329.5,-125.5 329.5,-108.5 256.5,-108.5"/>
<text text-anchor="middle" x="293" y="-115.1" font-family="Helvetica,sans-Serif" font-size="8.00" fill="#000000">LhcoParser.hpp</text>
</a>
</g>
</g>
<!-- Node13&#45;&gt;Node37 -->
<g id="edge7" class="edge">
<title>Node13&#45;&gt;Node37</title>
<path fill="none" stroke="#191970" d="M230.9325,-156.9005C246.3355,-146.9986 266.4458,-134.0705 279.5374,-125.6545"/>
<polygon fill="#191970" stroke="#191970" points="229.0152,-153.9722 222.4961,-162.324 232.8005,-159.8605 229.0152,-153.9722"/>
</g>
<!-- Node54 -->
<g id="node9" class="node">
<title>Node54</title>
<g id="a_node9"><a xlink:href="../../d0/d2e/_mass_eigenstate_8hpp.html" target="_top" xlink:title="MassEigenstate.hpp">
<polygon fill="none" stroke="#ff0000" points="347.5,-108.5 347.5,-125.5 436.5,-125.5 436.5,-108.5 347.5,-108.5"/>
<text text-anchor="middle" x="392" y="-115.1" font-family="Helvetica,sans-Serif" font-size="8.00" fill="#000000">MassEigenstate.hpp</text>
</a>
</g>
</g>
<!-- Node13&#45;&gt;Node54 -->
<g id="edge10" class="edge">
<title>Node13&#45;&gt;Node54</title>
<path fill="none" stroke="#191970" d="M246.9343,-159.8063C281.4961,-149.6077 331.7957,-134.7652 363.1711,-125.5069"/>
<polygon fill="#191970" stroke="#191970" points="245.7933,-156.4937 237.1927,-162.6808 247.7744,-163.2075 245.7933,-156.4937"/>
</g>
<!-- Node38&#45;&gt;Node39 -->
<g id="edge5" class="edge">
<title>Node38&#45;&gt;Node39</title>
<path fill="none" stroke="#191970" d="M138.0172,-99.8554C145.1167,-90.5048 153.604,-79.3265 159.3557,-71.7511"/>
<polygon fill="#191970" stroke="#191970" points="135.0299,-98.002 131.7703,-108.083 140.605,-102.235 135.0299,-98.002"/>
</g>
<!-- Node39&#45;&gt;Node41 -->
<g id="edge6" class="edge">
<title>Node39&#45;&gt;Node41</title>
<path fill="none" stroke="#191970" d="M176.1756,-45.2747C181.4739,-36.0454 187.717,-25.1703 191.9762,-17.7511"/>
<polygon fill="#191970" stroke="#191970" points="173.0624,-43.6679 171.119,-54.083 179.1331,-47.153 173.0624,-43.6679"/>
</g>
</g>
</svg>
