<?xml version="1.0" encoding="UTF-8" standalone="no"?>
<!DOCTYPE svg PUBLIC "-//W3C//DTD SVG 1.1//EN"
 "http://www.w3.org/Graphics/SVG/1.1/DTD/svg11.dtd">
<!-- Generated by graphviz version 2.40.1 (20161225.0304)
 -->
<!-- Title: CPenguinBoxMu.cpp Pages: 1 -->
<svg width="517pt" height="188pt"
 viewBox="0.00 0.00 517.00 188.00" xmlns="http://www.w3.org/2000/svg" xmlns:xlink="http://www.w3.org/1999/xlink">
<g id="graph0" class="graph" transform="scale(1 1) rotate(0) translate(4 184)">
<title>CPenguinBoxMu.cpp</title>
<!-- Node0 -->
<g id="node1" class="node">
<title>Node0</title>
<polygon fill="#bfbfbf" stroke="#000000" points="245.5,-162.5 245.5,-179.5 337.5,-179.5 337.5,-162.5 245.5,-162.5"/>
<text text-anchor="middle" x="291.5" y="-169.1" font-family="Helvetica,sans-Serif" font-size="8.00" fill="#000000">CPenguinBoxMu.cpp</text>
</g>
<!-- Node1 -->
<g id="node2" class="node">
<title>Node1</title>
<g id="a_node2"><a xlink:href="../../da/d8c/_c_penguin_box_mu_8h.html" target="_top" xlink:title="CPenguinBoxMu.h">
<polygon fill="none" stroke="#000000" points="156,-108.5 156,-125.5 239,-125.5 239,-108.5 156,-108.5"/>
<text text-anchor="middle" x="197.5" y="-115.1" font-family="Helvetica,sans-Serif" font-size="8.00" fill="#000000">CPenguinBoxMu.h</text>
</a>
</g>
</g>
<!-- Node0&#45;&gt;Node1 -->
<g id="edge1" class="edge">
<title>Node0&#45;&gt;Node1</title>
<path fill="none" stroke="#191970" d="M276.3973,-162.324C261.5967,-153.8215 238.8058,-140.7288 221.5178,-130.7975"/>
<polygon fill="#191970" stroke="#191970" points="222.9798,-127.6009 212.5652,-125.6545 219.4929,-133.6707 222.9798,-127.6009"/>
</g>
<!-- Node6 -->
<g id="node7" class="node">
<title>Node6</title>
<g id="a_node7"><a xlink:href="../../d6/d0a/_standard_model_8h.html" target="_top" xlink:title="StandardModel.h">
<polygon fill="none" stroke="#ff0000" points="374,-108.5 374,-125.5 451,-125.5 451,-108.5 374,-108.5"/>
<text text-anchor="middle" x="412.5" y="-115.1" font-family="Helvetica,sans-Serif" font-size="8.00" fill="#000000">StandardModel.h</text>
</a>
</g>
</g>
<!-- Node0&#45;&gt;Node6 -->
<g id="edge6" class="edge">
<title>Node0&#45;&gt;Node6</title>
<path fill="none" stroke="#191970" d="M310.6728,-162.4435C330.4091,-153.6356 361.3852,-139.8116 383.9934,-129.722"/>
<polygon fill="#191970" stroke="#191970" points="385.7114,-132.788 393.4169,-125.5164 382.8586,-126.3957 385.7114,-132.788"/>
</g>
<!-- Node2 -->
<g id="node3" class="node">
<title>Node2</title>
<polygon fill="none" stroke="#bfbfbf" points="0,-54.5 0,-71.5 45,-71.5 45,-54.5 0,-54.5"/>
<text text-anchor="middle" x="22.5" y="-61.1" font-family="Helvetica,sans-Serif" font-size="8.00" fill="#000000">sstream</text>
</g>
<!-- Node1&#45;&gt;Node2 -->
<g id="edge2" class="edge">
<title>Node1&#45;&gt;Node2</title>
<path fill="none" stroke="#191970" d="M169.7707,-108.4435C138.5023,-98.795 87.7272,-83.1273 54.7223,-72.9429"/>
<polygon fill="#191970" stroke="#191970" points="55.6786,-69.5752 45.0911,-69.971 53.6145,-76.264 55.6786,-69.5752"/>
</g>
<!-- Node3 -->
<g id="node4" class="node">
<title>Node3</title>
<polygon fill="none" stroke="#bfbfbf" points="63.5,-54.5 63.5,-71.5 141.5,-71.5 141.5,-54.5 63.5,-54.5"/>
<text text-anchor="middle" x="102.5" y="-61.1" font-family="Helvetica,sans-Serif" font-size="8.00" fill="#000000">gsl/gsl_sf_dilog.h</text>
</g>
<!-- Node1&#45;&gt;Node3 -->
<g id="edge3" class="edge">
<title>Node1&#45;&gt;Node3</title>
<path fill="none" stroke="#191970" d="M182.2366,-108.324C167.2786,-99.8215 144.2452,-86.7288 126.7733,-76.7975"/>
<polygon fill="#191970" stroke="#191970" points="128.1488,-73.5534 117.7255,-71.6545 124.6896,-79.639 128.1488,-73.5534"/>
</g>
<!-- Node4 -->
<g id="node5" class="node">
<title>Node4</title>
<polygon fill="none" stroke="#bfbfbf" points="159.5,-54.5 159.5,-71.5 235.5,-71.5 235.5,-54.5 159.5,-54.5"/>
<text text-anchor="middle" x="197.5" y="-61.1" font-family="Helvetica,sans-Serif" font-size="8.00" fill="#000000">gsl/gsl_sf_zeta.h</text>
</g>
<!-- Node1&#45;&gt;Node4 -->
<g id="edge4" class="edge">
<title>Node1&#45;&gt;Node4</title>
<path fill="none" stroke="#191970" d="M197.5,-108.083C197.5,-101.0059 197.5,-90.8611 197.5,-81.9865"/>
<polygon fill="#191970" stroke="#191970" points="201.0001,-81.751 197.5,-71.7511 194.0001,-81.7511 201.0001,-81.751"/>
</g>
<!-- Node5 -->
<g id="node6" class="node">
<title>Node5</title>
<polygon fill="none" stroke="#bfbfbf" points="254,-54.5 254,-71.5 343,-71.5 343,-54.5 254,-54.5"/>
<text text-anchor="middle" x="298.5" y="-61.1" font-family="Helvetica,sans-Serif" font-size="8.00" fill="#000000">gsl/gsl_sf_clausen.h</text>
</g>
<!-- Node1&#45;&gt;Node5 -->
<g id="edge5" class="edge">
<title>Node1&#45;&gt;Node5</title>
<path fill="none" stroke="#191970" d="M213.7274,-108.324C229.851,-99.7034 254.8002,-86.3643 273.4641,-76.3855"/>
<polygon fill="#191970" stroke="#191970" points="275.1444,-79.456 282.3129,-71.6545 271.8439,-73.283 275.1444,-79.456"/>
</g>
<!-- Node7 -->
<g id="node8" class="node">
<title>Node7</title>
<g id="a_node8"><a xlink:href="../../d2/d65/_flavour_8h.html" target="_top" xlink:title="Flavour.h">
<polygon fill="none" stroke="#ff0000" points="361.5,-54.5 361.5,-71.5 411.5,-71.5 411.5,-54.5 361.5,-54.5"/>
<text text-anchor="middle" x="386.5" y="-61.1" font-family="Helvetica,sans-Serif" font-size="8.00" fill="#000000">Flavour.h</text>
</a>
</g>
</g>
<!-- Node6&#45;&gt;Node7 -->
<g id="edge7" class="edge">
<title>Node6&#45;&gt;Node7</title>
<path fill="none" stroke="#191970" d="M408.2066,-108.083C404.6477,-100.6913 399.4775,-89.9533 395.0757,-80.8111"/>
<polygon fill="#191970" stroke="#191970" points="398.2052,-79.2427 390.7135,-71.7511 391.8982,-82.2795 398.2052,-79.2427"/>
</g>
<!-- Node8 -->
<g id="node9" class="node">
<title>Node8</title>
<g id="a_node9"><a xlink:href="../../d4/d68/_q_c_d_8h.html" target="_top" xlink:title="QCD.h">
<polygon fill="none" stroke="#ff0000" points="392,-.5 392,-17.5 433,-17.5 433,-.5 392,-.5"/>
<text text-anchor="middle" x="412.5" y="-7.1" font-family="Helvetica,sans-Serif" font-size="8.00" fill="#000000">QCD.h</text>
</a>
</g>
</g>
<!-- Node6&#45;&gt;Node8 -->
<g id="edge9" class="edge">
<title>Node6&#45;&gt;Node8</title>
<path fill="none" stroke="#191970" d="M414.4869,-108.4334C416.467,-99.424 419.3706,-84.805 420.5,-72 421.8201,-57.0326 419.4675,-40.1471 416.9785,-27.6273"/>
<polygon fill="#191970" stroke="#191970" points="420.3251,-26.5501 414.7557,-17.5372 413.4891,-28.0561 420.3251,-26.5501"/>
</g>
<!-- Node31 -->
<g id="node10" class="node">
<title>Node31</title>
<g id="a_node10"><a xlink:href="../../db/d5d/_c_k_m_8h.html" target="_top" xlink:title="CKM.h">
<polygon fill="none" stroke="#ff0000" points="468,-54.5 468,-71.5 509,-71.5 509,-54.5 468,-54.5"/>
<text text-anchor="middle" x="488.5" y="-61.1" font-family="Helvetica,sans-Serif" font-size="8.00" fill="#000000">CKM.h</text>
</a>
</g>
</g>
<!-- Node6&#45;&gt;Node31 -->
<g id="edge10" class="edge">
<title>Node6&#45;&gt;Node31</title>
<path fill="none" stroke="#191970" d="M424.7107,-108.324C436.2759,-100.1066 453.8754,-87.6017 467.6607,-77.8069"/>
<polygon fill="#191970" stroke="#191970" points="469.9425,-80.4791 476.0671,-71.8339 465.888,-74.7729 469.9425,-80.4791"/>
</g>
<!-- Node7&#45;&gt;Node8 -->
<g id="edge8" class="edge">
<title>Node7&#45;&gt;Node8</title>
<path fill="none" stroke="#191970" d="M390.7934,-54.083C394.3523,-46.6913 399.5225,-35.9533 403.9243,-26.8111"/>
<polygon fill="#191970" stroke="#191970" points="407.1018,-28.2795 408.2865,-17.7511 400.7948,-25.2427 407.1018,-28.2795"/>
</g>
</g>
</svg>
