<?xml version="1.0" encoding="UTF-8" standalone="no"?>
<!DOCTYPE svg PUBLIC "-//W3C//DTD SVG 1.1//EN"
 "http://www.w3.org/Graphics/SVG/1.1/DTD/svg11.dtd">
<!-- Generated by graphviz version 2.38.0 (20140413.2041)
 -->
<!-- Title: StandardModelMatching Pages: 1 -->
<svg width="868pt" height="340pt"
 viewBox="0.00 0.00 868.00 340.00" xmlns="http://www.w3.org/2000/svg" xmlns:xlink="http://www.w3.org/1999/xlink">
<g id="graph0" class="graph" transform="scale(1 1) rotate(0) translate(4 336)">
<title>StandardModelMatching</title>
<!-- Node1 -->
<g id="node1" class="node"><title>Node1</title>
<polygon fill="#bfbfbf" stroke="black" points="391,-190.5 391,-207.5 494,-207.5 494,-190.5 391,-190.5"/>
<text text-anchor="middle" x="442.5" y="-197.1" font-family="Helvetica,sans-Serif" font-size="8.00">StandardModelMatching</text>
</g>
<!-- Node8 -->
<g id="node8" class="node"><title>Node8</title>
<g id="a_node8"><a xlink:href="../../dc/dd5/class_standard_model.html" target="_top" xlink:title="A model class for the Standard Model. ">
<polygon fill="none" stroke="red" points="630,-135.5 630,-152.5 701,-152.5 701,-135.5 630,-135.5"/>
<text text-anchor="middle" x="665.5" y="-142.1" font-family="Helvetica,sans-Serif" font-size="8.00">StandardModel</text>
</a>
</g>
</g>
<!-- Node1&#45;&gt;Node8 -->
<g id="edge11" class="edge"><title>Node1&#45;&gt;Node8</title>
<path fill="none" stroke="#9a32cd" stroke-dasharray="5,2" d="M479.374,-187.425C489.844,-184.204 501.338,-180.818 512,-178 533.898,-172.212 592.123,-159.507 629.96,-151.372"/>
<polygon fill="#9a32cd" stroke="#9a32cd" points="478.214,-184.12 469.71,-190.439 480.299,-190.803 478.214,-184.12"/>
<text text-anchor="middle" x="562" y="-180.6" font-family="Helvetica,sans-Serif" font-size="8.00"> myStandardModelMatching</text>
</g>
<!-- Node2 -->
<g id="node2" class="node"><title>Node2</title>
<g id="a_node2"><a xlink:href="../../d0/d2a/class_model_matching.html" target="_top" xlink:title="A class for a template of model matching. ">
<polygon fill="none" stroke="black" points="231.5,-314.5 231.5,-331.5 302.5,-331.5 302.5,-314.5 231.5,-314.5"/>
<text text-anchor="middle" x="267" y="-321.1" font-family="Helvetica,sans-Serif" font-size="8.00">ModelMatching</text>
</a>
</g>
</g>
<!-- Node2&#45;&gt;Node1 -->
<g id="edge1" class="edge"><title>Node2&#45;&gt;Node1</title>
<path fill="none" stroke="midnightblue" d="M312.763,-325.354C332.594,-324.397 355.369,-320.381 373,-309 411.559,-284.111 432.163,-229.038 438.942,-207.691"/>
<polygon fill="midnightblue" stroke="midnightblue" points="312.617,-321.856 302.705,-325.598 312.786,-328.854 312.617,-321.856"/>
</g>
<!-- Node3 -->
<g id="node3" class="node"><title>Node3</title>
<g id="a_node3"><a xlink:href="../../dd/d9b/classgslpp_1_1complex.html" target="_top" xlink:title="A class for defining operations on and functions of complex numbers. ">
<polygon fill="none" stroke="black" points="232,-158.5 232,-175.5 302,-175.5 302,-158.5 232,-158.5"/>
<text text-anchor="middle" x="267" y="-165.1" font-family="Helvetica,sans-Serif" font-size="8.00">gslpp::complex</text>
</a>
</g>
</g>
<!-- Node3&#45;&gt;Node1 -->
<g id="edge2" class="edge"><title>Node3&#45;&gt;Node1</title>
<path fill="none" stroke="#9a32cd" stroke-dasharray="5,2" d="M312.359,-175.181C337.709,-179.857 369.462,-185.714 395.139,-190.449"/>
<polygon fill="#9a32cd" stroke="#9a32cd" points="312.747,-171.694 302.278,-173.322 311.477,-178.578 312.747,-171.694"/>
<text text-anchor="middle" x="351" y="-188.6" font-family="Helvetica,sans-Serif" font-size="8.00"> lam_t</text>
</g>
<!-- Node3&#45;&gt;Node8 -->
<g id="edge12" class="edge"><title>Node3&#45;&gt;Node8</title>
<path fill="none" stroke="#9a32cd" stroke-dasharray="5,2" d="M312.339,-164.428C391.975,-159.809 557.634,-150.199 629.727,-146.017"/>
<polygon fill="#9a32cd" stroke="#9a32cd" points="311.929,-160.946 302.149,-165.019 312.334,-167.934 311.929,-160.946"/>
<text text-anchor="middle" x="442.5" y="-171.6" font-family="Helvetica,sans-Serif" font-size="8.00"> rhoZ_f_cache</text>
<text text-anchor="middle" x="442.5" y="-162.6" font-family="Helvetica,sans-Serif" font-size="8.00">kappaZ_f_cache</text>
</g>
<!-- Node4 -->
<g id="node4" class="node"><title>Node4</title>
<g id="a_node4"><a xlink:href="../../d2/d95/class_wilson_coefficient.html" target="_top" xlink:title="A class for the Wilson coefficients. ">
<polygon fill="none" stroke="black" points="228,-200.5 228,-217.5 306,-217.5 306,-200.5 228,-200.5"/>
<text text-anchor="middle" x="267" y="-207.1" font-family="Helvetica,sans-Serif" font-size="8.00">WilsonCoefficient</text>
</a>
</g>
</g>
<!-- Node4&#45;&gt;Node1 -->
<g id="edge3" class="edge"><title>Node4&#45;&gt;Node1</title>
<path fill="none" stroke="#9a32cd" stroke-dasharray="5,2" d="M316.085,-206.229C339.392,-204.885 367.38,-203.272 390.998,-201.911"/>
<polygon fill="#9a32cd" stroke="#9a32cd" points="315.857,-202.736 306.075,-206.805 316.26,-209.724 315.857,-202.736"/>
<text text-anchor="middle" x="351" y="-298.6" font-family="Helvetica,sans-Serif" font-size="8.00"> mcBMll</text>
<text text-anchor="middle" x="351" y="-289.6" font-family="Helvetica,sans-Serif" font-size="8.00">mcprimebsg</text>
<text text-anchor="middle" x="351" y="-280.6" font-family="Helvetica,sans-Serif" font-size="8.00">mcdk2</text>
<text text-anchor="middle" x="351" y="-271.6" font-family="Helvetica,sans-Serif" font-size="8.00">mcmueconv</text>
<text text-anchor="middle" x="351" y="-262.6" font-family="Helvetica,sans-Serif" font-size="8.00">mcbnlep</text>
<text text-anchor="middle" x="351" y="-253.6" font-family="Helvetica,sans-Serif" font-size="8.00">mcdbd2</text>
<text text-anchor="middle" x="351" y="-244.6" font-family="Helvetica,sans-Serif" font-size="8.00">mcbsmm</text>
<text text-anchor="middle" x="351" y="-235.6" font-family="Helvetica,sans-Serif" font-size="8.00">mcbsnn</text>
<text text-anchor="middle" x="351" y="-226.6" font-family="Helvetica,sans-Serif" font-size="8.00">mcd1</text>
<text text-anchor="middle" x="351" y="-217.6" font-family="Helvetica,sans-Serif" font-size="8.00">mcbnlepCC</text>
<text text-anchor="middle" x="351" y="-208.6" font-family="Helvetica,sans-Serif" font-size="8.00">...</text>
</g>
<!-- Node5 -->
<g id="node5" class="node"><title>Node5</title>
<g id="a_node5"><a xlink:href="../../dd/d6f/class_wilson_template.html" target="_top" xlink:title="WilsonTemplate\&lt; gslpp\l::vector\&lt; gslpp::complex \&gt; \&gt;">
<polygon fill="none" stroke="red" points="0,-196 0,-222 117,-222 117,-196 0,-196"/>
<text text-anchor="start" x="8" y="-211.6" font-family="Helvetica,sans-Serif" font-size="8.00">WilsonTemplate&lt; gslpp</text>
<text text-anchor="middle" x="58.5" y="-202.6" font-family="Helvetica,sans-Serif" font-size="8.00">::vector&lt; gslpp::complex &gt; &gt;</text>
</a>
</g>
</g>
<!-- Node5&#45;&gt;Node4 -->
<g id="edge4" class="edge"><title>Node5&#45;&gt;Node4</title>
<path fill="none" stroke="midnightblue" d="M127.174,-209C160.531,-209 199.532,-209 227.688,-209"/>
<polygon fill="midnightblue" stroke="midnightblue" points="127.022,-205.5 117.022,-209 127.022,-212.5 127.022,-205.5"/>
</g>
<!-- Node6 -->
<g id="node6" class="node"><title>Node6</title>
<g id="a_node6"><a xlink:href="../../d1/d3c/classgslpp_1_1matrix.html" target="_top" xlink:title="gslpp::matrix\&lt; gslpp\l::complex \&gt;">
<polygon fill="none" stroke="black" points="223,-58 223,-84 311,-84 311,-58 223,-58"/>
<text text-anchor="start" x="231" y="-73.6" font-family="Helvetica,sans-Serif" font-size="8.00">gslpp::matrix&lt; gslpp</text>
<text text-anchor="middle" x="267" y="-64.6" font-family="Helvetica,sans-Serif" font-size="8.00">::complex &gt;</text>
</a>
</g>
</g>
<!-- Node6&#45;&gt;Node1 -->
<g id="edge5" class="edge"><title>Node6&#45;&gt;Node1</title>
<path fill="none" stroke="#9a32cd" stroke-dasharray="5,2" d="M292.021,-90.458C316.509,-110.078 355.793,-140.959 391,-166 403.119,-174.62 417.332,-183.83 427.586,-190.324"/>
<polygon fill="#9a32cd" stroke="#9a32cd" points="293.994,-87.5536 284.007,-84.016 289.608,-93.0093 293.994,-87.5536"/>
<text text-anchor="middle" x="351" y="-154.6" font-family="Helvetica,sans-Serif" font-size="8.00"> Vckm</text>
</g>
<!-- Node6&#45;&gt;Node8 -->
<g id="edge13" class="edge"><title>Node6&#45;&gt;Node8</title>
<path fill="none" stroke="#9a32cd" stroke-dasharray="5,2" d="M321.274,-74.4126C367.308,-77.9507 435.462,-84.6025 494,-96 546.37,-106.197 606.069,-124.62 639.108,-135.435"/>
<polygon fill="#9a32cd" stroke="#9a32cd" points="321.456,-70.9165 311.223,-73.6626 320.935,-77.8971 321.456,-70.9165"/>
<text text-anchor="middle" x="442.5" y="-143.6" font-family="Helvetica,sans-Serif" font-size="8.00"> VCKM</text>
<text text-anchor="middle" x="442.5" y="-134.6" font-family="Helvetica,sans-Serif" font-size="8.00">UPMNS</text>
<text text-anchor="middle" x="442.5" y="-125.6" font-family="Helvetica,sans-Serif" font-size="8.00">Yn</text>
<text text-anchor="middle" x="442.5" y="-116.6" font-family="Helvetica,sans-Serif" font-size="8.00">Yd</text>
<text text-anchor="middle" x="442.5" y="-107.6" font-family="Helvetica,sans-Serif" font-size="8.00">Yu</text>
<text text-anchor="middle" x="442.5" y="-98.6" font-family="Helvetica,sans-Serif" font-size="8.00">Ye</text>
</g>
<!-- Node7 -->
<g id="node7" class="node"><title>Node7</title>
<g id="a_node7"><a xlink:href="../../d1/d3c/classgslpp_1_1matrix.html" target="_top" xlink:title="A base class for defining operations on matrices, both real and complex. ">
<polygon fill="none" stroke="black" points="18,-62.5 18,-79.5 99,-79.5 99,-62.5 18,-62.5"/>
<text text-anchor="middle" x="58.5" y="-69.1" font-family="Helvetica,sans-Serif" font-size="8.00">gslpp::matrix&lt; T &gt;</text>
</a>
</g>
</g>
<!-- Node7&#45;&gt;Node6 -->
<g id="edge6" class="edge"><title>Node7&#45;&gt;Node6</title>
<path fill="none" stroke="orange" stroke-dasharray="5,2" d="M109.672,-71C144.257,-71 189.755,-71 222.742,-71"/>
<polygon fill="orange" stroke="orange" points="109.315,-67.5001 99.3153,-71 109.315,-74.5001 109.315,-67.5001"/>
<text text-anchor="middle" x="170" y="-73.6" font-family="Helvetica,sans-Serif" font-size="8.00"> &lt; gslpp::complex &gt;</text>
</g>
<!-- Node8&#45;&gt;Node1 -->
<g id="edge7" class="edge"><title>Node8&#45;&gt;Node1</title>
<path fill="none" stroke="#9a32cd" stroke-dasharray="5,2" d="M649.829,-160.27C640.123,-169.859 626.539,-181.215 612,-187 574.531,-201.908 528.702,-204.263 494.303,-203.25"/>
<polygon fill="#9a32cd" stroke="#9a32cd" points="652.608,-162.429 657.007,-152.791 647.557,-157.582 652.608,-162.429"/>
<text text-anchor="middle" x="562" y="-206.6" font-family="Helvetica,sans-Serif" font-size="8.00"> SM</text>
</g>
<!-- Node10 -->
<g id="node10" class="node"><title>Node10</title>
<g id="a_node10"><a xlink:href="../../dc/df3/class_e_w_s_mcache.html" target="_top" xlink:title="A class for cache variables used in computing radiative corrections to the EW precision observables...">
<polygon fill="none" stroke="red" points="797,-135.5 797,-152.5 860,-152.5 860,-135.5 797,-135.5"/>
<text text-anchor="middle" x="828.5" y="-142.1" font-family="Helvetica,sans-Serif" font-size="8.00">EWSMcache</text>
</a>
</g>
</g>
<!-- Node8&#45;&gt;Node10 -->
<g id="edge10" class="edge"><title>Node8&#45;&gt;Node10</title>
<path fill="none" stroke="#9a32cd" stroke-dasharray="5,2" d="M711.118,-144C738.393,-144 772.577,-144 796.823,-144"/>
<polygon fill="#9a32cd" stroke="#9a32cd" points="711.039,-140.5 701.039,-144 711.039,-147.5 711.039,-140.5"/>
<text text-anchor="middle" x="749" y="-146.6" font-family="Helvetica,sans-Serif" font-size="8.00"> SM</text>
</g>
<!-- Node9 -->
<g id="node9" class="node"><title>Node9</title>
<g id="a_node9"><a xlink:href="../../dd/dfa/class_q_c_d.html" target="_top" xlink:title="A class for parameters related to QCD, hadrons and quarks. ">
<polygon fill="none" stroke="red" points="425.5,-0.5 425.5,-17.5 459.5,-17.5 459.5,-0.5 425.5,-0.5"/>
<text text-anchor="middle" x="442.5" y="-7.1" font-family="Helvetica,sans-Serif" font-size="8.00">QCD</text>
</a>
</g>
</g>
<!-- Node9&#45;&gt;Node8 -->
<g id="edge8" class="edge"><title>Node9&#45;&gt;Node8</title>
<path fill="none" stroke="midnightblue" d="M469.865,-7.01414C505.643,-5.71614 569.921,-8.49843 612,-40 644.706,-64.4849 658.485,-115.082 662.843,-135.338"/>
<polygon fill="midnightblue" stroke="midnightblue" points="469.546,-3.52564 459.733,-7.52068 469.895,-10.5169 469.546,-3.52564"/>
</g>
<!-- Node10&#45;&gt;Node8 -->
<g id="edge9" class="edge"><title>Node10&#45;&gt;Node8</title>
<path fill="none" stroke="#9a32cd" stroke-dasharray="5,2" d="M794.865,-132.455C789.62,-131.022 784.204,-129.786 779,-129 752.633,-125.016 745.409,-125.301 719,-129 709.706,-130.302 699.749,-132.84 691.032,-135.463"/>
<polygon fill="#9a32cd" stroke="#9a32cd" points="794.056,-135.866 804.64,-135.386 796.067,-129.161 794.056,-135.866"/>
<text text-anchor="middle" x="749" y="-131.6" font-family="Helvetica,sans-Serif" font-size="8.00"> myEWSMcache</text>
</g>
</g>
</svg>
