<?xml version="1.0" encoding="UTF-8" standalone="no"?>
<!DOCTYPE svg PUBLIC "-//W3C//DTD SVG 1.1//EN"
 "http://www.w3.org/Graphics/SVG/1.1/DTD/svg11.dtd">
<!-- Generated by graphviz version 2.38.0 (20140413.2041)
 -->
<!-- Title: DeltaU Pages: 1 -->
<svg width="411pt" height="513pt"
 viewBox="0.00 0.00 411.05 513.00" xmlns="http://www.w3.org/2000/svg" xmlns:xlink="http://www.w3.org/1999/xlink">
<g id="graph0" class="graph" transform="scale(1 1) rotate(0) translate(4 509)">
<title>DeltaU</title>
<!-- Node1 -->
<g id="node1" class="node"><title>Node1</title>
<polygon fill="#bfbfbf" stroke="black" points="129.549,-0.5 129.549,-17.5 170.549,-17.5 170.549,-0.5 129.549,-0.5"/>
<text text-anchor="middle" x="150.049" y="-7.1" font-family="Helvetica,sans-Serif" font-size="8.00">DeltaU</text>
</g>
<!-- Node2 -->
<g id="node2" class="node"><title>Node2</title>
<g id="a_node2"><a xlink:href="../../d7/d0f/class_s_t_u.html" target="_top" xlink:title="An observable class for the electroweak Peskin&#45;Takeuchi pseudo&#45;observables. ">
<polygon fill="none" stroke="black" points="125.549,-118.5 125.549,-135.5 158.549,-135.5 158.549,-118.5 125.549,-118.5"/>
<text text-anchor="middle" x="142.049" y="-125.1" font-family="Helvetica,sans-Serif" font-size="8.00">STU</text>
</a>
</g>
</g>
<!-- Node2&#45;&gt;Node1 -->
<g id="edge1" class="edge"><title>Node2&#45;&gt;Node1</title>
<path fill="none" stroke="midnightblue" d="M143.275,-108.226C145.046,-82.5528 148.245,-36.1592 149.512,-17.7912"/>
<polygon fill="midnightblue" stroke="midnightblue" points="139.771,-108.172 142.574,-118.389 146.754,-108.653 139.771,-108.172"/>
</g>
<!-- Node10 -->
<g id="node10" class="node"><title>Node10</title>
<g id="a_node10"><a xlink:href="../../d7/dea/class_delta_s.html" target="_top" xlink:title="DeltaS">
<polygon fill="none" stroke="black" points="158.549,-63.5 158.549,-80.5 199.549,-80.5 199.549,-63.5 158.549,-63.5"/>
<text text-anchor="middle" x="179.049" y="-70.1" font-family="Helvetica,sans-Serif" font-size="8.00">DeltaS</text>
</a>
</g>
</g>
<!-- Node2&#45;&gt;Node10 -->
<g id="edge13" class="edge"><title>Node2&#45;&gt;Node10</title>
<path fill="none" stroke="midnightblue" d="M153.413,-109.723C160.21,-99.9856 168.527,-88.0731 173.807,-80.5092"/>
<polygon fill="midnightblue" stroke="midnightblue" points="150.363,-107.977 147.509,-118.18 156.103,-111.984 150.363,-107.977"/>
</g>
<!-- Node3 -->
<g id="node3" class="node"><title>Node3</title>
<g id="a_node3"><a xlink:href="../../dc/d1f/class_th_observable.html" target="_top" xlink:title="A class for a model prediction of an observable. ">
<polygon fill="none" stroke="black" points="36.5495,-181.5 36.5495,-198.5 103.549,-198.5 103.549,-181.5 36.5495,-181.5"/>
<text text-anchor="middle" x="70.0495" y="-188.1" font-family="Helvetica,sans-Serif" font-size="8.00">ThObservable</text>
</a>
</g>
</g>
<!-- Node3&#45;&gt;Node2 -->
<g id="edge2" class="edge"><title>Node3&#45;&gt;Node2</title>
<path fill="none" stroke="midnightblue" d="M86.8252,-174.787C101.138,-162.661 121.188,-145.674 132.777,-135.856"/>
<polygon fill="midnightblue" stroke="midnightblue" points="84.5357,-172.14 79.1683,-181.274 89.0607,-177.481 84.5357,-172.14"/>
</g>
<!-- Node4 -->
<g id="node4" class="node"><title>Node4</title>
<g id="a_node4"><a xlink:href="../../dc/dd5/class_standard_model.html" target="_top" xlink:title="A model class for the Standard Model. ">
<polygon fill="none" stroke="red" points="34.5495,-244.5 34.5495,-261.5 105.549,-261.5 105.549,-244.5 34.5495,-244.5"/>
<text text-anchor="middle" x="70.0495" y="-251.1" font-family="Helvetica,sans-Serif" font-size="8.00">StandardModel</text>
</a>
</g>
</g>
<!-- Node4&#45;&gt;Node3 -->
<g id="edge3" class="edge"><title>Node4&#45;&gt;Node3</title>
<path fill="none" stroke="#9a32cd" stroke-dasharray="5,2" d="M70.0495,-234.27C70.0495,-222.549 70.0495,-207.757 70.0495,-198.856"/>
<polygon fill="#9a32cd" stroke="#9a32cd" points="66.5496,-234.274 70.0495,-244.274 73.5496,-234.274 66.5496,-234.274"/>
<text text-anchor="middle" x="77.5495" y="-219.6" font-family="Helvetica,sans-Serif" font-size="8.00"> SM</text>
</g>
<!-- Node9 -->
<g id="node9" class="node"><title>Node9</title>
<g id="a_node9"><a xlink:href="../../d0/d52/class_t_h_d_m.html" target="_top" xlink:title="A base class &#160;symmetric Two&#45;Higgs&#45;Doublet models. ">
<polygon fill="none" stroke="red" points="122.049,-181.5 122.049,-198.5 162.049,-198.5 162.049,-181.5 122.049,-181.5"/>
<text text-anchor="middle" x="142.049" y="-188.1" font-family="Helvetica,sans-Serif" font-size="8.00">THDM</text>
</a>
</g>
</g>
<!-- Node4&#45;&gt;Node9 -->
<g id="edge10" class="edge"><title>Node4&#45;&gt;Node9</title>
<path fill="none" stroke="midnightblue" d="M86.8252,-237.787C101.138,-225.661 121.188,-208.674 132.777,-198.856"/>
<polygon fill="midnightblue" stroke="midnightblue" points="84.5357,-235.14 79.1683,-244.274 89.0607,-240.481 84.5357,-235.14"/>
</g>
<!-- Node5 -->
<g id="node5" class="node"><title>Node5</title>
<g id="a_node5"><a xlink:href="../../dd/d9b/classgslpp_1_1complex.html" target="_top" xlink:title="A class for defining operations on and functions of complex numbers. ">
<polygon fill="none" stroke="black" points="35.0495,-487.5 35.0495,-504.5 105.049,-504.5 105.049,-487.5 35.0495,-487.5"/>
<text text-anchor="middle" x="70.0495" y="-494.1" font-family="Helvetica,sans-Serif" font-size="8.00">gslpp::complex</text>
</a>
</g>
</g>
<!-- Node5&#45;&gt;Node4 -->
<g id="edge4" class="edge"><title>Node5&#45;&gt;Node4</title>
<path fill="none" stroke="#9a32cd" stroke-dasharray="5,2" d="M41.7656,-481.839C37.0587,-478.349 32.8149,-474.096 30.0495,-469 -10.0165,-395.171 -10.0165,-353.829 30.0495,-280 34.4741,-271.847 42.6834,-265.851 50.519,-261.686"/>
<polygon fill="#9a32cd" stroke="#9a32cd" points="40.1848,-484.978 50.519,-487.314 43.8971,-479.044 40.1848,-484.978"/>
<text text-anchor="middle" x="60.0495" y="-377.1" font-family="Helvetica,sans-Serif" font-size="8.00"> rhoZ_f_cache</text>
<text text-anchor="middle" x="60.0495" y="-368.1" font-family="Helvetica,sans-Serif" font-size="8.00">kappaZ_f_cache</text>
</g>
<!-- Node6 -->
<g id="node6" class="node"><title>Node6</title>
<g id="a_node6"><a xlink:href="../../d5/df2/class_t_h_d_mcache.html" target="_top" xlink:title="A class for the caching of some THDM objects. ">
<polygon fill="none" stroke="black" points="167.549,-244.5 167.549,-261.5 228.549,-261.5 228.549,-244.5 167.549,-244.5"/>
<text text-anchor="middle" x="198.049" y="-251.1" font-family="Helvetica,sans-Serif" font-size="8.00">THDMcache</text>
</a>
</g>
</g>
<!-- Node5&#45;&gt;Node6 -->
<g id="edge7" class="edge"><title>Node5&#45;&gt;Node6</title>
<path fill="none" stroke="#9a32cd" stroke-dasharray="5,2" d="M84.4549,-479.066C86.6613,-475.914 88.6625,-472.493 90.0495,-469 105.626,-429.767 82.0702,-312.465 109.049,-280 123.145,-263.039 147.642,-256.785 167.372,-254.636"/>
<polygon fill="#9a32cd" stroke="#9a32cd" points="81.5542,-477.089 78.0321,-487.081 87.0167,-481.466 81.5542,-477.089"/>
<text text-anchor="start" x="109.049" y="-462.6" font-family="Helvetica,sans-Serif" font-size="8.00"> B00_MZ2_MZ2_mHl2_mA2</text>
<text text-anchor="middle" x="161.549" y="-453.6" font-family="Helvetica,sans-Serif" font-size="8.00">_cache</text>
<text text-anchor="start" x="109.049" y="-444.6" font-family="Helvetica,sans-Serif" font-size="8.00">B00_MZ2_MW2_MW2_mHl2</text>
<text text-anchor="middle" x="161.549" y="-435.6" font-family="Helvetica,sans-Serif" font-size="8.00">_cache</text>
<text text-anchor="start" x="109.049" y="-426.6" font-family="Helvetica,sans-Serif" font-size="8.00">B00_MZ2_0_MW2_mHl2</text>
<text text-anchor="middle" x="161.549" y="-417.6" font-family="Helvetica,sans-Serif" font-size="8.00">_cache</text>
<text text-anchor="start" x="109.049" y="-408.6" font-family="Helvetica,sans-Serif" font-size="8.00">B00_MZ2_0_mHl2_mHp2</text>
<text text-anchor="middle" x="161.549" y="-399.6" font-family="Helvetica,sans-Serif" font-size="8.00">_cache</text>
<text text-anchor="start" x="109.049" y="-390.6" font-family="Helvetica,sans-Serif" font-size="8.00">B0_MZ2_0_MZ2_mHl2</text>
<text text-anchor="middle" x="161.549" y="-381.6" font-family="Helvetica,sans-Serif" font-size="8.00">_cache</text>
<text text-anchor="start" x="109.049" y="-372.6" font-family="Helvetica,sans-Serif" font-size="8.00">B00_MZ2_MW2_mHh2</text>
<text text-anchor="middle" x="161.549" y="-363.6" font-family="Helvetica,sans-Serif" font-size="8.00">_mHp2_cache</text>
<text text-anchor="start" x="109.049" y="-354.6" font-family="Helvetica,sans-Serif" font-size="8.00">B00_MZ2_0_mHh2_mA2</text>
<text text-anchor="middle" x="161.549" y="-345.6" font-family="Helvetica,sans-Serif" font-size="8.00">_cache</text>
<text text-anchor="start" x="109.049" y="-336.6" font-family="Helvetica,sans-Serif" font-size="8.00">B00_MZ2_MZ2_mHh2</text>
<text text-anchor="middle" x="161.549" y="-327.6" font-family="Helvetica,sans-Serif" font-size="8.00">_mA2_cache</text>
<text text-anchor="start" x="109.049" y="-318.6" font-family="Helvetica,sans-Serif" font-size="8.00">B00_MZ2_0_mHh2_mHp2</text>
<text text-anchor="middle" x="161.549" y="-309.6" font-family="Helvetica,sans-Serif" font-size="8.00">_cache</text>
<text text-anchor="start" x="109.049" y="-300.6" font-family="Helvetica,sans-Serif" font-size="8.00">B0_MZ2_MW2_MW2_mHl2</text>
<text text-anchor="middle" x="161.549" y="-291.6" font-family="Helvetica,sans-Serif" font-size="8.00">_cache</text>
<text text-anchor="middle" x="161.549" y="-282.6" font-family="Helvetica,sans-Serif" font-size="8.00">...</text>
</g>
<!-- Node6&#45;&gt;Node2 -->
<g id="edge5" class="edge"><title>Node6&#45;&gt;Node2</title>
<path fill="none" stroke="#9a32cd" stroke-dasharray="5,2" d="M199.28,-234.121C199.839,-213.214 197.952,-178.372 182.049,-154 176.528,-145.537 167.184,-139.236 158.916,-134.958"/>
<polygon fill="#9a32cd" stroke="#9a32cd" points="195.77,-234.231 198.773,-244.392 202.762,-234.576 195.77,-234.231"/>
<text text-anchor="middle" x="215.549" y="-188.1" font-family="Helvetica,sans-Serif" font-size="8.00"> mycache</text>
</g>
<!-- Node6&#45;&gt;Node9 -->
<g id="edge11" class="edge"><title>Node6&#45;&gt;Node9</title>
<path fill="none" stroke="#9a32cd" stroke-dasharray="5,2" d="M165.227,-239.815C159.075,-236.204 153.262,-231.656 149.049,-226 143.127,-218.048 141.873,-206.364 141.766,-198.72"/>
<polygon fill="#9a32cd" stroke="#9a32cd" points="163.838,-243.035 174.337,-244.454 167.014,-236.797 163.838,-243.035"/>
<text text-anchor="middle" x="166.549" y="-219.6" font-family="Helvetica,sans-Serif" font-size="8.00"> mycache</text>
</g>
<!-- Node7 -->
<g id="node7" class="node"><title>Node7</title>
<g id="a_node7"><a xlink:href="../../d4/d7b/class_p_vfunctions.html" target="_top" xlink:title="A class for Passarino&#45;Veltman functions. ">
<polygon fill="none" stroke="red" points="210.549,-487.5 210.549,-504.5 269.549,-504.5 269.549,-487.5 210.549,-487.5"/>
<text text-anchor="middle" x="240.049" y="-494.1" font-family="Helvetica,sans-Serif" font-size="8.00">PVfunctions</text>
</a>
</g>
</g>
<!-- Node7&#45;&gt;Node6 -->
<g id="edge6" class="edge"><title>Node7&#45;&gt;Node6</title>
<path fill="none" stroke="#9a32cd" stroke-dasharray="5,2" d="M241.448,-476.78C243.683,-438.709 245.347,-348.575 218.049,-280 215.354,-273.227 210.354,-266.727 206.028,-261.921"/>
<polygon fill="#9a32cd" stroke="#9a32cd" points="237.925,-477.004 240.739,-487.218 244.909,-477.479 237.925,-477.004"/>
<text text-anchor="middle" x="249.549" y="-372.6" font-family="Helvetica,sans-Serif" font-size="8.00"> PV</text>
</g>
<!-- Node8 -->
<g id="node8" class="node"><title>Node8</title>
<g id="a_node8"><a xlink:href="../../d7/d10/classgslpp_1_1matrix_3_01double_01_4.html" target="_top" xlink:title="A class for constructing and defining operations on real matrices. ">
<polygon fill="none" stroke="black" points="288.049,-487.5 288.049,-504.5 388.049,-504.5 388.049,-487.5 288.049,-487.5"/>
<text text-anchor="middle" x="338.049" y="-494.1" font-family="Helvetica,sans-Serif" font-size="8.00">gslpp::matrix&lt; double &gt;</text>
</a>
</g>
</g>
<!-- Node8&#45;&gt;Node6 -->
<g id="edge8" class="edge"><title>Node8&#45;&gt;Node6</title>
<path fill="none" stroke="#9a32cd" stroke-dasharray="5,2" d="M336.363,-477.035C331.654,-436.62 314.874,-337.582 260.049,-280 251.679,-271.209 239.877,-265.269 228.813,-261.315"/>
<polygon fill="#9a32cd" stroke="#9a32cd" points="332.904,-477.614 337.429,-487.194 339.866,-476.883 332.904,-477.614"/>
<text text-anchor="middle" x="369.049" y="-431.1" font-family="Helvetica,sans-Serif" font-size="8.00"> cs_ggA_bb</text>
<text text-anchor="middle" x="369.049" y="-422.1" font-family="Helvetica,sans-Serif" font-size="8.00">br_mumu</text>
<text text-anchor="middle" x="369.049" y="-413.1" font-family="Helvetica,sans-Serif" font-size="8.00">br_tautau</text>
<text text-anchor="middle" x="369.049" y="-404.1" font-family="Helvetica,sans-Serif" font-size="8.00">arraybsgamma</text>
<text text-anchor="start" x="335.049" y="-395.1" font-family="Helvetica,sans-Serif" font-size="8.00">ATLAS_ggF_A_hZ</text>
<text text-anchor="middle" x="369.049" y="-386.1" font-family="Helvetica,sans-Serif" font-size="8.00">_bbZ</text>
<text text-anchor="middle" x="369.049" y="-377.1" font-family="Helvetica,sans-Serif" font-size="8.00">cs_ggA</text>
<text text-anchor="start" x="335.049" y="-368.1" font-family="Helvetica,sans-Serif" font-size="8.00">ATLAS_ggF_phi</text>
<text text-anchor="middle" x="369.049" y="-359.1" font-family="Helvetica,sans-Serif" font-size="8.00">_gaga</text>
<text text-anchor="start" x="335.049" y="-350.1" font-family="Helvetica,sans-Serif" font-size="8.00">ATLAS_pp_phi</text>
<text text-anchor="middle" x="369.049" y="-341.1" font-family="Helvetica,sans-Serif" font-size="8.00">_tt</text>
<text text-anchor="middle" x="369.049" y="-332.1" font-family="Helvetica,sans-Serif" font-size="8.00">cs_ggH_tt</text>
<text text-anchor="middle" x="369.049" y="-323.1" font-family="Helvetica,sans-Serif" font-size="8.00">pc_ZH</text>
<text text-anchor="middle" x="369.049" y="-314.1" font-family="Helvetica,sans-Serif" font-size="8.00">...</text>
</g>
<!-- Node9&#45;&gt;Node2 -->
<g id="edge9" class="edge"><title>Node9&#45;&gt;Node2</title>
<path fill="none" stroke="#9a32cd" stroke-dasharray="5,2" d="M142.049,-171.27C142.049,-159.549 142.049,-144.757 142.049,-135.856"/>
<polygon fill="#9a32cd" stroke="#9a32cd" points="138.55,-171.274 142.049,-181.274 145.55,-171.274 138.55,-171.274"/>
<text text-anchor="middle" x="160.049" y="-156.6" font-family="Helvetica,sans-Serif" font-size="8.00"> myTHDM</text>
</g>
<!-- Node10&#45;&gt;Node1 -->
<g id="edge12" class="edge"><title>Node10&#45;&gt;Node1</title>
<path fill="none" stroke="#9a32cd" stroke-dasharray="5,2" d="M170.963,-53.9908C165.339,-42.161 158.103,-26.9402 153.784,-17.8556"/>
<polygon fill="#9a32cd" stroke="#9a32cd" points="167.922,-55.7457 175.377,-63.2743 174.244,-52.7402 167.922,-55.7457"/>
<text text-anchor="middle" x="185.549" y="-38.6" font-family="Helvetica,sans-Serif" font-size="8.00"> myDeltaS</text>
</g>
</g>
</svg>
