<?xml version="1.0" encoding="UTF-8" standalone="no"?>
<!DOCTYPE svg PUBLIC "-//W3C//DTD SVG 1.1//EN"
 "http://www.w3.org/Graphics/SVG/1.1/DTD/svg11.dtd">
<!-- Generated by graphviz version 2.40.1 (20161225.0304)
 -->
<!-- Title: GeneralSUSY.h Pages: 1 -->
<svg width="304pt" height="404pt"
 viewBox="0.00 0.00 304.35 404.00" xmlns="http://www.w3.org/2000/svg" xmlns:xlink="http://www.w3.org/1999/xlink">
<g id="graph0" class="graph" transform="scale(1 1) rotate(0) translate(4 400)">
<title>GeneralSUSY.h</title>
<!-- Node0 -->
<g id="node1" class="node">
<title>Node0</title>
<polygon fill="#bfbfbf" stroke="#000000" points="73.7878,-378.5 73.7878,-395.5 146.7878,-395.5 146.7878,-378.5 73.7878,-378.5"/>
<text text-anchor="middle" x="110.2878" y="-385.1" font-family="Helvetica,sans-Serif" font-size="8.00" fill="#000000">GeneralSUSY.h</text>
</g>
<!-- Node1 -->
<g id="node2" class="node">
<title>Node1</title>
<g id="a_node2"><a xlink:href="../../d5/d37/_s_u_s_y_8h.html" target="_top" xlink:title="SUSY.h">
<polygon fill="none" stroke="#000000" points="87.7878,-324.5 87.7878,-341.5 132.7878,-341.5 132.7878,-324.5 87.7878,-324.5"/>
<text text-anchor="middle" x="110.2878" y="-331.1" font-family="Helvetica,sans-Serif" font-size="8.00" fill="#000000">SUSY.h</text>
</a>
</g>
</g>
<!-- Node0&#45;&gt;Node1 -->
<g id="edge1" class="edge">
<title>Node0&#45;&gt;Node1</title>
<path fill="none" stroke="#191970" d="M110.2878,-378.083C110.2878,-371.0059 110.2878,-360.8611 110.2878,-351.9865"/>
<polygon fill="#191970" stroke="#191970" points="113.7879,-351.751 110.2878,-341.7511 106.7879,-351.7511 113.7879,-351.751"/>
</g>
<!-- Node2 -->
<g id="node3" class="node">
<title>Node2</title>
<g id="a_node3"><a xlink:href="../../d9/d72/gslpp_8h.html" target="_top" xlink:title="gslpp.h">
<polygon fill="none" stroke="#ff0000" points="55.2878,-216.5 55.2878,-233.5 97.2878,-233.5 97.2878,-216.5 55.2878,-216.5"/>
<text text-anchor="middle" x="76.2878" y="-223.1" font-family="Helvetica,sans-Serif" font-size="8.00" fill="#000000">gslpp.h</text>
</a>
</g>
</g>
<!-- Node1&#45;&gt;Node2 -->
<g id="edge2" class="edge">
<title>Node1&#45;&gt;Node2</title>
<path fill="none" stroke="#191970" d="M95.9177,-324.3302C84.4079,-316.4694 69.0991,-303.7221 62.2878,-288 56.032,-273.5601 60.8548,-256.0012 66.4828,-243.0924"/>
<polygon fill="#191970" stroke="#191970" points="69.7354,-244.4075 70.9727,-233.8851 63.4437,-241.3392 69.7354,-244.4075"/>
</g>
<!-- Node18 -->
<g id="node9" class="node">
<title>Node18</title>
<g id="a_node9"><a xlink:href="../../d6/d0a/_standard_model_8h.html" target="_top" xlink:title="StandardModel.h">
<polygon fill="none" stroke="#ff0000" points="166.7878,-270.5 166.7878,-287.5 243.7878,-287.5 243.7878,-270.5 166.7878,-270.5"/>
<text text-anchor="middle" x="205.2878" y="-277.1" font-family="Helvetica,sans-Serif" font-size="8.00" fill="#000000">StandardModel.h</text>
</a>
</g>
</g>
<!-- Node1&#45;&gt;Node18 -->
<g id="edge18" class="edge">
<title>Node1&#45;&gt;Node18</title>
<path fill="none" stroke="#191970" d="M125.5512,-324.324C140.5092,-315.8215 163.5426,-302.7288 181.0145,-292.7975"/>
<polygon fill="#191970" stroke="#191970" points="183.0982,-295.639 190.0623,-287.6545 179.639,-289.5534 183.0982,-295.639"/>
</g>
<!-- Node50 -->
<g id="node10" class="node">
<title>Node50</title>
<g id="a_node10"><a xlink:href="../../dd/dc9/_s_u_s_y_matching_8h.html" target="_top" xlink:title="SUSYMatching.h">
<polygon fill="none" stroke="#ff0000" points="71.7878,-270.5 71.7878,-287.5 148.7878,-287.5 148.7878,-270.5 71.7878,-270.5"/>
<text text-anchor="middle" x="110.2878" y="-277.1" font-family="Helvetica,sans-Serif" font-size="8.00" fill="#000000">SUSYMatching.h</text>
</a>
</g>
</g>
<!-- Node1&#45;&gt;Node50 -->
<g id="edge19" class="edge">
<title>Node1&#45;&gt;Node50</title>
<path fill="none" stroke="#191970" d="M110.2878,-324.083C110.2878,-317.0059 110.2878,-306.8611 110.2878,-297.9865"/>
<polygon fill="#191970" stroke="#191970" points="113.7879,-297.751 110.2878,-287.7511 106.7879,-297.7511 113.7879,-297.751"/>
</g>
<!-- Node3 -->
<g id="node4" class="node">
<title>Node3</title>
<g id="a_node4"><a xlink:href="../../d1/dc2/gslpp__complex_8h.html" target="_top" xlink:title="gslpp_complex.h">
<polygon fill="none" stroke="#ff0000" points="114.7878,-.5 114.7878,-17.5 191.7878,-17.5 191.7878,-.5 114.7878,-.5"/>
<text text-anchor="middle" x="153.2878" y="-7.1" font-family="Helvetica,sans-Serif" font-size="8.00" fill="#000000">gslpp_complex.h</text>
</a>
</g>
</g>
<!-- Node2&#45;&gt;Node3 -->
<g id="edge3" class="edge">
<title>Node2&#45;&gt;Node3</title>
<path fill="none" stroke="#191970" d="M67.7527,-216.3909C42.5516,-189.9233 -27.354,-108.2634 12.2878,-54 23.4412,-38.7327 68.3667,-26.1477 104.5501,-18.2063"/>
<polygon fill="#191970" stroke="#191970" points="105.4361,-21.5962 114.4885,-16.0912 103.9789,-14.7495 105.4361,-21.5962"/>
</g>
<!-- Node7 -->
<g id="node5" class="node">
<title>Node7</title>
<g id="a_node5"><a xlink:href="../../da/d8e/gslpp__vector__double_8h.html" target="_top" xlink:title="gslpp_vector_double.h">
<polygon fill="none" stroke="#ff0000" points="181.7878,-54.5 181.7878,-71.5 278.7878,-71.5 278.7878,-54.5 181.7878,-54.5"/>
<text text-anchor="middle" x="230.2878" y="-61.1" font-family="Helvetica,sans-Serif" font-size="8.00" fill="#000000">gslpp_vector_double.h</text>
</a>
</g>
</g>
<!-- Node2&#45;&gt;Node7 -->
<g id="edge4" class="edge">
<title>Node2&#45;&gt;Node7</title>
<path fill="none" stroke="#191970" d="M97.3784,-223.4578C126.6123,-220.2331 179.4379,-210.322 211.2878,-180 237.9032,-154.6614 236.6322,-107.7427 233.4289,-81.6798"/>
<polygon fill="#191970" stroke="#191970" points="236.8681,-81.0084 231.9639,-71.617 229.9411,-82.0169 236.8681,-81.0084"/>
</g>
<!-- Node10 -->
<g id="node6" class="node">
<title>Node10</title>
<g id="a_node6"><a xlink:href="../../da/dad/gslpp__vector__complex_8h.html" target="_top" xlink:title="gslpp_vector_complex.h">
<polygon fill="none" stroke="#ff0000" points="21.7878,-54.5 21.7878,-71.5 124.7878,-71.5 124.7878,-54.5 21.7878,-54.5"/>
<text text-anchor="middle" x="73.2878" y="-61.1" font-family="Helvetica,sans-Serif" font-size="8.00" fill="#000000">gslpp_vector_complex.h</text>
</a>
</g>
</g>
<!-- Node2&#45;&gt;Node10 -->
<g id="edge6" class="edge">
<title>Node2&#45;&gt;Node10</title>
<path fill="none" stroke="#191970" d="M76.1265,-216.2902C75.6585,-191.0185 74.2923,-117.2423 73.641,-82.0737"/>
<polygon fill="#191970" stroke="#191970" points="77.1346,-81.6863 73.4499,-71.7529 70.1358,-81.816 77.1346,-81.6863"/>
</g>
<!-- Node12 -->
<g id="node7" class="node">
<title>Node12</title>
<g id="a_node7"><a xlink:href="../../d0/ddb/gslpp__matrix__double_8h.html" target="_top" xlink:title="gslpp_matrix_double.h">
<polygon fill="none" stroke="#ff0000" points="104.7878,-162.5 104.7878,-179.5 201.7878,-179.5 201.7878,-162.5 104.7878,-162.5"/>
<text text-anchor="middle" x="153.2878" y="-169.1" font-family="Helvetica,sans-Serif" font-size="8.00" fill="#000000">gslpp_matrix_double.h</text>
</a>
</g>
</g>
<!-- Node2&#45;&gt;Node12 -->
<g id="edge8" class="edge">
<title>Node2&#45;&gt;Node12</title>
<path fill="none" stroke="#191970" d="M88.6592,-216.324C100.4463,-208.0577 118.4201,-195.4527 132.4233,-185.6322"/>
<polygon fill="#191970" stroke="#191970" points="134.7694,-188.2619 140.9471,-179.6545 130.7502,-182.5307 134.7694,-188.2619"/>
</g>
<!-- Node15 -->
<g id="node8" class="node">
<title>Node15</title>
<g id="a_node8"><a xlink:href="../../d9/d25/gslpp__matrix__complex_8h.html" target="_top" xlink:title="gslpp_matrix_complex.h">
<polygon fill="none" stroke="#ff0000" points="101.7878,-108.5 101.7878,-125.5 204.7878,-125.5 204.7878,-108.5 101.7878,-108.5"/>
<text text-anchor="middle" x="153.2878" y="-115.1" font-family="Helvetica,sans-Serif" font-size="8.00" fill="#000000">gslpp_matrix_complex.h</text>
</a>
</g>
</g>
<!-- Node2&#45;&gt;Node15 -->
<g id="edge17" class="edge">
<title>Node2&#45;&gt;Node15</title>
<path fill="none" stroke="#191970" d="M77.2386,-216.1208C78.9811,-203.2098 83.6441,-178.9492 95.2878,-162 103.9138,-149.4435 117.1293,-138.8021 128.7678,-131.025"/>
<polygon fill="#191970" stroke="#191970" points="130.68,-133.9569 137.2584,-125.6517 126.9367,-128.0418 130.68,-133.9569"/>
</g>
<!-- Node7&#45;&gt;Node3 -->
<g id="edge5" class="edge">
<title>Node7&#45;&gt;Node3</title>
<path fill="none" stroke="#191970" d="M217.9164,-54.324C206.1293,-46.0577 188.1555,-33.4527 174.1523,-23.6322"/>
<polygon fill="#191970" stroke="#191970" points="175.8255,-20.5307 165.6285,-17.6545 171.8062,-26.2619 175.8255,-20.5307"/>
</g>
<!-- Node10&#45;&gt;Node3 -->
<g id="edge7" class="edge">
<title>Node10&#45;&gt;Node3</title>
<path fill="none" stroke="#191970" d="M86.1412,-54.324C98.5042,-45.979 117.4179,-33.2122 132.025,-23.3524"/>
<polygon fill="#191970" stroke="#191970" points="134.136,-26.1503 140.4663,-17.6545 130.2197,-20.3483 134.136,-26.1503"/>
</g>
<!-- Node12&#45;&gt;Node3 -->
<g id="edge9" class="edge">
<title>Node12&#45;&gt;Node3</title>
<path fill="none" stroke="#191970" d="M179.0249,-162.4601C227.3069,-145.0503 323.5597,-102.9371 288.2878,-54 277.8355,-39.4981 236.0604,-27.0119 201.7157,-18.8965"/>
<polygon fill="#191970" stroke="#191970" points="202.3287,-15.4463 191.7994,-16.6233 200.7645,-22.2694 202.3287,-15.4463"/>
</g>
<!-- Node12&#45;&gt;Node7 -->
<g id="edge10" class="edge">
<title>Node12&#45;&gt;Node7</title>
<path fill="none" stroke="#191970" d="M170.8948,-162.3605C184.73,-154.6778 203.4199,-142.163 214.2878,-126 223.0541,-112.9627 227.0176,-95.4735 228.8096,-82.2302"/>
<polygon fill="#191970" stroke="#191970" points="232.3303,-82.2141 229.8914,-71.9038 225.3684,-81.4847 232.3303,-82.2141"/>
</g>
<!-- Node12&#45;&gt;Node10 -->
<g id="edge11" class="edge">
<title>Node12&#45;&gt;Node10</title>
<path fill="none" stroke="#191970" d="M136.1477,-162.3868C122.3969,-154.6413 103.5861,-142.0264 92.2878,-126 83.0312,-112.8697 78.211,-95.1547 75.7464,-81.8538"/>
<polygon fill="#191970" stroke="#191970" points="79.1949,-81.2521 74.1844,-71.9169 72.2798,-82.3391 79.1949,-81.2521"/>
</g>
<!-- Node12&#45;&gt;Node15 -->
<g id="edge12" class="edge">
<title>Node12&#45;&gt;Node15</title>
<path fill="none" stroke="#191970" d="M148.1215,-162.083C146.612,-154.9272 146.1816,-144.6353 146.8303,-135.6911"/>
<polygon fill="#191970" stroke="#191970" points="150.3032,-136.1262 148.1568,-125.7511 143.3647,-135.2002 150.3032,-136.1262"/>
</g>
<!-- Node15&#45;&gt;Node3 -->
<g id="edge13" class="edge">
<title>Node15&#45;&gt;Node3</title>
<path fill="none" stroke="#191970" d="M153.2878,-108.1619C153.2878,-90.6713 153.2878,-51.3048 153.2878,-27.7731"/>
<polygon fill="#191970" stroke="#191970" points="156.7879,-27.6583 153.2878,-17.6584 149.7879,-27.6584 156.7879,-27.6583"/>
</g>
<!-- Node15&#45;&gt;Node7 -->
<g id="edge14" class="edge">
<title>Node15&#45;&gt;Node7</title>
<path fill="none" stroke="#191970" d="M165.6592,-108.324C177.4463,-100.0577 195.4201,-87.4527 209.4233,-77.6322"/>
<polygon fill="#191970" stroke="#191970" points="211.7694,-80.2619 217.9471,-71.6545 207.7502,-74.5307 211.7694,-80.2619"/>
</g>
<!-- Node15&#45;&gt;Node10 -->
<g id="edge15" class="edge">
<title>Node15&#45;&gt;Node10</title>
<path fill="none" stroke="#191970" d="M140.4344,-108.324C128.0715,-99.979 109.1577,-87.2122 94.5507,-77.3524"/>
<polygon fill="#191970" stroke="#191970" points="96.356,-74.3483 86.1093,-71.6545 92.4396,-80.1503 96.356,-74.3483"/>
</g>
<!-- Node15&#45;&gt;Node12 -->
<g id="edge16" class="edge">
<title>Node15&#45;&gt;Node12</title>
<path fill="none" stroke="#191970" d="M158.4188,-125.7511C159.9451,-132.8579 160.3922,-143.1357 159.7602,-152.1005"/>
<polygon fill="#191970" stroke="#191970" points="156.2811,-151.7134 158.4541,-162.083 163.222,-152.6216 156.2811,-151.7134"/>
</g>
<!-- Node50&#45;&gt;Node2 -->
<g id="edge20" class="edge">
<title>Node50&#45;&gt;Node2</title>
<path fill="none" stroke="#191970" d="M104.6734,-270.083C99.9204,-262.5341 92.9697,-251.4948 87.1362,-242.2298"/>
<polygon fill="#191970" stroke="#191970" points="90.0877,-240.3486 81.7977,-233.7511 84.1641,-244.0783 90.0877,-240.3486"/>
</g>
</g>
</svg>
