<?xml version="1.0" encoding="UTF-8" standalone="no"?>
<!DOCTYPE svg PUBLIC "-//W3C//DTD SVG 1.1//EN"
 "http://www.w3.org/Graphics/SVG/1.1/DTD/svg11.dtd">
<!-- Generated by graphviz version 2.40.1 (20161225.0304)
 -->
<!-- Title: ModelParameter.cpp Pages: 1 -->
<svg width="214pt" height="134pt"
 viewBox="0.00 0.00 214.00 134.00" xmlns="http://www.w3.org/2000/svg" xmlns:xlink="http://www.w3.org/1999/xlink">
<g id="graph0" class="graph" transform="scale(1 1) rotate(0) translate(4 130)">
<title>ModelParameter.cpp</title>
<!-- Node0 -->
<g id="node1" class="node">
<title>Node0</title>
<polygon fill="#bfbfbf" stroke="#000000" points="32.5,-108.5 32.5,-125.5 123.5,-125.5 123.5,-108.5 32.5,-108.5"/>
<text text-anchor="middle" x="78" y="-115.1" font-family="Helvetica,sans-Serif" font-size="8.00" fill="#000000">ModelParameter.cpp</text>
</g>
<!-- Node1 -->
<g id="node2" class="node">
<title>Node1</title>
<g id="a_node2"><a xlink:href="../../d0/d94/_model_parameter_8h.html" target="_top" xlink:title="ModelParameter.h">
<polygon fill="none" stroke="#000000" points="37,-54.5 37,-71.5 119,-71.5 119,-54.5 37,-54.5"/>
<text text-anchor="middle" x="78" y="-61.1" font-family="Helvetica,sans-Serif" font-size="8.00" fill="#000000">ModelParameter.h</text>
</a>
</g>
</g>
<!-- Node0&#45;&gt;Node1 -->
<g id="edge1" class="edge">
<title>Node0&#45;&gt;Node1</title>
<path fill="none" stroke="#191970" d="M78,-108.083C78,-101.0059 78,-90.8611 78,-81.9865"/>
<polygon fill="#191970" stroke="#191970" points="81.5001,-81.751 78,-71.7511 74.5001,-81.7511 81.5001,-81.751"/>
</g>
<!-- Node2 -->
<g id="node3" class="node">
<title>Node2</title>
<polygon fill="none" stroke="#bfbfbf" points="0,-.5 0,-17.5 36,-17.5 36,-.5 0,-.5"/>
<text text-anchor="middle" x="18" y="-7.1" font-family="Helvetica,sans-Serif" font-size="8.00" fill="#000000">string</text>
</g>
<!-- Node1&#45;&gt;Node2 -->
<g id="edge2" class="edge">
<title>Node1&#45;&gt;Node2</title>
<path fill="none" stroke="#191970" d="M68.36,-54.324C59.4904,-46.3414 46.1253,-34.3128 35.3921,-24.6529"/>
<polygon fill="#191970" stroke="#191970" points="37.5898,-21.922 27.8154,-17.8339 32.907,-27.1251 37.5898,-21.922"/>
</g>
<!-- Node3 -->
<g id="node4" class="node">
<title>Node3</title>
<polygon fill="none" stroke="#bfbfbf" points="54.5,-.5 54.5,-17.5 101.5,-17.5 101.5,-.5 54.5,-.5"/>
<text text-anchor="middle" x="78" y="-7.1" font-family="Helvetica,sans-Serif" font-size="8.00" fill="#000000">iostream</text>
</g>
<!-- Node1&#45;&gt;Node3 -->
<g id="edge3" class="edge">
<title>Node1&#45;&gt;Node3</title>
<path fill="none" stroke="#191970" d="M78,-54.083C78,-47.0059 78,-36.8611 78,-27.9865"/>
<polygon fill="#191970" stroke="#191970" points="81.5001,-27.751 78,-17.7511 74.5001,-27.7511 81.5001,-27.751"/>
</g>
<!-- Node4 -->
<g id="node5" class="node">
<title>Node4</title>
<polygon fill="none" stroke="#bfbfbf" points="120,-.5 120,-17.5 206,-17.5 206,-.5 120,-.5"/>
<text text-anchor="middle" x="163" y="-7.1" font-family="Helvetica,sans-Serif" font-size="8.00" fill="#000000">boost/tokenizer.hpp</text>
</g>
<!-- Node1&#45;&gt;Node4 -->
<g id="edge4" class="edge">
<title>Node1&#45;&gt;Node4</title>
<path fill="none" stroke="#191970" d="M91.6567,-54.324C104.9163,-45.9002 125.268,-32.9709 140.8462,-23.0741"/>
<polygon fill="#191970" stroke="#191970" points="142.8133,-25.9711 149.3772,-17.6545 139.0596,-20.0626 142.8133,-25.9711"/>
</g>
</g>
</svg>
