<?xml version="1.0" encoding="UTF-8" standalone="no"?>
<!DOCTYPE svg PUBLIC "-//W3C//DTD SVG 1.1//EN"
 "http://www.w3.org/Graphics/SVG/1.1/DTD/svg11.dtd">
<!-- Generated by graphviz version 2.40.1 (20161225.0304)
 -->
<!-- Title: SlhaSimplisticInterpreter.hpp Pages: 1 -->
<svg width="796pt" height="143pt"
 viewBox="0.00 0.00 796.00 143.00" xmlns="http://www.w3.org/2000/svg" xmlns:xlink="http://www.w3.org/1999/xlink">
<g id="graph0" class="graph" transform="scale(1 1) rotate(0) translate(4 139)">
<title>SlhaSimplisticInterpreter.hpp</title>
<!-- Node82 -->
<g id="node1" class="node">
<title>Node82</title>
<polygon fill="#bfbfbf" stroke="#000000" points="585,-117.5 585,-134.5 704,-134.5 704,-117.5 585,-117.5"/>
<text text-anchor="middle" x="644.5" y="-124.1" font-family="Helvetica,sans-Serif" font-size="8.00" fill="#000000">SlhaSimplisticInterpreter.hpp</text>
</g>
<!-- Node83 -->
<g id="node2" class="node">
<title>Node83</title>
<g id="a_node2"><a xlink:href="../../d4/d42/_s_l_h_a_8hpp.html" target="_top" xlink:title="SLHA.hpp">
<polygon fill="none" stroke="#ff0000" points="376,-63.5 376,-80.5 429,-80.5 429,-63.5 376,-63.5"/>
<text text-anchor="middle" x="402.5" y="-70.1" font-family="Helvetica,sans-Serif" font-size="8.00" fill="#000000">SLHA.hpp</text>
</a>
</g>
</g>
<!-- Node82&#45;&gt;Node83 -->
<g id="edge1" class="edge">
<title>Node82&#45;&gt;Node83</title>
<path fill="none" stroke="#191970" d="M596.1747,-115.2167C545.9618,-104.0121 469.2244,-86.8889 429.0787,-77.9308"/>
<polygon fill="#191970" stroke="#191970" points="595.6321,-118.6816 606.1544,-117.4435 597.1567,-111.8496 595.6321,-118.6816"/>
</g>
<!-- Node99 -->
<g id="node9" class="node">
<title>Node99</title>
<g id="a_node9"><a xlink:href="../../d1/d4c/_slha_value_colored_segments_8hpp.html" target="_top" xlink:title="SlhaValueColoredSegments.hpp">
<polygon fill="none" stroke="#ff0000" points="578,-63.5 578,-80.5 711,-80.5 711,-63.5 578,-63.5"/>
<text text-anchor="middle" x="644.5" y="-70.1" font-family="Helvetica,sans-Serif" font-size="8.00" fill="#000000">SlhaValueColoredSegments.hpp</text>
</a>
</g>
</g>
<!-- Node82&#45;&gt;Node99 -->
<g id="edge8" class="edge">
<title>Node82&#45;&gt;Node99</title>
<path fill="none" stroke="#191970" d="M644.5,-106.8045C644.5,-97.9102 644.5,-87.7798 644.5,-80.7511"/>
<polygon fill="#191970" stroke="#191970" points="641.0001,-107.083 644.5,-117.083 648.0001,-107.083 641.0001,-107.083"/>
</g>
<!-- Node100 -->
<g id="node10" class="node">
<title>Node100</title>
<g id="a_node10"><a xlink:href="../../d1/d3b/_slha_value_plot_line_8hpp.html" target="_top" xlink:title="SlhaValuePlotLine.hpp">
<polygon fill="none" stroke="#ff0000" points="691,-5 691,-22 788,-22 788,-5 691,-5"/>
<text text-anchor="middle" x="739.5" y="-11.6" font-family="Helvetica,sans-Serif" font-size="8.00" fill="#000000">SlhaValuePlotLine.hpp</text>
</a>
</g>
</g>
<!-- Node82&#45;&gt;Node100 -->
<g id="edge10" class="edge">
<title>Node82&#45;&gt;Node100</title>
<path fill="none" stroke="#191970" d="M677.9157,-113.0904C692.901,-105.7528 709.6153,-95.1619 720.5,-81 734.1506,-63.2394 737.9939,-36.139 739.076,-22.3"/>
<polygon fill="#191970" stroke="#191970" points="676.0329,-110.1029 668.3967,-117.4472 678.9461,-116.4679 676.0329,-110.1029"/>
</g>
<!-- Node84 -->
<g id="node3" class="node">
<title>Node84</title>
<g id="a_node3"><a xlink:href="../../da/d87/main__libmode__slha2__to___general_s_u_s_yconfigfile_8cpp.html" target="_top" xlink:title="main_libmode_slha2\l_to_GeneralSUSYconfigfile.cpp">
<polygon fill="none" stroke="#000000" points="0,-.5 0,-26.5 129,-26.5 129,-.5 0,-.5"/>
<text text-anchor="start" x="8" y="-16.1" font-family="Helvetica,sans-Serif" font-size="8.00" fill="#000000">main_libmode_slha2</text>
<text text-anchor="middle" x="64.5" y="-7.1" font-family="Helvetica,sans-Serif" font-size="8.00" fill="#000000">_to_GeneralSUSYconfigfile.cpp</text>
</a>
</g>
</g>
<!-- Node83&#45;&gt;Node84 -->
<g id="edge2" class="edge">
<title>Node83&#45;&gt;Node84</title>
<path fill="none" stroke="#191970" d="M365.8503,-65.9509C314.6853,-57.4663 218.9602,-41.4479 137.5,-27 134.835,-26.5273 132.116,-26.0414 129.3698,-25.5475"/>
<polygon fill="#191970" stroke="#191970" points="365.3338,-69.413 375.7714,-67.5943 366.4778,-62.5071 365.3338,-69.413"/>
</g>
<!-- Node85 -->
<g id="node4" class="node">
<title>Node85</title>
<g id="a_node4"><a xlink:href="../../d5/d2a/_base_slha_block_8cpp.html" target="_top" xlink:title="BaseSlhaBlock.cpp">
<polygon fill="none" stroke="#000000" points="147,-5 147,-22 232,-22 232,-5 147,-5"/>
<text text-anchor="middle" x="189.5" y="-11.6" font-family="Helvetica,sans-Serif" font-size="8.00" fill="#000000">BaseSlhaBlock.cpp</text>
</a>
</g>
</g>
<!-- Node83&#45;&gt;Node85 -->
<g id="edge3" class="edge">
<title>Node83&#45;&gt;Node85</title>
<path fill="none" stroke="#191970" d="M366.1007,-62.003C325.1061,-50.7439 259.1803,-32.6375 220.5308,-22.0225"/>
<polygon fill="#191970" stroke="#191970" points="365.3842,-65.4358 375.9541,-64.7092 367.2381,-58.6857 365.3842,-65.4358"/>
</g>
<!-- Node86 -->
<g id="node5" class="node">
<title>Node86</title>
<g id="a_node5"><a xlink:href="../../dc/dae/_base_string_block_8cpp.html" target="_top" xlink:title="BaseStringBlock.cpp">
<polygon fill="none" stroke="#000000" points="250.5,-5 250.5,-22 340.5,-22 340.5,-5 250.5,-5"/>
<text text-anchor="middle" x="295.5" y="-11.6" font-family="Helvetica,sans-Serif" font-size="8.00" fill="#000000">BaseStringBlock.cpp</text>
</a>
</g>
</g>
<!-- Node83&#45;&gt;Node86 -->
<g id="edge4" class="edge">
<title>Node83&#45;&gt;Node86</title>
<path fill="none" stroke="#191970" d="M377.6682,-58.4237C357.2206,-47.2445 328.8442,-31.7302 311.353,-22.1673"/>
<polygon fill="#191970" stroke="#191970" points="376.2585,-61.6419 386.7118,-63.3681 379.6165,-55.4999 376.2585,-61.6419"/>
</g>
<!-- Node87 -->
<g id="node6" class="node">
<title>Node87</title>
<g id="a_node6"><a xlink:href="../../d6/d46/_block_interpreter_8cpp.html" target="_top" xlink:title="BlockInterpreter.cpp">
<polygon fill="none" stroke="#000000" points="358.5,-5 358.5,-22 446.5,-22 446.5,-5 358.5,-5"/>
<text text-anchor="middle" x="402.5" y="-11.6" font-family="Helvetica,sans-Serif" font-size="8.00" fill="#000000">BlockInterpreter.cpp</text>
</a>
</g>
</g>
<!-- Node83&#45;&gt;Node87 -->
<g id="edge5" class="edge">
<title>Node83&#45;&gt;Node87</title>
<path fill="none" stroke="#191970" d="M402.5,-53.1601C402.5,-42.7439 402.5,-30.3023 402.5,-22.1673"/>
<polygon fill="#191970" stroke="#191970" points="399.0001,-53.3681 402.5,-63.3681 406.0001,-53.3682 399.0001,-53.3681"/>
</g>
<!-- Node88 -->
<g id="node7" class="node">
<title>Node88</title>
<g id="a_node7"><a xlink:href="../../d4/de4/_lines_as_strings_8cpp.html" target="_top" xlink:title="LinesAsStrings.cpp">
<polygon fill="none" stroke="#000000" points="465,-5 465,-22 550,-22 550,-5 465,-5"/>
<text text-anchor="middle" x="507.5" y="-11.6" font-family="Helvetica,sans-Serif" font-size="8.00" fill="#000000">LinesAsStrings.cpp</text>
</a>
</g>
</g>
<!-- Node83&#45;&gt;Node88 -->
<g id="edge6" class="edge">
<title>Node83&#45;&gt;Node88</title>
<path fill="none" stroke="#191970" d="M426.8676,-58.4237C446.933,-47.2445 474.7791,-31.7302 491.9433,-22.1673"/>
<polygon fill="#191970" stroke="#191970" points="425.0253,-55.4436 417.9931,-63.3681 428.4323,-61.5585 425.0253,-55.4436"/>
</g>
<!-- Node89 -->
<g id="node8" class="node">
<title>Node89</title>
<g id="a_node8"><a xlink:href="../../d9/d6e/_lines_as_strings_block_8cpp.html" target="_top" xlink:title="LinesAsStringsBlock.cpp">
<polygon fill="none" stroke="#000000" points="568,-5 568,-22 673,-22 673,-5 568,-5"/>
<text text-anchor="middle" x="620.5" y="-11.6" font-family="Helvetica,sans-Serif" font-size="8.00" fill="#000000">LinesAsStringsBlock.cpp</text>
</a>
</g>
</g>
<!-- Node83&#45;&gt;Node89 -->
<g id="edge7" class="edge">
<title>Node83&#45;&gt;Node89</title>
<path fill="none" stroke="#191970" d="M439.0209,-62.1997C480.8706,-50.9694 548.7888,-32.7436 588.5967,-22.0612"/>
<polygon fill="#191970" stroke="#191970" points="437.9822,-58.8545 429.2311,-64.8268 439.7965,-65.6153 437.9822,-58.8545"/>
</g>
<!-- Node99&#45;&gt;Node100 -->
<g id="edge9" class="edge">
<title>Node99&#45;&gt;Node100</title>
<path fill="none" stroke="#191970" d="M667.2901,-57.9661C685.3835,-46.8244 710.1062,-31.6004 725.4249,-22.1673"/>
<polygon fill="#191970" stroke="#191970" points="665.1974,-55.1443 658.5176,-63.3681 668.8679,-61.1049 665.1974,-55.1443"/>
</g>
</g>
</svg>
