<?xml version="1.0" encoding="UTF-8" standalone="no"?>
<!DOCTYPE svg PUBLIC "-//W3C//DTD SVG 1.1//EN"
 "http://www.w3.org/Graphics/SVG/1.1/DTD/svg11.dtd">
<!-- Generated by graphviz version 2.38.0 (20140413.2041)
 -->
<!-- Title: MPll Pages: 1 -->
<svg width="730pt" height="323pt"
 viewBox="0.00 0.00 730.00 322.70" xmlns="http://www.w3.org/2000/svg" xmlns:xlink="http://www.w3.org/1999/xlink">
<g id="graph0" class="graph" transform="scale(1 1) rotate(0) translate(4 318.697)">
<title>MPll</title>
<!-- Node1 -->
<g id="node1" class="node"><title>Node1</title>
<polygon fill="#bfbfbf" stroke="black" points="520.5,-71.1968 520.5,-88.1968 552.5,-88.1968 552.5,-71.1968 520.5,-71.1968"/>
<text text-anchor="middle" x="536.5" y="-77.7968" font-family="Helvetica,sans-Serif" font-size="8.00">MPll</text>
</g>
<!-- Node2 -->
<g id="node2" class="node"><title>Node2</title>
<g id="a_node2"><a xlink:href="../../dd/d59/classgslpp_1_1vector.html" target="_top" xlink:title="gslpp::vector\&lt; gslpp\l::complex \&gt;">
<polygon fill="none" stroke="black" points="314,-46.6968 314,-72.6968 402,-72.6968 402,-46.6968 314,-46.6968"/>
<text text-anchor="start" x="322" y="-62.2968" font-family="Helvetica,sans-Serif" font-size="8.00">gslpp::vector&lt; gslpp</text>
<text text-anchor="middle" x="358" y="-53.2968" font-family="Helvetica,sans-Serif" font-size="8.00">::complex &gt;</text>
</a>
</g>
</g>
<!-- Node2&#45;&gt;Node1 -->
<g id="edge1" class="edge"><title>Node2&#45;&gt;Node1</title>
<path fill="none" stroke="#9a32cd" stroke-dasharray="5,2" d="M412.47,-55.8993C435.305,-55.3619 462.141,-56.1778 486,-60.6968 497.938,-62.9579 510.726,-67.9388 520.313,-72.2335"/>
<polygon fill="#9a32cd" stroke="#9a32cd" points="412.165,-52.4073 402.285,-56.233 412.395,-59.4036 412.165,-52.4073"/>
<text text-anchor="middle" x="456" y="-72.2968" font-family="Helvetica,sans-Serif" font-size="8.00"> allcoeff</text>
<text text-anchor="middle" x="456" y="-63.2968" font-family="Helvetica,sans-Serif" font-size="8.00">allcoeffprime</text>
</g>
<!-- Node3 -->
<g id="node3" class="node"><title>Node3</title>
<g id="a_node3"><a xlink:href="../../dd/d59/classgslpp_1_1vector.html" target="_top" xlink:title="A base class for defining operations on vectors, both real and complex. ">
<polygon fill="none" stroke="black" points="121,-130.197 121,-147.197 202,-147.197 202,-130.197 121,-130.197"/>
<text text-anchor="middle" x="161.5" y="-136.797" font-family="Helvetica,sans-Serif" font-size="8.00">gslpp::vector&lt; T &gt;</text>
</a>
</g>
</g>
<!-- Node3&#45;&gt;Node2 -->
<g id="edge2" class="edge"><title>Node3&#45;&gt;Node2</title>
<path fill="none" stroke="orange" stroke-dasharray="5,2" d="M212.389,-140.153C237.735,-138.55 267.784,-132.806 290,-116.697 303.842,-106.66 295.623,-94.4931 308,-82.6968 312.014,-78.8715 316.78,-75.5878 321.739,-72.7992"/>
<polygon fill="orange" stroke="orange" points="212.051,-136.665 202.213,-140.597 212.356,-143.658 212.051,-136.665"/>
<text text-anchor="middle" x="255" y="-142.297" font-family="Helvetica,sans-Serif" font-size="8.00"> &lt; gslpp::complex &gt;</text>
</g>
<!-- Node4 -->
<g id="node4" class="node"><title>Node4</title>
<g id="a_node4"><a xlink:href="../../dd/d9b/classgslpp_1_1complex.html" target="_top" xlink:title="A class for defining operations on and functions of complex numbers. ">
<polygon fill="none" stroke="black" points="0,-175.197 0,-192.197 70,-192.197 70,-175.197 0,-175.197"/>
<text text-anchor="middle" x="35" y="-181.797" font-family="Helvetica,sans-Serif" font-size="8.00">gslpp::complex</text>
</a>
</g>
</g>
<!-- Node4&#45;&gt;Node1 -->
<g id="edge3" class="edge"><title>Node4&#45;&gt;Node1</title>
<path fill="none" stroke="#9a32cd" stroke-dasharray="5,2" d="M47.5955,-166.46C73.4042,-129.849 139.692,-45.1168 220,-13.6968 331.002,29.7319 475.703,-44.7977 521.181,-71.0602"/>
<polygon fill="#9a32cd" stroke="#9a32cd" points="44.4665,-164.832 41.6652,-175.05 50.227,-168.809 44.4665,-164.832"/>
<text text-anchor="middle" x="255" y="-106.297" font-family="Helvetica,sans-Serif" font-size="8.00"> C_10p</text>
<text text-anchor="middle" x="255" y="-97.2968" font-family="Helvetica,sans-Serif" font-size="8.00">C_7p</text>
<text text-anchor="middle" x="255" y="-88.2968" font-family="Helvetica,sans-Serif" font-size="8.00">C_9p_cache</text>
<text text-anchor="middle" x="255" y="-79.2968" font-family="Helvetica,sans-Serif" font-size="8.00">C_1_cache</text>
<text text-anchor="middle" x="255" y="-70.2968" font-family="Helvetica,sans-Serif" font-size="8.00">C_P</text>
<text text-anchor="middle" x="255" y="-61.2968" font-family="Helvetica,sans-Serif" font-size="8.00">C_P_cache</text>
<text text-anchor="middle" x="255" y="-52.2968" font-family="Helvetica,sans-Serif" font-size="8.00">C_2_cache</text>
<text text-anchor="middle" x="255" y="-43.2968" font-family="Helvetica,sans-Serif" font-size="8.00">C_3_cache</text>
<text text-anchor="middle" x="255" y="-34.2968" font-family="Helvetica,sans-Serif" font-size="8.00">C_4_cache</text>
<text text-anchor="middle" x="255" y="-25.2968" font-family="Helvetica,sans-Serif" font-size="8.00">C_S</text>
<text text-anchor="middle" x="255" y="-16.2968" font-family="Helvetica,sans-Serif" font-size="8.00">...</text>
</g>
<!-- Node6 -->
<g id="node6" class="node"><title>Node6</title>
<g id="a_node6"><a xlink:href="../../dc/dd5/class_standard_model.html" target="_top" xlink:title="A model class for the Standard Model. ">
<polygon fill="none" stroke="red" points="322.5,-220.197 322.5,-237.197 393.5,-237.197 393.5,-220.197 322.5,-220.197"/>
<text text-anchor="middle" x="358" y="-226.797" font-family="Helvetica,sans-Serif" font-size="8.00">StandardModel</text>
</a>
</g>
</g>
<!-- Node4&#45;&gt;Node6 -->
<g id="edge13" class="edge"><title>Node4&#45;&gt;Node6</title>
<path fill="none" stroke="#9a32cd" stroke-dasharray="5,2" d="M80.5774,-184.014C114.116,-184.761 161.132,-186.888 202,-192.697 246.172,-198.975 296.299,-211.659 327.287,-220.168"/>
<polygon fill="#9a32cd" stroke="#9a32cd" points="80.2512,-180.508 70.1867,-183.818 80.1186,-187.506 80.2512,-180.508"/>
<text text-anchor="middle" x="161.5" y="-204.297" font-family="Helvetica,sans-Serif" font-size="8.00"> rhoZ_f_cache</text>
<text text-anchor="middle" x="161.5" y="-195.297" font-family="Helvetica,sans-Serif" font-size="8.00">kappaZ_f_cache</text>
</g>
<!-- Node9 -->
<g id="node9" class="node"><title>Node9</title>
<g id="a_node9"><a xlink:href="../../d9/db9/class_c_k_m.html" target="_top" xlink:title="A class for the CKM matrix elements. ">
<polygon fill="none" stroke="black" points="144.5,-256.197 144.5,-273.197 178.5,-273.197 178.5,-256.197 144.5,-256.197"/>
<text text-anchor="middle" x="161.5" y="-262.797" font-family="Helvetica,sans-Serif" font-size="8.00">CKM</text>
</a>
</g>
</g>
<!-- Node4&#45;&gt;Node9 -->
<g id="edge10" class="edge"><title>Node4&#45;&gt;Node9</title>
<path fill="none" stroke="#9a32cd" stroke-dasharray="5,2" d="M54.0804,-198.854C70.7779,-212.416 96.6113,-232.318 121,-246.697 128.401,-251.06 137.043,-255.107 144.354,-258.253"/>
<polygon fill="#9a32cd" stroke="#9a32cd" points="56.1839,-196.052 46.2375,-192.403 51.737,-201.458 56.1839,-196.052"/>
<text text-anchor="middle" x="95.5" y="-308.297" font-family="Helvetica,sans-Serif" font-size="8.00"> Vtb</text>
<text text-anchor="middle" x="95.5" y="-299.297" font-family="Helvetica,sans-Serif" font-size="8.00">Vcb</text>
<text text-anchor="middle" x="95.5" y="-290.297" font-family="Helvetica,sans-Serif" font-size="8.00">Vts</text>
<text text-anchor="middle" x="95.5" y="-281.297" font-family="Helvetica,sans-Serif" font-size="8.00">Vcs</text>
<text text-anchor="middle" x="95.5" y="-272.297" font-family="Helvetica,sans-Serif" font-size="8.00">Vud</text>
<text text-anchor="middle" x="95.5" y="-263.297" font-family="Helvetica,sans-Serif" font-size="8.00">Vtd</text>
<text text-anchor="middle" x="95.5" y="-254.297" font-family="Helvetica,sans-Serif" font-size="8.00">Vcd</text>
<text text-anchor="middle" x="95.5" y="-245.297" font-family="Helvetica,sans-Serif" font-size="8.00">Vub</text>
<text text-anchor="middle" x="95.5" y="-236.297" font-family="Helvetica,sans-Serif" font-size="8.00">Vus</text>
</g>
<!-- Node5 -->
<g id="node5" class="node"><title>Node5</title>
<g id="a_node5"><a xlink:href="../../d6/d73/classgslpp_1_1vector_3_01double_01_4.html" target="_top" xlink:title="A class for constructing and defining operations on real vectors. ">
<polygon fill="none" stroke="black" points="308,-92.1968 308,-109.197 408,-109.197 408,-92.1968 308,-92.1968"/>
<text text-anchor="middle" x="358" y="-98.7968" font-family="Helvetica,sans-Serif" font-size="8.00">gslpp::vector&lt; double &gt;</text>
</a>
</g>
</g>
<!-- Node5&#45;&gt;Node1 -->
<g id="edge4" class="edge"><title>Node5&#45;&gt;Node1</title>
<path fill="none" stroke="#9a32cd" stroke-dasharray="5,2" d="M418.136,-93.6607C454.262,-89.3625 497.717,-84.1922 520.258,-81.5102"/>
<polygon fill="#9a32cd" stroke="#9a32cd" points="417.682,-90.1901 408.165,-94.8471 418.509,-97.141 417.682,-90.1901"/>
<text text-anchor="middle" x="456" y="-167.297" font-family="Helvetica,sans-Serif" font-size="8.00"> N_cache</text>
<text text-anchor="middle" x="456" y="-158.297" font-family="Helvetica,sans-Serif" font-size="8.00">fT_cache</text>
<text text-anchor="middle" x="456" y="-149.297" font-family="Helvetica,sans-Serif" font-size="8.00">fplus_cache</text>
<text text-anchor="middle" x="456" y="-140.297" font-family="Helvetica,sans-Serif" font-size="8.00">k2_cache</text>
<text text-anchor="middle" x="456" y="-131.297" font-family="Helvetica,sans-Serif" font-size="8.00">H_P_cache</text>
<text text-anchor="middle" x="456" y="-122.297" font-family="Helvetica,sans-Serif" font-size="8.00">Ycache</text>
<text text-anchor="middle" x="456" y="-113.297" font-family="Helvetica,sans-Serif" font-size="8.00">SL_cache</text>
<text text-anchor="middle" x="456" y="-104.297" font-family="Helvetica,sans-Serif" font-size="8.00">H_V0cache</text>
<text text-anchor="middle" x="456" y="-95.2968" font-family="Helvetica,sans-Serif" font-size="8.00">H_Scache</text>
</g>
<!-- Node6&#45;&gt;Node1 -->
<g id="edge5" class="edge"><title>Node6&#45;&gt;Node1</title>
<path fill="none" stroke="#9a32cd" stroke-dasharray="5,2" d="M392.422,-216.668C427.552,-203.805 478.739,-184.36 486,-177.697 513.948,-152.051 528.357,-107.059 533.387,-88.2943"/>
<polygon fill="#9a32cd" stroke="#9a32cd" points="391.186,-213.393 382.989,-220.105 393.583,-219.97 391.186,-213.393"/>
<text text-anchor="middle" x="456" y="-205.297" font-family="Helvetica,sans-Serif" font-size="8.00"> mySM</text>
</g>
<!-- Node8 -->
<g id="node8" class="node"><title>Node8</title>
<g id="a_node8"><a xlink:href="../../dc/df3/class_e_w_s_mcache.html" target="_top" xlink:title="A class for cache variables used in computing radiative corrections to the EW precision observables...">
<polygon fill="none" stroke="red" points="505,-256.197 505,-273.197 568,-273.197 568,-256.197 505,-256.197"/>
<text text-anchor="middle" x="536.5" y="-262.797" font-family="Helvetica,sans-Serif" font-size="8.00">EWSMcache</text>
</a>
</g>
</g>
<!-- Node6&#45;&gt;Node8 -->
<g id="edge8" class="edge"><title>Node6&#45;&gt;Node8</title>
<path fill="none" stroke="#9a32cd" stroke-dasharray="5,2" d="M403.757,-237.826C435.372,-244.274 476.918,-252.748 504.829,-258.441"/>
<polygon fill="#9a32cd" stroke="#9a32cd" points="404.368,-234.378 393.871,-235.809 402.969,-241.237 404.368,-234.378"/>
<text text-anchor="middle" x="456" y="-256.297" font-family="Helvetica,sans-Serif" font-size="8.00"> SM</text>
</g>
<!-- Node7 -->
<g id="node7" class="node"><title>Node7</title>
<g id="a_node7"><a xlink:href="../../dd/dfa/class_q_c_d.html" target="_top" xlink:title="A class for parameters related to QCD, hadrons and quarks. ">
<polygon fill="none" stroke="red" points="144.5,-220.197 144.5,-237.197 178.5,-237.197 178.5,-220.197 144.5,-220.197"/>
<text text-anchor="middle" x="161.5" y="-226.797" font-family="Helvetica,sans-Serif" font-size="8.00">QCD</text>
</a>
</g>
</g>
<!-- Node7&#45;&gt;Node6 -->
<g id="edge6" class="edge"><title>Node7&#45;&gt;Node6</title>
<path fill="none" stroke="midnightblue" d="M188.983,-228.697C223.503,-228.697 283.96,-228.697 322.164,-228.697"/>
<polygon fill="midnightblue" stroke="midnightblue" points="188.748,-225.197 178.748,-228.697 188.748,-232.197 188.748,-225.197"/>
</g>
<!-- Node8&#45;&gt;Node6 -->
<g id="edge7" class="edge"><title>Node8&#45;&gt;Node6</title>
<path fill="none" stroke="#9a32cd" stroke-dasharray="5,2" d="M494.519,-273.924C473.629,-276.982 448.049,-278.163 426,-271.697 403.188,-265.006 380.785,-247.895 368.539,-237.386"/>
<polygon fill="#9a32cd" stroke="#9a32cd" points="495.373,-277.331 504.665,-272.242 494.227,-270.425 495.373,-277.331"/>
<text text-anchor="middle" x="456" y="-278.297" font-family="Helvetica,sans-Serif" font-size="8.00"> myEWSMcache</text>
</g>
<!-- Node10 -->
<g id="node10" class="node"><title>Node10</title>
<g id="a_node10"><a xlink:href="../../d5/dad/class_e_w_s_m_three_loop_e_w.html" target="_top" xlink:title="A class for &#160;three&#45;loop corrections to the EW precision observables. ">
<polygon fill="none" stroke="black" points="629,-237.197 629,-254.197 722,-254.197 722,-237.197 629,-237.197"/>
<text text-anchor="middle" x="675.5" y="-243.797" font-family="Helvetica,sans-Serif" font-size="8.00">EWSMThreeLoopEW</text>
</a>
</g>
</g>
<!-- Node8&#45;&gt;Node10 -->
<g id="edge12" class="edge"><title>Node8&#45;&gt;Node10</title>
<path fill="none" stroke="#9a32cd" stroke-dasharray="5,2" d="M578.292,-259.04C594.172,-256.837 612.442,-254.303 628.766,-252.039"/>
<polygon fill="#9a32cd" stroke="#9a32cd" points="577.67,-255.592 568.245,-260.433 578.632,-262.526 577.67,-255.592"/>
<text text-anchor="middle" x="599" y="-259.297" font-family="Helvetica,sans-Serif" font-size="8.00"> cache</text>
</g>
<!-- Node9&#45;&gt;Node6 -->
<g id="edge9" class="edge"><title>Node9&#45;&gt;Node6</title>
<path fill="none" stroke="#9a32cd" stroke-dasharray="5,2" d="M188.708,-260.073C214.496,-255.499 254.985,-248.252 290,-241.697 300.482,-239.735 311.875,-237.545 322.242,-235.531"/>
<polygon fill="#9a32cd" stroke="#9a32cd" points="187.851,-256.67 178.614,-261.86 189.071,-263.563 187.851,-256.67"/>
<text text-anchor="middle" x="255" y="-256.297" font-family="Helvetica,sans-Serif" font-size="8.00"> myCKM</text>
</g>
<!-- Node10&#45;&gt;Node6 -->
<g id="edge11" class="edge"><title>Node10&#45;&gt;Node6</title>
<path fill="none" stroke="#9a32cd" stroke-dasharray="5,2" d="M618.552,-241.11C602.555,-239.892 585.094,-238.652 569,-237.697 507.255,-234.034 435.212,-231.276 393.577,-229.83"/>
<polygon fill="#9a32cd" stroke="#9a32cd" points="618.584,-244.623 628.824,-241.904 619.124,-237.644 618.584,-244.623"/>
<text text-anchor="middle" x="536.5" y="-240.297" font-family="Helvetica,sans-Serif" font-size="8.00"> myThreeLoopEW</text>
</g>
</g>
</svg>
