<?xml version="1.0" encoding="UTF-8" standalone="no"?>
<!DOCTYPE svg PUBLIC "-//W3C//DTD SVG 1.1//EN"
 "http://www.w3.org/Graphics/SVG/1.1/DTD/svg11.dtd">
<!-- Generated by graphviz version 2.40.1 (20161225.0304)
 -->
<!-- Title: WilsonCoefficientNew Pages: 1 -->
<svg width="144pt" height="171pt"
 viewBox="0.00 0.00 143.50 171.00" xmlns="http://www.w3.org/2000/svg" xmlns:xlink="http://www.w3.org/1999/xlink">
<g id="graph0" class="graph" transform="scale(1 1) rotate(0) translate(4 167)">
<title>WilsonCoefficientNew</title>
<!-- Node0 -->
<g id="node1" class="node">
<title>Node0</title>
<polygon fill="#bfbfbf" stroke="#000000" points="7.5,-.5 7.5,-17.5 101.5,-17.5 101.5,-.5 7.5,-.5"/>
<text text-anchor="middle" x="54.5" y="-7.1" font-family="Helvetica,sans-Serif" font-size="8.00" fill="#000000">WilsonCoefficientNew</text>
</g>
<!-- Node1 -->
<g id="node2" class="node">
<title>Node1</title>
<g id="a_node2"><a xlink:href="../../dd/d6c/class_wilson_template_new.html" target="_top" xlink:title="WilsonTemplateNew\&lt;\l gslpp::vector\&lt; gslpp\l::complex \&gt; \&gt;">
<polygon fill="none" stroke="#000000" points="7,-55.5 7,-90.5 102,-90.5 102,-55.5 7,-55.5"/>
<text text-anchor="start" x="15" y="-80.1" font-family="Helvetica,sans-Serif" font-size="8.00" fill="#000000">WilsonTemplateNew&lt;</text>
<text text-anchor="start" x="15" y="-71.1" font-family="Helvetica,sans-Serif" font-size="8.00" fill="#000000"> gslpp::vector&lt; gslpp</text>
<text text-anchor="middle" x="54.5" y="-62.1" font-family="Helvetica,sans-Serif" font-size="8.00" fill="#000000">::complex &gt; &gt;</text>
</a>
</g>
</g>
<!-- Node1&#45;&gt;Node0 -->
<g id="edge1" class="edge">
<title>Node1&#45;&gt;Node0</title>
<path fill="none" stroke="#191970" d="M54.5,-45.1453C54.5,-35.1742 54.5,-24.657 54.5,-17.5546"/>
<polygon fill="#191970" stroke="#191970" points="51.0001,-45.1724 54.5,-55.1724 58.0001,-45.1725 51.0001,-45.1724"/>
</g>
<!-- Node2 -->
<g id="node3" class="node">
<title>Node2</title>
<g id="a_node3"><a xlink:href="../../dd/d6c/class_wilson_template_new.html" target="_top" xlink:title="WilsonTemplateNew\&lt; T \&gt;">
<polygon fill="none" stroke="#000000" points="0,-145.5 0,-162.5 109,-162.5 109,-145.5 0,-145.5"/>
<text text-anchor="middle" x="54.5" y="-152.1" font-family="Helvetica,sans-Serif" font-size="8.00" fill="#000000">WilsonTemplateNew&lt; T &gt;</text>
</a>
</g>
</g>
<!-- Node2&#45;&gt;Node1 -->
<g id="edge2" class="edge">
<title>Node2&#45;&gt;Node1</title>
<path fill="none" stroke="#ffa500" stroke-dasharray="5,2" d="M54.5,-135.329C54.5,-121.8973 54.5,-103.8973 54.5,-90.6945"/>
<polygon fill="#ffa500" stroke="#ffa500" points="51.0001,-135.3315 54.5,-145.3316 58.0001,-135.3316 51.0001,-135.3315"/>
<text text-anchor="start" x="54.5" y="-120.6" font-family="Helvetica,sans-Serif" font-size="8.00" fill="#000000"> &lt; gslpp::vector&lt; gslpp</text>
<text text-anchor="middle" x="95" y="-111.6" font-family="Helvetica,sans-Serif" font-size="8.00" fill="#000000">::complex &gt; &gt;</text>
</g>
</g>
</svg>
