<?xml version="1.0" encoding="UTF-8" standalone="no"?>
<!DOCTYPE svg PUBLIC "-//W3C//DTD SVG 1.1//EN"
 "http://www.w3.org/Graphics/SVG/1.1/DTD/svg11.dtd">
<!-- Generated by graphviz version 2.40.1 (20161225.0304)
 -->
<!-- Title: BParameter.h Pages: 1 -->
<svg width="491pt" height="134pt"
 viewBox="0.00 0.00 490.50 134.00" xmlns="http://www.w3.org/2000/svg" xmlns:xlink="http://www.w3.org/1999/xlink">
<g id="graph0" class="graph" transform="scale(1 1) rotate(0) translate(4 130)">
<title>BParameter.h</title>
<!-- Node12 -->
<g id="node1" class="node">
<title>Node12</title>
<polygon fill="#bfbfbf" stroke="#000000" points="234.5,-108.5 234.5,-125.5 300.5,-125.5 300.5,-108.5 234.5,-108.5"/>
<text text-anchor="middle" x="267.5" y="-115.1" font-family="Helvetica,sans-Serif" font-size="8.00" fill="#000000">BParameter.h</text>
</g>
<!-- Node13 -->
<g id="node2" class="node">
<title>Node13</title>
<g id="a_node2"><a xlink:href="../../d4/d68/_q_c_d_8h.html" target="_top" xlink:title="QCD.h">
<polygon fill="none" stroke="#ff0000" points="209,-54.5 209,-71.5 250,-71.5 250,-54.5 209,-54.5"/>
<text text-anchor="middle" x="229.5" y="-61.1" font-family="Helvetica,sans-Serif" font-size="8.00" fill="#000000">QCD.h</text>
</a>
</g>
</g>
<!-- Node12&#45;&gt;Node13 -->
<g id="edge1" class="edge">
<title>Node12&#45;&gt;Node13</title>
<path fill="none" stroke="#191970" d="M255.4353,-99.8554C248.8553,-90.5048 240.989,-79.3265 235.6582,-71.7511"/>
<polygon fill="#191970" stroke="#191970" points="252.6078,-101.9192 261.2251,-108.083 258.3324,-97.8907 252.6078,-101.9192"/>
</g>
<!-- Node437 -->
<g id="node10" class="node">
<title>Node437</title>
<g id="a_node10"><a xlink:href="../../df/d54/_b_parameter_8cpp.html" target="_top" xlink:title="BParameter.cpp">
<polygon fill="none" stroke="#000000" points="268.5,-54.5 268.5,-71.5 342.5,-71.5 342.5,-54.5 268.5,-54.5"/>
<text text-anchor="middle" x="305.5" y="-61.1" font-family="Helvetica,sans-Serif" font-size="8.00" fill="#000000">BParameter.cpp</text>
</a>
</g>
</g>
<!-- Node12&#45;&gt;Node437 -->
<g id="edge9" class="edge">
<title>Node12&#45;&gt;Node437</title>
<path fill="none" stroke="#191970" d="M279.5647,-99.8554C286.1447,-90.5048 294.011,-79.3265 299.3418,-71.7511"/>
<polygon fill="#191970" stroke="#191970" points="276.6676,-97.8907 273.7749,-108.083 282.3922,-101.9192 276.6676,-97.8907"/>
</g>
<!-- Node14 -->
<g id="node3" class="node">
<title>Node14</title>
<g id="a_node3"><a xlink:href="../../d9/d29/_heff_d_b1_8h.html" target="_top" xlink:title="HeffDB1.h">
<polygon fill="none" stroke="#ff0000" points="0,-.5 0,-17.5 53,-17.5 53,-.5 0,-.5"/>
<text text-anchor="middle" x="26.5" y="-7.1" font-family="Helvetica,sans-Serif" font-size="8.00" fill="#000000">HeffDB1.h</text>
</a>
</g>
</g>
<!-- Node13&#45;&gt;Node14 -->
<g id="edge2" class="edge">
<title>Node13&#45;&gt;Node14</title>
<path fill="none" stroke="#191970" d="M199.0356,-54.8962C159.4266,-44.3598 90.873,-26.1239 53.2042,-16.1036"/>
<polygon fill="#191970" stroke="#191970" points="198.3544,-58.3366 208.9181,-57.525 200.154,-51.5719 198.3544,-58.3366"/>
</g>
<!-- Node21 -->
<g id="node4" class="node">
<title>Node21</title>
<g id="a_node4"><a xlink:href="../../d9/dda/_btaunu_8h.html" target="_top" xlink:title="Btaunu.h">
<polygon fill="none" stroke="#ff0000" points="71,-.5 71,-17.5 120,-17.5 120,-.5 71,-.5"/>
<text text-anchor="middle" x="95.5" y="-7.1" font-family="Helvetica,sans-Serif" font-size="8.00" fill="#000000">Btaunu.h</text>
</a>
</g>
</g>
<!-- Node13&#45;&gt;Node21 -->
<g id="edge3" class="edge">
<title>Node13&#45;&gt;Node21</title>
<path fill="none" stroke="#191970" d="M199.4409,-50.8866C174.3261,-40.7657 139.1371,-26.5851 116.8322,-17.5966"/>
<polygon fill="#191970" stroke="#191970" points="198.2727,-54.1893 208.8562,-54.6808 200.8892,-47.6967 198.2727,-54.1893"/>
</g>
<!-- Node25 -->
<g id="node5" class="node">
<title>Node25</title>
<g id="a_node5"><a xlink:href="../../d3/d50/_b_xqll_8h.html" target="_top" xlink:title="BXqll.h">
<polygon fill="none" stroke="#ff0000" points="138.5,-.5 138.5,-17.5 180.5,-17.5 180.5,-.5 138.5,-.5"/>
<text text-anchor="middle" x="159.5" y="-7.1" font-family="Helvetica,sans-Serif" font-size="8.00" fill="#000000">BXqll.h</text>
</a>
</g>
</g>
<!-- Node13&#45;&gt;Node25 -->
<g id="edge4" class="edge">
<title>Node13&#45;&gt;Node25</title>
<path fill="none" stroke="#191970" d="M210.1862,-48.1008C197.5883,-38.3824 181.5719,-26.0269 170.9513,-17.8339"/>
<polygon fill="#191970" stroke="#191970" points="208.1976,-50.9871 218.2533,-54.324 212.4733,-45.4446 208.1976,-50.9871"/>
</g>
<!-- Node29 -->
<g id="node6" class="node">
<title>Node29</title>
<g id="a_node6"><a xlink:href="../../d6/db8/_evol_d_f1_8cpp.html" target="_top" xlink:title="EvolDF1.cpp">
<polygon fill="none" stroke="#000000" points="198.5,-.5 198.5,-17.5 260.5,-17.5 260.5,-.5 198.5,-.5"/>
<text text-anchor="middle" x="229.5" y="-7.1" font-family="Helvetica,sans-Serif" font-size="8.00" fill="#000000">EvolDF1.cpp</text>
</a>
</g>
</g>
<!-- Node13&#45;&gt;Node29 -->
<g id="edge5" class="edge">
<title>Node13&#45;&gt;Node29</title>
<path fill="none" stroke="#191970" d="M229.5,-43.8045C229.5,-34.9102 229.5,-24.7798 229.5,-17.7511"/>
<polygon fill="#191970" stroke="#191970" points="226.0001,-44.083 229.5,-54.083 233.0001,-44.083 226.0001,-44.083"/>
</g>
<!-- Node30 -->
<g id="node7" class="node">
<title>Node30</title>
<g id="a_node7"><a xlink:href="../../d2/d65/_flavour_8h.html" target="_top" xlink:title="Flavour.h">
<polygon fill="none" stroke="#ff0000" points="278.5,-.5 278.5,-17.5 328.5,-17.5 328.5,-.5 278.5,-.5"/>
<text text-anchor="middle" x="303.5" y="-7.1" font-family="Helvetica,sans-Serif" font-size="8.00" fill="#000000">Flavour.h</text>
</a>
</g>
</g>
<!-- Node13&#45;&gt;Node30 -->
<g id="edge6" class="edge">
<title>Node13&#45;&gt;Node30</title>
<path fill="none" stroke="#191970" d="M249.5343,-48.3804C262.9091,-38.6204 280.0588,-26.1057 291.3943,-17.8339"/>
<polygon fill="#191970" stroke="#191970" points="247.4042,-45.602 241.3894,-54.324 251.5305,-51.2565 247.4042,-45.602"/>
</g>
<!-- Node415 -->
<g id="node8" class="node">
<title>Node415</title>
<g id="a_node8"><a xlink:href="../../dd/ddd/_mll_8h.html" target="_top" xlink:title="Mll.h">
<polygon fill="none" stroke="#ff0000" points="347,-.5 347,-17.5 380,-17.5 380,-.5 347,-.5"/>
<text text-anchor="middle" x="363.5" y="-7.1" font-family="Helvetica,sans-Serif" font-size="8.00" fill="#000000">Mll.h</text>
</a>
</g>
</g>
<!-- Node13&#45;&gt;Node415 -->
<g id="edge7" class="edge">
<title>Node13&#45;&gt;Node415</title>
<path fill="none" stroke="#191970" d="M259.4963,-50.9119C286.4548,-40.048 325.0585,-24.4914 346.8556,-15.7074"/>
<polygon fill="#191970" stroke="#191970" points="258.1108,-47.6967 250.1438,-54.6808 260.7273,-54.1893 258.1108,-47.6967"/>
</g>
<!-- Node416 -->
<g id="node9" class="node">
<title>Node416</title>
<g id="a_node9"><a xlink:href="../../d9/d5a/_m_vll_observables_8h.html" target="_top" xlink:title="MVllObservables.h">
<polygon fill="none" stroke="#ff0000" points="398.5,-.5 398.5,-17.5 482.5,-17.5 482.5,-.5 398.5,-.5"/>
<text text-anchor="middle" x="440.5" y="-7.1" font-family="Helvetica,sans-Serif" font-size="8.00" fill="#000000">MVllObservables.h</text>
</a>
</g>
</g>
<!-- Node13&#45;&gt;Node416 -->
<g id="edge8" class="edge">
<title>Node13&#45;&gt;Node416</title>
<path fill="none" stroke="#191970" d="M259.8163,-54.0147C315.5891,-38.8185 369.3174,-25.7617 403.9653,-17.5413"/>
<polygon fill="#191970" stroke="#191970" points="258.8383,-50.6536 250.1195,-56.673 260.689,-57.4045 258.8383,-50.6536"/>
</g>
</g>
</svg>
