<?xml version="1.0" encoding="UTF-8" standalone="no"?>
<!DOCTYPE svg PUBLIC "-//W3C//DTD SVG 1.1//EN"
 "http://www.w3.org/Graphics/SVG/1.1/DTD/svg11.dtd">
<!-- Generated by graphviz version 2.40.1 (20161225.0304)
 -->
<!-- Title: ExtendedMass.hpp Pages: 1 -->
<svg width="727pt" height="305pt"
 viewBox="0.00 0.00 727.28 305.00" xmlns="http://www.w3.org/2000/svg" xmlns:xlink="http://www.w3.org/1999/xlink">
<g id="graph0" class="graph" transform="scale(1 1) rotate(0) translate(4 301)">
<title>ExtendedMass.hpp</title>
<!-- Node40 -->
<g id="node1" class="node">
<title>Node40</title>
<polygon fill="#bfbfbf" stroke="#000000" points="278.2771,-279.5 278.2771,-296.5 363.2771,-296.5 363.2771,-279.5 278.2771,-279.5"/>
<text text-anchor="middle" x="320.7771" y="-286.1" font-family="Helvetica,sans-Serif" font-size="8.00" fill="#000000">ExtendedMass.hpp</text>
</g>
<!-- Node41 -->
<g id="node2" class="node">
<title>Node41</title>
<g id="a_node2"><a xlink:href="../../d0/d2e/_mass_eigenstate_8hpp.html" target="_top" xlink:title="MassEigenstate.hpp">
<polygon fill="none" stroke="#000000" points="39.2771,-221 39.2771,-238 128.2771,-238 128.2771,-221 39.2771,-221"/>
<text text-anchor="middle" x="83.7771" y="-227.6" font-family="Helvetica,sans-Serif" font-size="8.00" fill="#000000">MassEigenstate.hpp</text>
</a>
</g>
</g>
<!-- Node40&#45;&gt;Node41 -->
<g id="edge1" class="edge">
<title>Node40&#45;&gt;Node41</title>
<path fill="none" stroke="#191970" d="M276.3675,-277.0382C230.5563,-265.7303 160.0737,-248.3327 118.2805,-238.0167"/>
<polygon fill="#191970" stroke="#191970" points="275.7678,-280.4951 286.3152,-279.4936 277.4454,-273.6991 275.7678,-280.4951"/>
</g>
<!-- Node45 -->
<g id="node4" class="node">
<title>Node45</title>
<g id="a_node4"><a xlink:href="../../dd/d0e/_m_e_c_8hpp.html" target="_top" xlink:title="MEC.hpp">
<polygon fill="none" stroke="#ff0000" points="44.7771,-54.5 44.7771,-71.5 94.7771,-71.5 94.7771,-54.5 44.7771,-54.5"/>
<text text-anchor="middle" x="69.7771" y="-61.1" font-family="Helvetica,sans-Serif" font-size="8.00" fill="#000000">MEC.hpp</text>
</a>
</g>
</g>
<!-- Node40&#45;&gt;Node45 -->
<g id="edge9" class="edge">
<title>Node40&#45;&gt;Node45</title>
<path fill="none" stroke="#191970" d="M268.435,-280.5525C243.3141,-274.4203 214.6493,-263.2656 195.7771,-243 153.298,-197.3846 197.2725,-156.2219 157.7771,-108 141.6854,-88.3528 114.7876,-76.3824 94.9566,-69.7792"/>
<polygon fill="#191970" stroke="#191970" points="267.6978,-283.974 278.2204,-282.7386 269.2241,-277.1424 267.6978,-283.974"/>
</g>
<!-- Node128 -->
<g id="node7" class="node">
<title>Node128</title>
<g id="a_node7"><a xlink:href="../../d2/d6b/_interpreter_template_8hpp.html" target="_top" xlink:title="InterpreterTemplate.hpp">
<polygon fill="none" stroke="#ff0000" points="204.7771,-221 204.7771,-238 306.7771,-238 306.7771,-221 204.7771,-221"/>
<text text-anchor="middle" x="255.7771" y="-227.6" font-family="Helvetica,sans-Serif" font-size="8.00" fill="#000000">InterpreterTemplate.hpp</text>
</a>
</g>
</g>
<!-- Node40&#45;&gt;Node128 -->
<g id="edge10" class="edge">
<title>Node40&#45;&gt;Node128</title>
<path fill="none" stroke="#191970" d="M303.4527,-272.408C291.2658,-261.4399 275.4079,-247.1677 265.4074,-238.1673"/>
<polygon fill="#191970" stroke="#191970" points="301.4117,-275.28 311.1861,-279.3681 306.0945,-270.0769 301.4117,-275.28"/>
</g>
<!-- Node142 -->
<g id="node8" class="node">
<title>Node142</title>
<g id="a_node8"><a xlink:href="../../d5/db2/_doubly_indexed_multiple_entries_block_8hpp.html" target="_top" xlink:title="DoublyIndexedMultipleEntries\lBlock.hpp">
<polygon fill="none" stroke="#ff0000" points="324.7771,-216.5 324.7771,-242.5 446.7771,-242.5 446.7771,-216.5 324.7771,-216.5"/>
<text text-anchor="start" x="332.7771" y="-232.1" font-family="Helvetica,sans-Serif" font-size="8.00" fill="#000000">DoublyIndexedMultipleEntries</text>
<text text-anchor="middle" x="385.7771" y="-223.1" font-family="Helvetica,sans-Serif" font-size="8.00" fill="#000000">Block.hpp</text>
</a>
</g>
</g>
<!-- Node40&#45;&gt;Node142 -->
<g id="edge11" class="edge">
<title>Node40&#45;&gt;Node142</title>
<path fill="none" stroke="#191970" d="M337.9562,-272.5388C348.2702,-263.2562 361.2536,-251.5711 371.0885,-242.7197"/>
<polygon fill="#191970" stroke="#191970" points="335.4596,-270.0769 330.368,-279.3681 340.1424,-275.28 335.4596,-270.0769"/>
</g>
<!-- Node144 -->
<g id="node9" class="node">
<title>Node144</title>
<g id="a_node9"><a xlink:href="../../dd/d26/_singly_indexed_multiple_entries_block_8hpp.html" target="_top" xlink:title="SinglyIndexedMultipleEntries\lBlock.hpp">
<polygon fill="none" stroke="#ff0000" points="465.2771,-216.5 465.2771,-242.5 584.2771,-242.5 584.2771,-216.5 465.2771,-216.5"/>
<text text-anchor="start" x="473.2771" y="-232.1" font-family="Helvetica,sans-Serif" font-size="8.00" fill="#000000">SinglyIndexedMultipleEntries</text>
<text text-anchor="middle" x="524.7771" y="-223.1" font-family="Helvetica,sans-Serif" font-size="8.00" fill="#000000">Block.hpp</text>
</a>
</g>
</g>
<!-- Node40&#45;&gt;Node144 -->
<g id="edge12" class="edge">
<title>Node40&#45;&gt;Node144</title>
<path fill="none" stroke="#191970" d="M360.056,-276.7362C394.126,-266.9661 443.4553,-252.8202 479.2435,-242.5574"/>
<polygon fill="#191970" stroke="#191970" points="359.0882,-273.3726 350.4404,-279.4936 361.0178,-280.1014 359.0882,-273.3726"/>
</g>
<!-- Node146 -->
<g id="node10" class="node">
<title>Node146</title>
<g id="a_node10"><a xlink:href="../../de/dbb/_triply_indexed_multiple_entries_block_8hpp.html" target="_top" xlink:title="TriplyIndexedMultipleEntries\lBlock.hpp">
<polygon fill="none" stroke="#ff0000" points="602.2771,-216.5 602.2771,-242.5 719.2771,-242.5 719.2771,-216.5 602.2771,-216.5"/>
<text text-anchor="start" x="610.2771" y="-232.1" font-family="Helvetica,sans-Serif" font-size="8.00" fill="#000000">TriplyIndexedMultipleEntries</text>
<text text-anchor="middle" x="660.7771" y="-223.1" font-family="Helvetica,sans-Serif" font-size="8.00" fill="#000000">Block.hpp</text>
</a>
</g>
</g>
<!-- Node40&#45;&gt;Node146 -->
<g id="edge13" class="edge">
<title>Node40&#45;&gt;Node146</title>
<path fill="none" stroke="#191970" d="M373.6313,-279.8569C428.696,-271.24 517.4279,-256.9799 593.7771,-243 596.4616,-242.5085 599.2045,-241.9963 601.9737,-241.4711"/>
<polygon fill="#191970" stroke="#191970" points="372.7572,-276.4509 363.4165,-281.4511 373.8367,-283.3672 372.7572,-276.4509"/>
</g>
<!-- Node42 -->
<g id="node3" class="node">
<title>Node42</title>
<g id="a_node3"><a xlink:href="../../dc/db9/_mass_spectrum_8hpp.html" target="_top" xlink:title="MassSpectrum.hpp">
<polygon fill="none" stroke="#ff0000" points="63.2771,-108.5 63.2771,-125.5 148.2771,-125.5 148.2771,-108.5 63.2771,-108.5"/>
<text text-anchor="middle" x="105.7771" y="-115.1" font-family="Helvetica,sans-Serif" font-size="8.00" fill="#000000">MassSpectrum.hpp</text>
</a>
</g>
</g>
<!-- Node41&#45;&gt;Node42 -->
<g id="edge2" class="edge">
<title>Node41&#45;&gt;Node42</title>
<path fill="none" stroke="#191970" d="M99.8878,-212.9783C107.5068,-204.003 115.7927,-192.2527 119.7771,-180 125.9445,-161.0339 116.7669,-137.9846 110.6018,-125.6996"/>
<polygon fill="#191970" stroke="#191970" points="97.0557,-210.8921 92.9496,-220.659 102.2502,-215.5845 97.0557,-210.8921"/>
</g>
<!-- Node41&#45;&gt;Node45 -->
<g id="edge8" class="edge">
<title>Node41&#45;&gt;Node45</title>
<path fill="none" stroke="#191970" d="M49.1278,-216.7864C32.8779,-208.8705 15.0779,-196.9181 5.7771,-180 -16.5309,-139.422 35.0798,-90.836 58.727,-71.5213"/>
<polygon fill="#191970" stroke="#191970" points="47.8857,-220.0657 58.4404,-220.9878 50.7644,-213.685 47.8857,-220.0657"/>
</g>
<!-- Node127 -->
<g id="node6" class="node">
<title>Node127</title>
<g id="a_node6"><a xlink:href="../../d5/dc2/_spectrum_updater_8hpp.html" target="_top" xlink:title="SpectrumUpdater.hpp">
<polygon fill="none" stroke="#ff0000" points="15.2771,-162.5 15.2771,-179.5 110.2771,-179.5 110.2771,-162.5 15.2771,-162.5"/>
<text text-anchor="middle" x="62.7771" y="-169.1" font-family="Helvetica,sans-Serif" font-size="8.00" fill="#000000">SpectrumUpdater.hpp</text>
</a>
</g>
</g>
<!-- Node41&#45;&gt;Node127 -->
<g id="edge5" class="edge">
<title>Node41&#45;&gt;Node127</title>
<path fill="none" stroke="#191970" d="M77.2517,-211.3222C73.4657,-200.7753 68.8708,-187.9754 65.8884,-179.6673"/>
<polygon fill="#191970" stroke="#191970" points="74.0056,-212.6387 80.6785,-220.8681 80.5939,-210.2736 74.0056,-212.6387"/>
</g>
<!-- Node42&#45;&gt;Node45 -->
<g id="edge3" class="edge">
<title>Node42&#45;&gt;Node45</title>
<path fill="none" stroke="#191970" d="M94.1541,-99.5656C87.9602,-90.2747 80.6093,-79.2484 75.6111,-71.7511"/>
<polygon fill="#191970" stroke="#191970" points="91.3732,-101.7039 99.8324,-108.083 97.1975,-97.821 91.3732,-101.7039"/>
</g>
<!-- Node46 -->
<g id="node5" class="node">
<title>Node46</title>
<g id="a_node5"><a xlink:href="../../dd/d50/_standard_preselector_8hpp.html" target="_top" xlink:title="StandardPreselector.hpp">
<polygon fill="none" stroke="#ff0000" points="17.2771,-.5 17.2771,-17.5 122.2771,-17.5 122.2771,-.5 17.2771,-.5"/>
<text text-anchor="middle" x="69.7771" y="-7.1" font-family="Helvetica,sans-Serif" font-size="8.00" fill="#000000">StandardPreselector.hpp</text>
</a>
</g>
</g>
<!-- Node45&#45;&gt;Node46 -->
<g id="edge4" class="edge">
<title>Node45&#45;&gt;Node46</title>
<path fill="none" stroke="#191970" d="M69.7771,-43.8045C69.7771,-34.9102 69.7771,-24.7798 69.7771,-17.7511"/>
<polygon fill="#191970" stroke="#191970" points="66.2772,-44.083 69.7771,-54.083 73.2772,-44.083 66.2772,-44.083"/>
</g>
<!-- Node127&#45;&gt;Node42 -->
<g id="edge6" class="edge">
<title>Node127&#45;&gt;Node42</title>
<path fill="none" stroke="#191970" d="M76.1995,-154.144C83.6912,-144.7357 92.7142,-133.4046 98.8086,-125.7511"/>
<polygon fill="#191970" stroke="#191970" points="73.369,-152.0799 69.8776,-162.083 78.8449,-156.4404 73.369,-152.0799"/>
</g>
<!-- Node127&#45;&gt;Node45 -->
<g id="edge7" class="edge">
<title>Node127&#45;&gt;Node45</title>
<path fill="none" stroke="#191970" d="M57.129,-152.6708C53.9898,-140.0769 51.1916,-122.9894 53.7771,-108 56.0321,-94.9264 61.7184,-80.6167 65.6659,-71.7229"/>
<polygon fill="#191970" stroke="#191970" points="53.7893,-153.7247 59.8487,-162.4157 60.5316,-151.8429 53.7893,-153.7247"/>
</g>
</g>
</svg>
