<?xml version="1.0" encoding="UTF-8" standalone="no"?>
<!DOCTYPE svg PUBLIC "-//W3C//DTD SVG 1.1//EN"
 "http://www.w3.org/Graphics/SVG/1.1/DTD/svg11.dtd">
<!-- Generated by graphviz version 2.40.1 (20161225.0304)
 -->
<!-- Title: NPHiggs.h Pages: 1 -->
<svg width="170pt" height="80pt"
 viewBox="0.00 0.00 169.50 80.00" xmlns="http://www.w3.org/2000/svg" xmlns:xlink="http://www.w3.org/1999/xlink">
<g id="graph0" class="graph" transform="scale(1 1) rotate(0) translate(4 76)">
<title>NPHiggs.h</title>
<!-- Node50 -->
<g id="node1" class="node">
<title>Node50</title>
<polygon fill="#bfbfbf" stroke="#000000" points="57.5,-54.5 57.5,-71.5 112.5,-71.5 112.5,-54.5 57.5,-54.5"/>
<text text-anchor="middle" x="85" y="-61.1" font-family="Helvetica,sans-Serif" font-size="8.00" fill="#000000">NPHiggs.h</text>
</g>
<!-- Node51 -->
<g id="node2" class="node">
<title>Node51</title>
<g id="a_node2"><a xlink:href="../../d3/df6/_model_factory_8cpp.html" target="_top" xlink:title="ModelFactory.cpp">
<polygon fill="none" stroke="#000000" points="0,-.5 0,-17.5 80,-17.5 80,-.5 0,-.5"/>
<text text-anchor="middle" x="40" y="-7.1" font-family="Helvetica,sans-Serif" font-size="8.00" fill="#000000">ModelFactory.cpp</text>
</a>
</g>
</g>
<!-- Node50&#45;&gt;Node51 -->
<g id="edge1" class="edge">
<title>Node50&#45;&gt;Node51</title>
<path fill="none" stroke="#191970" d="M70.9533,-46.144C63.1131,-36.7357 53.6705,-25.4046 47.2926,-17.7511"/>
<polygon fill="#191970" stroke="#191970" points="68.4785,-48.6414 77.5692,-54.083 73.8561,-44.1601 68.4785,-48.6414"/>
</g>
<!-- Node52 -->
<g id="node3" class="node">
<title>Node52</title>
<g id="a_node3"><a xlink:href="../../df/dac/_n_p_higgs_8cpp.html" target="_top" xlink:title="NPHiggs.cpp">
<polygon fill="none" stroke="#000000" points="98.5,-.5 98.5,-17.5 161.5,-17.5 161.5,-.5 98.5,-.5"/>
<text text-anchor="middle" x="130" y="-7.1" font-family="Helvetica,sans-Serif" font-size="8.00" fill="#000000">NPHiggs.cpp</text>
</a>
</g>
</g>
<!-- Node50&#45;&gt;Node52 -->
<g id="edge2" class="edge">
<title>Node50&#45;&gt;Node52</title>
<path fill="none" stroke="#191970" d="M99.0467,-46.144C106.8869,-36.7357 116.3295,-25.4046 122.7074,-17.7511"/>
<polygon fill="#191970" stroke="#191970" points="96.1439,-44.1601 92.4308,-54.083 101.5215,-48.6414 96.1439,-44.1601"/>
</g>
</g>
</svg>
