<?xml version="1.0" encoding="UTF-8" standalone="no"?>
<!DOCTYPE svg PUBLIC "-//W3C//DTD SVG 1.1//EN"
 "http://www.w3.org/Graphics/SVG/1.1/DTD/svg11.dtd">
<!-- Generated by graphviz version 2.40.1 (20161225.0304)
 -->
<!-- Title: RunningConstantError.hpp Pages: 1 -->
<svg width="539pt" height="242pt"
 viewBox="0.00 0.00 538.97 242.00" xmlns="http://www.w3.org/2000/svg" xmlns:xlink="http://www.w3.org/1999/xlink">
<g id="graph0" class="graph" transform="scale(1 1) rotate(0) translate(4 238)">
<title>RunningConstantError.hpp</title>
<!-- Node0 -->
<g id="node1" class="node">
<title>Node0</title>
<polygon fill="#bfbfbf" stroke="#000000" points="20.9666,-216.5 20.9666,-233.5 132.9666,-233.5 132.9666,-216.5 20.9666,-216.5"/>
<text text-anchor="middle" x="76.9666" y="-223.1" font-family="Helvetica,sans-Serif" font-size="8.00" fill="#000000">RunningConstantError.hpp</text>
</g>
<!-- Node1 -->
<g id="node2" class="node">
<title>Node1</title>
<polygon fill="none" stroke="#bfbfbf" points="10.9666,-.5 10.9666,-17.5 46.9666,-17.5 46.9666,-.5 10.9666,-.5"/>
<text text-anchor="middle" x="28.9666" y="-7.1" font-family="Helvetica,sans-Serif" font-size="8.00" fill="#000000">string</text>
</g>
<!-- Node0&#45;&gt;Node1 -->
<g id="edge1" class="edge">
<title>Node0&#45;&gt;Node1</title>
<path fill="none" stroke="#191970" d="M67.4394,-216.3379C50.7132,-200.4076 16.6407,-164.544 3.9666,-126 -7.3371,-91.6237 8.3229,-49.8494 19.482,-26.6673"/>
<polygon fill="#191970" stroke="#191970" points="22.6375,-28.1832 24.0383,-17.6814 16.3942,-25.0175 22.6375,-28.1832"/>
</g>
<!-- Node2 -->
<g id="node3" class="node">
<title>Node2</title>
<g id="a_node3"><a xlink:href="../../d8/d14/_b_o_llib_8hpp.html" target="_top" xlink:title="BOLlib/include/BOLlib.hpp">
<polygon fill="none" stroke="#ff0000" points="152.9666,-162.5 152.9666,-179.5 262.9666,-179.5 262.9666,-162.5 152.9666,-162.5"/>
<text text-anchor="middle" x="207.9666" y="-169.1" font-family="Helvetica,sans-Serif" font-size="8.00" fill="#000000">BOLlib/include/BOLlib.hpp</text>
</a>
</g>
</g>
<!-- Node0&#45;&gt;Node2 -->
<g id="edge2" class="edge">
<title>Node0&#45;&gt;Node2</title>
<path fill="none" stroke="#191970" d="M97.724,-216.4435C119.283,-207.5566 153.23,-193.5632 177.7604,-183.4514"/>
<polygon fill="#191970" stroke="#191970" points="179.395,-186.5634 187.3064,-179.5164 176.7272,-180.0917 179.395,-186.5634"/>
</g>
<!-- Node3 -->
<g id="node4" class="node">
<title>Node3</title>
<g id="a_node4"><a xlink:href="../../dc/d4c/_argument_parser_8hpp.html" target="_top" xlink:title="ArgumentParser.hpp">
<polygon fill="none" stroke="#ff0000" points="12.9666,-108.5 12.9666,-125.5 102.9666,-125.5 102.9666,-108.5 12.9666,-108.5"/>
<text text-anchor="middle" x="57.9666" y="-115.1" font-family="Helvetica,sans-Serif" font-size="8.00" fill="#000000">ArgumentParser.hpp</text>
</a>
</g>
</g>
<!-- Node2&#45;&gt;Node3 -->
<g id="edge3" class="edge">
<title>Node2&#45;&gt;Node3</title>
<path fill="none" stroke="#191970" d="M184.1987,-162.4435C159.0738,-153.3986 119.2556,-139.064 91.0662,-128.9158"/>
<polygon fill="#191970" stroke="#191970" points="92.2178,-125.6106 81.6234,-125.5164 89.8467,-132.1968 92.2178,-125.6106"/>
</g>
<!-- Node6 -->
<g id="node5" class="node">
<title>Node6</title>
<g id="a_node5"><a xlink:href="../../d4/dbc/_ascii_xml_parser_8hpp.html" target="_top" xlink:title="AsciiXmlParser.hpp">
<polygon fill="none" stroke="#ff0000" points="56.9666,-54.5 56.9666,-71.5 142.9666,-71.5 142.9666,-54.5 56.9666,-54.5"/>
<text text-anchor="middle" x="99.9666" y="-61.1" font-family="Helvetica,sans-Serif" font-size="8.00" fill="#000000">AsciiXmlParser.hpp</text>
</a>
</g>
</g>
<!-- Node2&#45;&gt;Node6 -->
<g id="edge7" class="edge">
<title>Node2&#45;&gt;Node6</title>
<path fill="none" stroke="#191970" d="M199.1285,-162.1619C180.9224,-143.9558 139.0139,-102.0473 115.9338,-78.9672"/>
<polygon fill="#191970" stroke="#191970" points="118.171,-76.2546 108.625,-71.6584 113.2212,-81.2043 118.171,-76.2546"/>
</g>
<!-- Node20 -->
<g id="node6" class="node">
<title>Node20</title>
<g id="a_node6"><a xlink:href="../../da/d0a/_balanced_partition_candidate_8hpp.html" target="_top" xlink:title="BalancedPartitionCandidate.hpp">
<polygon fill="none" stroke="#ff0000" points="173.4666,-54.5 173.4666,-71.5 304.4666,-71.5 304.4666,-54.5 173.4666,-54.5"/>
<text text-anchor="middle" x="238.9666" y="-61.1" font-family="Helvetica,sans-Serif" font-size="8.00" fill="#000000">BalancedPartitionCandidate.hpp</text>
</a>
</g>
</g>
<!-- Node2&#45;&gt;Node20 -->
<g id="edge8" class="edge">
<title>Node2&#45;&gt;Node20</title>
<path fill="none" stroke="#191970" d="M201.188,-162.2035C192.5159,-149.8035 179.5648,-126.6183 187.9666,-108 193.5825,-95.5553 204.5293,-85.1723 214.8458,-77.5273"/>
<polygon fill="#191970" stroke="#191970" points="216.973,-80.3123 223.2327,-71.7643 213.0087,-74.5431 216.973,-80.3123"/>
</g>
<!-- Node21 -->
<g id="node7" class="node">
<title>Node21</title>
<g id="a_node7"><a xlink:href="../../d8/d03/_balanced_partitioner_8hpp.html" target="_top" xlink:title="BalancedPartitioner.hpp">
<polygon fill="none" stroke="#ff0000" points="196.9666,-108.5 196.9666,-125.5 298.9666,-125.5 298.9666,-108.5 196.9666,-108.5"/>
<text text-anchor="middle" x="247.9666" y="-115.1" font-family="Helvetica,sans-Serif" font-size="8.00" fill="#000000">BalancedPartitioner.hpp</text>
</a>
</g>
</g>
<!-- Node2&#45;&gt;Node21 -->
<g id="edge9" class="edge">
<title>Node2&#45;&gt;Node21</title>
<path fill="none" stroke="#191970" d="M214.5718,-162.083C220.2219,-154.4554 228.5115,-143.2645 235.4179,-133.9408"/>
<polygon fill="#191970" stroke="#191970" points="238.3445,-135.87 241.4843,-125.7511 232.7196,-131.7034 238.3445,-135.87"/>
</g>
<!-- Node22 -->
<g id="node8" class="node">
<title>Node22</title>
<g id="a_node8"><a xlink:href="../../da/dab/_basic_observed_8hpp.html" target="_top" xlink:title="BasicObserved.hpp">
<polygon fill="none" stroke="#ff0000" points="316.9666,-108.5 316.9666,-125.5 402.9666,-125.5 402.9666,-108.5 316.9666,-108.5"/>
<text text-anchor="middle" x="359.9666" y="-115.1" font-family="Helvetica,sans-Serif" font-size="8.00" fill="#000000">BasicObserved.hpp</text>
</a>
</g>
</g>
<!-- Node2&#45;&gt;Node22 -->
<g id="edge11" class="edge">
<title>Node2&#45;&gt;Node22</title>
<path fill="none" stroke="#191970" d="M232.0515,-162.4435C257.5113,-153.3986 297.8604,-139.064 326.4257,-128.9158"/>
<polygon fill="#191970" stroke="#191970" points="327.7431,-132.1622 335.9944,-125.5164 325.3997,-125.5661 327.7431,-132.1622"/>
</g>
<!-- Node23 -->
<g id="node9" class="node">
<title>Node23</title>
<g id="a_node9"><a xlink:href="../../d7/dab/_basic_observer_8hpp.html" target="_top" xlink:title="BasicObserver.hpp">
<polygon fill="none" stroke="#ff0000" points="325.4666,-54.5 325.4666,-71.5 410.4666,-71.5 410.4666,-54.5 325.4666,-54.5"/>
<text text-anchor="middle" x="367.9666" y="-61.1" font-family="Helvetica,sans-Serif" font-size="8.00" fill="#000000">BasicObserver.hpp</text>
</a>
</g>
</g>
<!-- Node2&#45;&gt;Node23 -->
<g id="edge13" class="edge">
<title>Node2&#45;&gt;Node23</title>
<path fill="none" stroke="#191970" d="M263.0892,-166.4907C316.9989,-160.8014 393.5951,-148.8658 411.9666,-126 424.7035,-110.1473 406.673,-90.8372 389.9991,-77.8073"/>
<polygon fill="#191970" stroke="#191970" points="391.7047,-74.7173 381.5734,-71.6175 387.5603,-80.3587 391.7047,-74.7173"/>
</g>
<!-- Node24 -->
<g id="node10" class="node">
<title>Node24</title>
<g id="a_node10"><a xlink:href="../../d4/d14/_basic_timer_8hpp.html" target="_top" xlink:title="BasicTimer.hpp">
<polygon fill="none" stroke="#ff0000" points="458.9666,-108.5 458.9666,-125.5 530.9666,-125.5 530.9666,-108.5 458.9666,-108.5"/>
<text text-anchor="middle" x="494.9666" y="-115.1" font-family="Helvetica,sans-Serif" font-size="8.00" fill="#000000">BasicTimer.hpp</text>
</a>
</g>
</g>
<!-- Node2&#45;&gt;Node24 -->
<g id="edge14" class="edge">
<title>Node2&#45;&gt;Node24</title>
<path fill="none" stroke="#191970" d="M253.4426,-162.4435C306.8987,-152.3856 395.1178,-135.7869 448.8499,-125.677"/>
<polygon fill="#191970" stroke="#191970" points="449.6102,-129.0955 458.7905,-123.8067 448.3158,-122.2162 449.6102,-129.0955"/>
</g>
<!-- Node3&#45;&gt;Node1 -->
<g id="edge4" class="edge">
<title>Node3&#45;&gt;Node1</title>
<path fill="none" stroke="#191970" d="M55.5934,-108.1619C50.8755,-90.5918 40.23,-50.9465 33.9216,-27.4532"/>
<polygon fill="#191970" stroke="#191970" points="37.2652,-26.4086 31.2915,-17.6584 30.5047,-28.2239 37.2652,-26.4086"/>
</g>
<!-- Node3&#45;&gt;Node6 -->
<g id="edge5" class="edge">
<title>Node3&#45;&gt;Node6</title>
<path fill="none" stroke="#191970" d="M64.9021,-108.083C70.8958,-100.3768 79.7185,-89.0333 87.0142,-79.6531"/>
<polygon fill="#191970" stroke="#191970" points="89.7835,-81.7934 93.1602,-71.7511 84.258,-77.4958 89.7835,-81.7934"/>
</g>
<!-- Node6&#45;&gt;Node1 -->
<g id="edge6" class="edge">
<title>Node6&#45;&gt;Node1</title>
<path fill="none" stroke="#191970" d="M88.5592,-54.324C77.8578,-46.1849 61.6259,-33.8395 48.8038,-24.0874"/>
<polygon fill="#191970" stroke="#191970" points="50.6598,-21.1018 40.5816,-17.8339 46.4222,-26.6734 50.6598,-21.1018"/>
</g>
<!-- Node21&#45;&gt;Node20 -->
<g id="edge10" class="edge">
<title>Node21&#45;&gt;Node20</title>
<path fill="none" stroke="#191970" d="M246.4805,-108.083C245.2878,-100.9272 243.5725,-90.6353 242.0818,-81.6911"/>
<polygon fill="#191970" stroke="#191970" points="245.5216,-81.0396 240.4251,-71.7511 238.6168,-82.1904 245.5216,-81.0396"/>
</g>
<!-- Node22&#45;&gt;Node23 -->
<g id="edge12" class="edge">
<title>Node22&#45;&gt;Node23</title>
<path fill="none" stroke="#191970" d="M361.2877,-108.083C362.3478,-100.9272 363.8725,-90.6353 365.1976,-81.6911"/>
<polygon fill="#191970" stroke="#191970" points="368.6668,-82.1561 366.6702,-71.7511 361.7424,-81.1302 368.6668,-82.1561"/>
</g>
</g>
</svg>
