<?xml version="1.0" encoding="UTF-8" standalone="no"?>
<!DOCTYPE svg PUBLIC "-//W3C//DTD SVG 1.1//EN"
 "http://www.w3.org/Graphics/SVG/1.1/DTD/svg11.dtd">
<!-- Generated by graphviz version 2.40.1 (20161225.0304)
 -->
<!-- Title: SJPsiK.h Pages: 1 -->
<svg width="178pt" height="134pt"
 viewBox="0.00 0.00 178.00 134.00" xmlns="http://www.w3.org/2000/svg" xmlns:xlink="http://www.w3.org/1999/xlink">
<g id="graph0" class="graph" transform="scale(1 1) rotate(0) translate(4 130)">
<title>SJPsiK.h</title>
<!-- Node22 -->
<g id="node1" class="node">
<title>Node22</title>
<polygon fill="#bfbfbf" stroke="#000000" points="70,-108.5 70,-125.5 119,-125.5 119,-108.5 70,-108.5"/>
<text text-anchor="middle" x="94.5" y="-115.1" font-family="Helvetica,sans-Serif" font-size="8.00" fill="#000000">SJPsiK.h</text>
</g>
<!-- Node23 -->
<g id="node2" class="node">
<title>Node23</title>
<g id="a_node2"><a xlink:href="../../df/d7a/_flavour_observables_8h.html" target="_top" xlink:title="FlavourObservables.h">
<polygon fill="none" stroke="#000000" points="0,-54.5 0,-71.5 95,-71.5 95,-54.5 0,-54.5"/>
<text text-anchor="middle" x="47.5" y="-61.1" font-family="Helvetica,sans-Serif" font-size="8.00" fill="#000000">FlavourObservables.h</text>
</a>
</g>
</g>
<!-- Node22&#45;&gt;Node23 -->
<g id="edge1" class="edge">
<title>Node22&#45;&gt;Node23</title>
<path fill="none" stroke="#191970" d="M80.0792,-100.4314C71.8419,-90.9673 61.8461,-79.4827 55.1167,-71.7511"/>
<polygon fill="#191970" stroke="#191970" points="77.5336,-102.8378 86.7389,-108.083 82.8137,-98.2421 77.5336,-102.8378"/>
</g>
<!-- Node25 -->
<g id="node4" class="node">
<title>Node25</title>
<g id="a_node4"><a xlink:href="../../d7/db9/_s_j_psi_k_8cpp.html" target="_top" xlink:title="SJPsiK.cpp">
<polygon fill="none" stroke="#000000" points="113,-54.5 113,-71.5 170,-71.5 170,-54.5 113,-54.5"/>
<text text-anchor="middle" x="141.5" y="-61.1" font-family="Helvetica,sans-Serif" font-size="8.00" fill="#000000">SJPsiK.cpp</text>
</a>
</g>
</g>
<!-- Node22&#45;&gt;Node25 -->
<g id="edge3" class="edge">
<title>Node22&#45;&gt;Node25</title>
<path fill="none" stroke="#191970" d="M108.9208,-100.4314C117.1581,-90.9673 127.1539,-79.4827 133.8833,-71.7511"/>
<polygon fill="#191970" stroke="#191970" points="106.1863,-98.2421 102.2611,-108.083 111.4664,-102.8378 106.1863,-98.2421"/>
</g>
<!-- Node24 -->
<g id="node3" class="node">
<title>Node24</title>
<g id="a_node3"><a xlink:href="../../d1/de2/_th_obs_factory_8cpp.html" target="_top" xlink:title="ThObsFactory.cpp">
<polygon fill="none" stroke="#000000" points="6.5,-.5 6.5,-17.5 88.5,-17.5 88.5,-.5 6.5,-.5"/>
<text text-anchor="middle" x="47.5" y="-7.1" font-family="Helvetica,sans-Serif" font-size="8.00" fill="#000000">ThObsFactory.cpp</text>
</a>
</g>
</g>
<!-- Node23&#45;&gt;Node24 -->
<g id="edge2" class="edge">
<title>Node23&#45;&gt;Node24</title>
<path fill="none" stroke="#191970" d="M47.5,-43.8045C47.5,-34.9102 47.5,-24.7798 47.5,-17.7511"/>
<polygon fill="#191970" stroke="#191970" points="44.0001,-44.083 47.5,-54.083 51.0001,-44.083 44.0001,-44.083"/>
</g>
</g>
</svg>
