<?xml version="1.0" encoding="UTF-8" standalone="no"?>
<!DOCTYPE svg PUBLIC "-//W3C//DTD SVG 1.1//EN"
 "http://www.w3.org/Graphics/SVG/1.1/DTD/svg11.dtd">
<!-- Generated by graphviz version 2.40.1 (20161225.0304)
 -->
<!-- Title: Bsgamma Pages: 1 -->
<svg width="597pt" height="332pt"
 viewBox="0.00 0.00 596.50 332.00" xmlns="http://www.w3.org/2000/svg" xmlns:xlink="http://www.w3.org/1999/xlink">
<g id="graph0" class="graph" transform="scale(1 1) rotate(0) translate(4 328)">
<title>Bsgamma</title>
<!-- Node2 -->
<g id="node1" class="node">
<title>Node2</title>
<polygon fill="#bfbfbf" stroke="#000000" points="399.0018,-.5 399.0018,-17.5 452.0018,-17.5 452.0018,-.5 399.0018,-.5"/>
<text text-anchor="middle" x="425.5018" y="-7.1" font-family="Helvetica,sans-Serif" font-size="8.00" fill="#000000">Bsgamma</text>
</g>
<!-- Node3 -->
<g id="node2" class="node">
<title>Node3</title>
<g id="a_node2"><a xlink:href="../../dc/d1f/class_th_observable.html" target="_top" xlink:title="A class for a model prediction of an observable. ">
<polygon fill="none" stroke="#000000" points="234.0018,-77 234.0018,-94 301.0018,-94 301.0018,-77 234.0018,-77"/>
<text text-anchor="middle" x="267.5018" y="-83.6" font-family="Helvetica,sans-Serif" font-size="8.00" fill="#000000">ThObservable</text>
</a>
</g>
</g>
<!-- Node3&#45;&gt;Node2 -->
<g id="edge1" class="edge">
<title>Node3&#45;&gt;Node2</title>
<path fill="none" stroke="#191970" d="M294.621,-72.3695C326.9009,-56.7403 379.8976,-31.0805 407.507,-17.7127"/>
<polygon fill="#191970" stroke="#191970" points="292.7945,-69.3651 285.3193,-76.8732 295.8451,-75.6655 292.7945,-69.3651"/>
</g>
<!-- Node4 -->
<g id="node3" class="node">
<title>Node4</title>
<g id="a_node3"><a xlink:href="../../dc/dd5/class_standard_model.html" target="_top" xlink:title="A model class for the Standard Model. ">
<polygon fill="none" stroke="#ff0000" points="99.0018,-234.5 99.0018,-251.5 170.0018,-251.5 170.0018,-234.5 99.0018,-234.5"/>
<text text-anchor="middle" x="134.5018" y="-241.1" font-family="Helvetica,sans-Serif" font-size="8.00" fill="#000000">StandardModel</text>
</a>
</g>
</g>
<!-- Node4&#45;&gt;Node3 -->
<g id="edge2" class="edge">
<title>Node4&#45;&gt;Node3</title>
<path fill="none" stroke="#9a32cd" stroke-dasharray="5,2" d="M148.7086,-226.1762C176.8197,-192.8867 238.6674,-119.6461 260.0527,-94.3213"/>
<polygon fill="#9a32cd" stroke="#9a32cd" points="145.8113,-224.1824 142.0335,-234.0808 151.1595,-228.6987 145.8113,-224.1824"/>
<text text-anchor="middle" x="247.0018" y="-164.6" font-family="Helvetica,sans-Serif" font-size="8.00" fill="#000000"> SM</text>
</g>
<!-- Node9 -->
<g id="node6" class="node">
<title>Node9</title>
<g id="a_node6"><a xlink:href="../../dc/df3/class_e_w_s_mcache.html" target="_top" xlink:title="A class for cache variables used in computing radiative corrections to the EW precision observables...">
<polygon fill="none" stroke="#ff0000" points="35.0018,-77 35.0018,-94 98.0018,-94 98.0018,-77 35.0018,-77"/>
<text text-anchor="middle" x="66.5018" y="-83.6" font-family="Helvetica,sans-Serif" font-size="8.00" fill="#000000">EWSMcache</text>
</a>
</g>
</g>
<!-- Node4&#45;&gt;Node9 -->
<g id="edge6" class="edge">
<title>Node4&#45;&gt;Node9</title>
<path fill="none" stroke="#9a32cd" stroke-dasharray="5,2" d="M114.5482,-227.4591C111.1171,-224.005 107.8925,-220.1304 105.5018,-216 82.8734,-176.9046 97.954,-159.4467 82.5018,-117 79.5643,-108.9308 75.0545,-100.2665 71.5707,-94.0713"/>
<polygon fill="#9a32cd" stroke="#9a32cd" points="112.3676,-230.2051 122.1454,-234.2851 117.0461,-224.9981 112.3676,-230.2051"/>
<text text-anchor="middle" x="113.0018" y="-164.6" font-family="Helvetica,sans-Serif" font-size="8.00" fill="#000000"> SM</text>
</g>
<!-- Node5 -->
<g id="node4" class="node">
<title>Node5</title>
<g id="a_node4"><a xlink:href="../../dd/dfa/class_q_c_d.html" target="_top" xlink:title="A class for parameters related to QCD, hadrons and quarks. ">
<polygon fill="none" stroke="#ff0000" points="117.5018,-306.5 117.5018,-323.5 151.5018,-323.5 151.5018,-306.5 117.5018,-306.5"/>
<text text-anchor="middle" x="134.5018" y="-313.1" font-family="Helvetica,sans-Serif" font-size="8.00" fill="#000000">QCD</text>
</a>
</g>
</g>
<!-- Node5&#45;&gt;Node4 -->
<g id="edge3" class="edge">
<title>Node5&#45;&gt;Node4</title>
<path fill="none" stroke="#191970" d="M134.5018,-296.1562C134.5018,-281.7123 134.5018,-262.4594 134.5018,-251.531"/>
<polygon fill="#191970" stroke="#191970" points="131.0019,-296.4579 134.5018,-306.4579 138.0019,-296.4579 131.0019,-296.4579"/>
</g>
<!-- Node8 -->
<g id="node5" class="node">
<title>Node8</title>
<g id="a_node5"><a xlink:href="../../db/d32/class_e_w_s_m_two_fermions_l_e_p2.html" target="_top" xlink:title="A class for the form factors , &#160;and &#160;in the processes &#160;at LEP&#45;II. ">
<polygon fill="none" stroke="#ff0000" points="61.0018,-.5 61.0018,-17.5 170.0018,-17.5 170.0018,-.5 61.0018,-.5"/>
<text text-anchor="middle" x="115.5018" y="-7.1" font-family="Helvetica,sans-Serif" font-size="8.00" fill="#000000">EWSMTwoFermionsLEP2</text>
</a>
</g>
</g>
<!-- Node8&#45;&gt;Node4 -->
<g id="edge4" class="edge">
<title>Node8&#45;&gt;Node4</title>
<path fill="none" stroke="#9a32cd" stroke-dasharray="5,2" d="M119.2777,-27.8394C119.7412,-30.5694 120.1681,-33.3513 120.5018,-36 130.1365,-112.4774 133.4463,-205.744 134.273,-234.2886"/>
<polygon fill="#9a32cd" stroke="#9a32cd" points="122.7087,-27.1454 117.4298,-17.9594 115.828,-28.4324 122.7087,-27.1454"/>
<text text-anchor="middle" x="168.0018" y="-83.6" font-family="Helvetica,sans-Serif" font-size="8.00" fill="#000000"> myTwoFermionsLEP2</text>
</g>
<!-- Node9&#45;&gt;Node4 -->
<g id="edge7" class="edge">
<title>Node9&#45;&gt;Node4</title>
<path fill="none" stroke="#9a32cd" stroke-dasharray="5,2" d="M35.7436,-99.2449C28.8544,-103.8539 22.4304,-109.7228 18.5018,-117 -2.4004,-155.7182 -8.8579,-181.5407 18.5018,-216 28.4341,-228.5096 68.6286,-235.754 98.9403,-239.532"/>
<polygon fill="#9a32cd" stroke="#9a32cd" points="37.7116,-102.1482 44.5659,-94.0693 34.1695,-96.1105 37.7116,-102.1482"/>
<text text-anchor="middle" x="48.5018" y="-164.6" font-family="Helvetica,sans-Serif" font-size="8.00" fill="#000000"> myEWSMcache</text>
</g>
<!-- Node9&#45;&gt;Node8 -->
<g id="edge5" class="edge">
<title>Node9&#45;&gt;Node8</title>
<path fill="none" stroke="#9a32cd" stroke-dasharray="5,2" d="M76.672,-68.0672C82.3511,-58.5014 89.6454,-46.4872 96.5018,-36 100.5166,-29.8593 105.2666,-23.1093 109.0129,-17.8944"/>
<polygon fill="#9a32cd" stroke="#9a32cd" points="73.4806,-66.5895 71.4246,-76.9829 79.5133,-70.1401 73.4806,-66.5895"/>
<text text-anchor="middle" x="108.5018" y="-43.1" font-family="Helvetica,sans-Serif" font-size="8.00" fill="#000000"> cache</text>
</g>
<!-- Node23 -->
<g id="node7" class="node">
<title>Node23</title>
<g id="a_node7"><a xlink:href="../../dd/d9b/classgslpp_1_1complex.html" target="_top" xlink:title="A class for defining operations on and functions of complex numbers. ">
<polygon fill="none" stroke="#000000" points="325.5018,-306.5 325.5018,-323.5 395.5018,-323.5 395.5018,-306.5 325.5018,-306.5"/>
<text text-anchor="middle" x="360.5018" y="-313.1" font-family="Helvetica,sans-Serif" font-size="8.00" fill="#000000">gslpp::complex</text>
</a>
</g>
</g>
<!-- Node23&#45;&gt;Node2 -->
<g id="edge11" class="edge">
<title>Node23&#45;&gt;Node2</title>
<path fill="none" stroke="#9a32cd" stroke-dasharray="5,2" d="M405.6229,-306.6252C450.9441,-295.2646 516.2034,-269.8389 531.5018,-216 548.9988,-154.4238 555.2767,-132.549 534.5018,-72 527.9235,-52.8274 523.0488,-47.7073 506.5018,-36 490.2868,-24.5276 468.854,-17.6678 452.1084,-13.735"/>
<polygon fill="#9a32cd" stroke="#9a32cd" points="404.6391,-303.2612 395.7123,-308.9677 406.2493,-310.0735 404.6391,-303.2612"/>
<text text-anchor="middle" x="568.0018" y="-209.6" font-family="Helvetica,sans-Serif" font-size="8.00" fill="#000000"> C_7_NP</text>
<text text-anchor="middle" x="568.0018" y="-200.6" font-family="Helvetica,sans-Serif" font-size="8.00" fill="#000000">C1_0</text>
<text text-anchor="middle" x="568.0018" y="-191.6" font-family="Helvetica,sans-Serif" font-size="8.00" fill="#000000">CacheIntc1</text>
<text text-anchor="middle" x="568.0018" y="-182.6" font-family="Helvetica,sans-Serif" font-size="8.00" fill="#000000">C1_1</text>
<text text-anchor="middle" x="568.0018" y="-173.6" font-family="Helvetica,sans-Serif" font-size="8.00" fill="#000000">C2_0</text>
<text text-anchor="middle" x="568.0018" y="-164.6" font-family="Helvetica,sans-Serif" font-size="8.00" fill="#000000">CacheIntc2</text>
<text text-anchor="middle" x="568.0018" y="-155.6" font-family="Helvetica,sans-Serif" font-size="8.00" fill="#000000">C2_1</text>
<text text-anchor="middle" x="568.0018" y="-146.6" font-family="Helvetica,sans-Serif" font-size="8.00" fill="#000000">C3_0</text>
<text text-anchor="middle" x="568.0018" y="-137.6" font-family="Helvetica,sans-Serif" font-size="8.00" fill="#000000">CacheIntc3</text>
<text text-anchor="middle" x="568.0018" y="-128.6" font-family="Helvetica,sans-Serif" font-size="8.00" fill="#000000">C3_1</text>
<text text-anchor="middle" x="568.0018" y="-119.6" font-family="Helvetica,sans-Serif" font-size="8.00" fill="#000000">...</text>
</g>
<!-- Node23&#45;&gt;Node4 -->
<g id="edge8" class="edge">
<title>Node23&#45;&gt;Node4</title>
<path fill="none" stroke="#9a32cd" stroke-dasharray="5,2" d="M323.9213,-303.346C278.3859,-288.8392 201.6961,-264.407 161.2796,-251.531"/>
<polygon fill="#9a32cd" stroke="#9a32cd" points="323.0986,-306.7572 333.6892,-306.4579 325.2235,-300.0875 323.0986,-306.7572"/>
<text text-anchor="middle" x="304.5018" y="-281.6" font-family="Helvetica,sans-Serif" font-size="8.00" fill="#000000"> rhoZ_f_cache</text>
<text text-anchor="middle" x="304.5018" y="-272.6" font-family="Helvetica,sans-Serif" font-size="8.00" fill="#000000">kappaZ_f_cache</text>
</g>
<!-- Node26 -->
<g id="node8" class="node">
<title>Node26</title>
<g id="a_node8"><a xlink:href="../../dd/d59/classgslpp_1_1vector.html" target="_top" xlink:title="gslpp::vector\&lt; gslpp\l::complex \&gt;">
<polygon fill="none" stroke="#000000" points="437.5018,-72.5 437.5018,-98.5 525.5018,-98.5 525.5018,-72.5 437.5018,-72.5"/>
<text text-anchor="start" x="445.5018" y="-88.1" font-family="Helvetica,sans-Serif" font-size="8.00" fill="#000000">gslpp::vector&lt; gslpp</text>
<text text-anchor="middle" x="481.5018" y="-79.1" font-family="Helvetica,sans-Serif" font-size="8.00" fill="#000000">::complex &gt;</text>
</a>
</g>
</g>
<!-- Node26&#45;&gt;Node2 -->
<g id="edge9" class="edge">
<title>Node26&#45;&gt;Node2</title>
<path fill="none" stroke="#9a32cd" stroke-dasharray="5,2" d="M465.6258,-63.8122C454.4866,-48.5953 440.1748,-29.0443 432.001,-17.8783"/>
<polygon fill="#9a32cd" stroke="#9a32cd" points="463.0164,-66.173 471.7474,-72.1747 468.6647,-62.0382 463.0164,-66.173"/>
<text text-anchor="middle" x="479.5018" y="-47.6" font-family="Helvetica,sans-Serif" font-size="8.00" fill="#000000"> allcoeff</text>
<text text-anchor="middle" x="479.5018" y="-38.6" font-family="Helvetica,sans-Serif" font-size="8.00" fill="#000000">allcoeffprime</text>
</g>
<!-- Node27 -->
<g id="node9" class="node">
<title>Node27</title>
<g id="a_node9"><a xlink:href="../../dd/d59/classgslpp_1_1vector.html" target="_top" xlink:title="A base class for defining operations on vectors, both real and complex. ">
<polygon fill="none" stroke="#000000" points="420.0018,-234.5 420.0018,-251.5 501.0018,-251.5 501.0018,-234.5 420.0018,-234.5"/>
<text text-anchor="middle" x="460.5018" y="-241.1" font-family="Helvetica,sans-Serif" font-size="8.00" fill="#000000">gslpp::vector&lt; T &gt;</text>
</a>
</g>
</g>
<!-- Node27&#45;&gt;Node26 -->
<g id="edge10" class="edge">
<title>Node27&#45;&gt;Node26</title>
<path fill="none" stroke="#ffa500" stroke-dasharray="5,2" d="M457.4958,-224.2415C454.1879,-199.205 450.661,-153.7546 461.5018,-117 463.4077,-110.5382 467.0659,-104.1278 470.738,-98.7936"/>
<polygon fill="#ffa500" stroke="#ffa500" points="454.0421,-224.8131 458.9478,-234.2037 460.9689,-223.8035 454.0421,-224.8131"/>
<text text-anchor="middle" x="496.5018" y="-164.6" font-family="Helvetica,sans-Serif" font-size="8.00" fill="#000000"> &lt; gslpp::complex &gt;</text>
</g>
<!-- Node47 -->
<g id="node10" class="node">
<title>Node47</title>
<g id="a_node10"><a xlink:href="../../d6/d73/classgslpp_1_1vector_3_01double_01_4.html" target="_top" xlink:title="A class for constructing and defining operations on real vectors. ">
<polygon fill="none" stroke="#000000" points="319.5018,-77 319.5018,-94 419.5018,-94 419.5018,-77 319.5018,-77"/>
<text text-anchor="middle" x="369.5018" y="-83.6" font-family="Helvetica,sans-Serif" font-size="8.00" fill="#000000">gslpp::vector&lt; double &gt;</text>
</a>
</g>
</g>
<!-- Node47&#45;&gt;Node2 -->
<g id="edge12" class="edge">
<title>Node47&#45;&gt;Node2</title>
<path fill="none" stroke="#9a32cd" stroke-dasharray="5,2" d="M377.4465,-67.7469C382.2603,-57.9189 388.927,-45.7555 396.5018,-36 401.8176,-29.1539 408.9258,-22.5062 414.7744,-17.5201"/>
<polygon fill="#9a32cd" stroke="#9a32cd" points="374.2107,-66.404 373.1404,-76.9446 380.5503,-69.3721 374.2107,-66.404"/>
<text text-anchor="middle" x="419.5018" y="-43.1" font-family="Helvetica,sans-Serif" font-size="8.00" fill="#000000"> Intbc_cache</text>
</g>
</g>
</svg>
