<?xml version="1.0" encoding="UTF-8" standalone="no"?>
<!DOCTYPE svg PUBLIC "-//W3C//DTD SVG 1.1//EN"
 "http://www.w3.org/Graphics/SVG/1.1/DTD/svg11.dtd">
<!-- Generated by graphviz version 2.40.1 (20161225.0304)
 -->
<!-- Title: LHPC::MassSpectrumClass::NextToMinimalSupersymmetricStandardModel Pages: 1 -->
<svg width="1018pt" height="242pt"
 viewBox="0.00 0.00 1018.00 241.87" xmlns="http://www.w3.org/2000/svg" xmlns:xlink="http://www.w3.org/1999/xlink">
<g id="graph0" class="graph" transform="scale(1 1) rotate(0) translate(4 237.8727)">
<title>LHPC::MassSpectrumClass::NextToMinimalSupersymmetricStandardModel</title>
<!-- Node16 -->
<g id="node1" class="node">
<title>Node16</title>
<polygon fill="#bfbfbf" stroke="#000000" points="878,-100 878,-135 1010,-135 1010,-100 878,-100"/>
<text text-anchor="start" x="886" y="-124.6" font-family="Helvetica,sans-Serif" font-size="8.00" fill="#000000">LHPC::MassSpectrumClass</text>
<text text-anchor="start" x="886" y="-115.6" font-family="Helvetica,sans-Serif" font-size="8.00" fill="#000000">::NextToMinimalSupersymmetric</text>
<text text-anchor="middle" x="944" y="-106.6" font-family="Helvetica,sans-Serif" font-size="8.00" fill="#000000">StandardModel</text>
</g>
<!-- Node17 -->
<g id="node2" class="node">
<title>Node17</title>
<g id="a_node2"><a xlink:href="../../d3/d8f/class_l_h_p_c_1_1_mass_spectrum.html" target="_top" xlink:title="LHPC::MassSpectrum">
<polygon fill="none" stroke="#000000" points="255,-125 255,-142 351,-142 351,-125 255,-125"/>
<text text-anchor="middle" x="303" y="-131.6" font-family="Helvetica,sans-Serif" font-size="8.00" fill="#000000">LHPC::MassSpectrum</text>
</a>
</g>
</g>
<!-- Node17&#45;&gt;Node16 -->
<g id="edge1" class="edge">
<title>Node17&#45;&gt;Node16</title>
<path fill="none" stroke="#191970" d="M312.5738,-150.7077C326.0247,-172.7602 352.8574,-209.6741 388,-222.5 449.7911,-245.0517 470.3244,-226.1644 536,-222.5 595.8345,-219.1615 611.3397,-219.7588 670,-207.5 747.8842,-191.2238 765.5406,-179.7336 841,-154.5 859.2001,-148.4139 879.0716,-141.3709 896.4628,-135.0733"/>
<polygon fill="#191970" stroke="#191970" points="315.5647,-148.8887 307.498,-142.0201 309.5207,-152.4201 315.5647,-148.8887"/>
</g>
<!-- Node23 -->
<g id="node5" class="node">
<title>Node23</title>
<g id="a_node5"><a xlink:href="../../dc/d8e/class_l_h_p_c_1_1_mass_spectrum_class_1_1_minimal_supersymmetric_standard_model.html" target="_top" xlink:title="MSSM">
<polygon fill="none" stroke="#ff0000" points="744,-128 744,-145 785,-145 785,-128 744,-128"/>
<text text-anchor="middle" x="764.5" y="-134.6" font-family="Helvetica,sans-Serif" font-size="8.00" fill="#000000">MSSM</text>
</a>
</g>
</g>
<!-- Node17&#45;&gt;Node23 -->
<g id="edge5" class="edge">
<title>Node17&#45;&gt;Node23</title>
<path fill="none" stroke="#191970" d="M317.3378,-150.2355C332.8123,-166.8888 359.1471,-191.3789 388,-201.5 521.6346,-248.3765 694.2379,-171.855 747.8644,-145.1555"/>
<polygon fill="#191970" stroke="#191970" points="319.5599,-147.4707 310.2798,-142.3589 314.3467,-152.1421 319.5599,-147.4707"/>
</g>
<!-- Node24 -->
<g id="node6" class="node">
<title>Node24</title>
<g id="a_node6"><a xlink:href="../../de/df2/class_l_h_p_c_1_1_mass_spectrum_class_1_1_standard_model.html" target="_top" xlink:title="LHPC::MassSpectrumClass\l::StandardModel">
<polygon fill="none" stroke="#ff0000" points="404,-165.5 404,-191.5 520,-191.5 520,-165.5 404,-165.5"/>
<text text-anchor="start" x="412" y="-181.1" font-family="Helvetica,sans-Serif" font-size="8.00" fill="#000000">LHPC::MassSpectrumClass</text>
<text text-anchor="middle" x="462" y="-172.1" font-family="Helvetica,sans-Serif" font-size="8.00" fill="#000000">::StandardModel</text>
</a>
</g>
</g>
<!-- Node17&#45;&gt;Node24 -->
<g id="edge7" class="edge">
<title>Node17&#45;&gt;Node24</title>
<path fill="none" stroke="#191970" d="M343.0366,-144.8311C365.1868,-151.1 392.813,-158.9188 415.8663,-165.4433"/>
<polygon fill="#191970" stroke="#191970" points="343.8562,-141.4257 333.2809,-142.0701 341.9498,-148.1611 343.8562,-141.4257"/>
</g>
<!-- Node34 -->
<g id="node7" class="node">
<title>Node34</title>
<g id="a_node7"><a xlink:href="../../dc/db3/class_l_h_p_c_1_1_mass_spectrum_class_1_1_mssm_extra_ewsb_spin_zero_boson_set.html" target="_top" xlink:title="LHPC::MassSpectrumClass\l::MssmExtraEwsbSpinZeroBosonSet">
<polygon fill="none" stroke="#ff0000" points="388,-75.5 388,-101.5 536,-101.5 536,-75.5 388,-75.5"/>
<text text-anchor="start" x="396" y="-91.1" font-family="Helvetica,sans-Serif" font-size="8.00" fill="#000000">LHPC::MassSpectrumClass</text>
<text text-anchor="middle" x="462" y="-82.1" font-family="Helvetica,sans-Serif" font-size="8.00" fill="#000000">::MssmExtraEwsbSpinZeroBosonSet</text>
</a>
</g>
</g>
<!-- Node17&#45;&gt;Node34 -->
<g id="edge9" class="edge">
<title>Node17&#45;&gt;Node34</title>
<path fill="none" stroke="#191970" d="M343.0366,-122.1689C365.1868,-115.9 392.813,-108.0812 415.8663,-101.5567"/>
<polygon fill="#191970" stroke="#191970" points="341.9498,-118.8389 333.2809,-124.9299 343.8562,-125.5743 341.9498,-118.8389"/>
</g>
<!-- Node35 -->
<g id="node8" class="node">
<title>Node35</title>
<g id="a_node8"><a xlink:href="../../d0/dba/class_l_h_p_c_1_1_mass_spectrum_class_1_1_charged_sleptons_one_to_six.html" target="_top" xlink:title="LHPC::MassSpectrumClass\l::ChargedSleptonsOneToSix">
<polygon fill="none" stroke="#ff0000" points="403,-120.5 403,-146.5 521,-146.5 521,-120.5 403,-120.5"/>
<text text-anchor="start" x="411" y="-136.1" font-family="Helvetica,sans-Serif" font-size="8.00" fill="#000000">LHPC::MassSpectrumClass</text>
<text text-anchor="middle" x="462" y="-127.1" font-family="Helvetica,sans-Serif" font-size="8.00" fill="#000000">::ChargedSleptonsOneToSix</text>
</a>
</g>
</g>
<!-- Node17&#45;&gt;Node35 -->
<g id="edge11" class="edge">
<title>Node17&#45;&gt;Node35</title>
<path fill="none" stroke="#191970" d="M361.2807,-133.5C374.8088,-133.5 389.2213,-133.5 402.789,-133.5"/>
<polygon fill="#191970" stroke="#191970" points="361.1368,-130.0001 351.1367,-133.5 361.1367,-137.0001 361.1368,-130.0001"/>
</g>
<!-- Node41 -->
<g id="node9" class="node">
<title>Node41</title>
<g id="a_node9"><a xlink:href="../../db/d6c/class_l_h_p_c_1_1_mass_spectrum_class_1_1_nmssm_extra_ewsb_spin_zero_boson_set.html" target="_top" xlink:title="LHPC::MassSpectrumClass\l::NmssmExtraEwsbSpinZeroBosonSet">
<polygon fill="none" stroke="#ff0000" points="688,-73.5 688,-99.5 841,-99.5 841,-73.5 688,-73.5"/>
<text text-anchor="start" x="696" y="-89.1" font-family="Helvetica,sans-Serif" font-size="8.00" fill="#000000">LHPC::MassSpectrumClass</text>
<text text-anchor="middle" x="764.5" y="-80.1" font-family="Helvetica,sans-Serif" font-size="8.00" fill="#000000">::NmssmExtraEwsbSpinZeroBosonSet</text>
</a>
</g>
</g>
<!-- Node17&#45;&gt;Node41 -->
<g id="edge13" class="edge">
<title>Node17&#45;&gt;Node41</title>
<path fill="none" stroke="#191970" d="M317.3378,-116.7645C332.8123,-100.1112 359.1471,-75.6211 388,-65.5 502.594,-25.3026 648.8008,-54.3863 720.638,-73.4536"/>
<polygon fill="#191970" stroke="#191970" points="314.3467,-114.8579 310.2798,-124.6411 319.5599,-119.5293 314.3467,-114.8579"/>
</g>
<!-- Node42 -->
<g id="node10" class="node">
<title>Node42</title>
<g id="a_node10"><a xlink:href="../../de/d2e/class_l_h_p_c_1_1_mass_spectrum_class_1_1_neutralinos_one_to_five.html" target="_top" xlink:title="LHPC::MassSpectrumClass\l::NeutralinosOneToFive">
<polygon fill="none" stroke="#ff0000" points="554,-.5 554,-26.5 670,-26.5 670,-.5 554,-.5"/>
<text text-anchor="start" x="562" y="-16.1" font-family="Helvetica,sans-Serif" font-size="8.00" fill="#000000">LHPC::MassSpectrumClass</text>
<text text-anchor="middle" x="612" y="-7.1" font-family="Helvetica,sans-Serif" font-size="8.00" fill="#000000">::NeutralinosOneToFive</text>
</a>
</g>
</g>
<!-- Node17&#45;&gt;Node42 -->
<g id="edge16" class="edge">
<title>Node17&#45;&gt;Node42</title>
<path fill="none" stroke="#191970" d="M309.1435,-115.2472C318.1651,-91.6034 337.4347,-51.2077 369,-32.5 425.1518,.7793 501.8583,.8525 553.9633,-4.3467"/>
<polygon fill="#191970" stroke="#191970" points="305.801,-114.1992 305.7123,-124.7936 312.3885,-116.5669 305.801,-114.1992"/>
</g>
<!-- Node18 -->
<g id="node3" class="node">
<title>Node18</title>
<g id="a_node3"><a xlink:href="../../d5/d13/class_b_o_l_1_1_pushed_to_observer.html" target="_top" xlink:title="BOL::PushedToObserver\l\&lt; SpectrumUpdater \&gt;">
<polygon fill="none" stroke="#ff0000" points="11.5,-143.5 11.5,-169.5 117.5,-169.5 117.5,-143.5 11.5,-143.5"/>
<text text-anchor="start" x="19.5" y="-159.1" font-family="Helvetica,sans-Serif" font-size="8.00" fill="#000000">BOL::PushedToObserver</text>
<text text-anchor="middle" x="64.5" y="-150.1" font-family="Helvetica,sans-Serif" font-size="8.00" fill="#000000">&lt; SpectrumUpdater &gt;</text>
</a>
</g>
</g>
<!-- Node18&#45;&gt;Node17 -->
<g id="edge2" class="edge">
<title>Node18&#45;&gt;Node17</title>
<path fill="none" stroke="#191970" d="M128.0411,-150.8079C160.6279,-147.8376 200.9467,-144.0838 237,-140.5 242.733,-139.9301 248.7443,-139.3158 254.7064,-138.6962"/>
<polygon fill="#191970" stroke="#191970" points="127.3899,-147.3526 117.7479,-151.7436 128.0237,-154.3239 127.3899,-147.3526"/>
</g>
<!-- Node21 -->
<g id="node4" class="node">
<title>Node21</title>
<g id="a_node4"><a xlink:href="../../da/d50/class_l_h_p_c_1_1_map_and_vector_and_bools.html" target="_top" xlink:title="LHPC::MapAndVectorAndBools\l\&lt; MassEigenstate *\&gt;">
<polygon fill="none" stroke="#ff0000" points="0,-98.5 0,-124.5 129,-124.5 129,-98.5 0,-98.5"/>
<text text-anchor="start" x="8" y="-114.1" font-family="Helvetica,sans-Serif" font-size="8.00" fill="#000000">LHPC::MapAndVectorAndBools</text>
<text text-anchor="middle" x="64.5" y="-105.1" font-family="Helvetica,sans-Serif" font-size="8.00" fill="#000000">&lt; MassEigenstate *&gt;</text>
</a>
</g>
</g>
<!-- Node21&#45;&gt;Node17 -->
<g id="edge3" class="edge">
<title>Node21&#45;&gt;Node17</title>
<path fill="none" stroke="#9a32cd" stroke-dasharray="5,2" d="M139.4615,-118.4147C177.1041,-121.887 221.6093,-125.9923 254.681,-129.0429"/>
<polygon fill="#9a32cd" stroke="#9a32cd" points="139.3208,-114.8869 129.0415,-117.4535 138.6777,-121.8573 139.3208,-114.8869"/>
<text text-anchor="middle" x="192" y="-130.1" font-family="Helvetica,sans-Serif" font-size="8.00" fill="#000000"> mapAndVectorAndBools</text>
</g>
<!-- Node23&#45;&gt;Node16 -->
<g id="edge4" class="edge">
<title>Node23&#45;&gt;Node16</title>
<path fill="none" stroke="#191970" d="M795.1249,-133.2584C817.7822,-130.8601 849.4963,-127.5032 877.834,-124.5036"/>
<polygon fill="#191970" stroke="#191970" points="794.6669,-129.7872 785.0909,-134.3205 795.4038,-136.7483 794.6669,-129.7872"/>
</g>
<!-- Node24&#45;&gt;Node23 -->
<g id="edge6" class="edge">
<title>Node24&#45;&gt;Node23</title>
<path fill="none" stroke="#191970" d="M530.6177,-168.9729C599.2102,-159.4493 700.5182,-145.3834 743.7377,-139.3827"/>
<polygon fill="#191970" stroke="#191970" points="529.7487,-165.5599 520.325,-170.402 530.7114,-172.4934 529.7487,-165.5599"/>
</g>
<!-- Node34&#45;&gt;Node23 -->
<g id="edge8" class="edge">
<title>Node34&#45;&gt;Node23</title>
<path fill="none" stroke="#191970" d="M546.6014,-101.9244C614.1255,-112.6389 703.8024,-126.8686 743.7615,-133.2093"/>
<polygon fill="#191970" stroke="#191970" points="546.8122,-98.4141 536.3873,-100.3036 545.7152,-105.3276 546.8122,-98.4141"/>
</g>
<!-- Node34&#45;&gt;Node41 -->
<g id="edge14" class="edge">
<title>Node34&#45;&gt;Node41</title>
<path fill="none" stroke="#191970" d="M546.5546,-87.941C590.8477,-87.6481 644.6829,-87.2922 687.7655,-87.0073"/>
<polygon fill="#191970" stroke="#191970" points="546.3639,-84.442 536.3873,-88.0082 546.4102,-91.4419 546.3639,-84.442"/>
</g>
<!-- Node35&#45;&gt;Node23 -->
<g id="edge10" class="edge">
<title>Node35&#45;&gt;Node23</title>
<path fill="none" stroke="#191970" d="M531.3464,-134.1877C599.9822,-134.8684 700.8365,-135.8686 743.8437,-136.2951"/>
<polygon fill="#191970" stroke="#191970" points="531.0774,-130.685 521.0432,-134.0856 531.0079,-137.6846 531.0774,-130.685"/>
</g>
<!-- Node41&#45;&gt;Node16 -->
<g id="edge12" class="edge">
<title>Node41&#45;&gt;Node16</title>
<path fill="none" stroke="#191970" d="M849.6995,-101.2141C859.1976,-102.8545 868.7639,-104.5066 877.9713,-106.0967"/>
<polygon fill="#191970" stroke="#191970" points="850.2938,-97.765 839.844,-99.512 849.1024,-104.6629 850.2938,-97.765"/>
</g>
<!-- Node42&#45;&gt;Node16 -->
<g id="edge15" class="edge">
<title>Node42&#45;&gt;Node16</title>
<path fill="none" stroke="#191970" d="M680.0603,-23.4397C726.3322,-31.3815 788.4497,-44.3819 841,-63.5 867.3736,-73.0949 895.4731,-88.1903 915.6489,-99.9844"/>
<polygon fill="#191970" stroke="#191970" points="680.5824,-19.9784 670.1406,-21.7728 679.4223,-26.8816 680.5824,-19.9784"/>
</g>
</g>
</svg>
