<?xml version="1.0" encoding="UTF-8" standalone="no"?>
<!DOCTYPE svg PUBLIC "-//W3C//DTD SVG 1.1//EN"
 "http://www.w3.org/Graphics/SVG/1.1/DTD/svg11.dtd">
<!-- Generated by graphviz version 2.40.1 (20161225.0304)
 -->
<!-- Title: LeptonFlavour.h Pages: 1 -->
<svg width="664pt" height="134pt"
 viewBox="0.00 0.00 664.00 134.00" xmlns="http://www.w3.org/2000/svg" xmlns:xlink="http://www.w3.org/1999/xlink">
<g id="graph0" class="graph" transform="scale(1 1) rotate(0) translate(4 130)">
<title>LeptonFlavour.h</title>
<!-- Node53 -->
<g id="node1" class="node">
<title>Node53</title>
<polygon fill="#bfbfbf" stroke="#000000" points="254.5,-108.5 254.5,-125.5 328.5,-125.5 328.5,-108.5 254.5,-108.5"/>
<text text-anchor="middle" x="291.5" y="-115.1" font-family="Helvetica,sans-Serif" font-size="8.00" fill="#000000">LeptonFlavour.h</text>
</g>
<!-- Node54 -->
<g id="node2" class="node">
<title>Node54</title>
<g id="a_node2"><a xlink:href="../../d8/da7/_general_t_h_d_mgminus2_8h.html" target="_top" xlink:title="GeneralTHDMgminus2.h">
<polygon fill="none" stroke="#ff0000" points="4,-54.5 4,-71.5 109,-71.5 109,-54.5 4,-54.5"/>
<text text-anchor="middle" x="56.5" y="-61.1" font-family="Helvetica,sans-Serif" font-size="8.00" fill="#000000">GeneralTHDMgminus2.h</text>
</a>
</g>
</g>
<!-- Node53&#45;&gt;Node54 -->
<g id="edge1" class="edge">
<title>Node53&#45;&gt;Node54</title>
<path fill="none" stroke="#191970" d="M244.2948,-106.1529C199.8933,-95.95 134.3149,-80.8809 93.5622,-71.5164"/>
<polygon fill="#191970" stroke="#191970" points="243.7337,-109.6151 254.2636,-108.4435 245.3014,-102.7929 243.7337,-109.6151"/>
</g>
<!-- Node58 -->
<g id="node4" class="node">
<title>Node58</title>
<g id="a_node4"><a xlink:href="../../d8/d1b/gminus2_8h.html" target="_top" xlink:title="gminus2.h">
<polygon fill="none" stroke="#ff0000" points="127,-54.5 127,-71.5 180,-71.5 180,-54.5 127,-54.5"/>
<text text-anchor="middle" x="153.5" y="-61.1" font-family="Helvetica,sans-Serif" font-size="8.00" fill="#000000">gminus2.h</text>
</a>
</g>
</g>
<!-- Node53&#45;&gt;Node58 -->
<g id="edge3" class="edge">
<title>Node53&#45;&gt;Node58</title>
<path fill="none" stroke="#191970" d="M260.2507,-104.772C234.3288,-94.6287 198.1375,-80.4669 175.2642,-71.5164"/>
<polygon fill="#191970" stroke="#191970" points="259.0456,-108.0588 269.6335,-108.4435 261.5965,-101.5401 259.0456,-108.0588"/>
</g>
<!-- Node60 -->
<g id="node5" class="node">
<title>Node60</title>
<g id="a_node5"><a xlink:href="../../d5/db9/_lepton_flavour_observables_8h.html" target="_top" xlink:title="LeptonFlavourObservables.h">
<polygon fill="none" stroke="#ff0000" points="197,-.5 197,-17.5 316,-17.5 316,-.5 197,-.5"/>
<text text-anchor="middle" x="256.5" y="-7.1" font-family="Helvetica,sans-Serif" font-size="8.00" fill="#000000">LeptonFlavourObservables.h</text>
</a>
</g>
</g>
<!-- Node53&#45;&gt;Node60 -->
<g id="edge5" class="edge">
<title>Node53&#45;&gt;Node60</title>
<path fill="none" stroke="#191970" d="M260.9472,-103.5587C248.1712,-96.217 234.6531,-85.7738 227.5,-72 217.6222,-52.9796 235.5011,-29.9515 247.313,-17.6845"/>
<polygon fill="#191970" stroke="#191970" points="259.5418,-106.7748 270.0174,-108.3597 262.8166,-100.588 259.5418,-106.7748"/>
</g>
<!-- Node61 -->
<g id="node6" class="node">
<title>Node61</title>
<g id="a_node6"><a xlink:href="../../df/d7b/li__3lj_8h.html" target="_top" xlink:title="li_3lj.h">
<polygon fill="none" stroke="#ff0000" points="237,-54.5 237,-71.5 276,-71.5 276,-54.5 237,-54.5"/>
<text text-anchor="middle" x="256.5" y="-61.1" font-family="Helvetica,sans-Serif" font-size="8.00" fill="#000000">li_3lj.h</text>
</a>
</g>
</g>
<!-- Node53&#45;&gt;Node61 -->
<g id="edge6" class="edge">
<title>Node53&#45;&gt;Node61</title>
<path fill="none" stroke="#191970" d="M280.1999,-99.5656C274.1781,-90.2747 267.0314,-79.2484 262.172,-71.7511"/>
<polygon fill="#191970" stroke="#191970" points="277.3444,-101.5951 285.7205,-108.083 283.2185,-97.7878 277.3444,-101.5951"/>
</g>
<!-- Node63 -->
<g id="node7" class="node">
<title>Node63</title>
<g id="a_node7"><a xlink:href="../../d2/d95/li__lj__gamma_8h.html" target="_top" xlink:title="li_lj_gamma.h">
<polygon fill="none" stroke="#ff0000" points="294.5,-54.5 294.5,-71.5 360.5,-71.5 360.5,-54.5 294.5,-54.5"/>
<text text-anchor="middle" x="327.5" y="-61.1" font-family="Helvetica,sans-Serif" font-size="8.00" fill="#000000">li_lj_gamma.h</text>
</a>
</g>
</g>
<!-- Node53&#45;&gt;Node63 -->
<g id="edge8" class="edge">
<title>Node53&#45;&gt;Node63</title>
<path fill="none" stroke="#191970" d="M303.1229,-99.5656C309.3168,-90.2747 316.6677,-79.2484 321.6659,-71.7511"/>
<polygon fill="#191970" stroke="#191970" points="300.0795,-97.821 297.4447,-108.083 305.9039,-101.7039 300.0795,-97.821"/>
</g>
<!-- Node65 -->
<g id="node8" class="node">
<title>Node65</title>
<g id="a_node8"><a xlink:href="../../d8/df5/mueconversion_8h.html" target="_top" xlink:title="mueconversion.h">
<polygon fill="none" stroke="#ff0000" points="379,-54.5 379,-71.5 456,-71.5 456,-54.5 379,-54.5"/>
<text text-anchor="middle" x="417.5" y="-61.1" font-family="Helvetica,sans-Serif" font-size="8.00" fill="#000000">mueconversion.h</text>
</a>
</g>
</g>
<!-- Node53&#45;&gt;Node65 -->
<g id="edge10" class="edge">
<title>Node53&#45;&gt;Node65</title>
<path fill="none" stroke="#191970" d="M320.6597,-104.503C344.2811,-94.3795 376.928,-80.388 397.6283,-71.5164"/>
<polygon fill="#191970" stroke="#191970" points="319.2778,-101.2873 311.4651,-108.4435 322.0353,-107.7213 319.2778,-101.2873"/>
</g>
<!-- Node67 -->
<g id="node9" class="node">
<title>Node67</title>
<g id="a_node9"><a xlink:href="../../dd/df3/_standard_model_2src_2_standard_model_8cpp.html" target="_top" xlink:title="StandardModel.cpp">
<polygon fill="none" stroke="#000000" points="474.5,-54.5 474.5,-71.5 560.5,-71.5 560.5,-54.5 474.5,-54.5"/>
<text text-anchor="middle" x="517.5" y="-61.1" font-family="Helvetica,sans-Serif" font-size="8.00" fill="#000000">StandardModel.cpp</text>
</a>
</g>
</g>
<!-- Node53&#45;&gt;Node67 -->
<g id="edge12" class="edge">
<title>Node53&#45;&gt;Node67</title>
<path fill="none" stroke="#191970" d="M337.1673,-106.0884C379.8638,-95.8865 442.7477,-80.8612 481.8572,-71.5164"/>
<polygon fill="#191970" stroke="#191970" points="336.2232,-102.7153 327.3104,-108.4435 337.85,-109.5237 336.2232,-102.7153"/>
</g>
<!-- Node68 -->
<g id="node10" class="node">
<title>Node68</title>
<g id="a_node10"><a xlink:href="../../da/d10/_t_h_d_mgminus2_8h.html" target="_top" xlink:title="THDMgminus2.h">
<polygon fill="none" stroke="#ff0000" points="579,-54.5 579,-71.5 656,-71.5 656,-54.5 579,-54.5"/>
<text text-anchor="middle" x="617.5" y="-61.1" font-family="Helvetica,sans-Serif" font-size="8.00" fill="#000000">THDMgminus2.h</text>
</a>
</g>
</g>
<!-- Node53&#45;&gt;Node68 -->
<g id="edge13" class="edge">
<title>Node53&#45;&gt;Node68</title>
<path fill="none" stroke="#191970" d="M339.0859,-109.6659C394.4929,-101.041 488.7343,-86.1063 569.5,-72 572.5068,-71.4748 575.6171,-70.9194 578.7424,-70.3526"/>
<polygon fill="#191970" stroke="#191970" points="338.2151,-106.2591 328.871,-111.253 339.2899,-113.1761 338.2151,-106.2591"/>
</g>
<!-- Node55 -->
<g id="node3" class="node">
<title>Node55</title>
<g id="a_node3"><a xlink:href="../../de/dea/_general_t_h_d_mgminus2_8cpp.html" target="_top" xlink:title="GeneralTHDMgminus2.cpp">
<polygon fill="none" stroke="#000000" points="0,-.5 0,-17.5 113,-17.5 113,-.5 0,-.5"/>
<text text-anchor="middle" x="56.5" y="-7.1" font-family="Helvetica,sans-Serif" font-size="8.00" fill="#000000">GeneralTHDMgminus2.cpp</text>
</a>
</g>
</g>
<!-- Node54&#45;&gt;Node55 -->
<g id="edge2" class="edge">
<title>Node54&#45;&gt;Node55</title>
<path fill="none" stroke="#191970" d="M56.5,-43.8045C56.5,-34.9102 56.5,-24.7798 56.5,-17.7511"/>
<polygon fill="#191970" stroke="#191970" points="53.0001,-44.083 56.5,-54.083 60.0001,-44.083 53.0001,-44.083"/>
</g>
<!-- Node58&#45;&gt;Node60 -->
<g id="edge4" class="edge">
<title>Node58&#45;&gt;Node60</title>
<path fill="none" stroke="#191970" d="M179.0792,-49.5895C198.1234,-39.6052 223.5644,-26.2672 239.9923,-17.6545"/>
<polygon fill="#191970" stroke="#191970" points="177.2802,-46.5808 170.0487,-54.324 180.5305,-52.7805 177.2802,-46.5808"/>
</g>
<!-- Node61&#45;&gt;Node60 -->
<g id="edge7" class="edge">
<title>Node61&#45;&gt;Node60</title>
<path fill="none" stroke="#191970" d="M256.5,-43.8045C256.5,-34.9102 256.5,-24.7798 256.5,-17.7511"/>
<polygon fill="#191970" stroke="#191970" points="253.0001,-44.083 256.5,-54.083 260.0001,-44.083 253.0001,-44.083"/>
</g>
<!-- Node63&#45;&gt;Node60 -->
<g id="edge9" class="edge">
<title>Node63&#45;&gt;Node60</title>
<path fill="none" stroke="#191970" d="M307.9103,-48.1008C295.1324,-38.3824 278.8873,-26.0269 268.1149,-17.8339"/>
<polygon fill="#191970" stroke="#191970" points="306.0143,-51.0561 316.0926,-54.324 310.2519,-45.4844 306.0143,-51.0561"/>
</g>
<!-- Node65&#45;&gt;Node60 -->
<g id="edge11" class="edge">
<title>Node65&#45;&gt;Node60</title>
<path fill="none" stroke="#191970" d="M382.2352,-51.172C351.9191,-41.0039 308.9298,-26.5852 281.8916,-17.5164"/>
<polygon fill="#191970" stroke="#191970" points="381.3951,-54.5819 391.9891,-54.4435 383.6211,-47.9452 381.3951,-54.5819"/>
</g>
</g>
</svg>
