<?xml version="1.0" encoding="UTF-8" standalone="no"?>
<!DOCTYPE svg PUBLIC "-//W3C//DTD SVG 1.1//EN"
 "http://www.w3.org/Graphics/SVG/1.1/DTD/svg11.dtd">
<!-- Generated by graphviz version 2.40.1 (20161225.0304)
 -->
<!-- Title: Hobs_pp_H1_hh_bblnulnu_CMS13 Pages: 1 -->
<svg width="441pt" height="297pt"
 viewBox="0.00 0.00 441.00 297.00" xmlns="http://www.w3.org/2000/svg" xmlns:xlink="http://www.w3.org/1999/xlink">
<g id="graph0" class="graph" transform="scale(1 1) rotate(0) translate(4 293)">
<title>Hobs_pp_H1_hh_bblnulnu_CMS13</title>
<!-- Node2 -->
<g id="node1" class="node">
<title>Node2</title>
<polygon fill="#bfbfbf" stroke="#000000" points="0,-.5 0,-26.5 111,-26.5 111,-.5 0,-.5"/>
<text text-anchor="start" x="8" y="-16.1" font-family="Helvetica,sans-Serif" font-size="8.00" fill="#000000">Hobs_pp_H1_hh_bblnulnu</text>
<text text-anchor="middle" x="55.5" y="-7.1" font-family="Helvetica,sans-Serif" font-size="8.00" fill="#000000">_CMS13</text>
</g>
<!-- Node3 -->
<g id="node2" class="node">
<title>Node3</title>
<g id="a_node2"><a xlink:href="../../dc/d1f/class_th_observable.html" target="_top" xlink:title="A class for a model prediction of an observable. ">
<polygon fill="none" stroke="#000000" points="6,-108.5 6,-125.5 73,-125.5 73,-108.5 6,-108.5"/>
<text text-anchor="middle" x="39.5" y="-115.1" font-family="Helvetica,sans-Serif" font-size="8.00" fill="#000000">ThObservable</text>
</a>
</g>
</g>
<!-- Node3&#45;&gt;Node2 -->
<g id="edge1" class="edge">
<title>Node3&#45;&gt;Node2</title>
<path fill="none" stroke="#191970" d="M42.4228,-98.0934C45.6152,-77.4421 50.6462,-44.8979 53.4461,-26.7859"/>
<polygon fill="#191970" stroke="#191970" points="38.9331,-97.7583 40.8642,-108.1756 45.8509,-98.8278 38.9331,-97.7583"/>
</g>
<!-- Node4 -->
<g id="node3" class="node">
<title>Node4</title>
<g id="a_node3"><a xlink:href="../../dc/dd5/class_standard_model.html" target="_top" xlink:title="A model class for the Standard Model. ">
<polygon fill="none" stroke="#ff0000" points="213,-216.5 213,-233.5 284,-233.5 284,-216.5 213,-216.5"/>
<text text-anchor="middle" x="248.5" y="-223.1" font-family="Helvetica,sans-Serif" font-size="8.00" fill="#000000">StandardModel</text>
</a>
</g>
</g>
<!-- Node4&#45;&gt;Node3 -->
<g id="edge2" class="edge">
<title>Node4&#45;&gt;Node3</title>
<path fill="none" stroke="#9a32cd" stroke-dasharray="5,2" d="M202.8247,-217.0106C153.5437,-207.5473 79.3154,-190.5747 58.5,-171 45.6129,-158.881 41.4612,-137.5082 40.1276,-125.6092"/>
<polygon fill="#9a32cd" stroke="#9a32cd" points="202.4588,-220.5032 212.9338,-218.9142 203.7543,-213.6241 202.4588,-220.5032"/>
<text text-anchor="middle" x="125" y="-191.6" font-family="Helvetica,sans-Serif" font-size="8.00" fill="#000000"> SM</text>
</g>
<!-- Node9 -->
<g id="node6" class="node">
<title>Node9</title>
<g id="a_node6"><a xlink:href="../../dc/df3/class_e_w_s_mcache.html" target="_top" xlink:title="A class for cache variables used in computing radiative corrections to the EW precision observables...">
<polygon fill="none" stroke="#ff0000" points="370,-149 370,-166 433,-166 433,-149 370,-149"/>
<text text-anchor="middle" x="401.5" y="-155.6" font-family="Helvetica,sans-Serif" font-size="8.00" fill="#000000">EWSMcache</text>
</a>
</g>
</g>
<!-- Node4&#45;&gt;Node9 -->
<g id="edge6" class="edge">
<title>Node4&#45;&gt;Node9</title>
<path fill="none" stroke="#9a32cd" stroke-dasharray="5,2" d="M277.146,-212.362C307.6807,-198.8909 355.213,-177.9207 381.7965,-166.1927"/>
<polygon fill="#9a32cd" stroke="#9a32cd" points="275.614,-209.2124 267.8776,-216.4511 278.4395,-215.6168 275.614,-209.2124"/>
<text text-anchor="middle" x="337" y="-191.6" font-family="Helvetica,sans-Serif" font-size="8.00" fill="#000000"> SM</text>
</g>
<!-- Node48 -->
<g id="node8" class="node">
<title>Node48</title>
<g id="a_node8"><a xlink:href="../../d2/df3/class_n_pbase.html" target="_top" xlink:title="The auxiliary base model class for other model classes. ">
<polygon fill="none" stroke="#000000" points="189,-149 189,-166 234,-166 234,-149 189,-149"/>
<text text-anchor="middle" x="211.5" y="-155.6" font-family="Helvetica,sans-Serif" font-size="8.00" fill="#000000">NPbase</text>
</a>
</g>
</g>
<!-- Node4&#45;&gt;Node48 -->
<g id="edge10" class="edge">
<title>Node4&#45;&gt;Node48</title>
<path fill="none" stroke="#191970" d="M218.9868,-210.8791C214.3692,-207.3354 210.2289,-203.0645 207.5,-198 202.1376,-188.048 205.0407,-174.7157 207.9721,-166.116"/>
<polygon fill="#191970" stroke="#191970" points="217.3206,-213.9705 227.6124,-216.4867 221.136,-208.1017 217.3206,-213.9705"/>
</g>
<!-- Node4&#45;&gt;Node48 -->
<g id="edge11" class="edge">
<title>Node4&#45;&gt;Node48</title>
<path fill="none" stroke="#9a32cd" stroke-dasharray="5,2" d="M234.3965,-208.3772C231.9217,-205.0561 229.5017,-201.5071 227.5,-198 221.5789,-187.6259 216.8719,-174.6301 214.1359,-166.2004"/>
<polygon fill="#9a32cd" stroke="#9a32cd" points="231.8586,-210.8087 240.8259,-216.4512 237.3345,-206.4481 231.8586,-210.8087"/>
<text text-anchor="middle" x="242" y="-191.6" font-family="Helvetica,sans-Serif" font-size="8.00" fill="#000000"> trueSM</text>
</g>
<!-- Node5 -->
<g id="node4" class="node">
<title>Node5</title>
<g id="a_node4"><a xlink:href="../../dd/dfa/class_q_c_d.html" target="_top" xlink:title="A class for parameters related to QCD, hadrons and quarks. ">
<polygon fill="none" stroke="#ff0000" points="231.5,-271.5 231.5,-288.5 265.5,-288.5 265.5,-271.5 231.5,-271.5"/>
<text text-anchor="middle" x="248.5" y="-278.1" font-family="Helvetica,sans-Serif" font-size="8.00" fill="#000000">QCD</text>
</a>
</g>
</g>
<!-- Node5&#45;&gt;Node4 -->
<g id="edge3" class="edge">
<title>Node5&#45;&gt;Node4</title>
<path fill="none" stroke="#191970" d="M248.5,-261.1166C248.5,-251.8173 248.5,-241.0557 248.5,-233.7149"/>
<polygon fill="#191970" stroke="#191970" points="245.0001,-261.4062 248.5,-271.4063 252.0001,-261.4063 245.0001,-261.4062"/>
</g>
<!-- Node8 -->
<g id="node5" class="node">
<title>Node8</title>
<g id="a_node5"><a xlink:href="../../db/d32/class_e_w_s_m_two_fermions_l_e_p2.html" target="_top" xlink:title="A class for the form factors , &#160;and &#160;in the processes &#160;at LEP&#45;II. ">
<polygon fill="none" stroke="#ff0000" points="257,-72.5 257,-89.5 366,-89.5 366,-72.5 257,-72.5"/>
<text text-anchor="middle" x="311.5" y="-79.1" font-family="Helvetica,sans-Serif" font-size="8.00" fill="#000000">EWSMTwoFermionsLEP2</text>
</a>
</g>
</g>
<!-- Node8&#45;&gt;Node4 -->
<g id="edge4" class="edge">
<title>Node8&#45;&gt;Node4</title>
<path fill="none" stroke="#9a32cd" stroke-dasharray="5,2" d="M302.2739,-98.7744C295.8934,-111.2955 287.3528,-128.5203 280.5,-144 268.9932,-169.9927 257.1292,-201.4925 251.6383,-216.3928"/>
<polygon fill="#9a32cd" stroke="#9a32cd" points="305.3951,-100.3582 306.8544,-89.8644 299.1695,-97.1578 305.3951,-100.3582"/>
<text text-anchor="middle" x="321" y="-155.6" font-family="Helvetica,sans-Serif" font-size="8.00" fill="#000000"> myTwoFermionsLEP2</text>
</g>
<!-- Node9&#45;&gt;Node4 -->
<g id="edge7" class="edge">
<title>Node9&#45;&gt;Node4</title>
<path fill="none" stroke="#9a32cd" stroke-dasharray="5,2" d="M384.701,-173.0638C374.8051,-181.5023 361.6744,-191.5038 348.5,-198 328.3392,-207.9411 304.0248,-214.6114 284.4198,-218.8349"/>
<polygon fill="#9a32cd" stroke="#9a32cd" points="387.3138,-175.4255 392.4846,-166.1781 382.6757,-170.1826 387.3138,-175.4255"/>
<text text-anchor="middle" x="392.5" y="-191.6" font-family="Helvetica,sans-Serif" font-size="8.00" fill="#000000"> myEWSMcache</text>
</g>
<!-- Node9&#45;&gt;Node8 -->
<g id="edge5" class="edge">
<title>Node9&#45;&gt;Node8</title>
<path fill="none" stroke="#9a32cd" stroke-dasharray="5,2" d="M383.4162,-142.1288C364.8726,-126.3667 336.6883,-102.4101 321.7037,-89.6732"/>
<polygon fill="#9a32cd" stroke="#9a32cd" points="381.2897,-144.9148 391.1759,-148.7245 385.8232,-139.5812 381.2897,-144.9148"/>
<text text-anchor="middle" x="373.5" y="-115.1" font-family="Helvetica,sans-Serif" font-size="8.00" fill="#000000"> cache</text>
</g>
<!-- Node47 -->
<g id="node7" class="node">
<title>Node47</title>
<g id="a_node7"><a xlink:href="../../db/d2b/class_georgi_machacek.html" target="_top" xlink:title="A base class for the Georgi&#45;Machacek model. ">
<polygon fill="none" stroke="#000000" points="83,-72.5 83,-89.5 160,-89.5 160,-72.5 83,-72.5"/>
<text text-anchor="middle" x="121.5" y="-79.1" font-family="Helvetica,sans-Serif" font-size="8.00" fill="#000000">GeorgiMachacek</text>
</a>
</g>
</g>
<!-- Node47&#45;&gt;Node2 -->
<g id="edge8" class="edge">
<title>Node47&#45;&gt;Node2</title>
<path fill="none" stroke="#9a32cd" stroke-dasharray="5,2" d="M100.5327,-66.2505C95.7185,-62.4838 90.7654,-58.2815 86.5,-54 78.1259,-45.5943 70.0248,-34.8918 64.2054,-26.6001"/>
<polygon fill="#9a32cd" stroke="#9a32cd" points="98.7646,-69.2986 108.8695,-72.4832 102.956,-63.6922 98.7646,-69.2986"/>
<text text-anchor="middle" x="99.5" y="-47.6" font-family="Helvetica,sans-Serif" font-size="8.00" fill="#000000"> myGM</text>
</g>
<!-- Node51 -->
<g id="node10" class="node">
<title>Node51</title>
<g id="a_node10"><a xlink:href="../../d7/db7/class_g_mcache.html" target="_top" xlink:title="A class for the caching of GeorgiMachacek objects. ">
<polygon fill="none" stroke="#ff0000" points="137,-5 137,-22 188,-22 188,-5 137,-5"/>
<text text-anchor="middle" x="162.5" y="-11.6" font-family="Helvetica,sans-Serif" font-size="8.00" fill="#000000">GMcache</text>
</a>
</g>
</g>
<!-- Node47&#45;&gt;Node51 -->
<g id="edge14" class="edge">
<title>Node47&#45;&gt;Node51</title>
<path fill="none" stroke="#9a32cd" stroke-dasharray="5,2" d="M116.1496,-62.0409C115.5035,-56.3074 115.8446,-50.1667 118.5,-45 123.6532,-34.9731 133.6433,-27.425 142.8033,-22.2351"/>
<polygon fill="#9a32cd" stroke="#9a32cd" points="112.7992,-63.1217 118.2594,-72.2011 119.653,-61.6984 112.7992,-63.1217"/>
<text text-anchor="middle" x="131.5" y="-47.6" font-family="Helvetica,sans-Serif" font-size="8.00" fill="#000000"> myGM</text>
</g>
<!-- Node48&#45;&gt;Node47 -->
<g id="edge9" class="edge">
<title>Node48&#45;&gt;Node47</title>
<path fill="none" stroke="#191970" d="M193.4162,-142.1288C174.8726,-126.3667 146.6883,-102.4101 131.7037,-89.6732"/>
<polygon fill="#191970" stroke="#191970" points="191.2897,-144.9148 201.1759,-148.7245 195.8232,-139.5812 191.2897,-144.9148"/>
</g>
<!-- Node49 -->
<g id="node9" class="node">
<title>Node49</title>
<g id="a_node9"><a xlink:href="../../d5/d76/class_matching.html" target="_top" xlink:title="Matching\&lt; GMMatching,\l GeorgiMachacek \&gt;">
<polygon fill="none" stroke="#ff0000" points="68,-144.5 68,-170.5 171,-170.5 171,-144.5 68,-144.5"/>
<text text-anchor="start" x="76" y="-160.1" font-family="Helvetica,sans-Serif" font-size="8.00" fill="#000000">Matching&lt; GMMatching,</text>
<text text-anchor="middle" x="119.5" y="-151.1" font-family="Helvetica,sans-Serif" font-size="8.00" fill="#000000"> GeorgiMachacek &gt;</text>
</a>
</g>
</g>
<!-- Node49&#45;&gt;Node47 -->
<g id="edge12" class="edge">
<title>Node49&#45;&gt;Node47</title>
<path fill="none" stroke="#9a32cd" stroke-dasharray="5,2" d="M120.1121,-134.0882C120.5027,-119.1453 120.9869,-100.6269 121.2679,-89.8783"/>
<polygon fill="#9a32cd" stroke="#9a32cd" points="116.611,-134.0866 119.8484,-144.1747 123.6086,-134.2696 116.611,-134.0866"/>
<text text-anchor="middle" x="132.5" y="-115.1" font-family="Helvetica,sans-Serif" font-size="8.00" fill="#000000"> GMM</text>
</g>
<!-- Node51&#45;&gt;Node47 -->
<g id="edge13" class="edge">
<title>Node51&#45;&gt;Node47</title>
<path fill="none" stroke="#9a32cd" stroke-dasharray="5,2" d="M158.115,-31.7293C155.8902,-38.993 152.7421,-47.2203 148.5,-54 144.1398,-60.9684 137.6688,-67.5209 132.1549,-72.4255"/>
<polygon fill="#9a32cd" stroke="#9a32cd" points="161.4985,-32.6247 160.734,-22.0575 154.7419,-30.795 161.4985,-32.6247"/>
<text text-anchor="middle" x="177.5" y="-47.6" font-family="Helvetica,sans-Serif" font-size="8.00" fill="#000000"> myGMcache</text>
</g>
</g>
</svg>
