<?xml version="1.0" encoding="UTF-8" standalone="no"?>
<!DOCTYPE svg PUBLIC "-//W3C//DTD SVG 1.1//EN"
 "http://www.w3.org/Graphics/SVG/1.1/DTD/svg11.dtd">
<!-- Generated by graphviz version 2.40.1 (20161225.0304)
 -->
<!-- Title: SUSYSpectrum.cpp Pages: 1 -->
<svg width="354pt" height="296pt"
 viewBox="0.00 0.00 353.53 296.00" xmlns="http://www.w3.org/2000/svg" xmlns:xlink="http://www.w3.org/1999/xlink">
<g id="graph0" class="graph" transform="scale(1 1) rotate(0) translate(4 292)">
<title>SUSYSpectrum.cpp</title>
<!-- Node0 -->
<g id="node1" class="node">
<title>Node0</title>
<polygon fill="#bfbfbf" stroke="#000000" points="71.0307,-270.5 71.0307,-287.5 159.0307,-287.5 159.0307,-270.5 71.0307,-270.5"/>
<text text-anchor="middle" x="115.0307" y="-277.1" font-family="Helvetica,sans-Serif" font-size="8.00" fill="#000000">SUSYSpectrum.cpp</text>
</g>
<!-- Node1 -->
<g id="node2" class="node">
<title>Node1</title>
<polygon fill="none" stroke="#bfbfbf" points="14.5307,-.5 14.5307,-17.5 61.5307,-17.5 61.5307,-.5 14.5307,-.5"/>
<text text-anchor="middle" x="38.0307" y="-7.1" font-family="Helvetica,sans-Serif" font-size="8.00" fill="#000000">iostream</text>
</g>
<!-- Node0&#45;&gt;Node1 -->
<g id="edge1" class="edge">
<title>Node0&#45;&gt;Node1</title>
<path fill="none" stroke="#191970" d="M80.4622,-270.4936C59.9448,-263.773 34.9178,-252.3834 19.0307,-234 -.0921,-211.8725 .0307,-200.2457 .0307,-171 .0307,-171 .0307,-171 .0307,-117 .0307,-83.5201 16.4813,-47.3427 27.7348,-26.5113"/>
<polygon fill="#191970" stroke="#191970" points="30.8968,-28.0288 32.747,-17.5968 24.7951,-24.5982 30.8968,-28.0288"/>
</g>
<!-- Node2 -->
<g id="node3" class="node">
<title>Node2</title>
<polygon fill="none" stroke="#bfbfbf" points="28.5307,-216.5 28.5307,-233.5 79.5307,-233.5 79.5307,-216.5 28.5307,-216.5"/>
<text text-anchor="middle" x="54.0307" y="-223.1" font-family="Helvetica,sans-Serif" font-size="8.00" fill="#000000">stdexcept</text>
</g>
<!-- Node0&#45;&gt;Node2 -->
<g id="edge2" class="edge">
<title>Node0&#45;&gt;Node2</title>
<path fill="none" stroke="#191970" d="M105.23,-270.324C96.2126,-262.3414 82.6247,-250.3128 71.7127,-240.6529"/>
<polygon fill="#191970" stroke="#191970" points="73.8173,-237.8416 64.0097,-233.8339 69.1774,-243.083 73.8173,-237.8416"/>
</g>
<!-- Node3 -->
<g id="node4" class="node">
<title>Node3</title>
<polygon fill="none" stroke="#bfbfbf" points="97.5307,-216.5 97.5307,-233.5 132.5307,-233.5 132.5307,-216.5 97.5307,-216.5"/>
<text text-anchor="middle" x="115.0307" y="-223.1" font-family="Helvetica,sans-Serif" font-size="8.00" fill="#000000">limits</text>
</g>
<!-- Node0&#45;&gt;Node3 -->
<g id="edge3" class="edge">
<title>Node0&#45;&gt;Node3</title>
<path fill="none" stroke="#191970" d="M115.0307,-270.083C115.0307,-263.0059 115.0307,-252.8611 115.0307,-243.9865"/>
<polygon fill="#191970" stroke="#191970" points="118.5308,-243.751 115.0307,-233.7511 111.5308,-243.7511 118.5308,-243.751"/>
</g>
<!-- Node4 -->
<g id="node5" class="node">
<title>Node4</title>
<g id="a_node5"><a xlink:href="../../db/d6b/_s_u_s_y_spectrum_8h.html" target="_top" xlink:title="SUSYSpectrum.h">
<polygon fill="none" stroke="#000000" points="37.5307,-162.5 37.5307,-179.5 116.5307,-179.5 116.5307,-162.5 37.5307,-162.5"/>
<text text-anchor="middle" x="77.0307" y="-169.1" font-family="Helvetica,sans-Serif" font-size="8.00" fill="#000000">SUSYSpectrum.h</text>
</a>
</g>
</g>
<!-- Node0&#45;&gt;Node4 -->
<g id="edge4" class="edge">
<title>Node0&#45;&gt;Node4</title>
<path fill="none" stroke="#191970" d="M123.5043,-270.2239C134.3759,-257.848 150.7376,-234.6913 141.0307,-216 133.8776,-202.2262 120.3595,-191.783 107.5835,-184.4413"/>
<polygon fill="#191970" stroke="#191970" points="108.989,-181.2252 98.5133,-179.6403 105.7141,-187.412 108.989,-181.2252"/>
</g>
<!-- Node20 -->
<g id="node8" class="node">
<title>Node20</title>
<g id="a_node8"><a xlink:href="../../d5/d37/_s_u_s_y_8h.html" target="_top" xlink:title="SUSY.h">
<polygon fill="none" stroke="#000000" points="189.5307,-216.5 189.5307,-233.5 234.5307,-233.5 234.5307,-216.5 189.5307,-216.5"/>
<text text-anchor="middle" x="212.0307" y="-223.1" font-family="Helvetica,sans-Serif" font-size="8.00" fill="#000000">SUSY.h</text>
</a>
</g>
</g>
<!-- Node0&#45;&gt;Node20 -->
<g id="edge8" class="edge">
<title>Node0&#45;&gt;Node20</title>
<path fill="none" stroke="#191970" d="M130.6154,-270.324C146.0298,-261.7428 169.8429,-248.486 187.7404,-238.5224"/>
<polygon fill="#191970" stroke="#191970" points="189.4498,-241.5767 196.4847,-233.6545 186.0449,-235.4606 189.4498,-241.5767"/>
</g>
<!-- Node5 -->
<g id="node6" class="node">
<title>Node5</title>
<g id="a_node6"><a xlink:href="../../d9/d72/gslpp_8h.html" target="_top" xlink:title="gslpp.h">
<polygon fill="none" stroke="#ff0000" points="90.0307,-108.5 90.0307,-125.5 132.0307,-125.5 132.0307,-108.5 90.0307,-108.5"/>
<text text-anchor="middle" x="111.0307" y="-115.1" font-family="Helvetica,sans-Serif" font-size="8.00" fill="#000000">gslpp.h</text>
</a>
</g>
</g>
<!-- Node4&#45;&gt;Node5 -->
<g id="edge5" class="edge">
<title>Node4&#45;&gt;Node5</title>
<path fill="none" stroke="#191970" d="M82.6451,-162.083C87.3981,-154.5341 94.3488,-143.4948 100.1823,-134.2298"/>
<polygon fill="#191970" stroke="#191970" points="103.1544,-136.0783 105.5208,-125.7511 97.2308,-132.3486 103.1544,-136.0783"/>
</g>
<!-- Node6 -->
<g id="node7" class="node">
<title>Node6</title>
<g id="a_node7"><a xlink:href="../../d1/dc2/gslpp__complex_8h.html" target="_top" xlink:title="gslpp_complex.h">
<polygon fill="none" stroke="#ff0000" points="67.5307,-54.5 67.5307,-71.5 144.5307,-71.5 144.5307,-54.5 67.5307,-54.5"/>
<text text-anchor="middle" x="106.0307" y="-61.1" font-family="Helvetica,sans-Serif" font-size="8.00" fill="#000000">gslpp_complex.h</text>
</a>
</g>
</g>
<!-- Node5&#45;&gt;Node6 -->
<g id="edge6" class="edge">
<title>Node5&#45;&gt;Node6</title>
<path fill="none" stroke="#191970" d="M110.2051,-108.083C109.5498,-101.0059 108.6104,-90.8611 107.7887,-81.9865"/>
<polygon fill="#191970" stroke="#191970" points="111.2482,-81.3858 106.841,-71.7511 104.278,-82.0312 111.2482,-81.3858"/>
</g>
<!-- Node6&#45;&gt;Node1 -->
<g id="edge7" class="edge">
<title>Node6&#45;&gt;Node1</title>
<path fill="none" stroke="#191970" d="M95.1053,-54.324C84.8561,-46.1849 69.3101,-33.8395 57.0297,-24.0874"/>
<polygon fill="#191970" stroke="#191970" points="59.1626,-21.3119 49.1549,-17.8339 54.8094,-26.7937 59.1626,-21.3119"/>
</g>
<!-- Node20&#45;&gt;Node5 -->
<g id="edge9" class="edge">
<title>Node20&#45;&gt;Node5</title>
<path fill="none" stroke="#191970" d="M202.1468,-216.3583C192.2093,-207.5276 176.6022,-193.266 164.0307,-180 149.8118,-164.9956 134.7432,-146.8374 124.323,-133.8776"/>
<polygon fill="#191970" stroke="#191970" points="126.8875,-131.4796 117.9193,-125.8386 121.4123,-135.8411 126.8875,-131.4796"/>
</g>
<!-- Node21 -->
<g id="node9" class="node">
<title>Node21</title>
<g id="a_node9"><a xlink:href="../../d6/d0a/_standard_model_8h.html" target="_top" xlink:title="StandardModel.h">
<polygon fill="none" stroke="#ff0000" points="173.5307,-162.5 173.5307,-179.5 250.5307,-179.5 250.5307,-162.5 173.5307,-162.5"/>
<text text-anchor="middle" x="212.0307" y="-169.1" font-family="Helvetica,sans-Serif" font-size="8.00" fill="#000000">StandardModel.h</text>
</a>
</g>
</g>
<!-- Node20&#45;&gt;Node21 -->
<g id="edge10" class="edge">
<title>Node20&#45;&gt;Node21</title>
<path fill="none" stroke="#191970" d="M212.0307,-216.083C212.0307,-209.0059 212.0307,-198.8611 212.0307,-189.9865"/>
<polygon fill="#191970" stroke="#191970" points="215.5308,-189.751 212.0307,-179.7511 208.5308,-189.7511 215.5308,-189.751"/>
</g>
<!-- Node52 -->
<g id="node10" class="node">
<title>Node52</title>
<g id="a_node10"><a xlink:href="../../dd/dc9/_s_u_s_y_matching_8h.html" target="_top" xlink:title="SUSYMatching.h">
<polygon fill="none" stroke="#ff0000" points="268.5307,-162.5 268.5307,-179.5 345.5307,-179.5 345.5307,-162.5 268.5307,-162.5"/>
<text text-anchor="middle" x="307.0307" y="-169.1" font-family="Helvetica,sans-Serif" font-size="8.00" fill="#000000">SUSYMatching.h</text>
</a>
</g>
</g>
<!-- Node20&#45;&gt;Node52 -->
<g id="edge11" class="edge">
<title>Node20&#45;&gt;Node52</title>
<path fill="none" stroke="#191970" d="M227.2941,-216.324C242.2521,-207.8215 265.2855,-194.7288 282.7574,-184.7975"/>
<polygon fill="#191970" stroke="#191970" points="284.8411,-187.639 291.8052,-179.6545 281.3819,-181.5534 284.8411,-187.639"/>
</g>
<!-- Node52&#45;&gt;Node5 -->
<g id="edge12" class="edge">
<title>Node52&#45;&gt;Node5</title>
<path fill="none" stroke="#191970" d="M275.9739,-162.4435C239.27,-152.3312 178.5681,-135.6072 141.9321,-125.5136"/>
<polygon fill="#191970" stroke="#191970" points="142.8474,-122.1355 132.277,-122.8536 140.9881,-128.8841 142.8474,-122.1355"/>
</g>
</g>
</svg>
