<?xml version="1.0" encoding="UTF-8" standalone="no"?>
<!DOCTYPE svg PUBLIC "-//W3C//DTD SVG 1.1//EN"
 "http://www.w3.org/Graphics/SVG/1.1/DTD/svg11.dtd">
<!-- Generated by graphviz version 2.38.0 (20140413.2041)
 -->
<!-- Title: DmBd.h Pages: 1 -->
<svg width="329pt" height="296pt"
 viewBox="0.00 0.00 328.85 296.00" xmlns="http://www.w3.org/2000/svg" xmlns:xlink="http://www.w3.org/1999/xlink">
<g id="graph0" class="graph" transform="scale(1 1) rotate(0) translate(4 292)">
<title>DmBd.h</title>
<!-- Node1 -->
<g id="node1" class="node"><title>Node1</title>
<polygon fill="#bfbfbf" stroke="black" points="146.947,-270.5 146.947,-287.5 191.947,-287.5 191.947,-270.5 146.947,-270.5"/>
<text text-anchor="middle" x="169.447" y="-277.1" font-family="Helvetica,sans-Serif" font-size="8.00">DmBd.h</text>
</g>
<!-- Node2 -->
<g id="node2" class="node"><title>Node2</title>
<g id="a_node2"><a xlink:href="../../dd/dcd/_th_observable_8h.html" target="_top" xlink:title="ThObservable.h">
<polygon fill="none" stroke="black" points="4.94745,-54.5 4.94745,-71.5 77.9474,-71.5 77.9474,-54.5 4.94745,-54.5"/>
<text text-anchor="middle" x="41.4474" y="-61.1" font-family="Helvetica,sans-Serif" font-size="8.00">ThObservable.h</text>
</a>
</g>
</g>
<!-- Node1&#45;&gt;Node2 -->
<g id="edge1" class="edge"><title>Node1&#45;&gt;Node2</title>
<path fill="none" stroke="midnightblue" d="M154.82,-270.373C120.355,-251.457 34.5427,-198.612 2.44745,-126 -5.21582,-108.663 9.26791,-90.4949 22.7055,-78.3418"/>
<polygon fill="midnightblue" stroke="midnightblue" points="25.3161,-80.7204 30.7298,-71.6132 20.8183,-75.3566 25.3161,-80.7204"/>
</g>
<!-- Node4 -->
<g id="node4" class="node"><title>Node4</title>
<g id="a_node4"><a xlink:href="../../d2/d65/_flavour_8h.html" target="_top" xlink:title="Flavour.h">
<polygon fill="none" stroke="black" points="172.447,-162.5 172.447,-179.5 222.447,-179.5 222.447,-162.5 172.447,-162.5"/>
<text text-anchor="middle" x="197.447" y="-169.1" font-family="Helvetica,sans-Serif" font-size="8.00">Flavour.h</text>
</a>
</g>
</g>
<!-- Node1&#45;&gt;Node4 -->
<g id="edge3" class="edge"><title>Node1&#45;&gt;Node4</title>
<path fill="none" stroke="midnightblue" d="M171.461,-270.377C175.901,-253.569 186.627,-212.963 192.822,-189.51"/>
<polygon fill="midnightblue" stroke="midnightblue" points="196.282,-190.116 195.452,-179.554 189.514,-188.329 196.282,-190.116"/>
</g>
<!-- Node10 -->
<g id="node10" class="node"><title>Node10</title>
<g id="a_node10"><a xlink:href="../../da/d41/_amp_d_b2_8h.html" target="_top" xlink:title="AmpDB2.h">
<polygon fill="none" stroke="red" points="197.947,-216.5 197.947,-233.5 252.947,-233.5 252.947,-216.5 197.947,-216.5"/>
<text text-anchor="middle" x="225.447" y="-223.1" font-family="Helvetica,sans-Serif" font-size="8.00">AmpDB2.h</text>
</a>
</g>
</g>
<!-- Node1&#45;&gt;Node10 -->
<g id="edge15" class="edge"><title>Node1&#45;&gt;Node10</title>
<path fill="none" stroke="midnightblue" d="M177.71,-270.327C186.065,-262.57 199.189,-250.383 209.563,-240.749"/>
<polygon fill="midnightblue" stroke="midnightblue" points="212.204,-243.074 217.151,-233.704 207.441,-237.944 212.204,-243.074"/>
</g>
<!-- Node3 -->
<g id="node3" class="node"><title>Node3</title>
<g id="a_node3"><a xlink:href="../../d6/d0a/_standard_model_8h.html" target="_top" xlink:title="StandardModel.h">
<polygon fill="none" stroke="red" points="136.947,-0.5 136.947,-17.5 213.947,-17.5 213.947,-0.5 136.947,-0.5"/>
<text text-anchor="middle" x="175.447" y="-7.1" font-family="Helvetica,sans-Serif" font-size="8.00">StandardModel.h</text>
</a>
</g>
</g>
<!-- Node2&#45;&gt;Node3 -->
<g id="edge2" class="edge"><title>Node2&#45;&gt;Node3</title>
<path fill="none" stroke="midnightblue" d="M60.9322,-54.4388C83.3605,-45.7352 120.424,-31.3523 146.291,-21.3145"/>
<polygon fill="midnightblue" stroke="midnightblue" points="147.883,-24.4511 155.939,-17.5704 145.35,-17.9252 147.883,-24.4511"/>
</g>
<!-- Node5 -->
<g id="node5" class="node"><title>Node5</title>
<g id="a_node5"><a xlink:href="../../dd/d03/_heff_d_f2_8h.html" target="_top" xlink:title="HeffDF2.h">
<polygon fill="none" stroke="red" points="176.947,-54.5 176.947,-71.5 229.947,-71.5 229.947,-54.5 176.947,-54.5"/>
<text text-anchor="middle" x="203.447" y="-61.1" font-family="Helvetica,sans-Serif" font-size="8.00">HeffDF2.h</text>
</a>
</g>
</g>
<!-- Node4&#45;&gt;Node5 -->
<g id="edge4" class="edge"><title>Node4&#45;&gt;Node5</title>
<path fill="none" stroke="midnightblue" d="M204.342,-162.256C211.223,-153.962 221.346,-140.083 225.447,-126 230.079,-110.096 222.402,-92.3129 214.876,-79.8844"/>
<polygon fill="midnightblue" stroke="midnightblue" points="217.794,-77.9517 209.356,-71.5437 211.956,-81.8147 217.794,-77.9517"/>
</g>
<!-- Node6 -->
<g id="node6" class="node"><title>Node6</title>
<g id="a_node6"><a xlink:href="../../d9/d29/_heff_d_b1_8h.html" target="_top" xlink:title="HeffDB1.h">
<polygon fill="none" stroke="red" points="247.947,-54.5 247.947,-71.5 300.947,-71.5 300.947,-54.5 247.947,-54.5"/>
<text text-anchor="middle" x="274.447" y="-61.1" font-family="Helvetica,sans-Serif" font-size="8.00">HeffDB1.h</text>
</a>
</g>
</g>
<!-- Node4&#45;&gt;Node6 -->
<g id="edge6" class="edge"><title>Node4&#45;&gt;Node6</title>
<path fill="none" stroke="midnightblue" d="M206.075,-162.489C215.304,-154.173 230.018,-140.074 240.447,-126 251.059,-111.68 260.57,-93.6608 266.816,-80.7443"/>
<polygon fill="midnightblue" stroke="midnightblue" points="270.005,-82.1874 271.083,-71.6476 263.668,-79.2144 270.005,-82.1874"/>
</g>
<!-- Node7 -->
<g id="node7" class="node"><title>Node7</title>
<g id="a_node7"><a xlink:href="../../d8/d37/_m_vll_8h.html" target="_top" xlink:title="MVll.h">
<polygon fill="none" stroke="red" points="11.9474,-108.5 11.9474,-125.5 50.9474,-125.5 50.9474,-108.5 11.9474,-108.5"/>
<text text-anchor="middle" x="31.4474" y="-115.1" font-family="Helvetica,sans-Serif" font-size="8.00">MVll.h</text>
</a>
</g>
</g>
<!-- Node4&#45;&gt;Node7 -->
<g id="edge8" class="edge"><title>Node4&#45;&gt;Node7</title>
<path fill="none" stroke="midnightblue" d="M173.31,-162.439C143.531,-153.111 92.9265,-137.258 60.8939,-127.224"/>
<polygon fill="midnightblue" stroke="midnightblue" points="61.7852,-123.836 51.1962,-124.186 59.6927,-130.516 61.7852,-123.836"/>
</g>
<!-- Node8 -->
<g id="node8" class="node"><title>Node8</title>
<g id="a_node8"><a xlink:href="../../d0/dee/_m_pll_8h.html" target="_top" xlink:title="MPll.h">
<polygon fill="none" stroke="red" points="177.947,-108.5 177.947,-125.5 216.947,-125.5 216.947,-108.5 177.947,-108.5"/>
<text text-anchor="middle" x="197.447" y="-115.1" font-family="Helvetica,sans-Serif" font-size="8.00">MPll.h</text>
</a>
</g>
</g>
<!-- Node4&#45;&gt;Node8 -->
<g id="edge11" class="edge"><title>Node4&#45;&gt;Node8</title>
<path fill="none" stroke="midnightblue" d="M197.447,-162.327C197.447,-155.414 197.447,-144.985 197.447,-135.979"/>
<polygon fill="midnightblue" stroke="midnightblue" points="200.948,-135.704 197.447,-125.704 193.948,-135.704 200.948,-135.704"/>
</g>
<!-- Node9 -->
<g id="node9" class="node"><title>Node9</title>
<polygon fill="none" stroke="#bfbfbf" points="68.9474,-108.5 68.9474,-125.5 159.947,-125.5 159.947,-108.5 68.9474,-108.5"/>
<text text-anchor="middle" x="114.447" y="-115.1" font-family="Helvetica,sans-Serif" font-size="8.00">boost/tuple/tuple.hpp</text>
</g>
<!-- Node4&#45;&gt;Node9 -->
<g id="edge14" class="edge"><title>Node4&#45;&gt;Node9</title>
<path fill="none" stroke="midnightblue" d="M185.201,-162.327C172.007,-154.062 150.788,-140.768 135.024,-130.891"/>
<polygon fill="midnightblue" stroke="midnightblue" points="136.807,-127.878 126.475,-125.535 133.091,-133.81 136.807,-127.878"/>
</g>
<!-- Node5&#45;&gt;Node3 -->
<g id="edge5" class="edge"><title>Node5&#45;&gt;Node3</title>
<path fill="none" stroke="midnightblue" d="M199.316,-54.3272C195.428,-47.1072 189.475,-36.0509 184.487,-26.7869"/>
<polygon fill="midnightblue" stroke="midnightblue" points="187.419,-24.8496 179.596,-17.7043 181.255,-28.1683 187.419,-24.8496"/>
</g>
<!-- Node6&#45;&gt;Node3 -->
<g id="edge7" class="edge"><title>Node6&#45;&gt;Node3</title>
<path fill="none" stroke="midnightblue" d="M259.84,-54.3272C243.735,-45.8684 217.606,-32.1437 198.684,-22.2049"/>
<polygon fill="midnightblue" stroke="midnightblue" points="200.274,-19.0868 189.793,-17.5352 197.019,-25.2839 200.274,-19.0868"/>
</g>
<!-- Node7&#45;&gt;Node2 -->
<g id="edge10" class="edge"><title>Node7&#45;&gt;Node2</title>
<path fill="none" stroke="midnightblue" d="M32.923,-108.327C34.2671,-101.338 36.3027,-90.7528 38.0476,-81.6792"/>
<polygon fill="midnightblue" stroke="midnightblue" points="41.5143,-82.1853 39.9659,-71.7043 34.6403,-80.8633 41.5143,-82.1853"/>
</g>
<!-- Node7&#45;&gt;Node3 -->
<g id="edge9" class="edge"><title>Node7&#45;&gt;Node3</title>
<path fill="none" stroke="midnightblue" d="M41.8036,-108.377C65.9856,-90.5761 126.432,-46.0805 157.053,-23.5405"/>
<polygon fill="midnightblue" stroke="midnightblue" points="159.207,-26.3011 165.185,-17.5542 155.057,-20.6637 159.207,-26.3011"/>
</g>
<!-- Node8&#45;&gt;Node2 -->
<g id="edge13" class="edge"><title>Node8&#45;&gt;Node2</title>
<path fill="none" stroke="midnightblue" d="M177.69,-109.414C151.501,-100.684 104.96,-85.1707 73.6547,-74.7357"/>
<polygon fill="midnightblue" stroke="midnightblue" points="74.6649,-71.3832 64.0713,-71.5413 72.4513,-78.024 74.6649,-71.3832"/>
</g>
<!-- Node8&#45;&gt;Node3 -->
<g id="edge12" class="edge"><title>Node8&#45;&gt;Node3</title>
<path fill="none" stroke="midnightblue" d="M190.069,-108.348C182.703,-100.13 171.862,-86.3123 167.447,-72 162.944,-57.4013 165.812,-40.1114 169.306,-27.5039"/>
<polygon fill="midnightblue" stroke="midnightblue" points="172.692,-28.4051 172.369,-17.8152 166.018,-26.2953 172.692,-28.4051"/>
</g>
<!-- Node10&#45;&gt;Node3 -->
<g id="edge17" class="edge"><title>Node10&#45;&gt;Node3</title>
<path fill="none" stroke="midnightblue" d="M234.825,-216.382C264.307,-191.517 350.768,-111.059 309.447,-54 290.113,-27.301 254.055,-16.5148 224.211,-12.2885"/>
<polygon fill="midnightblue" stroke="midnightblue" points="224.298,-8.77376 213.951,-11.0519 223.46,-15.7235 224.298,-8.77376"/>
</g>
<!-- Node10&#45;&gt;Node4 -->
<g id="edge16" class="edge"><title>Node10&#45;&gt;Node4</title>
<path fill="none" stroke="midnightblue" d="M221.316,-216.327C217.428,-209.107 211.475,-198.051 206.487,-188.787"/>
<polygon fill="midnightblue" stroke="midnightblue" points="209.419,-186.85 201.596,-179.704 203.255,-190.168 209.419,-186.85"/>
</g>
</g>
</svg>
