<?xml version="1.0" encoding="UTF-8" standalone="no"?>
<!DOCTYPE svg PUBLIC "-//W3C//DTD SVG 1.1//EN"
 "http://www.w3.org/Graphics/SVG/1.1/DTD/svg11.dtd">
<!-- Generated by graphviz version 2.40.1 (20161225.0304)
 -->
<!-- Title: LRSMquantities.h Pages: 1 -->
<svg width="346pt" height="134pt"
 viewBox="0.00 0.00 345.50 134.00" xmlns="http://www.w3.org/2000/svg" xmlns:xlink="http://www.w3.org/1999/xlink">
<g id="graph0" class="graph" transform="scale(1 1) rotate(0) translate(4 130)">
<title>LRSMquantities.h</title>
<!-- Node52 -->
<g id="node1" class="node">
<title>Node52</title>
<polygon fill="#bfbfbf" stroke="#000000" points="146.5,-108.5 146.5,-125.5 226.5,-125.5 226.5,-108.5 146.5,-108.5"/>
<text text-anchor="middle" x="186.5" y="-115.1" font-family="Helvetica,sans-Serif" font-size="8.00" fill="#000000">LRSMquantities.h</text>
</g>
<!-- Node53 -->
<g id="node2" class="node">
<title>Node53</title>
<g id="a_node2"><a xlink:href="../../df/d9b/_left_right_symmetric_model_8cpp.html" target="_top" xlink:title="LeftRightSymmetricModel.cpp">
<polygon fill="none" stroke="#000000" points="0,-54.5 0,-71.5 123,-71.5 123,-54.5 0,-54.5"/>
<text text-anchor="middle" x="61.5" y="-61.1" font-family="Helvetica,sans-Serif" font-size="8.00" fill="#000000">LeftRightSymmetricModel.cpp</text>
</a>
</g>
</g>
<!-- Node52&#45;&gt;Node53 -->
<g id="edge1" class="edge">
<title>Node52&#45;&gt;Node53</title>
<path fill="none" stroke="#191970" d="M157.2587,-104.3678C133.8502,-94.2553 101.6587,-80.3486 81.214,-71.5164"/>
<polygon fill="#191970" stroke="#191970" points="156.1253,-107.6907 166.6934,-108.4435 158.9014,-101.2647 156.1253,-107.6907"/>
</g>
<!-- Node54 -->
<g id="node3" class="node">
<title>Node54</title>
<g id="a_node3"><a xlink:href="../../dd/d4a/_l_r_s_m_observables_8h.html" target="_top" xlink:title="LRSMObservables.h">
<polygon fill="none" stroke="#000000" points="141.5,-54.5 141.5,-71.5 231.5,-71.5 231.5,-54.5 141.5,-54.5"/>
<text text-anchor="middle" x="186.5" y="-61.1" font-family="Helvetica,sans-Serif" font-size="8.00" fill="#000000">LRSMObservables.h</text>
</a>
</g>
</g>
<!-- Node52&#45;&gt;Node54 -->
<g id="edge2" class="edge">
<title>Node52&#45;&gt;Node54</title>
<path fill="none" stroke="#191970" d="M186.5,-97.8045C186.5,-88.9102 186.5,-78.7798 186.5,-71.7511"/>
<polygon fill="#191970" stroke="#191970" points="183.0001,-98.083 186.5,-108.083 190.0001,-98.083 183.0001,-98.083"/>
</g>
<!-- Node56 -->
<g id="node5" class="node">
<title>Node56</title>
<g id="a_node5"><a xlink:href="../../db/dc4/_l_r_s_mquantities_8cpp.html" target="_top" xlink:title="LRSMquantities.cpp">
<polygon fill="none" stroke="#000000" points="249.5,-54.5 249.5,-71.5 337.5,-71.5 337.5,-54.5 249.5,-54.5"/>
<text text-anchor="middle" x="293.5" y="-61.1" font-family="Helvetica,sans-Serif" font-size="8.00" fill="#000000">LRSMquantities.cpp</text>
</a>
</g>
</g>
<!-- Node52&#45;&gt;Node56 -->
<g id="edge4" class="edge">
<title>Node52&#45;&gt;Node56</title>
<path fill="none" stroke="#191970" d="M212.802,-103.7261C232.6148,-93.7271 259.2075,-80.3065 276.3513,-71.6545"/>
<polygon fill="#191970" stroke="#191970" points="211.042,-100.6938 203.6914,-108.324 214.1959,-106.9431 211.042,-100.6938"/>
</g>
<!-- Node55 -->
<g id="node4" class="node">
<title>Node55</title>
<g id="a_node4"><a xlink:href="../../d1/de2/_th_obs_factory_8cpp.html" target="_top" xlink:title="ThObsFactory.cpp">
<polygon fill="none" stroke="#000000" points="145.5,-.5 145.5,-17.5 227.5,-17.5 227.5,-.5 145.5,-.5"/>
<text text-anchor="middle" x="186.5" y="-7.1" font-family="Helvetica,sans-Serif" font-size="8.00" fill="#000000">ThObsFactory.cpp</text>
</a>
</g>
</g>
<!-- Node54&#45;&gt;Node55 -->
<g id="edge3" class="edge">
<title>Node54&#45;&gt;Node55</title>
<path fill="none" stroke="#191970" d="M186.5,-43.8045C186.5,-34.9102 186.5,-24.7798 186.5,-17.7511"/>
<polygon fill="#191970" stroke="#191970" points="183.0001,-44.083 186.5,-54.083 190.0001,-44.083 183.0001,-44.083"/>
</g>
</g>
</svg>
