<?xml version="1.0" encoding="UTF-8" standalone="no"?>
<!DOCTYPE svg PUBLIC "-//W3C//DTD SVG 1.1//EN"
 "http://www.w3.org/Graphics/SVG/1.1/DTD/svg11.dtd">
<!-- Generated by graphviz version 2.40.1 (20161225.0304)
 -->
<!-- Title: Hobs_pp_SrSr_jjjj_ATLAS13 Pages: 1 -->
<svg width="463pt" height="288pt"
 viewBox="0.00 0.00 463.00 288.00" xmlns="http://www.w3.org/2000/svg" xmlns:xlink="http://www.w3.org/1999/xlink">
<g id="graph0" class="graph" transform="scale(1 1) rotate(0) translate(4 284)">
<title>Hobs_pp_SrSr_jjjj_ATLAS13</title>
<!-- Node2 -->
<g id="node1" class="node">
<title>Node2</title>
<polygon fill="#bfbfbf" stroke="#000000" points="0,-.5 0,-17.5 119,-17.5 119,-.5 0,-.5"/>
<text text-anchor="middle" x="59.5" y="-7.1" font-family="Helvetica,sans-Serif" font-size="8.00" fill="#000000">Hobs_pp_SrSr_jjjj_ATLAS13</text>
</g>
<!-- Node3 -->
<g id="node2" class="node">
<title>Node3</title>
<g id="a_node2"><a xlink:href="../../dc/d1f/class_th_observable.html" target="_top" xlink:title="A class for a model prediction of an observable. ">
<polygon fill="none" stroke="#000000" points="10,-99.5 10,-116.5 77,-116.5 77,-99.5 10,-99.5"/>
<text text-anchor="middle" x="43.5" y="-106.1" font-family="Helvetica,sans-Serif" font-size="8.00" fill="#000000">ThObservable</text>
</a>
</g>
</g>
<!-- Node3&#45;&gt;Node2 -->
<g id="edge1" class="edge">
<title>Node3&#45;&gt;Node2</title>
<path fill="none" stroke="#191970" d="M46.5182,-89.3249C49.9877,-67.8571 55.534,-33.5398 58.1061,-17.6245"/>
<polygon fill="#191970" stroke="#191970" points="43.0603,-88.7841 44.9199,-99.2144 49.9706,-89.9009 43.0603,-88.7841"/>
</g>
<!-- Node4 -->
<g id="node3" class="node">
<title>Node4</title>
<g id="a_node3"><a xlink:href="../../dc/dd5/class_standard_model.html" target="_top" xlink:title="A model class for the Standard Model. ">
<polygon fill="none" stroke="#ff0000" points="235,-207.5 235,-224.5 306,-224.5 306,-207.5 235,-207.5"/>
<text text-anchor="middle" x="270.5" y="-214.1" font-family="Helvetica,sans-Serif" font-size="8.00" fill="#000000">StandardModel</text>
</a>
</g>
</g>
<!-- Node4&#45;&gt;Node3 -->
<g id="edge2" class="edge">
<title>Node4&#45;&gt;Node3</title>
<path fill="none" stroke="#9a32cd" stroke-dasharray="5,2" d="M224.6841,-209.2295C170.8828,-200.4238 85.9836,-183.5825 62.5,-162 49.475,-150.0294 45.3771,-128.5986 44.0892,-116.6505"/>
<polygon fill="#9a32cd" stroke="#9a32cd" points="224.2462,-212.7039 234.6741,-210.8311 225.3543,-205.7922 224.2462,-212.7039"/>
<text text-anchor="middle" x="135" y="-182.6" font-family="Helvetica,sans-Serif" font-size="8.00" fill="#000000"> SM</text>
</g>
<!-- Node9 -->
<g id="node6" class="node">
<title>Node9</title>
<g id="a_node6"><a xlink:href="../../dc/df3/class_e_w_s_mcache.html" target="_top" xlink:title="A class for cache variables used in computing radiative corrections to the EW precision observables...">
<polygon fill="none" stroke="#ff0000" points="392,-140 392,-157 455,-157 455,-140 392,-140"/>
<text text-anchor="middle" x="423.5" y="-146.6" font-family="Helvetica,sans-Serif" font-size="8.00" fill="#000000">EWSMcache</text>
</a>
</g>
</g>
<!-- Node4&#45;&gt;Node9 -->
<g id="edge6" class="edge">
<title>Node4&#45;&gt;Node9</title>
<path fill="none" stroke="#9a32cd" stroke-dasharray="5,2" d="M299.146,-203.362C329.6807,-189.8909 377.213,-168.9207 403.7965,-157.1927"/>
<polygon fill="#9a32cd" stroke="#9a32cd" points="297.614,-200.2124 289.8776,-207.4511 300.4395,-206.6168 297.614,-200.2124"/>
<text text-anchor="middle" x="359" y="-182.6" font-family="Helvetica,sans-Serif" font-size="8.00" fill="#000000"> SM</text>
</g>
<!-- Node48 -->
<g id="node8" class="node">
<title>Node48</title>
<g id="a_node8"><a xlink:href="../../d2/df3/class_n_pbase.html" target="_top" xlink:title="The auxiliary base model class for other model classes. ">
<polygon fill="none" stroke="#000000" points="211,-140 211,-157 256,-157 256,-140 211,-140"/>
<text text-anchor="middle" x="233.5" y="-146.6" font-family="Helvetica,sans-Serif" font-size="8.00" fill="#000000">NPbase</text>
</a>
</g>
</g>
<!-- Node4&#45;&gt;Node48 -->
<g id="edge10" class="edge">
<title>Node4&#45;&gt;Node48</title>
<path fill="none" stroke="#191970" d="M240.9868,-201.8791C236.3692,-198.3354 232.2289,-194.0645 229.5,-189 224.1376,-179.048 227.0407,-165.7157 229.9721,-157.116"/>
<polygon fill="#191970" stroke="#191970" points="239.3206,-204.9705 249.6124,-207.4867 243.136,-199.1017 239.3206,-204.9705"/>
</g>
<!-- Node4&#45;&gt;Node48 -->
<g id="edge11" class="edge">
<title>Node4&#45;&gt;Node48</title>
<path fill="none" stroke="#9a32cd" stroke-dasharray="5,2" d="M256.3965,-199.3772C253.9217,-196.0561 251.5017,-192.5071 249.5,-189 243.5789,-178.6259 238.8719,-165.6301 236.1359,-157.2004"/>
<polygon fill="#9a32cd" stroke="#9a32cd" points="253.8586,-201.8087 262.8259,-207.4512 259.3345,-197.4481 253.8586,-201.8087"/>
<text text-anchor="middle" x="264" y="-182.6" font-family="Helvetica,sans-Serif" font-size="8.00" fill="#000000"> trueSM</text>
</g>
<!-- Node5 -->
<g id="node4" class="node">
<title>Node5</title>
<g id="a_node4"><a xlink:href="../../dd/dfa/class_q_c_d.html" target="_top" xlink:title="A class for parameters related to QCD, hadrons and quarks. ">
<polygon fill="none" stroke="#ff0000" points="253.5,-262.5 253.5,-279.5 287.5,-279.5 287.5,-262.5 253.5,-262.5"/>
<text text-anchor="middle" x="270.5" y="-269.1" font-family="Helvetica,sans-Serif" font-size="8.00" fill="#000000">QCD</text>
</a>
</g>
</g>
<!-- Node5&#45;&gt;Node4 -->
<g id="edge3" class="edge">
<title>Node5&#45;&gt;Node4</title>
<path fill="none" stroke="#191970" d="M270.5,-252.1166C270.5,-242.8173 270.5,-232.0557 270.5,-224.7149"/>
<polygon fill="#191970" stroke="#191970" points="267.0001,-252.4062 270.5,-262.4063 274.0001,-252.4063 267.0001,-252.4062"/>
</g>
<!-- Node8 -->
<g id="node5" class="node">
<title>Node8</title>
<g id="a_node5"><a xlink:href="../../db/d32/class_e_w_s_m_two_fermions_l_e_p2.html" target="_top" xlink:title="A class for the form factors , &#160;and &#160;in the processes &#160;at LEP&#45;II. ">
<polygon fill="none" stroke="#ff0000" points="254,-63.5 254,-80.5 363,-80.5 363,-63.5 254,-63.5"/>
<text text-anchor="middle" x="308.5" y="-70.1" font-family="Helvetica,sans-Serif" font-size="8.00" fill="#000000">EWSMTwoFermionsLEP2</text>
</a>
</g>
</g>
<!-- Node8&#45;&gt;Node4 -->
<g id="edge4" class="edge">
<title>Node8&#45;&gt;Node4</title>
<path fill="none" stroke="#9a32cd" stroke-dasharray="5,2" d="M304.0194,-90.3452C298.3302,-113.4288 288.097,-154.2597 278.5,-189 276.8337,-195.0319 274.8337,-201.7819 273.2503,-207.0239"/>
<polygon fill="#9a32cd" stroke="#9a32cd" points="307.4406,-91.0893 306.4246,-80.5433 300.6422,-89.4211 307.4406,-91.0893"/>
<text text-anchor="middle" x="334" y="-146.6" font-family="Helvetica,sans-Serif" font-size="8.00" fill="#000000"> myTwoFermionsLEP2</text>
</g>
<!-- Node9&#45;&gt;Node4 -->
<g id="edge7" class="edge">
<title>Node9&#45;&gt;Node4</title>
<path fill="none" stroke="#9a32cd" stroke-dasharray="5,2" d="M406.701,-164.0638C396.8051,-172.5023 383.6744,-182.5038 370.5,-189 350.3392,-198.9411 326.0248,-205.6114 306.4198,-209.8349"/>
<polygon fill="#9a32cd" stroke="#9a32cd" points="409.3138,-166.4255 414.4846,-157.1781 404.6757,-161.1826 409.3138,-166.4255"/>
<text text-anchor="middle" x="414.5" y="-182.6" font-family="Helvetica,sans-Serif" font-size="8.00" fill="#000000"> myEWSMcache</text>
</g>
<!-- Node9&#45;&gt;Node8 -->
<g id="edge5" class="edge">
<title>Node9&#45;&gt;Node8</title>
<path fill="none" stroke="#9a32cd" stroke-dasharray="5,2" d="M401.9749,-134.1811C378.329,-118.4515 341.1163,-93.697 321.5381,-80.6732"/>
<polygon fill="#9a32cd" stroke="#9a32cd" points="400.0434,-137.0999 410.308,-139.7245 403.9205,-131.2717 400.0434,-137.0999"/>
<text text-anchor="middle" x="384.5" y="-106.1" font-family="Helvetica,sans-Serif" font-size="8.00" fill="#000000"> cache</text>
</g>
<!-- Node47 -->
<g id="node7" class="node">
<title>Node47</title>
<g id="a_node7"><a xlink:href="../../dc/d90/class_t_h_d_m_w.html" target="_top" xlink:title="A base class for &#160;symmetric Two&#45;Higgs&#45;Doublet&#45;Manohar&#45;Wise models. ">
<polygon fill="none" stroke="#000000" points="120,-63.5 120,-80.5 167,-80.5 167,-63.5 120,-63.5"/>
<text text-anchor="middle" x="143.5" y="-70.1" font-family="Helvetica,sans-Serif" font-size="8.00" fill="#000000">THDMW</text>
</a>
</g>
</g>
<!-- Node47&#45;&gt;Node2 -->
<g id="edge8" class="edge">
<title>Node47&#45;&gt;Node2</title>
<path fill="none" stroke="#9a32cd" stroke-dasharray="5,2" d="M113.0841,-59.0513C105.3539,-55.092 97.3143,-50.3492 90.5,-45 80.3791,-37.0551 71.0816,-25.4249 65.3622,-17.5511"/>
<polygon fill="#9a32cd" stroke="#9a32cd" points="111.7296,-62.2839 122.2566,-63.4805 114.7734,-55.9803 111.7296,-62.2839"/>
<text text-anchor="middle" x="112.5" y="-38.6" font-family="Helvetica,sans-Serif" font-size="8.00" fill="#000000"> myTHDMW</text>
</g>
<!-- Node51 -->
<g id="node10" class="node">
<title>Node51</title>
<g id="a_node10"><a xlink:href="../../da/d99/class_t_h_d_m_wcache.html" target="_top" xlink:title="A class for the caching of some THDMW objects. ">
<polygon fill="none" stroke="#ff0000" points="156,-.5 156,-17.5 225,-17.5 225,-.5 156,-.5"/>
<text text-anchor="middle" x="190.5" y="-7.1" font-family="Helvetica,sans-Serif" font-size="8.00" fill="#000000">THDMWcache</text>
</a>
</g>
</g>
<!-- Node47&#45;&gt;Node51 -->
<g id="edge14" class="edge">
<title>Node47&#45;&gt;Node51</title>
<path fill="none" stroke="#9a32cd" stroke-dasharray="5,2" d="M137.8408,-53.4964C137.0647,-47.5591 137.4077,-41.1843 140.5,-36 145.5032,-27.6122 154.1143,-21.6739 162.7946,-17.5451"/>
<polygon fill="#9a32cd" stroke="#9a32cd" points="134.4548,-54.3903 140.0943,-63.3594 141.2789,-52.831 134.4548,-54.3903"/>
<text text-anchor="middle" x="162.5" y="-38.6" font-family="Helvetica,sans-Serif" font-size="8.00" fill="#000000"> myTHDMW</text>
</g>
<!-- Node48&#45;&gt;Node47 -->
<g id="edge9" class="edge">
<title>Node48&#45;&gt;Node47</title>
<path fill="none" stroke="#191970" d="M218.9086,-132.5942C209.288,-122.4849 196.1676,-109.3926 183.5,-99 175.3384,-92.3042 165.5209,-85.6588 157.6547,-80.6363"/>
<polygon fill="#191970" stroke="#191970" points="216.409,-135.0454 225.7984,-139.9536 221.5191,-130.2614 216.409,-135.0454"/>
</g>
<!-- Node49 -->
<g id="node9" class="node">
<title>Node49</title>
<g id="a_node9"><a xlink:href="../../d5/d76/class_matching.html" target="_top" xlink:title="Matching\&lt; THDMWMatching,\l THDMW \&gt;">
<polygon fill="none" stroke="#ff0000" points="72,-135.5 72,-161.5 193,-161.5 193,-135.5 72,-135.5"/>
<text text-anchor="start" x="80" y="-151.1" font-family="Helvetica,sans-Serif" font-size="8.00" fill="#000000">Matching&lt; THDMWMatching,</text>
<text text-anchor="middle" x="132.5" y="-142.1" font-family="Helvetica,sans-Serif" font-size="8.00" fill="#000000"> THDMW &gt;</text>
</a>
</g>
</g>
<!-- Node49&#45;&gt;Node47 -->
<g id="edge12" class="edge">
<title>Node49&#45;&gt;Node47</title>
<path fill="none" stroke="#9a32cd" stroke-dasharray="5,2" d="M135.8664,-125.0882C138.0151,-110.1453 140.6778,-91.6269 142.2234,-80.8783"/>
<polygon fill="#9a32cd" stroke="#9a32cd" points="132.375,-124.7783 134.4161,-135.1747 139.3038,-125.7747 132.375,-124.7783"/>
<text text-anchor="middle" x="159.5" y="-106.1" font-family="Helvetica,sans-Serif" font-size="8.00" fill="#000000"> THDMWM</text>
</g>
<!-- Node51&#45;&gt;Node47 -->
<g id="edge13" class="edge">
<title>Node51&#45;&gt;Node47</title>
<path fill="none" stroke="#9a32cd" stroke-dasharray="5,2" d="M192.7623,-27.9799C192.6136,-33.7907 191.535,-39.9705 188.5,-45 183.6046,-53.1127 175.2599,-59.0899 167.0765,-63.3277"/>
<polygon fill="#9a32cd" stroke="#9a32cd" points="196.2375,-27.4442 192.1725,-17.6602 189.2489,-27.8437 196.2375,-27.4442"/>
<text text-anchor="middle" x="225" y="-38.6" font-family="Helvetica,sans-Serif" font-size="8.00" fill="#000000"> myTHDMWcache</text>
</g>
</g>
</svg>
