<?xml version="1.0" encoding="UTF-8" standalone="no"?>
<!DOCTYPE svg PUBLIC "-//W3C//DTD SVG 1.1//EN"
 "http://www.w3.org/Graphics/SVG/1.1/DTD/svg11.dtd">
<!-- Generated by graphviz version 2.40.1 (20161225.0304)
 -->
<!-- Title: CPoddHiggs.h Pages: 1 -->
<svg width="357pt" height="188pt"
 viewBox="0.00 0.00 356.50 188.00" xmlns="http://www.w3.org/2000/svg" xmlns:xlink="http://www.w3.org/1999/xlink">
<g id="graph0" class="graph" transform="scale(1 1) rotate(0) translate(4 184)">
<title>CPoddHiggs.h</title>
<!-- Node0 -->
<g id="node1" class="node">
<title>Node0</title>
<polygon fill="#bfbfbf" stroke="#000000" points="134,-162.5 134,-179.5 202,-179.5 202,-162.5 134,-162.5"/>
<text text-anchor="middle" x="168" y="-169.1" font-family="Helvetica,sans-Serif" font-size="8.00" fill="#000000">CPoddHiggs.h</text>
</g>
<!-- Node1 -->
<g id="node2" class="node">
<title>Node1</title>
<polygon fill="none" stroke="#bfbfbf" points="111.5,-54.5 111.5,-71.5 162.5,-71.5 162.5,-54.5 111.5,-54.5"/>
<text text-anchor="middle" x="137" y="-61.1" font-family="Helvetica,sans-Serif" font-size="8.00" fill="#000000">stdexcept</text>
</g>
<!-- Node0&#45;&gt;Node1 -->
<g id="edge1" class="edge">
<title>Node0&#45;&gt;Node1</title>
<path fill="none" stroke="#191970" d="M165.4631,-162.1619C160.4199,-144.5918 149.0402,-104.9465 142.2967,-81.4532"/>
<polygon fill="#191970" stroke="#191970" points="145.6085,-80.3046 139.4853,-71.6584 138.8802,-82.2359 145.6085,-80.3046"/>
</g>
<!-- Node2 -->
<g id="node3" class="node">
<title>Node2</title>
<g id="a_node3"><a xlink:href="../../dd/dcd/_th_observable_8h.html" target="_top" xlink:title="ThObservable.h">
<polygon fill="none" stroke="#000000" points="35.5,-108.5 35.5,-125.5 108.5,-125.5 108.5,-108.5 35.5,-108.5"/>
<text text-anchor="middle" x="72" y="-115.1" font-family="Helvetica,sans-Serif" font-size="8.00" fill="#000000">ThObservable.h</text>
</a>
</g>
</g>
<!-- Node0&#45;&gt;Node2 -->
<g id="edge2" class="edge">
<title>Node0&#45;&gt;Node2</title>
<path fill="none" stroke="#191970" d="M152.5759,-162.324C137.4605,-153.8215 114.1846,-140.7288 96.5288,-130.7975"/>
<polygon fill="#191970" stroke="#191970" points="97.8175,-127.5066 87.3858,-125.6545 94.3856,-133.6077 97.8175,-127.5066"/>
</g>
<!-- Node5 -->
<g id="node6" class="node">
<title>Node5</title>
<g id="a_node6"><a xlink:href="../../de/de8/_t_h_d_m_8h.html" target="_top" xlink:title="THDM.h">
<polygon fill="none" stroke="#000000" points="238,-54.5 238,-71.5 284,-71.5 284,-54.5 238,-54.5"/>
<text text-anchor="middle" x="261" y="-61.1" font-family="Helvetica,sans-Serif" font-size="8.00" fill="#000000">THDM.h</text>
</a>
</g>
</g>
<!-- Node0&#45;&gt;Node5 -->
<g id="edge5" class="edge">
<title>Node0&#45;&gt;Node5</title>
<path fill="none" stroke="#191970" d="M190.8333,-162.3759C207.2917,-155.0522 228.8395,-143.0037 242,-126 251.9422,-113.1545 256.7016,-95.1433 258.9683,-81.6675"/>
<polygon fill="#191970" stroke="#191970" points="262.454,-82.0102 260.3451,-71.6274 255.5189,-81.0591 262.454,-82.0102"/>
</g>
<!-- Node52 -->
<g id="node9" class="node">
<title>Node52</title>
<g id="a_node9"><a xlink:href="../../d0/d7c/_t_h_d_mcache_8h.html" target="_top" xlink:title="THDMcache.h">
<polygon fill="none" stroke="#ff0000" points="165,-108.5 165,-125.5 233,-125.5 233,-108.5 165,-108.5"/>
<text text-anchor="middle" x="199" y="-115.1" font-family="Helvetica,sans-Serif" font-size="8.00" fill="#000000">THDMcache.h</text>
</a>
</g>
</g>
<!-- Node0&#45;&gt;Node52 -->
<g id="edge8" class="edge">
<title>Node0&#45;&gt;Node52</title>
<path fill="none" stroke="#191970" d="M173.119,-162.083C177.4075,-154.6127 183.6582,-143.7244 188.9423,-134.5199"/>
<polygon fill="#191970" stroke="#191970" points="192.0329,-136.1662 193.9762,-125.7511 185.9621,-132.6811 192.0329,-136.1662"/>
</g>
<!-- Node3 -->
<g id="node4" class="node">
<title>Node3</title>
<polygon fill="none" stroke="#bfbfbf" points="0,-54.5 0,-71.5 38,-71.5 38,-54.5 0,-54.5"/>
<text text-anchor="middle" x="19" y="-61.1" font-family="Helvetica,sans-Serif" font-size="8.00" fill="#000000">vector</text>
</g>
<!-- Node2&#45;&gt;Node3 -->
<g id="edge3" class="edge">
<title>Node2&#45;&gt;Node3</title>
<path fill="none" stroke="#191970" d="M63.2481,-108.083C55.5303,-100.2195 44.0953,-88.5688 34.7835,-79.0813"/>
<polygon fill="#191970" stroke="#191970" points="37.0916,-76.4363 27.589,-71.7511 32.0958,-81.3396 37.0916,-76.4363"/>
</g>
<!-- Node4 -->
<g id="node5" class="node">
<title>Node4</title>
<polygon fill="none" stroke="#bfbfbf" points="56,-54.5 56,-71.5 92,-71.5 92,-54.5 56,-54.5"/>
<text text-anchor="middle" x="74" y="-61.1" font-family="Helvetica,sans-Serif" font-size="8.00" fill="#000000">string</text>
</g>
<!-- Node2&#45;&gt;Node4 -->
<g id="edge4" class="edge">
<title>Node2&#45;&gt;Node4</title>
<path fill="none" stroke="#191970" d="M72.3303,-108.083C72.5924,-101.0059 72.9681,-90.8611 73.2968,-81.9865"/>
<polygon fill="#191970" stroke="#191970" points="76.8033,-81.8738 73.6759,-71.7511 69.8081,-81.6147 76.8033,-81.8738"/>
</g>
<!-- Node6 -->
<g id="node7" class="node">
<title>Node6</title>
<g id="a_node7"><a xlink:href="../../d6/d0a/_standard_model_8h.html" target="_top" xlink:title="StandardModel.h">
<polygon fill="none" stroke="#ff0000" points="174.5,-.5 174.5,-17.5 251.5,-17.5 251.5,-.5 174.5,-.5"/>
<text text-anchor="middle" x="213" y="-7.1" font-family="Helvetica,sans-Serif" font-size="8.00" fill="#000000">StandardModel.h</text>
</a>
</g>
</g>
<!-- Node5&#45;&gt;Node6 -->
<g id="edge6" class="edge">
<title>Node5&#45;&gt;Node6</title>
<path fill="none" stroke="#191970" d="M253.0738,-54.083C246.1539,-46.2982 235.9346,-34.8015 227.548,-25.3665"/>
<polygon fill="#191970" stroke="#191970" points="230.0383,-22.8999 220.7787,-17.7511 224.8065,-27.5505 230.0383,-22.8999"/>
</g>
<!-- Node51 -->
<g id="node8" class="node">
<title>Node51</title>
<g id="a_node8"><a xlink:href="../../db/d1f/_t_h_d_m_matching_8h.html" target="_top" xlink:title="THDMMatching.h">
<polygon fill="none" stroke="#ff0000" points="269.5,-.5 269.5,-17.5 348.5,-17.5 348.5,-.5 269.5,-.5"/>
<text text-anchor="middle" x="309" y="-7.1" font-family="Helvetica,sans-Serif" font-size="8.00" fill="#000000">THDMMatching.h</text>
</a>
</g>
</g>
<!-- Node5&#45;&gt;Node51 -->
<g id="edge7" class="edge">
<title>Node5&#45;&gt;Node51</title>
<path fill="none" stroke="#191970" d="M268.9262,-54.083C275.8461,-46.2982 286.0654,-34.8015 294.452,-25.3665"/>
<polygon fill="#191970" stroke="#191970" points="297.1935,-27.5505 301.2213,-17.7511 291.9617,-22.8999 297.1935,-27.5505"/>
</g>
<!-- Node52&#45;&gt;Node1 -->
<g id="edge11" class="edge">
<title>Node52&#45;&gt;Node1</title>
<path fill="none" stroke="#191970" d="M189.0386,-108.324C179.8734,-100.3414 166.0628,-88.3128 154.9718,-78.6529"/>
<polygon fill="#191970" stroke="#191970" points="156.9822,-75.7624 147.1426,-71.8339 152.3847,-81.041 156.9822,-75.7624"/>
</g>
<!-- Node52&#45;&gt;Node5 -->
<g id="edge10" class="edge">
<title>Node52&#45;&gt;Node5</title>
<path fill="none" stroke="#191970" d="M208.9614,-108.324C218.1266,-100.3414 231.9372,-88.3128 243.0282,-78.6529"/>
<polygon fill="#191970" stroke="#191970" points="245.6153,-81.041 250.8574,-71.8339 241.0178,-75.7624 245.6153,-81.041"/>
</g>
<!-- Node48 -->
<g id="node10" class="node">
<title>Node48</title>
<polygon fill="none" stroke="#bfbfbf" points="181,-54.5 181,-71.5 219,-71.5 219,-54.5 181,-54.5"/>
<text text-anchor="middle" x="200" y="-61.1" font-family="Helvetica,sans-Serif" font-size="8.00" fill="#000000">cmath</text>
</g>
<!-- Node52&#45;&gt;Node48 -->
<g id="edge9" class="edge">
<title>Node52&#45;&gt;Node48</title>
<path fill="none" stroke="#191970" d="M199.1651,-108.083C199.2962,-101.0059 199.4841,-90.8611 199.6484,-81.9865"/>
<polygon fill="#191970" stroke="#191970" points="203.1521,-81.8142 199.8379,-71.7511 196.1533,-81.6845 203.1521,-81.8142"/>
</g>
</g>
</svg>
