<?xml version="1.0" encoding="UTF-8" standalone="no"?>
<!DOCTYPE svg PUBLIC "-//W3C//DTD SVG 1.1//EN"
 "http://www.w3.org/Graphics/SVG/1.1/DTD/svg11.dtd">
<!-- Generated by graphviz version 2.38.0 (20140413.2041)
 -->
<!-- Title: PMNS.cpp Pages: 1 -->
<svg width="351pt" height="350pt"
 viewBox="0.00 0.00 350.56 350.00" xmlns="http://www.w3.org/2000/svg" xmlns:xlink="http://www.w3.org/1999/xlink">
<g id="graph0" class="graph" transform="scale(1 1) rotate(0) translate(4 346)">
<title>PMNS.cpp</title>
<!-- Node1 -->
<g id="node1" class="node"><title>Node1</title>
<polygon fill="#bfbfbf" stroke="black" points="31,-324.5 31,-341.5 86,-341.5 86,-324.5 31,-324.5"/>
<text text-anchor="middle" x="58.5" y="-331.1" font-family="Helvetica,sans-Serif" font-size="8.00">PMNS.cpp</text>
</g>
<!-- Node2 -->
<g id="node2" class="node"><title>Node2</title>
<polygon fill="none" stroke="#bfbfbf" points="0,-270.5 0,-287.5 51,-287.5 51,-270.5 0,-270.5"/>
<text text-anchor="middle" x="25.5" y="-277.1" font-family="Helvetica,sans-Serif" font-size="8.00">stdexcept</text>
</g>
<!-- Node1&#45;&gt;Node2 -->
<g id="edge1" class="edge"><title>Node1&#45;&gt;Node2</title>
<path fill="none" stroke="midnightblue" d="M53.6307,-324.327C48.9513,-316.954 41.7327,-305.579 35.7796,-296.198"/>
<polygon fill="midnightblue" stroke="midnightblue" points="38.7027,-294.272 30.3892,-287.704 32.7924,-298.023 38.7027,-294.272"/>
</g>
<!-- Node3 -->
<g id="node3" class="node"><title>Node3</title>
<g id="a_node3"><a xlink:href="../../d9/d22/_p_m_n_s_8h.html" target="_top" xlink:title="PMNS.h">
<polygon fill="none" stroke="black" points="69.5,-270.5 69.5,-287.5 115.5,-287.5 115.5,-270.5 69.5,-270.5"/>
<text text-anchor="middle" x="92.5" y="-277.1" font-family="Helvetica,sans-Serif" font-size="8.00">PMNS.h</text>
</a>
</g>
</g>
<!-- Node1&#45;&gt;Node3 -->
<g id="edge2" class="edge"><title>Node1&#45;&gt;Node3</title>
<path fill="none" stroke="midnightblue" d="M63.5168,-324.327C68.338,-316.954 75.7754,-305.579 81.9089,-296.198"/>
<polygon fill="midnightblue" stroke="midnightblue" points="84.9195,-297.989 87.4626,-287.704 79.0607,-294.159 84.9195,-297.989"/>
</g>
<!-- Node4 -->
<g id="node4" class="node"><title>Node4</title>
<polygon fill="none" stroke="#bfbfbf" points="42,-216.5 42,-233.5 83,-233.5 83,-216.5 42,-216.5"/>
<text text-anchor="middle" x="62.5" y="-223.1" font-family="Helvetica,sans-Serif" font-size="8.00">math.h</text>
</g>
<!-- Node3&#45;&gt;Node4 -->
<g id="edge3" class="edge"><title>Node3&#45;&gt;Node4</title>
<path fill="none" stroke="midnightblue" d="M88.0734,-270.327C83.8637,-263.03 77.3934,-251.815 72.0145,-242.492"/>
<polygon fill="midnightblue" stroke="midnightblue" points="74.9737,-240.617 66.9448,-233.704 68.9104,-244.115 74.9737,-240.617"/>
</g>
<!-- Node5 -->
<g id="node5" class="node"><title>Node5</title>
<g id="a_node5"><a xlink:href="../../d9/d72/gslpp_8h.html" target="_top" xlink:title="gslpp.h">
<polygon fill="none" stroke="black" points="101.5,-216.5 101.5,-233.5 143.5,-233.5 143.5,-216.5 101.5,-216.5"/>
<text text-anchor="middle" x="122.5" y="-223.1" font-family="Helvetica,sans-Serif" font-size="8.00">gslpp.h</text>
</a>
</g>
</g>
<!-- Node3&#45;&gt;Node5 -->
<g id="edge4" class="edge"><title>Node3&#45;&gt;Node5</title>
<path fill="none" stroke="midnightblue" d="M96.9266,-270.327C101.136,-263.03 107.607,-251.815 112.985,-242.492"/>
<polygon fill="midnightblue" stroke="midnightblue" points="116.09,-244.115 118.055,-233.704 110.026,-240.617 116.09,-244.115"/>
</g>
<!-- Node6 -->
<g id="node6" class="node"><title>Node6</title>
<g id="a_node6"><a xlink:href="../../d1/dc2/gslpp__complex_8h.html" target="_top" xlink:title="gslpp_complex.h">
<polygon fill="none" stroke="red" points="161,-0.5 161,-17.5 238,-17.5 238,-0.5 161,-0.5"/>
<text text-anchor="middle" x="199.5" y="-7.1" font-family="Helvetica,sans-Serif" font-size="8.00">gslpp_complex.h</text>
</a>
</g>
</g>
<!-- Node5&#45;&gt;Node6 -->
<g id="edge5" class="edge"><title>Node5&#45;&gt;Node6</title>
<path fill="none" stroke="midnightblue" d="M114.668,-216.164C90.1022,-190.633 18.5138,-108.366 58.5,-54 79.4762,-25.4805 118.836,-14.9249 150.65,-11.2521"/>
<polygon fill="midnightblue" stroke="midnightblue" points="151.062,-14.7287 160.681,-10.2874 150.392,-7.76083 151.062,-14.7287"/>
</g>
<!-- Node7 -->
<g id="node7" class="node"><title>Node7</title>
<g id="a_node7"><a xlink:href="../../da/d8e/gslpp__vector__double_8h.html" target="_top" xlink:title="gslpp_vector_double.h">
<polygon fill="none" stroke="red" points="228,-54.5 228,-71.5 325,-71.5 325,-54.5 228,-54.5"/>
<text text-anchor="middle" x="276.5" y="-61.1" font-family="Helvetica,sans-Serif" font-size="8.00">gslpp_vector_double.h</text>
</a>
</g>
</g>
<!-- Node5&#45;&gt;Node7 -->
<g id="edge6" class="edge"><title>Node5&#45;&gt;Node7</title>
<path fill="none" stroke="midnightblue" d="M143.852,-222.461C172.881,-219.279 224.806,-209.561 256.5,-180 283.456,-154.858 282.355,-107.558 279.352,-81.8058"/>
<polygon fill="midnightblue" stroke="midnightblue" points="282.783,-81.0666 277.933,-71.6472 275.85,-82.0354 282.783,-81.0666"/>
</g>
<!-- Node8 -->
<g id="node8" class="node"><title>Node8</title>
<g id="a_node8"><a xlink:href="../../da/dad/gslpp__vector__complex_8h.html" target="_top" xlink:title="gslpp_vector_complex.h">
<polygon fill="none" stroke="red" points="68,-54.5 68,-71.5 171,-71.5 171,-54.5 68,-54.5"/>
<text text-anchor="middle" x="119.5" y="-61.1" font-family="Helvetica,sans-Serif" font-size="8.00">gslpp_vector_complex.h</text>
</a>
</g>
</g>
<!-- Node5&#45;&gt;Node8 -->
<g id="edge8" class="edge"><title>Node5&#45;&gt;Node8</title>
<path fill="none" stroke="midnightblue" d="M122.355,-216.283C121.899,-191.943 120.482,-116.354 119.832,-81.6925"/>
<polygon fill="midnightblue" stroke="midnightblue" points="123.33,-81.5723 119.643,-71.6397 116.331,-81.7036 123.33,-81.5723"/>
</g>
<!-- Node9 -->
<g id="node9" class="node"><title>Node9</title>
<g id="a_node9"><a xlink:href="../../d0/ddb/gslpp__matrix__double_8h.html" target="_top" xlink:title="gslpp_matrix_double.h">
<polygon fill="none" stroke="red" points="151,-162.5 151,-179.5 248,-179.5 248,-162.5 151,-162.5"/>
<text text-anchor="middle" x="199.5" y="-169.1" font-family="Helvetica,sans-Serif" font-size="8.00">gslpp_matrix_double.h</text>
</a>
</g>
</g>
<!-- Node5&#45;&gt;Node9 -->
<g id="edge10" class="edge"><title>Node5&#45;&gt;Node9</title>
<path fill="none" stroke="midnightblue" d="M133.862,-216.327C145.987,-208.139 165.419,-195.016 179.999,-185.169"/>
<polygon fill="midnightblue" stroke="midnightblue" points="182.014,-188.032 188.342,-179.535 178.096,-182.231 182.014,-188.032"/>
</g>
<!-- Node10 -->
<g id="node10" class="node"><title>Node10</title>
<g id="a_node10"><a xlink:href="../../d9/d25/gslpp__matrix__complex_8h.html" target="_top" xlink:title="gslpp_matrix_complex.h">
<polygon fill="none" stroke="red" points="148,-108.5 148,-125.5 251,-125.5 251,-108.5 148,-108.5"/>
<text text-anchor="middle" x="199.5" y="-115.1" font-family="Helvetica,sans-Serif" font-size="8.00">gslpp_matrix_complex.h</text>
</a>
</g>
</g>
<!-- Node5&#45;&gt;Node10 -->
<g id="edge19" class="edge"><title>Node5&#45;&gt;Node10</title>
<path fill="none" stroke="midnightblue" d="M123.296,-216.479C124.914,-204.118 129.511,-179.168 141.5,-162 150.438,-149.201 164.253,-138.509 176.158,-130.872"/>
<polygon fill="midnightblue" stroke="midnightblue" points="178.043,-133.822 184.777,-125.642 174.412,-127.837 178.043,-133.822"/>
</g>
<!-- Node7&#45;&gt;Node6 -->
<g id="edge7" class="edge"><title>Node7&#45;&gt;Node6</title>
<path fill="none" stroke="midnightblue" d="M265.138,-54.3272C253.013,-46.1388 233.581,-33.0157 219.001,-23.1692"/>
<polygon fill="midnightblue" stroke="midnightblue" points="220.904,-20.2313 210.658,-17.5352 216.986,-26.0324 220.904,-20.2313"/>
</g>
<!-- Node8&#45;&gt;Node6 -->
<g id="edge9" class="edge"><title>Node8&#45;&gt;Node6</title>
<path fill="none" stroke="midnightblue" d="M131.304,-54.3272C143.902,-46.1388 164.091,-33.0157 179.24,-23.1692"/>
<polygon fill="midnightblue" stroke="midnightblue" points="181.43,-25.9197 187.907,-17.5352 177.615,-20.0506 181.43,-25.9197"/>
</g>
<!-- Node9&#45;&gt;Node6 -->
<g id="edge11" class="edge"><title>Node9&#45;&gt;Node6</title>
<path fill="none" stroke="midnightblue" d="M222.683,-162.46C270.028,-145.829 370.441,-103.516 334.5,-54 314.92,-27.0251 278.362,-16.2706 248.223,-12.1272"/>
<polygon fill="midnightblue" stroke="midnightblue" points="248.621,-8.65 238.282,-10.9616 247.806,-15.6024 248.621,-8.65"/>
</g>
<!-- Node9&#45;&gt;Node7 -->
<g id="edge12" class="edge"><title>Node9&#45;&gt;Node7</title>
<path fill="none" stroke="midnightblue" d="M215.113,-162.415C228.8,-154.981 248.221,-142.386 259.5,-126 268.604,-112.774 272.844,-94.8337 274.812,-81.6543"/>
<polygon fill="midnightblue" stroke="midnightblue" points="278.31,-81.8809 276.022,-71.536 271.36,-81.0498 278.31,-81.8809"/>
</g>
<!-- Node9&#45;&gt;Node8 -->
<g id="edge13" class="edge"><title>Node9&#45;&gt;Node8</title>
<path fill="none" stroke="midnightblue" d="M183.743,-162.396C169.907,-154.949 150.211,-142.347 138.5,-126 129.068,-112.834 124.237,-94.8865 121.814,-81.689"/>
<polygon fill="midnightblue" stroke="midnightblue" points="125.234,-80.9026 120.25,-71.5535 118.316,-81.9704 125.234,-80.9026"/>
</g>
<!-- Node9&#45;&gt;Node10 -->
<g id="edge14" class="edge"><title>Node9&#45;&gt;Node10</title>
<path fill="none" stroke="midnightblue" d="M194.545,-162.327C192.845,-155.338 192.353,-144.753 193.067,-135.679"/>
<polygon fill="midnightblue" stroke="midnightblue" points="196.542,-136.108 194.537,-125.704 189.616,-135.087 196.542,-136.108"/>
</g>
<!-- Node10&#45;&gt;Node6 -->
<g id="edge15" class="edge"><title>Node10&#45;&gt;Node6</title>
<path fill="none" stroke="midnightblue" d="M199.5,-108.377C199.5,-91.6457 199.5,-51.3313 199.5,-27.8308"/>
<polygon fill="midnightblue" stroke="midnightblue" points="203,-27.5541 199.5,-17.5542 196,-27.5542 203,-27.5541"/>
</g>
<!-- Node10&#45;&gt;Node7 -->
<g id="edge16" class="edge"><title>Node10&#45;&gt;Node7</title>
<path fill="none" stroke="midnightblue" d="M210.862,-108.327C222.987,-100.139 242.419,-87.0157 256.999,-77.1692"/>
<polygon fill="midnightblue" stroke="midnightblue" points="259.014,-80.0324 265.342,-71.5352 255.096,-74.2313 259.014,-80.0324"/>
</g>
<!-- Node10&#45;&gt;Node8 -->
<g id="edge17" class="edge"><title>Node10&#45;&gt;Node8</title>
<path fill="none" stroke="midnightblue" d="M187.696,-108.327C175.098,-100.139 154.909,-87.0157 139.76,-77.1692"/>
<polygon fill="midnightblue" stroke="midnightblue" points="141.385,-74.0506 131.093,-71.5352 137.57,-79.9197 141.385,-74.0506"/>
</g>
<!-- Node10&#45;&gt;Node9 -->
<g id="edge18" class="edge"><title>Node10&#45;&gt;Node9</title>
<path fill="none" stroke="midnightblue" d="M204.463,-125.704C206.159,-132.705 206.648,-143.293 205.93,-152.362"/>
<polygon fill="midnightblue" stroke="midnightblue" points="202.457,-151.923 204.455,-162.327 209.381,-152.947 202.457,-151.923"/>
</g>
</g>
</svg>
