<?xml version="1.0" encoding="UTF-8" standalone="no"?>
<!DOCTYPE svg PUBLIC "-//W3C//DTD SVG 1.1//EN"
 "http://www.w3.org/Graphics/SVG/1.1/DTD/svg11.dtd">
<!-- Generated by graphviz version 2.38.0 (20140413.2041)
 -->
<!-- Title: Flavour.h Pages: 1 -->
<svg width="365pt" height="242pt"
 viewBox="0.00 0.00 365.07 242.00" xmlns="http://www.w3.org/2000/svg" xmlns:xlink="http://www.w3.org/1999/xlink">
<g id="graph0" class="graph" transform="scale(1 1) rotate(0) translate(4 238)">
<title>Flavour.h</title>
<!-- Node1 -->
<g id="node1" class="node"><title>Node1</title>
<polygon fill="#bfbfbf" stroke="black" points="164.569,-216.5 164.569,-233.5 214.569,-233.5 214.569,-216.5 164.569,-216.5"/>
<text text-anchor="middle" x="189.569" y="-223.1" font-family="Helvetica,sans-Serif" font-size="8.00">Flavour.h</text>
</g>
<!-- Node2 -->
<g id="node2" class="node"><title>Node2</title>
<g id="a_node2"><a xlink:href="../../dd/d03/_heff_d_f2_8h.html" target="_top" xlink:title="HeffDF2.h">
<polygon fill="none" stroke="black" points="36.0686,-162.5 36.0686,-179.5 89.0686,-179.5 89.0686,-162.5 36.0686,-162.5"/>
<text text-anchor="middle" x="62.5686" y="-169.1" font-family="Helvetica,sans-Serif" font-size="8.00">HeffDF2.h</text>
</a>
</g>
</g>
<!-- Node1&#45;&gt;Node2 -->
<g id="edge1" class="edge"><title>Node1&#45;&gt;Node2</title>
<path fill="none" stroke="midnightblue" d="M171.102,-216.439C149.939,-207.774 115.028,-193.479 90.5282,-183.448"/>
<polygon fill="midnightblue" stroke="midnightblue" points="91.6383,-180.121 81.0577,-179.57 88.9858,-186.599 91.6383,-180.121"/>
</g>
<!-- Node7 -->
<g id="node7" class="node"><title>Node7</title>
<g id="a_node7"><a xlink:href="../../d9/d29/_heff_d_b1_8h.html" target="_top" xlink:title="HeffDB1.h">
<polygon fill="none" stroke="red" points="218.069,-108.5 218.069,-125.5 271.069,-125.5 271.069,-108.5 218.069,-108.5"/>
<text text-anchor="middle" x="244.569" y="-115.1" font-family="Helvetica,sans-Serif" font-size="8.00">HeffDB1.h</text>
</a>
</g>
</g>
<!-- Node1&#45;&gt;Node7 -->
<g id="edge8" class="edge"><title>Node1&#45;&gt;Node7</title>
<path fill="none" stroke="midnightblue" d="M194.901,-216.43C200.834,-207.832 210.512,-193.271 217.569,-180 225.406,-165.261 232.867,-147.768 237.951,-135.128"/>
<polygon fill="midnightblue" stroke="midnightblue" points="241.21,-136.404 241.619,-125.817 234.697,-133.838 241.21,-136.404"/>
</g>
<!-- Node8 -->
<g id="node8" class="node"><title>Node8</title>
<g id="a_node8"><a xlink:href="../../d8/d37/_m_vll_8h.html" target="_top" xlink:title="MVll.h">
<polygon fill="none" stroke="red" points="122.069,-108.5 122.069,-125.5 161.069,-125.5 161.069,-108.5 122.069,-108.5"/>
<text text-anchor="middle" x="141.569" y="-115.1" font-family="Helvetica,sans-Serif" font-size="8.00">MVll.h</text>
</a>
</g>
</g>
<!-- Node1&#45;&gt;Node8 -->
<g id="edge12" class="edge"><title>Node1&#45;&gt;Node8</title>
<path fill="none" stroke="midnightblue" d="M183.501,-216.296C177.064,-207.814 166.96,-193.575 160.569,-180 153.744,-165.505 148.635,-147.966 145.444,-135.246"/>
<polygon fill="midnightblue" stroke="midnightblue" points="148.848,-134.431 143.138,-125.507 142.036,-136.044 148.848,-134.431"/>
</g>
<!-- Node9 -->
<g id="node9" class="node"><title>Node9</title>
<g id="a_node9"><a xlink:href="../../d0/dee/_m_pll_8h.html" target="_top" xlink:title="MPll.h">
<polygon fill="none" stroke="red" points="170.069,-162.5 170.069,-179.5 209.069,-179.5 209.069,-162.5 170.069,-162.5"/>
<text text-anchor="middle" x="189.569" y="-169.1" font-family="Helvetica,sans-Serif" font-size="8.00">MPll.h</text>
</a>
</g>
</g>
<!-- Node1&#45;&gt;Node9 -->
<g id="edge14" class="edge"><title>Node1&#45;&gt;Node9</title>
<path fill="none" stroke="midnightblue" d="M189.569,-216.327C189.569,-209.414 189.569,-198.985 189.569,-189.979"/>
<polygon fill="midnightblue" stroke="midnightblue" points="193.069,-189.704 189.569,-179.704 186.069,-189.704 193.069,-189.704"/>
</g>
<!-- Node10 -->
<g id="node10" class="node"><title>Node10</title>
<polygon fill="none" stroke="#bfbfbf" points="266.069,-162.5 266.069,-179.5 357.069,-179.5 357.069,-162.5 266.069,-162.5"/>
<text text-anchor="middle" x="311.569" y="-169.1" font-family="Helvetica,sans-Serif" font-size="8.00">boost/tuple/tuple.hpp</text>
</g>
<!-- Node1&#45;&gt;Node10 -->
<g id="edge16" class="edge"><title>Node1&#45;&gt;Node10</title>
<path fill="none" stroke="midnightblue" d="M207.308,-216.439C227.547,-207.812 260.877,-193.606 284.395,-183.582"/>
<polygon fill="midnightblue" stroke="midnightblue" points="285.98,-186.711 293.807,-179.57 283.236,-180.272 285.98,-186.711"/>
</g>
<!-- Node3 -->
<g id="node3" class="node"><title>Node3</title>
<g id="a_node3"><a xlink:href="../../d6/d0a/_standard_model_8h.html" target="_top" xlink:title="StandardModel.h">
<polygon fill="none" stroke="red" points="102.069,-54.5 102.069,-71.5 179.069,-71.5 179.069,-54.5 102.069,-54.5"/>
<text text-anchor="middle" x="140.569" y="-61.1" font-family="Helvetica,sans-Serif" font-size="8.00">StandardModel.h</text>
</a>
</g>
</g>
<!-- Node2&#45;&gt;Node3 -->
<g id="edge2" class="edge"><title>Node2&#45;&gt;Node3</title>
<path fill="none" stroke="midnightblue" d="M68.1781,-162.377C80.8832,-145.111 112.069,-102.73 129.067,-79.6301"/>
<polygon fill="midnightblue" stroke="midnightblue" points="131.902,-81.683 135.01,-71.5542 126.264,-77.5342 131.902,-81.683"/>
</g>
<!-- Node4 -->
<g id="node4" class="node"><title>Node4</title>
<g id="a_node4"><a xlink:href="../../db/dba/_wilson_coefficient_8h.html" target="_top" xlink:title="WilsonCoefficient.h">
<polygon fill="none" stroke="red" points="87.0686,-0.5 87.0686,-17.5 172.069,-17.5 172.069,-0.5 87.0686,-0.5"/>
<text text-anchor="middle" x="129.569" y="-7.1" font-family="Helvetica,sans-Serif" font-size="8.00">WilsonCoefficient.h</text>
</a>
</g>
</g>
<!-- Node2&#45;&gt;Node4 -->
<g id="edge5" class="edge"><title>Node2&#45;&gt;Node4</title>
<path fill="none" stroke="midnightblue" d="M44.8769,-162.373C23.2901,-151.86 -8.99326,-131.526 2.56855,-108 23.1851,-66.0503 71.3564,-36.9831 102.091,-21.9376"/>
<polygon fill="midnightblue" stroke="midnightblue" points="103.848,-24.9785 111.4,-17.5469 100.862,-18.6474 103.848,-24.9785"/>
</g>
<!-- Node6 -->
<g id="node6" class="node"><title>Node6</title>
<g id="a_node6"><a xlink:href="../../de/dce/_evol_d_f2_8h.html" target="_top" xlink:title="EvolDF2.h">
<polygon fill="none" stroke="red" points="11.5686,-108.5 11.5686,-125.5 65.5686,-125.5 65.5686,-108.5 11.5686,-108.5"/>
<text text-anchor="middle" x="38.5686" y="-115.1" font-family="Helvetica,sans-Serif" font-size="8.00">EvolDF2.h</text>
</a>
</g>
</g>
<!-- Node2&#45;&gt;Node6 -->
<g id="edge6" class="edge"><title>Node2&#45;&gt;Node6</title>
<path fill="none" stroke="midnightblue" d="M59.0273,-162.327C55.695,-155.107 50.5921,-144.051 46.3164,-134.787"/>
<polygon fill="midnightblue" stroke="midnightblue" points="49.4929,-133.317 42.1244,-125.704 43.1371,-136.251 49.4929,-133.317"/>
</g>
<!-- Node3&#45;&gt;Node4 -->
<g id="edge3" class="edge"><title>Node3&#45;&gt;Node4</title>
<path fill="none" stroke="midnightblue" d="M138.945,-54.3272C137.467,-47.3377 135.228,-36.7528 133.308,-27.6792"/>
<polygon fill="midnightblue" stroke="midnightblue" points="136.692,-26.7634 131.198,-17.7043 129.844,-28.2121 136.692,-26.7634"/>
</g>
<!-- Node5 -->
<g id="node5" class="node"><title>Node5</title>
<g id="a_node5"><a xlink:href="../../d6/d16/_standard_model_matching_8h.html" target="_top" xlink:title="StandardModelMatching.h">
<polygon fill="none" stroke="red" points="190.569,-0.5 190.569,-17.5 300.569,-17.5 300.569,-0.5 190.569,-0.5"/>
<text text-anchor="middle" x="245.569" y="-7.1" font-family="Helvetica,sans-Serif" font-size="8.00">StandardModelMatching.h</text>
</a>
</g>
</g>
<!-- Node3&#45;&gt;Node5 -->
<g id="edge4" class="edge"><title>Node3&#45;&gt;Node5</title>
<path fill="none" stroke="midnightblue" d="M156.062,-54.3272C173.22,-45.8298 201.109,-32.0183 221.199,-22.069"/>
<polygon fill="midnightblue" stroke="midnightblue" points="222.945,-25.1097 230.353,-17.5352 219.839,-18.8368 222.945,-25.1097"/>
</g>
<!-- Node6&#45;&gt;Node3 -->
<g id="edge7" class="edge"><title>Node6&#45;&gt;Node3</title>
<path fill="none" stroke="midnightblue" d="M53.619,-108.327C70.2113,-99.8684 97.1328,-86.1437 116.628,-76.2049"/>
<polygon fill="midnightblue" stroke="midnightblue" points="118.469,-79.1953 125.788,-71.5352 115.289,-72.9589 118.469,-79.1953"/>
</g>
<!-- Node7&#45;&gt;Node3 -->
<g id="edge9" class="edge"><title>Node7&#45;&gt;Node3</title>
<path fill="none" stroke="midnightblue" d="M229.223,-108.327C212.228,-99.8298 184.605,-86.0183 164.706,-76.069"/>
<polygon fill="midnightblue" stroke="midnightblue" points="166.148,-72.8769 155.639,-71.5352 163.018,-79.1379 166.148,-72.8769"/>
</g>
<!-- Node7&#45;&gt;Node4 -->
<g id="edge11" class="edge"><title>Node7&#45;&gt;Node4</title>
<path fill="none" stroke="midnightblue" d="M238.301,-108.342C228.209,-96.2133 207.469,-72.1048 187.569,-54 175.47,-42.9934 160.783,-31.8712 149.215,-23.5629"/>
<polygon fill="midnightblue" stroke="midnightblue" points="150.903,-20.4701 140.716,-17.5589 146.864,-26.1874 150.903,-20.4701"/>
</g>
<!-- Node7&#45;&gt;Node5 -->
<g id="edge10" class="edge"><title>Node7&#45;&gt;Node5</title>
<path fill="none" stroke="midnightblue" d="M244.64,-108.377C244.798,-91.6457 245.179,-51.3313 245.4,-27.8308"/>
<polygon fill="midnightblue" stroke="midnightblue" points="248.903,-27.5868 245.497,-17.5542 241.903,-27.5207 248.903,-27.5868"/>
</g>
<!-- Node8&#45;&gt;Node3 -->
<g id="edge13" class="edge"><title>Node8&#45;&gt;Node3</title>
<path fill="none" stroke="midnightblue" d="M141.421,-108.327C141.288,-101.414 141.087,-90.985 140.914,-81.9789"/>
<polygon fill="midnightblue" stroke="midnightblue" points="144.408,-81.6351 140.717,-71.7043 137.41,-81.7697 144.408,-81.6351"/>
</g>
<!-- Node9&#45;&gt;Node3 -->
<g id="edge15" class="edge"><title>Node9&#45;&gt;Node3</title>
<path fill="none" stroke="midnightblue" d="M187.849,-162.498C184.965,-150.583 178.571,-126.762 169.569,-108 164.852,-98.1715 158.244,-87.96 152.526,-79.8513"/>
<polygon fill="midnightblue" stroke="midnightblue" points="155.318,-77.7395 146.598,-71.7223 149.662,-81.8642 155.318,-77.7395"/>
</g>
</g>
</svg>
