<?xml version="1.0" encoding="UTF-8" standalone="no"?>
<!DOCTYPE svg PUBLIC "-//W3C//DTD SVG 1.1//EN"
 "http://www.w3.org/Graphics/SVG/1.1/DTD/svg11.dtd">
<!-- Generated by graphviz version 2.40.1 (20161225.0304)
 -->
<!-- Title: Hobs_pp_H3_H1Z_bbll_CMS8 Pages: 1 -->
<svg width="453pt" height="288pt"
 viewBox="0.00 0.00 452.50 288.00" xmlns="http://www.w3.org/2000/svg" xmlns:xlink="http://www.w3.org/1999/xlink">
<g id="graph0" class="graph" transform="scale(1 1) rotate(0) translate(4 284)">
<title>Hobs_pp_H3_H1Z_bbll_CMS8</title>
<!-- Node2 -->
<g id="node1" class="node">
<title>Node2</title>
<polygon fill="#bfbfbf" stroke="#000000" points="0,-.5 0,-17.5 126,-17.5 126,-.5 0,-.5"/>
<text text-anchor="middle" x="63" y="-7.1" font-family="Helvetica,sans-Serif" font-size="8.00" fill="#000000">Hobs_pp_H3_H1Z_bbll_CMS8</text>
</g>
<!-- Node3 -->
<g id="node2" class="node">
<title>Node3</title>
<g id="a_node2"><a xlink:href="../../dc/d1f/class_th_observable.html" target="_top" xlink:title="A class for a model prediction of an observable. ">
<polygon fill="none" stroke="#000000" points="17.5,-99.5 17.5,-116.5 84.5,-116.5 84.5,-99.5 17.5,-99.5"/>
<text text-anchor="middle" x="51" y="-106.1" font-family="Helvetica,sans-Serif" font-size="8.00" fill="#000000">ThObservable</text>
</a>
</g>
</g>
<!-- Node3&#45;&gt;Node2 -->
<g id="edge1" class="edge">
<title>Node3&#45;&gt;Node2</title>
<path fill="none" stroke="#191970" d="M53.2996,-89.0287C55.9039,-67.5427 60.0343,-33.4668 61.9546,-17.6245"/>
<polygon fill="#191970" stroke="#191970" points="49.7938,-88.8659 52.0649,-99.2144 56.7429,-89.7083 49.7938,-88.8659"/>
</g>
<!-- Node4 -->
<g id="node3" class="node">
<title>Node4</title>
<g id="a_node3"><a xlink:href="../../dc/dd5/class_standard_model.html" target="_top" xlink:title="A model class for the Standard Model. ">
<polygon fill="none" stroke="#ff0000" points="224.5,-207.5 224.5,-224.5 295.5,-224.5 295.5,-207.5 224.5,-207.5"/>
<text text-anchor="middle" x="260" y="-214.1" font-family="Helvetica,sans-Serif" font-size="8.00" fill="#000000">StandardModel</text>
</a>
</g>
</g>
<!-- Node4&#45;&gt;Node3 -->
<g id="edge2" class="edge">
<title>Node4&#45;&gt;Node3</title>
<path fill="none" stroke="#9a32cd" stroke-dasharray="5,2" d="M214.3247,-208.0106C165.0437,-198.5473 90.8154,-181.5747 70,-162 57.1129,-149.881 52.9612,-128.5082 51.6276,-116.6092"/>
<polygon fill="#9a32cd" stroke="#9a32cd" points="213.9588,-211.5032 224.4338,-209.9142 215.2543,-204.6241 213.9588,-211.5032"/>
<text text-anchor="middle" x="136.5" y="-182.6" font-family="Helvetica,sans-Serif" font-size="8.00" fill="#000000"> SM</text>
</g>
<!-- Node9 -->
<g id="node6" class="node">
<title>Node9</title>
<g id="a_node6"><a xlink:href="../../dc/df3/class_e_w_s_mcache.html" target="_top" xlink:title="A class for cache variables used in computing radiative corrections to the EW precision observables...">
<polygon fill="none" stroke="#ff0000" points="381.5,-140 381.5,-157 444.5,-157 444.5,-140 381.5,-140"/>
<text text-anchor="middle" x="413" y="-146.6" font-family="Helvetica,sans-Serif" font-size="8.00" fill="#000000">EWSMcache</text>
</a>
</g>
</g>
<!-- Node4&#45;&gt;Node9 -->
<g id="edge6" class="edge">
<title>Node4&#45;&gt;Node9</title>
<path fill="none" stroke="#9a32cd" stroke-dasharray="5,2" d="M288.646,-203.362C319.1807,-189.8909 366.713,-168.9207 393.2965,-157.1927"/>
<polygon fill="#9a32cd" stroke="#9a32cd" points="287.114,-200.2124 279.3776,-207.4511 289.9395,-206.6168 287.114,-200.2124"/>
<text text-anchor="middle" x="348.5" y="-182.6" font-family="Helvetica,sans-Serif" font-size="8.00" fill="#000000"> SM</text>
</g>
<!-- Node48 -->
<g id="node8" class="node">
<title>Node48</title>
<g id="a_node8"><a xlink:href="../../d2/df3/class_n_pbase.html" target="_top" xlink:title="The auxiliary base model class for other model classes. ">
<polygon fill="none" stroke="#000000" points="200.5,-140 200.5,-157 245.5,-157 245.5,-140 200.5,-140"/>
<text text-anchor="middle" x="223" y="-146.6" font-family="Helvetica,sans-Serif" font-size="8.00" fill="#000000">NPbase</text>
</a>
</g>
</g>
<!-- Node4&#45;&gt;Node48 -->
<g id="edge10" class="edge">
<title>Node4&#45;&gt;Node48</title>
<path fill="none" stroke="#191970" d="M230.4868,-201.8791C225.8692,-198.3354 221.7289,-194.0645 219,-189 213.6376,-179.048 216.5407,-165.7157 219.4721,-157.116"/>
<polygon fill="#191970" stroke="#191970" points="228.8206,-204.9705 239.1124,-207.4867 232.636,-199.1017 228.8206,-204.9705"/>
</g>
<!-- Node4&#45;&gt;Node48 -->
<g id="edge11" class="edge">
<title>Node4&#45;&gt;Node48</title>
<path fill="none" stroke="#9a32cd" stroke-dasharray="5,2" d="M245.8965,-199.3772C243.4217,-196.0561 241.0017,-192.5071 239,-189 233.0789,-178.6259 228.3719,-165.6301 225.6359,-157.2004"/>
<polygon fill="#9a32cd" stroke="#9a32cd" points="243.3586,-201.8087 252.3259,-207.4512 248.8345,-197.4481 243.3586,-201.8087"/>
<text text-anchor="middle" x="253.5" y="-182.6" font-family="Helvetica,sans-Serif" font-size="8.00" fill="#000000"> trueSM</text>
</g>
<!-- Node5 -->
<g id="node4" class="node">
<title>Node5</title>
<g id="a_node4"><a xlink:href="../../dd/dfa/class_q_c_d.html" target="_top" xlink:title="A class for parameters related to QCD, hadrons and quarks. ">
<polygon fill="none" stroke="#ff0000" points="243,-262.5 243,-279.5 277,-279.5 277,-262.5 243,-262.5"/>
<text text-anchor="middle" x="260" y="-269.1" font-family="Helvetica,sans-Serif" font-size="8.00" fill="#000000">QCD</text>
</a>
</g>
</g>
<!-- Node5&#45;&gt;Node4 -->
<g id="edge3" class="edge">
<title>Node5&#45;&gt;Node4</title>
<path fill="none" stroke="#191970" d="M260,-252.1166C260,-242.8173 260,-232.0557 260,-224.7149"/>
<polygon fill="#191970" stroke="#191970" points="256.5001,-252.4062 260,-262.4063 263.5001,-252.4063 256.5001,-252.4062"/>
</g>
<!-- Node8 -->
<g id="node5" class="node">
<title>Node8</title>
<g id="a_node5"><a xlink:href="../../db/d32/class_e_w_s_m_two_fermions_l_e_p2.html" target="_top" xlink:title="A class for the form factors , &#160;and &#160;in the processes &#160;at LEP&#45;II. ">
<polygon fill="none" stroke="#ff0000" points="268.5,-63.5 268.5,-80.5 377.5,-80.5 377.5,-63.5 268.5,-63.5"/>
<text text-anchor="middle" x="323" y="-70.1" font-family="Helvetica,sans-Serif" font-size="8.00" fill="#000000">EWSMTwoFermionsLEP2</text>
</a>
</g>
</g>
<!-- Node8&#45;&gt;Node4 -->
<g id="edge4" class="edge">
<title>Node8&#45;&gt;Node4</title>
<path fill="none" stroke="#9a32cd" stroke-dasharray="5,2" d="M313.7739,-89.7744C307.3934,-102.2955 298.8528,-119.5203 292,-135 280.4932,-160.9927 268.6292,-192.4925 263.1383,-207.3928"/>
<polygon fill="#9a32cd" stroke="#9a32cd" points="316.8951,-91.3582 318.3544,-80.8644 310.6695,-88.1578 316.8951,-91.3582"/>
<text text-anchor="middle" x="332.5" y="-146.6" font-family="Helvetica,sans-Serif" font-size="8.00" fill="#000000"> myTwoFermionsLEP2</text>
</g>
<!-- Node9&#45;&gt;Node4 -->
<g id="edge7" class="edge">
<title>Node9&#45;&gt;Node4</title>
<path fill="none" stroke="#9a32cd" stroke-dasharray="5,2" d="M396.201,-164.0638C386.3051,-172.5023 373.1744,-182.5038 360,-189 339.8392,-198.9411 315.5248,-205.6114 295.9198,-209.8349"/>
<polygon fill="#9a32cd" stroke="#9a32cd" points="398.8138,-166.4255 403.9846,-157.1781 394.1757,-161.1826 398.8138,-166.4255"/>
<text text-anchor="middle" x="404" y="-182.6" font-family="Helvetica,sans-Serif" font-size="8.00" fill="#000000"> myEWSMcache</text>
</g>
<!-- Node9&#45;&gt;Node8 -->
<g id="edge5" class="edge">
<title>Node9&#45;&gt;Node8</title>
<path fill="none" stroke="#9a32cd" stroke-dasharray="5,2" d="M394.9162,-133.1288C376.3726,-117.3667 348.1883,-93.4101 333.2037,-80.6732"/>
<polygon fill="#9a32cd" stroke="#9a32cd" points="392.7897,-135.9148 402.6759,-139.7245 397.3232,-130.5812 392.7897,-135.9148"/>
<text text-anchor="middle" x="385" y="-106.1" font-family="Helvetica,sans-Serif" font-size="8.00" fill="#000000"> cache</text>
</g>
<!-- Node47 -->
<g id="node7" class="node">
<title>Node47</title>
<g id="a_node7"><a xlink:href="../../db/d2b/class_georgi_machacek.html" target="_top" xlink:title="A base class for the Georgi&#45;Machacek model. ">
<polygon fill="none" stroke="#000000" points="94.5,-63.5 94.5,-80.5 171.5,-80.5 171.5,-63.5 94.5,-63.5"/>
<text text-anchor="middle" x="133" y="-70.1" font-family="Helvetica,sans-Serif" font-size="8.00" fill="#000000">GeorgiMachacek</text>
</a>
</g>
</g>
<!-- Node47&#45;&gt;Node2 -->
<g id="edge8" class="edge">
<title>Node47&#45;&gt;Node2</title>
<path fill="none" stroke="#9a32cd" stroke-dasharray="5,2" d="M112.9816,-57.3409C107.9754,-53.4639 102.6966,-49.1885 98,-45 88.1114,-36.1812 77.6267,-25.1433 70.7398,-17.6305"/>
<polygon fill="#9a32cd" stroke="#9a32cd" points="110.9112,-60.1633 120.9984,-63.4036 115.1335,-54.5801 110.9112,-60.1633"/>
<text text-anchor="middle" x="111" y="-38.6" font-family="Helvetica,sans-Serif" font-size="8.00" fill="#000000"> myGM</text>
</g>
<!-- Node51 -->
<g id="node10" class="node">
<title>Node51</title>
<g id="a_node10"><a xlink:href="../../d7/db7/class_g_mcache.html" target="_top" xlink:title="A class for the caching of GeorgiMachacek objects. ">
<polygon fill="none" stroke="#ff0000" points="150.5,-.5 150.5,-17.5 201.5,-17.5 201.5,-.5 150.5,-.5"/>
<text text-anchor="middle" x="176" y="-7.1" font-family="Helvetica,sans-Serif" font-size="8.00" fill="#000000">GMcache</text>
</a>
</g>
</g>
<!-- Node47&#45;&gt;Node51 -->
<g id="edge14" class="edge">
<title>Node47&#45;&gt;Node51</title>
<path fill="none" stroke="#9a32cd" stroke-dasharray="5,2" d="M127.4493,-53.5598C126.6806,-47.6268 127.0005,-41.2385 130,-36 134.6933,-27.8032 142.9492,-21.8519 151.1838,-17.658"/>
<polygon fill="#9a32cd" stroke="#9a32cd" points="124.0539,-54.4139 129.6651,-63.4008 130.8829,-52.8762 124.0539,-54.4139"/>
<text text-anchor="middle" x="143" y="-38.6" font-family="Helvetica,sans-Serif" font-size="8.00" fill="#000000"> myGM</text>
</g>
<!-- Node48&#45;&gt;Node47 -->
<g id="edge9" class="edge">
<title>Node48&#45;&gt;Node47</title>
<path fill="none" stroke="#191970" d="M204.9162,-133.1288C186.3726,-117.3667 158.1883,-93.4101 143.2037,-80.6732"/>
<polygon fill="#191970" stroke="#191970" points="202.7897,-135.9148 212.6759,-139.7245 207.3232,-130.5812 202.7897,-135.9148"/>
</g>
<!-- Node49 -->
<g id="node9" class="node">
<title>Node49</title>
<g id="a_node9"><a xlink:href="../../d5/d76/class_matching.html" target="_top" xlink:title="Matching\&lt; GMMatching,\l GeorgiMachacek \&gt;">
<polygon fill="none" stroke="#ff0000" points="79.5,-135.5 79.5,-161.5 182.5,-161.5 182.5,-135.5 79.5,-135.5"/>
<text text-anchor="start" x="87.5" y="-151.1" font-family="Helvetica,sans-Serif" font-size="8.00" fill="#000000">Matching&lt; GMMatching,</text>
<text text-anchor="middle" x="131" y="-142.1" font-family="Helvetica,sans-Serif" font-size="8.00" fill="#000000"> GeorgiMachacek &gt;</text>
</a>
</g>
</g>
<!-- Node49&#45;&gt;Node47 -->
<g id="edge12" class="edge">
<title>Node49&#45;&gt;Node47</title>
<path fill="none" stroke="#9a32cd" stroke-dasharray="5,2" d="M131.6121,-125.0882C132.0027,-110.1453 132.4869,-91.6269 132.7679,-80.8783"/>
<polygon fill="#9a32cd" stroke="#9a32cd" points="128.111,-125.0866 131.3484,-135.1747 135.1086,-125.2696 128.111,-125.0866"/>
<text text-anchor="middle" x="144" y="-106.1" font-family="Helvetica,sans-Serif" font-size="8.00" fill="#000000"> GMM</text>
</g>
<!-- Node51&#45;&gt;Node47 -->
<g id="edge13" class="edge">
<title>Node51&#45;&gt;Node47</title>
<path fill="none" stroke="#9a32cd" stroke-dasharray="5,2" d="M169.3396,-27.4515C166.8302,-33.3056 163.6785,-39.644 160,-45 155.3463,-51.7759 148.8661,-58.3224 143.4208,-63.2719"/>
<polygon fill="#9a32cd" stroke="#9a32cd" points="172.7498,-28.3416 173.1377,-17.7539 166.2318,-25.7888 172.7498,-28.3416"/>
<text text-anchor="middle" x="189" y="-38.6" font-family="Helvetica,sans-Serif" font-size="8.00" fill="#000000"> myGMcache</text>
</g>
</g>
</svg>
