<?xml version="1.0" encoding="UTF-8" standalone="no"?>
<!DOCTYPE svg PUBLIC "-//W3C//DTD SVG 1.1//EN"
 "http://www.w3.org/Graphics/SVG/1.1/DTD/svg11.dtd">
<!-- Generated by graphviz version 2.38.0 (20140413.2041)
 -->
<!-- Title: alpha_2a.cpp Pages: 1 -->
<svg width="353pt" height="350pt"
 viewBox="0.00 0.00 352.92 350.00" xmlns="http://www.w3.org/2000/svg" xmlns:xlink="http://www.w3.org/1999/xlink">
<g id="graph0" class="graph" transform="scale(1 1) rotate(0) translate(4 346)">
<title>alpha_2a.cpp</title>
<!-- Node1 -->
<g id="node1" class="node"><title>Node1</title>
<polygon fill="#bfbfbf" stroke="black" points="60.4227,-324.5 60.4227,-341.5 125.423,-341.5 125.423,-324.5 60.4227,-324.5"/>
<text text-anchor="middle" x="92.9227" y="-331.1" font-family="Helvetica,sans-Serif" font-size="8.00">alpha_2a.cpp</text>
</g>
<!-- Node2 -->
<g id="node2" class="node"><title>Node2</title>
<g id="a_node2"><a xlink:href="../../dc/d15/alpha__2a_8h.html" target="_top" xlink:title="alpha_2a.h">
<polygon fill="none" stroke="black" points="64.9227,-270.5 64.9227,-287.5 120.923,-287.5 120.923,-270.5 64.9227,-270.5"/>
<text text-anchor="middle" x="92.9227" y="-277.1" font-family="Helvetica,sans-Serif" font-size="8.00">alpha_2a.h</text>
</a>
</g>
</g>
<!-- Node1&#45;&gt;Node2 -->
<g id="edge1" class="edge"><title>Node1&#45;&gt;Node2</title>
<path fill="none" stroke="midnightblue" d="M92.9227,-324.327C92.9227,-317.414 92.9227,-306.985 92.9227,-297.979"/>
<polygon fill="midnightblue" stroke="midnightblue" points="96.4228,-297.704 92.9227,-287.704 89.4228,-297.704 96.4228,-297.704"/>
</g>
<!-- Node3 -->
<g id="node3" class="node"><title>Node3</title>
<g id="a_node3"><a xlink:href="../../dd/dcd/_th_observable_8h.html" target="_top" xlink:title="ThObservable.h">
<polygon fill="none" stroke="black" points="56.4227,-216.5 56.4227,-233.5 129.423,-233.5 129.423,-216.5 56.4227,-216.5"/>
<text text-anchor="middle" x="92.9227" y="-223.1" font-family="Helvetica,sans-Serif" font-size="8.00">ThObservable.h</text>
</a>
</g>
</g>
<!-- Node2&#45;&gt;Node3 -->
<g id="edge2" class="edge"><title>Node2&#45;&gt;Node3</title>
<path fill="none" stroke="midnightblue" d="M92.9227,-270.327C92.9227,-263.414 92.9227,-252.985 92.9227,-243.979"/>
<polygon fill="midnightblue" stroke="midnightblue" points="96.4228,-243.704 92.9227,-233.704 89.4228,-243.704 96.4228,-243.704"/>
</g>
<!-- Node4 -->
<g id="node4" class="node"><title>Node4</title>
<g id="a_node4"><a xlink:href="../../d6/d0a/_standard_model_8h.html" target="_top" xlink:title="StandardModel.h">
<polygon fill="none" stroke="black" points="54.4227,-162.5 54.4227,-179.5 131.423,-179.5 131.423,-162.5 54.4227,-162.5"/>
<text text-anchor="middle" x="92.9227" y="-169.1" font-family="Helvetica,sans-Serif" font-size="8.00">StandardModel.h</text>
</a>
</g>
</g>
<!-- Node3&#45;&gt;Node4 -->
<g id="edge3" class="edge"><title>Node3&#45;&gt;Node4</title>
<path fill="none" stroke="midnightblue" d="M92.9227,-216.327C92.9227,-209.414 92.9227,-198.985 92.9227,-189.979"/>
<polygon fill="midnightblue" stroke="midnightblue" points="96.4228,-189.704 92.9227,-179.704 89.4228,-189.704 96.4228,-189.704"/>
</g>
<!-- Node5 -->
<g id="node5" class="node"><title>Node5</title>
<g id="a_node5"><a xlink:href="../../d9/d72/gslpp_8h.html" target="_top" xlink:title="gslpp.h">
<polygon fill="none" stroke="red" points="71.9227,-54.5 71.9227,-71.5 113.923,-71.5 113.923,-54.5 71.9227,-54.5"/>
<text text-anchor="middle" x="92.9227" y="-61.1" font-family="Helvetica,sans-Serif" font-size="8.00">gslpp.h</text>
</a>
</g>
</g>
<!-- Node4&#45;&gt;Node5 -->
<g id="edge4" class="edge"><title>Node4&#45;&gt;Node5</title>
<path fill="none" stroke="midnightblue" d="M58.5085,-162.492C38.8628,-156.253 15.8368,-145.181 3.92267,-126 -12.6192,-99.369 29.9938,-81.1545 61.8181,-71.6724"/>
<polygon fill="midnightblue" stroke="midnightblue" points="63.0022,-74.9753 71.6829,-68.901 61.1089,-68.2362 63.0022,-74.9753"/>
</g>
<!-- Node7 -->
<g id="node7" class="node"><title>Node7</title>
<g id="a_node7"><a xlink:href="../../d4/d68/_q_c_d_8h.html" target="_top" xlink:title="QCD.h">
<polygon fill="none" stroke="red" points="13.4227,-108.5 13.4227,-125.5 54.4227,-125.5 54.4227,-108.5 13.4227,-108.5"/>
<text text-anchor="middle" x="33.9227" y="-115.1" font-family="Helvetica,sans-Serif" font-size="8.00">QCD.h</text>
</a>
</g>
</g>
<!-- Node4&#45;&gt;Node7 -->
<g id="edge6" class="edge"><title>Node4&#45;&gt;Node7</title>
<path fill="none" stroke="midnightblue" d="M84.217,-162.327C75.3279,-154.493 61.3137,-142.141 50.3338,-132.464"/>
<polygon fill="midnightblue" stroke="midnightblue" points="52.4804,-129.691 42.664,-125.704 47.8519,-134.942 52.4804,-129.691"/>
</g>
<!-- Node8 -->
<g id="node8" class="node"><title>Node8</title>
<g id="a_node8"><a xlink:href="../../db/d5d/_c_k_m_8h.html" target="_top" xlink:title="CKM.h">
<polygon fill="none" stroke="red" points="72.4227,-108.5 72.4227,-125.5 113.423,-125.5 113.423,-108.5 72.4227,-108.5"/>
<text text-anchor="middle" x="92.9227" y="-115.1" font-family="Helvetica,sans-Serif" font-size="8.00">CKM.h</text>
</a>
</g>
</g>
<!-- Node4&#45;&gt;Node8 -->
<g id="edge7" class="edge"><title>Node4&#45;&gt;Node8</title>
<path fill="none" stroke="midnightblue" d="M92.9227,-162.327C92.9227,-155.414 92.9227,-144.985 92.9227,-135.979"/>
<polygon fill="midnightblue" stroke="midnightblue" points="96.4228,-135.704 92.9227,-125.704 89.4228,-135.704 96.4228,-135.704"/>
</g>
<!-- Node9 -->
<g id="node9" class="node"><title>Node9</title>
<g id="a_node9"><a xlink:href="../../db/dba/_wilson_coefficient_8h.html" target="_top" xlink:title="WilsonCoefficient.h">
<polygon fill="none" stroke="red" points="131.423,-108.5 131.423,-125.5 216.423,-125.5 216.423,-108.5 131.423,-108.5"/>
<text text-anchor="middle" x="173.923" y="-115.1" font-family="Helvetica,sans-Serif" font-size="8.00">WilsonCoefficient.h</text>
</a>
</g>
</g>
<!-- Node4&#45;&gt;Node9 -->
<g id="edge9" class="edge"><title>Node4&#45;&gt;Node9</title>
<path fill="none" stroke="midnightblue" d="M104.875,-162.327C117.63,-154.139 138.071,-141.016 153.409,-131.169"/>
<polygon fill="midnightblue" stroke="midnightblue" points="155.661,-133.883 162.185,-125.535 151.879,-127.992 155.661,-133.883"/>
</g>
<!-- Node10 -->
<g id="node10" class="node"><title>Node10</title>
<g id="a_node10"><a xlink:href="../../d6/d16/_standard_model_matching_8h.html" target="_top" xlink:title="StandardModelMatching.h">
<polygon fill="none" stroke="red" points="234.923,-108.5 234.923,-125.5 344.923,-125.5 344.923,-108.5 234.923,-108.5"/>
<text text-anchor="middle" x="289.923" y="-115.1" font-family="Helvetica,sans-Serif" font-size="8.00">StandardModelMatching.h</text>
</a>
</g>
</g>
<!-- Node4&#45;&gt;Node10 -->
<g id="edge10" class="edge"><title>Node4&#45;&gt;Node10</title>
<path fill="none" stroke="midnightblue" d="M121.568,-162.439C155.854,-153.389 213.404,-138.198 251.52,-128.137"/>
<polygon fill="midnightblue" stroke="midnightblue" points="252.467,-131.507 261.243,-125.57 250.68,-124.739 252.467,-131.507"/>
</g>
<!-- Node6 -->
<g id="node6" class="node"><title>Node6</title>
<g id="a_node6"><a xlink:href="../../d1/dc2/gslpp__complex_8h.html" target="_top" xlink:title="gslpp_complex.h">
<polygon fill="none" stroke="red" points="54.4227,-0.5 54.4227,-17.5 131.423,-17.5 131.423,-0.5 54.4227,-0.5"/>
<text text-anchor="middle" x="92.9227" y="-7.1" font-family="Helvetica,sans-Serif" font-size="8.00">gslpp_complex.h</text>
</a>
</g>
</g>
<!-- Node5&#45;&gt;Node6 -->
<g id="edge5" class="edge"><title>Node5&#45;&gt;Node6</title>
<path fill="none" stroke="midnightblue" d="M92.9227,-54.3272C92.9227,-47.4145 92.9227,-36.985 92.9227,-27.9789"/>
<polygon fill="midnightblue" stroke="midnightblue" points="96.4228,-27.7042 92.9227,-17.7043 89.4228,-27.7043 96.4228,-27.7042"/>
</g>
<!-- Node8&#45;&gt;Node5 -->
<g id="edge8" class="edge"><title>Node8&#45;&gt;Node5</title>
<path fill="none" stroke="midnightblue" d="M92.9227,-108.327C92.9227,-101.414 92.9227,-90.985 92.9227,-81.9789"/>
<polygon fill="midnightblue" stroke="midnightblue" points="96.4228,-81.7042 92.9227,-71.7043 89.4228,-81.7043 96.4228,-81.7042"/>
</g>
<!-- Node10&#45;&gt;Node5 -->
<g id="edge11" class="edge"><title>Node10&#45;&gt;Node5</title>
<path fill="none" stroke="midnightblue" d="M261.277,-108.439C224.699,-98.7835 161.64,-82.1386 123.952,-72.1905"/>
<polygon fill="midnightblue" stroke="midnightblue" points="124.6,-68.7417 114.038,-69.5736 122.814,-75.5099 124.6,-68.7417"/>
</g>
</g>
</svg>
